<svg width="617" height="458" viewBox="0 0 617 458" fill="none" xmlns="http://www.w3.org/2000/svg">
<rect y="66" width="617" height="50" fill="white"/>
<path d="M24.6 94.44C26.08 94.44 27.24 93.3 27.24 91.84C27.24 90.36 26.08 89.22 24.6 89.22C23.16 89.22 22 90.36 22 91.84C22 93.3 23.16 94.44 24.6 94.44ZM48.8089 84.58H41.1289V98.5H48.8089V96.64H43.4089V92.38H48.2089V90.52H43.4089V86.44H48.8089V84.58ZM51.6172 98.5H53.8972V83.7H51.6172V98.5ZM61.5306 89.22C63.2306 89.22 64.5706 90.3 64.6106 92H58.5106C58.7506 90.26 59.9906 89.22 61.5306 89.22ZM66.6906 95.22H64.2306C63.8106 96.08 63.0306 96.76 61.6306 96.76C59.9506 96.76 58.6506 95.66 58.4906 93.84H66.9106C66.9706 93.46 66.9906 93.1 66.9906 92.72C66.9906 89.48 64.7706 87.3 61.6306 87.3C58.3706 87.3 56.1306 89.52 56.1306 92.98C56.1306 96.44 58.4706 98.68 61.6306 98.68C64.3306 98.68 66.0706 97.14 66.6906 95.22ZM68.4744 92.98C68.4744 96.44 70.7144 98.68 73.8744 98.68C76.5744 98.68 78.3344 97.18 78.9544 95.02H76.4944C76.0744 96.16 75.2344 96.76 73.8744 96.76C72.0344 96.76 70.8144 95.4 70.8144 92.98C70.8144 90.58 72.0344 89.22 73.8744 89.22C75.2344 89.22 76.1144 89.9 76.4944 90.96H78.9544C78.3344 88.64 76.5744 87.3 73.8744 87.3C70.7144 87.3 68.4744 89.54 68.4744 92.98ZM81.5866 95.44C81.5866 97.68 82.8066 98.5 84.7666 98.5H86.5666V96.6H85.1666C84.2066 96.6 83.8866 96.26 83.8866 95.44V89.34H86.5666V87.48H83.8866V84.74H81.5866V87.48H80.2866V89.34H81.5866V95.44ZM88.668 98.5H90.948V87.48H88.668V98.5ZM89.828 86.02C90.628 86.02 91.268 85.38 91.268 84.56C91.268 83.74 90.628 83.1 89.828 83.1C89.008 83.1 88.368 83.74 88.368 84.56C88.368 85.38 89.008 86.02 89.828 86.02ZM92.6414 87.48L96.8214 98.5H99.5414L103.741 87.48H101.321L98.2014 96.46L95.0814 87.48H92.6414ZM110.105 89.22C111.805 89.22 113.145 90.3 113.185 92H107.085C107.325 90.26 108.565 89.22 110.105 89.22ZM115.265 95.22H112.805C112.385 96.08 111.605 96.76 110.205 96.76C108.525 96.76 107.225 95.66 107.065 93.84H115.485C115.545 93.46 115.565 93.1 115.565 92.72C115.565 89.48 113.345 87.3 110.205 87.3C106.945 87.3 104.705 89.52 104.705 92.98C104.705 96.44 107.045 98.68 110.205 98.68C112.905 98.68 114.645 97.14 115.265 95.22ZM132.384 94.56C132.384 89.48 125.024 91.44 125.024 88.3C125.024 86.96 126.044 86.32 127.364 86.36C128.804 86.4 129.624 87.26 129.704 88.2H132.224C132.024 85.82 130.144 84.42 127.484 84.42C124.644 84.42 122.704 85.94 122.704 88.38C122.704 93.5 130.084 91.32 130.084 94.68C130.084 95.86 129.184 96.72 127.584 96.72C126.004 96.72 125.204 95.8 125.104 94.66H122.664C122.664 97.12 124.804 98.64 127.584 98.64C130.684 98.64 132.384 96.64 132.384 94.56ZM145.054 87.48H142.774V93.62C142.774 95.64 141.674 96.68 139.994 96.68C138.334 96.68 137.234 95.64 137.234 93.62V87.48H134.974V93.96C134.974 97.04 136.934 98.66 139.514 98.66C140.814 98.66 142.054 98.12 142.774 97.18V98.5H145.054V87.48ZM150.343 89.12V83.7H148.063V98.5H150.343V96.9C151.063 97.86 152.363 98.68 154.183 98.68C157.083 98.68 159.363 96.34 159.363 92.94C159.363 89.54 157.103 87.3 154.183 87.3C152.442 87.3 151.063 88.12 150.343 89.12ZM157.043 92.94C157.043 95.32 155.403 96.7 153.683 96.7C151.983 96.7 150.343 95.36 150.343 92.98C150.343 90.62 151.983 89.28 153.683 89.28C155.403 89.28 157.043 90.56 157.043 92.94ZM162.777 86.02C163.577 86.02 164.217 85.38 164.217 84.56C164.217 83.74 163.577 83.1 162.777 83.1C161.957 83.1 161.317 83.74 161.317 84.56C161.317 85.38 161.957 86.02 162.777 86.02ZM161.617 87.48V100.66C161.617 101.48 161.297 101.82 160.337 101.82H159.557V103.74H160.737C162.697 103.74 163.897 102.9 163.897 100.66V87.48H161.617ZM171.531 89.22C173.231 89.22 174.571 90.3 174.611 92H168.511C168.751 90.26 169.991 89.22 171.531 89.22ZM176.691 95.22H174.231C173.811 96.08 173.031 96.76 171.631 96.76C169.951 96.76 168.651 95.66 168.491 93.84H176.911C176.971 93.46 176.991 93.1 176.991 92.72C176.991 89.48 174.771 87.3 171.631 87.3C168.371 87.3 166.131 89.52 166.131 92.98C166.131 96.44 168.471 98.68 171.631 98.68C174.331 98.68 176.071 97.14 176.691 95.22ZM178.474 92.98C178.474 96.44 180.714 98.68 183.874 98.68C186.574 98.68 188.334 97.18 188.954 95.02H186.494C186.074 96.16 185.234 96.76 183.874 96.76C182.034 96.76 180.814 95.4 180.814 92.98C180.814 90.58 182.034 89.22 183.874 89.22C185.234 89.22 186.114 89.9 186.494 90.96H188.954C188.334 88.64 186.574 87.3 183.874 87.3C180.714 87.3 178.474 89.54 178.474 92.98ZM191.587 95.44C191.587 97.68 192.807 98.5 194.767 98.5H196.567V96.6H195.167C194.207 96.6 193.887 96.26 193.887 95.44V89.34H196.567V87.48H193.887V84.74H191.587V87.48H190.287V89.34H191.587V95.44ZM206.888 95.42C206.768 91.44 200.548 92.68 200.548 90.46C200.548 89.72 201.188 89.22 202.408 89.22C203.648 89.22 204.388 89.88 204.468 90.84H206.748C206.628 88.64 204.988 87.3 202.488 87.3C199.888 87.3 198.248 88.72 198.248 90.48C198.248 94.52 204.648 93.28 204.648 95.44C204.648 96.2 203.948 96.76 202.628 96.76C201.368 96.76 200.508 96.02 200.428 95.12H198.068C198.168 97.12 200.028 98.68 202.668 98.68C205.268 98.68 206.888 97.28 206.888 95.42Z" fill="#212832"/>
<rect x="0.5" y="66.5" width="616" height="49" stroke="black" stroke-opacity="0.5"/>
<rect y="294" width="617" height="50" fill="white"/>
<path d="M21.74 320.22H29.96V318.3H21.74V320.22ZM33.4392 320.22H41.6592V318.3H33.4392V320.22ZM45.1384 320.22H53.3584V318.3H45.1384V320.22ZM56.8377 320.22H65.0577V318.3H56.8377V320.22Z" fill="#212832"/>
<rect x="0.5" y="294.5" width="616" height="49" stroke="black" stroke-opacity="0.5"/>
<rect y="408" width="617" height="50" fill="white"/>
<path d="M21.74 434.22H29.96V432.3H21.74V434.22ZM33.4392 434.22H41.6592V432.3H33.4392V434.22ZM45.1384 434.22H53.3584V432.3H45.1384V434.22ZM56.8377 434.22H65.0577V432.3H56.8377V434.22Z" fill="#212832"/>
<rect x="0.5" y="408.5" width="616" height="49" stroke="black" stroke-opacity="0.5"/>
<rect y="180" width="617" height="50" fill="white"/>
<path d="M21.74 206.22H29.96V204.3H21.74V206.22ZM33.4392 206.22H41.6592V204.3H33.4392V206.22ZM45.1384 206.22H53.3584V204.3H45.1384V206.22ZM56.8377 206.22H65.0577V204.3H56.8377V206.22Z" fill="#212832"/>
<rect x="0.5" y="180.5" width="616" height="49" stroke="black" stroke-opacity="0.5"/>
<rect y="123" width="617" height="50" fill="white"/>
<path d="M24.6 151.44C26.08 151.44 27.24 150.3 27.24 148.84C27.24 147.36 26.08 146.22 24.6 146.22C23.16 146.22 22 147.36 22 148.84C22 150.3 23.16 151.44 24.6 151.44ZM43.4089 148V143.46H45.9289C47.7089 143.46 48.5089 144.3 48.5089 145.74C48.5089 147.14 47.7089 148 45.9289 148H43.4089ZM50.8489 145.74C50.8489 143.48 49.2289 141.6 45.9289 141.6H41.1289V155.5H43.4089V149.86H45.9289C49.5489 149.86 50.8489 147.72 50.8489 145.74ZM55.3034 149.7C55.3034 147.36 56.3434 146.66 58.0234 146.66H58.6034V144.3C57.0434 144.3 55.9434 144.98 55.3034 146.08V144.48H53.0234V155.5H55.3034V149.7ZM71.1992 149.98C71.1992 146.52 68.7192 144.3 65.5792 144.3C62.4392 144.3 59.9592 146.52 59.9592 149.98C59.9592 153.44 62.3392 155.68 65.4792 155.68C68.6392 155.68 71.1992 153.44 71.1992 149.98ZM62.2792 149.98C62.2792 147.48 63.8192 146.28 65.5392 146.28C67.2392 146.28 68.8592 147.48 68.8592 149.98C68.8592 152.48 67.1792 153.7 65.4792 153.7C63.7592 153.7 62.2792 152.48 62.2792 149.98ZM74.6131 143.02C75.4131 143.02 76.0531 142.38 76.0531 141.56C76.0531 140.74 75.4131 140.1 74.6131 140.1C73.7931 140.1 73.1531 140.74 73.1531 141.56C73.1531 142.38 73.7931 143.02 74.6131 143.02ZM73.4531 144.48V157.66C73.4531 158.48 73.1331 158.82 72.1731 158.82H71.3931V160.74H72.5731C74.5331 160.74 75.7331 159.9 75.7331 157.66V144.48H73.4531ZM83.3666 146.22C85.0666 146.22 86.4066 147.3 86.4466 149H80.3466C80.5866 147.26 81.8266 146.22 83.3666 146.22ZM88.5266 152.22H86.0666C85.6466 153.08 84.8666 153.76 83.4666 153.76C81.7866 153.76 80.4866 152.66 80.3266 150.84H88.7466C88.8066 150.46 88.8266 150.1 88.8266 149.72C88.8266 146.48 86.6066 144.3 83.4666 144.3C80.2066 144.3 77.9666 146.52 77.9666 149.98C77.9666 153.44 80.3066 155.68 83.4666 155.68C86.1666 155.68 87.9066 154.14 88.5266 152.22ZM90.3103 149.98C90.3103 153.44 92.5503 155.68 95.7103 155.68C98.4103 155.68 100.17 154.18 100.79 152.02H98.3303C97.9103 153.16 97.0703 153.76 95.7103 153.76C93.8703 153.76 92.6503 152.4 92.6503 149.98C92.6503 147.58 93.8703 146.22 95.7103 146.22C97.0703 146.22 97.9503 146.9 98.3303 147.96H100.79C100.17 145.64 98.4103 144.3 95.7103 144.3C92.5503 144.3 90.3103 146.54 90.3103 149.98ZM103.423 152.44C103.423 154.68 104.643 155.5 106.603 155.5H108.403V153.6H107.003C106.043 153.6 105.723 153.26 105.723 152.44V146.34H108.403V144.48H105.723V141.74H103.423V144.48H102.123V146.34H103.423V152.44ZM118.724 152.42C118.604 148.44 112.384 149.68 112.384 147.46C112.384 146.72 113.024 146.22 114.244 146.22C115.484 146.22 116.224 146.88 116.304 147.84H118.584C118.464 145.64 116.824 144.3 114.324 144.3C111.724 144.3 110.084 145.72 110.084 147.48C110.084 151.52 116.484 150.28 116.484 152.44C116.484 153.2 115.784 153.76 114.464 153.76C113.204 153.76 112.344 153.02 112.264 152.12H109.904C110.004 154.12 111.864 155.68 114.504 155.68C117.104 155.68 118.724 154.28 118.724 152.42Z" fill="#212832"/>
<rect x="0.5" y="123.5" width="616" height="49" stroke="black" stroke-opacity="0.5"/>
<rect y="237" width="617" height="50" fill="white"/>
<path d="M21.74 263.22H29.96V261.3H21.74V263.22ZM33.4392 263.22H41.6592V261.3H33.4392V263.22ZM45.1384 263.22H53.3584V261.3H45.1384V263.22ZM56.8377 263.22H65.0577V261.3H56.8377V263.22Z" fill="#212832"/>
<rect x="0.5" y="237.5" width="616" height="49" stroke="black" stroke-opacity="0.5"/>
<rect y="351" width="617" height="50" fill="white"/>
<path d="M21.74 377.22H29.96V375.3H21.74V377.22ZM33.4392 377.22H41.6592V375.3H33.4392V377.22ZM45.1384 377.22H53.3584V375.3H45.1384V377.22ZM56.8377 377.22H65.0577V375.3H56.8377V377.22Z" fill="#212832"/>
<rect x="0.5" y="351.5" width="616" height="49" stroke="black" stroke-opacity="0.5"/>
<rect width="617" height="58" fill="#3498DB"/>
<path d="M33.925 32.95C33.925 26.8 24.975 28.75 24.975 25.25C24.975 23.825 26 23.15 27.375 23.2C28.875 23.225 29.8 24.125 29.875 25.275H33.725C33.5 22.125 31.05 20.3 27.475 20.3C23.875 20.3 21.325 22.2 21.325 25.35C21.3 31.675 30.3 29.4 30.3 33.175C30.3 34.425 29.325 35.3 27.675 35.3C26.05 35.3 25.125 34.375 25.025 32.975H21.275C21.325 36.275 24.125 38.175 27.75 38.175C31.725 38.175 33.925 35.7 33.925 32.95ZM43.4094 26.8C45.2094 26.8 46.6594 27.95 46.7094 29.775H40.1344C40.4094 27.875 41.7344 26.8 43.4094 26.8ZM49.9844 33.65H46.2094C45.7594 34.575 44.9344 35.325 43.4344 35.325C41.6844 35.325 40.2844 34.175 40.1094 32.125H50.2344C50.3094 31.675 50.3344 31.225 50.3344 30.775C50.3344 26.65 47.5094 23.925 43.5094 23.925C39.4094 23.925 36.5594 26.7 36.5594 31.075C36.5594 35.425 39.4844 38.225 43.5094 38.225C46.9344 38.225 49.2344 36.2 49.9844 33.65ZM72.7641 38H76.2641V29.875C76.2641 26.05 73.9141 23.95 70.5891 23.95C68.5641 23.95 66.7391 25.025 65.8391 26.6C64.8891 24.875 63.1141 23.95 60.9641 23.95C59.2391 23.95 57.7641 24.675 56.8891 25.825V24.15H53.3891V38H56.8891V30.35C56.8891 28.15 58.1141 27 60.0141 27C61.8641 27 63.0891 28.15 63.0891 30.35V38H66.5891V30.35C66.5891 28.15 67.8141 27 69.6891 27C71.5391 27 72.7641 28.15 72.7641 30.35V38ZM86.0354 26.8C87.8354 26.8 89.2854 27.95 89.3354 29.775H82.7604C83.0354 27.875 84.3604 26.8 86.0354 26.8ZM92.6104 33.65H88.8354C88.3854 34.575 87.5604 35.325 86.0604 35.325C84.3104 35.325 82.9104 34.175 82.7354 32.125H92.8604C92.9354 31.675 92.9604 31.225 92.9604 30.775C92.9604 26.65 90.1354 23.925 86.1354 23.925C82.0354 23.925 79.1854 26.7 79.1854 31.075C79.1854 35.425 82.1104 38.225 86.1354 38.225C89.5604 38.225 91.8604 36.2 92.6104 33.65ZM106.765 34.05C106.665 28.975 98.99 30.55 98.99 28.025C98.99 27.225 99.665 26.7 100.965 26.7C102.34 26.7 103.19 27.425 103.29 28.5H106.64C106.44 25.75 104.415 23.925 101.065 23.925C97.64 23.925 95.59 25.775 95.59 28.075C95.59 33.15 103.415 31.575 103.415 34.05C103.415 34.85 102.665 35.475 101.29 35.475C99.89 35.475 98.915 34.675 98.79 33.625H95.265C95.415 36.2 97.84 38.225 101.315 38.225C104.69 38.225 106.765 36.425 106.765 34.05ZM110.688 33.7C110.688 36.875 112.463 38 115.113 38H117.313V35.05H115.688C114.588 35.05 114.213 34.65 114.213 33.725V27.025H117.313V24.15H114.213V20.725H110.688V24.15H109.038V27.025H110.688V33.7ZM126.28 26.8C128.08 26.8 129.53 27.95 129.58 29.775H123.005C123.28 27.875 124.605 26.8 126.28 26.8ZM132.855 33.65H129.08C128.63 34.575 127.805 35.325 126.305 35.325C124.555 35.325 123.155 34.175 122.98 32.125H133.105C133.18 31.675 133.205 31.225 133.205 30.775C133.205 26.65 130.38 23.925 126.38 23.925C122.28 23.925 119.43 26.7 119.43 31.075C119.43 35.425 122.355 38.225 126.38 38.225C129.805 38.225 132.105 36.2 132.855 33.65ZM139.76 31.1C139.76 28.425 141.01 27.625 143.085 27.625H144.01V23.95C142.085 23.95 140.635 24.875 139.76 26.3V24.15H136.26V38H139.76V31.1ZM161.525 38H165.025V34.45H167.225V31.4H165.025V20H160.95L152.775 31.7V34.45H161.525V38ZM156.625 31.4L161.75 23.75V31.4H156.625Z" fill="white"/>
</svg>
