<svg width="617" height="458" viewBox="0 0 617 458" fill="none" xmlns="http://www.w3.org/2000/svg">
<rect width="617" height="58" fill="#3498DB"/>
<path d="M33.925 32.95C33.925 26.8 24.975 28.75 24.975 25.25C24.975 23.825 26 23.15 27.375 23.2C28.875 23.225 29.8 24.125 29.875 25.275H33.725C33.5 22.125 31.05 20.3 27.475 20.3C23.875 20.3 21.325 22.2 21.325 25.35C21.3 31.675 30.3 29.4 30.3 33.175C30.3 34.425 29.325 35.3 27.675 35.3C26.05 35.3 25.125 34.375 25.025 32.975H21.275C21.325 36.275 24.125 38.175 27.75 38.175C31.725 38.175 33.925 35.7 33.925 32.95ZM43.4094 26.8C45.2094 26.8 46.6594 27.95 46.7094 29.775H40.1344C40.4094 27.875 41.7344 26.8 43.4094 26.8ZM49.9844 33.65H46.2094C45.7594 34.575 44.9344 35.325 43.4344 35.325C41.6844 35.325 40.2844 34.175 40.1094 32.125H50.2344C50.3094 31.675 50.3344 31.225 50.3344 30.775C50.3344 26.65 47.5094 23.925 43.5094 23.925C39.4094 23.925 36.5594 26.7 36.5594 31.075C36.5594 35.425 39.4844 38.225 43.5094 38.225C46.9344 38.225 49.2344 36.2 49.9844 33.65ZM72.7641 38H76.2641V29.875C76.2641 26.05 73.9141 23.95 70.5891 23.95C68.5641 23.95 66.7391 25.025 65.8391 26.6C64.8891 24.875 63.1141 23.95 60.9641 23.95C59.2391 23.95 57.7641 24.675 56.8891 25.825V24.15H53.3891V38H56.8891V30.35C56.8891 28.15 58.1141 27 60.0141 27C61.8641 27 63.0891 28.15 63.0891 30.35V38H66.5891V30.35C66.5891 28.15 67.8141 27 69.6891 27C71.5391 27 72.7641 28.15 72.7641 30.35V38ZM86.0354 26.8C87.8354 26.8 89.2854 27.95 89.3354 29.775H82.7604C83.0354 27.875 84.3604 26.8 86.0354 26.8ZM92.6104 33.65H88.8354C88.3854 34.575 87.5604 35.325 86.0604 35.325C84.3104 35.325 82.9104 34.175 82.7354 32.125H92.8604C92.9354 31.675 92.9604 31.225 92.9604 30.775C92.9604 26.65 90.1354 23.925 86.1354 23.925C82.0354 23.925 79.1854 26.7 79.1854 31.075C79.1854 35.425 82.1104 38.225 86.1354 38.225C89.5604 38.225 91.8604 36.2 92.6104 33.65ZM106.765 34.05C106.665 28.975 98.99 30.55 98.99 28.025C98.99 27.225 99.665 26.7 100.965 26.7C102.34 26.7 103.19 27.425 103.29 28.5H106.64C106.44 25.75 104.415 23.925 101.065 23.925C97.64 23.925 95.59 25.775 95.59 28.075C95.59 33.15 103.415 31.575 103.415 34.05C103.415 34.85 102.665 35.475 101.29 35.475C99.89 35.475 98.915 34.675 98.79 33.625H95.265C95.415 36.2 97.84 38.225 101.315 38.225C104.69 38.225 106.765 36.425 106.765 34.05ZM110.688 33.7C110.688 36.875 112.463 38 115.113 38H117.313V35.05H115.688C114.588 35.05 114.213 34.65 114.213 33.725V27.025H117.313V24.15H114.213V20.725H110.688V24.15H109.038V27.025H110.688V33.7ZM126.28 26.8C128.08 26.8 129.53 27.95 129.58 29.775H123.005C123.28 27.875 124.605 26.8 126.28 26.8ZM132.855 33.65H129.08C128.63 34.575 127.805 35.325 126.305 35.325C124.555 35.325 123.155 34.175 122.98 32.125H133.105C133.18 31.675 133.205 31.225 133.205 30.775C133.205 26.65 130.38 23.925 126.38 23.925C122.28 23.925 119.43 26.7 119.43 31.075C119.43 35.425 122.355 38.225 126.38 38.225C129.805 38.225 132.105 36.2 132.855 33.65ZM139.76 31.1C139.76 28.425 141.01 27.625 143.085 27.625H144.01V23.95C142.085 23.95 140.635 24.875 139.76 26.3V24.15H136.26V38H139.76V31.1ZM152.975 24.575H156.4C156.525 23.425 157.25 22.325 158.95 22.325C160.55 22.325 161.425 23.175 161.425 24.6C161.425 26.4 159.925 26.975 157.875 26.975H157.15V29.85H157.875C160.475 29.85 161.775 30.6 161.775 32.65C161.775 34.1 160.875 35.2 159.125 35.2C157.25 35.2 156.2 34.075 156.125 32.5H152.725C152.875 36.325 155.6 38.125 159.2 38.125C163.025 38.125 165.125 35.925 165.125 32.95C165.125 30.475 163.9 28.975 162.05 28.4V28.3C163.375 27.85 164.8 26.45 164.8 24.175C164.8 21.475 162.8 19.35 159.05 19.35C155.55 19.35 153.15 21.2 152.975 24.575Z" fill="white"/>
<rect y="66" width="617" height="50" fill="white"/>
<path d="M24.6 94.44C26.08 94.44 27.24 93.3 27.24 91.84C27.24 90.36 26.08 89.22 24.6 89.22C23.16 89.22 22 90.36 22 91.84C22 93.3 23.16 94.44 24.6 94.44ZM40.3689 91.52C40.3689 95.7 43.5489 98.62 47.4689 98.62C50.3689 98.62 52.8689 97.18 53.9289 94.46H51.1889C50.4489 95.94 49.1289 96.64 47.4689 96.64C44.7089 96.64 42.7089 94.66 42.7089 91.52C42.7089 88.38 44.7089 86.42 47.4689 86.42C49.1289 86.42 50.4489 87.12 51.1889 88.6H53.9289C52.8689 85.88 50.3689 84.42 47.4689 84.42C43.5489 84.42 40.3689 87.36 40.3689 91.52ZM56.5977 98.5H58.8777V83.7H56.5977V98.5ZM72.3711 92.98C72.3711 89.52 69.8911 87.3 66.7511 87.3C63.6111 87.3 61.1311 89.52 61.1311 92.98C61.1311 96.44 63.5111 98.68 66.6511 98.68C69.8111 98.68 72.3711 96.44 72.3711 92.98ZM63.4511 92.98C63.4511 90.48 64.9911 89.28 66.7111 89.28C68.4111 89.28 70.0311 90.48 70.0311 92.98C70.0311 95.48 68.3511 96.7 66.6511 96.7C64.9311 96.7 63.4511 95.48 63.4511 92.98ZM84.605 87.48H82.325V93.62C82.325 95.64 81.225 96.68 79.545 96.68C77.885 96.68 76.785 95.64 76.785 93.62V87.48H74.525V93.96C74.525 97.04 76.485 98.66 79.065 98.66C80.365 98.66 81.605 98.12 82.325 97.18V98.5H84.605V87.48ZM86.8533 92.94C86.8533 96.34 89.1533 98.68 92.0533 98.68C93.8533 98.68 95.1733 97.84 95.8733 96.84V98.5H98.1733V83.7H95.8733V89.02C95.0333 87.98 93.5133 87.3 92.0733 87.3C89.1533 87.3 86.8533 89.54 86.8533 92.94ZM95.8733 92.98C95.8733 95.36 94.2533 96.7 92.5333 96.7C90.8333 96.7 89.1933 95.32 89.1933 92.94C89.1933 90.56 90.8333 89.28 92.5333 89.28C94.2533 89.28 95.8733 90.62 95.8733 92.98ZM106.363 98.5H108.643V84.6H106.363V98.5ZM119.457 98.5H121.717V92C121.717 88.92 119.777 87.3 117.197 87.3C115.877 87.3 114.657 87.84 113.917 88.74V87.48H111.637V98.5H113.917V92.34C113.917 90.32 115.017 89.28 116.697 89.28C118.357 89.28 119.457 90.32 119.457 92.34V98.5ZM124.905 98.5H127.205V89.34H129.245V87.48H127.205V86.7C127.205 85.44 127.685 84.96 129.085 84.96V83.06C126.205 83.06 124.905 84.16 124.905 86.7V87.48H123.605V89.34H124.905V98.5ZM133.546 92.7C133.546 90.36 134.586 89.66 136.266 89.66H136.846V87.3C135.286 87.3 134.186 87.98 133.546 89.08V87.48H131.266V98.5H133.546V92.7ZM138.181 92.94C138.181 96.34 140.481 98.68 143.341 98.68C145.181 98.68 146.501 97.8 147.201 96.86V98.5H149.501V87.48H147.201V89.08C146.521 88.18 145.241 87.3 143.381 87.3C140.481 87.3 138.181 89.54 138.181 92.94ZM147.201 92.98C147.201 95.36 145.581 96.7 143.861 96.7C142.161 96.7 140.521 95.32 140.521 92.94C140.521 90.56 142.161 89.28 143.861 89.28C145.581 89.28 147.201 90.62 147.201 92.98ZM160.716 95.42C160.596 91.44 154.376 92.68 154.376 90.46C154.376 89.72 155.016 89.22 156.236 89.22C157.476 89.22 158.216 89.88 158.296 90.84H160.576C160.456 88.64 158.816 87.3 156.316 87.3C153.716 87.3 152.076 88.72 152.076 90.48C152.076 94.52 158.476 93.28 158.476 95.44C158.476 96.2 157.776 96.76 156.456 96.76C155.196 96.76 154.336 96.02 154.256 95.12H151.896C151.996 97.12 153.856 98.68 156.496 98.68C159.096 98.68 160.716 97.28 160.716 95.42ZM163.54 95.44C163.54 97.68 164.76 98.5 166.72 98.5H168.52V96.6H167.12C166.16 96.6 165.84 96.26 165.84 95.44V89.34H168.52V87.48H165.84V84.74H163.54V87.48H162.24V89.34H163.54V95.44ZM172.901 92.7C172.901 90.36 173.941 89.66 175.621 89.66H176.201V87.3C174.641 87.3 173.541 87.98 172.901 89.08V87.48H170.621V98.5H172.901V92.7ZM188.277 87.48H185.997V93.62C185.997 95.64 184.897 96.68 183.217 96.68C181.557 96.68 180.457 95.64 180.457 93.62V87.48H178.197V93.96C178.197 97.04 180.157 98.66 182.737 98.66C184.037 98.66 185.277 98.12 185.997 97.18V98.5H188.277V87.48ZM190.525 92.98C190.525 96.44 192.765 98.68 195.925 98.68C198.625 98.68 200.385 97.18 201.005 95.02H198.545C198.125 96.16 197.285 96.76 195.925 96.76C194.085 96.76 192.865 95.4 192.865 92.98C192.865 90.58 194.085 89.22 195.925 89.22C197.285 89.22 198.165 89.9 198.545 90.96H201.005C200.385 88.64 198.625 87.3 195.925 87.3C192.765 87.3 190.525 89.54 190.525 92.98ZM203.637 95.44C203.637 97.68 204.857 98.5 206.817 98.5H208.617V96.6H207.217C206.257 96.6 205.937 96.26 205.937 95.44V89.34H208.617V87.48H205.937V84.74H203.637V87.48H202.337V89.34H203.637V95.44ZM220.699 87.48H218.419V93.62C218.419 95.64 217.319 96.68 215.639 96.68C213.979 96.68 212.879 95.64 212.879 93.62V87.48H210.619V93.96C210.619 97.04 212.579 98.66 215.159 98.66C216.459 98.66 217.699 98.12 218.419 97.18V98.5H220.699V87.48ZM225.987 92.7C225.987 90.36 227.027 89.66 228.707 89.66H229.287V87.3C227.727 87.3 226.627 87.98 225.987 89.08V87.48H223.707V98.5H225.987V92.7ZM236.023 89.22C237.723 89.22 239.063 90.3 239.103 92H233.003C233.243 90.26 234.483 89.22 236.023 89.22ZM241.183 95.22H238.723C238.303 96.08 237.523 96.76 236.123 96.76C234.443 96.76 233.143 95.66 232.983 93.84H241.403C241.463 93.46 241.483 93.1 241.483 92.72C241.483 89.48 239.263 87.3 236.123 87.3C232.863 87.3 230.623 89.52 230.623 92.98C230.623 96.44 232.963 98.68 236.123 98.68C238.823 98.68 240.563 97.14 241.183 95.22ZM248.162 92.94C248.162 96.34 250.462 98.68 253.322 98.68C255.162 98.68 256.482 97.8 257.182 96.86V98.5H259.482V87.48H257.182V89.08C256.502 88.18 255.222 87.3 253.362 87.3C250.462 87.3 248.162 89.54 248.162 92.94ZM257.182 92.98C257.182 95.36 255.562 96.7 253.842 96.7C252.142 96.7 250.502 95.32 250.502 92.94C250.502 90.56 252.142 89.28 253.842 89.28C255.562 89.28 257.182 90.62 257.182 92.98ZM270.297 98.5H272.557V92C272.557 88.92 270.617 87.3 268.037 87.3C266.717 87.3 265.497 87.84 264.757 88.74V87.48H262.477V98.5H264.757V92.34C264.757 90.32 265.857 89.28 267.537 89.28C269.197 89.28 270.297 90.32 270.297 92.34V98.5ZM274.705 92.94C274.705 96.34 277.005 98.68 279.905 98.68C281.705 98.68 283.025 97.84 283.725 96.84V98.5H286.025V83.7H283.725V89.02C282.885 87.98 281.365 87.3 279.925 87.3C277.005 87.3 274.705 89.54 274.705 92.94ZM283.725 92.98C283.725 95.36 282.105 96.7 280.385 96.7C278.685 96.7 277.045 95.32 277.045 92.94C277.045 90.56 278.685 89.28 280.385 89.28C282.105 89.28 283.725 90.62 283.725 92.98ZM303.595 94.56C303.595 89.48 296.235 91.44 296.235 88.3C296.235 86.96 297.255 86.32 298.575 86.36C300.015 86.4 300.835 87.26 300.915 88.2H303.435C303.235 85.82 301.355 84.42 298.695 84.42C295.855 84.42 293.915 85.94 293.915 88.38C293.915 93.5 301.295 91.32 301.295 94.68C301.295 95.86 300.395 96.72 298.795 96.72C297.215 96.72 296.415 95.8 296.315 94.66H293.875C293.875 97.12 296.015 98.64 298.795 98.64C301.895 98.64 303.595 96.64 303.595 94.56ZM310.925 89.22C312.625 89.22 313.965 90.3 314.005 92H307.905C308.145 90.26 309.385 89.22 310.925 89.22ZM316.085 95.22H313.625C313.205 96.08 312.425 96.76 311.025 96.76C309.345 96.76 308.045 95.66 307.885 93.84H316.305C316.365 93.46 316.385 93.1 316.385 92.72C316.385 89.48 314.165 87.3 311.025 87.3C307.765 87.3 305.525 89.52 305.525 92.98C305.525 96.44 307.865 98.68 311.025 98.68C313.725 98.68 315.465 97.14 316.085 95.22ZM320.909 92.7C320.909 90.36 321.949 89.66 323.629 89.66H324.209V87.3C322.649 87.3 321.549 87.98 320.909 89.08V87.48H318.629V98.5H320.909V92.7ZM325.005 87.48L329.185 98.5H331.905L336.105 87.48H333.685L330.565 96.46L327.445 87.48H325.005ZM337.828 98.5H340.108V87.48H337.828V98.5ZM338.988 86.02C339.788 86.02 340.428 85.38 340.428 84.56C340.428 83.74 339.788 83.1 338.988 83.1C338.168 83.1 337.528 83.74 337.528 84.56C337.528 85.38 338.168 86.02 338.988 86.02ZM342.342 92.98C342.342 96.44 344.582 98.68 347.742 98.68C350.442 98.68 352.202 97.18 352.822 95.02H350.362C349.942 96.16 349.102 96.76 347.742 96.76C345.902 96.76 344.682 95.4 344.682 92.98C344.682 90.58 345.902 89.22 347.742 89.22C349.102 89.22 349.982 89.9 350.362 90.96H352.822C352.202 88.64 350.442 87.3 347.742 87.3C344.582 87.3 342.342 89.54 342.342 92.98ZM359.734 89.22C361.434 89.22 362.774 90.3 362.814 92H356.714C356.954 90.26 358.194 89.22 359.734 89.22ZM364.894 95.22H362.434C362.014 96.08 361.234 96.76 359.834 96.76C358.154 96.76 356.854 95.66 356.694 93.84H365.114C365.174 93.46 365.194 93.1 365.194 92.72C365.194 89.48 362.974 87.3 359.834 87.3C356.574 87.3 354.334 89.52 354.334 92.98C354.334 96.44 356.674 98.68 359.834 98.68C362.534 98.68 364.274 97.14 364.894 95.22ZM375.658 95.42C375.538 91.44 369.318 92.68 369.318 90.46C369.318 89.72 369.958 89.22 371.178 89.22C372.418 89.22 373.158 89.88 373.238 90.84H375.518C375.398 88.64 373.758 87.3 371.258 87.3C368.658 87.3 367.018 88.72 367.018 90.48C367.018 94.52 373.418 93.28 373.418 95.44C373.418 96.2 372.718 96.76 371.398 96.76C370.138 96.76 369.278 96.02 369.198 95.12H366.838C366.938 97.12 368.798 98.68 371.438 98.68C374.038 98.68 375.658 97.28 375.658 95.42Z" fill="#212832"/>
<rect x="0.5" y="66.5" width="616" height="49" stroke="black" stroke-opacity="0.5"/>
<rect y="180" width="617" height="50" fill="white"/>
<path d="M24.6 208.44C26.08 208.44 27.24 207.3 27.24 205.84C27.24 204.36 26.08 203.22 24.6 203.22C23.16 203.22 22 204.36 22 205.84C22 207.3 23.16 208.44 24.6 208.44ZM43.4089 205V200.46H45.9289C47.7089 200.46 48.5089 201.3 48.5089 202.74C48.5089 204.14 47.7089 205 45.9289 205H43.4089ZM50.8489 202.74C50.8489 200.48 49.2289 198.6 45.9289 198.6H41.1289V212.5H43.4089V206.86H45.9289C49.5489 206.86 50.8489 204.72 50.8489 202.74ZM55.3034 206.7C55.3034 204.36 56.3434 203.66 58.0234 203.66H58.6034V201.3C57.0434 201.3 55.9434 201.98 55.3034 203.08V201.48H53.0234V212.5H55.3034V206.7ZM71.1992 206.98C71.1992 203.52 68.7192 201.3 65.5792 201.3C62.4392 201.3 59.9592 203.52 59.9592 206.98C59.9592 210.44 62.3392 212.68 65.4792 212.68C68.6392 212.68 71.1992 210.44 71.1992 206.98ZM62.2792 206.98C62.2792 204.48 63.8192 203.28 65.5392 203.28C67.2392 203.28 68.8592 204.48 68.8592 206.98C68.8592 209.48 67.1792 210.7 65.4792 210.7C63.7592 210.7 62.2792 209.48 62.2792 206.98ZM73.7331 212.5H76.0331V203.34H78.0731V201.48H76.0331V200.7C76.0331 199.44 76.5131 198.96 77.9131 198.96V197.06C75.0331 197.06 73.7331 198.16 73.7331 200.7V201.48H72.4331V203.34H73.7331V212.5ZM84.7338 203.22C86.4338 203.22 87.7738 204.3 87.8138 206H81.7138C81.9538 204.26 83.1938 203.22 84.7338 203.22ZM89.8937 209.22H87.4338C87.0138 210.08 86.2338 210.76 84.8338 210.76C83.1538 210.76 81.8538 209.66 81.6938 207.84H90.1138C90.1738 207.46 90.1938 207.1 90.1938 206.72C90.1938 203.48 87.9738 201.3 84.8338 201.3C81.5738 201.3 79.3338 203.52 79.3338 206.98C79.3338 210.44 81.6738 212.68 84.8338 212.68C87.5338 212.68 89.2738 211.14 89.8937 209.22ZM100.658 209.42C100.538 205.44 94.3175 206.68 94.3175 204.46C94.3175 203.72 94.9575 203.22 96.1775 203.22C97.4175 203.22 98.1575 203.88 98.2375 204.84H100.518C100.398 202.64 98.7575 201.3 96.2575 201.3C93.6575 201.3 92.0175 202.72 92.0175 204.48C92.0175 208.52 98.4175 207.28 98.4175 209.44C98.4175 210.2 97.7175 210.76 96.3975 210.76C95.1375 210.76 94.2775 210.02 94.1975 209.12H91.8375C91.9375 211.12 93.7975 212.68 96.4375 212.68C99.0375 212.68 100.658 211.28 100.658 209.42ZM111.341 209.42C111.221 205.44 105.001 206.68 105.001 204.46C105.001 203.72 105.641 203.22 106.861 203.22C108.101 203.22 108.841 203.88 108.921 204.84H111.201C111.081 202.64 109.441 201.3 106.941 201.3C104.341 201.3 102.701 202.72 102.701 204.48C102.701 208.52 109.101 207.28 109.101 209.44C109.101 210.2 108.401 210.76 107.081 210.76C105.821 210.76 104.961 210.02 104.881 209.12H102.521C102.621 211.12 104.481 212.68 107.121 212.68C109.721 212.68 111.341 211.28 111.341 209.42ZM113.805 212.5H116.085V201.48H113.805V212.5ZM114.965 200.02C115.765 200.02 116.405 199.38 116.405 198.56C116.405 197.74 115.765 197.1 114.965 197.1C114.145 197.1 113.505 197.74 113.505 198.56C113.505 199.38 114.145 200.02 114.965 200.02ZM129.578 206.98C129.578 203.52 127.098 201.3 123.958 201.3C120.818 201.3 118.338 203.52 118.338 206.98C118.338 210.44 120.718 212.68 123.858 212.68C127.018 212.68 129.578 210.44 129.578 206.98ZM120.658 206.98C120.658 204.48 122.198 203.28 123.918 203.28C125.618 203.28 127.238 204.48 127.238 206.98C127.238 209.48 125.558 210.7 123.858 210.7C122.138 210.7 120.658 209.48 120.658 206.98ZM139.652 212.5H141.912V206C141.912 202.92 139.972 201.3 137.392 201.3C136.072 201.3 134.852 201.84 134.112 202.74V201.48H131.832V212.5H134.112V206.34C134.112 204.32 135.212 203.28 136.892 203.28C138.552 203.28 139.652 204.32 139.652 206.34V212.5ZM144.06 206.94C144.06 210.34 146.36 212.68 149.22 212.68C151.06 212.68 152.38 211.8 153.08 210.86V212.5H155.38V201.48H153.08V203.08C152.4 202.18 151.12 201.3 149.26 201.3C146.36 201.3 144.06 203.54 144.06 206.94ZM153.08 206.98C153.08 209.36 151.46 210.7 149.74 210.7C148.04 210.7 146.4 209.32 146.4 206.94C146.4 204.56 148.04 203.28 149.74 203.28C151.46 203.28 153.08 204.62 153.08 206.98ZM158.375 212.5H160.655V197.7H158.375V212.5ZM176.524 198.58H168.844V212.5H176.524V210.64H171.124V206.38H175.924V204.52H171.124V200.44H176.524V198.58ZM179.692 209.44C179.692 211.68 180.912 212.5 182.872 212.5H184.672V210.6H183.272C182.312 210.6 181.992 210.26 181.992 209.44V203.34H184.672V201.48H181.992V198.74H179.692V201.48H178.392V203.34H179.692V209.44ZM186.773 212.5H189.053V206.34C189.053 204.32 190.153 203.28 191.833 203.28C193.493 203.28 194.593 204.32 194.593 206.34V212.5H196.853V206C196.853 202.92 194.933 201.3 192.473 201.3C191.053 201.3 189.813 201.84 189.053 202.76V197.7H186.773V212.5ZM199.762 212.5H202.042V201.48H199.762V212.5ZM200.922 200.02C201.722 200.02 202.362 199.38 202.362 198.56C202.362 197.74 201.722 197.1 200.922 197.1C200.102 197.1 199.462 197.74 199.462 198.56C199.462 199.38 200.102 200.02 200.922 200.02ZM204.275 206.98C204.275 210.44 206.515 212.68 209.675 212.68C212.375 212.68 214.135 211.18 214.755 209.02H212.295C211.875 210.16 211.035 210.76 209.675 210.76C207.835 210.76 206.615 209.4 206.615 206.98C206.615 204.58 207.835 203.22 209.675 203.22C211.035 203.22 211.915 203.9 212.295 204.96H214.755C214.135 202.64 212.375 201.3 209.675 201.3C206.515 201.3 204.275 203.54 204.275 206.98Z" fill="#212832"/>
<rect x="0.5" y="180.5" width="616" height="49" stroke="black" stroke-opacity="0.5"/>
<rect y="123" width="617" height="50" fill="white"/>
<path d="M24.6 151.44C26.08 151.44 27.24 150.3 27.24 148.84C27.24 147.36 26.08 146.22 24.6 146.22C23.16 146.22 22 147.36 22 148.84C22 150.3 23.16 151.44 24.6 151.44ZM42.7089 148.52C42.7089 145.38 44.7089 143.42 47.4689 143.42C50.2289 143.42 52.2289 145.38 52.2289 148.52C52.2289 151.66 50.2289 153.66 47.4689 153.66C44.7089 153.66 42.7089 151.66 42.7089 148.52ZM54.5689 148.52C54.5689 144.36 51.4289 141.42 47.4689 141.42C43.5489 141.42 40.3689 144.36 40.3689 148.52C40.3689 152.7 43.5489 155.64 47.4689 155.64C48.1689 155.64 48.8289 155.56 49.4489 155.38L51.8889 158.02H54.7889L51.4489 154.48C53.3489 153.26 54.5689 151.14 54.5689 148.52ZM66.8511 144.48H64.5711V150.62C64.5711 152.64 63.4711 153.68 61.7911 153.68C60.1311 153.68 59.0311 152.64 59.0311 150.62V144.48H56.7711V150.96C56.7711 154.04 58.7311 155.66 61.3111 155.66C62.6111 155.66 63.8511 155.12 64.5711 154.18V155.5H66.8511V144.48ZM69.0994 149.94C69.0994 153.34 71.3994 155.68 74.2594 155.68C76.0994 155.68 77.4194 154.8 78.1194 153.86V155.5H80.4194V144.48H78.1194V146.08C77.4394 145.18 76.1594 144.3 74.2994 144.3C71.3994 144.3 69.0994 146.54 69.0994 149.94ZM78.1194 149.98C78.1194 152.36 76.4994 153.7 74.7794 153.7C73.0794 153.7 71.4394 152.32 71.4394 149.94C71.4394 147.56 73.0794 146.28 74.7794 146.28C76.4994 146.28 78.1194 147.62 78.1194 149.98ZM91.2341 155.5H93.4941V149C93.4941 145.92 91.5541 144.3 88.9741 144.3C87.6541 144.3 86.4341 144.84 85.6941 145.74V144.48H83.4141V155.5H85.6941V149.34C85.6941 147.32 86.7941 146.28 88.4741 146.28C90.1341 146.28 91.2341 147.32 91.2341 149.34V155.5ZM96.7623 152.44C96.7623 154.68 97.9823 155.5 99.9423 155.5H101.742V153.6H100.342C99.3823 153.6 99.0623 153.26 99.0623 152.44V146.34H101.742V144.48H99.0623V141.74H96.7623V144.48H95.4623V146.34H96.7623V152.44ZM103.844 155.5H106.124V144.48H103.844V155.5ZM105.004 143.02C105.804 143.02 106.444 142.38 106.444 141.56C106.444 140.74 105.804 140.1 105.004 140.1C104.184 140.1 103.544 140.74 103.544 141.56C103.544 142.38 104.184 143.02 105.004 143.02ZM109.477 152.44C109.477 154.68 110.697 155.5 112.657 155.5H114.457V153.6H113.057C112.097 153.6 111.777 153.26 111.777 152.44V146.34H114.457V144.48H111.777V141.74H109.477V144.48H108.177V146.34H109.477V152.44ZM115.799 149.94C115.799 153.34 118.099 155.68 120.959 155.68C122.799 155.68 124.119 154.8 124.819 153.86V155.5H127.119V144.48H124.819V146.08C124.139 145.18 122.859 144.3 120.999 144.3C118.099 144.3 115.799 146.54 115.799 149.94ZM124.819 149.98C124.819 152.36 123.199 153.7 121.479 153.7C119.779 153.7 118.139 152.32 118.139 149.94C118.139 147.56 119.779 146.28 121.479 146.28C123.199 146.28 124.819 147.62 124.819 149.98ZM130.473 152.44C130.473 154.68 131.693 155.5 133.653 155.5H135.453V153.6H134.053C133.093 153.6 132.773 153.26 132.773 152.44V146.34H135.453V144.48H132.773V141.74H130.473V144.48H129.173V146.34H130.473V152.44ZM137.555 155.5H139.835V144.48H137.555V155.5ZM138.715 143.02C139.515 143.02 140.155 142.38 140.155 141.56C140.155 140.74 139.515 140.1 138.715 140.1C137.895 140.1 137.255 140.74 137.255 141.56C137.255 142.38 137.895 143.02 138.715 143.02ZM141.528 144.48L145.708 155.5H148.428L152.628 144.48H150.208L147.088 153.46L143.968 144.48H141.528ZM158.992 146.22C160.692 146.22 162.032 147.3 162.072 149H155.972C156.212 147.26 157.452 146.22 158.992 146.22ZM164.152 152.22H161.692C161.272 153.08 160.492 153.76 159.092 153.76C157.412 153.76 156.112 152.66 155.952 150.84H164.372C164.432 150.46 164.452 150.1 164.452 149.72C164.452 146.48 162.232 144.3 159.092 144.3C155.832 144.3 153.592 146.52 153.592 149.98C153.592 153.44 155.932 155.68 159.092 155.68C161.792 155.68 163.532 154.14 164.152 152.22ZM181.271 155.5H183.671L178.691 141.58H176.051L171.071 155.5H173.451L174.451 152.66H180.271L181.271 155.5ZM179.631 150.8H175.091L177.371 144.34L179.631 150.8ZM188.116 146.1V144.48H185.836V160.74H188.116V153.9C188.836 154.76 190.136 155.68 191.956 155.68C194.856 155.68 197.136 153.34 197.136 149.94C197.136 146.54 194.856 144.3 191.956 144.3C190.156 144.3 188.816 145.18 188.116 146.1ZM194.816 149.94C194.816 152.32 193.176 153.7 191.456 153.7C189.756 153.7 188.116 152.36 188.116 149.98C188.116 147.62 189.756 146.28 191.456 146.28C193.176 146.28 194.816 147.56 194.816 149.94ZM199.751 152.44C199.751 154.68 200.971 155.5 202.931 155.5H204.731V153.6H203.331C202.371 153.6 202.051 153.26 202.051 152.44V146.34H204.731V144.48H202.051V141.74H199.751V144.48H198.451V146.34H199.751V152.44ZM206.832 155.5H209.112V144.48H206.832V155.5ZM207.992 143.02C208.792 143.02 209.432 142.38 209.432 141.56C209.432 140.74 208.792 140.1 207.992 140.1C207.172 140.1 206.532 140.74 206.532 141.56C206.532 142.38 207.172 143.02 207.992 143.02ZM212.465 152.44C212.465 154.68 213.685 155.5 215.645 155.5H217.445V153.6H216.045C215.085 153.6 214.765 153.26 214.765 152.44V146.34H217.445V144.48H214.765V141.74H212.465V144.48H211.165V146.34H212.465V152.44ZM229.527 144.48H227.247V150.62C227.247 152.64 226.147 153.68 224.467 153.68C222.807 153.68 221.707 152.64 221.707 150.62V144.48H219.447V150.96C219.447 154.04 221.407 155.66 223.987 155.66C225.287 155.66 226.527 155.12 227.247 154.18V155.5H229.527V144.48ZM231.775 149.94C231.775 153.34 234.075 155.68 236.975 155.68C238.775 155.68 240.095 154.84 240.795 153.84V155.5H243.095V140.7H240.795V146.02C239.955 144.98 238.435 144.3 236.995 144.3C234.075 144.3 231.775 146.54 231.775 149.94ZM240.795 149.98C240.795 152.36 239.175 153.7 237.455 153.7C235.755 153.7 234.115 152.32 234.115 149.94C234.115 147.56 235.755 146.28 237.455 146.28C239.175 146.28 240.795 147.62 240.795 149.98ZM250.73 146.22C252.43 146.22 253.77 147.3 253.81 149H247.71C247.95 147.26 249.19 146.22 250.73 146.22ZM255.89 152.22H253.43C253.01 153.08 252.23 153.76 250.83 153.76C249.15 153.76 247.85 152.66 247.69 150.84H256.11C256.17 150.46 256.19 150.1 256.19 149.72C256.19 146.48 253.97 144.3 250.83 144.3C247.57 144.3 245.33 146.52 245.33 149.98C245.33 153.44 247.67 155.68 250.83 155.68C253.53 155.68 255.27 154.14 255.89 152.22Z" fill="#212832"/>
<rect x="0.5" y="123.5" width="616" height="49" stroke="black" stroke-opacity="0.5"/>
<rect y="237" width="617" height="50" fill="white"/>
<path d="M24.6 265.44C26.08 265.44 27.24 264.3 27.24 262.84C27.24 261.36 26.08 260.22 24.6 260.22C23.16 260.22 22 261.36 22 262.84C22 264.3 23.16 265.44 24.6 265.44ZM50.5089 265.56C50.5089 260.48 43.1489 262.44 43.1489 259.3C43.1489 257.96 44.1689 257.32 45.4889 257.36C46.9289 257.4 47.7489 258.26 47.8289 259.2H50.3489C50.1489 256.82 48.2689 255.42 45.6089 255.42C42.7689 255.42 40.8289 256.94 40.8289 259.38C40.8289 264.5 48.2089 262.32 48.2089 265.68C48.2089 266.86 47.3089 267.72 45.7089 267.72C44.1289 267.72 43.3289 266.8 43.2289 265.66H40.7889C40.7889 268.12 42.9289 269.64 45.7089 269.64C48.8089 269.64 50.5089 267.64 50.5089 265.56ZM57.8392 260.22C59.5392 260.22 60.8792 261.3 60.9192 263H54.8192C55.0592 261.26 56.2992 260.22 57.8392 260.22ZM62.9992 266.22H60.5392C60.1192 267.08 59.3392 267.76 57.9392 267.76C56.2592 267.76 54.9592 266.66 54.7992 264.84H63.2192C63.2792 264.46 63.2992 264.1 63.2992 263.72C63.2992 260.48 61.0792 258.3 57.9392 258.3C54.6792 258.3 52.4392 260.52 52.4392 263.98C52.4392 267.44 54.7792 269.68 57.9392 269.68C60.6392 269.68 62.3792 268.14 62.9992 266.22ZM81.163 269.5H83.423V263C83.423 259.92 81.463 258.3 78.883 258.3C77.283 258.3 75.723 259.14 75.043 260.48C74.283 259.04 72.823 258.3 71.083 258.3C69.763 258.3 68.563 258.84 67.823 259.74V258.48H65.543V269.5H67.823V263.34C67.823 261.32 68.923 260.28 70.603 260.28C72.263 260.28 73.363 261.32 73.363 263.34V269.5H75.623V263.34C75.623 261.32 76.723 260.28 78.403 260.28C80.063 260.28 81.163 261.32 81.163 263.34V269.5ZM86.3242 269.5H88.6042V258.48H86.3242V269.5ZM87.4842 257.02C88.2842 257.02 88.9242 256.38 88.9242 255.56C88.9242 254.74 88.2842 254.1 87.4842 254.1C86.6642 254.1 86.0242 254.74 86.0242 255.56C86.0242 256.38 86.6642 257.02 87.4842 257.02ZM99.4177 269.5H101.678V263C101.678 259.92 99.7377 258.3 97.1577 258.3C95.8377 258.3 94.6177 258.84 93.8777 259.74V258.48H91.5977V269.5H93.8777V263.34C93.8777 261.32 94.9777 260.28 96.6577 260.28C98.3177 260.28 99.4177 261.32 99.4177 263.34V269.5ZM103.826 263.94C103.826 267.34 106.126 269.68 108.986 269.68C110.826 269.68 112.146 268.8 112.846 267.86V269.5H115.146V258.48H112.846V260.08C112.166 259.18 110.886 258.3 109.026 258.3C106.126 258.3 103.826 260.54 103.826 263.94ZM112.846 263.98C112.846 266.36 111.226 267.7 109.506 267.7C107.806 267.7 106.166 266.32 106.166 263.94C106.166 261.56 107.806 260.28 109.506 260.28C111.226 260.28 112.846 261.62 112.846 263.98ZM120.421 263.7C120.421 261.36 121.461 260.66 123.141 260.66H123.721V258.3C122.161 258.3 121.061 258.98 120.421 260.08V258.48H118.141V269.5H120.421V263.7ZM138.412 273.22V273C135.612 270.12 134.192 266.18 134.192 262.22C134.192 258.26 135.612 253.98 138.812 251.04V250.82H136.452C133.412 253.52 131.992 257.86 131.992 262.22C131.992 266.58 133.412 270.68 136.052 273.22H138.412ZM148.535 255.58H140.855V269.5H148.535V267.64H143.135V263.38H147.935V261.52H143.135V257.44H148.535V255.58ZM150.044 258.48L154.224 269.5H156.944L161.144 258.48H158.724L155.604 267.46L152.484 258.48H150.044ZM162.107 263.94C162.107 267.34 164.407 269.68 167.267 269.68C169.107 269.68 170.427 268.8 171.127 267.86V269.5H173.427V258.48H171.127V260.08C170.447 259.18 169.167 258.3 167.307 258.3C164.407 258.3 162.107 260.54 162.107 263.94ZM171.127 263.98C171.127 266.36 169.507 267.7 167.787 267.7C166.087 267.7 164.447 266.32 164.447 263.94C164.447 261.56 166.087 260.28 167.787 260.28C169.507 260.28 171.127 261.62 171.127 263.98ZM176.422 269.5H178.702V254.7H176.422V269.5ZM191.675 258.48H189.395V264.62C189.395 266.64 188.295 267.68 186.615 267.68C184.955 267.68 183.855 266.64 183.855 264.62V258.48H181.595V264.96C181.595 268.04 183.555 269.66 186.135 269.66C187.435 269.66 188.675 269.12 189.395 268.18V269.5H191.675V258.48ZM193.924 263.94C193.924 267.34 196.224 269.68 199.084 269.68C200.924 269.68 202.244 268.8 202.944 267.86V269.5H205.244V258.48H202.944V260.08C202.264 259.18 200.984 258.3 199.124 258.3C196.224 258.3 193.924 260.54 193.924 263.94ZM202.944 263.98C202.944 266.36 201.324 267.7 199.604 267.7C197.904 267.7 196.264 266.32 196.264 263.94C196.264 261.56 197.904 260.28 199.604 260.28C201.324 260.28 202.944 261.62 202.944 263.98ZM208.598 266.44C208.598 268.68 209.818 269.5 211.778 269.5H213.578V267.6H212.178C211.218 267.6 210.898 267.26 210.898 266.44V260.34H213.578V258.48H210.898V255.74H208.598V258.48H207.298V260.34H208.598V266.44ZM215.68 269.5H217.96V258.48H215.68V269.5ZM216.84 257.02C217.64 257.02 218.28 256.38 218.28 255.56C218.28 254.74 217.64 254.1 216.84 254.1C216.02 254.1 215.38 254.74 215.38 255.56C215.38 256.38 216.02 257.02 216.84 257.02ZM231.453 263.98C231.453 260.52 228.973 258.3 225.833 258.3C222.693 258.3 220.213 260.52 220.213 263.98C220.213 267.44 222.593 269.68 225.733 269.68C228.893 269.68 231.453 267.44 231.453 263.98ZM222.533 263.98C222.533 261.48 224.073 260.28 225.793 260.28C227.493 260.28 229.113 261.48 229.113 263.98C229.113 266.48 227.433 267.7 225.733 267.7C224.013 267.7 222.533 266.48 222.533 263.98ZM241.527 269.5H243.787V263C243.787 259.92 241.847 258.3 239.267 258.3C237.947 258.3 236.727 258.84 235.987 259.74V258.48H233.707V269.5H235.987V263.34C235.987 261.32 237.087 260.28 238.767 260.28C240.427 260.28 241.527 261.32 241.527 263.34V269.5ZM246.135 273.22V273C248.935 270.12 250.355 266.18 250.355 262.22C250.355 258.26 248.935 253.98 245.735 251.04V250.82H248.095C251.135 253.52 252.555 257.86 252.555 262.22C252.555 266.58 251.135 270.68 248.495 273.22H246.135Z" fill="#212832"/>
<rect x="0.5" y="237.5" width="616" height="49" stroke="black" stroke-opacity="0.5"/>
<rect y="294" width="617" height="50" fill="white"/>
<path d="M24.6 322.44C26.08 322.44 27.24 321.3 27.24 319.84C27.24 318.36 26.08 317.22 24.6 317.22C23.16 317.22 22 318.36 22 319.84C22 321.3 23.16 322.44 24.6 322.44ZM41.1089 321.42C41.1089 324.96 43.5889 326.64 46.5089 326.64C49.4089 326.64 51.9689 324.96 51.9689 321.42V312.6H49.6889V321.46C49.6889 323.62 48.4689 324.64 46.5289 324.64C44.6089 324.64 43.3889 323.62 43.3889 321.46V312.6H41.1089V321.42ZM62.7575 326.5H65.0175V320C65.0175 316.92 63.0775 315.3 60.4975 315.3C59.1775 315.3 57.9575 315.84 57.2175 316.74V315.48H54.9375V326.5H57.2175V320.34C57.2175 318.32 58.3175 317.28 59.9975 317.28C61.6575 317.28 62.7575 318.32 62.7575 320.34V326.5ZM67.9258 326.5H70.2058V315.48H67.9258V326.5ZM69.0858 314.02C69.8858 314.02 70.5258 313.38 70.5258 312.56C70.5258 311.74 69.8858 311.1 69.0858 311.1C68.2658 311.1 67.6258 311.74 67.6258 312.56C67.6258 313.38 68.2658 314.02 69.0858 314.02ZM78.8992 326.5H81.4792L77.9192 320.92L81.4792 315.48H79.0992L76.8592 319.22L74.4792 315.48H71.8992L75.4592 321.08L71.8992 326.5H74.2792L76.5192 322.76L78.8992 326.5ZM82.8997 330H85.1397L90.5797 307.62H88.3197L82.8997 330ZM93.4531 312.6V326.5H100.433V324.66H95.7331V312.6H93.4531ZM102.34 326.5H104.62V315.48H102.34V326.5ZM103.5 314.02C104.3 314.02 104.94 313.38 104.94 312.56C104.94 311.74 104.3 311.1 103.5 311.1C102.68 311.1 102.04 311.74 102.04 312.56C102.04 313.38 102.68 314.02 103.5 314.02ZM115.433 326.5H117.693V320C117.693 316.92 115.753 315.3 113.173 315.3C111.853 315.3 110.633 315.84 109.893 316.74V315.48H107.613V326.5H109.893V320.34C109.893 318.32 110.993 317.28 112.673 317.28C114.333 317.28 115.433 318.32 115.433 320.34V326.5ZM130.582 315.48H128.302V321.62C128.302 323.64 127.202 324.68 125.522 324.68C123.862 324.68 122.762 323.64 122.762 321.62V315.48H120.502V321.96C120.502 325.04 122.462 326.66 125.042 326.66C126.342 326.66 127.582 326.12 128.302 325.18V326.5H130.582V315.48ZM139.29 326.5H141.87L138.31 320.92L141.87 315.48H139.49L137.25 319.22L134.87 315.48H132.29L135.85 321.08L132.29 326.5H134.67L136.91 322.76L139.29 326.5ZM151.046 319V314.46H153.566C155.346 314.46 156.146 315.3 156.146 316.74C156.146 318.14 155.346 319 153.566 319H151.046ZM158.486 316.74C158.486 314.48 156.866 312.6 153.566 312.6H148.766V326.5H151.046V320.86H153.566C157.186 320.86 158.486 318.72 158.486 316.74ZM162.94 320.7C162.94 318.36 163.98 317.66 165.66 317.66H166.24V315.3C164.68 315.3 163.58 315.98 162.94 317.08V315.48H160.66V326.5H162.94V320.7ZM178.836 320.98C178.836 317.52 176.356 315.3 173.216 315.3C170.076 315.3 167.596 317.52 167.596 320.98C167.596 324.44 169.976 326.68 173.116 326.68C176.276 326.68 178.836 324.44 178.836 320.98ZM169.916 320.98C169.916 318.48 171.456 317.28 173.176 317.28C174.876 317.28 176.496 318.48 176.496 320.98C176.496 323.48 174.816 324.7 173.116 324.7C171.396 324.7 169.916 323.48 169.916 320.98ZM180.33 320.94C180.33 324.34 182.63 326.68 185.53 326.68C187.33 326.68 188.65 325.78 189.35 324.84V326.68C189.35 328.88 188.03 329.96 186.27 329.96C184.69 329.96 183.47 329.18 183.13 328.04H180.87C181.15 330.48 183.33 331.94 186.27 331.94C189.71 331.94 191.65 329.68 191.65 326.68V315.48H189.35V317.08C188.67 316.14 187.33 315.3 185.53 315.3C182.63 315.3 180.33 317.54 180.33 320.94ZM189.35 320.98C189.35 323.36 187.73 324.7 186.01 324.7C184.31 324.7 182.67 323.32 182.67 320.94C182.67 318.56 184.31 317.28 186.01 317.28C187.73 317.28 189.35 318.62 189.35 320.98ZM196.925 320.7C196.925 318.36 197.965 317.66 199.645 317.66H200.225V315.3C198.665 315.3 197.565 315.98 196.925 317.08V315.48H194.645V326.5H196.925V320.7ZM201.56 320.94C201.56 324.34 203.86 326.68 206.72 326.68C208.56 326.68 209.88 325.8 210.58 324.86V326.5H212.88V315.48H210.58V317.08C209.9 316.18 208.62 315.3 206.76 315.3C203.86 315.3 201.56 317.54 201.56 320.94ZM210.58 320.98C210.58 323.36 208.96 324.7 207.24 324.7C205.54 324.7 203.9 323.32 203.9 320.94C203.9 318.56 205.54 317.28 207.24 317.28C208.96 317.28 210.58 318.62 210.58 320.98ZM231.495 326.5H233.755V320C233.755 316.92 231.795 315.3 229.215 315.3C227.615 315.3 226.055 316.14 225.375 317.48C224.615 316.04 223.155 315.3 221.415 315.3C220.095 315.3 218.895 315.84 218.155 316.74V315.48H215.875V326.5H218.155V320.34C218.155 318.32 219.255 317.28 220.935 317.28C222.595 317.28 223.695 318.32 223.695 320.34V326.5H225.955V320.34C225.955 318.32 227.055 317.28 228.735 317.28C230.395 317.28 231.495 318.32 231.495 320.34V326.5ZM252.276 326.5H254.536V320C254.536 316.92 252.576 315.3 249.996 315.3C248.396 315.3 246.836 316.14 246.156 317.48C245.396 316.04 243.936 315.3 242.196 315.3C240.876 315.3 239.676 315.84 238.936 316.74V315.48H236.656V326.5H238.936V320.34C238.936 318.32 240.036 317.28 241.716 317.28C243.376 317.28 244.476 318.32 244.476 320.34V326.5H246.736V320.34C246.736 318.32 247.836 317.28 249.516 317.28C251.176 317.28 252.276 318.32 252.276 320.34V326.5ZM257.438 326.5H259.718V315.48H257.438V326.5ZM258.598 314.02C259.398 314.02 260.038 313.38 260.038 312.56C260.038 311.74 259.398 311.1 258.598 311.1C257.778 311.1 257.138 311.74 257.138 312.56C257.138 313.38 257.778 314.02 258.598 314.02ZM270.531 326.5H272.791V320C272.791 316.92 270.851 315.3 268.271 315.3C266.951 315.3 265.731 315.84 264.991 316.74V315.48H262.711V326.5H264.991V320.34C264.991 318.32 266.091 317.28 267.771 317.28C269.431 317.28 270.531 318.32 270.531 320.34V326.5ZM274.939 320.94C274.939 324.34 277.239 326.68 280.139 326.68C281.939 326.68 283.259 325.78 283.959 324.84V326.68C283.959 328.88 282.639 329.96 280.879 329.96C279.299 329.96 278.079 329.18 277.739 328.04H275.479C275.759 330.48 277.939 331.94 280.879 331.94C284.319 331.94 286.259 329.68 286.259 326.68V315.48H283.959V317.08C283.279 316.14 281.939 315.3 280.139 315.3C277.239 315.3 274.939 317.54 274.939 320.94ZM283.959 320.98C283.959 323.36 282.339 324.7 280.619 324.7C278.919 324.7 277.279 323.32 277.279 320.94C277.279 318.56 278.919 317.28 280.619 317.28C282.339 317.28 283.959 318.62 283.959 320.98Z" fill="#212832"/>
<rect x="0.5" y="294.5" width="616" height="49" stroke="black" stroke-opacity="0.5"/>
<rect y="351" width="617" height="50" fill="white"/>
<path d="M24.6 378.94C26.08 378.94 27.24 377.8 27.24 376.34C27.24 374.86 26.08 373.72 24.6 373.72C23.16 373.72 22 374.86 22 376.34C22 377.8 23.16 378.94 24.6 378.94ZM45.6689 369.1H41.1289V383H45.6689C50.1289 383 53.0489 380.38 53.0489 376.1C53.0489 371.8 50.1289 369.1 45.6689 369.1ZM43.4089 381.14V370.96H45.6689C48.9489 370.96 50.7089 372.92 50.7089 376.1C50.7089 379.26 48.9489 381.14 45.6689 381.14H43.4089ZM59.9486 373.72C61.6486 373.72 62.9886 374.8 63.0286 376.5H56.9286C57.1686 374.76 58.4086 373.72 59.9486 373.72ZM65.1086 379.72H62.6486C62.2286 380.58 61.4486 381.26 60.0486 381.26C58.3686 381.26 57.0686 380.16 56.9086 378.34H65.3286C65.3886 377.96 65.4086 377.6 65.4086 377.22C65.4086 373.98 63.1886 371.8 60.0486 371.8C56.7886 371.8 54.5486 374.02 54.5486 377.48C54.5486 380.94 56.8886 383.18 60.0486 383.18C62.7486 383.18 64.4886 381.64 65.1086 379.72ZM72.2923 373.72C73.9923 373.72 75.3323 374.8 75.3723 376.5H69.2723C69.5123 374.76 70.7523 373.72 72.2923 373.72ZM77.4523 379.72H74.9923C74.5723 380.58 73.7923 381.26 72.3923 381.26C70.7123 381.26 69.4123 380.16 69.2523 378.34H77.6723C77.7323 377.96 77.7523 377.6 77.7523 377.22C77.7523 373.98 75.5323 371.8 72.3923 371.8C69.1323 371.8 66.8923 374.02 66.8923 377.48C66.8923 380.94 69.2323 383.18 72.3923 383.18C75.0923 383.18 76.8323 381.64 77.4523 379.72ZM82.2761 373.6V371.98H79.9961V388.24H82.2761V381.4C82.9961 382.26 84.2961 383.18 86.1161 383.18C89.0161 383.18 91.2961 380.84 91.2961 377.44C91.2961 374.04 89.0161 371.8 86.1161 371.8C84.3161 371.8 82.9761 372.68 82.2761 373.6ZM88.9761 377.44C88.9761 379.82 87.3361 381.2 85.6161 381.2C83.9161 381.2 82.2761 379.86 82.2761 377.48C82.2761 375.12 83.9161 373.78 85.6161 373.78C87.3361 373.78 88.9761 375.06 88.9761 377.44ZM98.7461 369.1V383H105.726V381.16H101.026V369.1H98.7461ZM112.273 373.72C113.973 373.72 115.313 374.8 115.353 376.5H109.253C109.493 374.76 110.733 373.72 112.273 373.72ZM117.433 379.72H114.973C114.553 380.58 113.773 381.26 112.373 381.26C110.693 381.26 109.393 380.16 109.233 378.34H117.653C117.713 377.96 117.733 377.6 117.733 377.22C117.733 373.98 115.513 371.8 112.373 371.8C109.113 371.8 106.873 374.02 106.873 377.48C106.873 380.94 109.213 383.18 112.373 383.18C115.073 383.18 116.813 381.64 117.433 379.72ZM119.217 377.44C119.217 380.84 121.517 383.18 124.377 383.18C126.217 383.18 127.537 382.3 128.237 381.36V383H130.537V371.98H128.237V373.58C127.557 372.68 126.277 371.8 124.417 371.8C121.517 371.8 119.217 374.04 119.217 377.44ZM128.237 377.48C128.237 379.86 126.617 381.2 124.897 381.2C123.197 381.2 121.557 379.82 121.557 377.44C121.557 375.06 123.197 373.78 124.897 373.78C126.617 373.78 128.237 375.12 128.237 377.48ZM135.811 377.2C135.811 374.86 136.851 374.16 138.531 374.16H139.111V371.8C137.551 371.8 136.451 372.48 135.811 373.58V371.98H133.531V383H135.811V377.2ZM149.027 383H151.287V376.5C151.287 373.42 149.347 371.8 146.767 371.8C145.447 371.8 144.227 372.34 143.487 373.24V371.98H141.207V383H143.487V376.84C143.487 374.82 144.587 373.78 146.267 373.78C147.927 373.78 149.027 374.82 149.027 376.84V383ZM154.195 383H156.475V371.98H154.195V383ZM155.355 370.52C156.155 370.52 156.795 369.88 156.795 369.06C156.795 368.24 156.155 367.6 155.355 367.6C154.535 367.6 153.895 368.24 153.895 369.06C153.895 369.88 154.535 370.52 155.355 370.52ZM167.289 383H169.549V376.5C169.549 373.42 167.609 371.8 165.029 371.8C163.709 371.8 162.489 372.34 161.749 373.24V371.98H159.469V383H161.749V376.84C161.749 374.82 162.849 373.78 164.529 373.78C166.189 373.78 167.289 374.82 167.289 376.84V383ZM171.697 377.44C171.697 380.84 173.997 383.18 176.897 383.18C178.697 383.18 180.017 382.28 180.717 381.34V383.18C180.717 385.38 179.397 386.46 177.637 386.46C176.057 386.46 174.837 385.68 174.497 384.54H172.237C172.517 386.98 174.697 388.44 177.637 388.44C181.077 388.44 183.017 386.18 183.017 383.18V371.98H180.717V373.58C180.037 372.64 178.697 371.8 176.897 371.8C173.997 371.8 171.697 374.04 171.697 377.44ZM180.717 377.48C180.717 379.86 179.097 381.2 177.377 381.2C175.677 381.2 174.037 379.82 174.037 377.44C174.037 375.06 175.677 373.78 177.377 373.78C179.097 373.78 180.717 375.12 180.717 377.48ZM200.047 372.2C200.187 370.3 198.887 368.78 196.467 368.78C194.087 368.78 192.607 370.16 192.607 371.98C192.607 372.96 192.887 373.7 193.667 374.64C191.467 375.54 190.407 377.12 190.407 379C190.407 381.6 192.407 383.26 195.407 383.26C197.347 383.26 198.887 382.62 200.227 381.28L201.947 383H204.927L201.547 379.64C201.707 379.38 201.887 379.1 202.047 378.82L203.847 375.74H201.387L199.967 378.08L196.287 374.42C195.307 373.36 194.887 372.74 194.887 371.98C194.887 371.24 195.467 370.64 196.367 370.64C197.227 370.64 197.807 371.18 197.767 372.2H200.047ZM195.407 381.32C193.767 381.32 192.687 380.26 192.687 378.92C192.687 377.68 193.427 376.72 195.047 376.08L198.727 379.78C197.767 380.8 196.707 381.32 195.407 381.32ZM220.757 369.08V379.44L213.897 369.08H211.617V383H213.897V372.62L220.757 383H223.037V369.08H220.757ZM230.671 373.72C232.371 373.72 233.711 374.8 233.751 376.5H227.651C227.891 374.76 229.131 373.72 230.671 373.72ZM235.831 379.72H233.371C232.951 380.58 232.171 381.26 230.771 381.26C229.091 381.26 227.791 380.16 227.631 378.34H236.051C236.111 377.96 236.131 377.6 236.131 377.22C236.131 373.98 233.911 371.8 230.771 371.8C227.511 371.8 225.271 374.02 225.271 377.48C225.271 380.94 227.611 383.18 230.771 383.18C233.471 383.18 235.211 381.64 235.831 379.72ZM248.355 371.98H246.075V378.12C246.075 380.14 244.975 381.18 243.295 381.18C241.635 381.18 240.535 380.14 240.535 378.12V371.98H238.275V378.46C238.275 381.54 240.235 383.16 242.815 383.16C244.115 383.16 245.355 382.62 246.075 381.68V383H248.355V371.98ZM253.643 377.2C253.643 374.86 254.683 374.16 256.363 374.16H256.943V371.8C255.383 371.8 254.283 372.48 253.643 373.58V371.98H251.363V383H253.643V377.2ZM258.279 377.44C258.279 380.84 260.579 383.18 263.439 383.18C265.279 383.18 266.599 382.3 267.299 381.36V383H269.599V371.98H267.299V373.58C266.619 372.68 265.339 371.8 263.479 371.8C260.579 371.8 258.279 374.04 258.279 377.44ZM267.299 377.48C267.299 379.86 265.679 381.2 263.959 381.2C262.259 381.2 260.619 379.82 260.619 377.44C260.619 375.06 262.259 373.78 263.959 373.78C265.679 373.78 267.299 375.12 267.299 377.48ZM272.594 383H274.874V368.2H272.594V383ZM292.203 369.08V379.44L285.343 369.08H283.063V383H285.343V372.62L292.203 383H294.483V369.08H292.203ZM302.117 373.72C303.817 373.72 305.157 374.8 305.197 376.5H299.097C299.337 374.76 300.577 373.72 302.117 373.72ZM307.277 379.72H304.817C304.397 380.58 303.617 381.26 302.217 381.26C300.537 381.26 299.237 380.16 299.077 378.34H307.497C307.557 377.96 307.577 377.6 307.577 377.22C307.577 373.98 305.357 371.8 302.217 371.8C298.957 371.8 296.717 374.02 296.717 377.48C296.717 380.94 299.057 383.18 302.217 383.18C304.917 383.18 306.657 381.64 307.277 379.72ZM310.18 379.94C310.18 382.18 311.4 383 313.36 383H315.16V381.1H313.76C312.8 381.1 312.48 380.76 312.48 379.94V373.84H315.16V371.98H312.48V369.24H310.18V371.98H308.88V373.84H310.18V379.94ZM319.402 383H321.802L324.022 374.86L326.242 383H328.642L332.062 371.98H329.822L327.542 380.8L325.302 371.98H322.922L320.582 380.84L318.282 371.98H315.962L319.402 383ZM344.266 377.48C344.266 374.02 341.786 371.8 338.646 371.8C335.506 371.8 333.026 374.02 333.026 377.48C333.026 380.94 335.406 383.18 338.546 383.18C341.706 383.18 344.266 380.94 344.266 377.48ZM335.346 377.48C335.346 374.98 336.886 373.78 338.606 373.78C340.306 373.78 341.926 374.98 341.926 377.48C341.926 379.98 340.246 381.2 338.546 381.2C336.826 381.2 335.346 379.98 335.346 377.48ZM348.8 377.2C348.8 374.86 349.84 374.16 351.52 374.16H352.1V371.8C350.54 371.8 349.44 372.48 348.8 373.58V371.98H346.52V383H348.8V377.2ZM354.195 383H356.475V378.26L360.555 383H363.635L358.555 377.5L363.635 371.98H360.475L356.475 376.8V368.2H354.195V383Z" fill="#212832"/>
<rect x="0.5" y="351.5" width="616" height="49" stroke="black" stroke-opacity="0.5"/>
<rect y="408" width="617" height="50" fill="white"/>
<path d="M24.6 435.94C26.08 435.94 27.24 434.8 27.24 433.34C27.24 431.86 26.08 430.72 24.6 430.72C23.16 430.72 22 431.86 22 433.34C22 434.8 23.16 435.94 24.6 435.94ZM50.5089 436.06C50.5089 430.98 43.1489 432.94 43.1489 429.8C43.1489 428.46 44.1689 427.82 45.4889 427.86C46.9289 427.9 47.7489 428.76 47.8289 429.7H50.3489C50.1489 427.32 48.2689 425.92 45.6089 425.92C42.7689 425.92 40.8289 427.44 40.8289 429.88C40.8289 435 48.2089 432.82 48.2089 436.18C48.2089 437.36 47.3089 438.22 45.7089 438.22C44.1289 438.22 43.3289 437.3 43.2289 436.16H40.7889C40.7889 438.62 42.9289 440.14 45.7089 440.14C48.8089 440.14 50.5089 438.14 50.5089 436.06ZM63.6992 434.48C63.6992 431.02 61.2192 428.8 58.0792 428.8C54.9392 428.8 52.4592 431.02 52.4592 434.48C52.4592 437.94 54.8392 440.18 57.9792 440.18C61.1392 440.18 63.6992 437.94 63.6992 434.48ZM54.7792 434.48C54.7792 431.98 56.3192 430.78 58.0392 430.78C59.7392 430.78 61.3592 431.98 61.3592 434.48C61.3592 436.98 59.6792 438.2 57.9792 438.2C56.2592 438.2 54.7792 436.98 54.7792 434.48ZM65.1931 434.48C65.1931 437.94 67.4331 440.18 70.5931 440.18C73.2931 440.18 75.0531 438.68 75.6731 436.52H73.2131C72.7931 437.66 71.9531 438.26 70.5931 438.26C68.7531 438.26 67.5331 436.9 67.5331 434.48C67.5331 432.08 68.7531 430.72 70.5931 430.72C71.9531 430.72 72.8331 431.4 73.2131 432.46H75.6731C75.0531 430.14 73.2931 428.8 70.5931 428.8C67.4331 428.8 65.1931 431.04 65.1931 434.48ZM77.9453 440H80.2253V428.98H77.9453V440ZM79.1053 427.52C79.9053 427.52 80.5453 426.88 80.5453 426.06C80.5453 425.24 79.9053 424.6 79.1053 424.6C78.2853 424.6 77.6453 425.24 77.6453 426.06C77.6453 426.88 78.2853 427.52 79.1053 427.52ZM82.4588 434.44C82.4588 437.84 84.7588 440.18 87.6188 440.18C89.4588 440.18 90.7788 439.3 91.4788 438.36V440H93.7788V428.98H91.4788V430.58C90.7988 429.68 89.5188 428.8 87.6588 428.8C84.7588 428.8 82.4588 431.04 82.4588 434.44ZM91.4788 434.48C91.4788 436.86 89.8588 438.2 88.1388 438.2C86.4388 438.2 84.7988 436.82 84.7988 434.44C84.7988 432.06 86.4388 430.78 88.1388 430.78C89.8588 430.78 91.4788 432.12 91.4788 434.48ZM96.7734 440H99.0534V425.2H96.7734V440ZM107.242 440H109.522V430.48L113.782 440H115.362L119.602 430.48V440H121.882V426.1H119.442L114.582 437L109.702 426.1H107.242V440ZM129.519 430.72C131.219 430.72 132.559 431.8 132.599 433.5H126.499C126.739 431.76 127.979 430.72 129.519 430.72ZM134.679 436.72H132.219C131.799 437.58 131.019 438.26 129.619 438.26C127.939 438.26 126.639 437.16 126.479 435.34H134.899C134.959 434.96 134.979 434.6 134.979 434.22C134.979 430.98 132.759 428.8 129.619 428.8C126.359 428.8 124.119 431.02 124.119 434.48C124.119 437.94 126.459 440.18 129.619 440.18C132.319 440.18 134.059 438.64 134.679 436.72ZM136.463 434.44C136.463 437.84 138.763 440.18 141.663 440.18C143.463 440.18 144.783 439.34 145.483 438.34V440H147.783V425.2H145.483V430.52C144.643 429.48 143.123 428.8 141.683 428.8C138.763 428.8 136.463 431.04 136.463 434.44ZM145.483 434.48C145.483 436.86 143.863 438.2 142.143 438.2C140.443 438.2 138.803 436.82 138.803 434.44C138.803 432.06 140.443 430.78 142.143 430.78C143.863 430.78 145.483 432.12 145.483 434.48ZM150.777 440H153.057V428.98H150.777V440ZM151.937 427.52C152.737 427.52 153.377 426.88 153.377 426.06C153.377 425.24 152.737 424.6 151.937 424.6C151.117 424.6 150.477 425.24 150.477 426.06C150.477 426.88 151.117 427.52 151.937 427.52ZM155.291 434.44C155.291 437.84 157.591 440.18 160.451 440.18C162.291 440.18 163.611 439.3 164.311 438.36V440H166.611V428.98H164.311V430.58C163.631 429.68 162.351 428.8 160.491 428.8C157.591 428.8 155.291 431.04 155.291 434.44ZM164.311 434.48C164.311 436.86 162.691 438.2 160.971 438.2C159.271 438.2 157.631 436.82 157.631 434.44C157.631 432.06 159.271 430.78 160.971 430.78C162.691 430.78 164.311 432.12 164.311 434.48ZM183.641 429.2C183.781 427.3 182.481 425.78 180.061 425.78C177.681 425.78 176.201 427.16 176.201 428.98C176.201 429.96 176.481 430.7 177.261 431.64C175.061 432.54 174.001 434.12 174.001 436C174.001 438.6 176.001 440.26 179.001 440.26C180.941 440.26 182.481 439.62 183.821 438.28L185.541 440H188.521L185.141 436.64C185.301 436.38 185.481 436.1 185.641 435.82L187.441 432.74H184.981L183.561 435.08L179.881 431.42C178.901 430.36 178.481 429.74 178.481 428.98C178.481 428.24 179.061 427.64 179.961 427.64C180.821 427.64 181.401 428.18 181.361 429.2H183.641ZM179.001 438.32C177.361 438.32 176.281 437.26 176.281 435.92C176.281 434.68 177.021 433.72 178.641 433.08L182.321 436.78C181.361 437.8 180.301 438.32 179.001 438.32ZM194.491 427.96H198.211V440H200.491V427.96H204.191V426.1H194.491V427.96ZM211.14 430.72C212.84 430.72 214.18 431.8 214.22 433.5H208.12C208.36 431.76 209.6 430.72 211.14 430.72ZM216.3 436.72H213.84C213.42 437.58 212.64 438.26 211.24 438.26C209.56 438.26 208.26 437.16 208.1 435.34H216.52C216.58 434.96 216.6 434.6 216.6 434.22C216.6 430.98 214.38 428.8 211.24 428.8C207.98 428.8 205.74 431.02 205.74 434.48C205.74 437.94 208.08 440.18 211.24 440.18C213.94 440.18 215.68 438.64 216.3 436.72ZM224.544 440H227.124L223.564 434.42L227.124 428.98H224.744L222.504 432.72L220.124 428.98H217.544L221.104 434.58L217.544 440H219.924L222.164 436.26L224.544 440ZM229.184 436.94C229.184 439.18 230.404 440 232.364 440H234.164V438.1H232.764C231.804 438.1 231.484 437.76 231.484 436.94V430.84H234.164V428.98H231.484V426.24H229.184V428.98H227.884V430.84H229.184V436.94ZM250.841 440H253.241L248.261 426.08H245.621L240.641 440H243.021L244.021 437.16H249.841L250.841 440ZM249.201 435.3H244.661L246.941 428.84L249.201 435.3ZM263.226 440H265.486V433.5C265.486 430.42 263.546 428.8 260.966 428.8C259.646 428.8 258.426 429.34 257.686 430.24V428.98H255.406V440H257.686V433.84C257.686 431.82 258.786 430.78 260.466 430.78C262.126 430.78 263.226 431.82 263.226 433.84V440ZM267.635 434.44C267.635 437.84 269.935 440.18 272.795 440.18C274.635 440.18 275.955 439.3 276.655 438.36V440H278.955V428.98H276.655V430.58C275.975 429.68 274.695 428.8 272.835 428.8C269.935 428.8 267.635 431.04 267.635 434.44ZM276.655 434.48C276.655 436.86 275.035 438.2 273.315 438.2C271.615 438.2 269.975 436.82 269.975 434.44C269.975 432.06 271.615 430.78 273.315 430.78C275.035 430.78 276.655 432.12 276.655 434.48ZM281.949 440H284.229V425.2H281.949V440ZM291.563 437.38L288.463 428.98H285.923L290.263 439.82L288.023 445.18H290.383L297.143 428.98H294.783L291.563 437.38ZM299.223 436.94C299.223 439.18 300.443 440 302.403 440H304.203V438.1H302.803C301.843 438.1 301.523 437.76 301.523 436.94V430.84H304.203V428.98H301.523V426.24H299.223V428.98H297.923V430.84H299.223V436.94ZM306.305 440H308.585V428.98H306.305V440ZM307.465 427.52C308.265 427.52 308.905 426.88 308.905 426.06C308.905 425.24 308.265 424.6 307.465 424.6C306.645 424.6 306.005 425.24 306.005 426.06C306.005 426.88 306.645 427.52 307.465 427.52ZM310.818 434.48C310.818 437.94 313.058 440.18 316.218 440.18C318.918 440.18 320.678 438.68 321.298 436.52H318.838C318.418 437.66 317.578 438.26 316.218 438.26C314.378 438.26 313.158 436.9 313.158 434.48C313.158 432.08 314.378 430.72 316.218 430.72C317.578 430.72 318.458 431.4 318.838 432.46H321.298C320.678 430.14 318.918 428.8 316.218 428.8C313.058 428.8 310.818 431.04 310.818 434.48ZM331.79 436.92C331.67 432.94 325.45 434.18 325.45 431.96C325.45 431.22 326.09 430.72 327.31 430.72C328.55 430.72 329.29 431.38 329.37 432.34H331.65C331.53 430.14 329.89 428.8 327.39 428.8C324.79 428.8 323.15 430.22 323.15 431.98C323.15 436.02 329.55 434.78 329.55 436.94C329.55 437.7 328.85 438.26 327.53 438.26C326.27 438.26 325.41 437.52 325.33 436.62H322.97C323.07 438.62 324.93 440.18 327.57 440.18C330.17 440.18 331.79 438.78 331.79 436.92Z" fill="#212832"/>
<rect x="0.5" y="408.5" width="616" height="49" stroke="black" stroke-opacity="0.5"/>
</svg>
