<svg width="396" height="344" viewBox="0 0 396 344" fill="none" xmlns="http://www.w3.org/2000/svg">
<path d="M396 0H0V344H396V0Z" fill="#568BCF"/>
<path d="M96.4563 54.79C96.4563 56.855 95.0563 58.01 92.6763 58.01H87.7413V51.43H92.5713C94.9513 51.43 96.4563 52.69 96.4563 54.79ZM95.8613 44.605C95.8613 46.6 94.5313 47.65 92.2213 47.65H87.7413V41.525H92.2213C94.5313 41.525 95.8613 42.645 95.8613 44.605ZM101.426 55.385C101.426 52.515 99.4663 49.96 96.7013 49.47C99.0813 48.7 100.866 46.845 100.866 43.87C100.866 40.23 98.0313 37.57 92.9213 37.57H82.8413V62H93.3763C98.4513 62 101.426 59.27 101.426 55.385ZM104.142 49.75C104.142 57.065 109.497 62.21 116.532 62.21C121.957 62.21 126.367 59.34 128.012 54.3H122.377C121.222 56.68 119.122 57.835 116.497 57.835C112.227 57.835 109.182 54.685 109.182 49.75C109.182 44.78 112.227 41.665 116.497 41.665C119.122 41.665 121.222 42.82 122.377 45.165H128.012C126.367 40.16 121.957 37.255 116.532 37.255C109.497 37.255 104.142 42.435 104.142 49.75ZM148.787 62H153.967L145.182 37.535H139.477L130.692 62H135.837L137.447 57.345H147.177L148.787 62ZM145.847 53.425H138.777L142.312 43.205L145.847 53.425ZM176.86 37.255C169.79 37.255 164.4 42.435 164.4 49.75C164.4 57.065 169.79 62.21 176.895 62.21C183.405 62.21 187.85 57.66 188.83 52.69V48.42H175.6V52.165H184C183.265 55.63 180.85 57.8 177.07 57.8C172.52 57.8 169.44 54.72 169.44 49.75C169.44 44.885 172.485 41.77 176.86 41.77C179.45 41.77 181.48 42.855 182.6 44.92H188.235C186.66 40.02 182.32 37.255 176.86 37.255ZM206.631 37.535H192.456V62H206.631V58.01H197.356V51.535H205.581V47.65H197.356V41.525H206.631V37.535ZM227.078 37.535V54.335L215.983 37.535H211.083V62H215.983V45.235L227.078 62H231.978V37.535H227.078ZM250.996 37.535H236.821V62H250.996V58.01H241.721V51.535H249.946V47.65H241.721V41.525H250.996V37.535ZM268.399 45.165C268.399 47.37 267.174 48.805 264.444 48.805H260.349V41.63H264.444C267.174 41.63 268.399 42.995 268.399 45.165ZM255.449 37.57V62H260.349V52.48H262.659L268.049 62H273.719L267.874 52.095C271.794 51.045 273.439 48.035 273.439 45.06C273.439 40.965 270.499 37.57 264.619 37.57H255.449ZM294.461 62H299.641L290.856 37.535H285.151L276.366 62H281.511L283.121 57.345H292.851L294.461 62ZM291.521 53.425H284.451L287.986 43.205L291.521 53.425ZM302.924 37.57V62H315.874V58.115H307.824V37.57H302.924Z" fill="white"/>
<line x1="168" y1="75.8004" x2="228.959" y2="75.8004" stroke="white" stroke-width="0.39927"/>
<path d="M302.962 137.273V119.25H112.08V127.274V174.575H80.1663V234.81H119.864" stroke="#0024A8" stroke-width="1.0658" stroke-miterlimit="10" stroke-dasharray="3.2 3.2"/>
<path d="M96.7517 271.274V270.316" stroke="#0024A8" stroke-width="1.0658" stroke-miterlimit="10"/>
<path d="M96.7517 268.519V247.683" stroke="#0024A8" stroke-width="1.0658" stroke-miterlimit="10" stroke-dasharray="3.02 3.02"/>
<path d="M96.7518 246.785V245.827H95.7938" stroke="#0024A8" stroke-width="1.0658" stroke-miterlimit="10"/>
<path d="M93.9975 245.827H65.8561" stroke="#0024A8" stroke-width="1.0658" stroke-miterlimit="10" stroke-dasharray="3.03 3.03"/>
<path d="M64.958 245.827H64V244.869" stroke="#0024A8" stroke-width="1.0658" stroke-miterlimit="10"/>
<path d="M64 242.953V212.835" stroke="#0024A8" stroke-width="1.0658" stroke-miterlimit="10" stroke-dasharray="3.24 3.24"/>
<path d="M64 211.877V210.919H64.958" stroke="#0024A8" stroke-width="1.0658" stroke-miterlimit="10"/>
<path d="M66.8141 210.919H102.859" stroke="#0024A8" stroke-width="1.0658" stroke-miterlimit="10" stroke-dasharray="3.09 3.09"/>
<path d="M103.757 210.919H104.715V209.961" stroke="#0024A8" stroke-width="1.0658" stroke-miterlimit="10"/>
<path d="M104.715 208.045V129.609" stroke="#0024A8" stroke-width="1.0658" stroke-miterlimit="10" stroke-dasharray="3.16 3.16"/>
<path d="M104.715 128.651V127.693H105.673" stroke="#0024A8" stroke-width="1.0658" stroke-miterlimit="10"/>
<path d="M107.649 127.693H172.314" stroke="#0024A8" stroke-width="1.0658" stroke-miterlimit="10" stroke-dasharray="3.22 3.22"/>
<path d="M173.272 127.693H174.23V126.735" stroke="#0024A8" stroke-width="1.0658" stroke-miterlimit="10"/>
<path d="M174.23 124.878V106.916" stroke="#0024A8" stroke-width="1.0658" stroke-miterlimit="10" stroke-dasharray="3.15 3.15"/>
<path d="M174.23 105.958V105H175.188" stroke="#0024A8" stroke-width="1.0658" stroke-miterlimit="10"/>
<path d="M177.104 105H206.862" stroke="#0024A8" stroke-width="1.0658" stroke-miterlimit="10" stroke-dasharray="3.21 3.21"/>
<path d="M207.82 105H208.778V105.958" stroke="#0024A8" stroke-width="1.0658" stroke-miterlimit="10"/>
<path d="M208.778 107.934V126.795" stroke="#0024A8" stroke-width="1.0658" stroke-miterlimit="10" stroke-dasharray="3.31 3.31"/>
<path d="M208.778 127.812V128.771H209.736" stroke="#0024A8" stroke-width="1.0658" stroke-miterlimit="10"/>
<path d="M211.652 128.77H241.71" stroke="#0024A8" stroke-width="1.0658" stroke-miterlimit="10" stroke-dasharray="3.24 3.24"/>
<path d="M242.668 128.77H243.626V129.728" stroke="#0024A8" stroke-width="1.0658" stroke-miterlimit="10"/>
<path d="M243.626 131.884V135.177" stroke="#0024A8" stroke-width="1.0658" stroke-miterlimit="10" stroke-dasharray="3.66 3.66"/>
<path d="M243.626 136.315V137.273H244.584" stroke="#0024A8" stroke-width="1.0658" stroke-miterlimit="10"/>
<path d="M246.44 137.273H301.046" stroke="#0024A8" stroke-width="1.0658" stroke-miterlimit="10" stroke-dasharray="3.09 3.09"/>
<path d="M302.004 137.273H302.962V138.231" stroke="#0024A8" stroke-width="1.0658" stroke-miterlimit="10"/>
<path d="M302.962 139.967V149.487" stroke="#0024A8" stroke-width="1.0658" stroke-miterlimit="10" stroke-dasharray="2.91 2.91"/>
<path d="M302.962 150.386V151.344H303.92" stroke="#0024A8" stroke-width="1.0658" stroke-miterlimit="10"/>
<path d="M305.896 151.344H333.139" stroke="#0024A8" stroke-width="1.0658" stroke-miterlimit="10" stroke-dasharray="3.37 3.37"/>
<path d="M334.097 151.344H335.055V152.302" stroke="#0024A8" stroke-width="1.0658" stroke-miterlimit="10"/>
<path d="M335.055 154.218V180.383" stroke="#0024A8" stroke-width="1.0658" stroke-miterlimit="10" stroke-dasharray="3.24 3.24"/>
<path d="M335.055 181.401V182.359H334.097" stroke="#0024A8" stroke-width="1.0658" stroke-miterlimit="10"/>
<path d="M332.062 182.359H312.303" stroke="#0024A8" stroke-width="1.0658" stroke-miterlimit="10" stroke-dasharray="3.47 3.47"/>
<path d="M311.285 182.359H310.327V183.317" stroke="#0024A8" stroke-width="1.0658" stroke-miterlimit="10"/>
<path d="M310.327 185.173V255.347" stroke="#0024A8" stroke-width="1.0658" stroke-miterlimit="10" stroke-dasharray="3.12 3.12"/>
<path d="M310.327 256.245V257.203" stroke="#0024A8" stroke-width="1.0658" stroke-miterlimit="10"/>
<path d="M330.924 315.462H82.5015V324.742H330.924V315.462Z" fill="#4779F6"/>
<path d="M299.43 282.53H114.116L82.5015 315.462H330.984L299.43 282.53Z" fill="#072BDB"/>
<path d="M205.605 308.157C256.232 308.157 297.274 304.323 297.274 299.595C297.274 294.866 256.232 291.032 205.605 291.032C154.978 291.032 113.936 294.866 113.936 299.595C113.936 304.323 154.978 308.157 205.605 308.157Z" fill="#0024A8"/>
<path d="M187.223 269.477L183.271 296.9H230.214L225.783 269.477H187.223Z" fill="#054DDD"/>
<path d="M246.5 300.852H166.985V302.828H246.5V300.852Z" fill="#054DDD"/>
<path d="M183.272 296.9L166.985 300.852H246.5L230.214 296.9H183.272Z" fill="#4779F6"/>
<path d="M298.472 255.347H115.074V160.265C115.074 156.074 118.486 152.661 122.678 152.661H290.867C295.059 152.661 298.472 156.074 298.472 160.265V255.347Z" fill="#130751"/>
<path d="M290.867 272.95H122.618C118.427 272.95 115.074 269.537 115.074 265.406V255.407H298.472V265.406C298.472 269.537 295.059 272.95 290.867 272.95Z" fill="#4779F6"/>
<path d="M291.706 158.588H121.839V249H291.706V158.588Z" fill="#B6CEFF"/>
<path d="M210.335 263.49C210.335 265.466 208.719 267.082 206.743 267.082C204.767 267.082 203.15 265.466 203.15 263.49C203.15 261.514 204.767 259.897 206.743 259.897C208.719 259.897 210.335 261.514 210.335 263.49Z" fill="#130751"/>
<path d="M208.719 168.947H148.604V239.121H208.719V168.947Z" fill="#4779F6"/>
<path d="M200.037 178.527H157.286V182.359H200.037V178.527Z" fill="#E4EAFE"/>
<path d="M200.037 185.532H157.286V189.364H200.037V185.532Z" fill="#E4EAFE"/>
<path d="M200.037 192.538H157.286V196.37H200.037V192.538Z" fill="#E4EAFE"/>
<path d="M200.037 199.543H157.286V203.375H200.037V199.543Z" fill="#E4EAFE"/>
<path d="M200.037 206.608H157.286V210.44H200.037V206.608Z" fill="#E4EAFE"/>
<path d="M200.037 213.614H157.286V217.446H200.037V213.614Z" fill="#E4EAFE"/>
<path d="M200.037 220.619H157.286V224.451H200.037V220.619Z" fill="#E4EAFE"/>
<path d="M200.037 227.625H157.286V231.457H200.037V227.625Z" fill="#E4EAFE"/>
<path d="M249.254 194.394V188.286H245.422C245.123 186.909 244.584 185.592 243.865 184.395L246.56 181.7L242.249 177.389L239.554 180.084C238.357 179.365 237.099 178.766 235.662 178.467V174.635H229.555V178.467C228.178 178.766 226.861 179.305 225.663 180.024L222.969 177.329L218.658 181.64L221.352 184.335C220.634 185.532 220.035 186.79 219.736 188.227H215.904V194.334H219.736C220.035 195.711 220.574 197.028 221.292 198.226L218.598 200.92L222.909 205.231L225.603 202.537C226.801 203.255 228.058 203.854 229.495 204.153V207.985H235.543V204.153C236.92 203.854 238.237 203.315 239.435 202.597L242.129 205.291L246.44 200.98L243.746 198.286C244.464 197.088 245.063 195.831 245.362 194.394H249.254ZM232.549 197.148C229.316 197.148 226.681 194.513 226.681 191.28C226.681 188.047 229.316 185.412 232.549 185.412C235.782 185.412 238.417 188.047 238.417 191.28C238.417 194.513 235.782 197.148 232.549 197.148Z" fill="#130751"/>
<path d="M272.067 213.135V208.345H269.073C268.833 207.267 268.414 206.249 267.815 205.291L269.971 203.136L266.558 199.723L264.462 201.818C263.564 201.22 262.487 200.8 261.409 200.561V197.567H256.619V200.561C255.541 200.8 254.523 201.22 253.565 201.818L251.41 199.663L247.997 203.076L250.092 205.171C249.494 206.069 249.074 207.147 248.835 208.225H245.841V213.015H248.835C249.074 214.093 249.494 215.111 250.092 216.069L247.937 218.224L251.35 221.637L253.445 219.541C254.343 220.14 255.421 220.559 256.499 220.799V223.792H261.289V220.799C262.367 220.559 263.385 220.14 264.343 219.541L266.498 221.697L269.911 218.284L267.815 216.188C268.414 215.29 268.833 214.212 269.073 213.135H272.067ZM258.954 215.29C256.379 215.29 254.343 213.195 254.343 210.68C254.343 208.105 256.439 206.069 258.954 206.069C261.529 206.069 263.564 208.165 263.564 210.68C263.564 213.254 261.469 215.29 258.954 215.29Z" fill="#130751"/>
<path d="M245.721 224.272V220.859H243.566C243.386 220.08 243.087 219.362 242.668 218.703L244.165 217.206L241.77 214.811L240.273 216.308C239.614 215.889 238.896 215.59 238.117 215.41V213.255H234.704V215.41C233.926 215.59 233.208 215.889 232.549 216.308L231.052 214.811L228.657 217.206L230.154 218.703C229.735 219.362 229.435 220.08 229.256 220.859H227.1V224.272H229.256C229.435 225.05 229.735 225.768 230.154 226.427L228.657 227.924L231.052 230.319L232.549 228.822C233.208 229.241 233.926 229.541 234.704 229.72V231.876H238.117V229.72C238.896 229.541 239.614 229.241 240.273 228.822L241.77 230.319L244.165 227.924L242.668 226.427C243.087 225.768 243.386 225.05 243.566 224.272H245.721ZM236.381 225.828C234.585 225.828 233.088 224.331 233.088 222.535C233.088 220.739 234.585 219.242 236.381 219.242C238.177 219.242 239.674 220.739 239.674 222.535C239.674 224.391 238.177 225.828 236.381 225.828Z" fill="#130751"/>
<path opacity="0.24" d="M202.432 158.588L165.908 249H186.146L222.31 158.588H202.432Z" fill="white"/>
<path opacity="0.24" d="M234.884 158.588L200.815 249H208.898L243.626 158.588H234.884Z" fill="white"/>
<path d="M265.361 139.548C265.181 139.548 264.941 139.488 264.762 139.428C263.504 138.829 262.247 139.368 262.187 139.428C261.469 139.787 260.63 139.488 260.331 138.769C259.972 138.111 260.271 137.273 260.93 136.913C261.05 136.853 263.445 135.656 266.019 136.913C266.738 137.273 266.977 138.111 266.678 138.769C266.378 139.248 265.899 139.548 265.361 139.548Z" fill="#054DDD"/>
<path d="M268.773 135.716C268.474 135.716 268.235 135.656 267.995 135.476C263.504 132.303 259.193 135.416 259.134 135.476C258.535 135.955 257.637 135.776 257.158 135.177C256.679 134.578 256.858 133.68 257.457 133.201C259.493 131.704 264.702 129.728 269.612 133.201C270.27 133.62 270.39 134.518 269.971 135.177C269.672 135.536 269.252 135.716 268.773 135.716Z" fill="#054DDD"/>
<path d="M272.186 132.183C271.887 132.183 271.588 132.064 271.348 131.884C262.966 125.417 256.2 131.525 255.9 131.824C255.361 132.363 254.463 132.303 253.924 131.764C253.386 131.225 253.445 130.327 253.984 129.788C254.044 129.728 262.786 121.765 273.085 129.728C273.683 130.207 273.803 131.106 273.324 131.704C273.025 132.004 272.606 132.183 272.186 132.183Z" fill="#054DDD"/>
<path d="M318.365 166.736C326.876 158.225 326.876 144.425 318.365 135.914C309.853 127.403 296.054 127.403 287.543 135.914C279.032 144.425 279.032 158.225 287.543 166.736C296.054 175.247 309.853 175.247 318.365 166.736Z" fill="#FCA232"/>
<path d="M286.317 137.273C283.084 141.045 281.168 146.014 281.168 151.343C281.168 163.378 290.927 173.138 302.962 173.138C308.83 173.138 314.159 170.803 318.051 167.031C293.083 163.498 287.454 147.152 286.317 137.273Z" fill="#F98816"/>
<path d="M287.514 150.625C287.514 147.871 289.61 145.955 292.484 145.955C294.22 145.955 295.598 146.613 296.496 147.751L294.58 149.427C294.041 148.769 293.442 148.35 292.604 148.35C291.346 148.35 290.508 149.248 290.508 150.565C290.508 151.942 291.346 152.78 292.604 152.78C293.382 152.78 294.041 152.421 294.58 151.703L296.496 153.379C295.598 154.517 294.22 155.176 292.484 155.176C289.61 155.295 287.514 153.379 287.514 150.625Z" fill="#FBFFFD"/>
<path d="M305.417 155.116V151.044L303.501 154.337H302.184L300.268 151.224V155.176H297.514V146.194H299.968L302.902 150.984L305.716 146.194H308.171V155.176H305.417V155.116Z" fill="#FBFFFD"/>
<path d="M309.01 154.397L309.968 152.182C310.806 152.661 311.944 153.02 312.902 153.02C313.74 153.02 314.039 152.84 314.039 152.541C314.039 151.403 309.07 152.302 309.07 149.008C309.07 147.332 310.447 146.015 313.261 146.015C314.458 146.015 315.716 146.254 316.614 146.793L315.716 149.008C314.818 148.589 313.979 148.35 313.201 148.35C312.303 148.35 312.063 148.589 312.063 148.889C312.063 149.966 317.033 149.068 317.033 152.361C317.033 153.978 315.656 155.355 312.842 155.355C311.465 155.295 309.908 154.936 309.01 154.397Z" fill="#FBFFFD"/>
<path d="M318.769 286.242H320.386C329.367 285.883 336.432 278.519 336.432 269.537C336.432 260.496 329.367 253.191 320.386 252.832H318.769C309.848 253.311 302.902 260.616 302.902 269.537C302.962 278.399 309.908 285.763 318.769 286.242ZM308.65 280.315C309.728 279.536 310.866 278.878 312.063 278.339C313.201 280.734 314.818 282.889 316.853 284.686C313.8 284.087 310.926 282.59 308.65 280.315ZM319.009 284.805C316.554 282.949 314.578 280.554 313.261 277.86C315.117 277.201 317.033 276.782 319.009 276.722V284.805ZM319.009 275.405C316.853 275.525 314.758 275.944 312.782 276.662C312.003 274.746 311.584 272.771 311.464 270.675H319.069V275.405H319.009ZM319.009 269.417H311.405C311.405 267.262 311.764 265.226 312.423 263.25C314.518 264.089 316.734 264.568 319.009 264.627V269.417ZM322.302 284.746C324.398 282.889 326.074 280.674 327.212 278.159C328.529 278.698 329.726 279.357 330.924 280.135C328.589 282.53 325.535 284.147 322.302 284.746ZM331.762 279.117C330.505 278.219 329.128 277.501 327.691 276.902C328.469 274.926 328.888 272.83 329.008 270.675H335.055C334.876 273.788 333.678 276.722 331.762 279.117ZM332.241 260.496C334.097 263.131 335.115 266.184 335.175 269.417H329.128C329.128 267.202 328.768 265.047 328.05 262.951C329.487 262.292 330.924 261.454 332.241 260.496ZM331.403 259.478C330.205 260.376 328.888 261.155 327.571 261.753C326.433 258.939 324.577 256.365 322.302 254.269C325.835 254.868 329.068 256.724 331.403 259.478ZM320.326 254.329C323.02 256.425 325.116 259.119 326.373 262.173C324.457 262.891 322.422 263.25 320.326 263.31V254.329ZM320.326 264.627C322.541 264.568 324.697 264.208 326.793 263.43C327.451 265.346 327.751 267.382 327.751 269.417H320.266V264.627H320.326ZM320.326 270.675H327.751C327.631 272.651 327.212 274.627 326.493 276.483C324.517 275.824 322.422 275.465 320.326 275.405V270.675ZM320.326 276.722C322.242 276.782 324.158 277.082 325.954 277.68C324.697 280.375 322.721 282.77 320.326 284.686V276.722ZM319.009 254.209V263.31C316.913 263.19 314.818 262.771 312.902 261.993C314.219 258.939 316.314 256.245 319.009 254.209ZM316.853 254.329C314.638 256.305 312.842 258.76 311.704 261.514C310.447 260.915 309.249 260.137 308.111 259.299C310.447 256.664 313.5 254.928 316.853 254.329ZM307.333 260.257C308.531 261.215 309.848 262.053 311.285 262.711C310.507 264.867 310.147 267.142 310.147 269.417H304.279C304.279 266.064 305.297 262.891 307.333 260.257ZM304.279 270.675H310.147C310.267 272.89 310.746 275.106 311.584 277.141C310.267 277.74 308.95 278.459 307.812 279.357C305.716 276.902 304.519 273.908 304.279 270.675Z" fill="#4779F6"/>
<path d="M133.455 204.034H85.9742V214.033H133.455V204.034Z" fill="#4779F6"/>
<path d="M94.237 208.524C94.237 210.261 92.8599 211.638 91.1235 211.638C89.3871 211.638 88.01 210.261 88.01 208.524C88.01 206.788 89.3871 205.411 91.1235 205.411C92.8599 205.411 94.237 206.788 94.237 208.524Z" fill="white"/>
<path d="M92.2612 207.387C92.2612 207.985 91.7822 208.464 91.1835 208.464C90.5847 208.464 90.1057 207.985 90.1057 207.387C90.1057 206.788 90.5847 206.309 91.1835 206.309C91.7822 206.309 92.2612 206.788 92.2612 207.387Z" fill="#4779F6"/>
<path d="M93.279 211.638H88.968V210.321C88.968 209.303 89.7464 208.524 90.7643 208.524H91.4828C92.5007 208.524 93.279 209.303 93.279 210.321V211.638Z" fill="#4779F6"/>
<path d="M127.408 206.608H95.7938V207.087H127.408V206.608Z" fill="white"/>
<path d="M127.408 208.045H95.7938V208.524H127.408V208.045Z" fill="white"/>
<path d="M127.408 209.482H95.7938V209.961H127.408V209.482Z" fill="white"/>
<path d="M127.408 210.919H95.7938V211.398H127.408V210.919Z" fill="white"/>
<path d="M133.455 217.506H85.9742V227.505H133.455V217.506Z" fill="#4779F6"/>
<path d="M94.237 221.996C94.237 223.733 92.8599 225.11 91.1235 225.11C89.3871 225.11 88.01 223.733 88.01 221.996C88.01 220.26 89.3871 218.883 91.1235 218.883C92.8599 218.883 94.237 220.26 94.237 221.996Z" fill="white"/>
<path d="M92.2612 220.859C92.2612 221.457 91.7822 221.936 91.1835 221.936C90.5847 221.936 90.1057 221.457 90.1057 220.859C90.1057 220.26 90.5847 219.781 91.1835 219.781C91.7822 219.781 92.2612 220.26 92.2612 220.859Z" fill="#4779F6"/>
<path d="M93.279 225.11H88.968V223.792C88.968 222.775 89.7464 221.996 90.7643 221.996H91.4828C92.5007 221.996 93.279 222.775 93.279 223.792V225.11Z" fill="#4779F6"/>
<path d="M127.408 220.08H95.7938V220.559H127.408V220.08Z" fill="white"/>
<path d="M127.408 221.517H95.7938V221.996H127.408V221.517Z" fill="white"/>
<path d="M127.408 222.954H95.7938V223.433H127.408V222.954Z" fill="white"/>
<path d="M127.408 224.391H95.7938V224.87H127.408V224.391Z" fill="white"/>
<path d="M152.915 135.596C152.795 135.596 152.615 135.596 152.496 135.596C152.795 134.399 152.915 133.201 152.915 131.944C152.915 123.382 145.969 116.436 137.407 116.436C133.815 116.436 130.462 117.694 127.827 119.729C125.372 114.46 119.983 110.808 113.816 110.808C106.392 110.808 100.225 116.017 98.6678 122.963C97.0511 122.424 95.3148 122.064 93.5185 122.064C85.6748 122.064 79.1484 127.932 78.1306 135.536C78.0707 135.536 78.0108 135.536 78.0108 135.536C73.58 135.536 69.748 137.931 67.7123 141.524C67.1734 142.482 67.832 143.679 68.9696 143.679H89.2674H99.9252H130.941H141.598H161.896C162.974 143.679 163.692 142.482 163.153 141.524C161.178 137.991 157.286 135.596 152.915 135.596Z" fill="white"/>
<path d="M115.193 146.913L104.715 128.77L94.2369 146.913H101.242V169.545H108.248V146.913H115.193Z" fill="#4779F6"/>
<path d="M115.672 151.403L126.15 169.545L136.629 151.403H129.683V128.77H122.678V151.403H115.672Z" fill="#FCA232"/>
<g opacity="0.51">
<path d="M352 190.502H280.21V229.481H352V190.502Z" fill="#4779F6"/>
<path d="M343.318 194.454H283.503V197.268H343.318V194.454Z" fill="#E4EAFE"/>
<path d="M325.296 199.004H283.503V201.818H325.296V199.004Z" fill="#E4EAFE"/>
<path d="M334.696 203.555H283.503V206.369H334.696V203.555Z" fill="#E4EAFE"/>
<path d="M343.318 208.105H283.503V210.919H343.318V208.105Z" fill="#E4EAFE"/>
<path d="M338.708 212.656H283.503V215.47H338.708V212.656Z" fill="#E4EAFE"/>
<path d="M332.541 217.206H283.503V220.02H332.541V217.206Z" fill="#E4EAFE"/>
<path d="M339.905 221.757H283.503V224.571H339.905V221.757Z" fill="#E4EAFE"/>
</g>
<path d="M119.864 259.478H73.6399V286.362H119.864V259.478Z" fill="#FCA232"/>
<path d="M73.6399 286.422L96.7517 271.274L119.864 286.422H73.6399Z" fill="#FFB564"/>
<path d="M73.6399 259.478L96.7517 278.039L119.864 259.478H73.6399Z" fill="#F98816"/>
<path d="M210.156 113.802H197.582C196.085 113.802 194.828 115.059 194.828 116.556V140.985C194.828 142.482 196.085 143.739 197.582 143.739H210.156C211.652 143.739 212.91 142.482 212.91 140.985V116.556C212.91 114.999 211.652 113.802 210.156 113.802Z" fill="#130751"/>
<path d="M209.138 115.239H198.659C197.402 115.239 196.384 116.257 196.384 117.514V137.931C196.384 139.189 197.402 140.207 198.659 140.207H209.138C210.395 140.207 211.413 139.189 211.413 137.931V117.514C211.413 116.257 210.395 115.239 209.138 115.239Z" fill="#B6CEFF"/>
<path d="M193.211 134.339L210.215 111.467H214.287L193.211 140.207V134.339Z" fill="white"/>
<path d="M194.828 143.38L215.005 115.239V117.873L194.828 146.554V143.38Z" fill="white"/>
<path d="M204.767 141.763C204.767 142.242 204.348 142.662 203.869 142.662C203.39 142.662 202.97 142.242 202.97 141.763C202.97 141.284 203.39 140.865 203.869 140.865C204.348 140.925 204.767 141.284 204.767 141.763Z" fill="white"/>
<path d="M233.207 120.627H208.958V139.069H233.207V120.627Z" fill="white"/>
<path d="M216.442 135.177L211.233 129.968L216.562 124.699L217.4 125.537L213.03 129.968L217.341 134.279L216.442 135.177Z" fill="#054DDD"/>
<path d="M225.424 135.177L224.526 134.279L228.956 129.908L224.645 125.537L225.484 124.699L230.753 129.908L225.424 135.177Z" fill="#054DDD"/>
<path d="M222.292 125.291L218.464 134.528L219.626 135.01L223.453 125.772L222.292 125.291Z" fill="#054DDD"/>
<path d="M233.207 118.472H208.958V120.627H233.207V118.472Z" fill="#054DDD"/>
</svg>
