<svg width="617" height="515" viewBox="0 0 617 515" fill="none" xmlns="http://www.w3.org/2000/svg">
<rect width="617" height="58" fill="#3498DB"/>
<path d="M33.925 32.95C33.925 26.8 24.975 28.75 24.975 25.25C24.975 23.825 26 23.15 27.375 23.2C28.875 23.225 29.8 24.125 29.875 25.275H33.725C33.5 22.125 31.05 20.3 27.475 20.3C23.875 20.3 21.325 22.2 21.325 25.35C21.3 31.675 30.3 29.4 30.3 33.175C30.3 34.425 29.325 35.3 27.675 35.3C26.05 35.3 25.125 34.375 25.025 32.975H21.275C21.325 36.275 24.125 38.175 27.75 38.175C31.725 38.175 33.925 35.7 33.925 32.95ZM43.4094 26.8C45.2094 26.8 46.6594 27.95 46.7094 29.775H40.1344C40.4094 27.875 41.7344 26.8 43.4094 26.8ZM49.9844 33.65H46.2094C45.7594 34.575 44.9344 35.325 43.4344 35.325C41.6844 35.325 40.2844 34.175 40.1094 32.125H50.2344C50.3094 31.675 50.3344 31.225 50.3344 30.775C50.3344 26.65 47.5094 23.925 43.5094 23.925C39.4094 23.925 36.5594 26.7 36.5594 31.075C36.5594 35.425 39.4844 38.225 43.5094 38.225C46.9344 38.225 49.2344 36.2 49.9844 33.65ZM72.7641 38H76.2641V29.875C76.2641 26.05 73.9141 23.95 70.5891 23.95C68.5641 23.95 66.7391 25.025 65.8391 26.6C64.8891 24.875 63.1141 23.95 60.9641 23.95C59.2391 23.95 57.7641 24.675 56.8891 25.825V24.15H53.3891V38H56.8891V30.35C56.8891 28.15 58.1141 27 60.0141 27C61.8641 27 63.0891 28.15 63.0891 30.35V38H66.5891V30.35C66.5891 28.15 67.8141 27 69.6891 27C71.5391 27 72.7641 28.15 72.7641 30.35V38ZM86.0354 26.8C87.8354 26.8 89.2854 27.95 89.3354 29.775H82.7604C83.0354 27.875 84.3604 26.8 86.0354 26.8ZM92.6104 33.65H88.8354C88.3854 34.575 87.5604 35.325 86.0604 35.325C84.3104 35.325 82.9104 34.175 82.7354 32.125H92.8604C92.9354 31.675 92.9604 31.225 92.9604 30.775C92.9604 26.65 90.1354 23.925 86.1354 23.925C82.0354 23.925 79.1854 26.7 79.1854 31.075C79.1854 35.425 82.1104 38.225 86.1354 38.225C89.5604 38.225 91.8604 36.2 92.6104 33.65ZM106.765 34.05C106.665 28.975 98.99 30.55 98.99 28.025C98.99 27.225 99.665 26.7 100.965 26.7C102.34 26.7 103.19 27.425 103.29 28.5H106.64C106.44 25.75 104.415 23.925 101.065 23.925C97.64 23.925 95.59 25.775 95.59 28.075C95.59 33.15 103.415 31.575 103.415 34.05C103.415 34.85 102.665 35.475 101.29 35.475C99.89 35.475 98.915 34.675 98.79 33.625H95.265C95.415 36.2 97.84 38.225 101.315 38.225C104.69 38.225 106.765 36.425 106.765 34.05ZM110.688 33.7C110.688 36.875 112.463 38 115.113 38H117.313V35.05H115.688C114.588 35.05 114.213 34.65 114.213 33.725V27.025H117.313V24.15H114.213V20.725H110.688V24.15H109.038V27.025H110.688V33.7ZM126.28 26.8C128.08 26.8 129.53 27.95 129.58 29.775H123.005C123.28 27.875 124.605 26.8 126.28 26.8ZM132.855 33.65H129.08C128.63 34.575 127.805 35.325 126.305 35.325C124.555 35.325 123.155 34.175 122.98 32.125H133.105C133.18 31.675 133.205 31.225 133.205 30.775C133.205 26.65 130.38 23.925 126.38 23.925C122.28 23.925 119.43 26.7 119.43 31.075C119.43 35.425 122.355 38.225 126.38 38.225C129.805 38.225 132.105 36.2 132.855 33.65ZM139.76 31.1C139.76 28.425 141.01 27.625 143.085 27.625H144.01V23.95C142.085 23.95 140.635 24.875 139.76 26.3V24.15H136.26V38H139.76V31.1ZM154.925 38H158.525V19.775H152.5V23H154.925V38Z" fill="white"/>
<rect y="66" width="617" height="50" fill="white"/>
<path d="M24.6 91.94C26.08 91.94 27.24 90.8 27.24 89.34C27.24 87.86 26.08 86.72 24.6 86.72C23.16 86.72 22 87.86 22 89.34C22 90.8 23.16 91.94 24.6 91.94ZM49.9489 96H52.2289V82.1H49.9489V88.06H43.4089V82.1H41.1289V96H43.4089V89.92H49.9489V96ZM54.4705 90.44C54.4705 93.84 56.7705 96.18 59.6305 96.18C61.4705 96.18 62.7905 95.3 63.4905 94.36V96H65.7905V84.98H63.4905V86.58C62.8105 85.68 61.5305 84.8 59.6705 84.8C56.7705 84.8 54.4705 87.04 54.4705 90.44ZM63.4905 90.48C63.4905 92.86 61.8705 94.2 60.1505 94.2C58.4505 94.2 56.8105 92.82 56.8105 90.44C56.8105 88.06 58.4505 86.78 60.1505 86.78C61.8705 86.78 63.4905 88.12 63.4905 90.48ZM71.0652 90.2C71.0652 87.86 72.1052 87.16 73.7852 87.16H74.3652V84.8C72.8052 84.8 71.7052 85.48 71.0652 86.58V84.98H68.7852V96H71.0652V90.2ZM75.7009 90.44C75.7009 93.84 78.0009 96.18 80.9009 96.18C82.7009 96.18 84.0209 95.34 84.7209 94.34V96H87.0209V81.2H84.7209V86.52C83.8809 85.48 82.3609 84.8 80.9209 84.8C78.0009 84.8 75.7009 87.04 75.7009 90.44ZM84.7209 90.48C84.7209 92.86 83.1009 94.2 81.3809 94.2C79.6809 94.2 78.0409 92.82 78.0409 90.44C78.0409 88.06 79.6809 86.78 81.3809 86.78C83.1009 86.78 84.7209 88.12 84.7209 90.48ZM92.1556 96H94.5556L96.7756 87.86L98.9956 96H101.396L104.816 84.98H102.576L100.296 93.8L98.0556 84.98H95.6756L93.3356 93.84L91.0356 84.98H88.7156L92.1556 96ZM105.76 90.44C105.76 93.84 108.06 96.18 110.92 96.18C112.76 96.18 114.08 95.3 114.78 94.36V96H117.08V84.98H114.78V86.58C114.1 85.68 112.82 84.8 110.96 84.8C108.06 84.8 105.76 87.04 105.76 90.44ZM114.78 90.48C114.78 92.86 113.16 94.2 111.44 94.2C109.74 94.2 108.1 92.82 108.1 90.44C108.1 88.06 109.74 86.78 111.44 86.78C113.16 86.78 114.78 88.12 114.78 90.48ZM122.354 90.2C122.354 87.86 123.394 87.16 125.074 87.16H125.654V84.8C124.094 84.8 122.994 85.48 122.354 86.58V84.98H120.074V96H122.354V90.2ZM132.39 86.72C134.09 86.72 135.43 87.8 135.47 89.5H129.37C129.61 87.76 130.85 86.72 132.39 86.72ZM137.55 92.72H135.09C134.67 93.58 133.89 94.26 132.49 94.26C130.81 94.26 129.51 93.16 129.35 91.34H137.77C137.83 90.96 137.85 90.6 137.85 90.22C137.85 86.98 135.63 84.8 132.49 84.8C129.23 84.8 126.99 87.02 126.99 90.48C126.99 93.94 129.33 96.18 132.49 96.18C135.19 96.18 136.93 94.64 137.55 92.72ZM145.289 82.1V96H152.269V94.16H147.569V82.1H145.289ZM153.416 90.44C153.416 93.84 155.716 96.18 158.576 96.18C160.416 96.18 161.736 95.3 162.436 94.36V96H164.736V84.98H162.436V86.58C161.756 85.68 160.476 84.8 158.616 84.8C155.716 84.8 153.416 87.04 153.416 90.44ZM162.436 90.48C162.436 92.86 160.816 94.2 159.096 94.2C157.396 94.2 155.756 92.82 155.756 90.44C155.756 88.06 157.396 86.78 159.096 86.78C160.816 86.78 162.436 88.12 162.436 90.48ZM170.01 86.62V81.2H167.73V96H170.01V94.4C170.73 95.36 172.03 96.18 173.85 96.18C176.75 96.18 179.03 93.84 179.03 90.44C179.03 87.04 176.77 84.8 173.85 84.8C172.11 84.8 170.73 85.62 170.01 86.62ZM176.71 90.44C176.71 92.82 175.07 94.2 173.35 94.2C171.65 94.2 170.01 92.86 170.01 90.48C170.01 88.12 171.65 86.78 173.35 86.78C175.07 86.78 176.71 88.06 176.71 90.44Z" fill="#212832"/>
<rect x="0.5" y="66.5" width="616" height="49" stroke="black" stroke-opacity="0.5"/>
<rect y="180" width="617" height="50" fill="white"/>
<path d="M24.6 205.94C26.08 205.94 27.24 204.8 27.24 203.34C27.24 201.86 26.08 200.72 24.6 200.72C23.16 200.72 22 201.86 22 203.34C22 204.8 23.16 205.94 24.6 205.94ZM41.1289 210H43.4089V203.92H48.0089V202.06H43.4089V197.96H49.3089V196.1H41.1289V210ZM61.9219 204.48C61.9219 201.02 59.4419 198.8 56.3019 198.8C53.1619 198.8 50.6819 201.02 50.6819 204.48C50.6819 207.94 53.0619 210.18 56.2019 210.18C59.3619 210.18 61.9219 207.94 61.9219 204.48ZM53.0019 204.48C53.0019 201.98 54.5419 200.78 56.2619 200.78C57.9619 200.78 59.5819 201.98 59.5819 204.48C59.5819 206.98 57.9019 208.2 56.2019 208.2C54.4819 208.2 53.0019 206.98 53.0019 204.48ZM74.1558 198.98H71.8758V205.12C71.8758 207.14 70.7758 208.18 69.0958 208.18C67.4358 208.18 66.3358 207.14 66.3358 205.12V198.98H64.0758V205.46C64.0758 208.54 66.0358 210.16 68.6158 210.16C69.9158 210.16 71.1558 209.62 71.8758 208.68V210H74.1558V198.98ZM84.9841 210H87.2441V203.5C87.2441 200.42 85.3041 198.8 82.7241 198.8C81.4041 198.8 80.1841 199.34 79.4441 200.24V198.98H77.1641V210H79.4441V203.84C79.4441 201.82 80.5441 200.78 82.2241 200.78C83.8841 200.78 84.9841 201.82 84.9841 203.84V210ZM89.3923 204.44C89.3923 207.84 91.6923 210.18 94.5923 210.18C96.3923 210.18 97.7123 209.34 98.4123 208.34V210H100.712V195.2H98.4123V200.52C97.5723 199.48 96.0523 198.8 94.6123 198.8C91.6923 198.8 89.3923 201.04 89.3923 204.44ZM98.4123 204.48C98.4123 206.86 96.7923 208.2 95.0723 208.2C93.3723 208.2 91.7323 206.82 91.7323 204.44C91.7323 202.06 93.3723 200.78 95.0723 200.78C96.7923 200.78 98.4123 202.12 98.4123 204.48ZM102.947 204.44C102.947 207.84 105.247 210.18 108.107 210.18C109.947 210.18 111.267 209.3 111.967 208.36V210H114.267V198.98H111.967V200.58C111.287 199.68 110.007 198.8 108.147 198.8C105.247 198.8 102.947 201.04 102.947 204.44ZM111.967 204.48C111.967 206.86 110.347 208.2 108.627 208.2C106.927 208.2 105.287 206.82 105.287 204.44C105.287 202.06 106.927 200.78 108.627 200.78C110.347 200.78 111.967 202.12 111.967 204.48ZM117.622 206.94C117.622 209.18 118.842 210 120.802 210H122.602V208.1H121.202C120.242 208.1 119.922 207.76 119.922 206.94V200.84H122.602V198.98H119.922V196.24H117.622V198.98H116.322V200.84H117.622V206.94ZM124.703 210H126.983V198.98H124.703V210ZM125.863 197.52C126.663 197.52 127.303 196.88 127.303 196.06C127.303 195.24 126.663 194.6 125.863 194.6C125.043 194.6 124.403 195.24 124.403 196.06C124.403 196.88 125.043 197.52 125.863 197.52ZM140.477 204.48C140.477 201.02 137.997 198.8 134.857 198.8C131.717 198.8 129.237 201.02 129.237 204.48C129.237 207.94 131.617 210.18 134.757 210.18C137.917 210.18 140.477 207.94 140.477 204.48ZM131.557 204.48C131.557 201.98 133.097 200.78 134.817 200.78C136.517 200.78 138.137 201.98 138.137 204.48C138.137 206.98 136.457 208.2 134.757 208.2C133.037 208.2 131.557 206.98 131.557 204.48ZM150.55 210H152.81V203.5C152.81 200.42 150.87 198.8 148.29 198.8C146.97 198.8 145.75 199.34 145.01 200.24V198.98H142.73V210H145.01V203.84C145.01 201.82 146.11 200.78 147.79 200.78C149.45 200.78 150.55 201.82 150.55 203.84V210ZM154.959 204.44C154.959 207.84 157.259 210.18 160.119 210.18C161.959 210.18 163.279 209.3 163.979 208.36V210H166.279V198.98H163.979V200.58C163.299 199.68 162.019 198.8 160.159 198.8C157.259 198.8 154.959 201.04 154.959 204.44ZM163.979 204.48C163.979 206.86 162.359 208.2 160.639 208.2C158.939 208.2 157.299 206.82 157.299 204.44C157.299 202.06 158.939 200.78 160.639 200.78C162.359 200.78 163.979 202.12 163.979 204.48ZM169.273 210H171.553V195.2H169.273V210ZM179.742 210H182.022V200.48L186.282 210H187.862L192.102 200.48V210H194.382V196.1H191.942L187.082 207L182.202 196.1H179.742V210ZM196.619 204.44C196.619 207.84 198.919 210.18 201.779 210.18C203.619 210.18 204.939 209.3 205.639 208.36V210H207.939V198.98H205.639V200.58C204.959 199.68 203.679 198.8 201.819 198.8C198.919 198.8 196.619 201.04 196.619 204.44ZM205.639 204.48C205.639 206.86 204.019 208.2 202.299 208.2C200.599 208.2 198.959 206.82 198.959 204.44C198.959 202.06 200.599 200.78 202.299 200.78C204.019 200.78 205.639 202.12 205.639 204.48ZM211.294 206.94C211.294 209.18 212.514 210 214.474 210H216.274V208.1H214.874C213.914 208.1 213.594 207.76 213.594 206.94V200.84H216.274V198.98H213.594V196.24H211.294V198.98H209.994V200.84H211.294V206.94ZM218.375 210H220.655V203.84C220.655 201.82 221.755 200.78 223.435 200.78C225.095 200.78 226.195 201.82 226.195 203.84V210H228.455V203.5C228.455 200.42 226.535 198.8 224.075 198.8C222.655 198.8 221.415 199.34 220.655 200.26V195.2H218.375V210ZM236.003 200.72C237.703 200.72 239.043 201.8 239.083 203.5H232.983C233.223 201.76 234.463 200.72 236.003 200.72ZM241.163 206.72H238.703C238.283 207.58 237.503 208.26 236.103 208.26C234.423 208.26 233.123 207.16 232.963 205.34H241.383C241.443 204.96 241.463 204.6 241.463 204.22C241.463 200.98 239.243 198.8 236.103 198.8C232.843 198.8 230.603 201.02 230.603 204.48C230.603 207.94 232.943 210.18 236.103 210.18C238.803 210.18 240.543 208.64 241.163 206.72ZM259.327 210H261.587V203.5C261.587 200.42 259.627 198.8 257.047 198.8C255.447 198.8 253.887 199.64 253.207 200.98C252.447 199.54 250.987 198.8 249.247 198.8C247.927 198.8 246.727 199.34 245.987 200.24V198.98H243.707V210H245.987V203.84C245.987 201.82 247.087 200.78 248.767 200.78C250.427 200.78 251.527 201.82 251.527 203.84V210H253.787V203.84C253.787 201.82 254.887 200.78 256.567 200.78C258.227 200.78 259.327 201.82 259.327 203.84V210ZM263.728 204.44C263.728 207.84 266.028 210.18 268.888 210.18C270.728 210.18 272.048 209.3 272.748 208.36V210H275.048V198.98H272.748V200.58C272.068 199.68 270.788 198.8 268.928 198.8C266.028 198.8 263.728 201.04 263.728 204.44ZM272.748 204.48C272.748 206.86 271.128 208.2 269.408 208.2C267.708 208.2 266.068 206.82 266.068 204.44C266.068 202.06 267.708 200.78 269.408 200.78C271.128 200.78 272.748 202.12 272.748 204.48ZM278.403 206.94C278.403 209.18 279.623 210 281.583 210H283.383V208.1H281.983C281.023 208.1 280.703 207.76 280.703 206.94V200.84H283.383V198.98H280.703V196.24H278.403V198.98H277.103V200.84H278.403V206.94ZM285.484 210H287.764V198.98H285.484V210ZM286.644 197.52C287.444 197.52 288.084 196.88 288.084 196.06C288.084 195.24 287.444 194.6 286.644 194.6C285.824 194.6 285.184 195.24 285.184 196.06C285.184 196.88 285.824 197.52 286.644 197.52ZM289.998 204.48C289.998 207.94 292.238 210.18 295.398 210.18C298.098 210.18 299.858 208.68 300.478 206.52H298.018C297.598 207.66 296.758 208.26 295.398 208.26C293.558 208.26 292.338 206.9 292.338 204.48C292.338 202.08 293.558 200.72 295.398 200.72C296.758 200.72 297.638 201.4 298.018 202.46H300.478C299.858 200.14 298.098 198.8 295.398 198.8C292.238 198.8 289.998 201.04 289.998 204.48ZM310.97 206.92C310.85 202.94 304.63 204.18 304.63 201.96C304.63 201.22 305.27 200.72 306.49 200.72C307.73 200.72 308.47 201.38 308.55 202.34H310.83C310.71 200.14 309.07 198.8 306.57 198.8C303.97 198.8 302.33 200.22 302.33 201.98C302.33 206.02 308.73 204.78 308.73 206.94C308.73 207.7 308.03 208.26 306.71 208.26C305.45 208.26 304.59 207.52 304.51 206.62H302.15C302.25 208.62 304.11 210.18 306.75 210.18C309.35 210.18 310.97 208.78 310.97 206.92Z" fill="#212832"/>
<rect x="0.5" y="180.5" width="616" height="49" stroke="black" stroke-opacity="0.5"/>
<rect y="123" width="617" height="50" fill="white"/>
<path d="M24.6 148.94C26.08 148.94 27.24 147.8 27.24 146.34C27.24 144.86 26.08 143.72 24.6 143.72C23.16 143.72 22 144.86 22 146.34C22 147.8 23.16 148.94 24.6 148.94ZM40.3689 146.02C40.3689 150.2 43.5489 153.12 47.4689 153.12C50.3689 153.12 52.8689 151.68 53.9289 148.96H51.1889C50.4489 150.44 49.1289 151.14 47.4689 151.14C44.7089 151.14 42.7089 149.16 42.7089 146.02C42.7089 142.88 44.7089 140.92 47.4689 140.92C49.1289 140.92 50.4489 141.62 51.1889 143.1H53.9289C52.8689 140.38 50.3689 138.92 47.4689 138.92C43.5489 138.92 40.3689 141.86 40.3689 146.02ZM58.8777 147.2C58.8777 144.86 59.9177 144.16 61.5977 144.16H62.1777V141.8C60.6177 141.8 59.5177 142.48 58.8777 143.58V141.98H56.5977V153H58.8777V147.2ZM68.9134 143.72C70.6134 143.72 71.9534 144.8 71.9934 146.5H65.8934C66.1334 144.76 67.3734 143.72 68.9134 143.72ZM74.0734 149.72H71.6134C71.1934 150.58 70.4134 151.26 69.0134 151.26C67.3334 151.26 66.0334 150.16 65.8734 148.34H74.2934C74.3534 147.96 74.3734 147.6 74.3734 147.22C74.3734 143.98 72.1534 141.8 69.0134 141.8C65.7534 141.8 63.5134 144.02 63.5134 147.48C63.5134 150.94 65.8534 153.18 69.0134 153.18C71.7134 153.18 73.4534 151.64 74.0734 149.72ZM75.8572 147.44C75.8572 150.84 78.1572 153.18 81.0172 153.18C82.8572 153.18 84.1772 152.3 84.8772 151.36V153H87.1772V141.98H84.8772V143.58C84.1972 142.68 82.9172 141.8 81.0572 141.8C78.1572 141.8 75.8572 144.04 75.8572 147.44ZM84.8772 147.48C84.8772 149.86 83.2572 151.2 81.5372 151.2C79.8372 151.2 78.1972 149.82 78.1972 147.44C78.1972 145.06 79.8372 143.78 81.5372 143.78C83.2572 143.78 84.8772 145.12 84.8772 147.48ZM90.5319 149.94C90.5319 152.18 91.7519 153 93.7119 153H95.5119V151.1H94.1119C93.1519 151.1 92.8319 150.76 92.8319 149.94V143.84H95.5119V141.98H92.8319V139.24H90.5319V141.98H89.2319V143.84H90.5319V149.94ZM97.6133 153H99.8933V141.98H97.6133V153ZM98.7733 140.52C99.5733 140.52 100.213 139.88 100.213 139.06C100.213 138.24 99.5733 137.6 98.7733 137.6C97.9533 137.6 97.3133 138.24 97.3133 139.06C97.3133 139.88 97.9533 140.52 98.7733 140.52ZM101.587 141.98L105.767 153H108.487L112.687 141.98H110.267L107.147 150.96L104.027 141.98H101.587ZM119.05 143.72C120.75 143.72 122.09 144.8 122.13 146.5H116.03C116.27 144.76 117.51 143.72 119.05 143.72ZM124.21 149.72H121.75C121.33 150.58 120.55 151.26 119.15 151.26C117.47 151.26 116.17 150.16 116.01 148.34H124.43C124.49 147.96 124.51 147.6 124.51 147.22C124.51 143.98 122.29 141.8 119.15 141.8C115.89 141.8 113.65 144.02 113.65 147.48C113.65 150.94 115.99 153.18 119.15 153.18C121.85 153.18 123.59 151.64 124.21 149.72ZM139.629 139.08H131.949V153H139.629V151.14H134.229V146.88H139.029V145.02H134.229V140.94H139.629V139.08ZM150.258 153H152.518V146.5C152.518 143.42 150.578 141.8 147.998 141.8C146.678 141.8 145.458 142.34 144.718 143.24V141.98H142.438V153H144.718V146.84C144.718 144.82 145.818 143.78 147.498 143.78C149.158 143.78 150.258 144.82 150.258 146.84V153ZM154.666 147.44C154.666 150.84 156.966 153.18 159.866 153.18C161.666 153.18 162.986 152.28 163.686 151.34V153.18C163.686 155.38 162.366 156.46 160.606 156.46C159.026 156.46 157.806 155.68 157.466 154.54H155.206C155.486 156.98 157.666 158.44 160.606 158.44C164.046 158.44 165.986 156.18 165.986 153.18V141.98H163.686V143.58C163.006 142.64 161.666 141.8 159.866 141.8C156.966 141.8 154.666 144.04 154.666 147.44ZM163.686 147.48C163.686 149.86 162.066 151.2 160.346 151.2C158.646 151.2 157.006 149.82 157.006 147.44C157.006 145.06 158.646 143.78 160.346 143.78C162.066 143.78 163.686 145.12 163.686 147.48ZM168.98 153H171.26V138.2H168.98V153ZM174.254 153H176.534V141.98H174.254V153ZM175.414 140.52C176.214 140.52 176.854 139.88 176.854 139.06C176.854 138.24 176.214 137.6 175.414 137.6C174.594 137.6 173.954 138.24 173.954 139.06C173.954 139.88 174.594 140.52 175.414 140.52ZM187.747 149.92C187.627 145.94 181.407 147.18 181.407 144.96C181.407 144.22 182.047 143.72 183.267 143.72C184.507 143.72 185.247 144.38 185.327 145.34H187.607C187.487 143.14 185.847 141.8 183.347 141.8C180.747 141.8 179.107 143.22 179.107 144.98C179.107 149.02 185.507 147.78 185.507 149.94C185.507 150.7 184.807 151.26 183.487 151.26C182.227 151.26 181.367 150.52 181.287 149.62H178.927C179.027 151.62 180.887 153.18 183.527 153.18C186.127 153.18 187.747 151.78 187.747 149.92ZM190.211 153H192.491V146.84C192.491 144.82 193.591 143.78 195.271 143.78C196.931 143.78 198.031 144.82 198.031 146.84V153H200.291V146.5C200.291 143.42 198.371 141.8 195.911 141.8C194.491 141.8 193.251 142.34 192.491 143.26V138.2H190.211V153Z" fill="#212832"/>
<rect x="0.5" y="123.5" width="616" height="49" stroke="black" stroke-opacity="0.5"/>
<rect y="237" width="617" height="50" fill="white"/>
<path d="M24.6 262.94C26.08 262.94 27.24 261.8 27.24 260.34C27.24 258.86 26.08 257.72 24.6 257.72C23.16 257.72 22 258.86 22 260.34C22 261.8 23.16 262.94 24.6 262.94ZM50.5089 263.06C50.5089 257.98 43.1489 259.94 43.1489 256.8C43.1489 255.46 44.1689 254.82 45.4889 254.86C46.9289 254.9 47.7489 255.76 47.8289 256.7H50.3489C50.1489 254.32 48.2689 252.92 45.6089 252.92C42.7689 252.92 40.8289 254.44 40.8289 256.88C40.8289 262 48.2089 259.82 48.2089 263.18C48.2089 264.36 47.3089 265.22 45.7089 265.22C44.1289 265.22 43.3289 264.3 43.2289 263.16H40.7889C40.7889 265.62 42.9289 267.14 45.7089 267.14C48.8089 267.14 50.5089 265.14 50.5089 263.06ZM53.5592 263.94C53.5592 266.18 54.7792 267 56.7392 267H58.5392V265.1H57.1392C56.1792 265.1 55.8592 264.76 55.8592 263.94V257.84H58.5392V255.98H55.8592V253.24H53.5592V255.98H52.2592V257.84H53.5592V263.94ZM59.8806 261.44C59.8806 264.84 62.1806 267.18 65.0406 267.18C66.8806 267.18 68.2006 266.3 68.9006 265.36V267H71.2006V255.98H68.9006V257.58C68.2206 256.68 66.9406 255.8 65.0806 255.8C62.1806 255.8 59.8806 258.04 59.8806 261.44ZM68.9006 261.48C68.9006 263.86 67.2806 265.2 65.5606 265.2C63.8606 265.2 62.2206 263.82 62.2206 261.44C62.2206 259.06 63.8606 257.78 65.5606 257.78C67.2806 257.78 68.9006 259.12 68.9006 261.48ZM74.5553 263.94C74.5553 266.18 75.7753 267 77.7353 267H79.5353V265.1H78.1353C77.1753 265.1 76.8553 264.76 76.8553 263.94V257.84H79.5353V255.98H76.8553V253.24H74.5553V255.98H73.2553V257.84H74.5553V263.94ZM81.6367 267H83.9167V255.98H81.6367V267ZM82.7967 254.52C83.5967 254.52 84.2367 253.88 84.2367 253.06C84.2367 252.24 83.5967 251.6 82.7967 251.6C81.9767 251.6 81.3367 252.24 81.3367 253.06C81.3367 253.88 81.9767 254.52 82.7967 254.52ZM95.1302 263.92C95.0102 259.94 88.7902 261.18 88.7902 258.96C88.7902 258.22 89.4302 257.72 90.6502 257.72C91.8902 257.72 92.6302 258.38 92.7102 259.34H94.9902C94.8702 257.14 93.2302 255.8 90.7302 255.8C88.1302 255.8 86.4902 257.22 86.4902 258.98C86.4902 263.02 92.8902 261.78 92.8902 263.94C92.8902 264.7 92.1902 265.26 90.8702 265.26C89.6102 265.26 88.7502 264.52 88.6702 263.62H86.3102C86.4102 265.62 88.2702 267.18 90.9102 267.18C93.5102 267.18 95.1302 265.78 95.1302 263.92ZM97.9538 263.94C97.9538 266.18 99.1738 267 101.134 267H102.934V265.1H101.534C100.574 265.1 100.254 264.76 100.254 263.94V257.84H102.934V255.98H100.254V253.24H97.9538V255.98H96.6538V257.84H97.9538V263.94ZM105.035 267H107.315V255.98H105.035V267ZM106.195 254.52C106.995 254.52 107.635 253.88 107.635 253.06C107.635 252.24 106.995 251.6 106.195 251.6C105.375 251.6 104.735 252.24 104.735 253.06C104.735 253.88 105.375 254.52 106.195 254.52ZM109.549 261.48C109.549 264.94 111.789 267.18 114.949 267.18C117.649 267.18 119.409 265.68 120.029 263.52H117.569C117.149 264.66 116.309 265.26 114.949 265.26C113.109 265.26 111.889 263.9 111.889 261.48C111.889 259.08 113.109 257.72 114.949 257.72C116.309 257.72 117.189 258.4 117.569 259.46H120.029C119.409 257.14 117.649 255.8 114.949 255.8C111.789 255.8 109.549 258.04 109.549 261.48ZM130.521 263.92C130.401 259.94 124.181 261.18 124.181 258.96C124.181 258.22 124.821 257.72 126.041 257.72C127.281 257.72 128.021 258.38 128.101 259.34H130.381C130.261 257.14 128.621 255.8 126.121 255.8C123.521 255.8 121.881 257.22 121.881 258.98C121.881 263.02 128.281 261.78 128.281 263.94C128.281 264.7 127.581 265.26 126.261 265.26C125.001 265.26 124.141 264.52 124.061 263.62H121.701C121.801 265.62 123.661 267.18 126.301 267.18C128.901 267.18 130.521 265.78 130.521 263.92ZM138.18 267H140.46V253.1H138.18V267ZM148.648 267H150.928V260.92H155.528V259.06H150.928V254.96H156.828V253.1H148.648V267ZM169.441 261.48C169.441 258.02 166.961 255.8 163.821 255.8C160.681 255.8 158.201 258.02 158.201 261.48C158.201 264.94 160.581 267.18 163.721 267.18C166.881 267.18 169.441 264.94 169.441 261.48ZM160.521 261.48C160.521 258.98 162.061 257.78 163.781 257.78C165.481 257.78 167.101 258.98 167.101 261.48C167.101 263.98 165.421 265.2 163.721 265.2C162.001 265.2 160.521 263.98 160.521 261.48ZM173.975 261.2C173.975 258.86 175.015 258.16 176.695 258.16H177.275V255.8C175.715 255.8 174.615 256.48 173.975 257.58V255.98H171.695V267H173.975V261.2ZM192.406 263.02C192.406 264.36 191.466 265.14 189.926 265.14H186.846V260.8H189.846C191.366 260.8 192.406 261.64 192.406 263.02ZM192.046 256.96C192.046 258.24 191.146 258.94 189.666 258.94H186.846V254.96H189.666C191.146 254.96 192.046 255.7 192.046 256.96ZM194.686 263.26C194.686 261.6 193.486 260.12 192.006 259.86C193.346 259.38 194.366 258.36 194.366 256.68C194.366 254.72 192.806 253.1 189.866 253.1H184.566V267H190.126C192.966 267 194.686 265.38 194.686 263.26ZM196.404 260.02C196.404 264.2 199.584 267.12 203.504 267.12C206.404 267.12 208.904 265.68 209.964 262.96H207.224C206.484 264.44 205.164 265.14 203.504 265.14C200.744 265.14 198.744 263.16 198.744 260.02C198.744 256.88 200.744 254.92 203.504 254.92C205.164 254.92 206.484 255.62 207.224 257.1H209.964C208.904 254.38 206.404 252.92 203.504 252.92C199.584 252.92 196.404 255.86 196.404 260.02ZM222.013 267H224.413L219.433 253.08H216.793L211.813 267H214.193L215.193 264.16H221.013L222.013 267ZM220.373 262.3H215.833L218.113 255.84L220.373 262.3Z" fill="#212832"/>
<rect x="0.5" y="237.5" width="616" height="49" stroke="black" stroke-opacity="0.5"/>
<rect y="408" width="617" height="50" fill="white"/>
<path d="M24.6 433.94C26.08 433.94 27.24 432.8 27.24 431.34C27.24 429.86 26.08 428.72 24.6 428.72C23.16 428.72 22 429.86 22 431.34C22 432.8 23.16 433.94 24.6 433.94ZM40.3689 431.02C40.3689 435.2 43.5489 438.12 47.4689 438.12C50.3689 438.12 52.8689 436.68 53.9289 433.96H51.1889C50.4489 435.44 49.1289 436.14 47.4689 436.14C44.7089 436.14 42.7089 434.16 42.7089 431.02C42.7089 427.88 44.7089 425.92 47.4689 425.92C49.1289 425.92 50.4489 426.62 51.1889 428.1H53.9289C52.8689 425.38 50.3689 423.92 47.4689 423.92C43.5489 423.92 40.3689 426.86 40.3689 431.02ZM64.073 430.5V425.96H66.593C68.373 425.96 69.173 426.8 69.173 428.24C69.173 429.64 68.373 430.5 66.593 430.5H64.073ZM71.513 428.24C71.513 425.98 69.893 424.1 66.593 424.1H61.793V438H64.073V432.36H66.593C70.213 432.36 71.513 430.22 71.513 428.24ZM75.9675 432.2C75.9675 429.86 77.0075 429.16 78.6875 429.16H79.2675V426.8C77.7075 426.8 76.6075 427.48 75.9675 428.58V426.98H73.6875V438H75.9675V432.2ZM91.8633 432.48C91.8633 429.02 89.3833 426.8 86.2433 426.8C83.1033 426.8 80.6233 429.02 80.6233 432.48C80.6233 435.94 83.0033 438.18 86.1433 438.18C89.3033 438.18 91.8633 435.94 91.8633 432.48ZM82.9433 432.48C82.9433 429.98 84.4833 428.78 86.2033 428.78C87.9033 428.78 89.5233 429.98 89.5233 432.48C89.5233 434.98 87.8433 436.2 86.1433 436.2C84.4233 436.2 82.9433 434.98 82.9433 432.48ZM93.3572 432.44C93.3572 435.84 95.6572 438.18 98.5572 438.18C100.357 438.18 101.677 437.28 102.377 436.34V438.18C102.377 440.38 101.057 441.46 99.2972 441.46C97.7172 441.46 96.4972 440.68 96.1572 439.54H93.8972C94.1772 441.98 96.3572 443.44 99.2972 443.44C102.737 443.44 104.677 441.18 104.677 438.18V426.98H102.377V428.58C101.697 427.64 100.357 426.8 98.5572 426.8C95.6572 426.8 93.3572 429.04 93.3572 432.44ZM102.377 432.48C102.377 434.86 100.757 436.2 99.0372 436.2C97.3372 436.2 95.6972 434.82 95.6972 432.44C95.6972 430.06 97.3372 428.78 99.0372 428.78C100.757 428.78 102.377 430.12 102.377 432.48ZM109.952 432.2C109.952 429.86 110.992 429.16 112.672 429.16H113.252V426.8C111.692 426.8 110.592 427.48 109.952 428.58V426.98H107.672V438H109.952V432.2ZM114.588 432.44C114.588 435.84 116.888 438.18 119.748 438.18C121.588 438.18 122.908 437.3 123.608 436.36V438H125.908V426.98H123.608V428.58C122.928 427.68 121.648 426.8 119.788 426.8C116.888 426.8 114.588 429.04 114.588 432.44ZM123.608 432.48C123.608 434.86 121.988 436.2 120.268 436.2C118.568 436.2 116.928 434.82 116.928 432.44C116.928 430.06 118.568 428.78 120.268 428.78C121.988 428.78 123.608 430.12 123.608 432.48ZM144.522 438H146.782V431.5C146.782 428.42 144.822 426.8 142.242 426.8C140.642 426.8 139.082 427.64 138.402 428.98C137.642 427.54 136.182 426.8 134.442 426.8C133.122 426.8 131.922 427.34 131.182 428.24V426.98H128.902V438H131.182V431.84C131.182 429.82 132.282 428.78 133.962 428.78C135.622 428.78 136.722 429.82 136.722 431.84V438H138.982V431.84C138.982 429.82 140.082 428.78 141.762 428.78C143.422 428.78 144.522 429.82 144.522 431.84V438ZM165.304 438H167.564V431.5C167.564 428.42 165.604 426.8 163.024 426.8C161.424 426.8 159.864 427.64 159.184 428.98C158.424 427.54 156.964 426.8 155.224 426.8C153.904 426.8 152.704 427.34 151.964 428.24V426.98H149.684V438H151.964V431.84C151.964 429.82 153.064 428.78 154.744 428.78C156.404 428.78 157.504 429.82 157.504 431.84V438H159.764V431.84C159.764 429.82 160.864 428.78 162.544 428.78C164.204 428.78 165.304 429.82 165.304 431.84V438ZM170.465 438H172.745V426.98H170.465V438ZM171.625 425.52C172.425 425.52 173.065 424.88 173.065 424.06C173.065 423.24 172.425 422.6 171.625 422.6C170.805 422.6 170.165 423.24 170.165 424.06C170.165 424.88 170.805 425.52 171.625 425.52ZM183.558 438H185.818V431.5C185.818 428.42 183.878 426.8 181.298 426.8C179.978 426.8 178.758 427.34 178.018 428.24V426.98H175.738V438H178.018V431.84C178.018 429.82 179.118 428.78 180.798 428.78C182.458 428.78 183.558 429.82 183.558 431.84V438ZM187.967 432.44C187.967 435.84 190.267 438.18 193.167 438.18C194.967 438.18 196.287 437.28 196.987 436.34V438.18C196.987 440.38 195.667 441.46 193.907 441.46C192.327 441.46 191.107 440.68 190.767 439.54H188.507C188.787 441.98 190.967 443.44 193.907 443.44C197.347 443.44 199.287 441.18 199.287 438.18V426.98H196.987V428.58C196.307 427.64 194.967 426.8 193.167 426.8C190.267 426.8 187.967 429.04 187.967 432.44ZM196.987 432.48C196.987 434.86 195.367 436.2 193.647 436.2C191.947 436.2 190.307 434.82 190.307 432.44C190.307 430.06 191.947 428.78 193.647 428.78C195.367 428.78 196.987 430.12 196.987 432.48ZM207.477 424.1V438H214.457V436.16H209.757V424.1H207.477ZM215.603 432.44C215.603 435.84 217.903 438.18 220.763 438.18C222.603 438.18 223.923 437.3 224.623 436.36V438H226.923V426.98H224.623V428.58C223.943 427.68 222.663 426.8 220.803 426.8C217.903 426.8 215.603 429.04 215.603 432.44ZM224.623 432.48C224.623 434.86 223.003 436.2 221.283 436.2C219.583 436.2 217.943 434.82 217.943 432.44C217.943 430.06 219.583 428.78 221.283 428.78C223.003 428.78 224.623 430.12 224.623 432.48ZM232.198 428.62V423.2H229.918V438H232.198V436.4C232.918 437.36 234.218 438.18 236.038 438.18C238.938 438.18 241.218 435.84 241.218 432.44C241.218 429.04 238.958 426.8 236.038 426.8C234.298 426.8 232.918 427.62 232.198 428.62ZM238.898 432.44C238.898 434.82 237.258 436.2 235.538 436.2C233.838 436.2 232.198 434.86 232.198 432.48C232.198 430.12 233.838 428.78 235.538 428.78C237.258 428.78 238.898 430.06 238.898 432.44Z" fill="#212832"/>
<rect x="0.5" y="408.5" width="616" height="49" stroke="black" stroke-opacity="0.5"/>
<rect y="294" width="617" height="50" fill="white"/>
<path d="M24.6 319.94C26.08 319.94 27.24 318.8 27.24 317.34C27.24 315.86 26.08 314.72 24.6 314.72C23.16 314.72 22 315.86 22 317.34C22 318.8 23.16 319.94 24.6 319.94ZM45.6689 310.1H41.1289V324H45.6689C50.1289 324 53.0489 321.38 53.0489 317.1C53.0489 312.8 50.1289 310.1 45.6689 310.1ZM43.4089 322.14V311.96H45.6689C48.9489 311.96 50.7089 313.92 50.7089 317.1C50.7089 320.26 48.9489 322.14 45.6689 322.14H43.4089ZM55.3086 324H57.5886V312.98H55.3086V324ZM56.4686 311.52C57.2686 311.52 57.9086 310.88 57.9086 310.06C57.9086 309.24 57.2686 308.6 56.4686 308.6C55.6486 308.6 55.0086 309.24 55.0086 310.06C55.0086 310.88 55.6486 311.52 56.4686 311.52ZM59.822 318.44C59.822 321.84 62.122 324.18 65.022 324.18C66.822 324.18 68.142 323.28 68.842 322.34V324.18C68.842 326.38 67.522 327.46 65.762 327.46C64.182 327.46 62.962 326.68 62.622 325.54H60.362C60.642 327.98 62.822 329.44 65.762 329.44C69.202 329.44 71.142 327.18 71.142 324.18V312.98H68.842V314.58C68.162 313.64 66.822 312.8 65.022 312.8C62.122 312.8 59.822 315.04 59.822 318.44ZM68.842 318.48C68.842 320.86 67.222 322.2 65.502 322.2C63.802 322.2 62.162 320.82 62.162 318.44C62.162 316.06 63.802 314.78 65.502 314.78C67.222 314.78 68.842 316.12 68.842 318.48ZM74.1367 324H76.4167V312.98H74.1367V324ZM75.2967 311.52C76.0967 311.52 76.7367 310.88 76.7367 310.06C76.7367 309.24 76.0967 308.6 75.2967 308.6C74.4767 308.6 73.8367 309.24 73.8367 310.06C73.8367 310.88 74.4767 311.52 75.2967 311.52ZM79.7702 320.94C79.7702 323.18 80.9902 324 82.9502 324H84.7502V322.1H83.3502C82.3902 322.1 82.0702 321.76 82.0702 320.94V314.84H84.7502V312.98H82.0702V310.24H79.7702V312.98H78.4702V314.84H79.7702V320.94ZM86.0916 318.44C86.0916 321.84 88.3916 324.18 91.2516 324.18C93.0916 324.18 94.4116 323.3 95.1116 322.36V324H97.4116V312.98H95.1116V314.58C94.4316 313.68 93.1516 312.8 91.2916 312.8C88.3916 312.8 86.0916 315.04 86.0916 318.44ZM95.1116 318.48C95.1116 320.86 93.4916 322.2 91.7716 322.2C90.0716 322.2 88.4316 320.82 88.4316 318.44C88.4316 316.06 90.0716 314.78 91.7716 314.78C93.4916 314.78 95.1116 316.12 95.1116 318.48ZM100.406 324H102.686V309.2H100.406V324ZM110.115 317.02C110.115 321.2 113.295 324.12 117.215 324.12C120.115 324.12 122.615 322.68 123.675 319.96H120.935C120.195 321.44 118.875 322.14 117.215 322.14C114.455 322.14 112.455 320.16 112.455 317.02C112.455 313.88 114.455 311.92 117.215 311.92C118.875 311.92 120.195 312.62 120.935 314.1H123.675C122.615 311.38 120.115 309.92 117.215 309.92C113.295 309.92 110.115 312.86 110.115 317.02ZM136.844 318.48C136.844 315.02 134.364 312.8 131.224 312.8C128.084 312.8 125.604 315.02 125.604 318.48C125.604 321.94 127.984 324.18 131.124 324.18C134.284 324.18 136.844 321.94 136.844 318.48ZM127.924 318.48C127.924 315.98 129.464 314.78 131.184 314.78C132.884 314.78 134.504 315.98 134.504 318.48C134.504 320.98 132.824 322.2 131.124 322.2C129.404 322.2 127.924 320.98 127.924 318.48ZM154.718 324H156.978V317.5C156.978 314.42 155.018 312.8 152.438 312.8C150.838 312.8 149.278 313.64 148.598 314.98C147.838 313.54 146.378 312.8 144.638 312.8C143.318 312.8 142.118 313.34 141.378 314.24V312.98H139.098V324H141.378V317.84C141.378 315.82 142.478 314.78 144.158 314.78C145.818 314.78 146.918 315.82 146.918 317.84V324H149.178V317.84C149.178 315.82 150.278 314.78 151.958 314.78C153.618 314.78 154.718 315.82 154.718 317.84V324ZM162.159 314.6V312.98H159.879V329.24H162.159V322.4C162.879 323.26 164.179 324.18 165.999 324.18C168.899 324.18 171.179 321.84 171.179 318.44C171.179 315.04 168.899 312.8 165.999 312.8C164.199 312.8 162.859 313.68 162.159 314.6ZM168.859 318.44C168.859 320.82 167.219 322.2 165.499 322.2C163.799 322.2 162.159 320.86 162.159 318.48C162.159 316.12 163.799 314.78 165.499 314.78C167.219 314.78 168.859 316.06 168.859 318.44ZM183.414 312.98H181.134V319.12C181.134 321.14 180.034 322.18 178.354 322.18C176.694 322.18 175.594 321.14 175.594 319.12V312.98H173.334V319.46C173.334 322.54 175.294 324.16 177.874 324.16C179.174 324.16 180.414 323.62 181.134 322.68V324H183.414V312.98ZM186.782 320.94C186.782 323.18 188.002 324 189.962 324H191.762V322.1H190.362C189.402 322.1 189.082 321.76 189.082 320.94V314.84H191.762V312.98H189.082V310.24H186.782V312.98H185.482V314.84H186.782V320.94ZM198.503 314.72C200.203 314.72 201.543 315.8 201.583 317.5H195.483C195.723 315.76 196.963 314.72 198.503 314.72ZM203.663 320.72H201.203C200.783 321.58 200.003 322.26 198.603 322.26C196.923 322.26 195.623 321.16 195.463 319.34H203.883C203.943 318.96 203.963 318.6 203.963 318.22C203.963 314.98 201.743 312.8 198.603 312.8C195.343 312.8 193.103 315.02 193.103 318.48C193.103 321.94 195.443 324.18 198.603 324.18C201.303 324.18 203.043 322.64 203.663 320.72ZM208.487 318.2C208.487 315.86 209.527 315.16 211.207 315.16H211.787V312.8C210.227 312.8 209.127 313.48 208.487 314.58V312.98H206.207V324H208.487V318.2ZM219.078 324H221.358V317.92H225.958V316.06H221.358V311.96H227.258V310.1H219.078V324ZM239.351 312.98H237.071V319.12C237.071 321.14 235.971 322.18 234.291 322.18C232.631 322.18 231.531 321.14 231.531 319.12V312.98H229.271V319.46C229.271 322.54 231.231 324.16 233.811 324.16C235.111 324.16 236.351 323.62 237.071 322.68V324H239.351V312.98ZM250.179 324H252.439V317.5C252.439 314.42 250.499 312.8 247.919 312.8C246.599 312.8 245.379 313.34 244.639 314.24V312.98H242.359V324H244.639V317.84C244.639 315.82 245.739 314.78 247.419 314.78C249.079 314.78 250.179 315.82 250.179 317.84V324ZM254.588 318.44C254.588 321.84 256.888 324.18 259.788 324.18C261.588 324.18 262.908 323.34 263.608 322.34V324H265.908V309.2H263.608V314.52C262.768 313.48 261.248 312.8 259.808 312.8C256.888 312.8 254.588 315.04 254.588 318.44ZM263.608 318.48C263.608 320.86 261.988 322.2 260.268 322.2C258.568 322.2 256.928 320.82 256.928 318.44C256.928 316.06 258.568 314.78 260.268 314.78C261.988 314.78 263.608 316.12 263.608 318.48ZM268.142 318.44C268.142 321.84 270.442 324.18 273.302 324.18C275.142 324.18 276.462 323.3 277.162 322.36V324H279.462V312.98H277.162V314.58C276.482 313.68 275.202 312.8 273.342 312.8C270.442 312.8 268.142 315.04 268.142 318.44ZM277.162 318.48C277.162 320.86 275.542 322.2 273.822 322.2C272.122 322.2 270.482 320.82 270.482 318.44C270.482 316.06 272.122 314.78 273.822 314.78C275.542 314.78 277.162 316.12 277.162 318.48ZM298.077 324H300.337V317.5C300.337 314.42 298.377 312.8 295.797 312.8C294.197 312.8 292.637 313.64 291.957 314.98C291.197 313.54 289.737 312.8 287.997 312.8C286.677 312.8 285.477 313.34 284.737 314.24V312.98H282.457V324H284.737V317.84C284.737 315.82 285.837 314.78 287.517 314.78C289.177 314.78 290.277 315.82 290.277 317.84V324H292.537V317.84C292.537 315.82 293.637 314.78 295.317 314.78C296.977 314.78 298.077 315.82 298.077 317.84V324ZM307.878 314.72C309.578 314.72 310.918 315.8 310.958 317.5H304.858C305.098 315.76 306.338 314.72 307.878 314.72ZM313.038 320.72H310.578C310.158 321.58 309.378 322.26 307.978 322.26C306.298 322.26 304.998 321.16 304.838 319.34H313.258C313.318 318.96 313.338 318.6 313.338 318.22C313.338 314.98 311.118 312.8 307.978 312.8C304.718 312.8 302.478 315.02 302.478 318.48C302.478 321.94 304.818 324.18 307.978 324.18C310.678 324.18 312.418 322.64 313.038 320.72ZM323.402 324H325.662V317.5C325.662 314.42 323.722 312.8 321.142 312.8C319.822 312.8 318.602 313.34 317.862 314.24V312.98H315.582V324H317.862V317.84C317.862 315.82 318.962 314.78 320.642 314.78C322.302 314.78 323.402 315.82 323.402 317.84V324ZM328.93 320.94C328.93 323.18 330.15 324 332.11 324H333.91V322.1H332.51C331.55 322.1 331.23 321.76 331.23 320.94V314.84H333.91V312.98H331.23V310.24H328.93V312.98H327.63V314.84H328.93V320.94ZM335.252 318.44C335.252 321.84 337.552 324.18 340.412 324.18C342.252 324.18 343.572 323.3 344.272 322.36V324H346.572V312.98H344.272V314.58C343.592 313.68 342.312 312.8 340.452 312.8C337.552 312.8 335.252 315.04 335.252 318.44ZM344.272 318.48C344.272 320.86 342.652 322.2 340.932 322.2C339.232 322.2 337.592 320.82 337.592 318.44C337.592 316.06 339.232 314.78 340.932 314.78C342.652 314.78 344.272 316.12 344.272 318.48ZM349.566 324H351.846V309.2H349.566V324ZM363.06 320.92C362.94 316.94 356.72 318.18 356.72 315.96C356.72 315.22 357.36 314.72 358.58 314.72C359.82 314.72 360.56 315.38 360.64 316.34H362.92C362.8 314.14 361.16 312.8 358.66 312.8C356.06 312.8 354.42 314.22 354.42 315.98C354.42 320.02 360.82 318.78 360.82 320.94C360.82 321.7 360.12 322.26 358.8 322.26C357.54 322.26 356.68 321.52 356.6 320.62H354.24C354.34 322.62 356.2 324.18 358.84 324.18C361.44 324.18 363.06 322.78 363.06 320.92Z" fill="#212832"/>
<rect x="0.5" y="294.5" width="616" height="49" stroke="black" stroke-opacity="0.5"/>
<rect y="465" width="617" height="50" fill="white"/>
<path d="M24.6 490.94C26.08 490.94 27.24 489.8 27.24 488.34C27.24 486.86 26.08 485.72 24.6 485.72C23.16 485.72 22 486.86 22 488.34C22 489.8 23.16 490.94 24.6 490.94ZM43.4089 487.5V482.96H45.9289C47.7089 482.96 48.5089 483.8 48.5089 485.24C48.5089 486.64 47.7089 487.5 45.9289 487.5H43.4089ZM50.8489 485.24C50.8489 482.98 49.2289 481.1 45.9289 481.1H41.1289V495H43.4089V489.36H45.9289C49.5489 489.36 50.8489 487.22 50.8489 485.24ZM52.2634 488.02C52.2634 492.2 55.4434 495.12 59.3634 495.12C62.2634 495.12 64.7634 493.68 65.8234 490.96H63.0834C62.3434 492.44 61.0234 493.14 59.3634 493.14C56.6034 493.14 54.6034 491.16 54.6034 488.02C54.6034 484.88 56.6034 482.92 59.3634 482.92C61.0234 482.92 62.3434 483.62 63.0834 485.1H65.8234C64.7634 482.38 62.2634 480.92 59.3634 480.92C55.4434 480.92 52.2634 483.86 52.2634 488.02ZM83.0675 491.06C83.0675 485.98 75.7075 487.94 75.7075 484.8C75.7075 483.46 76.7275 482.82 78.0475 482.86C79.4875 482.9 80.3075 483.76 80.3875 484.7H82.9075C82.7075 482.32 80.8275 480.92 78.1675 480.92C75.3275 480.92 73.3875 482.44 73.3875 484.88C73.3875 490 80.7675 487.82 80.7675 491.18C80.7675 492.36 79.8675 493.22 78.2675 493.22C76.6875 493.22 75.8875 492.3 75.7875 491.16H73.3475C73.3475 493.62 75.4875 495.14 78.2675 495.14C81.3675 495.14 83.0675 493.14 83.0675 491.06ZM96.2578 489.48C96.2578 486.02 93.7778 483.8 90.6378 483.8C87.4978 483.8 85.0178 486.02 85.0178 489.48C85.0178 492.94 87.3978 495.18 90.5378 495.18C93.6978 495.18 96.2578 492.94 96.2578 489.48ZM87.3378 489.48C87.3378 486.98 88.8778 485.78 90.5978 485.78C92.2978 485.78 93.9178 486.98 93.9178 489.48C93.9178 491.98 92.2378 493.2 90.5378 493.2C88.8178 493.2 87.3378 491.98 87.3378 489.48ZM98.7917 495H101.092V485.84H103.132V483.98H101.092V483.2C101.092 481.94 101.572 481.46 102.972 481.46V479.56C100.092 479.56 98.7917 480.66 98.7917 483.2V483.98H97.4917V485.84H98.7917V495ZM105.512 491.94C105.512 494.18 106.732 495 108.692 495H110.492V493.1H109.092C108.132 493.1 107.812 492.76 107.812 491.94V485.84H110.492V483.98H107.812V481.24H105.512V483.98H104.212V485.84H105.512V491.94ZM114.734 495H117.134L119.354 486.86L121.574 495H123.974L127.394 483.98H125.154L122.874 492.8L120.634 483.98H118.254L115.914 492.84L113.614 483.98H111.294L114.734 495ZM128.338 489.44C128.338 492.84 130.638 495.18 133.498 495.18C135.338 495.18 136.658 494.3 137.358 493.36V495H139.658V483.98H137.358V485.58C136.678 484.68 135.398 483.8 133.538 483.8C130.638 483.8 128.338 486.04 128.338 489.44ZM137.358 489.48C137.358 491.86 135.738 493.2 134.018 493.2C132.318 493.2 130.678 491.82 130.678 489.44C130.678 487.06 132.318 485.78 134.018 485.78C135.738 485.78 137.358 487.12 137.358 489.48ZM144.932 489.2C144.932 486.86 145.972 486.16 147.652 486.16H148.232V483.8C146.672 483.8 145.572 484.48 144.932 485.58V483.98H142.652V495H144.932V489.2ZM154.968 485.72C156.668 485.72 158.008 486.8 158.048 488.5H151.948C152.188 486.76 153.428 485.72 154.968 485.72ZM160.128 491.72H157.668C157.248 492.58 156.468 493.26 155.068 493.26C153.388 493.26 152.088 492.16 151.928 490.34H160.348C160.408 489.96 160.428 489.6 160.428 489.22C160.428 485.98 158.208 483.8 155.068 483.8C151.808 483.8 149.568 486.02 149.568 489.48C149.568 492.94 151.908 495.18 155.068 495.18C157.768 495.18 159.508 493.64 160.128 491.72ZM167.867 481.1V495H174.847V493.16H170.147V481.1H167.867ZM175.994 489.44C175.994 492.84 178.294 495.18 181.154 495.18C182.994 495.18 184.314 494.3 185.014 493.36V495H187.314V483.98H185.014V485.58C184.334 484.68 183.054 483.8 181.194 483.8C178.294 483.8 175.994 486.04 175.994 489.44ZM185.014 489.48C185.014 491.86 183.394 493.2 181.674 493.2C179.974 493.2 178.334 491.82 178.334 489.44C178.334 487.06 179.974 485.78 181.674 485.78C183.394 485.78 185.014 487.12 185.014 489.48ZM192.589 485.62V480.2H190.309V495H192.589V493.4C193.309 494.36 194.609 495.18 196.429 495.18C199.329 495.18 201.609 492.84 201.609 489.44C201.609 486.04 199.349 483.8 196.429 483.8C194.689 483.8 193.309 484.62 192.589 485.62ZM199.289 489.44C199.289 491.82 197.649 493.2 195.929 493.2C194.229 493.2 192.589 491.86 192.589 489.48C192.589 487.12 194.229 485.78 195.929 485.78C197.649 485.78 199.289 487.06 199.289 489.44Z" fill="#212832"/>
<rect x="0.5" y="465.5" width="616" height="49" stroke="black" stroke-opacity="0.5"/>
<rect y="351" width="617" height="50" fill="white"/>
<path d="M24.6 376.94C26.08 376.94 27.24 375.8 27.24 374.34C27.24 372.86 26.08 371.72 24.6 371.72C23.16 371.72 22 372.86 22 374.34C22 375.8 23.16 376.94 24.6 376.94ZM41.1289 381H43.4089V367.1H41.1289V381ZM54.2223 381H56.4823V374.5C56.4823 371.42 54.5423 369.8 51.9623 369.8C50.6423 369.8 49.4223 370.34 48.6823 371.24V369.98H46.4023V381H48.6823V374.84C48.6823 372.82 49.7823 371.78 51.4623 371.78C53.1223 371.78 54.2223 372.82 54.2223 374.84V381ZM59.7506 377.94C59.7506 380.18 60.9706 381 62.9306 381H64.7306V379.1H63.3306C62.3706 379.1 62.0506 378.76 62.0506 377.94V371.84H64.7306V369.98H62.0506V367.24H59.7506V369.98H58.4506V371.84H59.7506V377.94ZM69.112 375.2C69.112 372.86 70.152 372.16 71.832 372.16H72.412V369.8C70.852 369.8 69.752 370.48 69.112 371.58V369.98H66.832V381H69.112V375.2ZM85.0078 375.48C85.0078 372.02 82.5278 369.8 79.3878 369.8C76.2478 369.8 73.7678 372.02 73.7678 375.48C73.7678 378.94 76.1478 381.18 79.2878 381.18C82.4478 381.18 85.0078 378.94 85.0078 375.48ZM76.0878 375.48C76.0878 372.98 77.6278 371.78 79.3478 371.78C81.0478 371.78 82.6678 372.98 82.6678 375.48C82.6678 377.98 80.9878 379.2 79.2878 379.2C77.5678 379.2 76.0878 377.98 76.0878 375.48ZM86.5017 375.44C86.5017 378.84 88.8017 381.18 91.7017 381.18C93.5017 381.18 94.8217 380.34 95.5217 379.34V381H97.8217V366.2H95.5217V371.52C94.6817 370.48 93.1617 369.8 91.7217 369.8C88.8017 369.8 86.5017 372.04 86.5017 375.44ZM95.5217 375.48C95.5217 377.86 93.9017 379.2 92.1817 379.2C90.4817 379.2 88.8417 377.82 88.8417 375.44C88.8417 373.06 90.4817 371.78 92.1817 371.78C93.9017 371.78 95.5217 373.12 95.5217 375.48ZM110.796 369.98H108.516V376.12C108.516 378.14 107.416 379.18 105.736 379.18C104.076 379.18 102.976 378.14 102.976 376.12V369.98H100.716V376.46C100.716 379.54 102.676 381.16 105.256 381.16C106.556 381.16 107.796 380.62 108.516 379.68V381H110.796V369.98ZM113.045 375.48C113.045 378.94 115.285 381.18 118.445 381.18C121.145 381.18 122.905 379.68 123.525 377.52H121.065C120.645 378.66 119.805 379.26 118.445 379.26C116.605 379.26 115.385 377.9 115.385 375.48C115.385 373.08 116.605 371.72 118.445 371.72C119.805 371.72 120.685 372.4 121.065 373.46H123.525C122.905 371.14 121.145 369.8 118.445 369.8C115.285 369.8 113.045 372.04 113.045 375.48ZM126.157 377.94C126.157 380.18 127.377 381 129.337 381H131.137V379.1H129.737C128.777 379.1 128.457 378.76 128.457 377.94V371.84H131.137V369.98H128.457V367.24H126.157V369.98H124.857V371.84H126.157V377.94ZM133.238 381H135.518V369.98H133.238V381ZM134.398 368.52C135.198 368.52 135.838 367.88 135.838 367.06C135.838 366.24 135.198 365.6 134.398 365.6C133.578 365.6 132.938 366.24 132.938 367.06C132.938 367.88 133.578 368.52 134.398 368.52ZM149.012 375.48C149.012 372.02 146.532 369.8 143.392 369.8C140.252 369.8 137.772 372.02 137.772 375.48C137.772 378.94 140.152 381.18 143.292 381.18C146.452 381.18 149.012 378.94 149.012 375.48ZM140.092 375.48C140.092 372.98 141.632 371.78 143.352 371.78C145.052 371.78 146.672 372.98 146.672 375.48C146.672 377.98 144.992 379.2 143.292 379.2C141.572 379.2 140.092 377.98 140.092 375.48ZM159.086 381H161.346V374.5C161.346 371.42 159.406 369.8 156.826 369.8C155.506 369.8 154.286 370.34 153.546 371.24V369.98H151.266V381H153.546V374.84C153.546 372.82 154.646 371.78 156.326 371.78C157.986 371.78 159.086 372.82 159.086 374.84V381ZM168.729 368.96H172.449V381H174.729V368.96H178.429V367.1H168.729V368.96ZM191.238 375.48C191.238 372.02 188.758 369.8 185.618 369.8C182.478 369.8 179.998 372.02 179.998 375.48C179.998 378.94 182.378 381.18 185.518 381.18C188.678 381.18 191.238 378.94 191.238 375.48ZM182.318 375.48C182.318 372.98 183.858 371.78 185.578 371.78C187.278 371.78 188.898 372.98 188.898 375.48C188.898 377.98 187.218 379.2 185.518 379.2C183.798 379.2 182.318 377.98 182.318 375.48ZM200.968 373.5V368.96H203.488C205.268 368.96 206.068 369.8 206.068 371.24C206.068 372.64 205.268 373.5 203.488 373.5H200.968ZM208.408 371.24C208.408 368.98 206.788 367.1 203.488 367.1H198.688V381H200.968V375.36H203.488C207.108 375.36 208.408 373.22 208.408 371.24ZM212.862 375.2C212.862 372.86 213.902 372.16 215.582 372.16H216.162V369.8C214.602 369.8 213.502 370.48 212.862 371.58V369.98H210.582V381H212.862V375.2ZM228.758 375.48C228.758 372.02 226.278 369.8 223.138 369.8C219.998 369.8 217.518 372.02 217.518 375.48C217.518 378.94 219.898 381.18 223.038 381.18C226.198 381.18 228.758 378.94 228.758 375.48ZM219.838 375.48C219.838 372.98 221.378 371.78 223.098 371.78C224.798 371.78 226.418 372.98 226.418 375.48C226.418 377.98 224.738 379.2 223.038 379.2C221.318 379.2 219.838 377.98 219.838 375.48ZM230.252 375.44C230.252 378.84 232.552 381.18 235.452 381.18C237.252 381.18 238.572 380.28 239.272 379.34V381.18C239.272 383.38 237.952 384.46 236.192 384.46C234.612 384.46 233.392 383.68 233.052 382.54H230.792C231.072 384.98 233.252 386.44 236.192 386.44C239.632 386.44 241.572 384.18 241.572 381.18V369.98H239.272V371.58C238.592 370.64 237.252 369.8 235.452 369.8C232.552 369.8 230.252 372.04 230.252 375.44ZM239.272 375.48C239.272 377.86 237.652 379.2 235.932 379.2C234.232 379.2 232.592 377.82 232.592 375.44C232.592 373.06 234.232 371.78 235.932 371.78C237.652 371.78 239.272 373.12 239.272 375.48ZM246.846 375.2C246.846 372.86 247.886 372.16 249.566 372.16H250.146V369.8C248.586 369.8 247.486 370.48 246.846 371.58V369.98H244.566V381H246.846V375.2ZM251.482 375.44C251.482 378.84 253.782 381.18 256.642 381.18C258.482 381.18 259.802 380.3 260.502 379.36V381H262.802V369.98H260.502V371.58C259.822 370.68 258.542 369.8 256.682 369.8C253.782 369.8 251.482 372.04 251.482 375.44ZM260.502 375.48C260.502 377.86 258.882 379.2 257.162 379.2C255.462 379.2 253.822 377.82 253.822 375.44C253.822 373.06 255.462 371.78 257.162 371.78C258.882 371.78 260.502 373.12 260.502 375.48ZM281.417 381H283.677V374.5C283.677 371.42 281.717 369.8 279.137 369.8C277.537 369.8 275.977 370.64 275.297 371.98C274.537 370.54 273.077 369.8 271.337 369.8C270.017 369.8 268.817 370.34 268.077 371.24V369.98H265.797V381H268.077V374.84C268.077 372.82 269.177 371.78 270.857 371.78C272.517 371.78 273.617 372.82 273.617 374.84V381H275.877V374.84C275.877 372.82 276.977 371.78 278.657 371.78C280.317 371.78 281.417 372.82 281.417 374.84V381ZM302.198 381H304.458V374.5C304.458 371.42 302.498 369.8 299.918 369.8C298.318 369.8 296.758 370.64 296.078 371.98C295.318 370.54 293.858 369.8 292.118 369.8C290.798 369.8 289.598 370.34 288.858 371.24V369.98H286.578V381H288.858V374.84C288.858 372.82 289.958 371.78 291.638 371.78C293.298 371.78 294.398 372.82 294.398 374.84V381H296.658V374.84C296.658 372.82 297.758 371.78 299.438 371.78C301.098 371.78 302.198 372.82 302.198 374.84V381ZM307.359 381H309.639V369.98H307.359V381ZM308.519 368.52C309.319 368.52 309.959 367.88 309.959 367.06C309.959 366.24 309.319 365.6 308.519 365.6C307.699 365.6 307.059 366.24 307.059 367.06C307.059 367.88 307.699 368.52 308.519 368.52ZM320.453 381H322.713V374.5C322.713 371.42 320.773 369.8 318.193 369.8C316.873 369.8 315.653 370.34 314.913 371.24V369.98H312.633V381H314.913V374.84C314.913 372.82 316.013 371.78 317.693 371.78C319.353 371.78 320.453 372.82 320.453 374.84V381ZM324.861 375.44C324.861 378.84 327.161 381.18 330.061 381.18C331.861 381.18 333.181 380.28 333.881 379.34V381.18C333.881 383.38 332.561 384.46 330.801 384.46C329.221 384.46 328.001 383.68 327.661 382.54H325.401C325.681 384.98 327.861 386.44 330.801 386.44C334.241 386.44 336.181 384.18 336.181 381.18V369.98H333.881V371.58C333.201 370.64 331.861 369.8 330.061 369.8C327.161 369.8 324.861 372.04 324.861 375.44ZM333.881 375.48C333.881 377.86 332.261 379.2 330.541 379.2C328.841 379.2 327.201 377.82 327.201 375.44C327.201 373.06 328.841 371.78 330.541 371.78C332.261 371.78 333.881 373.12 333.881 375.48ZM344.351 375.92C344.351 379.46 346.831 381.14 349.751 381.14C352.651 381.14 355.211 379.46 355.211 375.92V367.1H352.931V375.96C352.931 378.12 351.711 379.14 349.771 379.14C347.851 379.14 346.631 378.12 346.631 375.96V367.1H344.351V375.92ZM366.4 377.92C366.28 373.94 360.06 375.18 360.06 372.96C360.06 372.22 360.7 371.72 361.92 371.72C363.16 371.72 363.9 372.38 363.98 373.34H366.26C366.14 371.14 364.5 369.8 362 369.8C359.4 369.8 357.76 371.22 357.76 372.98C357.76 377.02 364.16 375.78 364.16 377.94C364.16 378.7 363.46 379.26 362.14 379.26C360.88 379.26 360.02 378.52 359.94 377.62H357.58C357.68 379.62 359.54 381.18 362.18 381.18C364.78 381.18 366.4 379.78 366.4 377.92ZM368.863 381H371.143V369.98H368.863V381ZM370.023 368.52C370.823 368.52 371.463 367.88 371.463 367.06C371.463 366.24 370.823 365.6 370.023 365.6C369.203 365.6 368.563 366.24 368.563 367.06C368.563 367.88 369.203 368.52 370.023 368.52ZM381.957 381H384.217V374.5C384.217 371.42 382.277 369.8 379.697 369.8C378.377 369.8 377.157 370.34 376.417 371.24V369.98H374.137V381H376.417V374.84C376.417 372.82 377.517 371.78 379.197 371.78C380.857 371.78 381.957 372.82 381.957 374.84V381ZM386.365 375.44C386.365 378.84 388.665 381.18 391.565 381.18C393.365 381.18 394.685 380.28 395.385 379.34V381.18C395.385 383.38 394.065 384.46 392.305 384.46C390.725 384.46 389.505 383.68 389.165 382.54H386.905C387.185 384.98 389.365 386.44 392.305 386.44C395.745 386.44 397.685 384.18 397.685 381.18V369.98H395.385V371.58C394.705 370.64 393.365 369.8 391.565 369.8C388.665 369.8 386.365 372.04 386.365 375.44ZM395.385 375.48C395.385 377.86 393.765 379.2 392.045 379.2C390.345 379.2 388.705 377.82 388.705 375.44C388.705 373.06 390.345 371.78 392.045 371.78C393.765 371.78 395.385 373.12 395.385 375.48ZM405.115 374.02C405.115 378.2 408.295 381.12 412.215 381.12C415.115 381.12 417.615 379.68 418.675 376.96H415.935C415.195 378.44 413.875 379.14 412.215 379.14C409.455 379.14 407.455 377.16 407.455 374.02C407.455 370.88 409.455 368.92 412.215 368.92C413.875 368.92 415.195 369.62 415.935 371.1H418.675C417.615 368.38 415.115 366.92 412.215 366.92C408.295 366.92 405.115 369.86 405.115 374.02Z" fill="#212832"/>
<rect x="0.5" y="351.5" width="616" height="49" stroke="black" stroke-opacity="0.5"/>
</svg>
