<svg width="617" height="572" viewBox="0 0 617 572" fill="none" xmlns="http://www.w3.org/2000/svg">
<rect y="66" width="617" height="50" fill="white"/>
<path d="M24.6 91.94C26.08 91.94 27.24 90.8 27.24 89.34C27.24 87.86 26.08 86.72 24.6 86.72C23.16 86.72 22 87.86 22 89.34C22 90.8 23.16 91.94 24.6 91.94ZM43.4089 88.5V83.96H45.9289C47.7089 83.96 48.5089 84.8 48.5089 86.24C48.5089 87.64 47.7089 88.5 45.9289 88.5H43.4089ZM50.8489 86.24C50.8489 83.98 49.2289 82.1 45.9289 82.1H41.1289V96H43.4089V90.36H45.9289C49.5489 90.36 50.8489 88.22 50.8489 86.24ZM55.3034 90.2C55.3034 87.86 56.3434 87.16 58.0234 87.16H58.6034V84.8C57.0434 84.8 55.9434 85.48 55.3034 86.58V84.98H53.0234V96H55.3034V90.2ZM71.1992 90.48C71.1992 87.02 68.7192 84.8 65.5792 84.8C62.4392 84.8 59.9592 87.02 59.9592 90.48C59.9592 93.94 62.3392 96.18 65.4792 96.18C68.6392 96.18 71.1992 93.94 71.1992 90.48ZM62.2792 90.48C62.2792 87.98 63.8192 86.78 65.5392 86.78C67.2392 86.78 68.8592 87.98 68.8592 90.48C68.8592 92.98 67.1792 94.2 65.4792 94.2C63.7592 94.2 62.2792 92.98 62.2792 90.48ZM73.7331 96H76.0331V86.84H78.0731V84.98H76.0331V84.2C76.0331 82.94 76.5131 82.46 77.9131 82.46V80.56C75.0331 80.56 73.7331 81.66 73.7331 84.2V84.98H72.4331V86.84H73.7331V96ZM84.7338 86.72C86.4338 86.72 87.7738 87.8 87.8138 89.5H81.7138C81.9538 87.76 83.1938 86.72 84.7338 86.72ZM89.8937 92.72H87.4338C87.0138 93.58 86.2338 94.26 84.8338 94.26C83.1538 94.26 81.8538 93.16 81.6938 91.34H90.1138C90.1738 90.96 90.1938 90.6 90.1938 90.22C90.1938 86.98 87.9738 84.8 84.8338 84.8C81.5738 84.8 79.3338 87.02 79.3338 90.48C79.3338 93.94 81.6738 96.18 84.8338 96.18C87.5338 96.18 89.2738 94.64 89.8937 92.72ZM100.658 92.92C100.538 88.94 94.3175 90.18 94.3175 87.96C94.3175 87.22 94.9575 86.72 96.1775 86.72C97.4175 86.72 98.1575 87.38 98.2375 88.34H100.518C100.398 86.14 98.7575 84.8 96.2575 84.8C93.6575 84.8 92.0175 86.22 92.0175 87.98C92.0175 92.02 98.4175 90.78 98.4175 92.94C98.4175 93.7 97.7175 94.26 96.3975 94.26C95.1375 94.26 94.2775 93.52 94.1975 92.62H91.8375C91.9375 94.62 93.7975 96.18 96.4375 96.18C99.0375 96.18 100.658 94.78 100.658 92.92ZM111.341 92.92C111.221 88.94 105.001 90.18 105.001 87.96C105.001 87.22 105.641 86.72 106.861 86.72C108.101 86.72 108.841 87.38 108.921 88.34H111.201C111.081 86.14 109.441 84.8 106.941 84.8C104.341 84.8 102.701 86.22 102.701 87.98C102.701 92.02 109.101 90.78 109.101 92.94C109.101 93.7 108.401 94.26 107.081 94.26C105.821 94.26 104.961 93.52 104.881 92.62H102.521C102.621 94.62 104.481 96.18 107.121 96.18C109.721 96.18 111.341 94.78 111.341 92.92ZM113.805 96H116.085V84.98H113.805V96ZM114.965 83.52C115.765 83.52 116.405 82.88 116.405 82.06C116.405 81.24 115.765 80.6 114.965 80.6C114.145 80.6 113.505 81.24 113.505 82.06C113.505 82.88 114.145 83.52 114.965 83.52ZM129.578 90.48C129.578 87.02 127.098 84.8 123.958 84.8C120.818 84.8 118.338 87.02 118.338 90.48C118.338 93.94 120.718 96.18 123.858 96.18C127.018 96.18 129.578 93.94 129.578 90.48ZM120.658 90.48C120.658 87.98 122.198 86.78 123.918 86.78C125.618 86.78 127.238 87.98 127.238 90.48C127.238 92.98 125.558 94.2 123.858 94.2C122.138 94.2 120.658 92.98 120.658 90.48ZM139.652 96H141.912V89.5C141.912 86.42 139.972 84.8 137.392 84.8C136.072 84.8 134.852 85.34 134.112 86.24V84.98H131.832V96H134.112V89.84C134.112 87.82 135.212 86.78 136.892 86.78C138.552 86.78 139.652 87.82 139.652 89.84V96ZM144.06 90.44C144.06 93.84 146.36 96.18 149.22 96.18C151.06 96.18 152.38 95.3 153.08 94.36V96H155.38V84.98H153.08V86.58C152.4 85.68 151.12 84.8 149.26 84.8C146.36 84.8 144.06 87.04 144.06 90.44ZM153.08 90.48C153.08 92.86 151.46 94.2 149.74 94.2C148.04 94.2 146.4 92.82 146.4 90.44C146.4 88.06 148.04 86.78 149.74 86.78C151.46 86.78 153.08 88.12 153.08 90.48ZM158.375 96H160.655V81.2H158.375V96ZM176.524 82.08H168.844V96H176.524V94.14H171.124V89.88H175.924V88.02H171.124V83.94H176.524V82.08ZM187.152 96H189.412V89.5C189.412 86.42 187.472 84.8 184.892 84.8C183.572 84.8 182.352 85.34 181.612 86.24V84.98H179.332V96H181.612V89.84C181.612 87.82 182.712 86.78 184.392 86.78C186.052 86.78 187.152 87.82 187.152 89.84V96ZM191.56 90.44C191.56 93.84 193.86 96.18 196.76 96.18C198.56 96.18 199.88 95.28 200.58 94.34V96.18C200.58 98.38 199.26 99.46 197.5 99.46C195.92 99.46 194.7 98.68 194.36 97.54H192.1C192.38 99.98 194.56 101.44 197.5 101.44C200.94 101.44 202.88 99.18 202.88 96.18V84.98H200.58V86.58C199.9 85.64 198.56 84.8 196.76 84.8C193.86 84.8 191.56 87.04 191.56 90.44ZM200.58 90.48C200.58 92.86 198.96 94.2 197.24 94.2C195.54 94.2 193.9 92.82 193.9 90.44C193.9 88.06 195.54 86.78 197.24 86.78C198.96 86.78 200.58 88.12 200.58 90.48ZM205.875 96H208.155V81.2H205.875V96ZM211.148 96H213.428V84.98H211.148V96ZM212.308 83.52C213.108 83.52 213.748 82.88 213.748 82.06C213.748 81.24 213.108 80.6 212.308 80.6C211.488 80.6 210.848 81.24 210.848 82.06C210.848 82.88 211.488 83.52 212.308 83.52ZM224.642 92.92C224.522 88.94 218.302 90.18 218.302 87.96C218.302 87.22 218.942 86.72 220.162 86.72C221.402 86.72 222.142 87.38 222.222 88.34H224.502C224.382 86.14 222.742 84.8 220.242 84.8C217.642 84.8 216.002 86.22 216.002 87.98C216.002 92.02 222.402 90.78 222.402 92.94C222.402 93.7 221.702 94.26 220.382 94.26C219.122 94.26 218.262 93.52 218.182 92.62H215.822C215.922 94.62 217.782 96.18 220.422 96.18C223.022 96.18 224.642 94.78 224.642 92.92ZM227.105 96H229.385V89.84C229.385 87.82 230.485 86.78 232.165 86.78C233.825 86.78 234.925 87.82 234.925 89.84V96H237.185V89.5C237.185 86.42 235.265 84.8 232.805 84.8C231.385 84.8 230.145 85.34 229.385 86.26V81.2H227.105V96Z" fill="#212832"/>
<rect x="0.5" y="66.5" width="616" height="49" stroke="black" stroke-opacity="0.5"/>
<rect y="294" width="617" height="50" fill="white"/>
<path d="M24.6 319.94C26.08 319.94 27.24 318.8 27.24 317.34C27.24 315.86 26.08 314.72 24.6 314.72C23.16 314.72 22 315.86 22 317.34C22 318.8 23.16 319.94 24.6 319.94ZM46.4089 320.12C46.4089 321.28 45.8289 322.12 44.6089 322.12C43.3889 322.12 42.8289 321.28 42.8089 320.12H40.5089C40.5089 322.64 42.2089 324.14 44.6089 324.14C47.0089 324.14 48.7089 322.64 48.7089 320.12V310.1H46.4089V320.12ZM51.658 318.44C51.658 321.84 53.958 324.18 56.818 324.18C58.658 324.18 59.978 323.3 60.678 322.36V324H62.978V312.98H60.678V314.58C59.998 313.68 58.718 312.8 56.858 312.8C53.958 312.8 51.658 315.04 51.658 318.44ZM60.678 318.48C60.678 320.86 59.058 322.2 57.338 322.2C55.638 322.2 53.998 320.82 53.998 318.44C53.998 316.06 55.638 314.78 57.338 314.78C59.058 314.78 60.678 316.12 60.678 318.48ZM64.6727 312.98L68.8527 324H71.5727L75.7727 312.98H73.3527L70.2327 321.96L67.1127 312.98H64.6727ZM76.7361 318.44C76.7361 321.84 79.0361 324.18 81.8961 324.18C83.7361 324.18 85.0561 323.3 85.7561 322.36V324H88.0561V312.98H85.7561V314.58C85.0761 313.68 83.7961 312.8 81.9361 312.8C79.0361 312.8 76.7361 315.04 76.7361 318.44ZM85.7561 318.48C85.7561 320.86 84.1361 322.2 82.4161 322.2C80.7161 322.2 79.0761 320.82 79.0761 318.44C79.0761 316.06 80.7161 314.78 82.4161 314.78C84.1361 314.78 85.7561 316.12 85.7561 318.48ZM98.5261 316.5V311.96H101.046C102.826 311.96 103.626 312.8 103.626 314.24C103.626 315.64 102.826 316.5 101.046 316.5H98.5261ZM105.966 314.24C105.966 311.98 104.346 310.1 101.046 310.1H96.2461V324H98.5261V318.36H101.046C104.666 318.36 105.966 316.22 105.966 314.24ZM110.421 318.2C110.421 315.86 111.461 315.16 113.141 315.16H113.721V312.8C112.161 312.8 111.061 313.48 110.421 314.58V312.98H108.141V324H110.421V318.2ZM126.316 318.48C126.316 315.02 123.836 312.8 120.696 312.8C117.556 312.8 115.076 315.02 115.076 318.48C115.076 321.94 117.456 324.18 120.596 324.18C123.756 324.18 126.316 321.94 126.316 318.48ZM117.396 318.48C117.396 315.98 118.936 314.78 120.656 314.78C122.356 314.78 123.976 315.98 123.976 318.48C123.976 320.98 122.296 322.2 120.596 322.2C118.876 322.2 117.396 320.98 117.396 318.48ZM127.81 318.44C127.81 321.84 130.11 324.18 133.01 324.18C134.81 324.18 136.13 323.28 136.83 322.34V324.18C136.83 326.38 135.51 327.46 133.75 327.46C132.17 327.46 130.95 326.68 130.61 325.54H128.35C128.63 327.98 130.81 329.44 133.75 329.44C137.19 329.44 139.13 327.18 139.13 324.18V312.98H136.83V314.58C136.15 313.64 134.81 312.8 133.01 312.8C130.11 312.8 127.81 315.04 127.81 318.44ZM136.83 318.48C136.83 320.86 135.21 322.2 133.49 322.2C131.79 322.2 130.15 320.82 130.15 318.44C130.15 316.06 131.79 314.78 133.49 314.78C135.21 314.78 136.83 316.12 136.83 318.48ZM144.405 318.2C144.405 315.86 145.445 315.16 147.125 315.16H147.705V312.8C146.145 312.8 145.045 313.48 144.405 314.58V312.98H142.125V324H144.405V318.2ZM149.041 318.44C149.041 321.84 151.341 324.18 154.201 324.18C156.041 324.18 157.361 323.3 158.061 322.36V324H160.361V312.98H158.061V314.58C157.381 313.68 156.101 312.8 154.241 312.8C151.341 312.8 149.041 315.04 149.041 318.44ZM158.061 318.48C158.061 320.86 156.441 322.2 154.721 322.2C153.021 322.2 151.381 320.82 151.381 318.44C151.381 316.06 153.021 314.78 154.721 314.78C156.441 314.78 158.061 316.12 158.061 318.48ZM178.975 324H181.235V317.5C181.235 314.42 179.275 312.8 176.695 312.8C175.095 312.8 173.535 313.64 172.855 314.98C172.095 313.54 170.635 312.8 168.895 312.8C167.575 312.8 166.375 313.34 165.635 314.24V312.98H163.355V324H165.635V317.84C165.635 315.82 166.735 314.78 168.415 314.78C170.075 314.78 171.175 315.82 171.175 317.84V324H173.435V317.84C173.435 315.82 174.535 314.78 176.215 314.78C177.875 314.78 178.975 315.82 178.975 317.84V324ZM199.757 324H202.017V317.5C202.017 314.42 200.057 312.8 197.477 312.8C195.877 312.8 194.317 313.64 193.637 314.98C192.877 313.54 191.417 312.8 189.677 312.8C188.357 312.8 187.157 313.34 186.417 314.24V312.98H184.137V324H186.417V317.84C186.417 315.82 187.517 314.78 189.197 314.78C190.857 314.78 191.957 315.82 191.957 317.84V324H194.217V317.84C194.217 315.82 195.317 314.78 196.997 314.78C198.657 314.78 199.757 315.82 199.757 317.84V324ZM204.918 324H207.198V312.98H204.918V324ZM206.078 311.52C206.878 311.52 207.518 310.88 207.518 310.06C207.518 309.24 206.878 308.6 206.078 308.6C205.258 308.6 204.618 309.24 204.618 310.06C204.618 310.88 205.258 311.52 206.078 311.52ZM218.011 324H220.271V317.5C220.271 314.42 218.331 312.8 215.751 312.8C214.431 312.8 213.211 313.34 212.471 314.24V312.98H210.191V324H212.471V317.84C212.471 315.82 213.571 314.78 215.251 314.78C216.911 314.78 218.011 315.82 218.011 317.84V324ZM222.42 318.44C222.42 321.84 224.72 324.18 227.62 324.18C229.42 324.18 230.74 323.28 231.44 322.34V324.18C231.44 326.38 230.12 327.46 228.36 327.46C226.78 327.46 225.56 326.68 225.22 325.54H222.96C223.24 327.98 225.42 329.44 228.36 329.44C231.8 329.44 233.74 327.18 233.74 324.18V312.98H231.44V314.58C230.76 313.64 229.42 312.8 227.62 312.8C224.72 312.8 222.42 315.04 222.42 318.44ZM231.44 318.48C231.44 320.86 229.82 322.2 228.1 322.2C226.4 322.2 224.76 320.82 224.76 318.44C224.76 316.06 226.4 314.78 228.1 314.78C229.82 314.78 231.44 316.12 231.44 318.48ZM241.93 310.1V324H248.91V322.16H244.21V310.1H241.93ZM250.056 318.44C250.056 321.84 252.356 324.18 255.216 324.18C257.056 324.18 258.376 323.3 259.076 322.36V324H261.376V312.98H259.076V314.58C258.396 313.68 257.116 312.8 255.256 312.8C252.356 312.8 250.056 315.04 250.056 318.44ZM259.076 318.48C259.076 320.86 257.456 322.2 255.736 322.2C254.036 322.2 252.396 320.82 252.396 318.44C252.396 316.06 254.036 314.78 255.736 314.78C257.456 314.78 259.076 316.12 259.076 318.48ZM266.651 314.62V309.2H264.371V324H266.651V322.4C267.371 323.36 268.671 324.18 270.491 324.18C273.391 324.18 275.671 321.84 275.671 318.44C275.671 315.04 273.411 312.8 270.491 312.8C268.751 312.8 267.371 313.62 266.651 314.62ZM273.351 318.44C273.351 320.82 271.711 322.2 269.991 322.2C268.291 322.2 266.651 320.86 266.651 318.48C266.651 316.12 268.291 314.78 269.991 314.78C271.711 314.78 273.351 316.06 273.351 318.44Z" fill="#212832"/>
<rect x="0.5" y="294.5" width="616" height="49" stroke="black" stroke-opacity="0.5"/>
<rect y="180" width="617" height="50" fill="white"/>
<path d="M24.6 205.94C26.08 205.94 27.24 204.8 27.24 203.34C27.24 201.86 26.08 200.72 24.6 200.72C23.16 200.72 22 201.86 22 203.34C22 204.8 23.16 205.94 24.6 205.94ZM40.3689 203.02C40.3689 207.2 43.5489 210.12 47.4689 210.12C50.3689 210.12 52.8689 208.68 53.9289 205.96H51.1889C50.4489 207.44 49.1289 208.14 47.4689 208.14C44.7089 208.14 42.7089 206.16 42.7089 203.02C42.7089 199.88 44.7089 197.92 47.4689 197.92C49.1289 197.92 50.4489 198.62 51.1889 200.1H53.9289C52.8689 197.38 50.3689 195.92 47.4689 195.92C43.5489 195.92 40.3689 198.86 40.3689 203.02ZM67.0977 204.48C67.0977 201.02 64.6177 198.8 61.4777 198.8C58.3377 198.8 55.8577 201.02 55.8577 204.48C55.8577 207.94 58.2377 210.18 61.3777 210.18C64.5377 210.18 67.0977 207.94 67.0977 204.48ZM58.1777 204.48C58.1777 201.98 59.7177 200.78 61.4377 200.78C63.1377 200.78 64.7577 201.98 64.7577 204.48C64.7577 206.98 63.0777 208.2 61.3777 208.2C59.6577 208.2 58.1777 206.98 58.1777 204.48ZM84.9716 210H87.2316V203.5C87.2316 200.42 85.2716 198.8 82.6916 198.8C81.0916 198.8 79.5316 199.64 78.8516 200.98C78.0916 199.54 76.6316 198.8 74.8916 198.8C73.5716 198.8 72.3716 199.34 71.6316 200.24V198.98H69.3516V210H71.6316V203.84C71.6316 201.82 72.7316 200.78 74.4116 200.78C76.0716 200.78 77.1716 201.82 77.1716 203.84V210H79.4316V203.84C79.4316 201.82 80.5316 200.78 82.2116 200.78C83.8716 200.78 84.9716 201.82 84.9716 203.84V210ZM92.4128 200.6V198.98H90.1328V215.24H92.4128V208.4C93.1328 209.26 94.4328 210.18 96.2528 210.18C99.1528 210.18 101.433 207.84 101.433 204.44C101.433 201.04 99.1528 198.8 96.2528 198.8C94.4528 198.8 93.1128 199.68 92.4128 200.6ZM99.1128 204.44C99.1128 206.82 97.4728 208.2 95.7528 208.2C94.0528 208.2 92.4128 206.86 92.4128 204.48C92.4128 202.12 94.0528 200.78 95.7528 200.78C97.4728 200.78 99.1128 202.06 99.1128 204.44ZM113.668 198.98H111.388V205.12C111.388 207.14 110.288 208.18 108.608 208.18C106.948 208.18 105.848 207.14 105.848 205.12V198.98H103.588V205.46C103.588 208.54 105.548 210.16 108.128 210.16C109.428 210.16 110.668 209.62 111.388 208.68V210H113.668V198.98ZM117.036 206.94C117.036 209.18 118.256 210 120.216 210H122.016V208.1H120.616C119.656 208.1 119.336 207.76 119.336 206.94V200.84H122.016V198.98H119.336V196.24H117.036V198.98H115.736V200.84H117.036V206.94ZM128.757 200.72C130.457 200.72 131.797 201.8 131.837 203.5H125.737C125.977 201.76 127.217 200.72 128.757 200.72ZM133.917 206.72H131.457C131.037 207.58 130.257 208.26 128.857 208.26C127.177 208.26 125.877 207.16 125.717 205.34H134.137C134.197 204.96 134.217 204.6 134.217 204.22C134.217 200.98 131.997 198.8 128.857 198.8C125.597 198.8 123.357 201.02 123.357 204.48C123.357 207.94 125.697 210.18 128.857 210.18C131.557 210.18 133.297 208.64 133.917 206.72ZM138.741 204.2C138.741 201.86 139.781 201.16 141.461 201.16H142.041V198.8C140.481 198.8 139.381 199.48 138.741 200.58V198.98H136.461V210H138.741V204.2ZM158.472 196.08V206.44L151.612 196.08H149.332V210H151.612V199.62L158.472 210H160.752V196.08H158.472ZM168.386 200.72C170.086 200.72 171.426 201.8 171.466 203.5H165.366C165.606 201.76 166.846 200.72 168.386 200.72ZM173.546 206.72H171.086C170.666 207.58 169.886 208.26 168.486 208.26C166.806 208.26 165.506 207.16 165.346 205.34H173.766C173.826 204.96 173.846 204.6 173.846 204.22C173.846 200.98 171.626 198.8 168.486 198.8C165.226 198.8 162.986 201.02 162.986 204.48C162.986 207.94 165.326 210.18 168.486 210.18C171.186 210.18 172.926 208.64 173.546 206.72ZM176.45 206.94C176.45 209.18 177.67 210 179.63 210H181.43V208.1H180.03C179.07 208.1 178.75 207.76 178.75 206.94V200.84H181.43V198.98H178.75V196.24H176.45V198.98H175.15V200.84H176.45V206.94ZM185.671 210H188.071L190.291 201.86L192.511 210H194.911L198.331 198.98H196.091L193.811 207.8L191.571 198.98H189.191L186.851 207.84L184.551 198.98H182.231L185.671 210ZM210.535 204.48C210.535 201.02 208.055 198.8 204.915 198.8C201.775 198.8 199.295 201.02 199.295 204.48C199.295 207.94 201.675 210.18 204.815 210.18C207.975 210.18 210.535 207.94 210.535 204.48ZM201.615 204.48C201.615 201.98 203.155 200.78 204.875 200.78C206.575 200.78 208.195 201.98 208.195 204.48C208.195 206.98 206.515 208.2 204.815 208.2C203.095 208.2 201.615 206.98 201.615 204.48ZM215.069 204.2C215.069 201.86 216.109 201.16 217.789 201.16H218.369V198.8C216.809 198.8 215.709 199.48 215.069 200.58V198.98H212.789V210H215.069V204.2ZM220.465 210H222.745V205.26L226.825 210H229.905L224.825 204.5L229.905 198.98H226.745L222.745 203.8V195.2H220.465V210ZM239.759 206.92C239.639 202.94 233.419 204.18 233.419 201.96C233.419 201.22 234.059 200.72 235.279 200.72C236.519 200.72 237.259 201.38 237.339 202.34H239.619C239.499 200.14 237.859 198.8 235.359 198.8C232.759 198.8 231.119 200.22 231.119 201.98C231.119 206.02 237.519 204.78 237.519 206.94C237.519 207.7 236.819 208.26 235.499 208.26C234.239 208.26 233.379 207.52 233.299 206.62H230.939C231.039 208.62 232.899 210.18 235.539 210.18C238.139 210.18 239.759 208.78 239.759 206.92Z" fill="#212832"/>
<rect x="0.5" y="180.5" width="616" height="49" stroke="black" stroke-opacity="0.5"/>
<rect y="408" width="617" height="50" fill="white"/>
<path d="M24.6 433.94C26.08 433.94 27.24 432.8 27.24 431.34C27.24 429.86 26.08 428.72 24.6 428.72C23.16 428.72 22 429.86 22 431.34C22 432.8 23.16 433.94 24.6 433.94ZM43.9489 438.02L46.5089 438L49.6089 427.48L52.5289 438H55.1089L59.2289 424.1H56.7889L53.8889 435.36L50.9889 424.1H48.4289L45.3089 435.42L42.4289 424.1H40.0089L43.9489 438.02ZM65.7494 428.72C67.4494 428.72 68.7894 429.8 68.8294 431.5H62.7294C62.9694 429.76 64.2094 428.72 65.7494 428.72ZM70.9094 434.72H68.4494C68.0294 435.58 67.2494 436.26 65.8494 436.26C64.1694 436.26 62.8694 435.16 62.7094 433.34H71.1294C71.1894 432.96 71.2094 432.6 71.2094 432.22C71.2094 428.98 68.9894 426.8 65.8494 426.8C62.5894 426.8 60.3494 429.02 60.3494 432.48C60.3494 435.94 62.6894 438.18 65.8494 438.18C68.5494 438.18 70.2894 436.64 70.9094 434.72ZM75.7331 428.62V423.2H73.4531V438H75.7331V436.4C76.4531 437.36 77.7531 438.18 79.5731 438.18C82.4731 438.18 84.7531 435.84 84.7531 432.44C84.7531 429.04 82.4931 426.8 79.5731 426.8C77.8331 426.8 76.4531 427.62 75.7331 428.62ZM82.4331 432.44C82.4331 434.82 80.7931 436.2 79.0731 436.2C77.3731 436.2 75.7331 434.86 75.7331 432.48C75.7331 430.12 77.3731 428.78 79.0731 428.78C80.7931 428.78 82.4331 430.06 82.4331 432.44ZM91.4831 425.96H95.2031V438H97.4831V425.96H101.183V424.1H91.4831V425.96ZM108.132 428.72C109.832 428.72 111.172 429.8 111.212 431.5H105.112C105.352 429.76 106.592 428.72 108.132 428.72ZM113.292 434.72H110.832C110.412 435.58 109.632 436.26 108.232 436.26C106.552 436.26 105.252 435.16 105.092 433.34H113.512C113.572 432.96 113.592 432.6 113.592 432.22C113.592 428.98 111.372 426.8 108.232 426.8C104.972 426.8 102.732 429.02 102.732 432.48C102.732 435.94 105.072 438.18 108.232 438.18C110.932 438.18 112.672 436.64 113.292 434.72ZM115.076 432.48C115.076 435.94 117.316 438.18 120.476 438.18C123.176 438.18 124.936 436.68 125.556 434.52H123.096C122.676 435.66 121.836 436.26 120.476 436.26C118.636 436.26 117.416 434.9 117.416 432.48C117.416 430.08 118.636 428.72 120.476 428.72C121.836 428.72 122.716 429.4 123.096 430.46H125.556C124.936 428.14 123.176 426.8 120.476 426.8C117.316 426.8 115.076 429.04 115.076 432.48ZM127.828 438H130.108V431.84C130.108 429.82 131.208 428.78 132.888 428.78C134.548 428.78 135.648 429.82 135.648 431.84V438H137.908V431.5C137.908 428.42 135.988 426.8 133.528 426.8C132.108 426.8 130.868 427.34 130.108 428.26V423.2H127.828V438ZM148.636 438H150.896V431.5C150.896 428.42 148.956 426.8 146.376 426.8C145.056 426.8 143.836 427.34 143.096 428.24V426.98H140.816V438H143.096V431.84C143.096 429.82 144.196 428.78 145.876 428.78C147.536 428.78 148.636 429.82 148.636 431.84V438ZM164.305 432.48C164.305 429.02 161.825 426.8 158.685 426.8C155.545 426.8 153.065 429.02 153.065 432.48C153.065 435.94 155.445 438.18 158.585 438.18C161.745 438.18 164.305 435.94 164.305 432.48ZM155.385 432.48C155.385 429.98 156.925 428.78 158.645 428.78C160.345 428.78 161.965 429.98 161.965 432.48C161.965 434.98 160.285 436.2 158.585 436.2C156.865 436.2 155.385 434.98 155.385 432.48ZM166.559 438H168.839V423.2H166.559V438ZM182.332 432.48C182.332 429.02 179.852 426.8 176.712 426.8C173.572 426.8 171.092 429.02 171.092 432.48C171.092 435.94 173.472 438.18 176.612 438.18C179.772 438.18 182.332 435.94 182.332 432.48ZM173.412 432.48C173.412 429.98 174.952 428.78 176.672 428.78C178.372 428.78 179.992 429.98 179.992 432.48C179.992 434.98 178.312 436.2 176.612 436.2C174.892 436.2 173.412 434.98 173.412 432.48ZM183.826 432.44C183.826 435.84 186.126 438.18 189.026 438.18C190.826 438.18 192.146 437.28 192.846 436.34V438.18C192.846 440.38 191.526 441.46 189.766 441.46C188.186 441.46 186.966 440.68 186.626 439.54H184.366C184.646 441.98 186.826 443.44 189.766 443.44C193.206 443.44 195.146 441.18 195.146 438.18V426.98H192.846V428.58C192.166 427.64 190.826 426.8 189.026 426.8C186.126 426.8 183.826 429.04 183.826 432.44ZM192.846 432.48C192.846 434.86 191.226 436.2 189.506 436.2C187.806 436.2 186.166 434.82 186.166 432.44C186.166 430.06 187.806 428.78 189.506 428.78C191.226 428.78 192.846 430.12 192.846 432.48ZM202.481 435.38L199.381 426.98H196.841L201.181 437.82L198.941 443.18H201.301L208.061 426.98H205.701L202.481 435.38ZM214.977 424.1V438H221.957V436.16H217.257V424.1H214.977ZM223.103 432.44C223.103 435.84 225.403 438.18 228.263 438.18C230.103 438.18 231.423 437.3 232.123 436.36V438H234.423V426.98H232.123V428.58C231.443 427.68 230.163 426.8 228.303 426.8C225.403 426.8 223.103 429.04 223.103 432.44ZM232.123 432.48C232.123 434.86 230.503 436.2 228.783 436.2C227.083 436.2 225.443 434.82 225.443 432.44C225.443 430.06 227.083 428.78 228.783 428.78C230.503 428.78 232.123 430.12 232.123 432.48ZM239.698 428.62V423.2H237.418V438H239.698V436.4C240.418 437.36 241.718 438.18 243.538 438.18C246.438 438.18 248.718 435.84 248.718 432.44C248.718 429.04 246.458 426.8 243.538 426.8C241.798 426.8 240.418 427.62 239.698 428.62ZM246.398 432.44C246.398 434.82 244.758 436.2 243.038 436.2C241.338 436.2 239.698 434.86 239.698 432.48C239.698 430.12 241.338 428.78 243.038 428.78C244.758 428.78 246.398 430.06 246.398 432.44Z" fill="#212832"/>
<rect x="0.5" y="408.5" width="616" height="49" stroke="black" stroke-opacity="0.5"/>
<rect y="123" width="617" height="50" fill="white"/>
<path d="M24.6 148.94C26.08 148.94 27.24 147.8 27.24 146.34C27.24 144.86 26.08 143.72 24.6 143.72C23.16 143.72 22 144.86 22 146.34C22 147.8 23.16 148.94 24.6 148.94ZM41.1289 153H43.4089V146.92H48.0089V145.06H43.4089V140.96H49.3089V139.1H41.1289V153ZM51.4219 153H53.7019V141.98H51.4219V153ZM52.5819 140.52C53.3819 140.52 54.0219 139.88 54.0219 139.06C54.0219 138.24 53.3819 137.6 52.5819 137.6C51.7619 137.6 51.1219 138.24 51.1219 139.06C51.1219 139.88 51.7619 140.52 52.5819 140.52ZM64.5153 153H66.7753V146.5C66.7753 143.42 64.8353 141.8 62.2553 141.8C60.9353 141.8 59.7153 142.34 58.9753 143.24V141.98H56.6953V153H58.9753V146.84C58.9753 144.82 60.0753 143.78 61.7553 143.78C63.4153 143.78 64.5153 144.82 64.5153 146.84V153ZM68.9236 147.44C68.9236 150.84 71.2236 153.18 74.0836 153.18C75.9236 153.18 77.2436 152.3 77.9436 151.36V153H80.2436V141.98H77.9436V143.58C77.2636 142.68 75.9836 141.8 74.1236 141.8C71.2236 141.8 68.9236 144.04 68.9236 147.44ZM77.9436 147.48C77.9436 149.86 76.3236 151.2 74.6036 151.2C72.9036 151.2 71.2636 149.82 71.2636 147.44C71.2636 145.06 72.9036 143.78 74.6036 143.78C76.3236 143.78 77.9436 145.12 77.9436 147.48ZM91.0583 153H93.3183V146.5C93.3183 143.42 91.3783 141.8 88.7983 141.8C87.4783 141.8 86.2583 142.34 85.5183 143.24V141.98H83.2383V153H85.5183V146.84C85.5183 144.82 86.6183 143.78 88.2983 143.78C89.9583 143.78 91.0583 144.82 91.0583 146.84V153ZM95.4666 147.48C95.4666 150.94 97.7066 153.18 100.867 153.18C103.567 153.18 105.327 151.68 105.947 149.52H103.487C103.067 150.66 102.227 151.26 100.867 151.26C99.0266 151.26 97.8066 149.9 97.8066 147.48C97.8066 145.08 99.0266 143.72 100.867 143.72C102.227 143.72 103.107 144.4 103.487 145.46H105.947C105.327 143.14 103.567 141.8 100.867 141.8C97.7066 141.8 95.4666 144.04 95.4666 147.48ZM108.219 153H110.499V141.98H108.219V153ZM109.379 140.52C110.179 140.52 110.819 139.88 110.819 139.06C110.819 138.24 110.179 137.6 109.379 137.6C108.559 137.6 107.919 138.24 107.919 139.06C107.919 139.88 108.559 140.52 109.379 140.52ZM112.732 147.44C112.732 150.84 115.032 153.18 117.892 153.18C119.732 153.18 121.052 152.3 121.752 151.36V153H124.052V141.98H121.752V143.58C121.072 142.68 119.792 141.8 117.932 141.8C115.032 141.8 112.732 144.04 112.732 147.44ZM121.752 147.48C121.752 149.86 120.132 151.2 118.412 151.2C116.712 151.2 115.072 149.82 115.072 147.44C115.072 145.06 116.712 143.78 118.412 143.78C120.132 143.78 121.752 145.12 121.752 147.48ZM127.047 153H129.327V138.2H127.047V153ZM137.516 153H139.796V143.48L144.056 153H145.636L149.876 143.48V153H152.156V139.1H149.716L144.856 150L139.976 139.1H137.516V153ZM154.392 147.44C154.392 150.84 156.692 153.18 159.552 153.18C161.392 153.18 162.712 152.3 163.412 151.36V153H165.712V141.98H163.412V143.58C162.732 142.68 161.452 141.8 159.592 141.8C156.692 141.8 154.392 144.04 154.392 147.44ZM163.412 147.48C163.412 149.86 161.792 151.2 160.072 151.2C158.372 151.2 156.732 149.82 156.732 147.44C156.732 145.06 158.372 143.78 160.072 143.78C161.792 143.78 163.412 145.12 163.412 147.48ZM176.527 153H178.787V146.5C178.787 143.42 176.847 141.8 174.267 141.8C172.947 141.8 171.727 142.34 170.987 143.24V141.98H168.707V153H170.987V146.84C170.987 144.82 172.087 143.78 173.767 143.78C175.427 143.78 176.527 144.82 176.527 146.84V153ZM180.935 147.44C180.935 150.84 183.235 153.18 186.095 153.18C187.935 153.18 189.255 152.3 189.955 151.36V153H192.255V141.98H189.955V143.58C189.275 142.68 187.995 141.8 186.135 141.8C183.235 141.8 180.935 144.04 180.935 147.44ZM189.955 147.48C189.955 149.86 188.335 151.2 186.615 151.2C184.915 151.2 183.275 149.82 183.275 147.44C183.275 145.06 184.915 143.78 186.615 143.78C188.335 143.78 189.955 145.12 189.955 147.48ZM194.49 147.44C194.49 150.84 196.79 153.18 199.69 153.18C201.49 153.18 202.81 152.28 203.51 151.34V153.18C203.51 155.38 202.19 156.46 200.43 156.46C198.85 156.46 197.63 155.68 197.29 154.54H195.03C195.31 156.98 197.49 158.44 200.43 158.44C203.87 158.44 205.81 156.18 205.81 153.18V141.98H203.51V143.58C202.83 142.64 201.49 141.8 199.69 141.8C196.79 141.8 194.49 144.04 194.49 147.44ZM203.51 147.48C203.51 149.86 201.89 151.2 200.17 151.2C198.47 151.2 196.83 149.82 196.83 147.44C196.83 145.06 198.47 143.78 200.17 143.78C201.89 143.78 203.51 145.12 203.51 147.48ZM213.445 143.72C215.145 143.72 216.485 144.8 216.525 146.5H210.425C210.665 144.76 211.905 143.72 213.445 143.72ZM218.605 149.72H216.145C215.725 150.58 214.945 151.26 213.545 151.26C211.865 151.26 210.565 150.16 210.405 148.34H218.825C218.885 147.96 218.905 147.6 218.905 147.22C218.905 143.98 216.685 141.8 213.545 141.8C210.285 141.8 208.045 144.02 208.045 147.48C208.045 150.94 210.385 153.18 213.545 153.18C216.245 153.18 217.985 151.64 218.605 149.72ZM236.768 153H239.028V146.5C239.028 143.42 237.068 141.8 234.488 141.8C232.888 141.8 231.328 142.64 230.648 143.98C229.888 142.54 228.428 141.8 226.688 141.8C225.368 141.8 224.168 142.34 223.428 143.24V141.98H221.148V153H223.428V146.84C223.428 144.82 224.528 143.78 226.208 143.78C227.868 143.78 228.968 144.82 228.968 146.84V153H231.228V146.84C231.228 144.82 232.328 143.78 234.008 143.78C235.668 143.78 236.768 144.82 236.768 146.84V153ZM246.57 143.72C248.27 143.72 249.61 144.8 249.65 146.5H243.55C243.79 144.76 245.03 143.72 246.57 143.72ZM251.73 149.72H249.27C248.85 150.58 248.07 151.26 246.67 151.26C244.99 151.26 243.69 150.16 243.53 148.34H251.95C252.01 147.96 252.03 147.6 252.03 147.22C252.03 143.98 249.81 141.8 246.67 141.8C243.41 141.8 241.17 144.02 241.17 147.48C241.17 150.94 243.51 153.18 246.67 153.18C249.37 153.18 251.11 151.64 251.73 149.72ZM262.093 153H264.353V146.5C264.353 143.42 262.413 141.8 259.833 141.8C258.513 141.8 257.293 142.34 256.553 143.24V141.98H254.273V153H256.553V146.84C256.553 144.82 257.653 143.78 259.333 143.78C260.993 143.78 262.093 144.82 262.093 146.84V153ZM267.622 149.94C267.622 152.18 268.842 153 270.802 153H272.602V151.1H271.202C270.242 151.1 269.922 150.76 269.922 149.94V143.84H272.602V141.98H269.922V139.24H267.622V141.98H266.322V143.84H267.622V149.94Z" fill="#212832"/>
<rect x="0.5" y="123.5" width="616" height="49" stroke="black" stroke-opacity="0.5"/>
<rect y="351" width="617" height="50" fill="white"/>
<path d="M24.6 376.94C26.08 376.94 27.24 375.8 27.24 374.34C27.24 372.86 26.08 371.72 24.6 371.72C23.16 371.72 22 372.86 22 374.34C22 375.8 23.16 376.94 24.6 376.94ZM45.6689 367.1H41.1289V381H45.6689C50.1289 381 53.0489 378.38 53.0489 374.1C53.0489 369.8 50.1289 367.1 45.6689 367.1ZM43.4089 379.14V368.96H45.6689C48.9489 368.96 50.7089 370.92 50.7089 374.1C50.7089 377.26 48.9489 379.14 45.6689 379.14H43.4089ZM63.1486 377.02C63.1486 378.36 62.2086 379.14 60.6686 379.14H57.5886V374.8H60.5886C62.1086 374.8 63.1486 375.64 63.1486 377.02ZM62.7886 370.96C62.7886 372.24 61.8886 372.94 60.4086 372.94H57.5886V368.96H60.4086C61.8886 368.96 62.7886 369.7 62.7886 370.96ZM65.4286 377.26C65.4286 375.6 64.2286 374.12 62.7486 373.86C64.0886 373.38 65.1086 372.36 65.1086 370.68C65.1086 368.72 63.5486 367.1 60.6086 367.1H55.3086V381H60.8686C63.7086 381 65.4286 379.38 65.4286 377.26ZM67.9063 381H70.1863V371.48L74.4463 381H76.0263L80.2663 371.48V381H82.5463V367.1H80.1063L75.2463 378L70.3663 367.1H67.9063V381ZM94.923 377.06C94.923 371.98 87.563 373.94 87.563 370.8C87.563 369.46 88.583 368.82 89.903 368.86C91.343 368.9 92.163 369.76 92.243 370.7H94.763C94.563 368.32 92.683 366.92 90.023 366.92C87.183 366.92 85.243 368.44 85.243 370.88C85.243 376 92.623 373.82 92.623 377.18C92.623 378.36 91.723 379.22 90.123 379.22C88.543 379.22 87.743 378.3 87.643 377.16H85.203C85.203 379.62 87.343 381.14 90.123 381.14C93.223 381.14 94.923 379.14 94.923 377.06ZM105.089 373.5V368.96H107.609C109.389 368.96 110.189 369.8 110.189 371.24C110.189 372.64 109.389 373.5 107.609 373.5H105.089ZM112.529 371.24C112.529 368.98 110.909 367.1 107.609 367.1H102.809V381H105.089V375.36H107.609C111.229 375.36 112.529 373.22 112.529 371.24ZM116.983 375.2C116.983 372.86 118.023 372.16 119.703 372.16H120.283V369.8C118.723 369.8 117.623 370.48 116.983 371.58V369.98H114.703V381H116.983V375.2ZM132.879 375.48C132.879 372.02 130.399 369.8 127.259 369.8C124.119 369.8 121.639 372.02 121.639 375.48C121.639 378.94 124.019 381.18 127.159 381.18C130.319 381.18 132.879 378.94 132.879 375.48ZM123.959 375.48C123.959 372.98 125.499 371.78 127.219 371.78C128.919 371.78 130.539 372.98 130.539 375.48C130.539 377.98 128.859 379.2 127.159 379.2C125.439 379.2 123.959 377.98 123.959 375.48ZM136.293 368.52C137.093 368.52 137.733 367.88 137.733 367.06C137.733 366.24 137.093 365.6 136.293 365.6C135.473 365.6 134.833 366.24 134.833 367.06C134.833 367.88 135.473 368.52 136.293 368.52ZM135.133 369.98V383.16C135.133 383.98 134.813 384.32 133.853 384.32H133.073V386.24H134.253C136.213 386.24 137.413 385.4 137.413 383.16V369.98H135.133ZM145.046 371.72C146.746 371.72 148.086 372.8 148.126 374.5H142.026C142.266 372.76 143.506 371.72 145.046 371.72ZM150.206 377.72H147.746C147.326 378.58 146.546 379.26 145.146 379.26C143.466 379.26 142.166 378.16 142.006 376.34H150.426C150.486 375.96 150.506 375.6 150.506 375.22C150.506 371.98 148.286 369.8 145.146 369.8C141.886 369.8 139.646 372.02 139.646 375.48C139.646 378.94 141.986 381.18 145.146 381.18C147.846 381.18 149.586 379.64 150.206 377.72ZM151.99 375.48C151.99 378.94 154.23 381.18 157.39 381.18C160.09 381.18 161.85 379.68 162.47 377.52H160.01C159.59 378.66 158.75 379.26 157.39 379.26C155.55 379.26 154.33 377.9 154.33 375.48C154.33 373.08 155.55 371.72 157.39 371.72C158.75 371.72 159.63 372.4 160.01 373.46H162.47C161.85 371.14 160.09 369.8 157.39 369.8C154.23 369.8 151.99 372.04 151.99 375.48ZM165.102 377.94C165.102 380.18 166.322 381 168.282 381H170.082V379.1H168.682C167.722 379.1 167.402 378.76 167.402 377.94V371.84H170.082V369.98H167.402V367.24H165.102V369.98H163.802V371.84H165.102V377.94ZM177.379 367.1V381H184.359V379.16H179.659V367.1H177.379ZM185.506 375.44C185.506 378.84 187.806 381.18 190.666 381.18C192.506 381.18 193.826 380.3 194.526 379.36V381H196.826V369.98H194.526V371.58C193.846 370.68 192.566 369.8 190.706 369.8C187.806 369.8 185.506 372.04 185.506 375.44ZM194.526 375.48C194.526 377.86 192.906 379.2 191.186 379.2C189.486 379.2 187.846 377.82 187.846 375.44C187.846 373.06 189.486 371.78 191.186 371.78C192.906 371.78 194.526 373.12 194.526 375.48ZM202.1 371.62V366.2H199.82V381H202.1V379.4C202.82 380.36 204.12 381.18 205.94 381.18C208.84 381.18 211.12 378.84 211.12 375.44C211.12 372.04 208.86 369.8 205.94 369.8C204.2 369.8 202.82 370.62 202.1 371.62ZM208.8 375.44C208.8 377.82 207.16 379.2 205.44 379.2C203.74 379.2 202.1 377.86 202.1 375.48C202.1 373.12 203.74 371.78 205.44 371.78C207.16 371.78 208.8 373.06 208.8 375.44Z" fill="#212832"/>
<rect x="0.5" y="351.5" width="616" height="49" stroke="black" stroke-opacity="0.5"/>
<rect y="237" width="617" height="50" fill="white"/>
<path d="M24.6 262.94C26.08 262.94 27.24 261.8 27.24 260.34C27.24 258.86 26.08 257.72 24.6 257.72C23.16 257.72 22 258.86 22 260.34C22 261.8 23.16 262.94 24.6 262.94ZM43.4089 259.5V254.96H45.9289C47.7089 254.96 48.5089 255.8 48.5089 257.24C48.5089 258.64 47.7089 259.5 45.9289 259.5H43.4089ZM50.8489 257.24C50.8489 254.98 49.2289 253.1 45.9289 253.1H41.1289V267H43.4089V261.36H45.9289C49.5489 261.36 50.8489 259.22 50.8489 257.24ZM55.3034 261.2C55.3034 258.86 56.3434 258.16 58.0234 258.16H58.6034V255.8C57.0434 255.8 55.9434 256.48 55.3034 257.58V255.98H53.0234V267H55.3034V261.2ZM71.1992 261.48C71.1992 258.02 68.7192 255.8 65.5792 255.8C62.4392 255.8 59.9592 258.02 59.9592 261.48C59.9592 264.94 62.3392 267.18 65.4792 267.18C68.6392 267.18 71.1992 264.94 71.1992 261.48ZM62.2792 261.48C62.2792 258.98 63.8192 257.78 65.5392 257.78C67.2392 257.78 68.8592 258.98 68.8592 261.48C68.8592 263.98 67.1792 265.2 65.4792 265.2C63.7592 265.2 62.2792 263.98 62.2792 261.48ZM72.6931 261.44C72.6931 264.84 74.9931 267.18 77.8931 267.18C79.6931 267.18 81.0131 266.28 81.7131 265.34V267.18C81.7131 269.38 80.3931 270.46 78.6331 270.46C77.0531 270.46 75.8331 269.68 75.4931 268.54H73.2331C73.5131 270.98 75.6931 272.44 78.6331 272.44C82.0731 272.44 84.0131 270.18 84.0131 267.18V255.98H81.7131V257.58C81.0331 256.64 79.6931 255.8 77.8931 255.8C74.9931 255.8 72.6931 258.04 72.6931 261.44ZM81.7131 261.48C81.7131 263.86 80.0931 265.2 78.3731 265.2C76.6731 265.2 75.0331 263.82 75.0331 261.44C75.0331 259.06 76.6731 257.78 78.3731 257.78C80.0931 257.78 81.7131 259.12 81.7131 261.48ZM89.2878 261.2C89.2878 258.86 90.3278 258.16 92.0078 258.16H92.5878V255.8C91.0278 255.8 89.9278 256.48 89.2878 257.58V255.98H87.0078V267H89.2878V261.2ZM93.9236 261.44C93.9236 264.84 96.2236 267.18 99.0836 267.18C100.924 267.18 102.244 266.3 102.944 265.36V267H105.244V255.98H102.944V257.58C102.264 256.68 100.984 255.8 99.1236 255.8C96.2236 255.8 93.9236 258.04 93.9236 261.44ZM102.944 261.48C102.944 263.86 101.324 265.2 99.6036 265.2C97.9036 265.2 96.2636 263.82 96.2636 261.44C96.2636 259.06 97.9036 257.78 99.6036 257.78C101.324 257.78 102.944 259.12 102.944 261.48ZM123.858 267H126.118V260.5C126.118 257.42 124.158 255.8 121.578 255.8C119.978 255.8 118.418 256.64 117.738 257.98C116.978 256.54 115.518 255.8 113.778 255.8C112.458 255.8 111.258 256.34 110.518 257.24V255.98H108.238V267H110.518V260.84C110.518 258.82 111.618 257.78 113.298 257.78C114.958 257.78 116.058 258.82 116.058 260.84V267H118.318V260.84C118.318 258.82 119.418 257.78 121.098 257.78C122.758 257.78 123.858 258.82 123.858 260.84V267ZM144.64 267H146.9V260.5C146.9 257.42 144.94 255.8 142.36 255.8C140.76 255.8 139.2 256.64 138.52 257.98C137.76 256.54 136.3 255.8 134.56 255.8C133.24 255.8 132.04 256.34 131.3 257.24V255.98H129.02V267H131.3V260.84C131.3 258.82 132.4 257.78 134.08 257.78C135.74 257.78 136.84 258.82 136.84 260.84V267H139.1V260.84C139.1 258.82 140.2 257.78 141.88 257.78C143.54 257.78 144.64 258.82 144.64 260.84V267ZM149.801 267H152.081V255.98H149.801V267ZM150.961 254.52C151.761 254.52 152.401 253.88 152.401 253.06C152.401 252.24 151.761 251.6 150.961 251.6C150.141 251.6 149.501 252.24 149.501 253.06C149.501 253.88 150.141 254.52 150.961 254.52ZM162.894 267H165.154V260.5C165.154 257.42 163.214 255.8 160.634 255.8C159.314 255.8 158.094 256.34 157.354 257.24V255.98H155.074V267H157.354V260.84C157.354 258.82 158.454 257.78 160.134 257.78C161.794 257.78 162.894 258.82 162.894 260.84V267ZM167.303 261.44C167.303 264.84 169.603 267.18 172.503 267.18C174.303 267.18 175.623 266.28 176.323 265.34V267.18C176.323 269.38 175.003 270.46 173.243 270.46C171.663 270.46 170.443 269.68 170.103 268.54H167.843C168.123 270.98 170.303 272.44 173.243 272.44C176.683 272.44 178.623 270.18 178.623 267.18V255.98H176.323V257.58C175.643 256.64 174.303 255.8 172.503 255.8C169.603 255.8 167.303 258.04 167.303 261.44ZM176.323 261.48C176.323 263.86 174.703 265.2 172.983 265.2C171.283 265.2 169.643 263.82 169.643 261.44C169.643 259.06 171.283 257.78 172.983 257.78C174.703 257.78 176.323 259.12 176.323 261.48ZM186.813 267H189.093V253.1H186.813V267ZM199.906 267H202.166V260.5C202.166 257.42 200.226 255.8 197.646 255.8C196.326 255.8 195.106 256.34 194.366 257.24V255.98H192.086V267H194.366V260.84C194.366 258.82 195.466 257.78 197.146 257.78C198.806 257.78 199.906 258.82 199.906 260.84V267ZM215.55 263.12C215.55 264.28 214.97 265.12 213.75 265.12C212.53 265.12 211.97 264.28 211.95 263.12H209.65C209.65 265.64 211.35 267.14 213.75 267.14C216.15 267.14 217.85 265.64 217.85 263.12V253.1H215.55V263.12ZM220.799 261.44C220.799 264.84 223.099 267.18 225.959 267.18C227.799 267.18 229.119 266.3 229.819 265.36V267H232.119V255.98H229.819V257.58C229.139 256.68 227.859 255.8 225.999 255.8C223.099 255.8 220.799 258.04 220.799 261.44ZM229.819 261.48C229.819 263.86 228.199 265.2 226.479 265.2C224.779 265.2 223.139 263.82 223.139 261.44C223.139 259.06 224.779 257.78 226.479 257.78C228.199 257.78 229.819 259.12 229.819 261.48ZM233.813 255.98L237.993 267H240.713L244.913 255.98H242.493L239.373 264.96L236.253 255.98H233.813ZM245.877 261.44C245.877 264.84 248.177 267.18 251.037 267.18C252.877 267.18 254.197 266.3 254.897 265.36V267H257.197V255.98H254.897V257.58C254.217 256.68 252.937 255.8 251.077 255.8C248.177 255.8 245.877 258.04 245.877 261.44ZM254.897 261.48C254.897 263.86 253.277 265.2 251.557 265.2C249.857 265.2 248.217 263.82 248.217 261.44C248.217 259.06 249.857 257.78 251.557 257.78C253.277 257.78 254.897 259.12 254.897 261.48Z" fill="#212832"/>
<rect x="0.5" y="237.5" width="616" height="49" stroke="black" stroke-opacity="0.5"/>
<rect y="465" width="617" height="50" fill="white"/>
<path d="M24.6 490.94C26.08 490.94 27.24 489.8 27.24 488.34C27.24 486.86 26.08 485.72 24.6 485.72C23.16 485.72 22 486.86 22 488.34C22 489.8 23.16 490.94 24.6 490.94ZM41.1289 481.1V495H48.1089V493.16H43.4089V481.1H41.1289ZM49.2556 489.44C49.2556 492.84 51.5556 495.18 54.4156 495.18C56.2556 495.18 57.5756 494.3 58.2756 493.36V495H60.5756V483.98H58.2756V485.58C57.5956 484.68 56.3156 483.8 54.4556 483.8C51.5556 483.8 49.2556 486.04 49.2556 489.44ZM58.2756 489.48C58.2756 491.86 56.6556 493.2 54.9356 493.2C53.2356 493.2 51.5956 491.82 51.5956 489.44C51.5956 487.06 53.2356 485.78 54.9356 485.78C56.6556 485.78 58.2756 487.12 58.2756 489.48ZM71.3903 495H73.6503V488.5C73.6503 485.42 71.7103 483.8 69.1303 483.8C67.8103 483.8 66.5903 484.34 65.8503 485.24V483.98H63.5703V495H65.8503V488.84C65.8503 486.82 66.9503 485.78 68.6303 485.78C70.2903 485.78 71.3903 486.82 71.3903 488.84V495ZM75.7986 489.44C75.7986 492.84 78.0986 495.18 80.9986 495.18C82.7986 495.18 84.1186 494.28 84.8186 493.34V495.18C84.8186 497.38 83.4986 498.46 81.7386 498.46C80.1586 498.46 78.9386 497.68 78.5986 496.54H76.3386C76.6186 498.98 78.7986 500.44 81.7386 500.44C85.1786 500.44 87.1186 498.18 87.1186 495.18V483.98H84.8186V485.58C84.1386 484.64 82.7986 483.8 80.9986 483.8C78.0986 483.8 75.7986 486.04 75.7986 489.44ZM84.8186 489.48C84.8186 491.86 83.1986 493.2 81.4786 493.2C79.7786 493.2 78.1386 491.82 78.1386 489.44C78.1386 487.06 79.7786 485.78 81.4786 485.78C83.1986 485.78 84.8186 487.12 84.8186 489.48ZM100.093 483.98H97.8133V490.12C97.8133 492.14 96.7133 493.18 95.0333 493.18C93.3733 493.18 92.2733 492.14 92.2733 490.12V483.98H90.0133V490.46C90.0133 493.54 91.9733 495.16 94.5533 495.16C95.8533 495.16 97.0933 494.62 97.8133 493.68V495H100.093V483.98ZM102.342 489.44C102.342 492.84 104.642 495.18 107.502 495.18C109.342 495.18 110.662 494.3 111.362 493.36V495H113.662V483.98H111.362V485.58C110.682 484.68 109.402 483.8 107.542 483.8C104.642 483.8 102.342 486.04 102.342 489.44ZM111.362 489.48C111.362 491.86 109.742 493.2 108.022 493.2C106.322 493.2 104.682 491.82 104.682 489.44C104.682 487.06 106.322 485.78 108.022 485.78C109.742 485.78 111.362 487.12 111.362 489.48ZM115.896 489.44C115.896 492.84 118.196 495.18 121.096 495.18C122.896 495.18 124.216 494.28 124.916 493.34V495.18C124.916 497.38 123.596 498.46 121.836 498.46C120.256 498.46 119.036 497.68 118.696 496.54H116.436C116.716 498.98 118.896 500.44 121.836 500.44C125.276 500.44 127.216 498.18 127.216 495.18V483.98H124.916V485.58C124.236 484.64 122.896 483.8 121.096 483.8C118.196 483.8 115.896 486.04 115.896 489.44ZM124.916 489.48C124.916 491.86 123.296 493.2 121.576 493.2C119.876 493.2 118.236 491.82 118.236 489.44C118.236 487.06 119.876 485.78 121.576 485.78C123.296 485.78 124.916 487.12 124.916 489.48ZM134.851 485.72C136.551 485.72 137.891 486.8 137.931 488.5H131.831C132.071 486.76 133.311 485.72 134.851 485.72ZM140.011 491.72H137.551C137.131 492.58 136.351 493.26 134.951 493.26C133.271 493.26 131.971 492.16 131.811 490.34H140.231C140.291 489.96 140.311 489.6 140.311 489.22C140.311 485.98 138.091 483.8 134.951 483.8C131.691 483.8 129.451 486.02 129.451 489.48C129.451 492.94 131.791 495.18 134.951 495.18C137.651 495.18 139.391 493.64 140.011 491.72ZM147.75 481.1V495H154.73V493.16H150.03V481.1H147.75ZM155.877 489.44C155.877 492.84 158.177 495.18 161.037 495.18C162.877 495.18 164.197 494.3 164.897 493.36V495H167.197V483.98H164.897V485.58C164.217 484.68 162.937 483.8 161.077 483.8C158.177 483.8 155.877 486.04 155.877 489.44ZM164.897 489.48C164.897 491.86 163.277 493.2 161.557 493.2C159.857 493.2 158.217 491.82 158.217 489.44C158.217 487.06 159.857 485.78 161.557 485.78C163.277 485.78 164.897 487.12 164.897 489.48ZM172.471 485.62V480.2H170.191V495H172.471V493.4C173.191 494.36 174.491 495.18 176.311 495.18C179.211 495.18 181.491 492.84 181.491 489.44C181.491 486.04 179.231 483.8 176.311 483.8C174.571 483.8 173.191 484.62 172.471 485.62ZM179.171 489.44C179.171 491.82 177.531 493.2 175.811 493.2C174.111 493.2 172.471 491.86 172.471 489.48C172.471 487.12 174.111 485.78 175.811 485.78C177.531 485.78 179.171 487.06 179.171 489.44Z" fill="#212832"/>
<rect x="0.5" y="465.5" width="616" height="49" stroke="black" stroke-opacity="0.5"/>
<rect y="522" width="617" height="50" fill="white"/>
<path d="M21.74 545.72H29.96V543.8H21.74V545.72ZM33.4392 545.72H41.6592V543.8H33.4392V545.72ZM45.1384 545.72H53.3584V543.8H45.1384V545.72ZM56.8377 545.72H65.0577V543.8H56.8377V545.72Z" fill="#212832"/>
<rect x="0.5" y="522.5" width="616" height="49" stroke="black" stroke-opacity="0.5"/>
<rect width="617" height="58" fill="#3498DB"/>
<path d="M33.925 32.95C33.925 26.8 24.975 28.75 24.975 25.25C24.975 23.825 26 23.15 27.375 23.2C28.875 23.225 29.8 24.125 29.875 25.275H33.725C33.5 22.125 31.05 20.3 27.475 20.3C23.875 20.3 21.325 22.2 21.325 25.35C21.3 31.675 30.3 29.4 30.3 33.175C30.3 34.425 29.325 35.3 27.675 35.3C26.05 35.3 25.125 34.375 25.025 32.975H21.275C21.325 36.275 24.125 38.175 27.75 38.175C31.725 38.175 33.925 35.7 33.925 32.95ZM43.4094 26.8C45.2094 26.8 46.6594 27.95 46.7094 29.775H40.1344C40.4094 27.875 41.7344 26.8 43.4094 26.8ZM49.9844 33.65H46.2094C45.7594 34.575 44.9344 35.325 43.4344 35.325C41.6844 35.325 40.2844 34.175 40.1094 32.125H50.2344C50.3094 31.675 50.3344 31.225 50.3344 30.775C50.3344 26.65 47.5094 23.925 43.5094 23.925C39.4094 23.925 36.5594 26.7 36.5594 31.075C36.5594 35.425 39.4844 38.225 43.5094 38.225C46.9344 38.225 49.2344 36.2 49.9844 33.65ZM72.7641 38H76.2641V29.875C76.2641 26.05 73.9141 23.95 70.5891 23.95C68.5641 23.95 66.7391 25.025 65.8391 26.6C64.8891 24.875 63.1141 23.95 60.9641 23.95C59.2391 23.95 57.7641 24.675 56.8891 25.825V24.15H53.3891V38H56.8891V30.35C56.8891 28.15 58.1141 27 60.0141 27C61.8641 27 63.0891 28.15 63.0891 30.35V38H66.5891V30.35C66.5891 28.15 67.8141 27 69.6891 27C71.5391 27 72.7641 28.15 72.7641 30.35V38ZM86.0354 26.8C87.8354 26.8 89.2854 27.95 89.3354 29.775H82.7604C83.0354 27.875 84.3604 26.8 86.0354 26.8ZM92.6104 33.65H88.8354C88.3854 34.575 87.5604 35.325 86.0604 35.325C84.3104 35.325 82.9104 34.175 82.7354 32.125H92.8604C92.9354 31.675 92.9604 31.225 92.9604 30.775C92.9604 26.65 90.1354 23.925 86.1354 23.925C82.0354 23.925 79.1854 26.7 79.1854 31.075C79.1854 35.425 82.1104 38.225 86.1354 38.225C89.5604 38.225 91.8604 36.2 92.6104 33.65ZM106.765 34.05C106.665 28.975 98.99 30.55 98.99 28.025C98.99 27.225 99.665 26.7 100.965 26.7C102.34 26.7 103.19 27.425 103.29 28.5H106.64C106.44 25.75 104.415 23.925 101.065 23.925C97.64 23.925 95.59 25.775 95.59 28.075C95.59 33.15 103.415 31.575 103.415 34.05C103.415 34.85 102.665 35.475 101.29 35.475C99.89 35.475 98.915 34.675 98.79 33.625H95.265C95.415 36.2 97.84 38.225 101.315 38.225C104.69 38.225 106.765 36.425 106.765 34.05ZM110.688 33.7C110.688 36.875 112.463 38 115.113 38H117.313V35.05H115.688C114.588 35.05 114.213 34.65 114.213 33.725V27.025H117.313V24.15H114.213V20.725H110.688V24.15H109.038V27.025H110.688V33.7ZM126.28 26.8C128.08 26.8 129.53 27.95 129.58 29.775H123.005C123.28 27.875 124.605 26.8 126.28 26.8ZM132.855 33.65H129.08C128.63 34.575 127.805 35.325 126.305 35.325C124.555 35.325 123.155 34.175 122.98 32.125H133.105C133.18 31.675 133.205 31.225 133.205 30.775C133.205 26.65 130.38 23.925 126.38 23.925C122.28 23.925 119.43 26.7 119.43 31.075C119.43 35.425 122.355 38.225 126.38 38.225C129.805 38.225 132.105 36.2 132.855 33.65ZM139.76 31.1C139.76 28.425 141.01 27.625 143.085 27.625H144.01V23.95C142.085 23.95 140.635 24.875 139.76 26.3V24.15H136.26V38H139.76V31.1ZM161.525 38H165.025V34.45H167.225V31.4H165.025V20H160.95L152.775 31.7V34.45H161.525V38ZM156.625 31.4L161.75 23.75V31.4H156.625Z" fill="white"/>
</svg>
