<svg width="396" height="344" viewBox="0 0 396 344" fill="none" xmlns="http://www.w3.org/2000/svg">
<path d="M396 0H0V344H396V0Z" fill="#2BA1AF"/>
<path d="M110.037 53.2959C110.037 55.5024 108.541 56.7366 105.998 56.7366H100.724V49.7057H105.885C108.428 49.7057 110.037 51.052 110.037 53.2959ZM109.401 42.413C109.401 44.5447 107.98 45.6666 105.511 45.6666H100.724V39.1219H105.511C107.98 39.1219 109.401 40.3186 109.401 42.413ZM115.347 53.9317C115.347 50.865 113.253 48.1349 110.298 47.6113C112.841 46.7886 114.749 44.8065 114.749 41.6276C114.749 37.7381 111.72 34.8959 106.259 34.8959H95.4886V61H106.746C112.168 61 115.347 58.0829 115.347 53.9317ZM137.247 61H142.782L133.395 34.8585H127.299L117.912 61H123.409L125.13 56.026H135.527L137.247 61ZM134.105 51.8374H126.551L130.328 40.917L134.105 51.8374ZM167.244 34.5593C159.69 34.5593 153.93 40.0942 153.93 47.9105C153.93 55.7268 159.69 61.2244 167.282 61.2244C174.238 61.2244 178.987 56.3626 180.035 51.052V46.4894H165.898V50.491H174.874C174.088 54.1935 171.508 56.5122 167.469 56.5122C162.607 56.5122 159.316 53.2211 159.316 47.9105C159.316 42.7121 162.569 39.3837 167.244 39.3837C170.012 39.3837 172.181 40.543 173.378 42.7495H179.399C177.716 37.5138 173.078 34.5593 167.244 34.5593ZM192.809 44.2455C195.502 44.2455 197.671 45.9658 197.746 48.6959H187.91C188.321 45.8536 190.303 44.2455 192.809 44.2455ZM202.645 54.4927H196.998C196.325 55.8764 195.09 56.9984 192.846 56.9984C190.229 56.9984 188.134 55.278 187.872 52.2114H203.019C203.131 51.5382 203.168 50.865 203.168 50.1918C203.168 44.0211 198.942 39.9447 192.959 39.9447C186.825 39.9447 182.562 44.0959 182.562 50.6406C182.562 57.148 186.938 61.3366 192.959 61.3366C198.082 61.3366 201.523 58.3073 202.645 54.4927ZM221.501 61H226.736V48.8455C226.736 43.1235 223.296 39.9821 218.471 39.9821C215.816 39.9821 213.572 41.104 212.226 42.8617V40.2812H206.99V61H212.226V49.5561C212.226 46.2276 214.058 44.4325 216.901 44.4325C219.668 44.4325 221.501 46.2276 221.501 49.5561V61ZM240.616 44.2455C243.309 44.2455 245.478 45.9658 245.553 48.6959H235.717C236.128 45.8536 238.111 44.2455 240.616 44.2455ZM250.452 54.4927H244.805C244.132 55.8764 242.898 56.9984 240.654 56.9984C238.036 56.9984 235.941 55.278 235.68 52.2114H250.826C250.938 51.5382 250.976 50.865 250.976 50.1918C250.976 44.0211 246.75 39.9447 240.766 39.9447C234.633 39.9447 230.369 44.0959 230.369 50.6406C230.369 57.148 234.745 61.3366 240.766 61.3366C245.889 61.3366 249.33 58.3073 250.452 54.4927ZM260.033 50.678C260.033 46.6764 261.903 45.4796 265.007 45.4796H266.391V39.9821C263.511 39.9821 261.342 41.3658 260.033 43.4975V40.2812H254.797V61H260.033V50.678ZM268.571 50.5658C268.571 57.0358 272.76 61.3366 277.995 61.3366C281.287 61.3366 283.643 59.7659 284.877 57.9707V61H290.15V40.2812H284.877V43.2357C283.643 41.5154 281.361 39.9447 278.033 39.9447C272.76 39.9447 268.571 44.0959 268.571 50.5658ZM284.877 50.6406C284.877 54.5675 282.259 56.7366 279.379 56.7366C276.574 56.7366 273.919 54.4927 273.919 50.5658C273.919 46.639 276.574 44.5447 279.379 44.5447C282.259 44.5447 284.877 46.7138 284.877 50.6406ZM295.264 61H300.499V33.3251H295.264V61Z" fill="white"/>
<line x1="148" y1="72.5" x2="249" y2="72.5" stroke="white"/>
<path d="M190.755 270.293L151.777 285.954L103.524 165.813L136.48 152.574C139.808 151.242 143.591 152.846 144.938 156.19L190.755 270.293Z" fill="#F4A640"/>
<path d="M176.722 160.884L102.098 174.117L120.705 279.044L195.329 265.811L176.722 160.884Z" fill="#ADCFD8"/>
<path d="M157.879 174.96L124.552 180.87L124.684 181.615L158.011 175.705L157.879 174.96Z" fill="#55769F"/>
<path d="M164.549 171.826L117.218 180.219L117.35 180.964L164.681 172.571L164.549 171.826Z" fill="#55769F"/>
<path d="M171.31 180.693L113.894 190.875L114.026 191.62L171.443 181.438L171.31 180.693Z" fill="#55769F"/>
<path d="M171.961 184.292L114.545 194.473L114.677 195.218L172.094 185.037L171.961 184.292Z" fill="#55769F"/>
<path d="M173.231 191.48L115.814 201.661L115.946 202.406L173.363 192.224L173.231 191.48Z" fill="#55769F"/>
<path d="M173.867 195.081L116.45 205.262L116.583 206.007L173.999 195.826L173.867 195.081Z" fill="#55769F"/>
<path d="M174.503 198.682L117.086 208.864L117.219 209.609L174.635 199.427L174.503 198.682Z" fill="#55769F"/>
<path d="M177.318 214.507L119.901 224.688L120.033 225.433L177.45 215.252L177.318 214.507Z" fill="#55769F"/>
<path d="M177.97 218.246L120.553 228.428L120.685 229.173L178.102 218.991L177.97 218.246Z" fill="#55769F"/>
<path d="M178.634 221.967L121.217 232.148L121.35 232.893L178.766 222.712L178.634 221.967Z" fill="#55769F"/>
<path d="M179.3 225.704L121.884 235.886L122.016 236.631L179.433 226.449L179.3 225.704Z" fill="#55769F"/>
<path d="M179.968 229.44L122.551 239.622L122.683 240.366L180.1 230.185L179.968 229.44Z" fill="#55769F"/>
<path d="M180.617 233.164L123.2 243.346L123.332 244.091L180.749 233.909L180.617 233.164Z" fill="#55769F"/>
<path d="M181.284 236.9L123.867 247.082L123.999 247.827L181.416 237.645L181.284 236.9Z" fill="#55769F"/>
<path d="M165.977 158.275L92.6793 177.564L119.801 280.625L193.099 261.336L165.977 158.275Z" fill="#DAEEF7"/>
<path d="M148.342 173.855L115.607 182.469L115.8 183.201L148.534 174.586L148.342 173.855Z" fill="#55769F"/>
<path d="M154.736 170.182L108.246 182.416L108.438 183.147L154.928 170.913L154.736 170.182Z" fill="#55769F"/>
<path d="M162.208 178.457L105.811 193.298L106.004 194.03L162.4 179.189L162.208 178.457Z" fill="#55769F"/>
<path d="M163.133 181.999L106.736 196.84L106.929 197.572L163.325 182.731L163.133 181.999Z" fill="#55769F"/>
<path d="M164.993 189.065L108.597 203.906L108.789 204.638L165.186 189.797L164.993 189.065Z" fill="#55769F"/>
<path d="M165.928 192.59L109.532 207.431L109.725 208.162L166.121 193.321L165.928 192.59Z" fill="#55769F"/>
<path d="M166.853 196.132L110.457 210.973L110.649 211.705L167.046 196.864L166.853 196.132Z" fill="#55769F"/>
<path d="M170.937 211.674L114.54 226.516L114.733 227.247L171.129 212.406L170.937 211.674Z" fill="#55769F"/>
<path d="M171.908 215.349L115.512 230.19L115.705 230.922L172.101 216.081L171.908 215.349Z" fill="#55769F"/>
<path d="M172.876 219.01L116.479 233.851L116.672 234.583L173.068 219.742L172.876 219.01Z" fill="#55769F"/>
<path d="M173.843 222.671L117.447 237.512L117.639 238.244L174.036 223.403L173.843 222.671Z" fill="#55769F"/>
<path d="M174.796 226.336L118.399 241.177L118.592 241.909L174.988 227.068L174.796 226.336Z" fill="#55769F"/>
<path d="M175.767 230.012L119.37 244.853L119.563 245.585L175.959 230.744L175.767 230.012Z" fill="#55769F"/>
<path d="M176.734 233.673L120.338 248.514L120.531 249.245L176.927 234.404L176.734 233.673Z" fill="#55769F"/>
<path d="M175.956 276.24L97.487 307.758L51.7157 193.791L117.657 153.119C121.364 150.834 126.236 152.438 127.855 156.478L175.956 276.24Z" fill="#FEB546"/>
<path d="M72.1577 289.313L60.9607 289.116C57.072 282.065 54.2274 275.952 54.2274 275.952C66.8769 273.032 77.5443 274.227 86.4262 277.647L91.3287 289.555L92.3727 280.385C114.403 292.278 123.482 317.441 123.482 317.441C123.482 317.441 84.55 313.295 76.2884 309.452C73.0958 307.969 69.0861 302.643 65.3487 296.651C68.3446 293.807 72.1577 289.313 72.1577 289.313Z" fill="#FF5B7E"/>
<path d="M54.2274 275.937C54.2274 275.937 104.22 296.969 123.497 317.426C123.497 317.426 84.5651 313.28 76.3036 309.437C73.1109 307.954 69.1012 302.628 65.3638 296.636C68.3447 293.791 72.1577 289.297 72.1577 289.297L60.9607 289.101C57.0872 282.065 54.2274 275.937 54.2274 275.937Z" fill="#E03268"/>
<path d="M55.8313 309.558C62.5646 305.458 69.3584 303.264 75.9253 302.386C77.8469 304.777 80.2225 307.591 80.2225 307.591L80.4646 301.978C105.673 300.828 126.569 317.729 126.569 317.729C111.967 326.929 99.4994 329.471 89.3011 328.653C88.6959 326.686 87.8334 323.766 87.8334 323.766L86.0328 328.275C81.1455 327.504 76.818 325.99 73.0958 324.114C74.049 321.769 75.0628 319.106 75.0628 319.106L69.6308 322.193C60.5219 316.624 55.8313 309.558 55.8313 309.558Z" fill="#FF5B7E"/>
<path d="M89.3011 328.668C88.6959 326.701 87.8334 323.781 87.8334 323.781L86.0328 328.29C81.1455 327.518 76.818 326.005 73.0958 324.129C74.049 321.784 75.0628 319.121 75.0628 319.121L69.6308 322.207C60.5219 316.639 55.8313 309.573 55.8313 309.573C85.2157 306.184 126.569 317.744 126.569 317.744C111.967 326.943 99.4994 329.485 89.3011 328.668Z" fill="#E03268"/>
<path d="M202.95 158.096L211.968 151.469C211.076 143.48 209.865 136.822 209.865 136.822C197.851 141.74 189.832 148.882 184.551 156.795L187.426 169.339L181.283 162.454C170.146 184.878 177.273 210.677 177.273 210.677C177.273 210.677 206.672 184.818 211.197 176.919C212.937 173.863 213.148 167.19 212.74 160.154C208.655 159.564 202.95 158.096 202.95 158.096Z" fill="#02CCC0"/>
<path d="M209.88 136.822C209.88 136.822 181.207 182.851 177.273 210.692C177.273 210.692 206.672 184.833 211.197 176.935C212.937 173.878 213.149 167.205 212.74 160.169C208.67 159.579 202.965 158.112 202.965 158.112L211.983 151.484C211.091 143.465 209.88 136.822 209.88 136.822Z" fill="#06BFAD"/>
<path d="M227.992 165.208C220.124 165.753 213.315 167.871 207.444 170.958C207.247 174.029 206.945 177.691 206.945 177.691L203.495 173.258C182.236 186.876 174.927 212.735 174.927 212.735C192.162 211.827 203.797 206.697 211.666 200.146C211.03 198.194 210.031 195.304 210.031 195.304L214.102 197.952C217.657 194.502 220.305 190.764 222.272 187.087C220.139 185.726 217.779 184.122 217.779 184.122L223.997 183.501C228.234 173.681 227.992 165.208 227.992 165.208Z" fill="#02CCC0"/>
<path d="M211.666 200.115C211.03 198.163 210.031 195.273 210.031 195.273L214.102 197.921C217.657 194.471 220.305 190.734 222.272 187.057C220.139 185.695 217.779 184.092 217.779 184.092L223.997 183.471C228.219 173.666 227.977 165.193 227.977 165.193C202.027 179.386 174.927 212.704 174.927 212.704C192.177 211.796 203.813 206.682 211.666 200.115Z" fill="#06BFAD"/>
<path d="M300.122 197.997H305.493C304.615 197.392 303.511 197.044 302.316 197.044H167.876C160.841 197.044 155.136 202.097 155.136 208.331V215.504C155.136 221.738 160.841 226.791 167.876 226.791L300.802 226.746L300.122 197.997Z" fill="#E03268"/>
<path d="M166.424 215.504V208.331C166.424 202.097 172.128 197.044 179.164 197.044H176.274C169.238 197.044 163.534 202.097 163.534 208.331V215.504C163.534 221.738 169.238 226.791 176.274 226.791H179.119C172.113 226.761 166.424 221.722 166.424 215.504Z" fill="#FEB546"/>
<path d="M197.912 215.504V208.331C197.912 202.097 203.616 197.044 210.652 197.044H207.762C200.726 197.044 195.021 202.097 195.021 208.331V215.504C195.021 221.738 200.726 226.791 207.762 226.791H210.606C203.586 226.761 197.912 221.722 197.912 215.504Z" fill="#FEB546"/>
<path d="M223.801 197.059C217.067 197.059 211.62 201.886 211.62 207.863V215.973C211.62 221.934 217.067 226.776 223.801 226.776H307.49V224.961H307.142L285.868 223.175L281.571 208.226C281.571 208.226 289.878 199.964 290.407 199.752C290.952 199.541 307.142 198.89 307.142 198.89H307.49V197.089H223.801V197.059Z" fill="#FF5B7E"/>
<path d="M302.058 211.857C302.058 203.111 307.157 198.875 307.157 198.875H225.511C219.337 198.875 214.329 203.308 214.329 208.786V215.035C214.329 220.512 219.337 224.945 225.511 224.945H307.157C307.157 224.945 302.058 222.873 302.058 211.857Z" fill="#DAEEF7"/>
<path d="M214.329 208.786V215.035C214.329 215.852 214.45 216.654 214.662 217.41C217.415 211.433 222.696 205.684 232.743 203.838C256.196 199.525 307.173 198.875 307.173 198.875H225.526C219.337 198.875 214.329 203.323 214.329 208.786Z" fill="#DAEEF7"/>
<path d="M297.912 257.462H303.98C302.981 256.705 301.741 256.267 300.394 256.267H148.236C140.278 256.267 133.817 262.591 133.817 270.399V279.372C133.817 287.179 140.262 293.504 148.236 293.504L298.684 293.459L297.912 257.462Z" fill="#284C7A"/>
<path d="M211.529 256.297C203.919 256.297 197.745 262.349 197.745 269.809V279.946C197.745 287.406 203.919 293.458 211.529 293.458H306.25V291.189H305.856L281.783 288.949L276.911 270.232C276.911 270.232 286.307 259.883 286.912 259.625C287.517 259.353 305.856 258.551 305.856 258.551H306.25V256.297H211.529Z" fill="#55769F"/>
<path d="M300.106 274.802C300.106 263.862 305.871 258.551 305.871 258.551H213.466C206.476 258.551 200.802 264.104 200.802 270.959V278.766C200.802 285.621 206.476 291.174 213.466 291.174H305.871C305.871 291.189 300.106 288.586 300.106 274.802Z" fill="#DAEEF7"/>
<path d="M200.802 270.974V278.781C200.802 279.81 200.938 280.809 201.165 281.762C204.282 274.288 210.258 267.085 221.622 264.77C248.177 259.368 305.856 258.566 305.856 258.566H213.451C206.476 258.566 200.802 264.119 200.802 270.974Z" fill="#DAEEF7"/>
<path d="M128.808 227.669H122.726C123.724 227.079 124.965 226.716 126.312 226.716H278.53C286.488 226.716 292.949 231.739 292.949 237.928V245.054C292.949 251.243 286.488 256.266 278.53 256.266L128.021 256.221L128.808 227.669Z" fill="#02CCC0"/>
<path d="M215.221 226.731C222.832 226.731 229.006 231.527 229.006 237.459V245.509C229.006 251.425 222.832 256.236 215.221 256.236H120.471V254.436H120.864L144.953 252.666L149.825 237.807C149.825 237.807 140.429 229.606 139.808 229.394C139.188 229.182 120.864 228.547 120.864 228.547H120.471V226.761H215.221V226.731Z" fill="#06BFAD"/>
<path d="M126.614 241.438C126.614 232.753 120.849 228.547 120.849 228.547H213.3C220.29 228.547 225.964 232.95 225.964 238.397V244.586C225.964 250.018 220.29 254.436 213.3 254.436H120.849C120.849 254.436 126.614 252.363 126.614 241.438Z" fill="#DAEEF7"/>
<path d="M225.949 238.382V244.57C225.949 245.387 225.813 246.174 225.586 246.931C222.469 240.999 216.492 235.28 205.114 233.449C178.559 229.167 120.849 228.531 120.849 228.531H213.3C220.275 228.531 225.949 232.95 225.949 238.382Z" fill="#DAEEF7"/>
<path opacity="0.5" d="M265.078 245.039V237.913C265.078 231.724 258.617 226.701 250.658 226.701H265.108C273.067 226.701 279.528 231.724 279.528 237.913V245.039C279.528 251.228 273.067 256.252 265.108 256.252H250.84C258.723 256.176 265.078 251.183 265.078 245.039Z" fill="#55769F"/>
<path d="M117.324 294.639H110.772C111.846 293.973 113.178 293.58 114.646 293.58H278.741C287.321 293.58 294.281 299.193 294.281 306.108V314.067C294.281 320.982 287.321 326.595 278.741 326.595L116.492 326.55L117.324 294.639Z" fill="#FEB546"/>
<path d="M210.485 293.595C218.702 293.595 225.344 298.951 225.344 305.578V314.566C225.344 321.179 218.686 326.55 210.485 326.55H108.321V324.538H108.745L134.709 322.555L139.96 305.957C139.96 305.957 129.822 296.787 129.171 296.545C128.506 296.303 108.745 295.592 108.745 295.592H108.321V293.595H210.485Z" fill="#F4A640"/>
<path d="M114.948 310.012C114.948 300.313 108.729 295.607 108.729 295.607H208.382C215.917 295.607 222.03 300.54 222.03 306.607V313.522C222.03 319.605 215.917 324.523 208.382 324.523H108.729C108.729 324.538 114.948 322.238 114.948 310.012Z" fill="#DAEEF7"/>
<path d="M222.046 306.623V313.537C222.046 314.445 221.909 315.338 221.652 316.17C218.293 309.543 211.847 303.158 199.591 301.1C170.963 296.303 108.745 295.592 108.745 295.592H208.397C215.933 295.607 222.046 300.54 222.046 306.623Z" fill="#DAEEF7"/>
<path d="M345.545 330H68.7986C67.9816 330 67.3158 329.334 67.3158 328.517V327.836C67.3158 327.019 67.9816 326.353 68.7986 326.353H345.545C346.362 326.353 347.028 327.019 347.028 327.836V328.517C347.028 329.334 346.362 330 345.545 330Z" fill="#C4DFE8"/>
<path d="M65.6211 206.364L119.049 175.815L126.266 190.114L71.5978 219.044L65.6211 206.364Z" fill="#F4A640"/>
<path d="M166.303 119.331C166.303 119.331 165.879 123.492 162.596 123.779C165.879 124.067 166.303 128.228 166.303 128.228C166.303 128.228 166.727 124.067 170.01 123.779C166.727 123.477 166.303 119.331 166.303 119.331Z" fill="#02CCC0"/>
<path d="M109.652 87.4045C109.652 87.4045 109.093 92.9425 104.72 93.3208C109.093 93.699 109.652 99.237 109.652 99.237C109.652 99.237 110.212 93.699 114.585 93.3208C110.212 92.9425 109.652 87.4045 109.652 87.4045Z" fill="#FEB546"/>
<path d="M86.7591 136.913C86.7591 136.913 86.3809 140.636 83.4454 140.893C86.3809 141.15 86.7591 144.872 86.7591 144.872C86.7591 144.872 87.1374 141.15 90.0728 140.893C87.1374 140.62 86.7591 136.913 86.7591 136.913Z" fill="#FF5B7E"/>
<path d="M346.634 225.581C346.634 225.581 346.074 231.119 341.702 231.497C346.074 231.875 346.634 237.413 346.634 237.413C346.634 237.413 347.194 231.875 351.567 231.497C347.194 231.119 346.634 225.581 346.634 225.581Z" fill="#FF5B7E"/>
<path d="M36.9327 176.844C36.9327 176.844 36.3729 182.382 32 182.76C36.3729 183.138 36.9327 188.676 36.9327 188.676C36.9327 188.676 37.4926 183.138 41.8654 182.76C37.4926 182.382 36.9327 176.844 36.9327 176.844Z" fill="#02CCC0"/>
<path d="M358.3 170.928C358.3 170.928 357.74 176.466 353.367 176.844C357.74 177.222 358.3 182.76 358.3 182.76C358.3 182.76 358.86 177.222 363.233 176.844C358.86 176.466 358.3 170.928 358.3 170.928Z" fill="#02CCC0"/>
<path d="M222.045 84C222.045 84 221.486 89.5379 217.113 89.9162C221.486 90.2945 222.045 95.8324 222.045 95.8324C222.045 95.8324 222.605 90.2945 226.978 89.9162C222.605 89.5379 222.045 84 222.045 84Z" fill="#FF5B7E"/>
<path d="M315.616 130.225C315.616 130.225 315.313 133.72 312.938 133.962C315.313 134.205 315.616 137.7 315.616 137.7C315.616 137.7 315.918 134.205 318.294 133.962C315.918 133.72 315.616 130.225 315.616 130.225Z" fill="#FEB546"/>
<path d="M123.951 300.54L116.567 300.918L115.629 322.798L111.861 324.613L112.043 325.415L113.45 325.748C113.45 325.748 117.99 325.672 118.126 325.672C118.262 325.672 119.2 324.644 119.2 324.644L119.064 324.462L119.82 323.947L123.951 300.54Z" fill="#FFC0BB"/>
<path d="M143.939 324.613C143.939 324.613 140.262 322.767 140.172 322.797L141.004 300.51L131.865 300.54L136.011 323.932L136.465 324.235C136.359 324.628 136.268 324.961 136.238 325.067C136.177 325.355 137.796 325.385 138.356 325.476C138.916 325.566 140.55 325.748 141.609 326.036C142.653 326.323 143.985 325.476 143.985 325.476L143.939 324.613Z" fill="#FFC0BB"/>
<path d="M144.181 240.394C143.122 237.625 142.078 238.715 140.156 235.371C139.854 234.841 139.627 234.145 139.476 233.51C139.022 231.618 138.023 229.878 136.54 228.607C132.031 224.719 126.932 226.443 126.932 226.443C126.932 226.443 128.248 233.964 128.506 235.492C127.386 237.02 126.251 238.594 126.251 238.594C126.251 238.594 123.876 250.956 127.598 252C131.32 253.044 132.001 251.364 133.817 250.502C135.632 249.624 137.403 252.015 140.126 250.35C142.199 249.079 141.14 245.932 142.245 245.342C143.334 244.752 145.331 243.39 144.181 240.394Z" fill="#FF5500"/>
<path d="M125.01 232.693C124.95 232.662 123.24 231.709 121.636 230.801L131.562 219.756C131.562 219.756 128.551 219.165 128.369 219.15C128.188 219.135 123.875 220.467 123.875 220.467L119.427 221.677C116.038 234.054 111.816 236.294 111.816 236.294C111.302 236.627 110.817 237.081 110.333 237.867C108.654 240.591 110.348 242.301 111.317 243.088C112.285 243.874 110.666 246.779 112.467 248.399C114.827 250.532 117.006 248.52 118.64 249.715C120.259 250.91 120.622 252.681 124.466 252.348C128.309 252.015 128.279 239.426 128.279 239.426C128.279 239.426 125.131 232.738 125.01 232.693Z" fill="#FF5500"/>
<path d="M141.851 255.253C141.851 255.253 145.119 270.883 144.181 272.578C143.228 274.272 130.76 274.802 130.76 274.802L130.231 254.738L134.982 247.551L141.851 255.253Z" fill="#FF5B7E"/>
<path d="M137.902 273.35L135.572 266.964C135.572 266.964 127.9 264.165 127.416 264.135C126.932 264.104 120.441 266.964 120.441 266.964C120.441 266.964 118.459 270.974 118.065 271.7C117.853 272.094 118.353 274.56 118.837 276.663L116.083 276.799L114.252 317.139C114.252 317.139 118.216 319.272 122.468 317.441L125.964 282.201L129.005 281.747L133.574 316.685C133.574 316.685 137.221 319.423 142.411 317.139L138.976 278.267C138.84 276.588 138.477 274.938 137.902 273.35Z" fill="#07085B"/>
<path d="M122.983 242.8C122.983 242.8 126.387 242.089 132.712 242.543C139.037 242.996 129.792 246.552 129.792 246.552C129.792 246.552 126.539 246.446 126.402 246.416C126.266 246.386 122.983 242.8 122.983 242.8Z" fill="#FFC0BB"/>
<path d="M131.032 239.229H125.419V249.094H131.032V239.229Z" fill="#FFC0BB"/>
<path d="M131.032 240.909V237.55H125.419V240.409C126.629 241.06 128.415 241.423 131.032 240.909Z" fill="#F99893"/>
<path d="M138.901 228.244C138.371 227.971 137.735 228.032 137.176 228.32C137.372 223.235 133.226 218.969 128.006 219.15C122.786 218.969 118.64 223.235 118.837 228.32C118.277 228.032 117.657 227.987 117.112 228.244C116.083 228.758 115.765 230.211 116.401 231.497C117.036 232.783 118.383 233.419 119.412 232.904C119.548 232.829 119.684 232.738 119.805 232.632C120.395 236.838 123.906 239.986 128.006 239.925C132.122 239.986 135.617 236.838 136.207 232.632C136.328 232.738 136.449 232.829 136.601 232.904C137.63 233.419 138.976 232.783 139.612 231.497C140.247 230.211 139.929 228.758 138.901 228.244Z" fill="#FFC0BB"/>
<path d="M125.691 230.12C125.721 230.544 125.389 230.907 124.965 230.937C124.541 230.967 124.178 230.635 124.148 230.211C124.118 229.787 124.45 229.424 124.874 229.394C125.298 229.379 125.661 229.696 125.691 230.12Z" fill="#333333"/>
<path d="M132.334 230.196C132.364 230.62 132.031 230.983 131.607 231.013C131.184 231.043 130.821 230.71 130.79 230.287C130.76 229.863 131.093 229.5 131.517 229.47C131.94 229.439 132.303 229.772 132.334 230.196Z" fill="#333333"/>
<path d="M126.539 228.546C126.145 228.41 125.782 228.304 125.419 228.244C125.056 228.183 124.693 228.168 124.345 228.198C123.997 228.244 123.649 228.32 123.301 228.471L123.164 228.516C123.119 228.531 123.089 228.562 123.043 228.577L122.786 228.698C122.62 228.789 122.453 228.894 122.256 228.985C122.362 228.819 122.483 228.637 122.62 228.486C122.771 228.35 122.907 228.183 123.089 228.077C123.437 227.835 123.86 227.684 124.284 227.639C124.708 227.593 125.146 227.654 125.54 227.82C125.933 227.987 126.281 228.214 126.539 228.546Z" fill="#FF5500"/>
<path d="M129.64 228.532C129.898 228.199 130.246 227.957 130.624 227.805C131.017 227.639 131.456 227.578 131.88 227.609C132.303 227.654 132.727 227.79 133.075 228.032C133.257 228.138 133.393 228.305 133.559 228.441C133.696 228.592 133.817 228.759 133.923 228.94C133.726 228.849 133.575 228.743 133.393 228.668L133.136 228.547C133.09 228.532 133.06 228.501 133.015 228.486L132.878 228.441C132.546 228.289 132.182 228.229 131.834 228.184C131.486 228.153 131.123 228.168 130.76 228.229C130.397 228.289 130.034 228.395 129.64 228.532Z" fill="#FF5500"/>
<path d="M128.385 229.061C128.339 229.47 128.369 229.878 128.445 230.272C128.49 230.468 128.536 230.665 128.612 230.877C128.687 231.073 128.793 231.27 128.975 231.437C129.186 231.588 129.262 231.648 129.323 231.785C129.383 231.906 129.353 232.072 129.292 232.223C129.141 232.541 128.823 232.768 128.46 232.935C128.854 232.919 129.292 232.753 129.565 232.36C129.686 232.178 129.761 231.906 129.686 231.648C129.595 231.391 129.459 231.3 129.292 231.164C129.141 231.043 129.05 230.892 128.96 230.71C128.869 230.544 128.808 230.362 128.748 230.181C128.612 229.833 128.506 229.454 128.385 229.061Z" fill="#F99893"/>
<path d="M125.858 233.903C126.07 234.054 126.296 234.191 126.523 234.296C126.75 234.417 126.992 234.523 127.219 234.599C127.704 234.765 128.203 234.871 128.702 234.871C129.202 234.871 129.701 234.765 130.185 234.584C130.654 234.387 131.093 234.115 131.486 233.782C131.305 233.964 131.108 234.145 130.911 234.296C130.7 234.448 130.473 234.584 130.246 234.705C130.004 234.811 129.761 234.902 129.504 234.962C129.247 235.023 128.975 235.053 128.717 235.053C128.188 235.053 127.658 234.932 127.174 234.735C126.69 234.523 126.236 234.251 125.858 233.903Z" fill="#F99893"/>
<path d="M139.143 244.767C136.101 241.816 131.895 242.437 131.895 242.437C131.426 242.906 130.957 243.269 130.488 243.526C129.822 243.859 128.99 244.162 128.052 244.177C128.037 244.177 128.021 244.177 128.006 244.177C127.991 244.177 127.976 244.177 127.961 244.177C127.023 244.146 126.191 243.859 125.525 243.526C125.056 243.254 124.587 242.906 124.118 242.437C124.118 242.437 119.911 241.816 116.87 244.767C113.829 247.717 110.787 254.239 110.787 254.239C110.787 254.239 114.63 257.749 118.307 258.203C118.307 258.203 120.093 266.434 120.456 266.979C120.456 266.979 122.302 267.842 124.995 268.296C125.979 268.477 126.932 268.553 127.855 268.568C127.915 268.568 127.976 268.568 128.021 268.568C128.082 268.568 128.142 268.568 128.188 268.568C129.111 268.568 130.064 268.492 131.048 268.296C133.741 267.842 135.587 266.979 135.587 266.979C135.95 266.45 137.735 258.203 137.735 258.203C141.412 257.749 145.256 254.239 145.256 254.239C145.256 254.239 142.199 247.717 139.143 244.767Z" fill="#02CCC0"/>
<path d="M128.339 264.74C128.339 264.74 129.474 264.559 130.094 265.376L130.049 267.509L128.672 268.16C128.672 268.16 126.962 266.707 127.083 266.662C127.204 266.647 128.339 264.74 128.339 264.74Z" fill="#E03268"/>
<path d="M131.85 278.721L113.647 283.987L111.892 270.656L130.094 265.391L131.85 278.721Z" fill="#E03268"/>
<path d="M112.149 281.838L113.738 283.185L131.169 278.191L129.595 265.633L128.369 265.118L112.149 281.838Z" fill="#DAEEF7"/>
<path d="M131.169 278.191L129.928 277.117L127.643 274.62L127.794 267.751L128.369 265.118L129.61 265.617L131.169 278.191Z" fill="#DAEEF7"/>
<path d="M129.928 277.117L111.725 282.383L110.137 270.006L128.339 264.74L129.928 277.117Z" fill="#FF5B7E"/>
<path d="M120.985 251.046C120.562 251.561 120.184 252.09 119.82 252.65C119.472 253.21 119.155 253.785 118.897 254.375C118.64 254.965 118.443 255.601 118.338 256.236C118.232 256.872 118.217 257.538 118.292 258.203C118.08 257.568 118.02 256.887 118.095 256.206C118.156 255.525 118.353 254.875 118.61 254.254C118.882 253.634 119.215 253.044 119.624 252.514C120.032 251.969 120.471 251.47 120.985 251.046Z" fill="#DAEEF7"/>
<path d="M117.218 273.531C114.01 268.099 115.493 261.502 116.764 257.855C114.252 257.038 111.922 255.208 111.09 254.527C105.976 266.072 114.63 275.952 114.63 275.952L114.646 275.937C114.812 276.315 114.933 276.648 114.933 276.648C116.976 280.34 117.067 280.28 117.218 280.234C117.369 280.189 116.961 278.418 117.142 278.434C117.324 278.434 118.61 280.552 118.701 280.355C118.792 280.159 117.838 278.055 117.974 278.025C118.111 277.995 119.321 280.053 119.593 279.871C119.866 279.689 118.459 277.48 118.731 277.42C119.003 277.359 120.38 279.674 120.607 279.463C120.789 279.296 119.306 276.678 118.822 275.846C118.761 275.74 118.837 275.604 118.973 275.619C120.864 275.725 121.016 275.634 120.985 275.423C120.955 275.256 118.686 274.197 117.218 273.531Z" fill="#FFC0BB"/>
<path d="M138.658 243.027C134.724 257.159 139.476 261.335 139.491 261.441L138.78 264.725C138.78 264.725 129.111 258.43 135.239 241.68C135.405 241.211 135.92 240.969 136.374 241.181L138.205 242.028C138.598 242.195 138.764 242.618 138.658 243.027Z" fill="#E03268"/>
<path d="M147.238 277.541C147.238 277.541 147.117 277.223 146.996 276.86L146.814 275.483C146.693 272.381 146.179 261.351 144.484 254.875C143.198 255.903 140.444 257.84 137.781 258.188C139.445 261.683 142.941 269.718 143.546 277.041C142.925 278.433 142.093 280.37 142.169 280.476C142.275 280.643 142.456 280.627 143.727 279.356C143.803 279.281 143.954 279.311 143.969 279.432C144.151 280.325 144.741 283.109 144.983 283.109C145.271 283.109 144.802 280.612 145.029 280.476C145.256 280.34 145.649 282.791 145.952 282.761C146.254 282.716 145.815 280.491 145.937 280.431C146.058 280.37 146.693 282.458 146.89 282.534C147.086 282.61 146.663 280.31 146.799 280.189C146.92 280.068 147.737 281.566 147.873 281.52C148.009 281.46 148.1 281.445 147.238 277.541Z" fill="#FFC0BB"/>
<path d="M117.218 228.198C117.218 228.198 116.643 217.682 128.369 216.986C128.369 216.986 128.006 227.306 118.837 228.319L118.126 226.943L117.218 228.198Z" fill="#FF5500"/>
<path d="M128.369 216.986C128.369 216.986 137.872 216.457 138.371 228.093C138.371 228.093 137.675 228.047 137.161 228.319C137.161 228.319 129.64 226.443 127.764 219.15L128.369 216.986Z" fill="#FF5500"/>
<path d="M115.069 325.415C113.163 325.612 112.255 325.188 111.877 324.613L110.575 325.461C110.061 325.793 110.288 326.58 110.908 326.58H119.306C119.609 326.58 119.836 326.338 119.836 326.051V323.781C119.306 324.326 118.035 325.113 115.069 325.415Z" fill="#07085B"/>
<path d="M140.731 325.415C142.638 325.612 143.546 325.188 143.924 324.613L145.225 325.461C145.74 325.793 145.513 326.58 144.892 326.58H136.48C136.177 326.58 135.95 326.338 135.95 326.051V323.781C136.495 324.326 137.766 325.113 140.731 325.415Z" fill="#07085B"/>
<path d="M316.584 250.169L326.298 250.956L323.166 258.809L318.264 258.415L316.221 264.967C315.722 264.74 315.358 264.573 315.283 264.513C315.131 264.407 314.587 261.169 314.118 258.097L316.584 250.169Z" fill="#DAEEF7"/>
<path d="M322.122 322.419V325.839C322.122 326.127 322.349 326.353 322.636 326.353H330.626C331.201 326.353 331.427 325.597 330.943 325.279L326.465 322.419C326.449 322.419 324.694 323.706 322.122 322.419Z" fill="#E03268"/>
<path d="M306.431 177.298C306.31 177.343 306.189 177.237 306.219 177.116C306.416 176.163 307.036 173.167 306.794 173.061C306.522 172.94 305.917 175.603 305.629 175.633C305.357 175.664 306.007 173.076 305.705 173C305.387 172.91 304.873 175.285 304.721 175.3C304.57 175.316 304.842 172.985 304.676 172.819C304.525 172.652 303.95 175.104 303.768 175.164C303.586 175.225 303.435 173.394 303.269 173.394C303.117 173.394 303.011 173.364 302.194 177.57C302.194 177.57 302.149 179.113 301.877 179.477L302.482 180.717L304.373 180.778C304.373 180.778 308.474 177.071 308.443 176.844C308.413 176.632 308.232 176.587 306.431 177.298Z" fill="#FFC0BB"/>
<path d="M325.844 178.221C325.92 178.312 326.086 178.281 326.117 178.16C326.374 177.222 327.191 174.272 327.448 174.287C327.751 174.302 327.085 176.95 327.312 177.101C327.539 177.252 328.129 174.65 328.447 174.725C328.765 174.786 328.144 177.146 328.28 177.222C328.401 177.298 329.234 175.104 329.445 175.028C329.657 174.952 329.052 177.404 329.173 177.54C329.294 177.676 330.278 176.118 330.414 176.193C330.55 176.269 330.656 176.284 329.461 180.4C329.461 180.4 328.795 181.792 328.87 182.246L327.766 183.078L326.056 182.276C326.056 182.276 324.104 177.116 324.225 176.919C324.377 176.738 324.558 176.783 325.844 178.221Z" fill="#FFC0BB"/>
<path d="M310.849 211.978L310.88 219.196L303.889 218.106L305.054 210.011L310.849 211.978Z" fill="#FFC0BB"/>
<path opacity="0.6" d="M304.509 213.733L305.054 209.996L310.864 212.659V214.081C309.472 214.429 306.84 214.747 304.509 213.733Z" fill="#FC8D84"/>
<path d="M298.2 322.041V325.794C298.2 326.096 297.943 326.353 297.64 326.353H288.849C288.213 326.353 287.971 325.521 288.501 325.173L293.434 322.026C293.434 322.041 295.37 323.448 298.2 322.041Z" fill="#E03268"/>
<path d="M290.18 258.234C290.195 257.432 288.107 259.792 288.153 259.157C288.97 245.826 315.025 257.008 315.025 257.008L321.38 261.668L328.568 323.463C328.568 323.463 324.664 324.598 322.107 323.675L306.204 270.717L304.252 269.96C304.237 269.975 295.537 263.908 290.18 258.234Z" fill="#07085B"/>
<path d="M288.107 259.701C288.107 259.852 288.092 260.019 288.092 260.185C288.092 260.019 288.107 259.868 288.107 259.701Z" fill="#06BFAD"/>
<path d="M288.092 260.185C288.092 260.352 288.077 260.518 288.077 260.7C288.077 260.533 288.077 260.352 288.092 260.185Z" fill="#06BFAD"/>
<path d="M288.062 260.775C288.062 260.957 288.047 261.139 288.047 261.335C288.062 261.139 288.062 260.957 288.062 260.775Z" fill="#06BFAD"/>
<path d="M288.138 259.156C288.123 259.308 288.123 259.444 288.107 259.61C288.123 259.459 288.138 259.308 288.138 259.156Z" fill="#06BFAD"/>
<path d="M288.138 256.13C293.509 261.789 304.237 269.975 304.237 269.975L306.189 270.732L304.237 269.975L298.185 323.478C298.185 323.478 293.872 324.295 291.421 322.964C291.421 322.964 287.79 272.033 288.138 256.13Z" fill="#07085B"/>
<path d="M328.553 323.479C328.553 323.479 326.873 323.963 324.997 324.038C326.873 323.963 328.553 323.479 328.553 323.479Z" fill="#06BFAD"/>
<path d="M322.848 323.887C323.015 323.917 323.196 323.947 323.378 323.978C323.196 323.947 323.015 323.917 322.848 323.887Z" fill="#06BFAD"/>
<path d="M324.997 324.038C324.543 324.053 324.089 324.053 323.635 324.008C324.089 324.038 324.543 324.053 324.997 324.038Z" fill="#06BFAD"/>
<path d="M321.381 261.668L322.409 270.49C319.701 271.534 313.089 272.669 308.111 261.774C306.537 258.339 306.144 255.873 306.431 254.088C311.197 255.359 315.026 257.008 315.026 257.008L321.381 261.668Z" fill="#050645"/>
<path d="M297.474 225.671C297.776 225.671 302.285 215.443 302.285 215.443C306.144 218.151 311.379 216.275 311.379 216.275C311.379 216.275 332.456 254.859 318.324 260.866C304.192 266.888 290.846 259.565 290.846 259.565C290.846 259.565 287.835 251.742 287.835 251.44C287.835 251.137 297.171 225.671 297.474 225.671Z" fill="#DAEEF7"/>
<path d="M324.952 182.352C324.952 182.352 325.859 200.66 324.15 204.004C318.46 215.141 311.394 216.26 311.394 216.26C311.394 216.26 308.958 255.192 310.97 264.513C310.97 264.513 317.643 266.571 327.463 261.956C327.463 261.956 319.943 231.77 320.337 227.957C320.337 227.957 332.366 217.229 332.774 204.594C333.183 191.96 329.869 180.733 329.869 180.733L324.952 182.352Z" fill="#55769F"/>
<path d="M292.511 263.121C292.511 263.121 293.267 248.625 296.566 234.886C299.879 221.147 302.285 215.428 302.285 215.428C297.852 210.541 298.578 206.122 298.972 200.388C299.425 193.775 305.886 180.536 305.886 180.536L301.529 177.676C280.618 202.794 292.208 222.797 292.208 222.797C292.208 222.797 284.385 250.486 283.326 258.914C283.326 258.914 287.487 261.32 292.511 263.121Z" fill="#55769F"/>
<path d="M320.125 227.941C319.867 227.76 319.58 227.487 319.277 227.139C318.385 226.065 317.931 224.87 317.613 223.523C317.81 224.098 318.324 225.762 319.398 227.033C319.883 227.593 320.14 227.775 320.382 227.926C320.336 227.956 320.321 227.987 320.321 227.987C320.321 228.017 320.321 228.032 320.321 228.062C320.049 228.123 319.55 228.138 318.733 227.684C318.218 227.412 317.825 227.079 317.401 226.731C317.673 226.927 318.248 227.336 318.793 227.593C319.156 227.775 319.716 227.971 320.125 227.941Z" fill="white"/>
<path d="M292.359 222.721C292.722 222.494 293.025 222.161 293.313 221.843C294.205 220.799 294.689 219.574 295.098 218.333C294.78 219.68 294.326 220.875 293.434 221.949C293.146 222.297 292.843 222.57 292.586 222.751C292.783 222.766 293.025 222.721 293.176 222.676C293.434 222.615 293.691 222.509 293.933 222.388C294.432 222.146 294.932 221.798 295.325 221.526C294.947 221.843 294.523 222.207 293.993 222.479C293.751 222.615 293.494 222.721 293.222 222.797C292.949 222.872 292.677 222.918 292.359 222.842L292.193 222.797L292.359 222.721Z" fill="white"/>
<path d="M300.817 197.271L300.394 202.218L301.166 202.718L302.618 196.696L300.817 197.271Z" fill="#07085B"/>
<path d="M301.862 201.719C302.073 202.839 301.529 203.883 300.621 204.065C299.728 204.231 298.82 203.474 298.608 202.34C298.397 201.22 298.941 200.176 299.849 199.994C300.742 199.828 301.65 200.6 301.862 201.719Z" fill="#F99893"/>
<path d="M300.575 206.289C300.349 204.851 300.379 203.399 300.5 202.128C300.53 201.855 300.545 201.583 300.545 201.311C300.575 200.221 300.802 199.102 301.287 197.997C302.83 194.441 306.598 192.293 310.441 192.762C315.616 193.397 319.035 198.269 318.037 203.247C318.642 203.051 319.262 203.111 319.746 203.459C320.685 204.125 320.76 205.608 319.943 206.773C319.111 207.938 317.689 208.347 316.751 207.681C316.614 207.59 316.508 207.484 316.418 207.363C315.132 211.509 311.016 214.096 306.855 213.189C303.692 212.523 301.09 209.905 300.575 206.289Z" fill="#FFC0BB"/>
<path d="M310.153 202.325C309.957 202.839 310.32 203.384 310.88 203.384C311.182 203.384 311.47 203.187 311.576 202.9C311.788 202.385 311.409 201.84 310.849 201.84C310.547 201.855 310.259 202.052 310.153 202.325Z" fill="#333333"/>
<path d="M303.602 201.341C303.405 201.855 303.768 202.4 304.328 202.4C304.631 202.4 304.918 202.203 305.024 201.916C305.221 201.401 304.857 200.857 304.298 200.857C303.995 200.872 303.708 201.069 303.602 201.341Z" fill="#333333"/>
<path d="M309.124 207.711C308.716 207.908 308.262 208.059 307.884 208.135C307.46 208.21 307.021 208.24 306.598 208.18C306.174 208.119 305.765 207.968 305.387 207.756C305.009 207.529 304.676 207.242 304.373 206.924C304.676 207.363 304.963 207.605 305.311 207.862C305.69 208.104 306.083 208.271 306.567 208.331C307.021 208.392 307.475 208.362 307.899 208.24C308.353 208.15 308.761 207.968 309.124 207.711Z" fill="#F99893"/>
<path d="M309.533 200.766C309.941 200.69 310.32 200.645 310.683 200.645C311.046 200.645 311.409 200.675 311.757 200.766C312.09 200.857 312.438 200.993 312.741 201.19C313.164 201.432 313.467 201.719 313.679 201.87C313.543 201.522 313.316 201.099 312.998 200.842C312.695 200.539 312.302 200.342 311.893 200.221C311.47 200.115 311.031 200.1 310.622 200.206C310.214 200.312 309.836 200.478 309.533 200.766Z" fill="#07085B"/>
<path d="M306.461 200.267C306.265 199.904 305.962 199.616 305.599 199.389C305.236 199.162 304.827 199.026 304.388 198.996C303.965 198.965 303.511 199.041 303.133 199.223C302.754 199.359 302.406 199.692 302.164 199.979C302.437 199.904 302.785 199.737 303.269 199.646C303.632 199.556 303.98 199.54 304.343 199.556C304.691 199.571 305.054 199.646 305.402 199.783C305.765 199.904 306.113 200.07 306.461 200.267Z" fill="#07085B"/>
<path d="M307.808 201.235C307.445 201.568 307.112 201.946 306.809 202.325C306.492 202.703 306.204 203.111 305.947 203.535C305.796 203.792 305.614 204.14 305.569 204.428C305.538 204.594 305.553 204.746 305.826 205.018C306.007 205.199 306.204 205.366 306.401 205.502C306.613 205.638 306.824 205.774 307.051 205.865C306.673 205.547 306.295 205.23 306.007 204.851C305.962 204.791 305.871 204.67 305.841 204.594C305.826 204.534 305.856 204.413 305.886 204.322C305.962 204.11 306.083 203.898 306.204 203.686C306.446 203.278 306.719 202.869 306.991 202.461C307.263 202.052 307.536 201.644 307.808 201.235Z" fill="#F99893"/>
<path d="M301.725 191.99C301.725 191.99 299.123 191.491 302.331 189.917C305.538 188.343 313.376 187.435 317.477 190.946C317.477 190.946 318.854 189.176 320.094 189.947C321.335 190.719 318.808 191.581 318.808 191.581C318.808 191.581 320.533 191.914 320.881 192.883C321.123 193.594 320.064 193.382 319.504 193.231C320.442 193.624 323.211 196.227 319.625 203.368C318.99 203.066 314.874 197.195 314.874 197.195C314.874 197.195 306.598 199.919 308.111 197.664C308.111 197.664 298.472 200.085 300.802 195.712C300.787 195.742 297.247 195.198 301.725 191.99Z" fill="#07085B"/>
<path d="M319.61 203.384C319.61 203.384 318.99 202.9 318.037 203.263C317.083 203.611 316.478 205.759 316.478 205.759C316.478 205.759 313.361 208.316 314.874 197.18C316.372 186.24 318.445 198.996 318.445 198.996L319.61 203.384Z" fill="#07085B"/>
<path d="M298.23 168.794L296.883 168.658C297.126 168.522 297.398 168.461 297.701 168.492L331.518 171.82C333.289 172.002 334.59 173.409 334.439 174.983L334.257 176.783C334.106 178.357 332.547 179.477 330.777 179.31L297.337 176.012L298.23 168.794Z" fill="#E03268"/>
<path d="M331.428 176.496L331.609 174.695C331.76 173.122 330.459 171.715 328.689 171.533L329.415 171.609C331.185 171.79 332.487 173.197 332.335 174.771L332.154 176.572C332.003 178.145 330.444 179.265 328.674 179.098L327.963 179.023C329.733 179.204 331.276 178.07 331.428 176.496Z" fill="#FEB546"/>
<path d="M323.514 175.724L323.696 173.923C323.847 172.35 322.546 170.943 320.775 170.761L321.502 170.837C323.272 171.003 324.573 172.425 324.422 173.999L324.24 175.8C324.089 177.373 322.53 178.493 320.76 178.326L320.049 178.251C321.804 178.417 323.363 177.282 323.514 175.724Z" fill="#FEB546"/>
<path d="M317.462 170.444C319.156 170.61 320.412 171.957 320.261 173.455L320.064 175.497C319.913 176.995 318.43 178.085 316.735 177.918L295.673 175.845L295.718 175.391L295.809 175.407L301.211 175.482L302.664 171.82C302.664 171.82 300.787 169.536 300.651 169.475C300.515 169.415 296.46 168.84 296.46 168.84L296.369 168.825L296.414 168.371L317.462 170.444Z" fill="#FF5B7E"/>
<path d="M297.398 172.229C297.61 170.035 296.43 168.84 296.43 168.84L316.962 170.852C318.521 171.003 319.671 172.244 319.535 173.621L319.383 175.195C319.247 176.572 317.885 177.57 316.327 177.419L295.794 175.406C295.794 175.406 297.126 174.998 297.398 172.229Z" fill="#DAEEF7"/>
<path d="M319.55 173.636L319.398 175.21C319.383 175.422 319.323 175.618 319.262 175.8C318.717 174.226 317.537 172.653 315.056 171.941C309.261 170.277 296.46 168.855 296.46 168.855L316.993 170.867C318.536 171.018 319.686 172.259 319.55 173.636Z" fill="#DAEEF7"/>
<path d="M257.225 220.724L255.833 223.841C255.712 224.098 255.833 224.4 256.09 224.522L263.368 227.79C263.898 228.032 264.397 227.427 264.095 226.942L261.28 222.554C261.265 222.539 259.041 222.948 257.225 220.724Z" fill="#55769F"/>
<path d="M247.965 220.724L246.573 223.841C246.452 224.098 246.573 224.4 246.83 224.522L254.108 227.79C254.638 228.032 255.137 227.427 254.834 226.942L252.02 222.554C252.005 222.539 249.781 222.948 247.965 220.724Z" fill="#55769F"/>
<path d="M232.229 134.961L231.457 139.818L229.823 133.342C229.823 133.342 232.123 132.223 232.213 132.631C232.319 133.025 232.229 134.961 232.229 134.961Z" fill="#07085B"/>
<path d="M219.216 145.417L218.505 153.815L225.919 153.452L225.057 146.022L219.216 145.417Z" fill="#FFC0BB"/>
<path d="M225.465 149.548L225.057 146.007L219.201 145.402L218.959 148.307C220.124 149.472 222.212 150.682 225.465 149.548Z" fill="#F99893"/>
<path d="M230.004 139.758C229.566 140.681 229.793 141.71 230.534 142.073C231.275 142.436 232.229 141.967 232.683 141.044C233.121 140.121 232.894 139.092 232.153 138.729C231.412 138.366 230.458 138.835 230.004 139.758Z" fill="#F99893"/>
<path d="M231.079 140.424C231.124 140.182 231.17 139.94 231.23 139.713C231.457 138.759 231.518 137.73 231.366 136.671C230.852 133.237 228.083 130.498 224.648 130.014C220.018 129.378 215.933 132.813 215.63 137.352C215.146 137.05 214.601 136.944 214.102 137.14C213.133 137.503 212.725 138.774 213.164 139.97C213.618 141.18 214.752 141.861 215.721 141.498C215.857 141.453 215.978 141.377 216.084 141.301C216.235 145.19 219.216 148.383 223.014 148.564C224.875 148.655 226.6 148.004 227.947 146.87C229.793 145.523 230.716 142.663 231.079 140.424Z" fill="#FFC0BB"/>
<path d="M225.314 137.882C225.329 138.336 225.329 138.774 225.359 139.213C225.39 139.637 225.435 140.091 225.601 140.393C225.768 140.635 225.904 140.787 225.919 141.089C225.934 141.392 225.768 141.664 225.571 141.816C225.163 142.149 224.648 142.194 224.209 142.088C224.648 142.012 225.072 141.861 225.329 141.574C225.45 141.422 225.526 141.271 225.495 141.12C225.48 140.953 225.42 140.923 225.223 140.635C225.087 140.393 225.042 140.151 225.011 139.909C224.996 139.667 224.996 139.44 225.011 139.213C225.042 138.759 225.147 138.305 225.314 137.882Z" fill="#F99893"/>
<path d="M222.681 138.381C222.726 138.85 222.318 139.228 221.849 139.138C221.561 139.077 221.334 138.835 221.304 138.532C221.259 138.063 221.667 137.685 222.136 137.776C222.424 137.836 222.651 138.078 222.681 138.381Z" fill="#333333"/>
<path d="M228.597 139.047C228.643 139.516 228.234 139.894 227.765 139.803C227.478 139.743 227.251 139.501 227.22 139.198C227.175 138.729 227.583 138.351 228.053 138.442C228.34 138.502 228.567 138.759 228.597 139.047Z" fill="#333333"/>
<path d="M221.531 143.162C221.713 143.314 221.909 143.465 222.106 143.601C222.303 143.737 222.515 143.858 222.727 143.964C223.15 144.176 223.604 144.327 224.073 144.373C224.542 144.433 225.011 144.388 225.465 144.267C225.919 144.146 226.358 143.934 226.767 143.677C226.328 144.055 225.949 144.237 225.511 144.403C225.042 144.554 224.573 144.615 224.058 144.554C223.574 144.494 223.09 144.327 222.681 144.085C222.227 143.843 221.834 143.541 221.531 143.162Z" fill="#F99893"/>
<path d="M223.559 136.928C223.211 136.823 222.878 136.732 222.545 136.686C222.212 136.641 221.894 136.626 221.592 136.671C221.274 136.717 220.971 136.777 220.669 136.913C220.442 136.989 219.882 137.307 219.731 137.382C219.897 137.065 220.154 136.732 220.457 136.55C220.76 136.323 221.138 136.187 221.531 136.142C221.925 136.096 222.318 136.157 222.666 136.293C222.999 136.414 223.332 136.626 223.559 136.928Z" fill="#07085B"/>
<path d="M226.6 137.276C226.872 137.034 227.236 136.883 227.599 136.807C227.977 136.731 228.37 136.762 228.749 136.883C229.112 137.004 229.46 137.216 229.717 137.488C229.974 137.73 230.156 138.108 230.262 138.456C230.126 138.366 229.641 137.942 229.43 137.821C229.157 137.624 228.87 137.503 228.567 137.397C228.265 137.306 227.947 137.246 227.614 137.231C227.311 137.216 226.963 137.231 226.6 137.276Z" fill="#07085B"/>
<path d="M223.286 184.803C223.286 184.803 221.743 195.289 231.866 197.119C241.988 198.95 254.592 198.406 254.592 198.406L256.347 222.494L261.643 222.767C261.643 222.767 275.261 189.312 256.408 184.077L239.476 184.152L232.501 183.653C232.501 183.653 225.45 181.913 225.359 182.246C225.284 182.563 223.453 184.969 223.286 184.803Z" fill="#070852"/>
<path d="M213.981 184.863C213.981 184.863 212.437 195.349 222.56 197.18C232.683 199.011 245.287 198.466 245.287 198.466L247.042 222.555L252.338 222.827C252.338 222.827 265.956 189.372 247.102 184.137L230.171 184.213L223.195 183.713C223.195 183.713 216.144 181.973 216.054 182.306C215.978 182.624 214.147 185.03 213.981 184.863Z" fill="#10116B"/>
<path d="M226.736 150.455C226.736 150.455 233.711 151.348 235.482 152.785C237.252 154.223 245.771 175.376 245.771 175.376L238.69 183.683L223.634 183.789C223.634 183.789 212.346 189.872 205.25 184.122C198.169 178.372 201.815 158.323 205.916 154.011C210.016 149.699 217.325 149.805 217.325 149.805C217.325 149.805 223.967 154.45 226.736 150.455Z" fill="#FF5B7E"/>
<path d="M213.239 160.972C213.481 162.122 213.648 163.287 213.754 164.467C213.814 165.057 213.844 165.647 213.875 166.237C213.89 166.827 213.905 167.417 213.905 168.008C213.875 169.188 213.814 170.368 213.618 171.548C213.421 172.713 213.133 173.878 212.589 174.938C212.952 173.818 213.133 172.668 213.27 171.503C213.391 170.338 213.436 169.173 213.451 168.008C213.481 166.843 213.451 165.677 213.406 164.497C213.345 163.332 213.3 162.152 213.239 160.972Z" fill="white"/>
<path d="M234.105 160.2C234.423 161.91 234.756 163.619 235.104 165.329C235.452 167.039 235.815 168.734 236.223 170.428C236.632 172.123 237.086 173.787 237.63 175.437C237.903 176.254 238.205 177.071 238.569 177.858C238.917 178.644 239.34 179.416 239.9 180.082C239.265 179.477 238.78 178.72 238.357 177.964C237.948 177.192 237.585 176.39 237.282 175.558C236.965 174.741 236.707 173.908 236.45 173.061C236.208 172.229 235.981 171.382 235.769 170.534C235.573 169.687 235.376 168.824 235.209 167.977C235.043 167.115 234.877 166.267 234.74 165.405C234.468 163.68 234.241 161.94 234.105 160.2Z" fill="white"/>
<path d="M249.206 164.028C247.919 162.016 237.358 158.611 237.358 158.611C237.358 161.864 237.358 162 237.358 162L248.101 165.753L249.206 164.028Z" fill="#EDEDED"/>
<path d="M248.449 163.892L236.193 158.233V160.427L248.147 164.739L248.449 163.892Z" fill="white"/>
<path d="M247.768 163.892L234.831 158.989V162.772L247.632 164.739L247.768 163.892Z" fill="#EDEDED"/>
<path d="M249.206 163.498C249.206 163.498 251.702 157.673 252.716 156.462C252.716 160.306 251.157 165.132 251.157 165.132L249.206 163.498Z" fill="white"/>
<path d="M250.295 163.756L253.321 156.115V159.761L251.248 164.739L250.295 163.756Z" fill="#EDEDED"/>
<path d="M251.248 163.892L254.532 156.462V159.11L251.248 163.892Z" fill="white"/>
<path d="M251.248 186.785L255.394 179.628V156.735L251.248 163.892V186.785Z" fill="#26426E"/>
<path d="M232.092 183.32L246.815 186.785V163.892L232.092 160.427V183.32Z" fill="#55769F"/>
<path d="M246.815 163.892C248.116 163.271 250.825 163.483 251.248 163.892C251.021 165.193 247.133 165.45 246.815 163.892Z" fill="#E0E0E0"/>
<path d="M246.815 186.785C246.815 187.345 251.263 187.345 251.263 186.785V163.892C250.81 164.558 247.314 164.542 246.815 163.892V186.785Z" fill="#3A5782"/>
<path d="M237.615 178.887C237.57 178.539 234.907 178.145 233.939 178.1C233.197 178.054 228.28 177.903 226.615 177.827L226.736 178.251L226.706 180.142L226.434 181.398C227.901 181.489 231.487 181.625 232.229 181.777C233.227 181.973 234.952 182.73 234.952 182.73C234.952 182.73 235.679 182.563 234.756 182.17C234.029 181.852 233.5 181.368 233.288 181.126C233.167 180.99 233.303 180.733 233.394 180.763C235.875 181.413 236.133 181.519 236.133 181.519C236.133 181.519 239.053 181.504 236.148 180.838C234.408 180.445 233.787 180.218 233.621 180.021C233.56 179.946 233.666 179.658 233.772 179.643C235.285 179.552 237.994 180.082 237.252 179.734C236.647 179.446 234.74 179.129 233.999 179.023C233.954 179.023 233.878 178.735 234.09 178.72C235.527 178.599 237.646 179.219 237.615 178.887Z" fill="#FFC0BB"/>
<path d="M211.529 174.635C212.135 174.786 212.74 174.953 213.36 175.089C213.965 175.24 214.586 175.346 215.206 175.467C216.447 175.694 217.673 175.891 218.913 176.057C220.154 176.224 221.395 176.375 222.651 176.496C223.891 176.617 225.162 176.723 226.388 176.799L226.554 176.814L226.585 176.95C226.691 177.374 226.766 177.767 226.812 178.191C226.857 178.599 226.887 179.023 226.887 179.447C226.887 179.87 226.842 180.279 226.781 180.703C226.706 181.111 226.585 181.52 226.418 181.913L226.403 181.943L226.373 181.958L225.011 182.881C224.557 183.184 224.103 183.487 223.634 183.789C224.058 183.441 224.497 183.108 224.935 182.775L226.237 181.777L226.191 181.822C226.327 181.444 226.418 181.051 226.479 180.657C226.524 180.264 226.554 179.855 226.539 179.447C226.524 179.038 226.479 178.645 226.433 178.236C226.373 177.843 226.297 177.434 226.191 177.056L226.388 177.207C225.737 177.192 225.117 177.147 224.481 177.101C223.846 177.056 223.226 177.011 222.59 176.935C221.334 176.799 220.078 176.647 218.838 176.451C217.597 176.254 216.356 176.012 215.131 175.709C214.525 175.558 213.905 175.407 213.3 175.21C212.725 175.059 212.119 174.847 211.529 174.635Z" fill="white"/>
<path d="M232.38 130.361C232.38 130.361 234.71 130.437 232.259 128.47C229.823 126.503 223.271 124.203 219.065 126.412C219.065 126.412 218.232 124.627 217.007 125.05C215.796 125.474 217.794 126.7 217.794 126.7C217.794 126.7 216.25 126.654 215.766 127.411C215.418 127.971 216.371 128.001 216.886 127.971C216.008 128.122 212.619 130.255 214.314 137.08C214.919 136.943 218.354 131.965 218.354 131.965C218.354 131.965 226.222 136.338 225.435 132.858C225.435 132.858 233.575 137.942 232.425 133.736C232.456 133.751 235.603 133.978 232.38 130.361Z" fill="#07085B"/>
<path d="M214.329 137.125C214.329 137.125 214.979 136.898 215.675 137.458C216.371 138.018 216.296 139.969 216.296 139.969C216.296 139.969 219.64 142.118 219.292 133.009C218.913 123.31 216.508 133.781 216.508 133.781L214.329 137.125Z" fill="#07085B"/>
<path d="M178.045 319.06L179.437 322.177C179.558 322.435 179.437 322.737 179.179 322.858L171.901 326.126C171.372 326.369 170.857 325.763 171.175 325.279L173.989 320.891C173.989 320.876 176.229 321.285 178.045 319.06Z" fill="#07085B"/>
<path d="M187.486 318.697L188.878 321.814C188.999 322.071 188.878 322.374 188.621 322.495L181.343 325.763C180.814 326.005 180.314 325.4 180.617 324.916L183.431 320.528C183.431 320.513 185.671 320.921 187.486 318.697Z" fill="#07085B"/>
<path d="M195.99 217.955C195.99 217.955 188.046 216.623 185.383 225.49L188.666 230.408C188.666 230.408 195.566 227.76 195.596 227.502C195.627 227.245 195.99 217.955 195.99 217.955Z" fill="#FF5500"/>
<path d="M208.776 221.949C208.776 221.949 211.091 225.429 212.271 226.806C215.236 230.286 215.63 229.197 217.476 232.178C219.473 235.401 217.446 237.428 216.311 238.351C215.161 239.274 217.082 242.724 214.949 244.646C212.15 247.173 209.562 244.797 207.641 246.204C205.719 247.611 205.295 249.715 200.741 249.321C196.187 248.928 196.232 234.024 196.232 234.024C196.232 234.024 199.969 226.125 200.105 226.05C200.242 225.989 208.776 221.949 208.776 221.949Z" fill="#FF5500"/>
<path d="M185.398 225.49C185.398 225.49 185.126 228.229 184.218 229.803C181.948 233.767 180.723 232.466 179.452 235.749C178.09 239.29 180.45 240.894 181.752 241.605C183.053 242.301 181.797 246.038 184.263 247.536C187.471 249.503 189.574 246.674 191.738 247.718C193.887 248.747 194.689 250.729 199.092 249.503C203.495 248.262 200.696 233.631 200.696 233.631C200.696 233.631 195.566 226.549 195.4 226.519C195.233 226.459 185.398 225.49 185.398 225.49Z" fill="#FF5500"/>
<path d="M196.913 243.133C196.913 243.133 204.524 241.726 208.019 241.847C211.514 241.968 205.901 251.062 205.901 251.062L200.181 251.183C200.181 251.183 196.671 247.264 196.913 246.81C197.14 246.356 196.898 243.375 196.898 243.375L196.913 243.133Z" fill="#FFC0BB"/>
<path d="M203.692 235.885L205.704 241.983C205.704 241.983 203.964 245.599 198.608 244.041C198.608 244.041 199.213 242.785 198.396 240.182C197.564 237.504 203.692 235.885 203.692 235.885Z" fill="#FFC0BB"/>
<path opacity="0.6" d="M203.692 235.885L204.63 238.73C204.07 240.803 202.254 242.225 198.82 242.664C198.82 242.043 198.729 241.211 198.396 240.167C197.564 237.504 203.692 235.885 203.692 235.885Z" fill="#FC8D84"/>
<path d="M191.451 231.421C191.89 232.405 191.602 233.494 190.8 233.842C190.013 234.19 189.015 233.676 188.576 232.677C188.137 231.694 188.425 230.604 189.226 230.256C190.028 229.908 191.027 230.423 191.451 231.421Z" fill="#F99893"/>
<path d="M191.239 235.915C190.724 234.644 190.452 233.283 190.301 232.087C190.27 231.83 190.225 231.573 190.165 231.331C189.953 230.317 189.938 229.227 190.149 228.108C190.83 224.507 193.841 221.722 197.503 221.359C202.421 220.86 206.597 224.643 206.718 229.454C207.232 229.152 207.822 229.061 208.337 229.288C209.336 229.712 209.729 231.058 209.214 232.314C208.7 233.57 207.459 234.251 206.461 233.827C206.324 233.767 206.188 233.691 206.082 233.6C205.78 237.701 202.511 240.954 198.487 240.984C195.445 241.014 192.48 239.184 191.239 235.915Z" fill="#FFC0BB"/>
<path d="M196.474 229.636C196.625 230.09 196.716 230.559 196.747 231.043C196.762 231.285 196.747 231.527 196.716 231.785C196.671 232.027 196.625 232.284 196.459 232.541C196.277 232.783 196.187 232.859 196.156 233.04C196.126 233.207 196.202 233.373 196.323 233.54C196.58 233.858 197.019 234.024 197.488 234.13C197.019 234.221 196.474 234.16 196.066 233.797C195.869 233.615 195.718 233.328 195.733 233.025C195.748 232.708 195.899 232.556 196.096 232.314C196.202 232.163 196.262 231.951 196.308 231.739C196.353 231.527 196.368 231.3 196.399 231.073C196.429 230.574 196.459 230.105 196.474 229.636Z" fill="#F99893"/>
<path d="M199.228 230.256C199.152 230.756 199.576 231.164 200.075 231.089C200.378 231.043 200.635 230.786 200.666 230.483C200.741 229.984 200.318 229.575 199.818 229.651C199.531 229.697 199.273 229.954 199.228 230.256Z" fill="#333333"/>
<path d="M192.979 230.725C192.903 231.224 193.327 231.633 193.826 231.557C194.129 231.512 194.386 231.255 194.432 230.952C194.507 230.453 194.084 230.044 193.584 230.12C193.266 230.165 193.024 230.423 192.979 230.725Z" fill="#333333"/>
<path opacity="0.3" d="M199.349 235.915C199.349 235.915 198.305 235.537 197.321 236.188C197.321 236.188 196.262 235.522 195.43 236.157C195.43 236.157 195.824 237.731 197.564 237.625C199.304 237.519 199.349 235.915 199.349 235.915Z" fill="#F99893"/>
<path d="M200.272 235.355C200.075 235.522 199.864 235.658 199.652 235.794C199.44 235.93 199.213 236.051 198.986 236.142C198.532 236.339 198.048 236.49 197.548 236.521C197.049 236.566 196.565 236.505 196.081 236.354C195.612 236.203 195.158 235.961 194.734 235.688C194.916 235.855 195.128 236.021 195.339 236.157C195.551 236.294 195.793 236.4 196.035 236.505C196.277 236.596 196.535 236.657 196.792 236.702C197.049 236.732 197.306 236.748 197.564 236.717C198.078 236.672 198.593 236.521 199.046 236.278C199.5 236.036 199.924 235.734 200.272 235.355Z" fill="#F99893"/>
<path d="M198.381 228.683C198.759 228.577 199.107 228.501 199.455 228.471C199.803 228.426 200.136 228.441 200.469 228.486C200.802 228.547 201.119 228.622 201.437 228.774C201.679 228.864 202.254 229.227 202.406 229.303C202.239 228.97 201.982 228.607 201.679 228.395C201.361 228.138 200.968 227.987 200.56 227.926C200.151 227.866 199.727 227.911 199.349 228.047C198.971 228.168 198.623 228.38 198.381 228.683Z" fill="#FF5500"/>
<path d="M195.143 228.94C194.855 228.667 194.492 228.501 194.099 228.41C193.705 228.319 193.282 228.335 192.888 228.44C192.495 228.562 192.116 228.758 191.844 229.046C191.557 229.288 191.36 229.681 191.224 230.044C191.36 229.954 191.889 229.515 192.116 229.409C192.404 229.212 192.722 229.091 193.039 229C193.357 228.91 193.69 228.864 194.038 228.864C194.401 228.849 194.764 228.879 195.143 228.94Z" fill="#FF5500"/>
<path d="M210.152 280.355C210.152 280.355 212.392 290.916 202.209 293.428C192.026 295.94 179.179 296.197 179.179 296.197L178.937 320.8L173.581 321.421C173.581 321.421 157.587 288.269 176.41 281.747L193.645 280.748L200.711 279.795C200.711 279.795 207.777 277.571 207.883 277.904C207.974 278.206 209.986 280.537 210.152 280.355Z" fill="#FFC0BB"/>
<path d="M219.609 279.811C219.609 279.811 221.849 290.372 211.666 292.884C201.482 295.396 188.636 295.653 188.636 295.653L188.394 320.256L183.038 320.876C183.038 320.876 167.044 287.724 185.867 281.203L203.101 280.204L210.168 279.251C210.168 279.251 217.234 277.027 217.34 277.359C217.446 277.662 219.458 279.992 219.609 279.811Z" fill="#FFC0BB"/>
<path d="M183.008 278.57C174.428 278.706 166.59 283.624 163.806 293.201C161.022 302.779 154.667 312.645 155.272 312.554C168.739 320.089 172.976 312.524 182.281 314.763C191.587 317.003 194.885 315.989 194.885 315.989C192.192 302.477 188.651 295.638 188.651 295.638C189.438 295.774 212.271 296.122 217.915 289.857C219.504 288.102 220.714 285.893 220.472 280.507C220.018 270.49 185.504 278.539 183.008 278.57Z" fill="#FEB546"/>
<path d="M185.565 296.349C185.852 296.288 186.155 296.243 186.442 296.182C186.73 296.122 187.017 296.031 187.305 295.955C187.441 295.91 187.592 295.865 187.728 295.804C187.577 295.774 187.441 295.728 187.305 295.683C187.032 295.577 186.76 295.441 186.518 295.274C186.276 295.093 186.049 294.911 185.867 294.699C185.671 294.488 185.504 294.246 185.353 294.003L185.64 294.321C185.746 294.412 185.837 294.518 185.958 294.609C186.17 294.805 186.397 294.957 186.639 295.108C186.881 295.259 187.138 295.365 187.396 295.456C187.653 295.547 187.94 295.607 188.197 295.622L188.667 295.638L188.243 295.834C187.955 295.97 187.668 296.061 187.38 296.137C187.093 296.213 186.79 296.273 186.488 296.334C186.185 296.379 185.898 296.424 185.595 296.44C185.292 296.455 184.99 296.47 184.702 296.47C184.975 296.439 185.277 296.409 185.565 296.349Z" fill="#DAEEF7"/>
<path d="M188.258 257.961C188.258 257.961 187.562 275.211 185.625 277.919L196.292 275.498V256.72L188.258 257.961Z" fill="#FFC0BB"/>
<path d="M192.57 260.322C192.57 260.322 194.295 264.664 194.568 266.964C195.233 272.699 194.507 276.739 193.327 279.992C191.662 284.562 204.539 282.821 204.842 282.837C218.444 283.154 218.308 282.61 218.308 282.61L220.472 280.87C220.169 275.286 219.398 270.444 219.519 265.466L219.64 260.322L219.019 255.132L199.773 253.619L192.57 260.322Z" fill="#FEB546"/>
<path d="M185.988 264.15C187.168 262.319 196.792 259.217 196.792 259.217C196.792 262.183 196.792 262.319 196.792 262.319L186.987 265.739L185.988 264.15Z" fill="#EDEDED"/>
<path d="M185.988 264.15C187.168 262.319 196.792 259.217 196.792 259.217C196.792 262.183 196.792 262.319 196.792 262.319L186.987 265.739L185.988 264.15Z" fill="#EDEDED"/>
<path d="M186.684 264.029L197.866 258.869V260.882L186.957 264.816L186.684 264.029Z" fill="white"/>
<path d="M187.305 264.029L199.107 259.565V263.015L187.426 264.816L187.305 264.029Z" fill="#EDEDED"/>
<path d="M185.988 263.681C185.988 263.681 183.719 258.355 182.78 257.25C182.78 260.746 184.203 265.149 184.203 265.149L185.988 263.681Z" fill="white"/>
<path d="M184.99 263.908L182.236 256.948V260.261L184.127 264.816L184.99 263.908Z" fill="#EDEDED"/>
<path d="M184.127 264.029L181.116 257.25V259.671L184.127 264.029Z" fill="white"/>
<path d="M184.127 284.925L181.373 278.57V257.689L184.127 264.029V284.925Z" fill="#F5577A"/>
<path d="M201.604 281.762L188.167 284.925V264.029L201.604 260.882V281.762Z" fill="#FF5B7E"/>
<path d="M188.167 264.029C186.987 263.469 184.505 263.666 184.127 264.029C184.339 265.224 187.864 265.466 188.167 264.029Z" fill="#E0E0E0"/>
<path d="M188.167 284.925C188.167 285.439 184.112 285.439 184.112 284.925V264.044C184.521 264.649 187.713 264.634 188.167 264.044V284.925Z" fill="#DE4B6C"/>
<path d="M223.68 255.873L214.54 260.11C214.54 260.11 213.829 271.806 213.39 272.32C212.589 273.259 204.493 275.937 200.227 276.724C199.546 276.845 198.834 276.799 198.169 276.557C196.05 275.816 192.313 274.469 191.708 274.257C190.785 273.939 188.167 273.319 187.986 273.637C187.834 273.924 190.028 274.136 191.314 274.787C191.496 274.878 191.329 275.105 191.284 275.089C190.558 274.923 188.666 274.514 188.001 274.56C187.184 274.605 189.892 275.12 191.269 275.755C191.36 275.801 191.375 276.103 191.284 276.164C191.072 276.285 190.406 276.27 188.636 275.997C185.686 275.528 188.409 276.633 188.409 276.633C188.409 276.633 188.682 276.633 191.239 276.935C191.329 276.951 191.36 277.223 191.193 277.314C190.906 277.465 190.24 277.722 189.438 277.752C188.439 277.783 189.045 278.206 189.045 278.206C189.045 278.206 190.936 278.146 191.935 278.327C192.676 278.464 196.065 279.659 197.458 280.113L197.624 279.901C199.561 280.355 217.415 281.656 219.579 276.36C223.589 266.616 223.68 255.873 223.68 255.873Z" fill="#FFC0BB"/>
<path d="M196.913 243.133C196.913 243.133 202.088 249.17 208.019 241.847C208.019 241.847 214.51 241.317 219.292 244.706C224.073 248.096 226.933 255.722 226.933 255.722C226.933 255.722 220.063 260.291 214.54 260.291L201.573 255.646L192.585 260.291C192.585 260.291 188.409 260.019 184.884 258.218C184.869 258.234 185.474 246.114 196.913 243.133Z" fill="#FEB546"/>
<path d="M212.952 253.437C213.179 254.178 213.375 254.935 213.572 255.691C213.95 257.174 214.283 258.581 214.541 260.11C215.01 260.125 215.539 260.064 216.008 259.989C218.505 259.55 220.139 258.839 222.363 257.931C225.692 256.418 225.238 256.554 226.918 255.737C224.966 256.978 223.922 257.522 222.499 258.233C220.548 259.141 218.686 259.973 216.069 260.427C214.919 260.579 214.601 260.548 214.162 260.503C213.996 259.383 213.799 258.249 213.27 255.752L212.77 253.467L212.256 251.182C212.513 251.939 212.74 252.695 212.952 253.437Z" fill="#07085B"/>
<path d="M192.404 254.844C192.253 255.631 192.147 256.66 192.192 257.613C192.207 258.067 192.54 259.323 192.918 260.594C192.843 260.624 192.782 260.655 192.706 260.67C192.268 259.384 191.889 258.113 191.829 257.644C191.708 256.675 191.799 255.707 191.95 254.769C192.131 253.815 192.374 252.923 192.737 252.015C193.085 251.122 193.478 250.26 193.993 249.458C193.66 250.35 193.342 251.228 193.07 252.136C192.797 253.014 192.555 253.921 192.404 254.844Z" fill="#07085B"/>
<path d="M206.703 229.439C206.703 229.439 197.821 227.291 193.569 221.253C193.569 221.253 193.493 215.761 201.649 217.002C209.593 218.227 211.439 225.944 206.703 229.439Z" fill="#FF5500"/>
</svg>
