<svg width="396" height="344" viewBox="0 0 396 344" fill="none" xmlns="http://www.w3.org/2000/svg">
<path d="M396 0H0V344H396V0Z" fill="url(#paint0_radial_262_4375)"/>
<mask id="mask0_262_4375" style="mask-type:alpha" maskUnits="userSpaceOnUse" x="0" y="123" width="396" height="221">
<path d="M396 123H0V344H396V123Z" fill="url(#paint1_radial_262_4375)"/>
</mask>
<g mask="url(#mask0_262_4375)">
<g style="mix-blend-mode:overlay" opacity="0.25">
<path d="M129.224 272.267H113.553V285.339C108.507 286.333 103.767 288.321 99.6393 291.149L90.3891 281.899L79.3043 292.984L88.5544 302.234C85.8023 306.362 83.8147 311.102 82.7444 316.147H69.6719V331.819H82.8208C83.8147 336.865 85.8023 341.604 88.6309 345.733L79.3807 354.983L90.4656 366.068L99.6393 356.817C103.767 359.57 108.507 361.557 113.553 362.627V375.7H129.224V362.627C134.27 361.634 139.01 359.646 143.138 356.817L152.388 366.068L163.473 354.983L154.223 345.733C156.975 341.604 158.963 336.865 160.033 331.819H173.105V316.147H160.033C159.039 311.102 157.051 306.362 154.223 302.234L163.473 292.984L152.465 281.899L143.214 291.149C139.086 288.397 134.346 286.409 129.301 285.339V272.267H129.224ZM142.297 323.945C142.297 335.489 132.97 344.815 121.427 344.815C109.883 344.815 100.557 335.489 100.557 323.945C100.557 312.401 109.883 303.075 121.427 303.075C132.97 303.151 142.297 312.478 142.297 323.945Z" fill="white"/>
</g>
<g style="mix-blend-mode:overlay" opacity="0.29">
<path d="M222.184 153.161H211.634V162.029C208.194 162.717 204.983 164.093 202.231 165.928L195.963 159.659L188.471 167.151L194.739 173.42C192.905 176.248 191.529 179.459 190.841 182.823H181.973V193.373H190.841C191.529 196.813 192.905 200.024 194.739 202.776L188.471 209.044L195.963 216.536L202.231 210.268C205.06 212.102 208.271 213.478 211.634 214.166V223.034H222.184V214.243C225.624 213.555 228.835 212.179 231.587 210.344L237.856 216.613L245.348 209.121L239.079 202.852C240.914 200.024 242.29 196.813 242.978 193.449H251.846V182.823H242.978C242.29 179.383 240.914 176.172 239.079 173.42L245.348 167.151L237.856 159.659L231.587 165.928C228.759 164.093 225.548 162.717 222.184 162.029V153.161ZM230.975 188.098C230.975 195.895 224.63 202.164 216.909 202.164C209.112 202.164 202.843 195.819 202.843 188.098C202.843 180.3 209.188 174.032 216.909 174.032C224.707 174.032 230.975 180.3 230.975 188.098Z" fill="white"/>
</g>
<g style="mix-blend-mode:overlay" opacity="0.2">
<path d="M335.327 288.779H322.483V299.482C318.355 300.323 314.456 301.928 311.016 304.222L303.448 296.653L294.351 305.751L301.919 313.319C299.626 316.759 298.02 320.581 297.179 324.786H286.477V337.629H297.179C298.02 341.757 299.626 345.656 301.919 349.096L294.351 356.665L303.448 365.762L311.016 358.194C314.456 360.487 318.279 362.092 322.483 362.933V373.636H335.327V362.933C339.455 362.092 343.353 360.487 346.794 358.194L354.362 365.762L363.459 356.665L355.891 349.096C358.184 345.656 359.79 341.834 360.631 337.629H371.333V324.786H360.631C359.79 320.658 358.184 316.759 355.891 313.319L363.459 305.751L354.362 296.653L346.794 304.222C343.353 301.928 339.531 300.323 335.327 299.482V288.779ZM346.029 331.131C346.029 340.611 338.384 348.255 328.905 348.255C319.425 348.255 311.781 340.611 311.781 331.131C311.781 321.652 319.425 314.007 328.905 314.007C338.384 314.083 346.029 321.728 346.029 331.131Z" fill="white"/>
</g>
<g style="mix-blend-mode:overlay" opacity="0.45">
<path d="M309.257 181.6H303.065V186.798C301.077 187.181 299.166 188.021 297.484 189.092L293.815 185.422L289.381 189.856L293.05 193.526C291.98 195.208 291.139 197.042 290.757 199.106H285.559V205.299H290.757C291.139 207.286 291.98 209.197 293.05 210.879L289.381 214.549L293.815 218.983L297.484 215.313C299.166 216.383 301.001 217.224 303.065 217.607V222.805H309.257V217.607C311.245 217.224 313.156 216.383 314.838 215.313L318.507 218.983L322.941 214.549L319.272 210.879C320.342 209.197 321.183 207.363 321.565 205.299H326.764V199.106H321.565C321.183 197.119 320.342 195.208 319.272 193.526L322.941 189.856L318.507 185.422L314.838 189.092C313.156 188.021 311.321 187.181 309.257 186.798V181.6ZM314.456 202.164C314.456 206.751 310.71 210.497 306.123 210.497C301.536 210.497 297.79 206.751 297.79 202.164C297.79 197.577 301.536 193.831 306.123 193.831C310.71 193.831 314.456 197.577 314.456 202.164Z" fill="white"/>
</g>
<g style="mix-blend-mode:overlay">
<path d="M239.154 286.409V298.794H227.84C227.075 303.381 225.47 307.815 223.1 311.866L231.892 319.205L223.941 328.685L215.226 321.346C211.71 324.404 207.658 326.774 203.224 328.379L205.211 339.617L192.98 341.757L190.992 330.596H190.916C190.686 330.596 190.381 330.596 190.151 330.596C185.717 330.596 181.36 329.832 177.155 328.303L171.498 338.088L160.719 331.896L166.3 322.263C162.554 319.282 159.496 315.689 157.05 311.561L146.653 315.383L142.372 303.686L152.616 299.941C151.698 295.277 151.622 290.537 152.463 285.645L142.219 281.899L146.5 270.202L156.591 273.872C158.884 269.667 162.019 265.921 165.765 262.864L160.337 253.46L171.116 247.268L176.467 256.595C180.825 254.913 185.412 254.072 190.075 254.072C190.228 254.072 190.304 254.072 190.457 254.072H190.534L192.445 243.293L204.676 245.433L202.765 256.213C207.276 257.818 211.404 260.188 214.997 263.322L223.559 256.136L231.509 265.616L222.947 272.802C225.394 276.853 226.999 281.287 227.764 285.951H239.154V286.409ZM238.39 298.106V287.25H227.152L227.075 286.944C226.311 282.128 224.706 277.618 222.183 273.413L222.03 273.107L230.516 265.998L223.482 257.665L215.073 264.775L214.844 264.545C211.098 261.258 206.893 258.812 202.306 257.283L202.001 257.206L203.912 246.58L193.209 244.669L191.298 255.295H190.992C190.839 255.295 190.763 255.295 190.61 255.295C190.457 255.295 190.381 255.295 190.228 255.295C185.564 255.295 180.978 256.136 176.62 257.894L176.314 258.047L170.963 248.797L161.56 254.225L166.911 263.475L166.682 263.704C162.783 266.839 159.649 270.661 157.355 275.019L157.202 275.324L147.188 271.655L143.442 281.899L153.533 285.568L153.457 285.874C152.539 290.92 152.616 295.659 153.609 300.476L153.686 300.781L143.518 304.451L147.264 314.695L157.585 310.949L157.738 311.255C160.184 315.536 163.318 319.205 167.217 322.187L167.446 322.416L161.942 331.972L171.345 337.4L176.926 327.767L177.232 327.844C181.36 329.373 185.717 330.137 190.228 330.137C190.457 330.137 190.686 330.137 190.992 330.137H191.757L193.668 341.222L204.371 339.311L202.383 328.15L202.689 328.073C207.199 326.468 211.327 324.021 214.997 320.811L215.226 320.581L223.865 327.844L230.898 319.511L222.183 312.249L222.336 311.943C224.782 307.815 226.464 303.304 227.152 298.488L227.228 298.182H238.39V298.106ZM219.431 292.602C219.431 308.732 206.282 321.881 190.151 321.881C174.021 321.881 160.872 308.732 160.872 292.602C160.872 276.471 174.021 263.322 190.151 263.322C206.282 263.399 219.431 276.471 219.431 292.602ZM161.636 292.602C161.636 308.273 174.403 321.116 190.151 321.116C205.823 321.116 218.666 308.35 218.666 292.602C218.666 276.93 205.9 264.087 190.151 264.087C174.48 264.163 161.636 276.93 161.636 292.602Z" fill="white"/>
</g>
<path d="M162.325 207.668H145.43V221.811C139.926 222.881 134.881 225.098 130.37 228.08L120.356 218.065L108.43 229.991L118.444 240.006C115.463 244.516 113.322 249.562 112.176 255.066H98.1094V271.961H112.252C113.322 277.465 115.539 282.51 118.521 287.021L108.506 297.036L120.432 308.961L130.447 298.947C134.957 301.928 140.003 304.069 145.507 305.215V319.358H162.325V305.215C167.829 304.145 172.875 301.928 177.385 298.947L187.4 308.961L199.326 297.036L189.311 287.021C192.293 282.51 194.433 277.465 195.58 271.961H209.723V255.066H195.58C194.51 249.562 192.293 244.516 189.311 240.006L199.326 229.991L187.4 218.065L177.385 228.08C172.875 225.098 167.829 222.958 162.325 221.811V207.668V207.668ZM176.392 263.475C176.392 275.86 166.301 285.951 153.916 285.951C141.532 285.951 131.44 275.86 131.44 263.475C131.44 251.091 141.532 241 153.916 241C166.301 241 176.392 251.014 176.392 263.475Z" fill="url(#paint2_linear_262_4375)"/>
<g style="mix-blend-mode:overlay">
<path d="M83.5848 285.415V299.482H72.4235C71.5825 303.534 69.9771 307.432 67.6837 310.949L75.5578 318.823L65.6196 328.761L57.7455 320.887C54.229 323.181 50.4066 324.786 46.2784 325.627V336.788H32.2885V325.627C28.2368 324.786 24.338 323.181 20.8214 320.887L12.9473 328.761L3.00913 318.823L10.9597 310.872C8.66625 307.356 7.06085 303.534 6.21993 299.405H-4.94141V285.415H6.21993C7.06085 281.364 8.66625 277.465 10.9597 273.948L3.08558 266.074L13.0238 256.136L20.8978 264.087C24.4144 261.793 28.2368 260.188 32.365 259.347V248.186H46.3549V259.347C50.4066 260.188 54.3054 261.793 57.822 264.087L65.6961 256.213L75.6343 266.151L67.7602 274.025C70.0536 277.541 71.659 281.364 72.4999 285.492H83.5848V285.415ZM82.8968 298.717V286.18H71.8119L71.7354 285.874C70.8945 281.67 69.2891 277.771 66.8428 274.178L66.6899 273.948L74.4875 266.151L65.6196 257.283L57.8984 265.08L57.6691 264.928C54.0761 262.558 50.1772 260.952 45.9726 260.035L45.6668 259.958V248.874H33.053V259.958L32.7472 260.035C28.5426 260.876 24.6438 262.481 21.0507 264.928L20.8214 265.08L13.0238 257.283L4.0794 266.074L11.877 273.872L11.7241 274.101C9.35428 277.694 7.74888 281.593 6.83151 285.798L6.75506 286.104H-4.17693V298.717H6.90796L6.9844 299.023C7.82533 303.228 9.43072 307.127 11.877 310.72L12.0299 310.949L4.0794 318.823L12.9473 327.691L20.745 319.893L20.9743 320.046C24.5673 322.416 28.4662 324.021 32.6708 324.939L32.9766 325.015V336.1H45.5139V325.015L45.8197 324.939C50.0243 324.098 53.9232 322.493 57.5162 320.046L57.7455 319.893L65.5432 327.691L74.4111 318.823L66.7663 311.025L66.9192 310.796C69.2891 307.203 70.8945 303.304 71.8119 299.1L71.8883 298.794H82.8968V298.717ZM57.4398 292.449C57.4398 302.387 49.3363 310.49 39.3981 310.49C29.46 310.49 21.3565 302.387 21.3565 292.449C21.3565 282.51 29.46 274.407 39.3981 274.407C49.3363 274.407 57.4398 282.51 57.4398 292.449ZM21.9681 292.449C21.9681 302.005 29.7658 309.802 39.3217 309.802C48.8776 309.802 56.6753 302.005 56.6753 292.449C56.6753 282.893 48.8776 275.095 39.3217 275.095C29.7658 275.095 21.9681 282.893 21.9681 292.449Z" fill="white"/>
</g>
<g style="mix-blend-mode:overlay">
<path d="M407.873 214.166V222.499H401.451C400.992 224.716 400.075 226.857 398.852 228.844L403.362 233.355L397.476 239.241L392.965 234.731C391.054 235.954 388.914 236.871 386.62 237.33V243.752H378.288V237.33C376.071 236.871 373.93 235.954 371.942 234.731L367.432 239.241L361.546 233.355L366.056 228.844C364.833 226.933 363.915 224.793 363.457 222.499H357.035V214.166H363.457C363.915 211.949 364.833 209.809 366.056 207.821L361.546 203.311L367.432 197.424L371.942 201.935C373.854 200.712 375.994 199.794 378.288 199.336V192.914H386.62V199.336C388.837 199.794 390.978 200.712 392.965 201.935L397.476 197.424L403.362 203.311L398.852 207.821C400.075 209.733 400.992 211.873 401.451 214.166H407.873ZM407.108 221.735V214.931H400.84L400.763 214.625C400.304 212.255 399.387 210.038 398.011 207.974L397.858 207.745L402.292 203.311L397.476 198.495L393.042 202.929L392.813 202.776C390.825 201.4 388.532 200.482 386.162 200.024L385.856 199.947V193.679H379.052V199.947L378.746 200.024C376.376 200.482 374.159 201.4 372.095 202.776L371.866 202.929L367.432 198.495L362.616 203.311L367.05 207.745L366.897 207.974C365.521 209.962 364.603 212.255 364.145 214.625L364.068 214.931H357.8V221.735H364.068L364.145 222.041C364.603 224.41 365.521 226.627 366.897 228.691L367.05 228.921L362.616 233.355L367.432 238.171L371.866 233.737L372.095 233.89C374.083 235.266 376.376 236.183 378.746 236.642L379.052 236.718V242.987H385.856V236.718L386.162 236.642C388.532 236.183 390.748 235.266 392.813 233.89L393.042 233.737L397.476 238.171L402.292 233.355L397.858 228.921L398.011 228.691C399.387 226.704 400.304 224.41 400.763 222.041L400.84 221.735H407.108ZM392.889 218.295C392.889 224.105 388.226 228.768 382.416 228.768C376.606 228.768 371.942 224.105 371.942 218.295C371.942 212.485 376.606 207.821 382.416 207.821C388.226 207.821 392.889 212.561 392.889 218.295ZM372.707 218.295C372.707 223.646 377.064 228.003 382.416 228.003C387.767 228.003 392.125 223.646 392.125 218.295C392.125 212.943 387.767 208.586 382.416 208.586C377.064 208.586 372.707 212.943 372.707 218.295Z" fill="white"/>
</g>
<g style="mix-blend-mode:overlay">
<path d="M338.079 197.348V207.363H330.205C329.593 210.191 328.523 212.867 326.917 215.313L332.498 220.894L325.388 228.003L319.808 222.423C317.361 224.028 314.686 225.098 311.857 225.71V233.584H301.843V225.71C299.014 225.098 296.338 224.028 293.892 222.423L288.311 228.003L281.202 220.894L286.782 215.313C285.177 212.867 284.107 210.191 283.495 207.363H275.621V197.348H283.495C284.107 194.519 285.177 191.844 286.782 189.397L281.202 183.817L288.311 176.707L293.892 182.288C296.338 180.682 299.014 179.612 301.843 179.001V171.203H311.857V179.077C314.686 179.689 317.361 180.759 319.808 182.364L325.388 176.784L332.498 183.893L326.917 189.474C328.523 191.92 329.593 194.596 330.205 197.424H338.079V197.348ZM337.314 206.675V198.036H329.593L329.517 197.73C328.905 194.749 327.758 191.997 326.153 189.55L326 189.321L331.504 183.817L325.388 177.701L319.884 183.205L319.655 183.052C317.132 181.37 314.38 180.224 311.475 179.689L311.169 179.612V171.891H302.531V179.612L302.225 179.689C299.243 180.3 296.491 181.447 294.045 183.052L293.816 183.282L288.311 177.777L282.196 183.893L287.7 189.397L287.547 189.627C285.865 192.15 284.718 194.902 284.183 197.807L284.107 198.112H276.386V206.751H284.107L284.183 207.057C284.795 210.038 285.941 212.79 287.547 215.237L287.7 215.466L282.196 220.97L288.311 227.086L293.816 221.582L294.045 221.735C296.568 223.417 299.32 224.563 302.225 225.098L302.531 225.175V232.896H311.169V225.175L311.475 225.098C314.456 224.487 317.209 223.34 319.655 221.735L319.884 221.582L325.388 227.086L331.504 220.97L326 215.466L326.153 215.237C327.835 212.714 328.981 209.962 329.517 207.057L329.593 206.751H337.314V206.675ZM319.655 202.394C319.655 205.757 318.355 209.044 315.909 211.414C313.157 214.166 309.411 215.466 305.588 215.084C299.549 214.472 294.733 209.656 294.198 203.693C293.816 199.871 295.192 196.048 297.867 193.373C300.619 190.621 304.365 189.321 308.188 189.703C314.227 190.315 319.043 195.131 319.578 201.094C319.655 201.476 319.655 201.935 319.655 202.394ZM294.886 203.617C295.421 209.274 300.008 213.861 305.665 214.396C309.334 214.778 312.851 213.478 315.45 210.956C318.049 208.356 319.273 204.84 318.89 201.17C318.355 195.513 313.768 190.926 308.111 190.391C304.442 190.009 300.925 191.309 298.326 193.831C295.727 196.431 294.504 199.947 294.886 203.617Z" fill="white"/>
</g>
<path d="M208.956 372.642H217.289L219.43 364.692C222.258 364.004 224.934 362.933 227.304 361.481L234.566 365.685L240.453 359.799L236.324 352.613C237.777 350.243 238.924 347.644 239.535 344.815L247.715 342.598V334.265L239.535 332.048C238.847 329.296 237.777 326.697 236.401 324.404L240.682 316.988L234.795 311.102L227.38 315.383C225.087 313.93 222.564 312.86 219.812 312.249L217.595 303.916H209.262L207.045 312.172C204.369 312.784 201.77 313.854 199.477 315.23L191.985 310.949L186.098 316.835L190.38 324.174C188.927 326.468 187.857 329.067 187.092 331.819L178.836 334.036V342.369L186.939 344.509C187.551 347.338 188.621 349.937 190.074 352.307L185.869 359.57L191.756 365.456L198.942 361.328C201.311 362.857 203.987 363.927 206.816 364.615L208.956 372.642ZM198.789 338.394C198.789 330.443 205.21 323.945 213.237 323.945C221.188 323.945 227.686 330.367 227.686 338.394C227.686 346.344 221.264 352.842 213.237 352.842C205.287 352.766 198.789 346.344 198.789 338.394Z" fill="url(#paint3_linear_262_4375)"/>
<g style="mix-blend-mode:overlay">
<path d="M170.504 188.786V202.164L157.89 205.528C156.896 209.656 155.214 213.555 153.074 217.148L159.495 228.309L150.016 237.789L138.854 231.367C135.185 233.584 131.21 235.189 127.005 236.183L123.718 248.491H110.339L106.976 236.03C102.848 234.96 98.8723 233.278 95.2028 231.061L84.118 237.483L74.6385 228.003L81.1365 216.766C78.996 213.173 77.3906 209.197 76.3968 205.069L63.8594 201.705V188.404L76.5497 184.963C77.6199 180.912 79.2253 177.089 81.4423 173.573L74.8678 162.182L84.4238 152.703L95.9673 159.354C99.4839 157.289 103.306 155.761 107.282 154.767L110.722 142H124.1L127.54 154.92C131.515 155.913 135.338 157.519 138.854 159.659L150.322 153.085L159.801 162.564L153.227 174.032C155.367 177.548 156.972 181.447 157.966 185.499L170.504 188.786ZM169.739 201.553V189.397L157.278 186.034L157.202 185.804C156.208 181.676 154.603 177.777 152.386 174.108L152.233 173.879L158.807 162.488L150.169 153.849L138.854 160.347L138.625 160.195C135.032 157.978 131.21 156.372 127.158 155.378L126.929 155.302L123.488 142.764H111.333L107.893 155.455L107.664 155.531C103.612 156.525 99.7132 158.054 96.1202 160.195L95.8909 160.271L84.4238 153.696L75.9381 162.335L82.4361 173.573L82.2832 173.802C80.0662 177.395 78.3844 181.294 77.3141 185.422L77.2377 185.652L64.6238 189.015V201.17L77.0083 204.534L77.0848 204.763C78.0786 208.968 79.684 212.943 81.901 216.689L82.0539 216.919L75.6323 228.08L84.2709 236.718L95.2793 230.373L95.5086 230.526C99.1781 232.82 103.23 234.578 107.434 235.572L107.664 235.648L110.951 247.956H123.106L126.393 235.725L126.623 235.648C130.904 234.654 134.956 232.973 138.625 230.756L138.854 230.603L149.939 237.024L158.578 228.386L152.233 217.377L152.386 217.148C154.679 213.478 156.284 209.503 157.278 205.299L157.355 205.069L169.739 201.553ZM139.772 195.513C139.772 207.974 129.681 218.065 117.22 218.065C104.759 218.065 94.6677 207.974 94.6677 195.513C94.6677 183.052 104.759 172.961 117.22 172.961C129.604 172.961 139.772 183.052 139.772 195.513ZM95.4322 195.513C95.4322 207.516 105.217 217.301 117.22 217.301C129.222 217.301 139.007 207.516 139.007 195.513C139.007 183.511 129.222 173.726 117.22 173.726C105.217 173.726 95.4322 183.435 95.4322 195.513Z" fill="white"/>
</g>
<path d="M235.87 239.471C238.01 239.471 239.998 239.165 241.909 238.553L246.573 245.357L252.918 241.688L249.401 234.196C252.383 231.444 254.523 227.851 255.44 223.722L263.697 223.034V215.695L255.44 215.007C254.523 210.879 252.383 207.286 249.401 204.534L252.918 197.042L246.573 193.373L241.909 200.177C239.998 199.565 238.01 199.259 235.87 199.259C233.729 199.259 231.742 199.565 229.831 200.177L225.167 193.373L218.822 197.042L222.339 204.534C219.357 207.286 217.217 210.879 216.299 215.007L208.043 215.695V223.034L216.299 223.722C217.217 227.851 219.357 231.444 222.339 234.196L218.822 241.688L225.167 245.357L229.831 238.553C231.742 239.165 233.806 239.471 235.87 239.471ZM224.709 219.365C224.709 213.173 229.754 208.127 235.946 208.127C242.139 208.127 247.184 213.173 247.184 219.365C247.184 225.557 242.139 230.603 235.946 230.603C229.678 230.603 224.709 225.557 224.709 219.365Z" fill="url(#paint4_linear_262_4375)"/>
<path d="M291.52 260.57C291.29 260.57 290.985 260.57 290.755 260.57L289.456 253.231L281.887 254.531L283.187 261.87C280.129 262.94 277.377 264.622 275.007 266.686L269.35 262.023L264.381 267.909L270.114 272.725C268.509 275.401 267.362 278.459 266.904 281.67H259.488V289.314H266.904C267.439 292.525 268.509 295.583 270.191 298.335L264.61 302.998L269.579 308.885L275.16 304.222C277.606 306.362 280.435 307.968 283.493 309.038L282.27 316.071L289.838 317.371L291.061 310.337C291.214 310.337 291.367 310.337 291.596 310.337C294.807 310.337 297.865 309.726 300.693 308.656L304.21 314.771L310.861 310.949L307.344 304.833C309.867 302.769 312.008 300.246 313.537 297.341L320.188 299.711L322.787 292.525L316.059 290.079C316.365 288.626 316.518 287.097 316.518 285.492C316.518 283.734 316.365 281.975 315.983 280.37L322.71 277.924L320.111 270.738L313.307 273.184C311.702 270.355 309.561 267.909 307.039 265.921L310.708 259.653L304.057 255.83L300.388 262.252C297.483 261.105 294.578 260.57 291.52 260.57ZM310.555 285.416C310.555 295.889 302.07 304.451 291.52 304.451C281.046 304.451 272.484 295.965 272.484 285.416C272.484 274.942 280.97 266.38 291.52 266.38C301.993 266.457 310.555 274.942 310.555 285.416Z" fill="url(#paint5_linear_262_4375)"/>
<g style="mix-blend-mode:overlay">
<path d="M330.893 285.339C330.893 307.279 313.004 325.168 291.064 325.168C269.123 325.168 251.234 307.279 251.234 285.339H251.999C251.999 306.897 269.505 324.404 291.064 324.404C312.622 324.404 330.128 306.897 330.128 285.339C330.128 263.781 312.622 246.274 291.064 246.274C290.834 246.274 290.681 246.274 290.452 246.274V245.51C290.681 245.51 290.834 245.51 291.064 245.51C313.08 245.51 330.893 263.399 330.893 285.339Z" fill="white"/>
<path d="M254.675 287.632L254.14 288.244L251.77 285.798L249.477 288.091L248.941 287.556L251.77 284.727L254.675 287.632Z" fill="white"/>
</g>
<path d="M71.5818 245.51C71.8112 245.51 72.0405 245.51 72.3463 245.51L73.5695 252.467L80.7555 251.167L79.5324 244.134C82.4374 243.14 85.0366 241.535 87.33 239.547L92.8342 244.134L97.574 238.553L92.0698 233.966C93.5987 231.367 94.669 228.539 95.1277 225.404H102.237V218.065H95.1277C94.669 214.931 93.5987 212.026 91.9933 209.503L97.3446 204.993L92.6049 199.412L87.2536 203.922C84.9601 201.935 82.208 200.329 79.303 199.259L80.5262 192.455L73.3401 191.156L72.117 197.883C71.9641 197.883 71.8112 197.883 71.6583 197.883C68.6004 197.883 65.6954 198.495 63.0197 199.489L59.656 193.679L53.3109 197.348L56.6746 203.234C54.2282 205.222 52.2406 207.668 50.7117 210.421L44.3665 208.127L41.8438 215.007L48.2653 217.301C48.036 218.753 47.8831 220.206 47.8831 221.658C47.8831 223.34 48.036 225.022 48.4182 226.551L41.9966 228.844L44.5194 235.725L51.0174 233.355C52.5464 236.03 54.6105 238.4 57.0568 240.312L53.5402 246.351L59.8854 250.02L63.4019 243.905C65.9247 244.975 68.6768 245.51 71.5818 245.51ZM59.656 221.735C59.656 215.16 65.0073 209.809 71.5818 209.809C78.1563 209.809 83.5076 215.16 83.5076 221.735C83.5076 228.309 78.1563 233.661 71.5818 233.661C65.0073 233.661 59.656 228.309 59.656 221.735Z" fill="url(#paint6_linear_262_4375)"/>
<g style="mix-blend-mode:overlay">
<path d="M92.2978 292.449C92.2978 321.193 68.9049 344.586 40.1606 344.586C11.4164 344.586 -11.9766 321.193 -11.9766 292.449C-11.9766 263.704 11.4164 240.311 40.1606 240.311C40.4664 240.311 40.6958 240.311 41.0016 240.311V241.076C40.7722 241.076 40.4664 241.076 40.2371 241.076C11.7986 241.076 -11.2121 264.087 -11.2121 292.449C-11.2121 320.811 11.7986 343.821 40.1606 343.821C68.5227 343.821 91.5333 320.734 91.5333 292.449H92.2978Z" fill="white"/>
<path d="M95.431 295.43L94.8959 295.965L91.838 292.907L88.5508 296.118L88.0156 295.583L91.838 291.837L95.431 295.43Z" fill="white"/>
</g>
<path d="M369.269 280.752H376.838L378.825 273.413C381.425 272.802 383.871 271.808 386.011 270.432L392.662 274.254L398.014 268.903L394.191 262.328C395.491 260.188 396.561 257.742 397.173 255.219L404.665 253.231V245.663L397.173 243.675C396.561 241.152 395.567 238.783 394.268 236.642L398.167 229.838L392.815 224.487L386.011 228.386C383.871 227.086 381.577 226.092 379.131 225.481L377.067 217.836H369.499L367.435 225.404C364.988 226.016 362.618 226.933 360.478 228.233L353.674 224.257L348.323 229.609L352.222 236.336C350.922 238.477 349.852 240.77 349.24 243.293L341.672 245.281V252.849L349.087 254.837C349.699 257.359 350.616 259.806 351.992 261.946L348.17 268.597L353.521 273.948L360.096 270.126C362.313 271.502 364.683 272.496 367.282 273.184L369.269 280.752ZM360.019 249.485C360.019 242.223 365.906 236.336 373.245 236.336C380.507 236.336 386.394 242.223 386.394 249.485C386.394 256.748 380.507 262.634 373.245 262.634C365.906 262.634 360.019 256.748 360.019 249.485Z" fill="url(#paint7_linear_262_4375)"/>
<path d="M34.7344 321.422H41.7675L43.6023 314.618C45.9721 314.083 48.2656 313.166 50.3297 311.866L56.4455 315.383L61.4145 310.414L57.898 304.298C59.1211 302.31 60.0385 300.093 60.6501 297.724L67.6068 295.889V288.779L60.6501 286.944C60.1149 284.651 59.1976 282.434 57.9744 280.446L61.6439 274.178L56.6748 269.209L50.4061 272.802C48.4185 271.579 46.2779 270.661 43.9845 270.126L42.0733 263.016H35.0402L33.129 270.05C30.8355 270.585 28.695 271.502 26.7074 272.649L20.3622 268.979L15.3931 273.948L18.9862 280.217C17.763 282.205 16.8456 284.345 16.2341 286.715L9.27734 288.626V295.659L16.1576 297.494C16.6928 299.864 17.6101 302.081 18.8333 304.145L15.2402 310.337L20.2093 315.306L26.3251 311.79C28.3892 313.09 30.6062 314.007 32.9761 314.618L34.7344 321.422ZM26.1722 292.296C26.1722 285.568 31.6765 280.064 38.4038 280.064C45.1312 280.064 50.6354 285.568 50.6354 292.296C50.6354 299.023 45.1312 304.527 38.4038 304.527C31.6765 304.527 26.1722 299.1 26.1722 292.296Z" fill="url(#paint8_linear_262_4375)"/>
</g>
<line x1="168" y1="88.9804" x2="228.959" y2="88.9804" stroke="white" stroke-width="0.39927"/>
<path d="M81.1609 63.79C81.1609 65.855 79.7609 67.01 77.3809 67.01H72.4459V60.43H77.2759C79.6559 60.43 81.1609 61.69 81.1609 63.79ZM80.5659 53.605C80.5659 55.6 79.2359 56.65 76.9259 56.65H72.4459V50.525H76.9259C79.2359 50.525 80.5659 51.645 80.5659 53.605ZM86.1309 64.385C86.1309 61.515 84.1709 58.96 81.4059 58.47C83.7859 57.7 85.5709 55.845 85.5709 52.87C85.5709 49.23 82.7359 46.57 77.6259 46.57H67.5459V71H78.0809C83.1559 71 86.1309 68.27 86.1309 64.385ZM95.1811 68.375C95.1811 66.765 93.9211 65.505 92.2061 65.505C90.4211 65.505 89.1611 66.765 89.1611 68.375C89.1611 69.985 90.4211 71.245 92.2061 71.245C93.9211 71.245 95.1811 69.985 95.1811 68.375ZM97.8329 50.525H104.343V71H109.243V50.525H115.753V46.57H97.8329V50.525ZM127.658 55.32C130.178 55.32 132.208 56.93 132.278 59.485H123.073C123.458 56.825 125.313 55.32 127.658 55.32ZM136.863 64.91H131.578C130.948 66.205 129.793 67.255 127.693 67.255C125.243 67.255 123.283 65.645 123.038 62.775H137.213C137.318 62.145 137.353 61.515 137.353 60.885C137.353 55.11 133.398 51.295 127.798 51.295C122.058 51.295 118.068 55.18 118.068 61.305C118.068 67.395 122.163 71.315 127.798 71.315C132.593 71.315 135.813 68.48 136.863 64.91ZM139.67 61.305C139.67 67.395 143.66 71.315 149.26 71.315C154.09 71.315 157.345 68.585 158.395 64.455H153.11C152.515 66.205 151.255 67.115 149.225 67.115C146.495 67.115 144.675 65.085 144.675 61.305C144.675 57.525 146.495 55.46 149.225 55.46C151.255 55.46 152.55 56.51 153.11 58.155H158.395C157.345 53.815 154.09 51.295 149.26 51.295C143.66 51.295 139.67 55.215 139.67 61.305ZM161.984 71H166.884V60.29C166.884 57.175 168.599 55.495 171.259 55.495C173.849 55.495 175.564 57.175 175.564 60.29V71H180.464V59.625C180.464 54.27 177.279 51.33 172.904 51.33C170.314 51.33 168.144 52.38 166.884 54.025V45.1H161.984V71ZM204.734 46.255C197.664 46.255 192.274 51.435 192.274 58.75C192.274 66.065 197.664 71.21 204.769 71.21C211.279 71.21 215.724 66.66 216.704 61.69V57.42H203.474V61.165H211.874C211.139 64.63 208.724 66.8 204.944 66.8C200.394 66.8 197.314 63.72 197.314 58.75C197.314 53.885 200.359 50.77 204.734 50.77C207.324 50.77 209.354 51.855 210.474 53.92H216.109C214.534 49.02 210.194 46.255 204.734 46.255ZM228.659 55.32C231.179 55.32 233.209 56.93 233.279 59.485H224.074C224.459 56.825 226.314 55.32 228.659 55.32ZM237.864 64.91H232.579C231.949 66.205 230.794 67.255 228.694 67.255C226.244 67.255 224.284 65.645 224.039 62.775H238.214C238.319 62.145 238.354 61.515 238.354 60.885C238.354 55.11 234.399 51.295 228.799 51.295C223.059 51.295 219.069 55.18 219.069 61.305C219.069 67.395 223.164 71.315 228.799 71.315C233.594 71.315 236.814 68.48 237.864 64.91ZM255.511 71H260.411V59.625C260.411 54.27 257.191 51.33 252.676 51.33C250.191 51.33 248.091 52.38 246.831 54.025V51.61H241.931V71H246.831V60.29C246.831 57.175 248.546 55.495 251.206 55.495C253.796 55.495 255.511 57.175 255.511 60.29V71ZM273.4 55.32C275.92 55.32 277.95 56.93 278.02 59.485H268.815C269.2 56.825 271.055 55.32 273.4 55.32ZM282.605 64.91H277.32C276.69 66.205 275.535 67.255 273.435 67.255C270.985 67.255 269.025 65.645 268.78 62.775H282.955C283.06 62.145 283.095 61.515 283.095 60.885C283.095 55.11 279.14 51.295 273.54 51.295C267.8 51.295 263.81 55.18 263.81 61.305C263.81 67.395 267.905 71.315 273.54 71.315C278.335 71.315 281.555 68.48 282.605 64.91ZM291.572 61.34C291.572 57.595 293.322 56.475 296.227 56.475H297.522V51.33C294.827 51.33 292.797 52.625 291.572 54.62V51.61H286.672V71H291.572V61.34ZM299.562 61.235C299.562 67.29 303.482 71.315 308.382 71.315C311.462 71.315 313.667 69.845 314.822 68.165V71H319.757V51.61H314.822V54.375C313.667 52.765 311.532 51.295 308.417 51.295C303.482 51.295 299.562 55.18 299.562 61.235ZM314.822 61.305C314.822 64.98 312.372 67.01 309.677 67.01C307.052 67.01 304.567 64.91 304.567 61.235C304.567 57.56 307.052 55.6 309.677 55.6C312.372 55.6 314.822 57.63 314.822 61.305ZM324.543 71H329.443V45.1H324.543V71Z" fill="white"/>
<defs>
<radialGradient id="paint0_radial_262_4375" cx="0" cy="0" r="1" gradientUnits="userSpaceOnUse" gradientTransform="translate(198 172) scale(198 172)">
<stop stop-color="#083C87"/>
<stop offset="0.2593" stop-color="#083A82"/>
<stop offset="0.5485" stop-color="#073275"/>
<stop offset="0.8511" stop-color="#07265F"/>
<stop offset="1" stop-color="#061F51"/>
</radialGradient>
<radialGradient id="paint1_radial_262_4375" cx="0" cy="0" r="1" gradientUnits="userSpaceOnUse" gradientTransform="translate(198 233.5) scale(198 110.5)">
<stop stop-color="#083C87"/>
<stop offset="0.2593" stop-color="#083A82"/>
<stop offset="0.5485" stop-color="#073275"/>
<stop offset="0.8511" stop-color="#07265F"/>
<stop offset="1" stop-color="#061F51"/>
</radialGradient>
<linearGradient id="paint2_linear_262_4375" x1="208.929" y1="208.407" x2="114.735" y2="302.6" gradientUnits="userSpaceOnUse">
<stop stop-color="#083C87"/>
<stop offset="0.1476" stop-color="#07448D"/>
<stop offset="0.3733" stop-color="#06599F"/>
<stop offset="0.6487" stop-color="#047CBC"/>
<stop offset="0.961" stop-color="#00ACE4"/>
<stop offset="0.9995" stop-color="#00B2E9"/>
</linearGradient>
<linearGradient id="paint3_linear_262_4375" x1="237.572" y1="362.557" x2="188.9" y2="313.885" gradientUnits="userSpaceOnUse">
<stop stop-color="#083C87"/>
<stop offset="0.1476" stop-color="#07448D"/>
<stop offset="0.3733" stop-color="#06599F"/>
<stop offset="0.6487" stop-color="#047CBC"/>
<stop offset="0.961" stop-color="#00ACE4"/>
<stop offset="0.9995" stop-color="#00B2E9"/>
</linearGradient>
<linearGradient id="paint4_linear_262_4375" x1="206.253" y1="249.019" x2="254.851" y2="200.421" gradientUnits="userSpaceOnUse">
<stop stop-color="#083C87"/>
<stop offset="0.1476" stop-color="#07448D"/>
<stop offset="0.3733" stop-color="#06599F"/>
<stop offset="0.6487" stop-color="#047CBC"/>
<stop offset="0.961" stop-color="#00ACE4"/>
<stop offset="0.9995" stop-color="#00B2E9"/>
</linearGradient>
<linearGradient id="paint5_linear_262_4375" x1="332.477" y1="244.026" x2="253.747" y2="322.756" gradientUnits="userSpaceOnUse">
<stop stop-color="#083C87"/>
<stop offset="0.1476" stop-color="#07448D"/>
<stop offset="0.3733" stop-color="#06599F"/>
<stop offset="0.6487" stop-color="#047CBC"/>
<stop offset="0.961" stop-color="#00ACE4"/>
<stop offset="0.9995" stop-color="#00B2E9"/>
</linearGradient>
<linearGradient id="paint6_linear_262_4375" x1="105.376" y1="188.391" x2="47.5327" y2="246.234" gradientUnits="userSpaceOnUse">
<stop stop-color="#083C87"/>
<stop offset="0.1476" stop-color="#07448D"/>
<stop offset="0.3733" stop-color="#06599F"/>
<stop offset="0.6487" stop-color="#047CBC"/>
<stop offset="0.961" stop-color="#00ACE4"/>
<stop offset="0.9995" stop-color="#00B2E9"/>
</linearGradient>
<linearGradient id="paint7_linear_262_4375" x1="430.564" y1="191.94" x2="356.274" y2="266.231" gradientUnits="userSpaceOnUse">
<stop stop-color="#083C87"/>
<stop offset="0.1476" stop-color="#07448D"/>
<stop offset="0.3733" stop-color="#06599F"/>
<stop offset="0.6487" stop-color="#047CBC"/>
<stop offset="0.961" stop-color="#00ACE4"/>
<stop offset="0.9995" stop-color="#00B2E9"/>
</linearGradient>
<linearGradient id="paint8_linear_262_4375" x1="59.0555" y1="312.847" x2="17.7626" y2="271.554" gradientUnits="userSpaceOnUse">
<stop stop-color="#083C87"/>
<stop offset="0.1476" stop-color="#07448D"/>
<stop offset="0.3733" stop-color="#06599F"/>
<stop offset="0.6487" stop-color="#047CBC"/>
<stop offset="0.961" stop-color="#00ACE4"/>
<stop offset="0.9995" stop-color="#00B2E9"/>
</linearGradient>
</defs>
</svg>
