<svg width="1240" height="164" viewBox="0 0 1240 164" fill="none" xmlns="http://www.w3.org/2000/svg">
<rect width="400" height="50" fill="white"/>
<path d="M24.6 25.94C26.08 25.94 27.24 24.8 27.24 23.34C27.24 21.86 26.08 20.72 24.6 20.72C23.16 20.72 22 21.86 22 23.34C22 24.8 23.16 25.94 24.6 25.94ZM45.6689 16.1H41.1289V30H45.6689C50.1289 30 53.0489 27.38 53.0489 23.1C53.0489 18.8 50.1289 16.1 45.6689 16.1ZM43.4089 28.14V17.96H45.6689C48.9489 17.96 50.7089 19.92 50.7089 23.1C50.7089 26.26 48.9489 28.14 45.6689 28.14H43.4089ZM54.5486 24.44C54.5486 27.84 56.8486 30.18 59.7086 30.18C61.5486 30.18 62.8686 29.3 63.5686 28.36V30H65.8686V18.98H63.5686V20.58C62.8886 19.68 61.6086 18.8 59.7486 18.8C56.8486 18.8 54.5486 21.04 54.5486 24.44ZM63.5686 24.48C63.5686 26.86 61.9486 28.2 60.2286 28.2C58.5286 28.2 56.8886 26.82 56.8886 24.44C56.8886 22.06 58.5286 20.78 60.2286 20.78C61.9486 20.78 63.5686 22.12 63.5686 24.48ZM69.2233 26.94C69.2233 29.18 70.4433 30 72.4033 30H74.2033V28.1H72.8033C71.8433 28.1 71.5233 27.76 71.5233 26.94V20.84H74.2033V18.98H71.5233V16.24H69.2233V18.98H67.9233V20.84H69.2233V26.94ZM75.5447 24.44C75.5447 27.84 77.8447 30.18 80.7047 30.18C82.5447 30.18 83.8647 29.3 84.5647 28.36V30H86.8647V18.98H84.5647V20.58C83.8847 19.68 82.6047 18.8 80.7447 18.8C77.8447 18.8 75.5447 21.04 75.5447 24.44ZM84.5647 24.48C84.5647 26.86 82.9447 28.2 81.2247 28.2C79.5247 28.2 77.8847 26.82 77.8847 24.44C77.8847 22.06 79.5247 20.78 81.2247 20.78C82.9447 20.78 84.5647 22.12 84.5647 24.48ZM104.435 26.06C104.435 20.98 97.0747 22.94 97.0747 19.8C97.0747 18.46 98.0947 17.82 99.4147 17.86C100.855 17.9 101.675 18.76 101.755 19.7H104.275C104.075 17.32 102.195 15.92 99.5347 15.92C96.6947 15.92 94.7547 17.44 94.7547 19.88C94.7547 25 102.135 22.82 102.135 26.18C102.135 27.36 101.235 28.22 99.6347 28.22C98.0547 28.22 97.2547 27.3 97.1547 26.16H94.7147C94.7147 28.62 96.8547 30.14 99.6347 30.14C102.735 30.14 104.435 28.14 104.435 26.06ZM106.365 24.48C106.365 27.94 108.605 30.18 111.765 30.18C114.465 30.18 116.225 28.68 116.845 26.52H114.385C113.965 27.66 113.125 28.26 111.765 28.26C109.925 28.26 108.705 26.9 108.705 24.48C108.705 22.08 109.925 20.72 111.765 20.72C113.125 20.72 114.005 21.4 114.385 22.46H116.845C116.225 20.14 114.465 18.8 111.765 18.8C108.605 18.8 106.365 21.04 106.365 24.48ZM119.117 30H121.397V18.98H119.117V30ZM120.277 17.52C121.077 17.52 121.717 16.88 121.717 16.06C121.717 15.24 121.077 14.6 120.277 14.6C119.457 14.6 118.817 15.24 118.817 16.06C118.817 16.88 119.457 17.52 120.277 17.52ZM129.031 20.72C130.731 20.72 132.071 21.8 132.111 23.5H126.011C126.251 21.76 127.491 20.72 129.031 20.72ZM134.191 26.72H131.731C131.311 27.58 130.531 28.26 129.131 28.26C127.451 28.26 126.151 27.16 125.991 25.34H134.411C134.471 24.96 134.491 24.6 134.491 24.22C134.491 20.98 132.271 18.8 129.131 18.8C125.871 18.8 123.631 21.02 123.631 24.48C123.631 27.94 125.971 30.18 129.131 30.18C131.831 30.18 133.571 28.64 134.191 26.72ZM144.554 30H146.814V23.5C146.814 20.42 144.874 18.8 142.294 18.8C140.974 18.8 139.754 19.34 139.014 20.24V18.98H136.734V30H139.014V23.84C139.014 21.82 140.114 20.78 141.794 20.78C143.454 20.78 144.554 21.82 144.554 23.84V30ZM150.083 26.94C150.083 29.18 151.303 30 153.263 30H155.063V28.1H153.663C152.703 28.1 152.383 27.76 152.383 26.94V20.84H155.063V18.98H152.383V16.24H150.083V18.98H148.783V20.84H150.083V26.94ZM157.164 30H159.444V18.98H157.164V30ZM158.324 17.52C159.124 17.52 159.764 16.88 159.764 16.06C159.764 15.24 159.124 14.6 158.324 14.6C157.504 14.6 156.864 15.24 156.864 16.06C156.864 16.88 157.504 17.52 158.324 17.52ZM170.658 26.92C170.538 22.94 164.318 24.18 164.318 21.96C164.318 21.22 164.958 20.72 166.178 20.72C167.418 20.72 168.158 21.38 168.238 22.34H170.518C170.398 20.14 168.758 18.8 166.258 18.8C163.658 18.8 162.018 20.22 162.018 21.98C162.018 26.02 168.418 24.78 168.418 26.94C168.418 27.7 167.718 28.26 166.398 28.26C165.138 28.26 164.278 27.52 164.198 26.62H161.838C161.938 28.62 163.798 30.18 166.438 30.18C169.038 30.18 170.658 28.78 170.658 26.92ZM173.481 26.94C173.481 29.18 174.701 30 176.661 30H178.461V28.1H177.061C176.101 28.1 175.781 27.76 175.781 26.94V20.84H178.461V18.98H175.781V16.24H173.481V18.98H172.181V20.84H173.481V26.94Z" fill="#212832"/>
<rect x="0.5" y="0.5" width="399" height="49" stroke="black" stroke-opacity="0.5"/>
<rect y="114" width="400" height="50" fill="white"/>
<path d="M24.6 139.94C26.08 139.94 27.24 138.8 27.24 137.34C27.24 135.86 26.08 134.72 24.6 134.72C23.16 134.72 22 135.86 22 137.34C22 138.8 23.16 139.94 24.6 139.94ZM43.4089 136.5V131.96H45.9289C47.7089 131.96 48.5089 132.8 48.5089 134.24C48.5089 135.64 47.7089 136.5 45.9289 136.5H43.4089ZM50.8489 134.24C50.8489 131.98 49.2289 130.1 45.9289 130.1H41.1289V144H43.4089V138.36H45.9289C49.5489 138.36 50.8489 136.22 50.8489 134.24ZM52.2634 138.44C52.2634 141.84 54.5634 144.18 57.4234 144.18C59.2634 144.18 60.5834 143.3 61.2834 142.36V144H63.5834V132.98H61.2834V134.58C60.6034 133.68 59.3234 132.8 57.4634 132.8C54.5634 132.8 52.2634 135.04 52.2634 138.44ZM61.2834 138.48C61.2834 140.86 59.6634 142.2 57.9434 142.2C56.2434 142.2 54.6034 140.82 54.6034 138.44C54.6034 136.06 56.2434 134.78 57.9434 134.78C59.6634 134.78 61.2834 136.12 61.2834 138.48ZM68.8581 138.2C68.8581 135.86 69.8981 135.16 71.5781 135.16H72.1581V132.8C70.5981 132.8 69.4981 133.48 68.8581 134.58V132.98H66.5781V144H68.8581V138.2ZM74.6139 140.94C74.6139 143.18 75.8339 144 77.7939 144H79.5939V142.1H78.1939C77.2339 142.1 76.9139 141.76 76.9139 140.94V134.84H79.5939V132.98H76.9139V130.24H74.6139V132.98H73.3139V134.84H74.6139V140.94ZM89.5153 144H91.7753V137.5C91.7753 134.42 89.8353 132.8 87.2553 132.8C85.9353 132.8 84.7153 133.34 83.9753 134.24V132.98H81.6953V144H83.9753V137.84C83.9753 135.82 85.0753 134.78 86.7553 134.78C88.4153 134.78 89.5153 135.82 89.5153 137.84V144ZM99.3236 134.72C101.024 134.72 102.364 135.8 102.404 137.5H96.3036C96.5436 135.76 97.7836 134.72 99.3236 134.72ZM104.484 140.72H102.024C101.604 141.58 100.824 142.26 99.4236 142.26C97.7436 142.26 96.4436 141.16 96.2836 139.34H104.704C104.764 138.96 104.784 138.6 104.784 138.22C104.784 134.98 102.564 132.8 99.4236 132.8C96.1636 132.8 93.9236 135.02 93.9236 138.48C93.9236 141.94 96.2636 144.18 99.4236 144.18C102.124 144.18 103.864 142.64 104.484 140.72ZM109.307 138.2C109.307 135.86 110.347 135.16 112.027 135.16H112.607V132.8C111.047 132.8 109.947 133.48 109.307 134.58V132.98H107.027V144H109.307V138.2ZM129.278 144H131.678L126.698 130.08H124.058L119.078 144H121.458L122.458 141.16H128.278L129.278 144ZM127.638 139.3H123.098L125.378 132.84L127.638 139.3ZM133.084 138.48C133.084 141.94 135.324 144.18 138.484 144.18C141.184 144.18 142.944 142.68 143.564 140.52H141.104C140.684 141.66 139.844 142.26 138.484 142.26C136.644 142.26 135.424 140.9 135.424 138.48C135.424 136.08 136.644 134.72 138.484 134.72C139.844 134.72 140.724 135.4 141.104 136.46H143.564C142.944 134.14 141.184 132.8 138.484 132.8C135.324 132.8 133.084 135.04 133.084 138.48ZM145.076 138.48C145.076 141.94 147.316 144.18 150.476 144.18C153.176 144.18 154.936 142.68 155.556 140.52H153.096C152.676 141.66 151.836 142.26 150.476 142.26C148.636 142.26 147.416 140.9 147.416 138.48C147.416 136.08 148.636 134.72 150.476 134.72C151.836 134.72 152.716 135.4 153.096 136.46H155.556C154.936 134.14 153.176 132.8 150.476 132.8C147.316 132.8 145.076 135.04 145.076 138.48ZM168.328 138.48C168.328 135.02 165.848 132.8 162.708 132.8C159.568 132.8 157.088 135.02 157.088 138.48C157.088 141.94 159.468 144.18 162.608 144.18C165.768 144.18 168.328 141.94 168.328 138.48ZM159.408 138.48C159.408 135.98 160.948 134.78 162.668 134.78C164.368 134.78 165.988 135.98 165.988 138.48C165.988 140.98 164.308 142.2 162.608 142.2C160.888 142.2 159.408 140.98 159.408 138.48ZM180.562 132.98H178.282V139.12C178.282 141.14 177.182 142.18 175.502 142.18C173.842 142.18 172.742 141.14 172.742 139.12V132.98H170.482V139.46C170.482 142.54 172.442 144.16 175.022 144.16C176.322 144.16 177.562 143.62 178.282 142.68V144H180.562V132.98ZM191.39 144H193.65V137.5C193.65 134.42 191.71 132.8 189.13 132.8C187.81 132.8 186.59 133.34 185.85 134.24V132.98H183.57V144H185.85V137.84C185.85 135.82 186.95 134.78 188.63 134.78C190.29 134.78 191.39 135.82 191.39 137.84V144ZM196.919 140.94C196.919 143.18 198.139 144 200.099 144H201.899V142.1H200.499C199.539 142.1 199.219 141.76 199.219 140.94V134.84H201.899V132.98H199.219V130.24H196.919V132.98H195.619V134.84H196.919V140.94ZM209.195 144H211.475V134.48L215.735 144H217.315L221.555 134.48V144H223.835V130.1H221.395L216.535 141L211.655 130.1H209.195V144ZM226.072 138.44C226.072 141.84 228.372 144.18 231.232 144.18C233.072 144.18 234.392 143.3 235.092 142.36V144H237.392V132.98H235.092V134.58C234.412 133.68 233.132 132.8 231.272 132.8C228.372 132.8 226.072 135.04 226.072 138.44ZM235.092 138.48C235.092 140.86 233.472 142.2 231.752 142.2C230.052 142.2 228.412 140.82 228.412 138.44C228.412 136.06 230.052 134.78 231.752 134.78C233.472 134.78 235.092 136.12 235.092 138.48ZM248.207 144H250.467V137.5C250.467 134.42 248.527 132.8 245.947 132.8C244.627 132.8 243.407 133.34 242.667 134.24V132.98H240.387V144H242.667V137.84C242.667 135.82 243.767 134.78 245.447 134.78C247.107 134.78 248.207 135.82 248.207 137.84V144ZM252.615 138.44C252.615 141.84 254.915 144.18 257.775 144.18C259.615 144.18 260.935 143.3 261.635 142.36V144H263.935V132.98H261.635V134.58C260.955 133.68 259.675 132.8 257.815 132.8C254.915 132.8 252.615 135.04 252.615 138.44ZM261.635 138.48C261.635 140.86 260.015 142.2 258.295 142.2C256.595 142.2 254.955 140.82 254.955 138.44C254.955 136.06 256.595 134.78 258.295 134.78C260.015 134.78 261.635 136.12 261.635 138.48ZM266.17 138.44C266.17 141.84 268.47 144.18 271.37 144.18C273.17 144.18 274.49 143.28 275.19 142.34V144.18C275.19 146.38 273.87 147.46 272.11 147.46C270.53 147.46 269.31 146.68 268.97 145.54H266.71C266.99 147.98 269.17 149.44 272.11 149.44C275.55 149.44 277.49 147.18 277.49 144.18V132.98H275.19V134.58C274.51 133.64 273.17 132.8 271.37 132.8C268.47 132.8 266.17 135.04 266.17 138.44ZM275.19 138.48C275.19 140.86 273.57 142.2 271.85 142.2C270.15 142.2 268.51 140.82 268.51 138.44C268.51 136.06 270.15 134.78 271.85 134.78C273.57 134.78 275.19 136.12 275.19 138.48ZM285.124 134.72C286.824 134.72 288.164 135.8 288.204 137.5H282.104C282.344 135.76 283.584 134.72 285.124 134.72ZM290.284 140.72H287.824C287.404 141.58 286.624 142.26 285.224 142.26C283.544 142.26 282.244 141.16 282.084 139.34H290.504C290.564 138.96 290.584 138.6 290.584 138.22C290.584 134.98 288.364 132.8 285.224 132.8C281.964 132.8 279.724 135.02 279.724 138.48C279.724 141.94 282.064 144.18 285.224 144.18C287.924 144.18 289.664 142.64 290.284 140.72ZM295.108 138.2C295.108 135.86 296.148 135.16 297.828 135.16H298.408V132.8C296.848 132.8 295.748 133.48 295.108 134.58V132.98H292.828V144H295.108V138.2Z" fill="#212832"/>
<rect x="0.5" y="114.5" width="399" height="49" stroke="black" stroke-opacity="0.5"/>
<rect y="57" width="400" height="50" fill="white"/>
<path d="M24.6 82.94C26.08 82.94 27.24 81.8 27.24 80.34C27.24 78.86 26.08 77.72 24.6 77.72C23.16 77.72 22 78.86 22 80.34C22 81.8 23.16 82.94 24.6 82.94ZM43.4089 79.5V74.96H45.9289C47.7089 74.96 48.5089 75.8 48.5089 77.24C48.5089 78.64 47.7089 79.5 45.9289 79.5H43.4089ZM50.8489 77.24C50.8489 74.98 49.2289 73.1 45.9289 73.1H41.1289V87H43.4089V81.36H45.9289C49.5489 81.36 50.8489 79.22 50.8489 77.24ZM55.3034 81.2C55.3034 78.86 56.3434 78.16 58.0234 78.16H58.6034V75.8C57.0434 75.8 55.9434 76.48 55.3034 77.58V75.98H53.0234V87H55.3034V81.2ZM71.1992 81.48C71.1992 78.02 68.7192 75.8 65.5792 75.8C62.4392 75.8 59.9592 78.02 59.9592 81.48C59.9592 84.94 62.3392 87.18 65.4792 87.18C68.6392 87.18 71.1992 84.94 71.1992 81.48ZM62.2792 81.48C62.2792 78.98 63.8192 77.78 65.5392 77.78C67.2392 77.78 68.8592 78.98 68.8592 81.48C68.8592 83.98 67.1792 85.2 65.4792 85.2C63.7592 85.2 62.2792 83.98 62.2792 81.48ZM73.7331 87H76.0331V77.84H78.0731V75.98H76.0331V75.2C76.0331 73.94 76.5131 73.46 77.9131 73.46V71.56C75.0331 71.56 73.7331 72.66 73.7331 75.2V75.98H72.4331V77.84H73.7331V87ZM84.7338 77.72C86.4338 77.72 87.7738 78.8 87.8138 80.5H81.7138C81.9538 78.76 83.1938 77.72 84.7338 77.72ZM89.8937 83.72H87.4338C87.0138 84.58 86.2338 85.26 84.8338 85.26C83.1538 85.26 81.8538 84.16 81.6938 82.34H90.1138C90.1738 81.96 90.1938 81.6 90.1938 81.22C90.1938 77.98 87.9738 75.8 84.8338 75.8C81.5738 75.8 79.3338 78.02 79.3338 81.48C79.3338 84.94 81.6738 87.18 84.8338 87.18C87.5338 87.18 89.2738 85.64 89.8937 83.72ZM100.658 83.92C100.538 79.94 94.3175 81.18 94.3175 78.96C94.3175 78.22 94.9575 77.72 96.1775 77.72C97.4175 77.72 98.1575 78.38 98.2375 79.34H100.518C100.398 77.14 98.7575 75.8 96.2575 75.8C93.6575 75.8 92.0175 77.22 92.0175 78.98C92.0175 83.02 98.4175 81.78 98.4175 83.94C98.4175 84.7 97.7175 85.26 96.3975 85.26C95.1375 85.26 94.2775 84.52 94.1975 83.62H91.8375C91.9375 85.62 93.7975 87.18 96.4375 87.18C99.0375 87.18 100.658 85.78 100.658 83.92ZM111.341 83.92C111.221 79.94 105.001 81.18 105.001 78.96C105.001 78.22 105.641 77.72 106.861 77.72C108.101 77.72 108.841 78.38 108.921 79.34H111.201C111.081 77.14 109.441 75.8 106.941 75.8C104.341 75.8 102.701 77.22 102.701 78.98C102.701 83.02 109.101 81.78 109.101 83.94C109.101 84.7 108.401 85.26 107.081 85.26C105.821 85.26 104.961 84.52 104.881 83.62H102.521C102.621 85.62 104.481 87.18 107.121 87.18C109.721 87.18 111.341 85.78 111.341 83.92ZM124.305 81.48C124.305 78.02 121.825 75.8 118.685 75.8C115.545 75.8 113.065 78.02 113.065 81.48C113.065 84.94 115.445 87.18 118.585 87.18C121.745 87.18 124.305 84.94 124.305 81.48ZM115.385 81.48C115.385 78.98 116.925 77.78 118.645 77.78C120.345 77.78 121.965 78.98 121.965 81.48C121.965 83.98 120.285 85.2 118.585 85.2C116.865 85.2 115.385 83.98 115.385 81.48ZM128.839 81.2C128.839 78.86 129.879 78.16 131.559 78.16H132.139V75.8C130.579 75.8 129.479 76.48 128.839 77.58V75.98H126.559V87H128.839V81.2Z" fill="#212832"/>
<rect x="0.5" y="57.5" width="399" height="49" stroke="black" stroke-opacity="0.5"/>
<rect x="840" width="400" height="50" fill="white"/>
<path d="M864.6 25.94C866.08 25.94 867.24 24.8 867.24 23.34C867.24 21.86 866.08 20.72 864.6 20.72C863.16 20.72 862 21.86 862 23.34C862 24.8 863.16 25.94 864.6 25.94ZM885.669 16.1H881.129V30H885.669C890.129 30 893.049 27.38 893.049 23.1C893.049 18.8 890.129 16.1 885.669 16.1ZM883.409 28.14V17.96H885.669C888.949 17.96 890.709 19.92 890.709 23.1C890.709 26.26 888.949 28.14 885.669 28.14H883.409ZM894.549 24.44C894.549 27.84 896.849 30.18 899.709 30.18C901.549 30.18 902.869 29.3 903.569 28.36V30H905.869V18.98H903.569V20.58C902.889 19.68 901.609 18.8 899.749 18.8C896.849 18.8 894.549 21.04 894.549 24.44ZM903.569 24.48C903.569 26.86 901.949 28.2 900.229 28.2C898.529 28.2 896.889 26.82 896.889 24.44C896.889 22.06 898.529 20.78 900.229 20.78C901.949 20.78 903.569 22.12 903.569 24.48ZM909.223 26.94C909.223 29.18 910.443 30 912.403 30H914.203V28.1H912.803C911.843 28.1 911.523 27.76 911.523 26.94V20.84H914.203V18.98H911.523V16.24H909.223V18.98H907.923V20.84H909.223V26.94ZM915.545 24.44C915.545 27.84 917.845 30.18 920.705 30.18C922.545 30.18 923.865 29.3 924.565 28.36V30H926.865V18.98H924.565V20.58C923.885 19.68 922.605 18.8 920.745 18.8C917.845 18.8 915.545 21.04 915.545 24.44ZM924.565 24.48C924.565 26.86 922.945 28.2 921.225 28.2C919.525 28.2 917.885 26.82 917.885 24.44C917.885 22.06 919.525 20.78 921.225 20.78C922.945 20.78 924.565 22.12 924.565 24.48ZM944.435 30H946.835L941.855 16.08H939.215L934.235 30H936.615L937.615 27.16H943.435L944.435 30ZM942.795 25.3H938.255L940.535 18.84L942.795 25.3ZM956.82 30H959.08V23.5C959.08 20.42 957.14 18.8 954.56 18.8C953.24 18.8 952.02 19.34 951.28 20.24V18.98H949V30H951.28V23.84C951.28 21.82 952.38 20.78 954.06 20.78C955.72 20.78 956.82 21.82 956.82 23.84V30ZM961.228 24.44C961.228 27.84 963.528 30.18 966.388 30.18C968.228 30.18 969.548 29.3 970.248 28.36V30H972.548V18.98H970.248V20.58C969.568 19.68 968.288 18.8 966.428 18.8C963.528 18.8 961.228 21.04 961.228 24.44ZM970.248 24.48C970.248 26.86 968.628 28.2 966.908 28.2C965.208 28.2 963.568 26.82 963.568 24.44C963.568 22.06 965.208 20.78 966.908 20.78C968.628 20.78 970.248 22.12 970.248 24.48ZM975.543 30H977.823V15.2H975.543V30ZM985.156 27.38L982.056 18.98H979.516L983.856 29.82L981.616 35.18H983.976L990.736 18.98H988.376L985.156 27.38ZM1000.68 26.92C1000.56 22.94 994.337 24.18 994.337 21.96C994.337 21.22 994.977 20.72 996.197 20.72C997.437 20.72 998.177 21.38 998.257 22.34H1000.54C1000.42 20.14 998.777 18.8 996.277 18.8C993.677 18.8 992.037 20.22 992.037 21.98C992.037 26.02 998.437 24.78 998.437 26.94C998.437 27.7 997.737 28.26 996.417 28.26C995.157 28.26 994.297 27.52 994.217 26.62H991.857C991.957 28.62 993.817 30.18 996.457 30.18C999.057 30.18 1000.68 28.78 1000.68 26.92ZM1003.5 26.94C1003.5 29.18 1004.72 30 1006.68 30H1008.48V28.1H1007.08C1006.12 28.1 1005.8 27.76 1005.8 26.94V20.84H1008.48V18.98H1005.8V16.24H1003.5V18.98H1002.2V20.84H1003.5V26.94Z" fill="#212832"/>
<rect x="840.5" y="0.5" width="399" height="49" stroke="black" stroke-opacity="0.5"/>
<rect x="840" y="114" width="400" height="50" fill="white"/>
<path d="M864.6 139.94C866.08 139.94 867.24 138.8 867.24 137.34C867.24 135.86 866.08 134.72 864.6 134.72C863.16 134.72 862 135.86 862 137.34C862 138.8 863.16 139.94 864.6 139.94ZM888.509 134.26C888.509 135.64 887.709 136.62 885.929 136.62H883.409V131.96H885.929C887.709 131.96 888.509 132.86 888.509 134.26ZM881.129 130.1V144H883.409V138.44H885.149L888.349 144H891.069L887.629 138.24C889.969 137.66 890.849 135.9 890.849 134.26C890.849 132 889.229 130.1 885.929 130.1H881.129ZM898.406 134.72C900.106 134.72 901.446 135.8 901.486 137.5H895.386C895.626 135.76 896.866 134.72 898.406 134.72ZM903.566 140.72H901.106C900.686 141.58 899.906 142.26 898.506 142.26C896.826 142.26 895.526 141.16 895.366 139.34H903.786C903.846 138.96 903.866 138.6 903.866 138.22C903.866 134.98 901.646 132.8 898.506 132.8C895.246 132.8 893.006 135.02 893.006 138.48C893.006 141.94 895.346 144.18 898.506 144.18C901.206 144.18 902.946 142.64 903.566 140.72ZM908.389 134.6V132.98H906.109V149.24H908.389V142.4C909.109 143.26 910.409 144.18 912.229 144.18C915.129 144.18 917.409 141.84 917.409 138.44C917.409 135.04 915.129 132.8 912.229 132.8C910.429 132.8 909.089 133.68 908.389 134.6ZM915.089 138.44C915.089 140.82 913.449 142.2 911.729 142.2C910.029 142.2 908.389 140.86 908.389 138.48C908.389 136.12 910.029 134.78 911.729 134.78C913.449 134.78 915.089 136.06 915.089 138.44ZM930.164 138.48C930.164 135.02 927.684 132.8 924.544 132.8C921.404 132.8 918.924 135.02 918.924 138.48C918.924 141.94 921.304 144.18 924.444 144.18C927.604 144.18 930.164 141.94 930.164 138.48ZM921.244 138.48C921.244 135.98 922.784 134.78 924.504 134.78C926.204 134.78 927.824 135.98 927.824 138.48C927.824 140.98 926.144 142.2 924.444 142.2C922.724 142.2 921.244 140.98 921.244 138.48ZM934.698 138.2C934.698 135.86 935.738 135.16 937.418 135.16H937.998V132.8C936.438 132.8 935.338 133.48 934.698 134.58V132.98H932.418V144H934.698V138.2ZM940.454 140.94C940.454 143.18 941.674 144 943.634 144H945.434V142.1H944.034C943.074 142.1 942.754 141.76 942.754 140.94V134.84H945.434V132.98H942.754V130.24H940.454V132.98H939.154V134.84H940.454V140.94ZM947.535 144H949.815V132.98H947.535V144ZM948.695 131.52C949.495 131.52 950.135 130.88 950.135 130.06C950.135 129.24 949.495 128.6 948.695 128.6C947.875 128.6 947.235 129.24 947.235 130.06C947.235 130.88 947.875 131.52 948.695 131.52ZM960.629 144H962.889V137.5C962.889 134.42 960.949 132.8 958.369 132.8C957.049 132.8 955.829 133.34 955.089 134.24V132.98H952.809V144H955.089V137.84C955.089 135.82 956.189 134.78 957.869 134.78C959.529 134.78 960.629 135.82 960.629 137.84V144ZM965.037 138.44C965.037 141.84 967.337 144.18 970.237 144.18C972.037 144.18 973.357 143.28 974.057 142.34V144.18C974.057 146.38 972.737 147.46 970.977 147.46C969.397 147.46 968.177 146.68 967.837 145.54H965.577C965.857 147.98 968.037 149.44 970.977 149.44C974.417 149.44 976.357 147.18 976.357 144.18V132.98H974.057V134.58C973.377 133.64 972.037 132.8 970.237 132.8C967.337 132.8 965.037 135.04 965.037 138.44ZM974.057 138.48C974.057 140.86 972.437 142.2 970.717 142.2C969.017 142.2 967.377 140.82 967.377 138.44C967.377 136.06 969.017 134.78 970.717 134.78C972.437 134.78 974.057 136.12 974.057 138.48ZM983.787 137.02C983.787 141.2 986.967 144.12 990.887 144.12C993.787 144.12 996.287 142.68 997.347 139.96H994.607C993.867 141.44 992.547 142.14 990.887 142.14C988.127 142.14 986.127 140.16 986.127 137.02C986.127 133.88 988.127 131.92 990.887 131.92C992.547 131.92 993.867 132.62 994.607 134.1H997.347C996.287 131.38 993.787 129.92 990.887 129.92C986.967 129.92 983.787 132.86 983.787 137.02ZM1010.52 138.48C1010.52 135.02 1008.04 132.8 1004.9 132.8C1001.76 132.8 999.276 135.02 999.276 138.48C999.276 141.94 1001.66 144.18 1004.8 144.18C1007.96 144.18 1010.52 141.94 1010.52 138.48ZM1001.6 138.48C1001.6 135.98 1003.14 134.78 1004.86 134.78C1006.56 134.78 1008.18 135.98 1008.18 138.48C1008.18 140.98 1006.5 142.2 1004.8 142.2C1003.08 142.2 1001.6 140.98 1001.6 138.48ZM1023.27 138.48C1023.27 135.02 1020.79 132.8 1017.65 132.8C1014.51 132.8 1012.03 135.02 1012.03 138.48C1012.03 141.94 1014.41 144.18 1017.55 144.18C1020.71 144.18 1023.27 141.94 1023.27 138.48ZM1014.35 138.48C1014.35 135.98 1015.89 134.78 1017.61 134.78C1019.31 134.78 1020.93 135.98 1020.93 138.48C1020.93 140.98 1019.25 142.2 1017.55 142.2C1015.83 142.2 1014.35 140.98 1014.35 138.48ZM1027.8 138.2C1027.8 135.86 1028.84 135.16 1030.52 135.16H1031.1V132.8C1029.54 132.8 1028.44 133.48 1027.8 134.58V132.98H1025.52V144H1027.8V138.2ZM1032.44 138.44C1032.44 141.84 1034.74 144.18 1037.64 144.18C1039.44 144.18 1040.76 143.34 1041.46 142.34V144H1043.76V129.2H1041.46V134.52C1040.62 133.48 1039.1 132.8 1037.66 132.8C1034.74 132.8 1032.44 135.04 1032.44 138.44ZM1041.46 138.48C1041.46 140.86 1039.84 142.2 1038.12 142.2C1036.42 142.2 1034.78 140.82 1034.78 138.44C1034.78 136.06 1036.42 134.78 1038.12 134.78C1039.84 134.78 1041.46 136.12 1041.46 138.48ZM1046.75 144H1049.03V132.98H1046.75V144ZM1047.91 131.52C1048.71 131.52 1049.35 130.88 1049.35 130.06C1049.35 129.24 1048.71 128.6 1047.91 128.6C1047.09 128.6 1046.45 129.24 1046.45 130.06C1046.45 130.88 1047.09 131.52 1047.91 131.52ZM1059.85 144H1062.11V137.5C1062.11 134.42 1060.17 132.8 1057.59 132.8C1056.27 132.8 1055.05 133.34 1054.31 134.24V132.98H1052.03V144H1054.31V137.84C1054.31 135.82 1055.41 134.78 1057.09 134.78C1058.75 134.78 1059.85 135.82 1059.85 137.84V144ZM1064.26 138.44C1064.26 141.84 1066.56 144.18 1069.42 144.18C1071.26 144.18 1072.58 143.3 1073.28 142.36V144H1075.58V132.98H1073.28V134.58C1072.6 133.68 1071.32 132.8 1069.46 132.8C1066.56 132.8 1064.26 135.04 1064.26 138.44ZM1073.28 138.48C1073.28 140.86 1071.66 142.2 1069.94 142.2C1068.24 142.2 1066.6 140.82 1066.6 138.44C1066.6 136.06 1068.24 134.78 1069.94 134.78C1071.66 134.78 1073.28 136.12 1073.28 138.48ZM1078.93 140.94C1078.93 143.18 1080.15 144 1082.11 144H1083.91V142.1H1082.51C1081.55 142.1 1081.23 141.76 1081.23 140.94V134.84H1083.91V132.98H1081.23V130.24H1078.93V132.98H1077.63V134.84H1078.93V140.94ZM1096.51 138.48C1096.51 135.02 1094.03 132.8 1090.89 132.8C1087.75 132.8 1085.27 135.02 1085.27 138.48C1085.27 141.94 1087.65 144.18 1090.79 144.18C1093.95 144.18 1096.51 141.94 1096.51 138.48ZM1087.59 138.48C1087.59 135.98 1089.13 134.78 1090.85 134.78C1092.55 134.78 1094.17 135.98 1094.17 138.48C1094.17 140.98 1092.49 142.2 1090.79 142.2C1089.07 142.2 1087.59 140.98 1087.59 138.48ZM1101.05 138.2C1101.05 135.86 1102.09 135.16 1103.77 135.16H1104.35V132.8C1102.79 132.8 1101.69 133.48 1101.05 134.58V132.98H1098.77V144H1101.05V138.2Z" fill="#212832"/>
<rect x="840.5" y="114.5" width="399" height="49" stroke="black" stroke-opacity="0.5"/>
<rect x="840" y="57" width="400" height="50" fill="white"/>
<path d="M864.6 82.94C866.08 82.94 867.24 81.8 867.24 80.34C867.24 78.86 866.08 77.72 864.6 77.72C863.16 77.72 862 78.86 862 80.34C862 81.8 863.16 82.94 864.6 82.94ZM885.669 73.1H881.129V87H885.669C890.129 87 893.049 84.38 893.049 80.1C893.049 75.8 890.129 73.1 885.669 73.1ZM883.409 85.14V74.96H885.669C888.949 74.96 890.709 76.92 890.709 80.1C890.709 83.26 888.949 85.14 885.669 85.14H883.409ZM894.549 81.44C894.549 84.84 896.849 87.18 899.709 87.18C901.549 87.18 902.869 86.3 903.569 85.36V87H905.869V75.98H903.569V77.58C902.889 76.68 901.609 75.8 899.749 75.8C896.849 75.8 894.549 78.04 894.549 81.44ZM903.569 81.48C903.569 83.86 901.949 85.2 900.229 85.2C898.529 85.2 896.889 83.82 896.889 81.44C896.889 79.06 898.529 77.78 900.229 77.78C901.949 77.78 903.569 79.12 903.569 81.48ZM909.223 83.94C909.223 86.18 910.443 87 912.403 87H914.203V85.1H912.803C911.843 85.1 911.523 84.76 911.523 83.94V77.84H914.203V75.98H911.523V73.24H909.223V75.98H907.923V77.84H909.223V83.94ZM915.545 81.44C915.545 84.84 917.845 87.18 920.705 87.18C922.545 87.18 923.865 86.3 924.565 85.36V87H926.865V75.98H924.565V77.58C923.885 76.68 922.605 75.8 920.745 75.8C917.845 75.8 915.545 78.04 915.545 81.44ZM924.565 81.48C924.565 83.86 922.945 85.2 921.225 85.2C919.525 85.2 917.885 83.82 917.885 81.44C917.885 79.06 919.525 77.78 921.225 77.78C922.945 77.78 924.565 79.12 924.565 81.48ZM932.139 77.62V72.2H929.859V87H932.139V85.4C932.859 86.36 934.159 87.18 935.979 87.18C938.879 87.18 941.159 84.84 941.159 81.44C941.159 78.04 938.899 75.8 935.979 75.8C934.239 75.8 932.859 76.62 932.139 77.62ZM938.839 81.44C938.839 83.82 937.199 85.2 935.479 85.2C933.779 85.2 932.139 83.86 932.139 81.48C932.139 79.12 933.779 77.78 935.479 77.78C937.199 77.78 938.839 79.06 938.839 81.44ZM942.654 81.44C942.654 84.84 944.954 87.18 947.814 87.18C949.654 87.18 950.974 86.3 951.674 85.36V87H953.974V75.98H951.674V77.58C950.994 76.68 949.714 75.8 947.854 75.8C944.954 75.8 942.654 78.04 942.654 81.44ZM951.674 81.48C951.674 83.86 950.054 85.2 948.334 85.2C946.634 85.2 944.994 83.82 944.994 81.44C944.994 79.06 946.634 77.78 948.334 77.78C950.054 77.78 951.674 79.12 951.674 81.48ZM965.189 83.92C965.069 79.94 958.849 81.18 958.849 78.96C958.849 78.22 959.489 77.72 960.709 77.72C961.949 77.72 962.689 78.38 962.769 79.34H965.049C964.929 77.14 963.289 75.8 960.789 75.8C958.189 75.8 956.549 77.22 956.549 78.98C956.549 83.02 962.949 81.78 962.949 83.94C962.949 84.7 962.249 85.26 960.929 85.26C959.669 85.26 958.809 84.52 958.729 83.62H956.369C956.469 85.62 958.329 87.18 960.969 87.18C963.569 87.18 965.189 85.78 965.189 83.92ZM972.292 77.72C973.992 77.72 975.332 78.8 975.372 80.5H969.272C969.512 78.76 970.752 77.72 972.292 77.72ZM977.452 83.72H974.992C974.572 84.58 973.792 85.26 972.392 85.26C970.712 85.26 969.412 84.16 969.252 82.34H977.672C977.732 81.96 977.752 81.6 977.752 81.22C977.752 77.98 975.532 75.8 972.392 75.8C969.132 75.8 966.892 78.02 966.892 81.48C966.892 84.94 969.232 87.18 972.392 87.18C975.092 87.18 976.832 85.64 977.452 83.72ZM994.571 87H996.971L991.991 73.08H989.351L984.371 87H986.751L987.751 84.16H993.571L994.571 87ZM992.931 82.3H988.391L990.671 75.84L992.931 82.3ZM1001.42 81.2C1001.42 78.86 1002.46 78.16 1004.14 78.16H1004.72V75.8C1003.16 75.8 1002.06 76.48 1001.42 77.58V75.98H999.137V87H1001.42V81.2ZM1006.05 81.48C1006.05 84.94 1008.29 87.18 1011.45 87.18C1014.15 87.18 1015.91 85.68 1016.53 83.52H1014.07C1013.65 84.66 1012.81 85.26 1011.45 85.26C1009.61 85.26 1008.39 83.9 1008.39 81.48C1008.39 79.08 1009.61 77.72 1011.45 77.72C1012.81 77.72 1013.69 78.4 1014.07 79.46H1016.53C1015.91 77.14 1014.15 75.8 1011.45 75.8C1008.29 75.8 1006.05 78.04 1006.05 81.48ZM1018.8 87H1021.08V80.84C1021.08 78.82 1022.18 77.78 1023.86 77.78C1025.52 77.78 1026.62 78.82 1026.62 80.84V87H1028.88V80.5C1028.88 77.42 1026.96 75.8 1024.5 75.8C1023.08 75.8 1021.84 76.34 1021.08 77.26V72.2H1018.8V87ZM1031.79 87H1034.07V75.98H1031.79V87ZM1032.95 74.52C1033.75 74.52 1034.39 73.88 1034.39 73.06C1034.39 72.24 1033.75 71.6 1032.95 71.6C1032.13 71.6 1031.49 72.24 1031.49 73.06C1031.49 73.88 1032.13 74.52 1032.95 74.52ZM1037.43 83.94C1037.43 86.18 1038.65 87 1040.61 87H1042.41V85.1H1041.01C1040.05 85.1 1039.73 84.76 1039.73 83.94V77.84H1042.41V75.98H1039.73V73.24H1037.43V75.98H1036.13V77.84H1037.43V83.94ZM1049.15 77.72C1050.85 77.72 1052.19 78.8 1052.23 80.5H1046.13C1046.37 78.76 1047.61 77.72 1049.15 77.72ZM1054.31 83.72H1051.85C1051.43 84.58 1050.65 85.26 1049.25 85.26C1047.57 85.26 1046.27 84.16 1046.11 82.34H1054.53C1054.59 81.96 1054.61 81.6 1054.61 81.22C1054.61 77.98 1052.39 75.8 1049.25 75.8C1045.99 75.8 1043.75 78.02 1043.75 81.48C1043.75 84.94 1046.09 87.18 1049.25 87.18C1051.95 87.18 1053.69 85.64 1054.31 83.72ZM1056.09 81.48C1056.09 84.94 1058.33 87.18 1061.49 87.18C1064.19 87.18 1065.95 85.68 1066.57 83.52H1064.11C1063.69 84.66 1062.85 85.26 1061.49 85.26C1059.65 85.26 1058.43 83.9 1058.43 81.48C1058.43 79.08 1059.65 77.72 1061.49 77.72C1062.85 77.72 1063.73 78.4 1064.11 79.46H1066.57C1065.95 77.14 1064.19 75.8 1061.49 75.8C1058.33 75.8 1056.09 78.04 1056.09 81.48ZM1069.2 83.94C1069.2 86.18 1070.42 87 1072.38 87H1074.18V85.1H1072.78C1071.82 85.1 1071.5 84.76 1071.5 83.94V77.84H1074.18V75.98H1071.5V73.24H1069.2V75.98H1067.9V77.84H1069.2V83.94Z" fill="#212832"/>
<rect x="840.5" y="57.5" width="399" height="49" stroke="black" stroke-opacity="0.5"/>
<rect x="420" width="400" height="50" fill="white"/>
<path d="M444.6 25.94C446.08 25.94 447.24 24.8 447.24 23.34C447.24 21.86 446.08 20.72 444.6 20.72C443.16 20.72 442 21.86 442 23.34C442 24.8 443.16 25.94 444.6 25.94ZM465.669 16.1H461.129V30H465.669C470.129 30 473.049 27.38 473.049 23.1C473.049 18.8 470.129 16.1 465.669 16.1ZM463.409 28.14V17.96H465.669C468.949 17.96 470.709 19.92 470.709 23.1C470.709 26.26 468.949 28.14 465.669 28.14H463.409ZM474.549 24.44C474.549 27.84 476.849 30.18 479.709 30.18C481.549 30.18 482.869 29.3 483.569 28.36V30H485.869V18.98H483.569V20.58C482.889 19.68 481.609 18.8 479.749 18.8C476.849 18.8 474.549 21.04 474.549 24.44ZM483.569 24.48C483.569 26.86 481.949 28.2 480.229 28.2C478.529 28.2 476.889 26.82 476.889 24.44C476.889 22.06 478.529 20.78 480.229 20.78C481.949 20.78 483.569 22.12 483.569 24.48ZM489.223 26.94C489.223 29.18 490.443 30 492.403 30H494.203V28.1H492.803C491.843 28.1 491.523 27.76 491.523 26.94V20.84H494.203V18.98H491.523V16.24H489.223V18.98H487.923V20.84H489.223V26.94ZM495.545 24.44C495.545 27.84 497.845 30.18 500.705 30.18C502.545 30.18 503.865 29.3 504.565 28.36V30H506.865V18.98H504.565V20.58C503.885 19.68 502.605 18.8 500.745 18.8C497.845 18.8 495.545 21.04 495.545 24.44ZM504.565 24.48C504.565 26.86 502.945 28.2 501.225 28.2C499.525 28.2 497.885 26.82 497.885 24.44C497.885 22.06 499.525 20.78 501.225 20.78C502.945 20.78 504.565 22.12 504.565 24.48ZM512.139 20.62V15.2H509.859V30H512.139V28.4C512.859 29.36 514.159 30.18 515.979 30.18C518.879 30.18 521.159 27.84 521.159 24.44C521.159 21.04 518.899 18.8 515.979 18.8C514.239 18.8 512.859 19.62 512.139 20.62ZM518.839 24.44C518.839 26.82 517.199 28.2 515.479 28.2C513.779 28.2 512.139 26.86 512.139 24.48C512.139 22.12 513.779 20.78 515.479 20.78C517.199 20.78 518.839 22.06 518.839 24.44ZM522.654 24.44C522.654 27.84 524.954 30.18 527.814 30.18C529.654 30.18 530.974 29.3 531.674 28.36V30H533.974V18.98H531.674V20.58C530.994 19.68 529.714 18.8 527.854 18.8C524.954 18.8 522.654 21.04 522.654 24.44ZM531.674 24.48C531.674 26.86 530.054 28.2 528.334 28.2C526.634 28.2 524.994 26.82 524.994 24.44C524.994 22.06 526.634 20.78 528.334 20.78C530.054 20.78 531.674 22.12 531.674 24.48ZM545.189 26.92C545.069 22.94 538.849 24.18 538.849 21.96C538.849 21.22 539.489 20.72 540.709 20.72C541.949 20.72 542.689 21.38 542.769 22.34H545.049C544.929 20.14 543.289 18.8 540.789 18.8C538.189 18.8 536.549 20.22 536.549 21.98C536.549 26.02 542.949 24.78 542.949 26.94C542.949 27.7 542.249 28.26 540.929 28.26C539.669 28.26 538.809 27.52 538.729 26.62H536.369C536.469 28.62 538.329 30.18 540.969 30.18C543.569 30.18 545.189 28.78 545.189 26.92ZM552.292 20.72C553.992 20.72 555.332 21.8 555.372 23.5H549.272C549.512 21.76 550.752 20.72 552.292 20.72ZM557.452 26.72H554.992C554.572 27.58 553.792 28.26 552.392 28.26C550.712 28.26 549.412 27.16 549.252 25.34H557.672C557.732 24.96 557.752 24.6 557.752 24.22C557.752 20.98 555.532 18.8 552.392 18.8C549.132 18.8 546.892 21.02 546.892 24.48C546.892 27.94 549.232 30.18 552.392 30.18C555.092 30.18 556.832 28.64 557.452 26.72ZM574.571 30H576.971L571.991 16.08H569.351L564.371 30H566.751L567.751 27.16H573.571L574.571 30ZM572.931 25.3H568.391L570.671 18.84L572.931 25.3ZM578.377 24.44C578.377 27.84 580.677 30.18 583.577 30.18C585.377 30.18 586.697 29.34 587.397 28.34V30H589.697V15.2H587.397V20.52C586.557 19.48 585.037 18.8 583.597 18.8C580.677 18.8 578.377 21.04 578.377 24.44ZM587.397 24.48C587.397 26.86 585.777 28.2 584.057 28.2C582.357 28.2 580.717 26.82 580.717 24.44C580.717 22.06 582.357 20.78 584.057 20.78C585.777 20.78 587.397 22.12 587.397 24.48ZM608.311 30H610.571V23.5C610.571 20.42 608.611 18.8 606.031 18.8C604.431 18.8 602.871 19.64 602.191 20.98C601.431 19.54 599.971 18.8 598.231 18.8C596.911 18.8 595.711 19.34 594.971 20.24V18.98H592.691V30H594.971V23.84C594.971 21.82 596.071 20.78 597.751 20.78C599.411 20.78 600.511 21.82 600.511 23.84V30H602.771V23.84C602.771 21.82 603.871 20.78 605.551 20.78C607.211 20.78 608.311 21.82 608.311 23.84V30ZM613.473 30H615.753V18.98H613.473V30ZM614.633 17.52C615.433 17.52 616.073 16.88 616.073 16.06C616.073 15.24 615.433 14.6 614.633 14.6C613.813 14.6 613.173 15.24 613.173 16.06C613.173 16.88 613.813 17.52 614.633 17.52ZM626.566 30H628.826V23.5C628.826 20.42 626.886 18.8 624.306 18.8C622.986 18.8 621.766 19.34 621.026 20.24V18.98H618.746V30H621.026V23.84C621.026 21.82 622.126 20.78 623.806 20.78C625.466 20.78 626.566 21.82 626.566 23.84V30ZM631.734 30H634.014V18.98H631.734V30ZM632.894 17.52C633.694 17.52 634.334 16.88 634.334 16.06C634.334 15.24 633.694 14.6 632.894 14.6C632.074 14.6 631.434 15.24 631.434 16.06C631.434 16.88 632.074 17.52 632.894 17.52ZM645.228 26.92C645.108 22.94 638.888 24.18 638.888 21.96C638.888 21.22 639.528 20.72 640.748 20.72C641.988 20.72 642.728 21.38 642.808 22.34H645.088C644.968 20.14 643.328 18.8 640.828 18.8C638.228 18.8 636.588 20.22 636.588 21.98C636.588 26.02 642.988 24.78 642.988 26.94C642.988 27.7 642.288 28.26 640.968 28.26C639.708 28.26 638.848 27.52 638.768 26.62H636.408C636.508 28.62 638.368 30.18 641.008 30.18C643.608 30.18 645.228 28.78 645.228 26.92ZM648.051 26.94C648.051 29.18 649.271 30 651.231 30H653.031V28.1H651.631C650.671 28.1 650.351 27.76 650.351 26.94V20.84H653.031V18.98H650.351V16.24H648.051V18.98H646.751V20.84H648.051V26.94ZM657.413 24.2C657.413 21.86 658.453 21.16 660.133 21.16H660.713V18.8C659.153 18.8 658.053 19.48 657.413 20.58V18.98H655.133V30H657.413V24.2ZM662.049 24.44C662.049 27.84 664.349 30.18 667.209 30.18C669.049 30.18 670.369 29.3 671.069 28.36V30H673.369V18.98H671.069V20.58C670.389 19.68 669.109 18.8 667.249 18.8C664.349 18.8 662.049 21.04 662.049 24.44ZM671.069 24.48C671.069 26.86 669.449 28.2 667.729 28.2C666.029 28.2 664.389 26.82 664.389 24.44C664.389 22.06 666.029 20.78 667.729 20.78C669.449 20.78 671.069 22.12 671.069 24.48ZM676.723 26.94C676.723 29.18 677.943 30 679.903 30H681.703V28.1H680.303C679.343 28.1 679.023 27.76 679.023 26.94V20.84H681.703V18.98H679.023V16.24H676.723V18.98H675.423V20.84H676.723V26.94ZM694.305 24.48C694.305 21.02 691.825 18.8 688.685 18.8C685.545 18.8 683.065 21.02 683.065 24.48C683.065 27.94 685.445 30.18 688.585 30.18C691.745 30.18 694.305 27.94 694.305 24.48ZM685.385 24.48C685.385 21.98 686.925 20.78 688.645 20.78C690.345 20.78 691.965 21.98 691.965 24.48C691.965 26.98 690.285 28.2 688.585 28.2C686.865 28.2 685.385 26.98 685.385 24.48ZM698.839 24.2C698.839 21.86 699.879 21.16 701.559 21.16H702.139V18.8C700.579 18.8 699.479 19.48 698.839 20.58V18.98H696.559V30H698.839V24.2Z" fill="#212832"/>
<rect x="420.5" y="0.5" width="399" height="49" stroke="black" stroke-opacity="0.5"/>
<rect x="420" y="114" width="400" height="50" fill="white"/>
<path d="M444.6 139.94C446.08 139.94 447.24 138.8 447.24 137.34C447.24 135.86 446.08 134.72 444.6 134.72C443.16 134.72 442 135.86 442 137.34C442 138.8 443.16 139.94 444.6 139.94ZM460.369 137.02C460.369 141.2 463.549 144.12 467.469 144.12C470.369 144.12 472.869 142.68 473.929 139.96H471.189C470.449 141.44 469.129 142.14 467.469 142.14C464.709 142.14 462.709 140.16 462.709 137.02C462.709 133.88 464.709 131.92 467.469 131.92C469.129 131.92 470.449 132.62 471.189 134.1H473.929C472.869 131.38 470.369 129.92 467.469 129.92C463.549 129.92 460.369 132.86 460.369 137.02ZM476.598 144H478.878V129.2H476.598V144ZM481.871 144H484.151V132.98H481.871V144ZM483.031 131.52C483.831 131.52 484.471 130.88 484.471 130.06C484.471 129.24 483.831 128.6 483.031 128.6C482.211 128.6 481.571 129.24 481.571 130.06C481.571 130.88 482.211 131.52 483.031 131.52ZM494.965 144H497.225V137.5C497.225 134.42 495.285 132.8 492.705 132.8C491.385 132.8 490.165 133.34 489.425 134.24V132.98H487.145V144H489.425V137.84C489.425 135.82 490.525 134.78 492.205 134.78C493.865 134.78 494.965 135.82 494.965 137.84V144ZM500.133 144H502.413V132.98H500.133V144ZM501.293 131.52C502.093 131.52 502.733 130.88 502.733 130.06C502.733 129.24 502.093 128.6 501.293 128.6C500.473 128.6 499.833 129.24 499.833 130.06C499.833 130.88 500.473 131.52 501.293 131.52ZM504.646 138.48C504.646 141.94 506.886 144.18 510.046 144.18C512.746 144.18 514.506 142.68 515.126 140.52H512.666C512.246 141.66 511.406 142.26 510.046 142.26C508.206 142.26 506.986 140.9 506.986 138.48C506.986 136.08 508.206 134.72 510.046 134.72C511.406 134.72 512.286 135.4 512.666 136.46H515.126C514.506 134.14 512.746 132.8 510.046 132.8C506.886 132.8 504.646 135.04 504.646 138.48ZM516.638 138.44C516.638 141.84 518.938 144.18 521.798 144.18C523.638 144.18 524.958 143.3 525.658 142.36V144H527.958V132.98H525.658V134.58C524.978 133.68 523.698 132.8 521.838 132.8C518.938 132.8 516.638 135.04 516.638 138.44ZM525.658 138.48C525.658 140.86 524.038 142.2 522.318 142.2C520.618 142.2 518.978 140.82 518.978 138.44C518.978 136.06 520.618 134.78 522.318 134.78C524.038 134.78 525.658 136.12 525.658 138.48ZM530.953 144H533.233V129.2H530.953V144ZM545.962 130.1H541.422V144H545.962C550.422 144 553.342 141.38 553.342 137.1C553.342 132.8 550.422 130.1 545.962 130.1ZM543.702 142.14V131.96H545.962C549.242 131.96 551.002 133.92 551.002 137.1C551.002 140.26 549.242 142.14 545.962 142.14H543.702ZM554.842 138.44C554.842 141.84 557.142 144.18 560.002 144.18C561.842 144.18 563.162 143.3 563.862 142.36V144H566.162V132.98H563.862V134.58C563.182 133.68 561.902 132.8 560.042 132.8C557.142 132.8 554.842 135.04 554.842 138.44ZM563.862 138.48C563.862 140.86 562.242 142.2 560.522 142.2C558.822 142.2 557.182 140.82 557.182 138.44C557.182 136.06 558.822 134.78 560.522 134.78C562.242 134.78 563.862 136.12 563.862 138.48ZM569.516 140.94C569.516 143.18 570.736 144 572.696 144H574.496V142.1H573.096C572.136 142.1 571.816 141.76 571.816 140.94V134.84H574.496V132.98H571.816V130.24H569.516V132.98H568.216V134.84H569.516V140.94ZM575.838 138.44C575.838 141.84 578.138 144.18 580.998 144.18C582.838 144.18 584.158 143.3 584.858 142.36V144H587.158V132.98H584.858V134.58C584.178 133.68 582.898 132.8 581.038 132.8C578.138 132.8 575.838 135.04 575.838 138.44ZM584.858 138.48C584.858 140.86 583.238 142.2 581.518 142.2C579.818 142.2 578.178 140.82 578.178 138.44C578.178 136.06 579.818 134.78 581.518 134.78C583.238 134.78 584.858 136.12 584.858 138.48ZM592.432 134.62V129.2H590.152V144H592.432V142.4C593.152 143.36 594.452 144.18 596.272 144.18C599.172 144.18 601.452 141.84 601.452 138.44C601.452 135.04 599.192 132.8 596.272 132.8C594.532 132.8 593.152 133.62 592.432 134.62ZM599.132 138.44C599.132 140.82 597.492 142.2 595.772 142.2C594.072 142.2 592.432 140.86 592.432 138.48C592.432 136.12 594.072 134.78 595.772 134.78C597.492 134.78 599.132 136.06 599.132 138.44ZM602.947 138.44C602.947 141.84 605.247 144.18 608.107 144.18C609.947 144.18 611.267 143.3 611.967 142.36V144H614.267V132.98H611.967V134.58C611.287 133.68 610.007 132.8 608.147 132.8C605.247 132.8 602.947 135.04 602.947 138.44ZM611.967 138.48C611.967 140.86 610.347 142.2 608.627 142.2C606.927 142.2 605.287 140.82 605.287 138.44C605.287 136.06 606.927 134.78 608.627 134.78C610.347 134.78 611.967 136.12 611.967 138.48ZM625.482 140.92C625.362 136.94 619.142 138.18 619.142 135.96C619.142 135.22 619.782 134.72 621.002 134.72C622.242 134.72 622.982 135.38 623.062 136.34H625.342C625.222 134.14 623.582 132.8 621.082 132.8C618.482 132.8 616.842 134.22 616.842 135.98C616.842 140.02 623.242 138.78 623.242 140.94C623.242 141.7 622.542 142.26 621.222 142.26C619.962 142.26 619.102 141.52 619.022 140.62H616.662C616.762 142.62 618.622 144.18 621.262 144.18C623.862 144.18 625.482 142.78 625.482 140.92ZM632.585 134.72C634.285 134.72 635.625 135.8 635.665 137.5H629.565C629.805 135.76 631.045 134.72 632.585 134.72ZM637.745 140.72H635.285C634.865 141.58 634.085 142.26 632.685 142.26C631.005 142.26 629.705 141.16 629.545 139.34H637.965C638.025 138.96 638.045 138.6 638.045 138.22C638.045 134.98 635.825 132.8 632.685 132.8C629.425 132.8 627.185 135.02 627.185 138.48C627.185 141.94 629.525 144.18 632.685 144.18C635.385 144.18 637.125 142.64 637.745 140.72ZM647.764 136.5V131.96H650.284C652.064 131.96 652.864 132.8 652.864 134.24C652.864 135.64 652.064 136.5 650.284 136.5H647.764ZM655.204 134.24C655.204 131.98 653.584 130.1 650.284 130.1H645.484V144H647.764V138.36H650.284C653.904 138.36 655.204 136.22 655.204 134.24ZM659.659 138.2C659.659 135.86 660.699 135.16 662.379 135.16H662.959V132.8C661.399 132.8 660.299 133.48 659.659 134.58V132.98H657.379V144H659.659V138.2ZM675.555 138.48C675.555 135.02 673.075 132.8 669.935 132.8C666.795 132.8 664.315 135.02 664.315 138.48C664.315 141.94 666.695 144.18 669.835 144.18C672.995 144.18 675.555 141.94 675.555 138.48ZM666.635 138.48C666.635 135.98 668.175 134.78 669.895 134.78C671.595 134.78 673.215 135.98 673.215 138.48C673.215 140.98 671.535 142.2 669.835 142.2C668.115 142.2 666.635 140.98 666.635 138.48ZM677.049 138.44C677.049 141.84 679.349 144.18 682.249 144.18C684.049 144.18 685.369 143.28 686.069 142.34V144.18C686.069 146.38 684.749 147.46 682.989 147.46C681.409 147.46 680.189 146.68 679.849 145.54H677.589C677.869 147.98 680.049 149.44 682.989 149.44C686.429 149.44 688.369 147.18 688.369 144.18V132.98H686.069V134.58C685.389 133.64 684.049 132.8 682.249 132.8C679.349 132.8 677.049 135.04 677.049 138.44ZM686.069 138.48C686.069 140.86 684.449 142.2 682.729 142.2C681.029 142.2 679.389 140.82 679.389 138.44C679.389 136.06 681.029 134.78 682.729 134.78C684.449 134.78 686.069 136.12 686.069 138.48ZM693.643 138.2C693.643 135.86 694.683 135.16 696.363 135.16H696.943V132.8C695.383 132.8 694.283 133.48 693.643 134.58V132.98H691.363V144H693.643V138.2ZM698.279 138.44C698.279 141.84 700.579 144.18 703.439 144.18C705.279 144.18 706.599 143.3 707.299 142.36V144H709.599V132.98H707.299V134.58C706.619 133.68 705.339 132.8 703.479 132.8C700.579 132.8 698.279 135.04 698.279 138.44ZM707.299 138.48C707.299 140.86 705.679 142.2 703.959 142.2C702.259 142.2 700.619 140.82 700.619 138.44C700.619 136.06 702.259 134.78 703.959 134.78C705.679 134.78 707.299 136.12 707.299 138.48ZM728.214 144H730.474V137.5C730.474 134.42 728.514 132.8 725.934 132.8C724.334 132.8 722.774 133.64 722.094 134.98C721.334 133.54 719.874 132.8 718.134 132.8C716.814 132.8 715.614 133.34 714.874 134.24V132.98H712.594V144H714.874V137.84C714.874 135.82 715.974 134.78 717.654 134.78C719.314 134.78 720.414 135.82 720.414 137.84V144H722.674V137.84C722.674 135.82 723.774 134.78 725.454 134.78C727.114 134.78 728.214 135.82 728.214 137.84V144ZM748.995 144H751.255V137.5C751.255 134.42 749.295 132.8 746.715 132.8C745.115 132.8 743.555 133.64 742.875 134.98C742.115 133.54 740.655 132.8 738.915 132.8C737.595 132.8 736.395 133.34 735.655 134.24V132.98H733.375V144H735.655V137.84C735.655 135.82 736.755 134.78 738.435 134.78C740.095 134.78 741.195 135.82 741.195 137.84V144H743.455V137.84C743.455 135.82 744.555 134.78 746.235 134.78C747.895 134.78 748.995 135.82 748.995 137.84V144ZM758.796 134.72C760.496 134.72 761.836 135.8 761.876 137.5H755.776C756.016 135.76 757.256 134.72 758.796 134.72ZM763.956 140.72H761.496C761.076 141.58 760.296 142.26 758.896 142.26C757.216 142.26 755.916 141.16 755.756 139.34H764.176C764.236 138.96 764.256 138.6 764.256 138.22C764.256 134.98 762.036 132.8 758.896 132.8C755.636 132.8 753.396 135.02 753.396 138.48C753.396 141.94 755.736 144.18 758.896 144.18C761.596 144.18 763.336 142.64 763.956 140.72ZM768.78 138.2C768.78 135.86 769.82 135.16 771.5 135.16H772.08V132.8C770.52 132.8 769.42 133.48 768.78 134.58V132.98H766.5V144H768.78V138.2Z" fill="#212832"/>
<rect x="420.5" y="114.5" width="399" height="49" stroke="black" stroke-opacity="0.5"/>
<rect x="420" y="57" width="400" height="50" fill="white"/>
<path d="M444.6 82.94C446.08 82.94 447.24 81.8 447.24 80.34C447.24 78.86 446.08 77.72 444.6 77.72C443.16 77.72 442 78.86 442 80.34C442 81.8 443.16 82.94 444.6 82.94ZM465.669 73.1H461.129V87H465.669C470.129 87 473.049 84.38 473.049 80.1C473.049 75.8 470.129 73.1 465.669 73.1ZM463.409 85.14V74.96H465.669C468.949 74.96 470.709 76.92 470.709 80.1C470.709 83.26 468.949 85.14 465.669 85.14H463.409ZM474.549 81.44C474.549 84.84 476.849 87.18 479.709 87.18C481.549 87.18 482.869 86.3 483.569 85.36V87H485.869V75.98H483.569V77.58C482.889 76.68 481.609 75.8 479.749 75.8C476.849 75.8 474.549 78.04 474.549 81.44ZM483.569 81.48C483.569 83.86 481.949 85.2 480.229 85.2C478.529 85.2 476.889 83.82 476.889 81.44C476.889 79.06 478.529 77.78 480.229 77.78C481.949 77.78 483.569 79.12 483.569 81.48ZM489.223 83.94C489.223 86.18 490.443 87 492.403 87H494.203V85.1H492.803C491.843 85.1 491.523 84.76 491.523 83.94V77.84H494.203V75.98H491.523V73.24H489.223V75.98H487.923V77.84H489.223V83.94ZM495.545 81.44C495.545 84.84 497.845 87.18 500.705 87.18C502.545 87.18 503.865 86.3 504.565 85.36V87H506.865V75.98H504.565V77.58C503.885 76.68 502.605 75.8 500.745 75.8C497.845 75.8 495.545 78.04 495.545 81.44ZM504.565 81.48C504.565 83.86 502.945 85.2 501.225 85.2C499.525 85.2 497.885 83.82 497.885 81.44C497.885 79.06 499.525 77.78 501.225 77.78C502.945 77.78 504.565 79.12 504.565 81.48ZM512.139 77.62V72.2H509.859V87H512.139V85.4C512.859 86.36 514.159 87.18 515.979 87.18C518.879 87.18 521.159 84.84 521.159 81.44C521.159 78.04 518.899 75.8 515.979 75.8C514.239 75.8 512.859 76.62 512.139 77.62ZM518.839 81.44C518.839 83.82 517.199 85.2 515.479 85.2C513.779 85.2 512.139 83.86 512.139 81.48C512.139 79.12 513.779 77.78 515.479 77.78C517.199 77.78 518.839 79.06 518.839 81.44ZM522.654 81.44C522.654 84.84 524.954 87.18 527.814 87.18C529.654 87.18 530.974 86.3 531.674 85.36V87H533.974V75.98H531.674V77.58C530.994 76.68 529.714 75.8 527.854 75.8C524.954 75.8 522.654 78.04 522.654 81.44ZM531.674 81.48C531.674 83.86 530.054 85.2 528.334 85.2C526.634 85.2 524.994 83.82 524.994 81.44C524.994 79.06 526.634 77.78 528.334 77.78C530.054 77.78 531.674 79.12 531.674 81.48ZM545.189 83.92C545.069 79.94 538.849 81.18 538.849 78.96C538.849 78.22 539.489 77.72 540.709 77.72C541.949 77.72 542.689 78.38 542.769 79.34H545.049C544.929 77.14 543.289 75.8 540.789 75.8C538.189 75.8 536.549 77.22 536.549 78.98C536.549 83.02 542.949 81.78 542.949 83.94C542.949 84.7 542.249 85.26 540.929 85.26C539.669 85.26 538.809 84.52 538.729 83.62H536.369C536.469 85.62 538.329 87.18 540.969 87.18C543.569 87.18 545.189 85.78 545.189 83.92ZM552.292 77.72C553.992 77.72 555.332 78.8 555.372 80.5H549.272C549.512 78.76 550.752 77.72 552.292 77.72ZM557.452 83.72H554.992C554.572 84.58 553.792 85.26 552.392 85.26C550.712 85.26 549.412 84.16 549.252 82.34H557.672C557.732 81.96 557.752 81.6 557.752 81.22C557.752 77.98 555.532 75.8 552.392 75.8C549.132 75.8 546.892 78.02 546.892 81.48C546.892 84.94 549.232 87.18 552.392 87.18C555.092 87.18 556.832 85.64 557.452 83.72ZM574.571 83.06C574.571 77.98 567.211 79.94 567.211 76.8C567.211 75.46 568.231 74.82 569.551 74.86C570.991 74.9 571.811 75.76 571.891 76.7H574.411C574.211 74.32 572.331 72.92 569.671 72.92C566.831 72.92 564.891 74.44 564.891 76.88C564.891 82 572.271 79.82 572.271 83.18C572.271 84.36 571.371 85.22 569.771 85.22C568.191 85.22 567.391 84.3 567.291 83.16H564.851C564.851 85.62 566.991 87.14 569.771 87.14C572.871 87.14 574.571 85.14 574.571 83.06ZM581.602 84.38L578.502 75.98H575.962L580.302 86.82L578.062 92.18H580.422L587.182 75.98H584.822L581.602 84.38ZM597.122 83.92C597.002 79.94 590.782 81.18 590.782 78.96C590.782 78.22 591.422 77.72 592.642 77.72C593.882 77.72 594.622 78.38 594.702 79.34H596.982C596.862 77.14 595.222 75.8 592.722 75.8C590.122 75.8 588.482 77.22 588.482 78.98C588.482 83.02 594.882 81.78 594.882 83.94C594.882 84.7 594.182 85.26 592.862 85.26C591.602 85.26 590.742 84.52 590.662 83.62H588.302C588.402 85.62 590.262 87.18 592.902 87.18C595.502 87.18 597.122 85.78 597.122 83.92ZM599.946 83.94C599.946 86.18 601.166 87 603.126 87H604.926V85.1H603.526C602.566 85.1 602.246 84.76 602.246 83.94V77.84H604.926V75.98H602.246V73.24H599.946V75.98H598.646V77.84H599.946V83.94ZM611.667 77.72C613.367 77.72 614.707 78.8 614.747 80.5H608.647C608.887 78.76 610.127 77.72 611.667 77.72ZM616.827 83.72H614.367C613.947 84.58 613.167 85.26 611.767 85.26C610.087 85.26 608.787 84.16 608.627 82.34H617.047C617.107 81.96 617.127 81.6 617.127 81.22C617.127 77.98 614.907 75.8 611.767 75.8C608.507 75.8 606.267 78.02 606.267 81.48C606.267 84.94 608.607 87.18 611.767 87.18C614.467 87.18 616.207 85.64 616.827 83.72ZM634.991 87H637.251V80.5C637.251 77.42 635.291 75.8 632.711 75.8C631.111 75.8 629.551 76.64 628.871 77.98C628.111 76.54 626.651 75.8 624.911 75.8C623.591 75.8 622.391 76.34 621.651 77.24V75.98H619.371V87H621.651V80.84C621.651 78.82 622.751 77.78 624.431 77.78C626.091 77.78 627.191 78.82 627.191 80.84V87H629.451V80.84C629.451 78.82 630.551 77.78 632.231 77.78C633.891 77.78 634.991 78.82 634.991 80.84V87ZM649.888 73.1H645.348V87H649.888C654.348 87 657.268 84.38 657.268 80.1C657.268 75.8 654.348 73.1 649.888 73.1ZM647.628 85.14V74.96H649.888C653.168 74.96 654.928 76.92 654.928 80.1C654.928 83.26 653.168 85.14 649.888 85.14H647.628ZM664.167 77.72C665.867 77.72 667.207 78.8 667.247 80.5H661.147C661.387 78.76 662.627 77.72 664.167 77.72ZM669.327 83.72H666.867C666.447 84.58 665.667 85.26 664.267 85.26C662.587 85.26 661.287 84.16 661.127 82.34H669.547C669.607 81.96 669.627 81.6 669.627 81.22C669.627 77.98 667.407 75.8 664.267 75.8C661.007 75.8 658.767 78.02 658.767 81.48C658.767 84.94 661.107 87.18 664.267 87.18C666.967 87.18 668.707 85.64 669.327 83.72ZM670.571 75.98L674.751 87H677.471L681.671 75.98H679.251L676.131 84.96L673.011 75.98H670.571ZM688.035 77.72C689.735 77.72 691.075 78.8 691.115 80.5H685.015C685.255 78.76 686.495 77.72 688.035 77.72ZM693.195 83.72H690.735C690.315 84.58 689.535 85.26 688.135 85.26C686.455 85.26 685.155 84.16 684.995 82.34H693.415C693.475 81.96 693.495 81.6 693.495 81.22C693.495 77.98 691.275 75.8 688.135 75.8C684.875 75.8 682.635 78.02 682.635 81.48C682.635 84.94 684.975 87.18 688.135 87.18C690.835 87.18 692.575 85.64 693.195 83.72ZM695.738 87H698.018V72.2H695.738V87ZM711.512 81.48C711.512 78.02 709.032 75.8 705.892 75.8C702.752 75.8 700.272 78.02 700.272 81.48C700.272 84.94 702.652 87.18 705.792 87.18C708.952 87.18 711.512 84.94 711.512 81.48ZM702.592 81.48C702.592 78.98 704.132 77.78 705.852 77.78C707.552 77.78 709.172 78.98 709.172 81.48C709.172 83.98 707.492 85.2 705.792 85.2C704.072 85.2 702.592 83.98 702.592 81.48ZM716.046 77.6V75.98H713.766V92.24H716.046V85.4C716.766 86.26 718.066 87.18 719.886 87.18C722.786 87.18 725.066 84.84 725.066 81.44C725.066 78.04 722.786 75.8 719.886 75.8C718.086 75.8 716.746 76.68 716.046 77.6ZM722.746 81.44C722.746 83.82 721.106 85.2 719.386 85.2C717.686 85.2 716.046 83.86 716.046 81.48C716.046 79.12 717.686 77.78 719.386 77.78C721.106 77.78 722.746 79.06 722.746 81.44ZM731.96 77.72C733.66 77.72 735 78.8 735.04 80.5H728.94C729.18 78.76 730.42 77.72 731.96 77.72ZM737.12 83.72H734.66C734.24 84.58 733.46 85.26 732.06 85.26C730.38 85.26 729.08 84.16 728.92 82.34H737.34C737.4 81.96 737.42 81.6 737.42 81.22C737.42 77.98 735.2 75.8 732.06 75.8C728.8 75.8 726.56 78.02 726.56 81.48C726.56 84.94 728.9 87.18 732.06 87.18C734.76 87.18 736.5 85.64 737.12 83.72ZM741.944 81.2C741.944 78.86 742.984 78.16 744.664 78.16H745.244V75.8C743.684 75.8 742.584 76.48 741.944 77.58V75.98H739.664V87H741.944V81.2Z" fill="#212832"/>
<rect x="420.5" y="57.5" width="399" height="49" stroke="black" stroke-opacity="0.5"/>
</svg>
