<svg width="617" height="287" viewBox="0 0 617 287" fill="none" xmlns="http://www.w3.org/2000/svg">
<rect width="617" height="58" fill="#3498DB"/>
<path d="M33.925 32.95C33.925 26.8 24.975 28.75 24.975 25.25C24.975 23.825 26 23.15 27.375 23.2C28.875 23.225 29.8 24.125 29.875 25.275H33.725C33.5 22.125 31.05 20.3 27.475 20.3C23.875 20.3 21.325 22.2 21.325 25.35C21.3 31.675 30.3 29.4 30.3 33.175C30.3 34.425 29.325 35.3 27.675 35.3C26.05 35.3 25.125 34.375 25.025 32.975H21.275C21.325 36.275 24.125 38.175 27.75 38.175C31.725 38.175 33.925 35.7 33.925 32.95ZM43.4094 26.8C45.2094 26.8 46.6594 27.95 46.7094 29.775H40.1344C40.4094 27.875 41.7344 26.8 43.4094 26.8ZM49.9844 33.65H46.2094C45.7594 34.575 44.9344 35.325 43.4344 35.325C41.6844 35.325 40.2844 34.175 40.1094 32.125H50.2344C50.3094 31.675 50.3344 31.225 50.3344 30.775C50.3344 26.65 47.5094 23.925 43.5094 23.925C39.4094 23.925 36.5594 26.7 36.5594 31.075C36.5594 35.425 39.4844 38.225 43.5094 38.225C46.9344 38.225 49.2344 36.2 49.9844 33.65ZM72.7641 38H76.2641V29.875C76.2641 26.05 73.9141 23.95 70.5891 23.95C68.5641 23.95 66.7391 25.025 65.8391 26.6C64.8891 24.875 63.1141 23.95 60.9641 23.95C59.2391 23.95 57.7641 24.675 56.8891 25.825V24.15H53.3891V38H56.8891V30.35C56.8891 28.15 58.1141 27 60.0141 27C61.8641 27 63.0891 28.15 63.0891 30.35V38H66.5891V30.35C66.5891 28.15 67.8141 27 69.6891 27C71.5391 27 72.7641 28.15 72.7641 30.35V38ZM86.0354 26.8C87.8354 26.8 89.2854 27.95 89.3354 29.775H82.7604C83.0354 27.875 84.3604 26.8 86.0354 26.8ZM92.6104 33.65H88.8354C88.3854 34.575 87.5604 35.325 86.0604 35.325C84.3104 35.325 82.9104 34.175 82.7354 32.125H92.8604C92.9354 31.675 92.9604 31.225 92.9604 30.775C92.9604 26.65 90.1354 23.925 86.1354 23.925C82.0354 23.925 79.1854 26.7 79.1854 31.075C79.1854 35.425 82.1104 38.225 86.1354 38.225C89.5604 38.225 91.8604 36.2 92.6104 33.65ZM106.765 34.05C106.665 28.975 98.99 30.55 98.99 28.025C98.99 27.225 99.665 26.7 100.965 26.7C102.34 26.7 103.19 27.425 103.29 28.5H106.64C106.44 25.75 104.415 23.925 101.065 23.925C97.64 23.925 95.59 25.775 95.59 28.075C95.59 33.15 103.415 31.575 103.415 34.05C103.415 34.85 102.665 35.475 101.29 35.475C99.89 35.475 98.915 34.675 98.79 33.625H95.265C95.415 36.2 97.84 38.225 101.315 38.225C104.69 38.225 106.765 36.425 106.765 34.05ZM110.688 33.7C110.688 36.875 112.463 38 115.113 38H117.313V35.05H115.688C114.588 35.05 114.213 34.65 114.213 33.725V27.025H117.313V24.15H114.213V20.725H110.688V24.15H109.038V27.025H110.688V33.7ZM126.28 26.8C128.08 26.8 129.53 27.95 129.58 29.775H123.005C123.28 27.875 124.605 26.8 126.28 26.8ZM132.855 33.65H129.08C128.63 34.575 127.805 35.325 126.305 35.325C124.555 35.325 123.155 34.175 122.98 32.125H133.105C133.18 31.675 133.205 31.225 133.205 30.775C133.205 26.65 130.38 23.925 126.38 23.925C122.28 23.925 119.43 26.7 119.43 31.075C119.43 35.425 122.355 38.225 126.38 38.225C129.805 38.225 132.105 36.2 132.855 33.65ZM139.76 31.1C139.76 28.425 141.01 27.625 143.085 27.625H144.01V23.95C142.085 23.95 140.635 24.875 139.76 26.3V24.15H136.26V38H139.76V31.1ZM153.875 19.725V30.425H157.225C157.6 29.3 158.525 28.5 159.975 28.5C161.95 28.5 162.975 29.625 162.975 31.675C162.975 33.6 162.05 35.05 160 35.05C158.3 35.05 157.275 34.125 156.975 32.85H153.575C153.875 35.825 156.125 38 160.05 38C164.2 38 166.35 35.35 166.35 31.625C166.35 28.8 164.9 25.6 160.65 25.6C159.125 25.6 157.75 26.25 157.075 27.075V22.8H165.175V19.725H153.875Z" fill="white"/>
<rect y="66" width="617" height="50" fill="white"/>
<path d="M24.6 94.44C26.08 94.44 27.24 93.3 27.24 91.84C27.24 90.36 26.08 89.22 24.6 89.22C23.16 89.22 22 90.36 22 91.84C22 93.3 23.16 94.44 24.6 94.44ZM48.9689 94.52C48.9689 95.86 48.0289 96.64 46.4889 96.64H43.4089V92.3H46.4089C47.9289 92.3 48.9689 93.14 48.9689 94.52ZM48.6089 88.46C48.6089 89.74 47.7089 90.44 46.2289 90.44H43.4089V86.46H46.2289C47.7089 86.46 48.6089 87.2 48.6089 88.46ZM51.2489 94.76C51.2489 93.1 50.0489 91.62 48.5689 91.36C49.9089 90.88 50.9289 89.86 50.9289 88.18C50.9289 86.22 49.3689 84.6 46.4289 84.6H41.1289V98.5H46.6889C49.5289 98.5 51.2489 96.88 51.2489 94.76ZM63.7066 87.48H61.4266V93.62C61.4266 95.64 60.3266 96.68 58.6466 96.68C56.9866 96.68 55.8866 95.64 55.8866 93.62V87.48H53.6266V93.96C53.6266 97.04 55.5866 98.66 58.1666 98.66C59.4666 98.66 60.7066 98.12 61.4266 97.18V98.5H63.7066V87.48ZM74.9348 95.42C74.8148 91.44 68.5948 92.68 68.5948 90.46C68.5948 89.72 69.2348 89.22 70.4548 89.22C71.6948 89.22 72.4348 89.88 72.5148 90.84H74.7948C74.6748 88.64 73.0348 87.3 70.5348 87.3C67.9348 87.3 66.2948 88.72 66.2948 90.48C66.2948 94.52 72.6948 93.28 72.6948 95.44C72.6948 96.2 71.9948 96.76 70.6748 96.76C69.4148 96.76 68.5548 96.02 68.4748 95.12H66.1148C66.2148 97.12 68.0748 98.68 70.7148 98.68C73.3148 98.68 74.9348 97.28 74.9348 95.42ZM77.3984 98.5H79.6784V87.48H77.3984V98.5ZM78.5584 86.02C79.3584 86.02 79.9984 85.38 79.9984 84.56C79.9984 83.74 79.3584 83.1 78.5584 83.1C77.7384 83.1 77.0984 83.74 77.0984 84.56C77.0984 85.38 77.7384 86.02 78.5584 86.02ZM90.4919 98.5H92.7519V92C92.7519 88.92 90.8119 87.3 88.2319 87.3C86.9119 87.3 85.6919 87.84 84.9519 88.74V87.48H82.6719V98.5H84.9519V92.34C84.9519 90.32 86.0519 89.28 87.7319 89.28C89.3919 89.28 90.4919 90.32 90.4919 92.34V98.5ZM100.3 89.22C102 89.22 103.34 90.3 103.38 92H97.2802C97.5202 90.26 98.7602 89.22 100.3 89.22ZM105.46 95.22H103C102.58 96.08 101.8 96.76 100.4 96.76C98.7202 96.76 97.4202 95.66 97.2602 93.84H105.68C105.74 93.46 105.76 93.1 105.76 92.72C105.76 89.48 103.54 87.3 100.4 87.3C97.1402 87.3 94.9002 89.52 94.9002 92.98C94.9002 96.44 97.2402 98.68 100.4 98.68C103.1 98.68 104.84 97.14 105.46 95.22ZM116.224 95.42C116.104 91.44 109.884 92.68 109.884 90.46C109.884 89.72 110.524 89.22 111.744 89.22C112.984 89.22 113.724 89.88 113.804 90.84H116.084C115.964 88.64 114.324 87.3 111.824 87.3C109.224 87.3 107.584 88.72 107.584 90.48C107.584 94.52 113.984 93.28 113.984 95.44C113.984 96.2 113.284 96.76 111.964 96.76C110.704 96.76 109.844 96.02 109.764 95.12H107.404C107.504 97.12 109.364 98.68 112.004 98.68C114.604 98.68 116.224 97.28 116.224 95.42ZM126.908 95.42C126.788 91.44 120.568 92.68 120.568 90.46C120.568 89.72 121.208 89.22 122.428 89.22C123.668 89.22 124.408 89.88 124.488 90.84H126.768C126.648 88.64 125.008 87.3 122.508 87.3C119.908 87.3 118.268 88.72 118.268 90.48C118.268 94.52 124.668 93.28 124.668 95.44C124.668 96.2 123.968 96.76 122.648 96.76C121.388 96.76 120.528 96.02 120.448 95.12H118.088C118.188 97.12 120.048 98.68 122.688 98.68C125.288 98.68 126.908 97.28 126.908 95.42ZM143.946 98.5H146.346L141.366 84.58H138.726L133.746 98.5H136.126L137.126 95.66H142.946L143.946 98.5ZM142.306 93.8H137.766L140.046 87.34L142.306 93.8ZM150.792 89.1V87.48H148.512V103.74H150.792V96.9C151.512 97.76 152.812 98.68 154.632 98.68C157.532 98.68 159.812 96.34 159.812 92.94C159.812 89.54 157.532 87.3 154.632 87.3C152.832 87.3 151.492 88.18 150.792 89.1ZM157.492 92.94C157.492 95.32 155.852 96.7 154.132 96.7C152.432 96.7 150.792 95.36 150.792 92.98C150.792 90.62 152.432 89.28 154.132 89.28C155.852 89.28 157.492 90.56 157.492 92.94ZM164.346 89.1V87.48H162.066V103.74H164.346V96.9C165.066 97.76 166.366 98.68 168.186 98.68C171.086 98.68 173.366 96.34 173.366 92.94C173.366 89.54 171.086 87.3 168.186 87.3C166.386 87.3 165.046 88.18 164.346 89.1ZM171.046 92.94C171.046 95.32 169.406 96.7 167.686 96.7C165.986 96.7 164.346 95.36 164.346 92.98C164.346 90.62 165.986 89.28 167.686 89.28C169.406 89.28 171.046 90.56 171.046 92.94ZM175.621 98.5H177.901V83.7H175.621V98.5ZM180.895 98.5H183.175V87.48H180.895V98.5ZM182.055 86.02C182.855 86.02 183.495 85.38 183.495 84.56C183.495 83.74 182.855 83.1 182.055 83.1C181.235 83.1 180.595 83.74 180.595 84.56C180.595 85.38 181.235 86.02 182.055 86.02ZM185.408 92.98C185.408 96.44 187.648 98.68 190.808 98.68C193.508 98.68 195.268 97.18 195.888 95.02H193.428C193.008 96.16 192.168 96.76 190.808 96.76C188.968 96.76 187.748 95.4 187.748 92.98C187.748 90.58 188.968 89.22 190.808 89.22C192.168 89.22 193.048 89.9 193.428 90.96H195.888C195.268 88.64 193.508 87.3 190.808 87.3C187.648 87.3 185.408 89.54 185.408 92.98ZM197.4 92.94C197.4 96.34 199.7 98.68 202.56 98.68C204.4 98.68 205.72 97.8 206.42 96.86V98.5H208.72V87.48H206.42V89.08C205.74 88.18 204.46 87.3 202.6 87.3C199.7 87.3 197.4 89.54 197.4 92.94ZM206.42 92.98C206.42 95.36 204.8 96.7 203.08 96.7C201.38 96.7 199.74 95.32 199.74 92.94C199.74 90.56 201.38 89.28 203.08 89.28C204.8 89.28 206.42 90.62 206.42 92.98ZM212.075 95.44C212.075 97.68 213.295 98.5 215.255 98.5H217.055V96.6H215.655C214.695 96.6 214.375 96.26 214.375 95.44V89.34H217.055V87.48H214.375V84.74H212.075V87.48H210.775V89.34H212.075V95.44ZM219.156 98.5H221.436V87.48H219.156V98.5ZM220.316 86.02C221.116 86.02 221.756 85.38 221.756 84.56C221.756 83.74 221.116 83.1 220.316 83.1C219.496 83.1 218.856 83.74 218.856 84.56C218.856 85.38 219.496 86.02 220.316 86.02ZM234.93 92.98C234.93 89.52 232.45 87.3 229.31 87.3C226.17 87.3 223.69 89.52 223.69 92.98C223.69 96.44 226.07 98.68 229.21 98.68C232.37 98.68 234.93 96.44 234.93 92.98ZM226.01 92.98C226.01 90.48 227.55 89.28 229.27 89.28C230.97 89.28 232.59 90.48 232.59 92.98C232.59 95.48 230.91 96.7 229.21 96.7C227.49 96.7 226.01 95.48 226.01 92.98ZM245.004 98.5H247.264V92C247.264 88.92 245.324 87.3 242.744 87.3C241.424 87.3 240.204 87.84 239.464 88.74V87.48H237.184V98.5H239.464V92.34C239.464 90.32 240.564 89.28 242.244 89.28C243.904 89.28 245.004 90.32 245.004 92.34V98.5ZM254.607 92.94C254.607 96.34 256.907 98.68 259.767 98.68C261.607 98.68 262.927 97.8 263.627 96.86V98.5H265.927V87.48H263.627V89.08C262.947 88.18 261.667 87.3 259.807 87.3C256.907 87.3 254.607 89.54 254.607 92.94ZM263.627 92.98C263.627 95.36 262.007 96.7 260.287 96.7C258.587 96.7 256.947 95.32 256.947 92.94C256.947 90.56 258.587 89.28 260.287 89.28C262.007 89.28 263.627 90.62 263.627 92.98ZM276.742 98.5H279.002V92C279.002 88.92 277.062 87.3 274.482 87.3C273.162 87.3 271.942 87.84 271.202 88.74V87.48H268.922V98.5H271.202V92.34C271.202 90.32 272.302 89.28 273.982 89.28C275.642 89.28 276.742 90.32 276.742 92.34V98.5ZM281.15 92.94C281.15 96.34 283.45 98.68 286.35 98.68C288.15 98.68 289.47 97.84 290.17 96.84V98.5H292.47V83.7H290.17V89.02C289.33 87.98 287.81 87.3 286.37 87.3C283.45 87.3 281.15 89.54 281.15 92.94ZM290.17 92.98C290.17 95.36 288.55 96.7 286.83 96.7C285.13 96.7 283.49 95.32 283.49 92.94C283.49 90.56 285.13 89.28 286.83 89.28C288.55 89.28 290.17 90.62 290.17 92.98ZM300.66 98.5H302.94V84.6H300.66V98.5ZM313.754 98.5H316.014V92C316.014 88.92 314.074 87.3 311.494 87.3C310.174 87.3 308.954 87.84 308.214 88.74V87.48H305.934V98.5H308.214V92.34C308.214 90.32 309.314 89.28 310.994 89.28C312.654 89.28 313.754 90.32 313.754 92.34V98.5ZM319.282 95.44C319.282 97.68 320.502 98.5 322.462 98.5H324.262V96.6H322.862C321.902 96.6 321.582 96.26 321.582 95.44V89.34H324.262V87.48H321.582V84.74H319.282V87.48H317.982V89.34H319.282V95.44ZM328.643 92.7C328.643 90.36 329.683 89.66 331.363 89.66H331.943V87.3C330.383 87.3 329.283 87.98 328.643 89.08V87.48H326.363V98.5H328.643V92.7ZM344.539 92.98C344.539 89.52 342.059 87.3 338.919 87.3C335.779 87.3 333.299 89.52 333.299 92.98C333.299 96.44 335.679 98.68 338.819 98.68C341.979 98.68 344.539 96.44 344.539 92.98ZM335.619 92.98C335.619 90.48 337.159 89.28 338.879 89.28C340.579 89.28 342.199 90.48 342.199 92.98C342.199 95.48 340.519 96.7 338.819 96.7C337.099 96.7 335.619 95.48 335.619 92.98ZM346.033 92.94C346.033 96.34 348.333 98.68 351.233 98.68C353.033 98.68 354.353 97.84 355.053 96.84V98.5H357.353V83.7H355.053V89.02C354.213 87.98 352.693 87.3 351.253 87.3C348.333 87.3 346.033 89.54 346.033 92.94ZM355.053 92.98C355.053 95.36 353.433 96.7 351.713 96.7C350.013 96.7 348.373 95.32 348.373 92.94C348.373 90.56 350.013 89.28 351.713 89.28C353.433 89.28 355.053 90.62 355.053 92.98ZM370.328 87.48H368.048V93.62C368.048 95.64 366.948 96.68 365.268 96.68C363.608 96.68 362.508 95.64 362.508 93.62V87.48H360.248V93.96C360.248 97.04 362.208 98.66 364.788 98.66C366.088 98.66 367.328 98.12 368.048 97.18V98.5H370.328V87.48ZM372.576 92.98C372.576 96.44 374.816 98.68 377.976 98.68C380.676 98.68 382.436 97.18 383.056 95.02H380.596C380.176 96.16 379.336 96.76 377.976 96.76C376.136 96.76 374.916 95.4 374.916 92.98C374.916 90.58 376.136 89.22 377.976 89.22C379.336 89.22 380.216 89.9 380.596 90.96H383.056C382.436 88.64 380.676 87.3 377.976 87.3C374.816 87.3 372.576 89.54 372.576 92.98ZM385.688 95.44C385.688 97.68 386.908 98.5 388.868 98.5H390.668V96.6H389.268C388.308 96.6 387.988 96.26 387.988 95.44V89.34H390.668V87.48H387.988V84.74H385.688V87.48H384.388V89.34H385.688V95.44ZM392.77 98.5H395.05V87.48H392.77V98.5ZM393.93 86.02C394.73 86.02 395.37 85.38 395.37 84.56C395.37 83.74 394.73 83.1 393.93 83.1C393.11 83.1 392.47 83.74 392.47 84.56C392.47 85.38 393.11 86.02 393.93 86.02ZM408.543 92.98C408.543 89.52 406.063 87.3 402.923 87.3C399.783 87.3 397.303 89.52 397.303 92.98C397.303 96.44 399.683 98.68 402.823 98.68C405.983 98.68 408.543 96.44 408.543 92.98ZM399.623 92.98C399.623 90.48 401.163 89.28 402.883 89.28C404.583 89.28 406.203 90.48 406.203 92.98C406.203 95.48 404.523 96.7 402.823 96.7C401.103 96.7 399.623 95.48 399.623 92.98ZM418.617 98.5H420.877V92C420.877 88.92 418.937 87.3 416.357 87.3C415.037 87.3 413.817 87.84 413.077 88.74V87.48H410.797V98.5H413.077V92.34C413.077 90.32 414.177 89.28 415.857 89.28C417.517 89.28 418.617 90.32 418.617 92.34V98.5ZM429.34 95.44C429.34 97.68 430.56 98.5 432.52 98.5H434.32V96.6H432.92C431.96 96.6 431.64 96.26 431.64 95.44V89.34H434.32V87.48H431.64V84.74H429.34V87.48H428.04V89.34H429.34V95.44ZM446.922 92.98C446.922 89.52 444.442 87.3 441.302 87.3C438.162 87.3 435.682 89.52 435.682 92.98C435.682 96.44 438.062 98.68 441.202 98.68C444.362 98.68 446.922 96.44 446.922 92.98ZM438.002 92.98C438.002 90.48 439.542 89.28 441.262 89.28C442.962 89.28 444.582 90.48 444.582 92.98C444.582 95.48 442.902 96.7 441.202 96.7C439.482 96.7 438.002 95.48 438.002 92.98ZM462.051 84.58H454.371V98.5H462.051V96.64H456.651V92.38H461.451V90.52H456.651V86.44H462.051V84.58ZM472.239 88.76C472.239 90.14 471.439 91.12 469.659 91.12H467.139V86.46H469.659C471.439 86.46 472.239 87.36 472.239 88.76ZM464.859 84.6V98.5H467.139V92.94H468.879L472.079 98.5H474.799L471.359 92.74C473.699 92.16 474.579 90.4 474.579 88.76C474.579 86.5 472.959 84.6 469.659 84.6H464.859ZM479.776 91V86.46H482.296C484.076 86.46 484.876 87.3 484.876 88.74C484.876 90.14 484.076 91 482.296 91H479.776ZM487.216 88.74C487.216 86.48 485.596 84.6 482.296 84.6H477.496V98.5H479.776V92.86H482.296C485.916 92.86 487.216 90.72 487.216 88.74Z" fill="#212832"/>
<rect x="0.5" y="66.5" width="616" height="49" stroke="black" stroke-opacity="0.5"/>
<rect y="180" width="617" height="50" fill="white"/>
<path d="M24.6 208.44C26.08 208.44 27.24 207.3 27.24 205.84C27.24 204.36 26.08 203.22 24.6 203.22C23.16 203.22 22 204.36 22 205.84C22 207.3 23.16 208.44 24.6 208.44ZM50.5089 208.56C50.5089 203.48 43.1489 205.44 43.1489 202.3C43.1489 200.96 44.1689 200.32 45.4889 200.36C46.9289 200.4 47.7489 201.26 47.8289 202.2H50.3489C50.1489 199.82 48.2689 198.42 45.6089 198.42C42.7689 198.42 40.8289 199.94 40.8289 202.38C40.8289 207.5 48.2089 205.32 48.2089 208.68C48.2089 209.86 47.3089 210.72 45.7089 210.72C44.1289 210.72 43.3289 209.8 43.2289 208.66H40.7889C40.7889 211.12 42.9289 212.64 45.7089 212.64C48.8089 212.64 50.5089 210.64 50.5089 208.56ZM63.6992 206.98C63.6992 203.52 61.2192 201.3 58.0792 201.3C54.9392 201.3 52.4592 203.52 52.4592 206.98C52.4592 210.44 54.8392 212.68 57.9792 212.68C61.1392 212.68 63.6992 210.44 63.6992 206.98ZM54.7792 206.98C54.7792 204.48 56.3192 203.28 58.0392 203.28C59.7392 203.28 61.3592 204.48 61.3592 206.98C61.3592 209.48 59.6792 210.7 57.9792 210.7C56.2592 210.7 54.7792 209.48 54.7792 206.98ZM66.2331 212.5H68.5331V203.34H70.5731V201.48H68.5331V200.7C68.5331 199.44 69.0131 198.96 70.4131 198.96V197.06C67.5331 197.06 66.2331 198.16 66.2331 200.7V201.48H64.9331V203.34H66.2331V212.5ZM72.9538 209.44C72.9538 211.68 74.1738 212.5 76.1338 212.5H77.9338V210.6H76.5338C75.5738 210.6 75.2538 210.26 75.2538 209.44V203.34H77.9338V201.48H75.2538V198.74H72.9538V201.48H71.6538V203.34H72.9538V209.44ZM82.1752 212.5H84.5752L86.7952 204.36L89.0152 212.5H91.4152L94.8352 201.48H92.5952L90.3152 210.3L88.0752 201.48H85.6952L83.3552 210.34L81.0552 201.48H78.7352L82.1752 212.5ZM95.7791 206.94C95.7791 210.34 98.0791 212.68 100.939 212.68C102.779 212.68 104.099 211.8 104.799 210.86V212.5H107.099V201.48H104.799V203.08C104.119 202.18 102.839 201.3 100.979 201.3C98.0791 201.3 95.7791 203.54 95.7791 206.94ZM104.799 206.98C104.799 209.36 103.179 210.7 101.459 210.7C99.7591 210.7 98.1191 209.32 98.1191 206.94C98.1191 204.56 99.7591 203.28 101.459 203.28C103.179 203.28 104.799 204.62 104.799 206.98ZM112.374 206.7C112.374 204.36 113.414 203.66 115.094 203.66H115.674V201.3C114.114 201.3 113.014 201.98 112.374 203.08V201.48H110.094V212.5H112.374V206.7ZM122.41 203.22C124.11 203.22 125.45 204.3 125.49 206H119.39C119.63 204.26 120.87 203.22 122.41 203.22ZM127.57 209.22H125.11C124.69 210.08 123.91 210.76 122.51 210.76C120.83 210.76 119.53 209.66 119.37 207.84H127.79C127.85 207.46 127.87 207.1 127.87 206.72C127.87 203.48 125.65 201.3 122.51 201.3C119.25 201.3 117.01 203.52 117.01 206.98C117.01 210.44 119.35 212.68 122.51 212.68C125.21 212.68 126.95 211.14 127.57 209.22ZM142.989 198.58H135.309V212.5H142.989V210.64H137.589V206.38H142.389V204.52H137.589V200.44H142.989V198.58ZM153.617 212.5H155.877V206C155.877 202.92 153.937 201.3 151.357 201.3C150.037 201.3 148.817 201.84 148.077 202.74V201.48H145.797V212.5H148.077V206.34C148.077 204.32 149.177 203.28 150.857 203.28C152.517 203.28 153.617 204.32 153.617 206.34V212.5ZM158.025 206.94C158.025 210.34 160.325 212.68 163.225 212.68C165.025 212.68 166.345 211.78 167.045 210.84V212.68C167.045 214.88 165.725 215.96 163.965 215.96C162.385 215.96 161.165 215.18 160.825 214.04H158.565C158.845 216.48 161.025 217.94 163.965 217.94C167.405 217.94 169.345 215.68 169.345 212.68V201.48H167.045V203.08C166.365 202.14 165.025 201.3 163.225 201.3C160.325 201.3 158.025 203.54 158.025 206.94ZM167.045 206.98C167.045 209.36 165.425 210.7 163.705 210.7C162.005 210.7 160.365 209.32 160.365 206.94C160.365 204.56 162.005 203.28 163.705 203.28C165.425 203.28 167.045 204.62 167.045 206.98ZM172.34 212.5H174.62V201.48H172.34V212.5ZM173.5 200.02C174.3 200.02 174.94 199.38 174.94 198.56C174.94 197.74 174.3 197.1 173.5 197.1C172.68 197.1 172.04 197.74 172.04 198.56C172.04 199.38 172.68 200.02 173.5 200.02ZM185.433 212.5H187.693V206C187.693 202.92 185.753 201.3 183.173 201.3C181.853 201.3 180.633 201.84 179.893 202.74V201.48H177.613V212.5H179.893V206.34C179.893 204.32 180.993 203.28 182.673 203.28C184.333 203.28 185.433 204.32 185.433 206.34V212.5ZM195.242 203.22C196.942 203.22 198.282 204.3 198.322 206H192.222C192.462 204.26 193.702 203.22 195.242 203.22ZM200.402 209.22H197.942C197.522 210.08 196.742 210.76 195.342 210.76C193.662 210.76 192.362 209.66 192.202 207.84H200.622C200.682 207.46 200.702 207.1 200.702 206.72C200.702 203.48 198.482 201.3 195.342 201.3C192.082 201.3 189.842 203.52 189.842 206.98C189.842 210.44 192.182 212.68 195.342 212.68C198.042 212.68 199.782 211.14 200.402 209.22ZM207.585 203.22C209.285 203.22 210.625 204.3 210.665 206H204.565C204.805 204.26 206.045 203.22 207.585 203.22ZM212.745 209.22H210.285C209.865 210.08 209.085 210.76 207.685 210.76C206.005 210.76 204.705 209.66 204.545 207.84H212.965C213.025 207.46 213.045 207.1 213.045 206.72C213.045 203.48 210.825 201.3 207.685 201.3C204.425 201.3 202.185 203.52 202.185 206.98C202.185 210.44 204.525 212.68 207.685 212.68C210.385 212.68 212.125 211.14 212.745 209.22ZM217.569 206.7C217.569 204.36 218.609 203.66 220.289 203.66H220.869V201.3C219.309 201.3 218.209 201.98 217.569 203.08V201.48H215.289V212.5H217.569V206.7ZM222.965 212.5H225.245V201.48H222.965V212.5ZM224.125 200.02C224.925 200.02 225.565 199.38 225.565 198.56C225.565 197.74 224.925 197.1 224.125 197.1C223.305 197.1 222.665 197.74 222.665 198.56C222.665 199.38 223.305 200.02 224.125 200.02ZM236.058 212.5H238.318V206C238.318 202.92 236.378 201.3 233.798 201.3C232.478 201.3 231.258 201.84 230.518 202.74V201.48H228.238V212.5H230.518V206.34C230.518 204.32 231.618 203.28 233.298 203.28C234.958 203.28 236.058 204.32 236.058 206.34V212.5ZM240.467 206.94C240.467 210.34 242.767 212.68 245.667 212.68C247.467 212.68 248.787 211.78 249.487 210.84V212.68C249.487 214.88 248.167 215.96 246.407 215.96C244.827 215.96 243.607 215.18 243.267 214.04H241.007C241.287 216.48 243.467 217.94 246.407 217.94C249.847 217.94 251.787 215.68 251.787 212.68V201.48H249.487V203.08C248.807 202.14 247.467 201.3 245.667 201.3C242.767 201.3 240.467 203.54 240.467 206.94ZM249.487 206.98C249.487 209.36 247.867 210.7 246.147 210.7C244.447 210.7 242.807 209.32 242.807 206.94C242.807 204.56 244.447 203.28 246.147 203.28C247.867 203.28 249.487 204.62 249.487 206.98Z" fill="#212832"/>
<rect x="0.5" y="180.5" width="616" height="49" stroke="black" stroke-opacity="0.5"/>
<rect y="123" width="617" height="50" fill="white"/>
<path d="M24.6 151.44C26.08 151.44 27.24 150.3 27.24 148.84C27.24 147.36 26.08 146.22 24.6 146.22C23.16 146.22 22 147.36 22 148.84C22 150.3 23.16 151.44 24.6 151.44ZM54.5689 148.52C54.5689 144.36 51.4289 141.42 47.4689 141.42C43.5489 141.42 40.3689 144.36 40.3689 148.52C40.3689 152.7 43.5489 155.64 47.4689 155.64C51.4289 155.64 54.5689 152.7 54.5689 148.52ZM42.7089 148.52C42.7089 145.38 44.7089 143.42 47.4689 143.42C50.2289 143.42 52.2289 145.38 52.2289 148.52C52.2289 151.66 50.2289 153.66 47.4689 153.66C44.7089 153.66 42.7089 151.66 42.7089 148.52ZM59.0925 146.12V140.7H56.8125V155.5H59.0925V153.9C59.8125 154.86 61.1125 155.68 62.9325 155.68C65.8325 155.68 68.1125 153.34 68.1125 149.94C68.1125 146.54 65.8525 144.3 62.9325 144.3C61.1925 144.3 59.8125 145.12 59.0925 146.12ZM65.7925 149.94C65.7925 152.32 64.1525 153.7 62.4325 153.7C60.7325 153.7 59.0925 152.36 59.0925 149.98C59.0925 147.62 60.7325 146.28 62.4325 146.28C64.1525 146.28 65.7925 147.56 65.7925 149.94ZM71.5272 143.02C72.3272 143.02 72.9672 142.38 72.9672 141.56C72.9672 140.74 72.3272 140.1 71.5272 140.1C70.7072 140.1 70.0672 140.74 70.0672 141.56C70.0672 142.38 70.7072 143.02 71.5272 143.02ZM70.3672 144.48V157.66C70.3672 158.48 70.0472 158.82 69.0872 158.82H68.3072V160.74H69.4872C71.4472 160.74 72.6472 159.9 72.6472 157.66V144.48H70.3672ZM80.2806 146.22C81.9806 146.22 83.3206 147.3 83.3606 149H77.2606C77.5006 147.26 78.7406 146.22 80.2806 146.22ZM85.4406 152.22H82.9806C82.5606 153.08 81.7806 153.76 80.3806 153.76C78.7006 153.76 77.4006 152.66 77.2406 150.84H85.6606C85.7206 150.46 85.7406 150.1 85.7406 149.72C85.7406 146.48 83.5206 144.3 80.3806 144.3C77.1206 144.3 74.8806 146.52 74.8806 149.98C74.8806 153.44 77.2206 155.68 80.3806 155.68C83.0806 155.68 84.8206 154.14 85.4406 152.22ZM87.2244 149.98C87.2244 153.44 89.4644 155.68 92.6244 155.68C95.3244 155.68 97.0844 154.18 97.7044 152.02H95.2444C94.8244 153.16 93.9844 153.76 92.6244 153.76C90.7844 153.76 89.5644 152.4 89.5644 149.98C89.5644 147.58 90.7844 146.22 92.6244 146.22C93.9844 146.22 94.8644 146.9 95.2444 147.96H97.7044C97.0844 145.64 95.3244 144.3 92.6244 144.3C89.4644 144.3 87.2244 146.54 87.2244 149.98ZM100.337 152.44C100.337 154.68 101.557 155.5 103.517 155.5H105.317V153.6H103.917C102.957 153.6 102.637 153.26 102.637 152.44V146.34H105.317V144.48H102.637V141.74H100.337V144.48H99.0366V146.34H100.337V152.44ZM126.053 148.52C126.053 144.36 122.913 141.42 118.953 141.42C115.033 141.42 111.853 144.36 111.853 148.52C111.853 152.7 115.033 155.64 118.953 155.64C122.913 155.64 126.053 152.7 126.053 148.52ZM114.193 148.52C114.193 145.38 116.193 143.42 118.953 143.42C121.713 143.42 123.713 145.38 123.713 148.52C123.713 151.66 121.713 153.66 118.953 153.66C116.193 153.66 114.193 151.66 114.193 148.52ZM130.577 149.7C130.577 147.36 131.617 146.66 133.297 146.66H133.877V144.3C132.317 144.3 131.217 144.98 130.577 146.08V144.48H128.297V155.5H130.577V149.7ZM135.973 155.5H138.253V144.48H135.973V155.5ZM137.133 143.02C137.933 143.02 138.573 142.38 138.573 141.56C138.573 140.74 137.933 140.1 137.133 140.1C136.313 140.1 135.673 140.74 135.673 141.56C135.673 142.38 136.313 143.02 137.133 143.02ZM145.886 146.22C147.586 146.22 148.926 147.3 148.966 149H142.866C143.106 147.26 144.346 146.22 145.886 146.22ZM151.046 152.22H148.586C148.166 153.08 147.386 153.76 145.986 153.76C144.306 153.76 143.006 152.66 142.846 150.84H151.266C151.326 150.46 151.346 150.1 151.346 149.72C151.346 146.48 149.126 144.3 145.986 144.3C142.726 144.3 140.486 146.52 140.486 149.98C140.486 153.44 142.826 155.68 145.986 155.68C148.686 155.68 150.426 154.14 151.046 152.22ZM161.41 155.5H163.67V149C163.67 145.92 161.73 144.3 159.15 144.3C157.83 144.3 156.61 144.84 155.87 145.74V144.48H153.59V155.5H155.87V149.34C155.87 147.32 156.97 146.28 158.65 146.28C160.31 146.28 161.41 147.32 161.41 149.34V155.5ZM166.938 152.44C166.938 154.68 168.158 155.5 170.118 155.5H171.918V153.6H170.518C169.558 153.6 169.238 153.26 169.238 152.44V146.34H171.918V144.48H169.238V141.74H166.938V144.48H165.638V146.34H166.938V152.44ZM178.66 146.22C180.36 146.22 181.7 147.3 181.74 149H175.64C175.88 147.26 177.12 146.22 178.66 146.22ZM183.82 152.22H181.36C180.94 153.08 180.16 153.76 178.76 153.76C177.08 153.76 175.78 152.66 175.62 150.84H184.04C184.1 150.46 184.12 150.1 184.12 149.72C184.12 146.48 181.9 144.3 178.76 144.3C175.5 144.3 173.26 146.52 173.26 149.98C173.26 153.44 175.6 155.68 178.76 155.68C181.46 155.68 183.2 154.14 183.82 152.22ZM185.603 149.94C185.603 153.34 187.903 155.68 190.803 155.68C192.603 155.68 193.923 154.84 194.623 153.84V155.5H196.923V140.7H194.623V146.02C193.783 144.98 192.263 144.3 190.823 144.3C187.903 144.3 185.603 146.54 185.603 149.94ZM194.623 149.98C194.623 152.36 193.003 153.7 191.283 153.7C189.583 153.7 187.943 152.32 187.943 149.94C187.943 147.56 189.583 146.28 191.283 146.28C193.003 146.28 194.623 147.62 194.623 149.98ZM214.493 155.5H216.893L211.913 141.58H209.273L204.293 155.5H206.673L207.673 152.66H213.493L214.493 155.5ZM212.853 150.8H208.313L210.593 144.34L212.853 150.8ZM226.879 155.5H229.139V149C229.139 145.92 227.199 144.3 224.619 144.3C223.299 144.3 222.079 144.84 221.339 145.74V144.48H219.059V155.5H221.339V149.34C221.339 147.32 222.439 146.28 224.119 146.28C225.779 146.28 226.879 147.32 226.879 149.34V155.5ZM231.287 149.94C231.287 153.34 233.587 155.68 236.447 155.68C238.287 155.68 239.607 154.8 240.307 153.86V155.5H242.607V144.48H240.307V146.08C239.627 145.18 238.347 144.3 236.487 144.3C233.587 144.3 231.287 146.54 231.287 149.94ZM240.307 149.98C240.307 152.36 238.687 153.7 236.967 153.7C235.267 153.7 233.627 152.32 233.627 149.94C233.627 147.56 235.267 146.28 236.967 146.28C238.687 146.28 240.307 147.62 240.307 149.98ZM245.602 155.5H247.882V140.7H245.602V155.5ZM255.215 152.88L252.115 144.48H249.575L253.915 155.32L251.675 160.68H254.035L260.795 144.48H258.435L255.215 152.88ZM270.736 152.42C270.616 148.44 264.396 149.68 264.396 147.46C264.396 146.72 265.036 146.22 266.256 146.22C267.496 146.22 268.236 146.88 268.316 147.84H270.596C270.476 145.64 268.836 144.3 266.336 144.3C263.736 144.3 262.096 145.72 262.096 147.48C262.096 151.52 268.496 150.28 268.496 152.44C268.496 153.2 267.796 153.76 266.476 153.76C265.216 153.76 264.356 153.02 264.276 152.12H261.916C262.016 154.12 263.876 155.68 266.516 155.68C269.116 155.68 270.736 154.28 270.736 152.42ZM273.199 155.5H275.479V144.48H273.199V155.5ZM274.359 143.02C275.159 143.02 275.799 142.38 275.799 141.56C275.799 140.74 275.159 140.1 274.359 140.1C273.539 140.1 272.899 140.74 272.899 141.56C272.899 142.38 273.539 143.02 274.359 143.02ZM286.693 152.42C286.573 148.44 280.353 149.68 280.353 147.46C280.353 146.72 280.993 146.22 282.213 146.22C283.453 146.22 284.193 146.88 284.273 147.84H286.553C286.433 145.64 284.793 144.3 282.293 144.3C279.693 144.3 278.053 145.72 278.053 147.48C278.053 151.52 284.453 150.28 284.453 152.44C284.453 153.2 283.753 153.76 282.433 153.76C281.173 153.76 280.313 153.02 280.233 152.12H277.873C277.973 154.12 279.833 155.68 282.473 155.68C285.073 155.68 286.693 154.28 286.693 152.42ZM293.592 149.94C293.592 153.34 295.892 155.68 298.752 155.68C300.592 155.68 301.912 154.8 302.612 153.86V155.5H304.912V144.48H302.612V146.08C301.932 145.18 300.652 144.3 298.792 144.3C295.892 144.3 293.592 146.54 293.592 149.94ZM302.612 149.98C302.612 152.36 300.992 153.7 299.272 153.7C297.572 153.7 295.932 152.32 295.932 149.94C295.932 147.56 297.572 146.28 299.272 146.28C300.992 146.28 302.612 147.62 302.612 149.98ZM315.726 155.5H317.986V149C317.986 145.92 316.046 144.3 313.466 144.3C312.146 144.3 310.926 144.84 310.186 145.74V144.48H307.906V155.5H310.186V149.34C310.186 147.32 311.286 146.28 312.966 146.28C314.626 146.28 315.726 147.32 315.726 149.34V155.5ZM320.135 149.94C320.135 153.34 322.435 155.68 325.335 155.68C327.135 155.68 328.455 154.84 329.155 153.84V155.5H331.455V140.7H329.155V146.02C328.315 144.98 326.795 144.3 325.355 144.3C322.435 144.3 320.135 146.54 320.135 149.94ZM329.155 149.98C329.155 152.36 327.535 153.7 325.815 153.7C324.115 153.7 322.475 152.32 322.475 149.94C322.475 147.56 324.115 146.28 325.815 146.28C327.535 146.28 329.155 147.62 329.155 149.98ZM344.185 141.6H339.645V155.5H344.185C348.645 155.5 351.565 152.88 351.565 148.6C351.565 144.3 348.645 141.6 344.185 141.6ZM341.925 153.64V143.46H344.185C347.465 143.46 349.225 145.42 349.225 148.6C349.225 151.76 347.465 153.64 344.185 153.64H341.925ZM358.464 146.22C360.164 146.22 361.504 147.3 361.544 149H355.444C355.684 147.26 356.924 146.22 358.464 146.22ZM363.624 152.22H361.164C360.744 153.08 359.964 153.76 358.564 153.76C356.884 153.76 355.584 152.66 355.424 150.84H363.844C363.904 150.46 363.924 150.1 363.924 149.72C363.924 146.48 361.704 144.3 358.564 144.3C355.304 144.3 353.064 146.52 353.064 149.98C353.064 153.44 355.404 155.68 358.564 155.68C361.264 155.68 363.004 154.14 363.624 152.22ZM374.388 152.42C374.268 148.44 368.048 149.68 368.048 147.46C368.048 146.72 368.688 146.22 369.908 146.22C371.148 146.22 371.888 146.88 371.968 147.84H374.248C374.128 145.64 372.488 144.3 369.988 144.3C367.388 144.3 365.748 145.72 365.748 147.48C365.748 151.52 372.148 150.28 372.148 152.44C372.148 153.2 371.448 153.76 370.128 153.76C368.868 153.76 368.008 153.02 367.928 152.12H365.568C365.668 154.12 367.528 155.68 370.168 155.68C372.768 155.68 374.388 154.28 374.388 152.42ZM376.852 155.5H379.132V144.48H376.852V155.5ZM378.012 143.02C378.812 143.02 379.452 142.38 379.452 141.56C379.452 140.74 378.812 140.1 378.012 140.1C377.192 140.1 376.552 140.74 376.552 141.56C376.552 142.38 377.192 143.02 378.012 143.02ZM381.365 149.94C381.365 153.34 383.665 155.68 386.565 155.68C388.365 155.68 389.685 154.78 390.385 153.84V155.68C390.385 157.88 389.065 158.96 387.305 158.96C385.725 158.96 384.505 158.18 384.165 157.04H381.905C382.185 159.48 384.365 160.94 387.305 160.94C390.745 160.94 392.685 158.68 392.685 155.68V144.48H390.385V146.08C389.705 145.14 388.365 144.3 386.565 144.3C383.665 144.3 381.365 146.54 381.365 149.94ZM390.385 149.98C390.385 152.36 388.765 153.7 387.045 153.7C385.345 153.7 383.705 152.32 383.705 149.94C383.705 147.56 385.345 146.28 387.045 146.28C388.765 146.28 390.385 147.62 390.385 149.98ZM403.5 155.5H405.76V149C405.76 145.92 403.82 144.3 401.24 144.3C399.92 144.3 398.7 144.84 397.96 145.74V144.48H395.68V155.5H397.96V149.34C397.96 147.32 399.06 146.28 400.74 146.28C402.4 146.28 403.5 147.32 403.5 149.34V155.5Z" fill="#212832"/>
<rect x="0.5" y="123.5" width="616" height="49" stroke="black" stroke-opacity="0.5"/>
<rect y="237" width="617" height="50" fill="white"/>
<path d="M24.6 265.44C26.08 265.44 27.24 264.3 27.24 262.84C27.24 261.36 26.08 260.22 24.6 260.22C23.16 260.22 22 261.36 22 262.84C22 264.3 23.16 265.44 24.6 265.44ZM41.1289 269.5H43.4089V255.6H41.1289V269.5ZM54.2223 269.5H56.4823V263C56.4823 259.92 54.5423 258.3 51.9623 258.3C50.6423 258.3 49.4223 258.84 48.6823 259.74V258.48H46.4023V269.5H48.6823V263.34C48.6823 261.32 49.7823 260.28 51.4623 260.28C53.1223 260.28 54.2223 261.32 54.2223 263.34V269.5ZM59.7506 266.44C59.7506 268.68 60.9706 269.5 62.9306 269.5H64.7306V267.6H63.3306C62.3706 267.6 62.0506 267.26 62.0506 266.44V260.34H64.7306V258.48H62.0506V255.74H59.7506V258.48H58.4506V260.34H59.7506V266.44ZM71.472 260.22C73.172 260.22 74.512 261.3 74.552 263H68.452C68.692 261.26 69.932 260.22 71.472 260.22ZM76.632 266.22H74.172C73.752 267.08 72.972 267.76 71.572 267.76C69.892 267.76 68.592 266.66 68.432 264.84H76.852C76.912 264.46 76.932 264.1 76.932 263.72C76.932 260.48 74.712 258.3 71.572 258.3C68.312 258.3 66.072 260.52 66.072 263.98C66.072 267.44 68.412 269.68 71.572 269.68C74.272 269.68 76.012 268.14 76.632 266.22ZM81.4558 263.7C81.4558 261.36 82.4958 260.66 84.1758 260.66H84.7558V258.3C83.1958 258.3 82.0958 258.98 81.4558 260.08V258.48H79.1758V269.5H81.4558V263.7ZM94.6716 269.5H96.9316V263C96.9316 259.92 94.9916 258.3 92.4116 258.3C91.0916 258.3 89.8716 258.84 89.1316 259.74V258.48H86.8516V269.5H89.1316V263.34C89.1316 261.32 90.2316 260.28 91.9116 260.28C93.5716 260.28 94.6716 261.32 94.6716 263.34V269.5ZM104.48 260.22C106.18 260.22 107.52 261.3 107.56 263H101.46C101.7 261.26 102.94 260.22 104.48 260.22ZM109.64 266.22H107.18C106.76 267.08 105.98 267.76 104.58 267.76C102.9 267.76 101.6 266.66 101.44 264.84H109.86C109.92 264.46 109.94 264.1 109.94 263.72C109.94 260.48 107.72 258.3 104.58 258.3C101.32 258.3 99.0798 260.52 99.0798 263.98C99.0798 267.44 101.42 269.68 104.58 269.68C107.28 269.68 109.02 268.14 109.64 266.22ZM112.544 266.44C112.544 268.68 113.764 269.5 115.724 269.5H117.524V267.6H116.124C115.164 267.6 114.844 267.26 114.844 266.44V260.34H117.524V258.48H114.844V255.74H112.544V258.48H111.244V260.34H112.544V266.44ZM127.1 262V257.46H129.62C131.4 257.46 132.2 258.3 132.2 259.74C132.2 261.14 131.4 262 129.62 262H127.1ZM134.54 259.74C134.54 257.48 132.92 255.6 129.62 255.6H124.82V269.5H127.1V263.86H129.62C133.24 263.86 134.54 261.72 134.54 259.74ZM138.995 263.7C138.995 261.36 140.035 260.66 141.715 260.66H142.295V258.3C140.735 258.3 139.635 258.98 138.995 260.08V258.48H136.715V269.5H138.995V263.7ZM154.891 263.98C154.891 260.52 152.411 258.3 149.271 258.3C146.131 258.3 143.651 260.52 143.651 263.98C143.651 267.44 146.031 269.68 149.171 269.68C152.331 269.68 154.891 267.44 154.891 263.98ZM145.971 263.98C145.971 261.48 147.511 260.28 149.231 260.28C150.931 260.28 152.551 261.48 152.551 263.98C152.551 266.48 150.871 267.7 149.171 267.7C147.451 267.7 145.971 266.48 145.971 263.98ZM156.385 263.94C156.385 267.34 158.685 269.68 161.585 269.68C163.385 269.68 164.705 268.78 165.405 267.84V269.68C165.405 271.88 164.085 272.96 162.325 272.96C160.745 272.96 159.525 272.18 159.185 271.04H156.925C157.205 273.48 159.385 274.94 162.325 274.94C165.765 274.94 167.705 272.68 167.705 269.68V258.48H165.405V260.08C164.725 259.14 163.385 258.3 161.585 258.3C158.685 258.3 156.385 260.54 156.385 263.94ZM165.405 263.98C165.405 266.36 163.785 267.7 162.065 267.7C160.365 267.7 158.725 266.32 158.725 263.94C158.725 261.56 160.365 260.28 162.065 260.28C163.785 260.28 165.405 261.62 165.405 263.98ZM172.979 263.7C172.979 261.36 174.019 260.66 175.699 260.66H176.279V258.3C174.719 258.3 173.619 258.98 172.979 260.08V258.48H170.699V269.5H172.979V263.7ZM177.615 263.94C177.615 267.34 179.915 269.68 182.775 269.68C184.615 269.68 185.935 268.8 186.635 267.86V269.5H188.935V258.48H186.635V260.08C185.955 259.18 184.675 258.3 182.815 258.3C179.915 258.3 177.615 260.54 177.615 263.94ZM186.635 263.98C186.635 266.36 185.015 267.7 183.295 267.7C181.595 267.7 179.955 266.32 179.955 263.94C179.955 261.56 181.595 260.28 183.295 260.28C185.015 260.28 186.635 261.62 186.635 263.98ZM207.55 269.5H209.81V263C209.81 259.92 207.85 258.3 205.27 258.3C203.67 258.3 202.11 259.14 201.43 260.48C200.67 259.04 199.21 258.3 197.47 258.3C196.15 258.3 194.95 258.84 194.21 259.74V258.48H191.93V269.5H194.21V263.34C194.21 261.32 195.31 260.28 196.99 260.28C198.65 260.28 199.75 261.32 199.75 263.34V269.5H202.01V263.34C202.01 261.32 203.11 260.28 204.79 260.28C206.45 260.28 207.55 261.32 207.55 263.34V269.5ZM228.331 269.5H230.591V263C230.591 259.92 228.631 258.3 226.051 258.3C224.451 258.3 222.891 259.14 222.211 260.48C221.451 259.04 219.991 258.3 218.251 258.3C216.931 258.3 215.731 258.84 214.991 259.74V258.48H212.711V269.5H214.991V263.34C214.991 261.32 216.091 260.28 217.771 260.28C219.431 260.28 220.531 261.32 220.531 263.34V269.5H222.791V263.34C222.791 261.32 223.891 260.28 225.571 260.28C227.231 260.28 228.331 261.32 228.331 263.34V269.5ZM233.492 269.5H235.772V258.48H233.492V269.5ZM234.652 257.02C235.452 257.02 236.092 256.38 236.092 255.56C236.092 254.74 235.452 254.1 234.652 254.1C233.832 254.1 233.192 254.74 233.192 255.56C233.192 256.38 233.832 257.02 234.652 257.02ZM246.586 269.5H248.846V263C248.846 259.92 246.906 258.3 244.326 258.3C243.006 258.3 241.786 258.84 241.046 259.74V258.48H238.766V269.5H241.046V263.34C241.046 261.32 242.146 260.28 243.826 260.28C245.486 260.28 246.586 261.32 246.586 263.34V269.5ZM250.994 263.94C250.994 267.34 253.294 269.68 256.194 269.68C257.994 269.68 259.314 268.78 260.014 267.84V269.68C260.014 271.88 258.694 272.96 256.934 272.96C255.354 272.96 254.134 272.18 253.794 271.04H251.534C251.814 273.48 253.994 274.94 256.934 274.94C260.374 274.94 262.314 272.68 262.314 269.68V258.48H260.014V260.08C259.334 259.14 257.994 258.3 256.194 258.3C253.294 258.3 250.994 260.54 250.994 263.94ZM260.014 263.98C260.014 266.36 258.394 267.7 256.674 267.7C254.974 267.7 253.334 266.32 253.334 263.94C253.334 261.56 254.974 260.28 256.674 260.28C258.394 260.28 260.014 261.62 260.014 263.98ZM279.344 258.7C279.484 256.8 278.184 255.28 275.764 255.28C273.384 255.28 271.904 256.66 271.904 258.48C271.904 259.46 272.184 260.2 272.964 261.14C270.764 262.04 269.704 263.62 269.704 265.5C269.704 268.1 271.704 269.76 274.704 269.76C276.644 269.76 278.184 269.12 279.524 267.78L281.244 269.5H284.224L280.844 266.14C281.004 265.88 281.184 265.6 281.344 265.32L283.144 262.24H280.684L279.264 264.58L275.584 260.92C274.604 259.86 274.184 259.24 274.184 258.48C274.184 257.74 274.764 257.14 275.664 257.14C276.524 257.14 277.104 257.68 277.064 258.7H279.344ZM274.704 267.82C273.064 267.82 271.984 266.76 271.984 265.42C271.984 264.18 272.724 263.22 274.344 262.58L278.024 266.28C277.064 267.3 276.004 267.82 274.704 267.82ZM290.154 262.52C290.154 266.7 293.334 269.62 297.254 269.62C300.154 269.62 302.654 268.18 303.714 265.46H300.974C300.234 266.94 298.914 267.64 297.254 267.64C294.494 267.64 292.494 265.66 292.494 262.52C292.494 259.38 294.494 257.42 297.254 257.42C298.914 257.42 300.234 258.12 300.974 259.6H303.714C302.654 256.88 300.154 255.42 297.254 255.42C293.334 255.42 290.154 258.36 290.154 262.52ZM310.723 266.88L307.623 258.48H305.083L309.423 269.32L307.183 274.68H309.543L316.303 258.48H313.943L310.723 266.88ZM320.303 260.12V254.7H318.023V269.5H320.303V267.9C321.023 268.86 322.323 269.68 324.143 269.68C327.043 269.68 329.323 267.34 329.323 263.94C329.323 260.54 327.063 258.3 324.143 258.3C322.403 258.3 321.023 259.12 320.303 260.12ZM327.003 263.94C327.003 266.32 325.363 267.7 323.643 267.7C321.943 267.7 320.303 266.36 320.303 263.98C320.303 261.62 321.943 260.28 323.643 260.28C325.363 260.28 327.003 261.56 327.003 263.94ZM336.218 260.22C337.918 260.22 339.258 261.3 339.298 263H333.198C333.438 261.26 334.678 260.22 336.218 260.22ZM341.378 266.22H338.918C338.498 267.08 337.718 267.76 336.318 267.76C334.638 267.76 333.338 266.66 333.178 264.84H341.598C341.658 264.46 341.678 264.1 341.678 263.72C341.678 260.48 339.458 258.3 336.318 258.3C333.058 258.3 330.818 260.52 330.818 263.98C330.818 267.44 333.158 269.68 336.318 269.68C339.018 269.68 340.758 268.14 341.378 266.22ZM346.202 263.7C346.202 261.36 347.242 260.66 348.922 260.66H349.502V258.3C347.942 258.3 346.842 258.98 346.202 260.08V258.48H343.922V269.5H346.202V263.7ZM356.793 269.5H359.073V254.7H356.793V269.5ZM361.306 263.94C361.306 267.34 363.606 269.68 366.466 269.68C368.306 269.68 369.626 268.8 370.326 267.86V269.5H372.626V258.48H370.326V260.08C369.646 259.18 368.366 258.3 366.506 258.3C363.606 258.3 361.306 260.54 361.306 263.94ZM370.326 263.98C370.326 266.36 368.706 267.7 366.986 267.7C365.286 267.7 363.646 266.32 363.646 263.94C363.646 261.56 365.286 260.28 366.986 260.28C368.706 260.28 370.326 261.62 370.326 263.98ZM377.761 269.5H380.161L382.381 261.36L384.601 269.5H387.001L390.421 258.48H388.181L385.901 267.3L383.661 258.48H381.281L378.941 267.34L376.641 258.48H374.321L377.761 269.5Z" fill="#212832"/>
<rect x="0.5" y="237.5" width="616" height="49" stroke="black" stroke-opacity="0.5"/>
</svg>
