<svg width="617" height="287" viewBox="0 0 617 287" fill="none" xmlns="http://www.w3.org/2000/svg">
<rect y="66" width="617" height="50" fill="white"/>
<path d="M24.6 94.44C26.08 94.44 27.24 93.3 27.24 91.84C27.24 90.36 26.08 89.22 24.6 89.22C23.16 89.22 22 90.36 22 91.84C22 93.3 23.16 94.44 24.6 94.44ZM41.1289 98.5H43.4089V84.6H41.1289V98.5ZM54.2223 98.5H56.4823V92C56.4823 88.92 54.5423 87.3 51.9623 87.3C50.6423 87.3 49.4223 87.84 48.6823 88.74V87.48H46.4023V98.5H48.6823V92.34C48.6823 90.32 49.7823 89.28 51.4623 89.28C53.1223 89.28 54.2223 90.32 54.2223 92.34V98.5ZM59.7506 95.44C59.7506 97.68 60.9706 98.5 62.9306 98.5H64.7306V96.6H63.3306C62.3706 96.6 62.0506 96.26 62.0506 95.44V89.34H64.7306V87.48H62.0506V84.74H59.7506V87.48H58.4506V89.34H59.7506V95.44ZM69.112 92.7C69.112 90.36 70.152 89.66 71.832 89.66H72.412V87.3C70.852 87.3 69.752 87.98 69.112 89.08V87.48H66.832V98.5H69.112V92.7ZM85.0078 92.98C85.0078 89.52 82.5278 87.3 79.3878 87.3C76.2478 87.3 73.7678 89.52 73.7678 92.98C73.7678 96.44 76.1478 98.68 79.2878 98.68C82.4478 98.68 85.0078 96.44 85.0078 92.98ZM76.0878 92.98C76.0878 90.48 77.6278 89.28 79.3478 89.28C81.0478 89.28 82.6678 90.48 82.6678 92.98C82.6678 95.48 80.9878 96.7 79.2878 96.7C77.5678 96.7 76.0878 95.48 76.0878 92.98ZM86.5017 92.94C86.5017 96.34 88.8017 98.68 91.7017 98.68C93.5017 98.68 94.8217 97.84 95.5217 96.84V98.5H97.8217V83.7H95.5217V89.02C94.6817 87.98 93.1617 87.3 91.7217 87.3C88.8017 87.3 86.5017 89.54 86.5017 92.94ZM95.5217 92.98C95.5217 95.36 93.9017 96.7 92.1817 96.7C90.4817 96.7 88.8417 95.32 88.8417 92.94C88.8417 90.56 90.4817 89.28 92.1817 89.28C93.9017 89.28 95.5217 90.62 95.5217 92.98ZM110.796 87.48H108.516V93.62C108.516 95.64 107.416 96.68 105.736 96.68C104.076 96.68 102.976 95.64 102.976 93.62V87.48H100.716V93.96C100.716 97.04 102.676 98.66 105.256 98.66C106.556 98.66 107.796 98.12 108.516 97.18V98.5H110.796V87.48ZM113.045 92.98C113.045 96.44 115.285 98.68 118.445 98.68C121.145 98.68 122.905 97.18 123.525 95.02H121.065C120.645 96.16 119.805 96.76 118.445 96.76C116.605 96.76 115.385 95.4 115.385 92.98C115.385 90.58 116.605 89.22 118.445 89.22C119.805 89.22 120.685 89.9 121.065 90.96H123.525C122.905 88.64 121.145 87.3 118.445 87.3C115.285 87.3 113.045 89.54 113.045 92.98ZM126.157 95.44C126.157 97.68 127.377 98.5 129.337 98.5H131.137V96.6H129.737C128.777 96.6 128.457 96.26 128.457 95.44V89.34H131.137V87.48H128.457V84.74H126.157V87.48H124.857V89.34H126.157V95.44ZM133.238 98.5H135.518V87.48H133.238V98.5ZM134.398 86.02C135.198 86.02 135.838 85.38 135.838 84.56C135.838 83.74 135.198 83.1 134.398 83.1C133.578 83.1 132.938 83.74 132.938 84.56C132.938 85.38 133.578 86.02 134.398 86.02ZM149.012 92.98C149.012 89.52 146.532 87.3 143.392 87.3C140.252 87.3 137.772 89.52 137.772 92.98C137.772 96.44 140.152 98.68 143.292 98.68C146.452 98.68 149.012 96.44 149.012 92.98ZM140.092 92.98C140.092 90.48 141.632 89.28 143.352 89.28C145.052 89.28 146.672 90.48 146.672 92.98C146.672 95.48 144.992 96.7 143.292 96.7C141.572 96.7 140.092 95.48 140.092 92.98ZM159.086 98.5H161.346V92C161.346 88.92 159.406 87.3 156.826 87.3C155.506 87.3 154.286 87.84 153.546 88.74V87.48H151.266V98.5H153.546V92.34C153.546 90.32 154.646 89.28 156.326 89.28C157.986 89.28 159.086 90.32 159.086 92.34V98.5ZM169.809 95.44C169.809 97.68 171.029 98.5 172.989 98.5H174.789V96.6H173.389C172.429 96.6 172.109 96.26 172.109 95.44V89.34H174.789V87.48H172.109V84.74H169.809V87.48H168.509V89.34H169.809V95.44ZM187.391 92.98C187.391 89.52 184.911 87.3 181.771 87.3C178.631 87.3 176.151 89.52 176.151 92.98C176.151 96.44 178.531 98.68 181.671 98.68C184.831 98.68 187.391 96.44 187.391 92.98ZM178.471 92.98C178.471 90.48 180.011 89.28 181.731 89.28C183.431 89.28 185.051 90.48 185.051 92.98C185.051 95.48 183.371 96.7 181.671 96.7C179.951 96.7 178.471 95.48 178.471 92.98ZM194.84 98.5H197.12V88.98L201.38 98.5H202.96L207.2 88.98V98.5H209.48V84.6H207.04L202.18 95.5L197.3 84.6H194.84V98.5ZM222.457 87.48H220.177V93.62C220.177 95.64 219.077 96.68 217.397 96.68C215.737 96.68 214.637 95.64 214.637 93.62V87.48H212.377V93.96C212.377 97.04 214.337 98.66 216.917 98.66C218.217 98.66 219.457 98.12 220.177 97.18V98.5H222.457V87.48ZM225.465 98.5H227.745V83.7H225.465V98.5ZM231.098 95.44C231.098 97.68 232.318 98.5 234.278 98.5H236.078V96.6H234.678C233.718 96.6 233.398 96.26 233.398 95.44V89.34H236.078V87.48H233.398V84.74H231.098V87.48H229.798V89.34H231.098V95.44ZM238.18 98.5H240.46V87.48H238.18V98.5ZM239.34 86.02C240.14 86.02 240.78 85.38 240.78 84.56C240.78 83.74 240.14 83.1 239.34 83.1C238.52 83.1 237.88 83.74 237.88 84.56C237.88 85.38 238.52 86.02 239.34 86.02ZM259.073 98.5H261.333V92C261.333 88.92 259.373 87.3 256.793 87.3C255.193 87.3 253.633 88.14 252.953 89.48C252.193 88.04 250.733 87.3 248.993 87.3C247.673 87.3 246.473 87.84 245.733 88.74V87.48H243.453V98.5H245.733V92.34C245.733 90.32 246.833 89.28 248.513 89.28C250.173 89.28 251.273 90.32 251.273 92.34V98.5H253.533V92.34C253.533 90.32 254.633 89.28 256.313 89.28C257.973 89.28 259.073 90.32 259.073 92.34V98.5ZM268.874 89.22C270.574 89.22 271.914 90.3 271.954 92H265.854C266.094 90.26 267.334 89.22 268.874 89.22ZM274.034 95.22H271.574C271.154 96.08 270.374 96.76 268.974 96.76C267.294 96.76 265.994 95.66 265.834 93.84H274.254C274.314 93.46 274.334 93.1 274.334 92.72C274.334 89.48 272.114 87.3 268.974 87.3C265.714 87.3 263.474 89.52 263.474 92.98C263.474 96.44 265.814 98.68 268.974 98.68C271.674 98.68 273.414 97.14 274.034 95.22ZM275.818 92.94C275.818 96.34 278.118 98.68 281.018 98.68C282.818 98.68 284.138 97.84 284.838 96.84V98.5H287.138V83.7H284.838V89.02C283.998 87.98 282.478 87.3 281.038 87.3C278.118 87.3 275.818 89.54 275.818 92.94ZM284.838 92.98C284.838 95.36 283.218 96.7 281.498 96.7C279.798 96.7 278.158 95.32 278.158 92.94C278.158 90.56 279.798 89.28 281.498 89.28C283.218 89.28 284.838 90.62 284.838 92.98ZM290.133 98.5H292.413V87.48H290.133V98.5ZM291.293 86.02C292.093 86.02 292.733 85.38 292.733 84.56C292.733 83.74 292.093 83.1 291.293 83.1C290.473 83.1 289.833 83.74 289.833 84.56C289.833 85.38 290.473 86.02 291.293 86.02ZM294.646 92.94C294.646 96.34 296.946 98.68 299.806 98.68C301.646 98.68 302.966 97.8 303.666 96.86V98.5H305.966V87.48H303.666V89.08C302.986 88.18 301.706 87.3 299.846 87.3C296.946 87.3 294.646 89.54 294.646 92.94ZM303.666 92.98C303.666 95.36 302.046 96.7 300.326 96.7C298.626 96.7 296.986 95.32 296.986 92.94C296.986 90.56 298.626 89.28 300.326 89.28C302.046 89.28 303.666 90.62 303.666 92.98ZM323.536 94.56C323.536 89.48 316.176 91.44 316.176 88.3C316.176 86.96 317.196 86.32 318.516 86.36C319.956 86.4 320.776 87.26 320.856 88.2H323.376C323.176 85.82 321.296 84.42 318.636 84.42C315.796 84.42 313.856 85.94 313.856 88.38C313.856 93.5 321.236 91.32 321.236 94.68C321.236 95.86 320.336 96.72 318.736 96.72C317.156 96.72 316.356 95.8 316.256 94.66H313.816C313.816 97.12 315.956 98.64 318.736 98.64C321.836 98.64 323.536 96.64 323.536 94.56ZM330.567 95.88L327.467 87.48H324.927L329.267 98.32L327.027 103.68H329.387L336.147 87.48H333.787L330.567 95.88ZM346.087 95.42C345.967 91.44 339.747 92.68 339.747 90.46C339.747 89.72 340.387 89.22 341.607 89.22C342.847 89.22 343.587 89.88 343.667 90.84H345.947C345.827 88.64 344.187 87.3 341.687 87.3C339.087 87.3 337.447 88.72 337.447 90.48C337.447 94.52 343.847 93.28 343.847 95.44C343.847 96.2 343.147 96.76 341.827 96.76C340.567 96.76 339.707 96.02 339.627 95.12H337.267C337.367 97.12 339.227 98.68 341.867 98.68C344.467 98.68 346.087 97.28 346.087 95.42ZM348.911 95.44C348.911 97.68 350.131 98.5 352.091 98.5H353.891V96.6H352.491C351.531 96.6 351.211 96.26 351.211 95.44V89.34H353.891V87.48H351.211V84.74H348.911V87.48H347.611V89.34H348.911V95.44ZM360.632 89.22C362.332 89.22 363.672 90.3 363.712 92H357.612C357.852 90.26 359.092 89.22 360.632 89.22ZM365.792 95.22H363.332C362.912 96.08 362.132 96.76 360.732 96.76C359.052 96.76 357.752 95.66 357.592 93.84H366.012C366.072 93.46 366.092 93.1 366.092 92.72C366.092 89.48 363.872 87.3 360.732 87.3C357.472 87.3 355.232 89.52 355.232 92.98C355.232 96.44 357.572 98.68 360.732 98.68C363.432 98.68 365.172 97.14 365.792 95.22ZM383.956 98.5H386.216V92C386.216 88.92 384.256 87.3 381.676 87.3C380.076 87.3 378.516 88.14 377.836 89.48C377.076 88.04 375.616 87.3 373.876 87.3C372.556 87.3 371.356 87.84 370.616 88.74V87.48H368.336V98.5H370.616V92.34C370.616 90.32 371.716 89.28 373.396 89.28C375.056 89.28 376.156 90.32 376.156 92.34V98.5H378.416V92.34C378.416 90.32 379.516 89.28 381.196 89.28C382.856 89.28 383.956 90.32 383.956 92.34V98.5ZM397.337 95.42C397.217 91.44 390.997 92.68 390.997 90.46C390.997 89.72 391.637 89.22 392.857 89.22C394.097 89.22 394.837 89.88 394.917 90.84H397.197C397.077 88.64 395.437 87.3 392.937 87.3C390.337 87.3 388.697 88.72 388.697 90.48C388.697 94.52 395.097 93.28 395.097 95.44C395.097 96.2 394.397 96.76 393.077 96.76C391.817 96.76 390.957 96.02 390.877 95.12H388.517C388.617 97.12 390.477 98.68 393.117 98.68C395.717 98.68 397.337 97.28 397.337 95.42ZM404.236 92.94C404.236 96.34 406.536 98.68 409.396 98.68C411.236 98.68 412.556 97.8 413.256 96.86V98.5H415.556V87.48H413.256V89.08C412.576 88.18 411.296 87.3 409.436 87.3C406.536 87.3 404.236 89.54 404.236 92.94ZM413.256 92.98C413.256 95.36 411.636 96.7 409.916 96.7C408.216 96.7 406.576 95.32 406.576 92.94C406.576 90.56 408.216 89.28 409.916 89.28C411.636 89.28 413.256 90.62 413.256 92.98ZM426.371 98.5H428.631V92C428.631 88.92 426.691 87.3 424.111 87.3C422.791 87.3 421.571 87.84 420.831 88.74V87.48H418.551V98.5H420.831V92.34C420.831 90.32 421.931 89.28 423.611 89.28C425.271 89.28 426.371 90.32 426.371 92.34V98.5ZM430.779 92.94C430.779 96.34 433.079 98.68 435.979 98.68C437.779 98.68 439.099 97.84 439.799 96.84V98.5H442.099V83.7H439.799V89.02C438.959 87.98 437.439 87.3 435.999 87.3C433.079 87.3 430.779 89.54 430.779 92.94ZM439.799 92.98C439.799 95.36 438.179 96.7 436.459 96.7C434.759 96.7 433.119 95.32 433.119 92.94C433.119 90.56 434.759 89.28 436.459 89.28C438.179 89.28 439.799 90.62 439.799 92.98ZM450.289 98.5H452.569V87.48H450.289V98.5ZM451.449 86.02C452.249 86.02 452.889 85.38 452.889 84.56C452.889 83.74 452.249 83.1 451.449 83.1C450.629 83.1 449.989 83.74 449.989 84.56C449.989 85.38 450.629 86.02 451.449 86.02ZM455.923 95.44C455.923 97.68 457.143 98.5 459.103 98.5H460.903V96.6H459.503C458.543 96.6 458.223 96.26 458.223 95.44V89.34H460.903V87.48H458.223V84.74H455.923V87.48H454.623V89.34H455.923V95.44ZM471.224 95.42C471.104 91.44 464.884 92.68 464.884 90.46C464.884 89.72 465.524 89.22 466.744 89.22C467.984 89.22 468.724 89.88 468.804 90.84H471.084C470.964 88.64 469.324 87.3 466.824 87.3C464.224 87.3 462.584 88.72 462.584 90.48C462.584 94.52 468.984 93.28 468.984 95.44C468.984 96.2 468.284 96.76 466.964 96.76C465.704 96.76 464.844 96.02 464.764 95.12H462.404C462.504 97.12 464.364 98.68 467.004 98.68C469.604 98.68 471.224 97.28 471.224 95.42ZM488.263 98.5H490.663L485.683 84.58H483.043L478.063 98.5H480.443L481.443 95.66H487.263L488.263 98.5ZM486.623 93.8H482.083L484.363 87.34L486.623 93.8ZM495.108 89.1V87.48H492.828V103.74H495.108V96.9C495.828 97.76 497.128 98.68 498.948 98.68C501.848 98.68 504.128 96.34 504.128 92.94C504.128 89.54 501.848 87.3 498.948 87.3C497.148 87.3 495.808 88.18 495.108 89.1ZM501.808 92.94C501.808 95.32 500.168 96.7 498.448 96.7C496.748 96.7 495.108 95.36 495.108 92.98C495.108 90.62 496.748 89.28 498.448 89.28C500.168 89.28 501.808 90.56 501.808 92.94ZM508.663 89.1V87.48H506.383V103.74H508.663V96.9C509.383 97.76 510.683 98.68 512.503 98.68C515.403 98.68 517.683 96.34 517.683 92.94C517.683 89.54 515.403 87.3 512.503 87.3C510.703 87.3 509.363 88.18 508.663 89.1ZM515.363 92.94C515.363 95.32 513.723 96.7 512.003 96.7C510.303 96.7 508.663 95.36 508.663 92.98C508.663 90.62 510.303 89.28 512.003 89.28C513.723 89.28 515.363 90.56 515.363 92.94ZM519.938 98.5H522.218V83.7H519.938V98.5ZM525.211 98.5H527.491V87.48H525.211V98.5ZM526.371 86.02C527.171 86.02 527.811 85.38 527.811 84.56C527.811 83.74 527.171 83.1 526.371 83.1C525.551 83.1 524.911 83.74 524.911 84.56C524.911 85.38 525.551 86.02 526.371 86.02ZM529.724 92.98C529.724 96.44 531.964 98.68 535.124 98.68C537.824 98.68 539.584 97.18 540.204 95.02H537.744C537.324 96.16 536.484 96.76 535.124 96.76C533.284 96.76 532.064 95.4 532.064 92.98C532.064 90.58 533.284 89.22 535.124 89.22C536.484 89.22 537.364 89.9 537.744 90.96H540.204C539.584 88.64 537.824 87.3 535.124 87.3C531.964 87.3 529.724 89.54 529.724 92.98ZM541.717 92.94C541.717 96.34 544.017 98.68 546.877 98.68C548.717 98.68 550.037 97.8 550.737 96.86V98.5H553.037V87.48H550.737V89.08C550.057 88.18 548.777 87.3 546.917 87.3C544.017 87.3 541.717 89.54 541.717 92.94ZM550.737 92.98C550.737 95.36 549.117 96.7 547.397 96.7C545.697 96.7 544.057 95.32 544.057 92.94C544.057 90.56 545.697 89.28 547.397 89.28C549.117 89.28 550.737 90.62 550.737 92.98ZM556.391 95.44C556.391 97.68 557.611 98.5 559.571 98.5H561.371V96.6H559.971C559.011 96.6 558.691 96.26 558.691 95.44V89.34H561.371V87.48H558.691V84.74H556.391V87.48H555.091V89.34H556.391V95.44ZM563.473 98.5H565.753V87.48H563.473V98.5ZM564.633 86.02C565.433 86.02 566.073 85.38 566.073 84.56C566.073 83.74 565.433 83.1 564.633 83.1C563.813 83.1 563.173 83.74 563.173 84.56C563.173 85.38 563.813 86.02 564.633 86.02ZM579.246 92.98C579.246 89.52 576.766 87.3 573.626 87.3C570.486 87.3 568.006 89.52 568.006 92.98C568.006 96.44 570.386 98.68 573.526 98.68C576.686 98.68 579.246 96.44 579.246 92.98ZM570.326 92.98C570.326 90.48 571.866 89.28 573.586 89.28C575.286 89.28 576.906 90.48 576.906 92.98C576.906 95.48 575.226 96.7 573.526 96.7C571.806 96.7 570.326 95.48 570.326 92.98ZM589.32 98.5H591.58V92C591.58 88.92 589.64 87.3 587.06 87.3C585.74 87.3 584.52 87.84 583.78 88.74V87.48H581.5V98.5H583.78V92.34C583.78 90.32 584.88 89.28 586.56 89.28C588.22 89.28 589.32 90.32 589.32 92.34V98.5Z" fill="#212832"/>
<rect x="0.5" y="66.5" width="616" height="49" stroke="black" stroke-opacity="0.5"/>
<rect y="180" width="617" height="50" fill="white"/>
<path d="M24.6 208.44C26.08 208.44 27.24 207.3 27.24 205.84C27.24 204.36 26.08 203.22 24.6 203.22C23.16 203.22 22 204.36 22 205.84C22 207.3 23.16 208.44 24.6 208.44ZM50.5089 212.5H52.9089L47.9289 198.58H45.2889L40.3089 212.5H42.6889L43.6889 209.66H49.5089L50.5089 212.5ZM48.8689 207.8H44.3289L46.6089 201.34L48.8689 207.8ZM54.3142 206.94C54.3142 210.34 56.6142 212.68 59.5142 212.68C61.3142 212.68 62.6342 211.84 63.3342 210.84V212.5H65.6342V197.7H63.3342V203.02C62.4942 201.98 60.9742 201.3 59.5342 201.3C56.6142 201.3 54.3142 203.54 54.3142 206.94ZM63.3342 206.98C63.3342 209.36 61.7142 210.7 59.9942 210.7C58.2942 210.7 56.6542 209.32 56.6542 206.94C56.6542 204.56 58.2942 203.28 59.9942 203.28C61.7142 203.28 63.3342 204.62 63.3342 206.98ZM67.3289 201.48L71.5089 212.5H74.2289L78.4289 201.48H76.0089L72.8889 210.46L69.7689 201.48H67.3289ZM79.3923 206.94C79.3923 210.34 81.6923 212.68 84.5523 212.68C86.3923 212.68 87.7123 211.8 88.4123 210.86V212.5H90.7123V201.48H88.4123V203.08C87.7323 202.18 86.4523 201.3 84.5923 201.3C81.6923 201.3 79.3923 203.54 79.3923 206.94ZM88.4123 206.98C88.4123 209.36 86.7923 210.7 85.0723 210.7C83.3723 210.7 81.7323 209.32 81.7323 206.94C81.7323 204.56 83.3723 203.28 85.0723 203.28C86.7923 203.28 88.4123 204.62 88.4123 206.98ZM101.527 212.5H103.787V206C103.787 202.92 101.847 201.3 99.267 201.3C97.947 201.3 96.727 201.84 95.987 202.74V201.48H93.707V212.5H95.987V206.34C95.987 204.32 97.087 203.28 98.767 203.28C100.427 203.28 101.527 204.32 101.527 206.34V212.5ZM105.935 206.98C105.935 210.44 108.175 212.68 111.335 212.68C114.035 212.68 115.795 211.18 116.415 209.02H113.955C113.535 210.16 112.695 210.76 111.335 210.76C109.495 210.76 108.275 209.4 108.275 206.98C108.275 204.58 109.495 203.22 111.335 203.22C112.695 203.22 113.575 203.9 113.955 204.96H116.415C115.795 202.64 114.035 201.3 111.335 201.3C108.175 201.3 105.935 203.54 105.935 206.98ZM123.328 203.22C125.028 203.22 126.368 204.3 126.408 206H120.308C120.548 204.26 121.788 203.22 123.328 203.22ZM128.487 209.22H126.028C125.608 210.08 124.828 210.76 123.428 210.76C121.748 210.76 120.448 209.66 120.288 207.84H128.708C128.768 207.46 128.788 207.1 128.788 206.72C128.788 203.48 126.568 201.3 123.428 201.3C120.168 201.3 117.928 203.52 117.928 206.98C117.928 210.44 120.268 212.68 123.428 212.68C126.128 212.68 127.868 211.14 128.487 209.22ZM130.271 206.94C130.271 210.34 132.571 212.68 135.471 212.68C137.271 212.68 138.591 211.84 139.291 210.84V212.5H141.591V197.7H139.291V203.02C138.451 201.98 136.931 201.3 135.491 201.3C132.571 201.3 130.271 203.54 130.271 206.94ZM139.291 206.98C139.291 209.36 137.671 210.7 135.951 210.7C134.251 210.7 132.611 209.32 132.611 206.94C132.611 204.56 134.251 203.28 135.951 203.28C137.671 203.28 139.291 204.62 139.291 206.98ZM158.921 198.58V208.94L152.061 198.58H149.781V212.5H152.061V202.12L158.921 212.5H161.201V198.58H158.921ZM168.835 203.22C170.535 203.22 171.875 204.3 171.915 206H165.815C166.055 204.26 167.295 203.22 168.835 203.22ZM173.995 209.22H171.535C171.115 210.08 170.335 210.76 168.935 210.76C167.255 210.76 165.955 209.66 165.795 207.84H174.215C174.275 207.46 174.295 207.1 174.295 206.72C174.295 203.48 172.075 201.3 168.935 201.3C165.675 201.3 163.435 203.52 163.435 206.98C163.435 210.44 165.775 212.68 168.935 212.68C171.635 212.68 173.375 211.14 173.995 209.22ZM176.899 209.44C176.899 211.68 178.119 212.5 180.079 212.5H181.879V210.6H180.479C179.519 210.6 179.199 210.26 179.199 209.44V203.34H181.879V201.48H179.199V198.74H176.899V201.48H175.599V203.34H176.899V209.44ZM186.12 212.5H188.52L190.74 204.36L192.96 212.5H195.36L198.78 201.48H196.54L194.26 210.3L192.02 201.48H189.64L187.3 210.34L185 201.48H182.68L186.12 212.5ZM210.984 206.98C210.984 203.52 208.504 201.3 205.364 201.3C202.224 201.3 199.744 203.52 199.744 206.98C199.744 210.44 202.124 212.68 205.264 212.68C208.424 212.68 210.984 210.44 210.984 206.98ZM202.064 206.98C202.064 204.48 203.604 203.28 205.324 203.28C207.024 203.28 208.644 204.48 208.644 206.98C208.644 209.48 206.964 210.7 205.264 210.7C203.544 210.7 202.064 209.48 202.064 206.98ZM215.518 206.7C215.518 204.36 216.558 203.66 218.238 203.66H218.818V201.3C217.258 201.3 216.158 201.98 215.518 203.08V201.48H213.238V212.5H215.518V206.7ZM220.914 212.5H223.194V207.76L227.274 212.5H230.354L225.274 207L230.354 201.48H227.194L223.194 206.3V197.7H220.914V212.5ZM231.988 212.5H234.268V201.48H231.988V212.5ZM233.148 200.02C233.948 200.02 234.588 199.38 234.588 198.56C234.588 197.74 233.948 197.1 233.148 197.1C232.328 197.1 231.688 197.74 231.688 198.56C231.688 199.38 232.328 200.02 233.148 200.02ZM245.082 212.5H247.342V206C247.342 202.92 245.402 201.3 242.822 201.3C241.502 201.3 240.282 201.84 239.542 202.74V201.48H237.262V212.5H239.542V206.34C239.542 204.32 240.642 203.28 242.322 203.28C243.982 203.28 245.082 204.32 245.082 206.34V212.5ZM249.49 206.94C249.49 210.34 251.79 212.68 254.69 212.68C256.49 212.68 257.81 211.78 258.51 210.84V212.68C258.51 214.88 257.19 215.96 255.43 215.96C253.85 215.96 252.63 215.18 252.29 214.04H250.03C250.31 216.48 252.49 217.94 255.43 217.94C258.87 217.94 260.81 215.68 260.81 212.68V201.48H258.51V203.08C257.83 202.14 256.49 201.3 254.69 201.3C251.79 201.3 249.49 203.54 249.49 206.94ZM258.51 206.98C258.51 209.36 256.89 210.7 255.17 210.7C253.47 210.7 251.83 209.32 251.83 206.94C251.83 204.56 253.47 203.28 255.17 203.28C256.89 203.28 258.51 204.62 258.51 206.98ZM269 212.5H271.28V202.98L275.54 212.5H277.12L281.36 202.98V212.5H283.64V198.6H281.2L276.34 209.5L271.46 198.6H269V212.5ZM285.877 206.94C285.877 210.34 288.177 212.68 291.037 212.68C292.877 212.68 294.197 211.8 294.897 210.86V212.5H297.197V201.48H294.897V203.08C294.217 202.18 292.937 201.3 291.077 201.3C288.177 201.3 285.877 203.54 285.877 206.94ZM294.897 206.98C294.897 209.36 293.277 210.7 291.557 210.7C289.857 210.7 288.217 209.32 288.217 206.94C288.217 204.56 289.857 203.28 291.557 203.28C293.277 203.28 294.897 204.62 294.897 206.98ZM308.011 212.5H310.271V206C310.271 202.92 308.331 201.3 305.751 201.3C304.431 201.3 303.211 201.84 302.471 202.74V201.48H300.191V212.5H302.471V206.34C302.471 204.32 303.571 203.28 305.251 203.28C306.911 203.28 308.011 204.32 308.011 206.34V212.5ZM312.42 206.94C312.42 210.34 314.72 212.68 317.58 212.68C319.42 212.68 320.74 211.8 321.44 210.86V212.5H323.74V201.48H321.44V203.08C320.76 202.18 319.48 201.3 317.62 201.3C314.72 201.3 312.42 203.54 312.42 206.94ZM321.44 206.98C321.44 209.36 319.82 210.7 318.1 210.7C316.4 210.7 314.76 209.32 314.76 206.94C314.76 204.56 316.4 203.28 318.1 203.28C319.82 203.28 321.44 204.62 321.44 206.98ZM325.974 206.94C325.974 210.34 328.274 212.68 331.174 212.68C332.974 212.68 334.294 211.78 334.994 210.84V212.68C334.994 214.88 333.674 215.96 331.914 215.96C330.334 215.96 329.114 215.18 328.774 214.04H326.514C326.794 216.48 328.974 217.94 331.914 217.94C335.354 217.94 337.294 215.68 337.294 212.68V201.48H334.994V203.08C334.314 202.14 332.974 201.3 331.174 201.3C328.274 201.3 325.974 203.54 325.974 206.94ZM334.994 206.98C334.994 209.36 333.374 210.7 331.654 210.7C329.954 210.7 328.314 209.32 328.314 206.94C328.314 204.56 329.954 203.28 331.654 203.28C333.374 203.28 334.994 204.62 334.994 206.98ZM344.929 203.22C346.629 203.22 347.969 204.3 348.009 206H341.909C342.149 204.26 343.389 203.22 344.929 203.22ZM350.089 209.22H347.629C347.209 210.08 346.429 210.76 345.029 210.76C343.349 210.76 342.049 209.66 341.889 207.84H350.309C350.369 207.46 350.389 207.1 350.389 206.72C350.389 203.48 348.169 201.3 345.029 201.3C341.769 201.3 339.529 203.52 339.529 206.98C339.529 210.44 341.869 212.68 345.029 212.68C347.729 212.68 349.469 211.14 350.089 209.22ZM368.253 212.5H370.513V206C370.513 202.92 368.553 201.3 365.973 201.3C364.373 201.3 362.813 202.14 362.133 203.48C361.373 202.04 359.913 201.3 358.173 201.3C356.853 201.3 355.653 201.84 354.913 202.74V201.48H352.633V212.5H354.913V206.34C354.913 204.32 356.013 203.28 357.693 203.28C359.353 203.28 360.453 204.32 360.453 206.34V212.5H362.713V206.34C362.713 204.32 363.813 203.28 365.493 203.28C367.153 203.28 368.253 204.32 368.253 206.34V212.5ZM378.054 203.22C379.754 203.22 381.094 204.3 381.134 206H375.034C375.274 204.26 376.514 203.22 378.054 203.22ZM383.214 209.22H380.754C380.334 210.08 379.554 210.76 378.154 210.76C376.474 210.76 375.174 209.66 375.014 207.84H383.434C383.494 207.46 383.514 207.1 383.514 206.72C383.514 203.48 381.294 201.3 378.154 201.3C374.894 201.3 372.654 203.52 372.654 206.98C372.654 210.44 374.994 212.68 378.154 212.68C380.854 212.68 382.594 211.14 383.214 209.22ZM393.578 212.5H395.838V206C395.838 202.92 393.898 201.3 391.318 201.3C389.998 201.3 388.778 201.84 388.038 202.74V201.48H385.758V212.5H388.038V206.34C388.038 204.32 389.138 203.28 390.818 203.28C392.478 203.28 393.578 204.32 393.578 206.34V212.5ZM399.106 209.44C399.106 211.68 400.326 212.5 402.286 212.5H404.086V210.6H402.686C401.726 210.6 401.406 210.26 401.406 209.44V203.34H404.086V201.48H401.406V198.74H399.106V201.48H397.806V203.34H399.106V209.44Z" fill="#212832"/>
<rect x="0.5" y="180.5" width="616" height="49" stroke="black" stroke-opacity="0.5"/>
<rect y="123" width="617" height="50" fill="white"/>
<path d="M24.6 151.44C26.08 151.44 27.24 150.3 27.24 148.84C27.24 147.36 26.08 146.22 24.6 146.22C23.16 146.22 22 147.36 22 148.84C22 150.3 23.16 151.44 24.6 151.44ZM41.1289 155.5H43.4089V141.6H41.1289V155.5ZM54.2223 155.5H56.4823V149C56.4823 145.92 54.5423 144.3 51.9623 144.3C50.6423 144.3 49.4223 144.84 48.6823 145.74V144.48H46.4023V155.5H48.6823V149.34C48.6823 147.32 49.7823 146.28 51.4623 146.28C53.1223 146.28 54.2223 147.32 54.2223 149.34V155.5ZM59.7506 152.44C59.7506 154.68 60.9706 155.5 62.9306 155.5H64.7306V153.6H63.3306C62.3706 153.6 62.0506 153.26 62.0506 152.44V146.34H64.7306V144.48H62.0506V141.74H59.7506V144.48H58.4506V146.34H59.7506V152.44ZM71.472 146.22C73.172 146.22 74.512 147.3 74.552 149H68.452C68.692 147.26 69.932 146.22 71.472 146.22ZM76.632 152.22H74.172C73.752 153.08 72.972 153.76 71.572 153.76C69.892 153.76 68.592 152.66 68.432 150.84H76.852C76.912 150.46 76.932 150.1 76.932 149.72C76.932 146.48 74.712 144.3 71.572 144.3C68.312 144.3 66.072 146.52 66.072 149.98C66.072 153.44 68.412 155.68 71.572 155.68C74.272 155.68 76.012 154.14 76.632 152.22ZM79.1758 155.5H81.4558V140.7H79.1758V155.5ZM84.4492 155.5H86.7292V140.7H84.4492V155.5ZM89.7227 155.5H92.0027V144.48H89.7227V155.5ZM90.8827 143.02C91.6827 143.02 92.3227 142.38 92.3227 141.56C92.3227 140.74 91.6827 140.1 90.8827 140.1C90.0627 140.1 89.4227 140.74 89.4227 141.56C89.4227 142.38 90.0627 143.02 90.8827 143.02ZM94.2361 149.94C94.2361 153.34 96.5361 155.68 99.4361 155.68C101.236 155.68 102.556 154.78 103.256 153.84V155.68C103.256 157.88 101.936 158.96 100.176 158.96C98.5961 158.96 97.3761 158.18 97.0361 157.04H94.7761C95.0561 159.48 97.2361 160.94 100.176 160.94C103.616 160.94 105.556 158.68 105.556 155.68V144.48H103.256V146.08C102.576 145.14 101.236 144.3 99.4361 144.3C96.5361 144.3 94.2361 146.54 94.2361 149.94ZM103.256 149.98C103.256 152.36 101.636 153.7 99.9161 153.7C98.2161 153.7 96.5761 152.32 96.5761 149.94C96.5761 147.56 98.2161 146.28 99.9161 146.28C101.636 146.28 103.256 147.62 103.256 149.98ZM113.191 146.22C114.891 146.22 116.231 147.3 116.271 149H110.171C110.411 147.26 111.651 146.22 113.191 146.22ZM118.351 152.22H115.891C115.471 153.08 114.691 153.76 113.291 153.76C111.611 153.76 110.311 152.66 110.151 150.84H118.571C118.631 150.46 118.651 150.1 118.651 149.72C118.651 146.48 116.431 144.3 113.291 144.3C110.031 144.3 107.791 146.52 107.791 149.98C107.791 153.44 110.131 155.68 113.291 155.68C115.991 155.68 117.731 154.14 118.351 152.22ZM128.715 155.5H130.975V149C130.975 145.92 129.035 144.3 126.455 144.3C125.135 144.3 123.915 144.84 123.175 145.74V144.48H120.895V155.5H123.175V149.34C123.175 147.32 124.275 146.28 125.955 146.28C127.615 146.28 128.715 147.32 128.715 149.34V155.5ZM134.243 152.44C134.243 154.68 135.463 155.5 137.423 155.5H139.223V153.6H137.823C136.863 153.6 136.543 153.26 136.543 152.44V146.34H139.223V144.48H136.543V141.74H134.243V144.48H132.943V146.34H134.243V152.44ZM155.9 151.56C155.9 146.48 148.54 148.44 148.54 145.3C148.54 143.96 149.56 143.32 150.88 143.36C152.32 143.4 153.14 144.26 153.22 145.2H155.74C155.54 142.82 153.66 141.42 151 141.42C148.16 141.42 146.22 142.94 146.22 145.38C146.22 150.5 153.6 148.32 153.6 151.68C153.6 152.86 152.7 153.72 151.1 153.72C149.52 153.72 148.72 152.8 148.62 151.66H146.18C146.18 154.12 148.32 155.64 151.1 155.64C154.2 155.64 155.9 153.64 155.9 151.56ZM162.93 152.88L159.83 144.48H157.29L161.63 155.32L159.39 160.68H161.75L168.51 144.48H166.15L162.93 152.88ZM178.45 152.42C178.33 148.44 172.11 149.68 172.11 147.46C172.11 146.72 172.75 146.22 173.97 146.22C175.21 146.22 175.95 146.88 176.03 147.84H178.31C178.19 145.64 176.55 144.3 174.05 144.3C171.45 144.3 169.81 145.72 169.81 147.48C169.81 151.52 176.21 150.28 176.21 152.44C176.21 153.2 175.51 153.76 174.19 153.76C172.93 153.76 172.07 153.02 171.99 152.12H169.63C169.73 154.12 171.59 155.68 174.23 155.68C176.83 155.68 178.45 154.28 178.45 152.42ZM181.274 152.44C181.274 154.68 182.494 155.5 184.454 155.5H186.254V153.6H184.854C183.894 153.6 183.574 153.26 183.574 152.44V146.34H186.254V144.48H183.574V141.74H181.274V144.48H179.974V146.34H181.274V152.44ZM192.995 146.22C194.695 146.22 196.035 147.3 196.075 149H189.975C190.215 147.26 191.455 146.22 192.995 146.22ZM198.155 152.22H195.695C195.275 153.08 194.495 153.76 193.095 153.76C191.415 153.76 190.115 152.66 189.955 150.84H198.375C198.435 150.46 198.455 150.1 198.455 149.72C198.455 146.48 196.235 144.3 193.095 144.3C189.835 144.3 187.595 146.52 187.595 149.98C187.595 153.44 189.935 155.68 193.095 155.68C195.795 155.68 197.535 154.14 198.155 152.22ZM216.319 155.5H218.579V149C218.579 145.92 216.619 144.3 214.039 144.3C212.439 144.3 210.879 145.14 210.199 146.48C209.439 145.04 207.979 144.3 206.239 144.3C204.919 144.3 203.719 144.84 202.979 145.74V144.48H200.699V155.5H202.979V149.34C202.979 147.32 204.079 146.28 205.759 146.28C207.419 146.28 208.519 147.32 208.519 149.34V155.5H210.779V149.34C210.779 147.32 211.879 146.28 213.559 146.28C215.219 146.28 216.319 147.32 216.319 149.34V155.5ZM229.7 152.42C229.58 148.44 223.36 149.68 223.36 147.46C223.36 146.72 224 146.22 225.22 146.22C226.46 146.22 227.2 146.88 227.28 147.84H229.56C229.44 145.64 227.8 144.3 225.3 144.3C222.7 144.3 221.06 145.72 221.06 147.48C221.06 151.52 227.46 150.28 227.46 152.44C227.46 153.2 226.76 153.76 225.44 153.76C224.18 153.76 223.32 153.02 223.24 152.12H220.88C220.98 154.12 222.84 155.68 225.48 155.68C228.08 155.68 229.7 154.28 229.7 152.42Z" fill="#212832"/>
<rect x="0.5" y="123.5" width="616" height="49" stroke="black" stroke-opacity="0.5"/>
<rect y="237" width="617" height="50" fill="white"/>
<path d="M24.6 265.44C26.08 265.44 27.24 264.3 27.24 262.84C27.24 261.36 26.08 260.22 24.6 260.22C23.16 260.22 22 261.36 22 262.84C22 264.3 23.16 265.44 24.6 265.44ZM43.4089 262V257.46H45.9289C47.7089 257.46 48.5089 258.3 48.5089 259.74C48.5089 261.14 47.7089 262 45.9289 262H43.4089ZM50.8489 259.74C50.8489 257.48 49.2289 255.6 45.9289 255.6H41.1289V269.5H43.4089V263.86H45.9289C49.5489 263.86 50.8489 261.72 50.8489 259.74ZM55.3034 263.7C55.3034 261.36 56.3434 260.66 58.0234 260.66H58.6034V258.3C57.0434 258.3 55.9434 258.98 55.3034 260.08V258.48H53.0234V269.5H55.3034V263.7ZM71.1992 263.98C71.1992 260.52 68.7192 258.3 65.5792 258.3C62.4392 258.3 59.9592 260.52 59.9592 263.98C59.9592 267.44 62.3392 269.68 65.4792 269.68C68.6392 269.68 71.1992 267.44 71.1992 263.98ZM62.2792 263.98C62.2792 261.48 63.8192 260.28 65.5392 260.28C67.2392 260.28 68.8592 261.48 68.8592 263.98C68.8592 266.48 67.1792 267.7 65.4792 267.7C63.7592 267.7 62.2792 266.48 62.2792 263.98ZM74.6131 257.02C75.4131 257.02 76.0531 256.38 76.0531 255.56C76.0531 254.74 75.4131 254.1 74.6131 254.1C73.7931 254.1 73.1531 254.74 73.1531 255.56C73.1531 256.38 73.7931 257.02 74.6131 257.02ZM73.4531 258.48V271.66C73.4531 272.48 73.1331 272.82 72.1731 272.82H71.3931V274.74H72.5731C74.5331 274.74 75.7331 273.9 75.7331 271.66V258.48H73.4531ZM83.3666 260.22C85.0666 260.22 86.4066 261.3 86.4466 263H80.3466C80.5866 261.26 81.8266 260.22 83.3666 260.22ZM88.5266 266.22H86.0666C85.6466 267.08 84.8666 267.76 83.4666 267.76C81.7866 267.76 80.4866 266.66 80.3266 264.84H88.7466C88.8066 264.46 88.8266 264.1 88.8266 263.72C88.8266 260.48 86.6066 258.3 83.4666 258.3C80.2066 258.3 77.9666 260.52 77.9666 263.98C77.9666 267.44 80.3066 269.68 83.4666 269.68C86.1666 269.68 87.9066 268.14 88.5266 266.22ZM90.3103 263.98C90.3103 267.44 92.5503 269.68 95.7103 269.68C98.4103 269.68 100.17 268.18 100.79 266.02H98.3303C97.9103 267.16 97.0703 267.76 95.7103 267.76C93.8703 267.76 92.6503 266.4 92.6503 263.98C92.6503 261.58 93.8703 260.22 95.7103 260.22C97.0703 260.22 97.9503 260.9 98.3303 261.96H100.79C100.17 259.64 98.4103 258.3 95.7103 258.3C92.5503 258.3 90.3103 260.54 90.3103 263.98ZM103.423 266.44C103.423 268.68 104.643 269.5 106.603 269.5H108.403V267.6H107.003C106.043 267.6 105.723 267.26 105.723 266.44V260.34H108.403V258.48H105.723V255.74H103.423V258.48H102.123V260.34H103.423V266.44Z" fill="#212832"/>
<rect x="0.5" y="237.5" width="616" height="49" stroke="black" stroke-opacity="0.5"/>
<rect width="617" height="58" fill="#3498DB"/>
<path d="M33.925 32.95C33.925 26.8 24.975 28.75 24.975 25.25C24.975 23.825 26 23.15 27.375 23.2C28.875 23.225 29.8 24.125 29.875 25.275H33.725C33.5 22.125 31.05 20.3 27.475 20.3C23.875 20.3 21.325 22.2 21.325 25.35C21.3 31.675 30.3 29.4 30.3 33.175C30.3 34.425 29.325 35.3 27.675 35.3C26.05 35.3 25.125 34.375 25.025 32.975H21.275C21.325 36.275 24.125 38.175 27.75 38.175C31.725 38.175 33.925 35.7 33.925 32.95ZM43.4094 26.8C45.2094 26.8 46.6594 27.95 46.7094 29.775H40.1344C40.4094 27.875 41.7344 26.8 43.4094 26.8ZM49.9844 33.65H46.2094C45.7594 34.575 44.9344 35.325 43.4344 35.325C41.6844 35.325 40.2844 34.175 40.1094 32.125H50.2344C50.3094 31.675 50.3344 31.225 50.3344 30.775C50.3344 26.65 47.5094 23.925 43.5094 23.925C39.4094 23.925 36.5594 26.7 36.5594 31.075C36.5594 35.425 39.4844 38.225 43.5094 38.225C46.9344 38.225 49.2344 36.2 49.9844 33.65ZM72.7641 38H76.2641V29.875C76.2641 26.05 73.9141 23.95 70.5891 23.95C68.5641 23.95 66.7391 25.025 65.8391 26.6C64.8891 24.875 63.1141 23.95 60.9641 23.95C59.2391 23.95 57.7641 24.675 56.8891 25.825V24.15H53.3891V38H56.8891V30.35C56.8891 28.15 58.1141 27 60.0141 27C61.8641 27 63.0891 28.15 63.0891 30.35V38H66.5891V30.35C66.5891 28.15 67.8141 27 69.6891 27C71.5391 27 72.7641 28.15 72.7641 30.35V38ZM86.0354 26.8C87.8354 26.8 89.2854 27.95 89.3354 29.775H82.7604C83.0354 27.875 84.3604 26.8 86.0354 26.8ZM92.6104 33.65H88.8354C88.3854 34.575 87.5604 35.325 86.0604 35.325C84.3104 35.325 82.9104 34.175 82.7354 32.125H92.8604C92.9354 31.675 92.9604 31.225 92.9604 30.775C92.9604 26.65 90.1354 23.925 86.1354 23.925C82.0354 23.925 79.1854 26.7 79.1854 31.075C79.1854 35.425 82.1104 38.225 86.1354 38.225C89.5604 38.225 91.8604 36.2 92.6104 33.65ZM106.765 34.05C106.665 28.975 98.99 30.55 98.99 28.025C98.99 27.225 99.665 26.7 100.965 26.7C102.34 26.7 103.19 27.425 103.29 28.5H106.64C106.44 25.75 104.415 23.925 101.065 23.925C97.64 23.925 95.59 25.775 95.59 28.075C95.59 33.15 103.415 31.575 103.415 34.05C103.415 34.85 102.665 35.475 101.29 35.475C99.89 35.475 98.915 34.675 98.79 33.625H95.265C95.415 36.2 97.84 38.225 101.315 38.225C104.69 38.225 106.765 36.425 106.765 34.05ZM110.688 33.7C110.688 36.875 112.463 38 115.113 38H117.313V35.05H115.688C114.588 35.05 114.213 34.65 114.213 33.725V27.025H117.313V24.15H114.213V20.725H110.688V24.15H109.038V27.025H110.688V33.7ZM126.28 26.8C128.08 26.8 129.53 27.95 129.58 29.775H123.005C123.28 27.875 124.605 26.8 126.28 26.8ZM132.855 33.65H129.08C128.63 34.575 127.805 35.325 126.305 35.325C124.555 35.325 123.155 34.175 122.98 32.125H133.105C133.18 31.675 133.205 31.225 133.205 30.775C133.205 26.65 130.38 23.925 126.38 23.925C122.28 23.925 119.43 26.7 119.43 31.075C119.43 35.425 122.355 38.225 126.38 38.225C129.805 38.225 132.105 36.2 132.855 33.65ZM139.76 31.1C139.76 28.425 141.01 27.625 143.085 27.625H144.01V23.95C142.085 23.95 140.635 24.875 139.76 26.3V24.15H136.26V38H139.76V31.1ZM165.625 24.325C165.35 21.75 163.6 19.35 159.875 19.35C155.25 19.35 153.325 22.65 153.325 28.6C153.325 34.25 154.675 38.05 160.075 38.05C163.975 38.05 166.15 35.475 166.15 31.95C166.15 28.15 163.875 26 160.625 26C158.85 26 157.2 26.75 156.375 28.125C156.425 23.925 157.475 22.225 159.75 22.225C161.325 22.225 162.05 22.975 162.375 24.325H165.625ZM159.825 28.875C161.85 28.875 162.825 30.15 162.825 32.025C162.825 33.9 161.7 35.075 159.9 35.075C157.85 35.075 156.7 33.85 156.7 31.9C156.7 29.825 158.2 28.875 159.825 28.875Z" fill="white"/>
</svg>
