<svg width="617" height="344" viewBox="0 0 617 344" fill="none" xmlns="http://www.w3.org/2000/svg">
<rect width="617" height="58" fill="#3498DB"/>
<path d="M33.925 32.95C33.925 26.8 24.975 28.75 24.975 25.25C24.975 23.825 26 23.15 27.375 23.2C28.875 23.225 29.8 24.125 29.875 25.275H33.725C33.5 22.125 31.05 20.3 27.475 20.3C23.875 20.3 21.325 22.2 21.325 25.35C21.3 31.675 30.3 29.4 30.3 33.175C30.3 34.425 29.325 35.3 27.675 35.3C26.05 35.3 25.125 34.375 25.025 32.975H21.275C21.325 36.275 24.125 38.175 27.75 38.175C31.725 38.175 33.925 35.7 33.925 32.95ZM43.4094 26.8C45.2094 26.8 46.6594 27.95 46.7094 29.775H40.1344C40.4094 27.875 41.7344 26.8 43.4094 26.8ZM49.9844 33.65H46.2094C45.7594 34.575 44.9344 35.325 43.4344 35.325C41.6844 35.325 40.2844 34.175 40.1094 32.125H50.2344C50.3094 31.675 50.3344 31.225 50.3344 30.775C50.3344 26.65 47.5094 23.925 43.5094 23.925C39.4094 23.925 36.5594 26.7 36.5594 31.075C36.5594 35.425 39.4844 38.225 43.5094 38.225C46.9344 38.225 49.2344 36.2 49.9844 33.65ZM72.7641 38H76.2641V29.875C76.2641 26.05 73.9141 23.95 70.5891 23.95C68.5641 23.95 66.7391 25.025 65.8391 26.6C64.8891 24.875 63.1141 23.95 60.9641 23.95C59.2391 23.95 57.7641 24.675 56.8891 25.825V24.15H53.3891V38H56.8891V30.35C56.8891 28.15 58.1141 27 60.0141 27C61.8641 27 63.0891 28.15 63.0891 30.35V38H66.5891V30.35C66.5891 28.15 67.8141 27 69.6891 27C71.5391 27 72.7641 28.15 72.7641 30.35V38ZM86.0354 26.8C87.8354 26.8 89.2854 27.95 89.3354 29.775H82.7604C83.0354 27.875 84.3604 26.8 86.0354 26.8ZM92.6104 33.65H88.8354C88.3854 34.575 87.5604 35.325 86.0604 35.325C84.3104 35.325 82.9104 34.175 82.7354 32.125H92.8604C92.9354 31.675 92.9604 31.225 92.9604 30.775C92.9604 26.65 90.1354 23.925 86.1354 23.925C82.0354 23.925 79.1854 26.7 79.1854 31.075C79.1854 35.425 82.1104 38.225 86.1354 38.225C89.5604 38.225 91.8604 36.2 92.6104 33.65ZM106.765 34.05C106.665 28.975 98.99 30.55 98.99 28.025C98.99 27.225 99.665 26.7 100.965 26.7C102.34 26.7 103.19 27.425 103.29 28.5H106.64C106.44 25.75 104.415 23.925 101.065 23.925C97.64 23.925 95.59 25.775 95.59 28.075C95.59 33.15 103.415 31.575 103.415 34.05C103.415 34.85 102.665 35.475 101.29 35.475C99.89 35.475 98.915 34.675 98.79 33.625H95.265C95.415 36.2 97.84 38.225 101.315 38.225C104.69 38.225 106.765 36.425 106.765 34.05ZM110.688 33.7C110.688 36.875 112.463 38 115.113 38H117.313V35.05H115.688C114.588 35.05 114.213 34.65 114.213 33.725V27.025H117.313V24.15H114.213V20.725H110.688V24.15H109.038V27.025H110.688V33.7ZM126.28 26.8C128.08 26.8 129.53 27.95 129.58 29.775H123.005C123.28 27.875 124.605 26.8 126.28 26.8ZM132.855 33.65H129.08C128.63 34.575 127.805 35.325 126.305 35.325C124.555 35.325 123.155 34.175 122.98 32.125H133.105C133.18 31.675 133.205 31.225 133.205 30.775C133.205 26.65 130.38 23.925 126.38 23.925C122.28 23.925 119.43 26.7 119.43 31.075C119.43 35.425 122.355 38.225 126.38 38.225C129.805 38.225 132.105 36.2 132.855 33.65ZM139.76 31.1C139.76 28.425 141.01 27.625 143.085 27.625H144.01V23.95C142.085 23.95 140.635 24.875 139.76 26.3V24.15H136.26V38H139.76V31.1ZM152.975 24.575H156.4C156.525 23.425 157.25 22.325 158.95 22.325C160.55 22.325 161.425 23.175 161.425 24.6C161.425 26.4 159.925 26.975 157.875 26.975H157.15V29.85H157.875C160.475 29.85 161.775 30.6 161.775 32.65C161.775 34.1 160.875 35.2 159.125 35.2C157.25 35.2 156.2 34.075 156.125 32.5H152.725C152.875 36.325 155.6 38.125 159.2 38.125C163.025 38.125 165.125 35.925 165.125 32.95C165.125 30.475 163.9 28.975 162.05 28.4V28.3C163.375 27.85 164.8 26.45 164.8 24.175C164.8 21.475 162.8 19.35 159.05 19.35C155.55 19.35 153.15 21.2 152.975 24.575Z" fill="white"/>
<rect y="66" width="617" height="50" fill="white"/>
<path d="M24.6 94.44C26.08 94.44 27.24 93.3 27.24 91.84C27.24 90.36 26.08 89.22 24.6 89.22C23.16 89.22 22 90.36 22 91.84C22 93.3 23.16 94.44 24.6 94.44ZM41.1289 98.5H43.4089V84.6H41.1289V98.5ZM54.2223 98.5H56.4823V92C56.4823 88.92 54.5423 87.3 51.9623 87.3C50.6423 87.3 49.4223 87.84 48.6823 88.74V87.48H46.4023V98.5H48.6823V92.34C48.6823 90.32 49.7823 89.28 51.4623 89.28C53.1223 89.28 54.2223 90.32 54.2223 92.34V98.5ZM59.7506 95.44C59.7506 97.68 60.9706 98.5 62.9306 98.5H64.7306V96.6H63.3306C62.3706 96.6 62.0506 96.26 62.0506 95.44V89.34H64.7306V87.48H62.0506V84.74H59.7506V87.48H58.4506V89.34H59.7506V95.44ZM69.112 92.7C69.112 90.36 70.152 89.66 71.832 89.66H72.412V87.3C70.852 87.3 69.752 87.98 69.112 89.08V87.48H66.832V98.5H69.112V92.7ZM85.0078 92.98C85.0078 89.52 82.5278 87.3 79.3878 87.3C76.2478 87.3 73.7678 89.52 73.7678 92.98C73.7678 96.44 76.1478 98.68 79.2878 98.68C82.4478 98.68 85.0078 96.44 85.0078 92.98ZM76.0878 92.98C76.0878 90.48 77.6278 89.28 79.3478 89.28C81.0478 89.28 82.6678 90.48 82.6678 92.98C82.6678 95.48 80.9878 96.7 79.2878 96.7C77.5678 96.7 76.0878 95.48 76.0878 92.98ZM86.5017 92.94C86.5017 96.34 88.8017 98.68 91.7017 98.68C93.5017 98.68 94.8217 97.84 95.5217 96.84V98.5H97.8217V83.7H95.5217V89.02C94.6817 87.98 93.1617 87.3 91.7217 87.3C88.8017 87.3 86.5017 89.54 86.5017 92.94ZM95.5217 92.98C95.5217 95.36 93.9017 96.7 92.1817 96.7C90.4817 96.7 88.8417 95.32 88.8417 92.94C88.8417 90.56 90.4817 89.28 92.1817 89.28C93.9017 89.28 95.5217 90.62 95.5217 92.98ZM110.796 87.48H108.516V93.62C108.516 95.64 107.416 96.68 105.736 96.68C104.076 96.68 102.976 95.64 102.976 93.62V87.48H100.716V93.96C100.716 97.04 102.676 98.66 105.256 98.66C106.556 98.66 107.796 98.12 108.516 97.18V98.5H110.796V87.48ZM113.045 92.98C113.045 96.44 115.285 98.68 118.445 98.68C121.145 98.68 122.905 97.18 123.525 95.02H121.065C120.645 96.16 119.805 96.76 118.445 96.76C116.605 96.76 115.385 95.4 115.385 92.98C115.385 90.58 116.605 89.22 118.445 89.22C119.805 89.22 120.685 89.9 121.065 90.96H123.525C122.905 88.64 121.145 87.3 118.445 87.3C115.285 87.3 113.045 89.54 113.045 92.98ZM126.157 95.44C126.157 97.68 127.377 98.5 129.337 98.5H131.137V96.6H129.737C128.777 96.6 128.457 96.26 128.457 95.44V89.34H131.137V87.48H128.457V84.74H126.157V87.48H124.857V89.34H126.157V95.44ZM133.238 98.5H135.518V87.48H133.238V98.5ZM134.398 86.02C135.198 86.02 135.838 85.38 135.838 84.56C135.838 83.74 135.198 83.1 134.398 83.1C133.578 83.1 132.938 83.74 132.938 84.56C132.938 85.38 133.578 86.02 134.398 86.02ZM149.012 92.98C149.012 89.52 146.532 87.3 143.392 87.3C140.252 87.3 137.772 89.52 137.772 92.98C137.772 96.44 140.152 98.68 143.292 98.68C146.452 98.68 149.012 96.44 149.012 92.98ZM140.092 92.98C140.092 90.48 141.632 89.28 143.352 89.28C145.052 89.28 146.672 90.48 146.672 92.98C146.672 95.48 144.992 96.7 143.292 96.7C141.572 96.7 140.092 95.48 140.092 92.98ZM159.086 98.5H161.346V92C161.346 88.92 159.406 87.3 156.826 87.3C155.506 87.3 154.286 87.84 153.546 88.74V87.48H151.266V98.5H153.546V92.34C153.546 90.32 154.646 89.28 156.326 89.28C157.986 89.28 159.086 90.32 159.086 92.34V98.5ZM169.809 95.44C169.809 97.68 171.029 98.5 172.989 98.5H174.789V96.6H173.389C172.429 96.6 172.109 96.26 172.109 95.44V89.34H174.789V87.48H172.109V84.74H169.809V87.48H168.509V89.34H169.809V95.44ZM187.391 92.98C187.391 89.52 184.911 87.3 181.771 87.3C178.631 87.3 176.151 89.52 176.151 92.98C176.151 96.44 178.531 98.68 181.671 98.68C184.831 98.68 187.391 96.44 187.391 92.98ZM178.471 92.98C178.471 90.48 180.011 89.28 181.731 89.28C183.431 89.28 185.051 90.48 185.051 92.98C185.051 95.48 183.371 96.7 181.671 96.7C179.951 96.7 178.471 95.48 178.471 92.98ZM194.08 91.52C194.08 95.7 197.26 98.62 201.18 98.62C204.08 98.62 206.58 97.18 207.64 94.46H204.9C204.16 95.94 202.84 96.64 201.18 96.64C198.42 96.64 196.42 94.66 196.42 91.52C196.42 88.38 198.42 86.42 201.18 86.42C202.84 86.42 204.16 87.12 204.9 88.6H207.64C206.58 85.88 204.08 84.42 201.18 84.42C197.26 84.42 194.08 87.36 194.08 91.52ZM220.809 92.98C220.809 89.52 218.329 87.3 215.189 87.3C212.049 87.3 209.569 89.52 209.569 92.98C209.569 96.44 211.949 98.68 215.089 98.68C218.249 98.68 220.809 96.44 220.809 92.98ZM211.889 92.98C211.889 90.48 213.429 89.28 215.149 89.28C216.849 89.28 218.469 90.48 218.469 92.98C218.469 95.48 216.789 96.7 215.089 96.7C213.369 96.7 211.889 95.48 211.889 92.98ZM238.683 98.5H240.943V92C240.943 88.92 238.983 87.3 236.403 87.3C234.803 87.3 233.243 88.14 232.563 89.48C231.803 88.04 230.343 87.3 228.603 87.3C227.283 87.3 226.083 87.84 225.343 88.74V87.48H223.063V98.5H225.343V92.34C225.343 90.32 226.443 89.28 228.123 89.28C229.783 89.28 230.883 90.32 230.883 92.34V98.5H233.143V92.34C233.143 90.32 234.243 89.28 235.923 89.28C237.583 89.28 238.683 90.32 238.683 92.34V98.5ZM246.124 89.1V87.48H243.844V103.74H246.124V96.9C246.844 97.76 248.144 98.68 249.964 98.68C252.864 98.68 255.144 96.34 255.144 92.94C255.144 89.54 252.864 87.3 249.964 87.3C248.164 87.3 246.824 88.18 246.124 89.1ZM252.824 92.94C252.824 95.32 251.184 96.7 249.464 96.7C247.764 96.7 246.124 95.36 246.124 92.98C246.124 90.62 247.764 89.28 249.464 89.28C251.184 89.28 252.824 90.56 252.824 92.94ZM267.378 87.48H265.098V93.62C265.098 95.64 263.998 96.68 262.318 96.68C260.658 96.68 259.558 95.64 259.558 93.62V87.48H257.298V93.96C257.298 97.04 259.258 98.66 261.838 98.66C263.138 98.66 264.378 98.12 265.098 97.18V98.5H267.378V87.48ZM270.747 95.44C270.747 97.68 271.967 98.5 273.927 98.5H275.727V96.6H274.327C273.367 96.6 273.047 96.26 273.047 95.44V89.34H275.727V87.48H273.047V84.74H270.747V87.48H269.447V89.34H270.747V95.44ZM282.468 89.22C284.168 89.22 285.508 90.3 285.548 92H279.448C279.688 90.26 280.928 89.22 282.468 89.22ZM287.628 95.22H285.168C284.748 96.08 283.968 96.76 282.568 96.76C280.888 96.76 279.588 95.66 279.428 93.84H287.848C287.908 93.46 287.928 93.1 287.928 92.72C287.928 89.48 285.708 87.3 282.568 87.3C279.308 87.3 277.068 89.52 277.068 92.98C277.068 96.44 279.408 98.68 282.568 98.68C285.268 98.68 287.008 97.14 287.628 95.22ZM292.452 92.7C292.452 90.36 293.492 89.66 295.172 89.66H295.752V87.3C294.192 87.3 293.092 87.98 292.452 89.08V87.48H290.172V98.5H292.452V92.7ZM312.183 84.58V94.94L305.323 84.58H303.043V98.5H305.323V88.12L312.183 98.5H314.463V84.58H312.183ZM322.097 89.22C323.797 89.22 325.137 90.3 325.177 92H319.077C319.317 90.26 320.557 89.22 322.097 89.22ZM327.257 95.22H324.797C324.377 96.08 323.597 96.76 322.197 96.76C320.517 96.76 319.217 95.66 319.057 93.84H327.477C327.537 93.46 327.557 93.1 327.557 92.72C327.557 89.48 325.337 87.3 322.197 87.3C318.937 87.3 316.697 89.52 316.697 92.98C316.697 96.44 319.037 98.68 322.197 98.68C324.897 98.68 326.637 97.14 327.257 95.22ZM330.161 95.44C330.161 97.68 331.381 98.5 333.341 98.5H335.141V96.6H333.741C332.781 96.6 332.461 96.26 332.461 95.44V89.34H335.141V87.48H332.461V84.74H330.161V87.48H328.861V89.34H330.161V95.44ZM339.382 98.5H341.782L344.002 90.36L346.222 98.5H348.622L352.042 87.48H349.802L347.522 96.3L345.282 87.48H342.902L340.562 96.34L338.262 87.48H335.942L339.382 98.5ZM364.246 92.98C364.246 89.52 361.766 87.3 358.626 87.3C355.486 87.3 353.006 89.52 353.006 92.98C353.006 96.44 355.386 98.68 358.526 98.68C361.686 98.68 364.246 96.44 364.246 92.98ZM355.326 92.98C355.326 90.48 356.866 89.28 358.586 89.28C360.286 89.28 361.906 90.48 361.906 92.98C361.906 95.48 360.226 96.7 358.526 96.7C356.806 96.7 355.326 95.48 355.326 92.98ZM368.78 92.7C368.78 90.36 369.82 89.66 371.5 89.66H372.08V87.3C370.52 87.3 369.42 87.98 368.78 89.08V87.48H366.5V98.5H368.78V92.7ZM374.176 98.5H376.456V93.76L380.536 98.5H383.616L378.536 93L383.616 87.48H380.456L376.456 92.3V83.7H374.176V98.5Z" fill="#212832"/>
<rect x="0.5" y="66.5" width="616" height="49" stroke="black" stroke-opacity="0.5"/>
<rect y="294" width="617" height="50" fill="white"/>
<path d="M24.6 322.44C26.08 322.44 27.24 321.3 27.24 319.84C27.24 318.36 26.08 317.22 24.6 317.22C23.16 317.22 22 318.36 22 319.84C22 321.3 23.16 322.44 24.6 322.44ZM50.5089 322.56C50.5089 317.48 43.1489 319.44 43.1489 316.3C43.1489 314.96 44.1689 314.32 45.4889 314.36C46.9289 314.4 47.7489 315.26 47.8289 316.2H50.3489C50.1489 313.82 48.2689 312.42 45.6089 312.42C42.7689 312.42 40.8289 313.94 40.8289 316.38C40.8289 321.5 48.2089 319.32 48.2089 322.68C48.2089 323.86 47.3089 324.72 45.7089 324.72C44.1289 324.72 43.3289 323.8 43.2289 322.66H40.7889C40.7889 325.12 42.9289 326.64 45.7089 326.64C48.8089 326.64 50.5089 324.64 50.5089 322.56ZM52.4392 320.98C52.4392 324.44 54.6792 326.68 57.8392 326.68C60.5392 326.68 62.2992 325.18 62.9192 323.02H60.4592C60.0392 324.16 59.1992 324.76 57.8392 324.76C55.9992 324.76 54.7792 323.4 54.7792 320.98C54.7792 318.58 55.9992 317.22 57.8392 317.22C59.1992 317.22 60.0792 317.9 60.4592 318.96H62.9192C62.2992 316.64 60.5392 315.3 57.8392 315.3C54.6792 315.3 52.4392 317.54 52.4392 320.98ZM65.1914 326.5H67.4714V315.48H65.1914V326.5ZM66.3514 314.02C67.1514 314.02 67.7914 313.38 67.7914 312.56C67.7914 311.74 67.1514 311.1 66.3514 311.1C65.5314 311.1 64.8914 311.74 64.8914 312.56C64.8914 313.38 65.5314 314.02 66.3514 314.02ZM75.1048 317.22C76.8048 317.22 78.1448 318.3 78.1848 320H72.0848C72.3248 318.26 73.5648 317.22 75.1048 317.22ZM80.2648 323.22H77.8048C77.3848 324.08 76.6048 324.76 75.2048 324.76C73.5248 324.76 72.2248 323.66 72.0648 321.84H80.4848C80.5448 321.46 80.5648 321.1 80.5648 320.72C80.5648 317.48 78.3448 315.3 75.2048 315.3C71.9448 315.3 69.7048 317.52 69.7048 320.98C69.7048 324.44 72.0448 326.68 75.2048 326.68C77.9048 326.68 79.6448 325.14 80.2648 323.22ZM90.6286 326.5H92.8886V320C92.8886 316.92 90.9486 315.3 88.3686 315.3C87.0486 315.3 85.8286 315.84 85.0886 316.74V315.48H82.8086V326.5H85.0886V320.34C85.0886 318.32 86.1886 317.28 87.8686 317.28C89.5286 317.28 90.6286 318.32 90.6286 320.34V326.5ZM96.1569 323.44C96.1569 325.68 97.3769 326.5 99.3369 326.5H101.137V324.6H99.7369C98.7769 324.6 98.4569 324.26 98.4569 323.44V317.34H101.137V315.48H98.4569V312.74H96.1569V315.48H94.8569V317.34H96.1569V323.44ZM103.238 326.5H105.518V315.48H103.238V326.5ZM104.398 314.02C105.198 314.02 105.838 313.38 105.838 312.56C105.838 311.74 105.198 311.1 104.398 311.1C103.578 311.1 102.938 311.74 102.938 312.56C102.938 313.38 103.578 314.02 104.398 314.02ZM108.792 326.5H111.092V317.34H113.132V315.48H111.092V314.7C111.092 313.44 111.572 312.96 112.972 312.96V311.06C110.092 311.06 108.792 312.16 108.792 314.7V315.48H107.492V317.34H108.792V326.5ZM115.152 326.5H117.432V315.48H115.152V326.5ZM116.312 314.02C117.112 314.02 117.752 313.38 117.752 312.56C117.752 311.74 117.112 311.1 116.312 311.1C115.492 311.1 114.852 311.74 114.852 312.56C114.852 313.38 115.492 314.02 116.312 314.02ZM119.666 320.98C119.666 324.44 121.906 326.68 125.066 326.68C127.766 326.68 129.526 325.18 130.146 323.02H127.686C127.266 324.16 126.426 324.76 125.066 324.76C123.226 324.76 122.006 323.4 122.006 320.98C122.006 318.58 123.226 317.22 125.066 317.22C126.426 317.22 127.306 317.9 127.686 318.96H130.146C129.526 316.64 127.766 315.3 125.066 315.3C121.906 315.3 119.666 317.54 119.666 320.98ZM136.853 320.94C136.853 324.34 139.153 326.68 142.013 326.68C143.853 326.68 145.173 325.8 145.873 324.86V326.5H148.173V315.48H145.873V317.08C145.193 316.18 143.913 315.3 142.053 315.3C139.153 315.3 136.853 317.54 136.853 320.94ZM145.873 320.98C145.873 323.36 144.253 324.7 142.533 324.7C140.833 324.7 139.193 323.32 139.193 320.94C139.193 318.56 140.833 317.28 142.533 317.28C144.253 317.28 145.873 318.62 145.873 320.98ZM158.988 326.5H161.248V320C161.248 316.92 159.308 315.3 156.728 315.3C155.408 315.3 154.188 315.84 153.448 316.74V315.48H151.168V326.5H153.448V320.34C153.448 318.32 154.548 317.28 156.228 317.28C157.888 317.28 158.988 318.32 158.988 320.34V326.5ZM163.396 320.94C163.396 324.34 165.696 326.68 168.596 326.68C170.396 326.68 171.716 325.84 172.416 324.84V326.5H174.716V311.7H172.416V317.02C171.576 315.98 170.056 315.3 168.616 315.3C165.696 315.3 163.396 317.54 163.396 320.94ZM172.416 320.98C172.416 323.36 170.796 324.7 169.076 324.7C167.376 324.7 165.736 323.32 165.736 320.94C165.736 318.56 167.376 317.28 169.076 317.28C170.796 317.28 172.416 318.62 172.416 320.98ZM192.286 322.56C192.286 317.48 184.926 319.44 184.926 316.3C184.926 314.96 185.946 314.32 187.266 314.36C188.706 314.4 189.526 315.26 189.606 316.2H192.126C191.926 313.82 190.046 312.42 187.386 312.42C184.546 312.42 182.606 313.94 182.606 316.38C182.606 321.5 189.986 319.32 189.986 322.68C189.986 323.86 189.086 324.72 187.486 324.72C185.906 324.72 185.106 323.8 185.006 322.66H182.566C182.566 325.12 184.706 326.64 187.486 326.64C190.586 326.64 192.286 324.64 192.286 322.56ZM195.337 323.44C195.337 325.68 196.557 326.5 198.517 326.5H200.317V324.6H198.917C197.957 324.6 197.637 324.26 197.637 323.44V317.34H200.317V315.48H197.637V312.74H195.337V315.48H194.037V317.34H195.337V323.44ZM201.658 320.94C201.658 324.34 203.958 326.68 206.818 326.68C208.658 326.68 209.978 325.8 210.678 324.86V326.5H212.978V315.48H210.678V317.08C209.998 316.18 208.718 315.3 206.858 315.3C203.958 315.3 201.658 317.54 201.658 320.94ZM210.678 320.98C210.678 323.36 209.058 324.7 207.338 324.7C205.638 324.7 203.998 323.32 203.998 320.94C203.998 318.56 205.638 317.28 207.338 317.28C209.058 317.28 210.678 318.62 210.678 320.98ZM216.333 323.44C216.333 325.68 217.553 326.5 219.513 326.5H221.313V324.6H219.913C218.953 324.6 218.633 324.26 218.633 323.44V317.34H221.313V315.48H218.633V312.74H216.333V315.48H215.033V317.34H216.333V323.44ZM223.414 326.5H225.694V315.48H223.414V326.5ZM224.574 314.02C225.374 314.02 226.014 313.38 226.014 312.56C226.014 311.74 225.374 311.1 224.574 311.1C223.754 311.1 223.114 311.74 223.114 312.56C223.114 313.38 223.754 314.02 224.574 314.02ZM236.908 323.42C236.788 319.44 230.568 320.68 230.568 318.46C230.568 317.72 231.208 317.22 232.428 317.22C233.668 317.22 234.408 317.88 234.488 318.84H236.768C236.648 316.64 235.008 315.3 232.508 315.3C229.908 315.3 228.268 316.72 228.268 318.48C228.268 322.52 234.668 321.28 234.668 323.44C234.668 324.2 233.968 324.76 232.648 324.76C231.388 324.76 230.528 324.02 230.448 323.12H228.088C228.188 325.12 230.048 326.68 232.688 326.68C235.288 326.68 236.908 325.28 236.908 323.42ZM239.731 323.44C239.731 325.68 240.951 326.5 242.911 326.5H244.711V324.6H243.311C242.351 324.6 242.031 324.26 242.031 323.44V317.34H244.711V315.48H242.031V312.74H239.731V315.48H238.431V317.34H239.731V323.44ZM246.813 326.5H249.093V315.48H246.813V326.5ZM247.973 314.02C248.773 314.02 249.413 313.38 249.413 312.56C249.413 311.74 248.773 311.1 247.973 311.1C247.153 311.1 246.513 311.74 246.513 312.56C246.513 313.38 247.153 314.02 247.973 314.02ZM251.326 320.98C251.326 324.44 253.566 326.68 256.726 326.68C259.426 326.68 261.186 325.18 261.806 323.02H259.346C258.926 324.16 258.086 324.76 256.726 324.76C254.886 324.76 253.666 323.4 253.666 320.98C253.666 318.58 254.886 317.22 256.726 317.22C258.086 317.22 258.966 317.9 259.346 318.96H261.806C261.186 316.64 259.426 315.3 256.726 315.3C253.566 315.3 251.326 317.54 251.326 320.98ZM263.318 320.94C263.318 324.34 265.618 326.68 268.478 326.68C270.318 326.68 271.638 325.8 272.338 324.86V326.5H274.638V315.48H272.338V317.08C271.658 316.18 270.378 315.3 268.518 315.3C265.618 315.3 263.318 317.54 263.318 320.94ZM272.338 320.98C272.338 323.36 270.718 324.7 268.998 324.7C267.298 324.7 265.658 323.32 265.658 320.94C265.658 318.56 267.298 317.28 268.998 317.28C270.718 317.28 272.338 318.62 272.338 320.98ZM277.633 326.5H279.913V311.7H277.633V326.5ZM287.342 319.52C287.342 323.7 290.522 326.62 294.442 326.62C297.342 326.62 299.842 325.18 300.902 322.46H298.162C297.422 323.94 296.102 324.64 294.442 324.64C291.682 324.64 289.682 322.66 289.682 319.52C289.682 316.38 291.682 314.42 294.442 314.42C296.102 314.42 297.422 315.12 298.162 316.6H300.902C299.842 313.88 297.342 312.42 294.442 312.42C290.522 312.42 287.342 315.36 287.342 319.52ZM314.07 320.98C314.07 317.52 311.59 315.3 308.45 315.3C305.31 315.3 302.83 317.52 302.83 320.98C302.83 324.44 305.21 326.68 308.35 326.68C311.51 326.68 314.07 324.44 314.07 320.98ZM305.15 320.98C305.15 318.48 306.69 317.28 308.41 317.28C310.11 317.28 311.73 318.48 311.73 320.98C311.73 323.48 310.05 324.7 308.35 324.7C306.63 324.7 305.15 323.48 305.15 320.98ZM331.944 326.5H334.204V320C334.204 316.92 332.244 315.3 329.664 315.3C328.064 315.3 326.504 316.14 325.824 317.48C325.064 316.04 323.604 315.3 321.864 315.3C320.544 315.3 319.344 315.84 318.604 316.74V315.48H316.324V326.5H318.604V320.34C318.604 318.32 319.704 317.28 321.384 317.28C323.044 317.28 324.144 318.32 324.144 320.34V326.5H326.404V320.34C326.404 318.32 327.504 317.28 329.184 317.28C330.844 317.28 331.944 318.32 331.944 320.34V326.5ZM339.385 317.1V315.48H337.105V331.74H339.385V324.9C340.105 325.76 341.405 326.68 343.225 326.68C346.125 326.68 348.405 324.34 348.405 320.94C348.405 317.54 346.125 315.3 343.225 315.3C341.425 315.3 340.085 316.18 339.385 317.1ZM346.085 320.94C346.085 323.32 344.445 324.7 342.725 324.7C341.025 324.7 339.385 323.36 339.385 320.98C339.385 318.62 341.025 317.28 342.725 317.28C344.445 317.28 346.085 318.56 346.085 320.94ZM360.64 315.48H358.36V321.62C358.36 323.64 357.26 324.68 355.58 324.68C353.92 324.68 352.82 323.64 352.82 321.62V315.48H350.56V321.96C350.56 325.04 352.52 326.66 355.1 326.66C356.4 326.66 357.64 326.12 358.36 325.18V326.5H360.64V315.48ZM364.008 323.44C364.008 325.68 365.228 326.5 367.188 326.5H368.988V324.6H367.588C366.628 324.6 366.308 324.26 366.308 323.44V317.34H368.988V315.48H366.308V312.74H364.008V315.48H362.708V317.34H364.008V323.44ZM371.09 326.5H373.37V315.48H371.09V326.5ZM372.25 314.02C373.05 314.02 373.69 313.38 373.69 312.56C373.69 311.74 373.05 311.1 372.25 311.1C371.43 311.1 370.79 311.74 370.79 312.56C370.79 313.38 371.43 314.02 372.25 314.02ZM384.183 326.5H386.443V320C386.443 316.92 384.503 315.3 381.923 315.3C380.603 315.3 379.383 315.84 378.643 316.74V315.48H376.363V326.5H378.643V320.34C378.643 318.32 379.743 317.28 381.423 317.28C383.083 317.28 384.183 318.32 384.183 320.34V326.5ZM388.592 320.94C388.592 324.34 390.892 326.68 393.792 326.68C395.592 326.68 396.912 325.78 397.612 324.84V326.68C397.612 328.88 396.292 329.96 394.532 329.96C392.952 329.96 391.732 329.18 391.392 328.04H389.132C389.412 330.48 391.592 331.94 394.532 331.94C397.972 331.94 399.912 329.68 399.912 326.68V315.48H397.612V317.08C396.932 316.14 395.592 315.3 393.792 315.3C390.892 315.3 388.592 317.54 388.592 320.94ZM397.612 320.98C397.612 323.36 395.992 324.7 394.272 324.7C392.572 324.7 390.932 323.32 390.932 320.94C390.932 318.56 392.572 317.28 394.272 317.28C395.992 317.28 397.612 318.62 397.612 320.98Z" fill="#212832"/>
<rect x="0.5" y="294.5" width="616" height="49" stroke="black" stroke-opacity="0.5"/>
<rect y="180" width="617" height="50" fill="white"/>
<path d="M24.6 208.44C26.08 208.44 27.24 207.3 27.24 205.84C27.24 204.36 26.08 203.22 24.6 203.22C23.16 203.22 22 204.36 22 205.84C22 207.3 23.16 208.44 24.6 208.44ZM48.5089 202.76C48.5089 204.14 47.7089 205.12 45.9289 205.12H43.4089V200.46H45.9289C47.7089 200.46 48.5089 201.36 48.5089 202.76ZM41.1289 198.6V212.5H43.4089V206.94H45.1489L48.3489 212.5H51.0689L47.6289 206.74C49.9689 206.16 50.8489 204.4 50.8489 202.76C50.8489 200.5 49.2289 198.6 45.9289 198.6H41.1289ZM58.4056 203.22C60.1056 203.22 61.4456 204.3 61.4856 206H55.3856C55.6256 204.26 56.8656 203.22 58.4056 203.22ZM63.5656 209.22H61.1056C60.6856 210.08 59.9056 210.76 58.5056 210.76C56.8256 210.76 55.5256 209.66 55.3656 207.84H63.7856C63.8456 207.46 63.8656 207.1 63.8656 206.72C63.8656 203.48 61.6456 201.3 58.5056 201.3C55.2456 201.3 53.0056 203.52 53.0056 206.98C53.0056 210.44 55.3456 212.68 58.5056 212.68C61.2056 212.68 62.9456 211.14 63.5656 209.22ZM66.1094 212.5H68.3894V197.7H66.1094V212.5ZM70.6228 206.94C70.6228 210.34 72.9228 212.68 75.7828 212.68C77.6228 212.68 78.9428 211.8 79.6428 210.86V212.5H81.9428V201.48H79.6428V203.08C78.9628 202.18 77.6828 201.3 75.8228 201.3C72.9228 201.3 70.6228 203.54 70.6228 206.94ZM79.6428 206.98C79.6428 209.36 78.0228 210.7 76.3028 210.7C74.6028 210.7 72.9628 209.32 72.9628 206.94C72.9628 204.56 74.6028 203.28 76.3028 203.28C78.0228 203.28 79.6428 204.62 79.6428 206.98ZM85.2975 209.44C85.2975 211.68 86.5175 212.5 88.4775 212.5H90.2775V210.6H88.8775C87.9175 210.6 87.5975 210.26 87.5975 209.44V203.34H90.2775V201.48H87.5975V198.74H85.2975V201.48H83.9975V203.34H85.2975V209.44ZM92.3789 212.5H94.6589V201.48H92.3789V212.5ZM93.5389 200.02C94.3389 200.02 94.9789 199.38 94.9789 198.56C94.9789 197.74 94.3389 197.1 93.5389 197.1C92.7189 197.1 92.0789 197.74 92.0789 198.56C92.0789 199.38 92.7189 200.02 93.5389 200.02ZM108.152 206.98C108.152 203.52 105.672 201.3 102.532 201.3C99.3923 201.3 96.9123 203.52 96.9123 206.98C96.9123 210.44 99.2923 212.68 102.432 212.68C105.592 212.68 108.152 210.44 108.152 206.98ZM99.2323 206.98C99.2323 204.48 100.772 203.28 102.492 203.28C104.192 203.28 105.812 204.48 105.812 206.98C105.812 209.48 104.132 210.7 102.432 210.7C100.712 210.7 99.2323 209.48 99.2323 206.98ZM118.226 212.5H120.486V206C120.486 202.92 118.546 201.3 115.966 201.3C114.646 201.3 113.426 201.84 112.686 202.74V201.48H110.406V212.5H112.686V206.34C112.686 204.32 113.786 203.28 115.466 203.28C117.126 203.28 118.226 204.32 118.226 206.34V212.5ZM122.635 206.94C122.635 210.34 124.935 212.68 127.795 212.68C129.635 212.68 130.955 211.8 131.655 210.86V212.5H133.955V201.48H131.655V203.08C130.975 202.18 129.695 201.3 127.835 201.3C124.935 201.3 122.635 203.54 122.635 206.94ZM131.655 206.98C131.655 209.36 130.035 210.7 128.315 210.7C126.615 210.7 124.975 209.32 124.975 206.94C124.975 204.56 126.615 203.28 128.315 203.28C130.035 203.28 131.655 204.62 131.655 206.98ZM136.949 212.5H139.229V197.7H136.949V212.5ZM151.958 198.6H147.418V212.5H151.958C156.418 212.5 159.338 209.88 159.338 205.6C159.338 201.3 156.418 198.6 151.958 198.6ZM149.698 210.64V200.46H151.958C155.238 200.46 156.998 202.42 156.998 205.6C156.998 208.76 155.238 210.64 151.958 210.64H149.698ZM160.838 206.94C160.838 210.34 163.138 212.68 165.998 212.68C167.838 212.68 169.158 211.8 169.858 210.86V212.5H172.158V201.48H169.858V203.08C169.178 202.18 167.898 201.3 166.038 201.3C163.138 201.3 160.838 203.54 160.838 206.94ZM169.858 206.98C169.858 209.36 168.238 210.7 166.518 210.7C164.818 210.7 163.178 209.32 163.178 206.94C163.178 204.56 164.818 203.28 166.518 203.28C168.238 203.28 169.858 204.62 169.858 206.98ZM175.512 209.44C175.512 211.68 176.732 212.5 178.692 212.5H180.492V210.6H179.092C178.132 210.6 177.812 210.26 177.812 209.44V203.34H180.492V201.48H177.812V198.74H175.512V201.48H174.212V203.34H175.512V209.44ZM181.834 206.94C181.834 210.34 184.134 212.68 186.994 212.68C188.834 212.68 190.154 211.8 190.854 210.86V212.5H193.154V201.48H190.854V203.08C190.174 202.18 188.894 201.3 187.034 201.3C184.134 201.3 181.834 203.54 181.834 206.94ZM190.854 206.98C190.854 209.36 189.234 210.7 187.514 210.7C185.814 210.7 184.174 209.32 184.174 206.94C184.174 204.56 185.814 203.28 187.514 203.28C189.234 203.28 190.854 204.62 190.854 206.98ZM198.428 203.12V197.7H196.148V212.5H198.428V210.9C199.148 211.86 200.448 212.68 202.268 212.68C205.168 212.68 207.448 210.34 207.448 206.94C207.448 203.54 205.188 201.3 202.268 201.3C200.528 201.3 199.148 202.12 198.428 203.12ZM205.128 206.94C205.128 209.32 203.488 210.7 201.768 210.7C200.068 210.7 198.428 209.36 198.428 206.98C198.428 204.62 200.068 203.28 201.768 203.28C203.488 203.28 205.128 204.56 205.128 206.94ZM208.943 206.94C208.943 210.34 211.243 212.68 214.103 212.68C215.943 212.68 217.263 211.8 217.963 210.86V212.5H220.263V201.48H217.963V203.08C217.283 202.18 216.003 201.3 214.143 201.3C211.243 201.3 208.943 203.54 208.943 206.94ZM217.963 206.98C217.963 209.36 216.343 210.7 214.623 210.7C212.923 210.7 211.283 209.32 211.283 206.94C211.283 204.56 212.923 203.28 214.623 203.28C216.343 203.28 217.963 204.62 217.963 206.98ZM231.478 209.42C231.358 205.44 225.138 206.68 225.138 204.46C225.138 203.72 225.778 203.22 226.998 203.22C228.238 203.22 228.978 203.88 229.058 204.84H231.338C231.218 202.64 229.578 201.3 227.078 201.3C224.478 201.3 222.838 202.72 222.838 204.48C222.838 208.52 229.238 207.28 229.238 209.44C229.238 210.2 228.538 210.76 227.218 210.76C225.958 210.76 225.098 210.02 225.018 209.12H222.658C222.758 211.12 224.618 212.68 227.258 212.68C229.858 212.68 231.478 211.28 231.478 209.42ZM238.581 203.22C240.281 203.22 241.621 204.3 241.661 206H235.561C235.801 204.26 237.041 203.22 238.581 203.22ZM243.741 209.22H241.281C240.861 210.08 240.081 210.76 238.681 210.76C237.001 210.76 235.701 209.66 235.541 207.84H243.961C244.021 207.46 244.041 207.1 244.041 206.72C244.041 203.48 241.821 201.3 238.681 201.3C235.421 201.3 233.181 203.52 233.181 206.98C233.181 210.44 235.521 212.68 238.681 212.68C241.381 212.68 243.121 211.14 243.741 209.22ZM251.48 212.5H253.76V202.98L258.02 212.5H259.6L263.84 202.98V212.5H266.12V198.6H263.68L258.82 209.5L253.94 198.6H251.48V212.5ZM268.357 206.94C268.357 210.34 270.657 212.68 273.517 212.68C275.357 212.68 276.677 211.8 277.377 210.86V212.5H279.677V201.48H277.377V203.08C276.697 202.18 275.417 201.3 273.557 201.3C270.657 201.3 268.357 203.54 268.357 206.94ZM277.377 206.98C277.377 209.36 275.757 210.7 274.037 210.7C272.337 210.7 270.697 209.32 270.697 206.94C270.697 204.56 272.337 203.28 274.037 203.28C275.757 203.28 277.377 204.62 277.377 206.98ZM290.492 212.5H292.752V206C292.752 202.92 290.812 201.3 288.232 201.3C286.912 201.3 285.692 201.84 284.952 202.74V201.48H282.672V212.5H284.952V206.34C284.952 204.32 286.052 203.28 287.732 203.28C289.392 203.28 290.492 204.32 290.492 206.34V212.5ZM294.9 206.94C294.9 210.34 297.2 212.68 300.06 212.68C301.9 212.68 303.22 211.8 303.92 210.86V212.5H306.22V201.48H303.92V203.08C303.24 202.18 301.96 201.3 300.1 201.3C297.2 201.3 294.9 203.54 294.9 206.94ZM303.92 206.98C303.92 209.36 302.3 210.7 300.58 210.7C298.88 210.7 297.24 209.32 297.24 206.94C297.24 204.56 298.88 203.28 300.58 203.28C302.3 203.28 303.92 204.62 303.92 206.98ZM308.455 206.94C308.455 210.34 310.755 212.68 313.655 212.68C315.455 212.68 316.775 211.78 317.475 210.84V212.68C317.475 214.88 316.155 215.96 314.395 215.96C312.815 215.96 311.595 215.18 311.255 214.04H308.995C309.275 216.48 311.455 217.94 314.395 217.94C317.835 217.94 319.775 215.68 319.775 212.68V201.48H317.475V203.08C316.795 202.14 315.455 201.3 313.655 201.3C310.755 201.3 308.455 203.54 308.455 206.94ZM317.475 206.98C317.475 209.36 315.855 210.7 314.135 210.7C312.435 210.7 310.795 209.32 310.795 206.94C310.795 204.56 312.435 203.28 314.135 203.28C315.855 203.28 317.475 204.62 317.475 206.98ZM327.41 203.22C329.11 203.22 330.45 204.3 330.49 206H324.39C324.63 204.26 325.87 203.22 327.41 203.22ZM332.57 209.22H330.11C329.69 210.08 328.91 210.76 327.51 210.76C325.83 210.76 324.53 209.66 324.37 207.84H332.79C332.85 207.46 332.87 207.1 332.87 206.72C332.87 203.48 330.65 201.3 327.51 201.3C324.25 201.3 322.01 203.52 322.01 206.98C322.01 210.44 324.35 212.68 327.51 212.68C330.21 212.68 331.95 211.14 332.57 209.22ZM350.733 212.5H352.993V206C352.993 202.92 351.033 201.3 348.453 201.3C346.853 201.3 345.293 202.14 344.613 203.48C343.853 202.04 342.393 201.3 340.653 201.3C339.333 201.3 338.133 201.84 337.393 202.74V201.48H335.113V212.5H337.393V206.34C337.393 204.32 338.493 203.28 340.173 203.28C341.833 203.28 342.933 204.32 342.933 206.34V212.5H345.193V206.34C345.193 204.32 346.293 203.28 347.973 203.28C349.633 203.28 350.733 204.32 350.733 206.34V212.5ZM360.535 203.22C362.235 203.22 363.575 204.3 363.615 206H357.515C357.755 204.26 358.995 203.22 360.535 203.22ZM365.695 209.22H363.235C362.815 210.08 362.035 210.76 360.635 210.76C358.955 210.76 357.655 209.66 357.495 207.84H365.915C365.975 207.46 365.995 207.1 365.995 206.72C365.995 203.48 363.775 201.3 360.635 201.3C357.375 201.3 355.135 203.52 355.135 206.98C355.135 210.44 357.475 212.68 360.635 212.68C363.335 212.68 365.075 211.14 365.695 209.22ZM376.058 212.5H378.318V206C378.318 202.92 376.378 201.3 373.798 201.3C372.478 201.3 371.258 201.84 370.518 202.74V201.48H368.238V212.5H370.518V206.34C370.518 204.32 371.618 203.28 373.298 203.28C374.958 203.28 376.058 204.32 376.058 206.34V212.5ZM381.587 209.44C381.587 211.68 382.807 212.5 384.767 212.5H386.567V210.6H385.167C384.207 210.6 383.887 210.26 383.887 209.44V203.34H386.567V201.48H383.887V198.74H381.587V201.48H380.287V203.34H381.587V209.44ZM403.243 208.56C403.243 203.48 395.883 205.44 395.883 202.3C395.883 200.96 396.903 200.32 398.223 200.36C399.663 200.4 400.483 201.26 400.563 202.2H403.083C402.883 199.82 401.003 198.42 398.343 198.42C395.503 198.42 393.563 199.94 393.563 202.38C393.563 207.5 400.943 205.32 400.943 208.68C400.943 209.86 400.043 210.72 398.443 210.72C396.863 210.72 396.063 209.8 395.963 208.66H393.523C393.523 211.12 395.663 212.64 398.443 212.64C401.543 212.64 403.243 210.64 403.243 208.56ZM410.274 209.88L407.174 201.48H404.634L408.974 212.32L406.734 217.68H409.094L415.854 201.48H413.494L410.274 209.88ZM425.794 209.42C425.674 205.44 419.454 206.68 419.454 204.46C419.454 203.72 420.094 203.22 421.314 203.22C422.554 203.22 423.294 203.88 423.374 204.84H425.654C425.534 202.64 423.894 201.3 421.394 201.3C418.794 201.3 417.154 202.72 417.154 204.48C417.154 208.52 423.554 207.28 423.554 209.44C423.554 210.2 422.854 210.76 421.534 210.76C420.274 210.76 419.414 210.02 419.334 209.12H416.974C417.074 211.12 418.934 212.68 421.574 212.68C424.174 212.68 425.794 211.28 425.794 209.42ZM428.618 209.44C428.618 211.68 429.838 212.5 431.798 212.5H433.598V210.6H432.198C431.238 210.6 430.918 210.26 430.918 209.44V203.34H433.598V201.48H430.918V198.74H428.618V201.48H427.318V203.34H428.618V209.44ZM440.339 203.22C442.039 203.22 443.379 204.3 443.419 206H437.319C437.559 204.26 438.799 203.22 440.339 203.22ZM445.499 209.22H443.039C442.619 210.08 441.839 210.76 440.439 210.76C438.759 210.76 437.459 209.66 437.299 207.84H445.719C445.779 207.46 445.799 207.1 445.799 206.72C445.799 203.48 443.579 201.3 440.439 201.3C437.179 201.3 434.939 203.52 434.939 206.98C434.939 210.44 437.279 212.68 440.439 212.68C443.139 212.68 444.879 211.14 445.499 209.22ZM463.663 212.5H465.923V206C465.923 202.92 463.963 201.3 461.383 201.3C459.783 201.3 458.223 202.14 457.543 203.48C456.783 202.04 455.323 201.3 453.583 201.3C452.263 201.3 451.063 201.84 450.323 202.74V201.48H448.043V212.5H450.323V206.34C450.323 204.32 451.423 203.28 453.103 203.28C454.763 203.28 455.863 204.32 455.863 206.34V212.5H458.123V206.34C458.123 204.32 459.223 203.28 460.903 203.28C462.563 203.28 463.663 204.32 463.663 206.34V212.5ZM476.224 216.22V216C473.424 213.12 472.004 209.18 472.004 205.22C472.004 201.26 473.424 196.98 476.624 194.04V193.82H474.264C471.224 196.52 469.804 200.86 469.804 205.22C469.804 209.58 471.224 213.68 473.864 216.22H476.224ZM486.048 202.76C486.048 204.14 485.248 205.12 483.468 205.12H480.948V200.46H483.468C485.248 200.46 486.048 201.36 486.048 202.76ZM478.668 198.6V212.5H480.948V206.94H482.688L485.888 212.5H488.608L485.168 206.74C487.508 206.16 488.388 204.4 488.388 202.76C488.388 200.5 486.768 198.6 483.468 198.6H478.668ZM495.845 198.6H491.305V212.5H495.845C500.305 212.5 503.225 209.88 503.225 205.6C503.225 201.3 500.305 198.6 495.845 198.6ZM493.585 210.64V200.46H495.845C499.125 200.46 500.885 202.42 500.885 205.6C500.885 208.76 499.125 210.64 495.845 210.64H493.585ZM513.324 208.52C513.324 209.86 512.384 210.64 510.844 210.64H507.764V206.3H510.764C512.284 206.3 513.324 207.14 513.324 208.52ZM512.964 202.46C512.964 203.74 512.064 204.44 510.584 204.44H507.764V200.46H510.584C512.064 200.46 512.964 201.2 512.964 202.46ZM515.604 208.76C515.604 207.1 514.404 205.62 512.924 205.36C514.264 204.88 515.284 203.86 515.284 202.18C515.284 200.22 513.724 198.6 510.784 198.6H505.484V212.5H511.044C513.884 212.5 515.604 210.88 515.604 208.76ZM518.082 212.5H520.362V202.98L524.622 212.5H526.202L530.442 202.98V212.5H532.722V198.6H530.282L525.422 209.5L520.542 198.6H518.082V212.5ZM545.099 208.56C545.099 203.48 537.739 205.44 537.739 202.3C537.739 200.96 538.759 200.32 540.079 200.36C541.519 200.4 542.339 201.26 542.419 202.2H544.939C544.739 199.82 542.859 198.42 540.199 198.42C537.359 198.42 535.419 199.94 535.419 202.38C535.419 207.5 542.799 205.32 542.799 208.68C542.799 209.86 541.899 210.72 540.299 210.72C538.719 210.72 537.919 209.8 537.819 208.66H535.379C535.379 211.12 537.519 212.64 540.299 212.64C543.399 212.64 545.099 210.64 545.099 208.56ZM547.229 216.22V216C550.029 213.12 551.449 209.18 551.449 205.22C551.449 201.26 550.029 196.98 546.829 194.04V193.82H549.189C552.229 196.52 553.649 200.86 553.649 205.22C553.649 209.58 552.229 213.68 549.589 216.22H547.229Z" fill="#212832"/>
<rect x="0.5" y="180.5" width="616" height="49" stroke="black" stroke-opacity="0.5"/>
<rect y="123" width="617" height="50" fill="white"/>
<path d="M24.6 151.44C26.08 151.44 27.24 150.3 27.24 148.84C27.24 147.36 26.08 146.22 24.6 146.22C23.16 146.22 22 147.36 22 148.84C22 150.3 23.16 151.44 24.6 151.44ZM43.4089 148V143.46H45.9289C47.7089 143.46 48.5089 144.3 48.5089 145.74C48.5089 147.14 47.7089 148 45.9289 148H43.4089ZM50.8489 145.74C50.8489 143.48 49.2289 141.6 45.9289 141.6H41.1289V155.5H43.4089V149.86H45.9289C49.5489 149.86 50.8489 147.72 50.8489 145.74ZM55.3034 149.7C55.3034 147.36 56.3434 146.66 58.0234 146.66H58.6034V144.3C57.0434 144.3 55.9434 144.98 55.3034 146.08V144.48H53.0234V155.5H55.3034V149.7ZM71.1992 149.98C71.1992 146.52 68.7192 144.3 65.5792 144.3C62.4392 144.3 59.9592 146.52 59.9592 149.98C59.9592 153.44 62.3392 155.68 65.4792 155.68C68.6392 155.68 71.1992 153.44 71.1992 149.98ZM62.2792 149.98C62.2792 147.48 63.8192 146.28 65.5392 146.28C67.2392 146.28 68.8592 147.48 68.8592 149.98C68.8592 152.48 67.1792 153.7 65.4792 153.7C63.7592 153.7 62.2792 152.48 62.2792 149.98ZM72.6931 149.94C72.6931 153.34 74.9931 155.68 77.8931 155.68C79.6931 155.68 81.0131 154.78 81.7131 153.84V155.68C81.7131 157.88 80.3931 158.96 78.6331 158.96C77.0531 158.96 75.8331 158.18 75.4931 157.04H73.2331C73.5131 159.48 75.6931 160.94 78.6331 160.94C82.0731 160.94 84.0131 158.68 84.0131 155.68V144.48H81.7131V146.08C81.0331 145.14 79.6931 144.3 77.8931 144.3C74.9931 144.3 72.6931 146.54 72.6931 149.94ZM81.7131 149.98C81.7131 152.36 80.0931 153.7 78.3731 153.7C76.6731 153.7 75.0331 152.32 75.0331 149.94C75.0331 147.56 76.6731 146.28 78.3731 146.28C80.0931 146.28 81.7131 147.62 81.7131 149.98ZM89.2878 149.7C89.2878 147.36 90.3278 146.66 92.0078 146.66H92.5878V144.3C91.0278 144.3 89.9278 144.98 89.2878 146.08V144.48H87.0078V155.5H89.2878V149.7ZM93.9236 149.94C93.9236 153.34 96.2236 155.68 99.0836 155.68C100.924 155.68 102.244 154.8 102.944 153.86V155.5H105.244V144.48H102.944V146.08C102.264 145.18 100.984 144.3 99.1236 144.3C96.2236 144.3 93.9236 146.54 93.9236 149.94ZM102.944 149.98C102.944 152.36 101.324 153.7 99.6036 153.7C97.9036 153.7 96.2636 152.32 96.2636 149.94C96.2636 147.56 97.9036 146.28 99.6036 146.28C101.324 146.28 102.944 147.62 102.944 149.98ZM123.858 155.5H126.118V149C126.118 145.92 124.158 144.3 121.578 144.3C119.978 144.3 118.418 145.14 117.738 146.48C116.978 145.04 115.518 144.3 113.778 144.3C112.458 144.3 111.258 144.84 110.518 145.74V144.48H108.238V155.5H110.518V149.34C110.518 147.32 111.618 146.28 113.298 146.28C114.958 146.28 116.058 147.32 116.058 149.34V155.5H118.318V149.34C118.318 147.32 119.418 146.28 121.098 146.28C122.758 146.28 123.858 147.32 123.858 149.34V155.5ZM144.64 155.5H146.9V149C146.9 145.92 144.94 144.3 142.36 144.3C140.76 144.3 139.2 145.14 138.52 146.48C137.76 145.04 136.3 144.3 134.56 144.3C133.24 144.3 132.04 144.84 131.3 145.74V144.48H129.02V155.5H131.3V149.34C131.3 147.32 132.4 146.28 134.08 146.28C135.74 146.28 136.84 147.32 136.84 149.34V155.5H139.1V149.34C139.1 147.32 140.2 146.28 141.88 146.28C143.54 146.28 144.64 147.32 144.64 149.34V155.5ZM149.801 155.5H152.081V144.48H149.801V155.5ZM150.961 143.02C151.761 143.02 152.401 142.38 152.401 141.56C152.401 140.74 151.761 140.1 150.961 140.1C150.141 140.1 149.501 140.74 149.501 141.56C149.501 142.38 150.141 143.02 150.961 143.02ZM162.894 155.5H165.154V149C165.154 145.92 163.214 144.3 160.634 144.3C159.314 144.3 158.094 144.84 157.354 145.74V144.48H155.074V155.5H157.354V149.34C157.354 147.32 158.454 146.28 160.134 146.28C161.794 146.28 162.894 147.32 162.894 149.34V155.5ZM167.303 149.94C167.303 153.34 169.603 155.68 172.503 155.68C174.303 155.68 175.623 154.78 176.323 153.84V155.68C176.323 157.88 175.003 158.96 173.243 158.96C171.663 158.96 170.443 158.18 170.103 157.04H167.843C168.123 159.48 170.303 160.94 173.243 160.94C176.683 160.94 178.623 158.68 178.623 155.68V144.48H176.323V146.08C175.643 145.14 174.303 144.3 172.503 144.3C169.603 144.3 167.303 146.54 167.303 149.94ZM176.323 149.98C176.323 152.36 174.703 153.7 172.983 153.7C171.283 153.7 169.643 152.32 169.643 149.94C169.643 147.56 171.283 146.28 172.983 146.28C174.703 146.28 176.323 147.62 176.323 149.98ZM189.093 148V143.46H191.613C193.393 143.46 194.193 144.3 194.193 145.74C194.193 147.14 193.393 148 191.613 148H189.093ZM196.533 145.74C196.533 143.48 194.913 141.6 191.613 141.6H186.813V155.5H189.093V149.86H191.613C195.233 149.86 196.533 147.72 196.533 145.74ZM200.987 149.7C200.987 147.36 202.027 146.66 203.707 146.66H204.287V144.3C202.727 144.3 201.627 144.98 200.987 146.08V144.48H198.707V155.5H200.987V149.7ZM206.383 155.5H208.663V144.48H206.383V155.5ZM207.543 143.02C208.343 143.02 208.983 142.38 208.983 141.56C208.983 140.74 208.343 140.1 207.543 140.1C206.723 140.1 206.083 140.74 206.083 141.56C206.083 142.38 206.723 143.02 207.543 143.02ZM219.476 155.5H221.736V149C221.736 145.92 219.796 144.3 217.216 144.3C215.896 144.3 214.676 144.84 213.936 145.74V144.48H211.656V155.5H213.936V149.34C213.936 147.32 215.036 146.28 216.716 146.28C218.376 146.28 219.476 147.32 219.476 149.34V155.5ZM223.885 149.98C223.885 153.44 226.125 155.68 229.285 155.68C231.985 155.68 233.745 154.18 234.365 152.02H231.905C231.485 153.16 230.645 153.76 229.285 153.76C227.445 153.76 226.225 152.4 226.225 149.98C226.225 147.58 227.445 146.22 229.285 146.22C230.645 146.22 231.525 146.9 231.905 147.96H234.365C233.745 145.64 231.985 144.3 229.285 144.3C226.125 144.3 223.885 146.54 223.885 149.98ZM236.637 155.5H238.917V144.48H236.637V155.5ZM237.797 143.02C238.597 143.02 239.237 142.38 239.237 141.56C239.237 140.74 238.597 140.1 237.797 140.1C236.977 140.1 236.337 140.74 236.337 141.56C236.337 142.38 236.977 143.02 237.797 143.02ZM244.19 146.1V144.48H241.91V160.74H244.19V153.9C244.91 154.76 246.21 155.68 248.03 155.68C250.93 155.68 253.21 153.34 253.21 149.94C253.21 146.54 250.93 144.3 248.03 144.3C246.23 144.3 244.89 145.18 244.19 146.1ZM250.89 149.94C250.89 152.32 249.25 153.7 247.53 153.7C245.83 153.7 244.19 152.36 244.19 149.98C244.19 147.62 245.83 146.28 247.53 146.28C249.25 146.28 250.89 147.56 250.89 149.94ZM255.465 155.5H257.745V140.7H255.465V155.5ZM265.378 146.22C267.078 146.22 268.418 147.3 268.458 149H262.358C262.598 147.26 263.838 146.22 265.378 146.22ZM270.538 152.22H268.078C267.658 153.08 266.878 153.76 265.478 153.76C263.798 153.76 262.498 152.66 262.338 150.84H270.758C270.818 150.46 270.838 150.1 270.838 149.72C270.838 146.48 268.618 144.3 265.478 144.3C262.218 144.3 259.978 146.52 259.978 149.98C259.978 153.44 262.318 155.68 265.478 155.68C268.178 155.68 269.918 154.14 270.538 152.22ZM277.517 149.94C277.517 153.34 279.817 155.68 282.677 155.68C284.517 155.68 285.837 154.8 286.537 153.86V155.5H288.837V144.48H286.537V146.08C285.857 145.18 284.577 144.3 282.717 144.3C279.817 144.3 277.517 146.54 277.517 149.94ZM286.537 149.98C286.537 152.36 284.917 153.7 283.197 153.7C281.497 153.7 279.857 152.32 279.857 149.94C279.857 147.56 281.497 146.28 283.197 146.28C284.917 146.28 286.537 147.62 286.537 149.98ZM299.652 155.5H301.912V149C301.912 145.92 299.972 144.3 297.392 144.3C296.072 144.3 294.852 144.84 294.112 145.74V144.48H291.832V155.5H294.112V149.34C294.112 147.32 295.212 146.28 296.892 146.28C298.552 146.28 299.652 147.32 299.652 149.34V155.5ZM304.06 149.94C304.06 153.34 306.36 155.68 309.26 155.68C311.06 155.68 312.38 154.84 313.08 153.84V155.5H315.38V140.7H313.08V146.02C312.24 144.98 310.72 144.3 309.28 144.3C306.36 144.3 304.06 146.54 304.06 149.94ZM313.08 149.98C313.08 152.36 311.46 153.7 309.74 153.7C308.04 153.7 306.4 152.32 306.4 149.94C306.4 147.56 308.04 146.28 309.74 146.28C311.46 146.28 313.08 147.62 313.08 149.98ZM332.95 155.5H335.35L330.37 141.58H327.73L322.75 155.5H325.13L326.13 152.66H331.95L332.95 155.5ZM331.31 150.8H326.77L329.05 144.34L331.31 150.8ZM337.516 155.5H339.796V140.7H337.516V155.5ZM342.029 149.94C342.029 153.34 344.329 155.68 347.229 155.68C349.029 155.68 350.349 154.78 351.049 153.84V155.68C351.049 157.88 349.729 158.96 347.969 158.96C346.389 158.96 345.169 158.18 344.829 157.04H342.569C342.849 159.48 345.029 160.94 347.969 160.94C351.409 160.94 353.349 158.68 353.349 155.68V144.48H351.049V146.08C350.369 145.14 349.029 144.3 347.229 144.3C344.329 144.3 342.029 146.54 342.029 149.94ZM351.049 149.98C351.049 152.36 349.429 153.7 347.709 153.7C346.009 153.7 344.369 152.32 344.369 149.94C344.369 147.56 346.009 146.28 347.709 146.28C349.429 146.28 351.049 147.62 351.049 149.98ZM366.844 149.98C366.844 146.52 364.364 144.3 361.224 144.3C358.084 144.3 355.604 146.52 355.604 149.98C355.604 153.44 357.984 155.68 361.124 155.68C364.284 155.68 366.844 153.44 366.844 149.98ZM357.924 149.98C357.924 147.48 359.464 146.28 361.184 146.28C362.884 146.28 364.504 147.48 364.504 149.98C364.504 152.48 362.824 153.7 361.124 153.7C359.404 153.7 357.924 152.48 357.924 149.98ZM371.378 149.7C371.378 147.36 372.418 146.66 374.098 146.66H374.678V144.3C373.118 144.3 372.018 144.98 371.378 146.08V144.48H369.098V155.5H371.378V149.7ZM376.773 155.5H379.053V144.48H376.773V155.5ZM377.933 143.02C378.733 143.02 379.373 142.38 379.373 141.56C379.373 140.74 378.733 140.1 377.933 140.1C377.113 140.1 376.473 140.74 376.473 141.56C376.473 142.38 377.113 143.02 377.933 143.02ZM382.407 152.44C382.407 154.68 383.627 155.5 385.587 155.5H387.387V153.6H385.987C385.027 153.6 384.707 153.26 384.707 152.44V146.34H387.387V144.48H384.707V141.74H382.407V144.48H381.107V146.34H382.407V152.44ZM389.488 155.5H391.768V149.34C391.768 147.32 392.868 146.28 394.548 146.28C396.208 146.28 397.308 147.32 397.308 149.34V155.5H399.568V149C399.568 145.92 397.648 144.3 395.188 144.3C393.768 144.3 392.528 144.84 391.768 145.76V140.7H389.488V155.5ZM418.097 155.5H420.357V149C420.357 145.92 418.397 144.3 415.817 144.3C414.217 144.3 412.657 145.14 411.977 146.48C411.217 145.04 409.757 144.3 408.017 144.3C406.697 144.3 405.497 144.84 404.757 145.74V144.48H402.477V155.5H404.757V149.34C404.757 147.32 405.857 146.28 407.537 146.28C409.197 146.28 410.297 147.32 410.297 149.34V155.5H412.557V149.34C412.557 147.32 413.657 146.28 415.337 146.28C416.997 146.28 418.097 147.32 418.097 149.34V155.5Z" fill="#212832"/>
<rect x="0.5" y="123.5" width="616" height="49" stroke="black" stroke-opacity="0.5"/>
<rect y="237" width="617" height="50" fill="white"/>
<path d="M24.6 262.94C26.08 262.94 27.24 261.8 27.24 260.34C27.24 258.86 26.08 257.72 24.6 257.72C23.16 257.72 22 258.86 22 260.34C22 261.8 23.16 262.94 24.6 262.94ZM50.5089 263.06C50.5089 257.98 43.1489 259.94 43.1489 256.8C43.1489 255.46 44.1689 254.82 45.4889 254.86C46.9289 254.9 47.7489 255.76 47.8289 256.7H50.3489C50.1489 254.32 48.2689 252.92 45.6089 252.92C42.7689 252.92 40.8289 254.44 40.8289 256.88C40.8289 262 48.2089 259.82 48.2089 263.18C48.2089 264.36 47.3089 265.22 45.7089 265.22C44.1289 265.22 43.3289 264.3 43.2289 263.16H40.7889C40.7889 265.62 42.9289 267.14 45.7089 267.14C48.8089 267.14 50.5089 265.14 50.5089 263.06ZM57.5392 264.38L54.4392 255.98H51.8992L56.2392 266.82L53.9992 272.18H56.3592L63.1192 255.98H60.7592L57.5392 264.38ZM73.0598 263.92C72.9398 259.94 66.7198 261.18 66.7198 258.96C66.7198 258.22 67.3598 257.72 68.5798 257.72C69.8198 257.72 70.5598 258.38 70.6398 259.34H72.9198C72.7998 257.14 71.1598 255.8 68.6598 255.8C66.0598 255.8 64.4198 257.22 64.4198 258.98C64.4198 263.02 70.8198 261.78 70.8198 263.94C70.8198 264.7 70.1198 265.26 68.7998 265.26C67.5398 265.26 66.6798 264.52 66.5998 263.62H64.2398C64.3398 265.62 66.1998 267.18 68.8398 267.18C71.4398 267.18 73.0598 265.78 73.0598 263.92ZM75.8834 263.94C75.8834 266.18 77.1034 267 79.0634 267H80.8634V265.1H79.4634C78.5034 265.1 78.1834 264.76 78.1834 263.94V257.84H80.8634V255.98H78.1834V253.24H75.8834V255.98H74.5834V257.84H75.8834V263.94ZM87.6048 257.72C89.3048 257.72 90.6448 258.8 90.6848 260.5H84.5848C84.8248 258.76 86.0648 257.72 87.6048 257.72ZM92.7648 263.72H90.3048C89.8848 264.58 89.1048 265.26 87.7048 265.26C86.0248 265.26 84.7248 264.16 84.5648 262.34H92.9848C93.0448 261.96 93.0648 261.6 93.0648 261.22C93.0648 257.98 90.8448 255.8 87.7048 255.8C84.4448 255.8 82.2048 258.02 82.2048 261.48C82.2048 264.94 84.5448 267.18 87.7048 267.18C90.4048 267.18 92.1448 265.64 92.7648 263.72ZM110.929 267H113.189V260.5C113.189 257.42 111.229 255.8 108.649 255.8C107.049 255.8 105.489 256.64 104.809 257.98C104.049 256.54 102.589 255.8 100.849 255.8C99.5286 255.8 98.3286 256.34 97.5886 257.24V255.98H95.3086V267H97.5886V260.84C97.5886 258.82 98.6886 257.78 100.369 257.78C102.029 257.78 103.129 258.82 103.129 260.84V267H105.389V260.84C105.389 258.82 106.489 257.78 108.169 257.78C109.829 257.78 110.929 258.82 110.929 260.84V267ZM123.565 259.5V254.96H126.085C127.865 254.96 128.665 255.8 128.665 257.24C128.665 258.64 127.865 259.5 126.085 259.5H123.565ZM131.005 257.24C131.005 254.98 129.385 253.1 126.085 253.1H121.285V267H123.565V261.36H126.085C129.705 261.36 131.005 259.22 131.005 257.24ZM135.46 261.2C135.46 258.86 136.5 258.16 138.18 258.16H138.76V255.8C137.2 255.8 136.1 256.48 135.46 257.58V255.98H133.18V267H135.46V261.2ZM151.355 261.48C151.355 258.02 148.875 255.8 145.735 255.8C142.595 255.8 140.115 258.02 140.115 261.48C140.115 264.94 142.495 267.18 145.635 267.18C148.795 267.18 151.355 264.94 151.355 261.48ZM142.435 261.48C142.435 258.98 143.975 257.78 145.695 257.78C147.395 257.78 149.015 258.98 149.015 261.48C149.015 263.98 147.335 265.2 145.635 265.2C143.915 265.2 142.435 263.98 142.435 261.48ZM152.849 261.44C152.849 264.84 155.149 267.18 158.049 267.18C159.849 267.18 161.169 266.28 161.869 265.34V267.18C161.869 269.38 160.549 270.46 158.789 270.46C157.209 270.46 155.989 269.68 155.649 268.54H153.389C153.669 270.98 155.849 272.44 158.789 272.44C162.229 272.44 164.169 270.18 164.169 267.18V255.98H161.869V257.58C161.189 256.64 159.849 255.8 158.049 255.8C155.149 255.8 152.849 258.04 152.849 261.44ZM161.869 261.48C161.869 263.86 160.249 265.2 158.529 265.2C156.829 265.2 155.189 263.82 155.189 261.44C155.189 259.06 156.829 257.78 158.529 257.78C160.249 257.78 161.869 259.12 161.869 261.48ZM169.444 261.2C169.444 258.86 170.484 258.16 172.164 258.16H172.744V255.8C171.184 255.8 170.084 256.48 169.444 257.58V255.98H167.164V267H169.444V261.2ZM174.08 261.44C174.08 264.84 176.38 267.18 179.24 267.18C181.08 267.18 182.4 266.3 183.1 265.36V267H185.4V255.98H183.1V257.58C182.42 256.68 181.14 255.8 179.28 255.8C176.38 255.8 174.08 258.04 174.08 261.44ZM183.1 261.48C183.1 263.86 181.48 265.2 179.76 265.2C178.06 265.2 176.42 263.82 176.42 261.44C176.42 259.06 178.06 257.78 179.76 257.78C181.48 257.78 183.1 259.12 183.1 261.48ZM204.015 267H206.275V260.5C206.275 257.42 204.315 255.8 201.735 255.8C200.135 255.8 198.575 256.64 197.895 257.98C197.135 256.54 195.675 255.8 193.935 255.8C192.615 255.8 191.415 256.34 190.675 257.24V255.98H188.395V267H190.675V260.84C190.675 258.82 191.775 257.78 193.455 257.78C195.115 257.78 196.215 258.82 196.215 260.84V267H198.475V260.84C198.475 258.82 199.575 257.78 201.255 257.78C202.915 257.78 204.015 258.82 204.015 260.84V267ZM224.796 267H227.056V260.5C227.056 257.42 225.096 255.8 222.516 255.8C220.916 255.8 219.356 256.64 218.676 257.98C217.916 256.54 216.456 255.8 214.716 255.8C213.396 255.8 212.196 256.34 211.456 257.24V255.98H209.176V267H211.456V260.84C211.456 258.82 212.556 257.78 214.236 257.78C215.896 257.78 216.996 258.82 216.996 260.84V267H219.256V260.84C219.256 258.82 220.356 257.78 222.036 257.78C223.696 257.78 224.796 258.82 224.796 260.84V267ZM229.957 267H232.237V255.98H229.957V267ZM231.117 254.52C231.917 254.52 232.557 253.88 232.557 253.06C232.557 252.24 231.917 251.6 231.117 251.6C230.297 251.6 229.657 252.24 229.657 253.06C229.657 253.88 230.297 254.52 231.117 254.52ZM243.05 267H245.31V260.5C245.31 257.42 243.37 255.8 240.79 255.8C239.47 255.8 238.25 256.34 237.51 257.24V255.98H235.23V267H237.51V260.84C237.51 258.82 238.61 257.78 240.29 257.78C241.95 257.78 243.05 258.82 243.05 260.84V267ZM247.459 261.44C247.459 264.84 249.759 267.18 252.659 267.18C254.459 267.18 255.779 266.28 256.479 265.34V267.18C256.479 269.38 255.159 270.46 253.399 270.46C251.819 270.46 250.599 269.68 250.259 268.54H247.999C248.279 270.98 250.459 272.44 253.399 272.44C256.839 272.44 258.779 270.18 258.779 267.18V255.98H256.479V257.58C255.799 256.64 254.459 255.8 252.659 255.8C249.759 255.8 247.459 258.04 247.459 261.44ZM256.479 261.48C256.479 263.86 254.859 265.2 253.139 265.2C251.439 265.2 249.799 263.82 249.799 261.44C249.799 259.06 251.439 257.78 253.139 257.78C254.859 257.78 256.479 259.12 256.479 261.48ZM275.809 256.2C275.949 254.3 274.649 252.78 272.229 252.78C269.849 252.78 268.369 254.16 268.369 255.98C268.369 256.96 268.649 257.7 269.429 258.64C267.229 259.54 266.169 261.12 266.169 263C266.169 265.6 268.169 267.26 271.169 267.26C273.109 267.26 274.649 266.62 275.989 265.28L277.709 267H280.689L277.309 263.64C277.469 263.38 277.649 263.1 277.809 262.82L279.609 259.74H277.149L275.729 262.08L272.049 258.42C271.069 257.36 270.649 256.74 270.649 255.98C270.649 255.24 271.229 254.64 272.129 254.64C272.989 254.64 273.569 255.18 273.529 256.2H275.809ZM271.169 265.32C269.529 265.32 268.449 264.26 268.449 262.92C268.449 261.68 269.189 260.72 270.809 260.08L274.489 263.78C273.529 264.8 272.469 265.32 271.169 265.32ZM287.379 267H289.659V253.1H287.379V267ZM300.472 267H302.732V260.5C302.732 257.42 300.792 255.8 298.212 255.8C296.892 255.8 295.672 256.34 294.932 257.24V255.98H292.652V267H294.932V260.84C294.932 258.82 296.032 257.78 297.712 257.78C299.372 257.78 300.472 258.82 300.472 260.84V267ZM306.001 263.94C306.001 266.18 307.221 267 309.181 267H310.981V265.1H309.581C308.621 265.1 308.301 264.76 308.301 263.94V257.84H310.981V255.98H308.301V253.24H306.001V255.98H304.701V257.84H306.001V263.94ZM315.362 261.2C315.362 258.86 316.402 258.16 318.082 258.16H318.662V255.8C317.102 255.8 316.002 256.48 315.362 257.58V255.98H313.082V267H315.362V261.2ZM331.258 261.48C331.258 258.02 328.778 255.8 325.638 255.8C322.498 255.8 320.018 258.02 320.018 261.48C320.018 264.94 322.398 267.18 325.538 267.18C328.698 267.18 331.258 264.94 331.258 261.48ZM322.338 261.48C322.338 258.98 323.878 257.78 325.598 257.78C327.298 257.78 328.918 258.98 328.918 261.48C328.918 263.98 327.238 265.2 325.538 265.2C323.818 265.2 322.338 263.98 322.338 261.48ZM332.752 261.44C332.752 264.84 335.052 267.18 337.952 267.18C339.752 267.18 341.072 266.34 341.772 265.34V267H344.072V252.2H341.772V257.52C340.932 256.48 339.412 255.8 337.972 255.8C335.052 255.8 332.752 258.04 332.752 261.44ZM341.772 261.48C341.772 263.86 340.152 265.2 338.432 265.2C336.732 265.2 335.092 263.82 335.092 261.44C335.092 259.06 336.732 257.78 338.432 257.78C340.152 257.78 341.772 259.12 341.772 261.48ZM357.046 255.98H354.766V262.12C354.766 264.14 353.666 265.18 351.986 265.18C350.326 265.18 349.226 264.14 349.226 262.12V255.98H346.966V262.46C346.966 265.54 348.926 267.16 351.506 267.16C352.806 267.16 354.046 266.62 354.766 265.68V267H357.046V255.98ZM359.295 261.48C359.295 264.94 361.535 267.18 364.695 267.18C367.395 267.18 369.155 265.68 369.775 263.52H367.315C366.895 264.66 366.055 265.26 364.695 265.26C362.855 265.26 361.635 263.9 361.635 261.48C361.635 259.08 362.855 257.72 364.695 257.72C366.055 257.72 366.935 258.4 367.315 259.46H369.775C369.155 257.14 367.395 255.8 364.695 255.8C361.535 255.8 359.295 258.04 359.295 261.48ZM372.407 263.94C372.407 266.18 373.627 267 375.587 267H377.387V265.1H375.987C375.027 265.1 374.707 264.76 374.707 263.94V257.84H377.387V255.98H374.707V253.24H372.407V255.98H371.107V257.84H372.407V263.94ZM379.488 267H381.768V255.98H379.488V267ZM380.648 254.52C381.448 254.52 382.088 253.88 382.088 253.06C382.088 252.24 381.448 251.6 380.648 251.6C379.828 251.6 379.188 252.24 379.188 253.06C379.188 253.88 379.828 254.52 380.648 254.52ZM395.262 261.48C395.262 258.02 392.782 255.8 389.642 255.8C386.502 255.8 384.022 258.02 384.022 261.48C384.022 264.94 386.402 267.18 389.542 267.18C392.702 267.18 395.262 264.94 395.262 261.48ZM386.342 261.48C386.342 258.98 387.882 257.78 389.602 257.78C391.302 257.78 392.922 258.98 392.922 261.48C392.922 263.98 391.242 265.2 389.542 265.2C387.822 265.2 386.342 263.98 386.342 261.48ZM405.336 267H407.596V260.5C407.596 257.42 405.656 255.8 403.076 255.8C401.756 255.8 400.536 256.34 399.796 257.24V255.98H397.516V267H399.796V260.84C399.796 258.82 400.896 257.78 402.576 257.78C404.236 257.78 405.336 258.82 405.336 260.84V267ZM416.059 263.94C416.059 266.18 417.279 267 419.239 267H421.039V265.1H419.639C418.679 265.1 418.359 264.76 418.359 263.94V257.84H421.039V255.98H418.359V253.24H416.059V255.98H414.759V257.84H416.059V263.94ZM433.641 261.48C433.641 258.02 431.161 255.8 428.021 255.8C424.881 255.8 422.401 258.02 422.401 261.48C422.401 264.94 424.781 267.18 427.921 267.18C431.081 267.18 433.641 264.94 433.641 261.48ZM424.721 261.48C424.721 258.98 426.261 257.78 427.981 257.78C429.681 257.78 431.301 258.98 431.301 261.48C431.301 263.98 429.621 265.2 427.921 265.2C426.201 265.2 424.721 263.98 424.721 261.48ZM441.09 267H443.37V257.48L447.63 267H449.21L453.45 257.48V267H455.73V253.1H453.29L448.43 264L443.55 253.1H441.09V267ZM458.727 267H461.007V255.98H458.727V267ZM459.887 254.52C460.687 254.52 461.327 253.88 461.327 253.06C461.327 252.24 460.687 251.6 459.887 251.6C459.067 251.6 458.427 252.24 458.427 253.06C458.427 253.88 459.067 254.52 459.887 254.52ZM463.24 261.48C463.24 264.94 465.48 267.18 468.64 267.18C471.34 267.18 473.1 265.68 473.72 263.52H471.26C470.84 264.66 470 265.26 468.64 265.26C466.8 265.26 465.58 263.9 465.58 261.48C465.58 259.08 466.8 257.72 468.64 257.72C470 257.72 470.88 258.4 471.26 259.46H473.72C473.1 257.14 471.34 255.8 468.64 255.8C465.48 255.8 463.24 258.04 463.24 261.48ZM478.272 261.2C478.272 258.86 479.312 258.16 480.992 258.16H481.572V255.8C480.012 255.8 478.912 256.48 478.272 257.58V255.98H475.992V267H478.272V261.2ZM494.168 261.48C494.168 258.02 491.688 255.8 488.548 255.8C485.408 255.8 482.928 258.02 482.928 261.48C482.928 264.94 485.308 267.18 488.448 267.18C491.608 267.18 494.168 264.94 494.168 261.48ZM485.248 261.48C485.248 258.98 486.788 257.78 488.508 257.78C490.208 257.78 491.828 258.98 491.828 261.48C491.828 263.98 490.148 265.2 488.448 265.2C486.728 265.2 485.248 263.98 485.248 261.48ZM498.702 257.6V255.98H496.422V272.24H498.702V265.4C499.422 266.26 500.722 267.18 502.542 267.18C505.442 267.18 507.722 264.84 507.722 261.44C507.722 258.04 505.442 255.8 502.542 255.8C500.742 255.8 499.402 256.68 498.702 257.6ZM505.402 261.44C505.402 263.82 503.762 265.2 502.042 265.2C500.342 265.2 498.702 263.86 498.702 261.48C498.702 259.12 500.342 257.78 502.042 257.78C503.762 257.78 505.402 259.06 505.402 261.44ZM512.257 261.2C512.257 258.86 513.297 258.16 514.977 258.16H515.557V255.8C513.997 255.8 512.897 256.48 512.257 257.58V255.98H509.977V267H512.257V261.2ZM528.152 261.48C528.152 258.02 525.672 255.8 522.532 255.8C519.392 255.8 516.912 258.02 516.912 261.48C516.912 264.94 519.292 267.18 522.432 267.18C525.592 267.18 528.152 264.94 528.152 261.48ZM519.232 261.48C519.232 258.98 520.772 257.78 522.492 257.78C524.192 257.78 525.812 258.98 525.812 261.48C525.812 263.98 524.132 265.2 522.432 265.2C520.712 265.2 519.232 263.98 519.232 261.48ZM529.646 261.48C529.646 264.94 531.886 267.18 535.046 267.18C537.746 267.18 539.506 265.68 540.126 263.52H537.666C537.246 264.66 536.406 265.26 535.046 265.26C533.206 265.26 531.986 263.9 531.986 261.48C531.986 259.08 533.206 257.72 535.046 257.72C536.406 257.72 537.286 258.4 537.666 259.46H540.126C539.506 257.14 537.746 255.8 535.046 255.8C531.886 255.8 529.646 258.04 529.646 261.48ZM547.038 257.72C548.738 257.72 550.078 258.8 550.118 260.5H544.018C544.258 258.76 545.498 257.72 547.038 257.72ZM552.198 263.72H549.738C549.318 264.58 548.538 265.26 547.138 265.26C545.458 265.26 544.158 264.16 543.998 262.34H552.418C552.478 261.96 552.498 261.6 552.498 261.22C552.498 257.98 550.278 255.8 547.138 255.8C543.878 255.8 541.638 258.02 541.638 261.48C541.638 264.94 543.978 267.18 547.138 267.18C549.838 267.18 551.578 265.64 552.198 263.72ZM562.962 263.92C562.842 259.94 556.622 261.18 556.622 258.96C556.622 258.22 557.262 257.72 558.482 257.72C559.722 257.72 560.462 258.38 560.542 259.34H562.822C562.702 257.14 561.062 255.8 558.562 255.8C555.962 255.8 554.322 257.22 554.322 258.98C554.322 263.02 560.722 261.78 560.722 263.94C560.722 264.7 560.022 265.26 558.702 265.26C557.442 265.26 556.582 264.52 556.502 263.62H554.142C554.242 265.62 556.102 267.18 558.742 267.18C561.342 267.18 562.962 265.78 562.962 263.92ZM573.646 263.92C573.526 259.94 567.306 261.18 567.306 258.96C567.306 258.22 567.946 257.72 569.166 257.72C570.406 257.72 571.146 258.38 571.226 259.34H573.506C573.386 257.14 571.746 255.8 569.246 255.8C566.646 255.8 565.006 257.22 565.006 258.98C565.006 263.02 571.406 261.78 571.406 263.94C571.406 264.7 570.706 265.26 569.386 265.26C568.126 265.26 567.266 264.52 567.186 263.62H564.826C564.926 265.62 566.786 267.18 569.426 267.18C572.026 267.18 573.646 265.78 573.646 263.92ZM586.609 261.48C586.609 258.02 584.129 255.8 580.989 255.8C577.849 255.8 575.369 258.02 575.369 261.48C575.369 264.94 577.749 267.18 580.889 267.18C584.049 267.18 586.609 264.94 586.609 261.48ZM577.689 261.48C577.689 258.98 579.229 257.78 580.949 257.78C582.649 257.78 584.269 258.98 584.269 261.48C584.269 263.98 582.589 265.2 580.889 265.2C579.169 265.2 577.689 263.98 577.689 261.48ZM591.143 261.2C591.143 258.86 592.183 258.16 593.863 258.16H594.443V255.8C592.883 255.8 591.783 256.48 591.143 257.58V255.98H588.863V267H591.143V261.2Z" fill="#212832"/>
<rect x="0.5" y="237.5" width="616" height="49" stroke="black" stroke-opacity="0.5"/>
</svg>
