<svg width="617" height="287" viewBox="0 0 617 287" fill="none" xmlns="http://www.w3.org/2000/svg">
<rect width="617" height="58" fill="#3498DB"/>
<path d="M33.925 32.95C33.925 26.8 24.975 28.75 24.975 25.25C24.975 23.825 26 23.15 27.375 23.2C28.875 23.225 29.8 24.125 29.875 25.275H33.725C33.5 22.125 31.05 20.3 27.475 20.3C23.875 20.3 21.325 22.2 21.325 25.35C21.3 31.675 30.3 29.4 30.3 33.175C30.3 34.425 29.325 35.3 27.675 35.3C26.05 35.3 25.125 34.375 25.025 32.975H21.275C21.325 36.275 24.125 38.175 27.75 38.175C31.725 38.175 33.925 35.7 33.925 32.95ZM43.4094 26.8C45.2094 26.8 46.6594 27.95 46.7094 29.775H40.1344C40.4094 27.875 41.7344 26.8 43.4094 26.8ZM49.9844 33.65H46.2094C45.7594 34.575 44.9344 35.325 43.4344 35.325C41.6844 35.325 40.2844 34.175 40.1094 32.125H50.2344C50.3094 31.675 50.3344 31.225 50.3344 30.775C50.3344 26.65 47.5094 23.925 43.5094 23.925C39.4094 23.925 36.5594 26.7 36.5594 31.075C36.5594 35.425 39.4844 38.225 43.5094 38.225C46.9344 38.225 49.2344 36.2 49.9844 33.65ZM72.7641 38H76.2641V29.875C76.2641 26.05 73.9141 23.95 70.5891 23.95C68.5641 23.95 66.7391 25.025 65.8391 26.6C64.8891 24.875 63.1141 23.95 60.9641 23.95C59.2391 23.95 57.7641 24.675 56.8891 25.825V24.15H53.3891V38H56.8891V30.35C56.8891 28.15 58.1141 27 60.0141 27C61.8641 27 63.0891 28.15 63.0891 30.35V38H66.5891V30.35C66.5891 28.15 67.8141 27 69.6891 27C71.5391 27 72.7641 28.15 72.7641 30.35V38ZM86.0354 26.8C87.8354 26.8 89.2854 27.95 89.3354 29.775H82.7604C83.0354 27.875 84.3604 26.8 86.0354 26.8ZM92.6104 33.65H88.8354C88.3854 34.575 87.5604 35.325 86.0604 35.325C84.3104 35.325 82.9104 34.175 82.7354 32.125H92.8604C92.9354 31.675 92.9604 31.225 92.9604 30.775C92.9604 26.65 90.1354 23.925 86.1354 23.925C82.0354 23.925 79.1854 26.7 79.1854 31.075C79.1854 35.425 82.1104 38.225 86.1354 38.225C89.5604 38.225 91.8604 36.2 92.6104 33.65ZM106.765 34.05C106.665 28.975 98.99 30.55 98.99 28.025C98.99 27.225 99.665 26.7 100.965 26.7C102.34 26.7 103.19 27.425 103.29 28.5H106.64C106.44 25.75 104.415 23.925 101.065 23.925C97.64 23.925 95.59 25.775 95.59 28.075C95.59 33.15 103.415 31.575 103.415 34.05C103.415 34.85 102.665 35.475 101.29 35.475C99.89 35.475 98.915 34.675 98.79 33.625H95.265C95.415 36.2 97.84 38.225 101.315 38.225C104.69 38.225 106.765 36.425 106.765 34.05ZM110.688 33.7C110.688 36.875 112.463 38 115.113 38H117.313V35.05H115.688C114.588 35.05 114.213 34.65 114.213 33.725V27.025H117.313V24.15H114.213V20.725H110.688V24.15H109.038V27.025H110.688V33.7ZM126.28 26.8C128.08 26.8 129.53 27.95 129.58 29.775H123.005C123.28 27.875 124.605 26.8 126.28 26.8ZM132.855 33.65H129.08C128.63 34.575 127.805 35.325 126.305 35.325C124.555 35.325 123.155 34.175 122.98 32.125H133.105C133.18 31.675 133.205 31.225 133.205 30.775C133.205 26.65 130.38 23.925 126.38 23.925C122.28 23.925 119.43 26.7 119.43 31.075C119.43 35.425 122.355 38.225 126.38 38.225C129.805 38.225 132.105 36.2 132.855 33.65ZM139.76 31.1C139.76 28.425 141.01 27.625 143.085 27.625H144.01V23.95C142.085 23.95 140.635 24.875 139.76 26.3V24.15H136.26V38H139.76V31.1ZM154.925 38H158.525V19.775H152.5V23H154.925V38Z" fill="white"/>
<rect y="66" width="617" height="50" fill="white"/>
<path d="M24.6 94.44C26.08 94.44 27.24 93.3 27.24 91.84C27.24 90.36 26.08 89.22 24.6 89.22C23.16 89.22 22 90.36 22 91.84C22 93.3 23.16 94.44 24.6 94.44ZM41.1289 98.5H43.4089V92.42H48.0089V90.56H43.4089V86.46H49.3089V84.6H41.1289V98.5ZM61.4019 87.48H59.1219V93.62C59.1219 95.64 58.0219 96.68 56.3419 96.68C54.6819 96.68 53.5819 95.64 53.5819 93.62V87.48H51.3219V93.96C51.3219 97.04 53.2819 98.66 55.8619 98.66C57.1619 98.66 58.4019 98.12 59.1219 97.18V98.5H61.4019V87.48ZM72.2302 98.5H74.4902V92C74.4902 88.92 72.5502 87.3 69.9702 87.3C68.6502 87.3 67.4302 87.84 66.6902 88.74V87.48H64.4102V98.5H66.6902V92.34C66.6902 90.32 67.7902 89.28 69.4702 89.28C71.1302 89.28 72.2302 90.32 72.2302 92.34V98.5ZM76.6384 92.94C76.6384 96.34 78.9384 98.68 81.8384 98.68C83.6384 98.68 84.9584 97.84 85.6584 96.84V98.5H87.9584V83.7H85.6584V89.02C84.8184 87.98 83.2984 87.3 81.8584 87.3C78.9384 87.3 76.6384 89.54 76.6384 92.94ZM85.6584 92.98C85.6584 95.36 84.0384 96.7 82.3184 96.7C80.6184 96.7 78.9784 95.32 78.9784 92.94C78.9784 90.56 80.6184 89.28 82.3184 89.28C84.0384 89.28 85.6584 90.62 85.6584 92.98ZM90.1931 92.94C90.1931 96.34 92.4931 98.68 95.3531 98.68C97.1931 98.68 98.5131 97.8 99.2131 96.86V98.5H101.513V87.48H99.2131V89.08C98.5331 88.18 97.2531 87.3 95.3931 87.3C92.4931 87.3 90.1931 89.54 90.1931 92.94ZM99.2131 92.98C99.2131 95.36 97.5931 96.7 95.8731 96.7C94.1731 96.7 92.5331 95.32 92.5331 92.94C92.5331 90.56 94.1731 89.28 95.8731 89.28C97.5931 89.28 99.2131 90.62 99.2131 92.98ZM120.128 98.5H122.388V92C122.388 88.92 120.428 87.3 117.848 87.3C116.248 87.3 114.688 88.14 114.008 89.48C113.248 88.04 111.788 87.3 110.048 87.3C108.728 87.3 107.528 87.84 106.788 88.74V87.48H104.508V98.5H106.788V92.34C106.788 90.32 107.888 89.28 109.568 89.28C111.228 89.28 112.328 90.32 112.328 92.34V98.5H114.588V92.34C114.588 90.32 115.688 89.28 117.368 89.28C119.028 89.28 120.128 90.32 120.128 92.34V98.5ZM129.929 89.22C131.629 89.22 132.969 90.3 133.009 92H126.909C127.149 90.26 128.389 89.22 129.929 89.22ZM135.089 95.22H132.629C132.209 96.08 131.429 96.76 130.029 96.76C128.349 96.76 127.049 95.66 126.889 93.84H135.309C135.369 93.46 135.389 93.1 135.389 92.72C135.389 89.48 133.169 87.3 130.029 87.3C126.769 87.3 124.529 89.52 124.529 92.98C124.529 96.44 126.869 98.68 130.029 98.68C132.729 98.68 134.469 97.14 135.089 95.22ZM145.453 98.5H147.713V92C147.713 88.92 145.773 87.3 143.193 87.3C141.873 87.3 140.653 87.84 139.913 88.74V87.48H137.633V98.5H139.913V92.34C139.913 90.32 141.013 89.28 142.693 89.28C144.353 89.28 145.453 90.32 145.453 92.34V98.5ZM150.981 95.44C150.981 97.68 152.201 98.5 154.161 98.5H155.961V96.6H154.561C153.601 96.6 153.281 96.26 153.281 95.44V89.34H155.961V87.48H153.281V84.74H150.981V87.48H149.681V89.34H150.981V95.44ZM157.303 92.94C157.303 96.34 159.603 98.68 162.463 98.68C164.303 98.68 165.623 97.8 166.323 96.86V98.5H168.623V87.48H166.323V89.08C165.643 88.18 164.363 87.3 162.503 87.3C159.603 87.3 157.303 89.54 157.303 92.94ZM166.323 92.98C166.323 95.36 164.703 96.7 162.983 96.7C161.283 96.7 159.643 95.32 159.643 92.94C159.643 90.56 161.283 89.28 162.983 89.28C164.703 89.28 166.323 90.62 166.323 92.98ZM171.617 98.5H173.897V83.7H171.617V98.5ZM192.586 92.98C192.586 89.52 190.106 87.3 186.966 87.3C183.826 87.3 181.346 89.52 181.346 92.98C181.346 96.44 183.726 98.68 186.866 98.68C190.026 98.68 192.586 96.44 192.586 92.98ZM183.666 92.98C183.666 90.48 185.206 89.28 186.926 89.28C188.626 89.28 190.246 90.48 190.246 92.98C190.246 95.48 188.566 96.7 186.866 96.7C185.146 96.7 183.666 95.48 183.666 92.98ZM195.12 98.5H197.42V89.34H199.46V87.48H197.42V86.7C197.42 85.44 197.9 84.96 199.3 84.96V83.06C196.42 83.06 195.12 84.16 195.12 86.7V87.48H193.82V89.34H195.12V98.5ZM205.916 91.52C205.916 95.7 209.096 98.62 213.016 98.62C215.916 98.62 218.416 97.18 219.476 94.46H216.736C215.996 95.94 214.676 96.64 213.016 96.64C210.256 96.64 208.256 94.66 208.256 91.52C208.256 88.38 210.256 86.42 213.016 86.42C214.676 86.42 215.996 87.12 216.736 88.6H219.476C218.416 85.88 215.916 84.42 213.016 84.42C209.096 84.42 205.916 87.36 205.916 91.52ZM232.645 92.98C232.645 89.52 230.165 87.3 227.025 87.3C223.885 87.3 221.405 89.52 221.405 92.98C221.405 96.44 223.785 98.68 226.925 98.68C230.085 98.68 232.645 96.44 232.645 92.98ZM223.725 92.98C223.725 90.48 225.265 89.28 226.985 89.28C228.685 89.28 230.305 90.48 230.305 92.98C230.305 95.48 228.625 96.7 226.925 96.7C225.205 96.7 223.725 95.48 223.725 92.98ZM250.518 98.5H252.778V92C252.778 88.92 250.818 87.3 248.238 87.3C246.638 87.3 245.078 88.14 244.398 89.48C243.638 88.04 242.178 87.3 240.438 87.3C239.118 87.3 237.918 87.84 237.178 88.74V87.48H234.898V98.5H237.178V92.34C237.178 90.32 238.278 89.28 239.958 89.28C241.618 89.28 242.718 90.32 242.718 92.34V98.5H244.978V92.34C244.978 90.32 246.078 89.28 247.758 89.28C249.418 89.28 250.518 90.32 250.518 92.34V98.5ZM257.96 89.1V87.48H255.68V103.74H257.96V96.9C258.68 97.76 259.98 98.68 261.8 98.68C264.7 98.68 266.98 96.34 266.98 92.94C266.98 89.54 264.7 87.3 261.8 87.3C260 87.3 258.66 88.18 257.96 89.1ZM264.66 92.94C264.66 95.32 263.02 96.7 261.3 96.7C259.6 96.7 257.96 95.36 257.96 92.98C257.96 90.62 259.6 89.28 261.3 89.28C263.02 89.28 264.66 90.56 264.66 92.94ZM279.214 87.48H276.934V93.62C276.934 95.64 275.834 96.68 274.154 96.68C272.494 96.68 271.394 95.64 271.394 93.62V87.48H269.134V93.96C269.134 97.04 271.094 98.66 273.674 98.66C274.974 98.66 276.214 98.12 276.934 97.18V98.5H279.214V87.48ZM282.583 95.44C282.583 97.68 283.803 98.5 285.763 98.5H287.563V96.6H286.163C285.203 96.6 284.883 96.26 284.883 95.44V89.34H287.563V87.48H284.883V84.74H282.583V87.48H281.283V89.34H282.583V95.44ZM294.304 89.22C296.004 89.22 297.344 90.3 297.384 92H291.284C291.524 90.26 292.764 89.22 294.304 89.22ZM299.464 95.22H297.004C296.584 96.08 295.804 96.76 294.404 96.76C292.724 96.76 291.424 95.66 291.264 93.84H299.684C299.744 93.46 299.764 93.1 299.764 92.72C299.764 89.48 297.544 87.3 294.404 87.3C291.144 87.3 288.904 89.52 288.904 92.98C288.904 96.44 291.244 98.68 294.404 98.68C297.104 98.68 298.844 97.14 299.464 95.22ZM304.288 92.7C304.288 90.36 305.328 89.66 307.008 89.66H307.588V87.3C306.028 87.3 304.928 87.98 304.288 89.08V87.48H302.008V98.5H304.288V92.7ZM317.904 95.42C317.784 91.44 311.564 92.68 311.564 90.46C311.564 89.72 312.204 89.22 313.424 89.22C314.664 89.22 315.404 89.88 315.484 90.84H317.764C317.644 88.64 316.004 87.3 313.504 87.3C310.904 87.3 309.264 88.72 309.264 90.48C309.264 94.52 315.664 93.28 315.664 95.44C315.664 96.2 314.964 96.76 313.644 96.76C312.384 96.76 311.524 96.02 311.444 95.12H309.084C309.184 97.12 311.044 98.68 313.684 98.68C316.284 98.68 317.904 97.28 317.904 95.42ZM334.403 87.7C334.543 85.8 333.243 84.28 330.823 84.28C328.443 84.28 326.963 85.66 326.963 87.48C326.963 88.46 327.243 89.2 328.023 90.14C325.823 91.04 324.763 92.62 324.763 94.5C324.763 97.1 326.763 98.76 329.763 98.76C331.703 98.76 333.243 98.12 334.583 96.78L336.303 98.5H339.283L335.903 95.14C336.063 94.88 336.243 94.6 336.403 94.32L338.203 91.24H335.743L334.323 93.58L330.643 89.92C329.663 88.86 329.243 88.24 329.243 87.48C329.243 86.74 329.823 86.14 330.723 86.14C331.583 86.14 332.163 86.68 332.123 87.7H334.403ZM329.763 96.82C328.123 96.82 327.043 95.76 327.043 94.42C327.043 93.18 327.783 92.22 329.403 91.58L333.083 95.28C332.123 96.3 331.063 96.82 329.763 96.82ZM345.973 98.5H348.253V84.6H345.973V98.5ZM359.066 98.5H361.326V92C361.326 88.92 359.386 87.3 356.806 87.3C355.486 87.3 354.266 87.84 353.526 88.74V87.48H351.246V98.5H353.526V92.34C353.526 90.32 354.626 89.28 356.306 89.28C357.966 89.28 359.066 90.32 359.066 92.34V98.5ZM364.514 98.5H366.814V89.34H368.854V87.48H366.814V86.7C366.814 85.44 367.294 84.96 368.694 84.96V83.06C365.814 83.06 364.514 84.16 364.514 86.7V87.48H363.214V89.34H364.514V98.5ZM381.375 92.98C381.375 89.52 378.895 87.3 375.755 87.3C372.615 87.3 370.135 89.52 370.135 92.98C370.135 96.44 372.515 98.68 375.655 98.68C378.815 98.68 381.375 96.44 381.375 92.98ZM372.455 92.98C372.455 90.48 373.995 89.28 375.715 89.28C377.415 89.28 379.035 90.48 379.035 92.98C379.035 95.48 377.355 96.7 375.655 96.7C373.935 96.7 372.455 95.48 372.455 92.98ZM385.909 92.7C385.909 90.36 386.949 89.66 388.629 89.66H389.209V87.3C387.649 87.3 386.549 87.98 385.909 89.08V87.48H383.629V98.5H385.909V92.7ZM406.925 98.5H409.185V92C409.185 88.92 407.225 87.3 404.645 87.3C403.045 87.3 401.485 88.14 400.805 89.48C400.045 88.04 398.585 87.3 396.845 87.3C395.525 87.3 394.325 87.84 393.585 88.74V87.48H391.305V98.5H393.585V92.34C393.585 90.32 394.685 89.28 396.365 89.28C398.025 89.28 399.125 90.32 399.125 92.34V98.5H401.385V92.34C401.385 90.32 402.485 89.28 404.165 89.28C405.825 89.28 406.925 90.32 406.925 92.34V98.5ZM411.326 92.94C411.326 96.34 413.626 98.68 416.486 98.68C418.326 98.68 419.646 97.8 420.346 96.86V98.5H422.646V87.48H420.346V89.08C419.666 88.18 418.386 87.3 416.526 87.3C413.626 87.3 411.326 89.54 411.326 92.94ZM420.346 92.98C420.346 95.36 418.726 96.7 417.006 96.7C415.306 96.7 413.666 95.32 413.666 92.94C413.666 90.56 415.306 89.28 417.006 89.28C418.726 89.28 420.346 90.62 420.346 92.98ZM426.001 95.44C426.001 97.68 427.221 98.5 429.181 98.5H430.981V96.6H429.581C428.621 96.6 428.301 96.26 428.301 95.44V89.34H430.981V87.48H428.301V84.74H426.001V87.48H424.701V89.34H426.001V95.44ZM433.082 98.5H435.362V87.48H433.082V98.5ZM434.242 86.02C435.042 86.02 435.682 85.38 435.682 84.56C435.682 83.74 435.042 83.1 434.242 83.1C433.422 83.1 432.782 83.74 432.782 84.56C432.782 85.38 433.422 86.02 434.242 86.02ZM448.855 92.98C448.855 89.52 446.375 87.3 443.235 87.3C440.095 87.3 437.615 89.52 437.615 92.98C437.615 96.44 439.995 98.68 443.135 98.68C446.295 98.68 448.855 96.44 448.855 92.98ZM439.935 92.98C439.935 90.48 441.475 89.28 443.195 89.28C444.895 89.28 446.515 90.48 446.515 92.98C446.515 95.48 444.835 96.7 443.135 96.7C441.415 96.7 439.935 95.48 439.935 92.98ZM458.929 98.5H461.189V92C461.189 88.92 459.249 87.3 456.669 87.3C455.349 87.3 454.129 87.84 453.389 88.74V87.48H451.109V98.5H453.389V92.34C453.389 90.32 454.489 89.28 456.169 89.28C457.829 89.28 458.929 90.32 458.929 92.34V98.5ZM468.573 86.46H472.293V98.5H474.573V86.46H478.273V84.6H468.573V86.46ZM485.222 89.22C486.922 89.22 488.262 90.3 488.302 92H482.202C482.442 90.26 483.682 89.22 485.222 89.22ZM490.382 95.22H487.922C487.502 96.08 486.722 96.76 485.322 96.76C483.642 96.76 482.342 95.66 482.182 93.84H490.602C490.662 93.46 490.682 93.1 490.682 92.72C490.682 89.48 488.462 87.3 485.322 87.3C482.062 87.3 479.822 89.52 479.822 92.98C479.822 96.44 482.162 98.68 485.322 98.68C488.022 98.68 489.762 97.14 490.382 95.22ZM492.166 92.98C492.166 96.44 494.406 98.68 497.566 98.68C500.266 98.68 502.026 97.18 502.646 95.02H500.186C499.766 96.16 498.926 96.76 497.566 96.76C495.726 96.76 494.506 95.4 494.506 92.98C494.506 90.58 495.726 89.22 497.566 89.22C498.926 89.22 499.806 89.9 500.186 90.96H502.646C502.026 88.64 500.266 87.3 497.566 87.3C494.406 87.3 492.166 89.54 492.166 92.98ZM504.918 98.5H507.198V92.34C507.198 90.32 508.298 89.28 509.978 89.28C511.638 89.28 512.738 90.32 512.738 92.34V98.5H514.998V92C514.998 88.92 513.078 87.3 510.618 87.3C509.198 87.3 507.958 87.84 507.198 88.76V83.7H504.918V98.5ZM525.726 98.5H527.986V92C527.986 88.92 526.046 87.3 523.466 87.3C522.146 87.3 520.926 87.84 520.186 88.74V87.48H517.906V98.5H520.186V92.34C520.186 90.32 521.286 89.28 522.966 89.28C524.626 89.28 525.726 90.32 525.726 92.34V98.5ZM541.395 92.98C541.395 89.52 538.915 87.3 535.775 87.3C532.635 87.3 530.155 89.52 530.155 92.98C530.155 96.44 532.535 98.68 535.675 98.68C538.835 98.68 541.395 96.44 541.395 92.98ZM532.475 92.98C532.475 90.48 534.015 89.28 535.735 89.28C537.435 89.28 539.055 90.48 539.055 92.98C539.055 95.48 537.375 96.7 535.675 96.7C533.955 96.7 532.475 95.48 532.475 92.98ZM543.648 98.5H545.928V83.7H543.648V98.5ZM559.422 92.98C559.422 89.52 556.942 87.3 553.802 87.3C550.662 87.3 548.182 89.52 548.182 92.98C548.182 96.44 550.562 98.68 553.702 98.68C556.862 98.68 559.422 96.44 559.422 92.98ZM550.502 92.98C550.502 90.48 552.042 89.28 553.762 89.28C555.462 89.28 557.082 90.48 557.082 92.98C557.082 95.48 555.402 96.7 553.702 96.7C551.982 96.7 550.502 95.48 550.502 92.98ZM560.916 92.94C560.916 96.34 563.216 98.68 566.116 98.68C567.916 98.68 569.236 97.78 569.936 96.84V98.68C569.936 100.88 568.616 101.96 566.856 101.96C565.276 101.96 564.056 101.18 563.716 100.04H561.456C561.736 102.48 563.916 103.94 566.856 103.94C570.296 103.94 572.236 101.68 572.236 98.68V87.48H569.936V89.08C569.256 88.14 567.916 87.3 566.116 87.3C563.216 87.3 560.916 89.54 560.916 92.94ZM569.936 92.98C569.936 95.36 568.316 96.7 566.596 96.7C564.896 96.7 563.256 95.32 563.256 92.94C563.256 90.56 564.896 89.28 566.596 89.28C568.316 89.28 569.936 90.62 569.936 92.98ZM579.57 95.88L576.47 87.48H573.93L578.27 98.32L576.03 103.68H578.39L585.15 87.48H582.79L579.57 95.88Z" fill="#212832"/>
<rect x="0.5" y="66.5" width="616" height="49" stroke="black" stroke-opacity="0.5"/>
<rect y="180" width="617" height="50" fill="white"/>
<path d="M24.6 208.44C26.08 208.44 27.24 207.3 27.24 205.84C27.24 204.36 26.08 203.22 24.6 203.22C23.16 203.22 22 204.36 22 205.84C22 207.3 23.16 208.44 24.6 208.44ZM41.1289 212.5H43.4089V206.42H48.0089V204.56H43.4089V200.46H49.3089V198.6H41.1289V212.5ZM61.4019 201.48H59.1219V207.62C59.1219 209.64 58.0219 210.68 56.3419 210.68C54.6819 210.68 53.5819 209.64 53.5819 207.62V201.48H51.3219V207.96C51.3219 211.04 53.2819 212.66 55.8619 212.66C57.1619 212.66 58.4019 212.12 59.1219 211.18V212.5H61.4019V201.48ZM72.2302 212.5H74.4902V206C74.4902 202.92 72.5502 201.3 69.9702 201.3C68.6502 201.3 67.4302 201.84 66.6902 202.74V201.48H64.4102V212.5H66.6902V206.34C66.6902 204.32 67.7902 203.28 69.4702 203.28C71.1302 203.28 72.2302 204.32 72.2302 206.34V212.5ZM76.6384 206.94C76.6384 210.34 78.9384 212.68 81.8384 212.68C83.6384 212.68 84.9584 211.84 85.6584 210.84V212.5H87.9584V197.7H85.6584V203.02C84.8184 201.98 83.2984 201.3 81.8584 201.3C78.9384 201.3 76.6384 203.54 76.6384 206.94ZM85.6584 206.98C85.6584 209.36 84.0384 210.7 82.3184 210.7C80.6184 210.7 78.9784 209.32 78.9784 206.94C78.9784 204.56 80.6184 203.28 82.3184 203.28C84.0384 203.28 85.6584 204.62 85.6584 206.98ZM90.1931 206.94C90.1931 210.34 92.4931 212.68 95.3531 212.68C97.1931 212.68 98.5131 211.8 99.2131 210.86V212.5H101.513V201.48H99.2131V203.08C98.5331 202.18 97.2531 201.3 95.3931 201.3C92.4931 201.3 90.1931 203.54 90.1931 206.94ZM99.2131 206.98C99.2131 209.36 97.5931 210.7 95.8731 210.7C94.1731 210.7 92.5331 209.32 92.5331 206.94C92.5331 204.56 94.1731 203.28 95.8731 203.28C97.5931 203.28 99.2131 204.62 99.2131 206.98ZM120.128 212.5H122.388V206C122.388 202.92 120.428 201.3 117.848 201.3C116.248 201.3 114.688 202.14 114.008 203.48C113.248 202.04 111.788 201.3 110.048 201.3C108.728 201.3 107.528 201.84 106.788 202.74V201.48H104.508V212.5H106.788V206.34C106.788 204.32 107.888 203.28 109.568 203.28C111.228 203.28 112.328 204.32 112.328 206.34V212.5H114.588V206.34C114.588 204.32 115.688 203.28 117.368 203.28C119.028 203.28 120.128 204.32 120.128 206.34V212.5ZM129.929 203.22C131.629 203.22 132.969 204.3 133.009 206H126.909C127.149 204.26 128.389 203.22 129.929 203.22ZM135.089 209.22H132.629C132.209 210.08 131.429 210.76 130.029 210.76C128.349 210.76 127.049 209.66 126.889 207.84H135.309C135.369 207.46 135.389 207.1 135.389 206.72C135.389 203.48 133.169 201.3 130.029 201.3C126.769 201.3 124.529 203.52 124.529 206.98C124.529 210.44 126.869 212.68 130.029 212.68C132.729 212.68 134.469 211.14 135.089 209.22ZM145.453 212.5H147.713V206C147.713 202.92 145.773 201.3 143.193 201.3C141.873 201.3 140.653 201.84 139.913 202.74V201.48H137.633V212.5H139.913V206.34C139.913 204.32 141.013 203.28 142.693 203.28C144.353 203.28 145.453 204.32 145.453 206.34V212.5ZM150.981 209.44C150.981 211.68 152.201 212.5 154.161 212.5H155.961V210.6H154.561C153.601 210.6 153.281 210.26 153.281 209.44V203.34H155.961V201.48H153.281V198.74H150.981V201.48H149.681V203.34H150.981V209.44ZM157.303 206.94C157.303 210.34 159.603 212.68 162.463 212.68C164.303 212.68 165.623 211.8 166.323 210.86V212.5H168.623V201.48H166.323V203.08C165.643 202.18 164.363 201.3 162.503 201.3C159.603 201.3 157.303 203.54 157.303 206.94ZM166.323 206.98C166.323 209.36 164.703 210.7 162.983 210.7C161.283 210.7 159.643 209.32 159.643 206.94C159.643 204.56 161.283 203.28 162.983 203.28C164.703 203.28 166.323 204.62 166.323 206.98ZM171.617 212.5H173.897V197.7H171.617V212.5ZM185.111 209.42C184.991 205.44 178.771 206.68 178.771 204.46C178.771 203.72 179.411 203.22 180.631 203.22C181.871 203.22 182.611 203.88 182.691 204.84H184.971C184.851 202.64 183.211 201.3 180.711 201.3C178.111 201.3 176.471 202.72 176.471 204.48C176.471 208.52 182.871 207.28 182.871 209.44C182.871 210.2 182.171 210.76 180.851 210.76C179.591 210.76 178.731 210.02 178.651 209.12H176.291C176.391 211.12 178.251 212.68 180.891 212.68C183.491 212.68 185.111 211.28 185.111 209.42ZM203.27 206.98C203.27 203.52 200.79 201.3 197.65 201.3C194.51 201.3 192.03 203.52 192.03 206.98C192.03 210.44 194.41 212.68 197.55 212.68C200.71 212.68 203.27 210.44 203.27 206.98ZM194.35 206.98C194.35 204.48 195.89 203.28 197.61 203.28C199.31 203.28 200.93 204.48 200.93 206.98C200.93 209.48 199.25 210.7 197.55 210.7C195.83 210.7 194.35 209.48 194.35 206.98ZM205.803 212.5H208.103V203.34H210.143V201.48H208.103V200.7C208.103 199.44 208.583 198.96 209.983 198.96V197.06C207.103 197.06 205.803 198.16 205.803 200.7V201.48H204.503V203.34H205.803V212.5ZM219.639 205V200.46H222.159C223.939 200.46 224.739 201.3 224.739 202.74C224.739 204.14 223.939 205 222.159 205H219.639ZM227.079 202.74C227.079 200.48 225.459 198.6 222.159 198.6H217.359V212.5H219.639V206.86H222.159C225.779 206.86 227.079 204.72 227.079 202.74ZM231.534 206.7C231.534 204.36 232.574 203.66 234.254 203.66H234.834V201.3C233.274 201.3 232.174 201.98 231.534 203.08V201.48H229.254V212.5H231.534V206.7ZM247.43 206.98C247.43 203.52 244.95 201.3 241.81 201.3C238.67 201.3 236.19 203.52 236.19 206.98C236.19 210.44 238.57 212.68 241.71 212.68C244.87 212.68 247.43 210.44 247.43 206.98ZM238.51 206.98C238.51 204.48 240.05 203.28 241.77 203.28C243.47 203.28 245.09 204.48 245.09 206.98C245.09 209.48 243.41 210.7 241.71 210.7C239.99 210.7 238.51 209.48 238.51 206.98ZM248.924 206.94C248.924 210.34 251.224 212.68 254.124 212.68C255.924 212.68 257.244 211.78 257.944 210.84V212.68C257.944 214.88 256.624 215.96 254.864 215.96C253.284 215.96 252.064 215.18 251.724 214.04H249.464C249.744 216.48 251.924 217.94 254.864 217.94C258.304 217.94 260.244 215.68 260.244 212.68V201.48H257.944V203.08C257.264 202.14 255.924 201.3 254.124 201.3C251.224 201.3 248.924 203.54 248.924 206.94ZM257.944 206.98C257.944 209.36 256.324 210.7 254.604 210.7C252.904 210.7 251.264 209.32 251.264 206.94C251.264 204.56 252.904 203.28 254.604 203.28C256.324 203.28 257.944 204.62 257.944 206.98ZM265.518 206.7C265.518 204.36 266.558 203.66 268.238 203.66H268.818V201.3C267.258 201.3 266.158 201.98 265.518 203.08V201.48H263.238V212.5H265.518V206.7ZM270.154 206.94C270.154 210.34 272.454 212.68 275.314 212.68C277.154 212.68 278.474 211.8 279.174 210.86V212.5H281.474V201.48H279.174V203.08C278.494 202.18 277.214 201.3 275.354 201.3C272.454 201.3 270.154 203.54 270.154 206.94ZM279.174 206.98C279.174 209.36 277.554 210.7 275.834 210.7C274.134 210.7 272.494 209.32 272.494 206.94C272.494 204.56 274.134 203.28 275.834 203.28C277.554 203.28 279.174 204.62 279.174 206.98ZM300.089 212.5H302.349V206C302.349 202.92 300.389 201.3 297.809 201.3C296.209 201.3 294.649 202.14 293.969 203.48C293.209 202.04 291.749 201.3 290.009 201.3C288.689 201.3 287.489 201.84 286.749 202.74V201.48H284.469V212.5H286.749V206.34C286.749 204.32 287.849 203.28 289.529 203.28C291.189 203.28 292.289 204.32 292.289 206.34V212.5H294.549V206.34C294.549 204.32 295.649 203.28 297.329 203.28C298.989 203.28 300.089 204.32 300.089 206.34V212.5ZM320.87 212.5H323.13V206C323.13 202.92 321.17 201.3 318.59 201.3C316.99 201.3 315.43 202.14 314.75 203.48C313.99 202.04 312.53 201.3 310.79 201.3C309.47 201.3 308.27 201.84 307.53 202.74V201.48H305.25V212.5H307.53V206.34C307.53 204.32 308.63 203.28 310.31 203.28C311.97 203.28 313.07 204.32 313.07 206.34V212.5H315.33V206.34C315.33 204.32 316.43 203.28 318.11 203.28C319.77 203.28 320.87 204.32 320.87 206.34V212.5ZM326.031 212.5H328.311V201.48H326.031V212.5ZM327.191 200.02C327.991 200.02 328.631 199.38 328.631 198.56C328.631 197.74 327.991 197.1 327.191 197.1C326.371 197.1 325.731 197.74 325.731 198.56C325.731 199.38 326.371 200.02 327.191 200.02ZM339.125 212.5H341.385V206C341.385 202.92 339.445 201.3 336.865 201.3C335.545 201.3 334.325 201.84 333.585 202.74V201.48H331.305V212.5H333.585V206.34C333.585 204.32 334.685 203.28 336.365 203.28C338.025 203.28 339.125 204.32 339.125 206.34V212.5ZM343.533 206.94C343.533 210.34 345.833 212.68 348.733 212.68C350.533 212.68 351.853 211.78 352.553 210.84V212.68C352.553 214.88 351.233 215.96 349.473 215.96C347.893 215.96 346.673 215.18 346.333 214.04H344.073C344.353 216.48 346.533 217.94 349.473 217.94C352.913 217.94 354.853 215.68 354.853 212.68V201.48H352.553V203.08C351.873 202.14 350.533 201.3 348.733 201.3C345.833 201.3 343.533 203.54 343.533 206.94ZM352.553 206.98C352.553 209.36 350.933 210.7 349.213 210.7C347.513 210.7 345.873 209.32 345.873 206.94C345.873 204.56 347.513 203.28 349.213 203.28C350.933 203.28 352.553 204.62 352.553 206.98ZM373.023 201.48H370.743V207.62C370.743 209.64 369.643 210.68 367.963 210.68C366.303 210.68 365.203 209.64 365.203 207.62V201.48H362.943V207.96C362.943 211.04 364.903 212.66 367.483 212.66C368.783 212.66 370.023 212.12 370.743 211.18V212.5H373.023V201.48ZM384.251 209.42C384.131 205.44 377.911 206.68 377.911 204.46C377.911 203.72 378.551 203.22 379.771 203.22C381.011 203.22 381.751 203.88 381.831 204.84H384.111C383.991 202.64 382.351 201.3 379.851 201.3C377.251 201.3 375.611 202.72 375.611 204.48C375.611 208.52 382.011 207.28 382.011 209.44C382.011 210.2 381.311 210.76 379.991 210.76C378.731 210.76 377.871 210.02 377.791 209.12H375.431C375.531 211.12 377.391 212.68 380.031 212.68C382.631 212.68 384.251 211.28 384.251 209.42ZM386.715 212.5H388.995V201.48H386.715V212.5ZM387.875 200.02C388.675 200.02 389.315 199.38 389.315 198.56C389.315 197.74 388.675 197.1 387.875 197.1C387.055 197.1 386.415 197.74 386.415 198.56C386.415 199.38 387.055 200.02 387.875 200.02ZM399.808 212.5H402.068V206C402.068 202.92 400.128 201.3 397.548 201.3C396.228 201.3 395.008 201.84 394.268 202.74V201.48H391.988V212.5H394.268V206.34C394.268 204.32 395.368 203.28 397.048 203.28C398.708 203.28 399.808 204.32 399.808 206.34V212.5ZM404.217 206.94C404.217 210.34 406.517 212.68 409.417 212.68C411.217 212.68 412.537 211.78 413.237 210.84V212.68C413.237 214.88 411.917 215.96 410.157 215.96C408.577 215.96 407.357 215.18 407.017 214.04H404.757C405.037 216.48 407.217 217.94 410.157 217.94C413.597 217.94 415.537 215.68 415.537 212.68V201.48H413.237V203.08C412.557 202.14 411.217 201.3 409.417 201.3C406.517 201.3 404.217 203.54 404.217 206.94ZM413.237 206.98C413.237 209.36 411.617 210.7 409.897 210.7C408.197 210.7 406.557 209.32 406.557 206.94C406.557 204.56 408.197 203.28 409.897 203.28C411.617 203.28 413.237 204.62 413.237 206.98ZM423.167 200.66H424.727L424.967 196.56H422.907L423.167 200.66ZM426.404 205.52C426.404 209.7 429.584 212.62 433.504 212.62C436.404 212.62 438.904 211.18 439.964 208.46H437.224C436.484 209.94 435.164 210.64 433.504 210.64C430.744 210.64 428.744 208.66 428.744 205.52C428.744 202.38 430.744 200.42 433.504 200.42C435.164 200.42 436.484 201.12 437.224 202.6H439.964C438.904 199.88 436.404 198.42 433.504 198.42C429.584 198.42 426.404 201.36 426.404 205.52ZM442.073 200.66H443.633L443.873 196.56H441.813L442.073 200.66ZM451.266 198.6V212.5H458.246V210.66H453.546V198.6H451.266ZM459.392 206.94C459.392 210.34 461.692 212.68 464.552 212.68C466.392 212.68 467.712 211.8 468.412 210.86V212.5H470.712V201.48H468.412V203.08C467.732 202.18 466.452 201.3 464.592 201.3C461.692 201.3 459.392 203.54 459.392 206.94ZM468.412 206.98C468.412 209.36 466.792 210.7 465.072 210.7C463.372 210.7 461.732 209.32 461.732 206.94C461.732 204.56 463.372 203.28 465.072 203.28C466.792 203.28 468.412 204.62 468.412 206.98ZM481.527 212.5H483.787V206C483.787 202.92 481.847 201.3 479.267 201.3C477.947 201.3 476.727 201.84 475.987 202.74V201.48H473.707V212.5H475.987V206.34C475.987 204.32 477.087 203.28 478.767 203.28C480.427 203.28 481.527 204.32 481.527 206.34V212.5ZM485.935 206.94C485.935 210.34 488.235 212.68 491.135 212.68C492.935 212.68 494.255 211.78 494.955 210.84V212.68C494.955 214.88 493.635 215.96 491.875 215.96C490.295 215.96 489.075 215.18 488.735 214.04H486.475C486.755 216.48 488.935 217.94 491.875 217.94C495.315 217.94 497.255 215.68 497.255 212.68V201.48H494.955V203.08C494.275 202.14 492.935 201.3 491.135 201.3C488.235 201.3 485.935 203.54 485.935 206.94ZM494.955 206.98C494.955 209.36 493.335 210.7 491.615 210.7C489.915 210.7 488.275 209.32 488.275 206.94C488.275 204.56 489.915 203.28 491.615 203.28C493.335 203.28 494.955 204.62 494.955 206.98ZM510.23 201.48H507.95V207.62C507.95 209.64 506.85 210.68 505.17 210.68C503.51 210.68 502.41 209.64 502.41 207.62V201.48H500.15V207.96C500.15 211.04 502.11 212.66 504.69 212.66C505.99 212.66 507.23 212.12 507.95 211.18V212.5H510.23V201.48ZM512.478 206.94C512.478 210.34 514.778 212.68 517.638 212.68C519.478 212.68 520.798 211.8 521.498 210.86V212.5H523.798V201.48H521.498V203.08C520.818 202.18 519.538 201.3 517.678 201.3C514.778 201.3 512.478 203.54 512.478 206.94ZM521.498 206.98C521.498 209.36 519.878 210.7 518.158 210.7C516.458 210.7 514.818 209.32 514.818 206.94C514.818 204.56 516.458 203.28 518.158 203.28C519.878 203.28 521.498 204.62 521.498 206.98ZM526.033 206.94C526.033 210.34 528.333 212.68 531.233 212.68C533.033 212.68 534.353 211.78 535.053 210.84V212.68C535.053 214.88 533.733 215.96 531.973 215.96C530.393 215.96 529.173 215.18 528.833 214.04H526.573C526.853 216.48 529.033 217.94 531.973 217.94C535.413 217.94 537.353 215.68 537.353 212.68V201.48H535.053V203.08C534.373 202.14 533.033 201.3 531.233 201.3C528.333 201.3 526.033 203.54 526.033 206.94ZM535.053 206.98C535.053 209.36 533.433 210.7 531.713 210.7C530.013 210.7 528.373 209.32 528.373 206.94C528.373 204.56 530.013 203.28 531.713 203.28C533.433 203.28 535.053 204.62 535.053 206.98ZM544.988 203.22C546.688 203.22 548.028 204.3 548.068 206H541.968C542.208 204.26 543.448 203.22 544.988 203.22ZM550.148 209.22H547.688C547.268 210.08 546.488 210.76 545.088 210.76C543.408 210.76 542.108 209.66 541.948 207.84H550.368C550.428 207.46 550.448 207.1 550.448 206.72C550.448 203.48 548.228 201.3 545.088 201.3C541.828 201.3 539.588 203.52 539.588 206.98C539.588 210.44 541.928 212.68 545.088 212.68C547.788 212.68 549.528 211.14 550.148 209.22Z" fill="#212832"/>
<rect x="0.5" y="180.5" width="616" height="49" stroke="black" stroke-opacity="0.5"/>
<rect y="123" width="617" height="50" fill="white"/>
<path d="M24.6 151.44C26.08 151.44 27.24 150.3 27.24 148.84C27.24 147.36 26.08 146.22 24.6 146.22C23.16 146.22 22 147.36 22 148.84C22 150.3 23.16 151.44 24.6 151.44ZM54.5689 148.52C54.5689 144.36 51.4289 141.42 47.4689 141.42C43.5489 141.42 40.3689 144.36 40.3689 148.52C40.3689 152.7 43.5489 155.64 47.4689 155.64C51.4289 155.64 54.5689 152.7 54.5689 148.52ZM42.7089 148.52C42.7089 145.38 44.7089 143.42 47.4689 143.42C50.2289 143.42 52.2289 145.38 52.2289 148.52C52.2289 151.66 50.2289 153.66 47.4689 153.66C44.7089 153.66 42.7089 151.66 42.7089 148.52ZM59.0925 146.1V144.48H56.8125V160.74H59.0925V153.9C59.8125 154.76 61.1125 155.68 62.9325 155.68C65.8325 155.68 68.1125 153.34 68.1125 149.94C68.1125 146.54 65.8325 144.3 62.9325 144.3C61.1325 144.3 59.7925 145.18 59.0925 146.1ZM65.7925 149.94C65.7925 152.32 64.1525 153.7 62.4325 153.7C60.7325 153.7 59.0925 152.36 59.0925 149.98C59.0925 147.62 60.7325 146.28 62.4325 146.28C64.1525 146.28 65.7925 147.56 65.7925 149.94ZM75.0072 146.22C76.7072 146.22 78.0472 147.3 78.0872 149H71.9872C72.2272 147.26 73.4672 146.22 75.0072 146.22ZM80.1672 152.22H77.7072C77.2872 153.08 76.5072 153.76 75.1072 153.76C73.4272 153.76 72.1272 152.66 71.9672 150.84H80.3872C80.4472 150.46 80.4672 150.1 80.4672 149.72C80.4672 146.48 78.2472 144.3 75.1072 144.3C71.8472 144.3 69.6072 146.52 69.6072 149.98C69.6072 153.44 71.9472 155.68 75.1072 155.68C77.8072 155.68 79.5472 154.14 80.1672 152.22ZM84.9909 149.7C84.9909 147.36 86.0309 146.66 87.7109 146.66H88.2909V144.3C86.7309 144.3 85.6309 144.98 84.9909 146.08V144.48H82.7109V155.5H84.9909V149.7ZM89.6267 149.94C89.6267 153.34 91.9267 155.68 94.7867 155.68C96.6267 155.68 97.9467 154.8 98.6467 153.86V155.5H100.947V144.48H98.6467V146.08C97.9667 145.18 96.6867 144.3 94.8267 144.3C91.9267 144.3 89.6267 146.54 89.6267 149.94ZM98.6467 149.98C98.6467 152.36 97.0267 153.7 95.3067 153.7C93.6067 153.7 91.9667 152.32 91.9667 149.94C91.9667 147.56 93.6067 146.28 95.3067 146.28C97.0267 146.28 98.6467 147.62 98.6467 149.98ZM104.301 152.44C104.301 154.68 105.521 155.5 107.481 155.5H109.281V153.6H107.881C106.921 153.6 106.601 153.26 106.601 152.44V146.34H109.281V144.48H106.601V141.74H104.301V144.48H103.001V146.34H104.301V152.44ZM111.383 155.5H113.663V144.48H111.383V155.5ZM112.543 143.02C113.343 143.02 113.983 142.38 113.983 141.56C113.983 140.74 113.343 140.1 112.543 140.1C111.723 140.1 111.083 140.74 111.083 141.56C111.083 142.38 111.723 143.02 112.543 143.02ZM124.476 155.5H126.736V149C126.736 145.92 124.796 144.3 122.216 144.3C120.896 144.3 119.676 144.84 118.936 145.74V144.48H116.656V155.5H118.936V149.34C118.936 147.32 120.036 146.28 121.716 146.28C123.376 146.28 124.476 147.32 124.476 149.34V155.5ZM128.885 149.94C128.885 153.34 131.185 155.68 134.085 155.68C135.885 155.68 137.205 154.78 137.905 153.84V155.68C137.905 157.88 136.585 158.96 134.825 158.96C133.245 158.96 132.025 158.18 131.685 157.04H129.425C129.705 159.48 131.885 160.94 134.825 160.94C138.265 160.94 140.205 158.68 140.205 155.68V144.48H137.905V146.08C137.225 145.14 135.885 144.3 134.085 144.3C131.185 144.3 128.885 146.54 128.885 149.94ZM137.905 149.98C137.905 152.36 136.285 153.7 134.565 153.7C132.865 153.7 131.225 152.32 131.225 149.94C131.225 147.56 132.865 146.28 134.565 146.28C136.285 146.28 137.905 147.62 137.905 149.98ZM156.615 152.42C156.495 148.44 150.275 149.68 150.275 147.46C150.275 146.72 150.915 146.22 152.135 146.22C153.375 146.22 154.115 146.88 154.195 147.84H156.475C156.355 145.64 154.715 144.3 152.215 144.3C149.615 144.3 147.975 145.72 147.975 147.48C147.975 151.52 154.375 150.28 154.375 152.44C154.375 153.2 153.675 153.76 152.355 153.76C151.095 153.76 150.235 153.02 150.155 152.12H147.795C147.895 154.12 149.755 155.68 152.395 155.68C154.995 155.68 156.615 154.28 156.615 152.42ZM163.418 152.88L160.318 144.48H157.778L162.118 155.32L159.878 160.68H162.238L168.998 144.48H166.638L163.418 152.88ZM178.939 152.42C178.819 148.44 172.599 149.68 172.599 147.46C172.599 146.72 173.239 146.22 174.459 146.22C175.699 146.22 176.439 146.88 176.519 147.84H178.799C178.679 145.64 177.039 144.3 174.539 144.3C171.939 144.3 170.299 145.72 170.299 147.48C170.299 151.52 176.699 150.28 176.699 152.44C176.699 153.2 175.999 153.76 174.679 153.76C173.419 153.76 172.559 153.02 172.479 152.12H170.119C170.219 154.12 172.079 155.68 174.719 155.68C177.319 155.68 178.939 154.28 178.939 152.42ZM181.762 152.44C181.762 154.68 182.982 155.5 184.942 155.5H186.742V153.6H185.342C184.382 153.6 184.062 153.26 184.062 152.44V146.34H186.742V144.48H184.062V141.74H181.762V144.48H180.462V146.34H181.762V152.44ZM193.484 146.22C195.184 146.22 196.524 147.3 196.564 149H190.464C190.704 147.26 191.944 146.22 193.484 146.22ZM198.644 152.22H196.184C195.764 153.08 194.984 153.76 193.584 153.76C191.904 153.76 190.604 152.66 190.444 150.84H198.864C198.924 150.46 198.944 150.1 198.944 149.72C198.944 146.48 196.724 144.3 193.584 144.3C190.324 144.3 188.084 146.52 188.084 149.98C188.084 153.44 190.424 155.68 193.584 155.68C196.284 155.68 198.024 154.14 198.644 152.22ZM216.808 155.5H219.068V149C219.068 145.92 217.108 144.3 214.528 144.3C212.928 144.3 211.368 145.14 210.688 146.48C209.928 145.04 208.468 144.3 206.728 144.3C205.408 144.3 204.208 144.84 203.468 145.74V144.48H201.188V155.5H203.468V149.34C203.468 147.32 204.568 146.28 206.248 146.28C207.908 146.28 209.008 147.32 209.008 149.34V155.5H211.268V149.34C211.268 147.32 212.368 146.28 214.048 146.28C215.708 146.28 216.808 147.32 216.808 149.34V155.5ZM226.404 149.94C226.404 153.34 228.704 155.68 231.564 155.68C233.404 155.68 234.724 154.8 235.424 153.86V155.5H237.724V144.48H235.424V146.08C234.744 145.18 233.464 144.3 231.604 144.3C228.704 144.3 226.404 146.54 226.404 149.94ZM235.424 149.98C235.424 152.36 233.804 153.7 232.084 153.7C230.384 153.7 228.744 152.32 228.744 149.94C228.744 147.56 230.384 146.28 232.084 146.28C233.804 146.28 235.424 147.62 235.424 149.98ZM248.539 155.5H250.799V149C250.799 145.92 248.859 144.3 246.279 144.3C244.959 144.3 243.739 144.84 242.999 145.74V144.48H240.719V155.5H242.999V149.34C242.999 147.32 244.099 146.28 245.779 146.28C247.439 146.28 248.539 147.32 248.539 149.34V155.5ZM252.947 149.94C252.947 153.34 255.247 155.68 258.147 155.68C259.947 155.68 261.267 154.84 261.967 153.84V155.5H264.267V140.7H261.967V146.02C261.127 144.98 259.607 144.3 258.167 144.3C255.247 144.3 252.947 146.54 252.947 149.94ZM261.967 149.98C261.967 152.36 260.347 153.7 258.627 153.7C256.927 153.7 255.287 152.32 255.287 149.94C255.287 147.56 256.927 146.28 258.627 146.28C260.347 146.28 261.967 147.62 261.967 149.98ZM281.837 151.56C281.837 146.48 274.477 148.44 274.477 145.3C274.477 143.96 275.497 143.32 276.817 143.36C278.257 143.4 279.077 144.26 279.157 145.2H281.677C281.477 142.82 279.597 141.42 276.937 141.42C274.097 141.42 272.157 142.94 272.157 145.38C272.157 150.5 279.537 148.32 279.537 151.68C279.537 152.86 278.637 153.72 277.037 153.72C275.457 153.72 274.657 152.8 274.557 151.66H272.117C272.117 154.12 274.257 155.64 277.037 155.64C280.137 155.64 281.837 153.64 281.837 151.56ZM295.027 149.98C295.027 146.52 292.547 144.3 289.407 144.3C286.267 144.3 283.787 146.52 283.787 149.98C283.787 153.44 286.167 155.68 289.307 155.68C292.467 155.68 295.027 153.44 295.027 149.98ZM286.107 149.98C286.107 147.48 287.647 146.28 289.367 146.28C291.067 146.28 292.687 147.48 292.687 149.98C292.687 152.48 291.007 153.7 289.307 153.7C287.587 153.7 286.107 152.48 286.107 149.98ZM297.561 155.5H299.861V146.34H301.901V144.48H299.861V143.7C299.861 142.44 300.341 141.96 301.741 141.96V140.06C298.861 140.06 297.561 141.16 297.561 143.7V144.48H296.261V146.34H297.561V155.5ZM304.282 152.44C304.282 154.68 305.502 155.5 307.462 155.5H309.262V153.6H307.862C306.902 153.6 306.582 153.26 306.582 152.44V146.34H309.262V144.48H306.582V141.74H304.282V144.48H302.982V146.34H304.282V152.44ZM313.503 155.5H315.903L318.123 147.36L320.343 155.5H322.743L326.163 144.48H323.923L321.643 153.3L319.403 144.48H317.023L314.683 153.34L312.383 144.48H310.063L313.503 155.5ZM327.107 149.94C327.107 153.34 329.407 155.68 332.267 155.68C334.107 155.68 335.427 154.8 336.127 153.86V155.5H338.427V144.48H336.127V146.08C335.447 145.18 334.167 144.3 332.307 144.3C329.407 144.3 327.107 146.54 327.107 149.94ZM336.127 149.98C336.127 152.36 334.507 153.7 332.787 153.7C331.087 153.7 329.447 152.32 329.447 149.94C329.447 147.56 331.087 146.28 332.787 146.28C334.507 146.28 336.127 147.62 336.127 149.98ZM343.702 149.7C343.702 147.36 344.742 146.66 346.422 146.66H347.002V144.3C345.442 144.3 344.342 144.98 343.702 146.08V144.48H341.422V155.5H343.702V149.7ZM353.738 146.22C355.438 146.22 356.778 147.3 356.818 149H350.718C350.958 147.26 352.198 146.22 353.738 146.22ZM358.898 152.22H356.438C356.018 153.08 355.238 153.76 353.838 153.76C352.158 153.76 350.858 152.66 350.698 150.84H359.118C359.178 150.46 359.198 150.1 359.198 149.72C359.198 146.48 356.978 144.3 353.838 144.3C350.578 144.3 348.338 146.52 348.338 149.98C348.338 153.44 350.678 155.68 353.838 155.68C356.538 155.68 358.278 154.14 358.898 152.22ZM366.637 155.5H368.917V144.48H366.637V155.5ZM367.797 143.02C368.597 143.02 369.237 142.38 369.237 141.56C369.237 140.74 368.597 140.1 367.797 140.1C366.977 140.1 366.337 140.74 366.337 141.56C366.337 142.38 366.977 143.02 367.797 143.02ZM379.73 155.5H381.99V149C381.99 145.92 380.05 144.3 377.47 144.3C376.15 144.3 374.93 144.84 374.19 145.74V144.48H371.91V155.5H374.19V149.34C374.19 147.32 375.29 146.28 376.97 146.28C378.63 146.28 379.73 147.32 379.73 149.34V155.5ZM393.118 152.42C392.998 148.44 386.778 149.68 386.778 147.46C386.778 146.72 387.418 146.22 388.638 146.22C389.878 146.22 390.618 146.88 390.698 147.84H392.978C392.858 145.64 391.218 144.3 388.718 144.3C386.118 144.3 384.478 145.72 384.478 147.48C384.478 151.52 390.878 150.28 390.878 152.44C390.878 153.2 390.178 153.76 388.858 153.76C387.598 153.76 386.738 153.02 386.658 152.12H384.298C384.398 154.12 386.258 155.68 388.898 155.68C391.498 155.68 393.118 154.28 393.118 152.42ZM395.942 152.44C395.942 154.68 397.162 155.5 399.122 155.5H400.922V153.6H399.522C398.562 153.6 398.242 153.26 398.242 152.44V146.34H400.922V144.48H398.242V141.74H395.942V144.48H394.642V146.34H395.942V152.44ZM402.263 149.94C402.263 153.34 404.563 155.68 407.423 155.68C409.263 155.68 410.583 154.8 411.283 153.86V155.5H413.583V144.48H411.283V146.08C410.603 145.18 409.323 144.3 407.463 144.3C404.563 144.3 402.263 146.54 402.263 149.94ZM411.283 149.98C411.283 152.36 409.663 153.7 407.943 153.7C406.243 153.7 404.603 152.32 404.603 149.94C404.603 147.56 406.243 146.28 407.943 146.28C409.663 146.28 411.283 147.62 411.283 149.98ZM416.578 155.5H418.858V140.7H416.578V155.5ZM421.852 155.5H424.132V140.7H421.852V155.5ZM426.365 149.94C426.365 153.34 428.665 155.68 431.525 155.68C433.365 155.68 434.685 154.8 435.385 153.86V155.5H437.685V144.48H435.385V146.08C434.705 145.18 433.425 144.3 431.565 144.3C428.665 144.3 426.365 146.54 426.365 149.94ZM435.385 149.98C435.385 152.36 433.765 153.7 432.045 153.7C430.345 153.7 428.705 152.32 428.705 149.94C428.705 147.56 430.345 146.28 432.045 146.28C433.765 146.28 435.385 147.62 435.385 149.98ZM441.04 152.44C441.04 154.68 442.26 155.5 444.22 155.5H446.02V153.6H444.62C443.66 153.6 443.34 153.26 443.34 152.44V146.34H446.02V144.48H443.34V141.74H441.04V144.48H439.74V146.34H441.04V152.44ZM448.121 155.5H450.401V144.48H448.121V155.5ZM449.281 143.02C450.081 143.02 450.721 142.38 450.721 141.56C450.721 140.74 450.081 140.1 449.281 140.1C448.461 140.1 447.821 140.74 447.821 141.56C447.821 142.38 448.461 143.02 449.281 143.02ZM463.895 149.98C463.895 146.52 461.415 144.3 458.275 144.3C455.135 144.3 452.655 146.52 452.655 149.98C452.655 153.44 455.035 155.68 458.175 155.68C461.335 155.68 463.895 153.44 463.895 149.98ZM454.975 149.98C454.975 147.48 456.515 146.28 458.235 146.28C459.935 146.28 461.555 147.48 461.555 149.98C461.555 152.48 459.875 153.7 458.175 153.7C456.455 153.7 454.975 152.48 454.975 149.98ZM473.968 155.5H476.228V149C476.228 145.92 474.288 144.3 471.708 144.3C470.388 144.3 469.168 144.84 468.428 145.74V144.48H466.148V155.5H468.428V149.34C468.428 147.32 469.528 146.28 471.208 146.28C472.868 146.28 473.968 147.32 473.968 149.34V155.5Z" fill="#212832"/>
<rect x="0.5" y="123.5" width="616" height="49" stroke="black" stroke-opacity="0.5"/>
<rect y="237" width="617" height="50" fill="white"/>
<path d="M24.6 265.44C26.08 265.44 27.24 264.3 27.24 262.84C27.24 261.36 26.08 260.22 24.6 260.22C23.16 260.22 22 261.36 22 262.84C22 264.3 23.16 265.44 24.6 265.44ZM41.1289 269.5H43.4089V255.6H41.1289V269.5ZM54.2223 269.5H56.4823V263C56.4823 259.92 54.5423 258.3 51.9623 258.3C50.6423 258.3 49.4223 258.84 48.6823 259.74V258.48H46.4023V269.5H48.6823V263.34C48.6823 261.32 49.7823 260.28 51.4623 260.28C53.1223 260.28 54.2223 261.32 54.2223 263.34V269.5ZM59.7506 266.44C59.7506 268.68 60.9706 269.5 62.9306 269.5H64.7306V267.6H63.3306C62.3706 267.6 62.0506 267.26 62.0506 266.44V260.34H64.7306V258.48H62.0506V255.74H59.7506V258.48H58.4506V260.34H59.7506V266.44ZM69.112 263.7C69.112 261.36 70.152 260.66 71.832 260.66H72.412V258.3C70.852 258.3 69.752 258.98 69.112 260.08V258.48H66.832V269.5H69.112V263.7ZM85.0078 263.98C85.0078 260.52 82.5278 258.3 79.3878 258.3C76.2478 258.3 73.7678 260.52 73.7678 263.98C73.7678 267.44 76.1478 269.68 79.2878 269.68C82.4478 269.68 85.0078 267.44 85.0078 263.98ZM76.0878 263.98C76.0878 261.48 77.6278 260.28 79.3478 260.28C81.0478 260.28 82.6678 261.48 82.6678 263.98C82.6678 266.48 80.9878 267.7 79.2878 267.7C77.5678 267.7 76.0878 266.48 76.0878 263.98ZM86.5017 263.94C86.5017 267.34 88.8017 269.68 91.7017 269.68C93.5017 269.68 94.8217 268.84 95.5217 267.84V269.5H97.8217V254.7H95.5217V260.02C94.6817 258.98 93.1617 258.3 91.7217 258.3C88.8017 258.3 86.5017 260.54 86.5017 263.94ZM95.5217 263.98C95.5217 266.36 93.9017 267.7 92.1817 267.7C90.4817 267.7 88.8417 266.32 88.8417 263.94C88.8417 261.56 90.4817 260.28 92.1817 260.28C93.9017 260.28 95.5217 261.62 95.5217 263.98ZM110.796 258.48H108.516V264.62C108.516 266.64 107.416 267.68 105.736 267.68C104.076 267.68 102.976 266.64 102.976 264.62V258.48H100.716V264.96C100.716 268.04 102.676 269.66 105.256 269.66C106.556 269.66 107.796 269.12 108.516 268.18V269.5H110.796V258.48ZM113.045 263.98C113.045 267.44 115.285 269.68 118.445 269.68C121.145 269.68 122.905 268.18 123.525 266.02H121.065C120.645 267.16 119.805 267.76 118.445 267.76C116.605 267.76 115.385 266.4 115.385 263.98C115.385 261.58 116.605 260.22 118.445 260.22C119.805 260.22 120.685 260.9 121.065 261.96H123.525C122.905 259.64 121.145 258.3 118.445 258.3C115.285 258.3 113.045 260.54 113.045 263.98ZM126.157 266.44C126.157 268.68 127.377 269.5 129.337 269.5H131.137V267.6H129.737C128.777 267.6 128.457 267.26 128.457 266.44V260.34H131.137V258.48H128.457V255.74H126.157V258.48H124.857V260.34H126.157V266.44ZM133.238 269.5H135.518V258.48H133.238V269.5ZM134.398 257.02C135.198 257.02 135.838 256.38 135.838 255.56C135.838 254.74 135.198 254.1 134.398 254.1C133.578 254.1 132.938 254.74 132.938 255.56C132.938 256.38 133.578 257.02 134.398 257.02ZM149.012 263.98C149.012 260.52 146.532 258.3 143.392 258.3C140.252 258.3 137.772 260.52 137.772 263.98C137.772 267.44 140.152 269.68 143.292 269.68C146.452 269.68 149.012 267.44 149.012 263.98ZM140.092 263.98C140.092 261.48 141.632 260.28 143.352 260.28C145.052 260.28 146.672 261.48 146.672 263.98C146.672 266.48 144.992 267.7 143.292 267.7C141.572 267.7 140.092 266.48 140.092 263.98ZM159.086 269.5H161.346V263C161.346 259.92 159.406 258.3 156.826 258.3C155.506 258.3 154.286 258.84 153.546 259.74V258.48H151.266V269.5H153.546V263.34C153.546 261.32 154.646 260.28 156.326 260.28C157.986 260.28 159.086 261.32 159.086 263.34V269.5ZM169.809 266.44C169.809 268.68 171.029 269.5 172.989 269.5H174.789V267.6H173.389C172.429 267.6 172.109 267.26 172.109 266.44V260.34H174.789V258.48H172.109V255.74H169.809V258.48H168.509V260.34H169.809V266.44ZM187.391 263.98C187.391 260.52 184.911 258.3 181.771 258.3C178.631 258.3 176.151 260.52 176.151 263.98C176.151 267.44 178.531 269.68 181.671 269.68C184.831 269.68 187.391 267.44 187.391 263.98ZM178.471 263.98C178.471 261.48 180.011 260.28 181.731 260.28C183.431 260.28 185.051 261.48 185.051 263.98C185.051 266.48 183.371 267.7 181.671 267.7C179.951 267.7 178.471 266.48 178.471 263.98ZM194.84 269.5H197.12V255.6H194.84V269.5ZM207.933 269.5H210.193V263C210.193 259.92 208.253 258.3 205.673 258.3C204.353 258.3 203.133 258.84 202.393 259.74V258.48H200.113V269.5H202.393V263.34C202.393 261.32 203.493 260.28 205.173 260.28C206.833 260.28 207.933 261.32 207.933 263.34V269.5ZM213.462 266.44C213.462 268.68 214.682 269.5 216.642 269.5H218.442V267.6H217.042C216.082 267.6 215.762 267.26 215.762 266.44V260.34H218.442V258.48H215.762V255.74H213.462V258.48H212.162V260.34H213.462V266.44ZM225.183 260.22C226.883 260.22 228.223 261.3 228.263 263H222.163C222.403 261.26 223.643 260.22 225.183 260.22ZM230.343 266.22H227.883C227.463 267.08 226.683 267.76 225.283 267.76C223.603 267.76 222.303 266.66 222.143 264.84H230.563C230.623 264.46 230.643 264.1 230.643 263.72C230.643 260.48 228.423 258.3 225.283 258.3C222.023 258.3 219.783 260.52 219.783 263.98C219.783 267.44 222.123 269.68 225.283 269.68C227.983 269.68 229.723 268.14 230.343 266.22ZM235.167 263.7C235.167 261.36 236.207 260.66 237.887 260.66H238.467V258.3C236.907 258.3 235.807 258.98 235.167 260.08V258.48H232.887V269.5H235.167V263.7ZM248.383 269.5H250.643V263C250.643 259.92 248.703 258.3 246.123 258.3C244.803 258.3 243.583 258.84 242.843 259.74V258.48H240.563V269.5H242.843V263.34C242.843 261.32 243.943 260.28 245.623 260.28C247.283 260.28 248.383 261.32 248.383 263.34V269.5ZM258.191 260.22C259.891 260.22 261.231 261.3 261.271 263H255.171C255.411 261.26 256.651 260.22 258.191 260.22ZM263.351 266.22H260.891C260.471 267.08 259.691 267.76 258.291 267.76C256.611 267.76 255.311 266.66 255.151 264.84H263.571C263.631 264.46 263.651 264.1 263.651 263.72C263.651 260.48 261.431 258.3 258.291 258.3C255.031 258.3 252.791 260.52 252.791 263.98C252.791 267.44 255.131 269.68 258.291 269.68C260.991 269.68 262.731 268.14 263.351 266.22ZM266.255 266.44C266.255 268.68 267.475 269.5 269.435 269.5H271.235V267.6H269.835C268.875 267.6 268.555 267.26 268.555 266.44V260.34H271.235V258.48H268.555V255.74H266.255V258.48H264.955V260.34H266.255V266.44ZM277.811 257.46H281.531V269.5H283.811V257.46H287.511V255.6H277.811V257.46ZM294.46 260.22C296.16 260.22 297.5 261.3 297.54 263H291.44C291.68 261.26 292.92 260.22 294.46 260.22ZM299.62 266.22H297.16C296.74 267.08 295.96 267.76 294.56 267.76C292.88 267.76 291.58 266.66 291.42 264.84H299.84C299.9 264.46 299.92 264.1 299.92 263.72C299.92 260.48 297.7 258.3 294.56 258.3C291.3 258.3 289.06 260.52 289.06 263.98C289.06 267.44 291.4 269.68 294.56 269.68C297.26 269.68 299 268.14 299.62 266.22ZM301.404 263.98C301.404 267.44 303.644 269.68 306.804 269.68C309.504 269.68 311.264 268.18 311.884 266.02H309.424C309.004 267.16 308.164 267.76 306.804 267.76C304.964 267.76 303.744 266.4 303.744 263.98C303.744 261.58 304.964 260.22 306.804 260.22C308.164 260.22 309.044 260.9 309.424 261.96H311.884C311.264 259.64 309.504 258.3 306.804 258.3C303.644 258.3 301.404 260.54 301.404 263.98ZM314.156 269.5H316.436V263.34C316.436 261.32 317.536 260.28 319.216 260.28C320.876 260.28 321.976 261.32 321.976 263.34V269.5H324.236V263C324.236 259.92 322.316 258.3 319.856 258.3C318.436 258.3 317.196 258.84 316.436 259.76V254.7H314.156V269.5ZM334.965 269.5H337.225V263C337.225 259.92 335.285 258.3 332.705 258.3C331.385 258.3 330.165 258.84 329.425 259.74V258.48H327.145V269.5H329.425V263.34C329.425 261.32 330.525 260.28 332.205 260.28C333.865 260.28 334.965 261.32 334.965 263.34V269.5ZM350.633 263.98C350.633 260.52 348.153 258.3 345.013 258.3C341.873 258.3 339.393 260.52 339.393 263.98C339.393 267.44 341.773 269.68 344.913 269.68C348.073 269.68 350.633 267.44 350.633 263.98ZM341.713 263.98C341.713 261.48 343.253 260.28 344.973 260.28C346.673 260.28 348.293 261.48 348.293 263.98C348.293 266.48 346.613 267.7 344.913 267.7C343.193 267.7 341.713 266.48 341.713 263.98ZM352.887 269.5H355.167V254.7H352.887V269.5ZM368.66 263.98C368.66 260.52 366.18 258.3 363.04 258.3C359.9 258.3 357.42 260.52 357.42 263.98C357.42 267.44 359.8 269.68 362.94 269.68C366.1 269.68 368.66 267.44 368.66 263.98ZM359.74 263.98C359.74 261.48 361.28 260.28 363 260.28C364.7 260.28 366.32 261.48 366.32 263.98C366.32 266.48 364.64 267.7 362.94 267.7C361.22 267.7 359.74 266.48 359.74 263.98ZM370.154 263.94C370.154 267.34 372.454 269.68 375.354 269.68C377.154 269.68 378.474 268.78 379.174 267.84V269.68C379.174 271.88 377.854 272.96 376.094 272.96C374.514 272.96 373.294 272.18 372.954 271.04H370.694C370.974 273.48 373.154 274.94 376.094 274.94C379.534 274.94 381.474 272.68 381.474 269.68V258.48H379.174V260.08C378.494 259.14 377.154 258.3 375.354 258.3C372.454 258.3 370.154 260.54 370.154 263.94ZM379.174 263.98C379.174 266.36 377.554 267.7 375.834 267.7C374.134 267.7 372.494 266.32 372.494 263.94C372.494 261.56 374.134 260.28 375.834 260.28C377.554 260.28 379.174 261.62 379.174 263.98ZM384.469 269.5H386.749V258.48H384.469V269.5ZM385.629 257.02C386.429 257.02 387.069 256.38 387.069 255.56C387.069 254.74 386.429 254.1 385.629 254.1C384.809 254.1 384.169 254.74 384.169 255.56C384.169 256.38 384.809 257.02 385.629 257.02ZM394.382 260.22C396.082 260.22 397.422 261.3 397.462 263H391.362C391.602 261.26 392.842 260.22 394.382 260.22ZM399.542 266.22H397.082C396.662 267.08 395.882 267.76 394.482 267.76C392.802 267.76 391.502 266.66 391.342 264.84H399.762C399.822 264.46 399.842 264.1 399.842 263.72C399.842 260.48 397.622 258.3 394.482 258.3C391.222 258.3 388.982 260.52 388.982 263.98C388.982 267.44 391.322 269.68 394.482 269.68C397.182 269.68 398.922 268.14 399.542 266.22ZM410.306 266.42C410.186 262.44 403.966 263.68 403.966 261.46C403.966 260.72 404.606 260.22 405.826 260.22C407.066 260.22 407.806 260.88 407.886 261.84H410.166C410.046 259.64 408.406 258.3 405.906 258.3C403.306 258.3 401.666 259.72 401.666 261.48C401.666 265.52 408.066 264.28 408.066 266.44C408.066 267.2 407.366 267.76 406.046 267.76C404.786 267.76 403.926 267.02 403.846 266.12H401.486C401.586 268.12 403.446 269.68 406.086 269.68C408.686 269.68 410.306 268.28 410.306 266.42ZM417.205 263.94C417.205 267.34 419.505 269.68 422.365 269.68C424.205 269.68 425.525 268.8 426.225 267.86V269.5H428.525V258.48H426.225V260.08C425.545 259.18 424.265 258.3 422.405 258.3C419.505 258.3 417.205 260.54 417.205 263.94ZM426.225 263.98C426.225 266.36 424.605 267.7 422.885 267.7C421.185 267.7 419.545 266.32 419.545 263.94C419.545 261.56 421.185 260.28 422.885 260.28C424.605 260.28 426.225 261.62 426.225 263.98ZM439.34 269.5H441.6V263C441.6 259.92 439.66 258.3 437.08 258.3C435.76 258.3 434.54 258.84 433.8 259.74V258.48H431.52V269.5H433.8V263.34C433.8 261.32 434.9 260.28 436.58 260.28C438.24 260.28 439.34 261.32 439.34 263.34V269.5ZM443.748 263.94C443.748 267.34 446.048 269.68 448.948 269.68C450.748 269.68 452.068 268.84 452.768 267.84V269.5H455.068V254.7H452.768V260.02C451.928 258.98 450.408 258.3 448.968 258.3C446.048 258.3 443.748 260.54 443.748 263.94ZM452.768 263.98C452.768 266.36 451.148 267.7 449.428 267.7C447.728 267.7 446.088 266.32 446.088 263.94C446.088 261.56 447.728 260.28 449.428 260.28C451.148 260.28 452.768 261.62 452.768 263.98ZM472.078 269.5H474.358V255.6H472.078V261.56H465.538V255.6H463.258V269.5H465.538V263.42H472.078V269.5ZM476.639 257.46H480.359V269.5H482.639V257.46H486.339V255.6H476.639V257.46ZM488.648 269.5H490.928V259.98L495.188 269.5H496.768L501.008 259.98V269.5H503.288V255.6H500.848L495.988 266.5L491.108 255.6H488.648V269.5ZM506.285 255.6V269.5H513.265V267.66H508.565V255.6H506.285Z" fill="#212832"/>
<rect x="0.5" y="237.5" width="616" height="49" stroke="black" stroke-opacity="0.5"/>
</svg>
