<svg width="617" height="344" viewBox="0 0 617 344" fill="none" xmlns="http://www.w3.org/2000/svg">
<rect y="66" width="617" height="50" fill="white"/>
<path d="M24.6 94.44C26.08 94.44 27.24 93.3 27.24 91.84C27.24 90.36 26.08 89.22 24.6 89.22C23.16 89.22 22 90.36 22 91.84C22 93.3 23.16 94.44 24.6 94.44ZM50.5089 98.5H52.9089L47.9289 84.58H45.2889L40.3089 98.5H42.6889L43.6889 95.66H49.5089L50.5089 98.5ZM48.8689 93.8H44.3289L46.6089 87.34L48.8689 93.8ZM54.3142 92.94C54.3142 96.34 56.6142 98.68 59.5142 98.68C61.3142 98.68 62.6342 97.84 63.3342 96.84V98.5H65.6342V83.7H63.3342V89.02C62.4942 87.98 60.9742 87.3 59.5342 87.3C56.6142 87.3 54.3142 89.54 54.3142 92.94ZM63.3342 92.98C63.3342 95.36 61.7142 96.7 59.9942 96.7C58.2942 96.7 56.6542 95.32 56.6542 92.94C56.6542 90.56 58.2942 89.28 59.9942 89.28C61.7142 89.28 63.3342 90.62 63.3342 92.98ZM67.3289 87.48L71.5089 98.5H74.2289L78.4289 87.48H76.0089L72.8889 96.46L69.7689 87.48H67.3289ZM79.3923 92.94C79.3923 96.34 81.6923 98.68 84.5523 98.68C86.3923 98.68 87.7123 97.8 88.4123 96.86V98.5H90.7123V87.48H88.4123V89.08C87.7323 88.18 86.4523 87.3 84.5923 87.3C81.6923 87.3 79.3923 89.54 79.3923 92.94ZM88.4123 92.98C88.4123 95.36 86.7923 96.7 85.0723 96.7C83.3723 96.7 81.7323 95.32 81.7323 92.94C81.7323 90.56 83.3723 89.28 85.0723 89.28C86.7923 89.28 88.4123 90.62 88.4123 92.98ZM101.527 98.5H103.787V92C103.787 88.92 101.847 87.3 99.267 87.3C97.947 87.3 96.727 87.84 95.987 88.74V87.48H93.707V98.5H95.987V92.34C95.987 90.32 97.087 89.28 98.767 89.28C100.427 89.28 101.527 90.32 101.527 92.34V98.5ZM105.935 92.98C105.935 96.44 108.175 98.68 111.335 98.68C114.035 98.68 115.795 97.18 116.415 95.02H113.955C113.535 96.16 112.695 96.76 111.335 96.76C109.495 96.76 108.275 95.4 108.275 92.98C108.275 90.58 109.495 89.22 111.335 89.22C112.695 89.22 113.575 89.9 113.955 90.96H116.415C115.795 88.64 114.035 87.3 111.335 87.3C108.175 87.3 105.935 89.54 105.935 92.98ZM123.328 89.22C125.028 89.22 126.368 90.3 126.408 92H120.308C120.548 90.26 121.788 89.22 123.328 89.22ZM128.487 95.22H126.028C125.608 96.08 124.828 96.76 123.428 96.76C121.748 96.76 120.448 95.66 120.288 93.84H128.708C128.768 93.46 128.788 93.1 128.788 92.72C128.788 89.48 126.568 87.3 123.428 87.3C120.168 87.3 117.928 89.52 117.928 92.98C117.928 96.44 120.268 98.68 123.428 98.68C126.128 98.68 127.868 97.14 128.487 95.22ZM130.271 92.94C130.271 96.34 132.571 98.68 135.471 98.68C137.271 98.68 138.591 97.84 139.291 96.84V98.5H141.591V83.7H139.291V89.02C138.451 87.98 136.931 87.3 135.491 87.3C132.571 87.3 130.271 89.54 130.271 92.94ZM139.291 92.98C139.291 95.36 137.671 96.7 135.951 96.7C134.251 96.7 132.611 95.32 132.611 92.94C132.611 90.56 134.251 89.28 135.951 89.28C137.671 89.28 139.291 90.62 139.291 92.98ZM155.061 94.62C155.061 95.78 154.481 96.62 153.261 96.62C152.041 96.62 151.481 95.78 151.461 94.62H149.161C149.161 97.14 150.861 98.64 153.261 98.64C155.661 98.64 157.361 97.14 157.361 94.62V84.6H155.061V94.62ZM160.31 92.94C160.31 96.34 162.61 98.68 165.47 98.68C167.31 98.68 168.63 97.8 169.33 96.86V98.5H171.63V87.48H169.33V89.08C168.65 88.18 167.37 87.3 165.51 87.3C162.61 87.3 160.31 89.54 160.31 92.94ZM169.33 92.98C169.33 95.36 167.71 96.7 165.99 96.7C164.29 96.7 162.65 95.32 162.65 92.94C162.65 90.56 164.29 89.28 165.99 89.28C167.71 89.28 169.33 90.62 169.33 92.98ZM173.325 87.48L177.505 98.5H180.225L184.425 87.48H182.005L178.885 96.46L175.765 87.48H173.325ZM185.388 92.94C185.388 96.34 187.688 98.68 190.548 98.68C192.388 98.68 193.708 97.8 194.408 96.86V98.5H196.708V87.48H194.408V89.08C193.728 88.18 192.448 87.3 190.588 87.3C187.688 87.3 185.388 89.54 185.388 92.94ZM194.408 92.98C194.408 95.36 192.788 96.7 191.068 96.7C189.368 96.7 187.728 95.32 187.728 92.94C187.728 90.56 189.368 89.28 191.068 89.28C192.788 89.28 194.408 90.62 194.408 92.98Z" fill="#212832"/>
<rect x="0.5" y="66.5" width="616" height="49" stroke="black" stroke-opacity="0.5"/>
<rect y="294" width="617" height="50" fill="white"/>
<path d="M21.74 320.22H29.96V318.3H21.74V320.22ZM33.4392 320.22H41.6592V318.3H33.4392V320.22ZM45.1384 320.22H53.3584V318.3H45.1384V320.22ZM56.8377 320.22H65.0577V318.3H56.8377V320.22Z" fill="#212832"/>
<rect x="0.5" y="294.5" width="616" height="49" stroke="black" stroke-opacity="0.5"/>
<rect y="180" width="617" height="50" fill="white"/>
<path d="M24.6 208.44C26.08 208.44 27.24 207.3 27.24 205.84C27.24 204.36 26.08 203.22 24.6 203.22C23.16 203.22 22 204.36 22 205.84C22 207.3 23.16 208.44 24.6 208.44ZM50.5089 208.56C50.5089 203.48 43.1489 205.44 43.1489 202.3C43.1489 200.96 44.1689 200.32 45.4889 200.36C46.9289 200.4 47.7489 201.26 47.8289 202.2H50.3489C50.1489 199.82 48.2689 198.42 45.6089 198.42C42.7689 198.42 40.8289 199.94 40.8289 202.38C40.8289 207.5 48.2089 205.32 48.2089 208.68C48.2089 209.86 47.3089 210.72 45.7089 210.72C44.1289 210.72 43.3289 209.8 43.2289 208.66H40.7889C40.7889 211.12 42.9289 212.64 45.7089 212.64C48.8089 212.64 50.5089 210.64 50.5089 208.56ZM57.5392 209.88L54.4392 201.48H51.8992L56.2392 212.32L53.9992 217.68H56.3592L63.1192 201.48H60.7592L57.5392 209.88ZM73.0598 209.42C72.9398 205.44 66.7198 206.68 66.7198 204.46C66.7198 203.72 67.3598 203.22 68.5798 203.22C69.8198 203.22 70.5598 203.88 70.6398 204.84H72.9198C72.7998 202.64 71.1598 201.3 68.6598 201.3C66.0598 201.3 64.4198 202.72 64.4198 204.48C64.4198 208.52 70.8198 207.28 70.8198 209.44C70.8198 210.2 70.1198 210.76 68.7998 210.76C67.5398 210.76 66.6798 210.02 66.5998 209.12H64.2398C64.3398 211.12 66.1998 212.68 68.8398 212.68C71.4398 212.68 73.0598 211.28 73.0598 209.42ZM75.8834 209.44C75.8834 211.68 77.1034 212.5 79.0634 212.5H80.8634V210.6H79.4634C78.5034 210.6 78.1834 210.26 78.1834 209.44V203.34H80.8634V201.48H78.1834V198.74H75.8834V201.48H74.5834V203.34H75.8834V209.44ZM87.6048 203.22C89.3048 203.22 90.6448 204.3 90.6848 206H84.5848C84.8248 204.26 86.0648 203.22 87.6048 203.22ZM92.7648 209.22H90.3048C89.8848 210.08 89.1048 210.76 87.7048 210.76C86.0248 210.76 84.7248 209.66 84.5648 207.84H92.9848C93.0448 207.46 93.0648 207.1 93.0648 206.72C93.0648 203.48 90.8448 201.3 87.7048 201.3C84.4448 201.3 82.2048 203.52 82.2048 206.98C82.2048 210.44 84.5448 212.68 87.7048 212.68C90.4048 212.68 92.1448 211.14 92.7648 209.22ZM110.929 212.5H113.189V206C113.189 202.92 111.229 201.3 108.649 201.3C107.049 201.3 105.489 202.14 104.809 203.48C104.049 202.04 102.589 201.3 100.849 201.3C99.5286 201.3 98.3286 201.84 97.5886 202.74V201.48H95.3086V212.5H97.5886V206.34C97.5886 204.32 98.6886 203.28 100.369 203.28C102.029 203.28 103.129 204.32 103.129 206.34V212.5H105.389V206.34C105.389 204.32 106.489 203.28 108.169 203.28C109.829 203.28 110.929 204.32 110.929 206.34V212.5ZM130.665 212.5H133.065L128.085 198.58H125.445L120.465 212.5H122.845L123.845 209.66H129.665L130.665 212.5ZM129.025 207.8H124.485L126.765 201.34L129.025 207.8ZM143.05 212.5H145.31V206C145.31 202.92 143.37 201.3 140.79 201.3C139.47 201.3 138.25 201.84 137.51 202.74V201.48H135.23V212.5H137.51V206.34C137.51 204.32 138.61 203.28 140.29 203.28C141.95 203.28 143.05 204.32 143.05 206.34V212.5ZM147.459 206.94C147.459 210.34 149.759 212.68 152.619 212.68C154.459 212.68 155.779 211.8 156.479 210.86V212.5H158.779V201.48H156.479V203.08C155.799 202.18 154.519 201.3 152.659 201.3C149.759 201.3 147.459 203.54 147.459 206.94ZM156.479 206.98C156.479 209.36 154.859 210.7 153.139 210.7C151.439 210.7 149.799 209.32 149.799 206.94C149.799 204.56 151.439 203.28 153.139 203.28C154.859 203.28 156.479 204.62 156.479 206.98ZM161.773 212.5H164.053V197.7H161.773V212.5ZM171.387 209.88L168.287 201.48H165.747L170.087 212.32L167.847 217.68H170.207L176.967 201.48H174.607L171.387 209.88ZM186.908 209.42C186.788 205.44 180.568 206.68 180.568 204.46C180.568 203.72 181.208 203.22 182.428 203.22C183.668 203.22 184.408 203.88 184.488 204.84H186.768C186.648 202.64 185.008 201.3 182.508 201.3C179.908 201.3 178.268 202.72 178.268 204.48C178.268 208.52 184.668 207.28 184.668 209.44C184.668 210.2 183.968 210.76 182.648 210.76C181.388 210.76 180.528 210.02 180.448 209.12H178.088C178.188 211.12 180.048 212.68 182.688 212.68C185.288 212.68 186.908 211.28 186.908 209.42ZM189.371 212.5H191.651V201.48H189.371V212.5ZM190.531 200.02C191.331 200.02 191.971 199.38 191.971 198.56C191.971 197.74 191.331 197.1 190.531 197.1C189.711 197.1 189.071 197.74 189.071 198.56C189.071 199.38 189.711 200.02 190.531 200.02ZM202.865 209.42C202.745 205.44 196.525 206.68 196.525 204.46C196.525 203.72 197.165 203.22 198.385 203.22C199.625 203.22 200.365 203.88 200.445 204.84H202.725C202.605 202.64 200.965 201.3 198.465 201.3C195.865 201.3 194.225 202.72 194.225 204.48C194.225 208.52 200.625 207.28 200.625 209.44C200.625 210.2 199.925 210.76 198.605 210.76C197.345 210.76 196.485 210.02 196.405 209.12H194.045C194.145 211.12 196.005 212.68 198.645 212.68C201.245 212.68 202.865 211.28 202.865 209.42ZM209.763 206.94C209.763 210.34 212.063 212.68 214.923 212.68C216.763 212.68 218.083 211.8 218.783 210.86V212.5H221.083V201.48H218.783V203.08C218.103 202.18 216.823 201.3 214.963 201.3C212.063 201.3 209.763 203.54 209.763 206.94ZM218.783 206.98C218.783 209.36 217.163 210.7 215.443 210.7C213.743 210.7 212.103 209.32 212.103 206.94C212.103 204.56 213.743 203.28 215.443 203.28C217.163 203.28 218.783 204.62 218.783 206.98ZM231.898 212.5H234.158V206C234.158 202.92 232.218 201.3 229.638 201.3C228.318 201.3 227.098 201.84 226.358 202.74V201.48H224.078V212.5H226.358V206.34C226.358 204.32 227.458 203.28 229.138 203.28C230.798 203.28 231.898 204.32 231.898 206.34V212.5ZM236.306 206.94C236.306 210.34 238.606 212.68 241.506 212.68C243.306 212.68 244.626 211.84 245.326 210.84V212.5H247.626V197.7H245.326V203.02C244.486 201.98 242.966 201.3 241.526 201.3C238.606 201.3 236.306 203.54 236.306 206.94ZM245.326 206.98C245.326 209.36 243.706 210.7 241.986 210.7C240.286 210.7 238.646 209.32 238.646 206.94C238.646 204.56 240.286 203.28 241.986 203.28C243.706 203.28 245.326 204.62 245.326 206.98ZM260.356 198.6H255.816V212.5H260.356C264.816 212.5 267.736 209.88 267.736 205.6C267.736 201.3 264.816 198.6 260.356 198.6ZM258.096 210.64V200.46H260.356C263.636 200.46 265.396 202.42 265.396 205.6C265.396 208.76 263.636 210.64 260.356 210.64H258.096ZM274.636 203.22C276.336 203.22 277.676 204.3 277.716 206H271.616C271.856 204.26 273.096 203.22 274.636 203.22ZM279.796 209.22H277.336C276.916 210.08 276.136 210.76 274.736 210.76C273.056 210.76 271.756 209.66 271.596 207.84H280.016C280.076 207.46 280.096 207.1 280.096 206.72C280.096 203.48 277.876 201.3 274.736 201.3C271.476 201.3 269.236 203.52 269.236 206.98C269.236 210.44 271.576 212.68 274.736 212.68C277.436 212.68 279.176 211.14 279.796 209.22ZM290.56 209.42C290.44 205.44 284.22 206.68 284.22 204.46C284.22 203.72 284.86 203.22 286.08 203.22C287.32 203.22 288.06 203.88 288.14 204.84H290.42C290.3 202.64 288.66 201.3 286.16 201.3C283.56 201.3 281.92 202.72 281.92 204.48C281.92 208.52 288.32 207.28 288.32 209.44C288.32 210.2 287.62 210.76 286.3 210.76C285.04 210.76 284.18 210.02 284.1 209.12H281.74C281.84 211.12 283.7 212.68 286.34 212.68C288.94 212.68 290.56 211.28 290.56 209.42ZM293.023 212.5H295.303V201.48H293.023V212.5ZM294.183 200.02C294.983 200.02 295.623 199.38 295.623 198.56C295.623 197.74 294.983 197.1 294.183 197.1C293.363 197.1 292.723 197.74 292.723 198.56C292.723 199.38 293.363 200.02 294.183 200.02ZM297.537 206.94C297.537 210.34 299.837 212.68 302.737 212.68C304.537 212.68 305.857 211.78 306.557 210.84V212.68C306.557 214.88 305.237 215.96 303.477 215.96C301.897 215.96 300.677 215.18 300.337 214.04H298.077C298.357 216.48 300.537 217.94 303.477 217.94C306.917 217.94 308.857 215.68 308.857 212.68V201.48H306.557V203.08C305.877 202.14 304.537 201.3 302.737 201.3C299.837 201.3 297.537 203.54 297.537 206.94ZM306.557 206.98C306.557 209.36 304.937 210.7 303.217 210.7C301.517 210.7 299.877 209.32 299.877 206.94C299.877 204.56 301.517 203.28 303.217 203.28C304.937 203.28 306.557 204.62 306.557 206.98ZM319.672 212.5H321.932V206C321.932 202.92 319.992 201.3 317.412 201.3C316.092 201.3 314.872 201.84 314.132 202.74V201.48H311.852V212.5H314.132V206.34C314.132 204.32 315.232 203.28 316.912 203.28C318.572 203.28 319.672 204.32 319.672 206.34V212.5Z" fill="#212832"/>
<rect x="0.5" y="180.5" width="616" height="49" stroke="black" stroke-opacity="0.5"/>
<rect y="123" width="617" height="50" fill="white"/>
<path d="M24.6 151.44C26.08 151.44 27.24 150.3 27.24 148.84C27.24 147.36 26.08 146.22 24.6 146.22C23.16 146.22 22 147.36 22 148.84C22 150.3 23.16 151.44 24.6 151.44ZM48.8089 141.58H41.1289V155.5H48.8089V153.64H43.4089V149.38H48.2089V147.52H43.4089V143.44H48.8089V141.58ZM51.8572 149.22H60.0772V147.3H51.8572V149.22ZM62.5564 148.52C62.5564 152.7 65.7364 155.62 69.6564 155.62C72.5564 155.62 75.0564 154.18 76.1164 151.46H73.3764C72.6364 152.94 71.3164 153.64 69.6564 153.64C66.8964 153.64 64.8964 151.66 64.8964 148.52C64.8964 145.38 66.8964 143.42 69.6564 143.42C71.3164 143.42 72.6364 144.12 73.3764 145.6H76.1164C75.0564 142.88 72.5564 141.42 69.6564 141.42C65.7364 141.42 62.5564 144.36 62.5564 148.52ZM89.2852 149.98C89.2852 146.52 86.8052 144.3 83.6652 144.3C80.5252 144.3 78.0452 146.52 78.0452 149.98C78.0452 153.44 80.4252 155.68 83.5652 155.68C86.7252 155.68 89.2852 153.44 89.2852 149.98ZM80.3652 149.98C80.3652 147.48 81.9052 146.28 83.6252 146.28C85.3252 146.28 86.9452 147.48 86.9452 149.98C86.9452 152.48 85.2652 153.7 83.5652 153.7C81.8452 153.7 80.3652 152.48 80.3652 149.98ZM107.159 155.5H109.419V149C109.419 145.92 107.459 144.3 104.879 144.3C103.279 144.3 101.719 145.14 101.039 146.48C100.279 145.04 98.8191 144.3 97.0791 144.3C95.7591 144.3 94.5591 144.84 93.8191 145.74V144.48H91.5391V155.5H93.8191V149.34C93.8191 147.32 94.9191 146.28 96.5991 146.28C98.2591 146.28 99.3591 147.32 99.3591 149.34V155.5H101.619V149.34C101.619 147.32 102.719 146.28 104.399 146.28C106.059 146.28 107.159 147.32 107.159 149.34V155.5ZM127.94 155.5H130.2V149C130.2 145.92 128.24 144.3 125.66 144.3C124.06 144.3 122.5 145.14 121.82 146.48C121.06 145.04 119.6 144.3 117.86 144.3C116.54 144.3 115.34 144.84 114.6 145.74V144.48H112.32V155.5H114.6V149.34C114.6 147.32 115.7 146.28 117.38 146.28C119.04 146.28 120.14 147.32 120.14 149.34V155.5H122.4V149.34C122.4 147.32 123.5 146.28 125.18 146.28C126.84 146.28 127.94 147.32 127.94 149.34V155.5ZM137.742 146.22C139.442 146.22 140.782 147.3 140.822 149H134.722C134.962 147.26 136.202 146.22 137.742 146.22ZM142.902 152.22H140.442C140.022 153.08 139.242 153.76 137.842 153.76C136.162 153.76 134.862 152.66 134.702 150.84H143.122C143.182 150.46 143.202 150.1 143.202 149.72C143.202 146.48 140.982 144.3 137.842 144.3C134.582 144.3 132.342 146.52 132.342 149.98C132.342 153.44 134.682 155.68 137.842 155.68C140.542 155.68 142.282 154.14 142.902 152.22ZM147.725 149.7C147.725 147.36 148.765 146.66 150.445 146.66H151.025V144.3C149.465 144.3 148.365 144.98 147.725 146.08V144.48H145.445V155.5H147.725V149.7ZM152.361 149.98C152.361 153.44 154.601 155.68 157.761 155.68C160.461 155.68 162.221 154.18 162.841 152.02H160.381C159.961 153.16 159.121 153.76 157.761 153.76C155.921 153.76 154.701 152.4 154.701 149.98C154.701 147.58 155.921 146.22 157.761 146.22C159.121 146.22 160.001 146.9 160.381 147.96H162.841C162.221 145.64 160.461 144.3 157.761 144.3C154.601 144.3 152.361 146.54 152.361 149.98ZM169.753 146.22C171.453 146.22 172.793 147.3 172.833 149H166.733C166.973 147.26 168.213 146.22 169.753 146.22ZM174.913 152.22H172.453C172.033 153.08 171.253 153.76 169.853 153.76C168.173 153.76 166.873 152.66 166.713 150.84H175.133C175.193 150.46 175.213 150.1 175.213 149.72C175.213 146.48 172.993 144.3 169.853 144.3C166.593 144.3 164.353 146.52 164.353 149.98C164.353 153.44 166.693 155.68 169.853 155.68C172.553 155.68 174.293 154.14 174.913 152.22Z" fill="#212832"/>
<rect x="0.5" y="123.5" width="616" height="49" stroke="black" stroke-opacity="0.5"/>
<rect y="237" width="617" height="50" fill="white"/>
<path d="M24.6 265.44C26.08 265.44 27.24 264.3 27.24 262.84C27.24 261.36 26.08 260.22 24.6 260.22C23.16 260.22 22 261.36 22 262.84C22 264.3 23.16 265.44 24.6 265.44ZM41.1289 255.6V269.5H48.1089V267.66H43.4089V255.6H41.1289ZM50.0156 269.5H52.2956V258.48H50.0156V269.5ZM51.1756 257.02C51.9756 257.02 52.6156 256.38 52.6156 255.56C52.6156 254.74 51.9756 254.1 51.1756 254.1C50.3556 254.1 49.7156 254.74 49.7156 255.56C49.7156 256.38 50.3556 257.02 51.1756 257.02ZM63.1091 269.5H65.3691V263C65.3691 259.92 63.4291 258.3 60.8491 258.3C59.5291 258.3 58.3091 258.84 57.5691 259.74V258.48H55.2891V269.5H57.5691V263.34C57.5691 261.32 58.6691 260.28 60.3491 260.28C62.0091 260.28 63.1091 261.32 63.1091 263.34V269.5ZM78.2573 258.48H75.9773V264.62C75.9773 266.64 74.8773 267.68 73.1973 267.68C71.5373 267.68 70.4373 266.64 70.4373 264.62V258.48H68.1773V264.96C68.1773 268.04 70.1373 269.66 72.7173 269.66C74.0173 269.66 75.2573 269.12 75.9773 268.18V269.5H78.2573V258.48ZM86.9656 269.5H89.5456L85.9856 263.92L89.5456 258.48H87.1656L84.9256 262.22L82.5456 258.48H79.9656L83.5256 264.08L79.9656 269.5H82.3456L84.5856 265.76L86.9656 269.5ZM109.881 262.52C109.881 258.36 106.741 255.42 102.781 255.42C98.8614 255.42 95.6814 258.36 95.6814 262.52C95.6814 266.7 98.8614 269.64 102.781 269.64C106.741 269.64 109.881 266.7 109.881 262.52ZM98.0214 262.52C98.0214 259.38 100.021 257.42 102.781 257.42C105.541 257.42 107.541 259.38 107.541 262.52C107.541 265.66 105.541 267.66 102.781 267.66C100.021 267.66 98.0214 265.66 98.0214 262.52ZM114.405 260.1V258.48H112.125V274.74H114.405V267.9C115.125 268.76 116.425 269.68 118.245 269.68C121.145 269.68 123.425 267.34 123.425 263.94C123.425 260.54 121.145 258.3 118.245 258.3C116.445 258.3 115.105 259.18 114.405 260.1ZM121.105 263.94C121.105 266.32 119.465 267.7 117.745 267.7C116.045 267.7 114.405 266.36 114.405 263.98C114.405 261.62 116.045 260.28 117.745 260.28C119.465 260.28 121.105 261.56 121.105 263.94ZM130.32 260.22C132.02 260.22 133.36 261.3 133.4 263H127.3C127.54 261.26 128.78 260.22 130.32 260.22ZM135.48 266.22H133.02C132.6 267.08 131.82 267.76 130.42 267.76C128.74 267.76 127.44 266.66 127.28 264.84H135.7C135.76 264.46 135.78 264.1 135.78 263.72C135.78 260.48 133.56 258.3 130.42 258.3C127.16 258.3 124.92 260.52 124.92 263.98C124.92 267.44 127.26 269.68 130.42 269.68C133.12 269.68 134.86 268.14 135.48 266.22ZM140.303 263.7C140.303 261.36 141.343 260.66 143.023 260.66H143.603V258.3C142.043 258.3 140.943 258.98 140.303 260.08V258.48H138.023V269.5H140.303V263.7ZM144.939 263.94C144.939 267.34 147.239 269.68 150.099 269.68C151.939 269.68 153.259 268.8 153.959 267.86V269.5H156.259V258.48H153.959V260.08C153.279 259.18 151.999 258.3 150.139 258.3C147.239 258.3 144.939 260.54 144.939 263.94ZM153.959 263.98C153.959 266.36 152.339 267.7 150.619 267.7C148.919 267.7 147.279 266.32 147.279 263.94C147.279 261.56 148.919 260.28 150.619 260.28C152.339 260.28 153.959 261.62 153.959 263.98ZM159.614 266.44C159.614 268.68 160.834 269.5 162.794 269.5H164.594V267.6H163.194C162.234 267.6 161.914 267.26 161.914 266.44V260.34H164.594V258.48H161.914V255.74H159.614V258.48H158.314V260.34H159.614V266.44ZM166.695 269.5H168.975V258.48H166.695V269.5ZM167.855 257.02C168.655 257.02 169.295 256.38 169.295 255.56C169.295 254.74 168.655 254.1 167.855 254.1C167.035 254.1 166.395 254.74 166.395 255.56C166.395 256.38 167.035 257.02 167.855 257.02ZM179.789 269.5H182.049V263C182.049 259.92 180.109 258.3 177.529 258.3C176.209 258.3 174.989 258.84 174.249 259.74V258.48H171.969V269.5H174.249V263.34C174.249 261.32 175.349 260.28 177.029 260.28C178.689 260.28 179.789 261.32 179.789 263.34V269.5ZM184.197 263.94C184.197 267.34 186.497 269.68 189.397 269.68C191.197 269.68 192.517 268.78 193.217 267.84V269.68C193.217 271.88 191.897 272.96 190.137 272.96C188.557 272.96 187.337 272.18 186.997 271.04H184.737C185.017 273.48 187.197 274.94 190.137 274.94C193.577 274.94 195.517 272.68 195.517 269.68V258.48H193.217V260.08C192.537 259.14 191.197 258.3 189.397 258.3C186.497 258.3 184.197 260.54 184.197 263.94ZM193.217 263.98C193.217 266.36 191.597 267.7 189.877 267.7C188.177 267.7 186.537 266.32 186.537 263.94C186.537 261.56 188.177 260.28 189.877 260.28C191.597 260.28 193.217 261.62 193.217 263.98ZM213.087 265.56C213.087 260.48 205.727 262.44 205.727 259.3C205.727 257.96 206.747 257.32 208.067 257.36C209.507 257.4 210.327 258.26 210.407 259.2H212.927C212.727 256.82 210.847 255.42 208.187 255.42C205.347 255.42 203.407 256.94 203.407 259.38C203.407 264.5 210.787 262.32 210.787 265.68C210.787 266.86 209.887 267.72 208.287 267.72C206.707 267.72 205.907 266.8 205.807 265.66H203.367C203.367 268.12 205.507 269.64 208.287 269.64C211.387 269.64 213.087 267.64 213.087 265.56ZM220.117 266.88L217.017 258.48H214.477L218.817 269.32L216.577 274.68H218.937L225.697 258.48H223.337L220.117 266.88ZM235.638 266.42C235.518 262.44 229.298 263.68 229.298 261.46C229.298 260.72 229.938 260.22 231.158 260.22C232.398 260.22 233.138 260.88 233.218 261.84H235.498C235.378 259.64 233.738 258.3 231.238 258.3C228.638 258.3 226.998 259.72 226.998 261.48C226.998 265.52 233.398 264.28 233.398 266.44C233.398 267.2 232.698 267.76 231.378 267.76C230.118 267.76 229.258 267.02 229.178 266.12H226.818C226.918 268.12 228.778 269.68 231.418 269.68C234.018 269.68 235.638 268.28 235.638 266.42ZM238.462 266.44C238.462 268.68 239.682 269.5 241.642 269.5H243.442V267.6H242.042C241.082 267.6 240.762 267.26 240.762 266.44V260.34H243.442V258.48H240.762V255.74H238.462V258.48H237.162V260.34H238.462V266.44ZM250.183 260.22C251.883 260.22 253.223 261.3 253.263 263H247.163C247.403 261.26 248.643 260.22 250.183 260.22ZM255.343 266.22H252.883C252.463 267.08 251.683 267.76 250.283 267.76C248.603 267.76 247.303 266.66 247.143 264.84H255.563C255.623 264.46 255.643 264.1 255.643 263.72C255.643 260.48 253.423 258.3 250.283 258.3C247.023 258.3 244.783 260.52 244.783 263.98C244.783 267.44 247.123 269.68 250.283 269.68C252.983 269.68 254.723 268.14 255.343 266.22ZM273.507 269.5H275.767V263C275.767 259.92 273.807 258.3 271.227 258.3C269.627 258.3 268.067 259.14 267.387 260.48C266.627 259.04 265.167 258.3 263.427 258.3C262.107 258.3 260.907 258.84 260.167 259.74V258.48H257.887V269.5H260.167V263.34C260.167 261.32 261.267 260.28 262.947 260.28C264.607 260.28 265.707 261.32 265.707 263.34V269.5H267.967V263.34C267.967 261.32 269.067 260.28 270.747 260.28C272.407 260.28 273.507 261.32 273.507 263.34V269.5Z" fill="#212832"/>
<rect x="0.5" y="237.5" width="616" height="49" stroke="black" stroke-opacity="0.5"/>
<rect width="617" height="58" fill="#3498DB"/>
<path d="M33.925 32.95C33.925 26.8 24.975 28.75 24.975 25.25C24.975 23.825 26 23.15 27.375 23.2C28.875 23.225 29.8 24.125 29.875 25.275H33.725C33.5 22.125 31.05 20.3 27.475 20.3C23.875 20.3 21.325 22.2 21.325 25.35C21.3 31.675 30.3 29.4 30.3 33.175C30.3 34.425 29.325 35.3 27.675 35.3C26.05 35.3 25.125 34.375 25.025 32.975H21.275C21.325 36.275 24.125 38.175 27.75 38.175C31.725 38.175 33.925 35.7 33.925 32.95ZM43.4094 26.8C45.2094 26.8 46.6594 27.95 46.7094 29.775H40.1344C40.4094 27.875 41.7344 26.8 43.4094 26.8ZM49.9844 33.65H46.2094C45.7594 34.575 44.9344 35.325 43.4344 35.325C41.6844 35.325 40.2844 34.175 40.1094 32.125H50.2344C50.3094 31.675 50.3344 31.225 50.3344 30.775C50.3344 26.65 47.5094 23.925 43.5094 23.925C39.4094 23.925 36.5594 26.7 36.5594 31.075C36.5594 35.425 39.4844 38.225 43.5094 38.225C46.9344 38.225 49.2344 36.2 49.9844 33.65ZM72.7641 38H76.2641V29.875C76.2641 26.05 73.9141 23.95 70.5891 23.95C68.5641 23.95 66.7391 25.025 65.8391 26.6C64.8891 24.875 63.1141 23.95 60.9641 23.95C59.2391 23.95 57.7641 24.675 56.8891 25.825V24.15H53.3891V38H56.8891V30.35C56.8891 28.15 58.1141 27 60.0141 27C61.8641 27 63.0891 28.15 63.0891 30.35V38H66.5891V30.35C66.5891 28.15 67.8141 27 69.6891 27C71.5391 27 72.7641 28.15 72.7641 30.35V38ZM86.0354 26.8C87.8354 26.8 89.2854 27.95 89.3354 29.775H82.7604C83.0354 27.875 84.3604 26.8 86.0354 26.8ZM92.6104 33.65H88.8354C88.3854 34.575 87.5604 35.325 86.0604 35.325C84.3104 35.325 82.9104 34.175 82.7354 32.125H92.8604C92.9354 31.675 92.9604 31.225 92.9604 30.775C92.9604 26.65 90.1354 23.925 86.1354 23.925C82.0354 23.925 79.1854 26.7 79.1854 31.075C79.1854 35.425 82.1104 38.225 86.1354 38.225C89.5604 38.225 91.8604 36.2 92.6104 33.65ZM106.765 34.05C106.665 28.975 98.99 30.55 98.99 28.025C98.99 27.225 99.665 26.7 100.965 26.7C102.34 26.7 103.19 27.425 103.29 28.5H106.64C106.44 25.75 104.415 23.925 101.065 23.925C97.64 23.925 95.59 25.775 95.59 28.075C95.59 33.15 103.415 31.575 103.415 34.05C103.415 34.85 102.665 35.475 101.29 35.475C99.89 35.475 98.915 34.675 98.79 33.625H95.265C95.415 36.2 97.84 38.225 101.315 38.225C104.69 38.225 106.765 36.425 106.765 34.05ZM110.688 33.7C110.688 36.875 112.463 38 115.113 38H117.313V35.05H115.688C114.588 35.05 114.213 34.65 114.213 33.725V27.025H117.313V24.15H114.213V20.725H110.688V24.15H109.038V27.025H110.688V33.7ZM126.28 26.8C128.08 26.8 129.53 27.95 129.58 29.775H123.005C123.28 27.875 124.605 26.8 126.28 26.8ZM132.855 33.65H129.08C128.63 34.575 127.805 35.325 126.305 35.325C124.555 35.325 123.155 34.175 122.98 32.125H133.105C133.18 31.675 133.205 31.225 133.205 30.775C133.205 26.65 130.38 23.925 126.38 23.925C122.28 23.925 119.43 26.7 119.43 31.075C119.43 35.425 122.355 38.225 126.38 38.225C129.805 38.225 132.105 36.2 132.855 33.65ZM139.76 31.1C139.76 28.425 141.01 27.625 143.085 27.625H144.01V23.95C142.085 23.95 140.635 24.875 139.76 26.3V24.15H136.26V38H139.76V31.1ZM161.525 38H165.025V34.45H167.225V31.4H165.025V20H160.95L152.775 31.7V34.45H161.525V38ZM156.625 31.4L161.75 23.75V31.4H156.625Z" fill="white"/>
</svg>
