<svg width="619" height="430" viewBox="0 0 619 430" fill="none" xmlns="http://www.w3.org/2000/svg">
<rect width="619" height="430" fill="#F5F5F5"/>
<path d="M0 343C0 340.239 2.23858 338 5 338H80C82.7614 338 85 340.239 85 343V430H0V343Z" fill="url(#paint0_linear_0_1)" style="mix-blend-mode:multiply"/>
<path d="M133 284C133 281.239 135.239 279 138 279H213C215.761 279 218 281.239 218 284V430H133V284Z" fill="url(#paint1_linear_0_1)" style="mix-blend-mode:multiply"/>
<path d="M265 207C265 204.239 267.239 202 270 202H345C347.761 202 350 204.239 350 207V430H265V207Z" fill="url(#paint2_linear_0_1)" style="mix-blend-mode:multiply"/>
<path d="M397 141C397 138.239 399.239 136 402 136H477C479.761 136 482 138.239 482 141V430H397V141Z" fill="url(#paint3_linear_0_1)" style="mix-blend-mode:multiply"/>
<path d="M529 55C529 52.2386 531.239 50 534 50H609C611.761 50 614 52.2386 614 55V430H529V55Z" fill="url(#paint4_linear_0_1)" style="mix-blend-mode:multiply"/>
<path d="M29.9378 306.85C29.9378 308.325 28.9378 309.15 27.2378 309.15H23.7128V304.45H27.1628C28.8628 304.45 29.9378 305.35 29.9378 306.85ZM29.5128 299.575C29.5128 301 28.5628 301.75 26.9128 301.75H23.7128V297.375H26.9128C28.5628 297.375 29.5128 298.175 29.5128 299.575ZM33.4878 307.275C33.4878 305.225 32.0878 303.4 30.1128 303.05C31.8128 302.5 33.0878 301.175 33.0878 299.05C33.0878 296.45 31.0628 294.55 27.4128 294.55H20.2128V312H27.7378C31.3628 312 33.4878 310.05 33.4878 307.275ZM46.0022 306.85C46.0022 308.325 45.0022 309.15 43.3022 309.15H39.7772V304.45H43.2272C44.9272 304.45 46.0022 305.35 46.0022 306.85ZM45.5772 299.575C45.5772 301 44.6272 301.75 42.9772 301.75H39.7772V297.375H42.9772C44.6272 297.375 45.5772 298.175 45.5772 299.575ZM49.5522 307.275C49.5522 305.225 48.1522 303.4 46.1772 303.05C47.8772 302.5 49.1522 301.175 49.1522 299.05C49.1522 296.45 47.1272 294.55 43.4772 294.55H36.2772V312H43.8022C47.4272 312 49.5522 310.05 49.5522 307.275ZM64.1917 312H67.8917L61.6167 294.525H57.5417L51.2667 312H54.9417L56.0917 308.675H63.0417L64.1917 312ZM62.0917 305.875H57.0417L59.5667 298.575L62.0917 305.875Z" fill="black"/>
<path d="M160.875 245.85C160.875 247.325 159.875 248.15 158.175 248.15H154.65V243.45H158.1C159.8 243.45 160.875 244.35 160.875 245.85ZM160.45 238.575C160.45 240 159.5 240.75 157.85 240.75H154.65V236.375H157.85C159.5 236.375 160.45 237.175 160.45 238.575ZM164.425 246.275C164.425 244.225 163.025 242.4 161.05 242.05C162.75 241.5 164.025 240.175 164.025 238.05C164.025 235.45 162 233.55 158.35 233.55H151.15V251H158.675C162.3 251 164.425 249.05 164.425 246.275ZM166.365 242.25C166.365 247.475 170.19 251.15 175.215 251.15C179.09 251.15 182.24 249.1 183.415 245.5H179.39C178.565 247.2 177.065 248.025 175.19 248.025C172.14 248.025 169.965 245.775 169.965 242.25C169.965 238.7 172.14 236.475 175.19 236.475C177.065 236.475 178.565 237.3 179.39 238.975H183.415C182.24 235.4 179.09 233.325 175.215 233.325C170.19 233.325 166.365 237.025 166.365 242.25ZM198.254 251H201.954L195.679 233.525H191.604L185.329 251H189.004L190.154 247.675H197.104L198.254 251ZM196.154 244.875H191.104L193.629 237.575L196.154 244.875Z" fill="black"/>
<path d="M413.002 109H416.502V97.65L421.202 109H423.852L428.527 97.65V109H432.027V91.55H428.077L422.527 104.525L416.977 91.55H413.002V109ZM445.213 103.85C445.213 105.325 444.213 106.15 442.513 106.15H438.988V101.45H442.438C444.138 101.45 445.213 102.35 445.213 103.85ZM444.788 96.575C444.788 98 443.838 98.75 442.188 98.75H438.988V94.375H442.188C443.838 94.375 444.788 95.175 444.788 96.575ZM448.763 104.275C448.763 102.225 447.363 100.4 445.388 100.05C447.088 99.5 448.363 98.175 448.363 96.05C448.363 93.45 446.338 91.55 442.688 91.55H435.488V109H443.013C446.638 109 448.763 107.05 448.763 104.275ZM463.402 109H467.102L460.827 91.525H456.752L450.477 109H454.152L455.302 105.675H462.252L463.402 109ZM461.302 102.875H456.252L458.777 95.575L461.302 102.875Z" fill="black"/>
<path d="M541.982 20H545.682L539.407 2.525H535.332L529.057 20H532.732L533.882 16.675H540.832L541.982 20ZM539.882 13.875H534.832L537.357 6.575L539.882 13.875ZM548.028 20H551.528V6.15H548.028V20ZM549.803 4.5C551.028 4.5 551.953 3.6 551.953 2.45C551.953 1.3 551.028 0.399999 549.803 0.399999C548.553 0.399999 547.653 1.3 547.653 2.45C547.653 3.6 548.553 4.5 549.803 4.5ZM572.643 6.6C572.768 4.2 571.068 2.175 567.793 2.175C564.593 2.175 562.668 4.025 562.668 6.4C562.668 7.55 563.018 8.5 563.943 9.625C561.368 10.775 560.093 12.7 560.093 14.95C560.093 18.2 562.643 20.3 566.543 20.3C568.918 20.3 570.843 19.575 572.468 18.125L574.368 20H578.668L574.443 15.825C574.818 15.25 575.168 14.65 575.518 13.975L577.268 10.9H573.618L572.193 13.275C572.143 13.35 572.118 13.425 572.068 13.475L567.668 9.125C566.568 7.975 566.068 7.225 566.068 6.375C566.068 5.525 566.743 4.9 567.693 4.9C568.618 4.9 569.293 5.475 569.243 6.6H572.643ZM566.643 17.4C564.743 17.4 563.543 16.225 563.543 14.75C563.543 13.475 564.318 12.425 565.968 11.7L570.268 15.95C569.243 16.9 568.068 17.4 566.643 17.4ZM586.358 20H589.858V8.65L594.558 20H597.208L601.883 8.65V20H605.383V2.55H601.433L595.883 15.525L590.333 2.55H586.358V20ZM608.843 2.55V20H618.093V17.225H612.343V2.55H608.843Z" fill="black"/>
<path d="M277.507 168.85C277.507 170.325 276.507 171.15 274.807 171.15H271.282V166.45H274.732C276.432 166.45 277.507 167.35 277.507 168.85ZM277.082 161.575C277.082 163 276.132 163.75 274.482 163.75H271.282V159.375H274.482C276.132 159.375 277.082 160.175 277.082 161.575ZM281.057 169.275C281.057 167.225 279.657 165.4 277.682 165.05C279.382 164.5 280.657 163.175 280.657 161.05C280.657 158.45 278.632 156.55 274.982 156.55H267.782V174H275.307C278.932 174 281.057 172.05 281.057 169.275ZM287.521 172.125C287.521 170.975 286.621 170.075 285.396 170.075C284.121 170.075 283.221 170.975 283.221 172.125C283.221 173.275 284.121 174.175 285.396 174.175C286.621 174.175 287.521 173.275 287.521 172.125ZM289.49 165.25C289.49 170.475 293.315 174.15 298.34 174.15C302.215 174.15 305.365 172.1 306.54 168.5H302.515C301.69 170.2 300.19 171.025 298.315 171.025C295.265 171.025 293.09 168.775 293.09 165.25C293.09 161.7 295.265 159.475 298.315 159.475C300.19 159.475 301.69 160.3 302.515 161.975H306.54C305.365 158.4 302.215 156.325 298.34 156.325C293.315 156.325 289.49 160.025 289.49 165.25ZM322.905 167.075C322.905 162.7 319.78 159.925 315.78 159.925C311.78 159.925 308.655 162.7 308.655 167.075C308.655 171.425 311.68 174.225 315.68 174.225C319.705 174.225 322.905 171.425 322.905 167.075ZM312.205 167.075C312.205 164.3 313.88 162.975 315.73 162.975C317.58 162.975 319.305 164.3 319.305 167.075C319.305 169.825 317.53 171.175 315.68 171.175C313.805 171.175 312.205 169.825 312.205 167.075ZM344.847 174H348.347V165.875C348.347 162.05 345.997 159.95 342.672 159.95C340.647 159.95 338.822 161.025 337.922 162.6C336.972 160.875 335.197 159.95 333.047 159.95C331.322 159.95 329.847 160.675 328.972 161.825V160.15H325.472V174H328.972V166.35C328.972 164.15 330.197 163 332.097 163C333.947 163 335.172 164.15 335.172 166.35V174H338.672V166.35C338.672 164.15 339.897 163 341.772 163C343.622 163 344.847 164.15 344.847 166.35V174Z" fill="black"/>
<rect x="3" y="314" width="80" height="22" rx="11" fill="#3078E3" fill-opacity="0.56"/>
<rect x="136" y="255" width="80" height="22" rx="11" fill="#3078E3" fill-opacity="0.56"/>
<rect x="267" y="178" width="80" height="22" rx="11" fill="#3078E3" fill-opacity="0.56"/>
<rect x="400" y="112" width="80" height="22" rx="11" fill="#3078E3" fill-opacity="0.56"/>
<rect x="532" y="25" width="80" height="22" rx="11" fill="#3078E3" fill-opacity="0.56"/>
<path d="M32.7008 329H34.2848V320.981H31.6338V322.4H32.7008V329ZM35.7181 328.89H41.1521V327.614H37.9071C39.1831 326.536 40.9761 325.084 40.9761 323.225C40.9761 321.828 40.1071 320.805 38.3801 320.805C36.9391 320.805 35.7621 321.652 35.7071 323.489H37.2031C37.2141 322.642 37.6211 322.114 38.3581 322.114C39.1171 322.114 39.4361 322.598 39.4361 323.313C39.4361 324.787 37.5331 326.206 35.7181 327.746V328.89ZM42.1226 324.886C42.1226 327.229 42.8266 328.978 45.0926 328.978C47.3586 328.978 48.0626 327.229 48.0626 324.886C48.0626 322.565 47.3586 320.827 45.0926 320.827C42.8266 320.827 42.1226 322.565 42.1226 324.886ZM46.5446 324.886C46.5446 326.316 46.3906 327.548 45.0926 327.548C43.7946 327.548 43.6406 326.316 43.6406 324.886C43.6406 323.511 43.7946 322.257 45.0926 322.257C46.3906 322.257 46.5446 323.511 46.5446 324.886ZM49.2339 324.886C49.2339 327.229 49.9379 328.978 52.2039 328.978C54.4699 328.978 55.1739 327.229 55.1739 324.886C55.1739 322.565 54.4699 320.827 52.2039 320.827C49.9379 320.827 49.2339 322.565 49.2339 324.886ZM53.6559 324.886C53.6559 326.316 53.5019 327.548 52.2039 327.548C50.9059 327.548 50.7519 326.316 50.7519 324.886C50.7519 323.511 50.9059 322.257 52.2039 322.257C53.5019 322.257 53.6559 323.511 53.6559 324.886Z" fill="black"/>
<path d="M164.841 271H166.425V262.981H163.774V264.4H164.841V271ZM173.534 264.983C173.413 263.85 172.643 262.794 171.004 262.794C168.969 262.794 168.122 264.246 168.122 266.864C168.122 269.35 168.716 271.022 171.092 271.022C172.808 271.022 173.765 269.889 173.765 268.338C173.765 266.666 172.764 265.72 171.334 265.72C170.553 265.72 169.827 266.05 169.464 266.655C169.486 264.807 169.948 264.059 170.949 264.059C171.642 264.059 171.961 264.389 172.104 264.983H173.534ZM170.982 266.985C171.873 266.985 172.302 267.546 172.302 268.371C172.302 269.196 171.807 269.713 171.015 269.713C170.113 269.713 169.607 269.174 169.607 268.316C169.607 267.403 170.267 266.985 170.982 266.985ZM174.982 266.886C174.982 269.229 175.686 270.978 177.952 270.978C180.218 270.978 180.922 269.229 180.922 266.886C180.922 264.565 180.218 262.827 177.952 262.827C175.686 262.827 174.982 264.565 174.982 266.886ZM179.404 266.886C179.404 268.316 179.25 269.548 177.952 269.548C176.654 269.548 176.5 268.316 176.5 266.886C176.5 265.511 176.654 264.257 177.952 264.257C179.25 264.257 179.404 265.511 179.404 266.886ZM182.094 266.886C182.094 269.229 182.798 270.978 185.064 270.978C187.33 270.978 188.034 269.229 188.034 266.886C188.034 264.565 187.33 262.827 185.064 262.827C182.798 262.827 182.094 264.565 182.094 266.886ZM186.516 266.886C186.516 268.316 186.362 269.548 185.064 269.548C183.766 269.548 183.612 268.316 183.612 266.886C183.612 265.511 183.766 264.257 185.064 264.257C186.362 264.257 186.516 265.511 186.516 266.886Z" fill="black"/>
<path d="M295.733 192.89H301.167V191.614H297.922C299.198 190.536 300.991 189.084 300.991 187.225C300.991 185.828 300.122 184.805 298.395 184.805C296.954 184.805 295.777 185.652 295.722 187.489H297.218C297.229 186.642 297.636 186.114 298.373 186.114C299.132 186.114 299.451 186.598 299.451 187.313C299.451 188.787 297.548 190.206 295.733 191.746V192.89ZM303.017 193H304.601V184.981H301.95V186.4H303.017V193ZM306.123 188.886C306.123 191.229 306.827 192.978 309.093 192.978C311.359 192.978 312.063 191.229 312.063 188.886C312.063 186.565 311.359 184.827 309.093 184.827C306.827 184.827 306.123 186.565 306.123 188.886ZM310.545 188.886C310.545 190.316 310.391 191.548 309.093 191.548C307.795 191.548 307.641 190.316 307.641 188.886C307.641 187.511 307.795 186.257 309.093 186.257C310.391 186.257 310.545 187.511 310.545 188.886ZM313.234 188.886C313.234 191.229 313.938 192.978 316.204 192.978C318.47 192.978 319.174 191.229 319.174 188.886C319.174 186.565 318.47 184.827 316.204 184.827C313.938 184.827 313.234 186.565 313.234 188.886ZM317.656 188.886C317.656 190.316 317.502 191.548 316.204 191.548C314.906 191.548 314.752 190.316 314.752 188.886C314.752 187.511 314.906 186.257 316.204 186.257C317.502 186.257 317.656 187.511 317.656 188.886Z" fill="black"/>
<path d="M428.709 120.093H430.216C430.271 119.587 430.59 119.103 431.338 119.103C432.042 119.103 432.427 119.477 432.427 120.104C432.427 120.896 431.767 121.149 430.865 121.149H430.546V122.414H430.865C432.009 122.414 432.581 122.744 432.581 123.646C432.581 124.284 432.185 124.768 431.415 124.768C430.59 124.768 430.128 124.273 430.095 123.58H428.599C428.665 125.263 429.864 126.055 431.448 126.055C433.131 126.055 434.055 125.087 434.055 123.778C434.055 122.689 433.516 122.029 432.702 121.776V121.732C433.285 121.534 433.912 120.918 433.912 119.917C433.912 118.729 433.032 117.794 431.382 117.794C429.842 117.794 428.786 118.608 428.709 120.093ZM436.151 126H437.735V117.981H435.084V119.4H436.151V126ZM439.257 121.886C439.257 124.229 439.961 125.978 442.227 125.978C444.493 125.978 445.197 124.229 445.197 121.886C445.197 119.565 444.493 117.827 442.227 117.827C439.961 117.827 439.257 119.565 439.257 121.886ZM443.679 121.886C443.679 123.316 443.525 124.548 442.227 124.548C440.929 124.548 440.775 123.316 440.775 121.886C440.775 120.511 440.929 119.257 442.227 119.257C443.525 119.257 443.679 120.511 443.679 121.886ZM446.368 121.886C446.368 124.229 447.072 125.978 449.338 125.978C451.604 125.978 452.308 124.229 452.308 121.886C452.308 119.565 451.604 117.827 449.338 117.827C447.072 117.827 446.368 119.565 446.368 121.886ZM450.79 121.886C450.79 123.316 450.636 124.548 449.338 124.548C448.04 124.548 447.886 123.316 447.886 121.886C447.886 120.511 448.04 119.257 449.338 119.257C450.636 119.257 450.79 120.511 450.79 121.886Z" fill="black"/>
<path d="M559.065 34.093H560.572C560.627 33.587 560.946 33.103 561.694 33.103C562.398 33.103 562.783 33.477 562.783 34.104C562.783 34.896 562.123 35.149 561.221 35.149H560.902V36.414H561.221C562.365 36.414 562.937 36.744 562.937 37.646C562.937 38.284 562.541 38.768 561.771 38.768C560.946 38.768 560.484 38.273 560.451 37.58H558.955C559.021 39.263 560.22 40.055 561.804 40.055C563.487 40.055 564.411 39.087 564.411 37.778C564.411 36.689 563.872 36.029 563.058 35.776V35.732C563.641 35.534 564.268 34.918 564.268 33.917C564.268 32.729 563.388 31.794 561.738 31.794C560.198 31.794 559.142 32.608 559.065 34.093ZM569.412 40H570.952V38.438H571.92V37.096H570.952V32.08H569.159L565.562 37.228V38.438H569.412V40ZM567.256 37.096L569.511 33.73V37.096H567.256ZM572.9 35.886C572.9 38.229 573.604 39.978 575.87 39.978C578.136 39.978 578.84 38.229 578.84 35.886C578.84 33.565 578.136 31.827 575.87 31.827C573.604 31.827 572.9 33.565 572.9 35.886ZM577.322 35.886C577.322 37.316 577.168 38.548 575.87 38.548C574.572 38.548 574.418 37.316 574.418 35.886C574.418 34.511 574.572 33.257 575.87 33.257C577.168 33.257 577.322 34.511 577.322 35.886ZM580.012 35.886C580.012 38.229 580.716 39.978 582.982 39.978C585.248 39.978 585.952 38.229 585.952 35.886C585.952 33.565 585.248 31.827 582.982 31.827C580.716 31.827 580.012 33.565 580.012 35.886ZM584.434 35.886C584.434 37.316 584.28 38.548 582.982 38.548C581.684 38.548 581.53 37.316 581.53 35.886C581.53 34.511 581.684 33.257 582.982 33.257C584.28 33.257 584.434 34.511 584.434 35.886Z" fill="black"/>
<defs>
<linearGradient id="paint0_linear_0_1" x1="42.5" y1="338" x2="42.5" y2="430" gradientUnits="userSpaceOnUse">
<stop stop-color="#2054A0"/>
<stop offset="1" stop-color="#327EED"/>
</linearGradient>
<linearGradient id="paint1_linear_0_1" x1="175.5" y1="279" x2="175.5" y2="430" gradientUnits="userSpaceOnUse">
<stop stop-color="#2054A0"/>
<stop offset="1" stop-color="#327EED"/>
</linearGradient>
<linearGradient id="paint2_linear_0_1" x1="307.5" y1="202" x2="307.5" y2="430" gradientUnits="userSpaceOnUse">
<stop stop-color="#2054A0"/>
<stop offset="1" stop-color="#327EED"/>
</linearGradient>
<linearGradient id="paint3_linear_0_1" x1="439.5" y1="136" x2="439.5" y2="430" gradientUnits="userSpaceOnUse">
<stop stop-color="#2054A0"/>
<stop offset="1" stop-color="#327EED"/>
</linearGradient>
<linearGradient id="paint4_linear_0_1" x1="571.5" y1="50" x2="571.5" y2="430" gradientUnits="userSpaceOnUse">
<stop stop-color="#2054A0"/>
<stop offset="1" stop-color="#327EED"/>
</linearGradient>
</defs>
</svg>
