<svg width="1240" height="125" viewBox="0 0 1240 125" fill="none" xmlns="http://www.w3.org/2000/svg">
<path d="M951.48 94.92C951.48 98.46 953.96 100.14 956.88 100.14C959.78 100.14 962.34 98.46 962.34 94.92V86.1H960.06V94.96C960.06 97.12 958.84 98.14 956.9 98.14C954.98 98.14 953.76 97.12 953.76 94.96V86.1H951.48V94.92ZM971.649 85.92C967.729 85.92 964.549 88.86 964.549 93.02C964.549 97.2 967.729 100.12 971.649 100.12C975.389 100.12 978.109 97.38 978.529 94.16V92.38H970.869V94.2H976.089C975.749 96.54 974.169 98.06 971.649 98.06C968.889 98.06 966.889 96.08 966.889 93.02C966.889 89.96 968.889 88 971.649 88C973.309 88 974.629 88.7 975.369 90.1H978.109C977.049 87.38 974.549 85.92 971.649 85.92ZM980.017 93.02C980.017 97.2 983.197 100.12 987.117 100.12C990.017 100.12 992.517 98.68 993.577 95.96H990.837C990.097 97.44 988.777 98.14 987.117 98.14C984.357 98.14 982.357 96.16 982.357 93.02C982.357 89.88 984.357 87.92 987.117 87.92C988.777 87.92 990.097 88.62 990.837 90.1H993.577C992.517 87.38 990.017 85.92 987.117 85.92C983.197 85.92 980.017 88.86 980.017 93.02ZM994.846 102.78H996.326L998.746 97.26H996.266L994.846 102.78ZM1015.31 100H1017.71L1012.73 86.08H1010.09L1005.11 100H1007.49L1008.49 97.16H1014.31L1015.31 100ZM1013.67 95.3H1009.13L1011.41 88.84L1013.67 95.3ZM1019.88 100H1022.16V86.1H1019.88V100ZM1024.39 93.02C1024.39 97.2 1027.57 100.12 1031.49 100.12C1034.39 100.12 1036.89 98.68 1037.95 95.96H1035.21C1034.47 97.44 1033.15 98.14 1031.49 98.14C1028.73 98.14 1026.73 96.16 1026.73 93.02C1026.73 89.88 1028.73 87.92 1031.49 87.92C1033.15 87.92 1034.47 88.62 1035.21 90.1H1037.95C1036.89 87.38 1034.39 85.92 1031.49 85.92C1027.57 85.92 1024.39 88.86 1024.39 93.02ZM1039.9 87.96H1043.62V100H1045.9V87.96H1049.6V86.1H1039.9V87.96ZM1059.59 86.08H1051.91V100H1059.59V98.14H1054.19V93.88H1058.99V92.02H1054.19V87.94H1059.59V86.08ZM1061 102.78H1062.48L1064.9 97.26H1062.42L1061 102.78ZM1081.23 86.08V96.44L1074.37 86.08H1072.09V100H1074.37V89.62L1081.23 100H1083.51V86.08H1081.23ZM1095.88 100H1098.28L1093.3 86.08H1090.66L1085.68 100H1088.06L1089.06 97.16H1094.88L1095.88 100ZM1094.24 95.3H1089.7L1091.98 88.84L1094.24 95.3ZM1109.83 100H1112.23L1107.25 86.08H1104.61L1099.63 100H1102.01L1103.01 97.16H1108.83L1109.83 100ZM1108.19 95.3H1103.65L1105.93 88.84L1108.19 95.3ZM1113.63 93.02C1113.63 97.2 1116.81 100.12 1120.73 100.12C1123.63 100.12 1126.13 98.68 1127.19 95.96H1124.45C1123.71 97.44 1122.39 98.14 1120.73 98.14C1117.97 98.14 1115.97 96.16 1115.97 93.02C1115.97 89.88 1117.97 87.92 1120.73 87.92C1122.39 87.92 1123.71 88.62 1124.45 90.1H1127.19C1126.13 87.38 1123.63 85.92 1120.73 85.92C1116.81 85.92 1113.63 88.86 1113.63 93.02Z" fill="black" fill-opacity="0.8"/>
<rect x="840.5" y="60.5" width="399" height="64" stroke="#3498DB"/>
<path d="M521.5 100H523.78V90.48L528.04 100H529.62L533.86 90.48V100H536.14V86.1H533.7L528.84 97L523.96 86.1H521.5V100ZM539.137 100H541.417V88.98H539.137V100ZM540.297 87.52C541.097 87.52 541.737 86.88 541.737 86.06C541.737 85.24 541.097 84.6 540.297 84.6C539.477 84.6 538.837 85.24 538.837 86.06C538.837 86.88 539.477 87.52 540.297 87.52ZM552.23 100H554.49V93.5C554.49 90.42 552.55 88.8 549.97 88.8C548.65 88.8 547.43 89.34 546.69 90.24V88.98H544.41V100H546.69V93.84C546.69 91.82 547.79 90.78 549.47 90.78C551.13 90.78 552.23 91.82 552.23 93.84V100ZM562.114 99.8H571.834V97.9H565.494C567.834 95.76 571.434 93.06 571.434 89.52C571.434 86.9 569.754 85.12 566.794 85.12C564.214 85.12 562.174 86.66 562.094 89.82H564.294C564.354 88.18 565.214 87.06 566.814 87.06C568.514 87.06 569.174 88.1 569.174 89.62C569.174 92.48 565.554 95.12 562.114 98.14V99.8ZM579.572 93.72H590.272V91.8H579.572V93.72ZM598.688 100H600.968V90.48L605.228 100H606.808L611.048 90.48V100H613.328V86.1H610.888L606.028 97L601.148 86.1H598.688V100ZM615.564 94.44C615.564 97.84 617.864 100.18 620.724 100.18C622.564 100.18 623.884 99.3 624.584 98.36V100H626.884V88.98H624.584V90.58C623.904 89.68 622.624 88.8 620.764 88.8C617.864 88.8 615.564 91.04 615.564 94.44ZM624.584 94.48C624.584 96.86 622.964 98.2 621.244 98.2C619.544 98.2 617.904 96.82 617.904 94.44C617.904 92.06 619.544 90.78 621.244 90.78C622.964 90.78 624.584 92.12 624.584 94.48ZM635.579 100H638.159L634.599 94.42L638.159 88.98H635.779L633.539 92.72L631.159 88.98H628.579L632.139 94.58L628.579 100H630.959L633.199 96.26L635.579 100ZM651.715 100H653.955V96.96H655.815V94.98H653.955V85.6H651.195L644.475 95.24V96.96H651.715V100ZM647.095 94.98L651.815 87.92V94.98H647.095ZM667.539 97.38L664.439 88.98H661.899L666.239 99.82L663.999 105.18H666.359L673.119 88.98H670.759L667.539 97.38ZM679.48 90.72C681.18 90.72 682.52 91.8 682.56 93.5H676.46C676.7 91.76 677.94 90.72 679.48 90.72ZM684.64 96.72H682.18C681.76 97.58 680.98 98.26 679.58 98.26C677.9 98.26 676.6 97.16 676.44 95.34H684.86C684.92 94.96 684.94 94.6 684.94 94.22C684.94 90.98 682.72 88.8 679.58 88.8C676.32 88.8 674.08 91.02 674.08 94.48C674.08 97.94 676.42 100.18 679.58 100.18C682.28 100.18 684.02 98.64 684.64 96.72ZM686.424 94.44C686.424 97.84 688.724 100.18 691.584 100.18C693.424 100.18 694.744 99.3 695.444 98.36V100H697.744V88.98H695.444V90.58C694.764 89.68 693.484 88.8 691.624 88.8C688.724 88.8 686.424 91.04 686.424 94.44ZM695.444 94.48C695.444 96.86 693.824 98.2 692.104 98.2C690.404 98.2 688.764 96.82 688.764 94.44C688.764 92.06 690.404 90.78 692.104 90.78C693.824 90.78 695.444 92.12 695.444 94.48ZM703.018 94.2C703.018 91.86 704.058 91.16 705.738 91.16H706.318V88.8C704.758 88.8 703.658 89.48 703.018 90.58V88.98H700.738V100H703.018V94.2ZM716.634 96.92C716.514 92.94 710.294 94.18 710.294 91.96C710.294 91.22 710.934 90.72 712.154 90.72C713.394 90.72 714.134 91.38 714.214 92.34H716.494C716.374 90.14 714.734 88.8 712.234 88.8C709.634 88.8 707.994 90.22 707.994 91.98C707.994 96.02 714.394 94.78 714.394 96.94C714.394 97.7 713.694 98.26 712.374 98.26C711.114 98.26 710.254 97.52 710.174 96.62H707.814C707.914 98.62 709.774 100.18 712.414 100.18C715.014 100.18 716.634 98.78 716.634 96.92Z" fill="black" fill-opacity="0.8"/>
<rect x="419.5" y="60.5" width="399" height="64" stroke="#E74C3C"/>
<rect x="0.5" y="0.5" width="399" height="59" fill="#9B59B6" stroke="#9B59B6"/>
<rect x="419.5" y="0.5" width="399" height="59" fill="#E74C3C" stroke="#E74C3C"/>
<rect x="840.5" y="0.5" width="399" height="59" fill="#3498DB" stroke="#3498DB"/>
<path d="M62.8185 96.02C62.8185 97.36 61.8785 98.14 60.3385 98.14H57.2585V93.8H60.2585C61.7785 93.8 62.8185 94.64 62.8185 96.02ZM62.4585 89.96C62.4585 91.24 61.5585 91.94 60.0785 91.94H57.2585V87.96H60.0785C61.5585 87.96 62.4585 88.7 62.4585 89.96ZM65.0985 96.26C65.0985 94.6 63.8985 93.12 62.4185 92.86C63.7585 92.38 64.7785 91.36 64.7785 89.68C64.7785 87.72 63.2185 86.1 60.2785 86.1H54.9785V100H60.5385C63.3785 100 65.0985 98.38 65.0985 96.26ZM69.9362 98.68C69.9362 97.86 69.2962 97.22 68.4962 97.22C67.6762 97.22 67.0362 97.86 67.0362 98.68C67.0362 99.5 67.6762 100.14 68.4962 100.14C69.2962 100.14 69.9362 99.5 69.9362 98.68ZM71.6804 87.96H75.4004V100H77.6804V87.96H81.3804V86.1H71.6804V87.96ZM88.3295 90.72C90.0295 90.72 91.3695 91.8 91.4095 93.5H85.3095C85.5495 91.76 86.7895 90.72 88.3295 90.72ZM93.4895 96.72H91.0295C90.6095 97.58 89.8295 98.26 88.4295 98.26C86.7495 98.26 85.4495 97.16 85.2895 95.34H93.7095C93.7695 94.96 93.7895 94.6 93.7895 94.22C93.7895 90.98 91.5695 88.8 88.4295 88.8C85.1695 88.8 82.9295 91.02 82.9295 94.48C82.9295 97.94 85.2695 100.18 88.4295 100.18C91.1295 100.18 92.8695 98.64 93.4895 96.72ZM95.2732 94.48C95.2732 97.94 97.5132 100.18 100.673 100.18C103.373 100.18 105.133 98.68 105.753 96.52H103.293C102.873 97.66 102.033 98.26 100.673 98.26C98.8332 98.26 97.6132 96.9 97.6132 94.48C97.6132 92.08 98.8332 90.72 100.673 90.72C102.033 90.72 102.913 91.4 103.293 92.46H105.753C105.133 90.14 103.373 88.8 100.673 88.8C97.5132 88.8 95.2732 91.04 95.2732 94.48ZM108.025 100H110.305V93.84C110.305 91.82 111.405 90.78 113.085 90.78C114.745 90.78 115.845 91.82 115.845 93.84V100H118.105V93.5C118.105 90.42 116.185 88.8 113.725 88.8C112.305 88.8 111.065 89.34 110.305 90.26V85.2H108.025V100ZM125.929 103.5H128.169L133.609 81.12H131.349L125.929 103.5ZM149.518 96.02C149.518 97.36 148.578 98.14 147.038 98.14H143.958V93.8H146.958C148.478 93.8 149.518 94.64 149.518 96.02ZM149.158 89.96C149.158 91.24 148.258 91.94 146.778 91.94H143.958V87.96H146.778C148.258 87.96 149.158 88.7 149.158 89.96ZM151.798 96.26C151.798 94.6 150.598 93.12 149.118 92.86C150.458 92.38 151.478 91.36 151.478 89.68C151.478 87.72 149.918 86.1 146.978 86.1H141.678V100H147.238C150.078 100 151.798 98.38 151.798 96.26ZM156.635 98.68C156.635 97.86 155.995 97.22 155.195 97.22C154.375 97.22 153.735 97.86 153.735 98.68C153.735 99.5 154.375 100.14 155.195 100.14C155.995 100.14 156.635 99.5 156.635 98.68ZM173.675 96.06C173.675 90.98 166.315 92.94 166.315 89.8C166.315 88.46 167.335 87.82 168.655 87.86C170.095 87.9 170.915 88.76 170.995 89.7H173.515C173.315 87.32 171.435 85.92 168.775 85.92C165.935 85.92 163.995 87.44 163.995 89.88C163.995 95 171.375 92.82 171.375 96.18C171.375 97.36 170.475 98.22 168.875 98.22C167.295 98.22 166.495 97.3 166.395 96.16H163.955C163.955 98.62 166.095 100.14 168.875 100.14C171.975 100.14 173.675 98.14 173.675 96.06ZM175.605 94.48C175.605 97.94 177.845 100.18 181.005 100.18C183.705 100.18 185.465 98.68 186.085 96.52H183.625C183.205 97.66 182.365 98.26 181.005 98.26C179.165 98.26 177.945 96.9 177.945 94.48C177.945 92.08 179.165 90.72 181.005 90.72C182.365 90.72 183.245 91.4 183.625 92.46H186.085C185.465 90.14 183.705 88.8 181.005 88.8C177.845 88.8 175.605 91.04 175.605 94.48ZM193.273 103.5H195.513L200.953 81.12H198.693L193.273 103.5ZM216.861 96.02C216.861 97.36 215.921 98.14 214.381 98.14H211.301V93.8H214.301C215.821 93.8 216.861 94.64 216.861 96.02ZM216.501 89.96C216.501 91.24 215.601 91.94 214.121 91.94H211.301V87.96H214.121C215.601 87.96 216.501 88.7 216.501 89.96ZM219.141 96.26C219.141 94.6 217.941 93.12 216.461 92.86C217.801 92.38 218.821 91.36 218.821 89.68C218.821 87.72 217.261 86.1 214.321 86.1H209.021V100H214.581C217.421 100 219.141 98.38 219.141 96.26ZM223.979 98.68C223.979 97.86 223.339 97.22 222.539 97.22C221.719 97.22 221.079 97.86 221.079 98.68C221.079 99.5 221.719 100.14 222.539 100.14C223.339 100.14 223.979 99.5 223.979 98.68ZM241.019 96.06C241.019 90.98 233.659 92.94 233.659 89.8C233.659 88.46 234.679 87.82 235.999 87.86C237.439 87.9 238.259 88.76 238.339 89.7H240.859C240.659 87.32 238.779 85.92 236.119 85.92C233.279 85.92 231.339 87.44 231.339 89.88C231.339 95 238.719 92.82 238.719 96.18C238.719 97.36 237.819 98.22 236.219 98.22C234.639 98.22 233.839 97.3 233.739 96.16H231.299C231.299 98.62 233.439 100.14 236.219 100.14C239.319 100.14 241.019 98.14 241.019 96.06ZM242.949 94.48C242.949 97.94 245.189 100.18 248.349 100.18C251.049 100.18 252.809 98.68 253.429 96.52H250.969C250.549 97.66 249.709 98.26 248.349 98.26C246.509 98.26 245.289 96.9 245.289 94.48C245.289 92.08 246.509 90.72 248.349 90.72C249.709 90.72 250.589 91.4 250.969 92.46H253.429C252.809 90.14 251.049 88.8 248.349 88.8C245.189 88.8 242.949 91.04 242.949 94.48ZM263.176 92.5V87.96H265.696C267.476 87.96 268.276 88.8 268.276 90.24C268.276 91.64 267.476 92.5 265.696 92.5H263.176ZM270.616 90.24C270.616 87.98 268.996 86.1 265.696 86.1H260.896V100H263.176V94.36H265.696C269.316 94.36 270.616 92.22 270.616 90.24ZM272.031 94.44C272.031 97.84 274.331 100.18 277.191 100.18C279.031 100.18 280.351 99.3 281.051 98.36V100H283.351V88.98H281.051V90.58C280.371 89.68 279.091 88.8 277.231 88.8C274.331 88.8 272.031 91.04 272.031 94.44ZM281.051 94.48C281.051 96.86 279.431 98.2 277.711 98.2C276.011 98.2 274.371 96.82 274.371 94.44C274.371 92.06 276.011 90.78 277.711 90.78C279.431 90.78 281.051 92.12 281.051 94.48ZM294.566 96.92C294.446 92.94 288.226 94.18 288.226 91.96C288.226 91.22 288.866 90.72 290.086 90.72C291.326 90.72 292.066 91.38 292.146 92.34H294.426C294.306 90.14 292.666 88.8 290.166 88.8C287.566 88.8 285.926 90.22 285.926 91.98C285.926 96.02 292.326 94.78 292.326 96.94C292.326 97.7 291.626 98.26 290.306 98.26C289.046 98.26 288.186 97.52 288.106 96.62H285.746C285.846 98.62 287.706 100.18 290.346 100.18C292.946 100.18 294.566 98.78 294.566 96.92ZM305.249 96.92C305.129 92.94 298.909 94.18 298.909 91.96C298.909 91.22 299.549 90.72 300.769 90.72C302.009 90.72 302.749 91.38 302.829 92.34H305.109C304.989 90.14 303.349 88.8 300.849 88.8C298.249 88.8 296.609 90.22 296.609 91.98C296.609 96.02 303.009 94.78 303.009 96.94C303.009 97.7 302.309 98.26 300.989 98.26C299.729 98.26 298.869 97.52 298.789 96.62H296.429C296.529 98.62 298.389 100.18 301.029 100.18C303.629 100.18 305.249 98.78 305.249 96.92ZM326.348 93.02C326.348 88.86 323.208 85.92 319.248 85.92C315.328 85.92 312.148 88.86 312.148 93.02C312.148 97.2 315.328 100.14 319.248 100.14C323.208 100.14 326.348 97.2 326.348 93.02ZM314.488 93.02C314.488 89.88 316.488 87.92 319.248 87.92C322.008 87.92 324.008 89.88 324.008 93.02C324.008 96.16 322.008 98.16 319.248 98.16C316.488 98.16 314.488 96.16 314.488 93.02ZM338.572 88.98H336.292V95.12C336.292 97.14 335.192 98.18 333.512 98.18C331.852 98.18 330.752 97.14 330.752 95.12V88.98H328.492V95.46C328.492 98.54 330.452 100.16 333.032 100.16C334.332 100.16 335.572 99.62 336.292 98.68V100H338.572V88.98ZM341.94 96.94C341.94 99.18 343.16 100 345.12 100H346.92V98.1H345.52C344.56 98.1 344.24 97.76 344.24 96.94V90.84H346.92V88.98H344.24V86.24H341.94V88.98H340.64V90.84H341.94V96.94Z" fill="black" fill-opacity="0.8"/>
<rect x="0.5" y="60.5" width="399" height="64" stroke="#9B59B6"/>
<path d="M173.139 21.6H163.539V39H173.139V36.675H166.389V31.35H172.389V29.025H166.389V23.925H173.139V21.6ZM177.149 39H179.999V20.5H177.149V39ZM184.241 39H187.091V25.225H184.241V39ZM185.691 23.4C186.691 23.4 187.491 22.6 187.491 21.575C187.491 20.55 186.691 19.75 185.691 19.75C184.666 19.75 183.866 20.55 183.866 21.575C183.866 22.6 184.666 23.4 185.691 23.4ZM190.383 32.05C190.383 36.3 193.258 39.225 196.883 39.225C199.133 39.225 200.783 38.1 201.658 36.925V39.225C201.658 41.975 200.008 43.325 197.808 43.325C195.833 43.325 194.308 42.35 193.883 40.925H191.058C191.408 43.975 194.133 45.8 197.808 45.8C202.108 45.8 204.533 42.975 204.533 39.225V25.225H201.658V27.225C200.808 26.05 199.133 25 196.883 25C193.258 25 190.383 27.8 190.383 32.05ZM201.658 32.1C201.658 35.075 199.633 36.75 197.483 36.75C195.358 36.75 193.308 35.025 193.308 32.05C193.308 29.075 195.358 27.475 197.483 27.475C199.633 27.475 201.658 29.15 201.658 32.1ZM208.776 39H211.626V25.225H208.776V39ZM210.226 23.4C211.226 23.4 212.026 22.6 212.026 21.575C212.026 20.55 211.226 19.75 210.226 19.75C209.201 19.75 208.401 20.55 208.401 21.575C208.401 22.6 209.201 23.4 210.226 23.4ZM218.718 27.275V20.5H215.868V39H218.718V37C219.618 38.2 221.243 39.225 223.518 39.225C227.143 39.225 229.993 36.3 229.993 32.05C229.993 27.8 227.168 25 223.518 25C221.343 25 219.618 26.025 218.718 27.275ZM227.093 32.05C227.093 35.025 225.043 36.75 222.893 36.75C220.768 36.75 218.718 35.075 218.718 32.1C218.718 29.15 220.768 27.475 222.893 27.475C225.043 27.475 227.093 29.075 227.093 32.05ZM233.312 39H236.162V25.225H233.312V39ZM234.762 23.4C235.762 23.4 236.562 22.6 236.562 21.575C236.562 20.55 235.762 19.75 234.762 19.75C233.737 19.75 232.937 20.55 232.937 21.575C232.937 22.6 233.737 23.4 234.762 23.4ZM240.403 39H243.253V20.5H240.403V39ZM247.495 39H250.345V25.225H247.495V39ZM248.945 23.4C249.945 23.4 250.745 22.6 250.745 21.575C250.745 20.55 249.945 19.75 248.945 19.75C247.92 19.75 247.12 20.55 247.12 21.575C247.12 22.6 247.92 23.4 248.945 23.4ZM255.037 35.175C255.037 37.975 256.562 39 259.012 39H261.262V36.625H259.512C258.312 36.625 257.912 36.2 257.912 35.175V27.55H261.262V25.225H257.912V21.8H255.037V25.225H253.412V27.55H255.037V35.175ZM269.814 35.725L265.939 25.225H262.764L268.189 38.775L265.389 45.475H268.339L276.789 25.225H273.839L269.814 35.725Z" fill="white"/>
<path d="M137.637 15C138.275 15.15 138.845 15.4125 139.235 15.9675C139.797 16.7774 139.88 17.6324 139.4 18.5024C138.92 19.3798 138.14 19.7998 137.142 19.7173C136.16 19.6348 135.455 19.1098 135.125 18.1799C134.622 16.7549 135.44 15.36 136.925 15.0525C136.962 15.045 137 15.0225 137.03 15.0075C137.24 15 137.435 15 137.637 15ZM137.33 18.8323C138.14 18.8323 138.8 18.1799 138.8 17.3699C138.807 16.5674 138.147 15.9 137.345 15.9C136.542 15.9 135.875 16.5599 135.875 17.3624C135.867 18.1724 136.527 18.8323 137.33 18.8323Z" fill="white"/>
<path d="M122.007 30.0294C122.157 29.4069 122.42 28.8594 122.945 28.4469C123.987 27.6295 125.592 27.892 126.342 29.0169C127.085 30.1344 126.732 31.7093 125.585 32.3543C124.13 33.1793 122.412 32.4068 122.052 30.7643C122.045 30.7194 122.022 30.6744 122 30.6219C122.007 30.4269 122.007 30.2319 122.007 30.0294ZM125.84 30.3369C125.84 29.5269 125.187 28.8669 124.377 28.8669C123.575 28.8594 122.907 29.5269 122.9 30.3294C122.9 31.1318 123.56 31.7993 124.362 31.7993C125.18 31.7993 125.84 31.1393 125.84 30.3369Z" fill="white"/>
<path d="M139.881 30.7117C138.696 32.7442 135.951 32.6767 134.796 30.6967C134.256 30.9217 133.694 31.1167 133.169 31.4017C132.659 31.6792 132.494 32.1892 132.494 32.7517C132.494 33.9516 132.494 35.1441 132.494 36.344C132.494 36.809 132.351 37.0265 132.051 37.0265C131.751 37.0265 131.594 36.794 131.594 36.344C131.594 35.1591 131.594 33.9666 131.594 32.7817C131.594 31.5742 132.141 30.7867 133.259 30.3443C133.836 30.1193 134.406 29.8868 134.984 29.6768C135.299 29.5643 135.456 29.3618 135.434 29.0243C135.434 28.9718 135.426 28.9268 135.434 28.8743C135.471 28.4393 135.396 28.0644 135.066 27.7119C134.639 27.2544 134.504 26.6469 134.474 26.0244C134.466 25.9119 134.444 25.7844 134.384 25.6869C133.379 24.082 134.414 21.7871 136.626 21.7346C137.369 21.7196 138.118 21.6446 138.853 21.8771C140.383 22.3646 141.103 24.172 140.331 25.5745C140.241 25.7319 140.181 25.9269 140.173 26.1069C140.128 26.8569 139.858 27.4944 139.341 28.0419C139.273 28.1094 139.228 28.2293 139.221 28.3268C139.206 28.5743 139.221 28.8218 139.213 29.0768C139.206 29.3768 139.348 29.5643 139.618 29.6693C140.203 29.8943 140.788 30.1193 141.373 30.3518C142.513 30.7942 143.053 31.5817 143.053 32.8042C143.053 33.9891 143.053 35.1816 143.053 36.3665C143.053 36.4265 143.053 36.4865 143.053 36.5465C143.023 36.8465 142.836 37.0415 142.588 37.034C142.333 37.0265 142.161 36.839 142.161 36.524C142.153 35.774 142.161 35.0241 142.161 34.2816C142.161 33.7641 142.161 33.2466 142.161 32.7217C142.153 31.9942 141.823 31.4917 141.141 31.2217C140.728 31.0342 140.301 30.8692 139.881 30.7117ZM139.723 24.592C139.896 23.692 139.266 22.7696 138.366 22.6646C137.759 22.5896 137.129 22.5896 136.514 22.6346C135.576 22.7021 134.976 23.3545 134.916 24.262C134.901 24.4345 134.901 24.5695 135.119 24.667C135.246 24.7195 135.344 24.937 135.366 25.0945C135.404 25.357 135.381 25.6345 135.381 25.8969C135.381 27.4344 136.739 28.2293 137.923 27.8619C138.771 27.5994 139.266 26.8569 139.296 25.8669C139.303 25.567 139.243 25.447 138.913 25.3945C137.968 25.2595 137.084 24.922 136.229 24.5095C135.966 24.382 135.869 24.1195 135.981 23.887C136.086 23.6695 136.334 23.587 136.596 23.692C136.769 23.7595 136.941 23.8495 137.114 23.9245C137.946 24.2845 138.801 24.532 139.723 24.592ZM136.349 28.7243C136.386 29.3768 136.274 29.9693 135.659 30.3443C136.071 30.9742 136.626 31.3117 137.361 31.3042C138.081 31.2967 138.628 30.9667 139.026 30.3368C138.396 29.9618 138.306 29.3468 138.336 28.7168C137.968 28.7618 137.661 28.8293 137.346 28.8293C137.024 28.8443 136.709 28.7693 136.349 28.7243Z" fill="white"/>
<path d="M125.004 33.7343C125.229 33.7343 125.326 33.9292 125.424 34.1542C125.746 34.9267 126.031 35.7217 126.436 36.4491C127.981 39.2165 130.283 41.114 133.276 42.1639C133.373 42.1939 133.463 42.2239 133.561 42.2614C133.868 42.3814 133.996 42.5989 133.913 42.8614C133.831 43.1089 133.576 43.2214 133.276 43.1089C132.788 42.9364 132.293 42.7714 131.828 42.5539C128.251 40.8815 125.829 38.1741 124.576 34.4317C124.546 34.3492 124.524 34.2592 124.524 34.1692C124.516 33.9217 124.704 33.7343 125.004 33.7343Z" fill="white"/>
<path d="M150.203 34.1092C150.083 34.4766 150.001 34.7766 149.881 35.0616C148.291 39.044 145.478 41.7289 141.414 43.1013C141.099 43.2063 140.851 43.1163 140.761 42.8763C140.656 42.5988 140.791 42.3663 141.151 42.2538C142.674 41.7589 144.061 41.0089 145.298 39.9889C147.121 38.474 148.418 36.5916 149.191 34.3492C149.236 34.2067 149.288 34.0642 149.356 33.9367C149.468 33.7492 149.663 33.6817 149.843 33.7642C149.986 33.8317 150.091 33.9967 150.203 34.1092Z" fill="white"/>
<path d="M124.966 26.9243C124.628 26.9243 124.448 26.6319 124.568 26.2644C124.898 25.2144 125.348 24.217 125.933 23.287C127.666 20.5271 130.073 18.6372 133.156 17.5947C133.268 17.5572 133.403 17.4897 133.501 17.5272C133.651 17.5797 133.831 17.6847 133.906 17.8122C134.003 17.9847 133.936 18.1872 133.756 18.3072C133.651 18.3747 133.523 18.4197 133.403 18.4647C129.488 19.8371 126.848 22.477 125.468 26.3844C125.378 26.6394 125.318 26.9168 124.966 26.9243Z" fill="white"/>
<path d="M141.129 17.4598C141.496 17.5873 141.796 17.6698 142.081 17.7823C146.048 19.3648 148.733 22.1772 150.098 26.227C150.211 26.5645 150.121 26.812 149.858 26.902C149.588 26.992 149.363 26.857 149.243 26.497C148.561 24.4046 147.421 22.6121 145.801 21.1197C144.496 19.9197 143.011 19.0423 141.331 18.4723C141.196 18.4273 141.061 18.3823 140.941 18.3148C140.739 18.2023 140.664 17.9923 140.761 17.8048C140.844 17.6623 141.016 17.5648 141.129 17.4598Z" fill="white"/>
<path d="M150.208 27.9744C151.461 27.8844 152.578 28.9044 152.661 30.2318C152.743 31.4918 151.746 32.5792 150.411 32.6842C149.166 32.7817 148.033 31.7692 147.943 30.4793C147.853 29.1594 148.836 28.0719 150.208 27.9744ZM151.768 30.3443C151.776 29.5418 151.116 28.8744 150.313 28.8669C149.511 28.8594 148.843 29.5118 148.836 30.3218C148.828 31.1318 149.481 31.7917 150.291 31.7992C151.086 31.8067 151.761 31.1468 151.768 30.3443Z" fill="white"/>
<path d="M139.695 43.4237C139.635 44.7737 138.465 45.7336 137.22 45.6511C135.878 45.5611 134.881 44.4287 134.993 43.1462C135.113 41.7888 136.23 40.8213 137.543 40.9413C138.818 41.0538 139.8 42.1788 139.695 43.4237ZM137.348 44.7587C138.15 44.7512 138.81 44.0837 138.803 43.2812C138.795 42.4713 138.135 41.8188 137.325 41.8263C136.515 41.8338 135.863 42.5013 135.87 43.3037C135.885 44.1062 136.545 44.7662 137.348 44.7587Z" fill="white"/>
<path d="M134.421 35.8342C134.421 36.5391 134.429 37.2516 134.421 37.9566C134.414 38.3616 134.054 38.5941 133.761 38.3766C133.641 38.2866 133.544 38.0991 133.544 37.9566C133.529 36.5541 133.529 35.1517 133.536 33.7418C133.536 33.4268 133.724 33.2543 133.986 33.2543C134.264 33.2543 134.421 33.4343 134.429 33.7793C134.429 34.4617 134.421 35.1517 134.421 35.8342Z" fill="white"/>
<path d="M140.253 35.8341C140.253 35.1441 140.246 34.4616 140.253 33.7716C140.253 33.4192 140.433 33.2392 140.726 33.2542C140.973 33.2692 141.131 33.4417 141.138 33.7491C141.153 34.0566 141.146 34.3641 141.146 34.6716C141.146 35.6766 141.146 36.6815 141.146 37.6865C141.146 37.769 141.146 37.844 141.146 37.9265C141.123 38.249 140.951 38.4515 140.688 38.4515C140.426 38.4515 140.253 38.249 140.253 37.919C140.246 37.2215 140.253 36.524 140.253 35.8341Z" fill="white"/>
<path d="M588.55 21.625H582.875V39H588.55C594.125 39 597.775 35.725 597.775 30.375C597.775 25 594.125 21.625 588.55 21.625ZM585.725 36.675V23.95H588.55C592.65 23.95 594.85 26.4 594.85 30.375C594.85 34.325 592.65 36.675 588.55 36.675H585.725ZM613.575 25.225H610.725V32.9C610.725 35.425 609.35 36.725 607.25 36.725C605.175 36.725 603.8 35.425 603.8 32.9V25.225H600.975V33.325C600.975 37.175 603.425 39.2 606.65 39.2C608.275 39.2 609.825 38.525 610.725 37.35V39H613.575V25.225ZM620.685 31.75C620.685 28.825 621.985 27.95 624.085 27.95H624.81V25C622.86 25 621.485 25.85 620.685 27.225V25.225H617.835V39H620.685V31.75ZM626.98 32.05C626.98 36.3 629.855 39.225 633.43 39.225C635.73 39.225 637.38 38.125 638.255 36.95V39H641.13V25.225H638.255V27.225C637.405 26.1 635.805 25 633.48 25C629.855 25 626.98 27.8 626.98 32.05ZM638.255 32.1C638.255 35.075 636.23 36.75 634.08 36.75C631.955 36.75 629.905 35.025 629.905 32.05C629.905 29.075 631.955 27.475 634.08 27.475C636.23 27.475 638.255 29.15 638.255 32.1ZM645.823 35.175C645.823 37.975 647.348 39 649.798 39H652.048V36.625H650.298C649.098 36.625 648.698 36.2 648.698 35.175V27.55H652.048V25.225H648.698V21.8H645.823V25.225H644.198V27.55H645.823V35.175ZM655.175 39H658.025V25.225H655.175V39ZM656.625 23.4C657.625 23.4 658.425 22.6 658.425 21.575C658.425 20.55 657.625 19.75 656.625 19.75C655.6 19.75 654.8 20.55 654.8 21.575C654.8 22.6 655.6 23.4 656.625 23.4ZM675.392 32.1C675.392 27.775 672.292 25 668.367 25C664.442 25 661.342 27.775 661.342 32.1C661.342 36.425 664.317 39.225 668.242 39.225C672.192 39.225 675.392 36.425 675.392 32.1ZM664.242 32.1C664.242 28.975 666.167 27.475 668.317 27.475C670.442 27.475 672.467 28.975 672.467 32.1C672.467 35.225 670.367 36.75 668.242 36.75C666.092 36.75 664.242 35.225 664.242 32.1ZM688.484 39H691.309V30.875C691.309 27.025 688.884 25 685.659 25C684.009 25 682.484 25.675 681.559 26.8V25.225H678.709V39H681.559V31.3C681.559 28.775 682.934 27.475 685.034 27.475C687.109 27.475 688.484 28.775 688.484 31.3V39Z" fill="white"/>
<path d="M555 24V32.764L561.836 37L563 35.2472L557.182 31.7416V24H555Z" fill="white"/>
<path d="M566.111 30.1111C566.32 31.4915 566.228 32.901 565.84 34.2423C565.453 35.5837 564.779 36.8251 563.865 37.8811C562.952 38.9371 561.821 39.7826 560.549 40.3594C559.278 40.9361 557.896 41.2305 556.5 41.2221C551.083 41.2221 546.778 36.9166 546.778 31.4999C546.778 26.0833 551.083 21.7778 556.5 21.7778C557.472 21.7778 558.403 21.9167 559.278 22.1805V19.3194C558.389 19.1111 557.458 19 556.5 19C549.555 19 544 24.5555 544 31.4999C544 38.4444 549.555 43.9999 556.5 43.9999C558.261 44.0072 560.003 43.6409 561.611 42.9253C563.22 42.2096 564.659 41.1609 565.832 39.8483C567.006 38.5357 567.887 36.9891 568.419 35.3106C568.951 33.6321 569.12 31.8599 568.916 30.1111H566.111V30.1111Z" fill="white"/>
<path d="M568.875 20.125V16H566.125V20.125H562V22.875H566.125V27H568.875V22.875H573V20.125H568.875Z" fill="white"/>
<path d="M1000.6 39H1003.6L997.375 21.6H994.075L987.85 39H990.825L992.075 35.45H999.35L1000.6 39ZM998.55 33.125H992.875L995.725 25.05L998.55 33.125ZM1009.66 27.25V25.225H1006.81V45.55H1009.66V37C1010.56 38.075 1012.18 39.225 1014.46 39.225C1018.08 39.225 1020.93 36.3 1020.93 32.05C1020.93 27.8 1018.08 25 1014.46 25C1012.21 25 1010.53 26.1 1009.66 27.25ZM1018.03 32.05C1018.03 35.025 1015.98 36.75 1013.83 36.75C1011.71 36.75 1009.66 35.075 1009.66 32.1C1009.66 29.15 1011.71 27.475 1013.83 27.475C1015.98 27.475 1018.03 29.075 1018.03 32.05ZM1027.1 27.25V25.225H1024.25V45.55H1027.1V37C1028 38.075 1029.63 39.225 1031.9 39.225C1035.53 39.225 1038.38 36.3 1038.38 32.05C1038.38 27.8 1035.53 25 1031.9 25C1029.65 25 1027.98 26.1 1027.1 27.25ZM1035.48 32.05C1035.48 35.025 1033.43 36.75 1031.28 36.75C1029.15 36.75 1027.1 35.075 1027.1 32.1C1027.1 29.15 1029.15 27.475 1031.28 27.475C1033.43 27.475 1035.48 29.075 1035.48 32.05ZM1044.54 31.75C1044.54 28.825 1045.84 27.95 1047.94 27.95H1048.67V25C1046.72 25 1045.34 25.85 1044.54 27.225V25.225H1041.69V39H1044.54V31.75ZM1064.91 32.1C1064.91 27.775 1061.81 25 1057.89 25C1053.96 25 1050.86 27.775 1050.86 32.1C1050.86 36.425 1053.84 39.225 1057.76 39.225C1061.71 39.225 1064.91 36.425 1064.91 32.1ZM1053.76 32.1C1053.76 28.975 1055.69 27.475 1057.84 27.475C1059.96 27.475 1061.99 28.975 1061.99 32.1C1061.99 35.225 1059.89 36.75 1057.76 36.75C1055.61 36.75 1053.76 35.225 1053.76 32.1ZM1066.61 25.225L1071.83 39H1075.23L1080.48 25.225H1077.46L1073.56 36.45L1069.66 25.225H1066.61ZM1082.18 32.05C1082.18 36.3 1085.06 39.225 1088.63 39.225C1090.93 39.225 1092.58 38.125 1093.46 36.95V39H1096.33V25.225H1093.46V27.225C1092.61 26.1 1091.01 25 1088.68 25C1085.06 25 1082.18 27.8 1082.18 32.05ZM1093.46 32.1C1093.46 35.075 1091.43 36.75 1089.28 36.75C1087.16 36.75 1085.11 35.025 1085.11 32.05C1085.11 29.075 1087.16 27.475 1089.28 27.475C1091.43 27.475 1093.46 29.15 1093.46 32.1ZM1100.58 39H1103.43V20.5H1100.58V39ZM1117.94 35.15C1117.79 30.175 1110.02 31.725 1110.02 28.95C1110.02 28.025 1110.82 27.4 1112.34 27.4C1113.89 27.4 1114.82 28.225 1114.92 29.425H1117.77C1117.62 26.675 1115.57 25 1112.44 25C1109.19 25 1107.14 26.775 1107.14 28.975C1107.14 34.025 1115.14 32.475 1115.14 35.175C1115.14 36.125 1114.27 36.825 1112.62 36.825C1111.04 36.825 1109.97 35.9 1109.87 34.775H1106.92C1107.04 37.275 1109.37 39.225 1112.67 39.225C1115.92 39.225 1117.94 37.475 1117.94 35.15Z" fill="white"/>
<path d="M965.672 45.5916C965.464 45.4529 965.353 45.2587 965.291 45.009C965.062 44.1143 964.812 43.2266 964.57 42.3041C964.244 42.3873 963.932 42.4706 963.619 42.5538C963.016 42.7133 962.42 42.8728 961.816 43.0393C961.553 43.1156 961.296 43.1433 961.109 42.8937C960.921 42.6509 961.005 42.4151 961.143 42.1723C962.191 40.3621 963.231 38.545 964.285 36.7417C964.389 36.5683 964.382 36.4781 964.23 36.3325C963.724 35.8609 963.446 35.2644 963.342 34.5847C963.266 34.0714 963.023 33.6622 962.635 33.3293C961.476 32.3306 961.171 31.1793 961.677 29.7436C961.844 29.265 961.844 28.8003 961.671 28.3217C961.171 26.8999 961.49 25.7278 962.642 24.7429C963.023 24.4169 963.259 24.0077 963.342 23.5084C963.585 22.0935 964.507 21.1572 965.908 20.9214C966.442 20.8312 966.872 20.5815 967.226 20.1584C968.128 19.0765 969.383 18.7366 970.701 19.2152C971.221 19.4024 971.72 19.4094 972.241 19.2152C973.558 18.7366 974.8 19.0626 975.701 20.1307C976.076 20.5746 976.534 20.8381 977.109 20.9283C978.379 21.1294 979.377 22.1282 979.585 23.3974C979.676 23.9731 979.932 24.4308 980.383 24.8053C981.451 25.707 981.777 26.9485 981.299 28.2663C981.111 28.7864 981.111 29.2858 981.299 29.806C981.784 31.1376 981.437 32.393 980.341 33.3016C979.967 33.6137 979.703 33.9882 979.634 34.4737C979.509 35.2644 979.19 35.9371 978.566 36.4781C978.614 36.5683 978.656 36.6515 978.705 36.7278C979.731 38.5103 980.758 40.2928 981.791 42.0752C981.833 42.1446 981.867 42.207 981.909 42.2764C982.027 42.4844 982.034 42.6925 981.881 42.8798C981.729 43.067 981.534 43.1156 981.299 43.0532C980.404 42.8104 979.516 42.5746 978.621 42.3388C978.566 42.3249 978.503 42.3111 978.42 42.2972C978.261 42.8937 978.101 43.4832 977.942 44.0727C977.858 44.3779 977.761 44.69 977.699 45.0021C977.65 45.2518 977.526 45.446 977.317 45.5847C977.213 45.5847 977.109 45.5847 977.005 45.5847C976.874 45.446 976.7 45.3281 976.603 45.1616C975.466 43.2058 974.335 41.243 973.198 39.2802C973.142 39.1831 973.052 39.086 972.955 39.0513C972.698 38.9611 972.421 38.9126 972.157 38.8293C971.7 38.6767 971.242 38.6767 970.784 38.8363C970.583 38.9056 970.375 38.9889 970.167 39.0166C969.966 39.0443 969.875 39.1484 969.778 39.301C968.655 41.2568 967.524 43.2127 966.394 45.1616C966.297 45.3212 966.13 45.446 965.991 45.5847C965.881 45.5916 965.776 45.5916 965.672 45.5916ZM969.73 20.0405C968.988 20.0613 968.461 20.2763 968.079 20.7618C967.538 21.4346 966.852 21.8299 965.998 21.9686C965.125 22.1143 964.514 22.7454 964.375 23.6263C964.251 24.4239 963.883 25.0689 963.266 25.5891C962.503 26.2202 962.288 27.0109 962.628 27.9333C962.905 28.6824 962.905 29.4176 962.628 30.1597C962.295 31.0752 962.496 31.8659 963.245 32.4901C963.876 33.0172 964.251 33.6761 964.382 34.4945C964.521 35.3615 965.159 35.9996 966.026 36.1383C966.838 36.2701 967.497 36.6446 968.031 37.2757C968.655 38.0248 969.445 38.2259 970.361 37.893C971.11 37.6156 971.845 37.6156 972.587 37.893C973.503 38.2329 974.307 38.0109 974.939 37.2549C975.445 36.6446 976.09 36.277 976.874 36.1452C977.796 35.9926 978.399 35.41 978.566 34.4876C978.712 33.6692 979.086 32.9964 979.731 32.4693C980.439 31.8867 980.661 31.0683 980.341 30.2083C980.05 29.4245 980.05 28.6616 980.341 27.8779C980.661 27.0178 980.452 26.2133 979.752 25.6307C979.1 25.0897 978.719 24.4239 978.573 23.5916C978.413 22.69 977.831 22.1143 976.936 21.9478C976.159 21.8091 975.5 21.4762 974.987 20.8659C974.307 20.0544 973.551 19.8463 972.553 20.207C971.838 20.4636 971.138 20.4636 970.423 20.207C970.146 20.1237 969.875 20.0752 969.73 20.0405ZM974.196 38.9611C975.119 40.5563 976.014 42.1099 976.943 43.719C976.992 43.5595 977.012 43.4693 977.04 43.3792C977.2 42.7966 977.352 42.214 977.512 41.6244C977.623 41.2152 977.858 41.0834 978.268 41.1875C978.497 41.243 978.719 41.3123 978.94 41.3678C979.405 41.4926 979.87 41.6105 980.376 41.7423C979.447 40.1332 978.545 38.5727 977.657 37.033C977.387 37.0885 977.165 37.137 976.936 37.1856C976.506 37.2688 976.118 37.4491 975.847 37.789C975.417 38.323 974.904 38.7461 974.196 38.9611ZM966.026 43.7259C966.962 42.1099 967.857 40.5494 968.773 38.975C968.065 38.76 967.538 38.3438 967.101 37.8029C966.838 37.4769 966.47 37.2965 966.061 37.2064C965.818 37.1509 965.575 37.1093 965.305 37.0538C964.41 38.5935 963.509 40.1471 962.586 41.7562C963.314 41.562 963.98 41.3817 964.646 41.2013C965.138 41.0696 965.346 41.1944 965.478 41.6938C965.652 42.3457 965.825 42.9977 966.026 43.7259Z" fill="white"/>
<path d="M964.719 29.2026C964.733 26.5324 966.349 24.0702 968.804 23.0229C968.859 23.0021 968.915 22.9744 968.97 22.9535C969.269 22.8495 969.553 22.9605 969.664 23.231C969.775 23.5015 969.664 23.772 969.366 23.9107C969.123 24.0286 968.873 24.1326 968.644 24.2644C966.584 25.4227 965.426 27.8502 965.842 30.132C966.293 32.6011 968.152 34.4668 970.545 34.8483C973.707 35.3546 976.641 33.2323 977.141 30.0835C977.543 27.5311 976.163 25.0273 973.77 23.98C973.721 23.9592 973.673 23.9384 973.624 23.9176C973.312 23.772 973.187 23.5015 973.305 23.224C973.423 22.9466 973.707 22.8356 974.02 22.9605C974.824 23.2865 975.552 23.7373 976.163 24.3476C978.028 26.2411 978.694 28.5021 977.966 31.0614C977.245 33.5999 975.511 35.202 972.944 35.7985C969.06 36.707 965.19 33.912 964.781 29.9447C964.753 29.702 964.74 29.4523 964.719 29.2026Z" fill="white"/>
<path d="M970.884 28.183C971.606 27.4617 972.299 26.7681 972.986 26.0746C973.381 25.6792 973.61 25.6792 974.012 26.0815C974.477 26.5462 974.942 27.0109 975.407 27.4756C975.705 27.7808 975.712 28.0512 975.407 28.3495C974.047 29.7089 972.688 31.0683 971.328 32.4277C971.023 32.7328 970.753 32.7398 970.454 32.4346C969.483 31.4705 968.519 30.4995 967.555 29.5355C967.264 29.2442 967.264 28.9737 967.548 28.6824C968.048 28.1761 968.547 27.6767 969.053 27.1773C969.331 26.9069 969.608 26.9069 969.893 27.1773C970.226 27.5033 970.545 27.8362 970.884 28.183ZM973.485 27.0456C972.778 27.753 972.084 28.4535 971.384 29.154C971.016 29.5216 970.767 29.5216 970.399 29.1471C970.094 28.8419 969.802 28.5367 969.511 28.2454C969.199 28.5576 968.915 28.8419 968.651 29.1055C969.393 29.8476 970.149 30.6105 970.877 31.3388C972.015 30.2013 973.166 29.05 974.318 27.8987C974.061 27.6351 973.784 27.3507 973.485 27.0456Z" fill="white"/>
<path d="M971.496 22.475C971.78 22.4819 972.002 22.7108 972.002 22.9882C972.002 23.2656 971.767 23.5015 971.489 23.5015C971.205 23.5015 970.962 23.2518 970.969 22.9674C970.976 22.69 971.205 22.475 971.496 22.475Z" fill="white"/>
</svg>
