<svg width="1227" height="126" viewBox="0 0 1227 126" fill="none" xmlns="http://www.w3.org/2000/svg">
<g filter="url(#filter0_d_925_6296)">
<rect x="24" y="2" width="260" height="47" fill="white" shape-rendering="crispEdges"/>
<rect x="23.7658" y="1.76585" width="260.468" height="47.4683" stroke="black" stroke-opacity="0.2" stroke-width="0.468302" shape-rendering="crispEdges"/>
</g>
<path d="M106.691 18.49H102.605V31H106.691C110.705 31 113.333 28.642 113.333 24.79C113.333 20.92 110.705 18.49 106.691 18.49ZM104.657 29.326V20.164H106.691C109.643 20.164 111.227 21.928 111.227 24.79C111.227 27.634 109.643 29.326 106.691 29.326H104.657ZM114.683 25.996C114.683 29.056 116.753 31.162 119.327 31.162C120.983 31.162 122.171 30.37 122.801 29.524V31H124.871V21.082H122.801V22.522C122.189 21.712 121.037 20.92 119.363 20.92C116.753 20.92 114.683 22.936 114.683 25.996ZM122.801 26.032C122.801 28.174 121.343 29.38 119.795 29.38C118.265 29.38 116.789 28.138 116.789 25.996C116.789 23.854 118.265 22.702 119.795 22.702C121.343 22.702 122.801 23.908 122.801 26.032ZM127.89 28.246C127.89 30.262 128.988 31 130.752 31H132.372V29.29H131.112C130.248 29.29 129.96 28.984 129.96 28.246V22.756H132.372V21.082H129.96V18.616H127.89V21.082H126.72V22.756H127.89V28.246ZM133.579 25.996C133.579 29.056 135.649 31.162 138.223 31.162C139.879 31.162 141.067 30.37 141.697 29.524V31H143.767V21.082H141.697V22.522C141.085 21.712 139.933 20.92 138.259 20.92C135.649 20.92 133.579 22.936 133.579 25.996ZM141.697 26.032C141.697 28.174 140.239 29.38 138.691 29.38C137.161 29.38 135.685 28.138 135.685 25.996C135.685 23.854 137.161 22.702 138.691 22.702C140.239 22.702 141.697 23.908 141.697 26.032ZM159.58 27.454C159.58 22.882 152.956 24.646 152.956 21.82C152.956 20.614 153.874 20.038 155.062 20.074C156.358 20.11 157.096 20.884 157.168 21.73H159.436C159.256 19.588 157.564 18.328 155.17 18.328C152.614 18.328 150.868 19.696 150.868 21.892C150.868 26.5 157.51 24.538 157.51 27.562C157.51 28.624 156.7 29.398 155.26 29.398C153.838 29.398 153.118 28.57 153.028 27.544H150.832C150.832 29.758 152.758 31.126 155.26 31.126C158.05 31.126 159.58 29.326 159.58 27.454ZM161.317 26.032C161.317 29.146 163.333 31.162 166.177 31.162C168.607 31.162 170.191 29.812 170.749 27.868H168.535C168.157 28.894 167.401 29.434 166.177 29.434C164.521 29.434 163.423 28.21 163.423 26.032C163.423 23.872 164.521 22.648 166.177 22.648C167.401 22.648 168.193 23.26 168.535 24.214H170.749C170.191 22.126 168.607 20.92 166.177 20.92C163.333 20.92 161.317 22.936 161.317 26.032ZM172.794 31H174.846V21.082H172.794V31ZM173.838 19.768C174.558 19.768 175.134 19.192 175.134 18.454C175.134 17.716 174.558 17.14 173.838 17.14C173.1 17.14 172.524 17.716 172.524 18.454C172.524 19.192 173.1 19.768 173.838 19.768ZM181.716 22.648C183.246 22.648 184.452 23.62 184.488 25.15H178.998C179.214 23.584 180.33 22.648 181.716 22.648ZM186.36 28.048H184.146C183.768 28.822 183.066 29.434 181.806 29.434C180.294 29.434 179.124 28.444 178.98 26.806H186.558C186.612 26.464 186.63 26.14 186.63 25.798C186.63 22.882 184.632 20.92 181.806 20.92C178.872 20.92 176.856 22.918 176.856 26.032C176.856 29.146 178.962 31.162 181.806 31.162C184.236 31.162 185.802 29.776 186.36 28.048ZM195.688 31H197.722V25.15C197.722 22.378 195.976 20.92 193.654 20.92C192.466 20.92 191.368 21.406 190.702 22.216V21.082H188.65V31H190.702V25.456C190.702 23.638 191.692 22.702 193.204 22.702C194.698 22.702 195.688 23.638 195.688 25.456V31ZM200.663 28.246C200.663 30.262 201.761 31 203.525 31H205.145V29.29H203.885C203.021 29.29 202.733 28.984 202.733 28.246V22.756H205.145V21.082H202.733V18.616H200.663V21.082H199.493V22.756H200.663V28.246ZM207.037 31H209.089V21.082H207.037V31ZM208.081 19.768C208.801 19.768 209.377 19.192 209.377 18.454C209.377 17.716 208.801 17.14 208.081 17.14C207.343 17.14 206.767 17.716 206.767 18.454C206.767 19.192 207.343 19.768 208.081 19.768ZM219.181 28.228C219.073 24.646 213.475 25.762 213.475 23.764C213.475 23.098 214.051 22.648 215.149 22.648C216.265 22.648 216.931 23.242 217.003 24.106H219.055C218.947 22.126 217.471 20.92 215.221 20.92C212.881 20.92 211.405 22.198 211.405 23.782C211.405 27.418 217.165 26.302 217.165 28.246C217.165 28.93 216.535 29.434 215.347 29.434C214.213 29.434 213.439 28.768 213.367 27.958H211.243C211.333 29.758 213.007 31.162 215.383 31.162C217.723 31.162 219.181 29.902 219.181 28.228ZM221.722 28.246C221.722 30.262 222.82 31 224.584 31H226.204V29.29H224.944C224.08 29.29 223.792 28.984 223.792 28.246V22.756H226.204V21.082H223.792V18.616H221.722V21.082H220.552V22.756H221.722V28.246Z" fill="#212832"/>
<path d="M284 2H283V49H284V2Z" fill="#946FB0" stroke="#946FB0" stroke-width="0.936604"/>
<circle cx="24.4151" cy="25.4151" r="23.4151" fill="#946FB0" stroke="#946FB0"/>
<path d="M16.3494 24.9942C16.3494 28.9654 17.3983 31.9625 21.2197 31.9625C25.041 31.9625 26.09 28.9654 26.09 24.9942C26.09 21.0979 25.041 18.1008 21.2197 18.1008C17.3983 18.1008 16.3494 21.0979 16.3494 24.9942ZM23.992 24.9942C23.992 27.6729 23.7111 30.0144 21.2197 30.0144C18.7283 30.0144 18.4473 27.6729 18.4473 24.9942C18.4473 22.4466 18.7283 20.0489 21.2197 20.0489C23.7111 20.0489 23.992 22.4466 23.992 24.9942ZM29.8107 32H31.9649V18.3443H28.0686V20.2925H29.8107V32Z" fill="#212832"/>
<g filter="url(#filter1_d_925_6296)">
<rect x="965" y="1" width="260" height="47" fill="white" shape-rendering="crispEdges"/>
<rect x="964.766" y="0.765849" width="260.468" height="47.4683" stroke="black" stroke-opacity="0.2" stroke-width="0.468302" shape-rendering="crispEdges"/>
</g>
<path d="M1028.49 22.234C1028.49 23.476 1027.77 24.358 1026.16 24.358H1023.9V20.164H1026.16C1027.77 20.164 1028.49 20.974 1028.49 22.234ZM1021.84 18.49V31H1023.9V25.996H1025.46L1028.34 31H1030.79L1027.69 25.816C1029.8 25.294 1030.59 23.71 1030.59 22.234C1030.59 20.2 1029.13 18.49 1026.16 18.49H1021.84ZM1042.67 26.032C1042.67 22.918 1040.43 20.92 1037.61 20.92C1034.78 20.92 1032.55 22.918 1032.55 26.032C1032.55 29.146 1034.69 31.162 1037.52 31.162C1040.36 31.162 1042.67 29.146 1042.67 26.032ZM1034.64 26.032C1034.64 23.782 1036.02 22.702 1037.57 22.702C1039.1 22.702 1040.56 23.782 1040.56 26.032C1040.56 28.282 1039.05 29.38 1037.52 29.38C1035.97 29.38 1034.64 28.282 1034.64 26.032ZM1046.75 22.558V17.68H1044.69V31H1046.75V29.56C1047.39 30.424 1048.56 31.162 1050.2 31.162C1052.81 31.162 1054.86 29.056 1054.86 25.996C1054.86 22.936 1052.83 20.92 1050.2 20.92C1048.64 20.92 1047.39 21.658 1046.75 22.558ZM1052.78 25.996C1052.78 28.138 1051.3 29.38 1049.75 29.38C1048.22 29.38 1046.75 28.174 1046.75 26.032C1046.75 23.908 1048.22 22.702 1049.75 22.702C1051.3 22.702 1052.78 23.854 1052.78 25.996ZM1066.34 26.032C1066.34 22.918 1064.11 20.92 1061.29 20.92C1058.46 20.92 1056.23 22.918 1056.23 26.032C1056.23 29.146 1058.37 31.162 1061.2 31.162C1064.04 31.162 1066.34 29.146 1066.34 26.032ZM1058.32 26.032C1058.32 23.782 1059.7 22.702 1061.25 22.702C1062.78 22.702 1064.24 23.782 1064.24 26.032C1064.24 28.282 1062.73 29.38 1061.2 29.38C1059.65 29.38 1058.32 28.282 1058.32 26.032ZM1068.7 28.246C1068.7 30.262 1069.79 31 1071.56 31H1073.18V29.29H1071.92C1071.05 29.29 1070.77 28.984 1070.77 28.246V22.756H1073.18V21.082H1070.77V18.616H1068.7V21.082H1067.53V22.756H1068.7V28.246ZM1075.07 31H1077.12V21.082H1075.07V31ZM1076.11 19.768C1076.83 19.768 1077.41 19.192 1077.41 18.454C1077.41 17.716 1076.83 17.14 1076.11 17.14C1075.38 17.14 1074.8 17.716 1074.8 18.454C1074.8 19.192 1075.38 19.768 1076.11 19.768ZM1079.13 26.032C1079.13 29.146 1081.15 31.162 1083.99 31.162C1086.42 31.162 1088.01 29.812 1088.56 27.868H1086.35C1085.97 28.894 1085.22 29.434 1083.99 29.434C1082.34 29.434 1081.24 28.21 1081.24 26.032C1081.24 23.872 1082.34 22.648 1083.99 22.648C1085.22 22.648 1086.01 23.26 1086.35 24.214H1088.56C1088.01 22.126 1086.42 20.92 1083.99 20.92C1081.15 20.92 1079.13 22.936 1079.13 26.032ZM1098.01 28.228C1097.9 24.646 1092.3 25.762 1092.3 23.764C1092.3 23.098 1092.88 22.648 1093.97 22.648C1095.09 22.648 1095.76 23.242 1095.83 24.106H1097.88C1097.77 22.126 1096.3 20.92 1094.05 20.92C1091.71 20.92 1090.23 22.198 1090.23 23.782C1090.23 27.418 1095.99 26.302 1095.99 28.246C1095.99 28.93 1095.36 29.434 1094.17 29.434C1093.04 29.434 1092.26 28.768 1092.19 27.958H1090.07C1090.16 29.758 1091.83 31.162 1094.21 31.162C1096.55 31.162 1098.01 29.902 1098.01 28.228ZM1113.34 27.454C1113.34 22.882 1106.72 24.646 1106.72 21.82C1106.72 20.614 1107.64 20.038 1108.82 20.074C1110.12 20.11 1110.86 20.884 1110.93 21.73H1113.2C1113.02 19.588 1111.33 18.328 1108.93 18.328C1106.38 18.328 1104.63 19.696 1104.63 21.892C1104.63 26.5 1111.27 24.538 1111.27 27.562C1111.27 28.624 1110.46 29.398 1109.02 29.398C1107.6 29.398 1106.88 28.57 1106.79 27.544H1104.59C1104.59 29.758 1106.52 31.126 1109.02 31.126C1111.81 31.126 1113.34 29.326 1113.34 27.454ZM1115.08 26.032C1115.08 29.146 1117.1 31.162 1119.94 31.162C1122.37 31.162 1123.95 29.812 1124.51 27.868H1122.3C1121.92 28.894 1121.16 29.434 1119.94 29.434C1118.28 29.434 1117.19 28.21 1117.19 26.032C1117.19 23.872 1118.28 22.648 1119.94 22.648C1121.16 22.648 1121.96 23.26 1122.3 24.214H1124.51C1123.95 22.126 1122.37 20.92 1119.94 20.92C1117.1 20.92 1115.08 22.936 1115.08 26.032ZM1126.56 31H1128.61V21.082H1126.56V31ZM1127.6 19.768C1128.32 19.768 1128.9 19.192 1128.9 18.454C1128.9 17.716 1128.32 17.14 1127.6 17.14C1126.86 17.14 1126.29 17.716 1126.29 18.454C1126.29 19.192 1126.86 19.768 1127.6 19.768ZM1135.48 22.648C1137.01 22.648 1138.21 23.62 1138.25 25.15H1132.76C1132.98 23.584 1134.09 22.648 1135.48 22.648ZM1140.12 28.048H1137.91C1137.53 28.822 1136.83 29.434 1135.57 29.434C1134.06 29.434 1132.89 28.444 1132.74 26.806H1140.32C1140.37 26.464 1140.39 26.14 1140.39 25.798C1140.39 22.882 1138.39 20.92 1135.57 20.92C1132.63 20.92 1130.62 22.918 1130.62 26.032C1130.62 29.146 1132.72 31.162 1135.57 31.162C1138 31.162 1139.56 29.776 1140.12 28.048ZM1149.45 31H1151.48V25.15C1151.48 22.378 1149.74 20.92 1147.42 20.92C1146.23 20.92 1145.13 21.406 1144.46 22.216V21.082H1142.41V31H1144.46V25.456C1144.46 23.638 1145.45 22.702 1146.97 22.702C1148.46 22.702 1149.45 23.638 1149.45 25.456V31ZM1154.42 28.246C1154.42 30.262 1155.52 31 1157.29 31H1158.91V29.29H1157.65C1156.78 29.29 1156.49 28.984 1156.49 28.246V22.756H1158.91V21.082H1156.49V18.616H1154.42V21.082H1153.25V22.756H1154.42V28.246ZM1160.8 31H1162.85V21.082H1160.8V31ZM1161.84 19.768C1162.56 19.768 1163.14 19.192 1163.14 18.454C1163.14 17.716 1162.56 17.14 1161.84 17.14C1161.1 17.14 1160.53 17.716 1160.53 18.454C1160.53 19.192 1161.1 19.768 1161.84 19.768ZM1172.94 28.228C1172.83 24.646 1167.24 25.762 1167.24 23.764C1167.24 23.098 1167.81 22.648 1168.91 22.648C1170.03 22.648 1170.69 23.242 1170.76 24.106H1172.82C1172.71 22.126 1171.23 20.92 1168.98 20.92C1166.64 20.92 1165.17 22.198 1165.17 23.782C1165.17 27.418 1170.93 26.302 1170.93 28.246C1170.93 28.93 1170.3 29.434 1169.11 29.434C1167.97 29.434 1167.2 28.768 1167.13 27.958H1165C1165.09 29.758 1166.77 31.162 1169.14 31.162C1171.48 31.162 1172.94 29.902 1172.94 28.228ZM1175.48 28.246C1175.48 30.262 1176.58 31 1178.35 31H1179.97V29.29H1178.71C1177.84 29.29 1177.55 28.984 1177.55 28.246V22.756H1179.97V21.082H1177.55V18.616H1175.48V21.082H1174.31V22.756H1175.48V28.246Z" fill="#212832"/>
<path d="M1225 1H1223V48H1225V1Z" fill="#CF1C54" stroke="#CF1C54" stroke-width="0.936604"/>
<circle cx="965.415" cy="24.4151" r="23.4151" fill="#E9336C" stroke="#E9336C"/>
<path d="M954.47 24.6055C954.47 28.5767 955.519 31.5739 959.34 31.5739C963.162 31.5739 964.211 28.5767 964.211 24.6055C964.211 20.7093 963.162 17.7121 959.34 17.7121C955.519 17.7121 954.47 20.7093 954.47 24.6055ZM962.113 24.6055C962.113 27.2842 961.832 29.6257 959.34 29.6257C956.849 29.6257 956.568 27.2842 956.568 24.6055C956.568 22.058 956.849 19.6603 959.34 19.6603C961.832 19.6603 962.113 22.058 962.113 24.6055ZM972.989 31.6113H975.087V28.7641H976.829V26.9096H975.087V18.1242H972.502L966.208 27.1531V28.7641H972.989V31.6113ZM968.662 26.9096L973.083 20.2972V26.9096H968.662Z" fill="#212832"/>
<g filter="url(#filter2_d_925_6296)">
<rect x="861" y="78" width="365" height="47" fill="white" shape-rendering="crispEdges"/>
<rect x="860.766" y="77.7658" width="365.468" height="47.4683" stroke="black" stroke-opacity="0.2" stroke-width="0.468302" shape-rendering="crispEdges"/>
</g>
<path d="M991.572 108H993.732L989.25 95.472H986.874L982.392 108H984.534L985.434 105.444H990.672L991.572 108ZM990.096 103.77H986.01L988.062 97.956L990.096 103.77ZM995.321 108H997.373V95.49H995.321V108ZM1008.11 95.49H1004.02V108H1008.11C1012.12 108 1014.75 105.642 1014.75 101.79C1014.75 97.92 1012.12 95.49 1008.11 95.49ZM1006.07 106.326V97.164H1008.11C1011.06 97.164 1012.64 98.928 1012.64 101.79C1012.64 104.634 1011.06 106.326 1008.11 106.326H1006.07ZM1015.74 102.996C1015.74 106.056 1017.81 108.162 1020.38 108.162C1022.04 108.162 1023.23 107.37 1023.86 106.524V108H1025.93V98.082H1023.86V99.522C1023.25 98.712 1022.09 97.92 1020.42 97.92C1017.81 97.92 1015.74 99.936 1015.74 102.996ZM1023.86 103.032C1023.86 105.174 1022.4 106.38 1020.85 106.38C1019.32 106.38 1017.85 105.138 1017.85 102.996C1017.85 100.854 1019.32 99.702 1020.85 99.702C1022.4 99.702 1023.86 100.908 1023.86 103.032ZM1028.59 105.246C1028.59 107.262 1029.69 108 1031.45 108H1033.07V106.29H1031.81C1030.95 106.29 1030.66 105.984 1030.66 105.246V99.756H1033.07V98.082H1030.66V95.616H1028.59V98.082H1027.42V99.756H1028.59V105.246ZM1033.92 102.996C1033.92 106.056 1035.99 108.162 1038.56 108.162C1040.22 108.162 1041.4 107.37 1042.03 106.524V108H1044.1V98.082H1042.03V99.522C1041.42 98.712 1040.27 97.92 1038.6 97.92C1035.99 97.92 1033.92 99.936 1033.92 102.996ZM1042.03 103.032C1042.03 105.174 1040.58 106.38 1039.03 106.38C1037.5 106.38 1036.02 105.138 1036.02 102.996C1036.02 100.854 1037.5 99.702 1039.03 99.702C1040.58 99.702 1042.03 100.908 1042.03 103.032ZM1059.2 108H1061.36L1056.88 95.472H1054.5L1050.02 108H1052.16L1053.06 105.444H1058.3L1059.2 108ZM1057.72 103.77H1053.64L1055.69 97.956L1057.72 103.77ZM1069.98 108H1072.02V102.15C1072.02 99.378 1070.27 97.92 1067.95 97.92C1066.76 97.92 1065.66 98.406 1065 99.216V98.082H1062.95V108H1065V102.456C1065 100.638 1065.99 99.702 1067.5 99.702C1068.99 99.702 1069.98 100.638 1069.98 102.456V108ZM1073.59 102.996C1073.59 106.056 1075.66 108.162 1078.24 108.162C1079.89 108.162 1081.08 107.37 1081.71 106.524V108H1083.78V98.082H1081.71V99.522C1081.1 98.712 1079.95 97.92 1078.27 97.92C1075.66 97.92 1073.59 99.936 1073.59 102.996ZM1081.71 103.032C1081.71 105.174 1080.25 106.38 1078.7 106.38C1077.17 106.38 1075.7 105.138 1075.7 102.996C1075.7 100.854 1077.17 99.702 1078.7 99.702C1080.25 99.702 1081.71 100.908 1081.71 103.032ZM1086.12 108H1088.17V94.68H1086.12V108ZM1094.41 105.642L1091.62 98.082H1089.33L1093.24 107.838L1091.22 112.662H1093.35L1099.43 98.082H1097.31L1094.41 105.642ZM1108.02 105.228C1107.91 101.646 1102.31 102.762 1102.31 100.764C1102.31 100.098 1102.89 99.648 1103.98 99.648C1105.1 99.648 1105.77 100.242 1105.84 101.106H1107.89C1107.78 99.126 1106.31 97.92 1104.06 97.92C1101.72 97.92 1100.24 99.198 1100.24 100.782C1100.24 104.418 1106 103.302 1106 105.246C1106 105.93 1105.37 106.434 1104.18 106.434C1103.05 106.434 1102.27 105.768 1102.2 104.958H1100.08C1100.17 106.758 1101.84 108.162 1104.22 108.162C1106.56 108.162 1108.02 106.902 1108.02 105.228ZM1110.2 105.246C1110.2 107.262 1111.29 108 1113.06 108H1114.68V106.29H1113.42C1112.55 106.29 1112.27 105.984 1112.27 105.246V99.756H1114.68V98.082H1112.27V95.616H1110.2V98.082H1109.03V99.756H1110.2V105.246Z" fill="#212832"/>
<path d="M1226 78H1224V125H1226V78Z" fill="#FFDC5F" stroke="#FFDC5F" stroke-width="0.936604"/>
<circle cx="861.415" cy="101.415" r="23.4151" fill="#FFDC5F" stroke="#FFDC5F"/>
<path d="M851.293 101.606C851.293 105.577 852.342 108.574 856.163 108.574C859.985 108.574 861.034 105.577 861.034 101.606C861.034 97.7093 859.985 94.7121 856.163 94.7121C852.342 94.7121 851.293 97.7093 851.293 101.606ZM858.936 101.606C858.936 104.284 858.655 106.626 856.163 106.626C853.672 106.626 853.391 104.284 853.391 101.606C853.391 99.058 853.672 96.6603 856.163 96.6603C858.655 96.6603 858.936 99.058 858.936 101.606ZM862.919 95.0118V96.8289H869.85L864.586 108.611H866.74L871.948 96.6041V95.0118H862.919Z" fill="#212832"/>
<g filter="url(#filter3_d_925_6296)">
<rect x="24" y="77" width="365" height="47" fill="white" shape-rendering="crispEdges"/>
<rect x="23.7658" y="76.7658" width="365.468" height="47.4683" stroke="black" stroke-opacity="0.2" stroke-width="0.468302" shape-rendering="crispEdges"/>
</g>
<path d="M91.4096 107H93.4616V98.432L97.2956 107H98.7176L102.534 98.432V107H104.586V94.49H102.39L98.0156 104.3L93.6236 94.49H91.4096V107ZM106.599 101.996C106.599 105.056 108.669 107.162 111.243 107.162C112.899 107.162 114.087 106.37 114.717 105.524V107H116.787V97.082H114.717V98.522C114.105 97.712 112.953 96.92 111.279 96.92C108.669 96.92 106.599 98.936 106.599 101.996ZM114.717 102.032C114.717 104.174 113.259 105.38 111.711 105.38C110.181 105.38 108.705 104.138 108.705 101.996C108.705 99.854 110.181 98.702 111.711 98.702C113.259 98.702 114.717 99.908 114.717 102.032ZM118.798 102.032C118.798 105.146 120.814 107.162 123.658 107.162C126.088 107.162 127.672 105.812 128.23 103.868H126.016C125.638 104.894 124.882 105.434 123.658 105.434C122.002 105.434 120.904 104.21 120.904 102.032C120.904 99.872 122.002 98.648 123.658 98.648C124.882 98.648 125.674 99.26 126.016 100.214H128.23C127.672 98.126 126.088 96.92 123.658 96.92C120.814 96.92 118.798 98.936 118.798 102.032ZM130.275 107H132.327V101.456C132.327 99.638 133.317 98.702 134.829 98.702C136.323 98.702 137.313 99.638 137.313 101.456V107H139.347V101.15C139.347 98.378 137.619 96.92 135.405 96.92C134.127 96.92 133.011 97.406 132.327 98.234V93.68H130.275V107ZM141.964 107H144.016V97.082H141.964V107ZM143.008 95.768C143.728 95.768 144.304 95.192 144.304 94.454C144.304 93.716 143.728 93.14 143.008 93.14C142.27 93.14 141.694 93.716 141.694 94.454C141.694 95.192 142.27 95.768 143.008 95.768ZM153.748 107H155.782V101.15C155.782 98.378 154.036 96.92 151.714 96.92C150.526 96.92 149.428 97.406 148.762 98.216V97.082H146.71V107H148.762V101.456C148.762 99.638 149.752 98.702 151.264 98.702C152.758 98.702 153.748 99.638 153.748 101.456V107ZM162.576 98.648C164.106 98.648 165.312 99.62 165.348 101.15H159.858C160.074 99.584 161.19 98.648 162.576 98.648ZM167.22 104.048H165.006C164.628 104.822 163.926 105.434 162.666 105.434C161.154 105.434 159.984 104.444 159.84 102.806H167.418C167.472 102.464 167.49 102.14 167.49 101.798C167.49 98.882 165.492 96.92 162.666 96.92C159.732 96.92 157.716 98.918 157.716 102.032C157.716 105.146 159.822 107.162 162.666 107.162C165.096 107.162 166.662 105.776 167.22 104.048ZM174.185 94.49V107H180.467V105.344H176.237V94.49H174.185ZM186.359 98.648C187.889 98.648 189.095 99.62 189.131 101.15H183.641C183.857 99.584 184.973 98.648 186.359 98.648ZM191.003 104.048H188.789C188.411 104.822 187.709 105.434 186.449 105.434C184.937 105.434 183.767 104.444 183.623 102.806H191.201C191.255 102.464 191.273 102.14 191.273 101.798C191.273 98.882 189.275 96.92 186.449 96.92C183.515 96.92 181.499 98.918 181.499 102.032C181.499 105.146 183.605 107.162 186.449 107.162C188.879 107.162 190.445 105.776 191.003 104.048ZM192.608 101.996C192.608 105.056 194.678 107.162 197.252 107.162C198.908 107.162 200.096 106.37 200.726 105.524V107H202.796V97.082H200.726V98.522C200.114 97.712 198.962 96.92 197.288 96.92C194.678 96.92 192.608 98.936 192.608 101.996ZM200.726 102.032C200.726 104.174 199.268 105.38 197.72 105.38C196.19 105.38 194.714 104.138 194.714 101.996C194.714 99.854 196.19 98.702 197.72 98.702C199.268 98.702 200.726 99.908 200.726 102.032ZM207.544 101.78C207.544 99.674 208.48 99.044 209.992 99.044H210.514V96.92C209.11 96.92 208.12 97.532 207.544 98.522V97.082H205.492V107H207.544V101.78ZM219.438 107H221.472V101.15C221.472 98.378 219.726 96.92 217.404 96.92C216.216 96.92 215.118 97.406 214.452 98.216V97.082H212.4V107H214.452V101.456C214.452 99.638 215.442 98.702 216.954 98.702C218.448 98.702 219.438 99.638 219.438 101.456V107ZM224.089 107H226.141V97.082H224.089V107ZM225.133 95.768C225.853 95.768 226.429 95.192 226.429 94.454C226.429 93.716 225.853 93.14 225.133 93.14C224.395 93.14 223.819 93.716 223.819 94.454C223.819 95.192 224.395 95.768 225.133 95.768ZM235.873 107H237.907V101.15C237.907 98.378 236.161 96.92 233.839 96.92C232.651 96.92 231.553 97.406 230.887 98.216V97.082H228.835V107H230.887V101.456C230.887 99.638 231.877 98.702 233.389 98.702C234.883 98.702 235.873 99.638 235.873 101.456V107ZM239.841 101.996C239.841 105.056 241.911 107.162 244.521 107.162C246.141 107.162 247.329 106.352 247.959 105.506V107.162C247.959 109.142 246.771 110.114 245.187 110.114C243.765 110.114 242.667 109.412 242.361 108.386H240.327C240.579 110.582 242.541 111.896 245.187 111.896C248.283 111.896 250.029 109.862 250.029 107.162V97.082H247.959V98.522C247.347 97.676 246.141 96.92 244.521 96.92C241.911 96.92 239.841 98.936 239.841 101.996ZM247.959 102.032C247.959 104.174 246.501 105.38 244.953 105.38C243.423 105.38 241.947 104.138 241.947 101.996C241.947 99.854 243.423 98.702 244.953 98.702C246.501 98.702 247.959 99.908 247.959 102.032ZM264.312 94.472H257.4V107H264.312V105.326H259.452V101.492H263.772V99.818H259.452V96.146H264.312V94.472ZM273.877 107H275.911V101.15C275.911 98.378 274.165 96.92 271.843 96.92C270.655 96.92 269.557 97.406 268.891 98.216V97.082H266.839V107H268.891V101.456C268.891 99.638 269.881 98.702 271.393 98.702C272.887 98.702 273.877 99.638 273.877 101.456V107ZM277.845 101.996C277.845 105.056 279.915 107.162 282.525 107.162C284.145 107.162 285.333 106.352 285.963 105.506V107.162C285.963 109.142 284.775 110.114 283.191 110.114C281.769 110.114 280.671 109.412 280.365 108.386H278.331C278.583 110.582 280.545 111.896 283.191 111.896C286.287 111.896 288.033 109.862 288.033 107.162V97.082H285.963V98.522C285.351 97.676 284.145 96.92 282.525 96.92C279.915 96.92 277.845 98.936 277.845 101.996ZM285.963 102.032C285.963 104.174 284.505 105.38 282.957 105.38C281.427 105.38 279.951 104.138 279.951 101.996C279.951 99.854 281.427 98.702 282.957 98.702C284.505 98.702 285.963 99.908 285.963 102.032ZM290.728 107H292.78V97.082H290.728V107ZM291.772 95.768C292.492 95.768 293.068 95.192 293.068 94.454C293.068 93.716 292.492 93.14 291.772 93.14C291.034 93.14 290.458 93.716 290.458 94.454C290.458 95.192 291.034 95.768 291.772 95.768ZM302.512 107H304.546V101.15C304.546 98.378 302.8 96.92 300.478 96.92C299.29 96.92 298.192 97.406 297.526 98.216V97.082H295.474V107H297.526V101.456C297.526 99.638 298.516 98.702 300.028 98.702C301.522 98.702 302.512 99.638 302.512 101.456V107ZM311.339 98.648C312.869 98.648 314.075 99.62 314.111 101.15H308.621C308.837 99.584 309.953 98.648 311.339 98.648ZM315.983 104.048H313.769C313.391 104.822 312.689 105.434 311.429 105.434C309.917 105.434 308.747 104.444 308.603 102.806H316.181C316.235 102.464 316.253 102.14 316.253 101.798C316.253 98.882 314.255 96.92 311.429 96.92C308.495 96.92 306.479 98.918 306.479 102.032C306.479 105.146 308.585 107.162 311.429 107.162C313.859 107.162 315.425 105.776 315.983 104.048ZM322.449 98.648C323.979 98.648 325.185 99.62 325.221 101.15H319.731C319.947 99.584 321.063 98.648 322.449 98.648ZM327.093 104.048H324.879C324.501 104.822 323.799 105.434 322.539 105.434C321.027 105.434 319.857 104.444 319.713 102.806H327.291C327.345 102.464 327.363 102.14 327.363 101.798C327.363 98.882 325.365 96.92 322.539 96.92C319.605 96.92 317.589 98.918 317.589 102.032C317.589 105.146 319.695 107.162 322.539 107.162C324.969 107.162 326.535 105.776 327.093 104.048ZM331.434 101.78C331.434 99.674 332.37 99.044 333.882 99.044H334.404V96.92C333 96.92 332.01 97.532 331.434 98.522V97.082H329.382V107H331.434V101.78Z" fill="#212832"/>
<path d="M389 77H387V124H389V77Z" fill="#00ADEF" stroke="#00ADEF" stroke-width="0.936604"/>
<circle cx="24.4151" cy="100.851" r="23.4151" fill="#00ADEF" stroke="#00ADEF"/>
<path d="M13.5522 100.606C13.5522 104.577 14.6012 107.574 18.4225 107.574C22.2439 107.574 23.2929 104.577 23.2929 100.606C23.2929 96.7093 22.2439 93.7121 18.4225 93.7121C14.6012 93.7121 13.5522 96.7093 13.5522 100.606ZM21.1949 100.606C21.1949 103.284 20.9139 105.626 18.4225 105.626C15.9312 105.626 15.6502 103.284 15.6502 100.606C15.6502 98.058 15.9312 95.6603 18.4225 95.6603C20.9139 95.6603 21.1949 98.058 21.1949 100.606ZM26.1144 93.9182V101.804H28.1375C28.4934 100.793 29.3363 100.1 30.5914 100.1C32.3709 100.1 33.2513 101.111 33.2513 102.891C33.2513 104.577 32.4271 105.832 30.5914 105.832C29.149 105.832 28.1749 105.082 27.894 103.921H25.8147C26.1331 106.057 27.7628 107.611 30.5726 107.611C33.7384 107.611 35.2931 105.551 35.2931 102.835C35.2931 100.774 34.2629 98.2828 30.9098 98.2828C29.6922 98.2828 28.587 98.8447 28.0813 99.5191V95.7914H34.3565V93.9182H26.1144Z" fill="#212832"/>
<g filter="url(#filter4_d_925_6296)">
<rect x="444" y="77" width="365" height="47" fill="white" shape-rendering="crispEdges"/>
<rect x="443.766" y="76.7658" width="365.468" height="47.4683" stroke="black" stroke-opacity="0.2" stroke-width="0.468302" shape-rendering="crispEdges"/>
</g>
<path d="M558.715 103.418C558.715 104.624 557.869 105.326 556.483 105.326H553.711V101.42H556.411C557.779 101.42 558.715 102.176 558.715 103.418ZM558.391 97.964C558.391 99.116 557.581 99.746 556.249 99.746H553.711V96.164H556.249C557.581 96.164 558.391 96.83 558.391 97.964ZM560.767 103.634C560.767 102.14 559.687 100.808 558.355 100.574C559.561 100.142 560.479 99.224 560.479 97.712C560.479 95.948 559.075 94.49 556.429 94.49H551.659V107H556.663C559.219 107 560.767 105.542 560.767 103.634ZM562.996 107H565.048V97.082H562.996V107ZM564.04 95.768C564.76 95.768 565.336 95.192 565.336 94.454C565.336 93.716 564.76 93.14 564.04 93.14C563.302 93.14 562.726 93.716 562.726 94.454C562.726 95.192 563.302 95.768 564.04 95.768ZM567.059 101.996C567.059 105.056 569.129 107.162 571.739 107.162C573.359 107.162 574.547 106.352 575.177 105.506V107.162C575.177 109.142 573.989 110.114 572.405 110.114C570.983 110.114 569.885 109.412 569.579 108.386H567.545C567.797 110.582 569.759 111.896 572.405 111.896C575.501 111.896 577.247 109.862 577.247 107.162V97.082H575.177V98.522C574.565 97.676 573.359 96.92 571.739 96.92C569.129 96.92 567.059 98.936 567.059 101.996ZM575.177 102.032C575.177 104.174 573.719 105.38 572.171 105.38C570.641 105.38 569.165 104.138 569.165 101.996C569.165 99.854 570.641 98.702 572.171 98.702C573.719 98.702 575.177 99.908 575.177 102.032ZM588.704 94.49H584.618V107H588.704C592.718 107 595.346 104.642 595.346 100.79C595.346 96.92 592.718 94.49 588.704 94.49ZM586.67 105.326V96.164H588.704C591.656 96.164 593.24 97.928 593.24 100.79C593.24 103.634 591.656 105.326 588.704 105.326H586.67ZM596.695 101.996C596.695 105.056 598.765 107.162 601.339 107.162C602.995 107.162 604.183 106.37 604.813 105.524V107H606.883V97.082H604.813V98.522C604.201 97.712 603.049 96.92 601.375 96.92C598.765 96.92 596.695 98.936 596.695 101.996ZM604.813 102.032C604.813 104.174 603.355 105.38 601.807 105.38C600.277 105.38 598.801 104.138 598.801 101.996C598.801 99.854 600.277 98.702 601.807 98.702C603.355 98.702 604.813 99.908 604.813 102.032ZM609.903 104.246C609.903 106.262 611.001 107 612.765 107H614.385V105.29H613.125C612.261 105.29 611.973 104.984 611.973 104.246V98.756H614.385V97.082H611.973V94.616H609.903V97.082H608.733V98.756H609.903V104.246ZM615.592 101.996C615.592 105.056 617.662 107.162 620.236 107.162C621.892 107.162 623.08 106.37 623.71 105.524V107H625.78V97.082H623.71V98.522C623.098 97.712 621.946 96.92 620.272 96.92C617.662 96.92 615.592 98.936 615.592 101.996ZM623.71 102.032C623.71 104.174 622.252 105.38 620.704 105.38C619.174 105.38 617.698 104.138 617.698 101.996C617.698 99.854 619.174 98.702 620.704 98.702C622.252 98.702 623.71 99.908 623.71 102.032ZM640.063 94.472H633.151V107H640.063V105.326H635.203V101.492H639.523V99.818H635.203V96.146H640.063V94.472ZM649.628 107H651.662V101.15C651.662 98.378 649.916 96.92 647.594 96.92C646.406 96.92 645.308 97.406 644.642 98.216V97.082H642.59V107H644.642V101.456C644.642 99.638 645.632 98.702 647.144 98.702C648.638 98.702 649.628 99.638 649.628 101.456V107ZM653.596 101.996C653.596 105.056 655.666 107.162 658.276 107.162C659.896 107.162 661.084 106.352 661.714 105.506V107.162C661.714 109.142 660.526 110.114 658.942 110.114C657.52 110.114 656.422 109.412 656.116 108.386H654.082C654.334 110.582 656.296 111.896 658.942 111.896C662.038 111.896 663.784 109.862 663.784 107.162V97.082H661.714V98.522C661.102 97.676 659.896 96.92 658.276 96.92C655.666 96.92 653.596 98.936 653.596 101.996ZM661.714 102.032C661.714 104.174 660.256 105.38 658.708 105.38C657.178 105.38 655.702 104.138 655.702 101.996C655.702 99.854 657.178 98.702 658.708 98.702C660.256 98.702 661.714 99.908 661.714 102.032ZM666.479 107H668.531V97.082H666.479V107ZM667.523 95.768C668.243 95.768 668.819 95.192 668.819 94.454C668.819 93.716 668.243 93.14 667.523 93.14C666.785 93.14 666.209 93.716 666.209 94.454C666.209 95.192 666.785 95.768 667.523 95.768ZM678.263 107H680.297V101.15C680.297 98.378 678.551 96.92 676.229 96.92C675.041 96.92 673.943 97.406 673.277 98.216V97.082H671.225V107H673.277V101.456C673.277 99.638 674.267 98.702 675.779 98.702C677.273 98.702 678.263 99.638 678.263 101.456V107ZM687.09 98.648C688.62 98.648 689.826 99.62 689.862 101.15H684.372C684.588 99.584 685.704 98.648 687.09 98.648ZM691.734 104.048H689.52C689.142 104.822 688.44 105.434 687.18 105.434C685.668 105.434 684.498 104.444 684.354 102.806H691.932C691.986 102.464 692.004 102.14 692.004 101.798C692.004 98.882 690.006 96.92 687.18 96.92C684.246 96.92 682.23 98.918 682.23 102.032C682.23 105.146 684.336 107.162 687.18 107.162C689.61 107.162 691.176 105.776 691.734 104.048ZM698.2 98.648C699.73 98.648 700.936 99.62 700.972 101.15H695.482C695.698 99.584 696.814 98.648 698.2 98.648ZM702.844 104.048H700.63C700.252 104.822 699.55 105.434 698.29 105.434C696.778 105.434 695.608 104.444 695.464 102.806H703.042C703.096 102.464 703.114 102.14 703.114 101.798C703.114 98.882 701.116 96.92 698.29 96.92C695.356 96.92 693.34 98.918 693.34 102.032C693.34 105.146 695.446 107.162 698.29 107.162C700.72 107.162 702.286 105.776 702.844 104.048ZM707.185 101.78C707.185 99.674 708.121 99.044 709.633 99.044H710.155V96.92C708.751 96.92 707.761 97.532 707.185 98.522V97.082H705.133V107H707.185V101.78Z" fill="#212832"/>
<path d="M809 77H807V124H809V77Z" fill="#E74C3C" stroke="#E74C3C" stroke-width="0.936604"/>
<circle cx="441.415" cy="100.851" r="23.4151" fill="#E74C3C" stroke="#E74C3C"/>
<path d="M430.525 100.606C430.525 104.577 431.574 107.574 435.395 107.574C439.216 107.574 440.265 104.577 440.265 100.606C440.265 96.7093 439.216 93.7121 435.395 93.7121C431.574 93.7121 430.525 96.7093 430.525 100.606ZM438.167 100.606C438.167 103.284 437.886 105.626 435.395 105.626C432.904 105.626 432.623 103.284 432.623 100.606C432.623 98.058 432.904 95.6603 435.395 95.6603C437.886 95.6603 438.167 98.058 438.167 100.606ZM451.835 97.1214C451.61 95.3044 450.28 93.6185 447.62 93.6185C444.211 93.6185 442.787 96.2035 442.787 100.474C442.787 104.82 443.818 107.611 447.789 107.611C450.711 107.611 452.266 105.644 452.266 103.059C452.266 100.212 450.524 98.5637 448.07 98.5637C446.646 98.5637 445.297 99.1632 444.623 100.287C444.679 96.7093 445.672 95.398 447.601 95.398C448.95 95.398 449.606 96.0162 449.868 97.1214H451.835ZM447.601 100.362C449.4 100.362 450.224 101.523 450.224 103.153C450.224 104.764 449.25 105.832 447.676 105.832C445.859 105.832 444.867 104.708 444.867 103.022C444.867 101.205 446.196 100.362 447.601 100.362Z" fill="#212832"/>
<g filter="url(#filter5_d_925_6296)">
<rect x="337" y="2" width="260" height="47" fill="white" shape-rendering="crispEdges"/>
<rect x="336.766" y="1.76585" width="260.468" height="47.4683" stroke="black" stroke-opacity="0.2" stroke-width="0.468302" shape-rendering="crispEdges"/>
</g>
<path d="M597 2H595V49H597V2Z" fill="#A9CF54" stroke="#A9CF54" stroke-width="0.936604"/>
<path d="M403.601 31H405.761L401.279 18.472H398.903L394.421 31H396.563L397.463 28.444H402.701L403.601 31ZM402.125 26.77H398.039L400.091 20.956L402.125 26.77ZM409.761 22.54V21.082H407.709V35.716H409.761V29.56C410.409 30.334 411.579 31.162 413.217 31.162C415.827 31.162 417.879 29.056 417.879 25.996C417.879 22.936 415.827 20.92 413.217 20.92C411.597 20.92 410.391 21.712 409.761 22.54ZM415.791 25.996C415.791 28.138 414.315 29.38 412.767 29.38C411.237 29.38 409.761 28.174 409.761 26.032C409.761 23.908 411.237 22.702 412.767 22.702C414.315 22.702 415.791 23.854 415.791 25.996ZM421.961 22.54V21.082H419.909V35.716H421.961V29.56C422.609 30.334 423.779 31.162 425.417 31.162C428.027 31.162 430.079 29.056 430.079 25.996C430.079 22.936 428.027 20.92 425.417 20.92C423.797 20.92 422.591 21.712 421.961 22.54ZM427.991 25.996C427.991 28.138 426.515 29.38 424.967 29.38C423.437 29.38 421.961 28.174 421.961 26.032C421.961 23.908 423.437 22.702 424.967 22.702C426.515 22.702 427.991 23.854 427.991 25.996ZM432.108 31H434.16V17.68H432.108V31ZM436.854 31H438.906V21.082H436.854V31ZM437.898 19.768C438.618 19.768 439.194 19.192 439.194 18.454C439.194 17.716 438.618 17.14 437.898 17.14C437.16 17.14 436.584 17.716 436.584 18.454C436.584 19.192 437.16 19.768 437.898 19.768ZM445.776 22.648C447.306 22.648 448.512 23.62 448.548 25.15H443.058C443.274 23.584 444.39 22.648 445.776 22.648ZM450.42 28.048H448.206C447.828 28.822 447.126 29.434 445.866 29.434C444.354 29.434 443.184 28.444 443.04 26.806H450.618C450.672 26.464 450.69 26.14 450.69 25.798C450.69 22.882 448.692 20.92 445.866 20.92C442.932 20.92 440.916 22.918 440.916 26.032C440.916 29.146 443.022 31.162 445.866 31.162C448.296 31.162 449.862 29.776 450.42 28.048ZM452.025 25.996C452.025 29.056 454.095 31.162 456.705 31.162C458.325 31.162 459.513 30.406 460.143 29.506V31H462.213V17.68H460.143V22.468C459.387 21.532 458.019 20.92 456.723 20.92C454.095 20.92 452.025 22.936 452.025 25.996ZM460.143 26.032C460.143 28.174 458.685 29.38 457.137 29.38C455.607 29.38 454.131 28.138 454.131 25.996C454.131 23.854 455.607 22.702 457.137 22.702C458.685 22.702 460.143 23.908 460.143 26.032ZM478.026 27.454C478.026 22.882 471.402 24.646 471.402 21.82C471.402 20.614 472.32 20.038 473.508 20.074C474.804 20.11 475.542 20.884 475.614 21.73H477.882C477.702 19.588 476.01 18.328 473.616 18.328C471.06 18.328 469.314 19.696 469.314 21.892C469.314 26.5 475.956 24.538 475.956 27.562C475.956 28.624 475.146 29.398 473.706 29.398C472.284 29.398 471.564 28.57 471.474 27.544H469.278C469.278 29.758 471.204 31.126 473.706 31.126C476.496 31.126 478.026 29.326 478.026 27.454ZM479.764 26.032C479.764 29.146 481.78 31.162 484.624 31.162C487.054 31.162 488.638 29.812 489.196 27.868H486.982C486.604 28.894 485.848 29.434 484.624 29.434C482.968 29.434 481.87 28.21 481.87 26.032C481.87 23.872 482.968 22.648 484.624 22.648C485.848 22.648 486.64 23.26 486.982 24.214H489.196C488.638 22.126 487.054 20.92 484.624 20.92C481.78 20.92 479.764 22.936 479.764 26.032ZM491.241 31H493.293V21.082H491.241V31ZM492.285 19.768C493.005 19.768 493.581 19.192 493.581 18.454C493.581 17.716 493.005 17.14 492.285 17.14C491.547 17.14 490.971 17.716 490.971 18.454C490.971 19.192 491.547 19.768 492.285 19.768ZM500.163 22.648C501.693 22.648 502.899 23.62 502.935 25.15H497.445C497.661 23.584 498.777 22.648 500.163 22.648ZM504.807 28.048H502.593C502.215 28.822 501.513 29.434 500.253 29.434C498.741 29.434 497.571 28.444 497.427 26.806H505.005C505.059 26.464 505.077 26.14 505.077 25.798C505.077 22.882 503.079 20.92 500.253 20.92C497.319 20.92 495.303 22.918 495.303 26.032C495.303 29.146 497.409 31.162 500.253 31.162C502.683 31.162 504.249 29.776 504.807 28.048ZM514.134 31H516.168V25.15C516.168 22.378 514.422 20.92 512.1 20.92C510.912 20.92 509.814 21.406 509.148 22.216V21.082H507.096V31H509.148V25.456C509.148 23.638 510.138 22.702 511.65 22.702C513.144 22.702 514.134 23.638 514.134 25.456V31ZM519.11 28.246C519.11 30.262 520.208 31 521.972 31H523.592V29.29H522.332C521.468 29.29 521.18 28.984 521.18 28.246V22.756H523.592V21.082H521.18V18.616H519.11V21.082H517.94V22.756H519.11V28.246ZM525.483 31H527.535V21.082H525.483V31ZM526.527 19.768C527.247 19.768 527.823 19.192 527.823 18.454C527.823 17.716 527.247 17.14 526.527 17.14C525.789 17.14 525.213 17.716 525.213 18.454C525.213 19.192 525.789 19.768 526.527 19.768ZM537.627 28.228C537.519 24.646 531.921 25.762 531.921 23.764C531.921 23.098 532.497 22.648 533.595 22.648C534.711 22.648 535.377 23.242 535.449 24.106H537.501C537.393 22.126 535.917 20.92 533.667 20.92C531.327 20.92 529.851 22.198 529.851 23.782C529.851 27.418 535.611 26.302 535.611 28.246C535.611 28.93 534.981 29.434 533.793 29.434C532.659 29.434 531.885 28.768 531.813 27.958H529.689C529.779 29.758 531.453 31.162 533.829 31.162C536.169 31.162 537.627 29.902 537.627 28.228ZM540.168 28.246C540.168 30.262 541.266 31 543.03 31H544.65V29.29H543.39C542.526 29.29 542.238 28.984 542.238 28.246V22.756H544.65V21.082H542.238V18.616H540.168V21.082H538.998V22.756H540.168V28.246Z" fill="#212832"/>
<circle cx="336.415" cy="25.4151" r="23.4151" fill="#A9CF54" stroke="#A9CF54"/>
<path d="M326.128 25.17C326.128 29.1412 327.177 32.1383 330.999 32.1383C334.82 32.1383 335.869 29.1412 335.869 25.17C335.869 21.2737 334.82 18.2766 330.999 18.2766C327.177 18.2766 326.128 21.2737 326.128 25.17ZM333.771 25.17C333.771 27.8487 333.49 30.1902 330.999 30.1902C328.507 30.1902 328.226 27.8487 328.226 25.17C328.226 22.6224 328.507 20.2247 330.999 20.2247C333.49 20.2247 333.771 22.6224 333.771 25.17ZM337.96 31.9885H347.064V30.2089H341.126C343.317 28.2046 346.689 25.6758 346.689 22.3602C346.689 19.9063 345.116 18.2391 342.343 18.2391C339.927 18.2391 338.016 19.6815 337.941 22.6412H340.002C340.058 21.1051 340.864 20.0561 342.362 20.0561C343.954 20.0561 344.573 21.0302 344.573 22.4538C344.573 25.1325 341.182 27.6052 337.96 30.4337V31.9885Z" fill="#212832"/>
<g filter="url(#filter6_d_925_6296)">
<rect x="653" y="2" width="260" height="47" fill="white" shape-rendering="crispEdges"/>
<rect x="652.766" y="1.76585" width="260.468" height="47.4683" stroke="black" stroke-opacity="0.2" stroke-width="0.468302" shape-rendering="crispEdges"/>
</g>
<path d="M913 2H911V49H913V2Z" fill="#3498DB" stroke="#3498DB" stroke-width="0.936604"/>
<path d="M712.277 22.234C712.277 23.476 711.557 24.358 709.955 24.358H707.687V20.164H709.955C711.557 20.164 712.277 20.974 712.277 22.234ZM705.635 18.49V31H707.687V25.996H709.253L712.133 31H714.581L711.485 25.816C713.591 25.294 714.383 23.71 714.383 22.234C714.383 20.2 712.925 18.49 709.955 18.49H705.635ZM721.184 22.648C722.714 22.648 723.92 23.62 723.956 25.15H718.466C718.682 23.584 719.798 22.648 721.184 22.648ZM725.828 28.048H723.614C723.236 28.822 722.534 29.434 721.274 29.434C719.762 29.434 718.592 28.444 718.448 26.806H726.026C726.08 26.464 726.098 26.14 726.098 25.798C726.098 22.882 724.1 20.92 721.274 20.92C718.34 20.92 716.324 22.918 716.324 26.032C716.324 29.146 718.43 31.162 721.274 31.162C723.704 31.162 725.27 29.776 725.828 28.048ZM735.516 28.228C735.408 24.646 729.81 25.762 729.81 23.764C729.81 23.098 730.386 22.648 731.484 22.648C732.6 22.648 733.266 23.242 733.338 24.106H735.39C735.282 22.126 733.806 20.92 731.556 20.92C729.216 20.92 727.74 22.198 727.74 23.782C727.74 27.418 733.5 26.302 733.5 28.246C733.5 28.93 732.87 29.434 731.682 29.434C730.548 29.434 729.774 28.768 729.702 27.958H727.578C727.668 29.758 729.342 31.162 731.718 31.162C734.058 31.162 735.516 29.902 735.516 28.228ZM741.909 22.648C743.439 22.648 744.645 23.62 744.681 25.15H739.191C739.407 23.584 740.523 22.648 741.909 22.648ZM746.553 28.048H744.339C743.961 28.822 743.259 29.434 741.999 29.434C740.487 29.434 739.317 28.444 739.173 26.806H746.751C746.805 26.464 746.823 26.14 746.823 25.798C746.823 22.882 744.825 20.92 741.999 20.92C739.065 20.92 737.049 22.918 737.049 26.032C737.049 29.146 739.155 31.162 741.999 31.162C744.429 31.162 745.995 29.776 746.553 28.048ZM748.158 25.996C748.158 29.056 750.228 31.162 752.802 31.162C754.458 31.162 755.646 30.37 756.276 29.524V31H758.346V21.082H756.276V22.522C755.664 21.712 754.512 20.92 752.838 20.92C750.228 20.92 748.158 22.936 748.158 25.996ZM756.276 26.032C756.276 28.174 754.818 29.38 753.27 29.38C751.74 29.38 750.264 28.138 750.264 25.996C750.264 23.854 751.74 22.702 753.27 22.702C754.818 22.702 756.276 23.908 756.276 26.032ZM763.093 25.78C763.093 23.674 764.029 23.044 765.541 23.044H766.063V20.92C764.659 20.92 763.669 21.532 763.093 22.522V21.082H761.041V31H763.093V25.78ZM767.266 26.032C767.266 29.146 769.282 31.162 772.126 31.162C774.556 31.162 776.14 29.812 776.698 27.868H774.484C774.106 28.894 773.35 29.434 772.126 29.434C770.47 29.434 769.372 28.21 769.372 26.032C769.372 23.872 770.47 22.648 772.126 22.648C773.35 22.648 774.142 23.26 774.484 24.214H776.698C776.14 22.126 774.556 20.92 772.126 20.92C769.282 20.92 767.266 22.936 767.266 26.032ZM778.743 31H780.795V25.456C780.795 23.638 781.785 22.702 783.297 22.702C784.791 22.702 785.781 23.638 785.781 25.456V31H787.815V25.15C787.815 22.378 786.087 20.92 783.873 20.92C782.595 20.92 781.479 21.406 780.795 22.234V17.68H778.743V31ZM803.55 27.454C803.55 22.882 796.926 24.646 796.926 21.82C796.926 20.614 797.844 20.038 799.032 20.074C800.328 20.11 801.066 20.884 801.138 21.73H803.406C803.226 19.588 801.534 18.328 799.14 18.328C796.584 18.328 794.838 19.696 794.838 21.892C794.838 26.5 801.48 24.538 801.48 27.562C801.48 28.624 800.67 29.398 799.23 29.398C797.808 29.398 797.088 28.57 796.998 27.544H794.802C794.802 29.758 796.728 31.126 799.23 31.126C802.02 31.126 803.55 29.326 803.55 27.454ZM805.287 26.032C805.287 29.146 807.303 31.162 810.147 31.162C812.577 31.162 814.161 29.812 814.719 27.868H812.505C812.127 28.894 811.371 29.434 810.147 29.434C808.491 29.434 807.393 28.21 807.393 26.032C807.393 23.872 808.491 22.648 810.147 22.648C811.371 22.648 812.163 23.26 812.505 24.214H814.719C814.161 22.126 812.577 20.92 810.147 20.92C807.303 20.92 805.287 22.936 805.287 26.032ZM816.764 31H818.816V21.082H816.764V31ZM817.808 19.768C818.528 19.768 819.104 19.192 819.104 18.454C819.104 17.716 818.528 17.14 817.808 17.14C817.07 17.14 816.494 17.716 816.494 18.454C816.494 19.192 817.07 19.768 817.808 19.768ZM825.686 22.648C827.216 22.648 828.422 23.62 828.458 25.15H822.968C823.184 23.584 824.3 22.648 825.686 22.648ZM830.33 28.048H828.116C827.738 28.822 827.036 29.434 825.776 29.434C824.264 29.434 823.094 28.444 822.95 26.806H830.528C830.582 26.464 830.6 26.14 830.6 25.798C830.6 22.882 828.602 20.92 825.776 20.92C822.842 20.92 820.826 22.918 820.826 26.032C820.826 29.146 822.932 31.162 825.776 31.162C828.206 31.162 829.772 29.776 830.33 28.048ZM839.658 31H841.692V25.15C841.692 22.378 839.946 20.92 837.624 20.92C836.436 20.92 835.338 21.406 834.672 22.216V21.082H832.62V31H834.672V25.456C834.672 23.638 835.662 22.702 837.174 22.702C838.668 22.702 839.658 23.638 839.658 25.456V31ZM844.633 28.246C844.633 30.262 845.731 31 847.495 31H849.115V29.29H847.855C846.991 29.29 846.703 28.984 846.703 28.246V22.756H849.115V21.082H846.703V18.616H844.633V21.082H843.463V22.756H844.633V28.246ZM851.006 31H853.058V21.082H851.006V31ZM852.05 19.768C852.77 19.768 853.346 19.192 853.346 18.454C853.346 17.716 852.77 17.14 852.05 17.14C851.312 17.14 850.736 17.716 850.736 18.454C850.736 19.192 851.312 19.768 852.05 19.768ZM863.15 28.228C863.042 24.646 857.444 25.762 857.444 23.764C857.444 23.098 858.02 22.648 859.118 22.648C860.234 22.648 860.9 23.242 860.972 24.106H863.024C862.916 22.126 861.44 20.92 859.19 20.92C856.85 20.92 855.374 22.198 855.374 23.782C855.374 27.418 861.134 26.302 861.134 28.246C861.134 28.93 860.504 29.434 859.316 29.434C858.182 29.434 857.408 28.768 857.336 27.958H855.212C855.302 29.758 856.976 31.162 859.352 31.162C861.692 31.162 863.15 29.902 863.15 28.228ZM865.692 28.246C865.692 30.262 866.79 31 868.554 31H870.174V29.29H868.914C868.05 29.29 867.762 28.984 867.762 28.246V22.756H870.174V21.082H867.762V18.616H865.692V21.082H864.522V22.756H865.692V28.246Z" fill="#212832"/>
<circle cx="649.415" cy="25.415" r="23.415" fill="#3498DB" stroke="#3498DB"/>
<path d="M638.548 25.9942C638.548 29.9654 639.597 32.9625 643.418 32.9625C647.24 32.9625 648.289 29.9654 648.289 25.9942C648.289 22.0979 647.24 19.1008 643.418 19.1008C639.597 19.1008 638.548 22.0979 638.548 25.9942ZM646.191 25.9942C646.191 28.6729 645.91 31.0144 643.418 31.0144C640.927 31.0144 640.646 28.6729 640.646 25.9942C640.646 23.4466 640.927 21.0489 643.418 21.0489C645.91 21.0489 646.191 23.4466 646.191 25.9942ZM650.511 22.7161H652.59C652.721 21.7608 653.414 20.8616 654.913 20.8616C656.374 20.8616 657.142 21.6484 657.142 22.8285C657.142 24.2896 655.962 24.8515 654.032 24.8703H653.527V26.6311H654.014C656.243 26.6311 657.404 27.2493 657.404 29.0475C657.404 30.3213 656.617 31.2954 655.025 31.2954C653.414 31.2954 652.478 30.3213 652.384 29.0475H650.323C650.454 31.7262 652.459 33.0749 655.044 33.0749C657.891 33.0749 659.427 31.4265 659.427 29.2536C659.427 27.3616 658.509 26.1815 657.086 25.7507V25.6758C658.153 25.3198 659.184 24.2147 659.184 22.585C659.184 20.5994 657.704 19.0259 654.988 19.0259C652.496 19.0259 650.661 20.3558 650.511 22.7161Z" fill="#212832"/>
<defs>
<filter id="filter0_d_925_6296" x="23.5312" y="1.53174" width="260.938" height="47.9365" filterUnits="userSpaceOnUse" color-interpolation-filters="sRGB">
<feFlood flood-opacity="0" result="BackgroundImageFix"/>
<feColorMatrix in="SourceAlpha" type="matrix" values="0 0 0 0 0 0 0 0 0 0 0 0 0 0 0 0 0 0 127 0" result="hardAlpha"/>
<feOffset/>
<feComposite in2="hardAlpha" operator="out"/>
<feColorMatrix type="matrix" values="0 0 0 0 0 0 0 0 0 0 0 0 0 0 0 0 0 0 0.1 0"/>
<feBlend mode="normal" in2="BackgroundImageFix" result="effect1_dropShadow_925_6296"/>
<feBlend mode="normal" in="SourceGraphic" in2="effect1_dropShadow_925_6296" result="shape"/>
</filter>
<filter id="filter1_d_925_6296" x="964.531" y="0.531738" width="260.938" height="47.9365" filterUnits="userSpaceOnUse" color-interpolation-filters="sRGB">
<feFlood flood-opacity="0" result="BackgroundImageFix"/>
<feColorMatrix in="SourceAlpha" type="matrix" values="0 0 0 0 0 0 0 0 0 0 0 0 0 0 0 0 0 0 127 0" result="hardAlpha"/>
<feOffset/>
<feComposite in2="hardAlpha" operator="out"/>
<feColorMatrix type="matrix" values="0 0 0 0 0 0 0 0 0 0 0 0 0 0 0 0 0 0 0.1 0"/>
<feBlend mode="normal" in2="BackgroundImageFix" result="effect1_dropShadow_925_6296"/>
<feBlend mode="normal" in="SourceGraphic" in2="effect1_dropShadow_925_6296" result="shape"/>
</filter>
<filter id="filter2_d_925_6296" x="860.531" y="77.5317" width="365.938" height="47.9365" filterUnits="userSpaceOnUse" color-interpolation-filters="sRGB">
<feFlood flood-opacity="0" result="BackgroundImageFix"/>
<feColorMatrix in="SourceAlpha" type="matrix" values="0 0 0 0 0 0 0 0 0 0 0 0 0 0 0 0 0 0 127 0" result="hardAlpha"/>
<feOffset/>
<feComposite in2="hardAlpha" operator="out"/>
<feColorMatrix type="matrix" values="0 0 0 0 0 0 0 0 0 0 0 0 0 0 0 0 0 0 0.1 0"/>
<feBlend mode="normal" in2="BackgroundImageFix" result="effect1_dropShadow_925_6296"/>
<feBlend mode="normal" in="SourceGraphic" in2="effect1_dropShadow_925_6296" result="shape"/>
</filter>
<filter id="filter3_d_925_6296" x="23.5312" y="76.5317" width="365.938" height="47.9365" filterUnits="userSpaceOnUse" color-interpolation-filters="sRGB">
<feFlood flood-opacity="0" result="BackgroundImageFix"/>
<feColorMatrix in="SourceAlpha" type="matrix" values="0 0 0 0 0 0 0 0 0 0 0 0 0 0 0 0 0 0 127 0" result="hardAlpha"/>
<feOffset/>
<feComposite in2="hardAlpha" operator="out"/>
<feColorMatrix type="matrix" values="0 0 0 0 0 0 0 0 0 0 0 0 0 0 0 0 0 0 0.1 0"/>
<feBlend mode="normal" in2="BackgroundImageFix" result="effect1_dropShadow_925_6296"/>
<feBlend mode="normal" in="SourceGraphic" in2="effect1_dropShadow_925_6296" result="shape"/>
</filter>
<filter id="filter4_d_925_6296" x="443.531" y="76.5317" width="365.938" height="47.9365" filterUnits="userSpaceOnUse" color-interpolation-filters="sRGB">
<feFlood flood-opacity="0" result="BackgroundImageFix"/>
<feColorMatrix in="SourceAlpha" type="matrix" values="0 0 0 0 0 0 0 0 0 0 0 0 0 0 0 0 0 0 127 0" result="hardAlpha"/>
<feOffset/>
<feComposite in2="hardAlpha" operator="out"/>
<feColorMatrix type="matrix" values="0 0 0 0 0 0 0 0 0 0 0 0 0 0 0 0 0 0 0.1 0"/>
<feBlend mode="normal" in2="BackgroundImageFix" result="effect1_dropShadow_925_6296"/>
<feBlend mode="normal" in="SourceGraphic" in2="effect1_dropShadow_925_6296" result="shape"/>
</filter>
<filter id="filter5_d_925_6296" x="336.531" y="1.53174" width="260.938" height="47.9365" filterUnits="userSpaceOnUse" color-interpolation-filters="sRGB">
<feFlood flood-opacity="0" result="BackgroundImageFix"/>
<feColorMatrix in="SourceAlpha" type="matrix" values="0 0 0 0 0 0 0 0 0 0 0 0 0 0 0 0 0 0 127 0" result="hardAlpha"/>
<feOffset/>
<feComposite in2="hardAlpha" operator="out"/>
<feColorMatrix type="matrix" values="0 0 0 0 0 0 0 0 0 0 0 0 0 0 0 0 0 0 0.1 0"/>
<feBlend mode="normal" in2="BackgroundImageFix" result="effect1_dropShadow_925_6296"/>
<feBlend mode="normal" in="SourceGraphic" in2="effect1_dropShadow_925_6296" result="shape"/>
</filter>
<filter id="filter6_d_925_6296" x="652.531" y="1.53174" width="260.938" height="47.9365" filterUnits="userSpaceOnUse" color-interpolation-filters="sRGB">
<feFlood flood-opacity="0" result="BackgroundImageFix"/>
<feColorMatrix in="SourceAlpha" type="matrix" values="0 0 0 0 0 0 0 0 0 0 0 0 0 0 0 0 0 0 127 0" result="hardAlpha"/>
<feOffset/>
<feComposite in2="hardAlpha" operator="out"/>
<feColorMatrix type="matrix" values="0 0 0 0 0 0 0 0 0 0 0 0 0 0 0 0 0 0 0.1 0"/>
<feBlend mode="normal" in2="BackgroundImageFix" result="effect1_dropShadow_925_6296"/>
<feBlend mode="normal" in="SourceGraphic" in2="effect1_dropShadow_925_6296" result="shape"/>
</filter>
</defs>
</svg>
