<svg width="1226" height="124" viewBox="0 0 1226 124" fill="none" xmlns="http://www.w3.org/2000/svg">
<g filter="url(#filter0_d_953_405)">
<rect x="24" y="1" width="365" height="47" fill="white" shape-rendering="crispEdges"/>
<rect x="23.7658" y="0.765849" width="365.468" height="47.4683" stroke="black" stroke-opacity="0.2" stroke-width="0.468302" shape-rendering="crispEdges"/>
</g>
<path d="M160.329 30H162.381V17.49H160.329V22.854H154.443V17.49H152.391V30H154.443V24.528H160.329V30ZM171.724 21.234C171.724 22.476 171.004 23.358 169.402 23.358H167.134V19.164H169.402C171.004 19.164 171.724 19.974 171.724 21.234ZM165.082 17.49V30H167.134V24.996H168.7L171.58 30H174.028L170.932 24.816C173.038 24.294 173.83 22.71 173.83 21.234C173.83 19.2 172.372 17.49 169.402 17.49H165.082ZM181.131 30H183.183V21.432L187.017 30H188.439L192.255 21.432V30H194.307V17.49H192.111L187.737 27.3L183.345 17.49H181.131V30ZM196.32 24.996C196.32 28.056 198.39 30.162 200.964 30.162C202.62 30.162 203.808 29.37 204.438 28.524V30H206.508V20.082H204.438V21.522C203.826 20.712 202.674 19.92 201 19.92C198.39 19.92 196.32 21.936 196.32 24.996ZM204.438 25.032C204.438 27.174 202.98 28.38 201.432 28.38C199.902 28.38 198.426 27.138 198.426 24.996C198.426 22.854 199.902 21.702 201.432 21.702C202.98 21.702 204.438 22.908 204.438 25.032ZM216.242 30H218.276V24.15C218.276 21.378 216.53 19.92 214.208 19.92C213.02 19.92 211.922 20.406 211.256 21.216V20.082H209.204V30H211.256V24.456C211.256 22.638 212.246 21.702 213.758 21.702C215.252 21.702 216.242 22.638 216.242 24.456V30ZM220.209 24.996C220.209 28.056 222.279 30.162 224.853 30.162C226.509 30.162 227.697 29.37 228.327 28.524V30H230.397V20.082H228.327V21.522C227.715 20.712 226.563 19.92 224.889 19.92C222.279 19.92 220.209 21.936 220.209 24.996ZM228.327 25.032C228.327 27.174 226.869 28.38 225.321 28.38C223.791 28.38 222.315 27.138 222.315 24.996C222.315 22.854 223.791 21.702 225.321 21.702C226.869 21.702 228.327 22.908 228.327 25.032ZM232.408 24.996C232.408 28.056 234.478 30.162 237.088 30.162C238.708 30.162 239.896 29.352 240.526 28.506V30.162C240.526 32.142 239.338 33.114 237.754 33.114C236.332 33.114 235.234 32.412 234.928 31.386H232.894C233.146 33.582 235.108 34.896 237.754 34.896C240.85 34.896 242.596 32.862 242.596 30.162V20.082H240.526V21.522C239.914 20.676 238.708 19.92 237.088 19.92C234.478 19.92 232.408 21.936 232.408 24.996ZM240.526 25.032C240.526 27.174 239.068 28.38 237.52 28.38C235.99 28.38 234.514 27.138 234.514 24.996C234.514 22.854 235.99 21.702 237.52 21.702C239.068 21.702 240.526 22.908 240.526 25.032ZM249.467 21.648C250.997 21.648 252.203 22.62 252.239 24.15H246.749C246.965 22.584 248.081 21.648 249.467 21.648ZM254.111 27.048H251.897C251.519 27.822 250.817 28.434 249.557 28.434C248.045 28.434 246.875 27.444 246.731 25.806H254.309C254.363 25.464 254.381 25.14 254.381 24.798C254.381 21.882 252.383 19.92 249.557 19.92C246.623 19.92 244.607 21.918 244.607 25.032C244.607 28.146 246.713 30.162 249.557 30.162C251.987 30.162 253.553 28.776 254.111 27.048ZM258.453 24.78C258.453 22.674 259.389 22.044 260.901 22.044H261.423V19.92C260.019 19.92 259.029 20.532 258.453 21.522V20.082H256.401V30H258.453V24.78Z" fill="#212832"/>
<path d="M389 1H387V48H389V1Z" fill="#946FB0" stroke="#946FB0" stroke-width="0.936604"/>
<circle cx="24.4151" cy="24.4151" r="23.4151" fill="#946FB0" stroke="#946FB0"/>
<path d="M16.3494 23.9942C16.3494 21.8338 16.7115 20.1479 17.4358 18.9365C18.1726 17.7127 19.4339 17.1008 21.2197 17.1008C23.0055 17.1008 24.2605 17.7127 24.9848 18.9365C25.7216 20.1479 26.09 21.8338 26.09 23.9942C26.09 26.1796 25.7216 27.8905 24.9848 29.1268C24.2605 30.3506 23.0055 30.9625 21.2197 30.9625C19.4339 30.9625 18.1726 30.3506 17.4358 29.1268C16.7115 27.8905 16.3494 26.1796 16.3494 23.9942ZM23.992 23.9942C23.992 22.9827 23.9234 22.1272 23.786 21.4279C23.6611 20.7286 23.3989 20.1604 22.9992 19.7233C22.5996 19.2737 22.0064 19.0489 21.2197 19.0489C20.4329 19.0489 19.8398 19.2737 19.4401 19.7233C19.0405 20.1604 18.772 20.7286 18.6347 21.4279C18.5098 22.1272 18.4473 22.9827 18.4473 23.9942C18.4473 25.0432 18.5098 25.9236 18.6347 26.6354C18.7595 27.3472 19.0218 27.9217 19.4214 28.3588C19.8335 28.7959 20.4329 29.0144 21.2197 29.0144C22.0064 29.0144 22.5996 28.7959 22.9992 28.3588C23.4113 27.9217 23.6798 27.3472 23.8047 26.6354C23.9296 25.9236 23.992 25.0432 23.992 23.9942ZM28.0686 19.2925V17.3443H31.9649V31H29.8107V19.2925H28.0686Z" fill="#212832"/>
<g filter="url(#filter1_d_953_405)">
<rect x="24" y="76" width="365" height="47" fill="white" shape-rendering="crispEdges"/>
<rect x="23.7658" y="75.7658" width="365.468" height="47.4683" stroke="black" stroke-opacity="0.2" stroke-width="0.468302" shape-rendering="crispEdges"/>
</g>
<path d="M155.047 106H157.099V93.49H155.047V98.854H149.161V93.49H147.109V106H149.161V100.528H155.047V106ZM166.442 97.234C166.442 98.476 165.722 99.358 164.12 99.358H161.852V95.164H164.12C165.722 95.164 166.442 95.974 166.442 97.234ZM159.8 93.49V106H161.852V100.996H163.418L166.298 106H168.746L165.65 100.816C167.756 100.294 168.548 98.71 168.548 97.234C168.548 95.2 167.09 93.49 164.12 93.49H159.8ZM181.555 93.328C178.027 93.328 175.165 95.974 175.165 99.718C175.165 103.48 178.027 106.108 181.555 106.108C184.921 106.108 187.369 103.642 187.747 100.744V99.142H180.853V100.78H185.551C185.245 102.886 183.823 104.254 181.555 104.254C179.071 104.254 177.271 102.472 177.271 99.718C177.271 96.964 179.071 95.2 181.555 95.2C183.049 95.2 184.237 95.83 184.903 97.09H187.369C186.415 94.642 184.165 93.328 181.555 93.328ZM193.947 97.648C195.477 97.648 196.683 98.62 196.719 100.15H191.229C191.445 98.584 192.561 97.648 193.947 97.648ZM198.591 103.048H196.377C195.999 103.822 195.297 104.434 194.037 104.434C192.525 104.434 191.355 103.444 191.211 101.806H198.789C198.843 101.464 198.861 101.14 198.861 100.798C198.861 97.882 196.863 95.92 194.037 95.92C191.103 95.92 189.087 97.918 189.087 101.032C189.087 104.146 191.193 106.162 194.037 106.162C196.467 106.162 198.033 104.776 198.591 103.048ZM207.918 106H209.952V100.15C209.952 97.378 208.206 95.92 205.884 95.92C204.696 95.92 203.598 96.406 202.932 97.216V96.082H200.88V106H202.932V100.456C202.932 98.638 203.922 97.702 205.434 97.702C206.928 97.702 207.918 98.638 207.918 100.456V106ZM216.746 97.648C218.276 97.648 219.482 98.62 219.518 100.15H214.028C214.244 98.584 215.36 97.648 216.746 97.648ZM221.39 103.048H219.176C218.798 103.822 218.096 104.434 216.836 104.434C215.324 104.434 214.154 103.444 214.01 101.806H221.588C221.642 101.464 221.66 101.14 221.66 100.798C221.66 97.882 219.662 95.92 216.836 95.92C213.902 95.92 211.886 97.918 211.886 101.032C211.886 104.146 213.992 106.162 216.836 106.162C219.266 106.162 220.832 104.776 221.39 103.048ZM225.731 100.78C225.731 98.674 226.667 98.044 228.179 98.044H228.701V95.92C227.297 95.92 226.307 96.532 225.731 97.522V96.082H223.679V106H225.731V100.78ZM229.903 100.996C229.903 104.056 231.973 106.162 234.547 106.162C236.203 106.162 237.391 105.37 238.021 104.524V106H240.091V96.082H238.021V97.522C237.409 96.712 236.257 95.92 234.583 95.92C231.973 95.92 229.903 97.936 229.903 100.996ZM238.021 101.032C238.021 103.174 236.563 104.38 235.015 104.38C233.485 104.38 232.009 103.138 232.009 100.996C232.009 98.854 233.485 97.702 235.015 97.702C236.563 97.702 238.021 98.908 238.021 101.032ZM242.787 106H244.839V92.68H242.787V106ZM247.533 106H249.585V96.082H247.533V106ZM248.577 94.768C249.297 94.768 249.873 94.192 249.873 93.454C249.873 92.716 249.297 92.14 248.577 92.14C247.839 92.14 247.263 92.716 247.263 93.454C247.263 94.192 247.839 94.768 248.577 94.768ZM259.677 103.228C259.569 99.646 253.971 100.762 253.971 98.764C253.971 98.098 254.547 97.648 255.645 97.648C256.761 97.648 257.427 98.242 257.499 99.106H259.551C259.443 97.126 257.967 95.92 255.717 95.92C253.377 95.92 251.901 97.198 251.901 98.782C251.901 102.418 257.661 101.302 257.661 103.246C257.661 103.93 257.031 104.434 255.843 104.434C254.709 104.434 253.935 103.768 253.863 102.958H251.739C251.829 104.758 253.503 106.162 255.879 106.162C258.219 106.162 259.677 104.902 259.677 103.228ZM262.218 103.246C262.218 105.262 263.316 106 265.08 106H266.7V104.29H265.44C264.576 104.29 264.288 103.984 264.288 103.246V97.756H266.7V96.082H264.288V93.616H262.218V96.082H261.048V97.756H262.218V103.246Z" fill="#212832"/>
<path d="M389 76H387V123H389V76Z" fill="#CF1C54" stroke="#CF1C54" stroke-width="0.936604"/>
<circle cx="24.4151" cy="99.4151" r="23.4151" fill="#E9336C" stroke="#E9336C"/>
<path d="M13.4777 99.6055C13.4777 103.577 14.5267 106.574 18.348 106.574C22.1694 106.574 23.2184 103.577 23.2184 99.6055C23.2184 95.7093 22.1694 92.7121 18.348 92.7121C14.5267 92.7121 13.4777 95.7093 13.4777 99.6055ZM21.1204 99.6055C21.1204 102.284 20.8394 104.626 18.348 104.626C15.8567 104.626 15.5757 102.284 15.5757 99.6055C15.5757 97.058 15.8567 94.6603 18.348 94.6603C20.8394 94.6603 21.1204 97.058 21.1204 99.6055ZM31.9967 106.611H34.0947V103.764H35.8368V101.91H34.0947V93.1242H31.5097L25.2157 102.153V103.764H31.9967V106.611ZM27.6696 101.91L32.0904 95.2972V101.91H27.6696Z" fill="#212832"/>
<g filter="url(#filter2_d_953_405)">
<rect x="436" y="76" width="365" height="47" fill="white" shape-rendering="crispEdges"/>
<rect x="435.766" y="75.7658" width="365.468" height="47.4683" stroke="black" stroke-opacity="0.2" stroke-width="0.468302" shape-rendering="crispEdges"/>
</g>
<path d="M555.079 102.454C555.079 97.882 548.455 99.646 548.455 96.82C548.455 95.614 549.373 95.038 550.561 95.074C551.857 95.11 552.595 95.884 552.667 96.73H554.935C554.755 94.588 553.063 93.328 550.669 93.328C548.113 93.328 546.367 94.696 546.367 96.892C546.367 101.5 553.009 99.538 553.009 102.562C553.009 103.624 552.199 104.398 550.759 104.398C549.337 104.398 548.617 103.57 548.527 102.544H546.331C546.331 104.758 548.257 106.126 550.759 106.126C553.549 106.126 555.079 104.326 555.079 102.454ZM557.824 103.246C557.824 105.262 558.922 106 560.686 106H562.306V104.29H561.046C560.182 104.29 559.894 103.984 559.894 103.246V97.756H562.306V96.082H559.894V93.616H557.824V96.082H556.654V97.756H557.824V103.246ZM563.514 100.996C563.514 104.056 565.584 106.162 568.158 106.162C569.814 106.162 571.002 105.37 571.632 104.524V106H573.702V96.082H571.632V97.522C571.02 96.712 569.868 95.92 568.194 95.92C565.584 95.92 563.514 97.936 563.514 100.996ZM571.632 101.032C571.632 103.174 570.174 104.38 568.626 104.38C567.096 104.38 565.62 103.138 565.62 100.996C565.62 98.854 567.096 97.702 568.626 97.702C570.174 97.702 571.632 98.908 571.632 101.032ZM576.649 106H578.719V97.756H580.555V96.082H578.719V95.38C578.719 94.246 579.151 93.814 580.411 93.814V92.104C577.819 92.104 576.649 93.094 576.649 95.38V96.082H575.479V97.756H576.649V106ZM582.625 106H584.695V97.756H586.531V96.082H584.695V95.38C584.695 94.246 585.127 93.814 586.387 93.814V92.104C583.795 92.104 582.625 93.094 582.625 95.38V96.082H581.455V97.756H582.625V106ZM588.35 106H590.402V96.082H588.35V106ZM589.394 94.768C590.114 94.768 590.69 94.192 590.69 93.454C590.69 92.716 590.114 92.14 589.394 92.14C588.656 92.14 588.08 92.716 588.08 93.454C588.08 94.192 588.656 94.768 589.394 94.768ZM600.134 106H602.168V100.15C602.168 97.378 600.422 95.92 598.1 95.92C596.912 95.92 595.814 96.406 595.148 97.216V96.082H593.096V106H595.148V100.456C595.148 98.638 596.138 97.702 597.65 97.702C599.144 97.702 600.134 98.638 600.134 100.456V106ZM604.102 100.996C604.102 104.056 606.172 106.162 608.782 106.162C610.402 106.162 611.59 105.352 612.22 104.506V106.162C612.22 108.142 611.032 109.114 609.448 109.114C608.026 109.114 606.928 108.412 606.622 107.386H604.588C604.84 109.582 606.802 110.896 609.448 110.896C612.544 110.896 614.29 108.862 614.29 106.162V96.082H612.22V97.522C611.608 96.676 610.402 95.92 608.782 95.92C606.172 95.92 604.102 97.936 604.102 100.996ZM612.22 101.032C612.22 103.174 610.762 104.38 609.214 104.38C607.684 104.38 606.208 103.138 606.208 100.996C606.208 98.854 607.684 97.702 609.214 97.702C610.762 97.702 612.22 98.908 612.22 101.032ZM625.747 93.49H621.661V106H625.747C629.761 106 632.389 103.642 632.389 99.79C632.389 95.92 629.761 93.49 625.747 93.49ZM623.713 104.326V95.164H625.747C628.699 95.164 630.283 96.928 630.283 99.79C630.283 102.634 628.699 104.326 625.747 104.326H623.713ZM634.422 106H636.474V96.082H634.422V106ZM635.466 94.768C636.186 94.768 636.762 94.192 636.762 93.454C636.762 92.716 636.186 92.14 635.466 92.14C634.728 92.14 634.152 92.716 634.152 93.454C634.152 94.192 634.728 94.768 635.466 94.768ZM641.22 100.78C641.22 98.674 642.156 98.044 643.668 98.044H644.19V95.92C642.786 95.92 641.796 96.532 641.22 97.522V96.082H639.168V106H641.22V100.78ZM650.253 97.648C651.783 97.648 652.989 98.62 653.025 100.15H647.535C647.751 98.584 648.867 97.648 650.253 97.648ZM654.897 103.048H652.683C652.305 103.822 651.603 104.434 650.343 104.434C648.831 104.434 647.661 103.444 647.517 101.806H655.095C655.149 101.464 655.167 101.14 655.167 100.798C655.167 97.882 653.169 95.92 650.343 95.92C647.409 95.92 645.393 97.918 645.393 101.032C645.393 104.146 647.499 106.162 650.343 106.162C652.773 106.162 654.339 104.776 654.897 103.048ZM656.502 101.032C656.502 104.146 658.518 106.162 661.362 106.162C663.792 106.162 665.376 104.812 665.934 102.868H663.72C663.342 103.894 662.586 104.434 661.362 104.434C659.706 104.434 658.608 103.21 658.608 101.032C658.608 98.872 659.706 97.648 661.362 97.648C662.586 97.648 663.378 98.26 663.72 99.214H665.934C665.376 97.126 663.792 95.92 661.362 95.92C658.518 95.92 656.502 97.936 656.502 101.032ZM668.303 103.246C668.303 105.262 669.401 106 671.165 106H672.785V104.29H671.525C670.661 104.29 670.373 103.984 670.373 103.246V97.756H672.785V96.082H670.373V93.616H668.303V96.082H667.133V97.756H668.303V103.246ZM684.126 101.032C684.126 97.918 681.894 95.92 679.068 95.92C676.242 95.92 674.01 97.918 674.01 101.032C674.01 104.146 676.152 106.162 678.978 106.162C681.822 106.162 684.126 104.146 684.126 101.032ZM676.098 101.032C676.098 98.782 677.484 97.702 679.032 97.702C680.562 97.702 682.02 98.782 682.02 101.032C682.02 103.282 680.508 104.38 678.978 104.38C677.43 104.38 676.098 103.282 676.098 101.032ZM688.207 100.78C688.207 98.674 689.143 98.044 690.655 98.044H691.177V95.92C689.773 95.92 688.783 96.532 688.207 97.522V96.082H686.155V106H688.207V100.78Z" fill="#212832"/>
<path d="M801 76H799V123H801V76Z" fill="#00ADEF" stroke="#00ADEF" stroke-width="0.936604"/>
<circle cx="436.415" cy="99.8506" r="23.4151" fill="#00ADEF" stroke="#00ADEF"/>
<path d="M425.56 99.6055C425.56 103.577 426.609 106.574 430.43 106.574C434.252 106.574 435.301 103.577 435.301 99.6055C435.301 95.7093 434.252 92.7121 430.43 92.7121C426.609 92.7121 425.56 95.7093 425.56 99.6055ZM433.203 99.6055C433.203 102.284 432.922 104.626 430.43 104.626C427.939 104.626 427.658 102.284 427.658 99.6055C427.658 97.058 427.939 94.6603 430.43 94.6603C432.922 94.6603 433.203 97.058 433.203 99.6055ZM438.122 92.9182V100.804H440.145C440.501 99.7929 441.344 99.0998 442.599 99.0998C444.379 99.0998 445.259 100.111 445.259 101.891C445.259 103.577 444.435 104.832 442.599 104.832C441.157 104.832 440.183 104.082 439.902 102.921H437.823C438.141 105.057 439.771 106.611 442.58 106.611C445.746 106.611 447.301 104.551 447.301 101.835C447.301 99.7741 446.271 97.2828 442.918 97.2828C441.7 97.2828 440.595 97.8447 440.089 98.5191V94.7914H446.364V92.9182H438.122Z" fill="#212832"/>
<g filter="url(#filter3_d_953_405)">
<rect x="859" y="76" width="365" height="47" fill="white" shape-rendering="crispEdges"/>
<rect x="858.766" y="75.7658" width="365.468" height="47.4683" stroke="black" stroke-opacity="0.2" stroke-width="0.468302" shape-rendering="crispEdges"/>
</g>
<path d="M946.792 93.49H942.706V106H946.792C950.806 106 953.434 103.642 953.434 99.79C953.434 95.92 950.806 93.49 946.792 93.49ZM944.758 104.326V95.164H946.792C949.744 95.164 951.328 96.928 951.328 99.79C951.328 102.634 949.744 104.326 946.792 104.326H944.758ZM955.468 106H957.52V96.082H955.468V106ZM956.512 94.768C957.232 94.768 957.808 94.192 957.808 93.454C957.808 92.716 957.232 92.14 956.512 92.14C955.774 92.14 955.198 92.716 955.198 93.454C955.198 94.192 955.774 94.768 956.512 94.768ZM962.266 100.78C962.266 98.674 963.202 98.044 964.714 98.044H965.236V95.92C963.832 95.92 962.842 96.532 962.266 97.522V96.082H960.214V106H962.266V100.78ZM971.298 97.648C972.828 97.648 974.034 98.62 974.07 100.15H968.58C968.796 98.584 969.912 97.648 971.298 97.648ZM975.942 103.048H973.728C973.35 103.822 972.648 104.434 971.388 104.434C969.876 104.434 968.706 103.444 968.562 101.806H976.14C976.194 101.464 976.212 101.14 976.212 100.798C976.212 97.882 974.214 95.92 971.388 95.92C968.454 95.92 966.438 97.918 966.438 101.032C966.438 104.146 968.544 106.162 971.388 106.162C973.818 106.162 975.384 104.776 975.942 103.048ZM977.548 101.032C977.548 104.146 979.564 106.162 982.408 106.162C984.838 106.162 986.422 104.812 986.98 102.868H984.766C984.388 103.894 983.632 104.434 982.408 104.434C980.752 104.434 979.654 103.21 979.654 101.032C979.654 98.872 980.752 97.648 982.408 97.648C983.632 97.648 984.424 98.26 984.766 99.214H986.98C986.422 97.126 984.838 95.92 982.408 95.92C979.564 95.92 977.548 97.936 977.548 101.032ZM989.349 103.246C989.349 105.262 990.447 106 992.211 106H993.831V104.29H992.571C991.707 104.29 991.419 103.984 991.419 103.246V97.756H993.831V96.082H991.419V93.616H989.349V96.082H988.179V97.756H989.349V103.246ZM1005.17 101.032C1005.17 97.918 1002.94 95.92 1000.11 95.92C997.288 95.92 995.056 97.918 995.056 101.032C995.056 104.146 997.198 106.162 1000.02 106.162C1002.87 106.162 1005.17 104.146 1005.17 101.032ZM997.144 101.032C997.144 98.782 998.53 97.702 1000.08 97.702C1001.61 97.702 1003.07 98.782 1003.07 101.032C1003.07 103.282 1001.55 104.38 1000.02 104.38C998.476 104.38 997.144 103.282 997.144 101.032ZM1009.25 100.78C1009.25 98.674 1010.19 98.044 1011.7 98.044H1012.22V95.92C1010.82 95.92 1009.83 96.532 1009.25 97.522V96.082H1007.2V106H1009.25V100.78ZM1028.23 101.032C1028.23 97.918 1026 95.92 1023.18 95.92C1020.35 95.92 1018.12 97.918 1018.12 101.032C1018.12 104.146 1020.26 106.162 1023.09 106.162C1025.93 106.162 1028.23 104.146 1028.23 101.032ZM1020.21 101.032C1020.21 98.782 1021.59 97.702 1023.14 97.702C1024.67 97.702 1026.13 98.782 1026.13 101.032C1026.13 103.282 1024.62 104.38 1023.09 104.38C1021.54 104.38 1020.21 103.282 1020.21 101.032ZM1030.52 106H1032.59V97.756H1034.42V96.082H1032.59V95.38C1032.59 94.246 1033.02 93.814 1034.28 93.814V92.104C1031.69 92.104 1030.52 93.094 1030.52 95.38V96.082H1029.35V97.756H1030.52V106ZM1048.85 106H1050.91V93.49H1048.85V98.854H1042.97V93.49H1040.92V106H1042.97V100.528H1048.85V106ZM1060.25 97.234C1060.25 98.476 1059.53 99.358 1057.93 99.358H1055.66V95.164H1057.93C1059.53 95.164 1060.25 95.974 1060.25 97.234ZM1053.61 93.49V106H1055.66V100.996H1057.22L1060.1 106H1062.55L1059.46 100.816C1061.56 100.294 1062.35 98.71 1062.35 97.234C1062.35 95.2 1060.9 93.49 1057.93 93.49H1053.61ZM1069.01 95.164H1072.36V106H1074.41V95.164H1077.74V93.49H1069.01V95.164ZM1081.87 100.78C1081.87 98.674 1082.8 98.044 1084.32 98.044H1084.84V95.92C1083.43 95.92 1082.44 96.532 1081.87 97.522V96.082H1079.82V106H1081.87V100.78ZM1086.04 100.996C1086.04 104.056 1088.11 106.162 1090.68 106.162C1092.34 106.162 1093.53 105.37 1094.16 104.524V106H1096.23V96.082H1094.16V97.522C1093.55 96.712 1092.39 95.92 1090.72 95.92C1088.11 95.92 1086.04 97.936 1086.04 100.996ZM1094.16 101.032C1094.16 103.174 1092.7 104.38 1091.15 104.38C1089.62 104.38 1088.15 103.138 1088.15 100.996C1088.15 98.854 1089.62 97.702 1091.15 97.702C1092.7 97.702 1094.16 98.908 1094.16 101.032ZM1098.92 106H1100.98V96.082H1098.92V106ZM1099.97 94.768C1100.69 94.768 1101.26 94.192 1101.26 93.454C1101.26 92.716 1100.69 92.14 1099.97 92.14C1099.23 92.14 1098.65 92.716 1098.65 93.454C1098.65 94.192 1099.23 94.768 1099.97 94.768ZM1110.71 106H1112.74V100.15C1112.74 97.378 1111 95.92 1108.67 95.92C1107.49 95.92 1106.39 96.406 1105.72 97.216V96.082H1103.67V106H1105.72V100.456C1105.72 98.638 1106.71 97.702 1108.22 97.702C1109.72 97.702 1110.71 98.638 1110.71 100.456V106ZM1115.36 106H1117.41V96.082H1115.36V106ZM1116.4 94.768C1117.12 94.768 1117.7 94.192 1117.7 93.454C1117.7 92.716 1117.12 92.14 1116.4 92.14C1115.66 92.14 1115.09 92.716 1115.09 93.454C1115.09 94.192 1115.66 94.768 1116.4 94.768ZM1127.14 106H1129.18V100.15C1129.18 97.378 1127.43 95.92 1125.11 95.92C1123.92 95.92 1122.82 96.406 1122.16 97.216V96.082H1120.1V106H1122.16V100.456C1122.16 98.638 1123.15 97.702 1124.66 97.702C1126.15 97.702 1127.14 98.638 1127.14 100.456V106ZM1131.11 100.996C1131.11 104.056 1133.18 106.162 1135.79 106.162C1137.41 106.162 1138.6 105.352 1139.23 104.506V106.162C1139.23 108.142 1138.04 109.114 1136.46 109.114C1135.03 109.114 1133.94 108.412 1133.63 107.386H1131.6C1131.85 109.582 1133.81 110.896 1136.46 110.896C1139.55 110.896 1141.3 108.862 1141.3 106.162V96.082H1139.23V97.522C1138.62 96.676 1137.41 95.92 1135.79 95.92C1133.18 95.92 1131.11 97.936 1131.11 100.996ZM1139.23 101.032C1139.23 103.174 1137.77 104.38 1136.22 104.38C1134.69 104.38 1133.22 103.138 1133.22 100.996C1133.22 98.854 1134.69 97.702 1136.22 97.702C1137.77 97.702 1139.23 98.908 1139.23 101.032Z" fill="#212832"/>
<path d="M1224 76H1222V123H1224V76Z" fill="#E74C3C" stroke="#E74C3C" stroke-width="0.936604"/>
<circle cx="856.415" cy="99.8506" r="23.4151" fill="#E74C3C" stroke="#E74C3C"/>
<path d="M845.533 99.6055C845.533 103.577 846.582 106.574 850.403 106.574C854.224 106.574 855.273 103.577 855.273 99.6055C855.273 95.7093 854.224 92.7121 850.403 92.7121C846.582 92.7121 845.533 95.7093 845.533 99.6055ZM853.175 99.6055C853.175 102.284 852.894 104.626 850.403 104.626C847.912 104.626 847.631 102.284 847.631 99.6055C847.631 97.058 847.912 94.6603 850.403 94.6603C852.894 94.6603 853.175 97.058 853.175 99.6055ZM866.843 96.1214C866.618 94.3044 865.288 92.6185 862.628 92.6185C859.219 92.6185 857.795 95.2035 857.795 99.4744C857.795 103.82 858.825 106.611 862.797 106.611C865.719 106.611 867.273 104.644 867.273 102.059C867.273 99.2122 865.531 97.5637 863.078 97.5637C861.654 97.5637 860.305 98.1632 859.631 99.2871C859.687 95.7093 860.68 94.398 862.609 94.398C863.958 94.398 864.614 95.0162 864.876 96.1214H866.843ZM862.609 99.362C864.407 99.362 865.232 100.523 865.232 102.153C865.232 103.764 864.258 104.832 862.684 104.832C860.867 104.832 859.874 103.708 859.874 102.022C859.874 100.205 861.204 99.362 862.609 99.362Z" fill="#212832"/>
<g filter="url(#filter4_d_953_405)">
<rect x="437" y="1" width="365" height="47" fill="white" shape-rendering="crispEdges"/>
<rect x="436.766" y="0.765849" width="365.468" height="47.4683" stroke="black" stroke-opacity="0.2" stroke-width="0.468302" shape-rendering="crispEdges"/>
</g>
<path d="M802 1H800V48H802V1Z" fill="#A9CF54" stroke="#A9CF54" stroke-width="0.936604"/>
<path d="M556.579 26.454C556.579 21.882 549.955 23.646 549.955 20.82C549.955 19.614 550.873 19.038 552.061 19.074C553.357 19.11 554.095 19.884 554.167 20.73H556.435C556.255 18.588 554.563 17.328 552.169 17.328C549.613 17.328 547.867 18.696 547.867 20.892C547.867 25.5 554.509 23.538 554.509 26.562C554.509 27.624 553.699 28.398 552.259 28.398C550.837 28.398 550.117 27.57 550.027 26.544H547.831C547.831 28.758 549.757 30.126 552.259 30.126C555.049 30.126 556.579 28.326 556.579 26.454ZM559.324 27.246C559.324 29.262 560.422 30 562.186 30H563.806V28.29H562.546C561.682 28.29 561.394 27.984 561.394 27.246V21.756H563.806V20.082H561.394V17.616H559.324V20.082H558.154V21.756H559.324V27.246ZM565.014 24.996C565.014 28.056 567.084 30.162 569.658 30.162C571.314 30.162 572.502 29.37 573.132 28.524V30H575.202V20.082H573.132V21.522C572.52 20.712 571.368 19.92 569.694 19.92C567.084 19.92 565.014 21.936 565.014 24.996ZM573.132 25.032C573.132 27.174 571.674 28.38 570.126 28.38C568.596 28.38 567.12 27.138 567.12 24.996C567.12 22.854 568.596 21.702 570.126 21.702C571.674 21.702 573.132 22.908 573.132 25.032ZM578.149 30H580.219V21.756H582.055V20.082H580.219V19.38C580.219 18.246 580.651 17.814 581.911 17.814V16.104C579.319 16.104 578.149 17.094 578.149 19.38V20.082H576.979V21.756H578.149V30ZM584.125 30H586.195V21.756H588.031V20.082H586.195V19.38C586.195 18.246 586.627 17.814 587.887 17.814V16.104C585.295 16.104 584.125 17.094 584.125 19.38V20.082H582.955V21.756H584.125V30ZM589.85 30H591.902V20.082H589.85V30ZM590.894 18.768C591.614 18.768 592.19 18.192 592.19 17.454C592.19 16.716 591.614 16.14 590.894 16.14C590.156 16.14 589.58 16.716 589.58 17.454C589.58 18.192 590.156 18.768 590.894 18.768ZM601.634 30H603.668V24.15C603.668 21.378 601.922 19.92 599.6 19.92C598.412 19.92 597.314 20.406 596.648 21.216V20.082H594.596V30H596.648V24.456C596.648 22.638 597.638 21.702 599.15 21.702C600.644 21.702 601.634 22.638 601.634 24.456V30ZM605.602 24.996C605.602 28.056 607.672 30.162 610.282 30.162C611.902 30.162 613.09 29.352 613.72 28.506V30.162C613.72 32.142 612.532 33.114 610.948 33.114C609.526 33.114 608.428 32.412 608.122 31.386H606.088C606.34 33.582 608.302 34.896 610.948 34.896C614.044 34.896 615.79 32.862 615.79 30.162V20.082H613.72V21.522C613.108 20.676 611.902 19.92 610.282 19.92C607.672 19.92 605.602 21.936 605.602 24.996ZM613.72 25.032C613.72 27.174 612.262 28.38 610.714 28.38C609.184 28.38 607.708 27.138 607.708 24.996C607.708 22.854 609.184 21.702 610.714 21.702C612.262 21.702 613.72 22.908 613.72 25.032ZM627.247 17.49H623.161V30H627.247C631.261 30 633.889 27.642 633.889 23.79C633.889 19.92 631.261 17.49 627.247 17.49ZM625.213 28.326V19.164H627.247C630.199 19.164 631.783 20.928 631.783 23.79C631.783 26.634 630.199 28.326 627.247 28.326H625.213ZM635.922 30H637.974V20.082H635.922V30ZM636.966 18.768C637.686 18.768 638.262 18.192 638.262 17.454C638.262 16.716 637.686 16.14 636.966 16.14C636.228 16.14 635.652 16.716 635.652 17.454C635.652 18.192 636.228 18.768 636.966 18.768ZM642.72 24.78C642.72 22.674 643.656 22.044 645.168 22.044H645.69V19.92C644.286 19.92 643.296 20.532 642.72 21.522V20.082H640.668V30H642.72V24.78ZM651.753 21.648C653.283 21.648 654.489 22.62 654.525 24.15H649.035C649.251 22.584 650.367 21.648 651.753 21.648ZM656.397 27.048H654.183C653.805 27.822 653.103 28.434 651.843 28.434C650.331 28.434 649.161 27.444 649.017 25.806H656.595C656.649 25.464 656.667 25.14 656.667 24.798C656.667 21.882 654.669 19.92 651.843 19.92C648.909 19.92 646.893 21.918 646.893 25.032C646.893 28.146 648.999 30.162 651.843 30.162C654.273 30.162 655.839 28.776 656.397 27.048ZM658.002 25.032C658.002 28.146 660.018 30.162 662.862 30.162C665.292 30.162 666.876 28.812 667.434 26.868H665.22C664.842 27.894 664.086 28.434 662.862 28.434C661.206 28.434 660.108 27.21 660.108 25.032C660.108 22.872 661.206 21.648 662.862 21.648C664.086 21.648 664.878 22.26 665.22 23.214H667.434C666.876 21.126 665.292 19.92 662.862 19.92C660.018 19.92 658.002 21.936 658.002 25.032ZM669.803 27.246C669.803 29.262 670.901 30 672.665 30H674.285V28.29H673.025C672.161 28.29 671.873 27.984 671.873 27.246V21.756H674.285V20.082H671.873V17.616H669.803V20.082H668.633V21.756H669.803V27.246ZM685.626 25.032C685.626 21.918 683.394 19.92 680.568 19.92C677.742 19.92 675.51 21.918 675.51 25.032C675.51 28.146 677.652 30.162 680.478 30.162C683.322 30.162 685.626 28.146 685.626 25.032ZM677.598 25.032C677.598 22.782 678.984 21.702 680.532 21.702C682.062 21.702 683.52 22.782 683.52 25.032C683.52 27.282 682.008 28.38 680.478 28.38C678.93 28.38 677.598 27.282 677.598 25.032ZM689.707 24.78C689.707 22.674 690.643 22.044 692.155 22.044H692.677V19.92C691.273 19.92 690.283 20.532 689.707 21.522V20.082H687.655V30H689.707V24.78Z" fill="#212832"/>
<circle cx="436.415" cy="24.4151" r="23.4151" fill="#A9CF54" stroke="#A9CF54"/>
<path d="M426.136 24.17C426.136 28.1412 427.185 31.1383 431.007 31.1383C434.828 31.1383 435.877 28.1412 435.877 24.17C435.877 20.2737 434.828 17.2766 431.007 17.2766C427.185 17.2766 426.136 20.2737 426.136 24.17ZM433.779 24.17C433.779 26.8487 433.498 29.1902 431.007 29.1902C428.515 29.1902 428.234 26.8487 428.234 24.17C428.234 21.6224 428.515 19.2247 431.007 19.2247C433.498 19.2247 433.779 21.6224 433.779 24.17ZM437.968 30.9885H447.072V29.2089H441.134C443.325 27.2046 446.697 24.6758 446.697 21.3602C446.697 18.9063 445.124 17.2391 442.351 17.2391C439.935 17.2391 438.024 18.6815 437.949 21.6412H440.01C440.066 20.1051 440.871 19.0561 442.37 19.0561C443.962 19.0561 444.58 20.0302 444.58 21.4538C444.58 24.1325 441.19 26.6052 437.968 29.4337V30.9885Z" fill="#212832"/>
<g filter="url(#filter5_d_953_405)">
<rect x="860" y="1" width="365" height="47" fill="white" shape-rendering="crispEdges"/>
<rect x="859.766" y="0.765849" width="365.468" height="47.4683" stroke="black" stroke-opacity="0.2" stroke-width="0.468302" shape-rendering="crispEdges"/>
</g>
<path d="M1225 1H1223V48H1225V1Z" fill="#3498DB" stroke="#3498DB" stroke-width="0.936604"/>
<path d="M987.706 30H989.758V17.49H987.706V22.854H981.82V17.49H979.768V30H981.82V24.528H987.706V30ZM999.101 21.234C999.101 22.476 998.381 23.358 996.779 23.358H994.511V19.164H996.779C998.381 19.164 999.101 19.974 999.101 21.234ZM992.459 17.49V30H994.511V24.996H996.077L998.957 30H1001.41L998.309 24.816C1000.42 24.294 1001.21 22.71 1001.21 21.234C1001.21 19.2 999.749 17.49 996.779 17.49H992.459ZM1007.82 23.718C1007.82 27.48 1010.69 30.108 1014.21 30.108C1016.82 30.108 1019.07 28.812 1020.03 26.364H1017.56C1016.9 27.696 1015.71 28.326 1014.21 28.326C1011.73 28.326 1009.93 26.544 1009.93 23.718C1009.93 20.892 1011.73 19.128 1014.21 19.128C1015.71 19.128 1016.9 19.758 1017.56 21.09H1020.03C1019.07 18.642 1016.82 17.328 1014.21 17.328C1010.69 17.328 1007.82 19.974 1007.82 23.718ZM1031.88 25.032C1031.88 21.918 1029.65 19.92 1026.82 19.92C1024 19.92 1021.76 21.918 1021.76 25.032C1021.76 28.146 1023.91 30.162 1026.73 30.162C1029.58 30.162 1031.88 28.146 1031.88 25.032ZM1023.85 25.032C1023.85 22.782 1025.24 21.702 1026.79 21.702C1028.32 21.702 1029.77 22.782 1029.77 25.032C1029.77 27.282 1028.26 28.38 1026.73 28.38C1025.18 28.38 1023.85 27.282 1023.85 25.032ZM1040.95 30H1042.98V24.15C1042.98 21.378 1041.23 19.92 1038.91 19.92C1037.72 19.92 1036.63 20.406 1035.96 21.216V20.082H1033.91V30H1035.96V24.456C1035.96 22.638 1036.95 21.702 1038.46 21.702C1039.96 21.702 1040.95 22.638 1040.95 24.456V30ZM1053 27.228C1052.89 23.646 1047.29 24.762 1047.29 22.764C1047.29 22.098 1047.87 21.648 1048.96 21.648C1050.08 21.648 1050.75 22.242 1050.82 23.106H1052.87C1052.76 21.126 1051.29 19.92 1049.04 19.92C1046.7 19.92 1045.22 21.198 1045.22 22.782C1045.22 26.418 1050.98 25.302 1050.98 27.246C1050.98 27.93 1050.35 28.434 1049.16 28.434C1048.03 28.434 1047.25 27.768 1047.18 26.958H1045.06C1045.15 28.758 1046.82 30.162 1049.2 30.162C1051.54 30.162 1053 28.902 1053 27.228ZM1064.2 20.082H1062.14V25.608C1062.14 27.426 1061.15 28.362 1059.64 28.362C1058.15 28.362 1057.16 27.426 1057.16 25.608V20.082H1055.12V25.914C1055.12 28.686 1056.89 30.144 1059.21 30.144C1060.38 30.144 1061.5 29.658 1062.14 28.812V30H1064.2V20.082ZM1066.9 30H1068.95V16.68H1066.9V30ZM1071.97 27.246C1071.97 29.262 1073.07 30 1074.83 30H1076.45V28.29H1075.19C1074.33 28.29 1074.04 27.984 1074.04 27.246V21.756H1076.45V20.082H1074.04V17.616H1071.97V20.082H1070.8V21.756H1071.97V27.246ZM1077.66 24.996C1077.66 28.056 1079.73 30.162 1082.31 30.162C1083.96 30.162 1085.15 29.37 1085.78 28.524V30H1087.85V20.082H1085.78V21.522C1085.17 20.712 1084.02 19.92 1082.34 19.92C1079.73 19.92 1077.66 21.936 1077.66 24.996ZM1085.78 25.032C1085.78 27.174 1084.32 28.38 1082.77 28.38C1081.24 28.38 1079.77 27.138 1079.77 24.996C1079.77 22.854 1081.24 21.702 1082.77 21.702C1084.32 21.702 1085.78 22.908 1085.78 25.032ZM1097.58 30H1099.62V24.15C1099.62 21.378 1097.87 19.92 1095.55 19.92C1094.36 19.92 1093.26 20.406 1092.6 21.216V20.082H1090.55V30H1092.6V24.456C1092.6 22.638 1093.59 21.702 1095.1 21.702C1096.59 21.702 1097.58 22.638 1097.58 24.456V30ZM1102.56 27.246C1102.56 29.262 1103.66 30 1105.42 30H1107.04V28.29H1105.78C1104.92 28.29 1104.63 27.984 1104.63 27.246V21.756H1107.04V20.082H1104.63V17.616H1102.56V20.082H1101.39V21.756H1102.56V27.246Z" fill="#212832"/>
<circle cx="856.415" cy="24.415" r="23.415" fill="#3498DB" stroke="#3498DB"/>
<path d="M845.548 24.9942C845.548 28.9654 846.597 31.9625 850.418 31.9625C854.24 31.9625 855.289 28.9654 855.289 24.9942C855.289 21.0979 854.24 18.1008 850.418 18.1008C846.597 18.1008 845.548 21.0979 845.548 24.9942ZM853.191 24.9942C853.191 27.6729 852.91 30.0144 850.418 30.0144C847.927 30.0144 847.646 27.6729 847.646 24.9942C847.646 22.4466 847.927 20.0489 850.418 20.0489C852.91 20.0489 853.191 22.4466 853.191 24.9942ZM857.511 21.7161H859.59C859.721 20.7608 860.414 19.8616 861.913 19.8616C863.374 19.8616 864.142 20.6484 864.142 21.8285C864.142 23.2896 862.962 23.8515 861.032 23.8703H860.527V25.6311H861.014C863.243 25.6311 864.404 26.2493 864.404 28.0475C864.404 29.3213 863.617 30.2954 862.025 30.2954C860.414 30.2954 859.478 29.3213 859.384 28.0475H857.323C857.454 30.7262 859.459 32.0749 862.044 32.0749C864.891 32.0749 866.427 30.4265 866.427 28.2536C866.427 26.3616 865.509 25.1815 864.086 24.7507V24.6758C865.153 24.3198 866.184 23.2147 866.184 21.585C866.184 19.5994 864.704 18.0259 861.988 18.0259C859.496 18.0259 857.661 19.3558 857.511 21.7161Z" fill="#212832"/>
<defs>
<filter id="filter0_d_953_405" x="23.5312" y="0.531738" width="365.938" height="47.9365" filterUnits="userSpaceOnUse" color-interpolation-filters="sRGB">
<feFlood flood-opacity="0" result="BackgroundImageFix"/>
<feColorMatrix in="SourceAlpha" type="matrix" values="0 0 0 0 0 0 0 0 0 0 0 0 0 0 0 0 0 0 127 0" result="hardAlpha"/>
<feOffset/>
<feComposite in2="hardAlpha" operator="out"/>
<feColorMatrix type="matrix" values="0 0 0 0 0 0 0 0 0 0 0 0 0 0 0 0 0 0 0.1 0"/>
<feBlend mode="normal" in2="BackgroundImageFix" result="effect1_dropShadow_953_405"/>
<feBlend mode="normal" in="SourceGraphic" in2="effect1_dropShadow_953_405" result="shape"/>
</filter>
<filter id="filter1_d_953_405" x="23.5312" y="75.5317" width="365.938" height="47.9365" filterUnits="userSpaceOnUse" color-interpolation-filters="sRGB">
<feFlood flood-opacity="0" result="BackgroundImageFix"/>
<feColorMatrix in="SourceAlpha" type="matrix" values="0 0 0 0 0 0 0 0 0 0 0 0 0 0 0 0 0 0 127 0" result="hardAlpha"/>
<feOffset/>
<feComposite in2="hardAlpha" operator="out"/>
<feColorMatrix type="matrix" values="0 0 0 0 0 0 0 0 0 0 0 0 0 0 0 0 0 0 0.1 0"/>
<feBlend mode="normal" in2="BackgroundImageFix" result="effect1_dropShadow_953_405"/>
<feBlend mode="normal" in="SourceGraphic" in2="effect1_dropShadow_953_405" result="shape"/>
</filter>
<filter id="filter2_d_953_405" x="435.531" y="75.5317" width="365.938" height="47.9365" filterUnits="userSpaceOnUse" color-interpolation-filters="sRGB">
<feFlood flood-opacity="0" result="BackgroundImageFix"/>
<feColorMatrix in="SourceAlpha" type="matrix" values="0 0 0 0 0 0 0 0 0 0 0 0 0 0 0 0 0 0 127 0" result="hardAlpha"/>
<feOffset/>
<feComposite in2="hardAlpha" operator="out"/>
<feColorMatrix type="matrix" values="0 0 0 0 0 0 0 0 0 0 0 0 0 0 0 0 0 0 0.1 0"/>
<feBlend mode="normal" in2="BackgroundImageFix" result="effect1_dropShadow_953_405"/>
<feBlend mode="normal" in="SourceGraphic" in2="effect1_dropShadow_953_405" result="shape"/>
</filter>
<filter id="filter3_d_953_405" x="858.531" y="75.5317" width="365.938" height="47.9365" filterUnits="userSpaceOnUse" color-interpolation-filters="sRGB">
<feFlood flood-opacity="0" result="BackgroundImageFix"/>
<feColorMatrix in="SourceAlpha" type="matrix" values="0 0 0 0 0 0 0 0 0 0 0 0 0 0 0 0 0 0 127 0" result="hardAlpha"/>
<feOffset/>
<feComposite in2="hardAlpha" operator="out"/>
<feColorMatrix type="matrix" values="0 0 0 0 0 0 0 0 0 0 0 0 0 0 0 0 0 0 0.1 0"/>
<feBlend mode="normal" in2="BackgroundImageFix" result="effect1_dropShadow_953_405"/>
<feBlend mode="normal" in="SourceGraphic" in2="effect1_dropShadow_953_405" result="shape"/>
</filter>
<filter id="filter4_d_953_405" x="436.531" y="0.531738" width="365.938" height="47.9365" filterUnits="userSpaceOnUse" color-interpolation-filters="sRGB">
<feFlood flood-opacity="0" result="BackgroundImageFix"/>
<feColorMatrix in="SourceAlpha" type="matrix" values="0 0 0 0 0 0 0 0 0 0 0 0 0 0 0 0 0 0 127 0" result="hardAlpha"/>
<feOffset/>
<feComposite in2="hardAlpha" operator="out"/>
<feColorMatrix type="matrix" values="0 0 0 0 0 0 0 0 0 0 0 0 0 0 0 0 0 0 0.1 0"/>
<feBlend mode="normal" in2="BackgroundImageFix" result="effect1_dropShadow_953_405"/>
<feBlend mode="normal" in="SourceGraphic" in2="effect1_dropShadow_953_405" result="shape"/>
</filter>
<filter id="filter5_d_953_405" x="859.531" y="0.531738" width="365.938" height="47.9365" filterUnits="userSpaceOnUse" color-interpolation-filters="sRGB">
<feFlood flood-opacity="0" result="BackgroundImageFix"/>
<feColorMatrix in="SourceAlpha" type="matrix" values="0 0 0 0 0 0 0 0 0 0 0 0 0 0 0 0 0 0 127 0" result="hardAlpha"/>
<feOffset/>
<feComposite in2="hardAlpha" operator="out"/>
<feColorMatrix type="matrix" values="0 0 0 0 0 0 0 0 0 0 0 0 0 0 0 0 0 0 0.1 0"/>
<feBlend mode="normal" in2="BackgroundImageFix" result="effect1_dropShadow_953_405"/>
<feBlend mode="normal" in="SourceGraphic" in2="effect1_dropShadow_953_405" result="shape"/>
</filter>
</defs>
</svg>
