<svg width="1226" height="124" viewBox="0 0 1226 124" fill="none" xmlns="http://www.w3.org/2000/svg">
<g filter="url(#filter0_d_953_499)">
<rect x="24" y="1" width="365" height="47" fill="white" shape-rendering="crispEdges"/>
<rect x="23.7658" y="0.765849" width="365.468" height="47.4683" stroke="black" stroke-opacity="0.2" stroke-width="0.468302" shape-rendering="crispEdges"/>
</g>
<path d="M104.055 26.454C104.055 21.882 97.4307 23.646 97.4307 20.82C97.4307 19.614 98.3487 19.038 99.5367 19.074C100.833 19.11 101.571 19.884 101.643 20.73H103.911C103.731 18.588 102.039 17.328 99.6447 17.328C97.0887 17.328 95.3427 18.696 95.3427 20.892C95.3427 25.5 101.985 23.538 101.985 26.562C101.985 27.624 101.175 28.398 99.7347 28.398C98.3127 28.398 97.5927 27.57 97.5027 26.544H95.3067C95.3067 28.758 97.2327 30.126 99.7347 30.126C102.525 30.126 104.055 28.326 104.055 26.454ZM110.652 21.648C112.182 21.648 113.388 22.62 113.424 24.15H107.934C108.15 22.584 109.266 21.648 110.652 21.648ZM115.296 27.048H113.082C112.704 27.822 112.002 28.434 110.742 28.434C109.23 28.434 108.06 27.444 107.916 25.806H115.494C115.548 25.464 115.566 25.14 115.566 24.798C115.566 21.882 113.568 19.92 110.742 19.92C107.808 19.92 105.792 21.918 105.792 25.032C105.792 28.146 107.898 30.162 110.742 30.162C113.172 30.162 114.738 28.776 115.296 27.048ZM124.623 30H126.657V24.15C126.657 21.378 124.911 19.92 122.589 19.92C121.401 19.92 120.303 20.406 119.637 21.216V20.082H117.585V30H119.637V24.456C119.637 22.638 120.627 21.702 122.139 21.702C123.633 21.702 124.623 22.638 124.623 24.456V30ZM129.275 30H131.327V20.082H129.275V30ZM130.319 18.768C131.039 18.768 131.615 18.192 131.615 17.454C131.615 16.716 131.039 16.14 130.319 16.14C129.581 16.14 129.005 16.716 129.005 17.454C129.005 18.192 129.581 18.768 130.319 18.768ZM143.471 25.032C143.471 21.918 141.239 19.92 138.413 19.92C135.587 19.92 133.355 21.918 133.355 25.032C133.355 28.146 135.497 30.162 138.323 30.162C141.167 30.162 143.471 28.146 143.471 25.032ZM135.443 25.032C135.443 22.782 136.829 21.702 138.377 21.702C139.907 21.702 141.365 22.782 141.365 25.032C141.365 27.282 139.853 28.38 138.323 28.38C136.775 28.38 135.443 27.282 135.443 25.032ZM147.551 24.78C147.551 22.674 148.487 22.044 149.999 22.044H150.521V19.92C149.117 19.92 148.127 20.532 147.551 21.522V20.082H145.499V30H147.551V24.78ZM165.525 26.454C165.525 21.882 158.901 23.646 158.901 20.82C158.901 19.614 159.819 19.038 161.007 19.074C162.303 19.11 163.041 19.884 163.113 20.73H165.381C165.201 18.588 163.509 17.328 161.115 17.328C158.559 17.328 156.813 18.696 156.813 20.892C156.813 25.5 163.455 23.538 163.455 26.562C163.455 27.624 162.645 28.398 161.205 28.398C159.783 28.398 159.063 27.57 158.973 26.544H156.777C156.777 28.758 158.703 30.126 161.205 30.126C163.995 30.126 165.525 28.326 165.525 26.454ZM168.271 27.246C168.271 29.262 169.369 30 171.133 30H172.753V28.29H171.493C170.629 28.29 170.341 27.984 170.341 27.246V21.756H172.753V20.082H170.341V17.616H168.271V20.082H167.101V21.756H168.271V27.246ZM176.696 24.78C176.696 22.674 177.632 22.044 179.144 22.044H179.666V19.92C178.262 19.92 177.272 20.532 176.696 21.522V20.082H174.644V30H176.696V24.78ZM180.868 24.996C180.868 28.056 182.938 30.162 185.512 30.162C187.168 30.162 188.356 29.37 188.986 28.524V30H191.056V20.082H188.986V21.522C188.374 20.712 187.222 19.92 185.548 19.92C182.938 19.92 180.868 21.936 180.868 24.996ZM188.986 25.032C188.986 27.174 187.528 28.38 185.98 28.38C184.45 28.38 182.974 27.138 182.974 24.996C182.974 22.854 184.45 21.702 185.98 21.702C187.528 21.702 188.986 22.908 188.986 25.032ZM194.075 27.246C194.075 29.262 195.173 30 196.937 30H198.557V28.29H197.297C196.433 28.29 196.145 27.984 196.145 27.246V21.756H198.557V20.082H196.145V17.616H194.075V20.082H192.905V21.756H194.075V27.246ZM204.625 21.648C206.155 21.648 207.361 22.62 207.397 24.15H201.907C202.123 22.584 203.239 21.648 204.625 21.648ZM209.269 27.048H207.055C206.677 27.822 205.975 28.434 204.715 28.434C203.203 28.434 202.033 27.444 201.889 25.806H209.467C209.521 25.464 209.539 25.14 209.539 24.798C209.539 21.882 207.541 19.92 204.715 19.92C201.781 19.92 199.765 21.918 199.765 25.032C199.765 28.146 201.871 30.162 204.715 30.162C207.145 30.162 208.711 28.776 209.269 27.048ZM210.874 24.996C210.874 28.056 212.944 30.162 215.554 30.162C217.174 30.162 218.362 29.352 218.992 28.506V30.162C218.992 32.142 217.804 33.114 216.22 33.114C214.798 33.114 213.7 32.412 213.394 31.386H211.36C211.612 33.582 213.574 34.896 216.22 34.896C219.316 34.896 221.062 32.862 221.062 30.162V20.082H218.992V21.522C218.38 20.676 217.174 19.92 215.554 19.92C212.944 19.92 210.874 21.936 210.874 24.996ZM218.992 25.032C218.992 27.174 217.534 28.38 215.986 28.38C214.456 28.38 212.98 27.138 212.98 24.996C212.98 22.854 214.456 21.702 215.986 21.702C217.534 21.702 218.992 22.908 218.992 25.032ZM227.663 27.642L224.873 20.082H222.587L226.493 29.838L224.477 34.662H226.601L232.685 20.082H230.561L227.663 27.642ZM238.91 30H240.962V21.432L244.796 30H246.218L250.034 21.432V30H252.086V17.49H249.89L245.516 27.3L241.124 17.49H238.91V30ZM254.099 24.996C254.099 28.056 256.169 30.162 258.743 30.162C260.399 30.162 261.587 29.37 262.217 28.524V30H264.287V20.082H262.217V21.522C261.605 20.712 260.453 19.92 258.779 19.92C256.169 19.92 254.099 21.936 254.099 24.996ZM262.217 25.032C262.217 27.174 260.759 28.38 259.211 28.38C257.681 28.38 256.205 27.138 256.205 24.996C256.205 22.854 257.681 21.702 259.211 21.702C260.759 21.702 262.217 22.908 262.217 25.032ZM274.02 30H276.054V24.15C276.054 21.378 274.308 19.92 271.986 19.92C270.798 19.92 269.7 20.406 269.034 21.216V20.082H266.982V30H269.034V24.456C269.034 22.638 270.024 21.702 271.536 21.702C273.03 21.702 274.02 22.638 274.02 24.456V30ZM277.987 24.996C277.987 28.056 280.057 30.162 282.631 30.162C284.287 30.162 285.475 29.37 286.105 28.524V30H288.175V20.082H286.105V21.522C285.493 20.712 284.341 19.92 282.667 19.92C280.057 19.92 277.987 21.936 277.987 24.996ZM286.105 25.032C286.105 27.174 284.647 28.38 283.099 28.38C281.569 28.38 280.093 27.138 280.093 24.996C280.093 22.854 281.569 21.702 283.099 21.702C284.647 21.702 286.105 22.908 286.105 25.032ZM290.187 24.996C290.187 28.056 292.257 30.162 294.867 30.162C296.487 30.162 297.675 29.352 298.305 28.506V30.162C298.305 32.142 297.117 33.114 295.533 33.114C294.111 33.114 293.013 32.412 292.707 31.386H290.673C290.925 33.582 292.887 34.896 295.533 34.896C298.629 34.896 300.375 32.862 300.375 30.162V20.082H298.305V21.522C297.693 20.676 296.487 19.92 294.867 19.92C292.257 19.92 290.187 21.936 290.187 24.996ZM298.305 25.032C298.305 27.174 296.847 28.38 295.299 28.38C293.769 28.38 292.293 27.138 292.293 24.996C292.293 22.854 293.769 21.702 295.299 21.702C296.847 21.702 298.305 22.908 298.305 25.032ZM307.246 21.648C308.776 21.648 309.982 22.62 310.018 24.15H304.528C304.744 22.584 305.86 21.648 307.246 21.648ZM311.89 27.048H309.676C309.298 27.822 308.596 28.434 307.336 28.434C305.824 28.434 304.654 27.444 304.51 25.806H312.088C312.142 25.464 312.16 25.14 312.16 24.798C312.16 21.882 310.162 19.92 307.336 19.92C304.402 19.92 302.386 21.918 302.386 25.032C302.386 28.146 304.492 30.162 307.336 30.162C309.766 30.162 311.332 28.776 311.89 27.048ZM316.231 24.78C316.231 22.674 317.167 22.044 318.679 22.044H319.201V19.92C317.797 19.92 316.807 20.532 316.231 21.522V20.082H314.179V30H316.231V24.78Z" fill="#212832"/>
<path d="M389 1H387V48H389V1Z" fill="#946FB0" stroke="#946FB0" stroke-width="0.936604"/>
<circle cx="24.4151" cy="24.4151" r="23.4151" fill="#946FB0" stroke="#946FB0"/>
<path d="M16.3494 23.9942C16.3494 27.9654 17.3983 30.9625 21.2197 30.9625C25.041 30.9625 26.09 27.9654 26.09 23.9942C26.09 20.0979 25.041 17.1008 21.2197 17.1008C17.3983 17.1008 16.3494 20.0979 16.3494 23.9942ZM23.992 23.9942C23.992 26.6729 23.7111 29.0144 21.2197 29.0144C18.7283 29.0144 18.4473 26.6729 18.4473 23.9942C18.4473 21.4466 18.7283 19.0489 21.2197 19.0489C23.7111 19.0489 23.992 21.4466 23.992 23.9942ZM29.8107 31H31.9649V17.3443H28.0686V19.2925H29.8107V31Z" fill="#212832"/>
<g filter="url(#filter1_d_953_499)">
<rect x="24" y="76" width="365" height="47" fill="white" shape-rendering="crispEdges"/>
<rect x="23.7658" y="75.7658" width="365.468" height="47.4683" stroke="black" stroke-opacity="0.2" stroke-width="0.468302" shape-rendering="crispEdges"/>
</g>
<path d="M97.6913 106H99.7433V93.49H97.6913V98.854H91.8053V93.49H89.7533V106H91.8053V100.528H97.6913V106ZM111.427 96.082H109.375V101.608C109.375 103.426 108.385 104.362 106.873 104.362C105.379 104.362 104.389 103.426 104.389 101.608V96.082H102.355V101.914C102.355 104.686 104.119 106.144 106.441 106.144C107.611 106.144 108.727 105.658 109.375 104.812V106H111.427V96.082ZM128.192 106H130.226V100.15C130.226 97.378 128.462 95.92 126.14 95.92C124.7 95.92 123.296 96.676 122.684 97.882C122 96.586 120.686 95.92 119.12 95.92C117.932 95.92 116.852 96.406 116.186 97.216V96.082H114.134V106H116.186V100.456C116.186 98.638 117.176 97.702 118.688 97.702C120.182 97.702 121.172 98.638 121.172 100.456V106H123.206V100.456C123.206 98.638 124.196 97.702 125.708 97.702C127.202 97.702 128.192 98.638 128.192 100.456V106ZM132.153 100.996C132.153 104.056 134.223 106.162 136.797 106.162C138.453 106.162 139.641 105.37 140.271 104.524V106H142.341V96.082H140.271V97.522C139.659 96.712 138.507 95.92 136.833 95.92C134.223 95.92 132.153 97.936 132.153 100.996ZM140.271 101.032C140.271 103.174 138.813 104.38 137.265 104.38C135.735 104.38 134.259 103.138 134.259 100.996C134.259 98.854 135.735 97.702 137.265 97.702C138.813 97.702 140.271 98.908 140.271 101.032ZM152.075 106H154.109V100.15C154.109 97.378 152.363 95.92 150.041 95.92C148.853 95.92 147.755 96.406 147.089 97.216V96.082H145.037V106H147.089V100.456C147.089 98.638 148.079 97.702 149.591 97.702C151.085 97.702 152.075 98.638 152.075 100.456V106ZM168.044 97.234C168.044 98.476 167.324 99.358 165.722 99.358H163.454V95.164H165.722C167.324 95.164 168.044 95.974 168.044 97.234ZM161.402 93.49V106H163.454V100.996H165.02L167.9 106H170.348L167.252 100.816C169.358 100.294 170.15 98.71 170.15 97.234C170.15 95.2 168.692 93.49 165.722 93.49H161.402ZM176.951 97.648C178.481 97.648 179.687 98.62 179.723 100.15H174.233C174.449 98.584 175.565 97.648 176.951 97.648ZM181.595 103.048H179.381C179.003 103.822 178.301 104.434 177.041 104.434C175.529 104.434 174.359 103.444 174.215 101.806H181.793C181.847 101.464 181.865 101.14 181.865 100.798C181.865 97.882 179.867 95.92 177.041 95.92C174.107 95.92 172.091 97.918 172.091 101.032C172.091 104.146 174.197 106.162 177.041 106.162C179.471 106.162 181.037 104.776 181.595 103.048ZM191.282 103.228C191.174 99.646 185.576 100.762 185.576 98.764C185.576 98.098 186.152 97.648 187.25 97.648C188.366 97.648 189.032 98.242 189.104 99.106H191.156C191.048 97.126 189.572 95.92 187.322 95.92C184.982 95.92 183.506 97.198 183.506 98.782C183.506 102.418 189.266 101.302 189.266 103.246C189.266 103.93 188.636 104.434 187.448 104.434C186.314 104.434 185.54 103.768 185.468 102.958H183.344C183.434 104.758 185.108 106.162 187.484 106.162C189.824 106.162 191.282 104.902 191.282 103.228ZM202.949 101.032C202.949 97.918 200.717 95.92 197.891 95.92C195.065 95.92 192.833 97.918 192.833 101.032C192.833 104.146 194.975 106.162 197.801 106.162C200.645 106.162 202.949 104.146 202.949 101.032ZM194.921 101.032C194.921 98.782 196.307 97.702 197.855 97.702C199.385 97.702 200.843 98.782 200.843 101.032C200.843 103.282 199.331 104.38 197.801 104.38C196.253 104.38 194.921 103.282 194.921 101.032ZM213.96 96.082H211.908V101.608C211.908 103.426 210.918 104.362 209.406 104.362C207.912 104.362 206.922 103.426 206.922 101.608V96.082H204.888V101.914C204.888 104.686 206.652 106.144 208.974 106.144C210.144 106.144 211.26 105.658 211.908 104.812V106H213.96V96.082ZM218.719 100.78C218.719 98.674 219.655 98.044 221.167 98.044H221.689V95.92C220.285 95.92 219.295 96.532 218.719 97.522V96.082H216.667V106H218.719V100.78ZM222.892 101.032C222.892 104.146 224.908 106.162 227.752 106.162C230.182 106.162 231.766 104.812 232.324 102.868H230.11C229.732 103.894 228.976 104.434 227.752 104.434C226.096 104.434 224.998 103.21 224.998 101.032C224.998 98.872 226.096 97.648 227.752 97.648C228.976 97.648 229.768 98.26 230.11 99.214H232.324C231.766 97.126 230.182 95.92 227.752 95.92C224.908 95.92 222.892 97.936 222.892 101.032ZM238.545 97.648C240.075 97.648 241.281 98.62 241.317 100.15H235.827C236.043 98.584 237.159 97.648 238.545 97.648ZM243.189 103.048H240.975C240.597 103.822 239.895 104.434 238.635 104.434C237.123 104.434 235.953 103.444 235.809 101.806H243.387C243.441 101.464 243.459 101.14 243.459 100.798C243.459 97.882 241.461 95.92 238.635 95.92C235.701 95.92 233.685 97.918 233.685 101.032C233.685 104.146 235.791 106.162 238.635 106.162C241.065 106.162 242.631 104.776 243.189 103.048ZM252.876 103.228C252.768 99.646 247.17 100.762 247.17 98.764C247.17 98.098 247.746 97.648 248.844 97.648C249.96 97.648 250.626 98.242 250.698 99.106H252.75C252.642 97.126 251.166 95.92 248.916 95.92C246.576 95.92 245.1 97.198 245.1 98.782C245.1 102.418 250.86 101.302 250.86 103.246C250.86 103.93 250.23 104.434 249.042 104.434C247.908 104.434 247.134 103.768 247.062 102.958H244.938C245.028 104.758 246.702 106.162 249.078 106.162C251.418 106.162 252.876 104.902 252.876 103.228ZM259.769 106H261.821V97.432L265.655 106H267.077L270.893 97.432V106H272.945V93.49H270.749L266.375 103.3L261.983 93.49H259.769V106ZM274.958 100.996C274.958 104.056 277.028 106.162 279.602 106.162C281.258 106.162 282.446 105.37 283.076 104.524V106H285.146V96.082H283.076V97.522C282.464 96.712 281.312 95.92 279.638 95.92C277.028 95.92 274.958 97.936 274.958 100.996ZM283.076 101.032C283.076 103.174 281.618 104.38 280.07 104.38C278.54 104.38 277.064 103.138 277.064 100.996C277.064 98.854 278.54 97.702 280.07 97.702C281.618 97.702 283.076 98.908 283.076 101.032ZM294.879 106H296.913V100.15C296.913 97.378 295.167 95.92 292.845 95.92C291.657 95.92 290.559 96.406 289.893 97.216V96.082H287.841V106H289.893V100.456C289.893 98.638 290.883 97.702 292.395 97.702C293.889 97.702 294.879 98.638 294.879 100.456V106ZM298.847 100.996C298.847 104.056 300.917 106.162 303.491 106.162C305.147 106.162 306.335 105.37 306.965 104.524V106H309.035V96.082H306.965V97.522C306.353 96.712 305.201 95.92 303.527 95.92C300.917 95.92 298.847 97.936 298.847 100.996ZM306.965 101.032C306.965 103.174 305.507 104.38 303.959 104.38C302.429 104.38 300.953 103.138 300.953 100.996C300.953 98.854 302.429 97.702 303.959 97.702C305.507 97.702 306.965 98.908 306.965 101.032ZM311.046 100.996C311.046 104.056 313.116 106.162 315.726 106.162C317.346 106.162 318.534 105.352 319.164 104.506V106.162C319.164 108.142 317.976 109.114 316.392 109.114C314.97 109.114 313.872 108.412 313.566 107.386H311.532C311.784 109.582 313.746 110.896 316.392 110.896C319.488 110.896 321.234 108.862 321.234 106.162V96.082H319.164V97.522C318.552 96.676 317.346 95.92 315.726 95.92C313.116 95.92 311.046 97.936 311.046 100.996ZM319.164 101.032C319.164 103.174 317.706 104.38 316.158 104.38C314.628 104.38 313.152 103.138 313.152 100.996C313.152 98.854 314.628 97.702 316.158 97.702C317.706 97.702 319.164 98.908 319.164 101.032ZM328.105 97.648C329.635 97.648 330.841 98.62 330.877 100.15H325.387C325.603 98.584 326.719 97.648 328.105 97.648ZM332.749 103.048H330.535C330.157 103.822 329.455 104.434 328.195 104.434C326.683 104.434 325.513 103.444 325.369 101.806H332.947C333.001 101.464 333.019 101.14 333.019 100.798C333.019 97.882 331.021 95.92 328.195 95.92C325.261 95.92 323.245 97.918 323.245 101.032C323.245 104.146 325.351 106.162 328.195 106.162C330.625 106.162 332.191 104.776 332.749 103.048ZM337.09 100.78C337.09 98.674 338.026 98.044 339.538 98.044H340.06V95.92C338.656 95.92 337.666 96.532 337.09 97.522V96.082H335.038V106H337.09V100.78Z" fill="#212832"/>
<path d="M389 76H387V123H389V76Z" fill="#CF1C54" stroke="#CF1C54" stroke-width="0.936604"/>
<circle cx="24.4151" cy="99.4151" r="23.4151" fill="#E9336C" stroke="#E9336C"/>
<path d="M13.4699 99.6055C13.4699 103.577 14.5189 106.574 18.3402 106.574C22.1616 106.574 23.2106 103.577 23.2106 99.6055C23.2106 95.7093 22.1616 92.7121 18.3402 92.7121C14.5189 92.7121 13.4699 95.7093 13.4699 99.6055ZM21.1126 99.6055C21.1126 102.284 20.8316 104.626 18.3402 104.626C15.8489 104.626 15.5679 102.284 15.5679 99.6055C15.5679 97.058 15.8489 94.6603 18.3402 94.6603C20.8316 94.6603 21.1126 97.058 21.1126 99.6055ZM31.9889 106.611H34.0869V103.764H35.829V101.91H34.0869V93.1242H31.5019L25.2079 102.153V103.764H31.9889V106.611ZM27.6618 101.91L32.0825 95.2972V101.91H27.6618Z" fill="#212832"/>
<g filter="url(#filter2_d_953_499)">
<rect x="437" y="1" width="365" height="47" fill="white" shape-rendering="crispEdges"/>
<rect x="436.766" y="0.765849" width="365.468" height="47.4683" stroke="black" stroke-opacity="0.2" stroke-width="0.468302" shape-rendering="crispEdges"/>
</g>
<path d="M802 1H800V48H802V1Z" fill="#A9CF54" stroke="#A9CF54" stroke-width="0.936604"/>
<path d="M558.976 19.164H562.324V30H564.376V19.164H567.706V17.49H558.976V19.164ZM579.235 25.032C579.235 21.918 577.003 19.92 574.177 19.92C571.351 19.92 569.119 21.918 569.119 25.032C569.119 28.146 571.261 30.162 574.087 30.162C576.931 30.162 579.235 28.146 579.235 25.032ZM571.207 25.032C571.207 22.782 572.593 21.702 574.141 21.702C575.671 21.702 577.129 22.782 577.129 25.032C577.129 27.282 575.617 28.38 574.087 28.38C572.539 28.38 571.207 27.282 571.207 25.032ZM583.315 21.54V20.082H581.263V34.716H583.315V28.56C583.963 29.334 585.133 30.162 586.771 30.162C589.381 30.162 591.433 28.056 591.433 24.996C591.433 21.936 589.381 19.92 586.771 19.92C585.151 19.92 583.945 20.712 583.315 21.54ZM589.345 24.996C589.345 27.138 587.869 28.38 586.321 28.38C584.791 28.38 583.315 27.174 583.315 25.032C583.315 22.908 584.791 21.702 586.321 21.702C587.869 21.702 589.345 22.854 589.345 24.996ZM605.05 17.472H598.138V30H605.05V28.326H600.19V24.492H604.51V22.818H600.19V19.146H605.05V17.472ZM612.708 30H615.03L611.826 24.978L615.03 20.082H612.888L610.872 23.448L608.73 20.082H606.408L609.612 25.122L606.408 30H608.55L610.566 26.634L612.708 30ZM620.736 21.648C622.266 21.648 623.472 22.62 623.508 24.15H618.018C618.234 22.584 619.35 21.648 620.736 21.648ZM625.38 27.048H623.166C622.788 27.822 622.086 28.434 620.826 28.434C619.314 28.434 618.144 27.444 618 25.806H625.578C625.632 25.464 625.65 25.14 625.65 24.798C625.65 21.882 623.652 19.92 620.826 19.92C617.892 19.92 615.876 21.918 615.876 25.032C615.876 28.146 617.982 30.162 620.826 30.162C623.256 30.162 624.822 28.776 625.38 27.048ZM626.985 25.032C626.985 28.146 629.001 30.162 631.845 30.162C634.275 30.162 635.859 28.812 636.417 26.868H634.203C633.825 27.894 633.069 28.434 631.845 28.434C630.189 28.434 629.091 27.21 629.091 25.032C629.091 22.872 630.189 21.648 631.845 21.648C633.069 21.648 633.861 22.26 634.203 23.214H636.417C635.859 21.126 634.275 19.92 631.845 19.92C629.001 19.92 626.985 21.936 626.985 25.032ZM647.444 20.082H645.392V25.608C645.392 27.426 644.402 28.362 642.89 28.362C641.396 28.362 640.406 27.426 640.406 25.608V20.082H638.372V25.914C638.372 28.686 640.136 30.144 642.458 30.144C643.628 30.144 644.744 29.658 645.392 28.812V30H647.444V20.082ZM650.476 27.246C650.476 29.262 651.574 30 653.338 30H654.958V28.29H653.698C652.834 28.29 652.546 27.984 652.546 27.246V21.756H654.958V20.082H652.546V17.616H650.476V20.082H649.306V21.756H650.476V27.246ZM656.849 30H658.901V20.082H656.849V30ZM657.893 18.768C658.613 18.768 659.189 18.192 659.189 17.454C659.189 16.716 658.613 16.14 657.893 16.14C657.155 16.14 656.579 16.716 656.579 17.454C656.579 18.192 657.155 18.768 657.893 18.768ZM660.425 20.082L664.187 30H666.635L670.415 20.082H668.237L665.429 28.164L662.621 20.082H660.425ZM676.142 21.648C677.672 21.648 678.878 22.62 678.914 24.15H673.424C673.64 22.584 674.756 21.648 676.142 21.648ZM680.786 27.048H678.572C678.194 27.822 677.492 28.434 676.232 28.434C674.72 28.434 673.55 27.444 673.406 25.806H680.984C681.038 25.464 681.056 25.14 681.056 24.798C681.056 21.882 679.058 19.92 676.232 19.92C673.298 19.92 671.282 21.918 671.282 25.032C671.282 28.146 673.388 30.162 676.232 30.162C678.662 30.162 680.228 28.776 680.786 27.048Z" fill="#212832"/>
<circle cx="436.415" cy="24.4151" r="23.4151" fill="#A9CF54" stroke="#A9CF54"/>
<path d="M426.128 24.17C426.128 28.1412 427.177 31.1383 430.999 31.1383C434.82 31.1383 435.869 28.1412 435.869 24.17C435.869 20.2737 434.82 17.2766 430.999 17.2766C427.177 17.2766 426.128 20.2737 426.128 24.17ZM433.771 24.17C433.771 26.8487 433.49 29.1902 430.999 29.1902C428.507 29.1902 428.226 26.8487 428.226 24.17C428.226 21.6224 428.507 19.2247 430.999 19.2247C433.49 19.2247 433.771 21.6224 433.771 24.17ZM437.96 30.9885H447.064V29.2089H441.126C443.317 27.2046 446.689 24.6758 446.689 21.3602C446.689 18.9063 445.116 17.2391 442.343 17.2391C439.927 17.2391 438.016 18.6815 437.941 21.6412H440.002C440.058 20.1051 440.864 19.0561 442.362 19.0561C443.954 19.0561 444.573 20.0302 444.573 21.4538C444.573 24.1325 441.182 26.6052 437.96 29.4337V30.9885Z" fill="#212832"/>
<g filter="url(#filter3_d_953_499)">
<rect x="860" y="1" width="365" height="47" fill="white" shape-rendering="crispEdges"/>
<rect x="859.766" y="0.765849" width="365.468" height="47.4683" stroke="black" stroke-opacity="0.2" stroke-width="0.468302" shape-rendering="crispEdges"/>
</g>
<path d="M1225 1H1223V48H1225V1Z" fill="#3498DB" stroke="#3498DB" stroke-width="0.936604"/>
<path d="M959.887 30H961.939V24.528H966.079V22.854H961.939V19.164H967.249V17.49H959.887V30ZM969.151 30H971.203V20.082H969.151V30ZM970.195 18.768C970.915 18.768 971.491 18.192 971.491 17.454C971.491 16.716 970.915 16.14 970.195 16.14C969.457 16.14 968.881 16.716 968.881 17.454C968.881 18.192 969.457 18.768 970.195 18.768ZM980.935 30H982.969V24.15C982.969 21.378 981.223 19.92 978.901 19.92C977.713 19.92 976.615 20.406 975.949 21.216V20.082H973.897V30H975.949V24.456C975.949 22.638 976.939 21.702 978.451 21.702C979.945 21.702 980.935 22.638 980.935 24.456V30ZM984.902 24.996C984.902 28.056 986.972 30.162 989.546 30.162C991.202 30.162 992.39 29.37 993.02 28.524V30H995.09V20.082H993.02V21.522C992.408 20.712 991.256 19.92 989.582 19.92C986.972 19.92 984.902 21.936 984.902 24.996ZM993.02 25.032C993.02 27.174 991.562 28.38 990.014 28.38C988.484 28.38 987.008 27.138 987.008 24.996C987.008 22.854 988.484 21.702 990.014 21.702C991.562 21.702 993.02 22.908 993.02 25.032ZM1004.82 30H1006.86V24.15C1006.86 21.378 1005.11 19.92 1002.79 19.92C1001.6 19.92 1000.5 20.406 999.838 21.216V20.082H997.786V30H999.838V24.456C999.838 22.638 1000.83 21.702 1002.34 21.702C1003.83 21.702 1004.82 22.638 1004.82 24.456V30ZM1008.79 25.032C1008.79 28.146 1010.81 30.162 1013.65 30.162C1016.08 30.162 1017.67 28.812 1018.22 26.868H1016.01C1015.63 27.894 1014.88 28.434 1013.65 28.434C1012 28.434 1010.9 27.21 1010.9 25.032C1010.9 22.872 1012 21.648 1013.65 21.648C1014.88 21.648 1015.67 22.26 1016.01 23.214H1018.22C1017.67 21.126 1016.08 19.92 1013.65 19.92C1010.81 19.92 1008.79 21.936 1008.79 25.032ZM1020.27 30H1022.32V20.082H1020.27V30ZM1021.31 18.768C1022.03 18.768 1022.61 18.192 1022.61 17.454C1022.61 16.716 1022.03 16.14 1021.31 16.14C1020.57 16.14 1020 16.716 1020 17.454C1020 18.192 1020.57 18.768 1021.31 18.768ZM1024.33 24.996C1024.33 28.056 1026.4 30.162 1028.97 30.162C1030.63 30.162 1031.82 29.37 1032.45 28.524V30H1034.52V20.082H1032.45V21.522C1031.84 20.712 1030.68 19.92 1029.01 19.92C1026.4 19.92 1024.33 21.936 1024.33 24.996ZM1032.45 25.032C1032.45 27.174 1030.99 28.38 1029.44 28.38C1027.91 28.38 1026.44 27.138 1026.44 24.996C1026.44 22.854 1027.91 21.702 1029.44 21.702C1030.99 21.702 1032.45 22.908 1032.45 25.032ZM1037.21 30H1039.27V16.68H1037.21V30ZM1046.64 30H1048.69V21.432L1052.52 30H1053.94L1057.76 21.432V30H1059.81V17.49H1057.62L1053.24 27.3L1048.85 17.49H1046.64V30ZM1061.82 24.996C1061.82 28.056 1063.89 30.162 1066.47 30.162C1068.12 30.162 1069.31 29.37 1069.94 28.524V30H1072.01V20.082H1069.94V21.522C1069.33 20.712 1068.18 19.92 1066.5 19.92C1063.89 19.92 1061.82 21.936 1061.82 24.996ZM1069.94 25.032C1069.94 27.174 1068.48 28.38 1066.94 28.38C1065.41 28.38 1063.93 27.138 1063.93 24.996C1063.93 22.854 1065.41 21.702 1066.94 21.702C1068.48 21.702 1069.94 22.908 1069.94 25.032ZM1081.75 30H1083.78V24.15C1083.78 21.378 1082.03 19.92 1079.71 19.92C1078.52 19.92 1077.43 20.406 1076.76 21.216V20.082H1074.71V30H1076.76V24.456C1076.76 22.638 1077.75 21.702 1079.26 21.702C1080.76 21.702 1081.75 22.638 1081.75 24.456V30ZM1085.71 24.996C1085.71 28.056 1087.78 30.162 1090.36 30.162C1092.01 30.162 1093.2 29.37 1093.83 28.524V30H1095.9V20.082H1093.83V21.522C1093.22 20.712 1092.07 19.92 1090.39 19.92C1087.78 19.92 1085.71 21.936 1085.71 24.996ZM1093.83 25.032C1093.83 27.174 1092.37 28.38 1090.82 28.38C1089.29 28.38 1087.82 27.138 1087.82 24.996C1087.82 22.854 1089.29 21.702 1090.82 21.702C1092.37 21.702 1093.83 22.908 1093.83 25.032ZM1097.91 24.996C1097.91 28.056 1099.98 30.162 1102.59 30.162C1104.21 30.162 1105.4 29.352 1106.03 28.506V30.162C1106.03 32.142 1104.84 33.114 1103.26 33.114C1101.84 33.114 1100.74 32.412 1100.43 31.386H1098.4C1098.65 33.582 1100.61 34.896 1103.26 34.896C1106.35 34.896 1108.1 32.862 1108.1 30.162V20.082H1106.03V21.522C1105.42 20.676 1104.21 19.92 1102.59 19.92C1099.98 19.92 1097.91 21.936 1097.91 24.996ZM1106.03 25.032C1106.03 27.174 1104.57 28.38 1103.02 28.38C1101.49 28.38 1100.02 27.138 1100.02 24.996C1100.02 22.854 1101.49 21.702 1103.02 21.702C1104.57 21.702 1106.03 22.908 1106.03 25.032ZM1114.97 21.648C1116.5 21.648 1117.71 22.62 1117.74 24.15H1112.25C1112.47 22.584 1113.59 21.648 1114.97 21.648ZM1119.62 27.048H1117.4C1117.02 27.822 1116.32 28.434 1115.06 28.434C1113.55 28.434 1112.38 27.444 1112.24 25.806H1119.81C1119.87 25.464 1119.89 25.14 1119.89 24.798C1119.89 21.882 1117.89 19.92 1115.06 19.92C1112.13 19.92 1110.11 21.918 1110.11 25.032C1110.11 28.146 1112.22 30.162 1115.06 30.162C1117.49 30.162 1119.06 28.776 1119.62 27.048ZM1123.96 24.78C1123.96 22.674 1124.89 22.044 1126.4 22.044H1126.93V19.92C1125.52 19.92 1124.53 20.532 1123.96 21.522V20.082H1121.9V30H1123.96V24.78Z" fill="#212832"/>
<circle cx="856.415" cy="24.415" r="23.415" fill="#3498DB" stroke="#3498DB"/>
<path d="M845.548 24.9942C845.548 28.9654 846.597 31.9625 850.418 31.9625C854.24 31.9625 855.289 28.9654 855.289 24.9942C855.289 21.0979 854.24 18.1008 850.418 18.1008C846.597 18.1008 845.548 21.0979 845.548 24.9942ZM853.191 24.9942C853.191 27.6729 852.91 30.0144 850.418 30.0144C847.927 30.0144 847.646 27.6729 847.646 24.9942C847.646 22.4466 847.927 20.0489 850.418 20.0489C852.91 20.0489 853.191 22.4466 853.191 24.9942ZM857.511 21.7161H859.59C859.721 20.7608 860.414 19.8616 861.913 19.8616C863.374 19.8616 864.142 20.6484 864.142 21.8285C864.142 23.2896 862.962 23.8515 861.032 23.8703H860.527V25.6311H861.014C863.243 25.6311 864.404 26.2493 864.404 28.0475C864.404 29.3213 863.617 30.2954 862.025 30.2954C860.414 30.2954 859.478 29.3213 859.384 28.0475H857.323C857.454 30.7262 859.459 32.0749 862.044 32.0749C864.891 32.0749 866.427 30.4265 866.427 28.2536C866.427 26.3616 865.509 25.1815 864.086 24.7507V24.6758C865.153 24.3198 866.184 23.2147 866.184 21.585C866.184 19.5994 864.704 18.0259 861.988 18.0259C859.496 18.0259 857.661 19.3558 857.511 21.7161Z" fill="#212832"/>
<defs>
<filter id="filter0_d_953_499" x="23.5312" y="0.531738" width="365.938" height="47.9365" filterUnits="userSpaceOnUse" color-interpolation-filters="sRGB">
<feFlood flood-opacity="0" result="BackgroundImageFix"/>
<feColorMatrix in="SourceAlpha" type="matrix" values="0 0 0 0 0 0 0 0 0 0 0 0 0 0 0 0 0 0 127 0" result="hardAlpha"/>
<feOffset/>
<feComposite in2="hardAlpha" operator="out"/>
<feColorMatrix type="matrix" values="0 0 0 0 0 0 0 0 0 0 0 0 0 0 0 0 0 0 0.1 0"/>
<feBlend mode="normal" in2="BackgroundImageFix" result="effect1_dropShadow_953_499"/>
<feBlend mode="normal" in="SourceGraphic" in2="effect1_dropShadow_953_499" result="shape"/>
</filter>
<filter id="filter1_d_953_499" x="23.5312" y="75.5317" width="365.938" height="47.9365" filterUnits="userSpaceOnUse" color-interpolation-filters="sRGB">
<feFlood flood-opacity="0" result="BackgroundImageFix"/>
<feColorMatrix in="SourceAlpha" type="matrix" values="0 0 0 0 0 0 0 0 0 0 0 0 0 0 0 0 0 0 127 0" result="hardAlpha"/>
<feOffset/>
<feComposite in2="hardAlpha" operator="out"/>
<feColorMatrix type="matrix" values="0 0 0 0 0 0 0 0 0 0 0 0 0 0 0 0 0 0 0.1 0"/>
<feBlend mode="normal" in2="BackgroundImageFix" result="effect1_dropShadow_953_499"/>
<feBlend mode="normal" in="SourceGraphic" in2="effect1_dropShadow_953_499" result="shape"/>
</filter>
<filter id="filter2_d_953_499" x="436.531" y="0.531738" width="365.938" height="47.9365" filterUnits="userSpaceOnUse" color-interpolation-filters="sRGB">
<feFlood flood-opacity="0" result="BackgroundImageFix"/>
<feColorMatrix in="SourceAlpha" type="matrix" values="0 0 0 0 0 0 0 0 0 0 0 0 0 0 0 0 0 0 127 0" result="hardAlpha"/>
<feOffset/>
<feComposite in2="hardAlpha" operator="out"/>
<feColorMatrix type="matrix" values="0 0 0 0 0 0 0 0 0 0 0 0 0 0 0 0 0 0 0.1 0"/>
<feBlend mode="normal" in2="BackgroundImageFix" result="effect1_dropShadow_953_499"/>
<feBlend mode="normal" in="SourceGraphic" in2="effect1_dropShadow_953_499" result="shape"/>
</filter>
<filter id="filter3_d_953_499" x="859.531" y="0.531738" width="365.938" height="47.9365" filterUnits="userSpaceOnUse" color-interpolation-filters="sRGB">
<feFlood flood-opacity="0" result="BackgroundImageFix"/>
<feColorMatrix in="SourceAlpha" type="matrix" values="0 0 0 0 0 0 0 0 0 0 0 0 0 0 0 0 0 0 127 0" result="hardAlpha"/>
<feOffset/>
<feComposite in2="hardAlpha" operator="out"/>
<feColorMatrix type="matrix" values="0 0 0 0 0 0 0 0 0 0 0 0 0 0 0 0 0 0 0.1 0"/>
<feBlend mode="normal" in2="BackgroundImageFix" result="effect1_dropShadow_953_499"/>
<feBlend mode="normal" in="SourceGraphic" in2="effect1_dropShadow_953_499" result="shape"/>
</filter>
</defs>
</svg>
