<svg width="1243" height="123" viewBox="0 0 1243 123" fill="none" xmlns="http://www.w3.org/2000/svg">
<g filter="url(#filter0_d_953_15)">
<rect x="446" y="1" width="374.642" height="46.8302" fill="white" shape-rendering="crispEdges"/>
<rect x="445.766" y="0.765849" width="375.11" height="47.2985" stroke="black" stroke-opacity="0.2" stroke-width="0.468302" shape-rendering="crispEdges"/>
</g>
<path d="M821 1H819V48H821V1Z" fill="#A9CF54" stroke="#A9CF54" stroke-width="0.936604"/>
<path d="M507.543 30H509.595V17.49H507.543V22.854H501.657V17.49H499.605V30H501.657V24.528H507.543V30ZM521.278 20.082H519.226V25.608C519.226 27.426 518.236 28.362 516.724 28.362C515.23 28.362 514.24 27.426 514.24 25.608V20.082H512.206V25.914C512.206 28.686 513.97 30.144 516.292 30.144C517.462 30.144 518.578 29.658 519.226 28.812V30H521.278V20.082ZM538.044 30H540.078V24.15C540.078 21.378 538.314 19.92 535.992 19.92C534.552 19.92 533.148 20.676 532.536 21.882C531.852 20.586 530.538 19.92 528.972 19.92C527.784 19.92 526.704 20.406 526.038 21.216V20.082H523.986V30H526.038V24.456C526.038 22.638 527.028 21.702 528.54 21.702C530.034 21.702 531.024 22.638 531.024 24.456V30H533.058V24.456C533.058 22.638 534.048 21.702 535.56 21.702C537.054 21.702 538.044 22.638 538.044 24.456V30ZM542.005 24.996C542.005 28.056 544.075 30.162 546.649 30.162C548.305 30.162 549.493 29.37 550.123 28.524V30H552.193V20.082H550.123V21.522C549.511 20.712 548.359 19.92 546.685 19.92C544.075 19.92 542.005 21.936 542.005 24.996ZM550.123 25.032C550.123 27.174 548.665 28.38 547.117 28.38C545.587 28.38 544.111 27.138 544.111 24.996C544.111 22.854 545.587 21.702 547.117 21.702C548.665 21.702 550.123 22.908 550.123 25.032ZM561.926 30H563.96V24.15C563.96 21.378 562.214 19.92 559.892 19.92C558.704 19.92 557.606 20.406 556.94 21.216V20.082H554.888V30H556.94V24.456C556.94 22.638 557.93 21.702 559.442 21.702C560.936 21.702 561.926 22.638 561.926 24.456V30ZM570.569 24.996C570.569 28.056 572.639 30.162 575.213 30.162C576.869 30.162 578.057 29.37 578.687 28.524V30H580.757V20.082H578.687V21.522C578.075 20.712 576.923 19.92 575.249 19.92C572.639 19.92 570.569 21.936 570.569 24.996ZM578.687 25.032C578.687 27.174 577.229 28.38 575.681 28.38C574.151 28.38 572.675 27.138 572.675 24.996C572.675 22.854 574.151 21.702 575.681 21.702C577.229 21.702 578.687 22.908 578.687 25.032ZM590.851 27.228C590.743 23.646 585.145 24.762 585.145 22.764C585.145 22.098 585.721 21.648 586.819 21.648C587.935 21.648 588.601 22.242 588.673 23.106H590.725C590.617 21.126 589.141 19.92 586.891 19.92C584.551 19.92 583.075 21.198 583.075 22.782C583.075 26.418 588.835 25.302 588.835 27.246C588.835 27.93 588.205 28.434 587.017 28.434C585.883 28.434 585.109 27.768 585.037 26.958H582.913C583.003 28.758 584.677 30.162 587.053 30.162C589.393 30.162 590.851 28.902 590.851 27.228ZM600.466 27.228C600.358 23.646 594.76 24.762 594.76 22.764C594.76 22.098 595.336 21.648 596.434 21.648C597.55 21.648 598.216 22.242 598.288 23.106H600.34C600.232 21.126 598.756 19.92 596.506 19.92C594.166 19.92 592.69 21.198 592.69 22.782C592.69 26.418 598.45 25.302 598.45 27.246C598.45 27.93 597.82 28.434 596.632 28.434C595.498 28.434 594.724 27.768 594.652 26.958H592.528C592.618 28.758 594.292 30.162 596.668 30.162C599.008 30.162 600.466 28.902 600.466 27.228ZM606.859 21.648C608.389 21.648 609.595 22.62 609.631 24.15H604.141C604.357 22.584 605.473 21.648 606.859 21.648ZM611.503 27.048H609.289C608.911 27.822 608.209 28.434 606.949 28.434C605.437 28.434 604.267 27.444 604.123 25.806H611.701C611.755 25.464 611.773 25.14 611.773 24.798C611.773 21.882 609.775 19.92 606.949 19.92C604.015 19.92 601.999 21.918 601.999 25.032C601.999 28.146 604.105 30.162 606.949 30.162C609.379 30.162 610.945 28.776 611.503 27.048ZM614.116 27.246C614.116 29.262 615.214 30 616.978 30H618.598V28.29H617.338C616.474 28.29 616.186 27.984 616.186 27.246V21.756H618.598V20.082H616.186V17.616H614.116V20.082H612.946V21.756H614.116V27.246ZM627.888 27.228C627.78 23.646 622.182 24.762 622.182 22.764C622.182 22.098 622.758 21.648 623.856 21.648C624.972 21.648 625.638 22.242 625.71 23.106H627.762C627.654 21.126 626.178 19.92 623.928 19.92C621.588 19.92 620.112 21.198 620.112 22.782C620.112 26.418 625.872 25.302 625.872 27.246C625.872 27.93 625.242 28.434 624.054 28.434C622.92 28.434 622.146 27.768 622.074 26.958H619.95C620.04 28.758 621.714 30.162 624.09 30.162C626.43 30.162 627.888 28.902 627.888 27.228ZM634.097 24.996C634.097 28.056 636.167 30.162 638.741 30.162C640.397 30.162 641.585 29.37 642.215 28.524V30H644.285V20.082H642.215V21.522C641.603 20.712 640.451 19.92 638.777 19.92C636.167 19.92 634.097 21.936 634.097 24.996ZM642.215 25.032C642.215 27.174 640.757 28.38 639.209 28.38C637.679 28.38 636.203 27.138 636.203 24.996C636.203 22.854 637.679 21.702 639.209 21.702C640.757 21.702 642.215 22.908 642.215 25.032ZM646.296 24.996C646.296 28.056 648.366 30.162 650.976 30.162C652.596 30.162 653.784 29.406 654.414 28.506V30H656.484V16.68H654.414V21.468C653.658 20.532 652.29 19.92 650.994 19.92C648.366 19.92 646.296 21.936 646.296 24.996ZM654.414 25.032C654.414 27.174 652.956 28.38 651.408 28.38C649.878 28.38 648.402 27.138 648.402 24.996C648.402 22.854 649.878 21.702 651.408 21.702C652.956 21.702 654.414 22.908 654.414 25.032ZM673.237 30H675.271V24.15C675.271 21.378 673.507 19.92 671.185 19.92C669.745 19.92 668.341 20.676 667.729 21.882C667.045 20.586 665.731 19.92 664.165 19.92C662.977 19.92 661.897 20.406 661.231 21.216V20.082H659.179V30H661.231V24.456C661.231 22.638 662.221 21.702 663.733 21.702C665.227 21.702 666.217 22.638 666.217 24.456V30H668.251V24.456C668.251 22.638 669.241 21.702 670.753 21.702C672.247 21.702 673.237 22.638 673.237 24.456V30ZM677.882 30H679.934V20.082H677.882V30ZM678.926 18.768C679.646 18.768 680.222 18.192 680.222 17.454C680.222 16.716 679.646 16.14 678.926 16.14C678.188 16.14 677.612 16.716 677.612 17.454C677.612 18.192 678.188 18.768 678.926 18.768ZM689.666 30H691.7V24.15C691.7 21.378 689.954 19.92 687.632 19.92C686.444 19.92 685.346 20.406 684.68 21.216V20.082H682.628V30H684.68V24.456C684.68 22.638 685.67 21.702 687.182 21.702C688.676 21.702 689.666 22.638 689.666 24.456V30ZM694.318 30H696.37V20.082H694.318V30ZM695.362 18.768C696.082 18.768 696.658 18.192 696.658 17.454C696.658 16.716 696.082 16.14 695.362 16.14C694.624 16.14 694.048 16.716 694.048 17.454C694.048 18.192 694.624 18.768 695.362 18.768ZM706.462 27.228C706.354 23.646 700.756 24.762 700.756 22.764C700.756 22.098 701.332 21.648 702.43 21.648C703.546 21.648 704.212 22.242 704.284 23.106H706.336C706.228 21.126 704.752 19.92 702.502 19.92C700.162 19.92 698.686 21.198 698.686 22.782C698.686 26.418 704.446 25.302 704.446 27.246C704.446 27.93 703.816 28.434 702.628 28.434C701.494 28.434 700.72 27.768 700.648 26.958H698.524C698.614 28.758 700.288 30.162 702.664 30.162C705.004 30.162 706.462 28.902 706.462 27.228ZM709.003 27.246C709.003 29.262 710.101 30 711.865 30H713.485V28.29H712.225C711.361 28.29 711.073 27.984 711.073 27.246V21.756H713.485V20.082H711.073V17.616H709.003V20.082H707.833V21.756H709.003V27.246ZM717.428 24.78C717.428 22.674 718.364 22.044 719.876 22.044H720.398V19.92C718.994 19.92 718.004 20.532 717.428 21.522V20.082H715.376V30H717.428V24.78ZM721.601 24.996C721.601 28.056 723.671 30.162 726.245 30.162C727.901 30.162 729.089 29.37 729.719 28.524V30H731.789V20.082H729.719V21.522C729.107 20.712 727.955 19.92 726.281 19.92C723.671 19.92 721.601 21.936 721.601 24.996ZM729.719 25.032C729.719 27.174 728.261 28.38 726.713 28.38C725.183 28.38 723.707 27.138 723.707 24.996C723.707 22.854 725.183 21.702 726.713 21.702C728.261 21.702 729.719 22.908 729.719 25.032ZM734.808 27.246C734.808 29.262 735.906 30 737.67 30H739.29V28.29H738.03C737.166 28.29 736.878 27.984 736.878 27.246V21.756H739.29V20.082H736.878V17.616H734.808V20.082H733.638V21.756H734.808V27.246ZM741.181 30H743.233V20.082H741.181V30ZM742.225 18.768C742.945 18.768 743.521 18.192 743.521 17.454C743.521 16.716 742.945 16.14 742.225 16.14C741.487 16.14 740.911 16.716 740.911 17.454C740.911 18.192 741.487 18.768 742.225 18.768ZM755.377 25.032C755.377 21.918 753.145 19.92 750.319 19.92C747.493 19.92 745.261 21.918 745.261 25.032C745.261 28.146 747.403 30.162 750.229 30.162C753.073 30.162 755.377 28.146 755.377 25.032ZM747.349 25.032C747.349 22.782 748.735 21.702 750.283 21.702C751.813 21.702 753.271 22.782 753.271 25.032C753.271 27.282 751.759 28.38 750.229 28.38C748.681 28.38 747.349 27.282 747.349 25.032ZM764.444 30H766.478V24.15C766.478 21.378 764.732 19.92 762.41 19.92C761.222 19.92 760.124 20.406 759.458 21.216V20.082H757.406V30H759.458V24.456C759.458 22.638 760.448 21.702 761.96 21.702C763.454 21.702 764.444 22.638 764.444 24.456V30Z" fill="#212832"/>
<g filter="url(#filter1_d_953_15)">
<rect x="867" y="1" width="374.642" height="46.8302" fill="white" shape-rendering="crispEdges"/>
<rect x="866.766" y="0.765849" width="375.11" height="47.2985" stroke="black" stroke-opacity="0.2" stroke-width="0.468302" shape-rendering="crispEdges"/>
</g>
<path d="M1242 1H1240V48H1242V1Z" fill="#D96868" stroke="#D96868" stroke-width="0.936604"/>
<path d="M963.71 26.454C963.71 21.882 957.086 23.646 957.086 20.82C957.086 19.614 958.004 19.038 959.192 19.074C960.488 19.11 961.226 19.884 961.298 20.73H963.566C963.386 18.588 961.694 17.328 959.3 17.328C956.744 17.328 954.998 18.696 954.998 20.892C954.998 25.5 961.64 23.538 961.64 26.562C961.64 27.624 960.83 28.398 959.39 28.398C957.968 28.398 957.248 27.57 957.158 26.544H954.962C954.962 28.758 956.888 30.126 959.39 30.126C962.18 30.126 963.71 28.326 963.71 26.454ZM975.113 20.082H973.061V25.608C973.061 27.426 972.071 28.362 970.559 28.362C969.065 28.362 968.075 27.426 968.075 25.608V20.082H966.041V25.914C966.041 28.686 967.805 30.144 970.127 30.144C971.297 30.144 972.413 29.658 973.061 28.812V30H975.113V20.082ZM979.873 21.54V20.082H977.821V34.716H979.873V28.56C980.521 29.334 981.691 30.162 983.329 30.162C985.939 30.162 987.991 28.056 987.991 24.996C987.991 21.936 985.939 19.92 983.329 19.92C981.709 19.92 980.503 20.712 979.873 21.54ZM985.903 24.996C985.903 27.138 984.427 28.38 982.879 28.38C981.349 28.38 979.873 27.174 979.873 25.032C979.873 22.908 981.349 21.702 982.879 21.702C984.427 21.702 985.903 22.854 985.903 24.996ZM992.072 21.54V20.082H990.02V34.716H992.072V28.56C992.72 29.334 993.89 30.162 995.528 30.162C998.138 30.162 1000.19 28.056 1000.19 24.996C1000.19 21.936 998.138 19.92 995.528 19.92C993.908 19.92 992.702 20.712 992.072 21.54ZM998.102 24.996C998.102 27.138 996.626 28.38 995.078 28.38C993.548 28.38 992.072 27.174 992.072 25.032C992.072 22.908 993.548 21.702 995.078 21.702C996.626 21.702 998.102 22.854 998.102 24.996ZM1002.22 30H1004.27V16.68H1002.22V30ZM1010.87 27.642L1008.08 20.082H1005.8L1009.7 29.838L1007.69 34.662H1009.81L1015.89 20.082H1013.77L1010.87 27.642ZM1021.43 24.996C1021.43 28.056 1023.5 30.162 1026.08 30.162C1027.73 30.162 1028.92 29.37 1029.55 28.524V30H1031.62V20.082H1029.55V21.522C1028.94 20.712 1027.79 19.92 1026.11 19.92C1023.5 19.92 1021.43 21.936 1021.43 24.996ZM1029.55 25.032C1029.55 27.174 1028.09 28.38 1026.55 28.38C1025.02 28.38 1023.54 27.138 1023.54 24.996C1023.54 22.854 1025.02 21.702 1026.55 21.702C1028.09 21.702 1029.55 22.908 1029.55 25.032ZM1033.63 24.996C1033.63 28.056 1035.7 30.162 1038.31 30.162C1039.93 30.162 1041.12 29.406 1041.75 28.506V30H1043.82V16.68H1041.75V21.468C1040.99 20.532 1039.63 19.92 1038.33 19.92C1035.7 19.92 1033.63 21.936 1033.63 24.996ZM1041.75 25.032C1041.75 27.174 1040.29 28.38 1038.74 28.38C1037.21 28.38 1035.74 27.138 1035.74 24.996C1035.74 22.854 1037.21 21.702 1038.74 21.702C1040.29 21.702 1041.75 22.908 1041.75 25.032ZM1060.57 30H1062.61V24.15C1062.61 21.378 1060.84 19.92 1058.52 19.92C1057.08 19.92 1055.68 20.676 1055.07 21.882C1054.38 20.586 1053.07 19.92 1051.5 19.92C1050.31 19.92 1049.23 20.406 1048.57 21.216V20.082H1046.52V30H1048.57V24.456C1048.57 22.638 1049.56 21.702 1051.07 21.702C1052.56 21.702 1053.55 22.638 1053.55 24.456V30H1055.59V24.456C1055.59 22.638 1056.58 21.702 1058.09 21.702C1059.58 21.702 1060.57 22.638 1060.57 24.456V30ZM1065.22 30H1067.27V20.082H1065.22V30ZM1066.26 18.768C1066.98 18.768 1067.56 18.192 1067.56 17.454C1067.56 16.716 1066.98 16.14 1066.26 16.14C1065.53 16.14 1064.95 16.716 1064.95 17.454C1064.95 18.192 1065.53 18.768 1066.26 18.768ZM1077 30H1079.04V24.15C1079.04 21.378 1077.29 19.92 1074.97 19.92C1073.78 19.92 1072.68 20.406 1072.02 21.216V20.082H1069.97V30H1072.02V24.456C1072.02 22.638 1073.01 21.702 1074.52 21.702C1076.01 21.702 1077 22.638 1077 24.456V30ZM1081.65 30H1083.71V20.082H1081.65V30ZM1082.7 18.768C1083.42 18.768 1083.99 18.192 1083.99 17.454C1083.99 16.716 1083.42 16.14 1082.7 16.14C1081.96 16.14 1081.38 16.716 1081.38 17.454C1081.38 18.192 1081.96 18.768 1082.7 18.768ZM1093.8 27.228C1093.69 23.646 1088.09 24.762 1088.09 22.764C1088.09 22.098 1088.67 21.648 1089.77 21.648C1090.88 21.648 1091.55 22.242 1091.62 23.106H1093.67C1093.56 21.126 1092.09 19.92 1089.84 19.92C1087.5 19.92 1086.02 21.198 1086.02 22.782C1086.02 26.418 1091.78 25.302 1091.78 27.246C1091.78 27.93 1091.15 28.434 1089.96 28.434C1088.83 28.434 1088.06 27.768 1087.98 26.958H1085.86C1085.95 28.758 1087.62 30.162 1090 30.162C1092.34 30.162 1093.8 28.902 1093.8 27.228ZM1096.34 27.246C1096.34 29.262 1097.44 30 1099.2 30H1100.82V28.29H1099.56C1098.7 28.29 1098.41 27.984 1098.41 27.246V21.756H1100.82V20.082H1098.41V17.616H1096.34V20.082H1095.17V21.756H1096.34V27.246ZM1104.77 24.78C1104.77 22.674 1105.7 22.044 1107.21 22.044H1107.74V19.92C1106.33 19.92 1105.34 20.532 1104.77 21.522V20.082H1102.71V30H1104.77V24.78ZM1108.94 24.996C1108.94 28.056 1111.01 30.162 1113.58 30.162C1115.24 30.162 1116.43 29.37 1117.06 28.524V30H1119.13V20.082H1117.06V21.522C1116.44 20.712 1115.29 19.92 1113.62 19.92C1111.01 19.92 1108.94 21.936 1108.94 24.996ZM1117.06 25.032C1117.06 27.174 1115.6 28.38 1114.05 28.38C1112.52 28.38 1111.04 27.138 1111.04 24.996C1111.04 22.854 1112.52 21.702 1114.05 21.702C1115.6 21.702 1117.06 22.908 1117.06 25.032ZM1122.14 27.246C1122.14 29.262 1123.24 30 1125.01 30H1126.63V28.29H1125.37C1124.5 28.29 1124.21 27.984 1124.21 27.246V21.756H1126.63V20.082H1124.21V17.616H1122.14V20.082H1120.97V21.756H1122.14V27.246ZM1128.52 30H1130.57V20.082H1128.52V30ZM1129.56 18.768C1130.28 18.768 1130.86 18.192 1130.86 17.454C1130.86 16.716 1130.28 16.14 1129.56 16.14C1128.82 16.14 1128.25 16.716 1128.25 17.454C1128.25 18.192 1128.82 18.768 1129.56 18.768ZM1142.71 25.032C1142.71 21.918 1140.48 19.92 1137.66 19.92C1134.83 19.92 1132.6 21.918 1132.6 25.032C1132.6 28.146 1134.74 30.162 1137.57 30.162C1140.41 30.162 1142.71 28.146 1142.71 25.032ZM1134.69 25.032C1134.69 22.782 1136.07 21.702 1137.62 21.702C1139.15 21.702 1140.61 22.782 1140.61 25.032C1140.61 27.282 1139.1 28.38 1137.57 28.38C1136.02 28.38 1134.69 27.282 1134.69 25.032ZM1151.78 30H1153.81V24.15C1153.81 21.378 1152.07 19.92 1149.75 19.92C1148.56 19.92 1147.46 20.406 1146.79 21.216V20.082H1144.74V30H1146.79V24.456C1146.79 22.638 1147.78 21.702 1149.3 21.702C1150.79 21.702 1151.78 22.638 1151.78 24.456V30Z" fill="#212832"/>
<g filter="url(#filter2_d_953_15)">
<rect x="24" y="1" width="374.642" height="46.8302" fill="white" shape-rendering="crispEdges"/>
<rect x="23.7658" y="0.765849" width="375.11" height="47.2985" stroke="black" stroke-opacity="0.2" stroke-width="0.468302" shape-rendering="crispEdges"/>
</g>
<path d="M116.653 26.418C116.653 27.624 115.807 28.326 114.421 28.326H111.649V24.42H114.349C115.717 24.42 116.653 25.176 116.653 26.418ZM116.329 20.964C116.329 22.116 115.519 22.746 114.187 22.746H111.649V19.164H114.187C115.519 19.164 116.329 19.83 116.329 20.964ZM118.705 26.634C118.705 25.14 117.625 23.808 116.293 23.574C117.499 23.142 118.417 22.224 118.417 20.712C118.417 18.948 117.013 17.49 114.367 17.49H109.597V30H114.601C117.157 30 118.705 28.542 118.705 26.634ZM129.917 20.082H127.865V25.608C127.865 27.426 126.875 28.362 125.363 28.362C123.869 28.362 122.879 27.426 122.879 25.608V20.082H120.845V25.914C120.845 28.686 122.609 30.144 124.931 30.144C126.101 30.144 127.217 29.658 127.865 28.812V30H129.917V20.082ZM140.022 27.228C139.914 23.646 134.316 24.762 134.316 22.764C134.316 22.098 134.892 21.648 135.99 21.648C137.106 21.648 137.772 22.242 137.844 23.106H139.896C139.788 21.126 138.312 19.92 136.062 19.92C133.722 19.92 132.246 21.198 132.246 22.782C132.246 26.418 138.006 25.302 138.006 27.246C138.006 27.93 137.376 28.434 136.188 28.434C135.054 28.434 134.28 27.768 134.208 26.958H132.084C132.174 28.758 133.848 30.162 136.224 30.162C138.564 30.162 140.022 28.902 140.022 27.228ZM142.24 30H144.292V20.082H142.24V30ZM143.284 18.768C144.004 18.768 144.58 18.192 144.58 17.454C144.58 16.716 144.004 16.14 143.284 16.14C142.546 16.14 141.97 16.716 141.97 17.454C141.97 18.192 142.546 18.768 143.284 18.768ZM154.024 30H156.058V24.15C156.058 21.378 154.312 19.92 151.99 19.92C150.802 19.92 149.704 20.406 149.038 21.216V20.082H146.986V30H149.038V24.456C149.038 22.638 150.028 21.702 151.54 21.702C153.034 21.702 154.024 22.638 154.024 24.456V30ZM162.851 21.648C164.381 21.648 165.587 22.62 165.623 24.15H160.133C160.349 22.584 161.465 21.648 162.851 21.648ZM167.495 27.048H165.281C164.903 27.822 164.201 28.434 162.941 28.434C161.429 28.434 160.259 27.444 160.115 25.806H167.693C167.747 25.464 167.765 25.14 167.765 24.798C167.765 21.882 165.767 19.92 162.941 19.92C160.007 19.92 157.991 21.918 157.991 25.032C157.991 28.146 160.097 30.162 162.941 30.162C165.371 30.162 166.937 28.776 167.495 27.048ZM177.183 27.228C177.075 23.646 171.477 24.762 171.477 22.764C171.477 22.098 172.053 21.648 173.151 21.648C174.267 21.648 174.933 22.242 175.005 23.106H177.057C176.949 21.126 175.473 19.92 173.223 19.92C170.883 19.92 169.407 21.198 169.407 22.782C169.407 26.418 175.167 25.302 175.167 27.246C175.167 27.93 174.537 28.434 173.349 28.434C172.215 28.434 171.441 27.768 171.369 26.958H169.245C169.335 28.758 171.009 30.162 173.385 30.162C175.725 30.162 177.183 28.902 177.183 27.228ZM186.798 27.228C186.69 23.646 181.092 24.762 181.092 22.764C181.092 22.098 181.668 21.648 182.766 21.648C183.882 21.648 184.548 22.242 184.62 23.106H186.672C186.564 21.126 185.088 19.92 182.838 19.92C180.498 19.92 179.022 21.198 179.022 22.782C179.022 26.418 184.782 25.302 184.782 27.246C184.782 27.93 184.152 28.434 182.964 28.434C181.83 28.434 181.056 27.768 180.984 26.958H178.86C178.95 28.758 180.624 30.162 183 30.162C185.34 30.162 186.798 28.902 186.798 27.228ZM193.007 24.996C193.007 28.056 195.077 30.162 197.687 30.162C199.307 30.162 200.495 29.406 201.125 28.506V30H203.195V16.68H201.125V21.468C200.369 20.532 199.001 19.92 197.705 19.92C195.077 19.92 193.007 21.936 193.007 24.996ZM201.125 25.032C201.125 27.174 199.667 28.38 198.119 28.38C196.589 28.38 195.113 27.138 195.113 24.996C195.113 22.854 196.589 21.702 198.119 21.702C199.667 21.702 201.125 22.908 201.125 25.032ZM210.066 21.648C211.596 21.648 212.802 22.62 212.838 24.15H207.348C207.564 22.584 208.68 21.648 210.066 21.648ZM214.71 27.048H212.496C212.118 27.822 211.416 28.434 210.156 28.434C208.644 28.434 207.474 27.444 207.33 25.806H214.908C214.962 25.464 214.98 25.14 214.98 24.798C214.98 21.882 212.982 19.92 210.156 19.92C207.222 19.92 205.206 21.918 205.206 25.032C205.206 28.146 207.312 30.162 210.156 30.162C212.586 30.162 214.152 28.776 214.71 27.048ZM215.829 20.082L219.591 30H222.039L225.819 20.082H223.641L220.833 28.164L218.025 20.082H215.829ZM231.547 21.648C233.077 21.648 234.283 22.62 234.319 24.15H228.829C229.045 22.584 230.161 21.648 231.547 21.648ZM236.191 27.048H233.977C233.599 27.822 232.897 28.434 231.637 28.434C230.125 28.434 228.955 27.444 228.811 25.806H236.389C236.443 25.464 236.461 25.14 236.461 24.798C236.461 21.882 234.463 19.92 231.637 19.92C228.703 19.92 226.687 21.918 226.687 25.032C226.687 28.146 228.793 30.162 231.637 30.162C234.067 30.162 235.633 28.776 236.191 27.048ZM238.48 30H240.532V16.68H238.48V30ZM252.676 25.032C252.676 21.918 250.444 19.92 247.618 19.92C244.792 19.92 242.56 21.918 242.56 25.032C242.56 28.146 244.702 30.162 247.528 30.162C250.372 30.162 252.676 28.146 252.676 25.032ZM244.648 25.032C244.648 22.782 246.034 21.702 247.582 21.702C249.112 21.702 250.57 22.782 250.57 25.032C250.57 27.282 249.058 28.38 247.528 28.38C245.98 28.38 244.648 27.282 244.648 25.032ZM256.756 21.54V20.082H254.704V34.716H256.756V28.56C257.404 29.334 258.574 30.162 260.212 30.162C262.822 30.162 264.874 28.056 264.874 24.996C264.874 21.936 262.822 19.92 260.212 19.92C258.592 19.92 257.386 20.712 256.756 21.54ZM262.786 24.996C262.786 27.138 261.31 28.38 259.762 28.38C258.232 28.38 256.756 27.174 256.756 25.032C256.756 22.908 258.232 21.702 259.762 21.702C261.31 21.702 262.786 22.854 262.786 24.996ZM280.962 30H282.996V24.15C282.996 21.378 281.232 19.92 278.91 19.92C277.47 19.92 276.066 20.676 275.454 21.882C274.77 20.586 273.456 19.92 271.89 19.92C270.702 19.92 269.622 20.406 268.956 21.216V20.082H266.904V30H268.956V24.456C268.956 22.638 269.946 21.702 271.458 21.702C272.952 21.702 273.942 22.638 273.942 24.456V30H275.976V24.456C275.976 22.638 276.966 21.702 278.478 21.702C279.972 21.702 280.962 22.638 280.962 24.456V30ZM289.783 21.648C291.313 21.648 292.519 22.62 292.555 24.15H287.065C287.281 22.584 288.397 21.648 289.783 21.648ZM294.427 27.048H292.213C291.835 27.822 291.133 28.434 289.873 28.434C288.361 28.434 287.191 27.444 287.047 25.806H294.625C294.679 25.464 294.697 25.14 294.697 24.798C294.697 21.882 292.699 19.92 289.873 19.92C286.939 19.92 284.923 21.918 284.923 25.032C284.923 28.146 287.029 30.162 289.873 30.162C292.303 30.162 293.869 28.776 294.427 27.048ZM303.754 30H305.788V24.15C305.788 21.378 304.042 19.92 301.72 19.92C300.532 19.92 299.434 20.406 298.768 21.216V20.082H296.716V30H298.768V24.456C298.768 22.638 299.758 21.702 301.27 21.702C302.764 21.702 303.754 22.638 303.754 24.456V30ZM308.73 27.246C308.73 29.262 309.828 30 311.592 30H313.212V28.29H311.952C311.088 28.29 310.8 27.984 310.8 27.246V21.756H313.212V20.082H310.8V17.616H308.73V20.082H307.56V21.756H308.73V27.246Z" fill="#212832"/>
<path d="M399 1H397V48H399V1Z" fill="#946FB0" stroke="#946FB0" stroke-width="0.936604"/>
<g filter="url(#filter3_d_953_15)">
<rect x="24" y="75" width="375" height="47" fill="white" shape-rendering="crispEdges"/>
<rect x="23.7658" y="74.7658" width="375.468" height="47.4683" stroke="black" stroke-opacity="0.2" stroke-width="0.468302" shape-rendering="crispEdges"/>
</g>
<path d="M70.2495 92.49H66.1635V105H70.2495C74.2635 105 76.8915 102.642 76.8915 98.79C76.8915 94.92 74.2635 92.49 70.2495 92.49ZM68.2155 103.326V94.164H70.2495C73.2015 94.164 74.7855 95.928 74.7855 98.79C74.7855 101.634 73.2015 103.326 70.2495 103.326H68.2155ZM78.2412 99.996C78.2412 103.056 80.3112 105.162 82.8852 105.162C84.5412 105.162 85.7292 104.37 86.3592 103.524V105H88.4292V95.082H86.3592V96.522C85.7472 95.712 84.5952 94.92 82.9212 94.92C80.3112 94.92 78.2412 96.936 78.2412 99.996ZM86.3592 100.032C86.3592 102.174 84.9012 103.38 83.3532 103.38C81.8232 103.38 80.3472 102.138 80.3472 99.996C80.3472 97.854 81.8232 96.702 83.3532 96.702C84.9012 96.702 86.3592 97.908 86.3592 100.032ZM91.4484 102.246C91.4484 104.262 92.5464 105 94.3104 105H95.9304V103.29H94.6704C93.8064 103.29 93.5184 102.984 93.5184 102.246V96.756H95.9304V95.082H93.5184V92.616H91.4484V95.082H90.2784V96.756H91.4484V102.246ZM97.1377 99.996C97.1377 103.056 99.2077 105.162 101.782 105.162C103.438 105.162 104.626 104.37 105.256 103.524V105H107.326V95.082H105.256V96.522C104.644 95.712 103.492 94.92 101.818 94.92C99.2077 94.92 97.1377 96.936 97.1377 99.996ZM105.256 100.032C105.256 102.174 103.798 103.38 102.25 103.38C100.72 103.38 99.2437 102.138 99.2437 99.996C99.2437 97.854 100.72 96.702 102.25 96.702C103.798 96.702 105.256 97.908 105.256 100.032ZM122.653 95.28C122.779 93.57 121.609 92.202 119.431 92.202C117.289 92.202 115.957 93.444 115.957 95.082C115.957 95.964 116.209 96.63 116.911 97.476C114.931 98.286 113.977 99.708 113.977 101.4C113.977 103.74 115.777 105.234 118.477 105.234C120.223 105.234 121.609 104.658 122.815 103.452L124.363 105H127.045L124.003 101.976C124.147 101.742 124.309 101.49 124.453 101.238L126.073 98.466H123.859L122.581 100.572L119.269 97.278C118.387 96.324 118.009 95.766 118.009 95.082C118.009 94.416 118.531 93.876 119.341 93.876C120.115 93.876 120.637 94.362 120.601 95.28H122.653ZM118.477 103.488C117.001 103.488 116.029 102.534 116.029 101.328C116.029 100.212 116.695 99.348 118.153 98.772L121.465 102.102C120.601 103.02 119.647 103.488 118.477 103.488ZM132.382 99.996C132.382 103.056 134.452 105.162 137.026 105.162C138.682 105.162 139.87 104.37 140.5 103.524V105H142.57V95.082H140.5V96.522C139.888 95.712 138.736 94.92 137.062 94.92C134.452 94.92 132.382 96.936 132.382 99.996ZM140.5 100.032C140.5 102.174 139.042 103.38 137.494 103.38C135.964 103.38 134.488 102.138 134.488 99.996C134.488 97.854 135.964 96.702 137.494 96.702C139.042 96.702 140.5 97.908 140.5 100.032ZM144.581 99.996C144.581 103.056 146.651 105.162 149.261 105.162C150.881 105.162 152.069 104.406 152.699 103.506V105H154.769V91.68H152.699V96.468C151.943 95.532 150.575 94.92 149.279 94.92C146.651 94.92 144.581 96.936 144.581 99.996ZM152.699 100.032C152.699 102.174 151.241 103.38 149.693 103.38C148.163 103.38 146.687 102.138 146.687 99.996C146.687 97.854 148.163 96.702 149.693 96.702C151.241 96.702 152.699 97.908 152.699 100.032ZM156.294 95.082L160.056 105H162.504L166.284 95.082H164.106L161.298 103.164L158.49 95.082H156.294ZM172.011 96.648C173.541 96.648 174.747 97.62 174.783 99.15H169.293C169.509 97.584 170.625 96.648 172.011 96.648ZM176.655 102.048H174.441C174.063 102.822 173.361 103.434 172.101 103.434C170.589 103.434 169.419 102.444 169.275 100.806H176.853C176.907 100.464 176.925 100.14 176.925 99.798C176.925 96.882 174.927 94.92 172.101 94.92C169.167 94.92 167.151 96.918 167.151 100.032C167.151 103.146 169.257 105.162 172.101 105.162C174.531 105.162 176.097 103.776 176.655 102.048ZM180.997 99.78C180.997 97.674 181.933 97.044 183.445 97.044H183.967V94.92C182.563 94.92 181.573 95.532 180.997 96.522V95.082H178.945V105H180.997V99.78ZM186.177 102.246C186.177 104.262 187.275 105 189.039 105H190.659V103.29H189.399C188.535 103.29 188.247 102.984 188.247 102.246V96.756H190.659V95.082H188.247V92.616H186.177V95.082H185.007V96.756H186.177V102.246ZM192.55 105H194.602V95.082H192.55V105ZM193.594 93.768C194.314 93.768 194.89 93.192 194.89 92.454C194.89 91.716 194.314 91.14 193.594 91.14C192.856 91.14 192.28 91.716 192.28 92.454C192.28 93.192 192.856 93.768 193.594 93.768ZM204.694 102.228C204.586 98.646 198.988 99.762 198.988 97.764C198.988 97.098 199.564 96.648 200.662 96.648C201.778 96.648 202.444 97.242 202.516 98.106H204.568C204.46 96.126 202.984 94.92 200.734 94.92C198.394 94.92 196.918 96.198 196.918 97.782C196.918 101.418 202.678 100.302 202.678 102.246C202.678 102.93 202.048 103.434 200.86 103.434C199.726 103.434 198.952 102.768 198.88 101.958H196.756C196.846 103.758 198.52 105.162 200.896 105.162C203.236 105.162 204.694 103.902 204.694 102.228ZM206.912 105H208.964V95.082H206.912V105ZM207.956 93.768C208.676 93.768 209.252 93.192 209.252 92.454C209.252 91.716 208.676 91.14 207.956 91.14C207.218 91.14 206.642 91.716 206.642 92.454C206.642 93.192 207.218 93.768 207.956 93.768ZM218.696 105H220.73V99.15C220.73 96.378 218.984 94.92 216.662 94.92C215.474 94.92 214.376 95.406 213.71 96.216V95.082H211.658V105H213.71V99.456C213.71 97.638 214.7 96.702 216.212 96.702C217.706 96.702 218.696 97.638 218.696 99.456V105ZM222.663 99.996C222.663 103.056 224.733 105.162 227.343 105.162C228.963 105.162 230.151 104.352 230.781 103.506V105.162C230.781 107.142 229.593 108.114 228.009 108.114C226.587 108.114 225.489 107.412 225.183 106.386H223.149C223.401 108.582 225.363 109.896 228.009 109.896C231.105 109.896 232.851 107.862 232.851 105.162V95.082H230.781V96.522C230.169 95.676 228.963 94.92 227.343 94.92C224.733 94.92 222.663 96.936 222.663 99.996ZM230.781 100.032C230.781 102.174 229.323 103.38 227.775 103.38C226.245 103.38 224.769 102.138 224.769 99.996C224.769 97.854 226.245 96.702 227.775 96.702C229.323 96.702 230.781 97.908 230.781 100.032ZM239.538 99.996C239.538 103.056 241.608 105.162 244.182 105.162C245.838 105.162 247.026 104.37 247.656 103.524V105H249.726V95.082H247.656V96.522C247.044 95.712 245.892 94.92 244.218 94.92C241.608 94.92 239.538 96.936 239.538 99.996ZM247.656 100.032C247.656 102.174 246.198 103.38 244.65 103.38C243.12 103.38 241.644 102.138 241.644 99.996C241.644 97.854 243.12 96.702 244.65 96.702C246.198 96.702 247.656 97.908 247.656 100.032ZM251.737 99.996C251.737 103.056 253.807 105.162 256.417 105.162C258.037 105.162 259.225 104.406 259.855 103.506V105H261.925V91.68H259.855V96.468C259.099 95.532 257.731 94.92 256.435 94.92C253.807 94.92 251.737 96.936 251.737 99.996ZM259.855 100.032C259.855 102.174 258.397 103.38 256.849 103.38C255.319 103.38 253.843 102.138 253.843 99.996C253.843 97.854 255.319 96.702 256.849 96.702C258.397 96.702 259.855 97.908 259.855 100.032ZM278.679 105H280.713V99.15C280.713 96.378 278.949 94.92 276.627 94.92C275.187 94.92 273.783 95.676 273.171 96.882C272.487 95.586 271.173 94.92 269.607 94.92C268.419 94.92 267.339 95.406 266.673 96.216V95.082H264.621V105H266.673V99.456C266.673 97.638 267.663 96.702 269.175 96.702C270.669 96.702 271.659 97.638 271.659 99.456V105H273.693V99.456C273.693 97.638 274.683 96.702 276.195 96.702C277.689 96.702 278.679 97.638 278.679 99.456V105ZM283.324 105H285.376V95.082H283.324V105ZM284.368 93.768C285.088 93.768 285.664 93.192 285.664 92.454C285.664 91.716 285.088 91.14 284.368 91.14C283.63 91.14 283.054 91.716 283.054 92.454C283.054 93.192 283.63 93.768 284.368 93.768ZM295.108 105H297.142V99.15C297.142 96.378 295.396 94.92 293.074 94.92C291.886 94.92 290.788 95.406 290.122 96.216V95.082H288.07V105H290.122V99.456C290.122 97.638 291.112 96.702 292.624 96.702C294.118 96.702 295.108 97.638 295.108 99.456V105ZM299.759 105H301.811V95.082H299.759V105ZM300.803 93.768C301.523 93.768 302.099 93.192 302.099 92.454C302.099 91.716 301.523 91.14 300.803 91.14C300.065 91.14 299.489 91.716 299.489 92.454C299.489 93.192 300.065 93.768 300.803 93.768ZM311.903 102.228C311.795 98.646 306.197 99.762 306.197 97.764C306.197 97.098 306.773 96.648 307.871 96.648C308.987 96.648 309.653 97.242 309.725 98.106H311.777C311.669 96.126 310.193 94.92 307.943 94.92C305.603 94.92 304.127 96.198 304.127 97.782C304.127 101.418 309.887 100.302 309.887 102.246C309.887 102.93 309.257 103.434 308.069 103.434C306.935 103.434 306.161 102.768 306.089 101.958H303.965C304.055 103.758 305.729 105.162 308.105 105.162C310.445 105.162 311.903 103.902 311.903 102.228ZM314.445 102.246C314.445 104.262 315.543 105 317.307 105H318.927V103.29H317.667C316.803 103.29 316.515 102.984 316.515 102.246V96.756H318.927V95.082H316.515V92.616H314.445V95.082H313.275V96.756H314.445V102.246ZM322.87 99.78C322.87 97.674 323.806 97.044 325.318 97.044H325.84V94.92C324.436 94.92 323.446 95.532 322.87 96.522V95.082H320.818V105H322.87V99.78ZM327.042 99.996C327.042 103.056 329.112 105.162 331.686 105.162C333.342 105.162 334.53 104.37 335.16 103.524V105H337.23V95.082H335.16V96.522C334.548 95.712 333.396 94.92 331.722 94.92C329.112 94.92 327.042 96.936 327.042 99.996ZM335.16 100.032C335.16 102.174 333.702 103.38 332.154 103.38C330.624 103.38 329.148 102.138 329.148 99.996C329.148 97.854 330.624 96.702 332.154 96.702C333.702 96.702 335.16 97.908 335.16 100.032ZM340.249 102.246C340.249 104.262 341.347 105 343.111 105H344.731V103.29H343.471C342.607 103.29 342.319 102.984 342.319 102.246V96.756H344.731V95.082H342.319V92.616H340.249V95.082H339.079V96.756H340.249V102.246ZM346.622 105H348.674V95.082H346.622V105ZM347.666 93.768C348.386 93.768 348.962 93.192 348.962 92.454C348.962 91.716 348.386 91.14 347.666 91.14C346.928 91.14 346.352 91.716 346.352 92.454C346.352 93.192 346.928 93.768 347.666 93.768ZM360.819 100.032C360.819 96.918 358.587 94.92 355.761 94.92C352.935 94.92 350.703 96.918 350.703 100.032C350.703 103.146 352.845 105.162 355.671 105.162C358.515 105.162 360.819 103.146 360.819 100.032ZM352.791 100.032C352.791 97.782 354.177 96.702 355.725 96.702C357.255 96.702 358.713 97.782 358.713 100.032C358.713 102.282 357.201 103.38 355.671 103.38C354.123 103.38 352.791 102.282 352.791 100.032ZM369.885 105H371.919V99.15C371.919 96.378 370.173 94.92 367.851 94.92C366.663 94.92 365.565 95.406 364.899 96.216V95.082H362.847V105H364.899V99.456C364.899 97.638 365.889 96.702 367.401 96.702C368.895 96.702 369.885 97.638 369.885 99.456V105Z" fill="#212832"/>
<path d="M399 75H397V122H399V75Z" fill="#CF1C54" stroke="#CF1C54" stroke-width="0.936604"/>
<circle cx="24.4151" cy="24.4151" r="23.4151" fill="#946FB0" stroke="#946FB0"/>
<circle cx="445.888" cy="24.4151" r="23.4151" fill="#A9CF54" stroke="#A9CF54"/>
<circle cx="867.36" cy="24.4151" r="23.4151" fill="#D96868" stroke="#D96868"/>
<circle cx="24.4151" cy="98.8506" r="23.4151" fill="#E9336C" stroke="#E9336C"/>
<path d="M16.2662 24.17C16.2662 28.1412 17.3152 31.1383 21.1365 31.1383C24.9579 31.1383 26.0069 28.1412 26.0069 24.17C26.0069 20.2737 24.9579 17.2766 21.1365 17.2766C17.3152 17.2766 16.2662 20.2737 16.2662 24.17ZM23.9089 24.17C23.9089 26.8487 23.6279 29.1902 21.1365 29.1902C18.6451 29.1902 18.3642 26.8487 18.3642 24.17C18.3642 21.6224 18.6451 19.2247 21.1365 19.2247C23.6279 19.2247 23.9089 21.6224 23.9089 24.17ZM29.7275 31.1758H31.8817V17.5201H27.9854V19.4682H29.7275V31.1758Z" fill="#212832"/>
<path d="M13.4738 98.6055C13.4738 102.577 14.5228 105.574 18.3441 105.574C22.1655 105.574 23.2145 102.577 23.2145 98.6055C23.2145 94.7093 22.1655 91.7121 18.3441 91.7121C14.5228 91.7121 13.4738 94.7093 13.4738 98.6055ZM21.1165 98.6055C21.1165 101.284 20.8355 103.626 18.3441 103.626C15.8528 103.626 15.5718 101.284 15.5718 98.6055C15.5718 96.058 15.8528 93.6603 18.3441 93.6603C20.8355 93.6603 21.1165 96.058 21.1165 98.6055ZM31.9928 105.611H34.0908V102.764H35.8329V100.91H34.0908V92.1242H31.5058L25.2118 101.153V102.764H31.9928V105.611ZM27.6657 100.91L32.0865 94.2972V100.91H27.6657Z" fill="#212832"/>
<path d="M435.605 24.17C435.605 28.1412 436.654 31.1383 440.475 31.1383C444.297 31.1383 445.346 28.1412 445.346 24.17C445.346 20.2737 444.297 17.2766 440.475 17.2766C436.654 17.2766 435.605 20.2737 435.605 24.17ZM443.248 24.17C443.248 26.8487 442.967 29.1902 440.475 29.1902C437.984 29.1902 437.703 26.8487 437.703 24.17C437.703 21.6224 437.984 19.2247 440.475 19.2247C442.967 19.2247 443.248 21.6224 443.248 24.17ZM447.437 30.9885H456.54V29.2089H450.602C452.794 27.2046 456.166 24.6758 456.166 21.3602C456.166 18.9063 454.592 17.2391 451.82 17.2391C449.404 17.2391 447.493 18.6815 447.418 21.6412H449.478C449.535 20.1051 450.34 19.0561 451.839 19.0561C453.431 19.0561 454.049 20.0302 454.049 21.4538C454.049 24.1325 450.659 26.6052 447.437 29.4337V30.9885Z" fill="#212832"/>
<path d="M856.454 24.17C856.454 28.1412 857.503 31.1383 861.324 31.1383C865.146 31.1383 866.195 28.1412 866.195 24.17C866.195 20.2737 865.146 17.2766 861.324 17.2766C857.503 17.2766 856.454 20.2737 856.454 24.17ZM864.097 24.17C864.097 26.8487 863.816 29.1902 861.324 29.1902C858.833 29.1902 858.552 26.8487 858.552 24.17C858.552 21.6224 858.833 19.2247 861.324 19.2247C863.816 19.2247 864.097 21.6224 864.097 24.17ZM868.417 20.8919H870.496C870.627 19.9365 871.32 19.0374 872.819 19.0374C874.28 19.0374 875.048 19.8241 875.048 21.0043C875.048 22.4654 873.868 23.0273 871.938 23.0461H871.432V24.8069H871.92C874.149 24.8069 875.31 25.425 875.31 27.2233C875.31 28.4971 874.523 29.4712 872.931 29.4712C871.32 29.4712 870.384 28.4971 870.29 27.2233H868.229C868.36 29.902 870.365 31.2507 872.95 31.2507C875.797 31.2507 877.333 29.6023 877.333 27.4294C877.333 25.5374 876.415 24.3573 874.992 23.9265V23.8515C876.059 23.4956 877.09 22.3904 877.09 20.7607C877.09 18.7751 875.61 17.2017 872.894 17.2017C870.402 17.2017 868.566 18.5316 868.417 20.8919Z" fill="#212832"/>
<defs>
<filter id="filter0_d_953_15" x="445.531" y="0.531738" width="375.578" height="47.7668" filterUnits="userSpaceOnUse" color-interpolation-filters="sRGB">
<feFlood flood-opacity="0" result="BackgroundImageFix"/>
<feColorMatrix in="SourceAlpha" type="matrix" values="0 0 0 0 0 0 0 0 0 0 0 0 0 0 0 0 0 0 127 0" result="hardAlpha"/>
<feOffset/>
<feComposite in2="hardAlpha" operator="out"/>
<feColorMatrix type="matrix" values="0 0 0 0 0 0 0 0 0 0 0 0 0 0 0 0 0 0 0.1 0"/>
<feBlend mode="normal" in2="BackgroundImageFix" result="effect1_dropShadow_953_15"/>
<feBlend mode="normal" in="SourceGraphic" in2="effect1_dropShadow_953_15" result="shape"/>
</filter>
<filter id="filter1_d_953_15" x="866.531" y="0.531738" width="375.578" height="47.7668" filterUnits="userSpaceOnUse" color-interpolation-filters="sRGB">
<feFlood flood-opacity="0" result="BackgroundImageFix"/>
<feColorMatrix in="SourceAlpha" type="matrix" values="0 0 0 0 0 0 0 0 0 0 0 0 0 0 0 0 0 0 127 0" result="hardAlpha"/>
<feOffset/>
<feComposite in2="hardAlpha" operator="out"/>
<feColorMatrix type="matrix" values="0 0 0 0 0 0 0 0 0 0 0 0 0 0 0 0 0 0 0.1 0"/>
<feBlend mode="normal" in2="BackgroundImageFix" result="effect1_dropShadow_953_15"/>
<feBlend mode="normal" in="SourceGraphic" in2="effect1_dropShadow_953_15" result="shape"/>
</filter>
<filter id="filter2_d_953_15" x="23.5312" y="0.531738" width="375.578" height="47.7668" filterUnits="userSpaceOnUse" color-interpolation-filters="sRGB">
<feFlood flood-opacity="0" result="BackgroundImageFix"/>
<feColorMatrix in="SourceAlpha" type="matrix" values="0 0 0 0 0 0 0 0 0 0 0 0 0 0 0 0 0 0 127 0" result="hardAlpha"/>
<feOffset/>
<feComposite in2="hardAlpha" operator="out"/>
<feColorMatrix type="matrix" values="0 0 0 0 0 0 0 0 0 0 0 0 0 0 0 0 0 0 0.1 0"/>
<feBlend mode="normal" in2="BackgroundImageFix" result="effect1_dropShadow_953_15"/>
<feBlend mode="normal" in="SourceGraphic" in2="effect1_dropShadow_953_15" result="shape"/>
</filter>
<filter id="filter3_d_953_15" x="23.5312" y="74.5317" width="375.938" height="47.9365" filterUnits="userSpaceOnUse" color-interpolation-filters="sRGB">
<feFlood flood-opacity="0" result="BackgroundImageFix"/>
<feColorMatrix in="SourceAlpha" type="matrix" values="0 0 0 0 0 0 0 0 0 0 0 0 0 0 0 0 0 0 127 0" result="hardAlpha"/>
<feOffset/>
<feComposite in2="hardAlpha" operator="out"/>
<feColorMatrix type="matrix" values="0 0 0 0 0 0 0 0 0 0 0 0 0 0 0 0 0 0 0.1 0"/>
<feBlend mode="normal" in2="BackgroundImageFix" result="effect1_dropShadow_953_15"/>
<feBlend mode="normal" in="SourceGraphic" in2="effect1_dropShadow_953_15" result="shape"/>
</filter>
</defs>
</svg>
