<svg width="1226" height="50" viewBox="0 0 1226 50" fill="none" xmlns="http://www.w3.org/2000/svg">
<g filter="url(#filter0_d_925_6299)">
<rect x="24" y="2" width="260" height="47" fill="white" shape-rendering="crispEdges"/>
<rect x="23.7658" y="1.76585" width="260.468" height="47.4683" stroke="black" stroke-opacity="0.2" stroke-width="0.468302" shape-rendering="crispEdges"/>
</g>
<path d="M115.505 24.25V20.164H117.773C119.375 20.164 120.095 20.92 120.095 22.216C120.095 23.476 119.375 24.25 117.773 24.25H115.505ZM122.201 22.216C122.201 20.182 120.743 18.49 117.773 18.49H113.453V31H115.505V25.924H117.773C121.031 25.924 122.201 23.998 122.201 22.216ZM126.21 25.78C126.21 23.674 127.146 23.044 128.658 23.044H129.18V20.92C127.776 20.92 126.786 21.532 126.21 22.522V21.082H124.158V31H126.21V25.78ZM140.516 26.032C140.516 22.918 138.284 20.92 135.458 20.92C132.632 20.92 130.4 22.918 130.4 26.032C130.4 29.146 132.542 31.162 135.368 31.162C138.212 31.162 140.516 29.146 140.516 26.032ZM132.488 26.032C132.488 23.782 133.874 22.702 135.422 22.702C136.952 22.702 138.41 23.782 138.41 26.032C138.41 28.282 136.898 29.38 135.368 29.38C133.82 29.38 132.488 28.282 132.488 26.032ZM142.796 31H144.866V22.756H146.702V21.082H144.866V20.38C144.866 19.246 145.298 18.814 146.558 18.814V17.104C143.966 17.104 142.796 18.094 142.796 20.38V21.082H141.626V22.756H142.796V31ZM152.697 22.648C154.227 22.648 155.433 23.62 155.469 25.15H149.979C150.195 23.584 151.311 22.648 152.697 22.648ZM157.341 28.048H155.127C154.749 28.822 154.047 29.434 152.787 29.434C151.275 29.434 150.105 28.444 149.961 26.806H157.539C157.593 26.464 157.611 26.14 157.611 25.798C157.611 22.882 155.613 20.92 152.787 20.92C149.853 20.92 147.837 22.918 147.837 26.032C147.837 29.146 149.943 31.162 152.787 31.162C155.217 31.162 156.783 29.776 157.341 28.048ZM167.028 28.228C166.92 24.646 161.322 25.762 161.322 23.764C161.322 23.098 161.898 22.648 162.996 22.648C164.112 22.648 164.778 23.242 164.85 24.106H166.902C166.794 22.126 165.318 20.92 163.068 20.92C160.728 20.92 159.252 22.198 159.252 23.782C159.252 27.418 165.012 26.302 165.012 28.246C165.012 28.93 164.382 29.434 163.194 29.434C162.06 29.434 161.286 28.768 161.214 27.958H159.09C159.18 29.758 160.854 31.162 163.23 31.162C165.57 31.162 167.028 29.902 167.028 28.228ZM176.644 28.228C176.536 24.646 170.938 25.762 170.938 23.764C170.938 23.098 171.514 22.648 172.612 22.648C173.728 22.648 174.394 23.242 174.466 24.106H176.518C176.41 22.126 174.934 20.92 172.684 20.92C170.344 20.92 168.868 22.198 168.868 23.782C168.868 27.418 174.628 26.302 174.628 28.246C174.628 28.93 173.998 29.434 172.81 29.434C171.676 29.434 170.902 28.768 170.83 27.958H168.706C168.796 29.758 170.47 31.162 172.846 31.162C175.186 31.162 176.644 29.902 176.644 28.228ZM188.311 26.032C188.311 22.918 186.079 20.92 183.253 20.92C180.427 20.92 178.195 22.918 178.195 26.032C178.195 29.146 180.337 31.162 183.163 31.162C186.007 31.162 188.311 29.146 188.311 26.032ZM180.283 26.032C180.283 23.782 181.669 22.702 183.217 22.702C184.747 22.702 186.205 23.782 186.205 26.032C186.205 28.282 184.693 29.38 183.163 29.38C181.615 29.38 180.283 28.282 180.283 26.032ZM192.391 25.78C192.391 23.674 193.327 23.044 194.839 23.044H195.361V20.92C193.957 20.92 192.967 21.532 192.391 22.522V21.082H190.339V31H192.391V25.78Z" fill="#212832"/>
<path d="M284 2H283V49H284V2Z" fill="#946FB0" stroke="#946FB0" stroke-width="0.936604"/>
<circle cx="24.4151" cy="25.4151" r="23.4151" fill="#946FB0" stroke="#946FB0"/>
<path d="M16.3494 24.9942C16.3494 28.9654 17.3983 31.9625 21.2197 31.9625C25.041 31.9625 26.09 28.9654 26.09 24.9942C26.09 21.0979 25.041 18.1008 21.2197 18.1008C17.3983 18.1008 16.3494 21.0979 16.3494 24.9942ZM23.992 24.9942C23.992 27.6729 23.7111 30.0144 21.2197 30.0144C18.7283 30.0144 18.4473 27.6729 18.4473 24.9942C18.4473 22.4466 18.7283 20.0489 21.2197 20.0489C23.7111 20.0489 23.992 22.4466 23.992 24.9942ZM29.8107 32H31.9649V18.3443H28.0686V20.2925H29.8107V32Z" fill="#212832"/>
<g filter="url(#filter1_d_925_6299)">
<rect x="965" y="1" width="260" height="47" fill="white" shape-rendering="crispEdges"/>
<rect x="964.766" y="0.765849" width="260.468" height="47.4683" stroke="black" stroke-opacity="0.2" stroke-width="0.468302" shape-rendering="crispEdges"/>
</g>
<path d="M1038.19 18.49H1034.1V31H1038.19C1042.2 31 1044.83 28.642 1044.83 24.79C1044.83 20.92 1042.2 18.49 1038.19 18.49ZM1036.16 29.326V20.164H1038.19C1041.14 20.164 1042.73 21.928 1042.73 24.79C1042.73 27.634 1041.14 29.326 1038.19 29.326H1036.16ZM1046.18 25.996C1046.18 29.056 1048.25 31.162 1050.83 31.162C1052.48 31.162 1053.67 30.37 1054.3 29.524V31H1056.37V21.082H1054.3V22.522C1053.69 21.712 1052.54 20.92 1050.86 20.92C1048.25 20.92 1046.18 22.936 1046.18 25.996ZM1054.3 26.032C1054.3 28.174 1052.84 29.38 1051.29 29.38C1049.76 29.38 1048.29 28.138 1048.29 25.996C1048.29 23.854 1049.76 22.702 1051.29 22.702C1052.84 22.702 1054.3 23.908 1054.3 26.032ZM1059.39 28.246C1059.39 30.262 1060.49 31 1062.25 31H1063.87V29.29H1062.61C1061.75 29.29 1061.46 28.984 1061.46 28.246V22.756H1063.87V21.082H1061.46V18.616H1059.39V21.082H1058.22V22.756H1059.39V28.246ZM1065.08 25.996C1065.08 29.056 1067.15 31.162 1069.72 31.162C1071.38 31.162 1072.57 30.37 1073.2 29.524V31H1075.27V21.082H1073.2V22.522C1072.59 21.712 1071.43 20.92 1069.76 20.92C1067.15 20.92 1065.08 22.936 1065.08 25.996ZM1073.2 26.032C1073.2 28.174 1071.74 29.38 1070.19 29.38C1068.66 29.38 1067.19 28.138 1067.19 25.996C1067.19 23.854 1068.66 22.702 1070.19 22.702C1071.74 22.702 1073.2 23.908 1073.2 26.032ZM1091.08 27.454C1091.08 22.882 1084.46 24.646 1084.46 21.82C1084.46 20.614 1085.37 20.038 1086.56 20.074C1087.86 20.11 1088.6 20.884 1088.67 21.73H1090.94C1090.76 19.588 1089.06 18.328 1086.67 18.328C1084.11 18.328 1082.37 19.696 1082.37 21.892C1082.37 26.5 1089.01 24.538 1089.01 27.562C1089.01 28.624 1088.2 29.398 1086.76 29.398C1085.34 29.398 1084.62 28.57 1084.53 27.544H1082.33C1082.33 29.758 1084.26 31.126 1086.76 31.126C1089.55 31.126 1091.08 29.326 1091.08 27.454ZM1092.82 26.032C1092.82 29.146 1094.83 31.162 1097.68 31.162C1100.11 31.162 1101.69 29.812 1102.25 27.868H1100.04C1099.66 28.894 1098.9 29.434 1097.68 29.434C1096.02 29.434 1094.92 28.21 1094.92 26.032C1094.92 23.872 1096.02 22.648 1097.68 22.648C1098.9 22.648 1099.69 23.26 1100.04 24.214H1102.25C1101.69 22.126 1100.11 20.92 1097.68 20.92C1094.83 20.92 1092.82 22.936 1092.82 26.032ZM1104.29 31H1106.35V21.082H1104.29V31ZM1105.34 19.768C1106.06 19.768 1106.63 19.192 1106.63 18.454C1106.63 17.716 1106.06 17.14 1105.34 17.14C1104.6 17.14 1104.02 17.716 1104.02 18.454C1104.02 19.192 1104.6 19.768 1105.34 19.768ZM1113.22 22.648C1114.75 22.648 1115.95 23.62 1115.99 25.15H1110.5C1110.71 23.584 1111.83 22.648 1113.22 22.648ZM1117.86 28.048H1115.65C1115.27 28.822 1114.57 29.434 1113.31 29.434C1111.79 29.434 1110.62 28.444 1110.48 26.806H1118.06C1118.11 26.464 1118.13 26.14 1118.13 25.798C1118.13 22.882 1116.13 20.92 1113.31 20.92C1110.37 20.92 1108.36 22.918 1108.36 26.032C1108.36 29.146 1110.46 31.162 1113.31 31.162C1115.74 31.162 1117.3 29.776 1117.86 28.048ZM1127.19 31H1129.22V25.15C1129.22 22.378 1127.48 20.92 1125.15 20.92C1123.97 20.92 1122.87 21.406 1122.2 22.216V21.082H1120.15V31H1122.2V25.456C1122.2 23.638 1123.19 22.702 1124.7 22.702C1126.2 22.702 1127.19 23.638 1127.19 25.456V31ZM1132.16 28.246C1132.16 30.262 1133.26 31 1135.03 31H1136.65V29.29H1135.39C1134.52 29.29 1134.23 28.984 1134.23 28.246V22.756H1136.65V21.082H1134.23V18.616H1132.16V21.082H1130.99V22.756H1132.16V28.246ZM1138.54 31H1140.59V21.082H1138.54V31ZM1139.58 19.768C1140.3 19.768 1140.88 19.192 1140.88 18.454C1140.88 17.716 1140.3 17.14 1139.58 17.14C1138.84 17.14 1138.27 17.716 1138.27 18.454C1138.27 19.192 1138.84 19.768 1139.58 19.768ZM1150.68 28.228C1150.57 24.646 1144.97 25.762 1144.97 23.764C1144.97 23.098 1145.55 22.648 1146.65 22.648C1147.76 22.648 1148.43 23.242 1148.5 24.106H1150.55C1150.45 22.126 1148.97 20.92 1146.72 20.92C1144.38 20.92 1142.9 22.198 1142.9 23.782C1142.9 27.418 1148.66 26.302 1148.66 28.246C1148.66 28.93 1148.03 29.434 1146.85 29.434C1145.71 29.434 1144.94 28.768 1144.87 27.958H1142.74C1142.83 29.758 1144.51 31.162 1146.88 31.162C1149.22 31.162 1150.68 29.902 1150.68 28.228ZM1153.22 28.246C1153.22 30.262 1154.32 31 1156.08 31H1157.7V29.29H1156.44C1155.58 29.29 1155.29 28.984 1155.29 28.246V22.756H1157.7V21.082H1155.29V18.616H1153.22V21.082H1152.05V22.756H1153.22V28.246Z" fill="#212832"/>
<path d="M1225 1H1223V48H1225V1Z" fill="#CF1C54" stroke="#CF1C54" stroke-width="0.936604"/>
<circle cx="965.415" cy="24.4151" r="23.4151" fill="#E9336C" stroke="#E9336C"/>
<path d="M954.47 24.6055C954.47 28.5767 955.519 31.5739 959.34 31.5739C963.162 31.5739 964.211 28.5767 964.211 24.6055C964.211 20.7093 963.162 17.7121 959.34 17.7121C955.519 17.7121 954.47 20.7093 954.47 24.6055ZM962.113 24.6055C962.113 27.2842 961.832 29.6257 959.34 29.6257C956.849 29.6257 956.568 27.2842 956.568 24.6055C956.568 22.058 956.849 19.6603 959.34 19.6603C961.832 19.6603 962.113 22.058 962.113 24.6055ZM972.989 31.6113H975.087V28.7641H976.829V26.9096H975.087V18.1242H972.502L966.208 27.1531V28.7641H972.989V31.6113ZM968.662 26.9096L973.083 20.2972V26.9096H968.662Z" fill="#212832"/>
<g filter="url(#filter2_d_925_6299)">
<rect x="337" y="2" width="260" height="47" fill="white" shape-rendering="crispEdges"/>
<rect x="336.766" y="1.76585" width="260.468" height="47.4683" stroke="black" stroke-opacity="0.2" stroke-width="0.468302" shape-rendering="crispEdges"/>
</g>
<path d="M597 2H595V49H597V2Z" fill="#A9CF54" stroke="#A9CF54" stroke-width="0.936604"/>
<path d="M383.85 27.454C383.85 22.882 377.226 24.646 377.226 21.82C377.226 20.614 378.144 20.038 379.332 20.074C380.628 20.11 381.366 20.884 381.438 21.73H383.706C383.526 19.588 381.834 18.328 379.44 18.328C376.884 18.328 375.138 19.696 375.138 21.892C375.138 26.5 381.78 24.538 381.78 27.562C381.78 28.624 380.97 29.398 379.53 29.398C378.108 29.398 377.388 28.57 377.298 27.544H375.102C375.102 29.758 377.028 31.126 379.53 31.126C382.32 31.126 383.85 29.326 383.85 27.454ZM395.253 21.082H393.201V26.608C393.201 28.426 392.211 29.362 390.699 29.362C389.205 29.362 388.215 28.426 388.215 26.608V21.082H386.181V26.914C386.181 29.686 387.945 31.144 390.267 31.144C391.437 31.144 392.553 30.658 393.201 29.812V31H395.253V21.082ZM400.012 22.558V17.68H397.96V31H400.012V29.56C400.66 30.424 401.83 31.162 403.468 31.162C406.078 31.162 408.13 29.056 408.13 25.996C408.13 22.936 406.096 20.92 403.468 20.92C401.902 20.92 400.66 21.658 400.012 22.558ZM406.042 25.996C406.042 28.138 404.566 29.38 403.018 29.38C401.488 29.38 400.012 28.174 400.012 26.032C400.012 23.908 401.488 22.702 403.018 22.702C404.566 22.702 406.042 23.854 406.042 25.996ZM411.204 19.768C411.924 19.768 412.5 19.192 412.5 18.454C412.5 17.716 411.924 17.14 411.204 17.14C410.466 17.14 409.89 17.716 409.89 18.454C409.89 19.192 410.466 19.768 411.204 19.768ZM410.16 21.082V32.944C410.16 33.682 409.872 33.988 409.008 33.988H408.306V35.716H409.368C411.132 35.716 412.212 34.96 412.212 32.944V21.082H410.16ZM419.082 22.648C420.612 22.648 421.818 23.62 421.854 25.15H416.364C416.58 23.584 417.696 22.648 419.082 22.648ZM423.726 28.048H421.512C421.134 28.822 420.432 29.434 419.172 29.434C417.66 29.434 416.49 28.444 416.346 26.806H423.924C423.978 26.464 423.996 26.14 423.996 25.798C423.996 22.882 421.998 20.92 419.172 20.92C416.238 20.92 414.222 22.918 414.222 26.032C414.222 29.146 416.328 31.162 419.172 31.162C421.602 31.162 423.168 29.776 423.726 28.048ZM425.331 26.032C425.331 29.146 427.347 31.162 430.191 31.162C432.621 31.162 434.205 29.812 434.763 27.868H432.549C432.171 28.894 431.415 29.434 430.191 29.434C428.535 29.434 427.437 28.21 427.437 26.032C427.437 23.872 428.535 22.648 430.191 22.648C431.415 22.648 432.207 23.26 432.549 24.214H434.763C434.205 22.126 432.621 20.92 430.191 20.92C427.347 20.92 425.331 22.936 425.331 26.032ZM437.132 28.246C437.132 30.262 438.23 31 439.994 31H441.614V29.29H440.354C439.49 29.29 439.202 28.984 439.202 28.246V22.756H441.614V21.082H439.202V18.616H437.132V21.082H435.962V22.756H437.132V28.246ZM450.903 28.228C450.795 24.646 445.197 25.762 445.197 23.764C445.197 23.098 445.773 22.648 446.871 22.648C447.987 22.648 448.653 23.242 448.725 24.106H450.777C450.669 22.126 449.193 20.92 446.943 20.92C444.603 20.92 443.127 22.198 443.127 23.782C443.127 27.418 448.887 26.302 448.887 28.246C448.887 28.93 448.257 29.434 447.069 29.434C445.935 29.434 445.161 28.768 445.089 27.958H442.965C443.055 29.758 444.729 31.162 447.105 31.162C449.445 31.162 450.903 29.902 450.903 28.228ZM457.796 31H459.848V22.432L463.682 31H465.104L468.92 22.432V31H470.972V18.49H468.776L464.402 28.3L460.01 18.49H457.796V31ZM472.985 25.996C472.985 29.056 475.055 31.162 477.629 31.162C479.285 31.162 480.473 30.37 481.103 29.524V31H483.173V21.082H481.103V22.522C480.491 21.712 479.339 20.92 477.665 20.92C475.055 20.92 472.985 22.936 472.985 25.996ZM481.103 26.032C481.103 28.174 479.645 29.38 478.097 29.38C476.567 29.38 475.091 28.138 475.091 25.996C475.091 23.854 476.567 22.702 478.097 22.702C479.645 22.702 481.103 23.908 481.103 26.032ZM486.193 28.246C486.193 30.262 487.291 31 489.055 31H490.675V29.29H489.415C488.551 29.29 488.263 28.984 488.263 28.246V22.756H490.675V21.082H488.263V18.616H486.193V21.082H485.023V22.756H486.193V28.246ZM492.89 28.246C492.89 30.262 493.988 31 495.752 31H497.372V29.29H496.112C495.248 29.29 494.96 28.984 494.96 28.246V22.756H497.372V21.082H494.96V18.616H492.89V21.082H491.72V22.756H492.89V28.246ZM503.439 22.648C504.969 22.648 506.175 23.62 506.211 25.15H500.721C500.937 23.584 502.053 22.648 503.439 22.648ZM508.083 28.048H505.869C505.491 28.822 504.789 29.434 503.529 29.434C502.017 29.434 500.847 28.444 500.703 26.806H508.281C508.335 26.464 508.353 26.14 508.353 25.798C508.353 22.882 506.355 20.92 503.529 20.92C500.595 20.92 498.579 22.918 498.579 26.032C498.579 29.146 500.685 31.162 503.529 31.162C505.959 31.162 507.525 29.776 508.083 28.048ZM512.424 25.78C512.424 23.674 513.36 23.044 514.872 23.044H515.394V20.92C513.99 20.92 513 21.532 512.424 22.522V21.082H510.372V31H512.424V25.78ZM528.868 18.472H521.956V31H528.868V29.326H524.008V25.492H528.328V23.818H524.008V20.146H528.868V18.472ZM536.526 31H538.848L535.644 25.978L538.848 21.082H536.706L534.69 24.448L532.548 21.082H530.226L533.43 26.122L530.226 31H532.368L534.384 27.634L536.526 31ZM542.43 22.54V21.082H540.378V35.716H542.43V29.56C543.078 30.334 544.248 31.162 545.886 31.162C548.496 31.162 550.548 29.056 550.548 25.996C550.548 22.936 548.496 20.92 545.886 20.92C544.266 20.92 543.06 21.712 542.43 22.54ZM548.46 25.996C548.46 28.138 546.984 29.38 545.436 29.38C543.906 29.38 542.43 28.174 542.43 26.032C542.43 23.908 543.906 22.702 545.436 22.702C546.984 22.702 548.46 23.854 548.46 25.996ZM556.754 22.648C558.284 22.648 559.49 23.62 559.526 25.15H554.036C554.252 23.584 555.368 22.648 556.754 22.648ZM561.398 28.048H559.184C558.806 28.822 558.104 29.434 556.844 29.434C555.332 29.434 554.162 28.444 554.018 26.806H561.596C561.65 26.464 561.668 26.14 561.668 25.798C561.668 22.882 559.67 20.92 556.844 20.92C553.91 20.92 551.894 22.918 551.894 26.032C551.894 29.146 554 31.162 556.844 31.162C559.274 31.162 560.84 29.776 561.398 28.048ZM565.739 25.78C565.739 23.674 566.675 23.044 568.187 23.044H568.709V20.92C567.305 20.92 566.315 21.532 565.739 22.522V21.082H563.687V31H565.739V25.78ZM570.919 28.246C570.919 30.262 572.017 31 573.781 31H575.401V29.29H574.141C573.277 29.29 572.989 28.984 572.989 28.246V22.756H575.401V21.082H572.989V18.616H570.919V21.082H569.749V22.756H570.919V28.246Z" fill="#212832"/>
<circle cx="336.415" cy="25.4151" r="23.4151" fill="#A9CF54" stroke="#A9CF54"/>
<path d="M326.128 25.17C326.128 29.1412 327.177 32.1383 330.999 32.1383C334.82 32.1383 335.869 29.1412 335.869 25.17C335.869 21.2737 334.82 18.2766 330.999 18.2766C327.177 18.2766 326.128 21.2737 326.128 25.17ZM333.771 25.17C333.771 27.8487 333.49 30.1902 330.999 30.1902C328.507 30.1902 328.226 27.8487 328.226 25.17C328.226 22.6224 328.507 20.2247 330.999 20.2247C333.49 20.2247 333.771 22.6224 333.771 25.17ZM337.96 31.9885H347.064V30.2089H341.126C343.317 28.2046 346.689 25.6758 346.689 22.3602C346.689 19.9063 345.116 18.2391 342.343 18.2391C339.927 18.2391 338.016 19.6815 337.941 22.6412H340.002C340.058 21.1051 340.864 20.0561 342.362 20.0561C343.954 20.0561 344.573 21.0302 344.573 22.4538C344.573 25.1325 341.182 27.6052 337.96 30.4337V31.9885Z" fill="#212832"/>
<g filter="url(#filter3_d_925_6299)">
<rect x="653" y="2" width="260" height="47" fill="white" shape-rendering="crispEdges"/>
<rect x="652.766" y="1.76585" width="260.468" height="47.4683" stroke="black" stroke-opacity="0.2" stroke-width="0.468302" shape-rendering="crispEdges"/>
</g>
<path d="M913 2H911V49H913V2Z" fill="#3498DB" stroke="#3498DB" stroke-width="0.936604"/>
<path d="M707.728 31H709.78V22.432L713.614 31H715.036L718.852 22.432V31H720.904V18.49H718.708L714.334 28.3L709.942 18.49H707.728V31ZM722.917 25.996C722.917 29.056 724.987 31.162 727.561 31.162C729.217 31.162 730.405 30.37 731.035 29.524V31H733.105V21.082H731.035V22.522C730.423 21.712 729.271 20.92 727.597 20.92C724.987 20.92 722.917 22.936 722.917 25.996ZM731.035 26.032C731.035 28.174 729.577 29.38 728.029 29.38C726.499 29.38 725.023 28.138 725.023 25.996C725.023 23.854 726.499 22.702 728.029 22.702C729.577 22.702 731.035 23.908 731.035 26.032ZM737.852 25.78C737.852 23.674 738.788 23.044 740.3 23.044H740.822V20.92C739.418 20.92 738.428 21.532 737.852 22.522V21.082H735.8V31H737.852V25.78ZM742.708 31H744.76V26.734L748.432 31H751.204L746.632 26.05L751.204 21.082H748.36L744.76 25.42V17.68H742.708V31ZM756.851 22.648C758.381 22.648 759.587 23.62 759.623 25.15H754.133C754.349 23.584 755.465 22.648 756.851 22.648ZM761.495 28.048H759.281C758.903 28.822 758.201 29.434 756.941 29.434C755.429 29.434 754.259 28.444 754.115 26.806H761.693C761.747 26.464 761.765 26.14 761.765 25.798C761.765 22.882 759.767 20.92 756.941 20.92C754.007 20.92 751.991 22.918 751.991 26.032C751.991 29.146 754.097 31.162 756.941 31.162C759.371 31.162 760.937 29.776 761.495 28.048ZM764.109 28.246C764.109 30.262 765.207 31 766.971 31H768.591V29.29H767.331C766.467 29.29 766.179 28.984 766.179 28.246V22.756H768.591V21.082H766.179V18.616H764.109V21.082H762.939V22.756H764.109V28.246ZM781.8 22.234C781.8 23.476 781.08 24.358 779.478 24.358H777.21V20.164H779.478C781.08 20.164 781.8 20.974 781.8 22.234ZM775.158 18.49V31H777.21V25.996H778.776L781.656 31H784.104L781.008 25.816C783.114 25.294 783.906 23.71 783.906 22.234C783.906 20.2 782.448 18.49 779.478 18.49H775.158ZM790.707 22.648C792.237 22.648 793.443 23.62 793.479 25.15H787.989C788.205 23.584 789.321 22.648 790.707 22.648ZM795.351 28.048H793.137C792.759 28.822 792.057 29.434 790.797 29.434C789.285 29.434 788.115 28.444 787.971 26.806H795.549C795.603 26.464 795.621 26.14 795.621 25.798C795.621 22.882 793.623 20.92 790.797 20.92C787.863 20.92 785.847 22.918 785.847 26.032C785.847 29.146 787.953 31.162 790.797 31.162C793.227 31.162 794.793 29.776 795.351 28.048ZM805.038 28.228C804.93 24.646 799.332 25.762 799.332 23.764C799.332 23.098 799.908 22.648 801.006 22.648C802.122 22.648 802.788 23.242 802.86 24.106H804.912C804.804 22.126 803.328 20.92 801.078 20.92C798.738 20.92 797.262 22.198 797.262 23.782C797.262 27.418 803.022 26.302 803.022 28.246C803.022 28.93 802.392 29.434 801.204 29.434C800.07 29.434 799.296 28.768 799.224 27.958H797.1C797.19 29.758 798.864 31.162 801.24 31.162C803.58 31.162 805.038 29.902 805.038 28.228ZM811.431 22.648C812.961 22.648 814.167 23.62 814.203 25.15H808.713C808.929 23.584 810.045 22.648 811.431 22.648ZM816.075 28.048H813.861C813.483 28.822 812.781 29.434 811.521 29.434C810.009 29.434 808.839 28.444 808.695 26.806H816.273C816.327 26.464 816.345 26.14 816.345 25.798C816.345 22.882 814.347 20.92 811.521 20.92C808.587 20.92 806.571 22.918 806.571 26.032C806.571 29.146 808.677 31.162 811.521 31.162C813.951 31.162 815.517 29.776 816.075 28.048ZM817.681 25.996C817.681 29.056 819.751 31.162 822.325 31.162C823.981 31.162 825.169 30.37 825.799 29.524V31H827.869V21.082H825.799V22.522C825.187 21.712 824.035 20.92 822.361 20.92C819.751 20.92 817.681 22.936 817.681 25.996ZM825.799 26.032C825.799 28.174 824.341 29.38 822.793 29.38C821.263 29.38 819.787 28.138 819.787 25.996C819.787 23.854 821.263 22.702 822.793 22.702C824.341 22.702 825.799 23.908 825.799 26.032ZM832.616 25.78C832.616 23.674 833.552 23.044 835.064 23.044H835.586V20.92C834.182 20.92 833.192 21.532 832.616 22.522V21.082H830.564V31H832.616V25.78ZM836.788 26.032C836.788 29.146 838.804 31.162 841.648 31.162C844.078 31.162 845.662 29.812 846.22 27.868H844.006C843.628 28.894 842.872 29.434 841.648 29.434C839.992 29.434 838.894 28.21 838.894 26.032C838.894 23.872 839.992 22.648 841.648 22.648C842.872 22.648 843.664 23.26 844.006 24.214H846.22C845.662 22.126 844.078 20.92 841.648 20.92C838.804 20.92 836.788 22.936 836.788 26.032ZM848.265 31H850.317V25.456C850.317 23.638 851.307 22.702 852.819 22.702C854.313 22.702 855.303 23.638 855.303 25.456V31H857.337V25.15C857.337 22.378 855.609 20.92 853.395 20.92C852.117 20.92 851.001 21.406 850.317 22.234V17.68H848.265V31ZM864.13 22.648C865.66 22.648 866.866 23.62 866.902 25.15H861.412C861.628 23.584 862.744 22.648 864.13 22.648ZM868.774 28.048H866.56C866.182 28.822 865.48 29.434 864.22 29.434C862.708 29.434 861.538 28.444 861.394 26.806H868.972C869.026 26.464 869.044 26.14 869.044 25.798C869.044 22.882 867.046 20.92 864.22 20.92C861.286 20.92 859.27 22.918 859.27 26.032C859.27 29.146 861.376 31.162 864.22 31.162C866.65 31.162 868.216 29.776 868.774 28.048ZM873.116 25.78C873.116 23.674 874.052 23.044 875.564 23.044H876.086V20.92C874.682 20.92 873.692 21.532 873.116 22.522V21.082H871.064V31H873.116V25.78Z" fill="#212832"/>
<circle cx="649.415" cy="25.415" r="23.415" fill="#3498DB" stroke="#3498DB"/>
<path d="M638.548 25.9942C638.548 29.9654 639.597 32.9625 643.418 32.9625C647.24 32.9625 648.289 29.9654 648.289 25.9942C648.289 22.0979 647.24 19.1008 643.418 19.1008C639.597 19.1008 638.548 22.0979 638.548 25.9942ZM646.191 25.9942C646.191 28.6729 645.91 31.0144 643.418 31.0144C640.927 31.0144 640.646 28.6729 640.646 25.9942C640.646 23.4466 640.927 21.0489 643.418 21.0489C645.91 21.0489 646.191 23.4466 646.191 25.9942ZM650.511 22.7161H652.59C652.721 21.7608 653.414 20.8616 654.913 20.8616C656.374 20.8616 657.142 21.6484 657.142 22.8285C657.142 24.2896 655.962 24.8515 654.032 24.8703H653.527V26.6311H654.014C656.243 26.6311 657.404 27.2493 657.404 29.0475C657.404 30.3213 656.617 31.2954 655.025 31.2954C653.414 31.2954 652.478 30.3213 652.384 29.0475H650.323C650.454 31.7262 652.459 33.0749 655.044 33.0749C657.891 33.0749 659.427 31.4265 659.427 29.2536C659.427 27.3616 658.509 26.1815 657.086 25.7507V25.6758C658.153 25.3198 659.184 24.2147 659.184 22.585C659.184 20.5994 657.704 19.0259 654.988 19.0259C652.496 19.0259 650.661 20.3558 650.511 22.7161Z" fill="#212832"/>
<defs>
<filter id="filter0_d_925_6299" x="23.5312" y="1.53174" width="260.938" height="47.9365" filterUnits="userSpaceOnUse" color-interpolation-filters="sRGB">
<feFlood flood-opacity="0" result="BackgroundImageFix"/>
<feColorMatrix in="SourceAlpha" type="matrix" values="0 0 0 0 0 0 0 0 0 0 0 0 0 0 0 0 0 0 127 0" result="hardAlpha"/>
<feOffset/>
<feComposite in2="hardAlpha" operator="out"/>
<feColorMatrix type="matrix" values="0 0 0 0 0 0 0 0 0 0 0 0 0 0 0 0 0 0 0.1 0"/>
<feBlend mode="normal" in2="BackgroundImageFix" result="effect1_dropShadow_925_6299"/>
<feBlend mode="normal" in="SourceGraphic" in2="effect1_dropShadow_925_6299" result="shape"/>
</filter>
<filter id="filter1_d_925_6299" x="964.531" y="0.531738" width="260.938" height="47.9365" filterUnits="userSpaceOnUse" color-interpolation-filters="sRGB">
<feFlood flood-opacity="0" result="BackgroundImageFix"/>
<feColorMatrix in="SourceAlpha" type="matrix" values="0 0 0 0 0 0 0 0 0 0 0 0 0 0 0 0 0 0 127 0" result="hardAlpha"/>
<feOffset/>
<feComposite in2="hardAlpha" operator="out"/>
<feColorMatrix type="matrix" values="0 0 0 0 0 0 0 0 0 0 0 0 0 0 0 0 0 0 0.1 0"/>
<feBlend mode="normal" in2="BackgroundImageFix" result="effect1_dropShadow_925_6299"/>
<feBlend mode="normal" in="SourceGraphic" in2="effect1_dropShadow_925_6299" result="shape"/>
</filter>
<filter id="filter2_d_925_6299" x="336.531" y="1.53174" width="260.938" height="47.9365" filterUnits="userSpaceOnUse" color-interpolation-filters="sRGB">
<feFlood flood-opacity="0" result="BackgroundImageFix"/>
<feColorMatrix in="SourceAlpha" type="matrix" values="0 0 0 0 0 0 0 0 0 0 0 0 0 0 0 0 0 0 127 0" result="hardAlpha"/>
<feOffset/>
<feComposite in2="hardAlpha" operator="out"/>
<feColorMatrix type="matrix" values="0 0 0 0 0 0 0 0 0 0 0 0 0 0 0 0 0 0 0.1 0"/>
<feBlend mode="normal" in2="BackgroundImageFix" result="effect1_dropShadow_925_6299"/>
<feBlend mode="normal" in="SourceGraphic" in2="effect1_dropShadow_925_6299" result="shape"/>
</filter>
<filter id="filter3_d_925_6299" x="652.531" y="1.53174" width="260.938" height="47.9365" filterUnits="userSpaceOnUse" color-interpolation-filters="sRGB">
<feFlood flood-opacity="0" result="BackgroundImageFix"/>
<feColorMatrix in="SourceAlpha" type="matrix" values="0 0 0 0 0 0 0 0 0 0 0 0 0 0 0 0 0 0 127 0" result="hardAlpha"/>
<feOffset/>
<feComposite in2="hardAlpha" operator="out"/>
<feColorMatrix type="matrix" values="0 0 0 0 0 0 0 0 0 0 0 0 0 0 0 0 0 0 0.1 0"/>
<feBlend mode="normal" in2="BackgroundImageFix" result="effect1_dropShadow_925_6299"/>
<feBlend mode="normal" in="SourceGraphic" in2="effect1_dropShadow_925_6299" result="shape"/>
</filter>
</defs>
</svg>
