<svg width="1226" height="199" viewBox="0 0 1226 199" fill="none" xmlns="http://www.w3.org/2000/svg">
<g filter="url(#filter0_d_953_493)">
<rect x="24" y="1" width="365" height="47" fill="white" shape-rendering="crispEdges"/>
<rect x="23.7658" y="0.765849" width="365.468" height="47.4683" stroke="black" stroke-opacity="0.2" stroke-width="0.468302" shape-rendering="crispEdges"/>
</g>
<path d="M93.6518 17.49H89.5658V30H93.6518C97.6658 30 100.294 27.642 100.294 23.79C100.294 19.92 97.6658 17.49 93.6518 17.49ZM91.6178 28.326V19.164H93.6518C96.6038 19.164 98.1878 20.928 98.1878 23.79C98.1878 26.634 96.6038 28.326 93.6518 28.326H91.6178ZM102.328 30H104.38V20.082H102.328V30ZM103.372 18.768C104.092 18.768 104.668 18.192 104.668 17.454C104.668 16.716 104.092 16.14 103.372 16.14C102.634 16.14 102.058 16.716 102.058 17.454C102.058 18.192 102.634 18.768 103.372 18.768ZM106.39 24.996C106.39 28.056 108.46 30.162 111.07 30.162C112.69 30.162 113.878 29.352 114.508 28.506V30.162C114.508 32.142 113.32 33.114 111.736 33.114C110.314 33.114 109.216 32.412 108.91 31.386H106.876C107.128 33.582 109.09 34.896 111.736 34.896C114.832 34.896 116.578 32.862 116.578 30.162V20.082H114.508V21.522C113.896 20.676 112.69 19.92 111.07 19.92C108.46 19.92 106.39 21.936 106.39 24.996ZM114.508 25.032C114.508 27.174 113.05 28.38 111.502 28.38C109.972 28.38 108.496 27.138 108.496 24.996C108.496 22.854 109.972 21.702 111.502 21.702C113.05 21.702 114.508 22.908 114.508 25.032ZM119.273 30H121.325V20.082H119.273V30ZM120.317 18.768C121.037 18.768 121.613 18.192 121.613 17.454C121.613 16.716 121.037 16.14 120.317 16.14C119.579 16.14 119.003 16.716 119.003 17.454C119.003 18.192 119.579 18.768 120.317 18.768ZM124.343 27.246C124.343 29.262 125.441 30 127.205 30H128.825V28.29H127.565C126.701 28.29 126.413 27.984 126.413 27.246V21.756H128.825V20.082H126.413V17.616H124.343V20.082H123.173V21.756H124.343V27.246ZM130.032 24.996C130.032 28.056 132.102 30.162 134.676 30.162C136.332 30.162 137.52 29.37 138.15 28.524V30H140.22V20.082H138.15V21.522C137.538 20.712 136.386 19.92 134.712 19.92C132.102 19.92 130.032 21.936 130.032 24.996ZM138.15 25.032C138.15 27.174 136.692 28.38 135.144 28.38C133.614 28.38 132.138 27.138 132.138 24.996C132.138 22.854 133.614 21.702 135.144 21.702C136.692 21.702 138.15 22.908 138.15 25.032ZM142.915 30H144.967V16.68H142.915V30ZM152.337 30H154.389V21.432L158.223 30H159.645L163.461 21.432V30H165.513V17.49H163.317L158.943 27.3L154.551 17.49H152.337V30ZM167.526 24.996C167.526 28.056 169.596 30.162 172.17 30.162C173.826 30.162 175.014 29.37 175.644 28.524V30H177.714V20.082H175.644V21.522C175.032 20.712 173.88 19.92 172.206 19.92C169.596 19.92 167.526 21.936 167.526 24.996ZM175.644 25.032C175.644 27.174 174.186 28.38 172.638 28.38C171.108 28.38 169.632 27.138 169.632 24.996C169.632 22.854 171.108 21.702 172.638 21.702C174.186 21.702 175.644 22.908 175.644 25.032ZM182.462 24.78C182.462 22.674 183.398 22.044 184.91 22.044H185.432V19.92C184.028 19.92 183.038 20.532 182.462 21.522V20.082H180.41V30H182.462V24.78ZM187.318 30H189.37V25.734L193.042 30H195.814L191.242 25.05L195.814 20.082H192.97L189.37 24.42V16.68H187.318V30ZM201.461 21.648C202.991 21.648 204.197 22.62 204.233 24.15H198.743C198.959 22.584 200.075 21.648 201.461 21.648ZM206.105 27.048H203.891C203.513 27.822 202.811 28.434 201.551 28.434C200.039 28.434 198.869 27.444 198.725 25.806H206.303C206.357 25.464 206.375 25.14 206.375 24.798C206.375 21.882 204.377 19.92 201.551 19.92C198.617 19.92 196.601 21.918 196.601 25.032C196.601 28.146 198.707 30.162 201.551 30.162C203.981 30.162 205.547 28.776 206.105 27.048ZM208.718 27.246C208.718 29.262 209.816 30 211.58 30H213.2V28.29H211.94C211.076 28.29 210.788 27.984 210.788 27.246V21.756H213.2V20.082H210.788V17.616H208.718V20.082H207.548V21.756H208.718V27.246ZM215.091 30H217.143V20.082H215.091V30ZM216.135 18.768C216.855 18.768 217.431 18.192 217.431 17.454C217.431 16.716 216.855 16.14 216.135 16.14C215.397 16.14 214.821 16.716 214.821 17.454C214.821 18.192 215.397 18.768 216.135 18.768ZM226.875 30H228.909V24.15C228.909 21.378 227.163 19.92 224.841 19.92C223.653 19.92 222.555 20.406 221.889 21.216V20.082H219.837V30H221.889V24.456C221.889 22.638 222.879 21.702 224.391 21.702C225.885 21.702 226.875 22.638 226.875 24.456V30ZM230.843 24.996C230.843 28.056 232.913 30.162 235.523 30.162C237.143 30.162 238.331 29.352 238.961 28.506V30.162C238.961 32.142 237.773 33.114 236.189 33.114C234.767 33.114 233.669 32.412 233.363 31.386H231.329C231.581 33.582 233.543 34.896 236.189 34.896C239.285 34.896 241.031 32.862 241.031 30.162V20.082H238.961V21.522C238.349 20.676 237.143 19.92 235.523 19.92C232.913 19.92 230.843 21.936 230.843 24.996ZM238.961 25.032C238.961 27.174 237.503 28.38 235.955 28.38C234.425 28.38 232.949 27.138 232.949 24.996C232.949 22.854 234.425 21.702 235.955 21.702C237.503 21.702 238.961 22.908 238.961 25.032ZM256.844 26.454C256.844 21.882 250.22 23.646 250.22 20.82C250.22 19.614 251.138 19.038 252.326 19.074C253.622 19.11 254.36 19.884 254.432 20.73H256.7C256.52 18.588 254.828 17.328 252.434 17.328C249.878 17.328 248.132 18.696 248.132 20.892C248.132 25.5 254.774 23.538 254.774 26.562C254.774 27.624 253.964 28.398 252.524 28.398C251.102 28.398 250.382 27.57 250.292 26.544H248.096C248.096 28.758 250.022 30.126 252.524 30.126C255.314 30.126 256.844 28.326 256.844 26.454ZM259.589 27.246C259.589 29.262 260.687 30 262.451 30H264.071V28.29H262.811C261.947 28.29 261.659 27.984 261.659 27.246V21.756H264.071V20.082H261.659V17.616H259.589V20.082H258.419V21.756H259.589V27.246ZM268.014 24.78C268.014 22.674 268.95 22.044 270.462 22.044H270.984V19.92C269.58 19.92 268.59 20.532 268.014 21.522V20.082H265.962V30H268.014V24.78ZM272.187 24.996C272.187 28.056 274.257 30.162 276.831 30.162C278.487 30.162 279.675 29.37 280.305 28.524V30H282.375V20.082H280.305V21.522C279.693 20.712 278.541 19.92 276.867 19.92C274.257 19.92 272.187 21.936 272.187 24.996ZM280.305 25.032C280.305 27.174 278.847 28.38 277.299 28.38C275.769 28.38 274.293 27.138 274.293 24.996C274.293 22.854 275.769 21.702 277.299 21.702C278.847 21.702 280.305 22.908 280.305 25.032ZM285.394 27.246C285.394 29.262 286.492 30 288.256 30H289.876V28.29H288.616C287.752 28.29 287.464 27.984 287.464 27.246V21.756H289.876V20.082H287.464V17.616H285.394V20.082H284.224V21.756H285.394V27.246ZM295.943 21.648C297.473 21.648 298.679 22.62 298.715 24.15H293.225C293.441 22.584 294.557 21.648 295.943 21.648ZM300.587 27.048H298.373C297.995 27.822 297.293 28.434 296.033 28.434C294.521 28.434 293.351 27.444 293.207 25.806H300.785C300.839 25.464 300.857 25.14 300.857 24.798C300.857 21.882 298.859 19.92 296.033 19.92C293.099 19.92 291.083 21.918 291.083 25.032C291.083 28.146 293.189 30.162 296.033 30.162C298.463 30.162 300.029 28.776 300.587 27.048ZM302.192 24.996C302.192 28.056 304.262 30.162 306.872 30.162C308.492 30.162 309.68 29.352 310.31 28.506V30.162C310.31 32.142 309.122 33.114 307.538 33.114C306.116 33.114 305.018 32.412 304.712 31.386H302.678C302.93 33.582 304.892 34.896 307.538 34.896C310.634 34.896 312.38 32.862 312.38 30.162V20.082H310.31V21.522C309.698 20.676 308.492 19.92 306.872 19.92C304.262 19.92 302.192 21.936 302.192 24.996ZM310.31 25.032C310.31 27.174 308.852 28.38 307.304 28.38C305.774 28.38 304.298 27.138 304.298 24.996C304.298 22.854 305.774 21.702 307.304 21.702C308.852 21.702 310.31 22.908 310.31 25.032ZM315.076 30H317.128V20.082H315.076V30ZM316.12 18.768C316.84 18.768 317.416 18.192 317.416 17.454C317.416 16.716 316.84 16.14 316.12 16.14C315.382 16.14 314.806 16.716 314.806 17.454C314.806 18.192 315.382 18.768 316.12 18.768ZM327.22 27.228C327.112 23.646 321.514 24.762 321.514 22.764C321.514 22.098 322.09 21.648 323.188 21.648C324.304 21.648 324.97 22.242 325.042 23.106H327.094C326.986 21.126 325.51 19.92 323.26 19.92C320.92 19.92 319.444 21.198 319.444 22.782C319.444 26.418 325.204 25.302 325.204 27.246C325.204 27.93 324.574 28.434 323.386 28.434C322.252 28.434 321.478 27.768 321.406 26.958H319.282C319.372 28.758 321.046 30.162 323.422 30.162C325.762 30.162 327.22 28.902 327.22 27.228ZM329.761 27.246C329.761 29.262 330.859 30 332.623 30H334.243V28.29H332.983C332.119 28.29 331.831 27.984 331.831 27.246V21.756H334.243V20.082H331.831V17.616H329.761V20.082H328.591V21.756H329.761V27.246Z" fill="#212832"/>
<path d="M389 1H387V48H389V1Z" fill="#946FB0" stroke="#946FB0" stroke-width="0.936604"/>
<circle cx="24.4151" cy="24.4151" r="23.4151" fill="#946FB0" stroke="#946FB0"/>
<path d="M16.3494 23.9942C16.3494 27.9654 17.3983 30.9625 21.2197 30.9625C25.041 30.9625 26.09 27.9654 26.09 23.9942C26.09 20.0979 25.041 17.1008 21.2197 17.1008C17.3983 17.1008 16.3494 20.0979 16.3494 23.9942ZM23.992 23.9942C23.992 26.6729 23.7111 29.0144 21.2197 29.0144C18.7283 29.0144 18.4473 26.6729 18.4473 23.9942C18.4473 21.4466 18.7283 19.0489 21.2197 19.0489C23.7111 19.0489 23.992 21.4466 23.992 23.9942ZM29.8107 31H31.9649V17.3443H28.0686V19.2925H29.8107V31Z" fill="#212832"/>
<g filter="url(#filter1_d_953_493)">
<rect x="24" y="76" width="365" height="47" fill="white" shape-rendering="crispEdges"/>
<rect x="23.7658" y="75.7658" width="365.468" height="47.4683" stroke="black" stroke-opacity="0.2" stroke-width="0.468302" shape-rendering="crispEdges"/>
</g>
<g filter="url(#filter2_d_953_493)">
<rect x="24" y="151" width="365" height="47" fill="white" shape-rendering="crispEdges"/>
<rect x="23.7658" y="150.766" width="365.468" height="47.4683" stroke="black" stroke-opacity="0.2" stroke-width="0.468302" shape-rendering="crispEdges"/>
</g>
<path d="M88.9258 99.718C88.9258 103.48 91.7878 106.108 95.3158 106.108C97.9258 106.108 100.176 104.812 101.13 102.364H98.6638C97.9978 103.696 96.8098 104.326 95.3158 104.326C92.8318 104.326 91.0318 102.544 91.0318 99.718C91.0318 96.892 92.8318 95.128 95.3158 95.128C96.8098 95.128 97.9978 95.758 98.6638 97.09H101.13C100.176 94.642 97.9258 93.328 95.3158 93.328C91.7878 93.328 88.9258 95.974 88.9258 99.718ZM103.532 106H105.584V92.68H103.532V106ZM108.278 106H110.33V96.082H108.278V106ZM109.322 94.768C110.042 94.768 110.618 94.192 110.618 93.454C110.618 92.716 110.042 92.14 109.322 92.14C108.584 92.14 108.008 92.716 108.008 93.454C108.008 94.192 108.584 94.768 109.322 94.768ZM117.2 97.648C118.73 97.648 119.936 98.62 119.972 100.15H114.482C114.698 98.584 115.814 97.648 117.2 97.648ZM121.844 103.048H119.63C119.252 103.822 118.55 104.434 117.29 104.434C115.778 104.434 114.608 103.444 114.464 101.806H122.042C122.096 101.464 122.114 101.14 122.114 100.798C122.114 97.882 120.116 95.92 117.29 95.92C114.356 95.92 112.34 97.918 112.34 101.032C112.34 104.146 114.446 106.162 117.29 106.162C119.72 106.162 121.286 104.776 121.844 103.048ZM131.171 106H133.205V100.15C133.205 97.378 131.459 95.92 129.137 95.92C127.949 95.92 126.851 96.406 126.185 97.216V96.082H124.133V106H126.185V100.456C126.185 98.638 127.175 97.702 128.687 97.702C130.181 97.702 131.171 98.638 131.171 100.456V106ZM136.147 103.246C136.147 105.262 137.245 106 139.009 106H140.629V104.29H139.369C138.505 104.29 138.217 103.984 138.217 103.246V97.756H140.629V96.082H138.217V93.616H136.147V96.082H134.977V97.756H136.147V103.246ZM155.638 102.454C155.638 97.882 149.014 99.646 149.014 96.82C149.014 95.614 149.932 95.038 151.12 95.074C152.416 95.11 153.154 95.884 153.226 96.73H155.494C155.314 94.588 153.622 93.328 151.228 93.328C148.672 93.328 146.926 94.696 146.926 96.892C146.926 101.5 153.568 99.538 153.568 102.562C153.568 103.624 152.758 104.398 151.318 104.398C149.896 104.398 149.176 103.57 149.086 102.544H146.89C146.89 104.758 148.816 106.126 151.318 106.126C154.108 106.126 155.638 104.326 155.638 102.454ZM162.235 97.648C163.765 97.648 164.971 98.62 165.007 100.15H159.517C159.733 98.584 160.849 97.648 162.235 97.648ZM166.879 103.048H164.665C164.287 103.822 163.585 104.434 162.325 104.434C160.813 104.434 159.643 103.444 159.499 101.806H167.077C167.131 101.464 167.149 101.14 167.149 100.798C167.149 97.882 165.151 95.92 162.325 95.92C159.391 95.92 157.375 97.918 157.375 101.032C157.375 104.146 159.481 106.162 162.325 106.162C164.755 106.162 166.321 104.776 166.879 103.048ZM171.22 100.78C171.22 98.674 172.156 98.044 173.668 98.044H174.19V95.92C172.786 95.92 171.796 96.532 171.22 97.522V96.082H169.168V106H171.22V100.78ZM174.907 96.082L178.669 106H181.117L184.897 96.082H182.719L179.911 104.164L177.103 96.082H174.907ZM186.448 106H188.5V96.082H186.448V106ZM187.492 94.768C188.212 94.768 188.788 94.192 188.788 93.454C188.788 92.716 188.212 92.14 187.492 92.14C186.754 92.14 186.178 92.716 186.178 93.454C186.178 94.192 186.754 94.768 187.492 94.768ZM190.51 101.032C190.51 104.146 192.526 106.162 195.37 106.162C197.8 106.162 199.384 104.812 199.942 102.868H197.728C197.35 103.894 196.594 104.434 195.37 104.434C193.714 104.434 192.616 103.21 192.616 101.032C192.616 98.872 193.714 97.648 195.37 97.648C196.594 97.648 197.386 98.26 197.728 99.214H199.942C199.384 97.126 197.8 95.92 195.37 95.92C192.526 95.92 190.51 97.936 190.51 101.032ZM201.987 106H204.039V96.082H201.987V106ZM203.031 94.768C203.751 94.768 204.327 94.192 204.327 93.454C204.327 92.716 203.751 92.14 203.031 92.14C202.293 92.14 201.717 92.716 201.717 93.454C201.717 94.192 202.293 94.768 203.031 94.768ZM213.771 106H215.805V100.15C215.805 97.378 214.059 95.92 211.737 95.92C210.549 95.92 209.451 96.406 208.785 97.216V96.082H206.733V106H208.785V100.456C208.785 98.638 209.775 97.702 211.287 97.702C212.781 97.702 213.771 98.638 213.771 100.456V106ZM217.738 100.996C217.738 104.056 219.808 106.162 222.418 106.162C224.038 106.162 225.226 105.352 225.856 104.506V106.162C225.856 108.142 224.668 109.114 223.084 109.114C221.662 109.114 220.564 108.412 220.258 107.386H218.224C218.476 109.582 220.438 110.896 223.084 110.896C226.18 110.896 227.926 108.862 227.926 106.162V96.082H225.856V97.522C225.244 96.676 224.038 95.92 222.418 95.92C219.808 95.92 217.738 97.936 217.738 100.996ZM225.856 101.032C225.856 103.174 224.398 104.38 222.85 104.38C221.32 104.38 219.844 103.138 219.844 100.996C219.844 98.854 221.32 97.702 222.85 97.702C224.398 97.702 225.856 98.908 225.856 101.032ZM235.297 106H237.349V97.432L241.183 106H242.605L246.421 97.432V106H248.473V93.49H246.277L241.903 103.3L237.511 93.49H235.297V106ZM250.486 100.996C250.486 104.056 252.556 106.162 255.13 106.162C256.786 106.162 257.974 105.37 258.604 104.524V106H260.674V96.082H258.604V97.522C257.992 96.712 256.84 95.92 255.166 95.92C252.556 95.92 250.486 97.936 250.486 100.996ZM258.604 101.032C258.604 103.174 257.146 104.38 255.598 104.38C254.068 104.38 252.592 103.138 252.592 100.996C252.592 98.854 254.068 97.702 255.598 97.702C257.146 97.702 258.604 98.908 258.604 101.032ZM270.408 106H272.442V100.15C272.442 97.378 270.696 95.92 268.374 95.92C267.186 95.92 266.088 96.406 265.422 97.216V96.082H263.37V106H265.422V100.456C265.422 98.638 266.412 97.702 267.924 97.702C269.418 97.702 270.408 98.638 270.408 100.456V106ZM274.375 100.996C274.375 104.056 276.445 106.162 279.019 106.162C280.675 106.162 281.863 105.37 282.493 104.524V106H284.563V96.082H282.493V97.522C281.881 96.712 280.729 95.92 279.055 95.92C276.445 95.92 274.375 97.936 274.375 100.996ZM282.493 101.032C282.493 103.174 281.035 104.38 279.487 104.38C277.957 104.38 276.481 103.138 276.481 100.996C276.481 98.854 277.957 97.702 279.487 97.702C281.035 97.702 282.493 98.908 282.493 101.032ZM286.574 100.996C286.574 104.056 288.644 106.162 291.254 106.162C292.874 106.162 294.062 105.352 294.692 104.506V106.162C294.692 108.142 293.504 109.114 291.92 109.114C290.498 109.114 289.4 108.412 289.094 107.386H287.06C287.312 109.582 289.274 110.896 291.92 110.896C295.016 110.896 296.762 108.862 296.762 106.162V96.082H294.692V97.522C294.08 96.676 292.874 95.92 291.254 95.92C288.644 95.92 286.574 97.936 286.574 100.996ZM294.692 101.032C294.692 103.174 293.234 104.38 291.686 104.38C290.156 104.38 288.68 103.138 288.68 100.996C288.68 98.854 290.156 97.702 291.686 97.702C293.234 97.702 294.692 98.908 294.692 101.032ZM303.633 97.648C305.163 97.648 306.369 98.62 306.405 100.15H300.915C301.131 98.584 302.247 97.648 303.633 97.648ZM308.277 103.048H306.063C305.685 103.822 304.983 104.434 303.723 104.434C302.211 104.434 301.041 103.444 300.897 101.806H308.475C308.529 101.464 308.547 101.14 308.547 100.798C308.547 97.882 306.549 95.92 303.723 95.92C300.789 95.92 298.773 97.918 298.773 101.032C298.773 104.146 300.879 106.162 303.723 106.162C306.153 106.162 307.719 104.776 308.277 103.048ZM312.619 100.78C312.619 98.674 313.555 98.044 315.067 98.044H315.589V95.92C314.185 95.92 313.195 96.532 312.619 97.522V96.082H310.567V106H312.619V100.78ZM324.873 103.228C324.765 99.646 319.167 100.762 319.167 98.764C319.167 98.098 319.743 97.648 320.841 97.648C321.957 97.648 322.623 98.242 322.695 99.106H324.747C324.639 97.126 323.163 95.92 320.913 95.92C318.573 95.92 317.097 97.198 317.097 98.782C317.097 102.418 322.857 101.302 322.857 103.246C322.857 103.93 322.227 104.434 321.039 104.434C319.905 104.434 319.131 103.768 319.059 102.958H316.935C317.025 104.758 318.699 106.162 321.075 106.162C323.415 106.162 324.873 104.902 324.873 103.228Z" fill="#212832"/>
<path d="M389 76H387V123H389V76Z" fill="#CF1C54" stroke="#CF1C54" stroke-width="0.936604"/>
<path d="M389 151H387V198H389V151Z" fill="#A344ED" stroke="#A344ED" stroke-width="0.936604"/>
<circle cx="24.4151" cy="99.4151" r="23.4151" fill="#E9336C" stroke="#E9336C"/>
<circle cx="24.4151" cy="174.415" r="23.4151" fill="#A344ED" stroke="#A344ED"/>
<path d="M13.4777 99.6055C13.4777 103.577 14.5267 106.574 18.348 106.574C22.1694 106.574 23.2184 103.577 23.2184 99.6055C23.2184 95.7093 22.1694 92.7121 18.348 92.7121C14.5267 92.7121 13.4777 95.7093 13.4777 99.6055ZM21.1204 99.6055C21.1204 102.284 20.8394 104.626 18.348 104.626C15.8567 104.626 15.5757 102.284 15.5757 99.6055C15.5757 97.058 15.8567 94.6603 18.348 94.6603C20.8394 94.6603 21.1204 97.058 21.1204 99.6055ZM31.9967 106.611H34.0947V103.764H35.8368V101.91H34.0947V93.1242H31.5097L25.2157 102.153V103.764H31.9967V106.611ZM27.6696 101.91L32.0904 95.2972V101.91H27.6696Z" fill="#212832"/>
<g filter="url(#filter3_d_953_493)">
<rect x="436" y="76" width="365" height="47" fill="white" shape-rendering="crispEdges"/>
<rect x="435.766" y="75.7658" width="365.468" height="47.4683" stroke="black" stroke-opacity="0.2" stroke-width="0.468302" shape-rendering="crispEdges"/>
</g>
<path d="M495.853 93.49H491.767V106H495.853C499.867 106 502.495 103.642 502.495 99.79C502.495 95.92 499.867 93.49 495.853 93.49ZM493.819 104.326V95.164H495.853C498.805 95.164 500.389 96.928 500.389 99.79C500.389 102.634 498.805 104.326 495.853 104.326H493.819ZM504.529 106H506.581V96.082H504.529V106ZM505.573 94.768C506.293 94.768 506.869 94.192 506.869 93.454C506.869 92.716 506.293 92.14 505.573 92.14C504.835 92.14 504.259 92.716 504.259 93.454C504.259 94.192 504.835 94.768 505.573 94.768ZM508.591 100.996C508.591 104.056 510.661 106.162 513.271 106.162C514.891 106.162 516.079 105.352 516.709 104.506V106.162C516.709 108.142 515.521 109.114 513.937 109.114C512.515 109.114 511.417 108.412 511.111 107.386H509.077C509.329 109.582 511.291 110.896 513.937 110.896C517.033 110.896 518.779 108.862 518.779 106.162V96.082H516.709V97.522C516.097 96.676 514.891 95.92 513.271 95.92C510.661 95.92 508.591 97.936 508.591 100.996ZM516.709 101.032C516.709 103.174 515.251 104.38 513.703 104.38C512.173 104.38 510.697 103.138 510.697 100.996C510.697 98.854 512.173 97.702 513.703 97.702C515.251 97.702 516.709 98.908 516.709 101.032ZM521.474 106H523.526V96.082H521.474V106ZM522.518 94.768C523.238 94.768 523.814 94.192 523.814 93.454C523.814 92.716 523.238 92.14 522.518 92.14C521.78 92.14 521.204 92.716 521.204 93.454C521.204 94.192 521.78 94.768 522.518 94.768ZM526.544 103.246C526.544 105.262 527.642 106 529.406 106H531.026V104.29H529.766C528.902 104.29 528.614 103.984 528.614 103.246V97.756H531.026V96.082H528.614V93.616H526.544V96.082H525.374V97.756H526.544V103.246ZM532.233 100.996C532.233 104.056 534.303 106.162 536.877 106.162C538.533 106.162 539.721 105.37 540.351 104.524V106H542.421V96.082H540.351V97.522C539.739 96.712 538.587 95.92 536.913 95.92C534.303 95.92 532.233 97.936 532.233 100.996ZM540.351 101.032C540.351 103.174 538.893 104.38 537.345 104.38C535.815 104.38 534.339 103.138 534.339 100.996C534.339 98.854 535.815 97.702 537.345 97.702C538.893 97.702 540.351 98.908 540.351 101.032ZM545.117 106H547.169V92.68H545.117V106ZM554.538 106H556.59V97.432L560.424 106H561.846L565.662 97.432V106H567.714V93.49H565.518L561.144 103.3L556.752 93.49H554.538V106ZM569.728 100.996C569.728 104.056 571.798 106.162 574.372 106.162C576.028 106.162 577.216 105.37 577.846 104.524V106H579.916V96.082H577.846V97.522C577.234 96.712 576.082 95.92 574.408 95.92C571.798 95.92 569.728 97.936 569.728 100.996ZM577.846 101.032C577.846 103.174 576.388 104.38 574.84 104.38C573.31 104.38 571.834 103.138 571.834 100.996C571.834 98.854 573.31 97.702 574.84 97.702C576.388 97.702 577.846 98.908 577.846 101.032ZM584.663 100.78C584.663 98.674 585.599 98.044 587.111 98.044H587.633V95.92C586.229 95.92 585.239 96.532 584.663 97.522V96.082H582.611V106H584.663V100.78ZM589.519 106H591.571V101.734L595.243 106H598.015L593.443 101.05L598.015 96.082H595.171L591.571 100.42V92.68H589.519V106ZM603.662 97.648C605.192 97.648 606.398 98.62 606.434 100.15H600.944C601.16 98.584 602.276 97.648 603.662 97.648ZM608.306 103.048H606.092C605.714 103.822 605.012 104.434 603.752 104.434C602.24 104.434 601.07 103.444 600.926 101.806H608.504C608.558 101.464 608.576 101.14 608.576 100.798C608.576 97.882 606.578 95.92 603.752 95.92C600.818 95.92 598.802 97.918 598.802 101.032C598.802 104.146 600.908 106.162 603.752 106.162C606.182 106.162 607.748 104.776 608.306 103.048ZM610.919 103.246C610.919 105.262 612.017 106 613.781 106H615.401V104.29H614.141C613.277 104.29 612.989 103.984 612.989 103.246V97.756H615.401V96.082H612.989V93.616H610.919V96.082H609.749V97.756H610.919V103.246ZM617.292 106H619.344V96.082H617.292V106ZM618.336 94.768C619.056 94.768 619.632 94.192 619.632 93.454C619.632 92.716 619.056 92.14 618.336 92.14C617.598 92.14 617.022 92.716 617.022 93.454C617.022 94.192 617.598 94.768 618.336 94.768ZM629.076 106H631.11V100.15C631.11 97.378 629.364 95.92 627.042 95.92C625.854 95.92 624.756 96.406 624.09 97.216V96.082H622.038V106H624.09V100.456C624.09 98.638 625.08 97.702 626.592 97.702C628.086 97.702 629.076 98.638 629.076 100.456V106ZM633.044 100.996C633.044 104.056 635.114 106.162 637.724 106.162C639.344 106.162 640.532 105.352 641.162 104.506V106.162C641.162 108.142 639.974 109.114 638.39 109.114C636.968 109.114 635.87 108.412 635.564 107.386H633.53C633.782 109.582 635.744 110.896 638.39 110.896C641.486 110.896 643.232 108.862 643.232 106.162V96.082H641.162V97.522C640.55 96.676 639.344 95.92 637.724 95.92C635.114 95.92 633.044 97.936 633.044 100.996ZM641.162 101.032C641.162 103.174 639.704 104.38 638.156 104.38C636.626 104.38 635.15 103.138 635.15 100.996C635.15 98.854 636.626 97.702 638.156 97.702C639.704 97.702 641.162 98.908 641.162 101.032ZM659.045 102.454C659.045 97.882 652.421 99.646 652.421 96.82C652.421 95.614 653.339 95.038 654.527 95.074C655.823 95.11 656.561 95.884 656.633 96.73H658.901C658.721 94.588 657.029 93.328 654.635 93.328C652.079 93.328 650.333 94.696 650.333 96.892C650.333 101.5 656.975 99.538 656.975 102.562C656.975 103.624 656.165 104.398 654.725 104.398C653.303 104.398 652.583 103.57 652.493 102.544H650.297C650.297 104.758 652.223 106.126 654.725 106.126C657.515 106.126 659.045 104.326 659.045 102.454ZM663.518 97.54V96.082H661.466V110.716H663.518V104.56C664.166 105.334 665.336 106.162 666.974 106.162C669.584 106.162 671.636 104.056 671.636 100.996C671.636 97.936 669.584 95.92 666.974 95.92C665.354 95.92 664.148 96.712 663.518 97.54ZM669.548 100.996C669.548 103.138 668.072 104.38 666.524 104.38C664.994 104.38 663.518 103.174 663.518 101.032C663.518 98.908 664.994 97.702 666.524 97.702C668.072 97.702 669.548 98.854 669.548 100.996ZM677.841 97.648C679.371 97.648 680.577 98.62 680.613 100.15H675.123C675.339 98.584 676.455 97.648 677.841 97.648ZM682.485 103.048H680.271C679.893 103.822 679.191 104.434 677.931 104.434C676.419 104.434 675.249 103.444 675.105 101.806H682.683C682.737 101.464 682.755 101.14 682.755 100.798C682.755 97.882 680.757 95.92 677.931 95.92C674.997 95.92 672.981 97.918 672.981 101.032C672.981 104.146 675.087 106.162 677.931 106.162C680.361 106.162 681.927 104.776 682.485 103.048ZM684.091 101.032C684.091 104.146 686.107 106.162 688.951 106.162C691.381 106.162 692.965 104.812 693.523 102.868H691.309C690.931 103.894 690.175 104.434 688.951 104.434C687.295 104.434 686.197 103.21 686.197 101.032C686.197 98.872 687.295 97.648 688.951 97.648C690.175 97.648 690.967 98.26 691.309 99.214H693.523C692.965 97.126 691.381 95.92 688.951 95.92C686.107 95.92 684.091 97.936 684.091 101.032ZM695.568 106H697.62V96.082H695.568V106ZM696.612 94.768C697.332 94.768 697.908 94.192 697.908 93.454C697.908 92.716 697.332 92.14 696.612 92.14C695.874 92.14 695.298 92.716 695.298 93.454C695.298 94.192 695.874 94.768 696.612 94.768ZM699.63 100.996C699.63 104.056 701.7 106.162 704.274 106.162C705.93 106.162 707.118 105.37 707.748 104.524V106H709.818V96.082H707.748V97.522C707.136 96.712 705.984 95.92 704.31 95.92C701.7 95.92 699.63 97.936 699.63 100.996ZM707.748 101.032C707.748 103.174 706.29 104.38 704.742 104.38C703.212 104.38 701.736 103.138 701.736 100.996C701.736 98.854 703.212 97.702 704.742 97.702C706.29 97.702 707.748 98.908 707.748 101.032ZM712.513 106H714.565V92.68H712.513V106ZM717.259 106H719.311V96.082H717.259V106ZM718.303 94.768C719.023 94.768 719.599 94.192 719.599 93.454C719.599 92.716 719.023 92.14 718.303 92.14C717.565 92.14 716.989 92.716 716.989 93.454C716.989 94.192 717.565 94.768 718.303 94.768ZM729.403 103.228C729.295 99.646 723.697 100.762 723.697 98.764C723.697 98.098 724.273 97.648 725.371 97.648C726.487 97.648 727.153 98.242 727.225 99.106H729.277C729.169 97.126 727.693 95.92 725.443 95.92C723.103 95.92 721.627 97.198 721.627 98.782C721.627 102.418 727.387 101.302 727.387 103.246C727.387 103.93 726.757 104.434 725.569 104.434C724.435 104.434 723.661 103.768 723.589 102.958H721.465C721.555 104.758 723.229 106.162 725.605 106.162C727.945 106.162 729.403 104.902 729.403 103.228ZM731.945 103.246C731.945 105.262 733.043 106 734.807 106H736.427V104.29H735.167C734.303 104.29 734.015 103.984 734.015 103.246V97.756H736.427V96.082H734.015V93.616H731.945V96.082H730.775V97.756H731.945V103.246ZM745.716 103.228C745.608 99.646 740.01 100.762 740.01 98.764C740.01 98.098 740.586 97.648 741.684 97.648C742.8 97.648 743.466 98.242 743.538 99.106H745.59C745.482 97.126 744.006 95.92 741.756 95.92C739.416 95.92 737.94 97.198 737.94 98.782C737.94 102.418 743.7 101.302 743.7 103.246C743.7 103.93 743.07 104.434 741.882 104.434C740.748 104.434 739.974 103.768 739.902 102.958H737.778C737.868 104.758 739.542 106.162 741.918 106.162C744.258 106.162 745.716 104.902 745.716 103.228Z" fill="#212832"/>
<path d="M801 76H799V123H801V76Z" fill="#00ADEF" stroke="#00ADEF" stroke-width="0.936604"/>
<circle cx="436.415" cy="99.8506" r="23.4151" fill="#00ADEF" stroke="#00ADEF"/>
<path d="M425.56 99.6055C425.56 103.577 426.609 106.574 430.43 106.574C434.252 106.574 435.301 103.577 435.301 99.6055C435.301 95.7093 434.252 92.7121 430.43 92.7121C426.609 92.7121 425.56 95.7093 425.56 99.6055ZM433.203 99.6055C433.203 102.284 432.922 104.626 430.43 104.626C427.939 104.626 427.658 102.284 427.658 99.6055C427.658 97.058 427.939 94.6603 430.43 94.6603C432.922 94.6603 433.203 97.058 433.203 99.6055ZM438.122 92.9182V100.804H440.145C440.501 99.7929 441.344 99.0998 442.599 99.0998C444.379 99.0998 445.259 100.111 445.259 101.891C445.259 103.577 444.435 104.832 442.599 104.832C441.157 104.832 440.183 104.082 439.902 102.921H437.823C438.141 105.057 439.771 106.611 442.58 106.611C445.746 106.611 447.301 104.551 447.301 101.835C447.301 99.7741 446.271 97.2828 442.918 97.2828C441.7 97.2828 440.595 97.8447 440.089 98.5191V94.7914H446.364V92.9182H438.122Z" fill="#212832"/>
<g filter="url(#filter4_d_953_493)">
<rect x="859" y="76" width="365" height="47" fill="white" shape-rendering="crispEdges"/>
<rect x="858.766" y="75.7658" width="365.468" height="47.4683" stroke="black" stroke-opacity="0.2" stroke-width="0.468302" shape-rendering="crispEdges"/>
</g>
<path d="M979.812 102.418C979.812 103.624 978.966 104.326 977.58 104.326H974.808V100.42H977.508C978.876 100.42 979.812 101.176 979.812 102.418ZM979.488 96.964C979.488 98.116 978.678 98.746 977.346 98.746H974.808V95.164H977.346C978.678 95.164 979.488 95.83 979.488 96.964ZM981.864 102.634C981.864 101.14 980.784 99.808 979.452 99.574C980.658 99.142 981.576 98.224 981.576 96.712C981.576 94.948 980.172 93.49 977.526 93.49H972.756V106H977.76C980.316 106 981.864 104.542 981.864 102.634ZM986.146 100.78C986.146 98.674 987.082 98.044 988.594 98.044H989.116V95.92C987.712 95.92 986.722 96.532 986.146 97.522V96.082H984.094V106H986.146V100.78ZM990.318 100.996C990.318 104.056 992.388 106.162 994.962 106.162C996.618 106.162 997.806 105.37 998.436 104.524V106H1000.51V96.082H998.436V97.522C997.824 96.712 996.672 95.92 994.998 95.92C992.388 95.92 990.318 97.936 990.318 100.996ZM998.436 101.032C998.436 103.174 996.978 104.38 995.43 104.38C993.9 104.38 992.424 103.138 992.424 100.996C992.424 98.854 993.9 97.702 995.43 97.702C996.978 97.702 998.436 98.908 998.436 101.032ZM1010.24 106H1012.27V100.15C1012.27 97.378 1010.53 95.92 1008.21 95.92C1007.02 95.92 1005.92 96.406 1005.25 97.216V96.082H1003.2V106H1005.25V100.456C1005.25 98.638 1006.24 97.702 1007.76 97.702C1009.25 97.702 1010.24 98.638 1010.24 100.456V106ZM1014.21 100.996C1014.21 104.056 1016.28 106.162 1018.89 106.162C1020.51 106.162 1021.7 105.406 1022.33 104.506V106H1024.4V92.68H1022.33V97.468C1021.57 96.532 1020.2 95.92 1018.91 95.92C1016.28 95.92 1014.21 97.936 1014.21 100.996ZM1022.33 101.032C1022.33 103.174 1020.87 104.38 1019.32 104.38C1017.79 104.38 1016.31 103.138 1016.31 100.996C1016.31 98.854 1017.79 97.702 1019.32 97.702C1020.87 97.702 1022.33 98.908 1022.33 101.032ZM1031.77 106H1033.82V97.432L1037.65 106H1039.07L1042.89 97.432V106H1044.94V93.49H1042.75L1038.37 103.3L1033.98 93.49H1031.77V106ZM1046.96 100.996C1046.96 104.056 1049.03 106.162 1051.6 106.162C1053.26 106.162 1054.44 105.37 1055.07 104.524V106H1057.14V96.082H1055.07V97.522C1054.46 96.712 1053.31 95.92 1051.64 95.92C1049.03 95.92 1046.96 97.936 1046.96 100.996ZM1055.07 101.032C1055.07 103.174 1053.62 104.38 1052.07 104.38C1050.54 104.38 1049.06 103.138 1049.06 100.996C1049.06 98.854 1050.54 97.702 1052.07 97.702C1053.62 97.702 1055.07 98.908 1055.07 101.032ZM1066.88 106H1068.91V100.15C1068.91 97.378 1067.16 95.92 1064.84 95.92C1063.65 95.92 1062.56 96.406 1061.89 97.216V96.082H1059.84V106H1061.89V100.456C1061.89 98.638 1062.88 97.702 1064.39 97.702C1065.89 97.702 1066.88 98.638 1066.88 100.456V106ZM1070.84 100.996C1070.84 104.056 1072.91 106.162 1075.49 106.162C1077.14 106.162 1078.33 105.37 1078.96 104.524V106H1081.03V96.082H1078.96V97.522C1078.35 96.712 1077.2 95.92 1075.52 95.92C1072.91 95.92 1070.84 97.936 1070.84 100.996ZM1078.96 101.032C1078.96 103.174 1077.5 104.38 1075.96 104.38C1074.43 104.38 1072.95 103.138 1072.95 100.996C1072.95 98.854 1074.43 97.702 1075.96 97.702C1077.5 97.702 1078.96 98.908 1078.96 101.032ZM1083.04 100.996C1083.04 104.056 1085.11 106.162 1087.72 106.162C1089.34 106.162 1090.53 105.352 1091.16 104.506V106.162C1091.16 108.142 1089.97 109.114 1088.39 109.114C1086.97 109.114 1085.87 108.412 1085.56 107.386H1083.53C1083.78 109.582 1085.74 110.896 1088.39 110.896C1091.48 110.896 1093.23 108.862 1093.23 106.162V96.082H1091.16V97.522C1090.55 96.676 1089.34 95.92 1087.72 95.92C1085.11 95.92 1083.04 97.936 1083.04 100.996ZM1091.16 101.032C1091.16 103.174 1089.7 104.38 1088.15 104.38C1086.62 104.38 1085.15 103.138 1085.15 100.996C1085.15 98.854 1086.62 97.702 1088.15 97.702C1089.7 97.702 1091.16 98.908 1091.16 101.032ZM1100.1 97.648C1101.63 97.648 1102.84 98.62 1102.87 100.15H1097.38C1097.6 98.584 1098.72 97.648 1100.1 97.648ZM1104.75 103.048H1102.53C1102.15 103.822 1101.45 104.434 1100.19 104.434C1098.68 104.434 1097.51 103.444 1097.37 101.806H1104.94C1105 101.464 1105.02 101.14 1105.02 100.798C1105.02 97.882 1103.02 95.92 1100.19 95.92C1097.26 95.92 1095.24 97.918 1095.24 101.032C1095.24 104.146 1097.35 106.162 1100.19 106.162C1102.62 106.162 1104.19 104.776 1104.75 103.048ZM1109.09 100.78C1109.09 98.674 1110.02 98.044 1111.54 98.044H1112.06V95.92C1110.65 95.92 1109.66 96.532 1109.09 97.522V96.082H1107.04V106H1109.09V100.78Z" fill="#212832"/>
<path d="M1224 76H1222V123H1224V76Z" fill="#E74C3C" stroke="#E74C3C" stroke-width="0.936604"/>
<circle cx="856.415" cy="99.8506" r="23.4151" fill="#E74C3C" stroke="#E74C3C"/>
<path d="M845.533 99.6055C845.533 103.577 846.582 106.574 850.403 106.574C854.224 106.574 855.273 103.577 855.273 99.6055C855.273 95.7093 854.224 92.7121 850.403 92.7121C846.582 92.7121 845.533 95.7093 845.533 99.6055ZM853.175 99.6055C853.175 102.284 852.894 104.626 850.403 104.626C847.912 104.626 847.631 102.284 847.631 99.6055C847.631 97.058 847.912 94.6603 850.403 94.6603C852.894 94.6603 853.175 97.058 853.175 99.6055ZM866.843 96.1214C866.618 94.3044 865.288 92.6185 862.628 92.6185C859.219 92.6185 857.795 95.2035 857.795 99.4744C857.795 103.82 858.825 106.611 862.797 106.611C865.719 106.611 867.273 104.644 867.273 102.059C867.273 99.2122 865.531 97.5637 863.078 97.5637C861.654 97.5637 860.305 98.1632 859.631 99.2871C859.687 95.7093 860.68 94.398 862.609 94.398C863.958 94.398 864.614 95.0162 864.876 96.1214H866.843ZM862.609 99.362C864.407 99.362 865.232 100.523 865.232 102.153C865.232 103.764 864.258 104.832 862.684 104.832C860.867 104.832 859.874 103.708 859.874 102.022C859.874 100.205 861.204 99.362 862.609 99.362Z" fill="#212832"/>
<g filter="url(#filter5_d_953_493)">
<rect x="437" y="1" width="365" height="47" fill="white" shape-rendering="crispEdges"/>
<rect x="436.766" y="0.765849" width="365.468" height="47.4683" stroke="black" stroke-opacity="0.2" stroke-width="0.468302" shape-rendering="crispEdges"/>
</g>
<path d="M802 1H800V48H802V1Z" fill="#A9CF54" stroke="#A9CF54" stroke-width="0.936604"/>
<path d="M502.065 23.718C502.065 27.48 504.927 30.108 508.455 30.108C511.065 30.108 513.315 28.812 514.269 26.364H511.803C511.137 27.696 509.949 28.326 508.455 28.326C505.971 28.326 504.171 26.544 504.171 23.718C504.171 20.892 505.971 19.128 508.455 19.128C509.949 19.128 511.137 19.758 511.803 21.09H514.269C513.315 18.642 511.065 17.328 508.455 17.328C504.927 17.328 502.065 19.974 502.065 23.718ZM526.121 25.032C526.121 21.918 523.889 19.92 521.063 19.92C518.237 19.92 516.005 21.918 516.005 25.032C516.005 28.146 518.147 30.162 520.973 30.162C523.817 30.162 526.121 28.146 526.121 25.032ZM518.093 25.032C518.093 22.782 519.479 21.702 521.027 21.702C522.557 21.702 524.015 22.782 524.015 25.032C524.015 27.282 522.503 28.38 520.973 28.38C519.425 28.38 518.093 27.282 518.093 25.032ZM535.188 30H537.222V24.15C537.222 21.378 535.476 19.92 533.154 19.92C531.966 19.92 530.868 20.406 530.202 21.216V20.082H528.15V30H530.202V24.456C530.202 22.638 531.192 21.702 532.704 21.702C534.198 21.702 535.188 22.638 535.188 24.456V30ZM540.163 27.246C540.163 29.262 541.261 30 543.025 30H544.645V28.29H543.385C542.521 28.29 542.233 27.984 542.233 27.246V21.756H544.645V20.082H542.233V17.616H540.163V20.082H538.993V21.756H540.163V27.246ZM550.713 21.648C552.243 21.648 553.449 22.62 553.485 24.15H547.995C548.211 22.584 549.327 21.648 550.713 21.648ZM555.357 27.048H553.143C552.765 27.822 552.063 28.434 550.803 28.434C549.291 28.434 548.121 27.444 547.977 25.806H555.555C555.609 25.464 555.627 25.14 555.627 24.798C555.627 21.882 553.629 19.92 550.803 19.92C547.869 19.92 545.853 21.918 545.853 25.032C545.853 28.146 547.959 30.162 550.803 30.162C553.233 30.162 554.799 28.776 555.357 27.048ZM564.684 30H566.718V24.15C566.718 21.378 564.972 19.92 562.65 19.92C561.462 19.92 560.364 20.406 559.698 21.216V20.082H557.646V30H559.698V24.456C559.698 22.638 560.688 21.702 562.2 21.702C563.694 21.702 564.684 22.638 564.684 24.456V30ZM569.659 27.246C569.659 29.262 570.757 30 572.521 30H574.141V28.29H572.881C572.017 28.29 571.729 27.984 571.729 27.246V21.756H574.141V20.082H571.729V17.616H569.659V20.082H568.489V21.756H569.659V27.246ZM580.708 30H582.76V21.432L586.594 30H588.016L591.832 21.432V30H593.884V17.49H591.688L587.314 27.3L582.922 17.49H580.708V30ZM595.897 24.996C595.897 28.056 597.967 30.162 600.541 30.162C602.197 30.162 603.385 29.37 604.015 28.524V30H606.085V20.082H604.015V21.522C603.403 20.712 602.251 19.92 600.577 19.92C597.967 19.92 595.897 21.936 595.897 24.996ZM604.015 25.032C604.015 27.174 602.557 28.38 601.009 28.38C599.479 28.38 598.003 27.138 598.003 24.996C598.003 22.854 599.479 21.702 601.009 21.702C602.557 21.702 604.015 22.908 604.015 25.032ZM610.833 24.78C610.833 22.674 611.769 22.044 613.281 22.044H613.803V19.92C612.399 19.92 611.409 20.532 610.833 21.522V20.082H608.781V30H610.833V24.78ZM615.689 30H617.741V25.734L621.413 30H624.185L619.613 25.05L624.185 20.082H621.341L617.741 24.42V16.68H615.689V30ZM629.832 21.648C631.362 21.648 632.568 22.62 632.604 24.15H627.114C627.33 22.584 628.446 21.648 629.832 21.648ZM634.476 27.048H632.262C631.884 27.822 631.182 28.434 629.922 28.434C628.41 28.434 627.24 27.444 627.096 25.806H634.674C634.728 25.464 634.746 25.14 634.746 24.798C634.746 21.882 632.748 19.92 629.922 19.92C626.988 19.92 624.972 21.918 624.972 25.032C624.972 28.146 627.078 30.162 629.922 30.162C632.352 30.162 633.918 28.776 634.476 27.048ZM637.089 27.246C637.089 29.262 638.187 30 639.951 30H641.571V28.29H640.311C639.447 28.29 639.159 27.984 639.159 27.246V21.756H641.571V20.082H639.159V17.616H637.089V20.082H635.919V21.756H637.089V27.246ZM643.462 30H645.514V20.082H643.462V30ZM644.506 18.768C645.226 18.768 645.802 18.192 645.802 17.454C645.802 16.716 645.226 16.14 644.506 16.14C643.768 16.14 643.192 16.716 643.192 17.454C643.192 18.192 643.768 18.768 644.506 18.768ZM655.246 30H657.28V24.15C657.28 21.378 655.534 19.92 653.212 19.92C652.024 19.92 650.926 20.406 650.26 21.216V20.082H648.208V30H650.26V24.456C650.26 22.638 651.25 21.702 652.762 21.702C654.256 21.702 655.246 22.638 655.246 24.456V30ZM659.214 24.996C659.214 28.056 661.284 30.162 663.894 30.162C665.514 30.162 666.702 29.352 667.332 28.506V30.162C667.332 32.142 666.144 33.114 664.56 33.114C663.138 33.114 662.04 32.412 661.734 31.386H659.7C659.952 33.582 661.914 34.896 664.56 34.896C667.656 34.896 669.402 32.862 669.402 30.162V20.082H667.332V21.522C666.72 20.676 665.514 19.92 663.894 19.92C661.284 19.92 659.214 21.936 659.214 24.996ZM667.332 25.032C667.332 27.174 665.874 28.38 664.326 28.38C662.796 28.38 661.32 27.138 661.32 24.996C661.32 22.854 662.796 21.702 664.326 21.702C665.874 21.702 667.332 22.908 667.332 25.032ZM676.773 30H678.825V21.432L682.659 30H684.081L687.897 21.432V30H689.949V17.49H687.753L683.379 27.3L678.987 17.49H676.773V30ZM691.962 24.996C691.962 28.056 694.032 30.162 696.606 30.162C698.262 30.162 699.45 29.37 700.08 28.524V30H702.15V20.082H700.08V21.522C699.468 20.712 698.316 19.92 696.642 19.92C694.032 19.92 691.962 21.936 691.962 24.996ZM700.08 25.032C700.08 27.174 698.622 28.38 697.074 28.38C695.544 28.38 694.068 27.138 694.068 24.996C694.068 22.854 695.544 21.702 697.074 21.702C698.622 21.702 700.08 22.908 700.08 25.032ZM711.883 30H713.917V24.15C713.917 21.378 712.171 19.92 709.849 19.92C708.661 19.92 707.563 20.406 706.897 21.216V20.082H704.845V30H706.897V24.456C706.897 22.638 707.887 21.702 709.399 21.702C710.893 21.702 711.883 22.638 711.883 24.456V30ZM715.851 24.996C715.851 28.056 717.921 30.162 720.495 30.162C722.151 30.162 723.339 29.37 723.969 28.524V30H726.039V20.082H723.969V21.522C723.357 20.712 722.205 19.92 720.531 19.92C717.921 19.92 715.851 21.936 715.851 24.996ZM723.969 25.032C723.969 27.174 722.511 28.38 720.963 28.38C719.433 28.38 717.957 27.138 717.957 24.996C717.957 22.854 719.433 21.702 720.963 21.702C722.511 21.702 723.969 22.908 723.969 25.032ZM728.05 24.996C728.05 28.056 730.12 30.162 732.73 30.162C734.35 30.162 735.538 29.352 736.168 28.506V30.162C736.168 32.142 734.98 33.114 733.396 33.114C731.974 33.114 730.876 32.412 730.57 31.386H728.536C728.788 33.582 730.75 34.896 733.396 34.896C736.492 34.896 738.238 32.862 738.238 30.162V20.082H736.168V21.522C735.556 20.676 734.35 19.92 732.73 19.92C730.12 19.92 728.05 21.936 728.05 24.996ZM736.168 25.032C736.168 27.174 734.71 28.38 733.162 28.38C731.632 28.38 730.156 27.138 730.156 24.996C730.156 22.854 731.632 21.702 733.162 21.702C734.71 21.702 736.168 22.908 736.168 25.032ZM745.109 21.648C746.639 21.648 747.845 22.62 747.881 24.15H742.391C742.607 22.584 743.723 21.648 745.109 21.648ZM749.753 27.048H747.539C747.161 27.822 746.459 28.434 745.199 28.434C743.687 28.434 742.517 27.444 742.373 25.806H749.951C750.005 25.464 750.023 25.14 750.023 24.798C750.023 21.882 748.025 19.92 745.199 19.92C742.265 19.92 740.249 21.918 740.249 25.032C740.249 28.146 742.355 30.162 745.199 30.162C747.629 30.162 749.195 28.776 749.753 27.048ZM754.094 24.78C754.094 22.674 755.03 22.044 756.542 22.044H757.064V19.92C755.66 19.92 754.67 20.532 754.094 21.522V20.082H752.042V30H754.094V24.78Z" fill="#212832"/>
<circle cx="436.415" cy="24.4151" r="23.4151" fill="#A9CF54" stroke="#A9CF54"/>
<path d="M426.136 24.17C426.136 28.1412 427.185 31.1383 431.007 31.1383C434.828 31.1383 435.877 28.1412 435.877 24.17C435.877 20.2737 434.828 17.2766 431.007 17.2766C427.185 17.2766 426.136 20.2737 426.136 24.17ZM433.779 24.17C433.779 26.8487 433.498 29.1902 431.007 29.1902C428.515 29.1902 428.234 26.8487 428.234 24.17C428.234 21.6224 428.515 19.2247 431.007 19.2247C433.498 19.2247 433.779 21.6224 433.779 24.17ZM437.968 30.9885H447.072V29.2089H441.134C443.325 27.2046 446.697 24.6758 446.697 21.3602C446.697 18.9063 445.124 17.2391 442.351 17.2391C439.935 17.2391 438.024 18.6815 437.949 21.6412H440.01C440.066 20.1051 440.871 19.0561 442.37 19.0561C443.962 19.0561 444.58 20.0302 444.58 21.4538C444.58 24.1325 441.19 26.6052 437.968 29.4337V30.9885Z" fill="#212832"/>
<g filter="url(#filter6_d_953_493)">
<rect x="860" y="1" width="365" height="47" fill="white" shape-rendering="crispEdges"/>
<rect x="859.766" y="0.765849" width="365.468" height="47.4683" stroke="black" stroke-opacity="0.2" stroke-width="0.468302" shape-rendering="crispEdges"/>
</g>
<path d="M1225 1H1223V48H1225V1Z" fill="#3498DB" stroke="#3498DB" stroke-width="0.936604"/>
<path d="M946.003 23.718C946.003 27.48 948.865 30.108 952.393 30.108C955.003 30.108 957.253 28.812 958.207 26.364H955.741C955.075 27.696 953.887 28.326 952.393 28.326C949.909 28.326 948.109 26.544 948.109 23.718C948.109 20.892 949.909 19.128 952.393 19.128C953.887 19.128 955.075 19.758 955.741 21.09H958.207C957.253 18.642 955.003 17.328 952.393 17.328C948.865 17.328 946.003 19.974 946.003 23.718ZM959.925 24.996C959.925 28.056 961.995 30.162 964.569 30.162C966.225 30.162 967.413 29.37 968.043 28.524V30H970.113V20.082H968.043V21.522C967.431 20.712 966.279 19.92 964.605 19.92C961.995 19.92 959.925 21.936 959.925 24.996ZM968.043 25.032C968.043 27.174 966.585 28.38 965.037 28.38C963.507 28.38 962.031 27.138 962.031 24.996C962.031 22.854 963.507 21.702 965.037 21.702C966.585 21.702 968.043 22.908 968.043 25.032ZM986.866 30H988.9V24.15C988.9 21.378 987.136 19.92 984.814 19.92C983.374 19.92 981.97 20.676 981.358 21.882C980.674 20.586 979.36 19.92 977.794 19.92C976.606 19.92 975.526 20.406 974.86 21.216V20.082H972.808V30H974.86V24.456C974.86 22.638 975.85 21.702 977.362 21.702C978.856 21.702 979.846 22.638 979.846 24.456V30H981.88V24.456C981.88 22.638 982.87 21.702 984.382 21.702C985.876 21.702 986.866 22.638 986.866 24.456V30ZM993.563 21.54V20.082H991.511V34.716H993.563V28.56C994.211 29.334 995.381 30.162 997.019 30.162C999.629 30.162 1001.68 28.056 1001.68 24.996C1001.68 21.936 999.629 19.92 997.019 19.92C995.399 19.92 994.193 20.712 993.563 21.54ZM999.593 24.996C999.593 27.138 998.117 28.38 996.569 28.38C995.039 28.38 993.563 27.174 993.563 25.032C993.563 22.908 995.039 21.702 996.569 21.702C998.117 21.702 999.593 22.854 999.593 24.996ZM1003.03 24.996C1003.03 28.056 1005.1 30.162 1007.67 30.162C1009.33 30.162 1010.51 29.37 1011.14 28.524V30H1013.21V20.082H1011.14V21.522C1010.53 20.712 1009.38 19.92 1007.71 19.92C1005.1 19.92 1003.03 21.936 1003.03 24.996ZM1011.14 25.032C1011.14 27.174 1009.69 28.38 1008.14 28.38C1006.61 28.38 1005.13 27.138 1005.13 24.996C1005.13 22.854 1006.61 21.702 1008.14 21.702C1009.69 21.702 1011.14 22.908 1011.14 25.032ZM1015.91 30H1017.96V20.082H1015.91V30ZM1016.95 18.768C1017.67 18.768 1018.25 18.192 1018.25 17.454C1018.25 16.716 1017.67 16.14 1016.95 16.14C1016.22 16.14 1015.64 16.716 1015.64 17.454C1015.64 18.192 1016.22 18.768 1016.95 18.768ZM1019.97 24.996C1019.97 28.056 1022.04 30.162 1024.65 30.162C1026.27 30.162 1027.46 29.352 1028.09 28.506V30.162C1028.09 32.142 1026.9 33.114 1025.32 33.114C1023.9 33.114 1022.8 32.412 1022.49 31.386H1020.46C1020.71 33.582 1022.67 34.896 1025.32 34.896C1028.41 34.896 1030.16 32.862 1030.16 30.162V20.082H1028.09V21.522C1027.48 20.676 1026.27 19.92 1024.65 19.92C1022.04 19.92 1019.97 21.936 1019.97 24.996ZM1028.09 25.032C1028.09 27.174 1026.63 28.38 1025.08 28.38C1023.55 28.38 1022.08 27.138 1022.08 24.996C1022.08 22.854 1023.55 21.702 1025.08 21.702C1026.63 21.702 1028.09 22.908 1028.09 25.032ZM1039.89 30H1041.93V24.15C1041.93 21.378 1040.18 19.92 1037.86 19.92C1036.67 19.92 1035.57 20.406 1034.91 21.216V20.082H1032.85V30H1034.91V24.456C1034.91 22.638 1035.9 21.702 1037.41 21.702C1038.9 21.702 1039.89 22.638 1039.89 24.456V30ZM1049.22 30H1051.27V21.432L1055.11 30H1056.53L1060.34 21.432V30H1062.4V17.49H1060.2L1055.83 27.3L1051.43 17.49H1049.22V30ZM1064.41 24.996C1064.41 28.056 1066.48 30.162 1069.05 30.162C1070.71 30.162 1071.9 29.37 1072.53 28.524V30H1074.6V20.082H1072.53V21.522C1071.92 20.712 1070.76 19.92 1069.09 19.92C1066.48 19.92 1064.41 21.936 1064.41 24.996ZM1072.53 25.032C1072.53 27.174 1071.07 28.38 1069.52 28.38C1067.99 28.38 1066.52 27.138 1066.52 24.996C1066.52 22.854 1067.99 21.702 1069.52 21.702C1071.07 21.702 1072.53 22.908 1072.53 25.032ZM1084.33 30H1086.36V24.15C1086.36 21.378 1084.62 19.92 1082.3 19.92C1081.11 19.92 1080.01 20.406 1079.34 21.216V20.082H1077.29V30H1079.34V24.456C1079.34 22.638 1080.33 21.702 1081.85 21.702C1083.34 21.702 1084.33 22.638 1084.33 24.456V30ZM1088.3 24.996C1088.3 28.056 1090.37 30.162 1092.94 30.162C1094.6 30.162 1095.79 29.37 1096.42 28.524V30H1098.49V20.082H1096.42V21.522C1095.8 20.712 1094.65 19.92 1092.98 19.92C1090.37 19.92 1088.3 21.936 1088.3 24.996ZM1096.42 25.032C1096.42 27.174 1094.96 28.38 1093.41 28.38C1091.88 28.38 1090.4 27.138 1090.4 24.996C1090.4 22.854 1091.88 21.702 1093.41 21.702C1094.96 21.702 1096.42 22.908 1096.42 25.032ZM1100.5 24.996C1100.5 28.056 1102.57 30.162 1105.18 30.162C1106.8 30.162 1107.99 29.352 1108.62 28.506V30.162C1108.62 32.142 1107.43 33.114 1105.84 33.114C1104.42 33.114 1103.32 32.412 1103.02 31.386H1100.98C1101.24 33.582 1103.2 34.896 1105.84 34.896C1108.94 34.896 1110.69 32.862 1110.69 30.162V20.082H1108.62V21.522C1108 20.676 1106.8 19.92 1105.18 19.92C1102.57 19.92 1100.5 21.936 1100.5 24.996ZM1108.62 25.032C1108.62 27.174 1107.16 28.38 1105.61 28.38C1104.08 28.38 1102.6 27.138 1102.6 24.996C1102.6 22.854 1104.08 21.702 1105.61 21.702C1107.16 21.702 1108.62 22.908 1108.62 25.032ZM1117.56 21.648C1119.09 21.648 1120.29 22.62 1120.33 24.15H1114.84C1115.05 22.584 1116.17 21.648 1117.56 21.648ZM1122.2 27.048H1119.99C1119.61 27.822 1118.91 28.434 1117.65 28.434C1116.13 28.434 1114.96 27.444 1114.82 25.806H1122.4C1122.45 25.464 1122.47 25.14 1122.47 24.798C1122.47 21.882 1120.47 19.92 1117.65 19.92C1114.71 19.92 1112.7 21.918 1112.7 25.032C1112.7 28.146 1114.8 30.162 1117.65 30.162C1120.08 30.162 1121.64 28.776 1122.2 27.048ZM1126.54 24.78C1126.54 22.674 1127.48 22.044 1128.99 22.044H1129.51V19.92C1128.11 19.92 1127.12 20.532 1126.54 21.522V20.082H1124.49V30H1126.54V24.78ZM1138.8 27.228C1138.69 23.646 1133.09 24.762 1133.09 22.764C1133.09 22.098 1133.67 21.648 1134.76 21.648C1135.88 21.648 1136.55 22.242 1136.62 23.106H1138.67C1138.56 21.126 1137.09 19.92 1134.84 19.92C1132.5 19.92 1131.02 21.198 1131.02 22.782C1131.02 26.418 1136.78 25.302 1136.78 27.246C1136.78 27.93 1136.15 28.434 1134.96 28.434C1133.83 28.434 1133.05 27.768 1132.98 26.958H1130.86C1130.95 28.758 1132.62 30.162 1135 30.162C1137.34 30.162 1138.8 28.902 1138.8 27.228Z" fill="#212832"/>
<circle cx="856.415" cy="24.415" r="23.415" fill="#3498DB" stroke="#3498DB"/>
<path d="M845.548 24.9942C845.548 28.9654 846.597 31.9625 850.418 31.9625C854.24 31.9625 855.289 28.9654 855.289 24.9942C855.289 21.0979 854.24 18.1008 850.418 18.1008C846.597 18.1008 845.548 21.0979 845.548 24.9942ZM853.191 24.9942C853.191 27.6729 852.91 30.0144 850.418 30.0144C847.927 30.0144 847.646 27.6729 847.646 24.9942C847.646 22.4466 847.927 20.0489 850.418 20.0489C852.91 20.0489 853.191 22.4466 853.191 24.9942ZM857.511 21.7161H859.59C859.721 20.7608 860.414 19.8616 861.913 19.8616C863.374 19.8616 864.142 20.6484 864.142 21.8285C864.142 23.2896 862.962 23.8515 861.032 23.8703H860.527V25.6311H861.014C863.243 25.6311 864.404 26.2493 864.404 28.0475C864.404 29.3213 863.617 30.2954 862.025 30.2954C860.414 30.2954 859.478 29.3213 859.384 28.0475H857.323C857.454 30.7262 859.459 32.0749 862.044 32.0749C864.891 32.0749 866.427 30.4265 866.427 28.2536C866.427 26.3616 865.509 25.1815 864.086 24.7507V24.6758C865.153 24.3198 866.184 23.2147 866.184 21.585C866.184 19.5994 864.704 18.0259 861.988 18.0259C859.496 18.0259 857.661 19.3558 857.511 21.7161Z" fill="#212832"/>
<defs>
<filter id="filter0_d_953_493" x="23.5312" y="0.531738" width="365.938" height="47.9365" filterUnits="userSpaceOnUse" color-interpolation-filters="sRGB">
<feFlood flood-opacity="0" result="BackgroundImageFix"/>
<feColorMatrix in="SourceAlpha" type="matrix" values="0 0 0 0 0 0 0 0 0 0 0 0 0 0 0 0 0 0 127 0" result="hardAlpha"/>
<feOffset/>
<feComposite in2="hardAlpha" operator="out"/>
<feColorMatrix type="matrix" values="0 0 0 0 0 0 0 0 0 0 0 0 0 0 0 0 0 0 0.1 0"/>
<feBlend mode="normal" in2="BackgroundImageFix" result="effect1_dropShadow_953_493"/>
<feBlend mode="normal" in="SourceGraphic" in2="effect1_dropShadow_953_493" result="shape"/>
</filter>
<filter id="filter1_d_953_493" x="23.5312" y="75.5317" width="365.938" height="47.9365" filterUnits="userSpaceOnUse" color-interpolation-filters="sRGB">
<feFlood flood-opacity="0" result="BackgroundImageFix"/>
<feColorMatrix in="SourceAlpha" type="matrix" values="0 0 0 0 0 0 0 0 0 0 0 0 0 0 0 0 0 0 127 0" result="hardAlpha"/>
<feOffset/>
<feComposite in2="hardAlpha" operator="out"/>
<feColorMatrix type="matrix" values="0 0 0 0 0 0 0 0 0 0 0 0 0 0 0 0 0 0 0.1 0"/>
<feBlend mode="normal" in2="BackgroundImageFix" result="effect1_dropShadow_953_493"/>
<feBlend mode="normal" in="SourceGraphic" in2="effect1_dropShadow_953_493" result="shape"/>
</filter>
<filter id="filter2_d_953_493" x="23.5312" y="150.532" width="365.938" height="47.9365" filterUnits="userSpaceOnUse" color-interpolation-filters="sRGB">
<feFlood flood-opacity="0" result="BackgroundImageFix"/>
<feColorMatrix in="SourceAlpha" type="matrix" values="0 0 0 0 0 0 0 0 0 0 0 0 0 0 0 0 0 0 127 0" result="hardAlpha"/>
<feOffset/>
<feComposite in2="hardAlpha" operator="out"/>
<feColorMatrix type="matrix" values="0 0 0 0 0 0 0 0 0 0 0 0 0 0 0 0 0 0 0.1 0"/>
<feBlend mode="normal" in2="BackgroundImageFix" result="effect1_dropShadow_953_493"/>
<feBlend mode="normal" in="SourceGraphic" in2="effect1_dropShadow_953_493" result="shape"/>
</filter>
<filter id="filter3_d_953_493" x="435.531" y="75.5317" width="365.938" height="47.9365" filterUnits="userSpaceOnUse" color-interpolation-filters="sRGB">
<feFlood flood-opacity="0" result="BackgroundImageFix"/>
<feColorMatrix in="SourceAlpha" type="matrix" values="0 0 0 0 0 0 0 0 0 0 0 0 0 0 0 0 0 0 127 0" result="hardAlpha"/>
<feOffset/>
<feComposite in2="hardAlpha" operator="out"/>
<feColorMatrix type="matrix" values="0 0 0 0 0 0 0 0 0 0 0 0 0 0 0 0 0 0 0.1 0"/>
<feBlend mode="normal" in2="BackgroundImageFix" result="effect1_dropShadow_953_493"/>
<feBlend mode="normal" in="SourceGraphic" in2="effect1_dropShadow_953_493" result="shape"/>
</filter>
<filter id="filter4_d_953_493" x="858.531" y="75.5317" width="365.938" height="47.9365" filterUnits="userSpaceOnUse" color-interpolation-filters="sRGB">
<feFlood flood-opacity="0" result="BackgroundImageFix"/>
<feColorMatrix in="SourceAlpha" type="matrix" values="0 0 0 0 0 0 0 0 0 0 0 0 0 0 0 0 0 0 127 0" result="hardAlpha"/>
<feOffset/>
<feComposite in2="hardAlpha" operator="out"/>
<feColorMatrix type="matrix" values="0 0 0 0 0 0 0 0 0 0 0 0 0 0 0 0 0 0 0.1 0"/>
<feBlend mode="normal" in2="BackgroundImageFix" result="effect1_dropShadow_953_493"/>
<feBlend mode="normal" in="SourceGraphic" in2="effect1_dropShadow_953_493" result="shape"/>
</filter>
<filter id="filter5_d_953_493" x="436.531" y="0.531738" width="365.938" height="47.9365" filterUnits="userSpaceOnUse" color-interpolation-filters="sRGB">
<feFlood flood-opacity="0" result="BackgroundImageFix"/>
<feColorMatrix in="SourceAlpha" type="matrix" values="0 0 0 0 0 0 0 0 0 0 0 0 0 0 0 0 0 0 127 0" result="hardAlpha"/>
<feOffset/>
<feComposite in2="hardAlpha" operator="out"/>
<feColorMatrix type="matrix" values="0 0 0 0 0 0 0 0 0 0 0 0 0 0 0 0 0 0 0.1 0"/>
<feBlend mode="normal" in2="BackgroundImageFix" result="effect1_dropShadow_953_493"/>
<feBlend mode="normal" in="SourceGraphic" in2="effect1_dropShadow_953_493" result="shape"/>
</filter>
<filter id="filter6_d_953_493" x="859.531" y="0.531738" width="365.938" height="47.9365" filterUnits="userSpaceOnUse" color-interpolation-filters="sRGB">
<feFlood flood-opacity="0" result="BackgroundImageFix"/>
<feColorMatrix in="SourceAlpha" type="matrix" values="0 0 0 0 0 0 0 0 0 0 0 0 0 0 0 0 0 0 127 0" result="hardAlpha"/>
<feOffset/>
<feComposite in2="hardAlpha" operator="out"/>
<feColorMatrix type="matrix" values="0 0 0 0 0 0 0 0 0 0 0 0 0 0 0 0 0 0 0.1 0"/>
<feBlend mode="normal" in2="BackgroundImageFix" result="effect1_dropShadow_953_493"/>
<feBlend mode="normal" in="SourceGraphic" in2="effect1_dropShadow_953_493" result="shape"/>
</filter>
</defs>
</svg>
