<svg width="1227" height="126" viewBox="0 0 1227 126" fill="none" xmlns="http://www.w3.org/2000/svg">
<g filter="url(#filter0_d_925_6297)">
<rect x="24" y="2" width="260" height="47" fill="white" shape-rendering="crispEdges"/>
<rect x="23.7658" y="1.76585" width="260.468" height="47.4683" stroke="black" stroke-opacity="0.2" stroke-width="0.468302" shape-rendering="crispEdges"/>
</g>
<path d="M106.691 18.49H102.605V31H106.691C110.705 31 113.333 28.642 113.333 24.79C113.333 20.92 110.705 18.49 106.691 18.49ZM104.657 29.326V20.164H106.691C109.643 20.164 111.227 21.928 111.227 24.79C111.227 27.634 109.643 29.326 106.691 29.326H104.657ZM114.683 25.996C114.683 29.056 116.753 31.162 119.327 31.162C120.983 31.162 122.171 30.37 122.801 29.524V31H124.871V21.082H122.801V22.522C122.189 21.712 121.037 20.92 119.363 20.92C116.753 20.92 114.683 22.936 114.683 25.996ZM122.801 26.032C122.801 28.174 121.343 29.38 119.795 29.38C118.265 29.38 116.789 28.138 116.789 25.996C116.789 23.854 118.265 22.702 119.795 22.702C121.343 22.702 122.801 23.908 122.801 26.032ZM127.89 28.246C127.89 30.262 128.988 31 130.752 31H132.372V29.29H131.112C130.248 29.29 129.96 28.984 129.96 28.246V22.756H132.372V21.082H129.96V18.616H127.89V21.082H126.72V22.756H127.89V28.246ZM133.579 25.996C133.579 29.056 135.649 31.162 138.223 31.162C139.879 31.162 141.067 30.37 141.697 29.524V31H143.767V21.082H141.697V22.522C141.085 21.712 139.933 20.92 138.259 20.92C135.649 20.92 133.579 22.936 133.579 25.996ZM141.697 26.032C141.697 28.174 140.239 29.38 138.691 29.38C137.161 29.38 135.685 28.138 135.685 25.996C135.685 23.854 137.161 22.702 138.691 22.702C140.239 22.702 141.697 23.908 141.697 26.032ZM159.58 27.454C159.58 22.882 152.956 24.646 152.956 21.82C152.956 20.614 153.874 20.038 155.062 20.074C156.358 20.11 157.096 20.884 157.168 21.73H159.436C159.256 19.588 157.564 18.328 155.17 18.328C152.614 18.328 150.868 19.696 150.868 21.892C150.868 26.5 157.51 24.538 157.51 27.562C157.51 28.624 156.7 29.398 155.26 29.398C153.838 29.398 153.118 28.57 153.028 27.544H150.832C150.832 29.758 152.758 31.126 155.26 31.126C158.05 31.126 159.58 29.326 159.58 27.454ZM161.317 26.032C161.317 29.146 163.333 31.162 166.177 31.162C168.607 31.162 170.191 29.812 170.749 27.868H168.535C168.157 28.894 167.401 29.434 166.177 29.434C164.521 29.434 163.423 28.21 163.423 26.032C163.423 23.872 164.521 22.648 166.177 22.648C167.401 22.648 168.193 23.26 168.535 24.214H170.749C170.191 22.126 168.607 20.92 166.177 20.92C163.333 20.92 161.317 22.936 161.317 26.032ZM172.794 31H174.846V21.082H172.794V31ZM173.838 19.768C174.558 19.768 175.134 19.192 175.134 18.454C175.134 17.716 174.558 17.14 173.838 17.14C173.1 17.14 172.524 17.716 172.524 18.454C172.524 19.192 173.1 19.768 173.838 19.768ZM181.716 22.648C183.246 22.648 184.452 23.62 184.488 25.15H178.998C179.214 23.584 180.33 22.648 181.716 22.648ZM186.36 28.048H184.146C183.768 28.822 183.066 29.434 181.806 29.434C180.294 29.434 179.124 28.444 178.98 26.806H186.558C186.612 26.464 186.63 26.14 186.63 25.798C186.63 22.882 184.632 20.92 181.806 20.92C178.872 20.92 176.856 22.918 176.856 26.032C176.856 29.146 178.962 31.162 181.806 31.162C184.236 31.162 185.802 29.776 186.36 28.048ZM195.688 31H197.722V25.15C197.722 22.378 195.976 20.92 193.654 20.92C192.466 20.92 191.368 21.406 190.702 22.216V21.082H188.65V31H190.702V25.456C190.702 23.638 191.692 22.702 193.204 22.702C194.698 22.702 195.688 23.638 195.688 25.456V31ZM200.663 28.246C200.663 30.262 201.761 31 203.525 31H205.145V29.29H203.885C203.021 29.29 202.733 28.984 202.733 28.246V22.756H205.145V21.082H202.733V18.616H200.663V21.082H199.493V22.756H200.663V28.246ZM207.037 31H209.089V21.082H207.037V31ZM208.081 19.768C208.801 19.768 209.377 19.192 209.377 18.454C209.377 17.716 208.801 17.14 208.081 17.14C207.343 17.14 206.767 17.716 206.767 18.454C206.767 19.192 207.343 19.768 208.081 19.768ZM219.181 28.228C219.073 24.646 213.475 25.762 213.475 23.764C213.475 23.098 214.051 22.648 215.149 22.648C216.265 22.648 216.931 23.242 217.003 24.106H219.055C218.947 22.126 217.471 20.92 215.221 20.92C212.881 20.92 211.405 22.198 211.405 23.782C211.405 27.418 217.165 26.302 217.165 28.246C217.165 28.93 216.535 29.434 215.347 29.434C214.213 29.434 213.439 28.768 213.367 27.958H211.243C211.333 29.758 213.007 31.162 215.383 31.162C217.723 31.162 219.181 29.902 219.181 28.228ZM221.722 28.246C221.722 30.262 222.82 31 224.584 31H226.204V29.29H224.944C224.08 29.29 223.792 28.984 223.792 28.246V22.756H226.204V21.082H223.792V18.616H221.722V21.082H220.552V22.756H221.722V28.246Z" fill="#212832"/>
<path d="M284 2H283V49H284V2Z" fill="#946FB0" stroke="#946FB0" stroke-width="0.936604"/>
<circle cx="24.4151" cy="25.4151" r="23.4151" fill="#946FB0" stroke="#946FB0"/>
<path d="M16.3494 24.9942C16.3494 28.9654 17.3983 31.9625 21.2197 31.9625C25.041 31.9625 26.09 28.9654 26.09 24.9942C26.09 21.0979 25.041 18.1008 21.2197 18.1008C17.3983 18.1008 16.3494 21.0979 16.3494 24.9942ZM23.992 24.9942C23.992 27.6729 23.7111 30.0144 21.2197 30.0144C18.7283 30.0144 18.4473 27.6729 18.4473 24.9942C18.4473 22.4466 18.7283 20.0489 21.2197 20.0489C23.7111 20.0489 23.992 22.4466 23.992 24.9942ZM29.8107 32H31.9649V18.3443H28.0686V20.2925H29.8107V32Z" fill="#212832"/>
<g filter="url(#filter1_d_925_6297)">
<rect x="965" y="1" width="260" height="47" fill="white" shape-rendering="crispEdges"/>
<rect x="964.766" y="0.765849" width="260.468" height="47.4683" stroke="black" stroke-opacity="0.2" stroke-width="0.468302" shape-rendering="crispEdges"/>
</g>
<path d="M1030.77 18.49H1026.69V31H1030.77C1034.79 31 1037.41 28.642 1037.41 24.79C1037.41 20.92 1034.79 18.49 1030.77 18.49ZM1028.74 29.326V20.164H1030.77C1033.72 20.164 1035.31 21.928 1035.31 24.79C1035.31 27.634 1033.72 29.326 1030.77 29.326H1028.74ZM1038.76 25.996C1038.76 29.056 1040.83 31.162 1043.41 31.162C1045.06 31.162 1046.25 30.37 1046.88 29.524V31H1048.95V21.082H1046.88V22.522C1046.27 21.712 1045.12 20.92 1043.44 20.92C1040.83 20.92 1038.76 22.936 1038.76 25.996ZM1046.88 26.032C1046.88 28.174 1045.42 29.38 1043.88 29.38C1042.35 29.38 1040.87 28.138 1040.87 25.996C1040.87 23.854 1042.35 22.702 1043.88 22.702C1045.42 22.702 1046.88 23.908 1046.88 26.032ZM1051.97 28.246C1051.97 30.262 1053.07 31 1054.83 31H1056.45V29.29H1055.19C1054.33 29.29 1054.04 28.984 1054.04 28.246V22.756H1056.45V21.082H1054.04V18.616H1051.97V21.082H1050.8V22.756H1051.97V28.246ZM1057.66 25.996C1057.66 29.056 1059.73 31.162 1062.31 31.162C1063.96 31.162 1065.15 30.37 1065.78 29.524V31H1067.85V21.082H1065.78V22.522C1065.17 21.712 1064.02 20.92 1062.34 20.92C1059.73 20.92 1057.66 22.936 1057.66 25.996ZM1065.78 26.032C1065.78 28.174 1064.32 29.38 1062.77 29.38C1061.24 29.38 1059.77 28.138 1059.77 25.996C1059.77 23.854 1061.24 22.702 1062.77 22.702C1064.32 22.702 1065.78 23.908 1065.78 26.032ZM1079.31 18.49H1075.22V31H1079.31C1083.32 31 1085.95 28.642 1085.95 24.79C1085.95 20.92 1083.32 18.49 1079.31 18.49ZM1077.27 29.326V20.164H1079.31C1082.26 20.164 1083.84 21.928 1083.84 24.79C1083.84 27.634 1082.26 29.326 1079.31 29.326H1077.27ZM1092.16 22.648C1093.69 22.648 1094.89 23.62 1094.93 25.15H1089.44C1089.66 23.584 1090.77 22.648 1092.16 22.648ZM1096.8 28.048H1094.59C1094.21 28.822 1093.51 29.434 1092.25 29.434C1090.74 29.434 1089.57 28.444 1089.42 26.806H1097C1097.05 26.464 1097.07 26.14 1097.07 25.798C1097.07 22.882 1095.07 20.92 1092.25 20.92C1089.31 20.92 1087.3 22.918 1087.3 26.032C1087.3 29.146 1089.4 31.162 1092.25 31.162C1094.68 31.162 1096.24 29.776 1096.8 28.048ZM1097.92 21.082L1101.68 31H1104.13L1107.91 21.082H1105.73L1102.93 29.164L1100.12 21.082H1097.92ZM1113.64 22.648C1115.17 22.648 1116.37 23.62 1116.41 25.15H1110.92C1111.14 23.584 1112.25 22.648 1113.64 22.648ZM1118.28 28.048H1116.07C1115.69 28.822 1114.99 29.434 1113.73 29.434C1112.22 29.434 1111.05 28.444 1110.9 26.806H1118.48C1118.53 26.464 1118.55 26.14 1118.55 25.798C1118.55 22.882 1116.55 20.92 1113.73 20.92C1110.79 20.92 1108.78 22.918 1108.78 26.032C1108.78 29.146 1110.88 31.162 1113.73 31.162C1116.16 31.162 1117.72 29.776 1118.28 28.048ZM1120.57 31H1122.62V17.68H1120.57V31ZM1134.77 26.032C1134.77 22.918 1132.54 20.92 1129.71 20.92C1126.88 20.92 1124.65 22.918 1124.65 26.032C1124.65 29.146 1126.79 31.162 1129.62 31.162C1132.46 31.162 1134.77 29.146 1134.77 26.032ZM1126.74 26.032C1126.74 23.782 1128.13 22.702 1129.67 22.702C1131.2 22.702 1132.66 23.782 1132.66 26.032C1132.66 28.282 1131.15 29.38 1129.62 29.38C1128.07 29.38 1126.74 28.282 1126.74 26.032ZM1138.85 22.54V21.082H1136.8V35.716H1138.85V29.56C1139.5 30.334 1140.67 31.162 1142.3 31.162C1144.91 31.162 1146.97 29.056 1146.97 25.996C1146.97 22.936 1144.91 20.92 1142.3 20.92C1140.68 20.92 1139.48 21.712 1138.85 22.54ZM1144.88 25.996C1144.88 28.138 1143.4 29.38 1141.85 29.38C1140.32 29.38 1138.85 28.174 1138.85 26.032C1138.85 23.908 1140.32 22.702 1141.85 22.702C1143.4 22.702 1144.88 23.854 1144.88 25.996ZM1153.17 22.648C1154.7 22.648 1155.91 23.62 1155.94 25.15H1150.45C1150.67 23.584 1151.79 22.648 1153.17 22.648ZM1157.82 28.048H1155.6C1155.22 28.822 1154.52 29.434 1153.26 29.434C1151.75 29.434 1150.58 28.444 1150.44 26.806H1158.01C1158.07 26.464 1158.09 26.14 1158.09 25.798C1158.09 22.882 1156.09 20.92 1153.26 20.92C1150.33 20.92 1148.31 22.918 1148.31 26.032C1148.31 29.146 1150.42 31.162 1153.26 31.162C1155.69 31.162 1157.26 29.776 1157.82 28.048ZM1162.16 25.78C1162.16 23.674 1163.09 23.044 1164.6 23.044H1165.13V20.92C1163.72 20.92 1162.73 21.532 1162.16 22.522V21.082H1160.1V31H1162.16V25.78Z" fill="#212832"/>
<path d="M1225 1H1223V48H1225V1Z" fill="#CF1C54" stroke="#CF1C54" stroke-width="0.936604"/>
<circle cx="965.415" cy="24.4151" r="23.4151" fill="#E9336C" stroke="#E9336C"/>
<path d="M954.47 24.6055C954.47 28.5767 955.519 31.5739 959.34 31.5739C963.162 31.5739 964.211 28.5767 964.211 24.6055C964.211 20.7093 963.162 17.7121 959.34 17.7121C955.519 17.7121 954.47 20.7093 954.47 24.6055ZM962.113 24.6055C962.113 27.2842 961.832 29.6257 959.34 29.6257C956.849 29.6257 956.568 27.2842 956.568 24.6055C956.568 22.058 956.849 19.6603 959.34 19.6603C961.832 19.6603 962.113 22.058 962.113 24.6055ZM972.989 31.6113H975.087V28.7641H976.829V26.9096H975.087V18.1242H972.502L966.208 27.1531V28.7641H972.989V31.6113ZM968.662 26.9096L973.083 20.2972V26.9096H968.662Z" fill="#212832"/>
<g filter="url(#filter2_d_925_6297)">
<rect x="861" y="78" width="365" height="47" fill="white" shape-rendering="crispEdges"/>
<rect x="860.766" y="77.7658" width="365.468" height="47.4683" stroke="black" stroke-opacity="0.2" stroke-width="0.468302" shape-rendering="crispEdges"/>
</g>
<path d="M943.819 95.49H939.733V108H943.819C947.833 108 950.461 105.642 950.461 101.79C950.461 97.92 947.833 95.49 943.819 95.49ZM941.785 106.326V97.164H943.819C946.771 97.164 948.355 98.928 948.355 101.79C948.355 104.634 946.771 106.326 943.819 106.326H941.785ZM951.45 102.996C951.45 106.056 953.52 108.162 956.094 108.162C957.75 108.162 958.938 107.37 959.568 106.524V108H961.638V98.082H959.568V99.522C958.956 98.712 957.804 97.92 956.13 97.92C953.52 97.92 951.45 99.936 951.45 102.996ZM959.568 103.032C959.568 105.174 958.11 106.38 956.562 106.38C955.032 106.38 953.556 105.138 953.556 102.996C953.556 100.854 955.032 99.702 956.562 99.702C958.11 99.702 959.568 100.908 959.568 103.032ZM964.297 105.246C964.297 107.262 965.395 108 967.159 108H968.779V106.29H967.519C966.655 106.29 966.367 105.984 966.367 105.246V99.756H968.779V98.082H966.367V95.616H964.297V98.082H963.127V99.756H964.297V105.246ZM969.627 102.996C969.627 106.056 971.697 108.162 974.271 108.162C975.927 108.162 977.115 107.37 977.745 106.524V108H979.815V98.082H977.745V99.522C977.133 98.712 975.981 97.92 974.307 97.92C971.697 97.92 969.627 99.936 969.627 102.996ZM977.745 103.032C977.745 105.174 976.287 106.38 974.739 106.38C973.209 106.38 971.733 105.138 971.733 102.996C971.733 100.854 973.209 99.702 974.739 99.702C976.287 99.702 977.745 100.908 977.745 103.032ZM984.202 99.558V94.68H982.15V108H984.202V106.56C984.85 107.424 986.02 108.162 987.658 108.162C990.268 108.162 992.32 106.056 992.32 102.996C992.32 99.936 990.286 97.92 987.658 97.92C986.092 97.92 984.85 98.658 984.202 99.558ZM990.232 102.996C990.232 105.138 988.756 106.38 987.208 106.38C985.678 106.38 984.202 105.174 984.202 103.032C984.202 100.908 985.678 99.702 987.208 99.702C988.756 99.702 990.232 100.854 990.232 102.996ZM993.305 102.996C993.305 106.056 995.375 108.162 997.949 108.162C999.605 108.162 1000.79 107.37 1001.42 106.524V108H1003.49V98.082H1001.42V99.522C1000.81 98.712 999.659 97.92 997.985 97.92C995.375 97.92 993.305 99.936 993.305 102.996ZM1001.42 103.032C1001.42 105.174 999.965 106.38 998.417 106.38C996.887 106.38 995.411 105.138 995.411 102.996C995.411 100.854 996.887 99.702 998.417 99.702C999.965 99.702 1001.42 100.908 1001.42 103.032ZM1013.23 105.228C1013.12 101.646 1007.52 102.762 1007.52 100.764C1007.52 100.098 1008.1 99.648 1009.19 99.648C1010.31 99.648 1010.98 100.242 1011.05 101.106H1013.1C1012.99 99.126 1011.52 97.92 1009.27 97.92C1006.93 97.92 1005.45 99.198 1005.45 100.782C1005.45 104.418 1011.21 103.302 1011.21 105.246C1011.21 105.93 1010.58 106.434 1009.39 106.434C1008.26 106.434 1007.48 105.768 1007.41 104.958H1005.29C1005.38 106.758 1007.05 108.162 1009.43 108.162C1011.77 108.162 1013.23 106.902 1013.23 105.228ZM1019.26 99.648C1020.79 99.648 1022 100.62 1022.03 102.15H1016.54C1016.76 100.584 1017.87 99.648 1019.26 99.648ZM1023.9 105.048H1021.69C1021.31 105.822 1020.61 106.434 1019.35 106.434C1017.84 106.434 1016.67 105.444 1016.52 103.806H1024.1C1024.16 103.464 1024.17 103.14 1024.17 102.798C1024.17 99.882 1022.18 97.92 1019.35 97.92C1016.42 97.92 1014.4 99.918 1014.4 103.032C1014.4 106.146 1016.51 108.162 1019.35 108.162C1021.78 108.162 1023.35 106.776 1023.9 105.048ZM1038.59 108H1040.75L1036.27 95.472H1033.89L1029.41 108H1031.55L1032.45 105.444H1037.69L1038.59 108ZM1037.11 103.77H1033.03L1035.08 97.956L1037.11 103.77ZM1041.66 102.996C1041.66 106.056 1043.73 108.162 1046.34 108.162C1047.96 108.162 1049.14 107.406 1049.77 106.506V108H1051.84V94.68H1049.77V99.468C1049.02 98.532 1047.65 97.92 1046.35 97.92C1043.73 97.92 1041.66 99.936 1041.66 102.996ZM1049.77 103.032C1049.77 105.174 1048.32 106.38 1046.77 106.38C1045.24 106.38 1043.76 105.138 1043.76 102.996C1043.76 100.854 1045.24 99.702 1046.77 99.702C1048.32 99.702 1049.77 100.908 1049.77 103.032ZM1068.24 108H1070.27V102.15C1070.27 99.378 1068.51 97.92 1066.18 97.92C1064.74 97.92 1063.34 98.676 1062.73 99.882C1062.04 98.586 1060.73 97.92 1059.16 97.92C1057.98 97.92 1056.9 98.406 1056.23 99.216V98.082H1054.18V108H1056.23V102.456C1056.23 100.638 1057.22 99.702 1058.73 99.702C1060.23 99.702 1061.22 100.638 1061.22 102.456V108H1063.25V102.456C1063.25 100.638 1064.24 99.702 1065.75 99.702C1067.25 99.702 1068.24 100.638 1068.24 102.456V108ZM1072.52 108H1074.57V98.082H1072.52V108ZM1073.57 96.768C1074.29 96.768 1074.86 96.192 1074.86 95.454C1074.86 94.716 1074.29 94.14 1073.57 94.14C1072.83 94.14 1072.25 94.716 1072.25 95.454C1072.25 96.192 1072.83 96.768 1073.57 96.768ZM1083.95 108H1085.98V102.15C1085.98 99.378 1084.23 97.92 1081.91 97.92C1080.72 97.92 1079.63 98.406 1078.96 99.216V98.082H1076.91V108H1078.96V102.456C1078.96 100.638 1079.95 99.702 1081.46 99.702C1082.96 99.702 1083.95 100.638 1083.95 102.456V108ZM1088.24 108H1090.29V98.082H1088.24V108ZM1089.28 96.768C1090 96.768 1090.58 96.192 1090.58 95.454C1090.58 94.716 1090 94.14 1089.28 94.14C1088.54 94.14 1087.97 94.716 1087.97 95.454C1087.97 96.192 1088.54 96.768 1089.28 96.768ZM1100.02 105.228C1099.91 101.646 1094.32 102.762 1094.32 100.764C1094.32 100.098 1094.89 99.648 1095.99 99.648C1097.11 99.648 1097.77 100.242 1097.84 101.106H1099.9C1099.79 99.126 1098.31 97.92 1096.06 97.92C1093.72 97.92 1092.25 99.198 1092.25 100.782C1092.25 104.418 1098.01 103.302 1098.01 105.246C1098.01 105.93 1097.38 106.434 1096.19 106.434C1095.05 106.434 1094.28 105.768 1094.21 104.958H1092.08C1092.17 106.758 1093.85 108.162 1096.22 108.162C1098.56 108.162 1100.02 106.902 1100.02 105.228ZM1102.2 105.246C1102.2 107.262 1103.3 108 1105.06 108H1106.68V106.29H1105.42C1104.56 106.29 1104.27 105.984 1104.27 105.246V99.756H1106.68V98.082H1104.27V95.616H1102.2V98.082H1101.03V99.756H1102.2V105.246ZM1110.27 102.78C1110.27 100.674 1111.2 100.044 1112.72 100.044H1113.24V97.92C1111.83 97.92 1110.84 98.532 1110.27 99.522V98.082H1108.22V108H1110.27V102.78ZM1114.08 102.996C1114.08 106.056 1116.15 108.162 1118.72 108.162C1120.38 108.162 1121.57 107.37 1122.2 106.524V108H1124.27V98.082H1122.2V99.522C1121.59 98.712 1120.43 97.92 1118.76 97.92C1116.15 97.92 1114.08 99.936 1114.08 102.996ZM1122.2 103.032C1122.2 105.174 1120.74 106.38 1119.19 106.38C1117.66 106.38 1116.19 105.138 1116.19 102.996C1116.19 100.854 1117.66 99.702 1119.19 99.702C1120.74 99.702 1122.2 100.908 1122.2 103.032ZM1126.93 105.246C1126.93 107.262 1128.03 108 1129.79 108H1131.41V106.29H1130.15C1129.29 106.29 1129 105.984 1129 105.246V99.756H1131.41V98.082H1129V95.616H1126.93V98.082H1125.76V99.756H1126.93V105.246ZM1142.39 103.032C1142.39 99.918 1140.16 97.92 1137.33 97.92C1134.51 97.92 1132.27 99.918 1132.27 103.032C1132.27 106.146 1134.42 108.162 1137.24 108.162C1140.09 108.162 1142.39 106.146 1142.39 103.032ZM1134.36 103.032C1134.36 100.782 1135.75 99.702 1137.3 99.702C1138.83 99.702 1140.28 100.782 1140.28 103.032C1140.28 105.282 1138.77 106.38 1137.24 106.38C1135.69 106.38 1134.36 105.282 1134.36 103.032ZM1146.11 102.78C1146.11 100.674 1147.05 100.044 1148.56 100.044H1149.08V97.92C1147.68 97.92 1146.69 98.532 1146.11 99.522V98.082H1144.06V108H1146.11V102.78Z" fill="#212832"/>
<path d="M1226 78H1224V125H1226V78Z" fill="#FFDC5F" stroke="#FFDC5F" stroke-width="0.936604"/>
<circle cx="861.415" cy="101.415" r="23.4151" fill="#FFDC5F" stroke="#FFDC5F"/>
<path d="M851.293 101.606C851.293 105.577 852.342 108.574 856.163 108.574C859.985 108.574 861.034 105.577 861.034 101.606C861.034 97.7093 859.985 94.7121 856.163 94.7121C852.342 94.7121 851.293 97.7093 851.293 101.606ZM858.936 101.606C858.936 104.284 858.655 106.626 856.163 106.626C853.672 106.626 853.391 104.284 853.391 101.606C853.391 99.058 853.672 96.6603 856.163 96.6603C858.655 96.6603 858.936 99.058 858.936 101.606ZM862.919 95.0118V96.8289H869.85L864.586 108.611H866.74L871.948 96.6041V95.0118H862.919Z" fill="#212832"/>
<g filter="url(#filter3_d_925_6297)">
<rect x="24" y="77" width="365" height="47" fill="white" shape-rendering="crispEdges"/>
<rect x="23.7658" y="76.7658" width="365.468" height="47.4683" stroke="black" stroke-opacity="0.2" stroke-width="0.468302" shape-rendering="crispEdges"/>
</g>
<path d="M118.795 94.49H114.709V107H118.795C122.809 107 125.437 104.642 125.437 100.79C125.437 96.92 122.809 94.49 118.795 94.49ZM116.761 105.326V96.164H118.795C121.747 96.164 123.331 97.928 123.331 100.79C123.331 103.634 121.747 105.326 118.795 105.326H116.761ZM126.787 101.996C126.787 105.056 128.857 107.162 131.431 107.162C133.087 107.162 134.275 106.37 134.905 105.524V107H136.975V97.082H134.905V98.522C134.293 97.712 133.141 96.92 131.467 96.92C128.857 96.92 126.787 98.936 126.787 101.996ZM134.905 102.032C134.905 104.174 133.447 105.38 131.899 105.38C130.369 105.38 128.893 104.138 128.893 101.996C128.893 99.854 130.369 98.702 131.899 98.702C133.447 98.702 134.905 99.908 134.905 102.032ZM139.994 104.246C139.994 106.262 141.092 107 142.856 107H144.476V105.29H143.216C142.352 105.29 142.064 104.984 142.064 104.246V98.756H144.476V97.082H142.064V94.616H139.994V97.082H138.824V98.756H139.994V104.246ZM145.684 101.996C145.684 105.056 147.754 107.162 150.328 107.162C151.984 107.162 153.172 106.37 153.802 105.524V107H155.872V97.082H153.802V98.522C153.19 97.712 152.038 96.92 150.364 96.92C147.754 96.92 145.684 98.936 145.684 101.996ZM153.802 102.032C153.802 104.174 152.344 105.38 150.796 105.38C149.266 105.38 147.79 104.138 147.79 101.996C147.79 99.854 149.266 98.702 150.796 98.702C152.344 98.702 153.802 99.908 153.802 102.032ZM171.685 103.454C171.685 98.882 165.061 100.646 165.061 97.82C165.061 96.614 165.979 96.038 167.167 96.074C168.463 96.11 169.201 96.884 169.273 97.73H171.541C171.361 95.588 169.669 94.328 167.275 94.328C164.719 94.328 162.973 95.696 162.973 97.892C162.973 102.5 169.615 100.538 169.615 103.562C169.615 104.624 168.805 105.398 167.365 105.398C165.943 105.398 165.223 104.57 165.133 103.544H162.937C162.937 105.758 164.863 107.126 167.365 107.126C170.155 107.126 171.685 105.326 171.685 103.454ZM173.422 102.032C173.422 105.146 175.438 107.162 178.282 107.162C180.712 107.162 182.296 105.812 182.854 103.868H180.64C180.262 104.894 179.506 105.434 178.282 105.434C176.626 105.434 175.528 104.21 175.528 102.032C175.528 99.872 176.626 98.648 178.282 98.648C179.506 98.648 180.298 99.26 180.64 100.214H182.854C182.296 98.126 180.712 96.92 178.282 96.92C175.438 96.92 173.422 98.936 173.422 102.032ZM184.899 107H186.951V97.082H184.899V107ZM185.943 95.768C186.663 95.768 187.239 95.192 187.239 94.454C187.239 93.716 186.663 93.14 185.943 93.14C185.205 93.14 184.629 93.716 184.629 94.454C184.629 95.192 185.205 95.768 185.943 95.768ZM193.821 98.648C195.351 98.648 196.557 99.62 196.593 101.15H191.103C191.319 99.584 192.435 98.648 193.821 98.648ZM198.465 104.048H196.251C195.873 104.822 195.171 105.434 193.911 105.434C192.399 105.434 191.229 104.444 191.085 102.806H198.663C198.717 102.464 198.735 102.14 198.735 101.798C198.735 98.882 196.737 96.92 193.911 96.92C190.977 96.92 188.961 98.918 188.961 102.032C188.961 105.146 191.067 107.162 193.911 107.162C196.341 107.162 197.907 105.776 198.465 104.048ZM207.792 107H209.826V101.15C209.826 98.378 208.08 96.92 205.758 96.92C204.57 96.92 203.472 97.406 202.806 98.216V97.082H200.754V107H202.806V101.456C202.806 99.638 203.796 98.702 205.308 98.702C206.802 98.702 207.792 99.638 207.792 101.456V107ZM211.76 102.032C211.76 105.146 213.776 107.162 216.62 107.162C219.05 107.162 220.634 105.812 221.192 103.868H218.978C218.6 104.894 217.844 105.434 216.62 105.434C214.964 105.434 213.866 104.21 213.866 102.032C213.866 99.872 214.964 98.648 216.62 98.648C217.844 98.648 218.636 99.26 218.978 100.214H221.192C220.634 98.126 219.05 96.92 216.62 96.92C213.776 96.92 211.76 98.936 211.76 102.032ZM227.413 98.648C228.943 98.648 230.149 99.62 230.185 101.15H224.695C224.911 99.584 226.027 98.648 227.413 98.648ZM232.057 104.048H229.843C229.465 104.822 228.763 105.434 227.503 105.434C225.991 105.434 224.821 104.444 224.677 102.806H232.255C232.309 102.464 232.327 102.14 232.327 101.798C232.327 98.882 230.329 96.92 227.503 96.92C224.569 96.92 222.553 98.918 222.553 102.032C222.553 105.146 224.659 107.162 227.503 107.162C229.933 107.162 231.499 105.776 232.057 104.048ZM238.374 96.164H241.722V107H243.774V96.164H247.104V94.49H238.374V96.164ZM253.358 98.648C254.888 98.648 256.094 99.62 256.13 101.15H250.64C250.856 99.584 251.972 98.648 253.358 98.648ZM258.002 104.048H255.788C255.41 104.822 254.708 105.434 253.448 105.434C251.936 105.434 250.766 104.444 250.622 102.806H258.2C258.254 102.464 258.272 102.14 258.272 101.798C258.272 98.882 256.274 96.92 253.448 96.92C250.514 96.92 248.498 98.918 248.498 102.032C248.498 105.146 250.604 107.162 253.448 107.162C255.878 107.162 257.444 105.776 258.002 104.048ZM259.607 101.996C259.607 105.056 261.677 107.162 264.251 107.162C265.907 107.162 267.095 106.37 267.725 105.524V107H269.795V97.082H267.725V98.522C267.113 97.712 265.961 96.92 264.287 96.92C261.677 96.92 259.607 98.936 259.607 101.996ZM267.725 102.032C267.725 104.174 266.267 105.38 264.719 105.38C263.189 105.38 261.713 104.138 261.713 101.996C261.713 99.854 263.189 98.702 264.719 98.702C266.267 98.702 267.725 99.908 267.725 102.032ZM271.807 102.032C271.807 105.146 273.823 107.162 276.667 107.162C279.097 107.162 280.681 105.812 281.239 103.868H279.025C278.647 104.894 277.891 105.434 276.667 105.434C275.011 105.434 273.913 104.21 273.913 102.032C273.913 99.872 275.011 98.648 276.667 98.648C277.891 98.648 278.683 99.26 279.025 100.214H281.239C280.681 98.126 279.097 96.92 276.667 96.92C273.823 96.92 271.807 98.936 271.807 102.032ZM283.284 107H285.336V101.456C285.336 99.638 286.326 98.702 287.838 98.702C289.332 98.702 290.322 99.638 290.322 101.456V107H292.356V101.15C292.356 98.378 290.628 96.92 288.414 96.92C287.136 96.92 286.02 97.406 285.336 98.234V93.68H283.284V107ZM299.149 98.648C300.679 98.648 301.885 99.62 301.921 101.15H296.431C296.647 99.584 297.763 98.648 299.149 98.648ZM303.793 104.048H301.579C301.201 104.822 300.499 105.434 299.239 105.434C297.727 105.434 296.557 104.444 296.413 102.806H303.991C304.045 102.464 304.063 102.14 304.063 101.798C304.063 98.882 302.065 96.92 299.239 96.92C296.305 96.92 294.289 98.918 294.289 102.032C294.289 105.146 296.395 107.162 299.239 107.162C301.669 107.162 303.235 105.776 303.793 104.048ZM308.134 101.78C308.134 99.674 309.07 99.044 310.582 99.044H311.104V96.92C309.7 96.92 308.71 97.532 308.134 98.522V97.082H306.082V107H308.134V101.78Z" fill="#212832"/>
<path d="M389 77H387V124H389V77Z" fill="#00ADEF" stroke="#00ADEF" stroke-width="0.936604"/>
<circle cx="24.4151" cy="100.851" r="23.4151" fill="#00ADEF" stroke="#00ADEF"/>
<path d="M13.5522 100.606C13.5522 104.577 14.6012 107.574 18.4225 107.574C22.2439 107.574 23.2929 104.577 23.2929 100.606C23.2929 96.7093 22.2439 93.7121 18.4225 93.7121C14.6012 93.7121 13.5522 96.7093 13.5522 100.606ZM21.1949 100.606C21.1949 103.284 20.9139 105.626 18.4225 105.626C15.9312 105.626 15.6502 103.284 15.6502 100.606C15.6502 98.058 15.9312 95.6603 18.4225 95.6603C20.9139 95.6603 21.1949 98.058 21.1949 100.606ZM26.1144 93.9182V101.804H28.1375C28.4934 100.793 29.3363 100.1 30.5914 100.1C32.3709 100.1 33.2513 101.111 33.2513 102.891C33.2513 104.577 32.4271 105.832 30.5914 105.832C29.149 105.832 28.1749 105.082 27.894 103.921H25.8147C26.1331 106.057 27.7628 107.611 30.5726 107.611C33.7384 107.611 35.2931 105.551 35.2931 102.835C35.2931 100.774 34.2629 98.2828 30.9098 98.2828C29.6922 98.2828 28.587 98.8447 28.0813 99.5191V95.7914H34.3565V93.9182H26.1144Z" fill="#212832"/>
<g filter="url(#filter4_d_925_6297)">
<rect x="444" y="77" width="365" height="47" fill="white" shape-rendering="crispEdges"/>
<rect x="443.766" y="76.7658" width="365.468" height="47.4683" stroke="black" stroke-opacity="0.2" stroke-width="0.468302" shape-rendering="crispEdges"/>
</g>
<path d="M536.999 94.49H532.913V107H536.999C541.013 107 543.641 104.642 543.641 100.79C543.641 96.92 541.013 94.49 536.999 94.49ZM534.965 105.326V96.164H536.999C539.951 96.164 541.535 97.928 541.535 100.79C541.535 103.634 539.951 105.326 536.999 105.326H534.965ZM544.991 101.996C544.991 105.056 547.061 107.162 549.635 107.162C551.291 107.162 552.479 106.37 553.109 105.524V107H555.179V97.082H553.109V98.522C552.497 97.712 551.345 96.92 549.671 96.92C547.061 96.92 544.991 98.936 544.991 101.996ZM553.109 102.032C553.109 104.174 551.651 105.38 550.103 105.38C548.573 105.38 547.097 104.138 547.097 101.996C547.097 99.854 548.573 98.702 550.103 98.702C551.651 98.702 553.109 99.908 553.109 102.032ZM558.198 104.246C558.198 106.262 559.296 107 561.06 107H562.68V105.29H561.42C560.556 105.29 560.268 104.984 560.268 104.246V98.756H562.68V97.082H560.268V94.616H558.198V97.082H557.028V98.756H558.198V104.246ZM563.888 101.996C563.888 105.056 565.958 107.162 568.532 107.162C570.188 107.162 571.376 106.37 572.006 105.524V107H574.076V97.082H572.006V98.522C571.394 97.712 570.242 96.92 568.568 96.92C565.958 96.92 563.888 98.936 563.888 101.996ZM572.006 102.032C572.006 104.174 570.548 105.38 569 105.38C567.47 105.38 565.994 104.138 565.994 101.996C565.994 99.854 567.47 98.702 569 98.702C570.548 98.702 572.006 99.908 572.006 102.032ZM595.505 107H597.539V101.15C597.539 98.378 595.775 96.92 593.453 96.92C592.013 96.92 590.609 97.676 589.997 98.882C589.313 97.586 587.999 96.92 586.433 96.92C585.245 96.92 584.165 97.406 583.499 98.216V97.082H581.447V107H583.499V101.456C583.499 99.638 584.489 98.702 586.001 98.702C587.495 98.702 588.485 99.638 588.485 101.456V107H590.519V101.456C590.519 99.638 591.509 98.702 593.021 98.702C594.515 98.702 595.505 99.638 595.505 101.456V107ZM600.15 107H602.202V97.082H600.15V107ZM601.194 95.768C601.914 95.768 602.49 95.192 602.49 94.454C602.49 93.716 601.914 93.14 601.194 93.14C600.456 93.14 599.88 93.716 599.88 94.454C599.88 95.192 600.456 95.768 601.194 95.768ZM611.934 107H613.968V101.15C613.968 98.378 612.222 96.92 609.9 96.92C608.712 96.92 607.614 97.406 606.948 98.216V97.082H604.896V107H606.948V101.456C606.948 99.638 607.938 98.702 609.45 98.702C610.944 98.702 611.934 99.638 611.934 101.456V107ZM616.585 107H618.637V97.082H616.585V107ZM617.629 95.768C618.349 95.768 618.925 95.192 618.925 94.454C618.925 93.716 618.349 93.14 617.629 93.14C616.891 93.14 616.315 93.716 616.315 94.454C616.315 95.192 616.891 95.768 617.629 95.768ZM628.369 107H630.403V101.15C630.403 98.378 628.657 96.92 626.335 96.92C625.147 96.92 624.049 97.406 623.383 98.216V97.082H621.331V107H623.383V101.456C623.383 99.638 624.373 98.702 625.885 98.702C627.379 98.702 628.369 99.638 628.369 101.456V107ZM632.337 101.996C632.337 105.056 634.407 107.162 637.017 107.162C638.637 107.162 639.825 106.352 640.455 105.506V107.162C640.455 109.142 639.267 110.114 637.683 110.114C636.261 110.114 635.163 109.412 634.857 108.386H632.823C633.075 110.582 635.037 111.896 637.683 111.896C640.779 111.896 642.525 109.862 642.525 107.162V97.082H640.455V98.522C639.843 97.676 638.637 96.92 637.017 96.92C634.407 96.92 632.337 98.936 632.337 101.996ZM640.455 102.032C640.455 104.174 638.997 105.38 637.449 105.38C635.919 105.38 634.443 104.138 634.443 101.996C634.443 99.854 635.919 98.702 637.449 98.702C638.997 98.702 640.455 99.908 640.455 102.032ZM656.808 94.472H649.896V107H656.808V105.326H651.948V101.492H656.268V99.818H651.948V96.146H656.808V94.472ZM666.373 107H668.407V101.15C668.407 98.378 666.661 96.92 664.339 96.92C663.151 96.92 662.053 97.406 661.387 98.216V97.082H659.335V107H661.387V101.456C661.387 99.638 662.377 98.702 663.889 98.702C665.383 98.702 666.373 99.638 666.373 101.456V107ZM670.341 101.996C670.341 105.056 672.411 107.162 675.021 107.162C676.641 107.162 677.829 106.352 678.459 105.506V107.162C678.459 109.142 677.271 110.114 675.687 110.114C674.265 110.114 673.167 109.412 672.861 108.386H670.827C671.079 110.582 673.041 111.896 675.687 111.896C678.783 111.896 680.529 109.862 680.529 107.162V97.082H678.459V98.522C677.847 97.676 676.641 96.92 675.021 96.92C672.411 96.92 670.341 98.936 670.341 101.996ZM678.459 102.032C678.459 104.174 677.001 105.38 675.453 105.38C673.923 105.38 672.447 104.138 672.447 101.996C672.447 99.854 673.923 98.702 675.453 98.702C677.001 98.702 678.459 99.908 678.459 102.032ZM683.224 107H685.276V97.082H683.224V107ZM684.268 95.768C684.988 95.768 685.564 95.192 685.564 94.454C685.564 93.716 684.988 93.14 684.268 93.14C683.53 93.14 682.954 93.716 682.954 94.454C682.954 95.192 683.53 95.768 684.268 95.768ZM695.008 107H697.042V101.15C697.042 98.378 695.296 96.92 692.974 96.92C691.786 96.92 690.688 97.406 690.022 98.216V97.082H687.97V107H690.022V101.456C690.022 99.638 691.012 98.702 692.524 98.702C694.018 98.702 695.008 99.638 695.008 101.456V107ZM703.836 98.648C705.366 98.648 706.572 99.62 706.608 101.15H701.118C701.334 99.584 702.45 98.648 703.836 98.648ZM708.48 104.048H706.266C705.888 104.822 705.186 105.434 703.926 105.434C702.414 105.434 701.244 104.444 701.1 102.806H708.678C708.732 102.464 708.75 102.14 708.75 101.798C708.75 98.882 706.752 96.92 703.926 96.92C700.992 96.92 698.976 98.918 698.976 102.032C698.976 105.146 701.082 107.162 703.926 107.162C706.356 107.162 707.922 105.776 708.48 104.048ZM714.945 98.648C716.475 98.648 717.681 99.62 717.717 101.15H712.227C712.443 99.584 713.559 98.648 714.945 98.648ZM719.589 104.048H717.375C716.997 104.822 716.295 105.434 715.035 105.434C713.523 105.434 712.353 104.444 712.209 102.806H719.787C719.841 102.464 719.859 102.14 719.859 101.798C719.859 98.882 717.861 96.92 715.035 96.92C712.101 96.92 710.085 98.918 710.085 102.032C710.085 105.146 712.191 107.162 715.035 107.162C717.465 107.162 719.031 105.776 719.589 104.048ZM723.93 101.78C723.93 99.674 724.866 99.044 726.378 99.044H726.9V96.92C725.496 96.92 724.506 97.532 723.93 98.522V97.082H721.878V107H723.93V101.78Z" fill="#212832"/>
<path d="M809 77H807V124H809V77Z" fill="#E74C3C" stroke="#E74C3C" stroke-width="0.936604"/>
<circle cx="441.415" cy="100.851" r="23.4151" fill="#E74C3C" stroke="#E74C3C"/>
<path d="M430.525 100.606C430.525 104.577 431.574 107.574 435.395 107.574C439.216 107.574 440.265 104.577 440.265 100.606C440.265 96.7093 439.216 93.7121 435.395 93.7121C431.574 93.7121 430.525 96.7093 430.525 100.606ZM438.167 100.606C438.167 103.284 437.886 105.626 435.395 105.626C432.904 105.626 432.623 103.284 432.623 100.606C432.623 98.058 432.904 95.6603 435.395 95.6603C437.886 95.6603 438.167 98.058 438.167 100.606ZM451.835 97.1214C451.61 95.3044 450.28 93.6185 447.62 93.6185C444.211 93.6185 442.787 96.2035 442.787 100.474C442.787 104.82 443.818 107.611 447.789 107.611C450.711 107.611 452.266 105.644 452.266 103.059C452.266 100.212 450.524 98.5637 448.07 98.5637C446.646 98.5637 445.297 99.1632 444.623 100.287C444.679 96.7093 445.672 95.398 447.601 95.398C448.95 95.398 449.606 96.0162 449.868 97.1214H451.835ZM447.601 100.362C449.4 100.362 450.224 101.523 450.224 103.153C450.224 104.764 449.25 105.832 447.676 105.832C445.859 105.832 444.867 104.708 444.867 103.022C444.867 101.205 446.196 100.362 447.601 100.362Z" fill="#212832"/>
<g filter="url(#filter5_d_925_6297)">
<rect x="337" y="2" width="260" height="47" fill="white" shape-rendering="crispEdges"/>
<rect x="336.766" y="1.76585" width="260.468" height="47.4683" stroke="black" stroke-opacity="0.2" stroke-width="0.468302" shape-rendering="crispEdges"/>
</g>
<path d="M597 2H595V49H597V2Z" fill="#A9CF54" stroke="#A9CF54" stroke-width="0.936604"/>
<path d="M412.182 18.49H408.096V31H412.182C416.196 31 418.824 28.642 418.824 24.79C418.824 20.92 416.196 18.49 412.182 18.49ZM410.148 29.326V20.164H412.182C415.134 20.164 416.718 21.928 416.718 24.79C416.718 27.634 415.134 29.326 412.182 29.326H410.148ZM420.174 25.996C420.174 29.056 422.244 31.162 424.818 31.162C426.474 31.162 427.662 30.37 428.292 29.524V31H430.362V21.082H428.292V22.522C427.68 21.712 426.528 20.92 424.854 20.92C422.244 20.92 420.174 22.936 420.174 25.996ZM428.292 26.032C428.292 28.174 426.834 29.38 425.286 29.38C423.756 29.38 422.28 28.138 422.28 25.996C422.28 23.854 423.756 22.702 425.286 22.702C426.834 22.702 428.292 23.908 428.292 26.032ZM433.381 28.246C433.381 30.262 434.479 31 436.243 31H437.863V29.29H436.603C435.739 29.29 435.451 28.984 435.451 28.246V22.756H437.863V21.082H435.451V18.616H433.381V21.082H432.211V22.756H433.381V28.246ZM439.07 25.996C439.07 29.056 441.14 31.162 443.714 31.162C445.37 31.162 446.558 30.37 447.188 29.524V31H449.258V21.082H447.188V22.522C446.576 21.712 445.424 20.92 443.75 20.92C441.14 20.92 439.07 22.936 439.07 25.996ZM447.188 26.032C447.188 28.174 445.73 29.38 444.182 29.38C442.652 29.38 441.176 28.138 441.176 25.996C441.176 23.854 442.652 22.702 444.182 22.702C445.73 22.702 447.188 23.908 447.188 26.032ZM465.071 31H467.231L462.749 18.472H460.373L455.891 31H458.033L458.933 28.444H464.171L465.071 31ZM463.595 26.77H459.509L461.561 20.956L463.595 26.77ZM476.218 31H478.252V25.15C478.252 22.378 476.506 20.92 474.184 20.92C472.996 20.92 471.898 21.406 471.232 22.216V21.082H469.18V31H471.232V25.456C471.232 23.638 472.222 22.702 473.734 22.702C475.228 22.702 476.218 23.638 476.218 25.456V31ZM480.186 25.996C480.186 29.056 482.256 31.162 484.83 31.162C486.486 31.162 487.674 30.37 488.304 29.524V31H490.374V21.082H488.304V22.522C487.692 21.712 486.54 20.92 484.866 20.92C482.256 20.92 480.186 22.936 480.186 25.996ZM488.304 26.032C488.304 28.174 486.846 29.38 485.298 29.38C483.768 29.38 482.292 28.138 482.292 25.996C482.292 23.854 483.768 22.702 485.298 22.702C486.846 22.702 488.304 23.908 488.304 26.032ZM493.069 31H495.121V17.68H493.069V31ZM501.721 28.642L498.931 21.082H496.645L500.551 30.838L498.535 35.662H500.659L506.743 21.082H504.619L501.721 28.642ZM515.689 28.228C515.581 24.646 509.983 25.762 509.983 23.764C509.983 23.098 510.559 22.648 511.657 22.648C512.773 22.648 513.439 23.242 513.511 24.106H515.563C515.455 22.126 513.979 20.92 511.729 20.92C509.389 20.92 507.913 22.198 507.913 23.782C507.913 27.418 513.673 26.302 513.673 28.246C513.673 28.93 513.043 29.434 511.855 29.434C510.721 29.434 509.947 28.768 509.875 27.958H507.751C507.841 29.758 509.515 31.162 511.891 31.162C514.231 31.162 515.689 29.902 515.689 28.228ZM518.231 28.246C518.231 30.262 519.329 31 521.093 31H522.713V29.29H521.453C520.589 29.29 520.301 28.984 520.301 28.246V22.756H522.713V21.082H520.301V18.616H518.231V21.082H517.061V22.756H518.231V28.246Z" fill="#212832"/>
<circle cx="336.415" cy="25.4151" r="23.4151" fill="#A9CF54" stroke="#A9CF54"/>
<path d="M326.128 25.17C326.128 29.1412 327.177 32.1383 330.999 32.1383C334.82 32.1383 335.869 29.1412 335.869 25.17C335.869 21.2737 334.82 18.2766 330.999 18.2766C327.177 18.2766 326.128 21.2737 326.128 25.17ZM333.771 25.17C333.771 27.8487 333.49 30.1902 330.999 30.1902C328.507 30.1902 328.226 27.8487 328.226 25.17C328.226 22.6224 328.507 20.2247 330.999 20.2247C333.49 20.2247 333.771 22.6224 333.771 25.17ZM337.96 31.9885H347.064V30.2089H341.126C343.317 28.2046 346.689 25.6758 346.689 22.3602C346.689 19.9063 345.116 18.2391 342.343 18.2391C339.927 18.2391 338.016 19.6815 337.941 22.6412H340.002C340.058 21.1051 340.864 20.0561 342.362 20.0561C343.954 20.0561 344.573 21.0302 344.573 22.4538C344.573 25.1325 341.182 27.6052 337.96 30.4337V31.9885Z" fill="#212832"/>
<g filter="url(#filter6_d_925_6297)">
<rect x="653" y="2" width="260" height="47" fill="white" shape-rendering="crispEdges"/>
<rect x="652.766" y="1.76585" width="260.468" height="47.4683" stroke="black" stroke-opacity="0.2" stroke-width="0.468302" shape-rendering="crispEdges"/>
</g>
<path d="M913 2H911V49H913V2Z" fill="#3498DB" stroke="#3498DB" stroke-width="0.936604"/>
<path d="M728.724 18.49H724.638V31H728.724C732.738 31 735.366 28.642 735.366 24.79C735.366 20.92 732.738 18.49 728.724 18.49ZM726.69 29.326V20.164H728.724C731.676 20.164 733.26 21.928 733.26 24.79C733.26 27.634 731.676 29.326 728.724 29.326H726.69ZM736.716 25.996C736.716 29.056 738.786 31.162 741.36 31.162C743.016 31.162 744.204 30.37 744.834 29.524V31H746.904V21.082H744.834V22.522C744.222 21.712 743.07 20.92 741.396 20.92C738.786 20.92 736.716 22.936 736.716 25.996ZM744.834 26.032C744.834 28.174 743.376 29.38 741.828 29.38C740.298 29.38 738.822 28.138 738.822 25.996C738.822 23.854 740.298 22.702 741.828 22.702C743.376 22.702 744.834 23.908 744.834 26.032ZM749.923 28.246C749.923 30.262 751.021 31 752.785 31H754.405V29.29H753.145C752.281 29.29 751.993 28.984 751.993 28.246V22.756H754.405V21.082H751.993V18.616H749.923V21.082H748.753V22.756H749.923V28.246ZM755.612 25.996C755.612 29.056 757.682 31.162 760.256 31.162C761.912 31.162 763.1 30.37 763.73 29.524V31H765.8V21.082H763.73V22.522C763.118 21.712 761.966 20.92 760.292 20.92C757.682 20.92 755.612 22.936 755.612 25.996ZM763.73 26.032C763.73 28.174 762.272 29.38 760.724 29.38C759.194 29.38 757.718 28.138 757.718 25.996C757.718 23.854 759.194 22.702 760.724 22.702C762.272 22.702 763.73 23.908 763.73 26.032ZM780.083 18.472H773.171V31H780.083V29.326H775.223V25.492H779.543V23.818H775.223V20.146H780.083V18.472ZM789.649 31H791.683V25.15C791.683 22.378 789.937 20.92 787.615 20.92C786.427 20.92 785.329 21.406 784.663 22.216V21.082H782.611V31H784.663V25.456C784.663 23.638 785.653 22.702 787.165 22.702C788.659 22.702 789.649 23.638 789.649 25.456V31ZM793.616 25.996C793.616 29.056 795.686 31.162 798.296 31.162C799.916 31.162 801.104 30.352 801.734 29.506V31.162C801.734 33.142 800.546 34.114 798.962 34.114C797.54 34.114 796.442 33.412 796.136 32.386H794.102C794.354 34.582 796.316 35.896 798.962 35.896C802.058 35.896 803.804 33.862 803.804 31.162V21.082H801.734V22.522C801.122 21.676 799.916 20.92 798.296 20.92C795.686 20.92 793.616 22.936 793.616 25.996ZM801.734 26.032C801.734 28.174 800.276 29.38 798.728 29.38C797.198 29.38 795.722 28.138 795.722 25.996C795.722 23.854 797.198 22.702 798.728 22.702C800.276 22.702 801.734 23.908 801.734 26.032ZM806.499 31H808.551V21.082H806.499V31ZM807.543 19.768C808.263 19.768 808.839 19.192 808.839 18.454C808.839 17.716 808.263 17.14 807.543 17.14C806.805 17.14 806.229 17.716 806.229 18.454C806.229 19.192 806.805 19.768 807.543 19.768ZM818.284 31H820.318V25.15C820.318 22.378 818.572 20.92 816.25 20.92C815.062 20.92 813.964 21.406 813.298 22.216V21.082H811.246V31H813.298V25.456C813.298 23.638 814.288 22.702 815.8 22.702C817.294 22.702 818.284 23.638 818.284 25.456V31ZM827.111 22.648C828.641 22.648 829.847 23.62 829.883 25.15H824.393C824.609 23.584 825.725 22.648 827.111 22.648ZM831.755 28.048H829.541C829.163 28.822 828.461 29.434 827.201 29.434C825.689 29.434 824.519 28.444 824.375 26.806H831.953C832.007 26.464 832.025 26.14 832.025 25.798C832.025 22.882 830.027 20.92 827.201 20.92C824.267 20.92 822.251 22.918 822.251 26.032C822.251 29.146 824.357 31.162 827.201 31.162C829.631 31.162 831.197 29.776 831.755 28.048ZM838.22 22.648C839.75 22.648 840.956 23.62 840.992 25.15H835.502C835.718 23.584 836.834 22.648 838.22 22.648ZM842.864 28.048H840.65C840.272 28.822 839.57 29.434 838.31 29.434C836.798 29.434 835.628 28.444 835.484 26.806H843.062C843.116 26.464 843.134 26.14 843.134 25.798C843.134 22.882 841.136 20.92 838.31 20.92C835.376 20.92 833.36 22.918 833.36 26.032C833.36 29.146 835.466 31.162 838.31 31.162C840.74 31.162 842.306 29.776 842.864 28.048ZM847.206 25.78C847.206 23.674 848.142 23.044 849.654 23.044H850.176V20.92C848.772 20.92 847.782 21.532 847.206 22.522V21.082H845.154V31H847.206V25.78Z" fill="#212832"/>
<circle cx="649.415" cy="25.415" r="23.415" fill="#3498DB" stroke="#3498DB"/>
<path d="M638.548 25.9942C638.548 29.9654 639.597 32.9625 643.418 32.9625C647.24 32.9625 648.289 29.9654 648.289 25.9942C648.289 22.0979 647.24 19.1008 643.418 19.1008C639.597 19.1008 638.548 22.0979 638.548 25.9942ZM646.191 25.9942C646.191 28.6729 645.91 31.0144 643.418 31.0144C640.927 31.0144 640.646 28.6729 640.646 25.9942C640.646 23.4466 640.927 21.0489 643.418 21.0489C645.91 21.0489 646.191 23.4466 646.191 25.9942ZM650.511 22.7161H652.59C652.721 21.7608 653.414 20.8616 654.913 20.8616C656.374 20.8616 657.142 21.6484 657.142 22.8285C657.142 24.2896 655.962 24.8515 654.032 24.8703H653.527V26.6311H654.014C656.243 26.6311 657.404 27.2493 657.404 29.0475C657.404 30.3213 656.617 31.2954 655.025 31.2954C653.414 31.2954 652.478 30.3213 652.384 29.0475H650.323C650.454 31.7262 652.459 33.0749 655.044 33.0749C657.891 33.0749 659.427 31.4265 659.427 29.2536C659.427 27.3616 658.509 26.1815 657.086 25.7507V25.6758C658.153 25.3198 659.184 24.2147 659.184 22.585C659.184 20.5994 657.704 19.0259 654.988 19.0259C652.496 19.0259 650.661 20.3558 650.511 22.7161Z" fill="#212832"/>
<defs>
<filter id="filter0_d_925_6297" x="23.5312" y="1.53174" width="260.938" height="47.9365" filterUnits="userSpaceOnUse" color-interpolation-filters="sRGB">
<feFlood flood-opacity="0" result="BackgroundImageFix"/>
<feColorMatrix in="SourceAlpha" type="matrix" values="0 0 0 0 0 0 0 0 0 0 0 0 0 0 0 0 0 0 127 0" result="hardAlpha"/>
<feOffset/>
<feComposite in2="hardAlpha" operator="out"/>
<feColorMatrix type="matrix" values="0 0 0 0 0 0 0 0 0 0 0 0 0 0 0 0 0 0 0.1 0"/>
<feBlend mode="normal" in2="BackgroundImageFix" result="effect1_dropShadow_925_6297"/>
<feBlend mode="normal" in="SourceGraphic" in2="effect1_dropShadow_925_6297" result="shape"/>
</filter>
<filter id="filter1_d_925_6297" x="964.531" y="0.531738" width="260.938" height="47.9365" filterUnits="userSpaceOnUse" color-interpolation-filters="sRGB">
<feFlood flood-opacity="0" result="BackgroundImageFix"/>
<feColorMatrix in="SourceAlpha" type="matrix" values="0 0 0 0 0 0 0 0 0 0 0 0 0 0 0 0 0 0 127 0" result="hardAlpha"/>
<feOffset/>
<feComposite in2="hardAlpha" operator="out"/>
<feColorMatrix type="matrix" values="0 0 0 0 0 0 0 0 0 0 0 0 0 0 0 0 0 0 0.1 0"/>
<feBlend mode="normal" in2="BackgroundImageFix" result="effect1_dropShadow_925_6297"/>
<feBlend mode="normal" in="SourceGraphic" in2="effect1_dropShadow_925_6297" result="shape"/>
</filter>
<filter id="filter2_d_925_6297" x="860.531" y="77.5317" width="365.938" height="47.9365" filterUnits="userSpaceOnUse" color-interpolation-filters="sRGB">
<feFlood flood-opacity="0" result="BackgroundImageFix"/>
<feColorMatrix in="SourceAlpha" type="matrix" values="0 0 0 0 0 0 0 0 0 0 0 0 0 0 0 0 0 0 127 0" result="hardAlpha"/>
<feOffset/>
<feComposite in2="hardAlpha" operator="out"/>
<feColorMatrix type="matrix" values="0 0 0 0 0 0 0 0 0 0 0 0 0 0 0 0 0 0 0.1 0"/>
<feBlend mode="normal" in2="BackgroundImageFix" result="effect1_dropShadow_925_6297"/>
<feBlend mode="normal" in="SourceGraphic" in2="effect1_dropShadow_925_6297" result="shape"/>
</filter>
<filter id="filter3_d_925_6297" x="23.5312" y="76.5317" width="365.938" height="47.9365" filterUnits="userSpaceOnUse" color-interpolation-filters="sRGB">
<feFlood flood-opacity="0" result="BackgroundImageFix"/>
<feColorMatrix in="SourceAlpha" type="matrix" values="0 0 0 0 0 0 0 0 0 0 0 0 0 0 0 0 0 0 127 0" result="hardAlpha"/>
<feOffset/>
<feComposite in2="hardAlpha" operator="out"/>
<feColorMatrix type="matrix" values="0 0 0 0 0 0 0 0 0 0 0 0 0 0 0 0 0 0 0.1 0"/>
<feBlend mode="normal" in2="BackgroundImageFix" result="effect1_dropShadow_925_6297"/>
<feBlend mode="normal" in="SourceGraphic" in2="effect1_dropShadow_925_6297" result="shape"/>
</filter>
<filter id="filter4_d_925_6297" x="443.531" y="76.5317" width="365.938" height="47.9365" filterUnits="userSpaceOnUse" color-interpolation-filters="sRGB">
<feFlood flood-opacity="0" result="BackgroundImageFix"/>
<feColorMatrix in="SourceAlpha" type="matrix" values="0 0 0 0 0 0 0 0 0 0 0 0 0 0 0 0 0 0 127 0" result="hardAlpha"/>
<feOffset/>
<feComposite in2="hardAlpha" operator="out"/>
<feColorMatrix type="matrix" values="0 0 0 0 0 0 0 0 0 0 0 0 0 0 0 0 0 0 0.1 0"/>
<feBlend mode="normal" in2="BackgroundImageFix" result="effect1_dropShadow_925_6297"/>
<feBlend mode="normal" in="SourceGraphic" in2="effect1_dropShadow_925_6297" result="shape"/>
</filter>
<filter id="filter5_d_925_6297" x="336.531" y="1.53174" width="260.938" height="47.9365" filterUnits="userSpaceOnUse" color-interpolation-filters="sRGB">
<feFlood flood-opacity="0" result="BackgroundImageFix"/>
<feColorMatrix in="SourceAlpha" type="matrix" values="0 0 0 0 0 0 0 0 0 0 0 0 0 0 0 0 0 0 127 0" result="hardAlpha"/>
<feOffset/>
<feComposite in2="hardAlpha" operator="out"/>
<feColorMatrix type="matrix" values="0 0 0 0 0 0 0 0 0 0 0 0 0 0 0 0 0 0 0.1 0"/>
<feBlend mode="normal" in2="BackgroundImageFix" result="effect1_dropShadow_925_6297"/>
<feBlend mode="normal" in="SourceGraphic" in2="effect1_dropShadow_925_6297" result="shape"/>
</filter>
<filter id="filter6_d_925_6297" x="652.531" y="1.53174" width="260.938" height="47.9365" filterUnits="userSpaceOnUse" color-interpolation-filters="sRGB">
<feFlood flood-opacity="0" result="BackgroundImageFix"/>
<feColorMatrix in="SourceAlpha" type="matrix" values="0 0 0 0 0 0 0 0 0 0 0 0 0 0 0 0 0 0 127 0" result="hardAlpha"/>
<feOffset/>
<feComposite in2="hardAlpha" operator="out"/>
<feColorMatrix type="matrix" values="0 0 0 0 0 0 0 0 0 0 0 0 0 0 0 0 0 0 0.1 0"/>
<feBlend mode="normal" in2="BackgroundImageFix" result="effect1_dropShadow_925_6297"/>
<feBlend mode="normal" in="SourceGraphic" in2="effect1_dropShadow_925_6297" result="shape"/>
</filter>
</defs>
</svg>
