<svg width="1240" height="216" viewBox="0 0 1240 216" fill="none" xmlns="http://www.w3.org/2000/svg">
<rect width="400" height="75" fill="white"/>
<path d="M24.6 28.44C26.08 28.44 27.24 27.3 27.24 25.84C27.24 24.36 26.08 23.22 24.6 23.22C23.16 23.22 22 24.36 22 25.84C22 27.3 23.16 28.44 24.6 28.44ZM50.5089 28.56C50.5089 23.48 43.1489 25.44 43.1489 22.3C43.1489 20.96 44.1689 20.32 45.4889 20.36C46.9289 20.4 47.7489 21.26 47.8289 22.2H50.3489C50.1489 19.82 48.2689 18.42 45.6089 18.42C42.7689 18.42 40.8289 19.94 40.8289 22.38C40.8289 27.5 48.2089 25.32 48.2089 28.68C48.2089 29.86 47.3089 30.72 45.7089 30.72C44.1289 30.72 43.3289 29.8 43.2289 28.66H40.7889C40.7889 31.12 42.9289 32.64 45.7089 32.64C48.8089 32.64 50.5089 30.64 50.5089 28.56ZM57.8392 23.22C59.5392 23.22 60.8792 24.3 60.9192 26H54.8192C55.0592 24.26 56.2992 23.22 57.8392 23.22ZM62.9992 29.22H60.5392C60.1192 30.08 59.3392 30.76 57.9392 30.76C56.2592 30.76 54.9592 29.66 54.7992 27.84H63.2192C63.2792 27.46 63.2992 27.1 63.2992 26.72C63.2992 23.48 61.0792 21.3 57.9392 21.3C54.6792 21.3 52.4392 23.52 52.4392 26.98C52.4392 30.44 54.7792 32.68 57.9392 32.68C60.6392 32.68 62.3792 31.14 62.9992 29.22ZM64.783 26.98C64.783 30.44 67.023 32.68 70.183 32.68C72.883 32.68 74.643 31.18 75.263 29.02H72.803C72.383 30.16 71.543 30.76 70.183 30.76C68.343 30.76 67.123 29.4 67.123 26.98C67.123 24.58 68.343 23.22 70.183 23.22C71.543 23.22 72.423 23.9 72.803 24.96H75.263C74.643 22.64 72.883 21.3 70.183 21.3C67.023 21.3 64.783 23.54 64.783 26.98ZM87.5152 21.48H85.2352V27.62C85.2352 29.64 84.1352 30.68 82.4552 30.68C80.7952 30.68 79.6952 29.64 79.6952 27.62V21.48H77.4352V27.96C77.4352 31.04 79.3952 32.66 81.9752 32.66C83.2752 32.66 84.5152 32.12 85.2352 31.18V32.5H87.5152V21.48ZM92.8034 26.7C92.8034 24.36 93.8434 23.66 95.5234 23.66H96.1034V21.3C94.5434 21.3 93.4434 21.98 92.8034 23.08V21.48H90.5234V32.5H92.8034V26.7ZM98.1992 32.5H100.479V21.48H98.1992V32.5ZM99.3592 20.02C100.159 20.02 100.799 19.38 100.799 18.56C100.799 17.74 100.159 17.1 99.3592 17.1C98.5392 17.1 97.8992 17.74 97.8992 18.56C97.8992 19.38 98.5392 20.02 99.3592 20.02ZM111.293 32.5H113.553V26C113.553 22.92 111.613 21.3 109.033 21.3C107.713 21.3 106.493 21.84 105.753 22.74V21.48H103.473V32.5H105.753V26.34C105.753 24.32 106.853 23.28 108.533 23.28C110.193 23.28 111.293 24.32 111.293 26.34V32.5ZM115.701 26.94C115.701 30.34 118.001 32.68 120.901 32.68C122.701 32.68 124.021 31.78 124.721 30.84V32.68C124.721 34.88 123.401 35.96 121.641 35.96C120.061 35.96 118.841 35.18 118.501 34.04H116.241C116.521 36.48 118.701 37.94 121.641 37.94C125.081 37.94 127.021 35.68 127.021 32.68V21.48H124.721V23.08C124.041 22.14 122.701 21.3 120.901 21.3C118.001 21.3 115.701 23.54 115.701 26.94ZM124.721 26.98C124.721 29.36 123.101 30.7 121.381 30.7C119.681 30.7 118.041 29.32 118.041 26.94C118.041 24.56 119.681 23.28 121.381 23.28C123.101 23.28 124.721 24.62 124.721 26.98ZM136.371 20.02C137.171 20.02 137.811 19.38 137.811 18.56C137.811 17.74 137.171 17.1 136.371 17.1C135.551 17.1 134.911 17.74 134.911 18.56C134.911 19.38 135.551 20.02 136.371 20.02ZM135.211 21.48V34.66C135.211 35.48 134.891 35.82 133.931 35.82H133.151V37.74H134.331C136.291 37.74 137.491 36.9 137.491 34.66V21.48H135.211ZM150.984 26.98C150.984 23.52 148.504 21.3 145.364 21.3C142.224 21.3 139.744 23.52 139.744 26.98C139.744 30.44 142.124 32.68 145.264 32.68C148.424 32.68 150.984 30.44 150.984 26.98ZM142.064 26.98C142.064 24.48 143.604 23.28 145.324 23.28C147.024 23.28 148.644 24.48 148.644 26.98C148.644 29.48 146.964 30.7 145.264 30.7C143.544 30.7 142.064 29.48 142.064 26.98ZM155.518 23.12V17.7H153.238V32.5H155.518V30.9C156.238 31.86 157.538 32.68 159.358 32.68C162.258 32.68 164.538 30.34 164.538 26.94C164.538 23.54 162.278 21.3 159.358 21.3C157.618 21.3 156.238 22.12 155.518 23.12ZM162.218 26.94C162.218 29.32 160.578 30.7 158.858 30.7C157.158 30.7 155.518 29.36 155.518 26.98C155.518 24.62 157.158 23.28 158.858 23.28C160.578 23.28 162.218 24.56 162.218 26.94ZM175.013 29.42C174.893 25.44 168.673 26.68 168.673 24.46C168.673 23.72 169.313 23.22 170.533 23.22C171.773 23.22 172.513 23.88 172.593 24.84H174.873C174.753 22.64 173.113 21.3 170.613 21.3C168.013 21.3 166.373 22.72 166.373 24.48C166.373 28.52 172.773 27.28 172.773 29.44C172.773 30.2 172.073 30.76 170.753 30.76C169.493 30.76 168.633 30.02 168.553 29.12H166.193C166.293 31.12 168.153 32.68 170.793 32.68C173.393 32.68 175.013 31.28 175.013 29.42ZM182.672 32.5H184.952V21.48H182.672V32.5ZM183.832 20.02C184.632 20.02 185.272 19.38 185.272 18.56C185.272 17.74 184.632 17.1 183.832 17.1C183.012 17.1 182.372 17.74 182.372 18.56C182.372 19.38 183.012 20.02 183.832 20.02ZM195.765 32.5H198.025V26C198.025 22.92 196.085 21.3 193.505 21.3C192.185 21.3 190.965 21.84 190.225 22.74V21.48H187.945V32.5H190.225V26.34C190.225 24.32 191.325 23.28 193.005 23.28C194.665 23.28 195.765 24.32 195.765 26.34V32.5ZM208.409 26.7C208.409 24.36 209.449 23.66 211.129 23.66H211.709V21.3C210.149 21.3 209.049 21.98 208.409 23.08V21.48H206.129V32.5H208.409V26.7ZM218.445 23.22C220.145 23.22 221.485 24.3 221.525 26H215.425C215.665 24.26 216.905 23.22 218.445 23.22ZM223.605 29.22H221.145C220.725 30.08 219.945 30.76 218.545 30.76C216.865 30.76 215.565 29.66 215.405 27.84H223.825C223.885 27.46 223.905 27.1 223.905 26.72C223.905 23.48 221.685 21.3 218.545 21.3C215.285 21.3 213.045 23.52 213.045 26.98C213.045 30.44 215.385 32.68 218.545 32.68C221.245 32.68 222.985 31.14 223.605 29.22ZM228.428 23.1V21.48H226.148V37.74H228.428V30.9C229.148 31.76 230.448 32.68 232.268 32.68C235.168 32.68 237.448 30.34 237.448 26.94C237.448 23.54 235.168 21.3 232.268 21.3C230.468 21.3 229.128 22.18 228.428 23.1ZM235.128 26.94C235.128 29.32 233.488 30.7 231.768 30.7C230.068 30.7 228.428 29.36 228.428 26.98C228.428 24.62 230.068 23.28 231.768 23.28C233.488 23.28 235.128 24.56 235.128 26.94ZM249.683 21.48H247.403V27.62C247.403 29.64 246.303 30.68 244.623 30.68C242.963 30.68 241.863 29.64 241.863 27.62V21.48H239.603V27.96C239.603 31.04 241.563 32.66 244.143 32.66C245.443 32.66 246.683 32.12 247.403 31.18V32.5H249.683V21.48ZM253.051 29.44C253.051 31.68 254.271 32.5 256.231 32.5H258.031V30.6H256.631C255.671 30.6 255.351 30.26 255.351 29.44V23.34H258.031V21.48H255.351V18.74H253.051V21.48H251.751V23.34H253.051V29.44ZM264.773 23.22C266.473 23.22 267.813 24.3 267.853 26H261.753C261.993 24.26 263.233 23.22 264.773 23.22ZM269.933 29.22H267.473C267.053 30.08 266.273 30.76 264.873 30.76C263.193 30.76 261.893 29.66 261.733 27.84H270.153C270.213 27.46 270.233 27.1 270.233 26.72C270.233 23.48 268.013 21.3 264.873 21.3C261.613 21.3 259.373 23.52 259.373 26.98C259.373 30.44 261.713 32.68 264.873 32.68C267.573 32.68 269.313 31.14 269.933 29.22ZM271.717 26.94C271.717 30.34 274.017 32.68 276.917 32.68C278.717 32.68 280.037 31.84 280.737 30.84V32.5H283.037V17.7H280.737V23.02C279.897 21.98 278.377 21.3 276.937 21.3C274.017 21.3 271.717 23.54 271.717 26.94ZM280.737 26.98C280.737 29.36 279.117 30.7 277.397 30.7C275.697 30.7 274.057 29.32 274.057 26.94C274.057 24.56 275.697 23.28 277.397 23.28C279.117 23.28 280.737 24.62 280.737 26.98ZM57.9013 57.5H60.1613V51C60.1613 47.92 58.2013 46.3 55.6213 46.3C54.0213 46.3 52.4613 47.14 51.7813 48.48C51.0213 47.04 49.5613 46.3 47.8213 46.3C46.5013 46.3 45.3013 46.84 44.5613 47.74V46.48H42.2813V57.5H44.5613V51.34C44.5613 49.32 45.6613 48.28 47.3413 48.28C49.0013 48.28 50.1013 49.32 50.1013 51.34V57.5H52.3613V51.34C52.3613 49.32 53.4613 48.28 55.1413 48.28C56.8013 48.28 57.9013 49.32 57.9013 51.34V57.5ZM73.0425 46.48H70.7625V52.62C70.7625 54.64 69.6625 55.68 67.9825 55.68C66.3225 55.68 65.2225 54.64 65.2225 52.62V46.48H62.9625V52.96C62.9625 56.04 64.9225 57.66 67.5025 57.66C68.8025 57.66 70.0425 57.12 70.7625 56.18V57.5H73.0425V46.48ZM76.0508 57.5H78.3308V42.7H76.0508V57.5ZM81.6842 54.44C81.6842 56.68 82.9042 57.5 84.8642 57.5H86.6642V55.6H85.2642C84.3042 55.6 83.9842 55.26 83.9842 54.44V48.34H86.6642V46.48H83.9842V43.74H81.6842V46.48H80.3842V48.34H81.6842V54.44ZM88.7656 57.5H91.0456V46.48H88.7656V57.5ZM89.9256 45.02C90.7256 45.02 91.3656 44.38 91.3656 43.56C91.3656 42.74 90.7256 42.1 89.9256 42.1C89.1056 42.1 88.4656 42.74 88.4656 43.56C88.4656 44.38 89.1056 45.02 89.9256 45.02ZM101.859 57.5H104.119V51C104.119 47.92 102.179 46.3 99.5991 46.3C98.2791 46.3 97.0591 46.84 96.3191 47.74V46.48H94.0391V57.5H96.3191V51.34C96.3191 49.32 97.4191 48.28 99.0991 48.28C100.759 48.28 101.859 49.32 101.859 51.34V57.5ZM106.267 51.94C106.267 55.34 108.567 57.68 111.427 57.68C113.267 57.68 114.587 56.8 115.287 55.86V57.5H117.587V46.48H115.287V48.08C114.607 47.18 113.327 46.3 111.467 46.3C108.567 46.3 106.267 48.54 106.267 51.94ZM115.287 51.98C115.287 54.36 113.667 55.7 111.947 55.7C110.247 55.7 108.607 54.32 108.607 51.94C108.607 49.56 110.247 48.28 111.947 48.28C113.667 48.28 115.287 49.62 115.287 51.98ZM120.942 54.44C120.942 56.68 122.162 57.5 124.122 57.5H125.922V55.6H124.522C123.562 55.6 123.242 55.26 123.242 54.44V48.34H125.922V46.48H123.242V43.74H120.942V46.48H119.642V48.34H120.942V54.44ZM128.023 57.5H130.303V46.48H128.023V57.5ZM129.183 45.02C129.983 45.02 130.623 44.38 130.623 43.56C130.623 42.74 129.983 42.1 129.183 42.1C128.363 42.1 127.723 42.74 127.723 43.56C127.723 44.38 128.363 45.02 129.183 45.02ZM143.797 51.98C143.797 48.52 141.317 46.3 138.177 46.3C135.037 46.3 132.557 48.52 132.557 51.98C132.557 55.44 134.937 57.68 138.077 57.68C141.237 57.68 143.797 55.44 143.797 51.98ZM134.877 51.98C134.877 49.48 136.417 48.28 138.137 48.28C139.837 48.28 141.457 49.48 141.457 51.98C141.457 54.48 139.777 55.7 138.077 55.7C136.357 55.7 134.877 54.48 134.877 51.98ZM153.871 57.5H156.131V51C156.131 47.92 154.191 46.3 151.611 46.3C150.291 46.3 149.071 46.84 148.331 47.74V46.48H146.051V57.5H148.331V51.34C148.331 49.32 149.431 48.28 151.111 48.28C152.771 48.28 153.871 49.32 153.871 51.34V57.5ZM158.279 51.94C158.279 55.34 160.579 57.68 163.439 57.68C165.279 57.68 166.599 56.8 167.299 55.86V57.5H169.599V46.48H167.299V48.08C166.619 47.18 165.339 46.3 163.479 46.3C160.579 46.3 158.279 48.54 158.279 51.94ZM167.299 51.98C167.299 54.36 165.679 55.7 163.959 55.7C162.259 55.7 160.619 54.32 160.619 51.94C160.619 49.56 162.259 48.28 163.959 48.28C165.679 48.28 167.299 49.62 167.299 51.98ZM172.594 57.5H174.874V42.7H172.594V57.5ZM182.303 51.98C182.303 55.44 184.543 57.68 187.703 57.68C190.403 57.68 192.163 56.18 192.783 54.02H190.323C189.903 55.16 189.063 55.76 187.703 55.76C185.863 55.76 184.643 54.4 184.643 51.98C184.643 49.58 185.863 48.22 187.703 48.22C189.063 48.22 189.943 48.9 190.323 49.96H192.783C192.163 47.64 190.403 46.3 187.703 46.3C184.543 46.3 182.303 48.54 182.303 51.98ZM205.555 51.98C205.555 48.52 203.075 46.3 199.935 46.3C196.795 46.3 194.315 48.52 194.315 51.98C194.315 55.44 196.695 57.68 199.835 57.68C202.995 57.68 205.555 55.44 205.555 51.98ZM196.635 51.98C196.635 49.48 198.175 48.28 199.895 48.28C201.595 48.28 203.215 49.48 203.215 51.98C203.215 54.48 201.535 55.7 199.835 55.7C198.115 55.7 196.635 54.48 196.635 51.98ZM223.429 57.5H225.689V51C225.689 47.92 223.729 46.3 221.149 46.3C219.549 46.3 217.989 47.14 217.309 48.48C216.549 47.04 215.089 46.3 213.349 46.3C212.029 46.3 210.829 46.84 210.089 47.74V46.48H207.809V57.5H210.089V51.34C210.089 49.32 211.189 48.28 212.869 48.28C214.529 48.28 215.629 49.32 215.629 51.34V57.5H217.889V51.34C217.889 49.32 218.989 48.28 220.669 48.28C222.329 48.28 223.429 49.32 223.429 51.34V57.5ZM230.87 48.1V46.48H228.59V62.74H230.87V55.9C231.59 56.76 232.89 57.68 234.71 57.68C237.61 57.68 239.89 55.34 239.89 51.94C239.89 48.54 237.61 46.3 234.71 46.3C232.91 46.3 231.57 47.18 230.87 48.1ZM237.57 51.94C237.57 54.32 235.93 55.7 234.21 55.7C232.51 55.7 230.87 54.36 230.87 51.98C230.87 49.62 232.51 48.28 234.21 48.28C235.93 48.28 237.57 49.56 237.57 51.94ZM241.385 51.94C241.385 55.34 243.685 57.68 246.545 57.68C248.385 57.68 249.705 56.8 250.405 55.86V57.5H252.705V46.48H250.405V48.08C249.725 47.18 248.445 46.3 246.585 46.3C243.685 46.3 241.385 48.54 241.385 51.94ZM250.405 51.98C250.405 54.36 248.785 55.7 247.065 55.7C245.365 55.7 243.725 54.32 243.725 51.94C243.725 49.56 245.365 48.28 247.065 48.28C248.785 48.28 250.405 49.62 250.405 51.98ZM263.519 57.5H265.779V51C265.779 47.92 263.839 46.3 261.259 46.3C259.939 46.3 258.719 46.84 257.979 47.74V46.48H255.699V57.5H257.979V51.34C257.979 49.32 259.079 48.28 260.759 48.28C262.419 48.28 263.519 49.32 263.519 51.34V57.5ZM268.688 57.5H270.968V46.48H268.688V57.5ZM269.848 45.02C270.648 45.02 271.288 44.38 271.288 43.56C271.288 42.74 270.648 42.1 269.848 42.1C269.028 42.1 268.388 42.74 268.388 43.56C268.388 44.38 269.028 45.02 269.848 45.02ZM278.601 48.22C280.301 48.22 281.641 49.3 281.681 51H275.581C275.821 49.26 277.061 48.22 278.601 48.22ZM283.761 54.22H281.301C280.881 55.08 280.101 55.76 278.701 55.76C277.021 55.76 275.721 54.66 275.561 52.84H283.981C284.041 52.46 284.061 52.1 284.061 51.72C284.061 48.48 281.841 46.3 278.701 46.3C275.441 46.3 273.201 48.52 273.201 51.98C273.201 55.44 275.541 57.68 278.701 57.68C281.401 57.68 283.141 56.14 283.761 54.22ZM294.525 54.42C294.405 50.44 288.185 51.68 288.185 49.46C288.185 48.72 288.825 48.22 290.045 48.22C291.285 48.22 292.025 48.88 292.105 49.84H294.385C294.265 47.64 292.625 46.3 290.125 46.3C287.525 46.3 285.885 47.72 285.885 49.48C285.885 53.52 292.285 52.28 292.285 54.44C292.285 55.2 291.585 55.76 290.265 55.76C289.005 55.76 288.145 55.02 288.065 54.12H285.705C285.805 56.12 287.665 57.68 290.305 57.68C292.905 57.68 294.525 56.28 294.525 54.42ZM299.348 56.18C299.348 55.36 298.708 54.72 297.908 54.72C297.088 54.72 296.448 55.36 296.448 56.18C296.448 57 297.088 57.64 297.908 57.64C298.708 57.64 299.348 57 299.348 56.18Z" fill="#212832"/>
<rect x="0.5" y="0.5" width="399" height="74" stroke="black" stroke-opacity="0.5"/>
<rect y="83" width="400" height="75" fill="white"/>
<path d="M24.6 123.94C26.08 123.94 27.24 122.8 27.24 121.34C27.24 119.86 26.08 118.72 24.6 118.72C23.16 118.72 22 119.86 22 121.34C22 122.8 23.16 123.94 24.6 123.94ZM48.9689 124.02C48.9689 125.36 48.0289 126.14 46.4889 126.14H43.4089V121.8H46.4089C47.9289 121.8 48.9689 122.64 48.9689 124.02ZM48.6089 117.96C48.6089 119.24 47.7089 119.94 46.2289 119.94H43.4089V115.96H46.2289C47.7089 115.96 48.6089 116.7 48.6089 117.96ZM51.2489 124.26C51.2489 122.6 50.0489 121.12 48.5689 120.86C49.9089 120.38 50.9289 119.36 50.9289 117.68C50.9289 115.72 49.3689 114.1 46.4289 114.1H41.1289V128H46.6889C49.5289 128 51.2489 126.38 51.2489 124.26ZM58.3666 118.72C60.0666 118.72 61.4066 119.8 61.4466 121.5H55.3466C55.5866 119.76 56.8266 118.72 58.3666 118.72ZM63.5266 124.72H61.0666C60.6466 125.58 59.8666 126.26 58.4666 126.26C56.7866 126.26 55.4866 125.16 55.3266 123.34H63.7466C63.8066 122.96 63.8266 122.6 63.8266 122.22C63.8266 118.98 61.6066 116.8 58.4666 116.8C55.2066 116.8 52.9666 119.02 52.9666 122.48C52.9666 125.94 55.3066 128.18 58.4666 128.18C61.1666 128.18 62.9066 126.64 63.5266 124.72ZM65.3103 122.48C65.3103 125.94 67.5503 128.18 70.7103 128.18C73.4103 128.18 75.1703 126.68 75.7903 124.52H73.3303C72.9103 125.66 72.0703 126.26 70.7103 126.26C68.8703 126.26 67.6503 124.9 67.6503 122.48C67.6503 120.08 68.8703 118.72 70.7103 118.72C72.0703 118.72 72.9503 119.4 73.3303 120.46H75.7903C75.1703 118.14 73.4103 116.8 70.7103 116.8C67.5503 116.8 65.3103 119.04 65.3103 122.48ZM88.5625 122.48C88.5625 119.02 86.0825 116.8 82.9425 116.8C79.8025 116.8 77.3225 119.02 77.3225 122.48C77.3225 125.94 79.7025 128.18 82.8425 128.18C86.0025 128.18 88.5625 125.94 88.5625 122.48ZM79.6425 122.48C79.6425 119.98 81.1825 118.78 82.9025 118.78C84.6025 118.78 86.2225 119.98 86.2225 122.48C86.2225 124.98 84.5425 126.2 82.8425 126.2C81.1225 126.2 79.6425 124.98 79.6425 122.48ZM106.436 128H108.696V121.5C108.696 118.42 106.736 116.8 104.156 116.8C102.556 116.8 100.996 117.64 100.316 118.98C99.5564 117.54 98.0964 116.8 96.3564 116.8C95.0364 116.8 93.8364 117.34 93.0964 118.24V116.98H90.8164V128H93.0964V121.84C93.0964 119.82 94.1964 118.78 95.8764 118.78C97.5364 118.78 98.6364 119.82 98.6364 121.84V128H100.896V121.84C100.896 119.82 101.996 118.78 103.676 118.78C105.336 118.78 106.436 119.82 106.436 121.84V128ZM116.238 118.72C117.938 118.72 119.278 119.8 119.318 121.5H113.218C113.458 119.76 114.698 118.72 116.238 118.72ZM121.398 124.72H118.938C118.518 125.58 117.738 126.26 116.338 126.26C114.658 126.26 113.358 125.16 113.198 123.34H121.618C121.678 122.96 121.698 122.6 121.698 122.22C121.698 118.98 119.478 116.8 116.338 116.8C113.078 116.8 110.838 119.02 110.838 122.48C110.838 125.94 113.178 128.18 116.338 128.18C119.038 128.18 120.778 126.64 121.398 124.72ZM128.377 122.44C128.377 125.84 130.677 128.18 133.537 128.18C135.377 128.18 136.697 127.3 137.397 126.36V128H139.697V116.98H137.397V118.58C136.717 117.68 135.437 116.8 133.577 116.8C130.677 116.8 128.377 119.04 128.377 122.44ZM137.397 122.48C137.397 124.86 135.777 126.2 134.057 126.2C132.357 126.2 130.717 124.82 130.717 122.44C130.717 120.06 132.357 118.78 134.057 118.78C135.777 118.78 137.397 120.12 137.397 122.48ZM150.511 128H152.771V121.5C152.771 118.42 150.831 116.8 148.251 116.8C146.931 116.8 145.711 117.34 144.971 118.24V116.98H142.691V128H144.971V121.84C144.971 119.82 146.071 118.78 147.751 118.78C149.411 118.78 150.511 119.82 150.511 121.84V128ZM169.695 128H171.975V114.1H169.695V120.06H163.155V114.1H160.875V128H163.155V121.92H169.695V128ZM182.357 118.26C182.357 119.64 181.557 120.62 179.777 120.62H177.257V115.96H179.777C181.557 115.96 182.357 116.86 182.357 118.26ZM174.977 114.1V128H177.257V122.44H178.997L182.197 128H184.917L181.477 122.24C183.817 121.66 184.697 119.9 184.697 118.26C184.697 116 183.077 114.1 179.777 114.1H174.977ZM192.809 128H195.089V118.48L199.349 128H200.929L205.169 118.48V128H207.449V114.1H205.009L200.149 125L195.269 114.1H192.809V128ZM209.685 122.44C209.685 125.84 211.985 128.18 214.845 128.18C216.685 128.18 218.005 127.3 218.705 126.36V128H221.005V116.98H218.705V118.58C218.025 117.68 216.745 116.8 214.885 116.8C211.985 116.8 209.685 119.04 209.685 122.44ZM218.705 122.48C218.705 124.86 217.085 126.2 215.365 126.2C213.665 126.2 212.025 124.82 212.025 122.44C212.025 120.06 213.665 118.78 215.365 118.78C217.085 118.78 218.705 120.12 218.705 122.48ZM231.82 128H234.08V121.5C234.08 118.42 232.14 116.8 229.56 116.8C228.24 116.8 227.02 117.34 226.28 118.24V116.98H224V128H226.28V121.84C226.28 119.82 227.38 118.78 229.06 118.78C230.72 118.78 231.82 119.82 231.82 121.84V128ZM236.228 122.44C236.228 125.84 238.528 128.18 241.388 128.18C243.228 128.18 244.548 127.3 245.248 126.36V128H247.548V116.98H245.248V118.58C244.568 117.68 243.288 116.8 241.428 116.8C238.528 116.8 236.228 119.04 236.228 122.44ZM245.248 122.48C245.248 124.86 243.628 126.2 241.908 126.2C240.208 126.2 238.568 124.82 238.568 122.44C238.568 120.06 240.208 118.78 241.908 118.78C243.628 118.78 245.248 120.12 245.248 122.48ZM249.783 122.44C249.783 125.84 252.083 128.18 254.983 128.18C256.783 128.18 258.103 127.28 258.803 126.34V128.18C258.803 130.38 257.483 131.46 255.723 131.46C254.143 131.46 252.923 130.68 252.583 129.54H250.323C250.603 131.98 252.783 133.44 255.723 133.44C259.163 133.44 261.103 131.18 261.103 128.18V116.98H258.803V118.58C258.123 117.64 256.783 116.8 254.983 116.8C252.083 116.8 249.783 119.04 249.783 122.44ZM258.803 122.48C258.803 124.86 257.183 126.2 255.463 126.2C253.763 126.2 252.123 124.82 252.123 122.44C252.123 120.06 253.763 118.78 255.463 118.78C257.183 118.78 258.803 120.12 258.803 122.48ZM268.738 118.72C270.438 118.72 271.778 119.8 271.818 121.5H265.718C265.958 119.76 267.198 118.72 268.738 118.72ZM273.898 124.72H271.438C271.018 125.58 270.238 126.26 268.838 126.26C267.158 126.26 265.858 125.16 265.698 123.34H274.118C274.178 122.96 274.198 122.6 274.198 122.22C274.198 118.98 271.978 116.8 268.838 116.8C265.578 116.8 263.338 119.02 263.338 122.48C263.338 125.94 265.678 128.18 268.838 128.18C271.538 128.18 273.278 126.64 273.898 124.72ZM278.721 122.2C278.721 119.86 279.761 119.16 281.441 119.16H282.021V116.8C280.461 116.8 279.361 117.48 278.721 118.58V116.98H276.441V128H278.721V122.2Z" fill="#212832"/>
<rect x="0.5" y="83.5" width="399" height="74" stroke="black" stroke-opacity="0.5"/>
<rect y="166" width="1240" height="50" fill="white"/>
<path d="M24.6 194.44C26.08 194.44 27.24 193.3 27.24 191.84C27.24 190.36 26.08 189.22 24.6 189.22C23.16 189.22 22 190.36 22 191.84C22 193.3 23.16 194.44 24.6 194.44ZM48.9689 194.52C48.9689 195.86 48.0289 196.64 46.4889 196.64H43.4089V192.3H46.4089C47.9289 192.3 48.9689 193.14 48.9689 194.52ZM48.6089 188.46C48.6089 189.74 47.7089 190.44 46.2289 190.44H43.4089V186.46H46.2289C47.7089 186.46 48.6089 187.2 48.6089 188.46ZM51.2489 194.76C51.2489 193.1 50.0489 191.62 48.5689 191.36C49.9089 190.88 50.9289 189.86 50.9289 188.18C50.9289 186.22 49.3689 184.6 46.4289 184.6H41.1289V198.5H46.6889C49.5289 198.5 51.2489 196.88 51.2489 194.76ZM58.3666 189.22C60.0666 189.22 61.4066 190.3 61.4466 192H55.3466C55.5866 190.26 56.8266 189.22 58.3666 189.22ZM63.5266 195.22H61.0666C60.6466 196.08 59.8666 196.76 58.4666 196.76C56.7866 196.76 55.4866 195.66 55.3266 193.84H63.7466C63.8066 193.46 63.8266 193.1 63.8266 192.72C63.8266 189.48 61.6066 187.3 58.4666 187.3C55.2066 187.3 52.9666 189.52 52.9666 192.98C52.9666 196.44 55.3066 198.68 58.4666 198.68C61.1666 198.68 62.9066 197.14 63.5266 195.22ZM65.3103 192.94C65.3103 196.34 67.6103 198.68 70.5103 198.68C72.3103 198.68 73.6303 197.78 74.3303 196.84V198.68C74.3303 200.88 73.0103 201.96 71.2503 201.96C69.6703 201.96 68.4503 201.18 68.1103 200.04H65.8503C66.1303 202.48 68.3103 203.94 71.2503 203.94C74.6903 203.94 76.6303 201.68 76.6303 198.68V187.48H74.3303V189.08C73.6503 188.14 72.3103 187.3 70.5103 187.3C67.6103 187.3 65.3103 189.54 65.3103 192.94ZM74.3303 192.98C74.3303 195.36 72.7103 196.7 70.9903 196.7C69.2903 196.7 67.6503 195.32 67.6503 192.94C67.6503 190.56 69.2903 189.28 70.9903 189.28C72.7103 189.28 74.3303 190.62 74.3303 192.98ZM79.625 198.5H81.905V187.48H79.625V198.5ZM80.785 186.02C81.585 186.02 82.225 185.38 82.225 184.56C82.225 183.74 81.585 183.1 80.785 183.1C79.965 183.1 79.325 183.74 79.325 184.56C79.325 185.38 79.965 186.02 80.785 186.02ZM92.7184 198.5H94.9784V192C94.9784 188.92 93.0384 187.3 90.4584 187.3C89.1384 187.3 87.9184 187.84 87.1784 188.74V187.48H84.8984V198.5H87.1784V192.34C87.1784 190.32 88.2784 189.28 89.9584 189.28C91.6184 189.28 92.7184 190.32 92.7184 192.34V198.5ZM102.322 192.94C102.322 196.34 104.622 198.68 107.482 198.68C109.322 198.68 110.642 197.8 111.342 196.86V198.5H113.642V187.48H111.342V189.08C110.662 188.18 109.382 187.3 107.522 187.3C104.622 187.3 102.322 189.54 102.322 192.94ZM111.342 192.98C111.342 195.36 109.722 196.7 108.002 196.7C106.302 196.7 104.662 195.32 104.662 192.94C104.662 190.56 106.302 189.28 108.002 189.28C109.722 189.28 111.342 190.62 111.342 192.98ZM121.072 191.52C121.072 195.7 124.252 198.62 128.172 198.62C131.072 198.62 133.572 197.18 134.632 194.46H131.892C131.152 195.94 129.832 196.64 128.172 196.64C125.412 196.64 123.412 194.66 123.412 191.52C123.412 188.38 125.412 186.42 128.172 186.42C129.832 186.42 131.152 187.12 131.892 188.6H134.632C133.572 185.88 131.072 184.42 128.172 184.42C124.252 184.42 121.072 187.36 121.072 191.52ZM136.541 192.94C136.541 196.34 138.841 198.68 141.701 198.68C143.541 198.68 144.861 197.8 145.561 196.86V198.5H147.861V187.48H145.561V189.08C144.881 188.18 143.601 187.3 141.741 187.3C138.841 187.3 136.541 189.54 136.541 192.94ZM145.561 192.98C145.561 195.36 143.941 196.7 142.221 196.7C140.521 196.7 138.881 195.32 138.881 192.94C138.881 190.56 140.521 189.28 142.221 189.28C143.941 189.28 145.561 190.62 145.561 192.98ZM153.135 192.7C153.135 190.36 154.175 189.66 155.855 189.66H156.435V187.3C154.875 187.3 153.775 187.98 153.135 189.08V187.48H150.855V198.5H153.135V192.7ZM163.171 189.22C164.871 189.22 166.211 190.3 166.251 192H160.151C160.391 190.26 161.631 189.22 163.171 189.22ZM168.331 195.22H165.871C165.451 196.08 164.671 196.76 163.271 196.76C161.591 196.76 160.291 195.66 160.131 193.84H168.551C168.611 193.46 168.631 193.1 168.631 192.72C168.631 189.48 166.411 187.3 163.271 187.3C160.011 187.3 157.771 189.52 157.771 192.98C157.771 196.44 160.111 198.68 163.271 198.68C165.971 198.68 167.711 197.14 168.331 195.22ZM175.515 189.22C177.215 189.22 178.555 190.3 178.595 192H172.495C172.735 190.26 173.975 189.22 175.515 189.22ZM180.675 195.22H178.215C177.795 196.08 177.015 196.76 175.615 196.76C173.935 196.76 172.635 195.66 172.475 193.84H180.895C180.955 193.46 180.975 193.1 180.975 192.72C180.975 189.48 178.755 187.3 175.615 187.3C172.355 187.3 170.115 189.52 170.115 192.98C170.115 196.44 172.455 198.68 175.615 198.68C178.315 198.68 180.055 197.14 180.675 195.22ZM185.499 192.7C185.499 190.36 186.539 189.66 188.219 189.66H188.799V187.3C187.239 187.3 186.139 187.98 185.499 189.08V187.48H183.219V198.5H185.499V192.7ZM198.23 198.5H200.63L202.85 190.36L205.07 198.5H207.47L210.89 187.48H208.65L206.37 196.3L204.13 187.48H201.75L199.41 196.34L197.11 187.48H194.79L198.23 198.5ZM212.594 198.5H214.874V187.48H212.594V198.5ZM213.754 186.02C214.554 186.02 215.194 185.38 215.194 184.56C215.194 183.74 214.554 183.1 213.754 183.1C212.934 183.1 212.294 183.74 212.294 184.56C212.294 185.38 212.934 186.02 213.754 186.02ZM218.227 195.44C218.227 197.68 219.447 198.5 221.407 198.5H223.207V196.6H221.807C220.847 196.6 220.527 196.26 220.527 195.44V189.34H223.207V187.48H220.527V184.74H218.227V187.48H216.927V189.34H218.227V195.44ZM225.309 198.5H227.589V192.34C227.589 190.32 228.689 189.28 230.369 189.28C232.029 189.28 233.129 190.32 233.129 192.34V198.5H235.389V192C235.389 188.92 233.469 187.3 231.009 187.3C229.589 187.3 228.349 187.84 227.589 188.76V183.7H225.309V198.5ZM252.872 198.5H255.272L250.292 184.58H247.652L242.672 198.5H245.052L246.052 195.66H251.872L252.872 198.5ZM251.232 193.8H246.692L248.972 187.34L251.232 193.8ZM265.658 195.42C265.538 191.44 259.318 192.68 259.318 190.46C259.318 189.72 259.958 189.22 261.178 189.22C262.418 189.22 263.158 189.88 263.238 190.84H265.518C265.398 188.64 263.758 187.3 261.258 187.3C258.658 187.3 257.018 188.72 257.018 190.48C257.018 194.52 263.418 193.28 263.418 195.44C263.418 196.2 262.718 196.76 261.398 196.76C260.138 196.76 259.278 196.02 259.198 195.12H256.838C256.938 197.12 258.798 198.68 261.438 198.68C264.038 198.68 265.658 197.28 265.658 195.42ZM276.341 195.42C276.221 191.44 270.001 192.68 270.001 190.46C270.001 189.72 270.641 189.22 271.861 189.22C273.101 189.22 273.841 189.88 273.921 190.84H276.201C276.081 188.64 274.441 187.3 271.941 187.3C269.341 187.3 267.701 188.72 267.701 190.48C267.701 194.52 274.101 193.28 274.101 195.44C274.101 196.2 273.401 196.76 272.081 196.76C270.821 196.76 269.961 196.02 269.881 195.12H267.521C267.621 197.12 269.481 198.68 272.121 198.68C274.721 198.68 276.341 197.28 276.341 195.42ZM278.805 198.5H281.085V187.48H278.805V198.5ZM279.965 186.02C280.765 186.02 281.405 185.38 281.405 184.56C281.405 183.74 280.765 183.1 279.965 183.1C279.145 183.1 278.505 183.74 278.505 184.56C278.505 185.38 279.145 186.02 279.965 186.02ZM292.298 195.42C292.178 191.44 285.958 192.68 285.958 190.46C285.958 189.72 286.598 189.22 287.818 189.22C289.058 189.22 289.798 189.88 289.878 190.84H292.158C292.038 188.64 290.398 187.3 287.898 187.3C285.298 187.3 283.658 188.72 283.658 190.48C283.658 194.52 290.058 193.28 290.058 195.44C290.058 196.2 289.358 196.76 288.038 196.76C286.778 196.76 285.918 196.02 285.838 195.12H283.478C283.578 197.12 285.438 198.68 288.078 198.68C290.678 198.68 292.298 197.28 292.298 195.42ZM295.122 195.44C295.122 197.68 296.342 198.5 298.302 198.5H300.102V196.6H298.702C297.742 196.6 297.422 196.26 297.422 195.44V189.34H300.102V187.48H297.422V184.74H295.122V187.48H293.822V189.34H295.122V195.44ZM301.443 192.94C301.443 196.34 303.743 198.68 306.603 198.68C308.443 198.68 309.763 197.8 310.463 196.86V198.5H312.763V187.48H310.463V189.08C309.783 188.18 308.503 187.3 306.643 187.3C303.743 187.3 301.443 189.54 301.443 192.94ZM310.463 192.98C310.463 195.36 308.843 196.7 307.123 196.7C305.423 196.7 303.783 195.32 303.783 192.94C303.783 190.56 305.423 189.28 307.123 189.28C308.843 189.28 310.463 190.62 310.463 192.98ZM323.578 198.5H325.838V192C325.838 188.92 323.898 187.3 321.318 187.3C319.998 187.3 318.778 187.84 318.038 188.74V187.48H315.758V198.5H318.038V192.34C318.038 190.32 319.138 189.28 320.818 189.28C322.478 189.28 323.578 190.32 323.578 192.34V198.5ZM329.106 195.44C329.106 197.68 330.326 198.5 332.286 198.5H334.086V196.6H332.686C331.726 196.6 331.406 196.26 331.406 195.44V189.34H334.086V187.48H331.406V184.74H329.106V187.48H327.806V189.34H329.106V195.44ZM341.383 198.5H343.663V188.98L347.923 198.5H349.503L353.743 188.98V198.5H356.023V184.6H353.583L348.723 195.5L343.843 184.6H341.383V198.5ZM358.26 192.94C358.26 196.34 360.56 198.68 363.42 198.68C365.26 198.68 366.58 197.8 367.28 196.86V198.5H369.58V187.48H367.28V189.08C366.6 188.18 365.32 187.3 363.46 187.3C360.56 187.3 358.26 189.54 358.26 192.94ZM367.28 192.98C367.28 195.36 365.66 196.7 363.94 196.7C362.24 196.7 360.6 195.32 360.6 192.94C360.6 190.56 362.24 189.28 363.94 189.28C365.66 189.28 367.28 190.62 367.28 192.98ZM374.854 192.7C374.854 190.36 375.894 189.66 377.574 189.66H378.154V187.3C376.594 187.3 375.494 187.98 374.854 189.08V187.48H372.574V198.5H374.854V192.7ZM380.25 198.5H382.53V193.76L386.61 198.5H389.69L384.61 193L389.69 187.48H386.53L382.53 192.3V183.7H380.25V198.5ZM395.964 189.22C397.664 189.22 399.004 190.3 399.044 192H392.944C393.184 190.26 394.424 189.22 395.964 189.22ZM401.124 195.22H398.664C398.244 196.08 397.464 196.76 396.064 196.76C394.384 196.76 393.084 195.66 392.924 193.84H401.344C401.404 193.46 401.424 193.1 401.424 192.72C401.424 189.48 399.204 187.3 396.064 187.3C392.804 187.3 390.564 189.52 390.564 192.98C390.564 196.44 392.904 198.68 396.064 198.68C398.764 198.68 400.504 197.14 401.124 195.22ZM404.028 195.44C404.028 197.68 405.248 198.5 407.208 198.5H409.008V196.6H407.608C406.648 196.6 406.328 196.26 406.328 195.44V189.34H409.008V187.48H406.328V184.74H404.028V187.48H402.728V189.34H404.028V195.44ZM411.109 198.5H413.389V187.48H411.109V198.5ZM412.269 186.02C413.069 186.02 413.709 185.38 413.709 184.56C413.709 183.74 413.069 183.1 412.269 183.1C411.449 183.1 410.809 183.74 410.809 184.56C410.809 185.38 411.449 186.02 412.269 186.02ZM424.203 198.5H426.463V192C426.463 188.92 424.523 187.3 421.943 187.3C420.623 187.3 419.403 187.84 418.663 188.74V187.48H416.383V198.5H418.663V192.34C418.663 190.32 419.763 189.28 421.443 189.28C423.103 189.28 424.203 190.32 424.203 192.34V198.5ZM428.611 192.94C428.611 196.34 430.911 198.68 433.811 198.68C435.611 198.68 436.931 197.78 437.631 196.84V198.68C437.631 200.88 436.311 201.96 434.551 201.96C432.971 201.96 431.751 201.18 431.411 200.04H429.151C429.431 202.48 431.611 203.94 434.551 203.94C437.991 203.94 439.931 201.68 439.931 198.68V187.48H437.631V189.08C436.951 188.14 435.611 187.3 433.811 187.3C430.911 187.3 428.611 189.54 428.611 192.94ZM437.631 192.98C437.631 195.36 436.011 196.7 434.291 196.7C432.591 196.7 430.951 195.32 430.951 192.94C430.951 190.56 432.591 189.28 434.291 189.28C436.011 189.28 437.631 190.62 437.631 192.98ZM456.961 187.7C457.101 185.8 455.801 184.28 453.381 184.28C451.001 184.28 449.521 185.66 449.521 187.48C449.521 188.46 449.801 189.2 450.581 190.14C448.381 191.04 447.321 192.62 447.321 194.5C447.321 197.1 449.321 198.76 452.321 198.76C454.261 198.76 455.801 198.12 457.141 196.78L458.861 198.5H461.841L458.461 195.14C458.621 194.88 458.801 194.6 458.961 194.32L460.761 191.24H458.301L456.881 193.58L453.201 189.92C452.221 188.86 451.801 188.24 451.801 187.48C451.801 186.74 452.381 186.14 453.281 186.14C454.141 186.14 454.721 186.68 454.681 187.7H456.961ZM452.321 196.82C450.681 196.82 449.601 195.76 449.601 194.42C449.601 193.18 450.341 192.22 451.961 191.58L455.641 195.28C454.681 196.3 453.621 196.82 452.321 196.82ZM477.911 194.56C477.911 189.48 470.551 191.44 470.551 188.3C470.551 186.96 471.571 186.32 472.891 186.36C474.331 186.4 475.151 187.26 475.231 188.2H477.751C477.551 185.82 475.671 184.42 473.011 184.42C470.171 184.42 468.231 185.94 468.231 188.38C468.231 193.5 475.611 191.32 475.611 194.68C475.611 195.86 474.711 196.72 473.111 196.72C471.531 196.72 470.731 195.8 470.631 194.66H468.191C468.191 197.12 470.331 198.64 473.111 198.64C476.211 198.64 477.911 196.64 477.911 194.56ZM479.842 192.94C479.842 196.34 482.142 198.68 485.002 198.68C486.842 198.68 488.162 197.8 488.862 196.86V198.5H491.162V187.48H488.862V189.08C488.182 188.18 486.902 187.3 485.042 187.3C482.142 187.3 479.842 189.54 479.842 192.94ZM488.862 192.98C488.862 195.36 487.242 196.7 485.522 196.7C483.822 196.7 482.182 195.32 482.182 192.94C482.182 190.56 483.822 189.28 485.522 189.28C487.242 189.28 488.862 190.62 488.862 192.98ZM494.156 198.5H496.436V183.7H494.156V198.5ZM504.07 189.22C505.77 189.22 507.11 190.3 507.15 192H501.05C501.29 190.26 502.53 189.22 504.07 189.22ZM509.23 195.22H506.77C506.35 196.08 505.57 196.76 504.17 196.76C502.49 196.76 501.19 195.66 501.03 193.84H509.45C509.51 193.46 509.53 193.1 509.53 192.72C509.53 189.48 507.31 187.3 504.17 187.3C500.91 187.3 498.67 189.52 498.67 192.98C498.67 196.44 501.01 198.68 504.17 198.68C506.87 198.68 508.61 197.14 509.23 195.22ZM519.993 195.42C519.873 191.44 513.653 192.68 513.653 190.46C513.653 189.72 514.293 189.22 515.513 189.22C516.753 189.22 517.493 189.88 517.573 190.84H519.853C519.733 188.64 518.093 187.3 515.593 187.3C512.993 187.3 511.353 188.72 511.353 190.48C511.353 194.52 517.753 193.28 517.753 195.44C517.753 196.2 517.053 196.76 515.733 196.76C514.473 196.76 513.613 196.02 513.533 195.12H511.173C511.273 197.12 513.133 198.68 515.773 198.68C518.373 198.68 519.993 197.28 519.993 195.42ZM535.332 184.58H527.652V198.5H535.332V196.64H529.932V192.38H534.732V190.52H529.932V186.44H535.332V184.58ZM543.841 198.5H546.421L542.861 192.92L546.421 187.48H544.041L541.801 191.22L539.421 187.48H536.841L540.401 193.08L536.841 198.5H539.221L541.461 194.76L543.841 198.5ZM552.761 189.22C554.461 189.22 555.801 190.3 555.841 192H549.741C549.981 190.26 551.221 189.22 552.761 189.22ZM557.921 195.22H555.461C555.041 196.08 554.261 196.76 552.861 196.76C551.181 196.76 549.881 195.66 549.721 193.84H558.141C558.201 193.46 558.221 193.1 558.221 192.72C558.221 189.48 556.001 187.3 552.861 187.3C549.601 187.3 547.361 189.52 547.361 192.98C547.361 196.44 549.701 198.68 552.861 198.68C555.561 198.68 557.301 197.14 557.921 195.22ZM559.705 192.98C559.705 196.44 561.945 198.68 565.105 198.68C567.805 198.68 569.565 197.18 570.185 195.02H567.725C567.305 196.16 566.465 196.76 565.105 196.76C563.265 196.76 562.045 195.4 562.045 192.98C562.045 190.58 563.265 189.22 565.105 189.22C566.465 189.22 567.345 189.9 567.725 190.96H570.185C569.565 188.64 567.805 187.3 565.105 187.3C561.945 187.3 559.705 189.54 559.705 192.98ZM582.437 187.48H580.157V193.62C580.157 195.64 579.057 196.68 577.377 196.68C575.717 196.68 574.617 195.64 574.617 193.62V187.48H572.357V193.96C572.357 197.04 574.317 198.66 576.897 198.66C578.197 198.66 579.437 198.12 580.157 197.18V198.5H582.437V187.48ZM585.805 195.44C585.805 197.68 587.025 198.5 588.985 198.5H590.785V196.6H589.385C588.425 196.6 588.105 196.26 588.105 195.44V189.34H590.785V187.48H588.105V184.74H585.805V187.48H584.505V189.34H585.805V195.44ZM592.887 198.5H595.167V187.48H592.887V198.5ZM594.047 186.02C594.847 186.02 595.487 185.38 595.487 184.56C595.487 183.74 594.847 183.1 594.047 183.1C593.227 183.1 592.587 183.74 592.587 184.56C592.587 185.38 593.227 186.02 594.047 186.02ZM596.86 187.48L601.04 198.5H603.76L607.96 187.48H605.54L602.42 196.46L599.3 187.48H596.86ZM614.324 189.22C616.024 189.22 617.364 190.3 617.404 192H611.304C611.544 190.26 612.784 189.22 614.324 189.22ZM619.484 195.22H617.024C616.604 196.08 615.824 196.76 614.424 196.76C612.744 196.76 611.444 195.66 611.284 193.84H619.704C619.764 193.46 619.784 193.1 619.784 192.72C619.784 189.48 617.564 187.3 614.424 187.3C611.164 187.3 608.924 189.52 608.924 192.98C608.924 196.44 611.264 198.68 614.424 198.68C617.124 198.68 618.864 197.14 619.484 195.22ZM626.463 191.52C626.463 195.7 629.643 198.62 633.563 198.62C636.463 198.62 638.963 197.18 640.023 194.46H637.283C636.543 195.94 635.223 196.64 633.563 196.64C630.803 196.64 628.803 194.66 628.803 191.52C628.803 188.38 630.803 186.42 633.563 186.42C635.223 186.42 636.543 187.12 637.283 188.6H640.023C638.963 185.88 636.463 184.42 633.563 184.42C629.643 184.42 626.463 187.36 626.463 191.52ZM641.931 192.94C641.931 196.34 644.231 198.68 647.091 198.68C648.931 198.68 650.251 197.8 650.951 196.86V198.5H653.251V187.48H650.951V189.08C650.271 188.18 648.991 187.3 647.131 187.3C644.231 187.3 641.931 189.54 641.931 192.94ZM650.951 192.98C650.951 195.36 649.331 196.7 647.611 196.7C645.911 196.7 644.271 195.32 644.271 192.94C644.271 190.56 645.911 189.28 647.611 189.28C649.331 189.28 650.951 190.62 650.951 192.98ZM658.526 192.7C658.526 190.36 659.566 189.66 661.246 189.66H661.826V187.3C660.266 187.3 659.166 187.98 658.526 189.08V187.48H656.246V198.5H658.526V192.7ZM668.562 189.22C670.262 189.22 671.602 190.3 671.642 192H665.542C665.782 190.26 667.022 189.22 668.562 189.22ZM673.722 195.22H671.262C670.842 196.08 670.062 196.76 668.662 196.76C666.982 196.76 665.682 195.66 665.522 193.84H673.942C674.002 193.46 674.022 193.1 674.022 192.72C674.022 189.48 671.802 187.3 668.662 187.3C665.402 187.3 663.162 189.52 663.162 192.98C663.162 196.44 665.502 198.68 668.662 198.68C671.362 198.68 673.102 197.14 673.722 195.22ZM680.906 189.22C682.606 189.22 683.946 190.3 683.986 192H677.886C678.126 190.26 679.366 189.22 680.906 189.22ZM686.066 195.22H683.606C683.186 196.08 682.406 196.76 681.006 196.76C679.326 196.76 678.026 195.66 677.866 193.84H686.286C686.346 193.46 686.366 193.1 686.366 192.72C686.366 189.48 684.146 187.3 681.006 187.3C677.746 187.3 675.506 189.52 675.506 192.98C675.506 196.44 677.846 198.68 681.006 198.68C683.706 198.68 685.446 197.14 686.066 195.22ZM690.889 192.7C690.889 190.36 691.929 189.66 693.609 189.66H694.189V187.3C692.629 187.3 691.529 187.98 690.889 189.08V187.48H688.609V198.5H690.889V192.7Z" fill="#212832"/>
<rect x="0.5" y="166.5" width="1239" height="49" stroke="black" stroke-opacity="0.5"/>
<rect x="840" width="400" height="75" fill="white"/>
<path d="M864.6 28.44C866.08 28.44 867.24 27.3 867.24 25.84C867.24 24.36 866.08 23.22 864.6 23.22C863.16 23.22 862 24.36 862 25.84C862 27.3 863.16 28.44 864.6 28.44ZM881.129 32.5H883.409V22.98L887.669 32.5H889.249L893.489 22.98V32.5H895.769V18.6H893.329L888.469 29.5L883.589 18.6H881.129V32.5ZM898.006 26.94C898.006 30.34 900.306 32.68 903.166 32.68C905.006 32.68 906.326 31.8 907.026 30.86V32.5H909.326V21.48H907.026V23.08C906.346 22.18 905.066 21.3 903.206 21.3C900.306 21.3 898.006 23.54 898.006 26.94ZM907.026 26.98C907.026 29.36 905.406 30.7 903.686 30.7C901.986 30.7 900.346 29.32 900.346 26.94C900.346 24.56 901.986 23.28 903.686 23.28C905.406 23.28 907.026 24.62 907.026 26.98ZM912.32 32.5H914.6V27.76L918.68 32.5H921.76L916.68 27L921.76 21.48H918.6L914.6 26.3V17.7H912.32V32.5ZM928.035 23.22C929.735 23.22 931.075 24.3 931.115 26H925.015C925.255 24.26 926.495 23.22 928.035 23.22ZM933.195 29.22H930.735C930.315 30.08 929.535 30.76 928.135 30.76C926.455 30.76 925.155 29.66 924.995 27.84H933.415C933.475 27.46 933.495 27.1 933.495 26.72C933.495 23.48 931.275 21.3 928.135 21.3C924.875 21.3 922.635 23.52 922.635 26.98C922.635 30.44 924.975 32.68 928.135 32.68C930.835 32.68 932.575 31.14 933.195 29.22ZM940.174 26.98C940.174 30.44 942.414 32.68 945.574 32.68C948.274 32.68 950.034 31.18 950.654 29.02H948.194C947.774 30.16 946.934 30.76 945.574 30.76C943.734 30.76 942.514 29.4 942.514 26.98C942.514 24.58 943.734 23.22 945.574 23.22C946.934 23.22 947.814 23.9 948.194 24.96H950.654C950.034 22.64 948.274 21.3 945.574 21.3C942.414 21.3 940.174 23.54 940.174 26.98ZM952.166 26.94C952.166 30.34 954.466 32.68 957.326 32.68C959.166 32.68 960.486 31.8 961.186 30.86V32.5H963.486V21.48H961.186V23.08C960.506 22.18 959.226 21.3 957.366 21.3C954.466 21.3 952.166 23.54 952.166 26.94ZM961.186 26.98C961.186 29.36 959.566 30.7 957.846 30.7C956.146 30.7 954.506 29.32 954.506 26.94C954.506 24.56 956.146 23.28 957.846 23.28C959.566 23.28 961.186 24.62 961.186 26.98ZM968.76 26.7C968.76 24.36 969.8 23.66 971.48 23.66H972.06V21.3C970.5 21.3 969.4 21.98 968.76 23.08V21.48H966.48V32.5H968.76V26.7ZM978.796 23.22C980.496 23.22 981.836 24.3 981.876 26H975.776C976.016 24.26 977.256 23.22 978.796 23.22ZM983.956 29.22H981.496C981.076 30.08 980.296 30.76 978.896 30.76C977.216 30.76 975.916 29.66 975.756 27.84H984.176C984.236 27.46 984.256 27.1 984.256 26.72C984.256 23.48 982.036 21.3 978.896 21.3C975.636 21.3 973.396 23.52 973.396 26.98C973.396 30.44 975.736 32.68 978.896 32.68C981.596 32.68 983.336 31.14 983.956 29.22ZM991.14 23.22C992.84 23.22 994.18 24.3 994.22 26H988.12C988.36 24.26 989.6 23.22 991.14 23.22ZM996.3 29.22H993.84C993.42 30.08 992.64 30.76 991.24 30.76C989.56 30.76 988.26 29.66 988.1 27.84H996.52C996.58 27.46 996.6 27.1 996.6 26.72C996.6 23.48 994.38 21.3 991.24 21.3C987.98 21.3 985.74 23.52 985.74 26.98C985.74 30.44 988.08 32.68 991.24 32.68C993.94 32.68 995.68 31.14 996.3 29.22ZM1001.12 26.7C1001.12 24.36 1002.16 23.66 1003.84 23.66H1004.42V21.3C1002.86 21.3 1001.76 21.98 1001.12 23.08V21.48H998.844V32.5H1001.12V26.7ZM1010.95 26.94C1010.95 30.34 1013.25 32.68 1016.11 32.68C1017.95 32.68 1019.27 31.8 1019.97 30.86V32.5H1022.27V21.48H1019.97V23.08C1019.29 22.18 1018.01 21.3 1016.15 21.3C1013.25 21.3 1010.95 23.54 1010.95 26.94ZM1019.97 26.98C1019.97 29.36 1018.35 30.7 1016.63 30.7C1014.93 30.7 1013.29 29.32 1013.29 26.94C1013.29 24.56 1014.93 23.28 1016.63 23.28C1018.35 23.28 1019.97 24.62 1019.97 26.98ZM1033.49 29.42C1033.37 25.44 1027.15 26.68 1027.15 24.46C1027.15 23.72 1027.79 23.22 1029.01 23.22C1030.25 23.22 1030.99 23.88 1031.07 24.84H1033.35C1033.23 22.64 1031.59 21.3 1029.09 21.3C1026.49 21.3 1024.85 22.72 1024.85 24.48C1024.85 28.52 1031.25 27.28 1031.25 29.44C1031.25 30.2 1030.55 30.76 1029.23 30.76C1027.97 30.76 1027.11 30.02 1027.03 29.12H1024.67C1024.77 31.12 1026.63 32.68 1029.27 32.68C1031.87 32.68 1033.49 31.28 1033.49 29.42ZM1040.39 26.94C1040.39 30.34 1042.69 32.68 1045.55 32.68C1047.39 32.68 1048.71 31.8 1049.41 30.86V32.5H1051.71V21.48H1049.41V23.08C1048.73 22.18 1047.45 21.3 1045.59 21.3C1042.69 21.3 1040.39 23.54 1040.39 26.94ZM1049.41 26.98C1049.41 29.36 1047.79 30.7 1046.07 30.7C1044.37 30.7 1042.73 29.32 1042.73 26.94C1042.73 24.56 1044.37 23.28 1046.07 23.28C1047.79 23.28 1049.41 24.62 1049.41 26.98ZM1064.44 18.6H1059.9V32.5H1064.44C1068.9 32.5 1071.82 29.88 1071.82 25.6C1071.82 21.3 1068.9 18.6 1064.44 18.6ZM1062.18 30.64V20.46H1064.44C1067.72 20.46 1069.48 22.42 1069.48 25.6C1069.48 28.76 1067.72 30.64 1064.44 30.64H1062.18ZM1074.08 32.5H1076.36V21.48H1074.08V32.5ZM1075.24 20.02C1076.04 20.02 1076.68 19.38 1076.68 18.56C1076.68 17.74 1076.04 17.1 1075.24 17.1C1074.42 17.1 1073.78 17.74 1073.78 18.56C1073.78 19.38 1074.42 20.02 1075.24 20.02ZM1078.59 26.94C1078.59 30.34 1080.89 32.68 1083.79 32.68C1085.59 32.68 1086.91 31.78 1087.61 30.84V32.68C1087.61 34.88 1086.29 35.96 1084.53 35.96C1082.95 35.96 1081.73 35.18 1081.39 34.04H1079.13C1079.41 36.48 1081.59 37.94 1084.53 37.94C1087.97 37.94 1089.91 35.68 1089.91 32.68V21.48H1087.61V23.08C1086.93 22.14 1085.59 21.3 1083.79 21.3C1080.89 21.3 1078.59 23.54 1078.59 26.94ZM1087.61 26.98C1087.61 29.36 1085.99 30.7 1084.27 30.7C1082.57 30.7 1080.93 29.32 1080.93 26.94C1080.93 24.56 1082.57 23.28 1084.27 23.28C1085.99 23.28 1087.61 24.62 1087.61 26.98ZM1092.91 32.5H1095.19V21.48H1092.91V32.5ZM1094.07 20.02C1094.87 20.02 1095.51 19.38 1095.51 18.56C1095.51 17.74 1094.87 17.1 1094.07 17.1C1093.25 17.1 1092.61 17.74 1092.61 18.56C1092.61 19.38 1093.25 20.02 1094.07 20.02ZM1098.54 29.44C1098.54 31.68 1099.76 32.5 1101.72 32.5H1103.52V30.6H1102.12C1101.16 30.6 1100.84 30.26 1100.84 29.44V23.34H1103.52V21.48H1100.84V18.74H1098.54V21.48H1097.24V23.34H1098.54V29.44ZM1104.86 26.94C1104.86 30.34 1107.16 32.68 1110.02 32.68C1111.86 32.68 1113.18 31.8 1113.88 30.86V32.5H1116.18V21.48H1113.88V23.08C1113.2 22.18 1111.92 21.3 1110.06 21.3C1107.16 21.3 1104.86 23.54 1104.86 26.94ZM1113.88 26.98C1113.88 29.36 1112.26 30.7 1110.54 30.7C1108.84 30.7 1107.2 29.32 1107.2 26.94C1107.2 24.56 1108.84 23.28 1110.54 23.28C1112.26 23.28 1113.88 24.62 1113.88 26.98ZM1119.18 32.5H1121.46V17.7H1119.18V32.5ZM1129.64 32.5H1131.92V22.98L1136.18 32.5H1137.76L1142 22.98V32.5H1144.28V18.6H1141.84L1136.98 29.5L1132.1 18.6H1129.64V32.5ZM1146.52 26.94C1146.52 30.34 1148.82 32.68 1151.68 32.68C1153.52 32.68 1154.84 31.8 1155.54 30.86V32.5H1157.84V21.48H1155.54V23.08C1154.86 22.18 1153.58 21.3 1151.72 21.3C1148.82 21.3 1146.52 23.54 1146.52 26.94ZM1155.54 26.98C1155.54 29.36 1153.92 30.7 1152.2 30.7C1150.5 30.7 1148.86 29.32 1148.86 26.94C1148.86 24.56 1150.5 23.28 1152.2 23.28C1153.92 23.28 1155.54 24.62 1155.54 26.98ZM1163.12 26.7C1163.12 24.36 1164.16 23.66 1165.84 23.66H1166.42V21.3C1164.86 21.3 1163.76 21.98 1163.12 23.08V21.48H1160.84V32.5H1163.12V26.7ZM1168.51 32.5H1170.79V27.76L1174.87 32.5H1177.95L1172.87 27L1177.95 21.48H1174.79L1170.79 26.3V17.7H1168.51V32.5ZM1184.23 23.22C1185.93 23.22 1187.27 24.3 1187.31 26H1181.21C1181.45 24.26 1182.69 23.22 1184.23 23.22ZM1189.39 29.22H1186.93C1186.51 30.08 1185.73 30.76 1184.33 30.76C1182.65 30.76 1181.35 29.66 1181.19 27.84H1189.61C1189.67 27.46 1189.69 27.1 1189.69 26.72C1189.69 23.48 1187.47 21.3 1184.33 21.3C1181.07 21.3 1178.83 23.52 1178.83 26.98C1178.83 30.44 1181.17 32.68 1184.33 32.68C1187.03 32.68 1188.77 31.14 1189.39 29.22ZM1192.29 29.44C1192.29 31.68 1193.51 32.5 1195.47 32.5H1197.27V30.6H1195.87C1194.91 30.6 1194.59 30.26 1194.59 29.44V23.34H1197.27V21.48H1194.59V18.74H1192.29V21.48H1190.99V23.34H1192.29V29.44ZM1199.37 32.5H1201.65V21.48H1199.37V32.5ZM1200.53 20.02C1201.33 20.02 1201.97 19.38 1201.97 18.56C1201.97 17.74 1201.33 17.1 1200.53 17.1C1199.71 17.1 1199.07 17.74 1199.07 18.56C1199.07 19.38 1199.71 20.02 1200.53 20.02ZM1212.46 32.5H1214.72V26C1214.72 22.92 1212.78 21.3 1210.2 21.3C1208.88 21.3 1207.66 21.84 1206.92 22.74V21.48H1204.64V32.5H1206.92V26.34C1206.92 24.32 1208.02 23.28 1209.7 23.28C1211.36 23.28 1212.46 24.32 1212.46 26.34V32.5ZM1216.87 26.94C1216.87 30.34 1219.17 32.68 1222.07 32.68C1223.87 32.68 1225.19 31.78 1225.89 30.84V32.68C1225.89 34.88 1224.57 35.96 1222.81 35.96C1221.23 35.96 1220.01 35.18 1219.67 34.04H1217.41C1217.69 36.48 1219.87 37.94 1222.81 37.94C1226.25 37.94 1228.19 35.68 1228.19 32.68V21.48H1225.89V23.08C1225.21 22.14 1223.87 21.3 1222.07 21.3C1219.17 21.3 1216.87 23.54 1216.87 26.94ZM1225.89 26.98C1225.89 29.36 1224.27 30.7 1222.55 30.7C1220.85 30.7 1219.21 29.32 1219.21 26.94C1219.21 24.56 1220.85 23.28 1222.55 23.28C1224.27 23.28 1225.89 24.62 1225.89 26.98ZM884.561 50V45.46H887.081C888.861 45.46 889.661 46.3 889.661 47.74C889.661 49.14 888.861 50 887.081 50H884.561ZM892.001 47.74C892.001 45.48 890.381 43.6 887.081 43.6H882.281V57.5H884.561V51.86H887.081C890.701 51.86 892.001 49.72 892.001 47.74ZM896.456 51.7C896.456 49.36 897.496 48.66 899.176 48.66H899.756V46.3C898.196 46.3 897.096 46.98 896.456 48.08V46.48H894.176V57.5H896.456V51.7ZM912.352 51.98C912.352 48.52 909.872 46.3 906.732 46.3C903.592 46.3 901.112 48.52 901.112 51.98C901.112 55.44 903.492 57.68 906.632 57.68C909.792 57.68 912.352 55.44 912.352 51.98ZM903.432 51.98C903.432 49.48 904.972 48.28 906.692 48.28C908.392 48.28 910.012 49.48 910.012 51.98C910.012 54.48 908.332 55.7 906.632 55.7C904.912 55.7 903.432 54.48 903.432 51.98ZM914.885 57.5H917.185V48.34H919.225V46.48H917.185V45.7C917.185 44.44 917.665 43.96 919.065 43.96V42.06C916.185 42.06 914.885 43.16 914.885 45.7V46.48H913.585V48.34H914.885V57.5ZM925.886 48.22C927.586 48.22 928.926 49.3 928.966 51H922.866C923.106 49.26 924.346 48.22 925.886 48.22ZM931.046 54.22H928.586C928.166 55.08 927.386 55.76 925.986 55.76C924.306 55.76 923.006 54.66 922.846 52.84H931.266C931.326 52.46 931.346 52.1 931.346 51.72C931.346 48.48 929.126 46.3 925.986 46.3C922.726 46.3 920.486 48.52 920.486 51.98C920.486 55.44 922.826 57.68 925.986 57.68C928.686 57.68 930.426 56.14 931.046 54.22ZM941.81 54.42C941.69 50.44 935.47 51.68 935.47 49.46C935.47 48.72 936.11 48.22 937.33 48.22C938.57 48.22 939.31 48.88 939.39 49.84H941.67C941.55 47.64 939.91 46.3 937.41 46.3C934.81 46.3 933.17 47.72 933.17 49.48C933.17 53.52 939.57 52.28 939.57 54.44C939.57 55.2 938.87 55.76 937.55 55.76C936.29 55.76 935.43 55.02 935.35 54.12H932.99C933.09 56.12 934.95 57.68 937.59 57.68C940.19 57.68 941.81 56.28 941.81 54.42ZM952.493 54.42C952.373 50.44 946.153 51.68 946.153 49.46C946.153 48.72 946.793 48.22 948.013 48.22C949.253 48.22 949.993 48.88 950.073 49.84H952.353C952.233 47.64 950.593 46.3 948.093 46.3C945.493 46.3 943.853 47.72 943.853 49.48C943.853 53.52 950.253 52.28 950.253 54.44C950.253 55.2 949.553 55.76 948.233 55.76C946.973 55.76 946.113 55.02 946.033 54.12H943.673C943.773 56.12 945.633 57.68 948.273 57.68C950.873 57.68 952.493 56.28 952.493 54.42ZM954.957 57.5H957.237V46.48H954.957V57.5ZM956.117 45.02C956.917 45.02 957.557 44.38 957.557 43.56C957.557 42.74 956.917 42.1 956.117 42.1C955.297 42.1 954.657 42.74 954.657 43.56C954.657 44.38 955.297 45.02 956.117 45.02ZM970.73 51.98C970.73 48.52 968.25 46.3 965.11 46.3C961.97 46.3 959.49 48.52 959.49 51.98C959.49 55.44 961.87 57.68 965.01 57.68C968.17 57.68 970.73 55.44 970.73 51.98ZM961.81 51.98C961.81 49.48 963.35 48.28 965.07 48.28C966.77 48.28 968.39 49.48 968.39 51.98C968.39 54.48 966.71 55.7 965.01 55.7C963.29 55.7 961.81 54.48 961.81 51.98ZM980.804 57.5H983.064V51C983.064 47.92 981.124 46.3 978.544 46.3C977.224 46.3 976.004 46.84 975.264 47.74V46.48H972.984V57.5H975.264V51.34C975.264 49.32 976.364 48.28 978.044 48.28C979.704 48.28 980.804 49.32 980.804 51.34V57.5ZM985.213 51.94C985.213 55.34 987.513 57.68 990.373 57.68C992.213 57.68 993.533 56.8 994.233 55.86V57.5H996.533V46.48H994.233V48.08C993.553 47.18 992.273 46.3 990.413 46.3C987.513 46.3 985.213 48.54 985.213 51.94ZM994.233 51.98C994.233 54.36 992.613 55.7 990.893 55.7C989.193 55.7 987.553 54.32 987.553 51.94C987.553 49.56 989.193 48.28 990.893 48.28C992.613 48.28 994.233 49.62 994.233 51.98ZM999.527 57.5H1001.81V42.7H999.527V57.5ZM1007.16 56.18C1007.16 55.36 1006.52 54.72 1005.72 54.72C1004.9 54.72 1004.26 55.36 1004.26 56.18C1004.26 57 1004.9 57.64 1005.72 57.64C1006.52 57.64 1007.16 57 1007.16 56.18Z" fill="#212832"/>
<rect x="840.5" y="0.5" width="399" height="74" stroke="black" stroke-opacity="0.5"/>
<rect x="840" y="83" width="400" height="75" fill="white"/>
<path d="M864.6 111.44C866.08 111.44 867.24 110.3 867.24 108.84C867.24 107.36 866.08 106.22 864.6 106.22C863.16 106.22 862 107.36 862 108.84C862 110.3 863.16 111.44 864.6 111.44ZM880.369 108.52C880.369 112.7 883.549 115.62 887.469 115.62C890.369 115.62 892.869 114.18 893.929 111.46H891.189C890.449 112.94 889.129 113.64 887.469 113.64C884.709 113.64 882.709 111.66 882.709 108.52C882.709 105.38 884.709 103.42 887.469 103.42C889.129 103.42 890.449 104.12 891.189 105.6H893.929C892.869 102.88 890.369 101.42 887.469 101.42C883.549 101.42 880.369 104.36 880.369 108.52ZM896.598 115.5H898.878V109.34C898.878 107.32 899.978 106.28 901.658 106.28C903.318 106.28 904.418 107.32 904.418 109.34V115.5H906.678V109C906.678 105.92 904.758 104.3 902.298 104.3C900.878 104.3 899.638 104.84 898.878 105.76V100.7H896.598V115.5ZM920.086 109.98C920.086 106.52 917.606 104.3 914.466 104.3C911.326 104.3 908.846 106.52 908.846 109.98C908.846 113.44 911.226 115.68 914.366 115.68C917.526 115.68 920.086 113.44 920.086 109.98ZM911.166 109.98C911.166 107.48 912.706 106.28 914.426 106.28C916.126 106.28 917.746 107.48 917.746 109.98C917.746 112.48 916.066 113.7 914.366 113.7C912.646 113.7 911.166 112.48 911.166 109.98ZM932.84 109.98C932.84 106.52 930.36 104.3 927.22 104.3C924.08 104.3 921.6 106.52 921.6 109.98C921.6 113.44 923.98 115.68 927.12 115.68C930.28 115.68 932.84 113.44 932.84 109.98ZM923.92 109.98C923.92 107.48 925.46 106.28 927.18 106.28C928.88 106.28 930.5 107.48 930.5 109.98C930.5 112.48 928.82 113.7 927.12 113.7C925.4 113.7 923.92 112.48 923.92 109.98ZM943.314 112.42C943.194 108.44 936.974 109.68 936.974 107.46C936.974 106.72 937.614 106.22 938.834 106.22C940.074 106.22 940.814 106.88 940.894 107.84H943.174C943.054 105.64 941.414 104.3 938.914 104.3C936.314 104.3 934.674 105.72 934.674 107.48C934.674 111.52 941.074 110.28 941.074 112.44C941.074 113.2 940.374 113.76 939.054 113.76C937.794 113.76 936.934 113.02 936.854 112.12H934.494C934.594 114.12 936.454 115.68 939.094 115.68C941.694 115.68 943.314 114.28 943.314 112.42ZM950.417 106.22C952.117 106.22 953.457 107.3 953.497 109H947.397C947.637 107.26 948.877 106.22 950.417 106.22ZM955.577 112.22H953.117C952.697 113.08 951.917 113.76 950.517 113.76C948.837 113.76 947.537 112.66 947.377 110.84H955.797C955.857 110.46 955.877 110.1 955.877 109.72C955.877 106.48 953.657 104.3 950.517 104.3C947.257 104.3 945.017 106.52 945.017 109.98C945.017 113.44 947.357 115.68 950.517 115.68C953.217 115.68 954.957 114.14 955.577 112.22ZM962.556 109.94C962.556 113.34 964.856 115.68 967.716 115.68C969.556 115.68 970.876 114.8 971.576 113.86V115.5H973.876V104.48H971.576V106.08C970.896 105.18 969.616 104.3 967.756 104.3C964.856 104.3 962.556 106.54 962.556 109.94ZM971.576 109.98C971.576 112.36 969.956 113.7 968.236 113.7C966.536 113.7 964.896 112.32 964.896 109.94C964.896 107.56 966.536 106.28 968.236 106.28C969.956 106.28 971.576 107.62 971.576 109.98ZM981.306 108.52C981.306 112.7 984.486 115.62 988.406 115.62C991.306 115.62 993.806 114.18 994.866 111.46H992.126C991.386 112.94 990.066 113.64 988.406 113.64C985.646 113.64 983.646 111.66 983.646 108.52C983.646 105.38 985.646 103.42 988.406 103.42C990.066 103.42 991.386 104.12 992.126 105.6H994.866C993.806 102.88 991.306 101.42 988.406 101.42C984.486 101.42 981.306 104.36 981.306 108.52ZM996.775 109.94C996.775 113.34 999.075 115.68 1001.94 115.68C1003.78 115.68 1005.1 114.8 1005.8 113.86V115.5H1008.1V104.48H1005.8V106.08C1005.12 105.18 1003.84 104.3 1001.98 104.3C999.075 104.3 996.775 106.54 996.775 109.94ZM1005.8 109.98C1005.8 112.36 1004.18 113.7 1002.46 113.7C1000.76 113.7 999.115 112.32 999.115 109.94C999.115 107.56 1000.76 106.28 1002.46 106.28C1004.18 106.28 1005.8 107.62 1005.8 109.98ZM1013.37 109.7C1013.37 107.36 1014.41 106.66 1016.09 106.66H1016.67V104.3C1015.11 104.3 1014.01 104.98 1013.37 106.08V104.48H1011.09V115.5H1013.37V109.7ZM1023.41 106.22C1025.11 106.22 1026.45 107.3 1026.49 109H1020.39C1020.63 107.26 1021.87 106.22 1023.41 106.22ZM1028.57 112.22H1026.11C1025.69 113.08 1024.91 113.76 1023.51 113.76C1021.83 113.76 1020.53 112.66 1020.37 110.84H1028.79C1028.85 110.46 1028.87 110.1 1028.87 109.72C1028.87 106.48 1026.65 104.3 1023.51 104.3C1020.25 104.3 1018.01 106.52 1018.01 109.98C1018.01 113.44 1020.35 115.68 1023.51 115.68C1026.21 115.68 1027.95 114.14 1028.57 112.22ZM1035.75 106.22C1037.45 106.22 1038.79 107.3 1038.83 109H1032.73C1032.97 107.26 1034.21 106.22 1035.75 106.22ZM1040.91 112.22H1038.45C1038.03 113.08 1037.25 113.76 1035.85 113.76C1034.17 113.76 1032.87 112.66 1032.71 110.84H1041.13C1041.19 110.46 1041.21 110.1 1041.21 109.72C1041.21 106.48 1038.99 104.3 1035.85 104.3C1032.59 104.3 1030.35 106.52 1030.35 109.98C1030.35 113.44 1032.69 115.68 1035.85 115.68C1038.55 115.68 1040.29 114.14 1040.91 112.22ZM1045.73 109.7C1045.73 107.36 1046.77 106.66 1048.45 106.66H1049.03V104.3C1047.47 104.3 1046.37 104.98 1045.73 106.08V104.48H1043.45V115.5H1045.73V109.7ZM1056.32 115.5H1058.6V104.48H1056.32V115.5ZM1057.48 103.02C1058.28 103.02 1058.92 102.38 1058.92 101.56C1058.92 100.74 1058.28 100.1 1057.48 100.1C1056.66 100.1 1056.02 100.74 1056.02 101.56C1056.02 102.38 1056.66 103.02 1057.48 103.02ZM1069.42 115.5H1071.68V109C1071.68 105.92 1069.74 104.3 1067.16 104.3C1065.84 104.3 1064.62 104.84 1063.88 105.74V104.48H1061.6V115.5H1063.88V109.34C1063.88 107.32 1064.98 106.28 1066.66 106.28C1068.32 106.28 1069.42 107.32 1069.42 109.34V115.5ZM1089.16 115.5H1091.56L1086.58 101.58H1083.94L1078.96 115.5H1081.34L1082.34 112.66H1088.16L1089.16 115.5ZM1087.52 110.8H1082.98L1085.26 104.34L1087.52 110.8ZM1103.71 104.48H1101.43V110.62C1101.43 112.64 1100.33 113.68 1098.65 113.68C1096.99 113.68 1095.89 112.64 1095.89 110.62V104.48H1093.63V110.96C1093.63 114.04 1095.59 115.66 1098.17 115.66C1099.47 115.66 1100.71 115.12 1101.43 114.18V115.5H1103.71V104.48ZM1105.95 109.94C1105.95 113.34 1108.25 115.68 1111.15 115.68C1112.95 115.68 1114.27 114.84 1114.97 113.84V115.5H1117.27V100.7H1114.97V106.02C1114.13 104.98 1112.61 104.3 1111.17 104.3C1108.25 104.3 1105.95 106.54 1105.95 109.94ZM1114.97 109.98C1114.97 112.36 1113.35 113.7 1111.63 113.7C1109.93 113.7 1108.29 112.32 1108.29 109.94C1108.29 107.56 1109.93 106.28 1111.63 106.28C1113.35 106.28 1114.97 107.62 1114.97 109.98ZM1120.27 115.5H1122.55V104.48H1120.27V115.5ZM1121.43 103.02C1122.23 103.02 1122.87 102.38 1122.87 101.56C1122.87 100.74 1122.23 100.1 1121.43 100.1C1120.61 100.1 1119.97 100.74 1119.97 101.56C1119.97 102.38 1120.61 103.02 1121.43 103.02ZM1125.9 112.44C1125.9 114.68 1127.12 115.5 1129.08 115.5H1130.88V113.6H1129.48C1128.52 113.6 1128.2 113.26 1128.2 112.44V106.34H1130.88V104.48H1128.2V101.74H1125.9V104.48H1124.6V106.34H1125.9V112.44ZM1132.98 115.5H1135.26V104.48H1132.98V115.5ZM1134.14 103.02C1134.94 103.02 1135.58 102.38 1135.58 101.56C1135.58 100.74 1134.94 100.1 1134.14 100.1C1133.32 100.1 1132.68 100.74 1132.68 101.56C1132.68 102.38 1133.32 103.02 1134.14 103.02ZM1146.08 115.5H1148.34V109C1148.34 105.92 1146.4 104.3 1143.82 104.3C1142.5 104.3 1141.28 104.84 1140.54 105.74V104.48H1138.26V115.5H1140.54V109.34C1140.54 107.32 1141.64 106.28 1143.32 106.28C1144.98 106.28 1146.08 107.32 1146.08 109.34V115.5ZM1150.49 109.94C1150.49 113.34 1152.79 115.68 1155.69 115.68C1157.49 115.68 1158.81 114.78 1159.51 113.84V115.68C1159.51 117.88 1158.19 118.96 1156.43 118.96C1154.85 118.96 1153.63 118.18 1153.29 117.04H1151.03C1151.31 119.48 1153.49 120.94 1156.43 120.94C1159.87 120.94 1161.81 118.68 1161.81 115.68V104.48H1159.51V106.08C1158.83 105.14 1157.49 104.3 1155.69 104.3C1152.79 104.3 1150.49 106.54 1150.49 109.94ZM1159.51 109.98C1159.51 112.36 1157.89 113.7 1156.17 113.7C1154.47 113.7 1152.83 112.32 1152.83 109.94C1152.83 107.56 1154.47 106.28 1156.17 106.28C1157.89 106.28 1159.51 107.62 1159.51 109.98ZM1163.4 118.28H1164.88L1167.3 112.76H1164.82L1163.4 118.28ZM1181.87 105.76C1181.87 107.14 1181.07 108.12 1179.29 108.12H1176.77V103.46H1179.29C1181.07 103.46 1181.87 104.36 1181.87 105.76ZM1174.49 101.6V115.5H1176.77V109.94H1178.51L1181.71 115.5H1184.43L1180.99 109.74C1183.33 109.16 1184.21 107.4 1184.21 105.76C1184.21 103.5 1182.59 101.6 1179.29 101.6H1174.49ZM1191.77 106.22C1193.47 106.22 1194.81 107.3 1194.85 109H1188.75C1188.99 107.26 1190.23 106.22 1191.77 106.22ZM1196.92 112.22H1194.47C1194.05 113.08 1193.27 113.76 1191.87 113.76C1190.19 113.76 1188.89 112.66 1188.73 110.84H1197.15C1197.21 110.46 1197.23 110.1 1197.23 109.72C1197.23 106.48 1195.01 104.3 1191.87 104.3C1188.61 104.3 1186.37 106.52 1186.37 109.98C1186.37 113.44 1188.71 115.68 1191.87 115.68C1194.57 115.68 1196.31 114.14 1196.92 112.22ZM1199.83 112.44C1199.83 114.68 1201.05 115.5 1203.01 115.5H1204.81V113.6H1203.41C1202.45 113.6 1202.13 113.26 1202.13 112.44V106.34H1204.81V104.48H1202.13V101.74H1199.83V104.48H1198.53V106.34H1199.83V112.44ZM1206.15 109.94C1206.15 113.34 1208.45 115.68 1211.31 115.68C1213.15 115.68 1214.47 114.8 1215.17 113.86V115.5H1217.47V104.48H1215.17V106.08C1214.49 105.18 1213.21 104.3 1211.35 104.3C1208.45 104.3 1206.15 106.54 1206.15 109.94ZM1215.17 109.98C1215.17 112.36 1213.55 113.7 1211.83 113.7C1210.13 113.7 1208.49 112.32 1208.49 109.94C1208.49 107.56 1210.13 106.28 1211.83 106.28C1213.55 106.28 1215.17 107.62 1215.17 109.98ZM1220.46 115.5H1222.74V104.48H1220.46V115.5ZM1221.62 103.02C1222.42 103.02 1223.06 102.38 1223.06 101.56C1223.06 100.74 1222.42 100.1 1221.62 100.1C1220.8 100.1 1220.16 100.74 1220.16 101.56C1220.16 102.38 1220.8 103.02 1221.62 103.02ZM1225.74 115.5H1228.02V100.7H1225.74V115.5ZM1229.61 118.28H1231.09L1233.51 112.76H1231.03L1229.61 118.28ZM895.721 133.52C895.721 129.36 892.581 126.42 888.621 126.42C884.701 126.42 881.521 129.36 881.521 133.52C881.521 137.7 884.701 140.64 888.621 140.64C892.581 140.64 895.721 137.7 895.721 133.52ZM883.861 133.52C883.861 130.38 885.861 128.42 888.621 128.42C891.381 128.42 893.381 130.38 893.381 133.52C893.381 136.66 891.381 138.66 888.621 138.66C885.861 138.66 883.861 136.66 883.861 133.52ZM898.245 140.5H900.545V131.34H902.585V129.48H900.545V128.7C900.545 127.44 901.025 126.96 902.425 126.96V125.06C899.545 125.06 898.245 126.16 898.245 128.7V129.48H896.945V131.34H898.245V140.5ZM904.885 140.5H907.185V131.34H909.225V129.48H907.185V128.7C907.185 127.44 907.665 126.96 909.065 126.96V125.06C906.185 125.06 904.885 126.16 904.885 128.7V129.48H903.585V131.34H904.885V140.5ZM911.246 140.5H913.526V129.48H911.246V140.5ZM912.406 128.02C913.206 128.02 913.846 127.38 913.846 126.56C913.846 125.74 913.206 125.1 912.406 125.1C911.586 125.1 910.946 125.74 910.946 126.56C910.946 127.38 911.586 128.02 912.406 128.02ZM915.76 134.98C915.76 138.44 918 140.68 921.16 140.68C923.86 140.68 925.62 139.18 926.24 137.02H923.78C923.36 138.16 922.52 138.76 921.16 138.76C919.32 138.76 918.1 137.4 918.1 134.98C918.1 132.58 919.32 131.22 921.16 131.22C922.52 131.22 923.4 131.9 923.78 132.96H926.24C925.62 130.64 923.86 129.3 921.16 129.3C918 129.3 915.76 131.54 915.76 134.98ZM933.152 131.22C934.852 131.22 936.192 132.3 936.232 134H930.132C930.372 132.26 931.612 131.22 933.152 131.22ZM938.312 137.22H935.852C935.432 138.08 934.652 138.76 933.252 138.76C931.572 138.76 930.272 137.66 930.112 135.84H938.532C938.592 135.46 938.612 135.1 938.612 134.72C938.612 131.48 936.392 129.3 933.252 129.3C929.992 129.3 927.752 131.52 927.752 134.98C927.752 138.44 930.092 140.68 933.252 140.68C935.952 140.68 937.692 139.14 938.312 137.22ZM953.731 126.58H946.051V140.5H953.731V138.64H948.331V134.38H953.131V132.52H948.331V128.44H953.731V126.58ZM962.239 140.5H964.819L961.259 134.92L964.819 129.48H962.439L960.199 133.22L957.819 129.48H955.239L958.799 135.08L955.239 140.5H957.619L959.859 136.76L962.239 140.5ZM971.16 131.22C972.86 131.22 974.2 132.3 974.24 134H968.14C968.38 132.26 969.62 131.22 971.16 131.22ZM976.32 137.22H973.86C973.44 138.08 972.66 138.76 971.26 138.76C969.58 138.76 968.28 137.66 968.12 135.84H976.54C976.6 135.46 976.62 135.1 976.62 134.72C976.62 131.48 974.4 129.3 971.26 129.3C968 129.3 965.76 131.52 965.76 134.98C965.76 138.44 968.1 140.68 971.26 140.68C973.96 140.68 975.7 139.14 976.32 137.22ZM978.103 134.98C978.103 138.44 980.343 140.68 983.503 140.68C986.203 140.68 987.963 139.18 988.583 137.02H986.123C985.703 138.16 984.863 138.76 983.503 138.76C981.663 138.76 980.443 137.4 980.443 134.98C980.443 132.58 981.663 131.22 983.503 131.22C984.863 131.22 985.743 131.9 986.123 132.96H988.583C987.963 130.64 986.203 129.3 983.503 129.3C980.343 129.3 978.103 131.54 978.103 134.98ZM1000.84 129.48H998.555V135.62C998.555 137.64 997.455 138.68 995.775 138.68C994.115 138.68 993.015 137.64 993.015 135.62V129.48H990.755V135.96C990.755 139.04 992.715 140.66 995.295 140.66C996.595 140.66 997.835 140.12 998.555 139.18V140.5H1000.84V129.48ZM1004.2 137.44C1004.2 139.68 1005.42 140.5 1007.38 140.5H1009.18V138.6H1007.78C1006.82 138.6 1006.5 138.26 1006.5 137.44V131.34H1009.18V129.48H1006.5V126.74H1004.2V129.48H1002.9V131.34H1004.2V137.44ZM1011.29 140.5H1013.57V129.48H1011.29V140.5ZM1012.45 128.02C1013.25 128.02 1013.89 127.38 1013.89 126.56C1013.89 125.74 1013.25 125.1 1012.45 125.1C1011.63 125.1 1010.99 125.74 1010.99 126.56C1010.99 127.38 1011.63 128.02 1012.45 128.02ZM1015.26 129.48L1019.44 140.5H1022.16L1026.36 129.48H1023.94L1020.82 138.46L1017.7 129.48H1015.26ZM1032.72 131.22C1034.42 131.22 1035.76 132.3 1035.8 134H1029.7C1029.94 132.26 1031.18 131.22 1032.72 131.22ZM1037.88 137.22H1035.42C1035 138.08 1034.22 138.76 1032.82 138.76C1031.14 138.76 1029.84 137.66 1029.68 135.84H1038.1C1038.16 135.46 1038.18 135.1 1038.18 134.72C1038.18 131.48 1035.96 129.3 1032.82 129.3C1029.56 129.3 1027.32 131.52 1027.32 134.98C1027.32 138.44 1029.66 140.68 1032.82 140.68C1035.52 140.68 1037.26 139.14 1037.88 137.22Z" fill="#212832"/>
<rect x="840.5" y="83.5" width="399" height="74" stroke="black" stroke-opacity="0.5"/>
<rect x="420" width="400" height="75" fill="white"/>
<path d="M444.6 40.94C446.08 40.94 447.24 39.8 447.24 38.34C447.24 36.86 446.08 35.72 444.6 35.72C443.16 35.72 442 36.86 442 38.34C442 39.8 443.16 40.94 444.6 40.94ZM461.129 45H463.409V35.48L467.669 45H469.249L473.489 35.48V45H475.769V31.1H473.329L468.469 42L463.589 31.1H461.129V45ZM487.906 31.08V41.44L481.046 31.08H478.766V45H481.046V34.62L487.906 45H490.186V31.08H487.906ZM492.42 38.02C492.42 42.2 495.6 45.12 499.52 45.12C502.42 45.12 504.92 43.68 505.98 40.96H503.24C502.5 42.44 501.18 43.14 499.52 43.14C496.76 43.14 494.76 41.16 494.76 38.02C494.76 34.88 496.76 32.92 499.52 32.92C501.18 32.92 502.5 33.62 503.24 35.1H505.98C504.92 32.38 502.42 30.92 499.52 30.92C495.6 30.92 492.42 33.86 492.42 38.02ZM516.868 41.92C516.748 37.94 510.528 39.18 510.528 36.96C510.528 36.22 511.168 35.72 512.388 35.72C513.628 35.72 514.368 36.38 514.448 37.34H516.728C516.608 35.14 514.968 33.8 512.468 33.8C509.868 33.8 508.228 35.22 508.228 36.98C508.228 41.02 514.628 39.78 514.628 41.94C514.628 42.7 513.928 43.26 512.608 43.26C511.348 43.26 510.488 42.52 510.408 41.62H508.048C508.148 43.62 510.008 45.18 512.648 45.18C515.248 45.18 516.868 43.78 516.868 41.92ZM535.027 39.48C535.027 36.02 532.547 33.8 529.407 33.8C526.267 33.8 523.787 36.02 523.787 39.48C523.787 42.94 526.167 45.18 529.307 45.18C532.467 45.18 535.027 42.94 535.027 39.48ZM526.107 39.48C526.107 36.98 527.647 35.78 529.367 35.78C531.067 35.78 532.687 36.98 532.687 39.48C532.687 41.98 531.007 43.2 529.307 43.2C527.587 43.2 526.107 41.98 526.107 39.48ZM537.561 45H539.861V35.84H541.901V33.98H539.861V33.2C539.861 31.94 540.341 31.46 541.741 31.46V29.56C538.861 29.56 537.561 30.66 537.561 33.2V33.98H536.261V35.84H537.561V45ZM544.202 45H546.502V35.84H548.542V33.98H546.502V33.2C546.502 31.94 546.982 31.46 548.382 31.46V29.56C545.502 29.56 544.202 30.66 544.202 33.2V33.98H542.902V35.84H544.202V45ZM555.203 35.72C556.903 35.72 558.243 36.8 558.283 38.5H552.183C552.423 36.76 553.663 35.72 555.203 35.72ZM560.362 41.72H557.903C557.483 42.58 556.703 43.26 555.303 43.26C553.623 43.26 552.323 42.16 552.163 40.34H560.583C560.643 39.96 560.663 39.6 560.663 39.22C560.663 35.98 558.443 33.8 555.303 33.8C552.043 33.8 549.803 36.02 549.803 39.48C549.803 42.94 552.143 45.18 555.303 45.18C558.003 45.18 559.743 43.64 560.362 41.72ZM565.186 39.2C565.186 36.86 566.226 36.16 567.906 36.16H568.486V33.8C566.926 33.8 565.826 34.48 565.186 35.58V33.98H562.906V45H565.186V39.2ZM570.582 45H572.862V33.98H570.582V45ZM571.742 32.52C572.542 32.52 573.182 31.88 573.182 31.06C573.182 30.24 572.542 29.6 571.742 29.6C570.922 29.6 570.282 30.24 570.282 31.06C570.282 31.88 570.922 32.52 571.742 32.52ZM583.675 45H585.935V38.5C585.935 35.42 583.995 33.8 581.415 33.8C580.095 33.8 578.875 34.34 578.135 35.24V33.98H575.855V45H578.135V38.84C578.135 36.82 579.235 35.78 580.915 35.78C582.575 35.78 583.675 36.82 583.675 38.84V45ZM588.084 39.44C588.084 42.84 590.384 45.18 593.284 45.18C595.084 45.18 596.404 44.28 597.104 43.34V45.18C597.104 47.38 595.784 48.46 594.024 48.46C592.444 48.46 591.224 47.68 590.884 46.54H588.624C588.904 48.98 591.084 50.44 594.024 50.44C597.464 50.44 599.404 48.18 599.404 45.18V33.98H597.104V35.58C596.424 34.64 595.084 33.8 593.284 33.8C590.384 33.8 588.084 36.04 588.084 39.44ZM597.104 39.48C597.104 41.86 595.484 43.2 593.764 43.2C592.064 43.2 590.424 41.82 590.424 39.44C590.424 37.06 592.064 35.78 593.764 35.78C595.484 35.78 597.104 37.12 597.104 39.48ZM607.594 45H609.874V35.48L614.134 45H615.714L619.954 35.48V45H622.234V31.1H619.794L614.934 42L610.054 31.1H607.594V45ZM624.47 39.44C624.47 42.84 626.77 45.18 629.63 45.18C631.47 45.18 632.79 44.3 633.49 43.36V45H635.79V33.98H633.49V35.58C632.81 34.68 631.53 33.8 629.67 33.8C626.77 33.8 624.47 36.04 624.47 39.44ZM633.49 39.48C633.49 41.86 631.87 43.2 630.15 43.2C628.45 43.2 626.81 41.82 626.81 39.44C626.81 37.06 628.45 35.78 630.15 35.78C631.87 35.78 633.49 37.12 633.49 39.48ZM646.605 45H648.865V38.5C648.865 35.42 646.925 33.8 644.345 33.8C643.025 33.8 641.805 34.34 641.065 35.24V33.98H638.785V45H641.065V38.84C641.065 36.82 642.165 35.78 643.845 35.78C645.505 35.78 646.605 36.82 646.605 38.84V45ZM651.013 39.44C651.013 42.84 653.313 45.18 656.173 45.18C658.013 45.18 659.333 44.3 660.033 43.36V45H662.333V33.98H660.033V35.58C659.353 34.68 658.073 33.8 656.213 33.8C653.313 33.8 651.013 36.04 651.013 39.44ZM660.033 39.48C660.033 41.86 658.413 43.2 656.693 43.2C654.993 43.2 653.353 41.82 653.353 39.44C653.353 37.06 654.993 35.78 656.693 35.78C658.413 35.78 660.033 37.12 660.033 39.48ZM664.568 39.44C664.568 42.84 666.868 45.18 669.768 45.18C671.568 45.18 672.888 44.28 673.588 43.34V45.18C673.588 47.38 672.268 48.46 670.508 48.46C668.928 48.46 667.708 47.68 667.368 46.54H665.108C665.388 48.98 667.568 50.44 670.508 50.44C673.948 50.44 675.888 48.18 675.888 45.18V33.98H673.588V35.58C672.908 34.64 671.568 33.8 669.768 33.8C666.868 33.8 664.568 36.04 664.568 39.44ZM673.588 39.48C673.588 41.86 671.968 43.2 670.248 43.2C668.548 43.2 666.908 41.82 666.908 39.44C666.908 37.06 668.548 35.78 670.248 35.78C671.968 35.78 673.588 37.12 673.588 39.48ZM683.523 35.72C685.223 35.72 686.563 36.8 686.603 38.5H680.503C680.743 36.76 681.983 35.72 683.523 35.72ZM688.683 41.72H686.223C685.803 42.58 685.023 43.26 683.623 43.26C681.943 43.26 680.643 42.16 680.483 40.34H688.903C688.963 39.96 688.983 39.6 688.983 39.22C688.983 35.98 686.763 33.8 683.623 33.8C680.363 33.8 678.123 36.02 678.123 39.48C678.123 42.94 680.463 45.18 683.623 45.18C686.323 45.18 688.063 43.64 688.683 41.72ZM693.507 39.2C693.507 36.86 694.547 36.16 696.227 36.16H696.807V33.8C695.247 33.8 694.147 34.48 693.507 35.58V33.98H691.227V45H693.507V39.2ZM698.902 45H701.182V33.98H698.902V45ZM700.062 32.52C700.862 32.52 701.502 31.88 701.502 31.06C701.502 30.24 700.862 29.6 700.062 29.6C699.242 29.6 698.602 30.24 698.602 31.06C698.602 31.88 699.242 32.52 700.062 32.52ZM703.416 39.44C703.416 42.84 705.716 45.18 708.576 45.18C710.416 45.18 711.736 44.3 712.436 43.36V45H714.736V33.98H712.436V35.58C711.756 34.68 710.476 33.8 708.616 33.8C705.716 33.8 703.416 36.04 703.416 39.44ZM712.436 39.48C712.436 41.86 710.816 43.2 709.096 43.2C707.396 43.2 705.756 41.82 705.756 39.44C705.756 37.06 707.396 35.78 709.096 35.78C710.816 35.78 712.436 37.12 712.436 39.48ZM717.73 45H720.01V30.2H717.73V45ZM730.479 39.2C730.479 36.86 731.519 36.16 733.199 36.16H733.779V33.8C732.219 33.8 731.119 34.48 730.479 35.58V33.98H728.199V45H730.479V39.2ZM746.375 39.48C746.375 36.02 743.895 33.8 740.755 33.8C737.615 33.8 735.135 36.02 735.135 39.48C735.135 42.94 737.515 45.18 740.655 45.18C743.815 45.18 746.375 42.94 746.375 39.48ZM737.455 39.48C737.455 36.98 738.995 35.78 740.715 35.78C742.415 35.78 744.035 36.98 744.035 39.48C744.035 41.98 742.355 43.2 740.655 43.2C738.935 43.2 737.455 41.98 737.455 39.48ZM748.629 45H750.909V30.2H748.629V45ZM758.542 35.72C760.242 35.72 761.582 36.8 761.622 38.5H755.522C755.762 36.76 757.002 35.72 758.542 35.72ZM763.702 41.72H761.242C760.822 42.58 760.042 43.26 758.642 43.26C756.962 43.26 755.662 42.16 755.502 40.34H763.922C763.982 39.96 764.002 39.6 764.002 39.22C764.002 35.98 761.782 33.8 758.642 33.8C755.382 33.8 753.142 36.02 753.142 39.48C753.142 42.94 755.482 45.18 758.642 45.18C761.342 45.18 763.082 43.64 763.702 41.72ZM774.466 41.92C774.346 37.94 768.126 39.18 768.126 36.96C768.126 36.22 768.766 35.72 769.986 35.72C771.226 35.72 771.966 36.38 772.046 37.34H774.326C774.206 35.14 772.566 33.8 770.066 33.8C767.466 33.8 765.826 35.22 765.826 36.98C765.826 41.02 772.226 39.78 772.226 41.94C772.226 42.7 771.526 43.26 770.206 43.26C768.946 43.26 768.086 42.52 768.006 41.62H765.646C765.746 43.62 767.606 45.18 770.246 45.18C772.846 45.18 774.466 43.78 774.466 41.92ZM779.29 43.68C779.29 42.86 778.65 42.22 777.85 42.22C777.03 42.22 776.39 42.86 776.39 43.68C776.39 44.5 777.03 45.14 777.85 45.14C778.65 45.14 779.29 44.5 779.29 43.68Z" fill="#212832"/>
<rect x="420.5" y="0.5" width="399" height="74" stroke="black" stroke-opacity="0.5"/>
<rect x="420" y="83" width="400" height="75" fill="white"/>
<path d="M444.6 111.44C446.08 111.44 447.24 110.3 447.24 108.84C447.24 107.36 446.08 106.22 444.6 106.22C443.16 106.22 442 107.36 442 108.84C442 110.3 443.16 111.44 444.6 111.44ZM468.969 111.52C468.969 112.86 468.029 113.64 466.489 113.64H463.409V109.3H466.409C467.929 109.3 468.969 110.14 468.969 111.52ZM468.609 105.46C468.609 106.74 467.709 107.44 466.229 107.44H463.409V103.46H466.229C467.709 103.46 468.609 104.2 468.609 105.46ZM471.249 111.76C471.249 110.1 470.049 108.62 468.569 108.36C469.909 107.88 470.929 106.86 470.929 105.18C470.929 103.22 469.369 101.6 466.429 101.6H461.129V115.5H466.689C469.529 115.5 471.249 113.88 471.249 111.76ZM478.367 106.22C480.067 106.22 481.407 107.3 481.447 109H475.347C475.587 107.26 476.827 106.22 478.367 106.22ZM483.527 112.22H481.067C480.647 113.08 479.867 113.76 478.467 113.76C476.787 113.76 475.487 112.66 475.327 110.84H483.747C483.807 110.46 483.827 110.1 483.827 109.72C483.827 106.48 481.607 104.3 478.467 104.3C475.207 104.3 472.967 106.52 472.967 109.98C472.967 113.44 475.307 115.68 478.467 115.68C481.167 115.68 482.907 114.14 483.527 112.22ZM485.31 109.98C485.31 113.44 487.55 115.68 490.71 115.68C493.41 115.68 495.17 114.18 495.79 112.02H493.33C492.91 113.16 492.07 113.76 490.71 113.76C488.87 113.76 487.65 112.4 487.65 109.98C487.65 107.58 488.87 106.22 490.71 106.22C492.07 106.22 492.95 106.9 493.33 107.96H495.79C495.17 105.64 493.41 104.3 490.71 104.3C487.55 104.3 485.31 106.54 485.31 109.98ZM508.563 109.98C508.563 106.52 506.083 104.3 502.943 104.3C499.803 104.3 497.323 106.52 497.323 109.98C497.323 113.44 499.703 115.68 502.843 115.68C506.003 115.68 508.563 113.44 508.563 109.98ZM499.643 109.98C499.643 107.48 501.183 106.28 502.903 106.28C504.603 106.28 506.223 107.48 506.223 109.98C506.223 112.48 504.543 113.7 502.843 113.7C501.123 113.7 499.643 112.48 499.643 109.98ZM526.436 115.5H528.696V109C528.696 105.92 526.736 104.3 524.156 104.3C522.556 104.3 520.996 105.14 520.316 106.48C519.556 105.04 518.096 104.3 516.356 104.3C515.036 104.3 513.836 104.84 513.096 105.74V104.48H510.816V115.5H513.096V109.34C513.096 107.32 514.196 106.28 515.876 106.28C517.536 106.28 518.636 107.32 518.636 109.34V115.5H520.896V109.34C520.896 107.32 521.996 106.28 523.676 106.28C525.336 106.28 526.436 107.32 526.436 109.34V115.5ZM536.238 106.22C537.938 106.22 539.278 107.3 539.318 109H533.218C533.458 107.26 534.698 106.22 536.238 106.22ZM541.398 112.22H538.938C538.518 113.08 537.738 113.76 536.338 113.76C534.658 113.76 533.358 112.66 533.198 110.84H541.618C541.678 110.46 541.698 110.1 541.698 109.72C541.698 106.48 539.478 104.3 536.338 104.3C533.078 104.3 530.838 106.52 530.838 109.98C530.838 113.44 533.178 115.68 536.338 115.68C539.038 115.68 540.778 114.14 541.398 112.22ZM548.377 109.94C548.377 113.34 550.677 115.68 553.537 115.68C555.377 115.68 556.697 114.8 557.397 113.86V115.5H559.697V104.48H557.397V106.08C556.717 105.18 555.437 104.3 553.577 104.3C550.677 104.3 548.377 106.54 548.377 109.94ZM557.397 109.98C557.397 112.36 555.777 113.7 554.057 113.7C552.357 113.7 550.717 112.32 550.717 109.94C550.717 107.56 552.357 106.28 554.057 106.28C555.777 106.28 557.397 107.62 557.397 109.98ZM575.727 111.52C575.727 112.86 574.787 113.64 573.247 113.64H570.167V109.3H573.167C574.687 109.3 575.727 110.14 575.727 111.52ZM575.367 105.46C575.367 106.74 574.467 107.44 572.987 107.44H570.167V103.46H572.987C574.467 103.46 575.367 104.2 575.367 105.46ZM578.007 111.76C578.007 110.1 576.807 108.62 575.327 108.36C576.667 107.88 577.687 106.86 577.687 105.18C577.687 103.22 576.127 101.6 573.187 101.6H567.887V115.5H573.447C576.287 115.5 578.007 113.88 578.007 111.76ZM579.724 109.94C579.724 113.34 582.024 115.68 584.884 115.68C586.724 115.68 588.044 114.8 588.744 113.86V115.5H591.044V104.48H588.744V106.08C588.064 105.18 586.784 104.3 584.924 104.3C582.024 104.3 579.724 106.54 579.724 109.94ZM588.744 109.98C588.744 112.36 587.124 113.7 585.404 113.7C583.704 113.7 582.064 112.32 582.064 109.94C582.064 107.56 583.704 106.28 585.404 106.28C587.124 106.28 588.744 107.62 588.744 109.98ZM601.859 115.5H604.119V109C604.119 105.92 602.179 104.3 599.599 104.3C598.279 104.3 597.059 104.84 596.319 105.74V104.48H594.039V115.5H596.319V109.34C596.319 107.32 597.419 106.28 599.099 106.28C600.759 106.28 601.859 107.32 601.859 109.34V115.5ZM607.027 115.5H609.307V110.76L613.387 115.5H616.467L611.387 110L616.467 104.48H613.307L609.307 109.3V100.7H607.027V115.5ZM618.102 115.5H620.382V104.48H618.102V115.5ZM619.262 103.02C620.062 103.02 620.702 102.38 620.702 101.56C620.702 100.74 620.062 100.1 619.262 100.1C618.442 100.1 617.802 100.74 617.802 101.56C617.802 102.38 618.442 103.02 619.262 103.02ZM631.195 115.5H633.455V109C633.455 105.92 631.515 104.3 628.935 104.3C627.615 104.3 626.395 104.84 625.655 105.74V104.48H623.375V115.5H625.655V109.34C625.655 107.32 626.755 106.28 628.435 106.28C630.095 106.28 631.195 107.32 631.195 109.34V115.5ZM635.603 109.94C635.603 113.34 637.903 115.68 640.803 115.68C642.603 115.68 643.923 114.78 644.623 113.84V115.68C644.623 117.88 643.303 118.96 641.543 118.96C639.963 118.96 638.743 118.18 638.403 117.04H636.143C636.423 119.48 638.603 120.94 641.543 120.94C644.983 120.94 646.923 118.68 646.923 115.68V104.48H644.623V106.08C643.943 105.14 642.603 104.3 640.803 104.3C637.903 104.3 635.603 106.54 635.603 109.94ZM644.623 109.98C644.623 112.36 643.003 113.7 641.283 113.7C639.583 113.7 637.943 112.32 637.943 109.94C637.943 107.56 639.583 106.28 641.283 106.28C643.003 106.28 644.623 107.62 644.623 109.98ZM663.953 104.7C664.093 102.8 662.793 101.28 660.373 101.28C657.993 101.28 656.513 102.66 656.513 104.48C656.513 105.46 656.793 106.2 657.573 107.14C655.373 108.04 654.313 109.62 654.313 111.5C654.313 114.1 656.313 115.76 659.313 115.76C661.253 115.76 662.793 115.12 664.133 113.78L665.853 115.5H668.833L665.453 112.14C665.613 111.88 665.793 111.6 665.953 111.32L667.753 108.24H665.293L663.873 110.58L660.193 106.92C659.213 105.86 658.793 105.24 658.793 104.48C658.793 103.74 659.373 103.14 660.273 103.14C661.133 103.14 661.713 103.68 661.673 104.7H663.953ZM659.313 113.82C657.673 113.82 656.593 112.76 656.593 111.42C656.593 110.18 657.333 109.22 658.953 108.58L662.633 112.28C661.673 113.3 660.613 113.82 659.313 113.82ZM675.523 115.5H677.803V109.42H682.403V107.56H677.803V103.46H683.703V101.6H675.523V115.5ZM685.816 115.5H688.096V104.48H685.816V115.5ZM686.976 103.02C687.776 103.02 688.416 102.38 688.416 101.56C688.416 100.74 687.776 100.1 686.976 100.1C686.156 100.1 685.516 100.74 685.516 101.56C685.516 102.38 686.156 103.02 686.976 103.02ZM698.91 115.5H701.17V109C701.17 105.92 699.23 104.3 696.65 104.3C695.33 104.3 694.11 104.84 693.37 105.74V104.48H691.09V115.5H693.37V109.34C693.37 107.32 694.47 106.28 696.15 106.28C697.81 106.28 698.91 107.32 698.91 109.34V115.5ZM703.318 109.94C703.318 113.34 705.618 115.68 708.478 115.68C710.318 115.68 711.638 114.8 712.338 113.86V115.5H714.638V104.48H712.338V106.08C711.658 105.18 710.378 104.3 708.518 104.3C705.618 104.3 703.318 106.54 703.318 109.94ZM712.338 109.98C712.338 112.36 710.718 113.7 708.998 113.7C707.298 113.7 705.658 112.32 705.658 109.94C705.658 107.56 707.298 106.28 708.998 106.28C710.718 106.28 712.338 107.62 712.338 109.98ZM725.453 115.5H727.713V109C727.713 105.92 725.773 104.3 723.193 104.3C721.873 104.3 720.653 104.84 719.913 105.74V104.48H717.633V115.5H719.913V109.34C719.913 107.32 721.013 106.28 722.693 106.28C724.353 106.28 725.453 107.32 725.453 109.34V115.5ZM729.861 109.98C729.861 113.44 732.101 115.68 735.261 115.68C737.961 115.68 739.721 114.18 740.341 112.02H737.881C737.461 113.16 736.621 113.76 735.261 113.76C733.421 113.76 732.201 112.4 732.201 109.98C732.201 107.58 733.421 106.22 735.261 106.22C736.621 106.22 737.501 106.9 737.881 107.96H740.341C739.721 105.64 737.961 104.3 735.261 104.3C732.101 104.3 729.861 106.54 729.861 109.98ZM747.253 106.22C748.953 106.22 750.293 107.3 750.333 109H744.233C744.473 107.26 745.713 106.22 747.253 106.22ZM752.413 112.22H749.953C749.533 113.08 748.753 113.76 747.353 113.76C745.673 113.76 744.373 112.66 744.213 110.84H752.633C752.693 110.46 752.713 110.1 752.713 109.72C752.713 106.48 750.493 104.3 747.353 104.3C744.093 104.3 741.853 106.52 741.853 109.98C741.853 113.44 744.193 115.68 747.353 115.68C750.053 115.68 751.793 114.14 752.413 112.22ZM464.561 133V128.46H467.081C468.861 128.46 469.661 129.3 469.661 130.74C469.661 132.14 468.861 133 467.081 133H464.561ZM472.001 130.74C472.001 128.48 470.381 126.6 467.081 126.6H462.281V140.5H464.561V134.86H467.081C470.701 134.86 472.001 132.72 472.001 130.74ZM476.456 134.7C476.456 132.36 477.496 131.66 479.176 131.66H479.756V129.3C478.196 129.3 477.096 129.98 476.456 131.08V129.48H474.176V140.5H476.456V134.7ZM492.352 134.98C492.352 131.52 489.872 129.3 486.732 129.3C483.592 129.3 481.112 131.52 481.112 134.98C481.112 138.44 483.492 140.68 486.632 140.68C489.792 140.68 492.352 138.44 492.352 134.98ZM483.432 134.98C483.432 132.48 484.972 131.28 486.692 131.28C488.392 131.28 490.012 132.48 490.012 134.98C490.012 137.48 488.332 138.7 486.632 138.7C484.912 138.7 483.432 137.48 483.432 134.98ZM494.885 140.5H497.185V131.34H499.225V129.48H497.185V128.7C497.185 127.44 497.665 126.96 499.065 126.96V125.06C496.185 125.06 494.885 126.16 494.885 128.7V129.48H493.585V131.34H494.885V140.5ZM505.886 131.22C507.586 131.22 508.926 132.3 508.966 134H502.866C503.106 132.26 504.346 131.22 505.886 131.22ZM511.046 137.22H508.586C508.166 138.08 507.386 138.76 505.986 138.76C504.306 138.76 503.006 137.66 502.846 135.84H511.266C511.326 135.46 511.346 135.1 511.346 134.72C511.346 131.48 509.126 129.3 505.986 129.3C502.726 129.3 500.486 131.52 500.486 134.98C500.486 138.44 502.826 140.68 505.986 140.68C508.686 140.68 510.426 139.14 511.046 137.22ZM521.81 137.42C521.69 133.44 515.47 134.68 515.47 132.46C515.47 131.72 516.11 131.22 517.33 131.22C518.57 131.22 519.31 131.88 519.39 132.84H521.67C521.55 130.64 519.91 129.3 517.41 129.3C514.81 129.3 513.17 130.72 513.17 132.48C513.17 136.52 519.57 135.28 519.57 137.44C519.57 138.2 518.87 138.76 517.55 138.76C516.29 138.76 515.43 138.02 515.35 137.12H512.99C513.09 139.12 514.95 140.68 517.59 140.68C520.19 140.68 521.81 139.28 521.81 137.42ZM532.493 137.42C532.373 133.44 526.153 134.68 526.153 132.46C526.153 131.72 526.793 131.22 528.013 131.22C529.253 131.22 529.993 131.88 530.073 132.84H532.353C532.233 130.64 530.593 129.3 528.093 129.3C525.493 129.3 523.853 130.72 523.853 132.48C523.853 136.52 530.253 135.28 530.253 137.44C530.253 138.2 529.553 138.76 528.233 138.76C526.973 138.76 526.113 138.02 526.033 137.12H523.673C523.773 139.12 525.633 140.68 528.273 140.68C530.873 140.68 532.493 139.28 532.493 137.42ZM534.957 140.5H537.237V129.48H534.957V140.5ZM536.117 128.02C536.917 128.02 537.557 127.38 537.557 126.56C537.557 125.74 536.917 125.1 536.117 125.1C535.297 125.1 534.657 125.74 534.657 126.56C534.657 127.38 535.297 128.02 536.117 128.02ZM550.73 134.98C550.73 131.52 548.25 129.3 545.11 129.3C541.97 129.3 539.49 131.52 539.49 134.98C539.49 138.44 541.87 140.68 545.01 140.68C548.17 140.68 550.73 138.44 550.73 134.98ZM541.81 134.98C541.81 132.48 543.35 131.28 545.07 131.28C546.77 131.28 548.39 132.48 548.39 134.98C548.39 137.48 546.71 138.7 545.01 138.7C543.29 138.7 541.81 137.48 541.81 134.98ZM560.804 140.5H563.064V134C563.064 130.92 561.124 129.3 558.544 129.3C557.224 129.3 556.004 129.84 555.264 130.74V129.48H552.984V140.5H555.264V134.34C555.264 132.32 556.364 131.28 558.044 131.28C559.704 131.28 560.804 132.32 560.804 134.34V140.5ZM565.213 134.94C565.213 138.34 567.513 140.68 570.373 140.68C572.213 140.68 573.533 139.8 574.233 138.86V140.5H576.533V129.48H574.233V131.08C573.553 130.18 572.273 129.3 570.413 129.3C567.513 129.3 565.213 131.54 565.213 134.94ZM574.233 134.98C574.233 137.36 572.613 138.7 570.893 138.7C569.193 138.7 567.553 137.32 567.553 134.94C567.553 132.56 569.193 131.28 570.893 131.28C572.613 131.28 574.233 132.62 574.233 134.98ZM579.527 140.5H581.807V125.7H579.527V140.5ZM587.161 139.18C587.161 138.36 586.521 137.72 585.721 137.72C584.901 137.72 584.261 138.36 584.261 139.18C584.261 140 584.901 140.64 585.721 140.64C586.521 140.64 587.161 140 587.161 139.18Z" fill="#212832"/>
<rect x="420.5" y="83.5" width="399" height="74" stroke="black" stroke-opacity="0.5"/>
</svg>
