<svg width="39" height="43" viewBox="0 0 39 43" fill="none" xmlns="http://www.w3.org/2000/svg">
<path fill-rule="evenodd" clip-rule="evenodd" d="M17.7487 34.4028L14.2206 30.7589L16.0818 28.7505L21.9991 34.8618V36.8702L16.0818 42.9815L14.1094 40.9444L17.6376 37.3006H12.4982C11.5851 37.3044 10.6803 37.1215 9.83606 36.7623C8.99178 36.4032 8.2247 35.875 7.57905 35.2082C6.93341 34.5414 6.42198 33.7491 6.07425 32.8772C5.72653 32.0052 5.5494 31.0708 5.55307 30.1277V14.2039C4.22206 13.9113 2.99869 13.2348 2.02496 12.2529C1.05784 11.2437 0.399841 9.96272 0.133064 8.56978C-0.133713 7.17684 0.00253811 5.7336 0.52482 4.42012C1.05194 3.11108 1.94285 1.99272 3.08501 1.20631C4.22718 0.419888 5.56938 0.000678558 6.94209 0.00162393C7.89485 -0.01953 8.84128 0.166191 9.72013 0.546763C10.562 0.904465 11.3269 1.43095 11.9707 2.09578C12.6144 2.76061 13.1241 3.55061 13.4705 4.42012C13.84 5.32964 14.0178 6.30802 13.9983 7.28927C13.9986 8.94284 13.4458 10.5457 12.4333 11.8267C11.4208 13.1077 10.0109 13.988 8.44224 14.3187V30.099C8.44224 31.2405 8.88126 32.3351 9.66274 33.1422C10.4442 33.9493 11.5041 34.4028 12.6093 34.4028H17.7487V34.4028ZM4.74744 10.7323C5.54896 11.2838 6.5107 11.5315 7.4691 11.4333C8.42751 11.3352 9.3234 10.8972 10.0044 10.1938C10.6854 9.49046 11.1095 8.56518 11.2046 7.57534C11.2996 6.5855 11.0598 5.59222 10.5258 4.76442C10.0598 4.05142 9.4036 3.4933 8.6367 3.15769C7.87974 2.83924 7.04843 2.75938 6.24758 2.92816C5.43643 3.09017 4.69077 3.49917 4.10657 4.10253C3.52237 4.70589 3.12636 5.476 2.9695 6.31376C2.80607 7.14087 2.8834 7.99944 3.19174 8.78123C3.51677 9.57599 4.05571 10.2531 4.74744 10.7323V10.7323ZM33.4446 28.8079C34.7781 29.0891 36.006 29.7691 36.9727 30.7589C38.1054 31.9359 38.8097 33.4808 38.9667 35.1323C39.1236 36.7838 38.7234 38.4407 37.8339 39.8226C37.2625 40.7024 36.5096 41.4406 35.6291 41.9841C34.7487 42.5276 33.7626 42.8629 32.7417 42.966C31.7208 43.069 30.6905 42.9373 29.7248 42.5802C28.7592 42.223 27.882 41.6494 27.1565 40.9006C26.431 40.1517 25.8751 39.2461 25.5288 38.249C25.1825 37.2518 25.0543 36.1878 25.1535 35.1334C25.2527 34.079 25.5768 33.0604 26.1025 32.1507C26.6283 31.2411 27.3426 30.463 28.1941 29.8724C28.9414 29.3502 29.7804 28.9887 30.6666 28.8108V12.8841C30.6666 11.7427 30.2275 10.648 29.4461 9.84093C28.6646 9.03382 27.6047 8.58039 26.4995 8.58039H21.3601L24.8882 12.2242L22.9158 14.2613L16.9986 8.15002V6.14161L22.9158 0.0303154L24.8882 2.06741L21.3601 5.71124H26.4995C27.4126 5.70744 28.3173 5.89039 29.1616 6.24951C30.0059 6.60864 30.773 7.13685 31.4186 7.80367C32.0643 8.47049 32.5757 9.26273 32.9234 10.1347C33.2711 11.0067 33.4483 11.9411 33.4446 12.8841V28.8079V28.8079ZM32.4695 40.121C33.1841 40.0469 33.868 39.7834 34.4549 39.3559C35.0418 38.9285 35.5118 38.3516 35.8193 37.6813C36.1268 37.011 36.2613 36.27 36.2098 35.5301C36.1583 34.7903 35.9225 34.0768 35.5254 33.4588C35.0594 32.7458 34.4032 32.1877 33.6363 31.8521C32.8802 31.5342 32.0499 31.4544 31.2499 31.6226C30.4388 31.7846 29.6931 32.1936 29.1089 32.7969C28.5247 33.4003 28.1287 34.1704 27.9719 35.0082C27.8084 35.8353 27.8858 36.6938 28.1941 37.4756C28.5356 38.3335 29.1363 39.0545 29.9067 39.5312C30.6771 40.0079 31.576 40.2148 32.4695 40.121V40.121Z" fill="#003C92"/>
</svg>
