<svg width="42" height="42" viewBox="0 0 42 42" fill="none" xmlns="http://www.w3.org/2000/svg">
<path d="M17.6177 35.2335C21.5266 35.2327 25.3228 33.9242 28.4019 31.5164L38.0828 41.1968L41.1968 38.083L31.5159 28.4026C33.9251 25.3233 35.2344 21.5264 35.2354 17.6168C35.2354 7.90332 27.3317 0 17.6177 0C7.90374 0 0 7.90332 0 17.6168C0 27.3302 7.90374 35.2335 17.6177 35.2335ZM17.6177 4.40419C24.9048 4.40419 30.831 10.33 30.831 17.6168C30.831 24.9035 24.9048 30.8293 17.6177 30.8293C10.3306 30.8293 4.40442 24.9035 4.40442 17.6168C4.40442 10.33 10.3306 4.40419 17.6177 4.40419Z" fill="#003C92"/>
<path d="M20.7429 14.598C21.5664 15.5463 22.0205 16.7991 22.0205 18.1267H26.3658C26.3678 16.8151 26.1433 15.5161 25.7055 14.3048C25.2677 13.0934 24.6252 11.9938 23.8151 11.0694C20.5256 7.29617 14.8223 7.29617 11.535 11.0694L14.6029 14.603C16.2541 12.7114 19.1003 12.7164 20.7429 14.598Z" fill="#003C92"/>
</svg>
