<svg width="1240" height="107" viewBox="0 0 1240 107" fill="none" xmlns="http://www.w3.org/2000/svg">
<rect width="400" height="50" fill="white"/>
<path d="M24.6 25.94C26.08 25.94 27.24 24.8 27.24 23.34C27.24 21.86 26.08 20.72 24.6 20.72C23.16 20.72 22 21.86 22 23.34C22 24.8 23.16 25.94 24.6 25.94ZM40.3689 23.02C40.3689 27.2 43.5489 30.12 47.4689 30.12C50.3689 30.12 52.8689 28.68 53.9289 25.96H51.1889C50.4489 27.44 49.1289 28.14 47.4689 28.14C44.7089 28.14 42.7089 26.16 42.7089 23.02C42.7089 19.88 44.7089 17.92 47.4689 17.92C49.1289 17.92 50.4489 18.62 51.1889 20.1H53.9289C52.8689 17.38 50.3689 15.92 47.4689 15.92C43.5489 15.92 40.3689 18.86 40.3689 23.02ZM55.8377 24.44C55.8377 27.84 58.1377 30.18 60.9977 30.18C62.8377 30.18 64.1577 29.3 64.8577 28.36V30H67.1577V18.98H64.8577V20.58C64.1777 19.68 62.8977 18.8 61.0377 18.8C58.1377 18.8 55.8377 21.04 55.8377 24.44ZM64.8577 24.48C64.8577 26.86 63.2377 28.2 61.5177 28.2C59.8177 28.2 58.1777 26.82 58.1777 24.44C58.1777 22.06 59.8177 20.78 61.5177 20.78C63.2377 20.78 64.8577 22.12 64.8577 24.48ZM72.4323 24.2C72.4323 21.86 73.4723 21.16 75.1523 21.16H75.7323V18.8C74.1723 18.8 73.0723 19.48 72.4323 20.58V18.98H70.1523V30H72.4323V24.2ZM82.4681 20.72C84.1681 20.72 85.5081 21.8 85.5481 23.5H79.4481C79.6881 21.76 80.9281 20.72 82.4681 20.72ZM87.6281 26.72H85.1681C84.7481 27.58 83.9681 28.26 82.5681 28.26C80.8881 28.26 79.5881 27.16 79.4281 25.34H87.8481C87.9081 24.96 87.9281 24.6 87.9281 24.22C87.9281 20.98 85.7081 18.8 82.5681 18.8C79.3081 18.8 77.0681 21.02 77.0681 24.48C77.0681 27.94 79.4081 30.18 82.5681 30.18C85.2681 30.18 87.0081 28.64 87.6281 26.72ZM94.8119 20.72C96.5119 20.72 97.8519 21.8 97.8919 23.5H91.7919C92.0319 21.76 93.2719 20.72 94.8119 20.72ZM99.9719 26.72H97.5119C97.0919 27.58 96.3119 28.26 94.9119 28.26C93.2319 28.26 91.9319 27.16 91.7719 25.34H100.192C100.252 24.96 100.272 24.6 100.272 24.22C100.272 20.98 98.0519 18.8 94.9119 18.8C91.6519 18.8 89.4119 21.02 89.4119 24.48C89.4119 27.94 91.7519 30.18 94.9119 30.18C97.6119 30.18 99.3519 28.64 99.9719 26.72ZM104.796 24.2C104.796 21.86 105.836 21.16 107.516 21.16H108.096V18.8C106.536 18.8 105.436 19.48 104.796 20.58V18.98H102.516V30H104.796V24.2ZM128.827 23.02C128.827 18.86 125.687 15.92 121.727 15.92C117.807 15.92 114.627 18.86 114.627 23.02C114.627 27.2 117.807 30.14 121.727 30.14C125.687 30.14 128.827 27.2 128.827 23.02ZM116.967 23.02C116.967 19.88 118.967 17.92 121.727 17.92C124.487 17.92 126.487 19.88 126.487 23.02C126.487 26.16 124.487 28.16 121.727 28.16C118.967 28.16 116.967 26.16 116.967 23.02ZM133.35 20.6V18.98H131.07V35.24H133.35V28.4C134.07 29.26 135.37 30.18 137.19 30.18C140.09 30.18 142.37 27.84 142.37 24.44C142.37 21.04 140.09 18.8 137.19 18.8C135.39 18.8 134.05 19.68 133.35 20.6ZM140.05 24.44C140.05 26.82 138.41 28.2 136.69 28.2C134.99 28.2 133.35 26.86 133.35 24.48C133.35 22.12 134.99 20.78 136.69 20.78C138.41 20.78 140.05 22.06 140.05 24.44ZM146.905 20.6V18.98H144.625V35.24H146.905V28.4C147.625 29.26 148.925 30.18 150.745 30.18C153.645 30.18 155.925 27.84 155.925 24.44C155.925 21.04 153.645 18.8 150.745 18.8C148.945 18.8 147.605 19.68 146.905 20.6ZM153.605 24.44C153.605 26.82 151.965 28.2 150.245 28.2C148.545 28.2 146.905 26.86 146.905 24.48C146.905 22.12 148.545 20.78 150.245 20.78C151.965 20.78 153.605 22.06 153.605 24.44ZM168.68 24.48C168.68 21.02 166.2 18.8 163.06 18.8C159.92 18.8 157.44 21.02 157.44 24.48C157.44 27.94 159.82 30.18 162.96 30.18C166.12 30.18 168.68 27.94 168.68 24.48ZM159.76 24.48C159.76 21.98 161.3 20.78 163.02 20.78C164.72 20.78 166.34 21.98 166.34 24.48C166.34 26.98 164.66 28.2 162.96 28.2C161.24 28.2 159.76 26.98 159.76 24.48ZM173.214 24.2C173.214 21.86 174.254 21.16 175.934 21.16H176.514V18.8C174.954 18.8 173.854 19.48 173.214 20.58V18.98H170.934V30H173.214V24.2ZM178.969 26.94C178.969 29.18 180.189 30 182.149 30H183.949V28.1H182.549C181.589 28.1 181.269 27.76 181.269 26.94V20.84H183.949V18.98H181.269V16.24H178.969V18.98H177.669V20.84H178.969V26.94ZM196.031 18.98H193.751V25.12C193.751 27.14 192.651 28.18 190.971 28.18C189.311 28.18 188.211 27.14 188.211 25.12V18.98H185.951V25.46C185.951 28.54 187.911 30.16 190.491 30.16C191.791 30.16 193.031 29.62 193.751 28.68V30H196.031V18.98ZM206.859 30H209.119V23.5C209.119 20.42 207.179 18.8 204.599 18.8C203.279 18.8 202.059 19.34 201.319 20.24V18.98H199.039V30H201.319V23.84C201.319 21.82 202.419 20.78 204.099 20.78C205.759 20.78 206.859 21.82 206.859 23.84V30ZM212.027 30H214.307V18.98H212.027V30ZM213.187 17.52C213.987 17.52 214.627 16.88 214.627 16.06C214.627 15.24 213.987 14.6 213.187 14.6C212.367 14.6 211.727 15.24 211.727 16.06C211.727 16.88 212.367 17.52 213.187 17.52ZM217.661 26.94C217.661 29.18 218.881 30 220.841 30H222.641V28.1H221.241C220.281 28.1 219.961 27.76 219.961 26.94V20.84H222.641V18.98H219.961V16.24H217.661V18.98H216.361V20.84H217.661V26.94ZM224.742 30H227.022V18.98H224.742V30ZM225.902 17.52C226.702 17.52 227.342 16.88 227.342 16.06C227.342 15.24 226.702 14.6 225.902 14.6C225.082 14.6 224.442 15.24 224.442 16.06C224.442 16.88 225.082 17.52 225.902 17.52ZM234.656 20.72C236.356 20.72 237.696 21.8 237.736 23.5H231.636C231.876 21.76 233.116 20.72 234.656 20.72ZM239.816 26.72H237.356C236.936 27.58 236.156 28.26 234.756 28.26C233.076 28.26 231.776 27.16 231.616 25.34H240.036C240.096 24.96 240.116 24.6 240.116 24.22C240.116 20.98 237.896 18.8 234.756 18.8C231.496 18.8 229.256 21.02 229.256 24.48C229.256 27.94 231.596 30.18 234.756 30.18C237.456 30.18 239.196 28.64 239.816 26.72ZM250.579 26.92C250.459 22.94 244.239 24.18 244.239 21.96C244.239 21.22 244.879 20.72 246.099 20.72C247.339 20.72 248.079 21.38 248.159 22.34H250.439C250.319 20.14 248.679 18.8 246.179 18.8C243.579 18.8 241.939 20.22 241.939 21.98C241.939 26.02 248.339 24.78 248.339 26.94C248.339 27.7 247.639 28.26 246.319 28.26C245.059 28.26 244.199 27.52 244.119 26.62H241.759C241.859 28.62 243.719 30.18 246.359 30.18C248.959 30.18 250.579 28.78 250.579 26.92Z" fill="#212832"/>
<rect x="0.5" y="0.5" width="399" height="49" stroke="black" stroke-opacity="0.5"/>
<rect y="57" width="400" height="50" fill="white"/>
<path d="M24.6 82.94C26.08 82.94 27.24 81.8 27.24 80.34C27.24 78.86 26.08 77.72 24.6 77.72C23.16 77.72 22 78.86 22 80.34C22 81.8 23.16 82.94 24.6 82.94ZM40.3689 80.02C40.3689 84.2 43.5489 87.12 47.4689 87.12C50.3689 87.12 52.8689 85.68 53.9289 82.96H51.1889C50.4489 84.44 49.1289 85.14 47.4689 85.14C44.7089 85.14 42.7089 83.16 42.7089 80.02C42.7089 76.88 44.7089 74.92 47.4689 74.92C49.1289 74.92 50.4489 75.62 51.1889 77.1H53.9289C52.8689 74.38 50.3689 72.92 47.4689 72.92C43.5489 72.92 40.3689 75.86 40.3689 80.02ZM56.5977 87H58.8777V80.84C58.8777 78.82 59.9777 77.78 61.6577 77.78C63.3177 77.78 64.4177 78.82 64.4177 80.84V87H66.6777V80.5C66.6777 77.42 64.7577 75.8 62.2977 75.8C60.8777 75.8 59.6377 76.34 58.8777 77.26V72.2H56.5977V87ZM69.5859 87H71.8659V75.98H69.5859V87ZM70.7459 74.52C71.5459 74.52 72.1859 73.88 72.1859 73.06C72.1859 72.24 71.5459 71.6 70.7459 71.6C69.9259 71.6 69.2859 72.24 69.2859 73.06C69.2859 73.88 69.9259 74.52 70.7459 74.52ZM79.4994 77.72C81.1994 77.72 82.5394 78.8 82.5794 80.5H76.4794C76.7194 78.76 77.9594 77.72 79.4994 77.72ZM84.6594 83.72H82.1994C81.7794 84.58 80.9994 85.26 79.5994 85.26C77.9194 85.26 76.6194 84.16 76.4594 82.34H84.8794C84.9394 81.96 84.9594 81.6 84.9594 81.22C84.9594 77.98 82.7394 75.8 79.5994 75.8C76.3394 75.8 74.0994 78.02 74.0994 81.48C74.0994 84.94 76.4394 87.18 79.5994 87.18C82.2994 87.18 84.0394 85.64 84.6594 83.72ZM87.4831 87H89.7831V77.84H91.8231V75.98H89.7831V75.2C89.7831 73.94 90.2631 73.46 91.6631 73.46V71.56C88.7831 71.56 87.4831 72.66 87.4831 75.2V75.98H86.1831V77.84H87.4831V87ZM99.0391 87H101.319V73.1H99.0391V87ZM112.133 87H114.393V80.5C114.393 77.42 112.453 75.8 109.873 75.8C108.553 75.8 107.333 76.34 106.593 77.24V75.98H104.313V87H106.593V80.84C106.593 78.82 107.693 77.78 109.373 77.78C111.033 77.78 112.133 78.82 112.133 80.84V87ZM117.581 87H119.881V77.84H121.921V75.98H119.881V75.2C119.881 73.94 120.361 73.46 121.761 73.46V71.56C118.881 71.56 117.581 72.66 117.581 75.2V75.98H116.281V77.84H117.581V87ZM134.441 81.48C134.441 78.02 131.961 75.8 128.821 75.8C125.681 75.8 123.201 78.02 123.201 81.48C123.201 84.94 125.581 87.18 128.721 87.18C131.881 87.18 134.441 84.94 134.441 81.48ZM125.521 81.48C125.521 78.98 127.061 77.78 128.781 77.78C130.481 77.78 132.101 78.98 132.101 81.48C132.101 83.98 130.421 85.2 128.721 85.2C127.001 85.2 125.521 83.98 125.521 81.48ZM138.975 81.2C138.975 78.86 140.015 78.16 141.695 78.16H142.275V75.8C140.715 75.8 139.615 76.48 138.975 77.58V75.98H136.695V87H138.975V81.2ZM159.991 87H162.251V80.5C162.251 77.42 160.291 75.8 157.711 75.8C156.111 75.8 154.551 76.64 153.871 77.98C153.111 76.54 151.651 75.8 149.911 75.8C148.591 75.8 147.391 76.34 146.651 77.24V75.98H144.371V87H146.651V80.84C146.651 78.82 147.751 77.78 149.431 77.78C151.091 77.78 152.191 78.82 152.191 80.84V87H154.451V80.84C154.451 78.82 155.551 77.78 157.231 77.78C158.891 77.78 159.991 78.82 159.991 80.84V87ZM164.392 81.44C164.392 84.84 166.692 87.18 169.552 87.18C171.392 87.18 172.712 86.3 173.412 85.36V87H175.712V75.98H173.412V77.58C172.732 76.68 171.452 75.8 169.592 75.8C166.692 75.8 164.392 78.04 164.392 81.44ZM173.412 81.48C173.412 83.86 171.792 85.2 170.072 85.2C168.372 85.2 166.732 83.82 166.732 81.44C166.732 79.06 168.372 77.78 170.072 77.78C171.792 77.78 173.412 79.12 173.412 81.48ZM179.067 83.94C179.067 86.18 180.287 87 182.247 87H184.047V85.1H182.647C181.687 85.1 181.367 84.76 181.367 83.94V77.84H184.047V75.98H181.367V73.24H179.067V75.98H177.767V77.84H179.067V83.94ZM186.148 87H188.428V75.98H186.148V87ZM187.308 74.52C188.108 74.52 188.748 73.88 188.748 73.06C188.748 72.24 188.108 71.6 187.308 71.6C186.488 71.6 185.848 72.24 185.848 73.06C185.848 73.88 186.488 74.52 187.308 74.52ZM201.922 81.48C201.922 78.02 199.442 75.8 196.302 75.8C193.162 75.8 190.682 78.02 190.682 81.48C190.682 84.94 193.062 87.18 196.202 87.18C199.362 87.18 201.922 84.94 201.922 81.48ZM193.002 81.48C193.002 78.98 194.542 77.78 196.262 77.78C197.962 77.78 199.582 78.98 199.582 81.48C199.582 83.98 197.902 85.2 196.202 85.2C194.482 85.2 193.002 83.98 193.002 81.48ZM211.996 87H214.256V80.5C214.256 77.42 212.316 75.8 209.736 75.8C208.416 75.8 207.196 76.34 206.456 77.24V75.98H204.176V87H206.456V80.84C206.456 78.82 207.556 77.78 209.236 77.78C210.896 77.78 211.996 78.82 211.996 80.84V87ZM231.739 83.06C231.739 77.98 224.379 79.94 224.379 76.8C224.379 75.46 225.399 74.82 226.719 74.86C228.159 74.9 228.979 75.76 229.059 76.7H231.579C231.379 74.32 229.499 72.92 226.839 72.92C223.999 72.92 222.059 74.44 222.059 76.88C222.059 82 229.439 79.82 229.439 83.18C229.439 84.36 228.539 85.22 226.939 85.22C225.359 85.22 224.559 84.3 224.459 83.16H222.019C222.019 85.62 224.159 87.14 226.939 87.14C230.039 87.14 231.739 85.14 231.739 83.06ZM239.07 77.72C240.77 77.72 242.11 78.8 242.15 80.5H236.05C236.29 78.76 237.53 77.72 239.07 77.72ZM244.23 83.72H241.77C241.35 84.58 240.57 85.26 239.17 85.26C237.49 85.26 236.19 84.16 236.03 82.34H244.45C244.51 81.96 244.53 81.6 244.53 81.22C244.53 77.98 242.31 75.8 239.17 75.8C235.91 75.8 233.67 78.02 233.67 81.48C233.67 84.94 236.01 87.18 239.17 87.18C241.87 87.18 243.61 85.64 244.23 83.72ZM246.013 81.48C246.013 84.94 248.253 87.18 251.413 87.18C254.113 87.18 255.873 85.68 256.493 83.52H254.033C253.613 84.66 252.773 85.26 251.413 85.26C249.573 85.26 248.353 83.9 248.353 81.48C248.353 79.08 249.573 77.72 251.413 77.72C252.773 77.72 253.653 78.4 254.033 79.46H256.493C255.873 77.14 254.113 75.8 251.413 75.8C248.253 75.8 246.013 78.04 246.013 81.48ZM268.746 75.98H266.466V82.12C266.466 84.14 265.366 85.18 263.686 85.18C262.026 85.18 260.926 84.14 260.926 82.12V75.98H258.666V82.46C258.666 85.54 260.626 87.16 263.206 87.16C264.506 87.16 265.746 86.62 266.466 85.68V87H268.746V75.98ZM274.034 81.2C274.034 78.86 275.074 78.16 276.754 78.16H277.334V75.8C275.774 75.8 274.674 76.48 274.034 77.58V75.98H271.754V87H274.034V81.2ZM279.43 87H281.71V75.98H279.43V87ZM280.59 74.52C281.39 74.52 282.03 73.88 282.03 73.06C282.03 72.24 281.39 71.6 280.59 71.6C279.77 71.6 279.13 72.24 279.13 73.06C279.13 73.88 279.77 74.52 280.59 74.52ZM285.063 83.94C285.063 86.18 286.283 87 288.243 87H290.043V85.1H288.643C287.683 85.1 287.363 84.76 287.363 83.94V77.84H290.043V75.98H287.363V73.24H285.063V75.98H283.763V77.84H285.063V83.94ZM296.485 84.38L293.385 75.98H290.845L295.185 86.82L292.945 92.18H295.305L302.065 75.98H299.705L296.485 84.38ZM322.42 80.02C322.42 75.86 319.28 72.92 315.32 72.92C311.4 72.92 308.22 75.86 308.22 80.02C308.22 84.2 311.4 87.14 315.32 87.14C319.28 87.14 322.42 84.2 322.42 80.02ZM310.56 80.02C310.56 76.88 312.56 74.92 315.32 74.92C318.08 74.92 320.08 76.88 320.08 80.02C320.08 83.16 318.08 85.16 315.32 85.16C312.56 85.16 310.56 83.16 310.56 80.02ZM324.944 87H327.244V77.84H329.284V75.98H327.244V75.2C327.244 73.94 327.724 73.46 329.124 73.46V71.56C326.244 71.56 324.944 72.66 324.944 75.2V75.98H323.644V77.84H324.944V87ZM331.585 87H333.885V77.84H335.925V75.98H333.885V75.2C333.885 73.94 334.365 73.46 335.765 73.46V71.56C332.885 71.56 331.585 72.66 331.585 75.2V75.98H330.285V77.84H331.585V87ZM337.945 87H340.225V75.98H337.945V87ZM339.105 74.52C339.905 74.52 340.545 73.88 340.545 73.06C340.545 72.24 339.905 71.6 339.105 71.6C338.285 71.6 337.645 72.24 337.645 73.06C337.645 73.88 338.285 74.52 339.105 74.52ZM342.459 81.48C342.459 84.94 344.699 87.18 347.859 87.18C350.559 87.18 352.319 85.68 352.939 83.52H350.479C350.059 84.66 349.219 85.26 347.859 85.26C346.019 85.26 344.799 83.9 344.799 81.48C344.799 79.08 346.019 77.72 347.859 77.72C349.219 77.72 350.099 78.4 350.479 79.46H352.939C352.319 77.14 350.559 75.8 347.859 75.8C344.699 75.8 342.459 78.04 342.459 81.48ZM359.851 77.72C361.551 77.72 362.891 78.8 362.931 80.5H356.831C357.071 78.76 358.311 77.72 359.851 77.72ZM365.011 83.72H362.551C362.131 84.58 361.351 85.26 359.951 85.26C358.271 85.26 356.971 84.16 356.811 82.34H365.231C365.291 81.96 365.311 81.6 365.311 81.22C365.311 77.98 363.091 75.8 359.951 75.8C356.691 75.8 354.451 78.02 354.451 81.48C354.451 84.94 356.791 87.18 359.951 87.18C362.651 87.18 364.391 85.64 365.011 83.72ZM369.835 81.2C369.835 78.86 370.875 78.16 372.555 78.16H373.135V75.8C371.575 75.8 370.475 76.48 369.835 77.58V75.98H367.555V87H369.835V81.2Z" fill="#212832"/>
<rect x="0.5" y="57.5" width="399" height="49" stroke="black" stroke-opacity="0.5"/>
<rect x="840" width="400" height="50" fill="white"/>
<path d="M864.6 25.94C866.08 25.94 867.24 24.8 867.24 23.34C867.24 21.86 866.08 20.72 864.6 20.72C863.16 20.72 862 21.86 862 23.34C862 24.8 863.16 25.94 864.6 25.94ZM883.409 22.5V17.96H885.929C887.709 17.96 888.509 18.8 888.509 20.24C888.509 21.64 887.709 22.5 885.929 22.5H883.409ZM890.849 20.24C890.849 17.98 889.229 16.1 885.929 16.1H881.129V30H883.409V24.36H885.929C889.549 24.36 890.849 22.22 890.849 20.24ZM897.663 20.72C899.363 20.72 900.703 21.8 900.743 23.5H894.643C894.883 21.76 896.123 20.72 897.663 20.72ZM902.823 26.72H900.363C899.943 27.58 899.163 28.26 897.763 28.26C896.083 28.26 894.783 27.16 894.623 25.34H903.043C903.103 24.96 903.123 24.6 903.123 24.22C903.123 20.98 900.903 18.8 897.763 18.8C894.503 18.8 892.263 21.02 892.263 24.48C892.263 27.94 894.603 30.18 897.763 30.18C900.463 30.18 902.203 28.64 902.823 26.72ZM913.187 30H915.447V23.5C915.447 20.42 913.507 18.8 910.927 18.8C909.607 18.8 908.387 19.34 907.647 20.24V18.98H905.367V30H907.647V23.84C907.647 21.82 908.747 20.78 910.427 20.78C912.087 20.78 913.187 21.82 913.187 23.84V30ZM922.995 20.72C924.695 20.72 926.035 21.8 926.075 23.5H919.975C920.215 21.76 921.455 20.72 922.995 20.72ZM928.155 26.72H925.695C925.275 27.58 924.495 28.26 923.095 28.26C921.415 28.26 920.115 27.16 919.955 25.34H928.375C928.435 24.96 928.455 24.6 928.455 24.22C928.455 20.98 926.235 18.8 923.095 18.8C919.835 18.8 917.595 21.02 917.595 24.48C917.595 27.94 919.935 30.18 923.095 30.18C925.795 30.18 927.535 28.64 928.155 26.72ZM931.059 26.94C931.059 29.18 932.279 30 934.239 30H936.039V28.1H934.639C933.679 28.1 933.359 27.76 933.359 26.94V20.84H936.039V18.98H933.359V16.24H931.059V18.98H929.759V20.84H931.059V26.94ZM940.421 24.2C940.421 21.86 941.461 21.16 943.141 21.16H943.721V18.8C942.161 18.8 941.061 19.48 940.421 20.58V18.98H938.141V30H940.421V24.2ZM945.056 24.44C945.056 27.84 947.356 30.18 950.216 30.18C952.056 30.18 953.376 29.3 954.076 28.36V30H956.376V18.98H954.076V20.58C953.396 19.68 952.116 18.8 950.256 18.8C947.356 18.8 945.056 21.04 945.056 24.44ZM954.076 24.48C954.076 26.86 952.456 28.2 950.736 28.2C949.036 28.2 947.396 26.82 947.396 24.44C947.396 22.06 949.036 20.78 950.736 20.78C952.456 20.78 954.076 22.12 954.076 24.48ZM959.731 26.94C959.731 29.18 960.951 30 962.911 30H964.711V28.1H963.311C962.351 28.1 962.031 27.76 962.031 26.94V20.84H964.711V18.98H962.031V16.24H959.731V18.98H958.431V20.84H959.731V26.94ZM966.813 30H969.093V18.98H966.813V30ZM967.973 17.52C968.773 17.52 969.413 16.88 969.413 16.06C969.413 15.24 968.773 14.6 967.973 14.6C967.153 14.6 966.513 15.24 966.513 16.06C966.513 16.88 967.153 17.52 967.973 17.52ZM982.586 24.48C982.586 21.02 980.106 18.8 976.966 18.8C973.826 18.8 971.346 21.02 971.346 24.48C971.346 27.94 973.726 30.18 976.866 30.18C980.026 30.18 982.586 27.94 982.586 24.48ZM973.666 24.48C973.666 21.98 975.206 20.78 976.926 20.78C978.626 20.78 980.246 21.98 980.246 24.48C980.246 26.98 978.566 28.2 976.866 28.2C975.146 28.2 973.666 26.98 973.666 24.48ZM992.66 30H994.92V23.5C994.92 20.42 992.98 18.8 990.4 18.8C989.08 18.8 987.86 19.34 987.12 20.24V18.98H984.84V30H987.12V23.84C987.12 21.82 988.22 20.78 989.9 20.78C991.56 20.78 992.66 21.82 992.66 23.84V30ZM1002.3 17.96H1006.02V30H1008.3V17.96H1012V16.1H1002.3V17.96ZM1018.95 20.72C1020.65 20.72 1021.99 21.8 1022.03 23.5H1015.93C1016.17 21.76 1017.41 20.72 1018.95 20.72ZM1024.11 26.72H1021.65C1021.23 27.58 1020.45 28.26 1019.05 28.26C1017.37 28.26 1016.07 27.16 1015.91 25.34H1024.33C1024.39 24.96 1024.41 24.6 1024.41 24.22C1024.41 20.98 1022.19 18.8 1019.05 18.8C1015.79 18.8 1013.55 21.02 1013.55 24.48C1013.55 27.94 1015.89 30.18 1019.05 30.18C1021.75 30.18 1023.49 28.64 1024.11 26.72ZM1034.88 26.92C1034.76 22.94 1028.54 24.18 1028.54 21.96C1028.54 21.22 1029.18 20.72 1030.4 20.72C1031.64 20.72 1032.38 21.38 1032.46 22.34H1034.74C1034.62 20.14 1032.98 18.8 1030.48 18.8C1027.88 18.8 1026.24 20.22 1026.24 21.98C1026.24 26.02 1032.64 24.78 1032.64 26.94C1032.64 27.7 1031.94 28.26 1030.62 28.26C1029.36 28.26 1028.5 27.52 1028.42 26.62H1026.06C1026.16 28.62 1028.02 30.18 1030.66 30.18C1033.26 30.18 1034.88 28.78 1034.88 26.92ZM1037.7 26.94C1037.7 29.18 1038.92 30 1040.88 30H1042.68V28.1H1041.28C1040.32 28.1 1040 27.76 1040 26.94V20.84H1042.68V18.98H1040V16.24H1037.7V18.98H1036.4V20.84H1037.7V26.94ZM1049.42 20.72C1051.12 20.72 1052.46 21.8 1052.5 23.5H1046.4C1046.64 21.76 1047.88 20.72 1049.42 20.72ZM1054.58 26.72H1052.12C1051.7 27.58 1050.92 28.26 1049.52 28.26C1047.84 28.26 1046.54 27.16 1046.38 25.34H1054.8C1054.86 24.96 1054.88 24.6 1054.88 24.22C1054.88 20.98 1052.66 18.8 1049.52 18.8C1046.26 18.8 1044.02 21.02 1044.02 24.48C1044.02 27.94 1046.36 30.18 1049.52 30.18C1052.22 30.18 1053.96 28.64 1054.58 26.72ZM1059.41 24.2C1059.41 21.86 1060.45 21.16 1062.13 21.16H1062.71V18.8C1061.15 18.8 1060.05 19.48 1059.41 20.58V18.98H1057.13V30H1059.41V24.2Z" fill="#212832"/>
<rect x="840.5" y="0.5" width="399" height="49" stroke="black" stroke-opacity="0.5"/>
<rect x="840" y="57" width="400" height="50" fill="white"/>
<path d="M864.6 82.94C866.08 82.94 867.24 81.8 867.24 80.34C867.24 78.86 866.08 77.72 864.6 77.72C863.16 77.72 862 78.86 862 80.34C862 81.8 863.16 82.94 864.6 82.94ZM890.509 83.06C890.509 77.98 883.149 79.94 883.149 76.8C883.149 75.46 884.169 74.82 885.489 74.86C886.929 74.9 887.749 75.76 887.829 76.7H890.349C890.149 74.32 888.269 72.92 885.609 72.92C882.769 72.92 880.829 74.44 880.829 76.88C880.829 82 888.209 79.82 888.209 83.18C888.209 84.36 887.309 85.22 885.709 85.22C884.129 85.22 883.329 84.3 883.229 83.16H880.789C880.789 85.62 882.929 87.14 885.709 87.14C888.809 87.14 890.509 85.14 890.509 83.06ZM897.839 77.72C899.539 77.72 900.879 78.8 900.919 80.5H894.819C895.059 78.76 896.299 77.72 897.839 77.72ZM902.999 83.72H900.539C900.119 84.58 899.339 85.26 897.939 85.26C896.259 85.26 894.959 84.16 894.799 82.34H903.219C903.279 81.96 903.299 81.6 903.299 81.22C903.299 77.98 901.079 75.8 897.939 75.8C894.679 75.8 892.439 78.02 892.439 81.48C892.439 84.94 894.779 87.18 897.939 87.18C900.639 87.18 902.379 85.64 902.999 83.72ZM904.783 81.48C904.783 84.94 907.023 87.18 910.183 87.18C912.883 87.18 914.643 85.68 915.263 83.52H912.803C912.383 84.66 911.543 85.26 910.183 85.26C908.343 85.26 907.123 83.9 907.123 81.48C907.123 79.08 908.343 77.72 910.183 77.72C911.543 77.72 912.423 78.4 912.803 79.46H915.263C914.643 77.14 912.883 75.8 910.183 75.8C907.023 75.8 904.783 78.04 904.783 81.48ZM927.515 75.98H925.235V82.12C925.235 84.14 924.135 85.18 922.455 85.18C920.795 85.18 919.695 84.14 919.695 82.12V75.98H917.435V82.46C917.435 85.54 919.395 87.16 921.975 87.16C923.275 87.16 924.515 86.62 925.235 85.68V87H927.515V75.98ZM932.803 81.2C932.803 78.86 933.843 78.16 935.523 78.16H936.103V75.8C934.543 75.8 933.443 76.48 932.803 77.58V75.98H930.523V87H932.803V81.2ZM938.199 87H940.479V75.98H938.199V87ZM939.359 74.52C940.159 74.52 940.799 73.88 940.799 73.06C940.799 72.24 940.159 71.6 939.359 71.6C938.539 71.6 937.899 72.24 937.899 73.06C937.899 73.88 938.539 74.52 939.359 74.52ZM943.833 83.94C943.833 86.18 945.053 87 947.013 87H948.813V85.1H947.413C946.453 85.1 946.133 84.76 946.133 83.94V77.84H948.813V75.98H946.133V73.24H943.833V75.98H942.533V77.84H943.833V83.94ZM955.254 84.38L952.154 75.98H949.614L953.954 86.82L951.714 92.18H954.074L960.834 75.98H958.474L955.254 84.38ZM977.13 87H979.53L974.55 73.08H971.91L966.93 87H969.31L970.31 84.16H976.13L977.13 87ZM975.49 82.3H970.95L973.23 75.84L975.49 82.3ZM989.515 87H991.775V80.5C991.775 77.42 989.835 75.8 987.255 75.8C985.935 75.8 984.715 76.34 983.975 77.24V75.98H981.695V87H983.975V80.84C983.975 78.82 985.075 77.78 986.755 77.78C988.415 77.78 989.515 78.82 989.515 80.84V87ZM993.924 81.44C993.924 84.84 996.224 87.18 999.084 87.18C1000.92 87.18 1002.24 86.3 1002.94 85.36V87H1005.24V75.98H1002.94V77.58C1002.26 76.68 1000.98 75.8 999.124 75.8C996.224 75.8 993.924 78.04 993.924 81.44ZM1002.94 81.48C1002.94 83.86 1001.32 85.2 999.604 85.2C997.904 85.2 996.264 83.82 996.264 81.44C996.264 79.06 997.904 77.78 999.604 77.78C1001.32 77.78 1002.94 79.12 1002.94 81.48ZM1008.24 87H1010.52V72.2H1008.24V87ZM1017.85 84.38L1014.75 75.98H1012.21L1016.55 86.82L1014.31 92.18H1016.67L1023.43 75.98H1021.07L1017.85 84.38ZM1033.37 83.92C1033.25 79.94 1027.03 81.18 1027.03 78.96C1027.03 78.22 1027.67 77.72 1028.89 77.72C1030.13 77.72 1030.87 78.38 1030.95 79.34H1033.23C1033.11 77.14 1031.47 75.8 1028.97 75.8C1026.37 75.8 1024.73 77.22 1024.73 78.98C1024.73 83.02 1031.13 81.78 1031.13 83.94C1031.13 84.7 1030.43 85.26 1029.11 85.26C1027.85 85.26 1026.99 84.52 1026.91 83.62H1024.55C1024.65 85.62 1026.51 87.18 1029.15 87.18C1031.75 87.18 1033.37 85.78 1033.37 83.92ZM1036.2 83.94C1036.2 86.18 1037.42 87 1039.38 87H1041.18V85.1H1039.78C1038.82 85.1 1038.5 84.76 1038.5 83.94V77.84H1041.18V75.98H1038.5V73.24H1036.2V75.98H1034.9V77.84H1036.2V83.94Z" fill="#212832"/>
<rect x="840.5" y="57.5" width="399" height="49" stroke="black" stroke-opacity="0.5"/>
<rect x="420" width="400" height="50" fill="white"/>
<path d="M444.6 25.94C446.08 25.94 447.24 24.8 447.24 23.34C447.24 21.86 446.08 20.72 444.6 20.72C443.16 20.72 442 21.86 442 23.34C442 24.8 443.16 25.94 444.6 25.94ZM470.509 26.06C470.509 20.98 463.149 22.94 463.149 19.8C463.149 18.46 464.169 17.82 465.489 17.86C466.929 17.9 467.749 18.76 467.829 19.7H470.349C470.149 17.32 468.269 15.92 465.609 15.92C462.769 15.92 460.829 17.44 460.829 19.88C460.829 25 468.209 22.82 468.209 26.18C468.209 27.36 467.309 28.22 465.709 28.22C464.129 28.22 463.329 27.3 463.229 26.16H460.789C460.789 28.62 462.929 30.14 465.709 30.14C468.809 30.14 470.509 28.14 470.509 26.06ZM477.839 20.72C479.539 20.72 480.879 21.8 480.919 23.5H474.819C475.059 21.76 476.299 20.72 477.839 20.72ZM482.999 26.72H480.539C480.119 27.58 479.339 28.26 477.939 28.26C476.259 28.26 474.959 27.16 474.799 25.34H483.219C483.279 24.96 483.299 24.6 483.299 24.22C483.299 20.98 481.079 18.8 477.939 18.8C474.679 18.8 472.439 21.02 472.439 24.48C472.439 27.94 474.779 30.18 477.939 30.18C480.639 30.18 482.379 28.64 482.999 26.72ZM484.783 24.48C484.783 27.94 487.023 30.18 490.183 30.18C492.883 30.18 494.643 28.68 495.263 26.52H492.803C492.383 27.66 491.543 28.26 490.183 28.26C488.343 28.26 487.123 26.9 487.123 24.48C487.123 22.08 488.343 20.72 490.183 20.72C491.543 20.72 492.423 21.4 492.803 22.46H495.263C494.643 20.14 492.883 18.8 490.183 18.8C487.023 18.8 484.783 21.04 484.783 24.48ZM507.515 18.98H505.235V25.12C505.235 27.14 504.135 28.18 502.455 28.18C500.795 28.18 499.695 27.14 499.695 25.12V18.98H497.435V25.46C497.435 28.54 499.395 30.16 501.975 30.16C503.275 30.16 504.515 29.62 505.235 28.68V30H507.515V18.98ZM512.803 24.2C512.803 21.86 513.843 21.16 515.523 21.16H516.103V18.8C514.543 18.8 513.443 19.48 512.803 20.58V18.98H510.523V30H512.803V24.2ZM518.199 30H520.479V18.98H518.199V30ZM519.359 17.52C520.159 17.52 520.799 16.88 520.799 16.06C520.799 15.24 520.159 14.6 519.359 14.6C518.539 14.6 517.899 15.24 517.899 16.06C517.899 16.88 518.539 17.52 519.359 17.52ZM523.833 26.94C523.833 29.18 525.053 30 527.013 30H528.813V28.1H527.413C526.453 28.1 526.133 27.76 526.133 26.94V20.84H528.813V18.98H526.133V16.24H523.833V18.98H522.533V20.84H523.833V26.94ZM535.254 27.38L532.154 18.98H529.614L533.954 29.82L531.714 35.18H534.074L540.834 18.98H538.474L535.254 27.38ZM546.99 23.02C546.99 27.2 550.17 30.12 554.09 30.12C556.99 30.12 559.49 28.68 560.55 25.96H557.81C557.07 27.44 555.75 28.14 554.09 28.14C551.33 28.14 549.33 26.16 549.33 23.02C549.33 19.88 551.33 17.92 554.09 17.92C555.75 17.92 557.07 18.62 557.81 20.1H560.55C559.49 17.38 556.99 15.92 554.09 15.92C550.17 15.92 546.99 18.86 546.99 23.02ZM573.719 24.48C573.719 21.02 571.239 18.8 568.099 18.8C564.959 18.8 562.479 21.02 562.479 24.48C562.479 27.94 564.859 30.18 567.999 30.18C571.159 30.18 573.719 27.94 573.719 24.48ZM564.799 24.48C564.799 21.98 566.339 20.78 568.059 20.78C569.759 20.78 571.379 21.98 571.379 24.48C571.379 26.98 569.699 28.2 567.999 28.2C566.279 28.2 564.799 26.98 564.799 24.48ZM583.793 30H586.053V23.5C586.053 20.42 584.113 18.8 581.533 18.8C580.213 18.8 578.993 19.34 578.253 20.24V18.98H575.973V30H578.253V23.84C578.253 21.82 579.353 20.78 581.033 20.78C582.693 20.78 583.793 21.82 583.793 23.84V30ZM597.181 26.92C597.061 22.94 590.841 24.18 590.841 21.96C590.841 21.22 591.481 20.72 592.701 20.72C593.941 20.72 594.681 21.38 594.761 22.34H597.041C596.921 20.14 595.281 18.8 592.781 18.8C590.181 18.8 588.541 20.22 588.541 21.98C588.541 26.02 594.941 24.78 594.941 26.94C594.941 27.7 594.241 28.26 592.921 28.26C591.661 28.26 590.801 27.52 590.721 26.62H588.361C588.461 28.62 590.321 30.18 592.961 30.18C595.561 30.18 597.181 28.78 597.181 26.92ZM609.625 18.98H607.345V25.12C607.345 27.14 606.245 28.18 604.565 28.18C602.905 28.18 601.805 27.14 601.805 25.12V18.98H599.545V25.46C599.545 28.54 601.505 30.16 604.085 30.16C605.385 30.16 606.625 29.62 607.345 28.68V30H609.625V18.98ZM612.633 30H614.913V15.2H612.633V30ZM618.266 26.94C618.266 29.18 619.486 30 621.446 30H623.246V28.1H621.846C620.886 28.1 620.566 27.76 620.566 26.94V20.84H623.246V18.98H620.566V16.24H618.266V18.98H616.966V20.84H618.266V26.94ZM624.588 24.44C624.588 27.84 626.888 30.18 629.748 30.18C631.588 30.18 632.908 29.3 633.608 28.36V30H635.908V18.98H633.608V20.58C632.928 19.68 631.648 18.8 629.788 18.8C626.888 18.8 624.588 21.04 624.588 24.44ZM633.608 24.48C633.608 26.86 631.988 28.2 630.268 28.2C628.568 28.2 626.928 26.82 626.928 24.44C626.928 22.06 628.568 20.78 630.268 20.78C631.988 20.78 633.608 22.12 633.608 24.48ZM646.722 30H648.982V23.5C648.982 20.42 647.042 18.8 644.462 18.8C643.142 18.8 641.922 19.34 641.182 20.24V18.98H638.902V30H641.182V23.84C641.182 21.82 642.282 20.78 643.962 20.78C645.622 20.78 646.722 21.82 646.722 23.84V30ZM652.251 26.94C652.251 29.18 653.471 30 655.431 30H657.231V28.1H655.831C654.871 28.1 654.551 27.76 654.551 26.94V20.84H657.231V18.98H654.551V16.24H652.251V18.98H650.951V20.84H652.251V26.94Z" fill="#212832"/>
<rect x="420.5" y="0.5" width="399" height="49" stroke="black" stroke-opacity="0.5"/>
<rect x="420" y="57" width="400" height="50" fill="white"/>
<path d="M444.6 82.94C446.08 82.94 447.24 81.8 447.24 80.34C447.24 78.86 446.08 77.72 444.6 77.72C443.16 77.72 442 78.86 442 80.34C442 81.8 443.16 82.94 444.6 82.94ZM460.369 80.02C460.369 84.2 463.549 87.12 467.469 87.12C470.369 87.12 472.869 85.68 473.929 82.96H471.189C470.449 84.44 469.129 85.14 467.469 85.14C464.709 85.14 462.709 83.16 462.709 80.02C462.709 76.88 464.709 74.92 467.469 74.92C469.129 74.92 470.449 75.62 471.189 77.1H473.929C472.869 74.38 470.369 72.92 467.469 72.92C463.549 72.92 460.369 75.86 460.369 80.02ZM478.878 81.2C478.878 78.86 479.918 78.16 481.598 78.16H482.178V75.8C480.618 75.8 479.518 76.48 478.878 77.58V75.98H476.598V87H478.878V81.2ZM488.613 84.38L485.513 75.98H482.973L487.313 86.82L485.073 92.18H487.433L494.193 75.98H491.833L488.613 84.38ZM498.194 77.6V75.98H495.914V92.24H498.194V85.4C498.914 86.26 500.214 87.18 502.034 87.18C504.934 87.18 507.214 84.84 507.214 81.44C507.214 78.04 504.934 75.8 502.034 75.8C500.234 75.8 498.894 76.68 498.194 77.6ZM504.894 81.44C504.894 83.82 503.254 85.2 501.534 85.2C499.834 85.2 498.194 83.86 498.194 81.48C498.194 79.12 499.834 77.78 501.534 77.78C503.254 77.78 504.894 79.06 504.894 81.44ZM509.829 83.94C509.829 86.18 511.049 87 513.009 87H514.809V85.1H513.409C512.449 85.1 512.129 84.76 512.129 83.94V77.84H514.809V75.98H512.129V73.24H509.829V75.98H508.529V77.84H509.829V83.94ZM527.41 81.48C527.41 78.02 524.93 75.8 521.79 75.8C518.65 75.8 516.17 78.02 516.17 81.48C516.17 84.94 518.55 87.18 521.69 87.18C524.85 87.18 527.41 84.94 527.41 81.48ZM518.49 81.48C518.49 78.98 520.03 77.78 521.75 77.78C523.45 77.78 525.07 78.98 525.07 81.48C525.07 83.98 523.39 85.2 521.69 85.2C519.97 85.2 518.49 83.98 518.49 81.48ZM528.904 81.44C528.904 84.84 531.204 87.18 534.104 87.18C535.904 87.18 537.224 86.28 537.924 85.34V87.18C537.924 89.38 536.604 90.46 534.844 90.46C533.264 90.46 532.044 89.68 531.704 88.54H529.444C529.724 90.98 531.904 92.44 534.844 92.44C538.284 92.44 540.224 90.18 540.224 87.18V75.98H537.924V77.58C537.244 76.64 535.904 75.8 534.104 75.8C531.204 75.8 528.904 78.04 528.904 81.44ZM537.924 81.48C537.924 83.86 536.304 85.2 534.584 85.2C532.884 85.2 531.244 83.82 531.244 81.44C531.244 79.06 532.884 77.78 534.584 77.78C536.304 77.78 537.924 79.12 537.924 81.48ZM545.499 81.2C545.499 78.86 546.539 78.16 548.219 78.16H548.799V75.8C547.239 75.8 546.139 76.48 545.499 77.58V75.98H543.219V87H545.499V81.2ZM550.135 81.44C550.135 84.84 552.435 87.18 555.295 87.18C557.135 87.18 558.455 86.3 559.155 85.36V87H561.455V75.98H559.155V77.58C558.475 76.68 557.195 75.8 555.335 75.8C552.435 75.8 550.135 78.04 550.135 81.44ZM559.155 81.48C559.155 83.86 557.535 85.2 555.815 85.2C554.115 85.2 552.475 83.82 552.475 81.44C552.475 79.06 554.115 77.78 555.815 77.78C557.535 77.78 559.155 79.12 559.155 81.48ZM566.729 77.6V75.98H564.449V92.24H566.729V85.4C567.449 86.26 568.749 87.18 570.569 87.18C573.469 87.18 575.749 84.84 575.749 81.44C575.749 78.04 573.469 75.8 570.569 75.8C568.769 75.8 567.429 76.68 566.729 77.6ZM573.429 81.44C573.429 83.82 571.789 85.2 570.069 85.2C568.369 85.2 566.729 83.86 566.729 81.48C566.729 79.12 568.369 77.78 570.069 77.78C571.789 77.78 573.429 79.06 573.429 81.44ZM578.004 87H580.284V80.84C580.284 78.82 581.384 77.78 583.064 77.78C584.724 77.78 585.824 78.82 585.824 80.84V87H588.084V80.5C588.084 77.42 586.164 75.8 583.704 75.8C582.284 75.8 581.044 76.34 580.284 77.26V72.2H578.004V87ZM595.632 77.72C597.332 77.72 598.672 78.8 598.712 80.5H592.612C592.852 78.76 594.092 77.72 595.632 77.72ZM600.792 83.72H598.332C597.912 84.58 597.132 85.26 595.732 85.26C594.052 85.26 592.752 84.16 592.592 82.34H601.012C601.072 81.96 601.092 81.6 601.092 81.22C601.092 77.98 598.872 75.8 595.732 75.8C592.472 75.8 590.232 78.02 590.232 81.48C590.232 84.94 592.572 87.18 595.732 87.18C598.432 87.18 600.172 85.64 600.792 83.72ZM605.616 81.2C605.616 78.86 606.656 78.16 608.336 78.16H608.916V75.8C607.356 75.8 606.256 76.48 605.616 77.58V75.98H603.336V87H605.616V81.2Z" fill="#212832"/>
<rect x="420.5" y="57.5" width="399" height="49" stroke="black" stroke-opacity="0.5"/>
</svg>
