<svg width="396" height="344" viewBox="0 0 396 344" fill="none" xmlns="http://www.w3.org/2000/svg">
<path d="M396 0H0V344H396V0Z" fill="url(#paint0_linear_3_31436)"/>
<path d="M50.1413 149.28C46.9883 149.28 44.4658 146.705 44.4658 143.604C44.4658 140.451 47.0408 137.929 50.1413 137.929C53.2943 137.929 55.8168 140.504 55.8168 143.604C55.8168 146.757 53.2418 149.28 50.1413 149.28ZM50.1413 139.505C47.8816 139.505 46.0423 141.345 46.0423 143.604C46.0423 145.864 47.8816 147.703 50.1413 147.703C52.401 147.703 54.2403 145.864 54.2403 143.604C54.2403 141.345 52.401 139.505 50.1413 139.505Z" fill="#8BF6F1"/>
<path d="M70.531 184.331C67.3779 184.331 64.8555 181.756 64.8555 178.656C64.8555 175.503 67.4305 172.98 70.531 172.98C73.684 172.98 76.2064 175.555 76.2064 178.656C76.2064 181.809 73.684 184.331 70.531 184.331ZM70.531 174.557C68.2713 174.557 66.432 176.396 66.432 178.656C66.432 180.915 68.2713 182.755 70.531 182.755C72.7906 182.755 74.6299 180.915 74.6299 178.656C74.6299 176.396 72.7906 174.557 70.531 174.557Z" fill="#8BF6F1"/>
<path d="M62.3324 161.839C61.7544 161.839 61.334 161.367 61.334 160.841C61.334 160.315 61.8069 159.843 62.3324 159.843C62.9105 159.843 63.3309 160.315 63.3309 160.841C63.3309 161.367 62.858 161.839 62.3324 161.839ZM62.3324 160.315C62.0697 160.315 61.8595 160.526 61.8595 160.788C61.8595 161.051 62.0697 161.261 62.3324 161.261C62.5952 161.261 62.8054 161.051 62.8054 160.788C62.8054 160.526 62.5952 160.315 62.3324 160.315Z" fill="#8BF6F1"/>
<path d="M40.5239 174.504C39.9458 174.504 39.5254 174.031 39.5254 173.506C39.5254 172.98 39.9983 172.507 40.5239 172.507C41.0494 172.507 41.5223 172.98 41.5223 173.506C41.5223 174.031 41.1019 174.504 40.5239 174.504ZM40.5239 172.98C40.2611 172.98 40.0509 173.19 40.0509 173.453C40.0509 173.716 40.2611 173.926 40.5239 173.926C40.7866 173.926 40.9968 173.716 40.9968 173.453C41.0494 173.19 40.8392 172.98 40.5239 172.98Z" fill="#8BF6F1"/>
<path d="M85.665 173.716C85.0869 173.716 84.6665 173.243 84.6665 172.717C84.6665 172.139 85.1395 171.719 85.665 171.719C86.1905 171.719 86.6634 172.192 86.6634 172.717C86.716 173.296 86.243 173.716 85.665 173.716ZM85.665 172.245C85.4022 172.245 85.192 172.455 85.192 172.717C85.192 172.98 85.4022 173.19 85.665 173.19C85.9277 173.19 86.1379 172.98 86.1379 172.717C86.1905 172.455 85.9803 172.245 85.665 172.245Z" fill="#8BF6F1"/>
<path d="M109.05 164.467C108.472 164.467 108.052 163.994 108.052 163.469C108.052 162.89 108.525 162.47 109.05 162.47C109.628 162.47 110.049 162.943 110.049 163.469C110.101 163.994 109.628 164.467 109.05 164.467ZM109.05 162.943C108.787 162.943 108.577 163.153 108.577 163.416C108.577 163.679 108.787 163.889 109.05 163.889C109.313 163.889 109.523 163.679 109.523 163.416C109.576 163.206 109.313 162.943 109.05 162.943Z" fill="#8BF6F1"/>
<path d="M100.589 180.442C100.011 180.442 99.5908 179.97 99.5908 179.444C99.5908 178.919 100.064 178.446 100.589 178.446C101.115 178.446 101.588 178.919 101.588 179.444C101.588 179.97 101.115 180.442 100.589 180.442ZM100.589 178.919C100.327 178.919 100.116 179.129 100.116 179.391C100.116 179.654 100.327 179.864 100.589 179.864C100.852 179.864 101.062 179.654 101.062 179.391C101.062 179.129 100.852 178.919 100.589 178.919Z" fill="#8BF6F1"/>
<path d="M42.0475 171.194C41.049 171.194 40.2607 170.405 40.2607 169.407C40.2607 168.408 41.049 167.62 42.0475 167.62C43.0459 167.62 43.8342 168.408 43.8342 169.407C43.8342 170.405 43.0459 171.194 42.0475 171.194ZM42.0475 168.146C41.3643 168.146 40.7862 168.724 40.7862 169.407C40.7862 170.09 41.3643 170.668 42.0475 170.668C42.7306 170.668 43.3087 170.09 43.3087 169.407C43.3087 168.724 42.7306 168.146 42.0475 168.146Z" fill="#8BF6F1"/>
<path d="M57.8653 186.801C56.8669 186.801 56.0786 186.013 56.0786 185.014C56.0786 184.016 56.8669 183.228 57.8653 183.228C58.8638 183.228 59.6521 184.016 59.6521 185.014C59.6521 185.96 58.8638 186.801 57.8653 186.801ZM57.8653 183.753C57.1822 183.753 56.6041 184.331 56.6041 185.014C56.6041 185.698 57.1822 186.276 57.8653 186.276C58.5485 186.276 59.1266 185.698 59.1266 185.014C59.1266 184.331 58.5485 183.753 57.8653 183.753Z" fill="#8BF6F1"/>
<path d="M81.8815 148.754C80.883 148.754 80.0947 147.966 80.0947 146.968C80.0947 145.969 80.883 145.181 81.8815 145.181C82.8799 145.181 83.6682 145.969 83.6682 146.968C83.6682 147.966 82.8799 148.754 81.8815 148.754ZM81.8815 145.759C81.1983 145.759 80.6202 146.337 80.6202 147.02C80.6202 147.703 81.1983 148.281 81.8815 148.281C82.5646 148.281 83.1427 147.703 83.1427 147.02C83.1427 146.284 82.5646 145.759 81.8815 145.759Z" fill="#8BF6F1"/>
<path d="M104.899 173.558C103.901 173.558 103.112 172.77 103.112 171.772C103.112 170.773 103.901 169.985 104.899 169.985C105.897 169.985 106.686 170.773 106.686 171.772C106.686 172.77 105.897 173.558 104.899 173.558ZM104.899 170.563C104.216 170.563 103.638 171.141 103.638 171.824C103.638 172.507 104.216 173.085 104.899 173.085C105.582 173.085 106.16 172.507 106.16 171.824C106.16 171.088 105.582 170.563 104.899 170.563Z" fill="#8BF6F1"/>
<path d="M111.309 153.116C110.311 153.116 109.522 152.328 109.522 151.329C109.522 150.331 110.311 149.543 111.309 149.543C112.308 149.543 113.096 150.331 113.096 151.329C113.096 152.328 112.308 153.116 111.309 153.116ZM111.309 150.068C110.626 150.068 110.048 150.646 110.048 151.329C110.048 152.012 110.626 152.591 111.309 152.591C111.992 152.591 112.57 152.012 112.57 151.329C112.57 150.646 112.045 150.068 111.309 150.068Z" fill="#8BF6F1"/>
<path d="M63.2779 152.328C62.2795 152.328 61.4912 151.54 61.4912 150.541C61.4912 149.543 62.2795 148.754 63.2779 148.754C64.2764 148.754 65.0647 149.543 65.0647 150.541C65.0647 151.54 64.2764 152.328 63.2779 152.328ZM63.2779 149.332C62.5948 149.332 62.0167 149.911 62.0167 150.594C62.0167 151.277 62.5948 151.855 63.2779 151.855C63.9611 151.855 64.5392 151.277 64.5392 150.594C64.5392 149.858 63.9611 149.332 63.2779 149.332Z" fill="#8BF6F1"/>
<path d="M93.1267 164.993C89.9736 164.993 87.4512 162.418 87.4512 159.317C87.4512 156.164 90.0262 153.642 93.1267 153.642C96.2797 153.642 98.8021 156.217 98.8021 159.317C98.8021 162.47 96.2797 164.993 93.1267 164.993ZM93.1267 155.218C90.867 155.218 89.0277 157.057 89.0277 159.317C89.0277 161.577 90.867 163.416 93.1267 163.416C95.3863 163.416 97.2256 161.577 97.2256 159.317C97.2256 157.057 95.3863 155.218 93.1267 155.218Z" fill="#8BF6F1"/>
<path d="M69.7418 183.543V249.704H58.6011V322.119H60.1776V251.281H69.7418V337.412H71.3184V183.543H69.7418Z" fill="url(#paint1_linear_3_31436)"/>
<path d="M49.3525 148.492V182.702H39V244.029H40.5765V184.279H49.3525V263.21H50.929V148.492H49.3525Z" fill="url(#paint2_linear_3_31436)"/>
<path d="M93.9154 190.637V164.204H92.3389V320.543H93.9154V192.214H104.741V255.327H106.317V190.637H93.9154Z" fill="url(#paint3_linear_3_31436)"/>
<path d="M340.483 143.604C340.483 140.451 343.058 137.929 346.159 137.929C349.312 137.929 351.834 140.504 351.834 143.604C351.834 146.757 349.259 149.28 346.159 149.28C343.006 149.28 340.483 146.757 340.483 143.604ZM342.06 143.604C342.06 145.864 343.899 147.703 346.159 147.703C348.419 147.703 350.258 145.864 350.258 143.604C350.258 141.345 348.419 139.505 346.159 139.505C343.899 139.505 342.06 141.345 342.06 143.604Z" fill="#8BF6F1"/>
<path d="M320.042 178.656C320.042 175.503 322.616 172.98 325.717 172.98C328.87 172.98 331.392 175.555 331.392 178.656C331.392 181.809 328.817 184.331 325.717 184.331C322.616 184.331 320.042 181.809 320.042 178.656ZM321.618 178.656C321.618 180.915 323.457 182.755 325.717 182.755C327.977 182.755 329.816 180.915 329.816 178.656C329.816 176.396 327.977 174.557 325.717 174.557C323.457 174.557 321.618 176.396 321.618 178.656Z" fill="#8BF6F1"/>
<path d="M332.969 160.789C332.969 160.21 333.442 159.79 333.967 159.79C334.545 159.79 334.966 160.263 334.966 160.789C334.966 161.314 334.493 161.787 333.967 161.787C333.389 161.84 332.969 161.367 332.969 160.789ZM333.494 160.789C333.494 161.051 333.704 161.261 333.967 161.261C334.23 161.261 334.44 161.051 334.44 160.789C334.44 160.526 334.23 160.316 333.967 160.316C333.704 160.316 333.494 160.526 333.494 160.789Z" fill="#8BF6F1"/>
<path d="M354.725 173.453C354.725 172.875 355.198 172.455 355.724 172.455C356.302 172.455 356.722 172.928 356.722 173.453C356.722 173.979 356.249 174.452 355.724 174.452C355.146 174.504 354.725 174.031 354.725 173.453ZM355.251 173.453C355.251 173.716 355.461 173.926 355.724 173.926C355.986 173.926 356.197 173.716 356.197 173.453C356.197 173.19 355.986 172.98 355.724 172.98C355.461 172.98 355.251 173.19 355.251 173.453Z" fill="#8BF6F1"/>
<path d="M309.584 172.717C309.584 172.139 310.057 171.719 310.583 171.719C311.161 171.719 311.581 172.192 311.581 172.717C311.581 173.296 311.108 173.716 310.583 173.716C310.005 173.716 309.584 173.296 309.584 172.717ZM310.11 172.717C310.11 172.98 310.32 173.19 310.583 173.19C310.846 173.19 311.056 172.98 311.056 172.717C311.056 172.455 310.846 172.245 310.583 172.245C310.32 172.245 310.11 172.455 310.11 172.717Z" fill="#8BF6F1"/>
<path d="M286.199 163.469C286.199 162.89 286.672 162.47 287.197 162.47C287.775 162.47 288.196 162.943 288.196 163.469C288.196 164.047 287.723 164.467 287.197 164.467C286.672 164.467 286.199 163.994 286.199 163.469ZM286.724 163.469C286.724 163.731 286.934 163.942 287.197 163.942C287.46 163.942 287.67 163.731 287.67 163.469C287.67 163.206 287.46 162.996 287.197 162.996C286.934 162.943 286.724 163.206 286.724 163.469Z" fill="#8BF6F1"/>
<path d="M294.712 179.392C294.712 178.813 295.185 178.393 295.71 178.393C296.288 178.393 296.709 178.866 296.709 179.392C296.709 179.917 296.236 180.39 295.71 180.39C295.132 180.443 294.712 179.97 294.712 179.392ZM295.237 179.392C295.237 179.654 295.448 179.864 295.71 179.864C295.973 179.864 296.183 179.654 296.183 179.392C296.183 179.129 295.973 178.919 295.71 178.919C295.448 178.919 295.237 179.129 295.237 179.392Z" fill="#8BF6F1"/>
<path d="M352.413 169.407C352.413 168.408 353.201 167.62 354.199 167.62C355.198 167.62 355.986 168.408 355.986 169.407C355.986 170.405 355.198 171.194 354.199 171.194C353.253 171.194 352.413 170.405 352.413 169.407ZM352.938 169.407C352.938 170.09 353.516 170.668 354.199 170.668C354.882 170.668 355.461 170.09 355.461 169.407C355.461 168.724 354.882 168.146 354.199 168.146C353.516 168.146 352.938 168.724 352.938 169.407Z" fill="#8BF6F1"/>
<path d="M336.647 185.014C336.647 184.016 337.435 183.228 338.434 183.228C339.432 183.228 340.22 184.016 340.22 185.014C340.22 186.013 339.432 186.801 338.434 186.801C337.435 186.801 336.647 185.96 336.647 185.014ZM337.172 185.014C337.172 185.698 337.751 186.276 338.434 186.276C339.117 186.276 339.695 185.698 339.695 185.014C339.695 184.331 339.117 183.753 338.434 183.753C337.698 183.753 337.172 184.331 337.172 185.014Z" fill="#8BF6F1"/>
<path d="M312.632 146.968C312.632 145.969 313.421 145.181 314.419 145.181C315.417 145.181 316.206 145.969 316.206 146.968C316.206 147.966 315.417 148.754 314.419 148.754C313.421 148.754 312.632 147.966 312.632 146.968ZM313.158 146.968C313.158 147.651 313.736 148.229 314.419 148.229C315.102 148.229 315.68 147.651 315.68 146.968C315.68 146.285 315.102 145.707 314.419 145.707C313.736 145.759 313.158 146.285 313.158 146.968Z" fill="#8BF6F1"/>
<path d="M289.562 171.772C289.562 170.773 290.35 169.985 291.349 169.985C292.347 169.985 293.135 170.773 293.135 171.772C293.135 172.77 292.347 173.558 291.349 173.558C290.403 173.558 289.562 172.77 289.562 171.772ZM290.088 171.772C290.088 172.455 290.666 173.033 291.349 173.033C292.032 173.033 292.61 172.455 292.61 171.772C292.61 171.088 292.032 170.51 291.349 170.51C290.666 170.563 290.088 171.088 290.088 171.772Z" fill="#8BF6F1"/>
<path d="M283.151 151.329C283.151 150.331 283.939 149.543 284.938 149.543C285.936 149.543 286.724 150.331 286.724 151.329C286.724 152.328 285.936 153.116 284.938 153.116C283.992 153.116 283.151 152.328 283.151 151.329ZM283.676 151.329C283.676 152.012 284.254 152.591 284.938 152.591C285.621 152.591 286.199 152.012 286.199 151.329C286.199 150.646 285.621 150.068 284.938 150.068C284.254 150.068 283.676 150.646 283.676 151.329Z" fill="#8BF6F1"/>
<path d="M331.235 150.594C331.235 149.595 332.023 148.807 333.022 148.807C334.02 148.807 334.808 149.595 334.808 150.594C334.808 151.592 334.02 152.38 333.022 152.38C332.023 152.328 331.235 151.54 331.235 150.594ZM331.76 150.594C331.76 151.277 332.338 151.855 333.022 151.855C333.705 151.855 334.283 151.277 334.283 150.594C334.283 149.91 333.705 149.332 333.022 149.332C332.338 149.332 331.76 149.858 331.76 150.594Z" fill="#8BF6F1"/>
<path d="M297.445 159.317C297.445 156.164 300.02 153.642 303.12 153.642C306.273 153.642 308.796 156.217 308.796 159.317C308.796 162.47 306.221 164.993 303.12 164.993C300.02 164.993 297.445 162.47 297.445 159.317ZM299.021 159.317C299.021 161.577 300.861 163.416 303.12 163.416C305.38 163.416 307.219 161.577 307.219 159.317C307.219 157.057 305.38 155.218 303.12 155.218C300.861 155.218 299.021 157.057 299.021 159.317Z" fill="#8BF6F1"/>
<path d="M326.557 183.543V249.704H337.646V322.119H336.069V251.281H326.557V337.412H324.981V183.543H326.557Z" fill="url(#paint4_linear_3_31436)"/>
<path d="M346.948 148.492V182.702H357.3V244.029H355.724V184.279H346.948V263.21H345.371V148.492H346.948Z" fill="url(#paint5_linear_3_31436)"/>
<path d="M302.332 190.637V164.204H303.909V320.543H302.332V192.214H291.507V255.327H289.93V190.637H302.332Z" fill="url(#paint6_linear_3_31436)"/>
<path d="M262.814 298.945H133.539V217.07C133.539 214.548 135.589 212.499 138.111 212.499H258.242C260.764 212.499 262.814 214.548 262.814 217.07V298.945Z" fill="#99A3B0"/>
<path d="M134.853 297.526V217.07C134.853 215.284 136.271 213.865 138.058 213.865H258.189C259.976 213.865 261.395 215.284 261.395 217.07V297.526H134.853Z" fill="#495375"/>
<path d="M256.375 292.474V218.902L139.922 218.902V292.474H256.375Z" fill="#8BF6F1"/>
<path d="M272.798 298.945H123.449V302.886H272.798V298.945Z" fill="#C7D2D7"/>
<path d="M265.809 306.775H130.491C127.601 306.775 124.973 305.303 123.449 302.833H272.798C271.327 305.303 268.647 306.775 265.809 306.775Z" fill="#99A3B0"/>
<path d="M207.951 300.889H188.349C187.246 300.889 186.405 299.996 186.405 298.945H209.948C209.895 299.996 209.054 300.889 207.951 300.889Z" fill="#AAB4BF"/>
<path d="M207.687 245.238H188.611V252.805H207.687V245.238Z" fill="#CAFFFB"/>
<path d="M195.128 249.389V247.918H187.35V249.389V250.178V266.153H208.896V249.389H195.128Z" fill="#7DD3E9"/>
<path d="M153.034 225.584H149.618V227.423H153.034V225.584Z" fill="white"/>
<path d="M172.688 225.584H156.502V227.423H172.688V225.584Z" fill="white"/>
<path d="M148.2 225.584H146.991V227.423H148.2V225.584Z" fill="white"/>
<path d="M153.034 230.629H149.618V232.468H153.034V230.629Z" fill="white"/>
<path d="M172.688 230.629H156.502V232.468H172.688V230.629Z" fill="white"/>
<path d="M148.2 230.629H146.991V232.468H148.2V230.629Z" fill="white"/>
<path d="M153.034 235.674H149.618V237.513H153.034V235.674Z" fill="white"/>
<path d="M172.688 235.674H156.502V237.513H172.688V235.674Z" fill="white"/>
<path d="M148.2 235.674H146.991V237.513H148.2V235.674Z" fill="white"/>
<path d="M153.034 240.719H149.618V242.558H153.034V240.719Z" fill="white"/>
<path d="M172.688 240.719H156.502V242.558H172.688V240.719Z" fill="white"/>
<path d="M148.2 240.719H146.991V242.558H148.2V240.719Z" fill="white"/>
<path d="M153.087 245.763H144.941V247.603H153.087V245.763Z" fill="white"/>
<path d="M177.26 245.763H156.502V247.603H177.26V245.763Z" fill="white"/>
<path d="M153.086 250.808H148.199V252.648H153.086V250.808Z" fill="white"/>
<path d="M179.467 250.808H156.502V252.647H179.467V250.808Z" fill="white"/>
<path d="M223.452 259.899H220.037V261.739H223.452V259.899Z" fill="white"/>
<path d="M243.107 259.899H226.921V261.739H243.107V259.899Z" fill="white"/>
<path d="M218.618 259.899H217.41V261.739H218.618V259.899Z" fill="white"/>
<path d="M223.452 264.944H220.037V266.784H223.452V264.944Z" fill="white"/>
<path d="M236.065 264.944H226.921V266.784H236.065V264.944Z" fill="white"/>
<path d="M218.618 264.944H217.41V266.784H218.618V264.944Z" fill="white"/>
<path d="M223.452 269.989H220.037V271.829H223.452V269.989Z" fill="white"/>
<path d="M246.89 269.989H226.921V271.829H246.89V269.989Z" fill="white"/>
<path d="M218.618 269.989H217.41V271.829H218.618V269.989Z" fill="white"/>
<path d="M223.452 275.034H220.037V276.873H223.452V275.034Z" fill="white"/>
<path d="M240.216 275.034H226.921V276.873H240.216V275.034Z" fill="white"/>
<path d="M218.618 275.034H217.41V276.873H218.618V275.034Z" fill="white"/>
<path d="M153.034 260.898H149.618V262.737H153.034V260.898Z" fill="white"/>
<path d="M172.688 260.898H156.502V262.737H172.688V260.898Z" fill="white"/>
<path d="M148.2 260.898H146.991V262.737H148.2V260.898Z" fill="white"/>
<path d="M153.086 265.943H144.467V267.782H153.086V265.943Z" fill="white"/>
<path d="M175.42 265.943H156.502V267.782H175.42V265.943Z" fill="white"/>
<path d="M153.034 276.032H149.618V277.872H153.034V276.032Z" fill="white"/>
<path d="M172.688 276.032H156.502V277.872H172.688V276.032Z" fill="white"/>
<path d="M148.2 276.032H146.991V277.872H148.2V276.032Z" fill="white"/>
<path d="M153.034 281.077H149.618V282.917H153.034V281.077Z" fill="white"/>
<path d="M172.688 281.077H156.502V282.917H172.688V281.077Z" fill="white"/>
<path d="M148.2 281.077H146.991V282.917H148.2V281.077Z" fill="white"/>
<path d="M153.034 286.122H149.618V287.962H153.034V286.122Z" fill="white"/>
<path d="M172.688 286.122H156.502V287.962H172.688V286.122Z" fill="white"/>
<path d="M148.2 286.122H146.991V287.962H148.2V286.122Z" fill="white"/>
<path d="M218.881 229H214.729V230.839H218.881V229Z" fill="white"/>
<path d="M243.474 229H221.718V230.839H243.474V229Z" fill="white"/>
<path d="M248.151 229H245.576V230.839H248.151V229Z" fill="white"/>
<path d="M218.881 234.15H214.729V235.989H218.881V234.15Z" fill="white"/>
<path d="M243.474 234.15H221.718V235.989H243.474V234.15Z" fill="white"/>
<path d="M248.151 234.15H245.576V235.989H248.151V234.15Z" fill="white"/>
<path d="M218.881 239.299H214.729V241.139H218.881V239.299Z" fill="white"/>
<path d="M236.537 239.299H221.718V241.139H236.537V239.299Z" fill="white"/>
<path d="M218.881 244.449H214.729V246.289H218.881V244.449Z" fill="white"/>
<path d="M232.596 244.449H221.718V246.289H232.596V244.449Z" fill="white"/>
<path d="M178.417 225.006H177.944V241.612H178.417V225.006Z" fill="white"/>
<path d="M193.761 254.487H193.341V239.772H188.506L184.039 235.306H180.833V234.833H184.249L188.716 239.299H193.761V254.487Z" fill="white"/>
<path d="M183.882 264.103H178.207V263.631H183.724L188.191 259.164H193.551V259.637H188.349L183.882 264.103Z" fill="white"/>
<path d="M187.298 282.233H177.734V281.76H187.088L198.071 270.777V262.579H198.544V270.935L187.298 282.233Z" fill="white"/>
<path d="M202.275 253.698H201.855V241.139L208.161 234.833H211.156V235.306H208.319L202.275 241.349V253.698Z" fill="white"/>
<path d="M214.729 270.305H209.842L203.431 263.893V259.427H203.851V263.683L210 269.832H214.729V270.305Z" fill="white"/>
<path d="M214.992 257.85H214.519V253.225H219.301V253.698H214.992V257.85Z" fill="white"/>
<path d="M249.728 283.495H240.216V283.022H249.308V275.244H249.728V283.495Z" fill="white"/>
<path d="M238.955 253.225H224.609V253.698H238.955V253.225Z" fill="white"/>
<path d="M246.89 253.225H243.58V253.698H246.89V253.225Z" fill="white"/>
<path d="M184.145 222.063C176.21 218.962 169.483 213.602 164.649 206.613C159.867 199.571 157.292 191.373 157.292 182.86V162.68C157.292 161.997 157.765 161.419 158.395 161.262L170.167 158.529V148.492C170.167 147.756 170.692 147.178 171.428 147.073L198.176 143.394V138.77L170.797 142.554C167.802 142.974 165.595 145.496 165.595 148.544V154.956L157.397 156.9C154.664 157.531 152.72 159.948 152.72 162.786V182.965C152.72 202.199 164.544 219.488 182.463 226.477L198.124 232.573V227.633L184.145 222.063Z" fill="#5AA0F1"/>
<path d="M238.903 156.795L230.705 154.85V148.492C230.705 145.496 228.498 142.921 225.503 142.501L198.124 138.717V143.342L224.872 147.02C225.556 147.125 226.134 147.756 226.134 148.439V158.476L237.905 161.209C238.536 161.367 239.009 161.945 239.009 162.628V182.807C239.009 191.321 236.486 199.519 231.651 206.56C226.869 213.602 220.09 218.962 212.155 222.01L198.124 227.476V232.415L213.784 226.319C231.704 219.33 243.528 202.041 243.528 182.807V162.68C243.58 159.843 241.636 157.425 238.903 156.795Z" fill="#4D89E2"/>
<path d="M170.167 148.492V158.529L158.396 161.262C157.765 161.419 157.292 161.997 157.292 162.68V182.86C157.292 191.373 159.814 199.571 164.649 206.613C169.431 213.655 176.21 219.015 184.145 222.063L198.176 227.528V225.058V145.654V143.342L171.428 147.02C170.692 147.125 170.167 147.756 170.167 148.492Z" fill="#4D89E2"/>
<path d="M198.124 225.058V227.528L212.155 222.063C220.09 218.962 226.817 213.602 231.651 206.613C236.434 199.571 239.009 191.373 239.009 182.86V162.68C239.009 161.997 238.536 161.419 237.905 161.262L226.134 158.529V148.492C226.134 147.756 225.608 147.178 224.872 147.073L198.124 143.394V145.707V225.058Z" fill="#3A66B4"/>
<path d="M218.146 179.497H178.207V206.087H218.146V179.497Z" fill="#D6F7EE"/>
<path d="M188.296 175.503H183.251V179.497H188.296V175.503Z" fill="#9DD3E4"/>
<path d="M212.365 175.503H207.32V179.497H212.365V175.503Z" fill="#9DD3E4"/>
<path d="M212.365 171.562C212.365 163.521 205.848 157.005 197.808 157.005C189.768 157.005 183.251 163.521 183.251 171.562V175.503H188.296V171.562C188.296 166.306 192.553 162.05 197.808 162.05C203.063 162.05 207.32 166.306 207.32 171.562V175.503H212.365V171.562Z" fill="#D6F7EE"/>
<path d="M201.592 189.271C201.592 187.379 200.068 185.803 198.124 185.803C196.179 185.803 194.655 187.327 194.655 189.271C194.655 190.48 195.286 191.531 196.232 192.161L194.655 199.729H201.539L199.963 192.161C200.961 191.531 201.592 190.48 201.592 189.271Z" fill="#252735"/>
<path opacity="0.6" d="M312.211 230.996H235.119C233.595 230.996 232.387 229.788 232.387 228.264V202.567C232.387 201.043 233.595 199.834 235.119 199.834H312.211C313.735 199.834 314.944 201.043 314.944 202.567V228.264C314.944 229.735 313.735 230.996 312.211 230.996Z" fill="url(#paint7_linear_3_31436)"/>
<g opacity="0.7">
<path d="M242.371 204.248H239.691V206.087H242.371V204.248Z" fill="white"/>
<path d="M265.809 204.248H244.473V206.087H265.809V204.248Z" fill="white"/>
<path d="M242.371 208.347H239.691V210.186H242.371V208.347Z" fill="white"/>
<path d="M265.809 208.347H244.473V210.186H265.809V208.347Z" fill="white"/>
<path d="M273.008 212.446H244.473V214.285H273.008V212.446Z" fill="white"/>
<path d="M307.588 204.406H279.315V207.611H307.588V204.406Z" fill="white"/>
<path d="M307.588 209.871H279.315V213.077H307.588V209.871Z" fill="white"/>
<path d="M244.473 220.696C244.473 222.01 243.422 223.061 242.108 223.061C240.794 223.061 239.743 222.01 239.743 220.696C239.743 219.383 240.794 218.332 242.108 218.332C243.369 218.279 244.473 219.383 244.473 220.696Z" fill="#8BF6F1"/>
<path d="M252.251 220.697C252.251 222.01 251.2 223.061 249.886 223.061C248.572 223.061 247.521 222.01 247.521 220.697C247.521 219.383 248.572 218.332 249.886 218.332C251.2 218.279 252.251 219.383 252.251 220.697Z" fill="#8BF6F1"/>
<path d="M260.028 220.697C260.028 222.01 258.977 223.061 257.664 223.061C256.35 223.061 255.299 222.01 255.299 220.697C255.299 219.383 256.35 218.332 257.664 218.332C258.977 218.279 260.028 219.383 260.028 220.697Z" fill="#8BF6F1"/>
<path d="M244.474 225.374H239.691V227.213H244.474V225.374Z" fill="white"/>
<path d="M252.251 225.374H247.469V227.213H252.251V225.374Z" fill="white"/>
<path d="M260.081 225.374H255.299V227.213H260.081V225.374Z" fill="white"/>
<path d="M267.859 225.374H263.077V227.213H267.859V225.374Z" fill="white"/>
<path d="M275.688 225.374H270.906V227.213H275.688V225.374Z" fill="white"/>
<path d="M301.439 218.227H290.035V220.066H301.439V218.227Z" fill="white"/>
<path d="M301.439 221.748H290.035V223.587H301.439V221.748Z" fill="white"/>
<path d="M301.439 225.268H290.035V227.108H301.439V225.268Z" fill="white"/>
</g>
<path opacity="0.6" d="M322.038 284.335H250.727C249.203 284.335 247.994 283.127 247.994 281.603V255.905C247.994 254.382 249.203 253.173 250.727 253.173H322.091C323.615 253.173 324.823 254.382 324.823 255.905V281.603C324.771 283.127 323.562 284.335 322.038 284.335Z" fill="url(#paint8_linear_3_31436)"/>
<g opacity="0.7">
<path d="M271.799 277.977H262.55V277.504H271.326V268.728H271.799V277.977Z" fill="white"/>
<path d="M253.775 268.728H253.302V259.531H262.551V259.952H253.775V268.728Z" fill="white"/>
<path d="M267.438 263.893H257.664V273.668H267.438V263.893Z" fill="white"/>
<path d="M289.194 258.691H278.053V260.53H289.194V258.691Z" fill="white"/>
<path d="M301.543 262.212H278.053V264.051H301.543V262.212Z" fill="white"/>
<path d="M301.543 265.733H278.053V267.572H301.543V265.733Z" fill="white"/>
<path d="M295.552 269.201H278.053V271.04H295.552V269.201Z" fill="white"/>
<path d="M280.785 273.983H278.053V275.349H280.785V273.983Z" fill="white"/>
<path d="M293.45 273.983H282.835V275.349H293.45V273.983Z" fill="white"/>
<path d="M304.906 273.983H295.868V275.349H304.906V273.983Z" fill="white"/>
<path d="M280.785 277.241H278.053V278.607H280.785V277.241Z" fill="white"/>
<path d="M293.45 277.241H282.835V278.607H293.45V277.241Z" fill="white"/>
<path d="M301.543 277.241H295.868V278.607H301.543V277.241Z" fill="white"/>
<path d="M308.795 257.64H308.322V279.869H308.795V257.64Z" fill="white"/>
<path d="M312.474 259.058H311.003V259.952H312.474V259.058Z" fill="white"/>
<path d="M319.411 259.058H314.208V259.952H319.411V259.058Z" fill="white"/>
<path d="M312.474 261.108H311.003V262.001H312.474V261.108Z" fill="white"/>
<path d="M319.411 261.108H314.208V262.001H319.411V261.108Z" fill="white"/>
<path d="M312.474 263.157H311.003V264.051H312.474V263.157Z" fill="white"/>
<path d="M319.411 263.157H314.208V264.051H319.411V263.157Z" fill="white"/>
<path d="M312.474 267.257H311.003V268.15H312.474V267.257Z" fill="white"/>
<path d="M319.411 267.257H314.208V268.15H319.411V267.257Z" fill="white"/>
<path d="M312.474 269.306H311.003V270.199H312.474V269.306Z" fill="white"/>
<path d="M319.411 269.306H314.208V270.199H319.411V269.306Z" fill="white"/>
<path d="M312.474 271.355H311.003V272.249H312.474V271.355Z" fill="white"/>
<path d="M319.411 271.355H314.208V272.249H319.411V271.355Z" fill="white"/>
<path d="M312.474 275.507H311.003V276.4H312.474V275.507Z" fill="white"/>
<path d="M319.411 275.507H314.208V276.4H319.411V275.507Z" fill="white"/>
<path d="M312.474 277.556H311.003V278.45H312.474V277.556Z" fill="white"/>
<path d="M319.411 277.556H314.208V278.45H319.411V277.556Z" fill="white"/>
</g>
<path opacity="0.6" d="M85.7706 245.606H148.832C150.513 245.606 151.879 244.239 151.879 242.558V208.347C151.879 206.665 150.513 205.299 148.832 205.299H85.7706C84.089 205.299 82.7227 206.665 82.7227 208.347V242.558C82.7227 244.239 84.089 245.606 85.7706 245.606Z" fill="url(#paint9_linear_3_31436)"/>
<g opacity="0.8">
<path d="M99.9579 223.954C102.599 223.954 104.74 221.813 104.74 219.172C104.74 216.531 102.599 214.39 99.9579 214.39C97.3168 214.39 95.1758 216.531 95.1758 219.172C95.1758 221.813 97.3168 223.954 99.9579 223.954Z" fill="white"/>
<path d="M107.053 236.304H92.8115V232.52C92.8115 228.579 96.0171 225.426 99.9059 225.426C103.847 225.426 107 228.632 107 232.52V236.304H107.053Z" fill="white"/>
<path d="M90.3416 221.59H89.8687V211.71H99.1176V212.183H90.3416V221.59Z" fill="white"/>
<path d="M109.891 239.404H100.642V238.931H109.418V229.525H109.891V239.404Z" fill="white"/>
<path d="M96.5959 238.932H90.0796V239.404H96.5959V238.932Z" fill="white"/>
<path d="M109.891 214.39H109.418V212.183H103.059V211.71H109.891V214.39Z" fill="white"/>
<path d="M109.891 217.596H109.418V220.276H109.891V217.596Z" fill="white"/>
<path d="M130.018 211.973H114.673V213.812H130.018V211.973Z" fill="white"/>
<path d="M144.68 216.387H114.673V218.226H144.68V216.387Z" fill="white"/>
<path d="M136.85 220.066H114.673V221.905H136.85V220.066Z" fill="white"/>
<path d="M116.723 225.584H114.673V227.423H116.723V225.584Z" fill="#8BF6F1"/>
<path d="M129.02 225.584H118.982V227.423H129.02V225.584Z" fill="white"/>
<path d="M116.723 229.315H114.673V231.154H116.723V229.315Z" fill="#8BF6F1"/>
<path d="M133.224 229.315H118.982V231.154H133.224V229.315Z" fill="white"/>
<path d="M116.723 233.046H114.673V234.885H116.723V233.046Z" fill="#8BF6F1"/>
<path d="M140.791 233.046H118.982V234.885H140.791V233.046Z" fill="white"/>
<path d="M116.723 236.777H114.673V238.616H116.723V236.777Z" fill="#8BF6F1"/>
<path d="M136.429 236.777H118.982V238.616H136.429V236.777Z" fill="white"/>
</g>
<path opacity="0.6" d="M74.2616 288.855H139.95C141.474 288.855 142.683 287.646 142.683 286.122V267.677C142.683 266.153 141.474 264.944 139.95 264.944H74.2616C72.7376 264.944 71.5289 266.153 71.5289 267.677V286.122C71.4764 287.646 72.7376 288.855 74.2616 288.855Z" fill="url(#paint10_linear_3_31436)"/>
<g opacity="0.8">
<path d="M85.7703 269.726H77.0469V278.45H85.7703V269.726Z" fill="white"/>
<path d="M98.0143 268.886H94.2832V270.725H98.0143V268.886Z" fill="white"/>
<path d="M111.731 268.886H101.168V270.725H111.731V268.886Z" fill="white"/>
<path d="M137.112 268.885H130.281V270.725H137.112V268.885Z" fill="#8BF6F1"/>
<path d="M137.112 272.406H130.281V274.246H137.112V272.406Z" fill="#8BF6F1"/>
<path d="M137.112 275.927H130.281V277.767H137.112V275.927Z" fill="#8BF6F1"/>
<path d="M137.112 279.448H130.281V281.288H137.112V279.448Z" fill="#8BF6F1"/>
<path d="M137.112 282.969H130.281V284.809H137.112V282.969Z" fill="#8BF6F1"/>
<path d="M118.089 272.406H94.2832V274.246H118.089V272.406Z" fill="white"/>
<path d="M112.991 275.98H94.2832V277.819H112.991V275.98Z" fill="white"/>
<path d="M119.875 279.606H94.2832V281.445H119.875V279.606Z" fill="white"/>
<path d="M122.503 283.179H94.2832V285.019H122.503V283.179Z" fill="white"/>
<path d="M91.1312 268.413H90.6582V285.439H91.1312V268.413Z" fill="white"/>
<path d="M126.865 268.413H126.392V285.439H126.865V268.413Z" fill="white"/>
</g>
<path d="M143.891 141.502C141.369 141.502 139.267 139.453 139.267 136.878C139.267 134.303 141.316 132.254 143.891 132.254C146.414 132.254 148.516 134.303 148.516 136.878C148.516 139.453 146.414 141.502 143.891 141.502ZM143.891 132.832C141.631 132.832 139.792 134.671 139.792 136.931C139.792 139.19 141.631 141.03 143.891 141.03C146.151 141.03 147.99 139.19 147.99 136.931C147.937 134.671 146.151 132.832 143.891 132.832Z" fill="#8BF6F1"/>
<path d="M155.294 137.036C153.981 137.036 152.93 135.985 152.93 134.671C152.93 133.357 153.981 132.306 155.294 132.306C156.608 132.306 157.659 133.357 157.659 134.671C157.659 135.985 156.608 137.036 155.294 137.036ZM155.294 132.832C154.296 132.832 153.455 133.672 153.455 134.671C153.455 135.669 154.296 136.51 155.294 136.51C156.293 136.51 157.134 135.669 157.134 134.671C157.134 133.672 156.345 132.832 155.294 132.832Z" fill="#8BF6F1"/>
<path d="M243.738 141.818C242.687 141.818 241.846 140.977 241.846 139.926C241.846 138.875 242.687 138.034 243.738 138.034C244.789 138.034 245.629 138.875 245.629 139.926C245.629 140.977 244.789 141.818 243.738 141.818ZM243.738 138.612C243.002 138.612 242.371 139.19 242.371 139.979C242.371 140.767 242.949 141.345 243.738 141.345C244.473 141.345 245.104 140.767 245.104 139.979C245.104 139.19 244.526 138.612 243.738 138.612Z" fill="#8BF6F1"/>
<path d="M252.513 134.934C251.042 134.934 249.886 133.778 249.886 132.306C249.886 130.835 251.042 129.679 252.513 129.679C253.985 129.679 255.141 130.835 255.141 132.306C255.141 133.778 253.985 134.934 252.513 134.934ZM252.513 130.204C251.357 130.204 250.411 131.15 250.411 132.306C250.411 133.462 251.357 134.408 252.513 134.408C253.669 134.408 254.615 133.462 254.615 132.306C254.615 131.15 253.669 130.204 252.513 130.204Z" fill="#8BF6F1"/>
<path d="M255.299 143.762C254.458 143.762 253.722 143.079 253.722 142.186C253.722 141.292 254.405 140.609 255.299 140.609C256.14 140.609 256.875 141.292 256.875 142.186C256.875 143.079 256.14 143.762 255.299 143.762ZM255.299 141.135C254.721 141.135 254.248 141.608 254.248 142.186C254.248 142.764 254.721 143.237 255.299 143.237C255.877 143.237 256.35 142.764 256.35 142.186C256.35 141.608 255.877 141.135 255.299 141.135Z" fill="#8BF6F1"/>
<path d="M199.963 130.204C198.807 130.204 197.861 129.258 197.861 128.102C197.861 126.946 198.807 126 199.963 126C201.119 126 202.065 126.946 202.065 128.102C202.065 129.258 201.119 130.204 199.963 130.204ZM199.963 126.526C199.07 126.526 198.386 127.209 198.386 128.102C198.386 128.996 199.07 129.679 199.963 129.679C200.856 129.679 201.539 128.996 201.539 128.102C201.539 127.209 200.856 126.526 199.963 126.526Z" fill="#8BF6F1"/>
<path d="M175.184 47.2959C175.184 49.5024 173.688 50.7366 171.145 50.7366H165.872V43.7057H171.033C173.576 43.7057 175.184 45.052 175.184 47.2959ZM174.548 36.413C174.548 38.5447 173.127 39.6666 170.659 39.6666H165.872V33.1219H170.659C173.127 33.1219 174.548 34.3186 174.548 36.413ZM180.495 47.9317C180.495 44.865 178.4 42.1349 175.446 41.6113C177.989 40.7886 179.896 38.8065 179.896 35.6276C179.896 31.7381 176.867 28.8959 171.407 28.8959H160.636V55H171.893C177.316 55 180.495 52.0829 180.495 47.9317ZM183.396 41.9105C183.396 49.7268 189.118 55.2244 196.635 55.2244C202.432 55.2244 207.144 52.1577 208.902 46.7723H202.881C201.646 49.3154 199.402 50.5496 196.598 50.5496C192.035 50.5496 188.781 47.1837 188.781 41.9105C188.781 36.5999 192.035 33.2715 196.598 33.2715C199.402 33.2715 201.646 34.5056 202.881 37.0113H208.902C207.144 31.6633 202.432 28.5593 196.635 28.5593C189.118 28.5593 183.396 34.0942 183.396 41.9105ZM231.101 55H236.636L227.249 28.8585H221.153L211.766 55H217.263L218.983 50.026H229.38L231.101 55ZM227.959 45.8374H220.405L224.182 34.917L227.959 45.8374Z" fill="white"/>
<path d="M84.6804 77.2C84.6804 83.052 88.9644 87.168 94.5924 87.168C98.9324 87.168 102.46 84.872 103.776 80.84H99.2684C98.3444 82.744 96.6644 83.668 94.5644 83.668C91.1484 83.668 88.7124 81.148 88.7124 77.2C88.7124 73.224 91.1484 70.732 94.5644 70.732C96.6644 70.732 98.3444 71.656 99.2684 73.532H103.776C102.46 69.528 98.9324 67.204 94.5924 67.204C88.9644 67.204 84.6804 71.348 84.6804 77.2ZM112.137 80.196V87H116.057V80.196L122.665 67.456H118.297L114.125 76.388L109.925 67.456H105.501L112.137 80.196ZM135.817 81.232C135.817 82.884 134.697 83.808 132.793 83.808H128.845V78.544H132.709C134.613 78.544 135.817 79.552 135.817 81.232ZM135.341 73.084C135.341 74.68 134.277 75.52 132.429 75.52H128.845V70.62H132.429C134.277 70.62 135.341 71.516 135.341 73.084ZM139.793 81.708C139.793 79.412 138.225 77.368 136.013 76.976C137.917 76.36 139.345 74.876 139.345 72.496C139.345 69.584 137.077 67.456 132.989 67.456H124.925V87H133.353C137.413 87 139.793 84.816 139.793 81.708ZM154.258 67.428H142.918V87H154.258V83.808H146.838V78.628H153.418V75.52H146.838V70.62H154.258V67.428ZM168.18 73.532C168.18 75.296 167.2 76.444 165.016 76.444H161.74V70.704H165.016C167.2 70.704 168.18 71.796 168.18 73.532ZM157.82 67.456V87H161.74V79.384H163.588L167.9 87H172.436L167.76 79.076C170.896 78.236 172.212 75.828 172.212 73.448C172.212 70.172 169.86 67.456 165.156 67.456H157.82ZM196.093 81.344C196.093 74.456 186.069 76.64 186.069 72.72C186.069 71.124 187.217 70.368 188.757 70.424C190.437 70.452 191.473 71.46 191.557 72.748H195.869C195.617 69.22 192.873 67.176 188.869 67.176C184.837 67.176 181.981 69.304 181.981 72.832C181.953 79.916 192.033 77.368 192.033 81.596C192.033 82.996 190.941 83.976 189.093 83.976C187.273 83.976 186.237 82.94 186.125 81.372H181.925C181.981 85.068 185.117 87.196 189.177 87.196C193.629 87.196 196.093 84.424 196.093 81.344ZM210.832 67.428H199.492V87H210.832V83.808H203.412V78.628H209.992V75.52H203.412V70.62H210.832V67.428ZM213.442 77.2C213.442 83.052 217.726 87.168 223.354 87.168C227.694 87.168 231.222 84.872 232.538 80.84H228.03C227.106 82.744 225.426 83.668 223.326 83.668C219.91 83.668 217.474 81.148 217.474 77.2C217.474 73.224 219.91 70.732 223.326 70.732C225.426 70.732 227.106 71.656 228.03 73.532H232.538C231.222 69.528 227.694 67.204 223.354 67.204C217.726 67.204 213.442 71.348 213.442 77.2ZM235.83 79.524C235.83 84.676 239.358 87.196 243.642 87.196C247.926 87.196 251.622 84.676 251.622 79.524V67.456H247.674V79.552C247.674 82.24 246.218 83.64 243.698 83.64C241.206 83.64 239.75 82.24 239.75 79.552V67.456H235.83V79.524ZM265.77 73.532C265.77 75.296 264.79 76.444 262.606 76.444H259.33V70.704H262.606C264.79 70.704 265.77 71.796 265.77 73.532ZM255.41 67.456V87H259.33V79.384H261.178L265.49 87H270.026L265.35 79.076C268.486 78.236 269.802 75.828 269.802 73.448C269.802 70.172 267.45 67.456 262.746 67.456H255.41ZM273.347 87H277.267V67.456H273.347V87ZM280.104 70.62H285.312V87H289.232V70.62H294.44V67.456H280.104V70.62ZM302.312 80.196V87H306.232V80.196L312.84 67.456H308.472L304.3 76.388L300.1 67.456H295.676L302.312 80.196Z" fill="white"/>
<line x1="170" y1="98.8141" x2="226.753" y2="98.8141" stroke="white" stroke-width="0.371719"/>
<defs>
<linearGradient id="paint0_linear_3_31436" x1="33" y1="-43" x2="448.364" y2="275.768" gradientUnits="userSpaceOnUse">
<stop stop-color="#422C4F"/>
<stop offset="0.12" stop-color="#362A44"/>
<stop offset="0.3153" stop-color="#292839"/>
<stop offset="0.4973" stop-color="#252735"/>
<stop offset="0.71" stop-color="#272736"/>
<stop offset="0.8256" stop-color="#2F2639"/>
<stop offset="0.9176" stop-color="#3D253F"/>
<stop offset="0.9971" stop-color="#502347"/>
<stop offset="1" stop-color="#512347"/>
</linearGradient>
<linearGradient id="paint1_linear_3_31436" x1="64.9737" y1="183.559" x2="64.9737" y2="337.429" gradientUnits="userSpaceOnUse">
<stop stop-color="#8BF6F1"/>
<stop offset="0.8485" stop-color="#8BF6F1" stop-opacity="0"/>
</linearGradient>
<linearGradient id="paint2_linear_3_31436" x1="44.9551" y1="148.509" x2="44.9551" y2="263.212" gradientUnits="userSpaceOnUse">
<stop stop-color="#8BF6F1"/>
<stop offset="0.8823" stop-color="#8BF6F1" stop-opacity="0"/>
</linearGradient>
<linearGradient id="paint3_linear_3_31436" x1="99.335" y1="164.214" x2="99.335" y2="320.525" gradientUnits="userSpaceOnUse">
<stop stop-color="#8BF6F1"/>
<stop offset="0.8652" stop-color="#8BF6F1" stop-opacity="0"/>
</linearGradient>
<linearGradient id="paint4_linear_3_31436" x1="331.305" y1="183.559" x2="331.305" y2="337.429" gradientUnits="userSpaceOnUse">
<stop stop-color="#8BF6F1"/>
<stop offset="0.8485" stop-color="#8BF6F1" stop-opacity="0"/>
</linearGradient>
<linearGradient id="paint5_linear_3_31436" x1="351.325" y1="148.509" x2="351.325" y2="263.212" gradientUnits="userSpaceOnUse">
<stop stop-color="#8BF6F1"/>
<stop offset="0.8823" stop-color="#8BF6F1" stop-opacity="0"/>
</linearGradient>
<linearGradient id="paint6_linear_3_31436" x1="296.945" y1="164.214" x2="296.945" y2="320.525" gradientUnits="userSpaceOnUse">
<stop stop-color="#8BF6F1"/>
<stop offset="0.8652" stop-color="#8BF6F1" stop-opacity="0"/>
</linearGradient>
<linearGradient id="paint7_linear_3_31436" x1="232.364" y1="215.392" x2="314.944" y2="215.392" gradientUnits="userSpaceOnUse">
<stop stop-color="#6C6FC3"/>
<stop offset="0.3278" stop-color="#7C70B8"/>
<stop offset="0.969" stop-color="#A7719B"/>
<stop offset="1" stop-color="#A97199"/>
</linearGradient>
<linearGradient id="paint8_linear_3_31436" x1="247.949" y1="268.748" x2="324.794" y2="268.748" gradientUnits="userSpaceOnUse">
<stop stop-color="#6C6FC3"/>
<stop offset="0.3278" stop-color="#7C70B8"/>
<stop offset="0.969" stop-color="#A7719B"/>
<stop offset="1" stop-color="#A97199"/>
</linearGradient>
<linearGradient id="paint9_linear_3_31436" x1="151.88" y1="225.424" x2="82.7138" y2="225.424" gradientUnits="userSpaceOnUse">
<stop stop-color="#A97199"/>
<stop offset="0.0309703" stop-color="#A7719B"/>
<stop offset="0.6722" stop-color="#7C70B8"/>
<stop offset="1" stop-color="#6C6FC3"/>
</linearGradient>
<linearGradient id="paint10_linear_3_31436" x1="142.672" y1="276.888" x2="71.4856" y2="276.888" gradientUnits="userSpaceOnUse">
<stop stop-color="#A97199"/>
<stop offset="0.0309703" stop-color="#A7719B"/>
<stop offset="0.6722" stop-color="#7C70B8"/>
<stop offset="1" stop-color="#6C6FC3"/>
</linearGradient>
</defs>
</svg>
