<svg width="617" height="369" viewBox="0 0 617 369" fill="none" xmlns="http://www.w3.org/2000/svg">
<rect y="66" width="617" height="75" fill="white"/>
<path d="M24.6 106.94C26.08 106.94 27.24 105.8 27.24 104.34C27.24 102.86 26.08 101.72 24.6 101.72C23.16 101.72 22 102.86 22 104.34C22 105.8 23.16 106.94 24.6 106.94ZM41.1089 105.92C41.1089 109.46 43.5889 111.14 46.5089 111.14C49.4089 111.14 51.9689 109.46 51.9689 105.92V97.1H49.6889V105.96C49.6889 108.12 48.4689 109.14 46.5289 109.14C44.6089 109.14 43.3889 108.12 43.3889 105.96V97.1H41.1089V105.92ZM62.7575 111H65.0175V104.5C65.0175 101.42 63.0775 99.8 60.4975 99.8C59.1775 99.8 57.9575 100.34 57.2175 101.24V99.98H54.9375V111H57.2175V104.84C57.2175 102.82 58.3175 101.78 59.9975 101.78C61.6575 101.78 62.7575 102.82 62.7575 104.84V111ZM67.9258 111H70.2058V99.98H67.9258V111ZM69.0858 98.52C69.8858 98.52 70.5258 97.88 70.5258 97.06C70.5258 96.24 69.8858 95.6 69.0858 95.6C68.2658 95.6 67.6258 96.24 67.6258 97.06C67.6258 97.88 68.2658 98.52 69.0858 98.52ZM78.8992 111H81.4792L77.9192 105.42L81.4792 99.98H79.0992L76.8592 103.72L74.4792 99.98H71.8992L75.4592 105.58L71.8992 111H74.2792L76.5192 107.26L78.8992 111ZM101.815 104.02C101.815 99.86 98.675 96.92 94.715 96.92C90.795 96.92 87.615 99.86 87.615 104.02C87.615 108.2 90.795 111.14 94.715 111.14C98.675 111.14 101.815 108.2 101.815 104.02ZM89.955 104.02C89.955 100.88 91.955 98.92 94.715 98.92C97.475 98.92 99.475 100.88 99.475 104.02C99.475 107.16 97.475 109.16 94.715 109.16C91.955 109.16 89.955 107.16 89.955 104.02ZM106.339 101.6V99.98H104.059V116.24H106.339V109.4C107.059 110.26 108.359 111.18 110.179 111.18C113.079 111.18 115.359 108.84 115.359 105.44C115.359 102.04 113.079 99.8 110.179 99.8C108.379 99.8 107.039 100.68 106.339 101.6ZM113.039 105.44C113.039 107.82 111.399 109.2 109.679 109.2C107.979 109.2 106.339 107.86 106.339 105.48C106.339 103.12 107.979 101.78 109.679 101.78C111.399 101.78 113.039 103.06 113.039 105.44ZM122.253 101.72C123.953 101.72 125.293 102.8 125.333 104.5H119.233C119.473 102.76 120.713 101.72 122.253 101.72ZM127.413 107.72H124.953C124.533 108.58 123.753 109.26 122.353 109.26C120.673 109.26 119.373 108.16 119.213 106.34H127.633C127.693 105.96 127.713 105.6 127.713 105.22C127.713 101.98 125.493 99.8 122.353 99.8C119.093 99.8 116.853 102.02 116.853 105.48C116.853 108.94 119.193 111.18 122.353 111.18C125.053 111.18 126.793 109.64 127.413 107.72ZM132.237 105.2C132.237 102.86 133.277 102.16 134.957 102.16H135.537V99.8C133.977 99.8 132.877 100.48 132.237 101.58V99.98H129.957V111H132.237V105.2ZM136.873 105.44C136.873 108.84 139.173 111.18 142.033 111.18C143.873 111.18 145.193 110.3 145.893 109.36V111H148.193V99.98H145.893V101.58C145.213 100.68 143.933 99.8 142.073 99.8C139.173 99.8 136.873 102.04 136.873 105.44ZM145.893 105.48C145.893 107.86 144.273 109.2 142.553 109.2C140.853 109.2 139.213 107.82 139.213 105.44C139.213 103.06 140.853 101.78 142.553 101.78C144.273 101.78 145.893 103.12 145.893 105.48ZM151.548 107.94C151.548 110.18 152.768 111 154.728 111H156.528V109.1H155.128C154.168 109.1 153.848 108.76 153.848 107.94V101.84H156.528V99.98H153.848V97.24H151.548V99.98H150.248V101.84H151.548V107.94ZM158.629 111H160.909V99.98H158.629V111ZM159.789 98.52C160.589 98.52 161.229 97.88 161.229 97.06C161.229 96.24 160.589 95.6 159.789 95.6C158.969 95.6 158.329 96.24 158.329 97.06C158.329 97.88 158.969 98.52 159.789 98.52ZM171.722 111H173.982V104.5C173.982 101.42 172.042 99.8 169.462 99.8C168.142 99.8 166.922 100.34 166.182 101.24V99.98H163.902V111H166.182V104.84C166.182 102.82 167.282 101.78 168.962 101.78C170.622 101.78 171.722 102.82 171.722 104.84V111ZM176.131 105.44C176.131 108.84 178.431 111.18 181.331 111.18C183.131 111.18 184.451 110.28 185.151 109.34V111.18C185.151 113.38 183.831 114.46 182.071 114.46C180.491 114.46 179.271 113.68 178.931 112.54H176.671C176.951 114.98 179.131 116.44 182.071 116.44C185.511 116.44 187.451 114.18 187.451 111.18V99.98H185.151V101.58C184.471 100.64 183.131 99.8 181.331 99.8C178.431 99.8 176.131 102.04 176.131 105.44ZM185.151 105.48C185.151 107.86 183.531 109.2 181.811 109.2C180.111 109.2 178.471 107.82 178.471 105.44C178.471 103.06 180.111 101.78 181.811 101.78C183.531 101.78 185.151 103.12 185.151 105.48ZM205.021 107.06C205.021 101.98 197.661 103.94 197.661 100.8C197.661 99.46 198.681 98.82 200.001 98.86C201.441 98.9 202.261 99.76 202.341 100.7H204.861C204.661 98.32 202.781 96.92 200.121 96.92C197.281 96.92 195.341 98.44 195.341 100.88C195.341 106 202.721 103.82 202.721 107.18C202.721 108.36 201.821 109.22 200.221 109.22C198.641 109.22 197.841 108.3 197.741 107.16H195.301C195.301 109.62 197.441 111.14 200.221 111.14C203.321 111.14 205.021 109.14 205.021 107.06ZM212.051 108.38L208.951 99.98H206.411L210.751 110.82L208.511 116.18H210.871L217.631 99.98H215.271L212.051 108.38ZM227.572 107.92C227.452 103.94 221.232 105.18 221.232 102.96C221.232 102.22 221.872 101.72 223.092 101.72C224.332 101.72 225.072 102.38 225.152 103.34H227.432C227.312 101.14 225.672 99.8 223.172 99.8C220.572 99.8 218.932 101.22 218.932 102.98C218.932 107.02 225.332 105.78 225.332 107.94C225.332 108.7 224.632 109.26 223.312 109.26C222.052 109.26 221.192 108.52 221.112 107.62H218.752C218.852 109.62 220.712 111.18 223.352 111.18C225.952 111.18 227.572 109.78 227.572 107.92ZM230.395 107.94C230.395 110.18 231.615 111 233.575 111H235.375V109.1H233.975C233.015 109.1 232.695 108.76 232.695 107.94V101.84H235.375V99.98H232.695V97.24H230.395V99.98H229.095V101.84H230.395V107.94ZM242.117 101.72C243.817 101.72 245.157 102.8 245.197 104.5H239.097C239.337 102.76 240.577 101.72 242.117 101.72ZM247.277 107.72H244.817C244.397 108.58 243.617 109.26 242.217 109.26C240.537 109.26 239.237 108.16 239.077 106.34H247.497C247.557 105.96 247.577 105.6 247.577 105.22C247.577 101.98 245.357 99.8 242.217 99.8C238.957 99.8 236.717 102.02 236.717 105.48C236.717 108.94 239.057 111.18 242.217 111.18C244.917 111.18 246.657 109.64 247.277 107.72ZM265.44 111H267.7V104.5C267.7 101.42 265.74 99.8 263.16 99.8C261.56 99.8 260 100.64 259.32 101.98C258.56 100.54 257.1 99.8 255.36 99.8C254.04 99.8 252.84 100.34 252.1 101.24V99.98H249.82V111H252.1V104.84C252.1 102.82 253.2 101.78 254.88 101.78C256.54 101.78 257.64 102.82 257.64 104.84V111H259.9V104.84C259.9 102.82 261 101.78 262.68 101.78C264.34 101.78 265.44 102.82 265.44 104.84V111ZM275.037 105.44C275.037 108.84 277.337 111.18 280.197 111.18C282.037 111.18 283.357 110.3 284.057 109.36V111H286.357V99.98H284.057V101.58C283.377 100.68 282.097 99.8 280.237 99.8C277.337 99.8 275.037 102.04 275.037 105.44ZM284.057 105.48C284.057 107.86 282.437 109.2 280.717 109.2C279.017 109.2 277.377 107.82 277.377 105.44C277.377 103.06 279.017 101.78 280.717 101.78C282.437 101.78 284.057 103.12 284.057 105.48ZM297.172 111H299.432V104.5C299.432 101.42 297.492 99.8 294.912 99.8C293.592 99.8 292.372 100.34 291.632 101.24V99.98H289.352V111H291.632V104.84C291.632 102.82 292.732 101.78 294.412 101.78C296.072 101.78 297.172 102.82 297.172 104.84V111ZM301.58 105.44C301.58 108.84 303.88 111.18 306.78 111.18C308.58 111.18 309.9 110.34 310.6 109.34V111H312.9V96.2H310.6V101.52C309.76 100.48 308.24 99.8 306.8 99.8C303.88 99.8 301.58 102.04 301.58 105.44ZM310.6 105.48C310.6 107.86 308.98 109.2 307.26 109.2C305.56 109.2 303.92 107.82 303.92 105.44C303.92 103.06 305.56 101.78 307.26 101.78C308.98 101.78 310.6 103.12 310.6 105.48ZM330.47 107.06C330.47 101.98 323.11 103.94 323.11 100.8C323.11 99.46 324.13 98.82 325.45 98.86C326.89 98.9 327.71 99.76 327.79 100.7H330.31C330.11 98.32 328.23 96.92 325.57 96.92C322.73 96.92 320.79 98.44 320.79 100.88C320.79 106 328.17 103.82 328.17 107.18C328.17 108.36 327.27 109.22 325.67 109.22C324.09 109.22 323.29 108.3 323.19 107.16H320.75C320.75 109.62 322.89 111.14 325.67 111.14C328.77 111.14 330.47 109.14 330.47 107.06ZM333.16 111H335.44V104.84C335.44 102.82 336.54 101.78 338.22 101.78C339.88 101.78 340.98 102.82 340.98 104.84V111H343.24V104.5C343.24 101.42 341.32 99.8 338.86 99.8C337.44 99.8 336.2 100.34 335.44 101.26V96.2H333.16V111ZM350.788 101.72C352.488 101.72 353.828 102.8 353.868 104.5H347.768C348.008 102.76 349.248 101.72 350.788 101.72ZM355.948 107.72H353.488C353.068 108.58 352.288 109.26 350.888 109.26C349.208 109.26 347.908 108.16 347.748 106.34H356.168C356.228 105.96 356.248 105.6 356.248 105.22C356.248 101.98 354.028 99.8 350.888 99.8C347.628 99.8 345.388 102.02 345.388 105.48C345.388 108.94 347.728 111.18 350.888 111.18C353.588 111.18 355.328 109.64 355.948 107.72ZM358.492 111H360.772V96.2H358.492V111ZM363.766 111H366.046V96.2H363.766V111ZM376.514 103.5V98.96H379.034C380.814 98.96 381.614 99.8 381.614 101.24C381.614 102.64 380.814 103.5 379.034 103.5H376.514ZM383.954 101.24C383.954 98.98 382.334 97.1 379.034 97.1H374.234V111H376.514V105.36H379.034C382.654 105.36 383.954 103.22 383.954 101.24ZM388.409 105.2C388.409 102.86 389.449 102.16 391.129 102.16H391.709V99.8C390.149 99.8 389.049 100.48 388.409 101.58V99.98H386.129V111H388.409V105.2ZM404.305 105.48C404.305 102.02 401.825 99.8 398.685 99.8C395.545 99.8 393.065 102.02 393.065 105.48C393.065 108.94 395.445 111.18 398.585 111.18C401.745 111.18 404.305 108.94 404.305 105.48ZM395.385 105.48C395.385 102.98 396.925 101.78 398.645 101.78C400.345 101.78 401.965 102.98 401.965 105.48C401.965 107.98 400.285 109.2 398.585 109.2C396.865 109.2 395.385 107.98 395.385 105.48ZM405.799 105.44C405.799 108.84 408.099 111.18 410.999 111.18C412.799 111.18 414.119 110.28 414.819 109.34V111.18C414.819 113.38 413.499 114.46 411.739 114.46C410.159 114.46 408.939 113.68 408.599 112.54H406.339C406.619 114.98 408.799 116.44 411.739 116.44C415.179 116.44 417.119 114.18 417.119 111.18V99.98H414.819V101.58C414.139 100.64 412.799 99.8 410.999 99.8C408.099 99.8 405.799 102.04 405.799 105.44ZM414.819 105.48C414.819 107.86 413.199 109.2 411.479 109.2C409.779 109.2 408.139 107.82 408.139 105.44C408.139 103.06 409.779 101.78 411.479 101.78C413.199 101.78 414.819 103.12 414.819 105.48ZM422.393 105.2C422.393 102.86 423.433 102.16 425.113 102.16H425.693V99.8C424.133 99.8 423.033 100.48 422.393 101.58V99.98H420.113V111H422.393V105.2ZM427.029 105.44C427.029 108.84 429.329 111.18 432.189 111.18C434.029 111.18 435.349 110.3 436.049 109.36V111H438.349V99.98H436.049V101.58C435.369 100.68 434.089 99.8 432.229 99.8C429.329 99.8 427.029 102.04 427.029 105.44ZM436.049 105.48C436.049 107.86 434.429 109.2 432.709 109.2C431.009 109.2 429.369 107.82 429.369 105.44C429.369 103.06 431.009 101.78 432.709 101.78C434.429 101.78 436.049 103.12 436.049 105.48ZM456.964 111H459.224V104.5C459.224 101.42 457.264 99.8 454.684 99.8C453.084 99.8 451.524 100.64 450.844 101.98C450.084 100.54 448.624 99.8 446.884 99.8C445.564 99.8 444.364 100.34 443.624 101.24V99.98H441.344V111H443.624V104.84C443.624 102.82 444.724 101.78 446.404 101.78C448.064 101.78 449.164 102.82 449.164 104.84V111H451.424V104.84C451.424 102.82 452.524 101.78 454.204 101.78C455.864 101.78 456.964 102.82 456.964 104.84V111ZM477.745 111H480.005V104.5C480.005 101.42 478.045 99.8 475.465 99.8C473.865 99.8 472.305 100.64 471.625 101.98C470.865 100.54 469.405 99.8 467.665 99.8C466.345 99.8 465.145 100.34 464.405 101.24V99.98H462.125V111H464.405V104.84C464.405 102.82 465.505 101.78 467.185 101.78C468.845 101.78 469.945 102.82 469.945 104.84V111H472.205V104.84C472.205 102.82 473.305 101.78 474.985 101.78C476.645 101.78 477.745 102.82 477.745 104.84V111ZM482.906 111H485.186V99.98H482.906V111ZM484.066 98.52C484.866 98.52 485.506 97.88 485.506 97.06C485.506 96.24 484.866 95.6 484.066 95.6C483.246 95.6 482.606 96.24 482.606 97.06C482.606 97.88 483.246 98.52 484.066 98.52ZM496 111H498.26V104.5C498.26 101.42 496.32 99.8 493.74 99.8C492.42 99.8 491.2 100.34 490.46 101.24V99.98H488.18V111H490.46V104.84C490.46 102.82 491.56 101.78 493.24 101.78C494.9 101.78 496 102.82 496 104.84V111ZM500.408 105.44C500.408 108.84 502.708 111.18 505.608 111.18C507.408 111.18 508.728 110.28 509.428 109.34V111.18C509.428 113.38 508.108 114.46 506.348 114.46C504.768 114.46 503.548 113.68 503.208 112.54H500.948C501.228 114.98 503.408 116.44 506.348 116.44C509.788 116.44 511.728 114.18 511.728 111.18V99.98H509.428V101.58C508.748 100.64 507.408 99.8 505.608 99.8C502.708 99.8 500.408 102.04 500.408 105.44ZM509.428 105.48C509.428 107.86 507.808 109.2 506.088 109.2C504.388 109.2 502.748 107.82 502.748 105.44C502.748 103.06 504.388 101.78 506.088 101.78C507.808 101.78 509.428 103.12 509.428 105.48Z" fill="#212832"/>
<rect x="0.5" y="66.5" width="616" height="74" stroke="black" stroke-opacity="0.5"/>
<rect y="319" width="617" height="50" fill="white"/>
<path d="M24.6 347.44C26.08 347.44 27.24 346.3 27.24 344.84C27.24 343.36 26.08 342.22 24.6 342.22C23.16 342.22 22 343.36 22 344.84C22 346.3 23.16 347.44 24.6 347.44ZM41.1289 351.5H43.4089V337.6H41.1289V351.5ZM54.2223 351.5H56.4823V345C56.4823 341.92 54.5423 340.3 51.9623 340.3C50.6423 340.3 49.4223 340.84 48.6823 341.74V340.48H46.4023V351.5H48.6823V345.34C48.6823 343.32 49.7823 342.28 51.4623 342.28C53.1223 342.28 54.2223 343.32 54.2223 345.34V351.5ZM59.6706 351.5H61.9706V342.34H64.0106V340.48H61.9706V339.7C61.9706 338.44 62.4506 337.96 63.8506 337.96V336.06C60.9706 336.06 59.6706 337.16 59.6706 339.7V340.48H58.3706V342.34H59.6706V351.5ZM76.5313 345.98C76.5313 342.52 74.0513 340.3 70.9113 340.3C67.7713 340.3 65.2913 342.52 65.2913 345.98C65.2913 349.44 67.6713 351.68 70.8113 351.68C73.9713 351.68 76.5313 349.44 76.5313 345.98ZM67.6113 345.98C67.6113 343.48 69.1513 342.28 70.8713 342.28C72.5713 342.28 74.1913 343.48 74.1913 345.98C74.1913 348.48 72.5113 349.7 70.8113 349.7C69.0913 349.7 67.6113 348.48 67.6113 345.98ZM81.0652 345.7C81.0652 343.36 82.1052 342.66 83.7852 342.66H84.3652V340.3C82.8052 340.3 81.7052 340.98 81.0652 342.08V340.48H78.7852V351.5H81.0652V345.7ZM102.081 351.5H104.341V345C104.341 341.92 102.381 340.3 99.8009 340.3C98.2009 340.3 96.6409 341.14 95.9609 342.48C95.2009 341.04 93.7409 340.3 92.0009 340.3C90.6809 340.3 89.4809 340.84 88.7409 341.74V340.48H86.4609V351.5H88.7409V345.34C88.7409 343.32 89.8409 342.28 91.5209 342.28C93.1809 342.28 94.2809 343.32 94.2809 345.34V351.5H96.5409V345.34C96.5409 343.32 97.6409 342.28 99.3209 342.28C100.981 342.28 102.081 343.32 102.081 345.34V351.5ZM106.482 345.94C106.482 349.34 108.782 351.68 111.642 351.68C113.482 351.68 114.802 350.8 115.502 349.86V351.5H117.802V340.48H115.502V342.08C114.822 341.18 113.542 340.3 111.682 340.3C108.782 340.3 106.482 342.54 106.482 345.94ZM115.502 345.98C115.502 348.36 113.882 349.7 112.162 349.7C110.462 349.7 108.822 348.32 108.822 345.94C108.822 343.56 110.462 342.28 112.162 342.28C113.882 342.28 115.502 343.62 115.502 345.98ZM121.157 348.44C121.157 350.68 122.377 351.5 124.337 351.5H126.137V349.6H124.737C123.777 349.6 123.457 349.26 123.457 348.44V342.34H126.137V340.48H123.457V337.74H121.157V340.48H119.857V342.34H121.157V348.44ZM128.238 351.5H130.518V340.48H128.238V351.5ZM129.398 339.02C130.198 339.02 130.838 338.38 130.838 337.56C130.838 336.74 130.198 336.1 129.398 336.1C128.578 336.1 127.938 336.74 127.938 337.56C127.938 338.38 128.578 339.02 129.398 339.02ZM144.012 345.98C144.012 342.52 141.532 340.3 138.392 340.3C135.252 340.3 132.772 342.52 132.772 345.98C132.772 349.44 135.152 351.68 138.292 351.68C141.452 351.68 144.012 349.44 144.012 345.98ZM135.092 345.98C135.092 343.48 136.632 342.28 138.352 342.28C140.052 342.28 141.672 343.48 141.672 345.98C141.672 348.48 139.992 349.7 138.292 349.7C136.572 349.7 135.092 348.48 135.092 345.98ZM154.086 351.5H156.346V345C156.346 341.92 154.406 340.3 151.826 340.3C150.506 340.3 149.286 340.84 148.546 341.74V340.48H146.266V351.5H148.546V345.34C148.546 343.32 149.646 342.28 151.326 342.28C152.986 342.28 154.086 343.32 154.086 345.34V351.5ZM173.829 347.56C173.829 342.48 166.469 344.44 166.469 341.3C166.469 339.96 167.489 339.32 168.809 339.36C170.249 339.4 171.069 340.26 171.149 341.2H173.669C173.469 338.82 171.589 337.42 168.929 337.42C166.089 337.42 164.149 338.94 164.149 341.38C164.149 346.5 171.529 344.32 171.529 347.68C171.529 348.86 170.629 349.72 169.029 349.72C167.449 349.72 166.649 348.8 166.549 347.66H164.109C164.109 350.12 166.249 351.64 169.029 351.64C172.129 351.64 173.829 349.64 173.829 347.56ZM181.16 342.22C182.86 342.22 184.2 343.3 184.24 345H178.14C178.38 343.26 179.62 342.22 181.16 342.22ZM186.32 348.22H183.86C183.44 349.08 182.66 349.76 181.26 349.76C179.58 349.76 178.28 348.66 178.12 346.84H186.54C186.6 346.46 186.62 346.1 186.62 345.72C186.62 342.48 184.4 340.3 181.26 340.3C178 340.3 175.76 342.52 175.76 345.98C175.76 349.44 178.1 351.68 181.26 351.68C183.96 351.68 185.7 350.14 186.32 348.22ZM188.103 345.98C188.103 349.44 190.343 351.68 193.503 351.68C196.203 351.68 197.963 350.18 198.583 348.02H196.123C195.703 349.16 194.863 349.76 193.503 349.76C191.663 349.76 190.443 348.4 190.443 345.98C190.443 343.58 191.663 342.22 193.503 342.22C194.863 342.22 195.743 342.9 196.123 343.96H198.583C197.963 341.64 196.203 340.3 193.503 340.3C190.343 340.3 188.103 342.54 188.103 345.98ZM210.835 340.48H208.555V346.62C208.555 348.64 207.455 349.68 205.775 349.68C204.115 349.68 203.015 348.64 203.015 346.62V340.48H200.755V346.96C200.755 350.04 202.715 351.66 205.295 351.66C206.595 351.66 207.835 351.12 208.555 350.18V351.5H210.835V340.48ZM216.124 345.7C216.124 343.36 217.164 342.66 218.844 342.66H219.424V340.3C217.864 340.3 216.764 340.98 216.124 342.08V340.48H213.844V351.5H216.124V345.7ZM221.52 351.5H223.8V340.48H221.52V351.5ZM222.68 339.02C223.48 339.02 224.12 338.38 224.12 337.56C224.12 336.74 223.48 336.1 222.68 336.1C221.86 336.1 221.22 336.74 221.22 337.56C221.22 338.38 221.86 339.02 222.68 339.02ZM227.153 348.44C227.153 350.68 228.373 351.5 230.333 351.5H232.133V349.6H230.733C229.773 349.6 229.453 349.26 229.453 348.44V342.34H232.133V340.48H229.453V337.74H227.153V340.48H225.853V342.34H227.153V348.44ZM238.574 348.88L235.474 340.48H232.934L237.274 351.32L235.034 356.68H237.394L244.154 340.48H241.794L238.574 348.88ZM251.31 345.22H259.53V343.3H251.31V345.22ZM270.245 344V339.46H272.765C274.545 339.46 275.345 340.3 275.345 341.74C275.345 343.14 274.545 344 272.765 344H270.245ZM277.685 341.74C277.685 339.48 276.065 337.6 272.765 337.6H267.965V351.5H270.245V345.86H272.765C276.385 345.86 277.685 343.72 277.685 341.74ZM282.139 345.7C282.139 343.36 283.179 342.66 284.859 342.66H285.439V340.3C283.879 340.3 282.779 340.98 282.139 342.08V340.48H279.859V351.5H282.139V345.7ZM286.775 345.94C286.775 349.34 289.075 351.68 291.935 351.68C293.775 351.68 295.095 350.8 295.795 349.86V351.5H298.095V340.48H295.795V342.08C295.115 341.18 293.835 340.3 291.975 340.3C289.075 340.3 286.775 342.54 286.775 345.94ZM295.795 345.98C295.795 348.36 294.175 349.7 292.455 349.7C290.755 349.7 289.115 348.32 289.115 345.94C289.115 343.56 290.755 342.28 292.455 342.28C294.175 342.28 295.795 343.62 295.795 345.98ZM300.33 345.98C300.33 349.44 302.57 351.68 305.73 351.68C308.43 351.68 310.19 350.18 310.81 348.02H308.35C307.93 349.16 307.09 349.76 305.73 349.76C303.89 349.76 302.67 348.4 302.67 345.98C302.67 343.58 303.89 342.22 305.73 342.22C307.09 342.22 307.97 342.9 308.35 343.96H310.81C310.19 341.64 308.43 340.3 305.73 340.3C302.57 340.3 300.33 342.54 300.33 345.98ZM313.442 348.44C313.442 350.68 314.662 351.5 316.622 351.5H318.422V349.6H317.022C316.062 349.6 315.742 349.26 315.742 348.44V342.34H318.422V340.48H315.742V337.74H313.442V340.48H312.142V342.34H313.442V348.44ZM320.523 351.5H322.803V340.48H320.523V351.5ZM321.683 339.02C322.483 339.02 323.123 338.38 323.123 337.56C323.123 336.74 322.483 336.1 321.683 336.1C320.863 336.1 320.223 336.74 320.223 337.56C320.223 338.38 320.863 339.02 321.683 339.02ZM326.157 348.44C326.157 350.68 327.377 351.5 329.337 351.5H331.137V349.6H329.737C328.777 349.6 328.457 349.26 328.457 348.44V342.34H331.137V340.48H328.457V337.74H326.157V340.48H324.857V342.34H326.157V348.44ZM333.238 351.5H335.518V340.48H333.238V351.5ZM334.398 339.02C335.198 339.02 335.838 338.38 335.838 337.56C335.838 336.74 335.198 336.1 334.398 336.1C333.578 336.1 332.938 336.74 332.938 337.56C332.938 338.38 333.578 339.02 334.398 339.02ZM349.012 345.98C349.012 342.52 346.532 340.3 343.392 340.3C340.252 340.3 337.772 342.52 337.772 345.98C337.772 349.44 340.152 351.68 343.292 351.68C346.452 351.68 349.012 349.44 349.012 345.98ZM340.092 345.98C340.092 343.48 341.632 342.28 343.352 342.28C345.052 342.28 346.672 343.48 346.672 345.98C346.672 348.48 344.992 349.7 343.292 349.7C341.572 349.7 340.092 348.48 340.092 345.98ZM359.086 351.5H361.346V345C361.346 341.92 359.406 340.3 356.826 340.3C355.506 340.3 354.286 340.84 353.546 341.74V340.48H351.266V351.5H353.546V345.34C353.546 343.32 354.646 342.28 356.326 342.28C357.986 342.28 359.086 343.32 359.086 345.34V351.5ZM368.894 342.22C370.594 342.22 371.934 343.3 371.974 345H365.874C366.114 343.26 367.354 342.22 368.894 342.22ZM374.054 348.22H371.594C371.174 349.08 370.394 349.76 368.994 349.76C367.314 349.76 366.014 348.66 365.854 346.84H374.274C374.334 346.46 374.354 346.1 374.354 345.72C374.354 342.48 372.134 340.3 368.994 340.3C365.734 340.3 363.494 342.52 363.494 345.98C363.494 349.44 365.834 351.68 368.994 351.68C371.694 351.68 373.434 350.14 374.054 348.22ZM378.878 345.7C378.878 343.36 379.918 342.66 381.598 342.66H382.178V340.3C380.618 340.3 379.518 340.98 378.878 342.08V340.48H376.598V351.5H378.878V345.7ZM383.713 339.66H385.273L385.513 335.56H383.453L383.713 339.66ZM395.931 348.42C395.811 344.44 389.591 345.68 389.591 343.46C389.591 342.72 390.231 342.22 391.451 342.22C392.691 342.22 393.431 342.88 393.511 343.84H395.791C395.671 341.64 394.031 340.3 391.531 340.3C388.931 340.3 387.291 341.72 387.291 343.48C387.291 347.52 393.691 346.28 393.691 348.44C393.691 349.2 392.991 349.76 391.671 349.76C390.411 349.76 389.551 349.02 389.471 348.12H387.111C387.211 350.12 389.071 351.68 391.711 351.68C394.311 351.68 395.931 350.28 395.931 348.42ZM405.87 344V339.46H408.39C410.17 339.46 410.97 340.3 410.97 341.74C410.97 343.14 410.17 344 408.39 344H405.87ZM413.31 341.74C413.31 339.48 411.69 337.6 408.39 337.6H403.59V351.5H405.87V345.86H408.39C412.01 345.86 413.31 343.72 413.31 341.74ZM420.124 342.22C421.824 342.22 423.164 343.3 423.204 345H417.104C417.344 343.26 418.584 342.22 420.124 342.22ZM425.284 348.22H422.824C422.404 349.08 421.624 349.76 420.224 349.76C418.544 349.76 417.244 348.66 417.084 346.84H425.504C425.564 346.46 425.584 346.1 425.584 345.72C425.584 342.48 423.364 340.3 420.224 340.3C416.964 340.3 414.724 342.52 414.724 345.98C414.724 349.44 417.064 351.68 420.224 351.68C422.924 351.68 424.664 350.14 425.284 348.22ZM430.108 345.7C430.108 343.36 431.148 342.66 432.828 342.66H433.408V340.3C431.848 340.3 430.748 340.98 430.108 342.08V340.48H427.828V351.5H430.108V345.7ZM443.724 348.42C443.604 344.44 437.384 345.68 437.384 343.46C437.384 342.72 438.024 342.22 439.244 342.22C440.484 342.22 441.224 342.88 441.304 343.84H443.584C443.464 341.64 441.824 340.3 439.324 340.3C436.724 340.3 435.084 341.72 435.084 343.48C435.084 347.52 441.484 346.28 441.484 348.44C441.484 349.2 440.784 349.76 439.464 349.76C438.204 349.76 437.344 349.02 437.264 348.12H434.904C435.004 350.12 436.864 351.68 439.504 351.68C442.104 351.68 443.724 350.28 443.724 348.42ZM448.468 342.1V340.48H446.188V356.74H448.468V349.9C449.188 350.76 450.488 351.68 452.308 351.68C455.208 351.68 457.488 349.34 457.488 345.94C457.488 342.54 455.208 340.3 452.308 340.3C450.508 340.3 449.168 341.18 448.468 342.1ZM455.168 345.94C455.168 348.32 453.528 349.7 451.808 349.7C450.108 349.7 448.468 348.36 448.468 345.98C448.468 343.62 450.108 342.28 451.808 342.28C453.528 342.28 455.168 343.56 455.168 345.94ZM464.382 342.22C466.082 342.22 467.422 343.3 467.462 345H461.362C461.602 343.26 462.842 342.22 464.382 342.22ZM469.542 348.22H467.082C466.662 349.08 465.882 349.76 464.482 349.76C462.802 349.76 461.502 348.66 461.342 346.84H469.762C469.822 346.46 469.842 346.1 469.842 345.72C469.842 342.48 467.622 340.3 464.482 340.3C461.222 340.3 458.982 342.52 458.982 345.98C458.982 349.44 461.322 351.68 464.482 351.68C467.182 351.68 468.922 350.14 469.542 348.22ZM471.326 345.98C471.326 349.44 473.566 351.68 476.726 351.68C479.426 351.68 481.186 350.18 481.806 348.02H479.346C478.926 349.16 478.086 349.76 476.726 349.76C474.886 349.76 473.666 348.4 473.666 345.98C473.666 343.58 474.886 342.22 476.726 342.22C478.086 342.22 478.966 342.9 479.346 343.96H481.806C481.186 341.64 479.426 340.3 476.726 340.3C473.566 340.3 471.326 342.54 471.326 345.98ZM484.438 348.44C484.438 350.68 485.658 351.5 487.618 351.5H489.418V349.6H488.018C487.058 349.6 486.738 349.26 486.738 348.44V342.34H489.418V340.48H486.738V337.74H484.438V340.48H483.138V342.34H484.438V348.44ZM491.52 351.5H493.8V340.48H491.52V351.5ZM492.68 339.02C493.48 339.02 494.12 338.38 494.12 337.56C494.12 336.74 493.48 336.1 492.68 336.1C491.86 336.1 491.22 336.74 491.22 337.56C491.22 338.38 491.86 339.02 492.68 339.02ZM495.493 340.48L499.673 351.5H502.393L506.593 340.48H504.173L501.053 349.46L497.933 340.48H495.493ZM512.956 342.22C514.656 342.22 515.996 343.3 516.036 345H509.936C510.176 343.26 511.416 342.22 512.956 342.22ZM518.116 348.22H515.656C515.236 349.08 514.456 349.76 513.056 349.76C511.376 349.76 510.076 348.66 509.916 346.84H518.336C518.396 346.46 518.416 346.1 518.416 345.72C518.416 342.48 516.196 340.3 513.056 340.3C509.796 340.3 507.556 342.52 507.556 345.98C507.556 349.44 509.896 351.68 513.056 351.68C515.756 351.68 517.496 350.14 518.116 348.22Z" fill="#212832"/>
<rect x="0.5" y="319.5" width="616" height="49" stroke="black" stroke-opacity="0.5"/>
<rect y="205" width="617" height="50" fill="white"/>
<path d="M24.6 233.44C26.08 233.44 27.24 232.3 27.24 230.84C27.24 229.36 26.08 228.22 24.6 228.22C23.16 228.22 22 229.36 22 230.84C22 232.3 23.16 233.44 24.6 233.44ZM43.4089 230V225.46H45.9289C47.7089 225.46 48.5089 226.3 48.5089 227.74C48.5089 229.14 47.7089 230 45.9289 230H43.4089ZM50.8489 227.74C50.8489 225.48 49.2289 223.6 45.9289 223.6H41.1289V237.5H43.4089V231.86H45.9289C49.5489 231.86 50.8489 229.72 50.8489 227.74ZM55.3034 231.7C55.3034 229.36 56.3434 228.66 58.0234 228.66H58.6034V226.3C57.0434 226.3 55.9434 226.98 55.3034 228.08V226.48H53.0234V237.5H55.3034V231.7ZM59.9392 231.94C59.9392 235.34 62.2392 237.68 65.0992 237.68C66.9392 237.68 68.2592 236.8 68.9592 235.86V237.5H71.2592V226.48H68.9592V228.08C68.2792 227.18 66.9992 226.3 65.1392 226.3C62.2392 226.3 59.9392 228.54 59.9392 231.94ZM68.9592 231.98C68.9592 234.36 67.3392 235.7 65.6192 235.7C63.9192 235.7 62.2792 234.32 62.2792 231.94C62.2792 229.56 63.9192 228.28 65.6192 228.28C67.3392 228.28 68.9592 229.62 68.9592 231.98ZM73.4939 231.98C73.4939 235.44 75.7339 237.68 78.8939 237.68C81.5939 237.68 83.3539 236.18 83.9739 234.02H81.5139C81.0939 235.16 80.2539 235.76 78.8939 235.76C77.0539 235.76 75.8339 234.4 75.8339 231.98C75.8339 229.58 77.0539 228.22 78.8939 228.22C80.2539 228.22 81.1339 228.9 81.5139 229.96H83.9739C83.3539 227.64 81.5939 226.3 78.8939 226.3C75.7339 226.3 73.4939 228.54 73.4939 231.98ZM86.6061 234.44C86.6061 236.68 87.8261 237.5 89.7861 237.5H91.5861V235.6H90.1861C89.2261 235.6 88.9061 235.26 88.9061 234.44V228.34H91.5861V226.48H88.9061V223.74H86.6061V226.48H85.3061V228.34H86.6061V234.44ZM93.6875 237.5H95.9675V226.48H93.6875V237.5ZM94.8475 225.02C95.6475 225.02 96.2875 224.38 96.2875 223.56C96.2875 222.74 95.6475 222.1 94.8475 222.1C94.0275 222.1 93.3875 222.74 93.3875 223.56C93.3875 224.38 94.0275 225.02 94.8475 225.02ZM98.2009 231.98C98.2009 235.44 100.441 237.68 103.601 237.68C106.301 237.68 108.061 236.18 108.681 234.02H106.221C105.801 235.16 104.961 235.76 103.601 235.76C101.761 235.76 100.541 234.4 100.541 231.98C100.541 229.58 101.761 228.22 103.601 228.22C104.961 228.22 105.841 228.9 106.221 229.96H108.681C108.061 227.64 106.301 226.3 103.601 226.3C100.441 226.3 98.2009 228.54 98.2009 231.98ZM110.193 231.94C110.193 235.34 112.493 237.68 115.353 237.68C117.193 237.68 118.513 236.8 119.213 235.86V237.5H121.513V226.48H119.213V228.08C118.533 227.18 117.253 226.3 115.393 226.3C112.493 226.3 110.193 228.54 110.193 231.94ZM119.213 231.98C119.213 234.36 117.593 235.7 115.873 235.7C114.173 235.7 112.533 234.32 112.533 231.94C112.533 229.56 114.173 228.28 115.873 228.28C117.593 228.28 119.213 229.62 119.213 231.98ZM124.508 237.5H126.788V222.7H124.508V237.5ZM144.357 237.5H146.757L141.777 223.58H139.137L134.157 237.5H136.537L137.537 234.66H143.357L144.357 237.5ZM142.717 232.8H138.177L140.457 226.34L142.717 232.8ZM151.202 228.1V226.48H148.922V242.74H151.202V235.9C151.922 236.76 153.222 237.68 155.042 237.68C157.942 237.68 160.222 235.34 160.222 231.94C160.222 228.54 157.942 226.3 155.042 226.3C153.242 226.3 151.902 227.18 151.202 228.1ZM157.902 231.94C157.902 234.32 156.262 235.7 154.542 235.7C152.842 235.7 151.202 234.36 151.202 231.98C151.202 229.62 152.842 228.28 154.542 228.28C156.262 228.28 157.902 229.56 157.902 231.94ZM164.757 228.1V226.48H162.477V242.74H164.757V235.9C165.477 236.76 166.777 237.68 168.597 237.68C171.497 237.68 173.777 235.34 173.777 231.94C173.777 228.54 171.497 226.3 168.597 226.3C166.797 226.3 165.457 227.18 164.757 228.1ZM171.457 231.94C171.457 234.32 169.817 235.7 168.097 235.7C166.397 235.7 164.757 234.36 164.757 231.98C164.757 229.62 166.397 228.28 168.097 228.28C169.817 228.28 171.457 229.56 171.457 231.94ZM178.311 231.7C178.311 229.36 179.351 228.66 181.031 228.66H181.611V226.3C180.051 226.3 178.951 226.98 178.311 228.08V226.48H176.031V237.5H178.311V231.7ZM194.207 231.98C194.207 228.52 191.727 226.3 188.587 226.3C185.447 226.3 182.967 228.52 182.967 231.98C182.967 235.44 185.347 237.68 188.487 237.68C191.647 237.68 194.207 235.44 194.207 231.98ZM185.287 231.98C185.287 229.48 186.827 228.28 188.547 228.28C190.247 228.28 191.867 229.48 191.867 231.98C191.867 234.48 190.187 235.7 188.487 235.7C186.767 235.7 185.287 234.48 185.287 231.98ZM195.701 231.94C195.701 235.34 198.001 237.68 200.861 237.68C202.701 237.68 204.021 236.8 204.721 235.86V237.5H207.021V226.48H204.721V228.08C204.041 227.18 202.761 226.3 200.901 226.3C198.001 226.3 195.701 228.54 195.701 231.94ZM204.721 231.98C204.721 234.36 203.101 235.7 201.381 235.7C199.681 235.7 198.041 234.32 198.041 231.94C198.041 229.56 199.681 228.28 201.381 228.28C203.101 228.28 204.721 229.62 204.721 231.98ZM209.256 231.98C209.256 235.44 211.496 237.68 214.656 237.68C217.356 237.68 219.116 236.18 219.736 234.02H217.276C216.856 235.16 216.016 235.76 214.656 235.76C212.816 235.76 211.596 234.4 211.596 231.98C211.596 229.58 212.816 228.22 214.656 228.22C216.016 228.22 216.896 228.9 217.276 229.96H219.736C219.116 227.64 217.356 226.3 214.656 226.3C211.496 226.3 209.256 228.54 209.256 231.98ZM222.008 237.5H224.288V231.34C224.288 229.32 225.388 228.28 227.068 228.28C228.728 228.28 229.828 229.32 229.828 231.34V237.5H232.088V231C232.088 227.92 230.168 226.3 227.708 226.3C226.288 226.3 225.048 226.84 224.288 227.76V222.7H222.008V237.5ZM240.551 234.44C240.551 236.68 241.771 237.5 243.731 237.5H245.531V235.6H244.131C243.171 235.6 242.851 235.26 242.851 234.44V228.34H245.531V226.48H242.851V223.74H240.551V226.48H239.251V228.34H240.551V234.44ZM258.133 231.98C258.133 228.52 255.653 226.3 252.513 226.3C249.373 226.3 246.893 228.52 246.893 231.98C246.893 235.44 249.273 237.68 252.413 237.68C255.573 237.68 258.133 235.44 258.133 231.98ZM249.213 231.98C249.213 229.48 250.753 228.28 252.473 228.28C254.173 228.28 255.793 229.48 255.793 231.98C255.793 234.48 254.113 235.7 252.413 235.7C250.693 235.7 249.213 234.48 249.213 231.98ZM270.122 223.6H265.582V237.5H270.122C274.582 237.5 277.502 234.88 277.502 230.6C277.502 226.3 274.582 223.6 270.122 223.6ZM267.862 235.64V225.46H270.122C273.402 225.46 275.162 227.42 275.162 230.6C275.162 233.76 273.402 235.64 270.122 235.64H267.862ZM279.002 231.94C279.002 235.34 281.302 237.68 284.162 237.68C286.002 237.68 287.322 236.8 288.022 235.86V237.5H290.322V226.48H288.022V228.08C287.342 227.18 286.062 226.3 284.202 226.3C281.302 226.3 279.002 228.54 279.002 231.94ZM288.022 231.98C288.022 234.36 286.402 235.7 284.682 235.7C282.982 235.7 281.342 234.32 281.342 231.94C281.342 229.56 282.982 228.28 284.682 228.28C286.402 228.28 288.022 229.62 288.022 231.98ZM293.676 234.44C293.676 236.68 294.896 237.5 296.856 237.5H298.656V235.6H297.256C296.296 235.6 295.976 235.26 295.976 234.44V228.34H298.656V226.48H295.976V223.74H293.676V226.48H292.376V228.34H293.676V234.44ZM299.998 231.94C299.998 235.34 302.298 237.68 305.158 237.68C306.998 237.68 308.318 236.8 309.018 235.86V237.5H311.318V226.48H309.018V228.08C308.338 227.18 307.058 226.3 305.198 226.3C302.298 226.3 299.998 228.54 299.998 231.94ZM309.018 231.98C309.018 234.36 307.398 235.7 305.678 235.7C303.978 235.7 302.338 234.32 302.338 231.94C302.338 229.56 303.978 228.28 305.678 228.28C307.398 228.28 309.018 229.62 309.018 231.98ZM319.508 237.5H321.788V227.98L326.048 237.5H327.628L331.868 227.98V237.5H334.148V223.6H331.708L326.848 234.5L321.968 223.6H319.508V237.5ZM337.145 237.5H339.425V226.48H337.145V237.5ZM338.305 225.02C339.105 225.02 339.745 224.38 339.745 223.56C339.745 222.74 339.105 222.1 338.305 222.1C337.485 222.1 336.845 222.74 336.845 223.56C336.845 224.38 337.485 225.02 338.305 225.02ZM350.238 237.5H352.498V231C352.498 227.92 350.558 226.3 347.978 226.3C346.658 226.3 345.438 226.84 344.698 227.74V226.48H342.418V237.5H344.698V231.34C344.698 229.32 345.798 228.28 347.478 228.28C349.138 228.28 350.238 229.32 350.238 231.34V237.5ZM355.406 237.5H357.686V226.48H355.406V237.5ZM356.566 225.02C357.366 225.02 358.006 224.38 358.006 223.56C358.006 222.74 357.366 222.1 356.566 222.1C355.746 222.1 355.106 222.74 355.106 223.56C355.106 224.38 355.746 225.02 356.566 225.02ZM368.5 237.5H370.76V231C370.76 227.92 368.82 226.3 366.24 226.3C364.92 226.3 363.7 226.84 362.96 227.74V226.48H360.68V237.5H362.96V231.34C362.96 229.32 364.06 228.28 365.74 228.28C367.4 228.28 368.5 229.32 368.5 231.34V237.5ZM372.908 231.94C372.908 235.34 375.208 237.68 378.108 237.68C379.908 237.68 381.228 236.78 381.928 235.84V237.68C381.928 239.88 380.608 240.96 378.848 240.96C377.268 240.96 376.048 240.18 375.708 239.04H373.448C373.728 241.48 375.908 242.94 378.848 242.94C382.288 242.94 384.228 240.68 384.228 237.68V226.48H381.928V228.08C381.248 227.14 379.908 226.3 378.108 226.3C375.208 226.3 372.908 228.54 372.908 231.94ZM381.928 231.98C381.928 234.36 380.308 235.7 378.588 235.7C376.888 235.7 375.248 234.32 375.248 231.94C375.248 229.56 376.888 228.28 378.588 228.28C380.308 228.28 381.928 229.62 381.928 231.98ZM391.658 231.94C391.658 235.34 393.958 237.68 396.818 237.68C398.658 237.68 399.978 236.8 400.678 235.86V237.5H402.978V226.48H400.678V228.08C399.998 227.18 398.718 226.3 396.858 226.3C393.958 226.3 391.658 228.54 391.658 231.94ZM400.678 231.98C400.678 234.36 399.058 235.7 397.338 235.7C395.638 235.7 393.998 234.32 393.998 231.94C393.998 229.56 395.638 228.28 397.338 228.28C399.058 228.28 400.678 229.62 400.678 231.98ZM413.793 237.5H416.053V231C416.053 227.92 414.113 226.3 411.533 226.3C410.213 226.3 408.993 226.84 408.253 227.74V226.48H405.973V237.5H408.253V231.34C408.253 229.32 409.353 228.28 411.033 228.28C412.693 228.28 413.793 229.32 413.793 231.34V237.5ZM418.201 231.94C418.201 235.34 420.501 237.68 423.401 237.68C425.201 237.68 426.521 236.84 427.221 235.84V237.5H429.521V222.7H427.221V228.02C426.381 226.98 424.861 226.3 423.421 226.3C420.501 226.3 418.201 228.54 418.201 231.94ZM427.221 231.98C427.221 234.36 425.601 235.7 423.881 235.7C422.181 235.7 420.541 234.32 420.541 231.94C420.541 229.56 422.181 228.28 423.881 228.28C425.601 228.28 427.221 229.62 427.221 231.98ZM447.091 237.5H449.491L444.511 223.58H441.871L436.891 237.5H439.271L440.271 234.66H446.091L447.091 237.5ZM445.451 232.8H440.911L443.191 226.34L445.451 232.8ZM459.476 237.5H461.736V231C461.736 227.92 459.796 226.3 457.216 226.3C455.896 226.3 454.676 226.84 453.936 227.74V226.48H451.656V237.5H453.936V231.34C453.936 229.32 455.036 228.28 456.716 228.28C458.376 228.28 459.476 229.32 459.476 231.34V237.5ZM463.885 231.94C463.885 235.34 466.185 237.68 469.045 237.68C470.885 237.68 472.205 236.8 472.905 235.86V237.5H475.205V226.48H472.905V228.08C472.225 227.18 470.945 226.3 469.085 226.3C466.185 226.3 463.885 228.54 463.885 231.94ZM472.905 231.98C472.905 234.36 471.285 235.7 469.565 235.7C467.865 235.7 466.225 234.32 466.225 231.94C466.225 229.56 467.865 228.28 469.565 228.28C471.285 228.28 472.905 229.62 472.905 231.98ZM478.199 237.5H480.479V222.7H478.199V237.5ZM487.813 234.88L484.713 226.48H482.173L486.513 237.32L484.273 242.68H486.633L493.393 226.48H491.033L487.813 234.88ZM495.473 234.44C495.473 236.68 496.693 237.5 498.653 237.5H500.453V235.6H499.053C498.093 235.6 497.773 235.26 497.773 234.44V228.34H500.453V226.48H497.773V223.74H495.473V226.48H494.173V228.34H495.473V234.44ZM502.555 237.5H504.835V226.48H502.555V237.5ZM503.715 225.02C504.515 225.02 505.155 224.38 505.155 223.56C505.155 222.74 504.515 222.1 503.715 222.1C502.895 222.1 502.255 222.74 502.255 223.56C502.255 224.38 502.895 225.02 503.715 225.02ZM507.068 231.98C507.068 235.44 509.308 237.68 512.468 237.68C515.168 237.68 516.928 236.18 517.548 234.02H515.088C514.668 235.16 513.828 235.76 512.468 235.76C510.628 235.76 509.408 234.4 509.408 231.98C509.408 229.58 510.628 228.22 512.468 228.22C513.828 228.22 514.708 228.9 515.088 229.96H517.548C516.928 227.64 515.168 226.3 512.468 226.3C509.308 226.3 507.068 228.54 507.068 231.98ZM528.04 234.42C527.92 230.44 521.7 231.68 521.7 229.46C521.7 228.72 522.34 228.22 523.56 228.22C524.8 228.22 525.54 228.88 525.62 229.84H527.9C527.78 227.64 526.14 226.3 523.64 226.3C521.04 226.3 519.4 227.72 519.4 229.48C519.4 233.52 525.8 232.28 525.8 234.44C525.8 235.2 525.1 235.76 523.78 235.76C522.52 235.76 521.66 235.02 521.58 234.12H519.22C519.32 236.12 521.18 237.68 523.82 237.68C526.42 237.68 528.04 236.28 528.04 234.42Z" fill="#212832"/>
<rect x="0.5" y="205.5" width="616" height="49" stroke="black" stroke-opacity="0.5"/>
<rect y="148" width="617" height="50" fill="white"/>
<path d="M24.6 176.44C26.08 176.44 27.24 175.3 27.24 173.84C27.24 172.36 26.08 171.22 24.6 171.22C23.16 171.22 22 172.36 22 173.84C22 175.3 23.16 176.44 24.6 176.44ZM43.4089 173V168.46H45.9289C47.7089 168.46 48.5089 169.3 48.5089 170.74C48.5089 172.14 47.7089 173 45.9289 173H43.4089ZM50.8489 170.74C50.8489 168.48 49.2289 166.6 45.9289 166.6H41.1289V180.5H43.4089V174.86H45.9289C49.5489 174.86 50.8489 172.72 50.8489 170.74ZM57.3634 177.88L54.2634 169.48H51.7234L56.0634 180.32L53.8234 185.68H56.1834L62.9434 169.48H60.5834L57.3634 177.88ZM65.0241 177.44C65.0241 179.68 66.2441 180.5 68.2041 180.5H70.0041V178.6H68.6041C67.6441 178.6 67.3241 178.26 67.3241 177.44V171.34H70.0041V169.48H67.3241V166.74H65.0241V169.48H63.7241V171.34H65.0241V177.44ZM72.1055 180.5H74.3855V174.34C74.3855 172.32 75.4855 171.28 77.1655 171.28C78.8255 171.28 79.9255 172.32 79.9255 174.34V180.5H82.1855V174C82.1855 170.92 80.2655 169.3 77.8055 169.3C76.3855 169.3 75.1455 169.84 74.3855 170.76V165.7H72.1055V180.5ZM95.5938 174.98C95.5938 171.52 93.1138 169.3 89.9738 169.3C86.8338 169.3 84.3538 171.52 84.3538 174.98C84.3538 178.44 86.7338 180.68 89.8738 180.68C93.0338 180.68 95.5938 178.44 95.5938 174.98ZM86.6738 174.98C86.6738 172.48 88.2138 171.28 89.9338 171.28C91.6338 171.28 93.2538 172.48 93.2538 174.98C93.2538 177.48 91.5738 178.7 89.8738 178.7C88.1538 178.7 86.6738 177.48 86.6738 174.98ZM105.668 180.5H107.928V174C107.928 170.92 105.988 169.3 103.408 169.3C102.088 169.3 100.868 169.84 100.128 170.74V169.48H97.8477V180.5H100.128V174.34C100.128 172.32 101.228 171.28 102.908 171.28C104.568 171.28 105.668 172.32 105.668 174.34V180.5ZM118.311 173V168.46H120.831C122.611 168.46 123.411 169.3 123.411 170.74C123.411 172.14 122.611 173 120.831 173H118.311ZM125.751 170.74C125.751 168.48 124.131 166.6 120.831 166.6H116.031V180.5H118.311V174.86H120.831C124.451 174.86 125.751 172.72 125.751 170.74ZM130.206 174.7C130.206 172.36 131.246 171.66 132.926 171.66H133.506V169.3C131.946 169.3 130.846 169.98 130.206 171.08V169.48H127.926V180.5H130.206V174.7ZM146.102 174.98C146.102 171.52 143.622 169.3 140.482 169.3C137.342 169.3 134.862 171.52 134.862 174.98C134.862 178.44 137.242 180.68 140.382 180.68C143.542 180.68 146.102 178.44 146.102 174.98ZM137.182 174.98C137.182 172.48 138.722 171.28 140.442 171.28C142.142 171.28 143.762 172.48 143.762 174.98C143.762 177.48 142.082 178.7 140.382 178.7C138.662 178.7 137.182 177.48 137.182 174.98ZM147.595 174.94C147.595 178.34 149.895 180.68 152.795 180.68C154.595 180.68 155.915 179.78 156.615 178.84V180.68C156.615 182.88 155.295 183.96 153.535 183.96C151.955 183.96 150.735 183.18 150.395 182.04H148.135C148.415 184.48 150.595 185.94 153.535 185.94C156.975 185.94 158.915 183.68 158.915 180.68V169.48H156.615V171.08C155.935 170.14 154.595 169.3 152.795 169.3C149.895 169.3 147.595 171.54 147.595 174.94ZM156.615 174.98C156.615 177.36 154.995 178.7 153.275 178.7C151.575 178.7 149.935 177.32 149.935 174.94C149.935 172.56 151.575 171.28 153.275 171.28C154.995 171.28 156.615 172.62 156.615 174.98ZM164.19 174.7C164.19 172.36 165.23 171.66 166.91 171.66H167.49V169.3C165.93 169.3 164.83 169.98 164.19 171.08V169.48H161.91V180.5H164.19V174.7ZM168.826 174.94C168.826 178.34 171.126 180.68 173.986 180.68C175.826 180.68 177.146 179.8 177.846 178.86V180.5H180.146V169.48H177.846V171.08C177.166 170.18 175.886 169.3 174.026 169.3C171.126 169.3 168.826 171.54 168.826 174.94ZM177.846 174.98C177.846 177.36 176.226 178.7 174.506 178.7C172.806 178.7 171.166 177.32 171.166 174.94C171.166 172.56 172.806 171.28 174.506 171.28C176.226 171.28 177.846 172.62 177.846 174.98ZM198.761 180.5H201.021V174C201.021 170.92 199.061 169.3 196.481 169.3C194.881 169.3 193.321 170.14 192.641 171.48C191.881 170.04 190.421 169.3 188.681 169.3C187.361 169.3 186.161 169.84 185.421 170.74V169.48H183.141V180.5H185.421V174.34C185.421 172.32 186.521 171.28 188.201 171.28C189.861 171.28 190.961 172.32 190.961 174.34V180.5H193.221V174.34C193.221 172.32 194.321 171.28 196.001 171.28C197.661 171.28 198.761 172.32 198.761 174.34V180.5ZM219.542 180.5H221.802V174C221.802 170.92 219.842 169.3 217.262 169.3C215.662 169.3 214.102 170.14 213.422 171.48C212.662 170.04 211.202 169.3 209.462 169.3C208.142 169.3 206.942 169.84 206.202 170.74V169.48H203.922V180.5H206.202V174.34C206.202 172.32 207.302 171.28 208.982 171.28C210.642 171.28 211.742 172.32 211.742 174.34V180.5H214.002V174.34C214.002 172.32 215.102 171.28 216.782 171.28C218.442 171.28 219.542 172.32 219.542 174.34V180.5ZM224.703 180.5H226.983V169.48H224.703V180.5ZM225.863 168.02C226.663 168.02 227.303 167.38 227.303 166.56C227.303 165.74 226.663 165.1 225.863 165.1C225.043 165.1 224.403 165.74 224.403 166.56C224.403 167.38 225.043 168.02 225.863 168.02ZM237.797 180.5H240.057V174C240.057 170.92 238.117 169.3 235.537 169.3C234.217 169.3 232.997 169.84 232.257 170.74V169.48H229.977V180.5H232.257V174.34C232.257 172.32 233.357 171.28 235.037 171.28C236.697 171.28 237.797 172.32 237.797 174.34V180.5ZM242.205 174.94C242.205 178.34 244.505 180.68 247.405 180.68C249.205 180.68 250.525 179.78 251.225 178.84V180.68C251.225 182.88 249.905 183.96 248.145 183.96C246.565 183.96 245.345 183.18 245.005 182.04H242.745C243.025 184.48 245.205 185.94 248.145 185.94C251.585 185.94 253.525 183.68 253.525 180.68V169.48H251.225V171.08C250.545 170.14 249.205 169.3 247.405 169.3C244.505 169.3 242.205 171.54 242.205 174.94ZM251.225 174.98C251.225 177.36 249.605 178.7 247.885 178.7C246.185 178.7 244.545 177.32 244.545 174.94C244.545 172.56 246.185 171.28 247.885 171.28C249.605 171.28 251.225 172.62 251.225 174.98Z" fill="#212832"/>
<rect x="0.5" y="148.5" width="616" height="49" stroke="black" stroke-opacity="0.5"/>
<rect y="262" width="617" height="50" fill="white"/>
<path d="M24.6 290.44C26.08 290.44 27.24 289.3 27.24 287.84C27.24 286.36 26.08 285.22 24.6 285.22C23.16 285.22 22 286.36 22 287.84C22 289.3 23.16 290.44 24.6 290.44ZM50.5089 294.5H52.9089L47.9289 280.58H45.2889L40.3089 294.5H42.6889L43.6889 291.66H49.5089L50.5089 294.5ZM48.8689 289.8H44.3289L46.6089 283.34L48.8689 289.8ZM57.3542 285.1V283.48H55.0742V299.74H57.3542V292.9C58.0742 293.76 59.3742 294.68 61.1942 294.68C64.0942 294.68 66.3742 292.34 66.3742 288.94C66.3742 285.54 64.0942 283.3 61.1942 283.3C59.3942 283.3 58.0542 284.18 57.3542 285.1ZM64.0542 288.94C64.0542 291.32 62.4142 292.7 60.6942 292.7C58.9942 292.7 57.3542 291.36 57.3542 288.98C57.3542 286.62 58.9942 285.28 60.6942 285.28C62.4142 285.28 64.0542 286.56 64.0542 288.94ZM70.9089 285.1V283.48H68.6289V299.74H70.9089V292.9C71.6289 293.76 72.9289 294.68 74.7489 294.68C77.6489 294.68 79.9289 292.34 79.9289 288.94C79.9289 285.54 77.6489 283.3 74.7489 283.3C72.9489 283.3 71.6089 284.18 70.9089 285.1ZM77.6089 288.94C77.6089 291.32 75.9689 292.7 74.2489 292.7C72.5489 292.7 70.9089 291.36 70.9089 288.98C70.9089 286.62 72.5489 285.28 74.2489 285.28C75.9689 285.28 77.6089 286.56 77.6089 288.94ZM82.1836 294.5H84.4636V279.7H82.1836V294.5ZM87.457 294.5H89.737V283.48H87.457V294.5ZM88.617 282.02C89.417 282.02 90.057 281.38 90.057 280.56C90.057 279.74 89.417 279.1 88.617 279.1C87.797 279.1 87.157 279.74 87.157 280.56C87.157 281.38 87.797 282.02 88.617 282.02ZM97.3705 285.22C99.0705 285.22 100.41 286.3 100.45 288H94.3505C94.5905 286.26 95.8305 285.22 97.3705 285.22ZM102.53 291.22H100.07C99.6505 292.08 98.8705 292.76 97.4705 292.76C95.7905 292.76 94.4905 291.66 94.3305 289.84H102.75C102.81 289.46 102.83 289.1 102.83 288.72C102.83 285.48 100.61 283.3 97.4705 283.3C94.2105 283.3 91.9705 285.52 91.9705 288.98C91.9705 292.44 94.3105 294.68 97.4705 294.68C100.17 294.68 101.91 293.14 102.53 291.22ZM104.314 288.94C104.314 292.34 106.614 294.68 109.514 294.68C111.314 294.68 112.634 293.84 113.334 292.84V294.5H115.634V279.7H113.334V285.02C112.494 283.98 110.974 283.3 109.534 283.3C106.614 283.3 104.314 285.54 104.314 288.94ZM113.334 288.98C113.334 291.36 111.714 292.7 109.994 292.7C108.294 292.7 106.654 291.32 106.654 288.94C106.654 286.56 108.294 285.28 109.994 285.28C111.714 285.28 113.334 286.62 113.334 288.98ZM123.064 287.52C123.064 291.7 126.244 294.62 130.164 294.62C133.064 294.62 135.564 293.18 136.624 290.46H133.884C133.144 291.94 131.824 292.64 130.164 292.64C127.404 292.64 125.404 290.66 125.404 287.52C125.404 284.38 127.404 282.42 130.164 282.42C131.824 282.42 133.144 283.12 133.884 284.6H136.624C135.564 281.88 133.064 280.42 130.164 280.42C126.244 280.42 123.064 283.36 123.064 287.52ZM139.293 294.5H141.573V279.7H139.293V294.5ZM155.066 288.98C155.066 285.52 152.586 283.3 149.446 283.3C146.306 283.3 143.826 285.52 143.826 288.98C143.826 292.44 146.206 294.68 149.346 294.68C152.506 294.68 155.066 292.44 155.066 288.98ZM146.146 288.98C146.146 286.48 147.686 285.28 149.406 285.28C151.106 285.28 152.726 286.48 152.726 288.98C152.726 291.48 151.046 292.7 149.346 292.7C147.626 292.7 146.146 291.48 146.146 288.98ZM167.3 283.48H165.02V289.62C165.02 291.64 163.92 292.68 162.24 292.68C160.58 292.68 159.48 291.64 159.48 289.62V283.48H157.22V289.96C157.22 293.04 159.18 294.66 161.76 294.66C163.06 294.66 164.3 294.12 165.02 293.18V294.5H167.3V283.48ZM169.549 288.94C169.549 292.34 171.849 294.68 174.749 294.68C176.549 294.68 177.869 293.84 178.569 292.84V294.5H180.869V279.7H178.569V285.02C177.729 283.98 176.209 283.3 174.769 283.3C171.849 283.3 169.549 285.54 169.549 288.94ZM178.569 288.98C178.569 291.36 176.949 292.7 175.229 292.7C173.529 292.7 171.889 291.32 171.889 288.94C171.889 286.56 173.529 285.28 175.229 285.28C176.949 285.28 178.569 286.62 178.569 288.98ZM188.299 287.52C188.299 291.7 191.479 294.62 195.399 294.62C198.299 294.62 200.799 293.18 201.859 290.46H199.119C198.379 291.94 197.059 292.64 195.399 292.64C192.639 292.64 190.639 290.66 190.639 287.52C190.639 284.38 192.639 282.42 195.399 282.42C197.059 282.42 198.379 283.12 199.119 284.6H201.859C200.799 281.88 198.299 280.42 195.399 280.42C191.479 280.42 188.299 283.36 188.299 287.52ZM215.027 288.98C215.027 285.52 212.547 283.3 209.407 283.3C206.267 283.3 203.787 285.52 203.787 288.98C203.787 292.44 206.167 294.68 209.307 294.68C212.467 294.68 215.027 292.44 215.027 288.98ZM206.107 288.98C206.107 286.48 207.647 285.28 209.367 285.28C211.067 285.28 212.687 286.48 212.687 288.98C212.687 291.48 211.007 292.7 209.307 292.7C207.587 292.7 206.107 291.48 206.107 288.98ZM232.901 294.5H235.161V288C235.161 284.92 233.201 283.3 230.621 283.3C229.021 283.3 227.461 284.14 226.781 285.48C226.021 284.04 224.561 283.3 222.821 283.3C221.501 283.3 220.301 283.84 219.561 284.74V283.48H217.281V294.5H219.561V288.34C219.561 286.32 220.661 285.28 222.341 285.28C224.001 285.28 225.101 286.32 225.101 288.34V294.5H227.361V288.34C227.361 286.32 228.461 285.28 230.141 285.28C231.801 285.28 232.901 286.32 232.901 288.34V294.5ZM240.343 285.1V283.48H238.063V299.74H240.343V292.9C241.063 293.76 242.363 294.68 244.183 294.68C247.083 294.68 249.363 292.34 249.363 288.94C249.363 285.54 247.083 283.3 244.183 283.3C242.383 283.3 241.043 284.18 240.343 285.1ZM247.043 288.94C247.043 291.32 245.403 292.7 243.683 292.7C241.983 292.7 240.343 291.36 240.343 288.98C240.343 286.62 241.983 285.28 243.683 285.28C245.403 285.28 247.043 286.56 247.043 288.94ZM261.597 283.48H259.317V289.62C259.317 291.64 258.217 292.68 256.537 292.68C254.877 292.68 253.777 291.64 253.777 289.62V283.48H251.517V289.96C251.517 293.04 253.477 294.66 256.057 294.66C257.357 294.66 258.597 294.12 259.317 293.18V294.5H261.597V283.48ZM264.965 291.44C264.965 293.68 266.185 294.5 268.145 294.5H269.945V292.6H268.545C267.585 292.6 267.265 292.26 267.265 291.44V285.34H269.945V283.48H267.265V280.74H264.965V283.48H263.665V285.34H264.965V291.44ZM272.047 294.5H274.327V283.48H272.047V294.5ZM273.207 282.02C274.007 282.02 274.647 281.38 274.647 280.56C274.647 279.74 274.007 279.1 273.207 279.1C272.387 279.1 271.747 279.74 271.747 280.56C271.747 281.38 272.387 282.02 273.207 282.02ZM285.14 294.5H287.4V288C287.4 284.92 285.46 283.3 282.88 283.3C281.56 283.3 280.34 283.84 279.6 284.74V283.48H277.32V294.5H279.6V288.34C279.6 286.32 280.7 285.28 282.38 285.28C284.04 285.28 285.14 286.32 285.14 288.34V294.5ZM289.549 288.94C289.549 292.34 291.849 294.68 294.749 294.68C296.549 294.68 297.869 293.78 298.569 292.84V294.68C298.569 296.88 297.249 297.96 295.489 297.96C293.909 297.96 292.689 297.18 292.349 296.04H290.089C290.369 298.48 292.549 299.94 295.489 299.94C298.929 299.94 300.869 297.68 300.869 294.68V283.48H298.569V285.08C297.889 284.14 296.549 283.3 294.749 283.3C291.849 283.3 289.549 285.54 289.549 288.94ZM298.569 288.98C298.569 291.36 296.949 292.7 295.229 292.7C293.529 292.7 291.889 291.32 291.889 288.94C291.889 286.56 293.529 285.28 295.229 285.28C296.949 285.28 298.569 286.62 298.569 288.98Z" fill="#212832"/>
<rect x="0.5" y="262.5" width="616" height="49" stroke="black" stroke-opacity="0.5"/>
<rect width="617" height="58" fill="#3498DB"/>
<path d="M33.925 32.95C33.925 26.8 24.975 28.75 24.975 25.25C24.975 23.825 26 23.15 27.375 23.2C28.875 23.225 29.8 24.125 29.875 25.275H33.725C33.5 22.125 31.05 20.3 27.475 20.3C23.875 20.3 21.325 22.2 21.325 25.35C21.3 31.675 30.3 29.4 30.3 33.175C30.3 34.425 29.325 35.3 27.675 35.3C26.05 35.3 25.125 34.375 25.025 32.975H21.275C21.325 36.275 24.125 38.175 27.75 38.175C31.725 38.175 33.925 35.7 33.925 32.95ZM43.4094 26.8C45.2094 26.8 46.6594 27.95 46.7094 29.775H40.1344C40.4094 27.875 41.7344 26.8 43.4094 26.8ZM49.9844 33.65H46.2094C45.7594 34.575 44.9344 35.325 43.4344 35.325C41.6844 35.325 40.2844 34.175 40.1094 32.125H50.2344C50.3094 31.675 50.3344 31.225 50.3344 30.775C50.3344 26.65 47.5094 23.925 43.5094 23.925C39.4094 23.925 36.5594 26.7 36.5594 31.075C36.5594 35.425 39.4844 38.225 43.5094 38.225C46.9344 38.225 49.2344 36.2 49.9844 33.65ZM72.7641 38H76.2641V29.875C76.2641 26.05 73.9141 23.95 70.5891 23.95C68.5641 23.95 66.7391 25.025 65.8391 26.6C64.8891 24.875 63.1141 23.95 60.9641 23.95C59.2391 23.95 57.7641 24.675 56.8891 25.825V24.15H53.3891V38H56.8891V30.35C56.8891 28.15 58.1141 27 60.0141 27C61.8641 27 63.0891 28.15 63.0891 30.35V38H66.5891V30.35C66.5891 28.15 67.8141 27 69.6891 27C71.5391 27 72.7641 28.15 72.7641 30.35V38ZM86.0354 26.8C87.8354 26.8 89.2854 27.95 89.3354 29.775H82.7604C83.0354 27.875 84.3604 26.8 86.0354 26.8ZM92.6104 33.65H88.8354C88.3854 34.575 87.5604 35.325 86.0604 35.325C84.3104 35.325 82.9104 34.175 82.7354 32.125H92.8604C92.9354 31.675 92.9604 31.225 92.9604 30.775C92.9604 26.65 90.1354 23.925 86.1354 23.925C82.0354 23.925 79.1854 26.7 79.1854 31.075C79.1854 35.425 82.1104 38.225 86.1354 38.225C89.5604 38.225 91.8604 36.2 92.6104 33.65ZM106.765 34.05C106.665 28.975 98.99 30.55 98.99 28.025C98.99 27.225 99.665 26.7 100.965 26.7C102.34 26.7 103.19 27.425 103.29 28.5H106.64C106.44 25.75 104.415 23.925 101.065 23.925C97.64 23.925 95.59 25.775 95.59 28.075C95.59 33.15 103.415 31.575 103.415 34.05C103.415 34.85 102.665 35.475 101.29 35.475C99.89 35.475 98.915 34.675 98.79 33.625H95.265C95.415 36.2 97.84 38.225 101.315 38.225C104.69 38.225 106.765 36.425 106.765 34.05ZM110.688 33.7C110.688 36.875 112.463 38 115.113 38H117.313V35.05H115.688C114.588 35.05 114.213 34.65 114.213 33.725V27.025H117.313V24.15H114.213V20.725H110.688V24.15H109.038V27.025H110.688V33.7ZM126.28 26.8C128.08 26.8 129.53 27.95 129.58 29.775H123.005C123.28 27.875 124.605 26.8 126.28 26.8ZM132.855 33.65H129.08C128.63 34.575 127.805 35.325 126.305 35.325C124.555 35.325 123.155 34.175 122.98 32.125H133.105C133.18 31.675 133.205 31.225 133.205 30.775C133.205 26.65 130.38 23.925 126.38 23.925C122.28 23.925 119.43 26.7 119.43 31.075C119.43 35.425 122.355 38.225 126.38 38.225C129.805 38.225 132.105 36.2 132.855 33.65ZM139.76 31.1C139.76 28.425 141.01 27.625 143.085 27.625H144.01V23.95C142.085 23.95 140.635 24.875 139.76 26.3V24.15H136.26V38H139.76V31.1ZM161.525 38H165.025V34.45H167.225V31.4H165.025V20H160.95L152.775 31.7V34.45H161.525V38ZM156.625 31.4L161.75 23.75V31.4H156.625Z" fill="white"/>
</svg>
