<svg width="617" height="344" viewBox="0 0 617 344" fill="none" xmlns="http://www.w3.org/2000/svg">
<rect y="66" width="617" height="50" fill="white"/>
<path d="M24.6 94.44C26.08 94.44 27.24 93.3 27.24 91.84C27.24 90.36 26.08 89.22 24.6 89.22C23.16 89.22 22 90.36 22 91.84C22 93.3 23.16 94.44 24.6 94.44ZM45.6689 84.6H41.1289V98.5H45.6689C50.1289 98.5 53.0489 95.88 53.0489 91.6C53.0489 87.3 50.1289 84.6 45.6689 84.6ZM43.4089 96.64V86.46H45.6689C48.9489 86.46 50.7089 88.42 50.7089 91.6C50.7089 94.76 48.9489 96.64 45.6689 96.64H43.4089ZM54.5486 92.94C54.5486 96.34 56.8486 98.68 59.7086 98.68C61.5486 98.68 62.8686 97.8 63.5686 96.86V98.5H65.8686V87.48H63.5686V89.08C62.8886 88.18 61.6086 87.3 59.7486 87.3C56.8486 87.3 54.5486 89.54 54.5486 92.94ZM63.5686 92.98C63.5686 95.36 61.9486 96.7 60.2286 96.7C58.5286 96.7 56.8886 95.32 56.8886 92.94C56.8886 90.56 58.5286 89.28 60.2286 89.28C61.9486 89.28 63.5686 90.62 63.5686 92.98ZM69.2233 95.44C69.2233 97.68 70.4433 98.5 72.4033 98.5H74.2033V96.6H72.8033C71.8433 96.6 71.5233 96.26 71.5233 95.44V89.34H74.2033V87.48H71.5233V84.74H69.2233V87.48H67.9233V89.34H69.2233V95.44ZM75.5447 92.94C75.5447 96.34 77.8447 98.68 80.7047 98.68C82.5447 98.68 83.8647 97.8 84.5647 96.86V98.5H86.8647V87.48H84.5647V89.08C83.8847 88.18 82.6047 87.3 80.7447 87.3C77.8447 87.3 75.5447 89.54 75.5447 92.94ZM84.5647 92.98C84.5647 95.36 82.9447 96.7 81.2247 96.7C79.5247 96.7 77.8847 95.32 77.8847 92.94C77.8847 90.56 79.5247 89.28 81.2247 89.28C82.9447 89.28 84.5647 90.62 84.5647 92.98ZM104.435 94.56C104.435 89.48 97.0747 91.44 97.0747 88.3C97.0747 86.96 98.0947 86.32 99.4147 86.36C100.855 86.4 101.675 87.26 101.755 88.2H104.275C104.075 85.82 102.195 84.42 99.5347 84.42C96.6947 84.42 94.7547 85.94 94.7547 88.38C94.7547 93.5 102.135 91.32 102.135 94.68C102.135 95.86 101.235 96.72 99.6347 96.72C98.0547 96.72 97.2547 95.8 97.1547 94.66H94.7147C94.7147 97.12 96.8547 98.64 99.6347 98.64C102.735 98.64 104.435 96.64 104.435 94.56ZM107.485 95.44C107.485 97.68 108.705 98.5 110.665 98.5H112.465V96.6H111.065C110.105 96.6 109.785 96.26 109.785 95.44V89.34H112.465V87.48H109.785V84.74H107.485V87.48H106.185V89.34H107.485V95.44ZM116.846 92.7C116.846 90.36 117.886 89.66 119.566 89.66H120.146V87.3C118.586 87.3 117.486 87.98 116.846 89.08V87.48H114.566V98.5H116.846V92.7ZM132.222 87.48H129.942V93.62C129.942 95.64 128.842 96.68 127.162 96.68C125.502 96.68 124.402 95.64 124.402 93.62V87.48H122.142V93.96C122.142 97.04 124.102 98.66 126.682 98.66C127.982 98.66 129.222 98.12 129.942 97.18V98.5H132.222V87.48ZM134.47 92.98C134.47 96.44 136.71 98.68 139.87 98.68C142.57 98.68 144.33 97.18 144.95 95.02H142.49C142.07 96.16 141.23 96.76 139.87 96.76C138.03 96.76 136.81 95.4 136.81 92.98C136.81 90.58 138.03 89.22 139.87 89.22C141.23 89.22 142.11 89.9 142.49 90.96H144.95C144.33 88.64 142.57 87.3 139.87 87.3C136.71 87.3 134.47 89.54 134.47 92.98ZM147.583 95.44C147.583 97.68 148.803 98.5 150.763 98.5H152.563V96.6H151.163C150.203 96.6 149.883 96.26 149.883 95.44V89.34H152.563V87.48H149.883V84.74H147.583V87.48H146.283V89.34H147.583V95.44ZM164.644 87.48H162.364V93.62C162.364 95.64 161.264 96.68 159.584 96.68C157.924 96.68 156.824 95.64 156.824 93.62V87.48H154.564V93.96C154.564 97.04 156.524 98.66 159.104 98.66C160.404 98.66 161.644 98.12 162.364 97.18V98.5H164.644V87.48ZM169.932 92.7C169.932 90.36 170.972 89.66 172.652 89.66H173.232V87.3C171.672 87.3 170.572 87.98 169.932 89.08V87.48H167.652V98.5H169.932V92.7ZM179.968 89.22C181.668 89.22 183.008 90.3 183.048 92H176.948C177.188 90.26 178.428 89.22 179.968 89.22ZM185.128 95.22H182.668C182.248 96.08 181.468 96.76 180.068 96.76C178.388 96.76 177.088 95.66 176.928 93.84H185.348C185.408 93.46 185.428 93.1 185.428 92.72C185.428 89.48 183.208 87.3 180.068 87.3C176.808 87.3 174.568 89.52 174.568 92.98C174.568 96.44 176.908 98.68 180.068 98.68C182.768 98.68 184.508 97.14 185.128 95.22ZM195.892 95.42C195.772 91.44 189.552 92.68 189.552 90.46C189.552 89.72 190.192 89.22 191.412 89.22C192.652 89.22 193.392 89.88 193.472 90.84H195.752C195.632 88.64 193.992 87.3 191.492 87.3C188.892 87.3 187.252 88.72 187.252 90.48C187.252 94.52 193.652 93.28 193.652 95.44C193.652 96.2 192.952 96.76 191.632 96.76C190.372 96.76 189.512 96.02 189.432 95.12H187.072C187.172 97.12 189.032 98.68 191.672 98.68C194.272 98.68 195.892 97.28 195.892 95.42ZM203.531 93.42C203.531 96.96 206.011 98.64 208.931 98.64C211.831 98.64 214.391 96.96 214.391 93.42V84.6H212.111V93.46C212.111 95.62 210.891 96.64 208.951 96.64C207.031 96.64 205.811 95.62 205.811 93.46V84.6H203.531V93.42ZM225.579 95.42C225.459 91.44 219.239 92.68 219.239 90.46C219.239 89.72 219.879 89.22 221.099 89.22C222.339 89.22 223.079 89.88 223.159 90.84H225.439C225.319 88.64 223.679 87.3 221.179 87.3C218.579 87.3 216.939 88.72 216.939 90.48C216.939 94.52 223.339 93.28 223.339 95.44C223.339 96.2 222.639 96.76 221.319 96.76C220.059 96.76 219.199 96.02 219.119 95.12H216.759C216.859 97.12 218.719 98.68 221.359 98.68C223.959 98.68 225.579 97.28 225.579 95.42ZM228.043 98.5H230.323V87.48H228.043V98.5ZM229.203 86.02C230.003 86.02 230.643 85.38 230.643 84.56C230.643 83.74 230.003 83.1 229.203 83.1C228.383 83.1 227.743 83.74 227.743 84.56C227.743 85.38 228.383 86.02 229.203 86.02ZM241.136 98.5H243.396V92C243.396 88.92 241.456 87.3 238.876 87.3C237.556 87.3 236.336 87.84 235.596 88.74V87.48H233.316V98.5H235.596V92.34C235.596 90.32 236.696 89.28 238.376 89.28C240.036 89.28 241.136 90.32 241.136 92.34V98.5ZM245.545 92.94C245.545 96.34 247.845 98.68 250.745 98.68C252.545 98.68 253.865 97.78 254.565 96.84V98.68C254.565 100.88 253.245 101.96 251.485 101.96C249.905 101.96 248.685 101.18 248.345 100.04H246.085C246.365 102.48 248.545 103.94 251.485 103.94C254.925 103.94 256.865 101.68 256.865 98.68V87.48H254.565V89.08C253.885 88.14 252.545 87.3 250.745 87.3C247.845 87.3 245.545 89.54 245.545 92.94ZM254.565 92.98C254.565 95.36 252.945 96.7 251.225 96.7C249.525 96.7 247.885 95.32 247.885 92.94C247.885 90.56 249.525 89.28 251.225 89.28C252.945 89.28 254.565 90.62 254.565 92.98ZM264.295 91.52C264.295 95.7 267.475 98.62 271.395 98.62C274.295 98.62 276.795 97.18 277.855 94.46H275.115C274.375 95.94 273.055 96.64 271.395 96.64C268.635 96.64 266.635 94.66 266.635 91.52C266.635 88.38 268.635 86.42 271.395 86.42C273.055 86.42 274.375 87.12 275.115 88.6H277.855C276.795 85.88 274.295 84.42 271.395 84.42C267.475 84.42 264.295 87.36 264.295 91.52ZM287.179 102.22H291.339V100.32H289.319V81.7H291.339V79.82H287.179V102.22ZM294.666 91.52C294.666 95.7 297.846 98.62 301.766 98.62C304.666 98.62 307.166 97.18 308.226 94.46H305.486C304.746 95.94 303.426 96.64 301.766 96.64C299.006 96.64 297.006 94.66 297.006 91.52C297.006 88.38 299.006 86.42 301.766 86.42C303.426 86.42 304.746 87.12 305.486 88.6H308.226C307.166 85.88 304.666 84.42 301.766 84.42C297.846 84.42 294.666 87.36 294.666 91.52ZM321.395 92.98C321.395 89.52 318.915 87.3 315.775 87.3C312.635 87.3 310.155 89.52 310.155 92.98C310.155 96.44 312.535 98.68 315.675 98.68C318.835 98.68 321.395 96.44 321.395 92.98ZM312.475 92.98C312.475 90.48 314.015 89.28 315.735 89.28C317.435 89.28 319.055 90.48 319.055 92.98C319.055 95.48 317.375 96.7 315.675 96.7C313.955 96.7 312.475 95.48 312.475 92.98ZM325.928 92.7C325.928 90.36 326.968 89.66 328.648 89.66H329.228V87.3C327.668 87.3 326.568 87.98 325.928 89.08V87.48H323.648V98.5H325.928V92.7ZM335.964 89.22C337.664 89.22 339.004 90.3 339.044 92H332.944C333.184 90.26 334.424 89.22 335.964 89.22ZM341.124 95.22H338.664C338.244 96.08 337.464 96.76 336.064 96.76C334.384 96.76 333.084 95.66 332.924 93.84H341.344C341.404 93.46 341.424 93.1 341.424 92.72C341.424 89.48 339.204 87.3 336.064 87.3C332.804 87.3 330.564 89.52 330.564 92.98C330.564 96.44 332.904 98.68 336.064 98.68C338.764 98.68 340.504 97.14 341.124 95.22ZM348.103 91.52C348.103 95.7 351.283 98.62 355.203 98.62C358.103 98.62 360.603 97.18 361.663 94.46H358.923C358.183 95.94 356.863 96.64 355.203 96.64C352.443 96.64 350.443 94.66 350.443 91.52C350.443 88.38 352.443 86.42 355.203 86.42C356.863 86.42 358.183 87.12 358.923 88.6H361.663C360.603 85.88 358.103 84.42 355.203 84.42C351.283 84.42 348.103 87.36 348.103 91.52ZM374.832 92.98C374.832 89.52 372.352 87.3 369.212 87.3C366.072 87.3 363.592 89.52 363.592 92.98C363.592 96.44 365.972 98.68 369.112 98.68C372.272 98.68 374.832 96.44 374.832 92.98ZM365.912 92.98C365.912 90.48 367.452 89.28 369.172 89.28C370.872 89.28 372.492 90.48 372.492 92.98C372.492 95.48 370.812 96.7 369.112 96.7C367.392 96.7 365.912 95.48 365.912 92.98ZM387.066 87.48H384.786V93.62C384.786 95.64 383.686 96.68 382.006 96.68C380.346 96.68 379.246 95.64 379.246 93.62V87.48H376.986V93.96C376.986 97.04 378.946 98.66 381.526 98.66C382.826 98.66 384.066 98.12 384.786 97.18V98.5H387.066V87.48ZM392.354 92.7C392.354 90.36 393.394 89.66 395.074 89.66H395.654V87.3C394.094 87.3 392.994 87.98 392.354 89.08V87.48H390.074V98.5H392.354V92.7ZM405.97 95.42C405.85 91.44 399.63 92.68 399.63 90.46C399.63 89.72 400.27 89.22 401.49 89.22C402.73 89.22 403.47 89.88 403.55 90.84H405.83C405.71 88.64 404.07 87.3 401.57 87.3C398.97 87.3 397.33 88.72 397.33 90.48C397.33 94.52 403.73 93.28 403.73 95.44C403.73 96.2 403.03 96.76 401.71 96.76C400.45 96.76 399.59 96.02 399.51 95.12H397.15C397.25 97.12 399.11 98.68 401.75 98.68C404.35 98.68 405.97 97.28 405.97 95.42ZM413.074 89.22C414.774 89.22 416.114 90.3 416.154 92H410.054C410.294 90.26 411.534 89.22 413.074 89.22ZM418.234 95.22H415.774C415.354 96.08 414.574 96.76 413.174 96.76C411.494 96.76 410.194 95.66 410.034 93.84H418.454C418.514 93.46 418.534 93.1 418.534 92.72C418.534 89.48 416.314 87.3 413.174 87.3C409.914 87.3 407.674 89.52 407.674 92.98C407.674 96.44 410.014 98.68 413.174 98.68C415.874 98.68 417.614 97.14 418.234 95.22ZM428.997 95.42C428.877 91.44 422.657 92.68 422.657 90.46C422.657 89.72 423.297 89.22 424.517 89.22C425.757 89.22 426.497 89.88 426.577 90.84H428.857C428.737 88.64 427.097 87.3 424.597 87.3C421.997 87.3 420.357 88.72 420.357 90.48C420.357 94.52 426.757 93.28 426.757 95.44C426.757 96.2 426.057 96.76 424.737 96.76C423.477 96.76 422.617 96.02 422.537 95.12H420.177C420.277 97.12 422.137 98.68 424.777 98.68C427.377 98.68 428.997 97.28 428.997 95.42ZM436.681 102.22H432.521V100.32H434.541V81.7H432.521V79.82H436.681V102.22Z" fill="#212832"/>
<rect x="0.5" y="66.5" width="616" height="49" stroke="black" stroke-opacity="0.5"/>
<rect y="180" width="617" height="50" fill="white"/>
<path d="M24.6 208.44C26.08 208.44 27.24 207.3 27.24 205.84C27.24 204.36 26.08 203.22 24.6 203.22C23.16 203.22 22 204.36 22 205.84C22 207.3 23.16 208.44 24.6 208.44ZM41.1289 212.5H43.4089V198.6H41.1289V212.5ZM54.2223 212.5H56.4823V206C56.4823 202.92 54.5423 201.3 51.9623 201.3C50.6423 201.3 49.4223 201.84 48.6823 202.74V201.48H46.4023V212.5H48.6823V206.34C48.6823 204.32 49.7823 203.28 51.4623 203.28C53.1223 203.28 54.2223 204.32 54.2223 206.34V212.5ZM58.6306 206.94C58.6306 210.34 60.9306 212.68 63.8306 212.68C65.6306 212.68 66.9506 211.84 67.6506 210.84V212.5H69.9506V197.7H67.6506V203.02C66.8106 201.98 65.2906 201.3 63.8506 201.3C60.9306 201.3 58.6306 203.54 58.6306 206.94ZM67.6506 206.98C67.6506 209.36 66.0306 210.7 64.3106 210.7C62.6106 210.7 60.9706 209.32 60.9706 206.94C60.9706 204.56 62.6106 203.28 64.3106 203.28C66.0306 203.28 67.6506 204.62 67.6506 206.98ZM72.9453 212.5H75.2253V201.48H72.9453V212.5ZM74.1053 200.02C74.9053 200.02 75.5453 199.38 75.5453 198.56C75.5453 197.74 74.9053 197.1 74.1053 197.1C73.2853 197.1 72.6453 197.74 72.6453 198.56C72.6453 199.38 73.2853 200.02 74.1053 200.02ZM76.9188 201.48L81.0988 212.5H83.8188L88.0187 201.48H85.5988L82.4788 210.46L79.3587 201.48H76.9188ZM89.7422 212.5H92.0222V201.48H89.7422V212.5ZM90.9022 200.02C91.7022 200.02 92.3422 199.38 92.3422 198.56C92.3422 197.74 91.7022 197.1 90.9022 197.1C90.0822 197.1 89.4422 197.74 89.4422 198.56C89.4422 199.38 90.0822 200.02 90.9022 200.02ZM94.2556 206.94C94.2556 210.34 96.5556 212.68 99.4556 212.68C101.256 212.68 102.576 211.84 103.276 210.84V212.5H105.576V197.7H103.276V203.02C102.436 201.98 100.916 201.3 99.4756 201.3C96.5556 201.3 94.2556 203.54 94.2556 206.94ZM103.276 206.98C103.276 209.36 101.656 210.7 99.9356 210.7C98.2356 210.7 96.5956 209.32 96.5956 206.94C96.5956 204.56 98.2356 203.28 99.9356 203.28C101.656 203.28 103.276 204.62 103.276 206.98ZM118.55 201.48H116.27V207.62C116.27 209.64 115.17 210.68 113.49 210.68C111.83 210.68 110.73 209.64 110.73 207.62V201.48H108.47V207.96C108.47 211.04 110.43 212.66 113.01 212.66C114.31 212.66 115.55 212.12 116.27 211.18V212.5H118.55V201.48ZM120.799 206.94C120.799 210.34 123.099 212.68 125.959 212.68C127.799 212.68 129.119 211.8 129.819 210.86V212.5H132.119V201.48H129.819V203.08C129.139 202.18 127.859 201.3 125.999 201.3C123.099 201.3 120.799 203.54 120.799 206.94ZM129.819 206.98C129.819 209.36 128.199 210.7 126.479 210.7C124.779 210.7 123.139 209.32 123.139 206.94C123.139 204.56 124.779 203.28 126.479 203.28C128.199 203.28 129.819 204.62 129.819 206.98ZM135.113 212.5H137.393V197.7H135.113V212.5ZM153.262 198.58H145.582V212.5H153.262V210.64H147.862V206.38H152.662V204.52H147.862V200.44H153.262V198.58ZM161.77 212.5H164.35L160.79 206.92L164.35 201.48H161.97L159.73 205.22L157.35 201.48H154.77L158.33 207.08L154.77 212.5H157.15L159.39 208.76L161.77 212.5ZM165.291 206.98C165.291 210.44 167.531 212.68 170.691 212.68C173.391 212.68 175.151 211.18 175.771 209.02H173.311C172.891 210.16 172.051 210.76 170.691 210.76C168.851 210.76 167.631 209.4 167.631 206.98C167.631 204.58 168.851 203.22 170.691 203.22C172.051 203.22 172.931 203.9 173.311 204.96H175.771C175.151 202.64 173.391 201.3 170.691 201.3C167.531 201.3 165.291 203.54 165.291 206.98ZM182.683 203.22C184.383 203.22 185.723 204.3 185.763 206H179.663C179.903 204.26 181.143 203.22 182.683 203.22ZM187.843 209.22H185.383C184.963 210.08 184.183 210.76 182.783 210.76C181.103 210.76 179.803 209.66 179.643 207.84H188.063C188.123 207.46 188.143 207.1 188.143 206.72C188.143 203.48 185.923 201.3 182.783 201.3C179.523 201.3 177.283 203.52 177.283 206.98C177.283 210.44 179.623 212.68 182.783 212.68C185.483 212.68 187.223 211.14 187.843 209.22ZM190.387 212.5H192.667V197.7H190.387V212.5ZM195.66 212.5H197.94V197.7H195.66V212.5ZM205.574 203.22C207.274 203.22 208.614 204.3 208.654 206H202.554C202.794 204.26 204.034 203.22 205.574 203.22ZM210.734 209.22H208.274C207.854 210.08 207.074 210.76 205.674 210.76C203.994 210.76 202.694 209.66 202.534 207.84H210.954C211.014 207.46 211.034 207.1 211.034 206.72C211.034 203.48 208.814 201.3 205.674 201.3C202.414 201.3 200.174 203.52 200.174 206.98C200.174 210.44 202.514 212.68 205.674 212.68C208.374 212.68 210.114 211.14 210.734 209.22ZM221.097 212.5H223.357V206C223.357 202.92 221.417 201.3 218.837 201.3C217.517 201.3 216.297 201.84 215.557 202.74V201.48H213.277V212.5H215.557V206.34C215.557 204.32 216.657 203.28 218.337 203.28C219.997 203.28 221.097 204.32 221.097 206.34V212.5ZM225.506 206.98C225.506 210.44 227.746 212.68 230.906 212.68C233.606 212.68 235.366 211.18 235.986 209.02H233.526C233.106 210.16 232.266 210.76 230.906 210.76C229.066 210.76 227.846 209.4 227.846 206.98C227.846 204.58 229.066 203.22 230.906 203.22C232.266 203.22 233.146 203.9 233.526 204.96H235.986C235.366 202.64 233.606 201.3 230.906 201.3C227.746 201.3 225.506 203.54 225.506 206.98ZM242.898 203.22C244.598 203.22 245.938 204.3 245.978 206H239.878C240.118 204.26 241.358 203.22 242.898 203.22ZM248.058 209.22H245.598C245.178 210.08 244.398 210.76 242.998 210.76C241.318 210.76 240.018 209.66 239.858 207.84H248.278C248.338 207.46 248.358 207.1 248.358 206.72C248.358 203.48 246.138 201.3 242.998 201.3C239.738 201.3 237.498 203.52 237.498 206.98C237.498 210.44 239.838 212.68 242.998 212.68C245.698 212.68 247.438 211.14 248.058 209.22ZM255.037 206.94C255.037 210.34 257.337 212.68 260.197 212.68C262.037 212.68 263.357 211.8 264.057 210.86V212.5H266.357V201.48H264.057V203.08C263.377 202.18 262.097 201.3 260.237 201.3C257.337 201.3 255.037 203.54 255.037 206.94ZM264.057 206.98C264.057 209.36 262.437 210.7 260.717 210.7C259.017 210.7 257.377 209.32 257.377 206.94C257.377 204.56 259.017 203.28 260.717 203.28C262.437 203.28 264.057 204.62 264.057 206.98ZM277.172 212.5H279.432V206C279.432 202.92 277.492 201.3 274.912 201.3C273.592 201.3 272.372 201.84 271.632 202.74V201.48H269.352V212.5H271.632V206.34C271.632 204.32 272.732 203.28 274.412 203.28C276.072 203.28 277.172 204.32 277.172 206.34V212.5ZM281.58 206.94C281.58 210.34 283.88 212.68 286.78 212.68C288.58 212.68 289.9 211.84 290.6 210.84V212.5H292.9V197.7H290.6V203.02C289.76 201.98 288.24 201.3 286.8 201.3C283.88 201.3 281.58 203.54 281.58 206.94ZM290.6 206.98C290.6 209.36 288.98 210.7 287.26 210.7C285.56 210.7 283.92 209.32 283.92 206.94C283.92 204.56 285.56 203.28 287.26 203.28C288.98 203.28 290.6 204.62 290.6 206.98ZM310.47 208.56C310.47 203.48 303.11 205.44 303.11 202.3C303.11 200.96 304.13 200.32 305.45 200.36C306.89 200.4 307.71 201.26 307.79 202.2H310.31C310.11 199.82 308.23 198.42 305.57 198.42C302.73 198.42 300.79 199.94 300.79 202.38C300.79 207.5 308.17 205.32 308.17 208.68C308.17 209.86 307.27 210.72 305.67 210.72C304.09 210.72 303.29 209.8 303.19 208.66H300.75C300.75 211.12 302.89 212.64 305.67 212.64C308.77 212.64 310.47 210.64 310.47 208.56ZM323.66 206.98C323.66 203.52 321.18 201.3 318.04 201.3C314.9 201.3 312.42 203.52 312.42 206.98C312.42 210.44 314.8 212.68 317.94 212.68C321.1 212.68 323.66 210.44 323.66 206.98ZM314.74 206.98C314.74 204.48 316.28 203.28 318 203.28C319.7 203.28 321.32 204.48 321.32 206.98C321.32 209.48 319.64 210.7 317.94 210.7C316.22 210.7 314.74 209.48 314.74 206.98ZM325.154 206.98C325.154 210.44 327.394 212.68 330.554 212.68C333.254 212.68 335.014 211.18 335.634 209.02H333.174C332.754 210.16 331.914 210.76 330.554 210.76C328.714 210.76 327.494 209.4 327.494 206.98C327.494 204.58 328.714 203.22 330.554 203.22C331.914 203.22 332.794 203.9 333.174 204.96H335.634C335.014 202.64 333.254 201.3 330.554 201.3C327.394 201.3 325.154 203.54 325.154 206.98ZM337.906 212.5H340.186V201.48H337.906V212.5ZM339.066 200.02C339.866 200.02 340.506 199.38 340.506 198.56C340.506 197.74 339.866 197.1 339.066 197.1C338.246 197.1 337.606 197.74 337.606 198.56C337.606 199.38 338.246 200.02 339.066 200.02ZM342.42 206.94C342.42 210.34 344.72 212.68 347.58 212.68C349.42 212.68 350.74 211.8 351.44 210.86V212.5H353.74V201.48H351.44V203.08C350.76 202.18 349.48 201.3 347.62 201.3C344.72 201.3 342.42 203.54 342.42 206.94ZM351.44 206.98C351.44 209.36 349.82 210.7 348.1 210.7C346.4 210.7 344.76 209.32 344.76 206.94C344.76 204.56 346.4 203.28 348.1 203.28C349.82 203.28 351.44 204.62 351.44 206.98ZM356.734 212.5H359.014V197.7H356.734V212.5ZM371.743 198.6H367.203V212.5H371.743C376.203 212.5 379.123 209.88 379.123 205.6C379.123 201.3 376.203 198.6 371.743 198.6ZM369.483 210.64V200.46H371.743C375.023 200.46 376.783 202.42 376.783 205.6C376.783 208.76 375.023 210.64 371.743 210.64H369.483ZM385.723 209.88L382.623 201.48H380.083L384.423 212.32L382.183 217.68H384.543L391.303 201.48H388.943L385.723 209.88ZM400.843 212.5H403.103V206C403.103 202.92 401.163 201.3 398.583 201.3C397.263 201.3 396.043 201.84 395.303 202.74V201.48H393.023V212.5H395.303V206.34C395.303 204.32 396.403 203.28 398.083 203.28C399.743 203.28 400.843 204.32 400.843 206.34V212.5ZM405.252 206.94C405.252 210.34 407.552 212.68 410.412 212.68C412.252 212.68 413.572 211.8 414.272 210.86V212.5H416.572V201.48H414.272V203.08C413.592 202.18 412.312 201.3 410.452 201.3C407.552 201.3 405.252 203.54 405.252 206.94ZM414.272 206.98C414.272 209.36 412.652 210.7 410.932 210.7C409.232 210.7 407.592 209.32 407.592 206.94C407.592 204.56 409.232 203.28 410.932 203.28C412.652 203.28 414.272 204.62 414.272 206.98ZM435.186 212.5H437.446V206C437.446 202.92 435.486 201.3 432.906 201.3C431.306 201.3 429.746 202.14 429.066 203.48C428.306 202.04 426.846 201.3 425.106 201.3C423.786 201.3 422.586 201.84 421.846 202.74V201.48H419.566V212.5H421.846V206.34C421.846 204.32 422.946 203.28 424.626 203.28C426.286 203.28 427.386 204.32 427.386 206.34V212.5H429.646V206.34C429.646 204.32 430.746 203.28 432.426 203.28C434.086 203.28 435.186 204.32 435.186 206.34V212.5ZM440.348 212.5H442.628V201.48H440.348V212.5ZM441.508 200.02C442.308 200.02 442.948 199.38 442.948 198.56C442.948 197.74 442.308 197.1 441.508 197.1C440.688 197.1 440.048 197.74 440.048 198.56C440.048 199.38 440.688 200.02 441.508 200.02ZM444.861 206.98C444.861 210.44 447.101 212.68 450.261 212.68C452.961 212.68 454.721 211.18 455.341 209.02H452.881C452.461 210.16 451.621 210.76 450.261 210.76C448.421 210.76 447.201 209.4 447.201 206.98C447.201 204.58 448.421 203.22 450.261 203.22C451.621 203.22 452.501 203.9 452.881 204.96H455.341C454.721 202.64 452.961 201.3 450.261 201.3C447.101 201.3 444.861 203.54 444.861 206.98Z" fill="#212832"/>
<rect x="0.5" y="180.5" width="616" height="49" stroke="black" stroke-opacity="0.5"/>
<rect y="123" width="617" height="50" fill="white"/>
<path d="M24.6 151.44C26.08 151.44 27.24 150.3 27.24 148.84C27.24 147.36 26.08 146.22 24.6 146.22C23.16 146.22 22 147.36 22 148.84C22 150.3 23.16 151.44 24.6 151.44ZM48.8089 141.58H41.1289V155.5H48.8089V153.64H43.4089V149.38H48.2089V147.52H43.4089V143.44H48.8089V141.58ZM59.4372 155.5H61.6972V149C61.6972 145.92 59.7572 144.3 57.1772 144.3C55.8572 144.3 54.6372 144.84 53.8972 145.74V144.48H51.6172V155.5H53.8972V149.34C53.8972 147.32 54.9972 146.28 56.6772 146.28C58.3372 146.28 59.4372 147.32 59.4372 149.34V155.5ZM63.3055 144.48L67.4855 155.5H70.2055L74.4055 144.48H71.9855L68.8655 153.46L65.7455 144.48H63.3055ZM76.1289 155.5H78.4089V144.48H76.1289V155.5ZM77.2889 143.02C78.0889 143.02 78.7289 142.38 78.7289 141.56C78.7289 140.74 78.0889 140.1 77.2889 140.1C76.4689 140.1 75.8289 140.74 75.8289 141.56C75.8289 142.38 76.4689 143.02 77.2889 143.02ZM83.6823 149.7C83.6823 147.36 84.7223 146.66 86.4023 146.66H86.9823V144.3C85.4223 144.3 84.3223 144.98 83.6823 146.08V144.48H81.4023V155.5H83.6823V149.7ZM99.5781 149.98C99.5781 146.52 97.0981 144.3 93.9581 144.3C90.8181 144.3 88.3381 146.52 88.3381 149.98C88.3381 153.44 90.7181 155.68 93.8581 155.68C97.0181 155.68 99.5781 153.44 99.5781 149.98ZM90.6581 149.98C90.6581 147.48 92.1981 146.28 93.9181 146.28C95.6181 146.28 97.2381 147.48 97.2381 149.98C97.2381 152.48 95.5581 153.7 93.8581 153.7C92.1381 153.7 90.6581 152.48 90.6581 149.98ZM109.652 155.5H111.912V149C111.912 145.92 109.972 144.3 107.392 144.3C106.072 144.3 104.852 144.84 104.112 145.74V144.48H101.832V155.5H104.112V149.34C104.112 147.32 105.212 146.28 106.892 146.28C108.552 146.28 109.652 147.32 109.652 149.34V155.5ZM130.44 155.5H132.7V149C132.7 145.92 130.74 144.3 128.16 144.3C126.56 144.3 125 145.14 124.32 146.48C123.56 145.04 122.1 144.3 120.36 144.3C119.04 144.3 117.84 144.84 117.1 145.74V144.48H114.82V155.5H117.1V149.34C117.1 147.32 118.2 146.28 119.88 146.28C121.54 146.28 122.64 147.32 122.64 149.34V155.5H124.9V149.34C124.9 147.32 126 146.28 127.68 146.28C129.34 146.28 130.44 147.32 130.44 149.34V155.5ZM140.242 146.22C141.942 146.22 143.282 147.3 143.322 149H137.222C137.462 147.26 138.702 146.22 140.242 146.22ZM145.402 152.22H142.942C142.522 153.08 141.742 153.76 140.342 153.76C138.662 153.76 137.362 152.66 137.202 150.84H145.622C145.682 150.46 145.702 150.1 145.702 149.72C145.702 146.48 143.482 144.3 140.342 144.3C137.082 144.3 134.842 146.52 134.842 149.98C134.842 153.44 137.182 155.68 140.342 155.68C143.042 155.68 144.782 154.14 145.402 152.22ZM155.765 155.5H158.025V149C158.025 145.92 156.085 144.3 153.505 144.3C152.185 144.3 150.965 144.84 150.225 145.74V144.48H147.945V155.5H150.225V149.34C150.225 147.32 151.325 146.28 153.005 146.28C154.665 146.28 155.765 147.32 155.765 149.34V155.5ZM161.294 152.44C161.294 154.68 162.514 155.5 164.474 155.5H166.274V153.6H164.874C163.914 153.6 163.594 153.26 163.594 152.44V146.34H166.274V144.48H163.594V141.74H161.294V144.48H159.994V146.34H161.294V152.44ZM167.615 149.94C167.615 153.34 169.915 155.68 172.775 155.68C174.615 155.68 175.935 154.8 176.635 153.86V155.5H178.935V144.48H176.635V146.08C175.955 145.18 174.675 144.3 172.815 144.3C169.915 144.3 167.615 146.54 167.615 149.94ZM176.635 149.98C176.635 152.36 175.015 153.7 173.295 153.7C171.595 153.7 169.955 152.32 169.955 149.94C169.955 147.56 171.595 146.28 173.295 146.28C175.015 146.28 176.635 147.62 176.635 149.98ZM181.93 155.5H184.21V140.7H181.93V155.5ZM201.778 151.56C201.778 146.48 194.418 148.44 194.418 145.3C194.418 143.96 195.438 143.32 196.758 143.36C198.198 143.4 199.018 144.26 199.098 145.2H201.618C201.418 142.82 199.538 141.42 196.878 141.42C194.038 141.42 192.098 142.94 192.098 145.38C192.098 150.5 199.478 148.32 199.478 151.68C199.478 152.86 198.578 153.72 196.978 153.72C195.398 153.72 194.598 152.8 194.498 151.66H192.058C192.058 154.12 194.198 155.64 196.978 155.64C200.078 155.64 201.778 153.64 201.778 151.56ZM204.829 152.44C204.829 154.68 206.049 155.5 208.009 155.5H209.809V153.6H208.409C207.449 153.6 207.129 153.26 207.129 152.44V146.34H209.809V144.48H207.129V141.74H204.829V144.48H203.529V146.34H204.829V152.44ZM221.89 144.48H219.61V150.62C219.61 152.64 218.51 153.68 216.83 153.68C215.17 153.68 214.07 152.64 214.07 150.62V144.48H211.81V150.96C211.81 154.04 213.77 155.66 216.35 155.66C217.65 155.66 218.89 155.12 219.61 154.18V155.5H221.89V144.48ZM224.138 149.94C224.138 153.34 226.438 155.68 229.338 155.68C231.138 155.68 232.458 154.84 233.158 153.84V155.5H235.458V140.7H233.158V146.02C232.318 144.98 230.798 144.3 229.358 144.3C226.438 144.3 224.138 146.54 224.138 149.94ZM233.158 149.98C233.158 152.36 231.538 153.7 229.818 153.7C228.118 153.7 226.478 152.32 226.478 149.94C226.478 147.56 228.118 146.28 229.818 146.28C231.538 146.28 233.158 147.62 233.158 149.98ZM238.453 155.5H240.733V144.48H238.453V155.5ZM239.613 143.02C240.413 143.02 241.053 142.38 241.053 141.56C241.053 140.74 240.413 140.1 239.613 140.1C238.793 140.1 238.153 140.74 238.153 141.56C238.153 142.38 238.793 143.02 239.613 143.02ZM248.367 146.22C250.067 146.22 251.407 147.3 251.447 149H245.347C245.587 147.26 246.827 146.22 248.367 146.22ZM253.527 152.22H251.067C250.647 153.08 249.867 153.76 248.467 153.76C246.787 153.76 245.487 152.66 245.327 150.84H253.747C253.807 150.46 253.827 150.1 253.827 149.72C253.827 146.48 251.607 144.3 248.467 144.3C245.207 144.3 242.967 146.52 242.967 149.98C242.967 153.44 245.307 155.68 248.467 155.68C251.167 155.68 252.907 154.14 253.527 152.22ZM264.29 152.42C264.17 148.44 257.95 149.68 257.95 147.46C257.95 146.72 258.59 146.22 259.81 146.22C261.05 146.22 261.79 146.88 261.87 147.84H264.15C264.03 145.64 262.39 144.3 259.89 144.3C257.29 144.3 255.65 145.72 255.65 147.48C255.65 151.52 262.05 150.28 262.05 152.44C262.05 153.2 261.35 153.76 260.03 153.76C258.77 153.76 257.91 153.02 257.83 152.12H255.47C255.57 154.12 257.43 155.68 260.07 155.68C262.67 155.68 264.29 154.28 264.29 152.42ZM273.409 159.22H277.569V157.32H275.549V138.7H277.569V136.82H273.409V159.22ZM280.896 148.52C280.896 152.7 284.076 155.62 287.996 155.62C290.896 155.62 293.396 154.18 294.456 151.46H291.716C290.976 152.94 289.656 153.64 287.996 153.64C285.236 153.64 283.236 151.66 283.236 148.52C283.236 145.38 285.236 143.42 287.996 143.42C289.656 143.42 290.976 144.12 291.716 145.6H294.456C293.396 142.88 290.896 141.42 287.996 141.42C284.076 141.42 280.896 144.36 280.896 148.52ZM307.625 149.98C307.625 146.52 305.145 144.3 302.005 144.3C298.865 144.3 296.385 146.52 296.385 149.98C296.385 153.44 298.765 155.68 301.905 155.68C305.065 155.68 307.625 153.44 307.625 149.98ZM298.705 149.98C298.705 147.48 300.245 146.28 301.965 146.28C303.665 146.28 305.285 147.48 305.285 149.98C305.285 152.48 303.605 153.7 301.905 153.7C300.185 153.7 298.705 152.48 298.705 149.98ZM312.159 149.7C312.159 147.36 313.199 146.66 314.879 146.66H315.459V144.3C313.899 144.3 312.799 144.98 312.159 146.08V144.48H309.879V155.5H312.159V149.7ZM322.195 146.22C323.895 146.22 325.235 147.3 325.275 149H319.175C319.415 147.26 320.655 146.22 322.195 146.22ZM327.355 152.22H324.895C324.475 153.08 323.695 153.76 322.295 153.76C320.615 153.76 319.315 152.66 319.155 150.84H327.575C327.635 150.46 327.655 150.1 327.655 149.72C327.655 146.48 325.435 144.3 322.295 144.3C319.035 144.3 316.795 146.52 316.795 149.98C316.795 153.44 319.135 155.68 322.295 155.68C324.995 155.68 326.735 154.14 327.355 152.22ZM334.334 148.52C334.334 152.7 337.514 155.62 341.434 155.62C344.334 155.62 346.834 154.18 347.894 151.46H345.154C344.414 152.94 343.094 153.64 341.434 153.64C338.674 153.64 336.674 151.66 336.674 148.52C336.674 145.38 338.674 143.42 341.434 143.42C343.094 143.42 344.414 144.12 345.154 145.6H347.894C346.834 142.88 344.334 141.42 341.434 141.42C337.514 141.42 334.334 144.36 334.334 148.52ZM361.063 149.98C361.063 146.52 358.583 144.3 355.443 144.3C352.303 144.3 349.823 146.52 349.823 149.98C349.823 153.44 352.203 155.68 355.343 155.68C358.503 155.68 361.063 153.44 361.063 149.98ZM352.143 149.98C352.143 147.48 353.683 146.28 355.403 146.28C357.103 146.28 358.723 147.48 358.723 149.98C358.723 152.48 357.043 153.7 355.343 153.7C353.623 153.7 352.143 152.48 352.143 149.98ZM373.296 144.48H371.016V150.62C371.016 152.64 369.916 153.68 368.236 153.68C366.576 153.68 365.476 152.64 365.476 150.62V144.48H363.216V150.96C363.216 154.04 365.176 155.66 367.756 155.66C369.056 155.66 370.296 155.12 371.016 154.18V155.5H373.296V144.48ZM378.585 149.7C378.585 147.36 379.625 146.66 381.305 146.66H381.885V144.3C380.325 144.3 379.225 144.98 378.585 146.08V144.48H376.305V155.5H378.585V149.7ZM392.2 152.42C392.08 148.44 385.86 149.68 385.86 147.46C385.86 146.72 386.5 146.22 387.72 146.22C388.96 146.22 389.7 146.88 389.78 147.84H392.06C391.94 145.64 390.3 144.3 387.8 144.3C385.2 144.3 383.56 145.72 383.56 147.48C383.56 151.52 389.96 150.28 389.96 152.44C389.96 153.2 389.26 153.76 387.94 153.76C386.68 153.76 385.82 153.02 385.74 152.12H383.38C383.48 154.12 385.34 155.68 387.98 155.68C390.58 155.68 392.2 154.28 392.2 152.42ZM399.304 146.22C401.004 146.22 402.344 147.3 402.384 149H396.284C396.524 147.26 397.764 146.22 399.304 146.22ZM404.464 152.22H402.004C401.584 153.08 400.804 153.76 399.404 153.76C397.724 153.76 396.424 152.66 396.264 150.84H404.684C404.744 150.46 404.764 150.1 404.764 149.72C404.764 146.48 402.544 144.3 399.404 144.3C396.144 144.3 393.904 146.52 393.904 149.98C393.904 153.44 396.244 155.68 399.404 155.68C402.104 155.68 403.844 154.14 404.464 152.22ZM415.228 152.42C415.108 148.44 408.888 149.68 408.888 147.46C408.888 146.72 409.528 146.22 410.748 146.22C411.988 146.22 412.728 146.88 412.808 147.84H415.088C414.968 145.64 413.328 144.3 410.828 144.3C408.228 144.3 406.588 145.72 406.588 147.48C406.588 151.52 412.988 150.28 412.988 152.44C412.988 153.2 412.288 153.76 410.968 153.76C409.708 153.76 408.848 153.02 408.768 152.12H406.408C406.508 154.12 408.368 155.68 411.008 155.68C413.608 155.68 415.228 154.28 415.228 152.42ZM422.911 159.22H418.751V157.32H420.771V138.7H418.751V136.82H422.911V159.22Z" fill="#212832"/>
<rect x="0.5" y="123.5" width="616" height="49" stroke="black" stroke-opacity="0.5"/>
<rect y="237" width="617" height="50" fill="white"/>
<path d="M24.6 265.44C26.08 265.44 27.24 264.3 27.24 262.84C27.24 261.36 26.08 260.22 24.6 260.22C23.16 260.22 22 261.36 22 262.84C22 264.3 23.16 265.44 24.6 265.44ZM54.5689 262.52C54.5689 258.36 51.4289 255.42 47.4689 255.42C43.5489 255.42 40.3689 258.36 40.3689 262.52C40.3689 266.7 43.5489 269.64 47.4689 269.64C51.4289 269.64 54.5689 266.7 54.5689 262.52ZM42.7089 262.52C42.7089 259.38 44.7089 257.42 47.4689 257.42C50.2289 257.42 52.2289 259.38 52.2289 262.52C52.2289 265.66 50.2289 267.66 47.4689 267.66C44.7089 267.66 42.7089 265.66 42.7089 262.52ZM59.0925 260.1V258.48H56.8125V274.74H59.0925V267.9C59.8125 268.76 61.1125 269.68 62.9325 269.68C65.8325 269.68 68.1125 267.34 68.1125 263.94C68.1125 260.54 65.8325 258.3 62.9325 258.3C61.1325 258.3 59.7925 259.18 59.0925 260.1ZM65.7925 263.94C65.7925 266.32 64.1525 267.7 62.4325 267.7C60.7325 267.7 59.0925 266.36 59.0925 263.98C59.0925 261.62 60.7325 260.28 62.4325 260.28C64.1525 260.28 65.7925 261.56 65.7925 263.94ZM75.0072 260.22C76.7072 260.22 78.0472 261.3 78.0872 263H71.9872C72.2272 261.26 73.4672 260.22 75.0072 260.22ZM80.1672 266.22H77.7072C77.2872 267.08 76.5072 267.76 75.1072 267.76C73.4272 267.76 72.1272 266.66 71.9672 264.84H80.3872C80.4472 264.46 80.4672 264.1 80.4672 263.72C80.4672 260.48 78.2472 258.3 75.1072 258.3C71.8472 258.3 69.6072 260.52 69.6072 263.98C69.6072 267.44 71.9472 269.68 75.1072 269.68C77.8072 269.68 79.5472 268.14 80.1672 266.22ZM84.9909 263.7C84.9909 261.36 86.0309 260.66 87.7109 260.66H88.2909V258.3C86.7309 258.3 85.6309 258.98 84.9909 260.08V258.48H82.7109V269.5H84.9909V263.7ZM89.6267 263.94C89.6267 267.34 91.9267 269.68 94.7867 269.68C96.6267 269.68 97.9467 268.8 98.6467 267.86V269.5H100.947V258.48H98.6467V260.08C97.9667 259.18 96.6867 258.3 94.8267 258.3C91.9267 258.3 89.6267 260.54 89.6267 263.94ZM98.6467 263.98C98.6467 266.36 97.0267 267.7 95.3067 267.7C93.6067 267.7 91.9667 266.32 91.9667 263.94C91.9667 261.56 93.6067 260.28 95.3067 260.28C97.0267 260.28 98.6467 261.62 98.6467 263.98ZM104.301 266.44C104.301 268.68 105.521 269.5 107.481 269.5H109.281V267.6H107.881C106.921 267.6 106.601 267.26 106.601 266.44V260.34H109.281V258.48H106.601V255.74H104.301V258.48H103.001V260.34H104.301V266.44ZM111.383 269.5H113.663V258.48H111.383V269.5ZM112.543 257.02C113.343 257.02 113.983 256.38 113.983 255.56C113.983 254.74 113.343 254.1 112.543 254.1C111.723 254.1 111.083 254.74 111.083 255.56C111.083 256.38 111.723 257.02 112.543 257.02ZM124.476 269.5H126.736V263C126.736 259.92 124.796 258.3 122.216 258.3C120.896 258.3 119.676 258.84 118.936 259.74V258.48H116.656V269.5H118.936V263.34C118.936 261.32 120.036 260.28 121.716 260.28C123.376 260.28 124.476 261.32 124.476 263.34V269.5ZM128.885 263.94C128.885 267.34 131.185 269.68 134.085 269.68C135.885 269.68 137.205 268.78 137.905 267.84V269.68C137.905 271.88 136.585 272.96 134.825 272.96C133.245 272.96 132.025 272.18 131.685 271.04H129.425C129.705 273.48 131.885 274.94 134.825 274.94C138.265 274.94 140.205 272.68 140.205 269.68V258.48H137.905V260.08C137.225 259.14 135.885 258.3 134.085 258.3C131.185 258.3 128.885 260.54 128.885 263.94ZM137.905 263.98C137.905 266.36 136.285 267.7 134.565 267.7C132.865 267.7 131.225 266.32 131.225 263.94C131.225 261.56 132.865 260.28 134.565 260.28C136.285 260.28 137.905 261.62 137.905 263.98ZM157.775 265.56C157.775 260.48 150.415 262.44 150.415 259.3C150.415 257.96 151.435 257.32 152.755 257.36C154.195 257.4 155.015 258.26 155.095 259.2H157.615C157.415 256.82 155.535 255.42 152.875 255.42C150.035 255.42 148.095 256.94 148.095 259.38C148.095 264.5 155.475 262.32 155.475 265.68C155.475 266.86 154.575 267.72 152.975 267.72C151.395 267.72 150.595 266.8 150.495 265.66H148.055C148.055 268.12 150.195 269.64 152.975 269.64C156.075 269.64 157.775 267.64 157.775 265.56ZM164.805 266.88L161.705 258.48H159.165L163.505 269.32L161.265 274.68H163.625L170.385 258.48H168.025L164.805 266.88ZM180.325 266.42C180.205 262.44 173.985 263.68 173.985 261.46C173.985 260.72 174.625 260.22 175.845 260.22C177.085 260.22 177.825 260.88 177.905 261.84H180.185C180.065 259.64 178.425 258.3 175.925 258.3C173.325 258.3 171.685 259.72 171.685 261.48C171.685 265.52 178.085 264.28 178.085 266.44C178.085 267.2 177.385 267.76 176.065 267.76C174.805 267.76 173.945 267.02 173.865 266.12H171.505C171.605 268.12 173.465 269.68 176.105 269.68C178.705 269.68 180.325 268.28 180.325 266.42ZM183.149 266.44C183.149 268.68 184.369 269.5 186.329 269.5H188.129V267.6H186.729C185.769 267.6 185.449 267.26 185.449 266.44V260.34H188.129V258.48H185.449V255.74H183.149V258.48H181.849V260.34H183.149V266.44ZM194.87 260.22C196.57 260.22 197.91 261.3 197.95 263H191.85C192.09 261.26 193.33 260.22 194.87 260.22ZM200.03 266.22H197.57C197.15 267.08 196.37 267.76 194.97 267.76C193.29 267.76 191.99 266.66 191.83 264.84H200.25C200.31 264.46 200.33 264.1 200.33 263.72C200.33 260.48 198.11 258.3 194.97 258.3C191.71 258.3 189.47 260.52 189.47 263.98C189.47 267.44 191.81 269.68 194.97 269.68C197.67 269.68 199.41 268.14 200.03 266.22ZM218.194 269.5H220.454V263C220.454 259.92 218.494 258.3 215.914 258.3C214.314 258.3 212.754 259.14 212.074 260.48C211.314 259.04 209.854 258.3 208.114 258.3C206.794 258.3 205.594 258.84 204.854 259.74V258.48H202.574V269.5H204.854V263.34C204.854 261.32 205.954 260.28 207.634 260.28C209.294 260.28 210.394 261.32 210.394 263.34V269.5H212.654V263.34C212.654 261.32 213.754 260.28 215.434 260.28C217.094 260.28 218.194 261.32 218.194 263.34V269.5ZM227.791 262.52C227.791 266.7 230.971 269.62 234.891 269.62C237.791 269.62 240.291 268.18 241.351 265.46H238.611C237.871 266.94 236.551 267.64 234.891 267.64C232.131 267.64 230.131 265.66 230.131 262.52C230.131 259.38 232.131 257.42 234.891 257.42C236.551 257.42 237.871 258.12 238.611 259.6H241.351C240.291 256.88 237.791 255.42 234.891 255.42C230.971 255.42 227.791 258.36 227.791 262.52ZM254.52 263.98C254.52 260.52 252.04 258.3 248.9 258.3C245.76 258.3 243.28 260.52 243.28 263.98C243.28 267.44 245.66 269.68 248.8 269.68C251.96 269.68 254.52 267.44 254.52 263.98ZM245.6 263.98C245.6 261.48 247.14 260.28 248.86 260.28C250.56 260.28 252.18 261.48 252.18 263.98C252.18 266.48 250.5 267.7 248.8 267.7C247.08 267.7 245.6 266.48 245.6 263.98ZM264.593 269.5H266.853V263C266.853 259.92 264.913 258.3 262.333 258.3C261.013 258.3 259.793 258.84 259.053 259.74V258.48H256.773V269.5H259.053V263.34C259.053 261.32 260.153 260.28 261.833 260.28C263.493 260.28 264.593 261.32 264.593 263.34V269.5ZM269.002 263.98C269.002 267.44 271.242 269.68 274.402 269.68C277.102 269.68 278.862 268.18 279.482 266.02H277.022C276.602 267.16 275.762 267.76 274.402 267.76C272.562 267.76 271.342 266.4 271.342 263.98C271.342 261.58 272.562 260.22 274.402 260.22C275.762 260.22 276.642 260.9 277.022 261.96H279.482C278.862 259.64 277.102 258.3 274.402 258.3C271.242 258.3 269.002 260.54 269.002 263.98ZM286.394 260.22C288.094 260.22 289.434 261.3 289.474 263H283.374C283.614 261.26 284.854 260.22 286.394 260.22ZM291.554 266.22H289.094C288.674 267.08 287.894 267.76 286.494 267.76C284.814 267.76 283.514 266.66 283.354 264.84H291.774C291.834 264.46 291.854 264.1 291.854 263.72C291.854 260.48 289.634 258.3 286.494 258.3C283.234 258.3 280.994 260.52 280.994 263.98C280.994 267.44 283.334 269.68 286.494 269.68C289.194 269.68 290.934 268.14 291.554 266.22ZM296.378 260.1V258.48H294.098V274.74H296.378V267.9C297.098 268.76 298.398 269.68 300.218 269.68C303.118 269.68 305.398 267.34 305.398 263.94C305.398 260.54 303.118 258.3 300.218 258.3C298.418 258.3 297.078 259.18 296.378 260.1ZM303.078 263.94C303.078 266.32 301.438 267.7 299.718 267.7C298.018 267.7 296.378 266.36 296.378 263.98C296.378 261.62 298.018 260.28 299.718 260.28C301.438 260.28 303.078 261.56 303.078 263.94ZM308.012 266.44C308.012 268.68 309.232 269.5 311.192 269.5H312.992V267.6H311.592C310.632 267.6 310.312 267.26 310.312 266.44V260.34H312.992V258.48H310.312V255.74H308.012V258.48H306.712V260.34H308.012V266.44ZM323.314 266.42C323.194 262.44 316.974 263.68 316.974 261.46C316.974 260.72 317.614 260.22 318.834 260.22C320.074 260.22 320.814 260.88 320.894 261.84H323.174C323.054 259.64 321.414 258.3 318.914 258.3C316.314 258.3 314.674 259.72 314.674 261.48C314.674 265.52 321.074 264.28 321.074 266.44C321.074 267.2 320.374 267.76 319.054 267.76C317.794 267.76 316.934 267.02 316.854 266.12H314.494C314.594 268.12 316.454 269.68 319.094 269.68C321.694 269.68 323.314 268.28 323.314 266.42Z" fill="#212832"/>
<rect x="0.5" y="237.5" width="616" height="49" stroke="black" stroke-opacity="0.5"/>
<rect y="294" width="617" height="50" fill="white"/>
<path d="M24.6 322.44C26.08 322.44 27.24 321.3 27.24 319.84C27.24 318.36 26.08 317.22 24.6 317.22C23.16 317.22 22 318.36 22 319.84C22 321.3 23.16 322.44 24.6 322.44ZM50.5089 322.56C50.5089 317.48 43.1489 319.44 43.1489 316.3C43.1489 314.96 44.1689 314.32 45.4889 314.36C46.9289 314.4 47.7489 315.26 47.8289 316.2H50.3489C50.1489 313.82 48.2689 312.42 45.6089 312.42C42.7689 312.42 40.8289 313.94 40.8289 316.38C40.8289 321.5 48.2089 319.32 48.2089 322.68C48.2089 323.86 47.3089 324.72 45.7089 324.72C44.1289 324.72 43.3289 323.8 43.2289 322.66H40.7889C40.7889 325.12 42.9289 326.64 45.7089 326.64C48.8089 326.64 50.5089 324.64 50.5089 322.56ZM63.6992 320.98C63.6992 317.52 61.2192 315.3 58.0792 315.3C54.9392 315.3 52.4592 317.52 52.4592 320.98C52.4592 324.44 54.8392 326.68 57.9792 326.68C61.1392 326.68 63.6992 324.44 63.6992 320.98ZM54.7792 320.98C54.7792 318.48 56.3192 317.28 58.0392 317.28C59.7392 317.28 61.3592 318.48 61.3592 320.98C61.3592 323.48 59.6792 324.7 57.9792 324.7C56.2592 324.7 54.7792 323.48 54.7792 320.98ZM66.2331 326.5H68.5331V317.34H70.5731V315.48H68.5331V314.7C68.5331 313.44 69.0131 312.96 70.4131 312.96V311.06C67.5331 311.06 66.2331 312.16 66.2331 314.7V315.48H64.9331V317.34H66.2331V326.5ZM72.9538 323.44C72.9538 325.68 74.1738 326.5 76.1338 326.5H77.9338V324.6H76.5338C75.5738 324.6 75.2538 324.26 75.2538 323.44V317.34H77.9338V315.48H75.2538V312.74H72.9538V315.48H71.6538V317.34H72.9538V323.44ZM82.1752 326.5H84.5752L86.7952 318.36L89.0152 326.5H91.4152L94.8352 315.48H92.5952L90.3152 324.3L88.0752 315.48H85.6952L83.3552 324.34L81.0552 315.48H78.7352L82.1752 326.5ZM95.7791 320.94C95.7791 324.34 98.0791 326.68 100.939 326.68C102.779 326.68 104.099 325.8 104.799 324.86V326.5H107.099V315.48H104.799V317.08C104.119 316.18 102.839 315.3 100.979 315.3C98.0791 315.3 95.7791 317.54 95.7791 320.94ZM104.799 320.98C104.799 323.36 103.179 324.7 101.459 324.7C99.7591 324.7 98.1191 323.32 98.1191 320.94C98.1191 318.56 99.7591 317.28 101.459 317.28C103.179 317.28 104.799 318.62 104.799 320.98ZM112.374 320.7C112.374 318.36 113.414 317.66 115.094 317.66H115.674V315.3C114.114 315.3 113.014 315.98 112.374 317.08V315.48H110.094V326.5H112.374V320.7ZM122.41 317.22C124.11 317.22 125.45 318.3 125.49 320H119.39C119.63 318.26 120.87 317.22 122.41 317.22ZM127.57 323.22H125.11C124.69 324.08 123.91 324.76 122.51 324.76C120.83 324.76 119.53 323.66 119.37 321.84H127.79C127.85 321.46 127.87 321.1 127.87 320.72C127.87 317.48 125.65 315.3 122.51 315.3C119.25 315.3 117.01 317.52 117.01 320.98C117.01 324.44 119.35 326.68 122.51 326.68C125.21 326.68 126.95 325.14 127.57 323.22ZM142.989 312.58H135.309V326.5H142.989V324.64H137.589V320.38H142.389V318.52H137.589V314.44H142.989V312.58ZM153.617 326.5H155.877V320C155.877 316.92 153.937 315.3 151.357 315.3C150.037 315.3 148.817 315.84 148.077 316.74V315.48H145.797V326.5H148.077V320.34C148.077 318.32 149.177 317.28 150.857 317.28C152.517 317.28 153.617 318.32 153.617 320.34V326.5ZM158.025 320.94C158.025 324.34 160.325 326.68 163.225 326.68C165.025 326.68 166.345 325.78 167.045 324.84V326.68C167.045 328.88 165.725 329.96 163.965 329.96C162.385 329.96 161.165 329.18 160.825 328.04H158.565C158.845 330.48 161.025 331.94 163.965 331.94C167.405 331.94 169.345 329.68 169.345 326.68V315.48H167.045V317.08C166.365 316.14 165.025 315.3 163.225 315.3C160.325 315.3 158.025 317.54 158.025 320.94ZM167.045 320.98C167.045 323.36 165.425 324.7 163.705 324.7C162.005 324.7 160.365 323.32 160.365 320.94C160.365 318.56 162.005 317.28 163.705 317.28C165.425 317.28 167.045 318.62 167.045 320.98ZM172.34 326.5H174.62V315.48H172.34V326.5ZM173.5 314.02C174.3 314.02 174.94 313.38 174.94 312.56C174.94 311.74 174.3 311.1 173.5 311.1C172.68 311.1 172.04 311.74 172.04 312.56C172.04 313.38 172.68 314.02 173.5 314.02ZM185.433 326.5H187.693V320C187.693 316.92 185.753 315.3 183.173 315.3C181.853 315.3 180.633 315.84 179.893 316.74V315.48H177.613V326.5H179.893V320.34C179.893 318.32 180.993 317.28 182.673 317.28C184.333 317.28 185.433 318.32 185.433 320.34V326.5ZM195.242 317.22C196.942 317.22 198.282 318.3 198.322 320H192.222C192.462 318.26 193.702 317.22 195.242 317.22ZM200.402 323.22H197.942C197.522 324.08 196.742 324.76 195.342 324.76C193.662 324.76 192.362 323.66 192.202 321.84H200.622C200.682 321.46 200.702 321.1 200.702 320.72C200.702 317.48 198.482 315.3 195.342 315.3C192.082 315.3 189.842 317.52 189.842 320.98C189.842 324.44 192.182 326.68 195.342 326.68C198.042 326.68 199.782 325.14 200.402 323.22ZM207.585 317.22C209.285 317.22 210.625 318.3 210.665 320H204.565C204.805 318.26 206.045 317.22 207.585 317.22ZM212.745 323.22H210.285C209.865 324.08 209.085 324.76 207.685 324.76C206.005 324.76 204.705 323.66 204.545 321.84H212.965C213.025 321.46 213.045 321.1 213.045 320.72C213.045 317.48 210.825 315.3 207.685 315.3C204.425 315.3 202.185 317.52 202.185 320.98C202.185 324.44 204.525 326.68 207.685 326.68C210.385 326.68 212.125 325.14 212.745 323.22ZM217.569 320.7C217.569 318.36 218.609 317.66 220.289 317.66H220.869V315.3C219.309 315.3 218.209 315.98 217.569 317.08V315.48H215.289V326.5H217.569V320.7ZM222.965 326.5H225.245V315.48H222.965V326.5ZM224.125 314.02C224.925 314.02 225.565 313.38 225.565 312.56C225.565 311.74 224.925 311.1 224.125 311.1C223.305 311.1 222.665 311.74 222.665 312.56C222.665 313.38 223.305 314.02 224.125 314.02ZM236.058 326.5H238.318V320C238.318 316.92 236.378 315.3 233.798 315.3C232.478 315.3 231.258 315.84 230.518 316.74V315.48H228.238V326.5H230.518V320.34C230.518 318.32 231.618 317.28 233.298 317.28C234.958 317.28 236.058 318.32 236.058 320.34V326.5ZM240.467 320.94C240.467 324.34 242.767 326.68 245.667 326.68C247.467 326.68 248.787 325.78 249.487 324.84V326.68C249.487 328.88 248.167 329.96 246.407 329.96C244.827 329.96 243.607 329.18 243.267 328.04H241.007C241.287 330.48 243.467 331.94 246.407 331.94C249.847 331.94 251.787 329.68 251.787 326.68V315.48H249.487V317.08C248.807 316.14 247.467 315.3 245.667 315.3C242.767 315.3 240.467 317.54 240.467 320.94ZM249.487 320.98C249.487 323.36 247.867 324.7 246.147 324.7C244.447 324.7 242.807 323.32 242.807 320.94C242.807 318.56 244.447 317.28 246.147 317.28C247.867 317.28 249.487 318.62 249.487 320.98ZM259.217 320.94C259.217 324.34 261.517 326.68 264.377 326.68C266.217 326.68 267.537 325.8 268.237 324.86V326.5H270.537V315.48H268.237V317.08C267.557 316.18 266.277 315.3 264.417 315.3C261.517 315.3 259.217 317.54 259.217 320.94ZM268.237 320.98C268.237 323.36 266.617 324.7 264.897 324.7C263.197 324.7 261.557 323.32 261.557 320.94C261.557 318.56 263.197 317.28 264.897 317.28C266.617 317.28 268.237 318.62 268.237 320.98ZM281.351 326.5H283.611V320C283.611 316.92 281.671 315.3 279.091 315.3C277.771 315.3 276.551 315.84 275.811 316.74V315.48H273.531V326.5H275.811V320.34C275.811 318.32 276.911 317.28 278.591 317.28C280.251 317.28 281.351 318.32 281.351 320.34V326.5ZM285.76 320.94C285.76 324.34 288.06 326.68 290.96 326.68C292.76 326.68 294.08 325.84 294.78 324.84V326.5H297.08V311.7H294.78V317.02C293.94 315.98 292.42 315.3 290.98 315.3C288.06 315.3 285.76 317.54 285.76 320.94ZM294.78 320.98C294.78 323.36 293.16 324.7 291.44 324.7C289.74 324.7 288.1 323.32 288.1 320.94C288.1 318.56 289.74 317.28 291.44 317.28C293.16 317.28 294.78 318.62 294.78 320.98ZM305.27 326.5H307.55V316.98L311.81 326.5H313.39L317.63 316.98V326.5H319.91V312.6H317.47L312.61 323.5L307.73 312.6H305.27V326.5ZM333.406 320.98C333.406 317.52 330.926 315.3 327.786 315.3C324.646 315.3 322.166 317.52 322.166 320.98C322.166 324.44 324.546 326.68 327.686 326.68C330.846 326.68 333.406 324.44 333.406 320.98ZM324.486 320.98C324.486 318.48 326.026 317.28 327.746 317.28C329.446 317.28 331.066 318.48 331.066 320.98C331.066 323.48 329.386 324.7 327.686 324.7C325.966 324.7 324.486 323.48 324.486 320.98ZM334.9 320.94C334.9 324.34 337.2 326.68 340.1 326.68C341.9 326.68 343.22 325.84 343.92 324.84V326.5H346.22V311.7H343.92V317.02C343.08 315.98 341.56 315.3 340.12 315.3C337.2 315.3 334.9 317.54 334.9 320.94ZM343.92 320.98C343.92 323.36 342.3 324.7 340.58 324.7C338.88 324.7 337.24 323.32 337.24 320.94C337.24 318.56 338.88 317.28 340.58 317.28C342.3 317.28 343.92 318.62 343.92 320.98ZM353.855 317.22C355.555 317.22 356.895 318.3 356.935 320H350.835C351.075 318.26 352.315 317.22 353.855 317.22ZM359.015 323.22H356.555C356.135 324.08 355.355 324.76 353.955 324.76C352.275 324.76 350.975 323.66 350.815 321.84H359.235C359.295 321.46 359.315 321.1 359.315 320.72C359.315 317.48 357.095 315.3 353.955 315.3C350.695 315.3 348.455 317.52 348.455 320.98C348.455 324.44 350.795 326.68 353.955 326.68C356.655 326.68 358.395 325.14 359.015 323.22ZM361.559 326.5H363.839V311.7H361.559V326.5ZM366.832 326.5H369.112V315.48H366.832V326.5ZM367.992 314.02C368.792 314.02 369.432 313.38 369.432 312.56C369.432 311.74 368.792 311.1 367.992 311.1C367.172 311.1 366.532 311.74 366.532 312.56C366.532 313.38 367.172 314.02 367.992 314.02ZM379.925 326.5H382.185V320C382.185 316.92 380.245 315.3 377.665 315.3C376.345 315.3 375.125 315.84 374.385 316.74V315.48H372.105V326.5H374.385V320.34C374.385 318.32 375.485 317.28 377.165 317.28C378.825 317.28 379.925 318.32 379.925 320.34V326.5ZM384.334 320.94C384.334 324.34 386.634 326.68 389.534 326.68C391.334 326.68 392.654 325.78 393.354 324.84V326.68C393.354 328.88 392.034 329.96 390.274 329.96C388.694 329.96 387.474 329.18 387.134 328.04H384.874C385.154 330.48 387.334 331.94 390.274 331.94C393.714 331.94 395.654 329.68 395.654 326.68V315.48H393.354V317.08C392.674 316.14 391.334 315.3 389.534 315.3C386.634 315.3 384.334 317.54 384.334 320.94ZM393.354 320.98C393.354 323.36 391.734 324.7 390.014 324.7C388.314 324.7 386.674 323.32 386.674 320.94C386.674 318.56 388.314 317.28 390.014 317.28C391.734 317.28 393.354 318.62 393.354 320.98ZM411.244 330.22V330C408.444 327.12 407.024 323.18 407.024 319.22C407.024 315.26 408.444 310.98 411.644 308.04V307.82H409.284C406.244 310.52 404.824 314.86 404.824 319.22C404.824 323.58 406.244 327.68 408.884 330.22H411.244ZM413.668 321.42C413.668 324.96 416.148 326.64 419.068 326.64C421.968 326.64 424.528 324.96 424.528 321.42V312.6H422.248V321.46C422.248 323.62 421.028 324.64 419.088 324.64C417.168 324.64 415.948 323.62 415.948 321.46V312.6H413.668V321.42ZM433.836 312.42C429.916 312.42 426.736 315.36 426.736 319.52C426.736 323.7 429.916 326.62 433.836 326.62C437.576 326.62 440.296 323.88 440.716 320.66V318.88H433.056V320.7H438.276C437.936 323.04 436.356 324.56 433.836 324.56C431.076 324.56 429.076 322.58 429.076 319.52C429.076 316.46 431.076 314.5 433.836 314.5C435.496 314.5 436.816 315.2 437.556 316.6H440.296C439.236 313.88 436.736 312.42 433.836 312.42ZM442.405 330.22V330C445.205 327.12 446.625 323.18 446.625 319.22C446.625 315.26 445.205 310.98 442.005 308.04V307.82H444.365C447.405 310.52 448.825 314.86 448.825 319.22C448.825 323.58 447.405 327.68 444.765 330.22H442.405ZM467.384 322.56C467.384 317.48 460.024 319.44 460.024 316.3C460.024 314.96 461.044 314.32 462.364 314.36C463.804 314.4 464.624 315.26 464.704 316.2H467.224C467.024 313.82 465.144 312.42 462.484 312.42C459.644 312.42 457.704 313.94 457.704 316.38C457.704 321.5 465.084 319.32 465.084 322.68C465.084 323.86 464.184 324.72 462.584 324.72C461.004 324.72 460.204 323.8 460.104 322.66H457.664C457.664 325.12 459.804 326.64 462.584 326.64C465.684 326.64 467.384 324.64 467.384 322.56ZM474.414 323.88L471.314 315.48H468.774L473.114 326.32L470.874 331.68H473.234L479.994 315.48H477.634L474.414 323.88ZM481.715 326.5H483.995V311.7H481.715V326.5ZM486.988 326.5H489.268V311.7H486.988V326.5ZM491.502 320.94C491.502 324.34 493.802 326.68 496.662 326.68C498.502 326.68 499.822 325.8 500.522 324.86V326.5H502.822V315.48H500.522V317.08C499.842 316.18 498.562 315.3 496.702 315.3C493.802 315.3 491.502 317.54 491.502 320.94ZM500.522 320.98C500.522 323.36 498.902 324.7 497.182 324.7C495.482 324.7 493.842 323.32 493.842 320.94C493.842 318.56 495.482 317.28 497.182 317.28C498.902 317.28 500.522 318.62 500.522 320.98ZM508.096 317.12V311.7H505.816V326.5H508.096V324.9C508.816 325.86 510.116 326.68 511.936 326.68C514.836 326.68 517.116 324.34 517.116 320.94C517.116 317.54 514.856 315.3 511.936 315.3C510.196 315.3 508.816 316.12 508.096 317.12ZM514.796 320.94C514.796 323.32 513.156 324.7 511.436 324.7C509.736 324.7 508.096 323.36 508.096 320.98C508.096 318.62 509.736 317.28 511.436 317.28C513.156 317.28 514.796 318.56 514.796 320.94ZM529.351 315.48H527.071V321.62C527.071 323.64 525.971 324.68 524.291 324.68C522.631 324.68 521.531 323.64 521.531 321.62V315.48H519.271V321.96C519.271 325.04 521.231 326.66 523.811 326.66C525.111 326.66 526.351 326.12 527.071 325.18V326.5H529.351V315.48ZM540.579 323.42C540.459 319.44 534.239 320.68 534.239 318.46C534.239 317.72 534.879 317.22 536.099 317.22C537.339 317.22 538.079 317.88 538.159 318.84H540.439C540.319 316.64 538.679 315.3 536.179 315.3C533.579 315.3 531.939 316.72 531.939 318.48C531.939 322.52 538.339 321.28 538.339 323.44C538.339 324.2 537.639 324.76 536.319 324.76C535.059 324.76 534.199 324.02 534.119 323.12H531.759C531.859 325.12 533.719 326.68 536.359 326.68C538.959 326.68 540.579 325.28 540.579 323.42Z" fill="#212832"/>
<rect x="0.5" y="294.5" width="616" height="49" stroke="black" stroke-opacity="0.5"/>
<rect width="617" height="58" fill="#3498DB"/>
<path d="M33.925 32.95C33.925 26.8 24.975 28.75 24.975 25.25C24.975 23.825 26 23.15 27.375 23.2C28.875 23.225 29.8 24.125 29.875 25.275H33.725C33.5 22.125 31.05 20.3 27.475 20.3C23.875 20.3 21.325 22.2 21.325 25.35C21.3 31.675 30.3 29.4 30.3 33.175C30.3 34.425 29.325 35.3 27.675 35.3C26.05 35.3 25.125 34.375 25.025 32.975H21.275C21.325 36.275 24.125 38.175 27.75 38.175C31.725 38.175 33.925 35.7 33.925 32.95ZM43.4094 26.8C45.2094 26.8 46.6594 27.95 46.7094 29.775H40.1344C40.4094 27.875 41.7344 26.8 43.4094 26.8ZM49.9844 33.65H46.2094C45.7594 34.575 44.9344 35.325 43.4344 35.325C41.6844 35.325 40.2844 34.175 40.1094 32.125H50.2344C50.3094 31.675 50.3344 31.225 50.3344 30.775C50.3344 26.65 47.5094 23.925 43.5094 23.925C39.4094 23.925 36.5594 26.7 36.5594 31.075C36.5594 35.425 39.4844 38.225 43.5094 38.225C46.9344 38.225 49.2344 36.2 49.9844 33.65ZM72.7641 38H76.2641V29.875C76.2641 26.05 73.9141 23.95 70.5891 23.95C68.5641 23.95 66.7391 25.025 65.8391 26.6C64.8891 24.875 63.1141 23.95 60.9641 23.95C59.2391 23.95 57.7641 24.675 56.8891 25.825V24.15H53.3891V38H56.8891V30.35C56.8891 28.15 58.1141 27 60.0141 27C61.8641 27 63.0891 28.15 63.0891 30.35V38H66.5891V30.35C66.5891 28.15 67.8141 27 69.6891 27C71.5391 27 72.7641 28.15 72.7641 30.35V38ZM86.0354 26.8C87.8354 26.8 89.2854 27.95 89.3354 29.775H82.7604C83.0354 27.875 84.3604 26.8 86.0354 26.8ZM92.6104 33.65H88.8354C88.3854 34.575 87.5604 35.325 86.0604 35.325C84.3104 35.325 82.9104 34.175 82.7354 32.125H92.8604C92.9354 31.675 92.9604 31.225 92.9604 30.775C92.9604 26.65 90.1354 23.925 86.1354 23.925C82.0354 23.925 79.1854 26.7 79.1854 31.075C79.1854 35.425 82.1104 38.225 86.1354 38.225C89.5604 38.225 91.8604 36.2 92.6104 33.65ZM106.765 34.05C106.665 28.975 98.99 30.55 98.99 28.025C98.99 27.225 99.665 26.7 100.965 26.7C102.34 26.7 103.19 27.425 103.29 28.5H106.64C106.44 25.75 104.415 23.925 101.065 23.925C97.64 23.925 95.59 25.775 95.59 28.075C95.59 33.15 103.415 31.575 103.415 34.05C103.415 34.85 102.665 35.475 101.29 35.475C99.89 35.475 98.915 34.675 98.79 33.625H95.265C95.415 36.2 97.84 38.225 101.315 38.225C104.69 38.225 106.765 36.425 106.765 34.05ZM110.688 33.7C110.688 36.875 112.463 38 115.113 38H117.313V35.05H115.688C114.588 35.05 114.213 34.65 114.213 33.725V27.025H117.313V24.15H114.213V20.725H110.688V24.15H109.038V27.025H110.688V33.7ZM126.28 26.8C128.08 26.8 129.53 27.95 129.58 29.775H123.005C123.28 27.875 124.605 26.8 126.28 26.8ZM132.855 33.65H129.08C128.63 34.575 127.805 35.325 126.305 35.325C124.555 35.325 123.155 34.175 122.98 32.125H133.105C133.18 31.675 133.205 31.225 133.205 30.775C133.205 26.65 130.38 23.925 126.38 23.925C122.28 23.925 119.43 26.7 119.43 31.075C119.43 35.425 122.355 38.225 126.38 38.225C129.805 38.225 132.105 36.2 132.855 33.65ZM139.76 31.1C139.76 28.425 141.01 27.625 143.085 27.625H144.01V23.95C142.085 23.95 140.635 24.875 139.76 26.3V24.15H136.26V38H139.76V31.1ZM152.725 37.75H165.075V34.85H157.7C160.6 32.4 164.675 29.1 164.675 24.875C164.675 21.7 162.7 19.375 158.775 19.375C155.5 19.375 152.825 21.3 152.7 25.475H156.1C156.125 23.55 157.05 22.35 158.725 22.35C160.45 22.35 161.175 23.45 161.175 25.075C161.175 28.425 156.85 31.65 152.725 35.15V37.75Z" fill="white"/>
</svg>
