<svg width="617" height="369" viewBox="0 0 617 369" fill="none" xmlns="http://www.w3.org/2000/svg">
<rect width="617" height="58" fill="#3498DB"/>
<path d="M33.925 32.95C33.925 26.8 24.975 28.75 24.975 25.25C24.975 23.825 26 23.15 27.375 23.2C28.875 23.225 29.8 24.125 29.875 25.275H33.725C33.5 22.125 31.05 20.3 27.475 20.3C23.875 20.3 21.325 22.2 21.325 25.35C21.3 31.675 30.3 29.4 30.3 33.175C30.3 34.425 29.325 35.3 27.675 35.3C26.05 35.3 25.125 34.375 25.025 32.975H21.275C21.325 36.275 24.125 38.175 27.75 38.175C31.725 38.175 33.925 35.7 33.925 32.95ZM43.4094 26.8C45.2094 26.8 46.6594 27.95 46.7094 29.775H40.1344C40.4094 27.875 41.7344 26.8 43.4094 26.8ZM49.9844 33.65H46.2094C45.7594 34.575 44.9344 35.325 43.4344 35.325C41.6844 35.325 40.2844 34.175 40.1094 32.125H50.2344C50.3094 31.675 50.3344 31.225 50.3344 30.775C50.3344 26.65 47.5094 23.925 43.5094 23.925C39.4094 23.925 36.5594 26.7 36.5594 31.075C36.5594 35.425 39.4844 38.225 43.5094 38.225C46.9344 38.225 49.2344 36.2 49.9844 33.65ZM72.7641 38H76.2641V29.875C76.2641 26.05 73.9141 23.95 70.5891 23.95C68.5641 23.95 66.7391 25.025 65.8391 26.6C64.8891 24.875 63.1141 23.95 60.9641 23.95C59.2391 23.95 57.7641 24.675 56.8891 25.825V24.15H53.3891V38H56.8891V30.35C56.8891 28.15 58.1141 27 60.0141 27C61.8641 27 63.0891 28.15 63.0891 30.35V38H66.5891V30.35C66.5891 28.15 67.8141 27 69.6891 27C71.5391 27 72.7641 28.15 72.7641 30.35V38ZM86.0354 26.8C87.8354 26.8 89.2854 27.95 89.3354 29.775H82.7604C83.0354 27.875 84.3604 26.8 86.0354 26.8ZM92.6104 33.65H88.8354C88.3854 34.575 87.5604 35.325 86.0604 35.325C84.3104 35.325 82.9104 34.175 82.7354 32.125H92.8604C92.9354 31.675 92.9604 31.225 92.9604 30.775C92.9604 26.65 90.1354 23.925 86.1354 23.925C82.0354 23.925 79.1854 26.7 79.1854 31.075C79.1854 35.425 82.1104 38.225 86.1354 38.225C89.5604 38.225 91.8604 36.2 92.6104 33.65ZM106.765 34.05C106.665 28.975 98.99 30.55 98.99 28.025C98.99 27.225 99.665 26.7 100.965 26.7C102.34 26.7 103.19 27.425 103.29 28.5H106.64C106.44 25.75 104.415 23.925 101.065 23.925C97.64 23.925 95.59 25.775 95.59 28.075C95.59 33.15 103.415 31.575 103.415 34.05C103.415 34.85 102.665 35.475 101.29 35.475C99.89 35.475 98.915 34.675 98.79 33.625H95.265C95.415 36.2 97.84 38.225 101.315 38.225C104.69 38.225 106.765 36.425 106.765 34.05ZM110.688 33.7C110.688 36.875 112.463 38 115.113 38H117.313V35.05H115.688C114.588 35.05 114.213 34.65 114.213 33.725V27.025H117.313V24.15H114.213V20.725H110.688V24.15H109.038V27.025H110.688V33.7ZM126.28 26.8C128.08 26.8 129.53 27.95 129.58 29.775H123.005C123.28 27.875 124.605 26.8 126.28 26.8ZM132.855 33.65H129.08C128.63 34.575 127.805 35.325 126.305 35.325C124.555 35.325 123.155 34.175 122.98 32.125H133.105C133.18 31.675 133.205 31.225 133.205 30.775C133.205 26.65 130.38 23.925 126.38 23.925C122.28 23.925 119.43 26.7 119.43 31.075C119.43 35.425 122.355 38.225 126.38 38.225C129.805 38.225 132.105 36.2 132.855 33.65ZM139.76 31.1C139.76 28.425 141.01 27.625 143.085 27.625H144.01V23.95C142.085 23.95 140.635 24.875 139.76 26.3V24.15H136.26V38H139.76V31.1ZM152.975 24.575H156.4C156.525 23.425 157.25 22.325 158.95 22.325C160.55 22.325 161.425 23.175 161.425 24.6C161.425 26.4 159.925 26.975 157.875 26.975H157.15V29.85H157.875C160.475 29.85 161.775 30.6 161.775 32.65C161.775 34.1 160.875 35.2 159.125 35.2C157.25 35.2 156.2 34.075 156.125 32.5H152.725C152.875 36.325 155.6 38.125 159.2 38.125C163.025 38.125 165.125 35.925 165.125 32.95C165.125 30.475 163.9 28.975 162.05 28.4V28.3C163.375 27.85 164.8 26.45 164.8 24.175C164.8 21.475 162.8 19.35 159.05 19.35C155.55 19.35 153.15 21.2 152.975 24.575Z" fill="white"/>
<rect y="66" width="617" height="75" fill="white"/>
<path d="M24.6 94.44C26.08 94.44 27.24 93.3 27.24 91.84C27.24 90.36 26.08 89.22 24.6 89.22C23.16 89.22 22 90.36 22 91.84C22 93.3 23.16 94.44 24.6 94.44ZM41.1289 98.5H43.4089V84.6H41.1289V98.5ZM54.2223 98.5H56.4823V92C56.4823 88.92 54.5423 87.3 51.9623 87.3C50.6423 87.3 49.4223 87.84 48.6823 88.74V87.48H46.4023V98.5H48.6823V92.34C48.6823 90.32 49.7823 89.28 51.4623 89.28C53.1223 89.28 54.2223 90.32 54.2223 92.34V98.5ZM59.7506 95.44C59.7506 97.68 60.9706 98.5 62.9306 98.5H64.7306V96.6H63.3306C62.3706 96.6 62.0506 96.26 62.0506 95.44V89.34H64.7306V87.48H62.0506V84.74H59.7506V87.48H58.4506V89.34H59.7506V95.44ZM69.112 92.7C69.112 90.36 70.152 89.66 71.832 89.66H72.412V87.3C70.852 87.3 69.752 87.98 69.112 89.08V87.48H66.832V98.5H69.112V92.7ZM85.0078 92.98C85.0078 89.52 82.5278 87.3 79.3878 87.3C76.2478 87.3 73.7678 89.52 73.7678 92.98C73.7678 96.44 76.1478 98.68 79.2878 98.68C82.4478 98.68 85.0078 96.44 85.0078 92.98ZM76.0878 92.98C76.0878 90.48 77.6278 89.28 79.3478 89.28C81.0478 89.28 82.6678 90.48 82.6678 92.98C82.6678 95.48 80.9878 96.7 79.2878 96.7C77.5678 96.7 76.0878 95.48 76.0878 92.98ZM86.5017 92.94C86.5017 96.34 88.8017 98.68 91.7017 98.68C93.5017 98.68 94.8217 97.84 95.5217 96.84V98.5H97.8217V83.7H95.5217V89.02C94.6817 87.98 93.1617 87.3 91.7217 87.3C88.8017 87.3 86.5017 89.54 86.5017 92.94ZM95.5217 92.98C95.5217 95.36 93.9017 96.7 92.1817 96.7C90.4817 96.7 88.8417 95.32 88.8417 92.94C88.8417 90.56 90.4817 89.28 92.1817 89.28C93.9017 89.28 95.5217 90.62 95.5217 92.98ZM110.796 87.48H108.516V93.62C108.516 95.64 107.416 96.68 105.736 96.68C104.076 96.68 102.976 95.64 102.976 93.62V87.48H100.716V93.96C100.716 97.04 102.676 98.66 105.256 98.66C106.556 98.66 107.796 98.12 108.516 97.18V98.5H110.796V87.48ZM113.045 92.98C113.045 96.44 115.285 98.68 118.445 98.68C121.145 98.68 122.905 97.18 123.525 95.02H121.065C120.645 96.16 119.805 96.76 118.445 96.76C116.605 96.76 115.385 95.4 115.385 92.98C115.385 90.58 116.605 89.22 118.445 89.22C119.805 89.22 120.685 89.9 121.065 90.96H123.525C122.905 88.64 121.145 87.3 118.445 87.3C115.285 87.3 113.045 89.54 113.045 92.98ZM126.157 95.44C126.157 97.68 127.377 98.5 129.337 98.5H131.137V96.6H129.737C128.777 96.6 128.457 96.26 128.457 95.44V89.34H131.137V87.48H128.457V84.74H126.157V87.48H124.857V89.34H126.157V95.44ZM133.238 98.5H135.518V87.48H133.238V98.5ZM134.398 86.02C135.198 86.02 135.838 85.38 135.838 84.56C135.838 83.74 135.198 83.1 134.398 83.1C133.578 83.1 132.938 83.74 132.938 84.56C132.938 85.38 133.578 86.02 134.398 86.02ZM149.012 92.98C149.012 89.52 146.532 87.3 143.392 87.3C140.252 87.3 137.772 89.52 137.772 92.98C137.772 96.44 140.152 98.68 143.292 98.68C146.452 98.68 149.012 96.44 149.012 92.98ZM140.092 92.98C140.092 90.48 141.632 89.28 143.352 89.28C145.052 89.28 146.672 90.48 146.672 92.98C146.672 95.48 144.992 96.7 143.292 96.7C141.572 96.7 140.092 95.48 140.092 92.98ZM159.086 98.5H161.346V92C161.346 88.92 159.406 87.3 156.826 87.3C155.506 87.3 154.286 87.84 153.546 88.74V87.48H151.266V98.5H153.546V92.34C153.546 90.32 154.646 89.28 156.326 89.28C157.986 89.28 159.086 90.32 159.086 92.34V98.5ZM169.809 95.44C169.809 97.68 171.029 98.5 172.989 98.5H174.789V96.6H173.389C172.429 96.6 172.109 96.26 172.109 95.44V89.34H174.789V87.48H172.109V84.74H169.809V87.48H168.509V89.34H169.809V95.44ZM187.391 92.98C187.391 89.52 184.911 87.3 181.771 87.3C178.631 87.3 176.151 89.52 176.151 92.98C176.151 96.44 178.531 98.68 181.671 98.68C184.831 98.68 187.391 96.44 187.391 92.98ZM178.471 92.98C178.471 90.48 180.011 89.28 181.731 89.28C183.431 89.28 185.051 90.48 185.051 92.98C185.051 95.48 183.371 96.7 181.671 96.7C179.951 96.7 178.471 95.48 178.471 92.98ZM199.38 84.6H194.84V98.5H199.38C203.84 98.5 206.76 95.88 206.76 91.6C206.76 87.3 203.84 84.6 199.38 84.6ZM197.12 96.64V86.46H199.38C202.66 86.46 204.42 88.42 204.42 91.6C204.42 94.76 202.66 96.64 199.38 96.64H197.12ZM208.26 92.94C208.26 96.34 210.56 98.68 213.42 98.68C215.26 98.68 216.58 97.8 217.28 96.86V98.5H219.58V87.48H217.28V89.08C216.6 88.18 215.32 87.3 213.46 87.3C210.56 87.3 208.26 89.54 208.26 92.94ZM217.28 92.98C217.28 95.36 215.66 96.7 213.94 96.7C212.24 96.7 210.6 95.32 210.6 92.94C210.6 90.56 212.24 89.28 213.94 89.28C215.66 89.28 217.28 90.62 217.28 92.98ZM222.934 95.44C222.934 97.68 224.154 98.5 226.114 98.5H227.914V96.6H226.514C225.554 96.6 225.234 96.26 225.234 95.44V89.34H227.914V87.48H225.234V84.74H222.934V87.48H221.634V89.34H222.934V95.44ZM229.256 92.94C229.256 96.34 231.556 98.68 234.416 98.68C236.256 98.68 237.576 97.8 238.276 96.86V98.5H240.576V87.48H238.276V89.08C237.596 88.18 236.316 87.3 234.456 87.3C231.556 87.3 229.256 89.54 229.256 92.94ZM238.276 92.98C238.276 95.36 236.656 96.7 234.936 96.7C233.236 96.7 231.596 95.32 231.596 92.94C231.596 90.56 233.236 89.28 234.936 89.28C236.656 89.28 238.276 90.62 238.276 92.98ZM245.85 89.12V83.7H243.57V98.5H245.85V96.9C246.57 97.86 247.87 98.68 249.69 98.68C252.59 98.68 254.87 96.34 254.87 92.94C254.87 89.54 252.61 87.3 249.69 87.3C247.95 87.3 246.57 88.12 245.85 89.12ZM252.55 92.94C252.55 95.32 250.91 96.7 249.19 96.7C247.49 96.7 245.85 95.36 245.85 92.98C245.85 90.62 247.49 89.28 249.19 89.28C250.91 89.28 252.55 90.56 252.55 92.94ZM256.365 92.94C256.365 96.34 258.665 98.68 261.525 98.68C263.365 98.68 264.685 97.8 265.385 96.86V98.5H267.685V87.48H265.385V89.08C264.705 88.18 263.425 87.3 261.565 87.3C258.665 87.3 256.365 89.54 256.365 92.94ZM265.385 92.98C265.385 95.36 263.765 96.7 262.045 96.7C260.345 96.7 258.705 95.32 258.705 92.94C258.705 90.56 260.345 89.28 262.045 89.28C263.765 89.28 265.385 90.62 265.385 92.98ZM278.9 95.42C278.78 91.44 272.56 92.68 272.56 90.46C272.56 89.72 273.2 89.22 274.42 89.22C275.66 89.22 276.4 89.88 276.48 90.84H278.76C278.64 88.64 277 87.3 274.5 87.3C271.9 87.3 270.26 88.72 270.26 90.48C270.26 94.52 276.66 93.28 276.66 95.44C276.66 96.2 275.96 96.76 274.64 96.76C273.38 96.76 272.52 96.02 272.44 95.12H270.08C270.18 97.12 272.04 98.68 274.68 98.68C277.28 98.68 278.9 97.28 278.9 95.42ZM286.003 89.22C287.703 89.22 289.043 90.3 289.083 92H282.983C283.223 90.26 284.463 89.22 286.003 89.22ZM291.163 95.22H288.703C288.283 96.08 287.503 96.76 286.103 96.76C284.423 96.76 283.123 95.66 282.963 93.84H291.383C291.443 93.46 291.463 93.1 291.463 92.72C291.463 89.48 289.243 87.3 286.103 87.3C282.843 87.3 280.603 89.52 280.603 92.98C280.603 96.44 282.943 98.68 286.103 98.68C288.803 98.68 290.543 97.14 291.163 95.22ZM298.902 98.5H301.182V88.98L305.442 98.5H307.022L311.262 88.98V98.5H313.542V84.6H311.102L306.242 95.5L301.362 84.6H298.902V98.5ZM315.779 92.94C315.779 96.34 318.079 98.68 320.939 98.68C322.779 98.68 324.099 97.8 324.799 96.86V98.5H327.099V87.48H324.799V89.08C324.119 88.18 322.839 87.3 320.979 87.3C318.079 87.3 315.779 89.54 315.779 92.94ZM324.799 92.98C324.799 95.36 323.179 96.7 321.459 96.7C319.759 96.7 318.119 95.32 318.119 92.94C318.119 90.56 319.759 89.28 321.459 89.28C323.179 89.28 324.799 90.62 324.799 92.98ZM337.914 98.5H340.174V92C340.174 88.92 338.234 87.3 335.654 87.3C334.334 87.3 333.114 87.84 332.374 88.74V87.48H330.094V98.5H332.374V92.34C332.374 90.32 333.474 89.28 335.154 89.28C336.814 89.28 337.914 90.32 337.914 92.34V98.5ZM342.322 92.94C342.322 96.34 344.622 98.68 347.482 98.68C349.322 98.68 350.642 97.8 351.342 96.86V98.5H353.642V87.48H351.342V89.08C350.662 88.18 349.382 87.3 347.522 87.3C344.622 87.3 342.322 89.54 342.322 92.94ZM351.342 92.98C351.342 95.36 349.722 96.7 348.002 96.7C346.302 96.7 344.662 95.32 344.662 92.94C344.662 90.56 346.302 89.28 348.002 89.28C349.722 89.28 351.342 90.62 351.342 92.98ZM355.877 92.94C355.877 96.34 358.177 98.68 361.077 98.68C362.877 98.68 364.197 97.78 364.897 96.84V98.68C364.897 100.88 363.577 101.96 361.817 101.96C360.237 101.96 359.017 101.18 358.677 100.04H356.417C356.697 102.48 358.877 103.94 361.817 103.94C365.257 103.94 367.197 101.68 367.197 98.68V87.48H364.897V89.08C364.217 88.14 362.877 87.3 361.077 87.3C358.177 87.3 355.877 89.54 355.877 92.94ZM364.897 92.98C364.897 95.36 363.277 96.7 361.557 96.7C359.857 96.7 358.217 95.32 358.217 92.94C358.217 90.56 359.857 89.28 361.557 89.28C363.277 89.28 364.897 90.62 364.897 92.98ZM374.831 89.22C376.531 89.22 377.871 90.3 377.911 92H371.811C372.051 90.26 373.291 89.22 374.831 89.22ZM379.991 95.22H377.531C377.111 96.08 376.331 96.76 374.931 96.76C373.251 96.76 371.951 95.66 371.791 93.84H380.211C380.271 93.46 380.291 93.1 380.291 92.72C380.291 89.48 378.071 87.3 374.931 87.3C371.671 87.3 369.431 89.52 369.431 92.98C369.431 96.44 371.771 98.68 374.931 98.68C377.631 98.68 379.371 97.14 379.991 95.22ZM398.155 98.5H400.415V92C400.415 88.92 398.455 87.3 395.875 87.3C394.275 87.3 392.715 88.14 392.035 89.48C391.275 88.04 389.815 87.3 388.075 87.3C386.755 87.3 385.555 87.84 384.815 88.74V87.48H382.535V98.5H384.815V92.34C384.815 90.32 385.915 89.28 387.595 89.28C389.255 89.28 390.355 90.32 390.355 92.34V98.5H392.615V92.34C392.615 90.32 393.715 89.28 395.395 89.28C397.055 89.28 398.155 90.32 398.155 92.34V98.5ZM407.956 89.22C409.656 89.22 410.996 90.3 411.036 92H404.936C405.176 90.26 406.416 89.22 407.956 89.22ZM413.116 95.22H410.656C410.236 96.08 409.456 96.76 408.056 96.76C406.376 96.76 405.076 95.66 404.916 93.84H413.336C413.396 93.46 413.416 93.1 413.416 92.72C413.416 89.48 411.196 87.3 408.056 87.3C404.796 87.3 402.556 89.52 402.556 92.98C402.556 96.44 404.896 98.68 408.056 98.68C410.756 98.68 412.496 97.14 413.116 95.22ZM423.48 98.5H425.74V92C425.74 88.92 423.8 87.3 421.22 87.3C419.9 87.3 418.68 87.84 417.94 88.74V87.48H415.66V98.5H417.94V92.34C417.94 90.32 419.04 89.28 420.72 89.28C422.38 89.28 423.48 90.32 423.48 92.34V98.5ZM429.008 95.44C429.008 97.68 430.228 98.5 432.188 98.5H433.988V96.6H432.588C431.628 96.6 431.308 96.26 431.308 95.44V89.34H433.988V87.48H431.308V84.74H429.008V87.48H427.708V89.34H429.008V95.44ZM450.665 94.56C450.665 89.48 443.305 91.44 443.305 88.3C443.305 86.96 444.325 86.32 445.645 86.36C447.085 86.4 447.905 87.26 447.985 88.2H450.505C450.305 85.82 448.425 84.42 445.765 84.42C442.925 84.42 440.985 85.94 440.985 88.38C440.985 93.5 448.365 91.32 448.365 94.68C448.365 95.86 447.465 96.72 445.865 96.72C444.285 96.72 443.485 95.8 443.385 94.66H440.945C440.945 97.12 443.085 98.64 445.865 98.64C448.965 98.64 450.665 96.64 450.665 94.56ZM457.695 95.88L454.595 87.48H452.055L456.395 98.32L454.155 103.68H456.515L463.275 87.48H460.915L457.695 95.88ZM473.216 95.42C473.096 91.44 466.876 92.68 466.876 90.46C466.876 89.72 467.516 89.22 468.736 89.22C469.976 89.22 470.716 89.88 470.796 90.84H473.076C472.956 88.64 471.316 87.3 468.816 87.3C466.216 87.3 464.576 88.72 464.576 90.48C464.576 94.52 470.976 93.28 470.976 95.44C470.976 96.2 470.276 96.76 468.956 96.76C467.696 96.76 466.836 96.02 466.756 95.12H464.396C464.496 97.12 466.356 98.68 468.996 98.68C471.596 98.68 473.216 97.28 473.216 95.42ZM476.04 95.44C476.04 97.68 477.26 98.5 479.22 98.5H481.02V96.6H479.62C478.66 96.6 478.34 96.26 478.34 95.44V89.34H481.02V87.48H478.34V84.74H476.04V87.48H474.74V89.34H476.04V95.44ZM487.761 89.22C489.461 89.22 490.801 90.3 490.841 92H484.741C484.981 90.26 486.221 89.22 487.761 89.22ZM492.921 95.22H490.461C490.041 96.08 489.261 96.76 487.861 96.76C486.181 96.76 484.881 95.66 484.721 93.84H493.141C493.201 93.46 493.221 93.1 493.221 92.72C493.221 89.48 491.001 87.3 487.861 87.3C484.601 87.3 482.361 89.52 482.361 92.98C482.361 96.44 484.701 98.68 487.861 98.68C490.561 98.68 492.301 97.14 492.921 95.22ZM511.085 98.5H513.345V92C513.345 88.92 511.385 87.3 508.805 87.3C507.205 87.3 505.645 88.14 504.965 89.48C504.205 88.04 502.745 87.3 501.005 87.3C499.685 87.3 498.485 87.84 497.745 88.74V87.48H495.465V98.5H497.745V92.34C497.745 90.32 498.845 89.28 500.525 89.28C502.185 89.28 503.285 90.32 503.285 92.34V98.5H505.545V92.34C505.545 90.32 506.645 89.28 508.325 89.28C509.985 89.28 511.085 90.32 511.085 92.34V98.5ZM524.466 95.42C524.346 91.44 518.126 92.68 518.126 90.46C518.126 89.72 518.766 89.22 519.986 89.22C521.226 89.22 521.966 89.88 522.046 90.84H524.326C524.206 88.64 522.566 87.3 520.066 87.3C517.466 87.3 515.826 88.72 515.826 90.48C515.826 94.52 522.226 93.28 522.226 95.44C522.226 96.2 521.526 96.76 520.206 96.76C518.946 96.76 518.086 96.02 518.006 95.12H515.646C515.746 97.12 517.606 98.68 520.246 98.68C522.846 98.68 524.466 97.28 524.466 95.42ZM38.5459 127.22H42.7059V125.32H40.6859V106.7H42.7059V104.82H38.5459V127.22ZM46.033 116.52C46.033 120.7 49.213 123.62 53.133 123.62C56.033 123.62 58.533 122.18 59.593 119.46H56.853C56.113 120.94 54.793 121.64 53.133 121.64C50.373 121.64 48.373 119.66 48.373 116.52C48.373 113.38 50.373 111.42 53.133 111.42C54.793 111.42 56.113 112.12 56.853 113.6H59.593C58.533 110.88 56.033 109.42 53.133 109.42C49.213 109.42 46.033 112.36 46.033 116.52ZM72.7617 117.98C72.7617 114.52 70.2817 112.3 67.1417 112.3C64.0017 112.3 61.5217 114.52 61.5217 117.98C61.5217 121.44 63.9017 123.68 67.0417 123.68C70.2017 123.68 72.7617 121.44 72.7617 117.98ZM63.8417 117.98C63.8417 115.48 65.3817 114.28 67.1017 114.28C68.8017 114.28 70.4217 115.48 70.4217 117.98C70.4217 120.48 68.7417 121.7 67.0417 121.7C65.3217 121.7 63.8417 120.48 63.8417 117.98ZM77.2956 117.7C77.2956 115.36 78.3356 114.66 80.0156 114.66H80.5956V112.3C79.0356 112.3 77.9356 112.98 77.2956 114.08V112.48H75.0156V123.5H77.2956V117.7ZM87.3314 114.22C89.0314 114.22 90.3714 115.3 90.4114 117H84.3114C84.5514 115.26 85.7914 114.22 87.3314 114.22ZM92.4914 120.22H90.0314C89.6114 121.08 88.8314 121.76 87.4314 121.76C85.7514 121.76 84.4514 120.66 84.2914 118.84H92.7114C92.7714 118.46 92.7914 118.1 92.7914 117.72C92.7914 114.48 90.5714 112.3 87.4314 112.3C84.1714 112.3 81.9314 114.52 81.9314 117.98C81.9314 121.44 84.2714 123.68 87.4314 123.68C90.1314 123.68 91.8714 122.14 92.4914 120.22ZM99.4705 116.52C99.4705 120.7 102.65 123.62 106.57 123.62C109.47 123.62 111.97 122.18 113.03 119.46H110.29C109.55 120.94 108.23 121.64 106.57 121.64C103.81 121.64 101.81 119.66 101.81 116.52C101.81 113.38 103.81 111.42 106.57 111.42C108.23 111.42 109.55 112.12 110.29 113.6H113.03C111.97 110.88 109.47 109.42 106.57 109.42C102.65 109.42 99.4705 112.36 99.4705 116.52ZM126.199 117.98C126.199 114.52 123.719 112.3 120.579 112.3C117.439 112.3 114.959 114.52 114.959 117.98C114.959 121.44 117.339 123.68 120.479 123.68C123.639 123.68 126.199 121.44 126.199 117.98ZM117.279 117.98C117.279 115.48 118.819 114.28 120.539 114.28C122.239 114.28 123.859 115.48 123.859 117.98C123.859 120.48 122.179 121.7 120.479 121.7C118.759 121.7 117.279 120.48 117.279 117.98ZM138.433 112.48H136.153V118.62C136.153 120.64 135.053 121.68 133.373 121.68C131.713 121.68 130.613 120.64 130.613 118.62V112.48H128.353V118.96C128.353 122.04 130.313 123.66 132.893 123.66C134.193 123.66 135.433 123.12 136.153 122.18V123.5H138.433V112.48ZM143.721 117.7C143.721 115.36 144.761 114.66 146.441 114.66H147.021V112.3C145.461 112.3 144.361 112.98 143.721 114.08V112.48H141.441V123.5H143.721V117.7ZM157.337 120.42C157.217 116.44 150.997 117.68 150.997 115.46C150.997 114.72 151.637 114.22 152.857 114.22C154.097 114.22 154.837 114.88 154.917 115.84H157.197C157.077 113.64 155.437 112.3 152.937 112.3C150.337 112.3 148.697 113.72 148.697 115.48C148.697 119.52 155.097 118.28 155.097 120.44C155.097 121.2 154.397 121.76 153.077 121.76C151.817 121.76 150.957 121.02 150.877 120.12H148.517C148.617 122.12 150.477 123.68 153.117 123.68C155.717 123.68 157.337 122.28 157.337 120.42ZM164.441 114.22C166.141 114.22 167.481 115.3 167.521 117H161.421C161.661 115.26 162.901 114.22 164.441 114.22ZM169.601 120.22H167.141C166.721 121.08 165.941 121.76 164.541 121.76C162.861 121.76 161.561 120.66 161.401 118.84H169.821C169.881 118.46 169.901 118.1 169.901 117.72C169.901 114.48 167.681 112.3 164.541 112.3C161.281 112.3 159.041 114.52 159.041 117.98C159.041 121.44 161.381 123.68 164.541 123.68C167.241 123.68 168.981 122.14 169.601 120.22ZM180.365 120.42C180.245 116.44 174.025 117.68 174.025 115.46C174.025 114.72 174.665 114.22 175.885 114.22C177.125 114.22 177.865 114.88 177.945 115.84H180.225C180.105 113.64 178.465 112.3 175.965 112.3C173.365 112.3 171.725 113.72 171.725 115.48C171.725 119.52 178.125 118.28 178.125 120.44C178.125 121.2 177.425 121.76 176.105 121.76C174.845 121.76 173.985 121.02 173.905 120.12H171.545C171.645 122.12 173.505 123.68 176.145 123.68C178.745 123.68 180.365 122.28 180.365 120.42ZM188.048 127.22H183.888V125.32H185.908V106.7H183.888V104.82H188.048V127.22Z" fill="#212832"/>
<rect x="0.5" y="66.5" width="616" height="74" stroke="black" stroke-opacity="0.5"/>
<rect y="319" width="617" height="50" fill="white"/>
<path d="M24.6 347.44C26.08 347.44 27.24 346.3 27.24 344.84C27.24 343.36 26.08 342.22 24.6 342.22C23.16 342.22 22 343.36 22 344.84C22 346.3 23.16 347.44 24.6 347.44ZM54.5689 344.52C54.5689 340.36 51.4289 337.42 47.4689 337.42C43.5489 337.42 40.3689 340.36 40.3689 344.52C40.3689 348.7 43.5489 351.64 47.4689 351.64C51.4289 351.64 54.5689 348.7 54.5689 344.52ZM42.7089 344.52C42.7089 341.38 44.7089 339.42 47.4689 339.42C50.2289 339.42 52.2289 341.38 52.2289 344.52C52.2289 347.66 50.2289 349.66 47.4689 349.66C44.7089 349.66 42.7089 347.66 42.7089 344.52ZM59.0925 342.12V336.7H56.8125V351.5H59.0925V349.9C59.8125 350.86 61.1125 351.68 62.9325 351.68C65.8325 351.68 68.1125 349.34 68.1125 345.94C68.1125 342.54 65.8525 340.3 62.9325 340.3C61.1925 340.3 59.8125 341.12 59.0925 342.12ZM65.7925 345.94C65.7925 348.32 64.1525 349.7 62.4325 349.7C60.7325 349.7 59.0925 348.36 59.0925 345.98C59.0925 343.62 60.7325 342.28 62.4325 342.28C64.1525 342.28 65.7925 343.56 65.7925 345.94ZM71.5272 339.02C72.3272 339.02 72.9672 338.38 72.9672 337.56C72.9672 336.74 72.3272 336.1 71.5272 336.1C70.7072 336.1 70.0672 336.74 70.0672 337.56C70.0672 338.38 70.7072 339.02 71.5272 339.02ZM70.3672 340.48V353.66C70.3672 354.48 70.0472 354.82 69.0872 354.82H68.3072V356.74H69.4872C71.4472 356.74 72.6472 355.9 72.6472 353.66V340.48H70.3672ZM80.2806 342.22C81.9806 342.22 83.3206 343.3 83.3606 345H77.2606C77.5006 343.26 78.7406 342.22 80.2806 342.22ZM85.4406 348.22H82.9806C82.5606 349.08 81.7806 349.76 80.3806 349.76C78.7006 349.76 77.4006 348.66 77.2406 346.84H85.6606C85.7206 346.46 85.7406 346.1 85.7406 345.72C85.7406 342.48 83.5206 340.3 80.3806 340.3C77.1206 340.3 74.8806 342.52 74.8806 345.98C74.8806 349.44 77.2206 351.68 80.3806 351.68C83.0806 351.68 84.8206 350.14 85.4406 348.22ZM87.2244 345.98C87.2244 349.44 89.4644 351.68 92.6244 351.68C95.3244 351.68 97.0844 350.18 97.7044 348.02H95.2444C94.8244 349.16 93.9844 349.76 92.6244 349.76C90.7844 349.76 89.5644 348.4 89.5644 345.98C89.5644 343.58 90.7844 342.22 92.6244 342.22C93.9844 342.22 94.8644 342.9 95.2444 343.96H97.7044C97.0844 341.64 95.3244 340.3 92.6244 340.3C89.4644 340.3 87.2244 342.54 87.2244 345.98ZM100.337 348.44C100.337 350.68 101.557 351.5 103.517 351.5H105.317V349.6H103.917C102.957 349.6 102.637 349.26 102.637 348.44V342.34H105.317V340.48H102.637V337.74H100.337V340.48H99.0366V342.34H100.337V348.44ZM126.053 344.52C126.053 340.36 122.913 337.42 118.953 337.42C115.033 337.42 111.853 340.36 111.853 344.52C111.853 348.7 115.033 351.64 118.953 351.64C122.913 351.64 126.053 348.7 126.053 344.52ZM114.193 344.52C114.193 341.38 116.193 339.42 118.953 339.42C121.713 339.42 123.713 341.38 123.713 344.52C123.713 347.66 121.713 349.66 118.953 349.66C116.193 349.66 114.193 347.66 114.193 344.52ZM130.577 345.7C130.577 343.36 131.617 342.66 133.297 342.66H133.877V340.3C132.317 340.3 131.217 340.98 130.577 342.08V340.48H128.297V351.5H130.577V345.7ZM135.973 351.5H138.253V340.48H135.973V351.5ZM137.133 339.02C137.933 339.02 138.573 338.38 138.573 337.56C138.573 336.74 137.933 336.1 137.133 336.1C136.313 336.1 135.673 336.74 135.673 337.56C135.673 338.38 136.313 339.02 137.133 339.02ZM145.886 342.22C147.586 342.22 148.926 343.3 148.966 345H142.866C143.106 343.26 144.346 342.22 145.886 342.22ZM151.046 348.22H148.586C148.166 349.08 147.386 349.76 145.986 349.76C144.306 349.76 143.006 348.66 142.846 346.84H151.266C151.326 346.46 151.346 346.1 151.346 345.72C151.346 342.48 149.126 340.3 145.986 340.3C142.726 340.3 140.486 342.52 140.486 345.98C140.486 349.44 142.826 351.68 145.986 351.68C148.686 351.68 150.426 350.14 151.046 348.22ZM161.41 351.5H163.67V345C163.67 341.92 161.73 340.3 159.15 340.3C157.83 340.3 156.61 340.84 155.87 341.74V340.48H153.59V351.5H155.87V345.34C155.87 343.32 156.97 342.28 158.65 342.28C160.31 342.28 161.41 343.32 161.41 345.34V351.5ZM166.938 348.44C166.938 350.68 168.158 351.5 170.118 351.5H171.918V349.6H170.518C169.558 349.6 169.238 349.26 169.238 348.44V342.34H171.918V340.48H169.238V337.74H166.938V340.48H165.638V342.34H166.938V348.44ZM178.66 342.22C180.36 342.22 181.7 343.3 181.74 345H175.64C175.88 343.26 177.12 342.22 178.66 342.22ZM183.82 348.22H181.36C180.94 349.08 180.16 349.76 178.76 349.76C177.08 349.76 175.78 348.66 175.62 346.84H184.04C184.1 346.46 184.12 346.1 184.12 345.72C184.12 342.48 181.9 340.3 178.76 340.3C175.5 340.3 173.26 342.52 173.26 345.98C173.26 349.44 175.6 351.68 178.76 351.68C181.46 351.68 183.2 350.14 183.82 348.22ZM185.603 345.94C185.603 349.34 187.903 351.68 190.803 351.68C192.603 351.68 193.923 350.84 194.623 349.84V351.5H196.923V336.7H194.623V342.02C193.783 340.98 192.263 340.3 190.823 340.3C187.903 340.3 185.603 342.54 185.603 345.94ZM194.623 345.98C194.623 348.36 193.003 349.7 191.283 349.7C189.583 349.7 187.943 348.32 187.943 345.94C187.943 343.56 189.583 342.28 191.283 342.28C193.003 342.28 194.623 343.62 194.623 345.98ZM207.393 344V339.46H209.913C211.693 339.46 212.493 340.3 212.493 341.74C212.493 343.14 211.693 344 209.913 344H207.393ZM214.833 341.74C214.833 339.48 213.213 337.6 209.913 337.6H205.113V351.5H207.393V345.86H209.913C213.533 345.86 214.833 343.72 214.833 341.74ZM219.288 345.7C219.288 343.36 220.328 342.66 222.008 342.66H222.588V340.3C221.028 340.3 219.928 340.98 219.288 342.08V340.48H217.008V351.5H219.288V345.7ZM235.184 345.98C235.184 342.52 232.704 340.3 229.564 340.3C226.424 340.3 223.944 342.52 223.944 345.98C223.944 349.44 226.324 351.68 229.464 351.68C232.624 351.68 235.184 349.44 235.184 345.98ZM226.264 345.98C226.264 343.48 227.804 342.28 229.524 342.28C231.224 342.28 232.844 343.48 232.844 345.98C232.844 348.48 231.164 349.7 229.464 349.7C227.744 349.7 226.264 348.48 226.264 345.98ZM236.678 345.94C236.678 349.34 238.978 351.68 241.878 351.68C243.678 351.68 244.998 350.78 245.698 349.84V351.68C245.698 353.88 244.378 354.96 242.618 354.96C241.038 354.96 239.818 354.18 239.478 353.04H237.218C237.498 355.48 239.678 356.94 242.618 356.94C246.058 356.94 247.998 354.68 247.998 351.68V340.48H245.698V342.08C245.018 341.14 243.678 340.3 241.878 340.3C238.978 340.3 236.678 342.54 236.678 345.94ZM245.698 345.98C245.698 348.36 244.078 349.7 242.358 349.7C240.658 349.7 239.018 348.32 239.018 345.94C239.018 343.56 240.658 342.28 242.358 342.28C244.078 342.28 245.698 343.62 245.698 345.98ZM253.272 345.7C253.272 343.36 254.312 342.66 255.992 342.66H256.572V340.3C255.012 340.3 253.912 340.98 253.272 342.08V340.48H250.992V351.5H253.272V345.7ZM257.908 345.94C257.908 349.34 260.208 351.68 263.068 351.68C264.908 351.68 266.228 350.8 266.928 349.86V351.5H269.228V340.48H266.928V342.08C266.248 341.18 264.968 340.3 263.108 340.3C260.208 340.3 257.908 342.54 257.908 345.94ZM266.928 345.98C266.928 348.36 265.308 349.7 263.588 349.7C261.888 349.7 260.248 348.32 260.248 345.94C260.248 343.56 261.888 342.28 263.588 342.28C265.308 342.28 266.928 343.62 266.928 345.98ZM287.843 351.5H290.103V345C290.103 341.92 288.143 340.3 285.563 340.3C283.963 340.3 282.403 341.14 281.723 342.48C280.963 341.04 279.503 340.3 277.763 340.3C276.443 340.3 275.243 340.84 274.503 341.74V340.48H272.223V351.5H274.503V345.34C274.503 343.32 275.603 342.28 277.283 342.28C278.943 342.28 280.043 343.32 280.043 345.34V351.5H282.303V345.34C282.303 343.32 283.403 342.28 285.083 342.28C286.743 342.28 287.843 343.32 287.843 345.34V351.5ZM308.624 351.5H310.884V345C310.884 341.92 308.924 340.3 306.344 340.3C304.744 340.3 303.184 341.14 302.504 342.48C301.744 341.04 300.284 340.3 298.544 340.3C297.224 340.3 296.024 340.84 295.284 341.74V340.48H293.004V351.5H295.284V345.34C295.284 343.32 296.384 342.28 298.064 342.28C299.724 342.28 300.824 343.32 300.824 345.34V351.5H303.084V345.34C303.084 343.32 304.184 342.28 305.864 342.28C307.524 342.28 308.624 343.32 308.624 345.34V351.5ZM313.785 351.5H316.065V340.48H313.785V351.5ZM314.945 339.02C315.745 339.02 316.385 338.38 316.385 337.56C316.385 336.74 315.745 336.1 314.945 336.1C314.125 336.1 313.485 336.74 313.485 337.56C313.485 338.38 314.125 339.02 314.945 339.02ZM326.879 351.5H329.139V345C329.139 341.92 327.199 340.3 324.619 340.3C323.299 340.3 322.079 340.84 321.339 341.74V340.48H319.059V351.5H321.339V345.34C321.339 343.32 322.439 342.28 324.119 342.28C325.779 342.28 326.879 343.32 326.879 345.34V351.5ZM331.287 345.94C331.287 349.34 333.587 351.68 336.487 351.68C338.287 351.68 339.607 350.78 340.307 349.84V351.68C340.307 353.88 338.987 354.96 337.227 354.96C335.647 354.96 334.427 354.18 334.087 353.04H331.827C332.107 355.48 334.287 356.94 337.227 356.94C340.667 356.94 342.607 354.68 342.607 351.68V340.48H340.307V342.08C339.627 341.14 338.287 340.3 336.487 340.3C333.587 340.3 331.287 342.54 331.287 345.94ZM340.307 345.98C340.307 348.36 338.687 349.7 336.967 349.7C335.267 349.7 333.627 348.32 333.627 345.94C333.627 343.56 335.267 342.28 336.967 342.28C338.687 342.28 340.307 343.62 340.307 345.98ZM350.777 346.42C350.777 349.96 353.257 351.64 356.177 351.64C359.077 351.64 361.637 349.96 361.637 346.42V337.6H359.357V346.46C359.357 348.62 358.137 349.64 356.197 349.64C354.277 349.64 353.057 348.62 353.057 346.46V337.6H350.777V346.42ZM372.825 348.42C372.705 344.44 366.485 345.68 366.485 343.46C366.485 342.72 367.125 342.22 368.345 342.22C369.585 342.22 370.325 342.88 370.405 343.84H372.685C372.565 341.64 370.925 340.3 368.425 340.3C365.825 340.3 364.185 341.72 364.185 343.48C364.185 347.52 370.585 346.28 370.585 348.44C370.585 349.2 369.885 349.76 368.565 349.76C367.305 349.76 366.445 349.02 366.365 348.12H364.005C364.105 350.12 365.965 351.68 368.605 351.68C371.205 351.68 372.825 350.28 372.825 348.42ZM375.289 351.5H377.569V340.48H375.289V351.5ZM376.449 339.02C377.249 339.02 377.889 338.38 377.889 337.56C377.889 336.74 377.249 336.1 376.449 336.1C375.629 336.1 374.989 336.74 374.989 337.56C374.989 338.38 375.629 339.02 376.449 339.02ZM388.383 351.5H390.643V345C390.643 341.92 388.703 340.3 386.123 340.3C384.803 340.3 383.583 340.84 382.843 341.74V340.48H380.563V351.5H382.843V345.34C382.843 343.32 383.943 342.28 385.623 342.28C387.283 342.28 388.383 343.32 388.383 345.34V351.5ZM392.791 345.94C392.791 349.34 395.091 351.68 397.991 351.68C399.791 351.68 401.111 350.78 401.811 349.84V351.68C401.811 353.88 400.491 354.96 398.731 354.96C397.151 354.96 395.931 354.18 395.591 353.04H393.331C393.611 355.48 395.791 356.94 398.731 356.94C402.171 356.94 404.111 354.68 404.111 351.68V340.48H401.811V342.08C401.131 341.14 399.791 340.3 397.991 340.3C395.091 340.3 392.791 342.54 392.791 345.94ZM401.811 345.98C401.811 348.36 400.191 349.7 398.471 349.7C396.771 349.7 395.131 348.32 395.131 345.94C395.131 343.56 396.771 342.28 398.471 342.28C400.191 342.28 401.811 343.62 401.811 345.98ZM417.581 347.62C417.581 348.78 417.001 349.62 415.781 349.62C414.561 349.62 414.001 348.78 413.981 347.62H411.681C411.681 350.14 413.381 351.64 415.781 351.64C418.181 351.64 419.881 350.14 419.881 347.62V337.6H417.581V347.62ZM422.83 345.94C422.83 349.34 425.13 351.68 427.99 351.68C429.83 351.68 431.15 350.8 431.85 349.86V351.5H434.15V340.48H431.85V342.08C431.17 341.18 429.89 340.3 428.03 340.3C425.13 340.3 422.83 342.54 422.83 345.94ZM431.85 345.98C431.85 348.36 430.23 349.7 428.51 349.7C426.81 349.7 425.17 348.32 425.17 345.94C425.17 343.56 426.81 342.28 428.51 342.28C430.23 342.28 431.85 343.62 431.85 345.98ZM435.845 340.48L440.025 351.5H442.745L446.945 340.48H444.525L441.405 349.46L438.285 340.48H435.845ZM447.908 345.94C447.908 349.34 450.208 351.68 453.068 351.68C454.908 351.68 456.228 350.8 456.928 349.86V351.5H459.228V340.48H456.928V342.08C456.248 341.18 454.968 340.3 453.108 340.3C450.208 340.3 447.908 342.54 447.908 345.94ZM456.928 345.98C456.928 348.36 455.308 349.7 453.588 349.7C451.888 349.7 450.248 348.32 450.248 345.94C450.248 343.56 451.888 342.28 453.588 342.28C455.308 342.28 456.928 343.62 456.928 345.98Z" fill="#212832"/>
<rect x="0.5" y="319.5" width="616" height="49" stroke="black" stroke-opacity="0.5"/>
<rect y="205" width="617" height="50" fill="white"/>
<path d="M24.6 233.44C26.08 233.44 27.24 232.3 27.24 230.84C27.24 229.36 26.08 228.22 24.6 228.22C23.16 228.22 22 229.36 22 230.84C22 232.3 23.16 233.44 24.6 233.44ZM47.4689 223.42C43.5489 223.42 40.3689 226.36 40.3689 230.52C40.3689 234.7 43.5489 237.62 47.4689 237.62C51.2089 237.62 53.9289 234.88 54.3489 231.66V229.88H46.6889V231.7H51.9089C51.5689 234.04 49.9889 235.56 47.4689 235.56C44.7089 235.56 42.7089 233.58 42.7089 230.52C42.7089 227.46 44.7089 225.5 47.4689 225.5C49.1289 225.5 50.4489 226.2 51.1889 227.6H53.9289C52.8689 224.88 50.3689 223.42 47.4689 223.42ZM58.8777 231.7C58.8777 229.36 59.9177 228.66 61.5977 228.66H62.1777V226.3C60.6177 226.3 59.5177 226.98 58.8777 228.08V226.48H56.5977V237.5H58.8777V231.7ZM68.9134 228.22C70.6134 228.22 71.9534 229.3 71.9934 231H65.8934C66.1334 229.26 67.3734 228.22 68.9134 228.22ZM74.0734 234.22H71.6134C71.1934 235.08 70.4134 235.76 69.0134 235.76C67.3334 235.76 66.0334 234.66 65.8734 232.84H74.2934C74.3534 232.46 74.3734 232.1 74.3734 231.72C74.3734 228.48 72.1534 226.3 69.0134 226.3C65.7534 226.3 63.5134 228.52 63.5134 231.98C63.5134 235.44 65.8534 237.68 69.0134 237.68C71.7134 237.68 73.4534 236.14 74.0734 234.22ZM81.2572 228.22C82.9572 228.22 84.2972 229.3 84.3372 231H78.2372C78.4772 229.26 79.7172 228.22 81.2572 228.22ZM86.4172 234.22H83.9572C83.5372 235.08 82.7572 235.76 81.3572 235.76C79.6772 235.76 78.3772 234.66 78.2172 232.84H86.6372C86.6972 232.46 86.7172 232.1 86.7172 231.72C86.7172 228.48 84.4972 226.3 81.3572 226.3C78.0972 226.3 75.8572 228.52 75.8572 231.98C75.8572 235.44 78.1972 237.68 81.3572 237.68C84.0572 237.68 85.7972 236.14 86.4172 234.22ZM96.7809 237.5H99.0409V231C99.0409 227.92 97.1009 226.3 94.5209 226.3C93.2009 226.3 91.9809 226.84 91.2409 227.74V226.48H88.9609V237.5H91.2409V231.34C91.2409 229.32 92.3409 228.28 94.0209 228.28C95.6809 228.28 96.7809 229.32 96.7809 231.34V237.5ZM106.385 230.52C106.385 234.7 109.565 237.62 113.485 237.62C116.385 237.62 118.885 236.18 119.945 233.46H117.205C116.465 234.94 115.145 235.64 113.485 235.64C110.725 235.64 108.725 233.66 108.725 230.52C108.725 227.38 110.725 225.42 113.485 225.42C115.145 225.42 116.465 226.12 117.205 227.6H119.945C118.885 224.88 116.385 223.42 113.485 223.42C109.565 223.42 106.385 226.36 106.385 230.52ZM133.113 231.98C133.113 228.52 130.633 226.3 127.493 226.3C124.353 226.3 121.873 228.52 121.873 231.98C121.873 235.44 124.253 237.68 127.393 237.68C130.553 237.68 133.113 235.44 133.113 231.98ZM124.193 231.98C124.193 229.48 125.733 228.28 127.453 228.28C129.153 228.28 130.773 229.48 130.773 231.98C130.773 234.48 129.093 235.7 127.393 235.7C125.673 235.7 124.193 234.48 124.193 231.98ZM150.987 237.5H153.247V231C153.247 227.92 151.287 226.3 148.707 226.3C147.107 226.3 145.547 227.14 144.867 228.48C144.107 227.04 142.647 226.3 140.907 226.3C139.587 226.3 138.387 226.84 137.647 227.74V226.48H135.367V237.5H137.647V231.34C137.647 229.32 138.747 228.28 140.427 228.28C142.087 228.28 143.187 229.32 143.187 231.34V237.5H145.447V231.34C145.447 229.32 146.547 228.28 148.227 228.28C149.887 228.28 150.987 229.32 150.987 231.34V237.5ZM158.428 228.1V226.48H156.148V242.74H158.428V235.9C159.148 236.76 160.448 237.68 162.268 237.68C165.168 237.68 167.448 235.34 167.448 231.94C167.448 228.54 165.168 226.3 162.268 226.3C160.468 226.3 159.128 227.18 158.428 228.1ZM165.128 231.94C165.128 234.32 163.488 235.7 161.768 235.7C160.068 235.7 158.428 234.36 158.428 231.98C158.428 229.62 160.068 228.28 161.768 228.28C163.488 228.28 165.128 229.56 165.128 231.94ZM179.683 226.48H177.403V232.62C177.403 234.64 176.303 235.68 174.623 235.68C172.963 235.68 171.863 234.64 171.863 232.62V226.48H169.603V232.96C169.603 236.04 171.563 237.66 174.143 237.66C175.443 237.66 176.683 237.12 177.403 236.18V237.5H179.683V226.48ZM183.051 234.44C183.051 236.68 184.271 237.5 186.231 237.5H188.031V235.6H186.631C185.671 235.6 185.351 235.26 185.351 234.44V228.34H188.031V226.48H185.351V223.74H183.051V226.48H181.751V228.34H183.051V234.44ZM190.133 237.5H192.413V226.48H190.133V237.5ZM191.293 225.02C192.093 225.02 192.733 224.38 192.733 223.56C192.733 222.74 192.093 222.1 191.293 222.1C190.473 222.1 189.833 222.74 189.833 223.56C189.833 224.38 190.473 225.02 191.293 225.02ZM203.226 237.5H205.486V231C205.486 227.92 203.546 226.3 200.966 226.3C199.646 226.3 198.426 226.84 197.686 227.74V226.48H195.406V237.5H197.686V231.34C197.686 229.32 198.786 228.28 200.466 228.28C202.126 228.28 203.226 229.32 203.226 231.34V237.5ZM207.635 231.94C207.635 235.34 209.935 237.68 212.835 237.68C214.635 237.68 215.955 236.78 216.655 235.84V237.68C216.655 239.88 215.335 240.96 213.575 240.96C211.995 240.96 210.775 240.18 210.435 239.04H208.175C208.455 241.48 210.635 242.94 213.575 242.94C217.015 242.94 218.955 240.68 218.955 237.68V226.48H216.655V228.08C215.975 227.14 214.635 226.3 212.835 226.3C209.935 226.3 207.635 228.54 207.635 231.94ZM216.655 231.98C216.655 234.36 215.035 235.7 213.315 235.7C211.615 235.7 209.975 234.32 209.975 231.94C209.975 229.56 211.615 228.28 213.315 228.28C215.035 228.28 216.655 229.62 216.655 231.98Z" fill="#212832"/>
<rect x="0.5" y="205.5" width="616" height="49" stroke="black" stroke-opacity="0.5"/>
<rect y="148" width="617" height="50" fill="white"/>
<path d="M24.6 176.44C26.08 176.44 27.24 175.3 27.24 173.84C27.24 172.36 26.08 171.22 24.6 171.22C23.16 171.22 22 172.36 22 173.84C22 175.3 23.16 176.44 24.6 176.44ZM40.3689 173.52C40.3689 177.7 43.5489 180.62 47.4689 180.62C50.3689 180.62 52.8689 179.18 53.9289 176.46H51.1889C50.4489 177.94 49.1289 178.64 47.4689 178.64C44.7089 178.64 42.7089 176.66 42.7089 173.52C42.7089 170.38 44.7089 168.42 47.4689 168.42C49.1289 168.42 50.4489 169.12 51.1889 170.6H53.9289C52.8689 167.88 50.3689 166.42 47.4689 166.42C43.5489 166.42 40.3689 169.36 40.3689 173.52ZM67.0977 174.98C67.0977 171.52 64.6177 169.3 61.4777 169.3C58.3377 169.3 55.8577 171.52 55.8577 174.98C55.8577 178.44 58.2377 180.68 61.3777 180.68C64.5377 180.68 67.0977 178.44 67.0977 174.98ZM58.1777 174.98C58.1777 172.48 59.7177 171.28 61.4377 171.28C63.1377 171.28 64.7577 172.48 64.7577 174.98C64.7577 177.48 63.0777 178.7 61.3777 178.7C59.6577 178.7 58.1777 177.48 58.1777 174.98ZM84.9716 180.5H87.2316V174C87.2316 170.92 85.2716 169.3 82.6916 169.3C81.0916 169.3 79.5316 170.14 78.8516 171.48C78.0916 170.04 76.6316 169.3 74.8916 169.3C73.5716 169.3 72.3716 169.84 71.6316 170.74V169.48H69.3516V180.5H71.6316V174.34C71.6316 172.32 72.7316 171.28 74.4116 171.28C76.0716 171.28 77.1716 172.32 77.1716 174.34V180.5H79.4316V174.34C79.4316 172.32 80.5316 171.28 82.2116 171.28C83.8716 171.28 84.9716 172.32 84.9716 174.34V180.5ZM92.4128 171.1V169.48H90.1328V185.74H92.4128V178.9C93.1328 179.76 94.4328 180.68 96.2528 180.68C99.1528 180.68 101.433 178.34 101.433 174.94C101.433 171.54 99.1528 169.3 96.2528 169.3C94.4528 169.3 93.1128 170.18 92.4128 171.1ZM99.1128 174.94C99.1128 177.32 97.4728 178.7 95.7528 178.7C94.0528 178.7 92.4128 177.36 92.4128 174.98C92.4128 172.62 94.0528 171.28 95.7528 171.28C97.4728 171.28 99.1128 172.56 99.1128 174.94ZM113.668 169.48H111.388V175.62C111.388 177.64 110.288 178.68 108.608 178.68C106.948 178.68 105.848 177.64 105.848 175.62V169.48H103.588V175.96C103.588 179.04 105.548 180.66 108.128 180.66C109.428 180.66 110.668 180.12 111.388 179.18V180.5H113.668V169.48ZM117.036 177.44C117.036 179.68 118.256 180.5 120.216 180.5H122.016V178.6H120.616C119.656 178.6 119.336 178.26 119.336 177.44V171.34H122.016V169.48H119.336V166.74H117.036V169.48H115.736V171.34H117.036V177.44ZM123.357 174.94C123.357 178.34 125.657 180.68 128.517 180.68C130.357 180.68 131.677 179.8 132.377 178.86V180.5H134.677V169.48H132.377V171.08C131.697 170.18 130.417 169.3 128.557 169.3C125.657 169.3 123.357 171.54 123.357 174.94ZM132.377 174.98C132.377 177.36 130.757 178.7 129.037 178.7C127.337 178.7 125.697 177.32 125.697 174.94C125.697 172.56 127.337 171.28 129.037 171.28C130.757 171.28 132.377 172.62 132.377 174.98ZM138.032 177.44C138.032 179.68 139.252 180.5 141.212 180.5H143.012V178.6H141.612C140.652 178.6 140.332 178.26 140.332 177.44V171.34H143.012V169.48H140.332V166.74H138.032V169.48H136.732V171.34H138.032V177.44ZM145.113 180.5H147.393V169.48H145.113V180.5ZM146.273 168.02C147.073 168.02 147.713 167.38 147.713 166.56C147.713 165.74 147.073 165.1 146.273 165.1C145.453 165.1 144.813 165.74 144.813 166.56C144.813 167.38 145.453 168.02 146.273 168.02ZM160.887 174.98C160.887 171.52 158.407 169.3 155.267 169.3C152.127 169.3 149.647 171.52 149.647 174.98C149.647 178.44 152.027 180.68 155.167 180.68C158.327 180.68 160.887 178.44 160.887 174.98ZM151.967 174.98C151.967 172.48 153.507 171.28 155.227 171.28C156.927 171.28 158.547 172.48 158.547 174.98C158.547 177.48 156.867 178.7 155.167 178.7C153.447 178.7 151.967 177.48 151.967 174.98ZM170.961 180.5H173.221V174C173.221 170.92 171.281 169.3 168.701 169.3C167.381 169.3 166.161 169.84 165.421 170.74V169.48H163.141V180.5H165.421V174.34C165.421 172.32 166.521 171.28 168.201 171.28C169.861 171.28 170.961 172.32 170.961 174.34V180.5ZM175.369 174.94C175.369 178.34 177.669 180.68 180.529 180.68C182.369 180.68 183.689 179.8 184.389 178.86V180.5H186.689V169.48H184.389V171.08C183.709 170.18 182.429 169.3 180.569 169.3C177.669 169.3 175.369 171.54 175.369 174.94ZM184.389 174.98C184.389 177.36 182.769 178.7 181.049 178.7C179.349 178.7 177.709 177.32 177.709 174.94C177.709 172.56 179.349 171.28 181.049 171.28C182.769 171.28 184.389 172.62 184.389 174.98ZM189.684 180.5H191.964V165.7H189.684V180.5ZM209.532 176.56C209.532 171.48 202.172 173.44 202.172 170.3C202.172 168.96 203.192 168.32 204.512 168.36C205.952 168.4 206.772 169.26 206.852 170.2H209.372C209.172 167.82 207.292 166.42 204.632 166.42C201.792 166.42 199.852 167.94 199.852 170.38C199.852 175.5 207.232 173.32 207.232 176.68C207.232 177.86 206.332 178.72 204.732 178.72C203.152 178.72 202.352 177.8 202.252 176.66H199.812C199.812 179.12 201.952 180.64 204.732 180.64C207.832 180.64 209.532 178.64 209.532 176.56ZM212.583 177.44C212.583 179.68 213.803 180.5 215.763 180.5H217.563V178.6H216.163C215.203 178.6 214.883 178.26 214.883 177.44V171.34H217.563V169.48H214.883V166.74H212.583V169.48H211.283V171.34H212.583V177.44ZM218.904 174.94C218.904 178.34 221.204 180.68 224.064 180.68C225.904 180.68 227.224 179.8 227.924 178.86V180.5H230.224V169.48H227.924V171.08C227.244 170.18 225.964 169.3 224.104 169.3C221.204 169.3 218.904 171.54 218.904 174.94ZM227.924 174.98C227.924 177.36 226.304 178.7 224.584 178.7C222.884 178.7 221.244 177.32 221.244 174.94C221.244 172.56 222.884 171.28 224.584 171.28C226.304 171.28 227.924 172.62 227.924 174.98ZM233.579 177.44C233.579 179.68 234.799 180.5 236.759 180.5H238.559V178.6H237.159C236.199 178.6 235.879 178.26 235.879 177.44V171.34H238.559V169.48H235.879V166.74H233.579V169.48H232.279V171.34H233.579V177.44ZM240.66 180.5H242.94V169.48H240.66V180.5ZM241.82 168.02C242.62 168.02 243.26 167.38 243.26 166.56C243.26 165.74 242.62 165.1 241.82 165.1C241 165.1 240.36 165.74 240.36 166.56C240.36 167.38 241 168.02 241.82 168.02ZM254.154 177.42C254.034 173.44 247.814 174.68 247.814 172.46C247.814 171.72 248.454 171.22 249.674 171.22C250.914 171.22 251.654 171.88 251.734 172.84H254.014C253.894 170.64 252.254 169.3 249.754 169.3C247.154 169.3 245.514 170.72 245.514 172.48C245.514 176.52 251.914 175.28 251.914 177.44C251.914 178.2 251.214 178.76 249.894 178.76C248.634 178.76 247.774 178.02 247.694 177.12H245.334C245.434 179.12 247.294 180.68 249.934 180.68C252.534 180.68 254.154 179.28 254.154 177.42ZM256.977 177.44C256.977 179.68 258.197 180.5 260.157 180.5H261.957V178.6H260.557C259.597 178.6 259.277 178.26 259.277 177.44V171.34H261.957V169.48H259.277V166.74H256.977V169.48H255.677V171.34H256.977V177.44ZM264.059 180.5H266.339V169.48H264.059V180.5ZM265.219 168.02C266.019 168.02 266.659 167.38 266.659 166.56C266.659 165.74 266.019 165.1 265.219 165.1C264.399 165.1 263.759 165.74 263.759 166.56C263.759 167.38 264.399 168.02 265.219 168.02ZM268.572 174.98C268.572 178.44 270.812 180.68 273.972 180.68C276.672 180.68 278.432 179.18 279.052 177.02H276.592C276.172 178.16 275.332 178.76 273.972 178.76C272.132 178.76 270.912 177.4 270.912 174.98C270.912 172.58 272.132 171.22 273.972 171.22C275.332 171.22 276.212 171.9 276.592 172.96H279.052C278.432 170.64 276.672 169.3 273.972 169.3C270.812 169.3 268.572 171.54 268.572 174.98ZM289.544 177.42C289.424 173.44 283.204 174.68 283.204 172.46C283.204 171.72 283.844 171.22 285.064 171.22C286.304 171.22 287.044 171.88 287.124 172.84H289.404C289.284 170.64 287.644 169.3 285.144 169.3C282.544 169.3 280.904 170.72 280.904 172.48C280.904 176.52 287.304 175.28 287.304 177.44C287.304 178.2 286.604 178.76 285.284 178.76C284.024 178.76 283.164 178.02 283.084 177.12H280.724C280.824 179.12 282.684 180.68 285.324 180.68C287.924 180.68 289.544 179.28 289.544 177.42Z" fill="#212832"/>
<rect x="0.5" y="148.5" width="616" height="49" stroke="black" stroke-opacity="0.5"/>
<rect y="262" width="617" height="50" fill="white"/>
<path d="M24.6 290.44C26.08 290.44 27.24 289.3 27.24 287.84C27.24 286.36 26.08 285.22 24.6 285.22C23.16 285.22 22 286.36 22 287.84C22 289.3 23.16 290.44 24.6 290.44ZM50.2689 280.58V290.94L43.4089 280.58H41.1289V294.5H43.4089V284.12L50.2689 294.5H52.5489V280.58H50.2689ZM60.183 285.22C61.883 285.22 63.223 286.3 63.263 288H57.163C57.403 286.26 58.643 285.22 60.183 285.22ZM65.343 291.22H62.883C62.463 292.08 61.683 292.76 60.283 292.76C58.603 292.76 57.303 291.66 57.143 289.84H65.563C65.623 289.46 65.643 289.1 65.643 288.72C65.643 285.48 63.423 283.3 60.283 283.3C57.023 283.3 54.783 285.52 54.783 288.98C54.783 292.44 57.123 294.68 60.283 294.68C62.983 294.68 64.723 293.14 65.343 291.22ZM68.2467 291.44C68.2467 293.68 69.4667 294.5 71.4267 294.5H73.2267V292.6H71.8267C70.8667 292.6 70.5467 292.26 70.5467 291.44V285.34H73.2267V283.48H70.5467V280.74H68.2467V283.48H66.9467V285.34H68.2467V291.44ZM77.4681 294.5H79.8681L82.0881 286.36L84.3081 294.5H86.7081L90.1281 283.48H87.8881L85.6081 292.3L83.3681 283.48H80.9881L78.6481 292.34L76.3481 283.48H74.0281L77.4681 294.5ZM102.332 288.98C102.332 285.52 99.852 283.3 96.712 283.3C93.572 283.3 91.092 285.52 91.092 288.98C91.092 292.44 93.472 294.68 96.612 294.68C99.772 294.68 102.332 292.44 102.332 288.98ZM93.412 288.98C93.412 286.48 94.952 285.28 96.672 285.28C98.372 285.28 99.992 286.48 99.992 288.98C99.992 291.48 98.312 292.7 96.612 292.7C94.892 292.7 93.412 291.48 93.412 288.98ZM106.866 288.7C106.866 286.36 107.906 285.66 109.586 285.66H110.166V283.3C108.606 283.3 107.506 283.98 106.866 285.08V283.48H104.586V294.5H106.866V288.7ZM112.262 294.5H114.542V289.76L118.622 294.5H121.702L116.622 289L121.702 283.48H118.542L114.542 288.3V279.7H112.262V294.5ZM136.371 290.52C136.371 291.86 135.431 292.64 133.891 292.64H130.811V288.3H133.811C135.331 288.3 136.371 289.14 136.371 290.52ZM136.011 284.46C136.011 285.74 135.111 286.44 133.631 286.44H130.811V282.46H133.631C135.111 282.46 136.011 283.2 136.011 284.46ZM138.651 290.76C138.651 289.1 137.451 287.62 135.971 287.36C137.311 286.88 138.331 285.86 138.331 284.18C138.331 282.22 136.771 280.6 133.831 280.6H128.531V294.5H134.091C136.931 294.5 138.651 292.88 138.651 290.76ZM140.369 288.94C140.369 292.34 142.669 294.68 145.529 294.68C147.369 294.68 148.689 293.8 149.389 292.86V294.5H151.689V283.48H149.389V285.08C148.709 284.18 147.429 283.3 145.569 283.3C142.669 283.3 140.369 285.54 140.369 288.94ZM149.389 288.98C149.389 291.36 147.769 292.7 146.049 292.7C144.349 292.7 142.709 291.32 142.709 288.94C142.709 286.56 144.349 285.28 146.049 285.28C147.769 285.28 149.389 286.62 149.389 288.98ZM162.904 291.42C162.784 287.44 156.564 288.68 156.564 286.46C156.564 285.72 157.204 285.22 158.424 285.22C159.664 285.22 160.404 285.88 160.484 286.84H162.764C162.644 284.64 161.004 283.3 158.504 283.3C155.904 283.3 154.264 284.72 154.264 286.48C154.264 290.52 160.664 289.28 160.664 291.44C160.664 292.2 159.964 292.76 158.644 292.76C157.384 292.76 156.524 292.02 156.444 291.12H154.084C154.184 293.12 156.044 294.68 158.684 294.68C161.284 294.68 162.904 293.28 162.904 291.42ZM165.367 294.5H167.647V283.48H165.367V294.5ZM166.527 282.02C167.327 282.02 167.967 281.38 167.967 280.56C167.967 279.74 167.327 279.1 166.527 279.1C165.707 279.1 165.067 279.74 165.067 280.56C165.067 281.38 165.707 282.02 166.527 282.02ZM169.881 288.98C169.881 292.44 172.121 294.68 175.281 294.68C177.981 294.68 179.741 293.18 180.361 291.02H177.901C177.481 292.16 176.641 292.76 175.281 292.76C173.441 292.76 172.221 291.4 172.221 288.98C172.221 286.58 173.441 285.22 175.281 285.22C176.641 285.22 177.521 285.9 177.901 286.96H180.361C179.741 284.64 177.981 283.3 175.281 283.3C172.121 283.3 169.881 285.54 169.881 288.98ZM190.853 291.42C190.733 287.44 184.513 288.68 184.513 286.46C184.513 285.72 185.153 285.22 186.373 285.22C187.613 285.22 188.353 285.88 188.433 286.84H190.713C190.593 284.64 188.953 283.3 186.453 283.3C183.853 283.3 182.213 284.72 182.213 286.48C182.213 290.52 188.613 289.28 188.613 291.44C188.613 292.2 187.913 292.76 186.593 292.76C185.333 292.76 184.473 292.02 184.393 291.12H182.033C182.133 293.12 183.993 294.68 186.633 294.68C189.233 294.68 190.853 293.28 190.853 291.42Z" fill="#212832"/>
<rect x="0.5" y="262.5" width="616" height="49" stroke="black" stroke-opacity="0.5"/>
</svg>
