<svg width="617" height="344" viewBox="0 0 617 344" fill="none" xmlns="http://www.w3.org/2000/svg">
<rect y="66" width="617" height="50" fill="white"/>
<path d="M24.6 94.44C26.08 94.44 27.24 93.3 27.24 91.84C27.24 90.36 26.08 89.22 24.6 89.22C23.16 89.22 22 90.36 22 91.84C22 93.3 23.16 94.44 24.6 94.44ZM41.1289 98.5H43.4089V88.98L47.6689 98.5H49.2489L53.4889 88.98V98.5H55.7689V84.6H53.3289L48.4689 95.5L43.5889 84.6H41.1289V98.5ZM58.0056 92.94C58.0056 96.34 60.3056 98.68 63.1656 98.68C65.0056 98.68 66.3256 97.8 67.0256 96.86V98.5H69.3256V87.48H67.0256V89.08C66.3456 88.18 65.0656 87.3 63.2056 87.3C60.3056 87.3 58.0056 89.54 58.0056 92.94ZM67.0256 92.98C67.0256 95.36 65.4056 96.7 63.6856 96.7C61.9856 96.7 60.3456 95.32 60.3456 92.94C60.3456 90.56 61.9856 89.28 63.6856 89.28C65.4056 89.28 67.0256 90.62 67.0256 92.98ZM73.4803 86.02C74.2803 86.02 74.9203 85.38 74.9203 84.56C74.9203 83.74 74.2803 83.1 73.4803 83.1C72.6603 83.1 72.0203 83.74 72.0203 84.56C72.0203 85.38 72.6603 86.02 73.4803 86.02ZM72.3203 87.48V100.66C72.3203 101.48 72.0003 101.82 71.0403 101.82H70.2603V103.74H71.4403C73.4003 103.74 74.6003 102.9 74.6003 100.66V87.48H72.3203ZM88.0938 92.98C88.0938 89.52 85.6138 87.3 82.4738 87.3C79.3338 87.3 76.8538 89.52 76.8538 92.98C76.8538 96.44 79.2338 98.68 82.3738 98.68C85.5338 98.68 88.0938 96.44 88.0938 92.98ZM79.1738 92.98C79.1738 90.48 80.7138 89.28 82.4338 89.28C84.1338 89.28 85.7538 90.48 85.7538 92.98C85.7538 95.48 84.0738 96.7 82.3738 96.7C80.6538 96.7 79.1738 95.48 79.1738 92.98ZM92.6277 92.7C92.6277 90.36 93.6677 89.66 95.3477 89.66H95.9277V87.3C94.3677 87.3 93.2677 87.98 92.6277 89.08V87.48H90.3477V98.5H92.6277V92.7ZM105.499 91V86.46H108.019C109.799 86.46 110.599 87.3 110.599 88.74C110.599 90.14 109.799 91 108.019 91H105.499ZM112.939 88.74C112.939 86.48 111.319 84.6 108.019 84.6H103.219V98.5H105.499V92.86H108.019C111.639 92.86 112.939 90.72 112.939 88.74ZM117.393 92.7C117.393 90.36 118.433 89.66 120.113 89.66H120.693V87.3C119.133 87.3 118.033 87.98 117.393 89.08V87.48H115.113V98.5H117.393V92.7ZM133.289 92.98C133.289 89.52 130.809 87.3 127.669 87.3C124.529 87.3 122.049 89.52 122.049 92.98C122.049 96.44 124.429 98.68 127.569 98.68C130.729 98.68 133.289 96.44 133.289 92.98ZM124.369 92.98C124.369 90.48 125.909 89.28 127.629 89.28C129.329 89.28 130.949 90.48 130.949 92.98C130.949 95.48 129.269 96.7 127.569 96.7C125.849 96.7 124.369 95.48 124.369 92.98ZM136.703 86.02C137.503 86.02 138.143 85.38 138.143 84.56C138.143 83.74 137.503 83.1 136.703 83.1C135.883 83.1 135.243 83.74 135.243 84.56C135.243 85.38 135.883 86.02 136.703 86.02ZM135.543 87.48V100.66C135.543 101.48 135.223 101.82 134.263 101.82H133.483V103.74H134.663C136.623 103.74 137.823 102.9 137.823 100.66V87.48H135.543ZM145.456 89.22C147.156 89.22 148.496 90.3 148.536 92H142.436C142.676 90.26 143.916 89.22 145.456 89.22ZM150.616 95.22H148.156C147.736 96.08 146.956 96.76 145.556 96.76C143.876 96.76 142.576 95.66 142.416 93.84H150.836C150.896 93.46 150.916 93.1 150.916 92.72C150.916 89.48 148.696 87.3 145.556 87.3C142.296 87.3 140.056 89.52 140.056 92.98C140.056 96.44 142.396 98.68 145.556 98.68C148.256 98.68 149.996 97.14 150.616 95.22ZM152.4 92.98C152.4 96.44 154.64 98.68 157.8 98.68C160.5 98.68 162.26 97.18 162.88 95.02H160.42C160 96.16 159.16 96.76 157.8 96.76C155.96 96.76 154.74 95.4 154.74 92.98C154.74 90.58 155.96 89.22 157.8 89.22C159.16 89.22 160.04 89.9 160.42 90.96H162.88C162.26 88.64 160.5 87.3 157.8 87.3C154.64 87.3 152.4 89.54 152.4 92.98ZM165.512 95.44C165.512 97.68 166.732 98.5 168.692 98.5H170.492V96.6H169.092C168.132 96.6 167.812 96.26 167.812 95.44V89.34H170.492V87.48H167.812V84.74H165.512V87.48H164.212V89.34H165.512V95.44ZM179.249 102.22H183.409V100.32H181.389V81.7H183.409V79.82H179.249V102.22ZM196.636 84.58V94.94L189.776 84.58H187.496V98.5H189.776V88.12L196.636 98.5H198.916V84.58H196.636ZM212.41 92.98C212.41 89.52 209.93 87.3 206.79 87.3C203.65 87.3 201.17 89.52 201.17 92.98C201.17 96.44 203.55 98.68 206.69 98.68C209.85 98.68 212.41 96.44 212.41 92.98ZM203.49 92.98C203.49 90.48 205.03 89.28 206.75 89.28C208.45 89.28 210.07 90.48 210.07 92.98C210.07 95.48 208.39 96.7 206.69 96.7C204.97 96.7 203.49 95.48 203.49 92.98ZM222.484 98.5H224.744V92C224.744 88.92 222.804 87.3 220.224 87.3C218.904 87.3 217.684 87.84 216.944 88.74V87.48H214.664V98.5H216.944V92.34C216.944 90.32 218.044 89.28 219.724 89.28C221.384 89.28 222.484 90.32 222.484 92.34V98.5ZM227.892 92.22H236.112V90.3H227.892V92.22ZM238.632 86.46H242.352V98.5H244.632V86.46H248.332V84.6H238.632V86.46ZM255.281 89.22C256.981 89.22 258.321 90.3 258.361 92H252.261C252.501 90.26 253.741 89.22 255.281 89.22ZM260.441 95.22H257.981C257.561 96.08 256.781 96.76 255.381 96.76C253.701 96.76 252.401 95.66 252.241 93.84H260.661C260.721 93.46 260.741 93.1 260.741 92.72C260.741 89.48 258.521 87.3 255.381 87.3C252.121 87.3 249.881 89.52 249.881 92.98C249.881 96.44 252.221 98.68 255.381 98.68C258.081 98.68 259.821 97.14 260.441 95.22ZM262.224 92.94C262.224 96.34 264.524 98.68 267.384 98.68C269.224 98.68 270.544 97.8 271.244 96.86V98.5H273.544V87.48H271.244V89.08C270.564 88.18 269.284 87.3 267.424 87.3C264.524 87.3 262.224 89.54 262.224 92.94ZM271.244 92.98C271.244 95.36 269.624 96.7 267.904 96.7C266.204 96.7 264.564 95.32 264.564 92.94C264.564 90.56 266.204 89.28 267.904 89.28C269.624 89.28 271.244 90.62 271.244 92.98ZM275.779 92.98C275.779 96.44 278.019 98.68 281.179 98.68C283.879 98.68 285.639 97.18 286.259 95.02H283.799C283.379 96.16 282.539 96.76 281.179 96.76C279.339 96.76 278.119 95.4 278.119 92.98C278.119 90.58 279.339 89.22 281.179 89.22C282.539 89.22 283.419 89.9 283.799 90.96H286.259C285.639 88.64 283.879 87.3 281.179 87.3C278.019 87.3 275.779 89.54 275.779 92.98ZM288.531 98.5H290.811V92.34C290.811 90.32 291.911 89.28 293.591 89.28C295.251 89.28 296.351 90.32 296.351 92.34V98.5H298.611V92C298.611 88.92 296.691 87.3 294.231 87.3C292.811 87.3 291.571 87.84 290.811 88.76V83.7H288.531V98.5ZM301.52 98.5H303.8V87.48H301.52V98.5ZM302.68 86.02C303.48 86.02 304.12 85.38 304.12 84.56C304.12 83.74 303.48 83.1 302.68 83.1C301.86 83.1 301.22 83.74 301.22 84.56C301.22 85.38 301.86 86.02 302.68 86.02ZM314.613 98.5H316.873V92C316.873 88.92 314.933 87.3 312.353 87.3C311.033 87.3 309.813 87.84 309.073 88.74V87.48H306.793V98.5H309.073V92.34C309.073 90.32 310.173 89.28 311.853 89.28C313.513 89.28 314.613 90.32 314.613 92.34V98.5ZM319.021 92.94C319.021 96.34 321.321 98.68 324.221 98.68C326.021 98.68 327.341 97.78 328.041 96.84V98.68C328.041 100.88 326.721 101.96 324.961 101.96C323.381 101.96 322.161 101.18 321.821 100.04H319.561C319.841 102.48 322.021 103.94 324.961 103.94C328.401 103.94 330.341 101.68 330.341 98.68V87.48H328.041V89.08C327.361 88.14 326.021 87.3 324.221 87.3C321.321 87.3 319.021 89.54 319.021 92.94ZM328.041 92.98C328.041 95.36 326.421 96.7 324.701 96.7C323.001 96.7 321.361 95.32 321.361 92.94C321.361 90.56 323.001 89.28 324.701 89.28C326.421 89.28 328.041 90.62 328.041 92.98ZM337.771 91.52C337.771 95.7 340.951 98.62 344.871 98.62C347.771 98.62 350.271 97.18 351.331 94.46H348.591C347.851 95.94 346.531 96.64 344.871 96.64C342.111 96.64 340.111 94.66 340.111 91.52C340.111 88.38 342.111 86.42 344.871 86.42C346.531 86.42 347.851 87.12 348.591 88.6H351.331C350.271 85.88 347.771 84.42 344.871 84.42C340.951 84.42 337.771 87.36 337.771 91.52ZM356.28 92.7C356.28 90.36 357.32 89.66 359 89.66H359.58V87.3C358.02 87.3 356.92 87.98 356.28 89.08V87.48H354V98.5H356.28V92.7ZM366.316 89.22C368.016 89.22 369.356 90.3 369.396 92H363.296C363.536 90.26 364.776 89.22 366.316 89.22ZM371.476 95.22H369.016C368.596 96.08 367.816 96.76 366.416 96.76C364.736 96.76 363.436 95.66 363.276 93.84H371.696C371.756 93.46 371.776 93.1 371.776 92.72C371.776 89.48 369.556 87.3 366.416 87.3C363.156 87.3 360.916 89.52 360.916 92.98C360.916 96.44 363.256 98.68 366.416 98.68C369.116 98.68 370.856 97.14 371.476 95.22ZM373.26 92.94C373.26 96.34 375.56 98.68 378.46 98.68C380.26 98.68 381.58 97.84 382.28 96.84V98.5H384.58V83.7H382.28V89.02C381.44 87.98 379.92 87.3 378.48 87.3C375.56 87.3 373.26 89.54 373.26 92.94ZM382.28 92.98C382.28 95.36 380.66 96.7 378.94 96.7C377.24 96.7 375.6 95.32 375.6 92.94C375.6 90.56 377.24 89.28 378.94 89.28C380.66 89.28 382.28 90.62 382.28 92.98ZM387.574 98.5H389.854V87.48H387.574V98.5ZM388.734 86.02C389.534 86.02 390.174 85.38 390.174 84.56C390.174 83.74 389.534 83.1 388.734 83.1C387.914 83.1 387.274 83.74 387.274 84.56C387.274 85.38 387.914 86.02 388.734 86.02ZM393.208 95.44C393.208 97.68 394.428 98.5 396.388 98.5H398.188V96.6H396.788C395.828 96.6 395.508 96.26 395.508 95.44V89.34H398.188V87.48H395.508V84.74H393.208V87.48H391.908V89.34H393.208V95.44ZM404.724 91.52C404.724 95.7 407.904 98.62 411.824 98.62C414.724 98.62 417.224 97.18 418.284 94.46H415.544C414.804 95.94 413.484 96.64 411.824 96.64C409.064 96.64 407.064 94.66 407.064 91.52C407.064 88.38 409.064 86.42 411.824 86.42C413.484 86.42 414.804 87.12 415.544 88.6H418.284C417.224 85.88 414.724 84.42 411.824 84.42C407.904 84.42 404.724 87.36 404.724 91.52ZM431.453 92.98C431.453 89.52 428.973 87.3 425.833 87.3C422.693 87.3 420.213 89.52 420.213 92.98C420.213 96.44 422.593 98.68 425.733 98.68C428.893 98.68 431.453 96.44 431.453 92.98ZM422.533 92.98C422.533 90.48 424.073 89.28 425.793 89.28C427.493 89.28 429.113 90.48 429.113 92.98C429.113 95.48 427.433 96.7 425.733 96.7C424.013 96.7 422.533 95.48 422.533 92.98ZM443.687 87.48H441.407V93.62C441.407 95.64 440.307 96.68 438.627 96.68C436.967 96.68 435.867 95.64 435.867 93.62V87.48H433.607V93.96C433.607 97.04 435.567 98.66 438.147 98.66C439.447 98.66 440.687 98.12 441.407 97.18V98.5H443.687V87.48ZM448.975 92.7C448.975 90.36 450.015 89.66 451.695 89.66H452.275V87.3C450.715 87.3 449.615 87.98 448.975 89.08V87.48H446.695V98.5H448.975V92.7ZM462.591 95.42C462.471 91.44 456.251 92.68 456.251 90.46C456.251 89.72 456.891 89.22 458.111 89.22C459.351 89.22 460.091 89.88 460.171 90.84H462.451C462.331 88.64 460.691 87.3 458.191 87.3C455.591 87.3 453.951 88.72 453.951 90.48C453.951 94.52 460.351 93.28 460.351 95.44C460.351 96.2 459.651 96.76 458.331 96.76C457.071 96.76 456.211 96.02 456.131 95.12H453.771C453.871 97.12 455.731 98.68 458.371 98.68C460.971 98.68 462.591 97.28 462.591 95.42ZM469.695 89.22C471.395 89.22 472.735 90.3 472.775 92H466.675C466.915 90.26 468.155 89.22 469.695 89.22ZM474.855 95.22H472.395C471.975 96.08 471.195 96.76 469.795 96.76C468.115 96.76 466.815 95.66 466.655 93.84H475.075C475.135 93.46 475.155 93.1 475.155 92.72C475.155 89.48 472.935 87.3 469.795 87.3C466.535 87.3 464.295 89.52 464.295 92.98C464.295 96.44 466.635 98.68 469.795 98.68C472.495 98.68 474.235 97.14 474.855 95.22ZM485.618 95.42C485.498 91.44 479.278 92.68 479.278 90.46C479.278 89.72 479.918 89.22 481.138 89.22C482.378 89.22 483.118 89.88 483.198 90.84H485.478C485.358 88.64 483.718 87.3 481.218 87.3C478.618 87.3 476.978 88.72 476.978 90.48C476.978 94.52 483.378 93.28 483.378 95.44C483.378 96.2 482.678 96.76 481.358 96.76C480.098 96.76 479.238 96.02 479.158 95.12H476.798C476.898 97.12 478.758 98.68 481.398 98.68C483.998 98.68 485.618 97.28 485.618 95.42ZM493.302 102.22H489.142V100.32H491.162V81.7H489.142V79.82H493.302V102.22Z" fill="#212832"/>
<rect x="0.5" y="66.5" width="616" height="49" stroke="black" stroke-opacity="0.5"/>
<rect y="294" width="617" height="50" fill="white"/>
<path d="M21.74 320.22H29.96V318.3H21.74V320.22ZM33.4392 320.22H41.6592V318.3H33.4392V320.22ZM45.1384 320.22H53.3584V318.3H45.1384V320.22ZM56.8377 320.22H65.0577V318.3H56.8377V320.22Z" fill="#212832"/>
<rect x="0.5" y="294.5" width="616" height="49" stroke="black" stroke-opacity="0.5"/>
<rect y="180" width="617" height="50" fill="white"/>
<path d="M24.6 208.44C26.08 208.44 27.24 207.3 27.24 205.84C27.24 204.36 26.08 203.22 24.6 203.22C23.16 203.22 22 204.36 22 205.84C22 207.3 23.16 208.44 24.6 208.44ZM40.3689 205.52C40.3689 209.7 43.5489 212.62 47.4689 212.62C50.3689 212.62 52.8689 211.18 53.9289 208.46H51.1889C50.4489 209.94 49.1289 210.64 47.4689 210.64C44.7089 210.64 42.7089 208.66 42.7089 205.52C42.7089 202.38 44.7089 200.42 47.4689 200.42C49.1289 200.42 50.4489 201.12 51.1889 202.6H53.9289C52.8689 199.88 50.3689 198.42 47.4689 198.42C43.5489 198.42 40.3689 201.36 40.3689 205.52ZM56.5977 212.5H58.8777V197.7H56.5977V212.5ZM72.3711 206.98C72.3711 203.52 69.8911 201.3 66.7511 201.3C63.6111 201.3 61.1311 203.52 61.1311 206.98C61.1311 210.44 63.5111 212.68 66.6511 212.68C69.8111 212.68 72.3711 210.44 72.3711 206.98ZM63.4511 206.98C63.4511 204.48 64.9911 203.28 66.7111 203.28C68.4111 203.28 70.0311 204.48 70.0311 206.98C70.0311 209.48 68.3511 210.7 66.6511 210.7C64.9311 210.7 63.4511 209.48 63.4511 206.98ZM84.605 201.48H82.325V207.62C82.325 209.64 81.225 210.68 79.545 210.68C77.885 210.68 76.785 209.64 76.785 207.62V201.48H74.525V207.96C74.525 211.04 76.485 212.66 79.065 212.66C80.365 212.66 81.605 212.12 82.325 211.18V212.5H84.605V201.48ZM86.8533 206.94C86.8533 210.34 89.1533 212.68 92.0533 212.68C93.8533 212.68 95.1733 211.84 95.8733 210.84V212.5H98.1733V197.7H95.8733V203.02C95.0333 201.98 93.5133 201.3 92.0733 201.3C89.1533 201.3 86.8533 203.54 86.8533 206.94ZM95.8733 206.98C95.8733 209.36 94.2533 210.7 92.5333 210.7C90.8333 210.7 89.1933 209.32 89.1933 206.94C89.1933 204.56 90.8333 203.28 92.5333 203.28C94.2533 203.28 95.8733 204.62 95.8733 206.98ZM115.743 212.5H118.143L113.163 198.58H110.523L105.543 212.5H107.923L108.923 209.66H114.743L115.743 212.5ZM114.103 207.8H109.563L111.843 201.34L114.103 207.8ZM122.589 206.7C122.589 204.36 123.629 203.66 125.309 203.66H125.889V201.3C124.329 201.3 123.229 201.98 122.589 203.08V201.48H120.309V212.5H122.589V206.7ZM127.224 206.98C127.224 210.44 129.464 212.68 132.624 212.68C135.324 212.68 137.084 211.18 137.704 209.02H135.244C134.824 210.16 133.984 210.76 132.624 210.76C130.784 210.76 129.564 209.4 129.564 206.98C129.564 204.58 130.784 203.22 132.624 203.22C133.984 203.22 134.864 203.9 135.244 204.96H137.704C137.084 202.64 135.324 201.3 132.624 201.3C129.464 201.3 127.224 203.54 127.224 206.98ZM139.977 212.5H142.257V206.34C142.257 204.32 143.357 203.28 145.037 203.28C146.697 203.28 147.797 204.32 147.797 206.34V212.5H150.057V206C150.057 202.92 148.137 201.3 145.677 201.3C144.257 201.3 143.017 201.84 142.257 202.76V197.7H139.977V212.5ZM152.965 212.5H155.245V201.48H152.965V212.5ZM154.125 200.02C154.925 200.02 155.565 199.38 155.565 198.56C155.565 197.74 154.925 197.1 154.125 197.1C153.305 197.1 152.665 197.74 152.665 198.56C152.665 199.38 153.305 200.02 154.125 200.02ZM158.598 209.44C158.598 211.68 159.818 212.5 161.778 212.5H163.578V210.6H162.178C161.218 210.6 160.898 210.26 160.898 209.44V203.34H163.578V201.48H160.898V198.74H158.598V201.48H157.298V203.34H158.598V209.44ZM170.32 203.22C172.02 203.22 173.36 204.3 173.4 206H167.3C167.54 204.26 168.78 203.22 170.32 203.22ZM175.48 209.22H173.02C172.6 210.08 171.82 210.76 170.42 210.76C168.74 210.76 167.44 209.66 167.28 207.84H175.7C175.76 207.46 175.78 207.1 175.78 206.72C175.78 203.48 173.56 201.3 170.42 201.3C167.16 201.3 164.92 203.52 164.92 206.98C164.92 210.44 167.26 212.68 170.42 212.68C173.12 212.68 174.86 211.14 175.48 209.22ZM177.263 206.98C177.263 210.44 179.503 212.68 182.663 212.68C185.363 212.68 187.123 211.18 187.743 209.02H185.283C184.863 210.16 184.023 210.76 182.663 210.76C180.823 210.76 179.603 209.4 179.603 206.98C179.603 204.58 180.823 203.22 182.663 203.22C184.023 203.22 184.903 203.9 185.283 204.96H187.743C187.123 202.64 185.363 201.3 182.663 201.3C179.503 201.3 177.263 203.54 177.263 206.98ZM190.376 209.44C190.376 211.68 191.596 212.5 193.556 212.5H195.356V210.6H193.956C192.996 210.6 192.676 210.26 192.676 209.44V203.34H195.356V201.48H192.676V198.74H190.376V201.48H189.076V203.34H190.376V209.44ZM207.437 201.48H205.157V207.62C205.157 209.64 204.057 210.68 202.377 210.68C200.717 210.68 199.617 209.64 199.617 207.62V201.48H197.357V207.96C197.357 211.04 199.317 212.66 201.897 212.66C203.197 212.66 204.437 212.12 205.157 211.18V212.5H207.437V201.48ZM212.725 206.7C212.725 204.36 213.765 203.66 215.445 203.66H216.025V201.3C214.465 201.3 213.365 201.98 212.725 203.08V201.48H210.445V212.5H212.725V206.7ZM222.761 203.22C224.461 203.22 225.801 204.3 225.841 206H219.741C219.981 204.26 221.221 203.22 222.761 203.22ZM227.921 209.22H225.461C225.041 210.08 224.261 210.76 222.861 210.76C221.181 210.76 219.881 209.66 219.721 207.84H228.141C228.201 207.46 228.221 207.1 228.221 206.72C228.221 203.48 226.001 201.3 222.861 201.3C219.601 201.3 217.361 203.52 217.361 206.98C217.361 210.44 219.701 212.68 222.861 212.68C225.561 212.68 227.301 211.14 227.921 209.22Z" fill="#212832"/>
<rect x="0.5" y="180.5" width="616" height="49" stroke="black" stroke-opacity="0.5"/>
<rect y="123" width="617" height="50" fill="white"/>
<path d="M24.6 151.44C26.08 151.44 27.24 150.3 27.24 148.84C27.24 147.36 26.08 146.22 24.6 146.22C23.16 146.22 22 147.36 22 148.84C22 150.3 23.16 151.44 24.6 151.44ZM50.5089 155.5H52.9089L47.9289 141.58H45.2889L40.3089 155.5H42.6889L43.6889 152.66H49.5089L50.5089 155.5ZM48.8689 150.8H44.3289L46.6089 144.34L48.8689 150.8ZM54.3142 149.94C54.3142 153.34 56.6142 155.68 59.5142 155.68C61.3142 155.68 62.6342 154.84 63.3342 153.84V155.5H65.6342V140.7H63.3342V146.02C62.4942 144.98 60.9742 144.3 59.5342 144.3C56.6142 144.3 54.3142 146.54 54.3142 149.94ZM63.3342 149.98C63.3342 152.36 61.7142 153.7 59.9942 153.7C58.2942 153.7 56.6542 152.32 56.6542 149.94C56.6542 147.56 58.2942 146.28 59.9942 146.28C61.7142 146.28 63.3342 147.62 63.3342 149.98ZM67.3289 144.48L71.5089 155.5H74.2289L78.4289 144.48H76.0089L72.8889 153.46L69.7689 144.48H67.3289ZM79.3923 149.94C79.3923 153.34 81.6923 155.68 84.5523 155.68C86.3923 155.68 87.7123 154.8 88.4123 153.86V155.5H90.7123V144.48H88.4123V146.08C87.7323 145.18 86.4523 144.3 84.5923 144.3C81.6923 144.3 79.3923 146.54 79.3923 149.94ZM88.4123 149.98C88.4123 152.36 86.7923 153.7 85.0723 153.7C83.3723 153.7 81.7323 152.32 81.7323 149.94C81.7323 147.56 83.3723 146.28 85.0723 146.28C86.7923 146.28 88.4123 147.62 88.4123 149.98ZM101.527 155.5H103.787V149C103.787 145.92 101.847 144.3 99.267 144.3C97.947 144.3 96.727 144.84 95.987 145.74V144.48H93.707V155.5H95.987V149.34C95.987 147.32 97.087 146.28 98.767 146.28C100.427 146.28 101.527 147.32 101.527 149.34V155.5ZM105.935 149.98C105.935 153.44 108.175 155.68 111.335 155.68C114.035 155.68 115.795 154.18 116.415 152.02H113.955C113.535 153.16 112.695 153.76 111.335 153.76C109.495 153.76 108.275 152.4 108.275 149.98C108.275 147.58 109.495 146.22 111.335 146.22C112.695 146.22 113.575 146.9 113.955 147.96H116.415C115.795 145.64 114.035 144.3 111.335 144.3C108.175 144.3 105.935 146.54 105.935 149.98ZM123.328 146.22C125.028 146.22 126.368 147.3 126.408 149H120.308C120.548 147.26 121.788 146.22 123.328 146.22ZM128.487 152.22H126.028C125.608 153.08 124.828 153.76 123.428 153.76C121.748 153.76 120.448 152.66 120.288 150.84H128.708C128.768 150.46 128.788 150.1 128.788 149.72C128.788 146.48 126.568 144.3 123.428 144.3C120.168 144.3 117.928 146.52 117.928 149.98C117.928 153.44 120.268 155.68 123.428 155.68C126.128 155.68 127.868 154.14 128.487 152.22ZM130.271 149.94C130.271 153.34 132.571 155.68 135.471 155.68C137.271 155.68 138.591 154.84 139.291 153.84V155.5H141.591V140.7H139.291V146.02C138.451 144.98 136.931 144.3 135.491 144.3C132.571 144.3 130.271 146.54 130.271 149.94ZM139.291 149.98C139.291 152.36 137.671 153.7 135.951 153.7C134.251 153.7 132.611 152.32 132.611 149.94C132.611 147.56 134.251 146.28 135.951 146.28C137.671 146.28 139.291 147.62 139.291 149.98ZM149.021 148.52C149.021 152.7 152.201 155.62 156.121 155.62C159.021 155.62 161.521 154.18 162.581 151.46H159.841C159.101 152.94 157.781 153.64 156.121 153.64C153.361 153.64 151.361 151.66 151.361 148.52C151.361 145.38 153.361 143.42 156.121 143.42C157.781 143.42 159.101 144.12 159.841 145.6H162.581C161.521 142.88 159.021 141.42 156.121 141.42C152.201 141.42 149.021 144.36 149.021 148.52ZM169.59 152.88L166.49 144.48H163.95L168.29 155.32L166.05 160.68H168.41L175.17 144.48H172.81L169.59 152.88ZM179.171 146.12V140.7H176.891V155.5H179.171V153.9C179.891 154.86 181.191 155.68 183.011 155.68C185.911 155.68 188.191 153.34 188.191 149.94C188.191 146.54 185.931 144.3 183.011 144.3C181.271 144.3 179.891 145.12 179.171 146.12ZM185.871 149.94C185.871 152.32 184.231 153.7 182.511 153.7C180.811 153.7 179.171 152.36 179.171 149.98C179.171 147.62 180.811 146.28 182.511 146.28C184.231 146.28 185.871 147.56 185.871 149.94ZM195.085 146.22C196.785 146.22 198.125 147.3 198.165 149H192.065C192.305 147.26 193.545 146.22 195.085 146.22ZM200.245 152.22H197.785C197.365 153.08 196.585 153.76 195.185 153.76C193.505 153.76 192.205 152.66 192.045 150.84H200.465C200.525 150.46 200.545 150.1 200.545 149.72C200.545 146.48 198.325 144.3 195.185 144.3C191.925 144.3 189.685 146.52 189.685 149.98C189.685 153.44 192.025 155.68 195.185 155.68C197.885 155.68 199.625 154.14 200.245 152.22ZM205.069 149.7C205.069 147.36 206.109 146.66 207.789 146.66H208.369V144.3C206.809 144.3 205.709 144.98 205.069 146.08V144.48H202.789V155.5H205.069V149.7ZM225.04 151.56C225.04 146.48 217.68 148.44 217.68 145.3C217.68 143.96 218.7 143.32 220.02 143.36C221.46 143.4 222.28 144.26 222.36 145.2H224.88C224.68 142.82 222.8 141.42 220.14 141.42C217.3 141.42 215.36 142.94 215.36 145.38C215.36 150.5 222.74 148.32 222.74 151.68C222.74 152.86 221.84 153.72 220.24 153.72C218.66 153.72 217.86 152.8 217.76 151.66H215.32C215.32 154.12 217.46 155.64 220.24 155.64C223.34 155.64 225.04 153.64 225.04 151.56ZM232.37 146.22C234.07 146.22 235.41 147.3 235.45 149H229.35C229.59 147.26 230.83 146.22 232.37 146.22ZM237.53 152.22H235.07C234.65 153.08 233.87 153.76 232.47 153.76C230.79 153.76 229.49 152.66 229.33 150.84H237.75C237.81 150.46 237.83 150.1 237.83 149.72C237.83 146.48 235.61 144.3 232.47 144.3C229.21 144.3 226.97 146.52 226.97 149.98C226.97 153.44 229.31 155.68 232.47 155.68C235.17 155.68 236.91 154.14 237.53 152.22ZM239.314 149.98C239.314 153.44 241.554 155.68 244.714 155.68C247.414 155.68 249.174 154.18 249.794 152.02H247.334C246.914 153.16 246.074 153.76 244.714 153.76C242.874 153.76 241.654 152.4 241.654 149.98C241.654 147.58 242.874 146.22 244.714 146.22C246.074 146.22 246.954 146.9 247.334 147.96H249.794C249.174 145.64 247.414 144.3 244.714 144.3C241.554 144.3 239.314 146.54 239.314 149.98ZM262.046 144.48H259.766V150.62C259.766 152.64 258.666 153.68 256.986 153.68C255.326 153.68 254.226 152.64 254.226 150.62V144.48H251.966V150.96C251.966 154.04 253.926 155.66 256.506 155.66C257.806 155.66 259.046 155.12 259.766 154.18V155.5H262.046V144.48ZM267.335 149.7C267.335 147.36 268.375 146.66 270.055 146.66H270.635V144.3C269.075 144.3 267.975 144.98 267.335 146.08V144.48H265.055V155.5H267.335V149.7ZM272.73 155.5H275.01V144.48H272.73V155.5ZM273.89 143.02C274.69 143.02 275.33 142.38 275.33 141.56C275.33 140.74 274.69 140.1 273.89 140.1C273.07 140.1 272.43 140.74 272.43 141.56C272.43 142.38 273.07 143.02 273.89 143.02ZM278.364 152.44C278.364 154.68 279.584 155.5 281.544 155.5H283.344V153.6H281.944C280.984 153.6 280.664 153.26 280.664 152.44V146.34H283.344V144.48H280.664V141.74H278.364V144.48H277.064V146.34H278.364V152.44ZM289.785 152.88L286.685 144.48H284.145L288.485 155.32L286.245 160.68H288.605L295.365 144.48H293.005L289.785 152.88Z" fill="#212832"/>
<rect x="0.5" y="123.5" width="616" height="49" stroke="black" stroke-opacity="0.5"/>
<rect y="237" width="617" height="50" fill="white"/>
<path d="M24.6 265.44C26.08 265.44 27.24 264.3 27.24 262.84C27.24 261.36 26.08 260.22 24.6 260.22C23.16 260.22 22 261.36 22 262.84C22 264.3 23.16 265.44 24.6 265.44ZM40.3689 262.52C40.3689 266.7 43.5489 269.62 47.4689 269.62C50.3689 269.62 52.8689 268.18 53.9289 265.46H51.1889C50.4489 266.94 49.1289 267.64 47.4689 267.64C44.7089 267.64 42.7089 265.66 42.7089 262.52C42.7089 259.38 44.7089 257.42 47.4689 257.42C49.1289 257.42 50.4489 258.12 51.1889 259.6H53.9289C52.8689 256.88 50.3689 255.42 47.4689 255.42C43.5489 255.42 40.3689 258.36 40.3689 262.52ZM58.8777 263.7C58.8777 261.36 59.9177 260.66 61.5977 260.66H62.1777V258.3C60.6177 258.3 59.5177 258.98 58.8777 260.08V258.48H56.5977V269.5H58.8777V263.7ZM68.6134 266.88L65.5134 258.48H62.9734L67.3134 269.32L65.0734 274.68H67.4334L74.1934 258.48H71.8334L68.6134 266.88ZM78.1941 260.1V258.48H75.9141V274.74H78.1941V267.9C78.9141 268.76 80.2141 269.68 82.0341 269.68C84.9341 269.68 87.2141 267.34 87.2141 263.94C87.2141 260.54 84.9341 258.3 82.0341 258.3C80.2341 258.3 78.8941 259.18 78.1941 260.1ZM84.8941 263.94C84.8941 266.32 83.2541 267.7 81.5341 267.7C79.8341 267.7 78.1941 266.36 78.1941 263.98C78.1941 261.62 79.8341 260.28 81.5341 260.28C83.2541 260.28 84.8941 261.56 84.8941 263.94ZM89.8288 266.44C89.8288 268.68 91.0488 269.5 93.0088 269.5H94.8088V267.6H93.4088C92.4488 267.6 92.1288 267.26 92.1288 266.44V260.34H94.8088V258.48H92.1288V255.74H89.8288V258.48H88.5288V260.34H89.8288V266.44ZM107.41 263.98C107.41 260.52 104.93 258.3 101.79 258.3C98.6502 258.3 96.1702 260.52 96.1702 263.98C96.1702 267.44 98.5502 269.68 101.69 269.68C104.85 269.68 107.41 267.44 107.41 263.98ZM98.4902 263.98C98.4902 261.48 100.03 260.28 101.75 260.28C103.45 260.28 105.07 261.48 105.07 263.98C105.07 266.48 103.39 267.7 101.69 267.7C99.9702 267.7 98.4902 266.48 98.4902 263.98ZM108.904 263.94C108.904 267.34 111.204 269.68 114.104 269.68C115.904 269.68 117.224 268.78 117.924 267.84V269.68C117.924 271.88 116.604 272.96 114.844 272.96C113.264 272.96 112.044 272.18 111.704 271.04H109.444C109.724 273.48 111.904 274.94 114.844 274.94C118.284 274.94 120.224 272.68 120.224 269.68V258.48H117.924V260.08C117.244 259.14 115.904 258.3 114.104 258.3C111.204 258.3 108.904 260.54 108.904 263.94ZM117.924 263.98C117.924 266.36 116.304 267.7 114.584 267.7C112.884 267.7 111.244 266.32 111.244 263.94C111.244 261.56 112.884 260.28 114.584 260.28C116.304 260.28 117.924 261.62 117.924 263.98ZM125.499 263.7C125.499 261.36 126.539 260.66 128.219 260.66H128.799V258.3C127.239 258.3 126.139 258.98 125.499 260.08V258.48H123.219V269.5H125.499V263.7ZM130.135 263.94C130.135 267.34 132.435 269.68 135.295 269.68C137.135 269.68 138.455 268.8 139.155 267.86V269.5H141.455V258.48H139.155V260.08C138.475 259.18 137.195 258.3 135.335 258.3C132.435 258.3 130.135 260.54 130.135 263.94ZM139.155 263.98C139.155 266.36 137.535 267.7 135.815 267.7C134.115 267.7 132.475 266.32 132.475 263.94C132.475 261.56 134.115 260.28 135.815 260.28C137.535 260.28 139.155 261.62 139.155 263.98ZM146.729 260.1V258.48H144.449V274.74H146.729V267.9C147.449 268.76 148.749 269.68 150.569 269.68C153.469 269.68 155.749 267.34 155.749 263.94C155.749 260.54 153.469 258.3 150.569 258.3C148.769 258.3 147.429 259.18 146.729 260.1ZM153.429 263.94C153.429 266.32 151.789 267.7 150.069 267.7C148.369 267.7 146.729 266.36 146.729 263.98C146.729 261.62 148.369 260.28 150.069 260.28C151.789 260.28 153.429 261.56 153.429 263.94ZM158.004 269.5H160.284V263.34C160.284 261.32 161.384 260.28 163.064 260.28C164.724 260.28 165.824 261.32 165.824 263.34V269.5H168.084V263C168.084 259.92 166.164 258.3 163.704 258.3C162.284 258.3 161.044 258.84 160.284 259.76V254.7H158.004V269.5ZM175.332 266.88L172.232 258.48H169.692L174.032 269.32L171.792 274.68H174.152L180.912 258.48H178.552L175.332 266.88Z" fill="#212832"/>
<rect x="0.5" y="237.5" width="616" height="49" stroke="black" stroke-opacity="0.5"/>
<rect width="617" height="58" fill="#3498DB"/>
<path d="M33.925 32.95C33.925 26.8 24.975 28.75 24.975 25.25C24.975 23.825 26 23.15 27.375 23.2C28.875 23.225 29.8 24.125 29.875 25.275H33.725C33.5 22.125 31.05 20.3 27.475 20.3C23.875 20.3 21.325 22.2 21.325 25.35C21.3 31.675 30.3 29.4 30.3 33.175C30.3 34.425 29.325 35.3 27.675 35.3C26.05 35.3 25.125 34.375 25.025 32.975H21.275C21.325 36.275 24.125 38.175 27.75 38.175C31.725 38.175 33.925 35.7 33.925 32.95ZM43.4094 26.8C45.2094 26.8 46.6594 27.95 46.7094 29.775H40.1344C40.4094 27.875 41.7344 26.8 43.4094 26.8ZM49.9844 33.65H46.2094C45.7594 34.575 44.9344 35.325 43.4344 35.325C41.6844 35.325 40.2844 34.175 40.1094 32.125H50.2344C50.3094 31.675 50.3344 31.225 50.3344 30.775C50.3344 26.65 47.5094 23.925 43.5094 23.925C39.4094 23.925 36.5594 26.7 36.5594 31.075C36.5594 35.425 39.4844 38.225 43.5094 38.225C46.9344 38.225 49.2344 36.2 49.9844 33.65ZM72.7641 38H76.2641V29.875C76.2641 26.05 73.9141 23.95 70.5891 23.95C68.5641 23.95 66.7391 25.025 65.8391 26.6C64.8891 24.875 63.1141 23.95 60.9641 23.95C59.2391 23.95 57.7641 24.675 56.8891 25.825V24.15H53.3891V38H56.8891V30.35C56.8891 28.15 58.1141 27 60.0141 27C61.8641 27 63.0891 28.15 63.0891 30.35V38H66.5891V30.35C66.5891 28.15 67.8141 27 69.6891 27C71.5391 27 72.7641 28.15 72.7641 30.35V38ZM86.0354 26.8C87.8354 26.8 89.2854 27.95 89.3354 29.775H82.7604C83.0354 27.875 84.3604 26.8 86.0354 26.8ZM92.6104 33.65H88.8354C88.3854 34.575 87.5604 35.325 86.0604 35.325C84.3104 35.325 82.9104 34.175 82.7354 32.125H92.8604C92.9354 31.675 92.9604 31.225 92.9604 30.775C92.9604 26.65 90.1354 23.925 86.1354 23.925C82.0354 23.925 79.1854 26.7 79.1854 31.075C79.1854 35.425 82.1104 38.225 86.1354 38.225C89.5604 38.225 91.8604 36.2 92.6104 33.65ZM106.765 34.05C106.665 28.975 98.99 30.55 98.99 28.025C98.99 27.225 99.665 26.7 100.965 26.7C102.34 26.7 103.19 27.425 103.29 28.5H106.64C106.44 25.75 104.415 23.925 101.065 23.925C97.64 23.925 95.59 25.775 95.59 28.075C95.59 33.15 103.415 31.575 103.415 34.05C103.415 34.85 102.665 35.475 101.29 35.475C99.89 35.475 98.915 34.675 98.79 33.625H95.265C95.415 36.2 97.84 38.225 101.315 38.225C104.69 38.225 106.765 36.425 106.765 34.05ZM110.688 33.7C110.688 36.875 112.463 38 115.113 38H117.313V35.05H115.688C114.588 35.05 114.213 34.65 114.213 33.725V27.025H117.313V24.15H114.213V20.725H110.688V24.15H109.038V27.025H110.688V33.7ZM126.28 26.8C128.08 26.8 129.53 27.95 129.58 29.775H123.005C123.28 27.875 124.605 26.8 126.28 26.8ZM132.855 33.65H129.08C128.63 34.575 127.805 35.325 126.305 35.325C124.555 35.325 123.155 34.175 122.98 32.125H133.105C133.18 31.675 133.205 31.225 133.205 30.775C133.205 26.65 130.38 23.925 126.38 23.925C122.28 23.925 119.43 26.7 119.43 31.075C119.43 35.425 122.355 38.225 126.38 38.225C129.805 38.225 132.105 36.2 132.855 33.65ZM139.76 31.1C139.76 28.425 141.01 27.625 143.085 27.625H144.01V23.95C142.085 23.95 140.635 24.875 139.76 26.3V24.15H136.26V38H139.76V31.1ZM165.625 24.325C165.35 21.75 163.6 19.35 159.875 19.35C155.25 19.35 153.325 22.65 153.325 28.6C153.325 34.25 154.675 38.05 160.075 38.05C163.975 38.05 166.15 35.475 166.15 31.95C166.15 28.15 163.875 26 160.625 26C158.85 26 157.2 26.75 156.375 28.125C156.425 23.925 157.475 22.225 159.75 22.225C161.325 22.225 162.05 22.975 162.375 24.325H165.625ZM159.825 28.875C161.85 28.875 162.825 30.15 162.825 32.025C162.825 33.9 161.7 35.075 159.9 35.075C157.85 35.075 156.7 33.85 156.7 31.9C156.7 29.825 158.2 28.875 159.825 28.875Z" fill="white"/>
</svg>
