<svg width="1240" height="107" viewBox="0 0 1240 107" fill="none" xmlns="http://www.w3.org/2000/svg">
<rect width="400" height="50" fill="white"/>
<path d="M24.6 25.94C26.08 25.94 27.24 24.8 27.24 23.34C27.24 21.86 26.08 20.72 24.6 20.72C23.16 20.72 22 21.86 22 23.34C22 24.8 23.16 25.94 24.6 25.94ZM40.3689 23.02C40.3689 27.2 43.5489 30.12 47.4689 30.12C50.3689 30.12 52.8689 28.68 53.9289 25.96H51.1889C50.4489 27.44 49.1289 28.14 47.4689 28.14C44.7089 28.14 42.7089 26.16 42.7089 23.02C42.7089 19.88 44.7089 17.92 47.4689 17.92C49.1289 17.92 50.4489 18.62 51.1889 20.1H53.9289C52.8689 17.38 50.3689 15.92 47.4689 15.92C43.5489 15.92 40.3689 18.86 40.3689 23.02ZM56.5977 30H58.8777V15.2H56.5977V30ZM72.3711 24.48C72.3711 21.02 69.8911 18.8 66.7511 18.8C63.6111 18.8 61.1311 21.02 61.1311 24.48C61.1311 27.94 63.5111 30.18 66.6511 30.18C69.8111 30.18 72.3711 27.94 72.3711 24.48ZM63.4511 24.48C63.4511 21.98 64.9911 20.78 66.7111 20.78C68.4111 20.78 70.0311 21.98 70.0311 24.48C70.0311 26.98 68.3511 28.2 66.6511 28.2C64.9311 28.2 63.4511 26.98 63.4511 24.48ZM84.605 18.98H82.325V25.12C82.325 27.14 81.225 28.18 79.545 28.18C77.885 28.18 76.785 27.14 76.785 25.12V18.98H74.525V25.46C74.525 28.54 76.485 30.16 79.065 30.16C80.365 30.16 81.605 29.62 82.325 28.68V30H84.605V18.98ZM86.8533 24.44C86.8533 27.84 89.1533 30.18 92.0533 30.18C93.8533 30.18 95.1733 29.34 95.8733 28.34V30H98.1733V15.2H95.8733V20.52C95.0333 19.48 93.5133 18.8 92.0733 18.8C89.1533 18.8 86.8533 21.04 86.8533 24.44ZM95.8733 24.48C95.8733 26.86 94.2533 28.2 92.5333 28.2C90.8333 28.2 89.1933 26.82 89.1933 24.44C89.1933 22.06 90.8333 20.78 92.5333 20.78C94.2533 20.78 95.8733 22.12 95.8733 24.48ZM110.903 16.1H106.363V30H110.903C115.363 30 118.283 27.38 118.283 23.1C118.283 18.8 115.363 16.1 110.903 16.1ZM108.643 28.14V17.96H110.903C114.183 17.96 115.943 19.92 115.943 23.1C115.943 26.26 114.183 28.14 110.903 28.14H108.643ZM125.183 20.72C126.883 20.72 128.223 21.8 128.263 23.5H122.163C122.403 21.76 123.643 20.72 125.183 20.72ZM130.343 26.72H127.883C127.463 27.58 126.683 28.26 125.283 28.26C123.603 28.26 122.303 27.16 122.143 25.34H130.563C130.623 24.96 130.643 24.6 130.643 24.22C130.643 20.98 128.423 18.8 125.283 18.8C122.023 18.8 119.783 21.02 119.783 24.48C119.783 27.94 122.123 30.18 125.283 30.18C127.983 30.18 129.723 28.64 130.343 26.72ZM131.587 18.98L135.767 30H138.487L142.687 18.98H140.267L137.147 27.96L134.027 18.98H131.587ZM149.05 20.72C150.75 20.72 152.09 21.8 152.13 23.5H146.03C146.27 21.76 147.51 20.72 149.05 20.72ZM154.21 26.72H151.75C151.33 27.58 150.55 28.26 149.15 28.26C147.47 28.26 146.17 27.16 146.01 25.34H154.43C154.49 24.96 154.51 24.6 154.51 24.22C154.51 20.98 152.29 18.8 149.15 18.8C145.89 18.8 143.65 21.02 143.65 24.48C143.65 27.94 145.99 30.18 149.15 30.18C151.85 30.18 153.59 28.64 154.21 26.72ZM156.754 30H159.034V15.2H156.754V30ZM172.527 24.48C172.527 21.02 170.047 18.8 166.907 18.8C163.767 18.8 161.287 21.02 161.287 24.48C161.287 27.94 163.667 30.18 166.807 30.18C169.967 30.18 172.527 27.94 172.527 24.48ZM163.607 24.48C163.607 21.98 165.147 20.78 166.867 20.78C168.567 20.78 170.187 21.98 170.187 24.48C170.187 26.98 168.507 28.2 166.807 28.2C165.087 28.2 163.607 26.98 163.607 24.48ZM177.061 20.6V18.98H174.781V35.24H177.061V28.4C177.781 29.26 179.081 30.18 180.901 30.18C183.801 30.18 186.081 27.84 186.081 24.44C186.081 21.04 183.801 18.8 180.901 18.8C179.101 18.8 177.761 19.68 177.061 20.6ZM183.761 24.44C183.761 26.82 182.121 28.2 180.401 28.2C178.701 28.2 177.061 26.86 177.061 24.48C177.061 22.12 178.701 20.78 180.401 20.78C182.121 20.78 183.761 22.06 183.761 24.44ZM192.976 20.72C194.676 20.72 196.016 21.8 196.056 23.5H189.956C190.196 21.76 191.436 20.72 192.976 20.72ZM198.136 26.72H195.676C195.256 27.58 194.476 28.26 193.076 28.26C191.396 28.26 190.096 27.16 189.936 25.34H198.356C198.416 24.96 198.436 24.6 198.436 24.22C198.436 20.98 196.216 18.8 193.076 18.8C189.816 18.8 187.576 21.02 187.576 24.48C187.576 27.94 189.916 30.18 193.076 30.18C195.776 30.18 197.516 28.64 198.136 26.72ZM202.96 24.2C202.96 21.86 204 21.16 205.68 21.16H206.26V18.8C204.7 18.8 203.6 19.48 202.96 20.58V18.98H200.68V30H202.96V24.2Z" fill="#212832"/>
<rect x="0.5" y="0.5" width="399" height="49" stroke="black" stroke-opacity="0.5"/>
<rect y="57" width="400" height="50" fill="white"/>
<path d="M24.6 82.94C26.08 82.94 27.24 81.8 27.24 80.34C27.24 78.86 26.08 77.72 24.6 77.72C23.16 77.72 22 78.86 22 80.34C22 81.8 23.16 82.94 24.6 82.94ZM50.5089 83.06C50.5089 77.98 43.1489 79.94 43.1489 76.8C43.1489 75.46 44.1689 74.82 45.4889 74.86C46.9289 74.9 47.7489 75.76 47.8289 76.7H50.3489C50.1489 74.32 48.2689 72.92 45.6089 72.92C42.7689 72.92 40.8289 74.44 40.8289 76.88C40.8289 82 48.2089 79.82 48.2089 83.18C48.2089 84.36 47.3089 85.22 45.7089 85.22C44.1289 85.22 43.3289 84.3 43.2289 83.16H40.7889C40.7889 85.62 42.9289 87.14 45.7089 87.14C48.8089 87.14 50.5089 85.14 50.5089 83.06ZM57.8392 77.72C59.5392 77.72 60.8792 78.8 60.9192 80.5H54.8192C55.0592 78.76 56.2992 77.72 57.8392 77.72ZM62.9992 83.72H60.5392C60.1192 84.58 59.3392 85.26 57.9392 85.26C56.2592 85.26 54.9592 84.16 54.7992 82.34H63.2192C63.2792 81.96 63.2992 81.6 63.2992 81.22C63.2992 77.98 61.0792 75.8 57.9392 75.8C54.6792 75.8 52.4392 78.02 52.4392 81.48C52.4392 84.94 54.7792 87.18 57.9392 87.18C60.6392 87.18 62.3792 85.64 62.9992 83.72ZM64.783 81.48C64.783 84.94 67.023 87.18 70.183 87.18C72.883 87.18 74.643 85.68 75.263 83.52H72.803C72.383 84.66 71.543 85.26 70.183 85.26C68.343 85.26 67.123 83.9 67.123 81.48C67.123 79.08 68.343 77.72 70.183 77.72C71.543 77.72 72.423 78.4 72.803 79.46H75.263C74.643 77.14 72.883 75.8 70.183 75.8C67.023 75.8 64.783 78.04 64.783 81.48ZM87.5152 75.98H85.2352V82.12C85.2352 84.14 84.1352 85.18 82.4552 85.18C80.7952 85.18 79.6952 84.14 79.6952 82.12V75.98H77.4352V82.46C77.4352 85.54 79.3952 87.16 81.9752 87.16C83.2752 87.16 84.5152 86.62 85.2352 85.68V87H87.5152V75.98ZM92.8034 81.2C92.8034 78.86 93.8434 78.16 95.5234 78.16H96.1034V75.8C94.5434 75.8 93.4434 76.48 92.8034 77.58V75.98H90.5234V87H92.8034V81.2ZM98.1992 87H100.479V75.98H98.1992V87ZM99.3592 74.52C100.159 74.52 100.799 73.88 100.799 73.06C100.799 72.24 100.159 71.6 99.3592 71.6C98.5392 71.6 97.8992 72.24 97.8992 73.06C97.8992 73.88 98.5392 74.52 99.3592 74.52ZM103.833 83.94C103.833 86.18 105.053 87 107.013 87H108.813V85.1H107.413C106.453 85.1 106.133 84.76 106.133 83.94V77.84H108.813V75.98H106.133V73.24H103.833V75.98H102.533V77.84H103.833V83.94ZM115.254 84.38L112.154 75.98H109.614L113.954 86.82L111.714 92.18H114.074L120.834 75.98H118.474L115.254 84.38ZM135.43 73.08H127.75V87H135.43V85.14H130.03V80.88H134.83V79.02H130.03V74.94H135.43V73.08ZM146.058 87H148.318V80.5C148.318 77.42 146.378 75.8 143.798 75.8C142.478 75.8 141.258 76.34 140.518 77.24V75.98H138.238V87H140.518V80.84C140.518 78.82 141.618 77.78 143.298 77.78C144.958 77.78 146.058 78.82 146.058 80.84V87ZM150.467 81.44C150.467 84.84 152.767 87.18 155.667 87.18C157.467 87.18 158.787 86.28 159.487 85.34V87.18C159.487 89.38 158.167 90.46 156.407 90.46C154.827 90.46 153.607 89.68 153.267 88.54H151.007C151.287 90.98 153.467 92.44 156.407 92.44C159.847 92.44 161.787 90.18 161.787 87.18V75.98H159.487V77.58C158.807 76.64 157.467 75.8 155.667 75.8C152.767 75.8 150.467 78.04 150.467 81.44ZM159.487 81.48C159.487 83.86 157.867 85.2 156.147 85.2C154.447 85.2 152.807 83.82 152.807 81.44C152.807 79.06 154.447 77.78 156.147 77.78C157.867 77.78 159.487 79.12 159.487 81.48ZM164.781 87H167.061V75.98H164.781V87ZM165.941 74.52C166.741 74.52 167.381 73.88 167.381 73.06C167.381 72.24 166.741 71.6 165.941 71.6C165.121 71.6 164.481 72.24 164.481 73.06C164.481 73.88 165.121 74.52 165.941 74.52ZM177.875 87H180.135V80.5C180.135 77.42 178.195 75.8 175.615 75.8C174.295 75.8 173.075 76.34 172.335 77.24V75.98H170.055V87H172.335V80.84C172.335 78.82 173.435 77.78 175.115 77.78C176.775 77.78 177.875 78.82 177.875 80.84V87ZM187.683 77.72C189.383 77.72 190.723 78.8 190.763 80.5H184.663C184.903 78.76 186.143 77.72 187.683 77.72ZM192.843 83.72H190.383C189.963 84.58 189.183 85.26 187.783 85.26C186.103 85.26 184.803 84.16 184.643 82.34H193.063C193.123 81.96 193.143 81.6 193.143 81.22C193.143 77.98 190.923 75.8 187.783 75.8C184.523 75.8 182.283 78.02 182.283 81.48C182.283 84.94 184.623 87.18 187.783 87.18C190.483 87.18 192.223 85.64 192.843 83.72ZM200.027 77.72C201.727 77.72 203.067 78.8 203.107 80.5H197.007C197.247 78.76 198.487 77.72 200.027 77.72ZM205.187 83.72H202.727C202.307 84.58 201.527 85.26 200.127 85.26C198.447 85.26 197.147 84.16 196.987 82.34H205.407C205.467 81.96 205.487 81.6 205.487 81.22C205.487 77.98 203.267 75.8 200.127 75.8C196.867 75.8 194.627 78.02 194.627 81.48C194.627 84.94 196.967 87.18 200.127 87.18C202.827 87.18 204.567 85.64 205.187 83.72ZM210.01 81.2C210.01 78.86 211.05 78.16 212.73 78.16H213.31V75.8C211.75 75.8 210.65 76.48 210.01 77.58V75.98H207.73V87H210.01V81.2Z" fill="#212832"/>
<rect x="0.5" y="57.5" width="399" height="49" stroke="black" stroke-opacity="0.5"/>
<rect x="840" width="400" height="50" fill="white"/>
<path d="M864.6 25.94C866.08 25.94 867.24 24.8 867.24 23.34C867.24 21.86 866.08 20.72 864.6 20.72C863.16 20.72 862 21.86 862 23.34C862 24.8 863.16 25.94 864.6 25.94ZM890.509 26.06C890.509 20.98 883.149 22.94 883.149 19.8C883.149 18.46 884.169 17.82 885.489 17.86C886.929 17.9 887.749 18.76 887.829 19.7H890.349C890.149 17.32 888.269 15.92 885.609 15.92C882.769 15.92 880.829 17.44 880.829 19.88C880.829 25 888.209 22.82 888.209 26.18C888.209 27.36 887.309 28.22 885.709 28.22C884.129 28.22 883.329 27.3 883.229 26.16H880.789C880.789 28.62 882.929 30.14 885.709 30.14C888.809 30.14 890.509 28.14 890.509 26.06ZM897.839 20.72C899.539 20.72 900.879 21.8 900.919 23.5H894.819C895.059 21.76 896.299 20.72 897.839 20.72ZM902.999 26.72H900.539C900.119 27.58 899.339 28.26 897.939 28.26C896.259 28.26 894.959 27.16 894.799 25.34H903.219C903.279 24.96 903.299 24.6 903.299 24.22C903.299 20.98 901.079 18.8 897.939 18.8C894.679 18.8 892.439 21.02 892.439 24.48C892.439 27.94 894.779 30.18 897.939 30.18C900.639 30.18 902.379 28.64 902.999 26.72ZM904.783 24.48C904.783 27.94 907.023 30.18 910.183 30.18C912.883 30.18 914.643 28.68 915.263 26.52H912.803C912.383 27.66 911.543 28.26 910.183 28.26C908.343 28.26 907.123 26.9 907.123 24.48C907.123 22.08 908.343 20.72 910.183 20.72C911.543 20.72 912.423 21.4 912.803 22.46H915.263C914.643 20.14 912.883 18.8 910.183 18.8C907.023 18.8 904.783 21.04 904.783 24.48ZM927.515 18.98H925.235V25.12C925.235 27.14 924.135 28.18 922.455 28.18C920.795 28.18 919.695 27.14 919.695 25.12V18.98H917.435V25.46C917.435 28.54 919.395 30.16 921.975 30.16C923.275 30.16 924.515 29.62 925.235 28.68V30H927.515V18.98ZM932.803 24.2C932.803 21.86 933.843 21.16 935.523 21.16H936.103V18.8C934.543 18.8 933.443 19.48 932.803 20.58V18.98H930.523V30H932.803V24.2ZM938.199 30H940.479V18.98H938.199V30ZM939.359 17.52C940.159 17.52 940.799 16.88 940.799 16.06C940.799 15.24 940.159 14.6 939.359 14.6C938.539 14.6 937.899 15.24 937.899 16.06C937.899 16.88 938.539 17.52 939.359 17.52ZM943.833 26.94C943.833 29.18 945.053 30 947.013 30H948.813V28.1H947.413C946.453 28.1 946.133 27.76 946.133 26.94V20.84H948.813V18.98H946.133V16.24H943.833V18.98H942.533V20.84H943.833V26.94ZM955.254 27.38L952.154 18.98H949.614L953.954 29.82L951.714 35.18H954.074L960.834 18.98H958.474L955.254 27.38ZM977.13 30H979.53L974.55 16.08H971.91L966.93 30H969.31L970.31 27.16H976.13L977.13 30ZM975.49 25.3H970.95L973.23 18.84L975.49 25.3ZM991.675 18.98H989.395V25.12C989.395 27.14 988.295 28.18 986.615 28.18C984.955 28.18 983.855 27.14 983.855 25.12V18.98H981.595V25.46C981.595 28.54 983.555 30.16 986.135 30.16C987.435 30.16 988.675 29.62 989.395 28.68V30H991.675V18.98ZM993.924 24.44C993.924 27.84 996.224 30.18 999.124 30.18C1000.92 30.18 1002.24 29.34 1002.94 28.34V30H1005.24V15.2H1002.94V20.52C1002.1 19.48 1000.58 18.8 999.144 18.8C996.224 18.8 993.924 21.04 993.924 24.44ZM1002.94 24.48C1002.94 26.86 1001.32 28.2 999.604 28.2C997.904 28.2 996.264 26.82 996.264 24.44C996.264 22.06 997.904 20.78 999.604 20.78C1001.32 20.78 1002.94 22.12 1002.94 24.48ZM1008.24 30H1010.52V18.98H1008.24V30ZM1009.4 17.52C1010.2 17.52 1010.84 16.88 1010.84 16.06C1010.84 15.24 1010.2 14.6 1009.4 14.6C1008.58 14.6 1007.94 15.24 1007.94 16.06C1007.94 16.88 1008.58 17.52 1009.4 17.52ZM1013.87 26.94C1013.87 29.18 1015.09 30 1017.05 30H1018.85V28.1H1017.45C1016.49 28.1 1016.17 27.76 1016.17 26.94V20.84H1018.85V18.98H1016.17V16.24H1013.87V18.98H1012.57V20.84H1013.87V26.94ZM1031.45 24.48C1031.45 21.02 1028.97 18.8 1025.83 18.8C1022.69 18.8 1020.21 21.02 1020.21 24.48C1020.21 27.94 1022.59 30.18 1025.73 30.18C1028.89 30.18 1031.45 27.94 1031.45 24.48ZM1022.53 24.48C1022.53 21.98 1024.07 20.78 1025.79 20.78C1027.49 20.78 1029.11 21.98 1029.11 24.48C1029.11 26.98 1027.43 28.2 1025.73 28.2C1024.01 28.2 1022.53 26.98 1022.53 24.48ZM1035.99 24.2C1035.99 21.86 1037.03 21.16 1038.71 21.16H1039.29V18.8C1037.73 18.8 1036.63 19.48 1035.99 20.58V18.98H1033.71V30H1035.99V24.2Z" fill="#212832"/>
<rect x="840.5" y="0.5" width="399" height="49" stroke="black" stroke-opacity="0.5"/>
<rect x="840" y="57" width="400" height="50" fill="white"/>
<path d="M864.6 82.94C866.08 82.94 867.24 81.8 867.24 80.34C867.24 78.86 866.08 77.72 864.6 77.72C863.16 77.72 862 78.86 862 80.34C862 81.8 863.16 82.94 864.6 82.94ZM880.409 74.96H884.129V87H886.409V74.96H890.109V73.1H880.409V74.96ZM897.058 77.72C898.758 77.72 900.098 78.8 900.138 80.5H894.038C894.278 78.76 895.518 77.72 897.058 77.72ZM902.218 83.72H899.758C899.338 84.58 898.558 85.26 897.158 85.26C895.478 85.26 894.178 84.16 894.018 82.34H902.438C902.498 81.96 902.518 81.6 902.518 81.22C902.518 77.98 900.298 75.8 897.158 75.8C893.898 75.8 891.658 78.02 891.658 81.48C891.658 84.94 893.998 87.18 897.158 87.18C899.858 87.18 901.598 85.64 902.218 83.72ZM904.002 81.44C904.002 84.84 906.302 87.18 909.162 87.18C911.002 87.18 912.322 86.3 913.022 85.36V87H915.322V75.98H913.022V77.58C912.342 76.68 911.062 75.8 909.202 75.8C906.302 75.8 904.002 78.04 904.002 81.44ZM913.022 81.48C913.022 83.86 911.402 85.2 909.682 85.2C907.982 85.2 906.342 83.82 906.342 81.44C906.342 79.06 907.982 77.78 909.682 77.78C911.402 77.78 913.022 79.12 913.022 81.48ZM917.556 81.48C917.556 84.94 919.796 87.18 922.956 87.18C925.656 87.18 927.416 85.68 928.036 83.52H925.576C925.156 84.66 924.316 85.26 922.956 85.26C921.116 85.26 919.896 83.9 919.896 81.48C919.896 79.08 921.116 77.72 922.956 77.72C924.316 77.72 925.196 78.4 925.576 79.46H928.036C927.416 77.14 925.656 75.8 922.956 75.8C919.796 75.8 917.556 78.04 917.556 81.48ZM930.309 87H932.589V80.84C932.589 78.82 933.689 77.78 935.369 77.78C937.029 77.78 938.129 78.82 938.129 80.84V87H940.389V80.5C940.389 77.42 938.469 75.8 936.009 75.8C934.589 75.8 933.349 76.34 932.589 77.26V72.2H930.309V87ZM947.937 77.72C949.637 77.72 950.977 78.8 951.017 80.5H944.917C945.157 78.76 946.397 77.72 947.937 77.72ZM953.097 83.72H950.637C950.217 84.58 949.437 85.26 948.037 85.26C946.357 85.26 945.057 84.16 944.897 82.34H953.317C953.377 81.96 953.397 81.6 953.397 81.22C953.397 77.98 951.177 75.8 948.037 75.8C944.777 75.8 942.537 78.02 942.537 81.48C942.537 84.94 944.877 87.18 948.037 87.18C950.737 87.18 952.477 85.64 953.097 83.72ZM957.921 81.2C957.921 78.86 958.961 78.16 960.641 78.16H961.221V75.8C959.661 75.8 958.561 76.48 957.921 77.58V75.98H955.641V87H957.921V81.2ZM963.036 90.5H965.276L970.716 68.12H968.456L963.036 90.5ZM973.59 73.1V87H980.57V85.16H975.87V73.1H973.59ZM987.117 77.72C988.817 77.72 990.157 78.8 990.197 80.5H984.097C984.337 78.76 985.577 77.72 987.117 77.72ZM992.277 83.72H989.817C989.397 84.58 988.617 85.26 987.217 85.26C985.537 85.26 984.237 84.16 984.077 82.34H992.497C992.557 81.96 992.577 81.6 992.577 81.22C992.577 77.98 990.357 75.8 987.217 75.8C983.957 75.8 981.717 78.02 981.717 81.48C981.717 84.94 984.057 87.18 987.217 87.18C989.917 87.18 991.657 85.64 992.277 83.72ZM994.06 81.48C994.06 84.94 996.3 87.18 999.46 87.18C1002.16 87.18 1003.92 85.68 1004.54 83.52H1002.08C1001.66 84.66 1000.82 85.26 999.46 85.26C997.62 85.26 996.4 83.9 996.4 81.48C996.4 79.08 997.62 77.72 999.46 77.72C1000.82 77.72 1001.7 78.4 1002.08 79.46H1004.54C1003.92 77.14 1002.16 75.8 999.46 75.8C996.3 75.8 994.06 78.04 994.06 81.48ZM1007.17 83.94C1007.17 86.18 1008.39 87 1010.35 87H1012.15V85.1H1010.75C1009.79 85.1 1009.47 84.76 1009.47 83.94V77.84H1012.15V75.98H1009.47V73.24H1007.17V75.98H1005.87V77.84H1007.17V83.94ZM1024.23 75.98H1021.95V82.12C1021.95 84.14 1020.85 85.18 1019.17 85.18C1017.51 85.18 1016.41 84.14 1016.41 82.12V75.98H1014.15V82.46C1014.15 85.54 1016.11 87.16 1018.69 87.16C1019.99 87.16 1021.23 86.62 1021.95 85.68V87H1024.23V75.98ZM1029.52 81.2C1029.52 78.86 1030.56 78.16 1032.24 78.16H1032.82V75.8C1031.26 75.8 1030.16 76.48 1029.52 77.58V75.98H1027.24V87H1029.52V81.2ZM1039.56 77.72C1041.26 77.72 1042.6 78.8 1042.64 80.5H1036.54C1036.78 78.76 1038.02 77.72 1039.56 77.72ZM1044.72 83.72H1042.26C1041.84 84.58 1041.06 85.26 1039.66 85.26C1037.98 85.26 1036.68 84.16 1036.52 82.34H1044.94C1045 81.96 1045.02 81.6 1045.02 81.22C1045.02 77.98 1042.8 75.8 1039.66 75.8C1036.4 75.8 1034.16 78.02 1034.16 81.48C1034.16 84.94 1036.5 87.18 1039.66 87.18C1042.36 87.18 1044.1 85.64 1044.72 83.72ZM1049.54 81.2C1049.54 78.86 1050.58 78.16 1052.26 78.16H1052.84V75.8C1051.28 75.8 1050.18 76.48 1049.54 77.58V75.98H1047.26V87H1049.54V81.2Z" fill="#212832"/>
<rect x="840.5" y="57.5" width="399" height="49" stroke="black" stroke-opacity="0.5"/>
<rect x="420" width="400" height="50" fill="white"/>
<path d="M444.6 25.94C446.08 25.94 447.24 24.8 447.24 23.34C447.24 21.86 446.08 20.72 444.6 20.72C443.16 20.72 442 21.86 442 23.34C442 24.8 443.16 25.94 444.6 25.94ZM463.949 30.02L466.509 30L469.609 19.48L472.529 30H475.109L479.229 16.1H476.789L473.889 27.36L470.989 16.1H468.429L465.309 27.42L462.429 16.1H460.009L463.949 30.02ZM485.749 20.72C487.449 20.72 488.789 21.8 488.829 23.5H482.729C482.969 21.76 484.209 20.72 485.749 20.72ZM490.909 26.72H488.449C488.029 27.58 487.249 28.26 485.849 28.26C484.169 28.26 482.869 27.16 482.709 25.34H491.129C491.189 24.96 491.209 24.6 491.209 24.22C491.209 20.98 488.989 18.8 485.849 18.8C482.589 18.8 480.349 21.02 480.349 24.48C480.349 27.94 482.689 30.18 485.849 30.18C488.549 30.18 490.289 28.64 490.909 26.72ZM495.733 20.62V15.2H493.453V30H495.733V28.4C496.453 29.36 497.753 30.18 499.573 30.18C502.473 30.18 504.753 27.84 504.753 24.44C504.753 21.04 502.493 18.8 499.573 18.8C497.833 18.8 496.453 19.62 495.733 20.62ZM502.433 24.44C502.433 26.82 500.793 28.2 499.073 28.2C497.373 28.2 495.733 26.86 495.733 24.48C495.733 22.12 497.373 20.78 499.073 20.78C500.793 20.78 502.433 22.06 502.433 24.44ZM516.743 16.1H512.203V30H516.743C521.203 30 524.123 27.38 524.123 23.1C524.123 18.8 521.203 16.1 516.743 16.1ZM514.483 28.14V17.96H516.743C520.023 17.96 521.783 19.92 521.783 23.1C521.783 26.26 520.023 28.14 516.743 28.14H514.483ZM531.023 20.72C532.723 20.72 534.063 21.8 534.103 23.5H528.003C528.243 21.76 529.483 20.72 531.023 20.72ZM536.183 26.72H533.723C533.303 27.58 532.523 28.26 531.123 28.26C529.443 28.26 528.143 27.16 527.983 25.34H536.403C536.463 24.96 536.483 24.6 536.483 24.22C536.483 20.98 534.263 18.8 531.123 18.8C527.863 18.8 525.623 21.02 525.623 24.48C525.623 27.94 527.963 30.18 531.123 30.18C533.823 30.18 535.563 28.64 536.183 26.72ZM537.427 18.98L541.607 30H544.327L548.527 18.98H546.107L542.987 27.96L539.867 18.98H537.427ZM554.89 20.72C556.59 20.72 557.93 21.8 557.97 23.5H551.87C552.11 21.76 553.35 20.72 554.89 20.72ZM560.05 26.72H557.59C557.17 27.58 556.39 28.26 554.99 28.26C553.31 28.26 552.01 27.16 551.85 25.34H560.27C560.33 24.96 560.35 24.6 560.35 24.22C560.35 20.98 558.13 18.8 554.99 18.8C551.73 18.8 549.49 21.02 549.49 24.48C549.49 27.94 551.83 30.18 554.99 30.18C557.69 30.18 559.43 28.64 560.05 26.72ZM562.594 30H564.874V15.2H562.594V30ZM578.367 24.48C578.367 21.02 575.887 18.8 572.747 18.8C569.607 18.8 567.127 21.02 567.127 24.48C567.127 27.94 569.507 30.18 572.647 30.18C575.807 30.18 578.367 27.94 578.367 24.48ZM569.447 24.48C569.447 21.98 570.987 20.78 572.707 20.78C574.407 20.78 576.027 21.98 576.027 24.48C576.027 26.98 574.347 28.2 572.647 28.2C570.927 28.2 569.447 26.98 569.447 24.48ZM582.901 20.6V18.98H580.621V35.24H582.901V28.4C583.621 29.26 584.921 30.18 586.741 30.18C589.641 30.18 591.921 27.84 591.921 24.44C591.921 21.04 589.641 18.8 586.741 18.8C584.941 18.8 583.601 19.68 582.901 20.6ZM589.601 24.44C589.601 26.82 587.961 28.2 586.241 28.2C584.541 28.2 582.901 26.86 582.901 24.48C582.901 22.12 584.541 20.78 586.241 20.78C587.961 20.78 589.601 22.06 589.601 24.44ZM598.816 20.72C600.516 20.72 601.856 21.8 601.896 23.5H595.796C596.036 21.76 597.276 20.72 598.816 20.72ZM603.976 26.72H601.516C601.096 27.58 600.316 28.26 598.916 28.26C597.236 28.26 595.936 27.16 595.776 25.34H604.196C604.256 24.96 604.276 24.6 604.276 24.22C604.276 20.98 602.056 18.8 598.916 18.8C595.656 18.8 593.416 21.02 593.416 24.48C593.416 27.94 595.756 30.18 598.916 30.18C601.616 30.18 603.356 28.64 603.976 26.72ZM608.8 24.2C608.8 21.86 609.84 21.16 611.52 21.16H612.1V18.8C610.54 18.8 609.44 19.48 608.8 20.58V18.98H606.52V30H608.8V24.2Z" fill="#212832"/>
<rect x="420.5" y="0.5" width="399" height="49" stroke="black" stroke-opacity="0.5"/>
<rect x="420" y="57" width="400" height="50" fill="white"/>
<path d="M444.6 82.94C446.08 82.94 447.24 81.8 447.24 80.34C447.24 78.86 446.08 77.72 444.6 77.72C443.16 77.72 442 78.86 442 80.34C442 81.8 443.16 82.94 444.6 82.94ZM460.369 80.02C460.369 84.2 463.549 87.12 467.469 87.12C470.369 87.12 472.869 85.68 473.929 82.96H471.189C470.449 84.44 469.129 85.14 467.469 85.14C464.709 85.14 462.709 83.16 462.709 80.02C462.709 76.88 464.709 74.92 467.469 74.92C469.129 74.92 470.449 75.62 471.189 77.1H473.929C472.869 74.38 470.369 72.92 467.469 72.92C463.549 72.92 460.369 75.86 460.369 80.02ZM487.098 81.48C487.098 78.02 484.618 75.8 481.478 75.8C478.338 75.8 475.858 78.02 475.858 81.48C475.858 84.94 478.238 87.18 481.378 87.18C484.538 87.18 487.098 84.94 487.098 81.48ZM478.178 81.48C478.178 78.98 479.718 77.78 481.438 77.78C483.138 77.78 484.758 78.98 484.758 81.48C484.758 83.98 483.078 85.2 481.378 85.2C479.658 85.2 478.178 83.98 478.178 81.48ZM504.972 87H507.232V80.5C507.232 77.42 505.272 75.8 502.692 75.8C501.092 75.8 499.532 76.64 498.852 77.98C498.092 76.54 496.632 75.8 494.892 75.8C493.572 75.8 492.372 76.34 491.632 77.24V75.98H489.352V87H491.632V80.84C491.632 78.82 492.732 77.78 494.412 77.78C496.072 77.78 497.172 78.82 497.172 80.84V87H499.432V80.84C499.432 78.82 500.532 77.78 502.212 77.78C503.872 77.78 504.972 78.82 504.972 80.84V87ZM512.413 77.6V75.98H510.133V92.24H512.413V85.4C513.133 86.26 514.433 87.18 516.253 87.18C519.153 87.18 521.433 84.84 521.433 81.44C521.433 78.04 519.153 75.8 516.253 75.8C514.453 75.8 513.113 76.68 512.413 77.6ZM519.113 81.44C519.113 83.82 517.473 85.2 515.753 85.2C514.053 85.2 512.413 83.86 512.413 81.48C512.413 79.12 514.053 77.78 515.753 77.78C517.473 77.78 519.113 79.06 519.113 81.44ZM533.668 75.98H531.388V82.12C531.388 84.14 530.288 85.18 528.608 85.18C526.948 85.18 525.848 84.14 525.848 82.12V75.98H523.588V82.46C523.588 85.54 525.548 87.16 528.128 87.16C529.428 87.16 530.668 86.62 531.388 85.68V87H533.668V75.98ZM537.036 83.94C537.036 86.18 538.256 87 540.216 87H542.016V85.1H540.616C539.656 85.1 539.336 84.76 539.336 83.94V77.84H542.016V75.98H539.336V73.24H537.036V75.98H535.736V77.84H537.036V83.94ZM548.757 77.72C550.457 77.72 551.797 78.8 551.837 80.5H545.737C545.977 78.76 547.217 77.72 548.757 77.72ZM553.917 83.72H551.457C551.037 84.58 550.257 85.26 548.857 85.26C547.177 85.26 545.877 84.16 545.717 82.34H554.137C554.197 81.96 554.217 81.6 554.217 81.22C554.217 77.98 551.997 75.8 548.857 75.8C545.597 75.8 543.357 78.02 543.357 81.48C543.357 84.94 545.697 87.18 548.857 87.18C551.557 87.18 553.297 85.64 553.917 83.72ZM558.741 81.2C558.741 78.86 559.781 78.16 561.461 78.16H562.041V75.8C560.481 75.8 559.381 76.48 558.741 77.58V75.98H556.461V87H558.741V81.2ZM578.712 83.06C578.712 77.98 571.352 79.94 571.352 76.8C571.352 75.46 572.372 74.82 573.692 74.86C575.132 74.9 575.952 75.76 576.032 76.7H578.552C578.352 74.32 576.472 72.92 573.812 72.92C570.972 72.92 569.032 74.44 569.032 76.88C569.032 82 576.412 79.82 576.412 83.18C576.412 84.36 575.512 85.22 573.912 85.22C572.332 85.22 571.532 84.3 571.432 83.16H568.992C568.992 85.62 571.132 87.14 573.912 87.14C577.012 87.14 578.712 85.14 578.712 83.06ZM585.742 84.38L582.642 75.98H580.102L584.442 86.82L582.202 92.18H584.562L591.322 75.98H588.962L585.742 84.38ZM601.263 83.92C601.143 79.94 594.923 81.18 594.923 78.96C594.923 78.22 595.563 77.72 596.783 77.72C598.023 77.72 598.763 78.38 598.843 79.34H601.123C601.003 77.14 599.363 75.8 596.863 75.8C594.263 75.8 592.623 77.22 592.623 78.98C592.623 83.02 599.023 81.78 599.023 83.94C599.023 84.7 598.323 85.26 597.003 85.26C595.743 85.26 594.883 84.52 594.803 83.62H592.443C592.543 85.62 594.403 87.18 597.043 87.18C599.643 87.18 601.263 85.78 601.263 83.92ZM604.087 83.94C604.087 86.18 605.307 87 607.267 87H609.067V85.1H607.667C606.707 85.1 606.387 84.76 606.387 83.94V77.84H609.067V75.98H606.387V73.24H604.087V75.98H602.787V77.84H604.087V83.94ZM615.808 77.72C617.508 77.72 618.848 78.8 618.888 80.5H612.788C613.028 78.76 614.268 77.72 615.808 77.72ZM620.968 83.72H618.508C618.088 84.58 617.308 85.26 615.908 85.26C614.228 85.26 612.928 84.16 612.768 82.34H621.188C621.248 81.96 621.268 81.6 621.268 81.22C621.268 77.98 619.048 75.8 615.908 75.8C612.648 75.8 610.408 78.02 610.408 81.48C610.408 84.94 612.748 87.18 615.908 87.18C618.608 87.18 620.348 85.64 620.968 83.72ZM639.132 87H641.392V80.5C641.392 77.42 639.432 75.8 636.852 75.8C635.252 75.8 633.692 76.64 633.012 77.98C632.252 76.54 630.792 75.8 629.052 75.8C627.732 75.8 626.532 76.34 625.792 77.24V75.98H623.512V87H625.792V80.84C625.792 78.82 626.892 77.78 628.572 77.78C630.232 77.78 631.332 78.82 631.332 80.84V87H633.592V80.84C633.592 78.82 634.692 77.78 636.372 77.78C638.032 77.78 639.132 78.82 639.132 80.84V87ZM658.868 87H661.268L656.288 73.08H653.648L648.668 87H651.048L652.048 84.16H657.868L658.868 87ZM657.228 82.3H652.688L654.968 75.84L657.228 82.3ZM671.254 87H673.514V80.5C673.514 77.42 671.574 75.8 668.994 75.8C667.674 75.8 666.454 76.34 665.714 77.24V75.98H663.434V87H665.714V80.84C665.714 78.82 666.814 77.78 668.494 77.78C670.154 77.78 671.254 78.82 671.254 80.84V87ZM675.662 81.44C675.662 84.84 677.962 87.18 680.822 87.18C682.662 87.18 683.982 86.3 684.682 85.36V87H686.982V75.98H684.682V77.58C684.002 76.68 682.722 75.8 680.862 75.8C677.962 75.8 675.662 78.04 675.662 81.44ZM684.682 81.48C684.682 83.86 683.062 85.2 681.342 85.2C679.642 85.2 678.002 83.82 678.002 81.44C678.002 79.06 679.642 77.78 681.342 77.78C683.062 77.78 684.682 79.12 684.682 81.48ZM689.977 87H692.257V72.2H689.977V87ZM699.59 84.38L696.49 75.98H693.95L698.29 86.82L696.05 92.18H698.41L705.17 75.98H702.81L699.59 84.38ZM715.111 83.92C714.991 79.94 708.771 81.18 708.771 78.96C708.771 78.22 709.411 77.72 710.631 77.72C711.871 77.72 712.611 78.38 712.691 79.34H714.971C714.851 77.14 713.211 75.8 710.711 75.8C708.111 75.8 706.471 77.22 706.471 78.98C706.471 83.02 712.871 81.78 712.871 83.94C712.871 84.7 712.171 85.26 710.851 85.26C709.591 85.26 708.731 84.52 708.651 83.62H706.291C706.391 85.62 708.251 87.18 710.891 87.18C713.491 87.18 715.111 85.78 715.111 83.92ZM717.934 83.94C717.934 86.18 719.154 87 721.114 87H722.914V85.1H721.514C720.554 85.1 720.234 84.76 720.234 83.94V77.84H722.914V75.98H720.234V73.24H717.934V75.98H716.634V77.84H717.934V83.94Z" fill="#212832"/>
<rect x="420.5" y="57.5" width="399" height="49" stroke="black" stroke-opacity="0.5"/>
</svg>
