<svg width="396" height="344" viewBox="0 0 396 344" fill="none" xmlns="http://www.w3.org/2000/svg">
<path d="M396 0H0V344H396V0Z" fill="#005AE6"/>
<path d="M175.184 40.2959C175.184 42.5024 173.688 43.7366 171.145 43.7366H165.872V36.7057H171.033C173.576 36.7057 175.184 38.052 175.184 40.2959ZM174.548 29.413C174.548 31.5447 173.127 32.6666 170.659 32.6666H165.872V26.1219H170.659C173.127 26.1219 174.548 27.3186 174.548 29.413ZM180.495 40.9317C180.495 37.865 178.4 35.1349 175.446 34.6113C177.989 33.7886 179.896 31.8065 179.896 28.6276C179.896 24.7381 176.867 21.8959 171.407 21.8959H160.636V48H171.893C177.316 48 180.495 45.0829 180.495 40.9317ZM183.396 34.9105C183.396 42.7268 189.118 48.2244 196.635 48.2244C202.432 48.2244 207.144 45.1577 208.902 39.7723H202.881C201.646 42.3154 199.402 43.5496 196.598 43.5496C192.035 43.5496 188.781 40.1837 188.781 34.9105C188.781 29.5999 192.035 26.2715 196.598 26.2715C199.402 26.2715 201.646 27.5056 202.881 30.0113H208.902C207.144 24.6633 202.432 21.5593 196.635 21.5593C189.118 21.5593 183.396 27.0942 183.396 34.9105ZM231.101 48H236.636L227.249 21.8585H221.153L211.766 48H217.263L218.983 43.026H229.38L231.101 48ZM227.959 38.8374H220.405L224.182 27.917L227.959 38.8374Z" fill="white"/>
<path d="M76.2222 67.0335C76.2222 71.7906 79.7047 75.1366 84.2798 75.1366C87.8078 75.1366 90.6757 73.2701 91.7455 69.9925H88.0809C87.3298 71.5403 85.9641 72.2914 84.257 72.2914C81.4801 72.2914 79.4999 70.2429 79.4999 67.0335C79.4999 63.8014 81.4801 61.7756 84.257 61.7756C85.9641 61.7756 87.3298 62.5268 88.0809 64.0518H91.7455C90.6757 60.7969 87.8078 58.9077 84.2798 58.9077C79.7047 58.9077 76.2222 62.2764 76.2222 67.0335ZM94.4673 59.1126V75H102.889V72.4735H97.6539V59.1126H94.4673ZM120.415 67.0108C120.415 62.2536 116.819 58.885 112.289 58.885C107.805 58.885 104.14 62.2536 104.14 67.0108C104.14 71.7906 107.805 75.1593 112.289 75.1593C116.796 75.1593 120.415 71.7906 120.415 67.0108ZM107.418 67.0108C107.418 63.7786 109.398 61.7529 112.289 61.7529C115.157 61.7529 117.137 63.7786 117.137 67.0108C117.137 70.2429 115.157 72.3142 112.289 72.3142C109.398 72.3142 107.418 70.2429 107.418 67.0108ZM122.74 68.9227C122.74 73.1108 125.608 75.1593 129.091 75.1593C132.573 75.1593 135.577 73.1108 135.577 68.9227V59.1126H132.368V68.9455C132.368 71.1306 131.185 72.2686 129.136 72.2686C127.11 72.2686 125.927 71.1306 125.927 68.9455V59.1126H122.74V68.9227ZM144.21 59.1126H138.656V75H144.21C149.286 75 152.586 71.8817 152.586 67.079C152.586 62.2536 149.286 59.1126 144.21 59.1126ZM141.843 72.2914V61.7984H144.096C147.442 61.7984 149.331 63.7786 149.331 67.079C149.331 70.3794 147.442 72.2914 144.096 72.2914H141.843ZM171.184 75H174.553L168.84 59.0898H165.13L159.416 75H162.762L163.809 71.9727H170.137L171.184 75ZM169.272 69.4235H164.674L166.973 62.7771L169.272 69.4235ZM187.09 59.0898V70.0153L179.875 59.0898H176.688V75H179.875V64.0973L187.09 75H190.277V59.0898H187.09ZM198.98 59.1126H193.426V75H198.98C204.055 75 207.356 71.8817 207.356 67.079C207.356 62.2536 204.055 59.1126 198.98 59.1126ZM196.612 72.2914V61.7984H198.866C202.212 61.7984 204.101 63.7786 204.101 67.079C204.101 70.3794 202.212 72.2914 198.866 72.2914H196.612ZM226.272 70.4022C226.272 64.8029 218.124 66.5783 218.124 63.3917C218.124 62.0943 219.057 61.4797 220.309 61.5253C221.674 61.548 222.517 62.3674 222.585 63.4145H226.09C225.885 60.5465 223.655 58.885 220.4 58.885C217.122 58.885 214.801 60.6148 214.801 63.4827C214.778 69.2414 222.972 67.1701 222.972 70.6071C222.972 71.7451 222.084 72.5418 220.582 72.5418C219.102 72.5418 218.26 71.6996 218.169 70.425H214.755C214.801 73.4295 217.35 75.1593 220.65 75.1593C224.269 75.1593 226.272 72.906 226.272 70.4022ZM238.253 59.0898H229.035V75H238.253V72.4052H232.222V68.1944H237.57V65.6678H232.222V61.6846H238.253V59.0898ZM240.375 67.0335C240.375 71.7906 243.858 75.1366 248.433 75.1366C251.961 75.1366 254.829 73.2701 255.899 69.9925H252.234C251.483 71.5403 250.117 72.2914 248.41 72.2914C245.633 72.2914 243.653 70.2429 243.653 67.0335C243.653 63.8014 245.633 61.7756 248.41 61.7756C250.117 61.7756 251.483 62.5268 252.234 64.0518H255.899C254.829 60.7969 251.961 58.9077 248.433 58.9077C243.858 58.9077 240.375 62.2764 240.375 67.0335ZM258.575 68.9227C258.575 73.1108 261.443 75.1593 264.925 75.1593C268.408 75.1593 271.412 73.1108 271.412 68.9227V59.1126H268.203V68.9455C268.203 71.1306 267.019 72.2686 264.971 72.2686C262.945 72.2686 261.761 71.1306 261.761 68.9455V59.1126H258.575V68.9227ZM282.913 64.0518C282.913 65.4857 282.116 66.419 280.341 66.419H277.678V61.7529H280.341C282.116 61.7529 282.913 62.6406 282.913 64.0518ZM274.491 59.1126V75H277.678V68.8089H279.18L282.685 75H286.372L282.571 68.5585C285.121 67.8757 286.19 65.9182 286.19 63.9835C286.19 61.3204 284.278 59.1126 280.454 59.1126H274.491ZM289.073 75H292.259V59.1126H289.073V75ZM294.565 61.6846H298.799V75H301.985V61.6846H306.219V59.1126H294.565V61.6846ZM312.618 69.469V75H315.805V69.469L321.177 59.1126H317.626L314.234 66.3734L310.82 59.1126H307.224L312.618 69.469Z" fill="white"/>
<line x1="170" y1="86.8141" x2="226.753" y2="86.8141" stroke="white" stroke-width="0.371719"/>
<path d="M36.044 278.781C36.6462 284.337 44.0837 283.117 49.007 287.257C53.9302 291.398 49.0521 297.059 60.3439 298.278C67.2997 299.031 66.8028 296.11 73.7285 303.262C79.811 309.555 80.9552 299.182 87.7604 300.823C96.5529 302.945 97.2154 285.631 89.1305 282.274C81.0305 278.901 77.0708 283.614 75.5803 276.357C74.0898 269.085 68.6396 266.36 61.714 267.986C53.1322 270.004 54.3517 277.501 49.9404 273.376C45.514 269.236 35.246 271.434 36.044 278.781Z" fill="#80B2FF"/>
<path d="M99.7448 301.44C75.0384 282.274 45.9959 279.353 45.6948 279.323C44.5957 279.218 44.7161 277.893 45.8152 277.998C46.1163 278.028 75.746 281.07 100.739 300.461L99.7448 301.44Z" fill="#005CEA"/>
<path d="M64.3785 259.721C62.9482 263.259 67.8262 264.945 69.4523 269.04C71.0783 273.135 66.7422 276.628 73.171 281.024C77.1156 283.734 78.7868 278.585 82.5507 283.253C86.3147 287.92 84.4779 289.26 87.8202 290.494C93.6318 292.647 99.7293 283.614 95.9503 278.962C92.1563 274.31 86.9922 275.966 88.4676 271.103C89.928 266.24 90.4249 264.177 85.7124 262.897C79.8859 261.331 75.866 264.885 74.5411 260.955C73.1861 257.041 66.2755 255.038 64.3785 259.721Z" fill="#4D93FF"/>
<path d="M99.7444 301.44L100.753 300.612C91.9757 280.799 70.7019 262.551 70.5213 262.431C69.7986 261.949 69.2867 262.702 70.0094 263.198C70.19 263.304 91.0874 281.883 99.7444 301.44Z" fill="#005CEA"/>
<path d="M344.22 185.255H333.063V171.479H344.22V185.255ZM333.651 184.667H343.618V172.081H333.651V184.667Z" fill="#80B2FF"/>
<path d="M342.278 173.948H336.812V174.806H342.278V173.948Z" fill="#0041A6"/>
<path d="M342.263 175.965H335.187V176.823H342.263V175.965Z" fill="#0041A6"/>
<path d="M342.263 177.968H335.187V178.826H342.263V177.968Z" fill="#0041A6"/>
<path d="M342.263 179.985H335.187V180.843H342.263V179.985Z" fill="#0041A6"/>
<path d="M342.263 182.003H335.187V182.861H342.263V182.003Z" fill="#0041A6"/>
<path d="M345.619 173.391H335.05V186.579H345.619V173.391Z" fill="#80B2FF"/>
<path d="M343.963 175.559H338.498V176.417H343.963V175.559Z" fill="#005CEA"/>
<path d="M343.963 177.576H336.887V178.434H343.963V177.576Z" fill="#005CEA"/>
<path d="M343.963 179.594H336.887V180.452H343.963V179.594Z" fill="#005CEA"/>
<path d="M343.963 181.611H336.887V182.469H343.963V181.611Z" fill="#005CEA"/>
<path d="M343.963 183.614H336.887V184.472H343.963V183.614Z" fill="#005CEA"/>
<path d="M284.629 133.523H283.65V134.261H284.629V133.523Z" fill="#97C6FF"/>
<path d="M284.629 162.069H283.65V160.518H284.629V162.069ZM284.629 158.982H283.65V157.432H284.629V158.982ZM284.629 155.896H283.65V154.345H284.629V155.896ZM284.629 152.795H283.65V151.244H284.629V152.795ZM284.629 149.708H283.65V148.157H284.629V149.708ZM284.629 146.622H283.65V145.071H284.629V146.622ZM284.629 143.535H283.65V141.985H284.629V143.535ZM284.629 140.449H283.65V138.898H284.629V140.449ZM284.629 137.347H283.65V135.797H284.629V137.347Z" fill="#97C6FF"/>
<path d="M284.629 163.62H283.65V164.357H284.629V163.62Z" fill="#97C6FF"/>
<path d="M276.575 133.523H275.597V134.261H276.575V133.523Z" fill="#97C6FF"/>
<path d="M69.0611 199.573H68.0825V198.097H69.0611V199.573ZM69.0913 196.652L68.1126 196.576C68.1578 196.05 68.2481 195.523 68.3836 195.026L69.3321 195.297C69.1966 195.733 69.1214 196.185 69.0913 196.652ZM69.829 194.017L68.9557 193.565C69.1966 193.099 69.4827 192.647 69.8139 192.24L70.5818 192.858C70.2957 193.219 70.0398 193.595 69.829 194.017ZM71.5453 191.864L70.913 191.111C71.3195 190.78 71.7561 190.479 72.2228 190.223L72.6896 191.096C72.2831 191.322 71.9067 191.578 71.5453 191.864ZM73.9693 190.569L73.6832 189.621C74.1801 189.47 74.707 189.365 75.234 189.32L75.3243 190.298C74.8576 190.343 74.4059 190.434 73.9693 190.569ZM267.752 190.283H266.276V189.305H267.752V190.283ZM264.786 190.283H263.31V189.305H264.786V190.283ZM261.82 190.283H260.344V189.305H261.82V190.283ZM258.854 190.283H257.378V189.305H258.854V190.283ZM255.903 190.283H254.427V189.305H255.903V190.283ZM252.937 190.283H251.461V189.305H252.937V190.283ZM249.971 190.283H248.495V189.305H249.971V190.283ZM247.02 190.283H245.544V189.305H247.02V190.283ZM244.054 190.283H242.578V189.305H244.054V190.283ZM241.088 190.283H239.612V189.305H241.088V190.283ZM238.137 190.283H236.662V189.305H238.137V190.283ZM235.171 190.283H233.696V189.305H235.171V190.283ZM232.205 190.283H230.73V189.305H232.205V190.283ZM229.254 190.283H227.779V189.305H229.254V190.283ZM226.288 190.283H224.813V189.305H226.288V190.283ZM223.322 190.283H221.847V189.305H223.322V190.283ZM220.371 190.283H218.896V189.305H220.371V190.283ZM217.405 190.283H215.93V189.305H217.405V190.283ZM214.439 190.283H212.964V189.305H214.439V190.283ZM211.488 190.283H210.013V189.305H211.488V190.283ZM208.522 190.283H207.047V189.305H208.522V190.283ZM205.556 190.283H204.081V189.305H205.556V190.283ZM202.605 190.283H201.13V189.305H202.605V190.283ZM199.639 190.283H198.164V189.305H199.639V190.283ZM196.673 190.283H195.198V189.305H196.673V190.283ZM193.723 190.283H192.247V189.305H193.723V190.283ZM190.757 190.283H189.281V189.305H190.757V190.283ZM187.791 190.283H186.315V189.305H187.791V190.283ZM184.84 190.283H183.364V189.305H184.84V190.283ZM181.874 190.283H180.398V189.305H181.874V190.283ZM178.908 190.283H177.432V189.305H178.908V190.283ZM175.942 190.283H174.466V189.305H175.942V190.283ZM172.991 190.283H171.5V189.305H172.976V190.283H172.991ZM170.025 190.283H168.549V189.305H170.025V190.283ZM167.059 190.283H165.583V189.305H167.059V190.283ZM164.108 190.283H162.617V189.305H164.093V190.283H164.108ZM161.142 190.283H159.667V189.305H161.142V190.283ZM158.176 190.283H156.701V189.305H158.176V190.283ZM155.225 190.283H153.735V189.305H155.21V190.283H155.225ZM152.259 190.283H150.784V189.305H152.259V190.283ZM149.293 190.283H147.818V189.305H149.293V190.283ZM146.342 190.283H144.852V189.305H146.327V190.283H146.342ZM143.376 190.283H141.901V189.305H143.376V190.283ZM140.41 190.283H138.935V189.305H140.41V190.283ZM137.459 190.283H135.969V189.305H137.444V190.283H137.459ZM134.493 190.283H133.018V189.305H134.493V190.283ZM131.527 190.283H130.052V189.305H131.527V190.283ZM128.576 190.283H127.086V189.305H128.561V190.283H128.576ZM125.61 190.283H124.135V189.305H125.61V190.283ZM122.644 190.283H121.169V189.305H122.644V190.283ZM119.694 190.283H118.203V189.305H119.678V190.283H119.694ZM116.728 190.283H115.252V189.305H116.728V190.283ZM113.762 190.283H112.286V189.305H113.762V190.283ZM110.811 190.283H109.32V189.305H110.796V190.283H110.811ZM107.845 190.283H106.369V189.305H107.845V190.283ZM104.879 190.283H103.403V189.305H104.879V190.283ZM101.928 190.283H100.437V189.305H101.913V190.283H101.928ZM98.9618 190.283H97.4864V189.305H98.9618V190.283ZM95.9958 190.283H94.5204V189.305H95.9958V190.283ZM93.0299 190.283H91.5544V189.305H93.0299V190.283ZM90.0789 190.283H88.6035V189.305H90.0789V190.283ZM87.113 190.283H85.6375V189.305H87.113V190.283ZM84.147 190.283H82.6715V189.305H84.147V190.283ZM81.1961 190.283H79.7206V189.305H81.1961V190.283ZM78.2301 190.283H76.7546V189.305H78.2301V190.283ZM269.257 190.253L269.197 189.274C269.664 189.244 270.115 189.169 270.552 189.049L270.808 189.997C270.311 190.133 269.784 190.223 269.257 190.253ZM272.283 189.425L271.832 188.552C272.238 188.341 272.63 188.085 272.991 187.799L273.608 188.567C273.202 188.898 272.75 189.184 272.283 189.425ZM274.737 187.468L273.985 186.835C274.286 186.489 274.542 186.098 274.768 185.691L275.626 186.158C275.37 186.625 275.069 187.061 274.737 187.468ZM276.243 184.713L275.295 184.427C275.43 183.99 275.52 183.538 275.566 183.071L276.544 183.162C276.499 183.689 276.394 184.216 276.243 184.713ZM276.589 181.641H275.611V180.166H276.589V181.641ZM276.589 178.675H275.611V177.2H276.589V178.675ZM276.589 175.724H275.611V174.249H276.589V175.724ZM276.589 172.758H275.611V171.283H276.589V172.758ZM276.589 169.792H275.611V168.317H276.589V169.792ZM276.589 166.841H275.611V165.366H276.589V166.841ZM276.589 163.875H275.611V162.4H276.589V163.875ZM276.589 160.909H275.611V159.434H276.589V160.909ZM276.589 157.959H275.611V156.483H276.589V157.959ZM276.589 154.993H275.611V153.517H276.589V154.993ZM276.589 152.027H275.611V150.551H276.589V152.027ZM276.589 149.076H275.611V147.6H276.589V149.076ZM276.589 146.11H275.611V144.634H276.589V146.11ZM276.589 143.144H275.611V141.668H276.589V143.144ZM276.589 140.193H275.611V138.717H276.589V140.193ZM276.589 137.227H275.611V135.751H276.589V137.227Z" fill="#97C6FF"/>
<path d="M69.0611 201.063H68.0825V201.801H69.0611V201.063Z" fill="#97C6FF"/>
<path d="M290.546 133.523H289.567V134.261H290.546V133.523Z" fill="#97C6FF"/>
<path d="M290.562 149.633H289.583V148.097H290.562V149.633ZM290.562 146.561H289.583V145.026H290.562V146.561ZM290.562 143.49H289.583V141.954H290.562V143.49ZM290.562 140.419H289.583V138.883H290.562V140.419ZM290.562 137.332H289.583V135.797H290.562V137.332Z" fill="#97C6FF"/>
<path d="M290.802 152.403H289.567V151.169H290.561V151.425H290.802V152.403Z" fill="#97C6FF"/>
<path d="M326.334 195.869H325.356V194.394H326.334V195.869ZM326.334 192.933H325.356V191.458H326.334V192.933ZM326.334 189.997H325.356V188.522H326.334V189.997ZM326.334 187.046H325.356V185.571H326.334V187.046ZM326.334 184.111H325.356V182.635H326.334V184.111ZM326.334 181.175H325.356V179.699H326.334V181.175ZM326.334 178.239H325.356V176.763H326.334V178.239ZM326.334 175.288H325.356V173.812H326.334V175.288ZM326.334 172.352H325.356V170.877H326.334V172.352ZM326.334 169.416H325.356V167.941H326.334V169.416ZM326.334 166.48H325.356V165.005H326.334V166.48ZM326.334 163.529H325.356V162.054H326.334V163.529ZM326.334 160.594H325.356V159.133H326.334V160.594ZM325.356 157.673C325.341 157.221 325.265 156.769 325.13 156.348L326.078 156.062C326.229 156.574 326.319 157.101 326.334 157.628L325.356 157.673ZM324.588 155.113C324.362 154.722 324.091 154.36 323.775 154.044L324.482 153.352C324.859 153.728 325.175 154.15 325.446 154.601L324.588 155.113ZM322.721 153.216C322.345 152.975 321.923 152.795 321.501 152.659L321.803 151.726C322.314 151.876 322.796 152.102 323.248 152.388L322.721 153.216ZM320.177 152.418C320.071 152.418 319.966 152.403 319.86 152.403H318.746V151.425H319.86C319.981 151.425 320.116 151.425 320.237 151.44L320.177 152.418ZM317.256 152.403H315.78V151.425H317.256V152.403ZM314.32 152.403H312.844V151.425H314.32V152.403ZM311.384 152.403H309.909V151.425H311.384V152.403ZM308.448 152.403H306.973V151.425H308.448V152.403ZM305.497 152.403H304.022V151.425H305.497V152.403ZM302.561 152.403H301.086V151.425H302.561V152.403ZM299.625 152.403H298.15V151.425H299.625V152.403ZM296.69 152.403H295.214V151.425H296.69V152.403ZM293.739 152.403H292.263V151.425H293.739V152.403Z" fill="#97C6FF"/>
<path d="M326.334 197.344H325.355V198.082H326.334V197.344Z" fill="#97C6FF"/>
<path d="M277.478 133.463C277.493 133.207 277.508 132.951 277.508 132.695C277.508 127.305 273.141 122.924 267.736 122.924C262.347 122.924 257.965 127.29 257.965 132.695C257.965 132.951 257.98 133.207 257.995 133.463H277.478Z" fill="#80B2FF"/>
<path d="M309.561 133.463C309.576 133.207 309.591 132.951 309.591 132.695C309.591 127.305 305.225 122.924 299.82 122.924C294.43 122.924 290.049 127.29 290.049 132.695C290.049 132.951 290.064 133.207 290.079 133.463H309.561Z" fill="#80B2FF"/>
<path d="M298.329 133.463C298.404 132.861 298.45 132.258 298.45 131.641C298.45 123.737 292.051 117.338 284.147 117.338C276.242 117.338 269.844 123.737 269.844 131.641C269.844 132.258 269.889 132.861 269.964 133.463H298.329Z" fill="#80B2FF"/>
<path d="M120.868 244.635H54.3365C52.9363 244.635 51.8071 243.505 51.8071 242.105V204.361C51.8071 202.96 52.9363 201.831 54.3365 201.831H120.868C122.268 201.831 123.397 202.96 123.397 204.361V242.105C123.397 243.49 122.268 244.635 120.868 244.635Z" fill="#4D93FF"/>
<path d="M123.398 209.901H51.7925V217.293H123.398V209.901Z" fill="#0046B3"/>
<path d="M68.2025 236.414H57.6786C57.0161 236.414 56.4741 236.956 56.4741 237.619C56.4741 238.281 57.0161 238.823 57.6786 238.823H68.2025C68.865 238.823 69.407 238.281 69.407 237.619C69.407 236.956 68.865 236.414 68.2025 236.414Z" fill="#D1F5FF"/>
<path d="M84.3881 236.414H73.8641C73.2017 236.414 72.6597 236.956 72.6597 237.619C72.6597 238.281 73.2017 238.823 73.8641 238.823H84.3881C85.0505 238.823 85.5925 238.281 85.5925 237.619C85.5925 236.956 85.0505 236.414 84.3881 236.414Z" fill="#D1F5FF"/>
<path d="M100.573 236.414H90.0487C89.3862 236.414 88.8442 236.956 88.8442 237.619C88.8442 238.281 89.3862 238.823 90.0487 238.823H100.573C101.235 238.823 101.777 238.281 101.777 237.619C101.792 236.956 101.25 236.414 100.573 236.414Z" fill="#D1F5FF"/>
<path d="M116.773 236.414H106.249C105.586 236.414 105.044 236.956 105.044 237.619C105.044 238.281 105.586 238.823 106.249 238.823H116.773C117.435 238.823 117.977 238.281 117.977 237.619C117.977 236.956 117.435 236.414 116.773 236.414Z" fill="#D1F5FF"/>
<path d="M57.1818 203.984C56.444 203.984 55.8418 204.586 55.8418 205.324V205.791C55.8418 206.529 56.444 207.131 57.1818 207.131C57.9195 207.131 58.5217 206.529 58.5217 205.791V205.324C58.5217 204.586 57.9195 203.984 57.1818 203.984Z" fill="#D1F5FF"/>
<path d="M60.0576 205.55C60.0576 206.423 60.7652 207.116 61.6234 207.116H67.194C68.0673 207.116 68.7598 206.408 68.7598 205.55C68.7598 204.677 68.0522 203.984 67.194 203.984H61.6234C60.7652 203.984 60.0576 204.692 60.0576 205.55Z" fill="#D1F5FF"/>
<path d="M59.3349 221.268H66.5316C67.6909 221.268 68.6243 222.202 68.6243 223.361V229.564C68.6243 230.723 67.6909 231.657 66.5316 231.657H59.3349C58.1756 231.657 57.2422 230.723 57.2422 229.564V223.361C57.2422 222.202 58.1756 221.268 59.3349 221.268Z" fill="#FFBD73"/>
<path d="M174.933 152.027C175.942 148.022 176.107 143.987 175.535 140.133L176.755 139.952L179.164 139.591H179.194C178.531 135.179 177.026 130.979 174.782 127.215L171.606 129.112C169.558 125.709 166.878 122.683 163.611 120.289L165.824 117.308C162.376 114.734 158.372 112.792 153.945 111.678L153.027 115.276C149.007 114.252 144.987 114.101 141.133 114.674L140.576 111C136.164 111.662 131.964 113.168 128.2 115.411L130.097 118.588C126.694 120.636 123.668 123.316 121.274 126.583L118.293 124.369C115.719 127.817 113.777 131.822 112.662 136.248L116.261 137.167C115.237 141.187 115.086 145.207 115.659 149.061L113.069 149.452L112.015 149.618H112C112.662 154.029 114.168 158.23 116.411 161.994L119.588 160.097C121.636 163.499 124.331 166.526 127.598 168.919L125.385 171.9C128.832 174.475 132.822 176.417 137.248 177.531L138.167 173.933C142.172 174.957 146.222 175.122 150.061 174.535L150.482 177.381L150.603 178.194C155.014 177.531 159.2 176.011 162.964 173.767L161.067 170.591C164.469 168.543 167.495 165.848 169.904 162.596L172.885 164.809C175.445 161.361 177.387 157.372 178.501 152.945L174.933 152.027ZM141.569 160.518C132.762 158.29 127.447 149.362 129.675 140.554C131.904 131.762 140.832 126.447 149.639 128.675C158.432 130.904 163.747 139.832 161.518 148.624C159.29 157.417 150.362 162.747 141.569 160.518Z" stroke="#D2E4FF" stroke-width="4.00545" stroke-miterlimit="10"/>
<path d="M101.913 156.709C100.558 155.008 98.917 153.653 97.1253 152.674L97.4415 152.102L98.0588 150.973V150.958C95.9962 149.829 93.7679 149.121 91.4644 148.865L91.2385 150.807C89.1609 150.581 87.038 150.747 84.9904 151.349L84.4484 149.467C82.2804 150.085 80.1726 151.154 78.3057 152.644L79.5252 154.18C77.8239 155.535 76.4689 157.176 75.4902 158.968L73.7739 158.034C72.6447 160.097 71.9371 162.34 71.6812 164.628L73.6233 164.854C73.3975 166.932 73.5631 169.055 74.1653 171.102L72.2834 171.629C72.9007 173.797 73.9696 175.905 75.4601 177.772L76.9958 176.553C78.3508 178.254 79.9919 179.609 81.7835 180.588L81.1211 181.792L80.8501 182.289C82.9127 183.418 85.156 184.126 87.4445 184.382L87.6703 182.439C89.748 182.665 91.8709 182.5 93.9185 181.897L94.4605 183.779C96.6285 183.162 98.7212 182.093 100.603 180.603L99.3837 179.067C101.085 177.712 102.44 176.071 103.434 174.264L104.759 175.002L105.135 175.213C106.264 173.15 106.957 170.922 107.228 168.618L105.286 168.392C105.511 166.315 105.346 164.192 104.744 162.144L106.625 161.602C105.993 159.434 104.939 157.341 103.449 155.46L101.913 156.709ZM94.8369 173.391C91.103 176.372 85.6529 175.755 82.6869 172.021C79.7059 168.287 80.3231 162.852 84.072 159.871C87.8058 156.89 93.241 157.507 96.222 161.241C99.188 164.99 98.5707 170.425 94.8369 173.391Z" stroke="#D2E4FF" stroke-width="4.00545" stroke-miterlimit="10"/>
<path d="M342.458 276.477C340.893 274.52 339.011 272.954 336.933 271.81L337.294 271.148L338.002 269.853L338.017 269.838C335.638 268.528 333.064 267.715 330.414 267.429L330.158 269.657C327.764 269.386 325.31 269.582 322.946 270.274L322.314 268.106C319.799 268.829 317.391 270.049 315.223 271.78L316.623 273.542C314.65 275.107 313.1 276.989 311.955 279.067L309.983 277.983C308.673 280.362 307.875 282.951 307.574 285.586L309.818 285.842C309.547 288.236 309.742 290.69 310.435 293.054L308.267 293.686C308.989 296.2 310.209 298.609 311.94 300.777L313.702 299.377C315.268 301.35 317.15 302.9 319.227 304.044L318.459 305.445L318.158 306.017C320.537 307.327 323.127 308.125 325.762 308.426L326.017 306.182C328.411 306.453 330.88 306.258 333.229 305.55L333.862 307.718C336.376 306.995 338.785 305.776 340.953 304.06L339.553 302.298C341.525 300.732 343.091 298.835 344.22 296.758L345.756 297.601L346.192 297.842C347.502 295.463 348.3 292.888 348.601 290.238L346.373 289.982C346.644 287.589 346.448 285.119 345.756 282.771L347.924 282.138C347.201 279.639 345.981 277.23 344.25 275.062L342.458 276.477ZM334.298 295.734C329.977 299.166 323.714 298.459 320.266 294.138C316.833 289.832 317.541 283.554 321.862 280.121C326.168 276.688 332.446 277.396 335.879 281.702C339.312 286.023 338.604 292.301 334.298 295.734Z" stroke="#00224D" stroke-width="4.00545" stroke-miterlimit="10"/>
<path d="M342.806 325H64.522C63.6178 325 62.8794 324.464 62.8794 323.807C62.8794 323.15 63.6178 322.614 64.522 322.614H342.821C343.725 322.614 344.464 323.15 344.464 323.807C344.464 324.464 343.725 325 342.806 325Z" fill="#003C99"/>
<path d="M316.17 313.65H93.0294C90.0333 313.65 87.5942 311.211 87.5942 308.215V169.732C87.5942 166.736 90.0333 164.297 93.0294 164.297H316.17C319.166 164.297 321.605 166.736 321.605 169.732V308.215C321.605 311.211 319.181 313.65 316.17 313.65Z" fill="#B3D1FF"/>
<path d="M93.0299 312.641C90.5909 312.641 88.6035 310.654 88.6035 308.215V169.733C88.6035 167.294 90.5909 165.306 93.0299 165.306H316.171C318.61 165.306 320.597 167.294 320.597 169.733V308.215C320.597 310.654 318.61 312.641 316.171 312.641H93.0299Z" fill="black"/>
<path d="M313.943 170.334H95.499V306.905H313.943V170.334Z" fill="#005CEA"/>
<path d="M337.609 313.65V317.294C337.609 317.474 337.594 317.67 337.579 317.836C337.308 320.184 335.306 322.021 332.882 322.021H73.3061C70.8821 322.021 68.8797 320.184 68.6087 317.836C68.5786 317.655 68.5786 317.474 68.5786 317.294V313.65H337.609Z" fill="#599AFF"/>
<path d="M337.58 317.836C337.309 320.184 335.307 322.021 332.883 322.021H73.3068C70.8828 322.021 68.8804 320.184 68.6094 317.836H337.58Z" fill="#406EFF"/>
<path opacity="0.3" d="M265.884 281.356H144.941C141.629 281.356 138.949 278.676 138.949 275.363V205.294C138.949 201.982 141.629 199.302 144.941 199.302H265.884C269.196 199.302 271.876 201.982 271.876 205.294V275.363C271.861 278.676 269.181 281.356 265.884 281.356Z" fill="#80B2FF"/>
<path d="M225.55 260.082H206.022C204.366 260.082 203.011 258.727 203.011 257.071C203.011 255.415 204.366 254.06 206.022 254.06H225.55C227.206 254.06 228.561 255.415 228.561 257.071C228.561 258.727 227.206 260.082 225.55 260.082Z" fill="#FF9F34"/>
<path d="M239.732 236.143H197.124C195.468 236.143 194.113 234.788 194.113 233.132C194.113 231.476 195.468 230.121 197.124 230.121H239.732C241.388 230.121 242.743 231.476 242.743 233.132C242.743 234.788 241.388 236.143 239.732 236.143Z" fill="white"/>
<path d="M239.732 247.45H197.124C195.468 247.45 194.113 246.095 194.113 244.439C194.113 242.783 195.468 241.428 197.124 241.428H239.732C241.388 241.428 242.743 242.783 242.743 244.439C242.743 246.095 241.388 247.45 239.732 247.45Z" fill="white"/>
<path d="M204.336 244.71C204.336 245.297 203.87 245.764 203.282 245.764C202.695 245.764 202.229 245.297 202.229 244.71C202.229 244.123 202.695 243.656 203.282 243.656C203.87 243.656 204.336 244.123 204.336 244.71Z" fill="#80B2FF"/>
<path d="M207.964 244.71C207.964 245.297 207.498 245.764 206.91 245.764C206.323 245.764 205.856 245.297 205.856 244.71C205.856 244.123 206.323 243.656 206.91 243.656C207.482 243.656 207.964 244.123 207.964 244.71Z" fill="#80B2FF"/>
<path d="M211.593 244.71C211.593 245.297 211.126 245.764 210.539 245.764C209.952 245.764 209.485 245.297 209.485 244.71C209.485 244.123 209.952 243.656 210.539 243.656C211.126 243.656 211.593 244.123 211.593 244.71Z" fill="#80B2FF"/>
<path d="M215.206 244.71C215.206 245.297 214.74 245.764 214.153 245.764C213.565 245.764 213.099 245.297 213.099 244.71C213.099 244.123 213.565 243.656 214.153 243.656C214.74 243.656 215.206 244.123 215.206 244.71Z" fill="#80B2FF"/>
<path d="M218.835 244.71C218.835 245.297 218.369 245.764 217.781 245.764C217.194 245.764 216.728 245.297 216.728 244.71C216.728 244.123 217.194 243.656 217.781 243.656C218.369 243.656 218.835 244.123 218.835 244.71Z" fill="#80B2FF"/>
<path d="M222.463 244.71C222.463 245.297 221.997 245.764 221.409 245.764C220.822 245.764 220.355 245.297 220.355 244.71C220.355 244.123 220.822 243.656 221.409 243.656C221.997 243.656 222.463 244.123 222.463 244.71Z" fill="#80B2FF"/>
<path d="M226.092 244.71C226.092 245.297 225.625 245.764 225.038 245.764C224.451 245.764 223.984 245.297 223.984 244.71C223.984 244.123 224.451 243.656 225.038 243.656C225.61 243.656 226.092 244.123 226.092 244.71Z" fill="#80B2FF"/>
<path d="M229.721 244.71C229.721 245.297 229.254 245.764 228.667 245.764C228.08 245.764 227.613 245.297 227.613 244.71C227.613 244.123 228.08 243.656 228.667 243.656C229.239 243.656 229.721 244.123 229.721 244.71Z" fill="#80B2FF"/>
<path d="M233.349 244.71C233.349 245.297 232.882 245.764 232.295 245.764C231.707 245.764 231.241 245.297 231.241 244.71C231.241 244.123 231.707 243.656 232.295 243.656C232.867 243.656 233.349 244.123 233.349 244.71Z" fill="#80B2FF"/>
<path d="M217.119 223.286C220.586 223.286 223.397 220.475 223.397 217.007C223.397 213.54 220.586 210.729 217.119 210.729C213.652 210.729 210.841 213.54 210.841 217.007C210.841 220.475 213.652 223.286 217.119 223.286Z" fill="white"/>
<path d="M217.118 216.752C217.735 216.752 218.292 216.45 218.653 215.999C218.924 215.668 219.075 215.246 219.075 214.779C219.075 213.695 218.202 212.807 217.118 212.807C216.019 212.807 215.146 213.695 215.146 214.779C215.146 215.246 215.296 215.668 215.567 215.999C215.928 216.466 216.501 216.752 217.118 216.752Z" fill="#005CEA"/>
<path d="M220.596 220.29C220.596 221.539 213.625 221.539 213.625 220.29V218.829C213.896 216.842 220.024 216.752 220.596 218.829V220.29Z" fill="#005CEA"/>
<path d="M203.568 243.897V243.731C203.568 243.084 203.041 242.542 202.379 242.542C201.731 242.542 201.189 243.069 201.189 243.731V243.897H201.009V246.02C201.009 246.381 203.734 246.381 203.734 246.02V243.897H203.568ZM201.626 243.731C201.626 243.325 201.882 242.948 202.394 242.948C202.906 242.948 203.162 243.295 203.162 243.731V243.897H201.626V243.731ZM202.59 244.966V245.583C202.59 245.689 202.499 245.779 202.379 245.779C202.273 245.779 202.183 245.704 202.183 245.583V244.966C202.078 244.906 201.987 244.785 201.987 244.65C201.987 244.439 202.168 244.273 202.364 244.273C202.575 244.273 202.74 244.454 202.74 244.65C202.77 244.785 202.68 244.906 202.59 244.966Z" fill="#4D4D4D"/>
<path d="M198.449 232.921C198.69 232.921 198.916 232.801 199.051 232.62C199.157 232.485 199.217 232.319 199.217 232.139C199.217 231.717 198.871 231.371 198.449 231.371C198.012 231.371 197.681 231.717 197.681 232.139C197.681 232.319 197.741 232.485 197.847 232.62C197.982 232.801 198.208 232.921 198.449 232.921Z" fill="#4D4D4D"/>
<path d="M199.804 234.292C199.804 234.773 197.063 234.773 197.063 234.292L197.079 233.719C197.184 232.937 199.578 232.906 199.804 233.719V234.292Z" fill="#4D4D4D"/>
<path d="M214.168 234.021H203.102C202.62 234.021 202.213 233.629 202.213 233.132C202.213 232.651 202.605 232.244 203.102 232.244H214.168C214.649 232.244 215.056 232.635 215.056 233.132C215.041 233.629 214.649 234.021 214.168 234.021Z" fill="#80B2FF"/>
<path d="M207.302 227.592H196.612C196.131 227.592 195.724 227.2 195.724 226.704C195.724 226.222 196.116 225.815 196.612 225.815H207.302C207.784 225.815 208.19 226.207 208.19 226.704C208.19 227.185 207.799 227.592 207.302 227.592Z" fill="#80B2FF"/>
<path d="M228.756 234.021H217.691C217.209 234.021 216.802 233.629 216.802 233.132C216.802 232.651 217.194 232.244 217.691 232.244H228.756C229.238 232.244 229.645 232.635 229.645 233.132C229.645 233.629 229.238 234.021 228.756 234.021Z" fill="#80B2FF"/>
<path d="M160.765 232.741V248.323C160.765 250.055 181.948 250.055 181.948 248.323V232.741H160.765Z" fill="white"/>
<path d="M171.364 241.247C172.811 241.247 173.984 240.074 173.984 238.628C173.984 237.181 172.811 236.008 171.364 236.008C169.917 236.008 168.744 237.181 168.744 238.628C168.744 240.074 169.917 241.247 171.364 241.247Z" fill="#005CEA"/>
<path d="M171.364 246.502C170.777 246.502 170.295 246.02 170.295 245.433V239.441H172.433V245.433C172.433 246.02 171.951 246.502 171.364 246.502Z" fill="#005CEA"/>
<path d="M180.096 231.627H177.958V230.573C177.958 226.944 175.007 223.978 171.364 223.978C167.735 223.978 164.769 226.929 164.769 230.573V231.627H162.631V230.573C162.631 225.755 166.546 221.84 171.364 221.84C176.182 221.84 180.096 225.755 180.096 230.573V231.627Z" fill="white"/>
<path d="M262.481 231.882L263.49 235.947L263.67 236.7C263.881 237.664 270.22 237.257 269.783 236.128L269.407 235.3L267.449 231.009L262.481 231.882Z" fill="#F7A58E"/>
<path d="M258.778 225.845C258.717 230.256 260.765 233.855 263.972 233.84C267.179 233.825 270.28 231.1 270.386 225.8C270.461 222.412 267.751 219.687 264.544 219.702C261.352 219.717 258.823 222.473 258.778 225.845Z" fill="#F7A58E"/>
<path d="M264.454 218.483C264.454 218.483 258.07 218.799 257.528 223.632C256.821 227.878 259.997 224.761 261.307 227.607C262.798 230.874 261.277 233.252 259.335 233.915C261.051 236.324 270.898 236.233 273.427 232.018C275.189 226.718 272.72 218.784 264.454 218.483Z" fill="black"/>
<path d="M261.933 228.444C262.433 228.019 262.494 227.268 262.069 226.768C261.644 226.267 260.893 226.206 260.392 226.631C259.892 227.057 259.831 227.807 260.256 228.308C260.681 228.809 261.432 228.87 261.933 228.444Z" fill="#F7A58E"/>
<path d="M260.961 309.555C260.66 309.239 259.245 309.239 259.124 309.705C259.004 310.172 259.245 310.503 258.643 311.256C258.989 311.362 260.208 311.362 260.57 311.256C260.946 311.136 261.247 309.871 260.961 309.555Z" fill="white"/>
<path d="M263.295 311.151H259.847C259.531 296.577 259.591 280.723 259.696 268.784C259.742 264.508 259.862 262.34 260.63 259.781C262.196 254.601 269.558 256.197 270.085 260.895C270.296 263.499 270.461 268.588 265.644 285.872C267.736 293.49 264.093 302.614 263.295 311.151Z" fill="#00050D"/>
<path d="M257.921 311.377C258.433 311.347 259.607 310.865 259.833 310.518C260.164 310.88 260.841 310.985 261.67 310.865C262.648 310.714 262.769 310.263 263.476 310.323C263.777 311.151 264.485 312.988 263.792 313.409C263.792 313.409 259.682 313.409 256.551 313.409C255.918 312.837 255.933 311.572 257.921 311.377Z" fill="white"/>
<path d="M278.486 309.916C278.23 309.645 277.041 309.645 276.935 310.037C276.83 310.428 277.041 310.714 276.529 311.331C276.815 311.422 277.839 311.422 278.155 311.331C278.471 311.256 278.727 310.187 278.486 309.916Z" fill="white"/>
<path d="M267.134 260.759C267.842 255.384 277.387 255.941 278.034 260.624C278.26 263.153 278.968 266.947 277.176 285.692C280.97 292.843 279.886 303.111 281.03 310.669C281.151 311.813 277.899 312.099 277.643 311.076C274.18 297.059 269.317 281.34 267.525 269.672C266.848 265.442 266.788 263.424 267.134 260.759Z" fill="#00050D"/>
<path d="M275.912 311.151C276.424 311.121 277.162 310.458 277.387 310.127C277.719 310.489 278.351 310.985 279.179 310.865C280.158 310.714 280.278 310.263 280.986 310.323C281.287 311.151 281.994 312.988 281.302 313.409C281.302 313.409 277.387 313.409 274.256 313.409C273.623 312.837 273.94 311.362 275.912 311.151Z" fill="white"/>
<path d="M236.69 253.171L236.329 251.379C237.202 251.033 238.527 250.326 240.078 249.738L240.921 252.644C239.22 252.885 237.699 253.066 236.69 253.171Z" fill="#F7A58E"/>
<path d="M240.078 249.723C243.044 248.338 248.148 245.342 249.307 244.785L261.864 237.077C264.574 236.249 267.736 241.623 264.303 244.032C264.303 244.032 244.881 252.027 240.906 252.614L240.078 249.723Z" fill="#FF7268"/>
<path d="M235.427 254.601C234.207 254.24 233.785 252.448 233.755 252.313L236.27 251.394C237.489 250.898 238.197 252.373 237.414 253.442C237.429 253.457 236.586 254.872 235.427 254.601Z" fill="#F7A58E"/>
<path d="M234.342 253.02C231.436 253.638 231.556 252.93 231.556 252.93C231.556 252.93 232.535 252.599 234.312 252.117C235.32 251.891 235.034 252.795 234.342 253.02Z" fill="#F7A58E"/>
<path d="M259.771 244.755C259.169 241.819 258.838 238.913 261.879 237.092C263.67 236.008 269.452 235.24 272.147 236.128C274.872 237.348 274.285 242.647 274.782 251.018C276.648 255.189 277.476 256.574 278.018 260.639C278.018 260.639 277.01 263.71 269.949 263.71C266.742 263.71 262.014 263.424 259.876 261.798C260.087 259.028 261.246 256.348 261.728 252.418C261.743 252.403 259.816 245.086 259.771 244.755Z" fill="#FF7268"/>
<path d="M273.592 236.715C276.905 239.245 280.141 243.219 281.662 245.342C283.198 247.45 287.142 255.957 287.142 255.957L284.628 257.808L277.808 248.519L269.482 241.684C266.606 238.748 270.37 234.246 273.592 236.715Z" fill="#FF7268"/>
<path d="M288.211 258.095L286.585 254.722C286.194 255.731 284.327 256.664 283.8 256.649C283.8 256.649 285.561 259.179 285.983 259.6C286.404 260.022 288.181 259.314 288.211 258.095Z" fill="#F7A58E"/>
<path d="M285.561 259.043C285.561 259.073 285.561 259.103 285.561 259.133C285.637 260.368 286.585 260.94 286.841 261.075C286.856 261.09 286.886 261.09 286.901 261.106C286.013 260.925 285.742 262.114 286.194 262.385C287.504 263.274 289.355 262.054 289.521 261.316C289.687 260.564 288.196 258.094 288.196 258.094C287.443 257.477 285.501 257.567 285.561 259.043Z" fill="#F7A58E"/>
<path d="M285.562 259.118C285.607 260.503 286.872 261.075 286.887 261.075C287.625 261.06 287.881 261.015 288.573 261.015C288.121 260.789 287.188 260.202 287.549 259.058C286.842 258.516 285.758 258.998 285.562 259.118Z" fill="#E6856A"/>
<path d="M285.547 258.968C285.351 260.112 285.441 261.738 285.712 262.461C285.712 262.461 286.42 262.491 286.344 261.166C286.329 260.82 286.375 260.067 286.721 259.826C287.775 259.133 287.94 258.501 287.549 257.974C287.037 257.281 285.592 257.989 285.547 258.968Z" fill="#F7A58E"/>
<path d="M288.799 262.099C288.226 262.491 286.721 263.258 286.48 263.078C286.239 262.882 287.444 261.602 288.226 261.437C289.009 261.256 289.1 261.888 288.799 262.099Z" fill="#F7A58E"/>
<path d="M245.845 164.297C247.471 161.934 245.981 154.586 239.01 152.479C233.123 150.958 230.067 152.825 222.103 154.993L223.292 164.312H245.845V164.297Z" fill="#50318F"/>
<path d="M231.647 152.855C231.647 152.855 217.39 155.806 212.135 157.733C209.124 158.847 208.371 161.346 209.531 163.258C211.247 166.104 231.708 164.086 231.708 164.086C238.754 162.114 235.02 152.734 231.647 152.855Z" fill="#50318F"/>
<path d="M238.287 152.057C238.287 152.057 247.396 155.144 252.515 157.432C257.483 157.823 257.152 163.996 254.803 164.388C249.398 165.848 237.474 163.259 237.474 163.259C230.564 160.804 234.93 151.696 238.287 152.057Z" fill="#50318F"/>
<path d="M223.849 158.395C223.849 158.395 220.973 154.029 228.095 150.642C235.216 147.254 240.004 150.642 238.814 154.737C237.625 158.832 233.424 161.557 233.424 161.557C233.424 161.557 226.348 161.602 223.849 158.395Z" fill="#50318F"/>
<path d="M231.874 157.823C235.306 155.445 233.921 150.807 233.921 150.807L232.626 148.338L231.542 146.276L225.821 148.474L226.86 152.704C226.86 152.704 227.146 153.698 227.763 154.797C228.546 156.212 229.886 157.808 231.874 157.823Z" fill="#F7A28A"/>
<path d="M227.763 154.812C230.504 153.036 231.919 150.371 232.611 148.338L231.527 146.276L225.806 148.474L226.845 152.704C226.86 152.704 227.146 153.698 227.763 154.812Z" fill="#F0896C"/>
<path d="M219.242 140.825C219.242 140.825 217.932 141.172 217.736 142.753C217.54 144.318 219.106 144.966 219.106 144.966C219.106 144.966 218.082 146.923 220.25 147.721C224.647 149.332 224.21 139.847 219.242 140.825Z" fill="#3D3D3D"/>
<path d="M220.491 145.884C221.846 149.859 224.646 153.593 226.905 152.659C230.729 151.079 233.951 146.803 232.355 142.301C230.759 137.799 227.357 135.722 223.728 137.001C220.115 138.296 218.955 141.368 220.491 145.884Z" fill="#F7A28A"/>
<path d="M218.655 140.75C219.468 141.443 222.464 142.602 228.652 139.606C229.676 140.344 230.444 141.488 230.971 142.738C231.558 142.602 231.799 142.301 232.19 142.798C232.747 143.49 233.033 144.996 232.341 145.553C232.16 145.689 231.964 145.794 231.769 145.854C231.528 146.908 231.753 148.082 232.612 148.338C233.937 147.284 233.771 147.028 234.253 145.809C235.788 144.725 235.788 142.361 234.554 141.714C235.728 140.615 234.313 138.191 232.566 138.116C232.582 136.776 230.88 134.397 228.742 135.797C228.803 134.367 226.198 133.418 224.783 135.541C223.654 133.99 220.191 134.924 220.326 136.986C218.264 136.61 217.119 139.41 218.655 140.75Z" fill="#3D3D3D"/>
<path d="M209.531 162.19C209.531 162.19 209.169 165.652 215.538 166.21C222.795 166.842 228.922 166.661 228.922 166.661L229.57 163.921C229.57 163.921 216.697 159.555 213.535 159.359C209.802 159.118 209.531 162.19 209.531 162.19Z" fill="#F7A28A"/>
<path d="M229.434 163.861L233.499 163.018C233.499 163.018 236.119 164.267 236.932 165.908C236.33 166.571 234.704 165.171 234.704 165.171C234.704 165.171 234.869 167.896 234.463 168.423C234.056 168.935 232.069 169.281 231.407 168.724C230.759 168.167 231.888 167.489 231.888 167.489L228.907 166.676C228.937 166.646 227.552 164.568 229.434 163.861Z" fill="#F7A28A"/>
<path d="M231.647 140.645C231.647 140.585 231.602 140.539 231.542 140.539C231.482 140.539 231.437 140.585 231.437 140.645C231.437 140.705 231.482 140.75 231.542 140.75C231.602 140.75 231.647 140.705 231.647 140.645Z" fill="#F7A28A"/>
<path d="M255.075 160.202C255.075 160.202 257.228 162.942 252.124 166.797C246.312 171.193 241.028 174.294 241.028 174.294L239.01 172.322C239.01 172.322 247.592 161.768 250.151 159.931C253.208 157.763 255.075 160.202 255.075 160.202Z" fill="#F7A28A"/>
<path d="M239.01 172.337L236.737 175.815C236.737 175.815 236.948 178.706 238.182 180.061C239.025 179.745 238.303 177.727 238.303 177.727C238.303 177.727 240.787 178.871 241.404 178.691C242.036 178.51 243.075 176.779 242.789 175.951C242.503 175.138 241.464 175.951 241.464 175.951L241.961 173.361C242.368 171.916 239.959 170.877 239.01 172.337Z" fill="#F7A28A"/>
<path d="M126.679 224.4C127.071 228.119 125.204 232.078 122.84 232.048C119.603 232.003 115.433 229.353 115.041 225.634C114.65 221.916 116.938 218.633 120.145 218.287C123.367 217.956 126.288 220.681 126.679 224.4Z" fill="#F7B28A"/>
<path d="M106.655 309.931C106.655 309.931 110.043 309.555 112.693 309.931C114.891 311.377 115.839 311.301 115.839 311.301C116.773 311.542 117.194 312.837 116.381 312.837H106.384L106.655 309.931Z" fill="white"/>
<path d="M122.855 309.931C122.855 309.931 126.198 309.555 128.893 309.931C131.302 311.377 132.25 311.301 132.25 311.301C133.229 311.542 133.846 312.837 133.033 312.837H123.021L122.855 309.931Z" fill="white"/>
<path d="M119.739 236.444L113.46 234.321L118.007 224.851L122.434 226.974L119.739 236.444Z" fill="#F7B28A"/>
<path d="M125.972 243.099C125.972 243.099 130.85 246.667 128.471 250.461C126.695 253.292 121.019 250.22 121.019 246.938C121.019 243.972 123.307 242.226 125.972 243.099Z" fill="#F2B231"/>
<path d="M110.916 257.793C110.916 257.793 109.742 259.826 108.959 263.876C108.673 265.321 109.004 271.81 108.914 282.771C106.64 296.938 106.384 311.121 106.384 311.121L112.693 309.931L122.358 258.395L110.916 257.793Z" fill="#333333"/>
<path d="M125.219 259.103C126.454 268.829 127.357 277.561 127.432 283.93L128.893 309.931L122.885 311.076C121.651 303.006 119.603 292.933 119.287 283.584L112.738 259.178L125.219 259.103Z" fill="#333333"/>
<path d="M109.049 258.606C109.47 261.121 109.696 261.286 109.696 261.286L125.686 261.632C125.686 261.632 125.204 259.088 125.61 257.778C125.686 257.537 125.701 256.77 125.595 255.64C125.445 254.014 125.098 251.635 124.632 249.046C123.638 243.46 122.087 236.836 120.732 234.336L113.746 232.665C113.746 232.665 110.63 235.827 109.952 238.612C109.275 241.428 108.642 256.092 109.049 258.606Z" fill="#FFD834"/>
<path d="M120.295 247.224L125.595 255.671C125.444 254.044 125.098 251.666 124.631 249.076L120.295 247.224Z" fill="#F2B231"/>
<path d="M118.399 245.116C118.399 245.116 116.517 249.166 118.474 250.25C120.432 251.334 122.374 247.872 122.374 247.872L118.399 245.116Z" fill="#F7B28A"/>
<path d="M126.122 234.337L124.767 243.069L120.567 238.116C120.567 238.116 116.788 234.276 113.746 237.739C110.705 241.202 115.448 244.665 115.448 244.665C115.448 244.665 122.373 250.296 126.785 249.708C131.211 249.121 128.441 234.502 128.441 234.502L126.122 234.337Z" fill="#FFD834"/>
<path d="M126.123 234.336L125.445 231.009L127.177 228.374C127.177 228.374 127.824 227.893 128.065 229.368C128.547 230.046 129.119 230.557 129.059 231.325C128.983 232.093 128.456 234.517 128.456 234.517L126.123 234.336Z" fill="#F7B28A"/>
<path d="M113.761 232.68L114.258 231.401L121.65 234.337L122.223 237.543L113.761 232.68Z" fill="#FFEAC2"/>
<path d="M115.839 229.443C115.839 229.443 113.43 225.966 114.183 221.825C114.936 217.67 121.093 216.812 121.093 216.812C121.093 216.812 127.507 216.435 128.937 222.969C128.26 223.843 125.46 222.397 125.46 222.397L120.868 226.583C120.868 226.583 120.928 223.301 119.302 224.129C117.676 224.957 118.173 227.607 118.173 227.607C118.173 227.607 116.667 229.172 115.839 229.443Z" fill="black"/>
<path d="M326.048 191.939C318.595 199.919 306.701 206.468 293.979 209.254C293.979 210.097 293.949 214.809 293.859 236.504C293.723 265.457 321.275 279.594 325.551 281.762C329.692 279.85 357.59 265.728 357.725 236.79C357.816 215.095 357.846 210.383 357.846 209.54C345.154 206.634 333.425 199.979 326.048 191.939Z" fill="white"/>
<path d="M325.971 195.071C318.293 202.117 307.648 207.658 295.95 210.669L295.83 236.489C295.769 248.308 300.467 258.983 309.786 268.257C315.899 274.34 322.328 278.119 325.595 279.82C325.73 279.745 325.896 279.669 326.047 279.594V195.131C326.016 195.116 326.001 195.086 325.971 195.071Z" fill="#80B2FF"/>
<path d="M326.047 195.131V279.594C329.434 277.832 335.607 274.174 341.509 268.408C350.904 259.224 355.692 248.579 355.737 236.775L355.857 210.955C344.219 207.823 333.65 202.223 326.047 195.131Z" fill="#4D93FF"/>
<path d="M349.49 221.012C340.577 222.382 328.457 230.512 320.794 240.284C319.725 235.676 314.907 231.476 312.377 230.558L304.744 238.236C309.517 240.389 314.726 246.471 315.419 252.705L323.052 253.894C326.274 247.54 334.585 232.334 351.101 224.159C350.785 222.909 349.625 221.193 349.49 221.012Z" fill="#0046B3"/>
</svg>
