<svg width="617" height="344" viewBox="0 0 617 344" fill="none" xmlns="http://www.w3.org/2000/svg">
<rect width="617" height="58" fill="#3498DB"/>
<path d="M33.925 32.95C33.925 26.8 24.975 28.75 24.975 25.25C24.975 23.825 26 23.15 27.375 23.2C28.875 23.225 29.8 24.125 29.875 25.275H33.725C33.5 22.125 31.05 20.3 27.475 20.3C23.875 20.3 21.325 22.2 21.325 25.35C21.3 31.675 30.3 29.4 30.3 33.175C30.3 34.425 29.325 35.3 27.675 35.3C26.05 35.3 25.125 34.375 25.025 32.975H21.275C21.325 36.275 24.125 38.175 27.75 38.175C31.725 38.175 33.925 35.7 33.925 32.95ZM43.4094 26.8C45.2094 26.8 46.6594 27.95 46.7094 29.775H40.1344C40.4094 27.875 41.7344 26.8 43.4094 26.8ZM49.9844 33.65H46.2094C45.7594 34.575 44.9344 35.325 43.4344 35.325C41.6844 35.325 40.2844 34.175 40.1094 32.125H50.2344C50.3094 31.675 50.3344 31.225 50.3344 30.775C50.3344 26.65 47.5094 23.925 43.5094 23.925C39.4094 23.925 36.5594 26.7 36.5594 31.075C36.5594 35.425 39.4844 38.225 43.5094 38.225C46.9344 38.225 49.2344 36.2 49.9844 33.65ZM72.7641 38H76.2641V29.875C76.2641 26.05 73.9141 23.95 70.5891 23.95C68.5641 23.95 66.7391 25.025 65.8391 26.6C64.8891 24.875 63.1141 23.95 60.9641 23.95C59.2391 23.95 57.7641 24.675 56.8891 25.825V24.15H53.3891V38H56.8891V30.35C56.8891 28.15 58.1141 27 60.0141 27C61.8641 27 63.0891 28.15 63.0891 30.35V38H66.5891V30.35C66.5891 28.15 67.8141 27 69.6891 27C71.5391 27 72.7641 28.15 72.7641 30.35V38ZM86.0354 26.8C87.8354 26.8 89.2854 27.95 89.3354 29.775H82.7604C83.0354 27.875 84.3604 26.8 86.0354 26.8ZM92.6104 33.65H88.8354C88.3854 34.575 87.5604 35.325 86.0604 35.325C84.3104 35.325 82.9104 34.175 82.7354 32.125H92.8604C92.9354 31.675 92.9604 31.225 92.9604 30.775C92.9604 26.65 90.1354 23.925 86.1354 23.925C82.0354 23.925 79.1854 26.7 79.1854 31.075C79.1854 35.425 82.1104 38.225 86.1354 38.225C89.5604 38.225 91.8604 36.2 92.6104 33.65ZM106.765 34.05C106.665 28.975 98.99 30.55 98.99 28.025C98.99 27.225 99.665 26.7 100.965 26.7C102.34 26.7 103.19 27.425 103.29 28.5H106.64C106.44 25.75 104.415 23.925 101.065 23.925C97.64 23.925 95.59 25.775 95.59 28.075C95.59 33.15 103.415 31.575 103.415 34.05C103.415 34.85 102.665 35.475 101.29 35.475C99.89 35.475 98.915 34.675 98.79 33.625H95.265C95.415 36.2 97.84 38.225 101.315 38.225C104.69 38.225 106.765 36.425 106.765 34.05ZM110.688 33.7C110.688 36.875 112.463 38 115.113 38H117.313V35.05H115.688C114.588 35.05 114.213 34.65 114.213 33.725V27.025H117.313V24.15H114.213V20.725H110.688V24.15H109.038V27.025H110.688V33.7ZM126.28 26.8C128.08 26.8 129.53 27.95 129.58 29.775H123.005C123.28 27.875 124.605 26.8 126.28 26.8ZM132.855 33.65H129.08C128.63 34.575 127.805 35.325 126.305 35.325C124.555 35.325 123.155 34.175 122.98 32.125H133.105C133.18 31.675 133.205 31.225 133.205 30.775C133.205 26.65 130.38 23.925 126.38 23.925C122.28 23.925 119.43 26.7 119.43 31.075C119.43 35.425 122.355 38.225 126.38 38.225C129.805 38.225 132.105 36.2 132.855 33.65ZM139.76 31.1C139.76 28.425 141.01 27.625 143.085 27.625H144.01V23.95C142.085 23.95 140.635 24.875 139.76 26.3V24.15H136.26V38H139.76V31.1ZM153.875 19.725V30.425H157.225C157.6 29.3 158.525 28.5 159.975 28.5C161.95 28.5 162.975 29.625 162.975 31.675C162.975 33.6 162.05 35.05 160 35.05C158.3 35.05 157.275 34.125 156.975 32.85H153.575C153.875 35.825 156.125 38 160.05 38C164.2 38 166.35 35.35 166.35 31.625C166.35 28.8 164.9 25.6 160.65 25.6C159.125 25.6 157.75 26.25 157.075 27.075V22.8H165.175V19.725H153.875Z" fill="white"/>
<rect y="66" width="617" height="50" fill="white"/>
<path d="M24.6 94.44C26.08 94.44 27.24 93.3 27.24 91.84C27.24 90.36 26.08 89.22 24.6 89.22C23.16 89.22 22 90.36 22 91.84C22 93.3 23.16 94.44 24.6 94.44ZM41.1289 98.5H43.4089V84.6H41.1289V98.5ZM54.2223 98.5H56.4823V92C56.4823 88.92 54.5423 87.3 51.9623 87.3C50.6423 87.3 49.4223 87.84 48.6823 88.74V87.48H46.4023V98.5H48.6823V92.34C48.6823 90.32 49.7823 89.28 51.4623 89.28C53.1223 89.28 54.2223 90.32 54.2223 92.34V98.5ZM59.7506 95.44C59.7506 97.68 60.9706 98.5 62.9306 98.5H64.7306V96.6H63.3306C62.3706 96.6 62.0506 96.26 62.0506 95.44V89.34H64.7306V87.48H62.0506V84.74H59.7506V87.48H58.4506V89.34H59.7506V95.44ZM69.112 92.7C69.112 90.36 70.152 89.66 71.832 89.66H72.412V87.3C70.852 87.3 69.752 87.98 69.112 89.08V87.48H66.832V98.5H69.112V92.7ZM85.0078 92.98C85.0078 89.52 82.5278 87.3 79.3878 87.3C76.2478 87.3 73.7678 89.52 73.7678 92.98C73.7678 96.44 76.1478 98.68 79.2878 98.68C82.4478 98.68 85.0078 96.44 85.0078 92.98ZM76.0878 92.98C76.0878 90.48 77.6278 89.28 79.3478 89.28C81.0478 89.28 82.6678 90.48 82.6678 92.98C82.6678 95.48 80.9878 96.7 79.2878 96.7C77.5678 96.7 76.0878 95.48 76.0878 92.98ZM86.5017 92.94C86.5017 96.34 88.8017 98.68 91.7017 98.68C93.5017 98.68 94.8217 97.84 95.5217 96.84V98.5H97.8217V83.7H95.5217V89.02C94.6817 87.98 93.1617 87.3 91.7217 87.3C88.8017 87.3 86.5017 89.54 86.5017 92.94ZM95.5217 92.98C95.5217 95.36 93.9017 96.7 92.1817 96.7C90.4817 96.7 88.8417 95.32 88.8417 92.94C88.8417 90.56 90.4817 89.28 92.1817 89.28C93.9017 89.28 95.5217 90.62 95.5217 92.98ZM110.796 87.48H108.516V93.62C108.516 95.64 107.416 96.68 105.736 96.68C104.076 96.68 102.976 95.64 102.976 93.62V87.48H100.716V93.96C100.716 97.04 102.676 98.66 105.256 98.66C106.556 98.66 107.796 98.12 108.516 97.18V98.5H110.796V87.48ZM113.045 92.98C113.045 96.44 115.285 98.68 118.445 98.68C121.145 98.68 122.905 97.18 123.525 95.02H121.065C120.645 96.16 119.805 96.76 118.445 96.76C116.605 96.76 115.385 95.4 115.385 92.98C115.385 90.58 116.605 89.22 118.445 89.22C119.805 89.22 120.685 89.9 121.065 90.96H123.525C122.905 88.64 121.145 87.3 118.445 87.3C115.285 87.3 113.045 89.54 113.045 92.98ZM126.157 95.44C126.157 97.68 127.377 98.5 129.337 98.5H131.137V96.6H129.737C128.777 96.6 128.457 96.26 128.457 95.44V89.34H131.137V87.48H128.457V84.74H126.157V87.48H124.857V89.34H126.157V95.44ZM133.238 98.5H135.518V87.48H133.238V98.5ZM134.398 86.02C135.198 86.02 135.838 85.38 135.838 84.56C135.838 83.74 135.198 83.1 134.398 83.1C133.578 83.1 132.938 83.74 132.938 84.56C132.938 85.38 133.578 86.02 134.398 86.02ZM149.012 92.98C149.012 89.52 146.532 87.3 143.392 87.3C140.252 87.3 137.772 89.52 137.772 92.98C137.772 96.44 140.152 98.68 143.292 98.68C146.452 98.68 149.012 96.44 149.012 92.98ZM140.092 92.98C140.092 90.48 141.632 89.28 143.352 89.28C145.052 89.28 146.672 90.48 146.672 92.98C146.672 95.48 144.992 96.7 143.292 96.7C141.572 96.7 140.092 95.48 140.092 92.98ZM159.086 98.5H161.346V92C161.346 88.92 159.406 87.3 156.826 87.3C155.506 87.3 154.286 87.84 153.546 88.74V87.48H151.266V98.5H153.546V92.34C153.546 90.32 154.646 89.28 156.326 89.28C157.986 89.28 159.086 90.32 159.086 92.34V98.5ZM169.809 95.44C169.809 97.68 171.029 98.5 172.989 98.5H174.789V96.6H173.389C172.429 96.6 172.109 96.26 172.109 95.44V89.34H174.789V87.48H172.109V84.74H169.809V87.48H168.509V89.34H169.809V95.44ZM187.391 92.98C187.391 89.52 184.911 87.3 181.771 87.3C178.631 87.3 176.151 89.52 176.151 92.98C176.151 96.44 178.531 98.68 181.671 98.68C184.831 98.68 187.391 96.44 187.391 92.98ZM178.471 92.98C178.471 90.48 180.011 89.28 181.731 89.28C183.431 89.28 185.051 90.48 185.051 92.98C185.051 95.48 183.371 96.7 181.671 96.7C179.951 96.7 178.471 95.48 178.471 92.98ZM204.22 98.5H206.62L201.64 84.58H199L194.02 98.5H196.4L197.4 95.66H203.22L204.22 98.5ZM202.58 93.8H198.04L200.32 87.34L202.58 93.8ZM211.065 92.7C211.065 90.36 212.105 89.66 213.785 89.66H214.365V87.3C212.805 87.3 211.705 87.98 211.065 89.08V87.48H208.785V98.5H211.065V92.7ZM216.821 95.44C216.821 97.68 218.041 98.5 220.001 98.5H221.801V96.6H220.401C219.441 96.6 219.121 96.26 219.121 95.44V89.34H221.801V87.48H219.121V84.74H216.821V87.48H215.521V89.34H216.821V95.44ZM223.902 98.5H226.182V87.48H223.902V98.5ZM225.062 86.02C225.862 86.02 226.502 85.38 226.502 84.56C226.502 83.74 225.862 83.1 225.062 83.1C224.242 83.1 223.602 83.74 223.602 84.56C223.602 85.38 224.242 86.02 225.062 86.02ZM229.456 98.5H231.756V89.34H233.796V87.48H231.756V86.7C231.756 85.44 232.236 84.96 233.636 84.96V83.06C230.756 83.06 229.456 84.16 229.456 86.7V87.48H228.156V89.34H229.456V98.5ZM235.816 98.5H238.096V87.48H235.816V98.5ZM236.976 86.02C237.776 86.02 238.416 85.38 238.416 84.56C238.416 83.74 237.776 83.1 236.976 83.1C236.156 83.1 235.516 83.74 235.516 84.56C235.516 85.38 236.156 86.02 236.976 86.02ZM240.33 92.98C240.33 96.44 242.57 98.68 245.73 98.68C248.43 98.68 250.19 97.18 250.81 95.02H248.35C247.93 96.16 247.09 96.76 245.73 96.76C243.89 96.76 242.67 95.4 242.67 92.98C242.67 90.58 243.89 89.22 245.73 89.22C247.09 89.22 247.97 89.9 248.35 90.96H250.81C250.19 88.64 248.43 87.3 245.73 87.3C242.57 87.3 240.33 89.54 240.33 92.98ZM253.082 98.5H255.362V87.48H253.082V98.5ZM254.242 86.02C255.042 86.02 255.682 85.38 255.682 84.56C255.682 83.74 255.042 83.1 254.242 83.1C253.422 83.1 252.782 83.74 252.782 84.56C252.782 85.38 253.422 86.02 254.242 86.02ZM257.595 92.94C257.595 96.34 259.895 98.68 262.755 98.68C264.595 98.68 265.915 97.8 266.615 96.86V98.5H268.915V87.48H266.615V89.08C265.935 88.18 264.655 87.3 262.795 87.3C259.895 87.3 257.595 89.54 257.595 92.94ZM266.615 92.98C266.615 95.36 264.995 96.7 263.275 96.7C261.575 96.7 259.935 95.32 259.935 92.94C259.935 90.56 261.575 89.28 263.275 89.28C264.995 89.28 266.615 90.62 266.615 92.98ZM271.91 98.5H274.19V83.7H271.91V98.5ZM282.379 98.5H284.659V84.6H282.379V98.5ZM295.472 98.5H297.732V92C297.732 88.92 295.792 87.3 293.212 87.3C291.892 87.3 290.672 87.84 289.932 88.74V87.48H287.652V98.5H289.932V92.34C289.932 90.32 291.032 89.28 292.712 89.28C294.372 89.28 295.472 90.32 295.472 92.34V98.5ZM301.001 95.44C301.001 97.68 302.221 98.5 304.181 98.5H305.981V96.6H304.581C303.621 96.6 303.301 96.26 303.301 95.44V89.34H305.981V87.48H303.301V84.74H301.001V87.48H299.701V89.34H301.001V95.44ZM312.722 89.22C314.422 89.22 315.762 90.3 315.802 92H309.702C309.942 90.26 311.182 89.22 312.722 89.22ZM317.882 95.22H315.422C315.002 96.08 314.222 96.76 312.822 96.76C311.142 96.76 309.842 95.66 309.682 93.84H318.102C318.162 93.46 318.182 93.1 318.182 92.72C318.182 89.48 315.962 87.3 312.822 87.3C309.562 87.3 307.322 89.52 307.322 92.98C307.322 96.44 309.662 98.68 312.822 98.68C315.522 98.68 317.262 97.14 317.882 95.22ZM320.426 98.5H322.706V83.7H320.426V98.5ZM325.699 98.5H327.979V83.7H325.699V98.5ZM330.973 98.5H333.253V87.48H330.973V98.5ZM332.133 86.02C332.933 86.02 333.573 85.38 333.573 84.56C333.573 83.74 332.933 83.1 332.133 83.1C331.313 83.1 330.673 83.74 330.673 84.56C330.673 85.38 331.313 86.02 332.133 86.02ZM335.486 92.94C335.486 96.34 337.786 98.68 340.686 98.68C342.486 98.68 343.806 97.78 344.506 96.84V98.68C344.506 100.88 343.186 101.96 341.426 101.96C339.846 101.96 338.626 101.18 338.286 100.04H336.026C336.306 102.48 338.486 103.94 341.426 103.94C344.866 103.94 346.806 101.68 346.806 98.68V87.48H344.506V89.08C343.826 88.14 342.486 87.3 340.686 87.3C337.786 87.3 335.486 89.54 335.486 92.94ZM344.506 92.98C344.506 95.36 342.886 96.7 341.166 96.7C339.466 96.7 337.826 95.32 337.826 92.94C337.826 90.56 339.466 89.28 341.166 89.28C342.886 89.28 344.506 90.62 344.506 92.98ZM354.441 89.22C356.141 89.22 357.481 90.3 357.521 92H351.421C351.661 90.26 352.901 89.22 354.441 89.22ZM359.601 95.22H357.141C356.721 96.08 355.941 96.76 354.541 96.76C352.861 96.76 351.561 95.66 351.401 93.84H359.821C359.881 93.46 359.901 93.1 359.901 92.72C359.901 89.48 357.681 87.3 354.541 87.3C351.281 87.3 349.041 89.52 349.041 92.98C349.041 96.44 351.381 98.68 354.541 98.68C357.241 98.68 358.981 97.14 359.601 95.22ZM369.965 98.5H372.225V92C372.225 88.92 370.285 87.3 367.705 87.3C366.385 87.3 365.165 87.84 364.425 88.74V87.48H362.145V98.5H364.425V92.34C364.425 90.32 365.525 89.28 367.205 89.28C368.865 89.28 369.965 90.32 369.965 92.34V98.5ZM374.373 92.98C374.373 96.44 376.613 98.68 379.773 98.68C382.473 98.68 384.233 97.18 384.853 95.02H382.393C381.973 96.16 381.133 96.76 379.773 96.76C377.933 96.76 376.713 95.4 376.713 92.98C376.713 90.58 377.933 89.22 379.773 89.22C381.133 89.22 382.013 89.9 382.393 90.96H384.853C384.233 88.64 382.473 87.3 379.773 87.3C376.613 87.3 374.373 89.54 374.373 92.98ZM391.765 89.22C393.465 89.22 394.805 90.3 394.845 92H388.745C388.985 90.26 390.225 89.22 391.765 89.22ZM396.925 95.22H394.465C394.045 96.08 393.265 96.76 391.865 96.76C390.185 96.76 388.885 95.66 388.725 93.84H397.145C397.205 93.46 397.225 93.1 397.225 92.72C397.225 89.48 395.005 87.3 391.865 87.3C388.605 87.3 386.365 89.52 386.365 92.98C386.365 96.44 388.705 98.68 391.865 98.68C394.565 98.68 396.305 97.14 396.925 95.22ZM412.064 102.22V102C409.264 99.12 407.844 95.18 407.844 91.22C407.844 87.26 409.264 82.98 412.464 80.04V79.82H410.104C407.064 82.52 405.644 86.86 405.644 91.22C405.644 95.58 407.064 99.68 409.704 102.22H412.064ZM423.888 98.5H426.288L421.308 84.58H418.668L413.688 98.5H416.068L417.068 95.66H422.888L423.888 98.5ZM422.248 93.8H417.708L419.988 87.34L422.248 93.8ZM428.453 98.5H430.733V84.6H428.453V98.5ZM433.167 102.22V102C435.967 99.12 437.387 95.18 437.387 91.22C437.387 87.26 435.967 82.98 432.767 80.04V79.82H435.127C438.167 82.52 439.587 86.86 439.587 91.22C439.587 95.58 438.167 99.68 435.527 102.22H433.167Z" fill="#212832"/>
<rect x="0.5" y="66.5" width="616" height="49" stroke="black" stroke-opacity="0.5"/>
<rect y="294" width="617" height="50" fill="white"/>
<path d="M24.6 322.44C26.08 322.44 27.24 321.3 27.24 319.84C27.24 318.36 26.08 317.22 24.6 317.22C23.16 317.22 22 318.36 22 319.84C22 321.3 23.16 322.44 24.6 322.44ZM40.3689 319.52C40.3689 323.7 43.5489 326.62 47.4689 326.62C50.3689 326.62 52.8689 325.18 53.9289 322.46H51.1889C50.4489 323.94 49.1289 324.64 47.4689 324.64C44.7089 324.64 42.7089 322.66 42.7089 319.52C42.7089 316.38 44.7089 314.42 47.4689 314.42C49.1289 314.42 50.4489 315.12 51.1889 316.6H53.9289C52.8689 313.88 50.3689 312.42 47.4689 312.42C43.5489 312.42 40.3689 315.36 40.3689 319.52ZM56.5977 326.5H58.8777V311.7H56.5977V326.5ZM72.3711 320.98C72.3711 317.52 69.8911 315.3 66.7511 315.3C63.6111 315.3 61.1311 317.52 61.1311 320.98C61.1311 324.44 63.5111 326.68 66.6511 326.68C69.8111 326.68 72.3711 324.44 72.3711 320.98ZM63.4511 320.98C63.4511 318.48 64.9911 317.28 66.7111 317.28C68.4111 317.28 70.0311 318.48 70.0311 320.98C70.0311 323.48 68.3511 324.7 66.6511 324.7C64.9311 324.7 63.4511 323.48 63.4511 320.98ZM84.605 315.48H82.325V321.62C82.325 323.64 81.225 324.68 79.545 324.68C77.885 324.68 76.785 323.64 76.785 321.62V315.48H74.525V321.96C74.525 325.04 76.485 326.66 79.065 326.66C80.365 326.66 81.605 326.12 82.325 325.18V326.5H84.605V315.48ZM86.8533 320.94C86.8533 324.34 89.1533 326.68 92.0533 326.68C93.8533 326.68 95.1733 325.84 95.8733 324.84V326.5H98.1733V311.7H95.8733V317.02C95.0333 315.98 93.5133 315.3 92.0733 315.3C89.1533 315.3 86.8533 317.54 86.8533 320.94ZM95.8733 320.98C95.8733 323.36 94.2533 324.7 92.5333 324.7C90.8333 324.7 89.1933 323.32 89.1933 320.94C89.1933 318.56 90.8333 317.28 92.5333 317.28C94.2533 317.28 95.8733 318.62 95.8733 320.98ZM110.903 312.6H106.363V326.5H110.903C115.363 326.5 118.283 323.88 118.283 319.6C118.283 315.3 115.363 312.6 110.903 312.6ZM108.643 324.64V314.46H110.903C114.183 314.46 115.943 316.42 115.943 319.6C115.943 322.76 114.183 324.64 110.903 324.64H108.643ZM125.183 317.22C126.883 317.22 128.223 318.3 128.263 320H122.163C122.403 318.26 123.643 317.22 125.183 317.22ZM130.343 323.22H127.883C127.463 324.08 126.683 324.76 125.283 324.76C123.603 324.76 122.303 323.66 122.143 321.84H130.563C130.623 321.46 130.643 321.1 130.643 320.72C130.643 317.48 128.423 315.3 125.283 315.3C122.023 315.3 119.783 317.52 119.783 320.98C119.783 324.44 122.123 326.68 125.283 326.68C127.983 326.68 129.723 325.14 130.343 323.22ZM131.587 315.48L135.767 326.5H138.487L142.687 315.48H140.267L137.147 324.46L134.027 315.48H131.587ZM149.05 317.22C150.75 317.22 152.09 318.3 152.13 320H146.03C146.27 318.26 147.51 317.22 149.05 317.22ZM154.21 323.22H151.75C151.33 324.08 150.55 324.76 149.15 324.76C147.47 324.76 146.17 323.66 146.01 321.84H154.43C154.49 321.46 154.51 321.1 154.51 320.72C154.51 317.48 152.29 315.3 149.15 315.3C145.89 315.3 143.65 317.52 143.65 320.98C143.65 324.44 145.99 326.68 149.15 326.68C151.85 326.68 153.59 325.14 154.21 323.22ZM156.754 326.5H159.034V311.7H156.754V326.5ZM172.527 320.98C172.527 317.52 170.047 315.3 166.907 315.3C163.767 315.3 161.287 317.52 161.287 320.98C161.287 324.44 163.667 326.68 166.807 326.68C169.967 326.68 172.527 324.44 172.527 320.98ZM163.607 320.98C163.607 318.48 165.147 317.28 166.867 317.28C168.567 317.28 170.187 318.48 170.187 320.98C170.187 323.48 168.507 324.7 166.807 324.7C165.087 324.7 163.607 323.48 163.607 320.98ZM177.061 317.1V315.48H174.781V331.74H177.061V324.9C177.781 325.76 179.081 326.68 180.901 326.68C183.801 326.68 186.081 324.34 186.081 320.94C186.081 317.54 183.801 315.3 180.901 315.3C179.101 315.3 177.761 316.18 177.061 317.1ZM183.761 320.94C183.761 323.32 182.121 324.7 180.401 324.7C178.701 324.7 177.061 323.36 177.061 320.98C177.061 318.62 178.701 317.28 180.401 317.28C182.121 317.28 183.761 318.56 183.761 320.94ZM203.956 326.5H206.216V320C206.216 316.92 204.256 315.3 201.676 315.3C200.076 315.3 198.516 316.14 197.836 317.48C197.076 316.04 195.616 315.3 193.876 315.3C192.556 315.3 191.356 315.84 190.616 316.74V315.48H188.336V326.5H190.616V320.34C190.616 318.32 191.716 317.28 193.396 317.28C195.056 317.28 196.156 318.32 196.156 320.34V326.5H198.416V320.34C198.416 318.32 199.516 317.28 201.196 317.28C202.856 317.28 203.956 318.32 203.956 320.34V326.5ZM213.757 317.22C215.457 317.22 216.797 318.3 216.837 320H210.737C210.977 318.26 212.217 317.22 213.757 317.22ZM218.917 323.22H216.457C216.037 324.08 215.257 324.76 213.857 324.76C212.177 324.76 210.877 323.66 210.717 321.84H219.137C219.197 321.46 219.217 321.1 219.217 320.72C219.217 317.48 216.997 315.3 213.857 315.3C210.597 315.3 208.357 317.52 208.357 320.98C208.357 324.44 210.697 326.68 213.857 326.68C216.557 326.68 218.297 325.14 218.917 323.22ZM229.281 326.5H231.541V320C231.541 316.92 229.601 315.3 227.021 315.3C225.701 315.3 224.481 315.84 223.741 316.74V315.48H221.461V326.5H223.741V320.34C223.741 318.32 224.841 317.28 226.521 317.28C228.181 317.28 229.281 318.32 229.281 320.34V326.5ZM234.809 323.44C234.809 325.68 236.029 326.5 237.989 326.5H239.789V324.6H238.389C237.429 324.6 237.109 324.26 237.109 323.44V317.34H239.789V315.48H237.109V312.74H234.809V315.48H233.509V317.34H234.809V323.44Z" fill="#212832"/>
<rect x="0.5" y="294.5" width="616" height="49" stroke="black" stroke-opacity="0.5"/>
<rect y="180" width="617" height="50" fill="white"/>
<path d="M24.6 208.44C26.08 208.44 27.24 207.3 27.24 205.84C27.24 204.36 26.08 203.22 24.6 203.22C23.16 203.22 22 204.36 22 205.84C22 207.3 23.16 208.44 24.6 208.44ZM43.4089 205V200.46H45.9289C47.7089 200.46 48.5089 201.3 48.5089 202.74C48.5089 204.14 47.7089 205 45.9289 205H43.4089ZM50.8489 202.74C50.8489 200.48 49.2289 198.6 45.9289 198.6H41.1289V212.5H43.4089V206.86H45.9289C49.5489 206.86 50.8489 204.72 50.8489 202.74ZM55.3034 206.7C55.3034 204.36 56.3434 203.66 58.0234 203.66H58.6034V201.3C57.0434 201.3 55.9434 201.98 55.3034 203.08V201.48H53.0234V212.5H55.3034V206.7ZM71.1992 206.98C71.1992 203.52 68.7192 201.3 65.5792 201.3C62.4392 201.3 59.9592 203.52 59.9592 206.98C59.9592 210.44 62.3392 212.68 65.4792 212.68C68.6392 212.68 71.1992 210.44 71.1992 206.98ZM62.2792 206.98C62.2792 204.48 63.8192 203.28 65.5392 203.28C67.2392 203.28 68.8592 204.48 68.8592 206.98C68.8592 209.48 67.1792 210.7 65.4792 210.7C63.7592 210.7 62.2792 209.48 62.2792 206.98ZM73.7331 212.5H76.0331V203.34H78.0731V201.48H76.0331V200.7C76.0331 199.44 76.5131 198.96 77.9131 198.96V197.06C75.0331 197.06 73.7331 198.16 73.7331 200.7V201.48H72.4331V203.34H73.7331V212.5ZM84.7338 203.22C86.4338 203.22 87.7738 204.3 87.8138 206H81.7138C81.9538 204.26 83.1938 203.22 84.7338 203.22ZM89.8937 209.22H87.4338C87.0138 210.08 86.2338 210.76 84.8338 210.76C83.1538 210.76 81.8538 209.66 81.6938 207.84H90.1138C90.1738 207.46 90.1938 207.1 90.1938 206.72C90.1938 203.48 87.9738 201.3 84.8338 201.3C81.5738 201.3 79.3338 203.52 79.3338 206.98C79.3338 210.44 81.6738 212.68 84.8338 212.68C87.5338 212.68 89.2738 211.14 89.8937 209.22ZM100.658 209.42C100.538 205.44 94.3175 206.68 94.3175 204.46C94.3175 203.72 94.9575 203.22 96.1775 203.22C97.4175 203.22 98.1575 203.88 98.2375 204.84H100.518C100.398 202.64 98.7575 201.3 96.2575 201.3C93.6575 201.3 92.0175 202.72 92.0175 204.48C92.0175 208.52 98.4175 207.28 98.4175 209.44C98.4175 210.2 97.7175 210.76 96.3975 210.76C95.1375 210.76 94.2775 210.02 94.1975 209.12H91.8375C91.9375 211.12 93.7975 212.68 96.4375 212.68C99.0375 212.68 100.658 211.28 100.658 209.42ZM111.341 209.42C111.221 205.44 105.001 206.68 105.001 204.46C105.001 203.72 105.641 203.22 106.861 203.22C108.101 203.22 108.841 203.88 108.921 204.84H111.201C111.081 202.64 109.441 201.3 106.941 201.3C104.341 201.3 102.701 202.72 102.701 204.48C102.701 208.52 109.101 207.28 109.101 209.44C109.101 210.2 108.401 210.76 107.081 210.76C105.821 210.76 104.961 210.02 104.881 209.12H102.521C102.621 211.12 104.481 212.68 107.121 212.68C109.721 212.68 111.341 211.28 111.341 209.42ZM113.805 212.5H116.085V201.48H113.805V212.5ZM114.965 200.02C115.765 200.02 116.405 199.38 116.405 198.56C116.405 197.74 115.765 197.1 114.965 197.1C114.145 197.1 113.505 197.74 113.505 198.56C113.505 199.38 114.145 200.02 114.965 200.02ZM129.578 206.98C129.578 203.52 127.098 201.3 123.958 201.3C120.818 201.3 118.338 203.52 118.338 206.98C118.338 210.44 120.718 212.68 123.858 212.68C127.018 212.68 129.578 210.44 129.578 206.98ZM120.658 206.98C120.658 204.48 122.198 203.28 123.918 203.28C125.618 203.28 127.238 204.48 127.238 206.98C127.238 209.48 125.558 210.7 123.858 210.7C122.138 210.7 120.658 209.48 120.658 206.98ZM139.652 212.5H141.912V206C141.912 202.92 139.972 201.3 137.392 201.3C136.072 201.3 134.852 201.84 134.112 202.74V201.48H131.832V212.5H134.112V206.34C134.112 204.32 135.212 203.28 136.892 203.28C138.552 203.28 139.652 204.32 139.652 206.34V212.5ZM144.06 206.94C144.06 210.34 146.36 212.68 149.22 212.68C151.06 212.68 152.38 211.8 153.08 210.86V212.5H155.38V201.48H153.08V203.08C152.4 202.18 151.12 201.3 149.26 201.3C146.36 201.3 144.06 203.54 144.06 206.94ZM153.08 206.98C153.08 209.36 151.46 210.7 149.74 210.7C148.04 210.7 146.4 209.32 146.4 206.94C146.4 204.56 148.04 203.28 149.74 203.28C151.46 203.28 153.08 204.62 153.08 206.98ZM158.375 212.5H160.655V197.7H158.375V212.5ZM176.524 198.58H168.844V212.5H176.524V210.64H171.124V206.38H175.924V204.52H171.124V200.44H176.524V198.58ZM179.692 209.44C179.692 211.68 180.912 212.5 182.872 212.5H184.672V210.6H183.272C182.312 210.6 181.992 210.26 181.992 209.44V203.34H184.672V201.48H181.992V198.74H179.692V201.48H178.392V203.34H179.692V209.44ZM186.773 212.5H189.053V206.34C189.053 204.32 190.153 203.28 191.833 203.28C193.493 203.28 194.593 204.32 194.593 206.34V212.5H196.853V206C196.853 202.92 194.933 201.3 192.473 201.3C191.053 201.3 189.813 201.84 189.053 202.76V197.7H186.773V212.5ZM199.762 212.5H202.042V201.48H199.762V212.5ZM200.922 200.02C201.722 200.02 202.362 199.38 202.362 198.56C202.362 197.74 201.722 197.1 200.922 197.1C200.102 197.1 199.462 197.74 199.462 198.56C199.462 199.38 200.102 200.02 200.922 200.02ZM204.275 206.98C204.275 210.44 206.515 212.68 209.675 212.68C212.375 212.68 214.135 211.18 214.755 209.02H212.295C211.875 210.16 211.035 210.76 209.675 210.76C207.835 210.76 206.615 209.4 206.615 206.98C206.615 204.58 207.835 203.22 209.675 203.22C211.035 203.22 211.915 203.9 212.295 204.96H214.755C214.135 202.64 212.375 201.3 209.675 201.3C206.515 201.3 204.275 203.54 204.275 206.98ZM225.247 209.42C225.127 205.44 218.907 206.68 218.907 204.46C218.907 203.72 219.547 203.22 220.767 203.22C222.007 203.22 222.747 203.88 222.827 204.84H225.107C224.987 202.64 223.347 201.3 220.847 201.3C218.247 201.3 216.607 202.72 216.607 204.48C216.607 208.52 223.007 207.28 223.007 209.44C223.007 210.2 222.307 210.76 220.987 210.76C219.727 210.76 218.867 210.02 218.787 209.12H216.427C216.527 211.12 218.387 212.68 221.027 212.68C223.627 212.68 225.247 211.28 225.247 209.42Z" fill="#212832"/>
<rect x="0.5" y="180.5" width="616" height="49" stroke="black" stroke-opacity="0.5"/>
<rect y="123" width="617" height="50" fill="white"/>
<path d="M24.6 151.44C26.08 151.44 27.24 150.3 27.24 148.84C27.24 147.36 26.08 146.22 24.6 146.22C23.16 146.22 22 147.36 22 148.84C22 150.3 23.16 151.44 24.6 151.44ZM41.1289 155.5H43.4089V149.42H48.0089V147.56H43.4089V143.46H49.3089V141.6H41.1289V155.5ZM61.4019 144.48H59.1219V150.62C59.1219 152.64 58.0219 153.68 56.3419 153.68C54.6819 153.68 53.5819 152.64 53.5819 150.62V144.48H51.3219V150.96C51.3219 154.04 53.2819 155.66 55.8619 155.66C57.1619 155.66 58.4019 155.12 59.1219 154.18V155.5H61.4019V144.48ZM72.2302 155.5H74.4902V149C74.4902 145.92 72.5502 144.3 69.9702 144.3C68.6502 144.3 67.4302 144.84 66.6902 145.74V144.48H64.4102V155.5H66.6902V149.34C66.6902 147.32 67.7902 146.28 69.4702 146.28C71.1302 146.28 72.2302 147.32 72.2302 149.34V155.5ZM76.6384 149.94C76.6384 153.34 78.9384 155.68 81.8384 155.68C83.6384 155.68 84.9584 154.84 85.6584 153.84V155.5H87.9584V140.7H85.6584V146.02C84.8184 144.98 83.2984 144.3 81.8584 144.3C78.9384 144.3 76.6384 146.54 76.6384 149.94ZM85.6584 149.98C85.6584 152.36 84.0384 153.7 82.3184 153.7C80.6184 153.7 78.9784 152.32 78.9784 149.94C78.9784 147.56 80.6184 146.28 82.3184 146.28C84.0384 146.28 85.6584 147.62 85.6584 149.98ZM90.1931 149.94C90.1931 153.34 92.4931 155.68 95.3531 155.68C97.1931 155.68 98.5131 154.8 99.2131 153.86V155.5H101.513V144.48H99.2131V146.08C98.5331 145.18 97.2531 144.3 95.3931 144.3C92.4931 144.3 90.1931 146.54 90.1931 149.94ZM99.2131 149.98C99.2131 152.36 97.5931 153.7 95.8731 153.7C94.1731 153.7 92.5331 152.32 92.5331 149.94C92.5331 147.56 94.1731 146.28 95.8731 146.28C97.5931 146.28 99.2131 147.62 99.2131 149.98ZM120.128 155.5H122.388V149C122.388 145.92 120.428 144.3 117.848 144.3C116.248 144.3 114.688 145.14 114.008 146.48C113.248 145.04 111.788 144.3 110.048 144.3C108.728 144.3 107.528 144.84 106.788 145.74V144.48H104.508V155.5H106.788V149.34C106.788 147.32 107.888 146.28 109.568 146.28C111.228 146.28 112.328 147.32 112.328 149.34V155.5H114.588V149.34C114.588 147.32 115.688 146.28 117.368 146.28C119.028 146.28 120.128 147.32 120.128 149.34V155.5ZM129.929 146.22C131.629 146.22 132.969 147.3 133.009 149H126.909C127.149 147.26 128.389 146.22 129.929 146.22ZM135.089 152.22H132.629C132.209 153.08 131.429 153.76 130.029 153.76C128.349 153.76 127.049 152.66 126.889 150.84H135.309C135.369 150.46 135.389 150.1 135.389 149.72C135.389 146.48 133.169 144.3 130.029 144.3C126.769 144.3 124.529 146.52 124.529 149.98C124.529 153.44 126.869 155.68 130.029 155.68C132.729 155.68 134.469 154.14 135.089 152.22ZM145.453 155.5H147.713V149C147.713 145.92 145.773 144.3 143.193 144.3C141.873 144.3 140.653 144.84 139.913 145.74V144.48H137.633V155.5H139.913V149.34C139.913 147.32 141.013 146.28 142.693 146.28C144.353 146.28 145.453 147.32 145.453 149.34V155.5ZM150.981 152.44C150.981 154.68 152.201 155.5 154.161 155.5H155.961V153.6H154.561C153.601 153.6 153.281 153.26 153.281 152.44V146.34H155.961V144.48H153.281V141.74H150.981V144.48H149.681V146.34H150.981V152.44ZM157.303 149.94C157.303 153.34 159.603 155.68 162.463 155.68C164.303 155.68 165.623 154.8 166.323 153.86V155.5H168.623V144.48H166.323V146.08C165.643 145.18 164.363 144.3 162.503 144.3C159.603 144.3 157.303 146.54 157.303 149.94ZM166.323 149.98C166.323 152.36 164.703 153.7 162.983 153.7C161.283 153.7 159.643 152.32 159.643 149.94C159.643 147.56 161.283 146.28 162.983 146.28C164.703 146.28 166.323 147.62 166.323 149.98ZM171.617 155.5H173.897V140.7H171.617V155.5ZM185.111 152.42C184.991 148.44 178.771 149.68 178.771 147.46C178.771 146.72 179.411 146.22 180.631 146.22C181.871 146.22 182.611 146.88 182.691 147.84H184.971C184.851 145.64 183.211 144.3 180.711 144.3C178.111 144.3 176.471 145.72 176.471 147.48C176.471 151.52 182.871 150.28 182.871 152.44C182.871 153.2 182.171 153.76 180.851 153.76C179.591 153.76 178.731 153.02 178.651 152.12H176.291C176.391 154.12 178.251 155.68 180.891 155.68C183.491 155.68 185.111 154.28 185.111 152.42ZM203.27 149.98C203.27 146.52 200.79 144.3 197.65 144.3C194.51 144.3 192.03 146.52 192.03 149.98C192.03 153.44 194.41 155.68 197.55 155.68C200.71 155.68 203.27 153.44 203.27 149.98ZM194.35 149.98C194.35 147.48 195.89 146.28 197.61 146.28C199.31 146.28 200.93 147.48 200.93 149.98C200.93 152.48 199.25 153.7 197.55 153.7C195.83 153.7 194.35 152.48 194.35 149.98ZM205.803 155.5H208.103V146.34H210.143V144.48H208.103V143.7C208.103 142.44 208.583 141.96 209.983 141.96V140.06C207.103 140.06 205.803 141.16 205.803 143.7V144.48H204.503V146.34H205.803V155.5ZM225.039 141.58H217.359V155.5H225.039V153.64H219.639V149.38H224.439V147.52H219.639V143.44H225.039V141.58ZM227.088 149.98C227.088 153.44 229.328 155.68 232.488 155.68C235.188 155.68 236.948 154.18 237.568 152.02H235.108C234.688 153.16 233.848 153.76 232.488 153.76C230.648 153.76 229.428 152.4 229.428 149.98C229.428 147.58 230.648 146.22 232.488 146.22C233.848 146.22 234.728 146.9 235.108 147.96H237.568C236.948 145.64 235.188 144.3 232.488 144.3C229.328 144.3 227.088 146.54 227.088 149.98ZM250.34 149.98C250.34 146.52 247.86 144.3 244.72 144.3C241.58 144.3 239.1 146.52 239.1 149.98C239.1 153.44 241.48 155.68 244.62 155.68C247.78 155.68 250.34 153.44 250.34 149.98ZM241.42 149.98C241.42 147.48 242.96 146.28 244.68 146.28C246.38 146.28 248 147.48 248 149.98C248 152.48 246.32 153.7 244.62 153.7C242.9 153.7 241.42 152.48 241.42 149.98ZM268.214 155.5H270.474V149C270.474 145.92 268.514 144.3 265.934 144.3C264.334 144.3 262.774 145.14 262.094 146.48C261.334 145.04 259.874 144.3 258.134 144.3C256.814 144.3 255.614 144.84 254.874 145.74V144.48H252.594V155.5H254.874V149.34C254.874 147.32 255.974 146.28 257.654 146.28C259.314 146.28 260.414 147.32 260.414 149.34V155.5H262.674V149.34C262.674 147.32 263.774 146.28 265.454 146.28C267.114 146.28 268.214 147.32 268.214 149.34V155.5ZM288.995 155.5H291.255V149C291.255 145.92 289.295 144.3 286.715 144.3C285.115 144.3 283.555 145.14 282.875 146.48C282.115 145.04 280.655 144.3 278.915 144.3C277.595 144.3 276.395 144.84 275.655 145.74V144.48H273.375V155.5H275.655V149.34C275.655 147.32 276.755 146.28 278.435 146.28C280.095 146.28 281.195 147.32 281.195 149.34V155.5H283.455V149.34C283.455 147.32 284.555 146.28 286.235 146.28C287.895 146.28 288.995 147.32 288.995 149.34V155.5ZM298.796 146.22C300.496 146.22 301.836 147.3 301.876 149H295.776C296.016 147.26 297.256 146.22 298.796 146.22ZM303.956 152.22H301.496C301.076 153.08 300.296 153.76 298.896 153.76C297.216 153.76 295.916 152.66 295.756 150.84H304.176C304.236 150.46 304.256 150.1 304.256 149.72C304.256 146.48 302.036 144.3 298.896 144.3C295.636 144.3 293.396 146.52 293.396 149.98C293.396 153.44 295.736 155.68 298.896 155.68C301.596 155.68 303.336 154.14 303.956 152.22ZM308.78 149.7C308.78 147.36 309.82 146.66 311.5 146.66H312.08V144.3C310.52 144.3 309.42 144.98 308.78 146.08V144.48H306.5V155.5H308.78V149.7ZM313.416 149.98C313.416 153.44 315.656 155.68 318.816 155.68C321.516 155.68 323.276 154.18 323.896 152.02H321.436C321.016 153.16 320.176 153.76 318.816 153.76C316.976 153.76 315.756 152.4 315.756 149.98C315.756 147.58 316.976 146.22 318.816 146.22C320.176 146.22 321.056 146.9 321.436 147.96H323.896C323.276 145.64 321.516 144.3 318.816 144.3C315.656 144.3 313.416 146.54 313.416 149.98ZM330.808 146.22C332.508 146.22 333.848 147.3 333.888 149H327.788C328.028 147.26 329.268 146.22 330.808 146.22ZM335.968 152.22H333.508C333.088 153.08 332.308 153.76 330.908 153.76C329.228 153.76 327.928 152.66 327.768 150.84H336.188C336.248 150.46 336.268 150.1 336.268 149.72C336.268 146.48 334.048 144.3 330.908 144.3C327.648 144.3 325.408 146.52 325.408 149.98C325.408 153.44 327.748 155.68 330.908 155.68C333.608 155.68 335.348 154.14 335.968 152.22Z" fill="#212832"/>
<rect x="0.5" y="123.5" width="616" height="49" stroke="black" stroke-opacity="0.5"/>
<rect y="237" width="617" height="50" fill="white"/>
<path d="M24.6 265.44C26.08 265.44 27.24 264.3 27.24 262.84C27.24 261.36 26.08 260.22 24.6 260.22C23.16 260.22 22 261.36 22 262.84C22 264.3 23.16 265.44 24.6 265.44ZM43.4089 262V257.46H45.9289C47.7089 257.46 48.5089 258.3 48.5089 259.74C48.5089 261.14 47.7089 262 45.9289 262H43.4089ZM50.8489 259.74C50.8489 257.48 49.2289 255.6 45.9289 255.6H41.1289V269.5H43.4089V263.86H45.9289C49.5489 263.86 50.8489 261.72 50.8489 259.74ZM55.3034 263.7C55.3034 261.36 56.3434 260.66 58.0234 260.66H58.6034V258.3C57.0434 258.3 55.9434 258.98 55.3034 260.08V258.48H53.0234V269.5H55.3034V263.7ZM59.9392 263.94C59.9392 267.34 62.2392 269.68 65.0992 269.68C66.9392 269.68 68.2592 268.8 68.9592 267.86V269.5H71.2592V258.48H68.9592V260.08C68.2792 259.18 66.9992 258.3 65.1392 258.3C62.2392 258.3 59.9392 260.54 59.9392 263.94ZM68.9592 263.98C68.9592 266.36 67.3392 267.7 65.6192 267.7C63.9192 267.7 62.2792 266.32 62.2792 263.94C62.2792 261.56 63.9192 260.28 65.6192 260.28C67.3392 260.28 68.9592 261.62 68.9592 263.98ZM73.4939 263.98C73.4939 267.44 75.7339 269.68 78.8939 269.68C81.5939 269.68 83.3539 268.18 83.9739 266.02H81.5139C81.0939 267.16 80.2539 267.76 78.8939 267.76C77.0539 267.76 75.8339 266.4 75.8339 263.98C75.8339 261.58 77.0539 260.22 78.8939 260.22C80.2539 260.22 81.1339 260.9 81.5139 261.96H83.9739C83.3539 259.64 81.5939 258.3 78.8939 258.3C75.7339 258.3 73.4939 260.54 73.4939 263.98ZM86.6061 266.44C86.6061 268.68 87.8261 269.5 89.7861 269.5H91.5861V267.6H90.1861C89.2261 267.6 88.9061 267.26 88.9061 266.44V260.34H91.5861V258.48H88.9061V255.74H86.6061V258.48H85.3061V260.34H86.6061V266.44ZM93.6875 269.5H95.9675V258.48H93.6875V269.5ZM94.8475 257.02C95.6475 257.02 96.2875 256.38 96.2875 255.56C96.2875 254.74 95.6475 254.1 94.8475 254.1C94.0275 254.1 93.3875 254.74 93.3875 255.56C93.3875 256.38 94.0275 257.02 94.8475 257.02ZM98.2009 263.98C98.2009 267.44 100.441 269.68 103.601 269.68C106.301 269.68 108.061 268.18 108.681 266.02H106.221C105.801 267.16 104.961 267.76 103.601 267.76C101.761 267.76 100.541 266.4 100.541 263.98C100.541 261.58 101.761 260.22 103.601 260.22C104.961 260.22 105.841 260.9 106.221 261.96H108.681C108.061 259.64 106.301 258.3 103.601 258.3C100.441 258.3 98.2009 260.54 98.2009 263.98ZM110.193 263.94C110.193 267.34 112.493 269.68 115.353 269.68C117.193 269.68 118.513 268.8 119.213 267.86V269.5H121.513V258.48H119.213V260.08C118.533 259.18 117.253 258.3 115.393 258.3C112.493 258.3 110.193 260.54 110.193 263.94ZM119.213 263.98C119.213 266.36 117.593 267.7 115.873 267.7C114.173 267.7 112.533 266.32 112.533 263.94C112.533 261.56 114.173 260.28 115.873 260.28C117.593 260.28 119.213 261.62 119.213 263.98ZM124.508 269.5H126.788V254.7H124.508V269.5ZM144.357 269.5H146.757L141.777 255.58H139.137L134.157 269.5H136.537L137.537 266.66H143.357L144.357 269.5ZM142.717 264.8H138.177L140.457 258.34L142.717 264.8ZM151.202 260.1V258.48H148.922V274.74H151.202V267.9C151.922 268.76 153.222 269.68 155.042 269.68C157.942 269.68 160.222 267.34 160.222 263.94C160.222 260.54 157.942 258.3 155.042 258.3C153.242 258.3 151.902 259.18 151.202 260.1ZM157.902 263.94C157.902 266.32 156.262 267.7 154.542 267.7C152.842 267.7 151.202 266.36 151.202 263.98C151.202 261.62 152.842 260.28 154.542 260.28C156.262 260.28 157.902 261.56 157.902 263.94ZM164.757 260.1V258.48H162.477V274.74H164.757V267.9C165.477 268.76 166.777 269.68 168.597 269.68C171.497 269.68 173.777 267.34 173.777 263.94C173.777 260.54 171.497 258.3 168.597 258.3C166.797 258.3 165.457 259.18 164.757 260.1ZM171.457 263.94C171.457 266.32 169.817 267.7 168.097 267.7C166.397 267.7 164.757 266.36 164.757 263.98C164.757 261.62 166.397 260.28 168.097 260.28C169.817 260.28 171.457 261.56 171.457 263.94ZM178.311 263.7C178.311 261.36 179.351 260.66 181.031 260.66H181.611V258.3C180.051 258.3 178.951 258.98 178.311 260.08V258.48H176.031V269.5H178.311V263.7ZM194.207 263.98C194.207 260.52 191.727 258.3 188.587 258.3C185.447 258.3 182.967 260.52 182.967 263.98C182.967 267.44 185.347 269.68 188.487 269.68C191.647 269.68 194.207 267.44 194.207 263.98ZM185.287 263.98C185.287 261.48 186.827 260.28 188.547 260.28C190.247 260.28 191.867 261.48 191.867 263.98C191.867 266.48 190.187 267.7 188.487 267.7C186.767 267.7 185.287 266.48 185.287 263.98ZM195.701 263.94C195.701 267.34 198.001 269.68 200.861 269.68C202.701 269.68 204.021 268.8 204.721 267.86V269.5H207.021V258.48H204.721V260.08C204.041 259.18 202.761 258.3 200.901 258.3C198.001 258.3 195.701 260.54 195.701 263.94ZM204.721 263.98C204.721 266.36 203.101 267.7 201.381 267.7C199.681 267.7 198.041 266.32 198.041 263.94C198.041 261.56 199.681 260.28 201.381 260.28C203.101 260.28 204.721 261.62 204.721 263.98ZM209.256 263.98C209.256 267.44 211.496 269.68 214.656 269.68C217.356 269.68 219.116 268.18 219.736 266.02H217.276C216.856 267.16 216.016 267.76 214.656 267.76C212.816 267.76 211.596 266.4 211.596 263.98C211.596 261.58 212.816 260.22 214.656 260.22C216.016 260.22 216.896 260.9 217.276 261.96H219.736C219.116 259.64 217.356 258.3 214.656 258.3C211.496 258.3 209.256 260.54 209.256 263.98ZM222.008 269.5H224.288V263.34C224.288 261.32 225.388 260.28 227.068 260.28C228.728 260.28 229.828 261.32 229.828 263.34V269.5H232.088V263C232.088 259.92 230.168 258.3 227.708 258.3C226.288 258.3 225.048 258.84 224.288 259.76V254.7H222.008V269.5ZM240.551 266.44C240.551 268.68 241.771 269.5 243.731 269.5H245.531V267.6H244.131C243.171 267.6 242.851 267.26 242.851 266.44V260.34H245.531V258.48H242.851V255.74H240.551V258.48H239.251V260.34H240.551V266.44ZM258.133 263.98C258.133 260.52 255.653 258.3 252.513 258.3C249.373 258.3 246.893 260.52 246.893 263.98C246.893 267.44 249.273 269.68 252.413 269.68C255.573 269.68 258.133 267.44 258.133 263.98ZM249.213 263.98C249.213 261.48 250.753 260.28 252.473 260.28C254.173 260.28 255.793 261.48 255.793 263.98C255.793 266.48 254.113 267.7 252.413 267.7C250.693 267.7 249.213 266.48 249.213 263.98ZM264.822 262.52C264.822 266.7 268.002 269.62 271.922 269.62C274.822 269.62 277.322 268.18 278.382 265.46H275.642C274.902 266.94 273.582 267.64 271.922 267.64C269.162 267.64 267.162 265.66 267.162 262.52C267.162 259.38 269.162 257.42 271.922 257.42C273.582 257.42 274.902 258.12 275.642 259.6H278.382C277.322 256.88 274.822 255.42 271.922 255.42C268.002 255.42 264.822 258.36 264.822 262.52ZM285.391 266.88L282.291 258.48H279.751L284.091 269.32L281.851 274.68H284.211L290.971 258.48H288.611L285.391 266.88ZM294.971 260.12V254.7H292.691V269.5H294.971V267.9C295.691 268.86 296.991 269.68 298.811 269.68C301.711 269.68 303.991 267.34 303.991 263.94C303.991 260.54 301.731 258.3 298.811 258.3C297.071 258.3 295.691 259.12 294.971 260.12ZM301.671 263.94C301.671 266.32 300.031 267.7 298.311 267.7C296.611 267.7 294.971 266.36 294.971 263.98C294.971 261.62 296.611 260.28 298.311 260.28C300.031 260.28 301.671 261.56 301.671 263.94ZM310.886 260.22C312.586 260.22 313.926 261.3 313.966 263H307.866C308.106 261.26 309.346 260.22 310.886 260.22ZM316.046 266.22H313.586C313.166 267.08 312.386 267.76 310.986 267.76C309.306 267.76 308.006 266.66 307.846 264.84H316.266C316.326 264.46 316.346 264.1 316.346 263.72C316.346 260.48 314.126 258.3 310.986 258.3C307.726 258.3 305.486 260.52 305.486 263.98C305.486 267.44 307.826 269.68 310.986 269.68C313.686 269.68 315.426 268.14 316.046 266.22ZM320.87 263.7C320.87 261.36 321.91 260.66 323.59 260.66H324.17V258.3C322.61 258.3 321.51 258.98 320.87 260.08V258.48H318.59V269.5H320.87V263.7ZM334.486 266.42C334.366 262.44 328.146 263.68 328.146 261.46C328.146 260.72 328.786 260.22 330.006 260.22C331.246 260.22 331.986 260.88 332.066 261.84H334.346C334.226 259.64 332.586 258.3 330.086 258.3C327.486 258.3 325.846 259.72 325.846 261.48C325.846 265.52 332.246 264.28 332.246 266.44C332.246 267.2 331.546 267.76 330.226 267.76C328.966 267.76 328.106 267.02 328.026 266.12H325.666C325.766 268.12 327.626 269.68 330.266 269.68C332.866 269.68 334.486 268.28 334.486 266.42ZM341.589 260.22C343.289 260.22 344.629 261.3 344.669 263H338.569C338.809 261.26 340.049 260.22 341.589 260.22ZM346.749 266.22H344.289C343.869 267.08 343.089 267.76 341.689 267.76C340.009 267.76 338.709 266.66 338.549 264.84H346.969C347.029 264.46 347.049 264.1 347.049 263.72C347.049 260.48 344.829 258.3 341.689 258.3C338.429 258.3 336.189 260.52 336.189 263.98C336.189 267.44 338.529 269.68 341.689 269.68C344.389 269.68 346.129 268.14 346.749 266.22ZM348.533 263.98C348.533 267.44 350.773 269.68 353.933 269.68C356.633 269.68 358.393 268.18 359.013 266.02H356.553C356.133 267.16 355.293 267.76 353.933 267.76C352.093 267.76 350.873 266.4 350.873 263.98C350.873 261.58 352.093 260.22 353.933 260.22C355.293 260.22 356.173 260.9 356.553 261.96H359.013C358.393 259.64 356.633 258.3 353.933 258.3C350.773 258.3 348.533 260.54 348.533 263.98ZM371.265 258.48H368.985V264.62C368.985 266.64 367.885 267.68 366.205 267.68C364.545 267.68 363.445 266.64 363.445 264.62V258.48H361.185V264.96C361.185 268.04 363.145 269.66 365.725 269.66C367.025 269.66 368.265 269.12 368.985 268.18V269.5H371.265V258.48ZM376.553 263.7C376.553 261.36 377.593 260.66 379.273 260.66H379.853V258.3C378.293 258.3 377.193 258.98 376.553 260.08V258.48H374.273V269.5H376.553V263.7ZM381.949 269.5H384.229V258.48H381.949V269.5ZM383.109 257.02C383.909 257.02 384.549 256.38 384.549 255.56C384.549 254.74 383.909 254.1 383.109 254.1C382.289 254.1 381.649 254.74 381.649 255.56C381.649 256.38 382.289 257.02 383.109 257.02ZM387.583 266.44C387.583 268.68 388.803 269.5 390.763 269.5H392.563V267.6H391.163C390.203 267.6 389.883 267.26 389.883 266.44V260.34H392.563V258.48H389.883V255.74H387.583V258.48H386.283V260.34H387.583V266.44ZM399.004 266.88L395.904 258.48H393.364L397.704 269.32L395.464 274.68H397.824L404.584 258.48H402.224L399.004 266.88Z" fill="#212832"/>
<rect x="0.5" y="237.5" width="616" height="49" stroke="black" stroke-opacity="0.5"/>
</svg>
