<svg width="617" height="344" viewBox="0 0 617 344" fill="none" xmlns="http://www.w3.org/2000/svg">
<rect width="617" height="58" fill="#3498DB"/>
<path d="M33.925 32.95C33.925 26.8 24.975 28.75 24.975 25.25C24.975 23.825 26 23.15 27.375 23.2C28.875 23.225 29.8 24.125 29.875 25.275H33.725C33.5 22.125 31.05 20.3 27.475 20.3C23.875 20.3 21.325 22.2 21.325 25.35C21.3 31.675 30.3 29.4 30.3 33.175C30.3 34.425 29.325 35.3 27.675 35.3C26.05 35.3 25.125 34.375 25.025 32.975H21.275C21.325 36.275 24.125 38.175 27.75 38.175C31.725 38.175 33.925 35.7 33.925 32.95ZM43.4094 26.8C45.2094 26.8 46.6594 27.95 46.7094 29.775H40.1344C40.4094 27.875 41.7344 26.8 43.4094 26.8ZM49.9844 33.65H46.2094C45.7594 34.575 44.9344 35.325 43.4344 35.325C41.6844 35.325 40.2844 34.175 40.1094 32.125H50.2344C50.3094 31.675 50.3344 31.225 50.3344 30.775C50.3344 26.65 47.5094 23.925 43.5094 23.925C39.4094 23.925 36.5594 26.7 36.5594 31.075C36.5594 35.425 39.4844 38.225 43.5094 38.225C46.9344 38.225 49.2344 36.2 49.9844 33.65ZM72.7641 38H76.2641V29.875C76.2641 26.05 73.9141 23.95 70.5891 23.95C68.5641 23.95 66.7391 25.025 65.8391 26.6C64.8891 24.875 63.1141 23.95 60.9641 23.95C59.2391 23.95 57.7641 24.675 56.8891 25.825V24.15H53.3891V38H56.8891V30.35C56.8891 28.15 58.1141 27 60.0141 27C61.8641 27 63.0891 28.15 63.0891 30.35V38H66.5891V30.35C66.5891 28.15 67.8141 27 69.6891 27C71.5391 27 72.7641 28.15 72.7641 30.35V38ZM86.0354 26.8C87.8354 26.8 89.2854 27.95 89.3354 29.775H82.7604C83.0354 27.875 84.3604 26.8 86.0354 26.8ZM92.6104 33.65H88.8354C88.3854 34.575 87.5604 35.325 86.0604 35.325C84.3104 35.325 82.9104 34.175 82.7354 32.125H92.8604C92.9354 31.675 92.9604 31.225 92.9604 30.775C92.9604 26.65 90.1354 23.925 86.1354 23.925C82.0354 23.925 79.1854 26.7 79.1854 31.075C79.1854 35.425 82.1104 38.225 86.1354 38.225C89.5604 38.225 91.8604 36.2 92.6104 33.65ZM106.765 34.05C106.665 28.975 98.99 30.55 98.99 28.025C98.99 27.225 99.665 26.7 100.965 26.7C102.34 26.7 103.19 27.425 103.29 28.5H106.64C106.44 25.75 104.415 23.925 101.065 23.925C97.64 23.925 95.59 25.775 95.59 28.075C95.59 33.15 103.415 31.575 103.415 34.05C103.415 34.85 102.665 35.475 101.29 35.475C99.89 35.475 98.915 34.675 98.79 33.625H95.265C95.415 36.2 97.84 38.225 101.315 38.225C104.69 38.225 106.765 36.425 106.765 34.05ZM110.688 33.7C110.688 36.875 112.463 38 115.113 38H117.313V35.05H115.688C114.588 35.05 114.213 34.65 114.213 33.725V27.025H117.313V24.15H114.213V20.725H110.688V24.15H109.038V27.025H110.688V33.7ZM126.28 26.8C128.08 26.8 129.53 27.95 129.58 29.775H123.005C123.28 27.875 124.605 26.8 126.28 26.8ZM132.855 33.65H129.08C128.63 34.575 127.805 35.325 126.305 35.325C124.555 35.325 123.155 34.175 122.98 32.125H133.105C133.18 31.675 133.205 31.225 133.205 30.775C133.205 26.65 130.38 23.925 126.38 23.925C122.28 23.925 119.43 26.7 119.43 31.075C119.43 35.425 122.355 38.225 126.38 38.225C129.805 38.225 132.105 36.2 132.855 33.65ZM139.76 31.1C139.76 28.425 141.01 27.625 143.085 27.625H144.01V23.95C142.085 23.95 140.635 24.875 139.76 26.3V24.15H136.26V38H139.76V31.1ZM154.925 38H158.525V19.775H152.5V23H154.925V38Z" fill="white"/>
<rect y="66" width="617" height="50" fill="white"/>
<path d="M24.6 94.44C26.08 94.44 27.24 93.3 27.24 91.84C27.24 90.36 26.08 89.22 24.6 89.22C23.16 89.22 22 90.36 22 91.84C22 93.3 23.16 94.44 24.6 94.44ZM48.9689 94.52C48.9689 95.86 48.0289 96.64 46.4889 96.64H43.4089V92.3H46.4089C47.9289 92.3 48.9689 93.14 48.9689 94.52ZM48.6089 88.46C48.6089 89.74 47.7089 90.44 46.2289 90.44H43.4089V86.46H46.2289C47.7089 86.46 48.6089 87.2 48.6089 88.46ZM51.2489 94.76C51.2489 93.1 50.0489 91.62 48.5689 91.36C49.9089 90.88 50.9289 89.86 50.9289 88.18C50.9289 86.22 49.3689 84.6 46.4289 84.6H41.1289V98.5H46.6889C49.5289 98.5 51.2489 96.88 51.2489 94.76ZM52.9666 92.94C52.9666 96.34 55.2666 98.68 58.1266 98.68C59.9666 98.68 61.2866 97.8 61.9866 96.86V98.5H64.2866V87.48H61.9866V89.08C61.3066 88.18 60.0266 87.3 58.1666 87.3C55.2666 87.3 52.9666 89.54 52.9666 92.94ZM61.9866 92.98C61.9866 95.36 60.3666 96.7 58.6466 96.7C56.9466 96.7 55.3066 95.32 55.3066 92.94C55.3066 90.56 56.9466 89.28 58.6466 89.28C60.3666 89.28 61.9866 90.62 61.9866 92.98ZM75.5013 95.42C75.3813 91.44 69.1613 92.68 69.1613 90.46C69.1613 89.72 69.8013 89.22 71.0213 89.22C72.2613 89.22 73.0013 89.88 73.0813 90.84H75.3613C75.2413 88.64 73.6013 87.3 71.1013 87.3C68.5013 87.3 66.8613 88.72 66.8613 90.48C66.8613 94.52 73.2613 93.28 73.2613 95.44C73.2613 96.2 72.5613 96.76 71.2413 96.76C69.9813 96.76 69.1213 96.02 69.0413 95.12H66.6813C66.7813 97.12 68.6413 98.68 71.2813 98.68C73.8813 98.68 75.5013 97.28 75.5013 95.42ZM77.9648 98.5H80.2448V87.48H77.9648V98.5ZM79.1248 86.02C79.9248 86.02 80.5648 85.38 80.5648 84.56C80.5648 83.74 79.9248 83.1 79.1248 83.1C78.3048 83.1 77.6648 83.74 77.6648 84.56C77.6648 85.38 78.3048 86.02 79.1248 86.02ZM82.4783 92.98C82.4783 96.44 84.7183 98.68 87.8783 98.68C90.5783 98.68 92.3383 97.18 92.9583 95.02H90.4983C90.0783 96.16 89.2383 96.76 87.8783 96.76C86.0383 96.76 84.8183 95.4 84.8183 92.98C84.8183 90.58 86.0383 89.22 87.8783 89.22C89.2383 89.22 90.1183 89.9 90.4983 90.96H92.9583C92.3383 88.64 90.5783 87.3 87.8783 87.3C84.7183 87.3 82.4783 89.54 82.4783 92.98ZM100.426 98.5H102.706V88.98L106.966 98.5H108.546L112.786 88.98V98.5H115.066V84.6H112.626L107.766 95.5L102.886 84.6H100.426V98.5ZM117.303 92.94C117.303 96.34 119.603 98.68 122.463 98.68C124.303 98.68 125.623 97.8 126.323 96.86V98.5H128.623V87.48H126.323V89.08C125.643 88.18 124.363 87.3 122.503 87.3C119.603 87.3 117.303 89.54 117.303 92.94ZM126.323 92.98C126.323 95.36 124.703 96.7 122.983 96.7C121.283 96.7 119.643 95.32 119.643 92.94C119.643 90.56 121.283 89.28 122.983 89.28C124.703 89.28 126.323 90.62 126.323 92.98ZM131.977 95.44C131.977 97.68 133.197 98.5 135.157 98.5H136.957V96.6H135.557C134.597 96.6 134.277 96.26 134.277 95.44V89.34H136.957V87.48H134.277V84.74H131.977V87.48H130.677V89.34H131.977V95.44ZM139.059 98.5H141.339V92.34C141.339 90.32 142.439 89.28 144.119 89.28C145.779 89.28 146.879 90.32 146.879 92.34V98.5H149.139V92C149.139 88.92 147.219 87.3 144.759 87.3C143.339 87.3 142.099 87.84 141.339 88.76V83.7H139.059V98.5ZM156.687 89.22C158.387 89.22 159.727 90.3 159.767 92H153.667C153.907 90.26 155.147 89.22 156.687 89.22ZM161.847 95.22H159.387C158.967 96.08 158.187 96.76 156.787 96.76C155.107 96.76 153.807 95.66 153.647 93.84H162.067C162.127 93.46 162.147 93.1 162.147 92.72C162.147 89.48 159.927 87.3 156.787 87.3C153.527 87.3 151.287 89.52 151.287 92.98C151.287 96.44 153.627 98.68 156.787 98.68C159.487 98.68 161.227 97.14 161.847 95.22ZM180.011 98.5H182.271V92C182.271 88.92 180.311 87.3 177.731 87.3C176.131 87.3 174.571 88.14 173.891 89.48C173.131 88.04 171.671 87.3 169.931 87.3C168.611 87.3 167.411 87.84 166.671 88.74V87.48H164.391V98.5H166.671V92.34C166.671 90.32 167.771 89.28 169.451 89.28C171.111 89.28 172.211 90.32 172.211 92.34V98.5H174.471V92.34C174.471 90.32 175.571 89.28 177.251 89.28C178.911 89.28 180.011 90.32 180.011 92.34V98.5ZM184.412 92.94C184.412 96.34 186.712 98.68 189.572 98.68C191.412 98.68 192.732 97.8 193.432 96.86V98.5H195.732V87.48H193.432V89.08C192.752 88.18 191.472 87.3 189.612 87.3C186.712 87.3 184.412 89.54 184.412 92.94ZM193.432 92.98C193.432 95.36 191.812 96.7 190.092 96.7C188.392 96.7 186.752 95.32 186.752 92.94C186.752 90.56 188.392 89.28 190.092 89.28C191.812 89.28 193.432 90.62 193.432 92.98ZM199.087 95.44C199.087 97.68 200.307 98.5 202.267 98.5H204.067V96.6H202.667C201.707 96.6 201.387 96.26 201.387 95.44V89.34H204.067V87.48H201.387V84.74H199.087V87.48H197.787V89.34H199.087V95.44ZM206.168 98.5H208.448V87.48H206.168V98.5ZM207.328 86.02C208.128 86.02 208.768 85.38 208.768 84.56C208.768 83.74 208.128 83.1 207.328 83.1C206.508 83.1 205.868 83.74 205.868 84.56C205.868 85.38 206.508 86.02 207.328 86.02ZM210.681 92.98C210.681 96.44 212.921 98.68 216.081 98.68C218.781 98.68 220.541 97.18 221.161 95.02H218.701C218.281 96.16 217.441 96.76 216.081 96.76C214.241 96.76 213.021 95.4 213.021 92.98C213.021 90.58 214.241 89.22 216.081 89.22C217.441 89.22 218.321 89.9 218.701 90.96H221.161C220.541 88.64 218.781 87.3 216.081 87.3C212.921 87.3 210.681 89.54 210.681 92.98ZM231.654 95.42C231.534 91.44 225.314 92.68 225.314 90.46C225.314 89.72 225.954 89.22 227.174 89.22C228.414 89.22 229.154 89.88 229.234 90.84H231.514C231.394 88.64 229.754 87.3 227.254 87.3C224.654 87.3 223.014 88.72 223.014 90.48C223.014 94.52 229.414 93.28 229.414 95.44C229.414 96.2 228.714 96.76 227.394 96.76C226.134 96.76 225.274 96.02 225.194 95.12H222.834C222.934 97.12 224.794 98.68 227.434 98.68C230.034 98.68 231.654 97.28 231.654 95.42ZM234.357 92.22H242.577V90.3H234.357V92.22ZM251.012 98.5H253.292V84.6H251.012V98.5Z" fill="#212832"/>
<rect x="0.5" y="66.5" width="616" height="49" stroke="black" stroke-opacity="0.5"/>
<rect y="180" width="617" height="50" fill="white"/>
<path d="M24.6 208.44C26.08 208.44 27.24 207.3 27.24 205.84C27.24 204.36 26.08 203.22 24.6 203.22C23.16 203.22 22 204.36 22 205.84C22 207.3 23.16 208.44 24.6 208.44ZM40.3689 205.52C40.3689 209.7 43.5489 212.62 47.4689 212.62C50.3689 212.62 52.8689 211.18 53.9289 208.46H51.1889C50.4489 209.94 49.1289 210.64 47.4689 210.64C44.7089 210.64 42.7089 208.66 42.7089 205.52C42.7089 202.38 44.7089 200.42 47.4689 200.42C49.1289 200.42 50.4489 201.12 51.1889 202.6H53.9289C52.8689 199.88 50.3689 198.42 47.4689 198.42C43.5489 198.42 40.3689 201.36 40.3689 205.52ZM67.0977 206.98C67.0977 203.52 64.6177 201.3 61.4777 201.3C58.3377 201.3 55.8577 203.52 55.8577 206.98C55.8577 210.44 58.2377 212.68 61.3777 212.68C64.5377 212.68 67.0977 210.44 67.0977 206.98ZM58.1777 206.98C58.1777 204.48 59.7177 203.28 61.4377 203.28C63.1377 203.28 64.7577 204.48 64.7577 206.98C64.7577 209.48 63.0777 210.7 61.3777 210.7C59.6577 210.7 58.1777 209.48 58.1777 206.98ZM84.9716 212.5H87.2316V206C87.2316 202.92 85.2716 201.3 82.6916 201.3C81.0916 201.3 79.5316 202.14 78.8516 203.48C78.0916 202.04 76.6316 201.3 74.8916 201.3C73.5716 201.3 72.3716 201.84 71.6316 202.74V201.48H69.3516V212.5H71.6316V206.34C71.6316 204.32 72.7316 203.28 74.4116 203.28C76.0716 203.28 77.1716 204.32 77.1716 206.34V212.5H79.4316V206.34C79.4316 204.32 80.5316 203.28 82.2116 203.28C83.8716 203.28 84.9716 204.32 84.9716 206.34V212.5ZM92.4128 203.1V201.48H90.1328V217.74H92.4128V210.9C93.1328 211.76 94.4328 212.68 96.2528 212.68C99.1528 212.68 101.433 210.34 101.433 206.94C101.433 203.54 99.1528 201.3 96.2528 201.3C94.4528 201.3 93.1128 202.18 92.4128 203.1ZM99.1128 206.94C99.1128 209.32 97.4728 210.7 95.7528 210.7C94.0528 210.7 92.4128 209.36 92.4128 206.98C92.4128 204.62 94.0528 203.28 95.7528 203.28C97.4728 203.28 99.1128 204.56 99.1128 206.94ZM113.668 201.48H111.388V207.62C111.388 209.64 110.288 210.68 108.608 210.68C106.948 210.68 105.848 209.64 105.848 207.62V201.48H103.588V207.96C103.588 211.04 105.548 212.66 108.128 212.66C109.428 212.66 110.668 212.12 111.388 211.18V212.5H113.668V201.48ZM117.036 209.44C117.036 211.68 118.256 212.5 120.216 212.5H122.016V210.6H120.616C119.656 210.6 119.336 210.26 119.336 209.44V203.34H122.016V201.48H119.336V198.74H117.036V201.48H115.736V203.34H117.036V209.44ZM128.757 203.22C130.457 203.22 131.797 204.3 131.837 206H125.737C125.977 204.26 127.217 203.22 128.757 203.22ZM133.917 209.22H131.457C131.037 210.08 130.257 210.76 128.857 210.76C127.177 210.76 125.877 209.66 125.717 207.84H134.137C134.197 207.46 134.217 207.1 134.217 206.72C134.217 203.48 131.997 201.3 128.857 201.3C125.597 201.3 123.357 203.52 123.357 206.98C123.357 210.44 125.697 212.68 128.857 212.68C131.557 212.68 133.297 211.14 133.917 209.22ZM138.741 206.7C138.741 204.36 139.781 203.66 141.461 203.66H142.041V201.3C140.481 201.3 139.381 201.98 138.741 203.08V201.48H136.461V212.5H138.741V206.7ZM148.572 206.94C148.572 210.34 150.872 212.68 153.732 212.68C155.572 212.68 156.892 211.8 157.592 210.86V212.5H159.892V201.48H157.592V203.08C156.912 202.18 155.632 201.3 153.772 201.3C150.872 201.3 148.572 203.54 148.572 206.94ZM157.592 206.98C157.592 209.36 155.972 210.7 154.252 210.7C152.552 210.7 150.912 209.32 150.912 206.94C150.912 204.56 152.552 203.28 154.252 203.28C155.972 203.28 157.592 204.62 157.592 206.98ZM170.707 212.5H172.967V206C172.967 202.92 171.027 201.3 168.447 201.3C167.127 201.3 165.907 201.84 165.167 202.74V201.48H162.887V212.5H165.167V206.34C165.167 204.32 166.267 203.28 167.947 203.28C169.607 203.28 170.707 204.32 170.707 206.34V212.5ZM175.115 206.94C175.115 210.34 177.415 212.68 180.315 212.68C182.115 212.68 183.435 211.84 184.135 210.84V212.5H186.435V197.7H184.135V203.02C183.295 201.98 181.775 201.3 180.335 201.3C177.415 201.3 175.115 203.54 175.115 206.94ZM184.135 206.98C184.135 209.36 182.515 210.7 180.795 210.7C179.095 210.7 177.455 209.32 177.455 206.94C177.455 204.56 179.095 203.28 180.795 203.28C182.515 203.28 184.135 204.62 184.135 206.98ZM194.625 212.5H196.905V198.6H194.625V212.5ZM207.718 212.5H209.978V206C209.978 202.92 208.038 201.3 205.458 201.3C204.138 201.3 202.918 201.84 202.178 202.74V201.48H199.898V212.5H202.178V206.34C202.178 204.32 203.278 203.28 204.958 203.28C206.618 203.28 207.718 204.32 207.718 206.34V212.5ZM213.167 212.5H215.467V203.34H217.507V201.48H215.467V200.7C215.467 199.44 215.947 198.96 217.347 198.96V197.06C214.467 197.06 213.167 198.16 213.167 200.7V201.48H211.867V203.34H213.167V212.5ZM230.027 206.98C230.027 203.52 227.547 201.3 224.407 201.3C221.267 201.3 218.787 203.52 218.787 206.98C218.787 210.44 221.167 212.68 224.307 212.68C227.467 212.68 230.027 210.44 230.027 206.98ZM221.107 206.98C221.107 204.48 222.647 203.28 224.367 203.28C226.067 203.28 227.687 204.48 227.687 206.98C227.687 209.48 226.007 210.7 224.307 210.7C222.587 210.7 221.107 209.48 221.107 206.98ZM234.561 206.7C234.561 204.36 235.601 203.66 237.281 203.66H237.861V201.3C236.301 201.3 235.201 201.98 234.561 203.08V201.48H232.281V212.5H234.561V206.7ZM255.577 212.5H257.837V206C257.837 202.92 255.877 201.3 253.297 201.3C251.697 201.3 250.137 202.14 249.457 203.48C248.697 202.04 247.237 201.3 245.497 201.3C244.177 201.3 242.977 201.84 242.237 202.74V201.48H239.957V212.5H242.237V206.34C242.237 204.32 243.337 203.28 245.017 203.28C246.677 203.28 247.777 204.32 247.777 206.34V212.5H250.037V206.34C250.037 204.32 251.137 203.28 252.817 203.28C254.477 203.28 255.577 204.32 255.577 206.34V212.5ZM259.978 206.94C259.978 210.34 262.278 212.68 265.138 212.68C266.978 212.68 268.298 211.8 268.998 210.86V212.5H271.298V201.48H268.998V203.08C268.318 202.18 267.038 201.3 265.178 201.3C262.278 201.3 259.978 203.54 259.978 206.94ZM268.998 206.98C268.998 209.36 267.378 210.7 265.658 210.7C263.958 210.7 262.318 209.32 262.318 206.94C262.318 204.56 263.958 203.28 265.658 203.28C267.378 203.28 268.998 204.62 268.998 206.98ZM274.653 209.44C274.653 211.68 275.873 212.5 277.833 212.5H279.633V210.6H278.233C277.273 210.6 276.953 210.26 276.953 209.44V203.34H279.633V201.48H276.953V198.74H274.653V201.48H273.353V203.34H274.653V209.44ZM281.734 212.5H284.014V201.48H281.734V212.5ZM282.894 200.02C283.694 200.02 284.334 199.38 284.334 198.56C284.334 197.74 283.694 197.1 282.894 197.1C282.074 197.1 281.434 197.74 281.434 198.56C281.434 199.38 282.074 200.02 282.894 200.02ZM297.508 206.98C297.508 203.52 295.028 201.3 291.888 201.3C288.748 201.3 286.268 203.52 286.268 206.98C286.268 210.44 288.648 212.68 291.788 212.68C294.948 212.68 297.508 210.44 297.508 206.98ZM288.588 206.98C288.588 204.48 290.128 203.28 291.848 203.28C293.548 203.28 295.168 204.48 295.168 206.98C295.168 209.48 293.488 210.7 291.788 210.7C290.068 210.7 288.588 209.48 288.588 206.98ZM307.582 212.5H309.842V206C309.842 202.92 307.902 201.3 305.322 201.3C304.002 201.3 302.782 201.84 302.042 202.74V201.48H299.762V212.5H302.042V206.34C302.042 204.32 303.142 203.28 304.822 203.28C306.482 203.28 307.582 204.32 307.582 206.34V212.5ZM317.225 200.46H320.945V212.5H323.225V200.46H326.925V198.6H317.225V200.46ZM333.874 203.22C335.574 203.22 336.914 204.3 336.954 206H330.854C331.094 204.26 332.334 203.22 333.874 203.22ZM339.034 209.22H336.574C336.154 210.08 335.374 210.76 333.974 210.76C332.294 210.76 330.994 209.66 330.834 207.84H339.254C339.314 207.46 339.334 207.1 339.334 206.72C339.334 203.48 337.114 201.3 333.974 201.3C330.714 201.3 328.474 203.52 328.474 206.98C328.474 210.44 330.814 212.68 333.974 212.68C336.674 212.68 338.414 211.14 339.034 209.22ZM340.818 206.98C340.818 210.44 343.058 212.68 346.218 212.68C348.918 212.68 350.678 211.18 351.298 209.02H348.838C348.418 210.16 347.578 210.76 346.218 210.76C344.378 210.76 343.158 209.4 343.158 206.98C343.158 204.58 344.378 203.22 346.218 203.22C347.578 203.22 348.458 203.9 348.838 204.96H351.298C350.678 202.64 348.918 201.3 346.218 201.3C343.058 201.3 340.818 203.54 340.818 206.98ZM353.57 212.5H355.85V206.34C355.85 204.32 356.95 203.28 358.63 203.28C360.29 203.28 361.39 204.32 361.39 206.34V212.5H363.65V206C363.65 202.92 361.73 201.3 359.27 201.3C357.85 201.3 356.61 201.84 355.85 202.76V197.7H353.57V212.5ZM374.379 212.5H376.639V206C376.639 202.92 374.699 201.3 372.119 201.3C370.799 201.3 369.579 201.84 368.839 202.74V201.48H366.559V212.5H368.839V206.34C368.839 204.32 369.939 203.28 371.619 203.28C373.279 203.28 374.379 204.32 374.379 206.34V212.5ZM390.047 206.98C390.047 203.52 387.567 201.3 384.427 201.3C381.287 201.3 378.807 203.52 378.807 206.98C378.807 210.44 381.187 212.68 384.327 212.68C387.487 212.68 390.047 210.44 390.047 206.98ZM381.127 206.98C381.127 204.48 382.667 203.28 384.387 203.28C386.087 203.28 387.707 204.48 387.707 206.98C387.707 209.48 386.027 210.7 384.327 210.7C382.607 210.7 381.127 209.48 381.127 206.98ZM392.301 212.5H394.581V197.7H392.301V212.5ZM408.074 206.98C408.074 203.52 405.594 201.3 402.454 201.3C399.314 201.3 396.834 203.52 396.834 206.98C396.834 210.44 399.214 212.68 402.354 212.68C405.514 212.68 408.074 210.44 408.074 206.98ZM399.154 206.98C399.154 204.48 400.694 203.28 402.414 203.28C404.114 203.28 405.734 204.48 405.734 206.98C405.734 209.48 404.054 210.7 402.354 210.7C400.634 210.7 399.154 209.48 399.154 206.98ZM409.568 206.94C409.568 210.34 411.868 212.68 414.768 212.68C416.568 212.68 417.888 211.78 418.588 210.84V212.68C418.588 214.88 417.268 215.96 415.508 215.96C413.928 215.96 412.708 215.18 412.368 214.04H410.108C410.388 216.48 412.568 217.94 415.508 217.94C418.948 217.94 420.888 215.68 420.888 212.68V201.48H418.588V203.08C417.908 202.14 416.568 201.3 414.768 201.3C411.868 201.3 409.568 203.54 409.568 206.94ZM418.588 206.98C418.588 209.36 416.968 210.7 415.248 210.7C413.548 210.7 411.908 209.32 411.908 206.94C411.908 204.56 413.548 203.28 415.248 203.28C416.968 203.28 418.588 204.62 418.588 206.98ZM428.223 209.88L425.123 201.48H422.583L426.923 212.32L424.683 217.68H427.043L433.803 201.48H431.443L428.223 209.88Z" fill="#212832"/>
<rect x="0.5" y="180.5" width="616" height="49" stroke="black" stroke-opacity="0.5"/>
<rect y="123" width="617" height="50" fill="white"/>
<path d="M24.6 151.44C26.08 151.44 27.24 150.3 27.24 148.84C27.24 147.36 26.08 146.22 24.6 146.22C23.16 146.22 22 147.36 22 148.84C22 150.3 23.16 151.44 24.6 151.44ZM48.9689 151.52C48.9689 152.86 48.0289 153.64 46.4889 153.64H43.4089V149.3H46.4089C47.9289 149.3 48.9689 150.14 48.9689 151.52ZM48.6089 145.46C48.6089 146.74 47.7089 147.44 46.2289 147.44H43.4089V143.46H46.2289C47.7089 143.46 48.6089 144.2 48.6089 145.46ZM51.2489 151.76C51.2489 150.1 50.0489 148.62 48.5689 148.36C49.9089 147.88 50.9289 146.86 50.9289 145.18C50.9289 143.22 49.3689 141.6 46.4289 141.6H41.1289V155.5H46.6889C49.5289 155.5 51.2489 153.88 51.2489 151.76ZM63.7066 144.48H61.4266V150.62C61.4266 152.64 60.3266 153.68 58.6466 153.68C56.9866 153.68 55.8866 152.64 55.8866 150.62V144.48H53.6266V150.96C53.6266 154.04 55.5866 155.66 58.1666 155.66C59.4666 155.66 60.7066 155.12 61.4266 154.18V155.5H63.7066V144.48ZM74.9348 152.42C74.8148 148.44 68.5948 149.68 68.5948 147.46C68.5948 146.72 69.2348 146.22 70.4548 146.22C71.6948 146.22 72.4348 146.88 72.5148 147.84H74.7948C74.6748 145.64 73.0348 144.3 70.5348 144.3C67.9348 144.3 66.2948 145.72 66.2948 147.48C66.2948 151.52 72.6948 150.28 72.6948 152.44C72.6948 153.2 71.9948 153.76 70.6748 153.76C69.4148 153.76 68.5548 153.02 68.4748 152.12H66.1148C66.2148 154.12 68.0748 155.68 70.7148 155.68C73.3148 155.68 74.9348 154.28 74.9348 152.42ZM77.3984 155.5H79.6784V144.48H77.3984V155.5ZM78.5584 143.02C79.3584 143.02 79.9984 142.38 79.9984 141.56C79.9984 140.74 79.3584 140.1 78.5584 140.1C77.7384 140.1 77.0984 140.74 77.0984 141.56C77.0984 142.38 77.7384 143.02 78.5584 143.02ZM90.4919 155.5H92.7519V149C92.7519 145.92 90.8119 144.3 88.2319 144.3C86.9119 144.3 85.6919 144.84 84.9519 145.74V144.48H82.6719V155.5H84.9519V149.34C84.9519 147.32 86.0519 146.28 87.7319 146.28C89.3919 146.28 90.4919 147.32 90.4919 149.34V155.5ZM100.3 146.22C102 146.22 103.34 147.3 103.38 149H97.2802C97.5202 147.26 98.7602 146.22 100.3 146.22ZM105.46 152.22H103C102.58 153.08 101.8 153.76 100.4 153.76C98.7202 153.76 97.4202 152.66 97.2602 150.84H105.68C105.74 150.46 105.76 150.1 105.76 149.72C105.76 146.48 103.54 144.3 100.4 144.3C97.1402 144.3 94.9002 146.52 94.9002 149.98C94.9002 153.44 97.2402 155.68 100.4 155.68C103.1 155.68 104.84 154.14 105.46 152.22ZM116.224 152.42C116.104 148.44 109.884 149.68 109.884 147.46C109.884 146.72 110.524 146.22 111.744 146.22C112.984 146.22 113.724 146.88 113.804 147.84H116.084C115.964 145.64 114.324 144.3 111.824 144.3C109.224 144.3 107.584 145.72 107.584 147.48C107.584 151.52 113.984 150.28 113.984 152.44C113.984 153.2 113.284 153.76 111.964 153.76C110.704 153.76 109.844 153.02 109.764 152.12H107.404C107.504 154.12 109.364 155.68 112.004 155.68C114.604 155.68 116.224 154.28 116.224 152.42ZM126.908 152.42C126.788 148.44 120.568 149.68 120.568 147.46C120.568 146.72 121.208 146.22 122.428 146.22C123.668 146.22 124.408 146.88 124.488 147.84H126.768C126.648 145.64 125.008 144.3 122.508 144.3C119.908 144.3 118.268 145.72 118.268 147.48C118.268 151.52 124.668 150.28 124.668 152.44C124.668 153.2 123.968 153.76 122.648 153.76C121.388 153.76 120.528 153.02 120.448 152.12H118.088C118.188 154.12 120.048 155.68 122.688 155.68C125.288 155.68 126.908 154.28 126.908 152.42ZM133.806 148.52C133.806 152.7 136.986 155.62 140.906 155.62C143.806 155.62 146.306 154.18 147.366 151.46H144.626C143.886 152.94 142.566 153.64 140.906 153.64C138.146 153.64 136.146 151.66 136.146 148.52C136.146 145.38 138.146 143.42 140.906 143.42C142.566 143.42 143.886 144.12 144.626 145.6H147.366C146.306 142.88 143.806 141.42 140.906 141.42C136.986 141.42 133.806 144.36 133.806 148.52ZM160.535 149.98C160.535 146.52 158.055 144.3 154.915 144.3C151.775 144.3 149.295 146.52 149.295 149.98C149.295 153.44 151.675 155.68 154.815 155.68C157.975 155.68 160.535 153.44 160.535 149.98ZM151.615 149.98C151.615 147.48 153.155 146.28 154.875 146.28C156.575 146.28 158.195 147.48 158.195 149.98C158.195 152.48 156.515 153.7 154.815 153.7C153.095 153.7 151.615 152.48 151.615 149.98ZM178.409 155.5H180.669V149C180.669 145.92 178.709 144.3 176.129 144.3C174.529 144.3 172.969 145.14 172.289 146.48C171.529 145.04 170.069 144.3 168.329 144.3C167.009 144.3 165.809 144.84 165.069 145.74V144.48H162.789V155.5H165.069V149.34C165.069 147.32 166.169 146.28 167.849 146.28C169.509 146.28 170.609 147.32 170.609 149.34V155.5H172.869V149.34C172.869 147.32 173.969 146.28 175.649 146.28C177.309 146.28 178.409 147.32 178.409 149.34V155.5ZM199.19 155.5H201.45V149C201.45 145.92 199.49 144.3 196.91 144.3C195.31 144.3 193.75 145.14 193.07 146.48C192.31 145.04 190.85 144.3 189.11 144.3C187.79 144.3 186.59 144.84 185.85 145.74V144.48H183.57V155.5H185.85V149.34C185.85 147.32 186.95 146.28 188.63 146.28C190.29 146.28 191.39 147.32 191.39 149.34V155.5H193.65V149.34C193.65 147.32 194.75 146.28 196.43 146.28C198.09 146.28 199.19 147.32 199.19 149.34V155.5ZM214.332 144.48H212.052V150.62C212.052 152.64 210.952 153.68 209.272 153.68C207.612 153.68 206.512 152.64 206.512 150.62V144.48H204.252V150.96C204.252 154.04 206.212 155.66 208.792 155.66C210.092 155.66 211.332 155.12 212.052 154.18V155.5H214.332V144.48ZM225.16 155.5H227.42V149C227.42 145.92 225.48 144.3 222.9 144.3C221.58 144.3 220.36 144.84 219.62 145.74V144.48H217.34V155.5H219.62V149.34C219.62 147.32 220.72 146.28 222.4 146.28C224.06 146.28 225.16 147.32 225.16 149.34V155.5ZM230.328 155.5H232.608V144.48H230.328V155.5ZM231.488 143.02C232.288 143.02 232.928 142.38 232.928 141.56C232.928 140.74 232.288 140.1 231.488 140.1C230.668 140.1 230.028 140.74 230.028 141.56C230.028 142.38 230.668 143.02 231.488 143.02ZM234.842 149.98C234.842 153.44 237.082 155.68 240.242 155.68C242.942 155.68 244.702 154.18 245.322 152.02H242.862C242.442 153.16 241.602 153.76 240.242 153.76C238.402 153.76 237.182 152.4 237.182 149.98C237.182 147.58 238.402 146.22 240.242 146.22C241.602 146.22 242.482 146.9 242.862 147.96H245.322C244.702 145.64 242.942 144.3 240.242 144.3C237.082 144.3 234.842 146.54 234.842 149.98ZM246.834 149.94C246.834 153.34 249.134 155.68 251.994 155.68C253.834 155.68 255.154 154.8 255.854 153.86V155.5H258.154V144.48H255.854V146.08C255.174 145.18 253.894 144.3 252.034 144.3C249.134 144.3 246.834 146.54 246.834 149.94ZM255.854 149.98C255.854 152.36 254.234 153.7 252.514 153.7C250.814 153.7 249.174 152.32 249.174 149.94C249.174 147.56 250.814 146.28 252.514 146.28C254.234 146.28 255.854 147.62 255.854 149.98ZM261.508 152.44C261.508 154.68 262.728 155.5 264.688 155.5H266.488V153.6H265.088C264.128 153.6 263.808 153.26 263.808 152.44V146.34H266.488V144.48H263.808V141.74H261.508V144.48H260.208V146.34H261.508V152.44ZM268.59 155.5H270.87V144.48H268.59V155.5ZM269.75 143.02C270.55 143.02 271.19 142.38 271.19 141.56C271.19 140.74 270.55 140.1 269.75 140.1C268.93 140.1 268.29 140.74 268.29 141.56C268.29 142.38 268.93 143.02 269.75 143.02ZM284.363 149.98C284.363 146.52 281.883 144.3 278.743 144.3C275.603 144.3 273.123 146.52 273.123 149.98C273.123 153.44 275.503 155.68 278.643 155.68C281.803 155.68 284.363 153.44 284.363 149.98ZM275.443 149.98C275.443 147.48 276.983 146.28 278.703 146.28C280.403 146.28 282.023 147.48 282.023 149.98C282.023 152.48 280.343 153.7 278.643 153.7C276.923 153.7 275.443 152.48 275.443 149.98ZM294.437 155.5H296.697V149C296.697 145.92 294.757 144.3 292.177 144.3C290.857 144.3 289.637 144.84 288.897 145.74V144.48H286.617V155.5H288.897V149.34C288.897 147.32 289.997 146.28 291.677 146.28C293.337 146.28 294.437 147.32 294.437 149.34V155.5Z" fill="#212832"/>
<rect x="0.5" y="123.5" width="616" height="49" stroke="black" stroke-opacity="0.5"/>
<rect y="237" width="617" height="50" fill="white"/>
<path d="M24.6 265.44C26.08 265.44 27.24 264.3 27.24 262.84C27.24 261.36 26.08 260.22 24.6 260.22C23.16 260.22 22 261.36 22 262.84C22 264.3 23.16 265.44 24.6 265.44ZM49.9489 269.5H52.2289V255.6H49.9489V261.56H43.4089V255.6H41.1289V269.5H43.4089V263.42H49.9489V269.5ZM65.2105 258.48H62.9305V264.62C62.9305 266.64 61.8305 267.68 60.1505 267.68C58.4905 267.68 57.3905 266.64 57.3905 264.62V258.48H55.1305V264.96C55.1305 268.04 57.0905 269.66 59.6705 269.66C60.9705 269.66 62.2105 269.12 62.9305 268.18V269.5H65.2105V258.48ZM83.8388 269.5H86.0988V263C86.0988 259.92 84.1388 258.3 81.5588 258.3C79.9588 258.3 78.3988 259.14 77.7188 260.48C76.9588 259.04 75.4988 258.3 73.7588 258.3C72.4388 258.3 71.2388 258.84 70.4988 259.74V258.48H68.2188V269.5H70.4988V263.34C70.4988 261.32 71.5988 260.28 73.2788 260.28C74.9388 260.28 76.0388 261.32 76.0388 263.34V269.5H78.2988V263.34C78.2988 261.32 79.3988 260.28 81.0788 260.28C82.7388 260.28 83.8388 261.32 83.8388 263.34V269.5ZM88.24 263.94C88.24 267.34 90.54 269.68 93.4 269.68C95.24 269.68 96.56 268.8 97.26 267.86V269.5H99.56V258.48H97.26V260.08C96.58 259.18 95.3 258.3 93.44 258.3C90.54 258.3 88.24 260.54 88.24 263.94ZM97.26 263.98C97.26 266.36 95.64 267.7 93.92 267.7C92.22 267.7 90.58 266.32 90.58 263.94C90.58 261.56 92.22 260.28 93.92 260.28C95.64 260.28 97.26 261.62 97.26 263.98ZM110.375 269.5H112.635V263C112.635 259.92 110.695 258.3 108.115 258.3C106.795 258.3 105.575 258.84 104.835 259.74V258.48H102.555V269.5H104.835V263.34C104.835 261.32 105.935 260.28 107.615 260.28C109.275 260.28 110.375 261.32 110.375 263.34V269.5ZM119.978 262.52C119.978 266.7 123.158 269.62 127.078 269.62C129.978 269.62 132.478 268.18 133.538 265.46H130.798C130.058 266.94 128.738 267.64 127.078 267.64C124.318 267.64 122.318 265.66 122.318 262.52C122.318 259.38 124.318 257.42 127.078 257.42C128.738 257.42 130.058 258.12 130.798 259.6H133.538C132.478 256.88 129.978 255.42 127.078 255.42C123.158 255.42 119.978 258.36 119.978 262.52ZM146.707 263.98C146.707 260.52 144.227 258.3 141.087 258.3C137.947 258.3 135.467 260.52 135.467 263.98C135.467 267.44 137.847 269.68 140.987 269.68C144.147 269.68 146.707 267.44 146.707 263.98ZM137.787 263.98C137.787 261.48 139.327 260.28 141.047 260.28C142.747 260.28 144.367 261.48 144.367 263.98C144.367 266.48 142.687 267.7 140.987 267.7C139.267 267.7 137.787 266.48 137.787 263.98ZM164.581 269.5H166.841V263C166.841 259.92 164.881 258.3 162.301 258.3C160.701 258.3 159.141 259.14 158.461 260.48C157.701 259.04 156.241 258.3 154.501 258.3C153.181 258.3 151.981 258.84 151.241 259.74V258.48H148.961V269.5H151.241V263.34C151.241 261.32 152.341 260.28 154.021 260.28C155.681 260.28 156.781 261.32 156.781 263.34V269.5H159.041V263.34C159.041 261.32 160.141 260.28 161.821 260.28C163.481 260.28 164.581 261.32 164.581 263.34V269.5ZM172.022 260.1V258.48H169.742V274.74H172.022V267.9C172.742 268.76 174.042 269.68 175.862 269.68C178.762 269.68 181.042 267.34 181.042 263.94C181.042 260.54 178.762 258.3 175.862 258.3C174.062 258.3 172.722 259.18 172.022 260.1ZM178.722 263.94C178.722 266.32 177.082 267.7 175.362 267.7C173.662 267.7 172.022 266.36 172.022 263.98C172.022 261.62 173.662 260.28 175.362 260.28C177.082 260.28 178.722 261.56 178.722 263.94ZM193.277 258.48H190.997V264.62C190.997 266.64 189.897 267.68 188.217 267.68C186.557 267.68 185.457 266.64 185.457 264.62V258.48H183.197V264.96C183.197 268.04 185.157 269.66 187.737 269.66C189.037 269.66 190.277 269.12 190.997 268.18V269.5H193.277V258.48ZM196.645 266.44C196.645 268.68 197.865 269.5 199.825 269.5H201.625V267.6H200.225C199.265 267.6 198.945 267.26 198.945 266.44V260.34H201.625V258.48H198.945V255.74H196.645V258.48H195.345V260.34H196.645V266.44ZM208.367 260.22C210.067 260.22 211.407 261.3 211.447 263H205.347C205.587 261.26 206.827 260.22 208.367 260.22ZM213.527 266.22H211.067C210.647 267.08 209.867 267.76 208.467 267.76C206.787 267.76 205.487 266.66 205.327 264.84H213.747C213.807 264.46 213.827 264.1 213.827 263.72C213.827 260.48 211.607 258.3 208.467 258.3C205.207 258.3 202.967 260.52 202.967 263.98C202.967 267.44 205.307 269.68 208.467 269.68C211.167 269.68 212.907 268.14 213.527 266.22ZM218.35 263.7C218.35 261.36 219.39 260.66 221.07 260.66H221.65V258.3C220.09 258.3 218.99 258.98 218.35 260.08V258.48H216.07V269.5H218.35V263.7ZM228.941 269.5H231.221V255.6H228.941V269.5ZM242.035 269.5H244.295V263C244.295 259.92 242.355 258.3 239.775 258.3C238.455 258.3 237.235 258.84 236.495 259.74V258.48H234.215V269.5H236.495V263.34C236.495 261.32 237.595 260.28 239.275 260.28C240.935 260.28 242.035 261.32 242.035 263.34V269.5ZM247.563 266.44C247.563 268.68 248.783 269.5 250.743 269.5H252.543V267.6H251.143C250.183 267.6 249.863 267.26 249.863 266.44V260.34H252.543V258.48H249.863V255.74H247.563V258.48H246.263V260.34H247.563V266.44ZM259.285 260.22C260.985 260.22 262.325 261.3 262.365 263H256.265C256.505 261.26 257.745 260.22 259.285 260.22ZM264.445 266.22H261.985C261.565 267.08 260.785 267.76 259.385 267.76C257.705 267.76 256.405 266.66 256.245 264.84H264.665C264.725 264.46 264.745 264.1 264.745 263.72C264.745 260.48 262.525 258.3 259.385 258.3C256.125 258.3 253.885 260.52 253.885 263.98C253.885 267.44 256.225 269.68 259.385 269.68C262.085 269.68 263.825 268.14 264.445 266.22ZM269.268 263.7C269.268 261.36 270.308 260.66 271.988 260.66H272.568V258.3C271.008 258.3 269.908 258.98 269.268 260.08V258.48H266.988V269.5H269.268V263.7ZM273.904 263.94C273.904 267.34 276.204 269.68 279.064 269.68C280.904 269.68 282.224 268.8 282.924 267.86V269.5H285.224V258.48H282.924V260.08C282.244 259.18 280.964 258.3 279.104 258.3C276.204 258.3 273.904 260.54 273.904 263.94ZM282.924 263.98C282.924 266.36 281.304 267.7 279.584 267.7C277.884 267.7 276.244 266.32 276.244 263.94C276.244 261.56 277.884 260.28 279.584 260.28C281.304 260.28 282.924 261.62 282.924 263.98ZM287.459 263.98C287.459 267.44 289.699 269.68 292.859 269.68C295.559 269.68 297.319 268.18 297.939 266.02H295.479C295.059 267.16 294.219 267.76 292.859 267.76C291.019 267.76 289.799 266.4 289.799 263.98C289.799 261.58 291.019 260.22 292.859 260.22C294.219 260.22 295.099 260.9 295.479 261.96H297.939C297.319 259.64 295.559 258.3 292.859 258.3C289.699 258.3 287.459 260.54 287.459 263.98ZM300.571 266.44C300.571 268.68 301.791 269.5 303.751 269.5H305.551V267.6H304.151C303.191 267.6 302.871 267.26 302.871 266.44V260.34H305.551V258.48H302.871V255.74H300.571V258.48H299.271V260.34H300.571V266.44ZM307.652 269.5H309.932V258.48H307.652V269.5ZM308.812 257.02C309.612 257.02 310.252 256.38 310.252 255.56C310.252 254.74 309.612 254.1 308.812 254.1C307.992 254.1 307.352 254.74 307.352 255.56C307.352 256.38 307.992 257.02 308.812 257.02ZM323.426 263.98C323.426 260.52 320.946 258.3 317.806 258.3C314.666 258.3 312.186 260.52 312.186 263.98C312.186 267.44 314.566 269.68 317.706 269.68C320.866 269.68 323.426 267.44 323.426 263.98ZM314.506 263.98C314.506 261.48 316.046 260.28 317.766 260.28C319.466 260.28 321.086 261.48 321.086 263.98C321.086 266.48 319.406 267.7 317.706 267.7C315.986 267.7 314.506 266.48 314.506 263.98ZM333.5 269.5H335.76V263C335.76 259.92 333.82 258.3 331.24 258.3C329.92 258.3 328.7 258.84 327.96 259.74V258.48H325.68V269.5H327.96V263.34C327.96 261.32 329.06 260.28 330.74 260.28C332.4 260.28 333.5 261.32 333.5 263.34V269.5Z" fill="#212832"/>
<rect x="0.5" y="237.5" width="616" height="49" stroke="black" stroke-opacity="0.5"/>
<rect y="294" width="617" height="50" fill="white"/>
<path d="M24.6 322.44C26.08 322.44 27.24 321.3 27.24 319.84C27.24 318.36 26.08 317.22 24.6 317.22C23.16 317.22 22 318.36 22 319.84C22 321.3 23.16 322.44 24.6 322.44ZM43.4089 319V314.46H45.9289C47.7089 314.46 48.5089 315.3 48.5089 316.74C48.5089 318.14 47.7089 319 45.9289 319H43.4089ZM50.8489 316.74C50.8489 314.48 49.2289 312.6 45.9289 312.6H41.1289V326.5H43.4089V320.86H45.9289C49.5489 320.86 50.8489 318.72 50.8489 316.74ZM55.3034 320.7C55.3034 318.36 56.3434 317.66 58.0234 317.66H58.6034V315.3C57.0434 315.3 55.9434 315.98 55.3034 317.08V315.48H53.0234V326.5H55.3034V320.7ZM71.1992 320.98C71.1992 317.52 68.7192 315.3 65.5792 315.3C62.4392 315.3 59.9592 317.52 59.9592 320.98C59.9592 324.44 62.3392 326.68 65.4792 326.68C68.6392 326.68 71.1992 324.44 71.1992 320.98ZM62.2792 320.98C62.2792 318.48 63.8192 317.28 65.5392 317.28C67.2392 317.28 68.8592 318.48 68.8592 320.98C68.8592 323.48 67.1792 324.7 65.4792 324.7C63.7592 324.7 62.2792 323.48 62.2792 320.98ZM72.6931 320.94C72.6931 324.34 74.9931 326.68 77.8931 326.68C79.6931 326.68 81.0131 325.78 81.7131 324.84V326.68C81.7131 328.88 80.3931 329.96 78.6331 329.96C77.0531 329.96 75.8331 329.18 75.4931 328.04H73.2331C73.5131 330.48 75.6931 331.94 78.6331 331.94C82.0731 331.94 84.0131 329.68 84.0131 326.68V315.48H81.7131V317.08C81.0331 316.14 79.6931 315.3 77.8931 315.3C74.9931 315.3 72.6931 317.54 72.6931 320.94ZM81.7131 320.98C81.7131 323.36 80.0931 324.7 78.3731 324.7C76.6731 324.7 75.0331 323.32 75.0331 320.94C75.0331 318.56 76.6731 317.28 78.3731 317.28C80.0931 317.28 81.7131 318.62 81.7131 320.98ZM89.2878 320.7C89.2878 318.36 90.3278 317.66 92.0078 317.66H92.5878V315.3C91.0278 315.3 89.9278 315.98 89.2878 317.08V315.48H87.0078V326.5H89.2878V320.7ZM93.9236 320.94C93.9236 324.34 96.2236 326.68 99.0836 326.68C100.924 326.68 102.244 325.8 102.944 324.86V326.5H105.244V315.48H102.944V317.08C102.264 316.18 100.984 315.3 99.1236 315.3C96.2236 315.3 93.9236 317.54 93.9236 320.94ZM102.944 320.98C102.944 323.36 101.324 324.7 99.6036 324.7C97.9036 324.7 96.2636 323.32 96.2636 320.94C96.2636 318.56 97.9036 317.28 99.6036 317.28C101.324 317.28 102.944 318.62 102.944 320.98ZM123.858 326.5H126.118V320C126.118 316.92 124.158 315.3 121.578 315.3C119.978 315.3 118.418 316.14 117.738 317.48C116.978 316.04 115.518 315.3 113.778 315.3C112.458 315.3 111.258 315.84 110.518 316.74V315.48H108.238V326.5H110.518V320.34C110.518 318.32 111.618 317.28 113.298 317.28C114.958 317.28 116.058 318.32 116.058 320.34V326.5H118.318V320.34C118.318 318.32 119.418 317.28 121.098 317.28C122.758 317.28 123.858 318.32 123.858 320.34V326.5ZM144.64 326.5H146.9V320C146.9 316.92 144.94 315.3 142.36 315.3C140.76 315.3 139.2 316.14 138.52 317.48C137.76 316.04 136.3 315.3 134.56 315.3C133.24 315.3 132.04 315.84 131.3 316.74V315.48H129.02V326.5H131.3V320.34C131.3 318.32 132.4 317.28 134.08 317.28C135.74 317.28 136.84 318.32 136.84 320.34V326.5H139.1V320.34C139.1 318.32 140.2 317.28 141.88 317.28C143.54 317.28 144.64 318.32 144.64 320.34V326.5ZM149.801 326.5H152.081V315.48H149.801V326.5ZM150.961 314.02C151.761 314.02 152.401 313.38 152.401 312.56C152.401 311.74 151.761 311.1 150.961 311.1C150.141 311.1 149.501 311.74 149.501 312.56C149.501 313.38 150.141 314.02 150.961 314.02ZM162.894 326.5H165.154V320C165.154 316.92 163.214 315.3 160.634 315.3C159.314 315.3 158.094 315.84 157.354 316.74V315.48H155.074V326.5H157.354V320.34C157.354 318.32 158.454 317.28 160.134 317.28C161.794 317.28 162.894 318.32 162.894 320.34V326.5ZM167.303 320.94C167.303 324.34 169.603 326.68 172.503 326.68C174.303 326.68 175.623 325.78 176.323 324.84V326.68C176.323 328.88 175.003 329.96 173.243 329.96C171.663 329.96 170.443 329.18 170.103 328.04H167.843C168.123 330.48 170.303 331.94 173.243 331.94C176.683 331.94 178.623 329.68 178.623 326.68V315.48H176.323V317.08C175.643 316.14 174.303 315.3 172.503 315.3C169.603 315.3 167.303 317.54 167.303 320.94ZM176.323 320.98C176.323 323.36 174.703 324.7 172.983 324.7C171.283 324.7 169.643 323.32 169.643 320.94C169.643 318.56 171.283 317.28 172.983 317.28C174.703 317.28 176.323 318.62 176.323 320.98ZM186.813 326.5H189.093V315.48H186.813V326.5ZM187.973 314.02C188.773 314.02 189.413 313.38 189.413 312.56C189.413 311.74 188.773 311.1 187.973 311.1C187.153 311.1 186.513 311.74 186.513 312.56C186.513 313.38 187.153 314.02 187.973 314.02ZM199.906 326.5H202.166V320C202.166 316.92 200.226 315.3 197.646 315.3C196.326 315.3 195.106 315.84 194.366 316.74V315.48H192.086V326.5H194.366V320.34C194.366 318.32 195.466 317.28 197.146 317.28C198.806 317.28 199.906 318.32 199.906 320.34V326.5ZM209.51 319.52C209.51 323.7 212.69 326.62 216.61 326.62C219.51 326.62 222.01 325.18 223.07 322.46H220.33C219.59 323.94 218.27 324.64 216.61 324.64C213.85 324.64 211.85 322.66 211.85 319.52C211.85 316.38 213.85 314.42 216.61 314.42C218.27 314.42 219.59 315.12 220.33 316.6H223.07C222.01 313.88 219.51 312.42 216.61 312.42C212.69 312.42 209.51 315.36 209.51 319.52Z" fill="#212832"/>
<rect x="0.5" y="294.5" width="616" height="49" stroke="black" stroke-opacity="0.5"/>
</svg>
