<svg width="1240" height="164" viewBox="0 0 1240 164" fill="none" xmlns="http://www.w3.org/2000/svg">
<rect width="400" height="50" fill="white"/>
<path d="M24.6 25.94C26.08 25.94 27.24 24.8 27.24 23.34C27.24 21.86 26.08 20.72 24.6 20.72C23.16 20.72 22 21.86 22 23.34C22 24.8 23.16 25.94 24.6 25.94ZM41.1289 30H43.4089V16.1H41.1289V30ZM54.2223 30H56.4823V23.5C56.4823 20.42 54.5423 18.8 51.9623 18.8C50.6423 18.8 49.4223 19.34 48.6823 20.24V18.98H46.4023V30H48.6823V23.84C48.6823 21.82 49.7823 20.78 51.4623 20.78C53.1223 20.78 54.2223 21.82 54.2223 23.84V30ZM59.7506 26.94C59.7506 29.18 60.9706 30 62.9306 30H64.7306V28.1H63.3306C62.3706 28.1 62.0506 27.76 62.0506 26.94V20.84H64.7306V18.98H62.0506V16.24H59.7506V18.98H58.4506V20.84H59.7506V26.94ZM71.472 20.72C73.172 20.72 74.512 21.8 74.552 23.5H68.452C68.692 21.76 69.932 20.72 71.472 20.72ZM76.632 26.72H74.172C73.752 27.58 72.972 28.26 71.572 28.26C69.892 28.26 68.592 27.16 68.432 25.34H76.852C76.912 24.96 76.932 24.6 76.932 24.22C76.932 20.98 74.712 18.8 71.572 18.8C68.312 18.8 66.072 21.02 66.072 24.48C66.072 27.94 68.412 30.18 71.572 30.18C74.272 30.18 76.012 28.64 76.632 26.72ZM81.4558 24.2C81.4558 21.86 82.4958 21.16 84.1758 21.16H84.7558V18.8C83.1958 18.8 82.0958 19.48 81.4558 20.58V18.98H79.1758V30H81.4558V24.2ZM94.6716 30H96.9316V23.5C96.9316 20.42 94.9916 18.8 92.4116 18.8C91.0916 18.8 89.8716 19.34 89.1316 20.24V18.98H86.8516V30H89.1316V23.84C89.1316 21.82 90.2316 20.78 91.9116 20.78C93.5716 20.78 94.6716 21.82 94.6716 23.84V30ZM99.0798 24.44C99.0798 27.84 101.38 30.18 104.24 30.18C106.08 30.18 107.4 29.3 108.1 28.36V30H110.4V18.98H108.1V20.58C107.42 19.68 106.14 18.8 104.28 18.8C101.38 18.8 99.0798 21.04 99.0798 24.44ZM108.1 24.48C108.1 26.86 106.48 28.2 104.76 28.2C103.06 28.2 101.42 26.82 101.42 24.44C101.42 22.06 103.06 20.78 104.76 20.78C106.48 20.78 108.1 22.12 108.1 24.48ZM113.395 30H115.675V15.2H113.395V30ZM133.243 30H135.643L130.663 16.08H128.023L123.043 30H125.423L126.423 27.16H132.243L133.243 30ZM131.603 25.3H127.063L129.343 18.84L131.603 25.3ZM147.789 18.98H145.509V25.12C145.509 27.14 144.409 28.18 142.729 28.18C141.069 28.18 139.969 27.14 139.969 25.12V18.98H137.709V25.46C137.709 28.54 139.669 30.16 142.249 30.16C143.549 30.16 144.789 29.62 145.509 28.68V30H147.789V18.98ZM150.037 24.44C150.037 27.84 152.337 30.18 155.237 30.18C157.037 30.18 158.357 29.34 159.057 28.34V30H161.357V15.2H159.057V20.52C158.217 19.48 156.697 18.8 155.257 18.8C152.337 18.8 150.037 21.04 150.037 24.44ZM159.057 24.48C159.057 26.86 157.437 28.2 155.717 28.2C154.017 28.2 152.377 26.82 152.377 24.44C152.377 22.06 154.017 20.78 155.717 20.78C157.437 20.78 159.057 22.12 159.057 24.48ZM164.352 30H166.632V18.98H164.352V30ZM165.512 17.52C166.312 17.52 166.952 16.88 166.952 16.06C166.952 15.24 166.312 14.6 165.512 14.6C164.692 14.6 164.052 15.24 164.052 16.06C164.052 16.88 164.692 17.52 165.512 17.52ZM169.985 26.94C169.985 29.18 171.205 30 173.165 30H174.965V28.1H173.565C172.605 28.1 172.285 27.76 172.285 26.94V20.84H174.965V18.98H172.285V16.24H169.985V18.98H168.685V20.84H169.985V26.94ZM187.566 24.48C187.566 21.02 185.086 18.8 181.946 18.8C178.806 18.8 176.326 21.02 176.326 24.48C176.326 27.94 178.706 30.18 181.846 30.18C185.006 30.18 187.566 27.94 187.566 24.48ZM178.646 24.48C178.646 21.98 180.186 20.78 181.906 20.78C183.606 20.78 185.226 21.98 185.226 24.48C185.226 26.98 183.546 28.2 181.846 28.2C180.126 28.2 178.646 26.98 178.646 24.48ZM192.1 24.2C192.1 21.86 193.14 21.16 194.82 21.16H195.4V18.8C193.84 18.8 192.74 19.48 192.1 20.58V18.98H189.82V30H192.1V24.2Z" fill="#212832"/>
<rect x="0.5" y="0.5" width="399" height="49" stroke="black" stroke-opacity="0.5"/>
<rect y="57" width="400" height="50" fill="white"/>
<path d="M24.6 82.94C26.08 82.94 27.24 81.8 27.24 80.34C27.24 78.86 26.08 77.72 24.6 77.72C23.16 77.72 22 78.86 22 80.34C22 81.8 23.16 82.94 24.6 82.94ZM40.3689 80.02C40.3689 84.2 43.5489 87.12 47.4689 87.12C50.3689 87.12 52.8689 85.68 53.9289 82.96H51.1889C50.4489 84.44 49.1289 85.14 47.4689 85.14C44.7089 85.14 42.7089 83.16 42.7089 80.02C42.7089 76.88 44.7089 74.92 47.4689 74.92C49.1289 74.92 50.4489 75.62 51.1889 77.1H53.9289C52.8689 74.38 50.3689 72.92 47.4689 72.92C43.5489 72.92 40.3689 75.86 40.3689 80.02ZM58.8777 81.2C58.8777 78.86 59.9177 78.16 61.5977 78.16H62.1777V75.8C60.6177 75.8 59.5177 76.48 58.8777 77.58V75.98H56.5977V87H58.8777V81.2ZM68.9134 77.72C70.6134 77.72 71.9534 78.8 71.9934 80.5H65.8934C66.1334 78.76 67.3734 77.72 68.9134 77.72ZM74.0734 83.72H71.6134C71.1934 84.58 70.4134 85.26 69.0134 85.26C67.3334 85.26 66.0334 84.16 65.8734 82.34H74.2934C74.3534 81.96 74.3734 81.6 74.3734 81.22C74.3734 77.98 72.1534 75.8 69.0134 75.8C65.7534 75.8 63.5134 78.02 63.5134 81.48C63.5134 84.94 65.8534 87.18 69.0134 87.18C71.7134 87.18 73.4534 85.64 74.0734 83.72ZM75.8572 81.44C75.8572 84.84 78.1572 87.18 81.0572 87.18C82.8572 87.18 84.1772 86.34 84.8772 85.34V87H87.1772V72.2H84.8772V77.52C84.0372 76.48 82.5172 75.8 81.0772 75.8C78.1572 75.8 75.8572 78.04 75.8572 81.44ZM84.8772 81.48C84.8772 83.86 83.2572 85.2 81.5372 85.2C79.8372 85.2 78.1972 83.82 78.1972 81.44C78.1972 79.06 79.8372 77.78 81.5372 77.78C83.2572 77.78 84.8772 79.12 84.8772 81.48ZM90.1719 87H92.4519V75.98H90.1719V87ZM91.3319 74.52C92.1319 74.52 92.7719 73.88 92.7719 73.06C92.7719 72.24 92.1319 71.6 91.3319 71.6C90.5119 71.6 89.8719 72.24 89.8719 73.06C89.8719 73.88 90.5119 74.52 91.3319 74.52ZM95.8053 83.94C95.8053 86.18 97.0253 87 98.9853 87H100.785V85.1H99.3853C98.4253 85.1 98.1053 84.76 98.1053 83.94V77.84H100.785V75.98H98.1053V73.24H95.8053V75.98H94.5053V77.84H95.8053V83.94ZM117.462 87H119.862L114.882 73.08H112.242L107.262 87H109.642L110.642 84.16H116.462L117.462 87ZM115.822 82.3H111.282L113.562 75.84L115.822 82.3ZM129.847 87H132.107V80.5C132.107 77.42 130.167 75.8 127.587 75.8C126.267 75.8 125.047 76.34 124.307 77.24V75.98H122.027V87H124.307V80.84C124.307 78.82 125.407 77.78 127.087 77.78C128.747 77.78 129.847 78.82 129.847 80.84V87ZM134.256 81.44C134.256 84.84 136.556 87.18 139.416 87.18C141.256 87.18 142.576 86.3 143.276 85.36V87H145.576V75.98H143.276V77.58C142.596 76.68 141.316 75.8 139.456 75.8C136.556 75.8 134.256 78.04 134.256 81.44ZM143.276 81.48C143.276 83.86 141.656 85.2 139.936 85.2C138.236 85.2 136.596 83.82 136.596 81.44C136.596 79.06 138.236 77.78 139.936 77.78C141.656 77.78 143.276 79.12 143.276 81.48ZM148.57 87H150.85V72.2H148.57V87ZM158.184 84.38L155.084 75.98H152.544L156.884 86.82L154.644 92.18H157.004L163.764 75.98H161.404L158.184 84.38ZM173.704 83.92C173.584 79.94 167.364 81.18 167.364 78.96C167.364 78.22 168.004 77.72 169.224 77.72C170.464 77.72 171.204 78.38 171.284 79.34H173.564C173.444 77.14 171.804 75.8 169.304 75.8C166.704 75.8 165.064 77.22 165.064 78.98C165.064 83.02 171.464 81.78 171.464 83.94C171.464 84.7 170.764 85.26 169.444 85.26C168.184 85.26 167.324 84.52 167.244 83.62H164.884C164.984 85.62 166.844 87.18 169.484 87.18C172.084 87.18 173.704 85.78 173.704 83.92ZM176.528 83.94C176.528 86.18 177.748 87 179.708 87H181.508V85.1H180.108C179.148 85.1 178.828 84.76 178.828 83.94V77.84H181.508V75.98H178.828V73.24H176.528V75.98H175.228V77.84H176.528V83.94Z" fill="#212832"/>
<rect x="0.5" y="57.5" width="399" height="49" stroke="black" stroke-opacity="0.5"/>
<rect y="114" width="400" height="50" fill="white"/>
<path d="M24.6 139.94C26.08 139.94 27.24 138.8 27.24 137.34C27.24 135.86 26.08 134.72 24.6 134.72C23.16 134.72 22 135.86 22 137.34C22 138.8 23.16 139.94 24.6 139.94ZM41.1289 144H43.4089V137.92H48.0089V136.06H43.4089V131.96H49.3089V130.1H41.1289V144ZM51.4219 144H53.7019V132.98H51.4219V144ZM52.5819 131.52C53.3819 131.52 54.0219 130.88 54.0219 130.06C54.0219 129.24 53.3819 128.6 52.5819 128.6C51.7619 128.6 51.1219 129.24 51.1219 130.06C51.1219 130.88 51.7619 131.52 52.5819 131.52ZM64.5153 144H66.7753V137.5C66.7753 134.42 64.8353 132.8 62.2553 132.8C60.9353 132.8 59.7153 133.34 58.9753 134.24V132.98H56.6953V144H58.9753V137.84C58.9753 135.82 60.0753 134.78 61.7553 134.78C63.4153 134.78 64.5153 135.82 64.5153 137.84V144ZM68.9236 138.44C68.9236 141.84 71.2236 144.18 74.0836 144.18C75.9236 144.18 77.2436 143.3 77.9436 142.36V144H80.2436V132.98H77.9436V134.58C77.2636 133.68 75.9836 132.8 74.1236 132.8C71.2236 132.8 68.9236 135.04 68.9236 138.44ZM77.9436 138.48C77.9436 140.86 76.3236 142.2 74.6036 142.2C72.9036 142.2 71.2636 140.82 71.2636 138.44C71.2636 136.06 72.9036 134.78 74.6036 134.78C76.3236 134.78 77.9436 136.12 77.9436 138.48ZM91.0583 144H93.3183V137.5C93.3183 134.42 91.3783 132.8 88.7983 132.8C87.4783 132.8 86.2583 133.34 85.5183 134.24V132.98H83.2383V144H85.5183V137.84C85.5183 135.82 86.6183 134.78 88.2983 134.78C89.9583 134.78 91.0583 135.82 91.0583 137.84V144ZM95.4666 138.48C95.4666 141.94 97.7066 144.18 100.867 144.18C103.567 144.18 105.327 142.68 105.947 140.52H103.487C103.067 141.66 102.227 142.26 100.867 142.26C99.0266 142.26 97.8066 140.9 97.8066 138.48C97.8066 136.08 99.0266 134.72 100.867 134.72C102.227 134.72 103.107 135.4 103.487 136.46H105.947C105.327 134.14 103.567 132.8 100.867 132.8C97.7066 132.8 95.4666 135.04 95.4666 138.48ZM112.859 134.72C114.559 134.72 115.899 135.8 115.939 137.5H109.839C110.079 135.76 111.319 134.72 112.859 134.72ZM118.019 140.72H115.559C115.139 141.58 114.359 142.26 112.959 142.26C111.279 142.26 109.979 141.16 109.819 139.34H118.239C118.299 138.96 118.319 138.6 118.319 138.22C118.319 134.98 116.099 132.8 112.959 132.8C109.699 132.8 107.459 135.02 107.459 138.48C107.459 141.94 109.799 144.18 112.959 144.18C115.659 144.18 117.399 142.64 118.019 140.72ZM133.438 130.08H125.758V144H133.438V142.14H128.038V137.88H132.838V136.02H128.038V131.94H133.438V130.08ZM141.946 144H144.526L140.966 138.42L144.526 132.98H142.146L139.906 136.72L137.526 132.98H134.946L138.506 138.58L134.946 144H137.326L139.566 140.26L141.946 144ZM150.867 134.72C152.567 134.72 153.907 135.8 153.947 137.5H147.847C148.087 135.76 149.327 134.72 150.867 134.72ZM156.027 140.72H153.567C153.147 141.58 152.367 142.26 150.967 142.26C149.287 142.26 147.987 141.16 147.827 139.34H156.247C156.307 138.96 156.327 138.6 156.327 138.22C156.327 134.98 154.107 132.8 150.967 132.8C147.707 132.8 145.467 135.02 145.467 138.48C145.467 141.94 147.807 144.18 150.967 144.18C153.667 144.18 155.407 142.64 156.027 140.72ZM157.81 138.48C157.81 141.94 160.05 144.18 163.21 144.18C165.91 144.18 167.67 142.68 168.29 140.52H165.83C165.41 141.66 164.57 142.26 163.21 142.26C161.37 142.26 160.15 140.9 160.15 138.48C160.15 136.08 161.37 134.72 163.21 134.72C164.57 134.72 165.45 135.4 165.83 136.46H168.29C167.67 134.14 165.91 132.8 163.21 132.8C160.05 132.8 157.81 135.04 157.81 138.48ZM180.543 132.98H178.263V139.12C178.263 141.14 177.163 142.18 175.483 142.18C173.823 142.18 172.723 141.14 172.723 139.12V132.98H170.463V139.46C170.463 142.54 172.423 144.16 175.003 144.16C176.303 144.16 177.543 143.62 178.263 142.68V144H180.543V132.98ZM183.911 140.94C183.911 143.18 185.131 144 187.091 144H188.891V142.1H187.491C186.531 142.1 186.211 141.76 186.211 140.94V134.84H188.891V132.98H186.211V130.24H183.911V132.98H182.611V134.84H183.911V140.94ZM190.992 144H193.272V132.98H190.992V144ZM192.152 131.52C192.952 131.52 193.592 130.88 193.592 130.06C193.592 129.24 192.952 128.6 192.152 128.6C191.332 128.6 190.692 129.24 190.692 130.06C190.692 130.88 191.332 131.52 192.152 131.52ZM194.966 132.98L199.146 144H201.866L206.066 132.98H203.646L200.526 141.96L197.406 132.98H194.966ZM212.429 134.72C214.129 134.72 215.469 135.8 215.509 137.5H209.409C209.649 135.76 210.889 134.72 212.429 134.72ZM217.589 140.72H215.129C214.709 141.58 213.929 142.26 212.529 142.26C210.849 142.26 209.549 141.16 209.389 139.34H217.809C217.869 138.96 217.889 138.6 217.889 138.22C217.889 134.98 215.669 132.8 212.529 132.8C209.269 132.8 207.029 135.02 207.029 138.48C207.029 141.94 209.369 144.18 212.529 144.18C215.229 144.18 216.969 142.64 217.589 140.72Z" fill="#212832"/>
<rect x="0.5" y="114.5" width="399" height="49" stroke="black" stroke-opacity="0.5"/>
<rect x="840" width="400" height="50" fill="white"/>
<path d="M864.6 25.94C866.08 25.94 867.24 24.8 867.24 23.34C867.24 21.86 866.08 20.72 864.6 20.72C863.16 20.72 862 21.86 862 23.34C862 24.8 863.16 25.94 864.6 25.94ZM881.129 30H883.409V23.92H888.009V22.06H883.409V17.96H889.309V16.1H881.129V30ZM891.422 30H893.702V18.98H891.422V30ZM892.582 17.52C893.382 17.52 894.022 16.88 894.022 16.06C894.022 15.24 893.382 14.6 892.582 14.6C891.762 14.6 891.122 15.24 891.122 16.06C891.122 16.88 891.762 17.52 892.582 17.52ZM904.515 30H906.775V23.5C906.775 20.42 904.835 18.8 902.255 18.8C900.935 18.8 899.715 19.34 898.975 20.24V18.98H896.695V30H898.975V23.84C898.975 21.82 900.075 20.78 901.755 20.78C903.415 20.78 904.515 21.82 904.515 23.84V30ZM908.924 24.44C908.924 27.84 911.224 30.18 914.084 30.18C915.924 30.18 917.244 29.3 917.944 28.36V30H920.244V18.98H917.944V20.58C917.264 19.68 915.984 18.8 914.124 18.8C911.224 18.8 908.924 21.04 908.924 24.44ZM917.944 24.48C917.944 26.86 916.324 28.2 914.604 28.2C912.904 28.2 911.264 26.82 911.264 24.44C911.264 22.06 912.904 20.78 914.604 20.78C916.324 20.78 917.944 22.12 917.944 24.48ZM931.058 30H933.318V23.5C933.318 20.42 931.378 18.8 928.798 18.8C927.478 18.8 926.258 19.34 925.518 20.24V18.98H923.238V30H925.518V23.84C925.518 21.82 926.618 20.78 928.298 20.78C929.958 20.78 931.058 21.82 931.058 23.84V30ZM935.467 24.48C935.467 27.94 937.707 30.18 940.867 30.18C943.567 30.18 945.327 28.68 945.947 26.52H943.487C943.067 27.66 942.227 28.26 940.867 28.26C939.027 28.26 937.807 26.9 937.807 24.48C937.807 22.08 939.027 20.72 940.867 20.72C942.227 20.72 943.107 21.4 943.487 22.46H945.947C945.327 20.14 943.567 18.8 940.867 18.8C937.707 18.8 935.467 21.04 935.467 24.48ZM948.219 30H950.499V18.98H948.219V30ZM949.379 17.52C950.179 17.52 950.819 16.88 950.819 16.06C950.819 15.24 950.179 14.6 949.379 14.6C948.559 14.6 947.919 15.24 947.919 16.06C947.919 16.88 948.559 17.52 949.379 17.52ZM952.732 24.44C952.732 27.84 955.032 30.18 957.892 30.18C959.732 30.18 961.052 29.3 961.752 28.36V30H964.052V18.98H961.752V20.58C961.072 19.68 959.792 18.8 957.932 18.8C955.032 18.8 952.732 21.04 952.732 24.44ZM961.752 24.48C961.752 26.86 960.132 28.2 958.412 28.2C956.712 28.2 955.072 26.82 955.072 24.44C955.072 22.06 956.712 20.78 958.412 20.78C960.132 20.78 961.752 22.12 961.752 24.48ZM967.047 30H969.327V15.2H967.047V30ZM977.516 30H979.796V20.48L984.056 30H985.636L989.876 20.48V30H992.156V16.1H989.716L984.856 27L979.976 16.1H977.516V30ZM994.392 24.44C994.392 27.84 996.692 30.18 999.552 30.18C1001.39 30.18 1002.71 29.3 1003.41 28.36V30H1005.71V18.98H1003.41V20.58C1002.73 19.68 1001.45 18.8 999.592 18.8C996.692 18.8 994.392 21.04 994.392 24.44ZM1003.41 24.48C1003.41 26.86 1001.79 28.2 1000.07 28.2C998.372 28.2 996.732 26.82 996.732 24.44C996.732 22.06 998.372 20.78 1000.07 20.78C1001.79 20.78 1003.41 22.12 1003.41 24.48ZM1016.53 30H1018.79V23.5C1018.79 20.42 1016.85 18.8 1014.27 18.8C1012.95 18.8 1011.73 19.34 1010.99 20.24V18.98H1008.71V30H1010.99V23.84C1010.99 21.82 1012.09 20.78 1013.77 20.78C1015.43 20.78 1016.53 21.82 1016.53 23.84V30ZM1020.94 24.44C1020.94 27.84 1023.24 30.18 1026.1 30.18C1027.94 30.18 1029.26 29.3 1029.96 28.36V30H1032.26V18.98H1029.96V20.58C1029.28 19.68 1028 18.8 1026.14 18.8C1023.24 18.8 1020.94 21.04 1020.94 24.44ZM1029.96 24.48C1029.96 26.86 1028.34 28.2 1026.62 28.2C1024.92 28.2 1023.28 26.82 1023.28 24.44C1023.28 22.06 1024.92 20.78 1026.62 20.78C1028.34 20.78 1029.96 22.12 1029.96 24.48ZM1034.49 24.44C1034.49 27.84 1036.79 30.18 1039.69 30.18C1041.49 30.18 1042.81 29.28 1043.51 28.34V30.18C1043.51 32.38 1042.19 33.46 1040.43 33.46C1038.85 33.46 1037.63 32.68 1037.29 31.54H1035.03C1035.31 33.98 1037.49 35.44 1040.43 35.44C1043.87 35.44 1045.81 33.18 1045.81 30.18V18.98H1043.51V20.58C1042.83 19.64 1041.49 18.8 1039.69 18.8C1036.79 18.8 1034.49 21.04 1034.49 24.44ZM1043.51 24.48C1043.51 26.86 1041.89 28.2 1040.17 28.2C1038.47 28.2 1036.83 26.82 1036.83 24.44C1036.83 22.06 1038.47 20.78 1040.17 20.78C1041.89 20.78 1043.51 22.12 1043.51 24.48ZM1053.44 20.72C1055.14 20.72 1056.48 21.8 1056.52 23.5H1050.42C1050.66 21.76 1051.9 20.72 1053.44 20.72ZM1058.6 26.72H1056.14C1055.72 27.58 1054.94 28.26 1053.54 28.26C1051.86 28.26 1050.56 27.16 1050.4 25.34H1058.82C1058.88 24.96 1058.9 24.6 1058.9 24.22C1058.9 20.98 1056.68 18.8 1053.54 18.8C1050.28 18.8 1048.04 21.02 1048.04 24.48C1048.04 27.94 1050.38 30.18 1053.54 30.18C1056.24 30.18 1057.98 28.64 1058.6 26.72ZM1063.43 24.2C1063.43 21.86 1064.47 21.16 1066.15 21.16H1066.73V18.8C1065.17 18.8 1064.07 19.48 1063.43 20.58V18.98H1061.15V30H1063.43V24.2Z" fill="#212832"/>
<rect x="840.5" y="0.5" width="399" height="49" stroke="black" stroke-opacity="0.5"/>
<rect x="840" y="57" width="400" height="50" fill="white"/>
<path d="M864.6 82.94C866.08 82.94 867.24 81.8 867.24 80.34C867.24 78.86 866.08 77.72 864.6 77.72C863.16 77.72 862 78.86 862 80.34C862 81.8 863.16 82.94 864.6 82.94ZM888.509 77.26C888.509 78.64 887.709 79.62 885.929 79.62H883.409V74.96H885.929C887.709 74.96 888.509 75.86 888.509 77.26ZM881.129 73.1V87H883.409V81.44H885.149L888.349 87H891.069L887.629 81.24C889.969 80.66 890.849 78.9 890.849 77.26C890.849 75 889.229 73.1 885.929 73.1H881.129ZM898.406 77.72C900.106 77.72 901.446 78.8 901.486 80.5H895.386C895.626 78.76 896.866 77.72 898.406 77.72ZM903.566 83.72H901.106C900.686 84.58 899.906 85.26 898.506 85.26C896.826 85.26 895.526 84.16 895.366 82.34H903.786C903.846 81.96 903.866 81.6 903.866 81.22C903.866 77.98 901.646 75.8 898.506 75.8C895.246 75.8 893.006 78.02 893.006 81.48C893.006 84.94 895.346 87.18 898.506 87.18C901.206 87.18 902.946 85.64 903.566 83.72ZM914.329 83.92C914.209 79.94 907.989 81.18 907.989 78.96C907.989 78.22 908.629 77.72 909.849 77.72C911.089 77.72 911.829 78.38 911.909 79.34H914.189C914.069 77.14 912.429 75.8 909.929 75.8C907.329 75.8 905.689 77.22 905.689 78.98C905.689 83.02 912.089 81.78 912.089 83.94C912.089 84.7 911.389 85.26 910.069 85.26C908.809 85.26 907.949 84.52 907.869 83.62H905.509C905.609 85.62 907.469 87.18 910.109 87.18C912.709 87.18 914.329 85.78 914.329 83.92ZM921.433 77.72C923.133 77.72 924.473 78.8 924.513 80.5H918.413C918.653 78.76 919.893 77.72 921.433 77.72ZM926.593 83.72H924.133C923.713 84.58 922.933 85.26 921.533 85.26C919.853 85.26 918.553 84.16 918.393 82.34H926.813C926.873 81.96 926.893 81.6 926.893 81.22C926.893 77.98 924.673 75.8 921.533 75.8C918.273 75.8 916.033 78.02 916.033 81.48C916.033 84.94 918.373 87.18 921.533 87.18C924.233 87.18 925.973 85.64 926.593 83.72ZM928.377 81.44C928.377 84.84 930.677 87.18 933.537 87.18C935.377 87.18 936.697 86.3 937.397 85.36V87H939.697V75.98H937.397V77.58C936.717 76.68 935.437 75.8 933.577 75.8C930.677 75.8 928.377 78.04 928.377 81.44ZM937.397 81.48C937.397 83.86 935.777 85.2 934.057 85.2C932.357 85.2 930.717 83.82 930.717 81.44C930.717 79.06 932.357 77.78 934.057 77.78C935.777 77.78 937.397 79.12 937.397 81.48ZM944.971 81.2C944.971 78.86 946.011 78.16 947.691 78.16H948.271V75.8C946.711 75.8 945.611 76.48 944.971 77.58V75.98H942.691V87H944.971V81.2ZM949.607 81.48C949.607 84.94 951.847 87.18 955.007 87.18C957.707 87.18 959.467 85.68 960.087 83.52H957.627C957.207 84.66 956.367 85.26 955.007 85.26C953.167 85.26 951.947 83.9 951.947 81.48C951.947 79.08 953.167 77.72 955.007 77.72C956.367 77.72 957.247 78.4 957.627 79.46H960.087C959.467 77.14 957.707 75.8 955.007 75.8C951.847 75.8 949.607 78.04 949.607 81.48ZM962.359 87H964.639V80.84C964.639 78.82 965.739 77.78 967.419 77.78C969.079 77.78 970.179 78.82 970.179 80.84V87H972.439V80.5C972.439 77.42 970.519 75.8 968.059 75.8C966.639 75.8 965.399 76.34 964.639 77.26V72.2H962.359V87ZM989.923 87H992.323L987.343 73.08H984.703L979.723 87H982.103L983.103 84.16H988.923L989.923 87ZM988.283 82.3H983.743L986.023 75.84L988.283 82.3ZM1002.31 87H1004.57V80.5C1004.57 77.42 1002.63 75.8 1000.05 75.8C998.728 75.8 997.508 76.34 996.768 77.24V75.98H994.488V87H996.768V80.84C996.768 78.82 997.868 77.78 999.548 77.78C1001.21 77.78 1002.31 78.82 1002.31 80.84V87ZM1006.72 81.44C1006.72 84.84 1009.02 87.18 1011.88 87.18C1013.72 87.18 1015.04 86.3 1015.74 85.36V87H1018.04V75.98H1015.74V77.58C1015.06 76.68 1013.78 75.8 1011.92 75.8C1009.02 75.8 1006.72 78.04 1006.72 81.44ZM1015.74 81.48C1015.74 83.86 1014.12 85.2 1012.4 85.2C1010.7 85.2 1009.06 83.82 1009.06 81.44C1009.06 79.06 1010.7 77.78 1012.4 77.78C1014.12 77.78 1015.74 79.12 1015.74 81.48ZM1021.03 87H1023.31V72.2H1021.03V87ZM1030.64 84.38L1027.54 75.98H1025L1029.34 86.82L1027.1 92.18H1029.46L1036.22 75.98H1033.86L1030.64 84.38ZM1046.17 83.92C1046.05 79.94 1039.83 81.18 1039.83 78.96C1039.83 78.22 1040.47 77.72 1041.69 77.72C1042.93 77.72 1043.67 78.38 1043.75 79.34H1046.03C1045.91 77.14 1044.27 75.8 1041.77 75.8C1039.17 75.8 1037.53 77.22 1037.53 78.98C1037.53 83.02 1043.93 81.78 1043.93 83.94C1043.93 84.7 1043.23 85.26 1041.91 85.26C1040.65 85.26 1039.79 84.52 1039.71 83.62H1037.35C1037.45 85.62 1039.31 87.18 1041.95 87.18C1044.55 87.18 1046.17 85.78 1046.17 83.92ZM1048.99 83.94C1048.99 86.18 1050.21 87 1052.17 87H1053.97V85.1H1052.57C1051.61 85.1 1051.29 84.76 1051.29 83.94V77.84H1053.97V75.98H1051.29V73.24H1048.99V75.98H1047.69V77.84H1048.99V83.94Z" fill="#212832"/>
<rect x="840.5" y="57.5" width="399" height="49" stroke="black" stroke-opacity="0.5"/>
<rect x="420" width="400" height="50" fill="white"/>
<path d="M444.6 25.94C446.08 25.94 447.24 24.8 447.24 23.34C447.24 21.86 446.08 20.72 444.6 20.72C443.16 20.72 442 21.86 442 23.34C442 24.8 443.16 25.94 444.6 25.94ZM461.129 16.1V30H468.109V28.16H463.409V16.1H461.129ZM480.516 24.48C480.516 21.02 478.036 18.8 474.896 18.8C471.756 18.8 469.276 21.02 469.276 24.48C469.276 27.94 471.656 30.18 474.796 30.18C477.956 30.18 480.516 27.94 480.516 24.48ZM471.596 24.48C471.596 21.98 473.136 20.78 474.856 20.78C476.556 20.78 478.176 21.98 478.176 24.48C478.176 26.98 476.496 28.2 474.796 28.2C473.076 28.2 471.596 26.98 471.596 24.48ZM482.01 24.44C482.01 27.84 484.31 30.18 487.17 30.18C489.01 30.18 490.33 29.3 491.03 28.36V30H493.33V18.98H491.03V20.58C490.35 19.68 489.07 18.8 487.21 18.8C484.31 18.8 482.01 21.04 482.01 24.44ZM491.03 24.48C491.03 26.86 489.41 28.2 487.69 28.2C485.99 28.2 484.35 26.82 484.35 24.44C484.35 22.06 485.99 20.78 487.69 20.78C489.41 20.78 491.03 22.12 491.03 24.48ZM504.144 30H506.404V23.5C506.404 20.42 504.464 18.8 501.884 18.8C500.564 18.8 499.344 19.34 498.604 20.24V18.98H496.324V30H498.604V23.84C498.604 21.82 499.704 20.78 501.384 20.78C503.044 20.78 504.144 21.82 504.144 23.84V30ZM527.948 23.02C527.948 18.86 524.808 15.92 520.848 15.92C516.928 15.92 513.748 18.86 513.748 23.02C513.748 27.2 516.928 30.14 520.848 30.14C524.808 30.14 527.948 27.2 527.948 23.02ZM516.088 23.02C516.088 19.88 518.088 17.92 520.848 17.92C523.608 17.92 525.608 19.88 525.608 23.02C525.608 26.16 523.608 28.16 520.848 28.16C518.088 28.16 516.088 26.16 516.088 23.02ZM530.471 30H532.771V20.84H534.811V18.98H532.771V18.2C532.771 16.94 533.251 16.46 534.651 16.46V14.56C531.771 14.56 530.471 15.66 530.471 18.2V18.98H529.171V20.84H530.471V30ZM537.112 30H539.412V20.84H541.452V18.98H539.412V18.2C539.412 16.94 539.892 16.46 541.292 16.46V14.56C538.412 14.56 537.112 15.66 537.112 18.2V18.98H535.812V20.84H537.112V30ZM543.473 30H545.753V18.98H543.473V30ZM544.633 17.52C545.433 17.52 546.073 16.88 546.073 16.06C546.073 15.24 545.433 14.6 544.633 14.6C543.813 14.6 543.173 15.24 543.173 16.06C543.173 16.88 543.813 17.52 544.633 17.52ZM547.986 24.48C547.986 27.94 550.226 30.18 553.386 30.18C556.086 30.18 557.846 28.68 558.466 26.52H556.006C555.586 27.66 554.746 28.26 553.386 28.26C551.546 28.26 550.326 26.9 550.326 24.48C550.326 22.08 551.546 20.72 553.386 20.72C554.746 20.72 555.626 21.4 556.006 22.46H558.466C557.846 20.14 556.086 18.8 553.386 18.8C550.226 18.8 547.986 21.04 547.986 24.48ZM565.378 20.72C567.078 20.72 568.418 21.8 568.458 23.5H562.358C562.598 21.76 563.838 20.72 565.378 20.72ZM570.538 26.72H568.078C567.658 27.58 566.878 28.26 565.478 28.26C563.798 28.26 562.498 27.16 562.338 25.34H570.758C570.818 24.96 570.838 24.6 570.838 24.22C570.838 20.98 568.618 18.8 565.478 18.8C562.218 18.8 559.978 21.02 559.978 24.48C559.978 27.94 562.318 30.18 565.478 30.18C568.178 30.18 569.918 28.64 570.538 26.72ZM575.362 24.2C575.362 21.86 576.402 21.16 578.082 21.16H578.662V18.8C577.102 18.8 576.002 19.48 575.362 20.58V18.98H573.082V30H575.362V24.2Z" fill="#212832"/>
<rect x="420.5" y="0.5" width="399" height="49" stroke="black" stroke-opacity="0.5"/>
<rect x="420" y="57" width="400" height="50" fill="white"/>
<path d="M444.6 82.94C446.08 82.94 447.24 81.8 447.24 80.34C447.24 78.86 446.08 77.72 444.6 77.72C443.16 77.72 442 78.86 442 80.34C442 81.8 443.16 82.94 444.6 82.94ZM461.129 87H463.409V80.92H468.009V79.06H463.409V74.96H469.309V73.1H461.129V87ZM471.422 87H473.702V75.98H471.422V87ZM472.582 74.52C473.382 74.52 474.022 73.88 474.022 73.06C474.022 72.24 473.382 71.6 472.582 71.6C471.762 71.6 471.122 72.24 471.122 73.06C471.122 73.88 471.762 74.52 472.582 74.52ZM484.515 87H486.775V80.5C486.775 77.42 484.835 75.8 482.255 75.8C480.935 75.8 479.715 76.34 478.975 77.24V75.98H476.695V87H478.975V80.84C478.975 78.82 480.075 77.78 481.755 77.78C483.415 77.78 484.515 78.82 484.515 80.84V87ZM488.924 81.44C488.924 84.84 491.224 87.18 494.084 87.18C495.924 87.18 497.244 86.3 497.944 85.36V87H500.244V75.98H497.944V77.58C497.264 76.68 495.984 75.8 494.124 75.8C491.224 75.8 488.924 78.04 488.924 81.44ZM497.944 81.48C497.944 83.86 496.324 85.2 494.604 85.2C492.904 85.2 491.264 83.82 491.264 81.44C491.264 79.06 492.904 77.78 494.604 77.78C496.324 77.78 497.944 79.12 497.944 81.48ZM511.058 87H513.318V80.5C513.318 77.42 511.378 75.8 508.798 75.8C507.478 75.8 506.258 76.34 505.518 77.24V75.98H503.238V87H505.518V80.84C505.518 78.82 506.618 77.78 508.298 77.78C509.958 77.78 511.058 78.82 511.058 80.84V87ZM515.467 81.48C515.467 84.94 517.707 87.18 520.867 87.18C523.567 87.18 525.327 85.68 525.947 83.52H523.487C523.067 84.66 522.227 85.26 520.867 85.26C519.027 85.26 517.807 83.9 517.807 81.48C517.807 79.08 519.027 77.72 520.867 77.72C522.227 77.72 523.107 78.4 523.487 79.46H525.947C525.327 77.14 523.567 75.8 520.867 75.8C517.707 75.8 515.467 78.04 515.467 81.48ZM528.219 87H530.499V75.98H528.219V87ZM529.379 74.52C530.179 74.52 530.819 73.88 530.819 73.06C530.819 72.24 530.179 71.6 529.379 71.6C528.559 71.6 527.919 72.24 527.919 73.06C527.919 73.88 528.559 74.52 529.379 74.52ZM532.732 81.44C532.732 84.84 535.032 87.18 537.892 87.18C539.732 87.18 541.052 86.3 541.752 85.36V87H544.052V75.98H541.752V77.58C541.072 76.68 539.792 75.8 537.932 75.8C535.032 75.8 532.732 78.04 532.732 81.44ZM541.752 81.48C541.752 83.86 540.132 85.2 538.412 85.2C536.712 85.2 535.072 83.82 535.072 81.44C535.072 79.06 536.712 77.78 538.412 77.78C540.132 77.78 541.752 79.12 541.752 81.48ZM547.047 87H549.327V72.2H547.047V87ZM566.896 87H569.296L564.316 73.08H561.676L556.696 87H559.076L560.076 84.16H565.896L566.896 87ZM565.256 82.3H560.716L562.996 75.84L565.256 82.3ZM579.281 87H581.541V80.5C581.541 77.42 579.601 75.8 577.021 75.8C575.701 75.8 574.481 76.34 573.741 77.24V75.98H571.461V87H573.741V80.84C573.741 78.82 574.841 77.78 576.521 77.78C578.181 77.78 579.281 78.82 579.281 80.84V87ZM583.689 81.44C583.689 84.84 585.989 87.18 588.849 87.18C590.689 87.18 592.009 86.3 592.709 85.36V87H595.009V75.98H592.709V77.58C592.029 76.68 590.749 75.8 588.889 75.8C585.989 75.8 583.689 78.04 583.689 81.44ZM592.709 81.48C592.709 83.86 591.089 85.2 589.369 85.2C587.669 85.2 586.029 83.82 586.029 81.44C586.029 79.06 587.669 77.78 589.369 77.78C591.089 77.78 592.709 79.12 592.709 81.48ZM598.004 87H600.284V72.2H598.004V87ZM607.617 84.38L604.517 75.98H601.977L606.317 86.82L604.077 92.18H606.437L613.197 75.98H610.837L607.617 84.38ZM623.138 83.92C623.018 79.94 616.798 81.18 616.798 78.96C616.798 78.22 617.438 77.72 618.658 77.72C619.898 77.72 620.638 78.38 620.718 79.34H622.998C622.878 77.14 621.238 75.8 618.738 75.8C616.138 75.8 614.498 77.22 614.498 78.98C614.498 83.02 620.898 81.78 620.898 83.94C620.898 84.7 620.198 85.26 618.878 85.26C617.618 85.26 616.758 84.52 616.678 83.62H614.318C614.418 85.62 616.278 87.18 618.918 87.18C621.518 87.18 623.138 85.78 623.138 83.92ZM625.962 83.94C625.962 86.18 627.182 87 629.142 87H630.942V85.1H629.542C628.582 85.1 628.262 84.76 628.262 83.94V77.84H630.942V75.98H628.262V73.24H625.962V75.98H624.662V77.84H625.962V83.94Z" fill="#212832"/>
<rect x="420.5" y="57.5" width="399" height="49" stroke="black" stroke-opacity="0.5"/>
<rect x="420" y="114" width="400" height="50" fill="white"/>
<path d="M444.6 139.94C446.08 139.94 447.24 138.8 447.24 137.34C447.24 135.86 446.08 134.72 444.6 134.72C443.16 134.72 442 135.86 442 137.34C442 138.8 443.16 139.94 444.6 139.94ZM461.129 144H463.409V134.48L467.669 144H469.249L473.489 134.48V144H475.769V130.1H473.329L468.469 141L463.589 130.1H461.129V144ZM478.006 138.44C478.006 141.84 480.306 144.18 483.166 144.18C485.006 144.18 486.326 143.3 487.026 142.36V144H489.326V132.98H487.026V134.58C486.346 133.68 485.066 132.8 483.206 132.8C480.306 132.8 478.006 135.04 478.006 138.44ZM487.026 138.48C487.026 140.86 485.406 142.2 483.686 142.2C481.986 142.2 480.346 140.82 480.346 138.44C480.346 136.06 481.986 134.78 483.686 134.78C485.406 134.78 487.026 136.12 487.026 138.48ZM494.6 138.2C494.6 135.86 495.64 135.16 497.32 135.16H497.9V132.8C496.34 132.8 495.24 133.48 494.6 134.58V132.98H492.32V144H494.6V138.2ZM499.996 144H502.276V139.26L506.356 144H509.436L504.356 138.5L509.436 132.98H506.276L502.276 137.8V129.2H499.996V144ZM515.71 134.72C517.41 134.72 518.75 135.8 518.79 137.5H512.69C512.93 135.76 514.17 134.72 515.71 134.72ZM520.87 140.72H518.41C517.99 141.58 517.21 142.26 515.81 142.26C514.13 142.26 512.83 141.16 512.67 139.34H521.09C521.15 138.96 521.17 138.6 521.17 138.22C521.17 134.98 518.95 132.8 515.81 132.8C512.55 132.8 510.31 135.02 510.31 138.48C510.31 141.94 512.65 144.18 515.81 144.18C518.51 144.18 520.25 142.64 520.87 140.72ZM523.774 140.94C523.774 143.18 524.994 144 526.954 144H528.754V142.1H527.354C526.394 142.1 526.074 141.76 526.074 140.94V134.84H528.754V132.98H526.074V130.24H523.774V132.98H522.474V134.84H523.774V140.94ZM530.855 144H533.135V132.98H530.855V144ZM532.015 131.52C532.815 131.52 533.455 130.88 533.455 130.06C533.455 129.24 532.815 128.6 532.015 128.6C531.195 128.6 530.555 129.24 530.555 130.06C530.555 130.88 531.195 131.52 532.015 131.52ZM543.949 144H546.209V137.5C546.209 134.42 544.269 132.8 541.689 132.8C540.369 132.8 539.149 133.34 538.409 134.24V132.98H536.129V144H538.409V137.84C538.409 135.82 539.509 134.78 541.189 134.78C542.849 134.78 543.949 135.82 543.949 137.84V144ZM548.357 138.44C548.357 141.84 550.657 144.18 553.557 144.18C555.357 144.18 556.677 143.28 557.377 142.34V144.18C557.377 146.38 556.057 147.46 554.297 147.46C552.717 147.46 551.497 146.68 551.157 145.54H548.897C549.177 147.98 551.357 149.44 554.297 149.44C557.737 149.44 559.677 147.18 559.677 144.18V132.98H557.377V134.58C556.697 133.64 555.357 132.8 553.557 132.8C550.657 132.8 548.357 135.04 548.357 138.44ZM557.377 138.48C557.377 140.86 555.757 142.2 554.037 142.2C552.337 142.2 550.697 140.82 550.697 138.44C550.697 136.06 552.337 134.78 554.037 134.78C555.757 134.78 557.377 136.12 557.377 138.48ZM567.107 138.44C567.107 141.84 569.407 144.18 572.267 144.18C574.107 144.18 575.427 143.3 576.127 142.36V144H578.427V132.98H576.127V134.58C575.447 133.68 574.167 132.8 572.307 132.8C569.407 132.8 567.107 135.04 567.107 138.44ZM576.127 138.48C576.127 140.86 574.507 142.2 572.787 142.2C571.087 142.2 569.447 140.82 569.447 138.44C569.447 136.06 571.087 134.78 572.787 134.78C574.507 134.78 576.127 136.12 576.127 138.48ZM589.242 144H591.502V137.5C591.502 134.42 589.562 132.8 586.982 132.8C585.662 132.8 584.442 133.34 583.702 134.24V132.98H581.422V144H583.702V137.84C583.702 135.82 584.802 134.78 586.482 134.78C588.142 134.78 589.242 135.82 589.242 137.84V144ZM593.65 138.44C593.65 141.84 595.95 144.18 598.85 144.18C600.65 144.18 601.97 143.34 602.67 142.34V144H604.97V129.2H602.67V134.52C601.83 133.48 600.31 132.8 598.87 132.8C595.95 132.8 593.65 135.04 593.65 138.44ZM602.67 138.48C602.67 140.86 601.05 142.2 599.33 142.2C597.63 142.2 595.99 140.82 595.99 138.44C595.99 136.06 597.63 134.78 599.33 134.78C601.05 134.78 602.67 136.12 602.67 138.48ZM622.54 140.06C622.54 134.98 615.18 136.94 615.18 133.8C615.18 132.46 616.2 131.82 617.52 131.86C618.96 131.9 619.78 132.76 619.86 133.7H622.38C622.18 131.32 620.3 129.92 617.64 129.92C614.8 129.92 612.86 131.44 612.86 133.88C612.86 139 620.24 136.82 620.24 140.18C620.24 141.36 619.34 142.22 617.74 142.22C616.16 142.22 615.36 141.3 615.26 140.16H612.82C612.82 142.62 614.96 144.14 617.74 144.14C620.84 144.14 622.54 142.14 622.54 140.06ZM624.47 138.44C624.47 141.84 626.77 144.18 629.63 144.18C631.47 144.18 632.79 143.3 633.49 142.36V144H635.79V132.98H633.49V134.58C632.81 133.68 631.53 132.8 629.67 132.8C626.77 132.8 624.47 135.04 624.47 138.44ZM633.49 138.48C633.49 140.86 631.87 142.2 630.15 142.2C628.45 142.2 626.81 140.82 626.81 138.44C626.81 136.06 628.45 134.78 630.15 134.78C631.87 134.78 633.49 136.12 633.49 138.48ZM638.785 144H641.065V129.2H638.785V144ZM648.699 134.72C650.399 134.72 651.739 135.8 651.779 137.5H645.679C645.919 135.76 647.159 134.72 648.699 134.72ZM653.859 140.72H651.399C650.979 141.58 650.199 142.26 648.799 142.26C647.119 142.26 645.819 141.16 645.659 139.34H654.079C654.139 138.96 654.159 138.6 654.159 138.22C654.159 134.98 651.939 132.8 648.799 132.8C645.539 132.8 643.299 135.02 643.299 138.48C643.299 141.94 645.639 144.18 648.799 144.18C651.499 144.18 653.239 142.64 653.859 140.72ZM664.622 140.92C664.502 136.94 658.282 138.18 658.282 135.96C658.282 135.22 658.922 134.72 660.142 134.72C661.382 134.72 662.122 135.38 662.202 136.34H664.482C664.362 134.14 662.722 132.8 660.222 132.8C657.622 132.8 655.982 134.22 655.982 135.98C655.982 140.02 662.382 138.78 662.382 140.94C662.382 141.7 661.682 142.26 660.362 142.26C659.102 142.26 658.242 141.52 658.162 140.62H655.802C655.902 142.62 657.762 144.18 660.402 144.18C663.002 144.18 664.622 142.78 664.622 140.92ZM679.961 130.08H672.281V144H679.961V142.14H674.561V137.88H679.361V136.02H674.561V131.94H679.961V130.08ZM688.47 144H691.05L687.49 138.42L691.05 132.98H688.67L686.43 136.72L684.05 132.98H681.47L685.03 138.58L681.47 144H683.85L686.09 140.26L688.47 144ZM697.39 134.72C699.09 134.72 700.43 135.8 700.47 137.5H694.37C694.61 135.76 695.85 134.72 697.39 134.72ZM702.55 140.72H700.09C699.67 141.58 698.89 142.26 697.49 142.26C695.81 142.26 694.51 141.16 694.35 139.34H702.77C702.83 138.96 702.85 138.6 702.85 138.22C702.85 134.98 700.63 132.8 697.49 132.8C694.23 132.8 691.99 135.02 691.99 138.48C691.99 141.94 694.33 144.18 697.49 144.18C700.19 144.18 701.93 142.64 702.55 140.72ZM704.334 138.48C704.334 141.94 706.574 144.18 709.734 144.18C712.434 144.18 714.194 142.68 714.814 140.52H712.354C711.934 141.66 711.094 142.26 709.734 142.26C707.894 142.26 706.674 140.9 706.674 138.48C706.674 136.08 707.894 134.72 709.734 134.72C711.094 134.72 711.974 135.4 712.354 136.46H714.814C714.194 134.14 712.434 132.8 709.734 132.8C706.574 132.8 704.334 135.04 704.334 138.48ZM727.066 132.98H724.786V139.12C724.786 141.14 723.686 142.18 722.006 142.18C720.346 142.18 719.246 141.14 719.246 139.12V132.98H716.986V139.46C716.986 142.54 718.946 144.16 721.526 144.16C722.826 144.16 724.066 143.62 724.786 142.68V144H727.066V132.98ZM730.434 140.94C730.434 143.18 731.654 144 733.614 144H735.414V142.1H734.014C733.054 142.1 732.734 141.76 732.734 140.94V134.84H735.414V132.98H732.734V130.24H730.434V132.98H729.134V134.84H730.434V140.94ZM737.516 144H739.796V132.98H737.516V144ZM738.676 131.52C739.476 131.52 740.116 130.88 740.116 130.06C740.116 129.24 739.476 128.6 738.676 128.6C737.856 128.6 737.216 129.24 737.216 130.06C737.216 130.88 737.856 131.52 738.676 131.52ZM741.489 132.98L745.669 144H748.389L752.589 132.98H750.169L747.049 141.96L743.929 132.98H741.489ZM758.953 134.72C760.653 134.72 761.993 135.8 762.033 137.5H755.933C756.173 135.76 757.413 134.72 758.953 134.72ZM764.112 140.72H761.653C761.233 141.58 760.453 142.26 759.053 142.26C757.373 142.26 756.073 141.16 755.913 139.34H764.333C764.393 138.96 764.413 138.6 764.413 138.22C764.413 134.98 762.193 132.8 759.053 132.8C755.793 132.8 753.553 135.02 753.553 138.48C753.553 141.94 755.893 144.18 759.053 144.18C761.753 144.18 763.493 142.64 764.112 140.72Z" fill="#212832"/>
<rect x="420.5" y="114.5" width="399" height="49" stroke="black" stroke-opacity="0.5"/>
<rect x="840" y="114" width="400" height="50" fill="white"/>
<path d="M861.74 137.72H869.96V135.8H861.74V137.72ZM873.439 137.72H881.659V135.8H873.439V137.72ZM885.138 137.72H893.358V135.8H885.138V137.72ZM896.838 137.72H905.058V135.8H896.838V137.72Z" fill="#212832"/>
<rect x="840.5" y="114.5" width="399" height="49" stroke="black" stroke-opacity="0.5"/>
</svg>
