<svg width="617" height="287" viewBox="0 0 617 287" fill="none" xmlns="http://www.w3.org/2000/svg">
<rect y="66" width="617" height="50" fill="white"/>
<path d="M24.6 94.44C26.08 94.44 27.24 93.3 27.24 91.84C27.24 90.36 26.08 89.22 24.6 89.22C23.16 89.22 22 90.36 22 91.84C22 93.3 23.16 94.44 24.6 94.44ZM54.5689 91.52C54.5689 87.36 51.4289 84.42 47.4689 84.42C43.5489 84.42 40.3689 87.36 40.3689 91.52C40.3689 95.7 43.5489 98.64 47.4689 98.64C51.4289 98.64 54.5689 95.7 54.5689 91.52ZM42.7089 91.52C42.7089 88.38 44.7089 86.42 47.4689 86.42C50.2289 86.42 52.2289 88.38 52.2289 91.52C52.2289 94.66 50.2289 96.66 47.4689 96.66C44.7089 96.66 42.7089 94.66 42.7089 91.52ZM59.0925 89.1V87.48H56.8125V103.74H59.0925V96.9C59.8125 97.76 61.1125 98.68 62.9325 98.68C65.8325 98.68 68.1125 96.34 68.1125 92.94C68.1125 89.54 65.8325 87.3 62.9325 87.3C61.1325 87.3 59.7925 88.18 59.0925 89.1ZM65.7925 92.94C65.7925 95.32 64.1525 96.7 62.4325 96.7C60.7325 96.7 59.0925 95.36 59.0925 92.98C59.0925 90.62 60.7325 89.28 62.4325 89.28C64.1525 89.28 65.7925 90.56 65.7925 92.94ZM75.0072 89.22C76.7072 89.22 78.0472 90.3 78.0872 92H71.9872C72.2272 90.26 73.4672 89.22 75.0072 89.22ZM80.1672 95.22H77.7072C77.2872 96.08 76.5072 96.76 75.1072 96.76C73.4272 96.76 72.1272 95.66 71.9672 93.84H80.3872C80.4472 93.46 80.4672 93.1 80.4672 92.72C80.4672 89.48 78.2472 87.3 75.1072 87.3C71.8472 87.3 69.6072 89.52 69.6072 92.98C69.6072 96.44 71.9472 98.68 75.1072 98.68C77.8072 98.68 79.5472 97.14 80.1672 95.22ZM84.9909 92.7C84.9909 90.36 86.0309 89.66 87.7109 89.66H88.2909V87.3C86.7309 87.3 85.6309 87.98 84.9909 89.08V87.48H82.7109V98.5H84.9909V92.7ZM89.6267 92.94C89.6267 96.34 91.9267 98.68 94.7867 98.68C96.6267 98.68 97.9467 97.8 98.6467 96.86V98.5H100.947V87.48H98.6467V89.08C97.9667 88.18 96.6867 87.3 94.8267 87.3C91.9267 87.3 89.6267 89.54 89.6267 92.94ZM98.6467 92.98C98.6467 95.36 97.0267 96.7 95.3067 96.7C93.6067 96.7 91.9667 95.32 91.9667 92.94C91.9667 90.56 93.6067 89.28 95.3067 89.28C97.0267 89.28 98.6467 90.62 98.6467 92.98ZM104.301 95.44C104.301 97.68 105.521 98.5 107.481 98.5H109.281V96.6H107.881C106.921 96.6 106.601 96.26 106.601 95.44V89.34H109.281V87.48H106.601V84.74H104.301V87.48H103.001V89.34H104.301V95.44ZM111.383 98.5H113.663V87.48H111.383V98.5ZM112.543 86.02C113.343 86.02 113.983 85.38 113.983 84.56C113.983 83.74 113.343 83.1 112.543 83.1C111.723 83.1 111.083 83.74 111.083 84.56C111.083 85.38 111.723 86.02 112.543 86.02ZM127.156 92.98C127.156 89.52 124.676 87.3 121.536 87.3C118.396 87.3 115.916 89.52 115.916 92.98C115.916 96.44 118.296 98.68 121.436 98.68C124.596 98.68 127.156 96.44 127.156 92.98ZM118.236 92.98C118.236 90.48 119.776 89.28 121.496 89.28C123.196 89.28 124.816 90.48 124.816 92.98C124.816 95.48 123.136 96.7 121.436 96.7C119.716 96.7 118.236 95.48 118.236 92.98ZM137.23 98.5H139.49V92C139.49 88.92 137.55 87.3 134.97 87.3C133.65 87.3 132.43 87.84 131.69 88.74V87.48H129.41V98.5H131.69V92.34C131.69 90.32 132.79 89.28 134.47 89.28C136.13 89.28 137.23 90.32 137.23 92.34V98.5ZM141.638 92.94C141.638 96.34 143.938 98.68 146.798 98.68C148.638 98.68 149.958 97.8 150.658 96.86V98.5H152.958V87.48H150.658V89.08C149.978 88.18 148.698 87.3 146.838 87.3C143.938 87.3 141.638 89.54 141.638 92.94ZM150.658 92.98C150.658 95.36 149.038 96.7 147.318 96.7C145.618 96.7 143.978 95.32 143.978 92.94C143.978 90.56 145.618 89.28 147.318 89.28C149.038 89.28 150.658 90.62 150.658 92.98ZM155.953 98.5H158.233V83.7H155.953V98.5ZM173.802 88.76C173.802 90.14 173.002 91.12 171.222 91.12H168.702V86.46H171.222C173.002 86.46 173.802 87.36 173.802 88.76ZM166.422 84.6V98.5H168.702V92.94H170.442L173.642 98.5H176.362L172.922 92.74C175.262 92.16 176.142 90.4 176.142 88.76C176.142 86.5 174.522 84.6 171.222 84.6H166.422ZM183.699 89.22C185.399 89.22 186.739 90.3 186.779 92H180.679C180.919 90.26 182.159 89.22 183.699 89.22ZM188.859 95.22H186.399C185.979 96.08 185.199 96.76 183.799 96.76C182.119 96.76 180.819 95.66 180.659 93.84H189.079C189.139 93.46 189.159 93.1 189.159 92.72C189.159 89.48 186.939 87.3 183.799 87.3C180.539 87.3 178.299 89.52 178.299 92.98C178.299 96.44 180.639 98.68 183.799 98.68C186.499 98.68 188.239 97.14 188.859 95.22ZM199.622 95.42C199.502 91.44 193.282 92.68 193.282 90.46C193.282 89.72 193.922 89.22 195.142 89.22C196.382 89.22 197.122 89.88 197.202 90.84H199.482C199.362 88.64 197.722 87.3 195.222 87.3C192.622 87.3 190.982 88.72 190.982 90.48C190.982 94.52 197.382 93.28 197.382 95.44C197.382 96.2 196.682 96.76 195.362 96.76C194.102 96.76 193.242 96.02 193.162 95.12H190.802C190.902 97.12 192.762 98.68 195.402 98.68C198.002 98.68 199.622 97.28 199.622 95.42ZM206.726 89.22C208.426 89.22 209.766 90.3 209.806 92H203.706C203.946 90.26 205.186 89.22 206.726 89.22ZM211.886 95.22H209.426C209.006 96.08 208.226 96.76 206.826 96.76C205.146 96.76 203.846 95.66 203.686 93.84H212.106C212.166 93.46 212.186 93.1 212.186 92.72C212.186 89.48 209.966 87.3 206.826 87.3C203.566 87.3 201.326 89.52 201.326 92.98C201.326 96.44 203.666 98.68 206.826 98.68C209.526 98.68 211.266 97.14 211.886 95.22ZM213.67 92.94C213.67 96.34 215.97 98.68 218.83 98.68C220.67 98.68 221.99 97.8 222.69 96.86V98.5H224.99V87.48H222.69V89.08C222.01 88.18 220.73 87.3 218.87 87.3C215.97 87.3 213.67 89.54 213.67 92.94ZM222.69 92.98C222.69 95.36 221.07 96.7 219.35 96.7C217.65 96.7 216.01 95.32 216.01 92.94C216.01 90.56 217.65 89.28 219.35 89.28C221.07 89.28 222.69 90.62 222.69 92.98ZM230.264 92.7C230.264 90.36 231.304 89.66 232.984 89.66H233.564V87.3C232.004 87.3 230.904 87.98 230.264 89.08V87.48H227.984V98.5H230.264V92.7ZM234.9 92.98C234.9 96.44 237.14 98.68 240.3 98.68C243 98.68 244.76 97.18 245.38 95.02H242.92C242.5 96.16 241.66 96.76 240.3 96.76C238.46 96.76 237.24 95.4 237.24 92.98C237.24 90.58 238.46 89.22 240.3 89.22C241.66 89.22 242.54 89.9 242.92 90.96H245.38C244.76 88.64 243 87.3 240.3 87.3C237.14 87.3 234.9 89.54 234.9 92.98ZM247.652 98.5H249.932V92.34C249.932 90.32 251.032 89.28 252.712 89.28C254.372 89.28 255.472 90.32 255.472 92.34V98.5H257.732V92C257.732 88.92 255.812 87.3 253.352 87.3C251.932 87.3 250.692 87.84 249.932 88.76V83.7H247.652V98.5ZM265.116 86.46H268.836V98.5H271.116V86.46H274.816V84.6H265.116V86.46ZM281.765 89.22C283.465 89.22 284.805 90.3 284.845 92H278.745C278.985 90.26 280.225 89.22 281.765 89.22ZM286.925 95.22H284.465C284.045 96.08 283.265 96.76 281.865 96.76C280.185 96.76 278.885 95.66 278.725 93.84H287.145C287.205 93.46 287.225 93.1 287.225 92.72C287.225 89.48 285.005 87.3 281.865 87.3C278.605 87.3 276.365 89.52 276.365 92.98C276.365 96.44 278.705 98.68 281.865 98.68C284.565 98.68 286.305 97.14 286.925 95.22ZM288.709 92.98C288.709 96.44 290.949 98.68 294.109 98.68C296.809 98.68 298.569 97.18 299.189 95.02H296.729C296.309 96.16 295.469 96.76 294.109 96.76C292.269 96.76 291.049 95.4 291.049 92.98C291.049 90.58 292.269 89.22 294.109 89.22C295.469 89.22 296.349 89.9 296.729 90.96H299.189C298.569 88.64 296.809 87.3 294.109 87.3C290.949 87.3 288.709 89.54 288.709 92.98ZM301.461 98.5H303.741V92.34C303.741 90.32 304.841 89.28 306.521 89.28C308.181 89.28 309.281 90.32 309.281 92.34V98.5H311.541V92C311.541 88.92 309.621 87.3 307.161 87.3C305.741 87.3 304.501 87.84 303.741 88.76V83.7H301.461V98.5ZM322.269 98.5H324.529V92C324.529 88.92 322.589 87.3 320.009 87.3C318.689 87.3 317.469 87.84 316.729 88.74V87.48H314.449V98.5H316.729V92.34C316.729 90.32 317.829 89.28 319.509 89.28C321.169 89.28 322.269 90.32 322.269 92.34V98.5ZM327.438 98.5H329.718V87.48H327.438V98.5ZM328.598 86.02C329.398 86.02 330.038 85.38 330.038 84.56C330.038 83.74 329.398 83.1 328.598 83.1C327.778 83.1 327.138 83.74 327.138 84.56C327.138 85.38 327.778 86.02 328.598 86.02ZM331.951 92.94C331.951 96.34 334.251 98.68 337.091 98.68C338.951 98.68 340.331 97.76 340.971 96.9V103.74H343.271V87.48H340.971V89.08C340.331 88.18 338.991 87.3 337.171 87.3C334.251 87.3 331.951 89.54 331.951 92.94ZM340.971 92.98C340.971 95.36 339.351 96.7 337.631 96.7C335.931 96.7 334.291 95.32 334.291 92.94C334.291 90.56 335.931 89.28 337.631 89.28C339.351 89.28 340.971 90.62 340.971 92.98ZM356.246 87.48H353.966V93.62C353.966 95.64 352.866 96.68 351.186 96.68C349.526 96.68 348.426 95.64 348.426 93.62V87.48H346.166V93.96C346.166 97.04 348.126 98.66 350.706 98.66C352.006 98.66 353.246 98.12 353.966 97.18V98.5H356.246V87.48ZM363.894 89.22C365.594 89.22 366.934 90.3 366.974 92H360.874C361.114 90.26 362.354 89.22 363.894 89.22ZM369.054 95.22H366.594C366.174 96.08 365.394 96.76 363.994 96.76C362.314 96.76 361.014 95.66 360.854 93.84H369.274C369.334 93.46 369.354 93.1 369.354 92.72C369.354 89.48 367.134 87.3 363.994 87.3C360.734 87.3 358.494 89.52 358.494 92.98C358.494 96.44 360.834 98.68 363.994 98.68C366.694 98.68 368.434 97.14 369.054 95.22ZM379.818 95.42C379.698 91.44 373.478 92.68 373.478 90.46C373.478 89.72 374.118 89.22 375.338 89.22C376.578 89.22 377.318 89.88 377.398 90.84H379.678C379.558 88.64 377.918 87.3 375.418 87.3C372.818 87.3 371.178 88.72 371.178 90.48C371.178 94.52 377.578 93.28 377.578 95.44C377.578 96.2 376.878 96.76 375.558 96.76C374.298 96.76 373.438 96.02 373.358 95.12H370.998C371.098 97.12 372.958 98.68 375.598 98.68C378.198 98.68 379.818 97.28 379.818 95.42Z" fill="#212832"/>
<rect x="0.5" y="66.5" width="616" height="49" stroke="black" stroke-opacity="0.5"/>
<rect y="180" width="617" height="50" fill="white"/>
<path d="M24.6 208.44C26.08 208.44 27.24 207.3 27.24 205.84C27.24 204.36 26.08 203.22 24.6 203.22C23.16 203.22 22 204.36 22 205.84C22 207.3 23.16 208.44 24.6 208.44ZM45.6689 198.6H41.1289V212.5H45.6689C50.1289 212.5 53.0489 209.88 53.0489 205.6C53.0489 201.3 50.1289 198.6 45.6689 198.6ZM43.4089 210.64V200.46H45.6689C48.9489 200.46 50.7089 202.42 50.7089 205.6C50.7089 208.76 48.9489 210.64 45.6689 210.64H43.4089ZM54.5486 206.94C54.5486 210.34 56.8486 212.68 59.7086 212.68C61.5486 212.68 62.8686 211.8 63.5686 210.86V212.5H65.8686V201.48H63.5686V203.08C62.8886 202.18 61.6086 201.3 59.7486 201.3C56.8486 201.3 54.5486 203.54 54.5486 206.94ZM63.5686 206.98C63.5686 209.36 61.9486 210.7 60.2286 210.7C58.5286 210.7 56.8886 209.32 56.8886 206.94C56.8886 204.56 58.5286 203.28 60.2286 203.28C61.9486 203.28 63.5686 204.62 63.5686 206.98ZM69.2233 209.44C69.2233 211.68 70.4433 212.5 72.4033 212.5H74.2033V210.6H72.8033C71.8433 210.6 71.5233 210.26 71.5233 209.44V203.34H74.2033V201.48H71.5233V198.74H69.2233V201.48H67.9233V203.34H69.2233V209.44ZM75.5447 206.94C75.5447 210.34 77.8447 212.68 80.7047 212.68C82.5447 212.68 83.8647 211.8 84.5647 210.86V212.5H86.8647V201.48H84.5647V203.08C83.8847 202.18 82.6047 201.3 80.7447 201.3C77.8447 201.3 75.5447 203.54 75.5447 206.94ZM84.5647 206.98C84.5647 209.36 82.9447 210.7 81.2247 210.7C79.5247 210.7 77.8847 209.32 77.8847 206.94C77.8847 204.56 79.5247 203.28 81.2247 203.28C82.9447 203.28 84.5647 204.62 84.5647 206.98ZM92.1394 203.12V197.7H89.8594V212.5H92.1394V210.9C92.8594 211.86 94.1594 212.68 95.9794 212.68C98.8794 212.68 101.159 210.34 101.159 206.94C101.159 203.54 98.8994 201.3 95.9794 201.3C94.2394 201.3 92.8594 202.12 92.1394 203.12ZM98.8394 206.94C98.8394 209.32 97.1994 210.7 95.4794 210.7C93.7794 210.7 92.1394 209.36 92.1394 206.98C92.1394 204.62 93.7794 203.28 95.4794 203.28C97.1994 203.28 98.8394 204.56 98.8394 206.94ZM102.654 206.94C102.654 210.34 104.954 212.68 107.814 212.68C109.654 212.68 110.974 211.8 111.674 210.86V212.5H113.974V201.48H111.674V203.08C110.994 202.18 109.714 201.3 107.854 201.3C104.954 201.3 102.654 203.54 102.654 206.94ZM111.674 206.98C111.674 209.36 110.054 210.7 108.334 210.7C106.634 210.7 104.994 209.32 104.994 206.94C104.994 204.56 106.634 203.28 108.334 203.28C110.054 203.28 111.674 204.62 111.674 206.98ZM125.189 209.42C125.069 205.44 118.849 206.68 118.849 204.46C118.849 203.72 119.489 203.22 120.709 203.22C121.949 203.22 122.689 203.88 122.769 204.84H125.049C124.929 202.64 123.289 201.3 120.789 201.3C118.189 201.3 116.549 202.72 116.549 204.48C116.549 208.52 122.949 207.28 122.949 209.44C122.949 210.2 122.249 210.76 120.929 210.76C119.669 210.76 118.809 210.02 118.729 209.12H116.369C116.469 211.12 118.329 212.68 120.969 212.68C123.569 212.68 125.189 211.28 125.189 209.42ZM132.292 203.22C133.992 203.22 135.332 204.3 135.372 206H129.272C129.512 204.26 130.752 203.22 132.292 203.22ZM137.452 209.22H134.992C134.572 210.08 133.792 210.76 132.392 210.76C130.712 210.76 129.412 209.66 129.252 207.84H137.672C137.732 207.46 137.752 207.1 137.752 206.72C137.752 203.48 135.532 201.3 132.392 201.3C129.132 201.3 126.892 203.52 126.892 206.98C126.892 210.44 129.232 212.68 132.392 212.68C135.092 212.68 136.832 211.14 137.452 209.22ZM145.191 212.5H147.471V202.98L151.731 212.5H153.311L157.551 202.98V212.5H159.831V198.6H157.391L152.531 209.5L147.651 198.6H145.191V212.5ZM162.068 206.94C162.068 210.34 164.368 212.68 167.228 212.68C169.068 212.68 170.388 211.8 171.088 210.86V212.5H173.388V201.48H171.088V203.08C170.408 202.18 169.128 201.3 167.268 201.3C164.368 201.3 162.068 203.54 162.068 206.94ZM171.088 206.98C171.088 209.36 169.468 210.7 167.748 210.7C166.048 210.7 164.408 209.32 164.408 206.94C164.408 204.56 166.048 203.28 167.748 203.28C169.468 203.28 171.088 204.62 171.088 206.98ZM184.203 212.5H186.463V206C186.463 202.92 184.523 201.3 181.943 201.3C180.623 201.3 179.403 201.84 178.663 202.74V201.48H176.383V212.5H178.663V206.34C178.663 204.32 179.763 203.28 181.443 203.28C183.103 203.28 184.203 204.32 184.203 206.34V212.5ZM188.611 206.94C188.611 210.34 190.911 212.68 193.771 212.68C195.611 212.68 196.931 211.8 197.631 210.86V212.5H199.931V201.48H197.631V203.08C196.951 202.18 195.671 201.3 193.811 201.3C190.911 201.3 188.611 203.54 188.611 206.94ZM197.631 206.98C197.631 209.36 196.011 210.7 194.291 210.7C192.591 210.7 190.951 209.32 190.951 206.94C190.951 204.56 192.591 203.28 194.291 203.28C196.011 203.28 197.631 204.62 197.631 206.98ZM202.166 206.94C202.166 210.34 204.466 212.68 207.366 212.68C209.166 212.68 210.486 211.78 211.186 210.84V212.68C211.186 214.88 209.866 215.96 208.106 215.96C206.526 215.96 205.306 215.18 204.966 214.04H202.706C202.986 216.48 205.166 217.94 208.106 217.94C211.546 217.94 213.486 215.68 213.486 212.68V201.48H211.186V203.08C210.506 202.14 209.166 201.3 207.366 201.3C204.466 201.3 202.166 203.54 202.166 206.94ZM211.186 206.98C211.186 209.36 209.566 210.7 207.846 210.7C206.146 210.7 204.506 209.32 204.506 206.94C204.506 204.56 206.146 203.28 207.846 203.28C209.566 203.28 211.186 204.62 211.186 206.98ZM221.12 203.22C222.82 203.22 224.16 204.3 224.2 206H218.1C218.34 204.26 219.58 203.22 221.12 203.22ZM226.28 209.22H223.82C223.4 210.08 222.62 210.76 221.22 210.76C219.54 210.76 218.24 209.66 218.08 207.84H226.5C226.56 207.46 226.58 207.1 226.58 206.72C226.58 203.48 224.36 201.3 221.22 201.3C217.96 201.3 215.72 203.52 215.72 206.98C215.72 210.44 218.06 212.68 221.22 212.68C223.92 212.68 225.66 211.14 226.28 209.22ZM244.444 212.5H246.704V206C246.704 202.92 244.744 201.3 242.164 201.3C240.564 201.3 239.004 202.14 238.324 203.48C237.564 202.04 236.104 201.3 234.364 201.3C233.044 201.3 231.844 201.84 231.104 202.74V201.48H228.824V212.5H231.104V206.34C231.104 204.32 232.204 203.28 233.884 203.28C235.544 203.28 236.644 204.32 236.644 206.34V212.5H238.904V206.34C238.904 204.32 240.004 203.28 241.684 203.28C243.344 203.28 244.444 204.32 244.444 206.34V212.5ZM254.245 203.22C255.945 203.22 257.285 204.3 257.325 206H251.225C251.465 204.26 252.705 203.22 254.245 203.22ZM259.405 209.22H256.945C256.525 210.08 255.745 210.76 254.345 210.76C252.665 210.76 251.365 209.66 251.205 207.84H259.625C259.685 207.46 259.705 207.1 259.705 206.72C259.705 203.48 257.485 201.3 254.345 201.3C251.085 201.3 248.845 203.52 248.845 206.98C248.845 210.44 251.185 212.68 254.345 212.68C257.045 212.68 258.785 211.14 259.405 209.22ZM269.769 212.5H272.029V206C272.029 202.92 270.089 201.3 267.509 201.3C266.189 201.3 264.969 201.84 264.229 202.74V201.48H261.949V212.5H264.229V206.34C264.229 204.32 265.329 203.28 267.009 203.28C268.669 203.28 269.769 204.32 269.769 206.34V212.5ZM275.298 209.44C275.298 211.68 276.518 212.5 278.478 212.5H280.278V210.6H278.878C277.918 210.6 277.598 210.26 277.598 209.44V203.34H280.278V201.48H277.598V198.74H275.298V201.48H273.998V203.34H275.298V209.44ZM296.954 208.56C296.954 203.48 289.594 205.44 289.594 202.3C289.594 200.96 290.614 200.32 291.934 200.36C293.374 200.4 294.194 201.26 294.274 202.2H296.794C296.594 199.82 294.714 198.42 292.054 198.42C289.214 198.42 287.274 199.94 287.274 202.38C287.274 207.5 294.654 205.32 294.654 208.68C294.654 209.86 293.754 210.72 292.154 210.72C290.574 210.72 289.774 209.8 289.674 208.66H287.234C287.234 211.12 289.374 212.64 292.154 212.64C295.254 212.64 296.954 210.64 296.954 208.56ZM303.985 209.88L300.885 201.48H298.345L302.685 212.32L300.445 217.68H302.805L309.565 201.48H307.205L303.985 209.88ZM319.505 209.42C319.385 205.44 313.165 206.68 313.165 204.46C313.165 203.72 313.805 203.22 315.025 203.22C316.265 203.22 317.005 203.88 317.085 204.84H319.365C319.245 202.64 317.605 201.3 315.105 201.3C312.505 201.3 310.865 202.72 310.865 204.48C310.865 208.52 317.265 207.28 317.265 209.44C317.265 210.2 316.565 210.76 315.245 210.76C313.985 210.76 313.125 210.02 313.045 209.12H310.685C310.785 211.12 312.645 212.68 315.285 212.68C317.885 212.68 319.505 211.28 319.505 209.42ZM322.329 209.44C322.329 211.68 323.549 212.5 325.509 212.5H327.309V210.6H325.909C324.949 210.6 324.629 210.26 324.629 209.44V203.34H327.309V201.48H324.629V198.74H322.329V201.48H321.029V203.34H322.329V209.44ZM334.05 203.22C335.75 203.22 337.09 204.3 337.13 206H331.03C331.27 204.26 332.51 203.22 334.05 203.22ZM339.21 209.22H336.75C336.33 210.08 335.55 210.76 334.15 210.76C332.47 210.76 331.17 209.66 331.01 207.84H339.43C339.49 207.46 339.51 207.1 339.51 206.72C339.51 203.48 337.29 201.3 334.15 201.3C330.89 201.3 328.65 203.52 328.65 206.98C328.65 210.44 330.99 212.68 334.15 212.68C336.85 212.68 338.59 211.14 339.21 209.22ZM357.374 212.5H359.634V206C359.634 202.92 357.674 201.3 355.094 201.3C353.494 201.3 351.934 202.14 351.254 203.48C350.494 202.04 349.034 201.3 347.294 201.3C345.974 201.3 344.774 201.84 344.034 202.74V201.48H341.754V212.5H344.034V206.34C344.034 204.32 345.134 203.28 346.814 203.28C348.474 203.28 349.574 204.32 349.574 206.34V212.5H351.834V206.34C351.834 204.32 352.934 203.28 354.614 203.28C356.274 203.28 357.374 204.32 357.374 206.34V212.5ZM370.755 209.42C370.635 205.44 364.415 206.68 364.415 204.46C364.415 203.72 365.055 203.22 366.275 203.22C367.515 203.22 368.255 203.88 368.335 204.84H370.615C370.495 202.64 368.855 201.3 366.355 201.3C363.755 201.3 362.115 202.72 362.115 204.48C362.115 208.52 368.515 207.28 368.515 209.44C368.515 210.2 367.815 210.76 366.495 210.76C365.235 210.76 364.375 210.02 364.295 209.12H361.935C362.035 211.12 363.895 212.68 366.535 212.68C369.135 212.68 370.755 211.28 370.755 209.42ZM378.414 212.5H380.694V198.6H378.414V212.5ZM383.688 212.5H385.968V198.6H383.688V212.5Z" fill="#212832"/>
<rect x="0.5" y="180.5" width="616" height="49" stroke="black" stroke-opacity="0.5"/>
<rect y="123" width="617" height="50" fill="white"/>
<path d="M24.6 151.44C26.08 151.44 27.24 150.3 27.24 148.84C27.24 147.36 26.08 146.22 24.6 146.22C23.16 146.22 22 147.36 22 148.84C22 150.3 23.16 151.44 24.6 151.44ZM41.1289 155.5H43.4089V145.98L47.6689 155.5H49.2489L53.4889 145.98V155.5H55.7689V141.6H53.3289L48.4689 152.5L43.5889 141.6H41.1289V155.5ZM68.7456 144.48H66.4656V150.62C66.4656 152.64 65.3656 153.68 63.6856 153.68C62.0256 153.68 60.9256 152.64 60.9256 150.62V144.48H58.6656V150.96C58.6656 154.04 60.6256 155.66 63.2056 155.66C64.5056 155.66 65.7456 155.12 66.4656 154.18V155.5H68.7456V144.48ZM71.7539 155.5H74.0339V140.7H71.7539V155.5ZM77.3873 152.44C77.3873 154.68 78.6073 155.5 80.5673 155.5H82.3673V153.6H80.9673C80.0073 153.6 79.6873 153.26 79.6873 152.44V146.34H82.3673V144.48H79.6873V141.74H77.3873V144.48H76.0873V146.34H77.3873V152.44ZM84.4688 155.5H86.7488V144.48H84.4688V155.5ZM85.6288 143.02C86.4288 143.02 87.0688 142.38 87.0688 141.56C87.0688 140.74 86.4288 140.1 85.6288 140.1C84.8088 140.1 84.1688 140.74 84.1688 141.56C84.1688 142.38 84.8088 143.02 85.6288 143.02ZM105.362 155.5H107.622V149C107.622 145.92 105.662 144.3 103.082 144.3C101.482 144.3 99.9222 145.14 99.2422 146.48C98.4822 145.04 97.0222 144.3 95.2822 144.3C93.9622 144.3 92.7622 144.84 92.0222 145.74V144.48H89.7422V155.5H92.0222V149.34C92.0222 147.32 93.1222 146.28 94.8022 146.28C96.4622 146.28 97.5622 147.32 97.5622 149.34V155.5H99.8222V149.34C99.8222 147.32 100.922 146.28 102.602 146.28C104.262 146.28 105.362 147.32 105.362 149.34V155.5ZM115.163 146.22C116.863 146.22 118.203 147.3 118.243 149H112.143C112.383 147.26 113.623 146.22 115.163 146.22ZM120.323 152.22H117.863C117.443 153.08 116.663 153.76 115.263 153.76C113.583 153.76 112.283 152.66 112.123 150.84H120.543C120.603 150.46 120.623 150.1 120.623 149.72C120.623 146.48 118.403 144.3 115.263 144.3C112.003 144.3 109.763 146.52 109.763 149.98C109.763 153.44 112.103 155.68 115.263 155.68C117.963 155.68 119.703 154.14 120.323 152.22ZM122.107 149.94C122.107 153.34 124.407 155.68 127.307 155.68C129.107 155.68 130.427 154.84 131.127 153.84V155.5H133.427V140.7H131.127V146.02C130.287 144.98 128.767 144.3 127.327 144.3C124.407 144.3 122.107 146.54 122.107 149.94ZM131.127 149.98C131.127 152.36 129.507 153.7 127.787 153.7C126.087 153.7 124.447 152.32 124.447 149.94C124.447 147.56 126.087 146.28 127.787 146.28C129.507 146.28 131.127 147.62 131.127 149.98ZM136.422 155.5H138.702V144.48H136.422V155.5ZM137.582 143.02C138.382 143.02 139.022 142.38 139.022 141.56C139.022 140.74 138.382 140.1 137.582 140.1C136.762 140.1 136.122 140.74 136.122 141.56C136.122 142.38 136.762 143.02 137.582 143.02ZM140.935 149.94C140.935 153.34 143.235 155.68 146.095 155.68C147.935 155.68 149.255 154.8 149.955 153.86V155.5H152.255V144.48H149.955V146.08C149.275 145.18 147.995 144.3 146.135 144.3C143.235 144.3 140.935 146.54 140.935 149.94ZM149.955 149.98C149.955 152.36 148.335 153.7 146.615 153.7C144.915 153.7 143.275 152.32 143.275 149.94C143.275 147.56 144.915 146.28 146.615 146.28C148.335 146.28 149.955 147.62 149.955 149.98ZM159.685 149.94C159.685 153.34 161.985 155.68 164.845 155.68C166.685 155.68 168.005 154.8 168.705 153.86V155.5H171.005V144.48H168.705V146.08C168.025 145.18 166.745 144.3 164.885 144.3C161.985 144.3 159.685 146.54 159.685 149.94ZM168.705 149.98C168.705 152.36 167.085 153.7 165.365 153.7C163.665 153.7 162.025 152.32 162.025 149.94C162.025 147.56 163.665 146.28 165.365 146.28C167.085 146.28 168.705 147.62 168.705 149.98ZM181.82 155.5H184.08V149C184.08 145.92 182.14 144.3 179.56 144.3C178.24 144.3 177.02 144.84 176.28 145.74V144.48H174V155.5H176.28V149.34C176.28 147.32 177.38 146.28 179.06 146.28C180.72 146.28 181.82 147.32 181.82 149.34V155.5ZM186.228 149.94C186.228 153.34 188.528 155.68 191.428 155.68C193.228 155.68 194.548 154.84 195.248 153.84V155.5H197.548V140.7H195.248V146.02C194.408 144.98 192.888 144.3 191.448 144.3C188.528 144.3 186.228 146.54 186.228 149.94ZM195.248 149.98C195.248 152.36 193.628 153.7 191.908 153.7C190.208 153.7 188.568 152.32 188.568 149.94C188.568 147.56 190.208 146.28 191.908 146.28C193.628 146.28 195.248 147.62 195.248 149.98ZM212.078 141.42C208.158 141.42 204.978 144.36 204.978 148.52C204.978 152.7 208.158 155.62 212.078 155.62C215.818 155.62 218.538 152.88 218.958 149.66V147.88H211.298V149.7H216.518C216.178 152.04 214.598 153.56 212.078 153.56C209.318 153.56 207.318 151.58 207.318 148.52C207.318 145.46 209.318 143.5 212.078 143.5C213.738 143.5 215.058 144.2 215.798 145.6H218.538C217.478 142.88 214.978 141.42 212.078 141.42ZM223.487 149.7C223.487 147.36 224.527 146.66 226.207 146.66H226.787V144.3C225.227 144.3 224.127 144.98 223.487 146.08V144.48H221.207V155.5H223.487V149.7ZM228.123 149.94C228.123 153.34 230.423 155.68 233.283 155.68C235.123 155.68 236.443 154.8 237.143 153.86V155.5H239.443V144.48H237.143V146.08C236.463 145.18 235.183 144.3 233.323 144.3C230.423 144.3 228.123 146.54 228.123 149.94ZM237.143 149.98C237.143 152.36 235.523 153.7 233.803 153.7C232.103 153.7 230.463 152.32 230.463 149.94C230.463 147.56 232.103 146.28 233.803 146.28C235.523 146.28 237.143 147.62 237.143 149.98ZM244.718 146.1V144.48H242.438V160.74H244.718V153.9C245.438 154.76 246.738 155.68 248.558 155.68C251.458 155.68 253.738 153.34 253.738 149.94C253.738 146.54 251.458 144.3 248.558 144.3C246.758 144.3 245.418 145.18 244.718 146.1ZM251.418 149.94C251.418 152.32 249.778 153.7 248.058 153.7C246.358 153.7 244.718 152.36 244.718 149.98C244.718 147.62 246.358 146.28 248.058 146.28C249.778 146.28 251.418 147.56 251.418 149.94ZM255.992 155.5H258.272V149.34C258.272 147.32 259.372 146.28 261.052 146.28C262.712 146.28 263.812 147.32 263.812 149.34V155.5H266.072V149C266.072 145.92 264.152 144.3 261.692 144.3C260.272 144.3 259.032 144.84 258.272 145.76V140.7H255.992V155.5ZM268.98 155.5H271.26V144.48H268.98V155.5ZM270.14 143.02C270.94 143.02 271.58 142.38 271.58 141.56C271.58 140.74 270.94 140.1 270.14 140.1C269.32 140.1 268.68 140.74 268.68 141.56C268.68 142.38 269.32 143.02 270.14 143.02ZM273.494 149.98C273.494 153.44 275.734 155.68 278.894 155.68C281.594 155.68 283.354 154.18 283.974 152.02H281.514C281.094 153.16 280.254 153.76 278.894 153.76C277.054 153.76 275.834 152.4 275.834 149.98C275.834 147.58 277.054 146.22 278.894 146.22C280.254 146.22 281.134 146.9 281.514 147.96H283.974C283.354 145.64 281.594 144.3 278.894 144.3C275.734 144.3 273.494 146.54 273.494 149.98ZM294.466 152.42C294.346 148.44 288.126 149.68 288.126 147.46C288.126 146.72 288.766 146.22 289.986 146.22C291.226 146.22 291.966 146.88 292.046 147.84H294.326C294.206 145.64 292.566 144.3 290.066 144.3C287.466 144.3 285.826 145.72 285.826 147.48C285.826 151.52 292.226 150.28 292.226 152.44C292.226 153.2 291.526 153.76 290.206 153.76C288.946 153.76 288.086 153.02 288.006 152.12H285.646C285.746 154.12 287.606 155.68 290.246 155.68C292.846 155.68 294.466 154.28 294.466 152.42Z" fill="#212832"/>
<rect x="0.5" y="123.5" width="616" height="49" stroke="black" stroke-opacity="0.5"/>
<rect y="237" width="617" height="50" fill="white"/>
<path d="M24.6 265.44C26.08 265.44 27.24 264.3 27.24 262.84C27.24 261.36 26.08 260.22 24.6 260.22C23.16 260.22 22 261.36 22 262.84C22 264.3 23.16 265.44 24.6 265.44ZM41.1289 269.5H43.4089V255.6H41.1289V269.5ZM54.2223 269.5H56.4823V263C56.4823 259.92 54.5423 258.3 51.9623 258.3C50.6423 258.3 49.4223 258.84 48.6823 259.74V258.48H46.4023V269.5H48.6823V263.34C48.6823 261.32 49.7823 260.28 51.4623 260.28C53.1223 260.28 54.2223 261.32 54.2223 263.34V269.5ZM59.7506 266.44C59.7506 268.68 60.9706 269.5 62.9306 269.5H64.7306V267.6H63.3306C62.3706 267.6 62.0506 267.26 62.0506 266.44V260.34H64.7306V258.48H62.0506V255.74H59.7506V258.48H58.4506V260.34H59.7506V266.44ZM69.112 263.7C69.112 261.36 70.152 260.66 71.832 260.66H72.412V258.3C70.852 258.3 69.752 258.98 69.112 260.08V258.48H66.832V269.5H69.112V263.7ZM85.0078 263.98C85.0078 260.52 82.5278 258.3 79.3878 258.3C76.2478 258.3 73.7678 260.52 73.7678 263.98C73.7678 267.44 76.1478 269.68 79.2878 269.68C82.4478 269.68 85.0078 267.44 85.0078 263.98ZM76.0878 263.98C76.0878 261.48 77.6278 260.28 79.3478 260.28C81.0478 260.28 82.6678 261.48 82.6678 263.98C82.6678 266.48 80.9878 267.7 79.2878 267.7C77.5678 267.7 76.0878 266.48 76.0878 263.98ZM86.5017 263.94C86.5017 267.34 88.8017 269.68 91.7017 269.68C93.5017 269.68 94.8217 268.84 95.5217 267.84V269.5H97.8217V254.7H95.5217V260.02C94.6817 258.98 93.1617 258.3 91.7217 258.3C88.8017 258.3 86.5017 260.54 86.5017 263.94ZM95.5217 263.98C95.5217 266.36 93.9017 267.7 92.1817 267.7C90.4817 267.7 88.8417 266.32 88.8417 263.94C88.8417 261.56 90.4817 260.28 92.1817 260.28C93.9017 260.28 95.5217 261.62 95.5217 263.98ZM110.796 258.48H108.516V264.62C108.516 266.64 107.416 267.68 105.736 267.68C104.076 267.68 102.976 266.64 102.976 264.62V258.48H100.716V264.96C100.716 268.04 102.676 269.66 105.256 269.66C106.556 269.66 107.796 269.12 108.516 268.18V269.5H110.796V258.48ZM113.045 263.98C113.045 267.44 115.285 269.68 118.445 269.68C121.145 269.68 122.905 268.18 123.525 266.02H121.065C120.645 267.16 119.805 267.76 118.445 267.76C116.605 267.76 115.385 266.4 115.385 263.98C115.385 261.58 116.605 260.22 118.445 260.22C119.805 260.22 120.685 260.9 121.065 261.96H123.525C122.905 259.64 121.145 258.3 118.445 258.3C115.285 258.3 113.045 260.54 113.045 263.98ZM126.157 266.44C126.157 268.68 127.377 269.5 129.337 269.5H131.137V267.6H129.737C128.777 267.6 128.457 267.26 128.457 266.44V260.34H131.137V258.48H128.457V255.74H126.157V258.48H124.857V260.34H126.157V266.44ZM133.238 269.5H135.518V258.48H133.238V269.5ZM134.398 257.02C135.198 257.02 135.838 256.38 135.838 255.56C135.838 254.74 135.198 254.1 134.398 254.1C133.578 254.1 132.938 254.74 132.938 255.56C132.938 256.38 133.578 257.02 134.398 257.02ZM149.012 263.98C149.012 260.52 146.532 258.3 143.392 258.3C140.252 258.3 137.772 260.52 137.772 263.98C137.772 267.44 140.152 269.68 143.292 269.68C146.452 269.68 149.012 267.44 149.012 263.98ZM140.092 263.98C140.092 261.48 141.632 260.28 143.352 260.28C145.052 260.28 146.672 261.48 146.672 263.98C146.672 266.48 144.992 267.7 143.292 267.7C141.572 267.7 140.092 266.48 140.092 263.98ZM159.086 269.5H161.346V263C161.346 259.92 159.406 258.3 156.826 258.3C155.506 258.3 154.286 258.84 153.546 259.74V258.48H151.266V269.5H153.546V263.34C153.546 261.32 154.646 260.28 156.326 260.28C157.986 260.28 159.086 261.32 159.086 263.34V269.5ZM169.809 266.44C169.809 268.68 171.029 269.5 172.989 269.5H174.789V267.6H173.389C172.429 267.6 172.109 267.26 172.109 266.44V260.34H174.789V258.48H172.109V255.74H169.809V258.48H168.509V260.34H169.809V266.44ZM187.391 263.98C187.391 260.52 184.911 258.3 181.771 258.3C178.631 258.3 176.151 260.52 176.151 263.98C176.151 267.44 178.531 269.68 181.671 269.68C184.831 269.68 187.391 267.44 187.391 263.98ZM178.471 263.98C178.471 261.48 180.011 260.28 181.731 260.28C183.431 260.28 185.051 261.48 185.051 263.98C185.051 266.48 183.371 267.7 181.671 267.7C179.951 267.7 178.471 266.48 178.471 263.98ZM204.22 265.56C204.22 260.48 196.86 262.44 196.86 259.3C196.86 257.96 197.88 257.32 199.2 257.36C200.64 257.4 201.46 258.26 201.54 259.2H204.06C203.86 256.82 201.98 255.42 199.32 255.42C196.48 255.42 194.54 256.94 194.54 259.38C194.54 264.5 201.92 262.32 201.92 265.68C201.92 266.86 201.02 267.72 199.42 267.72C197.84 267.72 197.04 266.8 196.94 265.66H194.5C194.5 268.12 196.64 269.64 199.42 269.64C202.52 269.64 204.22 267.64 204.22 265.56ZM217.41 263.98C217.41 260.52 214.93 258.3 211.79 258.3C208.65 258.3 206.17 260.52 206.17 263.98C206.17 267.44 208.55 269.68 211.69 269.68C214.85 269.68 217.41 267.44 217.41 263.98ZM208.49 263.98C208.49 261.48 210.03 260.28 211.75 260.28C213.45 260.28 215.07 261.48 215.07 263.98C215.07 266.48 213.39 267.7 211.69 267.7C209.97 267.7 208.49 266.48 208.49 263.98ZM219.944 269.5H222.244V260.34H224.284V258.48H222.244V257.7C222.244 256.44 222.724 255.96 224.124 255.96V254.06C221.244 254.06 219.944 255.16 219.944 257.7V258.48H218.644V260.34H219.944V269.5ZM226.665 266.44C226.665 268.68 227.885 269.5 229.845 269.5H231.645V267.6H230.245C229.285 267.6 228.965 267.26 228.965 266.44V260.34H231.645V258.48H228.965V255.74H226.665V258.48H225.365V260.34H226.665V266.44ZM235.886 269.5H238.286L240.506 261.36L242.726 269.5H245.126L248.546 258.48H246.306L244.026 267.3L241.786 258.48H239.406L237.066 267.34L234.766 258.48H232.446L235.886 269.5ZM249.49 263.94C249.49 267.34 251.79 269.68 254.65 269.68C256.49 269.68 257.81 268.8 258.51 267.86V269.5H260.81V258.48H258.51V260.08C257.83 259.18 256.55 258.3 254.69 258.3C251.79 258.3 249.49 260.54 249.49 263.94ZM258.51 263.98C258.51 266.36 256.89 267.7 255.17 267.7C253.47 267.7 251.83 266.32 251.83 263.94C251.83 261.56 253.47 260.28 255.17 260.28C256.89 260.28 258.51 261.62 258.51 263.98ZM266.085 263.7C266.085 261.36 267.125 260.66 268.805 260.66H269.385V258.3C267.825 258.3 266.725 258.98 266.085 260.08V258.48H263.805V269.5H266.085V263.7ZM276.12 260.22C277.82 260.22 279.16 261.3 279.2 263H273.1C273.34 261.26 274.58 260.22 276.12 260.22ZM281.28 266.22H278.82C278.4 267.08 277.62 267.76 276.22 267.76C274.54 267.76 273.24 266.66 273.08 264.84H281.5C281.56 264.46 281.58 264.1 281.58 263.72C281.58 260.48 279.36 258.3 276.22 258.3C272.96 258.3 270.72 260.52 270.72 263.98C270.72 267.44 273.06 269.68 276.22 269.68C278.92 269.68 280.66 268.14 281.28 266.22ZM296.7 255.58H289.02V269.5H296.7V267.64H291.3V263.38H296.1V261.52H291.3V257.44H296.7V255.58ZM307.328 269.5H309.588V263C309.588 259.92 307.648 258.3 305.068 258.3C303.748 258.3 302.528 258.84 301.788 259.74V258.48H299.508V269.5H301.788V263.34C301.788 261.32 302.888 260.28 304.568 260.28C306.228 260.28 307.328 261.32 307.328 263.34V269.5ZM311.736 263.94C311.736 267.34 314.036 269.68 316.936 269.68C318.736 269.68 320.056 268.78 320.756 267.84V269.68C320.756 271.88 319.436 272.96 317.676 272.96C316.096 272.96 314.876 272.18 314.536 271.04H312.276C312.556 273.48 314.736 274.94 317.676 274.94C321.116 274.94 323.056 272.68 323.056 269.68V258.48H320.756V260.08C320.076 259.14 318.736 258.3 316.936 258.3C314.036 258.3 311.736 260.54 311.736 263.94ZM320.756 263.98C320.756 266.36 319.136 267.7 317.416 267.7C315.716 267.7 314.076 266.32 314.076 263.94C314.076 261.56 315.716 260.28 317.416 260.28C319.136 260.28 320.756 261.62 320.756 263.98ZM326.051 269.5H328.331V258.48H326.051V269.5ZM327.211 257.02C328.011 257.02 328.651 256.38 328.651 255.56C328.651 254.74 328.011 254.1 327.211 254.1C326.391 254.1 325.751 254.74 325.751 255.56C325.751 256.38 326.391 257.02 327.211 257.02ZM339.144 269.5H341.404V263C341.404 259.92 339.464 258.3 336.884 258.3C335.564 258.3 334.344 258.84 333.604 259.74V258.48H331.324V269.5H333.604V263.34C333.604 261.32 334.704 260.28 336.384 260.28C338.044 260.28 339.144 261.32 339.144 263.34V269.5ZM348.953 260.22C350.653 260.22 351.993 261.3 352.033 263H345.933C346.173 261.26 347.413 260.22 348.953 260.22ZM354.112 266.22H351.653C351.233 267.08 350.453 267.76 349.053 267.76C347.373 267.76 346.073 266.66 345.913 264.84H354.333C354.393 264.46 354.413 264.1 354.413 263.72C354.413 260.48 352.193 258.3 349.053 258.3C345.793 258.3 343.553 260.52 343.553 263.98C343.553 267.44 345.893 269.68 349.053 269.68C351.753 269.68 353.493 268.14 354.112 266.22ZM361.296 260.22C362.996 260.22 364.336 261.3 364.376 263H358.276C358.516 261.26 359.756 260.22 361.296 260.22ZM366.456 266.22H363.996C363.576 267.08 362.796 267.76 361.396 267.76C359.716 267.76 358.416 266.66 358.256 264.84H366.676C366.736 264.46 366.756 264.1 366.756 263.72C366.756 260.48 364.536 258.3 361.396 258.3C358.136 258.3 355.896 260.52 355.896 263.98C355.896 267.44 358.236 269.68 361.396 269.68C364.096 269.68 365.836 268.14 366.456 266.22ZM371.28 263.7C371.28 261.36 372.32 260.66 374 260.66H374.58V258.3C373.02 258.3 371.92 258.98 371.28 260.08V258.48H369V269.5H371.28V263.7ZM376.676 269.5H378.956V258.48H376.676V269.5ZM377.836 257.02C378.636 257.02 379.276 256.38 379.276 255.56C379.276 254.74 378.636 254.1 377.836 254.1C377.016 254.1 376.376 254.74 376.376 255.56C376.376 256.38 377.016 257.02 377.836 257.02ZM389.769 269.5H392.029V263C392.029 259.92 390.089 258.3 387.509 258.3C386.189 258.3 384.969 258.84 384.229 259.74V258.48H381.949V269.5H384.229V263.34C384.229 261.32 385.329 260.28 387.009 260.28C388.669 260.28 389.769 261.32 389.769 263.34V269.5ZM394.178 263.94C394.178 267.34 396.478 269.68 399.378 269.68C401.178 269.68 402.498 268.78 403.198 267.84V269.68C403.198 271.88 401.878 272.96 400.118 272.96C398.538 272.96 397.318 272.18 396.978 271.04H394.718C394.998 273.48 397.178 274.94 400.118 274.94C403.558 274.94 405.498 272.68 405.498 269.68V258.48H403.198V260.08C402.518 259.14 401.178 258.3 399.378 258.3C396.478 258.3 394.178 260.54 394.178 263.94ZM403.198 263.98C403.198 266.36 401.578 267.7 399.858 267.7C398.158 267.7 396.518 266.32 396.518 263.94C396.518 261.56 398.158 260.28 399.858 260.28C401.578 260.28 403.198 261.62 403.198 263.98Z" fill="#212832"/>
<rect x="0.5" y="237.5" width="616" height="49" stroke="black" stroke-opacity="0.5"/>
<rect width="617" height="58" fill="#3498DB"/>
<path d="M33.925 32.95C33.925 26.8 24.975 28.75 24.975 25.25C24.975 23.825 26 23.15 27.375 23.2C28.875 23.225 29.8 24.125 29.875 25.275H33.725C33.5 22.125 31.05 20.3 27.475 20.3C23.875 20.3 21.325 22.2 21.325 25.35C21.3 31.675 30.3 29.4 30.3 33.175C30.3 34.425 29.325 35.3 27.675 35.3C26.05 35.3 25.125 34.375 25.025 32.975H21.275C21.325 36.275 24.125 38.175 27.75 38.175C31.725 38.175 33.925 35.7 33.925 32.95ZM43.4094 26.8C45.2094 26.8 46.6594 27.95 46.7094 29.775H40.1344C40.4094 27.875 41.7344 26.8 43.4094 26.8ZM49.9844 33.65H46.2094C45.7594 34.575 44.9344 35.325 43.4344 35.325C41.6844 35.325 40.2844 34.175 40.1094 32.125H50.2344C50.3094 31.675 50.3344 31.225 50.3344 30.775C50.3344 26.65 47.5094 23.925 43.5094 23.925C39.4094 23.925 36.5594 26.7 36.5594 31.075C36.5594 35.425 39.4844 38.225 43.5094 38.225C46.9344 38.225 49.2344 36.2 49.9844 33.65ZM72.7641 38H76.2641V29.875C76.2641 26.05 73.9141 23.95 70.5891 23.95C68.5641 23.95 66.7391 25.025 65.8391 26.6C64.8891 24.875 63.1141 23.95 60.9641 23.95C59.2391 23.95 57.7641 24.675 56.8891 25.825V24.15H53.3891V38H56.8891V30.35C56.8891 28.15 58.1141 27 60.0141 27C61.8641 27 63.0891 28.15 63.0891 30.35V38H66.5891V30.35C66.5891 28.15 67.8141 27 69.6891 27C71.5391 27 72.7641 28.15 72.7641 30.35V38ZM86.0354 26.8C87.8354 26.8 89.2854 27.95 89.3354 29.775H82.7604C83.0354 27.875 84.3604 26.8 86.0354 26.8ZM92.6104 33.65H88.8354C88.3854 34.575 87.5604 35.325 86.0604 35.325C84.3104 35.325 82.9104 34.175 82.7354 32.125H92.8604C92.9354 31.675 92.9604 31.225 92.9604 30.775C92.9604 26.65 90.1354 23.925 86.1354 23.925C82.0354 23.925 79.1854 26.7 79.1854 31.075C79.1854 35.425 82.1104 38.225 86.1354 38.225C89.5604 38.225 91.8604 36.2 92.6104 33.65ZM106.765 34.05C106.665 28.975 98.99 30.55 98.99 28.025C98.99 27.225 99.665 26.7 100.965 26.7C102.34 26.7 103.19 27.425 103.29 28.5H106.64C106.44 25.75 104.415 23.925 101.065 23.925C97.64 23.925 95.59 25.775 95.59 28.075C95.59 33.15 103.415 31.575 103.415 34.05C103.415 34.85 102.665 35.475 101.29 35.475C99.89 35.475 98.915 34.675 98.79 33.625H95.265C95.415 36.2 97.84 38.225 101.315 38.225C104.69 38.225 106.765 36.425 106.765 34.05ZM110.688 33.7C110.688 36.875 112.463 38 115.113 38H117.313V35.05H115.688C114.588 35.05 114.213 34.65 114.213 33.725V27.025H117.313V24.15H114.213V20.725H110.688V24.15H109.038V27.025H110.688V33.7ZM126.28 26.8C128.08 26.8 129.53 27.95 129.58 29.775H123.005C123.28 27.875 124.605 26.8 126.28 26.8ZM132.855 33.65H129.08C128.63 34.575 127.805 35.325 126.305 35.325C124.555 35.325 123.155 34.175 122.98 32.125H133.105C133.18 31.675 133.205 31.225 133.205 30.775C133.205 26.65 130.38 23.925 126.38 23.925C122.28 23.925 119.43 26.7 119.43 31.075C119.43 35.425 122.355 38.225 126.38 38.225C129.805 38.225 132.105 36.2 132.855 33.65ZM139.76 31.1C139.76 28.425 141.01 27.625 143.085 27.625H144.01V23.95C142.085 23.95 140.635 24.875 139.76 26.3V24.15H136.26V38H139.76V31.1ZM161.525 38H165.025V34.45H167.225V31.4H165.025V20H160.95L152.775 31.7V34.45H161.525V38ZM156.625 31.4L161.75 23.75V31.4H156.625Z" fill="white"/>
</svg>
