<svg width="617" height="287" viewBox="0 0 617 287" fill="none" xmlns="http://www.w3.org/2000/svg">
<rect width="617" height="58" fill="#3498DB"/>
<path d="M33.925 32.95C33.925 26.8 24.975 28.75 24.975 25.25C24.975 23.825 26 23.15 27.375 23.2C28.875 23.225 29.8 24.125 29.875 25.275H33.725C33.5 22.125 31.05 20.3 27.475 20.3C23.875 20.3 21.325 22.2 21.325 25.35C21.3 31.675 30.3 29.4 30.3 33.175C30.3 34.425 29.325 35.3 27.675 35.3C26.05 35.3 25.125 34.375 25.025 32.975H21.275C21.325 36.275 24.125 38.175 27.75 38.175C31.725 38.175 33.925 35.7 33.925 32.95ZM43.4094 26.8C45.2094 26.8 46.6594 27.95 46.7094 29.775H40.1344C40.4094 27.875 41.7344 26.8 43.4094 26.8ZM49.9844 33.65H46.2094C45.7594 34.575 44.9344 35.325 43.4344 35.325C41.6844 35.325 40.2844 34.175 40.1094 32.125H50.2344C50.3094 31.675 50.3344 31.225 50.3344 30.775C50.3344 26.65 47.5094 23.925 43.5094 23.925C39.4094 23.925 36.5594 26.7 36.5594 31.075C36.5594 35.425 39.4844 38.225 43.5094 38.225C46.9344 38.225 49.2344 36.2 49.9844 33.65ZM72.7641 38H76.2641V29.875C76.2641 26.05 73.9141 23.95 70.5891 23.95C68.5641 23.95 66.7391 25.025 65.8391 26.6C64.8891 24.875 63.1141 23.95 60.9641 23.95C59.2391 23.95 57.7641 24.675 56.8891 25.825V24.15H53.3891V38H56.8891V30.35C56.8891 28.15 58.1141 27 60.0141 27C61.8641 27 63.0891 28.15 63.0891 30.35V38H66.5891V30.35C66.5891 28.15 67.8141 27 69.6891 27C71.5391 27 72.7641 28.15 72.7641 30.35V38ZM86.0354 26.8C87.8354 26.8 89.2854 27.95 89.3354 29.775H82.7604C83.0354 27.875 84.3604 26.8 86.0354 26.8ZM92.6104 33.65H88.8354C88.3854 34.575 87.5604 35.325 86.0604 35.325C84.3104 35.325 82.9104 34.175 82.7354 32.125H92.8604C92.9354 31.675 92.9604 31.225 92.9604 30.775C92.9604 26.65 90.1354 23.925 86.1354 23.925C82.0354 23.925 79.1854 26.7 79.1854 31.075C79.1854 35.425 82.1104 38.225 86.1354 38.225C89.5604 38.225 91.8604 36.2 92.6104 33.65ZM106.765 34.05C106.665 28.975 98.99 30.55 98.99 28.025C98.99 27.225 99.665 26.7 100.965 26.7C102.34 26.7 103.19 27.425 103.29 28.5H106.64C106.44 25.75 104.415 23.925 101.065 23.925C97.64 23.925 95.59 25.775 95.59 28.075C95.59 33.15 103.415 31.575 103.415 34.05C103.415 34.85 102.665 35.475 101.29 35.475C99.89 35.475 98.915 34.675 98.79 33.625H95.265C95.415 36.2 97.84 38.225 101.315 38.225C104.69 38.225 106.765 36.425 106.765 34.05ZM110.688 33.7C110.688 36.875 112.463 38 115.113 38H117.313V35.05H115.688C114.588 35.05 114.213 34.65 114.213 33.725V27.025H117.313V24.15H114.213V20.725H110.688V24.15H109.038V27.025H110.688V33.7ZM126.28 26.8C128.08 26.8 129.53 27.95 129.58 29.775H123.005C123.28 27.875 124.605 26.8 126.28 26.8ZM132.855 33.65H129.08C128.63 34.575 127.805 35.325 126.305 35.325C124.555 35.325 123.155 34.175 122.98 32.125H133.105C133.18 31.675 133.205 31.225 133.205 30.775C133.205 26.65 130.38 23.925 126.38 23.925C122.28 23.925 119.43 26.7 119.43 31.075C119.43 35.425 122.355 38.225 126.38 38.225C129.805 38.225 132.105 36.2 132.855 33.65ZM139.76 31.1C139.76 28.425 141.01 27.625 143.085 27.625H144.01V23.95C142.085 23.95 140.635 24.875 139.76 26.3V24.15H136.26V38H139.76V31.1ZM152.975 24.575H156.4C156.525 23.425 157.25 22.325 158.95 22.325C160.55 22.325 161.425 23.175 161.425 24.6C161.425 26.4 159.925 26.975 157.875 26.975H157.15V29.85H157.875C160.475 29.85 161.775 30.6 161.775 32.65C161.775 34.1 160.875 35.2 159.125 35.2C157.25 35.2 156.2 34.075 156.125 32.5H152.725C152.875 36.325 155.6 38.125 159.2 38.125C163.025 38.125 165.125 35.925 165.125 32.95C165.125 30.475 163.9 28.975 162.05 28.4V28.3C163.375 27.85 164.8 26.45 164.8 24.175C164.8 21.475 162.8 19.35 159.05 19.35C155.55 19.35 153.15 21.2 152.975 24.575Z" fill="white"/>
<rect y="66" width="617" height="50" fill="white"/>
<path d="M24.6 94.44C26.08 94.44 27.24 93.3 27.24 91.84C27.24 90.36 26.08 89.22 24.6 89.22C23.16 89.22 22 90.36 22 91.84C22 93.3 23.16 94.44 24.6 94.44ZM50.5089 94.56C50.5089 89.48 43.1489 91.44 43.1489 88.3C43.1489 86.96 44.1689 86.32 45.4889 86.36C46.9289 86.4 47.7489 87.26 47.8289 88.2H50.3489C50.1489 85.82 48.2689 84.42 45.6089 84.42C42.7689 84.42 40.8289 85.94 40.8289 88.38C40.8289 93.5 48.2089 91.32 48.2089 94.68C48.2089 95.86 47.3089 96.72 45.7089 96.72C44.1289 96.72 43.3289 95.8 43.2289 94.66H40.7889C40.7889 97.12 42.9289 98.64 45.7089 98.64C48.8089 98.64 50.5089 96.64 50.5089 94.56ZM53.5592 95.44C53.5592 97.68 54.7792 98.5 56.7392 98.5H58.5392V96.6H57.1392C56.1792 96.6 55.8592 96.26 55.8592 95.44V89.34H58.5392V87.48H55.8592V84.74H53.5592V87.48H52.2592V89.34H53.5592V95.44ZM59.8806 92.94C59.8806 96.34 62.1806 98.68 65.0406 98.68C66.8806 98.68 68.2006 97.8 68.9006 96.86V98.5H71.2006V87.48H68.9006V89.08C68.2206 88.18 66.9406 87.3 65.0806 87.3C62.1806 87.3 59.8806 89.54 59.8806 92.94ZM68.9006 92.98C68.9006 95.36 67.2806 96.7 65.5606 96.7C63.8606 96.7 62.2206 95.32 62.2206 92.94C62.2206 90.56 63.8606 89.28 65.5606 89.28C67.2806 89.28 68.9006 90.62 68.9006 92.98ZM74.5553 95.44C74.5553 97.68 75.7753 98.5 77.7353 98.5H79.5353V96.6H78.1353C77.1753 96.6 76.8553 96.26 76.8553 95.44V89.34H79.5353V87.48H76.8553V84.74H74.5553V87.48H73.2553V89.34H74.5553V95.44ZM81.6367 98.5H83.9167V87.48H81.6367V98.5ZM82.7967 86.02C83.5967 86.02 84.2367 85.38 84.2367 84.56C84.2367 83.74 83.5967 83.1 82.7967 83.1C81.9767 83.1 81.3367 83.74 81.3367 84.56C81.3367 85.38 81.9767 86.02 82.7967 86.02ZM95.1302 95.42C95.0102 91.44 88.7902 92.68 88.7902 90.46C88.7902 89.72 89.4302 89.22 90.6502 89.22C91.8902 89.22 92.6302 89.88 92.7102 90.84H94.9902C94.8702 88.64 93.2302 87.3 90.7302 87.3C88.1302 87.3 86.4902 88.72 86.4902 90.48C86.4902 94.52 92.8902 93.28 92.8902 95.44C92.8902 96.2 92.1902 96.76 90.8702 96.76C89.6102 96.76 88.7502 96.02 88.6702 95.12H86.3102C86.4102 97.12 88.2702 98.68 90.9102 98.68C93.5102 98.68 95.1302 97.28 95.1302 95.42ZM97.9538 95.44C97.9538 97.68 99.1738 98.5 101.134 98.5H102.934V96.6H101.534C100.574 96.6 100.254 96.26 100.254 95.44V89.34H102.934V87.48H100.254V84.74H97.9538V87.48H96.6538V89.34H97.9538V95.44ZM105.035 98.5H107.315V87.48H105.035V98.5ZM106.195 86.02C106.995 86.02 107.635 85.38 107.635 84.56C107.635 83.74 106.995 83.1 106.195 83.1C105.375 83.1 104.735 83.74 104.735 84.56C104.735 85.38 105.375 86.02 106.195 86.02ZM109.549 92.98C109.549 96.44 111.789 98.68 114.949 98.68C117.649 98.68 119.409 97.18 120.029 95.02H117.569C117.149 96.16 116.309 96.76 114.949 96.76C113.109 96.76 111.889 95.4 111.889 92.98C111.889 90.58 113.109 89.22 114.949 89.22C116.309 89.22 117.189 89.9 117.569 90.96H120.029C119.409 88.64 117.649 87.3 114.949 87.3C111.789 87.3 109.549 89.54 109.549 92.98ZM121.541 92.94C121.541 96.34 123.841 98.68 126.701 98.68C128.541 98.68 129.861 97.8 130.561 96.86V98.5H132.861V87.48H130.561V89.08C129.881 88.18 128.601 87.3 126.741 87.3C123.841 87.3 121.541 89.54 121.541 92.94ZM130.561 92.98C130.561 95.36 128.941 96.7 127.221 96.7C125.521 96.7 123.881 95.32 123.881 92.94C123.881 90.56 125.521 89.28 127.221 89.28C128.941 89.28 130.561 90.62 130.561 92.98ZM135.855 98.5H138.135V83.7H135.855V98.5ZM155.704 98.5H158.104L153.124 84.58H150.484L145.504 98.5H147.884L148.884 95.66H154.704L155.704 98.5ZM154.064 93.8H149.524L151.804 87.34L154.064 93.8ZM168.09 98.5H170.35V92C170.35 88.92 168.41 87.3 165.83 87.3C164.51 87.3 163.29 87.84 162.55 88.74V87.48H160.27V98.5H162.55V92.34C162.55 90.32 163.65 89.28 165.33 89.28C166.99 89.28 168.09 90.32 168.09 92.34V98.5ZM172.498 92.94C172.498 96.34 174.798 98.68 177.658 98.68C179.498 98.68 180.818 97.8 181.518 96.86V98.5H183.818V87.48H181.518V89.08C180.838 88.18 179.558 87.3 177.698 87.3C174.798 87.3 172.498 89.54 172.498 92.94ZM181.518 92.98C181.518 95.36 179.898 96.7 178.178 96.7C176.478 96.7 174.838 95.32 174.838 92.94C174.838 90.56 176.478 89.28 178.178 89.28C179.898 89.28 181.518 90.62 181.518 92.98ZM186.813 98.5H189.093V83.7H186.813V98.5ZM196.426 95.88L193.326 87.48H190.786L195.126 98.32L192.886 103.68H195.246L202.006 87.48H199.646L196.426 95.88ZM211.947 95.42C211.827 91.44 205.607 92.68 205.607 90.46C205.607 89.72 206.247 89.22 207.467 89.22C208.707 89.22 209.447 89.88 209.527 90.84H211.807C211.687 88.64 210.047 87.3 207.547 87.3C204.947 87.3 203.307 88.72 203.307 90.48C203.307 94.52 209.707 93.28 209.707 95.44C209.707 96.2 209.007 96.76 207.687 96.76C206.427 96.76 205.567 96.02 205.487 95.12H203.127C203.227 97.12 205.087 98.68 207.727 98.68C210.327 98.68 211.947 97.28 211.947 95.42ZM214.41 98.5H216.69V87.48H214.41V98.5ZM215.57 86.02C216.37 86.02 217.01 85.38 217.01 84.56C217.01 83.74 216.37 83.1 215.57 83.1C214.75 83.1 214.11 83.74 214.11 84.56C214.11 85.38 214.75 86.02 215.57 86.02ZM227.904 95.42C227.784 91.44 221.564 92.68 221.564 90.46C221.564 89.72 222.204 89.22 223.424 89.22C224.664 89.22 225.404 89.88 225.484 90.84H227.764C227.644 88.64 226.004 87.3 223.504 87.3C220.904 87.3 219.264 88.72 219.264 90.48C219.264 94.52 225.664 93.28 225.664 95.44C225.664 96.2 224.964 96.76 223.644 96.76C222.384 96.76 221.524 96.02 221.444 95.12H219.084C219.184 97.12 221.044 98.68 223.684 98.68C226.284 98.68 227.904 97.28 227.904 95.42Z" fill="#212832"/>
<rect x="0.5" y="66.5" width="616" height="49" stroke="black" stroke-opacity="0.5"/>
<rect y="180" width="617" height="50" fill="white"/>
<path d="M24.6 208.44C26.08 208.44 27.24 207.3 27.24 205.84C27.24 204.36 26.08 203.22 24.6 203.22C23.16 203.22 22 204.36 22 205.84C22 207.3 23.16 208.44 24.6 208.44ZM54.5689 205.52C54.5689 201.36 51.4289 198.42 47.4689 198.42C43.5489 198.42 40.3689 201.36 40.3689 205.52C40.3689 209.7 43.5489 212.64 47.4689 212.64C51.4289 212.64 54.5689 209.7 54.5689 205.52ZM42.7089 205.52C42.7089 202.38 44.7089 200.42 47.4689 200.42C50.2289 200.42 52.2289 202.38 52.2289 205.52C52.2289 208.66 50.2289 210.66 47.4689 210.66C44.7089 210.66 42.7089 208.66 42.7089 205.52ZM59.0925 203.1V201.48H56.8125V217.74H59.0925V210.9C59.8125 211.76 61.1125 212.68 62.9325 212.68C65.8325 212.68 68.1125 210.34 68.1125 206.94C68.1125 203.54 65.8325 201.3 62.9325 201.3C61.1325 201.3 59.7925 202.18 59.0925 203.1ZM65.7925 206.94C65.7925 209.32 64.1525 210.7 62.4325 210.7C60.7325 210.7 59.0925 209.36 59.0925 206.98C59.0925 204.62 60.7325 203.28 62.4325 203.28C64.1525 203.28 65.7925 204.56 65.7925 206.94ZM75.0072 203.22C76.7072 203.22 78.0472 204.3 78.0872 206H71.9872C72.2272 204.26 73.4672 203.22 75.0072 203.22ZM80.1672 209.22H77.7072C77.2872 210.08 76.5072 210.76 75.1072 210.76C73.4272 210.76 72.1272 209.66 71.9672 207.84H80.3872C80.4472 207.46 80.4672 207.1 80.4672 206.72C80.4672 203.48 78.2472 201.3 75.1072 201.3C71.8472 201.3 69.6072 203.52 69.6072 206.98C69.6072 210.44 71.9472 212.68 75.1072 212.68C77.8072 212.68 79.5472 211.14 80.1672 209.22ZM84.9909 206.7C84.9909 204.36 86.0309 203.66 87.7109 203.66H88.2909V201.3C86.7309 201.3 85.6309 201.98 84.9909 203.08V201.48H82.7109V212.5H84.9909V206.7ZM89.6267 206.94C89.6267 210.34 91.9267 212.68 94.7867 212.68C96.6267 212.68 97.9467 211.8 98.6467 210.86V212.5H100.947V201.48H98.6467V203.08C97.9667 202.18 96.6867 201.3 94.8267 201.3C91.9267 201.3 89.6267 203.54 89.6267 206.94ZM98.6467 206.98C98.6467 209.36 97.0267 210.7 95.3067 210.7C93.6067 210.7 91.9667 209.32 91.9667 206.94C91.9667 204.56 93.6067 203.28 95.3067 203.28C97.0267 203.28 98.6467 204.62 98.6467 206.98ZM104.301 209.44C104.301 211.68 105.521 212.5 107.481 212.5H109.281V210.6H107.881C106.921 210.6 106.601 210.26 106.601 209.44V203.34H109.281V201.48H106.601V198.74H104.301V201.48H103.001V203.34H104.301V209.44ZM111.383 212.5H113.663V201.48H111.383V212.5ZM112.543 200.02C113.343 200.02 113.983 199.38 113.983 198.56C113.983 197.74 113.343 197.1 112.543 197.1C111.723 197.1 111.083 197.74 111.083 198.56C111.083 199.38 111.723 200.02 112.543 200.02ZM124.476 212.5H126.736V206C126.736 202.92 124.796 201.3 122.216 201.3C120.896 201.3 119.676 201.84 118.936 202.74V201.48H116.656V212.5H118.936V206.34C118.936 204.32 120.036 203.28 121.716 203.28C123.376 203.28 124.476 204.32 124.476 206.34V212.5ZM128.885 206.94C128.885 210.34 131.185 212.68 134.085 212.68C135.885 212.68 137.205 211.78 137.905 210.84V212.68C137.905 214.88 136.585 215.96 134.825 215.96C133.245 215.96 132.025 215.18 131.685 214.04H129.425C129.705 216.48 131.885 217.94 134.825 217.94C138.265 217.94 140.205 215.68 140.205 212.68V201.48H137.905V203.08C137.225 202.14 135.885 201.3 134.085 201.3C131.185 201.3 128.885 203.54 128.885 206.94ZM137.905 206.98C137.905 209.36 136.285 210.7 134.565 210.7C132.865 210.7 131.225 209.32 131.225 206.94C131.225 204.56 132.865 203.28 134.565 203.28C136.285 203.28 137.905 204.62 137.905 206.98ZM157.775 208.56C157.775 203.48 150.415 205.44 150.415 202.3C150.415 200.96 151.435 200.32 152.755 200.36C154.195 200.4 155.015 201.26 155.095 202.2H157.615C157.415 199.82 155.535 198.42 152.875 198.42C150.035 198.42 148.095 199.94 148.095 202.38C148.095 207.5 155.475 205.32 155.475 208.68C155.475 209.86 154.575 210.72 152.975 210.72C151.395 210.72 150.595 209.8 150.495 208.66H148.055C148.055 211.12 150.195 212.64 152.975 212.64C156.075 212.64 157.775 210.64 157.775 208.56ZM164.805 209.88L161.705 201.48H159.165L163.505 212.32L161.265 217.68H163.625L170.385 201.48H168.025L164.805 209.88ZM180.325 209.42C180.205 205.44 173.985 206.68 173.985 204.46C173.985 203.72 174.625 203.22 175.845 203.22C177.085 203.22 177.825 203.88 177.905 204.84H180.185C180.065 202.64 178.425 201.3 175.925 201.3C173.325 201.3 171.685 202.72 171.685 204.48C171.685 208.52 178.085 207.28 178.085 209.44C178.085 210.2 177.385 210.76 176.065 210.76C174.805 210.76 173.945 210.02 173.865 209.12H171.505C171.605 211.12 173.465 212.68 176.105 212.68C178.705 212.68 180.325 211.28 180.325 209.42ZM183.149 209.44C183.149 211.68 184.369 212.5 186.329 212.5H188.129V210.6H186.729C185.769 210.6 185.449 210.26 185.449 209.44V203.34H188.129V201.48H185.449V198.74H183.149V201.48H181.849V203.34H183.149V209.44ZM194.87 203.22C196.57 203.22 197.91 204.3 197.95 206H191.85C192.09 204.26 193.33 203.22 194.87 203.22ZM200.03 209.22H197.57C197.15 210.08 196.37 210.76 194.97 210.76C193.29 210.76 191.99 209.66 191.83 207.84H200.25C200.31 207.46 200.33 207.1 200.33 206.72C200.33 203.48 198.11 201.3 194.97 201.3C191.71 201.3 189.47 203.52 189.47 206.98C189.47 210.44 191.81 212.68 194.97 212.68C197.67 212.68 199.41 211.14 200.03 209.22ZM218.194 212.5H220.454V206C220.454 202.92 218.494 201.3 215.914 201.3C214.314 201.3 212.754 202.14 212.074 203.48C211.314 202.04 209.854 201.3 208.114 201.3C206.794 201.3 205.594 201.84 204.854 202.74V201.48H202.574V212.5H204.854V206.34C204.854 204.32 205.954 203.28 207.634 203.28C209.294 203.28 210.394 204.32 210.394 206.34V212.5H212.654V206.34C212.654 204.32 213.754 203.28 215.434 203.28C217.094 203.28 218.194 204.32 218.194 206.34V212.5ZM231.575 209.42C231.455 205.44 225.235 206.68 225.235 204.46C225.235 203.72 225.875 203.22 227.095 203.22C228.335 203.22 229.075 203.88 229.155 204.84H231.435C231.315 202.64 229.675 201.3 227.175 201.3C224.575 201.3 222.935 202.72 222.935 204.48C222.935 208.52 229.335 207.28 229.335 209.44C229.335 210.2 228.635 210.76 227.315 210.76C226.055 210.76 225.195 210.02 225.115 209.12H222.755C222.855 211.12 224.715 212.68 227.355 212.68C229.955 212.68 231.575 211.28 231.575 209.42Z" fill="#212832"/>
<rect x="0.5" y="180.5" width="616" height="49" stroke="black" stroke-opacity="0.5"/>
<rect y="123" width="617" height="50" fill="white"/>
<path d="M24.6 151.44C26.08 151.44 27.24 150.3 27.24 148.84C27.24 147.36 26.08 146.22 24.6 146.22C23.16 146.22 22 147.36 22 148.84C22 150.3 23.16 151.44 24.6 151.44ZM41.1289 155.5H43.4089V141.6H41.1289V155.5ZM54.2223 155.5H56.4823V149C56.4823 145.92 54.5423 144.3 51.9623 144.3C50.6423 144.3 49.4223 144.84 48.6823 145.74V144.48H46.4023V155.5H48.6823V149.34C48.6823 147.32 49.7823 146.28 51.4623 146.28C53.1223 146.28 54.2223 147.32 54.2223 149.34V155.5ZM59.7506 152.44C59.7506 154.68 60.9706 155.5 62.9306 155.5H64.7306V153.6H63.3306C62.3706 153.6 62.0506 153.26 62.0506 152.44V146.34H64.7306V144.48H62.0506V141.74H59.7506V144.48H58.4506V146.34H59.7506V152.44ZM71.472 146.22C73.172 146.22 74.512 147.3 74.552 149H68.452C68.692 147.26 69.932 146.22 71.472 146.22ZM76.632 152.22H74.172C73.752 153.08 72.972 153.76 71.572 153.76C69.892 153.76 68.592 152.66 68.432 150.84H76.852C76.912 150.46 76.932 150.1 76.932 149.72C76.932 146.48 74.712 144.3 71.572 144.3C68.312 144.3 66.072 146.52 66.072 149.98C66.072 153.44 68.412 155.68 71.572 155.68C74.272 155.68 76.012 154.14 76.632 152.22ZM79.1758 155.5H81.4558V140.7H79.1758V155.5ZM84.4492 155.5H86.7292V140.7H84.4492V155.5ZM89.7227 155.5H92.0027V144.48H89.7227V155.5ZM90.8827 143.02C91.6827 143.02 92.3227 142.38 92.3227 141.56C92.3227 140.74 91.6827 140.1 90.8827 140.1C90.0627 140.1 89.4227 140.74 89.4227 141.56C89.4227 142.38 90.0627 143.02 90.8827 143.02ZM94.2361 149.94C94.2361 153.34 96.5361 155.68 99.4361 155.68C101.236 155.68 102.556 154.78 103.256 153.84V155.68C103.256 157.88 101.936 158.96 100.176 158.96C98.5961 158.96 97.3761 158.18 97.0361 157.04H94.7761C95.0561 159.48 97.2361 160.94 100.176 160.94C103.616 160.94 105.556 158.68 105.556 155.68V144.48H103.256V146.08C102.576 145.14 101.236 144.3 99.4361 144.3C96.5361 144.3 94.2361 146.54 94.2361 149.94ZM103.256 149.98C103.256 152.36 101.636 153.7 99.9161 153.7C98.2161 153.7 96.5761 152.32 96.5761 149.94C96.5761 147.56 98.2161 146.28 99.9161 146.28C101.636 146.28 103.256 147.62 103.256 149.98ZM113.191 146.22C114.891 146.22 116.231 147.3 116.271 149H110.171C110.411 147.26 111.651 146.22 113.191 146.22ZM118.351 152.22H115.891C115.471 153.08 114.691 153.76 113.291 153.76C111.611 153.76 110.311 152.66 110.151 150.84H118.571C118.631 150.46 118.651 150.1 118.651 149.72C118.651 146.48 116.431 144.3 113.291 144.3C110.031 144.3 107.791 146.52 107.791 149.98C107.791 153.44 110.131 155.68 113.291 155.68C115.991 155.68 117.731 154.14 118.351 152.22ZM128.715 155.5H130.975V149C130.975 145.92 129.035 144.3 126.455 144.3C125.135 144.3 123.915 144.84 123.175 145.74V144.48H120.895V155.5H123.175V149.34C123.175 147.32 124.275 146.28 125.955 146.28C127.615 146.28 128.715 147.32 128.715 149.34V155.5ZM134.243 152.44C134.243 154.68 135.463 155.5 137.423 155.5H139.223V153.6H137.823C136.863 153.6 136.543 153.26 136.543 152.44V146.34H139.223V144.48H136.543V141.74H134.243V144.48H132.943V146.34H134.243V152.44ZM155.9 151.56C155.9 146.48 148.54 148.44 148.54 145.3C148.54 143.96 149.56 143.32 150.88 143.36C152.32 143.4 153.14 144.26 153.22 145.2H155.74C155.54 142.82 153.66 141.42 151 141.42C148.16 141.42 146.22 142.94 146.22 145.38C146.22 150.5 153.6 148.32 153.6 151.68C153.6 152.86 152.7 153.72 151.1 153.72C149.52 153.72 148.72 152.8 148.62 151.66H146.18C146.18 154.12 148.32 155.64 151.1 155.64C154.2 155.64 155.9 153.64 155.9 151.56ZM162.93 152.88L159.83 144.48H157.29L161.63 155.32L159.39 160.68H161.75L168.51 144.48H166.15L162.93 152.88ZM178.45 152.42C178.33 148.44 172.11 149.68 172.11 147.46C172.11 146.72 172.75 146.22 173.97 146.22C175.21 146.22 175.95 146.88 176.03 147.84H178.31C178.19 145.64 176.55 144.3 174.05 144.3C171.45 144.3 169.81 145.72 169.81 147.48C169.81 151.52 176.21 150.28 176.21 152.44C176.21 153.2 175.51 153.76 174.19 153.76C172.93 153.76 172.07 153.02 171.99 152.12H169.63C169.73 154.12 171.59 155.68 174.23 155.68C176.83 155.68 178.45 154.28 178.45 152.42ZM181.274 152.44C181.274 154.68 182.494 155.5 184.454 155.5H186.254V153.6H184.854C183.894 153.6 183.574 153.26 183.574 152.44V146.34H186.254V144.48H183.574V141.74H181.274V144.48H179.974V146.34H181.274V152.44ZM192.995 146.22C194.695 146.22 196.035 147.3 196.075 149H189.975C190.215 147.26 191.455 146.22 192.995 146.22ZM198.155 152.22H195.695C195.275 153.08 194.495 153.76 193.095 153.76C191.415 153.76 190.115 152.66 189.955 150.84H198.375C198.435 150.46 198.455 150.1 198.455 149.72C198.455 146.48 196.235 144.3 193.095 144.3C189.835 144.3 187.595 146.52 187.595 149.98C187.595 153.44 189.935 155.68 193.095 155.68C195.795 155.68 197.535 154.14 198.155 152.22ZM216.319 155.5H218.579V149C218.579 145.92 216.619 144.3 214.039 144.3C212.439 144.3 210.879 145.14 210.199 146.48C209.439 145.04 207.979 144.3 206.239 144.3C204.919 144.3 203.719 144.84 202.979 145.74V144.48H200.699V155.5H202.979V149.34C202.979 147.32 204.079 146.28 205.759 146.28C207.419 146.28 208.519 147.32 208.519 149.34V155.5H210.779V149.34C210.779 147.32 211.879 146.28 213.559 146.28C215.219 146.28 216.319 147.32 216.319 149.34V155.5ZM229.7 152.42C229.58 148.44 223.36 149.68 223.36 147.46C223.36 146.72 224 146.22 225.22 146.22C226.46 146.22 227.2 146.88 227.28 147.84H229.56C229.44 145.64 227.8 144.3 225.3 144.3C222.7 144.3 221.06 145.72 221.06 147.48C221.06 151.52 227.46 150.28 227.46 152.44C227.46 153.2 226.76 153.76 225.44 153.76C224.18 153.76 223.32 153.02 223.24 152.12H220.88C220.98 154.12 222.84 155.68 225.48 155.68C228.08 155.68 229.7 154.28 229.7 152.42Z" fill="#212832"/>
<rect x="0.5" y="123.5" width="616" height="49" stroke="black" stroke-opacity="0.5"/>
<rect y="237" width="617" height="50" fill="white"/>
<path d="M24.6 265.44C26.08 265.44 27.24 264.3 27.24 262.84C27.24 261.36 26.08 260.22 24.6 260.22C23.16 260.22 22 261.36 22 262.84C22 264.3 23.16 265.44 24.6 265.44ZM41.1089 264.42C41.1089 267.96 43.5889 269.64 46.5089 269.64C49.4089 269.64 51.9689 267.96 51.9689 264.42V255.6H49.6889V264.46C49.6889 266.62 48.4689 267.64 46.5289 267.64C44.6089 267.64 43.3889 266.62 43.3889 264.46V255.6H41.1089V264.42ZM62.7575 269.5H65.0175V263C65.0175 259.92 63.0775 258.3 60.4975 258.3C59.1775 258.3 57.9575 258.84 57.2175 259.74V258.48H54.9375V269.5H57.2175V263.34C57.2175 261.32 58.3175 260.28 59.9975 260.28C61.6575 260.28 62.7575 261.32 62.7575 263.34V269.5ZM67.9258 269.5H70.2058V258.48H67.9258V269.5ZM69.0858 257.02C69.8858 257.02 70.5258 256.38 70.5258 255.56C70.5258 254.74 69.8858 254.1 69.0858 254.1C68.2658 254.1 67.6258 254.74 67.6258 255.56C67.6258 256.38 68.2658 257.02 69.0858 257.02ZM78.8992 269.5H81.4792L77.9192 263.92L81.4792 258.48H79.0992L76.8592 262.22L74.4792 258.48H71.8992L75.4592 264.08L71.8992 269.5H74.2792L76.5192 265.76L78.8992 269.5ZM87.615 263.94C87.615 267.34 89.915 269.68 92.775 269.68C94.615 269.68 95.935 268.8 96.635 267.86V269.5H98.935V258.48H96.635V260.08C95.955 259.18 94.675 258.3 92.815 258.3C89.915 258.3 87.615 260.54 87.615 263.94ZM96.635 263.98C96.635 266.36 95.015 267.7 93.295 267.7C91.595 267.7 89.955 266.32 89.955 263.94C89.955 261.56 91.595 260.28 93.295 260.28C95.015 260.28 96.635 261.62 96.635 263.98ZM109.75 269.5H112.01V263C112.01 259.92 110.07 258.3 107.49 258.3C106.17 258.3 104.95 258.84 104.21 259.74V258.48H101.93V269.5H104.21V263.34C104.21 261.32 105.31 260.28 106.99 260.28C108.65 260.28 109.75 261.32 109.75 263.34V269.5ZM114.158 263.94C114.158 267.34 116.458 269.68 119.358 269.68C121.158 269.68 122.478 268.84 123.178 267.84V269.5H125.478V254.7H123.178V260.02C122.338 258.98 120.818 258.3 119.378 258.3C116.458 258.3 114.158 260.54 114.158 263.94ZM123.178 263.98C123.178 266.36 121.558 267.7 119.838 267.7C118.138 267.7 116.498 266.32 116.498 263.94C116.498 261.56 118.138 260.28 119.838 260.28C121.558 260.28 123.178 261.62 123.178 263.98ZM143.048 265.56C143.048 260.48 135.688 262.44 135.688 259.3C135.688 257.96 136.708 257.32 138.028 257.36C139.468 257.4 140.288 258.26 140.368 259.2H142.888C142.688 256.82 140.808 255.42 138.148 255.42C135.308 255.42 133.368 256.94 133.368 259.38C133.368 264.5 140.748 262.32 140.748 265.68C140.748 266.86 139.848 267.72 138.248 267.72C136.668 267.72 135.868 266.8 135.768 265.66H133.328C133.328 268.12 135.468 269.64 138.248 269.64C141.348 269.64 143.048 267.64 143.048 265.56ZM145.738 269.5H148.018V263.34C148.018 261.32 149.118 260.28 150.798 260.28C152.458 260.28 153.558 261.32 153.558 263.34V269.5H155.818V263C155.818 259.92 153.898 258.3 151.438 258.3C150.018 258.3 148.778 258.84 148.018 259.76V254.7H145.738V269.5ZM163.367 260.22C165.067 260.22 166.407 261.3 166.447 263H160.347C160.587 261.26 161.827 260.22 163.367 260.22ZM168.527 266.22H166.067C165.647 267.08 164.867 267.76 163.467 267.76C161.787 267.76 160.487 266.66 160.327 264.84H168.747C168.807 264.46 168.827 264.1 168.827 263.72C168.827 260.48 166.607 258.3 163.467 258.3C160.207 258.3 157.967 260.52 157.967 263.98C157.967 267.44 160.307 269.68 163.467 269.68C166.167 269.68 167.907 268.14 168.527 266.22ZM171.07 269.5H173.35V254.7H171.07V269.5ZM176.344 269.5H178.624V254.7H176.344V269.5ZM189.093 262V257.46H191.613C193.393 257.46 194.193 258.3 194.193 259.74C194.193 261.14 193.393 262 191.613 262H189.093ZM196.533 259.74C196.533 257.48 194.913 255.6 191.613 255.6H186.813V269.5H189.093V263.86H191.613C195.233 263.86 196.533 261.72 196.533 259.74ZM200.987 263.7C200.987 261.36 202.027 260.66 203.707 260.66H204.287V258.3C202.727 258.3 201.627 258.98 200.987 260.08V258.48H198.707V269.5H200.987V263.7ZM216.883 263.98C216.883 260.52 214.403 258.3 211.263 258.3C208.123 258.3 205.643 260.52 205.643 263.98C205.643 267.44 208.023 269.68 211.163 269.68C214.323 269.68 216.883 267.44 216.883 263.98ZM207.963 263.98C207.963 261.48 209.503 260.28 211.223 260.28C212.923 260.28 214.543 261.48 214.543 263.98C214.543 266.48 212.863 267.7 211.163 267.7C209.443 267.7 207.963 266.48 207.963 263.98ZM218.377 263.94C218.377 267.34 220.677 269.68 223.577 269.68C225.377 269.68 226.697 268.78 227.397 267.84V269.68C227.397 271.88 226.077 272.96 224.317 272.96C222.737 272.96 221.517 272.18 221.177 271.04H218.917C219.197 273.48 221.377 274.94 224.317 274.94C227.757 274.94 229.697 272.68 229.697 269.68V258.48H227.397V260.08C226.717 259.14 225.377 258.3 223.577 258.3C220.677 258.3 218.377 260.54 218.377 263.94ZM227.397 263.98C227.397 266.36 225.777 267.7 224.057 267.7C222.357 267.7 220.717 266.32 220.717 263.94C220.717 261.56 222.357 260.28 224.057 260.28C225.777 260.28 227.397 261.62 227.397 263.98ZM234.971 263.7C234.971 261.36 236.011 260.66 237.691 260.66H238.271V258.3C236.711 258.3 235.611 258.98 234.971 260.08V258.48H232.691V269.5H234.971V263.7ZM239.607 263.94C239.607 267.34 241.907 269.68 244.767 269.68C246.607 269.68 247.927 268.8 248.627 267.86V269.5H250.927V258.48H248.627V260.08C247.947 259.18 246.667 258.3 244.807 258.3C241.907 258.3 239.607 260.54 239.607 263.94ZM248.627 263.98C248.627 266.36 247.007 267.7 245.287 267.7C243.587 267.7 241.947 266.32 241.947 263.94C241.947 261.56 243.587 260.28 245.287 260.28C247.007 260.28 248.627 261.62 248.627 263.98ZM269.542 269.5H271.802V263C271.802 259.92 269.842 258.3 267.262 258.3C265.662 258.3 264.102 259.14 263.422 260.48C262.662 259.04 261.202 258.3 259.462 258.3C258.142 258.3 256.942 258.84 256.202 259.74V258.48H253.922V269.5H256.202V263.34C256.202 261.32 257.302 260.28 258.982 260.28C260.642 260.28 261.742 261.32 261.742 263.34V269.5H264.002V263.34C264.002 261.32 265.102 260.28 266.782 260.28C268.442 260.28 269.542 261.32 269.542 263.34V269.5ZM290.323 269.5H292.583V263C292.583 259.92 290.623 258.3 288.043 258.3C286.443 258.3 284.883 259.14 284.203 260.48C283.443 259.04 281.983 258.3 280.243 258.3C278.923 258.3 277.723 258.84 276.983 259.74V258.48H274.703V269.5H276.983V263.34C276.983 261.32 278.083 260.28 279.763 260.28C281.423 260.28 282.523 261.32 282.523 263.34V269.5H284.783V263.34C284.783 261.32 285.883 260.28 287.563 260.28C289.223 260.28 290.323 261.32 290.323 263.34V269.5ZM295.484 269.5H297.764V258.48H295.484V269.5ZM296.644 257.02C297.444 257.02 298.084 256.38 298.084 255.56C298.084 254.74 297.444 254.1 296.644 254.1C295.824 254.1 295.184 254.74 295.184 255.56C295.184 256.38 295.824 257.02 296.644 257.02ZM308.578 269.5H310.838V263C310.838 259.92 308.898 258.3 306.318 258.3C304.998 258.3 303.778 258.84 303.038 259.74V258.48H300.758V269.5H303.038V263.34C303.038 261.32 304.138 260.28 305.818 260.28C307.478 260.28 308.578 261.32 308.578 263.34V269.5ZM312.986 263.94C312.986 267.34 315.286 269.68 318.186 269.68C319.986 269.68 321.306 268.78 322.006 267.84V269.68C322.006 271.88 320.686 272.96 318.926 272.96C317.346 272.96 316.126 272.18 315.786 271.04H313.526C313.806 273.48 315.986 274.94 318.926 274.94C322.366 274.94 324.306 272.68 324.306 269.68V258.48H322.006V260.08C321.326 259.14 319.986 258.3 318.186 258.3C315.286 258.3 312.986 260.54 312.986 263.94ZM322.006 263.98C322.006 266.36 320.386 267.7 318.666 267.7C316.966 267.7 315.326 266.32 315.326 263.94C315.326 261.56 316.966 260.28 318.666 260.28C320.386 260.28 322.006 261.62 322.006 263.98Z" fill="#212832"/>
<rect x="0.5" y="237.5" width="616" height="49" stroke="black" stroke-opacity="0.5"/>
</svg>
