<svg width="617" height="286" viewBox="0 0 617 286" fill="none" xmlns="http://www.w3.org/2000/svg">
<rect y="65" width="617" height="50" fill="white"/>
<path d="M24.6 93.44C26.08 93.44 27.24 92.3 27.24 90.84C27.24 89.36 26.08 88.22 24.6 88.22C23.16 88.22 22 89.36 22 90.84C22 92.3 23.16 93.44 24.6 93.44ZM50.5089 93.56C50.5089 88.48 43.1489 90.44 43.1489 87.3C43.1489 85.96 44.1689 85.32 45.4889 85.36C46.9289 85.4 47.7489 86.26 47.8289 87.2H50.3489C50.1489 84.82 48.2689 83.42 45.6089 83.42C42.7689 83.42 40.8289 84.94 40.8289 87.38C40.8289 92.5 48.2089 90.32 48.2089 93.68C48.2089 94.86 47.3089 95.72 45.7089 95.72C44.1289 95.72 43.3289 94.8 43.2289 93.66H40.7889C40.7889 96.12 42.9289 97.64 45.7089 97.64C48.8089 97.64 50.5089 95.64 50.5089 93.56ZM57.5392 94.88L54.4392 86.48H51.8992L56.2392 97.32L53.9992 102.68H56.3592L63.1192 86.48H60.7592L57.5392 94.88ZM73.0598 94.42C72.9398 90.44 66.7198 91.68 66.7198 89.46C66.7198 88.72 67.3598 88.22 68.5798 88.22C69.8198 88.22 70.5598 88.88 70.6398 89.84H72.9198C72.7998 87.64 71.1598 86.3 68.6598 86.3C66.0598 86.3 64.4198 87.72 64.4198 89.48C64.4198 93.52 70.8198 92.28 70.8198 94.44C70.8198 95.2 70.1198 95.76 68.7998 95.76C67.5398 95.76 66.6798 95.02 66.5998 94.12H64.2398C64.3398 96.12 66.1998 97.68 68.8398 97.68C71.4398 97.68 73.0598 96.28 73.0598 94.42ZM75.8834 94.44C75.8834 96.68 77.1034 97.5 79.0634 97.5H80.8634V95.6H79.4634C78.5034 95.6 78.1834 95.26 78.1834 94.44V88.34H80.8634V86.48H78.1834V83.74H75.8834V86.48H74.5834V88.34H75.8834V94.44ZM87.6048 88.22C89.3048 88.22 90.6448 89.3 90.6848 91H84.5848C84.8248 89.26 86.0648 88.22 87.6048 88.22ZM92.7648 94.22H90.3048C89.8848 95.08 89.1048 95.76 87.7048 95.76C86.0248 95.76 84.7248 94.66 84.5648 92.84H92.9848C93.0448 92.46 93.0648 92.1 93.0648 91.72C93.0648 88.48 90.8448 86.3 87.7048 86.3C84.4448 86.3 82.2048 88.52 82.2048 91.98C82.2048 95.44 84.5448 97.68 87.7048 97.68C90.4048 97.68 92.1448 96.14 92.7648 94.22ZM110.929 97.5H113.189V91C113.189 87.92 111.229 86.3 108.649 86.3C107.049 86.3 105.489 87.14 104.809 88.48C104.049 87.04 102.589 86.3 100.849 86.3C99.5286 86.3 98.3286 86.84 97.5886 87.74V86.48H95.3086V97.5H97.5886V91.34C97.5886 89.32 98.6886 88.28 100.369 88.28C102.029 88.28 103.129 89.32 103.129 91.34V97.5H105.389V91.34C105.389 89.32 106.489 88.28 108.169 88.28C109.829 88.28 110.929 89.32 110.929 91.34V97.5ZM124.31 94.42C124.19 90.44 117.97 91.68 117.97 89.46C117.97 88.72 118.61 88.22 119.83 88.22C121.07 88.22 121.81 88.88 121.89 89.84H124.17C124.05 87.64 122.41 86.3 119.91 86.3C117.31 86.3 115.67 87.72 115.67 89.48C115.67 93.52 122.07 92.28 122.07 94.44C122.07 95.2 121.37 95.76 120.05 95.76C118.79 95.76 117.93 95.02 117.85 94.12H115.49C115.59 96.12 117.45 97.68 120.09 97.68C122.69 97.68 124.31 96.28 124.31 94.42ZM141.349 97.5H143.749L138.769 83.58H136.129L131.149 97.5H133.529L134.529 94.66H140.349L141.349 97.5ZM139.709 92.8H135.169L137.449 86.34L139.709 92.8ZM153.734 97.5H155.994V91C155.994 87.92 154.054 86.3 151.474 86.3C150.154 86.3 148.934 86.84 148.194 87.74V86.48H145.914V97.5H148.194V91.34C148.194 89.32 149.294 88.28 150.974 88.28C152.634 88.28 153.734 89.32 153.734 91.34V97.5ZM158.142 91.94C158.142 95.34 160.442 97.68 163.302 97.68C165.142 97.68 166.462 96.8 167.162 95.86V97.5H169.462V86.48H167.162V88.08C166.482 87.18 165.202 86.3 163.342 86.3C160.442 86.3 158.142 88.54 158.142 91.94ZM167.162 91.98C167.162 94.36 165.542 95.7 163.822 95.7C162.122 95.7 160.482 94.32 160.482 91.94C160.482 89.56 162.122 88.28 163.822 88.28C165.542 88.28 167.162 89.62 167.162 91.98ZM172.457 97.5H174.737V82.7H172.457V97.5ZM182.07 94.88L178.97 86.48H176.43L180.77 97.32L178.53 102.68H180.89L187.65 86.48H185.29L182.07 94.88ZM197.591 94.42C197.471 90.44 191.251 91.68 191.251 89.46C191.251 88.72 191.891 88.22 193.111 88.22C194.351 88.22 195.091 88.88 195.171 89.84H197.451C197.331 87.64 195.691 86.3 193.191 86.3C190.591 86.3 188.951 87.72 188.951 89.48C188.951 93.52 195.351 92.28 195.351 94.44C195.351 95.2 194.651 95.76 193.331 95.76C192.071 95.76 191.211 95.02 191.131 94.12H188.771C188.871 96.12 190.731 97.68 193.371 97.68C195.971 97.68 197.591 96.28 197.591 94.42ZM200.055 97.5H202.335V86.48H200.055V97.5ZM201.215 85.02C202.015 85.02 202.655 84.38 202.655 83.56C202.655 82.74 202.015 82.1 201.215 82.1C200.395 82.1 199.755 82.74 199.755 83.56C199.755 84.38 200.395 85.02 201.215 85.02ZM213.548 94.42C213.428 90.44 207.208 91.68 207.208 89.46C207.208 88.72 207.848 88.22 209.068 88.22C210.308 88.22 211.048 88.88 211.128 89.84H213.408C213.288 87.64 211.648 86.3 209.148 86.3C206.548 86.3 204.908 87.72 204.908 89.48C204.908 93.52 211.308 92.28 211.308 94.44C211.308 95.2 210.608 95.76 209.288 95.76C208.028 95.76 207.168 95.02 207.088 94.12H204.728C204.828 96.12 206.688 97.68 209.328 97.68C211.928 97.68 213.548 96.28 213.548 94.42Z" fill="#212832"/>
<rect x="0.5" y="65.5" width="616" height="49" stroke="black" stroke-opacity="0.5"/>
<rect y="179" width="617" height="50" fill="white"/>
<path d="M24.6 207.44C26.08 207.44 27.24 206.3 27.24 204.84C27.24 203.36 26.08 202.22 24.6 202.22C23.16 202.22 22 203.36 22 204.84C22 206.3 23.16 207.44 24.6 207.44ZM45.6689 197.6H41.1289V211.5H45.6689C50.1289 211.5 53.0489 208.88 53.0489 204.6C53.0489 200.3 50.1289 197.6 45.6689 197.6ZM43.4089 209.64V199.46H45.6689C48.9489 199.46 50.7089 201.42 50.7089 204.6C50.7089 207.76 48.9489 209.64 45.6689 209.64H43.4089ZM54.5486 205.94C54.5486 209.34 56.8486 211.68 59.7086 211.68C61.5486 211.68 62.8686 210.8 63.5686 209.86V211.5H65.8686V200.48H63.5686V202.08C62.8886 201.18 61.6086 200.3 59.7486 200.3C56.8486 200.3 54.5486 202.54 54.5486 205.94ZM63.5686 205.98C63.5686 208.36 61.9486 209.7 60.2286 209.7C58.5286 209.7 56.8886 208.32 56.8886 205.94C56.8886 203.56 58.5286 202.28 60.2286 202.28C61.9486 202.28 63.5686 203.62 63.5686 205.98ZM69.2233 208.44C69.2233 210.68 70.4433 211.5 72.4033 211.5H74.2033V209.6H72.8033C71.8433 209.6 71.5233 209.26 71.5233 208.44V202.34H74.2033V200.48H71.5233V197.74H69.2233V200.48H67.9233V202.34H69.2233V208.44ZM75.5447 205.94C75.5447 209.34 77.8447 211.68 80.7047 211.68C82.5447 211.68 83.8647 210.8 84.5647 209.86V211.5H86.8647V200.48H84.5647V202.08C83.8847 201.18 82.6047 200.3 80.7447 200.3C77.8447 200.3 75.5447 202.54 75.5447 205.94ZM84.5647 205.98C84.5647 208.36 82.9447 209.7 81.2247 209.7C79.5247 209.7 77.8847 208.32 77.8847 205.94C77.8847 203.56 79.5247 202.28 81.2247 202.28C82.9447 202.28 84.5647 203.62 84.5647 205.98ZM92.1394 202.12V196.7H89.8594V211.5H92.1394V209.9C92.8594 210.86 94.1594 211.68 95.9794 211.68C98.8794 211.68 101.159 209.34 101.159 205.94C101.159 202.54 98.8994 200.3 95.9794 200.3C94.2394 200.3 92.8594 201.12 92.1394 202.12ZM98.8394 205.94C98.8394 208.32 97.1994 209.7 95.4794 209.7C93.7794 209.7 92.1394 208.36 92.1394 205.98C92.1394 203.62 93.7794 202.28 95.4794 202.28C97.1994 202.28 98.8394 203.56 98.8394 205.94ZM102.654 205.94C102.654 209.34 104.954 211.68 107.814 211.68C109.654 211.68 110.974 210.8 111.674 209.86V211.5H113.974V200.48H111.674V202.08C110.994 201.18 109.714 200.3 107.854 200.3C104.954 200.3 102.654 202.54 102.654 205.94ZM111.674 205.98C111.674 208.36 110.054 209.7 108.334 209.7C106.634 209.7 104.994 208.32 104.994 205.94C104.994 203.56 106.634 202.28 108.334 202.28C110.054 202.28 111.674 203.62 111.674 205.98ZM125.189 208.42C125.069 204.44 118.849 205.68 118.849 203.46C118.849 202.72 119.489 202.22 120.709 202.22C121.949 202.22 122.689 202.88 122.769 203.84H125.049C124.929 201.64 123.289 200.3 120.789 200.3C118.189 200.3 116.549 201.72 116.549 203.48C116.549 207.52 122.949 206.28 122.949 208.44C122.949 209.2 122.249 209.76 120.929 209.76C119.669 209.76 118.809 209.02 118.729 208.12H116.369C116.469 210.12 118.329 211.68 120.969 211.68C123.569 211.68 125.189 210.28 125.189 208.42ZM132.292 202.22C133.992 202.22 135.332 203.3 135.372 205H129.272C129.512 203.26 130.752 202.22 132.292 202.22ZM137.452 208.22H134.992C134.572 209.08 133.792 209.76 132.392 209.76C130.712 209.76 129.412 208.66 129.252 206.84H137.672C137.732 206.46 137.752 206.1 137.752 205.72C137.752 202.48 135.532 200.3 132.392 200.3C129.132 200.3 126.892 202.52 126.892 205.98C126.892 209.44 129.232 211.68 132.392 211.68C135.092 211.68 136.832 210.14 137.452 208.22ZM145.191 211.5H147.471V201.98L151.731 211.5H153.311L157.551 201.98V211.5H159.831V197.6H157.391L152.531 208.5L147.651 197.6H145.191V211.5ZM162.068 205.94C162.068 209.34 164.368 211.68 167.228 211.68C169.068 211.68 170.388 210.8 171.088 209.86V211.5H173.388V200.48H171.088V202.08C170.408 201.18 169.128 200.3 167.268 200.3C164.368 200.3 162.068 202.54 162.068 205.94ZM171.088 205.98C171.088 208.36 169.468 209.7 167.748 209.7C166.048 209.7 164.408 208.32 164.408 205.94C164.408 203.56 166.048 202.28 167.748 202.28C169.468 202.28 171.088 203.62 171.088 205.98ZM184.203 211.5H186.463V205C186.463 201.92 184.523 200.3 181.943 200.3C180.623 200.3 179.403 200.84 178.663 201.74V200.48H176.383V211.5H178.663V205.34C178.663 203.32 179.763 202.28 181.443 202.28C183.103 202.28 184.203 203.32 184.203 205.34V211.5ZM188.611 205.94C188.611 209.34 190.911 211.68 193.771 211.68C195.611 211.68 196.931 210.8 197.631 209.86V211.5H199.931V200.48H197.631V202.08C196.951 201.18 195.671 200.3 193.811 200.3C190.911 200.3 188.611 202.54 188.611 205.94ZM197.631 205.98C197.631 208.36 196.011 209.7 194.291 209.7C192.591 209.7 190.951 208.32 190.951 205.94C190.951 203.56 192.591 202.28 194.291 202.28C196.011 202.28 197.631 203.62 197.631 205.98ZM202.166 205.94C202.166 209.34 204.466 211.68 207.366 211.68C209.166 211.68 210.486 210.78 211.186 209.84V211.68C211.186 213.88 209.866 214.96 208.106 214.96C206.526 214.96 205.306 214.18 204.966 213.04H202.706C202.986 215.48 205.166 216.94 208.106 216.94C211.546 216.94 213.486 214.68 213.486 211.68V200.48H211.186V202.08C210.506 201.14 209.166 200.3 207.366 200.3C204.466 200.3 202.166 202.54 202.166 205.94ZM211.186 205.98C211.186 208.36 209.566 209.7 207.846 209.7C206.146 209.7 204.506 208.32 204.506 205.94C204.506 203.56 206.146 202.28 207.846 202.28C209.566 202.28 211.186 203.62 211.186 205.98ZM221.12 202.22C222.82 202.22 224.16 203.3 224.2 205H218.1C218.34 203.26 219.58 202.22 221.12 202.22ZM226.28 208.22H223.82C223.4 209.08 222.62 209.76 221.22 209.76C219.54 209.76 218.24 208.66 218.08 206.84H226.5C226.56 206.46 226.58 206.1 226.58 205.72C226.58 202.48 224.36 200.3 221.22 200.3C217.96 200.3 215.72 202.52 215.72 205.98C215.72 209.44 218.06 211.68 221.22 211.68C223.92 211.68 225.66 210.14 226.28 208.22ZM244.444 211.5H246.704V205C246.704 201.92 244.744 200.3 242.164 200.3C240.564 200.3 239.004 201.14 238.324 202.48C237.564 201.04 236.104 200.3 234.364 200.3C233.044 200.3 231.844 200.84 231.104 201.74V200.48H228.824V211.5H231.104V205.34C231.104 203.32 232.204 202.28 233.884 202.28C235.544 202.28 236.644 203.32 236.644 205.34V211.5H238.904V205.34C238.904 203.32 240.004 202.28 241.684 202.28C243.344 202.28 244.444 203.32 244.444 205.34V211.5ZM254.245 202.22C255.945 202.22 257.285 203.3 257.325 205H251.225C251.465 203.26 252.705 202.22 254.245 202.22ZM259.405 208.22H256.945C256.525 209.08 255.745 209.76 254.345 209.76C252.665 209.76 251.365 208.66 251.205 206.84H259.625C259.685 206.46 259.705 206.1 259.705 205.72C259.705 202.48 257.485 200.3 254.345 200.3C251.085 200.3 248.845 202.52 248.845 205.98C248.845 209.44 251.185 211.68 254.345 211.68C257.045 211.68 258.785 210.14 259.405 208.22ZM269.769 211.5H272.029V205C272.029 201.92 270.089 200.3 267.509 200.3C266.189 200.3 264.969 200.84 264.229 201.74V200.48H261.949V211.5H264.229V205.34C264.229 203.32 265.329 202.28 267.009 202.28C268.669 202.28 269.769 203.32 269.769 205.34V211.5ZM275.298 208.44C275.298 210.68 276.518 211.5 278.478 211.5H280.278V209.6H278.878C277.918 209.6 277.598 209.26 277.598 208.44V202.34H280.278V200.48H277.598V197.74H275.298V200.48H273.998V202.34H275.298V208.44ZM296.954 207.56C296.954 202.48 289.594 204.44 289.594 201.3C289.594 199.96 290.614 199.32 291.934 199.36C293.374 199.4 294.194 200.26 294.274 201.2H296.794C296.594 198.82 294.714 197.42 292.054 197.42C289.214 197.42 287.274 198.94 287.274 201.38C287.274 206.5 294.654 204.32 294.654 207.68C294.654 208.86 293.754 209.72 292.154 209.72C290.574 209.72 289.774 208.8 289.674 207.66H287.234C287.234 210.12 289.374 211.64 292.154 211.64C295.254 211.64 296.954 209.64 296.954 207.56ZM303.985 208.88L300.885 200.48H298.345L302.685 211.32L300.445 216.68H302.805L309.565 200.48H307.205L303.985 208.88ZM319.505 208.42C319.385 204.44 313.165 205.68 313.165 203.46C313.165 202.72 313.805 202.22 315.025 202.22C316.265 202.22 317.005 202.88 317.085 203.84H319.365C319.245 201.64 317.605 200.3 315.105 200.3C312.505 200.3 310.865 201.72 310.865 203.48C310.865 207.52 317.265 206.28 317.265 208.44C317.265 209.2 316.565 209.76 315.245 209.76C313.985 209.76 313.125 209.02 313.045 208.12H310.685C310.785 210.12 312.645 211.68 315.285 211.68C317.885 211.68 319.505 210.28 319.505 208.42ZM322.329 208.44C322.329 210.68 323.549 211.5 325.509 211.5H327.309V209.6H325.909C324.949 209.6 324.629 209.26 324.629 208.44V202.34H327.309V200.48H324.629V197.74H322.329V200.48H321.029V202.34H322.329V208.44ZM334.05 202.22C335.75 202.22 337.09 203.3 337.13 205H331.03C331.27 203.26 332.51 202.22 334.05 202.22ZM339.21 208.22H336.75C336.33 209.08 335.55 209.76 334.15 209.76C332.47 209.76 331.17 208.66 331.01 206.84H339.43C339.49 206.46 339.51 206.1 339.51 205.72C339.51 202.48 337.29 200.3 334.15 200.3C330.89 200.3 328.65 202.52 328.65 205.98C328.65 209.44 330.99 211.68 334.15 211.68C336.85 211.68 338.59 210.14 339.21 208.22ZM357.374 211.5H359.634V205C359.634 201.92 357.674 200.3 355.094 200.3C353.494 200.3 351.934 201.14 351.254 202.48C350.494 201.04 349.034 200.3 347.294 200.3C345.974 200.3 344.774 200.84 344.034 201.74V200.48H341.754V211.5H344.034V205.34C344.034 203.32 345.134 202.28 346.814 202.28C348.474 202.28 349.574 203.32 349.574 205.34V211.5H351.834V205.34C351.834 203.32 352.934 202.28 354.614 202.28C356.274 202.28 357.374 203.32 357.374 205.34V211.5ZM370.755 208.42C370.635 204.44 364.415 205.68 364.415 203.46C364.415 202.72 365.055 202.22 366.275 202.22C367.515 202.22 368.255 202.88 368.335 203.84H370.615C370.495 201.64 368.855 200.3 366.355 200.3C363.755 200.3 362.115 201.72 362.115 203.48C362.115 207.52 368.515 206.28 368.515 208.44C368.515 209.2 367.815 209.76 366.495 209.76C365.235 209.76 364.375 209.02 364.295 208.12H361.935C362.035 210.12 363.895 211.68 366.535 211.68C369.135 211.68 370.755 210.28 370.755 208.42ZM378.414 211.5H380.694V197.6H378.414V211.5Z" fill="#212832"/>
<rect x="0.5" y="179.5" width="616" height="49" stroke="black" stroke-opacity="0.5"/>
<rect y="122" width="617" height="50" fill="white"/>
<path d="M24.6 150.44C26.08 150.44 27.24 149.3 27.24 147.84C27.24 146.36 26.08 145.22 24.6 145.22C23.16 145.22 22 146.36 22 147.84C22 149.3 23.16 150.44 24.6 150.44ZM45.6689 140.6H41.1289V154.5H45.6689C50.1289 154.5 53.0489 151.88 53.0489 147.6C53.0489 143.3 50.1289 140.6 45.6689 140.6ZM43.4089 152.64V142.46H45.6689C48.9489 142.46 50.7089 144.42 50.7089 147.6C50.7089 150.76 48.9489 152.64 45.6689 152.64H43.4089ZM54.5486 148.94C54.5486 152.34 56.8486 154.68 59.7086 154.68C61.5486 154.68 62.8686 153.8 63.5686 152.86V154.5H65.8686V143.48H63.5686V145.08C62.8886 144.18 61.6086 143.3 59.7486 143.3C56.8486 143.3 54.5486 145.54 54.5486 148.94ZM63.5686 148.98C63.5686 151.36 61.9486 152.7 60.2286 152.7C58.5286 152.7 56.8886 151.32 56.8886 148.94C56.8886 146.56 58.5286 145.28 60.2286 145.28C61.9486 145.28 63.5686 146.62 63.5686 148.98ZM69.2233 151.44C69.2233 153.68 70.4433 154.5 72.4033 154.5H74.2033V152.6H72.8033C71.8433 152.6 71.5233 152.26 71.5233 151.44V145.34H74.2033V143.48H71.5233V140.74H69.2233V143.48H67.9233V145.34H69.2233V151.44ZM75.5447 148.94C75.5447 152.34 77.8447 154.68 80.7047 154.68C82.5447 154.68 83.8647 153.8 84.5647 152.86V154.5H86.8647V143.48H84.5647V145.08C83.8847 144.18 82.6047 143.3 80.7447 143.3C77.8447 143.3 75.5447 145.54 75.5447 148.94ZM84.5647 148.98C84.5647 151.36 82.9447 152.7 81.2247 152.7C79.5247 152.7 77.8847 151.32 77.8847 148.94C77.8847 146.56 79.5247 145.28 81.2247 145.28C82.9447 145.28 84.5647 146.62 84.5647 148.98ZM94.2947 147.52C94.2947 151.7 97.4747 154.62 101.395 154.62C104.295 154.62 106.795 153.18 107.855 150.46H105.115C104.375 151.94 103.055 152.64 101.395 152.64C98.6347 152.64 96.6347 150.66 96.6347 147.52C96.6347 144.38 98.6347 142.42 101.395 142.42C103.055 142.42 104.375 143.12 105.115 144.6H107.855C106.795 141.88 104.295 140.42 101.395 140.42C97.4747 140.42 94.2947 143.36 94.2947 147.52ZM121.023 148.98C121.023 145.52 118.543 143.3 115.403 143.3C112.263 143.3 109.783 145.52 109.783 148.98C109.783 152.44 112.163 154.68 115.303 154.68C118.463 154.68 121.023 152.44 121.023 148.98ZM112.103 148.98C112.103 146.48 113.643 145.28 115.363 145.28C117.063 145.28 118.683 146.48 118.683 148.98C118.683 151.48 117.003 152.7 115.303 152.7C113.583 152.7 112.103 151.48 112.103 148.98ZM138.897 154.5H141.157V148C141.157 144.92 139.197 143.3 136.617 143.3C135.017 143.3 133.457 144.14 132.777 145.48C132.017 144.04 130.557 143.3 128.817 143.3C127.497 143.3 126.297 143.84 125.557 144.74V143.48H123.277V154.5H125.557V148.34C125.557 146.32 126.657 145.28 128.337 145.28C129.997 145.28 131.097 146.32 131.097 148.34V154.5H133.357V148.34C133.357 146.32 134.457 145.28 136.137 145.28C137.797 145.28 138.897 146.32 138.897 148.34V154.5ZM159.679 154.5H161.939V148C161.939 144.92 159.979 143.3 157.399 143.3C155.799 143.3 154.239 144.14 153.559 145.48C152.799 144.04 151.339 143.3 149.599 143.3C148.279 143.3 147.079 143.84 146.339 144.74V143.48H144.059V154.5H146.339V148.34C146.339 146.32 147.439 145.28 149.119 145.28C150.779 145.28 151.879 146.32 151.879 148.34V154.5H154.139V148.34C154.139 146.32 155.239 145.28 156.919 145.28C158.579 145.28 159.679 146.32 159.679 148.34V154.5ZM174.82 143.48H172.54V149.62C172.54 151.64 171.44 152.68 169.76 152.68C168.1 152.68 167 151.64 167 149.62V143.48H164.74V149.96C164.74 153.04 166.7 154.66 169.28 154.66C170.58 154.66 171.82 154.12 172.54 153.18V154.5H174.82V143.48ZM185.648 154.5H187.908V148C187.908 144.92 185.968 143.3 183.388 143.3C182.068 143.3 180.848 143.84 180.108 144.74V143.48H177.828V154.5H180.108V148.34C180.108 146.32 181.208 145.28 182.888 145.28C184.548 145.28 185.648 146.32 185.648 148.34V154.5ZM190.816 154.5H193.096V143.48H190.816V154.5ZM191.976 142.02C192.776 142.02 193.416 141.38 193.416 140.56C193.416 139.74 192.776 139.1 191.976 139.1C191.156 139.1 190.516 139.74 190.516 140.56C190.516 141.38 191.156 142.02 191.976 142.02ZM195.33 148.98C195.33 152.44 197.57 154.68 200.73 154.68C203.43 154.68 205.19 153.18 205.81 151.02H203.35C202.93 152.16 202.09 152.76 200.73 152.76C198.89 152.76 197.67 151.4 197.67 148.98C197.67 146.58 198.89 145.22 200.73 145.22C202.09 145.22 202.97 145.9 203.35 146.96H205.81C205.19 144.64 203.43 143.3 200.73 143.3C197.57 143.3 195.33 145.54 195.33 148.98ZM207.322 148.94C207.322 152.34 209.622 154.68 212.482 154.68C214.322 154.68 215.642 153.8 216.342 152.86V154.5H218.642V143.48H216.342V145.08C215.662 144.18 214.382 143.3 212.522 143.3C209.622 143.3 207.322 145.54 207.322 148.94ZM216.342 148.98C216.342 151.36 214.722 152.7 213.002 152.7C211.302 152.7 209.662 151.32 209.662 148.94C209.662 146.56 211.302 145.28 213.002 145.28C214.722 145.28 216.342 146.62 216.342 148.98ZM221.997 151.44C221.997 153.68 223.217 154.5 225.177 154.5H226.977V152.6H225.577C224.617 152.6 224.297 152.26 224.297 151.44V145.34H226.977V143.48H224.297V140.74H221.997V143.48H220.697V145.34H221.997V151.44ZM229.078 154.5H231.358V143.48H229.078V154.5ZM230.238 142.02C231.038 142.02 231.678 141.38 231.678 140.56C231.678 139.74 231.038 139.1 230.238 139.1C229.418 139.1 228.778 139.74 228.778 140.56C228.778 141.38 229.418 142.02 230.238 142.02ZM244.852 148.98C244.852 145.52 242.372 143.3 239.232 143.3C236.092 143.3 233.612 145.52 233.612 148.98C233.612 152.44 235.992 154.68 239.132 154.68C242.292 154.68 244.852 152.44 244.852 148.98ZM235.932 148.98C235.932 146.48 237.472 145.28 239.192 145.28C240.892 145.28 242.512 146.48 242.512 148.98C242.512 151.48 240.832 152.7 239.132 152.7C237.412 152.7 235.932 151.48 235.932 148.98ZM254.925 154.5H257.185V148C257.185 144.92 255.245 143.3 252.665 143.3C251.345 143.3 250.125 143.84 249.385 144.74V143.48H247.105V154.5H249.385V148.34C249.385 146.32 250.485 145.28 252.165 145.28C253.825 145.28 254.925 146.32 254.925 148.34V154.5ZM274.129 143.7C274.269 141.8 272.969 140.28 270.549 140.28C268.169 140.28 266.689 141.66 266.689 143.48C266.689 144.46 266.969 145.2 267.749 146.14C265.549 147.04 264.489 148.62 264.489 150.5C264.489 153.1 266.489 154.76 269.489 154.76C271.429 154.76 272.969 154.12 274.309 152.78L276.029 154.5H279.009L275.629 151.14C275.789 150.88 275.969 150.6 276.129 150.32L277.929 147.24H275.469L274.049 149.58L270.369 145.92C269.389 144.86 268.969 144.24 268.969 143.48C268.969 142.74 269.549 142.14 270.449 142.14C271.309 142.14 271.889 142.68 271.849 143.7H274.129ZM269.489 152.82C267.849 152.82 266.769 151.76 266.769 150.42C266.769 149.18 267.509 148.22 269.129 147.58L272.809 151.28C271.849 152.3 270.789 152.82 269.489 152.82ZM284.939 147.52C284.939 151.7 288.119 154.62 292.039 154.62C294.939 154.62 297.439 153.18 298.499 150.46H295.759C295.019 151.94 293.699 152.64 292.039 152.64C289.279 152.64 287.279 150.66 287.279 147.52C287.279 144.38 289.279 142.42 292.039 142.42C293.699 142.42 295.019 143.12 295.759 144.6H298.499C297.439 141.88 294.939 140.42 292.039 140.42C288.119 140.42 284.939 143.36 284.939 147.52ZM311.668 148.98C311.668 145.52 309.188 143.3 306.048 143.3C302.908 143.3 300.428 145.52 300.428 148.98C300.428 152.44 302.808 154.68 305.948 154.68C309.108 154.68 311.668 152.44 311.668 148.98ZM302.748 148.98C302.748 146.48 304.288 145.28 306.008 145.28C307.708 145.28 309.328 146.48 309.328 148.98C309.328 151.48 307.648 152.7 305.948 152.7C304.228 152.7 302.748 151.48 302.748 148.98ZM329.542 154.5H331.802V148C331.802 144.92 329.842 143.3 327.262 143.3C325.662 143.3 324.102 144.14 323.422 145.48C322.662 144.04 321.202 143.3 319.462 143.3C318.142 143.3 316.942 143.84 316.202 144.74V143.48H313.922V154.5H316.202V148.34C316.202 146.32 317.302 145.28 318.982 145.28C320.642 145.28 321.742 146.32 321.742 148.34V154.5H324.002V148.34C324.002 146.32 325.102 145.28 326.782 145.28C328.442 145.28 329.542 146.32 329.542 148.34V154.5ZM336.983 145.1V143.48H334.703V159.74H336.983V152.9C337.703 153.76 339.003 154.68 340.823 154.68C343.723 154.68 346.003 152.34 346.003 148.94C346.003 145.54 343.723 143.3 340.823 143.3C339.023 143.3 337.683 144.18 336.983 145.1ZM343.683 148.94C343.683 151.32 342.043 152.7 340.323 152.7C338.623 152.7 336.983 151.36 336.983 148.98C336.983 146.62 338.623 145.28 340.323 145.28C342.043 145.28 343.683 146.56 343.683 148.94ZM358.238 143.48H355.958V149.62C355.958 151.64 354.858 152.68 353.178 152.68C351.518 152.68 350.418 151.64 350.418 149.62V143.48H348.158V149.96C348.158 153.04 350.118 154.66 352.698 154.66C353.998 154.66 355.238 154.12 355.958 153.18V154.5H358.238V143.48ZM361.606 151.44C361.606 153.68 362.826 154.5 364.786 154.5H366.586V152.6H365.186C364.226 152.6 363.906 152.26 363.906 151.44V145.34H366.586V143.48H363.906V140.74H361.606V143.48H360.306V145.34H361.606V151.44ZM373.328 145.22C375.028 145.22 376.368 146.3 376.408 148H370.308C370.548 146.26 371.788 145.22 373.328 145.22ZM378.487 151.22H376.028C375.608 152.08 374.828 152.76 373.428 152.76C371.748 152.76 370.448 151.66 370.288 149.84H378.708C378.768 149.46 378.788 149.1 378.788 148.72C378.788 145.48 376.568 143.3 373.428 143.3C370.168 143.3 367.928 145.52 367.928 148.98C367.928 152.44 370.268 154.68 373.428 154.68C376.128 154.68 377.868 153.14 378.487 151.22ZM383.311 148.7C383.311 146.36 384.351 145.66 386.031 145.66H386.611V143.3C385.051 143.3 383.951 143.98 383.311 145.08V143.48H381.031V154.5H383.311V148.7ZM403.042 140.58V150.94L396.182 140.58H393.902V154.5H396.182V144.12L403.042 154.5H405.322V140.58H403.042ZM412.956 145.22C414.656 145.22 415.996 146.3 416.036 148H409.936C410.176 146.26 411.416 145.22 412.956 145.22ZM418.116 151.22H415.656C415.236 152.08 414.456 152.76 413.056 152.76C411.376 152.76 410.076 151.66 409.916 149.84H418.336C418.396 149.46 418.416 149.1 418.416 148.72C418.416 145.48 416.196 143.3 413.056 143.3C409.796 143.3 407.556 145.52 407.556 148.98C407.556 152.44 409.896 154.68 413.056 154.68C415.756 154.68 417.496 153.14 418.116 151.22ZM421.02 151.44C421.02 153.68 422.24 154.5 424.2 154.5H426V152.6H424.6C423.64 152.6 423.32 152.26 423.32 151.44V145.34H426V143.48H423.32V140.74H421.02V143.48H419.72V145.34H421.02V151.44ZM430.242 154.5H432.642L434.862 146.36L437.082 154.5H439.482L442.902 143.48H440.662L438.382 152.3L436.142 143.48H433.762L431.422 152.34L429.122 143.48H426.802L430.242 154.5ZM455.105 148.98C455.105 145.52 452.625 143.3 449.485 143.3C446.345 143.3 443.865 145.52 443.865 148.98C443.865 152.44 446.245 154.68 449.385 154.68C452.545 154.68 455.105 152.44 455.105 148.98ZM446.185 148.98C446.185 146.48 447.725 145.28 449.445 145.28C451.145 145.28 452.765 146.48 452.765 148.98C452.765 151.48 451.085 152.7 449.385 152.7C447.665 152.7 446.185 151.48 446.185 148.98ZM459.639 148.7C459.639 146.36 460.679 145.66 462.359 145.66H462.939V143.3C461.379 143.3 460.279 143.98 459.639 145.08V143.48H457.359V154.5H459.639V148.7ZM465.035 154.5H467.315V149.76L471.395 154.5H474.475L469.395 149L474.475 143.48H471.315L467.315 148.3V139.7H465.035V154.5ZM484.329 151.42C484.209 147.44 477.989 148.68 477.989 146.46C477.989 145.72 478.629 145.22 479.849 145.22C481.089 145.22 481.829 145.88 481.909 146.84H484.189C484.069 144.64 482.429 143.3 479.929 143.3C477.329 143.3 475.689 144.72 475.689 146.48C475.689 150.52 482.089 149.28 482.089 151.44C482.089 152.2 481.389 152.76 480.069 152.76C478.809 152.76 477.949 152.02 477.869 151.12H475.509C475.609 153.12 477.469 154.68 480.109 154.68C482.709 154.68 484.329 153.28 484.329 151.42Z" fill="#212832"/>
<rect x="0.5" y="122.5" width="616" height="49" stroke="black" stroke-opacity="0.5"/>
<rect y="236" width="617" height="50" fill="white"/>
<path d="M24.6 264.44C26.08 264.44 27.24 263.3 27.24 261.84C27.24 260.36 26.08 259.22 24.6 259.22C23.16 259.22 22 260.36 22 261.84C22 263.3 23.16 264.44 24.6 264.44ZM45.6689 254.6H41.1289V268.5H45.6689C50.1289 268.5 53.0489 265.88 53.0489 261.6C53.0489 257.3 50.1289 254.6 45.6689 254.6ZM43.4089 266.64V256.46H45.6689C48.9489 256.46 50.7089 258.42 50.7089 261.6C50.7089 264.76 48.9489 266.64 45.6689 266.64H43.4089ZM54.5486 262.94C54.5486 266.34 56.8486 268.68 59.7086 268.68C61.5486 268.68 62.8686 267.8 63.5686 266.86V268.5H65.8686V257.48H63.5686V259.08C62.8886 258.18 61.6086 257.3 59.7486 257.3C56.8486 257.3 54.5486 259.54 54.5486 262.94ZM63.5686 262.98C63.5686 265.36 61.9486 266.7 60.2286 266.7C58.5286 266.7 56.8886 265.32 56.8886 262.94C56.8886 260.56 58.5286 259.28 60.2286 259.28C61.9486 259.28 63.5686 260.62 63.5686 262.98ZM69.2233 265.44C69.2233 267.68 70.4433 268.5 72.4033 268.5H74.2033V266.6H72.8033C71.8433 266.6 71.5233 266.26 71.5233 265.44V259.34H74.2033V257.48H71.5233V254.74H69.2233V257.48H67.9233V259.34H69.2233V265.44ZM75.5447 262.94C75.5447 266.34 77.8447 268.68 80.7047 268.68C82.5447 268.68 83.8647 267.8 84.5647 266.86V268.5H86.8647V257.48H84.5647V259.08C83.8847 258.18 82.6047 257.3 80.7447 257.3C77.8447 257.3 75.5447 259.54 75.5447 262.94ZM84.5647 262.98C84.5647 265.36 82.9447 266.7 81.2247 266.7C79.5247 266.7 77.8847 265.32 77.8847 262.94C77.8847 260.56 79.5247 259.28 81.2247 259.28C82.9447 259.28 84.5647 260.62 84.5647 262.98ZM104.435 264.56C104.435 259.48 97.0747 261.44 97.0747 258.3C97.0747 256.96 98.0947 256.32 99.4147 256.36C100.855 256.4 101.675 257.26 101.755 258.2H104.275C104.075 255.82 102.195 254.42 99.5347 254.42C96.6947 254.42 94.7547 255.94 94.7547 258.38C94.7547 263.5 102.135 261.32 102.135 264.68C102.135 265.86 101.235 266.72 99.6347 266.72C98.0547 266.72 97.2547 265.8 97.1547 264.66H94.7147C94.7147 267.12 96.8547 268.64 99.6347 268.64C102.735 268.64 104.435 266.64 104.435 264.56ZM107.485 265.44C107.485 267.68 108.705 268.5 110.665 268.5H112.465V266.6H111.065C110.105 266.6 109.785 266.26 109.785 265.44V259.34H112.465V257.48H109.785V254.74H107.485V257.48H106.185V259.34H107.485V265.44ZM116.846 262.7C116.846 260.36 117.886 259.66 119.566 259.66H120.146V257.3C118.586 257.3 117.486 257.98 116.846 259.08V257.48H114.566V268.5H116.846V262.7ZM132.222 257.48H129.942V263.62C129.942 265.64 128.842 266.68 127.162 266.68C125.502 266.68 124.402 265.64 124.402 263.62V257.48H122.142V263.96C122.142 267.04 124.102 268.66 126.682 268.66C127.982 268.66 129.222 268.12 129.942 267.18V268.5H132.222V257.48ZM134.47 262.98C134.47 266.44 136.71 268.68 139.87 268.68C142.57 268.68 144.33 267.18 144.95 265.02H142.49C142.07 266.16 141.23 266.76 139.87 266.76C138.03 266.76 136.81 265.4 136.81 262.98C136.81 260.58 138.03 259.22 139.87 259.22C141.23 259.22 142.11 259.9 142.49 260.96H144.95C144.33 258.64 142.57 257.3 139.87 257.3C136.71 257.3 134.47 259.54 134.47 262.98ZM147.583 265.44C147.583 267.68 148.803 268.5 150.763 268.5H152.563V266.6H151.163C150.203 266.6 149.883 266.26 149.883 265.44V259.34H152.563V257.48H149.883V254.74H147.583V257.48H146.283V259.34H147.583V265.44ZM164.644 257.48H162.364V263.62C162.364 265.64 161.264 266.68 159.584 266.68C157.924 266.68 156.824 265.64 156.824 263.62V257.48H154.564V263.96C154.564 267.04 156.524 268.66 159.104 268.66C160.404 268.66 161.644 268.12 162.364 267.18V268.5H164.644V257.48ZM169.932 262.7C169.932 260.36 170.972 259.66 172.652 259.66H173.232V257.3C171.672 257.3 170.572 257.98 169.932 259.08V257.48H167.652V268.5H169.932V262.7ZM179.968 259.22C181.668 259.22 183.008 260.3 183.048 262H176.948C177.188 260.26 178.428 259.22 179.968 259.22ZM185.128 265.22H182.668C182.248 266.08 181.468 266.76 180.068 266.76C178.388 266.76 177.088 265.66 176.928 263.84H185.348C185.408 263.46 185.428 263.1 185.428 262.72C185.428 259.48 183.208 257.3 180.068 257.3C176.808 257.3 174.568 259.52 174.568 262.98C174.568 266.44 176.908 268.68 180.068 268.68C182.768 268.68 184.508 267.14 185.128 265.22ZM195.892 265.42C195.772 261.44 189.552 262.68 189.552 260.46C189.552 259.72 190.192 259.22 191.412 259.22C192.652 259.22 193.392 259.88 193.472 260.84H195.752C195.632 258.64 193.992 257.3 191.492 257.3C188.892 257.3 187.252 258.72 187.252 260.48C187.252 264.52 193.652 263.28 193.652 265.44C193.652 266.2 192.952 266.76 191.632 266.76C190.372 266.76 189.512 266.02 189.432 265.12H187.072C187.172 267.12 189.032 268.68 191.672 268.68C194.272 268.68 195.892 267.28 195.892 265.42ZM203.551 268.5H205.831V257.48H203.551V268.5ZM204.711 256.02C205.511 256.02 206.151 255.38 206.151 254.56C206.151 253.74 205.511 253.1 204.711 253.1C203.891 253.1 203.251 253.74 203.251 254.56C203.251 255.38 203.891 256.02 204.711 256.02ZM216.644 268.5H218.904V262C218.904 258.92 216.964 257.3 214.384 257.3C213.064 257.3 211.844 257.84 211.104 258.74V257.48H208.824V268.5H211.104V262.34C211.104 260.32 212.204 259.28 213.884 259.28C215.544 259.28 216.644 260.32 216.644 262.34V268.5ZM226.248 261.52C226.248 265.7 229.428 268.62 233.348 268.62C236.248 268.62 238.748 267.18 239.808 264.46H237.068C236.328 265.94 235.008 266.64 233.348 266.64C230.588 266.64 228.588 264.66 228.588 261.52C228.588 258.38 230.588 256.42 233.348 256.42C235.008 256.42 236.328 257.12 237.068 258.6H239.808C238.748 255.88 236.248 254.42 233.348 254.42C229.428 254.42 226.248 257.36 226.248 261.52ZM249.952 261V256.46H252.472C254.252 256.46 255.052 257.3 255.052 258.74C255.052 260.14 254.252 261 252.472 261H249.952ZM257.392 258.74C257.392 256.48 255.772 254.6 252.472 254.6H247.672V268.5H249.952V262.86H252.472C256.092 262.86 257.392 260.72 257.392 258.74ZM261.846 262.7C261.846 260.36 262.886 259.66 264.566 259.66H265.146V257.3C263.586 257.3 262.486 257.98 261.846 259.08V257.48H259.566V268.5H261.846V262.7ZM277.742 262.98C277.742 259.52 275.262 257.3 272.122 257.3C268.982 257.3 266.502 259.52 266.502 262.98C266.502 266.44 268.882 268.68 272.022 268.68C275.182 268.68 277.742 266.44 277.742 262.98ZM268.822 262.98C268.822 260.48 270.362 259.28 272.082 259.28C273.782 259.28 275.402 260.48 275.402 262.98C275.402 265.48 273.722 266.7 272.022 266.7C270.302 266.7 268.822 265.48 268.822 262.98ZM279.236 262.94C279.236 266.34 281.536 268.68 284.436 268.68C286.236 268.68 287.556 267.78 288.256 266.84V268.68C288.256 270.88 286.936 271.96 285.176 271.96C283.596 271.96 282.376 271.18 282.036 270.04H279.776C280.056 272.48 282.236 273.94 285.176 273.94C288.616 273.94 290.556 271.68 290.556 268.68V257.48H288.256V259.08C287.576 258.14 286.236 257.3 284.436 257.3C281.536 257.3 279.236 259.54 279.236 262.94ZM288.256 262.98C288.256 265.36 286.636 266.7 284.916 266.7C283.216 266.7 281.576 265.32 281.576 262.94C281.576 260.56 283.216 259.28 284.916 259.28C286.636 259.28 288.256 260.62 288.256 262.98ZM295.831 262.7C295.831 260.36 296.871 259.66 298.551 259.66H299.131V257.3C297.571 257.3 296.471 257.98 295.831 259.08V257.48H293.551V268.5H295.831V262.7ZM300.467 262.94C300.467 266.34 302.767 268.68 305.627 268.68C307.467 268.68 308.787 267.8 309.487 266.86V268.5H311.787V257.48H309.487V259.08C308.807 258.18 307.527 257.3 305.667 257.3C302.767 257.3 300.467 259.54 300.467 262.94ZM309.487 262.98C309.487 265.36 307.867 266.7 306.147 266.7C304.447 266.7 302.807 265.32 302.807 262.94C302.807 260.56 304.447 259.28 306.147 259.28C307.867 259.28 309.487 260.62 309.487 262.98ZM330.401 268.5H332.661V262C332.661 258.92 330.701 257.3 328.121 257.3C326.521 257.3 324.961 258.14 324.281 259.48C323.521 258.04 322.061 257.3 320.321 257.3C319.001 257.3 317.801 257.84 317.061 258.74V257.48H314.781V268.5H317.061V262.34C317.061 260.32 318.161 259.28 319.841 259.28C321.501 259.28 322.601 260.32 322.601 262.34V268.5H324.861V262.34C324.861 260.32 325.961 259.28 327.641 259.28C329.301 259.28 330.401 260.32 330.401 262.34V268.5ZM351.183 268.5H353.443V262C353.443 258.92 351.483 257.3 348.903 257.3C347.303 257.3 345.743 258.14 345.063 259.48C344.303 258.04 342.843 257.3 341.103 257.3C339.783 257.3 338.583 257.84 337.843 258.74V257.48H335.563V268.5H337.843V262.34C337.843 260.32 338.943 259.28 340.623 259.28C342.283 259.28 343.383 260.32 343.383 262.34V268.5H345.643V262.34C345.643 260.32 346.743 259.28 348.423 259.28C350.083 259.28 351.183 260.32 351.183 262.34V268.5ZM356.344 268.5H358.624V257.48H356.344V268.5ZM357.504 256.02C358.304 256.02 358.944 255.38 358.944 254.56C358.944 253.74 358.304 253.1 357.504 253.1C356.684 253.1 356.044 253.74 356.044 254.56C356.044 255.38 356.684 256.02 357.504 256.02ZM369.437 268.5H371.697V262C371.697 258.92 369.757 257.3 367.177 257.3C365.857 257.3 364.637 257.84 363.897 258.74V257.48H361.617V268.5H363.897V262.34C363.897 260.32 364.997 259.28 366.677 259.28C368.337 259.28 369.437 260.32 369.437 262.34V268.5ZM373.845 262.94C373.845 266.34 376.145 268.68 379.045 268.68C380.845 268.68 382.165 267.78 382.865 266.84V268.68C382.865 270.88 381.545 271.96 379.785 271.96C378.205 271.96 376.985 271.18 376.645 270.04H374.385C374.665 272.48 376.845 273.94 379.785 273.94C383.225 273.94 385.165 271.68 385.165 268.68V257.48H382.865V259.08C382.185 258.14 380.845 257.3 379.045 257.3C376.145 257.3 373.845 259.54 373.845 262.94ZM382.865 262.98C382.865 265.36 381.245 266.7 379.525 266.7C377.825 266.7 376.185 265.32 376.185 262.94C376.185 260.56 377.825 259.28 379.525 259.28C381.245 259.28 382.865 260.62 382.865 262.98ZM393.355 268.5H395.635V254.6H393.355V268.5ZM406.449 268.5H408.709V262C408.709 258.92 406.769 257.3 404.189 257.3C402.869 257.3 401.649 257.84 400.909 258.74V257.48H398.629V268.5H400.909V262.34C400.909 260.32 402.009 259.28 403.689 259.28C405.349 259.28 406.449 260.32 406.449 262.34V268.5ZM419.437 268.5H421.697V262C421.697 258.92 419.757 257.3 417.177 257.3C415.857 257.3 414.637 257.84 413.897 258.74V257.48H411.617V268.5H413.897V262.34C413.897 260.32 414.997 259.28 416.677 259.28C418.337 259.28 419.437 260.32 419.437 262.34V268.5ZM435.105 262.98C435.105 259.52 432.625 257.3 429.485 257.3C426.345 257.3 423.865 259.52 423.865 262.98C423.865 266.44 426.245 268.68 429.385 268.68C432.545 268.68 435.105 266.44 435.105 262.98ZM426.185 262.98C426.185 260.48 427.725 259.28 429.445 259.28C431.145 259.28 432.765 260.48 432.765 262.98C432.765 265.48 431.085 266.7 429.385 266.7C427.665 266.7 426.185 265.48 426.185 262.98ZM436.059 257.48L440.239 268.5H442.959L447.159 257.48H444.739L441.619 266.46L438.499 257.48H436.059ZM448.123 262.94C448.123 266.34 450.423 268.68 453.283 268.68C455.123 268.68 456.443 267.8 457.143 266.86V268.5H459.443V257.48H457.143V259.08C456.463 258.18 455.183 257.3 453.323 257.3C450.423 257.3 448.123 259.54 448.123 262.94ZM457.143 262.98C457.143 265.36 455.523 266.7 453.803 266.7C452.103 266.7 450.463 265.32 450.463 262.94C450.463 260.56 452.103 259.28 453.803 259.28C455.523 259.28 457.143 260.62 457.143 262.98ZM462.798 265.44C462.798 267.68 464.018 268.5 465.978 268.5H467.778V266.6H466.378C465.418 266.6 465.098 266.26 465.098 265.44V259.34H467.778V257.48H465.098V254.74H462.798V257.48H461.498V259.34H462.798V265.44ZM469.879 268.5H472.159V257.48H469.879V268.5ZM471.039 256.02C471.839 256.02 472.479 255.38 472.479 254.56C472.479 253.74 471.839 253.1 471.039 253.1C470.219 253.1 469.579 253.74 469.579 254.56C469.579 255.38 470.219 256.02 471.039 256.02ZM485.652 262.98C485.652 259.52 483.172 257.3 480.032 257.3C476.892 257.3 474.412 259.52 474.412 262.98C474.412 266.44 476.792 268.68 479.932 268.68C483.092 268.68 485.652 266.44 485.652 262.98ZM476.732 262.98C476.732 260.48 478.272 259.28 479.992 259.28C481.692 259.28 483.312 260.48 483.312 262.98C483.312 265.48 481.632 266.7 479.932 266.7C478.212 266.7 476.732 265.48 476.732 262.98ZM495.726 268.5H497.986V262C497.986 258.92 496.046 257.3 493.466 257.3C492.146 257.3 490.926 257.84 490.186 258.74V257.48H487.906V268.5H490.186V262.34C490.186 260.32 491.286 259.28 492.966 259.28C494.626 259.28 495.726 260.32 495.726 262.34V268.5Z" fill="#212832"/>
<rect x="0.5" y="236.5" width="616" height="49" stroke="black" stroke-opacity="0.5"/>
<rect width="617" height="58" fill="#3498DB"/>
<path d="M33.925 32.95C33.925 26.8 24.975 28.75 24.975 25.25C24.975 23.825 26 23.15 27.375 23.2C28.875 23.225 29.8 24.125 29.875 25.275H33.725C33.5 22.125 31.05 20.3 27.475 20.3C23.875 20.3 21.325 22.2 21.325 25.35C21.3 31.675 30.3 29.4 30.3 33.175C30.3 34.425 29.325 35.3 27.675 35.3C26.05 35.3 25.125 34.375 25.025 32.975H21.275C21.325 36.275 24.125 38.175 27.75 38.175C31.725 38.175 33.925 35.7 33.925 32.95ZM43.4094 26.8C45.2094 26.8 46.6594 27.95 46.7094 29.775H40.1344C40.4094 27.875 41.7344 26.8 43.4094 26.8ZM49.9844 33.65H46.2094C45.7594 34.575 44.9344 35.325 43.4344 35.325C41.6844 35.325 40.2844 34.175 40.1094 32.125H50.2344C50.3094 31.675 50.3344 31.225 50.3344 30.775C50.3344 26.65 47.5094 23.925 43.5094 23.925C39.4094 23.925 36.5594 26.7 36.5594 31.075C36.5594 35.425 39.4844 38.225 43.5094 38.225C46.9344 38.225 49.2344 36.2 49.9844 33.65ZM72.7641 38H76.2641V29.875C76.2641 26.05 73.9141 23.95 70.5891 23.95C68.5641 23.95 66.7391 25.025 65.8391 26.6C64.8891 24.875 63.1141 23.95 60.9641 23.95C59.2391 23.95 57.7641 24.675 56.8891 25.825V24.15H53.3891V38H56.8891V30.35C56.8891 28.15 58.1141 27 60.0141 27C61.8641 27 63.0891 28.15 63.0891 30.35V38H66.5891V30.35C66.5891 28.15 67.8141 27 69.6891 27C71.5391 27 72.7641 28.15 72.7641 30.35V38ZM86.0354 26.8C87.8354 26.8 89.2854 27.95 89.3354 29.775H82.7604C83.0354 27.875 84.3604 26.8 86.0354 26.8ZM92.6104 33.65H88.8354C88.3854 34.575 87.5604 35.325 86.0604 35.325C84.3104 35.325 82.9104 34.175 82.7354 32.125H92.8604C92.9354 31.675 92.9604 31.225 92.9604 30.775C92.9604 26.65 90.1354 23.925 86.1354 23.925C82.0354 23.925 79.1854 26.7 79.1854 31.075C79.1854 35.425 82.1104 38.225 86.1354 38.225C89.5604 38.225 91.8604 36.2 92.6104 33.65ZM106.765 34.05C106.665 28.975 98.99 30.55 98.99 28.025C98.99 27.225 99.665 26.7 100.965 26.7C102.34 26.7 103.19 27.425 103.29 28.5H106.64C106.44 25.75 104.415 23.925 101.065 23.925C97.64 23.925 95.59 25.775 95.59 28.075C95.59 33.15 103.415 31.575 103.415 34.05C103.415 34.85 102.665 35.475 101.29 35.475C99.89 35.475 98.915 34.675 98.79 33.625H95.265C95.415 36.2 97.84 38.225 101.315 38.225C104.69 38.225 106.765 36.425 106.765 34.05ZM110.688 33.7C110.688 36.875 112.463 38 115.113 38H117.313V35.05H115.688C114.588 35.05 114.213 34.65 114.213 33.725V27.025H117.313V24.15H114.213V20.725H110.688V24.15H109.038V27.025H110.688V33.7ZM126.28 26.8C128.08 26.8 129.53 27.95 129.58 29.775H123.005C123.28 27.875 124.605 26.8 126.28 26.8ZM132.855 33.65H129.08C128.63 34.575 127.805 35.325 126.305 35.325C124.555 35.325 123.155 34.175 122.98 32.125H133.105C133.18 31.675 133.205 31.225 133.205 30.775C133.205 26.65 130.38 23.925 126.38 23.925C122.28 23.925 119.43 26.7 119.43 31.075C119.43 35.425 122.355 38.225 126.38 38.225C129.805 38.225 132.105 36.2 132.855 33.65ZM139.76 31.1C139.76 28.425 141.01 27.625 143.085 27.625H144.01V23.95C142.085 23.95 140.635 24.875 139.76 26.3V24.15H136.26V38H139.76V31.1ZM152.725 37.75H165.075V34.85H157.7C160.6 32.4 164.675 29.1 164.675 24.875C164.675 21.7 162.7 19.375 158.775 19.375C155.5 19.375 152.825 21.3 152.7 25.475H156.1C156.125 23.55 157.05 22.35 158.725 22.35C160.45 22.35 161.175 23.45 161.175 25.075C161.175 28.425 156.85 31.65 152.725 35.15V37.75Z" fill="white"/>
</svg>
