<svg width="617" height="286" viewBox="0 0 617 286" fill="none" xmlns="http://www.w3.org/2000/svg">
<rect width="617" height="58" fill="#3498DB"/>
<path d="M33.925 32.95C33.925 26.8 24.975 28.75 24.975 25.25C24.975 23.825 26 23.15 27.375 23.2C28.875 23.225 29.8 24.125 29.875 25.275H33.725C33.5 22.125 31.05 20.3 27.475 20.3C23.875 20.3 21.325 22.2 21.325 25.35C21.3 31.675 30.3 29.4 30.3 33.175C30.3 34.425 29.325 35.3 27.675 35.3C26.05 35.3 25.125 34.375 25.025 32.975H21.275C21.325 36.275 24.125 38.175 27.75 38.175C31.725 38.175 33.925 35.7 33.925 32.95ZM43.4094 26.8C45.2094 26.8 46.6594 27.95 46.7094 29.775H40.1344C40.4094 27.875 41.7344 26.8 43.4094 26.8ZM49.9844 33.65H46.2094C45.7594 34.575 44.9344 35.325 43.4344 35.325C41.6844 35.325 40.2844 34.175 40.1094 32.125H50.2344C50.3094 31.675 50.3344 31.225 50.3344 30.775C50.3344 26.65 47.5094 23.925 43.5094 23.925C39.4094 23.925 36.5594 26.7 36.5594 31.075C36.5594 35.425 39.4844 38.225 43.5094 38.225C46.9344 38.225 49.2344 36.2 49.9844 33.65ZM72.7641 38H76.2641V29.875C76.2641 26.05 73.9141 23.95 70.5891 23.95C68.5641 23.95 66.7391 25.025 65.8391 26.6C64.8891 24.875 63.1141 23.95 60.9641 23.95C59.2391 23.95 57.7641 24.675 56.8891 25.825V24.15H53.3891V38H56.8891V30.35C56.8891 28.15 58.1141 27 60.0141 27C61.8641 27 63.0891 28.15 63.0891 30.35V38H66.5891V30.35C66.5891 28.15 67.8141 27 69.6891 27C71.5391 27 72.7641 28.15 72.7641 30.35V38ZM86.0354 26.8C87.8354 26.8 89.2854 27.95 89.3354 29.775H82.7604C83.0354 27.875 84.3604 26.8 86.0354 26.8ZM92.6104 33.65H88.8354C88.3854 34.575 87.5604 35.325 86.0604 35.325C84.3104 35.325 82.9104 34.175 82.7354 32.125H92.8604C92.9354 31.675 92.9604 31.225 92.9604 30.775C92.9604 26.65 90.1354 23.925 86.1354 23.925C82.0354 23.925 79.1854 26.7 79.1854 31.075C79.1854 35.425 82.1104 38.225 86.1354 38.225C89.5604 38.225 91.8604 36.2 92.6104 33.65ZM106.765 34.05C106.665 28.975 98.99 30.55 98.99 28.025C98.99 27.225 99.665 26.7 100.965 26.7C102.34 26.7 103.19 27.425 103.29 28.5H106.64C106.44 25.75 104.415 23.925 101.065 23.925C97.64 23.925 95.59 25.775 95.59 28.075C95.59 33.15 103.415 31.575 103.415 34.05C103.415 34.85 102.665 35.475 101.29 35.475C99.89 35.475 98.915 34.675 98.79 33.625H95.265C95.415 36.2 97.84 38.225 101.315 38.225C104.69 38.225 106.765 36.425 106.765 34.05ZM110.688 33.7C110.688 36.875 112.463 38 115.113 38H117.313V35.05H115.688C114.588 35.05 114.213 34.65 114.213 33.725V27.025H117.313V24.15H114.213V20.725H110.688V24.15H109.038V27.025H110.688V33.7ZM126.28 26.8C128.08 26.8 129.53 27.95 129.58 29.775H123.005C123.28 27.875 124.605 26.8 126.28 26.8ZM132.855 33.65H129.08C128.63 34.575 127.805 35.325 126.305 35.325C124.555 35.325 123.155 34.175 122.98 32.125H133.105C133.18 31.675 133.205 31.225 133.205 30.775C133.205 26.65 130.38 23.925 126.38 23.925C122.28 23.925 119.43 26.7 119.43 31.075C119.43 35.425 122.355 38.225 126.38 38.225C129.805 38.225 132.105 36.2 132.855 33.65ZM139.76 31.1C139.76 28.425 141.01 27.625 143.085 27.625H144.01V23.95C142.085 23.95 140.635 24.875 139.76 26.3V24.15H136.26V38H139.76V31.1ZM154.925 38H158.525V19.775H152.5V23H154.925V38Z" fill="white"/>
<rect y="65" width="617" height="50" fill="white"/>
<path d="M24.6 93.44C26.08 93.44 27.24 92.3 27.24 90.84C27.24 89.36 26.08 88.22 24.6 88.22C23.16 88.22 22 89.36 22 90.84C22 92.3 23.16 93.44 24.6 93.44ZM50.5089 97.5H52.9089L47.9289 83.58H45.2889L40.3089 97.5H42.6889L43.6889 94.66H49.5089L50.5089 97.5ZM48.8689 92.8H44.3289L46.6089 86.34L48.8689 92.8ZM54.3142 91.94C54.3142 95.34 56.6142 97.68 59.5142 97.68C61.3142 97.68 62.6342 96.84 63.3342 95.84V97.5H65.6342V82.7H63.3342V88.02C62.4942 86.98 60.9742 86.3 59.5342 86.3C56.6142 86.3 54.3142 88.54 54.3142 91.94ZM63.3342 91.98C63.3342 94.36 61.7142 95.7 59.9942 95.7C58.2942 95.7 56.6542 94.32 56.6542 91.94C56.6542 89.56 58.2942 88.28 59.9942 88.28C61.7142 88.28 63.3342 89.62 63.3342 91.98ZM67.3289 86.48L71.5089 97.5H74.2289L78.4289 86.48H76.0089L72.8889 95.46L69.7689 86.48H67.3289ZM79.3923 91.94C79.3923 95.34 81.6923 97.68 84.5523 97.68C86.3923 97.68 87.7123 96.8 88.4123 95.86V97.5H90.7123V86.48H88.4123V88.08C87.7323 87.18 86.4523 86.3 84.5923 86.3C81.6923 86.3 79.3923 88.54 79.3923 91.94ZM88.4123 91.98C88.4123 94.36 86.7923 95.7 85.0723 95.7C83.3723 95.7 81.7323 94.32 81.7323 91.94C81.7323 89.56 83.3723 88.28 85.0723 88.28C86.7923 88.28 88.4123 89.62 88.4123 91.98ZM101.527 97.5H103.787V91C103.787 87.92 101.847 86.3 99.267 86.3C97.947 86.3 96.727 86.84 95.987 87.74V86.48H93.707V97.5H95.987V91.34C95.987 89.32 97.087 88.28 98.767 88.28C100.427 88.28 101.527 89.32 101.527 91.34V97.5ZM105.935 91.98C105.935 95.44 108.175 97.68 111.335 97.68C114.035 97.68 115.795 96.18 116.415 94.02H113.955C113.535 95.16 112.695 95.76 111.335 95.76C109.495 95.76 108.275 94.4 108.275 91.98C108.275 89.58 109.495 88.22 111.335 88.22C112.695 88.22 113.575 88.9 113.955 89.96H116.415C115.795 87.64 114.035 86.3 111.335 86.3C108.175 86.3 105.935 88.54 105.935 91.98ZM123.328 88.22C125.028 88.22 126.368 89.3 126.408 91H120.308C120.548 89.26 121.788 88.22 123.328 88.22ZM128.487 94.22H126.028C125.608 95.08 124.828 95.76 123.428 95.76C121.748 95.76 120.448 94.66 120.288 92.84H128.708C128.768 92.46 128.788 92.1 128.788 91.72C128.788 88.48 126.568 86.3 123.428 86.3C120.168 86.3 117.928 88.52 117.928 91.98C117.928 95.44 120.268 97.68 123.428 97.68C126.128 97.68 127.868 96.14 128.487 94.22ZM130.271 91.94C130.271 95.34 132.571 97.68 135.471 97.68C137.271 97.68 138.591 96.84 139.291 95.84V97.5H141.591V82.7H139.291V88.02C138.451 86.98 136.931 86.3 135.491 86.3C132.571 86.3 130.271 88.54 130.271 91.94ZM139.291 91.98C139.291 94.36 137.671 95.7 135.951 95.7C134.251 95.7 132.611 94.32 132.611 91.94C132.611 89.56 134.251 88.28 135.951 88.28C137.671 88.28 139.291 89.62 139.291 91.98ZM149.781 97.5H152.061V87.98L156.321 97.5H157.901L162.141 87.98V97.5H164.421V83.6H161.981L157.121 94.5L152.241 83.6H149.781V97.5ZM166.658 91.94C166.658 95.34 168.958 97.68 171.818 97.68C173.658 97.68 174.978 96.8 175.678 95.86V97.5H177.978V86.48H175.678V88.08C174.998 87.18 173.718 86.3 171.858 86.3C168.958 86.3 166.658 88.54 166.658 91.94ZM175.678 91.98C175.678 94.36 174.058 95.7 172.338 95.7C170.638 95.7 168.998 94.32 168.998 91.94C168.998 89.56 170.638 88.28 172.338 88.28C174.058 88.28 175.678 89.62 175.678 91.98ZM181.333 94.44C181.333 96.68 182.553 97.5 184.513 97.5H186.313V95.6H184.913C183.953 95.6 183.633 95.26 183.633 94.44V88.34H186.313V86.48H183.633V83.74H181.333V86.48H180.033V88.34H181.333V94.44ZM188.414 97.5H190.694V91.34C190.694 89.32 191.794 88.28 193.474 88.28C195.134 88.28 196.234 89.32 196.234 91.34V97.5H198.494V91C198.494 87.92 196.574 86.3 194.114 86.3C192.694 86.3 191.454 86.84 190.694 87.76V82.7H188.414V97.5ZM206.042 88.22C207.742 88.22 209.082 89.3 209.122 91H203.022C203.262 89.26 204.502 88.22 206.042 88.22ZM211.202 94.22H208.742C208.322 95.08 207.542 95.76 206.142 95.76C204.462 95.76 203.162 94.66 203.002 92.84H211.422C211.482 92.46 211.502 92.1 211.502 91.72C211.502 88.48 209.282 86.3 206.142 86.3C202.882 86.3 200.642 88.52 200.642 91.98C200.642 95.44 202.982 97.68 206.142 97.68C208.842 97.68 210.582 96.14 211.202 94.22ZM229.366 97.5H231.626V91C231.626 87.92 229.666 86.3 227.086 86.3C225.486 86.3 223.926 87.14 223.246 88.48C222.486 87.04 221.026 86.3 219.286 86.3C217.966 86.3 216.766 86.84 216.026 87.74V86.48H213.746V97.5H216.026V91.34C216.026 89.32 217.126 88.28 218.806 88.28C220.466 88.28 221.566 89.32 221.566 91.34V97.5H223.826V91.34C223.826 89.32 224.926 88.28 226.606 88.28C228.266 88.28 229.366 89.32 229.366 91.34V97.5ZM233.767 91.94C233.767 95.34 236.067 97.68 238.927 97.68C240.767 97.68 242.087 96.8 242.787 95.86V97.5H245.087V86.48H242.787V88.08C242.107 87.18 240.827 86.3 238.967 86.3C236.067 86.3 233.767 88.54 233.767 91.94ZM242.787 91.98C242.787 94.36 241.167 95.7 239.447 95.7C237.747 95.7 236.107 94.32 236.107 91.94C236.107 89.56 237.747 88.28 239.447 88.28C241.167 88.28 242.787 89.62 242.787 91.98ZM248.442 94.44C248.442 96.68 249.662 97.5 251.622 97.5H253.422V95.6H252.022C251.062 95.6 250.742 95.26 250.742 94.44V88.34H253.422V86.48H250.742V83.74H248.442V86.48H247.142V88.34H248.442V94.44ZM255.523 97.5H257.803V86.48H255.523V97.5ZM256.683 85.02C257.483 85.02 258.123 84.38 258.123 83.56C258.123 82.74 257.483 82.1 256.683 82.1C255.863 82.1 255.223 82.74 255.223 83.56C255.223 84.38 255.863 85.02 256.683 85.02ZM260.037 91.98C260.037 95.44 262.277 97.68 265.437 97.68C268.137 97.68 269.897 96.18 270.517 94.02H268.057C267.637 95.16 266.797 95.76 265.437 95.76C263.597 95.76 262.377 94.4 262.377 91.98C262.377 89.58 263.597 88.22 265.437 88.22C266.797 88.22 267.677 88.9 268.057 89.96H270.517C269.897 87.64 268.137 86.3 265.437 86.3C262.277 86.3 260.037 88.54 260.037 91.98ZM281.009 94.42C280.889 90.44 274.669 91.68 274.669 89.46C274.669 88.72 275.309 88.22 276.529 88.22C277.769 88.22 278.509 88.88 278.589 89.84H280.869C280.749 87.64 279.109 86.3 276.609 86.3C274.009 86.3 272.369 87.72 272.369 89.48C272.369 93.52 278.769 92.28 278.769 94.44C278.769 95.2 278.069 95.76 276.749 95.76C275.489 95.76 274.629 95.02 274.549 94.12H272.189C272.289 96.12 274.149 97.68 276.789 97.68C279.389 97.68 281.009 96.28 281.009 94.42Z" fill="#212832"/>
<rect x="0.5" y="65.5" width="616" height="49" stroke="black" stroke-opacity="0.5"/>
<rect y="179" width="617" height="50" fill="white"/>
<path d="M24.6 207.44C26.08 207.44 27.24 206.3 27.24 204.84C27.24 203.36 26.08 202.22 24.6 202.22C23.16 202.22 22 203.36 22 204.84C22 206.3 23.16 207.44 24.6 207.44ZM48.9689 207.52C48.9689 208.86 48.0289 209.64 46.4889 209.64H43.4089V205.3H46.4089C47.9289 205.3 48.9689 206.14 48.9689 207.52ZM48.6089 201.46C48.6089 202.74 47.7089 203.44 46.2289 203.44H43.4089V199.46H46.2289C47.7089 199.46 48.6089 200.2 48.6089 201.46ZM51.2489 207.76C51.2489 206.1 50.0489 204.62 48.5689 204.36C49.9089 203.88 50.9289 202.86 50.9289 201.18C50.9289 199.22 49.3689 197.6 46.4289 197.6H41.1289V211.5H46.6889C49.5289 211.5 51.2489 209.88 51.2489 207.76ZM63.7066 200.48H61.4266V206.62C61.4266 208.64 60.3266 209.68 58.6466 209.68C56.9866 209.68 55.8866 208.64 55.8866 206.62V200.48H53.6266V206.96C53.6266 210.04 55.5866 211.66 58.1666 211.66C59.4666 211.66 60.7066 211.12 61.4266 210.18V211.5H63.7066V200.48ZM74.9348 208.42C74.8148 204.44 68.5948 205.68 68.5948 203.46C68.5948 202.72 69.2348 202.22 70.4548 202.22C71.6948 202.22 72.4348 202.88 72.5148 203.84H74.7948C74.6748 201.64 73.0348 200.3 70.5348 200.3C67.9348 200.3 66.2948 201.72 66.2948 203.48C66.2948 207.52 72.6948 206.28 72.6948 208.44C72.6948 209.2 71.9948 209.76 70.6748 209.76C69.4148 209.76 68.5548 209.02 68.4748 208.12H66.1148C66.2148 210.12 68.0748 211.68 70.7148 211.68C73.3148 211.68 74.9348 210.28 74.9348 208.42ZM77.3984 211.5H79.6784V200.48H77.3984V211.5ZM78.5584 199.02C79.3584 199.02 79.9984 198.38 79.9984 197.56C79.9984 196.74 79.3584 196.1 78.5584 196.1C77.7384 196.1 77.0984 196.74 77.0984 197.56C77.0984 198.38 77.7384 199.02 78.5584 199.02ZM90.4919 211.5H92.7519V205C92.7519 201.92 90.8119 200.3 88.2319 200.3C86.9119 200.3 85.6919 200.84 84.9519 201.74V200.48H82.6719V211.5H84.9519V205.34C84.9519 203.32 86.0519 202.28 87.7319 202.28C89.3919 202.28 90.4919 203.32 90.4919 205.34V211.5ZM100.3 202.22C102 202.22 103.34 203.3 103.38 205H97.2802C97.5202 203.26 98.7602 202.22 100.3 202.22ZM105.46 208.22H103C102.58 209.08 101.8 209.76 100.4 209.76C98.7202 209.76 97.4202 208.66 97.2602 206.84H105.68C105.74 206.46 105.76 206.1 105.76 205.72C105.76 202.48 103.54 200.3 100.4 200.3C97.1402 200.3 94.9002 202.52 94.9002 205.98C94.9002 209.44 97.2402 211.68 100.4 211.68C103.1 211.68 104.84 210.14 105.46 208.22ZM116.224 208.42C116.104 204.44 109.884 205.68 109.884 203.46C109.884 202.72 110.524 202.22 111.744 202.22C112.984 202.22 113.724 202.88 113.804 203.84H116.084C115.964 201.64 114.324 200.3 111.824 200.3C109.224 200.3 107.584 201.72 107.584 203.48C107.584 207.52 113.984 206.28 113.984 208.44C113.984 209.2 113.284 209.76 111.964 209.76C110.704 209.76 109.844 209.02 109.764 208.12H107.404C107.504 210.12 109.364 211.68 112.004 211.68C114.604 211.68 116.224 210.28 116.224 208.42ZM126.908 208.42C126.788 204.44 120.568 205.68 120.568 203.46C120.568 202.72 121.208 202.22 122.428 202.22C123.668 202.22 124.408 202.88 124.488 203.84H126.768C126.648 201.64 125.008 200.3 122.508 200.3C119.908 200.3 118.268 201.72 118.268 203.48C118.268 207.52 124.668 206.28 124.668 208.44C124.668 209.2 123.968 209.76 122.648 209.76C121.388 209.76 120.528 209.02 120.448 208.12H118.088C118.188 210.12 120.048 211.68 122.688 211.68C125.288 211.68 126.908 210.28 126.908 208.42ZM127.971 214.28H129.451L131.871 208.76H129.391L127.971 214.28ZM148.439 211.5H150.839L145.859 197.58H143.219L138.239 211.5H140.619L141.619 208.66H147.439L148.439 211.5ZM146.799 206.8H142.259L144.539 200.34L146.799 206.8ZM152.244 205.98C152.244 209.44 154.484 211.68 157.644 211.68C160.344 211.68 162.104 210.18 162.724 208.02H160.264C159.844 209.16 159.004 209.76 157.644 209.76C155.804 209.76 154.584 208.4 154.584 205.98C154.584 203.58 155.804 202.22 157.644 202.22C159.004 202.22 159.884 202.9 160.264 203.96H162.724C162.104 201.64 160.344 200.3 157.644 200.3C154.484 200.3 152.244 202.54 152.244 205.98ZM164.236 205.98C164.236 209.44 166.476 211.68 169.636 211.68C172.336 211.68 174.096 210.18 174.716 208.02H172.256C171.836 209.16 170.996 209.76 169.636 209.76C167.796 209.76 166.576 208.4 166.576 205.98C166.576 203.58 167.796 202.22 169.636 202.22C170.996 202.22 171.876 202.9 172.256 203.96H174.716C174.096 201.64 172.336 200.3 169.636 200.3C166.476 200.3 164.236 202.54 164.236 205.98ZM187.488 205.98C187.488 202.52 185.008 200.3 181.868 200.3C178.728 200.3 176.248 202.52 176.248 205.98C176.248 209.44 178.628 211.68 181.768 211.68C184.928 211.68 187.488 209.44 187.488 205.98ZM178.568 205.98C178.568 203.48 180.108 202.28 181.828 202.28C183.528 202.28 185.148 203.48 185.148 205.98C185.148 208.48 183.468 209.7 181.768 209.7C180.048 209.7 178.568 208.48 178.568 205.98ZM199.722 200.48H197.442V206.62C197.442 208.64 196.342 209.68 194.662 209.68C193.002 209.68 191.902 208.64 191.902 206.62V200.48H189.642V206.96C189.642 210.04 191.602 211.66 194.182 211.66C195.482 211.66 196.722 211.12 197.442 210.18V211.5H199.722V200.48ZM210.55 211.5H212.81V205C212.81 201.92 210.87 200.3 208.29 200.3C206.97 200.3 205.75 200.84 205.01 201.74V200.48H202.73V211.5H205.01V205.34C205.01 203.32 206.11 202.28 207.79 202.28C209.45 202.28 210.55 203.32 210.55 205.34V211.5ZM216.079 208.44C216.079 210.68 217.299 211.5 219.259 211.5H221.059V209.6H219.659C218.699 209.6 218.379 209.26 218.379 208.44V202.34H221.059V200.48H218.379V197.74H216.079V200.48H214.779V202.34H216.079V208.44ZM223.16 211.5H225.44V200.48H223.16V211.5ZM224.32 199.02C225.12 199.02 225.76 198.38 225.76 197.56C225.76 196.74 225.12 196.1 224.32 196.1C223.5 196.1 222.86 196.74 222.86 197.56C222.86 198.38 223.5 199.02 224.32 199.02ZM236.254 211.5H238.514V205C238.514 201.92 236.574 200.3 233.994 200.3C232.674 200.3 231.454 200.84 230.714 201.74V200.48H228.434V211.5H230.714V205.34C230.714 203.32 231.814 202.28 233.494 202.28C235.154 202.28 236.254 203.32 236.254 205.34V211.5ZM240.662 205.94C240.662 209.34 242.962 211.68 245.862 211.68C247.662 211.68 248.982 210.78 249.682 209.84V211.68C249.682 213.88 248.362 214.96 246.602 214.96C245.022 214.96 243.802 214.18 243.462 213.04H241.202C241.482 215.48 243.662 216.94 246.602 216.94C250.042 216.94 251.982 214.68 251.982 211.68V200.48H249.682V202.08C249.002 201.14 247.662 200.3 245.862 200.3C242.962 200.3 240.662 202.54 240.662 205.94ZM249.682 205.98C249.682 208.36 248.062 209.7 246.342 209.7C244.642 209.7 243.002 208.32 243.002 205.94C243.002 203.56 244.642 202.28 246.342 202.28C248.062 202.28 249.682 203.62 249.682 205.98ZM253.577 214.28H255.057L257.477 208.76H254.997L253.577 214.28ZM263.904 205.94C263.904 209.34 266.204 211.68 269.064 211.68C270.904 211.68 272.224 210.8 272.924 209.86V211.5H275.224V200.48H272.924V202.08C272.244 201.18 270.964 200.3 269.104 200.3C266.204 200.3 263.904 202.54 263.904 205.94ZM272.924 205.98C272.924 208.36 271.304 209.7 269.584 209.7C267.884 209.7 266.244 208.32 266.244 205.94C266.244 203.56 267.884 202.28 269.584 202.28C271.304 202.28 272.924 203.62 272.924 205.98ZM286.039 211.5H288.299V205C288.299 201.92 286.359 200.3 283.779 200.3C282.459 200.3 281.239 200.84 280.499 201.74V200.48H278.219V211.5H280.499V205.34C280.499 203.32 281.599 202.28 283.279 202.28C284.939 202.28 286.039 203.32 286.039 205.34V211.5ZM290.447 205.94C290.447 209.34 292.747 211.68 295.647 211.68C297.447 211.68 298.767 210.84 299.467 209.84V211.5H301.767V196.7H299.467V202.02C298.627 200.98 297.107 200.3 295.667 200.3C292.747 200.3 290.447 202.54 290.447 205.94ZM299.467 205.98C299.467 208.36 297.847 209.7 296.127 209.7C294.427 209.7 292.787 208.32 292.787 205.94C292.787 203.56 294.427 202.28 296.127 202.28C297.847 202.28 299.467 203.62 299.467 205.98ZM309.197 204.52C309.197 208.7 312.377 211.62 316.297 211.62C319.197 211.62 321.697 210.18 322.757 207.46H320.017C319.277 208.94 317.957 209.64 316.297 209.64C313.537 209.64 311.537 207.66 311.537 204.52C311.537 201.38 313.537 199.42 316.297 199.42C317.957 199.42 319.277 200.12 320.017 201.6H322.757C321.697 198.88 319.197 197.42 316.297 197.42C312.377 197.42 309.197 200.36 309.197 204.52ZM335.926 205.98C335.926 202.52 333.446 200.3 330.306 200.3C327.166 200.3 324.686 202.52 324.686 205.98C324.686 209.44 327.066 211.68 330.206 211.68C333.366 211.68 335.926 209.44 335.926 205.98ZM327.006 205.98C327.006 203.48 328.546 202.28 330.266 202.28C331.966 202.28 333.586 203.48 333.586 205.98C333.586 208.48 331.906 209.7 330.206 209.7C328.486 209.7 327.006 208.48 327.006 205.98ZM353.8 211.5H356.06V205C356.06 201.92 354.1 200.3 351.52 200.3C349.92 200.3 348.36 201.14 347.68 202.48C346.92 201.04 345.46 200.3 343.72 200.3C342.4 200.3 341.2 200.84 340.46 201.74V200.48H338.18V211.5H340.46V205.34C340.46 203.32 341.56 202.28 343.24 202.28C344.9 202.28 346 203.32 346 205.34V211.5H348.26V205.34C348.26 203.32 349.36 202.28 351.04 202.28C352.7 202.28 353.8 203.32 353.8 205.34V211.5ZM374.581 211.5H376.841V205C376.841 201.92 374.881 200.3 372.301 200.3C370.701 200.3 369.141 201.14 368.461 202.48C367.701 201.04 366.241 200.3 364.501 200.3C363.181 200.3 361.981 200.84 361.241 201.74V200.48H358.961V211.5H361.241V205.34C361.241 203.32 362.341 202.28 364.021 202.28C365.681 202.28 366.781 203.32 366.781 205.34V211.5H369.041V205.34C369.041 203.32 370.141 202.28 371.821 202.28C373.481 202.28 374.581 203.32 374.581 205.34V211.5ZM389.722 200.48H387.442V206.62C387.442 208.64 386.342 209.68 384.662 209.68C383.002 209.68 381.902 208.64 381.902 206.62V200.48H379.642V206.96C379.642 210.04 381.602 211.66 384.182 211.66C385.482 211.66 386.722 211.12 387.442 210.18V211.5H389.722V200.48ZM400.55 211.5H402.81V205C402.81 201.92 400.87 200.3 398.29 200.3C396.97 200.3 395.75 200.84 395.01 201.74V200.48H392.73V211.5H395.01V205.34C395.01 203.32 396.11 202.28 397.79 202.28C399.45 202.28 400.55 203.32 400.55 205.34V211.5ZM405.719 211.5H407.999V200.48H405.719V211.5ZM406.879 199.02C407.679 199.02 408.319 198.38 408.319 197.56C408.319 196.74 407.679 196.1 406.879 196.1C406.059 196.1 405.419 196.74 405.419 197.56C405.419 198.38 406.059 199.02 406.879 199.02ZM410.232 205.98C410.232 209.44 412.472 211.68 415.632 211.68C418.332 211.68 420.092 210.18 420.712 208.02H418.252C417.832 209.16 416.992 209.76 415.632 209.76C413.792 209.76 412.572 208.4 412.572 205.98C412.572 203.58 413.792 202.22 415.632 202.22C416.992 202.22 417.872 202.9 418.252 203.96H420.712C420.092 201.64 418.332 200.3 415.632 200.3C412.472 200.3 410.232 202.54 410.232 205.98ZM422.224 205.94C422.224 209.34 424.524 211.68 427.384 211.68C429.224 211.68 430.544 210.8 431.244 209.86V211.5H433.544V200.48H431.244V202.08C430.564 201.18 429.284 200.3 427.424 200.3C424.524 200.3 422.224 202.54 422.224 205.94ZM431.244 205.98C431.244 208.36 429.624 209.7 427.904 209.7C426.204 209.7 424.564 208.32 424.564 205.94C424.564 203.56 426.204 202.28 427.904 202.28C429.624 202.28 431.244 203.62 431.244 205.98ZM436.899 208.44C436.899 210.68 438.119 211.5 440.079 211.5H441.879V209.6H440.479C439.519 209.6 439.199 209.26 439.199 208.44V202.34H441.879V200.48H439.199V197.74H436.899V200.48H435.599V202.34H436.899V208.44ZM443.98 211.5H446.26V200.48H443.98V211.5ZM445.14 199.02C445.94 199.02 446.58 198.38 446.58 197.56C446.58 196.74 445.94 196.1 445.14 196.1C444.32 196.1 443.68 196.74 443.68 197.56C443.68 198.38 444.32 199.02 445.14 199.02ZM459.754 205.98C459.754 202.52 457.274 200.3 454.134 200.3C450.994 200.3 448.514 202.52 448.514 205.98C448.514 209.44 450.894 211.68 454.034 211.68C457.194 211.68 459.754 209.44 459.754 205.98ZM450.834 205.98C450.834 203.48 452.374 202.28 454.094 202.28C455.794 202.28 457.414 203.48 457.414 205.98C457.414 208.48 455.734 209.7 454.034 209.7C452.314 209.7 450.834 208.48 450.834 205.98ZM469.828 211.5H472.088V205C472.088 201.92 470.148 200.3 467.568 200.3C466.248 200.3 465.028 200.84 464.288 201.74V200.48H462.008V211.5H464.288V205.34C464.288 203.32 465.388 202.28 467.068 202.28C468.728 202.28 469.828 203.32 469.828 205.34V211.5ZM488.031 207.52C488.031 208.86 487.091 209.64 485.551 209.64H482.471V205.3H485.471C486.991 205.3 488.031 206.14 488.031 207.52ZM487.671 201.46C487.671 202.74 486.771 203.44 485.291 203.44H482.471V199.46H485.291C486.771 199.46 487.671 200.2 487.671 201.46ZM490.311 207.76C490.311 206.1 489.111 204.62 487.631 204.36C488.971 203.88 489.991 202.86 489.991 201.18C489.991 199.22 488.431 197.6 485.491 197.6H480.191V211.5H485.751C488.591 211.5 490.311 209.88 490.311 207.76ZM492.029 205.94C492.029 209.34 494.329 211.68 497.189 211.68C499.029 211.68 500.349 210.8 501.049 209.86V211.5H503.349V200.48H501.049V202.08C500.369 201.18 499.089 200.3 497.229 200.3C494.329 200.3 492.029 202.54 492.029 205.94ZM501.049 205.98C501.049 208.36 499.429 209.7 497.709 209.7C496.009 209.7 494.369 208.32 494.369 205.94C494.369 203.56 496.009 202.28 497.709 202.28C499.429 202.28 501.049 203.62 501.049 205.98ZM514.564 208.42C514.444 204.44 508.224 205.68 508.224 203.46C508.224 202.72 508.864 202.22 510.084 202.22C511.324 202.22 512.064 202.88 512.144 203.84H514.424C514.304 201.64 512.664 200.3 510.164 200.3C507.564 200.3 505.924 201.72 505.924 203.48C505.924 207.52 512.324 206.28 512.324 208.44C512.324 209.2 511.624 209.76 510.304 209.76C509.044 209.76 508.184 209.02 508.104 208.12H505.744C505.844 210.12 507.704 211.68 510.344 211.68C512.944 211.68 514.564 210.28 514.564 208.42ZM517.027 211.5H519.307V200.48H517.027V211.5ZM518.187 199.02C518.987 199.02 519.627 198.38 519.627 197.56C519.627 196.74 518.987 196.1 518.187 196.1C517.367 196.1 516.727 196.74 516.727 197.56C516.727 198.38 517.367 199.02 518.187 199.02ZM521.541 205.98C521.541 209.44 523.781 211.68 526.941 211.68C529.641 211.68 531.401 210.18 532.021 208.02H529.561C529.141 209.16 528.301 209.76 526.941 209.76C525.101 209.76 523.881 208.4 523.881 205.98C523.881 203.58 525.101 202.22 526.941 202.22C528.301 202.22 529.181 202.9 529.561 203.96H532.021C531.401 201.64 529.641 200.3 526.941 200.3C523.781 200.3 521.541 202.54 521.541 205.98ZM542.513 208.42C542.393 204.44 536.173 205.68 536.173 203.46C536.173 202.72 536.813 202.22 538.033 202.22C539.273 202.22 540.013 202.88 540.093 203.84H542.373C542.253 201.64 540.613 200.3 538.113 200.3C535.513 200.3 533.873 201.72 533.873 203.48C533.873 207.52 540.273 206.28 540.273 208.44C540.273 209.2 539.573 209.76 538.253 209.76C536.993 209.76 536.133 209.02 536.053 208.12H533.693C533.793 210.12 535.653 211.68 538.293 211.68C540.893 211.68 542.513 210.28 542.513 208.42Z" fill="#212832"/>
<rect x="0.5" y="179.5" width="616" height="49" stroke="black" stroke-opacity="0.5"/>
<rect y="122" width="617" height="50" fill="white"/>
<path d="M24.6 150.44C26.08 150.44 27.24 149.3 27.24 147.84C27.24 146.36 26.08 145.22 24.6 145.22C23.16 145.22 22 146.36 22 147.84C22 149.3 23.16 150.44 24.6 150.44ZM40.3689 147.52C40.3689 151.7 43.5489 154.62 47.4689 154.62C50.3689 154.62 52.8689 153.18 53.9289 150.46H51.1889C50.4489 151.94 49.1289 152.64 47.4689 152.64C44.7089 152.64 42.7089 150.66 42.7089 147.52C42.7089 144.38 44.7089 142.42 47.4689 142.42C49.1289 142.42 50.4489 143.12 51.1889 144.6H53.9289C52.8689 141.88 50.3689 140.42 47.4689 140.42C43.5489 140.42 40.3689 143.36 40.3689 147.52ZM67.0977 148.98C67.0977 145.52 64.6177 143.3 61.4777 143.3C58.3377 143.3 55.8577 145.52 55.8577 148.98C55.8577 152.44 58.2377 154.68 61.3777 154.68C64.5377 154.68 67.0977 152.44 67.0977 148.98ZM58.1777 148.98C58.1777 146.48 59.7177 145.28 61.4377 145.28C63.1377 145.28 64.7577 146.48 64.7577 148.98C64.7577 151.48 63.0777 152.7 61.3777 152.7C59.6577 152.7 58.1777 151.48 58.1777 148.98ZM84.9716 154.5H87.2316V148C87.2316 144.92 85.2716 143.3 82.6916 143.3C81.0916 143.3 79.5316 144.14 78.8516 145.48C78.0916 144.04 76.6316 143.3 74.8916 143.3C73.5716 143.3 72.3716 143.84 71.6316 144.74V143.48H69.3516V154.5H71.6316V148.34C71.6316 146.32 72.7316 145.28 74.4116 145.28C76.0716 145.28 77.1716 146.32 77.1716 148.34V154.5H79.4316V148.34C79.4316 146.32 80.5316 145.28 82.2116 145.28C83.8716 145.28 84.9716 146.32 84.9716 148.34V154.5ZM92.4128 145.1V143.48H90.1328V159.74H92.4128V152.9C93.1328 153.76 94.4328 154.68 96.2528 154.68C99.1528 154.68 101.433 152.34 101.433 148.94C101.433 145.54 99.1528 143.3 96.2528 143.3C94.4528 143.3 93.1128 144.18 92.4128 145.1ZM99.1128 148.94C99.1128 151.32 97.4728 152.7 95.7528 152.7C94.0528 152.7 92.4128 151.36 92.4128 148.98C92.4128 146.62 94.0528 145.28 95.7528 145.28C97.4728 145.28 99.1128 146.56 99.1128 148.94ZM113.668 143.48H111.388V149.62C111.388 151.64 110.288 152.68 108.608 152.68C106.948 152.68 105.848 151.64 105.848 149.62V143.48H103.588V149.96C103.588 153.04 105.548 154.66 108.128 154.66C109.428 154.66 110.668 154.12 111.388 153.18V154.5H113.668V143.48ZM117.036 151.44C117.036 153.68 118.256 154.5 120.216 154.5H122.016V152.6H120.616C119.656 152.6 119.336 152.26 119.336 151.44V145.34H122.016V143.48H119.336V140.74H117.036V143.48H115.736V145.34H117.036V151.44ZM128.757 145.22C130.457 145.22 131.797 146.3 131.837 148H125.737C125.977 146.26 127.217 145.22 128.757 145.22ZM133.917 151.22H131.457C131.037 152.08 130.257 152.76 128.857 152.76C127.177 152.76 125.877 151.66 125.717 149.84H134.137C134.197 149.46 134.217 149.1 134.217 148.72C134.217 145.48 131.997 143.3 128.857 143.3C125.597 143.3 123.357 145.52 123.357 148.98C123.357 152.44 125.697 154.68 128.857 154.68C131.557 154.68 133.297 153.14 133.917 151.22ZM138.741 148.7C138.741 146.36 139.781 145.66 141.461 145.66H142.041V143.3C140.481 143.3 139.381 143.98 138.741 145.08V143.48H136.461V154.5H138.741V148.7ZM162.772 147.52C162.772 143.36 159.632 140.42 155.672 140.42C151.752 140.42 148.572 143.36 148.572 147.52C148.572 151.7 151.752 154.64 155.672 154.64C159.632 154.64 162.772 151.7 162.772 147.52ZM150.912 147.52C150.912 144.38 152.912 142.42 155.672 142.42C158.432 142.42 160.432 144.38 160.432 147.52C160.432 150.66 158.432 152.66 155.672 152.66C152.912 152.66 150.912 150.66 150.912 147.52ZM167.296 148.7C167.296 146.36 168.336 145.66 170.016 145.66H170.596V143.3C169.036 143.3 167.936 143.98 167.296 145.08V143.48H165.016V154.5H167.296V148.7ZM171.931 148.94C171.931 152.34 174.231 154.68 177.131 154.68C178.931 154.68 180.251 153.78 180.951 152.84V154.68C180.951 156.88 179.631 157.96 177.871 157.96C176.291 157.96 175.071 157.18 174.731 156.04H172.471C172.751 158.48 174.931 159.94 177.871 159.94C181.311 159.94 183.251 157.68 183.251 154.68V143.48H180.951V145.08C180.271 144.14 178.931 143.3 177.131 143.3C174.231 143.3 171.931 145.54 171.931 148.94ZM180.951 148.98C180.951 151.36 179.331 152.7 177.611 152.7C175.911 152.7 174.271 151.32 174.271 148.94C174.271 146.56 175.911 145.28 177.611 145.28C179.331 145.28 180.951 146.62 180.951 148.98ZM185.486 148.94C185.486 152.34 187.786 154.68 190.646 154.68C192.486 154.68 193.806 153.8 194.506 152.86V154.5H196.806V143.48H194.506V145.08C193.826 144.18 192.546 143.3 190.686 143.3C187.786 143.3 185.486 145.54 185.486 148.94ZM194.506 148.98C194.506 151.36 192.886 152.7 191.166 152.7C189.466 152.7 187.826 151.32 187.826 148.94C187.826 146.56 189.466 145.28 191.166 145.28C192.886 145.28 194.506 146.62 194.506 148.98ZM207.621 154.5H209.881V148C209.881 144.92 207.941 143.3 205.361 143.3C204.041 143.3 202.821 143.84 202.081 144.74V143.48H199.801V154.5H202.081V148.34C202.081 146.32 203.181 145.28 204.861 145.28C206.521 145.28 207.621 146.32 207.621 148.34V154.5ZM212.789 154.5H215.069V143.48H212.789V154.5ZM213.949 142.02C214.749 142.02 215.389 141.38 215.389 140.56C215.389 139.74 214.749 139.1 213.949 139.1C213.129 139.1 212.489 139.74 212.489 140.56C212.489 141.38 213.129 142.02 213.949 142.02ZM226.283 151.42C226.163 147.44 219.943 148.68 219.943 146.46C219.943 145.72 220.583 145.22 221.803 145.22C223.043 145.22 223.783 145.88 223.863 146.84H226.143C226.023 144.64 224.383 143.3 221.883 143.3C219.283 143.3 217.643 144.72 217.643 146.48C217.643 150.52 224.043 149.28 224.043 151.44C224.043 152.2 223.343 152.76 222.023 152.76C220.763 152.76 219.903 152.02 219.823 151.12H217.463C217.563 153.12 219.423 154.68 222.063 154.68C224.663 154.68 226.283 153.28 226.283 151.42ZM227.986 148.94C227.986 152.34 230.286 154.68 233.146 154.68C234.986 154.68 236.306 153.8 237.006 152.86V154.5H239.306V143.48H237.006V145.08C236.326 144.18 235.046 143.3 233.186 143.3C230.286 143.3 227.986 145.54 227.986 148.94ZM237.006 148.98C237.006 151.36 235.386 152.7 233.666 152.7C231.966 152.7 230.326 151.32 230.326 148.94C230.326 146.56 231.966 145.28 233.666 145.28C235.386 145.28 237.006 146.62 237.006 148.98ZM242.661 151.44C242.661 153.68 243.881 154.5 245.841 154.5H247.641V152.6H246.241C245.281 152.6 244.961 152.26 244.961 151.44V145.34H247.641V143.48H244.961V140.74H242.661V143.48H241.361V145.34H242.661V151.44ZM249.742 154.5H252.022V143.48H249.742V154.5ZM250.902 142.02C251.702 142.02 252.342 141.38 252.342 140.56C252.342 139.74 251.702 139.1 250.902 139.1C250.082 139.1 249.442 139.74 249.442 140.56C249.442 141.38 250.082 142.02 250.902 142.02ZM265.516 148.98C265.516 145.52 263.036 143.3 259.896 143.3C256.756 143.3 254.276 145.52 254.276 148.98C254.276 152.44 256.656 154.68 259.796 154.68C262.956 154.68 265.516 152.44 265.516 148.98ZM256.596 148.98C256.596 146.48 258.136 145.28 259.856 145.28C261.556 145.28 263.176 146.48 263.176 148.98C263.176 151.48 261.496 152.7 259.796 152.7C258.076 152.7 256.596 151.48 256.596 148.98ZM275.59 154.5H277.85V148C277.85 144.92 275.91 143.3 273.33 143.3C272.01 143.3 270.79 143.84 270.05 144.74V143.48H267.77V154.5H270.05V148.34C270.05 146.32 271.15 145.28 272.83 145.28C274.49 145.28 275.59 146.32 275.59 148.34V154.5ZM294.793 143.7C294.933 141.8 293.633 140.28 291.213 140.28C288.833 140.28 287.353 141.66 287.353 143.48C287.353 144.46 287.633 145.2 288.413 146.14C286.213 147.04 285.153 148.62 285.153 150.5C285.153 153.1 287.153 154.76 290.153 154.76C292.093 154.76 293.633 154.12 294.973 152.78L296.693 154.5H299.673L296.293 151.14C296.453 150.88 296.633 150.6 296.793 150.32L298.593 147.24H296.133L294.713 149.58L291.033 145.92C290.053 144.86 289.633 144.24 289.633 143.48C289.633 142.74 290.213 142.14 291.113 142.14C291.973 142.14 292.553 142.68 292.513 143.7H294.793ZM290.153 152.82C288.513 152.82 287.433 151.76 287.433 150.42C287.433 149.18 288.173 148.22 289.793 147.58L293.473 151.28C292.513 152.3 291.453 152.82 290.153 152.82ZM315.743 154.5H318.143L313.163 140.58H310.523L305.543 154.5H307.923L308.923 151.66H314.743L315.743 154.5ZM314.103 149.8H309.563L311.843 143.34L314.103 149.8ZM322.589 148.7C322.589 146.36 323.629 145.66 325.309 145.66H325.889V143.3C324.329 143.3 323.229 143.98 322.589 145.08V143.48H320.309V154.5H322.589V148.7ZM327.224 148.98C327.224 152.44 329.464 154.68 332.624 154.68C335.324 154.68 337.084 153.18 337.704 151.02H335.244C334.824 152.16 333.984 152.76 332.624 152.76C330.784 152.76 329.564 151.4 329.564 148.98C329.564 146.58 330.784 145.22 332.624 145.22C333.984 145.22 334.864 145.9 335.244 146.96H337.704C337.084 144.64 335.324 143.3 332.624 143.3C329.464 143.3 327.224 145.54 327.224 148.98ZM339.977 154.5H342.257V148.34C342.257 146.32 343.357 145.28 345.037 145.28C346.697 145.28 347.797 146.32 347.797 148.34V154.5H350.057V148C350.057 144.92 348.137 143.3 345.677 143.3C344.257 143.3 343.017 143.84 342.257 144.76V139.7H339.977V154.5ZM352.965 154.5H355.245V143.48H352.965V154.5ZM354.125 142.02C354.925 142.02 355.565 141.38 355.565 140.56C355.565 139.74 354.925 139.1 354.125 139.1C353.305 139.1 352.665 139.74 352.665 140.56C352.665 141.38 353.305 142.02 354.125 142.02ZM358.598 151.44C358.598 153.68 359.818 154.5 361.778 154.5H363.578V152.6H362.178C361.218 152.6 360.898 152.26 360.898 151.44V145.34H363.578V143.48H360.898V140.74H358.598V143.48H357.298V145.34H358.598V151.44ZM370.32 145.22C372.02 145.22 373.36 146.3 373.4 148H367.3C367.54 146.26 368.78 145.22 370.32 145.22ZM375.48 151.22H373.02C372.6 152.08 371.82 152.76 370.42 152.76C368.74 152.76 367.44 151.66 367.28 149.84H375.7C375.76 149.46 375.78 149.1 375.78 148.72C375.78 145.48 373.56 143.3 370.42 143.3C367.16 143.3 364.92 145.52 364.92 148.98C364.92 152.44 367.26 154.68 370.42 154.68C373.12 154.68 374.86 153.14 375.48 151.22ZM377.263 148.98C377.263 152.44 379.503 154.68 382.663 154.68C385.363 154.68 387.123 153.18 387.743 151.02H385.283C384.863 152.16 384.023 152.76 382.663 152.76C380.823 152.76 379.603 151.4 379.603 148.98C379.603 146.58 380.823 145.22 382.663 145.22C384.023 145.22 384.903 145.9 385.283 146.96H387.743C387.123 144.64 385.363 143.3 382.663 143.3C379.503 143.3 377.263 145.54 377.263 148.98ZM390.376 151.44C390.376 153.68 391.596 154.5 393.556 154.5H395.356V152.6H393.956C392.996 152.6 392.676 152.26 392.676 151.44V145.34H395.356V143.48H392.676V140.74H390.376V143.48H389.076V145.34H390.376V151.44ZM407.437 143.48H405.157V149.62C405.157 151.64 404.057 152.68 402.377 152.68C400.717 152.68 399.617 151.64 399.617 149.62V143.48H397.357V149.96C397.357 153.04 399.317 154.66 401.897 154.66C403.197 154.66 404.437 154.12 405.157 153.18V154.5H407.437V143.48ZM412.725 148.7C412.725 146.36 413.765 145.66 415.445 145.66H416.025V143.3C414.465 143.3 413.365 143.98 412.725 145.08V143.48H410.445V154.5H412.725V148.7ZM422.761 145.22C424.461 145.22 425.801 146.3 425.841 148H419.741C419.981 146.26 421.221 145.22 422.761 145.22ZM427.921 151.22H425.461C425.041 152.08 424.261 152.76 422.861 152.76C421.181 152.76 419.881 151.66 419.721 149.84H428.141C428.201 149.46 428.221 149.1 428.221 148.72C428.221 145.48 426.001 143.3 422.861 143.3C419.601 143.3 417.361 145.52 417.361 148.98C417.361 152.44 419.701 154.68 422.861 154.68C425.561 154.68 427.301 153.14 427.921 151.22ZM435.66 154.5H437.94V140.6H435.66V154.5ZM448.754 154.5H451.014V148C451.014 144.92 449.074 143.3 446.494 143.3C445.174 143.3 443.954 143.84 443.214 144.74V143.48H440.934V154.5H443.214V148.34C443.214 146.32 444.314 145.28 445.994 145.28C447.654 145.28 448.754 146.32 448.754 148.34V154.5ZM454.202 154.5H456.502V145.34H458.542V143.48H456.502V142.7C456.502 141.44 456.982 140.96 458.382 140.96V139.06C455.502 139.06 454.202 140.16 454.202 142.7V143.48H452.902V145.34H454.202V154.5ZM471.063 148.98C471.063 145.52 468.583 143.3 465.443 143.3C462.303 143.3 459.823 145.52 459.823 148.98C459.823 152.44 462.203 154.68 465.343 154.68C468.503 154.68 471.063 152.44 471.063 148.98ZM462.143 148.98C462.143 146.48 463.683 145.28 465.403 145.28C467.103 145.28 468.723 146.48 468.723 148.98C468.723 151.48 467.043 152.7 465.343 152.7C463.623 152.7 462.143 151.48 462.143 148.98ZM475.596 148.7C475.596 146.36 476.636 145.66 478.316 145.66H478.896V143.3C477.336 143.3 476.236 143.98 475.596 145.08V143.48H473.316V154.5H475.596V148.7ZM496.612 154.5H498.872V148C498.872 144.92 496.912 143.3 494.332 143.3C492.732 143.3 491.172 144.14 490.492 145.48C489.732 144.04 488.272 143.3 486.532 143.3C485.212 143.3 484.012 143.84 483.272 144.74V143.48H480.992V154.5H483.272V148.34C483.272 146.32 484.372 145.28 486.052 145.28C487.712 145.28 488.812 146.32 488.812 148.34V154.5H491.072V148.34C491.072 146.32 492.172 145.28 493.852 145.28C495.512 145.28 496.612 146.32 496.612 148.34V154.5ZM501.013 148.94C501.013 152.34 503.313 154.68 506.173 154.68C508.013 154.68 509.333 153.8 510.033 152.86V154.5H512.333V143.48H510.033V145.08C509.353 144.18 508.073 143.3 506.213 143.3C503.313 143.3 501.013 145.54 501.013 148.94ZM510.033 148.98C510.033 151.36 508.413 152.7 506.693 152.7C504.993 152.7 503.353 151.32 503.353 148.94C503.353 146.56 504.993 145.28 506.693 145.28C508.413 145.28 510.033 146.62 510.033 148.98ZM515.688 151.44C515.688 153.68 516.908 154.5 518.868 154.5H520.668V152.6H519.268C518.308 152.6 517.988 152.26 517.988 151.44V145.34H520.668V143.48H517.988V140.74H515.688V143.48H514.388V145.34H515.688V151.44ZM522.77 154.5H525.05V143.48H522.77V154.5ZM523.93 142.02C524.73 142.02 525.37 141.38 525.37 140.56C525.37 139.74 524.73 139.1 523.93 139.1C523.11 139.1 522.47 139.74 522.47 140.56C522.47 141.38 523.11 142.02 523.93 142.02ZM538.543 148.98C538.543 145.52 536.063 143.3 532.923 143.3C529.783 143.3 527.303 145.52 527.303 148.98C527.303 152.44 529.683 154.68 532.823 154.68C535.983 154.68 538.543 152.44 538.543 148.98ZM529.623 148.98C529.623 146.48 531.163 145.28 532.883 145.28C534.583 145.28 536.203 146.48 536.203 148.98C536.203 151.48 534.523 152.7 532.823 152.7C531.103 152.7 529.623 151.48 529.623 148.98ZM548.617 154.5H550.877V148C550.877 144.92 548.937 143.3 546.357 143.3C545.037 143.3 543.817 143.84 543.077 144.74V143.48H540.797V154.5H543.077V148.34C543.077 146.32 544.177 145.28 545.857 145.28C547.517 145.28 548.617 146.32 548.617 148.34V154.5Z" fill="#212832"/>
<rect x="0.5" y="122.5" width="616" height="49" stroke="black" stroke-opacity="0.5"/>
<rect y="236" width="617" height="50" fill="white"/>
<path d="M24.6 264.44C26.08 264.44 27.24 263.3 27.24 261.84C27.24 260.36 26.08 259.22 24.6 259.22C23.16 259.22 22 260.36 22 261.84C22 263.3 23.16 264.44 24.6 264.44ZM40.3689 261.52C40.3689 265.7 43.5489 268.62 47.4689 268.62C50.3689 268.62 52.8689 267.18 53.9289 264.46H51.1889C50.4489 265.94 49.1289 266.64 47.4689 266.64C44.7089 266.64 42.7089 264.66 42.7089 261.52C42.7089 258.38 44.7089 256.42 47.4689 256.42C49.1289 256.42 50.4489 257.12 51.1889 258.6H53.9289C52.8689 255.88 50.3689 254.42 47.4689 254.42C43.5489 254.42 40.3689 257.36 40.3689 261.52ZM64.073 261V256.46H66.593C68.373 256.46 69.173 257.3 69.173 258.74C69.173 260.14 68.373 261 66.593 261H64.073ZM71.513 258.74C71.513 256.48 69.893 254.6 66.593 254.6H61.793V268.5H64.073V262.86H66.593C70.213 262.86 71.513 260.72 71.513 258.74ZM75.9675 262.7C75.9675 260.36 77.0075 259.66 78.6875 259.66H79.2675V257.3C77.7075 257.3 76.6075 257.98 75.9675 259.08V257.48H73.6875V268.5H75.9675V262.7ZM91.8633 262.98C91.8633 259.52 89.3833 257.3 86.2433 257.3C83.1033 257.3 80.6233 259.52 80.6233 262.98C80.6233 266.44 83.0033 268.68 86.1433 268.68C89.3033 268.68 91.8633 266.44 91.8633 262.98ZM82.9433 262.98C82.9433 260.48 84.4833 259.28 86.2033 259.28C87.9033 259.28 89.5233 260.48 89.5233 262.98C89.5233 265.48 87.8433 266.7 86.1433 266.7C84.4233 266.7 82.9433 265.48 82.9433 262.98ZM93.3572 262.94C93.3572 266.34 95.6572 268.68 98.5572 268.68C100.357 268.68 101.677 267.78 102.377 266.84V268.68C102.377 270.88 101.057 271.96 99.2972 271.96C97.7172 271.96 96.4972 271.18 96.1572 270.04H93.8972C94.1772 272.48 96.3572 273.94 99.2972 273.94C102.737 273.94 104.677 271.68 104.677 268.68V257.48H102.377V259.08C101.697 258.14 100.357 257.3 98.5572 257.3C95.6572 257.3 93.3572 259.54 93.3572 262.94ZM102.377 262.98C102.377 265.36 100.757 266.7 99.0372 266.7C97.3372 266.7 95.6972 265.32 95.6972 262.94C95.6972 260.56 97.3372 259.28 99.0372 259.28C100.757 259.28 102.377 260.62 102.377 262.98ZM109.952 262.7C109.952 260.36 110.992 259.66 112.672 259.66H113.252V257.3C111.692 257.3 110.592 257.98 109.952 259.08V257.48H107.672V268.5H109.952V262.7ZM114.588 262.94C114.588 266.34 116.888 268.68 119.748 268.68C121.588 268.68 122.908 267.8 123.608 266.86V268.5H125.908V257.48H123.608V259.08C122.928 258.18 121.648 257.3 119.788 257.3C116.888 257.3 114.588 259.54 114.588 262.94ZM123.608 262.98C123.608 265.36 121.988 266.7 120.268 266.7C118.568 266.7 116.928 265.32 116.928 262.94C116.928 260.56 118.568 259.28 120.268 259.28C121.988 259.28 123.608 260.62 123.608 262.98ZM144.522 268.5H146.782V262C146.782 258.92 144.822 257.3 142.242 257.3C140.642 257.3 139.082 258.14 138.402 259.48C137.642 258.04 136.182 257.3 134.442 257.3C133.122 257.3 131.922 257.84 131.182 258.74V257.48H128.902V268.5H131.182V262.34C131.182 260.32 132.282 259.28 133.962 259.28C135.622 259.28 136.722 260.32 136.722 262.34V268.5H138.982V262.34C138.982 260.32 140.082 259.28 141.762 259.28C143.422 259.28 144.522 260.32 144.522 262.34V268.5ZM165.304 268.5H167.564V262C167.564 258.92 165.604 257.3 163.024 257.3C161.424 257.3 159.864 258.14 159.184 259.48C158.424 258.04 156.964 257.3 155.224 257.3C153.904 257.3 152.704 257.84 151.964 258.74V257.48H149.684V268.5H151.964V262.34C151.964 260.32 153.064 259.28 154.744 259.28C156.404 259.28 157.504 260.32 157.504 262.34V268.5H159.764V262.34C159.764 260.32 160.864 259.28 162.544 259.28C164.204 259.28 165.304 260.32 165.304 262.34V268.5ZM170.465 268.5H172.745V257.48H170.465V268.5ZM171.625 256.02C172.425 256.02 173.065 255.38 173.065 254.56C173.065 253.74 172.425 253.1 171.625 253.1C170.805 253.1 170.165 253.74 170.165 254.56C170.165 255.38 170.805 256.02 171.625 256.02ZM183.558 268.5H185.818V262C185.818 258.92 183.878 257.3 181.298 257.3C179.978 257.3 178.758 257.84 178.018 258.74V257.48H175.738V268.5H178.018V262.34C178.018 260.32 179.118 259.28 180.798 259.28C182.458 259.28 183.558 260.32 183.558 262.34V268.5ZM187.967 262.94C187.967 266.34 190.267 268.68 193.167 268.68C194.967 268.68 196.287 267.78 196.987 266.84V268.68C196.987 270.88 195.667 271.96 193.907 271.96C192.327 271.96 191.107 271.18 190.767 270.04H188.507C188.787 272.48 190.967 273.94 193.907 273.94C197.347 273.94 199.287 271.68 199.287 268.68V257.48H196.987V259.08C196.307 258.14 194.967 257.3 193.167 257.3C190.267 257.3 187.967 259.54 187.967 262.94ZM196.987 262.98C196.987 265.36 195.367 266.7 193.647 266.7C191.947 266.7 190.307 265.32 190.307 262.94C190.307 260.56 191.947 259.28 193.647 259.28C195.367 259.28 196.987 260.62 196.987 262.98Z" fill="#212832"/>
<rect x="0.5" y="236.5" width="616" height="49" stroke="black" stroke-opacity="0.5"/>
</svg>
