<svg width="1241" height="93" viewBox="0 0 1241 93" fill="none" xmlns="http://www.w3.org/2000/svg">
<path d="M426.25 0.25H811C813.071 0.25 814.75 1.92893 814.75 4V89C814.75 91.0711 813.071 92.75 811 92.75H426.25V0.25Z" fill="white" stroke="#E74C3C" stroke-width="0.5"/>
<path d="M426.25 0.25H470.5C496.043 0.25 516.75 20.9568 516.75 46.5C516.75 72.0432 496.043 92.75 470.5 92.75H426.25V0.25Z" fill="#E74C3C" stroke="#FFDAD2" stroke-width="0.5"/>
<path d="M538.74 35.02C538.74 39.2 541.92 42.12 545.84 42.12C548.74 42.12 551.24 40.68 552.3 37.96H549.56C548.82 39.44 547.5 40.14 545.84 40.14C543.08 40.14 541.08 38.16 541.08 35.02C541.08 31.88 543.08 29.92 545.84 29.92C547.5 29.92 548.82 30.62 549.56 32.1H552.3C551.24 29.38 548.74 27.92 545.84 27.92C541.92 27.92 538.74 30.86 538.74 35.02ZM554.969 42H557.249V35.84C557.249 33.82 558.349 32.78 560.029 32.78C561.689 32.78 562.789 33.82 562.789 35.84V42H565.049V35.5C565.049 32.42 563.129 30.8 560.669 30.8C559.249 30.8 558.009 31.34 557.249 32.26V27.2H554.969V42ZM572.597 32.72C574.297 32.72 575.637 33.8 575.677 35.5H569.577C569.817 33.76 571.057 32.72 572.597 32.72ZM577.757 38.72H575.297C574.877 39.58 574.097 40.26 572.697 40.26C571.017 40.26 569.717 39.16 569.557 37.34H577.977C578.037 36.96 578.057 36.6 578.057 36.22C578.057 32.98 575.837 30.8 572.697 30.8C569.437 30.8 567.197 33.02 567.197 36.48C567.197 39.94 569.537 42.18 572.697 42.18C575.397 42.18 577.137 40.64 577.757 38.72ZM579.541 36.48C579.541 39.94 581.781 42.18 584.941 42.18C587.641 42.18 589.401 40.68 590.021 38.52H587.561C587.141 39.66 586.301 40.26 584.941 40.26C583.101 40.26 581.881 38.9 581.881 36.48C581.881 34.08 583.101 32.72 584.941 32.72C586.301 32.72 587.181 33.4 587.561 34.46H590.021C589.401 32.14 587.641 30.8 584.941 30.8C581.781 30.8 579.541 33.04 579.541 36.48ZM592.293 42H594.573V37.26L598.653 42H601.733L596.653 36.5L601.733 30.98H598.573L594.573 35.8V27.2H592.293V42ZM608.923 38.94C608.923 41.18 610.143 42 612.103 42H613.903V40.1H612.503C611.543 40.1 611.223 39.76 611.223 38.94V32.84H613.903V30.98H611.223V28.24H608.923V30.98H607.623V32.84H608.923V38.94ZM616.004 42H618.284V35.84C618.284 33.82 619.384 32.78 621.064 32.78C622.724 32.78 623.824 33.82 623.824 35.84V42H626.084V35.5C626.084 32.42 624.164 30.8 621.704 30.8C620.284 30.8 619.044 31.34 618.284 32.26V27.2H616.004V42ZM633.632 32.72C635.332 32.72 636.672 33.8 636.712 35.5H630.612C630.852 33.76 632.092 32.72 633.632 32.72ZM638.792 38.72H636.332C635.912 39.58 635.132 40.26 633.732 40.26C632.052 40.26 630.752 39.16 630.592 37.34H639.012C639.072 36.96 639.092 36.6 639.092 36.22C639.092 32.98 636.872 30.8 633.732 30.8C630.472 30.8 628.232 33.02 628.232 36.48C628.232 39.94 630.572 42.18 633.732 42.18C636.432 42.18 638.172 40.64 638.792 38.72ZM645.771 36.48C645.771 39.94 648.011 42.18 651.171 42.18C653.871 42.18 655.631 40.68 656.251 38.52H653.791C653.371 39.66 652.531 40.26 651.171 40.26C649.331 40.26 648.111 38.9 648.111 36.48C648.111 34.08 649.331 32.72 651.171 32.72C652.531 32.72 653.411 33.4 653.791 34.46H656.251C655.631 32.14 653.871 30.8 651.171 30.8C648.011 30.8 645.771 33.04 645.771 36.48ZM669.023 36.48C669.023 33.02 666.543 30.8 663.403 30.8C660.263 30.8 657.783 33.02 657.783 36.48C657.783 39.94 660.163 42.18 663.303 42.18C666.463 42.18 669.023 39.94 669.023 36.48ZM660.103 36.48C660.103 33.98 661.643 32.78 663.363 32.78C665.063 32.78 666.683 33.98 666.683 36.48C666.683 38.98 665.003 40.2 663.303 40.2C661.583 40.2 660.103 38.98 660.103 36.48ZM681.257 30.98H678.977V37.12C678.977 39.14 677.877 40.18 676.197 40.18C674.537 40.18 673.437 39.14 673.437 37.12V30.98H671.177V37.46C671.177 40.54 673.137 42.16 675.717 42.16C677.017 42.16 678.257 41.62 678.977 40.68V42H681.257V30.98ZM686.546 36.2C686.546 33.86 687.586 33.16 689.266 33.16H689.846V30.8C688.286 30.8 687.186 31.48 686.546 32.58V30.98H684.266V42H686.546V36.2ZM700.161 38.92C700.041 34.94 693.821 36.18 693.821 33.96C693.821 33.22 694.461 32.72 695.681 32.72C696.921 32.72 697.661 33.38 697.741 34.34H700.021C699.901 32.14 698.261 30.8 695.761 30.8C693.161 30.8 691.521 32.22 691.521 33.98C691.521 38.02 697.921 36.78 697.921 38.94C697.921 39.7 697.221 40.26 695.901 40.26C694.641 40.26 693.781 39.52 693.701 38.62H691.341C691.441 40.62 693.301 42.18 695.941 42.18C698.541 42.18 700.161 40.78 700.161 38.92ZM707.265 32.72C708.965 32.72 710.305 33.8 710.345 35.5H704.245C704.485 33.76 705.725 32.72 707.265 32.72ZM712.425 38.72H709.965C709.545 39.58 708.765 40.26 707.365 40.26C705.685 40.26 704.385 39.16 704.225 37.34H712.645C712.705 36.96 712.725 36.6 712.725 36.22C712.725 32.98 710.505 30.8 707.365 30.8C704.105 30.8 701.865 33.02 701.865 36.48C701.865 39.94 704.205 42.18 707.365 42.18C710.065 42.18 711.805 40.64 712.425 38.72ZM538.74 61.48C538.74 64.94 540.98 67.18 544.14 67.18C546.84 67.18 548.6 65.68 549.22 63.52H546.76C546.34 64.66 545.5 65.26 544.14 65.26C542.3 65.26 541.08 63.9 541.08 61.48C541.08 59.08 542.3 57.72 544.14 57.72C545.5 57.72 546.38 58.4 546.76 59.46H549.22C548.6 57.14 546.84 55.8 544.14 55.8C540.98 55.8 538.74 58.04 538.74 61.48ZM561.992 61.48C561.992 58.02 559.512 55.8 556.372 55.8C553.232 55.8 550.752 58.02 550.752 61.48C550.752 64.94 553.132 67.18 556.272 67.18C559.432 67.18 561.992 64.94 561.992 61.48ZM553.072 61.48C553.072 58.98 554.612 57.78 556.332 57.78C558.032 57.78 559.652 58.98 559.652 61.48C559.652 63.98 557.972 65.2 556.272 65.2C554.552 65.2 553.072 63.98 553.072 61.48ZM572.066 67H574.326V60.5C574.326 57.42 572.386 55.8 569.806 55.8C568.486 55.8 567.266 56.34 566.526 57.24V55.98H564.246V67H566.526V60.84C566.526 58.82 567.626 57.78 569.306 57.78C570.966 57.78 572.066 58.82 572.066 60.84V67ZM577.594 63.94C577.594 66.18 578.814 67 580.774 67H582.574V65.1H581.174C580.214 65.1 579.894 64.76 579.894 63.94V57.84H582.574V55.98H579.894V53.24H577.594V55.98H576.294V57.84H577.594V63.94ZM589.316 57.72C591.016 57.72 592.356 58.8 592.396 60.5H586.296C586.536 58.76 587.776 57.72 589.316 57.72ZM594.476 63.72H592.016C591.596 64.58 590.816 65.26 589.416 65.26C587.736 65.26 586.436 64.16 586.276 62.34H594.696C594.756 61.96 594.776 61.6 594.776 61.22C594.776 57.98 592.556 55.8 589.416 55.8C586.156 55.8 583.916 58.02 583.916 61.48C583.916 64.94 586.256 67.18 589.416 67.18C592.116 67.18 593.856 65.64 594.476 63.72ZM604.84 67H607.1V60.5C607.1 57.42 605.16 55.8 602.58 55.8C601.26 55.8 600.04 56.34 599.3 57.24V55.98H597.02V67H599.3V60.84C599.3 58.82 600.4 57.78 602.08 57.78C603.74 57.78 604.84 58.82 604.84 60.84V67ZM610.368 63.94C610.368 66.18 611.588 67 613.548 67H615.348V65.1H613.948C612.988 65.1 612.668 64.76 612.668 63.94V57.84H615.348V55.98H612.668V53.24H610.368V55.98H609.068V57.84H610.368V63.94Z" fill="#212832"/>
<path d="M0.25 0.25H385C387.071 0.25 388.75 1.92893 388.75 4V89C388.75 91.0711 387.071 92.75 385 92.75H0.25V0.25Z" fill="white" stroke="#9B59B6" stroke-width="0.5"/>
<path d="M0.25 0.25H44.5C70.0432 0.25 90.75 20.9568 90.75 46.5C90.75 72.0432 70.0432 92.75 44.5 92.75H0.25V0.25Z" fill="#9B59B6" stroke="#FFDAD2" stroke-width="0.5"/>
<path d="M111.74 35.02C111.74 39.2 114.92 42.12 118.84 42.12C121.74 42.12 124.24 40.68 125.3 37.96H122.56C121.82 39.44 120.5 40.14 118.84 40.14C116.08 40.14 114.08 38.16 114.08 35.02C114.08 31.88 116.08 29.92 118.84 29.92C120.5 29.92 121.82 30.62 122.56 32.1H125.3C124.24 29.38 121.74 27.92 118.84 27.92C114.92 27.92 111.74 30.86 111.74 35.02ZM138.469 36.48C138.469 33.02 135.989 30.8 132.849 30.8C129.709 30.8 127.229 33.02 127.229 36.48C127.229 39.94 129.609 42.18 132.749 42.18C135.909 42.18 138.469 39.94 138.469 36.48ZM129.549 36.48C129.549 33.98 131.089 32.78 132.809 32.78C134.509 32.78 136.129 33.98 136.129 36.48C136.129 38.98 134.449 40.2 132.749 40.2C131.029 40.2 129.549 38.98 129.549 36.48ZM148.543 42H150.803V35.5C150.803 32.42 148.863 30.8 146.283 30.8C144.963 30.8 143.743 31.34 143.003 32.24V30.98H140.723V42H143.003V35.84C143.003 33.82 144.103 32.78 145.783 32.78C147.443 32.78 148.543 33.82 148.543 35.84V42ZM161.931 38.92C161.811 34.94 155.591 36.18 155.591 33.96C155.591 33.22 156.231 32.72 157.451 32.72C158.691 32.72 159.431 33.38 159.511 34.34H161.791C161.671 32.14 160.031 30.8 157.531 30.8C154.931 30.8 153.291 32.22 153.291 33.98C153.291 38.02 159.691 36.78 159.691 38.94C159.691 39.7 158.991 40.26 157.671 40.26C156.411 40.26 155.551 39.52 155.471 38.62H153.111C153.211 40.62 155.071 42.18 157.711 42.18C160.311 42.18 161.931 40.78 161.931 38.92ZM174.375 30.98H172.095V37.12C172.095 39.14 170.995 40.18 169.315 40.18C167.655 40.18 166.555 39.14 166.555 37.12V30.98H164.295V37.46C164.295 40.54 166.255 42.16 168.835 42.16C170.135 42.16 171.375 41.62 172.095 40.68V42H174.375V30.98ZM177.383 42H179.663V27.2H177.383V42ZM183.016 38.94C183.016 41.18 184.236 42 186.196 42H187.996V40.1H186.596C185.636 40.1 185.316 39.76 185.316 38.94V32.84H187.996V30.98H185.316V28.24H183.016V30.98H181.716V32.84H183.016V38.94ZM195.653 38.94C195.653 41.18 196.873 42 198.833 42H200.633V40.1H199.233C198.273 40.1 197.953 39.76 197.953 38.94V32.84H200.633V30.98H197.953V28.24H195.653V30.98H194.353V32.84H195.653V38.94ZM202.734 42H205.014V35.84C205.014 33.82 206.114 32.78 207.794 32.78C209.454 32.78 210.554 33.82 210.554 35.84V42H212.814V35.5C212.814 32.42 210.894 30.8 208.434 30.8C207.014 30.8 205.774 31.34 205.014 32.26V27.2H202.734V42ZM220.363 32.72C222.063 32.72 223.403 33.8 223.443 35.5H217.343C217.583 33.76 218.823 32.72 220.363 32.72ZM225.523 38.72H223.063C222.643 39.58 221.863 40.26 220.463 40.26C218.783 40.26 217.483 39.16 217.323 37.34H225.743C225.803 36.96 225.823 36.6 225.823 36.22C225.823 32.98 223.603 30.8 220.463 30.8C217.203 30.8 214.963 33.02 214.963 36.48C214.963 39.94 217.303 42.18 220.463 42.18C223.163 42.18 224.903 40.64 225.523 38.72ZM243.242 30.98H240.962V37.12C240.962 39.14 239.862 40.18 238.182 40.18C236.522 40.18 235.422 39.14 235.422 37.12V30.98H233.162V37.46C233.162 40.54 235.122 42.16 237.702 42.16C239.002 42.16 240.242 41.62 240.962 40.68V42H243.242V30.98ZM254.07 42H256.33V35.5C256.33 32.42 254.39 30.8 251.81 30.8C250.49 30.8 249.27 31.34 248.53 32.24V30.98H246.25V42H248.53V35.84C248.53 33.82 249.63 32.78 251.31 32.78C252.97 32.78 254.07 33.82 254.07 35.84V42ZM259.238 42H261.518V30.98H259.238V42ZM260.398 29.52C261.198 29.52 261.838 28.88 261.838 28.06C261.838 27.24 261.198 26.6 260.398 26.6C259.578 26.6 258.938 27.24 258.938 28.06C258.938 28.88 259.578 29.52 260.398 29.52ZM263.212 30.98L267.392 42H270.112L274.312 30.98H271.892L268.772 39.96L265.652 30.98H263.212ZM280.675 32.72C282.375 32.72 283.715 33.8 283.755 35.5H277.655C277.895 33.76 279.135 32.72 280.675 32.72ZM285.835 38.72H283.375C282.955 39.58 282.175 40.26 280.775 40.26C279.095 40.26 277.795 39.16 277.635 37.34H286.055C286.115 36.96 286.135 36.6 286.135 36.22C286.135 32.98 283.915 30.8 280.775 30.8C277.515 30.8 275.275 33.02 275.275 36.48C275.275 39.94 277.615 42.18 280.775 42.18C283.475 42.18 285.215 40.64 285.835 38.72ZM290.659 36.2C290.659 33.86 291.699 33.16 293.379 33.16H293.959V30.8C292.399 30.8 291.299 31.48 290.659 32.58V30.98H288.379V42H290.659V36.2ZM304.275 38.92C304.155 34.94 297.935 36.18 297.935 33.96C297.935 33.22 298.575 32.72 299.795 32.72C301.035 32.72 301.775 33.38 301.855 34.34H304.135C304.015 32.14 302.375 30.8 299.875 30.8C297.275 30.8 295.635 32.22 295.635 33.98C295.635 38.02 302.035 36.78 302.035 38.94C302.035 39.7 301.335 40.26 300.015 40.26C298.755 40.26 297.895 39.52 297.815 38.62H295.455C295.555 40.62 297.415 42.18 300.055 42.18C302.655 42.18 304.275 40.78 304.275 38.92ZM306.738 42H309.018V30.98H306.738V42ZM307.898 29.52C308.698 29.52 309.338 28.88 309.338 28.06C309.338 27.24 308.698 26.6 307.898 26.6C307.078 26.6 306.438 27.24 306.438 28.06C306.438 28.88 307.078 29.52 307.898 29.52ZM312.372 38.94C312.372 41.18 313.592 42 315.552 42H317.352V40.1H315.952C314.992 40.1 314.672 39.76 314.672 38.94V32.84H317.352V30.98H314.672V28.24H312.372V30.98H311.072V32.84H312.372V38.94ZM323.793 39.38L320.693 30.98H318.153L322.493 41.82L320.253 47.18H322.613L329.373 30.98H327.013L323.793 39.38ZM114.78 61.2C114.78 58.86 115.82 58.16 117.5 58.16H118.08V55.8C116.52 55.8 115.42 56.48 114.78 57.58V55.98H112.5V67H114.78V61.2ZM119.416 61.44C119.416 64.84 121.716 67.18 124.576 67.18C126.416 67.18 127.736 66.3 128.436 65.36V67H130.736V55.98H128.436V57.58C127.756 56.68 126.476 55.8 124.616 55.8C121.716 55.8 119.416 58.04 119.416 61.44ZM128.436 61.48C128.436 63.86 126.816 65.2 125.096 65.2C123.396 65.2 121.756 63.82 121.756 61.44C121.756 59.06 123.396 57.78 125.096 57.78C126.816 57.78 128.436 59.12 128.436 61.48ZM141.55 67H143.81V60.5C143.81 57.42 141.87 55.8 139.29 55.8C137.97 55.8 136.75 56.34 136.01 57.24V55.98H133.73V67H136.01V60.84C136.01 58.82 137.11 57.78 138.79 57.78C140.45 57.78 141.55 58.82 141.55 60.84V67ZM146.719 67H148.999V62.26L153.079 67H156.159L151.079 61.5L156.159 55.98H152.999L148.999 60.8V52.2H146.719V67ZM157.793 67H160.073V55.98H157.793V67ZM158.953 54.52C159.753 54.52 160.393 53.88 160.393 53.06C160.393 52.24 159.753 51.6 158.953 51.6C158.133 51.6 157.493 52.24 157.493 53.06C157.493 53.88 158.133 54.52 158.953 54.52ZM170.886 67H173.146V60.5C173.146 57.42 171.206 55.8 168.626 55.8C167.306 55.8 166.086 56.34 165.346 57.24V55.98H163.066V67H165.346V60.84C165.346 58.82 166.446 57.78 168.126 57.78C169.786 57.78 170.886 58.82 170.886 60.84V67ZM175.295 61.44C175.295 64.84 177.595 67.18 180.495 67.18C182.295 67.18 183.615 66.28 184.315 65.34V67.18C184.315 69.38 182.995 70.46 181.235 70.46C179.655 70.46 178.435 69.68 178.095 68.54H175.835C176.115 70.98 178.295 72.44 181.235 72.44C184.675 72.44 186.615 70.18 186.615 67.18V55.98H184.315V57.58C183.635 56.64 182.295 55.8 180.495 55.8C177.595 55.8 175.295 58.04 175.295 61.44ZM184.315 61.48C184.315 63.86 182.695 65.2 180.975 65.2C179.275 65.2 177.635 63.82 177.635 61.44C177.635 59.06 179.275 57.78 180.975 57.78C182.695 57.78 184.315 59.12 184.315 61.48ZM197.829 63.92C197.709 59.94 191.489 61.18 191.489 58.96C191.489 58.22 192.129 57.72 193.349 57.72C194.589 57.72 195.329 58.38 195.409 59.34H197.689C197.569 57.14 195.929 55.8 193.429 55.8C190.829 55.8 189.189 57.22 189.189 58.98C189.189 63.02 195.589 61.78 195.589 63.94C195.589 64.7 194.889 65.26 193.569 65.26C192.309 65.26 191.449 64.52 191.369 63.62H189.009C189.109 65.62 190.969 67.18 193.609 67.18C196.209 67.18 197.829 65.78 197.829 63.92Z" fill="#212832"/>
<path d="M852.25 0.25H1237C1239.07 0.25 1240.75 1.92893 1240.75 4V89C1240.75 91.0711 1239.07 92.75 1237 92.75H852.25V0.25Z" fill="white" stroke="#3498DB" stroke-width="0.5"/>
<path d="M852.25 0.25H896.5C922.043 0.25 942.75 20.9568 942.75 46.5C942.75 72.0432 922.043 92.75 896.5 92.75H852.25V0.25Z" fill="#3498DB" stroke="#FFDAD2" stroke-width="0.5"/>
<path d="M966.5 28.1V42H973.48V40.16H968.78V28.1H966.5ZM985.887 36.48C985.887 33.02 983.407 30.8 980.267 30.8C977.127 30.8 974.647 33.02 974.647 36.48C974.647 39.94 977.027 42.18 980.167 42.18C983.327 42.18 985.887 39.94 985.887 36.48ZM976.967 36.48C976.967 33.98 978.507 32.78 980.227 32.78C981.927 32.78 983.547 33.98 983.547 36.48C983.547 38.98 981.867 40.2 980.167 40.2C978.447 40.2 976.967 38.98 976.967 36.48ZM998.641 36.48C998.641 33.02 996.161 30.8 993.021 30.8C989.881 30.8 987.401 33.02 987.401 36.48C987.401 39.94 989.781 42.18 992.921 42.18C996.081 42.18 998.641 39.94 998.641 36.48ZM989.721 36.48C989.721 33.98 991.261 32.78 992.981 32.78C994.681 32.78 996.301 33.98 996.301 36.48C996.301 38.98 994.621 40.2 992.921 40.2C991.201 40.2 989.721 38.98 989.721 36.48ZM1000.89 42H1003.17V37.26L1007.25 42H1010.33L1005.25 36.5L1010.33 30.98H1007.17L1003.17 35.8V27.2H1000.89V42ZM1016.4 36.44C1016.4 39.84 1018.7 42.18 1021.56 42.18C1023.4 42.18 1024.72 41.3 1025.42 40.36V42H1027.72V30.98H1025.42V32.58C1024.74 31.68 1023.46 30.8 1021.6 30.8C1018.7 30.8 1016.4 33.04 1016.4 36.44ZM1025.42 36.48C1025.42 38.86 1023.8 40.2 1022.08 40.2C1020.38 40.2 1018.74 38.82 1018.74 36.44C1018.74 34.06 1020.38 32.78 1022.08 32.78C1023.8 32.78 1025.42 34.12 1025.42 36.48ZM1031.08 38.94C1031.08 41.18 1032.3 42 1034.26 42H1036.06V40.1H1034.66C1033.7 40.1 1033.38 39.76 1033.38 38.94V32.84H1036.06V30.98H1033.38V28.24H1031.08V30.98H1029.78V32.84H1031.08V38.94ZM1047.7 39.38L1044.6 30.98H1042.06L1046.4 41.82L1044.16 47.18H1046.52L1053.28 30.98H1050.92L1047.7 39.38ZM1065.5 36.48C1065.5 33.02 1063.02 30.8 1059.88 30.8C1056.74 30.8 1054.26 33.02 1054.26 36.48C1054.26 39.94 1056.64 42.18 1059.78 42.18C1062.94 42.18 1065.5 39.94 1065.5 36.48ZM1056.58 36.48C1056.58 33.98 1058.12 32.78 1059.84 32.78C1061.54 32.78 1063.16 33.98 1063.16 36.48C1063.16 38.98 1061.48 40.2 1059.78 40.2C1058.06 40.2 1056.58 38.98 1056.58 36.48ZM1077.73 30.98H1075.45V37.12C1075.45 39.14 1074.35 40.18 1072.67 40.18C1071.01 40.18 1069.91 39.14 1069.91 37.12V30.98H1067.65V37.46C1067.65 40.54 1069.61 42.16 1072.19 42.16C1073.49 42.16 1074.73 41.62 1075.45 40.68V42H1077.73V30.98ZM1083.02 36.2C1083.02 33.86 1084.06 33.16 1085.74 33.16H1086.32V30.8C1084.76 30.8 1083.66 31.48 1083.02 32.58V30.98H1080.74V42H1083.02V36.2ZM1095.89 36.2C1095.89 33.86 1096.93 33.16 1098.61 33.16H1099.19V30.8C1097.63 30.8 1096.53 31.48 1095.89 32.58V30.98H1093.61V42H1095.89V36.2ZM1105.93 32.72C1107.63 32.72 1108.97 33.8 1109.01 35.5H1102.91C1103.15 33.76 1104.39 32.72 1105.93 32.72ZM1111.09 38.72H1108.63C1108.21 39.58 1107.43 40.26 1106.03 40.26C1104.35 40.26 1103.05 39.16 1102.89 37.34H1111.31C1111.37 36.96 1111.39 36.6 1111.39 36.22C1111.39 32.98 1109.17 30.8 1106.03 30.8C1102.77 30.8 1100.53 33.02 1100.53 36.48C1100.53 39.94 1102.87 42.18 1106.03 42.18C1108.73 42.18 1110.47 40.64 1111.09 38.72ZM1112.87 36.44C1112.87 39.84 1115.17 42.18 1118.01 42.18C1119.87 42.18 1121.25 41.26 1121.89 40.4V47.24H1124.19V30.98H1121.89V32.58C1121.25 31.68 1119.91 30.8 1118.09 30.8C1115.17 30.8 1112.87 33.04 1112.87 36.44ZM1121.89 36.48C1121.89 38.86 1120.27 40.2 1118.55 40.2C1116.85 40.2 1115.21 38.82 1115.21 36.44C1115.21 34.06 1116.85 32.78 1118.55 32.78C1120.27 32.78 1121.89 34.12 1121.89 36.48ZM1137.16 30.98H1134.88V37.12C1134.88 39.14 1133.78 40.18 1132.1 40.18C1130.44 40.18 1129.34 39.14 1129.34 37.12V30.98H1127.08V37.46C1127.08 40.54 1129.04 42.16 1131.62 42.16C1132.92 42.16 1134.16 41.62 1134.88 40.68V42H1137.16V30.98ZM1140.17 42H1142.45V30.98H1140.17V42ZM1141.33 29.52C1142.13 29.52 1142.77 28.88 1142.77 28.06C1142.77 27.24 1142.13 26.6 1141.33 26.6C1140.51 26.6 1139.87 27.24 1139.87 28.06C1139.87 28.88 1140.51 29.52 1141.33 29.52ZM1147.73 36.2C1147.73 33.86 1148.77 33.16 1150.45 33.16H1151.03V30.8C1149.47 30.8 1148.37 31.48 1147.73 32.58V30.98H1145.45V42H1147.73V36.2ZM1157.76 32.72C1159.46 32.72 1160.8 33.8 1160.84 35.5H1154.74C1154.98 33.76 1156.22 32.72 1157.76 32.72ZM1162.92 38.72H1160.46C1160.04 39.58 1159.26 40.26 1157.86 40.26C1156.18 40.26 1154.88 39.16 1154.72 37.34H1163.14C1163.2 36.96 1163.22 36.6 1163.22 36.22C1163.22 32.98 1161 30.8 1157.86 30.8C1154.6 30.8 1152.36 33.02 1152.36 36.48C1152.36 39.94 1154.7 42.18 1157.86 42.18C1160.56 42.18 1162.3 40.64 1162.92 38.72ZM1181.08 42H1183.34V35.5C1183.34 32.42 1181.38 30.8 1178.8 30.8C1177.2 30.8 1175.64 31.64 1174.96 32.98C1174.2 31.54 1172.74 30.8 1171 30.8C1169.68 30.8 1168.48 31.34 1167.74 32.24V30.98H1165.46V42H1167.74V35.84C1167.74 33.82 1168.84 32.78 1170.52 32.78C1172.18 32.78 1173.28 33.82 1173.28 35.84V42H1175.54V35.84C1175.54 33.82 1176.64 32.78 1178.32 32.78C1179.98 32.78 1181.08 33.82 1181.08 35.84V42ZM1190.89 32.72C1192.59 32.72 1193.93 33.8 1193.97 35.5H1187.87C1188.11 33.76 1189.35 32.72 1190.89 32.72ZM1196.05 38.72H1193.59C1193.17 39.58 1192.39 40.26 1190.99 40.26C1189.31 40.26 1188.01 39.16 1187.85 37.34H1196.27C1196.33 36.96 1196.35 36.6 1196.35 36.22C1196.35 32.98 1194.13 30.8 1190.99 30.8C1187.73 30.8 1185.49 33.02 1185.49 36.48C1185.49 39.94 1187.83 42.18 1190.99 42.18C1193.69 42.18 1195.43 40.64 1196.05 38.72ZM1206.41 42H1208.67V35.5C1208.67 32.42 1206.73 30.8 1204.15 30.8C1202.83 30.8 1201.61 31.34 1200.87 32.24V30.98H1198.59V42H1200.87V35.84C1200.87 33.82 1201.97 32.78 1203.65 32.78C1205.31 32.78 1206.41 33.82 1206.41 35.84V42ZM1211.94 38.94C1211.94 41.18 1213.16 42 1215.12 42H1216.92V40.1H1215.52C1214.56 40.1 1214.24 39.76 1214.24 38.94V32.84H1216.92V30.98H1214.24V28.24H1211.94V30.98H1210.64V32.84H1211.94V38.94ZM1227.24 38.92C1227.12 34.94 1220.9 36.18 1220.9 33.96C1220.9 33.22 1221.54 32.72 1222.76 32.72C1224 32.72 1224.74 33.38 1224.82 34.34H1227.1C1226.98 32.14 1225.34 30.8 1222.84 30.8C1220.24 30.8 1218.6 32.22 1218.6 33.98C1218.6 38.02 1225 36.78 1225 38.94C1225 39.7 1224.3 40.26 1222.98 40.26C1221.72 40.26 1220.86 39.52 1220.78 38.62H1218.42C1218.52 40.62 1220.38 42.18 1223.02 42.18C1225.62 42.18 1227.24 40.78 1227.24 38.92ZM965.74 61.44C965.74 64.84 968.04 67.18 970.9 67.18C972.74 67.18 974.06 66.3 974.76 65.36V67H977.06V55.98H974.76V57.58C974.08 56.68 972.8 55.8 970.94 55.8C968.04 55.8 965.74 58.04 965.74 61.44ZM974.76 61.48C974.76 63.86 973.14 65.2 971.42 65.2C969.72 65.2 968.08 63.82 968.08 61.44C968.08 59.06 969.72 57.78 971.42 57.78C973.14 57.78 974.76 59.12 974.76 61.48ZM987.875 67H990.135V60.5C990.135 57.42 988.195 55.8 985.615 55.8C984.295 55.8 983.075 56.34 982.335 57.24V55.98H980.055V67H982.335V60.84C982.335 58.82 983.435 57.78 985.115 57.78C986.775 57.78 987.875 58.82 987.875 60.84V67ZM992.283 61.44C992.283 64.84 994.583 67.18 997.483 67.18C999.283 67.18 1000.6 66.34 1001.3 65.34V67H1003.6V52.2H1001.3V57.52C1000.46 56.48 998.943 55.8 997.503 55.8C994.583 55.8 992.283 58.04 992.283 61.44ZM1001.3 61.48C1001.3 63.86 999.683 65.2 997.963 65.2C996.263 65.2 994.623 63.82 994.623 61.44C994.623 59.06 996.263 57.78 997.963 57.78C999.683 57.78 1001.3 59.12 1001.3 61.48ZM1012.07 67H1014.37V57.84H1016.41V55.98H1014.37V55.2C1014.37 53.94 1014.85 53.46 1016.25 53.46V51.56C1013.37 51.56 1012.07 52.66 1012.07 55.2V55.98H1010.77V57.84H1012.07V67ZM1023.07 57.72C1024.77 57.72 1026.11 58.8 1026.15 60.5H1020.05C1020.29 58.76 1021.53 57.72 1023.07 57.72ZM1028.23 63.72H1025.77C1025.35 64.58 1024.57 65.26 1023.17 65.26C1021.49 65.26 1020.19 64.16 1020.03 62.34H1028.45C1028.51 61.96 1028.53 61.6 1028.53 61.22C1028.53 57.98 1026.31 55.8 1023.17 55.8C1019.91 55.8 1017.67 58.02 1017.67 61.48C1017.67 64.94 1020.01 67.18 1023.17 67.18C1025.87 67.18 1027.61 65.64 1028.23 63.72ZM1035.42 57.72C1037.12 57.72 1038.46 58.8 1038.5 60.5H1032.4C1032.64 58.76 1033.88 57.72 1035.42 57.72ZM1040.58 63.72H1038.12C1037.7 64.58 1036.92 65.26 1035.52 65.26C1033.84 65.26 1032.54 64.16 1032.38 62.34H1040.8C1040.86 61.96 1040.88 61.6 1040.88 61.22C1040.88 57.98 1038.66 55.8 1035.52 55.8C1032.26 55.8 1030.02 58.02 1030.02 61.48C1030.02 64.94 1032.36 67.18 1035.52 67.18C1038.22 67.18 1039.96 65.64 1040.58 63.72ZM1043.86 57.86L1045.96 53.1H1043.48L1042.26 57.86H1043.86ZM1056.18 63.92C1056.06 59.94 1049.84 61.18 1049.84 58.96C1049.84 58.22 1050.48 57.72 1051.7 57.72C1052.94 57.72 1053.68 58.38 1053.76 59.34H1056.04C1055.92 57.14 1054.28 55.8 1051.78 55.8C1049.18 55.8 1047.54 57.22 1047.54 58.98C1047.54 63.02 1053.94 61.78 1053.94 63.94C1053.94 64.7 1053.24 65.26 1051.92 65.26C1050.66 65.26 1049.8 64.52 1049.72 63.62H1047.36C1047.46 65.62 1049.32 67.18 1051.96 67.18C1054.56 67.18 1056.18 65.78 1056.18 63.92ZM1072.06 63.92C1071.94 59.94 1065.72 61.18 1065.72 58.96C1065.72 58.22 1066.36 57.72 1067.58 57.72C1068.82 57.72 1069.56 58.38 1069.64 59.34H1071.92C1071.8 57.14 1070.16 55.8 1067.66 55.8C1065.06 55.8 1063.42 57.22 1063.42 58.98C1063.42 63.02 1069.82 61.78 1069.82 63.94C1069.82 64.7 1069.12 65.26 1067.8 65.26C1066.54 65.26 1065.68 64.52 1065.6 63.62H1063.24C1063.34 65.62 1065.2 67.18 1067.84 67.18C1070.44 67.18 1072.06 65.78 1072.06 63.92ZM1074.89 63.94C1074.89 66.18 1076.11 67 1078.07 67H1079.87V65.1H1078.47C1077.51 65.1 1077.19 64.76 1077.19 63.94V57.84H1079.87V55.98H1077.19V53.24H1074.89V55.98H1073.59V57.84H1074.89V63.94ZM1084.25 61.2C1084.25 58.86 1085.29 58.16 1086.97 58.16H1087.55V55.8C1085.99 55.8 1084.89 56.48 1084.25 57.58V55.98H1081.97V67H1084.25V61.2ZM1099.62 55.98H1097.34V62.12C1097.34 64.14 1096.24 65.18 1094.56 65.18C1092.9 65.18 1091.8 64.14 1091.8 62.12V55.98H1089.54V62.46C1089.54 65.54 1091.5 67.16 1094.08 67.16C1095.38 67.16 1096.62 66.62 1097.34 65.68V67H1099.62V55.98ZM1101.87 61.48C1101.87 64.94 1104.11 67.18 1107.27 67.18C1109.97 67.18 1111.73 65.68 1112.35 63.52H1109.89C1109.47 64.66 1108.63 65.26 1107.27 65.26C1105.43 65.26 1104.21 63.9 1104.21 61.48C1104.21 59.08 1105.43 57.72 1107.27 57.72C1108.63 57.72 1109.51 58.4 1109.89 59.46H1112.35C1111.73 57.14 1109.97 55.8 1107.27 55.8C1104.11 55.8 1101.87 58.04 1101.87 61.48ZM1114.99 63.94C1114.99 66.18 1116.21 67 1118.17 67H1119.97V65.1H1118.57C1117.61 65.1 1117.29 64.76 1117.29 63.94V57.84H1119.97V55.98H1117.29V53.24H1114.99V55.98H1113.69V57.84H1114.99V63.94ZM1132.05 55.98H1129.77V62.12C1129.77 64.14 1128.67 65.18 1126.99 65.18C1125.33 65.18 1124.23 64.14 1124.23 62.12V55.98H1121.97V62.46C1121.97 65.54 1123.93 67.16 1126.51 67.16C1127.81 67.16 1129.05 66.62 1129.77 65.68V67H1132.05V55.98ZM1137.33 61.2C1137.33 58.86 1138.37 58.16 1140.05 58.16H1140.63V55.8C1139.07 55.8 1137.97 56.48 1137.33 57.58V55.98H1135.05V67H1137.33V61.2ZM1147.37 57.72C1149.07 57.72 1150.41 58.8 1150.45 60.5H1144.35C1144.59 58.76 1145.83 57.72 1147.37 57.72ZM1152.53 63.72H1150.07C1149.65 64.58 1148.87 65.26 1147.47 65.26C1145.79 65.26 1144.49 64.16 1144.33 62.34H1152.75C1152.81 61.96 1152.83 61.6 1152.83 61.22C1152.83 57.98 1150.61 55.8 1147.47 55.8C1144.21 55.8 1141.97 58.02 1141.97 61.48C1141.97 64.94 1144.31 67.18 1147.47 67.18C1150.17 67.18 1151.91 65.64 1152.53 63.72Z" fill="#212832"/>
<path d="M31.1211 67.5271C30.8039 67.3157 30.6348 67.0197 30.5397 66.6392C30.1909 65.2756 29.8103 63.9226 29.4404 62.5167C28.9436 62.6436 28.4679 62.7704 27.9922 62.8973C27.0726 63.1404 26.1635 63.3835 25.2439 63.6372C24.8423 63.7535 24.4511 63.7957 24.1657 63.4152C23.8803 63.0452 24.0072 62.6858 24.2186 62.3159C25.8147 59.557 27.4003 56.7876 29.007 54.0393C29.1655 53.775 29.155 53.6376 28.9224 53.4156C28.1508 52.6968 27.728 51.7878 27.5694 50.7519C27.4531 49.9697 27.0832 49.346 26.4912 48.8387C24.726 47.3165 24.2609 45.5618 25.0325 43.3738C25.2862 42.6444 25.2862 41.9362 25.0219 41.2068C24.2609 39.0399 24.7471 37.2535 26.5018 35.7525C27.0832 35.2557 27.4426 34.6321 27.5694 33.871C27.9394 31.7146 29.3452 30.2876 31.4805 29.9282C32.2944 29.7908 32.9497 29.4103 33.4888 28.7655C34.863 27.1165 36.7762 26.5986 38.7846 27.3279C39.5774 27.6133 40.3384 27.6239 41.1312 27.3279C43.1396 26.5986 45.0317 27.0954 46.4058 28.7232C46.9766 29.3997 47.6743 29.8014 48.5516 29.9388C50.486 30.2454 52.0081 31.7675 52.3252 33.7019C52.4627 34.5792 52.8538 35.2769 53.5408 35.8477C55.1687 37.2218 55.6655 39.1139 54.9361 41.1223C54.6507 41.9151 54.6507 42.6761 54.9361 43.4689C55.676 45.4984 55.1475 47.4117 53.4774 48.7964C52.9066 49.272 52.5049 49.8428 52.3992 50.5828C52.209 51.7878 51.7227 52.8131 50.7714 53.6376C50.8454 53.775 50.9088 53.9019 50.9828 54.0181C52.5472 56.7347 54.1116 59.4513 55.6866 62.1679C55.75 62.2736 55.8029 62.3687 55.8663 62.4744C56.046 62.7916 56.0566 63.1087 55.824 63.3941C55.5915 63.6795 55.2955 63.7535 54.9361 63.6583C53.5725 63.2884 52.2195 62.929 50.856 62.5696C50.7714 62.5484 50.6763 62.5273 50.5494 62.5062C50.3063 63.4152 50.0632 64.3137 49.8201 65.2122C49.6932 65.6773 49.5452 66.1529 49.4501 66.6286C49.3761 67.0091 49.1858 67.3051 48.8687 67.5165C48.7102 67.5165 48.5516 67.5165 48.3931 67.5165C48.1922 67.3051 47.928 67.1254 47.78 66.8717C46.0464 63.8909 44.3235 60.8995 42.5899 57.908C42.5054 57.7601 42.3679 57.6121 42.22 57.5592C41.8289 57.4218 41.406 57.3478 41.0044 57.221C40.3067 56.9884 39.6091 56.9884 38.9114 57.2315C38.6049 57.3372 38.2878 57.4641 37.9707 57.5064C37.6641 57.5486 37.5267 57.7072 37.3787 57.9397C35.6663 60.9206 33.9433 63.9014 32.2204 66.8717C32.0724 67.1148 31.8187 67.3051 31.6073 67.5165C31.4382 67.5271 31.2796 67.5271 31.1211 67.5271ZM37.3047 28.5858C36.1737 28.6175 35.3703 28.9452 34.789 29.6851C33.9645 30.7104 32.918 31.313 31.6179 31.5244C30.286 31.7463 29.3558 32.7083 29.1444 34.0507C28.9541 35.2663 28.3939 36.2493 27.4531 37.0421C26.2904 38.004 25.9627 39.209 26.4807 40.6149C26.9035 41.7565 26.9035 42.877 26.4807 44.008C25.9733 45.4033 26.2798 46.6083 27.4214 47.5596C28.3833 48.363 28.9541 49.3672 29.155 50.6145C29.3664 51.9358 30.3388 52.9082 31.6601 53.1197C32.8969 53.3205 33.9011 53.8913 34.715 54.8532C35.6663 55.9948 36.8713 56.3013 38.2666 55.794C39.4082 55.3711 40.5287 55.3711 41.6597 55.794C43.055 56.3119 44.2812 55.9737 45.2431 54.8215C46.0147 53.8913 46.9978 53.3311 48.1922 53.1302C49.5981 52.8977 50.5177 52.0098 50.7714 50.6039C50.9934 49.3566 51.5642 48.3313 52.5472 47.5279C53.6254 46.64 53.9636 45.3927 53.4774 44.082C53.0335 42.8875 53.0335 41.7248 53.4774 40.5303C53.9636 39.2196 53.6465 37.9934 52.5789 37.1055C51.5853 36.281 51.0039 35.2663 50.782 33.9978C50.5388 32.6237 49.6509 31.7463 48.2874 31.4927C47.1035 31.2813 46.0993 30.7739 45.3171 29.8437C44.2812 28.6069 43.129 28.2898 41.6069 28.8395C40.5181 29.2306 39.4505 29.2306 38.3618 28.8395C37.939 28.7126 37.5267 28.6387 37.3047 28.5858ZM44.1121 57.4218C45.5179 59.853 46.8815 62.2208 48.2979 64.6731C48.3719 64.43 48.4036 64.2925 48.4459 64.1551C48.689 63.2672 48.9216 62.3793 49.1647 61.4808C49.3338 60.8572 49.6932 60.6563 50.3169 60.8149C50.6657 60.8995 51.0039 61.0052 51.3422 61.0897C52.0504 61.28 52.7586 61.4597 53.5303 61.6605C52.1138 59.2082 50.7397 56.8299 49.3867 54.4832C48.9744 54.5678 48.6362 54.6418 48.2874 54.7158C47.632 54.8426 47.0401 55.1175 46.6278 55.6354C45.9724 56.4493 45.1902 57.0941 44.1121 57.4218ZM31.6601 64.6837C33.0871 62.2208 34.4507 59.8424 35.846 57.4429C34.7678 57.1153 33.9645 56.481 33.2986 55.6565C32.8969 55.1597 32.3367 54.8849 31.713 54.7475C31.343 54.6629 30.9731 54.5995 30.5608 54.5149C29.1972 56.8616 27.8231 59.2293 26.4172 61.6817C27.5271 61.3857 28.5419 61.1109 29.5566 60.836C30.3071 60.6352 30.6242 60.8255 30.8251 61.5865C31.0893 62.5801 31.3536 63.5738 31.6601 64.6837Z" fill="white"/>
<path d="M29.6719 42.5492C29.693 38.4796 32.1559 34.7271 35.8978 33.131C35.9824 33.0993 36.067 33.057 36.1515 33.0253C36.606 32.8668 37.0394 33.0359 37.2086 33.4481C37.3777 33.8604 37.2086 34.2726 36.754 34.484C36.3841 34.6637 36.0035 34.8223 35.6547 35.0231C32.5153 36.7884 30.7501 40.488 31.3843 43.9657C32.0714 47.7287 34.9042 50.5721 38.551 51.1535C43.3711 51.9252 47.8424 48.6906 48.6034 43.8917C49.2165 40.0018 47.113 36.1859 43.4662 34.5897C43.3922 34.558 43.3182 34.5263 43.2442 34.4946C42.7686 34.2726 42.5783 33.8604 42.758 33.4376C42.9377 33.0147 43.3711 32.8456 43.8468 33.0359C45.0729 33.5327 46.1828 34.2198 47.113 35.15C49.9564 38.0357 50.9712 41.4816 49.8613 45.3821C48.762 49.2508 46.1194 51.6926 42.2083 52.6017C36.2889 53.9864 30.3907 49.7265 29.767 43.6803C29.7247 43.3103 29.7036 42.9298 29.6719 42.5492Z" fill="white"/>
<path d="M39.0565 40.9955C40.1558 39.8962 41.2129 38.8392 42.2593 37.7821C42.8619 37.1796 43.2107 37.1796 43.8238 37.7927C44.532 38.5009 45.2402 39.2091 45.9484 39.9173C46.4029 40.3824 46.4135 40.7947 45.9484 41.2492C43.8766 43.321 41.8048 45.3928 39.733 47.4646C39.2679 47.9297 38.8557 47.9402 38.4012 47.4752C36.9213 46.0059 35.452 44.526 33.9827 43.0567C33.5388 42.6128 33.5388 42.2005 33.9722 41.7566C34.7332 40.9849 35.4943 40.2239 36.2659 39.4628C36.6888 39.0506 37.1116 39.0506 37.545 39.4628C38.0523 39.9596 38.5386 40.467 39.0565 40.9955ZM43.0204 39.262C41.9422 40.3401 40.8852 41.4078 39.8176 42.4754C39.2574 43.0356 38.8768 43.0356 38.3166 42.4648C37.8515 41.9997 37.4075 41.5346 36.9636 41.0906C36.4879 41.5663 36.0545 41.9997 35.6529 42.4014C36.7839 43.5324 37.9361 44.6951 39.0459 45.805C40.7795 44.0715 42.5342 42.3168 44.2889 40.5621C43.8978 40.1604 43.4749 39.7271 43.0204 39.262Z" fill="white"/>
<path d="M39.9989 32.2959C40.4323 32.3065 40.7705 32.6553 40.7705 33.0781C40.7705 33.5009 40.4111 33.8603 39.9883 33.8603C39.5549 33.8603 39.185 33.4798 39.1955 33.0464C39.2061 32.6236 39.5549 32.2959 39.9989 32.2959Z" fill="white"/>
<path d="M484.2 30H471.6C470.267 30.0045 468.984 30.5021 468 31.3958C467.016 30.5021 465.733 30.0045 464.4 30H451.8C451.323 30 450.865 30.1885 450.527 30.5241C450.19 30.8597 450 31.3149 450 31.7895V58.632C450 59.1066 450.19 59.5617 450.527 59.8973C450.865 60.2329 451.323 60.4214 451.8 60.4214H462.164C463.111 60.4214 464.04 60.8044 464.71 61.4701L466.727 63.4761C466.744 63.4922 466.765 63.4976 466.781 63.5137C466.936 63.6551 467.109 63.7803 467.311 63.8644H467.314C467.753 64.0452 468.247 64.0452 468.686 63.8644H468.689C468.891 63.7803 469.064 63.6551 469.219 63.5137C469.235 63.4976 469.256 63.4922 469.273 63.4761L471.29 61.4701C471.967 60.8013 472.881 60.4246 473.836 60.4214H484.2C484.677 60.4214 485.135 60.2329 485.473 59.8973C485.81 59.5617 486 59.1066 486 58.632V31.7895C486 31.3149 485.81 30.8597 485.473 30.5241C485.135 30.1885 484.677 30 484.2 30V30ZM462.164 56.8425H453.6V33.579H464.4C465.394 33.579 466.2 34.3825 466.2 35.3685V58.0754C465.007 57.2759 463.603 56.8468 462.164 56.8425V56.8425ZM482.4 56.8425H473.836C472.397 56.8425 470.984 57.2827 469.8 58.0754V35.3685C469.8 34.3825 470.606 33.579 471.6 33.579H482.4V56.8425Z" fill="white"/>
<path d="M908.056 56.9075L897.001 63.1051L885.947 56.9075V50.3595L882.789 48.6106V58.7485L897.001 66.7168L911.214 58.7485V48.6106L908.056 50.3595V56.9075V56.9075Z" fill="white"/>
<path d="M897 27L875 38.4614V41.1981L897 53.4779L915.857 42.9525V51.672H919V38.4614L897 27ZM912.714 41.0944L909.571 42.8487L897 49.8662L884.429 42.8487L881.286 41.0944L879.107 39.8785L897 30.557L914.893 39.8785L912.714 41.0944Z" fill="white"/>
</svg>
