<svg width="396" height="344" viewBox="0 0 396 344" fill="none" xmlns="http://www.w3.org/2000/svg">
<path d="M396 0H0V344H396V0Z" fill="#72A5BC"/>
<path d="M188.734 45.386C188.734 47.8531 187.062 49.233 184.218 49.233H178.322V41.3717H184.093C186.936 41.3717 188.734 42.877 188.734 45.386ZM188.024 33.2176C188.024 35.6011 186.435 36.8556 183.675 36.8556H178.322V29.5379H183.675C186.435 29.5379 188.024 30.876 188.024 33.2176ZM194.672 46.0968C194.672 42.668 192.331 39.6154 189.027 39.03C191.871 38.1101 194.003 35.8938 194.003 32.3395C194.003 27.9907 190.616 24.8127 184.511 24.8127H172.468V54H185.055C191.118 54 194.672 50.7384 194.672 46.0968ZM219.159 54H225.347L214.852 24.7709H208.036L197.54 54H203.687L205.61 48.4385H217.235L219.159 54ZM215.646 43.7552H207.199L211.423 31.545L215.646 43.7552Z" fill="#2C4C6A"/>
<path d="M124.59 64.5645H113.84V82.1145H124.59V78.6895H118.115V74.8395H123.84V71.5395H118.115V67.9895H124.59V64.5645ZM128.64 73.3145C128.64 78.5645 132.29 82.2395 137.465 82.2395C141.64 82.2395 144.79 79.9145 145.79 76.1145H141.09C140.365 77.6145 139.04 78.3645 137.415 78.3645C134.79 78.3645 132.99 76.4145 132.99 73.3145C132.99 70.2145 134.79 68.2645 137.415 68.2645C139.04 68.2645 140.365 69.0145 141.09 70.5145H145.79C144.79 66.7145 141.64 64.3645 137.465 64.3645C132.29 64.3645 128.64 68.0645 128.64 73.3145ZM167.683 73.2895C167.683 68.0145 163.708 64.3145 158.708 64.3145C153.733 64.3145 149.683 68.0145 149.683 73.2895C149.683 78.5645 153.733 82.2895 158.708 82.2895C163.683 82.2895 167.683 78.5645 167.683 73.2895ZM154.058 73.2895C154.058 70.1645 155.858 68.1895 158.708 68.1895C161.508 68.1895 163.333 70.1645 163.333 73.2895C163.333 76.3645 161.508 78.3895 158.708 78.3895C155.858 78.3895 154.058 76.3645 154.058 73.2895ZM183.487 64.5645V75.4395L176.337 64.5645H172.062V82.1145H176.337V71.2895L183.487 82.1145H187.762V64.5645H183.487ZM210.136 73.2895C210.136 68.0145 206.161 64.3145 201.161 64.3145C196.186 64.3145 192.136 68.0145 192.136 73.2895C192.136 78.5645 196.186 82.2895 201.161 82.2895C206.136 82.2895 210.136 78.5645 210.136 73.2895ZM196.511 73.2895C196.511 70.1645 198.311 68.1895 201.161 68.1895C203.961 68.1895 205.786 70.1645 205.786 73.2895C205.786 76.3645 203.961 78.3895 201.161 78.3895C198.311 78.3895 196.511 76.3645 196.511 73.2895ZM214.514 82.1145H218.789V71.5645L222.739 82.1145H226.189L230.114 71.5895V82.1145H234.389V64.5645H229.364L224.489 76.7145L219.564 64.5645H214.514V82.1145ZM239.463 82.1145H243.738V64.5645H239.463V82.1145ZM248.111 73.3145C248.111 78.5645 251.761 82.2395 256.936 82.2395C261.111 82.2395 264.261 79.9145 265.261 76.1145H260.561C259.836 77.6145 258.511 78.3645 256.886 78.3645C254.261 78.3645 252.461 76.4145 252.461 73.3145C252.461 70.2145 254.261 68.2645 256.886 68.2645C258.511 68.2645 259.836 69.0145 260.561 70.5145H265.261C264.261 66.7145 261.111 64.3645 256.936 64.3645C251.761 64.3645 248.111 68.0645 248.111 73.3145ZM282.629 76.8895C282.629 71.0145 273.954 72.3895 273.954 69.3395C273.954 68.2395 274.729 67.7145 275.754 67.7395C276.904 67.7645 277.704 68.4395 277.779 69.5645H282.404C282.229 66.2145 279.654 64.3145 275.829 64.3145C272.154 64.3145 269.429 66.1645 269.429 69.4895C269.379 75.7145 278.154 73.9645 278.154 77.2145C278.154 78.2395 277.354 78.8645 276.104 78.8645C274.904 78.8645 274.054 78.2145 273.929 76.8645H269.379C269.504 80.4145 272.454 82.2895 276.229 82.2895C280.329 82.2895 282.629 79.8395 282.629 76.8895Z" fill="#2C4C6A"/>
<line x1="166" y1="90.6777" x2="229.456" y2="90.6777" stroke="#37474F" stroke-width="0.415622"/>
<path d="M78.9531 174.116C93.1383 168.452 100.046 152.361 94.3827 138.176C88.719 123.991 72.6283 117.083 58.4431 122.747C44.2579 128.41 37.3499 144.501 43.0136 158.686C48.6773 172.871 64.768 179.78 78.9531 174.116Z" fill="#C3DBE6"/>
<path d="M91.6615 152.225C93.7517 139.526 85.1514 127.537 72.4524 125.447C59.7533 123.357 47.7643 131.957 45.6742 144.656C43.584 157.356 52.1843 169.345 64.8833 171.435C77.5824 173.525 89.5714 164.925 91.6615 152.225Z" fill="white"/>
<path d="M82.1609 161.906C89.603 154.464 89.603 142.398 82.1609 134.956C74.7187 127.514 62.6527 127.514 55.2105 134.956C47.7684 142.398 47.7684 154.464 55.2105 161.906C62.6526 169.348 74.7187 169.348 82.1609 161.906Z" fill="#C3DBE6"/>
<path d="M77.1077 149.815C77.8676 145.156 74.7071 140.763 70.0484 140.003C65.3897 139.243 60.997 142.404 60.2371 147.063C59.4771 151.721 62.6377 156.114 67.2964 156.874C71.9551 157.634 76.3478 154.473 77.1077 149.815Z" fill="white"/>
<path d="M70.4162 152.604C72.7205 151.655 73.8195 149.018 72.8708 146.714C71.9221 144.41 69.285 143.311 66.9807 144.259C64.6764 145.208 63.5774 147.845 64.5261 150.149C65.4748 152.454 68.1119 153.553 70.4162 152.604Z" fill="#C3DBE6"/>
<path d="M34.5238 169.51L30.4895 171.793L33.9399 172.908L37.9743 170.625L34.5238 169.51Z" fill="#A2C5D2"/>
<path d="M37.1249 174.129L33.0906 176.411L33.9399 172.908L37.9743 170.625L37.1249 174.129Z" fill="#A2C5D2"/>
<path d="M35.4261 172.058C35.0545 171.421 38.9827 168.555 45.0342 165.105C51.1388 161.654 60.0037 158.151 60.0037 158.151C60.0037 158.151 52.4128 163.937 46.3082 167.387C40.2567 170.838 35.7446 172.695 35.4261 172.058Z" fill="#A2C5D2"/>
<path d="M33.9399 172.908C36.0633 171.581 38.1866 170.307 40.363 169.033C42.4864 167.759 44.6628 166.538 46.8392 165.317C49.0156 164.096 51.1921 162.875 53.3685 161.654C55.5449 160.486 57.7744 159.265 59.9508 158.151C57.8275 159.478 55.7041 160.752 53.5277 162.026C51.4044 163.3 49.228 164.521 47.0515 165.742C44.8751 166.962 42.6987 168.183 40.5223 169.351C38.3459 170.572 36.1694 171.74 33.9399 172.908Z" fill="#C3DBE6"/>
<path d="M49.281 128.742L45.7244 125.717L45.9367 129.379L49.4933 132.352L49.281 128.742Z" fill="#A2C5D2"/>
<path d="M45.8837 132.777L42.3271 129.751L45.9368 129.379L49.4934 132.352L45.8837 132.777Z" fill="#A2C5D2"/>
<path d="M47.2109 130.441C47.6887 129.91 51.723 132.564 57.0844 137.076C62.3928 141.588 68.7628 148.702 68.7628 148.702C68.7628 148.702 60.6941 143.606 55.3327 139.094C50.0243 134.581 46.7332 130.972 47.2109 130.441Z" fill="#A2C5D2"/>
<path d="M45.9368 129.379C47.9009 130.919 49.8649 132.511 51.7759 134.051C53.6869 135.643 55.598 137.236 57.509 138.828C59.42 140.474 61.2779 142.066 63.1889 143.712C65.0468 145.358 66.9578 147.003 68.7626 148.702C66.7986 147.162 64.8345 145.57 62.9235 144.03C61.0125 142.438 59.1015 140.845 57.1905 139.253C55.2795 137.607 53.4215 136.015 51.5105 134.369C49.6526 132.724 47.7416 131.025 45.9368 129.379Z" fill="#C3DBE6"/>
<path d="M102.312 232.361V130.919C102.312 125.451 106.771 120.992 112.238 120.992H288.9C294.367 120.992 298.826 125.451 298.826 130.919V232.361C298.826 237.829 294.367 242.288 288.9 242.288H112.185C106.717 242.288 102.312 237.882 102.312 232.361Z" fill="#C3DBE6"/>
<path d="M112.716 240.164C108.097 240.164 104.382 236.449 104.382 231.83V131.078C104.382 126.672 107.938 123.115 112.344 123.115H288.634C293.04 123.115 296.597 126.672 296.597 131.078V231.83C296.597 236.449 292.881 240.164 288.263 240.164H112.716Z" fill="white"/>
<path d="M111.973 123.115H288.687C293.093 123.115 296.65 126.672 296.65 131.078V137.501H104.01V131.078C104.01 126.725 107.567 123.115 111.973 123.115Z" fill="#A2C5D2"/>
<path d="M114.839 132.193C115.865 132.193 116.697 131.361 116.697 130.335C116.697 129.309 115.865 128.477 114.839 128.477C113.813 128.477 112.981 129.309 112.981 130.335C112.981 131.361 113.813 132.193 114.839 132.193Z" fill="#DCECF0"/>
<path d="M125.774 132.193C126.801 132.193 127.632 131.361 127.632 130.335C127.632 129.309 126.801 128.477 125.774 128.477C124.748 128.477 123.917 129.309 123.917 130.335C123.917 131.361 124.748 132.193 125.774 132.193Z" fill="#DCECF0"/>
<path d="M138.567 130.335C138.567 131.343 137.771 132.193 136.709 132.193C135.701 132.193 134.851 131.396 134.851 130.335C134.851 129.326 135.648 128.477 136.709 128.477C137.718 128.477 138.567 129.326 138.567 130.335Z" fill="#DCECF0"/>
<path d="M114.361 220.895H223.978" stroke="#C3DBE6" stroke-width="3" stroke-miterlimit="10" stroke-linecap="round" stroke-linejoin="round"/>
<path d="M114.361 227.212H199.985" stroke="#C3DBE6" stroke-width="3" stroke-miterlimit="10" stroke-linecap="round" stroke-linejoin="round"/>
<path d="M114.361 233.529H167.657" stroke="#C3DBE6" stroke-width="3" stroke-miterlimit="10" stroke-linecap="round" stroke-linejoin="round"/>
<path d="M239.373 220.895H249.511" stroke="#C3DBE6" stroke-width="3" stroke-miterlimit="10" stroke-linecap="round" stroke-linejoin="round"/>
<path d="M239.373 227.212H249.512" stroke="#C3DBE6" stroke-width="3" stroke-miterlimit="10" stroke-linecap="round" stroke-linejoin="round"/>
<path d="M239.373 233.529H249.512" stroke="#C3DBE6" stroke-width="3" stroke-miterlimit="10" stroke-linecap="round" stroke-linejoin="round"/>
<path d="M258.005 220.895H268.091" stroke="#C3DBE6" stroke-width="3" stroke-miterlimit="10" stroke-linecap="round" stroke-linejoin="round"/>
<path d="M258.005 227.212H268.091" stroke="#C3DBE6" stroke-width="3" stroke-miterlimit="10" stroke-linecap="round" stroke-linejoin="round"/>
<path d="M258.005 233.529H268.091" stroke="#C3DBE6" stroke-width="3" stroke-miterlimit="10" stroke-linecap="round" stroke-linejoin="round"/>
<path d="M276.584 220.895H286.723" stroke="#C3DBE6" stroke-width="3" stroke-miterlimit="10" stroke-linecap="round" stroke-linejoin="round"/>
<path d="M276.584 227.212H286.723" stroke="#C3DBE6" stroke-width="3" stroke-miterlimit="10" stroke-linecap="round" stroke-linejoin="round"/>
<path d="M276.584 233.529H286.723" stroke="#C3DBE6" stroke-width="3" stroke-miterlimit="10" stroke-linecap="round" stroke-linejoin="round"/>
<path d="M285.98 141.058V165.37" stroke="#C3DBE6" stroke-width="0.7903" stroke-miterlimit="10"/>
<path d="M285.98 148.596V159.69" stroke="#C3DBE6" stroke-width="6.3222" stroke-miterlimit="10"/>
<path d="M280.566 145.198V169.51" stroke="#C3DBE6" stroke-width="0.7903" stroke-miterlimit="10"/>
<path d="M280.566 156.505V163.778" stroke="#C3DBE6" stroke-width="6.3222" stroke-miterlimit="10"/>
<path d="M275.151 147.322V171.634" stroke="#C3DBE6" stroke-width="0.7903" stroke-miterlimit="10"/>
<path d="M275.151 159.69V171.156" stroke="#C3DBE6" stroke-width="6.3222" stroke-miterlimit="10"/>
<path d="M269.736 146.101V170.466" stroke="#C3DBE6" stroke-width="0.7903" stroke-miterlimit="10"/>
<path d="M269.736 149.657V164.733" stroke="#C3DBE6" stroke-width="6.3222" stroke-miterlimit="10"/>
<path d="M264.375 154.435V172.696" stroke="#C3DBE6" stroke-width="0.7903" stroke-miterlimit="10"/>
<path d="M264.375 159.159V167.175" stroke="#C3DBE6" stroke-width="6.3222" stroke-miterlimit="10"/>
<path d="M258.961 157.036V178.8" stroke="#C3DBE6" stroke-width="0.7903" stroke-miterlimit="10"/>
<path d="M258.961 162.769V175.668" stroke="#C3DBE6" stroke-width="6.3222" stroke-miterlimit="10"/>
<path d="M253.546 153.214V172.111" stroke="#C3DBE6" stroke-width="0.7903" stroke-miterlimit="10"/>
<path d="M253.546 157.673V168.396" stroke="#C3DBE6" stroke-width="6.3222" stroke-miterlimit="10"/>
<path d="M248.132 145.623V168.29" stroke="#C3DBE6" stroke-width="0.7903" stroke-miterlimit="10"/>
<path d="M248.132 150.029V164.255" stroke="#C3DBE6" stroke-width="6.3222" stroke-miterlimit="10"/>
<path d="M242.717 156.346V174.341" stroke="#C3DBE6" stroke-width="0.7903" stroke-miterlimit="10"/>
<path d="M242.717 160.646V169.351" stroke="#C3DBE6" stroke-width="6.3222" stroke-miterlimit="10"/>
<path d="M237.302 163.724V181.773" stroke="#C3DBE6" stroke-width="0.7903" stroke-miterlimit="10"/>
<path d="M237.302 169.404V176.04" stroke="#C3DBE6" stroke-width="6.3222" stroke-miterlimit="10"/>
<path d="M231.941 159.053V177.473" stroke="#C3DBE6" stroke-width="0.7903" stroke-miterlimit="10"/>
<path d="M231.941 164.733V171.687" stroke="#C3DBE6" stroke-width="6.3222" stroke-miterlimit="10"/>
<path d="M226.526 163.724V186.072" stroke="#C3DBE6" stroke-width="0.7903" stroke-miterlimit="10"/>
<path d="M226.526 169.404V182.357" stroke="#C3DBE6" stroke-width="6.3222" stroke-miterlimit="10"/>
<path d="M221.112 163.724V179.225" stroke="#C3DBE6" stroke-width="0.7903" stroke-miterlimit="10"/>
<path d="M221.112 169.404V175.721" stroke="#C3DBE6" stroke-width="6.3222" stroke-miterlimit="10"/>
<path d="M215.697 161.282V177.473" stroke="#C3DBE6" stroke-width="0.7903" stroke-miterlimit="10"/>
<path d="M215.697 166.963V171.687" stroke="#C3DBE6" stroke-width="6.3222" stroke-miterlimit="10"/>
<path d="M210.283 163.724V194.672" stroke="#C3DBE6" stroke-width="0.7903" stroke-miterlimit="10"/>
<path d="M210.283 169.404V191.328" stroke="#C3DBE6" stroke-width="6.3222" stroke-miterlimit="10"/>
<path d="M204.869 172.43V196.742" stroke="#C3DBE6" stroke-width="0.7903" stroke-miterlimit="10"/>
<path d="M204.869 178.11V191.062" stroke="#C3DBE6" stroke-width="6.3222" stroke-miterlimit="10"/>
<path d="M199.507 173.438V201.148" stroke="#C3DBE6" stroke-width="0.7903" stroke-miterlimit="10"/>
<path d="M199.507 178.694V195.415" stroke="#C3DBE6" stroke-width="6.3222" stroke-miterlimit="10"/>
<path d="M194.093 189.364V211.818" stroke="#C3DBE6" stroke-width="0.7903" stroke-miterlimit="10"/>
<path d="M194.093 193.186V206.085" stroke="#C3DBE6" stroke-width="6.3222" stroke-miterlimit="10"/>
<path d="M188.678 167.706V192.071" stroke="#C3DBE6" stroke-width="0.7903" stroke-miterlimit="10"/>
<path d="M188.678 173.438V189.31" stroke="#C3DBE6" stroke-width="6.3222" stroke-miterlimit="10"/>
<path d="M183.263 169.723V194.035" stroke="#C3DBE6" stroke-width="0.7903" stroke-miterlimit="10"/>
<path d="M183.263 178.853V188.302" stroke="#C3DBE6" stroke-width="6.3222" stroke-miterlimit="10"/>
<path d="M177.849 178.853V203.218" stroke="#C3DBE6" stroke-width="0.7903" stroke-miterlimit="10"/>
<path d="M177.849 189.258V197.486" stroke="#C3DBE6" stroke-width="6.3222" stroke-miterlimit="10"/>
<path d="M172.434 184.586V208.898" stroke="#C3DBE6" stroke-width="0.7903" stroke-miterlimit="10"/>
<path d="M172.434 196.742V203.218" stroke="#C3DBE6" stroke-width="6.3222" stroke-miterlimit="10"/>
<path d="M167.073 181.189V205.554" stroke="#C3DBE6" stroke-width="0.7903" stroke-miterlimit="10"/>
<path d="M167.073 191.965V199.821" stroke="#C3DBE6" stroke-width="6.3222" stroke-miterlimit="10"/>
<path d="M161.659 178.853V203.218" stroke="#C3DBE6" stroke-width="0.7903" stroke-miterlimit="10"/>
<path d="M161.659 187.665V197.485" stroke="#C3DBE6" stroke-width="6.3222" stroke-miterlimit="10"/>
<path d="M156.244 184.852V209.217" stroke="#C3DBE6" stroke-width="0.7903" stroke-miterlimit="10"/>
<path d="M156.244 188.355V203.484" stroke="#C3DBE6" stroke-width="6.3222" stroke-miterlimit="10"/>
<path d="M150.829 174.766V199.078" stroke="#C3DBE6" stroke-width="0.7903" stroke-miterlimit="10"/>
<path d="M150.829 180.446V195.15" stroke="#C3DBE6" stroke-width="6.3222" stroke-miterlimit="10"/>
<path d="M145.415 164.733V189.045" stroke="#C3DBE6" stroke-width="0.7903" stroke-miterlimit="10"/>
<path d="M145.415 170.466V185.329" stroke="#C3DBE6" stroke-width="6.3222" stroke-miterlimit="10"/>
<path d="M140 168.873V193.186" stroke="#C3DBE6" stroke-width="0.7903" stroke-miterlimit="10"/>
<path d="M140 172.961V187.452" stroke="#C3DBE6" stroke-width="6.3222" stroke-miterlimit="10"/>
<path d="M134.639 163.777V188.143" stroke="#C3DBE6" stroke-width="0.7903" stroke-miterlimit="10"/>
<path d="M134.639 169.51V173.545" stroke="#C3DBE6" stroke-width="6.3222" stroke-miterlimit="10"/>
<path d="M129.225 158.257V182.622" stroke="#C3DBE6" stroke-width="0.7903" stroke-miterlimit="10"/>
<path d="M129.225 163.99V170.466" stroke="#C3DBE6" stroke-width="6.3222" stroke-miterlimit="10"/>
<path d="M123.81 170.041V198.919" stroke="#C3DBE6" stroke-width="0.7903" stroke-miterlimit="10"/>
<path d="M123.81 173.014V193.186" stroke="#C3DBE6" stroke-width="6.3222" stroke-miterlimit="10"/>
<path d="M118.396 186.55V210.862" stroke="#C3DBE6" stroke-width="0.7903" stroke-miterlimit="10"/>
<path d="M118.396 180.393V191.328" stroke="#C3DBE6" stroke-width="6.3222" stroke-miterlimit="10"/>
<path d="M112.981 184.852V209.217" stroke="#C3DBE6" stroke-width="0.7903" stroke-miterlimit="10"/>
<path d="M112.981 189.258V203.484" stroke="#C3DBE6" stroke-width="6.3222" stroke-miterlimit="10"/>
<path d="M344.213 198.388L337.046 209.429H323.882C324.306 202.263 330.252 196.583 337.471 196.583C339.913 196.636 342.195 197.273 344.213 198.388Z" fill="#DCECF0"/>
<path d="M351.06 210.225C351.06 212.826 350.317 215.215 349.096 217.285L338.533 210.013L345.54 199.237C348.884 201.732 351.06 205.766 351.06 210.225Z" fill="#C3DBE6"/>
<path d="M348.194 218.613C345.699 221.798 341.824 223.868 337.418 223.868C330.146 223.868 324.2 218.188 323.829 211.022H337.206L348.194 218.613Z" fill="#A2C5D2"/>
<path d="M345.911 309.863C345.911 309.863 355.732 307.103 355.095 300.839C354.458 294.628 346.92 293.354 351.273 287.833C355.626 282.313 356.847 279.446 353.768 276.527C350.742 273.607 356.263 271.59 356.05 266.228C355.838 260.814 350.423 259.752 347.079 262.141C343.682 264.53 346.071 268.723 344.744 272.015C343.416 275.306 338.533 276.42 337.683 280.508C336.834 284.595 341.24 287.993 341.293 290.965C341.346 293.938 335.666 297.229 335.666 301.635C335.719 306.094 344.053 309.81 345.911 309.863Z" fill="#FF9014"/>
<path d="M346.814 311.668C346.23 307.952 345.911 304.183 345.752 300.361C345.646 296.592 345.699 292.77 346.017 289.001C346.336 285.232 346.92 281.463 347.769 277.748C348.671 274.032 349.945 270.475 351.538 267.025C349.839 270.422 348.459 273.979 347.451 277.694C346.495 281.41 345.752 285.126 345.38 288.948C344.956 292.77 344.796 296.592 344.849 300.414C344.903 304.236 345.115 308.058 345.593 311.88L346.814 311.668Z" fill="#FF7800"/>
<path d="M344.213 318.728C344.213 318.728 337.736 314.269 339.488 309.545C341.24 304.82 342.832 305.882 342.673 299.353C342.567 292.823 344.903 289.054 352.016 288.364C359.129 287.674 361.995 285.073 365.605 283.958C369.215 282.844 371.71 283.481 372.665 285.816C373.621 288.152 372.665 291.815 368.047 292.452C363.429 293.089 360.987 294.469 360.562 299.246C360.084 304.024 357.908 305.245 353.661 306.041C349.468 306.837 354.511 317.454 344.213 318.728Z" fill="#FF7800"/>
<path d="M344.054 317.826C344.425 311.296 346.442 304.926 350.105 299.512C353.715 294.15 358.97 289.904 365.022 287.621C359.076 290.063 353.98 294.416 350.583 299.777C347.133 305.139 345.328 311.509 345.168 317.826H344.054Z" fill="#FF9014"/>
<path d="M341.452 311.88C341.452 311.88 333.915 310.872 332.641 306.466C331.367 302.06 334.392 300.467 330.146 298.822C325.899 297.229 322.767 297.76 321.918 293.513C321.068 289.267 319.741 286.347 316.397 284.542C313.053 282.737 315.866 277.96 319.423 279.446C323.032 280.933 324.147 283.746 329.243 283.321C334.976 282.844 338.267 284.277 337.737 288.736C337.312 292.239 338.161 292.664 341.877 294.203C348.247 296.858 347.026 303.387 345.009 307.793C342.992 312.199 341.452 311.88 341.452 311.88Z" fill="#FF9407"/>
<path d="M340.019 310.659C340.232 307.687 339.595 304.608 338.48 301.847C337.312 299.034 335.667 296.433 333.703 294.044C331.738 291.655 329.509 289.532 327.12 287.621C324.678 285.71 322.077 284.064 319.317 282.684C322.13 284.011 324.784 285.604 327.279 287.462C329.774 289.32 332.057 291.39 334.127 293.726C336.144 296.061 337.896 298.662 339.17 301.529C340.444 304.395 341.187 307.527 341.028 310.712L340.019 310.659Z" fill="#FF7800"/>
<path d="M352.016 309.332H343.841H335.613C335.613 309.332 334.286 316.445 338.055 323.187H343.841H349.627C353.343 316.498 352.016 309.332 352.016 309.332Z" fill="#304A5F"/>
<path d="M353.078 312.252C353.025 310.447 352.865 309.332 352.865 309.332H343.788H334.711C334.711 309.332 334.552 310.447 334.499 312.252H353.078Z" fill="#2C4C6A"/>
<path d="M24.2257 281.676C23.4295 284.117 24.6504 287.674 29.3217 287.992C33.9931 288.311 35.7448 289.16 36.5411 293.938C37.3373 298.715 41.3717 295.902 44.9283 298.45C47.7948 300.52 43.3358 302.431 46.2023 306.147C47.954 308.376 53.9525 308.907 55.3326 312.782C55.3857 310.181 60.3756 302.856 59.6324 299.936C58.093 294.097 52.5192 295.796 53.05 289.266C53.3685 285.498 50.9798 281.994 43.8135 282.472C36.5411 283.003 34.9486 280.189 31.2858 279.287C27.5169 278.437 25.022 279.234 24.2257 281.676Z" fill="#FF7800"/>
<path d="M54.3241 311.933C53.6871 305.563 51.4045 299.352 47.5825 294.15C43.7605 289.001 38.346 284.967 32.1353 282.95C38.346 284.808 43.9729 288.683 48.0072 293.832C52.0415 298.981 54.5895 305.298 55.3858 311.827L54.3241 311.933Z" fill="#FF9014"/>
<path d="M61.7024 311.721C61.7024 311.721 51.1388 310.181 50.9795 303.652C50.8203 297.123 56.7656 294.946 51.5104 289.85C46.2551 284.701 46.3082 281.729 49.0685 278.331C51.8289 274.881 45.7773 273.607 45.2996 267.98C44.8218 262.353 50.2364 260.495 54.0584 262.512C57.8804 264.529 55.9694 269.201 57.8273 272.439C59.6852 275.677 64.8874 276.155 66.2675 280.295C67.7008 284.436 66.0552 287.939 66.4268 291.018C66.7984 294.097 70.6204 297.388 71.2043 301.953C71.7351 306.412 63.6134 311.402 61.7024 311.721Z" fill="#FF9014"/>
<path d="M61.1186 313.738C61.2248 309.81 61.0124 305.829 60.6409 301.9C60.2693 297.972 59.6323 294.044 58.836 290.169C57.9867 286.294 56.8719 282.472 55.4387 278.756C54.0054 275.04 52.2006 271.484 50.0242 268.139C52.2537 271.431 54.1647 274.934 55.651 278.65C57.1373 282.366 58.3583 286.135 59.3138 290.01C60.2162 293.885 60.9594 297.813 61.384 301.794C61.8618 305.776 62.1272 309.757 62.1272 313.791L61.1186 313.738Z" fill="#FF7800"/>
<path d="M75.1326 306.307C76.1942 301.476 72.3722 302.803 76.8312 300.786C81.2902 298.769 82.5642 298.662 83.2012 294.044C83.8382 289.426 85.0592 286.188 88.5627 284.065C92.0131 281.941 88.7219 276.951 84.953 278.809C81.1841 280.667 80.1755 283.746 74.7079 283.64C68.5502 283.481 65.0998 285.232 65.9491 290.01C66.6392 293.726 65.4183 296.858 61.4901 298.769C54.8547 302.007 61.8086 308.058 63.8258 314.641C67.3824 305.616 74.0709 311.137 75.1326 306.307Z" fill="#FF7800"/>
<path d="M63.8791 313.738C63.5075 310.341 64.0914 306.89 65.2593 303.759C66.4271 300.627 68.1258 297.707 70.196 295.053C72.2132 292.399 74.5489 290.01 77.0969 287.887C79.6449 285.763 82.4052 283.852 85.2717 282.26C82.4052 283.958 79.698 285.869 77.2561 288.099C74.7612 290.275 72.5317 292.717 70.6207 295.424C68.7097 298.079 67.0641 300.998 66.0555 304.077C64.9939 307.156 64.5161 310.447 64.9939 313.632L63.8791 313.738Z" fill="#FF9014"/>
<path d="M52.3599 309.332H60.5348H68.7096C68.7096 309.332 70.0367 316.445 66.2678 323.187H60.5878H54.8017C51.0328 316.498 52.3599 309.332 52.3599 309.332Z" fill="#304A5F"/>
<path d="M51.2451 312.252C51.2982 310.447 51.4575 309.332 51.4575 309.332H60.5347H69.6651C69.6651 309.332 69.8243 310.447 69.8774 312.252H51.2451Z" fill="#2C4C6A"/>
<path d="M312.84 202.794H282.052C281.043 202.794 280.247 201.998 280.247 200.989V179.862C280.247 178.853 281.043 178.057 282.052 178.057H312.84C313.849 178.057 314.645 178.853 314.645 179.862V200.989C314.645 201.998 313.796 202.794 312.84 202.794Z" fill="white" stroke="#C3DBE6" stroke-width="2.7309" stroke-miterlimit="10"/>
<path d="M282.689 199.715C285.131 199.715 285.131 196.371 287.573 196.371C290.015 196.371 290.015 190.478 292.457 190.478C294.899 190.478 294.209 194.353 296.703 194.353C299.145 194.353 299.835 184.268 302.277 184.268C304.719 184.268 304.719 188.674 307.161 188.674C309.603 188.674 309.603 184.268 312.045 184.268" stroke="#C3DBE6" stroke-width="2" stroke-miterlimit="10" stroke-linecap="round" stroke-linejoin="round"/>
<path d="M329.402 155.868H327.332C326.96 155.868 326.642 155.656 326.482 155.284C326.323 154.859 326.164 154.488 326.005 154.116C325.845 153.798 325.898 153.373 326.164 153.108L327.65 151.621C327.969 151.303 327.969 150.719 327.65 150.4L326.164 148.914C325.845 148.596 325.261 148.596 324.943 148.914L323.457 150.4C323.191 150.666 322.767 150.719 322.448 150.56C322.076 150.347 321.652 150.188 321.28 150.082C320.909 149.976 320.696 149.657 320.696 149.233V147.162C320.696 146.685 320.325 146.313 319.847 146.313H317.777C317.299 146.313 316.927 146.685 316.927 147.162V149.233C316.927 149.604 316.715 149.923 316.343 150.082C315.919 150.241 315.547 150.4 315.176 150.56C314.857 150.719 314.432 150.666 314.167 150.4L312.681 148.914C312.362 148.596 311.778 148.596 311.46 148.914L309.973 150.4C309.655 150.719 309.655 151.303 309.973 151.621L311.46 153.108C311.725 153.373 311.778 153.798 311.619 154.116C311.407 154.488 311.247 154.913 311.141 155.284C311.035 155.656 310.663 155.868 310.292 155.868H308.222C307.744 155.868 307.372 156.24 307.372 156.717V158.788C307.372 159.265 307.744 159.637 308.222 159.637H310.292C310.663 159.637 310.982 159.849 311.141 160.221C311.301 160.646 311.46 161.017 311.619 161.389C311.778 161.707 311.725 162.132 311.46 162.397L309.973 163.884C309.655 164.202 309.655 164.786 309.973 165.105L311.46 166.591C311.778 166.909 312.362 166.909 312.681 166.591L314.167 165.105C314.432 164.839 314.857 164.786 315.176 164.945C315.547 165.158 315.972 165.317 316.343 165.423C316.715 165.529 316.927 165.901 316.927 166.272V168.343C316.927 168.82 317.299 169.192 317.777 169.192H319.847C320.325 169.192 320.696 168.82 320.696 168.343V166.272C320.696 165.901 320.909 165.582 321.28 165.423C321.705 165.264 322.076 165.105 322.448 164.945C322.767 164.786 323.191 164.839 323.457 165.105L324.943 166.591C325.261 166.909 325.845 166.909 326.164 166.591L327.65 165.105C327.969 164.786 327.969 164.202 327.65 163.884L326.164 162.397C325.898 162.132 325.845 161.707 326.005 161.389C326.217 161.017 326.376 160.592 326.482 160.221C326.589 159.849 326.907 159.637 327.332 159.637H329.402C329.88 159.637 330.251 159.265 330.251 158.788V156.717C330.304 156.24 329.88 155.868 329.402 155.868ZM318.785 162.132C316.396 162.132 314.432 160.168 314.432 157.779C314.432 155.39 316.396 153.426 318.785 153.426C321.174 153.426 323.138 155.39 323.138 157.779C323.138 160.168 321.174 162.132 318.785 162.132Z" fill="#C3DBE6"/>
<path d="M344.265 165.317H342.938C342.726 165.317 342.513 165.158 342.407 164.945C342.301 164.68 342.195 164.414 342.089 164.202C341.983 163.99 342.036 163.724 342.195 163.565L343.097 162.663C343.31 162.45 343.31 162.079 343.097 161.866L342.142 160.911C341.929 160.698 341.558 160.698 341.346 160.911L340.443 161.813C340.284 161.972 340.018 162.026 339.806 161.919C339.541 161.813 339.328 161.707 339.063 161.601C338.851 161.548 338.691 161.335 338.691 161.07V159.743C338.691 159.424 338.426 159.212 338.161 159.212H336.833C336.515 159.212 336.303 159.478 336.303 159.743V161.07C336.303 161.282 336.143 161.495 335.931 161.601C335.666 161.707 335.4 161.813 335.188 161.919C334.976 162.026 334.71 161.972 334.551 161.813L333.648 160.911C333.436 160.698 333.065 160.698 332.852 160.911L331.897 161.866C331.684 162.079 331.684 162.45 331.897 162.663L332.799 163.565C332.958 163.724 333.011 163.99 332.905 164.202C332.799 164.467 332.693 164.68 332.587 164.945C332.534 165.158 332.321 165.317 332.056 165.317H330.835C330.517 165.317 330.304 165.582 330.304 165.848V167.175C330.304 167.493 330.57 167.706 330.835 167.706H332.162C332.374 167.706 332.587 167.865 332.693 168.077C332.799 168.343 332.905 168.608 333.011 168.82C333.118 169.033 333.065 169.298 332.905 169.457L332.003 170.36C331.791 170.572 331.791 170.944 332.003 171.156L332.958 172.111C333.171 172.324 333.542 172.324 333.755 172.111L334.657 171.209C334.816 171.05 335.082 170.997 335.294 171.103C335.559 171.209 335.772 171.315 336.037 171.421C336.25 171.474 336.409 171.687 336.409 171.952V173.279C336.409 173.598 336.674 173.81 336.94 173.81H338.267C338.585 173.81 338.798 173.545 338.798 173.279V171.952C338.798 171.74 338.957 171.528 339.169 171.421C339.435 171.315 339.7 171.209 339.912 171.103C340.125 170.997 340.39 171.05 340.549 171.209L341.452 172.111C341.664 172.324 342.036 172.324 342.248 172.111L343.203 171.156C343.416 170.944 343.416 170.572 343.203 170.36L342.301 169.457C342.142 169.298 342.089 169.033 342.195 168.82C342.301 168.555 342.407 168.343 342.513 168.077C342.566 167.865 342.779 167.706 343.044 167.706H344.371C344.69 167.706 344.902 167.44 344.902 167.175V165.848C344.796 165.582 344.584 165.317 344.265 165.317ZM337.577 169.245C336.037 169.245 334.816 168.024 334.816 166.485C334.816 164.945 336.037 163.724 337.577 163.724C339.116 163.724 340.337 164.945 340.337 166.485C340.284 168.024 339.063 169.245 337.577 169.245Z" fill="#C3DBE6"/>
<path d="M331.578 142.013H330.782C330.623 142.013 330.516 141.907 330.463 141.801C330.41 141.641 330.357 141.482 330.251 141.323C330.198 141.217 330.198 141.058 330.304 140.951L330.888 140.367C331.047 140.208 331.047 139.996 330.888 139.89L330.304 139.306C330.145 139.147 329.933 139.147 329.826 139.306L329.242 139.837C329.136 139.943 328.977 139.943 328.871 139.89C328.712 139.837 328.552 139.73 328.393 139.677C328.234 139.624 328.181 139.518 328.181 139.359V138.563C328.181 138.35 328.022 138.244 327.862 138.244H327.066C326.854 138.244 326.748 138.403 326.748 138.563V139.359C326.748 139.518 326.641 139.624 326.535 139.677C326.376 139.73 326.217 139.784 326.057 139.89C325.951 139.943 325.792 139.943 325.686 139.837L325.102 139.253C324.943 139.093 324.73 139.093 324.624 139.253L323.934 139.837C323.775 139.996 323.775 140.208 323.934 140.314L324.518 140.898C324.624 141.004 324.624 141.164 324.571 141.27C324.518 141.429 324.412 141.588 324.359 141.748C324.306 141.907 324.2 141.96 324.04 141.96H323.244C323.032 141.96 322.926 142.119 322.926 142.278V143.075C322.926 143.287 323.085 143.393 323.244 143.393H324.04C324.2 143.393 324.306 143.499 324.359 143.606C324.412 143.765 324.465 143.924 324.571 144.083C324.624 144.189 324.624 144.349 324.518 144.455L323.934 145.145C323.775 145.304 323.775 145.517 323.934 145.623L324.518 146.207C324.677 146.366 324.89 146.366 324.996 146.207L325.58 145.623C325.686 145.517 325.845 145.517 325.951 145.57C326.111 145.623 326.27 145.729 326.429 145.782C326.588 145.835 326.641 145.941 326.641 146.1V146.897C326.641 147.109 326.801 147.215 326.96 147.215H327.756C327.968 147.215 328.075 147.056 328.075 146.897V146.1C328.075 145.941 328.181 145.835 328.287 145.782C328.446 145.729 328.605 145.676 328.765 145.57C328.871 145.517 329.03 145.517 329.136 145.623L329.72 146.207C329.879 146.366 330.092 146.366 330.198 146.207L330.782 145.623C330.941 145.463 330.941 145.251 330.782 145.145L330.198 144.561C330.092 144.455 330.092 144.296 330.145 144.189C330.198 144.03 330.304 143.871 330.357 143.712C330.41 143.552 330.516 143.499 330.676 143.499H331.472C331.684 143.499 331.79 143.34 331.79 143.181V142.385C331.897 142.119 331.737 142.013 331.578 142.013ZM327.438 144.455C326.482 144.455 325.739 143.712 325.739 142.756C325.739 141.801 326.482 141.058 327.438 141.058C328.393 141.058 329.136 141.801 329.136 142.756C329.083 143.659 328.34 144.455 327.438 144.455Z" fill="#C3DBE6"/>
<path d="M211.238 283.799C211.026 281.994 210.071 280.296 208.85 278.915C207.629 277.535 206.142 276.42 204.656 275.306C202.745 273.926 200.675 272.598 198.339 272.333C197.224 272.227 196.057 272.333 195.101 272.917C194.146 273.501 193.402 274.509 193.402 275.624C193.402 277.004 194.358 278.172 195.42 279.022C196.481 279.871 197.702 280.561 198.551 281.623C199.613 283.003 199.932 284.861 200.781 286.4C201.63 287.886 203.01 289.001 204.656 289.479C206.089 289.904 208.584 290.116 209.699 288.842C210.92 287.515 211.451 285.551 211.238 283.799Z" fill="#FF9407"/>
<path d="M211.61 283.905C211.079 282.631 210.867 281.198 211.186 279.818C211.557 278.279 212.619 276.951 213.15 275.412C213.68 273.873 213.734 272.121 214.636 270.741C215.645 269.148 217.768 268.352 219.573 268.936C221.378 269.52 222.598 271.484 222.386 273.342C222.227 274.669 221.431 275.784 221.112 277.058C220.634 278.862 221.006 280.827 220.475 282.631C219.997 284.118 218.883 285.392 217.449 286.029C216.759 286.347 216.069 286.506 215.326 286.772C214.848 286.931 214.317 287.25 213.84 287.143C212.725 286.878 211.982 284.808 211.61 283.905Z" fill="#FF9014"/>
<path d="M215.114 295.424C215.804 294.15 217.237 293.248 218.723 293.195C219.785 293.142 220.793 293.46 221.855 293.566C223.023 293.673 224.191 293.46 225.359 293.726C226.473 293.991 227.641 294.894 227.535 296.061C227.482 296.911 226.739 297.601 225.943 297.866C225.146 298.185 224.297 298.132 223.448 298.079C222.598 298.025 221.749 297.972 220.9 298.185C219.944 298.45 219.095 299.087 218.192 299.565C217.237 300.043 215.697 300.467 215.06 299.406C214.317 298.238 214.477 296.539 215.114 295.424Z" fill="#FF7800"/>
<path d="M212.088 310.022C212.088 310.022 213.203 296.061 220.528 295.265" stroke="#FF7800" stroke-width="0.724" stroke-miterlimit="10"/>
<path d="M212.194 313.26C212.194 313.26 211.026 291.496 216.812 275.837" stroke="#FF7800" stroke-width="0.724" stroke-miterlimit="10"/>
<path d="M212.3 300.308C212.3 300.308 212.512 285.338 199.825 277.004" stroke="#FF7800" stroke-width="0.724" stroke-miterlimit="10"/>
<path d="M220.156 309.491H212.035H203.966C203.966 309.491 202.639 316.552 206.355 323.187H212.088H217.768C221.484 316.552 220.156 309.491 220.156 309.491Z" fill="#304A5F"/>
<path d="M221.271 312.411C221.218 310.606 221.059 309.544 221.059 309.544H212.088H203.117C203.117 309.544 202.957 310.659 202.904 312.411H221.271Z" fill="#2C4C6A"/>
<path d="M253.334 100.661H243.355V116.002H253.334V100.661Z" fill="#C3DBE6"/>
<path d="M248.344 91L239.267 102.307H257.421L248.344 91Z" fill="#C3DBE6"/>
<path d="M174.239 142.862H164.26V158.203H174.239V142.862Z" fill="#C3DBE6"/>
<path d="M169.25 167.865L178.327 156.558H160.172L169.25 167.865Z" fill="#C3DBE6"/>
<path d="M322.829 115.141C323.674 109.932 320.137 105.024 314.928 104.178C309.719 103.333 304.811 106.87 303.966 112.079C303.12 117.288 306.658 122.197 311.867 123.042C317.076 123.887 321.984 120.35 322.829 115.141Z" stroke="#A2C5D2" stroke-width="8.5831" stroke-miterlimit="10"/>
<path d="M308.594 121.842C305.728 120.196 303.817 117.117 303.817 113.561" stroke="#C3DBE6" stroke-width="8.5831" stroke-miterlimit="10"/>
<path d="M303.817 113.614C303.817 108.358 308.063 104.059 313.372 104.059" stroke="#DCECF0" stroke-width="8.5831" stroke-miterlimit="10"/>
<path d="M106.823 114.834H100.613C99.9224 114.834 99.3916 114.304 99.3916 113.614V107.403C99.3916 106.713 99.9224 106.182 100.613 106.182H106.823C107.513 106.182 108.044 106.713 108.044 107.403V113.614C108.044 114.304 107.513 114.834 106.823 114.834Z" fill="#C3DBE6"/>
<path d="M101.674 110.959L102.683 112.074L105.815 108.995" stroke="white" stroke-width="2.2181" stroke-miterlimit="10" stroke-linecap="round" stroke-linejoin="round"/>
<path d="M334.976 244.57H328.765C328.075 244.57 327.544 244.039 327.544 243.349V237.139C327.544 236.449 328.075 235.918 328.765 235.918H334.976C335.666 235.918 336.197 236.449 336.197 237.139V243.349C336.197 244.039 335.613 244.57 334.976 244.57Z" fill="#C3DBE6"/>
<path d="M329.827 240.695L330.783 241.81L333.915 238.731" stroke="white" stroke-width="2.2181" stroke-miterlimit="10" stroke-linecap="round" stroke-linejoin="round"/>
<path d="M68.3912 198.016H59.1547C58.1461 198.016 57.3499 197.22 57.3499 196.211V186.975C57.3499 185.966 58.1461 185.17 59.1547 185.17H68.3912C69.3998 185.17 70.196 185.966 70.196 186.975V196.211C70.196 197.22 69.3998 198.016 68.3912 198.016Z" fill="#C3DBE6"/>
<path d="M60.6938 192.283L62.1802 193.929L66.8515 189.311" stroke="white" stroke-width="3.3059" stroke-miterlimit="10" stroke-linecap="round" stroke-linejoin="round"/>
<path d="M154.546 113.985H151.095V117.648H154.546V113.985Z" fill="#C3DBE6"/>
<path d="M159.482 111.809H156.032V117.648H159.482V111.809Z" fill="#C3DBE6"/>
<path d="M164.366 108.995H160.916V117.648H164.366V108.995Z" fill="#C3DBE6"/>
<path d="M169.303 105.439H165.852V117.595H169.303V105.439Z" fill="#C3DBE6"/>
<path d="M116.485 318.303H111.177L110.646 309.704L115.848 309.332L116.485 318.303Z" fill="#FFC29F"/>
<path d="M88.1914 318.091L82.9893 317.931L83.9448 310.394L88.7223 311.137L88.1914 318.091Z" fill="#FFC29F"/>
<path d="M92.8631 228.645L82.4587 314.906H88.8288L103.958 252.108L110.381 314.906H116.644L115.105 228.645H92.8631Z" fill="#2C4C6A"/>
<path d="M130.764 196.901C130.764 196.901 131.826 194.884 131.72 193.929C131.614 192.973 131.454 191.646 132.41 190.213C132.622 189.894 133.259 188.992 133.259 188.992C133.259 188.992 133.79 189.523 133.525 190.107C133.259 190.691 133.1 191.274 133.1 191.274C133.1 191.274 133.578 190.425 135.33 189.947C136.126 189.735 139.364 188.886 139.364 188.886C139.842 188.886 139.735 189.523 138.886 189.947C138.886 189.947 139.311 190.372 138.568 190.797C138.568 190.797 139.098 191.168 138.09 191.752C138.09 191.752 138.515 192.071 137.453 192.708C136.497 193.292 135.011 194.088 134.639 194.619C134.215 195.309 133.472 197.804 133.472 197.804L130.764 196.901Z" fill="#FFC29F"/>
<path d="M97.3751 187.612C97.3751 187.612 90.8989 189.523 89.4126 189.894C87.9262 190.266 89.4126 199.662 91.4298 210.438C93.4469 221.214 92.863 228.645 92.863 228.645H115.105C115.105 228.645 116.007 193.876 115.53 192.708C114.574 190.584 105.285 187.612 105.285 187.612H97.3751Z" fill="#FF9014"/>
<path d="M98.6491 179.968C98.6491 179.968 98.8614 185.276 97.959 187.453L99.0737 189.629L102.046 191.434L103.957 190.001L104.488 188.355V179.968H98.6491Z" fill="#FFA980"/>
<path d="M96.3135 175.986C96.0481 175.296 96.0481 174.5 96.3666 173.863C96.632 173.332 97.0567 172.855 97.3221 172.324C97.5344 171.846 97.6937 171.315 98.0652 170.944C98.4368 170.572 99.0207 170.466 99.5516 170.572C100.082 170.678 100.507 170.997 100.879 171.368C101.409 171.899 101.728 172.536 101.887 173.279C102.1 174.129 101.993 175.031 101.834 175.88C101.675 176.677 101.463 177.473 100.932 178.057C100.507 178.534 99.9232 178.8 99.2862 178.853C98.6492 178.906 97.7467 178.747 97.4282 178.163C97.269 177.897 97.1628 177.526 97.0036 177.26C96.7382 176.836 96.4727 176.411 96.3135 175.986Z" fill="#2B2F3A"/>
<path d="M107.673 171.421C107.673 171.421 108.947 183.259 105.497 184.957C103.267 186.072 99.7104 184.904 99.1265 179.596C98.5957 174.341 100.931 171.793 103.745 171.421C106.187 171.156 107.673 171.421 107.673 171.421Z" fill="#FFC29F"/>
<path d="M99.0738 177.313C99.0738 177.313 98.2775 176.411 97.4813 177.313C96.685 178.216 98.1183 180.021 99.18 180.127L99.0738 177.313Z" fill="#FFC29F"/>
<path d="M100.879 173.12C101.516 173.226 102.153 173.12 102.79 173.226C103.533 173.332 104.223 173.651 104.966 173.916C106.028 174.288 107.142 174.553 108.257 174.447C109.372 174.341 110.487 173.81 111.124 172.908C111.814 171.952 111.92 170.678 111.442 169.67C110.964 168.608 109.903 167.865 108.735 167.812C107.461 167.706 106.24 168.343 105.072 168.767C103.798 169.245 102.418 169.51 101.038 169.51C100.454 169.51 99.9231 169.51 99.3392 169.617C98.8084 169.776 98.2775 170.094 98.0652 170.625C97.7998 171.315 98.2245 171.793 98.7553 172.218C99.4454 172.642 100.082 173.014 100.879 173.12Z" fill="#2B2F3A"/>
<path d="M98.1713 186.762C98.1713 186.762 98.9144 189.364 102.099 191.381C101.993 192.336 99.286 194.3 98.1182 191.062C97.5343 189.47 97.375 187.612 97.375 187.612L98.1713 186.762Z" fill="#FF7800"/>
<path d="M102.099 191.381C104.488 189.735 104.541 186.869 104.541 186.869L105.284 187.612C105.284 187.612 105.815 190.85 104.7 192.336C103.904 193.345 102.205 192.018 102.099 191.381Z" fill="#FF7800"/>
<path d="M91.3232 228.964C91.3232 228.964 93.5527 232.361 94.5613 233.157C95.5168 233.954 96.26 235.546 96.26 235.546L93.3935 239.421C93.3935 239.421 91.6948 238.837 91.1109 236.82C90.5801 234.75 90.0492 234.538 89.1468 232.574C88.2444 230.609 88.2444 230.609 88.2444 230.609L91.3232 228.964Z" fill="#FFC29F"/>
<path d="M89.0939 190.266C89.0939 190.266 85.8027 190.478 84.2633 196.53C82.7239 202.581 80.8129 212.508 80.2821 216.754C80.0697 218.559 89.5717 234.272 89.5717 234.272C89.5717 234.272 91.4827 232.573 93.1283 231.14C93.1283 231.14 87.873 220.152 87.873 216.117C87.873 216.117 92.5974 203.006 92.7567 199.025C92.9159 194.884 92.9159 190.691 89.0939 190.266Z" fill="#FF9014"/>
<path d="M115.529 192.708C116.75 192.92 120.519 201.307 122.961 205.66C125.35 210.013 125.35 210.013 125.35 210.013L131.136 195.15C131.136 195.15 133.047 194.831 134.215 196.53C134.215 196.53 131.136 216.595 130.34 218.825C129.543 221.054 127.155 222.7 122.908 217.338C118.661 211.977 111.283 201.626 110.699 200.458C110.062 199.29 108.363 191.646 115.529 192.708Z" fill="#FF9014"/>
<path d="M111.177 317.666H116.114C116.114 317.666 116.644 317.666 118.29 319.365C119.936 321.064 124.66 319.418 126.412 322.868H110.752C110.805 322.868 109.319 320.161 111.177 317.666Z" fill="#21323F"/>
<path d="M81.1843 322.868C80.6004 320.904 81.9806 319.418 82.4053 317.666C82.6707 316.604 88.1383 315.914 88.6691 318.303C89.1999 320.586 88.7753 322.868 88.7753 322.868H81.1843Z" fill="#21323F"/>
<path d="M96.6967 233.529L92.2957 239.973L93.3039 240.662L97.7049 234.218L96.6967 233.529Z" fill="#203B53"/>
<path d="M115.158 228.645H92.8625V230.238H115.158V228.645Z" fill="#203B53"/>
<path d="M103.958 252.108L107.036 240.536L104.966 262.406L103.958 252.108Z" fill="#203B53"/>
<path d="M115.582 207.518L115.688 199.025L117.653 210.332L115.582 207.518Z" fill="#FF7800"/>
<path d="M90.7925 207.093L92.2257 201.838L91.6949 212.136C91.748 212.136 90.8456 207.624 90.7925 207.093Z" fill="#FF7800"/>
<path d="M304.719 322.125L294.421 277.004H298.296L306.258 322.125C306.205 323.081 304.772 323.081 304.719 322.125Z" fill="#2C4C6A"/>
<path d="M278.655 322.125L268.357 277.004H272.232L280.194 322.125C280.141 323.081 278.708 323.081 278.655 322.125Z" fill="#2C4C6A"/>
<path d="M242.983 322.125L253.281 277.004H249.406L241.443 322.125C241.496 323.081 242.93 323.081 242.983 322.125Z" fill="#A2C5D2"/>
<path d="M308.647 241.279H287.679C286.352 241.279 285.131 242.128 284.653 243.402L274.408 271.59C273.665 273.66 275.204 275.889 277.434 275.889H298.402C299.729 275.889 300.95 275.04 301.428 273.766L311.673 245.579C312.416 243.509 310.877 241.279 308.647 241.279Z" fill="#A2C5D2"/>
<path d="M300.419 278.119H246.539C245.902 278.119 245.425 277.641 245.425 277.004C245.425 276.367 245.902 275.89 246.539 275.89H300.419C301.056 275.89 301.534 276.367 301.534 277.004C301.534 277.641 301.003 278.119 300.419 278.119Z" fill="#A2C5D2"/>
<path d="M300.419 278.119H278.708C278.071 278.119 277.593 277.641 277.593 277.004C277.593 276.367 278.071 275.89 278.708 275.89H300.419C301.056 275.89 301.534 276.367 301.534 277.004C301.534 277.641 301.003 278.119 300.419 278.119Z" fill="#91B9C4"/>
<path d="M267.348 322.125L277.646 277.004H273.771L265.808 322.125C265.861 323.081 267.295 323.081 267.348 322.125Z" fill="#A2C5D2"/>
<path d="M284.494 212.242C284.494 212.242 281.415 212.402 281.15 215.746C280.884 219.09 281.521 220.842 280.035 224.186C278.602 227.531 277.434 232.043 283.432 232.467C289.484 232.892 291.342 232.627 293.2 234.06C295.058 235.493 301.375 231.14 299.145 227.265C296.862 223.39 296.013 221.161 296.916 218.188C297.871 215.215 295.907 211.924 292.244 210.491C289.272 209.323 286.777 209.482 284.494 212.242Z" fill="#21323F"/>
<path d="M282.955 231.459C282.955 231.459 283.804 234.113 281.734 241.704C279.663 249.295 278.973 251.79 277.009 253.223C275.788 254.126 262.093 254.126 262.093 254.126V250.25L274.196 248.764C274.196 248.764 275.735 241.279 277.275 236.555C277.805 234.909 278.708 230.716 280.619 229.866C282.477 229.017 282.955 231.459 282.955 231.459Z" fill="#FF9014"/>
<path d="M298.455 244.411C297.871 248.711 296.332 259.168 296.332 259.168H280.3C280.3 259.168 280.778 252.745 279.982 249.295C279.823 248.658 279.663 248.127 279.398 247.702C278.177 245.738 277.062 243.88 277.009 241.81C277.009 241.332 277.062 240.801 277.222 240.271C277.965 237.563 279.026 231.671 280.354 230.025C281.681 228.38 288.369 228.592 288.369 228.592C288.369 228.592 297.128 228.592 299.729 230.079C300.419 230.45 300.684 231.353 300.738 232.414C301.003 235.652 298.88 241.173 298.455 244.411Z" fill="#FF9014"/>
<path d="M295.854 245.791C295.854 245.791 283.592 246.8 279.982 249.242C279.823 248.605 279.663 248.074 279.398 247.649C278.177 245.685 277.062 243.827 277.009 241.757C277.806 243.456 279.876 245.685 285.131 245.738C293.624 245.897 295.854 245.791 295.854 245.791Z" fill="#FF7800"/>
<path d="M298.455 244.411C297.871 248.711 296.332 259.168 296.332 259.168L297.075 234.378L300.791 232.361C301.003 235.652 298.88 241.173 298.455 244.411Z" fill="#FF7800"/>
<path d="M292.297 250.675C292.297 250.675 284.653 250.94 282.212 251.1C282.212 251.1 280.035 250.25 278.655 250.144C276.585 249.985 274.78 252.055 274.249 254.019H291.979L292.297 250.675Z" fill="#FFC29F"/>
<path d="M300.472 230.875C300.472 230.875 302.755 235.068 304.188 240.642C305.674 246.216 307.692 251.843 305.834 253.435C303.976 254.975 292.032 254.391 292.032 254.391L291.713 250.197L300.791 248.711C300.791 248.711 297.34 240.111 296.809 238.572C296.279 237.032 295.854 232.255 297.765 231.406C299.729 230.609 300.472 230.875 300.472 230.875Z" fill="#FF9014"/>
<path d="M256.731 318.462H253.971L253.653 314.428L256.944 314.11L256.731 318.462Z" fill="#FFC29F"/>
<path d="M256.731 318.462C256.731 318.462 257.74 319.524 257.421 321.859C257.262 322.974 254.873 322.868 250.839 322.868H246.805C246.114 322.868 245.796 322.019 246.327 321.594C246.592 321.382 246.911 321.169 247.388 321.063C251.954 319.63 254.024 318.515 254.024 318.515H256.731V318.462Z" fill="#192730"/>
<path d="M289.112 259.168C289.112 260.548 292.297 265.273 291.66 269.891C291.236 272.917 288.634 275.89 282.583 275.89C274.302 275.89 261.137 275.783 259.014 275.89C257.315 275.943 256.519 275.996 257.474 279.234C259.863 286.878 257.846 299.83 257.209 317.401H253.599C253.599 317.401 250.414 299.14 249.087 290.328C247.017 276.58 243.885 271.218 249.884 268.352C256.2 265.326 280.3 259.115 280.3 259.115H289.112V259.168Z" fill="#203B53"/>
<path d="M264.482 318.462H261.775L261.403 314.428L264.747 314.11L264.482 318.462Z" fill="#FFC29F"/>
<path d="M264.482 318.462C264.482 318.462 265.49 319.524 265.172 321.859C265.012 322.974 262.624 322.868 258.589 322.868H254.555C253.865 322.868 253.546 322.019 254.077 321.594C254.343 321.382 254.661 321.169 255.139 321.063C259.704 319.63 261.774 318.515 261.774 318.515H264.482V318.462Z" fill="#21323F"/>
<path d="M296.331 259.168C296.331 260.548 299.516 265.273 298.879 269.891C298.455 272.917 295.854 275.89 289.802 275.89C281.521 275.89 268.41 275.89 266.233 275.89C264.534 275.89 263.738 275.996 264.694 279.234C267.082 286.878 266.021 299.989 264.8 317.401H261.19C261.19 317.401 257.634 299.14 256.306 290.328C254.236 276.58 251.104 271.218 257.103 268.352C263.42 265.326 285.662 259.115 285.662 259.115H296.331V259.168Z" fill="#2C4C6A"/>
<path d="M284.069 228.752C284.069 228.752 284.016 232.149 286.352 234.113C286.352 234.113 291.288 231.83 293.04 228.752C293.04 228.752 288.422 228.274 284.069 228.752Z" fill="#FFC29F"/>
<path d="M285.025 228.645C285.025 228.645 286.246 228.539 286.246 227.106C286.246 225.673 286.405 222.965 286.405 222.965L290.97 223.337C290.97 223.337 290.598 227.796 291.342 228.645C292.085 229.442 292.085 229.442 292.085 229.442C292.085 229.442 285.768 230.556 285.025 228.645Z" fill="#FFC29F"/>
<path d="M286.246 226.522C286.246 226.522 289.271 227 290.864 225.726L290.97 223.39L286.246 224.398V226.522Z" fill="#FFA980"/>
<path d="M283.592 213.888C283.592 213.888 279.557 224.929 285.237 226.15C290.864 227.371 292.032 221.479 292.032 221.479C292.032 221.479 293.518 221.107 293.731 219.887C293.943 218.666 292.244 219.143 292.244 219.143C292.244 219.143 293.731 214.578 290.333 213.092C286.777 211.499 284.282 212.349 283.592 213.888Z" fill="#FFC29F"/>
<path d="M284.123 212.561C284.123 212.561 285.397 218.772 292.244 219.143C292.244 219.143 293.996 214.737 292.828 212.88C291.607 211.075 286.14 209.907 284.123 212.561Z" fill="#21323F"/>
<path d="M277.912 252.798H250.998L244.575 235.068C244.31 234.325 244.841 233.529 245.637 233.529H270.109C270.586 233.529 271.011 233.848 271.17 234.272L277.912 252.798Z" fill="#21323F"/>
<path d="M293.943 254.497H267.189C266.711 254.497 266.339 254.125 266.339 253.648C266.339 253.17 266.711 252.798 267.189 252.798H293.943C294.42 252.798 294.792 253.17 294.792 253.648C294.739 254.125 294.367 254.497 293.943 254.497Z" fill="#21323F"/>
<path d="M277.859 254.497H251.104C250.627 254.497 250.255 254.125 250.255 253.648C250.255 253.17 250.627 252.798 251.104 252.798H277.859C278.336 252.798 278.708 253.17 278.708 253.648C278.655 254.125 278.283 254.497 277.859 254.497Z" fill="#21323F"/>
<path d="M341.346 321.807L326.323 256.037H331.95L343.576 321.807C343.523 323.187 341.452 323.187 341.346 321.807Z" fill="#2C4C6A"/>
<path d="M189.74 321.807L174.717 256.037H180.344L191.969 321.807C191.863 323.187 189.793 323.187 189.74 321.807Z" fill="#2C4C6A"/>
<path d="M130.339 321.807L145.362 256.037H139.735L128.11 321.807C128.163 323.187 130.233 323.187 130.339 321.807Z" fill="#C3DBE6"/>
<path d="M274.62 321.807L289.642 256.037H284.016L272.39 321.807C272.443 323.187 274.514 323.187 274.62 321.807Z" fill="#C3DBE6"/>
<path d="M129.437 257.629H343.735C344.478 257.629 345.062 257.045 345.062 256.302V255.877C345.062 255.134 344.478 254.55 343.735 254.55H129.437C128.694 254.55 128.11 255.134 128.11 255.877V256.302C128.11 256.992 128.694 257.629 129.437 257.629Z" fill="#A2C5D2"/>
<path d="M295.854 257.629H343.523C344.372 257.629 345.062 256.939 345.062 256.089C345.062 255.24 344.372 254.55 343.523 254.55H295.854C295.004 254.55 294.314 255.24 294.314 256.089C294.261 256.939 295.004 257.629 295.854 257.629Z" fill="#91B9C4"/>
<path d="M175.036 252.798H201.949L208.372 235.068C208.638 234.325 208.107 233.529 207.311 233.529H182.839C182.361 233.529 181.937 233.848 181.777 234.272L175.036 252.798Z" fill="#21323F"/>
<path d="M159.058 254.497H185.812C186.29 254.497 186.661 254.125 186.661 253.648C186.661 253.17 186.29 252.798 185.812 252.798H159.058C158.58 252.798 158.208 253.17 158.208 253.648C158.208 254.125 158.58 254.497 159.058 254.497Z" fill="#21323F"/>
<path d="M175.089 254.497H201.843C202.321 254.497 202.692 254.125 202.692 253.648C202.692 253.17 202.321 252.798 201.843 252.798H175.089C174.611 252.798 174.24 253.17 174.24 253.648C174.293 254.125 174.664 254.497 175.089 254.497Z" fill="#21323F"/>
</svg>
