<svg width="617" height="401" viewBox="0 0 617 401" fill="none" xmlns="http://www.w3.org/2000/svg">
<rect y="66" width="617" height="50" fill="white"/>
<path d="M24.6 94.44C26.08 94.44 27.24 93.3 27.24 91.84C27.24 90.36 26.08 89.22 24.6 89.22C23.16 89.22 22 90.36 22 91.84C22 93.3 23.16 94.44 24.6 94.44ZM50.5089 98.5H52.9089L47.9289 84.58H45.2889L40.3089 98.5H42.6889L43.6889 95.66H49.5089L50.5089 98.5ZM48.8689 93.8H44.3289L46.6089 87.34L48.8689 93.8ZM54.3142 92.94C54.3142 96.34 56.6142 98.68 59.5142 98.68C61.3142 98.68 62.6342 97.84 63.3342 96.84V98.5H65.6342V83.7H63.3342V89.02C62.4942 87.98 60.9742 87.3 59.5342 87.3C56.6142 87.3 54.3142 89.54 54.3142 92.94ZM63.3342 92.98C63.3342 95.36 61.7142 96.7 59.9942 96.7C58.2942 96.7 56.6542 95.32 56.6542 92.94C56.6542 90.56 58.2942 89.28 59.9942 89.28C61.7142 89.28 63.3342 90.62 63.3342 92.98ZM67.3289 87.48L71.5089 98.5H74.2289L78.4289 87.48H76.0089L72.8889 96.46L69.7689 87.48H67.3289ZM79.3923 92.94C79.3923 96.34 81.6923 98.68 84.5523 98.68C86.3923 98.68 87.7123 97.8 88.4123 96.86V98.5H90.7123V87.48H88.4123V89.08C87.7323 88.18 86.4523 87.3 84.5923 87.3C81.6923 87.3 79.3923 89.54 79.3923 92.94ZM88.4123 92.98C88.4123 95.36 86.7923 96.7 85.0723 96.7C83.3723 96.7 81.7323 95.32 81.7323 92.94C81.7323 90.56 83.3723 89.28 85.0723 89.28C86.7923 89.28 88.4123 90.62 88.4123 92.98ZM101.527 98.5H103.787V92C103.787 88.92 101.847 87.3 99.267 87.3C97.947 87.3 96.727 87.84 95.987 88.74V87.48H93.707V98.5H95.987V92.34C95.987 90.32 97.087 89.28 98.767 89.28C100.427 89.28 101.527 90.32 101.527 92.34V98.5ZM105.935 92.98C105.935 96.44 108.175 98.68 111.335 98.68C114.035 98.68 115.795 97.18 116.415 95.02H113.955C113.535 96.16 112.695 96.76 111.335 96.76C109.495 96.76 108.275 95.4 108.275 92.98C108.275 90.58 109.495 89.22 111.335 89.22C112.695 89.22 113.575 89.9 113.955 90.96H116.415C115.795 88.64 114.035 87.3 111.335 87.3C108.175 87.3 105.935 89.54 105.935 92.98ZM123.328 89.22C125.028 89.22 126.368 90.3 126.408 92H120.308C120.548 90.26 121.788 89.22 123.328 89.22ZM128.487 95.22H126.028C125.608 96.08 124.828 96.76 123.428 96.76C121.748 96.76 120.448 95.66 120.288 93.84H128.708C128.768 93.46 128.788 93.1 128.788 92.72C128.788 89.48 126.568 87.3 123.428 87.3C120.168 87.3 117.928 89.52 117.928 92.98C117.928 96.44 120.268 98.68 123.428 98.68C126.128 98.68 127.868 97.14 128.487 95.22ZM130.271 92.94C130.271 96.34 132.571 98.68 135.471 98.68C137.271 98.68 138.591 97.84 139.291 96.84V98.5H141.591V83.7H139.291V89.02C138.451 87.98 136.931 87.3 135.491 87.3C132.571 87.3 130.271 89.54 130.271 92.94ZM139.291 92.98C139.291 95.36 137.671 96.7 135.951 96.7C134.251 96.7 132.611 95.32 132.611 92.94C132.611 90.56 134.251 89.28 135.951 89.28C137.671 89.28 139.291 90.62 139.291 92.98ZM149.301 98.3H159.021V96.4H152.681C155.021 94.26 158.621 91.56 158.621 88.02C158.621 85.4 156.941 83.62 153.981 83.62C151.401 83.62 149.361 85.16 149.281 88.32H151.481C151.541 86.68 152.401 85.56 154.001 85.56C155.701 85.56 156.361 86.6 156.361 88.12C156.361 90.98 152.741 93.62 149.301 96.64V98.3ZM165.864 84.6H161.324V98.5H165.864C170.324 98.5 173.244 95.88 173.244 91.6C173.244 87.3 170.324 84.6 165.864 84.6ZM163.604 96.64V86.46H165.864C169.144 86.46 170.904 88.42 170.904 91.6C170.904 94.76 169.144 96.64 165.864 96.64H163.604ZM190.079 98.5H192.479L187.499 84.58H184.859L179.879 98.5H182.259L183.259 95.66H189.079L190.079 98.5ZM188.439 93.8H183.899L186.179 87.34L188.439 93.8ZM202.465 98.5H204.725V92C204.725 88.92 202.785 87.3 200.205 87.3C198.885 87.3 197.665 87.84 196.925 88.74V87.48H194.645V98.5H196.925V92.34C196.925 90.32 198.025 89.28 199.705 89.28C201.365 89.28 202.465 90.32 202.465 92.34V98.5ZM207.633 98.5H209.913V87.48H207.633V98.5ZM208.793 86.02C209.593 86.02 210.233 85.38 210.233 84.56C210.233 83.74 209.593 83.1 208.793 83.1C207.973 83.1 207.333 83.74 207.333 84.56C207.333 85.38 207.973 86.02 208.793 86.02ZM228.526 98.5H230.786V92C230.786 88.92 228.826 87.3 226.246 87.3C224.646 87.3 223.086 88.14 222.406 89.48C221.646 88.04 220.186 87.3 218.446 87.3C217.126 87.3 215.926 87.84 215.186 88.74V87.48H212.906V98.5H215.186V92.34C215.186 90.32 216.286 89.28 217.966 89.28C219.626 89.28 220.726 90.32 220.726 92.34V98.5H222.986V92.34C222.986 90.32 224.086 89.28 225.766 89.28C227.426 89.28 228.526 90.32 228.526 92.34V98.5ZM232.928 92.94C232.928 96.34 235.228 98.68 238.088 98.68C239.928 98.68 241.248 97.8 241.948 96.86V98.5H244.248V87.48H241.948V89.08C241.268 88.18 239.988 87.3 238.128 87.3C235.228 87.3 232.928 89.54 232.928 92.94ZM241.948 92.98C241.948 95.36 240.328 96.7 238.608 96.7C236.908 96.7 235.268 95.32 235.268 92.94C235.268 90.56 236.908 89.28 238.608 89.28C240.328 89.28 241.948 90.62 241.948 92.98ZM247.602 95.44C247.602 97.68 248.822 98.5 250.782 98.5H252.582V96.6H251.182C250.222 96.6 249.902 96.26 249.902 95.44V89.34H252.582V87.48H249.902V84.74H247.602V87.48H246.302V89.34H247.602V95.44ZM254.684 98.5H256.964V87.48H254.684V98.5ZM255.844 86.02C256.644 86.02 257.284 85.38 257.284 84.56C257.284 83.74 256.644 83.1 255.844 83.1C255.024 83.1 254.384 83.74 254.384 84.56C254.384 85.38 255.024 86.02 255.844 86.02ZM270.457 92.98C270.457 89.52 267.977 87.3 264.837 87.3C261.697 87.3 259.217 89.52 259.217 92.98C259.217 96.44 261.597 98.68 264.737 98.68C267.897 98.68 270.457 96.44 270.457 92.98ZM261.537 92.98C261.537 90.48 263.077 89.28 264.797 89.28C266.497 89.28 268.117 90.48 268.117 92.98C268.117 95.48 266.437 96.7 264.737 96.7C263.017 96.7 261.537 95.48 261.537 92.98ZM280.531 98.5H282.791V92C282.791 88.92 280.851 87.3 278.271 87.3C276.951 87.3 275.731 87.84 274.991 88.74V87.48H272.711V98.5H274.991V92.34C274.991 90.32 276.091 89.28 277.771 89.28C279.431 89.28 280.531 90.32 280.531 92.34V98.5Z" fill="#212832"/>
<rect x="0.5" y="66.5" width="616" height="49" stroke="black" stroke-opacity="0.5"/>
<rect y="180" width="617" height="50" fill="white"/>
<path d="M24.6 208.44C26.08 208.44 27.24 207.3 27.24 205.84C27.24 204.36 26.08 203.22 24.6 203.22C23.16 203.22 22 204.36 22 205.84C22 207.3 23.16 208.44 24.6 208.44ZM41.1289 212.5H43.4089V202.98L47.6689 212.5H49.2489L53.4889 202.98V212.5H55.7689V198.6H53.3289L48.4689 209.5L43.5889 198.6H41.1289V212.5ZM58.0056 206.94C58.0056 210.34 60.3056 212.68 63.1656 212.68C65.0056 212.68 66.3256 211.8 67.0256 210.86V212.5H69.3256V201.48H67.0256V203.08C66.3456 202.18 65.0656 201.3 63.2056 201.3C60.3056 201.3 58.0056 203.54 58.0056 206.94ZM67.0256 206.98C67.0256 209.36 65.4056 210.7 63.6856 210.7C61.9856 210.7 60.3456 209.32 60.3456 206.94C60.3456 204.56 61.9856 203.28 63.6856 203.28C65.4056 203.28 67.0256 204.62 67.0256 206.98ZM72.6803 209.44C72.6803 211.68 73.9003 212.5 75.8603 212.5H77.6603V210.6H76.2603C75.3003 210.6 74.9803 210.26 74.9803 209.44V203.34H77.6603V201.48H74.9803V198.74H72.6803V201.48H71.3803V203.34H72.6803V209.44ZM80.1217 209.44C80.1217 211.68 81.3417 212.5 83.3017 212.5H85.1017V210.6H83.7017C82.7417 210.6 82.4217 210.26 82.4217 209.44V203.34H85.1017V201.48H82.4217V198.74H80.1217V201.48H78.8217V203.34H80.1217V209.44ZM91.8431 203.22C93.5431 203.22 94.8831 204.3 94.9231 206H88.8231C89.0631 204.26 90.3031 203.22 91.8431 203.22ZM97.0031 209.22H94.5431C94.1231 210.08 93.3431 210.76 91.9431 210.76C90.2631 210.76 88.9631 209.66 88.8031 207.84H97.2231C97.2831 207.46 97.3031 207.1 97.3031 206.72C97.3031 203.48 95.0831 201.3 91.9431 201.3C88.6831 201.3 86.4431 203.52 86.4431 206.98C86.4431 210.44 88.7831 212.68 91.9431 212.68C94.6431 212.68 96.3831 211.14 97.0031 209.22ZM107.022 205V200.46H109.542C111.322 200.46 112.122 201.3 112.122 202.74C112.122 204.14 111.322 205 109.542 205H107.022ZM114.462 202.74C114.462 200.48 112.842 198.6 109.542 198.6H104.742V212.5H107.022V206.86H109.542C113.162 206.86 114.462 204.72 114.462 202.74ZM115.877 206.94C115.877 210.34 118.177 212.68 121.037 212.68C122.877 212.68 124.197 211.8 124.897 210.86V212.5H127.197V201.48H124.897V203.08C124.217 202.18 122.937 201.3 121.077 201.3C118.177 201.3 115.877 203.54 115.877 206.94ZM124.897 206.98C124.897 209.36 123.277 210.7 121.557 210.7C119.857 210.7 118.217 209.32 118.217 206.94C118.217 204.56 119.857 203.28 121.557 203.28C123.277 203.28 124.897 204.62 124.897 206.98ZM130.191 212.5H132.471V201.48H130.191V212.5ZM131.351 200.02C132.151 200.02 132.791 199.38 132.791 198.56C132.791 197.74 132.151 197.1 131.351 197.1C130.531 197.1 129.891 197.74 129.891 198.56C129.891 199.38 130.531 200.02 131.351 200.02ZM143.285 212.5H145.545V206C145.545 202.92 143.605 201.3 141.025 201.3C139.705 201.3 138.485 201.84 137.745 202.74V201.48H135.465V212.5H137.745V206.34C137.745 204.32 138.845 203.28 140.525 203.28C142.185 203.28 143.285 204.32 143.285 206.34V212.5ZM148.813 209.44C148.813 211.68 150.033 212.5 151.993 212.5H153.793V210.6H152.393C151.433 210.6 151.113 210.26 151.113 209.44V203.34H153.793V201.48H151.113V198.74H148.813V201.48H147.513V203.34H148.813V209.44ZM155.895 212.5H158.175V201.48H155.895V212.5ZM157.055 200.02C157.855 200.02 158.495 199.38 158.495 198.56C158.495 197.74 157.855 197.1 157.055 197.1C156.235 197.1 155.595 197.74 155.595 198.56C155.595 199.38 156.235 200.02 157.055 200.02ZM168.988 212.5H171.248V206C171.248 202.92 169.308 201.3 166.728 201.3C165.408 201.3 164.188 201.84 163.448 202.74V201.48H161.168V212.5H163.448V206.34C163.448 204.32 164.548 203.28 166.228 203.28C167.888 203.28 168.988 204.32 168.988 206.34V212.5ZM173.396 206.94C173.396 210.34 175.696 212.68 178.596 212.68C180.396 212.68 181.716 211.78 182.416 210.84V212.68C182.416 214.88 181.096 215.96 179.336 215.96C177.756 215.96 176.536 215.18 176.196 214.04H173.936C174.216 216.48 176.396 217.94 179.336 217.94C182.776 217.94 184.716 215.68 184.716 212.68V201.48H182.416V203.08C181.736 202.14 180.396 201.3 178.596 201.3C175.696 201.3 173.396 203.54 173.396 206.94ZM182.416 206.98C182.416 209.36 180.796 210.7 179.076 210.7C177.376 210.7 175.736 209.32 175.736 206.94C175.736 204.56 177.376 203.28 179.076 203.28C180.796 203.28 182.416 204.62 182.416 206.98Z" fill="#212832"/>
<rect x="0.5" y="180.5" width="616" height="49" stroke="black" stroke-opacity="0.5"/>
<rect y="123" width="617" height="50" fill="white"/>
<path d="M24.6 151.44C26.08 151.44 27.24 150.3 27.24 148.84C27.24 147.36 26.08 146.22 24.6 146.22C23.16 146.22 22 147.36 22 148.84C22 150.3 23.16 151.44 24.6 151.44ZM40.3689 148.52C40.3689 152.7 43.5489 155.62 47.4689 155.62C50.3689 155.62 52.8689 154.18 53.9289 151.46H51.1889C50.4489 152.94 49.1289 153.64 47.4689 153.64C44.7089 153.64 42.7089 151.66 42.7089 148.52C42.7089 145.38 44.7089 143.42 47.4689 143.42C49.1289 143.42 50.4489 144.12 51.1889 145.6H53.9289C52.8689 142.88 50.3689 141.42 47.4689 141.42C43.5489 141.42 40.3689 144.36 40.3689 148.52ZM56.5977 155.5H58.8777V149.34C58.8777 147.32 59.9777 146.28 61.6577 146.28C63.3177 146.28 64.4177 147.32 64.4177 149.34V155.5H66.6777V149C66.6777 145.92 64.7577 144.3 62.2977 144.3C60.8777 144.3 59.6377 144.84 58.8777 145.76V140.7H56.5977V155.5ZM68.8259 149.94C68.8259 153.34 71.1259 155.68 73.9859 155.68C75.8259 155.68 77.1459 154.8 77.8459 153.86V155.5H80.1459V144.48H77.8459V146.08C77.1659 145.18 75.8859 144.3 74.0259 144.3C71.1259 144.3 68.8259 146.54 68.8259 149.94ZM77.8459 149.98C77.8459 152.36 76.2259 153.7 74.5059 153.7C72.8059 153.7 71.1659 152.32 71.1659 149.94C71.1659 147.56 72.8059 146.28 74.5059 146.28C76.2259 146.28 77.8459 147.62 77.8459 149.98ZM85.4206 149.7C85.4206 147.36 86.4606 146.66 88.1406 146.66H88.7206V144.3C87.1606 144.3 86.0606 144.98 85.4206 146.08V144.48H83.1406V155.5H85.4206V149.7ZM90.0564 149.94C90.0564 153.34 92.3564 155.68 95.2164 155.68C97.0564 155.68 98.3764 154.8 99.0764 153.86V155.5H101.376V144.48H99.0764V146.08C98.3964 145.18 97.1164 144.3 95.2564 144.3C92.3564 144.3 90.0564 146.54 90.0564 149.94ZM99.0764 149.98C99.0764 152.36 97.4564 153.7 95.7364 153.7C94.0364 153.7 92.3964 152.32 92.3964 149.94C92.3964 147.56 94.0364 146.28 95.7364 146.28C97.4564 146.28 99.0764 147.62 99.0764 149.98ZM103.611 149.98C103.611 153.44 105.851 155.68 109.011 155.68C111.711 155.68 113.471 154.18 114.091 152.02H111.631C111.211 153.16 110.371 153.76 109.011 153.76C107.171 153.76 105.951 152.4 105.951 149.98C105.951 147.58 107.171 146.22 109.011 146.22C110.371 146.22 111.251 146.9 111.631 147.96H114.091C113.471 145.64 111.711 144.3 109.011 144.3C105.851 144.3 103.611 146.54 103.611 149.98ZM116.723 152.44C116.723 154.68 117.943 155.5 119.903 155.5H121.703V153.6H120.303C119.343 153.6 119.023 153.26 119.023 152.44V146.34H121.703V144.48H119.023V141.74H116.723V144.48H115.423V146.34H116.723V152.44ZM128.445 146.22C130.145 146.22 131.485 147.3 131.525 149H125.425C125.665 147.26 126.905 146.22 128.445 146.22ZM133.605 152.22H131.145C130.725 153.08 129.945 153.76 128.545 153.76C126.865 153.76 125.565 152.66 125.405 150.84H133.825C133.885 150.46 133.905 150.1 133.905 149.72C133.905 146.48 131.685 144.3 128.545 144.3C125.285 144.3 123.045 146.52 123.045 149.98C123.045 153.44 125.385 155.68 128.545 155.68C131.245 155.68 132.985 154.14 133.605 152.22ZM138.428 149.7C138.428 147.36 139.468 146.66 141.148 146.66H141.728V144.3C140.168 144.3 139.068 144.98 138.428 146.08V144.48H136.148V155.5H138.428V149.7ZM153.56 141.6H149.02V155.5H153.56C158.02 155.5 160.94 152.88 160.94 148.6C160.94 144.3 158.02 141.6 153.56 141.6ZM151.3 153.64V143.46H153.56C156.84 143.46 158.6 145.42 158.6 148.6C158.6 151.76 156.84 153.64 153.56 153.64H151.3ZM167.839 146.22C169.539 146.22 170.879 147.3 170.919 149H164.819C165.059 147.26 166.299 146.22 167.839 146.22ZM172.999 152.22H170.539C170.119 153.08 169.339 153.76 167.939 153.76C166.259 153.76 164.959 152.66 164.799 150.84H173.219C173.279 150.46 173.299 150.1 173.299 149.72C173.299 146.48 171.079 144.3 167.939 144.3C164.679 144.3 162.439 146.52 162.439 149.98C162.439 153.44 164.779 155.68 167.939 155.68C170.639 155.68 172.379 154.14 172.999 152.22ZM183.763 152.42C183.643 148.44 177.423 149.68 177.423 147.46C177.423 146.72 178.063 146.22 179.283 146.22C180.523 146.22 181.263 146.88 181.343 147.84H183.623C183.503 145.64 181.863 144.3 179.363 144.3C176.763 144.3 175.123 145.72 175.123 147.48C175.123 151.52 181.523 150.28 181.523 152.44C181.523 153.2 180.823 153.76 179.503 153.76C178.243 153.76 177.383 153.02 177.303 152.12H174.943C175.043 154.12 176.903 155.68 179.543 155.68C182.143 155.68 183.763 154.28 183.763 152.42ZM186.227 155.5H188.507V144.48H186.227V155.5ZM187.387 143.02C188.187 143.02 188.827 142.38 188.827 141.56C188.827 140.74 188.187 140.1 187.387 140.1C186.567 140.1 185.927 140.74 185.927 141.56C185.927 142.38 186.567 143.02 187.387 143.02ZM190.74 149.94C190.74 153.34 193.04 155.68 195.94 155.68C197.74 155.68 199.06 154.78 199.76 153.84V155.68C199.76 157.88 198.44 158.96 196.68 158.96C195.1 158.96 193.88 158.18 193.54 157.04H191.28C191.56 159.48 193.74 160.94 196.68 160.94C200.12 160.94 202.06 158.68 202.06 155.68V144.48H199.76V146.08C199.08 145.14 197.74 144.3 195.94 144.3C193.04 144.3 190.74 146.54 190.74 149.94ZM199.76 149.98C199.76 152.36 198.14 153.7 196.42 153.7C194.72 153.7 193.08 152.32 193.08 149.94C193.08 147.56 194.72 146.28 196.42 146.28C198.14 146.28 199.76 147.62 199.76 149.98ZM212.875 155.5H215.135V149C215.135 145.92 213.195 144.3 210.615 144.3C209.295 144.3 208.075 144.84 207.335 145.74V144.48H205.055V155.5H207.335V149.34C207.335 147.32 208.435 146.28 210.115 146.28C211.775 146.28 212.875 147.32 212.875 149.34V155.5ZM223.238 155.5H225.518V141.6H223.238V155.5ZM228.512 155.5H230.792V141.6H228.512V155.5Z" fill="#212832"/>
<rect x="0.5" y="123.5" width="616" height="49" stroke="black" stroke-opacity="0.5"/>
<rect y="237" width="617" height="50" fill="white"/>
<path d="M24.6 265.44C26.08 265.44 27.24 264.3 27.24 262.84C27.24 261.36 26.08 260.22 24.6 260.22C23.16 260.22 22 261.36 22 262.84C22 264.3 23.16 265.44 24.6 265.44ZM50.5089 265.56C50.5089 260.48 43.1489 262.44 43.1489 259.3C43.1489 257.96 44.1689 257.32 45.4889 257.36C46.9289 257.4 47.7489 258.26 47.8289 259.2H50.3489C50.1489 256.82 48.2689 255.42 45.6089 255.42C42.7689 255.42 40.8289 256.94 40.8289 259.38C40.8289 264.5 48.2089 262.32 48.2089 265.68C48.2089 266.86 47.3089 267.72 45.7089 267.72C44.1289 267.72 43.3289 266.8 43.2289 265.66H40.7889C40.7889 268.12 42.9289 269.64 45.7089 269.64C48.8089 269.64 50.5089 267.64 50.5089 265.56ZM52.4392 263.98C52.4392 267.44 54.6792 269.68 57.8392 269.68C60.5392 269.68 62.2992 268.18 62.9192 266.02H60.4592C60.0392 267.16 59.1992 267.76 57.8392 267.76C55.9992 267.76 54.7792 266.4 54.7792 263.98C54.7792 261.58 55.9992 260.22 57.8392 260.22C59.1992 260.22 60.0792 260.9 60.4592 261.96H62.9192C62.2992 259.64 60.5392 258.3 57.8392 258.3C54.6792 258.3 52.4392 260.54 52.4392 263.98ZM67.4714 263.7C67.4714 261.36 68.5114 260.66 70.1914 260.66H70.7714V258.3C69.2114 258.3 68.1114 258.98 67.4714 260.08V258.48H65.1914V269.5H67.4714V263.7ZM72.8672 269.5H75.1472V258.48H72.8672V269.5ZM74.0272 257.02C74.8272 257.02 75.4672 256.38 75.4672 255.56C75.4672 254.74 74.8272 254.1 74.0272 254.1C73.2072 254.1 72.5672 254.74 72.5672 255.56C72.5672 256.38 73.2072 257.02 74.0272 257.02ZM80.4206 260.1V258.48H78.1406V274.74H80.4206V267.9C81.1406 268.76 82.4406 269.68 84.2606 269.68C87.1606 269.68 89.4406 267.34 89.4406 263.94C89.4406 260.54 87.1606 258.3 84.2606 258.3C82.4606 258.3 81.1206 259.18 80.4206 260.1ZM87.1206 263.94C87.1206 266.32 85.4806 267.7 83.7606 267.7C82.0606 267.7 80.4206 266.36 80.4206 263.98C80.4206 261.62 82.0606 260.28 83.7606 260.28C85.4806 260.28 87.1206 261.56 87.1206 263.94ZM92.0553 266.44C92.0553 268.68 93.2753 269.5 95.2353 269.5H97.0353V267.6H95.6353C94.6753 267.6 94.3553 267.26 94.3553 266.44V260.34H97.0353V258.48H94.3553V255.74H92.0553V258.48H90.7553V260.34H92.0553V266.44ZM107.152 269.52L109.712 269.5L112.812 258.98L115.732 269.5H118.312L122.432 255.6H119.992L117.092 266.86L114.192 255.6H111.632L108.512 266.92L105.632 255.6H103.212L107.152 269.52ZM126.593 263.7C126.593 261.36 127.633 260.66 129.313 260.66H129.893V258.3C128.333 258.3 127.233 258.98 126.593 260.08V258.48H124.313V269.5H126.593V263.7ZM131.988 269.5H134.268V258.48H131.988V269.5ZM133.148 257.02C133.948 257.02 134.588 256.38 134.588 255.56C134.588 254.74 133.948 254.1 133.148 254.1C132.328 254.1 131.688 254.74 131.688 255.56C131.688 256.38 132.328 257.02 133.148 257.02ZM137.622 266.44C137.622 268.68 138.842 269.5 140.802 269.5H142.602V267.6H141.202C140.242 267.6 139.922 267.26 139.922 266.44V260.34H142.602V258.48H139.922V255.74H137.622V258.48H136.322V260.34H137.622V266.44ZM144.703 269.5H146.983V258.48H144.703V269.5ZM145.863 257.02C146.663 257.02 147.303 256.38 147.303 255.56C147.303 254.74 146.663 254.1 145.863 254.1C145.043 254.1 144.403 254.74 144.403 255.56C144.403 256.38 145.043 257.02 145.863 257.02ZM157.797 269.5H160.057V263C160.057 259.92 158.117 258.3 155.537 258.3C154.217 258.3 152.997 258.84 152.257 259.74V258.48H149.977V269.5H152.257V263.34C152.257 261.32 153.357 260.28 155.037 260.28C156.697 260.28 157.797 261.32 157.797 263.34V269.5ZM162.205 263.94C162.205 267.34 164.505 269.68 167.405 269.68C169.205 269.68 170.525 268.78 171.225 267.84V269.68C171.225 271.88 169.905 272.96 168.145 272.96C166.565 272.96 165.345 272.18 165.005 271.04H162.745C163.025 273.48 165.205 274.94 168.145 274.94C171.585 274.94 173.525 272.68 173.525 269.68V258.48H171.225V260.08C170.545 259.14 169.205 258.3 167.405 258.3C164.505 258.3 162.205 260.54 162.205 263.94ZM171.225 263.98C171.225 266.36 169.605 267.7 167.885 267.7C166.185 267.7 164.545 266.32 164.545 263.94C164.545 261.56 166.185 260.28 167.885 260.28C169.605 260.28 171.225 261.62 171.225 263.98ZM180.955 263.94C180.955 267.34 183.255 269.68 186.115 269.68C187.955 269.68 189.275 268.8 189.975 267.86V269.5H192.275V258.48H189.975V260.08C189.295 259.18 188.015 258.3 186.155 258.3C183.255 258.3 180.955 260.54 180.955 263.94ZM189.975 263.98C189.975 266.36 188.355 267.7 186.635 267.7C184.935 267.7 183.295 266.32 183.295 263.94C183.295 261.56 184.935 260.28 186.635 260.28C188.355 260.28 189.975 261.62 189.975 263.98ZM203.09 269.5H205.35V263C205.35 259.92 203.41 258.3 200.83 258.3C199.51 258.3 198.29 258.84 197.55 259.74V258.48H195.27V269.5H197.55V263.34C197.55 261.32 198.65 260.28 200.33 260.28C201.99 260.28 203.09 261.32 203.09 263.34V269.5ZM207.498 263.94C207.498 267.34 209.798 269.68 212.698 269.68C214.498 269.68 215.818 268.84 216.518 267.84V269.5H218.818V254.7H216.518V260.02C215.678 258.98 214.158 258.3 212.718 258.3C209.798 258.3 207.498 260.54 207.498 263.94ZM216.518 263.98C216.518 266.36 214.898 267.7 213.178 267.7C211.478 267.7 209.838 266.32 209.838 263.94C209.838 261.56 211.478 260.28 213.178 260.28C214.898 260.28 216.518 261.62 216.518 263.98ZM236.388 265.56C236.388 260.48 229.028 262.44 229.028 259.3C229.028 257.96 230.048 257.32 231.368 257.36C232.808 257.4 233.628 258.26 233.708 259.2H236.228C236.028 256.82 234.148 255.42 231.488 255.42C228.648 255.42 226.708 256.94 226.708 259.38C226.708 264.5 234.088 262.32 234.088 265.68C234.088 266.86 233.188 267.72 231.588 267.72C230.008 267.72 229.208 266.8 229.108 265.66H226.668C226.668 268.12 228.808 269.64 231.588 269.64C234.688 269.64 236.388 267.64 236.388 265.56ZM243.718 260.22C245.418 260.22 246.758 261.3 246.798 263H240.698C240.938 261.26 242.178 260.22 243.718 260.22ZM248.878 266.22H246.418C245.998 267.08 245.218 267.76 243.818 267.76C242.138 267.76 240.838 266.66 240.678 264.84H249.098C249.158 264.46 249.178 264.1 249.178 263.72C249.178 260.48 246.958 258.3 243.818 258.3C240.558 258.3 238.318 260.52 238.318 263.98C238.318 267.44 240.658 269.68 243.818 269.68C246.518 269.68 248.258 268.14 248.878 266.22ZM250.662 263.94C250.662 267.34 252.962 269.68 255.802 269.68C257.662 269.68 259.042 268.76 259.682 267.9V274.74H261.982V258.48H259.682V260.08C259.042 259.18 257.702 258.3 255.882 258.3C252.962 258.3 250.662 260.54 250.662 263.94ZM259.682 263.98C259.682 266.36 258.062 267.7 256.342 267.7C254.642 267.7 253.002 266.32 253.002 263.94C253.002 261.56 254.642 260.28 256.342 260.28C258.062 260.28 259.682 261.62 259.682 263.98ZM274.957 258.48H272.677V264.62C272.677 266.64 271.577 267.68 269.897 267.68C268.237 267.68 267.137 266.64 267.137 264.62V258.48H264.877V264.96C264.877 268.04 266.837 269.66 269.417 269.66C270.717 269.66 271.957 269.12 272.677 268.18V269.5H274.957V258.48ZM282.605 260.22C284.305 260.22 285.645 261.3 285.685 263H279.585C279.825 261.26 281.065 260.22 282.605 260.22ZM287.765 266.22H285.305C284.885 267.08 284.105 267.76 282.705 267.76C281.025 267.76 279.725 266.66 279.565 264.84H287.985C288.045 264.46 288.065 264.1 288.065 263.72C288.065 260.48 285.845 258.3 282.705 258.3C279.445 258.3 277.205 260.52 277.205 263.98C277.205 267.44 279.545 269.68 282.705 269.68C285.405 269.68 287.145 268.14 287.765 266.22ZM298.129 269.5H300.389V263C300.389 259.92 298.449 258.3 295.869 258.3C294.549 258.3 293.329 258.84 292.589 259.74V258.48H290.309V269.5H292.589V263.34C292.589 261.32 293.689 260.28 295.369 260.28C297.029 260.28 298.129 261.32 298.129 263.34V269.5ZM303.657 266.44C303.657 268.68 304.877 269.5 306.837 269.5H308.637V267.6H307.237C306.277 267.6 305.957 267.26 305.957 266.44V260.34H308.637V258.48H305.957V255.74H303.657V258.48H302.357V260.34H303.657V266.44ZM310.738 269.5H313.018V258.48H310.738V269.5ZM311.898 257.02C312.698 257.02 313.338 256.38 313.338 255.56C313.338 254.74 312.698 254.1 311.898 254.1C311.078 254.1 310.438 254.74 310.438 255.56C310.438 256.38 311.078 257.02 311.898 257.02ZM315.252 263.94C315.252 267.34 317.552 269.68 320.412 269.68C322.252 269.68 323.572 268.8 324.272 267.86V269.5H326.572V258.48H324.272V260.08C323.592 259.18 322.312 258.3 320.452 258.3C317.552 258.3 315.252 260.54 315.252 263.94ZM324.272 263.98C324.272 266.36 322.652 267.7 320.932 267.7C319.232 267.7 317.592 266.32 317.592 263.94C317.592 261.56 319.232 260.28 320.932 260.28C322.652 260.28 324.272 261.62 324.272 263.98ZM329.566 269.5H331.846V254.7H329.566V269.5ZM349.175 255.58V265.94L342.315 255.58H340.035V269.5H342.315V259.12L349.175 269.5H351.455V255.58H349.175ZM353.689 263.94C353.689 267.34 355.989 269.68 358.849 269.68C360.689 269.68 362.009 268.8 362.709 267.86V269.5H365.009V258.48H362.709V260.08C362.029 259.18 360.749 258.3 358.889 258.3C355.989 258.3 353.689 260.54 353.689 263.94ZM362.709 263.98C362.709 266.36 361.089 267.7 359.369 267.7C357.669 267.7 356.029 266.32 356.029 263.94C356.029 261.56 357.669 260.28 359.369 260.28C361.089 260.28 362.709 261.62 362.709 263.98ZM370.284 263.7C370.284 261.36 371.324 260.66 373.004 260.66H373.584V258.3C372.024 258.3 370.924 258.98 370.284 260.08V258.48H368.004V269.5H370.284V263.7ZM377.96 263.7C377.96 261.36 379 260.66 380.68 260.66H381.26V258.3C379.7 258.3 378.6 258.98 377.96 260.08V258.48H375.68V269.5H377.96V263.7ZM382.595 263.94C382.595 267.34 384.895 269.68 387.755 269.68C389.595 269.68 390.915 268.8 391.615 267.86V269.5H393.915V258.48H391.615V260.08C390.935 259.18 389.655 258.3 387.795 258.3C384.895 258.3 382.595 260.54 382.595 263.94ZM391.615 263.98C391.615 266.36 389.995 267.7 388.275 267.7C386.575 267.7 384.935 266.32 384.935 263.94C384.935 261.56 386.575 260.28 388.275 260.28C389.995 260.28 391.615 261.62 391.615 263.98ZM397.27 266.44C397.27 268.68 398.49 269.5 400.45 269.5H402.25V267.6H400.85C399.89 267.6 399.57 267.26 399.57 266.44V260.34H402.25V258.48H399.57V255.74H397.27V258.48H395.97V260.34H397.27V266.44ZM404.352 269.5H406.632V258.48H404.352V269.5ZM405.512 257.02C406.312 257.02 406.952 256.38 406.952 255.56C406.952 254.74 406.312 254.1 405.512 254.1C404.692 254.1 404.052 254.74 404.052 255.56C404.052 256.38 404.692 257.02 405.512 257.02ZM408.325 258.48L412.505 269.5H415.225L419.425 258.48H417.005L413.885 267.46L410.765 258.48H408.325ZM425.788 260.22C427.488 260.22 428.828 261.3 428.868 263H422.768C423.008 261.26 424.248 260.22 425.788 260.22ZM430.948 266.22H428.488C428.068 267.08 427.288 267.76 425.888 267.76C424.208 267.76 422.908 266.66 422.748 264.84H431.168C431.228 264.46 431.248 264.1 431.248 263.72C431.248 260.48 429.028 258.3 425.888 258.3C422.628 258.3 420.388 260.52 420.388 263.98C420.388 267.44 422.728 269.68 425.888 269.68C428.588 269.68 430.328 268.14 430.948 266.22Z" fill="#212832"/>
<rect x="0.5" y="237.5" width="616" height="49" stroke="black" stroke-opacity="0.5"/>
<rect y="294" width="617" height="50" fill="white"/>
<path d="M21.74 320.22H29.96V318.3H21.74V320.22ZM33.4392 320.22H41.6592V318.3H33.4392V320.22ZM45.1384 320.22H53.3584V318.3H45.1384V320.22ZM56.8377 320.22H65.0577V318.3H56.8377V320.22Z" fill="#212832"/>
<rect x="0.5" y="294.5" width="616" height="49" stroke="black" stroke-opacity="0.5"/>
<rect y="351" width="617" height="50" fill="white"/>
<path d="M21.74 377.22H29.96V375.3H21.74V377.22ZM33.4392 377.22H41.6592V375.3H33.4392V377.22ZM45.1384 377.22H53.3584V375.3H45.1384V377.22ZM56.8377 377.22H65.0577V375.3H56.8377V377.22Z" fill="#212832"/>
<rect x="0.5" y="351.5" width="616" height="49" stroke="black" stroke-opacity="0.5"/>
<rect width="617" height="58" fill="#3498DB"/>
<path d="M33.925 32.95C33.925 26.8 24.975 28.75 24.975 25.25C24.975 23.825 26 23.15 27.375 23.2C28.875 23.225 29.8 24.125 29.875 25.275H33.725C33.5 22.125 31.05 20.3 27.475 20.3C23.875 20.3 21.325 22.2 21.325 25.35C21.3 31.675 30.3 29.4 30.3 33.175C30.3 34.425 29.325 35.3 27.675 35.3C26.05 35.3 25.125 34.375 25.025 32.975H21.275C21.325 36.275 24.125 38.175 27.75 38.175C31.725 38.175 33.925 35.7 33.925 32.95ZM43.4094 26.8C45.2094 26.8 46.6594 27.95 46.7094 29.775H40.1344C40.4094 27.875 41.7344 26.8 43.4094 26.8ZM49.9844 33.65H46.2094C45.7594 34.575 44.9344 35.325 43.4344 35.325C41.6844 35.325 40.2844 34.175 40.1094 32.125H50.2344C50.3094 31.675 50.3344 31.225 50.3344 30.775C50.3344 26.65 47.5094 23.925 43.5094 23.925C39.4094 23.925 36.5594 26.7 36.5594 31.075C36.5594 35.425 39.4844 38.225 43.5094 38.225C46.9344 38.225 49.2344 36.2 49.9844 33.65ZM72.7641 38H76.2641V29.875C76.2641 26.05 73.9141 23.95 70.5891 23.95C68.5641 23.95 66.7391 25.025 65.8391 26.6C64.8891 24.875 63.1141 23.95 60.9641 23.95C59.2391 23.95 57.7641 24.675 56.8891 25.825V24.15H53.3891V38H56.8891V30.35C56.8891 28.15 58.1141 27 60.0141 27C61.8641 27 63.0891 28.15 63.0891 30.35V38H66.5891V30.35C66.5891 28.15 67.8141 27 69.6891 27C71.5391 27 72.7641 28.15 72.7641 30.35V38ZM86.0354 26.8C87.8354 26.8 89.2854 27.95 89.3354 29.775H82.7604C83.0354 27.875 84.3604 26.8 86.0354 26.8ZM92.6104 33.65H88.8354C88.3854 34.575 87.5604 35.325 86.0604 35.325C84.3104 35.325 82.9104 34.175 82.7354 32.125H92.8604C92.9354 31.675 92.9604 31.225 92.9604 30.775C92.9604 26.65 90.1354 23.925 86.1354 23.925C82.0354 23.925 79.1854 26.7 79.1854 31.075C79.1854 35.425 82.1104 38.225 86.1354 38.225C89.5604 38.225 91.8604 36.2 92.6104 33.65ZM106.765 34.05C106.665 28.975 98.99 30.55 98.99 28.025C98.99 27.225 99.665 26.7 100.965 26.7C102.34 26.7 103.19 27.425 103.29 28.5H106.64C106.44 25.75 104.415 23.925 101.065 23.925C97.64 23.925 95.59 25.775 95.59 28.075C95.59 33.15 103.415 31.575 103.415 34.05C103.415 34.85 102.665 35.475 101.29 35.475C99.89 35.475 98.915 34.675 98.79 33.625H95.265C95.415 36.2 97.84 38.225 101.315 38.225C104.69 38.225 106.765 36.425 106.765 34.05ZM110.688 33.7C110.688 36.875 112.463 38 115.113 38H117.313V35.05H115.688C114.588 35.05 114.213 34.65 114.213 33.725V27.025H117.313V24.15H114.213V20.725H110.688V24.15H109.038V27.025H110.688V33.7ZM126.28 26.8C128.08 26.8 129.53 27.95 129.58 29.775H123.005C123.28 27.875 124.605 26.8 126.28 26.8ZM132.855 33.65H129.08C128.63 34.575 127.805 35.325 126.305 35.325C124.555 35.325 123.155 34.175 122.98 32.125H133.105C133.18 31.675 133.205 31.225 133.205 30.775C133.205 26.65 130.38 23.925 126.38 23.925C122.28 23.925 119.43 26.7 119.43 31.075C119.43 35.425 122.355 38.225 126.38 38.225C129.805 38.225 132.105 36.2 132.855 33.65ZM139.76 31.1C139.76 28.425 141.01 27.625 143.085 27.625H144.01V23.95C142.085 23.95 140.635 24.875 139.76 26.3V24.15H136.26V38H139.76V31.1ZM152.725 37.75H165.075V34.85H157.7C160.6 32.4 164.675 29.1 164.675 24.875C164.675 21.7 162.7 19.375 158.775 19.375C155.5 19.375 152.825 21.3 152.7 25.475H156.1C156.125 23.55 157.05 22.35 158.725 22.35C160.45 22.35 161.175 23.45 161.175 25.075C161.175 28.425 156.85 31.65 152.725 35.15V37.75Z" fill="white"/>
</svg>
