<svg width="617" height="401" viewBox="0 0 617 401" fill="none" xmlns="http://www.w3.org/2000/svg">
<rect width="617" height="58" fill="#3498DB"/>
<path d="M33.925 32.95C33.925 26.8 24.975 28.75 24.975 25.25C24.975 23.825 26 23.15 27.375 23.2C28.875 23.225 29.8 24.125 29.875 25.275H33.725C33.5 22.125 31.05 20.3 27.475 20.3C23.875 20.3 21.325 22.2 21.325 25.35C21.3 31.675 30.3 29.4 30.3 33.175C30.3 34.425 29.325 35.3 27.675 35.3C26.05 35.3 25.125 34.375 25.025 32.975H21.275C21.325 36.275 24.125 38.175 27.75 38.175C31.725 38.175 33.925 35.7 33.925 32.95ZM43.4094 26.8C45.2094 26.8 46.6594 27.95 46.7094 29.775H40.1344C40.4094 27.875 41.7344 26.8 43.4094 26.8ZM49.9844 33.65H46.2094C45.7594 34.575 44.9344 35.325 43.4344 35.325C41.6844 35.325 40.2844 34.175 40.1094 32.125H50.2344C50.3094 31.675 50.3344 31.225 50.3344 30.775C50.3344 26.65 47.5094 23.925 43.5094 23.925C39.4094 23.925 36.5594 26.7 36.5594 31.075C36.5594 35.425 39.4844 38.225 43.5094 38.225C46.9344 38.225 49.2344 36.2 49.9844 33.65ZM72.7641 38H76.2641V29.875C76.2641 26.05 73.9141 23.95 70.5891 23.95C68.5641 23.95 66.7391 25.025 65.8391 26.6C64.8891 24.875 63.1141 23.95 60.9641 23.95C59.2391 23.95 57.7641 24.675 56.8891 25.825V24.15H53.3891V38H56.8891V30.35C56.8891 28.15 58.1141 27 60.0141 27C61.8641 27 63.0891 28.15 63.0891 30.35V38H66.5891V30.35C66.5891 28.15 67.8141 27 69.6891 27C71.5391 27 72.7641 28.15 72.7641 30.35V38ZM86.0354 26.8C87.8354 26.8 89.2854 27.95 89.3354 29.775H82.7604C83.0354 27.875 84.3604 26.8 86.0354 26.8ZM92.6104 33.65H88.8354C88.3854 34.575 87.5604 35.325 86.0604 35.325C84.3104 35.325 82.9104 34.175 82.7354 32.125H92.8604C92.9354 31.675 92.9604 31.225 92.9604 30.775C92.9604 26.65 90.1354 23.925 86.1354 23.925C82.0354 23.925 79.1854 26.7 79.1854 31.075C79.1854 35.425 82.1104 38.225 86.1354 38.225C89.5604 38.225 91.8604 36.2 92.6104 33.65ZM106.765 34.05C106.665 28.975 98.99 30.55 98.99 28.025C98.99 27.225 99.665 26.7 100.965 26.7C102.34 26.7 103.19 27.425 103.29 28.5H106.64C106.44 25.75 104.415 23.925 101.065 23.925C97.64 23.925 95.59 25.775 95.59 28.075C95.59 33.15 103.415 31.575 103.415 34.05C103.415 34.85 102.665 35.475 101.29 35.475C99.89 35.475 98.915 34.675 98.79 33.625H95.265C95.415 36.2 97.84 38.225 101.315 38.225C104.69 38.225 106.765 36.425 106.765 34.05ZM110.688 33.7C110.688 36.875 112.463 38 115.113 38H117.313V35.05H115.688C114.588 35.05 114.213 34.65 114.213 33.725V27.025H117.313V24.15H114.213V20.725H110.688V24.15H109.038V27.025H110.688V33.7ZM126.28 26.8C128.08 26.8 129.53 27.95 129.58 29.775H123.005C123.28 27.875 124.605 26.8 126.28 26.8ZM132.855 33.65H129.08C128.63 34.575 127.805 35.325 126.305 35.325C124.555 35.325 123.155 34.175 122.98 32.125H133.105C133.18 31.675 133.205 31.225 133.205 30.775C133.205 26.65 130.38 23.925 126.38 23.925C122.28 23.925 119.43 26.7 119.43 31.075C119.43 35.425 122.355 38.225 126.38 38.225C129.805 38.225 132.105 36.2 132.855 33.65ZM139.76 31.1C139.76 28.425 141.01 27.625 143.085 27.625H144.01V23.95C142.085 23.95 140.635 24.875 139.76 26.3V24.15H136.26V38H139.76V31.1ZM154.925 38H158.525V19.775H152.5V23H154.925V38Z" fill="white"/>
<rect y="66" width="617" height="50" fill="white"/>
<path d="M24.6 94.44C26.08 94.44 27.24 93.3 27.24 91.84C27.24 90.36 26.08 89.22 24.6 89.22C23.16 89.22 22 90.36 22 91.84C22 93.3 23.16 94.44 24.6 94.44ZM40.3689 91.52C40.3689 95.7 43.5489 98.62 47.4689 98.62C50.3689 98.62 52.8689 97.18 53.9289 94.46H51.1889C50.4489 95.94 49.1289 96.64 47.4689 96.64C44.7089 96.64 42.7089 94.66 42.7089 91.52C42.7089 88.38 44.7089 86.42 47.4689 86.42C49.1289 86.42 50.4489 87.12 51.1889 88.6H53.9289C52.8689 85.88 50.3689 84.42 47.4689 84.42C43.5489 84.42 40.3689 87.36 40.3689 91.52ZM67.0977 92.98C67.0977 89.52 64.6177 87.3 61.4777 87.3C58.3377 87.3 55.8577 89.52 55.8577 92.98C55.8577 96.44 58.2377 98.68 61.3777 98.68C64.5377 98.68 67.0977 96.44 67.0977 92.98ZM58.1777 92.98C58.1777 90.48 59.7177 89.28 61.4377 89.28C63.1377 89.28 64.7577 90.48 64.7577 92.98C64.7577 95.48 63.0777 96.7 61.3777 96.7C59.6577 96.7 58.1777 95.48 58.1777 92.98ZM69.3516 98.5H71.6316V83.7H69.3516V98.5ZM85.125 92.98C85.125 89.52 82.645 87.3 79.505 87.3C76.365 87.3 73.885 89.52 73.885 92.98C73.885 96.44 76.265 98.68 79.405 98.68C82.565 98.68 85.125 96.44 85.125 92.98ZM76.205 92.98C76.205 90.48 77.745 89.28 79.465 89.28C81.165 89.28 82.785 90.48 82.785 92.98C82.785 95.48 81.105 96.7 79.405 96.7C77.685 96.7 76.205 95.48 76.205 92.98ZM97.3589 87.48H95.0789V93.62C95.0789 95.64 93.9789 96.68 92.2989 96.68C90.6389 96.68 89.5389 95.64 89.5389 93.62V87.48H87.2789V93.96C87.2789 97.04 89.2389 98.66 91.8189 98.66C93.1189 98.66 94.3589 98.12 95.0789 97.18V98.5H97.3589V87.48ZM102.647 92.7C102.647 90.36 103.687 89.66 105.367 89.66H105.947V87.3C104.387 87.3 103.287 87.98 102.647 89.08V87.48H100.367V98.5H102.647V92.7ZM122.618 94.56C122.618 89.48 115.258 91.44 115.258 88.3C115.258 86.96 116.278 86.32 117.598 86.36C119.038 86.4 119.858 87.26 119.938 88.2H122.458C122.258 85.82 120.378 84.42 117.718 84.42C114.878 84.42 112.938 85.94 112.938 88.38C112.938 93.5 120.318 91.32 120.318 94.68C120.318 95.86 119.418 96.72 117.818 96.72C116.238 96.72 115.438 95.8 115.338 94.66H112.898C112.898 97.12 115.038 98.64 117.818 98.64C120.918 98.64 122.618 96.64 122.618 94.56ZM125.669 95.44C125.669 97.68 126.889 98.5 128.849 98.5H130.649V96.6H129.249C128.289 96.6 127.969 96.26 127.969 95.44V89.34H130.649V87.48H127.969V84.74H125.669V87.48H124.369V89.34H125.669V95.44ZM142.73 87.48H140.45V93.62C140.45 95.64 139.35 96.68 137.67 96.68C136.01 96.68 134.91 95.64 134.91 93.62V87.48H132.65V93.96C132.65 97.04 134.61 98.66 137.19 98.66C138.49 98.66 139.73 98.12 140.45 97.18V98.5H142.73V87.48ZM144.978 92.94C144.978 96.34 147.278 98.68 150.178 98.68C151.978 98.68 153.298 97.84 153.998 96.84V98.5H156.298V83.7H153.998V89.02C153.158 87.98 151.638 87.3 150.198 87.3C147.278 87.3 144.978 89.54 144.978 92.94ZM153.998 92.98C153.998 95.36 152.378 96.7 150.658 96.7C148.958 96.7 147.318 95.32 147.318 92.94C147.318 90.56 148.958 89.28 150.658 89.28C152.378 89.28 153.998 90.62 153.998 92.98ZM159.293 98.5H161.573V87.48H159.293V98.5ZM160.453 86.02C161.253 86.02 161.893 85.38 161.893 84.56C161.893 83.74 161.253 83.1 160.453 83.1C159.633 83.1 158.993 83.74 158.993 84.56C158.993 85.38 159.633 86.02 160.453 86.02ZM169.206 89.22C170.906 89.22 172.246 90.3 172.286 92H166.186C166.426 90.26 167.666 89.22 169.206 89.22ZM174.366 95.22H171.906C171.486 96.08 170.706 96.76 169.306 96.76C167.626 96.76 166.326 95.66 166.166 93.84H174.586C174.646 93.46 174.666 93.1 174.666 92.72C174.666 89.48 172.446 87.3 169.306 87.3C166.046 87.3 163.806 89.52 163.806 92.98C163.806 96.44 166.146 98.68 169.306 98.68C172.006 98.68 173.746 97.14 174.366 95.22ZM185.13 95.42C185.01 91.44 178.79 92.68 178.79 90.46C178.79 89.72 179.43 89.22 180.65 89.22C181.89 89.22 182.63 89.88 182.71 90.84H184.99C184.87 88.64 183.23 87.3 180.73 87.3C178.13 87.3 176.49 88.72 176.49 90.48C176.49 94.52 182.89 93.28 182.89 95.44C182.89 96.2 182.19 96.76 180.87 96.76C179.61 96.76 178.75 96.02 178.67 95.12H176.31C176.41 97.12 178.27 98.68 180.91 98.68C183.51 98.68 185.13 97.28 185.13 95.42Z" fill="#212832"/>
<rect x="0.5" y="66.5" width="616" height="49" stroke="black" stroke-opacity="0.5"/>
<rect y="180" width="617" height="50" fill="white"/>
<path d="M24.6 208.44C26.08 208.44 27.24 207.3 27.24 205.84C27.24 204.36 26.08 203.22 24.6 203.22C23.16 203.22 22 204.36 22 205.84C22 207.3 23.16 208.44 24.6 208.44ZM45.6689 198.6H41.1289V212.5H45.6689C50.1289 212.5 53.0489 209.88 53.0489 205.6C53.0489 201.3 50.1289 198.6 45.6689 198.6ZM43.4089 210.64V200.46H45.6689C48.9489 200.46 50.7089 202.42 50.7089 205.6C50.7089 208.76 48.9489 210.64 45.6689 210.64H43.4089ZM57.5886 206.7C57.5886 204.36 58.6286 203.66 60.3086 203.66H60.8886V201.3C59.3286 201.3 58.2286 201.98 57.5886 203.08V201.48H55.3086V212.5H57.5886V206.7ZM62.2244 206.94C62.2244 210.34 64.5244 212.68 67.3844 212.68C69.2244 212.68 70.5444 211.8 71.2444 210.86V212.5H73.5444V201.48H71.2444V203.08C70.5644 202.18 69.2844 201.3 67.4244 201.3C64.5244 201.3 62.2244 203.54 62.2244 206.94ZM71.2444 206.98C71.2444 209.36 69.6244 210.7 67.9044 210.7C66.2044 210.7 64.5644 209.32 64.5644 206.94C64.5644 204.56 66.2044 203.28 67.9044 203.28C69.6244 203.28 71.2444 204.62 71.2444 206.98ZM78.6791 212.5H81.0791L83.2991 204.36L85.5191 212.5H87.9191L91.3391 201.48H89.0991L86.8191 210.3L84.5791 201.48H82.1991L79.8591 210.34L77.5591 201.48H75.2391L78.6791 212.5ZM93.043 212.5H95.323V201.48H93.043V212.5ZM94.203 200.02C95.003 200.02 95.643 199.38 95.643 198.56C95.643 197.74 95.003 197.1 94.203 197.1C93.383 197.1 92.743 197.74 92.743 198.56C92.743 199.38 93.383 200.02 94.203 200.02ZM106.136 212.5H108.396V206C108.396 202.92 106.456 201.3 103.876 201.3C102.556 201.3 101.336 201.84 100.596 202.74V201.48H98.3164V212.5H100.596V206.34C100.596 204.32 101.696 203.28 103.376 203.28C105.036 203.28 106.136 204.32 106.136 206.34V212.5ZM110.545 206.94C110.545 210.34 112.845 212.68 115.745 212.68C117.545 212.68 118.865 211.78 119.565 210.84V212.68C119.565 214.88 118.245 215.96 116.485 215.96C114.905 215.96 113.685 215.18 113.345 214.04H111.085C111.365 216.48 113.545 217.94 116.485 217.94C119.925 217.94 121.865 215.68 121.865 212.68V201.48H119.565V203.08C118.885 202.14 117.545 201.3 115.745 201.3C112.845 201.3 110.545 203.54 110.545 206.94ZM119.565 206.98C119.565 209.36 117.945 210.7 116.225 210.7C114.525 210.7 112.885 209.32 112.885 206.94C112.885 204.56 114.525 203.28 116.225 203.28C117.945 203.28 119.565 204.62 119.565 206.98ZM129.295 205.52C129.295 209.7 132.475 212.62 136.395 212.62C139.295 212.62 141.795 211.18 142.855 208.46H140.115C139.375 209.94 138.055 210.64 136.395 210.64C133.635 210.64 131.635 208.66 131.635 205.52C131.635 202.38 133.635 200.42 136.395 200.42C138.055 200.42 139.375 201.12 140.115 202.6H142.855C141.795 199.88 139.295 198.42 136.395 198.42C132.475 198.42 129.295 201.36 129.295 205.52ZM156.023 206.98C156.023 203.52 153.543 201.3 150.403 201.3C147.263 201.3 144.783 203.52 144.783 206.98C144.783 210.44 147.163 212.68 150.303 212.68C153.463 212.68 156.023 210.44 156.023 206.98ZM147.103 206.98C147.103 204.48 148.643 203.28 150.363 203.28C152.063 203.28 153.683 204.48 153.683 206.98C153.683 209.48 152.003 210.7 150.303 210.7C148.583 210.7 147.103 209.48 147.103 206.98ZM166.097 212.5H168.357V206C168.357 202.92 166.417 201.3 163.837 201.3C162.517 201.3 161.297 201.84 160.557 202.74V201.48H158.277V212.5H160.557V206.34C160.557 204.32 161.657 203.28 163.337 203.28C164.997 203.28 166.097 204.32 166.097 206.34V212.5ZM170.506 206.98C170.506 210.44 172.746 212.68 175.906 212.68C178.606 212.68 180.366 211.18 180.986 209.02H178.526C178.106 210.16 177.266 210.76 175.906 210.76C174.066 210.76 172.846 209.4 172.846 206.98C172.846 204.58 174.066 203.22 175.906 203.22C177.266 203.22 178.146 203.9 178.526 204.96H180.986C180.366 202.64 178.606 201.3 175.906 201.3C172.746 201.3 170.506 203.54 170.506 206.98ZM187.898 203.22C189.598 203.22 190.938 204.3 190.978 206H184.878C185.118 204.26 186.358 203.22 187.898 203.22ZM193.058 209.22H190.598C190.178 210.08 189.398 210.76 187.998 210.76C186.318 210.76 185.018 209.66 184.858 207.84H193.278C193.338 207.46 193.358 207.1 193.358 206.72C193.358 203.48 191.138 201.3 187.998 201.3C184.738 201.3 182.498 203.52 182.498 206.98C182.498 210.44 184.838 212.68 187.998 212.68C190.698 212.68 192.438 211.14 193.058 209.22ZM197.882 203.1V201.48H195.602V217.74H197.882V210.9C198.602 211.76 199.902 212.68 201.722 212.68C204.622 212.68 206.902 210.34 206.902 206.94C206.902 203.54 204.622 201.3 201.722 201.3C199.922 201.3 198.582 202.18 197.882 203.1ZM204.582 206.94C204.582 209.32 202.942 210.7 201.222 210.7C199.522 210.7 197.882 209.36 197.882 206.98C197.882 204.62 199.522 203.28 201.222 203.28C202.942 203.28 204.582 204.56 204.582 206.94ZM209.516 209.44C209.516 211.68 210.736 212.5 212.696 212.5H214.496V210.6H213.096C212.136 210.6 211.816 210.26 211.816 209.44V203.34H214.496V201.48H211.816V198.74H209.516V201.48H208.216V203.34H209.516V209.44ZM224.818 209.42C224.698 205.44 218.478 206.68 218.478 204.46C218.478 203.72 219.118 203.22 220.338 203.22C221.578 203.22 222.318 203.88 222.398 204.84H224.678C224.558 202.64 222.918 201.3 220.418 201.3C217.818 201.3 216.178 202.72 216.178 204.48C216.178 208.52 222.578 207.28 222.578 209.44C222.578 210.2 221.878 210.76 220.558 210.76C219.298 210.76 218.438 210.02 218.358 209.12H215.998C216.098 211.12 217.958 212.68 220.598 212.68C223.198 212.68 224.818 211.28 224.818 209.42Z" fill="#212832"/>
<rect x="0.5" y="180.5" width="616" height="49" stroke="black" stroke-opacity="0.5"/>
<rect y="123" width="617" height="50" fill="white"/>
<path d="M24.6 151.44C26.08 151.44 27.24 150.3 27.24 148.84C27.24 147.36 26.08 146.22 24.6 146.22C23.16 146.22 22 147.36 22 148.84C22 150.3 23.16 151.44 24.6 151.44ZM40.3689 148.52C40.3689 152.7 43.5489 155.62 47.4689 155.62C50.3689 155.62 52.8689 154.18 53.9289 151.46H51.1889C50.4489 152.94 49.1289 153.64 47.4689 153.64C44.7089 153.64 42.7089 151.66 42.7089 148.52C42.7089 145.38 44.7089 143.42 47.4689 143.42C49.1289 143.42 50.4489 144.12 51.1889 145.6H53.9289C52.8689 142.88 50.3689 141.42 47.4689 141.42C43.5489 141.42 40.3689 144.36 40.3689 148.52ZM56.5977 155.5H58.8777V149.34C58.8777 147.32 59.9777 146.28 61.6577 146.28C63.3177 146.28 64.4177 147.32 64.4177 149.34V155.5H66.6777V149C66.6777 145.92 64.7577 144.3 62.2977 144.3C60.8777 144.3 59.6377 144.84 58.8777 145.76V140.7H56.5977V155.5ZM68.8259 149.94C68.8259 153.34 71.1259 155.68 73.9859 155.68C75.8259 155.68 77.1459 154.8 77.8459 153.86V155.5H80.1459V144.48H77.8459V146.08C77.1659 145.18 75.8859 144.3 74.0259 144.3C71.1259 144.3 68.8259 146.54 68.8259 149.94ZM77.8459 149.98C77.8459 152.36 76.2259 153.7 74.5059 153.7C72.8059 153.7 71.1659 152.32 71.1659 149.94C71.1659 147.56 72.8059 146.28 74.5059 146.28C76.2259 146.28 77.8459 147.62 77.8459 149.98ZM85.4206 149.7C85.4206 147.36 86.4606 146.66 88.1406 146.66H88.7206V144.3C87.1606 144.3 86.0606 144.98 85.4206 146.08V144.48H83.1406V155.5H85.4206V149.7ZM90.0564 149.94C90.0564 153.34 92.3564 155.68 95.2164 155.68C97.0564 155.68 98.3764 154.8 99.0764 153.86V155.5H101.376V144.48H99.0764V146.08C98.3964 145.18 97.1164 144.3 95.2564 144.3C92.3564 144.3 90.0564 146.54 90.0564 149.94ZM99.0764 149.98C99.0764 152.36 97.4564 153.7 95.7364 153.7C94.0364 153.7 92.3964 152.32 92.3964 149.94C92.3964 147.56 94.0364 146.28 95.7364 146.28C97.4564 146.28 99.0764 147.62 99.0764 149.98ZM103.611 149.98C103.611 153.44 105.851 155.68 109.011 155.68C111.711 155.68 113.471 154.18 114.091 152.02H111.631C111.211 153.16 110.371 153.76 109.011 153.76C107.171 153.76 105.951 152.4 105.951 149.98C105.951 147.58 107.171 146.22 109.011 146.22C110.371 146.22 111.251 146.9 111.631 147.96H114.091C113.471 145.64 111.711 144.3 109.011 144.3C105.851 144.3 103.611 146.54 103.611 149.98ZM116.723 152.44C116.723 154.68 117.943 155.5 119.903 155.5H121.703V153.6H120.303C119.343 153.6 119.023 153.26 119.023 152.44V146.34H121.703V144.48H119.023V141.74H116.723V144.48H115.423V146.34H116.723V152.44ZM128.445 146.22C130.145 146.22 131.485 147.3 131.525 149H125.425C125.665 147.26 126.905 146.22 128.445 146.22ZM133.605 152.22H131.145C130.725 153.08 129.945 153.76 128.545 153.76C126.865 153.76 125.565 152.66 125.405 150.84H133.825C133.885 150.46 133.905 150.1 133.905 149.72C133.905 146.48 131.685 144.3 128.545 144.3C125.285 144.3 123.045 146.52 123.045 149.98C123.045 153.44 125.385 155.68 128.545 155.68C131.245 155.68 132.985 154.14 133.605 152.22ZM138.428 149.7C138.428 147.36 139.468 146.66 141.148 146.66H141.728V144.3C140.168 144.3 139.068 144.98 138.428 146.08V144.48H136.148V155.5H138.428V149.7ZM153.56 141.6H149.02V155.5H153.56C158.02 155.5 160.94 152.88 160.94 148.6C160.94 144.3 158.02 141.6 153.56 141.6ZM151.3 153.64V143.46H153.56C156.84 143.46 158.6 145.42 158.6 148.6C158.6 151.76 156.84 153.64 153.56 153.64H151.3ZM167.839 146.22C169.539 146.22 170.879 147.3 170.919 149H164.819C165.059 147.26 166.299 146.22 167.839 146.22ZM172.999 152.22H170.539C170.119 153.08 169.339 153.76 167.939 153.76C166.259 153.76 164.959 152.66 164.799 150.84H173.219C173.279 150.46 173.299 150.1 173.299 149.72C173.299 146.48 171.079 144.3 167.939 144.3C164.679 144.3 162.439 146.52 162.439 149.98C162.439 153.44 164.779 155.68 167.939 155.68C170.639 155.68 172.379 154.14 172.999 152.22ZM183.763 152.42C183.643 148.44 177.423 149.68 177.423 147.46C177.423 146.72 178.063 146.22 179.283 146.22C180.523 146.22 181.263 146.88 181.343 147.84H183.623C183.503 145.64 181.863 144.3 179.363 144.3C176.763 144.3 175.123 145.72 175.123 147.48C175.123 151.52 181.523 150.28 181.523 152.44C181.523 153.2 180.823 153.76 179.503 153.76C178.243 153.76 177.383 153.02 177.303 152.12H174.943C175.043 154.12 176.903 155.68 179.543 155.68C182.143 155.68 183.763 154.28 183.763 152.42ZM186.227 155.5H188.507V144.48H186.227V155.5ZM187.387 143.02C188.187 143.02 188.827 142.38 188.827 141.56C188.827 140.74 188.187 140.1 187.387 140.1C186.567 140.1 185.927 140.74 185.927 141.56C185.927 142.38 186.567 143.02 187.387 143.02ZM190.74 149.94C190.74 153.34 193.04 155.68 195.94 155.68C197.74 155.68 199.06 154.78 199.76 153.84V155.68C199.76 157.88 198.44 158.96 196.68 158.96C195.1 158.96 193.88 158.18 193.54 157.04H191.28C191.56 159.48 193.74 160.94 196.68 160.94C200.12 160.94 202.06 158.68 202.06 155.68V144.48H199.76V146.08C199.08 145.14 197.74 144.3 195.94 144.3C193.04 144.3 190.74 146.54 190.74 149.94ZM199.76 149.98C199.76 152.36 198.14 153.7 196.42 153.7C194.72 153.7 193.08 152.32 193.08 149.94C193.08 147.56 194.72 146.28 196.42 146.28C198.14 146.28 199.76 147.62 199.76 149.98ZM212.875 155.5H215.135V149C215.135 145.92 213.195 144.3 210.615 144.3C209.295 144.3 208.075 144.84 207.335 145.74V144.48H205.055V155.5H207.335V149.34C207.335 147.32 208.435 146.28 210.115 146.28C211.775 146.28 212.875 147.32 212.875 149.34V155.5ZM223.238 155.5H225.518V141.6H223.238V155.5Z" fill="#212832"/>
<rect x="0.5" y="123.5" width="616" height="49" stroke="black" stroke-opacity="0.5"/>
<rect y="237" width="617" height="50" fill="white"/>
<path d="M24.6 265.44C26.08 265.44 27.24 264.3 27.24 262.84C27.24 261.36 26.08 260.22 24.6 260.22C23.16 260.22 22 261.36 22 262.84C22 264.3 23.16 265.44 24.6 265.44ZM45.6689 255.6H41.1289V269.5H45.6689C50.1289 269.5 53.0489 266.88 53.0489 262.6C53.0489 258.3 50.1289 255.6 45.6689 255.6ZM43.4089 267.64V257.46H45.6689C48.9489 257.46 50.7089 259.42 50.7089 262.6C50.7089 265.76 48.9489 267.64 45.6689 267.64H43.4089ZM55.3086 269.5H57.5886V258.48H55.3086V269.5ZM56.4686 257.02C57.2686 257.02 57.9086 256.38 57.9086 255.56C57.9086 254.74 57.2686 254.1 56.4686 254.1C55.6486 254.1 55.0086 254.74 55.0086 255.56C55.0086 256.38 55.6486 257.02 56.4686 257.02ZM59.822 263.94C59.822 267.34 62.122 269.68 65.022 269.68C66.822 269.68 68.142 268.78 68.842 267.84V269.68C68.842 271.88 67.522 272.96 65.762 272.96C64.182 272.96 62.962 272.18 62.622 271.04H60.362C60.642 273.48 62.822 274.94 65.762 274.94C69.202 274.94 71.142 272.68 71.142 269.68V258.48H68.842V260.08C68.162 259.14 66.822 258.3 65.022 258.3C62.122 258.3 59.822 260.54 59.822 263.94ZM68.842 263.98C68.842 266.36 67.222 267.7 65.502 267.7C63.802 267.7 62.162 266.32 62.162 263.94C62.162 261.56 63.802 260.28 65.502 260.28C67.222 260.28 68.842 261.62 68.842 263.98ZM74.1367 269.5H76.4167V258.48H74.1367V269.5ZM75.2967 257.02C76.0967 257.02 76.7367 256.38 76.7367 255.56C76.7367 254.74 76.0967 254.1 75.2967 254.1C74.4767 254.1 73.8367 254.74 73.8367 255.56C73.8367 256.38 74.4767 257.02 75.2967 257.02ZM79.7702 266.44C79.7702 268.68 80.9902 269.5 82.9502 269.5H84.7502V267.6H83.3502C82.3902 267.6 82.0702 267.26 82.0702 266.44V260.34H84.7502V258.48H82.0702V255.74H79.7702V258.48H78.4702V260.34H79.7702V266.44ZM86.0916 263.94C86.0916 267.34 88.3916 269.68 91.2516 269.68C93.0916 269.68 94.4116 268.8 95.1116 267.86V269.5H97.4116V258.48H95.1116V260.08C94.4316 259.18 93.1516 258.3 91.2916 258.3C88.3916 258.3 86.0916 260.54 86.0916 263.94ZM95.1116 263.98C95.1116 266.36 93.4916 267.7 91.7716 267.7C90.0716 267.7 88.4316 266.32 88.4316 263.94C88.4316 261.56 90.0716 260.28 91.7716 260.28C93.4916 260.28 95.1116 261.62 95.1116 263.98ZM100.406 269.5H102.686V254.7H100.406V269.5ZM110.875 269.5H113.155V259.98L117.415 269.5H118.995L123.235 259.98V269.5H125.515V255.6H123.075L118.215 266.5L113.335 255.6H110.875V269.5ZM133.152 260.22C134.852 260.22 136.192 261.3 136.232 263H130.132C130.372 261.26 131.612 260.22 133.152 260.22ZM138.312 266.22H135.852C135.432 267.08 134.652 267.76 133.252 267.76C131.572 267.76 130.272 266.66 130.112 264.84H138.532C138.592 264.46 138.612 264.1 138.612 263.72C138.612 260.48 136.392 258.3 133.252 258.3C129.992 258.3 127.752 260.52 127.752 263.98C127.752 267.44 130.092 269.68 133.252 269.68C135.952 269.68 137.692 268.14 138.312 266.22ZM141.215 266.44C141.215 268.68 142.435 269.5 144.395 269.5H146.195V267.6H144.795C143.835 267.6 143.515 267.26 143.515 266.44V260.34H146.195V258.48H143.515V255.74H141.215V258.48H139.915V260.34H141.215V266.44ZM148.297 269.5H150.577V263.34C150.577 261.32 151.677 260.28 153.357 260.28C155.017 260.28 156.117 261.32 156.117 263.34V269.5H158.377V263C158.377 259.92 156.457 258.3 153.997 258.3C152.577 258.3 151.337 258.84 150.577 259.76V254.7H148.297V269.5ZM171.785 263.98C171.785 260.52 169.305 258.3 166.165 258.3C163.025 258.3 160.545 260.52 160.545 263.98C160.545 267.44 162.925 269.68 166.065 269.68C169.225 269.68 171.785 267.44 171.785 263.98ZM162.865 263.98C162.865 261.48 164.405 260.28 166.125 260.28C167.825 260.28 169.445 261.48 169.445 263.98C169.445 266.48 167.765 267.7 166.065 267.7C164.345 267.7 162.865 266.48 162.865 263.98ZM173.279 263.94C173.279 267.34 175.579 269.68 178.479 269.68C180.279 269.68 181.599 268.84 182.299 267.84V269.5H184.599V254.7H182.299V260.02C181.459 258.98 179.939 258.3 178.499 258.3C175.579 258.3 173.279 260.54 173.279 263.94ZM182.299 263.98C182.299 266.36 180.679 267.7 178.959 267.7C177.259 267.7 175.619 266.32 175.619 263.94C175.619 261.56 177.259 260.28 178.959 260.28C180.679 260.28 182.299 261.62 182.299 263.98ZM198.094 263.98C198.094 260.52 195.614 258.3 192.474 258.3C189.334 258.3 186.854 260.52 186.854 263.98C186.854 267.44 189.234 269.68 192.374 269.68C195.534 269.68 198.094 267.44 198.094 263.98ZM189.174 263.98C189.174 261.48 190.714 260.28 192.434 260.28C194.134 260.28 195.754 261.48 195.754 263.98C195.754 266.48 194.074 267.7 192.374 267.7C190.654 267.7 189.174 266.48 189.174 263.98ZM200.348 269.5H202.628V254.7H200.348V269.5ZM216.121 263.98C216.121 260.52 213.641 258.3 210.501 258.3C207.361 258.3 204.881 260.52 204.881 263.98C204.881 267.44 207.261 269.68 210.401 269.68C213.561 269.68 216.121 267.44 216.121 263.98ZM207.201 263.98C207.201 261.48 208.741 260.28 210.461 260.28C212.161 260.28 213.781 261.48 213.781 263.98C213.781 266.48 212.101 267.7 210.401 267.7C208.681 267.7 207.201 266.48 207.201 263.98ZM217.615 263.94C217.615 267.34 219.915 269.68 222.815 269.68C224.615 269.68 225.935 268.78 226.635 267.84V269.68C226.635 271.88 225.315 272.96 223.555 272.96C221.975 272.96 220.755 272.18 220.415 271.04H218.155C218.435 273.48 220.615 274.94 223.555 274.94C226.995 274.94 228.935 272.68 228.935 269.68V258.48H226.635V260.08C225.955 259.14 224.615 258.3 222.815 258.3C219.915 258.3 217.615 260.54 217.615 263.94ZM226.635 263.98C226.635 266.36 225.015 267.7 223.295 267.7C221.595 267.7 219.955 266.32 219.955 263.94C219.955 261.56 221.595 260.28 223.295 260.28C225.015 260.28 226.635 261.62 226.635 263.98ZM231.93 269.5H234.21V258.48H231.93V269.5ZM233.09 257.02C233.89 257.02 234.53 256.38 234.53 255.56C234.53 254.74 233.89 254.1 233.09 254.1C232.27 254.1 231.63 254.74 231.63 255.56C231.63 256.38 232.27 257.02 233.09 257.02ZM241.843 260.22C243.543 260.22 244.883 261.3 244.923 263H238.823C239.063 261.26 240.303 260.22 241.843 260.22ZM247.003 266.22H244.543C244.123 267.08 243.343 267.76 241.943 267.76C240.263 267.76 238.963 266.66 238.803 264.84H247.223C247.283 264.46 247.303 264.1 247.303 263.72C247.303 260.48 245.083 258.3 241.943 258.3C238.683 258.3 236.443 260.52 236.443 263.98C236.443 267.44 238.783 269.68 241.943 269.68C244.643 269.68 246.383 268.14 247.003 266.22ZM257.767 266.42C257.647 262.44 251.427 263.68 251.427 261.46C251.427 260.72 252.067 260.22 253.287 260.22C254.527 260.22 255.267 260.88 255.347 261.84H257.627C257.507 259.64 255.867 258.3 253.367 258.3C250.767 258.3 249.127 259.72 249.127 261.48C249.127 265.52 255.527 264.28 255.527 266.44C255.527 267.2 254.827 267.76 253.507 267.76C252.247 267.76 251.387 267.02 251.307 266.12H248.947C249.047 268.12 250.907 269.68 253.547 269.68C256.147 269.68 257.767 268.28 257.767 266.42ZM262.59 268.18C262.59 267.36 261.95 266.72 261.15 266.72C260.33 266.72 259.69 267.36 259.69 268.18C259.69 269 260.33 269.64 261.15 269.64C261.95 269.64 262.59 269 262.59 268.18ZM262.59 259.78C262.59 258.96 261.95 258.32 261.15 258.32C260.33 258.32 259.69 258.96 259.69 259.78C259.69 260.6 260.33 261.24 261.15 261.24C261.95 261.24 262.59 260.6 262.59 259.78ZM279.708 265.56C279.708 260.48 272.348 262.44 272.348 259.3C272.348 257.96 273.368 257.32 274.688 257.36C276.128 257.4 276.948 258.26 277.028 259.2H279.548C279.348 256.82 277.468 255.42 274.808 255.42C271.968 255.42 270.028 256.94 270.028 259.38C270.028 264.5 277.408 262.32 277.408 265.68C277.408 266.86 276.508 267.72 274.908 267.72C273.328 267.72 272.528 266.8 272.428 265.66H269.988C269.988 268.12 272.128 269.64 274.908 269.64C278.008 269.64 279.708 267.64 279.708 265.56ZM292.898 263.98C292.898 260.52 290.418 258.3 287.278 258.3C284.138 258.3 281.658 260.52 281.658 263.98C281.658 267.44 284.038 269.68 287.178 269.68C290.338 269.68 292.898 267.44 292.898 263.98ZM283.978 263.98C283.978 261.48 285.518 260.28 287.238 260.28C288.938 260.28 290.558 261.48 290.558 263.98C290.558 266.48 288.878 267.7 287.178 267.7C285.458 267.7 283.978 266.48 283.978 263.98ZM305.132 258.48H302.852V264.62C302.852 266.64 301.752 267.68 300.072 267.68C298.412 267.68 297.312 266.64 297.312 264.62V258.48H295.052V264.96C295.052 268.04 297.012 269.66 299.592 269.66C300.892 269.66 302.132 269.12 302.852 268.18V269.5H305.132V258.48ZM315.961 269.5H318.221V263C318.221 259.92 316.281 258.3 313.701 258.3C312.381 258.3 311.161 258.84 310.421 259.74V258.48H308.141V269.5H310.421V263.34C310.421 261.32 311.521 260.28 313.201 260.28C314.861 260.28 315.961 261.32 315.961 263.34V269.5ZM320.369 263.94C320.369 267.34 322.669 269.68 325.569 269.68C327.369 269.68 328.689 268.84 329.389 267.84V269.5H331.689V254.7H329.389V260.02C328.549 258.98 327.029 258.3 325.589 258.3C322.669 258.3 320.369 260.54 320.369 263.94ZM329.389 263.98C329.389 266.36 327.769 267.7 326.049 267.7C324.349 267.7 322.709 266.32 322.709 263.94C322.709 261.56 324.349 260.28 326.049 260.28C327.769 260.28 329.389 261.62 329.389 263.98ZM348.719 258.7C348.859 256.8 347.559 255.28 345.139 255.28C342.759 255.28 341.279 256.66 341.279 258.48C341.279 259.46 341.559 260.2 342.339 261.14C340.139 262.04 339.079 263.62 339.079 265.5C339.079 268.1 341.079 269.76 344.079 269.76C346.019 269.76 347.559 269.12 348.899 267.78L350.619 269.5H353.599L350.219 266.14C350.379 265.88 350.559 265.6 350.719 265.32L352.519 262.24H350.059L348.639 264.58L344.959 260.92C343.979 259.86 343.559 259.24 343.559 258.48C343.559 257.74 344.139 257.14 345.039 257.14C345.899 257.14 346.479 257.68 346.439 258.7H348.719ZM344.079 267.82C342.439 267.82 341.359 266.76 341.359 265.42C341.359 264.18 342.099 263.22 343.719 262.58L347.399 266.28C346.439 267.3 345.379 267.82 344.079 267.82ZM369.669 269.5H372.069L367.089 255.58H364.449L359.469 269.5H361.849L362.849 266.66H368.669L369.669 269.5ZM368.029 264.8H363.489L365.769 258.34L368.029 264.8ZM384.214 258.48H381.934V264.62C381.934 266.64 380.834 267.68 379.154 267.68C377.494 267.68 376.394 266.64 376.394 264.62V258.48H374.134V264.96C374.134 268.04 376.094 269.66 378.674 269.66C379.974 269.66 381.214 269.12 381.934 268.18V269.5H384.214V258.48ZM386.463 263.94C386.463 267.34 388.763 269.68 391.663 269.68C393.463 269.68 394.783 268.84 395.483 267.84V269.5H397.783V254.7H395.483V260.02C394.643 258.98 393.123 258.3 391.683 258.3C388.763 258.3 386.463 260.54 386.463 263.94ZM395.483 263.98C395.483 266.36 393.863 267.7 392.143 267.7C390.443 267.7 388.803 266.32 388.803 263.94C388.803 261.56 390.443 260.28 392.143 260.28C393.863 260.28 395.483 261.62 395.483 263.98ZM400.777 269.5H403.057V258.48H400.777V269.5ZM401.937 257.02C402.737 257.02 403.377 256.38 403.377 255.56C403.377 254.74 402.737 254.1 401.937 254.1C401.117 254.1 400.477 254.74 400.477 255.56C400.477 256.38 401.117 257.02 401.937 257.02ZM416.551 263.98C416.551 260.52 414.071 258.3 410.931 258.3C407.791 258.3 405.311 260.52 405.311 263.98C405.311 267.44 407.691 269.68 410.831 269.68C413.991 269.68 416.551 267.44 416.551 263.98ZM407.631 263.98C407.631 261.48 409.171 260.28 410.891 260.28C412.591 260.28 414.211 261.48 414.211 263.98C414.211 266.48 412.531 267.7 410.831 267.7C409.111 267.7 407.631 266.48 407.631 263.98Z" fill="#212832"/>
<rect x="0.5" y="237.5" width="616" height="49" stroke="black" stroke-opacity="0.5"/>
<rect y="294" width="617" height="50" fill="white"/>
<path d="M24.6 322.44C26.08 322.44 27.24 321.3 27.24 319.84C27.24 318.36 26.08 317.22 24.6 317.22C23.16 317.22 22 318.36 22 319.84C22 321.3 23.16 322.44 24.6 322.44ZM49.9489 326.5H52.2289V312.6H49.9489V318.56H43.4089V312.6H41.1289V326.5H43.4089V320.42H49.9489V326.5ZM55.2305 326.5H57.5105V315.48H55.2305V326.5ZM56.3905 314.02C57.1905 314.02 57.8305 313.38 57.8305 312.56C57.8305 311.74 57.1905 311.1 56.3905 311.1C55.5705 311.1 54.9305 311.74 54.9305 312.56C54.9305 313.38 55.5705 314.02 56.3905 314.02ZM68.7239 323.42C68.6039 319.44 62.3839 320.68 62.3839 318.46C62.3839 317.72 63.0239 317.22 64.2439 317.22C65.4839 317.22 66.2239 317.88 66.3039 318.84H68.5839C68.4639 316.64 66.8239 315.3 64.3239 315.3C61.7239 315.3 60.0839 316.72 60.0839 318.48C60.0839 322.52 66.4839 321.28 66.4839 323.44C66.4839 324.2 65.7839 324.76 64.4639 324.76C63.2039 324.76 62.3439 324.02 62.2639 323.12H59.9039C60.0039 325.12 61.8639 326.68 64.5039 326.68C67.1039 326.68 68.7239 325.28 68.7239 323.42ZM71.5475 323.44C71.5475 325.68 72.7675 326.5 74.7275 326.5H76.5275V324.6H75.1275C74.1675 324.6 73.8475 324.26 73.8475 323.44V317.34H76.5275V315.48H73.8475V312.74H71.5475V315.48H70.2475V317.34H71.5475V323.44ZM89.1289 320.98C89.1289 317.52 86.6489 315.3 83.5089 315.3C80.3689 315.3 77.8889 317.52 77.8889 320.98C77.8889 324.44 80.2689 326.68 83.4089 326.68C86.5689 326.68 89.1289 324.44 89.1289 320.98ZM80.2089 320.98C80.2089 318.48 81.7489 317.28 83.4689 317.28C85.1689 317.28 86.7889 318.48 86.7889 320.98C86.7889 323.48 85.1089 324.7 83.4089 324.7C81.6889 324.7 80.2089 323.48 80.2089 320.98ZM93.6628 320.7C93.6628 318.36 94.7028 317.66 96.3828 317.66H96.9628V315.3C95.4028 315.3 94.3028 315.98 93.6628 317.08V315.48H91.3828V326.5H93.6628V320.7ZM103.399 323.88L100.299 315.48H97.7586L102.099 326.32L99.8586 331.68H102.219L108.979 315.48H106.619L103.399 323.88ZM126.395 320.98C126.395 317.52 123.915 315.3 120.775 315.3C117.635 315.3 115.155 317.52 115.155 320.98C115.155 324.44 117.535 326.68 120.675 326.68C123.835 326.68 126.395 324.44 126.395 320.98ZM117.475 320.98C117.475 318.48 119.015 317.28 120.735 317.28C122.435 317.28 124.055 318.48 124.055 320.98C124.055 323.48 122.375 324.7 120.675 324.7C118.955 324.7 117.475 323.48 117.475 320.98ZM128.928 326.5H131.228V317.34H133.268V315.48H131.228V314.7C131.228 313.44 131.708 312.96 133.108 312.96V311.06C130.228 311.06 128.928 312.16 128.928 314.7V315.48H127.628V317.34H128.928V326.5ZM149.864 326.5H152.264L147.284 312.58H144.644L139.664 326.5H142.044L143.044 323.66H148.864L149.864 326.5ZM148.224 321.8H143.684L145.964 315.34L148.224 321.8ZM162.25 326.5H164.51V320C164.51 316.92 162.57 315.3 159.99 315.3C158.67 315.3 157.45 315.84 156.71 316.74V315.48H154.43V326.5H156.71V320.34C156.71 318.32 157.81 317.28 159.49 317.28C161.15 317.28 162.25 318.32 162.25 320.34V326.5ZM167.418 326.5H169.698V315.48H167.418V326.5ZM168.578 314.02C169.378 314.02 170.018 313.38 170.018 312.56C170.018 311.74 169.378 311.1 168.578 311.1C167.758 311.1 167.118 311.74 167.118 312.56C167.118 313.38 167.758 314.02 168.578 314.02ZM188.311 326.5H190.571V320C190.571 316.92 188.611 315.3 186.031 315.3C184.431 315.3 182.871 316.14 182.191 317.48C181.431 316.04 179.971 315.3 178.231 315.3C176.911 315.3 175.711 315.84 174.971 316.74V315.48H172.691V326.5H174.971V320.34C174.971 318.32 176.071 317.28 177.751 317.28C179.411 317.28 180.511 318.32 180.511 320.34V326.5H182.771V320.34C182.771 318.32 183.871 317.28 185.551 317.28C187.211 317.28 188.311 318.32 188.311 320.34V326.5ZM192.713 320.94C192.713 324.34 195.013 326.68 197.873 326.68C199.713 326.68 201.033 325.8 201.733 324.86V326.5H204.033V315.48H201.733V317.08C201.053 316.18 199.773 315.3 197.913 315.3C195.013 315.3 192.713 317.54 192.713 320.94ZM201.733 320.98C201.733 323.36 200.113 324.7 198.393 324.7C196.693 324.7 195.053 323.32 195.053 320.94C195.053 318.56 196.693 317.28 198.393 317.28C200.113 317.28 201.733 318.62 201.733 320.98ZM207.387 323.44C207.387 325.68 208.607 326.5 210.567 326.5H212.367V324.6H210.967C210.007 324.6 209.687 324.26 209.687 323.44V317.34H212.367V315.48H209.687V312.74H207.387V315.48H206.087V317.34H207.387V323.44ZM214.469 326.5H216.749V315.48H214.469V326.5ZM215.629 314.02C216.429 314.02 217.069 313.38 217.069 312.56C217.069 311.74 216.429 311.1 215.629 311.1C214.809 311.1 214.169 311.74 214.169 312.56C214.169 313.38 214.809 314.02 215.629 314.02ZM230.242 320.98C230.242 317.52 227.762 315.3 224.622 315.3C221.482 315.3 219.002 317.52 219.002 320.98C219.002 324.44 221.382 326.68 224.522 326.68C227.682 326.68 230.242 324.44 230.242 320.98ZM221.322 320.98C221.322 318.48 222.862 317.28 224.582 317.28C226.282 317.28 227.902 318.48 227.902 320.98C227.902 323.48 226.222 324.7 224.522 324.7C222.802 324.7 221.322 323.48 221.322 320.98ZM240.316 326.5H242.576V320C242.576 316.92 240.636 315.3 238.056 315.3C236.736 315.3 235.516 315.84 234.776 316.74V315.48H232.496V326.5H234.776V320.34C234.776 318.32 235.876 317.28 237.556 317.28C239.216 317.28 240.316 318.32 240.316 320.34V326.5Z" fill="#212832"/>
<rect x="0.5" y="294.5" width="616" height="49" stroke="black" stroke-opacity="0.5"/>
<rect y="351" width="617" height="50" fill="white"/>
<path d="M24.6 379.44C26.08 379.44 27.24 378.3 27.24 376.84C27.24 375.36 26.08 374.22 24.6 374.22C23.16 374.22 22 375.36 22 376.84C22 378.3 23.16 379.44 24.6 379.44ZM41.1289 383.5H43.4089V369.6H41.1289V383.5ZM54.2223 383.5H56.4823V377C56.4823 373.92 54.5423 372.3 51.9623 372.3C50.6423 372.3 49.4223 372.84 48.6823 373.74V372.48H46.4023V383.5H48.6823V377.34C48.6823 375.32 49.7823 374.28 51.4623 374.28C53.1223 374.28 54.2223 375.32 54.2223 377.34V383.5ZM59.7506 380.44C59.7506 382.68 60.9706 383.5 62.9306 383.5H64.7306V381.6H63.3306C62.3706 381.6 62.0506 381.26 62.0506 380.44V374.34H64.7306V372.48H62.0506V369.74H59.7506V372.48H58.4506V374.34H59.7506V380.44ZM69.112 377.7C69.112 375.36 70.152 374.66 71.832 374.66H72.412V372.3C70.852 372.3 69.752 372.98 69.112 374.08V372.48H66.832V383.5H69.112V377.7ZM85.0078 377.98C85.0078 374.52 82.5278 372.3 79.3878 372.3C76.2478 372.3 73.7678 374.52 73.7678 377.98C73.7678 381.44 76.1478 383.68 79.2878 383.68C82.4478 383.68 85.0078 381.44 85.0078 377.98ZM76.0878 377.98C76.0878 375.48 77.6278 374.28 79.3478 374.28C81.0478 374.28 82.6678 375.48 82.6678 377.98C82.6678 380.48 80.9878 381.7 79.2878 381.7C77.5678 381.7 76.0878 380.48 76.0878 377.98ZM86.5017 377.94C86.5017 381.34 88.8017 383.68 91.7017 383.68C93.5017 383.68 94.8217 382.84 95.5217 381.84V383.5H97.8217V368.7H95.5217V374.02C94.6817 372.98 93.1617 372.3 91.7217 372.3C88.8017 372.3 86.5017 374.54 86.5017 377.94ZM95.5217 377.98C95.5217 380.36 93.9017 381.7 92.1817 381.7C90.4817 381.7 88.8417 380.32 88.8417 377.94C88.8417 375.56 90.4817 374.28 92.1817 374.28C93.9017 374.28 95.5217 375.62 95.5217 377.98ZM110.796 372.48H108.516V378.62C108.516 380.64 107.416 381.68 105.736 381.68C104.076 381.68 102.976 380.64 102.976 378.62V372.48H100.716V378.96C100.716 382.04 102.676 383.66 105.256 383.66C106.556 383.66 107.796 383.12 108.516 382.18V383.5H110.796V372.48ZM113.045 377.98C113.045 381.44 115.285 383.68 118.445 383.68C121.145 383.68 122.905 382.18 123.525 380.02H121.065C120.645 381.16 119.805 381.76 118.445 381.76C116.605 381.76 115.385 380.4 115.385 377.98C115.385 375.58 116.605 374.22 118.445 374.22C119.805 374.22 120.685 374.9 121.065 375.96H123.525C122.905 373.64 121.145 372.3 118.445 372.3C115.285 372.3 113.045 374.54 113.045 377.98ZM126.157 380.44C126.157 382.68 127.377 383.5 129.337 383.5H131.137V381.6H129.737C128.777 381.6 128.457 381.26 128.457 380.44V374.34H131.137V372.48H128.457V369.74H126.157V372.48H124.857V374.34H126.157V380.44ZM133.238 383.5H135.518V372.48H133.238V383.5ZM134.398 371.02C135.198 371.02 135.838 370.38 135.838 369.56C135.838 368.74 135.198 368.1 134.398 368.1C133.578 368.1 132.938 368.74 132.938 369.56C132.938 370.38 133.578 371.02 134.398 371.02ZM149.012 377.98C149.012 374.52 146.532 372.3 143.392 372.3C140.252 372.3 137.772 374.52 137.772 377.98C137.772 381.44 140.152 383.68 143.292 383.68C146.452 383.68 149.012 381.44 149.012 377.98ZM140.092 377.98C140.092 375.48 141.632 374.28 143.352 374.28C145.052 374.28 146.672 375.48 146.672 377.98C146.672 380.48 144.992 381.7 143.292 381.7C141.572 381.7 140.092 380.48 140.092 377.98ZM159.086 383.5H161.346V377C161.346 373.92 159.406 372.3 156.826 372.3C155.506 372.3 154.286 372.84 153.546 373.74V372.48H151.266V383.5H153.546V377.34C153.546 375.32 154.646 374.28 156.326 374.28C157.986 374.28 159.086 375.32 159.086 377.34V383.5ZM169.809 380.44C169.809 382.68 171.029 383.5 172.989 383.5H174.789V381.6H173.389C172.429 381.6 172.109 381.26 172.109 380.44V374.34H174.789V372.48H172.109V369.74H169.809V372.48H168.509V374.34H169.809V380.44ZM187.391 377.98C187.391 374.52 184.911 372.3 181.771 372.3C178.631 372.3 176.151 374.52 176.151 377.98C176.151 381.44 178.531 383.68 181.671 383.68C184.831 383.68 187.391 381.44 187.391 377.98ZM178.471 377.98C178.471 375.48 180.011 374.28 181.731 374.28C183.431 374.28 185.051 375.48 185.051 377.98C185.051 380.48 183.371 381.7 181.671 381.7C179.951 381.7 178.471 380.48 178.471 377.98ZM194.36 383.3H204.08V381.4H197.74C200.08 379.26 203.68 376.56 203.68 373.02C203.68 370.4 202 368.62 199.04 368.62C196.46 368.62 194.42 370.16 194.34 373.32H196.54C196.6 371.68 197.46 370.56 199.06 370.56C200.76 370.56 201.42 371.6 201.42 373.12C201.42 375.98 197.8 378.62 194.36 381.64V383.3ZM210.923 369.6H206.383V383.5H210.923C215.383 383.5 218.303 380.88 218.303 376.6C218.303 372.3 215.383 369.6 210.923 369.6ZM208.663 381.64V371.46H210.923C214.203 371.46 215.963 373.42 215.963 376.6C215.963 379.76 214.203 381.64 210.923 381.64H208.663ZM235.138 383.5H237.538L232.558 369.58H229.918L224.938 383.5H227.318L228.318 380.66H234.138L235.138 383.5ZM233.498 378.8H228.958L231.238 372.34L233.498 378.8ZM247.523 383.5H249.783V377C249.783 373.92 247.843 372.3 245.263 372.3C243.943 372.3 242.723 372.84 241.983 373.74V372.48H239.703V383.5H241.983V377.34C241.983 375.32 243.083 374.28 244.763 374.28C246.423 374.28 247.523 375.32 247.523 377.34V383.5ZM252.691 383.5H254.971V372.48H252.691V383.5ZM253.851 371.02C254.651 371.02 255.291 370.38 255.291 369.56C255.291 368.74 254.651 368.1 253.851 368.1C253.031 368.1 252.391 368.74 252.391 369.56C252.391 370.38 253.031 371.02 253.851 371.02ZM273.585 383.5H275.845V377C275.845 373.92 273.885 372.3 271.305 372.3C269.705 372.3 268.145 373.14 267.465 374.48C266.705 373.04 265.245 372.3 263.505 372.3C262.185 372.3 260.985 372.84 260.245 373.74V372.48H257.965V383.5H260.245V377.34C260.245 375.32 261.345 374.28 263.025 374.28C264.685 374.28 265.785 375.32 265.785 377.34V383.5H268.045V377.34C268.045 375.32 269.145 374.28 270.825 374.28C272.485 374.28 273.585 375.32 273.585 377.34V383.5ZM277.986 377.94C277.986 381.34 280.286 383.68 283.146 383.68C284.986 383.68 286.306 382.8 287.006 381.86V383.5H289.306V372.48H287.006V374.08C286.326 373.18 285.046 372.3 283.186 372.3C280.286 372.3 277.986 374.54 277.986 377.94ZM287.006 377.98C287.006 380.36 285.386 381.7 283.666 381.7C281.966 381.7 280.326 380.32 280.326 377.94C280.326 375.56 281.966 374.28 283.666 374.28C285.386 374.28 287.006 375.62 287.006 377.98ZM292.661 380.44C292.661 382.68 293.881 383.5 295.841 383.5H297.641V381.6H296.241C295.281 381.6 294.961 381.26 294.961 380.44V374.34H297.641V372.48H294.961V369.74H292.661V372.48H291.361V374.34H292.661V380.44ZM299.742 383.5H302.022V372.48H299.742V383.5ZM300.902 371.02C301.702 371.02 302.342 370.38 302.342 369.56C302.342 368.74 301.702 368.1 300.902 368.1C300.082 368.1 299.442 368.74 299.442 369.56C299.442 370.38 300.082 371.02 300.902 371.02ZM315.516 377.98C315.516 374.52 313.036 372.3 309.896 372.3C306.756 372.3 304.276 374.52 304.276 377.98C304.276 381.44 306.656 383.68 309.796 383.68C312.956 383.68 315.516 381.44 315.516 377.98ZM306.596 377.98C306.596 375.48 308.136 374.28 309.856 374.28C311.556 374.28 313.176 375.48 313.176 377.98C313.176 380.48 311.496 381.7 309.796 381.7C308.076 381.7 306.596 380.48 306.596 377.98ZM325.59 383.5H327.85V377C327.85 373.92 325.91 372.3 323.33 372.3C322.01 372.3 320.79 372.84 320.05 373.74V372.48H317.77V383.5H320.05V377.34C320.05 375.32 321.15 374.28 322.83 374.28C324.49 374.28 325.59 375.32 325.59 377.34V383.5Z" fill="#212832"/>
<rect x="0.5" y="351.5" width="616" height="49" stroke="black" stroke-opacity="0.5"/>
</svg>
