<svg width="617" height="287" viewBox="0 0 617 287" fill="none" xmlns="http://www.w3.org/2000/svg">
<rect width="617" height="58" fill="#3498DB"/>
<path d="M33.925 32.95C33.925 26.8 24.975 28.75 24.975 25.25C24.975 23.825 26 23.15 27.375 23.2C28.875 23.225 29.8 24.125 29.875 25.275H33.725C33.5 22.125 31.05 20.3 27.475 20.3C23.875 20.3 21.325 22.2 21.325 25.35C21.3 31.675 30.3 29.4 30.3 33.175C30.3 34.425 29.325 35.3 27.675 35.3C26.05 35.3 25.125 34.375 25.025 32.975H21.275C21.325 36.275 24.125 38.175 27.75 38.175C31.725 38.175 33.925 35.7 33.925 32.95ZM43.4094 26.8C45.2094 26.8 46.6594 27.95 46.7094 29.775H40.1344C40.4094 27.875 41.7344 26.8 43.4094 26.8ZM49.9844 33.65H46.2094C45.7594 34.575 44.9344 35.325 43.4344 35.325C41.6844 35.325 40.2844 34.175 40.1094 32.125H50.2344C50.3094 31.675 50.3344 31.225 50.3344 30.775C50.3344 26.65 47.5094 23.925 43.5094 23.925C39.4094 23.925 36.5594 26.7 36.5594 31.075C36.5594 35.425 39.4844 38.225 43.5094 38.225C46.9344 38.225 49.2344 36.2 49.9844 33.65ZM72.7641 38H76.2641V29.875C76.2641 26.05 73.9141 23.95 70.5891 23.95C68.5641 23.95 66.7391 25.025 65.8391 26.6C64.8891 24.875 63.1141 23.95 60.9641 23.95C59.2391 23.95 57.7641 24.675 56.8891 25.825V24.15H53.3891V38H56.8891V30.35C56.8891 28.15 58.1141 27 60.0141 27C61.8641 27 63.0891 28.15 63.0891 30.35V38H66.5891V30.35C66.5891 28.15 67.8141 27 69.6891 27C71.5391 27 72.7641 28.15 72.7641 30.35V38ZM86.0354 26.8C87.8354 26.8 89.2854 27.95 89.3354 29.775H82.7604C83.0354 27.875 84.3604 26.8 86.0354 26.8ZM92.6104 33.65H88.8354C88.3854 34.575 87.5604 35.325 86.0604 35.325C84.3104 35.325 82.9104 34.175 82.7354 32.125H92.8604C92.9354 31.675 92.9604 31.225 92.9604 30.775C92.9604 26.65 90.1354 23.925 86.1354 23.925C82.0354 23.925 79.1854 26.7 79.1854 31.075C79.1854 35.425 82.1104 38.225 86.1354 38.225C89.5604 38.225 91.8604 36.2 92.6104 33.65ZM106.765 34.05C106.665 28.975 98.99 30.55 98.99 28.025C98.99 27.225 99.665 26.7 100.965 26.7C102.34 26.7 103.19 27.425 103.29 28.5H106.64C106.44 25.75 104.415 23.925 101.065 23.925C97.64 23.925 95.59 25.775 95.59 28.075C95.59 33.15 103.415 31.575 103.415 34.05C103.415 34.85 102.665 35.475 101.29 35.475C99.89 35.475 98.915 34.675 98.79 33.625H95.265C95.415 36.2 97.84 38.225 101.315 38.225C104.69 38.225 106.765 36.425 106.765 34.05ZM110.688 33.7C110.688 36.875 112.463 38 115.113 38H117.313V35.05H115.688C114.588 35.05 114.213 34.65 114.213 33.725V27.025H117.313V24.15H114.213V20.725H110.688V24.15H109.038V27.025H110.688V33.7ZM126.28 26.8C128.08 26.8 129.53 27.95 129.58 29.775H123.005C123.28 27.875 124.605 26.8 126.28 26.8ZM132.855 33.65H129.08C128.63 34.575 127.805 35.325 126.305 35.325C124.555 35.325 123.155 34.175 122.98 32.125H133.105C133.18 31.675 133.205 31.225 133.205 30.775C133.205 26.65 130.38 23.925 126.38 23.925C122.28 23.925 119.43 26.7 119.43 31.075C119.43 35.425 122.355 38.225 126.38 38.225C129.805 38.225 132.105 36.2 132.855 33.65ZM139.76 31.1C139.76 28.425 141.01 27.625 143.085 27.625H144.01V23.95C142.085 23.95 140.635 24.875 139.76 26.3V24.15H136.26V38H139.76V31.1ZM153.875 19.725V30.425H157.225C157.6 29.3 158.525 28.5 159.975 28.5C161.95 28.5 162.975 29.625 162.975 31.675C162.975 33.6 162.05 35.05 160 35.05C158.3 35.05 157.275 34.125 156.975 32.85H153.575C153.875 35.825 156.125 38 160.05 38C164.2 38 166.35 35.35 166.35 31.625C166.35 28.8 164.9 25.6 160.65 25.6C159.125 25.6 157.75 26.25 157.075 27.075V22.8H165.175V19.725H153.875Z" fill="white"/>
<rect y="66" width="617" height="50" fill="white"/>
<path d="M24.6 94.44C26.08 94.44 27.24 93.3 27.24 91.84C27.24 90.36 26.08 89.22 24.6 89.22C23.16 89.22 22 90.36 22 91.84C22 93.3 23.16 94.44 24.6 94.44ZM40.3689 91.52C40.3689 95.7 43.5489 98.62 47.4689 98.62C50.3689 98.62 52.8689 97.18 53.9289 94.46H51.1889C50.4489 95.94 49.1289 96.64 47.4689 96.64C44.7089 96.64 42.7089 94.66 42.7089 91.52C42.7089 88.38 44.7089 86.42 47.4689 86.42C49.1289 86.42 50.4489 87.12 51.1889 88.6H53.9289C52.8689 85.88 50.3689 84.42 47.4689 84.42C43.5489 84.42 40.3689 87.36 40.3689 91.52ZM67.0977 92.98C67.0977 89.52 64.6177 87.3 61.4777 87.3C58.3377 87.3 55.8577 89.52 55.8577 92.98C55.8577 96.44 58.2377 98.68 61.3777 98.68C64.5377 98.68 67.0977 96.44 67.0977 92.98ZM58.1777 92.98C58.1777 90.48 59.7177 89.28 61.4377 89.28C63.1377 89.28 64.7577 90.48 64.7577 92.98C64.7577 95.48 63.0777 96.7 61.3777 96.7C59.6577 96.7 58.1777 95.48 58.1777 92.98ZM71.6316 92.7C71.6316 90.36 72.6716 89.66 74.3516 89.66H74.9316V87.3C73.3716 87.3 72.2716 87.98 71.6316 89.08V87.48H69.3516V98.5H71.6316V92.7ZM79.3073 89.1V87.48H77.0273V103.74H79.3073V96.9C80.0273 97.76 81.3273 98.68 83.1473 98.68C86.0473 98.68 88.3273 96.34 88.3273 92.94C88.3273 89.54 86.0473 87.3 83.1473 87.3C81.3473 87.3 80.0073 88.18 79.3073 89.1ZM86.0073 92.94C86.0073 95.32 84.3673 96.7 82.6473 96.7C80.9473 96.7 79.3073 95.36 79.3073 92.98C79.3073 90.62 80.9473 89.28 82.6473 89.28C84.3673 89.28 86.0073 90.56 86.0073 92.94ZM101.082 92.98C101.082 89.52 98.602 87.3 95.462 87.3C92.322 87.3 89.842 89.52 89.842 92.98C89.842 96.44 92.222 98.68 95.362 98.68C98.522 98.68 101.082 96.44 101.082 92.98ZM92.162 92.98C92.162 90.48 93.702 89.28 95.422 89.28C97.122 89.28 98.742 90.48 98.742 92.98C98.742 95.48 97.062 96.7 95.362 96.7C93.642 96.7 92.162 95.48 92.162 92.98ZM105.616 92.7C105.616 90.36 106.656 89.66 108.336 89.66H108.916V87.3C107.356 87.3 106.256 87.98 105.616 89.08V87.48H103.336V98.5H105.616V92.7ZM110.252 92.94C110.252 96.34 112.552 98.68 115.412 98.68C117.252 98.68 118.572 97.8 119.272 96.86V98.5H121.572V87.48H119.272V89.08C118.592 88.18 117.312 87.3 115.452 87.3C112.552 87.3 110.252 89.54 110.252 92.94ZM119.272 92.98C119.272 95.36 117.652 96.7 115.932 96.7C114.232 96.7 112.592 95.32 112.592 92.94C112.592 90.56 114.232 89.28 115.932 89.28C117.652 89.28 119.272 90.62 119.272 92.98ZM124.926 95.44C124.926 97.68 126.146 98.5 128.106 98.5H129.906V96.6H128.506C127.546 96.6 127.226 96.26 127.226 95.44V89.34H129.906V87.48H127.226V84.74H124.926V87.48H123.626V89.34H124.926V95.44ZM136.648 89.22C138.348 89.22 139.688 90.3 139.728 92H133.628C133.868 90.26 135.108 89.22 136.648 89.22ZM141.808 95.22H139.348C138.928 96.08 138.148 96.76 136.748 96.76C135.068 96.76 133.768 95.66 133.608 93.84H142.028C142.088 93.46 142.108 93.1 142.108 92.72C142.108 89.48 139.888 87.3 136.748 87.3C133.488 87.3 131.248 89.52 131.248 92.98C131.248 96.44 133.588 98.68 136.748 98.68C139.448 98.68 141.188 97.14 141.808 95.22ZM148.787 91.52C148.787 95.7 151.967 98.62 155.887 98.62C158.787 98.62 161.287 97.18 162.347 94.46H159.607C158.867 95.94 157.547 96.64 155.887 96.64C153.127 96.64 151.127 94.66 151.127 91.52C151.127 88.38 153.127 86.42 155.887 86.42C157.547 86.42 158.867 87.12 159.607 88.6H162.347C161.287 85.88 158.787 84.42 155.887 84.42C151.967 84.42 148.787 87.36 148.787 91.52ZM175.516 92.98C175.516 89.52 173.036 87.3 169.896 87.3C166.756 87.3 164.276 89.52 164.276 92.98C164.276 96.44 166.656 98.68 169.796 98.68C172.956 98.68 175.516 96.44 175.516 92.98ZM166.596 92.98C166.596 90.48 168.136 89.28 169.856 89.28C171.556 89.28 173.176 90.48 173.176 92.98C173.176 95.48 171.496 96.7 169.796 96.7C168.076 96.7 166.596 95.48 166.596 92.98ZM193.39 98.5H195.65V92C195.65 88.92 193.69 87.3 191.11 87.3C189.51 87.3 187.95 88.14 187.27 89.48C186.51 88.04 185.05 87.3 183.31 87.3C181.99 87.3 180.79 87.84 180.05 88.74V87.48H177.77V98.5H180.05V92.34C180.05 90.32 181.15 89.28 182.83 89.28C184.49 89.28 185.59 90.32 185.59 92.34V98.5H187.85V92.34C187.85 90.32 188.95 89.28 190.63 89.28C192.29 89.28 193.39 90.32 193.39 92.34V98.5ZM214.171 98.5H216.431V92C216.431 88.92 214.471 87.3 211.891 87.3C210.291 87.3 208.731 88.14 208.051 89.48C207.291 88.04 205.831 87.3 204.091 87.3C202.771 87.3 201.571 87.84 200.831 88.74V87.48H198.551V98.5H200.831V92.34C200.831 90.32 201.931 89.28 203.611 89.28C205.271 89.28 206.371 90.32 206.371 92.34V98.5H208.631V92.34C208.631 90.32 209.731 89.28 211.411 89.28C213.071 89.28 214.171 90.32 214.171 92.34V98.5ZM229.312 87.48H227.032V93.62C227.032 95.64 225.932 96.68 224.252 96.68C222.592 96.68 221.492 95.64 221.492 93.62V87.48H219.232V93.96C219.232 97.04 221.192 98.66 223.772 98.66C225.072 98.66 226.312 98.12 227.032 97.18V98.5H229.312V87.48ZM240.14 98.5H242.4V92C242.4 88.92 240.46 87.3 237.88 87.3C236.56 87.3 235.34 87.84 234.6 88.74V87.48H232.32V98.5H234.6V92.34C234.6 90.32 235.7 89.28 237.38 89.28C239.04 89.28 240.14 90.32 240.14 92.34V98.5ZM245.309 98.5H247.589V87.48H245.309V98.5ZM246.469 86.02C247.269 86.02 247.909 85.38 247.909 84.56C247.909 83.74 247.269 83.1 246.469 83.1C245.649 83.1 245.009 83.74 245.009 84.56C245.009 85.38 245.649 86.02 246.469 86.02ZM249.822 92.98C249.822 96.44 252.062 98.68 255.222 98.68C257.922 98.68 259.682 97.18 260.302 95.02H257.842C257.422 96.16 256.582 96.76 255.222 96.76C253.382 96.76 252.162 95.4 252.162 92.98C252.162 90.58 253.382 89.22 255.222 89.22C256.582 89.22 257.462 89.9 257.842 90.96H260.302C259.682 88.64 257.922 87.3 255.222 87.3C252.062 87.3 249.822 89.54 249.822 92.98ZM261.814 92.94C261.814 96.34 264.114 98.68 266.974 98.68C268.814 98.68 270.134 97.8 270.834 96.86V98.5H273.134V87.48H270.834V89.08C270.154 88.18 268.874 87.3 267.014 87.3C264.114 87.3 261.814 89.54 261.814 92.94ZM270.834 92.98C270.834 95.36 269.214 96.7 267.494 96.7C265.794 96.7 264.154 95.32 264.154 92.94C264.154 90.56 265.794 89.28 267.494 89.28C269.214 89.28 270.834 90.62 270.834 92.98ZM276.489 95.44C276.489 97.68 277.709 98.5 279.669 98.5H281.469V96.6H280.069C279.109 96.6 278.789 96.26 278.789 95.44V89.34H281.469V87.48H278.789V84.74H276.489V87.48H275.189V89.34H276.489V95.44ZM283.57 98.5H285.85V87.48H283.57V98.5ZM284.73 86.02C285.53 86.02 286.17 85.38 286.17 84.56C286.17 83.74 285.53 83.1 284.73 83.1C283.91 83.1 283.27 83.74 283.27 84.56C283.27 85.38 283.91 86.02 284.73 86.02ZM299.344 92.98C299.344 89.52 296.864 87.3 293.724 87.3C290.584 87.3 288.104 89.52 288.104 92.98C288.104 96.44 290.484 98.68 293.624 98.68C296.784 98.68 299.344 96.44 299.344 92.98ZM290.424 92.98C290.424 90.48 291.964 89.28 293.684 89.28C295.384 89.28 297.004 90.48 297.004 92.98C297.004 95.48 295.324 96.7 293.624 96.7C291.904 96.7 290.424 95.48 290.424 92.98ZM309.418 98.5H311.678V92C311.678 88.92 309.738 87.3 307.158 87.3C305.838 87.3 304.618 87.84 303.878 88.74V87.48H301.598V98.5H303.878V92.34C303.878 90.32 304.978 89.28 306.658 89.28C308.318 89.28 309.418 90.32 309.418 92.34V98.5Z" fill="#212832"/>
<rect x="0.5" y="66.5" width="616" height="49" stroke="black" stroke-opacity="0.5"/>
<rect y="180" width="617" height="50" fill="white"/>
<path d="M24.6 208.44C26.08 208.44 27.24 207.3 27.24 205.84C27.24 204.36 26.08 203.22 24.6 203.22C23.16 203.22 22 204.36 22 205.84C22 207.3 23.16 208.44 24.6 208.44ZM41.1289 212.5H43.4089V202.98L47.6689 212.5H49.2489L53.4889 202.98V212.5H55.7689V198.6H53.3289L48.4689 209.5L43.5889 198.6H41.1289V212.5ZM69.2656 206.98C69.2656 203.52 66.7856 201.3 63.6456 201.3C60.5056 201.3 58.0256 203.52 58.0256 206.98C58.0256 210.44 60.4056 212.68 63.5456 212.68C66.7056 212.68 69.2656 210.44 69.2656 206.98ZM60.3456 206.98C60.3456 204.48 61.8856 203.28 63.6056 203.28C65.3056 203.28 66.9256 204.48 66.9256 206.98C66.9256 209.48 65.2456 210.7 63.5456 210.7C61.8256 210.7 60.3456 209.48 60.3456 206.98ZM70.2195 201.48L74.3995 212.5H77.1195L81.3195 201.48H78.8995L75.7795 210.46L72.6595 201.48H70.2195ZM83.043 212.5H85.323V201.48H83.043V212.5ZM84.203 200.02C85.003 200.02 85.643 199.38 85.643 198.56C85.643 197.74 85.003 197.1 84.203 197.1C83.383 197.1 82.743 197.74 82.743 198.56C82.743 199.38 83.383 200.02 84.203 200.02ZM92.9564 203.22C94.6564 203.22 95.9964 204.3 96.0364 206H89.9364C90.1764 204.26 91.4164 203.22 92.9564 203.22ZM98.1164 209.22H95.6564C95.2364 210.08 94.4564 210.76 93.0564 210.76C91.3764 210.76 90.0764 209.66 89.9164 207.84H98.3364C98.3964 207.46 98.4164 207.1 98.4164 206.72C98.4164 203.48 96.1964 201.3 93.0564 201.3C89.7964 201.3 87.5564 203.52 87.5564 206.98C87.5564 210.44 89.8964 212.68 93.0564 212.68C95.7564 212.68 97.4964 211.14 98.1164 209.22ZM105.855 212.5H108.135V202.98L112.395 212.5H113.975L118.215 202.98V212.5H120.495V198.6H118.055L113.195 209.5L108.315 198.6H105.855V212.5ZM128.132 203.22C129.832 203.22 131.172 204.3 131.212 206H125.112C125.352 204.26 126.592 203.22 128.132 203.22ZM133.292 209.22H130.832C130.412 210.08 129.632 210.76 128.232 210.76C126.552 210.76 125.252 209.66 125.092 207.84H133.512C133.572 207.46 133.592 207.1 133.592 206.72C133.592 203.48 131.372 201.3 128.232 201.3C124.972 201.3 122.732 203.52 122.732 206.98C122.732 210.44 125.072 212.68 128.232 212.68C130.932 212.68 132.672 211.14 133.292 209.22ZM138.116 206.7C138.116 204.36 139.156 203.66 140.836 203.66H141.416V201.3C139.856 201.3 138.756 201.98 138.116 203.08V201.48H135.836V212.5H138.116V206.7ZM142.752 206.98C142.752 210.44 144.992 212.68 148.152 212.68C150.852 212.68 152.612 211.18 153.232 209.02H150.772C150.352 210.16 149.512 210.76 148.152 210.76C146.312 210.76 145.092 209.4 145.092 206.98C145.092 204.58 146.312 203.22 148.152 203.22C149.512 203.22 150.392 203.9 150.772 204.96H153.232C152.612 202.64 150.852 201.3 148.152 201.3C144.992 201.3 142.752 203.54 142.752 206.98ZM155.504 212.5H157.784V206.34C157.784 204.32 158.884 203.28 160.564 203.28C162.224 203.28 163.324 204.32 163.324 206.34V212.5H165.584V206C165.584 202.92 163.664 201.3 161.204 201.3C159.784 201.3 158.544 201.84 157.784 202.76V197.7H155.504V212.5ZM167.732 206.94C167.732 210.34 170.032 212.68 172.892 212.68C174.732 212.68 176.052 211.8 176.752 210.86V212.5H179.052V201.48H176.752V203.08C176.072 202.18 174.792 201.3 172.932 201.3C170.032 201.3 167.732 203.54 167.732 206.94ZM176.752 206.98C176.752 209.36 175.132 210.7 173.412 210.7C171.712 210.7 170.072 209.32 170.072 206.94C170.072 204.56 171.712 203.28 173.412 203.28C175.132 203.28 176.752 204.62 176.752 206.98ZM189.867 212.5H192.127V206C192.127 202.92 190.187 201.3 187.607 201.3C186.287 201.3 185.067 201.84 184.327 202.74V201.48H182.047V212.5H184.327V206.34C184.327 204.32 185.427 203.28 187.107 203.28C188.767 203.28 189.867 204.32 189.867 206.34V212.5ZM194.275 206.94C194.275 210.34 196.575 212.68 199.475 212.68C201.275 212.68 202.595 211.84 203.295 210.84V212.5H205.595V197.7H203.295V203.02C202.455 201.98 200.935 201.3 199.495 201.3C196.575 201.3 194.275 203.54 194.275 206.94ZM203.295 206.98C203.295 209.36 201.675 210.7 199.955 210.7C198.255 210.7 196.615 209.32 196.615 206.94C196.615 204.56 198.255 203.28 199.955 203.28C201.675 203.28 203.295 204.62 203.295 206.98ZM208.59 212.5H210.87V201.48H208.59V212.5ZM209.75 200.02C210.55 200.02 211.19 199.38 211.19 198.56C211.19 197.74 210.55 197.1 209.75 197.1C208.93 197.1 208.29 197.74 208.29 198.56C208.29 199.38 208.93 200.02 209.75 200.02ZM222.083 209.42C221.963 205.44 215.743 206.68 215.743 204.46C215.743 203.72 216.383 203.22 217.603 203.22C218.843 203.22 219.583 203.88 219.663 204.84H221.943C221.823 202.64 220.183 201.3 217.683 201.3C215.083 201.3 213.443 202.72 213.443 204.48C213.443 208.52 219.843 207.28 219.843 209.44C219.843 210.2 219.143 210.76 217.823 210.76C216.563 210.76 215.703 210.02 215.623 209.12H213.263C213.363 211.12 215.223 212.68 217.863 212.68C220.463 212.68 222.083 211.28 222.083 209.42ZM224.547 212.5H226.827V201.48H224.547V212.5ZM225.707 200.02C226.507 200.02 227.147 199.38 227.147 198.56C227.147 197.74 226.507 197.1 225.707 197.1C224.887 197.1 224.247 197.74 224.247 198.56C224.247 199.38 224.887 200.02 225.707 200.02ZM237.64 212.5H239.9V206C239.9 202.92 237.96 201.3 235.38 201.3C234.06 201.3 232.84 201.84 232.1 202.74V201.48H229.82V212.5H232.1V206.34C232.1 204.32 233.2 203.28 234.88 203.28C236.54 203.28 237.64 204.32 237.64 206.34V212.5ZM242.049 206.94C242.049 210.34 244.349 212.68 247.249 212.68C249.049 212.68 250.369 211.78 251.069 210.84V212.68C251.069 214.88 249.749 215.96 247.989 215.96C246.409 215.96 245.189 215.18 244.849 214.04H242.589C242.869 216.48 245.049 217.94 247.989 217.94C251.429 217.94 253.369 215.68 253.369 212.68V201.48H251.069V203.08C250.389 202.14 249.049 201.3 247.249 201.3C244.349 201.3 242.049 203.54 242.049 206.94ZM251.069 206.98C251.069 209.36 249.449 210.7 247.729 210.7C246.029 210.7 244.389 209.32 244.389 206.94C244.389 204.56 246.029 203.28 247.729 203.28C249.449 203.28 251.069 204.62 251.069 206.98Z" fill="#212832"/>
<rect x="0.5" y="180.5" width="616" height="49" stroke="black" stroke-opacity="0.5"/>
<rect y="123" width="617" height="50" fill="white"/>
<path d="M24.6 151.44C26.08 151.44 27.24 150.3 27.24 148.84C27.24 147.36 26.08 146.22 24.6 146.22C23.16 146.22 22 147.36 22 148.84C22 150.3 23.16 151.44 24.6 151.44ZM46.5689 153.16L42.4489 141.6H40.0089L45.2489 155.5H47.8889L53.1089 141.6H50.7089L46.5689 153.16ZM55.0156 155.5H57.2956V144.48H55.0156V155.5ZM56.1756 143.02C56.9756 143.02 57.6156 142.38 57.6156 141.56C57.6156 140.74 56.9756 140.1 56.1756 140.1C55.3556 140.1 54.7156 140.74 54.7156 141.56C54.7156 142.38 55.3556 143.02 56.1756 143.02ZM59.5291 149.94C59.5291 153.34 61.8291 155.68 64.7291 155.68C66.5291 155.68 67.8491 154.84 68.5491 153.84V155.5H70.8491V140.7H68.5491V146.02C67.7091 144.98 66.1891 144.3 64.7491 144.3C61.8291 144.3 59.5291 146.54 59.5291 149.94ZM68.5491 149.98C68.5491 152.36 66.9291 153.7 65.2091 153.7C63.5091 153.7 61.8691 152.32 61.8691 149.94C61.8691 147.56 63.5091 146.28 65.2091 146.28C66.9291 146.28 68.5491 147.62 68.5491 149.98ZM78.4838 146.22C80.1838 146.22 81.5238 147.3 81.5638 149H75.4638C75.7038 147.26 76.9438 146.22 78.4838 146.22ZM83.6437 152.22H81.1838C80.7638 153.08 79.9838 153.76 78.5838 153.76C76.9038 153.76 75.6038 152.66 75.4438 150.84H83.8638C83.9238 150.46 83.9438 150.1 83.9438 149.72C83.9438 146.48 81.7238 144.3 78.5838 144.3C75.3238 144.3 73.0838 146.52 73.0838 149.98C73.0838 153.44 75.4238 155.68 78.5838 155.68C81.2838 155.68 83.0238 154.14 83.6437 152.22ZM96.6875 149.98C96.6875 146.52 94.2075 144.3 91.0675 144.3C87.9275 144.3 85.4475 146.52 85.4475 149.98C85.4475 153.44 87.8275 155.68 90.9675 155.68C94.1275 155.68 96.6875 153.44 96.6875 149.98ZM87.7675 149.98C87.7675 147.48 89.3075 146.28 91.0275 146.28C92.7275 146.28 94.3475 147.48 94.3475 149.98C94.3475 152.48 92.6675 153.7 90.9675 153.7C89.2475 153.7 87.7675 152.48 87.7675 149.98ZM111.817 141.58H104.137V155.5H111.817V153.64H106.417V149.38H111.217V147.52H106.417V143.44H111.817V141.58ZM113.865 149.94C113.865 153.34 116.165 155.68 119.065 155.68C120.865 155.68 122.185 154.84 122.885 153.84V155.5H125.185V140.7H122.885V146.02C122.045 144.98 120.525 144.3 119.085 144.3C116.165 144.3 113.865 146.54 113.865 149.94ZM122.885 149.98C122.885 152.36 121.265 153.7 119.545 153.7C117.845 153.7 116.205 152.32 116.205 149.94C116.205 147.56 117.845 146.28 119.545 146.28C121.265 146.28 122.885 147.62 122.885 149.98ZM128.18 155.5H130.46V144.48H128.18V155.5ZM129.34 143.02C130.14 143.02 130.78 142.38 130.78 141.56C130.78 140.74 130.14 140.1 129.34 140.1C128.52 140.1 127.88 140.74 127.88 141.56C127.88 142.38 128.52 143.02 129.34 143.02ZM133.813 152.44C133.813 154.68 135.033 155.5 136.993 155.5H138.793V153.6H137.393C136.433 153.6 136.113 153.26 136.113 152.44V146.34H138.793V144.48H136.113V141.74H133.813V144.48H132.513V146.34H133.813V152.44ZM140.895 155.5H143.175V144.48H140.895V155.5ZM142.055 143.02C142.855 143.02 143.495 142.38 143.495 141.56C143.495 140.74 142.855 140.1 142.055 140.1C141.235 140.1 140.595 140.74 140.595 141.56C140.595 142.38 141.235 143.02 142.055 143.02ZM153.988 155.5H156.248V149C156.248 145.92 154.308 144.3 151.728 144.3C150.408 144.3 149.188 144.84 148.448 145.74V144.48H146.168V155.5H148.448V149.34C148.448 147.32 149.548 146.28 151.228 146.28C152.888 146.28 153.988 147.32 153.988 149.34V155.5ZM158.396 149.94C158.396 153.34 160.696 155.68 163.596 155.68C165.396 155.68 166.716 154.78 167.416 153.84V155.68C167.416 157.88 166.096 158.96 164.336 158.96C162.756 158.96 161.536 158.18 161.196 157.04H158.936C159.216 159.48 161.396 160.94 164.336 160.94C167.776 160.94 169.716 158.68 169.716 155.68V144.48H167.416V146.08C166.736 145.14 165.396 144.3 163.596 144.3C160.696 144.3 158.396 146.54 158.396 149.94ZM167.416 149.98C167.416 152.36 165.796 153.7 164.076 153.7C162.376 153.7 160.736 152.32 160.736 149.94C160.736 147.56 162.376 146.28 164.076 146.28C165.796 146.28 167.416 147.62 167.416 149.98ZM186.746 144.7C186.886 142.8 185.586 141.28 183.166 141.28C180.786 141.28 179.306 142.66 179.306 144.48C179.306 145.46 179.586 146.2 180.366 147.14C178.166 148.04 177.106 149.62 177.106 151.5C177.106 154.1 179.106 155.76 182.106 155.76C184.046 155.76 185.586 155.12 186.926 153.78L188.646 155.5H191.626L188.246 152.14C188.406 151.88 188.586 151.6 188.746 151.32L190.546 148.24H188.086L186.666 150.58L182.986 146.92C182.006 145.86 181.586 145.24 181.586 144.48C181.586 143.74 182.166 143.14 183.066 143.14C183.926 143.14 184.506 143.68 184.466 144.7H186.746ZM182.106 153.82C180.466 153.82 179.386 152.76 179.386 151.42C179.386 150.18 180.126 149.22 181.746 148.58L185.426 152.28C184.466 153.3 183.406 153.82 182.106 153.82ZM197.556 148.52C197.556 152.7 200.736 155.62 204.656 155.62C207.556 155.62 210.056 154.18 211.116 151.46H208.376C207.636 152.94 206.316 153.64 204.656 153.64C201.896 153.64 199.896 151.66 199.896 148.52C199.896 145.38 201.896 143.42 204.656 143.42C206.316 143.42 207.636 144.12 208.376 145.6H211.116C210.056 142.88 207.556 141.42 204.656 141.42C200.736 141.42 197.556 144.36 197.556 148.52ZM224.285 149.98C224.285 146.52 221.805 144.3 218.665 144.3C215.525 144.3 213.045 146.52 213.045 149.98C213.045 153.44 215.425 155.68 218.565 155.68C221.725 155.68 224.285 153.44 224.285 149.98ZM215.365 149.98C215.365 147.48 216.905 146.28 218.625 146.28C220.325 146.28 221.945 147.48 221.945 149.98C221.945 152.48 220.265 153.7 218.565 153.7C216.845 153.7 215.365 152.48 215.365 149.98ZM242.159 155.5H244.419V149C244.419 145.92 242.459 144.3 239.879 144.3C238.279 144.3 236.719 145.14 236.039 146.48C235.279 145.04 233.819 144.3 232.079 144.3C230.759 144.3 229.559 144.84 228.819 145.74V144.48H226.539V155.5H228.819V149.34C228.819 147.32 229.919 146.28 231.599 146.28C233.259 146.28 234.359 147.32 234.359 149.34V155.5H236.619V149.34C236.619 147.32 237.719 146.28 239.399 146.28C241.059 146.28 242.159 147.32 242.159 149.34V155.5ZM249.6 146.1V144.48H247.32V160.74H249.6V153.9C250.32 154.76 251.62 155.68 253.44 155.68C256.34 155.68 258.62 153.34 258.62 149.94C258.62 146.54 256.34 144.3 253.44 144.3C251.64 144.3 250.3 145.18 249.6 146.1ZM256.3 149.94C256.3 152.32 254.66 153.7 252.94 153.7C251.24 153.7 249.6 152.36 249.6 149.98C249.6 147.62 251.24 146.28 252.94 146.28C254.66 146.28 256.3 147.56 256.3 149.94ZM271.375 149.98C271.375 146.52 268.895 144.3 265.755 144.3C262.615 144.3 260.135 146.52 260.135 149.98C260.135 153.44 262.515 155.68 265.655 155.68C268.815 155.68 271.375 153.44 271.375 149.98ZM262.455 149.98C262.455 147.48 263.995 146.28 265.715 146.28C267.415 146.28 269.035 147.48 269.035 149.98C269.035 152.48 267.355 153.7 265.655 153.7C263.935 153.7 262.455 152.48 262.455 149.98ZM281.849 152.42C281.729 148.44 275.509 149.68 275.509 147.46C275.509 146.72 276.149 146.22 277.369 146.22C278.609 146.22 279.349 146.88 279.429 147.84H281.709C281.589 145.64 279.949 144.3 277.449 144.3C274.849 144.3 273.209 145.72 273.209 147.48C273.209 151.52 279.609 150.28 279.609 152.44C279.609 153.2 278.909 153.76 277.589 153.76C276.329 153.76 275.469 153.02 275.389 152.12H273.029C273.129 154.12 274.989 155.68 277.629 155.68C280.229 155.68 281.849 154.28 281.849 152.42ZM284.313 155.5H286.593V144.48H284.313V155.5ZM285.473 143.02C286.273 143.02 286.913 142.38 286.913 141.56C286.913 140.74 286.273 140.1 285.473 140.1C284.653 140.1 284.013 140.74 284.013 141.56C284.013 142.38 284.653 143.02 285.473 143.02ZM289.946 152.44C289.946 154.68 291.166 155.5 293.126 155.5H294.926V153.6H293.526C292.566 153.6 292.246 153.26 292.246 152.44V146.34H294.926V144.48H292.246V141.74H289.946V144.48H288.646V146.34H289.946V152.44ZM297.027 155.5H299.307V144.48H297.027V155.5ZM298.187 143.02C298.987 143.02 299.627 142.38 299.627 141.56C299.627 140.74 298.987 140.1 298.187 140.1C297.367 140.1 296.727 140.74 296.727 141.56C296.727 142.38 297.367 143.02 298.187 143.02ZM310.121 155.5H312.381V149C312.381 145.92 310.441 144.3 307.861 144.3C306.541 144.3 305.321 144.84 304.581 145.74V144.48H302.301V155.5H304.581V149.34C304.581 147.32 305.681 146.28 307.361 146.28C309.021 146.28 310.121 147.32 310.121 149.34V155.5ZM314.529 149.94C314.529 153.34 316.829 155.68 319.729 155.68C321.529 155.68 322.849 154.78 323.549 153.84V155.68C323.549 157.88 322.229 158.96 320.469 158.96C318.889 158.96 317.669 158.18 317.329 157.04H315.069C315.349 159.48 317.529 160.94 320.469 160.94C323.909 160.94 325.849 158.68 325.849 155.68V144.48H323.549V146.08C322.869 145.14 321.529 144.3 319.729 144.3C316.829 144.3 314.529 146.54 314.529 149.94ZM323.549 149.98C323.549 152.36 321.929 153.7 320.209 153.7C318.509 153.7 316.869 152.32 316.869 149.94C316.869 147.56 318.509 146.28 320.209 146.28C321.929 146.28 323.549 147.62 323.549 149.98Z" fill="#212832"/>
<rect x="0.5" y="123.5" width="616" height="49" stroke="black" stroke-opacity="0.5"/>
<rect y="237" width="617" height="50" fill="white"/>
<path d="M24.6 265.44C26.08 265.44 27.24 264.3 27.24 262.84C27.24 261.36 26.08 260.22 24.6 260.22C23.16 260.22 22 261.36 22 262.84C22 264.3 23.16 265.44 24.6 265.44ZM43.4089 262V257.46H45.9289C47.7089 257.46 48.5089 258.3 48.5089 259.74C48.5089 261.14 47.7089 262 45.9289 262H43.4089ZM50.8489 259.74C50.8489 257.48 49.2289 255.6 45.9289 255.6H41.1289V269.5H43.4089V263.86H45.9289C49.5489 263.86 50.8489 261.72 50.8489 259.74ZM63.5234 263.98C63.5234 260.52 61.0434 258.3 57.9034 258.3C54.7634 258.3 52.2834 260.52 52.2834 263.98C52.2834 267.44 54.6634 269.68 57.8034 269.68C60.9634 269.68 63.5234 267.44 63.5234 263.98ZM54.6034 263.98C54.6034 261.48 56.1434 260.28 57.8634 260.28C59.5634 260.28 61.1834 261.48 61.1834 263.98C61.1834 266.48 59.5034 267.7 57.8034 267.7C56.0834 267.7 54.6034 266.48 54.6034 263.98ZM68.0573 263.7C68.0573 261.36 69.0973 260.66 70.7773 260.66H71.3573V258.3C69.7973 258.3 68.6973 258.98 68.0573 260.08V258.48H65.7773V269.5H68.0573V263.7ZM73.8131 266.44C73.8131 268.68 75.0331 269.5 76.9931 269.5H78.7931V267.6H77.3931C76.4331 267.6 76.1131 267.26 76.1131 266.44V260.34H78.7931V258.48H76.1131V255.74H73.8131V258.48H72.5131V260.34H73.8131V266.44ZM81.1745 269.5H83.4745V260.34H85.5145V258.48H83.4745V257.7C83.4745 256.44 83.9545 255.96 85.3545 255.96V254.06C82.4745 254.06 81.1745 255.16 81.1745 257.7V258.48H79.8745V260.34H81.1745V269.5ZM98.0352 263.98C98.0352 260.52 95.5552 258.3 92.4152 258.3C89.2752 258.3 86.7952 260.52 86.7952 263.98C86.7952 267.44 89.1752 269.68 92.3152 269.68C95.4752 269.68 98.0352 267.44 98.0352 263.98ZM89.1152 263.98C89.1152 261.48 90.6552 260.28 92.3752 260.28C94.0752 260.28 95.6952 261.48 95.6952 263.98C95.6952 266.48 94.0152 267.7 92.3152 267.7C90.5952 267.7 89.1152 266.48 89.1152 263.98ZM100.289 269.5H102.569V254.7H100.289V269.5ZM105.563 269.5H107.843V258.48H105.563V269.5ZM106.723 257.02C107.523 257.02 108.163 256.38 108.163 255.56C108.163 254.74 107.523 254.1 106.723 254.1C105.903 254.1 105.263 254.74 105.263 255.56C105.263 256.38 105.903 257.02 106.723 257.02ZM121.336 263.98C121.336 260.52 118.856 258.3 115.716 258.3C112.576 258.3 110.096 260.52 110.096 263.98C110.096 267.44 112.476 269.68 115.616 269.68C118.776 269.68 121.336 267.44 121.336 263.98ZM112.416 263.98C112.416 261.48 113.956 260.28 115.676 260.28C117.376 260.28 118.996 261.48 118.996 263.98C118.996 266.48 117.316 267.7 115.616 267.7C113.896 267.7 112.416 266.48 112.416 263.98ZM133.325 255.6H128.785V269.5H133.325C137.785 269.5 140.705 266.88 140.705 262.6C140.705 258.3 137.785 255.6 133.325 255.6ZM131.065 267.64V257.46H133.325C136.605 257.46 138.365 259.42 138.365 262.6C138.365 265.76 136.605 267.64 133.325 267.64H131.065ZM147.605 260.22C149.305 260.22 150.645 261.3 150.685 263H144.585C144.825 261.26 146.065 260.22 147.605 260.22ZM152.765 266.22H150.305C149.885 267.08 149.105 267.76 147.705 267.76C146.025 267.76 144.725 266.66 144.565 264.84H152.985C153.045 264.46 153.065 264.1 153.065 263.72C153.065 260.48 150.845 258.3 147.705 258.3C144.445 258.3 142.205 260.52 142.205 263.98C142.205 267.44 144.545 269.68 147.705 269.68C150.405 269.68 152.145 268.14 152.765 266.22ZM154.009 258.48L158.189 269.5H160.909L165.109 258.48H162.689L159.569 267.46L156.449 258.48H154.009ZM171.472 260.22C173.172 260.22 174.512 261.3 174.552 263H168.452C168.692 261.26 169.932 260.22 171.472 260.22ZM176.632 266.22H174.172C173.752 267.08 172.972 267.76 171.572 267.76C169.892 267.76 168.592 266.66 168.432 264.84H176.852C176.912 264.46 176.932 264.1 176.932 263.72C176.932 260.48 174.712 258.3 171.572 258.3C168.312 258.3 166.072 260.52 166.072 263.98C166.072 267.44 168.412 269.68 171.572 269.68C174.272 269.68 176.012 268.14 176.632 266.22ZM179.176 269.5H181.456V254.7H179.176V269.5ZM194.949 263.98C194.949 260.52 192.469 258.3 189.329 258.3C186.189 258.3 183.709 260.52 183.709 263.98C183.709 267.44 186.089 269.68 189.229 269.68C192.389 269.68 194.949 267.44 194.949 263.98ZM186.029 263.98C186.029 261.48 187.569 260.28 189.289 260.28C190.989 260.28 192.609 261.48 192.609 263.98C192.609 266.48 190.929 267.7 189.229 267.7C187.509 267.7 186.029 266.48 186.029 263.98ZM199.483 260.1V258.48H197.203V274.74H199.483V267.9C200.203 268.76 201.503 269.68 203.323 269.68C206.223 269.68 208.503 267.34 208.503 263.94C208.503 260.54 206.223 258.3 203.323 258.3C201.523 258.3 200.183 259.18 199.483 260.1ZM206.183 263.94C206.183 266.32 204.543 267.7 202.823 267.7C201.123 267.7 199.483 266.36 199.483 263.98C199.483 261.62 201.123 260.28 202.823 260.28C204.543 260.28 206.183 261.56 206.183 263.94ZM226.378 269.5H228.638V263C228.638 259.92 226.678 258.3 224.098 258.3C222.498 258.3 220.938 259.14 220.258 260.48C219.498 259.04 218.038 258.3 216.298 258.3C214.978 258.3 213.778 258.84 213.038 259.74V258.48H210.758V269.5H213.038V263.34C213.038 261.32 214.138 260.28 215.818 260.28C217.478 260.28 218.578 261.32 218.578 263.34V269.5H220.838V263.34C220.838 261.32 221.938 260.28 223.618 260.28C225.278 260.28 226.378 261.32 226.378 263.34V269.5ZM236.179 260.22C237.879 260.22 239.219 261.3 239.259 263H233.159C233.399 261.26 234.639 260.22 236.179 260.22ZM241.339 266.22H238.879C238.459 267.08 237.679 267.76 236.279 267.76C234.599 267.76 233.299 266.66 233.139 264.84H241.559C241.619 264.46 241.639 264.1 241.639 263.72C241.639 260.48 239.419 258.3 236.279 258.3C233.019 258.3 230.779 260.52 230.779 263.98C230.779 267.44 233.119 269.68 236.279 269.68C238.979 269.68 240.719 268.14 241.339 266.22ZM251.703 269.5H253.963V263C253.963 259.92 252.023 258.3 249.443 258.3C248.123 258.3 246.903 258.84 246.163 259.74V258.48H243.883V269.5H246.163V263.34C246.163 261.32 247.263 260.28 248.943 260.28C250.603 260.28 251.703 261.32 251.703 263.34V269.5ZM257.231 266.44C257.231 268.68 258.451 269.5 260.411 269.5H262.211V267.6H260.811C259.851 267.6 259.531 267.26 259.531 266.44V260.34H262.211V258.48H259.531V255.74H257.231V258.48H255.931V260.34H257.231V266.44ZM272.533 266.42C272.413 262.44 266.193 263.68 266.193 261.46C266.193 260.72 266.833 260.22 268.053 260.22C269.293 260.22 270.033 260.88 270.113 261.84H272.393C272.273 259.64 270.633 258.3 268.133 258.3C265.533 258.3 263.893 259.72 263.893 261.48C263.893 265.52 270.293 264.28 270.293 266.44C270.293 267.2 269.593 267.76 268.273 267.76C267.013 267.76 266.153 267.02 266.073 266.12H263.713C263.813 268.12 265.673 269.68 268.313 269.68C270.913 269.68 272.533 268.28 272.533 266.42Z" fill="#212832"/>
<rect x="0.5" y="237.5" width="616" height="49" stroke="black" stroke-opacity="0.5"/>
</svg>
