<svg width="617" height="287" viewBox="0 0 617 287" fill="none" xmlns="http://www.w3.org/2000/svg">
<rect width="617" height="58" fill="#3498DB"/>
<path d="M33.925 32.95C33.925 26.8 24.975 28.75 24.975 25.25C24.975 23.825 26 23.15 27.375 23.2C28.875 23.225 29.8 24.125 29.875 25.275H33.725C33.5 22.125 31.05 20.3 27.475 20.3C23.875 20.3 21.325 22.2 21.325 25.35C21.3 31.675 30.3 29.4 30.3 33.175C30.3 34.425 29.325 35.3 27.675 35.3C26.05 35.3 25.125 34.375 25.025 32.975H21.275C21.325 36.275 24.125 38.175 27.75 38.175C31.725 38.175 33.925 35.7 33.925 32.95ZM43.4094 26.8C45.2094 26.8 46.6594 27.95 46.7094 29.775H40.1344C40.4094 27.875 41.7344 26.8 43.4094 26.8ZM49.9844 33.65H46.2094C45.7594 34.575 44.9344 35.325 43.4344 35.325C41.6844 35.325 40.2844 34.175 40.1094 32.125H50.2344C50.3094 31.675 50.3344 31.225 50.3344 30.775C50.3344 26.65 47.5094 23.925 43.5094 23.925C39.4094 23.925 36.5594 26.7 36.5594 31.075C36.5594 35.425 39.4844 38.225 43.5094 38.225C46.9344 38.225 49.2344 36.2 49.9844 33.65ZM72.7641 38H76.2641V29.875C76.2641 26.05 73.9141 23.95 70.5891 23.95C68.5641 23.95 66.7391 25.025 65.8391 26.6C64.8891 24.875 63.1141 23.95 60.9641 23.95C59.2391 23.95 57.7641 24.675 56.8891 25.825V24.15H53.3891V38H56.8891V30.35C56.8891 28.15 58.1141 27 60.0141 27C61.8641 27 63.0891 28.15 63.0891 30.35V38H66.5891V30.35C66.5891 28.15 67.8141 27 69.6891 27C71.5391 27 72.7641 28.15 72.7641 30.35V38ZM86.0354 26.8C87.8354 26.8 89.2854 27.95 89.3354 29.775H82.7604C83.0354 27.875 84.3604 26.8 86.0354 26.8ZM92.6104 33.65H88.8354C88.3854 34.575 87.5604 35.325 86.0604 35.325C84.3104 35.325 82.9104 34.175 82.7354 32.125H92.8604C92.9354 31.675 92.9604 31.225 92.9604 30.775C92.9604 26.65 90.1354 23.925 86.1354 23.925C82.0354 23.925 79.1854 26.7 79.1854 31.075C79.1854 35.425 82.1104 38.225 86.1354 38.225C89.5604 38.225 91.8604 36.2 92.6104 33.65ZM106.765 34.05C106.665 28.975 98.99 30.55 98.99 28.025C98.99 27.225 99.665 26.7 100.965 26.7C102.34 26.7 103.19 27.425 103.29 28.5H106.64C106.44 25.75 104.415 23.925 101.065 23.925C97.64 23.925 95.59 25.775 95.59 28.075C95.59 33.15 103.415 31.575 103.415 34.05C103.415 34.85 102.665 35.475 101.29 35.475C99.89 35.475 98.915 34.675 98.79 33.625H95.265C95.415 36.2 97.84 38.225 101.315 38.225C104.69 38.225 106.765 36.425 106.765 34.05ZM110.688 33.7C110.688 36.875 112.463 38 115.113 38H117.313V35.05H115.688C114.588 35.05 114.213 34.65 114.213 33.725V27.025H117.313V24.15H114.213V20.725H110.688V24.15H109.038V27.025H110.688V33.7ZM126.28 26.8C128.08 26.8 129.53 27.95 129.58 29.775H123.005C123.28 27.875 124.605 26.8 126.28 26.8ZM132.855 33.65H129.08C128.63 34.575 127.805 35.325 126.305 35.325C124.555 35.325 123.155 34.175 122.98 32.125H133.105C133.18 31.675 133.205 31.225 133.205 30.775C133.205 26.65 130.38 23.925 126.38 23.925C122.28 23.925 119.43 26.7 119.43 31.075C119.43 35.425 122.355 38.225 126.38 38.225C129.805 38.225 132.105 36.2 132.855 33.65ZM139.76 31.1C139.76 28.425 141.01 27.625 143.085 27.625H144.01V23.95C142.085 23.95 140.635 24.875 139.76 26.3V24.15H136.26V38H139.76V31.1ZM152.975 24.575H156.4C156.525 23.425 157.25 22.325 158.95 22.325C160.55 22.325 161.425 23.175 161.425 24.6C161.425 26.4 159.925 26.975 157.875 26.975H157.15V29.85H157.875C160.475 29.85 161.775 30.6 161.775 32.65C161.775 34.1 160.875 35.2 159.125 35.2C157.25 35.2 156.2 34.075 156.125 32.5H152.725C152.875 36.325 155.6 38.125 159.2 38.125C163.025 38.125 165.125 35.925 165.125 32.95C165.125 30.475 163.9 28.975 162.05 28.4V28.3C163.375 27.85 164.8 26.45 164.8 24.175C164.8 21.475 162.8 19.35 159.05 19.35C155.55 19.35 153.15 21.2 152.975 24.575Z" fill="white"/>
<rect y="66" width="617" height="50" fill="white"/>
<path d="M24.6 94.44C26.08 94.44 27.24 93.3 27.24 91.84C27.24 90.36 26.08 89.22 24.6 89.22C23.16 89.22 22 90.36 22 91.84C22 93.3 23.16 94.44 24.6 94.44ZM45.6689 84.6H41.1289V98.5H45.6689C50.1289 98.5 53.0489 95.88 53.0489 91.6C53.0489 87.3 50.1289 84.6 45.6689 84.6ZM43.4089 96.64V86.46H45.6689C48.9489 86.46 50.7089 88.42 50.7089 91.6C50.7089 94.76 48.9489 96.64 45.6689 96.64H43.4089ZM55.3086 98.5H57.5886V87.48H55.3086V98.5ZM56.4686 86.02C57.2686 86.02 57.9086 85.38 57.9086 84.56C57.9086 83.74 57.2686 83.1 56.4686 83.1C55.6486 83.1 55.0086 83.74 55.0086 84.56C55.0086 85.38 55.6486 86.02 56.4686 86.02ZM59.822 92.94C59.822 96.34 62.122 98.68 65.022 98.68C66.822 98.68 68.142 97.78 68.842 96.84V98.68C68.842 100.88 67.522 101.96 65.762 101.96C64.182 101.96 62.962 101.18 62.622 100.04H60.362C60.642 102.48 62.822 103.94 65.762 103.94C69.202 103.94 71.142 101.68 71.142 98.68V87.48H68.842V89.08C68.162 88.14 66.822 87.3 65.022 87.3C62.122 87.3 59.822 89.54 59.822 92.94ZM68.842 92.98C68.842 95.36 67.222 96.7 65.502 96.7C63.802 96.7 62.162 95.32 62.162 92.94C62.162 90.56 63.802 89.28 65.502 89.28C67.222 89.28 68.842 90.62 68.842 92.98ZM74.1367 98.5H76.4167V87.48H74.1367V98.5ZM75.2967 86.02C76.0967 86.02 76.7367 85.38 76.7367 84.56C76.7367 83.74 76.0967 83.1 75.2967 83.1C74.4767 83.1 73.8367 83.74 73.8367 84.56C73.8367 85.38 74.4767 86.02 75.2967 86.02ZM79.7702 95.44C79.7702 97.68 80.9902 98.5 82.9502 98.5H84.7502V96.6H83.3502C82.3902 96.6 82.0702 96.26 82.0702 95.44V89.34H84.7502V87.48H82.0702V84.74H79.7702V87.48H78.4702V89.34H79.7702V95.44ZM86.0916 92.94C86.0916 96.34 88.3916 98.68 91.2516 98.68C93.0916 98.68 94.4116 97.8 95.1116 96.86V98.5H97.4116V87.48H95.1116V89.08C94.4316 88.18 93.1516 87.3 91.2916 87.3C88.3916 87.3 86.0916 89.54 86.0916 92.94ZM95.1116 92.98C95.1116 95.36 93.4916 96.7 91.7716 96.7C90.0716 96.7 88.4316 95.32 88.4316 92.94C88.4316 90.56 90.0716 89.28 91.7716 89.28C93.4916 89.28 95.1116 90.62 95.1116 92.98ZM100.406 98.5H102.686V83.7H100.406V98.5ZM110.875 98.5H113.155V88.98L117.415 98.5H118.995L123.235 88.98V98.5H125.515V84.6H123.075L118.215 95.5L113.335 84.6H110.875V98.5ZM133.152 89.22C134.852 89.22 136.192 90.3 136.232 92H130.132C130.372 90.26 131.612 89.22 133.152 89.22ZM138.312 95.22H135.852C135.432 96.08 134.652 96.76 133.252 96.76C131.572 96.76 130.272 95.66 130.112 93.84H138.532C138.592 93.46 138.612 93.1 138.612 92.72C138.612 89.48 136.392 87.3 133.252 87.3C129.992 87.3 127.752 89.52 127.752 92.98C127.752 96.44 130.092 98.68 133.252 98.68C135.952 98.68 137.692 97.14 138.312 95.22ZM141.215 95.44C141.215 97.68 142.435 98.5 144.395 98.5H146.195V96.6H144.795C143.835 96.6 143.515 96.26 143.515 95.44V89.34H146.195V87.48H143.515V84.74H141.215V87.48H139.915V89.34H141.215V95.44ZM148.297 98.5H150.577V92.34C150.577 90.32 151.677 89.28 153.357 89.28C155.017 89.28 156.117 90.32 156.117 92.34V98.5H158.377V92C158.377 88.92 156.457 87.3 153.997 87.3C152.577 87.3 151.337 87.84 150.577 88.76V83.7H148.297V98.5ZM171.785 92.98C171.785 89.52 169.305 87.3 166.165 87.3C163.025 87.3 160.545 89.52 160.545 92.98C160.545 96.44 162.925 98.68 166.065 98.68C169.225 98.68 171.785 96.44 171.785 92.98ZM162.865 92.98C162.865 90.48 164.405 89.28 166.125 89.28C167.825 89.28 169.445 90.48 169.445 92.98C169.445 95.48 167.765 96.7 166.065 96.7C164.345 96.7 162.865 95.48 162.865 92.98ZM173.279 92.94C173.279 96.34 175.579 98.68 178.479 98.68C180.279 98.68 181.599 97.84 182.299 96.84V98.5H184.599V83.7H182.299V89.02C181.459 87.98 179.939 87.3 178.499 87.3C175.579 87.3 173.279 89.54 173.279 92.94ZM182.299 92.98C182.299 95.36 180.679 96.7 178.959 96.7C177.259 96.7 175.619 95.32 175.619 92.94C175.619 90.56 177.259 89.28 178.959 89.28C180.679 89.28 182.299 90.62 182.299 92.98ZM198.094 92.98C198.094 89.52 195.614 87.3 192.474 87.3C189.334 87.3 186.854 89.52 186.854 92.98C186.854 96.44 189.234 98.68 192.374 98.68C195.534 98.68 198.094 96.44 198.094 92.98ZM189.174 92.98C189.174 90.48 190.714 89.28 192.434 89.28C194.134 89.28 195.754 90.48 195.754 92.98C195.754 95.48 194.074 96.7 192.374 96.7C190.654 96.7 189.174 95.48 189.174 92.98ZM200.348 98.5H202.628V83.7H200.348V98.5ZM216.121 92.98C216.121 89.52 213.641 87.3 210.501 87.3C207.361 87.3 204.881 89.52 204.881 92.98C204.881 96.44 207.261 98.68 210.401 98.68C213.561 98.68 216.121 96.44 216.121 92.98ZM207.201 92.98C207.201 90.48 208.741 89.28 210.461 89.28C212.161 89.28 213.781 90.48 213.781 92.98C213.781 95.48 212.101 96.7 210.401 96.7C208.681 96.7 207.201 95.48 207.201 92.98ZM217.615 92.94C217.615 96.34 219.915 98.68 222.815 98.68C224.615 98.68 225.935 97.78 226.635 96.84V98.68C226.635 100.88 225.315 101.96 223.555 101.96C221.975 101.96 220.755 101.18 220.415 100.04H218.155C218.435 102.48 220.615 103.94 223.555 103.94C226.995 103.94 228.935 101.68 228.935 98.68V87.48H226.635V89.08C225.955 88.14 224.615 87.3 222.815 87.3C219.915 87.3 217.615 89.54 217.615 92.94ZM226.635 92.98C226.635 95.36 225.015 96.7 223.295 96.7C221.595 96.7 219.955 95.32 219.955 92.94C219.955 90.56 221.595 89.28 223.295 89.28C225.015 89.28 226.635 90.62 226.635 92.98ZM231.93 98.5H234.21V87.48H231.93V98.5ZM233.09 86.02C233.89 86.02 234.53 85.38 234.53 84.56C234.53 83.74 233.89 83.1 233.09 83.1C232.27 83.1 231.63 83.74 231.63 84.56C231.63 85.38 232.27 86.02 233.09 86.02ZM241.843 89.22C243.543 89.22 244.883 90.3 244.923 92H238.823C239.063 90.26 240.303 89.22 241.843 89.22ZM247.003 95.22H244.543C244.123 96.08 243.343 96.76 241.943 96.76C240.263 96.76 238.963 95.66 238.803 93.84H247.223C247.283 93.46 247.303 93.1 247.303 92.72C247.303 89.48 245.083 87.3 241.943 87.3C238.683 87.3 236.443 89.52 236.443 92.98C236.443 96.44 238.783 98.68 241.943 98.68C244.643 98.68 246.383 97.14 247.003 95.22ZM257.767 95.42C257.647 91.44 251.427 92.68 251.427 90.46C251.427 89.72 252.067 89.22 253.287 89.22C254.527 89.22 255.267 89.88 255.347 90.84H257.627C257.507 88.64 255.867 87.3 253.367 87.3C250.767 87.3 249.127 88.72 249.127 90.48C249.127 94.52 255.527 93.28 255.527 95.44C255.527 96.2 254.827 96.76 253.507 96.76C252.247 96.76 251.387 96.02 251.307 95.12H248.947C249.047 97.12 250.907 98.68 253.547 98.68C256.147 98.68 257.767 97.28 257.767 95.42ZM262.59 97.18C262.59 96.36 261.95 95.72 261.15 95.72C260.33 95.72 259.69 96.36 259.69 97.18C259.69 98 260.33 98.64 261.15 98.64C261.95 98.64 262.59 98 262.59 97.18ZM262.59 88.78C262.59 87.96 261.95 87.32 261.15 87.32C260.33 87.32 259.69 87.96 259.69 88.78C259.69 89.6 260.33 90.24 261.15 90.24C261.95 90.24 262.59 89.6 262.59 88.78ZM270.328 98.5H272.608V88.98L276.868 98.5H278.448L282.688 88.98V98.5H284.968V84.6H282.528L277.668 95.5L272.788 84.6H270.328V98.5ZM298.465 92.98C298.465 89.52 295.985 87.3 292.845 87.3C289.705 87.3 287.225 89.52 287.225 92.98C287.225 96.44 289.605 98.68 292.745 98.68C295.905 98.68 298.465 96.44 298.465 92.98ZM289.545 92.98C289.545 90.48 291.085 89.28 292.805 89.28C294.505 89.28 296.125 90.48 296.125 92.98C296.125 95.48 294.445 96.7 292.745 96.7C291.025 96.7 289.545 95.48 289.545 92.98ZM299.959 92.94C299.959 96.34 302.259 98.68 305.159 98.68C306.959 98.68 308.279 97.84 308.979 96.84V98.5H311.279V83.7H308.979V89.02C308.139 87.98 306.619 87.3 305.179 87.3C302.259 87.3 299.959 89.54 299.959 92.94ZM308.979 92.98C308.979 95.36 307.359 96.7 305.639 96.7C303.939 96.7 302.299 95.32 302.299 92.94C302.299 90.56 303.939 89.28 305.639 89.28C307.359 89.28 308.979 90.62 308.979 92.98ZM318.913 89.22C320.613 89.22 321.953 90.3 321.993 92H315.893C316.133 90.26 317.373 89.22 318.913 89.22ZM324.073 95.22H321.613C321.193 96.08 320.413 96.76 319.013 96.76C317.333 96.76 316.033 95.66 315.873 93.84H324.293C324.353 93.46 324.373 93.1 324.373 92.72C324.373 89.48 322.153 87.3 319.013 87.3C315.753 87.3 313.513 89.52 313.513 92.98C313.513 96.44 315.853 98.68 319.013 98.68C321.713 98.68 323.453 97.14 324.073 95.22ZM326.617 98.5H328.897V83.7H326.617V98.5ZM331.891 98.5H334.171V83.7H331.891V98.5ZM337.164 98.5H339.444V87.48H337.164V98.5ZM338.324 86.02C339.124 86.02 339.764 85.38 339.764 84.56C339.764 83.74 339.124 83.1 338.324 83.1C337.504 83.1 336.864 83.74 336.864 84.56C336.864 85.38 337.504 86.02 338.324 86.02ZM350.258 98.5H352.518V92C352.518 88.92 350.578 87.3 347.998 87.3C346.678 87.3 345.458 87.84 344.718 88.74V87.48H342.438V98.5H344.718V92.34C344.718 90.32 345.818 89.28 347.498 89.28C349.158 89.28 350.258 90.32 350.258 92.34V98.5ZM354.666 92.94C354.666 96.34 356.966 98.68 359.866 98.68C361.666 98.68 362.986 97.78 363.686 96.84V98.68C363.686 100.88 362.366 101.96 360.606 101.96C359.026 101.96 357.806 101.18 357.466 100.04H355.206C355.486 102.48 357.666 103.94 360.606 103.94C364.046 103.94 365.986 101.68 365.986 98.68V87.48H363.686V89.08C363.006 88.14 361.666 87.3 359.866 87.3C356.966 87.3 354.666 89.54 354.666 92.94ZM363.686 92.98C363.686 95.36 362.066 96.7 360.346 96.7C358.646 96.7 357.006 95.32 357.006 92.94C357.006 90.56 358.646 89.28 360.346 89.28C362.066 89.28 363.686 90.62 363.686 92.98Z" fill="#212832"/>
<rect x="0.5" y="66.5" width="616" height="49" stroke="black" stroke-opacity="0.5"/>
<rect y="180" width="617" height="50" fill="white"/>
<path d="M24.6 208.44C26.08 208.44 27.24 207.3 27.24 205.84C27.24 204.36 26.08 203.22 24.6 203.22C23.16 203.22 22 204.36 22 205.84C22 207.3 23.16 208.44 24.6 208.44ZM45.6689 198.6H41.1289V212.5H45.6689C50.1289 212.5 53.0489 209.88 53.0489 205.6C53.0489 201.3 50.1289 198.6 45.6689 198.6ZM43.4089 210.64V200.46H45.6689C48.9489 200.46 50.7089 202.42 50.7089 205.6C50.7089 208.76 48.9489 210.64 45.6689 210.64H43.4089ZM55.3086 212.5H57.5886V201.48H55.3086V212.5ZM56.4686 200.02C57.2686 200.02 57.9086 199.38 57.9086 198.56C57.9086 197.74 57.2686 197.1 56.4686 197.1C55.6486 197.1 55.0086 197.74 55.0086 198.56C55.0086 199.38 55.6486 200.02 56.4686 200.02ZM59.822 206.94C59.822 210.34 62.122 212.68 65.022 212.68C66.822 212.68 68.142 211.78 68.842 210.84V212.68C68.842 214.88 67.522 215.96 65.762 215.96C64.182 215.96 62.962 215.18 62.622 214.04H60.362C60.642 216.48 62.822 217.94 65.762 217.94C69.202 217.94 71.142 215.68 71.142 212.68V201.48H68.842V203.08C68.162 202.14 66.822 201.3 65.022 201.3C62.122 201.3 59.822 203.54 59.822 206.94ZM68.842 206.98C68.842 209.36 67.222 210.7 65.502 210.7C63.802 210.7 62.162 209.32 62.162 206.94C62.162 204.56 63.802 203.28 65.502 203.28C67.222 203.28 68.842 204.62 68.842 206.98ZM74.1367 212.5H76.4167V201.48H74.1367V212.5ZM75.2967 200.02C76.0967 200.02 76.7367 199.38 76.7367 198.56C76.7367 197.74 76.0967 197.1 75.2967 197.1C74.4767 197.1 73.8367 197.74 73.8367 198.56C73.8367 199.38 74.4767 200.02 75.2967 200.02ZM79.7702 209.44C79.7702 211.68 80.9902 212.5 82.9502 212.5H84.7502V210.6H83.3502C82.3902 210.6 82.0702 210.26 82.0702 209.44V203.34H84.7502V201.48H82.0702V198.74H79.7702V201.48H78.4702V203.34H79.7702V209.44ZM86.0916 206.94C86.0916 210.34 88.3916 212.68 91.2516 212.68C93.0916 212.68 94.4116 211.8 95.1116 210.86V212.5H97.4116V201.48H95.1116V203.08C94.4316 202.18 93.1516 201.3 91.2916 201.3C88.3916 201.3 86.0916 203.54 86.0916 206.94ZM95.1116 206.98C95.1116 209.36 93.4916 210.7 91.7716 210.7C90.0716 210.7 88.4316 209.32 88.4316 206.94C88.4316 204.56 90.0716 203.28 91.7716 203.28C93.4916 203.28 95.1116 204.62 95.1116 206.98ZM100.406 212.5H102.686V197.7H100.406V212.5ZM110.875 212.5H113.155V202.98L117.415 212.5H118.995L123.235 202.98V212.5H125.515V198.6H123.075L118.215 209.5L113.335 198.6H110.875V212.5ZM133.152 203.22C134.852 203.22 136.192 204.3 136.232 206H130.132C130.372 204.26 131.612 203.22 133.152 203.22ZM138.312 209.22H135.852C135.432 210.08 134.652 210.76 133.252 210.76C131.572 210.76 130.272 209.66 130.112 207.84H138.532C138.592 207.46 138.612 207.1 138.612 206.72C138.612 203.48 136.392 201.3 133.252 201.3C129.992 201.3 127.752 203.52 127.752 206.98C127.752 210.44 130.092 212.68 133.252 212.68C135.952 212.68 137.692 211.14 138.312 209.22ZM141.215 209.44C141.215 211.68 142.435 212.5 144.395 212.5H146.195V210.6H144.795C143.835 210.6 143.515 210.26 143.515 209.44V203.34H146.195V201.48H143.515V198.74H141.215V201.48H139.915V203.34H141.215V209.44ZM148.297 212.5H150.577V206.34C150.577 204.32 151.677 203.28 153.357 203.28C155.017 203.28 156.117 204.32 156.117 206.34V212.5H158.377V206C158.377 202.92 156.457 201.3 153.997 201.3C152.577 201.3 151.337 201.84 150.577 202.76V197.7H148.297V212.5ZM171.785 206.98C171.785 203.52 169.305 201.3 166.165 201.3C163.025 201.3 160.545 203.52 160.545 206.98C160.545 210.44 162.925 212.68 166.065 212.68C169.225 212.68 171.785 210.44 171.785 206.98ZM162.865 206.98C162.865 204.48 164.405 203.28 166.125 203.28C167.825 203.28 169.445 204.48 169.445 206.98C169.445 209.48 167.765 210.7 166.065 210.7C164.345 210.7 162.865 209.48 162.865 206.98ZM173.279 206.94C173.279 210.34 175.579 212.68 178.479 212.68C180.279 212.68 181.599 211.84 182.299 210.84V212.5H184.599V197.7H182.299V203.02C181.459 201.98 179.939 201.3 178.499 201.3C175.579 201.3 173.279 203.54 173.279 206.94ZM182.299 206.98C182.299 209.36 180.679 210.7 178.959 210.7C177.259 210.7 175.619 209.32 175.619 206.94C175.619 204.56 177.259 203.28 178.959 203.28C180.679 203.28 182.299 204.62 182.299 206.98ZM198.094 206.98C198.094 203.52 195.614 201.3 192.474 201.3C189.334 201.3 186.854 203.52 186.854 206.98C186.854 210.44 189.234 212.68 192.374 212.68C195.534 212.68 198.094 210.44 198.094 206.98ZM189.174 206.98C189.174 204.48 190.714 203.28 192.434 203.28C194.134 203.28 195.754 204.48 195.754 206.98C195.754 209.48 194.074 210.7 192.374 210.7C190.654 210.7 189.174 209.48 189.174 206.98ZM200.348 212.5H202.628V197.7H200.348V212.5ZM216.121 206.98C216.121 203.52 213.641 201.3 210.501 201.3C207.361 201.3 204.881 203.52 204.881 206.98C204.881 210.44 207.261 212.68 210.401 212.68C213.561 212.68 216.121 210.44 216.121 206.98ZM207.201 206.98C207.201 204.48 208.741 203.28 210.461 203.28C212.161 203.28 213.781 204.48 213.781 206.98C213.781 209.48 212.101 210.7 210.401 210.7C208.681 210.7 207.201 209.48 207.201 206.98ZM217.615 206.94C217.615 210.34 219.915 212.68 222.815 212.68C224.615 212.68 225.935 211.78 226.635 210.84V212.68C226.635 214.88 225.315 215.96 223.555 215.96C221.975 215.96 220.755 215.18 220.415 214.04H218.155C218.435 216.48 220.615 217.94 223.555 217.94C226.995 217.94 228.935 215.68 228.935 212.68V201.48H226.635V203.08C225.955 202.14 224.615 201.3 222.815 201.3C219.915 201.3 217.615 203.54 217.615 206.94ZM226.635 206.98C226.635 209.36 225.015 210.7 223.295 210.7C221.595 210.7 219.955 209.32 219.955 206.94C219.955 204.56 221.595 203.28 223.295 203.28C225.015 203.28 226.635 204.62 226.635 206.98ZM231.93 212.5H234.21V201.48H231.93V212.5ZM233.09 200.02C233.89 200.02 234.53 199.38 234.53 198.56C234.53 197.74 233.89 197.1 233.09 197.1C232.27 197.1 231.63 197.74 231.63 198.56C231.63 199.38 232.27 200.02 233.09 200.02ZM241.843 203.22C243.543 203.22 244.883 204.3 244.923 206H238.823C239.063 204.26 240.303 203.22 241.843 203.22ZM247.003 209.22H244.543C244.123 210.08 243.343 210.76 241.943 210.76C240.263 210.76 238.963 209.66 238.803 207.84H247.223C247.283 207.46 247.303 207.1 247.303 206.72C247.303 203.48 245.083 201.3 241.943 201.3C238.683 201.3 236.443 203.52 236.443 206.98C236.443 210.44 238.783 212.68 241.943 212.68C244.643 212.68 246.383 211.14 247.003 209.22ZM257.767 209.42C257.647 205.44 251.427 206.68 251.427 204.46C251.427 203.72 252.067 203.22 253.287 203.22C254.527 203.22 255.267 203.88 255.347 204.84H257.627C257.507 202.64 255.867 201.3 253.367 201.3C250.767 201.3 249.127 202.72 249.127 204.48C249.127 208.52 255.527 207.28 255.527 209.44C255.527 210.2 254.827 210.76 253.507 210.76C252.247 210.76 251.387 210.02 251.307 209.12H248.947C249.047 211.12 250.907 212.68 253.547 212.68C256.147 212.68 257.767 211.28 257.767 209.42ZM262.59 211.18C262.59 210.36 261.95 209.72 261.15 209.72C260.33 209.72 259.69 210.36 259.69 211.18C259.69 212 260.33 212.64 261.15 212.64C261.95 212.64 262.59 212 262.59 211.18ZM262.59 202.78C262.59 201.96 261.95 201.32 261.15 201.32C260.33 201.32 259.69 201.96 259.69 202.78C259.69 203.6 260.33 204.24 261.15 204.24C261.95 204.24 262.59 203.6 262.59 202.78ZM270.328 198.6V212.5H277.308V210.66H272.608V198.6H270.328ZM279.215 212.5H281.495V201.48H279.215V212.5ZM280.375 200.02C281.175 200.02 281.815 199.38 281.815 198.56C281.815 197.74 281.175 197.1 280.375 197.1C279.555 197.1 278.915 197.74 278.915 198.56C278.915 199.38 279.555 200.02 280.375 200.02ZM283.728 206.94C283.728 210.34 286.028 212.68 288.928 212.68C290.728 212.68 292.048 211.78 292.748 210.84V212.68C292.748 214.88 291.428 215.96 289.668 215.96C288.088 215.96 286.868 215.18 286.528 214.04H284.268C284.548 216.48 286.728 217.94 289.668 217.94C293.108 217.94 295.048 215.68 295.048 212.68V201.48H292.748V203.08C292.068 202.14 290.728 201.3 288.928 201.3C286.028 201.3 283.728 203.54 283.728 206.94ZM292.748 206.98C292.748 209.36 291.128 210.7 289.408 210.7C287.708 210.7 286.068 209.32 286.068 206.94C286.068 204.56 287.708 203.28 289.408 203.28C291.128 203.28 292.748 204.62 292.748 206.98ZM298.043 212.5H300.323V206.34C300.323 204.32 301.423 203.28 303.103 203.28C304.763 203.28 305.863 204.32 305.863 206.34V212.5H308.123V206C308.123 202.92 306.203 201.3 303.743 201.3C302.323 201.3 301.083 201.84 300.323 202.76V197.7H298.043V212.5ZM311.391 209.44C311.391 211.68 312.611 212.5 314.571 212.5H316.371V210.6H314.971C314.011 210.6 313.691 210.26 313.691 209.44V203.34H316.371V201.48H313.691V198.74H311.391V201.48H310.091V203.34H311.391V209.44ZM318.473 212.5H320.753V201.48H318.473V212.5ZM319.633 200.02C320.433 200.02 321.073 199.38 321.073 198.56C321.073 197.74 320.433 197.1 319.633 197.1C318.813 197.1 318.173 197.74 318.173 198.56C318.173 199.38 318.813 200.02 319.633 200.02ZM331.566 212.5H333.826V206C333.826 202.92 331.886 201.3 329.306 201.3C327.986 201.3 326.766 201.84 326.026 202.74V201.48H323.746V212.5H326.026V206.34C326.026 204.32 327.126 203.28 328.806 203.28C330.466 203.28 331.566 204.32 331.566 206.34V212.5ZM335.974 206.94C335.974 210.34 338.274 212.68 341.174 212.68C342.974 212.68 344.294 211.78 344.994 210.84V212.68C344.994 214.88 343.674 215.96 341.914 215.96C340.334 215.96 339.114 215.18 338.774 214.04H336.514C336.794 216.48 338.974 217.94 341.914 217.94C345.354 217.94 347.294 215.68 347.294 212.68V201.48H344.994V203.08C344.314 202.14 342.974 201.3 341.174 201.3C338.274 201.3 335.974 203.54 335.974 206.94ZM344.994 206.98C344.994 209.36 343.374 210.7 341.654 210.7C339.954 210.7 338.314 209.32 338.314 206.94C338.314 204.56 339.954 203.28 341.654 203.28C343.374 203.28 344.994 204.62 344.994 206.98ZM364.324 201.7C364.464 199.8 363.164 198.28 360.744 198.28C358.364 198.28 356.884 199.66 356.884 201.48C356.884 202.46 357.164 203.2 357.944 204.14C355.744 205.04 354.684 206.62 354.684 208.5C354.684 211.1 356.684 212.76 359.684 212.76C361.624 212.76 363.164 212.12 364.504 210.78L366.224 212.5H369.204L365.824 209.14C365.984 208.88 366.164 208.6 366.324 208.32L368.124 205.24H365.664L364.244 207.58L360.564 203.92C359.584 202.86 359.164 202.24 359.164 201.48C359.164 200.74 359.744 200.14 360.644 200.14C361.504 200.14 362.084 200.68 362.044 201.7H364.324ZM359.684 210.82C358.044 210.82 356.964 209.76 356.964 208.42C356.964 207.18 357.704 206.22 359.324 205.58L363.004 209.28C362.044 210.3 360.984 210.82 359.684 210.82ZM375.175 200.46H378.895V212.5H381.175V200.46H384.875V198.6H375.175V200.46ZM391.824 203.22C393.524 203.22 394.864 204.3 394.904 206H388.804C389.044 204.26 390.284 203.22 391.824 203.22ZM396.984 209.22H394.524C394.104 210.08 393.324 210.76 391.924 210.76C390.244 210.76 388.944 209.66 388.784 207.84H397.204C397.264 207.46 397.284 207.1 397.284 206.72C397.284 203.48 395.064 201.3 391.924 201.3C388.664 201.3 386.424 203.52 386.424 206.98C386.424 210.44 388.764 212.68 391.924 212.68C394.624 212.68 396.364 211.14 396.984 209.22ZM405.227 212.5H407.807L404.247 206.92L407.807 201.48H405.427L403.187 205.22L400.807 201.48H398.227L401.787 207.08L398.227 212.5H400.607L402.847 208.76L405.227 212.5ZM409.868 209.44C409.868 211.68 411.088 212.5 413.048 212.5H414.848V210.6H413.448C412.488 210.6 412.168 210.26 412.168 209.44V203.34H414.848V201.48H412.168V198.74H409.868V201.48H408.568V203.34H409.868V209.44ZM426.929 201.48H424.649V207.62C424.649 209.64 423.549 210.68 421.869 210.68C420.209 210.68 419.109 209.64 419.109 207.62V201.48H416.849V207.96C416.849 211.04 418.809 212.66 421.389 212.66C422.689 212.66 423.929 212.12 424.649 211.18V212.5H426.929V201.48ZM432.218 206.7C432.218 204.36 433.258 203.66 434.938 203.66H435.518V201.3C433.958 201.3 432.858 201.98 432.218 203.08V201.48H429.938V212.5H432.218V206.7ZM437.613 212.5H439.893V201.48H437.613V212.5ZM438.773 200.02C439.573 200.02 440.213 199.38 440.213 198.56C440.213 197.74 439.573 197.1 438.773 197.1C437.953 197.1 437.313 197.74 437.313 198.56C437.313 199.38 437.953 200.02 438.773 200.02ZM450.707 212.5H452.967V206C452.967 202.92 451.027 201.3 448.447 201.3C447.127 201.3 445.907 201.84 445.167 202.74V201.48H442.887V212.5H445.167V206.34C445.167 204.32 446.267 203.28 447.947 203.28C449.607 203.28 450.707 204.32 450.707 206.34V212.5ZM455.115 206.94C455.115 210.34 457.415 212.68 460.315 212.68C462.115 212.68 463.435 211.78 464.135 210.84V212.68C464.135 214.88 462.815 215.96 461.055 215.96C459.475 215.96 458.255 215.18 457.915 214.04H455.655C455.935 216.48 458.115 217.94 461.055 217.94C464.495 217.94 466.435 215.68 466.435 212.68V201.48H464.135V203.08C463.455 202.14 462.115 201.3 460.315 201.3C457.415 201.3 455.115 203.54 455.115 206.94ZM464.135 206.98C464.135 209.36 462.515 210.7 460.795 210.7C459.095 210.7 457.455 209.32 457.455 206.94C457.455 204.56 459.095 203.28 460.795 203.28C462.515 203.28 464.135 204.62 464.135 206.98Z" fill="#212832"/>
<rect x="0.5" y="180.5" width="616" height="49" stroke="black" stroke-opacity="0.5"/>
<rect y="123" width="617" height="50" fill="white"/>
<path d="M24.6 151.44C26.08 151.44 27.24 150.3 27.24 148.84C27.24 147.36 26.08 146.22 24.6 146.22C23.16 146.22 22 147.36 22 148.84C22 150.3 23.16 151.44 24.6 151.44ZM45.6689 141.6H41.1289V155.5H45.6689C50.1289 155.5 53.0489 152.88 53.0489 148.6C53.0489 144.3 50.1289 141.6 45.6689 141.6ZM43.4089 153.64V143.46H45.6689C48.9489 143.46 50.7089 145.42 50.7089 148.6C50.7089 151.76 48.9489 153.64 45.6689 153.64H43.4089ZM55.3086 155.5H57.5886V144.48H55.3086V155.5ZM56.4686 143.02C57.2686 143.02 57.9086 142.38 57.9086 141.56C57.9086 140.74 57.2686 140.1 56.4686 140.1C55.6486 140.1 55.0086 140.74 55.0086 141.56C55.0086 142.38 55.6486 143.02 56.4686 143.02ZM59.822 149.94C59.822 153.34 62.122 155.68 65.022 155.68C66.822 155.68 68.142 154.78 68.842 153.84V155.68C68.842 157.88 67.522 158.96 65.762 158.96C64.182 158.96 62.962 158.18 62.622 157.04H60.362C60.642 159.48 62.822 160.94 65.762 160.94C69.202 160.94 71.142 158.68 71.142 155.68V144.48H68.842V146.08C68.162 145.14 66.822 144.3 65.022 144.3C62.122 144.3 59.822 146.54 59.822 149.94ZM68.842 149.98C68.842 152.36 67.222 153.7 65.502 153.7C63.802 153.7 62.162 152.32 62.162 149.94C62.162 147.56 63.802 146.28 65.502 146.28C67.222 146.28 68.842 147.62 68.842 149.98ZM74.1367 155.5H76.4167V144.48H74.1367V155.5ZM75.2967 143.02C76.0967 143.02 76.7367 142.38 76.7367 141.56C76.7367 140.74 76.0967 140.1 75.2967 140.1C74.4767 140.1 73.8367 140.74 73.8367 141.56C73.8367 142.38 74.4767 143.02 75.2967 143.02ZM79.7702 152.44C79.7702 154.68 80.9902 155.5 82.9502 155.5H84.7502V153.6H83.3502C82.3902 153.6 82.0702 153.26 82.0702 152.44V146.34H84.7502V144.48H82.0702V141.74H79.7702V144.48H78.4702V146.34H79.7702V152.44ZM86.0916 149.94C86.0916 153.34 88.3916 155.68 91.2516 155.68C93.0916 155.68 94.4116 154.8 95.1116 153.86V155.5H97.4116V144.48H95.1116V146.08C94.4316 145.18 93.1516 144.3 91.2916 144.3C88.3916 144.3 86.0916 146.54 86.0916 149.94ZM95.1116 149.98C95.1116 152.36 93.4916 153.7 91.7716 153.7C90.0716 153.7 88.4316 152.32 88.4316 149.94C88.4316 147.56 90.0716 146.28 91.7716 146.28C93.4916 146.28 95.1116 147.62 95.1116 149.98ZM100.406 155.5H102.686V140.7H100.406V155.5ZM110.875 155.5H113.155V145.98L117.415 155.5H118.995L123.235 145.98V155.5H125.515V141.6H123.075L118.215 152.5L113.335 141.6H110.875V155.5ZM133.152 146.22C134.852 146.22 136.192 147.3 136.232 149H130.132C130.372 147.26 131.612 146.22 133.152 146.22ZM138.312 152.22H135.852C135.432 153.08 134.652 153.76 133.252 153.76C131.572 153.76 130.272 152.66 130.112 150.84H138.532C138.592 150.46 138.612 150.1 138.612 149.72C138.612 146.48 136.392 144.3 133.252 144.3C129.992 144.3 127.752 146.52 127.752 149.98C127.752 153.44 130.092 155.68 133.252 155.68C135.952 155.68 137.692 154.14 138.312 152.22ZM141.215 152.44C141.215 154.68 142.435 155.5 144.395 155.5H146.195V153.6H144.795C143.835 153.6 143.515 153.26 143.515 152.44V146.34H146.195V144.48H143.515V141.74H141.215V144.48H139.915V146.34H141.215V152.44ZM148.297 155.5H150.577V149.34C150.577 147.32 151.677 146.28 153.357 146.28C155.017 146.28 156.117 147.32 156.117 149.34V155.5H158.377V149C158.377 145.92 156.457 144.3 153.997 144.3C152.577 144.3 151.337 144.84 150.577 145.76V140.7H148.297V155.5ZM171.785 149.98C171.785 146.52 169.305 144.3 166.165 144.3C163.025 144.3 160.545 146.52 160.545 149.98C160.545 153.44 162.925 155.68 166.065 155.68C169.225 155.68 171.785 153.44 171.785 149.98ZM162.865 149.98C162.865 147.48 164.405 146.28 166.125 146.28C167.825 146.28 169.445 147.48 169.445 149.98C169.445 152.48 167.765 153.7 166.065 153.7C164.345 153.7 162.865 152.48 162.865 149.98ZM173.279 149.94C173.279 153.34 175.579 155.68 178.479 155.68C180.279 155.68 181.599 154.84 182.299 153.84V155.5H184.599V140.7H182.299V146.02C181.459 144.98 179.939 144.3 178.499 144.3C175.579 144.3 173.279 146.54 173.279 149.94ZM182.299 149.98C182.299 152.36 180.679 153.7 178.959 153.7C177.259 153.7 175.619 152.32 175.619 149.94C175.619 147.56 177.259 146.28 178.959 146.28C180.679 146.28 182.299 147.62 182.299 149.98ZM198.094 149.98C198.094 146.52 195.614 144.3 192.474 144.3C189.334 144.3 186.854 146.52 186.854 149.98C186.854 153.44 189.234 155.68 192.374 155.68C195.534 155.68 198.094 153.44 198.094 149.98ZM189.174 149.98C189.174 147.48 190.714 146.28 192.434 146.28C194.134 146.28 195.754 147.48 195.754 149.98C195.754 152.48 194.074 153.7 192.374 153.7C190.654 153.7 189.174 152.48 189.174 149.98ZM200.348 155.5H202.628V140.7H200.348V155.5ZM216.121 149.98C216.121 146.52 213.641 144.3 210.501 144.3C207.361 144.3 204.881 146.52 204.881 149.98C204.881 153.44 207.261 155.68 210.401 155.68C213.561 155.68 216.121 153.44 216.121 149.98ZM207.201 149.98C207.201 147.48 208.741 146.28 210.461 146.28C212.161 146.28 213.781 147.48 213.781 149.98C213.781 152.48 212.101 153.7 210.401 153.7C208.681 153.7 207.201 152.48 207.201 149.98ZM217.615 149.94C217.615 153.34 219.915 155.68 222.815 155.68C224.615 155.68 225.935 154.78 226.635 153.84V155.68C226.635 157.88 225.315 158.96 223.555 158.96C221.975 158.96 220.755 158.18 220.415 157.04H218.155C218.435 159.48 220.615 160.94 223.555 160.94C226.995 160.94 228.935 158.68 228.935 155.68V144.48H226.635V146.08C225.955 145.14 224.615 144.3 222.815 144.3C219.915 144.3 217.615 146.54 217.615 149.94ZM226.635 149.98C226.635 152.36 225.015 153.7 223.295 153.7C221.595 153.7 219.955 152.32 219.955 149.94C219.955 147.56 221.595 146.28 223.295 146.28C225.015 146.28 226.635 147.62 226.635 149.98ZM231.93 155.5H234.21V144.48H231.93V155.5ZM233.09 143.02C233.89 143.02 234.53 142.38 234.53 141.56C234.53 140.74 233.89 140.1 233.09 140.1C232.27 140.1 231.63 140.74 231.63 141.56C231.63 142.38 232.27 143.02 233.09 143.02ZM241.843 146.22C243.543 146.22 244.883 147.3 244.923 149H238.823C239.063 147.26 240.303 146.22 241.843 146.22ZM247.003 152.22H244.543C244.123 153.08 243.343 153.76 241.943 153.76C240.263 153.76 238.963 152.66 238.803 150.84H247.223C247.283 150.46 247.303 150.1 247.303 149.72C247.303 146.48 245.083 144.3 241.943 144.3C238.683 144.3 236.443 146.52 236.443 149.98C236.443 153.44 238.783 155.68 241.943 155.68C244.643 155.68 246.383 154.14 247.003 152.22ZM257.767 152.42C257.647 148.44 251.427 149.68 251.427 147.46C251.427 146.72 252.067 146.22 253.287 146.22C254.527 146.22 255.267 146.88 255.347 147.84H257.627C257.507 145.64 255.867 144.3 253.367 144.3C250.767 144.3 249.127 145.72 249.127 147.48C249.127 151.52 255.527 150.28 255.527 152.44C255.527 153.2 254.827 153.76 253.507 153.76C252.247 153.76 251.387 153.02 251.307 152.12H248.947C249.047 154.12 250.907 155.68 253.547 155.68C256.147 155.68 257.767 154.28 257.767 152.42ZM262.59 154.18C262.59 153.36 261.95 152.72 261.15 152.72C260.33 152.72 259.69 153.36 259.69 154.18C259.69 155 260.33 155.64 261.15 155.64C261.95 155.64 262.59 155 262.59 154.18ZM262.59 145.78C262.59 144.96 261.95 144.32 261.15 144.32C260.33 144.32 259.69 144.96 259.69 145.78C259.69 146.6 260.33 147.24 261.15 147.24C261.95 147.24 262.59 146.6 262.59 145.78ZM269.568 148.52C269.568 152.7 272.748 155.62 276.668 155.62C279.568 155.62 282.068 154.18 283.128 151.46H280.388C279.648 152.94 278.328 153.64 276.668 153.64C273.908 153.64 271.908 151.66 271.908 148.52C271.908 145.38 273.908 143.42 276.668 143.42C278.328 143.42 279.648 144.12 280.388 145.6H283.128C282.068 142.88 279.568 141.42 276.668 141.42C272.748 141.42 269.568 144.36 269.568 148.52ZM285.797 155.5H288.077V149.34C288.077 147.32 289.177 146.28 290.857 146.28C292.517 146.28 293.617 147.32 293.617 149.34V155.5H295.877V149C295.877 145.92 293.957 144.3 291.497 144.3C290.077 144.3 288.837 144.84 288.077 145.76V140.7H285.797V155.5ZM298.025 149.94C298.025 153.34 300.325 155.68 303.185 155.68C305.025 155.68 306.345 154.8 307.045 153.86V155.5H309.345V144.48H307.045V146.08C306.365 145.18 305.085 144.3 303.225 144.3C300.325 144.3 298.025 146.54 298.025 149.94ZM307.045 149.98C307.045 152.36 305.425 153.7 303.705 153.7C302.005 153.7 300.365 152.32 300.365 149.94C300.365 147.56 302.005 146.28 303.705 146.28C305.425 146.28 307.045 147.62 307.045 149.98ZM314.62 149.7C314.62 147.36 315.66 146.66 317.34 146.66H317.92V144.3C316.36 144.3 315.26 144.98 314.62 146.08V144.48H312.34V155.5H314.62V149.7ZM319.256 149.94C319.256 153.34 321.556 155.68 324.416 155.68C326.256 155.68 327.576 154.8 328.276 153.86V155.5H330.576V144.48H328.276V146.08C327.596 145.18 326.316 144.3 324.456 144.3C321.556 144.3 319.256 146.54 319.256 149.94ZM328.276 149.98C328.276 152.36 326.656 153.7 324.936 153.7C323.236 153.7 321.596 152.32 321.596 149.94C321.596 147.56 323.236 146.28 324.936 146.28C326.656 146.28 328.276 147.62 328.276 149.98ZM332.81 149.98C332.81 153.44 335.05 155.68 338.21 155.68C340.91 155.68 342.67 154.18 343.29 152.02H340.83C340.41 153.16 339.57 153.76 338.21 153.76C336.37 153.76 335.15 152.4 335.15 149.98C335.15 147.58 336.37 146.22 338.21 146.22C339.57 146.22 340.45 146.9 340.83 147.96H343.29C342.67 145.64 340.91 144.3 338.21 144.3C335.05 144.3 332.81 146.54 332.81 149.98ZM345.923 152.44C345.923 154.68 347.143 155.5 349.103 155.5H350.903V153.6H349.503C348.543 153.6 348.223 153.26 348.223 152.44V146.34H350.903V144.48H348.223V141.74H345.923V144.48H344.623V146.34H345.923V152.44ZM357.644 146.22C359.344 146.22 360.684 147.3 360.724 149H354.624C354.864 147.26 356.104 146.22 357.644 146.22ZM362.804 152.22H360.344C359.924 153.08 359.144 153.76 357.744 153.76C356.064 153.76 354.764 152.66 354.604 150.84H363.024C363.084 150.46 363.104 150.1 363.104 149.72C363.104 146.48 360.884 144.3 357.744 144.3C354.484 144.3 352.244 146.52 352.244 149.98C352.244 153.44 354.584 155.68 357.744 155.68C360.444 155.68 362.184 154.14 362.804 152.22ZM367.628 149.7C367.628 147.36 368.668 146.66 370.348 146.66H370.928V144.3C369.368 144.3 368.268 144.98 367.628 146.08V144.48H365.348V155.5H367.628V149.7ZM378.219 155.5H380.499V145.98L384.759 155.5H386.339L390.579 145.98V155.5H392.859V141.6H390.419L385.559 152.5L380.679 141.6H378.219V155.5ZM406.355 149.98C406.355 146.52 403.875 144.3 400.735 144.3C397.595 144.3 395.115 146.52 395.115 149.98C395.115 153.44 397.495 155.68 400.635 155.68C403.795 155.68 406.355 153.44 406.355 149.98ZM397.435 149.98C397.435 147.48 398.975 146.28 400.695 146.28C402.395 146.28 404.015 147.48 404.015 149.98C404.015 152.48 402.335 153.7 400.635 153.7C398.915 153.7 397.435 152.48 397.435 149.98ZM407.849 149.94C407.849 153.34 410.149 155.68 413.049 155.68C414.849 155.68 416.169 154.84 416.869 153.84V155.5H419.169V140.7H416.869V146.02C416.029 144.98 414.509 144.3 413.069 144.3C410.149 144.3 407.849 146.54 407.849 149.94ZM416.869 149.98C416.869 152.36 415.249 153.7 413.529 153.7C411.829 153.7 410.189 152.32 410.189 149.94C410.189 147.56 411.829 146.28 413.529 146.28C415.249 146.28 416.869 147.62 416.869 149.98ZM426.804 146.22C428.504 146.22 429.844 147.3 429.884 149H423.784C424.024 147.26 425.264 146.22 426.804 146.22ZM431.964 152.22H429.504C429.084 153.08 428.304 153.76 426.904 153.76C425.224 153.76 423.924 152.66 423.764 150.84H432.184C432.244 150.46 432.264 150.1 432.264 149.72C432.264 146.48 430.044 144.3 426.904 144.3C423.644 144.3 421.404 146.52 421.404 149.98C421.404 153.44 423.744 155.68 426.904 155.68C429.604 155.68 431.344 154.14 431.964 152.22ZM434.508 155.5H436.788V140.7H434.508V155.5ZM439.781 155.5H442.061V140.7H439.781V155.5ZM445.055 155.5H447.335V144.48H445.055V155.5ZM446.215 143.02C447.015 143.02 447.655 142.38 447.655 141.56C447.655 140.74 447.015 140.1 446.215 140.1C445.395 140.1 444.755 140.74 444.755 141.56C444.755 142.38 445.395 143.02 446.215 143.02ZM458.148 155.5H460.408V149C460.408 145.92 458.468 144.3 455.888 144.3C454.568 144.3 453.348 144.84 452.608 145.74V144.48H450.328V155.5H452.608V149.34C452.608 147.32 453.708 146.28 455.388 146.28C457.048 146.28 458.148 147.32 458.148 149.34V155.5ZM462.556 149.94C462.556 153.34 464.856 155.68 467.756 155.68C469.556 155.68 470.876 154.78 471.576 153.84V155.68C471.576 157.88 470.256 158.96 468.496 158.96C466.916 158.96 465.696 158.18 465.356 157.04H463.096C463.376 159.48 465.556 160.94 468.496 160.94C471.936 160.94 473.876 158.68 473.876 155.68V144.48H471.576V146.08C470.896 145.14 469.556 144.3 467.756 144.3C464.856 144.3 462.556 146.54 462.556 149.94ZM471.576 149.98C471.576 152.36 469.956 153.7 468.236 153.7C466.536 153.7 464.896 152.32 464.896 149.94C464.896 147.56 466.536 146.28 468.236 146.28C469.956 146.28 471.576 147.62 471.576 149.98Z" fill="#212832"/>
<rect x="0.5" y="123.5" width="616" height="49" stroke="black" stroke-opacity="0.5"/>
<rect y="237" width="617" height="50" fill="white"/>
<path d="M24.6 265.44C26.08 265.44 27.24 264.3 27.24 262.84C27.24 261.36 26.08 260.22 24.6 260.22C23.16 260.22 22 261.36 22 262.84C22 264.3 23.16 265.44 24.6 265.44ZM45.6689 255.6H41.1289V269.5H45.6689C50.1289 269.5 53.0489 266.88 53.0489 262.6C53.0489 258.3 50.1289 255.6 45.6689 255.6ZM43.4089 267.64V257.46H45.6689C48.9489 257.46 50.7089 259.42 50.7089 262.6C50.7089 265.76 48.9489 267.64 45.6689 267.64H43.4089ZM55.3086 269.5H57.5886V258.48H55.3086V269.5ZM56.4686 257.02C57.2686 257.02 57.9086 256.38 57.9086 255.56C57.9086 254.74 57.2686 254.1 56.4686 254.1C55.6486 254.1 55.0086 254.74 55.0086 255.56C55.0086 256.38 55.6486 257.02 56.4686 257.02ZM59.822 263.94C59.822 267.34 62.122 269.68 65.022 269.68C66.822 269.68 68.142 268.78 68.842 267.84V269.68C68.842 271.88 67.522 272.96 65.762 272.96C64.182 272.96 62.962 272.18 62.622 271.04H60.362C60.642 273.48 62.822 274.94 65.762 274.94C69.202 274.94 71.142 272.68 71.142 269.68V258.48H68.842V260.08C68.162 259.14 66.822 258.3 65.022 258.3C62.122 258.3 59.822 260.54 59.822 263.94ZM68.842 263.98C68.842 266.36 67.222 267.7 65.502 267.7C63.802 267.7 62.162 266.32 62.162 263.94C62.162 261.56 63.802 260.28 65.502 260.28C67.222 260.28 68.842 261.62 68.842 263.98ZM74.1367 269.5H76.4167V258.48H74.1367V269.5ZM75.2967 257.02C76.0967 257.02 76.7367 256.38 76.7367 255.56C76.7367 254.74 76.0967 254.1 75.2967 254.1C74.4767 254.1 73.8367 254.74 73.8367 255.56C73.8367 256.38 74.4767 257.02 75.2967 257.02ZM79.7702 266.44C79.7702 268.68 80.9902 269.5 82.9502 269.5H84.7502V267.6H83.3502C82.3902 267.6 82.0702 267.26 82.0702 266.44V260.34H84.7502V258.48H82.0702V255.74H79.7702V258.48H78.4702V260.34H79.7702V266.44ZM86.0916 263.94C86.0916 267.34 88.3916 269.68 91.2516 269.68C93.0916 269.68 94.4116 268.8 95.1116 267.86V269.5H97.4116V258.48H95.1116V260.08C94.4316 259.18 93.1516 258.3 91.2916 258.3C88.3916 258.3 86.0916 260.54 86.0916 263.94ZM95.1116 263.98C95.1116 266.36 93.4916 267.7 91.7716 267.7C90.0716 267.7 88.4316 266.32 88.4316 263.94C88.4316 261.56 90.0716 260.28 91.7716 260.28C93.4916 260.28 95.1116 261.62 95.1116 263.98ZM100.406 269.5H102.686V254.7H100.406V269.5ZM110.875 269.5H113.155V259.98L117.415 269.5H118.995L123.235 259.98V269.5H125.515V255.6H123.075L118.215 266.5L113.335 255.6H110.875V269.5ZM133.152 260.22C134.852 260.22 136.192 261.3 136.232 263H130.132C130.372 261.26 131.612 260.22 133.152 260.22ZM138.312 266.22H135.852C135.432 267.08 134.652 267.76 133.252 267.76C131.572 267.76 130.272 266.66 130.112 264.84H138.532C138.592 264.46 138.612 264.1 138.612 263.72C138.612 260.48 136.392 258.3 133.252 258.3C129.992 258.3 127.752 260.52 127.752 263.98C127.752 267.44 130.092 269.68 133.252 269.68C135.952 269.68 137.692 268.14 138.312 266.22ZM141.215 266.44C141.215 268.68 142.435 269.5 144.395 269.5H146.195V267.6H144.795C143.835 267.6 143.515 267.26 143.515 266.44V260.34H146.195V258.48H143.515V255.74H141.215V258.48H139.915V260.34H141.215V266.44ZM148.297 269.5H150.577V263.34C150.577 261.32 151.677 260.28 153.357 260.28C155.017 260.28 156.117 261.32 156.117 263.34V269.5H158.377V263C158.377 259.92 156.457 258.3 153.997 258.3C152.577 258.3 151.337 258.84 150.577 259.76V254.7H148.297V269.5ZM171.785 263.98C171.785 260.52 169.305 258.3 166.165 258.3C163.025 258.3 160.545 260.52 160.545 263.98C160.545 267.44 162.925 269.68 166.065 269.68C169.225 269.68 171.785 267.44 171.785 263.98ZM162.865 263.98C162.865 261.48 164.405 260.28 166.125 260.28C167.825 260.28 169.445 261.48 169.445 263.98C169.445 266.48 167.765 267.7 166.065 267.7C164.345 267.7 162.865 266.48 162.865 263.98ZM173.279 263.94C173.279 267.34 175.579 269.68 178.479 269.68C180.279 269.68 181.599 268.84 182.299 267.84V269.5H184.599V254.7H182.299V260.02C181.459 258.98 179.939 258.3 178.499 258.3C175.579 258.3 173.279 260.54 173.279 263.94ZM182.299 263.98C182.299 266.36 180.679 267.7 178.959 267.7C177.259 267.7 175.619 266.32 175.619 263.94C175.619 261.56 177.259 260.28 178.959 260.28C180.679 260.28 182.299 261.62 182.299 263.98ZM198.094 263.98C198.094 260.52 195.614 258.3 192.474 258.3C189.334 258.3 186.854 260.52 186.854 263.98C186.854 267.44 189.234 269.68 192.374 269.68C195.534 269.68 198.094 267.44 198.094 263.98ZM189.174 263.98C189.174 261.48 190.714 260.28 192.434 260.28C194.134 260.28 195.754 261.48 195.754 263.98C195.754 266.48 194.074 267.7 192.374 267.7C190.654 267.7 189.174 266.48 189.174 263.98ZM200.348 269.5H202.628V254.7H200.348V269.5ZM216.121 263.98C216.121 260.52 213.641 258.3 210.501 258.3C207.361 258.3 204.881 260.52 204.881 263.98C204.881 267.44 207.261 269.68 210.401 269.68C213.561 269.68 216.121 267.44 216.121 263.98ZM207.201 263.98C207.201 261.48 208.741 260.28 210.461 260.28C212.161 260.28 213.781 261.48 213.781 263.98C213.781 266.48 212.101 267.7 210.401 267.7C208.681 267.7 207.201 266.48 207.201 263.98ZM217.615 263.94C217.615 267.34 219.915 269.68 222.815 269.68C224.615 269.68 225.935 268.78 226.635 267.84V269.68C226.635 271.88 225.315 272.96 223.555 272.96C221.975 272.96 220.755 272.18 220.415 271.04H218.155C218.435 273.48 220.615 274.94 223.555 274.94C226.995 274.94 228.935 272.68 228.935 269.68V258.48H226.635V260.08C225.955 259.14 224.615 258.3 222.815 258.3C219.915 258.3 217.615 260.54 217.615 263.94ZM226.635 263.98C226.635 266.36 225.015 267.7 223.295 267.7C221.595 267.7 219.955 266.32 219.955 263.94C219.955 261.56 221.595 260.28 223.295 260.28C225.015 260.28 226.635 261.62 226.635 263.98ZM231.93 269.5H234.21V258.48H231.93V269.5ZM233.09 257.02C233.89 257.02 234.53 256.38 234.53 255.56C234.53 254.74 233.89 254.1 233.09 254.1C232.27 254.1 231.63 254.74 231.63 255.56C231.63 256.38 232.27 257.02 233.09 257.02ZM241.843 260.22C243.543 260.22 244.883 261.3 244.923 263H238.823C239.063 261.26 240.303 260.22 241.843 260.22ZM247.003 266.22H244.543C244.123 267.08 243.343 267.76 241.943 267.76C240.263 267.76 238.963 266.66 238.803 264.84H247.223C247.283 264.46 247.303 264.1 247.303 263.72C247.303 260.48 245.083 258.3 241.943 258.3C238.683 258.3 236.443 260.52 236.443 263.98C236.443 267.44 238.783 269.68 241.943 269.68C244.643 269.68 246.383 268.14 247.003 266.22ZM257.767 266.42C257.647 262.44 251.427 263.68 251.427 261.46C251.427 260.72 252.067 260.22 253.287 260.22C254.527 260.22 255.267 260.88 255.347 261.84H257.627C257.507 259.64 255.867 258.3 253.367 258.3C250.767 258.3 249.127 259.72 249.127 261.48C249.127 265.52 255.527 264.28 255.527 266.44C255.527 267.2 254.827 267.76 253.507 267.76C252.247 267.76 251.387 267.02 251.307 266.12H248.947C249.047 268.12 250.907 269.68 253.547 269.68C256.147 269.68 257.767 268.28 257.767 266.42ZM262.59 268.18C262.59 267.36 261.95 266.72 261.15 266.72C260.33 266.72 259.69 267.36 259.69 268.18C259.69 269 260.33 269.64 261.15 269.64C261.95 269.64 262.59 269 262.59 268.18ZM262.59 259.78C262.59 258.96 261.95 258.32 261.15 258.32C260.33 258.32 259.69 258.96 259.69 259.78C259.69 260.6 260.33 261.24 261.15 261.24C261.95 261.24 262.59 260.6 262.59 259.78ZM270.328 269.5H272.608V255.6H270.328V269.5ZM283.422 269.5H285.682V263C285.682 259.92 283.742 258.3 281.162 258.3C279.842 258.3 278.622 258.84 277.882 259.74V258.48H275.602V269.5H277.882V263.34C277.882 261.32 278.982 260.28 280.662 260.28C282.322 260.28 283.422 261.32 283.422 263.34V269.5ZM288.95 266.44C288.95 268.68 290.17 269.5 292.13 269.5H293.93V267.6H292.53C291.57 267.6 291.25 267.26 291.25 266.44V260.34H293.93V258.48H291.25V255.74H288.95V258.48H287.65V260.34H288.95V266.44ZM298.311 263.7C298.311 261.36 299.351 260.66 301.031 260.66H301.611V258.3C300.051 258.3 298.951 258.98 298.311 260.08V258.48H296.031V269.5H298.311V263.7ZM314.207 263.98C314.207 260.52 311.727 258.3 308.587 258.3C305.447 258.3 302.967 260.52 302.967 263.98C302.967 267.44 305.347 269.68 308.487 269.68C311.647 269.68 314.207 267.44 314.207 263.98ZM305.287 263.98C305.287 261.48 306.827 260.28 308.547 260.28C310.247 260.28 311.867 261.48 311.867 263.98C311.867 266.48 310.187 267.7 308.487 267.7C306.767 267.7 305.287 266.48 305.287 263.98ZM315.701 263.94C315.701 267.34 318.001 269.68 320.901 269.68C322.701 269.68 324.021 268.84 324.721 267.84V269.5H327.021V254.7H324.721V260.02C323.881 258.98 322.361 258.3 320.921 258.3C318.001 258.3 315.701 260.54 315.701 263.94ZM324.721 263.98C324.721 266.36 323.101 267.7 321.381 267.7C319.681 267.7 318.041 266.32 318.041 263.94C318.041 261.56 319.681 260.28 321.381 260.28C323.101 260.28 324.721 261.62 324.721 263.98ZM339.996 258.48H337.716V264.62C337.716 266.64 336.616 267.68 334.936 267.68C333.276 267.68 332.176 266.64 332.176 264.62V258.48H329.916V264.96C329.916 268.04 331.876 269.66 334.456 269.66C335.756 269.66 336.996 269.12 337.716 268.18V269.5H339.996V258.48ZM342.244 263.98C342.244 267.44 344.484 269.68 347.644 269.68C350.344 269.68 352.104 268.18 352.724 266.02H350.264C349.844 267.16 349.004 267.76 347.644 267.76C345.804 267.76 344.584 266.4 344.584 263.98C344.584 261.58 345.804 260.22 347.644 260.22C349.004 260.22 349.884 260.9 350.264 261.96H352.724C352.104 259.64 350.344 258.3 347.644 258.3C344.484 258.3 342.244 260.54 342.244 263.98ZM355.356 266.44C355.356 268.68 356.576 269.5 358.536 269.5H360.336V267.6H358.936C357.976 267.6 357.656 267.26 357.656 266.44V260.34H360.336V258.48H357.656V255.74H355.356V258.48H354.056V260.34H355.356V266.44ZM362.438 269.5H364.718V258.48H362.438V269.5ZM363.598 257.02C364.398 257.02 365.038 256.38 365.038 255.56C365.038 254.74 364.398 254.1 363.598 254.1C362.778 254.1 362.138 254.74 362.138 255.56C362.138 256.38 362.778 257.02 363.598 257.02ZM378.211 263.98C378.211 260.52 375.731 258.3 372.591 258.3C369.451 258.3 366.971 260.52 366.971 263.98C366.971 267.44 369.351 269.68 372.491 269.68C375.651 269.68 378.211 267.44 378.211 263.98ZM369.291 263.98C369.291 261.48 370.831 260.28 372.551 260.28C374.251 260.28 375.871 261.48 375.871 263.98C375.871 266.48 374.191 267.7 372.491 267.7C370.771 267.7 369.291 266.48 369.291 263.98ZM388.285 269.5H390.545V263C390.545 259.92 388.605 258.3 386.025 258.3C384.705 258.3 383.485 258.84 382.745 259.74V258.48H380.465V269.5H382.745V263.34C382.745 261.32 383.845 260.28 385.525 260.28C387.185 260.28 388.285 261.32 388.285 263.34V269.5ZM399.008 266.44C399.008 268.68 400.228 269.5 402.188 269.5H403.988V267.6H402.588C401.628 267.6 401.308 267.26 401.308 266.44V260.34H403.988V258.48H401.308V255.74H399.008V258.48H397.708V260.34H399.008V266.44ZM416.59 263.98C416.59 260.52 414.11 258.3 410.97 258.3C407.83 258.3 405.35 260.52 405.35 263.98C405.35 267.44 407.73 269.68 410.87 269.68C414.03 269.68 416.59 267.44 416.59 263.98ZM407.67 263.98C407.67 261.48 409.21 260.28 410.93 260.28C412.63 260.28 414.25 261.48 414.25 263.98C414.25 266.48 412.57 267.7 410.87 267.7C409.15 267.7 407.67 266.48 407.67 263.98ZM428.579 255.6H424.039V269.5H428.579C433.039 269.5 435.959 266.88 435.959 262.6C435.959 258.3 433.039 255.6 428.579 255.6ZM426.319 267.64V257.46H428.579C431.859 257.46 433.619 259.42 433.619 262.6C433.619 265.76 431.859 267.64 428.579 267.64H426.319ZM442.559 266.88L439.459 258.48H436.919L441.259 269.32L439.019 274.68H441.379L448.139 258.48H445.779L442.559 266.88ZM457.679 269.5H459.939V263C459.939 259.92 457.999 258.3 455.419 258.3C454.099 258.3 452.879 258.84 452.139 259.74V258.48H449.859V269.5H452.139V263.34C452.139 261.32 453.239 260.28 454.919 260.28C456.579 260.28 457.679 261.32 457.679 263.34V269.5ZM462.088 263.94C462.088 267.34 464.388 269.68 467.248 269.68C469.088 269.68 470.408 268.8 471.108 267.86V269.5H473.408V258.48H471.108V260.08C470.428 259.18 469.148 258.3 467.288 258.3C464.388 258.3 462.088 260.54 462.088 263.94ZM471.108 263.98C471.108 266.36 469.488 267.7 467.768 267.7C466.068 267.7 464.428 266.32 464.428 263.94C464.428 261.56 466.068 260.28 467.768 260.28C469.488 260.28 471.108 261.62 471.108 263.98ZM492.022 269.5H494.282V263C494.282 259.92 492.322 258.3 489.742 258.3C488.142 258.3 486.582 259.14 485.902 260.48C485.142 259.04 483.682 258.3 481.942 258.3C480.622 258.3 479.422 258.84 478.682 259.74V258.48H476.402V269.5H478.682V263.34C478.682 261.32 479.782 260.28 481.462 260.28C483.122 260.28 484.222 261.32 484.222 263.34V269.5H486.482V263.34C486.482 261.32 487.582 260.28 489.262 260.28C490.922 260.28 492.022 261.32 492.022 263.34V269.5ZM497.184 269.5H499.464V258.48H497.184V269.5ZM498.344 257.02C499.144 257.02 499.784 256.38 499.784 255.56C499.784 254.74 499.144 254.1 498.344 254.1C497.524 254.1 496.884 254.74 496.884 255.56C496.884 256.38 497.524 257.02 498.344 257.02ZM501.697 263.98C501.697 267.44 503.937 269.68 507.097 269.68C509.797 269.68 511.557 268.18 512.177 266.02H509.717C509.297 267.16 508.457 267.76 507.097 267.76C505.257 267.76 504.037 266.4 504.037 263.98C504.037 261.58 505.257 260.22 507.097 260.22C508.457 260.22 509.337 260.9 509.717 261.96H512.177C511.557 259.64 509.797 258.3 507.097 258.3C503.937 258.3 501.697 260.54 501.697 263.98ZM522.669 266.42C522.549 262.44 516.329 263.68 516.329 261.46C516.329 260.72 516.969 260.22 518.189 260.22C519.429 260.22 520.169 260.88 520.249 261.84H522.529C522.409 259.64 520.769 258.3 518.269 258.3C515.669 258.3 514.029 259.72 514.029 261.48C514.029 265.52 520.429 264.28 520.429 266.44C520.429 267.2 519.729 267.76 518.409 267.76C517.149 267.76 516.289 267.02 516.209 266.12H513.849C513.949 268.12 515.809 269.68 518.449 269.68C521.049 269.68 522.669 268.28 522.669 266.42Z" fill="#212832"/>
<rect x="0.5" y="237.5" width="616" height="49" stroke="black" stroke-opacity="0.5"/>
</svg>
