<svg width="633" height="315" viewBox="0 0 633 315" fill="none" xmlns="http://www.w3.org/2000/svg">
<path d="M303.344 121.375C302.993 120.648 302.617 119.921 302.191 119.195L303.344 118.543C303.77 119.295 304.171 120.047 304.547 120.798L303.344 121.375ZM300.914 117.09C300.463 116.413 299.986 115.737 299.51 115.06L300.588 114.259C301.089 114.96 301.59 115.662 302.041 116.363L300.914 117.09ZM167.812 131.848C166.96 131.949 166.109 131.999 165.282 132.049L165.206 130.721C166.008 130.671 166.86 130.596 167.687 130.52L167.812 131.848ZM170.343 131.523L170.143 130.195C170.944 130.069 171.771 129.919 172.573 129.769L172.849 131.072C171.997 131.247 171.145 131.397 170.343 131.523ZM162.726 132.149C161.874 132.149 161.022 132.149 160.17 132.099L160.22 130.771C161.022 130.796 161.874 130.821 162.701 130.821L162.726 132.149ZM175.304 130.52L174.979 129.217C175.78 129.017 176.582 128.817 177.384 128.591L177.76 129.869C176.958 130.119 176.131 130.32 175.304 130.52ZM157.639 131.924C156.787 131.848 155.936 131.723 155.109 131.598L155.334 130.27C156.136 130.395 156.963 130.52 157.79 130.596L157.639 131.924ZM180.19 129.117L179.764 127.839C180.541 127.589 181.343 127.313 182.12 127.012L182.596 128.265C181.794 128.591 180.967 128.867 180.19 129.117ZM184.951 127.388L184.45 126.135C185.202 125.835 185.978 125.484 186.73 125.158L187.281 126.386C186.505 126.737 185.703 127.063 184.951 127.388ZM152.628 131.097C151.801 130.896 150.974 130.696 150.147 130.445L150.523 129.167C151.3 129.393 152.102 129.618 152.904 129.794L152.628 131.097ZM297.982 113.106C297.456 112.48 296.93 111.853 296.353 111.227L297.356 110.325C297.932 110.951 298.483 111.603 299.009 112.254L297.982 113.106ZM189.562 125.309L188.985 124.106C189.712 123.755 190.464 123.379 191.215 122.978L191.842 124.156C191.065 124.557 190.313 124.958 189.562 125.309ZM147.717 129.643C146.915 129.343 146.113 129.017 145.362 128.666L145.913 127.438C146.665 127.764 147.416 128.09 148.193 128.366L147.717 129.643ZM194.047 122.978L193.395 121.801C194.122 121.4 194.849 120.974 195.55 120.548L196.227 121.7C195.5 122.126 194.773 122.552 194.047 122.978ZM294.649 109.423C294.073 108.846 293.472 108.27 292.845 107.719L293.747 106.717C294.374 107.293 295 107.869 295.602 108.47L294.649 109.423ZM143.056 127.539C142.305 127.138 141.553 126.687 140.851 126.236L141.578 125.108C142.255 125.559 142.981 125.96 143.708 126.361L143.056 127.539ZM198.382 120.372L197.655 119.245C198.357 118.819 199.058 118.343 199.735 117.892L200.486 118.994C199.81 119.47 199.083 119.946 198.382 120.372ZM202.591 117.591L201.814 116.489C202.491 116.013 203.167 115.536 203.844 115.035L204.646 116.113C203.969 116.614 203.268 117.09 202.591 117.591ZM138.772 124.782C138.095 124.281 137.419 123.73 136.792 123.154L137.669 122.151C138.271 122.678 138.922 123.204 139.573 123.705L138.772 124.782ZM290.966 106.115C290.34 105.589 289.663 105.088 289.012 104.587L289.813 103.509C290.49 104.01 291.167 104.537 291.818 105.063L290.966 106.115ZM206.675 114.584L205.848 113.532L206.049 113.382C206.65 112.906 207.252 112.455 207.853 112.003L208.655 113.081C208.053 113.532 207.452 113.983 206.876 114.434L206.675 114.584ZM286.982 103.158C286.306 102.707 285.604 102.256 284.902 101.83L285.604 100.678C286.331 101.104 287.057 101.58 287.759 102.056L286.982 103.158ZM134.938 121.4C134.337 120.798 133.76 120.147 133.234 119.495L134.261 118.644C134.788 119.27 135.339 119.896 135.89 120.473L134.938 121.4ZM210.659 111.603L209.883 110.525C210.559 110.024 211.261 109.548 211.937 109.072L212.689 110.174C212.037 110.625 211.336 111.101 210.659 111.603ZM282.747 100.578C282.021 100.177 281.294 99.8009 280.542 99.4501L281.119 98.2474C281.87 98.6232 282.647 98.9991 283.374 99.4L282.747 100.578ZM214.769 108.746L214.042 107.619C214.744 107.142 215.47 106.691 216.172 106.24L216.898 107.368C216.172 107.844 215.47 108.295 214.769 108.746ZM131.681 117.441C131.205 116.739 130.728 116.013 130.303 115.286L131.455 114.609C131.856 115.311 132.307 116.013 132.783 116.689L131.681 117.441ZM219.003 106.09L218.327 104.937C219.053 104.512 219.78 104.086 220.507 103.66L221.158 104.837C220.431 105.238 219.705 105.664 219.003 106.09ZM278.287 98.4478C277.536 98.1221 276.759 97.8214 275.982 97.5458L276.458 96.2929C277.26 96.5936 278.037 96.8943 278.814 97.22L278.287 98.4478ZM223.338 103.635L222.712 102.457C223.463 102.056 224.215 101.68 224.967 101.304L225.568 102.507C224.816 102.858 224.065 103.234 223.338 103.635ZM273.627 96.7189C272.85 96.4683 272.048 96.2428 271.246 96.0173L271.597 94.7144C272.424 94.9399 273.226 95.1654 274.028 95.4159L273.627 96.7189ZM227.798 101.405L227.222 100.202C227.999 99.851 228.75 99.5002 229.527 99.1494L230.053 100.377C229.302 100.703 228.55 101.054 227.798 101.405ZM129.075 113.031C128.699 112.254 128.373 111.477 128.047 110.675L129.3 110.199C129.601 110.951 129.927 111.728 130.277 112.454L129.075 113.031ZM268.841 95.4661C268.039 95.2907 267.212 95.1403 266.41 94.99L266.636 93.662C267.463 93.8123 268.315 93.9627 269.142 94.1381L268.841 95.4661ZM232.358 99.4L231.857 98.1471C232.634 97.8214 233.436 97.5207 234.213 97.2451L234.664 98.4979C233.912 98.7986 233.135 99.0993 232.358 99.4ZM263.955 94.6392C263.128 94.539 262.301 94.4638 261.499 94.4137L261.6 93.0857C262.452 93.1358 263.303 93.236 264.13 93.3362L263.955 94.6392ZM237.044 97.6961L236.618 96.4182C237.42 96.1426 238.247 95.892 239.024 95.6665L239.399 96.9444C238.623 97.195 237.821 97.4205 237.044 97.6961ZM259.019 94.2884C258.192 94.2633 257.365 94.2633 256.538 94.2633L256.513 92.9353C257.365 92.9103 258.217 92.9353 259.044 92.9604L259.019 94.2884ZM241.805 96.2929L241.479 94.99C242.306 94.7895 243.133 94.5891 243.935 94.4137L244.21 95.7166C243.433 95.892 242.607 96.0925 241.805 96.2929ZM254.058 94.3385C253.231 94.3886 252.404 94.4387 251.577 94.539L251.452 93.211C252.304 93.1358 253.155 93.0606 253.982 93.0105L254.058 94.3385ZM246.666 95.2406L246.44 93.9125C247.267 93.7622 248.119 93.6369 248.946 93.5116L249.121 94.8396C248.295 94.9399 247.468 95.0902 246.666 95.2406ZM127.221 108.245C126.97 107.443 126.744 106.616 126.569 105.764L127.872 105.464C128.047 106.265 128.273 107.067 128.498 107.844L127.221 108.245ZM126.118 103.259C126.068 102.958 126.043 102.632 125.993 102.332C125.918 101.805 125.867 101.254 125.842 100.703L127.17 100.603C127.221 101.129 127.271 101.655 127.321 102.156C127.346 102.457 127.396 102.758 127.446 103.058L126.118 103.259ZM127.07 98.1722H125.742C125.742 97.3203 125.767 96.4683 125.817 95.6164L127.145 95.6916C127.07 96.5184 127.07 97.3453 127.07 98.1722ZM127.346 93.236L126.018 93.0857C126.118 92.2588 126.243 91.4319 126.394 90.6051L127.722 90.8055V90.8556C127.571 91.6324 127.446 92.4342 127.346 93.236ZM128.223 88.35L126.92 88.0493C127.095 87.2224 127.321 86.3955 127.521 85.5937L128.824 85.9445C128.599 86.7463 128.398 87.5481 128.223 88.35ZM174.051 81.5846C173.175 81.6598 172.298 81.6849 171.446 81.6598L171.521 80.3318C172.298 80.3569 173.124 80.3569 173.926 80.2817L174.051 81.5846ZM176.607 81.1837L176.332 79.8808C177.108 79.7054 177.91 79.4799 178.687 79.2293L179.113 80.5072C178.261 80.7578 177.434 80.9833 176.607 81.1837ZM168.84 81.309C167.963 81.1086 167.111 80.8329 166.334 80.5072L166.86 79.2794C167.562 79.5801 168.314 79.8307 169.115 80.0061L168.84 81.309ZM181.493 79.53L180.942 78.3022C181.669 77.9765 182.42 77.6006 183.122 77.1997L183.799 78.3523C183.047 78.8034 182.27 79.1792 181.493 79.53ZM185.953 76.9742L185.177 75.8717C185.853 75.3956 186.505 74.8945 187.106 74.3683L187.983 75.3956C187.332 75.9719 186.655 76.4981 185.953 76.9742ZM129.526 83.5641L128.248 83.1632C128.498 82.3614 128.774 81.5596 129.075 80.7578L130.328 81.2339C130.027 82.0106 129.776 82.7874 129.526 83.5641ZM164.054 79.1792C163.352 78.653 162.701 78.0266 162.125 77.3501L163.152 76.4981C163.653 77.0995 164.229 77.6507 164.856 78.1018L164.054 79.1792ZM189.862 73.6417L188.91 72.7146C189.486 72.1383 190.013 71.5119 190.514 70.8854L191.566 71.7123C191.04 72.3638 190.464 73.0153 189.862 73.6417ZM131.23 78.9286L130.002 78.4024C130.328 77.6257 130.678 76.8489 131.054 76.0972L132.257 76.6735C131.906 77.4002 131.555 78.1769 131.23 78.9286ZM160.646 75.1451C160.245 74.3934 159.92 73.5665 159.644 72.7146L160.922 72.3137C161.172 73.0904 161.473 73.8421 161.824 74.5187L160.646 75.1451ZM193.044 69.6075L191.917 68.906C192.343 68.2044 192.744 67.5028 193.095 66.7761L194.297 67.3524C193.947 68.1041 193.521 68.8558 193.044 69.6075ZM133.359 74.4435L132.182 73.8171C132.583 73.0654 133.009 72.3387 133.435 71.6121L134.587 72.2886C134.161 72.9902 133.76 73.7168 133.359 74.4435ZM159.068 70.1839C159.043 69.9583 158.992 69.7078 158.967 69.4823C158.892 68.8809 158.842 68.2545 158.817 67.6281L160.145 67.578C160.17 68.1793 160.22 68.7807 160.27 69.3319C160.295 69.5574 160.32 69.7829 160.371 70.0085L159.068 70.1839ZM195.3 64.947L194.022 64.521C194.297 63.7443 194.498 62.9675 194.673 62.1908L195.976 62.4664C195.801 63.2933 195.575 64.1452 195.3 64.947ZM135.915 70.2089L134.788 69.4823C135.239 68.7807 135.74 68.0791 136.241 67.4026L137.318 68.1793C136.842 68.8308 136.366 69.5073 135.915 70.2089ZM160.17 65.0973L158.842 65.0472C158.867 64.1953 158.942 63.3434 159.017 62.4914L160.345 62.6418C160.245 63.4436 160.195 64.2705 160.17 65.0973ZM196.377 59.8855L195.049 59.7603C195.124 58.9584 195.149 58.1566 195.099 57.3298L196.427 57.2797C196.452 58.1817 196.452 59.0336 196.377 59.8855ZM138.822 66.1998L137.769 65.373C138.296 64.7215 138.847 64.07 139.398 63.4185L140.4 64.2955C139.874 64.9219 139.348 65.5484 138.822 66.1998ZM142.104 62.4664L141.127 61.5393C141.703 60.9379 142.33 60.3366 142.931 59.7603L143.858 60.7375C143.257 61.2887 142.681 61.865 142.104 62.4664ZM160.696 60.2113L159.368 59.9607C159.519 59.1088 159.719 58.2819 159.92 57.455L161.222 57.8058C161.022 58.6077 160.847 59.4095 160.696 60.2113ZM194.798 54.9995C194.623 54.2227 194.347 53.471 193.997 52.7945L195.199 52.1931C195.6 52.9699 195.901 53.8218 196.101 54.6988L194.798 54.9995ZM145.687 59.0587L144.81 58.0564C145.437 57.5052 146.113 56.9539 146.765 56.4277L147.592 57.4801C146.965 57.9812 146.314 58.5074 145.687 59.0587ZM161.949 55.4756L160.696 55.0245C160.972 54.2227 161.298 53.4209 161.648 52.6442L162.876 53.1954C162.55 53.9471 162.225 54.7239 161.949 55.4756ZM192.719 50.8401C192.218 50.2638 191.641 49.7125 191.015 49.2114L191.842 48.159C192.568 48.7103 193.195 49.3367 193.771 49.9882L192.719 50.8401ZM149.596 55.9767L148.819 54.8993C149.496 54.3981 150.198 53.9221 150.899 53.446L151.626 54.5735C150.949 54.9995 150.248 55.4756 149.596 55.9767ZM153.731 53.2455L153.029 52.0929C153.756 51.6669 154.507 51.241 155.234 50.8401L155.86 52.0177C155.159 52.3936 154.432 52.8196 153.731 53.2455ZM163.979 51.0155L162.801 50.364C163.152 49.7125 163.553 49.0611 163.979 48.4096C163.528 48.5599 163.102 48.7353 162.651 48.8857L162.175 47.6328C162.976 47.3321 163.778 47.0565 164.58 46.7809L165.006 48.0588C164.781 48.134 164.555 48.2091 164.33 48.2843L165.257 48.9107C164.781 49.6123 164.355 50.3139 163.979 51.0155ZM188.985 47.9335C188.309 47.5827 187.557 47.257 186.755 47.0064L187.181 45.7285C188.033 46.0292 188.835 46.3549 189.587 46.7558L188.985 47.9335ZM158.09 50.8651L157.514 49.6624C158.266 49.2866 159.043 48.9358 159.819 48.61L160.345 49.8378C159.594 50.1635 158.842 50.5143 158.09 50.8651ZM184.425 46.3549C183.648 46.1795 182.846 46.0542 182.02 45.954L182.17 44.626C183.047 44.7262 183.899 44.8766 184.701 45.052L184.425 46.3549ZM167.361 47.3572L167.086 46.38C166.935 46.5554 166.81 46.7308 166.66 46.9062L165.607 46.0793C166.134 45.4278 166.685 44.7513 167.261 44.1249L168.263 45.0269C167.988 45.3276 167.737 45.6283 167.462 45.929C168.138 45.7536 168.815 45.5782 169.466 45.4529L169.767 46.7558C168.965 46.9563 168.163 47.1567 167.361 47.3572ZM179.564 45.7786C178.762 45.7536 177.935 45.7536 177.108 45.7786L177.058 44.4506C177.935 44.4256 178.787 44.4005 179.614 44.4506L179.564 45.7786ZM172.197 46.3048L171.972 44.9768C172.824 44.8265 173.676 44.7262 174.503 44.626L174.653 45.954C173.826 46.0542 173.024 46.1545 172.197 46.3048ZM169.967 43.273L169.04 42.3208C169.642 41.7445 170.268 41.1682 170.919 40.6169L171.796 41.6443C171.17 42.1454 170.544 42.7217 169.967 43.273ZM173.726 40.0657L172.924 38.9883C173.6 38.4871 174.277 37.986 175.004 37.5099L175.755 38.6124C175.029 39.1135 174.352 39.5896 173.726 40.0657ZM177.81 37.3095L177.108 36.1569C177.81 35.7309 178.562 35.3049 179.313 34.904L179.94 36.0817C179.238 36.4826 178.512 36.8835 177.81 37.3095ZM182.17 34.9541L181.594 33.7514C182.345 33.3756 183.122 33.0248 183.899 32.674L184.45 33.9018C183.673 34.2275 182.922 34.5783 182.17 34.9541ZM186.73 32.9496L186.229 31.6968C187.006 31.3961 187.808 31.0954 188.609 30.7947L189.06 32.0476C188.284 32.3482 187.482 32.6489 186.73 32.9496ZM191.416 31.2457L191.015 29.9678C191.817 29.7173 192.619 29.4667 193.445 29.2161L193.821 30.494C193.019 30.7697 192.218 30.9952 191.416 31.2457ZM196.227 29.8676L195.901 28.5647C196.703 28.3642 197.53 28.1638 198.356 27.9633L198.657 29.2663C197.83 29.4667 197.003 29.6672 196.227 29.8676ZM201.088 28.7651L200.837 27.4622C201.664 27.2868 202.516 27.1364 203.343 27.0112L203.568 28.3392C202.741 28.4394 201.915 28.5897 201.088 28.7651ZM208.479 27.6376C208.479 27.6376 207.552 27.7127 206.024 27.9383L205.848 26.6102C207.427 26.3847 208.354 26.3096 208.379 26.3096L208.479 27.6376Z" fill="#8C9DF4"/>
<path d="M214.917 175.743H161.188V311.71H214.917V175.743Z" fill="#BDD1F9"/>
<path d="M298.253 130.786H244.523V311.71H298.253V130.786Z" fill="#BDD1F9"/>
<path d="M378.295 82.5395H320.18V311.71H378.295V82.5395Z" fill="#BDD1F9"/>
<path d="M452.862 50.7407H399.133V311.71H452.862V50.7407Z" fill="#BDD1F9"/>
<path d="M378.359 158.784L490.388 104.562L440.425 211.053L431.981 162.718L378.359 158.784Z" fill="#F77D48"/>
<path d="M352.574 122.477C349.843 111.202 356.733 99.851 368.009 97.1198C379.284 94.3886 390.635 101.279 393.366 112.555C396.097 123.83 389.207 135.181 377.931 137.912C366.681 140.643 355.33 133.753 352.574 122.477Z" fill="#FFB93E"/>
<path d="M377.554 136.334C372.593 137.536 367.456 136.735 363.096 134.079C358.736 131.422 355.654 127.238 354.452 122.252C353.249 117.291 354.051 112.154 356.707 107.794C359.363 103.434 363.547 100.352 368.533 99.1495C373.495 97.9468 378.631 98.7486 382.991 101.405C387.351 104.061 390.433 108.245 391.636 113.231C392.838 118.193 392.037 123.329 389.381 127.689C386.725 132.074 382.515 135.131 377.554 136.334ZM368.784 100.277C359.137 102.632 353.224 112.379 355.554 122.001C357.909 131.648 367.656 137.561 377.278 135.231C386.925 132.876 392.838 123.129 390.508 113.507C388.153 103.86 378.406 97.9468 368.784 100.277Z" fill="#FFA412"/>
<path d="M376.903 122.527C376.853 122.126 376.753 121.751 376.602 121.45C376.452 121.149 376.227 120.899 375.926 120.673C375.625 120.448 375.249 120.247 374.823 120.097C374.372 119.921 373.846 119.771 373.22 119.646C372.142 119.42 371.165 119.145 370.263 118.844C369.361 118.543 368.584 118.167 367.933 117.741C367.256 117.29 366.73 116.739 366.304 116.088C365.878 115.436 365.628 114.609 365.502 113.657C365.402 112.83 365.452 112.054 365.678 111.327C365.878 110.6 366.229 109.949 366.73 109.373C367.206 108.796 367.833 108.295 368.559 107.894C369.286 107.493 370.113 107.168 371.065 106.967L370.689 103.81L373.22 103.509L373.596 106.717C374.523 106.717 375.375 106.867 376.151 107.142C376.928 107.418 377.63 107.819 378.206 108.32C378.782 108.846 379.284 109.473 379.659 110.224C380.035 110.976 380.286 111.853 380.411 112.83L375.826 113.382C375.675 112.204 375.325 111.352 374.723 110.826C374.122 110.3 373.395 110.099 372.518 110.199C372.042 110.249 371.641 110.375 371.316 110.55C370.99 110.726 370.739 110.951 370.539 111.202C370.338 111.452 370.213 111.753 370.138 112.079C370.063 112.404 370.063 112.755 370.113 113.106C370.163 113.482 370.238 113.782 370.388 114.083C370.539 114.359 370.739 114.609 371.04 114.835C371.341 115.06 371.691 115.236 372.167 115.411C372.618 115.587 373.17 115.737 373.846 115.912C374.924 116.163 375.901 116.438 376.778 116.739C377.655 117.04 378.457 117.416 379.108 117.867C379.785 118.318 380.311 118.869 380.737 119.52C381.163 120.172 381.413 120.974 381.539 121.926C381.639 122.778 381.589 123.58 381.363 124.306C381.138 125.033 380.787 125.684 380.311 126.236C379.81 126.812 379.208 127.288 378.457 127.689C377.705 128.09 376.878 128.391 375.926 128.591L376.277 131.523L373.746 131.823L373.395 128.917C372.518 128.942 371.641 128.842 370.789 128.641C369.937 128.441 369.161 128.115 368.459 127.639C367.757 127.163 367.156 126.511 366.68 125.735C366.204 124.933 365.878 123.956 365.753 122.778L370.338 122.227C370.413 122.928 370.589 123.504 370.839 123.93C371.09 124.381 371.391 124.707 371.767 124.958C372.117 125.208 372.518 125.359 372.944 125.409C373.37 125.484 373.796 125.484 374.247 125.434C374.748 125.384 375.174 125.258 375.525 125.083C375.876 124.908 376.176 124.707 376.402 124.432C376.628 124.181 376.778 123.88 376.878 123.555C376.928 123.229 376.953 122.903 376.903 122.527Z" fill="#FFA412"/>
<path d="M497.896 76.6264C505.881 68.6417 505.881 55.6959 497.896 47.7112C489.911 39.7266 476.966 39.7266 468.981 47.7112C460.996 55.6959 460.996 68.6417 468.981 76.6263C476.966 84.611 489.911 84.611 497.896 76.6264Z" fill="#FFB93E"/>
<path d="M484.18 81.0335C479.218 81.2339 474.458 79.48 470.799 76.0973C467.141 72.7147 465.036 68.1293 464.836 63.143C464.635 58.1818 466.389 53.421 469.772 49.7627C473.155 46.1044 477.74 43.9997 482.726 43.7992C487.687 43.5988 492.448 45.3527 496.107 48.7354C499.765 52.118 501.87 56.7034 502.07 61.6897C502.27 66.6509 500.517 71.4117 497.134 75.07C493.751 78.7032 489.166 80.833 484.18 81.0335ZM482.776 44.9268C473.13 45.3026 465.587 53.4711 465.963 63.1179C466.339 72.7648 474.508 80.3068 484.154 79.931C493.801 79.5551 501.343 71.3866 500.968 61.7398C500.592 52.093 492.423 44.5509 482.776 44.9268Z" fill="#FFA412"/>
<path d="M486.232 67.7284C486.257 67.3275 486.232 66.9767 486.157 66.651C486.056 66.3252 485.906 66.0496 485.656 65.774C485.405 65.4983 485.104 65.2478 484.703 64.9972C484.302 64.7466 483.826 64.4961 483.25 64.2706C482.273 63.8446 481.371 63.3936 480.569 62.9426C479.767 62.4915 479.091 61.9904 478.539 61.4392C477.988 60.8879 477.587 60.2615 477.312 59.5349C477.036 58.8333 476.936 58.0064 477.011 57.0542C477.086 56.2274 477.287 55.5007 477.612 54.8493C477.963 54.1978 478.414 53.6465 478.99 53.1955C479.567 52.7445 480.243 52.3937 481.02 52.1431C481.797 51.8926 482.649 51.7673 483.576 51.7422L483.826 48.6602L486.307 48.8607L486.056 51.9928C486.933 52.1682 487.735 52.4689 488.412 52.8948C489.113 53.2957 489.69 53.8219 490.141 54.4233C490.592 55.0246 490.943 55.7262 491.143 56.5281C491.343 57.3299 491.419 58.2069 491.343 59.159L486.858 58.8082C486.958 57.6556 486.758 56.7786 486.307 56.1522C485.831 55.5508 485.179 55.2 484.328 55.1249C483.851 55.0998 483.451 55.1249 483.1 55.2251C482.749 55.3253 482.473 55.4757 482.223 55.7012C481.997 55.9016 481.797 56.1522 481.672 56.4529C481.546 56.7536 481.471 57.0793 481.446 57.4301C481.421 57.7809 481.446 58.1066 481.521 58.4073C481.596 58.708 481.747 58.9836 481.997 59.2592C482.223 59.5349 482.549 59.7854 482.949 60.036C483.35 60.2866 483.851 60.5371 484.453 60.8378C485.43 61.2888 486.307 61.7398 487.109 62.2159C487.911 62.6669 488.562 63.1931 489.113 63.7444C489.665 64.2956 490.066 64.9471 490.341 65.6487C490.617 66.3503 490.717 67.1771 490.642 68.1042C490.567 68.9562 490.366 69.7079 490.015 70.3343C489.665 70.9858 489.214 71.537 488.637 71.988C488.061 72.439 487.384 72.7898 486.608 73.0154C485.831 73.2409 484.954 73.3661 484.027 73.3912L483.801 76.2477L481.346 76.0472L481.571 73.1908C480.719 73.0404 479.918 72.7898 479.116 72.4391C478.339 72.0883 477.662 71.6122 477.086 71.0359C476.51 70.4345 476.059 69.7329 475.758 68.8559C475.457 68.004 475.332 67.0017 475.432 65.8491L479.918 66.1999C479.867 66.8765 479.918 67.4528 480.068 67.9288C480.218 68.4049 480.444 68.7808 480.744 69.0815C481.045 69.3821 481.396 69.6076 481.797 69.7329C482.198 69.8833 482.599 69.9584 483.025 70.0086C483.501 70.0587 483.952 70.0086 484.328 69.9334C484.703 69.8332 485.029 69.6828 485.28 69.4824C485.555 69.2819 485.756 69.0313 485.906 68.7307C486.107 68.4049 486.207 68.0792 486.232 67.7284Z" fill="#FFA412"/>
<path d="M434.158 99.2496C434.033 91.457 440.222 85.0424 448.014 84.8921C455.807 84.7668 462.222 90.9558 462.372 98.7485C462.497 106.541 456.308 112.956 448.516 113.106C440.723 113.231 434.308 107.017 434.158 99.2496Z" fill="#FFB93E"/>
<path d="M448.487 112.003C445.055 112.054 441.797 110.776 439.342 108.395C436.861 106.015 435.483 102.808 435.408 99.3749C435.358 95.9421 436.635 92.6848 439.016 90.2292C441.396 87.7486 444.603 86.3705 448.036 86.2953C451.469 86.2452 454.726 87.5231 457.182 89.9035C459.663 92.2839 461.041 95.4911 461.116 98.9239C461.166 102.357 459.888 105.614 457.508 108.07C455.127 110.55 451.92 111.953 448.487 112.003ZM448.061 87.0721C441.396 87.1974 436.084 92.7098 436.184 99.3749C436.31 106.04 441.822 111.352 448.487 111.252C455.152 111.127 460.464 105.614 460.364 98.949C460.239 92.2839 454.701 86.9719 448.061 87.0721Z" fill="#FFA412"/>
<path d="M450.095 102.858C450.12 102.582 450.12 102.332 450.045 102.106C449.995 101.881 449.87 101.68 449.719 101.48C449.569 101.279 449.343 101.104 449.068 100.929C448.792 100.753 448.466 100.578 448.091 100.402C447.414 100.077 446.813 99.7759 446.261 99.4502C445.71 99.1245 445.259 98.7737 444.883 98.3728C444.508 97.9719 444.232 97.5459 444.056 97.0448C443.881 96.5436 443.831 95.9924 443.881 95.3409C443.931 94.7897 444.082 94.2885 444.332 93.8375C444.583 93.3865 444.908 93.0106 445.309 92.71C445.71 92.4093 446.186 92.1587 446.713 92.0084C447.239 91.858 447.84 91.7578 448.492 91.7828L448.717 89.653L450.421 89.8284L450.195 91.9833C450.797 92.1336 451.348 92.3341 451.824 92.6348C452.3 92.9355 452.701 93.2863 453.002 93.7122C453.302 94.1382 453.528 94.6143 453.678 95.1655C453.804 95.7168 453.854 96.3181 453.778 96.9946L450.697 96.694C450.772 95.8921 450.671 95.2908 450.346 94.8648C450.045 94.4389 449.594 94.1883 448.993 94.1382C448.667 94.1131 448.391 94.1131 448.141 94.1883C447.89 94.2635 447.69 94.3637 447.539 94.489C447.364 94.6393 447.239 94.7897 447.164 95.0152C447.063 95.2156 447.013 95.4411 446.988 95.6917C446.963 95.9423 446.988 96.1678 447.038 96.3682C447.088 96.5687 447.189 96.7691 447.339 96.9445C447.489 97.1199 447.715 97.3204 447.99 97.4958C448.266 97.6712 448.617 97.8716 449.018 98.0721C449.669 98.3978 450.271 98.7236 450.822 99.0493C451.348 99.375 451.824 99.7509 452.175 100.127C452.551 100.528 452.826 100.954 453.002 101.455C453.177 101.956 453.227 102.507 453.177 103.159C453.127 103.735 452.977 104.261 452.726 104.687C452.476 105.138 452.15 105.489 451.749 105.79C451.348 106.09 450.872 106.316 450.321 106.466C449.769 106.616 449.193 106.692 448.542 106.692L448.341 108.671L446.637 108.496L446.838 106.541C446.261 106.416 445.685 106.241 445.159 105.99C444.633 105.739 444.157 105.389 443.781 104.988C443.38 104.562 443.104 104.061 442.904 103.484C442.703 102.883 442.653 102.206 442.728 101.405L445.81 101.705C445.76 102.181 445.785 102.582 445.886 102.908C445.986 103.234 446.136 103.509 446.337 103.71C446.537 103.91 446.788 104.086 447.038 104.186C447.314 104.286 447.589 104.361 447.89 104.386C448.216 104.411 448.517 104.411 448.792 104.336C449.043 104.286 449.268 104.186 449.469 104.036C449.644 103.91 449.794 103.735 449.92 103.534C450.02 103.334 450.07 103.108 450.095 102.858Z" fill="#FFA412"/>
<path d="M409.786 79.2255C428.742 77.9372 443.065 61.5255 441.777 42.5691C440.489 23.6126 424.077 9.28974 405.121 10.578C386.164 11.8663 371.841 28.278 373.13 47.2344C374.418 66.1909 390.829 80.5138 409.786 79.2255Z" fill="#FFB93E"/>
<path d="M417.451 75.0447C409.508 77.6757 401.014 77.0492 393.522 73.2907C386.03 69.5322 380.467 63.0927 377.836 55.1246C375.206 47.1817 375.832 38.6874 379.59 31.1955C383.349 23.7035 389.789 18.141 397.757 15.51C405.725 12.879 414.194 13.5055 421.686 17.264C429.178 21.0225 434.74 27.462 437.371 35.4301C440.002 43.373 439.376 51.8673 435.617 59.3592C431.834 66.8512 425.394 72.4138 417.451 75.0447ZM398.308 17.3141C382.873 22.4256 374.479 39.1385 379.59 54.5734C384.702 70.0083 401.415 78.4023 416.85 73.2907C432.285 68.1792 440.679 51.4664 435.567 36.0314C430.456 20.5965 413.743 12.2025 398.308 17.3141Z" fill="#FFA412"/>
<path d="M414.547 52.5687C414.422 51.8922 414.197 51.341 413.896 50.8649C413.595 50.3888 413.194 49.9879 412.693 49.6622C412.192 49.3364 411.541 49.0608 410.814 48.8603C410.062 48.6599 409.16 48.4845 408.133 48.3342C406.329 48.0836 404.7 47.7829 403.197 47.4321C401.693 47.0563 400.365 46.5551 399.238 45.9287C398.085 45.2772 397.133 44.4504 396.356 43.4481C395.579 42.4208 395.053 41.1429 394.727 39.5894C394.452 38.2363 394.427 36.9584 394.702 35.7557C394.953 34.553 395.429 33.4254 396.156 32.4232C396.882 31.4209 397.809 30.5188 398.937 29.7671C400.065 28.9904 401.393 28.389 402.896 27.938L401.844 22.8515L405.953 22.0246L407.005 27.1863C408.509 27.0861 409.937 27.1863 411.24 27.5371C412.568 27.8879 413.72 28.4391 414.748 29.1908C415.775 29.9676 416.652 30.9448 417.354 32.1225C418.055 33.3001 418.581 34.7033 418.907 36.2819L411.49 37.7853C411.089 35.881 410.388 34.553 409.336 33.7762C408.308 32.9995 407.055 32.7739 405.652 33.0496C404.875 33.1999 404.249 33.4505 403.723 33.7762C403.222 34.102 402.821 34.5029 402.52 34.9288C402.245 35.3798 402.069 35.881 401.994 36.4072C401.919 36.9584 401.944 37.5097 402.069 38.111C402.194 38.6873 402.395 39.2135 402.645 39.6645C402.921 40.1156 403.297 40.4914 403.798 40.8171C404.299 41.1429 404.926 41.3935 405.702 41.619C406.479 41.8445 407.406 42.0199 408.509 42.1953C410.288 42.4709 411.941 42.7966 413.42 43.1725C414.923 43.5483 416.226 44.0495 417.379 44.7009C418.531 45.3524 419.483 46.1793 420.26 47.2066C421.037 48.2339 421.563 49.5118 421.889 51.0403C422.165 52.4435 422.19 53.7464 421.939 54.9491C421.688 56.1518 421.187 57.2543 420.461 58.2566C419.734 59.2589 418.807 60.1108 417.629 60.8625C416.477 61.6142 415.149 62.2156 413.62 62.6666L414.597 67.4023L410.513 68.2292L409.561 63.5185C408.108 63.6689 406.68 63.6438 405.251 63.4433C403.823 63.2429 402.52 62.7919 401.292 62.1153C400.09 61.4388 399.037 60.4616 398.135 59.2338C397.233 58.006 396.607 56.4275 396.206 54.5232L403.623 53.0198C403.848 54.1473 404.199 55.0494 404.675 55.7509C405.151 56.4525 405.702 56.9537 406.304 57.3045C406.93 57.6552 407.582 57.8557 408.308 57.8808C409.01 57.9309 409.736 57.8808 410.438 57.7304C411.24 57.555 411.916 57.3295 412.493 56.9787C413.069 56.653 413.495 56.2521 413.846 55.8011C414.171 55.35 414.397 54.8489 414.497 54.3227C414.673 53.7213 414.673 53.1701 414.547 52.5687Z" fill="#FFA412"/>
<path d="M271.664 35.4553C268.582 36.2321 265.625 36.9587 262.869 37.4348C253.924 38.9633 247.008 37.7104 244.051 25.7834C241.07 13.8564 246.582 9.49658 255.177 6.64012C257.833 5.76313 260.789 5.01143 263.871 4.25973C270.486 2.60599 277.803 3.33263 283.616 5.262C289.354 7.14125 293.639 10.1731 294.39 13.23C295.267 16.6879 292.887 21.3985 288.702 25.6331C284.443 29.9178 278.254 33.8016 271.664 35.4553Z" fill="#739AF0"/>
<path d="M255.153 6.64002L245.005 0L228.969 3.40771L245.631 15.1092L255.153 6.64002Z" fill="#163560"/>
<path d="M262.825 37.3344L256.987 47.9584L241.227 52.4937L250.422 34.3276L262.825 37.3344Z" fill="#163560"/>
<path d="M262.846 37.4348C253.9 38.9632 246.985 37.7104 244.028 25.7834C241.046 13.8564 246.559 9.49657 255.153 6.64011L262.846 37.4348Z" fill="#163560"/>
<path d="M223.133 30.9952C223.133 30.9952 227.593 20.5967 235.411 22.2003C243.379 23.829 242.376 32.4235 236.388 33.2002C230.424 33.977 226.641 30.1182 223.133 30.9952Z" fill="#F77D48"/>
<path d="M270.687 10.6742C274.821 9.64685 279.006 12.1525 280.033 16.2869C281.06 20.4212 278.555 24.6057 274.42 25.633C270.286 26.6604 266.101 24.1547 265.074 20.0203C264.047 15.886 266.552 11.7015 270.687 10.6742Z" fill="#163560"/>
<path d="M272.544 26.3847C268.861 26.3847 265.503 23.8791 264.576 20.1456C263.473 15.7356 266.154 11.2756 270.564 10.1731C274.949 9.07057 279.434 11.7516 280.537 16.1616C281.063 18.2914 280.737 20.4964 279.61 22.3757C278.482 24.2549 276.678 25.5829 274.548 26.1091C273.872 26.3096 273.195 26.3847 272.544 26.3847ZM272.544 10.9749C271.968 10.9749 271.391 11.05 270.79 11.2004C268.936 11.6765 267.357 12.8291 266.355 14.4828C265.378 16.1366 265.077 18.0659 265.553 19.9201C266.505 23.7788 270.439 26.1091 274.273 25.157C276.127 24.6809 277.706 23.5283 278.708 21.8745C279.685 20.2208 279.986 18.2914 279.51 16.4372C278.708 13.1548 275.776 10.9749 272.544 10.9749Z" fill="#BDD1F9"/>
<path d="M288.704 25.6079L283.617 5.23682C289.355 7.11607 293.64 10.1479 294.392 13.2048C295.269 16.6627 292.913 21.3483 288.704 25.6079Z" fill="#F77D48"/>
<path d="M519.18 137.461C519.18 137.461 534.765 153.598 535.492 159.686C536.218 165.775 528.025 175.247 528.025 175.247L519.18 137.461Z" fill="#ED7D2B"/>
<path d="M512.165 304.79C512.165 304.79 511.614 313.359 509.96 313.484C509.734 313.509 501.566 313.484 501.566 313.484L491.117 313.409C491.117 313.409 491.192 310.904 494.249 310.377C497.306 309.851 502.418 307.721 504.272 303.687C506.201 299.428 512.165 304.79 512.165 304.79Z" fill="#2E5A99"/>
<path d="M535.415 304.84C535.415 304.84 534.864 313.409 533.21 313.535C532.984 313.56 524.816 313.535 524.816 313.535L514.367 313.459C514.367 313.459 514.442 310.954 517.499 310.427C520.556 309.901 525.668 307.771 527.522 303.737C529.476 299.478 535.415 304.84 535.415 304.84Z" fill="#18417C"/>
<path d="M500.789 212.706C500.789 212.706 503.495 230.196 513.618 261.241C523.741 292.286 525.094 305.717 525.094 305.717L536.019 305.441C536.019 305.441 536.194 271.539 531.534 255.929C526.873 240.319 530.632 199.677 530.632 199.677L500.789 212.706Z" fill="#163560"/>
<path d="M495.474 200.554C495.474 200.554 495.023 226.888 499.508 259.237C503.993 291.585 502.414 305.316 502.414 305.316L513.339 305.692C513.339 305.692 519.929 273.344 518.1 257.157C516.271 240.97 527.145 201.631 527.145 201.631L495.474 200.554Z" fill="#1C468A"/>
<path d="M516.746 138.965L510.933 142.773L502.539 141.195C502.664 140.518 503.216 137.712 503.717 135.156C503.742 135.006 503.767 134.855 503.817 134.705C504.243 132.55 504.644 130.671 504.644 130.671L512.512 127.213L515.443 125.935C515.443 125.985 515.218 128.34 515.168 128.691C514.566 134.805 516.746 138.965 516.746 138.965Z" fill="#FFB27D"/>
<path d="M504.694 137.01C504.869 136.935 514.817 134.028 515.894 134.379C516.972 134.73 517.623 136.835 517.623 136.835L501.336 140.493C501.311 140.493 502.589 137.887 504.694 137.01Z" fill="#ED7D2B"/>
<path d="M531.356 203.886C529.652 211.579 501.564 212.431 494.322 205.44C493.496 204.638 493.47 200.93 493.796 195.943C494.423 186.171 496.402 171.488 496.502 163.996C496.552 160.363 497.054 156.68 497.73 153.297C499.158 146.131 501.313 140.493 501.313 140.493C501.313 140.493 515.044 136.083 517.6 136.86C529.978 140.518 533.06 196.194 531.356 203.886Z" fill="#F99746"/>
<path d="M493.797 195.918C494.423 186.146 496.403 171.463 496.503 163.971C496.553 160.338 497.054 156.655 497.731 153.272L506 151.844C505.974 151.844 513.968 184.818 493.797 195.918Z" fill="#ED7D2B"/>
<path d="M498.306 182.338C498.306 182.338 498.857 183.691 497.68 184.593C496.502 185.495 495.725 186.948 496.001 188.026C496.277 189.103 498.857 190.857 499.76 190.556C500.662 190.281 502.491 188.878 502.29 188.301C502.09 187.725 503.543 183.365 501.338 181.661C499.133 179.957 498.306 182.338 498.306 182.338Z" fill="#FFB27D"/>
<path d="M507.629 138.539C507.629 138.539 499.586 140.017 493.146 149.463C486.707 158.91 482.472 165.925 483.65 169.333C484.827 172.741 495.577 184.568 497.431 184.593C499.285 184.593 502.292 183.265 502.467 180.208C502.467 180.208 494.9 168.832 496.404 167.128C497.055 166.402 506.276 158.96 507.579 162.317C509.709 167.905 507.629 138.539 507.629 138.539Z" fill="#F99746"/>
<path d="M514.545 128.792C512.816 131.698 506.376 134.229 503.695 135.131C503.72 134.981 503.745 134.83 503.796 134.68C504.222 132.525 504.622 130.646 504.622 130.646L512.49 127.188C514.219 127.213 515.272 127.589 514.545 128.792Z" fill="#FCA56B"/>
<path d="M501.666 130.195C501.666 130.195 514.294 134.154 516.649 126.261C519.005 118.343 522.212 113.532 514.244 110.676C506.276 107.794 503.795 110.35 502.367 112.805C500.964 115.236 498.433 128.967 501.666 130.195Z" fill="#FFB27D"/>
<path d="M502.866 112.029C502.866 112.029 503.642 121.224 505.547 120.849C507.451 120.448 509.18 120.172 508.904 122.928C508.629 125.71 505.973 128.892 511.836 129.418C517.699 129.919 526.168 114.81 524.565 111.928C519.954 103.66 496.176 101.931 502.866 112.029Z" fill="#163560"/>
<path d="M441.607 308.172V311.48C441.607 311.731 441.507 311.981 441.356 312.182C441.181 312.407 440.93 312.557 440.655 312.658C440.554 312.683 440.479 312.708 440.379 312.733C440.279 312.758 440.204 312.758 440.103 312.758H377.286C376.535 312.758 375.883 312.282 375.783 311.68C375.783 311.63 375.783 311.605 375.758 311.555C375.758 311.53 375.758 311.505 375.758 311.48V308.172C375.758 308.147 375.758 308.122 375.758 308.097C375.758 308.047 375.758 308.022 375.783 307.972C375.883 307.371 376.535 306.895 377.286 306.895H440.103C440.204 306.895 440.279 306.895 440.379 306.92C440.479 306.945 440.579 306.945 440.655 306.995C440.955 307.095 441.206 307.245 441.356 307.471C441.507 307.646 441.607 307.897 441.607 308.172Z" fill="#FFB93E"/>
<path d="M410.762 312.758H377.111C376.484 312.758 375.958 312.357 375.808 311.806C375.783 311.755 375.783 311.705 375.783 311.655C375.783 311.605 375.783 311.58 375.758 311.53C375.758 311.505 375.758 311.48 375.758 311.455V308.147C375.758 308.122 375.758 308.097 375.758 308.072C375.758 308.022 375.758 307.997 375.783 307.947C375.783 307.897 375.808 307.847 375.808 307.797C375.958 307.245 376.484 306.844 377.111 306.844H406.628C407.104 308.623 408.206 311.004 410.762 312.758Z" fill="#FFA412"/>
<path d="M433.967 306.895H433.266V312.758H433.967V306.895Z" fill="#FFA412"/>
<path d="M431.538 306.895H430.836V312.758H431.538V306.895Z" fill="#FFA412"/>
<path d="M428.655 306.895H427.953V312.758H428.655V306.895Z" fill="#FFA412"/>
<path d="M424.194 306.895H423.492V312.758H424.194V306.895Z" fill="#FFA412"/>
<path d="M419.531 306.895H418.805V312.758H419.531V306.895Z" fill="#FFA412"/>
<path d="M412.288 306.895H411.586V312.758H412.288V306.895Z" fill="#FFA412"/>
<path d="M405.553 306.895H404.852V312.758H405.553V306.895Z" fill="#FFA412"/>
<path d="M399.538 306.895H398.836V312.758H399.538V306.895Z" fill="#FFA412"/>
<path d="M436.248 306.895H435.547V312.758H436.248V306.895Z" fill="#FFA412"/>
<path d="M437.797 306.895H437.07V312.758H437.797V306.895Z" fill="#FFA412"/>
<path d="M439.256 306.895H438.555V312.758H439.256V306.895Z" fill="#FFA412"/>
<path d="M440.352 306.92V312.733C440.276 312.758 440.176 312.758 440.076 312.758H439.625V306.895H440.076C440.176 306.895 440.276 306.895 440.352 306.92Z" fill="#FFA412"/>
<path d="M441.358 307.446V312.181C441.182 312.407 440.932 312.557 440.656 312.657V306.97C440.932 307.07 441.182 307.245 441.358 307.446Z" fill="#FFA412"/>
<path d="M434.89 302.309V305.617C434.89 305.892 434.789 306.118 434.639 306.343C434.589 306.393 434.539 306.443 434.489 306.494C434.338 306.644 434.138 306.744 433.912 306.819C433.812 306.844 433.737 306.869 433.637 306.895C433.562 306.92 433.461 306.92 433.361 306.92H370.544C369.792 306.92 369.141 306.444 369.041 305.842C369.041 305.792 369.041 305.767 369.016 305.717C369.016 305.692 369.016 305.667 369.016 305.642V302.334C369.016 302.309 369.016 302.284 369.016 302.259C369.016 302.209 369.016 302.184 369.041 302.134C369.141 301.532 369.792 301.056 370.544 301.056H433.361C433.411 301.056 433.436 301.056 433.487 301.056C433.512 301.056 433.512 301.056 433.537 301.056C433.562 301.056 433.562 301.056 433.587 301.056C433.612 301.056 433.612 301.056 433.637 301.056C433.737 301.081 433.837 301.081 433.912 301.132C433.963 301.157 434.013 301.157 434.063 301.182C434.088 301.207 434.138 301.207 434.163 301.232C434.188 301.232 434.188 301.257 434.213 301.257C434.238 301.257 434.238 301.282 434.263 301.282C434.338 301.332 434.389 301.357 434.439 301.407C434.464 301.432 434.464 301.432 434.489 301.457L434.514 301.482C434.514 301.482 434.514 301.482 434.539 301.507L434.564 301.532C434.589 301.557 434.614 301.582 434.614 301.608C434.789 301.783 434.89 302.034 434.89 302.309Z" fill="#FFB93E"/>
<path d="M404.043 306.895H370.392C369.766 306.895 369.24 306.494 369.089 305.942C369.064 305.892 369.064 305.842 369.064 305.792C369.064 305.742 369.064 305.717 369.039 305.667C369.039 305.642 369.039 305.617 369.039 305.592V302.284C369.039 302.259 369.039 302.234 369.039 302.209C369.039 302.159 369.039 302.134 369.064 302.084C369.064 302.034 369.089 301.984 369.089 301.933C369.24 301.382 369.766 300.981 370.392 300.981H399.909C399.909 301.031 399.934 301.081 399.959 301.132C400.435 302.886 401.563 305.191 404.043 306.895Z" fill="#FFA412"/>
<path d="M427.248 301.031H426.547V306.895H427.248V301.031Z" fill="#FFA412"/>
<path d="M424.819 301.031H424.117V306.895H424.819V301.031Z" fill="#FFA412"/>
<path d="M421.913 301.031H421.211V306.895H421.913V301.031Z" fill="#FFA412"/>
<path d="M417.475 301.031H416.773V306.895H417.475V301.031Z" fill="#FFA412"/>
<path d="M412.788 301.031H412.086V306.895H412.788V301.031Z" fill="#FFA412"/>
<path d="M405.569 301.031H404.867V306.895H405.569V301.031Z" fill="#FFA412"/>
<path d="M398.834 301.031H398.133V306.895H398.834V301.031Z" fill="#FFA412"/>
<path d="M392.819 301.031H392.117V306.895H392.819V301.031Z" fill="#FFA412"/>
<path d="M429.53 301.031H428.828V306.895H429.53V301.031Z" fill="#FFA412"/>
<path d="M431.053 301.031H430.352V306.895H431.053V301.031Z" fill="#FFA412"/>
<path d="M432.538 301.031H431.836V306.895H432.538V301.031Z" fill="#FFA412"/>
<path d="M433.633 301.056V306.87C433.558 306.895 433.458 306.895 433.357 306.895H432.906V301.031H433.357C433.458 301.031 433.558 301.031 433.633 301.056Z" fill="#FFA412"/>
<path d="M434.639 301.582V306.318C434.464 306.544 434.213 306.694 433.938 306.794V301.106C434.213 301.207 434.464 301.382 434.639 301.582Z" fill="#FFA412"/>
<path d="M438.144 296.571V299.879C438.144 300.129 438.044 300.38 437.894 300.58C437.718 300.806 437.468 300.956 437.192 301.056C437.092 301.081 437.017 301.106 436.916 301.131C436.841 301.131 436.741 301.156 436.641 301.156H373.824C373.573 301.156 373.323 301.106 373.122 301.006C372.696 300.831 372.395 300.48 372.32 300.079C372.32 300.054 372.32 300.029 372.32 300.004C372.32 299.979 372.32 299.979 372.32 299.954C372.32 299.929 372.32 299.904 372.32 299.879V296.571C372.32 296.546 372.32 296.521 372.32 296.496C372.32 296.446 372.32 296.421 372.345 296.371C372.446 295.744 373.097 295.293 373.849 295.293H436.666C436.766 295.293 436.841 295.293 436.942 295.318C437.042 295.343 437.142 295.343 437.217 295.393C437.518 295.494 437.768 295.669 437.919 295.87C438.044 296.07 438.144 296.321 438.144 296.571Z" fill="#FFB93E"/>
<path d="M407.301 301.182H373.65C373.424 301.182 373.224 301.132 373.023 301.031C372.648 300.856 372.372 300.505 372.297 300.104C372.297 300.079 372.297 300.054 372.297 300.029C372.297 300.004 372.297 300.004 372.297 299.979C372.297 299.954 372.297 299.929 372.297 299.904V296.596C372.297 296.571 372.297 296.546 372.297 296.521C372.297 296.471 372.297 296.446 372.322 296.396C372.322 296.346 372.347 296.296 372.347 296.271C372.497 295.719 373.023 295.318 373.65 295.318H403.167C403.618 296.997 404.67 299.303 407.101 301.031C407.151 301.082 407.226 301.132 407.301 301.182Z" fill="#FFA412"/>
<path d="M430.483 295.293H429.781V301.157H430.483V295.293Z" fill="#FFA412"/>
<path d="M428.077 295.293H427.375V301.157H428.077V295.293Z" fill="#FFA412"/>
<path d="M425.17 295.293H424.469V301.157H425.17V295.293Z" fill="#FFA412"/>
<path d="M420.758 295.293H420.031V301.157H420.758V295.293Z" fill="#FFA412"/>
<path d="M416.022 295.293H415.32V301.157H416.022V295.293Z" fill="#FFA412"/>
<path d="M408.834 295.293H408.133V301.157H408.834V295.293Z" fill="#FFA412"/>
<path d="M402.092 295.293H401.391V301.157H402.092V295.293Z" fill="#FFA412"/>
<path d="M396.053 295.293H395.352V301.157H396.053V295.293Z" fill="#FFA412"/>
<path d="M432.788 295.293H432.086V301.157H432.788V295.293Z" fill="#FFA412"/>
<path d="M434.311 295.293H433.609V301.157H434.311V295.293Z" fill="#FFA412"/>
<path d="M435.772 295.293H435.07V301.157H435.772V295.293Z" fill="#FFA412"/>
<path d="M436.899 295.318V301.132C436.823 301.157 436.723 301.157 436.623 301.157H436.172V295.293H436.623C436.723 295.293 436.798 295.318 436.899 295.318Z" fill="#FFA412"/>
<path d="M437.873 295.87V300.606C437.698 300.831 437.447 300.981 437.172 301.082V295.394C437.447 295.494 437.698 295.644 437.873 295.87Z" fill="#FFA412"/>
<path d="M439.652 290.708V294.015C439.652 294.291 439.552 294.517 439.401 294.717C439.376 294.742 439.351 294.767 439.326 294.792C439.201 294.918 439.051 295.018 438.9 295.118C438.825 295.143 438.775 295.168 438.7 295.193C438.6 295.218 438.525 295.243 438.424 295.268C438.374 295.268 438.349 295.268 438.299 295.293C438.249 295.293 438.199 295.293 438.174 295.293H375.357C374.605 295.293 373.953 294.817 373.853 294.216C373.853 294.166 373.853 294.141 373.828 294.091V290.658C373.878 290.031 374.429 289.53 375.156 289.455C375.206 289.455 375.281 289.455 375.332 289.455H438.149C438.199 289.455 438.249 289.455 438.274 289.455C438.324 289.455 438.374 289.455 438.399 289.48C438.499 289.505 438.6 289.505 438.675 289.555C438.976 289.656 439.226 289.831 439.376 290.031C439.552 290.207 439.652 290.457 439.652 290.708Z" fill="#FFB93E"/>
<path d="M408.809 295.293H375.158C374.531 295.293 374.005 294.892 373.855 294.341C373.83 294.291 373.83 294.241 373.83 294.191C373.83 294.141 373.83 294.116 373.805 294.066V290.658C373.83 290.031 374.356 289.53 375.007 289.455C375.058 289.455 375.108 289.455 375.158 289.455H404.675C405.151 291.184 406.253 293.564 408.809 295.293Z" fill="#FFA412"/>
<path d="M431.991 289.43H431.289V295.294H431.991V289.43Z" fill="#FFA412"/>
<path d="M429.584 289.43H428.883V295.294H429.584V289.43Z" fill="#FFA412"/>
<path d="M426.678 289.43H425.977V295.294H426.678V289.43Z" fill="#FFA412"/>
<path d="M422.241 289.43H421.539V295.294H422.241V289.43Z" fill="#FFA412"/>
<path d="M417.53 289.43H416.828V295.294H417.53V289.43Z" fill="#FFA412"/>
<path d="M410.342 289.43H409.641V295.294H410.342V289.43Z" fill="#FFA412"/>
<path d="M403.625 289.43H402.898V295.294H403.625V289.43Z" fill="#FFA412"/>
<path d="M397.586 289.43H396.859V295.293H397.586V289.43Z" fill="#FFA412"/>
<path d="M434.295 289.43H433.594V295.294H434.295V289.43Z" fill="#FFA412"/>
<path d="M435.819 289.43H435.117V295.294H435.819V289.43Z" fill="#FFA412"/>
<path d="M437.28 289.43H436.578V295.294H437.28V289.43Z" fill="#FFA412"/>
<path d="M438.406 289.455V295.268C438.331 295.294 438.231 295.294 438.131 295.294H437.68V289.43H438.131C438.231 289.43 438.306 289.455 438.406 289.455Z" fill="#FFA412"/>
<path d="M439.381 290.007V294.742C439.206 294.968 438.955 295.118 438.68 295.218V289.531C438.98 289.631 439.206 289.781 439.381 290.007Z" fill="#FFA412"/>
<path d="M435.015 284.87V288.177C435.015 288.453 434.914 288.678 434.764 288.879C434.589 289.104 434.338 289.255 434.037 289.355C433.937 289.38 433.862 289.405 433.762 289.43C433.737 289.43 433.712 289.43 433.662 289.43C433.637 289.43 433.637 289.43 433.612 289.43C433.586 289.43 433.586 289.43 433.561 289.43C433.536 289.43 433.511 289.43 433.486 289.43H370.669C369.867 289.43 369.191 288.879 369.141 288.227C369.141 288.202 369.141 288.177 369.141 288.152V284.845C369.141 284.82 369.141 284.795 369.141 284.77C369.141 284.744 369.141 284.744 369.141 284.719C369.191 284.168 369.667 283.742 370.293 283.592C370.318 283.592 370.318 283.592 370.343 283.592C370.444 283.567 370.569 283.567 370.669 283.567H433.486C433.536 283.567 433.586 283.567 433.612 283.567C433.637 283.567 433.662 283.567 433.662 283.567C433.687 283.567 433.712 283.567 433.737 283.567C433.837 283.592 433.937 283.592 434.012 283.642C434.313 283.742 434.564 283.893 434.739 284.118C434.94 284.344 435.015 284.594 435.015 284.87Z" fill="#FFB93E"/>
<path d="M404.168 289.455H370.517C369.79 289.455 369.189 288.904 369.164 288.252C369.164 288.227 369.164 288.202 369.164 288.177V284.87C369.164 284.845 369.164 284.82 369.164 284.795C369.164 284.77 369.164 284.77 369.164 284.744C369.214 284.193 369.665 283.742 370.216 283.617C370.241 283.617 370.241 283.617 370.267 283.617C370.342 283.592 370.417 283.592 370.517 283.592H400.034C400.034 283.617 400.034 283.617 400.034 283.642C400.535 285.346 401.638 287.701 404.168 289.455Z" fill="#FFA412"/>
<path d="M427.373 283.592H426.672V289.455H427.373V283.592Z" fill="#FFA412"/>
<path d="M424.944 283.592H424.242V289.455H424.944V283.592Z" fill="#FFA412"/>
<path d="M422.061 283.592H421.359V289.455H422.061V283.592Z" fill="#FFA412"/>
<path d="M417.6 283.592H416.898V289.455H417.6V283.592Z" fill="#FFA412"/>
<path d="M412.938 283.592H412.211V289.455H412.938V283.592Z" fill="#FFA412"/>
<path d="M405.725 283.592H405.023V289.455H405.725V283.592Z" fill="#FFA412"/>
<path d="M398.959 283.592H398.258V289.455H398.959V283.592Z" fill="#FFA412"/>
<path d="M392.944 283.592H392.242V289.455H392.944V283.592Z" fill="#FFA412"/>
<path d="M429.678 283.592H428.977V289.455H429.678V283.592Z" fill="#FFA412"/>
<path d="M431.203 283.592H430.477V289.455H431.203V283.592Z" fill="#FFA412"/>
<path d="M432.663 283.592H431.961V289.455H432.663V283.592Z" fill="#FFA412"/>
<path d="M433.758 283.617V289.43C433.683 289.455 433.583 289.455 433.482 289.455H433.031V283.592H433.482C433.583 283.592 433.683 283.592 433.758 283.617Z" fill="#FFA412"/>
<path d="M434.764 284.143V288.879C434.589 289.104 434.338 289.254 434.062 289.355V283.667C434.338 283.767 434.589 283.942 434.764 284.143Z" fill="#FFA412"/>
<path d="M434.888 279.031V282.339C434.888 282.615 434.788 282.84 434.637 283.04C434.587 283.091 434.537 283.141 434.487 283.191C434.337 283.341 434.136 283.441 433.911 283.517C433.836 283.542 433.761 283.567 433.685 283.567C433.66 283.567 433.66 283.567 433.635 283.567C433.56 283.592 433.46 283.592 433.36 283.592H370.542C370.467 283.592 370.417 283.592 370.342 283.592C370.317 283.592 370.292 283.592 370.267 283.592C369.615 283.492 369.114 283.066 369.039 282.514C369.039 282.489 369.039 282.439 369.039 282.414C369.039 282.389 369.039 282.364 369.039 282.339V279.031C369.039 279.006 369.039 278.981 369.039 278.956C369.039 278.906 369.039 278.881 369.064 278.831C369.164 278.23 369.816 277.754 370.568 277.754H433.385C433.435 277.754 433.46 277.754 433.51 277.754C433.51 277.754 433.51 277.754 433.535 277.754H433.56C433.585 277.754 433.585 277.754 433.61 277.754C433.635 277.754 433.635 277.754 433.66 277.754C433.76 277.779 433.861 277.779 433.936 277.829C433.986 277.854 434.036 277.854 434.086 277.879C434.287 277.954 434.462 278.079 434.587 278.23C434.612 278.255 434.637 278.28 434.637 278.305C434.788 278.53 434.888 278.781 434.888 279.031Z" fill="#FFB93E"/>
<path d="M404.042 283.617H370.39C370.365 283.617 370.34 283.617 370.315 283.617C370.29 283.617 370.265 283.617 370.24 283.617C369.639 283.542 369.138 283.091 369.063 282.515C369.063 282.49 369.063 282.439 369.063 282.414C369.063 282.389 369.063 282.364 369.063 282.339V279.032C369.063 279.007 369.063 278.982 369.063 278.957C369.063 278.906 369.062 278.881 369.088 278.831C369.088 278.781 369.113 278.731 369.113 278.681C369.263 278.13 369.789 277.729 370.416 277.729H399.907C399.907 277.779 399.932 277.829 399.957 277.879C400.459 279.583 401.536 281.863 403.992 283.567C403.992 283.592 404.017 283.617 404.042 283.617Z" fill="#FFA412"/>
<path d="M427.248 277.754H426.547V283.617H427.248V277.754Z" fill="#FFA412"/>
<path d="M424.819 277.754H424.117V283.617H424.819V277.754Z" fill="#FFA412"/>
<path d="M421.913 277.754H421.211V283.617H421.913V277.754Z" fill="#FFA412"/>
<path d="M417.475 277.754H416.773V283.617H417.475V277.754Z" fill="#FFA412"/>
<path d="M412.788 277.754H412.086V283.617H412.788V277.754Z" fill="#FFA412"/>
<path d="M405.569 277.754H404.867V283.617H405.569V277.754Z" fill="#FFA412"/>
<path d="M398.834 277.754H398.133V283.617H398.834V277.754Z" fill="#FFA412"/>
<path d="M392.819 277.754H392.117V283.617H392.819V277.754Z" fill="#FFA412"/>
<path d="M429.53 277.754H428.828V283.617H429.53V277.754Z" fill="#FFA412"/>
<path d="M431.053 277.754H430.352V283.617H431.053V277.754Z" fill="#FFA412"/>
<path d="M432.538 277.754H431.836V283.617H432.538V277.754Z" fill="#FFA412"/>
<path d="M433.633 277.779V283.592C433.558 283.617 433.458 283.617 433.357 283.617H432.906V277.754H433.357C433.458 277.754 433.558 277.779 433.633 277.779Z" fill="#FFA412"/>
<path d="M434.639 278.33V283.066C434.464 283.291 434.213 283.442 433.938 283.542V277.854C434.213 277.954 434.464 278.105 434.639 278.33Z" fill="#FFA412"/>
<path d="M438.144 273.319V276.626C438.144 276.902 438.044 277.127 437.894 277.353C437.718 277.578 437.468 277.729 437.192 277.829C437.092 277.854 437.017 277.879 436.916 277.904C436.841 277.929 436.741 277.929 436.641 277.929H373.824C373.573 277.929 373.323 277.879 373.122 277.779C372.696 277.603 372.395 277.253 372.32 276.852C372.32 276.827 372.32 276.801 372.32 276.776C372.32 276.751 372.32 276.751 372.32 276.726C372.32 276.701 372.32 276.676 372.32 276.651V273.344C372.32 273.319 372.32 273.294 372.32 273.268C372.32 273.218 372.32 273.193 372.345 273.143C372.446 272.542 373.097 272.066 373.849 272.066H436.666C436.766 272.066 436.841 272.066 436.942 272.091C437.042 272.116 437.142 272.116 437.217 272.166C437.518 272.266 437.768 272.417 437.919 272.642C438.044 272.817 438.144 273.043 438.144 273.319Z" fill="#FFB93E"/>
<path d="M407.301 277.904H373.65C373.424 277.904 373.224 277.854 373.023 277.753C372.648 277.578 372.372 277.227 372.297 276.826C372.297 276.801 372.297 276.776 372.297 276.751C372.297 276.726 372.297 276.726 372.297 276.701C372.297 276.676 372.297 276.651 372.297 276.626V273.318C372.297 273.293 372.297 273.268 372.297 273.243C372.297 273.193 372.297 273.168 372.322 273.118C372.322 273.068 372.347 273.018 372.347 272.993C372.497 272.441 373.023 272.041 373.65 272.041H403.167C403.618 273.719 404.67 276.025 407.101 277.753C407.151 277.804 407.226 277.854 407.301 277.904Z" fill="#FFA412"/>
<path d="M430.483 272.041H429.781V277.904H430.483V272.041Z" fill="#FFA412"/>
<path d="M428.077 272.041H427.375V277.904H428.077V272.041Z" fill="#FFA412"/>
<path d="M425.17 272.041H424.469V277.904H425.17V272.041Z" fill="#FFA412"/>
<path d="M420.758 272.041H420.031V277.904H420.758V272.041Z" fill="#FFA412"/>
<path d="M416.022 272.041H415.32V277.904H416.022V272.041Z" fill="#FFA412"/>
<path d="M408.834 272.041H408.133V277.904H408.834V272.041Z" fill="#FFA412"/>
<path d="M402.092 272.041H401.391V277.904H402.092V272.041Z" fill="#FFA412"/>
<path d="M396.053 272.041H395.352V277.904H396.053V272.041Z" fill="#FFA412"/>
<path d="M432.788 272.041H432.086V277.904H432.788V272.041Z" fill="#FFA412"/>
<path d="M434.311 272.041H433.609V277.904H434.311V272.041Z" fill="#FFA412"/>
<path d="M435.772 272.041H435.07V277.904H435.772V272.041Z" fill="#FFA412"/>
<path d="M436.899 272.066V277.879C436.823 277.904 436.723 277.904 436.623 277.904H436.172V272.041H436.623C436.723 272.041 436.798 272.041 436.899 272.066Z" fill="#FFA412"/>
<path d="M437.873 272.617V277.353C437.698 277.578 437.447 277.729 437.172 277.829V272.116C437.447 272.216 437.698 272.392 437.873 272.617Z" fill="#FFA412"/>
<path d="M443.279 267.455V270.763C443.279 271.013 443.178 271.264 443.028 271.464C443.003 271.489 442.978 271.514 442.953 271.539C442.853 271.64 442.752 271.74 442.627 271.79C442.552 271.815 442.502 271.865 442.427 271.89C442.402 271.915 442.352 271.915 442.327 271.94C442.226 271.965 442.151 271.991 442.051 272.016C441.976 272.041 441.875 272.041 441.775 272.041H378.958C378.206 272.041 377.555 271.565 377.455 270.963C377.455 270.913 377.455 270.888 377.43 270.838C377.43 270.813 377.43 270.788 377.43 270.763V267.455C377.43 267.43 377.43 267.405 377.43 267.38C377.455 266.754 378.031 266.253 378.758 266.177C378.808 266.177 378.883 266.177 378.933 266.177H441.75C441.85 266.177 441.926 266.177 442.026 266.202C442.126 266.227 442.226 266.227 442.301 266.278C442.552 266.353 442.778 266.503 442.953 266.679C442.978 266.704 443.003 266.729 443.028 266.754C443.178 266.954 443.279 267.18 443.279 267.455Z" fill="#FFB93E"/>
<path d="M412.41 272.041H378.759C378.133 272.041 377.607 271.64 377.456 271.088C377.431 271.038 377.431 270.988 377.431 270.963C377.431 270.913 377.431 270.888 377.406 270.838C377.406 270.813 377.406 270.788 377.406 270.763V267.455C377.406 267.43 377.406 267.405 377.406 267.38C377.431 266.754 377.958 266.252 378.609 266.177C378.659 266.177 378.709 266.177 378.759 266.177H408.276C408.752 267.906 409.855 270.287 412.41 272.041Z" fill="#FFA412"/>
<path d="M435.616 266.177H434.914V272.04H435.616V266.177Z" fill="#FFA412"/>
<path d="M433.209 266.177H432.508V272.04H433.209V266.177Z" fill="#FFA412"/>
<path d="M430.303 266.177H429.602V272.04H430.303V266.177Z" fill="#FFA412"/>
<path d="M425.866 266.177H425.164V272.04H425.866V266.177Z" fill="#FFA412"/>
<path d="M421.155 266.177H420.453V272.04H421.155V266.177Z" fill="#FFA412"/>
<path d="M413.967 266.177H413.266V272.04H413.967V266.177Z" fill="#FFA412"/>
<path d="M407.225 266.177H406.523V272.04H407.225V266.177Z" fill="#FFA412"/>
<path d="M401.186 266.177H400.484V272.04H401.186V266.177Z" fill="#FFA412"/>
<path d="M437.92 266.177H437.219V272.04H437.92V266.177Z" fill="#FFA412"/>
<path d="M439.444 266.177H438.742V272.04H439.444V266.177Z" fill="#FFA412"/>
<path d="M440.905 266.177H440.203V272.04H440.905V266.177Z" fill="#FFA412"/>
<path d="M442.031 266.202V272.015C441.956 272.04 441.856 272.04 441.756 272.04H441.305V266.177H441.756C441.856 266.177 441.931 266.177 442.031 266.202Z" fill="#FFA412"/>
<path d="M443.006 266.728V271.464C442.831 271.69 442.58 271.84 442.305 271.94V266.252C442.58 266.353 442.831 266.528 443.006 266.728Z" fill="#FFA412"/>
<path d="M435.013 261.592V264.899C435.013 265.175 434.913 265.401 434.762 265.601C434.587 265.827 434.337 265.977 434.036 266.077C433.936 266.102 433.86 266.127 433.76 266.152C433.735 266.152 433.71 266.152 433.66 266.152C433.635 266.152 433.61 266.152 433.61 266.152H433.585C433.56 266.152 433.535 266.152 433.51 266.152H370.693C370.141 266.152 369.665 265.902 369.39 265.551C369.264 265.376 369.189 265.175 369.164 264.95C369.164 264.925 369.164 264.899 369.164 264.874V261.592C369.164 261.567 369.164 261.542 369.164 261.517C369.189 260.966 369.64 260.515 370.241 260.364C370.392 260.339 370.542 260.314 370.693 260.314H433.51C433.535 260.314 433.56 260.314 433.585 260.314C433.61 260.314 433.61 260.314 433.635 260.314C433.685 260.314 433.735 260.314 433.785 260.339C433.885 260.364 433.986 260.364 434.061 260.414C434.111 260.439 434.161 260.439 434.186 260.464C434.362 260.54 434.512 260.64 434.637 260.74C434.637 260.74 434.637 260.74 434.662 260.765C434.712 260.815 434.737 260.84 434.788 260.89C434.938 261.091 435.013 261.341 435.013 261.592Z" fill="#FFB93E"/>
<path d="M404.168 266.177H370.517C370.041 266.177 369.615 265.952 369.39 265.601C369.264 265.426 369.189 265.2 369.164 264.975C369.164 264.95 369.164 264.925 369.164 264.899V261.592C369.164 261.567 369.164 261.542 369.164 261.517C369.189 260.94 369.64 260.439 370.241 260.339C370.342 260.314 370.417 260.314 370.517 260.314H400.034C400.034 260.364 400.059 260.414 400.084 260.439C400.56 262.168 401.663 264.474 404.168 266.177Z" fill="#FFA412"/>
<path d="M427.373 260.314H426.672V266.177H427.373V260.314Z" fill="#FFA412"/>
<path d="M424.944 260.314H424.242V266.177H424.944V260.314Z" fill="#FFA412"/>
<path d="M422.061 260.314H421.359V266.177H422.061V260.314Z" fill="#FFA412"/>
<path d="M417.6 260.314H416.898V266.177H417.6V260.314Z" fill="#FFA412"/>
<path d="M412.938 260.314H412.211V266.177H412.938V260.314Z" fill="#FFA412"/>
<path d="M405.725 260.314H405.023V266.177H405.725V260.314Z" fill="#FFA412"/>
<path d="M398.959 260.314H398.258V266.177H398.959V260.314Z" fill="#FFA412"/>
<path d="M392.944 260.314H392.242V266.177H392.944V260.314Z" fill="#FFA412"/>
<path d="M429.678 260.314H428.977V266.177H429.678V260.314Z" fill="#FFA412"/>
<path d="M431.203 260.314H430.477V266.177H431.203V260.314Z" fill="#FFA412"/>
<path d="M432.663 260.314H431.961V266.177H432.663V260.314Z" fill="#FFA412"/>
<path d="M433.758 260.339V266.152C433.683 266.177 433.583 266.177 433.482 266.177H433.031V260.314H433.482C433.583 260.314 433.683 260.339 433.758 260.339Z" fill="#FFA412"/>
<path d="M434.764 260.89V265.626C434.589 265.852 434.338 266.002 434.062 266.102V260.414C434.338 260.49 434.589 260.665 434.764 260.89Z" fill="#FFA412"/>
<path d="M439.652 255.879V259.187C439.652 259.462 439.552 259.688 439.401 259.888C439.226 260.114 438.976 260.264 438.7 260.364C438.6 260.389 438.525 260.414 438.424 260.439C438.349 260.465 438.249 260.465 438.149 260.465H375.332C375.081 260.465 374.855 260.414 374.655 260.339C374.204 260.139 373.878 259.763 373.828 259.312C373.828 259.287 373.828 259.287 373.828 259.262C373.828 259.237 373.828 259.212 373.828 259.187V255.879C373.828 255.854 373.828 255.829 373.828 255.804C373.878 255.178 374.429 254.676 375.156 254.601C375.206 254.601 375.281 254.601 375.332 254.601H438.149C438.249 254.601 438.324 254.601 438.424 254.626C438.525 254.651 438.625 254.651 438.7 254.702C439.001 254.802 439.251 254.977 439.401 255.178C439.552 255.353 439.652 255.604 439.652 255.879Z" fill="#FFB93E"/>
<path d="M408.809 260.465H375.158C374.932 260.465 374.732 260.414 374.556 260.339C374.155 260.139 373.855 259.763 373.805 259.312C373.805 259.287 373.805 259.287 373.805 259.262C373.805 259.237 373.805 259.212 373.805 259.187V255.879C373.805 255.854 373.805 255.829 373.805 255.804C373.83 255.178 374.356 254.676 375.007 254.601C375.058 254.601 375.108 254.601 375.158 254.601H404.675C405.126 256.28 406.203 258.585 408.608 260.314C408.659 260.364 408.734 260.414 408.809 260.465Z" fill="#FFA412"/>
<path d="M431.991 254.601H431.289V260.465H431.991V254.601Z" fill="#FFA412"/>
<path d="M429.584 254.601H428.883V260.465H429.584V254.601Z" fill="#FFA412"/>
<path d="M426.678 254.601H425.977V260.465H426.678V254.601Z" fill="#FFA412"/>
<path d="M422.241 254.601H421.539V260.465H422.241V254.601Z" fill="#FFA412"/>
<path d="M417.53 254.601H416.828V260.465H417.53V254.601Z" fill="#FFA412"/>
<path d="M410.342 254.601H409.641V260.465H410.342V254.601Z" fill="#FFA412"/>
<path d="M403.625 254.601H402.898V260.465H403.625V254.601Z" fill="#FFA412"/>
<path d="M397.586 254.601H396.859V260.465H397.586V254.601Z" fill="#FFA412"/>
<path d="M434.295 254.601H433.594V260.465H434.295V254.601Z" fill="#FFA412"/>
<path d="M435.819 254.601H435.117V260.465H435.819V254.601Z" fill="#FFA412"/>
<path d="M437.28 254.601H436.578V260.465H437.28V254.601Z" fill="#FFA412"/>
<path d="M438.406 254.601V260.414C438.331 260.439 438.231 260.439 438.131 260.439H437.68V254.576H438.131C438.231 254.601 438.306 254.601 438.406 254.601Z" fill="#FFA412"/>
<path d="M439.381 255.153V259.888C439.206 260.114 438.955 260.264 438.68 260.364V254.677C438.98 254.777 439.206 254.952 439.381 255.153Z" fill="#FFA412"/>
<path d="M441.607 250.016V253.323C441.607 253.599 441.507 253.824 441.356 254.025C441.181 254.25 440.93 254.401 440.655 254.501C440.554 254.526 440.479 254.551 440.379 254.576C440.354 254.576 440.329 254.576 440.279 254.576C440.254 254.576 440.254 254.576 440.229 254.576C440.204 254.576 440.204 254.576 440.179 254.576C440.154 254.576 440.128 254.576 440.103 254.576H377.286C376.484 254.576 375.808 254.025 375.758 253.373C375.758 253.348 375.758 253.323 375.758 253.298V249.991C375.758 249.966 375.758 249.941 375.758 249.916C375.808 249.239 376.459 248.713 377.286 248.713H440.103C440.204 248.713 440.279 248.713 440.379 248.738C440.479 248.763 440.579 248.763 440.655 248.813C440.955 248.913 441.206 249.089 441.356 249.289C441.507 249.515 441.607 249.74 441.607 250.016Z" fill="#FFB93E"/>
<path d="M410.762 254.601H377.111C376.384 254.601 375.783 254.05 375.758 253.398C375.758 253.373 375.758 253.348 375.758 253.323V250.016C375.758 249.991 375.758 249.966 375.758 249.941C375.783 249.264 376.384 248.738 377.111 248.738H406.628C407.104 250.467 408.206 252.847 410.762 254.601Z" fill="#FFA412"/>
<path d="M433.967 248.738H433.266V254.601H433.967V248.738Z" fill="#FFA412"/>
<path d="M431.538 248.738H430.836V254.601H431.538V248.738Z" fill="#FFA412"/>
<path d="M428.655 248.738H427.953V254.601H428.655V248.738Z" fill="#FFA412"/>
<path d="M424.194 248.738H423.492V254.601H424.194V248.738Z" fill="#FFA412"/>
<path d="M419.506 248.738H418.805V254.601H419.506V248.738Z" fill="#FFA412"/>
<path d="M412.288 248.738H411.586V254.601H412.288V248.738Z" fill="#FFA412"/>
<path d="M405.553 248.738H404.852V254.601H405.553V248.738Z" fill="#FFA412"/>
<path d="M399.538 248.738H398.836V254.601H399.538V248.738Z" fill="#FFA412"/>
<path d="M436.248 248.738H435.547V254.601H436.248V248.738Z" fill="#FFA412"/>
<path d="M437.772 248.738H437.07V254.601H437.772V248.738Z" fill="#FFA412"/>
<path d="M439.256 248.738H438.555V254.601H439.256V248.738Z" fill="#FFA412"/>
<path d="M440.352 248.763V254.576C440.276 254.601 440.176 254.601 440.076 254.601H439.625V248.738H440.076C440.176 248.738 440.276 248.738 440.352 248.763Z" fill="#FFA412"/>
<path d="M441.358 249.29V254.025C441.182 254.251 440.932 254.401 440.656 254.501V248.813C440.932 248.914 441.182 249.089 441.358 249.29Z" fill="#FFA412"/>
<path d="M421.712 215.312C421.712 215.312 418.405 219.948 415.398 220.023C412.366 220.098 407.781 217.868 407.781 217.868C407.781 217.868 404.999 211.679 406.878 209.249C406.878 209.249 408.758 208.422 410.737 209.875C411.088 210.126 411.414 210.451 411.765 210.852C412.241 211.429 412.792 211.754 413.343 211.93C415.498 212.581 418.054 211.053 419.031 212.531C419.582 213.408 420.209 214.06 420.71 214.511C421.261 215.062 421.712 215.312 421.712 215.312Z" fill="#FFEDDC"/>
<path d="M378.688 248.813C378.688 248.813 390.339 220.549 411.336 220.023C411.336 220.023 430.705 222.178 431.783 248.813H378.688Z" fill="#FFEDDC"/>
<path d="M405.575 220.875C405.575 220.875 413.994 222.754 416.575 221.652C416.575 221.652 416.976 218.144 413.418 218.62C410.987 218.946 409.409 217.793 408.482 217.317C407.204 216.666 405.249 219.422 405.575 220.875Z" fill="#DB6A1D"/>
<path d="M412.914 215.588C412.388 215.989 410.734 209.9 410.734 209.9C411.085 210.151 411.411 210.477 411.762 210.877C412.238 211.454 412.789 211.78 413.34 211.955C413.34 212.13 413.441 215.187 412.914 215.588Z" fill="#E5C1A1"/>
<path d="M420.684 214.536C420.559 214.611 416.675 216.941 416.149 216.941C415.623 216.941 419.03 212.556 419.03 212.556C419.557 213.408 420.183 214.06 420.684 214.536Z" fill="#E5C1A1"/>
<path d="M390.067 240.92C389.841 240.745 398.311 228.442 400.641 228.367C402.971 228.267 408.208 231.048 412.017 231.424C415.8 231.775 419.483 230.697 420.21 232.952C420.937 235.207 422.891 243.15 421.688 244.428C420.486 245.681 394.727 244.904 390.067 240.92Z" fill="#F9DDBF"/>
<path opacity="0.5" d="M398.055 283.592C398.055 283.617 398.055 283.617 398.055 283.642C397.954 285.621 397.629 287.551 397.103 289.455C397.027 289.731 396.952 290.006 396.877 290.282C396.351 292.011 395.649 293.69 394.797 295.318C393.72 297.348 392.417 299.277 390.838 301.031C390.788 301.081 390.763 301.131 390.713 301.182C388.759 303.361 386.453 305.291 383.823 306.894C383.271 307.245 382.695 307.546 382.119 307.872C381.718 308.072 381.317 308.273 380.916 308.473C380.54 308.699 380.139 308.874 379.738 309.124C378.636 309.801 377.258 310.327 375.754 310.778V308.197C375.754 308.172 375.754 308.147 375.754 308.122C375.754 308.072 375.754 308.047 375.779 307.997C375.779 307.947 375.804 307.897 375.804 307.847C375.955 307.295 376.481 306.894 377.107 306.894H370.392C369.766 306.894 369.24 306.494 369.089 305.942C369.064 305.892 369.064 305.842 369.064 305.792C369.064 305.742 369.064 305.717 369.039 305.667C369.039 305.642 369.039 305.617 369.039 305.591V302.284C369.039 302.259 369.039 302.234 369.039 302.209C369.039 302.159 369.039 302.134 369.064 302.084C369.064 302.033 369.089 301.983 369.089 301.933C369.24 301.382 369.766 300.981 370.392 300.981H373.023C372.647 300.806 372.372 300.455 372.296 300.054C372.296 300.029 372.296 300.004 372.296 299.979C372.296 299.954 372.296 299.954 372.296 299.929C372.296 299.904 372.296 299.879 372.296 299.853V296.546C372.296 296.521 372.296 296.496 372.296 296.471C372.296 296.421 372.296 296.396 372.321 296.346C372.321 296.295 372.347 296.245 372.347 296.22C372.497 295.669 373.023 295.268 373.649 295.268H375.153C374.526 295.268 374 294.867 373.85 294.316C373.825 294.266 373.825 294.216 373.825 294.166C373.825 294.116 373.825 294.09 373.8 294.04V290.658C373.825 290.031 374.351 289.53 375.003 289.455H370.542C369.816 289.455 369.214 288.904 369.189 288.252C369.189 288.227 369.189 288.202 369.189 288.177V284.87C369.189 284.845 369.189 284.819 369.189 284.794C369.189 284.769 369.189 284.769 369.189 284.744C369.24 284.193 369.691 283.742 370.242 283.617C369.64 283.542 369.139 283.091 369.064 282.514C369.064 282.489 369.064 282.439 369.064 282.414C369.064 282.389 369.064 282.364 369.064 282.339V279.031C369.064 279.006 369.064 278.981 369.064 278.956C369.064 278.906 369.064 278.881 369.089 278.831C369.089 278.781 369.114 278.731 369.114 278.681C369.265 278.129 369.791 277.728 370.417 277.728H373.048C372.672 277.553 372.397 277.202 372.321 276.801C372.321 276.776 372.321 276.751 372.321 276.726C372.321 276.701 372.321 276.701 372.321 276.676C372.321 276.651 372.321 276.626 372.321 276.601V273.293C372.321 273.268 372.321 273.243 372.321 273.218C372.321 273.168 372.321 273.143 372.347 273.093C372.347 273.043 372.372 272.993 372.372 272.968C372.522 272.416 373.048 272.015 373.675 272.015H378.811C378.185 272.015 377.659 271.615 377.508 271.063C377.483 271.013 377.483 270.963 377.483 270.938C377.483 270.888 377.483 270.863 377.458 270.813C377.458 270.788 377.458 270.763 377.458 270.738V267.43C377.458 267.405 377.458 267.38 377.458 267.355C377.483 266.729 378.009 266.227 378.661 266.152H370.568C370.091 266.152 369.665 265.927 369.44 265.576V265.551L370.292 260.339V260.314L371.495 252.897C372.898 253.098 374.301 253.373 375.654 253.724C375.729 253.749 375.804 253.774 375.905 253.799C375.905 253.799 375.905 253.799 375.93 253.799C376.731 254.025 377.508 254.275 378.285 254.551H378.31C381.868 255.854 385.176 257.783 388.057 260.264C388.107 260.314 388.157 260.364 388.207 260.389C389.711 261.692 391.089 263.171 392.292 264.799C392.542 265.125 392.768 265.451 392.993 265.776C393.068 265.877 393.144 266.002 393.219 266.102C393.595 266.653 393.945 267.205 394.271 267.781C395.048 269.134 395.724 270.537 396.251 271.94C396.977 273.82 397.478 275.724 397.779 277.653C397.779 277.703 397.804 277.753 397.804 277.804C398.055 279.808 398.155 281.712 398.055 283.592Z" fill="#E2810E"/>
<path d="M333.16 295.469C324.917 280.535 330.354 261.717 345.313 253.499C360.247 245.255 379.064 250.692 387.283 265.651C395.526 280.585 390.089 299.403 375.13 307.621C360.197 315.865 341.404 310.428 333.16 295.469Z" fill="#E2810E"/>
<path d="M373.928 308.248C373.552 308.473 373.151 308.699 372.775 308.924C372.65 308.999 372.5 309.074 372.375 309.15C372.074 309.3 371.773 309.475 371.447 309.626C356.739 316.842 338.774 311.305 330.78 296.797C323.138 282.965 327.247 265.802 339.776 256.806C340.778 256.08 341.83 255.428 342.933 254.802C343.334 254.576 343.735 254.376 344.136 254.175C344.537 253.975 344.912 253.799 345.313 253.624C346.516 253.073 347.744 252.622 348.997 252.271C350.851 251.72 352.705 251.344 354.584 251.143C360.397 250.517 366.261 251.594 371.447 254.125C376.96 256.831 381.721 261.166 384.903 266.954C392.946 281.487 388.01 299.703 373.928 308.248Z" fill="#FFB93E"/>
<path d="M358.063 309.876C355.483 309.876 352.877 309.5 350.321 308.774C343.205 306.719 337.341 302.009 333.758 295.544C330.2 289.079 329.348 281.587 331.403 274.471C333.458 267.355 338.168 261.492 344.633 257.909C358.013 250.542 374.876 255.428 382.243 268.783C389.61 282.164 384.724 299.027 371.368 306.393C367.259 308.724 362.674 309.876 358.063 309.876ZM357.988 255.253C353.603 255.253 349.143 256.33 345.034 258.585C338.72 262.068 334.159 267.781 332.155 274.697C330.15 281.612 330.977 288.879 334.435 295.193C337.918 301.507 343.631 306.068 350.546 308.072C357.462 310.077 364.728 309.25 371.043 305.792C384.047 298.626 388.808 282.214 381.642 269.184C376.731 260.264 367.485 255.253 357.988 255.253Z" fill="#FFA412"/>
<path d="M371.645 284.87C371.595 284.719 371.52 284.569 371.445 284.419C370.943 283.316 370.317 282.414 369.565 281.738C368.713 280.961 367.736 280.385 366.609 280.009C365.481 279.633 364.228 279.382 362.85 279.307C361.472 279.232 359.969 279.207 358.34 279.257C357.338 279.282 356.486 279.257 355.759 279.207C355.057 279.132 354.456 279.006 353.955 278.806C353.454 278.606 353.053 278.33 352.752 277.979C352.452 277.628 352.176 277.202 351.975 276.701C351.775 276.2 351.65 275.699 351.625 275.223C351.6 274.722 351.675 274.271 351.85 273.82C352.026 273.369 352.301 272.968 352.702 272.592C353.103 272.216 353.629 271.89 354.281 271.64C355.483 271.139 356.611 271.164 357.663 271.665C358.716 272.166 359.568 273.243 360.219 274.847L366.508 272.291C365.957 270.938 365.281 269.811 364.454 268.884C363.627 267.956 362.7 267.23 361.672 266.729C360.645 266.228 359.518 265.927 358.29 265.852C357.062 265.777 355.809 265.902 354.481 266.228L352.702 261.843L349.219 263.246L350.973 267.581C349.72 268.232 348.643 268.984 347.766 269.861C346.889 270.738 346.212 271.665 345.761 272.667C345.285 273.669 345.035 274.722 345.01 275.849C344.985 276.952 345.21 278.079 345.661 279.232C346.187 280.56 346.889 281.612 347.741 282.364C348.593 283.141 349.57 283.717 350.698 284.093C351.825 284.469 353.053 284.694 354.456 284.77C355.834 284.845 357.338 284.845 358.966 284.77C359.918 284.719 360.72 284.719 361.422 284.795C362.123 284.87 362.725 284.995 363.226 285.195C363.727 285.396 364.153 285.672 364.479 286.047C364.804 286.423 365.105 286.874 365.331 287.451C365.531 287.952 365.631 288.453 365.631 288.954C365.631 289.455 365.506 289.931 365.306 290.382C365.08 290.833 364.754 291.259 364.303 291.635C363.852 292.011 363.301 292.362 362.625 292.637C362.023 292.888 361.422 293.038 360.77 293.113C360.144 293.189 359.518 293.138 358.916 292.938C358.315 292.738 357.738 292.362 357.212 291.836C356.686 291.309 356.235 290.558 355.834 289.605L349.545 292.161C350.196 293.79 351.023 295.068 352.026 296.02C353.028 296.972 354.105 297.649 355.283 298.05C356.461 298.45 357.688 298.626 358.991 298.576C360.269 298.526 361.547 298.325 362.8 297.949L364.429 301.958L367.886 300.555L366.258 296.521C367.511 295.87 368.588 295.118 369.49 294.266C370.317 293.489 370.968 292.637 371.445 291.71C371.495 291.635 371.52 291.56 371.545 291.485C372.021 290.482 372.271 289.43 372.296 288.328C372.347 287.2 372.121 286.047 371.645 284.87Z" fill="#FFA412"/>
<g opacity="0.7">
<path d="M578.593 278.63C578.593 278.63 584.531 271.715 578.969 267.305C578.969 267.305 574.91 264.849 571.577 265.05C571.577 265.05 576.288 272.943 574.759 273.719C573.231 274.496 570.149 264.549 570.149 264.549C570.149 264.549 560.878 263.646 557.896 265.075C557.896 265.075 565.814 271.564 564.135 271.94C562.456 272.316 553.912 265.977 553.912 265.977C553.912 265.977 545.293 267.455 545.744 272.692C546.195 277.954 549.176 279.583 550.479 279.432C551.782 279.282 559.425 276.375 559.575 277.453C559.75 278.53 555.14 282.013 551.933 282.188C551.933 282.188 558.021 288.879 562.056 286.949C566.09 285.02 566.441 281.938 568.946 280.81C571.452 279.658 573.607 279.658 572.579 280.835C571.552 282.013 566.992 283.141 565.538 285.696C564.11 288.252 562.807 289.956 566.992 289.33C571.176 288.703 577.967 285.646 578.267 282.138C578.593 278.63 578.593 278.63 578.593 278.63Z" fill="#77A4E5"/>
<path d="M550.031 272.842C550.031 272.842 573.434 271.94 578.621 278.63C578.621 278.63 579.774 282.063 583.281 285.17L583.833 286.674C583.833 286.674 579.774 282.389 578.32 282.138C578.295 282.138 580.575 273.845 550.031 272.842Z" fill="#77A4E5"/>
<path d="M583.255 285.17C583.255 285.17 588.292 288.879 588.618 295.519L587.716 295.594C587.716 295.594 586.112 288.728 583.205 286.047C580.324 283.366 583.255 285.17 583.255 285.17Z" fill="#77A4E5"/>
<path d="M596.906 272.968C596.906 272.968 588.587 268.307 592.47 261.968C592.47 261.968 595.578 258.084 598.91 257.082C598.91 257.082 597.131 266.528 598.91 266.729C600.689 266.954 600.138 256.079 600.138 256.079C600.138 256.079 608.908 251.87 612.34 252.196C612.34 252.196 606.903 261.417 608.682 261.191C610.461 260.966 616.575 251.644 616.575 251.644C616.575 251.644 625.57 249.991 627.024 255.303C628.477 260.64 626.147 263.296 624.794 263.622C623.466 263.947 614.921 263.847 615.147 264.95C615.372 266.052 621.135 267.831 624.368 266.829C624.368 266.829 620.81 275.599 616.149 275.148C611.489 274.697 610.035 271.815 607.154 271.59C604.272 271.364 602.167 272.141 603.596 272.918C605.049 273.694 609.935 273.168 612.265 275.148C614.596 277.127 616.475 278.355 612.165 279.232C607.83 280.109 600.063 279.558 598.509 276.225C596.906 272.968 596.906 272.968 596.906 272.968Z" fill="#77A4E5"/>
<path d="M622.893 256.982C622.893 256.982 599.566 264.524 596.91 272.968C596.91 272.968 597.01 276.751 594.68 281.061V282.715C594.68 282.715 597.11 277.052 598.463 276.275C598.463 276.3 593.251 268.959 622.893 256.982Z" fill="#77A4E5"/>
<path d="M594.676 281.061C594.676 281.061 591.093 286.523 593.122 293.163L594.05 292.913C594.05 292.913 593.148 285.596 595.027 281.913C596.931 278.23 594.676 281.061 594.676 281.061Z" fill="#77A4E5"/>
<path d="M584.328 262.619C584.328 262.619 596.781 255.654 590.968 246.182C590.968 246.182 586.308 240.369 581.346 238.866C581.346 238.866 584.002 252.972 581.346 253.298C578.69 253.624 579.517 237.362 579.517 237.362C579.517 237.362 566.413 231.048 561.251 231.549C561.251 231.549 569.394 245.33 566.738 245.004C564.082 244.679 554.962 230.722 554.962 230.722C554.962 230.722 541.506 228.241 539.351 236.21C537.196 244.178 540.679 248.162 542.684 248.663C544.688 249.164 557.467 248.988 557.117 250.667C556.791 252.321 548.146 254.977 543.335 253.499C543.335 253.499 548.647 266.603 555.613 265.952C562.579 265.3 564.734 260.966 569.069 260.64C573.378 260.314 576.535 261.467 574.381 262.644C572.226 263.797 564.909 263.02 561.426 265.977C557.943 268.934 555.112 270.763 561.602 272.091C568.066 273.419 579.693 272.592 582.023 267.606C584.328 262.619 584.328 262.619 584.328 262.619Z" fill="#9FC1F4"/>
<path d="M545.492 238.715C545.492 238.715 580.346 250.016 584.33 262.619C584.33 262.619 584.155 268.257 587.663 274.747V277.227C587.663 277.227 584.004 268.758 582.025 267.605C582 267.605 589.817 256.631 545.492 238.715Z" fill="#9FC1F4"/>
<path d="M587.662 274.746C587.662 274.746 593.049 282.915 589.967 292.862L588.589 292.487C588.589 292.487 589.942 281.537 587.111 276.024C584.305 270.512 587.662 274.746 587.662 274.746Z" fill="#9FC1F4"/>
<path d="M584.03 312.182C572.153 312.182 562.531 302.56 562.531 290.683H605.529C605.529 302.535 595.907 312.182 584.03 312.182Z" fill="#9FC1F4"/>
<path d="M562.027 291.339H606.227V290.688H562.027V291.339Z" fill="#77A4E5"/>
<path d="M593.222 312.181H573.102C573.102 311.229 573.878 310.452 574.831 310.452H591.518C592.445 310.452 593.222 311.229 593.222 312.181Z" fill="#77A4E5"/>
</g>
<path d="M452.98 167.805C425.318 190.331 392.168 207.645 354.458 219.271C323.838 228.718 289.911 234.506 253.604 236.46C243.707 236.986 234.06 237.237 224.789 237.237C206.022 237.237 188.733 236.285 173.648 234.957L179.762 206.091C200.559 207.795 225.391 208.672 252.226 207.219C286.379 205.365 318.201 199.952 346.79 191.158C381.168 180.559 411.261 164.898 436.193 144.602L452.98 167.805Z" fill="#F77D48"/>
<path d="M246.706 110.249C242.847 108.245 239.765 109.498 239.765 109.498C227.988 108.12 224.555 121.851 224.731 126.561C224.881 131.272 225.432 136.359 220.171 142.497C204.986 160.213 236.783 161.014 236.783 161.014C237.059 146.857 254.022 152.019 253.296 153.447C275.045 158.684 255.45 114.785 246.706 110.249Z" fill="#163560"/>
<path d="M201.282 169.283C201.282 169.283 199.202 166.126 197.548 166.076C195.869 166.026 192.787 165.149 193.038 165.775C193.289 166.401 195.193 166.452 195.393 166.827C195.569 167.203 192.562 167.755 191.685 167.805C190.808 167.855 188.778 167.805 188.854 168.231C188.904 168.657 192.537 170.461 195.068 170.21C197.623 169.96 200.781 170.962 200.781 170.962L201.282 169.283Z" fill="#FFB27D"/>
<path d="M231.224 170.31C231.224 170.31 230.097 172.54 228.067 175.096C225.612 178.178 221.803 181.736 217.042 182.438C214.762 182.763 212.532 182.287 210.503 181.385C204.715 178.83 200.38 172.916 200.38 172.916C199.352 170.135 201.031 168.256 201.031 168.256C201.031 168.256 212.708 170.887 213.81 170.335C214.913 169.784 221.402 151.092 222.956 148.736C224.509 146.381 229.771 145.178 229.771 145.178L231.224 170.31Z" fill="#F99746"/>
<path d="M228.065 175.096C225.609 178.178 221.801 181.736 217.04 182.438C214.76 182.763 212.53 182.287 210.5 181.385C210.726 181.41 216.514 182.137 218.794 178.003C221.149 173.793 223.68 167.128 227.163 169.358C228.691 170.31 228.616 172.691 228.065 175.096Z" fill="#ED7D2B"/>
<path d="M274.798 296.371C274.798 296.371 278.356 299.628 277.655 301.933C276.953 304.239 273.746 305.792 273.32 308.598C272.894 311.43 271.14 312.958 269.586 312.958C268.033 312.958 262.12 312.958 262.12 312.958C262.12 312.958 260.967 310.979 263.748 310.377C266.53 309.776 267.582 306.469 267.407 303.387C267.231 300.305 267.657 296.195 267.657 296.195L273.57 294.817L274.798 296.371Z" fill="#36599E"/>
<path d="M244.632 297.749C244.632 297.749 245.91 311.53 244.356 312.307L224.336 312.257C224.336 312.257 224.336 309.951 227.543 309.425C230.75 308.924 236.413 307.02 237.365 302.835C238.318 298.651 244.632 297.749 244.632 297.749Z" fill="#2B478B"/>
<path d="M258.911 198.925C254.802 189.679 252.271 187.023 252.747 184.167C253.098 182.037 251.645 144.377 251.645 144.377C251.143 144.226 250.166 144.101 249.64 143.976C247.961 143.6 246.558 142.422 245.957 140.793C245.255 138.839 244.704 135.932 244.704 132.299L244.178 132.399L235.308 134.153C235.308 134.153 235.508 136.935 235.508 139.566C235.508 139.591 235.508 139.616 235.508 139.641C235.508 141.921 234.03 143.951 231.825 144.577C230.697 144.903 229.72 145.178 229.72 145.178C229.72 145.178 226.463 154.474 225.836 164.046C225.21 173.593 231.75 177.752 225.786 196.845C219.722 216.314 261.191 204.012 258.911 198.925Z" fill="#FFB27D"/>
<path d="M235.336 134.129C235.336 134.129 235.536 136.91 235.536 139.541C240.498 139.391 243.129 134.88 244.206 132.35L235.336 134.129Z" fill="#E8945B"/>
<path d="M233.683 136.609C233.683 136.609 245.435 136.809 245.435 129.493C245.435 122.176 246.964 117.265 239.472 116.839C231.98 116.413 230.501 119.195 229.925 121.65C229.299 124.081 230.627 136.384 233.683 136.609Z" fill="#FFB27D"/>
<path d="M234.109 116.664C234.109 116.664 237.317 125.258 242.253 126.511C247.189 127.789 249.319 126.461 249.319 126.461C249.319 126.461 245.535 123.454 244.758 118.192C244.784 118.192 236.54 112.555 234.109 116.664Z" fill="#163560"/>
<path d="M234.909 117.341C234.909 117.341 232.529 118.243 231.551 119.972C230.599 121.675 229.772 123.931 229.973 126.687C229.973 126.687 227.542 120.849 230.274 117.541C233.13 114.058 234.909 117.341 234.909 117.341Z" fill="#163560"/>
<path d="M236.235 132.074C236.235 132.074 235.433 133.151 233.804 133.076C232.501 133.026 232 131.873 232 131.873C232 131.873 234.38 131.297 236.235 132.074Z" fill="#EBF3FA"/>
<path d="M260.036 161.014C260.036 161.014 260.337 165.224 260.036 170.26C259.836 173.618 256.453 178.078 255.977 179.206C254.774 181.987 253.421 182.438 253.421 182.438L242.897 185.019L239.189 185.921L227.538 182.438C227.538 182.438 222.226 167.629 224.355 159.286C226.485 150.942 229.743 145.154 229.743 145.154C229.743 145.154 239.264 154.475 251.642 144.352L260.036 161.014Z" fill="#F99746"/>
<path d="M228.296 184.693C228.296 184.693 222.533 202.659 222.158 208.773C221.782 214.886 233.182 295.669 233.659 298.501C234.085 301.157 237.392 302.86 237.392 302.86C237.392 302.86 238.92 303.762 241.075 303.136C244.082 302.284 245.034 301.282 245.034 301.282C245.034 301.282 249.519 243.676 246.738 223.08C243.957 202.508 243.932 184.693 243.932 184.693H228.296V184.693Z" fill="#233862"/>
<path d="M252.749 184.142C252.749 184.142 261.544 195.968 262.371 203.936C263.197 211.929 263.648 239.968 265.402 247.76C267.156 255.553 273.571 270.537 273.571 294.817C273.571 294.817 272.894 296.22 270.84 296.947C270.188 297.172 269.286 297.423 268.434 297.598C266.73 297.999 264.976 297.147 264.225 295.594C259.89 286.849 246.034 258.635 245.332 252.772C244.831 248.637 240.471 221.2 230.924 205.114C228.644 201.255 232.328 185.896 232.328 185.896L252.749 184.142Z" fill="#2B478B"/>
<path d="M235.962 132.274C235.962 132.274 235.761 133.126 233.607 133.001C233.607 133.001 231.802 132.901 231.853 131.949C231.878 131.949 233.632 131.272 235.962 132.274Z" fill="white"/>
<path d="M227.366 181.912C227.366 181.912 229.671 183.741 234.282 183.841C239.769 183.941 253.4 182.438 253.4 182.438C253.4 182.438 254.001 184.142 253.976 185.921C253.976 185.921 237.339 190.13 227.692 186.522C227.717 186.522 226.464 184.192 227.366 181.912Z" fill="#233862"/>
<path d="M232.982 188.577C231.604 188.577 230.477 187.299 230.477 185.745C230.477 184.192 231.604 182.914 232.982 182.914C234.36 182.914 235.488 184.192 235.488 185.745C235.488 187.299 234.36 188.577 232.982 188.577ZM232.982 183.741C232.055 183.741 231.303 184.643 231.303 185.745C231.303 186.848 232.055 187.75 232.982 187.75C233.909 187.75 234.661 186.848 234.661 185.745C234.661 184.643 233.909 183.741 232.982 183.741Z" fill="white"/>
<path d="M251.022 161.834L233.977 176.677L254.298 200.015L271.344 185.173L251.022 161.834Z" fill="#B5453C"/>
<path d="M249.567 185.219C249.567 185.219 243.328 185.946 243.328 187.424C243.353 188.902 244.882 191.959 245.658 192.085C246.435 192.21 250.745 187.975 250.745 187.975L249.567 185.219Z" fill="#FFB27D"/>
<path d="M251.647 144.352C251.647 144.352 259.991 144.928 263.173 152.721C266.38 160.488 272.444 173.543 272.444 175.748C272.444 177.953 269.061 184.718 250.87 188.602C250.87 188.602 248.991 186.622 249.091 185.044C249.091 185.044 260.442 175.297 260.417 174.144C260.367 171.989 258.563 169.133 248.59 159.16C245.884 156.454 251.647 144.352 251.647 144.352Z" fill="#F99746"/>
<path d="M71.2412 312.958H71.166C70.69 312.958 70.2891 312.557 70.2891 312.081L71.592 255.227L75.4507 254.776L72.1683 312.081C72.1683 312.557 71.7423 312.958 71.2412 312.958Z" fill="#95C0F4"/>
<path d="M133.381 312.958H133.457C133.933 312.958 134.334 312.557 134.334 312.081L133.031 255.227L129.172 254.776L132.454 312.081C132.479 312.557 132.88 312.958 133.381 312.958Z" fill="#B0D4FF"/>
<path d="M68.6875 251.694V212.756C68.6875 205.891 74.2501 200.353 81.0906 200.353H109.154C116.02 200.353 121.557 205.916 121.557 212.756V253.198L68.6875 251.694Z" fill="#B0D4FF"/>
<path d="M126.619 257.858H72.4209C70.3663 257.858 68.6875 256.179 68.6875 254.124V251.694H126.594V257.858H126.619Z" fill="#95C0F4"/>
<path d="M133.108 257.858H92.1156C90.5872 257.858 89.3594 256.63 89.3594 255.102V254.475C89.3594 252.947 90.5872 251.719 92.1156 251.719H133.108C134.637 251.719 135.865 252.947 135.865 254.475V255.102C135.865 256.605 134.612 257.858 133.108 257.858Z" fill="#B0D4FF"/>
<path d="M131.501 241.997C127.492 248.988 122.43 251.694 122.43 251.694H101.383C101.383 251.694 134.583 236.66 131.501 241.997Z" fill="#233862"/>
<path d="M115.342 296.145C114.791 296.771 114.716 297.473 114.991 298.225C115.493 299.603 117.146 301.156 119.076 302.71C119.326 302.91 119.552 303.086 119.727 303.261C119.777 303.311 119.827 303.361 119.878 303.386C119.928 303.411 119.953 303.461 120.003 303.487C121.807 305.14 121.13 305.516 124.338 308.874C128.021 312.707 130.552 312.758 131.278 312.432C131.88 312.131 130.652 310.102 129.274 307.821C129.199 307.721 129.148 307.596 129.073 307.496C128.898 307.195 128.697 306.894 128.522 306.569C126.918 303.812 127.319 302.534 127.72 298.45C128.021 295.118 132.882 279.908 132.882 279.908L125.841 278.706C125.841 278.706 123.711 290.833 121.381 292.712C120.128 293.714 118.725 293.714 117.522 294.466C117.447 294.516 117.347 294.566 117.272 294.617C116.595 295.042 115.894 295.493 115.342 296.145Z" fill="#FFB27D"/>
<path d="M115.342 296.145C114.791 296.771 114.716 297.473 114.991 298.225C115.618 299.603 117.222 301.156 119.076 302.685C119.326 302.885 119.527 303.061 119.727 303.236C119.777 303.286 119.827 303.336 119.878 303.361C119.928 303.386 119.953 303.436 120.003 303.462C121.807 305.115 121.13 305.491 124.338 308.849C128.021 312.682 130.552 312.733 131.278 312.407C131.88 312.106 130.652 310.077 129.274 307.796C128.547 307.546 125.24 306.193 122.709 302.96C120.504 300.129 119.026 296.496 117.497 294.391C117.422 294.441 117.322 294.491 117.247 294.541C116.595 295.042 115.894 295.494 115.342 296.145Z" fill="#233862"/>
<path d="M172.194 291.735C172.62 293.915 175.727 293.539 179.185 292.712C182.643 291.86 181.816 292.862 186.752 292.336C191.688 291.785 193.167 289.956 193.317 289.229C193.442 288.578 191.012 288.352 188.406 288.052C188.08 288.027 187.754 287.976 187.429 287.926C184.472 287.55 182.317 285.646 179.636 284.093C177.105 282.614 173.297 276.576 173.297 276.576L166.531 277.102C166.531 277.102 170.089 282.489 171.442 284.844C172.244 286.222 172.219 288.052 172.094 289.455C172.094 290.181 172.044 290.958 172.194 291.735Z" fill="#FFB27D"/>
<path d="M179.186 292.687C182.644 291.835 181.817 292.838 186.754 292.311C191.69 291.76 193.168 289.931 193.318 289.204C193.444 288.553 191.013 288.327 188.407 288.027L188.382 288.077C188.382 288.077 185.426 290.182 181.316 290.282C177.959 290.357 174.426 289.405 172.12 289.43C172.07 290.207 172.02 290.983 172.171 291.735C172.622 293.915 175.729 293.539 179.186 292.687Z" fill="#233862"/>
<path d="M146.263 248.487L139.949 265.501L131.705 287.726C131.705 287.726 129.475 287.952 127.321 287.325C125.341 286.749 123.086 285.27 123.086 285.27C123.086 285.27 125.366 261.416 129.651 247.736C130.753 244.228 131.981 241.371 133.334 239.768C139.949 231.925 146.263 248.487 146.263 248.487Z" fill="#233862"/>
<path d="M139.843 221.476C135.708 220.148 123.881 221.852 112.03 224.182L109.549 220.073L83.916 218.068C83.916 218.068 75.4468 236.836 80.0823 248.788C80.7589 250.542 82.1119 251.669 84.4171 251.719H84.793C84.793 251.719 100.053 251.719 105.014 251.719C117.768 251.719 132 242.95 133.829 242.599C136.836 241.998 138.038 248.011 141.07 254.35C144.077 260.69 169.384 282.364 169.384 282.364C169.384 282.364 173.268 282.414 174.872 281.788C176.601 281.136 177.227 280.309 177.227 280.309C177.227 280.309 149.189 224.483 139.843 221.476Z" fill="#2B478B"/>
<path d="M108.527 145.429C105.244 143.7 100.258 143.475 99.4311 143.374C89.7091 142.071 83.8709 156.178 83.5201 160.463C82.8936 168.356 78.7092 169.559 72.8459 174.495C61.0693 184.392 64.5271 195.893 70.9667 200.178C74.8254 202.734 81.6408 200.178 81.6408 200.178C81.741 200.253 100.258 189.83 109.379 184.793C123.06 182.839 116.896 149.839 108.527 145.429Z" fill="#B5453C"/>
<path d="M101.737 180.508C101.787 180.533 97.2518 182.087 94.2199 180.734C91.3634 179.481 89.2086 174.795 89.2587 174.77C90.5616 174.72 91.9898 173.568 93.0673 166.151L93.6185 166.351L102.89 169.684C102.89 169.684 102.213 172.666 101.787 175.497C101.436 177.877 101.236 180.158 101.737 180.508Z" fill="#FFB27D"/>
<path d="M102.888 169.684C102.888 169.684 102.212 172.666 101.786 175.497C96.4486 174.545 94.3689 169.233 93.6172 166.351L102.888 169.684Z" fill="#ED975D"/>
<path d="M104.291 172.641C104.291 172.641 91.5869 170.937 92.7646 163.044C93.9423 155.151 93.1154 149.613 101.259 150.365C109.427 151.117 110.53 154.374 110.78 157.105C111.031 159.837 107.623 172.891 104.291 172.641Z" fill="#FFB27D"/>
<path d="M110.328 152.771C110.328 152.771 102.209 159.787 96.6719 160.338C91.1344 160.914 89.0547 159.135 89.0547 159.135C89.0547 159.135 92.3121 156.429 94.2665 152.069C94.8428 150.791 96.0706 149.889 97.4737 149.789C101.408 149.438 108.9 149.263 110.328 152.771Z" fill="#B5453C"/>
<path d="M105.242 152.144C105.242 152.144 107.973 154.775 108.825 156.729C109.652 158.609 109.903 163.119 109.251 164.898C109.251 164.898 113.486 156.654 111.08 152.645C108.525 148.411 105.242 152.144 105.242 152.144Z" fill="#B5453C"/>
<path d="M112.437 199.201C112.062 224.909 112.337 219.547 109.531 221.977C108.854 222.554 106.95 222.904 104.444 223.08C96.5515 223.606 82.6952 222.303 82.169 220.85C80.3398 215.813 81.6428 214.235 80.1143 206.517C79.964 205.69 79.7635 204.813 79.538 203.836C78.2852 198.524 77.0323 196.72 81.5175 188.226C85.5767 180.508 89.8113 174.244 90.1871 174.47C100.936 180.834 101.788 175.497 101.788 175.497C101.788 175.497 112.613 186.672 112.437 199.201Z" fill="#8C9DF4"/>
<path d="M139.949 265.501L131.705 287.726C131.705 287.726 129.475 287.951 127.321 287.325C125.341 286.749 123.086 285.27 123.086 285.27C123.086 285.27 125.366 261.416 129.651 247.735L139.949 265.501Z" fill="#2B478B"/>
<path d="M101.781 175.497C101.781 175.497 112.831 177.376 114.134 182.137C115.437 186.898 123.054 214.861 123.054 214.861C123.054 214.861 117.442 215.863 114.836 213.282C112.23 210.676 105.815 189.203 105.815 189.203L101.781 175.497Z" fill="#8C9DF4"/>
<path d="M104.416 223.08C96.5231 223.606 82.6668 222.303 82.1406 220.85C80.3114 215.813 81.6144 214.235 80.0859 206.517L83.8946 195.818C83.8946 195.818 83.2681 207.745 86.7761 210.877C90.284 214.009 101.184 216.941 102.888 219.547C103.714 220.825 104.266 222.077 104.416 223.08Z" fill="#6980E2"/>
<path d="M95.3984 218.068C95.3984 218.068 103.166 216.339 104.419 217.016C105.672 217.717 108.729 220.223 109.13 221.1C109.505 221.977 106.348 220.424 105.296 220.148C104.619 219.973 102.865 220.574 101.988 220.875C98.3301 222.102 96.075 221.476 96.075 221.476L95.3984 218.068Z" fill="#FFB27D"/>
<path d="M90.1837 174.47C90.1837 174.47 79.735 175.121 76.1269 180.158C71.0404 187.249 60.9425 217.517 66.7306 221.551C73.2453 226.087 96.3977 222.729 96.3977 222.729C96.3977 222.729 97.1745 219.121 96.0971 217.392C95.0196 215.663 77.6052 212.832 76.8034 212.03C76.0016 211.228 86.8511 196.369 86.8511 193.939C86.8261 191.533 90.1837 174.47 90.1837 174.47Z" fill="#8C9DF4"/>
<path d="M104.789 219.196C104.789 219.196 106.418 221.301 106.944 221.551C107.47 221.802 107.821 221.752 107.821 221.752L106.743 219.747L104.789 219.196Z" fill="#FFB27D"/>
<path d="M104.414 217.041L109.15 219.346C109.15 219.346 108.949 219.672 108.373 219.647C107.797 219.622 106.318 219.071 106.318 219.071L104.414 217.041Z" fill="#FFB27D"/>
<path d="M105.242 224.759H145.208L157.235 196.72H117.345L105.242 224.759Z" fill="#F77D48"/>
<path d="M145.683 222.954H92.9141V224.734H145.207L145.683 222.954Z" fill="#F77D48"/>
<path d="M135.136 210.752C135.437 209.774 134.835 208.973 133.783 208.973C132.731 208.973 131.628 209.774 131.327 210.752C131.027 211.729 131.628 212.531 132.68 212.531C133.733 212.531 134.835 211.729 135.136 210.752Z" fill="#EBF3FA"/>
<path d="M204.314 313.735H204.414C205.066 313.735 205.567 313.159 205.567 312.432L203.838 229.494L198.727 228.843L203.086 312.457C203.137 313.184 203.663 313.735 204.314 313.735Z" fill="#233862"/>
<path d="M96.62 313.735H96.5198C95.8683 313.735 95.3672 313.159 95.3672 312.432L97.0961 229.494L102.208 228.843L97.8478 312.457C97.8227 313.184 97.2715 313.735 96.62 313.735Z" fill="#233862"/>
<path d="M206.344 230.697H89.9558C88.9284 230.697 88.1016 229.87 88.1016 228.843V226.638C88.1016 225.611 88.9284 224.784 89.9558 224.784H206.344C207.371 224.784 208.198 225.611 208.198 226.638V228.843C208.198 229.87 207.371 230.697 206.344 230.697Z" fill="#233862"/>
<path d="M631.784 315H0.902048C0.40091 315 0 314.508 0 313.893V312.817C0 312.202 0.40091 311.71 0.902048 311.71H631.784C632.285 311.71 632.686 312.202 632.686 312.817V313.893C632.711 314.508 632.285 315 631.784 315Z" fill="#2E3552"/>
</svg>
