<svg width="1227" height="115" viewBox="0 0 1227 115" fill="none" xmlns="http://www.w3.org/2000/svg">
<g filter="url(#filter0_d_925_6303)">
<rect x="861" y="2" width="365" height="47" fill="white" shape-rendering="crispEdges"/>
<rect x="860.766" y="1.76585" width="365.468" height="47.4683" stroke="black" stroke-opacity="0.2" stroke-width="0.468302" shape-rendering="crispEdges"/>
</g>
<path d="M949.11 32H951.27L946.788 19.472H944.412L939.93 32H942.072L942.972 29.444H948.21L949.11 32ZM947.634 27.77H943.548L945.6 21.956L947.634 27.77ZM952.175 27.032C952.175 30.146 954.191 32.162 957.035 32.162C959.465 32.162 961.049 30.812 961.607 28.868H959.393C959.015 29.894 958.259 30.434 957.035 30.434C955.379 30.434 954.281 29.21 954.281 27.032C954.281 24.872 955.379 23.648 957.035 23.648C958.259 23.648 959.051 24.26 959.393 25.214H961.607C961.049 23.126 959.465 21.92 957.035 21.92C954.191 21.92 952.175 23.936 952.175 27.032ZM962.608 27.032C962.608 30.146 964.624 32.162 967.468 32.162C969.898 32.162 971.482 30.812 972.04 28.868H969.826C969.448 29.894 968.692 30.434 967.468 30.434C965.812 30.434 964.714 29.21 964.714 27.032C964.714 24.872 965.812 23.648 967.468 23.648C968.692 23.648 969.484 24.26 969.826 25.214H972.04C971.482 23.126 969.898 21.92 967.468 21.92C964.624 21.92 962.608 23.936 962.608 27.032ZM983.175 27.032C983.175 23.918 980.943 21.92 978.117 21.92C975.291 21.92 973.059 23.918 973.059 27.032C973.059 30.146 975.201 32.162 978.027 32.162C980.871 32.162 983.175 30.146 983.175 27.032ZM975.147 27.032C975.147 24.782 976.533 23.702 978.081 23.702C979.611 23.702 981.069 24.782 981.069 27.032C981.069 29.282 979.557 30.38 978.027 30.38C976.479 30.38 975.147 29.282 975.147 27.032ZM993.826 22.082H991.774V27.608C991.774 29.426 990.784 30.362 989.272 30.362C987.778 30.362 986.788 29.426 986.788 27.608V22.082H984.754V27.914C984.754 30.686 986.518 32.144 988.84 32.144C990.01 32.144 991.126 31.658 991.774 30.812V32H993.826V22.082ZM1003.21 32H1005.25V26.15C1005.25 23.378 1003.5 21.92 1001.18 21.92C999.989 21.92 998.891 22.406 998.225 23.216V22.082H996.173V32H998.225V26.456C998.225 24.638 999.215 23.702 1000.73 23.702C1002.22 23.702 1003.21 24.638 1003.21 26.456V32ZM1007.83 29.246C1007.83 31.262 1008.92 32 1010.69 32H1012.31V30.29H1011.05C1010.18 30.29 1009.9 29.984 1009.9 29.246V23.756H1012.31V22.082H1009.9V19.616H1007.83V22.082H1006.66V23.756H1007.83V29.246ZM1013.84 32H1015.89V22.082H1013.84V32ZM1014.88 20.768C1015.6 20.768 1016.18 20.192 1016.18 19.454C1016.18 18.716 1015.6 18.14 1014.88 18.14C1014.15 18.14 1013.57 18.716 1013.57 19.454C1013.57 20.192 1014.15 20.768 1014.88 20.768ZM1025.26 32H1027.3V26.15C1027.3 23.378 1025.55 21.92 1023.23 21.92C1022.04 21.92 1020.94 22.406 1020.28 23.216V22.082H1018.23V32H1020.28V26.456C1020.28 24.638 1021.27 23.702 1022.78 23.702C1024.27 23.702 1025.26 24.638 1025.26 26.456V32ZM1028.87 26.996C1028.87 30.056 1030.94 32.162 1033.55 32.162C1035.17 32.162 1036.36 31.352 1036.99 30.506V32.162C1036.99 34.142 1035.8 35.114 1034.22 35.114C1032.8 35.114 1031.7 34.412 1031.39 33.386H1029.36C1029.61 35.582 1031.57 36.896 1034.22 36.896C1037.31 36.896 1039.06 34.862 1039.06 32.162V22.082H1036.99V23.522C1036.38 22.676 1035.17 21.92 1033.55 21.92C1030.94 21.92 1028.87 23.936 1028.87 26.996ZM1036.99 27.032C1036.99 29.174 1035.53 30.38 1033.98 30.38C1032.45 30.38 1030.98 29.138 1030.98 26.996C1030.98 24.854 1032.45 23.702 1033.98 23.702C1035.53 23.702 1036.99 24.908 1036.99 27.032ZM1045.03 26.996C1045.03 30.056 1047.1 32.162 1049.67 32.162C1051.33 32.162 1052.51 31.37 1053.14 30.524V32H1055.21V22.082H1053.14V23.522C1052.53 22.712 1051.38 21.92 1049.71 21.92C1047.1 21.92 1045.03 23.936 1045.03 26.996ZM1053.14 27.032C1053.14 29.174 1051.69 30.38 1050.14 30.38C1048.61 30.38 1047.13 29.138 1047.13 26.996C1047.13 24.854 1048.61 23.702 1050.14 23.702C1051.69 23.702 1053.14 24.908 1053.14 27.032ZM1064.59 32H1066.62V26.15C1066.62 23.378 1064.88 21.92 1062.55 21.92C1061.37 21.92 1060.27 22.406 1059.6 23.216V22.082H1057.55V32H1059.6V26.456C1059.6 24.638 1060.59 23.702 1062.1 23.702C1063.6 23.702 1064.59 24.638 1064.59 26.456V32ZM1068.2 26.996C1068.2 30.056 1070.27 32.162 1072.88 32.162C1074.5 32.162 1075.68 31.406 1076.31 30.506V32H1078.38V18.68H1076.31V23.468C1075.56 22.532 1074.19 21.92 1072.89 21.92C1070.27 21.92 1068.2 23.936 1068.2 26.996ZM1076.31 27.032C1076.31 29.174 1074.86 30.38 1073.31 30.38C1071.78 30.38 1070.3 29.138 1070.3 26.996C1070.3 24.854 1071.78 23.702 1073.31 23.702C1074.86 23.702 1076.31 24.908 1076.31 27.032ZM1093.48 32H1095.64L1091.15 19.472H1088.78L1084.3 32H1086.44L1087.34 29.444H1092.58L1093.48 32ZM1092 27.77H1087.91L1089.97 21.956L1092 27.77ZM1106.21 22.082H1104.15V27.608C1104.15 29.426 1103.16 30.362 1101.65 30.362C1100.16 30.362 1099.17 29.426 1099.17 27.608V22.082H1097.13V27.914C1097.13 30.686 1098.9 32.144 1101.22 32.144C1102.39 32.144 1103.51 31.658 1104.15 30.812V32H1106.21V22.082ZM1107.87 26.996C1107.87 30.056 1109.94 32.162 1112.55 32.162C1114.17 32.162 1115.36 31.406 1115.99 30.506V32H1118.06V18.68H1115.99V23.468C1115.23 22.532 1113.86 21.92 1112.57 21.92C1109.94 21.92 1107.87 23.936 1107.87 26.996ZM1115.99 27.032C1115.99 29.174 1114.53 30.38 1112.98 30.38C1111.45 30.38 1109.98 29.138 1109.98 26.996C1109.98 24.854 1111.45 23.702 1112.98 23.702C1114.53 23.702 1115.99 24.908 1115.99 27.032ZM1120.39 32H1122.45V22.082H1120.39V32ZM1121.44 20.768C1122.16 20.768 1122.73 20.192 1122.73 19.454C1122.73 18.716 1122.16 18.14 1121.44 18.14C1120.7 18.14 1120.12 18.716 1120.12 19.454C1120.12 20.192 1120.7 20.768 1121.44 20.768ZM1125.1 29.246C1125.1 31.262 1126.2 32 1127.97 32H1129.59V30.29H1128.33C1127.46 30.29 1127.17 29.984 1127.17 29.246V23.756H1129.59V22.082H1127.17V19.616H1125.1V22.082H1123.93V23.756H1125.1V29.246ZM1131.12 32H1133.17V22.082H1131.12V32ZM1132.16 20.768C1132.88 20.768 1133.46 20.192 1133.46 19.454C1133.46 18.716 1132.88 18.14 1132.16 18.14C1131.42 18.14 1130.85 18.716 1130.85 19.454C1130.85 20.192 1131.42 20.768 1132.16 20.768ZM1142.54 32H1144.57V26.15C1144.57 23.378 1142.83 21.92 1140.51 21.92C1139.32 21.92 1138.22 22.406 1137.55 23.216V22.082H1135.5V32H1137.55V26.456C1137.55 24.638 1138.54 23.702 1140.06 23.702C1141.55 23.702 1142.54 24.638 1142.54 26.456V32ZM1146.15 26.996C1146.15 30.056 1148.22 32.162 1150.83 32.162C1152.45 32.162 1153.64 31.352 1154.27 30.506V32.162C1154.27 34.142 1153.08 35.114 1151.49 35.114C1150.07 35.114 1148.97 34.412 1148.67 33.386H1146.63C1146.89 35.582 1148.85 36.896 1151.49 36.896C1154.59 36.896 1156.34 34.862 1156.34 32.162V22.082H1154.27V23.522C1153.65 22.676 1152.45 21.92 1150.83 21.92C1148.22 21.92 1146.15 23.936 1146.15 26.996ZM1154.27 27.032C1154.27 29.174 1152.81 30.38 1151.26 30.38C1149.73 30.38 1148.25 29.138 1148.25 26.996C1148.25 24.854 1149.73 23.702 1151.26 23.702C1152.81 23.702 1154.27 24.908 1154.27 27.032Z" fill="#212832"/>
<path d="M1226 2H1224V49H1226V2Z" fill="#FFDC5F" stroke="#FFDC5F" stroke-width="0.936604"/>
<circle cx="861.415" cy="25.4151" r="23.4151" fill="#FFDC5F" stroke="#FFDC5F"/>
<path d="M850.973 25.6055C850.973 29.5767 852.022 32.5739 855.843 32.5739C859.665 32.5739 860.714 29.5767 860.714 25.6055C860.714 21.7093 859.665 18.7121 855.843 18.7121C852.022 18.7121 850.973 21.7093 850.973 25.6055ZM858.616 25.6055C858.616 28.2842 858.335 30.6257 855.843 30.6257C853.352 30.6257 853.071 28.2842 853.071 25.6055C853.071 23.058 853.352 20.6603 855.843 20.6603C858.335 20.6603 858.616 23.058 858.616 25.6055ZM862.936 22.3274H865.015C865.146 21.3721 865.839 20.4729 867.338 20.4729C868.799 20.4729 869.567 21.2597 869.567 22.4398C869.567 23.9009 868.387 24.4629 866.457 24.4816H865.952V26.2424H866.439C868.668 26.2424 869.829 26.8606 869.829 28.6589C869.829 29.9326 869.042 30.9067 867.45 30.9067C865.839 30.9067 864.903 29.9326 864.809 28.6589H862.748C862.88 31.3375 864.884 32.6863 867.469 32.6863C870.316 32.6863 871.852 31.0378 871.852 28.8649C871.852 26.973 870.934 25.7929 869.511 25.362V25.2871C870.578 24.9312 871.609 23.826 871.609 22.1963C871.609 20.2107 870.129 18.6372 867.413 18.6372C864.921 18.6372 863.086 19.9672 862.936 22.3274Z" fill="#212832"/>
<g filter="url(#filter1_d_925_6303)">
<rect x="24" y="1" width="365" height="47" fill="white" shape-rendering="crispEdges"/>
<rect x="23.7658" y="0.765849" width="365.468" height="47.4683" stroke="black" stroke-opacity="0.2" stroke-width="0.468302" shape-rendering="crispEdges"/>
</g>
<path d="M93.6712 18.472H86.7592V31H93.6712V29.326H88.8112V25.492H93.1312V23.818H88.8112V20.146H93.6712V18.472ZM95.5146 26.032C95.5146 29.146 97.5306 31.162 100.375 31.162C102.805 31.162 104.389 29.812 104.947 27.868H102.733C102.355 28.894 101.599 29.434 100.375 29.434C98.7186 29.434 97.6206 28.21 97.6206 26.032C97.6206 23.872 98.7186 22.648 100.375 22.648C101.599 22.648 102.391 23.26 102.733 24.214H104.947C104.389 22.126 102.805 20.92 100.375 20.92C97.5306 20.92 95.5146 22.936 95.5146 26.032ZM116.442 26.032C116.442 22.918 114.21 20.92 111.384 20.92C108.558 20.92 106.326 22.918 106.326 26.032C106.326 29.146 108.468 31.162 111.294 31.162C114.138 31.162 116.442 29.146 116.442 26.032ZM108.414 26.032C108.414 23.782 109.8 22.702 111.348 22.702C112.878 22.702 114.336 23.782 114.336 26.032C114.336 28.282 112.824 29.38 111.294 29.38C109.746 29.38 108.414 28.282 108.414 26.032ZM125.508 31H127.542V25.15C127.542 22.378 125.796 20.92 123.474 20.92C122.286 20.92 121.188 21.406 120.522 22.216V21.082H118.47V31H120.522V25.456C120.522 23.638 121.512 22.702 123.024 22.702C124.518 22.702 125.508 23.638 125.508 25.456V31ZM139.61 26.032C139.61 22.918 137.378 20.92 134.552 20.92C131.726 20.92 129.494 22.918 129.494 26.032C129.494 29.146 131.636 31.162 134.462 31.162C137.306 31.162 139.61 29.146 139.61 26.032ZM131.582 26.032C131.582 23.782 132.968 22.702 134.516 22.702C136.046 22.702 137.504 23.782 137.504 26.032C137.504 28.282 135.992 29.38 134.462 29.38C132.914 29.38 131.582 28.282 131.582 26.032ZM155.696 31H157.73V25.15C157.73 22.378 155.966 20.92 153.644 20.92C152.204 20.92 150.8 21.676 150.188 22.882C149.504 21.586 148.19 20.92 146.624 20.92C145.436 20.92 144.356 21.406 143.69 22.216V21.082H141.638V31H143.69V25.456C143.69 23.638 144.68 22.702 146.192 22.702C147.686 22.702 148.676 23.638 148.676 25.456V31H150.71V25.456C150.71 23.638 151.7 22.702 153.212 22.702C154.706 22.702 155.696 23.638 155.696 25.456V31ZM160.341 31H162.393V21.082H160.341V31ZM161.385 19.768C162.105 19.768 162.681 19.192 162.681 18.454C162.681 17.716 162.105 17.14 161.385 17.14C160.647 17.14 160.071 17.716 160.071 18.454C160.071 19.192 160.647 19.768 161.385 19.768ZM164.403 26.032C164.403 29.146 166.419 31.162 169.263 31.162C171.693 31.162 173.277 29.812 173.835 27.868H171.621C171.243 28.894 170.487 29.434 169.263 29.434C167.607 29.434 166.509 28.21 166.509 26.032C166.509 23.872 167.607 22.648 169.263 22.648C170.487 22.648 171.279 23.26 171.621 24.214H173.835C173.277 22.126 171.693 20.92 169.263 20.92C166.419 20.92 164.403 22.936 164.403 26.032ZM179.872 24.718C179.872 28.48 182.734 31.108 186.262 31.108C188.872 31.108 191.122 29.812 192.076 27.364H189.61C188.944 28.696 187.756 29.326 186.262 29.326C183.778 29.326 181.978 27.544 181.978 24.718C181.978 21.892 183.778 20.128 186.262 20.128C187.756 20.128 188.944 20.758 189.61 22.09H192.076C191.122 19.642 188.872 18.328 186.262 18.328C182.734 18.328 179.872 20.974 179.872 24.718ZM203.928 26.032C203.928 22.918 201.696 20.92 198.87 20.92C196.044 20.92 193.812 22.918 193.812 26.032C193.812 29.146 195.954 31.162 198.78 31.162C201.624 31.162 203.928 29.146 203.928 26.032ZM195.9 26.032C195.9 23.782 197.286 22.702 198.834 22.702C200.364 22.702 201.822 23.782 201.822 26.032C201.822 28.282 200.31 29.38 198.78 29.38C197.232 29.38 195.9 28.282 195.9 26.032ZM212.994 31H215.028V25.15C215.028 22.378 213.282 20.92 210.96 20.92C209.772 20.92 208.674 21.406 208.008 22.216V21.082H205.956V31H208.008V25.456C208.008 23.638 208.998 22.702 210.51 22.702C212.004 22.702 212.994 23.638 212.994 25.456V31ZM225.044 28.228C224.936 24.646 219.338 25.762 219.338 23.764C219.338 23.098 219.914 22.648 221.012 22.648C222.128 22.648 222.794 23.242 222.866 24.106H224.918C224.81 22.126 223.334 20.92 221.084 20.92C218.744 20.92 217.268 22.198 217.268 23.782C217.268 27.418 223.028 26.302 223.028 28.246C223.028 28.93 222.398 29.434 221.21 29.434C220.076 29.434 219.302 28.768 219.23 27.958H217.106C217.196 29.758 218.87 31.162 221.246 31.162C223.586 31.162 225.044 29.902 225.044 28.228ZM236.243 21.082H234.191V26.608C234.191 28.426 233.201 29.362 231.689 29.362C230.195 29.362 229.205 28.426 229.205 26.608V21.082H227.171V26.914C227.171 29.686 228.935 31.144 231.257 31.144C232.427 31.144 233.543 30.658 234.191 29.812V31H236.243V21.082ZM238.951 31H241.003V17.68H238.951V31ZM244.021 28.246C244.021 30.262 245.119 31 246.883 31H248.503V29.29H247.243C246.379 29.29 246.091 28.984 246.091 28.246V22.756H248.503V21.082H246.091V18.616H244.021V21.082H242.851V22.756H244.021V28.246ZM250.394 31H252.446V21.082H250.394V31ZM251.438 19.768C252.158 19.768 252.734 19.192 252.734 18.454C252.734 17.716 252.158 17.14 251.438 17.14C250.7 17.14 250.124 17.716 250.124 18.454C250.124 19.192 250.7 19.768 251.438 19.768ZM262.178 31H264.212V25.15C264.212 22.378 262.466 20.92 260.144 20.92C258.956 20.92 257.858 21.406 257.192 22.216V21.082H255.14V31H257.192V25.456C257.192 23.638 258.182 22.702 259.694 22.702C261.188 22.702 262.178 23.638 262.178 25.456V31ZM266.145 25.996C266.145 29.056 268.215 31.162 270.825 31.162C272.445 31.162 273.633 30.352 274.263 29.506V31.162C274.263 33.142 273.075 34.114 271.491 34.114C270.069 34.114 268.971 33.412 268.665 32.386H266.631C266.883 34.582 268.845 35.896 271.491 35.896C274.587 35.896 276.333 33.862 276.333 31.162V21.082H274.263V22.522C273.651 21.676 272.445 20.92 270.825 20.92C268.215 20.92 266.145 22.936 266.145 25.996ZM274.263 26.032C274.263 28.174 272.805 29.38 271.257 29.38C269.727 29.38 268.251 28.138 268.251 25.996C268.251 23.854 269.727 22.702 271.257 22.702C272.805 22.702 274.263 23.908 274.263 26.032ZM283.704 31H285.756V25.528H289.896V23.854H285.756V20.164H291.066V18.49H283.704V31ZM292.968 31H295.02V21.082H292.968V31ZM294.012 19.768C294.732 19.768 295.308 19.192 295.308 18.454C295.308 17.716 294.732 17.14 294.012 17.14C293.274 17.14 292.698 17.716 292.698 18.454C292.698 19.192 293.274 19.768 294.012 19.768ZM299.766 25.78C299.766 23.674 300.702 23.044 302.214 23.044H302.736V20.92C301.332 20.92 300.342 21.532 299.766 22.522V21.082H297.714V31H299.766V25.78ZM318.68 31H320.714V25.15C320.714 22.378 318.95 20.92 316.628 20.92C315.188 20.92 313.784 21.676 313.172 22.882C312.488 21.586 311.174 20.92 309.608 20.92C308.42 20.92 307.34 21.406 306.674 22.216V21.082H304.622V31H306.674V25.456C306.674 23.638 307.664 22.702 309.176 22.702C310.67 22.702 311.66 23.638 311.66 25.456V31H313.694V25.456C313.694 23.638 314.684 22.702 316.196 22.702C317.69 22.702 318.68 23.638 318.68 25.456V31ZM330.724 28.228C330.616 24.646 325.018 25.762 325.018 23.764C325.018 23.098 325.594 22.648 326.692 22.648C327.808 22.648 328.474 23.242 328.546 24.106H330.598C330.49 22.126 329.014 20.92 326.764 20.92C324.424 20.92 322.948 22.198 322.948 23.782C322.948 27.418 328.708 26.302 328.708 28.246C328.708 28.93 328.078 29.434 326.89 29.434C325.756 29.434 324.982 28.768 324.91 27.958H322.786C322.876 29.758 324.55 31.162 326.926 31.162C329.266 31.162 330.724 29.902 330.724 28.228Z" fill="#212832"/>
<path d="M389 1H387V48H389V1Z" fill="#00ADEF" stroke="#00ADEF" stroke-width="0.936604"/>
<circle cx="24.4151" cy="24.8506" r="23.4151" fill="#00ADEF" stroke="#00ADEF"/>
<path d="M16.2596 24.6055C16.2596 28.5767 17.3086 31.5739 21.1299 31.5739C24.9513 31.5739 26.0003 28.5767 26.0003 24.6055C26.0003 20.7093 24.9513 17.7121 21.1299 17.7121C17.3086 17.7121 16.2596 20.7093 16.2596 24.6055ZM23.9023 24.6055C23.9023 27.2842 23.6213 29.6257 21.1299 29.6257C18.6385 29.6257 18.3576 27.2842 18.3576 24.6055C18.3576 22.058 18.6385 19.6603 21.1299 19.6603C23.6213 19.6603 23.9023 22.058 23.9023 24.6055ZM29.7209 31.6113H31.8751V17.9556H27.9788V19.9038H29.7209V31.6113Z" fill="#212832"/>
<g filter="url(#filter2_d_925_6303)">
<rect x="444" y="1" width="365" height="47" fill="white" shape-rendering="crispEdges"/>
<rect x="443.766" y="0.765849" width="365.468" height="47.4683" stroke="black" stroke-opacity="0.2" stroke-width="0.468302" shape-rendering="crispEdges"/>
</g>
<path d="M540.384 31H542.436V18.49H540.384V31ZM552.168 31H554.202V25.15C554.202 22.378 552.456 20.92 550.134 20.92C548.946 20.92 547.848 21.406 547.182 22.216V21.082H545.13V31H547.182V25.456C547.182 23.638 548.172 22.702 549.684 22.702C551.178 22.702 552.168 23.638 552.168 25.456V31ZM555.65 21.082L559.412 31H561.86L565.64 21.082H563.462L560.654 29.164L557.846 21.082H555.65ZM571.367 22.648C572.897 22.648 574.103 23.62 574.139 25.15H568.649C568.865 23.584 569.981 22.648 571.367 22.648ZM576.011 28.048H573.797C573.419 28.822 572.717 29.434 571.457 29.434C569.945 29.434 568.775 28.444 568.631 26.806H576.209C576.263 26.464 576.281 26.14 576.281 25.798C576.281 22.882 574.283 20.92 571.457 20.92C568.523 20.92 566.507 22.918 566.507 26.032C566.507 29.146 568.613 31.162 571.457 31.162C573.887 31.162 575.453 29.776 576.011 28.048ZM585.698 28.228C585.59 24.646 579.992 25.762 579.992 23.764C579.992 23.098 580.568 22.648 581.666 22.648C582.782 22.648 583.448 23.242 583.52 24.106H585.572C585.464 22.126 583.988 20.92 581.738 20.92C579.398 20.92 577.922 22.198 577.922 23.782C577.922 27.418 583.682 26.302 583.682 28.246C583.682 28.93 583.052 29.434 581.864 29.434C580.73 29.434 579.956 28.768 579.884 27.958H577.76C577.85 29.758 579.524 31.162 581.9 31.162C584.24 31.162 585.698 29.902 585.698 28.228ZM588.239 28.246C588.239 30.262 589.337 31 591.101 31H592.721V29.29H591.461C590.597 29.29 590.309 28.984 590.309 28.246V22.756H592.721V21.082H590.309V18.616H588.239V21.082H587.069V22.756H588.239V28.246ZM608.671 31H610.705V25.15C610.705 22.378 608.941 20.92 606.619 20.92C605.179 20.92 603.775 21.676 603.163 22.882C602.479 21.586 601.165 20.92 599.599 20.92C598.411 20.92 597.331 21.406 596.665 22.216V21.082H594.613V31H596.665V25.456C596.665 23.638 597.655 22.702 599.167 22.702C600.661 22.702 601.651 23.638 601.651 25.456V31H603.685V25.456C603.685 23.638 604.675 22.702 606.187 22.702C607.681 22.702 608.671 23.638 608.671 25.456V31ZM617.492 22.648C619.022 22.648 620.228 23.62 620.264 25.15H614.774C614.99 23.584 616.106 22.648 617.492 22.648ZM622.136 28.048H619.922C619.544 28.822 618.842 29.434 617.582 29.434C616.07 29.434 614.9 28.444 614.756 26.806H622.334C622.388 26.464 622.406 26.14 622.406 25.798C622.406 22.882 620.408 20.92 617.582 20.92C614.648 20.92 612.632 22.918 612.632 26.032C612.632 29.146 614.738 31.162 617.582 31.162C620.012 31.162 621.578 29.776 622.136 28.048ZM631.463 31H633.497V25.15C633.497 22.378 631.751 20.92 629.429 20.92C628.241 20.92 627.143 21.406 626.477 22.216V21.082H624.425V31H626.477V25.456C626.477 23.638 627.467 22.702 628.979 22.702C630.473 22.702 631.463 23.638 631.463 25.456V31ZM636.439 28.246C636.439 30.262 637.537 31 639.301 31H640.921V29.29H639.661C638.797 29.29 638.509 28.984 638.509 28.246V22.756H640.921V21.082H638.509V18.616H636.439V21.082H635.269V22.756H636.439V28.246ZM654.544 27.418C654.544 28.624 653.698 29.326 652.312 29.326H649.54V25.42H652.24C653.608 25.42 654.544 26.176 654.544 27.418ZM654.22 21.964C654.22 23.116 653.41 23.746 652.078 23.746H649.54V20.164H652.078C653.41 20.164 654.22 20.83 654.22 21.964ZM656.596 27.634C656.596 26.14 655.516 24.808 654.184 24.574C655.39 24.142 656.308 23.224 656.308 21.712C656.308 19.948 654.904 18.49 652.258 18.49H647.488V31H652.492C655.048 31 656.596 29.542 656.596 27.634ZM658.142 25.996C658.142 29.056 660.212 31.162 662.786 31.162C664.442 31.162 665.63 30.37 666.26 29.524V31H668.33V21.082H666.26V22.522C665.648 21.712 664.496 20.92 662.822 20.92C660.212 20.92 658.142 22.936 658.142 25.996ZM666.26 26.032C666.26 28.174 664.802 29.38 663.254 29.38C661.724 29.38 660.248 28.138 660.248 25.996C660.248 23.854 661.724 22.702 663.254 22.702C664.802 22.702 666.26 23.908 666.26 26.032ZM678.063 31H680.097V25.15C680.097 22.378 678.351 20.92 676.029 20.92C674.841 20.92 673.743 21.406 673.077 22.216V21.082H671.025V31H673.077V25.456C673.077 23.638 674.067 22.702 675.579 22.702C677.073 22.702 678.063 23.638 678.063 25.456V31ZM682.714 31H684.766V26.734L688.438 31H691.21L686.638 26.05L691.21 21.082H688.366L684.766 25.42V17.68H682.714V31ZM692.681 31H694.733V21.082H692.681V31ZM693.725 19.768C694.445 19.768 695.021 19.192 695.021 18.454C695.021 17.716 694.445 17.14 693.725 17.14C692.987 17.14 692.411 17.716 692.411 18.454C692.411 19.192 692.987 19.768 693.725 19.768ZM704.465 31H706.499V25.15C706.499 22.378 704.753 20.92 702.431 20.92C701.243 20.92 700.145 21.406 699.479 22.216V21.082H697.427V31H699.479V25.456C699.479 23.638 700.469 22.702 701.981 22.702C703.475 22.702 704.465 23.638 704.465 25.456V31ZM708.433 25.996C708.433 29.056 710.503 31.162 713.113 31.162C714.733 31.162 715.921 30.352 716.551 29.506V31.162C716.551 33.142 715.363 34.114 713.779 34.114C712.357 34.114 711.259 33.412 710.953 32.386H708.919C709.171 34.582 711.133 35.896 713.779 35.896C716.875 35.896 718.621 33.862 718.621 31.162V21.082H716.551V22.522C715.939 21.676 714.733 20.92 713.113 20.92C710.503 20.92 708.433 22.936 708.433 25.996ZM716.551 26.032C716.551 28.174 715.093 29.38 713.545 29.38C712.015 29.38 710.539 28.138 710.539 25.996C710.539 23.854 712.015 22.702 713.545 22.702C715.093 22.702 716.551 23.908 716.551 26.032Z" fill="#212832"/>
<path d="M809 1H807V48H809V1Z" fill="#E74C3C" stroke="#E74C3C" stroke-width="0.936604"/>
<circle cx="441.415" cy="24.8506" r="23.4151" fill="#E74C3C" stroke="#E74C3C"/>
<path d="M431.128 24.6055C431.128 28.5767 432.177 31.5739 435.999 31.5739C439.82 31.5739 440.869 28.5767 440.869 24.6055C440.869 20.7093 439.82 17.7121 435.999 17.7121C432.177 17.7121 431.128 20.7093 431.128 24.6055ZM438.771 24.6055C438.771 27.2842 438.49 29.6257 435.999 29.6257C433.507 29.6257 433.226 27.2842 433.226 24.6055C433.226 22.058 433.507 19.6603 435.999 19.6603C438.49 19.6603 438.771 22.058 438.771 24.6055ZM442.96 31.424H452.064V29.6445H446.126C448.317 27.6401 451.689 25.1113 451.689 21.7957C451.689 19.3418 450.116 17.6747 447.343 17.6747C444.927 17.6747 443.016 19.117 442.941 22.0767H445.002C445.058 20.5407 445.864 19.4917 447.362 19.4917C448.954 19.4917 449.573 20.4657 449.573 21.8894C449.573 24.5681 446.182 27.0407 442.96 29.8692V31.424Z" fill="#212832"/>
<g filter="url(#filter3_d_925_6303)">
<rect x="861" y="67" width="365" height="47" fill="white" shape-rendering="crispEdges"/>
<rect x="860.766" y="66.7658" width="365.468" height="47.4683" stroke="black" stroke-opacity="0.2" stroke-width="0.468302" shape-rendering="crispEdges"/>
</g>
<path d="M967.595 97H969.647V84.49H967.595V97ZM979.019 97H981.053V91.15C981.053 88.378 979.307 86.92 976.985 86.92C975.797 86.92 974.699 87.406 974.033 88.216V87.082H971.981V97H974.033V91.456C974.033 89.638 975.023 88.702 976.535 88.702C978.029 88.702 979.019 89.638 979.019 91.456V97ZM990.708 94.228C990.6 90.646 985.002 91.762 985.002 89.764C985.002 89.098 985.578 88.648 986.676 88.648C987.792 88.648 988.458 89.242 988.53 90.106H990.582C990.474 88.126 988.998 86.92 986.748 86.92C984.408 86.92 982.932 88.198 982.932 89.782C982.932 93.418 988.692 92.302 988.692 94.246C988.692 94.93 988.062 95.434 986.874 95.434C985.74 95.434 984.966 94.768 984.894 93.958H982.77C982.86 95.758 984.534 97.162 986.91 97.162C989.25 97.162 990.708 95.902 990.708 94.228ZM1001.55 87.082H999.495V92.608C999.495 94.426 998.505 95.362 996.993 95.362C995.499 95.362 994.509 94.426 994.509 92.608V87.082H992.475V92.914C992.475 95.686 994.239 97.144 996.561 97.144C997.731 97.144 998.847 96.658 999.495 95.812V97H1001.55V87.082ZM1005.95 91.78C1005.95 89.674 1006.88 89.044 1008.39 89.044H1008.92V86.92C1007.51 86.92 1006.52 87.532 1005.95 88.522V87.082H1003.89V97H1005.95V91.78ZM1009.76 91.996C1009.76 95.056 1011.83 97.162 1014.4 97.162C1016.06 97.162 1017.25 96.37 1017.88 95.524V97H1019.95V87.082H1017.88V88.522C1017.27 87.712 1016.11 86.92 1014.44 86.92C1011.83 86.92 1009.76 88.936 1009.76 91.996ZM1017.88 92.032C1017.88 94.174 1016.42 95.38 1014.87 95.38C1013.34 95.38 1011.87 94.138 1011.87 91.996C1011.87 89.854 1013.34 88.702 1014.87 88.702C1016.42 88.702 1017.88 89.908 1017.88 92.032ZM1029.32 97H1031.35V91.15C1031.35 88.378 1029.61 86.92 1027.29 86.92C1026.1 86.92 1025 87.406 1024.33 88.216V87.082H1022.28V97H1024.33V91.456C1024.33 89.638 1025.32 88.702 1026.84 88.702C1028.33 88.702 1029.32 89.638 1029.32 91.456V97ZM1032.93 92.032C1032.93 95.146 1034.94 97.162 1037.79 97.162C1040.22 97.162 1041.8 95.812 1042.36 93.868H1040.15C1039.77 94.894 1039.01 95.434 1037.79 95.434C1036.13 95.434 1035.03 94.21 1035.03 92.032C1035.03 89.872 1036.13 88.648 1037.79 88.648C1039.01 88.648 1039.8 89.26 1040.15 90.214H1042.36C1041.8 88.126 1040.22 86.92 1037.79 86.92C1034.94 86.92 1032.93 88.936 1032.93 92.032ZM1048.22 88.648C1049.75 88.648 1050.96 89.62 1050.99 91.15H1045.5C1045.72 89.584 1046.83 88.648 1048.22 88.648ZM1052.86 94.048H1050.65C1050.27 94.822 1049.57 95.434 1048.31 95.434C1046.8 95.434 1045.63 94.444 1045.48 92.806H1053.06C1053.12 92.464 1053.13 92.14 1053.13 91.798C1053.13 88.882 1051.14 86.92 1048.31 86.92C1045.38 86.92 1043.36 88.918 1043.36 92.032C1043.36 95.146 1045.47 97.162 1048.31 97.162C1050.74 97.162 1052.31 95.776 1052.86 94.048ZM1067.55 93.454C1067.55 88.882 1060.93 90.646 1060.93 87.82C1060.93 86.614 1061.85 86.038 1063.03 86.074C1064.33 86.11 1065.07 86.884 1065.14 87.73H1067.41C1067.23 85.588 1065.54 84.328 1063.14 84.328C1060.59 84.328 1058.84 85.696 1058.84 87.892C1058.84 92.5 1065.48 90.538 1065.48 93.562C1065.48 94.624 1064.67 95.398 1063.23 95.398C1061.81 95.398 1061.09 94.57 1061 93.544H1058.8C1058.8 95.758 1060.73 97.126 1063.23 97.126C1066.02 97.126 1067.55 95.326 1067.55 93.454ZM1073.79 88.648C1075.32 88.648 1076.53 89.62 1076.56 91.15H1071.07C1071.29 89.584 1072.4 88.648 1073.79 88.648ZM1078.43 94.048H1076.22C1075.84 94.822 1075.14 95.434 1073.88 95.434C1072.37 95.434 1071.2 94.444 1071.05 92.806H1078.63C1078.69 92.464 1078.7 92.14 1078.7 91.798C1078.7 88.882 1076.71 86.92 1073.88 86.92C1070.95 86.92 1068.93 88.918 1068.93 92.032C1068.93 95.146 1071.04 97.162 1073.88 97.162C1076.31 97.162 1077.88 95.776 1078.43 94.048ZM1082.41 91.78C1082.41 89.674 1083.35 89.044 1084.86 89.044H1085.38V86.92C1083.98 86.92 1082.99 87.532 1082.41 88.522V87.082H1080.36V97H1082.41V91.78ZM1085.74 87.082L1089.5 97H1091.95L1095.73 87.082H1093.55L1090.74 95.164L1087.94 87.082H1085.74ZM1096.92 97H1098.97V87.082H1096.92V97ZM1097.97 85.768C1098.69 85.768 1099.26 85.192 1099.26 84.454C1099.26 83.716 1098.69 83.14 1097.97 83.14C1097.23 83.14 1096.65 83.716 1096.65 84.454C1096.65 85.192 1097.23 85.768 1097.97 85.768ZM1100.62 92.032C1100.62 95.146 1102.64 97.162 1105.48 97.162C1107.91 97.162 1109.5 95.812 1110.06 93.868H1107.84C1107.46 94.894 1106.71 95.434 1105.48 95.434C1103.83 95.434 1102.73 94.21 1102.73 92.032C1102.73 89.872 1103.83 88.648 1105.48 88.648C1106.71 88.648 1107.5 89.26 1107.84 90.214H1110.06C1109.5 88.126 1107.91 86.92 1105.48 86.92C1102.64 86.92 1100.62 88.936 1100.62 92.032ZM1115.92 88.648C1117.45 88.648 1118.65 89.62 1118.69 91.15H1113.2C1113.41 89.584 1114.53 88.648 1115.92 88.648ZM1120.56 94.048H1118.35C1117.97 94.822 1117.27 95.434 1116.01 95.434C1114.49 95.434 1113.32 94.444 1113.18 92.806H1120.76C1120.81 92.464 1120.83 92.14 1120.83 91.798C1120.83 88.882 1118.83 86.92 1116.01 86.92C1113.07 86.92 1111.06 88.918 1111.06 92.032C1111.06 95.146 1113.16 97.162 1116.01 97.162C1118.44 97.162 1120 95.776 1120.56 94.048ZM1129.89 94.228C1129.78 90.646 1124.18 91.762 1124.18 89.764C1124.18 89.098 1124.76 88.648 1125.86 88.648C1126.97 88.648 1127.64 89.242 1127.71 90.106H1129.76C1129.65 88.126 1128.18 86.92 1125.93 86.92C1123.59 86.92 1122.11 88.198 1122.11 89.782C1122.11 93.418 1127.87 92.302 1127.87 94.246C1127.87 94.93 1127.24 95.434 1126.05 95.434C1124.92 95.434 1124.15 94.768 1124.07 93.958H1121.95C1122.04 95.758 1123.71 97.162 1126.09 97.162C1128.43 97.162 1129.89 95.902 1129.89 94.228Z" fill="#212832"/>
<circle cx="861.415" cy="90.4151" r="23.4151" fill="#3498DB" stroke="#3498DB"/>
<path d="M850.525 90.6055C850.525 94.5767 851.574 97.5739 855.395 97.5739C859.216 97.5739 860.265 94.5767 860.265 90.6055C860.265 86.7093 859.216 83.7121 855.395 83.7121C851.574 83.7121 850.525 86.7093 850.525 90.6055ZM858.167 90.6055C858.167 93.2842 857.886 95.6257 855.395 95.6257C852.904 95.6257 852.623 93.2842 852.623 90.6055C852.623 88.058 852.904 85.6603 855.395 85.6603C857.886 85.6603 858.167 88.058 858.167 90.6055ZM871.835 87.1214C871.61 85.3044 870.28 83.6185 867.62 83.6185C864.211 83.6185 862.787 86.2035 862.787 90.4744C862.787 94.8202 863.818 97.6113 867.789 97.6113C870.711 97.6113 872.266 95.6445 872.266 93.0594C872.266 90.2122 870.524 88.5637 868.07 88.5637C866.646 88.5637 865.297 89.1632 864.623 90.2871C864.679 86.7093 865.672 85.398 867.601 85.398C868.95 85.398 869.606 86.0162 869.868 87.1214H871.835ZM867.601 90.362C869.4 90.362 870.224 91.5234 870.224 93.1531C870.224 94.7641 869.25 95.8318 867.676 95.8318C865.859 95.8318 864.867 94.7079 864.867 93.022C864.867 91.205 866.196 90.362 867.601 90.362Z" fill="#212832"/>
<g filter="url(#filter4_d_925_6303)">
<rect x="24" y="65" width="365" height="47" fill="white" shape-rendering="crispEdges"/>
<rect x="23.7658" y="64.7658" width="365.468" height="47.4683" stroke="black" stroke-opacity="0.2" stroke-width="0.468302" shape-rendering="crispEdges"/>
</g>
<path d="M102.925 84.164H106.273V95H108.325V84.164H111.655V82.49H102.925V84.164ZM113.049 89.996C113.049 93.056 115.119 95.162 117.693 95.162C119.349 95.162 120.537 94.37 121.167 93.524V95H123.237V85.082H121.167V86.522C120.555 85.712 119.403 84.92 117.729 84.92C115.119 84.92 113.049 86.936 113.049 89.996ZM121.167 90.032C121.167 92.174 119.709 93.38 118.161 93.38C116.631 93.38 115.155 92.138 115.155 89.996C115.155 87.854 116.631 86.702 118.161 86.702C119.709 86.702 121.167 87.908 121.167 90.032ZM131.062 95H133.384L130.18 89.978L133.384 85.082H131.242L129.226 88.448L127.084 85.082H124.762L127.966 90.122L124.762 95H126.904L128.92 91.634L131.062 95ZM148.032 95H150.192L145.71 82.472H143.334L138.852 95H140.994L141.894 92.444H147.132L148.032 95ZM146.556 90.77H142.47L144.522 84.956L146.556 90.77ZM151.457 89.996C151.457 93.056 153.527 95.162 156.137 95.162C157.757 95.162 158.945 94.406 159.575 93.506V95H161.645V81.68H159.575V86.468C158.819 85.532 157.451 84.92 156.155 84.92C153.527 84.92 151.457 86.936 151.457 89.996ZM159.575 90.032C159.575 92.174 158.117 93.38 156.569 93.38C155.039 93.38 153.563 92.138 153.563 89.996C153.563 87.854 155.039 86.702 156.569 86.702C158.117 86.702 159.575 87.908 159.575 90.032ZM163.17 85.082L166.932 95H169.38L173.16 85.082H170.982L168.174 93.164L165.366 85.082H163.17ZM174.711 95H176.763V85.082H174.711V95ZM175.755 83.768C176.475 83.768 177.051 83.192 177.051 82.454C177.051 81.716 176.475 81.14 175.755 81.14C175.017 81.14 174.441 81.716 174.441 82.454C174.441 83.192 175.017 83.768 175.755 83.768ZM186.855 92.228C186.747 88.646 181.149 89.762 181.149 87.764C181.149 87.098 181.725 86.648 182.823 86.648C183.939 86.648 184.605 87.242 184.677 88.106H186.729C186.621 86.126 185.145 84.92 182.895 84.92C180.555 84.92 179.079 86.198 179.079 87.782C179.079 91.418 184.839 90.302 184.839 92.246C184.839 92.93 184.209 93.434 183.021 93.434C181.887 93.434 181.113 92.768 181.041 91.958H178.917C179.007 93.758 180.681 95.162 183.057 95.162C185.397 95.162 186.855 93.902 186.855 92.228ZM198.523 90.032C198.523 86.918 196.291 84.92 193.465 84.92C190.639 84.92 188.407 86.918 188.407 90.032C188.407 93.146 190.549 95.162 193.375 95.162C196.219 95.162 198.523 93.146 198.523 90.032ZM190.495 90.032C190.495 87.782 191.881 86.702 193.429 86.702C194.959 86.702 196.417 87.782 196.417 90.032C196.417 92.282 194.905 93.38 193.375 93.38C191.827 93.38 190.495 92.282 190.495 90.032ZM202.603 89.78C202.603 87.674 203.539 87.044 205.051 87.044H205.573V84.92C204.169 84.92 203.179 85.532 202.603 86.522V85.082H200.551V95H202.603V89.78ZM211.365 92.642L208.575 85.082H206.289L210.195 94.838L208.179 99.662H210.303L216.387 85.082H214.263L211.365 92.642ZM231.054 91.454C231.054 86.882 224.43 88.646 224.43 85.82C224.43 84.614 225.348 84.038 226.536 84.074C227.832 84.11 228.57 84.884 228.642 85.73H230.91C230.73 83.588 229.038 82.328 226.644 82.328C224.088 82.328 222.342 83.696 222.342 85.892C222.342 90.5 228.984 88.538 228.984 91.562C228.984 92.624 228.174 93.398 226.734 93.398C225.312 93.398 224.592 92.57 224.502 91.544H222.306C222.306 93.758 224.232 95.126 226.734 95.126C229.524 95.126 231.054 93.326 231.054 91.454ZM237.651 86.648C239.181 86.648 240.387 87.62 240.423 89.15H234.933C235.149 87.584 236.265 86.648 237.651 86.648ZM242.295 92.048H240.081C239.703 92.822 239.001 93.434 237.741 93.434C236.229 93.434 235.059 92.444 234.915 90.806H242.493C242.547 90.464 242.565 90.14 242.565 89.798C242.565 86.882 240.567 84.92 237.741 84.92C234.807 84.92 232.791 86.918 232.791 90.032C232.791 93.146 234.897 95.162 237.741 95.162C240.171 95.162 241.737 93.776 242.295 92.048ZM246.636 89.78C246.636 87.674 247.572 87.044 249.084 87.044H249.606V84.92C248.202 84.92 247.212 85.532 246.636 86.522V85.082H244.584V95H246.636V89.78ZM250.323 85.082L254.085 95H256.533L260.313 85.082H258.135L255.327 93.164L252.519 85.082H250.323ZM261.864 95H263.916V85.082H261.864V95ZM262.908 83.768C263.628 83.768 264.204 83.192 264.204 82.454C264.204 81.716 263.628 81.14 262.908 81.14C262.17 81.14 261.594 81.716 261.594 82.454C261.594 83.192 262.17 83.768 262.908 83.768ZM265.926 90.032C265.926 93.146 267.942 95.162 270.786 95.162C273.216 95.162 274.8 93.812 275.358 91.868H273.144C272.766 92.894 272.01 93.434 270.786 93.434C269.13 93.434 268.032 92.21 268.032 90.032C268.032 87.872 269.13 86.648 270.786 86.648C272.01 86.648 272.802 87.26 273.144 88.214H275.358C274.8 86.126 273.216 84.92 270.786 84.92C267.942 84.92 265.926 86.936 265.926 90.032ZM281.579 86.648C283.109 86.648 284.315 87.62 284.351 89.15H278.861C279.077 87.584 280.193 86.648 281.579 86.648ZM286.223 92.048H284.009C283.631 92.822 282.929 93.434 281.669 93.434C280.157 93.434 278.987 92.444 278.843 90.806H286.421C286.475 90.464 286.493 90.14 286.493 89.798C286.493 86.882 284.495 84.92 281.669 84.92C278.735 84.92 276.719 86.918 276.719 90.032C276.719 93.146 278.825 95.162 281.669 95.162C284.099 95.162 285.665 93.776 286.223 92.048ZM295.91 92.228C295.802 88.646 290.204 89.762 290.204 87.764C290.204 87.098 290.78 86.648 291.878 86.648C292.994 86.648 293.66 87.242 293.732 88.106H295.784C295.676 86.126 294.2 84.92 291.95 84.92C289.61 84.92 288.134 86.198 288.134 87.782C288.134 91.418 293.894 90.302 293.894 92.246C293.894 92.93 293.264 93.434 292.076 93.434C290.942 93.434 290.168 92.768 290.096 91.958H287.972C288.062 93.758 289.736 95.162 292.112 95.162C294.452 95.162 295.91 93.902 295.91 92.228Z" fill="#212832"/>
<path d="M389 65H387V112H389V65Z" fill="#A9CF54" stroke="#A9CF54" stroke-width="0.936604"/>
<circle cx="24.4151" cy="88.8506" r="23.4151" fill="#A9CF54" stroke="#A9CF54"/>
<path d="M13.4699 88.6055C13.4699 92.5767 14.5189 95.5739 18.3402 95.5739C22.1616 95.5739 23.2106 92.5767 23.2106 88.6055C23.2106 84.7093 22.1616 81.7121 18.3402 81.7121C14.5189 81.7121 13.4699 84.7093 13.4699 88.6055ZM21.1126 88.6055C21.1126 91.2842 20.8316 93.6257 18.3402 93.6257C15.8489 93.6257 15.5679 91.2842 15.5679 88.6055C15.5679 86.058 15.8489 83.6603 18.3402 83.6603C20.8316 83.6603 21.1126 86.058 21.1126 88.6055ZM31.9889 95.6113H34.0869V92.7641H35.829V90.9096H34.0869V82.1242H31.5019L25.2079 91.1531V92.7641H31.9889V95.6113ZM27.6618 90.9096L32.0825 84.2972V90.9096H27.6618Z" fill="#212832"/>
<g filter="url(#filter5_d_925_6303)">
<rect x="444" y="66" width="365" height="47" fill="white" shape-rendering="crispEdges"/>
<rect x="443.766" y="65.7658" width="365.468" height="47.4683" stroke="black" stroke-opacity="0.2" stroke-width="0.468302" shape-rendering="crispEdges"/>
</g>
<path d="M549.718 96H551.77V90.528H555.91V88.854H551.77V85.164H557.08V83.49H549.718V96ZM558.982 96H561.034V86.082H558.982V96ZM560.026 84.768C560.746 84.768 561.322 84.192 561.322 83.454C561.322 82.716 560.746 82.14 560.026 82.14C559.288 82.14 558.712 82.716 558.712 83.454C558.712 84.192 559.288 84.768 560.026 84.768ZM570.766 96H572.8V90.15C572.8 87.378 571.054 85.92 568.732 85.92C567.544 85.92 566.446 86.406 565.78 87.216V86.082H563.728V96H565.78V90.456C565.78 88.638 566.77 87.702 568.282 87.702C569.776 87.702 570.766 88.638 570.766 90.456V96ZM574.733 90.996C574.733 94.056 576.803 96.162 579.377 96.162C581.033 96.162 582.221 95.37 582.851 94.524V96H584.921V86.082H582.851V87.522C582.239 86.712 581.087 85.92 579.413 85.92C576.803 85.92 574.733 87.936 574.733 90.996ZM582.851 91.032C582.851 93.174 581.393 94.38 579.845 94.38C578.315 94.38 576.839 93.138 576.839 90.996C576.839 88.854 578.315 87.702 579.845 87.702C581.393 87.702 582.851 88.908 582.851 91.032ZM594.655 96H596.689V90.15C596.689 87.378 594.943 85.92 592.621 85.92C591.433 85.92 590.335 86.406 589.669 87.216V86.082H587.617V96H589.669V90.456C589.669 88.638 590.659 87.702 592.171 87.702C593.665 87.702 594.655 88.638 594.655 90.456V96ZM598.622 91.032C598.622 94.146 600.638 96.162 603.482 96.162C605.912 96.162 607.496 94.812 608.054 92.868H605.84C605.462 93.894 604.706 94.434 603.482 94.434C601.826 94.434 600.728 93.21 600.728 91.032C600.728 88.872 601.826 87.648 603.482 87.648C604.706 87.648 605.498 88.26 605.84 89.214H608.054C607.496 87.126 605.912 85.92 603.482 85.92C600.638 85.92 598.622 87.936 598.622 91.032ZM610.099 96H612.151V86.082H610.099V96ZM611.143 84.768C611.863 84.768 612.439 84.192 612.439 83.454C612.439 82.716 611.863 82.14 611.143 82.14C610.405 82.14 609.829 82.716 609.829 83.454C609.829 84.192 610.405 84.768 611.143 84.768ZM614.161 90.996C614.161 94.056 616.231 96.162 618.805 96.162C620.461 96.162 621.649 95.37 622.279 94.524V96H624.349V86.082H622.279V87.522C621.667 86.712 620.515 85.92 618.841 85.92C616.231 85.92 614.161 87.936 614.161 90.996ZM622.279 91.032C622.279 93.174 620.821 94.38 619.273 94.38C617.743 94.38 616.267 93.138 616.267 90.996C616.267 88.854 617.743 87.702 619.273 87.702C620.821 87.702 622.279 88.908 622.279 91.032ZM627.044 96H629.096V82.68H627.044V96ZM644.908 92.454C644.908 87.882 638.284 89.646 638.284 86.82C638.284 85.614 639.202 85.038 640.39 85.074C641.686 85.11 642.424 85.884 642.496 86.73H644.764C644.584 84.588 642.892 83.328 640.498 83.328C637.942 83.328 636.196 84.696 636.196 86.892C636.196 91.5 642.838 89.538 642.838 92.562C642.838 93.624 642.028 94.398 640.588 94.398C639.166 94.398 638.446 93.57 638.356 92.544H636.16C636.16 94.758 638.086 96.126 640.588 96.126C643.378 96.126 644.908 94.326 644.908 92.454ZM651.505 87.648C653.035 87.648 654.241 88.62 654.277 90.15H648.787C649.003 88.584 650.119 87.648 651.505 87.648ZM656.149 93.048H653.935C653.557 93.822 652.855 94.434 651.595 94.434C650.083 94.434 648.913 93.444 648.769 91.806H656.347C656.401 91.464 656.419 91.14 656.419 90.798C656.419 87.882 654.421 85.92 651.595 85.92C648.661 85.92 646.645 87.918 646.645 91.032C646.645 94.146 648.751 96.162 651.595 96.162C654.025 96.162 655.591 94.776 656.149 93.048ZM660.491 90.78C660.491 88.674 661.427 88.044 662.939 88.044H663.461V85.92C662.057 85.92 661.067 86.532 660.491 87.522V86.082H658.439V96H660.491V90.78ZM664.177 86.082L667.939 96H670.387L674.167 86.082H671.989L669.181 94.164L666.373 86.082H664.177ZM675.718 96H677.77V86.082H675.718V96ZM676.762 84.768C677.482 84.768 678.058 84.192 678.058 83.454C678.058 82.716 677.482 82.14 676.762 82.14C676.024 82.14 675.448 82.716 675.448 83.454C675.448 84.192 676.024 84.768 676.762 84.768ZM679.78 91.032C679.78 94.146 681.796 96.162 684.64 96.162C687.07 96.162 688.654 94.812 689.212 92.868H686.998C686.62 93.894 685.864 94.434 684.64 94.434C682.984 94.434 681.886 93.21 681.886 91.032C681.886 88.872 682.984 87.648 684.64 87.648C685.864 87.648 686.656 88.26 686.998 89.214H689.212C688.654 87.126 687.07 85.92 684.64 85.92C681.796 85.92 679.78 87.936 679.78 91.032ZM695.433 87.648C696.963 87.648 698.169 88.62 698.205 90.15H692.715C692.931 88.584 694.047 87.648 695.433 87.648ZM700.077 93.048H697.863C697.485 93.822 696.783 94.434 695.523 94.434C694.011 94.434 692.841 93.444 692.697 91.806H700.275C700.329 91.464 700.347 91.14 700.347 90.798C700.347 87.882 698.349 85.92 695.523 85.92C692.589 85.92 690.573 87.918 690.573 91.032C690.573 94.146 692.679 96.162 695.523 96.162C697.953 96.162 699.519 94.776 700.077 93.048ZM709.765 93.228C709.657 89.646 704.059 90.762 704.059 88.764C704.059 88.098 704.635 87.648 705.733 87.648C706.849 87.648 707.515 88.242 707.587 89.106H709.639C709.531 87.126 708.055 85.92 705.805 85.92C703.465 85.92 701.989 87.198 701.989 88.782C701.989 92.418 707.749 91.302 707.749 93.246C707.749 93.93 707.119 94.434 705.931 94.434C704.797 94.434 704.023 93.768 703.951 92.958H701.827C701.917 94.758 703.591 96.162 705.967 96.162C708.307 96.162 709.765 94.902 709.765 93.228Z" fill="#212832"/>
<path d="M809 66H807V113H809V66Z" fill="#946FB0" stroke="#946FB0" stroke-width="0.936604"/>
<circle cx="441.415" cy="89.8506" r="23.4151" fill="#946FB0" stroke="#946FB0"/>
<path d="M430.552 89.6055C430.552 93.5767 431.601 96.5739 435.423 96.5739C439.244 96.5739 440.293 93.5767 440.293 89.6055C440.293 85.7093 439.244 82.7121 435.423 82.7121C431.601 82.7121 430.552 85.7093 430.552 89.6055ZM438.195 89.6055C438.195 92.2842 437.914 94.6257 435.423 94.6257C432.931 94.6257 432.65 92.2842 432.65 89.6055C432.65 87.058 432.931 84.6603 435.423 84.6603C437.914 84.6603 438.195 87.058 438.195 89.6055ZM443.114 82.9182V90.8044H445.137C445.493 89.7929 446.336 89.0998 447.591 89.0998C449.371 89.0998 450.251 90.1113 450.251 91.8908C450.251 93.5767 449.427 94.8318 447.591 94.8318C446.149 94.8318 445.175 94.0825 444.894 92.9211H442.815C443.133 95.0566 444.763 96.6113 447.573 96.6113C450.738 96.6113 452.293 94.5508 452.293 91.8346C452.293 89.7741 451.263 87.2828 447.91 87.2828C446.692 87.2828 445.587 87.8447 445.081 88.5191V84.7914H451.357V82.9182H443.114Z" fill="#212832"/>
<path d="M1226 67H1224V114H1226V67Z" fill="#3498DB" stroke="#3498DB" stroke-width="0.936604"/>
<defs>
<filter id="filter0_d_925_6303" x="860.531" y="1.53174" width="365.938" height="47.9365" filterUnits="userSpaceOnUse" color-interpolation-filters="sRGB">
<feFlood flood-opacity="0" result="BackgroundImageFix"/>
<feColorMatrix in="SourceAlpha" type="matrix" values="0 0 0 0 0 0 0 0 0 0 0 0 0 0 0 0 0 0 127 0" result="hardAlpha"/>
<feOffset/>
<feComposite in2="hardAlpha" operator="out"/>
<feColorMatrix type="matrix" values="0 0 0 0 0 0 0 0 0 0 0 0 0 0 0 0 0 0 0.1 0"/>
<feBlend mode="normal" in2="BackgroundImageFix" result="effect1_dropShadow_925_6303"/>
<feBlend mode="normal" in="SourceGraphic" in2="effect1_dropShadow_925_6303" result="shape"/>
</filter>
<filter id="filter1_d_925_6303" x="23.5312" y="0.531738" width="365.938" height="47.9365" filterUnits="userSpaceOnUse" color-interpolation-filters="sRGB">
<feFlood flood-opacity="0" result="BackgroundImageFix"/>
<feColorMatrix in="SourceAlpha" type="matrix" values="0 0 0 0 0 0 0 0 0 0 0 0 0 0 0 0 0 0 127 0" result="hardAlpha"/>
<feOffset/>
<feComposite in2="hardAlpha" operator="out"/>
<feColorMatrix type="matrix" values="0 0 0 0 0 0 0 0 0 0 0 0 0 0 0 0 0 0 0.1 0"/>
<feBlend mode="normal" in2="BackgroundImageFix" result="effect1_dropShadow_925_6303"/>
<feBlend mode="normal" in="SourceGraphic" in2="effect1_dropShadow_925_6303" result="shape"/>
</filter>
<filter id="filter2_d_925_6303" x="443.531" y="0.531738" width="365.938" height="47.9365" filterUnits="userSpaceOnUse" color-interpolation-filters="sRGB">
<feFlood flood-opacity="0" result="BackgroundImageFix"/>
<feColorMatrix in="SourceAlpha" type="matrix" values="0 0 0 0 0 0 0 0 0 0 0 0 0 0 0 0 0 0 127 0" result="hardAlpha"/>
<feOffset/>
<feComposite in2="hardAlpha" operator="out"/>
<feColorMatrix type="matrix" values="0 0 0 0 0 0 0 0 0 0 0 0 0 0 0 0 0 0 0.1 0"/>
<feBlend mode="normal" in2="BackgroundImageFix" result="effect1_dropShadow_925_6303"/>
<feBlend mode="normal" in="SourceGraphic" in2="effect1_dropShadow_925_6303" result="shape"/>
</filter>
<filter id="filter3_d_925_6303" x="860.531" y="66.5317" width="365.938" height="47.9365" filterUnits="userSpaceOnUse" color-interpolation-filters="sRGB">
<feFlood flood-opacity="0" result="BackgroundImageFix"/>
<feColorMatrix in="SourceAlpha" type="matrix" values="0 0 0 0 0 0 0 0 0 0 0 0 0 0 0 0 0 0 127 0" result="hardAlpha"/>
<feOffset/>
<feComposite in2="hardAlpha" operator="out"/>
<feColorMatrix type="matrix" values="0 0 0 0 0 0 0 0 0 0 0 0 0 0 0 0 0 0 0.1 0"/>
<feBlend mode="normal" in2="BackgroundImageFix" result="effect1_dropShadow_925_6303"/>
<feBlend mode="normal" in="SourceGraphic" in2="effect1_dropShadow_925_6303" result="shape"/>
</filter>
<filter id="filter4_d_925_6303" x="23.5312" y="64.5317" width="365.938" height="47.9365" filterUnits="userSpaceOnUse" color-interpolation-filters="sRGB">
<feFlood flood-opacity="0" result="BackgroundImageFix"/>
<feColorMatrix in="SourceAlpha" type="matrix" values="0 0 0 0 0 0 0 0 0 0 0 0 0 0 0 0 0 0 127 0" result="hardAlpha"/>
<feOffset/>
<feComposite in2="hardAlpha" operator="out"/>
<feColorMatrix type="matrix" values="0 0 0 0 0 0 0 0 0 0 0 0 0 0 0 0 0 0 0.1 0"/>
<feBlend mode="normal" in2="BackgroundImageFix" result="effect1_dropShadow_925_6303"/>
<feBlend mode="normal" in="SourceGraphic" in2="effect1_dropShadow_925_6303" result="shape"/>
</filter>
<filter id="filter5_d_925_6303" x="443.531" y="65.5317" width="365.938" height="47.9365" filterUnits="userSpaceOnUse" color-interpolation-filters="sRGB">
<feFlood flood-opacity="0" result="BackgroundImageFix"/>
<feColorMatrix in="SourceAlpha" type="matrix" values="0 0 0 0 0 0 0 0 0 0 0 0 0 0 0 0 0 0 127 0" result="hardAlpha"/>
<feOffset/>
<feComposite in2="hardAlpha" operator="out"/>
<feColorMatrix type="matrix" values="0 0 0 0 0 0 0 0 0 0 0 0 0 0 0 0 0 0 0.1 0"/>
<feBlend mode="normal" in2="BackgroundImageFix" result="effect1_dropShadow_925_6303"/>
<feBlend mode="normal" in="SourceGraphic" in2="effect1_dropShadow_925_6303" result="shape"/>
</filter>
</defs>
</svg>
