<svg width="617" height="401" viewBox="0 0 617 401" fill="none" xmlns="http://www.w3.org/2000/svg">
<rect width="617" height="58" fill="#3498DB"/>
<path d="M33.925 32.95C33.925 26.8 24.975 28.75 24.975 25.25C24.975 23.825 26 23.15 27.375 23.2C28.875 23.225 29.8 24.125 29.875 25.275H33.725C33.5 22.125 31.05 20.3 27.475 20.3C23.875 20.3 21.325 22.2 21.325 25.35C21.3 31.675 30.3 29.4 30.3 33.175C30.3 34.425 29.325 35.3 27.675 35.3C26.05 35.3 25.125 34.375 25.025 32.975H21.275C21.325 36.275 24.125 38.175 27.75 38.175C31.725 38.175 33.925 35.7 33.925 32.95ZM43.4094 26.8C45.2094 26.8 46.6594 27.95 46.7094 29.775H40.1344C40.4094 27.875 41.7344 26.8 43.4094 26.8ZM49.9844 33.65H46.2094C45.7594 34.575 44.9344 35.325 43.4344 35.325C41.6844 35.325 40.2844 34.175 40.1094 32.125H50.2344C50.3094 31.675 50.3344 31.225 50.3344 30.775C50.3344 26.65 47.5094 23.925 43.5094 23.925C39.4094 23.925 36.5594 26.7 36.5594 31.075C36.5594 35.425 39.4844 38.225 43.5094 38.225C46.9344 38.225 49.2344 36.2 49.9844 33.65ZM72.7641 38H76.2641V29.875C76.2641 26.05 73.9141 23.95 70.5891 23.95C68.5641 23.95 66.7391 25.025 65.8391 26.6C64.8891 24.875 63.1141 23.95 60.9641 23.95C59.2391 23.95 57.7641 24.675 56.8891 25.825V24.15H53.3891V38H56.8891V30.35C56.8891 28.15 58.1141 27 60.0141 27C61.8641 27 63.0891 28.15 63.0891 30.35V38H66.5891V30.35C66.5891 28.15 67.8141 27 69.6891 27C71.5391 27 72.7641 28.15 72.7641 30.35V38ZM86.0354 26.8C87.8354 26.8 89.2854 27.95 89.3354 29.775H82.7604C83.0354 27.875 84.3604 26.8 86.0354 26.8ZM92.6104 33.65H88.8354C88.3854 34.575 87.5604 35.325 86.0604 35.325C84.3104 35.325 82.9104 34.175 82.7354 32.125H92.8604C92.9354 31.675 92.9604 31.225 92.9604 30.775C92.9604 26.65 90.1354 23.925 86.1354 23.925C82.0354 23.925 79.1854 26.7 79.1854 31.075C79.1854 35.425 82.1104 38.225 86.1354 38.225C89.5604 38.225 91.8604 36.2 92.6104 33.65ZM106.765 34.05C106.665 28.975 98.99 30.55 98.99 28.025C98.99 27.225 99.665 26.7 100.965 26.7C102.34 26.7 103.19 27.425 103.29 28.5H106.64C106.44 25.75 104.415 23.925 101.065 23.925C97.64 23.925 95.59 25.775 95.59 28.075C95.59 33.15 103.415 31.575 103.415 34.05C103.415 34.85 102.665 35.475 101.29 35.475C99.89 35.475 98.915 34.675 98.79 33.625H95.265C95.415 36.2 97.84 38.225 101.315 38.225C104.69 38.225 106.765 36.425 106.765 34.05ZM110.688 33.7C110.688 36.875 112.463 38 115.113 38H117.313V35.05H115.688C114.588 35.05 114.213 34.65 114.213 33.725V27.025H117.313V24.15H114.213V20.725H110.688V24.15H109.038V27.025H110.688V33.7ZM126.28 26.8C128.08 26.8 129.53 27.95 129.58 29.775H123.005C123.28 27.875 124.605 26.8 126.28 26.8ZM132.855 33.65H129.08C128.63 34.575 127.805 35.325 126.305 35.325C124.555 35.325 123.155 34.175 122.98 32.125H133.105C133.18 31.675 133.205 31.225 133.205 30.775C133.205 26.65 130.38 23.925 126.38 23.925C122.28 23.925 119.43 26.7 119.43 31.075C119.43 35.425 122.355 38.225 126.38 38.225C129.805 38.225 132.105 36.2 132.855 33.65ZM139.76 31.1C139.76 28.425 141.01 27.625 143.085 27.625H144.01V23.95C142.085 23.95 140.635 24.875 139.76 26.3V24.15H136.26V38H139.76V31.1ZM152.975 24.575H156.4C156.525 23.425 157.25 22.325 158.95 22.325C160.55 22.325 161.425 23.175 161.425 24.6C161.425 26.4 159.925 26.975 157.875 26.975H157.15V29.85H157.875C160.475 29.85 161.775 30.6 161.775 32.65C161.775 34.1 160.875 35.2 159.125 35.2C157.25 35.2 156.2 34.075 156.125 32.5H152.725C152.875 36.325 155.6 38.125 159.2 38.125C163.025 38.125 165.125 35.925 165.125 32.95C165.125 30.475 163.9 28.975 162.05 28.4V28.3C163.375 27.85 164.8 26.45 164.8 24.175C164.8 21.475 162.8 19.35 159.05 19.35C155.55 19.35 153.15 21.2 152.975 24.575Z" fill="white"/>
<rect y="66" width="617" height="50" fill="white"/>
<path d="M24.6 94.44C26.08 94.44 27.24 93.3 27.24 91.84C27.24 90.36 26.08 89.22 24.6 89.22C23.16 89.22 22 90.36 22 91.84C22 93.3 23.16 94.44 24.6 94.44ZM54.5689 91.52C54.5689 87.36 51.4289 84.42 47.4689 84.42C43.5489 84.42 40.3689 87.36 40.3689 91.52C40.3689 95.7 43.5489 98.64 47.4689 98.64C51.4289 98.64 54.5689 95.7 54.5689 91.52ZM42.7089 91.52C42.7089 88.38 44.7089 86.42 47.4689 86.42C50.2289 86.42 52.2289 88.38 52.2289 91.52C52.2289 94.66 50.2289 96.66 47.4689 96.66C44.7089 96.66 42.7089 94.66 42.7089 91.52ZM59.0925 89.1V87.48H56.8125V103.74H59.0925V96.9C59.8125 97.76 61.1125 98.68 62.9325 98.68C65.8325 98.68 68.1125 96.34 68.1125 92.94C68.1125 89.54 65.8325 87.3 62.9325 87.3C61.1325 87.3 59.7925 88.18 59.0925 89.1ZM65.7925 92.94C65.7925 95.32 64.1525 96.7 62.4325 96.7C60.7325 96.7 59.0925 95.36 59.0925 92.98C59.0925 90.62 60.7325 89.28 62.4325 89.28C64.1525 89.28 65.7925 90.56 65.7925 92.94ZM75.0072 89.22C76.7072 89.22 78.0472 90.3 78.0872 92H71.9872C72.2272 90.26 73.4672 89.22 75.0072 89.22ZM80.1672 95.22H77.7072C77.2872 96.08 76.5072 96.76 75.1072 96.76C73.4272 96.76 72.1272 95.66 71.9672 93.84H80.3872C80.4472 93.46 80.4672 93.1 80.4672 92.72C80.4672 89.48 78.2472 87.3 75.1072 87.3C71.8472 87.3 69.6072 89.52 69.6072 92.98C69.6072 96.44 71.9472 98.68 75.1072 98.68C77.8072 98.68 79.5472 97.14 80.1672 95.22ZM90.5309 98.5H92.7909V92C92.7909 88.92 90.8509 87.3 88.2709 87.3C86.9509 87.3 85.7309 87.84 84.9909 88.74V87.48H82.7109V98.5H84.9909V92.34C84.9909 90.32 86.0909 89.28 87.7709 89.28C89.4309 89.28 90.5309 90.32 90.5309 92.34V98.5ZM108.575 84.58H100.895V98.5H108.575V96.64H103.175V92.38H107.975V90.52H103.175V86.44H108.575V84.58ZM111.383 98.5H113.663V83.7H111.383V98.5ZM121.296 89.22C122.996 89.22 124.336 90.3 124.376 92H118.276C118.516 90.26 119.756 89.22 121.296 89.22ZM126.456 95.22H123.996C123.576 96.08 122.796 96.76 121.396 96.76C119.716 96.76 118.416 95.66 118.256 93.84H126.676C126.736 93.46 126.756 93.1 126.756 92.72C126.756 89.48 124.536 87.3 121.396 87.3C118.136 87.3 115.896 89.52 115.896 92.98C115.896 96.44 118.236 98.68 121.396 98.68C124.096 98.68 125.836 97.14 126.456 95.22ZM128.24 92.98C128.24 96.44 130.48 98.68 133.64 98.68C136.34 98.68 138.1 97.18 138.72 95.02H136.26C135.84 96.16 135 96.76 133.64 96.76C131.8 96.76 130.58 95.4 130.58 92.98C130.58 90.58 131.8 89.22 133.64 89.22C135 89.22 135.88 89.9 136.26 90.96H138.72C138.1 88.64 136.34 87.3 133.64 87.3C130.48 87.3 128.24 89.54 128.24 92.98ZM141.352 95.44C141.352 97.68 142.572 98.5 144.532 98.5H146.332V96.6H144.932C143.972 96.6 143.652 96.26 143.652 95.44V89.34H146.332V87.48H143.652V84.74H141.352V87.48H140.052V89.34H141.352V95.44ZM148.434 98.5H150.714V87.48H148.434V98.5ZM149.594 86.02C150.394 86.02 151.034 85.38 151.034 84.56C151.034 83.74 150.394 83.1 149.594 83.1C148.774 83.1 148.134 83.74 148.134 84.56C148.134 85.38 148.774 86.02 149.594 86.02ZM152.407 87.48L156.587 98.5H159.307L163.507 87.48H161.087L157.967 96.46L154.847 87.48H152.407ZM169.87 89.22C171.57 89.22 172.91 90.3 172.95 92H166.85C167.09 90.26 168.33 89.22 169.87 89.22ZM175.03 95.22H172.57C172.15 96.08 171.37 96.76 169.97 96.76C168.29 96.76 166.99 95.66 166.83 93.84H175.25C175.31 93.46 175.33 93.1 175.33 92.72C175.33 89.48 173.11 87.3 169.97 87.3C166.71 87.3 164.47 89.52 164.47 92.98C164.47 96.44 166.81 98.68 169.97 98.68C172.67 98.68 174.41 97.14 175.03 95.22ZM185.794 95.42C185.674 91.44 179.454 92.68 179.454 90.46C179.454 89.72 180.094 89.22 181.314 89.22C182.554 89.22 183.294 89.88 183.374 90.84H185.654C185.534 88.64 183.894 87.3 181.394 87.3C178.794 87.3 177.154 88.72 177.154 90.48C177.154 94.52 183.554 93.28 183.554 95.44C183.554 96.2 182.854 96.76 181.534 96.76C180.274 96.76 179.414 96.02 179.334 95.12H176.974C177.074 97.12 178.934 98.68 181.574 98.68C184.174 98.68 185.794 97.28 185.794 95.42ZM192.693 91.52C192.693 95.7 195.873 98.62 199.793 98.62C202.693 98.62 205.193 97.18 206.253 94.46H203.513C202.773 95.94 201.453 96.64 199.793 96.64C197.033 96.64 195.033 94.66 195.033 91.52C195.033 88.38 197.033 86.42 199.793 86.42C201.453 86.42 202.773 87.12 203.513 88.6H206.253C205.193 85.88 202.693 84.42 199.793 84.42C195.873 84.42 192.693 87.36 192.693 91.52ZM219.422 92.98C219.422 89.52 216.942 87.3 213.802 87.3C210.662 87.3 208.182 89.52 208.182 92.98C208.182 96.44 210.562 98.68 213.702 98.68C216.862 98.68 219.422 96.44 219.422 92.98ZM210.502 92.98C210.502 90.48 212.042 89.28 213.762 89.28C215.462 89.28 217.082 90.48 217.082 92.98C217.082 95.48 215.402 96.7 213.702 96.7C211.982 96.7 210.502 95.48 210.502 92.98ZM231.656 87.48H229.376V93.62C229.376 95.64 228.276 96.68 226.596 96.68C224.936 96.68 223.836 95.64 223.836 93.62V87.48H221.576V93.96C221.576 97.04 223.536 98.66 226.116 98.66C227.416 98.66 228.656 98.12 229.376 97.18V98.5H231.656V87.48ZM236.944 92.7C236.944 90.36 237.984 89.66 239.664 89.66H240.244V87.3C238.684 87.3 237.584 87.98 236.944 89.08V87.48H234.664V98.5H236.944V92.7ZM250.56 95.42C250.44 91.44 244.22 92.68 244.22 90.46C244.22 89.72 244.86 89.22 246.08 89.22C247.32 89.22 248.06 89.88 248.14 90.84H250.42C250.3 88.64 248.66 87.3 246.16 87.3C243.56 87.3 241.92 88.72 241.92 90.48C241.92 94.52 248.32 93.28 248.32 95.44C248.32 96.2 247.62 96.76 246.3 96.76C245.04 96.76 244.18 96.02 244.1 95.12H241.74C241.84 97.12 243.7 98.68 246.34 98.68C248.94 98.68 250.56 97.28 250.56 95.42ZM257.663 89.22C259.363 89.22 260.703 90.3 260.743 92H254.643C254.883 90.26 256.123 89.22 257.663 89.22ZM262.823 95.22H260.363C259.943 96.08 259.163 96.76 257.763 96.76C256.083 96.76 254.783 95.66 254.623 93.84H263.043C263.103 93.46 263.123 93.1 263.123 92.72C263.123 89.48 260.903 87.3 257.763 87.3C254.503 87.3 252.263 89.52 252.263 92.98C252.263 96.44 254.603 98.68 257.763 98.68C260.463 98.68 262.203 97.14 262.823 95.22Z" fill="#212832"/>
<rect x="0.5" y="66.5" width="616" height="49" stroke="black" stroke-opacity="0.5"/>
<rect y="180" width="617" height="50" fill="white"/>
<path d="M24.6 208.44C26.08 208.44 27.24 207.3 27.24 205.84C27.24 204.36 26.08 203.22 24.6 203.22C23.16 203.22 22 204.36 22 205.84C22 207.3 23.16 208.44 24.6 208.44ZM41.1289 212.5H43.4089V206.42H48.0089V204.56H43.4089V200.46H49.3089V198.6H41.1289V212.5ZM61.4019 201.48H59.1219V207.62C59.1219 209.64 58.0219 210.68 56.3419 210.68C54.6819 210.68 53.5819 209.64 53.5819 207.62V201.48H51.3219V207.96C51.3219 211.04 53.2819 212.66 55.8619 212.66C57.1619 212.66 58.4019 212.12 59.1219 211.18V212.5H61.4019V201.48ZM72.2302 212.5H74.4902V206C74.4902 202.92 72.5502 201.3 69.9702 201.3C68.6502 201.3 67.4302 201.84 66.6902 202.74V201.48H64.4102V212.5H66.6902V206.34C66.6902 204.32 67.7902 203.28 69.4702 203.28C71.1302 203.28 72.2302 204.32 72.2302 206.34V212.5ZM76.6384 206.94C76.6384 210.34 78.9384 212.68 81.8384 212.68C83.6384 212.68 84.9584 211.84 85.6584 210.84V212.5H87.9584V197.7H85.6584V203.02C84.8184 201.98 83.2984 201.3 81.8584 201.3C78.9384 201.3 76.6384 203.54 76.6384 206.94ZM85.6584 206.98C85.6584 209.36 84.0384 210.7 82.3184 210.7C80.6184 210.7 78.9784 209.32 78.9784 206.94C78.9784 204.56 80.6184 203.28 82.3184 203.28C84.0384 203.28 85.6584 204.62 85.6584 206.98ZM90.1931 206.94C90.1931 210.34 92.4931 212.68 95.3531 212.68C97.1931 212.68 98.5131 211.8 99.2131 210.86V212.5H101.513V201.48H99.2131V203.08C98.5331 202.18 97.2531 201.3 95.3931 201.3C92.4931 201.3 90.1931 203.54 90.1931 206.94ZM99.2131 206.98C99.2131 209.36 97.5931 210.7 95.8731 210.7C94.1731 210.7 92.5331 209.32 92.5331 206.94C92.5331 204.56 94.1731 203.28 95.8731 203.28C97.5931 203.28 99.2131 204.62 99.2131 206.98ZM120.128 212.5H122.388V206C122.388 202.92 120.428 201.3 117.848 201.3C116.248 201.3 114.688 202.14 114.008 203.48C113.248 202.04 111.788 201.3 110.048 201.3C108.728 201.3 107.528 201.84 106.788 202.74V201.48H104.508V212.5H106.788V206.34C106.788 204.32 107.888 203.28 109.568 203.28C111.228 203.28 112.328 204.32 112.328 206.34V212.5H114.588V206.34C114.588 204.32 115.688 203.28 117.368 203.28C119.028 203.28 120.128 204.32 120.128 206.34V212.5ZM129.929 203.22C131.629 203.22 132.969 204.3 133.009 206H126.909C127.149 204.26 128.389 203.22 129.929 203.22ZM135.089 209.22H132.629C132.209 210.08 131.429 210.76 130.029 210.76C128.349 210.76 127.049 209.66 126.889 207.84H135.309C135.369 207.46 135.389 207.1 135.389 206.72C135.389 203.48 133.169 201.3 130.029 201.3C126.769 201.3 124.529 203.52 124.529 206.98C124.529 210.44 126.869 212.68 130.029 212.68C132.729 212.68 134.469 211.14 135.089 209.22ZM145.453 212.5H147.713V206C147.713 202.92 145.773 201.3 143.193 201.3C141.873 201.3 140.653 201.84 139.913 202.74V201.48H137.633V212.5H139.913V206.34C139.913 204.32 141.013 203.28 142.693 203.28C144.353 203.28 145.453 204.32 145.453 206.34V212.5ZM150.981 209.44C150.981 211.68 152.201 212.5 154.161 212.5H155.961V210.6H154.561C153.601 210.6 153.281 210.26 153.281 209.44V203.34H155.961V201.48H153.281V198.74H150.981V201.48H149.681V203.34H150.981V209.44ZM157.303 206.94C157.303 210.34 159.603 212.68 162.463 212.68C164.303 212.68 165.623 211.8 166.323 210.86V212.5H168.623V201.48H166.323V203.08C165.643 202.18 164.363 201.3 162.503 201.3C159.603 201.3 157.303 203.54 157.303 206.94ZM166.323 206.98C166.323 209.36 164.703 210.7 162.983 210.7C161.283 210.7 159.643 209.32 159.643 206.94C159.643 204.56 161.283 203.28 162.983 203.28C164.703 203.28 166.323 204.62 166.323 206.98ZM171.617 212.5H173.897V197.7H171.617V212.5ZM185.111 209.42C184.991 205.44 178.771 206.68 178.771 204.46C178.771 203.72 179.411 203.22 180.631 203.22C181.871 203.22 182.611 203.88 182.691 204.84H184.971C184.851 202.64 183.211 201.3 180.711 201.3C178.111 201.3 176.471 202.72 176.471 204.48C176.471 208.52 182.871 207.28 182.871 209.44C182.871 210.2 182.171 210.76 180.851 210.76C179.591 210.76 178.731 210.02 178.651 209.12H176.291C176.391 211.12 178.251 212.68 180.891 212.68C183.491 212.68 185.111 211.28 185.111 209.42ZM203.27 206.98C203.27 203.52 200.79 201.3 197.65 201.3C194.51 201.3 192.03 203.52 192.03 206.98C192.03 210.44 194.41 212.68 197.55 212.68C200.71 212.68 203.27 210.44 203.27 206.98ZM194.35 206.98C194.35 204.48 195.89 203.28 197.61 203.28C199.31 203.28 200.93 204.48 200.93 206.98C200.93 209.48 199.25 210.7 197.55 210.7C195.83 210.7 194.35 209.48 194.35 206.98ZM205.803 212.5H208.103V203.34H210.143V201.48H208.103V200.7C208.103 199.44 208.583 198.96 209.983 198.96V197.06C207.103 197.06 205.803 198.16 205.803 200.7V201.48H204.503V203.34H205.803V212.5ZM216.599 205.52C216.599 209.7 219.779 212.62 223.699 212.62C226.599 212.62 229.099 211.18 230.159 208.46H227.419C226.679 209.94 225.359 210.64 223.699 210.64C220.939 210.64 218.939 208.66 218.939 205.52C218.939 202.38 220.939 200.42 223.699 200.42C225.359 200.42 226.679 201.12 227.419 202.6H230.159C229.099 199.88 226.599 198.42 223.699 198.42C219.779 198.42 216.599 201.36 216.599 205.52ZM232.828 212.5H235.108V197.7H232.828V212.5ZM248.602 206.98C248.602 203.52 246.122 201.3 242.982 201.3C239.842 201.3 237.362 203.52 237.362 206.98C237.362 210.44 239.742 212.68 242.882 212.68C246.042 212.68 248.602 210.44 248.602 206.98ZM239.682 206.98C239.682 204.48 241.222 203.28 242.942 203.28C244.642 203.28 246.262 204.48 246.262 206.98C246.262 209.48 244.582 210.7 242.882 210.7C241.162 210.7 239.682 209.48 239.682 206.98ZM260.835 201.48H258.555V207.62C258.555 209.64 257.455 210.68 255.775 210.68C254.115 210.68 253.015 209.64 253.015 207.62V201.48H250.755V207.96C250.755 211.04 252.715 212.66 255.295 212.66C256.595 212.66 257.835 212.12 258.555 211.18V212.5H260.835V201.48ZM263.084 206.94C263.084 210.34 265.384 212.68 268.284 212.68C270.084 212.68 271.404 211.84 272.104 210.84V212.5H274.404V197.7H272.104V203.02C271.264 201.98 269.744 201.3 268.304 201.3C265.384 201.3 263.084 203.54 263.084 206.94ZM272.104 206.98C272.104 209.36 270.484 210.7 268.764 210.7C267.064 210.7 265.424 209.32 265.424 206.94C265.424 204.56 267.064 203.28 268.764 203.28C270.484 203.28 272.104 204.62 272.104 206.98ZM291.974 208.56C291.974 203.48 284.614 205.44 284.614 202.3C284.614 200.96 285.634 200.32 286.954 200.36C288.394 200.4 289.214 201.26 289.294 202.2H291.814C291.614 199.82 289.734 198.42 287.074 198.42C284.234 198.42 282.294 199.94 282.294 202.38C282.294 207.5 289.674 205.32 289.674 208.68C289.674 209.86 288.774 210.72 287.174 210.72C285.594 210.72 284.794 209.8 284.694 208.66H282.254C282.254 211.12 284.394 212.64 287.174 212.64C290.274 212.64 291.974 210.64 291.974 208.56ZM299.304 203.22C301.004 203.22 302.344 204.3 302.384 206H296.284C296.524 204.26 297.764 203.22 299.304 203.22ZM304.464 209.22H302.004C301.584 210.08 300.804 210.76 299.404 210.76C297.724 210.76 296.424 209.66 296.264 207.84H304.684C304.744 207.46 304.764 207.1 304.764 206.72C304.764 203.48 302.544 201.3 299.404 201.3C296.144 201.3 293.904 203.52 293.904 206.98C293.904 210.44 296.244 212.68 299.404 212.68C302.104 212.68 303.844 211.14 304.464 209.22ZM306.248 206.98C306.248 210.44 308.488 212.68 311.648 212.68C314.348 212.68 316.108 211.18 316.728 209.02H314.268C313.848 210.16 313.008 210.76 311.648 210.76C309.808 210.76 308.588 209.4 308.588 206.98C308.588 204.58 309.808 203.22 311.648 203.22C313.008 203.22 313.888 203.9 314.268 204.96H316.728C316.108 202.64 314.348 201.3 311.648 201.3C308.488 201.3 306.248 203.54 306.248 206.98ZM328.98 201.48H326.7V207.62C326.7 209.64 325.6 210.68 323.92 210.68C322.26 210.68 321.16 209.64 321.16 207.62V201.48H318.9V207.96C318.9 211.04 320.86 212.66 323.44 212.66C324.74 212.66 325.98 212.12 326.7 211.18V212.5H328.98V201.48ZM334.268 206.7C334.268 204.36 335.308 203.66 336.988 203.66H337.568V201.3C336.008 201.3 334.908 201.98 334.268 203.08V201.48H331.988V212.5H334.268V206.7ZM339.664 212.5H341.944V201.48H339.664V212.5ZM340.824 200.02C341.624 200.02 342.264 199.38 342.264 198.56C342.264 197.74 341.624 197.1 340.824 197.1C340.004 197.1 339.364 197.74 339.364 198.56C339.364 199.38 340.004 200.02 340.824 200.02ZM345.298 209.44C345.298 211.68 346.518 212.5 348.478 212.5H350.278V210.6H348.878C347.918 210.6 347.598 210.26 347.598 209.44V203.34H350.278V201.48H347.598V198.74H345.298V201.48H343.998V203.34H345.298V209.44ZM356.719 209.88L353.619 201.48H351.079L355.419 212.32L353.179 217.68H355.539L362.299 201.48H359.939L356.719 209.88Z" fill="#212832"/>
<rect x="0.5" y="180.5" width="616" height="49" stroke="black" stroke-opacity="0.5"/>
<rect y="351" width="617" height="50" fill="white"/>
<path d="M24.6 379.44C26.08 379.44 27.24 378.3 27.24 376.84C27.24 375.36 26.08 374.22 24.6 374.22C23.16 374.22 22 375.36 22 376.84C22 378.3 23.16 379.44 24.6 379.44ZM40.3689 376.52C40.3689 380.7 43.5489 383.62 47.4689 383.62C50.3689 383.62 52.8689 382.18 53.9289 379.46H51.1889C50.4489 380.94 49.1289 381.64 47.4689 381.64C44.7089 381.64 42.7089 379.66 42.7089 376.52C42.7089 373.38 44.7089 371.42 47.4689 371.42C49.1289 371.42 50.4489 372.12 51.1889 373.6H53.9289C52.8689 370.88 50.3689 369.42 47.4689 369.42C43.5489 369.42 40.3689 372.36 40.3689 376.52ZM58.8777 377.7C58.8777 375.36 59.9177 374.66 61.5977 374.66H62.1777V372.3C60.6177 372.3 59.5177 372.98 58.8777 374.08V372.48H56.5977V383.5H58.8777V377.7ZM68.6134 380.88L65.5134 372.48H62.9734L67.3134 383.32L65.0734 388.68H67.4334L74.1934 372.48H71.8334L68.6134 380.88ZM78.1941 374.1V372.48H75.9141V388.74H78.1941V381.9C78.9141 382.76 80.2141 383.68 82.0341 383.68C84.9341 383.68 87.2141 381.34 87.2141 377.94C87.2141 374.54 84.9341 372.3 82.0341 372.3C80.2341 372.3 78.8941 373.18 78.1941 374.1ZM84.8941 377.94C84.8941 380.32 83.2541 381.7 81.5341 381.7C79.8341 381.7 78.1941 380.36 78.1941 377.98C78.1941 375.62 79.8341 374.28 81.5341 374.28C83.2541 374.28 84.8941 375.56 84.8941 377.94ZM89.8288 380.44C89.8288 382.68 91.0488 383.5 93.0088 383.5H94.8088V381.6H93.4088C92.4488 381.6 92.1288 381.26 92.1288 380.44V374.34H94.8088V372.48H92.1288V369.74H89.8288V372.48H88.5288V374.34H89.8288V380.44ZM107.41 377.98C107.41 374.52 104.93 372.3 101.79 372.3C98.6502 372.3 96.1702 374.52 96.1702 377.98C96.1702 381.44 98.5502 383.68 101.69 383.68C104.85 383.68 107.41 381.44 107.41 377.98ZM98.4902 377.98C98.4902 375.48 100.03 374.28 101.75 374.28C103.45 374.28 105.07 375.48 105.07 377.98C105.07 380.48 103.39 381.7 101.69 381.7C99.9702 381.7 98.4902 380.48 98.4902 377.98ZM108.904 377.94C108.904 381.34 111.204 383.68 114.104 383.68C115.904 383.68 117.224 382.78 117.924 381.84V383.68C117.924 385.88 116.604 386.96 114.844 386.96C113.264 386.96 112.044 386.18 111.704 385.04H109.444C109.724 387.48 111.904 388.94 114.844 388.94C118.284 388.94 120.224 386.68 120.224 383.68V372.48H117.924V374.08C117.244 373.14 115.904 372.3 114.104 372.3C111.204 372.3 108.904 374.54 108.904 377.94ZM117.924 377.98C117.924 380.36 116.304 381.7 114.584 381.7C112.884 381.7 111.244 380.32 111.244 377.94C111.244 375.56 112.884 374.28 114.584 374.28C116.304 374.28 117.924 375.62 117.924 377.98ZM125.499 377.7C125.499 375.36 126.539 374.66 128.219 374.66H128.799V372.3C127.239 372.3 126.139 372.98 125.499 374.08V372.48H123.219V383.5H125.499V377.7ZM130.135 377.94C130.135 381.34 132.435 383.68 135.295 383.68C137.135 383.68 138.455 382.8 139.155 381.86V383.5H141.455V372.48H139.155V374.08C138.475 373.18 137.195 372.3 135.335 372.3C132.435 372.3 130.135 374.54 130.135 377.94ZM139.155 377.98C139.155 380.36 137.535 381.7 135.815 381.7C134.115 381.7 132.475 380.32 132.475 377.94C132.475 375.56 134.115 374.28 135.815 374.28C137.535 374.28 139.155 375.62 139.155 377.98ZM146.729 374.1V372.48H144.449V388.74H146.729V381.9C147.449 382.76 148.749 383.68 150.569 383.68C153.469 383.68 155.749 381.34 155.749 377.94C155.749 374.54 153.469 372.3 150.569 372.3C148.769 372.3 147.429 373.18 146.729 374.1ZM153.429 377.94C153.429 380.32 151.789 381.7 150.069 381.7C148.369 381.7 146.729 380.36 146.729 377.98C146.729 375.62 148.369 374.28 150.069 374.28C151.789 374.28 153.429 375.56 153.429 377.94ZM158.004 383.5H160.284V377.34C160.284 375.32 161.384 374.28 163.064 374.28C164.724 374.28 165.824 375.32 165.824 377.34V383.5H168.084V377C168.084 373.92 166.164 372.3 163.704 372.3C162.284 372.3 161.044 372.84 160.284 373.76V368.7H158.004V383.5ZM175.332 380.88L172.232 372.48H169.692L174.032 383.32L171.792 388.68H174.152L180.912 372.48H178.552L175.332 380.88Z" fill="#212832"/>
<rect x="0.5" y="351.5" width="616" height="49" stroke="black" stroke-opacity="0.5"/>
<rect y="123" width="617" height="50" fill="white"/>
<path d="M24.6 151.44C26.08 151.44 27.24 150.3 27.24 148.84C27.24 147.36 26.08 146.22 24.6 146.22C23.16 146.22 22 147.36 22 148.84C22 150.3 23.16 151.44 24.6 151.44ZM50.5089 155.5H52.9089L47.9289 141.58H45.2889L40.3089 155.5H42.6889L43.6889 152.66H49.5089L50.5089 155.5ZM48.8689 150.8H44.3289L46.6089 144.34L48.8689 150.8ZM57.3542 146.1V144.48H55.0742V160.74H57.3542V153.9C58.0742 154.76 59.3742 155.68 61.1942 155.68C64.0942 155.68 66.3742 153.34 66.3742 149.94C66.3742 146.54 64.0942 144.3 61.1942 144.3C59.3942 144.3 58.0542 145.18 57.3542 146.1ZM64.0542 149.94C64.0542 152.32 62.4142 153.7 60.6942 153.7C58.9942 153.7 57.3542 152.36 57.3542 149.98C57.3542 147.62 58.9942 146.28 60.6942 146.28C62.4142 146.28 64.0542 147.56 64.0542 149.94ZM70.9089 146.1V144.48H68.6289V160.74H70.9089V153.9C71.6289 154.76 72.9289 155.68 74.7489 155.68C77.6489 155.68 79.9289 153.34 79.9289 149.94C79.9289 146.54 77.6489 144.3 74.7489 144.3C72.9489 144.3 71.6089 145.18 70.9089 146.1ZM77.6089 149.94C77.6089 152.32 75.9689 153.7 74.2489 153.7C72.5489 153.7 70.9089 152.36 70.9089 149.98C70.9089 147.62 72.5489 146.28 74.2489 146.28C75.9689 146.28 77.6089 147.56 77.6089 149.94ZM82.1836 155.5H84.4636V140.7H82.1836V155.5ZM87.457 155.5H89.737V144.48H87.457V155.5ZM88.617 143.02C89.417 143.02 90.057 142.38 90.057 141.56C90.057 140.74 89.417 140.1 88.617 140.1C87.797 140.1 87.157 140.74 87.157 141.56C87.157 142.38 87.797 143.02 88.617 143.02ZM91.9705 149.98C91.9705 153.44 94.2105 155.68 97.3705 155.68C100.07 155.68 101.83 154.18 102.45 152.02H99.9905C99.5705 153.16 98.7305 153.76 97.3705 153.76C95.5305 153.76 94.3105 152.4 94.3105 149.98C94.3105 147.58 95.5305 146.22 97.3705 146.22C98.7305 146.22 99.6105 146.9 99.9905 147.96H102.45C101.83 145.64 100.07 144.3 97.3705 144.3C94.2105 144.3 91.9705 146.54 91.9705 149.98ZM103.963 149.94C103.963 153.34 106.263 155.68 109.123 155.68C110.963 155.68 112.283 154.8 112.983 153.86V155.5H115.283V144.48H112.983V146.08C112.303 145.18 111.023 144.3 109.163 144.3C106.263 144.3 103.963 146.54 103.963 149.94ZM112.983 149.98C112.983 152.36 111.363 153.7 109.643 153.7C107.943 153.7 106.303 152.32 106.303 149.94C106.303 147.56 107.943 146.28 109.643 146.28C111.363 146.28 112.983 147.62 112.983 149.98ZM118.637 152.44C118.637 154.68 119.857 155.5 121.817 155.5H123.617V153.6H122.217C121.257 153.6 120.937 153.26 120.937 152.44V146.34H123.617V144.48H120.937V141.74H118.637V144.48H117.337V146.34H118.637V152.44ZM125.719 155.5H127.999V144.48H125.719V155.5ZM126.879 143.02C127.679 143.02 128.319 142.38 128.319 141.56C128.319 140.74 127.679 140.1 126.879 140.1C126.059 140.1 125.419 140.74 125.419 141.56C125.419 142.38 126.059 143.02 126.879 143.02ZM141.492 149.98C141.492 146.52 139.012 144.3 135.872 144.3C132.732 144.3 130.252 146.52 130.252 149.98C130.252 153.44 132.632 155.68 135.772 155.68C138.932 155.68 141.492 153.44 141.492 149.98ZM132.572 149.98C132.572 147.48 134.112 146.28 135.832 146.28C137.532 146.28 139.152 147.48 139.152 149.98C139.152 152.48 137.472 153.7 135.772 153.7C134.052 153.7 132.572 152.48 132.572 149.98ZM151.566 155.5H153.826V149C153.826 145.92 151.886 144.3 149.306 144.3C147.986 144.3 146.766 144.84 146.026 145.74V144.48H143.746V155.5H146.026V149.34C146.026 147.32 147.126 146.28 148.806 146.28C150.466 146.28 151.566 147.32 151.566 149.34V155.5ZM166.47 141.6H161.93V155.5H166.47C170.93 155.5 173.85 152.88 173.85 148.6C173.85 144.3 170.93 141.6 166.47 141.6ZM164.21 153.64V143.46H166.47C169.75 143.46 171.51 145.42 171.51 148.6C171.51 151.76 169.75 153.64 166.47 153.64H164.21ZM180.749 146.22C182.449 146.22 183.789 147.3 183.829 149H177.729C177.969 147.26 179.209 146.22 180.749 146.22ZM185.909 152.22H183.449C183.029 153.08 182.249 153.76 180.849 153.76C179.169 153.76 177.869 152.66 177.709 150.84H186.129C186.189 150.46 186.209 150.1 186.209 149.72C186.209 146.48 183.989 144.3 180.849 144.3C177.589 144.3 175.349 146.52 175.349 149.98C175.349 153.44 177.689 155.68 180.849 155.68C183.549 155.68 185.289 154.14 185.909 152.22ZM187.153 144.48L191.333 155.5H194.053L198.253 144.48H195.833L192.713 153.46L189.593 144.48H187.153ZM204.617 146.22C206.317 146.22 207.657 147.3 207.697 149H201.597C201.837 147.26 203.077 146.22 204.617 146.22ZM209.777 152.22H207.317C206.897 153.08 206.117 153.76 204.717 153.76C203.037 153.76 201.737 152.66 201.577 150.84H209.997C210.057 150.46 210.077 150.1 210.077 149.72C210.077 146.48 207.857 144.3 204.717 144.3C201.457 144.3 199.217 146.52 199.217 149.98C199.217 153.44 201.557 155.68 204.717 155.68C207.417 155.68 209.157 154.14 209.777 152.22ZM212.32 155.5H214.6V140.7H212.32V155.5ZM228.094 149.98C228.094 146.52 225.614 144.3 222.474 144.3C219.334 144.3 216.854 146.52 216.854 149.98C216.854 153.44 219.234 155.68 222.374 155.68C225.534 155.68 228.094 153.44 228.094 149.98ZM219.174 149.98C219.174 147.48 220.714 146.28 222.434 146.28C224.134 146.28 225.754 147.48 225.754 149.98C225.754 152.48 224.074 153.7 222.374 153.7C220.654 153.7 219.174 152.48 219.174 149.98ZM232.628 146.1V144.48H230.348V160.74H232.628V153.9C233.348 154.76 234.648 155.68 236.468 155.68C239.368 155.68 241.648 153.34 241.648 149.94C241.648 146.54 239.368 144.3 236.468 144.3C234.668 144.3 233.328 145.18 232.628 146.1ZM239.328 149.94C239.328 152.32 237.688 153.7 235.968 153.7C234.268 153.7 232.628 152.36 232.628 149.98C232.628 147.62 234.268 146.28 235.968 146.28C237.688 146.28 239.328 147.56 239.328 149.94ZM259.522 155.5H261.782V149C261.782 145.92 259.822 144.3 257.242 144.3C255.642 144.3 254.082 145.14 253.402 146.48C252.642 145.04 251.182 144.3 249.442 144.3C248.122 144.3 246.922 144.84 246.182 145.74V144.48H243.902V155.5H246.182V149.34C246.182 147.32 247.282 146.28 248.962 146.28C250.622 146.28 251.722 147.32 251.722 149.34V155.5H253.982V149.34C253.982 147.32 255.082 146.28 256.762 146.28C258.422 146.28 259.522 147.32 259.522 149.34V155.5ZM269.324 146.22C271.024 146.22 272.364 147.3 272.404 149H266.304C266.544 147.26 267.784 146.22 269.324 146.22ZM274.484 152.22H272.024C271.604 153.08 270.824 153.76 269.424 153.76C267.744 153.76 266.444 152.66 266.284 150.84H274.704C274.764 150.46 274.784 150.1 274.784 149.72C274.784 146.48 272.564 144.3 269.424 144.3C266.164 144.3 263.924 146.52 263.924 149.98C263.924 153.44 266.264 155.68 269.424 155.68C272.124 155.68 273.864 154.14 274.484 152.22ZM284.847 155.5H287.107V149C287.107 145.92 285.167 144.3 282.587 144.3C281.267 144.3 280.047 144.84 279.307 145.74V144.48H277.027V155.5H279.307V149.34C279.307 147.32 280.407 146.28 282.087 146.28C283.747 146.28 284.847 147.32 284.847 149.34V155.5ZM290.376 152.44C290.376 154.68 291.596 155.5 293.556 155.5H295.356V153.6H293.956C292.996 153.6 292.676 153.26 292.676 152.44V146.34H295.356V144.48H292.676V141.74H290.376V144.48H289.076V146.34H290.376V152.44ZM302.632 150.42C302.632 153.96 305.112 155.64 308.032 155.64C310.932 155.64 313.492 153.96 313.492 150.42V141.6H311.212V150.46C311.212 152.62 309.992 153.64 308.052 153.64C306.132 153.64 304.912 152.62 304.912 150.46V141.6H302.632V150.42ZM324.681 152.42C324.561 148.44 318.341 149.68 318.341 147.46C318.341 146.72 318.981 146.22 320.201 146.22C321.441 146.22 322.181 146.88 322.261 147.84H324.541C324.421 145.64 322.781 144.3 320.281 144.3C317.681 144.3 316.041 145.72 316.041 147.48C316.041 151.52 322.441 150.28 322.441 152.44C322.441 153.2 321.741 153.76 320.421 153.76C319.161 153.76 318.301 153.02 318.221 152.12H315.861C315.961 154.12 317.821 155.68 320.461 155.68C323.061 155.68 324.681 154.28 324.681 152.42ZM327.145 155.5H329.425V144.48H327.145V155.5ZM328.305 143.02C329.105 143.02 329.745 142.38 329.745 141.56C329.745 140.74 329.105 140.1 328.305 140.1C327.485 140.1 326.845 140.74 326.845 141.56C326.845 142.38 327.485 143.02 328.305 143.02ZM340.238 155.5H342.498V149C342.498 145.92 340.558 144.3 337.978 144.3C336.658 144.3 335.438 144.84 334.698 145.74V144.48H332.418V155.5H334.698V149.34C334.698 147.32 335.798 146.28 337.478 146.28C339.138 146.28 340.238 147.32 340.238 149.34V155.5ZM344.646 149.94C344.646 153.34 346.946 155.68 349.846 155.68C351.646 155.68 352.966 154.78 353.666 153.84V155.68C353.666 157.88 352.346 158.96 350.586 158.96C349.006 158.96 347.786 158.18 347.446 157.04H345.186C345.466 159.48 347.646 160.94 350.586 160.94C354.026 160.94 355.966 158.68 355.966 155.68V144.48H353.666V146.08C352.986 145.14 351.646 144.3 349.846 144.3C346.946 144.3 344.646 146.54 344.646 149.94ZM353.666 149.98C353.666 152.36 352.046 153.7 350.326 153.7C348.626 153.7 346.986 152.32 346.986 149.94C346.986 147.56 348.626 146.28 350.326 146.28C352.046 146.28 353.666 147.62 353.666 149.98ZM366.436 148V143.46H368.956C370.736 143.46 371.536 144.3 371.536 145.74C371.536 147.14 370.736 148 368.956 148H366.436ZM373.876 145.74C373.876 143.48 372.256 141.6 368.956 141.6H364.156V155.5H366.436V149.86H368.956C372.576 149.86 373.876 147.72 373.876 145.74ZM380.391 152.88L377.291 144.48H374.751L379.091 155.32L376.851 160.68H379.211L385.971 144.48H383.611L380.391 152.88ZM388.051 152.44C388.051 154.68 389.271 155.5 391.231 155.5H393.031V153.6H391.631C390.671 153.6 390.351 153.26 390.351 152.44V146.34H393.031V144.48H390.351V141.74H388.051V144.48H386.751V146.34H388.051V152.44ZM395.133 155.5H397.413V149.34C397.413 147.32 398.513 146.28 400.193 146.28C401.853 146.28 402.953 147.32 402.953 149.34V155.5H405.213V149C405.213 145.92 403.293 144.3 400.833 144.3C399.413 144.3 398.173 144.84 397.413 145.76V140.7H395.133V155.5ZM418.621 149.98C418.621 146.52 416.141 144.3 413.001 144.3C409.861 144.3 407.381 146.52 407.381 149.98C407.381 153.44 409.761 155.68 412.901 155.68C416.061 155.68 418.621 153.44 418.621 149.98ZM409.701 149.98C409.701 147.48 411.241 146.28 412.961 146.28C414.661 146.28 416.281 147.48 416.281 149.98C416.281 152.48 414.601 153.7 412.901 153.7C411.181 153.7 409.701 152.48 409.701 149.98ZM428.695 155.5H430.955V149C430.955 145.92 429.015 144.3 426.435 144.3C425.115 144.3 423.895 144.84 423.155 145.74V144.48H420.875V155.5H423.155V149.34C423.155 147.32 424.255 146.28 425.935 146.28C427.595 146.28 428.695 147.32 428.695 149.34V155.5Z" fill="#212832"/>
<rect x="0.5" y="123.5" width="616" height="49" stroke="black" stroke-opacity="0.5"/>
<rect y="294" width="617" height="50" fill="white"/>
<path d="M24.6 322.44C26.08 322.44 27.24 321.3 27.24 319.84C27.24 318.36 26.08 317.22 24.6 317.22C23.16 317.22 22 318.36 22 319.84C22 321.3 23.16 322.44 24.6 322.44ZM50.5089 326.5H52.9089L47.9289 312.58H45.2889L40.3089 326.5H42.6889L43.6889 323.66H49.5089L50.5089 326.5ZM48.8689 321.8H44.3289L46.6089 315.34L48.8689 321.8ZM54.3142 320.94C54.3142 324.34 56.6142 326.68 59.5142 326.68C61.3142 326.68 62.6342 325.84 63.3342 324.84V326.5H65.6342V311.7H63.3342V317.02C62.4942 315.98 60.9742 315.3 59.5342 315.3C56.6142 315.3 54.3142 317.54 54.3142 320.94ZM63.3342 320.98C63.3342 323.36 61.7142 324.7 59.9942 324.7C58.2942 324.7 56.6542 323.32 56.6542 320.94C56.6542 318.56 58.2942 317.28 59.9942 317.28C61.7142 317.28 63.3342 318.62 63.3342 320.98ZM67.3289 315.48L71.5089 326.5H74.2289L78.4289 315.48H76.0089L72.8889 324.46L69.7689 315.48H67.3289ZM79.3923 320.94C79.3923 324.34 81.6923 326.68 84.5523 326.68C86.3923 326.68 87.7123 325.8 88.4123 324.86V326.5H90.7123V315.48H88.4123V317.08C87.7323 316.18 86.4523 315.3 84.5923 315.3C81.6923 315.3 79.3923 317.54 79.3923 320.94ZM88.4123 320.98C88.4123 323.36 86.7923 324.7 85.0723 324.7C83.3723 324.7 81.7323 323.32 81.7323 320.94C81.7323 318.56 83.3723 317.28 85.0723 317.28C86.7923 317.28 88.4123 318.62 88.4123 320.98ZM101.527 326.5H103.787V320C103.787 316.92 101.847 315.3 99.267 315.3C97.947 315.3 96.727 315.84 95.987 316.74V315.48H93.707V326.5H95.987V320.34C95.987 318.32 97.087 317.28 98.767 317.28C100.427 317.28 101.527 318.32 101.527 320.34V326.5ZM105.935 320.98C105.935 324.44 108.175 326.68 111.335 326.68C114.035 326.68 115.795 325.18 116.415 323.02H113.955C113.535 324.16 112.695 324.76 111.335 324.76C109.495 324.76 108.275 323.4 108.275 320.98C108.275 318.58 109.495 317.22 111.335 317.22C112.695 317.22 113.575 317.9 113.955 318.96H116.415C115.795 316.64 114.035 315.3 111.335 315.3C108.175 315.3 105.935 317.54 105.935 320.98ZM123.328 317.22C125.028 317.22 126.368 318.3 126.408 320H120.308C120.548 318.26 121.788 317.22 123.328 317.22ZM128.487 323.22H126.028C125.608 324.08 124.828 324.76 123.428 324.76C121.748 324.76 120.448 323.66 120.288 321.84H128.708C128.768 321.46 128.788 321.1 128.788 320.72C128.788 317.48 126.568 315.3 123.428 315.3C120.168 315.3 117.928 317.52 117.928 320.98C117.928 324.44 120.268 326.68 123.428 326.68C126.128 326.68 127.868 325.14 128.487 323.22ZM130.271 320.94C130.271 324.34 132.571 326.68 135.471 326.68C137.271 326.68 138.591 325.84 139.291 324.84V326.5H141.591V311.7H139.291V317.02C138.451 315.98 136.931 315.3 135.491 315.3C132.571 315.3 130.271 317.54 130.271 320.94ZM139.291 320.98C139.291 323.36 137.671 324.7 135.951 324.7C134.251 324.7 132.611 323.32 132.611 320.94C132.611 318.56 134.251 317.28 135.951 317.28C137.671 317.28 139.291 318.62 139.291 320.98ZM152.601 326.52L155.161 326.5L158.261 315.98L161.181 326.5H163.761L167.881 312.6H165.441L162.541 323.86L159.641 312.6H157.081L153.961 323.92L151.081 312.6H148.661L152.601 326.52ZM174.402 317.22C176.102 317.22 177.442 318.3 177.482 320H171.382C171.622 318.26 172.862 317.22 174.402 317.22ZM179.562 323.22H177.102C176.682 324.08 175.902 324.76 174.502 324.76C172.822 324.76 171.522 323.66 171.362 321.84H179.782C179.842 321.46 179.862 321.1 179.862 320.72C179.862 317.48 177.642 315.3 174.502 315.3C171.242 315.3 169.002 317.52 169.002 320.98C169.002 324.44 171.342 326.68 174.502 326.68C177.202 326.68 178.942 325.14 179.562 323.22ZM184.385 317.12V311.7H182.105V326.5H184.385V324.9C185.105 325.86 186.405 326.68 188.225 326.68C191.125 326.68 193.405 324.34 193.405 320.94C193.405 317.54 191.145 315.3 188.225 315.3C186.485 315.3 185.105 316.12 184.385 317.12ZM191.085 320.94C191.085 323.32 189.445 324.7 187.725 324.7C186.025 324.7 184.385 323.36 184.385 320.98C184.385 318.62 186.025 317.28 187.725 317.28C189.445 317.28 191.085 318.56 191.085 320.94ZM200.135 314.46H203.855V326.5H206.135V314.46H209.835V312.6H200.135V314.46ZM216.785 317.22C218.485 317.22 219.825 318.3 219.865 320H213.765C214.005 318.26 215.245 317.22 216.785 317.22ZM221.945 323.22H219.485C219.065 324.08 218.285 324.76 216.885 324.76C215.205 324.76 213.905 323.66 213.745 321.84H222.165C222.225 321.46 222.245 321.1 222.245 320.72C222.245 317.48 220.025 315.3 216.885 315.3C213.625 315.3 211.385 317.52 211.385 320.98C211.385 324.44 213.725 326.68 216.885 326.68C219.585 326.68 221.325 325.14 221.945 323.22ZM223.728 320.98C223.728 324.44 225.968 326.68 229.128 326.68C231.828 326.68 233.588 325.18 234.208 323.02H231.748C231.328 324.16 230.488 324.76 229.128 324.76C227.288 324.76 226.068 323.4 226.068 320.98C226.068 318.58 227.288 317.22 229.128 317.22C230.488 317.22 231.368 317.9 231.748 318.96H234.208C233.588 316.64 231.828 315.3 229.128 315.3C225.968 315.3 223.728 317.54 223.728 320.98ZM236.48 326.5H238.76V320.34C238.76 318.32 239.86 317.28 241.54 317.28C243.2 317.28 244.3 318.32 244.3 320.34V326.5H246.56V320C246.56 316.92 244.64 315.3 242.18 315.3C240.76 315.3 239.52 315.84 238.76 316.76V311.7H236.48V326.5ZM257.289 326.5H259.549V320C259.549 316.92 257.609 315.3 255.029 315.3C253.709 315.3 252.489 315.84 251.749 316.74V315.48H249.469V326.5H251.749V320.34C251.749 318.32 252.849 317.28 254.529 317.28C256.189 317.28 257.289 318.32 257.289 320.34V326.5ZM272.957 320.98C272.957 317.52 270.477 315.3 267.337 315.3C264.197 315.3 261.717 317.52 261.717 320.98C261.717 324.44 264.097 326.68 267.237 326.68C270.397 326.68 272.957 324.44 272.957 320.98ZM264.037 320.98C264.037 318.48 265.577 317.28 267.297 317.28C268.997 317.28 270.617 318.48 270.617 320.98C270.617 323.48 268.937 324.7 267.237 324.7C265.517 324.7 264.037 323.48 264.037 320.98ZM275.211 326.5H277.491V311.7H275.211V326.5ZM290.984 320.98C290.984 317.52 288.504 315.3 285.364 315.3C282.224 315.3 279.744 317.52 279.744 320.98C279.744 324.44 282.124 326.68 285.264 326.68C288.424 326.68 290.984 324.44 290.984 320.98ZM282.064 320.98C282.064 318.48 283.604 317.28 285.324 317.28C287.024 317.28 288.644 318.48 288.644 320.98C288.644 323.48 286.964 324.7 285.264 324.7C283.544 324.7 282.064 323.48 282.064 320.98ZM292.478 320.94C292.478 324.34 294.778 326.68 297.678 326.68C299.478 326.68 300.798 325.78 301.498 324.84V326.68C301.498 328.88 300.178 329.96 298.418 329.96C296.838 329.96 295.618 329.18 295.278 328.04H293.018C293.298 330.48 295.478 331.94 298.418 331.94C301.858 331.94 303.798 329.68 303.798 326.68V315.48H301.498V317.08C300.818 316.14 299.478 315.3 297.678 315.3C294.778 315.3 292.478 317.54 292.478 320.94ZM301.498 320.98C301.498 323.36 299.878 324.7 298.158 324.7C296.458 324.7 294.818 323.32 294.818 320.94C294.818 318.56 296.458 317.28 298.158 317.28C299.878 317.28 301.498 318.62 301.498 320.98ZM306.793 326.5H309.073V315.48H306.793V326.5ZM307.953 314.02C308.753 314.02 309.393 313.38 309.393 312.56C309.393 311.74 308.753 311.1 307.953 311.1C307.133 311.1 306.493 311.74 306.493 312.56C306.493 313.38 307.133 314.02 307.953 314.02ZM316.706 317.22C318.406 317.22 319.746 318.3 319.786 320H313.686C313.926 318.26 315.166 317.22 316.706 317.22ZM321.866 323.22H319.406C318.986 324.08 318.206 324.76 316.806 324.76C315.126 324.76 313.826 323.66 313.666 321.84H322.086C322.146 321.46 322.166 321.1 322.166 320.72C322.166 317.48 319.946 315.3 316.806 315.3C313.546 315.3 311.306 317.52 311.306 320.98C311.306 324.44 313.646 326.68 316.806 326.68C319.506 326.68 321.246 325.14 321.866 323.22ZM332.63 323.42C332.51 319.44 326.29 320.68 326.29 318.46C326.29 317.72 326.93 317.22 328.15 317.22C329.39 317.22 330.13 317.88 330.21 318.84H332.49C332.37 316.64 330.73 315.3 328.23 315.3C325.63 315.3 323.99 316.72 323.99 318.48C323.99 322.52 330.39 321.28 330.39 323.44C330.39 324.2 329.69 324.76 328.37 324.76C327.11 324.76 326.25 324.02 326.17 323.12H323.81C323.91 325.12 325.77 326.68 328.41 326.68C331.01 326.68 332.63 325.28 332.63 323.42Z" fill="#212832"/>
<rect x="0.5" y="294.5" width="616" height="49" stroke="black" stroke-opacity="0.5"/>
<rect y="237" width="617" height="50" fill="white"/>
<path d="M24.6 265.44C26.08 265.44 27.24 264.3 27.24 262.84C27.24 261.36 26.08 260.22 24.6 260.22C23.16 260.22 22 261.36 22 262.84C22 264.3 23.16 265.44 24.6 265.44ZM50.2689 255.58V265.94L43.4089 255.58H41.1289V269.5H43.4089V259.12L50.2689 269.5H52.5489V255.58H50.2689ZM60.183 260.22C61.883 260.22 63.223 261.3 63.263 263H57.163C57.403 261.26 58.643 260.22 60.183 260.22ZM65.343 266.22H62.883C62.463 267.08 61.683 267.76 60.283 267.76C58.603 267.76 57.303 266.66 57.143 264.84H65.563C65.623 264.46 65.643 264.1 65.643 263.72C65.643 260.48 63.423 258.3 60.283 258.3C57.023 258.3 54.783 260.52 54.783 263.98C54.783 267.44 57.123 269.68 60.283 269.68C62.983 269.68 64.723 268.14 65.343 266.22ZM68.2467 266.44C68.2467 268.68 69.4667 269.5 71.4267 269.5H73.2267V267.6H71.8267C70.8667 267.6 70.5467 267.26 70.5467 266.44V260.34H73.2267V258.48H70.5467V255.74H68.2467V258.48H66.9467V260.34H68.2467V266.44ZM77.4681 269.5H79.8681L82.0881 261.36L84.3081 269.5H86.7081L90.1281 258.48H87.8881L85.6081 267.3L83.3681 258.48H80.9881L78.6481 267.34L76.3481 258.48H74.0281L77.4681 269.5ZM102.332 263.98C102.332 260.52 99.852 258.3 96.712 258.3C93.572 258.3 91.092 260.52 91.092 263.98C91.092 267.44 93.472 269.68 96.612 269.68C99.772 269.68 102.332 267.44 102.332 263.98ZM93.412 263.98C93.412 261.48 94.952 260.28 96.672 260.28C98.372 260.28 99.992 261.48 99.992 263.98C99.992 266.48 98.312 267.7 96.612 267.7C94.892 267.7 93.412 266.48 93.412 263.98ZM106.866 263.7C106.866 261.36 107.906 260.66 109.586 260.66H110.166V258.3C108.606 258.3 107.506 258.98 106.866 260.08V258.48H104.586V269.5H106.866V263.7ZM112.262 269.5H114.542V264.76L118.622 269.5H121.702L116.622 264L121.702 258.48H118.542L114.542 263.3V254.7H112.262V269.5ZM127.771 263.94C127.771 267.34 130.071 269.68 132.931 269.68C134.771 269.68 136.091 268.8 136.791 267.86V269.5H139.091V258.48H136.791V260.08C136.111 259.18 134.831 258.3 132.971 258.3C130.071 258.3 127.771 260.54 127.771 263.94ZM136.791 263.98C136.791 266.36 135.171 267.7 133.451 267.7C131.751 267.7 130.111 266.32 130.111 263.94C130.111 261.56 131.751 260.28 133.451 260.28C135.171 260.28 136.791 261.62 136.791 263.98ZM149.906 269.5H152.166V263C152.166 259.92 150.226 258.3 147.646 258.3C146.326 258.3 145.106 258.84 144.366 259.74V258.48H142.086V269.5H144.366V263.34C144.366 261.32 145.466 260.28 147.146 260.28C148.806 260.28 149.906 261.32 149.906 263.34V269.5ZM154.314 263.94C154.314 267.34 156.614 269.68 159.514 269.68C161.314 269.68 162.634 268.84 163.334 267.84V269.5H165.634V254.7H163.334V260.02C162.494 258.98 160.974 258.3 159.534 258.3C156.614 258.3 154.314 260.54 154.314 263.94ZM163.334 263.98C163.334 266.36 161.714 267.7 159.994 267.7C158.294 267.7 156.654 266.32 156.654 263.94C156.654 261.56 158.294 260.28 159.994 260.28C161.714 260.28 163.334 261.62 163.334 263.98ZM183.204 265.56C183.204 260.48 175.844 262.44 175.844 259.3C175.844 257.96 176.864 257.32 178.184 257.36C179.624 257.4 180.444 258.26 180.524 259.2H183.044C182.844 256.82 180.964 255.42 178.304 255.42C175.464 255.42 173.524 256.94 173.524 259.38C173.524 264.5 180.904 262.32 180.904 265.68C180.904 266.86 180.004 267.72 178.404 267.72C176.824 267.72 176.024 266.8 175.924 265.66H173.484C173.484 268.12 175.624 269.64 178.404 269.64C181.504 269.64 183.204 267.64 183.204 265.56ZM190.235 266.88L187.135 258.48H184.595L188.935 269.32L186.695 274.68H189.055L195.815 258.48H193.455L190.235 266.88ZM205.755 266.42C205.635 262.44 199.415 263.68 199.415 261.46C199.415 260.72 200.055 260.22 201.275 260.22C202.515 260.22 203.255 260.88 203.335 261.84H205.615C205.495 259.64 203.855 258.3 201.355 258.3C198.755 258.3 197.115 259.72 197.115 261.48C197.115 265.52 203.515 264.28 203.515 266.44C203.515 267.2 202.815 267.76 201.495 267.76C200.235 267.76 199.375 267.02 199.295 266.12H196.935C197.035 268.12 198.895 269.68 201.535 269.68C204.135 269.68 205.755 268.28 205.755 266.42ZM208.579 266.44C208.579 268.68 209.799 269.5 211.759 269.5H213.559V267.6H212.159C211.199 267.6 210.879 267.26 210.879 266.44V260.34H213.559V258.48H210.879V255.74H208.579V258.48H207.279V260.34H208.579V266.44ZM220.3 260.22C222 260.22 223.34 261.3 223.38 263H217.28C217.52 261.26 218.76 260.22 220.3 260.22ZM225.46 266.22H223C222.58 267.08 221.8 267.76 220.4 267.76C218.72 267.76 217.42 266.66 217.26 264.84H225.68C225.74 264.46 225.76 264.1 225.76 263.72C225.76 260.48 223.54 258.3 220.4 258.3C217.14 258.3 214.9 260.52 214.9 263.98C214.9 267.44 217.24 269.68 220.4 269.68C223.1 269.68 224.84 268.14 225.46 266.22ZM243.624 269.5H245.884V263C245.884 259.92 243.924 258.3 241.344 258.3C239.744 258.3 238.184 259.14 237.504 260.48C236.744 259.04 235.284 258.3 233.544 258.3C232.224 258.3 231.024 258.84 230.284 259.74V258.48H228.004V269.5H230.284V263.34C230.284 261.32 231.384 260.28 233.064 260.28C234.724 260.28 235.824 261.32 235.824 263.34V269.5H238.084V263.34C238.084 261.32 239.184 260.28 240.864 260.28C242.524 260.28 243.624 261.32 243.624 263.34V269.5ZM263.36 265.56C263.36 260.48 256 262.44 256 259.3C256 257.96 257.02 257.32 258.34 257.36C259.78 257.4 260.6 258.26 260.68 259.2H263.2C263 256.82 261.12 255.42 258.46 255.42C255.62 255.42 253.68 256.94 253.68 259.38C253.68 264.5 261.06 262.32 261.06 265.68C261.06 266.86 260.16 267.72 258.56 267.72C256.98 267.72 256.18 266.8 256.08 265.66H253.64C253.64 268.12 255.78 269.64 258.56 269.64C261.66 269.64 263.36 267.64 263.36 265.56ZM270.691 260.22C272.391 260.22 273.731 261.3 273.771 263H267.671C267.911 261.26 269.151 260.22 270.691 260.22ZM275.851 266.22H273.391C272.971 267.08 272.191 267.76 270.791 267.76C269.111 267.76 267.811 266.66 267.651 264.84H276.071C276.131 264.46 276.151 264.1 276.151 263.72C276.151 260.48 273.931 258.3 270.791 258.3C267.531 258.3 265.291 260.52 265.291 263.98C265.291 267.44 267.631 269.68 270.791 269.68C273.491 269.68 275.231 268.14 275.851 266.22ZM277.635 263.98C277.635 267.44 279.875 269.68 283.035 269.68C285.735 269.68 287.495 268.18 288.115 266.02H285.655C285.235 267.16 284.395 267.76 283.035 267.76C281.195 267.76 279.975 266.4 279.975 263.98C279.975 261.58 281.195 260.22 283.035 260.22C284.395 260.22 285.275 260.9 285.655 261.96H288.115C287.495 259.64 285.735 258.3 283.035 258.3C279.875 258.3 277.635 260.54 277.635 263.98ZM300.367 258.48H298.087V264.62C298.087 266.64 296.987 267.68 295.307 267.68C293.647 267.68 292.547 266.64 292.547 264.62V258.48H290.287V264.96C290.287 268.04 292.247 269.66 294.827 269.66C296.127 269.66 297.367 269.12 298.087 268.18V269.5H300.367V258.48ZM305.655 263.7C305.655 261.36 306.695 260.66 308.375 260.66H308.955V258.3C307.395 258.3 306.295 258.98 305.655 260.08V258.48H303.375V269.5H305.655V263.7ZM311.051 269.5H313.331V258.48H311.051V269.5ZM312.211 257.02C313.011 257.02 313.651 256.38 313.651 255.56C313.651 254.74 313.011 254.1 312.211 254.1C311.391 254.1 310.751 254.74 310.751 255.56C310.751 256.38 311.391 257.02 312.211 257.02ZM316.684 266.44C316.684 268.68 317.904 269.5 319.864 269.5H321.664V267.6H320.264C319.304 267.6 318.984 267.26 318.984 266.44V260.34H321.664V258.48H318.984V255.74H316.684V258.48H315.384V260.34H316.684V266.44ZM328.106 266.88L325.006 258.48H322.466L326.806 269.32L324.566 274.68H326.926L333.686 258.48H331.326L328.106 266.88Z" fill="#212832"/>
<rect x="0.5" y="237.5" width="616" height="49" stroke="black" stroke-opacity="0.5"/>
</svg>
