<svg width="617" height="343" viewBox="0 0 617 343" fill="none" xmlns="http://www.w3.org/2000/svg">
<rect y="65" width="617" height="50" fill="white"/>
<path d="M24.6 93.44C26.08 93.44 27.24 92.3 27.24 90.84C27.24 89.36 26.08 88.22 24.6 88.22C23.16 88.22 22 89.36 22 90.84C22 92.3 23.16 93.44 24.6 93.44ZM40.3689 90.52C40.3689 94.7 43.5489 97.62 47.4689 97.62C50.3689 97.62 52.8689 96.18 53.9289 93.46H51.1889C50.4489 94.94 49.1289 95.64 47.4689 95.64C44.7089 95.64 42.7089 93.66 42.7089 90.52C42.7089 87.38 44.7089 85.42 47.4689 85.42C49.1289 85.42 50.4489 86.12 51.1889 87.6H53.9289C52.8689 84.88 50.3689 83.42 47.4689 83.42C43.5489 83.42 40.3689 86.36 40.3689 90.52ZM60.9377 94.88L57.8377 86.48H55.2977L59.6377 97.32L57.3977 102.68H59.7577L66.5177 86.48H64.1577L60.9377 94.88ZM70.5183 88.12V82.7H68.2383V97.5H70.5183V95.9C71.2383 96.86 72.5383 97.68 74.3583 97.68C77.2583 97.68 79.5383 95.34 79.5383 91.94C79.5383 88.54 77.2783 86.3 74.3583 86.3C72.6183 86.3 71.2383 87.12 70.5183 88.12ZM77.2183 91.94C77.2183 94.32 75.5783 95.7 73.8583 95.7C72.1583 95.7 70.5183 94.36 70.5183 91.98C70.5183 89.62 72.1583 88.28 73.8583 88.28C75.5783 88.28 77.2183 89.56 77.2183 91.94ZM86.433 88.22C88.133 88.22 89.473 89.3 89.513 91H83.413C83.653 89.26 84.893 88.22 86.433 88.22ZM91.593 94.22H89.133C88.713 95.08 87.933 95.76 86.533 95.76C84.853 95.76 83.553 94.66 83.393 92.84H91.813C91.873 92.46 91.893 92.1 91.893 91.72C91.893 88.48 89.673 86.3 86.533 86.3C83.273 86.3 81.033 88.52 81.033 91.98C81.033 95.44 83.373 97.68 86.533 97.68C89.233 97.68 90.973 96.14 91.593 94.22ZM96.4167 91.7C96.4167 89.36 97.4567 88.66 99.1367 88.66H99.7167V86.3C98.1567 86.3 97.0567 86.98 96.4167 88.08V86.48H94.1367V97.5H96.4167V91.7ZM107.008 83.6V97.5H113.988V95.66H109.288V83.6H107.008ZM115.135 91.94C115.135 95.34 117.435 97.68 120.295 97.68C122.135 97.68 123.455 96.8 124.155 95.86V97.5H126.455V86.48H124.155V88.08C123.475 87.18 122.195 86.3 120.335 86.3C117.435 86.3 115.135 88.54 115.135 91.94ZM124.155 91.98C124.155 94.36 122.535 95.7 120.815 95.7C119.115 95.7 117.475 94.32 117.475 91.94C117.475 89.56 119.115 88.28 120.815 88.28C122.535 88.28 124.155 89.62 124.155 91.98ZM131.589 97.5H133.989L136.209 89.36L138.429 97.5H140.829L144.249 86.48H142.009L139.729 95.3L137.489 86.48H135.109L132.769 95.34L130.469 86.48H128.149L131.589 97.5ZM154.173 94.42C154.053 90.44 147.833 91.68 147.833 89.46C147.833 88.72 148.473 88.22 149.693 88.22C150.933 88.22 151.673 88.88 151.753 89.84H154.033C153.913 87.64 152.273 86.3 149.773 86.3C147.173 86.3 145.533 87.72 145.533 89.48C145.533 93.52 151.933 92.28 151.933 94.44C151.933 95.2 151.233 95.76 149.913 95.76C148.653 95.76 147.793 95.02 147.713 94.12H145.353C145.453 96.12 147.313 97.68 149.953 97.68C152.553 97.68 154.173 96.28 154.173 94.42ZM161.072 91.94C161.072 95.34 163.372 97.68 166.232 97.68C168.072 97.68 169.392 96.8 170.092 95.86V97.5H172.392V86.48H170.092V88.08C169.412 87.18 168.132 86.3 166.272 86.3C163.372 86.3 161.072 88.54 161.072 91.94ZM170.092 91.98C170.092 94.36 168.472 95.7 166.752 95.7C165.052 95.7 163.412 94.32 163.412 91.94C163.412 89.56 165.052 88.28 166.752 88.28C168.472 88.28 170.092 89.62 170.092 91.98ZM183.207 97.5H185.467V91C185.467 87.92 183.527 86.3 180.947 86.3C179.627 86.3 178.407 86.84 177.667 87.74V86.48H175.387V97.5H177.667V91.34C177.667 89.32 178.767 88.28 180.447 88.28C182.107 88.28 183.207 89.32 183.207 91.34V97.5ZM187.615 91.94C187.615 95.34 189.915 97.68 192.815 97.68C194.615 97.68 195.935 96.84 196.635 95.84V97.5H198.935V82.7H196.635V88.02C195.795 86.98 194.275 86.3 192.835 86.3C189.915 86.3 187.615 88.54 187.615 91.94ZM196.635 91.98C196.635 94.36 195.015 95.7 193.295 95.7C191.595 95.7 189.955 94.32 189.955 91.94C189.955 89.56 191.595 88.28 193.295 88.28C195.015 88.28 196.635 89.62 196.635 91.98ZM214.805 83.58H207.125V97.5H214.805V95.64H209.405V91.38H214.205V89.52H209.405V85.44H214.805V83.58ZM217.973 94.44C217.973 96.68 219.193 97.5 221.153 97.5H222.953V95.6H221.553C220.593 95.6 220.273 95.26 220.273 94.44V88.34H222.953V86.48H220.273V83.74H217.973V86.48H216.673V88.34H217.973V94.44ZM225.055 97.5H227.335V91.34C227.335 89.32 228.435 88.28 230.115 88.28C231.775 88.28 232.875 89.32 232.875 91.34V97.5H235.135V91C235.135 87.92 233.215 86.3 230.755 86.3C229.335 86.3 228.095 86.84 227.335 87.76V82.7H225.055V97.5ZM238.043 97.5H240.323V86.48H238.043V97.5ZM239.203 85.02C240.003 85.02 240.643 84.38 240.643 83.56C240.643 82.74 240.003 82.1 239.203 82.1C238.383 82.1 237.743 82.74 237.743 83.56C237.743 84.38 238.383 85.02 239.203 85.02ZM242.556 91.98C242.556 95.44 244.796 97.68 247.956 97.68C250.656 97.68 252.416 96.18 253.036 94.02H250.576C250.156 95.16 249.316 95.76 247.956 95.76C246.116 95.76 244.896 94.4 244.896 91.98C244.896 89.58 246.116 88.22 247.956 88.22C249.316 88.22 250.196 88.9 250.576 89.96H253.036C252.416 87.64 250.656 86.3 247.956 86.3C244.796 86.3 242.556 88.54 242.556 91.98ZM263.529 94.42C263.409 90.44 257.189 91.68 257.189 89.46C257.189 88.72 257.829 88.22 259.049 88.22C260.289 88.22 261.029 88.88 261.109 89.84H263.389C263.269 87.64 261.629 86.3 259.129 86.3C256.529 86.3 254.889 87.72 254.889 89.48C254.889 93.52 261.289 92.28 261.289 94.44C261.289 95.2 260.589 95.76 259.269 95.76C258.009 95.76 257.149 95.02 257.069 94.12H254.709C254.809 96.12 256.669 97.68 259.309 97.68C261.909 97.68 263.529 96.28 263.529 94.42Z" fill="#212832"/>
<rect x="0.5" y="65.5" width="616" height="49" stroke="black" stroke-opacity="0.5"/>
<rect y="179" width="617" height="50" fill="white"/>
<path d="M24.6 207.44C26.08 207.44 27.24 206.3 27.24 204.84C27.24 203.36 26.08 202.22 24.6 202.22C23.16 202.22 22 203.36 22 204.84C22 206.3 23.16 207.44 24.6 207.44ZM45.6689 197.6H41.1289V211.5H45.6689C50.1289 211.5 53.0489 208.88 53.0489 204.6C53.0489 200.3 50.1289 197.6 45.6689 197.6ZM43.4089 209.64V199.46H45.6689C48.9489 199.46 50.7089 201.42 50.7089 204.6C50.7089 207.76 48.9489 209.64 45.6689 209.64H43.4089ZM59.9486 202.22C61.6486 202.22 62.9886 203.3 63.0286 205H56.9286C57.1686 203.26 58.4086 202.22 59.9486 202.22ZM65.1086 208.22H62.6486C62.2286 209.08 61.4486 209.76 60.0486 209.76C58.3686 209.76 57.0686 208.66 56.9086 206.84H65.3286C65.3886 206.46 65.4086 206.1 65.4086 205.72C65.4086 202.48 63.1886 200.3 60.0486 200.3C56.7886 200.3 54.5486 202.52 54.5486 205.98C54.5486 209.44 56.8886 211.68 60.0486 211.68C62.7486 211.68 64.4886 210.14 65.1086 208.22ZM75.8723 208.42C75.7523 204.44 69.5323 205.68 69.5323 203.46C69.5323 202.72 70.1723 202.22 71.3923 202.22C72.6323 202.22 73.3723 202.88 73.4523 203.84H75.7323C75.6123 201.64 73.9723 200.3 71.4723 200.3C68.8723 200.3 67.2323 201.72 67.2323 203.48C67.2323 207.52 73.6323 206.28 73.6323 208.44C73.6323 209.2 72.9323 209.76 71.6123 209.76C70.3523 209.76 69.4923 209.02 69.4123 208.12H67.0523C67.1523 210.12 69.0123 211.68 71.6523 211.68C74.2523 211.68 75.8723 210.28 75.8723 208.42ZM78.3359 211.5H80.6159V200.48H78.3359V211.5ZM79.4959 199.02C80.2959 199.02 80.9359 198.38 80.9359 197.56C80.9359 196.74 80.2959 196.1 79.4959 196.1C78.6759 196.1 78.0359 196.74 78.0359 197.56C78.0359 198.38 78.6759 199.02 79.4959 199.02ZM82.8494 205.94C82.8494 209.34 85.1494 211.68 88.0494 211.68C89.8494 211.68 91.1694 210.78 91.8694 209.84V211.68C91.8694 213.88 90.5494 214.96 88.7894 214.96C87.2094 214.96 85.9894 214.18 85.6494 213.04H83.3894C83.6694 215.48 85.8494 216.94 88.7894 216.94C92.2294 216.94 94.1694 214.68 94.1694 211.68V200.48H91.8694V202.08C91.1894 201.14 89.8494 200.3 88.0494 200.3C85.1494 200.3 82.8494 202.54 82.8494 205.94ZM91.8694 205.98C91.8694 208.36 90.2494 209.7 88.5294 209.7C86.8294 209.7 85.1894 208.32 85.1894 205.94C85.1894 203.56 86.8294 202.28 88.5294 202.28C90.2494 202.28 91.8694 203.62 91.8694 205.98ZM104.984 211.5H107.244V205C107.244 201.92 105.304 200.3 102.724 200.3C101.404 200.3 100.184 200.84 99.4441 201.74V200.48H97.1641V211.5H99.4441V205.34C99.4441 203.32 100.544 202.28 102.224 202.28C103.884 202.28 104.984 203.32 104.984 205.34V211.5ZM119.783 205.94C119.783 209.34 122.083 211.68 124.943 211.68C126.783 211.68 128.103 210.8 128.803 209.86V211.5H131.103V200.48H128.803V202.08C128.123 201.18 126.843 200.3 124.983 200.3C122.083 200.3 119.783 202.54 119.783 205.94ZM128.803 205.98C128.803 208.36 127.183 209.7 125.463 209.7C123.763 209.7 122.123 208.32 122.123 205.94C122.123 203.56 123.763 202.28 125.463 202.28C127.183 202.28 128.803 203.62 128.803 205.98ZM141.918 211.5H144.178V205C144.178 201.92 142.238 200.3 139.658 200.3C138.338 200.3 137.118 200.84 136.378 201.74V200.48H134.098V211.5H136.378V205.34C136.378 203.32 137.478 202.28 139.158 202.28C140.818 202.28 141.918 203.32 141.918 205.34V211.5ZM146.326 205.94C146.326 209.34 148.626 211.68 151.526 211.68C153.326 211.68 154.646 210.84 155.346 209.84V211.5H157.646V196.7H155.346V202.02C154.506 200.98 152.986 200.3 151.546 200.3C148.626 200.3 146.326 202.54 146.326 205.94ZM155.346 205.98C155.346 208.36 153.726 209.7 152.006 209.7C150.306 209.7 148.666 208.32 148.666 205.94C148.666 203.56 150.306 202.28 152.006 202.28C153.726 202.28 155.346 203.62 155.346 205.98ZM175.216 211.5H177.616L172.636 197.58H169.996L165.016 211.5H167.396L168.396 208.66H174.216L175.216 211.5ZM173.576 206.8H169.036L171.316 200.34L173.576 206.8ZM187.601 211.5H189.861V205C189.861 201.92 187.921 200.3 185.341 200.3C184.021 200.3 182.801 200.84 182.061 201.74V200.48H179.781V211.5H182.061V205.34C182.061 203.32 183.161 202.28 184.841 202.28C186.501 202.28 187.601 203.32 187.601 205.34V211.5ZM192.01 205.94C192.01 209.34 194.31 211.68 197.17 211.68C199.01 211.68 200.33 210.8 201.03 209.86V211.5H203.33V200.48H201.03V202.08C200.35 201.18 199.07 200.3 197.21 200.3C194.31 200.3 192.01 202.54 192.01 205.94ZM201.03 205.98C201.03 208.36 199.41 209.7 197.69 209.7C195.99 209.7 194.35 208.32 194.35 205.94C194.35 203.56 195.99 202.28 197.69 202.28C199.41 202.28 201.03 203.62 201.03 205.98ZM206.324 211.5H208.604V196.7H206.324V211.5ZM215.938 208.88L212.838 200.48H210.298L214.638 211.32L212.398 216.68H214.758L221.518 200.48H219.158L215.938 208.88ZM231.458 208.42C231.338 204.44 225.118 205.68 225.118 203.46C225.118 202.72 225.758 202.22 226.978 202.22C228.218 202.22 228.958 202.88 229.038 203.84H231.318C231.198 201.64 229.558 200.3 227.058 200.3C224.458 200.3 222.818 201.72 222.818 203.48C222.818 207.52 229.218 206.28 229.218 208.44C229.218 209.2 228.518 209.76 227.198 209.76C225.938 209.76 225.078 209.02 224.998 208.12H222.638C222.738 210.12 224.598 211.68 227.238 211.68C229.838 211.68 231.458 210.28 231.458 208.42ZM233.922 211.5H236.202V200.48H233.922V211.5ZM235.082 199.02C235.882 199.02 236.522 198.38 236.522 197.56C236.522 196.74 235.882 196.1 235.082 196.1C234.262 196.1 233.622 196.74 233.622 197.56C233.622 198.38 234.262 199.02 235.082 199.02ZM247.415 208.42C247.295 204.44 241.075 205.68 241.075 203.46C241.075 202.72 241.715 202.22 242.935 202.22C244.175 202.22 244.915 202.88 244.995 203.84H247.275C247.155 201.64 245.515 200.3 243.015 200.3C240.415 200.3 238.775 201.72 238.775 203.48C238.775 207.52 245.175 206.28 245.175 208.44C245.175 209.2 244.475 209.76 243.155 209.76C241.895 209.76 241.035 209.02 240.955 208.12H238.595C238.695 210.12 240.555 211.68 243.195 211.68C245.795 211.68 247.415 210.28 247.415 208.42ZM255.074 211.5H257.354V200.48H255.074V211.5ZM256.234 199.02C257.034 199.02 257.674 198.38 257.674 197.56C257.674 196.74 257.034 196.1 256.234 196.1C255.414 196.1 254.774 196.74 254.774 197.56C254.774 198.38 255.414 199.02 256.234 199.02ZM268.168 211.5H270.428V205C270.428 201.92 268.488 200.3 265.908 200.3C264.588 200.3 263.368 200.84 262.628 201.74V200.48H260.348V211.5H262.628V205.34C262.628 203.32 263.728 202.28 265.408 202.28C267.068 202.28 268.168 203.32 268.168 205.34V211.5ZM287.911 211.5H290.311L285.331 197.58H282.691L277.711 211.5H280.091L281.091 208.66H286.911L287.911 211.5ZM286.271 206.8H281.731L284.011 200.34L286.271 206.8ZM292.477 211.5H294.757V196.7H292.477V211.5ZM296.99 205.94C296.99 209.34 299.29 211.68 302.19 211.68C303.99 211.68 305.31 210.78 306.01 209.84V211.68C306.01 213.88 304.69 214.96 302.93 214.96C301.35 214.96 300.13 214.18 299.79 213.04H297.53C297.81 215.48 299.99 216.94 302.93 216.94C306.37 216.94 308.31 214.68 308.31 211.68V200.48H306.01V202.08C305.33 201.14 303.99 200.3 302.19 200.3C299.29 200.3 296.99 202.54 296.99 205.94ZM306.01 205.98C306.01 208.36 304.39 209.7 302.67 209.7C300.97 209.7 299.33 208.32 299.33 205.94C299.33 203.56 300.97 202.28 302.67 202.28C304.39 202.28 306.01 203.62 306.01 205.98ZM321.805 205.98C321.805 202.52 319.325 200.3 316.185 200.3C313.045 200.3 310.565 202.52 310.565 205.98C310.565 209.44 312.945 211.68 316.085 211.68C319.245 211.68 321.805 209.44 321.805 205.98ZM312.885 205.98C312.885 203.48 314.425 202.28 316.145 202.28C317.845 202.28 319.465 203.48 319.465 205.98C319.465 208.48 317.785 209.7 316.085 209.7C314.365 209.7 312.885 208.48 312.885 205.98ZM326.339 205.7C326.339 203.36 327.379 202.66 329.059 202.66H329.639V200.3C328.079 200.3 326.979 200.98 326.339 202.08V200.48H324.059V211.5H326.339V205.7ZM331.734 211.5H334.014V200.48H331.734V211.5ZM332.894 199.02C333.694 199.02 334.334 198.38 334.334 197.56C334.334 196.74 333.694 196.1 332.894 196.1C332.074 196.1 331.434 196.74 331.434 197.56C331.434 198.38 332.074 199.02 332.894 199.02ZM337.368 208.44C337.368 210.68 338.588 211.5 340.548 211.5H342.348V209.6H340.948C339.988 209.6 339.668 209.26 339.668 208.44V202.34H342.348V200.48H339.668V197.74H337.368V200.48H336.068V202.34H337.368V208.44ZM344.449 211.5H346.729V205.34C346.729 203.32 347.829 202.28 349.509 202.28C351.169 202.28 352.269 203.32 352.269 205.34V211.5H354.529V205C354.529 201.92 352.609 200.3 350.149 200.3C348.729 200.3 347.489 200.84 346.729 201.76V196.7H344.449V211.5ZM373.058 211.5H375.318V205C375.318 201.92 373.358 200.3 370.778 200.3C369.178 200.3 367.618 201.14 366.938 202.48C366.178 201.04 364.718 200.3 362.978 200.3C361.658 200.3 360.458 200.84 359.718 201.74V200.48H357.438V211.5H359.718V205.34C359.718 203.32 360.818 202.28 362.498 202.28C364.158 202.28 365.258 203.32 365.258 205.34V211.5H367.518V205.34C367.518 203.32 368.618 202.28 370.298 202.28C371.958 202.28 373.058 203.32 373.058 205.34V211.5Z" fill="#212832"/>
<rect x="0.5" y="179.5" width="616" height="49" stroke="black" stroke-opacity="0.5"/>
<rect y="122" width="617" height="50" fill="white"/>
<path d="M24.6 150.44C26.08 150.44 27.24 149.3 27.24 147.84C27.24 146.36 26.08 145.22 24.6 145.22C23.16 145.22 22 146.36 22 147.84C22 149.3 23.16 150.44 24.6 150.44ZM41.1289 154.5H43.4089V148.42H48.0089V146.56H43.4089V142.46H49.3089V140.6H41.1289V154.5ZM61.4019 143.48H59.1219V149.62C59.1219 151.64 58.0219 152.68 56.3419 152.68C54.6819 152.68 53.5819 151.64 53.5819 149.62V143.48H51.3219V149.96C51.3219 153.04 53.2819 154.66 55.8619 154.66C57.1619 154.66 58.4019 154.12 59.1219 153.18V154.5H61.4019V143.48ZM72.2302 154.5H74.4902V148C74.4902 144.92 72.5502 143.3 69.9702 143.3C68.6502 143.3 67.4302 143.84 66.6902 144.74V143.48H64.4102V154.5H66.6902V148.34C66.6902 146.32 67.7902 145.28 69.4702 145.28C71.1302 145.28 72.2302 146.32 72.2302 148.34V154.5ZM76.6384 148.94C76.6384 152.34 78.9384 154.68 81.8384 154.68C83.6384 154.68 84.9584 153.84 85.6584 152.84V154.5H87.9584V139.7H85.6584V145.02C84.8184 143.98 83.2984 143.3 81.8584 143.3C78.9384 143.3 76.6384 145.54 76.6384 148.94ZM85.6584 148.98C85.6584 151.36 84.0384 152.7 82.3184 152.7C80.6184 152.7 78.9784 151.32 78.9784 148.94C78.9784 146.56 80.6184 145.28 82.3184 145.28C84.0384 145.28 85.6584 146.62 85.6584 148.98ZM90.1931 148.94C90.1931 152.34 92.4931 154.68 95.3531 154.68C97.1931 154.68 98.5131 153.8 99.2131 152.86V154.5H101.513V143.48H99.2131V145.08C98.5331 144.18 97.2531 143.3 95.3931 143.3C92.4931 143.3 90.1931 145.54 90.1931 148.94ZM99.2131 148.98C99.2131 151.36 97.5931 152.7 95.8731 152.7C94.1731 152.7 92.5331 151.32 92.5331 148.94C92.5331 146.56 94.1731 145.28 95.8731 145.28C97.5931 145.28 99.2131 146.62 99.2131 148.98ZM120.128 154.5H122.388V148C122.388 144.92 120.428 143.3 117.848 143.3C116.248 143.3 114.688 144.14 114.008 145.48C113.248 144.04 111.788 143.3 110.048 143.3C108.728 143.3 107.528 143.84 106.788 144.74V143.48H104.508V154.5H106.788V148.34C106.788 146.32 107.888 145.28 109.568 145.28C111.228 145.28 112.328 146.32 112.328 148.34V154.5H114.588V148.34C114.588 146.32 115.688 145.28 117.368 145.28C119.028 145.28 120.128 146.32 120.128 148.34V154.5ZM129.929 145.22C131.629 145.22 132.969 146.3 133.009 148H126.909C127.149 146.26 128.389 145.22 129.929 145.22ZM135.089 151.22H132.629C132.209 152.08 131.429 152.76 130.029 152.76C128.349 152.76 127.049 151.66 126.889 149.84H135.309C135.369 149.46 135.389 149.1 135.389 148.72C135.389 145.48 133.169 143.3 130.029 143.3C126.769 143.3 124.529 145.52 124.529 148.98C124.529 152.44 126.869 154.68 130.029 154.68C132.729 154.68 134.469 153.14 135.089 151.22ZM145.453 154.5H147.713V148C147.713 144.92 145.773 143.3 143.193 143.3C141.873 143.3 140.653 143.84 139.913 144.74V143.48H137.633V154.5H139.913V148.34C139.913 146.32 141.013 145.28 142.693 145.28C144.353 145.28 145.453 146.32 145.453 148.34V154.5ZM150.981 151.44C150.981 153.68 152.201 154.5 154.161 154.5H155.961V152.6H154.561C153.601 152.6 153.281 152.26 153.281 151.44V145.34H155.961V143.48H153.281V140.74H150.981V143.48H149.681V145.34H150.981V151.44ZM157.303 148.94C157.303 152.34 159.603 154.68 162.463 154.68C164.303 154.68 165.623 153.8 166.323 152.86V154.5H168.623V143.48H166.323V145.08C165.643 144.18 164.363 143.3 162.503 143.3C159.603 143.3 157.303 145.54 157.303 148.94ZM166.323 148.98C166.323 151.36 164.703 152.7 162.983 152.7C161.283 152.7 159.643 151.32 159.643 148.94C159.643 146.56 161.283 145.28 162.983 145.28C164.703 145.28 166.323 146.62 166.323 148.98ZM171.617 154.5H173.897V139.7H171.617V154.5ZM185.111 151.42C184.991 147.44 178.771 148.68 178.771 146.46C178.771 145.72 179.411 145.22 180.631 145.22C181.871 145.22 182.611 145.88 182.691 146.84H184.971C184.851 144.64 183.211 143.3 180.711 143.3C178.111 143.3 176.471 144.72 176.471 146.48C176.471 150.52 182.871 149.28 182.871 151.44C182.871 152.2 182.171 152.76 180.851 152.76C179.591 152.76 178.731 152.02 178.651 151.12H176.291C176.391 153.12 178.251 154.68 180.891 154.68C183.491 154.68 185.111 153.28 185.111 151.42ZM203.27 148.98C203.27 145.52 200.79 143.3 197.65 143.3C194.51 143.3 192.03 145.52 192.03 148.98C192.03 152.44 194.41 154.68 197.55 154.68C200.71 154.68 203.27 152.44 203.27 148.98ZM194.35 148.98C194.35 146.48 195.89 145.28 197.61 145.28C199.31 145.28 200.93 146.48 200.93 148.98C200.93 151.48 199.25 152.7 197.55 152.7C195.83 152.7 194.35 151.48 194.35 148.98ZM205.803 154.5H208.103V145.34H210.143V143.48H208.103V142.7C208.103 141.44 208.583 140.96 209.983 140.96V139.06C207.103 139.06 205.803 140.16 205.803 142.7V143.48H204.503V145.34H205.803V154.5ZM216.599 147.52C216.599 151.7 219.779 154.62 223.699 154.62C226.599 154.62 229.099 153.18 230.159 150.46H227.419C226.679 151.94 225.359 152.64 223.699 152.64C220.939 152.64 218.939 150.66 218.939 147.52C218.939 144.38 220.939 142.42 223.699 142.42C225.359 142.42 226.679 143.12 227.419 144.6H230.159C229.099 141.88 226.599 140.42 223.699 140.42C219.779 140.42 216.599 143.36 216.599 147.52ZM232.828 154.5H235.108V139.7H232.828V154.5ZM248.602 148.98C248.602 145.52 246.122 143.3 242.982 143.3C239.842 143.3 237.362 145.52 237.362 148.98C237.362 152.44 239.742 154.68 242.882 154.68C246.042 154.68 248.602 152.44 248.602 148.98ZM239.682 148.98C239.682 146.48 241.222 145.28 242.942 145.28C244.642 145.28 246.262 146.48 246.262 148.98C246.262 151.48 244.582 152.7 242.882 152.7C241.162 152.7 239.682 151.48 239.682 148.98ZM260.835 143.48H258.555V149.62C258.555 151.64 257.455 152.68 255.775 152.68C254.115 152.68 253.015 151.64 253.015 149.62V143.48H250.755V149.96C250.755 153.04 252.715 154.66 255.295 154.66C256.595 154.66 257.835 154.12 258.555 153.18V154.5H260.835V143.48ZM263.084 148.94C263.084 152.34 265.384 154.68 268.284 154.68C270.084 154.68 271.404 153.84 272.104 152.84V154.5H274.404V139.7H272.104V145.02C271.264 143.98 269.744 143.3 268.304 143.3C265.384 143.3 263.084 145.54 263.084 148.94ZM272.104 148.98C272.104 151.36 270.484 152.7 268.764 152.7C267.064 152.7 265.424 151.32 265.424 148.94C265.424 146.56 267.064 145.28 268.764 145.28C270.484 145.28 272.104 146.62 272.104 148.98ZM281.834 147.52C281.834 151.7 285.014 154.62 288.934 154.62C291.834 154.62 294.334 153.18 295.394 150.46H292.654C291.914 151.94 290.594 152.64 288.934 152.64C286.174 152.64 284.174 150.66 284.174 147.52C284.174 144.38 286.174 142.42 288.934 142.42C290.594 142.42 291.914 143.12 292.654 144.6H295.394C294.334 141.88 291.834 140.42 288.934 140.42C285.014 140.42 281.834 143.36 281.834 147.52ZM308.563 148.98C308.563 145.52 306.083 143.3 302.943 143.3C299.803 143.3 297.323 145.52 297.323 148.98C297.323 152.44 299.703 154.68 302.843 154.68C306.003 154.68 308.563 152.44 308.563 148.98ZM299.643 148.98C299.643 146.48 301.183 145.28 302.903 145.28C304.603 145.28 306.223 146.48 306.223 148.98C306.223 151.48 304.543 152.7 302.843 152.7C301.123 152.7 299.643 151.48 299.643 148.98ZM326.436 154.5H328.696V148C328.696 144.92 326.736 143.3 324.156 143.3C322.556 143.3 320.996 144.14 320.316 145.48C319.556 144.04 318.096 143.3 316.356 143.3C315.036 143.3 313.836 143.84 313.096 144.74V143.48H310.816V154.5H313.096V148.34C313.096 146.32 314.196 145.28 315.876 145.28C317.536 145.28 318.636 146.32 318.636 148.34V154.5H320.896V148.34C320.896 146.32 321.996 145.28 323.676 145.28C325.336 145.28 326.436 146.32 326.436 148.34V154.5ZM333.878 145.1V143.48H331.598V159.74H333.878V152.9C334.598 153.76 335.898 154.68 337.718 154.68C340.618 154.68 342.898 152.34 342.898 148.94C342.898 145.54 340.618 143.3 337.718 143.3C335.918 143.3 334.578 144.18 333.878 145.1ZM340.578 148.94C340.578 151.32 338.938 152.7 337.218 152.7C335.518 152.7 333.878 151.36 333.878 148.98C333.878 146.62 335.518 145.28 337.218 145.28C338.938 145.28 340.578 146.56 340.578 148.94ZM355.132 143.48H352.852V149.62C352.852 151.64 351.752 152.68 350.072 152.68C348.412 152.68 347.312 151.64 347.312 149.62V143.48H345.052V149.96C345.052 153.04 347.012 154.66 349.592 154.66C350.892 154.66 352.132 154.12 352.852 153.18V154.5H355.132V143.48ZM358.501 151.44C358.501 153.68 359.721 154.5 361.681 154.5H363.481V152.6H362.081C361.121 152.6 360.801 152.26 360.801 151.44V145.34H363.481V143.48H360.801V140.74H358.501V143.48H357.201V145.34H358.501V151.44ZM365.582 154.5H367.862V143.48H365.582V154.5ZM366.742 142.02C367.542 142.02 368.182 141.38 368.182 140.56C368.182 139.74 367.542 139.1 366.742 139.1C365.922 139.1 365.282 139.74 365.282 140.56C365.282 141.38 365.922 142.02 366.742 142.02ZM378.675 154.5H380.935V148C380.935 144.92 378.995 143.3 376.415 143.3C375.095 143.3 373.875 143.84 373.135 144.74V143.48H370.855V154.5H373.135V148.34C373.135 146.32 374.235 145.28 375.915 145.28C377.575 145.28 378.675 146.32 378.675 148.34V154.5ZM383.084 148.94C383.084 152.34 385.384 154.68 388.284 154.68C390.084 154.68 391.404 153.78 392.104 152.84V154.68C392.104 156.88 390.784 157.96 389.024 157.96C387.444 157.96 386.224 157.18 385.884 156.04H383.624C383.904 158.48 386.084 159.94 389.024 159.94C392.464 159.94 394.404 157.68 394.404 154.68V143.48H392.104V145.08C391.424 144.14 390.084 143.3 388.284 143.3C385.384 143.3 383.084 145.54 383.084 148.94ZM392.104 148.98C392.104 151.36 390.484 152.7 388.764 152.7C387.064 152.7 385.424 151.32 385.424 148.94C385.424 146.56 387.064 145.28 388.764 145.28C390.484 145.28 392.104 146.62 392.104 148.98Z" fill="#212832"/>
<rect x="0.5" y="122.5" width="616" height="49" stroke="black" stroke-opacity="0.5"/>
<rect y="236" width="617" height="50" fill="white"/>
<path d="M24.6 264.44C26.08 264.44 27.24 263.3 27.24 261.84C27.24 260.36 26.08 259.22 24.6 259.22C23.16 259.22 22 260.36 22 261.84C22 263.3 23.16 264.44 24.6 264.44ZM40.3689 261.52C40.3689 265.7 43.5489 268.62 47.4689 268.62C50.3689 268.62 52.8689 267.18 53.9289 264.46H51.1889C50.4489 265.94 49.1289 266.64 47.4689 266.64C44.7089 266.64 42.7089 264.66 42.7089 261.52C42.7089 258.38 44.7089 256.42 47.4689 256.42C49.1289 256.42 50.4489 257.12 51.1889 258.6H53.9289C52.8689 255.88 50.3689 254.42 47.4689 254.42C43.5489 254.42 40.3689 257.36 40.3689 261.52ZM60.9377 265.88L57.8377 257.48H55.2977L59.6377 268.32L57.3977 273.68H59.7577L66.5177 257.48H64.1577L60.9377 265.88ZM70.5183 259.12V253.7H68.2383V268.5H70.5183V266.9C71.2383 267.86 72.5383 268.68 74.3583 268.68C77.2583 268.68 79.5383 266.34 79.5383 262.94C79.5383 259.54 77.2783 257.3 74.3583 257.3C72.6183 257.3 71.2383 258.12 70.5183 259.12ZM77.2183 262.94C77.2183 265.32 75.5783 266.7 73.8583 266.7C72.1583 266.7 70.5183 265.36 70.5183 262.98C70.5183 260.62 72.1583 259.28 73.8583 259.28C75.5783 259.28 77.2183 260.56 77.2183 262.94ZM86.433 259.22C88.133 259.22 89.473 260.3 89.513 262H83.413C83.653 260.26 84.893 259.22 86.433 259.22ZM91.593 265.22H89.133C88.713 266.08 87.933 266.76 86.533 266.76C84.853 266.76 83.553 265.66 83.393 263.84H91.813C91.873 263.46 91.893 263.1 91.893 262.72C91.893 259.48 89.673 257.3 86.533 257.3C83.273 257.3 81.033 259.52 81.033 262.98C81.033 266.44 83.373 268.68 86.533 268.68C89.233 268.68 90.973 267.14 91.593 265.22ZM96.4167 262.7C96.4167 260.36 97.4567 259.66 99.1367 259.66H99.7167V257.3C98.1567 257.3 97.0567 257.98 96.4167 259.08V257.48H94.1367V268.5H96.4167V262.7ZM116.388 264.56C116.388 259.48 109.028 261.44 109.028 258.3C109.028 256.96 110.048 256.32 111.368 256.36C112.808 256.4 113.628 257.26 113.708 258.2H116.228C116.028 255.82 114.148 254.42 111.488 254.42C108.648 254.42 106.708 255.94 106.708 258.38C106.708 263.5 114.088 261.32 114.088 264.68C114.088 265.86 113.188 266.72 111.588 266.72C110.008 266.72 109.208 265.8 109.108 264.66H106.668C106.668 267.12 108.808 268.64 111.588 268.64C114.688 268.64 116.388 266.64 116.388 264.56ZM123.718 259.22C125.418 259.22 126.758 260.3 126.798 262H120.698C120.938 260.26 122.178 259.22 123.718 259.22ZM128.878 265.22H126.418C125.998 266.08 125.218 266.76 123.818 266.76C122.138 266.76 120.838 265.66 120.678 263.84H129.098C129.158 263.46 129.178 263.1 129.178 262.72C129.178 259.48 126.958 257.3 123.818 257.3C120.558 257.3 118.318 259.52 118.318 262.98C118.318 266.44 120.658 268.68 123.818 268.68C126.518 268.68 128.258 267.14 128.878 265.22ZM130.662 262.98C130.662 266.44 132.902 268.68 136.062 268.68C138.762 268.68 140.522 267.18 141.142 265.02H138.682C138.262 266.16 137.422 266.76 136.062 266.76C134.222 266.76 133.002 265.4 133.002 262.98C133.002 260.58 134.222 259.22 136.062 259.22C137.422 259.22 138.302 259.9 138.682 260.96H141.142C140.522 258.64 138.762 257.3 136.062 257.3C132.902 257.3 130.662 259.54 130.662 262.98ZM153.394 257.48H151.114V263.62C151.114 265.64 150.014 266.68 148.334 266.68C146.674 266.68 145.574 265.64 145.574 263.62V257.48H143.314V263.96C143.314 267.04 145.274 268.66 147.854 268.66C149.154 268.66 150.394 268.12 151.114 267.18V268.5H153.394V257.48ZM158.682 262.7C158.682 260.36 159.722 259.66 161.402 259.66H161.982V257.3C160.422 257.3 159.322 257.98 158.682 259.08V257.48H156.402V268.5H158.682V262.7ZM164.078 268.5H166.358V257.48H164.078V268.5ZM165.238 256.02C166.038 256.02 166.678 255.38 166.678 254.56C166.678 253.74 166.038 253.1 165.238 253.1C164.418 253.1 163.778 253.74 163.778 254.56C163.778 255.38 164.418 256.02 165.238 256.02ZM169.712 265.44C169.712 267.68 170.932 268.5 172.892 268.5H174.692V266.6H173.292C172.332 266.6 172.012 266.26 172.012 265.44V259.34H174.692V257.48H172.012V254.74H169.712V257.48H168.412V259.34H169.712V265.44ZM181.133 265.88L178.033 257.48H175.493L179.833 268.32L177.593 273.68H179.953L186.713 257.48H184.353L181.133 265.88ZM190.794 267.18C190.794 266.36 190.154 265.72 189.354 265.72C188.534 265.72 187.894 266.36 187.894 267.18C187.894 268 188.534 268.64 189.354 268.64C190.154 268.64 190.794 268 190.794 267.18ZM190.794 258.78C190.794 257.96 190.154 257.32 189.354 257.32C188.534 257.32 187.894 257.96 187.894 258.78C187.894 259.6 188.534 260.24 189.354 260.24C190.154 260.24 190.794 259.6 190.794 258.78ZM197.771 261.52C197.771 265.7 200.951 268.62 204.871 268.62C207.771 268.62 210.271 267.18 211.331 264.46H208.591C207.851 265.94 206.531 266.64 204.871 266.64C202.111 266.64 200.111 264.66 200.111 261.52C200.111 258.38 202.111 256.42 204.871 256.42C206.531 256.42 207.851 257.12 208.591 258.6H211.331C210.271 255.88 207.771 254.42 204.871 254.42C200.951 254.42 197.771 257.36 197.771 261.52ZM224.5 262.98C224.5 259.52 222.02 257.3 218.88 257.3C215.74 257.3 213.26 259.52 213.26 262.98C213.26 266.44 215.64 268.68 218.78 268.68C221.94 268.68 224.5 266.44 224.5 262.98ZM215.58 262.98C215.58 260.48 217.12 259.28 218.84 259.28C220.54 259.28 222.16 260.48 222.16 262.98C222.16 265.48 220.48 266.7 218.78 266.7C217.06 266.7 215.58 265.48 215.58 262.98ZM234.574 268.5H236.834V262C236.834 258.92 234.894 257.3 232.314 257.3C230.994 257.3 229.774 257.84 229.034 258.74V257.48H226.754V268.5H229.034V262.34C229.034 260.32 230.134 259.28 231.814 259.28C233.474 259.28 234.574 260.32 234.574 262.34V268.5ZM238.982 262.98C238.982 266.44 241.222 268.68 244.382 268.68C247.082 268.68 248.842 267.18 249.462 265.02H247.002C246.582 266.16 245.742 266.76 244.382 266.76C242.542 266.76 241.322 265.4 241.322 262.98C241.322 260.58 242.542 259.22 244.382 259.22C245.742 259.22 246.622 259.9 247.002 260.96H249.462C248.842 258.64 247.082 257.3 244.382 257.3C241.222 257.3 238.982 259.54 238.982 262.98ZM256.374 259.22C258.074 259.22 259.414 260.3 259.454 262H253.354C253.594 260.26 254.834 259.22 256.374 259.22ZM261.534 265.22H259.074C258.654 266.08 257.874 266.76 256.474 266.76C254.794 266.76 253.494 265.66 253.334 263.84H261.754C261.814 263.46 261.834 263.1 261.834 262.72C261.834 259.48 259.614 257.3 256.474 257.3C253.214 257.3 250.974 259.52 250.974 262.98C250.974 266.44 253.314 268.68 256.474 268.68C259.174 268.68 260.914 267.14 261.534 265.22ZM266.358 259.1V257.48H264.078V273.74H266.358V266.9C267.078 267.76 268.378 268.68 270.198 268.68C273.098 268.68 275.378 266.34 275.378 262.94C275.378 259.54 273.098 257.3 270.198 257.3C268.398 257.3 267.058 258.18 266.358 259.1ZM273.058 262.94C273.058 265.32 271.418 266.7 269.698 266.7C267.998 266.7 266.358 265.36 266.358 262.98C266.358 260.62 267.998 259.28 269.698 259.28C271.418 259.28 273.058 260.56 273.058 262.94ZM277.993 265.44C277.993 267.68 279.213 268.5 281.173 268.5H282.973V266.6H281.573C280.613 266.6 280.293 266.26 280.293 265.44V259.34H282.973V257.48H280.293V254.74H277.993V257.48H276.693V259.34H277.993V265.44ZM293.294 265.42C293.174 261.44 286.954 262.68 286.954 260.46C286.954 259.72 287.594 259.22 288.814 259.22C290.054 259.22 290.794 259.88 290.874 260.84H293.154C293.034 258.64 291.394 257.3 288.894 257.3C286.294 257.3 284.654 258.72 284.654 260.48C284.654 264.52 291.054 263.28 291.054 265.44C291.054 266.2 290.354 266.76 289.034 266.76C287.774 266.76 286.914 266.02 286.834 265.12H284.474C284.574 267.12 286.434 268.68 289.074 268.68C291.674 268.68 293.294 267.28 293.294 265.42ZM300.193 262.94C300.193 266.34 302.493 268.68 305.353 268.68C307.193 268.68 308.513 267.8 309.213 266.86V268.5H311.513V257.48H309.213V259.08C308.533 258.18 307.253 257.3 305.393 257.3C302.493 257.3 300.193 259.54 300.193 262.94ZM309.213 262.98C309.213 265.36 307.593 266.7 305.873 266.7C304.173 266.7 302.533 265.32 302.533 262.94C302.533 260.56 304.173 259.28 305.873 259.28C307.593 259.28 309.213 260.62 309.213 262.98ZM322.328 268.5H324.588V262C324.588 258.92 322.648 257.3 320.068 257.3C318.748 257.3 317.528 257.84 316.788 258.74V257.48H314.508V268.5H316.788V262.34C316.788 260.32 317.888 259.28 319.568 259.28C321.228 259.28 322.328 260.32 322.328 262.34V268.5ZM326.736 262.94C326.736 266.34 329.036 268.68 331.936 268.68C333.736 268.68 335.056 267.84 335.756 266.84V268.5H338.056V253.7H335.756V259.02C334.916 257.98 333.396 257.3 331.956 257.3C329.036 257.3 326.736 259.54 326.736 262.94ZM335.756 262.98C335.756 265.36 334.136 266.7 332.416 266.7C330.716 266.7 329.076 265.32 329.076 262.94C329.076 260.56 330.716 259.28 332.416 259.28C334.136 259.28 335.756 260.62 335.756 262.98ZM348.526 261V256.46H351.046C352.826 256.46 353.626 257.3 353.626 258.74C353.626 260.14 352.826 261 351.046 261H348.526ZM355.966 258.74C355.966 256.48 354.346 254.6 351.046 254.6H346.246V268.5H348.526V262.86H351.046C354.666 262.86 355.966 260.72 355.966 258.74ZM360.421 262.7C360.421 260.36 361.461 259.66 363.141 259.66H363.721V257.3C362.161 257.3 361.061 257.98 360.421 259.08V257.48H358.141V268.5H360.421V262.7ZM365.056 262.94C365.056 266.34 367.356 268.68 370.216 268.68C372.056 268.68 373.376 267.8 374.076 266.86V268.5H376.376V257.48H374.076V259.08C373.396 258.18 372.116 257.3 370.256 257.3C367.356 257.3 365.056 259.54 365.056 262.94ZM374.076 262.98C374.076 265.36 372.456 266.7 370.736 266.7C369.036 266.7 367.396 265.32 367.396 262.94C367.396 260.56 369.036 259.28 370.736 259.28C372.456 259.28 374.076 260.62 374.076 262.98ZM378.611 262.98C378.611 266.44 380.851 268.68 384.011 268.68C386.711 268.68 388.471 267.18 389.091 265.02H386.631C386.211 266.16 385.371 266.76 384.011 266.76C382.171 266.76 380.951 265.4 380.951 262.98C380.951 260.58 382.171 259.22 384.011 259.22C385.371 259.22 386.251 259.9 386.631 260.96H389.091C388.471 258.64 386.711 257.3 384.011 257.3C380.851 257.3 378.611 259.54 378.611 262.98ZM391.723 265.44C391.723 267.68 392.943 268.5 394.903 268.5H396.703V266.6H395.303C394.343 266.6 394.023 266.26 394.023 265.44V259.34H396.703V257.48H394.023V254.74H391.723V257.48H390.423V259.34H391.723V265.44ZM398.805 268.5H401.085V257.48H398.805V268.5ZM399.965 256.02C400.765 256.02 401.405 255.38 401.405 254.56C401.405 253.74 400.765 253.1 399.965 253.1C399.145 253.1 398.505 253.74 398.505 254.56C398.505 255.38 399.145 256.02 399.965 256.02ZM403.318 262.98C403.318 266.44 405.558 268.68 408.718 268.68C411.418 268.68 413.178 267.18 413.798 265.02H411.338C410.918 266.16 410.078 266.76 408.718 266.76C406.878 266.76 405.658 265.4 405.658 262.98C405.658 260.58 406.878 259.22 408.718 259.22C410.078 259.22 410.958 259.9 411.338 260.96H413.798C413.178 258.64 411.418 257.3 408.718 257.3C405.558 257.3 403.318 259.54 403.318 262.98ZM420.71 259.22C422.41 259.22 423.75 260.3 423.79 262H417.69C417.93 260.26 419.17 259.22 420.71 259.22ZM425.87 265.22H423.41C422.99 266.08 422.21 266.76 420.81 266.76C419.13 266.76 417.83 265.66 417.67 263.84H426.09C426.15 263.46 426.17 263.1 426.17 262.72C426.17 259.48 423.95 257.3 420.81 257.3C417.55 257.3 415.31 259.52 415.31 262.98C415.31 266.44 417.65 268.68 420.81 268.68C423.51 268.68 425.25 267.14 425.87 265.22ZM436.634 265.42C436.514 261.44 430.294 262.68 430.294 260.46C430.294 259.72 430.934 259.22 432.154 259.22C433.394 259.22 434.134 259.88 434.214 260.84H436.494C436.374 258.64 434.734 257.3 432.234 257.3C429.634 257.3 427.994 258.72 427.994 260.48C427.994 264.52 434.394 263.28 434.394 265.44C434.394 266.2 433.694 266.76 432.374 266.76C431.114 266.76 430.254 266.02 430.174 265.12H427.814C427.914 267.12 429.774 268.68 432.414 268.68C435.014 268.68 436.634 267.28 436.634 265.42Z" fill="#212832"/>
<rect x="0.5" y="236.5" width="616" height="49" stroke="black" stroke-opacity="0.5"/>
<rect y="293" width="617" height="50" fill="white"/>
<path d="M24.6 321.44C26.08 321.44 27.24 320.3 27.24 318.84C27.24 317.36 26.08 316.22 24.6 316.22C23.16 316.22 22 317.36 22 318.84C22 320.3 23.16 321.44 24.6 321.44ZM48.5089 315.76C48.5089 317.14 47.7089 318.12 45.9289 318.12H43.4089V313.46H45.9289C47.7089 313.46 48.5089 314.36 48.5089 315.76ZM41.1289 311.6V325.5H43.4089V319.94H45.1489L48.3489 325.5H51.0689L47.6289 319.74C49.9689 319.16 50.8489 317.4 50.8489 315.76C50.8489 313.5 49.2289 311.6 45.9289 311.6H41.1289ZM58.4056 316.22C60.1056 316.22 61.4456 317.3 61.4856 319H55.3856C55.6256 317.26 56.8656 316.22 58.4056 316.22ZM63.5656 322.22H61.1056C60.6856 323.08 59.9056 323.76 58.5056 323.76C56.8256 323.76 55.5256 322.66 55.3656 320.84H63.7856C63.8456 320.46 63.8656 320.1 63.8656 319.72C63.8656 316.48 61.6456 314.3 58.5056 314.3C55.2456 314.3 53.0056 316.52 53.0056 319.98C53.0056 323.44 55.3456 325.68 58.5056 325.68C61.2056 325.68 62.9456 324.14 63.5656 322.22ZM66.1094 325.5H68.3894V310.7H66.1094V325.5ZM70.6228 319.94C70.6228 323.34 72.9228 325.68 75.7828 325.68C77.6228 325.68 78.9428 324.8 79.6428 323.86V325.5H81.9428V314.48H79.6428V316.08C78.9628 315.18 77.6828 314.3 75.8228 314.3C72.9228 314.3 70.6228 316.54 70.6228 319.94ZM79.6428 319.98C79.6428 322.36 78.0228 323.7 76.3028 323.7C74.6028 323.7 72.9628 322.32 72.9628 319.94C72.9628 317.56 74.6028 316.28 76.3028 316.28C78.0228 316.28 79.6428 317.62 79.6428 319.98ZM85.2975 322.44C85.2975 324.68 86.5175 325.5 88.4775 325.5H90.2775V323.6H88.8775C87.9175 323.6 87.5975 323.26 87.5975 322.44V316.34H90.2775V314.48H87.5975V311.74H85.2975V314.48H83.9975V316.34H85.2975V322.44ZM92.3789 325.5H94.6589V314.48H92.3789V325.5ZM93.5389 313.02C94.3389 313.02 94.9789 312.38 94.9789 311.56C94.9789 310.74 94.3389 310.1 93.5389 310.1C92.7189 310.1 92.0789 310.74 92.0789 311.56C92.0789 312.38 92.7189 313.02 93.5389 313.02ZM108.152 319.98C108.152 316.52 105.672 314.3 102.532 314.3C99.3923 314.3 96.9123 316.52 96.9123 319.98C96.9123 323.44 99.2923 325.68 102.432 325.68C105.592 325.68 108.152 323.44 108.152 319.98ZM99.2323 319.98C99.2323 317.48 100.772 316.28 102.492 316.28C104.192 316.28 105.812 317.48 105.812 319.98C105.812 322.48 104.132 323.7 102.432 323.7C100.712 323.7 99.2323 322.48 99.2323 319.98ZM118.226 325.5H120.486V319C120.486 315.92 118.546 314.3 115.966 314.3C114.646 314.3 113.426 314.84 112.686 315.74V314.48H110.406V325.5H112.686V319.34C112.686 317.32 113.786 316.28 115.466 316.28C117.126 316.28 118.226 317.32 118.226 319.34V325.5ZM122.635 319.94C122.635 323.34 124.935 325.68 127.795 325.68C129.635 325.68 130.955 324.8 131.655 323.86V325.5H133.955V314.48H131.655V316.08C130.975 315.18 129.695 314.3 127.835 314.3C124.935 314.3 122.635 316.54 122.635 319.94ZM131.655 319.98C131.655 322.36 130.035 323.7 128.315 323.7C126.615 323.7 124.975 322.32 124.975 319.94C124.975 317.56 126.615 316.28 128.315 316.28C130.035 316.28 131.655 317.62 131.655 319.98ZM136.949 325.5H139.229V310.7H136.949V325.5ZM151.958 311.6H147.418V325.5H151.958C156.418 325.5 159.338 322.88 159.338 318.6C159.338 314.3 156.418 311.6 151.958 311.6ZM149.698 323.64V313.46H151.958C155.238 313.46 156.998 315.42 156.998 318.6C156.998 321.76 155.238 323.64 151.958 323.64H149.698ZM160.838 319.94C160.838 323.34 163.138 325.68 165.998 325.68C167.838 325.68 169.158 324.8 169.858 323.86V325.5H172.158V314.48H169.858V316.08C169.178 315.18 167.898 314.3 166.038 314.3C163.138 314.3 160.838 316.54 160.838 319.94ZM169.858 319.98C169.858 322.36 168.238 323.7 166.518 323.7C164.818 323.7 163.178 322.32 163.178 319.94C163.178 317.56 164.818 316.28 166.518 316.28C168.238 316.28 169.858 317.62 169.858 319.98ZM175.512 322.44C175.512 324.68 176.732 325.5 178.692 325.5H180.492V323.6H179.092C178.132 323.6 177.812 323.26 177.812 322.44V316.34H180.492V314.48H177.812V311.74H175.512V314.48H174.212V316.34H175.512V322.44ZM181.834 319.94C181.834 323.34 184.134 325.68 186.994 325.68C188.834 325.68 190.154 324.8 190.854 323.86V325.5H193.154V314.48H190.854V316.08C190.174 315.18 188.894 314.3 187.034 314.3C184.134 314.3 181.834 316.54 181.834 319.94ZM190.854 319.98C190.854 322.36 189.234 323.7 187.514 323.7C185.814 323.7 184.174 322.32 184.174 319.94C184.174 317.56 185.814 316.28 187.514 316.28C189.234 316.28 190.854 317.62 190.854 319.98ZM198.428 316.12V310.7H196.148V325.5H198.428V323.9C199.148 324.86 200.448 325.68 202.268 325.68C205.168 325.68 207.448 323.34 207.448 319.94C207.448 316.54 205.188 314.3 202.268 314.3C200.528 314.3 199.148 315.12 198.428 316.12ZM205.128 319.94C205.128 322.32 203.488 323.7 201.768 323.7C200.068 323.7 198.428 322.36 198.428 319.98C198.428 317.62 200.068 316.28 201.768 316.28C203.488 316.28 205.128 317.56 205.128 319.94ZM208.943 319.94C208.943 323.34 211.243 325.68 214.103 325.68C215.943 325.68 217.263 324.8 217.963 323.86V325.5H220.263V314.48H217.963V316.08C217.283 315.18 216.003 314.3 214.143 314.3C211.243 314.3 208.943 316.54 208.943 319.94ZM217.963 319.98C217.963 322.36 216.343 323.7 214.623 323.7C212.923 323.7 211.283 322.32 211.283 319.94C211.283 317.56 212.923 316.28 214.623 316.28C216.343 316.28 217.963 317.62 217.963 319.98ZM231.478 322.42C231.358 318.44 225.138 319.68 225.138 317.46C225.138 316.72 225.778 316.22 226.998 316.22C228.238 316.22 228.978 316.88 229.058 317.84H231.338C231.218 315.64 229.578 314.3 227.078 314.3C224.478 314.3 222.838 315.72 222.838 317.48C222.838 321.52 229.238 320.28 229.238 322.44C229.238 323.2 228.538 323.76 227.218 323.76C225.958 323.76 225.098 323.02 225.018 322.12H222.658C222.758 324.12 224.618 325.68 227.258 325.68C229.858 325.68 231.478 324.28 231.478 322.42ZM238.581 316.22C240.281 316.22 241.621 317.3 241.661 319H235.561C235.801 317.26 237.041 316.22 238.581 316.22ZM243.741 322.22H241.281C240.861 323.08 240.081 323.76 238.681 323.76C237.001 323.76 235.701 322.66 235.541 320.84H243.961C244.021 320.46 244.041 320.1 244.041 319.72C244.041 316.48 241.821 314.3 238.681 314.3C235.421 314.3 233.181 316.52 233.181 319.98C233.181 323.44 235.521 325.68 238.681 325.68C241.381 325.68 243.121 324.14 243.741 322.22Z" fill="#212832"/>
<rect x="0.5" y="293.5" width="616" height="49" stroke="black" stroke-opacity="0.5"/>
<rect width="617" height="58" fill="#3498DB"/>
<path d="M33.925 32.95C33.925 26.8 24.975 28.75 24.975 25.25C24.975 23.825 26 23.15 27.375 23.2C28.875 23.225 29.8 24.125 29.875 25.275H33.725C33.5 22.125 31.05 20.3 27.475 20.3C23.875 20.3 21.325 22.2 21.325 25.35C21.3 31.675 30.3 29.4 30.3 33.175C30.3 34.425 29.325 35.3 27.675 35.3C26.05 35.3 25.125 34.375 25.025 32.975H21.275C21.325 36.275 24.125 38.175 27.75 38.175C31.725 38.175 33.925 35.7 33.925 32.95ZM43.4094 26.8C45.2094 26.8 46.6594 27.95 46.7094 29.775H40.1344C40.4094 27.875 41.7344 26.8 43.4094 26.8ZM49.9844 33.65H46.2094C45.7594 34.575 44.9344 35.325 43.4344 35.325C41.6844 35.325 40.2844 34.175 40.1094 32.125H50.2344C50.3094 31.675 50.3344 31.225 50.3344 30.775C50.3344 26.65 47.5094 23.925 43.5094 23.925C39.4094 23.925 36.5594 26.7 36.5594 31.075C36.5594 35.425 39.4844 38.225 43.5094 38.225C46.9344 38.225 49.2344 36.2 49.9844 33.65ZM72.7641 38H76.2641V29.875C76.2641 26.05 73.9141 23.95 70.5891 23.95C68.5641 23.95 66.7391 25.025 65.8391 26.6C64.8891 24.875 63.1141 23.95 60.9641 23.95C59.2391 23.95 57.7641 24.675 56.8891 25.825V24.15H53.3891V38H56.8891V30.35C56.8891 28.15 58.1141 27 60.0141 27C61.8641 27 63.0891 28.15 63.0891 30.35V38H66.5891V30.35C66.5891 28.15 67.8141 27 69.6891 27C71.5391 27 72.7641 28.15 72.7641 30.35V38ZM86.0354 26.8C87.8354 26.8 89.2854 27.95 89.3354 29.775H82.7604C83.0354 27.875 84.3604 26.8 86.0354 26.8ZM92.6104 33.65H88.8354C88.3854 34.575 87.5604 35.325 86.0604 35.325C84.3104 35.325 82.9104 34.175 82.7354 32.125H92.8604C92.9354 31.675 92.9604 31.225 92.9604 30.775C92.9604 26.65 90.1354 23.925 86.1354 23.925C82.0354 23.925 79.1854 26.7 79.1854 31.075C79.1854 35.425 82.1104 38.225 86.1354 38.225C89.5604 38.225 91.8604 36.2 92.6104 33.65ZM106.765 34.05C106.665 28.975 98.99 30.55 98.99 28.025C98.99 27.225 99.665 26.7 100.965 26.7C102.34 26.7 103.19 27.425 103.29 28.5H106.64C106.44 25.75 104.415 23.925 101.065 23.925C97.64 23.925 95.59 25.775 95.59 28.075C95.59 33.15 103.415 31.575 103.415 34.05C103.415 34.85 102.665 35.475 101.29 35.475C99.89 35.475 98.915 34.675 98.79 33.625H95.265C95.415 36.2 97.84 38.225 101.315 38.225C104.69 38.225 106.765 36.425 106.765 34.05ZM110.688 33.7C110.688 36.875 112.463 38 115.113 38H117.313V35.05H115.688C114.588 35.05 114.213 34.65 114.213 33.725V27.025H117.313V24.15H114.213V20.725H110.688V24.15H109.038V27.025H110.688V33.7ZM126.28 26.8C128.08 26.8 129.53 27.95 129.58 29.775H123.005C123.28 27.875 124.605 26.8 126.28 26.8ZM132.855 33.65H129.08C128.63 34.575 127.805 35.325 126.305 35.325C124.555 35.325 123.155 34.175 122.98 32.125H133.105C133.18 31.675 133.205 31.225 133.205 30.775C133.205 26.65 130.38 23.925 126.38 23.925C122.28 23.925 119.43 26.7 119.43 31.075C119.43 35.425 122.355 38.225 126.38 38.225C129.805 38.225 132.105 36.2 132.855 33.65ZM139.76 31.1C139.76 28.425 141.01 27.625 143.085 27.625H144.01V23.95C142.085 23.95 140.635 24.875 139.76 26.3V24.15H136.26V38H139.76V31.1ZM152.725 37.75H165.075V34.85H157.7C160.6 32.4 164.675 29.1 164.675 24.875C164.675 21.7 162.7 19.375 158.775 19.375C155.5 19.375 152.825 21.3 152.7 25.475H156.1C156.125 23.55 157.05 22.35 158.725 22.35C160.45 22.35 161.175 23.45 161.175 25.075C161.175 28.425 156.85 31.65 152.725 35.15V37.75Z" fill="white"/>
</svg>
