<svg width="617" height="343" viewBox="0 0 617 343" fill="none" xmlns="http://www.w3.org/2000/svg">
<rect width="617" height="58" fill="#3498DB"/>
<path d="M33.925 32.95C33.925 26.8 24.975 28.75 24.975 25.25C24.975 23.825 26 23.15 27.375 23.2C28.875 23.225 29.8 24.125 29.875 25.275H33.725C33.5 22.125 31.05 20.3 27.475 20.3C23.875 20.3 21.325 22.2 21.325 25.35C21.3 31.675 30.3 29.4 30.3 33.175C30.3 34.425 29.325 35.3 27.675 35.3C26.05 35.3 25.125 34.375 25.025 32.975H21.275C21.325 36.275 24.125 38.175 27.75 38.175C31.725 38.175 33.925 35.7 33.925 32.95ZM43.4094 26.8C45.2094 26.8 46.6594 27.95 46.7094 29.775H40.1344C40.4094 27.875 41.7344 26.8 43.4094 26.8ZM49.9844 33.65H46.2094C45.7594 34.575 44.9344 35.325 43.4344 35.325C41.6844 35.325 40.2844 34.175 40.1094 32.125H50.2344C50.3094 31.675 50.3344 31.225 50.3344 30.775C50.3344 26.65 47.5094 23.925 43.5094 23.925C39.4094 23.925 36.5594 26.7 36.5594 31.075C36.5594 35.425 39.4844 38.225 43.5094 38.225C46.9344 38.225 49.2344 36.2 49.9844 33.65ZM72.7641 38H76.2641V29.875C76.2641 26.05 73.9141 23.95 70.5891 23.95C68.5641 23.95 66.7391 25.025 65.8391 26.6C64.8891 24.875 63.1141 23.95 60.9641 23.95C59.2391 23.95 57.7641 24.675 56.8891 25.825V24.15H53.3891V38H56.8891V30.35C56.8891 28.15 58.1141 27 60.0141 27C61.8641 27 63.0891 28.15 63.0891 30.35V38H66.5891V30.35C66.5891 28.15 67.8141 27 69.6891 27C71.5391 27 72.7641 28.15 72.7641 30.35V38ZM86.0354 26.8C87.8354 26.8 89.2854 27.95 89.3354 29.775H82.7604C83.0354 27.875 84.3604 26.8 86.0354 26.8ZM92.6104 33.65H88.8354C88.3854 34.575 87.5604 35.325 86.0604 35.325C84.3104 35.325 82.9104 34.175 82.7354 32.125H92.8604C92.9354 31.675 92.9604 31.225 92.9604 30.775C92.9604 26.65 90.1354 23.925 86.1354 23.925C82.0354 23.925 79.1854 26.7 79.1854 31.075C79.1854 35.425 82.1104 38.225 86.1354 38.225C89.5604 38.225 91.8604 36.2 92.6104 33.65ZM106.765 34.05C106.665 28.975 98.99 30.55 98.99 28.025C98.99 27.225 99.665 26.7 100.965 26.7C102.34 26.7 103.19 27.425 103.29 28.5H106.64C106.44 25.75 104.415 23.925 101.065 23.925C97.64 23.925 95.59 25.775 95.59 28.075C95.59 33.15 103.415 31.575 103.415 34.05C103.415 34.85 102.665 35.475 101.29 35.475C99.89 35.475 98.915 34.675 98.79 33.625H95.265C95.415 36.2 97.84 38.225 101.315 38.225C104.69 38.225 106.765 36.425 106.765 34.05ZM110.688 33.7C110.688 36.875 112.463 38 115.113 38H117.313V35.05H115.688C114.588 35.05 114.213 34.65 114.213 33.725V27.025H117.313V24.15H114.213V20.725H110.688V24.15H109.038V27.025H110.688V33.7ZM126.28 26.8C128.08 26.8 129.53 27.95 129.58 29.775H123.005C123.28 27.875 124.605 26.8 126.28 26.8ZM132.855 33.65H129.08C128.63 34.575 127.805 35.325 126.305 35.325C124.555 35.325 123.155 34.175 122.98 32.125H133.105C133.18 31.675 133.205 31.225 133.205 30.775C133.205 26.65 130.38 23.925 126.38 23.925C122.28 23.925 119.43 26.7 119.43 31.075C119.43 35.425 122.355 38.225 126.38 38.225C129.805 38.225 132.105 36.2 132.855 33.65ZM139.76 31.1C139.76 28.425 141.01 27.625 143.085 27.625H144.01V23.95C142.085 23.95 140.635 24.875 139.76 26.3V24.15H136.26V38H139.76V31.1ZM154.925 38H158.525V19.775H152.5V23H154.925V38Z" fill="white"/>
<rect y="65" width="617" height="50" fill="white"/>
<path d="M24.6 93.44C26.08 93.44 27.24 92.3 27.24 90.84C27.24 89.36 26.08 88.22 24.6 88.22C23.16 88.22 22 89.36 22 90.84C22 92.3 23.16 93.44 24.6 93.44ZM41.1289 97.5H43.4089V87.98L47.6689 97.5H49.2489L53.4889 87.98V97.5H55.7689V83.6H53.3289L48.4689 94.5L43.5889 83.6H41.1289V97.5ZM58.0056 91.94C58.0056 95.34 60.3056 97.68 63.1656 97.68C65.0056 97.68 66.3256 96.8 67.0256 95.86V97.5H69.3256V86.48H67.0256V88.08C66.3456 87.18 65.0656 86.3 63.2056 86.3C60.3056 86.3 58.0056 88.54 58.0056 91.94ZM67.0256 91.98C67.0256 94.36 65.4056 95.7 63.6856 95.7C61.9856 95.7 60.3456 94.32 60.3456 91.94C60.3456 89.56 61.9856 88.28 63.6856 88.28C65.4056 88.28 67.0256 89.62 67.0256 91.98ZM72.6803 94.44C72.6803 96.68 73.9003 97.5 75.8603 97.5H77.6603V95.6H76.2603C75.3003 95.6 74.9803 95.26 74.9803 94.44V88.34H77.6603V86.48H74.9803V83.74H72.6803V86.48H71.3803V88.34H72.6803V94.44ZM79.7617 97.5H82.0417V91.34C82.0417 89.32 83.1417 88.28 84.8217 88.28C86.4817 88.28 87.5817 89.32 87.5817 91.34V97.5H89.8417V91C89.8417 87.92 87.9217 86.3 85.4617 86.3C84.0417 86.3 82.8017 86.84 82.0417 87.76V82.7H79.7617V97.5ZM97.39 88.22C99.09 88.22 100.43 89.3 100.47 91H94.37C94.61 89.26 95.85 88.22 97.39 88.22ZM102.55 94.22H100.09C99.67 95.08 98.89 95.76 97.49 95.76C95.81 95.76 94.51 94.66 94.35 92.84H102.77C102.83 92.46 102.85 92.1 102.85 91.72C102.85 88.48 100.63 86.3 97.49 86.3C94.23 86.3 91.99 88.52 91.99 91.98C91.99 95.44 94.33 97.68 97.49 97.68C100.19 97.68 101.93 96.14 102.55 94.22ZM120.714 97.5H122.974V91C122.974 87.92 121.014 86.3 118.434 86.3C116.834 86.3 115.274 87.14 114.594 88.48C113.834 87.04 112.374 86.3 110.634 86.3C109.314 86.3 108.114 86.84 107.374 87.74V86.48H105.094V97.5H107.374V91.34C107.374 89.32 108.474 88.28 110.154 88.28C111.814 88.28 112.914 89.32 112.914 91.34V97.5H115.174V91.34C115.174 89.32 116.274 88.28 117.954 88.28C119.614 88.28 120.714 89.32 120.714 91.34V97.5ZM125.115 91.94C125.115 95.34 127.415 97.68 130.275 97.68C132.115 97.68 133.435 96.8 134.135 95.86V97.5H136.435V86.48H134.135V88.08C133.455 87.18 132.175 86.3 130.315 86.3C127.415 86.3 125.115 88.54 125.115 91.94ZM134.135 91.98C134.135 94.36 132.515 95.7 130.795 95.7C129.095 95.7 127.455 94.32 127.455 91.94C127.455 89.56 129.095 88.28 130.795 88.28C132.515 88.28 134.135 89.62 134.135 91.98ZM139.79 94.44C139.79 96.68 141.01 97.5 142.97 97.5H144.77V95.6H143.37C142.41 95.6 142.09 95.26 142.09 94.44V88.34H144.77V86.48H142.09V83.74H139.79V86.48H138.49V88.34H139.79V94.44ZM146.871 97.5H149.151V86.48H146.871V97.5ZM148.031 85.02C148.831 85.02 149.471 84.38 149.471 83.56C149.471 82.74 148.831 82.1 148.031 82.1C147.211 82.1 146.571 82.74 146.571 83.56C146.571 84.38 147.211 85.02 148.031 85.02ZM151.385 91.98C151.385 95.44 153.625 97.68 156.785 97.68C159.485 97.68 161.245 96.18 161.865 94.02H159.405C158.985 95.16 158.145 95.76 156.785 95.76C154.945 95.76 153.725 94.4 153.725 91.98C153.725 89.58 154.945 88.22 156.785 88.22C158.145 88.22 159.025 88.9 159.405 89.96H161.865C161.245 87.64 159.485 86.3 156.785 86.3C153.625 86.3 151.385 88.54 151.385 91.98ZM163.377 91.94C163.377 95.34 165.677 97.68 168.537 97.68C170.377 97.68 171.697 96.8 172.397 95.86V97.5H174.697V86.48H172.397V88.08C171.717 87.18 170.437 86.3 168.577 86.3C165.677 86.3 163.377 88.54 163.377 91.94ZM172.397 91.98C172.397 94.36 170.777 95.7 169.057 95.7C167.357 95.7 165.717 94.32 165.717 91.94C165.717 89.56 167.357 88.28 169.057 88.28C170.777 88.28 172.397 89.62 172.397 91.98ZM177.691 97.5H179.971V82.7H177.691V97.5ZM188.16 97.5H190.44V91.42H195.04V89.56H190.44V85.46H196.34V83.6H188.16V97.5ZM208.953 91.98C208.953 88.52 206.473 86.3 203.333 86.3C200.193 86.3 197.713 88.52 197.713 91.98C197.713 95.44 200.093 97.68 203.233 97.68C206.393 97.68 208.953 95.44 208.953 91.98ZM200.033 91.98C200.033 89.48 201.573 88.28 203.293 88.28C204.993 88.28 206.613 89.48 206.613 91.98C206.613 94.48 204.933 95.7 203.233 95.7C201.513 95.7 200.033 94.48 200.033 91.98ZM221.187 86.48H218.907V92.62C218.907 94.64 217.807 95.68 216.127 95.68C214.467 95.68 213.367 94.64 213.367 92.62V86.48H211.107V92.96C211.107 96.04 213.067 97.66 215.647 97.66C216.947 97.66 218.187 97.12 218.907 96.18V97.5H221.187V86.48ZM232.015 97.5H234.275V91C234.275 87.92 232.335 86.3 229.755 86.3C228.435 86.3 227.215 86.84 226.475 87.74V86.48H224.195V97.5H226.475V91.34C226.475 89.32 227.575 88.28 229.255 88.28C230.915 88.28 232.015 89.32 232.015 91.34V97.5ZM236.424 91.94C236.424 95.34 238.724 97.68 241.624 97.68C243.424 97.68 244.744 96.84 245.444 95.84V97.5H247.744V82.7H245.444V88.02C244.604 86.98 243.084 86.3 241.644 86.3C238.724 86.3 236.424 88.54 236.424 91.94ZM245.444 91.98C245.444 94.36 243.824 95.7 242.104 95.7C240.404 95.7 238.764 94.32 238.764 91.94C238.764 89.56 240.404 88.28 242.104 88.28C243.824 88.28 245.444 89.62 245.444 91.98ZM249.978 91.94C249.978 95.34 252.278 97.68 255.138 97.68C256.978 97.68 258.298 96.8 258.998 95.86V97.5H261.298V86.48H258.998V88.08C258.318 87.18 257.038 86.3 255.178 86.3C252.278 86.3 249.978 88.54 249.978 91.94ZM258.998 91.98C258.998 94.36 257.378 95.7 255.658 95.7C253.958 95.7 252.318 94.32 252.318 91.94C252.318 89.56 253.958 88.28 255.658 88.28C257.378 88.28 258.998 89.62 258.998 91.98ZM264.653 94.44C264.653 96.68 265.873 97.5 267.833 97.5H269.633V95.6H268.233C267.273 95.6 266.953 95.26 266.953 94.44V88.34H269.633V86.48H266.953V83.74H264.653V86.48H263.353V88.34H264.653V94.44ZM271.734 97.5H274.014V86.48H271.734V97.5ZM272.894 85.02C273.694 85.02 274.334 84.38 274.334 83.56C274.334 82.74 273.694 82.1 272.894 82.1C272.074 82.1 271.434 82.74 271.434 83.56C271.434 84.38 272.074 85.02 272.894 85.02ZM287.508 91.98C287.508 88.52 285.028 86.3 281.888 86.3C278.748 86.3 276.268 88.52 276.268 91.98C276.268 95.44 278.648 97.68 281.788 97.68C284.948 97.68 287.508 95.44 287.508 91.98ZM278.588 91.98C278.588 89.48 280.128 88.28 281.848 88.28C283.548 88.28 285.168 89.48 285.168 91.98C285.168 94.48 283.488 95.7 281.788 95.7C280.068 95.7 278.588 94.48 278.588 91.98ZM297.582 97.5H299.842V91C299.842 87.92 297.902 86.3 295.322 86.3C294.002 86.3 292.782 86.84 292.042 87.74V86.48H289.762V97.5H292.042V91.34C292.042 89.32 293.142 88.28 294.822 88.28C296.482 88.28 297.582 89.32 297.582 91.34V97.5ZM308.225 97.5H310.525V88.34H312.565V86.48H310.525V85.7C310.525 84.44 311.005 83.96 312.405 83.96V82.06C309.525 82.06 308.225 83.16 308.225 85.7V86.48H306.925V88.34H308.225V97.5ZM325.086 91.98C325.086 88.52 322.606 86.3 319.466 86.3C316.326 86.3 313.846 88.52 313.846 91.98C313.846 95.44 316.226 97.68 319.366 97.68C322.526 97.68 325.086 95.44 325.086 91.98ZM316.166 91.98C316.166 89.48 317.706 88.28 319.426 88.28C321.126 88.28 322.746 89.48 322.746 91.98C322.746 94.48 321.066 95.7 319.366 95.7C317.646 95.7 316.166 94.48 316.166 91.98ZM329.62 91.7C329.62 89.36 330.66 88.66 332.34 88.66H332.92V86.3C331.36 86.3 330.26 86.98 329.62 88.08V86.48H327.34V97.5H329.62V91.7ZM339.451 90.52C339.451 94.7 342.631 97.62 346.551 97.62C349.451 97.62 351.951 96.18 353.011 93.46H350.271C349.531 94.94 348.211 95.64 346.551 95.64C343.791 95.64 341.791 93.66 341.791 90.52C341.791 87.38 343.791 85.42 346.551 85.42C348.211 85.42 349.531 86.12 350.271 87.6H353.011C351.951 84.88 349.451 83.42 346.551 83.42C342.631 83.42 339.451 86.36 339.451 90.52ZM366.18 91.98C366.18 88.52 363.7 86.3 360.56 86.3C357.42 86.3 354.94 88.52 354.94 91.98C354.94 95.44 357.32 97.68 360.46 97.68C363.62 97.68 366.18 95.44 366.18 91.98ZM357.26 91.98C357.26 89.48 358.8 88.28 360.52 88.28C362.22 88.28 363.84 89.48 363.84 91.98C363.84 94.48 362.16 95.7 360.46 95.7C358.74 95.7 357.26 94.48 357.26 91.98ZM384.054 97.5H386.314V91C386.314 87.92 384.354 86.3 381.774 86.3C380.174 86.3 378.614 87.14 377.934 88.48C377.174 87.04 375.714 86.3 373.974 86.3C372.654 86.3 371.454 86.84 370.714 87.74V86.48H368.434V97.5H370.714V91.34C370.714 89.32 371.814 88.28 373.494 88.28C375.154 88.28 376.254 89.32 376.254 91.34V97.5H378.514V91.34C378.514 89.32 379.614 88.28 381.294 88.28C382.954 88.28 384.054 89.32 384.054 91.34V97.5ZM391.495 88.1V86.48H389.215V102.74H391.495V95.9C392.215 96.76 393.515 97.68 395.335 97.68C398.235 97.68 400.515 95.34 400.515 91.94C400.515 88.54 398.235 86.3 395.335 86.3C393.535 86.3 392.195 87.18 391.495 88.1ZM398.195 91.94C398.195 94.32 396.555 95.7 394.835 95.7C393.135 95.7 391.495 94.36 391.495 91.98C391.495 89.62 393.135 88.28 394.835 88.28C396.555 88.28 398.195 89.56 398.195 91.94ZM412.75 86.48H410.47V92.62C410.47 94.64 409.37 95.68 407.69 95.68C406.03 95.68 404.93 94.64 404.93 92.62V86.48H402.67V92.96C402.67 96.04 404.63 97.66 407.21 97.66C408.51 97.66 409.75 97.12 410.47 96.18V97.5H412.75V86.48ZM416.118 94.44C416.118 96.68 417.338 97.5 419.298 97.5H421.098V95.6H419.698C418.738 95.6 418.418 95.26 418.418 94.44V88.34H421.098V86.48H418.418V83.74H416.118V86.48H414.818V88.34H416.118V94.44ZM427.839 88.22C429.539 88.22 430.879 89.3 430.919 91H424.819C425.059 89.26 426.299 88.22 427.839 88.22ZM432.999 94.22H430.539C430.119 95.08 429.339 95.76 427.939 95.76C426.259 95.76 424.959 94.66 424.799 92.84H433.219C433.279 92.46 433.299 92.1 433.299 91.72C433.299 88.48 431.079 86.3 427.939 86.3C424.679 86.3 422.439 88.52 422.439 91.98C422.439 95.44 424.779 97.68 427.939 97.68C430.639 97.68 432.379 96.14 432.999 94.22ZM437.823 91.7C437.823 89.36 438.863 88.66 440.543 88.66H441.123V86.3C439.563 86.3 438.463 86.98 437.823 88.08V86.48H435.543V97.5H437.823V91.7ZM457.794 97.5H460.194L455.214 83.58H452.574L447.594 97.5H449.974L450.974 94.66H456.794L457.794 97.5ZM456.154 92.8H451.614L453.894 86.34L456.154 92.8ZM464.639 88.1V86.48H462.359V102.74H464.639V95.9C465.359 96.76 466.659 97.68 468.479 97.68C471.379 97.68 473.659 95.34 473.659 91.94C473.659 88.54 471.379 86.3 468.479 86.3C466.679 86.3 465.339 87.18 464.639 88.1ZM471.339 91.94C471.339 94.32 469.699 95.7 467.979 95.7C466.279 95.7 464.639 94.36 464.639 91.98C464.639 89.62 466.279 88.28 467.979 88.28C469.699 88.28 471.339 89.56 471.339 91.94ZM478.194 88.1V86.48H475.914V102.74H478.194V95.9C478.914 96.76 480.214 97.68 482.034 97.68C484.934 97.68 487.214 95.34 487.214 91.94C487.214 88.54 484.934 86.3 482.034 86.3C480.234 86.3 478.894 87.18 478.194 88.1ZM484.894 91.94C484.894 94.32 483.254 95.7 481.534 95.7C479.834 95.7 478.194 94.36 478.194 91.98C478.194 89.62 479.834 88.28 481.534 88.28C483.254 88.28 484.894 89.56 484.894 91.94ZM489.469 97.5H491.749V82.7H489.469V97.5ZM494.742 97.5H497.022V86.48H494.742V97.5ZM495.902 85.02C496.702 85.02 497.342 84.38 497.342 83.56C497.342 82.74 496.702 82.1 495.902 82.1C495.082 82.1 494.442 82.74 494.442 83.56C494.442 84.38 495.082 85.02 495.902 85.02ZM499.256 91.98C499.256 95.44 501.496 97.68 504.656 97.68C507.356 97.68 509.116 96.18 509.736 94.02H507.276C506.856 95.16 506.016 95.76 504.656 95.76C502.816 95.76 501.596 94.4 501.596 91.98C501.596 89.58 502.816 88.22 504.656 88.22C506.016 88.22 506.896 88.9 507.276 89.96H509.736C509.116 87.64 507.356 86.3 504.656 86.3C501.496 86.3 499.256 88.54 499.256 91.98ZM511.248 91.94C511.248 95.34 513.548 97.68 516.408 97.68C518.248 97.68 519.568 96.8 520.268 95.86V97.5H522.568V86.48H520.268V88.08C519.588 87.18 518.308 86.3 516.448 86.3C513.548 86.3 511.248 88.54 511.248 91.94ZM520.268 91.98C520.268 94.36 518.648 95.7 516.928 95.7C515.228 95.7 513.588 94.32 513.588 91.94C513.588 89.56 515.228 88.28 516.928 88.28C518.648 88.28 520.268 89.62 520.268 91.98ZM525.923 94.44C525.923 96.68 527.143 97.5 529.103 97.5H530.903V95.6H529.503C528.543 95.6 528.223 95.26 528.223 94.44V88.34H530.903V86.48H528.223V83.74H525.923V86.48H524.623V88.34H525.923V94.44ZM533.004 97.5H535.284V86.48H533.004V97.5ZM534.164 85.02C534.964 85.02 535.604 84.38 535.604 83.56C535.604 82.74 534.964 82.1 534.164 82.1C533.344 82.1 532.704 82.74 532.704 83.56C532.704 84.38 533.344 85.02 534.164 85.02ZM548.777 91.98C548.777 88.52 546.297 86.3 543.157 86.3C540.017 86.3 537.537 88.52 537.537 91.98C537.537 95.44 539.917 97.68 543.057 97.68C546.217 97.68 548.777 95.44 548.777 91.98ZM539.857 91.98C539.857 89.48 541.397 88.28 543.117 88.28C544.817 88.28 546.437 89.48 546.437 91.98C546.437 94.48 544.757 95.7 543.057 95.7C541.337 95.7 539.857 94.48 539.857 91.98ZM558.851 97.5H561.111V91C561.111 87.92 559.171 86.3 556.591 86.3C555.271 86.3 554.051 86.84 553.311 87.74V86.48H551.031V97.5H553.311V91.34C553.311 89.32 554.411 88.28 556.091 88.28C557.751 88.28 558.851 89.32 558.851 91.34V97.5Z" fill="#212832"/>
<rect x="0.5" y="65.5" width="616" height="49" stroke="black" stroke-opacity="0.5"/>
<rect y="179" width="617" height="50" fill="white"/>
<path d="M24.6 207.44C26.08 207.44 27.24 206.3 27.24 204.84C27.24 203.36 26.08 202.22 24.6 202.22C23.16 202.22 22 203.36 22 204.84C22 206.3 23.16 207.44 24.6 207.44ZM45.6689 197.6H41.1289V211.5H45.6689C50.1289 211.5 53.0489 208.88 53.0489 204.6C53.0489 200.3 50.1289 197.6 45.6689 197.6ZM43.4089 209.64V199.46H45.6689C48.9489 199.46 50.7089 201.42 50.7089 204.6C50.7089 207.76 48.9489 209.64 45.6689 209.64H43.4089ZM54.5486 205.94C54.5486 209.34 56.8486 211.68 59.7086 211.68C61.5486 211.68 62.8686 210.8 63.5686 209.86V211.5H65.8686V200.48H63.5686V202.08C62.8886 201.18 61.6086 200.3 59.7486 200.3C56.8486 200.3 54.5486 202.54 54.5486 205.94ZM63.5686 205.98C63.5686 208.36 61.9486 209.7 60.2286 209.7C58.5286 209.7 56.8886 208.32 56.8886 205.94C56.8886 203.56 58.5286 202.28 60.2286 202.28C61.9486 202.28 63.5686 203.62 63.5686 205.98ZM69.2233 208.44C69.2233 210.68 70.4433 211.5 72.4033 211.5H74.2033V209.6H72.8033C71.8433 209.6 71.5233 209.26 71.5233 208.44V202.34H74.2033V200.48H71.5233V197.74H69.2233V200.48H67.9233V202.34H69.2233V208.44ZM75.5447 205.94C75.5447 209.34 77.8447 211.68 80.7047 211.68C82.5447 211.68 83.8647 210.8 84.5647 209.86V211.5H86.8647V200.48H84.5647V202.08C83.8847 201.18 82.6047 200.3 80.7447 200.3C77.8447 200.3 75.5447 202.54 75.5447 205.94ZM84.5647 205.98C84.5647 208.36 82.9447 209.7 81.2247 209.7C79.5247 209.7 77.8847 208.32 77.8847 205.94C77.8847 203.56 79.5247 202.28 81.2247 202.28C82.9447 202.28 84.5647 203.62 84.5647 205.98ZM104.435 207.56C104.435 202.48 97.0747 204.44 97.0747 201.3C97.0747 199.96 98.0947 199.32 99.4147 199.36C100.855 199.4 101.675 200.26 101.755 201.2H104.275C104.075 198.82 102.195 197.42 99.5347 197.42C96.6947 197.42 94.7547 198.94 94.7547 201.38C94.7547 206.5 102.135 204.32 102.135 207.68C102.135 208.86 101.235 209.72 99.6347 209.72C98.0547 209.72 97.2547 208.8 97.1547 207.66H94.7147C94.7147 210.12 96.8547 211.64 99.6347 211.64C102.735 211.64 104.435 209.64 104.435 207.56ZM107.485 208.44C107.485 210.68 108.705 211.5 110.665 211.5H112.465V209.6H111.065C110.105 209.6 109.785 209.26 109.785 208.44V202.34H112.465V200.48H109.785V197.74H107.485V200.48H106.185V202.34H107.485V208.44ZM116.846 205.7C116.846 203.36 117.886 202.66 119.566 202.66H120.146V200.3C118.586 200.3 117.486 200.98 116.846 202.08V200.48H114.566V211.5H116.846V205.7ZM132.222 200.48H129.942V206.62C129.942 208.64 128.842 209.68 127.162 209.68C125.502 209.68 124.402 208.64 124.402 206.62V200.48H122.142V206.96C122.142 210.04 124.102 211.66 126.682 211.66C127.982 211.66 129.222 211.12 129.942 210.18V211.5H132.222V200.48ZM134.47 205.98C134.47 209.44 136.71 211.68 139.87 211.68C142.57 211.68 144.33 210.18 144.95 208.02H142.49C142.07 209.16 141.23 209.76 139.87 209.76C138.03 209.76 136.81 208.4 136.81 205.98C136.81 203.58 138.03 202.22 139.87 202.22C141.23 202.22 142.11 202.9 142.49 203.96H144.95C144.33 201.64 142.57 200.3 139.87 200.3C136.71 200.3 134.47 202.54 134.47 205.98ZM147.583 208.44C147.583 210.68 148.803 211.5 150.763 211.5H152.563V209.6H151.163C150.203 209.6 149.883 209.26 149.883 208.44V202.34H152.563V200.48H149.883V197.74H147.583V200.48H146.283V202.34H147.583V208.44ZM164.644 200.48H162.364V206.62C162.364 208.64 161.264 209.68 159.584 209.68C157.924 209.68 156.824 208.64 156.824 206.62V200.48H154.564V206.96C154.564 210.04 156.524 211.66 159.104 211.66C160.404 211.66 161.644 211.12 162.364 210.18V211.5H164.644V200.48ZM169.932 205.7C169.932 203.36 170.972 202.66 172.652 202.66H173.232V200.3C171.672 200.3 170.572 200.98 169.932 202.08V200.48H167.652V211.5H169.932V205.7ZM179.968 202.22C181.668 202.22 183.008 203.3 183.048 205H176.948C177.188 203.26 178.428 202.22 179.968 202.22ZM185.128 208.22H182.668C182.248 209.08 181.468 209.76 180.068 209.76C178.388 209.76 177.088 208.66 176.928 206.84H185.348C185.408 206.46 185.428 206.1 185.428 205.72C185.428 202.48 183.208 200.3 180.068 200.3C176.808 200.3 174.568 202.52 174.568 205.98C174.568 209.44 176.908 211.68 180.068 211.68C182.768 211.68 184.508 210.14 185.128 208.22ZM195.892 208.42C195.772 204.44 189.552 205.68 189.552 203.46C189.552 202.72 190.192 202.22 191.412 202.22C192.652 202.22 193.392 202.88 193.472 203.84H195.752C195.632 201.64 193.992 200.3 191.492 200.3C188.892 200.3 187.252 201.72 187.252 203.48C187.252 207.52 193.652 206.28 193.652 208.44C193.652 209.2 192.952 209.76 191.632 209.76C190.372 209.76 189.512 209.02 189.432 208.12H187.072C187.172 210.12 189.032 211.68 191.672 211.68C194.272 211.68 195.892 210.28 195.892 208.42ZM205.691 211.5H208.091L210.311 203.36L212.531 211.5H214.931L218.351 200.48H216.111L213.831 209.3L211.591 200.48H209.211L206.871 209.34L204.571 200.48H202.251L205.691 211.5ZM220.055 211.5H222.335V200.48H220.055V211.5ZM221.215 199.02C222.015 199.02 222.655 198.38 222.655 197.56C222.655 196.74 222.015 196.1 221.215 196.1C220.395 196.1 219.755 196.74 219.755 197.56C219.755 198.38 220.395 199.02 221.215 199.02ZM225.688 208.44C225.688 210.68 226.908 211.5 228.868 211.5H230.668V209.6H229.268C228.308 209.6 227.988 209.26 227.988 208.44V202.34H230.668V200.48H227.988V197.74H225.688V200.48H224.388V202.34H225.688V208.44ZM232.77 211.5H235.05V205.34C235.05 203.32 236.15 202.28 237.83 202.28C239.49 202.28 240.59 203.32 240.59 205.34V211.5H242.85V205C242.85 201.92 240.93 200.3 238.47 200.3C237.05 200.3 235.81 200.84 235.05 201.76V196.7H232.77V211.5ZM260.333 211.5H262.733L257.753 197.58H255.113L250.133 211.5H252.513L253.513 208.66H259.333L260.333 211.5ZM258.693 206.8H254.153L256.433 200.34L258.693 206.8ZM264.898 211.5H267.178V196.7H264.898V211.5ZM269.412 205.94C269.412 209.34 271.712 211.68 274.612 211.68C276.412 211.68 277.732 210.78 278.432 209.84V211.68C278.432 213.88 277.112 214.96 275.352 214.96C273.772 214.96 272.552 214.18 272.212 213.04H269.952C270.232 215.48 272.412 216.94 275.352 216.94C278.792 216.94 280.732 214.68 280.732 211.68V200.48H278.432V202.08C277.752 201.14 276.412 200.3 274.612 200.3C271.712 200.3 269.412 202.54 269.412 205.94ZM278.432 205.98C278.432 208.36 276.812 209.7 275.092 209.7C273.392 209.7 271.752 208.32 271.752 205.94C271.752 203.56 273.392 202.28 275.092 202.28C276.812 202.28 278.432 203.62 278.432 205.98ZM294.227 205.98C294.227 202.52 291.747 200.3 288.607 200.3C285.467 200.3 282.987 202.52 282.987 205.98C282.987 209.44 285.367 211.68 288.507 211.68C291.667 211.68 294.227 209.44 294.227 205.98ZM285.307 205.98C285.307 203.48 286.847 202.28 288.567 202.28C290.267 202.28 291.887 203.48 291.887 205.98C291.887 208.48 290.207 209.7 288.507 209.7C286.787 209.7 285.307 208.48 285.307 205.98ZM298.76 205.7C298.76 203.36 299.8 202.66 301.48 202.66H302.06V200.3C300.5 200.3 299.4 200.98 298.76 202.08V200.48H296.48V211.5H298.76V205.7ZM304.156 211.5H306.436V200.48H304.156V211.5ZM305.316 199.02C306.116 199.02 306.756 198.38 306.756 197.56C306.756 196.74 306.116 196.1 305.316 196.1C304.496 196.1 303.856 196.74 303.856 197.56C303.856 198.38 304.496 199.02 305.316 199.02ZM309.79 208.44C309.79 210.68 311.01 211.5 312.97 211.5H314.77V209.6H313.37C312.41 209.6 312.09 209.26 312.09 208.44V202.34H314.77V200.48H312.09V197.74H309.79V200.48H308.49V202.34H309.79V208.44ZM316.871 211.5H319.151V205.34C319.151 203.32 320.251 202.28 321.931 202.28C323.591 202.28 324.691 203.32 324.691 205.34V211.5H326.951V205C326.951 201.92 325.031 200.3 322.571 200.3C321.151 200.3 319.911 200.84 319.151 201.76V196.7H316.871V211.5ZM345.479 211.5H347.739V205C347.739 201.92 345.779 200.3 343.199 200.3C341.599 200.3 340.039 201.14 339.359 202.48C338.599 201.04 337.139 200.3 335.399 200.3C334.079 200.3 332.879 200.84 332.139 201.74V200.48H329.859V211.5H332.139V205.34C332.139 203.32 333.239 202.28 334.919 202.28C336.579 202.28 337.679 203.32 337.679 205.34V211.5H339.939V205.34C339.939 203.32 341.039 202.28 342.719 202.28C344.379 202.28 345.479 203.32 345.479 205.34V211.5ZM358.861 208.42C358.741 204.44 352.521 205.68 352.521 203.46C352.521 202.72 353.161 202.22 354.381 202.22C355.621 202.22 356.361 202.88 356.441 203.84H358.721C358.601 201.64 356.961 200.3 354.461 200.3C351.861 200.3 350.221 201.72 350.221 203.48C350.221 207.52 356.621 206.28 356.621 208.44C356.621 209.2 355.921 209.76 354.601 209.76C353.341 209.76 352.481 209.02 352.401 208.12H350.041C350.141 210.12 352.001 211.68 354.641 211.68C357.241 211.68 358.861 210.28 358.861 208.42Z" fill="#212832"/>
<rect x="0.5" y="179.5" width="616" height="49" stroke="black" stroke-opacity="0.5"/>
<rect y="122" width="617" height="50" fill="white"/>
<path d="M24.6 150.44C26.08 150.44 27.24 149.3 27.24 147.84C27.24 146.36 26.08 145.22 24.6 145.22C23.16 145.22 22 146.36 22 147.84C22 149.3 23.16 150.44 24.6 150.44ZM45.6689 140.6H41.1289V154.5H45.6689C50.1289 154.5 53.0489 151.88 53.0489 147.6C53.0489 143.3 50.1289 140.6 45.6689 140.6ZM43.4089 152.64V142.46H45.6689C48.9489 142.46 50.7089 144.42 50.7089 147.6C50.7089 150.76 48.9489 152.64 45.6689 152.64H43.4089ZM54.5486 148.94C54.5486 152.34 56.8486 154.68 59.7086 154.68C61.5486 154.68 62.8686 153.8 63.5686 152.86V154.5H65.8686V143.48H63.5686V145.08C62.8886 144.18 61.6086 143.3 59.7486 143.3C56.8486 143.3 54.5486 145.54 54.5486 148.94ZM63.5686 148.98C63.5686 151.36 61.9486 152.7 60.2286 152.7C58.5286 152.7 56.8886 151.32 56.8886 148.94C56.8886 146.56 58.5286 145.28 60.2286 145.28C61.9486 145.28 63.5686 146.62 63.5686 148.98ZM69.2233 151.44C69.2233 153.68 70.4433 154.5 72.4033 154.5H74.2033V152.6H72.8033C71.8433 152.6 71.5233 152.26 71.5233 151.44V145.34H74.2033V143.48H71.5233V140.74H69.2233V143.48H67.9233V145.34H69.2233V151.44ZM75.5447 148.94C75.5447 152.34 77.8447 154.68 80.7047 154.68C82.5447 154.68 83.8647 153.8 84.5647 152.86V154.5H86.8647V143.48H84.5647V145.08C83.8847 144.18 82.6047 143.3 80.7447 143.3C77.8447 143.3 75.5447 145.54 75.5447 148.94ZM84.5647 148.98C84.5647 151.36 82.9447 152.7 81.2247 152.7C79.5247 152.7 77.8847 151.32 77.8847 148.94C77.8847 146.56 79.5247 145.28 81.2247 145.28C82.9447 145.28 84.5647 146.62 84.5647 148.98ZM94.2947 147.52C94.2947 151.7 97.4747 154.62 101.395 154.62C104.295 154.62 106.795 153.18 107.855 150.46H105.115C104.375 151.94 103.055 152.64 101.395 152.64C98.6347 152.64 96.6347 150.66 96.6347 147.52C96.6347 144.38 98.6347 142.42 101.395 142.42C103.055 142.42 104.375 143.12 105.115 144.6H107.855C106.795 141.88 104.295 140.42 101.395 140.42C97.4747 140.42 94.2947 143.36 94.2947 147.52ZM121.023 148.98C121.023 145.52 118.543 143.3 115.403 143.3C112.263 143.3 109.783 145.52 109.783 148.98C109.783 152.44 112.163 154.68 115.303 154.68C118.463 154.68 121.023 152.44 121.023 148.98ZM112.103 148.98C112.103 146.48 113.643 145.28 115.363 145.28C117.063 145.28 118.683 146.48 118.683 148.98C118.683 151.48 117.003 152.7 115.303 152.7C113.583 152.7 112.103 151.48 112.103 148.98ZM138.897 154.5H141.157V148C141.157 144.92 139.197 143.3 136.617 143.3C135.017 143.3 133.457 144.14 132.777 145.48C132.017 144.04 130.557 143.3 128.817 143.3C127.497 143.3 126.297 143.84 125.557 144.74V143.48H123.277V154.5H125.557V148.34C125.557 146.32 126.657 145.28 128.337 145.28C129.997 145.28 131.097 146.32 131.097 148.34V154.5H133.357V148.34C133.357 146.32 134.457 145.28 136.137 145.28C137.797 145.28 138.897 146.32 138.897 148.34V154.5ZM159.679 154.5H161.939V148C161.939 144.92 159.979 143.3 157.399 143.3C155.799 143.3 154.239 144.14 153.559 145.48C152.799 144.04 151.339 143.3 149.599 143.3C148.279 143.3 147.079 143.84 146.339 144.74V143.48H144.059V154.5H146.339V148.34C146.339 146.32 147.439 145.28 149.119 145.28C150.779 145.28 151.879 146.32 151.879 148.34V154.5H154.139V148.34C154.139 146.32 155.239 145.28 156.919 145.28C158.579 145.28 159.679 146.32 159.679 148.34V154.5ZM174.82 143.48H172.54V149.62C172.54 151.64 171.44 152.68 169.76 152.68C168.1 152.68 167 151.64 167 149.62V143.48H164.74V149.96C164.74 153.04 166.7 154.66 169.28 154.66C170.58 154.66 171.82 154.12 172.54 153.18V154.5H174.82V143.48ZM185.648 154.5H187.908V148C187.908 144.92 185.968 143.3 183.388 143.3C182.068 143.3 180.848 143.84 180.108 144.74V143.48H177.828V154.5H180.108V148.34C180.108 146.32 181.208 145.28 182.888 145.28C184.548 145.28 185.648 146.32 185.648 148.34V154.5ZM190.816 154.5H193.096V143.48H190.816V154.5ZM191.976 142.02C192.776 142.02 193.416 141.38 193.416 140.56C193.416 139.74 192.776 139.1 191.976 139.1C191.156 139.1 190.516 139.74 190.516 140.56C190.516 141.38 191.156 142.02 191.976 142.02ZM195.33 148.98C195.33 152.44 197.57 154.68 200.73 154.68C203.43 154.68 205.19 153.18 205.81 151.02H203.35C202.93 152.16 202.09 152.76 200.73 152.76C198.89 152.76 197.67 151.4 197.67 148.98C197.67 146.58 198.89 145.22 200.73 145.22C202.09 145.22 202.97 145.9 203.35 146.96H205.81C205.19 144.64 203.43 143.3 200.73 143.3C197.57 143.3 195.33 145.54 195.33 148.98ZM207.322 148.94C207.322 152.34 209.622 154.68 212.482 154.68C214.322 154.68 215.642 153.8 216.342 152.86V154.5H218.642V143.48H216.342V145.08C215.662 144.18 214.382 143.3 212.522 143.3C209.622 143.3 207.322 145.54 207.322 148.94ZM216.342 148.98C216.342 151.36 214.722 152.7 213.002 152.7C211.302 152.7 209.662 151.32 209.662 148.94C209.662 146.56 211.302 145.28 213.002 145.28C214.722 145.28 216.342 146.62 216.342 148.98ZM221.997 151.44C221.997 153.68 223.217 154.5 225.177 154.5H226.977V152.6H225.577C224.617 152.6 224.297 152.26 224.297 151.44V145.34H226.977V143.48H224.297V140.74H221.997V143.48H220.697V145.34H221.997V151.44ZM229.078 154.5H231.358V143.48H229.078V154.5ZM230.238 142.02C231.038 142.02 231.678 141.38 231.678 140.56C231.678 139.74 231.038 139.1 230.238 139.1C229.418 139.1 228.778 139.74 228.778 140.56C228.778 141.38 229.418 142.02 230.238 142.02ZM244.852 148.98C244.852 145.52 242.372 143.3 239.232 143.3C236.092 143.3 233.612 145.52 233.612 148.98C233.612 152.44 235.992 154.68 239.132 154.68C242.292 154.68 244.852 152.44 244.852 148.98ZM235.932 148.98C235.932 146.48 237.472 145.28 239.192 145.28C240.892 145.28 242.512 146.48 242.512 148.98C242.512 151.48 240.832 152.7 239.132 152.7C237.412 152.7 235.932 151.48 235.932 148.98ZM254.925 154.5H257.185V148C257.185 144.92 255.245 143.3 252.665 143.3C251.345 143.3 250.125 143.84 249.385 144.74V143.48H247.105V154.5H249.385V148.34C249.385 146.32 250.485 145.28 252.165 145.28C253.825 145.28 254.925 146.32 254.925 148.34V154.5ZM264.529 148.94C264.529 152.34 266.829 154.68 269.689 154.68C271.529 154.68 272.849 153.8 273.549 152.86V154.5H275.849V143.48H273.549V145.08C272.869 144.18 271.589 143.3 269.729 143.3C266.829 143.3 264.529 145.54 264.529 148.94ZM273.549 148.98C273.549 151.36 271.929 152.7 270.209 152.7C268.509 152.7 266.869 151.32 266.869 148.94C266.869 146.56 268.509 145.28 270.209 145.28C271.929 145.28 273.549 146.62 273.549 148.98ZM286.664 154.5H288.924V148C288.924 144.92 286.984 143.3 284.404 143.3C283.084 143.3 281.864 143.84 281.124 144.74V143.48H278.844V154.5H281.124V148.34C281.124 146.32 282.224 145.28 283.904 145.28C285.564 145.28 286.664 146.32 286.664 148.34V154.5ZM291.072 148.94C291.072 152.34 293.372 154.68 296.272 154.68C298.072 154.68 299.392 153.84 300.092 152.84V154.5H302.392V139.7H300.092V145.02C299.252 143.98 297.732 143.3 296.292 143.3C293.372 143.3 291.072 145.54 291.072 148.94ZM300.092 148.98C300.092 151.36 298.472 152.7 296.752 152.7C295.052 152.7 293.412 151.32 293.412 148.94C293.412 146.56 295.052 145.28 296.752 145.28C298.472 145.28 300.092 146.62 300.092 148.98ZM309.822 147.52C309.822 151.7 313.002 154.62 316.922 154.62C319.822 154.62 322.322 153.18 323.382 150.46H320.642C319.902 151.94 318.582 152.64 316.922 152.64C314.162 152.64 312.162 150.66 312.162 147.52C312.162 144.38 314.162 142.42 316.922 142.42C318.582 142.42 319.902 143.12 320.642 144.6H323.382C322.322 141.88 319.822 140.42 316.922 140.42C313.002 140.42 309.822 143.36 309.822 147.52ZM336.551 148.98C336.551 145.52 334.071 143.3 330.931 143.3C327.791 143.3 325.311 145.52 325.311 148.98C325.311 152.44 327.691 154.68 330.831 154.68C333.991 154.68 336.551 152.44 336.551 148.98ZM327.631 148.98C327.631 146.48 329.171 145.28 330.891 145.28C332.591 145.28 334.211 146.48 334.211 148.98C334.211 151.48 332.531 152.7 330.831 152.7C329.111 152.7 327.631 151.48 327.631 148.98ZM354.425 154.5H356.685V148C356.685 144.92 354.725 143.3 352.145 143.3C350.545 143.3 348.985 144.14 348.305 145.48C347.545 144.04 346.085 143.3 344.345 143.3C343.025 143.3 341.825 143.84 341.085 144.74V143.48H338.805V154.5H341.085V148.34C341.085 146.32 342.185 145.28 343.865 145.28C345.525 145.28 346.625 146.32 346.625 148.34V154.5H348.885V148.34C348.885 146.32 349.985 145.28 351.665 145.28C353.325 145.28 354.425 146.32 354.425 148.34V154.5ZM361.866 145.1V143.48H359.586V159.74H361.866V152.9C362.586 153.76 363.886 154.68 365.706 154.68C368.606 154.68 370.886 152.34 370.886 148.94C370.886 145.54 368.606 143.3 365.706 143.3C363.906 143.3 362.566 144.18 361.866 145.1ZM368.566 148.94C368.566 151.32 366.926 152.7 365.206 152.7C363.506 152.7 361.866 151.36 361.866 148.98C361.866 146.62 363.506 145.28 365.206 145.28C366.926 145.28 368.566 146.56 368.566 148.94ZM383.121 143.48H380.841V149.62C380.841 151.64 379.741 152.68 378.061 152.68C376.401 152.68 375.301 151.64 375.301 149.62V143.48H373.041V149.96C373.041 153.04 375.001 154.66 377.581 154.66C378.881 154.66 380.121 154.12 380.841 153.18V154.5H383.121V143.48ZM386.489 151.44C386.489 153.68 387.709 154.5 389.669 154.5H391.469V152.6H390.069C389.109 152.6 388.789 152.26 388.789 151.44V145.34H391.469V143.48H388.789V140.74H386.489V143.48H385.189V145.34H386.489V151.44ZM398.21 145.22C399.91 145.22 401.25 146.3 401.29 148H395.19C395.43 146.26 396.67 145.22 398.21 145.22ZM403.37 151.22H400.91C400.49 152.08 399.71 152.76 398.31 152.76C396.63 152.76 395.33 151.66 395.17 149.84H403.59C403.65 149.46 403.67 149.1 403.67 148.72C403.67 145.48 401.45 143.3 398.31 143.3C395.05 143.3 392.81 145.52 392.81 148.98C392.81 152.44 395.15 154.68 398.31 154.68C401.01 154.68 402.75 153.14 403.37 151.22ZM408.194 148.7C408.194 146.36 409.234 145.66 410.914 145.66H411.494V143.3C409.934 143.3 408.834 143.98 408.194 145.08V143.48H405.914V154.5H408.194V148.7ZM427.925 140.58V150.94L421.065 140.58H418.785V154.5H421.065V144.12L427.925 154.5H430.205V140.58H427.925ZM437.839 145.22C439.539 145.22 440.879 146.3 440.919 148H434.819C435.059 146.26 436.299 145.22 437.839 145.22ZM442.999 151.22H440.539C440.119 152.08 439.339 152.76 437.939 152.76C436.259 152.76 434.959 151.66 434.799 149.84H443.219C443.279 149.46 443.299 149.1 443.299 148.72C443.299 145.48 441.079 143.3 437.939 143.3C434.679 143.3 432.439 145.52 432.439 148.98C432.439 152.44 434.779 154.68 437.939 154.68C440.639 154.68 442.379 153.14 442.999 151.22ZM445.903 151.44C445.903 153.68 447.123 154.5 449.083 154.5H450.883V152.6H449.483C448.523 152.6 448.203 152.26 448.203 151.44V145.34H450.883V143.48H448.203V140.74H445.903V143.48H444.603V145.34H445.903V151.44ZM455.124 154.5H457.524L459.744 146.36L461.964 154.5H464.364L467.784 143.48H465.544L463.264 152.3L461.024 143.48H458.644L456.304 152.34L454.004 143.48H451.684L455.124 154.5ZM479.988 148.98C479.988 145.52 477.508 143.3 474.368 143.3C471.228 143.3 468.748 145.52 468.748 148.98C468.748 152.44 471.128 154.68 474.268 154.68C477.428 154.68 479.988 152.44 479.988 148.98ZM471.068 148.98C471.068 146.48 472.608 145.28 474.328 145.28C476.028 145.28 477.648 146.48 477.648 148.98C477.648 151.48 475.968 152.7 474.268 152.7C472.548 152.7 471.068 151.48 471.068 148.98ZM484.522 148.7C484.522 146.36 485.562 145.66 487.242 145.66H487.822V143.3C486.262 143.3 485.162 143.98 484.522 145.08V143.48H482.242V154.5H484.522V148.7ZM489.918 154.5H492.198V149.76L496.278 154.5H499.358L494.278 149L499.358 143.48H496.198L492.198 148.3V139.7H489.918V154.5ZM509.212 151.42C509.092 147.44 502.872 148.68 502.872 146.46C502.872 145.72 503.512 145.22 504.732 145.22C505.972 145.22 506.712 145.88 506.792 146.84H509.072C508.952 144.64 507.312 143.3 504.812 143.3C502.212 143.3 500.572 144.72 500.572 146.48C500.572 150.52 506.972 149.28 506.972 151.44C506.972 152.2 506.272 152.76 504.952 152.76C503.692 152.76 502.832 152.02 502.752 151.12H500.392C500.492 153.12 502.352 154.68 504.992 154.68C507.592 154.68 509.212 153.28 509.212 151.42Z" fill="#212832"/>
<rect x="0.5" y="122.5" width="616" height="49" stroke="black" stroke-opacity="0.5"/>
<rect y="236" width="617" height="50" fill="white"/>
<path d="M24.6 264.44C26.08 264.44 27.24 263.3 27.24 261.84C27.24 260.36 26.08 259.22 24.6 259.22C23.16 259.22 22 260.36 22 261.84C22 263.3 23.16 264.44 24.6 264.44ZM54.5689 261.52C54.5689 257.36 51.4289 254.42 47.4689 254.42C43.5489 254.42 40.3689 257.36 40.3689 261.52C40.3689 265.7 43.5489 268.64 47.4689 268.64C51.4289 268.64 54.5689 265.7 54.5689 261.52ZM42.7089 261.52C42.7089 258.38 44.7089 256.42 47.4689 256.42C50.2289 256.42 52.2289 258.38 52.2289 261.52C52.2289 264.66 50.2289 266.66 47.4689 266.66C44.7089 266.66 42.7089 264.66 42.7089 261.52ZM59.0925 259.1V257.48H56.8125V273.74H59.0925V266.9C59.8125 267.76 61.1125 268.68 62.9325 268.68C65.8325 268.68 68.1125 266.34 68.1125 262.94C68.1125 259.54 65.8325 257.3 62.9325 257.3C61.1325 257.3 59.7925 258.18 59.0925 259.1ZM65.7925 262.94C65.7925 265.32 64.1525 266.7 62.4325 266.7C60.7325 266.7 59.0925 265.36 59.0925 262.98C59.0925 260.62 60.7325 259.28 62.4325 259.28C64.1525 259.28 65.7925 260.56 65.7925 262.94ZM75.0072 259.22C76.7072 259.22 78.0472 260.3 78.0872 262H71.9872C72.2272 260.26 73.4672 259.22 75.0072 259.22ZM80.1672 265.22H77.7072C77.2872 266.08 76.5072 266.76 75.1072 266.76C73.4272 266.76 72.1272 265.66 71.9672 263.84H80.3872C80.4472 263.46 80.4672 263.1 80.4672 262.72C80.4672 259.48 78.2472 257.3 75.1072 257.3C71.8472 257.3 69.6072 259.52 69.6072 262.98C69.6072 266.44 71.9472 268.68 75.1072 268.68C77.8072 268.68 79.5472 267.14 80.1672 265.22ZM84.9909 262.7C84.9909 260.36 86.0309 259.66 87.7109 259.66H88.2909V257.3C86.7309 257.3 85.6309 257.98 84.9909 259.08V257.48H82.7109V268.5H84.9909V262.7ZM89.6267 262.94C89.6267 266.34 91.9267 268.68 94.7867 268.68C96.6267 268.68 97.9467 267.8 98.6467 266.86V268.5H100.947V257.48H98.6467V259.08C97.9667 258.18 96.6867 257.3 94.8267 257.3C91.9267 257.3 89.6267 259.54 89.6267 262.94ZM98.6467 262.98C98.6467 265.36 97.0267 266.7 95.3067 266.7C93.6067 266.7 91.9667 265.32 91.9667 262.94C91.9667 260.56 93.6067 259.28 95.3067 259.28C97.0267 259.28 98.6467 260.62 98.6467 262.98ZM104.301 265.44C104.301 267.68 105.521 268.5 107.481 268.5H109.281V266.6H107.881C106.921 266.6 106.601 266.26 106.601 265.44V259.34H109.281V257.48H106.601V254.74H104.301V257.48H103.001V259.34H104.301V265.44ZM111.383 268.5H113.663V257.48H111.383V268.5ZM112.543 256.02C113.343 256.02 113.983 255.38 113.983 254.56C113.983 253.74 113.343 253.1 112.543 253.1C111.723 253.1 111.083 253.74 111.083 254.56C111.083 255.38 111.723 256.02 112.543 256.02ZM124.476 268.5H126.736V262C126.736 258.92 124.796 257.3 122.216 257.3C120.896 257.3 119.676 257.84 118.936 258.74V257.48H116.656V268.5H118.936V262.34C118.936 260.32 120.036 259.28 121.716 259.28C123.376 259.28 124.476 260.32 124.476 262.34V268.5ZM128.885 262.94C128.885 266.34 131.185 268.68 134.085 268.68C135.885 268.68 137.205 267.78 137.905 266.84V268.68C137.905 270.88 136.585 271.96 134.825 271.96C133.245 271.96 132.025 271.18 131.685 270.04H129.425C129.705 272.48 131.885 273.94 134.825 273.94C138.265 273.94 140.205 271.68 140.205 268.68V257.48H137.905V259.08C137.225 258.14 135.885 257.3 134.085 257.3C131.185 257.3 128.885 259.54 128.885 262.94ZM137.905 262.98C137.905 265.36 136.285 266.7 134.565 266.7C132.865 266.7 131.225 265.32 131.225 262.94C131.225 260.56 132.865 259.28 134.565 259.28C136.285 259.28 137.905 260.62 137.905 262.98ZM157.775 264.56C157.775 259.48 150.415 261.44 150.415 258.3C150.415 256.96 151.435 256.32 152.755 256.36C154.195 256.4 155.015 257.26 155.095 258.2H157.615C157.415 255.82 155.535 254.42 152.875 254.42C150.035 254.42 148.095 255.94 148.095 258.38C148.095 263.5 155.475 261.32 155.475 264.68C155.475 265.86 154.575 266.72 152.975 266.72C151.395 266.72 150.595 265.8 150.495 264.66H148.055C148.055 267.12 150.195 268.64 152.975 268.64C156.075 268.64 157.775 266.64 157.775 264.56ZM164.805 265.88L161.705 257.48H159.165L163.505 268.32L161.265 273.68H163.625L170.385 257.48H168.025L164.805 265.88ZM180.325 265.42C180.205 261.44 173.985 262.68 173.985 260.46C173.985 259.72 174.625 259.22 175.845 259.22C177.085 259.22 177.825 259.88 177.905 260.84H180.185C180.065 258.64 178.425 257.3 175.925 257.3C173.325 257.3 171.685 258.72 171.685 260.48C171.685 264.52 178.085 263.28 178.085 265.44C178.085 266.2 177.385 266.76 176.065 266.76C174.805 266.76 173.945 266.02 173.865 265.12H171.505C171.605 267.12 173.465 268.68 176.105 268.68C178.705 268.68 180.325 267.28 180.325 265.42ZM183.149 265.44C183.149 267.68 184.369 268.5 186.329 268.5H188.129V266.6H186.729C185.769 266.6 185.449 266.26 185.449 265.44V259.34H188.129V257.48H185.449V254.74H183.149V257.48H181.849V259.34H183.149V265.44ZM194.87 259.22C196.57 259.22 197.91 260.3 197.95 262H191.85C192.09 260.26 193.33 259.22 194.87 259.22ZM200.03 265.22H197.57C197.15 266.08 196.37 266.76 194.97 266.76C193.29 266.76 191.99 265.66 191.83 263.84H200.25C200.31 263.46 200.33 263.1 200.33 262.72C200.33 259.48 198.11 257.3 194.97 257.3C191.71 257.3 189.47 259.52 189.47 262.98C189.47 266.44 191.81 268.68 194.97 268.68C197.67 268.68 199.41 267.14 200.03 265.22ZM218.194 268.5H220.454V262C220.454 258.92 218.494 257.3 215.914 257.3C214.314 257.3 212.754 258.14 212.074 259.48C211.314 258.04 209.854 257.3 208.114 257.3C206.794 257.3 205.594 257.84 204.854 258.74V257.48H202.574V268.5H204.854V262.34C204.854 260.32 205.954 259.28 207.634 259.28C209.294 259.28 210.394 260.32 210.394 262.34V268.5H212.654V262.34C212.654 260.32 213.754 259.28 215.434 259.28C217.094 259.28 218.194 260.32 218.194 262.34V268.5ZM227.791 262.94C227.791 266.34 230.091 268.68 232.951 268.68C234.791 268.68 236.111 267.8 236.811 266.86V268.5H239.111V257.48H236.811V259.08C236.131 258.18 234.851 257.3 232.991 257.3C230.091 257.3 227.791 259.54 227.791 262.94ZM236.811 262.98C236.811 265.36 235.191 266.7 233.471 266.7C231.771 266.7 230.131 265.32 230.131 262.94C230.131 260.56 231.771 259.28 233.471 259.28C235.191 259.28 236.811 260.62 236.811 262.98ZM249.925 268.5H252.185V262C252.185 258.92 250.245 257.3 247.665 257.3C246.345 257.3 245.125 257.84 244.385 258.74V257.48H242.105V268.5H244.385V262.34C244.385 260.32 245.485 259.28 247.165 259.28C248.825 259.28 249.925 260.32 249.925 262.34V268.5ZM254.334 262.94C254.334 266.34 256.634 268.68 259.534 268.68C261.334 268.68 262.654 267.84 263.354 266.84V268.5H265.654V253.7H263.354V259.02C262.514 257.98 260.994 257.3 259.554 257.3C256.634 257.3 254.334 259.54 254.334 262.94ZM263.354 262.98C263.354 265.36 261.734 266.7 260.014 266.7C258.314 266.7 256.674 265.32 256.674 262.94C256.674 260.56 258.314 259.28 260.014 259.28C261.734 259.28 263.354 260.62 263.354 262.98ZM273.824 263.42C273.824 266.96 276.304 268.64 279.224 268.64C282.124 268.64 284.684 266.96 284.684 263.42V254.6H282.404V263.46C282.404 265.62 281.184 266.64 279.244 266.64C277.324 266.64 276.104 265.62 276.104 263.46V254.6H273.824V263.42ZM295.472 268.5H297.732V262C297.732 258.92 295.792 257.3 293.212 257.3C291.892 257.3 290.672 257.84 289.932 258.74V257.48H287.652V268.5H289.932V262.34C289.932 260.32 291.032 259.28 292.712 259.28C294.372 259.28 295.472 260.32 295.472 262.34V268.5ZM300.641 268.5H302.921V257.48H300.641V268.5ZM301.801 256.02C302.601 256.02 303.241 255.38 303.241 254.56C303.241 253.74 302.601 253.1 301.801 253.1C300.981 253.1 300.341 253.74 300.341 254.56C300.341 255.38 300.981 256.02 301.801 256.02ZM311.614 268.5H314.194L310.634 262.92L314.194 257.48H311.814L309.574 261.22L307.194 257.48H304.614L308.174 263.08L304.614 268.5H306.994L309.234 264.76L311.614 268.5ZM330.47 264.56C330.47 259.48 323.11 261.44 323.11 258.3C323.11 256.96 324.13 256.32 325.45 256.36C326.89 256.4 327.71 257.26 327.79 258.2H330.31C330.11 255.82 328.23 254.42 325.57 254.42C322.73 254.42 320.79 255.94 320.79 258.38C320.79 263.5 328.17 261.32 328.17 264.68C328.17 265.86 327.27 266.72 325.67 266.72C324.09 266.72 323.29 265.8 323.19 264.66H320.75C320.75 267.12 322.89 268.64 325.67 268.64C328.77 268.64 330.47 266.64 330.47 264.56ZM333.16 268.5H335.44V262.34C335.44 260.32 336.54 259.28 338.22 259.28C339.88 259.28 340.98 260.32 340.98 262.34V268.5H343.24V262C343.24 258.92 341.32 257.3 338.86 257.3C337.44 257.3 336.2 257.84 335.44 258.76V253.7H333.16V268.5ZM350.788 259.22C352.488 259.22 353.828 260.3 353.868 262H347.768C348.008 260.26 349.248 259.22 350.788 259.22ZM355.948 265.22H353.488C353.068 266.08 352.288 266.76 350.888 266.76C349.208 266.76 347.908 265.66 347.748 263.84H356.168C356.228 263.46 356.248 263.1 356.248 262.72C356.248 259.48 354.028 257.3 350.888 257.3C347.628 257.3 345.388 259.52 345.388 262.98C345.388 266.44 347.728 268.68 350.888 268.68C353.588 268.68 355.328 267.14 355.948 265.22ZM358.492 268.5H360.772V253.7H358.492V268.5ZM363.766 268.5H366.046V253.7H363.766V268.5ZM376.514 261V256.46H379.034C380.814 256.46 381.614 257.3 381.614 258.74C381.614 260.14 380.814 261 379.034 261H376.514ZM383.954 258.74C383.954 256.48 382.334 254.6 379.034 254.6H374.234V268.5H376.514V262.86H379.034C382.654 262.86 383.954 260.72 383.954 258.74ZM388.409 262.7C388.409 260.36 389.449 259.66 391.129 259.66H391.709V257.3C390.149 257.3 389.049 257.98 388.409 259.08V257.48H386.129V268.5H388.409V262.7ZM404.305 262.98C404.305 259.52 401.825 257.3 398.685 257.3C395.545 257.3 393.065 259.52 393.065 262.98C393.065 266.44 395.445 268.68 398.585 268.68C401.745 268.68 404.305 266.44 404.305 262.98ZM395.385 262.98C395.385 260.48 396.925 259.28 398.645 259.28C400.345 259.28 401.965 260.48 401.965 262.98C401.965 265.48 400.285 266.7 398.585 266.7C396.865 266.7 395.385 265.48 395.385 262.98ZM405.799 262.94C405.799 266.34 408.099 268.68 410.999 268.68C412.799 268.68 414.119 267.78 414.819 266.84V268.68C414.819 270.88 413.499 271.96 411.739 271.96C410.159 271.96 408.939 271.18 408.599 270.04H406.339C406.619 272.48 408.799 273.94 411.739 273.94C415.179 273.94 417.119 271.68 417.119 268.68V257.48H414.819V259.08C414.139 258.14 412.799 257.3 410.999 257.3C408.099 257.3 405.799 259.54 405.799 262.94ZM414.819 262.98C414.819 265.36 413.199 266.7 411.479 266.7C409.779 266.7 408.139 265.32 408.139 262.94C408.139 260.56 409.779 259.28 411.479 259.28C413.199 259.28 414.819 260.62 414.819 262.98ZM422.393 262.7C422.393 260.36 423.433 259.66 425.113 259.66H425.693V257.3C424.133 257.3 423.033 257.98 422.393 259.08V257.48H420.113V268.5H422.393V262.7ZM427.029 262.94C427.029 266.34 429.329 268.68 432.189 268.68C434.029 268.68 435.349 267.8 436.049 266.86V268.5H438.349V257.48H436.049V259.08C435.369 258.18 434.089 257.3 432.229 257.3C429.329 257.3 427.029 259.54 427.029 262.94ZM436.049 262.98C436.049 265.36 434.429 266.7 432.709 266.7C431.009 266.7 429.369 265.32 429.369 262.94C429.369 260.56 431.009 259.28 432.709 259.28C434.429 259.28 436.049 260.62 436.049 262.98ZM456.964 268.5H459.224V262C459.224 258.92 457.264 257.3 454.684 257.3C453.084 257.3 451.524 258.14 450.844 259.48C450.084 258.04 448.624 257.3 446.884 257.3C445.564 257.3 444.364 257.84 443.624 258.74V257.48H441.344V268.5H443.624V262.34C443.624 260.32 444.724 259.28 446.404 259.28C448.064 259.28 449.164 260.32 449.164 262.34V268.5H451.424V262.34C451.424 260.32 452.524 259.28 454.204 259.28C455.864 259.28 456.964 260.32 456.964 262.34V268.5ZM477.745 268.5H480.005V262C480.005 258.92 478.045 257.3 475.465 257.3C473.865 257.3 472.305 258.14 471.625 259.48C470.865 258.04 469.405 257.3 467.665 257.3C466.345 257.3 465.145 257.84 464.405 258.74V257.48H462.125V268.5H464.405V262.34C464.405 260.32 465.505 259.28 467.185 259.28C468.845 259.28 469.945 260.32 469.945 262.34V268.5H472.205V262.34C472.205 260.32 473.305 259.28 474.985 259.28C476.645 259.28 477.745 260.32 477.745 262.34V268.5ZM482.906 268.5H485.186V257.48H482.906V268.5ZM484.066 256.02C484.866 256.02 485.506 255.38 485.506 254.56C485.506 253.74 484.866 253.1 484.066 253.1C483.246 253.1 482.606 253.74 482.606 254.56C482.606 255.38 483.246 256.02 484.066 256.02ZM496 268.5H498.26V262C498.26 258.92 496.32 257.3 493.74 257.3C492.42 257.3 491.2 257.84 490.46 258.74V257.48H488.18V268.5H490.46V262.34C490.46 260.32 491.56 259.28 493.24 259.28C494.9 259.28 496 260.32 496 262.34V268.5ZM500.408 262.94C500.408 266.34 502.708 268.68 505.608 268.68C507.408 268.68 508.728 267.78 509.428 266.84V268.68C509.428 270.88 508.108 271.96 506.348 271.96C504.768 271.96 503.548 271.18 503.208 270.04H500.948C501.228 272.48 503.408 273.94 506.348 273.94C509.788 273.94 511.728 271.68 511.728 268.68V257.48H509.428V259.08C508.748 258.14 507.408 257.3 505.608 257.3C502.708 257.3 500.408 259.54 500.408 262.94ZM509.428 262.98C509.428 265.36 507.808 266.7 506.088 266.7C504.388 266.7 502.748 265.32 502.748 262.94C502.748 260.56 504.388 259.28 506.088 259.28C507.808 259.28 509.428 260.62 509.428 262.98Z" fill="#212832"/>
<rect x="0.5" y="236.5" width="616" height="49" stroke="black" stroke-opacity="0.5"/>
<rect y="293" width="617" height="50" fill="white"/>
<path d="M24.6 321.44C26.08 321.44 27.24 320.3 27.24 318.84C27.24 317.36 26.08 316.22 24.6 316.22C23.16 316.22 22 317.36 22 318.84C22 320.3 23.16 321.44 24.6 321.44ZM40.3689 318.52C40.3689 322.7 43.5489 325.62 47.4689 325.62C50.3689 325.62 52.8689 324.18 53.9289 321.46H51.1889C50.4489 322.94 49.1289 323.64 47.4689 323.64C44.7089 323.64 42.7089 321.66 42.7089 318.52C42.7089 315.38 44.7089 313.42 47.4689 313.42C49.1289 313.42 50.4489 314.12 51.1889 315.6H53.9289C52.8689 312.88 50.3689 311.42 47.4689 311.42C43.5489 311.42 40.3689 314.36 40.3689 318.52ZM67.0977 319.98C67.0977 316.52 64.6177 314.3 61.4777 314.3C58.3377 314.3 55.8577 316.52 55.8577 319.98C55.8577 323.44 58.2377 325.68 61.3777 325.68C64.5377 325.68 67.0977 323.44 67.0977 319.98ZM58.1777 319.98C58.1777 317.48 59.7177 316.28 61.4377 316.28C63.1377 316.28 64.7577 317.48 64.7577 319.98C64.7577 322.48 63.0777 323.7 61.3777 323.7C59.6577 323.7 58.1777 322.48 58.1777 319.98ZM84.9716 325.5H87.2316V319C87.2316 315.92 85.2716 314.3 82.6916 314.3C81.0916 314.3 79.5316 315.14 78.8516 316.48C78.0916 315.04 76.6316 314.3 74.8916 314.3C73.5716 314.3 72.3716 314.84 71.6316 315.74V314.48H69.3516V325.5H71.6316V319.34C71.6316 317.32 72.7316 316.28 74.4116 316.28C76.0716 316.28 77.1716 317.32 77.1716 319.34V325.5H79.4316V319.34C79.4316 317.32 80.5316 316.28 82.2116 316.28C83.8716 316.28 84.9716 317.32 84.9716 319.34V325.5ZM92.4128 316.1V314.48H90.1328V330.74H92.4128V323.9C93.1328 324.76 94.4328 325.68 96.2528 325.68C99.1528 325.68 101.433 323.34 101.433 319.94C101.433 316.54 99.1528 314.3 96.2528 314.3C94.4528 314.3 93.1128 315.18 92.4128 316.1ZM99.1128 319.94C99.1128 322.32 97.4728 323.7 95.7528 323.7C94.0528 323.7 92.4128 322.36 92.4128 319.98C92.4128 317.62 94.0528 316.28 95.7528 316.28C97.4728 316.28 99.1128 317.56 99.1128 319.94ZM113.668 314.48H111.388V320.62C111.388 322.64 110.288 323.68 108.608 323.68C106.948 323.68 105.848 322.64 105.848 320.62V314.48H103.588V320.96C103.588 324.04 105.548 325.66 108.128 325.66C109.428 325.66 110.668 325.12 111.388 324.18V325.5H113.668V314.48ZM117.036 322.44C117.036 324.68 118.256 325.5 120.216 325.5H122.016V323.6H120.616C119.656 323.6 119.336 323.26 119.336 322.44V316.34H122.016V314.48H119.336V311.74H117.036V314.48H115.736V316.34H117.036V322.44ZM128.757 316.22C130.457 316.22 131.797 317.3 131.837 319H125.737C125.977 317.26 127.217 316.22 128.757 316.22ZM133.917 322.22H131.457C131.037 323.08 130.257 323.76 128.857 323.76C127.177 323.76 125.877 322.66 125.717 320.84H134.137C134.197 320.46 134.217 320.1 134.217 319.72C134.217 316.48 131.997 314.3 128.857 314.3C125.597 314.3 123.357 316.52 123.357 319.98C123.357 323.44 125.697 325.68 128.857 325.68C131.557 325.68 133.297 324.14 133.917 322.22ZM138.741 319.7C138.741 317.36 139.781 316.66 141.461 316.66H142.041V314.3C140.481 314.3 139.381 314.98 138.741 316.08V314.48H136.461V325.5H138.741V319.7ZM162.772 318.52C162.772 314.36 159.632 311.42 155.672 311.42C151.752 311.42 148.572 314.36 148.572 318.52C148.572 322.7 151.752 325.64 155.672 325.64C159.632 325.64 162.772 322.7 162.772 318.52ZM150.912 318.52C150.912 315.38 152.912 313.42 155.672 313.42C158.432 313.42 160.432 315.38 160.432 318.52C160.432 321.66 158.432 323.66 155.672 323.66C152.912 323.66 150.912 321.66 150.912 318.52ZM167.296 319.7C167.296 317.36 168.336 316.66 170.016 316.66H170.596V314.3C169.036 314.3 167.936 314.98 167.296 316.08V314.48H165.016V325.5H167.296V319.7ZM171.931 319.94C171.931 323.34 174.231 325.68 177.131 325.68C178.931 325.68 180.251 324.78 180.951 323.84V325.68C180.951 327.88 179.631 328.96 177.871 328.96C176.291 328.96 175.071 328.18 174.731 327.04H172.471C172.751 329.48 174.931 330.94 177.871 330.94C181.311 330.94 183.251 328.68 183.251 325.68V314.48H180.951V316.08C180.271 315.14 178.931 314.3 177.131 314.3C174.231 314.3 171.931 316.54 171.931 319.94ZM180.951 319.98C180.951 322.36 179.331 323.7 177.611 323.7C175.911 323.7 174.271 322.32 174.271 319.94C174.271 317.56 175.911 316.28 177.611 316.28C179.331 316.28 180.951 317.62 180.951 319.98ZM185.486 319.94C185.486 323.34 187.786 325.68 190.646 325.68C192.486 325.68 193.806 324.8 194.506 323.86V325.5H196.806V314.48H194.506V316.08C193.826 315.18 192.546 314.3 190.686 314.3C187.786 314.3 185.486 316.54 185.486 319.94ZM194.506 319.98C194.506 322.36 192.886 323.7 191.166 323.7C189.466 323.7 187.826 322.32 187.826 319.94C187.826 317.56 189.466 316.28 191.166 316.28C192.886 316.28 194.506 317.62 194.506 319.98ZM207.621 325.5H209.881V319C209.881 315.92 207.941 314.3 205.361 314.3C204.041 314.3 202.821 314.84 202.081 315.74V314.48H199.801V325.5H202.081V319.34C202.081 317.32 203.181 316.28 204.861 316.28C206.521 316.28 207.621 317.32 207.621 319.34V325.5ZM212.789 325.5H215.069V314.48H212.789V325.5ZM213.949 313.02C214.749 313.02 215.389 312.38 215.389 311.56C215.389 310.74 214.749 310.1 213.949 310.1C213.129 310.1 212.489 310.74 212.489 311.56C212.489 312.38 213.129 313.02 213.949 313.02ZM225.083 314.48H217.443V316.34H222.463L217.443 323.64V325.5H225.083V323.64H220.083L225.083 316.34V314.48ZM226.717 319.94C226.717 323.34 229.017 325.68 231.877 325.68C233.717 325.68 235.037 324.8 235.737 323.86V325.5H238.037V314.48H235.737V316.08C235.057 315.18 233.777 314.3 231.917 314.3C229.017 314.3 226.717 316.54 226.717 319.94ZM235.737 319.98C235.737 322.36 234.117 323.7 232.397 323.7C230.697 323.7 229.057 322.32 229.057 319.94C229.057 317.56 230.697 316.28 232.397 316.28C234.117 316.28 235.737 317.62 235.737 319.98ZM241.391 322.44C241.391 324.68 242.611 325.5 244.571 325.5H246.371V323.6H244.971C244.011 323.6 243.691 323.26 243.691 322.44V316.34H246.371V314.48H243.691V311.74H241.391V314.48H240.091V316.34H241.391V322.44ZM248.473 325.5H250.753V314.48H248.473V325.5ZM249.633 313.02C250.433 313.02 251.073 312.38 251.073 311.56C251.073 310.74 250.433 310.1 249.633 310.1C248.813 310.1 248.173 310.74 248.173 311.56C248.173 312.38 248.813 313.02 249.633 313.02ZM264.246 319.98C264.246 316.52 261.766 314.3 258.626 314.3C255.486 314.3 253.006 316.52 253.006 319.98C253.006 323.44 255.386 325.68 258.526 325.68C261.686 325.68 264.246 323.44 264.246 319.98ZM255.326 319.98C255.326 317.48 256.866 316.28 258.586 316.28C260.286 316.28 261.906 317.48 261.906 319.98C261.906 322.48 260.226 323.7 258.526 323.7C256.806 323.7 255.326 322.48 255.326 319.98ZM274.32 325.5H276.58V319C276.58 315.92 274.64 314.3 272.06 314.3C270.74 314.3 269.52 314.84 268.78 315.74V314.48H266.5V325.5H268.78V319.34C268.78 317.32 269.88 316.28 271.56 316.28C273.22 316.28 274.32 317.32 274.32 319.34V325.5ZM283.924 319.94C283.924 323.34 286.224 325.68 289.084 325.68C290.924 325.68 292.244 324.8 292.944 323.86V325.5H295.244V314.48H292.944V316.08C292.264 315.18 290.984 314.3 289.124 314.3C286.224 314.3 283.924 316.54 283.924 319.94ZM292.944 319.98C292.944 322.36 291.324 323.7 289.604 323.7C287.904 323.7 286.264 322.32 286.264 319.94C286.264 317.56 287.904 316.28 289.604 316.28C291.324 316.28 292.944 317.62 292.944 319.98ZM306.058 325.5H308.318V319C308.318 315.92 306.378 314.3 303.798 314.3C302.478 314.3 301.258 314.84 300.518 315.74V314.48H298.238V325.5H300.518V319.34C300.518 317.32 301.618 316.28 303.298 316.28C304.958 316.28 306.058 317.32 306.058 319.34V325.5ZM310.467 319.94C310.467 323.34 312.767 325.68 315.667 325.68C317.467 325.68 318.787 324.84 319.487 323.84V325.5H321.787V310.7H319.487V316.02C318.647 314.98 317.127 314.3 315.687 314.3C312.767 314.3 310.467 316.54 310.467 319.94ZM319.487 319.98C319.487 322.36 317.867 323.7 316.147 323.7C314.447 323.7 312.807 322.32 312.807 319.94C312.807 317.56 314.447 316.28 316.147 316.28C317.867 316.28 319.487 317.62 319.487 319.98ZM339.357 325.5H341.757L336.777 311.58H334.137L329.157 325.5H331.537L332.537 322.66H338.357L339.357 325.5ZM337.717 320.8H333.177L335.457 314.34L337.717 320.8ZM346.202 319.7C346.202 317.36 347.242 316.66 348.922 316.66H349.502V314.3C347.942 314.3 346.842 314.98 346.202 316.08V314.48H343.922V325.5H346.202V319.7ZM350.838 319.98C350.838 323.44 353.078 325.68 356.238 325.68C358.938 325.68 360.698 324.18 361.318 322.02H358.858C358.438 323.16 357.598 323.76 356.238 323.76C354.398 323.76 353.178 322.4 353.178 319.98C353.178 317.58 354.398 316.22 356.238 316.22C357.598 316.22 358.478 316.9 358.858 317.96H361.318C360.698 315.64 358.938 314.3 356.238 314.3C353.078 314.3 350.838 316.54 350.838 319.98ZM363.59 325.5H365.87V319.34C365.87 317.32 366.97 316.28 368.65 316.28C370.31 316.28 371.41 317.32 371.41 319.34V325.5H373.67V319C373.67 315.92 371.75 314.3 369.29 314.3C367.87 314.3 366.63 314.84 365.87 315.76V310.7H363.59V325.5ZM376.578 325.5H378.858V314.48H376.578V325.5ZM377.738 313.02C378.538 313.02 379.178 312.38 379.178 311.56C379.178 310.74 378.538 310.1 377.738 310.1C376.918 310.1 376.278 310.74 376.278 311.56C376.278 312.38 376.918 313.02 377.738 313.02ZM382.212 322.44C382.212 324.68 383.432 325.5 385.392 325.5H387.192V323.6H385.792C384.832 323.6 384.512 323.26 384.512 322.44V316.34H387.192V314.48H384.512V311.74H382.212V314.48H380.912V316.34H382.212V322.44ZM393.933 316.22C395.633 316.22 396.973 317.3 397.013 319H390.913C391.153 317.26 392.393 316.22 393.933 316.22ZM399.093 322.22H396.633C396.213 323.08 395.433 323.76 394.033 323.76C392.353 323.76 391.053 322.66 390.893 320.84H399.313C399.373 320.46 399.393 320.1 399.393 319.72C399.393 316.48 397.173 314.3 394.033 314.3C390.773 314.3 388.533 316.52 388.533 319.98C388.533 323.44 390.873 325.68 394.033 325.68C396.733 325.68 398.473 324.14 399.093 322.22ZM400.877 319.98C400.877 323.44 403.117 325.68 406.277 325.68C408.977 325.68 410.737 324.18 411.357 322.02H408.897C408.477 323.16 407.637 323.76 406.277 323.76C404.437 323.76 403.217 322.4 403.217 319.98C403.217 317.58 404.437 316.22 406.277 316.22C407.637 316.22 408.517 316.9 408.897 317.96H411.357C410.737 315.64 408.977 314.3 406.277 314.3C403.117 314.3 400.877 316.54 400.877 319.98ZM413.989 322.44C413.989 324.68 415.209 325.5 417.169 325.5H418.969V323.6H417.569C416.609 323.6 416.289 323.26 416.289 322.44V316.34H418.969V314.48H416.289V311.74H413.989V314.48H412.689V316.34H413.989V322.44ZM431.05 314.48H428.77V320.62C428.77 322.64 427.67 323.68 425.99 323.68C424.33 323.68 423.23 322.64 423.23 320.62V314.48H420.97V320.96C420.97 324.04 422.93 325.66 425.51 325.66C426.81 325.66 428.05 325.12 428.77 324.18V325.5H431.05V314.48ZM436.339 319.7C436.339 317.36 437.379 316.66 439.059 316.66H439.639V314.3C438.079 314.3 436.979 314.98 436.339 316.08V314.48H434.059V325.5H436.339V319.7ZM446.374 316.22C448.074 316.22 449.414 317.3 449.454 319H443.354C443.594 317.26 444.834 316.22 446.374 316.22ZM451.534 322.22H449.074C448.654 323.08 447.874 323.76 446.474 323.76C444.794 323.76 443.494 322.66 443.334 320.84H451.754C451.814 320.46 451.834 320.1 451.834 319.72C451.834 316.48 449.614 314.3 446.474 314.3C443.214 314.3 440.974 316.52 440.974 319.98C440.974 323.44 443.314 325.68 446.474 325.68C449.174 325.68 450.914 324.14 451.534 322.22Z" fill="#212832"/>
<rect x="0.5" y="293.5" width="616" height="49" stroke="black" stroke-opacity="0.5"/>
</svg>
