<svg width="1226" height="199" viewBox="0 0 1226 199" fill="none" xmlns="http://www.w3.org/2000/svg">
<g filter="url(#filter0_d_955_3)">
<rect x="24" y="1" width="365" height="47" fill="white" shape-rendering="crispEdges"/>
<rect x="23.7658" y="0.765849" width="365.468" height="47.4683" stroke="black" stroke-opacity="0.2" stroke-width="0.468302" shape-rendering="crispEdges"/>
</g>
<path d="M133.225 19.164H136.573V30H138.625V19.164H141.955V17.49H133.225V19.164ZM148.21 21.648C149.74 21.648 150.946 22.62 150.982 24.15H145.492C145.708 22.584 146.824 21.648 148.21 21.648ZM152.854 27.048H150.64C150.262 27.822 149.56 28.434 148.3 28.434C146.788 28.434 145.618 27.444 145.474 25.806H153.052C153.106 25.464 153.124 25.14 153.124 24.798C153.124 21.882 151.126 19.92 148.3 19.92C145.366 19.92 143.35 21.918 143.35 25.032C143.35 28.146 145.456 30.162 148.3 30.162C150.73 30.162 152.296 28.776 152.854 27.048ZM154.459 25.032C154.459 28.146 156.475 30.162 159.319 30.162C161.749 30.162 163.333 28.812 163.891 26.868H161.677C161.299 27.894 160.543 28.434 159.319 28.434C157.663 28.434 156.565 27.21 156.565 25.032C156.565 22.872 157.663 21.648 159.319 21.648C160.543 21.648 161.335 22.26 161.677 23.214H163.891C163.333 21.126 161.749 19.92 159.319 19.92C156.475 19.92 154.459 21.936 154.459 25.032ZM165.936 30H167.988V24.456C167.988 22.638 168.978 21.702 170.49 21.702C171.984 21.702 172.974 22.638 172.974 24.456V30H175.008V24.15C175.008 21.378 173.28 19.92 171.066 19.92C169.788 19.92 168.672 20.406 167.988 21.234V16.68H165.936V30ZM184.663 30H186.697V24.15C186.697 21.378 184.951 19.92 182.629 19.92C181.441 19.92 180.343 20.406 179.677 21.216V20.082H177.625V30H179.677V24.456C179.677 22.638 180.667 21.702 182.179 21.702C183.673 21.702 184.663 22.638 184.663 24.456V30ZM189.315 30H191.367V20.082H189.315V30ZM190.359 18.768C191.079 18.768 191.655 18.192 191.655 17.454C191.655 16.716 191.079 16.14 190.359 16.14C189.621 16.14 189.045 16.716 189.045 17.454C189.045 18.192 189.621 18.768 190.359 18.768ZM193.377 25.032C193.377 28.146 195.393 30.162 198.237 30.162C200.667 30.162 202.251 28.812 202.809 26.868H200.595C200.217 27.894 199.461 28.434 198.237 28.434C196.581 28.434 195.483 27.21 195.483 25.032C195.483 22.872 196.581 21.648 198.237 21.648C199.461 21.648 200.253 22.26 200.595 23.214H202.809C202.251 21.126 200.667 19.92 198.237 19.92C195.393 19.92 193.377 21.936 193.377 25.032ZM204.17 24.996C204.17 28.056 206.24 30.162 208.814 30.162C210.47 30.162 211.658 29.37 212.288 28.524V30H214.358V20.082H212.288V21.522C211.676 20.712 210.524 19.92 208.85 19.92C206.24 19.92 204.17 21.936 204.17 24.996ZM212.288 25.032C212.288 27.174 210.83 28.38 209.282 28.38C207.752 28.38 206.276 27.138 206.276 24.996C206.276 22.854 207.752 21.702 209.282 21.702C210.83 21.702 212.288 22.908 212.288 25.032ZM217.053 30H219.105V16.68H217.053V30ZM229.013 30.018L231.317 30L234.107 20.532L236.735 30H239.057L242.765 17.49H240.569L237.959 27.624L235.349 17.49H233.045L230.237 27.678L227.645 17.49H225.467L229.013 30.018ZM246.509 24.78C246.509 22.674 247.445 22.044 248.957 22.044H249.479V19.92C248.075 19.92 247.085 20.532 246.509 21.522V20.082H244.457V30H246.509V24.78ZM251.366 30H253.418V20.082H251.366V30ZM252.41 18.768C253.13 18.768 253.706 18.192 253.706 17.454C253.706 16.716 253.13 16.14 252.41 16.14C251.672 16.14 251.096 16.716 251.096 17.454C251.096 18.192 251.672 18.768 252.41 18.768ZM256.436 27.246C256.436 29.262 257.534 30 259.298 30H260.918V28.29H259.658C258.794 28.29 258.506 27.984 258.506 27.246V21.756H260.918V20.082H258.506V17.616H256.436V20.082H255.266V21.756H256.436V27.246ZM266.985 21.648C268.515 21.648 269.721 22.62 269.757 24.15H264.267C264.483 22.584 265.599 21.648 266.985 21.648ZM271.629 27.048H269.415C269.037 27.822 268.335 28.434 267.075 28.434C265.563 28.434 264.393 27.444 264.249 25.806H271.827C271.881 25.464 271.899 25.14 271.899 24.798C271.899 21.882 269.901 19.92 267.075 19.92C264.141 19.92 262.125 21.918 262.125 25.032C262.125 28.146 264.231 30.162 267.075 30.162C269.505 30.162 271.071 28.776 271.629 27.048ZM275.97 24.78C275.97 22.674 276.906 22.044 278.418 22.044H278.94V19.92C277.536 19.92 276.546 20.532 275.97 21.522V20.082H273.918V30H275.97V24.78Z" fill="#212832"/>
<path d="M389 1H387V48H389V1Z" fill="#946FB0" stroke="#946FB0" stroke-width="0.936604"/>
<circle cx="24.4151" cy="24.4151" r="23.4151" fill="#946FB0" stroke="#946FB0"/>
<path d="M16.3494 23.9942C16.3494 27.9654 17.3983 30.9625 21.2197 30.9625C25.041 30.9625 26.09 27.9654 26.09 23.9942C26.09 20.0979 25.041 17.1008 21.2197 17.1008C17.3983 17.1008 16.3494 20.0979 16.3494 23.9942ZM23.992 23.9942C23.992 26.6729 23.7111 29.0144 21.2197 29.0144C18.7283 29.0144 18.4473 26.6729 18.4473 23.9942C18.4473 21.4466 18.7283 19.0489 21.2197 19.0489C23.7111 19.0489 23.992 21.4466 23.992 23.9942ZM29.8107 31H31.9649V17.3443H28.0686V19.2925H29.8107V31Z" fill="#212832"/>
<g filter="url(#filter1_d_955_3)">
<rect x="24" y="76" width="365" height="47" fill="white" shape-rendering="crispEdges"/>
<rect x="23.7658" y="75.7658" width="365.468" height="47.4683" stroke="black" stroke-opacity="0.2" stroke-width="0.468302" shape-rendering="crispEdges"/>
</g>
<g filter="url(#filter2_d_955_3)">
<rect x="24" y="151" width="365" height="47" fill="white" shape-rendering="crispEdges"/>
<rect x="23.7658" y="150.766" width="365.468" height="47.4683" stroke="black" stroke-opacity="0.2" stroke-width="0.468302" shape-rendering="crispEdges"/>
</g>
<path d="M123.199 102.454C123.199 97.882 116.575 99.646 116.575 96.82C116.575 95.614 117.493 95.038 118.681 95.074C119.977 95.11 120.715 95.884 120.787 96.73H123.055C122.875 94.588 121.183 93.328 118.789 93.328C116.233 93.328 114.487 94.696 114.487 96.892C114.487 101.5 121.129 99.538 121.129 102.562C121.129 103.624 120.319 104.398 118.879 104.398C117.457 104.398 116.737 103.57 116.647 102.544H114.451C114.451 104.758 116.377 106.126 118.879 106.126C121.669 106.126 123.199 104.326 123.199 102.454ZM135.071 101.032C135.071 97.918 132.839 95.92 130.013 95.92C127.187 95.92 124.955 97.918 124.955 101.032C124.955 104.146 127.097 106.162 129.923 106.162C132.767 106.162 135.071 104.146 135.071 101.032ZM127.043 101.032C127.043 98.782 128.429 97.702 129.977 97.702C131.507 97.702 132.965 98.782 132.965 101.032C132.965 103.282 131.453 104.38 129.923 104.38C128.375 104.38 127.043 103.282 127.043 101.032ZM137.351 106H139.421V97.756H141.257V96.082H139.421V95.38C139.421 94.246 139.853 93.814 141.113 93.814V92.104C138.521 92.104 137.351 93.094 137.351 95.38V96.082H136.181V97.756H137.351V106ZM143.4 103.246C143.4 105.262 144.498 106 146.262 106H147.882V104.29H146.622C145.758 104.29 145.47 103.984 145.47 103.246V97.756H147.882V96.082H145.47V93.616H143.4V96.082H142.23V97.756H143.4V103.246ZM151.699 106H153.859L155.857 98.674L157.855 106H160.015L163.093 96.082H161.077L159.025 104.02L157.009 96.082H154.867L152.761 104.056L150.691 96.082H148.603L151.699 106ZM163.942 100.996C163.942 104.056 166.012 106.162 168.586 106.162C170.242 106.162 171.43 105.37 172.06 104.524V106H174.13V96.082H172.06V97.522C171.448 96.712 170.296 95.92 168.622 95.92C166.012 95.92 163.942 97.936 163.942 100.996ZM172.06 101.032C172.06 103.174 170.602 104.38 169.054 104.38C167.524 104.38 166.048 103.138 166.048 100.996C166.048 98.854 167.524 97.702 169.054 97.702C170.602 97.702 172.06 98.908 172.06 101.032ZM178.878 100.78C178.878 98.674 179.814 98.044 181.326 98.044H181.848V95.92C180.444 95.92 179.454 96.532 178.878 97.522V96.082H176.826V106H178.878V100.78ZM187.91 97.648C189.44 97.648 190.646 98.62 190.682 100.15H185.192C185.408 98.584 186.524 97.648 187.91 97.648ZM192.554 103.048H190.34C189.962 103.822 189.26 104.434 188 104.434C186.488 104.434 185.318 103.444 185.174 101.806H192.752C192.806 101.464 192.824 101.14 192.824 100.798C192.824 97.882 190.826 95.92 188 95.92C185.066 95.92 183.05 97.918 183.05 101.032C183.05 104.146 185.156 106.162 188 106.162C190.43 106.162 191.996 104.776 192.554 103.048ZM198.835 99.718C198.835 103.48 201.697 106.108 205.225 106.108C207.835 106.108 210.085 104.812 211.039 102.364H208.573C207.907 103.696 206.719 104.326 205.225 104.326C202.741 104.326 200.941 102.544 200.941 99.718C200.941 96.892 202.741 95.128 205.225 95.128C206.719 95.128 207.907 95.758 208.573 97.09H211.039C210.085 94.642 207.835 93.328 205.225 93.328C201.697 93.328 198.835 95.974 198.835 99.718ZM222.891 101.032C222.891 97.918 220.659 95.92 217.833 95.92C215.007 95.92 212.775 97.918 212.775 101.032C212.775 104.146 214.917 106.162 217.743 106.162C220.587 106.162 222.891 104.146 222.891 101.032ZM214.863 101.032C214.863 98.782 216.249 97.702 217.797 97.702C219.327 97.702 220.785 98.782 220.785 101.032C220.785 103.282 219.273 104.38 217.743 104.38C216.195 104.38 214.863 103.282 214.863 101.032ZM231.957 106H233.991V100.15C233.991 97.378 232.245 95.92 229.923 95.92C228.735 95.92 227.637 96.406 226.971 97.216V96.082H224.919V106H226.971V100.456C226.971 98.638 227.961 97.702 229.473 97.702C230.967 97.702 231.957 98.638 231.957 100.456V106ZM244.007 103.228C243.899 99.646 238.301 100.762 238.301 98.764C238.301 98.098 238.877 97.648 239.975 97.648C241.091 97.648 241.757 98.242 241.829 99.106H243.881C243.773 97.126 242.297 95.92 240.047 95.92C237.707 95.92 236.231 97.198 236.231 98.782C236.231 102.418 241.991 101.302 241.991 103.246C241.991 103.93 241.361 104.434 240.173 104.434C239.039 104.434 238.265 103.768 238.193 102.958H236.069C236.159 104.758 237.833 106.162 240.209 106.162C242.549 106.162 244.007 104.902 244.007 103.228ZM255.206 96.082H253.154V101.608C253.154 103.426 252.164 104.362 250.652 104.362C249.158 104.362 248.168 103.426 248.168 101.608V96.082H246.134V101.914C246.134 104.686 247.898 106.144 250.22 106.144C251.39 106.144 252.506 105.658 253.154 104.812V106H255.206V96.082ZM257.913 106H259.965V92.68H257.913V106ZM262.984 103.246C262.984 105.262 264.082 106 265.846 106H267.466V104.29H266.206C265.342 104.29 265.054 103.984 265.054 103.246V97.756H267.466V96.082H265.054V93.616H262.984V96.082H261.814V97.756H262.984V103.246ZM268.673 100.996C268.673 104.056 270.743 106.162 273.317 106.162C274.973 106.162 276.161 105.37 276.791 104.524V106H278.861V96.082H276.791V97.522C276.179 96.712 275.027 95.92 273.353 95.92C270.743 95.92 268.673 97.936 268.673 100.996ZM276.791 101.032C276.791 103.174 275.333 104.38 273.785 104.38C272.255 104.38 270.779 103.138 270.779 100.996C270.779 98.854 272.255 97.702 273.785 97.702C275.333 97.702 276.791 98.908 276.791 101.032ZM288.594 106H290.628V100.15C290.628 97.378 288.882 95.92 286.56 95.92C285.372 95.92 284.274 96.406 283.608 97.216V96.082H281.556V106H283.608V100.456C283.608 98.638 284.598 97.702 286.11 97.702C287.604 97.702 288.594 98.638 288.594 100.456V106ZM293.57 103.246C293.57 105.262 294.668 106 296.432 106H298.052V104.29H296.792C295.928 104.29 295.64 103.984 295.64 103.246V97.756H298.052V96.082H295.64V93.616H293.57V96.082H292.4V97.756H293.57V103.246Z" fill="#212832"/>
<path d="M136.818 174.718C136.818 178.48 139.68 181.108 143.208 181.108C145.818 181.108 148.068 179.812 149.022 177.364H146.556C145.89 178.696 144.702 179.326 143.208 179.326C140.724 179.326 138.924 177.544 138.924 174.718C138.924 171.892 140.724 170.128 143.208 170.128C144.702 170.128 145.89 170.758 146.556 172.09H149.022C148.068 169.642 145.818 168.328 143.208 168.328C139.68 168.328 136.818 170.974 136.818 174.718ZM151.424 181H153.476V167.68H151.424V181ZM165.62 176.032C165.62 172.918 163.388 170.92 160.562 170.92C157.736 170.92 155.504 172.918 155.504 176.032C155.504 179.146 157.646 181.162 160.472 181.162C163.316 181.162 165.62 179.146 165.62 176.032ZM157.592 176.032C157.592 173.782 158.978 172.702 160.526 172.702C162.056 172.702 163.514 173.782 163.514 176.032C163.514 178.282 162.002 179.38 160.472 179.38C158.924 179.38 157.592 178.282 157.592 176.032ZM176.631 171.082H174.579V176.608C174.579 178.426 173.589 179.362 172.077 179.362C170.583 179.362 169.593 178.426 169.593 176.608V171.082H167.559V176.914C167.559 179.686 169.323 181.144 171.645 181.144C172.815 181.144 173.931 180.658 174.579 179.812V181H176.631V171.082ZM178.654 175.996C178.654 179.056 180.724 181.162 183.334 181.162C184.954 181.162 186.142 180.406 186.772 179.506V181H188.842V167.68H186.772V172.468C186.016 171.532 184.648 170.92 183.352 170.92C180.724 170.92 178.654 172.936 178.654 175.996ZM186.772 176.032C186.772 178.174 185.314 179.38 183.766 179.38C182.236 179.38 180.76 178.138 180.76 175.996C180.76 173.854 182.236 172.702 183.766 172.702C185.314 172.702 186.772 173.908 186.772 176.032ZM204.655 181H206.815L202.333 168.472H199.957L195.475 181H197.617L198.517 178.444H203.755L204.655 181ZM203.179 176.77H199.093L201.145 170.956L203.179 176.77ZM210.816 175.78C210.816 173.674 211.752 173.044 213.264 173.044H213.786V170.92C212.382 170.92 211.392 171.532 210.816 172.522V171.082H208.764V181H210.816V175.78ZM214.988 176.032C214.988 179.146 217.004 181.162 219.848 181.162C222.278 181.162 223.862 179.812 224.42 177.868H222.206C221.828 178.894 221.072 179.434 219.848 179.434C218.192 179.434 217.094 178.21 217.094 176.032C217.094 173.872 218.192 172.648 219.848 172.648C221.072 172.648 221.864 173.26 222.206 174.214H224.42C223.862 172.126 222.278 170.92 219.848 170.92C217.004 170.92 214.988 172.936 214.988 176.032ZM226.465 181H228.517V175.456C228.517 173.638 229.507 172.702 231.019 172.702C232.513 172.702 233.503 173.638 233.503 175.456V181H235.537V175.15C235.537 172.378 233.809 170.92 231.595 170.92C230.317 170.92 229.201 171.406 228.517 172.234V167.68H226.465V181ZM238.155 181H240.207V171.082H238.155V181ZM239.199 169.768C239.919 169.768 240.495 169.192 240.495 168.454C240.495 167.716 239.919 167.14 239.199 167.14C238.461 167.14 237.885 167.716 237.885 168.454C237.885 169.192 238.461 169.768 239.199 169.768ZM243.225 178.246C243.225 180.262 244.323 181 246.087 181H247.707V179.29H246.447C245.583 179.29 245.295 178.984 245.295 178.246V172.756H247.707V171.082H245.295V168.616H243.225V171.082H242.055V172.756H243.225V178.246ZM253.774 172.648C255.304 172.648 256.51 173.62 256.546 175.15H251.056C251.272 173.584 252.388 172.648 253.774 172.648ZM258.418 178.048H256.204C255.826 178.822 255.124 179.434 253.864 179.434C252.352 179.434 251.182 178.444 251.038 176.806H258.616C258.67 176.464 258.688 176.14 258.688 175.798C258.688 172.882 256.69 170.92 253.864 170.92C250.93 170.92 248.914 172.918 248.914 176.032C248.914 179.146 251.02 181.162 253.864 181.162C256.294 181.162 257.86 179.776 258.418 178.048ZM260.023 176.032C260.023 179.146 262.039 181.162 264.883 181.162C267.313 181.162 268.897 179.812 269.455 177.868H267.241C266.863 178.894 266.107 179.434 264.883 179.434C263.227 179.434 262.129 178.21 262.129 176.032C262.129 173.872 263.227 172.648 264.883 172.648C266.107 172.648 266.899 173.26 267.241 174.214H269.455C268.897 172.126 267.313 170.92 264.883 170.92C262.039 170.92 260.023 172.936 260.023 176.032ZM271.824 178.246C271.824 180.262 272.922 181 274.686 181H276.306V179.29H275.046C274.182 179.29 273.894 178.984 273.894 178.246V172.756H276.306V171.082H273.894V168.616H271.824V171.082H270.654V172.756H271.824V178.246Z" fill="#212832"/>
<path d="M389 76H387V123H389V76Z" fill="#CF1C54" stroke="#CF1C54" stroke-width="0.936604"/>
<path d="M389 151H387V198H389V151Z" fill="#E9D733" stroke="#E9D733" stroke-width="0.936604"/>
<circle cx="24.4151" cy="99.4151" r="23.4151" fill="#E9336C" stroke="#E9336C"/>
<circle cx="24.4151" cy="174.415" r="23.4151" fill="#E9D733" stroke="#E9D733"/>
<path d="M13.4777 99.6055C13.4777 103.577 14.5267 106.574 18.348 106.574C22.1694 106.574 23.2184 103.577 23.2184 99.6055C23.2184 95.7093 22.1694 92.7121 18.348 92.7121C14.5267 92.7121 13.4777 95.7093 13.4777 99.6055ZM21.1204 99.6055C21.1204 102.284 20.8394 104.626 18.348 104.626C15.8567 104.626 15.5757 102.284 15.5757 99.6055C15.5757 97.058 15.8567 94.6603 18.348 94.6603C20.8394 94.6603 21.1204 97.058 21.1204 99.6055ZM31.9967 106.611H34.0947V103.764H35.8368V101.91H34.0947V93.1242H31.5097L25.2157 102.153V103.764H31.9967V106.611ZM27.6696 101.91L32.0904 95.2972V101.91H27.6696Z" fill="#212832"/>
<path d="M14.3009 174.606C14.3009 178.577 15.3499 181.574 19.1712 181.574C22.9926 181.574 24.0416 178.577 24.0416 174.606C24.0416 170.709 22.9926 167.712 19.1712 167.712C15.3499 167.712 14.3009 170.709 14.3009 174.606ZM21.9436 174.606C21.9436 177.284 21.6626 179.626 19.1712 179.626C16.6799 179.626 16.3989 177.284 16.3989 174.606C16.3989 172.058 16.6799 169.66 19.1712 169.66C21.6626 169.66 21.9436 172.058 21.9436 174.606ZM25.9265 168.012V169.829H32.8573L27.5936 181.611H29.7478L34.9553 169.604V168.012H25.9265Z" fill="#212832"/>
<g filter="url(#filter3_d_955_3)">
<rect x="436" y="76" width="365" height="47" fill="white" shape-rendering="crispEdges"/>
<rect x="435.766" y="75.7658" width="365.468" height="47.4683" stroke="black" stroke-opacity="0.2" stroke-width="0.468302" shape-rendering="crispEdges"/>
</g>
<g filter="url(#filter4_d_955_3)">
<rect x="436" y="151" width="365" height="47" fill="white" shape-rendering="crispEdges"/>
<rect x="435.766" y="150.766" width="365.468" height="47.4683" stroke="black" stroke-opacity="0.2" stroke-width="0.468302" shape-rendering="crispEdges"/>
</g>
<path d="M558.835 106.018L561.139 106L563.929 96.532L566.557 106H568.879L572.587 93.49H570.391L567.781 103.624L565.171 93.49H562.867L560.059 103.678L557.467 93.49H555.289L558.835 106.018ZM578.456 97.648C579.986 97.648 581.192 98.62 581.228 100.15H575.738C575.954 98.584 577.07 97.648 578.456 97.648ZM583.1 103.048H580.886C580.508 103.822 579.806 104.434 578.546 104.434C577.034 104.434 575.864 103.444 575.72 101.806H583.298C583.352 101.464 583.37 101.14 583.37 100.798C583.37 97.882 581.372 95.92 578.546 95.92C575.612 95.92 573.596 97.918 573.596 101.032C573.596 104.146 575.702 106.162 578.546 106.162C580.976 106.162 582.542 104.776 583.1 103.048ZM587.441 97.558V92.68H585.389V106H587.441V104.56C588.089 105.424 589.259 106.162 590.897 106.162C593.507 106.162 595.559 104.056 595.559 100.996C595.559 97.936 593.525 95.92 590.897 95.92C589.331 95.92 588.089 96.658 587.441 97.558ZM593.471 100.996C593.471 103.138 591.995 104.38 590.447 104.38C588.917 104.38 587.441 103.174 587.441 101.032C587.441 98.908 588.917 97.702 590.447 97.702C591.995 97.702 593.471 98.854 593.471 100.996ZM606.35 93.49H602.264V106H606.35C610.364 106 612.992 103.642 612.992 99.79C612.992 95.92 610.364 93.49 606.35 93.49ZM604.316 104.326V95.164H606.35C609.302 95.164 610.886 96.928 610.886 99.79C610.886 102.634 609.302 104.326 606.35 104.326H604.316ZM619.202 97.648C620.732 97.648 621.938 98.62 621.974 100.15H616.484C616.7 98.584 617.816 97.648 619.202 97.648ZM623.846 103.048H621.632C621.254 103.822 620.552 104.434 619.292 104.434C617.78 104.434 616.61 103.444 616.466 101.806H624.044C624.098 101.464 624.116 101.14 624.116 100.798C624.116 97.882 622.118 95.92 619.292 95.92C616.358 95.92 614.342 97.918 614.342 101.032C614.342 104.146 616.448 106.162 619.292 106.162C621.722 106.162 623.288 104.776 623.846 103.048ZM633.533 103.228C633.425 99.646 627.827 100.762 627.827 98.764C627.827 98.098 628.403 97.648 629.501 97.648C630.617 97.648 631.283 98.242 631.355 99.106H633.407C633.299 97.126 631.823 95.92 629.573 95.92C627.233 95.92 625.757 97.198 625.757 98.782C625.757 102.418 631.517 101.302 631.517 103.246C631.517 103.93 630.887 104.434 629.699 104.434C628.565 104.434 627.791 103.768 627.719 102.958H625.595C625.685 104.758 627.359 106.162 629.735 106.162C632.075 106.162 633.533 104.902 633.533 103.228ZM635.75 106H637.802V96.082H635.75V106ZM636.794 94.768C637.514 94.768 638.09 94.192 638.09 93.454C638.09 92.716 637.514 92.14 636.794 92.14C636.056 92.14 635.48 92.716 635.48 93.454C635.48 94.192 636.056 94.768 636.794 94.768ZM639.812 100.996C639.812 104.056 641.882 106.162 644.492 106.162C646.112 106.162 647.3 105.352 647.93 104.506V106.162C647.93 108.142 646.742 109.114 645.158 109.114C643.736 109.114 642.638 108.412 642.332 107.386H640.298C640.55 109.582 642.512 110.896 645.158 110.896C648.254 110.896 650 108.862 650 106.162V96.082H647.93V97.522C647.318 96.676 646.112 95.92 644.492 95.92C641.882 95.92 639.812 97.936 639.812 100.996ZM647.93 101.032C647.93 103.174 646.472 104.38 644.924 104.38C643.394 104.38 641.918 103.138 641.918 100.996C641.918 98.854 643.394 97.702 644.924 97.702C646.472 97.702 647.93 98.908 647.93 101.032ZM659.734 106H661.768V100.15C661.768 97.378 660.022 95.92 657.7 95.92C656.512 95.92 655.414 96.406 654.748 97.216V96.082H652.696V106H654.748V100.456C654.748 98.638 655.738 97.702 657.25 97.702C658.744 97.702 659.734 98.638 659.734 100.456V106ZM668.561 97.648C670.091 97.648 671.297 98.62 671.333 100.15H665.843C666.059 98.584 667.175 97.648 668.561 97.648ZM673.205 103.048H670.991C670.613 103.822 669.911 104.434 668.651 104.434C667.139 104.434 665.969 103.444 665.825 101.806H673.403C673.457 101.464 673.475 101.14 673.475 100.798C673.475 97.882 671.477 95.92 668.651 95.92C665.717 95.92 663.701 97.918 663.701 101.032C663.701 104.146 665.807 106.162 668.651 106.162C671.081 106.162 672.647 104.776 673.205 103.048ZM677.547 100.78C677.547 98.674 678.483 98.044 679.995 98.044H680.517V95.92C679.113 95.92 678.123 96.532 677.547 97.522V96.082H675.495V106H677.547V100.78Z" fill="#212832"/>
<path d="M553.508 181.018L555.812 181L558.602 171.532L561.23 181H563.552L567.26 168.49H565.064L562.454 178.624L559.844 168.49H557.54L554.732 178.678L552.14 168.49H549.962L553.508 181.018ZM573.129 172.648C574.659 172.648 575.865 173.62 575.901 175.15H570.411C570.627 173.584 571.743 172.648 573.129 172.648ZM577.773 178.048H575.559C575.181 178.822 574.479 179.434 573.219 179.434C571.707 179.434 570.537 178.444 570.393 176.806H577.971C578.025 176.464 578.043 176.14 578.043 175.798C578.043 172.882 576.045 170.92 573.219 170.92C570.285 170.92 568.269 172.918 568.269 176.032C568.269 179.146 570.375 181.162 573.219 181.162C575.649 181.162 577.215 179.776 577.773 178.048ZM582.114 172.558V167.68H580.062V181H582.114V179.56C582.762 180.424 583.932 181.162 585.57 181.162C588.18 181.162 590.232 179.056 590.232 175.996C590.232 172.936 588.198 170.92 585.57 170.92C584.004 170.92 582.762 171.658 582.114 172.558ZM588.144 175.996C588.144 178.138 586.668 179.38 585.12 179.38C583.59 179.38 582.114 178.174 582.114 176.032C582.114 173.908 583.59 172.702 585.12 172.702C586.668 172.702 588.144 173.854 588.144 175.996ZM601.023 168.49H596.937V181H601.023C605.037 181 607.665 178.642 607.665 174.79C607.665 170.92 605.037 168.49 601.023 168.49ZM598.989 179.326V170.164H601.023C603.975 170.164 605.559 171.928 605.559 174.79C605.559 177.634 603.975 179.326 601.023 179.326H598.989ZM613.875 172.648C615.405 172.648 616.611 173.62 616.647 175.15H611.157C611.373 173.584 612.489 172.648 613.875 172.648ZM618.519 178.048H616.305C615.927 178.822 615.225 179.434 613.965 179.434C612.453 179.434 611.283 178.444 611.139 176.806H618.717C618.771 176.464 618.789 176.14 618.789 175.798C618.789 172.882 616.791 170.92 613.965 170.92C611.031 170.92 609.015 172.918 609.015 176.032C609.015 179.146 611.121 181.162 613.965 181.162C616.395 181.162 617.961 179.776 618.519 178.048ZM619.638 171.082L623.4 181H625.848L629.628 171.082H627.45L624.642 179.164L621.834 171.082H619.638ZM635.355 172.648C636.885 172.648 638.091 173.62 638.127 175.15H632.637C632.853 173.584 633.969 172.648 635.355 172.648ZM639.999 178.048H637.785C637.407 178.822 636.705 179.434 635.445 179.434C633.933 179.434 632.763 178.444 632.619 176.806H640.197C640.251 176.464 640.269 176.14 640.269 175.798C640.269 172.882 638.271 170.92 635.445 170.92C632.511 170.92 630.495 172.918 630.495 176.032C630.495 179.146 632.601 181.162 635.445 181.162C637.875 181.162 639.441 179.776 639.999 178.048ZM642.288 181H644.34V167.68H642.288V181ZM656.485 176.032C656.485 172.918 654.253 170.92 651.427 170.92C648.601 170.92 646.369 172.918 646.369 176.032C646.369 179.146 648.511 181.162 651.337 181.162C654.181 181.162 656.485 179.146 656.485 176.032ZM648.457 176.032C648.457 173.782 649.843 172.702 651.391 172.702C652.921 172.702 654.379 173.782 654.379 176.032C654.379 178.282 652.867 179.38 651.337 179.38C649.789 179.38 648.457 178.282 648.457 176.032ZM660.565 172.54V171.082H658.513V185.716H660.565V179.56C661.213 180.334 662.383 181.162 664.021 181.162C666.631 181.162 668.683 179.056 668.683 175.996C668.683 172.936 666.631 170.92 664.021 170.92C662.401 170.92 661.195 171.712 660.565 172.54ZM666.595 175.996C666.595 178.138 665.119 179.38 663.571 179.38C662.041 179.38 660.565 178.174 660.565 176.032C660.565 173.908 662.041 172.702 663.571 172.702C665.119 172.702 666.595 173.854 666.595 175.996ZM674.888 172.648C676.418 172.648 677.624 173.62 677.66 175.15H672.17C672.386 173.584 673.502 172.648 674.888 172.648ZM679.532 178.048H677.318C676.94 178.822 676.238 179.434 674.978 179.434C673.466 179.434 672.296 178.444 672.152 176.806H679.73C679.784 176.464 679.802 176.14 679.802 175.798C679.802 172.882 677.804 170.92 674.978 170.92C672.044 170.92 670.028 172.918 670.028 176.032C670.028 179.146 672.134 181.162 674.978 181.162C677.408 181.162 678.974 179.776 679.532 178.048ZM683.874 175.78C683.874 173.674 684.81 173.044 686.322 173.044H686.844V170.92C685.44 170.92 684.45 171.532 683.874 172.522V171.082H681.822V181H683.874V175.78Z" fill="#212832"/>
<path d="M801 76H799V123H801V76Z" fill="#00ADEF" stroke="#00ADEF" stroke-width="0.936604"/>
<path d="M801 151H799V198H801V151Z" fill="#7DD2C3" stroke="#7DD2C3" stroke-width="0.936604"/>
<circle cx="436.415" cy="99.8506" r="23.4151" fill="#00ADEF" stroke="#00ADEF"/>
<circle cx="436.415" cy="174.851" r="23.4151" fill="#7DD2C3" stroke="#7DD2C3"/>
<path d="M425.56 99.6055C425.56 103.577 426.609 106.574 430.43 106.574C434.252 106.574 435.301 103.577 435.301 99.6055C435.301 95.7093 434.252 92.7121 430.43 92.7121C426.609 92.7121 425.56 95.7093 425.56 99.6055ZM433.203 99.6055C433.203 102.284 432.922 104.626 430.43 104.626C427.939 104.626 427.658 102.284 427.658 99.6055C427.658 97.058 427.939 94.6603 430.43 94.6603C432.922 94.6603 433.203 97.058 433.203 99.6055ZM438.122 92.9182V100.804H440.145C440.501 99.7929 441.344 99.0998 442.599 99.0998C444.379 99.0998 445.259 100.111 445.259 101.891C445.259 103.577 444.435 104.832 442.599 104.832C441.157 104.832 440.183 104.082 439.902 102.921H437.823C438.141 105.057 439.771 106.611 442.58 106.611C445.746 106.611 447.301 104.551 447.301 101.835C447.301 99.7741 446.271 97.2828 442.918 97.2828C441.7 97.2828 440.595 97.8447 440.089 98.5191V94.7914H446.364V92.9182H438.122Z" fill="#212832"/>
<path d="M425.569 174.606C425.569 178.577 426.618 181.574 430.44 181.574C434.261 181.574 435.31 178.577 435.31 174.606C435.31 170.709 434.261 167.712 430.44 167.712C426.618 167.712 425.569 170.709 425.569 174.606ZM433.212 174.606C433.212 177.284 432.931 179.626 430.44 179.626C427.948 179.626 427.667 177.284 427.667 174.606C427.667 172.058 427.948 169.66 430.44 169.66C432.931 169.66 433.212 172.058 433.212 174.606ZM439.873 174.474C438.506 174.98 437.588 176.198 437.588 177.846C437.588 180.338 439.611 181.949 442.421 181.949C445.25 181.949 447.273 180.338 447.273 177.846C447.273 176.216 446.355 174.999 444.969 174.474C446.074 173.931 446.917 172.863 446.917 171.402C446.917 169.435 445.437 167.712 442.421 167.712C439.405 167.712 437.925 169.417 437.925 171.402C437.925 172.92 438.712 173.894 439.873 174.474ZM442.421 173.8C440.997 173.8 439.986 172.92 439.986 171.683C439.986 170.241 440.96 169.492 442.421 169.492C443.92 169.492 444.875 170.26 444.875 171.665C444.875 172.901 443.845 173.8 442.421 173.8ZM442.421 175.411C444.032 175.411 445.175 176.235 445.175 177.771C445.175 179.139 444.144 180.169 442.421 180.169C440.679 180.169 439.63 179.157 439.63 177.771C439.63 176.179 440.848 175.411 442.421 175.411Z" fill="#212832"/>
<g filter="url(#filter5_d_955_3)">
<rect x="859" y="76" width="365" height="47" fill="white" shape-rendering="crispEdges"/>
<rect x="858.766" y="75.7658" width="365.468" height="47.4683" stroke="black" stroke-opacity="0.2" stroke-width="0.468302" shape-rendering="crispEdges"/>
</g>
<g filter="url(#filter6_d_955_3)">
<rect x="859" y="151" width="365" height="47" fill="white" shape-rendering="crispEdges"/>
<rect x="858.766" y="150.766" width="365.468" height="47.4683" stroke="black" stroke-opacity="0.2" stroke-width="0.468302" shape-rendering="crispEdges"/>
</g>
<path d="M971.818 99.718C971.818 103.48 974.68 106.108 978.208 106.108C980.818 106.108 983.068 104.812 984.022 102.364H981.556C980.89 103.696 979.702 104.326 978.208 104.326C975.724 104.326 973.924 102.544 973.924 99.718C973.924 96.892 975.724 95.128 978.208 95.128C979.702 95.128 980.89 95.758 981.556 97.09H984.022C983.068 94.642 980.818 93.328 978.208 93.328C974.68 93.328 971.818 95.974 971.818 99.718ZM986.424 106H988.476V92.68H986.424V106ZM1000.62 101.032C1000.62 97.918 998.388 95.92 995.562 95.92C992.736 95.92 990.504 97.918 990.504 101.032C990.504 104.146 992.646 106.162 995.472 106.162C998.316 106.162 1000.62 104.146 1000.62 101.032ZM992.592 101.032C992.592 98.782 993.978 97.702 995.526 97.702C997.056 97.702 998.514 98.782 998.514 101.032C998.514 103.282 997.002 104.38 995.472 104.38C993.924 104.38 992.592 103.282 992.592 101.032ZM1011.63 96.082H1009.58V101.608C1009.58 103.426 1008.59 104.362 1007.08 104.362C1005.58 104.362 1004.59 103.426 1004.59 101.608V96.082H1002.56V101.914C1002.56 104.686 1004.32 106.144 1006.64 106.144C1007.81 106.144 1008.93 105.658 1009.58 104.812V106H1011.63V96.082ZM1013.65 100.996C1013.65 104.056 1015.72 106.162 1018.33 106.162C1019.95 106.162 1021.14 105.406 1021.77 104.506V106H1023.84V92.68H1021.77V97.468C1021.02 96.532 1019.65 95.92 1018.35 95.92C1015.72 95.92 1013.65 97.936 1013.65 100.996ZM1021.77 101.032C1021.77 103.174 1020.31 104.38 1018.77 104.38C1017.24 104.38 1015.76 103.138 1015.76 100.996C1015.76 98.854 1017.24 97.702 1018.77 97.702C1020.31 97.702 1021.77 98.908 1021.77 101.032ZM1039.66 106H1041.82L1037.33 93.472H1034.96L1030.48 106H1032.62L1033.52 103.444H1038.76L1039.66 106ZM1038.18 101.77H1034.09L1036.15 95.956L1038.18 101.77ZM1045.82 100.78C1045.82 98.674 1046.75 98.044 1048.26 98.044H1048.79V95.92C1047.38 95.92 1046.39 96.532 1045.82 97.522V96.082H1043.76V106H1045.82V100.78ZM1049.99 101.032C1049.99 104.146 1052 106.162 1054.85 106.162C1057.28 106.162 1058.86 104.812 1059.42 102.868H1057.21C1056.83 103.894 1056.07 104.434 1054.85 104.434C1053.19 104.434 1052.09 103.21 1052.09 101.032C1052.09 98.872 1053.19 97.648 1054.85 97.648C1056.07 97.648 1056.86 98.26 1057.21 99.214H1059.42C1058.86 97.126 1057.28 95.92 1054.85 95.92C1052 95.92 1049.99 97.936 1049.99 101.032ZM1061.47 106H1063.52V100.456C1063.52 98.638 1064.51 97.702 1066.02 97.702C1067.51 97.702 1068.5 98.638 1068.5 100.456V106H1070.54V100.15C1070.54 97.378 1068.81 95.92 1066.6 95.92C1065.32 95.92 1064.2 96.406 1063.52 97.234V92.68H1061.47V106ZM1073.15 106H1075.21V96.082H1073.15V106ZM1074.2 94.768C1074.92 94.768 1075.49 94.192 1075.49 93.454C1075.49 92.716 1074.92 92.14 1074.2 92.14C1073.46 92.14 1072.88 92.716 1072.88 93.454C1072.88 94.192 1073.46 94.768 1074.2 94.768ZM1078.22 103.246C1078.22 105.262 1079.32 106 1081.09 106H1082.71V104.29H1081.45C1080.58 104.29 1080.29 103.984 1080.29 103.246V97.756H1082.71V96.082H1080.29V93.616H1078.22V96.082H1077.05V97.756H1078.22V103.246ZM1088.77 97.648C1090.3 97.648 1091.51 98.62 1091.55 100.15H1086.06C1086.27 98.584 1087.39 97.648 1088.77 97.648ZM1093.42 103.048H1091.2C1090.83 103.822 1090.12 104.434 1088.86 104.434C1087.35 104.434 1086.18 103.444 1086.04 101.806H1093.62C1093.67 101.464 1093.69 101.14 1093.69 100.798C1093.69 97.882 1091.69 95.92 1088.86 95.92C1085.93 95.92 1083.91 97.918 1083.91 101.032C1083.91 104.146 1086.02 106.162 1088.86 106.162C1091.29 106.162 1092.86 104.776 1093.42 103.048ZM1095.02 101.032C1095.02 104.146 1097.04 106.162 1099.88 106.162C1102.31 106.162 1103.9 104.812 1104.46 102.868H1102.24C1101.86 103.894 1101.11 104.434 1099.88 104.434C1098.23 104.434 1097.13 103.21 1097.13 101.032C1097.13 98.872 1098.23 97.648 1099.88 97.648C1101.11 97.648 1101.9 98.26 1102.24 99.214H1104.46C1103.9 97.126 1102.31 95.92 1099.88 95.92C1097.04 95.92 1095.02 97.936 1095.02 101.032ZM1106.82 103.246C1106.82 105.262 1107.92 106 1109.69 106H1111.31V104.29H1110.05C1109.18 104.29 1108.89 103.984 1108.89 103.246V97.756H1111.31V96.082H1108.89V93.616H1106.82V96.082H1105.65V97.756H1106.82V103.246Z" fill="#212832"/>
<path d="M973.872 177.418C973.872 178.624 973.026 179.326 971.64 179.326H968.868V175.42H971.568C972.936 175.42 973.872 176.176 973.872 177.418ZM973.548 171.964C973.548 173.116 972.738 173.746 971.406 173.746H968.868V170.164H971.406C972.738 170.164 973.548 170.83 973.548 171.964ZM975.924 177.634C975.924 176.14 974.844 174.808 973.512 174.574C974.718 174.142 975.636 173.224 975.636 171.712C975.636 169.948 974.232 168.49 971.586 168.49H966.816V181H971.82C974.376 181 975.924 179.542 975.924 177.634ZM987.136 171.082H985.084V176.608C985.084 178.426 984.094 179.362 982.582 179.362C981.088 179.362 980.098 178.426 980.098 176.608V171.082H978.064V176.914C978.064 179.686 979.828 181.144 982.15 181.144C983.32 181.144 984.436 180.658 985.084 179.812V181H987.136V171.082ZM997.241 178.228C997.133 174.646 991.535 175.762 991.535 173.764C991.535 173.098 992.111 172.648 993.209 172.648C994.325 172.648 994.991 173.242 995.063 174.106H997.115C997.007 172.126 995.531 170.92 993.281 170.92C990.941 170.92 989.465 172.198 989.465 173.782C989.465 177.418 995.225 176.302 995.225 178.246C995.225 178.93 994.595 179.434 993.407 179.434C992.273 179.434 991.499 178.768 991.427 177.958H989.303C989.393 179.758 991.067 181.162 993.443 181.162C995.783 181.162 997.241 179.902 997.241 178.228ZM999.458 181H1001.51V171.082H999.458V181ZM1000.5 169.768C1001.22 169.768 1001.8 169.192 1001.8 168.454C1001.8 167.716 1001.22 167.14 1000.5 167.14C999.764 167.14 999.188 167.716 999.188 168.454C999.188 169.192 999.764 169.768 1000.5 169.768ZM1011.24 181H1013.28V175.15C1013.28 172.378 1011.53 170.92 1009.21 170.92C1008.02 170.92 1006.92 171.406 1006.26 172.216V171.082H1004.2V181H1006.26V175.456C1006.26 173.638 1007.25 172.702 1008.76 172.702C1010.25 172.702 1011.24 173.638 1011.24 175.456V181ZM1020.07 172.648C1021.6 172.648 1022.81 173.62 1022.84 175.15H1017.35C1017.57 173.584 1018.68 172.648 1020.07 172.648ZM1024.71 178.048H1022.5C1022.12 178.822 1021.42 179.434 1020.16 179.434C1018.65 179.434 1017.48 178.444 1017.33 176.806H1024.91C1024.97 176.464 1024.98 176.14 1024.98 175.798C1024.98 172.882 1022.99 170.92 1020.16 170.92C1017.23 170.92 1015.21 172.918 1015.21 176.032C1015.21 179.146 1017.32 181.162 1020.16 181.162C1022.59 181.162 1024.16 179.776 1024.71 178.048ZM1034.4 178.228C1034.29 174.646 1028.7 175.762 1028.7 173.764C1028.7 173.098 1029.27 172.648 1030.37 172.648C1031.49 172.648 1032.15 173.242 1032.22 174.106H1034.28C1034.17 172.126 1032.69 170.92 1030.44 170.92C1028.1 170.92 1026.63 172.198 1026.63 173.782C1026.63 177.418 1032.39 176.302 1032.39 178.246C1032.39 178.93 1031.76 179.434 1030.57 179.434C1029.43 179.434 1028.66 178.768 1028.59 177.958H1026.46C1026.55 179.758 1028.23 181.162 1030.6 181.162C1032.94 181.162 1034.4 179.902 1034.4 178.228ZM1044.02 178.228C1043.91 174.646 1038.31 175.762 1038.31 173.764C1038.31 173.098 1038.89 172.648 1039.98 172.648C1041.1 172.648 1041.77 173.242 1041.84 174.106H1043.89C1043.78 172.126 1042.31 170.92 1040.06 170.92C1037.72 170.92 1036.24 172.198 1036.24 173.782C1036.24 177.418 1042 176.302 1042 178.246C1042 178.93 1041.37 179.434 1040.18 179.434C1039.05 179.434 1038.27 178.768 1038.2 177.958H1036.08C1036.17 179.758 1037.84 181.162 1040.22 181.162C1042.56 181.162 1044.02 179.902 1044.02 178.228ZM1059.35 181H1061.51L1057.03 168.472H1054.65L1050.17 181H1052.31L1053.21 178.444H1058.45L1059.35 181ZM1057.88 176.77H1053.79L1055.84 170.956L1057.88 176.77ZM1070.5 181H1072.53V175.15C1072.53 172.378 1070.79 170.92 1068.46 170.92C1067.28 170.92 1066.18 171.406 1065.51 172.216V171.082H1063.46V181H1065.51V175.456C1065.51 173.638 1066.5 172.702 1068.01 172.702C1069.51 172.702 1070.5 173.638 1070.5 175.456V181ZM1074.47 175.996C1074.47 179.056 1076.54 181.162 1079.11 181.162C1080.77 181.162 1081.95 180.37 1082.58 179.524V181H1084.65V171.082H1082.58V172.522C1081.97 171.712 1080.82 170.92 1079.15 170.92C1076.54 170.92 1074.47 172.936 1074.47 175.996ZM1082.58 176.032C1082.58 178.174 1081.13 179.38 1079.58 179.38C1078.05 179.38 1076.57 178.138 1076.57 175.996C1076.57 173.854 1078.05 172.702 1079.58 172.702C1081.13 172.702 1082.58 173.908 1082.58 176.032ZM1087.35 181H1089.4V167.68H1087.35V181ZM1096 178.642L1093.21 171.082H1090.93L1094.83 180.838L1092.82 185.662H1094.94L1101.02 171.082H1098.9L1096 178.642ZM1109.97 178.228C1109.86 174.646 1104.26 175.762 1104.26 173.764C1104.26 173.098 1104.84 172.648 1105.94 172.648C1107.05 172.648 1107.72 173.242 1107.79 174.106H1109.84C1109.74 172.126 1108.26 170.92 1106.01 170.92C1103.67 170.92 1102.19 172.198 1102.19 173.782C1102.19 177.418 1107.95 176.302 1107.95 178.246C1107.95 178.93 1107.32 179.434 1106.14 179.434C1105 179.434 1104.23 178.768 1104.16 177.958H1102.03C1102.12 179.758 1103.8 181.162 1106.17 181.162C1108.51 181.162 1109.97 179.902 1109.97 178.228ZM1112.51 178.246C1112.51 180.262 1113.61 181 1115.37 181H1116.99V179.29H1115.73C1114.87 179.29 1114.58 178.984 1114.58 178.246V172.756H1116.99V171.082H1114.58V168.616H1112.51V171.082H1111.34V172.756H1112.51V178.246Z" fill="#212832"/>
<path d="M1224 76H1222V123H1224V76Z" fill="#E74C3C" stroke="#E74C3C" stroke-width="0.936604"/>
<path d="M1224 151H1222V198H1224V151Z" fill="#B27DF4" stroke="#B27DF4" stroke-width="0.936604"/>
<circle cx="856.415" cy="99.8506" r="23.4151" fill="#E74C3C" stroke="#E74C3C"/>
<circle cx="856.415" cy="174.851" r="23.4151" fill="#B27DF4" stroke="#B27DF4"/>
<path d="M845.533 99.6055C845.533 103.577 846.582 106.574 850.403 106.574C854.224 106.574 855.273 103.577 855.273 99.6055C855.273 95.7093 854.224 92.7121 850.403 92.7121C846.582 92.7121 845.533 95.7093 845.533 99.6055ZM853.175 99.6055C853.175 102.284 852.894 104.626 850.403 104.626C847.912 104.626 847.631 102.284 847.631 99.6055C847.631 97.058 847.912 94.6603 850.403 94.6603C852.894 94.6603 853.175 97.058 853.175 99.6055ZM866.843 96.1214C866.618 94.3044 865.288 92.6185 862.628 92.6185C859.219 92.6185 857.795 95.2035 857.795 99.4744C857.795 103.82 858.825 106.611 862.797 106.611C865.719 106.611 867.273 104.644 867.273 102.059C867.273 99.2122 865.531 97.5637 863.078 97.5637C861.654 97.5637 860.305 98.1632 859.631 99.2871C859.687 95.7093 860.68 94.398 862.609 94.398C863.958 94.398 864.614 95.0162 864.876 96.1214H866.843ZM862.609 99.362C864.407 99.362 865.232 100.523 865.232 102.153C865.232 103.764 864.258 104.832 862.684 104.832C860.867 104.832 859.874 103.708 859.874 102.022C859.874 100.205 861.204 99.362 862.609 99.362Z" fill="#212832"/>
<path d="M845.597 174.606C845.597 178.577 846.646 181.574 850.467 181.574C854.288 181.574 855.337 178.577 855.337 174.606C855.337 170.709 854.288 167.712 850.467 167.712C846.646 167.712 845.597 170.709 845.597 174.606ZM853.239 174.606C853.239 177.284 852.958 179.626 850.467 179.626C847.976 179.626 847.695 177.284 847.695 174.606C847.695 172.058 847.976 169.66 850.467 169.66C852.958 169.66 853.239 172.058 853.239 174.606ZM858.29 177.902C858.459 179.851 859.77 181.593 862.598 181.593C866.176 181.593 867.15 179.139 867.15 174.531C867.15 170.054 865.97 167.637 862.448 167.637C859.582 167.637 857.915 169.435 857.915 172.152C857.915 175.036 859.863 176.516 862.261 176.516C863.497 176.516 864.678 176.048 865.296 175.186C865.296 178.67 864.434 179.813 862.729 179.813C861.306 179.813 860.5 179.12 860.257 177.902H858.29ZM862.636 174.718C860.744 174.718 859.957 173.5 859.957 172.095C859.957 170.522 860.912 169.417 862.505 169.417C864.059 169.417 865.052 170.41 865.052 172.152C865.052 173.688 864.153 174.718 862.636 174.718Z" fill="#212832"/>
<g filter="url(#filter7_d_955_3)">
<rect x="437" y="1" width="365" height="47" fill="white" shape-rendering="crispEdges"/>
<rect x="436.766" y="0.765849" width="365.468" height="47.4683" stroke="black" stroke-opacity="0.2" stroke-width="0.468302" shape-rendering="crispEdges"/>
</g>
<path d="M802 1H800V48H802V1Z" fill="#A9CF54" stroke="#A9CF54" stroke-width="0.936604"/>
<path d="M545.18 19.164H548.528V30H550.58V19.164H553.91V17.49H545.18V19.164ZM558.04 24.78C558.04 22.674 558.976 22.044 560.488 22.044H561.01V19.92C559.606 19.92 558.616 20.532 558.04 21.522V20.082H555.988V30H558.04V24.78ZM572.346 25.032C572.346 21.918 570.114 19.92 567.288 19.92C564.462 19.92 562.23 21.918 562.23 25.032C562.23 28.146 564.372 30.162 567.198 30.162C570.042 30.162 572.346 28.146 572.346 25.032ZM564.318 25.032C564.318 22.782 565.704 21.702 567.252 21.702C568.782 21.702 570.24 22.782 570.24 25.032C570.24 27.282 568.728 28.38 567.198 28.38C565.65 28.38 564.318 27.282 564.318 25.032ZM583.356 20.082H581.304V25.608C581.304 27.426 580.314 28.362 578.802 28.362C577.308 28.362 576.318 27.426 576.318 25.608V20.082H574.284V25.914C574.284 28.686 576.048 30.144 578.37 30.144C579.54 30.144 580.656 29.658 581.304 28.812V30H583.356V20.082ZM588.116 21.558V16.68H586.064V30H588.116V28.56C588.764 29.424 589.934 30.162 591.572 30.162C594.182 30.162 596.234 28.056 596.234 24.996C596.234 21.936 594.2 19.92 591.572 19.92C590.006 19.92 588.764 20.658 588.116 21.558ZM594.146 24.996C594.146 27.138 592.67 28.38 591.122 28.38C589.592 28.38 588.116 27.174 588.116 25.032C588.116 22.908 589.592 21.702 591.122 21.702C592.67 21.702 594.146 22.854 594.146 24.996ZM598.263 30H600.315V16.68H598.263V30ZM607.185 21.648C608.715 21.648 609.921 22.62 609.957 24.15H604.467C604.683 22.584 605.799 21.648 607.185 21.648ZM611.829 27.048H609.615C609.237 27.822 608.535 28.434 607.275 28.434C605.763 28.434 604.593 27.444 604.449 25.806H612.027C612.081 25.464 612.099 25.14 612.099 24.798C612.099 21.882 610.101 19.92 607.275 19.92C604.341 19.92 602.325 21.918 602.325 25.032C602.325 28.146 604.431 30.162 607.275 30.162C609.705 30.162 611.271 28.776 611.829 27.048ZM614.335 24.348H621.733V22.62H614.335V24.348ZM633.09 26.454C633.09 21.882 626.466 23.646 626.466 20.82C626.466 19.614 627.384 19.038 628.572 19.074C629.868 19.11 630.606 19.884 630.678 20.73H632.946C632.766 18.588 631.074 17.328 628.68 17.328C626.124 17.328 624.378 18.696 624.378 20.892C624.378 25.5 631.02 23.538 631.02 26.562C631.02 27.624 630.21 28.398 628.77 28.398C627.348 28.398 626.628 27.57 626.538 26.544H624.342C624.342 28.758 626.268 30.126 628.77 30.126C631.56 30.126 633.09 28.326 633.09 26.454ZM635.511 30H637.563V24.456C637.563 22.638 638.553 21.702 640.065 21.702C641.559 21.702 642.549 22.638 642.549 24.456V30H644.583V24.15C644.583 21.378 642.855 19.92 640.641 19.92C639.363 19.92 638.247 20.406 637.563 21.234V16.68H635.511V30ZM656.651 25.032C656.651 21.918 654.419 19.92 651.593 19.92C648.767 19.92 646.535 21.918 646.535 25.032C646.535 28.146 648.677 30.162 651.503 30.162C654.347 30.162 656.651 28.146 656.651 25.032ZM648.623 25.032C648.623 22.782 650.009 21.702 651.557 21.702C653.087 21.702 654.545 22.782 654.545 25.032C654.545 27.282 653.033 28.38 651.503 28.38C649.955 28.38 648.623 27.282 648.623 25.032ZM668.129 25.032C668.129 21.918 665.897 19.92 663.071 19.92C660.245 19.92 658.013 21.918 658.013 25.032C658.013 28.146 660.155 30.162 662.981 30.162C665.825 30.162 668.129 28.146 668.129 25.032ZM660.101 25.032C660.101 22.782 661.487 21.702 663.035 21.702C664.565 21.702 666.023 22.782 666.023 25.032C666.023 27.282 664.511 28.38 662.981 28.38C661.433 28.38 660.101 27.282 660.101 25.032ZM670.482 27.246C670.482 29.262 671.58 30 673.344 30H674.964V28.29H673.704C672.84 28.29 672.552 27.984 672.552 27.246V21.756H674.964V20.082H672.552V17.616H670.482V20.082H669.312V21.756H670.482V27.246ZM681.031 21.648C682.561 21.648 683.767 22.62 683.803 24.15H678.313C678.529 22.584 679.645 21.648 681.031 21.648ZM685.675 27.048H683.461C683.083 27.822 682.381 28.434 681.121 28.434C679.609 28.434 678.439 27.444 678.295 25.806H685.873C685.927 25.464 685.945 25.14 685.945 24.798C685.945 21.882 683.947 19.92 681.121 19.92C678.187 19.92 676.171 21.918 676.171 25.032C676.171 28.146 678.277 30.162 681.121 30.162C683.551 30.162 685.117 28.776 685.675 27.048ZM690.016 24.78C690.016 22.674 690.952 22.044 692.464 22.044H692.986V19.92C691.582 19.92 690.592 20.532 690.016 21.522V20.082H687.964V30H690.016V24.78Z" fill="#212832"/>
<circle cx="436.415" cy="24.4151" r="23.4151" fill="#A9CF54" stroke="#A9CF54"/>
<path d="M426.136 24.17C426.136 28.1412 427.185 31.1383 431.007 31.1383C434.828 31.1383 435.877 28.1412 435.877 24.17C435.877 20.2737 434.828 17.2766 431.007 17.2766C427.185 17.2766 426.136 20.2737 426.136 24.17ZM433.779 24.17C433.779 26.8487 433.498 29.1902 431.007 29.1902C428.515 29.1902 428.234 26.8487 428.234 24.17C428.234 21.6224 428.515 19.2247 431.007 19.2247C433.498 19.2247 433.779 21.6224 433.779 24.17ZM437.968 30.9885H447.072V29.2089H441.134C443.325 27.2046 446.697 24.6758 446.697 21.3602C446.697 18.9063 445.124 17.2391 442.351 17.2391C439.935 17.2391 438.024 18.6815 437.949 21.6412H440.01C440.066 20.1051 440.871 19.0561 442.37 19.0561C443.962 19.0561 444.58 20.0302 444.58 21.4538C444.58 24.1325 441.19 26.6052 437.968 29.4337V30.9885Z" fill="#212832"/>
<g filter="url(#filter8_d_955_3)">
<rect x="860" y="1" width="365" height="47" fill="white" shape-rendering="crispEdges"/>
<rect x="859.766" y="0.765849" width="365.468" height="47.4683" stroke="black" stroke-opacity="0.2" stroke-width="0.468302" shape-rendering="crispEdges"/>
</g>
<path d="M1225 1H1223V48H1225V1Z" fill="#3498DB" stroke="#3498DB" stroke-width="0.936604"/>
<path d="M961.663 17.49H957.577V30H961.663C965.677 30 968.305 27.642 968.305 23.79C968.305 19.92 965.677 17.49 961.663 17.49ZM959.629 28.326V19.164H961.663C964.615 19.164 966.199 20.928 966.199 23.79C966.199 26.634 964.615 28.326 961.663 28.326H959.629ZM969.654 24.996C969.654 28.056 971.724 30.162 974.298 30.162C975.954 30.162 977.142 29.37 977.772 28.524V30H979.842V20.082H977.772V21.522C977.16 20.712 976.008 19.92 974.334 19.92C971.724 19.92 969.654 21.936 969.654 24.996ZM977.772 25.032C977.772 27.174 976.314 28.38 974.766 28.38C973.236 28.38 971.76 27.138 971.76 24.996C971.76 22.854 973.236 21.702 974.766 21.702C976.314 21.702 977.772 22.908 977.772 25.032ZM982.862 27.246C982.862 29.262 983.96 30 985.724 30H987.344V28.29H986.084C985.22 28.29 984.932 27.984 984.932 27.246V21.756H987.344V20.082H984.932V17.616H982.862V20.082H981.692V21.756H982.862V27.246ZM988.551 24.996C988.551 28.056 990.621 30.162 993.195 30.162C994.851 30.162 996.039 29.37 996.669 28.524V30H998.739V20.082H996.669V21.522C996.057 20.712 994.905 19.92 993.231 19.92C990.621 19.92 988.551 21.936 988.551 24.996ZM996.669 25.032C996.669 27.174 995.211 28.38 993.663 28.38C992.133 28.38 990.657 27.138 990.657 24.996C990.657 22.854 992.133 21.702 993.663 21.702C995.211 21.702 996.669 22.908 996.669 25.032ZM1003.49 21.558V16.68H1001.43V30H1003.49V28.56C1004.13 29.424 1005.3 30.162 1006.94 30.162C1009.55 30.162 1011.6 28.056 1011.6 24.996C1011.6 21.936 1009.57 19.92 1006.94 19.92C1005.38 19.92 1004.13 20.658 1003.49 21.558ZM1009.52 24.996C1009.52 27.138 1008.04 28.38 1006.49 28.38C1004.96 28.38 1003.49 27.174 1003.49 25.032C1003.49 22.908 1004.96 21.702 1006.49 21.702C1008.04 21.702 1009.52 22.854 1009.52 24.996ZM1012.95 24.996C1012.95 28.056 1015.02 30.162 1017.59 30.162C1019.25 30.162 1020.44 29.37 1021.07 28.524V30H1023.14V20.082H1021.07V21.522C1020.46 20.712 1019.3 19.92 1017.63 19.92C1015.02 19.92 1012.95 21.936 1012.95 24.996ZM1021.07 25.032C1021.07 27.174 1019.61 28.38 1018.06 28.38C1016.53 28.38 1015.06 27.138 1015.06 24.996C1015.06 22.854 1016.53 21.702 1018.06 21.702C1019.61 21.702 1021.07 22.908 1021.07 25.032ZM1033.23 27.228C1033.12 23.646 1027.52 24.762 1027.52 22.764C1027.52 22.098 1028.1 21.648 1029.2 21.648C1030.31 21.648 1030.98 22.242 1031.05 23.106H1033.1C1033 21.126 1031.52 19.92 1029.27 19.92C1026.93 19.92 1025.45 21.198 1025.45 22.782C1025.45 26.418 1031.21 25.302 1031.21 27.246C1031.21 27.93 1030.58 28.434 1029.4 28.434C1028.26 28.434 1027.49 27.768 1027.42 26.958H1025.29C1025.38 28.758 1027.06 30.162 1029.43 30.162C1031.77 30.162 1033.23 28.902 1033.23 27.228ZM1039.62 21.648C1041.15 21.648 1042.36 22.62 1042.4 24.15H1036.91C1037.12 22.584 1038.24 21.648 1039.62 21.648ZM1044.27 27.048H1042.05C1041.68 27.822 1040.97 28.434 1039.71 28.434C1038.2 28.434 1037.03 27.444 1036.89 25.806H1044.47C1044.52 25.464 1044.54 25.14 1044.54 24.798C1044.54 21.882 1042.54 19.92 1039.71 19.92C1036.78 19.92 1034.76 21.918 1034.76 25.032C1034.76 28.146 1036.87 30.162 1039.71 30.162C1042.14 30.162 1043.71 28.776 1044.27 27.048ZM1058.14 17.472H1051.23V30H1058.14V28.326H1053.28V24.492H1057.6V22.818H1053.28V19.146H1058.14V17.472ZM1067.71 30H1069.74V24.15C1069.74 21.378 1068 19.92 1065.68 19.92C1064.49 19.92 1063.39 20.406 1062.72 21.216V20.082H1060.67V30H1062.72V24.456C1062.72 22.638 1063.71 21.702 1065.23 21.702C1066.72 21.702 1067.71 22.638 1067.71 24.456V30ZM1071.68 24.996C1071.68 28.056 1073.75 30.162 1076.36 30.162C1077.98 30.162 1079.17 29.352 1079.8 28.506V30.162C1079.8 32.142 1078.61 33.114 1077.02 33.114C1075.6 33.114 1074.5 32.412 1074.2 31.386H1072.16C1072.42 33.582 1074.38 34.896 1077.02 34.896C1080.12 34.896 1081.87 32.862 1081.87 30.162V20.082H1079.8V21.522C1079.18 20.676 1077.98 19.92 1076.36 19.92C1073.75 19.92 1071.68 21.936 1071.68 24.996ZM1079.8 25.032C1079.8 27.174 1078.34 28.38 1076.79 28.38C1075.26 28.38 1073.78 27.138 1073.78 24.996C1073.78 22.854 1075.26 21.702 1076.79 21.702C1078.34 21.702 1079.8 22.908 1079.8 25.032ZM1084.56 30H1086.61V20.082H1084.56V30ZM1085.6 18.768C1086.32 18.768 1086.9 18.192 1086.9 17.454C1086.9 16.716 1086.32 16.14 1085.6 16.14C1084.87 16.14 1084.29 16.716 1084.29 17.454C1084.29 18.192 1084.87 18.768 1085.6 18.768ZM1096.35 30H1098.38V24.15C1098.38 21.378 1096.63 19.92 1094.31 19.92C1093.12 19.92 1092.03 20.406 1091.36 21.216V20.082H1089.31V30H1091.36V24.456C1091.36 22.638 1092.35 21.702 1093.86 21.702C1095.36 21.702 1096.35 22.638 1096.35 24.456V30ZM1105.17 21.648C1106.7 21.648 1107.91 22.62 1107.94 24.15H1102.45C1102.67 22.584 1103.79 21.648 1105.17 21.648ZM1109.82 27.048H1107.6C1107.22 27.822 1106.52 28.434 1105.26 28.434C1103.75 28.434 1102.58 27.444 1102.44 25.806H1110.01C1110.07 25.464 1110.09 25.14 1110.09 24.798C1110.09 21.882 1108.09 19.92 1105.26 19.92C1102.33 19.92 1100.31 21.918 1100.31 25.032C1100.31 28.146 1102.42 30.162 1105.26 30.162C1107.69 30.162 1109.26 28.776 1109.82 27.048ZM1116.28 21.648C1117.81 21.648 1119.02 22.62 1119.05 24.15H1113.56C1113.78 22.584 1114.9 21.648 1116.28 21.648ZM1120.93 27.048H1118.71C1118.33 27.822 1117.63 28.434 1116.37 28.434C1114.86 28.434 1113.69 27.444 1113.55 25.806H1121.12C1121.18 25.464 1121.2 25.14 1121.2 24.798C1121.2 21.882 1119.2 19.92 1116.37 19.92C1113.44 19.92 1111.42 21.918 1111.42 25.032C1111.42 28.146 1113.53 30.162 1116.37 30.162C1118.8 30.162 1120.37 28.776 1120.93 27.048ZM1125.27 24.78C1125.27 22.674 1126.2 22.044 1127.72 22.044H1128.24V19.92C1126.83 19.92 1125.84 20.532 1125.27 21.522V20.082H1123.22V30H1125.27V24.78Z" fill="#212832"/>
<circle cx="856.415" cy="24.415" r="23.415" fill="#3498DB" stroke="#3498DB"/>
<path d="M845.548 24.9942C845.548 28.9654 846.597 31.9625 850.418 31.9625C854.24 31.9625 855.289 28.9654 855.289 24.9942C855.289 21.0979 854.24 18.1008 850.418 18.1008C846.597 18.1008 845.548 21.0979 845.548 24.9942ZM853.191 24.9942C853.191 27.6729 852.91 30.0144 850.418 30.0144C847.927 30.0144 847.646 27.6729 847.646 24.9942C847.646 22.4466 847.927 20.0489 850.418 20.0489C852.91 20.0489 853.191 22.4466 853.191 24.9942ZM857.511 21.7161H859.59C859.721 20.7608 860.414 19.8616 861.913 19.8616C863.374 19.8616 864.142 20.6484 864.142 21.8285C864.142 23.2896 862.962 23.8515 861.032 23.8703H860.527V25.6311H861.014C863.243 25.6311 864.404 26.2493 864.404 28.0475C864.404 29.3213 863.617 30.2954 862.025 30.2954C860.414 30.2954 859.478 29.3213 859.384 28.0475H857.323C857.454 30.7262 859.459 32.0749 862.044 32.0749C864.891 32.0749 866.427 30.4265 866.427 28.2536C866.427 26.3616 865.509 25.1815 864.086 24.7507V24.6758C865.153 24.3198 866.184 23.2147 866.184 21.585C866.184 19.5994 864.704 18.0259 861.988 18.0259C859.496 18.0259 857.661 19.3558 857.511 21.7161Z" fill="#212832"/>
<defs>
<filter id="filter0_d_955_3" x="23.5312" y="0.531738" width="365.938" height="47.9365" filterUnits="userSpaceOnUse" color-interpolation-filters="sRGB">
<feFlood flood-opacity="0" result="BackgroundImageFix"/>
<feColorMatrix in="SourceAlpha" type="matrix" values="0 0 0 0 0 0 0 0 0 0 0 0 0 0 0 0 0 0 127 0" result="hardAlpha"/>
<feOffset/>
<feComposite in2="hardAlpha" operator="out"/>
<feColorMatrix type="matrix" values="0 0 0 0 0 0 0 0 0 0 0 0 0 0 0 0 0 0 0.1 0"/>
<feBlend mode="normal" in2="BackgroundImageFix" result="effect1_dropShadow_955_3"/>
<feBlend mode="normal" in="SourceGraphic" in2="effect1_dropShadow_955_3" result="shape"/>
</filter>
<filter id="filter1_d_955_3" x="23.5312" y="75.5317" width="365.938" height="47.9365" filterUnits="userSpaceOnUse" color-interpolation-filters="sRGB">
<feFlood flood-opacity="0" result="BackgroundImageFix"/>
<feColorMatrix in="SourceAlpha" type="matrix" values="0 0 0 0 0 0 0 0 0 0 0 0 0 0 0 0 0 0 127 0" result="hardAlpha"/>
<feOffset/>
<feComposite in2="hardAlpha" operator="out"/>
<feColorMatrix type="matrix" values="0 0 0 0 0 0 0 0 0 0 0 0 0 0 0 0 0 0 0.1 0"/>
<feBlend mode="normal" in2="BackgroundImageFix" result="effect1_dropShadow_955_3"/>
<feBlend mode="normal" in="SourceGraphic" in2="effect1_dropShadow_955_3" result="shape"/>
</filter>
<filter id="filter2_d_955_3" x="23.5312" y="150.532" width="365.938" height="47.9365" filterUnits="userSpaceOnUse" color-interpolation-filters="sRGB">
<feFlood flood-opacity="0" result="BackgroundImageFix"/>
<feColorMatrix in="SourceAlpha" type="matrix" values="0 0 0 0 0 0 0 0 0 0 0 0 0 0 0 0 0 0 127 0" result="hardAlpha"/>
<feOffset/>
<feComposite in2="hardAlpha" operator="out"/>
<feColorMatrix type="matrix" values="0 0 0 0 0 0 0 0 0 0 0 0 0 0 0 0 0 0 0.1 0"/>
<feBlend mode="normal" in2="BackgroundImageFix" result="effect1_dropShadow_955_3"/>
<feBlend mode="normal" in="SourceGraphic" in2="effect1_dropShadow_955_3" result="shape"/>
</filter>
<filter id="filter3_d_955_3" x="435.531" y="75.5317" width="365.938" height="47.9365" filterUnits="userSpaceOnUse" color-interpolation-filters="sRGB">
<feFlood flood-opacity="0" result="BackgroundImageFix"/>
<feColorMatrix in="SourceAlpha" type="matrix" values="0 0 0 0 0 0 0 0 0 0 0 0 0 0 0 0 0 0 127 0" result="hardAlpha"/>
<feOffset/>
<feComposite in2="hardAlpha" operator="out"/>
<feColorMatrix type="matrix" values="0 0 0 0 0 0 0 0 0 0 0 0 0 0 0 0 0 0 0.1 0"/>
<feBlend mode="normal" in2="BackgroundImageFix" result="effect1_dropShadow_955_3"/>
<feBlend mode="normal" in="SourceGraphic" in2="effect1_dropShadow_955_3" result="shape"/>
</filter>
<filter id="filter4_d_955_3" x="435.531" y="150.532" width="365.938" height="47.9365" filterUnits="userSpaceOnUse" color-interpolation-filters="sRGB">
<feFlood flood-opacity="0" result="BackgroundImageFix"/>
<feColorMatrix in="SourceAlpha" type="matrix" values="0 0 0 0 0 0 0 0 0 0 0 0 0 0 0 0 0 0 127 0" result="hardAlpha"/>
<feOffset/>
<feComposite in2="hardAlpha" operator="out"/>
<feColorMatrix type="matrix" values="0 0 0 0 0 0 0 0 0 0 0 0 0 0 0 0 0 0 0.1 0"/>
<feBlend mode="normal" in2="BackgroundImageFix" result="effect1_dropShadow_955_3"/>
<feBlend mode="normal" in="SourceGraphic" in2="effect1_dropShadow_955_3" result="shape"/>
</filter>
<filter id="filter5_d_955_3" x="858.531" y="75.5317" width="365.938" height="47.9365" filterUnits="userSpaceOnUse" color-interpolation-filters="sRGB">
<feFlood flood-opacity="0" result="BackgroundImageFix"/>
<feColorMatrix in="SourceAlpha" type="matrix" values="0 0 0 0 0 0 0 0 0 0 0 0 0 0 0 0 0 0 127 0" result="hardAlpha"/>
<feOffset/>
<feComposite in2="hardAlpha" operator="out"/>
<feColorMatrix type="matrix" values="0 0 0 0 0 0 0 0 0 0 0 0 0 0 0 0 0 0 0.1 0"/>
<feBlend mode="normal" in2="BackgroundImageFix" result="effect1_dropShadow_955_3"/>
<feBlend mode="normal" in="SourceGraphic" in2="effect1_dropShadow_955_3" result="shape"/>
</filter>
<filter id="filter6_d_955_3" x="858.531" y="150.532" width="365.938" height="47.9365" filterUnits="userSpaceOnUse" color-interpolation-filters="sRGB">
<feFlood flood-opacity="0" result="BackgroundImageFix"/>
<feColorMatrix in="SourceAlpha" type="matrix" values="0 0 0 0 0 0 0 0 0 0 0 0 0 0 0 0 0 0 127 0" result="hardAlpha"/>
<feOffset/>
<feComposite in2="hardAlpha" operator="out"/>
<feColorMatrix type="matrix" values="0 0 0 0 0 0 0 0 0 0 0 0 0 0 0 0 0 0 0.1 0"/>
<feBlend mode="normal" in2="BackgroundImageFix" result="effect1_dropShadow_955_3"/>
<feBlend mode="normal" in="SourceGraphic" in2="effect1_dropShadow_955_3" result="shape"/>
</filter>
<filter id="filter7_d_955_3" x="436.531" y="0.531738" width="365.938" height="47.9365" filterUnits="userSpaceOnUse" color-interpolation-filters="sRGB">
<feFlood flood-opacity="0" result="BackgroundImageFix"/>
<feColorMatrix in="SourceAlpha" type="matrix" values="0 0 0 0 0 0 0 0 0 0 0 0 0 0 0 0 0 0 127 0" result="hardAlpha"/>
<feOffset/>
<feComposite in2="hardAlpha" operator="out"/>
<feColorMatrix type="matrix" values="0 0 0 0 0 0 0 0 0 0 0 0 0 0 0 0 0 0 0.1 0"/>
<feBlend mode="normal" in2="BackgroundImageFix" result="effect1_dropShadow_955_3"/>
<feBlend mode="normal" in="SourceGraphic" in2="effect1_dropShadow_955_3" result="shape"/>
</filter>
<filter id="filter8_d_955_3" x="859.531" y="0.531738" width="365.938" height="47.9365" filterUnits="userSpaceOnUse" color-interpolation-filters="sRGB">
<feFlood flood-opacity="0" result="BackgroundImageFix"/>
<feColorMatrix in="SourceAlpha" type="matrix" values="0 0 0 0 0 0 0 0 0 0 0 0 0 0 0 0 0 0 127 0" result="hardAlpha"/>
<feOffset/>
<feComposite in2="hardAlpha" operator="out"/>
<feColorMatrix type="matrix" values="0 0 0 0 0 0 0 0 0 0 0 0 0 0 0 0 0 0 0.1 0"/>
<feBlend mode="normal" in2="BackgroundImageFix" result="effect1_dropShadow_955_3"/>
<feBlend mode="normal" in="SourceGraphic" in2="effect1_dropShadow_955_3" result="shape"/>
</filter>
</defs>
</svg>
