<svg width="1240" height="125" viewBox="0 0 1240 125" fill="none" xmlns="http://www.w3.org/2000/svg">
<path d="M954.48 94.92C954.48 98.46 956.96 100.14 959.88 100.14C962.78 100.14 965.34 98.46 965.34 94.92V86.1H963.06V94.96C963.06 97.12 961.84 98.14 959.9 98.14C957.98 98.14 956.76 97.12 956.76 94.96V86.1H954.48V94.92ZM974.649 85.92C970.729 85.92 967.549 88.86 967.549 93.02C967.549 97.2 970.729 100.12 974.649 100.12C978.389 100.12 981.109 97.38 981.529 94.16V92.38H973.869V94.2H979.089C978.749 96.54 977.169 98.06 974.649 98.06C971.889 98.06 969.889 96.08 969.889 93.02C969.889 89.96 971.889 88 974.649 88C976.309 88 977.629 88.7 978.369 90.1H981.109C980.049 87.38 977.549 85.92 974.649 85.92ZM983.017 93.02C983.017 97.2 986.197 100.12 990.117 100.12C993.017 100.12 995.517 98.68 996.577 95.96H993.837C993.097 97.44 991.777 98.14 990.117 98.14C987.357 98.14 985.357 96.16 985.357 93.02C985.357 89.88 987.357 87.92 990.117 87.92C991.777 87.92 993.097 88.62 993.837 90.1H996.577C995.517 87.38 993.017 85.92 990.117 85.92C986.197 85.92 983.017 88.86 983.017 93.02ZM1005.04 83.98V102.26H1007.32V83.98H1005.04ZM1020.66 86.1H1016.12V100H1020.66C1025.12 100 1028.04 97.38 1028.04 93.1C1028.04 88.8 1025.12 86.1 1020.66 86.1ZM1018.4 98.14V87.96H1020.66C1023.94 87.96 1025.7 89.92 1025.7 93.1C1025.7 96.26 1023.94 98.14 1020.66 98.14H1018.4ZM1037.98 86.08H1030.3V100H1037.98V98.14H1032.58V93.88H1037.38V92.02H1032.58V87.94H1037.98V86.08ZM1048.63 96.02C1048.63 97.36 1047.69 98.14 1046.15 98.14H1043.07V93.8H1046.07C1047.59 93.8 1048.63 94.64 1048.63 96.02ZM1048.27 89.96C1048.27 91.24 1047.37 91.94 1045.89 91.94H1043.07V87.96H1045.89C1047.37 87.96 1048.27 88.7 1048.27 89.96ZM1050.91 96.26C1050.91 94.6 1049.71 93.12 1048.23 92.86C1049.57 92.38 1050.59 91.36 1050.59 89.68C1050.59 87.72 1049.03 86.1 1046.09 86.1H1040.79V100H1046.35C1049.19 100 1050.91 98.38 1050.91 96.26ZM1059.18 83.98V102.26H1061.46V83.98H1059.18ZM1079.4 86.08V96.44L1072.54 86.08H1070.26V100H1072.54V89.62L1079.4 100H1081.68V86.08H1079.4ZM1094.06 100H1096.46L1091.48 86.08H1088.84L1083.86 100H1086.24L1087.24 97.16H1093.06L1094.06 100ZM1092.42 95.3H1087.88L1090.16 88.84L1092.42 95.3ZM1108 100H1110.4L1105.42 86.08H1102.78L1097.8 100H1100.18L1101.18 97.16H1107L1108 100ZM1106.36 95.3H1101.82L1104.1 88.84L1106.36 95.3ZM1111.81 93.02C1111.81 97.2 1114.99 100.12 1118.91 100.12C1121.81 100.12 1124.31 98.68 1125.37 95.96H1122.63C1121.89 97.44 1120.57 98.14 1118.91 98.14C1116.15 98.14 1114.15 96.16 1114.15 93.02C1114.15 89.88 1116.15 87.92 1118.91 87.92C1120.57 87.92 1121.89 88.62 1122.63 90.1H1125.37C1124.31 87.38 1121.81 85.92 1118.91 85.92C1114.99 85.92 1111.81 88.86 1111.81 93.02Z" fill="black" fill-opacity="0.8"/>
<rect x="840.5" y="60.5" width="399" height="64" stroke="#3498DB"/>
<path d="M528.5 100H530.78V90.48L535.04 100H536.62L540.86 90.48V100H543.14V86.1H540.7L535.84 97L530.96 86.1H528.5V100ZM546.137 100H548.417V88.98H546.137V100ZM547.297 87.52C548.097 87.52 548.737 86.88 548.737 86.06C548.737 85.24 548.097 84.6 547.297 84.6C546.477 84.6 545.837 85.24 545.837 86.06C545.837 86.88 546.477 87.52 547.297 87.52ZM559.23 100H561.49V93.5C561.49 90.42 559.55 88.8 556.97 88.8C555.65 88.8 554.43 89.34 553.69 90.24V88.98H551.41V100H553.69V93.84C553.69 91.82 554.79 90.78 556.47 90.78C558.13 90.78 559.23 91.82 559.23 93.84V100ZM569.114 99.8H578.834V97.9H572.494C574.834 95.76 578.434 93.06 578.434 89.52C578.434 86.9 576.754 85.12 573.794 85.12C571.214 85.12 569.174 86.66 569.094 89.82H571.294C571.354 88.18 572.214 87.06 573.814 87.06C575.514 87.06 576.174 88.1 576.174 89.62C576.174 92.48 572.554 95.12 569.114 98.14V99.8ZM579.737 102.78H581.217L583.637 97.26H581.157L579.737 102.78ZM590.824 100H593.104V90.48L597.364 100H598.944L603.184 90.48V100H605.464V86.1H603.024L598.164 97L593.284 86.1H590.824V100ZM607.701 94.44C607.701 97.84 610.001 100.18 612.861 100.18C614.701 100.18 616.021 99.3 616.721 98.36V100H619.021V88.98H616.721V90.58C616.041 89.68 614.761 88.8 612.901 88.8C610.001 88.8 607.701 91.04 607.701 94.44ZM616.721 94.48C616.721 96.86 615.101 98.2 613.381 98.2C611.681 98.2 610.041 96.82 610.041 94.44C610.041 92.06 611.681 90.78 613.381 90.78C615.101 90.78 616.721 92.12 616.721 94.48ZM627.716 100H630.296L626.736 94.42L630.296 88.98H627.916L625.676 92.72L623.296 88.98H620.716L624.276 94.58L620.716 100H623.096L625.336 96.26L627.716 100ZM646.831 88.8C646.591 86.86 645.171 85.06 642.331 85.06C638.691 85.06 637.171 87.82 637.171 92.38C637.171 97.02 638.271 100 642.511 100C645.631 100 647.291 97.9 647.291 95.14C647.291 92.1 645.431 90.34 642.811 90.34C641.291 90.34 639.851 90.98 639.131 92.18C639.191 88.36 640.251 86.96 642.311 86.96C643.751 86.96 644.451 87.62 644.731 88.8H646.831ZM642.311 92.26C644.231 92.26 645.111 93.5 645.111 95.24C645.111 96.96 644.071 98.1 642.391 98.1C640.451 98.1 639.391 96.9 639.391 95.1C639.391 93.16 640.811 92.26 642.311 92.26ZM658.639 94.96V100H660.919V94.96L665.519 86.1H662.999L659.779 92.92L656.559 86.1H654.019L658.639 94.96ZM671.968 90.72C673.668 90.72 675.008 91.8 675.048 93.5H668.948C669.188 91.76 670.428 90.72 671.968 90.72ZM677.128 96.72H674.668C674.248 97.58 673.468 98.26 672.068 98.26C670.388 98.26 669.088 97.16 668.928 95.34H677.348C677.408 94.96 677.428 94.6 677.428 94.22C677.428 90.98 675.208 88.8 672.068 88.8C668.808 88.8 666.568 91.02 666.568 94.48C666.568 97.94 668.908 100.18 672.068 100.18C674.768 100.18 676.508 98.64 677.128 96.72ZM678.912 94.44C678.912 97.84 681.212 100.18 684.072 100.18C685.912 100.18 687.232 99.3 687.932 98.36V100H690.232V88.98H687.932V90.58C687.252 89.68 685.972 88.8 684.112 88.8C681.212 88.8 678.912 91.04 678.912 94.44ZM687.932 94.48C687.932 96.86 686.312 98.2 684.592 98.2C682.892 98.2 681.252 96.82 681.252 94.44C681.252 92.06 682.892 90.78 684.592 90.78C686.312 90.78 687.932 92.12 687.932 94.48ZM695.507 94.2C695.507 91.86 696.547 91.16 698.227 91.16H698.807V88.8C697.247 88.8 696.147 89.48 695.507 90.58V88.98H693.227V100H695.507V94.2ZM709.122 96.92C709.002 92.94 702.782 94.18 702.782 91.96C702.782 91.22 703.422 90.72 704.642 90.72C705.882 90.72 706.622 91.38 706.702 92.34H708.982C708.862 90.14 707.222 88.8 704.722 88.8C702.122 88.8 700.482 90.22 700.482 91.98C700.482 96.02 706.882 94.78 706.882 96.94C706.882 97.7 706.182 98.26 704.862 98.26C703.602 98.26 702.742 97.52 702.662 96.62H700.302C700.402 98.62 702.262 100.18 704.902 100.18C707.502 100.18 709.122 98.78 709.122 96.92Z" fill="black" fill-opacity="0.8"/>
<rect x="419.5" y="60.5" width="399" height="64" stroke="#E74C3C"/>
<rect x="0.5" y="0.5" width="399" height="59" fill="#9B59B6" stroke="#9B59B6"/>
<rect x="419.5" y="0.5" width="399" height="59" fill="#E74C3C" stroke="#E74C3C"/>
<rect x="840.5" y="0.5" width="399" height="59" fill="#3498DB" stroke="#3498DB"/>
<path d="M122.07 82.02C122.07 83.36 121.13 84.14 119.59 84.14H116.51V79.8H119.51C121.03 79.8 122.07 80.64 122.07 82.02ZM121.71 75.96C121.71 77.24 120.81 77.94 119.33 77.94H116.51V73.96H119.33C120.81 73.96 121.71 74.7 121.71 75.96ZM124.35 82.26C124.35 80.6 123.15 79.12 121.67 78.86C123.01 78.38 124.03 77.36 124.03 75.68C124.03 73.72 122.47 72.1 119.53 72.1H114.23V86H119.79C122.63 86 124.35 84.38 124.35 82.26ZM126.068 79.02C126.068 83.2 129.248 86.12 133.168 86.12C136.068 86.12 138.568 84.68 139.628 81.96H136.888C136.148 83.44 134.828 84.14 133.168 84.14C130.408 84.14 128.408 82.16 128.408 79.02C128.408 75.88 130.408 73.92 133.168 73.92C134.828 73.92 136.148 74.62 136.888 76.1H139.628C138.568 73.38 136.068 71.92 133.168 71.92C129.248 71.92 126.068 74.86 126.068 79.02ZM151.677 86H154.077L149.097 72.08H146.457L141.477 86H143.857L144.857 83.16H150.677L151.677 86ZM150.037 81.3H145.497L147.777 74.84L150.037 81.3ZM171.938 80.48C171.938 77.02 169.458 74.8 166.318 74.8C163.178 74.8 160.698 77.02 160.698 80.48C160.698 83.94 163.078 86.18 166.218 86.18C169.378 86.18 171.938 83.94 171.938 80.48ZM163.018 80.48C163.018 77.98 164.558 76.78 166.278 76.78C167.978 76.78 169.598 77.98 169.598 80.48C169.598 82.98 167.918 84.2 166.218 84.2C164.498 84.2 163.018 82.98 163.018 80.48ZM176.471 80.2C176.471 77.86 177.511 77.16 179.191 77.16H179.771V74.8C178.211 74.8 177.111 75.48 176.471 76.58V74.98H174.191V86H176.471V80.2ZM194.903 82.02C194.903 83.36 193.963 84.14 192.423 84.14H189.343V79.8H192.343C193.863 79.8 194.903 80.64 194.903 82.02ZM194.543 75.96C194.543 77.24 193.643 77.94 192.163 77.94H189.343V73.96H192.163C193.643 73.96 194.543 74.7 194.543 75.96ZM197.183 82.26C197.183 80.6 195.983 79.12 194.503 78.86C195.842 78.38 196.862 77.36 196.862 75.68C196.862 73.72 195.303 72.1 192.363 72.1H187.063V86H192.623C195.463 86 197.183 84.38 197.183 82.26ZM198.9 80.44C198.9 83.84 201.2 86.18 204.06 86.18C205.9 86.18 207.22 85.3 207.92 84.36V86H210.22V74.98H207.92V76.58C207.24 75.68 205.96 74.8 204.1 74.8C201.2 74.8 198.9 77.04 198.9 80.44ZM207.92 80.48C207.92 82.86 206.3 84.2 204.58 84.2C202.88 84.2 201.24 82.82 201.24 80.44C201.24 78.06 202.88 76.78 204.58 76.78C206.3 76.78 207.92 78.12 207.92 80.48ZM212.455 80.48C212.455 83.94 214.695 86.18 217.855 86.18C220.555 86.18 222.315 84.68 222.935 82.52H220.475C220.055 83.66 219.215 84.26 217.855 84.26C216.015 84.26 214.795 82.9 214.795 80.48C214.795 78.08 216.015 76.72 217.855 76.72C219.215 76.72 220.095 77.4 220.475 78.46H222.935C222.315 76.14 220.555 74.8 217.855 74.8C214.695 74.8 212.455 77.04 212.455 80.48ZM225.207 86H227.487V79.84C227.487 77.82 228.587 76.78 230.267 76.78C231.927 76.78 233.027 77.82 233.027 79.84V86H235.287V79.5C235.287 76.42 233.367 74.8 230.907 74.8C229.487 74.8 228.247 75.34 227.487 76.26V71.2H225.207V86ZM242.835 76.72C244.535 76.72 245.875 77.8 245.915 79.5H239.815C240.055 77.76 241.295 76.72 242.835 76.72ZM247.995 82.72H245.535C245.115 83.58 244.335 84.26 242.935 84.26C241.255 84.26 239.955 83.16 239.795 81.34H248.215C248.275 80.96 248.295 80.6 248.295 80.22C248.295 76.98 246.075 74.8 242.935 74.8C239.675 74.8 237.435 77.02 237.435 80.48C237.435 83.94 239.775 86.18 242.935 86.18C245.635 86.18 247.375 84.64 247.995 82.72ZM250.539 86H252.819V71.2H250.539V86ZM266.313 80.48C266.313 77.02 263.833 74.8 260.693 74.8C257.553 74.8 255.073 77.02 255.073 80.48C255.073 83.94 257.453 86.18 260.593 86.18C263.753 86.18 266.313 83.94 266.313 80.48ZM257.393 80.48C257.393 77.98 258.933 76.78 260.653 76.78C262.353 76.78 263.973 77.98 263.973 80.48C263.973 82.98 262.293 84.2 260.593 84.2C258.873 84.2 257.393 82.98 257.393 80.48ZM270.846 80.2C270.846 77.86 271.886 77.16 273.566 77.16H274.146V74.8C272.586 74.8 271.486 75.48 270.846 76.58V74.98H268.566V86H270.846V80.2ZM276.982 76.86L279.082 72.1H276.602L275.382 76.86H276.982ZM289.306 82.92C289.186 78.94 282.966 80.18 282.966 77.96C282.966 77.22 283.606 76.72 284.826 76.72C286.066 76.72 286.806 77.38 286.886 78.34H289.166C289.046 76.14 287.406 74.8 284.906 74.8C282.306 74.8 280.666 76.22 280.666 77.98C280.666 82.02 287.066 80.78 287.066 82.94C287.066 83.7 286.366 84.26 285.046 84.26C283.786 84.26 282.926 83.52 282.846 82.62H280.486C280.586 84.62 282.446 86.18 285.086 86.18C287.686 86.18 289.306 84.78 289.306 82.92ZM64.083 99.1H59.543V113H64.083C68.543 113 71.463 110.38 71.463 106.1C71.463 101.8 68.543 99.1 64.083 99.1ZM61.823 111.14V100.96H64.083C67.363 100.96 69.123 102.92 69.123 106.1C69.123 109.26 67.363 111.14 64.083 111.14H61.823ZM78.3627 103.72C80.0627 103.72 81.4027 104.8 81.4427 106.5H75.3427C75.5827 104.76 76.8227 103.72 78.3627 103.72ZM83.5227 109.72H81.0627C80.6427 110.58 79.8627 111.26 78.4627 111.26C76.7827 111.26 75.4827 110.16 75.3227 108.34H83.7427C83.8027 107.96 83.8227 107.6 83.8227 107.22C83.8227 103.98 81.6027 101.8 78.4627 101.8C75.2027 101.8 72.9627 104.02 72.9627 107.48C72.9627 110.94 75.3027 113.18 78.4627 113.18C81.1627 113.18 82.9027 111.64 83.5227 109.72ZM85.3064 107.44C85.3064 110.84 87.6064 113.18 90.5064 113.18C92.3064 113.18 93.6264 112.28 94.3264 111.34V113.18C94.3264 115.38 93.0064 116.46 91.2464 116.46C89.6664 116.46 88.4464 115.68 88.1064 114.54H85.8464C86.1264 116.98 88.3064 118.44 91.2464 118.44C94.6864 118.44 96.6264 116.18 96.6264 113.18V101.98H94.3264V103.58C93.6464 102.64 92.3064 101.8 90.5064 101.8C87.6064 101.8 85.3064 104.04 85.3064 107.44ZM94.3264 107.48C94.3264 109.86 92.7064 111.2 90.9864 111.2C89.2864 111.2 87.6464 109.82 87.6464 107.44C87.6464 105.06 89.2864 103.78 90.9864 103.78C92.7064 103.78 94.3264 105.12 94.3264 107.48ZM101.901 107.2C101.901 104.86 102.941 104.16 104.621 104.16H105.201V101.8C103.641 101.8 102.541 102.48 101.901 103.58V101.98H99.6211V113H101.901V107.2ZM111.937 103.72C113.637 103.72 114.977 104.8 115.017 106.5H108.917C109.157 104.76 110.397 103.72 111.937 103.72ZM117.097 109.72H114.637C114.217 110.58 113.437 111.26 112.037 111.26C110.357 111.26 109.057 110.16 108.897 108.34H117.317C117.377 107.96 117.397 107.6 117.397 107.22C117.397 103.98 115.177 101.8 112.037 101.8C108.777 101.8 106.537 104.02 106.537 107.48C106.537 110.94 108.877 113.18 112.037 113.18C114.737 113.18 116.477 111.64 117.097 109.72ZM124.281 103.72C125.981 103.72 127.321 104.8 127.361 106.5H121.261C121.501 104.76 122.741 103.72 124.281 103.72ZM129.441 109.72H126.981C126.561 110.58 125.781 111.26 124.381 111.26C122.701 111.26 121.401 110.16 121.241 108.34H129.661C129.721 107.96 129.741 107.6 129.741 107.22C129.741 103.98 127.521 101.8 124.381 101.8C121.121 101.8 118.881 104.02 118.881 107.48C118.881 110.94 121.221 113.18 124.381 113.18C127.081 113.18 128.821 111.64 129.441 109.72ZM137.18 113H139.46V101.98H137.18V113ZM138.34 100.52C139.14 100.52 139.78 99.88 139.78 99.06C139.78 98.24 139.14 97.6 138.34 97.6C137.52 97.6 136.88 98.24 136.88 99.06C136.88 99.88 137.52 100.52 138.34 100.52ZM150.273 113H152.533V106.5C152.533 103.42 150.593 101.8 148.013 101.8C146.693 101.8 145.473 102.34 144.733 103.24V101.98H142.453V113H144.733V106.84C144.733 104.82 145.833 103.78 147.513 103.78C149.173 103.78 150.273 104.82 150.273 106.84V113ZM159.877 106.02C159.877 110.2 163.057 113.12 166.977 113.12C169.877 113.12 172.377 111.68 173.437 108.96H170.697C169.957 110.44 168.637 111.14 166.977 111.14C164.217 111.14 162.217 109.16 162.217 106.02C162.217 102.88 164.217 100.92 166.977 100.92C168.637 100.92 169.957 101.62 170.697 103.1H173.437C172.377 100.38 169.877 98.92 166.977 98.92C163.057 98.92 159.877 101.86 159.877 106.02ZM186.605 107.48C186.605 104.02 184.125 101.8 180.985 101.8C177.845 101.8 175.365 104.02 175.365 107.48C175.365 110.94 177.745 113.18 180.885 113.18C184.045 113.18 186.605 110.94 186.605 107.48ZM177.685 107.48C177.685 104.98 179.225 103.78 180.945 103.78C182.645 103.78 184.265 104.98 184.265 107.48C184.265 109.98 182.585 111.2 180.885 111.2C179.165 111.2 177.685 109.98 177.685 107.48ZM204.479 113H206.739V106.5C206.739 103.42 204.779 101.8 202.199 101.8C200.599 101.8 199.039 102.64 198.359 103.98C197.599 102.54 196.139 101.8 194.399 101.8C193.079 101.8 191.879 102.34 191.139 103.24V101.98H188.859V113H191.139V106.84C191.139 104.82 192.239 103.78 193.919 103.78C195.579 103.78 196.679 104.82 196.679 106.84V113H198.939V106.84C198.939 104.82 200.039 103.78 201.719 103.78C203.379 103.78 204.479 104.82 204.479 106.84V113ZM211.921 103.6V101.98H209.641V118.24H211.921V111.4C212.641 112.26 213.941 113.18 215.761 113.18C218.661 113.18 220.941 110.84 220.941 107.44C220.941 104.04 218.661 101.8 215.761 101.8C213.961 101.8 212.621 102.68 211.921 103.6ZM218.621 107.44C218.621 109.82 216.981 111.2 215.261 111.2C213.561 111.2 211.921 109.86 211.921 107.48C211.921 105.12 213.561 103.78 215.261 103.78C216.981 103.78 218.621 105.06 218.621 107.44ZM233.175 101.98H230.895V108.12C230.895 110.14 229.795 111.18 228.115 111.18C226.455 111.18 225.355 110.14 225.355 108.12V101.98H223.095V108.46C223.095 111.54 225.055 113.16 227.635 113.16C228.935 113.16 230.175 112.62 230.895 111.68V113H233.175V101.98ZM236.544 109.94C236.544 112.18 237.764 113 239.724 113H241.524V111.1H240.124C239.164 111.1 238.844 110.76 238.844 109.94V103.84H241.524V101.98H238.844V99.24H236.544V101.98H235.244V103.84H236.544V109.94ZM248.265 103.72C249.965 103.72 251.305 104.8 251.345 106.5H245.245C245.485 104.76 246.725 103.72 248.265 103.72ZM253.425 109.72H250.965C250.545 110.58 249.765 111.26 248.365 111.26C246.685 111.26 245.385 110.16 245.225 108.34H253.645C253.705 107.96 253.725 107.6 253.725 107.22C253.725 103.98 251.505 101.8 248.365 101.8C245.105 101.8 242.865 104.02 242.865 107.48C242.865 110.94 245.205 113.18 248.365 113.18C251.065 113.18 252.805 111.64 253.425 109.72ZM258.249 107.2C258.249 104.86 259.289 104.16 260.969 104.16H261.549V101.8C259.989 101.8 258.889 102.48 258.249 103.58V101.98H255.969V113H258.249V107.2ZM277.06 109.92C276.94 105.94 270.72 107.18 270.72 104.96C270.72 104.22 271.36 103.72 272.58 103.72C273.82 103.72 274.56 104.38 274.64 105.34H276.92C276.8 103.14 275.16 101.8 272.66 101.8C270.06 101.8 268.42 103.22 268.42 104.98C268.42 109.02 274.82 107.78 274.82 109.94C274.82 110.7 274.12 111.26 272.8 111.26C271.54 111.26 270.68 110.52 270.6 109.62H268.24C268.34 111.62 270.2 113.18 272.84 113.18C275.44 113.18 277.06 111.78 277.06 109.92ZM278.763 107.48C278.763 110.94 281.003 113.18 284.163 113.18C286.863 113.18 288.623 111.68 289.243 109.52H286.783C286.363 110.66 285.523 111.26 284.163 111.26C282.323 111.26 281.103 109.9 281.103 107.48C281.103 105.08 282.323 103.72 284.163 103.72C285.523 103.72 286.403 104.4 286.783 105.46H289.243C288.623 103.14 286.863 101.8 284.163 101.8C281.003 101.8 278.763 104.04 278.763 107.48ZM291.516 113H293.796V101.98H291.516V113ZM292.676 100.52C293.476 100.52 294.116 99.88 294.116 99.06C294.116 98.24 293.476 97.6 292.676 97.6C291.856 97.6 291.216 98.24 291.216 99.06C291.216 99.88 291.856 100.52 292.676 100.52ZM301.429 103.72C303.129 103.72 304.469 104.8 304.509 106.5H298.409C298.649 104.76 299.889 103.72 301.429 103.72ZM306.589 109.72H304.129C303.709 110.58 302.929 111.26 301.529 111.26C299.849 111.26 298.549 110.16 298.389 108.34H306.809C306.869 107.96 306.889 107.6 306.889 107.22C306.889 103.98 304.669 101.8 301.529 101.8C298.269 101.8 296.029 104.02 296.029 107.48C296.029 110.94 298.369 113.18 301.529 113.18C304.229 113.18 305.969 111.64 306.589 109.72ZM316.953 113H319.213V106.5C319.213 103.42 317.273 101.8 314.693 101.8C313.373 101.8 312.153 102.34 311.413 103.24V101.98H309.133V113H311.413V106.84C311.413 104.82 312.513 103.78 314.193 103.78C315.853 103.78 316.953 104.82 316.953 106.84V113ZM321.361 107.48C321.361 110.94 323.601 113.18 326.761 113.18C329.461 113.18 331.221 111.68 331.841 109.52H329.381C328.961 110.66 328.121 111.26 326.761 111.26C324.921 111.26 323.701 109.9 323.701 107.48C323.701 105.08 324.921 103.72 326.761 103.72C328.121 103.72 329.001 104.4 329.381 105.46H331.841C331.221 103.14 329.461 101.8 326.761 101.8C323.601 101.8 321.361 104.04 321.361 107.48ZM338.753 103.72C340.453 103.72 341.793 104.8 341.833 106.5H335.733C335.973 104.76 337.213 103.72 338.753 103.72ZM343.913 109.72H341.453C341.033 110.58 340.253 111.26 338.853 111.26C337.173 111.26 335.873 110.16 335.713 108.34H344.133C344.193 107.96 344.213 107.6 344.213 107.22C344.213 103.98 341.993 101.8 338.853 101.8C335.593 101.8 333.353 104.02 333.353 107.48C333.353 110.94 335.693 113.18 338.853 113.18C341.553 113.18 343.293 111.64 343.913 109.72Z" fill="black" fill-opacity="0.8"/>
<rect x="0.5" y="60.5" width="399" height="64" stroke="#9B59B6"/>
<path d="M173.139 21.6H163.539V39H173.139V36.675H166.389V31.35H172.389V29.025H166.389V23.925H173.139V21.6ZM177.149 39H179.999V20.5H177.149V39ZM184.241 39H187.091V25.225H184.241V39ZM185.691 23.4C186.691 23.4 187.491 22.6 187.491 21.575C187.491 20.55 186.691 19.75 185.691 19.75C184.666 19.75 183.866 20.55 183.866 21.575C183.866 22.6 184.666 23.4 185.691 23.4ZM190.383 32.05C190.383 36.3 193.258 39.225 196.883 39.225C199.133 39.225 200.783 38.1 201.658 36.925V39.225C201.658 41.975 200.008 43.325 197.808 43.325C195.833 43.325 194.308 42.35 193.883 40.925H191.058C191.408 43.975 194.133 45.8 197.808 45.8C202.108 45.8 204.533 42.975 204.533 39.225V25.225H201.658V27.225C200.808 26.05 199.133 25 196.883 25C193.258 25 190.383 27.8 190.383 32.05ZM201.658 32.1C201.658 35.075 199.633 36.75 197.483 36.75C195.358 36.75 193.308 35.025 193.308 32.05C193.308 29.075 195.358 27.475 197.483 27.475C199.633 27.475 201.658 29.15 201.658 32.1ZM208.776 39H211.626V25.225H208.776V39ZM210.226 23.4C211.226 23.4 212.026 22.6 212.026 21.575C212.026 20.55 211.226 19.75 210.226 19.75C209.201 19.75 208.401 20.55 208.401 21.575C208.401 22.6 209.201 23.4 210.226 23.4ZM218.718 27.275V20.5H215.868V39H218.718V37C219.618 38.2 221.243 39.225 223.518 39.225C227.143 39.225 229.993 36.3 229.993 32.05C229.993 27.8 227.168 25 223.518 25C221.343 25 219.618 26.025 218.718 27.275ZM227.093 32.05C227.093 35.025 225.043 36.75 222.893 36.75C220.768 36.75 218.718 35.075 218.718 32.1C218.718 29.15 220.768 27.475 222.893 27.475C225.043 27.475 227.093 29.075 227.093 32.05ZM233.312 39H236.162V25.225H233.312V39ZM234.762 23.4C235.762 23.4 236.562 22.6 236.562 21.575C236.562 20.55 235.762 19.75 234.762 19.75C233.737 19.75 232.937 20.55 232.937 21.575C232.937 22.6 233.737 23.4 234.762 23.4ZM240.403 39H243.253V20.5H240.403V39ZM247.495 39H250.345V25.225H247.495V39ZM248.945 23.4C249.945 23.4 250.745 22.6 250.745 21.575C250.745 20.55 249.945 19.75 248.945 19.75C247.92 19.75 247.12 20.55 247.12 21.575C247.12 22.6 247.92 23.4 248.945 23.4ZM255.037 35.175C255.037 37.975 256.562 39 259.012 39H261.262V36.625H259.512C258.312 36.625 257.912 36.2 257.912 35.175V27.55H261.262V25.225H257.912V21.8H255.037V25.225H253.412V27.55H255.037V35.175ZM269.814 35.725L265.939 25.225H262.764L268.189 38.775L265.389 45.475H268.339L276.789 25.225H273.839L269.814 35.725Z" fill="white"/>
<path d="M137.637 15C138.275 15.15 138.845 15.4125 139.235 15.9675C139.797 16.7774 139.88 17.6324 139.4 18.5024C138.92 19.3798 138.14 19.7998 137.142 19.7173C136.16 19.6348 135.455 19.1098 135.125 18.1799C134.622 16.7549 135.44 15.36 136.925 15.0525C136.962 15.045 137 15.0225 137.03 15.0075C137.24 15 137.435 15 137.637 15ZM137.33 18.8323C138.14 18.8323 138.8 18.1799 138.8 17.3699C138.807 16.5674 138.147 15.9 137.345 15.9C136.542 15.9 135.875 16.5599 135.875 17.3624C135.867 18.1724 136.527 18.8323 137.33 18.8323Z" fill="white"/>
<path d="M122.007 30.0294C122.157 29.4069 122.42 28.8594 122.945 28.4469C123.987 27.6295 125.592 27.892 126.342 29.0169C127.085 30.1344 126.732 31.7093 125.585 32.3543C124.13 33.1793 122.412 32.4068 122.052 30.7643C122.045 30.7194 122.022 30.6744 122 30.6219C122.007 30.4269 122.007 30.2319 122.007 30.0294ZM125.84 30.3369C125.84 29.5269 125.187 28.8669 124.377 28.8669C123.575 28.8594 122.907 29.5269 122.9 30.3294C122.9 31.1318 123.56 31.7993 124.362 31.7993C125.18 31.7993 125.84 31.1393 125.84 30.3369Z" fill="white"/>
<path d="M139.881 30.7117C138.696 32.7442 135.951 32.6767 134.796 30.6967C134.256 30.9217 133.694 31.1167 133.169 31.4017C132.659 31.6792 132.494 32.1892 132.494 32.7517C132.494 33.9516 132.494 35.1441 132.494 36.344C132.494 36.809 132.351 37.0265 132.051 37.0265C131.751 37.0265 131.594 36.794 131.594 36.344C131.594 35.1591 131.594 33.9666 131.594 32.7817C131.594 31.5742 132.141 30.7867 133.259 30.3443C133.836 30.1193 134.406 29.8868 134.984 29.6768C135.299 29.5643 135.456 29.3618 135.434 29.0243C135.434 28.9718 135.426 28.9268 135.434 28.8743C135.471 28.4393 135.396 28.0644 135.066 27.7119C134.639 27.2544 134.504 26.6469 134.474 26.0244C134.466 25.9119 134.444 25.7844 134.384 25.6869C133.379 24.082 134.414 21.7871 136.626 21.7346C137.369 21.7196 138.118 21.6446 138.853 21.8771C140.383 22.3646 141.103 24.172 140.331 25.5745C140.241 25.7319 140.181 25.9269 140.173 26.1069C140.128 26.8569 139.858 27.4944 139.341 28.0419C139.273 28.1094 139.228 28.2293 139.221 28.3268C139.206 28.5743 139.221 28.8218 139.213 29.0768C139.206 29.3768 139.348 29.5643 139.618 29.6693C140.203 29.8943 140.788 30.1193 141.373 30.3518C142.513 30.7942 143.053 31.5817 143.053 32.8042C143.053 33.9891 143.053 35.1816 143.053 36.3665C143.053 36.4265 143.053 36.4865 143.053 36.5465C143.023 36.8465 142.836 37.0415 142.588 37.034C142.333 37.0265 142.161 36.839 142.161 36.524C142.153 35.774 142.161 35.0241 142.161 34.2816C142.161 33.7641 142.161 33.2466 142.161 32.7217C142.153 31.9942 141.823 31.4917 141.141 31.2217C140.728 31.0342 140.301 30.8692 139.881 30.7117ZM139.723 24.592C139.896 23.692 139.266 22.7696 138.366 22.6646C137.759 22.5896 137.129 22.5896 136.514 22.6346C135.576 22.7021 134.976 23.3545 134.916 24.262C134.901 24.4345 134.901 24.5695 135.119 24.667C135.246 24.7195 135.344 24.937 135.366 25.0945C135.404 25.357 135.381 25.6345 135.381 25.8969C135.381 27.4344 136.739 28.2293 137.923 27.8619C138.771 27.5994 139.266 26.8569 139.296 25.8669C139.303 25.567 139.243 25.447 138.913 25.3945C137.968 25.2595 137.084 24.922 136.229 24.5095C135.966 24.382 135.869 24.1195 135.981 23.887C136.086 23.6695 136.334 23.587 136.596 23.692C136.769 23.7595 136.941 23.8495 137.114 23.9245C137.946 24.2845 138.801 24.532 139.723 24.592ZM136.349 28.7243C136.386 29.3768 136.274 29.9693 135.659 30.3443C136.071 30.9742 136.626 31.3117 137.361 31.3042C138.081 31.2967 138.628 30.9667 139.026 30.3368C138.396 29.9618 138.306 29.3468 138.336 28.7168C137.968 28.7618 137.661 28.8293 137.346 28.8293C137.024 28.8443 136.709 28.7693 136.349 28.7243Z" fill="white"/>
<path d="M125.004 33.7343C125.229 33.7343 125.326 33.9292 125.424 34.1542C125.746 34.9267 126.031 35.7217 126.436 36.4491C127.981 39.2165 130.283 41.114 133.276 42.1639C133.373 42.1939 133.463 42.2239 133.561 42.2614C133.868 42.3814 133.996 42.5989 133.913 42.8614C133.831 43.1089 133.576 43.2214 133.276 43.1089C132.788 42.9364 132.293 42.7714 131.828 42.5539C128.251 40.8815 125.829 38.1741 124.576 34.4317C124.546 34.3492 124.524 34.2592 124.524 34.1692C124.516 33.9217 124.704 33.7343 125.004 33.7343Z" fill="white"/>
<path d="M150.203 34.1092C150.083 34.4766 150.001 34.7766 149.881 35.0616C148.291 39.044 145.478 41.7289 141.414 43.1013C141.099 43.2063 140.851 43.1163 140.761 42.8763C140.656 42.5988 140.791 42.3663 141.151 42.2538C142.674 41.7589 144.061 41.0089 145.298 39.9889C147.121 38.474 148.418 36.5916 149.191 34.3492C149.236 34.2067 149.288 34.0642 149.356 33.9367C149.468 33.7492 149.663 33.6817 149.843 33.7642C149.986 33.8317 150.091 33.9967 150.203 34.1092Z" fill="white"/>
<path d="M124.966 26.9243C124.628 26.9243 124.448 26.6319 124.568 26.2644C124.898 25.2144 125.348 24.217 125.933 23.287C127.666 20.5271 130.073 18.6372 133.156 17.5947C133.268 17.5572 133.403 17.4897 133.501 17.5272C133.651 17.5797 133.831 17.6847 133.906 17.8122C134.003 17.9847 133.936 18.1872 133.756 18.3072C133.651 18.3747 133.523 18.4197 133.403 18.4647C129.488 19.8371 126.848 22.477 125.468 26.3844C125.378 26.6394 125.318 26.9168 124.966 26.9243Z" fill="white"/>
<path d="M141.129 17.4598C141.496 17.5873 141.796 17.6698 142.081 17.7823C146.048 19.3648 148.733 22.1772 150.098 26.227C150.211 26.5645 150.121 26.812 149.858 26.902C149.588 26.992 149.363 26.857 149.243 26.497C148.561 24.4046 147.421 22.6121 145.801 21.1197C144.496 19.9197 143.011 19.0423 141.331 18.4723C141.196 18.4273 141.061 18.3823 140.941 18.3148C140.739 18.2023 140.664 17.9923 140.761 17.8048C140.844 17.6623 141.016 17.5648 141.129 17.4598Z" fill="white"/>
<path d="M150.208 27.9744C151.461 27.8844 152.578 28.9044 152.661 30.2318C152.743 31.4918 151.746 32.5792 150.411 32.6842C149.166 32.7817 148.033 31.7692 147.943 30.4793C147.853 29.1594 148.836 28.0719 150.208 27.9744ZM151.768 30.3443C151.776 29.5418 151.116 28.8744 150.313 28.8669C149.511 28.8594 148.843 29.5118 148.836 30.3218C148.828 31.1318 149.481 31.7917 150.291 31.7992C151.086 31.8067 151.761 31.1468 151.768 30.3443Z" fill="white"/>
<path d="M139.695 43.4237C139.635 44.7737 138.465 45.7336 137.22 45.6511C135.878 45.5611 134.881 44.4287 134.993 43.1462C135.113 41.7888 136.23 40.8213 137.543 40.9413C138.818 41.0538 139.8 42.1788 139.695 43.4237ZM137.348 44.7587C138.15 44.7512 138.81 44.0837 138.803 43.2812C138.795 42.4713 138.135 41.8188 137.325 41.8263C136.515 41.8338 135.863 42.5013 135.87 43.3037C135.885 44.1062 136.545 44.7662 137.348 44.7587Z" fill="white"/>
<path d="M134.421 35.8342C134.421 36.5391 134.429 37.2516 134.421 37.9566C134.414 38.3616 134.054 38.5941 133.761 38.3766C133.641 38.2866 133.544 38.0991 133.544 37.9566C133.529 36.5541 133.529 35.1517 133.536 33.7418C133.536 33.4268 133.724 33.2543 133.986 33.2543C134.264 33.2543 134.421 33.4343 134.429 33.7793C134.429 34.4617 134.421 35.1517 134.421 35.8342Z" fill="white"/>
<path d="M140.253 35.8341C140.253 35.1441 140.246 34.4616 140.253 33.7716C140.253 33.4192 140.433 33.2392 140.726 33.2542C140.973 33.2692 141.131 33.4417 141.138 33.7491C141.153 34.0566 141.146 34.3641 141.146 34.6716C141.146 35.6766 141.146 36.6815 141.146 37.6865C141.146 37.769 141.146 37.844 141.146 37.9265C141.123 38.249 140.951 38.4515 140.688 38.4515C140.426 38.4515 140.253 38.249 140.253 37.919C140.246 37.2215 140.253 36.524 140.253 35.8341Z" fill="white"/>
<path d="M588.55 21.625H582.875V39H588.55C594.125 39 597.775 35.725 597.775 30.375C597.775 25 594.125 21.625 588.55 21.625ZM585.725 36.675V23.95H588.55C592.65 23.95 594.85 26.4 594.85 30.375C594.85 34.325 592.65 36.675 588.55 36.675H585.725ZM613.575 25.225H610.725V32.9C610.725 35.425 609.35 36.725 607.25 36.725C605.175 36.725 603.8 35.425 603.8 32.9V25.225H600.975V33.325C600.975 37.175 603.425 39.2 606.65 39.2C608.275 39.2 609.825 38.525 610.725 37.35V39H613.575V25.225ZM620.685 31.75C620.685 28.825 621.985 27.95 624.085 27.95H624.81V25C622.86 25 621.485 25.85 620.685 27.225V25.225H617.835V39H620.685V31.75ZM626.98 32.05C626.98 36.3 629.855 39.225 633.43 39.225C635.73 39.225 637.38 38.125 638.255 36.95V39H641.13V25.225H638.255V27.225C637.405 26.1 635.805 25 633.48 25C629.855 25 626.98 27.8 626.98 32.05ZM638.255 32.1C638.255 35.075 636.23 36.75 634.08 36.75C631.955 36.75 629.905 35.025 629.905 32.05C629.905 29.075 631.955 27.475 634.08 27.475C636.23 27.475 638.255 29.15 638.255 32.1ZM645.823 35.175C645.823 37.975 647.348 39 649.798 39H652.048V36.625H650.298C649.098 36.625 648.698 36.2 648.698 35.175V27.55H652.048V25.225H648.698V21.8H645.823V25.225H644.198V27.55H645.823V35.175ZM655.175 39H658.025V25.225H655.175V39ZM656.625 23.4C657.625 23.4 658.425 22.6 658.425 21.575C658.425 20.55 657.625 19.75 656.625 19.75C655.6 19.75 654.8 20.55 654.8 21.575C654.8 22.6 655.6 23.4 656.625 23.4ZM675.392 32.1C675.392 27.775 672.292 25 668.367 25C664.442 25 661.342 27.775 661.342 32.1C661.342 36.425 664.317 39.225 668.242 39.225C672.192 39.225 675.392 36.425 675.392 32.1ZM664.242 32.1C664.242 28.975 666.167 27.475 668.317 27.475C670.442 27.475 672.467 28.975 672.467 32.1C672.467 35.225 670.367 36.75 668.242 36.75C666.092 36.75 664.242 35.225 664.242 32.1ZM688.484 39H691.309V30.875C691.309 27.025 688.884 25 685.659 25C684.009 25 682.484 25.675 681.559 26.8V25.225H678.709V39H681.559V31.3C681.559 28.775 682.934 27.475 685.034 27.475C687.109 27.475 688.484 28.775 688.484 31.3V39Z" fill="white"/>
<path d="M555 24V32.764L561.836 37L563 35.2472L557.182 31.7416V24H555Z" fill="white"/>
<path d="M566.111 30.1111C566.32 31.4915 566.228 32.901 565.84 34.2423C565.453 35.5837 564.779 36.8251 563.865 37.8811C562.952 38.9371 561.821 39.7826 560.549 40.3594C559.278 40.9361 557.896 41.2305 556.5 41.2221C551.083 41.2221 546.778 36.9166 546.778 31.4999C546.778 26.0833 551.083 21.7778 556.5 21.7778C557.472 21.7778 558.403 21.9167 559.278 22.1805V19.3194C558.389 19.1111 557.458 19 556.5 19C549.555 19 544 24.5555 544 31.4999C544 38.4444 549.555 43.9999 556.5 43.9999C558.261 44.0072 560.003 43.6409 561.611 42.9253C563.22 42.2096 564.659 41.1609 565.832 39.8483C567.006 38.5357 567.887 36.9891 568.419 35.3106C568.951 33.6321 569.12 31.8599 568.916 30.1111H566.111Z" fill="white"/>
<path d="M568.875 20.125V16H566.125V20.125H562V22.875H566.125V27H568.875V22.875H573V20.125H568.875Z" fill="white"/>
<path d="M1000.6 39H1003.6L997.375 21.6H994.075L987.85 39H990.825L992.075 35.45H999.35L1000.6 39ZM998.55 33.125H992.875L995.725 25.05L998.55 33.125ZM1009.66 27.25V25.225H1006.81V45.55H1009.66V37C1010.56 38.075 1012.18 39.225 1014.46 39.225C1018.08 39.225 1020.93 36.3 1020.93 32.05C1020.93 27.8 1018.08 25 1014.46 25C1012.21 25 1010.53 26.1 1009.66 27.25ZM1018.03 32.05C1018.03 35.025 1015.98 36.75 1013.83 36.75C1011.71 36.75 1009.66 35.075 1009.66 32.1C1009.66 29.15 1011.71 27.475 1013.83 27.475C1015.98 27.475 1018.03 29.075 1018.03 32.05ZM1027.1 27.25V25.225H1024.25V45.55H1027.1V37C1028 38.075 1029.63 39.225 1031.9 39.225C1035.53 39.225 1038.38 36.3 1038.38 32.05C1038.38 27.8 1035.53 25 1031.9 25C1029.65 25 1027.98 26.1 1027.1 27.25ZM1035.48 32.05C1035.48 35.025 1033.43 36.75 1031.28 36.75C1029.15 36.75 1027.1 35.075 1027.1 32.1C1027.1 29.15 1029.15 27.475 1031.28 27.475C1033.43 27.475 1035.48 29.075 1035.48 32.05ZM1044.54 31.75C1044.54 28.825 1045.84 27.95 1047.94 27.95H1048.67V25C1046.72 25 1045.34 25.85 1044.54 27.225V25.225H1041.69V39H1044.54V31.75ZM1064.91 32.1C1064.91 27.775 1061.81 25 1057.89 25C1053.96 25 1050.86 27.775 1050.86 32.1C1050.86 36.425 1053.84 39.225 1057.76 39.225C1061.71 39.225 1064.91 36.425 1064.91 32.1ZM1053.76 32.1C1053.76 28.975 1055.69 27.475 1057.84 27.475C1059.96 27.475 1061.99 28.975 1061.99 32.1C1061.99 35.225 1059.89 36.75 1057.76 36.75C1055.61 36.75 1053.76 35.225 1053.76 32.1ZM1066.61 25.225L1071.83 39H1075.23L1080.48 25.225H1077.46L1073.56 36.45L1069.66 25.225H1066.61ZM1082.18 32.05C1082.18 36.3 1085.06 39.225 1088.63 39.225C1090.93 39.225 1092.58 38.125 1093.46 36.95V39H1096.33V25.225H1093.46V27.225C1092.61 26.1 1091.01 25 1088.68 25C1085.06 25 1082.18 27.8 1082.18 32.05ZM1093.46 32.1C1093.46 35.075 1091.43 36.75 1089.28 36.75C1087.16 36.75 1085.11 35.025 1085.11 32.05C1085.11 29.075 1087.16 27.475 1089.28 27.475C1091.43 27.475 1093.46 29.15 1093.46 32.1ZM1100.58 39H1103.43V20.5H1100.58V39ZM1117.94 35.15C1117.79 30.175 1110.02 31.725 1110.02 28.95C1110.02 28.025 1110.82 27.4 1112.34 27.4C1113.89 27.4 1114.82 28.225 1114.92 29.425H1117.77C1117.62 26.675 1115.57 25 1112.44 25C1109.19 25 1107.14 26.775 1107.14 28.975C1107.14 34.025 1115.14 32.475 1115.14 35.175C1115.14 36.125 1114.27 36.825 1112.62 36.825C1111.04 36.825 1109.97 35.9 1109.87 34.775H1106.92C1107.04 37.275 1109.37 39.225 1112.67 39.225C1115.92 39.225 1117.94 37.475 1117.94 35.15Z" fill="white"/>
<path d="M965.672 45.5916C965.464 45.4529 965.353 45.2587 965.291 45.009C965.062 44.1143 964.812 43.2266 964.57 42.3041C964.244 42.3873 963.932 42.4706 963.619 42.5538C963.016 42.7133 962.42 42.8728 961.816 43.0393C961.553 43.1156 961.296 43.1433 961.109 42.8937C960.921 42.6509 961.005 42.4151 961.143 42.1723C962.191 40.3621 963.231 38.545 964.285 36.7417C964.389 36.5683 964.382 36.4781 964.23 36.3325C963.724 35.8609 963.446 35.2644 963.342 34.5847C963.266 34.0714 963.023 33.6622 962.635 33.3293C961.476 32.3306 961.171 31.1793 961.677 29.7436C961.844 29.265 961.844 28.8003 961.671 28.3217C961.171 26.8999 961.49 25.7278 962.642 24.7429C963.023 24.4169 963.259 24.0077 963.342 23.5084C963.585 22.0935 964.507 21.1572 965.908 20.9214C966.442 20.8312 966.872 20.5815 967.226 20.1584C968.128 19.0765 969.383 18.7366 970.701 19.2152C971.221 19.4024 971.72 19.4094 972.241 19.2152C973.558 18.7366 974.8 19.0626 975.701 20.1307C976.076 20.5746 976.534 20.8381 977.109 20.9283C978.379 21.1294 979.377 22.1282 979.585 23.3974C979.676 23.9731 979.932 24.4308 980.383 24.8053C981.451 25.707 981.777 26.9485 981.299 28.2663C981.111 28.7864 981.111 29.2858 981.299 29.806C981.784 31.1376 981.437 32.393 980.341 33.3016C979.967 33.6137 979.703 33.9882 979.634 34.4737C979.509 35.2644 979.19 35.9371 978.566 36.4781C978.614 36.5683 978.656 36.6515 978.705 36.7278C979.731 38.5103 980.758 40.2928 981.791 42.0752C981.833 42.1446 981.867 42.207 981.909 42.2764C982.027 42.4844 982.034 42.6925 981.881 42.8798C981.729 43.067 981.534 43.1156 981.299 43.0532C980.404 42.8104 979.516 42.5746 978.621 42.3388C978.566 42.3249 978.503 42.3111 978.42 42.2972C978.261 42.8937 978.101 43.4832 977.942 44.0727C977.858 44.3779 977.761 44.69 977.699 45.0021C977.65 45.2518 977.526 45.446 977.317 45.5847C977.213 45.5847 977.109 45.5847 977.005 45.5847C976.874 45.446 976.7 45.3281 976.603 45.1616C975.466 43.2058 974.335 41.243 973.198 39.2802C973.142 39.1831 973.052 39.086 972.955 39.0513C972.698 38.9611 972.421 38.9126 972.157 38.8293C971.7 38.6767 971.242 38.6767 970.784 38.8363C970.583 38.9056 970.375 38.9889 970.167 39.0166C969.966 39.0443 969.875 39.1484 969.778 39.301C968.655 41.2568 967.524 43.2127 966.394 45.1616C966.297 45.3212 966.13 45.446 965.991 45.5847C965.881 45.5916 965.776 45.5916 965.672 45.5916ZM969.73 20.0405C968.988 20.0613 968.461 20.2763 968.079 20.7618C967.538 21.4346 966.852 21.8299 965.998 21.9686C965.125 22.1143 964.514 22.7454 964.375 23.6263C964.251 24.4239 963.883 25.0689 963.266 25.5891C962.503 26.2202 962.288 27.0109 962.628 27.9333C962.905 28.6824 962.905 29.4176 962.628 30.1597C962.295 31.0752 962.496 31.8659 963.245 32.4901C963.876 33.0172 964.251 33.6761 964.382 34.4945C964.521 35.3615 965.159 35.9996 966.026 36.1383C966.838 36.2701 967.497 36.6446 968.031 37.2757C968.655 38.0248 969.445 38.2259 970.361 37.893C971.11 37.6156 971.845 37.6156 972.587 37.893C973.503 38.2329 974.307 38.0109 974.939 37.2549C975.445 36.6446 976.09 36.277 976.874 36.1452C977.796 35.9926 978.399 35.41 978.566 34.4876C978.712 33.6692 979.086 32.9964 979.731 32.4693C980.439 31.8867 980.661 31.0683 980.341 30.2083C980.05 29.4245 980.05 28.6616 980.341 27.8779C980.661 27.0178 980.452 26.2133 979.752 25.6307C979.1 25.0897 978.719 24.4239 978.573 23.5916C978.413 22.69 977.831 22.1143 976.936 21.9478C976.159 21.8091 975.5 21.4762 974.987 20.8659C974.307 20.0544 973.551 19.8463 972.553 20.207C971.838 20.4636 971.138 20.4636 970.423 20.207C970.146 20.1237 969.875 20.0752 969.73 20.0405ZM974.196 38.9611C975.119 40.5563 976.014 42.1099 976.943 43.719C976.992 43.5595 977.012 43.4693 977.04 43.3792C977.2 42.7966 977.352 42.214 977.512 41.6244C977.623 41.2152 977.858 41.0834 978.268 41.1875C978.497 41.243 978.719 41.3123 978.94 41.3678C979.405 41.4926 979.87 41.6105 980.376 41.7423C979.447 40.1332 978.545 38.5727 977.657 37.033C977.387 37.0885 977.165 37.137 976.936 37.1856C976.506 37.2688 976.118 37.4491 975.847 37.789C975.417 38.323 974.904 38.7461 974.196 38.9611ZM966.026 43.7259C966.962 42.1099 967.857 40.5494 968.773 38.975C968.065 38.76 967.538 38.3438 967.101 37.8029C966.838 37.4769 966.47 37.2965 966.061 37.2064C965.818 37.1509 965.575 37.1093 965.305 37.0538C964.41 38.5935 963.509 40.1471 962.586 41.7562C963.314 41.562 963.98 41.3817 964.646 41.2013C965.138 41.0696 965.346 41.1944 965.478 41.6938C965.652 42.3457 965.825 42.9977 966.026 43.7259Z" fill="white"/>
<path d="M964.719 29.2026C964.733 26.5324 966.349 24.0702 968.804 23.0229C968.859 23.0021 968.915 22.9744 968.97 22.9535C969.269 22.8495 969.553 22.9605 969.664 23.231C969.775 23.5015 969.664 23.772 969.366 23.9107C969.123 24.0286 968.873 24.1326 968.644 24.2644C966.584 25.4227 965.426 27.8502 965.842 30.132C966.293 32.6011 968.152 34.4668 970.545 34.8483C973.707 35.3546 976.641 33.2323 977.141 30.0835C977.543 27.5311 976.163 25.0273 973.77 23.98C973.721 23.9592 973.673 23.9384 973.624 23.9176C973.312 23.772 973.187 23.5015 973.305 23.224C973.423 22.9466 973.707 22.8356 974.02 22.9605C974.824 23.2865 975.552 23.7373 976.163 24.3476C978.028 26.2411 978.694 28.5021 977.966 31.0614C977.245 33.5999 975.511 35.202 972.944 35.7985C969.06 36.707 965.19 33.912 964.781 29.9447C964.753 29.702 964.74 29.4523 964.719 29.2026Z" fill="white"/>
<path d="M970.884 28.183C971.606 27.4617 972.299 26.7681 972.986 26.0746C973.381 25.6792 973.61 25.6792 974.012 26.0815C974.477 26.5462 974.942 27.0109 975.407 27.4756C975.705 27.7808 975.712 28.0512 975.407 28.3495C974.047 29.7089 972.688 31.0683 971.328 32.4277C971.023 32.7328 970.753 32.7398 970.454 32.4346C969.483 31.4705 968.519 30.4995 967.555 29.5355C967.264 29.2442 967.264 28.9737 967.548 28.6824C968.048 28.1761 968.547 27.6767 969.053 27.1773C969.331 26.9069 969.608 26.9069 969.893 27.1773C970.226 27.5033 970.545 27.8362 970.884 28.183ZM973.485 27.0456C972.778 27.753 972.084 28.4535 971.384 29.154C971.016 29.5216 970.767 29.5216 970.399 29.1471C970.094 28.8419 969.802 28.5367 969.511 28.2454C969.199 28.5576 968.915 28.8419 968.651 29.1055C969.393 29.8476 970.149 30.6105 970.877 31.3388C972.015 30.2013 973.166 29.05 974.318 27.8987C974.061 27.6351 973.784 27.3507 973.485 27.0456Z" fill="white"/>
<path d="M971.496 22.475C971.78 22.4819 972.002 22.7108 972.002 22.9882C972.002 23.2656 971.767 23.5015 971.489 23.5015C971.205 23.5015 970.962 23.2518 970.969 22.9674C970.976 22.69 971.205 22.475 971.496 22.475Z" fill="white"/>
</svg>
