<svg width="85" height="25" viewBox="0 0 85 25" fill="none" xmlns="http://www.w3.org/2000/svg">
<rect width="85" height="25" rx="12.5" fill="#019A41"/>
<path d="M23.762 15.5H25.0447L22.8693 9.442H21.4567L19.2813 15.5H20.5553L20.954 14.3473H23.3633L23.762 15.5ZM23.034 13.3767H21.2833L22.1587 10.846L23.034 13.3767ZM27.0711 11.392V10.6987H25.8578V17.788H27.0711V14.8153C27.3658 15.2053 27.9031 15.578 28.6571 15.578C29.8878 15.578 30.8498 14.5813 30.8498 13.082C30.8498 11.5827 29.8878 10.6207 28.6571 10.6207C27.9118 10.6207 27.3571 10.9847 27.0711 11.392ZM29.6104 13.082C29.6104 13.992 28.9951 14.512 28.3364 14.512C27.6864 14.512 27.0711 14.0093 27.0711 13.0993C27.0711 12.1893 27.6864 11.6867 28.3364 11.6867C28.9951 11.6867 29.6104 12.172 29.6104 13.082ZM32.9448 11.392V10.6987H31.7315V17.788H32.9448V14.8153C33.2395 15.2053 33.7768 15.578 34.5308 15.578C35.7615 15.578 36.7235 14.5813 36.7235 13.082C36.7235 11.5827 35.7615 10.6207 34.5308 10.6207C33.7855 10.6207 33.2308 10.9847 32.9448 11.392ZM35.4841 13.082C35.4841 13.992 34.8688 14.512 34.2101 14.512C33.5601 14.512 32.9448 14.0093 32.9448 13.0993C32.9448 12.1893 33.5601 11.6867 34.2101 11.6867C34.8688 11.6867 35.4841 12.172 35.4841 13.082ZM37.6052 15.5H38.8185V9.08667H37.6052V15.5ZM42.0626 14.0527L40.8233 10.6987H39.4626L41.3866 15.3787L40.3466 17.7707H41.6379L44.6106 10.6987H43.3193L42.0626 14.0527ZM51.2904 9.442V13.602L48.5431 9.442H47.3298V15.5H48.5431V11.3487L51.2904 15.5H52.5038V9.442H51.2904ZM58.3395 13.0993C58.3395 11.5827 57.2562 10.6207 55.8695 10.6207C54.4828 10.6207 53.3995 11.5827 53.3995 13.0993C53.3995 14.6073 54.4481 15.578 55.8348 15.578C57.2302 15.578 58.3395 14.6073 58.3395 13.0993ZM54.6301 13.0993C54.6301 12.1373 55.2108 11.678 55.8521 11.678C56.4935 11.678 57.0915 12.1373 57.0915 13.0993C57.0915 14.0527 56.4762 14.5207 55.8348 14.5207C55.1848 14.5207 54.6301 14.0527 54.6301 13.0993ZM60.1048 15.5H61.4222L62.2975 12.146L63.1728 15.5H64.4815L65.8855 10.6987H64.7242L63.8748 14.3473L62.9735 10.6987H61.6908L60.7722 14.356L59.9228 10.6987H58.6922L60.1048 15.5Z" fill="white"/>
</svg>
