<svg width="70" height="70" viewBox="0 0 70 70" fill="none" xmlns="http://www.w3.org/2000/svg">
<rect width="70" height="70" fill="#F5F5F5"/>
<circle cx="35" cy="35" r="34.5" fill="#194D99" stroke="white"/>
<path fill-rule="evenodd" clip-rule="evenodd" d="M35.6528 45.4021L32.9389 42.6057L34.3707 41.0644L38.9224 45.7544V47.2958L34.3707 51.9858L32.8534 50.4225L35.5673 47.6261H31.614C30.9116 47.629 30.2156 47.4886 29.5662 47.213C28.9168 46.9374 28.3267 46.532 27.83 46.0202C27.3334 45.5085 26.94 44.9005 26.6725 44.2313C26.405 43.5621 26.2688 42.845 26.2716 42.1213V29.9007C25.2477 29.6761 24.3067 29.1569 23.5577 28.4034C22.8137 27.6289 22.3076 26.6458 22.1024 25.5768C21.8971 24.5078 22.002 23.4002 22.4037 22.3922C22.8092 21.3876 23.4945 20.5293 24.3731 19.9258C25.2517 19.3222 26.2841 19.0005 27.3401 19.0012C28.073 18.985 28.801 19.1275 29.477 19.4196C30.1246 19.6941 30.713 20.0982 31.2082 20.6084C31.7034 21.1186 32.0955 21.7249 32.3619 22.3922C32.6461 23.0902 32.7829 23.841 32.7679 24.5941C32.7682 25.8631 32.3429 27.0932 31.5641 28.0763C30.7853 29.0594 29.7007 29.735 28.494 29.9888V42.0993C28.494 42.9752 28.8317 43.8153 29.4329 44.4347C30.034 45.0541 30.8493 45.4021 31.6995 45.4021H35.6528V45.4021ZM25.6519 27.2364C26.2684 27.6596 27.0082 27.8498 27.7455 27.7744C28.4827 27.6991 29.1718 27.3629 29.6957 26.8232C30.2196 26.2834 30.5458 25.5733 30.6189 24.8136C30.692 24.054 30.5075 23.2917 30.0967 22.6564C29.7383 22.1092 29.2335 21.6809 28.6436 21.4233C28.0613 21.179 27.4219 21.1177 26.8058 21.2472C26.1819 21.3715 25.6083 21.6854 25.1589 22.1485C24.7095 22.6115 24.4049 23.2025 24.2842 23.8454C24.1585 24.4802 24.218 25.1391 24.4552 25.7391C24.7052 26.349 25.1198 26.8687 25.6519 27.2364V27.2364ZM47.7266 41.1084C48.7524 41.3242 49.6969 41.846 50.4405 42.6057C51.3118 43.509 51.8536 44.6946 51.9743 45.962C52.0951 47.2295 51.7873 48.501 51.103 49.5615C50.6635 50.2367 50.0843 50.8032 49.407 51.2203C48.7297 51.6374 47.9712 51.8948 47.1859 51.9739C46.4007 52.053 45.6081 51.9519 44.8653 51.6778C44.1224 51.4037 43.4477 50.9635 42.8896 50.3888C42.3315 49.8141 41.9039 49.1191 41.6375 48.3539C41.3711 47.5886 41.2725 46.772 41.3488 45.9628C41.4252 45.1536 41.6745 44.3719 42.0789 43.6738C42.4833 42.9757 43.0327 42.3786 43.6878 41.9253C44.2626 41.5246 44.908 41.2471 45.5897 41.1106V28.8878C45.5897 28.0118 45.2519 27.1717 44.6508 26.5523C44.0497 25.9329 43.2344 25.585 42.3842 25.585H38.4309L41.1448 28.3814L39.6276 29.9447L35.0758 25.2547V23.7133L39.6276 19.0233L41.1448 20.5866L38.4309 23.383H42.3842C43.0866 23.3801 43.7826 23.5205 44.432 23.7961C45.0815 24.0717 45.6715 24.4771 46.1682 24.9889C46.6648 25.5006 47.0582 26.1086 47.3257 26.7778C47.5932 27.447 47.7294 28.1641 47.7266 28.8878V41.1084V41.1084ZM46.9765 49.7905C47.5262 49.7337 48.0523 49.5314 48.5038 49.2034C48.9553 48.8753 49.3168 48.4326 49.5533 47.9182C49.7898 47.4038 49.8933 46.8351 49.8537 46.2673C49.814 45.6996 49.6327 45.152 49.3272 44.6777C48.9688 44.1305 48.464 43.7022 47.8741 43.4446C47.2924 43.2007 46.6538 43.1394 46.0384 43.2685C45.4145 43.3928 44.8409 43.7067 44.3915 44.1697C43.9421 44.6328 43.6375 45.2238 43.5168 45.8667C43.3911 46.5015 43.4506 47.1604 43.6878 47.7604C43.9504 48.4188 44.4125 48.9721 45.0051 49.3379C45.5978 49.7037 46.2892 49.8625 46.9765 49.7905V49.7905Z" fill="white"/>
</svg>
