<svg width="83" height="82" viewBox="0 0 83 82" fill="none" xmlns="http://www.w3.org/2000/svg">
<circle cx="41.6181" cy="41.3618" r="40.1281" fill="#003C92" stroke="white"/>
<path d="M41.618 31.0435C51.8755 31.0435 60.1909 29.1957 60.1909 26.9162C60.1909 24.6368 51.8755 22.7889 41.618 22.7889C31.3605 22.7889 23.0452 24.6368 23.0452 26.9162C23.0452 29.1957 31.3605 31.0435 41.618 31.0435Z" fill="#003C92" stroke="white" stroke-width="2" stroke-linecap="round" stroke-linejoin="round"/>
<path d="M23.0452 26.9162C23.0452 31.5182 31.0336 40.689 35.1299 45.0867C36.6326 46.6795 37.4761 48.7825 37.4907 50.9722V61.9983L45.7453 57.871V50.9722C45.7453 48.7827 46.6141 46.6901 48.1062 45.0867C52.2046 40.689 60.1909 31.5202 60.1909 26.9162" fill="#003C92"/>
<path d="M23.0452 26.9162C23.0452 31.5182 31.0336 40.689 35.1299 45.0867C36.6326 46.6795 37.4761 48.7825 37.4907 50.9722V61.9983L45.7453 57.871V50.9722C45.7453 48.7827 46.6141 46.6901 48.1062 45.0867C52.2046 40.689 60.1909 31.5202 60.1909 26.9162" stroke="white" stroke-width="2" stroke-linecap="round" stroke-linejoin="round"/>
</svg>
