<svg width="70" height="70" viewBox="0 0 70 70" fill="none" xmlns="http://www.w3.org/2000/svg">
<circle cx="35" cy="35" r="34.5" fill="#194D99" stroke="white"/>
<path d="M33.4018 45.8022C36.1534 45.8017 38.8257 44.8806 40.9932 43.1856L47.808 50L50 47.8081L43.1852 40.9937C44.8812 38.8261 45.8029 36.1533 45.8035 33.4011C45.8035 26.5634 40.2398 21 33.4018 21C26.5637 21 21 26.5634 21 33.4011C21 40.2388 26.5637 45.8022 33.4018 45.8022ZM33.4018 24.1003C38.5315 24.1003 42.7031 28.2717 42.7031 33.4011C42.7031 38.5305 38.5315 42.7019 33.4018 42.7019C28.2721 42.7019 24.1004 38.5305 24.1004 33.4011C24.1004 28.2717 28.2721 24.1003 33.4018 24.1003Z" fill="white"/>
<path d="M35.6019 31.2761C36.1816 31.9436 36.5012 32.8255 36.5012 33.76H39.5601C39.5615 32.8368 39.4035 31.9224 39.0953 31.0697C38.7871 30.2169 38.3348 29.4429 37.7645 28.7921C35.449 26.136 31.4342 26.136 29.1201 28.7921L31.2797 31.2796C32.4421 29.948 34.4456 29.9515 35.6019 31.2761Z" fill="white"/>
</svg>
