<svg width="25" height="25" viewBox="0 0 25 25" fill="none" xmlns="http://www.w3.org/2000/svg">
<path d="M10.6912 21.3812C13.0633 21.3807 15.367 20.5867 17.2355 19.1255L23.1103 25L25 23.1104L19.1252 17.2359C20.5872 15.3673 21.3818 13.0632 21.3824 10.6906C21.3824 4.79608 16.586 0 10.6912 0C4.79633 0 0 4.79608 0 10.6906C0 16.5851 4.79633 21.3812 10.6912 21.3812ZM10.6912 2.67265C15.1133 2.67265 18.7096 6.26871 18.7096 10.6906C18.7096 15.1125 15.1133 18.7086 10.6912 18.7086C6.26904 18.7086 2.6728 15.1125 2.6728 10.6906C2.6728 6.26871 6.26904 2.67265 10.6912 2.67265Z" fill="#003C92"/>
<path d="M12.5877 8.85866C13.0875 9.43412 13.363 10.1943 13.363 11H16C16.0012 10.2041 15.865 9.41579 15.5993 8.68069C15.3336 7.9456 14.9437 7.27828 14.4521 6.71731C12.4559 4.42756 8.99487 4.42756 7 6.71731L8.8617 8.86169C9.86375 7.71378 11.591 7.71681 12.5877 8.85866Z" fill="#003C92"/>
</svg>
