<svg width="135" height="135" viewBox="0 0 135 135" fill="none" xmlns="http://www.w3.org/2000/svg">
<rect x="1.5" y="1.5" width="132" height="132" rx="27.5" stroke="#003C92" stroke-width="3"/>
<circle cx="67.5" cy="67.5" r="44.5" fill="#86AF5F"/>
<circle cx="67.5" cy="67.5" r="44.5" stroke="#003C92"/>
<path fill-rule="evenodd" clip-rule="evenodd" d="M65.6349 82.0396L61.8776 78.143L63.8598 75.9952L70.1614 82.5305V84.6783L63.8598 91.2136L61.7593 89.0352L65.5166 85.1385H60.0434C59.071 85.1426 58.1074 84.947 57.2083 84.5629C56.3092 84.1789 55.4923 83.614 54.8047 82.9009C54.1171 82.1878 53.5725 81.3406 53.2022 80.4082C52.8318 79.4757 52.6432 78.4764 52.6471 77.468V60.4394C51.2296 60.1264 49.9268 59.403 48.8898 58.353C47.8599 57.2738 47.1591 55.9039 46.875 54.4143C46.5909 52.9248 46.736 51.3814 47.2922 49.9768C47.8536 48.5769 48.8024 47.381 50.0187 46.54C51.2351 45.699 52.6645 45.2507 54.1264 45.2517C55.141 45.2291 56.1489 45.4277 57.0849 45.8347C57.9814 46.2172 58.796 46.7802 59.4816 47.4912C60.1671 48.2021 60.71 49.0469 61.0788 49.9768C61.4723 50.9494 61.6617 51.9957 61.6409 53.045C61.6413 54.8133 61.0525 56.5274 59.9743 57.8972C58.896 59.2671 57.3946 60.2085 55.724 60.5621V77.4373C55.724 78.6579 56.1915 79.8285 57.0237 80.6916C57.856 81.5547 58.9847 82.0396 60.1617 82.0396H65.6349V82.0396ZM51.7892 56.7269C52.6427 57.3166 53.6669 57.5816 54.6876 57.4766C55.7083 57.3716 56.6624 56.9032 57.3876 56.1511C58.1129 55.3989 58.5645 54.4094 58.6657 53.3509C58.767 52.2924 58.5115 51.2302 57.9428 50.345C57.4466 49.5825 56.7478 48.9857 55.931 48.6268C55.1249 48.2862 54.2396 48.2008 53.3867 48.3813C52.5229 48.5546 51.7288 48.9919 51.1067 49.6372C50.4845 50.2824 50.0628 51.1059 49.8957 52.0018C49.7217 52.8863 49.804 53.8044 50.1324 54.6405C50.4785 55.4904 51.0525 56.2145 51.7892 56.7269V56.7269ZM82.3504 76.0566C83.7705 76.3573 85.0781 77.0845 86.1077 78.143C87.3139 79.4016 88.064 81.0537 88.2312 82.8198C88.3983 84.5859 87.9721 86.3577 87.0248 87.8355C86.4163 88.7763 85.6145 89.5657 84.6768 90.1469C83.7392 90.7281 82.689 91.0867 81.6019 91.1969C80.5147 91.3072 79.4175 91.1663 78.389 90.7844C77.3606 90.4025 76.4265 89.7891 75.6539 88.9882C74.8812 88.1874 74.2892 87.219 73.9204 86.1527C73.5516 85.0863 73.4151 83.9485 73.5207 82.8209C73.6264 81.6934 73.9715 80.6041 74.5314 79.6313C75.0913 78.6586 75.852 77.8265 76.7588 77.1949C77.5547 76.6365 78.4481 76.2499 79.3919 76.0597V59.028C79.3919 57.8074 78.9244 56.6368 78.0921 55.7737C77.2599 54.9106 76.1311 54.4257 74.9542 54.4257H69.481L73.2382 58.3223L71.1377 60.5008L64.8361 53.9655V51.8177L71.1377 45.2824L73.2382 47.4609L69.481 51.3575H74.9542C75.9265 51.3534 76.8901 51.5491 77.7892 51.9331C78.6883 52.3171 79.5052 52.882 80.1928 53.5951C80.8804 54.3082 81.4251 55.1554 81.7954 56.0878C82.1657 57.0203 82.3543 58.0196 82.3504 59.028V76.0566V76.0566ZM81.312 88.1546C82.073 88.0754 82.8013 87.7936 83.4264 87.3364C84.0514 86.8793 84.5519 86.2624 84.8793 85.5456C85.2068 84.8288 85.35 84.0364 85.2952 83.2452C85.2403 82.4541 84.9893 81.6911 84.5663 81.0302C84.0701 80.2677 83.3712 79.6709 82.5545 79.312C81.7493 78.9721 80.8651 78.8867 80.0132 79.0665C79.1493 79.2398 78.3553 79.6772 77.7331 80.3224C77.111 80.9676 76.6892 81.7911 76.5222 82.687C76.3481 83.5715 76.4305 84.4897 76.7588 85.3257C77.1225 86.2431 77.7622 87.0141 78.5827 87.5239C79.4031 88.0336 80.3604 88.2549 81.312 88.1546V88.1546Z" fill="#E2E2E2"/>
</svg>
