<svg width="15" height="15" viewBox="0 0 15 15" fill="none" xmlns="http://www.w3.org/2000/svg">
<path d="M10.1104 1.65396C10.2365 1.51762 10.3421 1.38469 10.4614 1.27221C10.7716 0.98249 11.1772 0.972265 11.4737 1.26198C12.0498 1.82438 12.619 2.39019 13.178 2.96962C13.4677 3.26957 13.4575 3.67177 13.1677 3.98194C13.0553 4.10464 12.9223 4.2069 12.7962 4.31938C12.9189 4.62955 13.0212 4.91245 13.1507 5.18172C13.178 5.24307 13.2905 5.28397 13.3723 5.2942C13.5154 5.31465 13.6654 5.2942 13.8085 5.31124C14.1732 5.35555 14.4323 5.618 14.4357 5.97589C14.4459 6.80074 14.4459 7.62559 14.4357 8.45043C14.4289 8.85945 14.1323 9.1594 13.6961 9.12531C13.287 9.09464 13.0757 9.23097 12.9973 9.62295C12.9803 9.70475 12.9462 9.78655 12.8985 9.85131C12.769 10.0286 12.8303 10.1513 12.9803 10.2706C13.0553 10.3285 13.12 10.3967 13.1814 10.4682C13.4507 10.7716 13.4677 11.167 13.1848 11.4567C12.619 12.043 12.043 12.619 11.4567 13.1848C11.1806 13.4507 10.775 13.4438 10.4887 13.1916C10.3489 13.0689 10.2297 12.9189 10.1069 12.7894C9.81382 12.9053 9.55137 13.0007 9.29914 13.12C9.22756 13.1541 9.1594 13.2632 9.14576 13.345C9.11849 13.4847 9.14576 13.6381 9.12872 13.7813C9.08782 14.1596 8.82196 14.4187 8.44362 14.4255C7.62899 14.4357 6.81437 14.4357 5.99975 14.4255C5.57028 14.4221 5.27375 14.1289 5.30783 13.6688C5.33851 13.27 5.19876 13.0757 4.82724 12.9905C4.66704 12.953 4.52048 12.8644 4.30574 12.769C4.20349 12.8883 4.10464 13.0382 3.97512 13.1575C3.65813 13.4575 3.25594 13.4541 2.94236 13.1473C2.38337 12.5985 1.82779 12.0464 1.28243 11.484C0.965447 11.1568 0.972264 10.758 1.29607 10.4273C1.41196 10.308 1.55511 10.2194 1.671 10.1274C1.60624 9.98765 1.56875 9.92289 1.54489 9.85472C1.40514 9.38776 1.2279 9.01965 0.600742 9.09804C0.270121 9.13894 0.0110775 8.80151 0.00766904 8.45384C-0.00255635 7.629 -0.00255635 6.80415 0.00766904 5.9793C0.014486 5.57028 0.311022 5.27034 0.747306 5.30442C1.15632 5.3351 1.36765 5.19876 1.44604 4.80679C1.46308 4.72498 1.49376 4.64318 1.54148 4.57842C1.671 4.40118 1.61306 4.27847 1.45967 4.15918C1.38469 4.10123 1.32334 4.02966 1.25858 3.96149C0.989307 3.65473 0.972264 3.26275 1.25176 2.97303C1.81756 2.38678 2.39359 1.81075 2.97985 1.24494C3.25594 0.979081 3.65813 0.98249 3.94444 1.23812C4.08419 1.36083 4.19667 1.51762 4.31597 1.65396C4.44549 1.59601 4.52388 1.54489 4.6125 1.52103C5.07946 1.39491 5.38623 1.19041 5.32487 0.610967C5.2942 0.266712 5.62823 0.0110775 5.99634 0.00766905C6.81096 -0.00255635 7.62559 -0.00255635 8.44021 0.00766905C8.85945 0.0110775 9.1628 0.297388 9.12872 0.730263C9.09804 1.15291 9.24461 1.36083 9.63999 1.45286C9.78996 1.48694 9.9263 1.57556 10.1104 1.65396ZM11.7328 7.20294C11.726 4.72498 9.69452 2.70376 7.21657 2.70717C4.73521 2.71399 2.71399 4.73862 2.71399 7.21998C2.71399 9.71157 4.75225 11.743 7.24725 11.7294C9.7252 11.7192 11.743 9.6843 11.7328 7.20294Z" fill="#003C92"/>
<path d="M11.2864 7.22696C11.2864 9.46292 9.45607 11.2864 7.21671 11.2864C4.98076 11.2864 3.15723 9.4561 3.15723 7.21674C3.15723 4.98079 4.98757 3.15726 7.22693 3.15726C9.46289 3.15726 11.2898 4.98419 11.2864 7.22696ZM6.13622 8.05863C6.09191 8.03818 6.06806 8.03818 6.05442 8.02454C5.88059 7.8439 5.70676 7.66325 5.53633 7.47919C5.19549 7.1213 4.86487 7.07358 4.58878 7.34626C4.32292 7.6053 4.35019 7.94956 4.66718 8.28359C5.01143 8.64829 5.3625 9.00618 5.71357 9.36407C6.00329 9.66061 6.23166 9.66401 6.51116 9.36748C7.5371 8.29722 8.56646 7.22696 9.589 6.15671C9.8719 5.86017 9.88553 5.48183 9.62649 5.23983C9.37427 5.00124 9.02319 5.03191 8.74029 5.32504C8.32787 5.75451 7.91885 6.18738 7.50984 6.62026C7.04969 7.10085 6.58955 7.58485 6.13622 8.05863Z" fill="#003C92"/>
</svg>
