<svg width="610" height="374" viewBox="0 0 610 374" fill="none" xmlns="http://www.w3.org/2000/svg">
<path d="M585.362 349.721C539.153 347.466 381.958 351.297 334.137 352.783C286.334 354.269 230.833 350.814 202.008 345.729C173.183 340.644 6.55308 346.159 14.1084 359.837C21.6638 373.515 88.3551 365.96 163.962 371.457C239.588 376.953 409.637 370.776 448.005 371.457C486.372 372.137 521.535 370.078 570.985 367.339C620.435 364.581 612.164 351.028 585.362 349.721Z" fill="#CCE2FF"/>
<path opacity="0.5" d="M485.155 48.5452C485.334 46.916 485.441 45.251 485.441 43.568C485.441 42.6728 485.406 41.7956 485.352 40.9183L477.134 38.2506C476.633 34.7773 475.63 31.483 474.216 28.4036L479.659 21.6897C478.405 19.4696 476.955 17.3749 475.344 15.4055L467.126 18.091C464.727 15.6382 461.988 13.5256 458.98 11.8426L459.445 3.21306C457.154 2.17465 454.754 1.31527 452.266 0.670737L447.199 7.67109C445.23 7.33092 443.189 7.16978 441.112 7.16978C439.697 7.16978 438.301 7.2593 436.94 7.40253L432.249 0.169434C429.725 0.688641 427.29 1.40479 424.945 2.33578L424.963 10.9833C421.865 12.523 419.019 14.4924 416.512 16.802L408.455 13.6867C406.737 15.5666 405.179 17.5718 403.818 19.7203L408.903 26.7027C407.328 29.7105 406.164 32.9511 405.466 36.3886L397.122 38.6087C396.943 40.2379 396.836 41.903 396.836 43.5859C396.836 44.4811 396.872 45.3584 396.925 46.2357L405.143 48.9033C405.645 52.3766 406.647 55.6709 408.062 58.7504L402.619 65.4643C403.872 67.6843 405.322 69.779 406.934 71.7485L415.151 69.0629C417.551 71.5157 420.29 73.6283 423.298 75.3113L422.832 83.9409C425.124 84.9793 427.523 85.8387 430.012 86.4832L435.096 79.4829C437.066 79.823 439.107 79.9842 441.183 79.9842C442.598 79.9842 443.994 79.8946 445.355 79.7514L450.046 87.0203C452.57 86.5011 455.005 85.785 457.35 84.854L457.333 76.2065C460.43 74.6668 463.277 72.6973 465.783 70.3878L473.84 73.503C475.559 71.6231 477.116 69.6179 478.477 67.4695L473.392 60.487C474.968 57.4792 476.131 54.2386 476.83 50.8011L485.155 48.5452ZM441.13 60.9525C431.533 60.9525 423.763 53.1644 423.763 43.568C423.763 33.9716 431.551 26.2014 441.13 26.2014C450.726 26.2014 458.496 33.9895 458.496 43.568C458.496 53.1823 450.726 60.9525 441.13 60.9525Z" fill="#9EC8FF"/>
<path d="M464.837 63.6381C464.64 63.6381 464.425 63.5665 464.264 63.4232C463.888 63.101 463.835 62.5459 464.157 62.17C468.49 56.96 470.871 50.3535 470.871 43.568C470.871 40.3274 470.334 37.1227 469.295 34.0791C469.134 33.6136 469.385 33.0944 469.85 32.9332C470.316 32.7721 470.835 33.0227 470.996 33.4882C472.106 36.7109 472.679 40.1126 472.679 43.5501C472.679 50.7474 470.155 57.7657 465.553 63.2979C465.339 63.5307 465.088 63.6381 464.837 63.6381Z" fill="white"/>
<path d="M462.309 22.6386C462.094 22.6386 461.861 22.5491 461.7 22.3879C458.782 19.6487 455.416 17.5718 451.674 16.2112C451.208 16.05 450.976 15.5308 451.137 15.0653C451.298 14.5998 451.817 14.3671 452.283 14.5282C456.257 15.9605 459.82 18.1806 462.917 21.081C463.276 21.4211 463.293 21.9941 462.953 22.3521C462.792 22.5312 462.542 22.6386 462.309 22.6386Z" fill="white"/>
<path d="M434.381 15.3876C433.987 15.3876 433.611 15.119 433.522 14.7073C433.396 14.2239 433.683 13.7405 434.166 13.6151C436.637 12.9885 439.179 12.6841 441.757 12.6841C442.259 12.6841 442.652 13.078 442.652 13.5793C442.652 14.0806 442.259 14.4745 441.757 14.4745C439.34 14.4745 436.941 14.7789 434.614 15.3518C434.542 15.3876 434.453 15.3876 434.381 15.3876Z" fill="white"/>
<path opacity="0.5" d="M414.342 0.294769H137.461V166.602H414.342V0.294769Z" fill="#9EC8FF"/>
<path d="M411.426 4.35889H150.945V157.024H411.426V4.35889Z" fill="white"/>
<path d="M373.077 83.2606C385.484 71.4441 406.7 71.7127 406.253 89.7059C405.805 107.699 407.291 109.382 412.394 118.835C430.118 151.581 391.267 149.665 375.065 150.74C358.862 151.814 360.204 121.288 363.069 104.369C365.934 87.45 369.443 86.716 373.077 83.2606Z" fill="#303C60"/>
<path d="M378.862 186.422C374.887 219.848 367.654 244.555 366.849 260.4C366.043 276.245 362.82 338.621 362.82 338.621C362.82 338.621 371.683 337.994 372.488 336.652C373.294 335.309 389.139 300.128 388.333 278.375C387.527 256.622 404.16 223.554 404.16 223.554L400.15 191.095L378.862 186.422Z" fill="#4476BD"/>
<path d="M382.675 200.977L376.444 203.573C374.761 214.172 372.882 223.697 371.234 232.148C381.135 238.557 386.256 259.881 388.44 272.932C389.55 258.341 396.443 240.706 400.722 230.948L382.675 200.977Z" fill="#3E6BAB"/>
<path d="M411.412 183.056C411.412 183.056 424.822 200.172 424.41 219.579C423.765 249.12 420.543 257.571 426.147 288.544C428.331 300.647 421.313 340.232 421.313 340.232C421.313 340.232 415.315 340.698 412.092 339.105C412.361 336.204 408.207 288.885 400.133 267.132C396.23 256.604 390.733 227.099 387.779 210.18C384.825 193.261 384.288 189.77 385.362 189.77C386.436 189.77 411.412 183.056 411.412 183.056Z" fill="#4476BD"/>
<path d="M334.993 135.539C334.993 135.539 335.584 126.677 334.635 123.956C333.686 121.216 325.451 118.835 325.451 118.835C325.451 118.835 325.093 131.493 325.934 133.033C326.776 134.573 331.663 138.995 331.663 138.995L334.993 135.539Z" fill="#F09959"/>
<path d="M381.297 129.076C362.445 149.379 356.286 157.919 354.854 157.919C350.378 150.023 335.518 133.301 335.518 133.301L329.18 137.383C329.18 137.383 343.825 175.662 353.135 176.055C362.445 176.449 381.369 162.86 381.602 161.303C381.834 159.745 381.297 129.076 381.297 129.076Z" fill="#A2DFF2"/>
<path d="M361.641 174.068C370.861 170.308 381.442 162.449 381.621 161.285C381.854 159.727 381.317 129.076 381.317 129.076C377.199 133.498 373.618 137.419 370.503 140.857C367.119 153.443 367.334 167.139 361.641 174.068Z" fill="#96CFE0"/>
<path d="M400.47 115.72C400.47 115.72 418.517 124.761 422.456 140.767C426.395 156.773 414.74 176.557 413.307 187.12C411.875 197.683 378.932 199.527 378.932 188.23C378.932 177.398 370.678 154.41 371.144 148.537C372.236 134.805 392.324 117.976 392.324 117.976L400.47 115.72Z" fill="#A2DFF2"/>
<path d="M395.228 94.9875L402.98 118.871C402.98 118.871 394.709 125.263 380.547 140.606C381.102 130.383 389.66 119.247 389.66 119.247L383.805 96.6883L395.228 94.9875Z" fill="#F09959"/>
<path d="M398.82 106.124L395.204 94.9875L383.781 96.7062L389.636 119.265C389.636 119.265 389.063 120.178 388.221 121.61C393.754 117.492 397.137 112.39 398.82 106.124Z" fill="#E38540"/>
<path d="M390.948 100.376C388.853 107.986 380.761 112.157 375.014 110.582C369.267 109.006 368.031 102.256 370.126 94.6473C372.221 87.0382 378.577 82.1684 384.324 83.7439C390.071 85.3195 393.043 92.7674 390.948 100.376Z" fill="#F09959"/>
<path d="M377.483 177.524C379.99 193.422 370.68 227.421 370.68 227.421C370.68 227.421 376.23 228.674 392.88 227.063C409.531 225.452 416.871 208.837 419.378 208.372C421.884 207.906 423.173 223.84 424.409 225.094C425.644 226.347 425.841 204.97 422.6 196.573C416.871 181.677 417.999 175.357 420.13 166.334C423.943 150.31 377.483 177.524 377.483 177.524Z" fill="#A2DFF2"/>
<path d="M363.216 330.797C364.72 336.884 361.748 341.718 357.791 345.245C354.568 348.11 344.668 349.328 345.133 350.76C345.616 352.192 357.308 352.64 361.246 352.049C365.185 351.458 366.259 349.542 371.165 349.542C374.388 349.542 374.979 346.928 373.546 343.706C372.114 340.483 371.613 338.693 372.902 335.792C374.209 332.892 363.216 330.797 363.216 330.797Z" fill="#4476BD"/>
<path d="M421.666 330.797C421.434 337.117 420.7 341.844 422.239 344.762C428.237 349.775 433.214 355.468 431.316 355.862C422.239 357.742 418.784 352.3 413.646 350.76C407.343 348.862 414.236 340.949 411.766 330.797C410.387 325.158 421.272 326.5 421.272 326.5L421.666 330.797Z" fill="#4476BD"/>
<path d="M423.963 201.783C423.605 199.796 423.157 198.005 422.602 196.591C416.873 181.695 418.001 175.375 420.132 166.352C420.293 165.635 420.364 165.009 420.346 164.472C420.83 162.86 421.278 161.231 421.671 159.584L419.72 142.038L405.701 125.388C395.192 140.785 402.282 159.942 400.706 170.505C399.131 181.068 381.531 194.532 381.531 194.532L382.104 198.274C382.892 203.412 387.654 206.993 392.811 206.277C400.062 205.274 409.586 203.251 413.83 199.312C417.93 195.517 421.564 198.453 423.963 201.783Z" fill="#96CFE0"/>
<path d="M385.662 193.941C385.662 193.941 377.891 196.108 376.96 196.609C376.029 197.092 375.51 199.67 375.51 199.67C375.51 199.67 371.07 203.538 372.771 204.898C374.472 206.259 377.515 209.732 381.544 208.121C384.014 207.136 385.93 198.059 387.541 197.988C389.171 197.898 385.662 193.941 385.662 193.941Z" fill="#F09959"/>
<path d="M407.667 123.365C415.992 123.598 423.53 138.583 426.162 151.581C428.793 164.579 431.551 183.056 431.551 183.056C431.551 183.056 417.765 193.941 404.14 197.11C392.252 199.885 386.183 200.977 386.183 200.977L383.766 194.192L412.197 177.488C412.197 177.488 401.741 157.794 400.703 142.934C399.682 128.074 401.347 123.186 407.667 123.365Z" fill="#A2DFF2"/>
<path d="M327.662 115.862L306.93 120.021L309.571 133.187L330.303 129.028L327.662 115.862Z" fill="#F5DC95"/>
<path d="M330 134.465C330.286 129.022 327.583 121.592 326.043 121.592C324.485 121.61 326.526 126.462 325.685 129.685C325.237 131.439 330 134.465 330 134.465Z" fill="#F09959"/>
<path d="M371.648 86.1251C372.114 101.039 389.534 99.8931 394.315 98.98C399.095 98.0669 388.496 130.455 397.591 132.317C404.269 133.695 402.765 123.24 410.177 123.938C413.454 124.242 416.766 129.327 416.766 129.327C416.766 129.327 416.264 126.194 413.758 123.938C411.251 121.682 404.681 107.842 402.944 97.9237C401.225 88.0229 389.516 81.6134 386.061 81.4164C382.606 81.2195 374.119 85.1583 374.119 85.1583L371.648 86.1251Z" fill="#303C60"/>
<path d="M397.447 135.701C397.214 135.701 396.963 135.683 396.731 135.629C393.812 135.002 392.416 131.959 392.291 125.997C392.183 120.894 393.025 114.359 393.92 107.431C394.278 104.638 394.654 101.737 394.958 98.9263C394.976 98.6935 395.191 98.5145 395.442 98.5324C395.674 98.5503 395.853 98.7652 395.835 99.0158C395.531 101.827 395.155 104.727 394.797 107.52C393.078 120.93 391.431 133.588 396.928 134.752C397.107 134.787 397.268 134.805 397.429 134.805C400.58 134.805 403.409 128.664 405.074 122.685C405.145 122.452 405.378 122.309 405.611 122.38C405.844 122.452 405.987 122.685 405.915 122.917C404.805 126.892 401.869 135.701 397.447 135.701Z" fill="#303C60"/>
<path d="M396.284 139.174C395.299 139.174 394.422 138.798 393.706 138.028C387.762 131.744 393.634 100.233 393.885 98.9084C393.939 98.6756 394.153 98.5145 394.386 98.5682C394.619 98.6219 394.78 98.8368 394.726 99.0695C394.673 99.3918 388.675 131.475 394.315 137.437C394.977 138.135 395.747 138.404 396.678 138.279C399.757 137.867 401.548 133.677 403.123 129.989C404.645 126.408 406.077 123.025 408.637 123.114C408.87 123.114 409.067 123.329 409.049 123.562C409.049 123.795 408.834 123.991 408.602 123.974C408.584 123.974 408.566 123.974 408.53 123.974C406.614 123.974 405.307 127.053 403.911 130.329C402.246 134.232 400.366 138.673 396.785 139.138C396.642 139.156 396.463 139.174 396.284 139.174Z" fill="#303C60"/>
<path d="M394.957 101.845C393.722 103.42 391.806 103.993 390.66 103.098C389.514 102.203 389.586 100.197 390.803 98.6219C392.039 97.0464 393.954 96.4735 395.1 97.3687C396.264 98.2639 396.192 100.251 394.957 101.845Z" fill="#F09959"/>
<path d="M259.565 157.095C263.826 165.6 260.299 175.393 251.938 178.866C243.523 182.358 234.302 180.37 230.059 171.866C225.798 163.362 228.967 153.157 237.113 149.075C245.259 144.993 255.303 148.591 259.565 157.095Z" fill="#303C60"/>
<path d="M236.632 179.869C235.701 179.869 233.839 179.529 231.493 177.452C229.56 175.733 228.181 173.119 227.59 170.058C226.856 166.208 227.34 161.768 229.023 156.881C229.094 156.648 229.345 156.54 229.578 156.612C229.81 156.684 229.918 156.934 229.846 157.167C228.199 161.912 227.733 166.191 228.45 169.897C229.005 172.761 230.294 175.214 232.066 176.807C235.056 179.457 237.043 178.974 237.079 178.974C237.312 178.92 237.545 179.045 237.616 179.278C237.688 179.511 237.545 179.744 237.312 179.815C237.276 179.815 237.026 179.869 236.632 179.869Z" fill="#303C60"/>
<path d="M249.63 190.199C254.464 191.292 260.587 204.737 263.577 213.367C266.603 222.068 271.724 232.846 275.072 236.194C278.42 239.542 300.441 247.312 300.441 247.312C300.441 247.312 246.032 247.42 247.142 247.312C248.27 247.187 249.63 190.199 249.63 190.199Z" fill="#A8CEFF"/>
<path d="M278.524 242.98C275.552 242.55 264.791 243.928 269.375 242.031C273.958 240.115 273.314 237.662 273.314 237.662C273.314 237.662 266.832 243.087 265.651 238.342C264.648 234.26 264.254 219.812 260.423 205.328C257.254 198.149 253.118 190.969 249.627 190.182C249.627 190.182 249.502 195.284 249.305 202.428C250.647 218.237 252.903 241.476 253.476 247.33C260.691 247.348 272.759 247.33 282.856 247.312L289.57 246.99C289.588 247.008 281.496 243.409 278.524 242.98Z" fill="#93BBF0"/>
<path d="M231.837 187.209C231.837 187.209 216.44 195.821 212.841 197.647C209.243 199.474 222.903 253.203 225.929 255.494C228.973 257.804 255.685 255.888 258.729 252.988C261.772 250.087 256.401 241.189 259.033 223.357C261.665 205.525 250.994 190.146 249.634 190.182C248.255 190.217 239.321 187.192 239.321 187.192H231.837V187.209Z" fill="#A8CEFF"/>
<path d="M225.943 255.494C228.986 257.804 248.108 257.84 256.236 255.315C257.149 255.029 261.321 253.364 261.428 251.806C260.443 251.627 256.54 252.093 254.965 251.734C249.468 250.463 246.425 243.642 246.425 243.642C246.425 243.642 243.399 242.55 236.613 239.685C229.828 236.821 232.621 228.119 232.46 224.288C232.299 220.457 225.764 207.924 213.464 198.435L212.336 198.936C211.459 207.673 223.132 253.364 225.943 255.494Z" fill="#93BBF0"/>
<path d="M331.759 213.349H294.68L277.797 249.3H318.653L333.943 216.768C334.659 215.175 333.513 213.349 331.759 213.349Z" fill="#75A1DE"/>
<path d="M279.979 249.801H257.671C256.292 249.801 255.164 248.673 255.164 247.294C255.164 245.916 256.292 244.788 257.671 244.788H278.385L292.386 214.638C292.977 213.385 294.463 212.83 295.716 213.42C296.969 214.011 297.524 215.497 296.933 216.751L282.252 248.351C281.841 249.246 280.963 249.801 279.979 249.801Z" fill="#3E6BAB"/>
<path d="M241.29 242.138C250.976 243.946 253.357 246.166 258.621 247.026C264.601 247.993 263.884 249.317 259.444 249.317C255.004 249.317 243.832 249.496 240.001 248.637C236.187 247.778 241.29 242.138 241.29 242.138Z" fill="#F09959"/>
<path d="M211.639 198.65C204.227 222.372 193.7 249.3 195.382 249.3C197.065 249.3 239.658 251.018 241.341 249.586C243.024 248.154 242.541 242.639 242.29 241.923C242.04 241.207 218.066 236.946 218.066 236.946C218.066 236.946 221.218 230.787 222.417 218.756C223.617 206.742 213.036 194.156 211.639 198.65Z" fill="#A8CEFF"/>
<path d="M237.472 166.602L231.492 188.445C231.492 188.445 241.59 204.2 244.365 202.804C247.14 201.407 242.807 189.985 242.807 188.445C242.807 186.887 247.14 170.899 247.14 170.899L237.472 166.602Z" fill="#F09959"/>
<path d="M243.027 189.555C242.902 189.036 242.813 188.642 242.813 188.445C242.813 186.887 247.145 170.899 247.145 170.899L237.477 166.602L235.508 173.835C237.227 181.301 240.342 186.261 243.027 189.555Z" fill="#E38540"/>
<path d="M259.837 166.244C260.983 172.582 260.231 180.997 254.61 183.127C248.988 185.258 242.202 181.176 239.481 173.997C236.742 166.817 239.087 159.244 244.709 157.113C250.331 154.965 258.477 158.671 259.837 166.244Z" fill="#F09959"/>
<path d="M240.806 169.807C241.594 172.027 240.914 174.283 239.285 174.874C237.655 175.447 235.686 174.14 234.898 171.92C234.11 169.7 234.791 167.444 236.42 166.853C238.049 166.262 240.019 167.587 240.806 169.807Z" fill="#F09959"/>
<path d="M259.905 158.277C257.989 173.137 239.942 171.221 239.942 171.221C239.942 171.221 236.218 166.334 234.535 168.894C232.852 171.454 236.863 153.819 247.229 153.264C250.613 153.103 259.905 158.277 259.905 158.277Z" fill="#303C60"/>
<path d="M231.783 161.16C237.182 161.16 241.559 157.056 241.559 151.993C241.559 146.93 237.182 142.826 231.783 142.826C226.384 142.826 222.008 146.93 222.008 151.993C222.008 157.056 226.384 161.16 231.783 161.16Z" fill="#303C60"/>
<path d="M212.305 357.295H214.525L228.973 290.388H224.05L212.305 357.295Z" fill="#2E5B9A"/>
<path d="M281.823 357.295H279.585L262.773 288.007H267.697L281.823 357.295Z" fill="#2E5B9A"/>
<path d="M237.818 292.895C228.866 292.895 223.19 291.284 219.556 287.757C215.062 283.388 214.131 276.603 214.131 267.776C214.113 260.829 213.952 256.3 213.576 252.647C213.433 251.269 214.435 250.034 215.814 249.89C217.193 249.747 218.428 250.75 218.571 252.128C218.965 255.96 219.144 260.633 219.144 267.758C219.162 276.71 220.29 281.455 223.065 284.158C225.912 286.933 231.032 288.061 239.716 287.846C248.094 287.631 253.859 286.468 258.479 285.519C264.566 284.283 268.97 283.388 274.198 285.877C275.451 286.468 275.971 287.972 275.38 289.225C274.789 290.478 273.285 290.997 272.032 290.406C268.326 288.634 265.192 289.278 259.481 290.442C254.665 291.427 248.649 292.644 239.841 292.859C239.143 292.877 238.462 292.895 237.818 292.895Z" fill="#2E5B9A"/>
<path d="M217.463 249.586L231.177 250.159L227.525 288.025C227.525 288.025 217.302 281.508 217.463 274.472C217.624 267.454 217.463 249.586 217.463 249.586Z" fill="#2E5B9A"/>
<path d="M285.155 253.113C296.756 251.358 300.695 251.913 307.785 265.108C314.875 278.321 324.328 302.098 329.753 305.159C337.935 309.778 340.638 321.129 344.004 320.61C347.37 320.109 349.519 321.577 345.866 324.62C342.214 327.664 336.306 330.242 334.283 329.705C332.259 329.168 330.702 320.449 325.42 317.62C320.157 314.791 321.732 312.464 322.072 309.957C322.412 307.451 306.693 295.921 294.823 281.58C287.572 272.825 283.848 267.024 283.293 261.796C282.774 256.568 285.155 253.113 285.155 253.113Z" fill="#F09959"/>
<path d="M313.888 301.005C311.202 294.166 308.499 282.905 305.956 272.556C302.34 257.857 298.562 254.366 296.163 252.791C293.263 252.057 289.825 252.397 285.152 253.113C285.152 253.113 282.771 256.568 283.326 261.796C283.881 267.042 287.605 272.825 294.856 281.58C301.104 289.153 308.409 295.921 313.888 301.005Z" fill="#E38540"/>
<path d="M288.68 264.732C288.68 264.732 285.601 288.007 282.718 290.371C280.659 292.071 279.209 292.179 277.777 285.232C276.345 278.286 280.015 252.379 280.015 252.379L288.68 264.732Z" fill="#2E5B9A"/>
<path d="M286.228 277.337L257.672 282.135L273.785 259.021L286.067 256.515L293.426 258.216L286.228 277.337Z" fill="#F09959"/>
<path d="M322.107 309.975C321.176 313.699 321.302 316.456 322.895 317.853C324.507 319.231 330.576 329.508 330.576 329.508L332.474 329.222L328.087 319.822L322.107 309.975Z" fill="#2E5B9A"/>
<path d="M334.298 329.723C336.321 330.26 342.211 327.682 345.881 324.638C349.534 321.595 347.367 320.109 344.019 320.628C343.822 320.664 343.643 320.646 343.464 320.592C341.781 324.334 336.267 327.145 334.494 323.188C332.722 319.267 325.167 311.461 322.123 309.778C322.123 309.832 322.141 309.904 322.123 309.957C321.783 312.464 320.189 314.791 325.471 317.62C330.717 320.467 332.274 329.186 334.298 329.723Z" fill="#2E5B9A"/>
<path d="M226.879 254.044C216.746 272.216 223.675 283.782 235.974 284.964C248.292 286.145 267.718 283.889 279.051 274.472C290.384 265.055 299.676 255.1 298.387 253.614C297.098 252.128 226.879 254.044 226.879 254.044Z" fill="#E38540"/>
<path d="M284.31 267.615C286.387 261.385 288.768 256.622 293.405 256.533C298.275 256.443 301.265 258.968 301.48 266.935C301.73 276.424 302.053 307.827 301.623 321.792C301.283 332.355 304.38 335.757 304.112 346.767C303.915 355.075 312.759 350.867 309.34 355.182C306.994 358.136 299.994 357.169 295.697 356.632C291.866 356.149 297.684 344.673 292.385 341.593C287.837 338.961 287.748 334.682 290.612 331.442C293.477 328.201 290.935 318.623 289.019 311.927C287.103 305.231 284.131 297.98 282.18 282.135C281.642 277.605 283.057 271.411 284.31 267.615Z" fill="#F09959"/>
<path d="M306.337 351.78C304.869 352.228 303.06 352.729 301.485 352.765C298.298 352.872 297.331 349.363 297.116 344.583C296.937 340.411 293.912 333.859 290.796 331.209C290.743 331.281 290.689 331.352 290.617 331.424C287.753 334.664 287.842 338.943 292.39 341.575C297.689 344.637 291.87 356.113 295.702 356.614C299.999 357.169 306.999 358.136 309.345 355.164C311.582 352.371 308.825 352.156 306.337 351.78Z" fill="#2E5B9A"/>
<path d="M291.347 330.26C291.347 330.26 286.692 335.112 287.122 337.135C287.551 339.158 288.984 344.261 289.217 348.2C289.449 352.138 289.664 356.65 289.664 356.65C289.664 356.65 291.347 356.65 291.472 356.167C291.598 355.683 292.529 340.161 292.529 340.161L291.347 330.26Z" fill="#2E5B9A"/>
<path d="M221.988 252.397C221.988 252.397 215.972 277.892 223.564 284.964C231.155 292.036 262.683 285.68 270.113 285.25C275.144 284.964 280.014 291.105 280.014 291.105C280.014 291.105 276.505 276.871 278.904 265.395C281.303 253.901 285.152 253.131 285.152 253.131L280.014 252.415H221.988V252.397Z" fill="#75A1DE"/>
<path d="M220.627 245.719C223.205 251.161 217.869 260.579 219.731 263.3C221.593 266.022 232.3 263.676 239.318 258.037C246.336 252.397 259.603 251.144 259.603 251.144L220.627 245.719Z" fill="#A8CEFF"/>
<path d="M231.499 292.179C252.714 292.985 275.058 292.609 275.058 289.44C275.058 286.271 274.109 284.051 257.656 285.322C241.22 286.593 230.048 288.348 225.107 287.237C220.165 286.127 231.499 292.179 231.499 292.179Z" fill="#2E5B9A"/>
<path d="M457.829 255.082H158.802C157.531 255.082 156.492 254.044 156.492 252.773V251.609C156.492 250.338 157.531 249.299 158.802 249.299H457.829C459.101 249.299 460.139 250.338 460.139 251.609V252.773C460.139 254.044 459.101 255.082 457.829 255.082Z" fill="#2E5B9A"/>
<path d="M497.558 171.866C499.617 179.117 494.586 186.583 489.054 188.158C483.522 189.734 479.583 184.81 477.524 177.559C475.465 170.308 478.294 163.165 483.826 161.589C489.358 160.014 495.499 164.615 497.558 171.866Z" fill="#F09959"/>
<path d="M466.55 312.321C466.55 312.321 480.73 334.342 482.646 335.291C484.561 336.24 489.342 336.491 487.551 340.071C485.761 343.67 485.045 357.778 483.362 358.494C481.679 359.21 467.32 360.893 469.486 358.494C471.635 356.095 472.96 357.295 474.052 352.998C475.144 348.683 476.666 340.555 474.625 338.872C472.584 337.189 460.141 322.114 460.141 322.114L466.55 312.321Z" fill="#F09959"/>
<path d="M395.188 321.792C395.188 321.792 377.947 350.205 374.76 352.747C371.573 355.307 361.028 359.139 369.657 359.765C378.287 360.392 382.423 356.901 387.848 355.289C393.272 353.696 399.968 352.729 397.426 348.593C394.866 344.44 395.94 335.381 401.436 329.633C406.933 323.904 395.188 321.792 395.188 321.792Z" fill="#F09959"/>
<path d="M483.133 255.924C483.133 255.924 440.468 254.814 423.549 268.689C413.649 283.693 389.729 327.951 387.867 332.82C389.138 334.091 396.318 336.401 399.522 336.079C408.94 324.853 421.383 315.149 426.324 306.341C432.43 295.491 434.309 290.066 444.192 289.099C454.075 288.133 476.419 284.946 483.133 284.946C489.847 284.946 483.133 255.924 483.133 255.924Z" fill="#6791C9"/>
<path d="M520.332 359.837H518.094L502.07 292.931H506.976L520.332 359.837Z" fill="#2E5B9A"/>
<path d="M453.359 359.837H455.579L473.984 290.568H469.061L453.359 359.837Z" fill="#2E5B9A"/>
<path d="M507.445 253.006L482.649 257.285C482.649 257.285 449.688 257.589 434.613 260.4C420.899 262.96 418.893 278.536 434.613 299.967C443.547 312.142 451.102 321.863 466.553 332.82C470.474 329.938 471.978 328.846 473.07 321.899C471.96 320.359 469.06 310.763 468.164 308.901C459.624 291.033 448.22 284.552 448.059 282.779C449.974 279.664 498.78 299 508.484 287.631C517.74 276.782 507.445 253.006 507.445 253.006Z" fill="#75A1DE"/>
<path d="M508.466 196.842C501.932 195.929 495.289 197.164 489.059 201.676C483.616 207.226 477.475 216.357 477.851 231.432C478.334 250.589 474.897 251.806 478.478 257.07C493.445 263.247 519.065 289.816 513.032 261.331C508.663 240.706 522.61 225.326 511.367 202.463C510.454 200.601 509.308 198.811 508.466 196.842Z" fill="#F37168"/>
<path d="M477.852 238.647C477.565 248.637 476.151 251.573 477.225 254.706C483.33 255.333 494.502 257.768 497.295 261.671C500.482 266.147 503.687 266.774 502.183 263.479C500.697 260.185 496.758 255.494 502.827 239.435C508.897 223.375 511.761 212.525 505.8 201.353L477.852 238.647Z" fill="#D54A41"/>
<path d="M508.462 196.842C504.434 187.317 503.449 176.628 503.449 176.628L492.922 179.744C492.922 179.744 498.902 193.154 493.155 197.934C491.937 198.954 490.523 200.19 489.055 201.676C495.285 197.164 501.945 195.929 508.462 196.842Z" fill="#F09959"/>
<path d="M503.777 179.153C503.15 178.598 502.381 177.9 501.557 177.183L492.963 179.726C492.963 179.744 492.945 179.762 492.945 179.779C493.16 180.263 495.344 185.365 495.631 190.271C498.191 188.713 501.002 186.189 504.207 181.767C504.028 180.764 503.884 179.887 503.777 179.153Z" fill="#E38540"/>
<path d="M501.068 199.832C490.218 203.627 491.418 215.05 481.445 231.897C476.271 240.616 471.473 240.491 471.473 240.491C471.473 240.491 459.352 240.58 444.707 238.79C435.522 237.662 434.949 240.401 441.323 242.675C454.196 247.276 467.552 252.236 478.33 251.036C489.108 249.837 507.531 222.354 508.48 215.211C509.787 205.328 506.529 197.934 501.068 199.832Z" fill="#F09959"/>
<path d="M495.484 295.437C494.804 295.437 494.123 295.437 493.407 295.419C484.599 295.205 478.583 293.987 473.767 293.002C468.056 291.839 464.923 291.212 461.216 292.967C459.963 293.558 458.477 293.038 457.868 291.785C457.26 290.532 457.797 289.046 459.05 288.437C464.278 285.948 468.664 286.844 474.77 288.079C479.407 289.028 485.172 290.192 493.533 290.406C502.968 290.639 508.733 289.225 511.669 285.966C514.301 283.048 515.071 278.178 514.104 270.659C513.782 268.116 513.442 265.986 513.155 264.124C512.349 258.878 511.812 255.405 512.475 250.069C513.083 245.092 514.749 238.432 518.58 225.541C518.974 224.216 520.37 223.464 521.695 223.858C523.02 224.252 523.772 225.649 523.378 226.974C516.217 251.09 516.575 253.453 518.114 263.372C518.401 265.27 518.741 267.418 519.081 270.032C520.245 279.127 519.081 285.25 515.393 289.332C511.615 293.522 505.421 295.437 495.484 295.437Z" fill="#2E5B9A"/>
<path d="M396.348 345.729C384.907 351.315 378.766 354.52 375.096 354.215C374.237 354.144 373.521 354.054 372.912 353.965C368.83 356.382 362.331 359.228 369.653 359.765C378.265 360.41 382.419 356.901 387.844 355.289C393.268 353.696 399.964 352.729 397.422 348.594C396.921 347.806 396.581 346.821 396.348 345.729Z" fill="#D54A41"/>
<path d="M483.881 335.774C483.595 344.834 482.359 353.803 476.827 355.486C475.359 355.934 474.016 356.006 472.834 355.844C471.957 356.919 470.901 356.937 469.469 358.512C467.32 360.911 481.679 359.228 483.344 358.512C485.027 357.796 485.743 343.67 487.533 340.089C489.019 337.153 486.047 336.455 483.881 335.774Z" fill="#D54A41"/>
<path d="M439.839 249.801H403.512C402.545 249.801 401.65 249.228 401.238 248.351L386.557 216.751C385.966 215.497 386.521 214.011 387.775 213.42C389.028 212.83 390.514 213.385 391.105 214.638L405.105 244.788H439.839C441.217 244.788 442.345 245.916 442.345 247.294C442.345 248.673 441.217 249.801 439.839 249.801Z" fill="#75A1DE"/>
<path d="M447.429 239.13C440.089 239.023 432.802 234.654 429.186 235.281C425.569 235.925 413.753 244.107 415.257 244.43C416.743 244.752 426.106 239.9 426.428 239.828C426.751 239.757 428.774 243.194 433.769 244.448C438.764 245.701 433.805 240.706 449.309 245.379C459.389 248.422 447.429 239.13 447.429 239.13Z" fill="#F09959"/>
<path d="M507.392 188.158L508.466 196.842C508.466 196.842 498.959 197.415 494.232 200.064C489.506 202.732 482.523 210.413 482.523 210.413L488.217 200.601L489.04 194.317L507.392 188.158Z" fill="#F2E5DE"/>
<path d="M503.342 198.793C496.288 197.468 493.03 203.788 488.446 214.119C483.863 224.431 476.057 236.964 474.517 238.593C472.978 240.222 448.342 238.593 448.342 238.593C448.342 238.593 447.59 245.719 448.342 246.578C449.094 247.438 453.337 247.33 453.337 247.33C453.337 247.33 455.038 248.691 456.631 249.765C458.225 250.839 471.742 252.862 478.008 252.54C484.293 252.218 490.022 251.681 490.881 250.732C491.741 249.783 508.857 223.393 509.931 213.922C511.005 204.433 506.941 199.474 503.342 198.793Z" fill="#F2E5DE"/>
<path d="M482.543 155.395C469.205 156.039 471.299 176.109 471.299 176.109C471.299 176.109 474.773 177.183 482.024 175.984C481.469 173.835 481.701 168.321 481.701 168.321C481.701 168.321 482.543 172.797 483.617 175.5C485.157 176.199 486.893 175.572 489.848 174.874C491.369 181.248 495.648 183.951 498.585 184.864C501.825 185.885 505.263 187.102 509.094 185.186C512.925 183.271 510.813 163.702 508.79 159.763C505.746 153.855 500.661 148.573 491.889 151.366C487.466 152.745 482.543 155.395 482.543 155.395Z" fill="#303C60"/>
<path d="M505.742 179.224L511.203 187.192C511.203 187.192 505.151 202.302 522.733 209.142C536.501 214.495 534.889 223.948 528.659 233.437C522.428 242.944 532.383 251.233 532.383 251.233C532.383 251.233 533.905 240.706 547.279 238.718C565.523 236.015 570.697 211.523 557.054 199.259C545.775 189.125 542.355 197.522 534.71 188.427C527.083 179.332 512.671 185.473 512.671 185.473L507.389 177.774L505.742 179.224Z" fill="#303C60"/>
<path d="M563.356 223.912C563.284 223.912 563.213 223.894 563.141 223.858C562.926 223.751 562.855 223.482 562.962 223.268C567.563 214.871 563.803 204.683 561.924 201.926C561.727 201.64 561.53 201.336 561.333 201.031C559.471 198.131 557.161 194.532 544.861 192.312C541.907 191.775 539.526 190.02 536.984 188.176C531.738 184.327 525.776 179.958 512.849 185.903C512.635 186.01 512.366 185.902 512.277 185.688C512.169 185.473 512.277 185.204 512.491 185.115C525.883 178.956 532.06 183.485 537.503 187.478C539.956 189.268 542.265 190.969 545.005 191.471C557.68 193.744 560.115 197.54 562.049 200.566C562.246 200.87 562.425 201.156 562.622 201.443C563.768 203.108 565.164 206.545 565.737 210.484C566.238 213.904 566.292 218.971 563.714 223.697C563.642 223.823 563.499 223.912 563.356 223.912Z" fill="#303C60"/>
<path d="M502.841 187.335C501.963 187.335 501.032 187.263 500.012 187.102C495.357 186.404 489.126 183.754 488.625 168.894C488.625 168.661 488.804 168.446 489.055 168.446C489.305 168.429 489.502 168.625 489.502 168.876C489.699 175.035 490.935 179.583 493.137 182.411C494.82 184.56 497.04 185.777 500.137 186.243C504.488 186.887 507.352 186.082 508.695 183.844C508.82 183.629 509.089 183.575 509.286 183.7C509.501 183.826 509.554 184.094 509.429 184.291C508.23 186.332 506.009 187.335 502.841 187.335Z" fill="#303C60"/>
<path d="M86.3998 197.898C70.9131 206.76 49.3749 243.57 53.9225 249.568C58.47 255.584 82.8907 239.775 82.8907 239.775L86.3998 197.898Z" fill="#96CFE0"/>
<path d="M115.333 155.198C109.425 155.037 111.609 150.632 104.805 152.405C101.225 153.336 103.874 154.804 99.2195 154.32C94.5825 153.837 92.2908 153.371 91.7 156.397C91.1091 159.423 90.8227 160.39 88.6026 160.873C86.3647 161.357 85.3621 165.349 88.6026 168.052C91.8432 170.774 90.2677 171.884 89.5515 174.122C88.8354 176.36 91.2882 176.521 92.6131 178.598C93.9379 180.675 91.3956 181.068 93.3113 182.859C95.227 184.649 97.9126 184.506 97.9126 184.506L105.969 169.055L115.333 155.198Z" fill="#303C60"/>
<path d="M235.802 340.716C235.802 340.716 244.414 340.949 251.128 338.317C257.824 335.685 262.371 331.621 261.172 336.401C259.972 341.181 254.476 349.399 249.678 350.205C244.897 351.01 243.215 356.274 240.583 356.274C237.951 356.274 234.119 350.205 227.423 347.179C221.318 344.422 235.802 340.716 235.802 340.716Z" fill="#2E5B9A"/>
<path d="M167.915 339.91C167.915 339.91 171.532 344.905 177.852 348.379C184.369 351.977 191.888 353.696 187.216 355.325C182.561 356.954 175.739 358.208 169.097 356.274C164.442 354.913 158.964 354.645 157.531 352.443C156.081 350.241 159.232 344.708 157.925 336.437C156.869 329.83 167.915 339.91 167.915 339.91Z" fill="#2E5B9A"/>
<path d="M127.563 259.576C127.563 259.576 177.478 278.268 181.507 283.496C185.535 288.723 237.993 336.312 237.993 339.821C237.993 343.33 229.059 349.721 229.059 349.721C229.059 349.721 184.067 322.114 172.895 308.077C161.723 294.041 134.456 287.273 119.972 285.966C105.47 284.659 127.563 259.576 127.563 259.576Z" fill="#3E6BAB"/>
<path d="M129.478 259.576C129.478 259.576 163.62 258.305 170.961 259.576C178.301 260.847 194.397 260.83 183.869 290.568C175.616 313.86 172.894 343.366 172.894 343.366L156.477 347.394C156.477 347.394 157.121 294.363 164.963 280.237C159.252 281.186 148.796 283.012 134.276 287.166C107.367 294.864 92.5964 291.015 92.5964 291.015L88.5859 276.979L129.478 259.576Z" fill="#4476BD"/>
<path d="M100.952 171.418L92.6094 196.072L103.155 203.018L109.134 181.713L100.952 171.418Z" fill="#A86B48"/>
<path d="M104.106 199.653L109.137 181.713L100.973 171.418L97.9297 180.442C98.9502 188.57 101.51 195.32 104.106 199.653Z" fill="#7A4E34"/>
<path d="M122.243 175.59C122.512 183.092 118.823 189.573 112.969 190.164C107.114 190.736 101.779 185.151 101.045 177.685C100.311 170.219 104.465 163.702 110.319 163.111C116.156 162.538 121.813 163.756 122.243 175.59Z" fill="#A86B48"/>
<path d="M88.603 195.356C62.9828 212.651 78.9171 240.598 84.5389 261.026C89.337 278.429 89.1759 288.938 89.8921 288.938C90.6082 288.938 108.225 286.306 118.269 277.211C128.313 268.116 135.117 259.308 135.117 259.308C135.117 259.308 122.244 257.016 118.037 240.348C115.906 231.897 116.873 227.296 112.003 213.886C107.133 200.494 88.603 195.356 88.603 195.356Z" fill="#A2DFF2"/>
<path d="M88.6016 195.356L91.3408 188.642C91.3408 188.642 100.042 194.389 103.515 197.092C106.989 199.814 109.119 200.44 109.119 200.44C109.119 200.44 110.372 210.055 109.567 209.195C99.308 198.202 88.6016 195.356 88.6016 195.356Z" fill="#A2DFF2"/>
<path d="M77.2578 359.837H79.4958L95.5375 292.931H90.614L77.2578 359.837Z" fill="#2E5B9A"/>
<path d="M144.252 359.837H142.014L123.609 290.568H128.533L144.252 359.837Z" fill="#2E5B9A"/>
<path d="M102.176 295.437C93.2242 295.437 87.5487 293.826 83.9143 290.299C79.4205 285.931 78.4895 279.145 78.4895 270.318C78.4537 251.77 77.4331 247.921 72.2053 236.588C71.6323 235.335 72.1695 233.849 73.4406 233.258C74.6939 232.685 76.1799 233.222 76.7707 234.493C82.2851 246.471 83.4846 250.875 83.5025 270.301C83.5204 279.252 84.6483 283.997 87.4234 286.7C90.2701 289.475 95.3906 290.603 104.074 290.389C112.453 290.174 118.218 289.01 122.837 288.061C128.924 286.826 133.329 285.931 138.556 288.419C139.81 289.01 140.329 290.514 139.738 291.767C139.147 293.02 137.643 293.54 136.39 292.949C132.684 291.176 129.551 291.821 123.84 292.985C119.023 293.969 113.008 295.187 104.199 295.402C103.501 295.437 102.821 295.437 102.176 295.437Z" fill="#2E5B9A"/>
<path d="M212.833 249.514H176.507C175.128 249.514 174 248.386 174 247.008C174 245.629 175.128 244.501 176.507 244.501H211.24L225.24 214.351C225.831 213.098 227.317 212.543 228.57 213.134C229.824 213.725 230.379 215.211 229.788 216.464L215.107 248.064C214.695 248.959 213.8 249.514 212.833 249.514Z" fill="#3E6BAB"/>
<path d="M89.5469 220.528C89.5469 220.528 95.9385 239.99 103.834 248.046C111.73 256.103 127.628 258.806 132.605 258.502C128.631 256.909 121.075 252.361 118.05 240.348C115.919 231.897 116.886 227.296 112.016 213.886C108.399 203.931 97.2634 198.542 91.749 196.43C98.6241 201.371 107.2 209.482 109.85 215.676C112.768 222.533 89.5469 220.528 89.5469 220.528Z" fill="#96CFE0"/>
<path d="M177.652 237.626C177.652 237.626 188.663 232.595 189.862 233.079C191.062 233.562 203.272 240.921 203.272 242.156C203.272 243.373 192.494 237.608 192.494 237.608C192.494 237.608 193.694 240.795 192.977 242.335C192.261 243.875 183.972 243.857 176.506 243.391C169.04 242.89 177.652 237.626 177.652 237.626Z" fill="#A86B48"/>
<path d="M89.9085 205.489C79.7571 226.293 114.58 247.384 135.223 249.246C155.884 251.126 180.412 244.358 180.412 244.358L177.637 237.608C177.637 237.608 136.261 232.201 135.205 231.45C134.184 230.715 93.6145 197.88 89.9085 205.489Z" fill="#A2DFF2"/>
<path d="M103.101 172.117C104.05 174.587 103.351 177.148 101.561 177.828C99.7707 178.508 97.5506 177.058 96.6196 174.587C95.6707 172.117 96.369 169.556 98.1594 168.876C99.9497 168.196 102.152 169.646 103.101 172.117Z" fill="#A86B48"/>
<path d="M122.264 156.272C125.074 155.108 128.225 153.855 127.241 158.617C126.811 160.694 127.241 160.103 127.993 162.019C128.745 163.935 126.113 165.439 125.271 166.495C124.412 167.551 126.507 168.715 124.806 169.986C123.105 171.257 120.867 169.521 119.274 169.986C114.547 171.4 115.12 167.676 112.47 166.907C109.803 166.137 108.513 166.244 107.994 167.945C107.493 169.646 109.856 175.25 107.833 174.713C105.81 174.176 105.362 178.705 104.807 181.248C104.27 183.808 102.874 179.493 102.963 176.557C103.107 172.081 101.997 170.201 100.331 168.948C98.6843 167.694 97.9861 156.29 105.953 155.878C113.938 155.448 113.974 154.678 117.394 153.962C120.813 153.264 120.974 156.809 122.264 156.272Z" fill="#303C60"/>
<path d="M569.589 286.414C574.673 291.051 572.471 295.706 568.711 304.336C564.951 312.965 564.289 344.816 564.289 344.816L567.386 344.368C567.386 344.368 566.939 311.64 571.146 302.778C575.354 293.933 577.126 289.511 580.886 292.376C584.628 295.258 569.589 286.414 569.589 286.414Z" fill="#74B570"/>
<path d="M566.791 280.398C567.418 277.641 571.07 274.669 575.976 272.145C575.242 276.209 572.914 282.851 575.331 284.212C578.59 286.056 575.653 276.782 576.907 271.679C581.508 269.423 587.058 267.597 592.161 266.684C592.161 266.702 592.143 266.72 592.143 266.738C589.26 274.042 585.5 276.907 587.058 278.017C588.222 278.841 592.017 270.426 597.03 266.093C600.79 265.896 603.977 266.398 605.857 267.901C608.757 270.211 610.727 272.252 607.79 279.252C606.125 280.452 603.959 281.311 601.435 281.562C594.792 282.224 591.695 282.439 596.35 284.659C598.624 285.734 602.437 284.606 605.535 283.907C604.532 285.751 603.297 287.846 601.793 290.227C600.844 291.731 599.788 293.056 598.678 294.184C596.547 294.596 594.667 294.596 593.682 294.184C590.585 292.859 582.618 288.652 580.631 290.424C578.679 292.161 595.383 293.253 594.219 297.657C586.127 302.312 576.871 300.11 575.224 295.813C573.039 290.048 564.929 288.688 566.791 280.398Z" fill="#9CD499"/>
<path d="M583.514 311.855C574.67 305.213 565.592 311.407 560.955 318.497C556.318 325.569 559.63 341.504 559.63 341.504C559.63 341.504 561.403 341.504 561.403 340.841C561.403 340.179 556.533 322.042 568.045 313.86C575.242 308.74 580.435 311.211 581.097 313.645C581.759 316.08 578.215 320.503 578.215 320.503L583.514 311.855Z" fill="#74B570"/>
<path d="M563.163 298.212C572.008 298.212 574.89 311.927 572.455 319.894C570.02 327.861 566.708 342.685 566.708 342.685L564.488 340.465C564.488 340.465 572.885 319.679 570.898 310.387C568.91 301.095 564.041 299.555 563.163 299.555C562.286 299.537 563.163 298.212 563.163 298.212Z" fill="#9CD499"/>
<path d="M570.587 319.948C571.214 319.124 571.984 318.444 572.915 317.996C572.789 318.658 572.646 319.285 572.449 319.894C571.339 323.528 570.05 328.577 568.976 332.999C568.886 332.426 568.725 331.567 568.493 330.206C568.439 329.884 568.403 329.544 568.367 329.186C569.227 326.232 570.05 323.027 570.587 319.948Z" fill="#74B570"/>
<path d="M573.006 320.019C589.818 312.947 580.955 303.225 595.78 309.635C596.818 310.083 598.089 311.228 599.378 312.804C598.053 313.18 596.46 313.449 594.687 313.18C590.265 312.518 591.805 316.062 599.11 316.94C600.488 317.101 601.598 317.334 602.529 317.656C606.003 324.334 607.578 333.125 600.22 336.186C598.769 336.795 596.979 337.135 594.974 337.26C592.7 335.452 595.529 325.014 592.02 326.447C588.654 327.825 593.076 335.398 592.467 337.314C589.155 337.26 585.485 336.705 581.958 335.846C580.561 335.076 579.505 334.02 579.183 332.659C578.073 328.022 585.377 325.14 585.592 321.165C585.789 317.513 582.925 329.222 575.298 330.94C568.405 327.7 565.146 323.331 573.006 320.019Z" fill="#9CD499"/>
<path d="M561.03 307.504C562.803 303.745 558.148 302.867 558.38 305.732C558.577 308.274 558.595 314.469 555.981 316.152C551.469 315.669 545.346 313.842 540.709 311.085C540.656 310.709 540.709 310.333 540.906 309.939C542.894 305.965 555.731 302.635 551.738 301.31C548.569 300.253 543.019 306.484 538.525 309.635C535.84 307.594 534.031 305.159 534.031 302.456C534.031 298.785 538.489 294.614 544.272 292.626C546.868 292.895 549.285 294.309 553.063 296.44C558.631 299.591 557.342 294.488 552.078 291.463C556.626 291.695 561.155 293.647 564.503 298.284C564.503 298.284 564.181 300.271 566.294 303.333C572.023 311.712 565.416 316.582 557.503 316.277C557.951 314.075 559.813 310.101 561.03 307.504Z" fill="#9CD499"/>
<path d="M582.977 311.479C587.31 314.827 592.108 318.73 597.998 321.38C603.889 324.03 602.725 332.677 602.725 332.677C602.725 332.677 603.602 325.211 598.697 322.651C593.773 320.091 590.533 317.047 586.809 316.456C583.067 315.865 581.008 315.275 581.008 315.275C581.008 315.275 582.189 312.911 581.491 312.034C580.811 311.157 582.977 311.479 582.977 311.479Z" fill="#74B570"/>
<path d="M604.3 272.234C588.473 276.459 576.872 286.593 574.705 289.046C572.539 291.499 572.539 292.197 572.539 292.197L574.204 295.348L574.992 294.954C574.992 294.954 573.721 292.304 577.051 288.867C582.816 282.941 589.834 278.25 594.65 276.191C599.484 274.096 604.3 272.234 604.3 272.234Z" fill="#74B570"/>
<path d="M560.616 359.837H566.668C570.965 359.837 574.456 356.346 574.456 352.049V338.156H552.828V352.049C552.828 356.364 556.319 359.837 560.616 359.837Z" fill="#75A1DE"/>
<path d="M574.456 340.644H552.828V342.166H574.456V340.644Z" fill="white"/>
<path d="M574.456 343.419H552.828V344.314H574.456V343.419Z" fill="white"/>
<path d="M304.146 48.026C304.146 31.6441 290.969 18.3417 274.641 18.1269C258.223 17.912 244.616 31.1249 244.347 47.5426C244.222 55.5456 247.248 62.8503 252.261 68.293C254.571 70.7996 255.86 74.0759 255.86 77.4955V90.9054C255.86 99.5708 262.949 106.679 271.633 106.679H276.896C285.562 106.679 292.67 99.5887 292.67 90.9054V77.4955C292.67 74.058 293.994 70.7638 296.322 68.2393C301.156 62.904 304.146 55.8142 304.146 48.026Z" fill="#F5DC95"/>
<path opacity="0.5" d="M299.956 50.0313C299.956 35.941 288.623 24.4827 274.569 24.3036C260.443 24.1246 248.734 35.4934 248.519 49.6016C248.411 56.4945 251.007 62.7787 255.322 67.4516C257.31 69.6 258.42 72.4288 258.42 75.365V86.895C258.42 94.3608 264.525 100.466 271.991 100.466H276.52C283.986 100.466 290.091 94.3608 290.091 86.895V75.365C290.091 72.4109 291.237 69.5821 293.224 67.3979C297.396 62.8324 299.956 56.7272 299.956 50.0313Z" fill="white"/>
<path d="M278.654 82.8666H268.807C268.342 82.8666 267.966 82.5086 267.912 82.061C267.894 81.864 266.05 62.8682 257.564 57.5329C257.152 57.2643 257.027 56.7093 257.277 56.2975C257.546 55.8857 258.101 55.7425 258.513 56.0111C266.802 61.2031 269.165 77.227 269.613 81.0763H277.705C277.67 79.7514 277.741 77.2091 278.511 73.8969C279.532 69.4747 282.02 62.8145 288.143 56.1722C288.483 55.8141 289.038 55.7783 289.414 56.1185C289.773 56.4587 289.808 57.0137 289.468 57.3897C278.296 69.5642 279.532 81.7566 279.55 81.8819C279.585 82.1326 279.496 82.3832 279.335 82.5802C279.156 82.7592 278.923 82.8666 278.654 82.8666Z" fill="#94BDF2"/>
<path d="M286.028 58.7504C282.698 58.7504 278.168 56.3871 273.406 53.8268C267.247 57.1032 261.482 60.0573 258.259 58.1058C256.738 57.1927 256.021 55.3845 256.039 52.6094C256.057 49.9954 256.809 48.223 258.277 47.3636C261.5 45.4479 267.283 48.5094 273.406 51.8037C279.654 48.4736 285.545 45.3584 288.767 47.3278C290.218 48.2051 290.934 49.9955 290.898 52.6452C290.862 55.4024 290.074 57.2465 288.553 58.1595C287.818 58.5534 286.977 58.7504 286.028 58.7504ZM275.304 52.8063C280.227 55.4203 285.366 57.9268 287.639 56.584C288.588 56.029 289.09 54.6862 289.108 52.5915C289.125 50.6221 288.714 49.3509 287.836 48.8317C285.652 47.5068 280.317 50.1566 275.304 52.8063ZM260.694 48.5453C260.104 48.5453 259.602 48.6527 259.19 48.9033C258.313 49.4225 257.848 50.6758 257.848 52.6273C257.83 54.6862 258.277 56.0111 259.19 56.5661C261.393 57.9089 266.567 55.4203 271.508 52.8063C267.498 50.6758 263.29 48.5453 260.694 48.5453Z" fill="#94BDF2"/>
<path d="M277.399 110.904H271.67C269.647 110.904 268 109.257 268 107.234V106.696C268 104.673 269.647 103.026 271.67 103.026H277.399C279.423 103.026 281.07 104.673 281.07 106.696V107.234C281.07 109.257 279.423 110.904 277.399 110.904Z" fill="#94BDF2"/>
<path d="M254.984 81.2553V90.7443C254.984 99.8215 262.414 107.251 271.492 107.251H276.988C286.065 107.251 293.495 99.8215 293.495 90.7443V81.2553H254.984Z" fill="#94BDF2"/>
<path d="M293.333 84.2273H255.609C254.428 84.2273 253.461 83.2605 253.461 82.0789V81.8461C253.461 80.6645 254.428 79.6977 255.609 79.6977H293.333C294.514 79.6977 295.481 80.6645 295.481 81.8461V82.0789C295.481 83.2605 294.514 84.2273 293.333 84.2273Z" fill="#9EC8FF"/>
<path d="M293.473 87.629L256.037 92.2482C254.873 92.3914 253.781 91.55 253.638 90.3862L253.602 90.1535C253.459 88.9718 254.3 87.8976 255.464 87.7544L292.9 83.1352C294.082 82.992 295.156 83.8335 295.3 84.9972L295.335 85.2299C295.497 86.4116 294.655 87.4858 293.473 87.629Z" fill="#9EC8FF"/>
<path d="M293.473 94.1818L256.037 98.801C254.873 98.9442 253.781 98.1027 253.638 96.939L253.602 96.7062C253.459 95.5246 254.3 94.4504 255.464 94.3071L292.918 89.688C294.1 89.5447 295.174 90.3862 295.317 91.55L295.353 91.7827C295.496 92.9644 294.655 94.0386 293.473 94.1818Z" fill="#9EC8FF"/>
<path d="M291.168 101.2L259.998 105.049C258.924 105.175 257.939 104.405 257.796 103.331L257.724 102.74C257.599 101.666 258.369 100.681 259.443 100.538L290.613 96.6883C291.688 96.563 292.672 97.3328 292.816 98.4071L292.887 98.9979C293.013 100.072 292.243 101.057 291.168 101.2Z" fill="#9EC8FF"/>
<path d="M561.08 109.686H581.168C581.168 120.715 572.091 129.774 561.08 129.774C550.069 129.774 540.992 120.697 540.992 109.686C540.992 98.6577 550.069 89.5984 561.08 89.5984V109.686Z" fill="#9EC8FF"/>
<path d="M584.557 106.876C584.557 95.7752 575.551 86.7876 564.469 86.7876V106.876H584.557Z" fill="#F39892"/>
<path d="M544.359 106.876C544.359 117.976 553.365 126.963 564.447 126.963C553.437 126.981 544.359 117.904 544.359 106.876Z" fill="#F39892"/>
<path d="M564.447 86.7876C553.347 86.7876 544.359 95.7931 544.359 106.876C544.359 95.8647 553.437 86.7876 564.447 86.7876Z" fill="#F39892"/>
<path d="M564.445 126.981C575.546 126.981 584.533 117.976 584.533 106.893C584.551 117.904 575.474 126.981 564.445 126.981Z" fill="#F39892"/>
<path d="M172.199 96.4019H167.812V109.096H172.199V96.4019Z" fill="#9EC8FF"/>
<path d="M228.449 100.538H224.062V109.113H228.449V100.538Z" fill="#9EC8FF"/>
<path d="M190.8 79.3933H186.414V109.113H190.8V79.3933Z" fill="#9EC8FF"/>
<path d="M200.113 95.7394H195.727V109.096H200.113V95.7394Z" fill="#9EC8FF"/>
<path d="M209.402 91.9617H205.016V109.096H209.402V91.9617Z" fill="#9EC8FF"/>
<path d="M181.511 88.0229H177.125V109.113H181.511V88.0229Z" fill="#9EC8FF"/>
<path d="M218.73 83.1352H214.344V109.096H218.73V83.1352Z" fill="#9EC8FF"/>
<path d="M50.8497 72.2856L27.8255 58.2133L23.6719 84.854C34.4857 86.5727 45.21 81.506 50.8497 72.2856Z" fill="#A2DFF2"/>
<path d="M50.8624 72.2498C50.9161 72.1423 51.0056 72.017 51.0056 72.017C55.8754 63.8708 56.0545 53.7552 51.5964 45.4658C43.4502 49.7269 48.3022 47.1488 27.8203 58.2133C50.8803 72.3035 47.2995 70.1192 50.8624 72.2498Z" fill="#9CD499"/>
<path d="M2.52344 48.8854L27.8214 58.2133L51.5617 45.3763C40.4614 24.8407 10.5801 27.2936 2.52344 48.8854Z" fill="#9EC8FF"/>
<path d="M23.6674 84.854L27.8389 58.1954L2.52309 48.8854C-3.49255 65.0167 7.19596 82.2579 23.6674 84.854Z" fill="#F39892"/>
<path d="M0.878582 53.2897C1.34408 53.2897 1.77377 53.415 2.14975 53.612C2.36459 52.3945 2.66895 51.195 3.06283 50.0133L16.795 55.0801C16.795 55.0801 16.795 55.0801 16.795 55.0622C16.7592 54.4356 17.0098 53.8447 17.3858 53.3792L16.0072 52.8779L3.67156 48.3304C4.69207 45.8597 6.03485 43.6217 7.64618 41.6523C7.07326 41.4375 6.58986 41.0257 6.2676 40.5065C4.53094 42.637 3.08074 45.054 1.98861 47.7217H1.97071L1.66635 48.5631L1.34408 49.4046H1.36198C0.932294 50.6937 0.592123 52.0186 0.359375 53.3255C0.538412 53.3076 0.717449 53.2897 0.878582 53.2897Z" fill="white"/>
<path d="M52.7622 45.7344L52.3504 44.9466C52.3504 44.9287 52.3325 44.9108 52.3325 44.8929L51.9924 44.2484H51.9745C49.2889 39.5755 45.4575 35.8694 40.8563 33.4524C36.3445 31.107 31.2241 30.0507 26.032 30.4088C19.9268 30.8385 14.3588 33.1302 9.95446 36.8183C10.4737 37.1406 10.8676 37.624 11.1003 38.1969C15.2361 34.7236 20.446 32.5751 26.1752 32.1813C36.1655 31.483 45.3501 36.3707 50.381 44.9824L43.3628 48.778C41.9126 49.5479 39.8895 50.6579 36.5057 52.4841C34.3393 53.6657 31.6 55.1338 28.1088 57.0316L27.894 57.1569L27.1957 56.7272L27.1599 56.9779L22.2185 55.1517C22.2185 55.7783 21.9678 56.3692 21.5561 56.8168L26.8735 58.7683L22.9705 83.7976C15.5941 82.3654 9.20251 77.8357 5.33531 71.2292C3.02573 67.2904 1.84408 62.904 1.79037 58.4818C1.50391 58.5892 1.21745 58.6429 0.913089 58.6429C0.590822 58.6429 0.268556 58.5892 0 58.4818C0.0537111 63.2084 1.32487 67.9171 3.79559 72.1423C7.93134 79.2143 14.7706 84.0662 22.684 85.5701V85.588L23.5613 85.7312L24.4565 85.8745V85.8566C25.6023 85.9998 26.7481 86.0714 27.894 86.0714C31.9223 86.0714 35.9148 85.1941 39.6209 83.4575C44.3654 81.2553 48.3579 77.7999 51.2046 73.4314L51.2225 73.4493L51.4015 73.1628L51.688 72.6973C51.7238 72.6257 51.7775 72.5362 51.8133 72.4825L51.8312 72.4467L51.8491 72.4288L52.1356 71.9633H52.1177C56.6294 63.9424 56.898 54.0059 52.7622 45.7344ZM24.6892 84.102L28.5027 59.6634L38.4393 65.7328C42.4497 68.1856 44.7414 69.5821 46.1737 70.4594L49.5933 72.5541C44.1326 80.8614 34.5184 85.3016 24.6892 84.102ZM50.5601 71.0144L50.381 70.907C49.4321 70.352 49.0383 70.1013 47.1584 68.9734L29.6306 58.2491L44.1864 50.3714C46.3169 49.2256 47.1942 48.7601 49.3784 47.6322C49.9155 47.3636 50.5243 47.0413 51.2404 46.6654C55.0181 54.3461 54.7674 63.5486 50.5601 71.0144Z" fill="#E7F3FE"/>
<path d="M175.423 63.1368H101.195C100.389 63.1368 99.7266 62.4743 99.7266 61.6687V29.7285C99.7266 28.9228 100.389 28.2603 101.195 28.2603H175.423C176.229 28.2603 176.892 28.9228 176.892 29.7285V61.6687C176.892 62.4743 176.229 63.1368 175.423 63.1368Z" fill="#9EC8FF"/>
<path d="M173.6 61.5075H103.041C102.396 61.5075 101.859 60.9704 101.859 60.3259V38.6087C101.859 37.9641 102.396 37.427 103.041 37.427H173.6C174.244 37.427 174.781 37.9641 174.781 38.6087V60.3259C174.781 60.9704 174.244 61.5075 173.6 61.5075Z" fill="white"/>
<path d="M105.295 33.5598H103.577C103.218 33.5598 102.914 33.2734 102.914 32.8974V31.5009C102.914 31.1428 103.201 30.8385 103.577 30.8385H105.295C105.653 30.8385 105.958 31.1249 105.958 31.5009V32.9153C105.94 33.2734 105.653 33.5598 105.295 33.5598Z" fill="white"/>
<path d="M110.787 33.5598H109.069C108.711 33.5598 108.406 33.2734 108.406 32.8974V31.5009C108.406 31.1428 108.693 30.8385 109.069 30.8385H110.787C111.146 30.8385 111.45 31.1249 111.45 31.5009V32.9153C111.432 33.2734 111.146 33.5598 110.787 33.5598Z" fill="white"/>
<path d="M116.287 33.5598H114.569C114.211 33.5598 113.906 33.2734 113.906 32.8974V31.5009C113.906 31.1428 114.193 30.8385 114.569 30.8385H116.287C116.646 30.8385 116.95 31.1249 116.95 31.5009V32.9153C116.932 33.2734 116.646 33.5598 116.287 33.5598Z" fill="white"/>
<path d="M171.804 42.7086H133.24C132.613 42.7086 132.094 42.1894 132.094 41.5628C132.094 40.9362 132.613 40.417 133.24 40.417H171.822C172.449 40.417 172.968 40.9362 172.968 41.5628C172.968 42.1894 172.449 42.7086 171.804 42.7086Z" fill="#9EC8FF"/>
<path d="M142.806 60.5049H104.224C103.597 60.5049 103.078 59.9857 103.078 59.3591C103.078 58.7325 103.597 58.2133 104.224 58.2133H142.806C143.433 58.2133 143.952 58.7325 143.952 59.3591C143.952 59.9857 143.433 60.5049 142.806 60.5049Z" fill="#9EC8FF"/>
<path d="M149.91 60.5049H145.917C145.702 60.5049 145.523 60.3259 145.523 60.111V58.5892C145.523 58.3744 145.702 58.1953 145.917 58.1953H149.91C150.125 58.1953 150.304 58.3744 150.304 58.5892V60.111C150.304 60.3259 150.125 60.5049 149.91 60.5049Z" fill="#9EC8FF"/>
<path d="M155.925 60.5049H151.933C151.718 60.5049 151.539 60.3259 151.539 60.111V58.5892C151.539 58.3744 151.718 58.1953 151.933 58.1953H155.925C156.14 58.1953 156.319 58.3744 156.319 58.5892V60.111C156.319 60.3259 156.14 60.5049 155.925 60.5049Z" fill="#9EC8FF"/>
<path d="M172.184 47.7396H108.303C107.874 47.7396 107.516 47.3815 107.516 46.9518C107.516 46.5221 107.874 46.1641 108.303 46.1641H172.184C172.613 46.1641 172.972 46.5221 172.972 46.9518C172.972 47.3815 172.613 47.7396 172.184 47.7396Z" fill="#9EC8FF"/>
<path d="M172.184 51.1234H108.303C107.874 51.1234 107.516 50.7653 107.516 50.3356C107.516 49.9059 107.874 49.5479 108.303 49.5479H172.184C172.613 49.5479 172.972 49.9059 172.972 50.3356C172.972 50.7653 172.613 51.1234 172.184 51.1234Z" fill="#9EC8FF"/>
<path d="M364.896 40.9362H331.953V21.7434H356.732C359.919 24.9303 361.709 26.7206 364.896 29.9075V40.9362Z" fill="#FFB8B3"/>
<path d="M356.125 21.7434V31.9843H364.898V30.0149L356.68 21.7971L356.125 21.7434Z" fill="#F39892"/>
<path d="M356.734 21.7434V30.0149H364.898L356.734 21.7434Z" fill="#FFB8B3"/>
<path d="M350.358 28.9407H335.677C335.355 28.9407 335.086 28.6721 335.086 28.3499C335.086 28.0276 335.355 27.759 335.677 27.759H350.358C350.68 27.759 350.949 28.0276 350.949 28.3499C350.931 28.6721 350.68 28.9407 350.358 28.9407Z" fill="white"/>
<path d="M350.358 31.9127H335.677C335.355 31.9127 335.086 31.6442 335.086 31.3219C335.086 30.9996 335.355 30.7311 335.677 30.7311H350.358C350.68 30.7311 350.949 30.9996 350.949 31.3219C350.931 31.6621 350.68 31.9127 350.358 31.9127Z" fill="white"/>
<path d="M350.358 35.0459H335.677C335.355 35.0459 335.086 34.7773 335.086 34.4551C335.086 34.1328 335.355 33.8642 335.677 33.8642H350.358C350.68 33.8642 350.949 34.1328 350.949 34.4551C350.931 34.7952 350.68 35.0459 350.358 35.0459Z" fill="white"/>
<path d="M347.438 24.1962C347.982 24.1962 348.423 23.7553 348.423 23.2115C348.423 22.6677 347.982 22.2268 347.438 22.2268C346.894 22.2268 346.453 22.6677 346.453 23.2115C346.453 23.7553 346.894 24.1962 347.438 24.1962Z" fill="#3E6BAB"/>
<path d="M223.236 22.6679L202.688 18.6976L197.899 43.4824L218.447 47.4527L223.236 22.6679Z" fill="#FAE8B6"/>
<path d="M218.889 33.3987L207.985 31.2861C207.699 31.2324 207.502 30.9459 207.556 30.6594C207.609 30.373 207.896 30.176 208.182 30.2298L219.086 32.3424C219.372 32.3961 219.569 32.6826 219.515 32.969C219.462 33.2555 219.193 33.4524 218.889 33.3987Z" fill="#9EC8FF"/>
<path d="M218.373 36.1201L207.47 34.0075C207.183 33.9537 206.986 33.6673 207.04 33.3808C207.094 33.0944 207.38 32.8974 207.667 32.9511L218.57 35.0638C218.857 35.1175 219.053 35.4039 219 35.6904C218.946 35.9769 218.66 36.1738 218.373 36.1201Z" fill="#9EC8FF"/>
<path d="M217.834 38.9131L206.931 36.8004C206.644 36.7467 206.447 36.4603 206.501 36.1738C206.555 35.8873 206.841 35.6904 207.128 35.7441L218.031 37.8567C218.317 37.9105 218.514 38.1969 218.461 38.4834C218.407 38.7698 218.121 38.9668 217.834 38.9131Z" fill="#9EC8FF"/>
<path d="M211.514 22.0299C211.424 22.5133 210.959 22.8355 210.458 22.746C209.974 22.6565 209.652 22.191 209.741 21.6897C209.831 21.2063 210.297 20.884 210.798 20.9736C211.299 21.081 211.603 21.5465 211.514 22.0299Z" fill="#3E6BAB"/>
<path d="M380.096 67.8096L348.281 64.4438L350.376 44.499L375.602 47.1488C377.912 49.9955 379.201 51.5889 381.493 54.4356L380.096 67.8096Z" fill="#9EC8FF"/>
<path d="M375.152 48.5811L351.483 46.0924L349.711 62.9219L379.145 66.0193L380.183 56.1722L374.418 55.5635L375.152 48.5811Z" fill="white"/>
<path d="M371.951 54.7041L356.608 53.0928C356.249 53.057 355.999 52.7347 356.035 52.3945C356.07 52.0544 356.393 51.7858 356.733 51.8216L372.076 53.433C372.434 53.4688 372.685 53.791 372.649 54.1312C372.631 54.4893 372.309 54.7399 371.951 54.7041Z" fill="#9EC8FF"/>
<path d="M371.592 58.0879L356.248 56.4766C355.89 56.4408 355.639 56.1185 355.675 55.7783C355.711 55.4203 356.033 55.1696 356.374 55.2054L371.717 56.8168C372.075 56.8526 372.326 57.1748 372.29 57.515C372.272 57.8552 371.95 58.1237 371.592 58.0879Z" fill="#9EC8FF"/>
<path d="M371.217 61.615L355.873 60.0036C355.515 59.9678 355.264 59.6456 355.3 59.3054C355.336 58.9473 355.658 58.6967 355.999 58.7325L371.342 60.3438C371.7 60.3796 371.951 60.7019 371.915 61.042C371.879 61.3822 371.575 61.6508 371.217 61.615Z" fill="#9EC8FF"/>
<path d="M362.297 50.1029C362.841 50.1029 363.282 49.662 363.282 49.1182C363.282 48.5743 362.841 48.1335 362.297 48.1335C361.753 48.1335 361.312 48.5743 361.312 49.1182C361.312 49.662 361.753 50.1029 362.297 50.1029Z" fill="#3E6BAB"/>
<path d="M538.169 33.5598C538.169 39.6292 533.245 44.5348 527.194 44.5348C521.124 44.5348 516.219 39.6113 516.219 33.5598C516.219 27.4905 521.142 22.5849 527.194 22.5849C533.263 22.567 538.169 27.4905 538.169 33.5598Z" fill="#9CD499"/>
<path d="M526.105 37.3196H526.087C525.944 37.3196 525.801 37.248 525.711 37.1406L522.721 33.7568C522.524 33.5419 522.542 33.2017 522.775 33.0048C522.99 32.8079 523.33 32.8258 523.527 33.0585L526.141 36.0305L532.103 30.1939C532.318 29.9791 532.658 29.997 532.855 30.1939C533.07 30.4088 533.052 30.7489 532.855 30.9459L526.481 37.1764C526.374 37.2659 526.248 37.3196 526.105 37.3196Z" fill="white"/>
<path d="M32.2979 135.521H95.6233C97.2525 135.521 98.5774 134.197 98.5774 132.567V109.937C98.5774 108.308 97.2525 106.983 95.6233 106.983H32.2979C30.6686 106.983 29.3438 108.308 29.3438 109.937V132.567C29.3438 134.197 30.6686 135.521 32.2979 135.521Z" fill="#9EC8FF"/>
<path d="M90.2146 131.225V146.962L72.0781 128.825C72.0781 128.825 89.8386 131.225 90.2146 131.225Z" fill="#9EC8FF"/>
<path d="M35.4284 132.693H92.4875C93.8661 132.693 94.994 131.565 94.994 130.186V112.318C94.994 110.94 93.8661 109.812 92.4875 109.812H35.4284C34.0498 109.812 32.9219 110.94 32.9219 112.318V130.186C32.9219 131.565 34.0498 132.693 35.4284 132.693Z" fill="white"/>
<path d="M61.1963 115.469H89.2335C89.9138 115.469 90.4689 114.914 90.4689 114.234C90.4689 113.554 89.9138 112.999 89.2335 112.999H61.1963C60.516 112.999 59.9609 113.554 59.9609 114.234C59.9609 114.932 60.516 115.469 61.1963 115.469Z" fill="#9EC8FF"/>
<path d="M37.7741 120.178H89.7665C90.1424 120.178 90.4468 119.874 90.4468 119.498V119.48C90.4468 119.104 90.1424 118.799 89.7665 118.799H37.7741C37.3981 118.799 37.0938 119.104 37.0938 119.48V119.498C37.0938 119.874 37.3981 120.178 37.7741 120.178Z" fill="#9EC8FF"/>
<path d="M37.7741 122.864H89.7665C90.1424 122.864 90.4468 122.559 90.4468 122.183V122.165C90.4468 121.789 90.1424 121.485 89.7665 121.485H37.7741C37.3981 121.485 37.0938 121.789 37.0938 122.165V122.183C37.0938 122.541 37.3981 122.864 37.7741 122.864Z" fill="#9EC8FF"/>
<path d="M500.662 115.595H503.974C504.672 115.595 505.245 115.022 505.245 114.323V111.584C505.245 110.886 504.672 110.313 503.974 110.313H500.662C499.964 110.313 499.391 110.886 499.391 111.584V114.323C499.391 115.022 499.964 115.595 500.662 115.595Z" fill="#9EC8FF"/>
<path d="M490.013 115.595H493.326C494.024 115.595 494.597 115.022 494.597 114.323V111.584C494.597 110.886 494.024 110.313 493.326 110.313H490.013C489.315 110.313 488.742 110.886 488.742 111.584V114.323C488.742 115.022 489.315 115.595 490.013 115.595Z" fill="#9EC8FF"/>
<path d="M479.357 115.595H482.669C483.368 115.595 483.94 115.022 483.94 114.323V111.584C483.94 110.886 483.368 110.313 482.669 110.313H479.357C478.659 110.313 478.086 110.886 478.086 111.584V114.323C478.086 115.022 478.659 115.595 479.357 115.595Z" fill="#9EC8FF"/>
</svg>
