<svg width="576" height="305" viewBox="0 0 576 305" fill="none" xmlns="http://www.w3.org/2000/svg">
<path opacity="0.4" d="M361.133 70.1151C361.133 70.1151 370.36 32.0305 401.193 27.9187C401.193 27.9187 407.2 27.1997 409.164 33.7156C411.151 40.2091 399.229 40.2316 391.852 42.838C384.475 45.4219 367.277 56.454 361.133 70.1151Z" fill="#CDDFF9"/>
<path opacity="0.4" d="M361.883 77.6545C361.883 77.6545 379.283 42.5877 409.79 45.3957C409.79 45.3957 415.703 46.0247 416.153 52.8089C416.602 59.5707 405.159 56.9648 397.493 57.8634C389.827 58.7395 370.83 65.7035 361.883 77.6545Z" fill="#CDDFF9"/>
<path d="M453.867 223.916C453.867 223.916 462.95 185.832 493.301 181.72C493.301 181.72 499.214 181.001 501.148 187.517C503.104 194.01 491.368 194.033 484.106 196.639C476.844 199.223 459.915 210.255 453.867 223.916Z" fill="#CDDFF9"/>
<path d="M454.98 211.853C454.98 211.853 450.019 172.908 476.791 158.281C476.791 158.281 482.021 155.509 486.133 160.918C490.245 166.327 479.317 170.497 473.484 175.522C467.651 180.548 455.784 196.911 454.98 211.853Z" fill="#DFEBFD"/>
<path d="M546.39 219.443C542.951 204.79 518.287 208.504 518.287 208.504C518.287 208.504 500.796 233.348 495.931 233.778C491.066 234.208 506.747 209.637 506.747 209.637C497.402 208.414 473.122 219.103 473.122 219.103C473.122 219.103 473.643 248.793 468.823 248.023C464.003 247.253 469.705 221.73 469.705 221.73C460.541 224.153 451.717 234.435 451.717 234.435C440.561 251.307 462.804 264.781 462.804 264.781C462.804 264.781 462.759 275.063 456.016 286.658C456.016 286.658 454.5 288.787 452.938 292.433L455.405 292.524C455.631 291.867 455.88 291.233 456.152 290.621C456.152 290.621 456.152 290.599 456.174 290.599C456.355 290.214 456.627 289.693 456.943 289.036C457.758 287.587 458.301 286.5 458.641 285.73C461.062 281.155 464.524 275.222 466.741 274.021C466.741 274.021 466.47 273.636 466.243 272.866C466.402 273.229 466.56 273.614 466.741 274.021C470.678 283.238 491.79 285.458 503.669 283.442C515.549 281.427 510.525 277.917 504.348 272.3C498.171 266.684 484.821 267.658 480.951 265.415C477.082 263.173 482.897 261.248 490.749 262.109C498.601 262.97 502.266 270.964 514.915 272.617C527.587 274.248 538.063 250.695 538.063 250.695C529.193 253.118 513.625 247.751 513.128 244.716C512.63 241.682 535.914 242.769 539.557 241.976C543.2 241.183 549.83 234.095 546.39 219.443Z" fill="#DFEBFD"/>
<path d="M94.4573 91.275C97.8962 76.6225 122.557 80.3366 122.557 80.3366C122.557 80.3366 140.046 105.18 144.91 105.61C149.774 106.041 134.096 81.4689 134.096 81.4689C143.44 80.246 167.716 90.9353 167.716 90.9353C167.716 90.9353 167.195 120.625 172.014 119.855C176.833 119.085 171.132 93.5623 171.132 93.5623C180.295 95.9855 189.119 106.267 189.119 106.267C200.273 123.139 178.033 136.614 178.033 136.614C178.033 136.614 178.078 146.895 184.82 158.491C184.82 158.491 186.336 160.619 187.897 164.265L185.431 164.356C185.205 163.699 184.956 163.065 184.684 162.454C184.684 162.454 184.684 162.431 184.662 162.431C184.481 162.046 184.209 161.525 183.892 160.868C183.078 159.419 182.535 158.332 182.195 157.562C179.775 152.987 176.313 147.054 174.096 145.854C174.096 145.854 174.367 145.469 174.594 144.699C174.435 145.061 174.277 145.446 174.096 145.854C170.159 155.071 149.05 157.29 137.173 155.275C125.295 153.259 130.317 149.749 136.494 144.132C142.67 138.516 156.019 139.49 159.888 137.248C163.756 135.006 157.942 133.081 150.091 133.941C142.24 134.802 138.575 142.796 125.928 144.45C113.258 146.08 102.783 122.527 102.783 122.527C111.652 124.951 127.218 119.583 127.715 116.549C128.213 113.514 104.932 114.601 101.29 113.808C97.6021 112.948 90.9957 105.905 94.4573 91.275Z" fill="#DFEBFD"/>
<path d="M244.234 20.1369C251.417 6.27323 275.123 16.36 275.123 16.36C275.123 16.36 286.279 45.8515 291.016 47.5477C295.753 49.2439 286.369 20.4536 286.369 20.4536C296.022 21.6296 317.595 38.6369 317.595 38.6369C317.595 38.6369 309.513 68.3772 314.519 68.8521C319.525 69.327 320.333 42.1424 320.333 42.1424C328.886 46.9371 335.082 59.5569 335.082 59.5569C341.951 79.4139 316.248 87.239 316.248 87.239C316.248 87.239 313.666 97.6198 317.46 111.009C317.46 111.009 318.425 113.542 319.076 117.613L316.585 117.07C316.517 116.346 316.45 115.645 316.338 114.966C316.338 114.966 316.338 114.966 316.338 114.944V114.921C316.248 114.492 316.136 113.881 315.956 113.157C315.529 111.484 315.238 110.262 315.103 109.38C313.846 104.156 311.893 97.2806 309.985 95.5165C309.985 95.5165 310.344 95.1773 310.77 94.4762C310.524 94.8154 310.254 95.1547 309.985 95.5165C303.699 103.771 282.014 100.583 270.655 95.4939C259.297 90.4053 265.223 88.1663 272.81 84.118C280.42 80.0471 293.53 84.4799 297.953 83.1907C302.397 81.9242 297.055 78.4866 288.996 77.3558C280.937 76.225 275.212 83.3264 262.148 81.6981C249.06 80.0923 244.593 53.6767 244.593 53.6767C252.832 58.4034 269.78 57.0013 271.06 54.0612C272.339 51.1211 248.791 46.236 245.311 44.4945C241.832 42.7531 237.05 34.0006 244.234 20.1369Z" fill="#DFEBFD"/>
<g opacity="0.5">
<path d="M529.969 40.7202L543.899 93.9853C544.508 96.3296 543.088 98.7641 540.743 99.3727L447.287 123.807C444.943 124.416 442.508 122.996 441.9 120.652L427.969 67.3865C427.36 65.0422 428.781 62.6078 431.125 61.9992L524.581 37.5644C526.925 36.9558 529.337 38.3759 529.969 40.7202Z" fill="#AAC9F5"/>
<path d="M491.224 100.95L466.316 107.465C465.256 107.735 464.174 107.104 463.904 106.045L463.836 105.797C463.566 104.737 464.197 103.655 465.256 103.385L490.164 96.8703C491.224 96.5998 492.306 97.2309 492.576 98.2904L492.644 98.5383C492.914 99.5978 492.261 100.68 491.224 100.95Z" fill="#CDE0FB"/>
<path d="M478.169 76.6509C478.417 77.5526 478.439 78.3415 478.281 79.0177C478.079 79.8518 477.56 80.3702 476.726 80.5956C475.892 80.821 475.193 80.6182 474.585 79.987C474.111 79.4911 473.773 78.7923 473.525 77.8681C473.277 76.9439 473.255 76.1775 473.413 75.5238C473.615 74.6898 474.134 74.1488 474.99 73.9459C475.824 73.7205 476.546 73.9234 477.132 74.5546C477.583 75.0279 477.943 75.7267 478.169 76.6509ZM477.042 76.9439C476.884 76.3804 476.704 75.907 476.478 75.5689C476.117 75.0505 475.734 74.8251 475.283 74.9603C474.81 75.073 474.562 75.4562 474.517 76.0874C474.495 76.5157 474.54 77.0116 474.697 77.5751C475.103 79.1304 475.712 79.8067 476.501 79.5813C476.952 79.4686 477.199 79.0854 477.245 78.4542C477.245 78.0034 477.199 77.5075 477.042 76.9439Z" fill="#CDE0FB"/>
<path d="M483.286 75.2983C483.534 76.2 483.556 76.9889 483.399 77.6652C483.196 78.4992 482.677 79.0176 481.843 79.243C481.009 79.4685 480.31 79.2656 479.702 78.6344C479.229 78.1385 478.89 77.4397 478.642 76.5155C478.394 75.6139 478.372 74.8249 478.53 74.1713C478.733 73.3372 479.251 72.7962 480.108 72.5934C480.942 72.3679 481.663 72.5708 482.249 73.202C482.7 73.6979 483.061 74.3967 483.286 75.2983ZM482.159 75.5914C482.001 75.0278 481.821 74.5545 481.595 74.2163C481.235 73.6979 480.852 73.4725 480.401 73.6077C479.927 73.7204 479.679 74.1036 479.634 74.7348C479.612 75.1631 479.657 75.659 479.815 76.2225C480.22 77.7779 480.829 78.4541 481.618 78.2287C482.069 78.116 482.317 77.7328 482.362 77.1016C482.362 76.6733 482.294 76.1774 482.159 75.5914Z" fill="#CDE0FB"/>
<path d="M491.044 73.2698C491.292 74.1714 491.314 74.9604 491.157 75.6366C490.954 76.4706 490.435 76.9891 489.601 77.2145C488.767 77.4399 488.068 77.2371 487.46 76.6059C486.986 76.11 486.648 75.4112 486.4 74.487C486.152 73.5854 486.13 72.7964 486.288 72.1427C486.49 71.3087 487.009 70.7677 487.865 70.5648C488.699 70.3394 489.421 70.5423 490.007 71.1734C490.458 71.6694 490.818 72.3681 491.044 73.2698ZM489.894 73.5628C489.736 72.9993 489.556 72.5259 489.331 72.1878C488.97 71.6694 488.587 71.4439 488.136 71.5792C487.663 71.6919 487.415 72.0751 487.37 72.7062C487.347 73.1345 487.392 73.6304 487.55 74.194C487.956 75.7493 488.542 76.4256 489.353 76.2002C489.804 76.0874 490.052 75.7042 490.097 75.0731C490.12 74.6448 490.052 74.1489 489.894 73.5628Z" fill="#CDE0FB"/>
<path d="M496.153 71.9398C496.401 72.8414 496.424 73.6304 496.266 74.3066C496.063 75.1406 495.545 75.6591 494.71 75.8845C493.876 76.1099 493.178 75.907 492.569 75.2759C492.096 74.78 491.758 74.0812 491.51 73.157C491.262 72.2553 491.239 71.4664 491.397 70.8127C491.6 69.9787 492.118 69.4377 492.975 69.2348C493.809 69.0094 494.53 69.2123 495.116 69.8434C495.567 70.3393 495.928 71.0381 496.153 71.9398ZM495.004 72.2328C494.846 71.6693 494.665 71.1959 494.44 70.8578C494.079 70.3393 493.696 70.1139 493.245 70.2492C492.772 70.3619 492.524 70.7451 492.479 71.3762C492.456 71.8045 492.501 72.3004 492.659 72.864C493.065 74.4193 493.651 75.0956 494.463 74.8701C494.913 74.7574 495.161 74.3742 495.206 73.7431C495.229 73.3148 495.161 72.8189 495.004 72.2328Z" fill="#CDE0FB"/>
<path d="M501.27 70.61C501.518 71.5116 501.541 72.3006 501.383 72.9768C501.18 73.8108 500.662 74.3293 499.828 74.5547C498.994 74.7801 498.295 74.5772 497.686 73.9461C497.213 73.4502 496.875 72.7514 496.627 71.8272C496.379 70.9255 496.356 70.1366 496.514 69.4829C496.717 68.6489 497.235 68.1079 498.092 67.905C498.926 67.6796 499.647 67.8825 500.233 68.5136C500.684 68.987 501.022 69.6858 501.27 70.61ZM500.121 70.903C499.963 70.3395 499.783 69.8661 499.557 69.528C499.197 69.0095 498.813 68.7841 498.362 68.9194C497.889 69.0321 497.641 69.4153 497.596 70.0464C497.574 70.4747 497.619 70.9706 497.776 71.5342C498.182 73.0895 498.791 73.7657 499.58 73.5403C500.031 73.4276 500.278 73.0444 500.324 72.4133C500.346 71.985 500.279 71.4891 500.121 70.903Z" fill="#CDE0FB"/>
<path d="M506.388 69.2574C506.635 70.159 506.658 70.948 506.5 71.6242C506.297 72.4582 505.779 72.9767 504.945 73.2021C504.111 73.4275 503.412 73.2246 502.803 72.5935C502.33 72.0976 501.992 71.3988 501.744 70.4746C501.496 69.573 501.474 68.784 501.631 68.1303C501.834 67.2963 502.353 66.7553 503.209 66.5524C504.043 66.327 504.765 66.5299 505.351 67.161C505.801 67.6569 506.14 68.3557 506.388 69.2574ZM505.238 69.573C505.08 69.0094 504.9 68.5361 504.674 68.1979C504.314 67.6795 503.931 67.4541 503.48 67.5893C503.006 67.702 502.758 68.0852 502.713 68.7164C502.691 69.1447 502.736 69.6406 502.894 70.2041C503.299 71.7595 503.885 72.4357 504.697 72.2103C505.148 72.0976 505.396 71.7144 505.441 71.0832C505.463 70.6324 505.396 70.1365 505.238 69.573Z" fill="#CDE0FB"/>
<path d="M514.145 67.2512C514.393 68.1528 514.416 68.9418 514.258 69.618C514.055 70.452 513.537 70.9705 512.703 71.1959C511.869 71.4213 511.17 71.2184 510.561 70.5873C510.088 70.0914 509.75 69.3926 509.502 68.4684C509.254 67.5668 509.231 66.7778 509.389 66.1241C509.592 65.2901 510.11 64.7491 510.967 64.5462C511.801 64.3208 512.522 64.5237 513.108 65.1548C513.559 65.6282 513.897 66.327 514.145 67.2512ZM512.996 67.5442C512.838 66.9807 512.658 66.5073 512.432 66.1692C512.072 65.6507 511.688 65.4253 511.238 65.5606C510.764 65.6733 510.516 66.0565 510.471 66.6876C510.449 67.1159 510.494 67.6118 510.651 68.1754C511.057 69.7307 511.643 70.407 512.455 70.1815C512.906 70.0688 513.154 69.6856 513.199 69.0545C513.199 68.6262 513.154 68.1077 512.996 67.5442Z" fill="#CDE0FB"/>
<path d="M519.239 65.8988C519.487 66.8005 519.51 67.5894 519.352 68.2656C519.149 69.0997 518.63 69.6181 517.796 69.8435C516.962 70.069 516.264 69.8661 515.655 69.2349C515.182 68.739 514.844 68.0402 514.596 67.116C514.348 66.2144 514.325 65.4254 514.483 64.7717C514.686 63.9377 515.204 63.3967 516.061 63.1939C516.895 62.9684 517.616 63.1713 518.202 63.8025C518.653 64.2984 519.014 64.9972 519.239 65.8988ZM518.112 66.1919C517.954 65.6283 517.774 65.1549 517.549 64.8168C517.188 64.2984 516.805 64.073 516.354 64.2082C515.88 64.3209 515.632 64.7041 515.587 65.3353C515.565 65.7636 515.61 66.2595 515.768 66.823C516.173 68.3784 516.76 69.0546 517.571 68.8292C518.022 68.7165 518.27 68.3333 518.315 67.7021C518.315 67.2738 518.27 66.7779 518.112 66.1919Z" fill="#CDE0FB"/>
<path d="M524.356 64.5688C524.604 65.4704 524.627 66.2594 524.469 66.9356C524.266 67.7696 523.748 68.2881 522.914 68.5135C522.08 68.7389 521.381 68.5361 520.772 67.9049C520.299 67.409 519.961 66.7102 519.713 65.786C519.465 64.8844 519.442 64.0954 519.6 63.4417C519.803 62.6077 520.321 62.0667 521.178 61.8638C522.012 61.6384 522.733 61.8413 523.319 62.4724C523.77 62.9683 524.131 63.6671 524.356 64.5688ZM523.229 64.8618C523.071 64.2983 522.891 63.8249 522.666 63.4868C522.305 62.9683 521.922 62.7429 521.471 62.8782C520.998 62.9909 520.75 63.3741 520.705 64.0052C520.682 64.4335 520.727 64.9294 520.885 65.493C521.291 67.0483 521.877 67.7246 522.688 67.4991C523.139 67.3864 523.387 67.0032 523.432 66.3721C523.432 65.9438 523.364 65.4479 523.229 64.8618Z" fill="#CDE0FB"/>
<path d="M529.473 63.2388C529.721 64.1404 529.744 64.9294 529.586 65.6056C529.383 66.4396 528.865 66.9581 528.031 67.1835C527.197 67.4089 526.498 67.206 525.889 66.5749C525.416 66.079 525.078 65.3802 524.83 64.456C524.582 63.5543 524.559 62.7654 524.717 62.1117C524.92 61.2777 525.439 60.7367 526.295 60.5338C527.129 60.3084 527.85 60.5113 528.437 61.1424C528.887 61.6158 529.248 62.3146 529.473 63.2388ZM528.346 63.5318C528.189 62.9683 528.008 62.4949 527.783 62.1568C527.422 61.6383 527.039 61.4129 526.588 61.5482C526.115 61.6609 525.867 62.0441 525.822 62.6752C525.799 63.1035 525.844 63.5994 526.002 64.163C526.408 65.7183 526.994 66.3945 527.805 66.1691C528.256 66.0564 528.504 65.6732 528.549 65.0421C528.549 64.6138 528.482 64.0953 528.346 63.5318Z" fill="#CDE0FB"/>
<path d="M462.052 62.6076L437.662 68.9868C436.603 69.2573 435.521 68.6261 435.25 67.5667C434.98 66.5073 435.611 65.4253 436.67 65.1548L461.037 58.7756C462.097 58.5051 463.179 59.1362 463.449 60.1957C463.742 61.2551 463.089 62.3371 462.052 62.6076Z" fill="#CDE0FB"/>
<path d="M521.019 51.5624C520.838 50.8637 520.433 50.3001 519.892 49.8944C519.734 49.7817 519.508 49.8268 519.418 49.9845L519.328 50.1198C519.238 50.255 519.283 50.4354 519.418 50.5255C519.802 50.8186 520.095 51.2469 520.23 51.7428C520.365 52.2387 520.32 52.7571 520.117 53.208C520.049 53.3657 520.117 53.5235 520.252 53.6137L520.388 53.7039C520.545 53.794 520.771 53.7264 520.861 53.5686C521.109 52.96 521.199 52.2612 521.019 51.5624Z" fill="#CDE0FB"/>
<path d="M522.598 51.1339C522.305 49.9843 521.607 49.0601 520.682 48.4515C520.525 48.3388 520.322 48.4064 520.232 48.5642L520.187 48.6544C520.096 48.8122 520.141 48.9925 520.299 49.0826C521.066 49.6011 521.652 50.39 521.9 51.3368C522.148 52.2835 522.035 53.2528 521.607 54.0868C521.539 54.2446 521.584 54.4249 521.719 54.5151L521.81 54.5602C521.967 54.6504 522.17 54.6053 522.26 54.4249C522.734 53.4331 522.892 52.2835 522.598 51.1339Z" fill="#CDE0FB"/>
<path d="M523.972 50.7733C523.566 49.2405 522.619 48.0007 521.38 47.1892C521.222 47.0991 521.019 47.1442 520.929 47.302C520.839 47.4597 520.884 47.6401 521.041 47.7302C522.146 48.4516 523.003 49.5561 523.341 50.9311C523.701 52.3061 523.498 53.6811 522.89 54.8533C522.8 55.0111 522.867 55.1914 523.003 55.2816C523.16 55.3717 523.363 55.3267 523.453 55.1463C524.152 53.8615 524.378 52.3061 523.972 50.7733Z" fill="#CDE0FB"/>
<path d="M525.479 50.39C524.96 48.4515 523.743 46.8736 522.165 45.8592C522.007 45.7691 521.804 45.8141 521.714 45.9719L521.624 46.1072C521.534 46.265 521.579 46.4453 521.737 46.5355C523.157 47.4371 524.239 48.8347 524.69 50.5704C525.141 52.306 524.893 54.0643 524.104 55.552C524.013 55.7098 524.081 55.8901 524.216 55.9803L524.352 56.0704C524.509 56.1606 524.712 56.1155 524.802 55.9352C525.682 54.3122 525.975 52.3286 525.479 50.39Z" fill="#CDE0FB"/>
</g>
<path d="M452.51 288.089H159.541C155.348 288.089 151.922 284.662 151.922 280.47V86.4565C151.922 82.2639 155.348 78.8376 159.541 78.8376H452.51C456.703 78.8376 460.129 82.2639 460.129 86.4565V280.47C460.129 284.662 456.703 288.089 452.51 288.089Z" fill="#2B478B"/>
<path d="M453.19 86.1635H158.891V285.97H453.19V86.1635Z" fill="#DDE7FE"/>
<path d="M491.308 293.341H120.751C117.73 293.341 115.273 290.884 115.273 287.863V285.429C115.273 282.408 117.73 279.951 120.751 279.951H491.285C494.306 279.951 496.763 282.408 496.763 285.429V287.863C496.785 290.906 494.328 293.341 491.308 293.341Z" fill="#2B478B"/>
<path d="M453.19 86.1635H158.891V280.65H453.19V86.1635Z" fill="#AEC3FF"/>
<path d="M60.7266 294.332C60.7266 294.332 60.7266 291.447 61.1548 290.5C61.5831 289.554 63.1836 285.654 63.1836 285.654H69.405C69.405 285.654 70.5546 289.216 70.6447 290.365C70.7124 291.537 70.6447 294.332 70.6447 294.332H60.7266Z" fill="#233862"/>
<path d="M100.261 294.332C100.261 294.332 100.261 291.447 99.8325 290.5C99.4042 289.554 97.8037 285.654 97.8037 285.654H91.5823C91.5823 285.654 90.4327 289.216 90.3426 290.365C90.2749 291.537 90.3426 294.332 90.3426 294.332H100.261Z" fill="#233862"/>
<path d="M75.3087 132.689C75.3087 132.689 75.0832 139.09 74.2267 141.976L67.3516 146.507L93.229 150.158L87.0527 142.111C87.0527 142.111 85.1817 133.523 86.1736 130.322C87.1428 127.166 75.3087 132.689 75.3087 132.689Z" fill="#FFB27D"/>
<path d="M75.2891 133.59C75.2891 133.59 77.3403 138.234 81.1949 138.144C85.0494 138.031 85.9286 133.928 85.9286 133.928L75.2891 133.59Z" fill="#ED985F"/>
<path d="M72.9872 129.826C72.9872 129.826 71.7474 123.965 70.8683 122.184C69.9892 120.404 69.2679 112.469 78.893 112.063C78.893 112.063 82.5898 112.469 84.6185 111.32C84.6185 111.32 84.6185 112.492 84.1226 112.897C84.1226 112.897 87.4587 112.154 90.051 114.881C92.6658 117.609 88.3153 127.189 88.5407 129.443L72.9872 129.826Z" fill="#2C3A64"/>
<path d="M80.7392 136.34C77.9441 136.295 72.8047 132.779 72.8047 128.428V121.643C72.8047 120.066 73.9768 118.758 75.4195 118.758H86.0815C87.5242 118.758 88.6963 120.066 88.6963 121.643V128.045C88.6738 132.599 83.9401 136.385 80.7392 136.34Z" fill="#FFB27D"/>
<path d="M72.806 125.25C72.806 125.25 72.8285 121.17 76.2323 120.539C79.6585 119.908 87.3 122.523 88.4046 119.547C89.4865 116.572 73.6175 116.617 72.806 118.51C71.9945 120.449 72.806 125.25 72.806 125.25Z" fill="#2C3A64"/>
<path d="M61.5143 194.61C61.5143 194.61 62.5963 226.032 60.9733 243.975C59.3504 261.896 60.9959 286.849 60.9959 286.849C60.9959 286.849 66.2029 289.554 71.8608 286.849C71.8608 286.849 78.0597 252.203 78.0146 243.975C77.9695 235.207 84.7544 195.985 84.7544 195.985L61.5143 194.61Z" fill="#2B478B"/>
<path d="M100.04 286.849C100.04 286.849 94.8328 289.554 89.1749 286.849C89.1749 286.849 82.976 252.203 83.0211 243.975C83.0436 240.278 81.849 231.127 80.4514 221.817C78.5579 209.081 76.2812 195.985 76.2812 195.985L100.4 194.565C100.4 194.565 98.4168 226.055 100.04 243.975C101.685 261.896 100.04 286.849 100.04 286.849Z" fill="#2B478B"/>
<path d="M100.125 199.817C100.125 199.817 89.8458 201.688 80.4687 201.688C76.3661 201.688 71.9255 201.259 68.3865 200.809C64.4643 200.313 61.6692 199.794 61.6692 199.794C61.6692 199.794 59.5954 199.975 60.8126 190.259C61.7594 182.866 61.4663 176.193 61.2409 169.341C61.2184 168.575 61.2409 167.673 61.286 166.659C61.6917 158.656 64.2389 144.252 66.2 143.464C66.2 143.464 69.1078 142.449 74.2247 141.953C74.2247 142.043 77.2002 146.168 80.7392 146.619C82.9257 145.808 84.6613 145.109 87.0507 142.088C90.0938 142.427 93.4074 142.99 96.9689 143.892C96.9689 143.892 97.3296 145.425 98.7271 171.911C99.2907 182.415 103.078 199.862 100.125 199.817Z" fill="#F99746"/>
<path d="M83.015 243.953C83.0376 240.256 81.8429 231.104 80.4453 221.795C81.888 216.227 85.4044 210.885 85.4044 210.885C89.8676 222.674 83.015 243.953 83.015 243.953Z" fill="#233862"/>
<path d="M51.7301 175.021C51.4821 175.224 52.3387 177.208 53.601 179.823C56.1933 185.188 60.4987 193.1 60.4987 193.1C59.8675 195.331 59.1913 196.706 59.1913 196.706C51.9555 191.319 47.2669 186.743 44.2914 183.249C40.0988 178.313 39.2422 175.495 39.2422 175.495C55.3818 144.478 66.7201 143.328 66.7201 143.328L65.3676 163.841C65.3901 163.841 52.4739 174.435 51.7301 175.021Z" fill="#F99746"/>
<path d="M59.6414 193.505C59.6414 193.505 63.5411 190.079 65.1415 191.995C66.7419 193.911 67.035 196.909 65.7952 196.706C64.5554 196.503 62.0308 195.399 61.6701 195.962C61.3095 196.503 59.6865 197.563 59.1906 196.729C58.6947 195.895 59.6414 193.505 59.6414 193.505Z" fill="#FFB27D"/>
<path d="M60.4963 193.122C59.8651 195.354 59.1889 196.729 59.1889 196.729C51.9531 191.341 47.2645 186.765 44.2891 183.271C46.5432 183.114 49.8117 182.347 53.5986 179.845C56.1909 185.187 60.4963 193.122 60.4963 193.122Z" fill="#FFB27D"/>
<path d="M122.803 175.495C122.803 175.495 121.947 178.335 117.754 183.249C114.778 186.765 110.09 191.341 102.854 196.706C102.854 196.706 102.178 195.331 101.547 193.1C101.547 193.1 105.852 185.188 108.444 179.823C109.707 177.208 110.563 175.202 110.315 175.021C109.729 174.571 101.84 168.101 98.3233 165.216C97.3089 164.382 96.6552 163.841 96.6552 163.841L95.8438 143.644C95.8663 143.644 106.686 144.478 122.803 175.495Z" fill="#F99746"/>
<path d="M102.406 193.505C102.406 193.505 98.5062 190.079 96.9058 191.995C95.3053 193.911 95.0123 196.909 96.2521 196.706C97.4918 196.503 100.016 195.399 100.377 195.962C100.738 196.503 102.361 197.563 102.857 196.729C103.353 195.895 102.406 193.505 102.406 193.505Z" fill="#FFB27D"/>
<path d="M101.547 193.122C102.178 195.354 102.854 196.729 102.854 196.729C110.09 191.341 114.779 186.765 117.754 183.271C115.5 183.114 112.231 182.347 108.445 179.845C105.852 185.187 101.547 193.122 101.547 193.122Z" fill="#FFB27D"/>
<path d="M74.5902 140.42C74.5902 140.42 73.4406 140.871 73.125 142.111C73.125 142.111 77.7234 146.597 80.744 146.664L74.5902 140.42Z" fill="#2B478B"/>
<path d="M80.7422 146.642L86.6931 140.195C86.6931 140.195 87.9103 140.961 87.9103 142.224C87.9103 142.224 83.2894 146.822 80.7422 146.642Z" fill="#2B478B"/>
<path d="M79.6616 146.169C79.6616 146.169 75.1308 183.204 76.7087 187.712C77.5201 190.034 78.6021 192.04 79.4812 193.46C80.1124 194.475 81.6452 194.475 82.2764 193.46C83.4711 191.477 85.0489 188.614 85.0489 187.171C85.0489 184.827 81.6001 146.146 81.6001 146.146L79.6616 146.169Z" fill="#2B478B"/>
<path d="M78.4872 144.365C78.4872 144.365 81.2372 144.095 82.9053 144.275C83.2434 144.297 83.4237 144.658 83.2659 144.929C82.7926 145.718 81.8458 147.115 80.854 147.115C79.4114 147.093 77.2249 144.455 78.4872 144.365Z" fill="#2B478B"/>
<path d="M78.5078 131.967C78.5078 131.967 79.3869 133.072 80.8972 133.049C82.4075 133.004 83.1288 131.967 83.1288 131.967C83.1288 131.967 80.5816 131.562 78.5078 131.967Z" fill="white"/>
<path d="M418.55 63.4868H228.211V266.178H418.55V63.4868Z" fill="#CFDEFF"/>
<path d="M364.634 232.051H328.365C328.343 232.051 328.32 232.028 328.32 232.006V229.774C328.32 229.752 328.343 229.729 328.365 229.729H364.634C364.657 229.729 364.679 229.752 364.679 229.774V232.006C364.679 232.028 364.657 232.051 364.634 232.051Z" fill="#2B478B"/>
<path d="M373.627 226.686H328.342C328.319 226.686 328.297 226.663 328.297 226.641V224.387C328.297 224.364 328.319 224.342 328.342 224.342H373.627C373.65 224.342 373.673 224.364 373.673 224.387V226.641C373.695 226.663 373.673 226.686 373.627 226.686Z" fill="#2B478B"/>
<path d="M402.05 97.7045H244.734V208.382H402.05V97.7045Z" fill="#AEC3FF"/>
<path d="M281.857 91.4606H281.609V208.382H281.857V91.4606Z" fill="#1F1F89"/>
<path d="M380.365 91.4606H380.117V208.382H380.365V91.4606Z" fill="#1F1F89"/>
<path d="M298.584 91.4606H298.336V208.382H298.584V91.4606Z" fill="#1F1F89"/>
<path d="M402.05 187.689H244.734V187.937H402.05V187.689Z" fill="#1F1F89"/>
<path d="M402.05 164.517H244.734V164.765H402.05V164.517Z" fill="#1F1F89"/>
<path d="M402.05 141.367H244.734V141.615H402.05V141.367Z" fill="#1F1F89"/>
<path d="M402.05 118.195H244.734V118.443H402.05V118.195Z" fill="#1F1F89"/>
<path d="M402.05 77.6879H244.734V100.139H402.05V77.6879Z" fill="#F78248"/>
<path d="M387.198 247.154C383.659 248.236 380.187 248.799 377.46 248.596C373.312 248.281 370.968 246.207 370.878 242.826C370.81 240.121 371.982 237.776 374.304 235.86C374.281 235.68 374.259 235.5 374.259 235.297C374.101 233.403 374.529 232.141 375.544 231.532C377.167 230.586 379.579 231.893 379.669 231.938L379.128 232.817C378.587 232.524 376.986 231.871 376.107 232.389C375.341 232.84 375.251 234.08 375.318 235.094C377.212 233.809 379.669 232.75 382.689 231.983C384.921 231.42 387.401 231.036 389.632 230.856C389.655 230.608 389.655 230.405 389.7 230.225C389.767 229.752 389.948 229.211 390.421 229.098C390.601 229.053 390.962 229.053 391.278 229.526C391.481 229.819 391.593 230.248 391.593 230.743C392.36 230.721 393.081 230.743 393.712 230.789C393.712 230.766 393.735 230.766 393.735 230.743C393.577 229.549 393.69 228.151 393.892 227.25C394.163 226.077 394.614 225.491 395.222 225.446C395.606 225.424 395.921 225.604 396.056 225.942C396.395 226.731 395.763 228.873 394.817 230.901C395.696 231.037 396.304 231.262 396.485 231.6C396.62 231.848 396.642 232.209 396.259 232.547C395.538 233.178 394.974 233.02 394.704 232.862C394.479 232.727 394.276 232.524 394.14 232.254C393.419 233.584 392.653 234.733 392.044 235.207C391.481 235.657 390.985 235.477 390.804 235.387C390.714 235.342 390.624 235.274 390.534 235.184C390.286 235.748 390.015 236.289 389.722 236.762C388.618 238.61 387.355 239.557 386.093 239.512C385.575 239.489 385.124 239.287 384.741 238.948C384.042 240.369 383.163 241.721 382.306 242.735C381.427 243.772 380.3 244.156 379.128 243.795C377.054 243.186 375.183 240.369 374.484 237.01C372.726 238.633 371.87 240.571 371.915 242.781C372.005 245.688 373.876 247.289 377.505 247.582C386.679 248.303 402.774 240.256 403.991 234.328C403.044 239.129 395.425 244.629 387.198 247.154ZM375.454 236.221C376.017 239.76 377.888 242.352 379.466 242.803C380.21 243.028 380.886 242.781 381.495 242.059C382.532 240.865 383.411 239.377 384.064 237.912C383.884 237.528 383.726 237.1 383.614 236.604C383.366 235.432 383.321 233.854 383.614 232.75C381.9 233.155 380.187 233.696 378.587 234.395C377.392 234.959 376.355 235.567 375.454 236.221ZM385.259 237.889C385.485 238.227 385.8 238.475 386.206 238.498C387.017 238.52 387.987 237.709 388.866 236.266C389.317 235.5 389.7 234.688 389.97 233.922C389.79 233.291 389.7 232.547 389.677 231.871C388.505 231.961 387.22 232.118 385.89 232.344C386.544 233.606 386.138 235.748 385.259 237.889ZM391.052 233.922C391.21 234.395 391.368 234.485 391.368 234.485C391.954 234.012 392.653 232.952 393.261 231.758C392.765 231.735 392.179 231.735 391.571 231.758C391.481 232.434 391.3 233.178 391.052 233.922ZM384.808 232.637C384.538 233.178 384.335 234.869 384.673 236.401C385.214 234.733 385.304 233.291 384.808 232.637ZM395.132 226.821C395.042 227.069 394.952 227.452 394.884 227.881C394.997 227.475 395.087 227.114 395.132 226.821Z" fill="#F77D48"/>
<path d="M256.977 84.9239H258.374V92.926H256.977V84.9239Z" fill="#EBF3FA"/>
<path d="M260.539 84.9239H261.846L266.129 90.469V84.9239H267.504V92.926H266.332L261.914 87.2231V92.926H260.539V84.9239Z" fill="#EBF3FA"/>
<path d="M268.875 84.9239H270.43L272.842 91.0776L275.254 84.9239H276.787L273.451 92.9936H272.211L268.875 84.9239Z" fill="#EBF3FA"/>
<path d="M277.312 88.9361C277.312 86.682 279.048 84.7885 281.505 84.7885C283.962 84.7885 285.675 86.6595 285.675 88.9361C285.675 91.1903 283.94 93.0837 281.483 93.0837C279.026 93.0837 277.312 91.2128 277.312 88.9361ZM284.21 88.9361C284.21 87.3808 283.083 86.0959 281.483 86.0959C279.882 86.0959 278.778 87.3583 278.778 88.9361C278.778 90.4915 279.905 91.7764 281.505 91.7764C283.106 91.7764 284.21 90.514 284.21 88.9361Z" fill="#EBF3FA"/>
<path d="M287.477 84.9239H288.874V92.926H287.477V84.9239Z" fill="#EBF3FA"/>
<path d="M290.656 88.9361C290.656 86.6595 292.369 84.7885 294.781 84.7885C296.247 84.7885 297.148 85.307 297.915 86.0283L297.013 87.0652C296.382 86.4791 295.683 86.0734 294.759 86.0734C293.226 86.0734 292.121 87.3357 292.121 88.9136C292.121 90.4915 293.226 91.7538 294.759 91.7538C295.751 91.7538 296.382 91.3481 297.058 90.7169L297.96 91.6411C297.126 92.5202 296.201 93.0612 294.714 93.0612C292.392 93.0612 290.656 91.2579 290.656 88.9361Z" fill="#EBF3FA"/>
<path d="M299.469 84.9239H305.397V86.1862H300.866V88.26H304.879V89.5223H300.866V91.6637H305.465V92.926H299.469V84.9239V84.9239Z" fill="#EBF3FA"/>
<path d="M216.196 293.837L135.791 293.341C132.207 293.318 129.321 290.388 129.344 286.804L129.862 202.296C129.885 198.712 132.815 195.827 136.399 195.849L216.804 196.345C220.388 196.368 223.274 199.298 223.251 202.882L222.733 287.39C222.71 290.974 219.78 293.859 216.196 293.837Z" fill="#F77D48"/>
<path d="M214.981 218.481L137.957 218.008C136.379 218.008 135.117 216.723 135.117 215.145L135.185 205.362C135.185 203.784 136.47 202.522 138.048 202.522L215.071 202.995C216.649 202.995 217.911 204.28 217.911 205.858L217.844 215.641C217.844 217.219 216.559 218.503 214.981 218.481Z" fill="#AEC3FF"/>
<path d="M163.713 256.148L157.108 256.102C155.463 256.102 154.133 254.75 154.133 253.104L154.178 246.5C154.178 244.854 155.53 243.524 157.176 243.524L163.78 243.569C165.426 243.569 166.756 244.922 166.756 246.567L166.711 253.172C166.711 254.818 165.358 256.148 163.713 256.148Z" fill="#2B478B"/>
<path d="M163.627 271.566L157.022 271.521C155.377 271.521 154.047 270.168 154.047 268.523L154.092 261.918C154.092 260.273 155.444 258.943 157.09 258.943L163.695 258.988C165.34 258.988 166.67 260.34 166.67 261.986L166.625 268.59C166.625 270.236 165.272 271.566 163.627 271.566Z" fill="#2B478B"/>
<path d="M163.533 286.984L156.929 286.939C155.283 286.939 153.953 285.586 153.953 283.941L153.998 277.336C153.998 275.691 155.351 274.361 156.996 274.361L163.601 274.406C165.246 274.406 166.576 275.758 166.576 277.404L166.531 284.009C166.509 285.654 165.179 286.984 163.533 286.984Z" fill="#2B478B"/>
<path d="M180.33 256.238L173.725 256.193C172.08 256.193 170.75 254.84 170.75 253.195L170.795 246.59C170.795 244.945 172.148 243.615 173.793 243.615L180.398 243.66C182.043 243.66 183.373 245.012 183.373 246.658L183.328 253.262C183.306 254.93 181.976 256.26 180.33 256.238Z" fill="#2B478B"/>
<path d="M180.213 271.656L173.608 271.611C171.963 271.611 170.633 270.259 170.633 268.613L170.678 262.008C170.678 260.363 172.03 259.033 173.676 259.033L180.281 259.078C181.926 259.078 183.256 260.431 183.256 262.076L183.233 268.703C183.211 270.349 181.881 271.679 180.213 271.656Z" fill="#2B478B"/>
<path d="M180.127 287.074L173.522 287.029C171.877 287.029 170.547 285.677 170.547 284.031L170.592 277.427C170.592 275.781 171.944 274.451 173.59 274.451L180.195 274.496C181.84 274.496 183.17 275.849 183.17 277.494L183.125 284.099C183.125 285.767 181.772 287.097 180.127 287.074Z" fill="#2B478B"/>
<path d="M196.244 271.769L189.64 271.724C187.994 271.724 186.664 270.371 186.664 268.726L186.709 262.121C186.709 260.475 188.062 259.146 189.707 259.146L196.312 259.191C197.957 259.191 199.287 260.543 199.287 262.189L199.242 268.793C199.22 270.439 197.89 271.769 196.244 271.769Z" fill="#2B478B"/>
<path d="M196.127 287.187L189.522 287.142C187.877 287.142 186.547 285.789 186.547 284.144L186.592 277.539C186.592 275.894 187.944 274.564 189.59 274.564L196.195 274.609C197.84 274.609 199.17 275.961 199.17 277.607L199.125 284.212C199.125 285.857 197.772 287.187 196.127 287.187Z" fill="#2B478B"/>
<path d="M147.978 237.957L141.374 237.912C139.728 237.912 138.398 236.559 138.398 234.914L138.421 230.991C138.421 229.346 139.773 228.016 141.419 228.016L148.024 228.061C149.669 228.061 150.999 229.413 150.999 231.059L150.977 234.981C150.954 236.627 149.624 237.957 147.978 237.957Z" fill="#F99746"/>
<path d="M147.869 254.119L141.265 254.074C139.619 254.074 138.289 252.721 138.289 251.076L138.312 247.154C138.312 245.508 139.664 244.178 141.31 244.178L147.914 244.223C149.56 244.223 150.89 245.576 150.89 247.221L150.867 251.143C150.867 252.789 149.515 254.119 147.869 254.119Z" fill="#F99746"/>
<path d="M147.775 270.281L141.171 270.236C139.525 270.236 138.195 268.883 138.195 267.238L138.218 263.316C138.218 261.67 139.57 260.34 141.216 260.34L147.82 260.385C149.466 260.385 150.796 261.738 150.796 263.383L150.773 267.306C150.751 268.951 149.421 270.281 147.775 270.281Z" fill="#F99746"/>
<path d="M147.666 286.443L141.061 286.398C139.416 286.398 138.086 285.046 138.086 283.4L138.108 279.478C138.108 277.832 139.461 276.502 141.106 276.502L147.711 276.548C149.357 276.548 150.687 277.9 150.687 279.546L150.664 283.468C150.664 285.113 149.312 286.443 147.666 286.443Z" fill="#F99746"/>
<path d="M163.83 240.729L157.225 240.684C155.58 240.684 154.25 239.332 154.25 237.686L154.295 231.082C154.295 229.436 155.648 228.106 157.293 228.106L163.898 228.151C165.543 228.151 166.873 229.504 166.873 231.149L166.828 237.754C166.806 239.422 165.476 240.729 163.83 240.729Z" fill="#F99746"/>
<path d="M180.416 240.842L173.811 240.797C172.166 240.797 170.836 239.444 170.836 237.799L170.881 231.194C170.881 229.549 172.233 228.219 173.879 228.219L180.484 228.264C182.129 228.264 183.459 229.616 183.459 231.262L183.414 237.867C183.414 239.512 182.062 240.842 180.416 240.842Z" fill="#F99746"/>
<path d="M196.424 240.932L189.819 240.887C188.174 240.887 186.844 239.535 186.844 237.889L186.889 231.285C186.889 229.639 188.241 228.309 189.887 228.309L196.491 228.354C198.137 228.354 199.467 229.707 199.467 231.352L199.422 237.957C199.422 239.625 198.069 240.932 196.424 240.932Z" fill="#F99746"/>
<path d="M211.369 256.508L204.765 256.463C203.119 256.463 201.789 255.111 201.789 253.465L201.834 246.861C201.834 245.215 203.187 243.885 204.832 243.885L211.437 243.93C213.082 243.93 214.412 245.283 214.412 246.928L214.367 253.533C214.367 255.201 213.015 256.531 211.369 256.508Z" fill="#F99746"/>
<path d="M211.478 241.09L204.874 241.045C203.228 241.045 201.898 239.693 201.898 238.047L201.944 231.442C201.944 229.797 203.296 228.467 204.942 228.467L211.546 228.512C213.192 228.512 214.522 229.865 214.522 231.51L214.476 238.115C214.454 239.783 213.124 241.113 211.478 241.09Z" fill="#F99746"/>
<path d="M211.189 287.345L204.585 287.3C202.939 287.3 201.609 285.947 201.609 284.302L201.745 262.301C201.745 260.656 203.097 259.326 204.743 259.326L211.347 259.371C212.993 259.371 214.323 260.724 214.323 262.369L214.187 284.369C214.187 286.037 212.835 287.345 211.189 287.345Z" fill="#F99746"/>
<path d="M162.14 210.276L162.162 208.157L162.478 207.345C162.748 207.413 162.906 207.593 162.974 207.841L162.951 210.659L162.748 210.862L162.14 210.276ZM162.726 211.087L162.929 211.29L162.906 214.108C162.839 214.378 162.658 214.536 162.41 214.604L162.117 213.792L162.14 211.673L162.726 211.087Z" fill="#2B478B"/>
<path d="M165.677 208.405L165.654 210.321L165.046 210.93L164.843 210.727L164.865 208.112L165.677 208.405ZM164.82 213.928L164.843 211.313L165.046 211.11L165.654 211.719L165.632 213.635L164.82 213.928ZM168.337 214.649L165.316 214.626C165.046 214.559 164.888 214.378 164.82 214.131L165.632 213.837L168.044 213.86L168.337 214.649ZM168.089 208.202L165.677 208.18L164.865 207.864C164.933 207.594 165.113 207.436 165.361 207.368L168.359 207.391L168.089 208.202ZM168.269 210.321L168.292 208.202L168.607 207.391C168.878 207.458 169.036 207.639 169.103 207.887L169.081 210.704L168.878 210.907L168.269 210.321ZM168.878 211.133L169.081 211.335L169.058 214.153C168.99 214.424 168.81 214.581 168.562 214.649L168.269 213.837L168.292 211.719L168.878 211.133Z" fill="#2B478B"/>
<path d="M171.811 208.427L171.788 210.343L171.179 210.952L170.977 210.749L170.999 208.134L171.811 208.427ZM170.977 213.95L170.999 211.335L171.202 211.132L171.811 211.741L171.788 213.657L170.977 213.95ZM174.493 214.694L171.472 214.671C171.202 214.604 171.044 214.423 170.977 214.175L171.788 213.882L174.2 213.905L174.493 214.694ZM174.223 208.247L171.811 208.225L170.999 207.909C171.067 207.638 171.247 207.481 171.495 207.413L174.493 207.436L174.223 208.247ZM174.403 210.366L174.425 208.247L174.741 207.436C175.011 207.503 175.169 207.684 175.237 207.931L175.214 210.749L175.011 210.952L174.403 210.366ZM175.011 211.177L175.214 211.38L175.192 214.198C175.124 214.468 174.944 214.626 174.696 214.694L174.403 213.882L174.425 211.764L175.011 211.177Z" fill="#2B478B"/>
<path d="M177.943 208.472L177.921 210.389L177.312 210.997L177.109 210.794L177.132 208.179L177.943 208.472ZM177.109 213.995L177.132 211.38L177.335 211.177L177.943 211.786L177.921 213.702L177.109 213.995ZM180.626 214.716L177.605 214.694C177.335 214.626 177.177 214.446 177.109 214.198L177.921 213.905L180.333 213.927L180.626 214.716ZM180.355 208.292L177.943 208.27L177.132 207.954C177.2 207.684 177.38 207.526 177.628 207.458L180.626 207.481L180.355 208.292ZM180.558 210.389L180.581 208.27L180.896 207.458C181.167 207.526 181.325 207.706 181.392 207.954L181.37 210.772L181.167 210.975L180.558 210.389ZM181.144 211.2L181.347 211.403L181.325 214.221C181.257 214.491 181.077 214.649 180.829 214.716L180.536 213.927L180.558 211.809L181.144 211.2Z" fill="#2B478B"/>
<path d="M184.076 208.518L184.054 210.434L183.445 211.042L183.242 210.839L183.265 208.225L184.076 208.518ZM183.242 214.04L183.265 211.425L183.468 211.223L184.076 211.831L184.054 213.747L183.242 214.04ZM186.759 214.762L183.738 214.739C183.468 214.671 183.31 214.491 183.242 214.243L184.054 213.95L186.466 213.973L186.759 214.762ZM186.511 208.315L184.099 208.292L183.287 207.977C183.355 207.706 183.535 207.548 183.783 207.481L186.781 207.503L186.511 208.315ZM186.691 210.434L186.714 208.315L187.029 207.503C187.3 207.571 187.457 207.751 187.525 207.999L187.503 210.817L187.3 211.02L186.691 210.434ZM187.277 211.245L187.48 211.448L187.457 214.266C187.39 214.536 187.209 214.694 186.962 214.762L186.668 213.95L186.691 211.831L187.277 211.245Z" fill="#2B478B"/>
<path d="M190.224 208.54L190.201 210.456L189.593 211.065L189.39 210.862L189.412 208.247L190.224 208.54ZM189.367 214.085L189.39 211.471L189.593 211.268L190.201 211.876L190.179 213.792L189.367 214.085ZM192.884 214.807L189.863 214.784C189.593 214.716 189.435 214.536 189.367 214.288L190.179 213.995L192.591 214.018L192.884 214.807ZM192.636 208.36L190.224 208.337L189.412 208.022C189.48 207.751 189.66 207.593 189.908 207.526L192.906 207.548L192.636 208.36ZM192.816 210.479L192.839 208.36L193.154 207.548C193.425 207.616 193.582 207.796 193.65 208.044L193.627 210.862L193.425 211.065L192.816 210.479ZM193.425 211.29L193.627 211.493L193.605 214.311C193.537 214.581 193.357 214.739 193.109 214.807L192.816 213.995L192.839 211.876L193.425 211.29Z" fill="#2B478B"/>
<path d="M196.357 208.585L196.335 210.501L195.726 211.11L195.523 210.907L195.546 208.292L196.357 208.585ZM195.523 214.108L195.546 211.493L195.749 211.29L196.357 211.899L196.335 213.815L195.523 214.108ZM199.04 214.829L196.019 214.807C195.749 214.739 195.591 214.559 195.523 214.311L196.335 214.018L198.747 214.04L199.04 214.829ZM198.769 208.405L196.357 208.382L195.546 208.067C195.614 207.796 195.794 207.639 196.042 207.571L199.04 207.593L198.769 208.405ZM198.95 210.524L198.972 208.405L199.288 207.593C199.558 207.661 199.716 207.841 199.784 208.089L199.761 210.907L199.558 211.11L198.95 210.524ZM199.558 211.313L199.761 211.516L199.739 214.333C199.671 214.604 199.491 214.762 199.243 214.829L198.95 214.018L198.972 211.899L199.558 211.313Z" fill="#2B478B"/>
<path d="M202.49 208.63L202.468 210.546L201.859 211.155L201.656 210.952L201.679 208.337L202.49 208.63ZM201.656 214.153L201.679 211.538L201.882 211.335L202.49 211.944L202.468 213.86L201.656 214.153ZM205.173 214.874L202.152 214.852C201.882 214.784 201.724 214.604 201.656 214.356L202.468 214.063L204.88 214.085L205.173 214.874ZM204.902 208.427L202.49 208.405L201.679 208.089C201.746 207.819 201.927 207.661 202.175 207.593L205.173 207.616L204.902 208.427ZM205.105 210.546L205.128 208.427L205.443 207.616C205.714 207.683 205.871 207.864 205.939 208.112L205.917 210.929L205.714 211.132L205.105 210.546ZM205.691 211.358L205.894 211.561L205.871 214.378C205.804 214.649 205.624 214.806 205.376 214.874L205.083 214.063L205.105 211.944L205.691 211.358Z" fill="#2B478B"/>
<path d="M208.623 208.653L208.601 210.569L207.992 211.177L207.789 210.974L207.812 208.36L208.623 208.653ZM207.789 214.198L207.812 211.583L208.014 211.38L208.623 211.989L208.601 213.905L207.789 214.198ZM211.306 214.919L208.285 214.897C208.014 214.829 207.857 214.649 207.789 214.401L208.601 214.108L211.012 214.13L211.306 214.919ZM211.035 208.472L208.623 208.45L207.812 208.134C207.879 207.864 208.06 207.706 208.308 207.638L211.306 207.661L211.035 208.472ZM211.238 210.591L211.26 208.472L211.576 207.661C211.846 207.729 212.004 207.909 212.072 208.157L212.049 210.974L211.847 211.177L211.238 210.591ZM211.824 211.403L212.027 211.606L212.004 214.423C211.937 214.694 211.756 214.852 211.508 214.919L211.215 214.108L211.238 211.989L211.824 211.403Z" fill="#2B478B"/>
<path d="M295.992 288.968V292.236C295.992 292.507 295.902 292.732 295.744 292.935C295.563 293.138 295.338 293.318 295.045 293.408C294.955 293.431 294.865 293.453 294.775 293.476C294.684 293.498 294.594 293.498 294.504 293.498H232.448C231.704 293.498 231.073 293.025 230.96 292.416C230.96 292.371 230.938 292.326 230.938 292.281C230.938 292.259 230.938 292.236 230.938 292.214V288.945C230.938 288.923 230.938 288.9 230.938 288.877C230.938 288.832 230.937 288.787 230.96 288.742C231.073 288.134 231.704 287.66 232.448 287.66H294.504C294.594 287.66 294.684 287.66 294.775 287.683C294.865 287.705 294.955 287.728 295.045 287.75C295.338 287.841 295.586 288.021 295.744 288.224C295.902 288.472 295.992 288.72 295.992 288.968Z" fill="#FFB93E"/>
<path d="M265.515 293.498H232.267C231.658 293.498 231.139 293.093 230.982 292.574C230.959 292.529 230.959 292.484 230.937 292.439C230.937 292.394 230.914 292.349 230.914 292.304C230.914 292.281 230.914 292.258 230.914 292.236V288.967C230.914 288.945 230.914 288.922 230.914 288.9C230.914 288.855 230.914 288.81 230.937 288.765C230.937 288.72 230.959 288.674 230.982 288.629C231.139 288.088 231.658 287.705 232.267 287.705H261.435C261.908 289.418 262.99 291.785 265.515 293.498Z" fill="#FFA412"/>
<path d="M288.441 287.705H287.742V293.498H288.441V287.705Z" fill="#FFA412"/>
<path d="M286.05 287.705H285.352V293.498H286.05V287.705Z" fill="#FFA412"/>
<path d="M283.191 287.705H282.492V293.498H283.191V287.705Z" fill="#FFA412"/>
<path d="M278.793 287.705H278.094V293.498H278.793V287.705Z" fill="#FFA412"/>
<path d="M274.152 287.705H273.453V293.498H274.152V287.705Z" fill="#FFA412"/>
<path d="M267.05 287.705H266.352V293.498H267.05V287.705Z" fill="#FFA412"/>
<path d="M260.378 287.705H259.68V293.498H260.378V287.705Z" fill="#FFA412"/>
<path d="M254.425 287.705H253.727V293.498H254.425V287.705Z" fill="#FFA412"/>
<path d="M290.714 287.705H290.016V293.498H290.714V287.705Z" fill="#FFA412"/>
<path d="M292.207 287.705H291.508V293.498H292.207V287.705Z" fill="#FFA412"/>
<path d="M293.644 287.705H292.945V293.498H293.644V287.705Z" fill="#FFA412"/>
<path d="M294.753 287.728V293.476C294.662 293.499 294.572 293.498 294.482 293.498H294.031V287.705H294.482C294.572 287.705 294.662 287.728 294.753 287.728Z" fill="#FFA412"/>
<path d="M295.746 288.269V292.958C295.565 293.16 295.34 293.341 295.047 293.431V287.818C295.317 287.886 295.565 288.066 295.746 288.269Z" fill="#FFA412"/>
<path d="M289.367 283.175V286.443C289.367 286.714 289.277 286.939 289.119 287.142C289.074 287.187 289.029 287.255 288.984 287.3C288.826 287.435 288.645 287.548 288.42 287.615C288.33 287.638 288.24 287.66 288.15 287.683C288.059 287.705 287.969 287.705 287.879 287.705H225.823C225.079 287.705 224.448 287.232 224.335 286.623C224.335 286.578 224.313 286.533 224.313 286.511C224.313 286.488 224.313 286.466 224.313 286.443V283.175C224.313 283.152 224.313 283.13 224.313 283.107C224.313 283.062 224.312 283.017 224.335 282.994C224.448 282.386 225.079 281.912 225.823 281.912H287.879C287.924 281.912 287.969 281.912 287.992 281.912C288.014 281.912 288.014 281.912 288.037 281.912C288.059 281.912 288.082 281.912 288.082 281.912C288.104 281.912 288.104 281.912 288.127 281.912C288.217 281.935 288.307 281.957 288.397 281.98C288.443 282.002 288.51 282.025 288.555 282.048C288.578 282.07 288.623 282.07 288.645 282.093C288.668 282.093 288.691 282.115 288.691 282.115L288.736 282.138C288.803 282.183 288.871 282.228 288.916 282.273C288.938 282.295 288.961 282.295 288.961 282.318C288.984 282.318 288.984 282.341 288.984 282.341L289.006 282.363L289.029 282.386C289.051 282.408 289.074 282.431 289.074 282.453C289.254 282.679 289.367 282.927 289.367 283.175Z" fill="#FFB93E"/>
<path d="M258.89 287.705H225.642C225.033 287.705 224.514 287.3 224.357 286.759C224.334 286.713 224.334 286.668 224.312 286.623C224.312 286.578 224.289 286.533 224.289 286.511C224.289 286.488 224.289 286.466 224.289 286.443V283.174C224.289 283.152 224.289 283.129 224.289 283.107C224.289 283.062 224.289 283.017 224.312 282.994C224.312 282.949 224.334 282.904 224.357 282.859C224.514 282.318 225.033 281.912 225.642 281.912H254.81C254.833 281.957 254.833 282.002 254.855 282.047C255.328 283.761 256.433 286.037 258.89 287.705Z" fill="#FFA412"/>
<path d="M281.793 281.912H281.094V287.705H281.793V281.912Z" fill="#FFA412"/>
<path d="M279.402 281.912H278.703V287.705H279.402V281.912Z" fill="#FFA412"/>
<path d="M276.543 281.912H275.844V287.705H276.543V281.912Z" fill="#FFA412"/>
<path d="M272.168 281.912H271.469V287.705H272.168V281.912Z" fill="#FFA412"/>
<path d="M267.527 281.912H266.828V287.705H267.527V281.912Z" fill="#FFA412"/>
<path d="M260.402 281.912H259.703V287.705H260.402V281.912Z" fill="#FFA412"/>
<path d="M253.753 281.912H253.055V287.705H253.753V281.912Z" fill="#FFA412"/>
<path d="M247.8 281.912H247.102V287.705H247.8V281.912Z" fill="#FFA412"/>
<path d="M284.066 281.912H283.367V287.705H284.066V281.912Z" fill="#FFA412"/>
<path d="M285.582 281.912H284.883V287.705H285.582V281.912Z" fill="#FFA412"/>
<path d="M287.019 281.912H286.32V287.705H287.019V281.912Z" fill="#FFA412"/>
<path d="M288.128 281.935V287.683C288.037 287.705 287.947 287.705 287.857 287.705H287.406V281.912H287.857C287.947 281.912 288.037 281.935 288.128 281.935Z" fill="#FFA412"/>
<path d="M289.097 282.476V287.164C288.917 287.367 288.691 287.547 288.398 287.638V282.002C288.691 282.092 288.939 282.273 289.097 282.476Z" fill="#FFA412"/>
<path d="M292.569 277.539V280.808C292.569 281.078 292.479 281.303 292.321 281.506C292.141 281.709 291.915 281.89 291.622 281.98C291.532 282.002 291.442 282.025 291.352 282.047C291.262 282.07 291.171 282.07 291.081 282.07H229.002C228.755 282.07 228.529 282.025 228.304 281.935C227.898 281.754 227.582 281.416 227.515 281.01C227.515 280.988 227.515 280.965 227.492 280.92C227.492 280.898 227.492 280.875 227.492 280.853C227.492 280.83 227.492 280.808 227.492 280.785V277.517C227.492 277.494 227.492 277.471 227.492 277.449C227.492 277.404 227.492 277.359 227.515 277.336C227.627 276.728 228.259 276.254 229.002 276.254H291.059C291.149 276.254 291.239 276.254 291.329 276.277C291.419 276.299 291.51 276.322 291.6 276.344C291.893 276.435 292.141 276.615 292.299 276.818C292.479 277.021 292.569 277.269 292.569 277.539Z" fill="#FFB93E"/>
<path d="M262.094 282.07H228.846C228.62 282.07 228.417 282.025 228.237 281.935C227.876 281.754 227.606 281.416 227.538 281.01C227.538 280.988 227.538 280.965 227.516 280.92C227.516 280.898 227.516 280.875 227.516 280.853C227.516 280.83 227.516 280.807 227.516 280.785V277.516C227.516 277.494 227.516 277.471 227.516 277.449C227.516 277.404 227.516 277.359 227.538 277.336C227.538 277.291 227.561 277.246 227.583 277.201C227.741 276.66 228.259 276.254 228.868 276.254H258.037C258.487 277.922 259.524 280.199 261.914 281.912C261.959 281.98 262.026 282.025 262.094 282.07Z" fill="#FFA412"/>
<path d="M285.019 276.277H284.32V282.07H285.019V276.277Z" fill="#FFA412"/>
<path d="M282.628 276.277H281.93V282.07H282.628V276.277Z" fill="#FFA412"/>
<path d="M279.769 276.277H279.07V282.07H279.769V276.277Z" fill="#FFA412"/>
<path d="M275.371 276.277H274.672V282.07H275.371V276.277Z" fill="#FFA412"/>
<path d="M270.73 276.277H270.031V282.07H270.73V276.277Z" fill="#FFA412"/>
<path d="M263.628 276.277H262.93V282.07H263.628V276.277Z" fill="#FFA412"/>
<path d="M256.957 276.277H256.258V282.07H256.957V276.277Z" fill="#FFA412"/>
<path d="M251.003 276.277H250.305V282.07H251.003V276.277Z" fill="#FFA412"/>
<path d="M287.269 276.277H286.57V282.07H287.269V276.277Z" fill="#FFA412"/>
<path d="M288.785 276.277H288.086V282.07H288.785V276.277Z" fill="#FFA412"/>
<path d="M290.222 276.277H289.523V282.07H290.222V276.277Z" fill="#FFA412"/>
<path d="M291.331 276.299V282.047C291.241 282.07 291.15 282.07 291.06 282.07H290.609V276.277H291.06C291.15 276.277 291.241 276.277 291.331 276.299Z" fill="#FFA412"/>
<path d="M292.3 276.818V281.506C292.12 281.709 291.895 281.89 291.602 281.98V276.367C291.895 276.457 292.143 276.615 292.3 276.818Z" fill="#FFA412"/>
<path d="M294.054 271.746V275.014C294.054 275.285 293.964 275.51 293.806 275.713C293.784 275.736 293.761 275.758 293.739 275.781C293.626 275.916 293.468 276.006 293.31 276.096C293.243 276.119 293.175 276.164 293.108 276.187C293.017 276.209 292.927 276.232 292.837 276.254C292.792 276.254 292.747 276.277 292.702 276.277C292.657 276.277 292.612 276.277 292.567 276.277H230.51C229.766 276.277 229.135 275.803 229.023 275.195C229.023 275.15 229 275.105 229 275.082V271.678C229.045 271.07 229.609 270.574 230.33 270.484C230.398 270.484 230.443 270.484 230.51 270.484H292.567C292.612 270.484 292.657 270.484 292.702 270.484C292.747 270.484 292.792 270.484 292.837 270.506C292.927 270.529 293.017 270.551 293.108 270.574C293.401 270.664 293.649 270.844 293.806 271.047C293.964 271.227 294.054 271.475 294.054 271.746Z" fill="#FFB93E"/>
<path d="M263.577 276.277H230.329C229.72 276.277 229.202 275.871 229.044 275.353C229.022 275.307 229.022 275.262 228.999 275.217C228.999 275.172 228.977 275.127 228.977 275.105V271.701C229.022 271.092 229.518 270.596 230.149 270.506C230.194 270.506 230.261 270.506 230.306 270.506H259.475C259.971 272.197 261.053 274.541 263.577 276.277Z" fill="#FFA412"/>
<path d="M286.503 270.483H285.805V276.277H286.503V270.483Z" fill="#FFA412"/>
<path d="M284.113 270.483H283.414V276.277H284.113V270.483Z" fill="#FFA412"/>
<path d="M281.253 270.483H280.555V276.277H281.253V270.483Z" fill="#FFA412"/>
<path d="M276.855 270.483H276.156V276.277H276.855V270.483Z" fill="#FFA412"/>
<path d="M272.214 270.483H271.516V276.277H272.214V270.483Z" fill="#FFA412"/>
<path d="M265.089 270.483H264.391V276.277H265.089V270.483Z" fill="#FFA412"/>
<path d="M258.441 270.483H257.742V276.277H258.441V270.483Z" fill="#FFA412"/>
<path d="M252.488 270.484H251.789V276.277H252.488V270.484Z" fill="#FFA412"/>
<path d="M288.753 270.483H288.055V276.277H288.753V270.483Z" fill="#FFA412"/>
<path d="M290.269 270.483H289.57V276.277H290.269V270.483Z" fill="#FFA412"/>
<path d="M291.707 270.483H291.008V276.277H291.707V270.483Z" fill="#FFA412"/>
<path d="M292.815 270.506V276.254C292.725 276.277 292.635 276.277 292.545 276.277H292.094V270.483H292.545C292.635 270.483 292.725 270.483 292.815 270.506Z" fill="#FFA412"/>
<path d="M293.785 271.025V275.713C293.604 275.916 293.379 276.096 293.086 276.186V270.574C293.379 270.664 293.627 270.822 293.785 271.025Z" fill="#FFA412"/>
<path d="M289.475 265.953V269.221C289.475 269.492 289.385 269.717 289.227 269.92C289.047 270.123 288.822 270.303 288.528 270.393C288.438 270.416 288.348 270.438 288.258 270.461C288.235 270.461 288.19 270.461 288.168 270.483H288.145C288.123 270.483 288.123 270.483 288.1 270.483C288.078 270.483 288.078 270.483 288.055 270.483C288.033 270.483 288.01 270.483 287.965 270.483H225.909C225.097 270.483 224.444 269.942 224.398 269.289C224.398 269.266 224.398 269.244 224.398 269.221V265.953C224.398 265.93 224.398 265.907 224.398 265.885C224.398 265.862 224.398 265.84 224.398 265.84C224.466 265.299 224.917 264.871 225.526 264.735C225.548 264.735 225.548 264.735 225.571 264.735C225.683 264.713 225.773 264.713 225.886 264.713H287.942C287.988 264.713 288.033 264.713 288.078 264.713C288.1 264.713 288.123 264.713 288.123 264.713C288.145 264.713 288.168 264.713 288.19 264.713C288.281 264.735 288.371 264.758 288.461 264.78C288.754 264.871 289.002 265.051 289.16 265.254C289.385 265.457 289.475 265.682 289.475 265.953Z" fill="#FFB93E"/>
<path d="M259.024 270.484H225.775C225.054 270.484 224.468 269.943 224.445 269.289C224.445 269.267 224.445 269.244 224.445 269.221V265.953C224.445 265.93 224.445 265.908 224.445 265.885C224.445 265.863 224.445 265.84 224.445 265.84C224.49 265.299 224.919 264.848 225.482 264.736C225.505 264.736 225.527 264.736 225.527 264.713C225.595 264.691 225.685 264.691 225.775 264.691H254.921C254.921 264.713 254.921 264.713 254.944 264.736C255.417 266.426 256.499 268.771 259.024 270.484C259.001 270.484 259.001 270.484 259.024 270.484Z" fill="#FFA412"/>
<path d="M281.925 264.691H281.227V270.484H281.925V264.691Z" fill="#FFA412"/>
<path d="M279.535 264.691H278.836V270.484H279.535V264.691Z" fill="#FFA412"/>
<path d="M276.675 264.691H275.977V270.484H276.675V264.691Z" fill="#FFA412"/>
<path d="M272.3 264.691H271.602V270.484H272.3V264.691Z" fill="#FFA412"/>
<path d="M267.66 264.691H266.961V270.484H267.66V264.691Z" fill="#FFA412"/>
<path d="M260.535 264.691H259.836V270.484H260.535V264.691Z" fill="#FFA412"/>
<path d="M253.886 264.691H253.188V270.484H253.886V264.691Z" fill="#FFA412"/>
<path d="M247.933 264.691H247.234V270.484H247.933V264.691Z" fill="#FFA412"/>
<path d="M284.199 264.691H283.5V270.484H284.199V264.691Z" fill="#FFA412"/>
<path d="M285.714 264.691H285.016V270.484H285.714V264.691Z" fill="#FFA412"/>
<path d="M287.152 264.691H286.453V270.484H287.152V264.691Z" fill="#FFA412"/>
<path d="M288.26 264.713V270.461C288.17 270.484 288.08 270.484 287.99 270.484H287.539V264.691H287.99C288.08 264.691 288.17 264.691 288.26 264.713Z" fill="#FFA412"/>
<path d="M289.23 265.254V269.943C289.05 270.146 288.824 270.326 288.531 270.416V264.803C288.824 264.871 289.05 265.029 289.23 265.254Z" fill="#FFA412"/>
<path d="M289.368 260.205V263.473C289.368 263.744 289.277 263.969 289.12 264.172C289.075 264.217 289.03 264.285 288.984 264.33C288.827 264.465 288.646 264.578 288.421 264.645C288.353 264.668 288.286 264.69 288.218 264.69C288.195 264.69 288.173 264.69 288.173 264.69C288.083 264.713 287.993 264.713 287.902 264.713H225.846C225.779 264.713 225.711 264.713 225.643 264.69C225.621 264.69 225.598 264.69 225.576 264.69C224.945 264.6 224.449 264.172 224.358 263.631C224.358 263.586 224.358 263.563 224.336 263.518C224.336 263.496 224.336 263.473 224.336 263.451V260.182C224.336 260.16 224.336 260.137 224.336 260.115C224.336 260.07 224.336 260.024 224.358 260.002C224.471 259.393 225.102 258.92 225.846 258.92H287.902C287.948 258.92 287.993 258.92 288.015 258.92H288.038C288.06 258.92 288.06 258.92 288.083 258.92C288.105 258.92 288.128 258.92 288.128 258.92C288.15 258.92 288.15 258.92 288.173 258.92C288.263 258.942 288.353 258.965 288.443 258.988C288.489 259.01 288.556 259.033 288.601 259.055C288.804 259.145 288.962 259.258 289.097 259.393C289.12 259.416 289.142 259.438 289.142 259.461C289.255 259.709 289.368 259.934 289.368 260.205Z" fill="#FFB93E"/>
<path d="M258.89 264.736H225.642C225.619 264.736 225.596 264.736 225.574 264.736C225.551 264.736 225.506 264.736 225.484 264.736C224.875 264.668 224.402 264.217 224.312 263.654C224.312 263.608 224.312 263.586 224.289 263.541C224.289 263.518 224.289 263.496 224.289 263.473V260.205C224.289 260.182 224.289 260.16 224.289 260.137C224.289 260.092 224.289 260.047 224.312 260.024C224.312 259.979 224.334 259.934 224.357 259.889C224.514 259.348 225.033 258.942 225.642 258.942H254.81C254.833 258.987 254.833 259.033 254.855 259.078C255.328 260.746 256.41 263 258.845 264.69C258.845 264.713 258.867 264.713 258.89 264.736Z" fill="#FFA412"/>
<path d="M281.793 258.942H281.094V264.735H281.793V258.942Z" fill="#FFA412"/>
<path d="M279.402 258.942H278.703V264.735H279.402V258.942Z" fill="#FFA412"/>
<path d="M276.543 258.942H275.844V264.735H276.543V258.942Z" fill="#FFA412"/>
<path d="M272.168 258.942H271.469V264.735H272.168V258.942Z" fill="#FFA412"/>
<path d="M267.527 258.942H266.828V264.735H267.527V258.942Z" fill="#FFA412"/>
<path d="M260.402 258.942H259.703V264.735H260.402V258.942Z" fill="#FFA412"/>
<path d="M253.753 258.942H253.055V264.735H253.753V258.942Z" fill="#FFA412"/>
<path d="M247.8 258.942H247.102V264.736H247.8V258.942Z" fill="#FFA412"/>
<path d="M284.066 258.942H283.367V264.735H284.066V258.942Z" fill="#FFA412"/>
<path d="M285.582 258.942H284.883V264.735H285.582V258.942Z" fill="#FFA412"/>
<path d="M287.019 258.942H286.32V264.735H287.019V258.942Z" fill="#FFA412"/>
<path d="M288.128 258.965V264.713C288.037 264.735 287.947 264.735 287.857 264.735H287.406V258.942H287.857C287.947 258.942 288.037 258.942 288.128 258.965Z" fill="#FFA412"/>
<path d="M289.097 259.506V264.195C288.917 264.397 288.691 264.578 288.398 264.668V259.055C288.691 259.123 288.939 259.281 289.097 259.506Z" fill="#FFA412"/>
<path d="M292.569 254.547V257.815C292.569 258.086 292.479 258.311 292.321 258.514C292.141 258.717 291.915 258.897 291.622 258.988C291.532 259.01 291.442 259.033 291.352 259.055C291.262 259.078 291.171 259.078 291.081 259.078H229.002C228.755 259.078 228.529 259.033 228.304 258.943C227.898 258.762 227.582 258.424 227.515 258.018C227.515 257.996 227.515 257.973 227.492 257.928C227.492 257.906 227.492 257.883 227.492 257.883C227.492 257.861 227.492 257.838 227.492 257.815V254.547C227.492 254.524 227.492 254.502 227.492 254.479C227.492 254.434 227.492 254.389 227.515 254.367C227.627 253.758 228.259 253.285 229.002 253.285H291.059C291.149 253.285 291.239 253.285 291.329 253.307C291.419 253.33 291.51 253.352 291.6 253.375C291.893 253.465 292.141 253.645 292.299 253.848C292.479 254.051 292.569 254.299 292.569 254.547Z" fill="#FFB93E"/>
<path d="M262.094 259.078H228.846C228.62 259.078 228.417 259.033 228.237 258.943C227.876 258.762 227.606 258.424 227.538 258.018C227.538 257.996 227.538 257.973 227.516 257.928C227.516 257.906 227.516 257.883 227.516 257.883C227.516 257.861 227.516 257.838 227.516 257.816V254.547C227.516 254.525 227.516 254.502 227.516 254.479C227.516 254.434 227.516 254.389 227.538 254.367C227.538 254.322 227.561 254.277 227.583 254.232C227.741 253.691 228.259 253.285 228.868 253.285H258.037C258.487 254.953 259.524 257.229 261.914 258.943C261.959 258.988 262.026 259.033 262.094 259.078Z" fill="#FFA412"/>
<path d="M285.019 253.285H284.32V259.078H285.019V253.285Z" fill="#FFA412"/>
<path d="M282.628 253.285H281.93V259.078H282.628V253.285Z" fill="#FFA412"/>
<path d="M279.769 253.285H279.07V259.078H279.769V253.285Z" fill="#FFA412"/>
<path d="M275.371 253.285H274.672V259.078H275.371V253.285Z" fill="#FFA412"/>
<path d="M270.73 253.285H270.031V259.078H270.73V253.285Z" fill="#FFA412"/>
<path d="M263.628 253.285H262.93V259.078H263.628V253.285Z" fill="#FFA412"/>
<path d="M256.957 253.285H256.258V259.078H256.957V253.285Z" fill="#FFA412"/>
<path d="M251.003 253.285H250.305V259.078H251.003V253.285Z" fill="#FFA412"/>
<path d="M287.269 253.285H286.57V259.078H287.269V253.285Z" fill="#FFA412"/>
<path d="M288.785 253.285H288.086V259.078H288.785V253.285Z" fill="#FFA412"/>
<path d="M290.222 253.285H289.523V259.078H290.222V253.285Z" fill="#FFA412"/>
<path d="M291.331 253.307V259.055C291.241 259.078 291.15 259.078 291.06 259.078H290.609V253.285H291.06C291.15 253.285 291.241 253.307 291.331 253.307Z" fill="#FFA412"/>
<path d="M292.3 253.848V258.537C292.12 258.74 291.895 258.92 291.602 259.01V253.375C291.895 253.465 292.143 253.646 292.3 253.848Z" fill="#FFA412"/>
<path d="M297.639 248.754V252.022C297.639 252.293 297.549 252.518 297.391 252.721C297.369 252.744 297.346 252.766 297.324 252.789C297.234 252.879 297.121 252.969 296.986 253.059C296.918 253.104 296.85 253.127 296.783 253.149C296.76 253.172 296.715 253.172 296.67 253.195C296.58 253.217 296.49 253.24 296.4 253.262C296.309 253.285 296.219 253.285 296.129 253.285H234.073C233.329 253.285 232.698 252.811 232.585 252.203C232.585 252.158 232.562 252.113 232.562 252.09C232.562 252.067 232.562 252.045 232.562 252.022V248.754C232.562 248.731 232.562 248.709 232.562 248.686C232.608 248.078 233.171 247.582 233.892 247.492C233.96 247.492 234.005 247.492 234.073 247.492H296.129C296.219 247.492 296.309 247.492 296.4 247.514C296.49 247.537 296.58 247.559 296.67 247.582C296.918 247.672 297.143 247.807 297.301 247.965C297.324 247.987 297.346 248.01 297.369 248.033C297.549 248.258 297.639 248.506 297.639 248.754Z" fill="#FFB93E"/>
<path d="M267.163 253.285H233.915C233.306 253.285 232.788 252.879 232.63 252.338C232.608 252.293 232.608 252.248 232.585 252.203C232.585 252.158 232.562 252.113 232.562 252.09C232.562 252.067 232.562 252.045 232.562 252.022V248.754C232.562 248.731 232.562 248.709 232.562 248.686C232.585 248.078 233.103 247.582 233.735 247.492C233.78 247.492 233.847 247.492 233.892 247.492H263.061C263.557 249.205 264.639 251.572 267.163 253.285Z" fill="#FFA412"/>
<path d="M290.089 247.492H289.391V253.285H290.089V247.492Z" fill="#FFA412"/>
<path d="M287.699 247.492H287V253.285H287.699V247.492Z" fill="#FFA412"/>
<path d="M284.839 247.492H284.141V253.285H284.839V247.492Z" fill="#FFA412"/>
<path d="M280.441 247.492H279.742V253.285H280.441V247.492Z" fill="#FFA412"/>
<path d="M275.8 247.492H275.102V253.285H275.8V247.492Z" fill="#FFA412"/>
<path d="M268.699 247.492H268V253.285H268.699V247.492Z" fill="#FFA412"/>
<path d="M262.027 247.492H261.328V253.285H262.027V247.492Z" fill="#FFA412"/>
<path d="M256.074 247.492H255.375V253.285H256.074V247.492Z" fill="#FFA412"/>
<path d="M292.339 247.492H291.641V253.285H292.339V247.492Z" fill="#FFA412"/>
<path d="M293.855 247.492H293.156V253.285H293.855V247.492Z" fill="#FFA412"/>
<path d="M295.293 247.492H294.594V253.285H295.293V247.492Z" fill="#FFA412"/>
<path d="M296.401 247.514V253.262C296.311 253.285 296.221 253.285 296.131 253.285H295.68V247.492H296.131C296.221 247.492 296.311 247.514 296.401 247.514Z" fill="#FFA412"/>
<path d="M297.371 248.055V252.744C297.19 252.947 296.965 253.127 296.672 253.217V247.604C296.965 247.672 297.213 247.852 297.371 248.055Z" fill="#FFA412"/>
<path d="M289.475 242.983V246.252C289.475 246.522 289.385 246.748 289.227 246.951C289.047 247.154 288.822 247.334 288.528 247.424C288.438 247.447 288.348 247.469 288.258 247.492C288.235 247.492 288.19 247.492 288.168 247.514H288.145C288.123 247.514 288.1 247.514 288.078 247.514C288.055 247.514 288.055 247.514 288.033 247.514C288.01 247.514 287.987 247.514 287.965 247.514H225.909C225.368 247.514 224.894 247.266 224.624 246.906C224.489 246.725 224.421 246.522 224.398 246.319C224.398 246.297 224.398 246.274 224.398 246.252V242.983C224.398 242.961 224.398 242.938 224.398 242.916C224.421 242.375 224.872 241.924 225.458 241.766C225.593 241.721 225.751 241.721 225.886 241.721H287.942C287.965 241.721 287.988 241.721 288.033 241.721C288.055 241.721 288.055 241.721 288.078 241.721C288.123 241.721 288.168 241.721 288.235 241.744C288.326 241.766 288.416 241.789 288.506 241.811C288.551 241.834 288.596 241.834 288.641 241.856C288.799 241.924 288.957 242.014 289.069 242.127C289.069 242.127 289.092 242.127 289.092 242.149C289.137 242.194 289.182 242.24 289.205 242.285C289.385 242.465 289.475 242.713 289.475 242.983Z" fill="#FFB93E"/>
<path d="M259.023 247.514H225.774C225.301 247.514 224.895 247.289 224.647 246.951C224.512 246.77 224.444 246.545 224.422 246.319C224.422 246.297 224.422 246.274 224.422 246.252V242.983C224.422 242.961 224.422 242.938 224.422 242.916C224.444 242.33 224.895 241.856 225.481 241.744C225.571 241.721 225.662 241.721 225.752 241.721H254.92C254.943 241.766 254.943 241.811 254.965 241.856C255.461 243.547 256.543 245.824 259.023 247.514C259 247.514 259 247.492 259.023 247.514Z" fill="#FFA412"/>
<path d="M281.925 241.721H281.227V247.514H281.925V241.721Z" fill="#FFA412"/>
<path d="M279.535 241.721H278.836V247.514H279.535V241.721Z" fill="#FFA412"/>
<path d="M276.675 241.721H275.977V247.514H276.675V241.721Z" fill="#FFA412"/>
<path d="M272.3 241.721H271.602V247.514H272.3V241.721Z" fill="#FFA412"/>
<path d="M267.66 241.721H266.961V247.514H267.66V241.721Z" fill="#FFA412"/>
<path d="M260.535 241.721H259.836V247.514H260.535V241.721Z" fill="#FFA412"/>
<path d="M253.886 241.721H253.188V247.514H253.886V241.721Z" fill="#FFA412"/>
<path d="M247.933 241.721H247.234V247.514H247.933V241.721Z" fill="#FFA412"/>
<path d="M284.199 241.721H283.5V247.514H284.199V241.721Z" fill="#FFA412"/>
<path d="M285.714 241.721H285.016V247.514H285.714V241.721Z" fill="#FFA412"/>
<path d="M287.152 241.721H286.453V247.514H287.152V241.721Z" fill="#FFA412"/>
<path d="M288.26 241.744V247.492C288.17 247.514 288.08 247.514 287.99 247.514H287.539V241.721H287.99C288.08 241.721 288.17 241.721 288.26 241.744Z" fill="#FFA412"/>
<path d="M289.23 242.262V246.95C289.05 247.153 288.824 247.334 288.531 247.424V241.811C288.824 241.901 289.05 242.059 289.23 242.262Z" fill="#FFA412"/>
<path d="M294.054 237.326V240.594C294.054 240.865 293.964 241.09 293.806 241.293C293.626 241.496 293.401 241.676 293.108 241.766C293.017 241.789 292.927 241.811 292.837 241.834C292.747 241.856 292.657 241.856 292.567 241.856H230.51C230.262 241.856 230.037 241.811 229.834 241.721C229.383 241.541 229.068 241.158 229 240.707C229 240.684 229 240.662 229 240.662C229 240.639 229 240.617 229 240.594V237.326C229 237.303 229 237.28 229 237.258C229.045 236.649 229.609 236.153 230.33 236.063C230.398 236.063 230.443 236.063 230.51 236.063H292.567C292.657 236.063 292.747 236.063 292.837 236.086C292.927 236.108 293.017 236.131 293.108 236.153C293.401 236.244 293.649 236.424 293.806 236.627C293.964 236.807 294.054 237.055 294.054 237.326Z" fill="#FFB93E"/>
<path d="M263.577 241.856H230.329C230.104 241.856 229.901 241.811 229.72 241.721C229.315 241.541 229.022 241.157 228.977 240.707C228.977 240.684 228.977 240.662 228.977 240.662C228.977 240.639 228.977 240.616 228.977 240.594V237.325C228.977 237.303 228.977 237.28 228.977 237.258C228.999 236.649 229.518 236.153 230.149 236.063C230.194 236.063 230.261 236.063 230.306 236.063H259.475C259.926 237.731 260.963 240.008 263.375 241.721C263.442 241.766 263.51 241.811 263.577 241.856Z" fill="#FFA412"/>
<path d="M286.503 236.063H285.805V241.856H286.503V236.063Z" fill="#FFA412"/>
<path d="M284.113 236.063H283.414V241.856H284.113V236.063Z" fill="#FFA412"/>
<path d="M281.253 236.063H280.555V241.856H281.253V236.063Z" fill="#FFA412"/>
<path d="M276.855 236.063H276.156V241.856H276.855V236.063Z" fill="#FFA412"/>
<path d="M272.214 236.063H271.516V241.856H272.214V236.063Z" fill="#FFA412"/>
<path d="M265.089 236.063H264.391V241.856H265.089V236.063Z" fill="#FFA412"/>
<path d="M258.441 236.063H257.742V241.856H258.441V236.063Z" fill="#FFA412"/>
<path d="M252.488 236.063H251.789V241.856H252.488V236.063Z" fill="#FFA412"/>
<path d="M288.753 236.063H288.055V241.856H288.753V236.063Z" fill="#FFA412"/>
<path d="M290.269 236.063H289.57V241.856H290.269V236.063Z" fill="#FFA412"/>
<path d="M291.707 236.063H291.008V241.856H291.707V236.063Z" fill="#FFA412"/>
<path d="M292.815 236.086V241.834C292.725 241.856 292.635 241.856 292.545 241.856H292.094V236.063H292.545C292.635 236.063 292.725 236.063 292.815 236.086Z" fill="#FFA412"/>
<path d="M293.785 236.604V241.293C293.604 241.496 293.379 241.676 293.086 241.766V236.153C293.379 236.243 293.627 236.401 293.785 236.604Z" fill="#FFA412"/>
<path d="M295.992 231.532V234.801C295.992 235.071 295.902 235.297 295.744 235.5C295.563 235.702 295.338 235.883 295.045 235.973C294.955 235.996 294.865 236.018 294.775 236.041C294.752 236.041 294.707 236.041 294.684 236.041C294.662 236.041 294.662 236.041 294.639 236.041C294.617 236.041 294.617 236.041 294.594 236.041C294.572 236.041 294.549 236.041 294.504 236.041H232.448C231.659 236.041 230.983 235.5 230.938 234.846C230.938 234.823 230.938 234.801 230.938 234.778V231.51C230.938 231.487 230.938 231.465 230.938 231.442C230.983 230.788 231.636 230.247 232.448 230.247H294.504C294.594 230.247 294.684 230.247 294.775 230.27C294.865 230.293 294.955 230.315 295.045 230.338C295.338 230.428 295.586 230.608 295.744 230.811C295.902 231.036 295.992 231.262 295.992 231.532Z" fill="#FFB93E"/>
<path d="M265.516 236.063H232.267C231.546 236.063 230.96 235.522 230.938 234.868C230.938 234.846 230.938 234.823 230.938 234.801V231.532C230.938 231.51 230.938 231.487 230.938 231.465C230.983 230.811 231.569 230.27 232.267 230.27H261.436C261.909 231.983 262.991 234.327 265.516 236.063Z" fill="#FFA412"/>
<path d="M288.441 230.27H287.742V236.063H288.441V230.27Z" fill="#FFA412"/>
<path d="M286.05 230.27H285.352V236.063H286.05V230.27Z" fill="#FFA412"/>
<path d="M283.191 230.27H282.492V236.063H283.191V230.27Z" fill="#FFA412"/>
<path d="M278.793 230.27H278.094V236.063H278.793V230.27Z" fill="#FFA412"/>
<path d="M274.152 230.27H273.453V236.063H274.152V230.27Z" fill="#FFA412"/>
<path d="M267.05 230.27H266.352V236.063H267.05V230.27Z" fill="#FFA412"/>
<path d="M260.378 230.27H259.68V236.063H260.378V230.27Z" fill="#FFA412"/>
<path d="M254.425 230.27H253.727V236.063H254.425V230.27Z" fill="#FFA412"/>
<path d="M290.714 230.27H290.016V236.063H290.714V230.27Z" fill="#FFA412"/>
<path d="M292.207 230.27H291.508V236.063H292.207V230.27Z" fill="#FFA412"/>
<path d="M293.644 230.27H292.945V236.063H293.644V230.27Z" fill="#FFA412"/>
<path d="M294.753 230.293V236.041C294.662 236.063 294.572 236.063 294.482 236.063H294.031V230.27H294.482C294.572 230.27 294.662 230.27 294.753 230.293Z" fill="#FFA412"/>
<path d="M295.746 230.833V235.522C295.565 235.725 295.34 235.905 295.047 235.995V230.383C295.317 230.45 295.565 230.608 295.746 230.833Z" fill="#FFA412"/>
<path d="M276.312 197.247C276.312 197.247 273.043 201.846 270.068 201.891C267.092 201.936 262.539 199.772 262.539 199.772C262.539 199.772 259.789 193.663 261.66 191.274C261.66 191.274 263.531 190.462 265.469 191.905C265.807 192.153 266.146 192.468 266.484 192.874C266.957 193.438 267.498 193.776 268.062 193.934C270.203 194.587 272.728 193.054 273.674 194.52C274.238 195.376 274.824 196.03 275.32 196.481C275.883 196.999 276.312 197.247 276.312 197.247Z" fill="#FFEDDC"/>
<path d="M233.82 230.36C233.82 230.36 245.339 202.454 266.077 201.913C266.077 201.913 285.215 204.032 286.274 230.36H233.82Z" fill="#FFEDDC"/>
<path d="M260.398 202.77C260.398 202.77 268.716 204.618 271.286 203.536C271.286 203.536 271.669 200.065 268.175 200.538C265.786 200.876 264.208 199.726 263.306 199.253C261.999 198.599 260.06 201.304 260.398 202.77Z" fill="#DB6A1D"/>
<path d="M267.633 197.517C267.092 197.923 265.469 191.905 265.469 191.905C265.807 192.153 266.145 192.468 266.483 192.874C266.956 193.437 267.497 193.776 268.061 193.933C268.061 194.114 268.151 197.134 267.633 197.517Z" fill="#E5C1A1"/>
<path d="M275.318 196.48C275.205 196.548 271.351 198.847 270.832 198.847C270.291 198.847 273.672 194.519 273.672 194.519C274.213 195.376 274.822 196.03 275.318 196.48Z" fill="#E5C1A1"/>
<path d="M245.09 222.561C244.887 222.381 253.25 210.253 255.549 210.163C257.848 210.073 263.032 212.823 266.774 213.184C270.516 213.544 274.145 212.485 274.867 214.694C275.565 216.903 277.527 224.77 276.332 226.01C275.115 227.249 249.688 226.483 245.09 222.561Z" fill="#F9DDBF"/>
<path opacity="0.5" d="M252.963 264.691C252.963 264.713 252.963 264.713 252.963 264.736C252.851 266.674 252.535 268.613 252.039 270.484C251.972 270.754 251.881 271.025 251.814 271.295C251.295 273.009 250.619 274.677 249.763 276.277C248.703 278.283 247.396 280.177 245.863 281.935C245.818 281.98 245.773 282.025 245.728 282.07C243.812 284.234 241.512 286.128 238.92 287.728C238.379 288.066 237.816 288.382 237.23 288.697C236.846 288.9 236.441 289.103 236.057 289.283C235.674 289.509 235.291 289.689 234.908 289.915C233.803 290.591 232.451 291.109 230.963 291.538V288.99C230.963 288.968 230.963 288.945 230.963 288.923C230.963 288.878 230.963 288.833 230.986 288.787C230.986 288.742 231.008 288.697 231.031 288.652C231.189 288.111 231.707 287.728 232.316 287.728H225.688C225.08 287.728 224.561 287.322 224.404 286.781C224.381 286.736 224.381 286.691 224.358 286.646C224.358 286.601 224.336 286.556 224.336 286.533C224.336 286.511 224.336 286.488 224.336 286.466V283.197C224.336 283.175 224.336 283.152 224.336 283.13C224.336 283.085 224.336 283.039 224.358 283.017C224.358 282.972 224.381 282.927 224.404 282.882C224.561 282.341 225.08 281.935 225.688 281.935H228.281C227.92 281.755 227.65 281.416 227.582 281.011C227.582 280.988 227.582 280.966 227.559 280.921C227.559 280.898 227.559 280.875 227.559 280.853C227.559 280.83 227.559 280.808 227.559 280.785V277.517C227.559 277.494 227.559 277.472 227.559 277.449C227.559 277.404 227.559 277.359 227.582 277.336C227.582 277.291 227.604 277.246 227.627 277.201C227.785 276.66 228.303 276.254 228.912 276.254H230.4C229.791 276.254 229.272 275.849 229.115 275.33C229.092 275.285 229.092 275.24 229.07 275.195C229.07 275.15 229.047 275.105 229.047 275.082V271.679C229.092 271.07 229.588 270.574 230.219 270.484H225.824C225.102 270.484 224.516 269.943 224.494 269.289C224.494 269.267 224.494 269.244 224.494 269.222V265.953C224.494 265.931 224.494 265.908 224.494 265.885C224.494 265.863 224.494 265.84 224.494 265.84C224.539 265.299 224.967 264.849 225.531 264.736C224.922 264.668 224.449 264.217 224.358 263.654C224.358 263.609 224.358 263.586 224.336 263.541C224.336 263.519 224.336 263.496 224.336 263.474V260.205C224.336 260.183 224.336 260.16 224.336 260.137C224.336 260.092 224.336 260.047 224.358 260.025C224.358 259.98 224.381 259.935 224.404 259.889C224.561 259.349 225.08 258.943 225.688 258.943H228.281C227.92 258.762 227.65 258.424 227.582 258.019C227.582 257.996 227.582 257.973 227.559 257.928C227.559 257.906 227.559 257.883 227.559 257.883C227.559 257.861 227.559 257.838 227.559 257.816V254.547C227.559 254.525 227.559 254.502 227.559 254.48C227.559 254.434 227.559 254.389 227.582 254.367C227.582 254.322 227.604 254.277 227.627 254.232C227.785 253.691 228.303 253.285 228.912 253.285H233.984C233.375 253.285 232.857 252.879 232.699 252.338C232.676 252.293 232.676 252.248 232.654 252.203C232.654 252.158 232.631 252.113 232.631 252.09C232.631 252.068 232.631 252.045 232.631 252.023V248.754C232.631 248.732 232.631 248.709 232.631 248.686C232.654 248.078 233.172 247.582 233.803 247.492H225.824C225.35 247.492 224.945 247.266 224.697 246.928V246.906L225.531 241.766V241.744L226.725 234.418C228.123 234.598 229.498 234.891 230.828 235.252C230.918 235.274 230.986 235.297 231.053 235.319C231.053 235.319 231.053 235.319 231.076 235.319C231.865 235.545 232.631 235.793 233.398 236.063H233.42C236.937 237.348 240.205 239.242 243.045 241.721C243.09 241.766 243.135 241.811 243.203 241.856C244.691 243.164 246.043 244.606 247.238 246.207C247.486 246.522 247.711 246.838 247.937 247.176C248.004 247.289 248.094 247.402 248.162 247.514C248.523 248.055 248.883 248.619 249.199 249.182C249.965 250.535 250.619 251.91 251.16 253.307C251.881 255.156 252.377 257.049 252.67 258.965C252.67 259.01 252.693 259.055 252.693 259.101C252.986 260.949 253.076 262.842 252.963 264.691Z" fill="#E2810E"/>
<path d="M237.158 283.281C249.077 271.362 249.077 252.037 237.158 240.118C225.239 228.199 205.914 228.199 193.995 240.118C182.076 252.037 182.076 271.362 193.995 283.281C205.914 295.2 225.239 295.2 237.158 283.281Z" fill="#E2810E"/>
<path d="M229.132 289.058C228.749 289.283 228.366 289.509 227.983 289.734C227.848 289.802 227.712 289.87 227.577 289.937C227.284 290.095 226.968 290.253 226.675 290.411C212.136 297.556 194.419 292.079 186.507 277.742C178.978 264.06 183.013 247.131 195.388 238.25C196.38 237.551 197.417 236.875 198.499 236.289C198.882 236.063 199.288 235.861 199.671 235.68C200.054 235.477 200.437 235.297 200.843 235.139C202.038 234.598 203.255 234.147 204.472 233.787C206.298 233.246 208.146 232.863 209.995 232.682C215.743 232.074 221.536 233.133 226.653 235.635C232.085 238.295 236.796 242.6 239.952 248.303C247.909 262.64 243.04 280.605 229.132 289.058Z" fill="#FFB93E"/>
<path d="M213.47 290.658C210.923 290.658 208.353 290.298 205.829 289.576C198.818 287.548 193.003 282.904 189.486 276.503C185.97 270.101 185.136 262.707 187.165 255.697C189.193 248.687 193.837 242.871 200.239 239.354C213.448 232.074 230.106 236.897 237.387 250.107C244.667 263.316 239.844 279.974 226.634 287.255C222.532 289.509 218.024 290.658 213.47 290.658ZM213.403 236.695C209.052 236.695 204.657 237.754 200.599 239.986C194.378 243.412 189.847 249.07 187.886 255.9C185.902 262.73 186.714 269.92 190.14 276.142C193.566 282.363 199.224 286.894 206.054 288.855C212.884 290.839 220.075 290.027 226.296 286.601C239.145 279.523 243.833 263.293 236.755 250.445C231.909 241.676 222.78 236.695 213.403 236.695Z" fill="#FFA412"/>
<path d="M226.883 265.953C226.815 265.796 226.748 265.66 226.703 265.525C226.207 264.443 225.598 263.564 224.854 262.888C224.02 262.121 223.051 261.558 221.946 261.175C220.842 260.791 219.602 260.566 218.25 260.476C216.897 260.386 215.409 260.363 213.809 260.408C212.817 260.431 211.983 260.431 211.262 260.363C210.563 260.295 209.954 260.16 209.481 259.98C208.985 259.777 208.602 259.506 208.286 259.168C207.971 258.83 207.723 258.402 207.52 257.929C207.317 257.455 207.204 256.937 207.182 256.463C207.159 255.99 207.227 255.517 207.407 255.088C207.588 254.66 207.858 254.254 208.264 253.894C208.647 253.533 209.165 253.217 209.819 252.947C211.014 252.474 212.118 252.474 213.155 252.97C214.192 253.465 215.026 254.525 215.68 256.125L221.901 253.601C221.36 252.271 220.684 251.144 219.873 250.219C219.061 249.295 218.137 248.596 217.123 248.101C216.108 247.605 214.981 247.312 213.786 247.221C212.592 247.131 211.329 247.267 210.045 247.605L208.286 243.277L204.838 244.674L206.573 248.957C205.333 249.611 204.274 250.355 203.417 251.211C202.561 252.068 201.885 252.992 201.434 253.984C200.96 254.976 200.735 256.035 200.712 257.117C200.69 258.222 200.915 259.326 201.366 260.453C201.907 261.761 202.583 262.798 203.417 263.564C204.251 264.33 205.221 264.894 206.325 265.277C207.43 265.66 208.67 265.886 210.022 265.953C211.397 266.021 212.885 266.021 214.485 265.953C215.409 265.908 216.221 265.908 216.92 265.976C217.596 266.043 218.205 266.179 218.7 266.382C219.196 266.584 219.625 266.855 219.94 267.216C220.278 267.576 220.549 268.05 220.774 268.591C220.977 269.087 221.067 269.582 221.067 270.056C221.067 270.552 220.955 271.003 220.729 271.453C220.504 271.904 220.188 272.31 219.737 272.693C219.309 273.076 218.746 273.392 218.069 273.662C217.483 273.91 216.875 274.068 216.243 274.136C215.612 274.203 215.004 274.158 214.395 273.956C213.786 273.753 213.245 273.392 212.704 272.874C212.186 272.355 211.735 271.611 211.352 270.664L205.131 273.189C205.784 274.79 206.596 276.052 207.565 276.999C208.557 277.945 209.616 278.599 210.788 279.005C211.961 279.41 213.178 279.591 214.44 279.523C215.702 279.478 216.965 279.275 218.205 278.892L219.805 282.859L223.231 281.462L221.608 277.494C222.848 276.841 223.907 276.097 224.809 275.263C225.621 274.474 226.274 273.64 226.725 272.738C226.77 272.671 226.793 272.603 226.838 272.513C227.311 271.521 227.559 270.484 227.582 269.402C227.582 268.275 227.356 267.125 226.883 265.953Z" fill="#FFA412"/>
<path d="M185.061 111.274C184.655 111.725 184.61 112.244 184.813 112.785C185.196 113.799 186.391 114.903 187.811 116.03C187.991 116.166 188.149 116.301 188.284 116.436C188.329 116.459 188.352 116.504 188.397 116.526C188.42 116.549 188.442 116.571 188.487 116.594C189.795 117.789 189.321 118.059 191.688 120.494C194.393 123.266 196.241 123.289 196.76 123.041C197.211 122.815 196.287 121.35 195.272 119.705C195.227 119.615 195.182 119.547 195.114 119.457C194.979 119.231 194.844 119.006 194.709 118.803C193.514 116.819 193.807 115.873 194.077 112.897C194.28 110.485 197.752 99.3499 197.752 99.3499L192.612 98.4933C192.612 98.4933 191.125 107.33 189.434 108.705C188.532 109.426 187.518 109.448 186.639 109.989C186.571 110.035 186.526 110.057 186.459 110.102C185.963 110.463 185.444 110.801 185.061 111.274Z" fill="#FFB27D"/>
<path d="M185.061 111.274C184.655 111.725 184.61 112.244 184.813 112.785C185.264 113.799 186.459 114.904 187.811 116.008C187.991 116.143 188.149 116.279 188.284 116.414C188.329 116.436 188.352 116.481 188.397 116.504C188.42 116.526 188.442 116.549 188.487 116.572C189.795 117.766 189.321 118.037 191.688 120.471C194.393 123.244 196.241 123.266 196.76 123.018C197.211 122.793 196.287 121.328 195.272 119.682C194.754 119.502 192.319 118.533 190.471 116.188C188.848 114.137 187.743 111.5 186.639 109.99C186.571 110.035 186.526 110.057 186.459 110.102C185.963 110.463 185.444 110.801 185.061 111.274Z" fill="#233862"/>
<path d="M226.452 107.78C226.79 109.358 229.045 109.088 231.569 108.457C234.094 107.826 233.485 108.569 237.092 108.141C240.676 107.713 241.758 106.36 241.871 105.842C241.961 105.369 240.18 105.211 238.286 105.008C238.039 104.985 237.813 104.963 237.565 104.918C235.424 104.67 233.823 103.295 231.862 102.168C230.014 101.108 227.219 96.7352 227.219 96.7352L222.305 97.1635C222.305 97.1635 224.919 101.063 225.934 102.776C226.52 103.768 226.497 105.098 226.452 106.135C226.362 106.653 226.317 107.217 226.452 107.78Z" fill="#FFB27D"/>
<path d="M231.543 108.434C234.067 107.803 233.459 108.547 237.065 108.119C240.649 107.69 241.731 106.338 241.844 105.819C241.934 105.346 240.153 105.188 238.26 104.985L238.237 105.03C238.237 105.03 236.096 106.563 233.098 106.676C230.664 106.744 228.071 106.067 226.381 106.112C226.336 106.676 226.313 107.24 226.426 107.803C226.764 109.358 229.018 109.065 231.543 108.434Z" fill="#233862"/>
<path d="M207.335 76.4028L202.827 88.8231L196.921 105.053C196.921 105.053 195.298 105.233 193.72 104.782C192.277 104.377 190.609 103.295 190.609 103.295C190.609 103.295 192.165 85.9153 195.208 75.9069C195.997 73.3372 196.876 71.2634 197.845 70.0913C202.646 64.3658 207.335 76.4028 207.335 76.4028Z" fill="#ED7D2B"/>
<path d="M202.51 56.747C199.49 55.8002 190.879 57.1076 182.246 58.8659L180.42 55.8904L161.733 54.5605C161.733 54.5605 155.67 68.2656 159.096 76.944C159.592 78.2289 162.703 78.8375 162.703 78.8375C162.703 78.8375 173.658 78.9502 177.264 78.9276C186.551 78.86 196.875 72.4132 198.205 72.1202C200.392 71.6693 201.316 76.0424 203.525 80.6408C205.756 85.2392 224.308 100.905 224.308 100.905C224.308 100.905 227.148 100.905 228.32 100.477C229.583 100.004 230.033 99.3726 230.033 99.3726C230.033 99.3726 209.341 58.9109 202.51 56.747Z" fill="#F99746"/>
<path d="M178.054 1.06993C176.656 0.235905 175.281 0.145739 174.447 0.168281C173.861 0.190822 173.253 0.145739 172.667 0.0555741C165.589 -0.846079 161.396 9.47785 161.17 12.5885C160.742 18.3366 157.722 19.2382 153.461 22.8674C144.941 30.1482 147.51 38.5111 152.222 41.5767C155.039 43.4251 159.998 41.5316 159.998 41.5316C160.066 41.5767 173.501 33.8901 180.128 30.1933C190.091 28.6831 182.089 3.43677 178.054 1.06993Z" fill="#233862"/>
<path d="M174.536 27.1052C174.558 27.1277 171.267 28.2773 169.058 27.3081C166.984 26.4064 165.384 23.0027 165.406 23.0027C166.353 22.9576 167.39 22.1236 168.134 16.6911L168.54 16.8263L175.325 19.2157C175.325 19.2157 174.851 21.3797 174.558 23.4535C174.31 25.1892 174.175 26.8572 174.536 27.1052Z" fill="#FFB27D"/>
<path d="M175.324 19.2156C175.324 19.2156 175.031 20.7484 174.625 22.9124C170.726 22.2361 169.103 18.9225 168.539 16.8262L175.324 19.2156Z" fill="#ED975D"/>
<path d="M176.366 21.3571C176.366 21.3571 167.102 20.185 167.936 14.4144C168.747 8.66638 168.116 4.63149 174.067 5.1274C180.018 5.64585 180.852 7.99014 181.032 9.97378C181.213 12.0025 178.801 21.5149 176.366 21.3571Z" fill="#FFB27D"/>
<path d="M180.666 6.86311C180.666 6.86311 174.782 12.0025 170.747 12.4534C166.712 12.9042 165.18 11.6193 165.18 11.6193C165.18 11.6193 167.547 9.63569 168.944 6.43482C169.35 5.48808 170.251 4.83439 171.266 4.74422C174.151 4.47373 179.606 4.31594 180.666 6.86311Z" fill="#233862"/>
<path d="M176.953 6.43493C176.953 6.43493 178.959 8.3284 179.59 9.74851C180.199 11.1235 180.402 14.392 179.929 15.6994C179.929 15.6994 182.972 9.68088 181.213 6.77305C179.343 3.68489 176.953 6.43493 176.953 6.43493Z" fill="#233862"/>
<path d="M182.43 40.6751C182.272 59.407 182.452 55.4848 180.424 57.2881C179.928 57.7164 178.553 57.9869 176.727 58.1221C170.979 58.5504 160.88 57.6713 160.497 56.6118C159.144 52.9376 160.069 51.8105 158.919 46.1752C158.806 45.5891 158.649 44.9354 158.491 44.2367C157.544 40.3821 156.642 39.0747 159.866 32.8533C162.796 27.218 165.839 22.6195 166.11 22.7999C173.954 27.3983 174.563 23.4761 174.563 23.4761C174.563 23.4761 182.497 31.5459 182.43 40.6751Z" fill="#AEC3FF"/>
<path d="M202.827 88.8234L196.921 105.053C196.921 105.053 195.298 105.233 193.72 104.783C192.277 104.377 190.609 103.295 190.609 103.295C190.609 103.295 192.165 85.9156 195.208 75.9072L202.827 88.8234Z" fill="#F99746"/>
<path d="M174.562 23.4536C174.562 23.4536 182.61 24.7609 183.602 28.2098C184.571 31.6586 190.274 51.9909 190.274 51.9909C190.274 51.9909 186.194 52.7573 184.278 50.8863C182.384 49.0154 177.583 33.3943 177.583 33.3943L174.562 23.4536Z" fill="#AEC3FF"/>
<path d="M176.722 58.1219C170.974 58.5502 160.875 57.6711 160.492 56.6116C159.139 52.9374 160.064 51.8103 158.914 46.175L161.619 38.3531C161.619 38.3531 161.213 47.0316 163.806 49.3082C166.375 51.5849 174.332 53.6362 175.572 55.5522C176.203 56.4538 176.609 57.378 176.722 58.1219Z" fill="#8EA3ED"/>
<path d="M170.117 54.5153C170.117 54.5153 175.775 53.2079 176.699 53.7038C177.623 54.1997 179.855 56.0256 180.148 56.6567C180.441 57.2879 178.119 56.1834 177.353 55.9805C176.857 55.8452 175.595 56.3186 174.941 56.5215C172.281 57.4231 170.636 56.9949 170.636 56.9949L170.117 54.5153Z" fill="#FFB27D"/>
<path d="M166.104 22.7772C166.104 22.7772 158.508 23.2956 155.893 26.9924C152.219 32.1994 145.028 54.2674 149.266 57.1978C154.045 60.4662 170.883 57.9191 170.883 57.9191C170.883 57.9191 171.424 55.3043 170.635 54.0194C169.846 52.7571 157.155 50.796 156.569 50.2099C155.983 49.6239 163.805 38.7364 163.782 36.9782C163.737 35.22 166.104 22.7772 166.104 22.7772Z" fill="#AEC3FF"/>
<path d="M176.969 55.2818C176.969 55.2818 178.163 56.8146 178.547 56.9949C178.93 57.1752 179.178 57.1302 179.178 57.1302L178.366 55.6875L176.969 55.2818Z" fill="#FFB27D"/>
<path d="M176.68 53.7039L180.151 55.3494C180.151 55.3494 180.016 55.5973 179.588 55.5748C179.159 55.5522 178.077 55.169 178.077 55.169L176.68 53.7039Z" fill="#FFB27D"/>
<path d="M177.828 59.4518L205.126 59.249L213.195 38.7814L185.943 38.9618L177.828 59.4518Z" fill="#233862"/>
<path d="M205.442 58.4603L169.398 58.7083V59.5198L205.126 59.2493L205.442 58.4603Z" fill="#233862"/>
<path d="M198.157 49.1056C198.36 48.3842 197.932 47.7982 197.211 47.8207C196.489 47.8207 195.745 48.4068 195.543 49.1281C195.34 49.8494 195.768 50.4355 196.489 50.413C197.211 50.3904 197.955 49.8043 198.157 49.1056Z" fill="#EBF3FA"/>
<path d="M424.402 124.709C420.954 123.559 418.542 125.002 418.542 125.002C408.578 125.408 408.218 135.619 409.39 139.406C411.035 144.748 405.22 148.941 411.667 151.105C419.15 153.607 425.417 149.662 424.988 150.947C448.612 152.818 432.269 127.324 424.402 124.709Z" fill="#2A539B"/>
<path d="M414.083 174.345C414.083 174.345 413.136 176.216 411.423 178.38C409.349 180.972 398.507 174.818 399.431 174.345C400.355 173.872 405.652 158.882 407.884 156.222C409.958 153.765 412.843 153.201 412.843 153.201L414.083 174.345Z" fill="#2B478B"/>
<path d="M450.705 280.312C450.705 280.312 453.703 283.039 453.117 284.978C452.531 286.917 449.826 288.224 449.465 290.591C449.105 292.958 447.64 294.265 446.332 294.265C445.025 294.265 440.066 294.265 440.066 294.265C440.066 294.265 439.096 292.597 441.441 292.101C443.785 291.605 444.664 288.81 444.506 286.218C444.371 283.626 444.732 280.177 444.732 280.177L449.691 279.027L450.705 280.312Z" fill="#4075C1"/>
<path d="M425.352 281.484C425.352 281.484 426.434 293.07 425.104 293.724L408.266 293.679C408.266 293.679 408.266 291.74 410.971 291.312C413.676 290.884 418.432 289.306 419.221 285.767C420.032 282.228 425.352 281.484 425.352 281.484Z" fill="#4075C1"/>
<path d="M438.291 166.523C438.291 166.523 438.539 170.062 438.291 174.3C438.133 177.118 435.27 180.882 434.865 181.806C433.85 184.151 432.701 184.534 432.701 184.534L423.865 186.698L420.754 187.464L410.948 184.534C410.948 184.534 406.485 172.068 408.289 165.058C410.092 158.048 412.819 153.179 412.819 153.179C412.819 153.179 419.469 151.691 431.236 152.525L438.291 166.523Z" fill="#2B478B"/>
<path d="M439.143 174.413C438.985 177.23 435.288 180.905 434.883 181.829C433.868 184.173 432.719 184.556 432.719 184.556L423.882 186.72L421.516 183.407C421.516 183.407 435.829 179.417 433.124 166.816L439.143 174.413Z" fill="#163560"/>
<path d="M411.599 186.427C411.599 186.427 406.753 201.53 406.437 206.669C406.122 211.809 415.724 279.726 416.108 282.093C416.468 284.324 419.241 285.744 419.241 285.744C419.241 285.744 420.526 286.488 422.329 285.992C424.854 285.271 425.643 284.414 425.643 284.414C425.643 284.414 429.429 235.973 427.085 218.684C424.741 201.372 424.718 186.427 424.718 186.427H411.599Z" fill="#ED7D2B"/>
<path d="M432.155 185.976C432.155 185.976 439.549 195.917 440.247 202.612C440.946 209.329 441.329 232.907 442.795 239.444C444.26 245.981 449.67 258.582 449.67 279.004C449.67 279.004 449.106 280.177 447.37 280.808C446.807 281.011 446.063 281.191 445.342 281.371C443.922 281.709 442.456 281.011 441.803 279.681C438.151 272.332 426.52 248.619 425.911 243.682C425.483 240.188 421.809 217.151 413.806 203.604C411.89 200.358 414.979 187.442 414.979 187.442L432.155 185.976Z" fill="#F99746"/>
<path d="M410.837 184.083C410.837 184.083 412.775 185.616 416.652 185.706C421.273 185.796 432.724 184.534 432.724 184.534C432.724 184.534 433.243 185.954 433.22 187.464C433.22 187.464 419.222 191.003 411.13 187.983C411.107 187.983 410.07 185.999 410.837 184.083Z" fill="#163560"/>
<path d="M415.549 189.696C414.376 189.696 413.43 188.614 413.43 187.306C413.43 185.999 414.376 184.917 415.549 184.917C416.721 184.917 417.667 185.999 417.667 187.306C417.645 188.614 416.698 189.696 415.549 189.696ZM415.549 185.616C414.76 185.616 414.128 186.382 414.128 187.306C414.128 188.231 414.76 188.997 415.549 188.997C416.315 188.997 416.969 188.231 416.969 187.306C416.946 186.382 416.315 185.616 415.549 185.616Z" fill="white"/>
<path d="M425.643 194.046L404.612 194.227L394.266 169.927L415.297 169.724L425.643 194.046Z" fill="#D35B31"/>
<path d="M422.895 183.046L421.362 181.153C421.362 181.153 420.325 180.228 419.559 180.071C418.792 179.913 417.214 178.989 417.057 179.259C416.899 179.53 418.274 181.378 418.274 181.378H418.342C416.764 182.573 412.751 181.513 412.255 182.009C411.647 182.595 413.089 183.88 413.856 184.601C414.622 185.323 416.809 186.517 418.522 185.976C419.762 185.593 421.723 185.187 421.723 185.187L422.895 183.046Z" fill="#FFB27D"/>
<path d="M395.842 174.187C395.842 174.187 397.172 172.677 398.006 173.398C398.84 174.12 397.781 177.659 396.992 177.298C396.181 176.96 395.392 174.638 395.842 174.187Z" fill="#FFB27D"/>
<path d="M431.259 152.525C431.259 152.525 438.27 153.021 440.952 159.558C443.635 166.095 448.571 176.847 447.512 181.355C447.083 183.159 441.989 189.38 420.688 185.413C420.688 185.413 420.868 183.181 422.31 182.144C422.31 182.144 437.323 177.321 437.3 176.374C437.255 174.571 435.272 172.993 426.886 164.607C424.587 162.308 431.259 152.525 431.259 152.525Z" fill="#2B478B"/>
<path d="M426.615 152.841C426.818 152.57 426.548 151.668 426.232 150.023C425.939 148.535 425.421 146.213 425.443 143.621L424.992 143.689L417.531 144.951C417.531 144.951 417.712 146.935 417.712 148.828C417.712 148.851 417.712 148.851 417.712 148.873C417.712 150.496 417.261 152.976 417.824 153.291C420.642 154.959 425.826 153.9 426.615 152.841Z" fill="#FFB27D"/>
<path d="M417.531 144.951C417.531 144.951 417.689 147.769 417.689 149.64C421.859 149.55 424.091 145.492 424.992 143.689L417.531 144.951Z" fill="#E8945B"/>
<path d="M417.079 148.31C417.079 148.31 426.861 146.912 425.892 140.849C424.923 134.763 425.554 130.502 419.265 131.133C412.976 131.765 412.142 134.267 411.962 136.386C411.781 138.482 414.509 148.513 417.079 148.31Z" fill="#FFB27D"/>
<path d="M414.805 131.697C414.805 131.697 418.614 138.392 422.874 138.797C427.135 139.203 428.735 137.828 428.735 137.828C428.735 137.828 425.196 135.822 423.844 131.584C423.844 131.562 416.27 127.978 414.805 131.697Z" fill="#2A539B"/>
<path d="M415.544 132.17C415.544 132.17 413.673 133.23 413.087 134.807C412.523 136.34 412.14 138.324 412.659 140.601C412.659 140.601 409.863 136.07 411.689 132.982C413.65 129.668 415.544 132.17 415.544 132.17Z" fill="#2A539B"/>
<path d="M575.368 294.785H0.653469C0.292934 294.785 0 294.501 0 294.152V293.911C0 293.561 0.292934 293.277 0.653469 293.277H575.345C575.706 293.277 575.999 293.561 575.999 293.911V294.152C576.021 294.479 575.728 294.785 575.368 294.785Z" fill="#2E3552"/>
</svg>
