<svg width="18" height="17" viewBox="0 0 18 17" fill="none" xmlns="http://www.w3.org/2000/svg">
<path d="M11.9098 1.94673C12.0582 1.78625 12.1826 1.62979 12.323 1.4974C12.6881 1.1564 13.1655 1.14437 13.5145 1.48537C14.1925 2.14732 14.8624 2.81327 15.5204 3.49528C15.8614 3.84832 15.8494 4.32171 15.5084 4.68679C15.376 4.83121 15.2195 4.95156 15.0711 5.08395C15.2155 5.44903 15.3358 5.78201 15.4883 6.09894C15.5204 6.17115 15.6528 6.21929 15.7491 6.23133C15.9176 6.2554 16.0941 6.23133 16.2626 6.25139C16.6918 6.30354 16.9967 6.61245 17.0007 7.03369C17.0128 8.00454 17.0128 8.9754 17.0007 9.94625C16.9927 10.4277 16.6437 10.7807 16.1302 10.7406C15.6488 10.7045 15.4 10.865 15.3078 11.3263C15.2877 11.4226 15.2476 11.5189 15.1914 11.5951C15.039 11.8037 15.1112 11.9481 15.2877 12.0886C15.376 12.1568 15.4522 12.237 15.5244 12.3212C15.8413 12.6783 15.8614 13.1437 15.5284 13.4847C14.8625 14.1747 14.1845 14.8527 13.4944 15.5186C13.1695 15.8316 12.6921 15.8235 12.3551 15.5267C12.1906 15.3822 12.0502 15.2057 11.9058 15.0533C11.5607 15.1897 11.2518 15.302 10.955 15.4424C10.8707 15.4825 10.7905 15.6109 10.7744 15.7072C10.7423 15.8717 10.7744 16.0522 10.7544 16.2207C10.7062 16.666 10.3933 16.9709 9.948 16.9789C8.98918 16.991 8.03036 16.991 7.07154 16.9789C6.56605 16.9749 6.21702 16.6299 6.25714 16.0883C6.29325 15.6189 6.12876 15.3903 5.69148 15.29C5.50292 15.2458 5.33041 15.1415 5.07767 15.0292C4.95732 15.1696 4.84097 15.3461 4.68853 15.4865C4.31543 15.8396 3.84204 15.8356 3.47295 15.4745C2.81502 14.8286 2.16109 14.1787 1.51921 13.5168C1.14611 13.1316 1.15413 12.6622 1.53525 12.2731C1.67165 12.1327 1.84015 12.0284 1.97655 11.9201C1.90033 11.7556 1.8562 11.6794 1.82811 11.5991C1.66363 11.0495 1.45502 10.6162 0.716845 10.7085C0.327701 10.7566 0.022804 10.3595 0.0187922 9.95027C0.00675678 8.97941 0.00675678 8.00855 0.0187922 7.0377C0.0268158 6.55628 0.375842 6.20325 0.889353 6.24336C1.37077 6.27947 1.6195 6.119 1.71177 5.65764C1.73183 5.56136 1.76794 5.46507 1.8241 5.38885C1.97655 5.18024 1.90835 5.03581 1.72782 4.8954C1.63956 4.8272 1.56735 4.74295 1.49112 4.66271C1.17419 4.30165 1.15413 3.8403 1.4831 3.49929C2.14906 2.80926 2.82705 2.13127 3.51708 1.46531C3.84204 1.15239 4.31543 1.1564 4.65242 1.45729C4.8169 1.60171 4.94929 1.78625 5.08971 1.94673C5.24216 1.87853 5.33443 1.81835 5.43873 1.79027C5.98835 1.64183 6.34941 1.40112 6.2772 0.719115C6.24109 0.313923 6.63425 0.0130383 7.06752 0.00902655C8.02634 -0.00300885 8.98516 -0.00300885 9.94398 0.00902655C10.4374 0.0130383 10.7945 0.350029 10.7544 0.859528C10.7183 1.35699 10.8908 1.60171 11.3561 1.71003C11.5327 1.75015 11.6931 1.85445 11.9098 1.94673ZM13.8194 8.47794C13.8114 5.56136 11.4203 3.18236 8.50375 3.18637C5.58316 3.1944 3.20416 5.5774 3.20416 8.49799C3.20416 11.4306 5.60322 13.8217 8.53985 13.8056C11.4564 13.7936 13.8314 11.3985 13.8194 8.47794Z" fill="#1DA599"/>
<path d="M13.2937 8.50621C13.2937 11.138 11.1394 13.2843 8.50364 13.2843C5.8719 13.2843 3.72559 11.1299 3.72559 8.49418C3.72559 5.86244 5.87992 3.71613 8.51567 3.71613C11.1474 3.71613 13.2977 5.86645 13.2937 8.50621ZM7.2319 9.48509C7.17975 9.46102 7.15166 9.46102 7.13562 9.44497C6.93101 9.23235 6.72641 9.01972 6.52582 8.80309C6.12464 8.38185 5.7355 8.32568 5.41054 8.64663C5.09762 8.95152 5.12972 9.35672 5.50281 9.74987C5.90801 10.1791 6.32122 10.6004 6.73444 11.0216C7.07544 11.3706 7.34423 11.3746 7.6732 11.0256C8.88075 9.76592 10.0923 8.50621 11.2959 7.24651C11.6288 6.89748 11.6449 6.45217 11.34 6.16733C11.0431 5.88651 10.6299 5.92262 10.2969 6.26763C9.81149 6.77312 9.33007 7.28262 8.84865 7.79211C8.30706 8.35778 7.76547 8.92745 7.2319 9.48509Z" fill="#1DA599"/>
</svg>
