<svg width="18" height="18" viewBox="0 0 18 18" fill="none" xmlns="http://www.w3.org/2000/svg">
<path d="M8.19922 8.47438C9.30464 8.47438 10.2805 8.47057 11.2563 8.47438C12.2207 8.47819 13.1888 8.46676 14.1532 8.49344C15.941 8.5468 17.0578 9.66747 17.0083 11.3866C16.9549 13.1896 16.9854 14.9963 17.0044 16.8031C17.0083 17.1576 16.9091 17.2796 16.5547 17.2605C16.0362 17.2377 15.514 17.2224 14.9994 17.2644C14.5611 17.3025 14.5077 17.1157 14.5115 16.7421C14.523 15.6367 14.4925 14.5275 14.4925 13.4221C14.4925 13.1934 14.4849 13.0638 14.1952 13.0638C13.894 13.0638 13.9016 13.2201 13.9016 13.4335C13.9055 14.558 13.8864 15.6863 13.9131 16.8108C13.9207 17.1729 13.8102 17.2644 13.4633 17.2605C11.8547 17.2453 10.2461 17.2529 8.63757 17.2491C8.52322 17.2491 8.36694 17.3139 8.30976 17.1576C8.26402 17.0357 8.38218 16.9747 8.46223 16.9022C10.917 14.7219 10.8827 10.8872 8.44698 8.74121C8.386 8.69928 8.34788 8.63829 8.19922 8.47438Z" fill="#1DA599"/>
<path d="M4.7041 2.10115C5.8362 1.61705 6.83108 1.19013 7.82977 0.767021C8.30624 0.564996 8.80558 0.412525 9.25537 0.164759C9.7166 -0.0906307 10.0978 -0.0182068 10.559 0.172382C12.0227 0.774645 13.5055 1.32735 14.9845 1.90674C15.1408 1.96773 15.3962 1.96392 15.3962 2.17738C15.3962 2.37178 15.1446 2.36797 15.0112 2.39084C14.5233 2.48232 14.3708 2.82157 14.5156 3.19894C14.6986 3.6716 14.6376 4.17476 14.8015 4.64742C15.0798 5.45552 15.1141 6.2598 14.5156 6.97261C14.3403 7.18226 14.2869 7.21275 14.0392 6.93068C13.5894 6.41228 13.8676 6.05778 14.0468 5.59655C14.2298 5.13152 14.5385 4.62074 14.0392 4.11758C13.9172 3.9956 13.9248 3.72115 14.0811 3.57249C14.2069 3.45052 14.184 3.32092 14.1993 3.18369C14.245 2.82157 14.1497 2.70722 13.7685 2.85969C12.747 3.27899 11.7025 3.64111 10.6962 4.08709C10.2007 4.30436 9.80427 4.31579 9.30112 4.08327C7.98224 3.46958 6.62143 2.93212 5.27587 2.36416C5.13483 2.30317 4.99761 2.23456 4.7041 2.10115Z" fill="#1DA599"/>
<path d="M4.80666 17.6229C2.24132 17.7525 -0.0609942 15.4197 0.0114298 12.8124C0.0914773 10.1251 2.12697 8.05912 4.82953 8.04768C7.54733 8.03243 9.66287 10.3652 9.59807 12.9191C9.52946 15.5836 7.50921 17.6229 4.80666 17.6229ZM8.74042 12.8696C8.74804 10.6931 7.01749 8.91296 4.89052 8.90533C2.60726 8.89771 0.86527 10.6092 0.86527 12.8582C0.86527 15.0423 2.63394 16.8224 4.79903 16.8186C6.97556 16.8148 8.7328 15.0537 8.74042 12.8696Z" fill="#1DA599"/>
<path d="M13.2463 4.86865C13.2158 6.18753 12.6097 7.15954 11.4166 7.70843C10.2311 8.25733 9.07236 8.10867 8.06605 7.2777C7.03305 6.42767 6.72811 5.30701 7.01399 4.00719C7.08642 3.67938 7.2122 3.60695 7.52858 3.76324C8.19946 4.09105 8.90083 4.3655 9.56789 4.69712C9.85758 4.84197 10.0901 4.82672 10.3722 4.70475C11.1078 4.38837 11.8626 4.1063 12.5944 3.78611C12.9299 3.64126 13.0976 3.66032 13.17 4.06818C13.2158 4.335 13.2196 4.59802 13.2463 4.86865Z" fill="#1DA599"/>
<path d="M4.96337 11.8899C4.86426 12.252 5.04723 12.4274 5.43984 12.5493C6.22888 12.7933 6.5262 13.2431 6.46903 13.9597C6.41947 14.5734 5.94681 15.1223 5.27594 15.2252C4.94431 15.2748 4.84521 15.3891 4.88332 15.6979C4.89857 15.8351 4.91382 15.9952 4.68511 15.9876C4.47165 15.9799 4.4564 15.8313 4.47546 15.6903C4.51358 15.3701 4.3916 15.271 4.0676 15.229C3.62543 15.1718 3.26331 14.9203 3.08797 14.4895C3.0003 14.2685 2.82496 13.9711 3.00792 13.792C3.19089 13.6128 3.52252 13.7386 3.78553 13.7462C4.00661 13.7501 3.96087 13.9826 4.01042 14.1198C4.07522 14.3028 4.1972 14.4743 4.38017 14.4514C4.60887 14.4247 4.47546 14.196 4.49833 14.055C4.586 13.5595 4.44878 13.2545 3.89988 13.0868C3.27856 12.8962 3.01555 12.4045 3.04604 11.8099C3.07273 11.2114 3.47677 10.693 4.08285 10.5215C4.34967 10.4452 4.62031 10.4224 4.5517 10.0336C4.52502 9.89252 4.63556 9.86203 4.75753 9.86203C4.8757 9.86203 4.99768 9.88871 4.96718 10.0259C4.88332 10.4338 5.18064 10.4414 5.43603 10.4948C5.88964 10.5939 6.21364 10.8645 6.35467 11.2991C6.40423 11.4515 6.56051 11.7489 6.29368 11.7946C6.01924 11.8403 5.66093 11.989 5.4246 11.6498C5.39791 11.6078 5.40935 11.543 5.39029 11.4935C5.33311 11.3524 5.23782 11.2305 5.07391 11.2571C4.89476 11.2914 4.99005 11.4592 4.97481 11.5659C4.95194 11.6612 4.96337 11.7527 4.96337 11.8899ZM4.53645 12.2177C4.53645 12.0157 4.55932 11.8594 4.52883 11.7069C4.50214 11.5659 4.66986 11.3029 4.36873 11.3105C4.12859 11.3181 4.09428 11.5468 4.09047 11.7451C4.09047 11.9852 4.22388 12.1262 4.53645 12.2177ZM4.98243 14.44C5.27213 14.3523 5.40935 14.177 5.3941 13.9254C5.38267 13.6929 5.26069 13.5252 4.98243 13.529C4.98243 13.8225 4.98243 14.1122 4.98243 14.44Z" fill="#1DA599"/>
</svg>
