<svg width="115" height="30" viewBox="0 0 115 30" fill="none" xmlns="http://www.w3.org/2000/svg">
<rect x="0.433333" y="0.433333" width="114.133" height="29.1333" rx="14.5667" fill="#003C92"/>
<path d="M31.2063 18H32.1943V13.8747L34.0403 18H34.725L36.5623 13.8747V18H37.5503V11.9767H36.493L34.387 16.7L32.2723 11.9767H31.2063V18ZM43.3989 15.608C43.3989 14.1087 42.3242 13.1467 40.9636 13.1467C39.6029 13.1467 38.5282 14.1087 38.5282 15.608C38.5282 17.1073 39.5596 18.078 40.9202 18.078C42.2896 18.078 43.3989 17.1073 43.3989 15.608ZM39.5336 15.608C39.5336 14.5247 40.2009 14.0047 40.9462 14.0047C41.6829 14.0047 42.3849 14.5247 42.3849 15.608C42.3849 16.6913 41.6569 17.22 40.9202 17.22C40.1749 17.22 39.5336 16.6913 39.5336 15.608ZM45.3636 15.4867C45.3636 14.4727 45.8143 14.1693 46.5423 14.1693H46.7936V13.1467C46.1176 13.1467 45.6409 13.4413 45.3636 13.918V13.2247H44.3756V18H45.3636V15.4867ZM49.7124 13.9787C50.4491 13.9787 51.0298 14.4467 51.0471 15.1833H48.4038C48.5078 14.4293 49.0451 13.9787 49.7124 13.9787ZM51.9484 16.5787H50.8824C50.7004 16.9513 50.3624 17.246 49.7558 17.246C49.0278 17.246 48.4644 16.7693 48.3951 15.9807H52.0438C52.0698 15.816 52.0784 15.66 52.0784 15.4953C52.0784 14.0913 51.1164 13.1467 49.7558 13.1467C48.3431 13.1467 47.3724 14.1087 47.3724 15.608C47.3724 17.1073 48.3864 18.078 49.7558 18.078C50.9258 18.078 51.6798 17.4107 51.9484 16.5787ZM57.2694 11.9767H55.302V18H57.2694C59.202 18 60.4674 16.8647 60.4674 15.01C60.4674 13.1467 59.202 11.9767 57.2694 11.9767ZM56.29 17.194V12.7827H57.2694C58.6907 12.7827 59.4534 13.632 59.4534 15.01C59.4534 16.3793 58.6907 17.194 57.2694 17.194H56.29ZM63.4572 13.9787C64.1939 13.9787 64.7746 14.4467 64.7919 15.1833H62.1486C62.2526 14.4293 62.7899 13.9787 63.4572 13.9787ZM65.6932 16.5787H64.6272C64.4452 16.9513 64.1072 17.246 63.5006 17.246C62.7726 17.246 62.2092 16.7693 62.1399 15.9807H65.7886C65.8146 15.816 65.8232 15.66 65.8232 15.4953C65.8232 14.0913 64.8612 13.1467 63.5006 13.1467C62.0879 13.1467 61.1172 14.1087 61.1172 15.608C61.1172 17.1073 62.1312 18.078 63.5006 18.078C64.6706 18.078 65.4246 17.4107 65.6932 16.5787ZM66.9515 16.674C66.9515 17.6447 67.4802 18 68.3295 18H69.1095V17.1767H68.5028C68.0868 17.1767 67.9482 17.0293 67.9482 16.674V14.0307H69.1095V13.2247H67.9482V12.0373H66.9515V13.2247H66.3882V14.0307H66.9515V16.674ZM69.6908 15.5907C69.6908 17.064 70.6875 18.078 71.9268 18.078C72.7241 18.078 73.2961 17.6967 73.5995 17.2893V18H74.5961V13.2247H73.5995V13.918C73.3048 13.528 72.7501 13.1467 71.9441 13.1467C70.6875 13.1467 69.6908 14.1173 69.6908 15.5907ZM73.5995 15.608C73.5995 16.6393 72.8975 17.22 72.1521 17.22C71.4155 17.22 70.7048 16.622 70.7048 15.5907C70.7048 14.5593 71.4155 14.0047 72.1521 14.0047C72.8975 14.0047 73.5995 14.5853 73.5995 15.608ZM75.8938 18H76.8818V13.2247H75.8938V18ZM76.3965 12.592C76.7431 12.592 77.0205 12.3147 77.0205 11.9593C77.0205 11.604 76.7431 11.3267 76.3965 11.3267C76.0411 11.3267 75.7638 11.604 75.7638 11.9593C75.7638 12.3147 76.0411 12.592 76.3965 12.592ZM78.179 18H79.167V11.5867H78.179V18ZM84.0261 16.6653C83.9741 14.9407 81.2788 15.478 81.2788 14.516C81.2788 14.1953 81.5561 13.9787 82.0848 13.9787C82.6221 13.9787 82.9428 14.2647 82.9775 14.6807H83.9655C83.9135 13.7273 83.2028 13.1467 82.1195 13.1467C80.9928 13.1467 80.2821 13.762 80.2821 14.5247C80.2821 16.2753 83.0555 15.738 83.0555 16.674C83.0555 17.0033 82.7521 17.246 82.1801 17.246C81.6341 17.246 81.2615 16.9253 81.2268 16.5353H80.2041C80.2475 17.402 81.0535 18.078 82.1975 18.078C83.3241 18.078 84.0261 17.4713 84.0261 16.6653Z" fill="white"/>
<rect x="0.433333" y="0.433333" width="114.133" height="29.1333" rx="14.5667" stroke="#003C92" stroke-width="0.866667"/>
</svg>
