<svg width="1226" height="50" viewBox="0 0 1226 50" fill="none" xmlns="http://www.w3.org/2000/svg">
<g filter="url(#filter0_d_925_6301)">
<rect x="24" y="2" width="260" height="47" fill="white" shape-rendering="crispEdges"/>
<rect x="23.7658" y="1.76585" width="260.468" height="47.4683" stroke="black" stroke-opacity="0.2" stroke-width="0.468302" shape-rendering="crispEdges"/>
</g>
<path d="M81.8281 31H83.9881L79.5061 18.472H77.1301L72.6481 31H74.7901L75.6901 28.444H80.9281L81.8281 31ZM80.3521 26.77H76.2661L78.3181 20.956L80.3521 26.77ZM85.2529 26.032C85.2529 29.146 87.2689 31.162 90.1129 31.162C92.5429 31.162 94.1269 29.812 94.6849 27.868H92.4709C92.0929 28.894 91.3369 29.434 90.1129 29.434C88.4569 29.434 87.3589 28.21 87.3589 26.032C87.3589 23.872 88.4569 22.648 90.1129 22.648C91.3369 22.648 92.1289 23.26 92.4709 24.214H94.6849C94.1269 22.126 92.5429 20.92 90.1129 20.92C87.2689 20.92 85.2529 22.936 85.2529 26.032ZM96.0459 26.032C96.0459 29.146 98.0619 31.162 100.906 31.162C103.336 31.162 104.92 29.812 105.478 27.868H103.264C102.886 28.894 102.13 29.434 100.906 29.434C99.2499 29.434 98.1519 28.21 98.1519 26.032C98.1519 23.872 99.2499 22.648 100.906 22.648C102.13 22.648 102.922 23.26 103.264 24.214H105.478C104.92 22.126 103.336 20.92 100.906 20.92C98.0619 20.92 96.0459 22.936 96.0459 26.032ZM116.973 26.032C116.973 22.918 114.741 20.92 111.915 20.92C109.089 20.92 106.857 22.918 106.857 26.032C106.857 29.146 108.999 31.162 111.825 31.162C114.669 31.162 116.973 29.146 116.973 26.032ZM108.945 26.032C108.945 23.782 110.331 22.702 111.879 22.702C113.409 22.702 114.867 23.782 114.867 26.032C114.867 28.282 113.355 29.38 111.825 29.38C110.277 29.38 108.945 28.282 108.945 26.032ZM127.983 21.082H125.931V26.608C125.931 28.426 124.941 29.362 123.429 29.362C121.935 29.362 120.945 28.426 120.945 26.608V21.082H118.911V26.914C118.911 29.686 120.675 31.144 122.997 31.144C124.167 31.144 125.283 30.658 125.931 29.812V31H127.983V21.082ZM137.729 31H139.763V25.15C139.763 22.378 138.017 20.92 135.695 20.92C134.507 20.92 133.409 21.406 132.743 22.216V21.082H130.691V31H132.743V25.456C132.743 23.638 133.733 22.702 135.245 22.702C136.739 22.702 137.729 23.638 137.729 25.456V31ZM142.704 28.246C142.704 30.262 143.802 31 145.566 31H147.186V29.29H145.926C145.062 29.29 144.774 28.984 144.774 28.246V22.756H147.186V21.082H144.774V18.616H142.704V21.082H141.534V22.756H142.704V28.246ZM148.394 25.996C148.394 29.056 150.464 31.162 153.038 31.162C154.694 31.162 155.882 30.37 156.512 29.524V31H158.582V21.082H156.512V22.522C155.9 21.712 154.748 20.92 153.074 20.92C150.464 20.92 148.394 22.936 148.394 25.996ZM156.512 26.032C156.512 28.174 155.054 29.38 153.506 29.38C151.976 29.38 150.5 28.138 150.5 25.996C150.5 23.854 151.976 22.702 153.506 22.702C155.054 22.702 156.512 23.908 156.512 26.032ZM168.315 31H170.349V25.15C170.349 22.378 168.603 20.92 166.281 20.92C165.093 20.92 163.995 21.406 163.329 22.216V21.082H161.277V31H163.329V25.456C163.329 23.638 164.319 22.702 165.831 22.702C167.325 22.702 168.315 23.638 168.315 25.456V31ZM173.29 28.246C173.29 30.262 174.388 31 176.152 31H177.772V29.29H176.512C175.648 29.29 175.36 28.984 175.36 28.246V22.756H177.772V21.082H175.36V18.616H173.29V21.082H172.12V22.756H173.29V28.246ZM192.781 31H194.941L190.459 18.472H188.083L183.601 31H185.743L186.643 28.444H191.881L192.781 31ZM191.305 26.77H187.219L189.271 20.956L191.305 26.77ZM203.928 31H205.962V25.15C205.962 22.378 204.216 20.92 201.894 20.92C200.706 20.92 199.608 21.406 198.942 22.216V21.082H196.89V31H198.942V25.456C198.942 23.638 199.932 22.702 201.444 22.702C202.938 22.702 203.928 23.638 203.928 25.456V31ZM207.895 25.996C207.895 29.056 209.965 31.162 212.539 31.162C214.195 31.162 215.383 30.37 216.013 29.524V31H218.083V21.082H216.013V22.522C215.401 21.712 214.249 20.92 212.575 20.92C209.965 20.92 207.895 22.936 207.895 25.996ZM216.013 26.032C216.013 28.174 214.555 29.38 213.007 29.38C211.477 29.38 210.001 28.138 210.001 25.996C210.001 23.854 211.477 22.702 213.007 22.702C214.555 22.702 216.013 23.908 216.013 26.032ZM220.779 31H222.831V17.68H220.779V31ZM229.431 28.642L226.641 21.082H224.355L228.261 30.838L226.245 35.662H228.369L234.453 21.082H232.329L229.431 28.642ZM243.399 28.228C243.291 24.646 237.693 25.762 237.693 23.764C237.693 23.098 238.269 22.648 239.367 22.648C240.483 22.648 241.149 23.242 241.221 24.106H243.273C243.165 22.126 241.689 20.92 239.439 20.92C237.099 20.92 235.623 22.198 235.623 23.782C235.623 27.418 241.383 26.302 241.383 28.246C241.383 28.93 240.753 29.434 239.565 29.434C238.431 29.434 237.657 28.768 237.585 27.958H235.461C235.551 29.758 237.225 31.162 239.601 31.162C241.941 31.162 243.399 29.902 243.399 28.228ZM245.941 28.246C245.941 30.262 247.039 31 248.803 31H250.423V29.29H249.163C248.299 29.29 248.011 28.984 248.011 28.246V22.756H250.423V21.082H248.011V18.616H245.941V21.082H244.771V22.756H245.941V28.246Z" fill="#212832"/>
<path d="M284 2H283V49H284V2Z" fill="#946FB0" stroke="#946FB0" stroke-width="0.936604"/>
<circle cx="24.4151" cy="25.4151" r="23.4151" fill="#946FB0" stroke="#946FB0"/>
<path d="M16.3494 24.9942C16.3494 28.9654 17.3983 31.9625 21.2197 31.9625C25.041 31.9625 26.09 28.9654 26.09 24.9942C26.09 21.0979 25.041 18.1008 21.2197 18.1008C17.3983 18.1008 16.3494 21.0979 16.3494 24.9942ZM23.992 24.9942C23.992 27.6729 23.7111 30.0144 21.2197 30.0144C18.7283 30.0144 18.4473 27.6729 18.4473 24.9942C18.4473 22.4466 18.7283 20.0489 21.2197 20.0489C23.7111 20.0489 23.992 22.4466 23.992 24.9942ZM29.8107 32H31.9649V18.3443H28.0686V20.2925H29.8107V32Z" fill="#212832"/>
<g filter="url(#filter1_d_925_6301)">
<rect x="965" y="1" width="260" height="47" fill="white" shape-rendering="crispEdges"/>
<rect x="964.766" y="0.765849" width="260.468" height="47.4683" stroke="black" stroke-opacity="0.2" stroke-width="0.468302" shape-rendering="crispEdges"/>
</g>
<path d="M1011.91 24.718C1011.91 20.974 1009.09 18.328 1005.52 18.328C1002 18.328 999.135 20.974 999.135 24.718C999.135 28.48 1002 31.126 1005.52 31.126C1009.09 31.126 1011.91 28.48 1011.91 24.718ZM1001.24 24.718C1001.24 21.892 1003.04 20.128 1005.52 20.128C1008.01 20.128 1009.81 21.892 1009.81 24.718C1009.81 27.544 1008.01 29.344 1005.52 29.344C1003.04 29.344 1001.24 27.544 1001.24 24.718ZM1014.26 28.246C1014.26 30.262 1015.36 31 1017.12 31H1018.74V29.29H1017.48C1016.62 29.29 1016.33 28.984 1016.33 28.246V22.756H1018.74V21.082H1016.33V18.616H1014.26V21.082H1013.09V22.756H1014.26V28.246ZM1020.63 31H1022.68V25.456C1022.68 23.638 1023.67 22.702 1025.19 22.702C1026.68 22.702 1027.67 23.638 1027.67 25.456V31H1029.7V25.15C1029.7 22.378 1027.98 20.92 1025.76 20.92C1024.48 20.92 1023.37 21.406 1022.68 22.234V17.68H1020.63V31ZM1036.5 22.648C1038.03 22.648 1039.23 23.62 1039.27 25.15H1033.78C1033.99 23.584 1035.11 22.648 1036.5 22.648ZM1041.14 28.048H1038.93C1038.55 28.822 1037.85 29.434 1036.59 29.434C1035.07 29.434 1033.9 28.444 1033.76 26.806H1041.34C1041.39 26.464 1041.41 26.14 1041.41 25.798C1041.41 22.882 1039.41 20.92 1036.59 20.92C1033.65 20.92 1031.64 22.918 1031.64 26.032C1031.64 29.146 1033.74 31.162 1036.59 31.162C1039.02 31.162 1040.58 29.776 1041.14 28.048ZM1045.48 25.78C1045.48 23.674 1046.42 23.044 1047.93 23.044H1048.45V20.92C1047.05 20.92 1046.06 21.532 1045.48 22.522V21.082H1043.43V31H1045.48V25.78ZM1055.01 31H1057.07V22.432L1060.9 31H1062.32L1066.14 22.432V31H1068.19V18.49H1065.99L1061.62 28.3L1057.23 18.49H1055.01V31ZM1070.2 25.996C1070.2 29.056 1072.27 31.162 1074.85 31.162C1076.5 31.162 1077.69 30.37 1078.32 29.524V31H1080.39V21.082H1078.32V22.522C1077.71 21.712 1076.56 20.92 1074.88 20.92C1072.27 20.92 1070.2 22.936 1070.2 25.996ZM1078.32 26.032C1078.32 28.174 1076.86 29.38 1075.32 29.38C1073.79 29.38 1072.31 28.138 1072.31 25.996C1072.31 23.854 1073.79 22.702 1075.32 22.702C1076.86 22.702 1078.32 23.908 1078.32 26.032ZM1090.12 31H1092.16V25.15C1092.16 22.378 1090.41 20.92 1088.09 20.92C1086.9 20.92 1085.8 21.406 1085.14 22.216V21.082H1083.09V31H1085.14V25.456C1085.14 23.638 1086.13 22.702 1087.64 22.702C1089.13 22.702 1090.12 23.638 1090.12 25.456V31ZM1094.09 25.996C1094.09 29.056 1096.16 31.162 1098.74 31.162C1100.39 31.162 1101.58 30.37 1102.21 29.524V31H1104.28V21.082H1102.21V22.522C1101.6 21.712 1100.45 20.92 1098.77 20.92C1096.16 20.92 1094.09 22.936 1094.09 25.996ZM1102.21 26.032C1102.21 28.174 1100.75 29.38 1099.2 29.38C1097.67 29.38 1096.2 28.138 1096.2 25.996C1096.2 23.854 1097.67 22.702 1099.2 22.702C1100.75 22.702 1102.21 23.908 1102.21 26.032ZM1106.29 25.996C1106.29 29.056 1108.36 31.162 1110.97 31.162C1112.59 31.162 1113.78 30.352 1114.41 29.506V31.162C1114.41 33.142 1113.22 34.114 1111.64 34.114C1110.22 34.114 1109.12 33.412 1108.81 32.386H1106.78C1107.03 34.582 1108.99 35.896 1111.64 35.896C1114.73 35.896 1116.48 33.862 1116.48 31.162V21.082H1114.41V22.522C1113.8 21.676 1112.59 20.92 1110.97 20.92C1108.36 20.92 1106.29 22.936 1106.29 25.996ZM1114.41 26.032C1114.41 28.174 1112.95 29.38 1111.4 29.38C1109.87 29.38 1108.4 28.138 1108.4 25.996C1108.4 23.854 1109.87 22.702 1111.4 22.702C1112.95 22.702 1114.41 23.908 1114.41 26.032ZM1123.35 22.648C1124.88 22.648 1126.09 23.62 1126.12 25.15H1120.63C1120.85 23.584 1121.96 22.648 1123.35 22.648ZM1127.99 28.048H1125.78C1125.4 28.822 1124.7 29.434 1123.44 29.434C1121.93 29.434 1120.76 28.444 1120.61 26.806H1128.19C1128.25 26.464 1128.26 26.14 1128.26 25.798C1128.26 22.882 1126.27 20.92 1123.44 20.92C1120.51 20.92 1118.49 22.918 1118.49 26.032C1118.49 29.146 1120.6 31.162 1123.44 31.162C1125.87 31.162 1127.44 29.776 1127.99 28.048ZM1132.34 25.78C1132.34 23.674 1133.27 23.044 1134.78 23.044H1135.31V20.92C1133.9 20.92 1132.91 21.532 1132.34 22.522V21.082H1130.28V31H1132.34V25.78ZM1137.19 31H1139.24V21.082H1137.19V31ZM1138.24 19.768C1138.96 19.768 1139.53 19.192 1139.53 18.454C1139.53 17.716 1138.96 17.14 1138.24 17.14C1137.5 17.14 1136.92 17.716 1136.92 18.454C1136.92 19.192 1137.5 19.768 1138.24 19.768ZM1141.25 25.996C1141.25 29.056 1143.32 31.162 1145.9 31.162C1147.55 31.162 1148.74 30.37 1149.37 29.524V31H1151.44V21.082H1149.37V22.522C1148.76 21.712 1147.61 20.92 1145.93 20.92C1143.32 20.92 1141.25 22.936 1141.25 25.996ZM1149.37 26.032C1149.37 28.174 1147.91 29.38 1146.37 29.38C1144.84 29.38 1143.36 28.138 1143.36 25.996C1143.36 23.854 1144.84 22.702 1146.37 22.702C1147.91 22.702 1149.37 23.908 1149.37 26.032ZM1154.14 31H1156.19V17.68H1154.14V31ZM1170.2 22.234C1170.2 23.476 1169.48 24.358 1167.88 24.358H1165.61V20.164H1167.88C1169.48 20.164 1170.2 20.974 1170.2 22.234ZM1163.56 18.49V31H1165.61V25.996H1167.18L1170.06 31H1172.5L1169.41 25.816C1171.51 25.294 1172.31 23.71 1172.31 22.234C1172.31 20.2 1170.85 18.49 1167.88 18.49H1163.56ZM1184.38 26.032C1184.38 22.918 1182.15 20.92 1179.32 20.92C1176.5 20.92 1174.27 22.918 1174.27 26.032C1174.27 29.146 1176.41 31.162 1179.23 31.162C1182.08 31.162 1184.38 29.146 1184.38 26.032ZM1176.35 26.032C1176.35 23.782 1177.74 22.702 1179.29 22.702C1180.82 22.702 1182.28 23.782 1182.28 26.032C1182.28 28.282 1180.76 29.38 1179.23 29.38C1177.69 29.38 1176.35 28.282 1176.35 26.032ZM1186.41 31H1188.46V17.68H1186.41V31ZM1195.33 22.648C1196.86 22.648 1198.07 23.62 1198.1 25.15H1192.61C1192.83 23.584 1193.95 22.648 1195.33 22.648ZM1199.98 28.048H1197.76C1197.38 28.822 1196.68 29.434 1195.42 29.434C1193.91 29.434 1192.74 28.444 1192.6 26.806H1200.17C1200.23 26.464 1200.25 26.14 1200.25 25.798C1200.25 22.882 1198.25 20.92 1195.42 20.92C1192.49 20.92 1190.47 22.918 1190.47 26.032C1190.47 29.146 1192.58 31.162 1195.42 31.162C1197.85 31.162 1199.42 29.776 1199.98 28.048ZM1209.66 28.228C1209.56 24.646 1203.96 25.762 1203.96 23.764C1203.96 23.098 1204.53 22.648 1205.63 22.648C1206.75 22.648 1207.41 23.242 1207.49 24.106H1209.54C1209.43 22.126 1207.95 20.92 1205.7 20.92C1203.36 20.92 1201.89 22.198 1201.89 23.782C1201.89 27.418 1207.65 26.302 1207.65 28.246C1207.65 28.93 1207.02 29.434 1205.83 29.434C1204.7 29.434 1203.92 28.768 1203.85 27.958H1201.73C1201.82 29.758 1203.49 31.162 1205.87 31.162C1208.21 31.162 1209.66 29.902 1209.66 28.228Z" fill="#212832"/>
<path d="M1225 1H1223V48H1225V1Z" fill="#CF1C54" stroke="#CF1C54" stroke-width="0.936604"/>
<circle cx="965.415" cy="24.4151" r="23.4151" fill="#E9336C" stroke="#E9336C"/>
<path d="M954.47 24.6055C954.47 28.5767 955.519 31.5739 959.34 31.5739C963.162 31.5739 964.211 28.5767 964.211 24.6055C964.211 20.7093 963.162 17.7121 959.34 17.7121C955.519 17.7121 954.47 20.7093 954.47 24.6055ZM962.113 24.6055C962.113 27.2842 961.832 29.6257 959.34 29.6257C956.849 29.6257 956.568 27.2842 956.568 24.6055C956.568 22.058 956.849 19.6603 959.34 19.6603C961.832 19.6603 962.113 22.058 962.113 24.6055ZM972.989 31.6113H975.087V28.7641H976.829V26.9096H975.087V18.1242H972.502L966.208 27.1531V28.7641H972.989V31.6113ZM968.662 26.9096L973.083 20.2972V26.9096H968.662Z" fill="#212832"/>
<g filter="url(#filter2_d_925_6301)">
<rect x="337" y="2" width="260" height="47" fill="white" shape-rendering="crispEdges"/>
<rect x="336.766" y="1.76585" width="260.468" height="47.4683" stroke="black" stroke-opacity="0.2" stroke-width="0.468302" shape-rendering="crispEdges"/>
</g>
<path d="M597 2H595V49H597V2Z" fill="#A9CF54" stroke="#A9CF54" stroke-width="0.936604"/>
<path d="M415.907 22.234C415.907 23.476 415.187 24.358 413.585 24.358H411.317V20.164H413.585C415.187 20.164 415.907 20.974 415.907 22.234ZM409.265 18.49V31H411.317V25.996H412.883L415.763 31H418.211L415.115 25.816C417.221 25.294 418.013 23.71 418.013 22.234C418.013 20.2 416.555 18.49 413.585 18.49H409.265ZM420.638 31H422.69V21.082H420.638V31ZM421.682 19.768C422.402 19.768 422.978 19.192 422.978 18.454C422.978 17.716 422.402 17.14 421.682 17.14C420.944 17.14 420.368 17.716 420.368 18.454C420.368 19.192 420.944 19.768 421.682 19.768ZM432.782 28.228C432.674 24.646 427.076 25.762 427.076 23.764C427.076 23.098 427.652 22.648 428.75 22.648C429.866 22.648 430.532 23.242 430.604 24.106H432.656C432.548 22.126 431.072 20.92 428.822 20.92C426.482 20.92 425.006 22.198 425.006 23.782C425.006 27.418 430.766 26.302 430.766 28.246C430.766 28.93 430.136 29.434 428.948 29.434C427.814 29.434 427.04 28.768 426.968 27.958H424.844C424.934 29.758 426.608 31.162 428.984 31.162C431.324 31.162 432.782 29.902 432.782 28.228ZM434.999 31H437.051V26.734L440.723 31H443.495L438.923 26.05L443.495 21.082H440.651L437.051 25.42V17.68H434.999V31ZM449.642 31H451.694V22.432L455.528 31H456.95L460.766 22.432V31H462.818V18.49H460.622L456.248 28.3L451.856 18.49H449.642V31ZM464.831 25.996C464.831 29.056 466.901 31.162 469.475 31.162C471.131 31.162 472.319 30.37 472.949 29.524V31H475.019V21.082H472.949V22.522C472.337 21.712 471.185 20.92 469.511 20.92C466.901 20.92 464.831 22.936 464.831 25.996ZM472.949 26.032C472.949 28.174 471.491 29.38 469.943 29.38C468.413 29.38 466.937 28.138 466.937 25.996C466.937 23.854 468.413 22.702 469.943 22.702C471.491 22.702 472.949 23.908 472.949 26.032ZM484.752 31H486.786V25.15C486.786 22.378 485.04 20.92 482.718 20.92C481.53 20.92 480.432 21.406 479.766 22.216V21.082H477.714V31H479.766V25.456C479.766 23.638 480.756 22.702 482.268 22.702C483.762 22.702 484.752 23.638 484.752 25.456V31ZM488.72 25.996C488.72 29.056 490.79 31.162 493.364 31.162C495.02 31.162 496.208 30.37 496.838 29.524V31H498.908V21.082H496.838V22.522C496.226 21.712 495.074 20.92 493.4 20.92C490.79 20.92 488.72 22.936 488.72 25.996ZM496.838 26.032C496.838 28.174 495.38 29.38 493.832 29.38C492.302 29.38 490.826 28.138 490.826 25.996C490.826 23.854 492.302 22.702 493.832 22.702C495.38 22.702 496.838 23.908 496.838 26.032ZM500.919 25.996C500.919 29.056 502.989 31.162 505.599 31.162C507.219 31.162 508.407 30.352 509.037 29.506V31.162C509.037 33.142 507.849 34.114 506.265 34.114C504.843 34.114 503.745 33.412 503.439 32.386H501.405C501.657 34.582 503.619 35.896 506.265 35.896C509.361 35.896 511.107 33.862 511.107 31.162V21.082H509.037V22.522C508.425 21.676 507.219 20.92 505.599 20.92C502.989 20.92 500.919 22.936 500.919 25.996ZM509.037 26.032C509.037 28.174 507.579 29.38 506.031 29.38C504.501 29.38 503.025 28.138 503.025 25.996C503.025 23.854 504.501 22.702 506.031 22.702C507.579 22.702 509.037 23.908 509.037 26.032ZM517.978 22.648C519.508 22.648 520.714 23.62 520.75 25.15H515.26C515.476 23.584 516.592 22.648 517.978 22.648ZM522.622 28.048H520.408C520.03 28.822 519.328 29.434 518.068 29.434C516.556 29.434 515.386 28.444 515.242 26.806H522.82C522.874 26.464 522.892 26.14 522.892 25.798C522.892 22.882 520.894 20.92 518.068 20.92C515.134 20.92 513.118 22.918 513.118 26.032C513.118 29.146 515.224 31.162 518.068 31.162C520.498 31.162 522.064 29.776 522.622 28.048ZM526.964 25.78C526.964 23.674 527.9 23.044 529.412 23.044H529.934V20.92C528.53 20.92 527.54 21.532 526.964 22.522V21.082H524.912V31H526.964V25.78ZM539.218 28.228C539.11 24.646 533.512 25.762 533.512 23.764C533.512 23.098 534.088 22.648 535.186 22.648C536.302 22.648 536.968 23.242 537.04 24.106H539.092C538.984 22.126 537.508 20.92 535.258 20.92C532.918 20.92 531.442 22.198 531.442 23.782C531.442 27.418 537.202 26.302 537.202 28.246C537.202 28.93 536.572 29.434 535.384 29.434C534.25 29.434 533.476 28.768 533.404 27.958H531.28C531.37 29.758 533.044 31.162 535.42 31.162C537.76 31.162 539.218 29.902 539.218 28.228Z" fill="#212832"/>
<circle cx="336.415" cy="25.4151" r="23.4151" fill="#A9CF54" stroke="#A9CF54"/>
<path d="M326.128 25.17C326.128 29.1412 327.177 32.1383 330.999 32.1383C334.82 32.1383 335.869 29.1412 335.869 25.17C335.869 21.2737 334.82 18.2766 330.999 18.2766C327.177 18.2766 326.128 21.2737 326.128 25.17ZM333.771 25.17C333.771 27.8487 333.49 30.1902 330.999 30.1902C328.507 30.1902 328.226 27.8487 328.226 25.17C328.226 22.6224 328.507 20.2247 330.999 20.2247C333.49 20.2247 333.771 22.6224 333.771 25.17ZM337.96 31.9885H347.064V30.2089H341.126C343.317 28.2046 346.689 25.6758 346.689 22.3602C346.689 19.9063 345.116 18.2391 342.343 18.2391C339.927 18.2391 338.016 19.6815 337.941 22.6412H340.002C340.058 21.1051 340.864 20.0561 342.362 20.0561C343.954 20.0561 344.573 21.0302 344.573 22.4538C344.573 25.1325 341.182 27.6052 337.96 30.4337V31.9885Z" fill="#212832"/>
<g filter="url(#filter3_d_925_6301)">
<rect x="653" y="2" width="260" height="47" fill="white" shape-rendering="crispEdges"/>
<rect x="652.766" y="1.76585" width="260.468" height="47.4683" stroke="black" stroke-opacity="0.2" stroke-width="0.468302" shape-rendering="crispEdges"/>
</g>
<path d="M913 2H911V49H913V2Z" fill="#3498DB" stroke="#3498DB" stroke-width="0.936604"/>
<path d="M712.298 31H714.35V25.528H718.49V23.854H714.35V20.164H719.66V18.49H712.298V31ZM721.562 31H723.614V21.082H721.562V31ZM722.606 19.768C723.326 19.768 723.902 19.192 723.902 18.454C723.902 17.716 723.326 17.14 722.606 17.14C721.868 17.14 721.292 17.716 721.292 18.454C721.292 19.192 721.868 19.768 722.606 19.768ZM733.346 31H735.38V25.15C735.38 22.378 733.634 20.92 731.312 20.92C730.124 20.92 729.026 21.406 728.36 22.216V21.082H726.308V31H728.36V25.456C728.36 23.638 729.35 22.702 730.862 22.702C732.356 22.702 733.346 23.638 733.346 25.456V31ZM737.313 25.996C737.313 29.056 739.383 31.162 741.957 31.162C743.613 31.162 744.801 30.37 745.431 29.524V31H747.501V21.082H745.431V22.522C744.819 21.712 743.667 20.92 741.993 20.92C739.383 20.92 737.313 22.936 737.313 25.996ZM745.431 26.032C745.431 28.174 743.973 29.38 742.425 29.38C740.895 29.38 739.419 28.138 739.419 25.996C739.419 23.854 740.895 22.702 742.425 22.702C743.973 22.702 745.431 23.908 745.431 26.032ZM757.235 31H759.269V25.15C759.269 22.378 757.523 20.92 755.201 20.92C754.013 20.92 752.915 21.406 752.249 22.216V21.082H750.197V31H752.249V25.456C752.249 23.638 753.239 22.702 754.751 22.702C756.245 22.702 757.235 23.638 757.235 25.456V31ZM761.202 26.032C761.202 29.146 763.218 31.162 766.062 31.162C768.492 31.162 770.076 29.812 770.634 27.868H768.42C768.042 28.894 767.286 29.434 766.062 29.434C764.406 29.434 763.308 28.21 763.308 26.032C763.308 23.872 764.406 22.648 766.062 22.648C767.286 22.648 768.078 23.26 768.42 24.214H770.634C770.076 22.126 768.492 20.92 766.062 20.92C763.218 20.92 761.202 22.936 761.202 26.032ZM776.855 22.648C778.385 22.648 779.591 23.62 779.627 25.15H774.137C774.353 23.584 775.469 22.648 776.855 22.648ZM781.499 28.048H779.285C778.907 28.822 778.205 29.434 776.945 29.434C775.433 29.434 774.263 28.444 774.119 26.806H781.697C781.751 26.464 781.769 26.14 781.769 25.798C781.769 22.882 779.771 20.92 776.945 20.92C774.011 20.92 771.995 22.918 771.995 26.032C771.995 29.146 774.101 31.162 776.945 31.162C779.375 31.162 780.941 29.776 781.499 28.048ZM795.376 18.472H788.464V31H795.376V29.326H790.516V25.492H794.836V23.818H790.516V20.146H795.376V18.472ZM803.034 31H805.356L802.152 25.978L805.356 21.082H803.214L801.198 24.448L799.056 21.082H796.734L799.938 26.122L796.734 31H798.876L800.892 27.634L803.034 31ZM811.062 22.648C812.592 22.648 813.798 23.62 813.834 25.15H808.344C808.56 23.584 809.676 22.648 811.062 22.648ZM815.706 28.048H813.492C813.114 28.822 812.412 29.434 811.152 29.434C809.64 29.434 808.47 28.444 808.326 26.806H815.904C815.958 26.464 815.976 26.14 815.976 25.798C815.976 22.882 813.978 20.92 811.152 20.92C808.218 20.92 806.202 22.918 806.202 26.032C806.202 29.146 808.308 31.162 811.152 31.162C813.582 31.162 815.148 29.776 815.706 28.048ZM817.312 26.032C817.312 29.146 819.328 31.162 822.172 31.162C824.602 31.162 826.186 29.812 826.744 27.868H824.53C824.152 28.894 823.396 29.434 822.172 29.434C820.516 29.434 819.418 28.21 819.418 26.032C819.418 23.872 820.516 22.648 822.172 22.648C823.396 22.648 824.188 23.26 824.53 24.214H826.744C826.186 22.126 824.602 20.92 822.172 20.92C819.328 20.92 817.312 22.936 817.312 26.032ZM837.77 21.082H835.718V26.608C835.718 28.426 834.728 29.362 833.216 29.362C831.722 29.362 830.732 28.426 830.732 26.608V21.082H828.698V26.914C828.698 29.686 830.462 31.144 832.784 31.144C833.954 31.144 835.07 30.658 835.718 29.812V31H837.77V21.082ZM840.802 28.246C840.802 30.262 841.9 31 843.664 31H845.284V29.29H844.024C843.16 29.29 842.872 28.984 842.872 28.246V22.756H845.284V21.082H842.872V18.616H840.802V21.082H839.632V22.756H840.802V28.246ZM847.175 31H849.227V21.082H847.175V31ZM848.219 19.768C848.939 19.768 849.515 19.192 849.515 18.454C849.515 17.716 848.939 17.14 848.219 17.14C847.481 17.14 846.905 17.716 846.905 18.454C846.905 19.192 847.481 19.768 848.219 19.768ZM850.751 21.082L854.513 31H856.961L860.741 21.082H858.563L855.755 29.164L852.947 21.082H850.751ZM866.468 22.648C867.998 22.648 869.204 23.62 869.24 25.15H863.75C863.966 23.584 865.082 22.648 866.468 22.648ZM871.112 28.048H868.898C868.52 28.822 867.818 29.434 866.558 29.434C865.046 29.434 863.876 28.444 863.732 26.806H871.31C871.364 26.464 871.382 26.14 871.382 25.798C871.382 22.882 869.384 20.92 866.558 20.92C863.624 20.92 861.608 22.918 861.608 26.032C861.608 29.146 863.714 31.162 866.558 31.162C868.988 31.162 870.554 29.776 871.112 28.048Z" fill="#212832"/>
<circle cx="649.415" cy="25.415" r="23.415" fill="#3498DB" stroke="#3498DB"/>
<path d="M638.548 25.9942C638.548 29.9654 639.597 32.9625 643.418 32.9625C647.24 32.9625 648.289 29.9654 648.289 25.9942C648.289 22.0979 647.24 19.1008 643.418 19.1008C639.597 19.1008 638.548 22.0979 638.548 25.9942ZM646.191 25.9942C646.191 28.6729 645.91 31.0144 643.418 31.0144C640.927 31.0144 640.646 28.6729 640.646 25.9942C640.646 23.4466 640.927 21.0489 643.418 21.0489C645.91 21.0489 646.191 23.4466 646.191 25.9942ZM650.511 22.7161H652.59C652.721 21.7608 653.414 20.8616 654.913 20.8616C656.374 20.8616 657.142 21.6484 657.142 22.8285C657.142 24.2896 655.962 24.8515 654.032 24.8703H653.527V26.6311H654.014C656.243 26.6311 657.404 27.2493 657.404 29.0475C657.404 30.3213 656.617 31.2954 655.025 31.2954C653.414 31.2954 652.478 30.3213 652.384 29.0475H650.323C650.454 31.7262 652.459 33.0749 655.044 33.0749C657.891 33.0749 659.427 31.4265 659.427 29.2536C659.427 27.3616 658.509 26.1815 657.086 25.7507V25.6758C658.153 25.3198 659.184 24.2147 659.184 22.585C659.184 20.5994 657.704 19.0259 654.988 19.0259C652.496 19.0259 650.661 20.3558 650.511 22.7161Z" fill="#212832"/>
<defs>
<filter id="filter0_d_925_6301" x="23.5312" y="1.53174" width="260.938" height="47.9365" filterUnits="userSpaceOnUse" color-interpolation-filters="sRGB">
<feFlood flood-opacity="0" result="BackgroundImageFix"/>
<feColorMatrix in="SourceAlpha" type="matrix" values="0 0 0 0 0 0 0 0 0 0 0 0 0 0 0 0 0 0 127 0" result="hardAlpha"/>
<feOffset/>
<feComposite in2="hardAlpha" operator="out"/>
<feColorMatrix type="matrix" values="0 0 0 0 0 0 0 0 0 0 0 0 0 0 0 0 0 0 0.1 0"/>
<feBlend mode="normal" in2="BackgroundImageFix" result="effect1_dropShadow_925_6301"/>
<feBlend mode="normal" in="SourceGraphic" in2="effect1_dropShadow_925_6301" result="shape"/>
</filter>
<filter id="filter1_d_925_6301" x="964.531" y="0.531738" width="260.938" height="47.9365" filterUnits="userSpaceOnUse" color-interpolation-filters="sRGB">
<feFlood flood-opacity="0" result="BackgroundImageFix"/>
<feColorMatrix in="SourceAlpha" type="matrix" values="0 0 0 0 0 0 0 0 0 0 0 0 0 0 0 0 0 0 127 0" result="hardAlpha"/>
<feOffset/>
<feComposite in2="hardAlpha" operator="out"/>
<feColorMatrix type="matrix" values="0 0 0 0 0 0 0 0 0 0 0 0 0 0 0 0 0 0 0.1 0"/>
<feBlend mode="normal" in2="BackgroundImageFix" result="effect1_dropShadow_925_6301"/>
<feBlend mode="normal" in="SourceGraphic" in2="effect1_dropShadow_925_6301" result="shape"/>
</filter>
<filter id="filter2_d_925_6301" x="336.531" y="1.53174" width="260.938" height="47.9365" filterUnits="userSpaceOnUse" color-interpolation-filters="sRGB">
<feFlood flood-opacity="0" result="BackgroundImageFix"/>
<feColorMatrix in="SourceAlpha" type="matrix" values="0 0 0 0 0 0 0 0 0 0 0 0 0 0 0 0 0 0 127 0" result="hardAlpha"/>
<feOffset/>
<feComposite in2="hardAlpha" operator="out"/>
<feColorMatrix type="matrix" values="0 0 0 0 0 0 0 0 0 0 0 0 0 0 0 0 0 0 0.1 0"/>
<feBlend mode="normal" in2="BackgroundImageFix" result="effect1_dropShadow_925_6301"/>
<feBlend mode="normal" in="SourceGraphic" in2="effect1_dropShadow_925_6301" result="shape"/>
</filter>
<filter id="filter3_d_925_6301" x="652.531" y="1.53174" width="260.938" height="47.9365" filterUnits="userSpaceOnUse" color-interpolation-filters="sRGB">
<feFlood flood-opacity="0" result="BackgroundImageFix"/>
<feColorMatrix in="SourceAlpha" type="matrix" values="0 0 0 0 0 0 0 0 0 0 0 0 0 0 0 0 0 0 127 0" result="hardAlpha"/>
<feOffset/>
<feComposite in2="hardAlpha" operator="out"/>
<feColorMatrix type="matrix" values="0 0 0 0 0 0 0 0 0 0 0 0 0 0 0 0 0 0 0.1 0"/>
<feBlend mode="normal" in2="BackgroundImageFix" result="effect1_dropShadow_925_6301"/>
<feBlend mode="normal" in="SourceGraphic" in2="effect1_dropShadow_925_6301" result="shape"/>
</filter>
</defs>
</svg>
