<svg width="1228" height="112" viewBox="0 0 1228 112" fill="none" xmlns="http://www.w3.org/2000/svg">
<g filter="url(#filter0_d_585_9018)">
<rect x="24" y="2" width="267" height="47" fill="white" shape-rendering="crispEdges"/>
<rect x="23.7658" y="1.76585" width="267.468" height="47.4683" stroke="black" stroke-opacity="0.2" stroke-width="0.468302" shape-rendering="crispEdges"/>
</g>
<path d="M81.4887 31H83.5407V25.528H87.6807V23.854H83.5407V20.164H88.8507V18.49H81.4887V31ZM90.7523 31H92.8043V21.082H90.7523V31ZM91.7963 19.768C92.5163 19.768 93.0923 19.192 93.0923 18.454C93.0923 17.716 92.5163 17.14 91.7963 17.14C91.0583 17.14 90.4823 17.716 90.4823 18.454C90.4823 19.192 91.0583 19.768 91.7963 19.768ZM102.536 31H104.57V25.15C104.57 22.378 102.824 20.92 100.502 20.92C99.3144 20.92 98.2164 21.406 97.5504 22.216V21.082H95.4984V31H97.5504V25.456C97.5504 23.638 98.5404 22.702 100.052 22.702C101.546 22.702 102.536 23.638 102.536 25.456V31ZM106.504 25.996C106.504 29.056 108.574 31.162 111.148 31.162C112.804 31.162 113.992 30.37 114.622 29.524V31H116.692V21.082H114.622V22.522C114.01 21.712 112.858 20.92 111.184 20.92C108.574 20.92 106.504 22.936 106.504 25.996ZM114.622 26.032C114.622 28.174 113.164 29.38 111.616 29.38C110.086 29.38 108.61 28.138 108.61 25.996C108.61 23.854 110.086 22.702 111.616 22.702C113.164 22.702 114.622 23.908 114.622 26.032ZM126.425 31H128.459V25.15C128.459 22.378 126.713 20.92 124.391 20.92C123.203 20.92 122.105 21.406 121.439 22.216V21.082H119.387V31H121.439V25.456C121.439 23.638 122.429 22.702 123.941 22.702C125.435 22.702 126.425 23.638 126.425 25.456V31ZM130.393 26.032C130.393 29.146 132.409 31.162 135.253 31.162C137.683 31.162 139.267 29.812 139.825 27.868H137.611C137.233 28.894 136.477 29.434 135.253 29.434C133.597 29.434 132.499 28.21 132.499 26.032C132.499 23.872 133.597 22.648 135.253 22.648C136.477 22.648 137.269 23.26 137.611 24.214H139.825C139.267 22.126 137.683 20.92 135.253 20.92C132.409 20.92 130.393 22.936 130.393 26.032ZM141.87 31H143.922V21.082H141.87V31ZM142.914 19.768C143.634 19.768 144.21 19.192 144.21 18.454C144.21 17.716 143.634 17.14 142.914 17.14C142.176 17.14 141.6 17.716 141.6 18.454C141.6 19.192 142.176 19.768 142.914 19.768ZM145.932 25.996C145.932 29.056 148.002 31.162 150.576 31.162C152.232 31.162 153.42 30.37 154.05 29.524V31H156.12V21.082H154.05V22.522C153.438 21.712 152.286 20.92 150.612 20.92C148.002 20.92 145.932 22.936 145.932 25.996ZM154.05 26.032C154.05 28.174 152.592 29.38 151.044 29.38C149.514 29.38 148.038 28.138 148.038 25.996C148.038 23.854 149.514 22.702 151.044 22.702C152.592 22.702 154.05 23.908 154.05 26.032ZM158.815 31H160.867V17.68H158.815V31ZM176.679 31H178.839L174.357 18.472H171.981L167.499 31H169.641L170.541 28.444H175.779L176.679 31ZM175.203 26.77H171.117L173.169 20.956L175.203 26.77ZM187.826 31H189.86V25.15C189.86 22.378 188.114 20.92 185.792 20.92C184.604 20.92 183.506 21.406 182.84 22.216V21.082H180.788V31H182.84V25.456C182.84 23.638 183.83 22.702 185.342 22.702C186.836 22.702 187.826 23.638 187.826 25.456V31ZM191.793 25.996C191.793 29.056 193.863 31.162 196.437 31.162C198.093 31.162 199.281 30.37 199.911 29.524V31H201.981V21.082H199.911V22.522C199.299 21.712 198.147 20.92 196.473 20.92C193.863 20.92 191.793 22.936 191.793 25.996ZM199.911 26.032C199.911 28.174 198.453 29.38 196.905 29.38C195.375 29.38 193.899 28.138 193.899 25.996C193.899 23.854 195.375 22.702 196.905 22.702C198.453 22.702 199.911 23.908 199.911 26.032ZM204.676 31H206.728V17.68H204.676V31ZM213.328 28.642L210.538 21.082H208.252L212.158 30.838L210.142 35.662H212.266L218.35 21.082H216.226L213.328 28.642ZM227.297 28.228C227.189 24.646 221.591 25.762 221.591 23.764C221.591 23.098 222.167 22.648 223.265 22.648C224.381 22.648 225.047 23.242 225.119 24.106H227.171C227.063 22.126 225.587 20.92 223.337 20.92C220.997 20.92 219.521 22.198 219.521 23.782C219.521 27.418 225.281 26.302 225.281 28.246C225.281 28.93 224.651 29.434 223.463 29.434C222.329 29.434 221.555 28.768 221.483 27.958H219.359C219.449 29.758 221.123 31.162 223.499 31.162C225.839 31.162 227.297 29.902 227.297 28.228ZM229.838 28.246C229.838 30.262 230.936 31 232.7 31H234.32V29.29H233.06C232.196 29.29 231.908 28.984 231.908 28.246V22.756H234.32V21.082H231.908V18.616H229.838V21.082H228.668V22.756H229.838V28.246Z" fill="#212832"/>
<path d="M291 2H289V49H291V2Z" fill="#946FB0" stroke="#946FB0" stroke-width="0.936604"/>
<circle cx="24.5" cy="25.5" r="23.5" fill="#946FB0" stroke="#946FB0"/>
<path d="M16.2623 25.17C16.2623 29.1412 17.3113 32.1383 21.1326 32.1383C24.9539 32.1383 26.0029 29.1412 26.0029 25.17C26.0029 21.2737 24.9539 18.2766 21.1326 18.2766C17.3113 18.2766 16.2623 21.2737 16.2623 25.17ZM23.905 25.17C23.905 27.8487 23.624 30.1902 21.1326 30.1902C18.6412 30.1902 18.3603 27.8487 18.3603 25.17C18.3603 22.6224 18.6412 20.2247 21.1326 20.2247C23.624 20.2247 23.905 22.6224 23.905 25.17ZM29.7236 32.1758H31.8778V18.5201H27.9815V20.4682H29.7236V32.1758Z" fill="#212832"/>
<g filter="url(#filter1_d_585_9018)">
<rect x="24" y="64" width="267" height="47" fill="white" shape-rendering="crispEdges"/>
<rect x="23.7658" y="63.7658" width="267.468" height="47.4683" stroke="black" stroke-opacity="0.2" stroke-width="0.468302" shape-rendering="crispEdges"/>
</g>
<path d="M85.1397 93H87.2997L82.8177 80.472H80.4417L75.9597 93H78.1017L79.0017 90.444H84.2397L85.1397 93ZM83.6637 88.77H79.5777L81.6297 82.956L83.6637 88.77ZM88.5644 88.032C88.5644 91.146 90.5804 93.162 93.4244 93.162C95.8544 93.162 97.4384 91.812 97.9964 89.868H95.7824C95.4044 90.894 94.6484 91.434 93.4244 91.434C91.7684 91.434 90.6704 90.21 90.6704 88.032C90.6704 85.872 91.7684 84.648 93.4244 84.648C94.6484 84.648 95.4404 85.26 95.7824 86.214H97.9964C97.4384 84.126 95.8544 82.92 93.4244 82.92C90.5804 82.92 88.5644 84.936 88.5644 88.032ZM99.3574 88.032C99.3574 91.146 101.373 93.162 104.217 93.162C106.647 93.162 108.231 91.812 108.789 89.868H106.575C106.197 90.894 105.441 91.434 104.217 91.434C102.561 91.434 101.463 90.21 101.463 88.032C101.463 85.872 102.561 84.648 104.217 84.648C105.441 84.648 106.233 85.26 106.575 86.214H108.789C108.231 84.126 106.647 82.92 104.217 82.92C101.373 82.92 99.3574 84.936 99.3574 88.032ZM120.284 88.032C120.284 84.918 118.052 82.92 115.226 82.92C112.4 82.92 110.168 84.918 110.168 88.032C110.168 91.146 112.31 93.162 115.136 93.162C117.98 93.162 120.284 91.146 120.284 88.032ZM112.256 88.032C112.256 85.782 113.642 84.702 115.19 84.702C116.72 84.702 118.178 85.782 118.178 88.032C118.178 90.282 116.666 91.38 115.136 91.38C113.588 91.38 112.256 90.282 112.256 88.032ZM131.295 83.082H129.243V88.608C129.243 90.426 128.253 91.362 126.741 91.362C125.247 91.362 124.257 90.426 124.257 88.608V83.082H122.223V88.914C122.223 91.686 123.987 93.144 126.309 93.144C127.479 93.144 128.595 92.658 129.243 91.812V93H131.295V83.082ZM141.04 93H143.074V87.15C143.074 84.378 141.328 82.92 139.006 82.92C137.818 82.92 136.72 83.406 136.054 84.216V83.082H134.002V93H136.054V87.456C136.054 85.638 137.044 84.702 138.556 84.702C140.05 84.702 141.04 85.638 141.04 87.456V93ZM146.016 90.246C146.016 92.262 147.114 93 148.878 93H150.498V91.29H149.238C148.374 91.29 148.086 90.984 148.086 90.246V84.756H150.498V83.082H148.086V80.616H146.016V83.082H144.846V84.756H146.016V90.246ZM163.977 80.472H157.065V93H163.977V91.326H159.117V87.492H163.437V85.818H159.117V82.146H163.977V80.472ZM171.634 93H173.956L170.752 87.978L173.956 83.082H171.814L169.798 86.448L167.656 83.082H165.334L168.538 88.122L165.334 93H167.476L169.492 89.634L171.634 93ZM179.663 84.648C181.193 84.648 182.399 85.62 182.435 87.15H176.945C177.161 85.584 178.277 84.648 179.663 84.648ZM184.307 90.048H182.093C181.715 90.822 181.013 91.434 179.753 91.434C178.241 91.434 177.071 90.444 176.927 88.806H184.505C184.559 88.464 184.577 88.14 184.577 87.798C184.577 84.882 182.579 82.92 179.753 82.92C176.819 82.92 174.803 84.918 174.803 88.032C174.803 91.146 176.909 93.162 179.753 93.162C182.183 93.162 183.749 91.776 184.307 90.048ZM185.912 88.032C185.912 91.146 187.928 93.162 190.772 93.162C193.202 93.162 194.786 91.812 195.344 89.868H193.13C192.752 90.894 191.996 91.434 190.772 91.434C189.116 91.434 188.018 90.21 188.018 88.032C188.018 85.872 189.116 84.648 190.772 84.648C191.996 84.648 192.788 85.26 193.13 86.214H195.344C194.786 84.126 193.202 82.92 190.772 82.92C187.928 82.92 185.912 84.936 185.912 88.032ZM206.371 83.082H204.319V88.608C204.319 90.426 203.329 91.362 201.817 91.362C200.323 91.362 199.333 90.426 199.333 88.608V83.082H197.299V88.914C197.299 91.686 199.063 93.144 201.385 93.144C202.555 93.144 203.671 92.658 204.319 91.812V93H206.371V83.082ZM209.403 90.246C209.403 92.262 210.501 93 212.265 93H213.885V91.29H212.625C211.761 91.29 211.473 90.984 211.473 90.246V84.756H213.885V83.082H211.473V80.616H209.403V83.082H208.233V84.756H209.403V90.246ZM215.776 93H217.828V83.082H215.776V93ZM216.82 81.768C217.54 81.768 218.116 81.192 218.116 80.454C218.116 79.716 217.54 79.14 216.82 79.14C216.082 79.14 215.506 79.716 215.506 80.454C215.506 81.192 216.082 81.768 216.82 81.768ZM219.352 83.082L223.114 93H225.562L229.342 83.082H227.164L224.356 91.164L221.548 83.082H219.352ZM235.069 84.648C236.599 84.648 237.805 85.62 237.841 87.15H232.351C232.567 85.584 233.683 84.648 235.069 84.648ZM239.713 90.048H237.499C237.121 90.822 236.419 91.434 235.159 91.434C233.647 91.434 232.477 90.444 232.333 88.806H239.911C239.965 88.464 239.983 88.14 239.983 87.798C239.983 84.882 237.985 82.92 235.159 82.92C232.225 82.92 230.209 84.918 230.209 88.032C230.209 91.146 232.315 93.162 235.159 93.162C237.589 93.162 239.155 91.776 239.713 90.048Z" fill="#212832"/>
<path d="M291 64H289V111H291V64Z" fill="#36C8E3" stroke="#36C8E3" stroke-width="0.936604"/>
<circle cx="24.5" cy="87.5" r="23.5" fill="#36C8E3" stroke="#36C8E3"/>
<path d="M13.642 86.9942C13.642 90.9654 14.691 93.9625 18.5123 93.9625C22.3337 93.9625 23.3827 90.9654 23.3827 86.9942C23.3827 83.0979 22.3337 80.1008 18.5123 80.1008C14.691 80.1008 13.642 83.0979 13.642 86.9942ZM21.2847 86.9942C21.2847 89.6729 21.0037 92.0144 18.5123 92.0144C16.021 92.0144 15.74 89.6729 15.74 86.9942C15.74 84.4466 16.021 82.0489 18.5123 82.0489C21.0037 82.0489 21.2847 84.4466 21.2847 86.9942ZM26.2042 80.3069V88.1931H28.2272C28.5832 87.1815 29.4261 86.4884 30.6811 86.4884C32.4607 86.4884 33.3411 87.5 33.3411 89.2795C33.3411 90.9654 32.5169 92.2205 30.6811 92.2205C29.2388 92.2205 28.2647 91.4712 27.9837 90.3098H25.9045C26.2229 92.4452 27.8526 94 30.6624 94C33.8281 94 35.3829 91.9395 35.3829 89.2233C35.3829 87.1628 34.3526 84.6714 30.9996 84.6714C29.782 84.6714 28.6768 85.2334 28.171 85.9077V82.1801H34.4463V80.3069H26.2042Z" fill="#212832"/>
<g filter="url(#filter2_d_585_9018)">
<rect x="960" y="1" width="267" height="47" fill="white" shape-rendering="crispEdges"/>
<rect x="959.766" y="0.765849" width="267.468" height="47.4683" stroke="black" stroke-opacity="0.2" stroke-width="0.468302" shape-rendering="crispEdges"/>
</g>
<path d="M993.793 24.718C993.793 28.48 996.655 31.108 1000.18 31.108C1002.79 31.108 1005.04 29.812 1006 27.364H1003.53C1002.86 28.696 1001.68 29.326 1000.18 29.326C997.699 29.326 995.899 27.544 995.899 24.718C995.899 21.892 997.699 20.128 1000.18 20.128C1001.68 20.128 1002.86 20.758 1003.53 22.09H1006C1005.04 19.642 1002.79 18.328 1000.18 18.328C996.655 18.328 993.793 20.974 993.793 24.718ZM1008.4 31H1010.45V25.456C1010.45 23.638 1011.44 22.702 1012.95 22.702C1014.45 22.702 1015.44 23.638 1015.44 25.456V31H1017.47V25.15C1017.47 22.378 1015.74 20.92 1013.53 20.92C1012.25 20.92 1011.13 21.406 1010.45 22.234V17.68H1008.4V31ZM1020.09 31H1022.14V21.082H1020.09V31ZM1021.13 19.768C1021.85 19.768 1022.43 19.192 1022.43 18.454C1022.43 17.716 1021.85 17.14 1021.13 17.14C1020.39 17.14 1019.82 17.716 1019.82 18.454C1019.82 19.192 1020.39 19.768 1021.13 19.768ZM1029.01 22.648C1030.54 22.648 1031.75 23.62 1031.78 25.15H1026.29C1026.51 23.584 1027.62 22.648 1029.01 22.648ZM1033.65 28.048H1031.44C1031.06 28.822 1030.36 29.434 1029.1 29.434C1027.59 29.434 1026.42 28.444 1026.27 26.806H1033.85C1033.91 26.464 1033.92 26.14 1033.92 25.798C1033.92 22.882 1031.93 20.92 1029.1 20.92C1026.17 20.92 1024.15 22.918 1024.15 26.032C1024.15 29.146 1026.26 31.162 1029.1 31.162C1031.53 31.162 1033.1 29.776 1033.65 28.048ZM1036.2 31H1038.27V22.756H1040.1V21.082H1038.27V20.38C1038.27 19.246 1038.7 18.814 1039.96 18.814V17.104C1037.37 17.104 1036.2 18.094 1036.2 20.38V21.082H1035.03V22.756H1036.2V31ZM1055.04 31H1057.2L1052.72 18.472H1050.34L1045.86 31H1048L1048.9 28.444H1054.14L1055.04 31ZM1053.56 26.77H1049.48L1051.53 20.956L1053.56 26.77ZM1058.46 26.032C1058.46 29.146 1060.48 31.162 1063.32 31.162C1065.75 31.162 1067.34 29.812 1067.89 27.868H1065.68C1065.3 28.894 1064.55 29.434 1063.32 29.434C1061.67 29.434 1060.57 28.21 1060.57 26.032C1060.57 23.872 1061.67 22.648 1063.32 22.648C1064.55 22.648 1065.34 23.26 1065.68 24.214H1067.89C1067.34 22.126 1065.75 20.92 1063.32 20.92C1060.48 20.92 1058.46 22.936 1058.46 26.032ZM1069.26 26.032C1069.26 29.146 1071.27 31.162 1074.12 31.162C1076.55 31.162 1078.13 29.812 1078.69 27.868H1076.47C1076.1 28.894 1075.34 29.434 1074.12 29.434C1072.46 29.434 1071.36 28.21 1071.36 26.032C1071.36 23.872 1072.46 22.648 1074.12 22.648C1075.34 22.648 1076.13 23.26 1076.47 24.214H1078.69C1078.13 22.126 1076.55 20.92 1074.12 20.92C1071.27 20.92 1069.26 22.936 1069.26 26.032ZM1090.18 26.032C1090.18 22.918 1087.95 20.92 1085.12 20.92C1082.3 20.92 1080.07 22.918 1080.07 26.032C1080.07 29.146 1082.21 31.162 1085.03 31.162C1087.88 31.162 1090.18 29.146 1090.18 26.032ZM1082.15 26.032C1082.15 23.782 1083.54 22.702 1085.09 22.702C1086.62 22.702 1088.08 23.782 1088.08 26.032C1088.08 28.282 1086.56 29.38 1085.03 29.38C1083.49 29.38 1082.15 28.282 1082.15 26.032ZM1101.19 21.082H1099.14V26.608C1099.14 28.426 1098.15 29.362 1096.64 29.362C1095.15 29.362 1094.16 28.426 1094.16 26.608V21.082H1092.12V26.914C1092.12 29.686 1093.89 31.144 1096.21 31.144C1097.38 31.144 1098.49 30.658 1099.14 29.812V31H1101.19V21.082ZM1110.94 31H1112.97V25.15C1112.97 22.378 1111.23 20.92 1108.9 20.92C1107.72 20.92 1106.62 21.406 1105.95 22.216V21.082H1103.9V31H1105.95V25.456C1105.95 23.638 1106.94 22.702 1108.45 22.702C1109.95 22.702 1110.94 23.638 1110.94 25.456V31ZM1115.91 28.246C1115.91 30.262 1117.01 31 1118.78 31H1120.4V29.29H1119.14C1118.27 29.29 1117.98 28.984 1117.98 28.246V22.756H1120.4V21.082H1117.98V18.616H1115.91V21.082H1114.74V22.756H1115.91V28.246ZM1122.29 31H1124.34V21.082H1122.29V31ZM1123.33 19.768C1124.05 19.768 1124.63 19.192 1124.63 18.454C1124.63 17.716 1124.05 17.14 1123.33 17.14C1122.59 17.14 1122.02 17.716 1122.02 18.454C1122.02 19.192 1122.59 19.768 1123.33 19.768ZM1134.07 31H1136.11V25.15C1136.11 22.378 1134.36 20.92 1132.04 20.92C1130.85 20.92 1129.75 21.406 1129.09 22.216V21.082H1127.03V31H1129.09V25.456C1129.09 23.638 1130.08 22.702 1131.59 22.702C1133.08 22.702 1134.07 23.638 1134.07 25.456V31ZM1138.04 25.996C1138.04 29.056 1140.11 31.162 1142.72 31.162C1144.34 31.162 1145.53 30.352 1146.16 29.506V31.162C1146.16 33.142 1144.97 34.114 1143.39 34.114C1141.96 34.114 1140.87 33.412 1140.56 32.386H1138.53C1138.78 34.582 1140.74 35.896 1143.39 35.896C1146.48 35.896 1148.23 33.862 1148.23 31.162V21.082H1146.16V22.522C1145.55 21.676 1144.34 20.92 1142.72 20.92C1140.11 20.92 1138.04 22.936 1138.04 25.996ZM1146.16 26.032C1146.16 28.174 1144.7 29.38 1143.15 29.38C1141.62 29.38 1140.15 28.138 1140.15 25.996C1140.15 23.854 1141.62 22.702 1143.15 22.702C1144.7 22.702 1146.16 23.908 1146.16 26.032ZM1167.69 24.718C1167.69 20.974 1164.87 18.328 1161.3 18.328C1157.78 18.328 1154.91 20.974 1154.91 24.718C1154.91 28.48 1157.78 31.126 1161.3 31.126C1164.87 31.126 1167.69 28.48 1167.69 24.718ZM1157.02 24.718C1157.02 21.892 1158.82 20.128 1161.3 20.128C1163.79 20.128 1165.59 21.892 1165.59 24.718C1165.59 27.544 1163.79 29.344 1161.3 29.344C1158.82 29.344 1157.02 27.544 1157.02 24.718ZM1169.97 31H1172.04V22.756H1173.87V21.082H1172.04V20.38C1172.04 19.246 1172.47 18.814 1173.73 18.814V17.104C1171.14 17.104 1169.97 18.094 1169.97 20.38V21.082H1168.8V22.756H1169.97V31ZM1175.94 31H1178.01V22.756H1179.85V21.082H1178.01V20.38C1178.01 19.246 1178.44 18.814 1179.7 18.814V17.104C1177.11 17.104 1175.94 18.094 1175.94 20.38V21.082H1174.77V22.756H1175.94V31ZM1181.67 31H1183.72V21.082H1181.67V31ZM1182.71 19.768C1183.43 19.768 1184.01 19.192 1184.01 18.454C1184.01 17.716 1183.43 17.14 1182.71 17.14C1181.97 17.14 1181.4 17.716 1181.4 18.454C1181.4 19.192 1181.97 19.768 1182.71 19.768ZM1185.73 26.032C1185.73 29.146 1187.74 31.162 1190.59 31.162C1193.02 31.162 1194.6 29.812 1195.16 27.868H1192.95C1192.57 28.894 1191.81 29.434 1190.59 29.434C1188.93 29.434 1187.83 28.21 1187.83 26.032C1187.83 23.872 1188.93 22.648 1190.59 22.648C1191.81 22.648 1192.6 23.26 1192.95 24.214H1195.16C1194.6 22.126 1193.02 20.92 1190.59 20.92C1187.74 20.92 1185.73 22.936 1185.73 26.032ZM1201.38 22.648C1202.91 22.648 1204.12 23.62 1204.15 25.15H1198.66C1198.88 23.584 1200 22.648 1201.38 22.648ZM1206.03 28.048H1203.81C1203.43 28.822 1202.73 29.434 1201.47 29.434C1199.96 29.434 1198.79 28.444 1198.65 26.806H1206.22C1206.28 26.464 1206.3 26.14 1206.3 25.798C1206.3 22.882 1204.3 20.92 1201.47 20.92C1198.54 20.92 1196.52 22.918 1196.52 26.032C1196.52 29.146 1198.63 31.162 1201.47 31.162C1203.9 31.162 1205.47 29.776 1206.03 28.048ZM1210.37 25.78C1210.37 23.674 1211.3 23.044 1212.81 23.044H1213.34V20.92C1211.93 20.92 1210.94 21.532 1210.37 22.522V21.082H1208.31V31H1210.37V25.78Z" fill="#212832"/>
<path d="M1227 1H1225V48H1227V1Z" fill="#CF1C54" stroke="#CF1C54"/>
<circle cx="958.5" cy="24.5" r="23.5" fill="#E9336C" stroke="#E9336C"/>
<path d="M947.474 24.6055C947.474 28.5767 948.523 31.5739 952.344 31.5739C956.165 31.5739 957.214 28.5767 957.214 24.6055C957.214 20.7093 956.165 17.7121 952.344 17.7121C948.523 17.7121 947.474 20.7093 947.474 24.6055ZM955.116 24.6055C955.116 27.2842 954.835 29.6257 952.344 29.6257C949.853 29.6257 949.572 27.2842 949.572 24.6055C949.572 22.058 949.853 19.6603 952.344 19.6603C954.835 19.6603 955.116 22.058 955.116 24.6055ZM965.993 31.6113H968.091V28.7641H969.833V26.9096H968.091V18.1242H965.506L959.212 27.1531V28.7641H965.993V31.6113ZM961.666 26.9096L966.086 20.2972V26.9096H961.666Z" fill="#212832"/>
<g filter="url(#filter3_d_585_9018)">
<rect x="336" y="2" width="267" height="47" fill="white" shape-rendering="crispEdges"/>
<rect x="335.766" y="1.76585" width="267.468" height="47.4683" stroke="black" stroke-opacity="0.2" stroke-width="0.468302" shape-rendering="crispEdges"/>
</g>
<path d="M602.81 2H600V48.8302H602.81V2Z" fill="#A9CF54" stroke="#A9CF54" stroke-width="0.936604"/>
<path d="M385.462 24.718C385.462 28.48 388.324 31.108 391.852 31.108C394.462 31.108 396.712 29.812 397.666 27.364H395.2C394.534 28.696 393.346 29.326 391.852 29.326C389.368 29.326 387.568 27.544 387.568 24.718C387.568 21.892 389.368 20.128 391.852 20.128C393.346 20.128 394.534 20.758 395.2 22.09H397.666C396.712 19.642 394.462 18.328 391.852 18.328C388.324 18.328 385.462 20.974 385.462 24.718ZM409.518 26.032C409.518 22.918 407.286 20.92 404.46 20.92C401.634 20.92 399.402 22.918 399.402 26.032C399.402 29.146 401.544 31.162 404.37 31.162C407.214 31.162 409.518 29.146 409.518 26.032ZM401.49 26.032C401.49 23.782 402.876 22.702 404.424 22.702C405.954 22.702 407.412 23.782 407.412 26.032C407.412 28.282 405.9 29.38 404.37 29.38C402.822 29.38 401.49 28.282 401.49 26.032ZM425.604 31H427.638V25.15C427.638 22.378 425.874 20.92 423.552 20.92C422.112 20.92 420.708 21.676 420.096 22.882C419.412 21.586 418.098 20.92 416.532 20.92C415.344 20.92 414.264 21.406 413.598 22.216V21.082H411.546V31H413.598V25.456C413.598 23.638 414.588 22.702 416.1 22.702C417.594 22.702 418.584 23.638 418.584 25.456V31H420.618V25.456C420.618 23.638 421.608 22.702 423.12 22.702C424.614 22.702 425.604 23.638 425.604 25.456V31ZM432.301 22.54V21.082H430.249V35.716H432.301V29.56C432.949 30.334 434.119 31.162 435.757 31.162C438.367 31.162 440.419 29.056 440.419 25.996C440.419 22.936 438.367 20.92 435.757 20.92C434.137 20.92 432.931 21.712 432.301 22.54ZM438.331 25.996C438.331 28.138 436.855 29.38 435.307 29.38C433.777 29.38 432.301 28.174 432.301 26.032C432.301 23.908 433.777 22.702 435.307 22.702C436.855 22.702 438.331 23.854 438.331 25.996ZM441.765 25.996C441.765 29.056 443.835 31.162 446.409 31.162C448.065 31.162 449.253 30.37 449.883 29.524V31H451.953V21.082H449.883V22.522C449.271 21.712 448.119 20.92 446.445 20.92C443.835 20.92 441.765 22.936 441.765 25.996ZM449.883 26.032C449.883 28.174 448.425 29.38 446.877 29.38C445.347 29.38 443.871 28.138 443.871 25.996C443.871 23.854 445.347 22.702 446.877 22.702C448.425 22.702 449.883 23.908 449.883 26.032ZM461.686 31H463.72V25.15C463.72 22.378 461.974 20.92 459.652 20.92C458.464 20.92 457.366 21.406 456.7 22.216V21.082H454.648V31H456.7V25.456C456.7 23.638 457.69 22.702 459.202 22.702C460.696 22.702 461.686 23.638 461.686 25.456V31ZM470.243 28.642L467.453 21.082H465.167L469.073 30.838L467.057 35.662H469.181L475.265 21.082H473.141L470.243 28.642ZM489.932 27.454C489.932 22.882 483.308 24.646 483.308 21.82C483.308 20.614 484.226 20.038 485.414 20.074C486.71 20.11 487.448 20.884 487.52 21.73H489.788C489.608 19.588 487.916 18.328 485.522 18.328C482.966 18.328 481.22 19.696 481.22 21.892C481.22 26.5 487.862 24.538 487.862 27.562C487.862 28.624 487.052 29.398 485.612 29.398C484.19 29.398 483.47 28.57 483.38 27.544H481.184C481.184 29.758 483.11 31.126 485.612 31.126C488.402 31.126 489.932 29.326 489.932 27.454ZM496.529 22.648C498.059 22.648 499.265 23.62 499.301 25.15H493.811C494.027 23.584 495.143 22.648 496.529 22.648ZM501.173 28.048H498.959C498.581 28.822 497.879 29.434 496.619 29.434C495.107 29.434 493.937 28.444 493.793 26.806H501.371C501.425 26.464 501.443 26.14 501.443 25.798C501.443 22.882 499.445 20.92 496.619 20.92C493.685 20.92 491.669 22.918 491.669 26.032C491.669 29.146 493.775 31.162 496.619 31.162C499.049 31.162 500.615 29.776 501.173 28.048ZM502.778 26.032C502.778 29.146 504.794 31.162 507.638 31.162C510.068 31.162 511.652 29.812 512.21 27.868H509.996C509.618 28.894 508.862 29.434 507.638 29.434C505.982 29.434 504.884 28.21 504.884 26.032C504.884 23.872 505.982 22.648 507.638 22.648C508.862 22.648 509.654 23.26 509.996 24.214H512.21C511.652 22.126 510.068 20.92 507.638 20.92C504.794 20.92 502.778 22.936 502.778 26.032ZM516.307 25.78C516.307 23.674 517.243 23.044 518.755 23.044H519.277V20.92C517.873 20.92 516.883 21.532 516.307 22.522V21.082H514.255V31H516.307V25.78ZM525.339 22.648C526.869 22.648 528.075 23.62 528.111 25.15H522.621C522.837 23.584 523.953 22.648 525.339 22.648ZM529.983 28.048H527.769C527.391 28.822 526.689 29.434 525.429 29.434C523.917 29.434 522.747 28.444 522.603 26.806H530.181C530.235 26.464 530.253 26.14 530.253 25.798C530.253 22.882 528.255 20.92 525.429 20.92C522.495 20.92 520.479 22.918 520.479 26.032C520.479 29.146 522.585 31.162 525.429 31.162C527.859 31.162 529.425 29.776 529.983 28.048ZM532.597 28.246C532.597 30.262 533.695 31 535.459 31H537.079V29.29H535.819C534.955 29.29 534.667 28.984 534.667 28.246V22.756H537.079V21.082H534.667V18.616H532.597V21.082H531.427V22.756H532.597V28.246ZM538.286 25.996C538.286 29.056 540.356 31.162 542.93 31.162C544.586 31.162 545.774 30.37 546.404 29.524V31H548.474V21.082H546.404V22.522C545.792 21.712 544.64 20.92 542.966 20.92C540.356 20.92 538.286 22.936 538.286 25.996ZM546.404 26.032C546.404 28.174 544.946 29.38 543.398 29.38C541.868 29.38 540.392 28.138 540.392 25.996C540.392 23.854 541.868 22.702 543.398 22.702C544.946 22.702 546.404 23.908 546.404 26.032ZM553.221 25.78C553.221 23.674 554.157 23.044 555.669 23.044H556.191V20.92C554.787 20.92 553.797 21.532 553.221 22.522V21.082H551.169V31H553.221V25.78ZM561.984 28.642L559.194 21.082H556.908L560.814 30.838L558.798 35.662H560.922L567.006 21.082H564.882L561.984 28.642Z" fill="#212832"/>
<circle cx="335.5" cy="25.5" r="23.5" fill="#A9CF54" stroke="#A9CF54"/>
<path d="M325.132 25.17C325.132 29.1412 326.181 32.1383 330.003 32.1383C333.824 32.1383 334.873 29.1412 334.873 25.17C334.873 21.2737 333.824 18.2766 330.003 18.2766C326.181 18.2766 325.132 21.2737 325.132 25.17ZM332.775 25.17C332.775 27.8487 332.494 30.1902 330.003 30.1902C327.511 30.1902 327.23 27.8487 327.23 25.17C327.23 22.6224 327.511 20.2247 330.003 20.2247C332.494 20.2247 332.775 22.6224 332.775 25.17ZM336.964 31.9885H346.068V30.2089H340.13C342.321 28.2046 345.693 25.6758 345.693 22.3602C345.693 19.9063 344.12 18.2391 341.347 18.2391C338.931 18.2391 337.02 19.6815 336.945 22.6412H339.006C339.062 21.1051 339.867 20.0561 341.366 20.0561C342.958 20.0561 343.576 21.0302 343.576 22.4538C343.576 25.1325 340.186 27.6052 336.964 30.4337V31.9885Z" fill="#212832"/>
<g filter="url(#filter4_d_585_9018)">
<rect x="336" y="64" width="267" height="47" fill="white" shape-rendering="crispEdges"/>
<rect x="335.766" y="63.7658" width="267.468" height="47.4683" stroke="black" stroke-opacity="0.2" stroke-width="0.468302" shape-rendering="crispEdges"/>
</g>
<path d="M602.81 64H600V110.83H602.81V64Z" fill="#F8D000" stroke="#F8D000" stroke-width="0.936604"/>
<path d="M410.941 89.508C410.941 90.552 410.419 91.308 409.321 91.308C408.223 91.308 407.719 90.552 407.701 89.508H405.631C405.631 91.776 407.161 93.126 409.321 93.126C411.481 93.126 413.011 91.776 413.011 89.508V80.49H410.941V89.508ZM425.331 83.082H423.279V88.608C423.279 90.426 422.289 91.362 420.777 91.362C419.283 91.362 418.293 90.426 418.293 88.608V83.082H416.259V88.914C416.259 91.686 418.023 93.144 420.345 93.144C421.515 93.144 422.631 92.658 423.279 91.812V93H425.331V83.082ZM435.076 93H437.11V87.15C437.11 84.378 435.364 82.92 433.042 82.92C431.854 82.92 430.756 83.406 430.09 84.216V83.082H428.038V93H430.09V87.456C430.09 85.638 431.08 84.702 432.592 84.702C434.086 84.702 435.076 85.638 435.076 87.456V93ZM439.728 93H441.78V83.082H439.728V93ZM440.772 81.768C441.492 81.768 442.068 81.192 442.068 80.454C442.068 79.716 441.492 79.14 440.772 79.14C440.034 79.14 439.458 79.716 439.458 80.454C439.458 81.192 440.034 81.768 440.772 81.768ZM453.924 88.032C453.924 84.918 451.692 82.92 448.866 82.92C446.04 82.92 443.808 84.918 443.808 88.032C443.808 91.146 445.95 93.162 448.776 93.162C451.62 93.162 453.924 91.146 453.924 88.032ZM445.896 88.032C445.896 85.782 447.282 84.702 448.83 84.702C450.36 84.702 451.818 85.782 451.818 88.032C451.818 90.282 450.306 91.38 448.776 91.38C447.228 91.38 445.896 90.282 445.896 88.032ZM458.005 87.78C458.005 85.674 458.941 85.044 460.453 85.044H460.975V82.92C459.571 82.92 458.581 83.532 458.005 84.522V83.082H455.953V93H458.005V87.78ZM475.979 93H478.139L473.657 80.472H471.281L466.799 93H468.941L469.841 90.444H475.079L475.979 93ZM474.503 88.77H470.417L472.469 82.956L474.503 88.77ZM487.125 93H489.159V87.15C489.159 84.378 487.413 82.92 485.091 82.92C483.903 82.92 482.805 83.406 482.139 84.216V83.082H480.087V93H482.139V87.456C482.139 85.638 483.129 84.702 484.641 84.702C486.135 84.702 487.125 85.638 487.125 87.456V93ZM491.093 87.996C491.093 91.056 493.163 93.162 495.737 93.162C497.393 93.162 498.581 92.37 499.211 91.524V93H501.281V83.082H499.211V84.522C498.599 83.712 497.447 82.92 495.773 82.92C493.163 82.92 491.093 84.936 491.093 87.996ZM499.211 88.032C499.211 90.174 497.753 91.38 496.205 91.38C494.675 91.38 493.199 90.138 493.199 87.996C493.199 85.854 494.675 84.702 496.205 84.702C497.753 84.702 499.211 85.908 499.211 88.032ZM503.976 93H506.028V79.68H503.976V93ZM512.628 90.642L509.838 83.082H507.552L511.458 92.838L509.442 97.662H511.566L517.65 83.082H515.526L512.628 90.642ZM526.597 90.228C526.489 86.646 520.891 87.762 520.891 85.764C520.891 85.098 521.467 84.648 522.565 84.648C523.681 84.648 524.347 85.242 524.419 86.106H526.471C526.363 84.126 524.887 82.92 522.637 82.92C520.297 82.92 518.821 84.198 518.821 85.782C518.821 89.418 524.581 88.302 524.581 90.246C524.581 90.93 523.951 91.434 522.763 91.434C521.629 91.434 520.855 90.768 520.783 89.958H518.659C518.749 91.758 520.423 93.162 522.799 93.162C525.139 93.162 526.597 91.902 526.597 90.228ZM529.138 90.246C529.138 92.262 530.236 93 532 93H533.62V91.29H532.36C531.496 91.29 531.208 90.984 531.208 90.246V84.756H533.62V83.082H531.208V80.616H529.138V83.082H527.968V84.756H529.138V90.246Z" fill="#212832"/>
<circle cx="335.5" cy="87.5" r="23.5" fill="#F8D000" stroke="#F8D000"/>
<path d="M324.529 87.17C324.529 91.1412 325.578 94.1383 329.399 94.1383C333.22 94.1383 334.269 91.1412 334.269 87.17C334.269 83.2737 333.22 80.2766 329.399 80.2766C325.578 80.2766 324.529 83.2737 324.529 87.17ZM332.171 87.17C332.171 89.8487 331.89 92.1902 329.399 92.1902C326.908 92.1902 326.627 89.8487 326.627 87.17C326.627 84.6224 326.908 82.2247 329.399 82.2247C331.89 82.2247 332.171 84.6224 332.171 87.17ZM345.839 83.6858C345.614 81.8688 344.284 80.1829 341.624 80.1829C338.215 80.1829 336.791 82.7679 336.791 87.0389C336.791 91.3847 337.821 94.1758 341.793 94.1758C344.715 94.1758 346.27 92.2089 346.27 89.6239C346.27 86.7766 344.528 85.1282 342.074 85.1282C340.65 85.1282 339.301 85.7276 338.627 86.8515C338.683 83.2737 339.676 81.9625 341.605 81.9625C342.954 81.9625 343.61 82.5806 343.872 83.6858H345.839ZM341.605 86.9265C343.404 86.9265 344.228 88.0879 344.228 89.7175C344.228 91.3285 343.254 92.3962 341.68 92.3962C339.863 92.3962 338.87 91.2723 338.87 89.5864C338.87 87.7694 340.2 86.9265 341.605 86.9265Z" fill="#212832"/>
<g filter="url(#filter5_d_585_9018)">
<rect x="647" y="2" width="267" height="47" fill="white" shape-rendering="crispEdges"/>
<rect x="646.766" y="1.76585" width="267.468" height="47.4683" stroke="black" stroke-opacity="0.2" stroke-width="0.468302" shape-rendering="crispEdges"/>
</g>
<path d="M913.864 2H911.055V48.8302H913.864V2Z" fill="#D96868" stroke="#D96868" stroke-width="0.936604"/>
<path d="M767.93 24.718C767.93 28.48 770.792 31.108 774.32 31.108C776.93 31.108 779.18 29.812 780.134 27.364H777.668C777.002 28.696 775.814 29.326 774.32 29.326C771.836 29.326 770.036 27.544 770.036 24.718C770.036 21.892 771.836 20.128 774.32 20.128C775.814 20.128 777.002 20.758 777.668 22.09H780.134C779.18 19.642 776.93 18.328 774.32 18.328C770.792 18.328 767.93 20.974 767.93 24.718ZM790.978 31H793.138L788.656 18.472H786.28L781.798 31H783.94L784.84 28.444H790.078L790.978 31ZM789.502 26.77H785.416L787.468 20.956L789.502 26.77Z" fill="#212832"/>
<circle cx="647.5" cy="25.5" r="23.5" fill="#D96868" stroke="#D96868"/>
<path d="M636.509 25.17C636.509 29.1412 637.558 32.1383 641.379 32.1383C645.2 32.1383 646.249 29.1412 646.249 25.17C646.249 21.2737 645.2 18.2766 641.379 18.2766C637.558 18.2766 636.509 21.2737 636.509 25.17ZM644.151 25.17C644.151 27.8487 643.87 30.1902 641.379 30.1902C638.888 30.1902 638.607 27.8487 638.607 25.17C638.607 22.6224 638.888 20.2247 641.379 20.2247C643.87 20.2247 644.151 22.6224 644.151 25.17ZM648.471 21.8919H650.551C650.682 20.9365 651.375 20.0374 652.873 20.0374C654.334 20.0374 655.102 20.8241 655.102 22.0043C655.102 23.4654 653.922 24.0273 651.993 24.0461H651.487V25.8069H651.974C654.203 25.8069 655.365 26.425 655.365 28.2233C655.365 29.4971 654.578 30.4712 652.986 30.4712C651.375 30.4712 650.438 29.4971 650.345 28.2233H648.284C648.415 30.902 650.419 32.2507 653.004 32.2507C655.852 32.2507 657.388 30.6023 657.388 28.4294C657.388 26.5374 656.47 25.3573 655.046 24.9265V24.8515C656.114 24.4956 657.144 23.3904 657.144 21.7607C657.144 19.7751 655.664 18.2017 652.948 18.2017C650.457 18.2017 648.621 19.5316 648.471 21.8919Z" fill="#212832"/>
<g filter="url(#filter6_d_585_9018)">
<rect x="652" y="64" width="262" height="47" fill="white" shape-rendering="crispEdges"/>
<rect x="651.766" y="63.7658" width="262.468" height="47.4683" stroke="black" stroke-opacity="0.2" stroke-width="0.468302" shape-rendering="crispEdges"/>
</g>
<g filter="url(#filter7_d_585_9018)">
<rect x="962" y="64" width="265" height="47" fill="white" shape-rendering="crispEdges"/>
<rect x="961.766" y="63.7658" width="265.468" height="47.4683" stroke="black" stroke-opacity="0.2" stroke-width="0.468302" shape-rendering="crispEdges"/>
</g>
<path d="M913.864 64H911.055V110.83H913.864V64Z" fill="#6887D9" stroke="#6887D9" stroke-width="0.936604"/>
<path d="M1226.81 64H1224V110.83H1226.81V64Z" fill="#68C4D9" stroke="#68C4D9"/>
<path d="M760.157 93H762.317L757.835 80.472H755.459L750.977 93H753.119L754.019 90.444H759.257L760.157 93ZM758.681 88.77H754.595L756.647 82.956L758.681 88.77ZM773.248 83.082H771.196V88.608C771.196 90.426 770.206 91.362 768.694 91.362C767.2 91.362 766.21 90.426 766.21 88.608V83.082H764.176V88.914C764.176 91.686 765.94 93.144 768.262 93.144C769.432 93.144 770.548 92.658 771.196 91.812V93H773.248V83.082ZM775.271 87.996C775.271 91.056 777.341 93.162 779.951 93.162C781.571 93.162 782.759 92.406 783.389 91.506V93H785.459V79.68H783.389V84.468C782.633 83.532 781.265 82.92 779.969 82.92C777.341 82.92 775.271 84.936 775.271 87.996ZM783.389 88.032C783.389 90.174 781.931 91.38 780.383 91.38C778.853 91.38 777.377 90.138 777.377 87.996C777.377 85.854 778.853 84.702 780.383 84.702C781.931 84.702 783.389 85.908 783.389 88.032ZM788.155 93H790.207V83.082H788.155V93ZM789.199 81.768C789.919 81.768 790.495 81.192 790.495 80.454C790.495 79.716 789.919 79.14 789.199 79.14C788.461 79.14 787.885 79.716 787.885 80.454C787.885 81.192 788.461 81.768 789.199 81.768ZM793.225 90.246C793.225 92.262 794.323 93 796.087 93H797.707V91.29H796.447C795.583 91.29 795.295 90.984 795.295 90.246V84.756H797.707V83.082H795.295V80.616H793.225V83.082H792.055V84.756H793.225V90.246ZM809.048 88.032C809.048 84.918 806.816 82.92 803.99 82.92C801.164 82.92 798.932 84.918 798.932 88.032C798.932 91.146 801.074 93.162 803.9 93.162C806.744 93.162 809.048 91.146 809.048 88.032ZM801.02 88.032C801.02 85.782 802.406 84.702 803.954 84.702C805.484 84.702 806.942 85.782 806.942 88.032C806.942 90.282 805.43 91.38 803.9 91.38C802.352 91.38 801.02 90.282 801.02 88.032ZM813.129 87.78C813.129 85.674 814.065 85.044 815.577 85.044H816.099V82.92C814.695 82.92 813.705 83.532 813.129 84.522V83.082H811.077V93H813.129V87.78Z" fill="#212832"/>
<path d="M999.699 93H1001.75V87.528H1005.89V85.854H1001.75V82.164H1007.06V80.49H999.699V93ZM1008.96 93H1011.01V83.082H1008.96V93ZM1010.01 81.768C1010.73 81.768 1011.3 81.192 1011.3 80.454C1011.3 79.716 1010.73 79.14 1010.01 79.14C1009.27 79.14 1008.69 79.716 1008.69 80.454C1008.69 81.192 1009.27 81.768 1010.01 81.768ZM1020.75 93H1022.78V87.15C1022.78 84.378 1021.03 82.92 1018.71 82.92C1017.52 82.92 1016.43 83.406 1015.76 84.216V83.082H1013.71V93H1015.76V87.456C1015.76 85.638 1016.75 84.702 1018.26 84.702C1019.76 84.702 1020.75 85.638 1020.75 87.456V93ZM1024.71 87.996C1024.71 91.056 1026.78 93.162 1029.36 93.162C1031.01 93.162 1032.2 92.37 1032.83 91.524V93H1034.9V83.082H1032.83V84.522C1032.22 83.712 1031.07 82.92 1029.39 82.92C1026.78 82.92 1024.71 84.936 1024.71 87.996ZM1032.83 88.032C1032.83 90.174 1031.37 91.38 1029.83 91.38C1028.3 91.38 1026.82 90.138 1026.82 87.996C1026.82 85.854 1028.3 84.702 1029.83 84.702C1031.37 84.702 1032.83 85.908 1032.83 88.032ZM1044.64 93H1046.67V87.15C1046.67 84.378 1044.92 82.92 1042.6 82.92C1041.41 82.92 1040.32 83.406 1039.65 84.216V83.082H1037.6V93H1039.65V87.456C1039.65 85.638 1040.64 84.702 1042.15 84.702C1043.65 84.702 1044.64 85.638 1044.64 87.456V93ZM1048.6 88.032C1048.6 91.146 1050.62 93.162 1053.46 93.162C1055.89 93.162 1057.48 91.812 1058.03 89.868H1055.82C1055.44 90.894 1054.69 91.434 1053.46 91.434C1051.81 91.434 1050.71 90.21 1050.71 88.032C1050.71 85.872 1051.81 84.648 1053.46 84.648C1054.69 84.648 1055.48 85.26 1055.82 86.214H1058.03C1057.48 84.126 1055.89 82.92 1053.46 82.92C1050.62 82.92 1048.6 84.936 1048.6 88.032ZM1060.08 93H1062.13V83.082H1060.08V93ZM1061.12 81.768C1061.84 81.768 1062.42 81.192 1062.42 80.454C1062.42 79.716 1061.84 79.14 1061.12 79.14C1060.39 79.14 1059.81 79.716 1059.81 80.454C1059.81 81.192 1060.39 81.768 1061.12 81.768ZM1064.14 87.996C1064.14 91.056 1066.21 93.162 1068.79 93.162C1070.44 93.162 1071.63 92.37 1072.26 91.524V93H1074.33V83.082H1072.26V84.522C1071.65 83.712 1070.5 82.92 1068.82 82.92C1066.21 82.92 1064.14 84.936 1064.14 87.996ZM1072.26 88.032C1072.26 90.174 1070.8 91.38 1069.25 91.38C1067.72 91.38 1066.25 90.138 1066.25 87.996C1066.25 85.854 1067.72 84.702 1069.25 84.702C1070.8 84.702 1072.26 85.908 1072.26 88.032ZM1077.02 93H1079.08V79.68H1077.02V93ZM1093.09 84.234C1093.09 85.476 1092.37 86.358 1090.77 86.358H1088.5V82.164H1090.77C1092.37 82.164 1093.09 82.974 1093.09 84.234ZM1086.45 80.49V93H1088.5V87.996H1090.06L1092.94 93H1095.39L1092.3 87.816C1094.4 87.294 1095.19 85.71 1095.19 84.234C1095.19 82.2 1093.74 80.49 1090.77 80.49H1086.45ZM1097.82 93H1099.87V83.082H1097.82V93ZM1098.86 81.768C1099.58 81.768 1100.16 81.192 1100.16 80.454C1100.16 79.716 1099.58 79.14 1098.86 79.14C1098.13 79.14 1097.55 79.716 1097.55 80.454C1097.55 81.192 1098.13 81.768 1098.86 81.768ZM1109.96 90.228C1109.86 86.646 1104.26 87.762 1104.26 85.764C1104.26 85.098 1104.83 84.648 1105.93 84.648C1107.05 84.648 1107.71 85.242 1107.79 86.106H1109.84C1109.73 84.126 1108.25 82.92 1106 82.92C1103.66 82.92 1102.19 84.198 1102.19 85.782C1102.19 89.418 1107.95 88.302 1107.95 90.246C1107.95 90.93 1107.32 91.434 1106.13 91.434C1105 91.434 1104.22 90.768 1104.15 89.958H1102.03C1102.12 91.758 1103.79 93.162 1106.17 93.162C1108.51 93.162 1109.96 91.902 1109.96 90.228ZM1112.18 93H1114.23V88.734L1117.91 93H1120.68L1116.11 88.05L1120.68 83.082H1117.83L1114.23 87.42V79.68H1112.18V93ZM1126.82 93H1128.88V84.432L1132.71 93H1134.13L1137.95 84.432V93H1140V80.49H1137.8L1133.43 90.3L1129.04 80.49H1126.82V93ZM1142.01 87.996C1142.01 91.056 1144.08 93.162 1146.66 93.162C1148.31 93.162 1149.5 92.37 1150.13 91.524V93H1152.2V83.082H1150.13V84.522C1149.52 83.712 1148.37 82.92 1146.69 82.92C1144.08 82.92 1142.01 84.936 1142.01 87.996ZM1150.13 88.032C1150.13 90.174 1148.67 91.38 1147.12 91.38C1145.59 91.38 1144.12 90.138 1144.12 87.996C1144.12 85.854 1145.59 84.702 1147.12 84.702C1148.67 84.702 1150.13 85.908 1150.13 88.032ZM1161.93 93H1163.97V87.15C1163.97 84.378 1162.22 82.92 1159.9 82.92C1158.71 82.92 1157.61 83.406 1156.95 84.216V83.082H1154.9V93H1156.95V87.456C1156.95 85.638 1157.94 84.702 1159.45 84.702C1160.94 84.702 1161.93 85.638 1161.93 87.456V93ZM1165.9 87.996C1165.9 91.056 1167.97 93.162 1170.55 93.162C1172.2 93.162 1173.39 92.37 1174.02 91.524V93H1176.09V83.082H1174.02V84.522C1173.41 83.712 1172.26 82.92 1170.58 82.92C1167.97 82.92 1165.9 84.936 1165.9 87.996ZM1174.02 88.032C1174.02 90.174 1172.56 91.38 1171.01 91.38C1169.48 91.38 1168.01 90.138 1168.01 87.996C1168.01 85.854 1169.48 84.702 1171.01 84.702C1172.56 84.702 1174.02 85.908 1174.02 88.032ZM1178.1 87.996C1178.1 91.056 1180.17 93.162 1182.78 93.162C1184.4 93.162 1185.59 92.352 1186.22 91.506V93.162C1186.22 95.142 1185.03 96.114 1183.45 96.114C1182.02 96.114 1180.93 95.412 1180.62 94.386H1178.59C1178.84 96.582 1180.8 97.896 1183.45 97.896C1186.54 97.896 1188.29 95.862 1188.29 93.162V83.082H1186.22V84.522C1185.61 83.676 1184.4 82.92 1182.78 82.92C1180.17 82.92 1178.1 84.936 1178.1 87.996ZM1186.22 88.032C1186.22 90.174 1184.76 91.38 1183.21 91.38C1181.68 91.38 1180.21 90.138 1180.21 87.996C1180.21 85.854 1181.68 84.702 1183.21 84.702C1184.76 84.702 1186.22 85.908 1186.22 88.032ZM1195.16 84.648C1196.69 84.648 1197.9 85.62 1197.93 87.15H1192.44C1192.66 85.584 1193.77 84.648 1195.16 84.648ZM1199.8 90.048H1197.59C1197.21 90.822 1196.51 91.434 1195.25 91.434C1193.74 91.434 1192.57 90.444 1192.42 88.806H1200C1200.06 88.464 1200.07 88.14 1200.07 87.798C1200.07 84.882 1198.08 82.92 1195.25 82.92C1192.32 82.92 1190.3 84.918 1190.3 88.032C1190.3 91.146 1192.41 93.162 1195.25 93.162C1197.68 93.162 1199.25 91.776 1199.8 90.048ZM1204.15 87.78C1204.15 85.674 1205.08 85.044 1206.59 85.044H1207.12V82.92C1205.71 82.92 1204.72 83.532 1204.15 84.522V83.082H1202.09V93H1204.15V87.78Z" fill="#212832"/>
<circle cx="647.5" cy="87.5" r="23.5" fill="#6887D9" stroke="#6887D9"/>
<circle cx="958.5" cy="87.5" r="23.5" fill="#68C4D9" stroke="#68C4D9"/>
<path d="M636.829 87.17C636.829 91.1412 637.878 94.1383 641.699 94.1383C645.52 94.1383 646.569 91.1412 646.569 87.17C646.569 83.2737 645.52 80.2766 641.699 80.2766C637.878 80.2766 636.829 83.2737 636.829 87.17ZM644.471 87.17C644.471 89.8487 644.19 92.1902 641.699 92.1902C639.208 92.1902 638.927 89.8487 638.927 87.17C638.927 84.6224 639.208 82.2247 641.699 82.2247C644.19 82.2247 644.471 84.6224 644.471 87.17ZM648.454 80.5763V82.3933H655.385L650.121 94.1758H652.276L657.483 82.1685V80.5763H648.454Z" fill="#212832"/>
<path d="M947.829 87.17C947.829 91.1412 948.878 94.1383 952.699 94.1383C956.52 94.1383 957.569 91.1412 957.569 87.17C957.569 83.2737 956.52 80.2766 952.699 80.2766C948.878 80.2766 947.829 83.2737 947.829 87.17ZM955.471 87.17C955.471 89.8487 955.19 92.1902 952.699 92.1902C950.208 92.1902 949.927 89.8487 949.927 87.17C949.927 84.6224 950.208 82.2247 952.699 82.2247C955.19 82.2247 955.471 84.6224 955.471 87.17ZM959.454 80.5763V82.3933H966.385L961.121 94.1758H963.276L968.483 82.1685V80.5763H959.454Z" fill="#212832"/>
<defs>
<filter id="filter0_d_585_9018" x="23.5312" y="1.53174" width="267.938" height="47.9365" filterUnits="userSpaceOnUse" color-interpolation-filters="sRGB">
<feFlood flood-opacity="0" result="BackgroundImageFix"/>
<feColorMatrix in="SourceAlpha" type="matrix" values="0 0 0 0 0 0 0 0 0 0 0 0 0 0 0 0 0 0 127 0" result="hardAlpha"/>
<feOffset/>
<feComposite in2="hardAlpha" operator="out"/>
<feColorMatrix type="matrix" values="0 0 0 0 0 0 0 0 0 0 0 0 0 0 0 0 0 0 0.1 0"/>
<feBlend mode="normal" in2="BackgroundImageFix" result="effect1_dropShadow_585_9018"/>
<feBlend mode="normal" in="SourceGraphic" in2="effect1_dropShadow_585_9018" result="shape"/>
</filter>
<filter id="filter1_d_585_9018" x="23.5312" y="63.5317" width="267.938" height="47.9365" filterUnits="userSpaceOnUse" color-interpolation-filters="sRGB">
<feFlood flood-opacity="0" result="BackgroundImageFix"/>
<feColorMatrix in="SourceAlpha" type="matrix" values="0 0 0 0 0 0 0 0 0 0 0 0 0 0 0 0 0 0 127 0" result="hardAlpha"/>
<feOffset/>
<feComposite in2="hardAlpha" operator="out"/>
<feColorMatrix type="matrix" values="0 0 0 0 0 0 0 0 0 0 0 0 0 0 0 0 0 0 0.1 0"/>
<feBlend mode="normal" in2="BackgroundImageFix" result="effect1_dropShadow_585_9018"/>
<feBlend mode="normal" in="SourceGraphic" in2="effect1_dropShadow_585_9018" result="shape"/>
</filter>
<filter id="filter2_d_585_9018" x="959.531" y="0.531738" width="267.938" height="47.9365" filterUnits="userSpaceOnUse" color-interpolation-filters="sRGB">
<feFlood flood-opacity="0" result="BackgroundImageFix"/>
<feColorMatrix in="SourceAlpha" type="matrix" values="0 0 0 0 0 0 0 0 0 0 0 0 0 0 0 0 0 0 127 0" result="hardAlpha"/>
<feOffset/>
<feComposite in2="hardAlpha" operator="out"/>
<feColorMatrix type="matrix" values="0 0 0 0 0 0 0 0 0 0 0 0 0 0 0 0 0 0 0.1 0"/>
<feBlend mode="normal" in2="BackgroundImageFix" result="effect1_dropShadow_585_9018"/>
<feBlend mode="normal" in="SourceGraphic" in2="effect1_dropShadow_585_9018" result="shape"/>
</filter>
<filter id="filter3_d_585_9018" x="335.531" y="1.53174" width="267.938" height="47.9365" filterUnits="userSpaceOnUse" color-interpolation-filters="sRGB">
<feFlood flood-opacity="0" result="BackgroundImageFix"/>
<feColorMatrix in="SourceAlpha" type="matrix" values="0 0 0 0 0 0 0 0 0 0 0 0 0 0 0 0 0 0 127 0" result="hardAlpha"/>
<feOffset/>
<feComposite in2="hardAlpha" operator="out"/>
<feColorMatrix type="matrix" values="0 0 0 0 0 0 0 0 0 0 0 0 0 0 0 0 0 0 0.1 0"/>
<feBlend mode="normal" in2="BackgroundImageFix" result="effect1_dropShadow_585_9018"/>
<feBlend mode="normal" in="SourceGraphic" in2="effect1_dropShadow_585_9018" result="shape"/>
</filter>
<filter id="filter4_d_585_9018" x="335.531" y="63.5317" width="267.938" height="47.9365" filterUnits="userSpaceOnUse" color-interpolation-filters="sRGB">
<feFlood flood-opacity="0" result="BackgroundImageFix"/>
<feColorMatrix in="SourceAlpha" type="matrix" values="0 0 0 0 0 0 0 0 0 0 0 0 0 0 0 0 0 0 127 0" result="hardAlpha"/>
<feOffset/>
<feComposite in2="hardAlpha" operator="out"/>
<feColorMatrix type="matrix" values="0 0 0 0 0 0 0 0 0 0 0 0 0 0 0 0 0 0 0.1 0"/>
<feBlend mode="normal" in2="BackgroundImageFix" result="effect1_dropShadow_585_9018"/>
<feBlend mode="normal" in="SourceGraphic" in2="effect1_dropShadow_585_9018" result="shape"/>
</filter>
<filter id="filter5_d_585_9018" x="646.531" y="1.53174" width="267.938" height="47.9365" filterUnits="userSpaceOnUse" color-interpolation-filters="sRGB">
<feFlood flood-opacity="0" result="BackgroundImageFix"/>
<feColorMatrix in="SourceAlpha" type="matrix" values="0 0 0 0 0 0 0 0 0 0 0 0 0 0 0 0 0 0 127 0" result="hardAlpha"/>
<feOffset/>
<feComposite in2="hardAlpha" operator="out"/>
<feColorMatrix type="matrix" values="0 0 0 0 0 0 0 0 0 0 0 0 0 0 0 0 0 0 0.1 0"/>
<feBlend mode="normal" in2="BackgroundImageFix" result="effect1_dropShadow_585_9018"/>
<feBlend mode="normal" in="SourceGraphic" in2="effect1_dropShadow_585_9018" result="shape"/>
</filter>
<filter id="filter6_d_585_9018" x="651.531" y="63.5317" width="262.938" height="47.9365" filterUnits="userSpaceOnUse" color-interpolation-filters="sRGB">
<feFlood flood-opacity="0" result="BackgroundImageFix"/>
<feColorMatrix in="SourceAlpha" type="matrix" values="0 0 0 0 0 0 0 0 0 0 0 0 0 0 0 0 0 0 127 0" result="hardAlpha"/>
<feOffset/>
<feComposite in2="hardAlpha" operator="out"/>
<feColorMatrix type="matrix" values="0 0 0 0 0 0 0 0 0 0 0 0 0 0 0 0 0 0 0.1 0"/>
<feBlend mode="normal" in2="BackgroundImageFix" result="effect1_dropShadow_585_9018"/>
<feBlend mode="normal" in="SourceGraphic" in2="effect1_dropShadow_585_9018" result="shape"/>
</filter>
<filter id="filter7_d_585_9018" x="961.531" y="63.5317" width="265.938" height="47.9365" filterUnits="userSpaceOnUse" color-interpolation-filters="sRGB">
<feFlood flood-opacity="0" result="BackgroundImageFix"/>
<feColorMatrix in="SourceAlpha" type="matrix" values="0 0 0 0 0 0 0 0 0 0 0 0 0 0 0 0 0 0 127 0" result="hardAlpha"/>
<feOffset/>
<feComposite in2="hardAlpha" operator="out"/>
<feColorMatrix type="matrix" values="0 0 0 0 0 0 0 0 0 0 0 0 0 0 0 0 0 0 0.1 0"/>
<feBlend mode="normal" in2="BackgroundImageFix" result="effect1_dropShadow_585_9018"/>
<feBlend mode="normal" in="SourceGraphic" in2="effect1_dropShadow_585_9018" result="shape"/>
</filter>
</defs>
</svg>
