<svg width="1243" height="116" viewBox="0 0 1243 116" fill="none" xmlns="http://www.w3.org/2000/svg">
<g filter="url(#filter0_d_585_4689)">
<rect x="446" y="1" width="374.642" height="46.8302" fill="white" shape-rendering="crispEdges"/>
<rect x="445.766" y="0.765849" width="375.11" height="47.2985" stroke="black" stroke-opacity="0.2" stroke-width="0.468302" shape-rendering="crispEdges"/>
</g>
<path d="M818.187 1.4683H820.06V47.3619H818.187V1.4683Z" fill="#A9CF54" stroke="#A9CF54" stroke-width="0.936604"/>
<path d="M586.816 21.234C586.816 22.476 586.096 23.358 584.494 23.358H582.226V19.164H584.494C586.096 19.164 586.816 19.974 586.816 21.234ZM580.174 17.49V30H582.226V24.996H583.792L586.672 30H589.12L586.024 24.816C588.13 24.294 588.922 22.71 588.922 21.234C588.922 19.2 587.464 17.49 584.494 17.49H580.174ZM591.547 30H593.599V20.082H591.547V30ZM592.591 18.768C593.311 18.768 593.887 18.192 593.887 17.454C593.887 16.716 593.311 16.14 592.591 16.14C591.853 16.14 591.277 16.716 591.277 17.454C591.277 18.192 591.853 18.768 592.591 18.768ZM603.691 27.228C603.583 23.646 597.985 24.762 597.985 22.764C597.985 22.098 598.561 21.648 599.659 21.648C600.775 21.648 601.441 22.242 601.513 23.106H603.565C603.457 21.126 601.981 19.92 599.731 19.92C597.391 19.92 595.915 21.198 595.915 22.782C595.915 26.418 601.675 25.302 601.675 27.246C601.675 27.93 601.045 28.434 599.857 28.434C598.723 28.434 597.949 27.768 597.877 26.958H595.753C595.843 28.758 597.517 30.162 599.893 30.162C602.233 30.162 603.691 28.902 603.691 27.228ZM605.909 30H607.961V25.734L611.633 30H614.405L609.833 25.05L614.405 20.082H611.561L607.961 24.42V16.68H605.909V30ZM628.993 30H631.153L626.671 17.472H624.295L619.813 30H621.955L622.855 27.444H628.093L628.993 30ZM627.517 25.77H623.431L625.483 19.956L627.517 25.77ZM640.14 30H642.174V24.15C642.174 21.378 640.428 19.92 638.106 19.92C636.918 19.92 635.82 20.406 635.154 21.216V20.082H633.102V30H635.154V24.456C635.154 22.638 636.144 21.702 637.656 21.702C639.15 21.702 640.14 22.638 640.14 24.456V30ZM644.107 24.996C644.107 28.056 646.177 30.162 648.751 30.162C650.407 30.162 651.595 29.37 652.225 28.524V30H654.295V20.082H652.225V21.522C651.613 20.712 650.461 19.92 648.787 19.92C646.177 19.92 644.107 21.936 644.107 24.996ZM652.225 25.032C652.225 27.174 650.767 28.38 649.219 28.38C647.689 28.38 646.213 27.138 646.213 24.996C646.213 22.854 647.689 21.702 649.219 21.702C650.767 21.702 652.225 22.908 652.225 25.032ZM656.991 30H659.043V16.68H656.991V30ZM665.643 27.642L662.853 20.082H660.567L664.473 29.838L662.457 34.662H664.581L670.665 20.082H668.541L665.643 27.642ZM679.611 27.228C679.503 23.646 673.905 24.762 673.905 22.764C673.905 22.098 674.481 21.648 675.579 21.648C676.695 21.648 677.361 22.242 677.433 23.106H679.485C679.377 21.126 677.901 19.92 675.651 19.92C673.311 19.92 671.835 21.198 671.835 22.782C671.835 26.418 677.595 25.302 677.595 27.246C677.595 27.93 676.965 28.434 675.777 28.434C674.643 28.434 673.869 27.768 673.797 26.958H671.673C671.763 28.758 673.437 30.162 675.813 30.162C678.153 30.162 679.611 28.902 679.611 27.228ZM682.153 27.246C682.153 29.262 683.251 30 685.015 30H686.635V28.29H685.375C684.511 28.29 684.223 27.984 684.223 27.246V21.756H686.635V20.082H684.223V17.616H682.153V20.082H680.983V21.756H682.153V27.246Z" fill="#212832"/>
<g filter="url(#filter1_d_585_4689)">
<rect x="446" y="68" width="374.642" height="46.8302" fill="white" shape-rendering="crispEdges"/>
<rect x="445.766" y="67.7658" width="375.11" height="47.2985" stroke="black" stroke-opacity="0.2" stroke-width="0.468302" shape-rendering="crispEdges"/>
</g>
<path d="M818.187 68.9038H820.06V114.797H818.187V68.9038Z" fill="#36C8E3" stroke="#36C8E3" stroke-width="0.936604"/>
<path d="M566.648 98H568.7V89.432L572.534 98H573.956L577.772 89.432V98H579.824V85.49H577.628L573.254 95.3L568.862 85.49H566.648V98ZM581.837 92.996C581.837 96.056 583.907 98.162 586.481 98.162C588.137 98.162 589.325 97.37 589.955 96.524V98H592.025V88.082H589.955V89.522C589.343 88.712 588.191 87.92 586.517 87.92C583.907 87.92 581.837 89.936 581.837 92.996ZM589.955 93.032C589.955 95.174 588.497 96.38 586.949 96.38C585.419 96.38 583.943 95.138 583.943 92.996C583.943 90.854 585.419 89.702 586.949 89.702C588.497 89.702 589.955 90.908 589.955 93.032ZM596.772 92.78C596.772 90.674 597.708 90.044 599.22 90.044H599.742V87.92C598.338 87.92 597.348 88.532 596.772 89.522V88.082H594.72V98H596.772V92.78ZM601.628 98H603.68V93.734L607.352 98H610.124L605.552 93.05L610.124 88.082H607.28L603.68 92.42V84.68H601.628V98ZM615.771 89.648C617.301 89.648 618.507 90.62 618.543 92.15H613.053C613.269 90.584 614.385 89.648 615.771 89.648ZM620.415 95.048H618.201C617.823 95.822 617.121 96.434 615.861 96.434C614.349 96.434 613.179 95.444 613.035 93.806H620.613C620.667 93.464 620.685 93.14 620.685 92.798C620.685 89.882 618.687 87.92 615.861 87.92C612.927 87.92 610.911 89.918 610.911 93.032C610.911 96.146 613.017 98.162 615.861 98.162C618.291 98.162 619.857 96.776 620.415 95.048ZM623.028 95.246C623.028 97.262 624.126 98 625.89 98H627.51V96.29H626.25C625.386 96.29 625.098 95.984 625.098 95.246V89.756H627.51V88.082H625.098V85.616H623.028V88.082H621.858V89.756H623.028V95.246ZM642.52 98H644.68L640.198 85.472H637.822L633.34 98H635.482L636.382 95.444H641.62L642.52 98ZM641.044 93.77H636.958L639.01 87.956L641.044 93.77ZM653.666 98H655.7V92.15C655.7 89.378 653.954 87.92 651.632 87.92C650.444 87.92 649.346 88.406 648.68 89.216V88.082H646.628V98H648.68V92.456C648.68 90.638 649.67 89.702 651.182 89.702C652.676 89.702 653.666 90.638 653.666 92.456V98ZM657.634 92.996C657.634 96.056 659.704 98.162 662.278 98.162C663.934 98.162 665.122 97.37 665.752 96.524V98H667.822V88.082H665.752V89.522C665.14 88.712 663.988 87.92 662.314 87.92C659.704 87.92 657.634 89.936 657.634 92.996ZM665.752 93.032C665.752 95.174 664.294 96.38 662.746 96.38C661.216 96.38 659.74 95.138 659.74 92.996C659.74 90.854 661.216 89.702 662.746 89.702C664.294 89.702 665.752 90.908 665.752 93.032ZM670.517 98H672.569V84.68H670.517V98ZM679.169 95.642L676.379 88.082H674.093L677.999 97.838L675.983 102.662H678.107L684.191 88.082H682.067L679.169 95.642ZM693.138 95.228C693.03 91.646 687.432 92.762 687.432 90.764C687.432 90.098 688.008 89.648 689.106 89.648C690.222 89.648 690.888 90.242 690.96 91.106H693.012C692.904 89.126 691.428 87.92 689.178 87.92C686.838 87.92 685.362 89.198 685.362 90.782C685.362 94.418 691.122 93.302 691.122 95.246C691.122 95.93 690.492 96.434 689.304 96.434C688.17 96.434 687.396 95.768 687.324 94.958H685.2C685.29 96.758 686.964 98.162 689.34 98.162C691.68 98.162 693.138 96.902 693.138 95.228ZM695.679 95.246C695.679 97.262 696.777 98 698.541 98H700.161V96.29H698.901C698.037 96.29 697.749 95.984 697.749 95.246V89.756H700.161V88.082H697.749V85.616H695.679V88.082H694.509V89.756H695.679V95.246Z" fill="#212832"/>
<g filter="url(#filter2_d_585_4689)">
<rect x="867" y="1" width="374.642" height="46.8302" fill="white" shape-rendering="crispEdges"/>
<rect x="866.766" y="0.765849" width="375.11" height="47.2985" stroke="black" stroke-opacity="0.2" stroke-width="0.468302" shape-rendering="crispEdges"/>
</g>
<path d="M1239.66 1.4683H1241.53V47.3619H1239.66V1.4683Z" fill="#D96868" stroke="#D96868" stroke-width="0.936604"/>
<path d="M977.989 30H980.041V24.528H984.181V22.854H980.041V19.164H985.351V17.49H977.989V30ZM987.252 30H989.304V20.082H987.252V30ZM988.296 18.768C989.016 18.768 989.592 18.192 989.592 17.454C989.592 16.716 989.016 16.14 988.296 16.14C987.558 16.14 986.982 16.716 986.982 17.454C986.982 18.192 987.558 18.768 988.296 18.768ZM999.036 30H1001.07V24.15C1001.07 21.378 999.324 19.92 997.002 19.92C995.814 19.92 994.716 20.406 994.05 21.216V20.082H991.998V30H994.05V24.456C994.05 22.638 995.04 21.702 996.552 21.702C998.046 21.702 999.036 22.638 999.036 24.456V30ZM1003 24.996C1003 28.056 1005.07 30.162 1007.65 30.162C1009.3 30.162 1010.49 29.37 1011.12 28.524V30H1013.19V20.082H1011.12V21.522C1010.51 20.712 1009.36 19.92 1007.68 19.92C1005.07 19.92 1003 21.936 1003 24.996ZM1011.12 25.032C1011.12 27.174 1009.66 28.38 1008.12 28.38C1006.59 28.38 1005.11 27.138 1005.11 24.996C1005.11 22.854 1006.59 21.702 1008.12 21.702C1009.66 21.702 1011.12 22.908 1011.12 25.032ZM1022.93 30H1024.96V24.15C1024.96 21.378 1023.21 19.92 1020.89 19.92C1019.7 19.92 1018.61 20.406 1017.94 21.216V20.082H1015.89V30H1017.94V24.456C1017.94 22.638 1018.93 21.702 1020.44 21.702C1021.94 21.702 1022.93 22.638 1022.93 24.456V30ZM1026.89 25.032C1026.89 28.146 1028.91 30.162 1031.75 30.162C1034.18 30.162 1035.77 28.812 1036.32 26.868H1034.11C1033.73 27.894 1032.98 28.434 1031.75 28.434C1030.1 28.434 1029 27.21 1029 25.032C1029 22.872 1030.1 21.648 1031.75 21.648C1032.98 21.648 1033.77 22.26 1034.11 23.214H1036.32C1035.77 21.126 1034.18 19.92 1031.75 19.92C1028.91 19.92 1026.89 21.936 1026.89 25.032ZM1038.37 30H1040.42V20.082H1038.37V30ZM1039.41 18.768C1040.13 18.768 1040.71 18.192 1040.71 17.454C1040.71 16.716 1040.13 16.14 1039.41 16.14C1038.68 16.14 1038.1 16.716 1038.1 17.454C1038.1 18.192 1038.68 18.768 1039.41 18.768ZM1042.43 24.996C1042.43 28.056 1044.5 30.162 1047.08 30.162C1048.73 30.162 1049.92 29.37 1050.55 28.524V30H1052.62V20.082H1050.55V21.522C1049.94 20.712 1048.79 19.92 1047.11 19.92C1044.5 19.92 1042.43 21.936 1042.43 24.996ZM1050.55 25.032C1050.55 27.174 1049.09 28.38 1047.54 28.38C1046.01 28.38 1044.54 27.138 1044.54 24.996C1044.54 22.854 1046.01 21.702 1047.54 21.702C1049.09 21.702 1050.55 22.908 1050.55 25.032ZM1055.31 30H1057.37V16.68H1055.31V30ZM1073.18 30H1075.34L1070.86 17.472H1068.48L1064 30H1066.14L1067.04 27.444H1072.28L1073.18 30ZM1071.7 25.77H1067.62L1069.67 19.956L1071.7 25.77ZM1084.33 30H1086.36V24.15C1086.36 21.378 1084.61 19.92 1082.29 19.92C1081.1 19.92 1080.01 20.406 1079.34 21.216V20.082H1077.29V30H1079.34V24.456C1079.34 22.638 1080.33 21.702 1081.84 21.702C1083.34 21.702 1084.33 22.638 1084.33 24.456V30ZM1088.29 24.996C1088.29 28.056 1090.36 30.162 1092.94 30.162C1094.59 30.162 1095.78 29.37 1096.41 28.524V30H1098.48V20.082H1096.41V21.522C1095.8 20.712 1094.65 19.92 1092.97 19.92C1090.36 19.92 1088.29 21.936 1088.29 24.996ZM1096.41 25.032C1096.41 27.174 1094.95 28.38 1093.4 28.38C1091.87 28.38 1090.4 27.138 1090.4 24.996C1090.4 22.854 1091.87 21.702 1093.4 21.702C1094.95 21.702 1096.41 22.908 1096.41 25.032ZM1101.18 30H1103.23V16.68H1101.18V30ZM1109.83 27.642L1107.04 20.082H1104.75L1108.66 29.838L1106.64 34.662H1108.77L1114.85 20.082H1112.73L1109.83 27.642ZM1123.8 27.228C1123.69 23.646 1118.09 24.762 1118.09 22.764C1118.09 22.098 1118.67 21.648 1119.76 21.648C1120.88 21.648 1121.55 22.242 1121.62 23.106H1123.67C1123.56 21.126 1122.09 19.92 1119.84 19.92C1117.5 19.92 1116.02 21.198 1116.02 22.782C1116.02 26.418 1121.78 25.302 1121.78 27.246C1121.78 27.93 1121.15 28.434 1119.96 28.434C1118.83 28.434 1118.05 27.768 1117.98 26.958H1115.86C1115.95 28.758 1117.62 30.162 1120 30.162C1122.34 30.162 1123.8 28.902 1123.8 27.228ZM1126.34 27.246C1126.34 29.262 1127.44 30 1129.2 30H1130.82V28.29H1129.56C1128.7 28.29 1128.41 27.984 1128.41 27.246V21.756H1130.82V20.082H1128.41V17.616H1126.34V20.082H1125.17V21.756H1126.34V27.246Z" fill="#212832"/>
<g filter="url(#filter3_d_585_4689)">
<rect x="24" y="1" width="374.642" height="46.8302" fill="white" shape-rendering="crispEdges"/>
<rect x="23.7658" y="0.765849" width="375.11" height="47.2985" stroke="black" stroke-opacity="0.2" stroke-width="0.468302" shape-rendering="crispEdges"/>
</g>
<path d="M164.816 21.234C164.816 22.476 164.096 23.358 162.494 23.358H160.226V19.164H162.494C164.096 19.164 164.816 19.974 164.816 21.234ZM158.174 17.49V30H160.226V24.996H161.792L164.672 30H167.12L164.024 24.816C166.13 24.294 166.922 22.71 166.922 21.234C166.922 19.2 165.464 17.49 162.494 17.49H158.174ZM169.547 30H171.599V20.082H169.547V30ZM170.591 18.768C171.311 18.768 171.887 18.192 171.887 17.454C171.887 16.716 171.311 16.14 170.591 16.14C169.853 16.14 169.277 16.716 169.277 17.454C169.277 18.192 169.853 18.768 170.591 18.768ZM181.691 27.228C181.583 23.646 175.985 24.762 175.985 22.764C175.985 22.098 176.561 21.648 177.659 21.648C178.775 21.648 179.441 22.242 179.513 23.106H181.565C181.457 21.126 179.981 19.92 177.731 19.92C175.391 19.92 173.915 21.198 173.915 22.782C173.915 26.418 179.675 25.302 179.675 27.246C179.675 27.93 179.045 28.434 177.857 28.434C176.723 28.434 175.949 27.768 175.877 26.958H173.753C173.843 28.758 175.517 30.162 177.893 30.162C180.233 30.162 181.691 28.902 181.691 27.228ZM183.909 30H185.961V25.734L189.633 30H192.405L187.833 25.05L192.405 20.082H189.561L185.961 24.42V16.68H183.909V30ZM206.993 30H209.153L204.671 17.472H202.295L197.813 30H199.955L200.855 27.444H206.093L206.993 30ZM205.517 25.77H201.431L203.483 19.956L205.517 25.77ZM218.14 30H220.174V24.15C220.174 21.378 218.428 19.92 216.106 19.92C214.918 19.92 213.82 20.406 213.154 21.216V20.082H211.102V30H213.154V24.456C213.154 22.638 214.144 21.702 215.656 21.702C217.15 21.702 218.14 22.638 218.14 24.456V30ZM222.107 24.996C222.107 28.056 224.177 30.162 226.751 30.162C228.407 30.162 229.595 29.37 230.225 28.524V30H232.295V20.082H230.225V21.522C229.613 20.712 228.461 19.92 226.787 19.92C224.177 19.92 222.107 21.936 222.107 24.996ZM230.225 25.032C230.225 27.174 228.767 28.38 227.219 28.38C225.689 28.38 224.213 27.138 224.213 24.996C224.213 22.854 225.689 21.702 227.219 21.702C228.767 21.702 230.225 22.908 230.225 25.032ZM234.991 30H237.043V16.68H234.991V30ZM243.643 27.642L240.853 20.082H238.567L242.473 29.838L240.457 34.662H242.581L248.665 20.082H246.541L243.643 27.642ZM257.611 27.228C257.503 23.646 251.905 24.762 251.905 22.764C251.905 22.098 252.481 21.648 253.579 21.648C254.695 21.648 255.361 22.242 255.433 23.106H257.485C257.377 21.126 255.901 19.92 253.651 19.92C251.311 19.92 249.835 21.198 249.835 22.782C249.835 26.418 255.595 25.302 255.595 27.246C255.595 27.93 254.965 28.434 253.777 28.434C252.643 28.434 251.869 27.768 251.797 26.958H249.673C249.763 28.758 251.437 30.162 253.813 30.162C256.153 30.162 257.611 28.902 257.611 27.228ZM260.153 27.246C260.153 29.262 261.251 30 263.015 30H264.635V28.29H263.375C262.511 28.29 262.223 27.984 262.223 27.246V21.756H264.635V20.082H262.223V17.616H260.153V20.082H258.983V21.756H260.153V27.246Z" fill="#212832"/>
<path d="M396.714 1.4683H398.588V47.3619H396.714V1.4683Z" fill="#946FB0" stroke="#946FB0" stroke-width="0.936604"/>
<g filter="url(#filter4_d_585_4689)">
<rect x="24" y="68" width="374.642" height="46.8302" fill="white" shape-rendering="crispEdges"/>
<rect x="23.7658" y="67.7658" width="375.11" height="47.2985" stroke="black" stroke-opacity="0.2" stroke-width="0.468302" shape-rendering="crispEdges"/>
</g>
<path d="M127.693 98H129.745V85.49H127.693V98ZM139.477 98H141.511V92.15C141.511 89.378 139.765 87.92 137.443 87.92C136.255 87.92 135.157 88.406 134.491 89.216V88.082H132.439V98H134.491V92.456C134.491 90.638 135.481 89.702 136.993 89.702C138.487 89.702 139.477 90.638 139.477 92.456V98ZM142.958 88.082L146.72 98H149.168L152.948 88.082H150.77L147.962 96.164L145.154 88.082H142.958ZM158.675 89.648C160.205 89.648 161.411 90.62 161.447 92.15H155.957C156.173 90.584 157.289 89.648 158.675 89.648ZM163.319 95.048H161.105C160.727 95.822 160.025 96.434 158.765 96.434C157.253 96.434 156.083 95.444 155.939 93.806H163.517C163.571 93.464 163.589 93.14 163.589 92.798C163.589 89.882 161.591 87.92 158.765 87.92C155.831 87.92 153.815 89.918 153.815 93.032C153.815 96.146 155.921 98.162 158.765 98.162C161.195 98.162 162.761 96.776 163.319 95.048ZM173.007 95.228C172.899 91.646 167.301 92.762 167.301 90.764C167.301 90.098 167.877 89.648 168.975 89.648C170.091 89.648 170.757 90.242 170.829 91.106H172.881C172.773 89.126 171.297 87.92 169.047 87.92C166.707 87.92 165.231 89.198 165.231 90.782C165.231 94.418 170.991 93.302 170.991 95.246C170.991 95.93 170.361 96.434 169.173 96.434C168.039 96.434 167.265 95.768 167.193 94.958H165.069C165.159 96.758 166.833 98.162 169.209 98.162C171.549 98.162 173.007 96.902 173.007 95.228ZM175.548 95.246C175.548 97.262 176.646 98 178.41 98H180.03V96.29H178.77C177.906 96.29 177.618 95.984 177.618 95.246V89.756H180.03V88.082H177.618V85.616H175.548V88.082H174.378V89.756H175.548V95.246ZM195.979 98H198.013V92.15C198.013 89.378 196.249 87.92 193.927 87.92C192.487 87.92 191.083 88.676 190.471 89.882C189.787 88.586 188.473 87.92 186.907 87.92C185.719 87.92 184.639 88.406 183.973 89.216V88.082H181.921V98H183.973V92.456C183.973 90.638 184.963 89.702 186.475 89.702C187.969 89.702 188.959 90.638 188.959 92.456V98H190.993V92.456C190.993 90.638 191.983 89.702 193.495 89.702C194.989 89.702 195.979 90.638 195.979 92.456V98ZM204.8 89.648C206.33 89.648 207.536 90.62 207.572 92.15H202.082C202.298 90.584 203.414 89.648 204.8 89.648ZM209.444 95.048H207.23C206.852 95.822 206.15 96.434 204.89 96.434C203.378 96.434 202.208 95.444 202.064 93.806H209.642C209.696 93.464 209.714 93.14 209.714 92.798C209.714 89.882 207.716 87.92 204.89 87.92C201.956 87.92 199.94 89.918 199.94 93.032C199.94 96.146 202.046 98.162 204.89 98.162C207.32 98.162 208.886 96.776 209.444 95.048ZM218.772 98H220.806V92.15C220.806 89.378 219.06 87.92 216.738 87.92C215.55 87.92 214.452 88.406 213.786 89.216V88.082H211.734V98H213.786V92.456C213.786 90.638 214.776 89.702 216.288 89.702C217.782 89.702 218.772 90.638 218.772 92.456V98ZM223.747 95.246C223.747 97.262 224.845 98 226.609 98H228.229V96.29H226.969C226.105 96.29 225.817 95.984 225.817 95.246V89.756H228.229V88.082H225.817V85.616H223.747V88.082H222.577V89.756H223.747V95.246ZM241.852 94.418C241.852 95.624 241.006 96.326 239.62 96.326H236.848V92.42H239.548C240.916 92.42 241.852 93.176 241.852 94.418ZM241.528 88.964C241.528 90.116 240.718 90.746 239.386 90.746H236.848V87.164H239.386C240.718 87.164 241.528 87.83 241.528 88.964ZM243.904 94.634C243.904 93.14 242.824 91.808 241.492 91.574C242.698 91.142 243.616 90.224 243.616 88.712C243.616 86.948 242.212 85.49 239.566 85.49H234.796V98H239.8C242.356 98 243.904 96.542 243.904 94.634ZM245.45 92.996C245.45 96.056 247.52 98.162 250.094 98.162C251.75 98.162 252.938 97.37 253.568 96.524V98H255.638V88.082H253.568V89.522C252.956 88.712 251.804 87.92 250.13 87.92C247.52 87.92 245.45 89.936 245.45 92.996ZM253.568 93.032C253.568 95.174 252.11 96.38 250.562 96.38C249.032 96.38 247.556 95.138 247.556 92.996C247.556 90.854 249.032 89.702 250.562 89.702C252.11 89.702 253.568 90.908 253.568 93.032ZM265.371 98H267.405V92.15C267.405 89.378 265.659 87.92 263.337 87.92C262.149 87.92 261.051 88.406 260.385 89.216V88.082H258.333V98H260.385V92.456C260.385 90.638 261.375 89.702 262.887 89.702C264.381 89.702 265.371 90.638 265.371 92.456V98ZM270.023 98H272.075V93.734L275.747 98H278.519L273.947 93.05L278.519 88.082H275.675L272.075 92.42V84.68H270.023V98ZM284.166 89.648C285.696 89.648 286.902 90.62 286.938 92.15H281.448C281.664 90.584 282.78 89.648 284.166 89.648ZM288.81 95.048H286.596C286.218 95.822 285.516 96.434 284.256 96.434C282.744 96.434 281.574 95.444 281.43 93.806H289.008C289.062 93.464 289.08 93.14 289.08 92.798C289.08 89.882 287.082 87.92 284.256 87.92C281.322 87.92 279.306 89.918 279.306 93.032C279.306 96.146 281.412 98.162 284.256 98.162C286.686 98.162 288.252 96.776 288.81 95.048ZM293.151 92.78C293.151 90.674 294.087 90.044 295.599 90.044H296.121V87.92C294.717 87.92 293.727 88.532 293.151 89.522V88.082H291.099V98H293.151V92.78Z" fill="#212832"/>
<path d="M396.714 68.9038H398.588V114.797H396.714V68.9038Z" fill="#CF1C54" stroke="#CF1C54" stroke-width="0.936604"/>
<circle cx="24.5" cy="24.5" r="23.5" fill="#946FB0" stroke="#946FB0"/>
<circle cx="445.973" cy="24.5" r="23.5" fill="#A9CF54" stroke="#A9CF54"/>
<circle cx="867.445" cy="24.5" r="23.5" fill="#D96868" stroke="#D96868"/>
<circle cx="24.5" cy="91.9355" r="23.5" fill="#E9336C" stroke="#E9336C"/>
<circle cx="445.973" cy="91.9355" r="23.5" fill="#36C8E3" stroke="#36C8E3"/>
<path d="M16.2662 24.17C16.2662 28.1412 17.3152 31.1383 21.1365 31.1383C24.9579 31.1383 26.0069 28.1412 26.0069 24.17C26.0069 20.2737 24.9579 17.2766 21.1365 17.2766C17.3152 17.2766 16.2662 20.2737 16.2662 24.17ZM23.9089 24.17C23.9089 26.8487 23.6279 29.1902 21.1365 29.1902C18.6451 29.1902 18.3642 26.8487 18.3642 24.17C18.3642 21.6224 18.6451 19.2247 21.1365 19.2247C23.6279 19.2247 23.9089 21.6224 23.9089 24.17ZM29.7275 31.1758H31.8817V17.5201H27.9854V19.4682H29.7275V31.1758Z" fill="#212832"/>
<path d="M13.4738 91.6055C13.4738 95.5767 14.5228 98.5739 18.3441 98.5739C22.1655 98.5739 23.2145 95.5767 23.2145 91.6055C23.2145 87.7093 22.1655 84.7121 18.3441 84.7121C14.5228 84.7121 13.4738 87.7093 13.4738 91.6055ZM21.1165 91.6055C21.1165 94.2842 20.8355 96.6257 18.3441 96.6257C15.8528 96.6257 15.5718 94.2842 15.5718 91.6055C15.5718 89.058 15.8528 86.6603 18.3441 86.6603C20.8355 86.6603 21.1165 89.058 21.1165 91.6055ZM31.9928 98.6113H34.0908V95.7641H35.8329V93.9096H34.0908V85.1242H31.5058L25.2118 94.1531V95.7641H31.9928V98.6113ZM27.6657 93.9096L32.0865 87.2972V93.9096H27.6657Z" fill="#212832"/>
<path d="M435.605 24.17C435.605 28.1412 436.654 31.1383 440.475 31.1383C444.297 31.1383 445.346 28.1412 445.346 24.17C445.346 20.2737 444.297 17.2766 440.475 17.2766C436.654 17.2766 435.605 20.2737 435.605 24.17ZM443.248 24.17C443.248 26.8487 442.967 29.1902 440.475 29.1902C437.984 29.1902 437.703 26.8487 437.703 24.17C437.703 21.6224 437.984 19.2247 440.475 19.2247C442.967 19.2247 443.248 21.6224 443.248 24.17ZM447.437 30.9885H456.54V29.2089H450.602C452.794 27.2046 456.166 24.6758 456.166 21.3602C456.166 18.9063 454.592 17.2391 451.82 17.2391C449.404 17.2391 447.493 18.6815 447.418 21.6412H449.478C449.535 20.1051 450.34 19.0561 451.839 19.0561C453.431 19.0561 454.049 20.0302 454.049 21.4538C454.049 24.1325 450.659 26.6052 447.437 29.4337V30.9885Z" fill="#212832"/>
<path d="M435.029 91.6055C435.029 95.5767 436.078 98.5739 439.899 98.5739C443.72 98.5739 444.769 95.5767 444.769 91.6055C444.769 87.7093 443.72 84.7121 439.899 84.7121C436.078 84.7121 435.029 87.7093 435.029 91.6055ZM442.671 91.6055C442.671 94.2842 442.39 96.6257 439.899 96.6257C437.408 96.6257 437.127 94.2842 437.127 91.6055C437.127 89.058 437.408 86.6603 439.899 86.6603C442.39 86.6603 442.671 89.058 442.671 91.6055ZM447.591 84.9182V92.8044H449.614C449.97 91.7929 450.813 91.0998 452.068 91.0998C453.847 91.0998 454.728 92.1113 454.728 93.8908C454.728 95.5767 453.904 96.8318 452.068 96.8318C450.626 96.8318 449.651 96.0825 449.371 94.9211H447.291C447.61 97.0566 449.239 98.6113 452.049 98.6113C455.215 98.6113 456.77 96.5508 456.77 93.8346C456.77 91.7741 455.739 89.2828 452.386 89.2828C451.169 89.2828 450.064 89.8447 449.558 90.5191V86.7914H455.833V84.9182H447.591Z" fill="#212832"/>
<path d="M856.454 24.17C856.454 28.1412 857.503 31.1383 861.324 31.1383C865.146 31.1383 866.195 28.1412 866.195 24.17C866.195 20.2737 865.146 17.2766 861.324 17.2766C857.503 17.2766 856.454 20.2737 856.454 24.17ZM864.097 24.17C864.097 26.8487 863.816 29.1902 861.324 29.1902C858.833 29.1902 858.552 26.8487 858.552 24.17C858.552 21.6224 858.833 19.2247 861.324 19.2247C863.816 19.2247 864.097 21.6224 864.097 24.17ZM868.417 20.8919H870.496C870.627 19.9365 871.32 19.0374 872.819 19.0374C874.28 19.0374 875.048 19.8241 875.048 21.0043C875.048 22.4654 873.868 23.0273 871.938 23.0461H871.432V24.8069H871.92C874.149 24.8069 875.31 25.425 875.31 27.2233C875.31 28.4971 874.523 29.4712 872.931 29.4712C871.32 29.4712 870.384 28.4971 870.29 27.2233H868.229C868.36 29.902 870.365 31.2507 872.95 31.2507C875.797 31.2507 877.333 29.6023 877.333 27.4294C877.333 25.5374 876.415 24.3573 874.992 23.9265V23.8515C876.059 23.4956 877.09 22.3904 877.09 20.7607C877.09 18.7751 875.61 17.2017 872.894 17.2017C870.402 17.2017 868.566 18.5316 868.417 20.8919Z" fill="#212832"/>
<defs>
<filter id="filter0_d_585_4689" x="445.531" y="0.531738" width="375.578" height="47.7668" filterUnits="userSpaceOnUse" color-interpolation-filters="sRGB">
<feFlood flood-opacity="0" result="BackgroundImageFix"/>
<feColorMatrix in="SourceAlpha" type="matrix" values="0 0 0 0 0 0 0 0 0 0 0 0 0 0 0 0 0 0 127 0" result="hardAlpha"/>
<feOffset/>
<feComposite in2="hardAlpha" operator="out"/>
<feColorMatrix type="matrix" values="0 0 0 0 0 0 0 0 0 0 0 0 0 0 0 0 0 0 0.1 0"/>
<feBlend mode="normal" in2="BackgroundImageFix" result="effect1_dropShadow_585_4689"/>
<feBlend mode="normal" in="SourceGraphic" in2="effect1_dropShadow_585_4689" result="shape"/>
</filter>
<filter id="filter1_d_585_4689" x="445.531" y="67.5317" width="375.578" height="47.7668" filterUnits="userSpaceOnUse" color-interpolation-filters="sRGB">
<feFlood flood-opacity="0" result="BackgroundImageFix"/>
<feColorMatrix in="SourceAlpha" type="matrix" values="0 0 0 0 0 0 0 0 0 0 0 0 0 0 0 0 0 0 127 0" result="hardAlpha"/>
<feOffset/>
<feComposite in2="hardAlpha" operator="out"/>
<feColorMatrix type="matrix" values="0 0 0 0 0 0 0 0 0 0 0 0 0 0 0 0 0 0 0.1 0"/>
<feBlend mode="normal" in2="BackgroundImageFix" result="effect1_dropShadow_585_4689"/>
<feBlend mode="normal" in="SourceGraphic" in2="effect1_dropShadow_585_4689" result="shape"/>
</filter>
<filter id="filter2_d_585_4689" x="866.531" y="0.531738" width="375.578" height="47.7668" filterUnits="userSpaceOnUse" color-interpolation-filters="sRGB">
<feFlood flood-opacity="0" result="BackgroundImageFix"/>
<feColorMatrix in="SourceAlpha" type="matrix" values="0 0 0 0 0 0 0 0 0 0 0 0 0 0 0 0 0 0 127 0" result="hardAlpha"/>
<feOffset/>
<feComposite in2="hardAlpha" operator="out"/>
<feColorMatrix type="matrix" values="0 0 0 0 0 0 0 0 0 0 0 0 0 0 0 0 0 0 0.1 0"/>
<feBlend mode="normal" in2="BackgroundImageFix" result="effect1_dropShadow_585_4689"/>
<feBlend mode="normal" in="SourceGraphic" in2="effect1_dropShadow_585_4689" result="shape"/>
</filter>
<filter id="filter3_d_585_4689" x="23.5312" y="0.531738" width="375.578" height="47.7668" filterUnits="userSpaceOnUse" color-interpolation-filters="sRGB">
<feFlood flood-opacity="0" result="BackgroundImageFix"/>
<feColorMatrix in="SourceAlpha" type="matrix" values="0 0 0 0 0 0 0 0 0 0 0 0 0 0 0 0 0 0 127 0" result="hardAlpha"/>
<feOffset/>
<feComposite in2="hardAlpha" operator="out"/>
<feColorMatrix type="matrix" values="0 0 0 0 0 0 0 0 0 0 0 0 0 0 0 0 0 0 0.1 0"/>
<feBlend mode="normal" in2="BackgroundImageFix" result="effect1_dropShadow_585_4689"/>
<feBlend mode="normal" in="SourceGraphic" in2="effect1_dropShadow_585_4689" result="shape"/>
</filter>
<filter id="filter4_d_585_4689" x="23.5312" y="67.5317" width="375.578" height="47.7668" filterUnits="userSpaceOnUse" color-interpolation-filters="sRGB">
<feFlood flood-opacity="0" result="BackgroundImageFix"/>
<feColorMatrix in="SourceAlpha" type="matrix" values="0 0 0 0 0 0 0 0 0 0 0 0 0 0 0 0 0 0 127 0" result="hardAlpha"/>
<feOffset/>
<feComposite in2="hardAlpha" operator="out"/>
<feColorMatrix type="matrix" values="0 0 0 0 0 0 0 0 0 0 0 0 0 0 0 0 0 0 0.1 0"/>
<feBlend mode="normal" in2="BackgroundImageFix" result="effect1_dropShadow_585_4689"/>
<feBlend mode="normal" in="SourceGraphic" in2="effect1_dropShadow_585_4689" result="shape"/>
</filter>
</defs>
</svg>
