<svg width="1226" height="50" viewBox="0 0 1226 50" fill="none" xmlns="http://www.w3.org/2000/svg">
<g filter="url(#filter0_d_585_5589)">
<rect x="24" y="2" width="267" height="47" fill="white" shape-rendering="crispEdges"/>
<rect x="23.7658" y="1.76585" width="267.468" height="47.4683" stroke="black" stroke-opacity="0.2" stroke-width="0.468302" shape-rendering="crispEdges"/>
</g>
<path d="M89.8718 27.418C89.8718 28.624 89.0258 29.326 87.6398 29.326H84.8678V25.42H87.5678C88.9358 25.42 89.8718 26.176 89.8718 27.418ZM89.5478 21.964C89.5478 23.116 88.7378 23.746 87.4058 23.746H84.8678V20.164H87.4058C88.7378 20.164 89.5478 20.83 89.5478 21.964ZM91.9238 27.634C91.9238 26.14 90.8438 24.808 89.5118 24.574C90.7178 24.142 91.6358 23.224 91.6358 21.712C91.6358 19.948 90.2318 18.49 87.5858 18.49H82.8158V31H87.8198C90.3758 31 91.9238 29.542 91.9238 27.634ZM103.136 21.082H101.084V26.608C101.084 28.426 100.094 29.362 98.5817 29.362C97.0877 29.362 96.0977 28.426 96.0977 26.608V21.082H94.0637V26.914C94.0637 29.686 95.8277 31.144 98.1497 31.144C99.3197 31.144 100.436 30.658 101.084 29.812V31H103.136V21.082ZM113.241 28.228C113.133 24.646 107.535 25.762 107.535 23.764C107.535 23.098 108.111 22.648 109.209 22.648C110.325 22.648 110.991 23.242 111.063 24.106H113.115C113.007 22.126 111.531 20.92 109.281 20.92C106.941 20.92 105.465 22.198 105.465 23.782C105.465 27.418 111.225 26.302 111.225 28.246C111.225 28.93 110.595 29.434 109.407 29.434C108.273 29.434 107.499 28.768 107.427 27.958H105.303C105.393 29.758 107.067 31.162 109.443 31.162C111.783 31.162 113.241 29.902 113.241 28.228ZM115.458 31H117.51V21.082H115.458V31ZM116.502 19.768C117.222 19.768 117.798 19.192 117.798 18.454C117.798 17.716 117.222 17.14 116.502 17.14C115.764 17.14 115.188 17.716 115.188 18.454C115.188 19.192 115.764 19.768 116.502 19.768ZM127.242 31H129.276V25.15C129.276 22.378 127.53 20.92 125.208 20.92C124.02 20.92 122.922 21.406 122.256 22.216V21.082H120.204V31H122.256V25.456C122.256 23.638 123.246 22.702 124.758 22.702C126.252 22.702 127.242 23.638 127.242 25.456V31ZM136.07 22.648C137.6 22.648 138.806 23.62 138.842 25.15H133.352C133.568 23.584 134.684 22.648 136.07 22.648ZM140.714 28.048H138.5C138.122 28.822 137.42 29.434 136.16 29.434C134.648 29.434 133.478 28.444 133.334 26.806H140.912C140.966 26.464 140.984 26.14 140.984 25.798C140.984 22.882 138.986 20.92 136.16 20.92C133.226 20.92 131.21 22.918 131.21 26.032C131.21 29.146 133.316 31.162 136.16 31.162C138.59 31.162 140.156 29.776 140.714 28.048ZM150.401 28.228C150.293 24.646 144.695 25.762 144.695 23.764C144.695 23.098 145.271 22.648 146.369 22.648C147.485 22.648 148.151 23.242 148.223 24.106H150.275C150.167 22.126 148.691 20.92 146.441 20.92C144.101 20.92 142.625 22.198 142.625 23.782C142.625 27.418 148.385 26.302 148.385 28.246C148.385 28.93 147.755 29.434 146.567 29.434C145.433 29.434 144.659 28.768 144.587 27.958H142.463C142.553 29.758 144.227 31.162 146.603 31.162C148.943 31.162 150.401 29.902 150.401 28.228ZM160.017 28.228C159.909 24.646 154.311 25.762 154.311 23.764C154.311 23.098 154.887 22.648 155.985 22.648C157.101 22.648 157.767 23.242 157.839 24.106H159.891C159.783 22.126 158.307 20.92 156.057 20.92C153.717 20.92 152.241 22.198 152.241 23.782C152.241 27.418 158.001 26.302 158.001 28.246C158.001 28.93 157.371 29.434 156.183 29.434C155.049 29.434 154.275 28.768 154.203 27.958H152.079C152.169 29.758 153.843 31.162 156.219 31.162C158.559 31.162 160.017 29.902 160.017 28.228ZM175.352 31H177.512L173.03 18.472H170.654L166.172 31H168.314L169.214 28.444H174.452L175.352 31ZM173.876 26.77H169.79L171.842 20.956L173.876 26.77ZM186.498 31H188.532V25.15C188.532 22.378 186.786 20.92 184.464 20.92C183.276 20.92 182.178 21.406 181.512 22.216V21.082H179.46V31H181.512V25.456C181.512 23.638 182.502 22.702 184.014 22.702C185.508 22.702 186.498 23.638 186.498 25.456V31ZM190.466 25.996C190.466 29.056 192.536 31.162 195.11 31.162C196.766 31.162 197.954 30.37 198.584 29.524V31H200.654V21.082H198.584V22.522C197.972 21.712 196.82 20.92 195.146 20.92C192.536 20.92 190.466 22.936 190.466 25.996ZM198.584 26.032C198.584 28.174 197.126 29.38 195.578 29.38C194.048 29.38 192.572 28.138 192.572 25.996C192.572 23.854 194.048 22.702 195.578 22.702C197.126 22.702 198.584 23.908 198.584 26.032ZM203.349 31H205.401V17.68H203.349V31ZM212.001 28.642L209.211 21.082H206.925L210.831 30.838L208.815 35.662H210.939L217.023 21.082H214.899L212.001 28.642ZM225.97 28.228C225.862 24.646 220.264 25.762 220.264 23.764C220.264 23.098 220.84 22.648 221.938 22.648C223.054 22.648 223.72 23.242 223.792 24.106H225.844C225.736 22.126 224.26 20.92 222.01 20.92C219.67 20.92 218.194 22.198 218.194 23.782C218.194 27.418 223.954 26.302 223.954 28.246C223.954 28.93 223.324 29.434 222.136 29.434C221.002 29.434 220.228 28.768 220.156 27.958H218.032C218.122 29.758 219.796 31.162 222.172 31.162C224.512 31.162 225.97 29.902 225.97 28.228ZM228.511 28.246C228.511 30.262 229.609 31 231.373 31H232.993V29.29H231.733C230.869 29.29 230.581 28.984 230.581 28.246V22.756H232.993V21.082H230.581V18.616H228.511V21.082H227.341V22.756H228.511V28.246Z" fill="#212832"/>
<path d="M291 2H289V49H291V2Z" fill="#946FB0" stroke="#946FB0" stroke-width="0.936604"/>
<circle cx="24.5" cy="25.5" r="23.5" fill="#946FB0" stroke="#946FB0"/>
<path d="M16.2662 25.17C16.2662 29.1412 17.3152 32.1383 21.1365 32.1383C24.9579 32.1383 26.0069 29.1412 26.0069 25.17C26.0069 21.2737 24.9579 18.2766 21.1365 18.2766C17.3152 18.2766 16.2662 21.2737 16.2662 25.17ZM23.9089 25.17C23.9089 27.8487 23.6279 30.1902 21.1365 30.1902C18.6451 30.1902 18.3642 27.8487 18.3642 25.17C18.3642 22.6224 18.6451 20.2247 21.1365 20.2247C23.6279 20.2247 23.9089 22.6224 23.9089 25.17ZM29.7275 32.1758H31.8817V18.5201H27.9854V20.4682H29.7275V32.1758Z" fill="#212832"/>
<g filter="url(#filter1_d_585_5589)">
<rect x="958" y="1" width="267" height="47" fill="white" shape-rendering="crispEdges"/>
<rect x="957.766" y="0.765849" width="267.468" height="47.4683" stroke="black" stroke-opacity="0.2" stroke-width="0.468302" shape-rendering="crispEdges"/>
</g>
<path d="M1015.09 31H1017.25L1012.77 18.472H1010.39L1005.91 31H1008.05L1008.95 28.444H1014.19L1015.09 31ZM1013.61 26.77H1009.53L1011.58 20.956L1013.61 26.77ZM1018.51 26.032C1018.51 29.146 1020.53 31.162 1023.37 31.162C1025.8 31.162 1027.39 29.812 1027.94 27.868H1025.73C1025.35 28.894 1024.6 29.434 1023.37 29.434C1021.72 29.434 1020.62 28.21 1020.62 26.032C1020.62 23.872 1021.72 22.648 1023.37 22.648C1024.6 22.648 1025.39 23.26 1025.73 24.214H1027.94C1027.39 22.126 1025.8 20.92 1023.37 20.92C1020.53 20.92 1018.51 22.936 1018.51 26.032ZM1029.31 26.032C1029.31 29.146 1031.32 31.162 1034.17 31.162C1036.6 31.162 1038.18 29.812 1038.74 27.868H1036.52C1036.15 28.894 1035.39 29.434 1034.17 29.434C1032.51 29.434 1031.41 28.21 1031.41 26.032C1031.41 23.872 1032.51 22.648 1034.17 22.648C1035.39 22.648 1036.18 23.26 1036.52 24.214H1038.74C1038.18 22.126 1036.6 20.92 1034.17 20.92C1031.32 20.92 1029.31 22.936 1029.31 26.032ZM1050.23 26.032C1050.23 22.918 1048 20.92 1045.17 20.92C1042.35 20.92 1040.12 22.918 1040.12 26.032C1040.12 29.146 1042.26 31.162 1045.08 31.162C1047.93 31.162 1050.23 29.146 1050.23 26.032ZM1042.2 26.032C1042.2 23.782 1043.59 22.702 1045.14 22.702C1046.67 22.702 1048.13 23.782 1048.13 26.032C1048.13 28.282 1046.61 29.38 1045.08 29.38C1043.54 29.38 1042.2 28.282 1042.2 26.032ZM1061.24 21.082H1059.19V26.608C1059.19 28.426 1058.2 29.362 1056.69 29.362C1055.2 29.362 1054.21 28.426 1054.21 26.608V21.082H1052.17V26.914C1052.17 29.686 1053.94 31.144 1056.26 31.144C1057.43 31.144 1058.54 30.658 1059.19 29.812V31H1061.24V21.082ZM1070.99 31H1073.02V25.15C1073.02 22.378 1071.28 20.92 1068.95 20.92C1067.77 20.92 1066.67 21.406 1066 22.216V21.082H1063.95V31H1066V25.456C1066 23.638 1066.99 22.702 1068.5 22.702C1070 22.702 1070.99 23.638 1070.99 25.456V31ZM1075.96 28.246C1075.96 30.262 1077.06 31 1078.83 31H1080.45V29.29H1079.19C1078.32 29.29 1078.03 28.984 1078.03 28.246V22.756H1080.45V21.082H1078.03V18.616H1075.96V21.082H1074.79V22.756H1075.96V28.246ZM1089.74 28.228C1089.63 24.646 1084.03 25.762 1084.03 23.764C1084.03 23.098 1084.61 22.648 1085.7 22.648C1086.82 22.648 1087.49 23.242 1087.56 24.106H1089.61C1089.5 22.126 1088.03 20.92 1085.78 20.92C1083.44 20.92 1081.96 22.198 1081.96 23.782C1081.96 27.418 1087.72 26.302 1087.72 28.246C1087.72 28.93 1087.09 29.434 1085.9 29.434C1084.77 29.434 1083.99 28.768 1083.92 27.958H1081.8C1081.89 29.758 1083.56 31.162 1085.94 31.162C1088.28 31.162 1089.74 29.902 1089.74 28.228ZM1105.07 31H1107.23L1102.75 18.472H1100.37L1095.89 31H1098.03L1098.93 28.444H1104.17L1105.07 31ZM1103.59 26.77H1099.51L1101.56 20.956L1103.59 26.77ZM1116.58 28.228C1116.47 24.646 1110.87 25.762 1110.87 23.764C1110.87 23.098 1111.45 22.648 1112.55 22.648C1113.66 22.648 1114.33 23.242 1114.4 24.106H1116.45C1116.34 22.126 1114.87 20.92 1112.62 20.92C1110.28 20.92 1108.8 22.198 1108.8 23.782C1108.8 27.418 1114.56 26.302 1114.56 28.246C1114.56 28.93 1113.93 29.434 1112.74 29.434C1111.61 29.434 1110.84 28.768 1110.76 27.958H1108.64C1108.73 29.758 1110.4 31.162 1112.78 31.162C1115.12 31.162 1116.58 29.902 1116.58 28.228ZM1126.19 28.228C1126.08 24.646 1120.49 25.762 1120.49 23.764C1120.49 23.098 1121.06 22.648 1122.16 22.648C1123.28 22.648 1123.94 23.242 1124.01 24.106H1126.07C1125.96 22.126 1124.48 20.92 1122.23 20.92C1119.89 20.92 1118.42 22.198 1118.42 23.782C1118.42 27.418 1124.18 26.302 1124.18 28.246C1124.18 28.93 1123.55 29.434 1122.36 29.434C1121.22 29.434 1120.45 28.768 1120.38 27.958H1118.25C1118.34 29.758 1120.02 31.162 1122.39 31.162C1124.73 31.162 1126.19 29.902 1126.19 28.228ZM1128.41 31H1130.46V21.082H1128.41V31ZM1129.45 19.768C1130.17 19.768 1130.75 19.192 1130.75 18.454C1130.75 17.716 1130.17 17.14 1129.45 17.14C1128.72 17.14 1128.14 17.716 1128.14 18.454C1128.14 19.192 1128.72 19.768 1129.45 19.768ZM1140.55 28.228C1140.45 24.646 1134.85 25.762 1134.85 23.764C1134.85 23.098 1135.42 22.648 1136.52 22.648C1137.64 22.648 1138.3 23.242 1138.38 24.106H1140.43C1140.32 22.126 1138.84 20.92 1136.59 20.92C1134.25 20.92 1132.78 22.198 1132.78 23.782C1132.78 27.418 1138.54 26.302 1138.54 28.246C1138.54 28.93 1137.91 29.434 1136.72 29.434C1135.59 29.434 1134.81 28.768 1134.74 27.958H1132.62C1132.71 29.758 1134.38 31.162 1136.76 31.162C1139.1 31.162 1140.55 29.902 1140.55 28.228ZM1143.09 28.246C1143.09 30.262 1144.19 31 1145.96 31H1147.58V29.29H1146.32C1145.45 29.29 1145.16 28.984 1145.16 28.246V22.756H1147.58V21.082H1145.16V18.616H1143.09V21.082H1141.92V22.756H1143.09V28.246ZM1148.78 25.996C1148.78 29.056 1150.85 31.162 1153.43 31.162C1155.08 31.162 1156.27 30.37 1156.9 29.524V31H1158.97V21.082H1156.9V22.522C1156.29 21.712 1155.14 20.92 1153.46 20.92C1150.85 20.92 1148.78 22.936 1148.78 25.996ZM1156.9 26.032C1156.9 28.174 1155.44 29.38 1153.9 29.38C1152.37 29.38 1150.89 28.138 1150.89 25.996C1150.89 23.854 1152.37 22.702 1153.9 22.702C1155.44 22.702 1156.9 23.908 1156.9 26.032ZM1168.71 31H1170.74V25.15C1170.74 22.378 1168.99 20.92 1166.67 20.92C1165.48 20.92 1164.39 21.406 1163.72 22.216V21.082H1161.67V31H1163.72V25.456C1163.72 23.638 1164.71 22.702 1166.22 22.702C1167.72 22.702 1168.71 23.638 1168.71 25.456V31ZM1173.68 28.246C1173.68 30.262 1174.78 31 1176.54 31H1178.16V29.29H1176.9C1176.04 29.29 1175.75 28.984 1175.75 28.246V22.756H1178.16V21.082H1175.75V18.616H1173.68V21.082H1172.51V22.756H1173.68V28.246Z" fill="#212832"/>
<path d="M1225 1H1223V48H1225V1Z" fill="#CF1C54" stroke="#CF1C54" stroke-width="0.936604"/>
<circle cx="958.5" cy="24.5" r="23.5" fill="#E9336C" stroke="#E9336C"/>
<path d="M947.474 24.6055C947.474 28.5767 948.523 31.5739 952.344 31.5739C956.165 31.5739 957.214 28.5767 957.214 24.6055C957.214 20.7093 956.165 17.7121 952.344 17.7121C948.523 17.7121 947.474 20.7093 947.474 24.6055ZM955.116 24.6055C955.116 27.2842 954.835 29.6257 952.344 29.6257C949.853 29.6257 949.572 27.2842 949.572 24.6055C949.572 22.058 949.853 19.6603 952.344 19.6603C954.835 19.6603 955.116 22.058 955.116 24.6055ZM965.993 31.6113H968.091V28.7641H969.833V26.9096H968.091V18.1242H965.506L959.212 27.1531V28.7641H965.993V31.6113ZM961.666 26.9096L966.086 20.2972V26.9096H961.666Z" fill="#212832"/>
<g filter="url(#filter2_d_585_5589)">
<rect x="335.527" y="2" width="267" height="47" fill="white" shape-rendering="crispEdges"/>
<rect x="335.293" y="1.76585" width="267.468" height="47.4683" stroke="black" stroke-opacity="0.2" stroke-width="0.468302" shape-rendering="crispEdges"/>
</g>
<path d="M602.337 2H599.527V48.8302H602.337V2Z" fill="#A9CF54" stroke="#A9CF54" stroke-width="0.936604"/>
<path d="M391.705 31H393.757V25.528H397.897V23.854H393.757V20.164H399.067V18.49H391.705V31ZM400.969 31H403.021V21.082H400.969V31ZM402.013 19.768C402.733 19.768 403.309 19.192 403.309 18.454C403.309 17.716 402.733 17.14 402.013 17.14C401.275 17.14 400.699 17.716 400.699 18.454C400.699 19.192 401.275 19.768 402.013 19.768ZM412.753 31H414.787V25.15C414.787 22.378 413.041 20.92 410.719 20.92C409.531 20.92 408.433 21.406 407.767 22.216V21.082H405.715V31H407.767V25.456C407.767 23.638 408.757 22.702 410.269 22.702C411.763 22.702 412.753 23.638 412.753 25.456V31ZM416.721 25.996C416.721 29.056 418.791 31.162 421.365 31.162C423.021 31.162 424.209 30.37 424.839 29.524V31H426.909V21.082H424.839V22.522C424.227 21.712 423.075 20.92 421.401 20.92C418.791 20.92 416.721 22.936 416.721 25.996ZM424.839 26.032C424.839 28.174 423.381 29.38 421.833 29.38C420.303 29.38 418.827 28.138 418.827 25.996C418.827 23.854 420.303 22.702 421.833 22.702C423.381 22.702 424.839 23.908 424.839 26.032ZM436.642 31H438.676V25.15C438.676 22.378 436.93 20.92 434.608 20.92C433.42 20.92 432.322 21.406 431.656 22.216V21.082H429.604V31H431.656V25.456C431.656 23.638 432.646 22.702 434.158 22.702C435.652 22.702 436.642 23.638 436.642 25.456V31ZM440.609 26.032C440.609 29.146 442.625 31.162 445.469 31.162C447.899 31.162 449.483 29.812 450.041 27.868H447.827C447.449 28.894 446.693 29.434 445.469 29.434C443.813 29.434 442.715 28.21 442.715 26.032C442.715 23.872 443.813 22.648 445.469 22.648C446.693 22.648 447.485 23.26 447.827 24.214H450.041C449.483 22.126 447.899 20.92 445.469 20.92C442.625 20.92 440.609 22.936 440.609 26.032ZM456.262 22.648C457.792 22.648 458.998 23.62 459.034 25.15H453.544C453.76 23.584 454.876 22.648 456.262 22.648ZM460.906 28.048H458.692C458.314 28.822 457.612 29.434 456.352 29.434C454.84 29.434 453.67 28.444 453.526 26.806H461.104C461.158 26.464 461.176 26.14 461.176 25.798C461.176 22.882 459.178 20.92 456.352 20.92C453.418 20.92 451.402 22.918 451.402 26.032C451.402 29.146 453.508 31.162 456.352 31.162C458.782 31.162 460.348 29.776 460.906 28.048ZM467.871 31H469.923V22.432L473.757 31H475.179L478.995 22.432V31H481.047V18.49H478.851L474.477 28.3L470.085 18.49H467.871V31ZM483.061 25.996C483.061 29.056 485.131 31.162 487.705 31.162C489.361 31.162 490.549 30.37 491.179 29.524V31H493.249V21.082H491.179V22.522C490.567 21.712 489.415 20.92 487.741 20.92C485.131 20.92 483.061 22.936 483.061 25.996ZM491.179 26.032C491.179 28.174 489.721 29.38 488.173 29.38C486.643 29.38 485.167 28.138 485.167 25.996C485.167 23.854 486.643 22.702 488.173 22.702C489.721 22.702 491.179 23.908 491.179 26.032ZM502.982 31H505.016V25.15C505.016 22.378 503.27 20.92 500.948 20.92C499.76 20.92 498.662 21.406 497.996 22.216V21.082H495.944V31H497.996V25.456C497.996 23.638 498.986 22.702 500.498 22.702C501.992 22.702 502.982 23.638 502.982 25.456V31ZM506.949 25.996C506.949 29.056 509.019 31.162 511.593 31.162C513.249 31.162 514.437 30.37 515.067 29.524V31H517.137V21.082H515.067V22.522C514.455 21.712 513.303 20.92 511.629 20.92C509.019 20.92 506.949 22.936 506.949 25.996ZM515.067 26.032C515.067 28.174 513.609 29.38 512.061 29.38C510.531 29.38 509.055 28.138 509.055 25.996C509.055 23.854 510.531 22.702 512.061 22.702C513.609 22.702 515.067 23.908 515.067 26.032ZM519.148 25.996C519.148 29.056 521.218 31.162 523.828 31.162C525.448 31.162 526.636 30.352 527.266 29.506V31.162C527.266 33.142 526.078 34.114 524.494 34.114C523.072 34.114 521.974 33.412 521.668 32.386H519.634C519.886 34.582 521.848 35.896 524.494 35.896C527.59 35.896 529.336 33.862 529.336 31.162V21.082H527.266V22.522C526.654 21.676 525.448 20.92 523.828 20.92C521.218 20.92 519.148 22.936 519.148 25.996ZM527.266 26.032C527.266 28.174 525.808 29.38 524.26 29.38C522.73 29.38 521.254 28.138 521.254 25.996C521.254 23.854 522.73 22.702 524.26 22.702C525.808 22.702 527.266 23.908 527.266 26.032ZM536.208 22.648C537.738 22.648 538.944 23.62 538.98 25.15H533.49C533.706 23.584 534.822 22.648 536.208 22.648ZM540.852 28.048H538.638C538.26 28.822 537.558 29.434 536.298 29.434C534.786 29.434 533.616 28.444 533.472 26.806H541.05C541.104 26.464 541.122 26.14 541.122 25.798C541.122 22.882 539.124 20.92 536.298 20.92C533.364 20.92 531.348 22.918 531.348 26.032C531.348 29.146 533.454 31.162 536.298 31.162C538.728 31.162 540.294 29.776 540.852 28.048ZM545.193 25.78C545.193 23.674 546.129 23.044 547.641 23.044H548.163V20.92C546.759 20.92 545.769 21.532 545.193 22.522V21.082H543.141V31H545.193V25.78Z" fill="#212832"/>
<circle cx="335.5" cy="25.5" r="23.5" fill="#A9CF54" stroke="#A9CF54"/>
<path d="M325.132 25.17C325.132 29.1412 326.181 32.1383 330.003 32.1383C333.824 32.1383 334.873 29.1412 334.873 25.17C334.873 21.2737 333.824 18.2766 330.003 18.2766C326.181 18.2766 325.132 21.2737 325.132 25.17ZM332.775 25.17C332.775 27.8487 332.494 30.1902 330.003 30.1902C327.511 30.1902 327.23 27.8487 327.23 25.17C327.23 22.6224 327.511 20.2247 330.003 20.2247C332.494 20.2247 332.775 22.6224 332.775 25.17ZM336.964 31.9885H346.068V30.2089H340.13C342.321 28.2046 345.693 25.6758 345.693 22.3602C345.693 19.9063 344.12 18.2391 341.347 18.2391C338.931 18.2391 337.02 19.6815 336.945 22.6412H339.006C339.062 21.1051 339.867 20.0561 341.366 20.0561C342.958 20.0561 343.576 21.0302 343.576 22.4538C343.576 25.1325 340.186 27.6052 336.964 30.4337V31.9885Z" fill="#212832"/>
<g filter="url(#filter3_d_585_5589)">
<rect x="647.055" y="2" width="267" height="47" fill="white" shape-rendering="crispEdges"/>
<rect x="646.821" y="1.76585" width="267.468" height="47.4683" stroke="black" stroke-opacity="0.2" stroke-width="0.468302" shape-rendering="crispEdges"/>
</g>
<path d="M913.864 2H911.055V48.8302H913.864V2Z" fill="#D96868" stroke="#D96868" stroke-width="0.936604"/>
<path d="M694.366 31H696.418V18.49H694.366V31ZM706.15 31H708.184V25.15C708.184 22.378 706.438 20.92 704.116 20.92C702.928 20.92 701.83 21.406 701.164 22.216V21.082H699.112V31H701.164V25.456C701.164 23.638 702.154 22.702 703.666 22.702C705.16 22.702 706.15 23.638 706.15 25.456V31ZM709.631 21.082L713.393 31H715.841L719.621 21.082H717.443L714.635 29.164L711.827 21.082H709.631ZM725.348 22.648C726.878 22.648 728.084 23.62 728.12 25.15H722.63C722.846 23.584 723.962 22.648 725.348 22.648ZM729.992 28.048H727.778C727.4 28.822 726.698 29.434 725.438 29.434C723.926 29.434 722.756 28.444 722.612 26.806H730.19C730.244 26.464 730.262 26.14 730.262 25.798C730.262 22.882 728.264 20.92 725.438 20.92C722.504 20.92 720.488 22.918 720.488 26.032C720.488 29.146 722.594 31.162 725.438 31.162C727.868 31.162 729.434 29.776 729.992 28.048ZM739.68 28.228C739.572 24.646 733.974 25.762 733.974 23.764C733.974 23.098 734.55 22.648 735.648 22.648C736.764 22.648 737.43 23.242 737.502 24.106H739.554C739.446 22.126 737.97 20.92 735.72 20.92C733.38 20.92 731.904 22.198 731.904 23.782C731.904 27.418 737.664 26.302 737.664 28.246C737.664 28.93 737.034 29.434 735.846 29.434C734.712 29.434 733.938 28.768 733.866 27.958H731.742C731.832 29.758 733.506 31.162 735.882 31.162C738.222 31.162 739.68 29.902 739.68 28.228ZM742.221 28.246C742.221 30.262 743.319 31 745.083 31H746.703V29.29H745.443C744.579 29.29 744.291 28.984 744.291 28.246V22.756H746.703V21.082H744.291V18.616H742.221V21.082H741.051V22.756H742.221V28.246ZM762.652 31H764.686V25.15C764.686 22.378 762.922 20.92 760.6 20.92C759.16 20.92 757.756 21.676 757.144 22.882C756.46 21.586 755.146 20.92 753.58 20.92C752.392 20.92 751.312 21.406 750.646 22.216V21.082H748.594V31H750.646V25.456C750.646 23.638 751.636 22.702 753.148 22.702C754.642 22.702 755.632 23.638 755.632 25.456V31H757.666V25.456C757.666 23.638 758.656 22.702 760.168 22.702C761.662 22.702 762.652 23.638 762.652 25.456V31ZM771.473 22.648C773.003 22.648 774.209 23.62 774.245 25.15H768.755C768.971 23.584 770.087 22.648 771.473 22.648ZM776.117 28.048H773.903C773.525 28.822 772.823 29.434 771.563 29.434C770.051 29.434 768.881 28.444 768.737 26.806H776.315C776.369 26.464 776.387 26.14 776.387 25.798C776.387 22.882 774.389 20.92 771.563 20.92C768.629 20.92 766.613 22.918 766.613 26.032C766.613 29.146 768.719 31.162 771.563 31.162C773.993 31.162 775.559 29.776 776.117 28.048ZM785.445 31H787.479V25.15C787.479 22.378 785.733 20.92 783.411 20.92C782.223 20.92 781.125 21.406 780.459 22.216V21.082H778.407V31H780.459V25.456C780.459 23.638 781.449 22.702 782.961 22.702C784.455 22.702 785.445 23.638 785.445 25.456V31ZM790.42 28.246C790.42 30.262 791.518 31 793.282 31H794.902V29.29H793.642C792.778 29.29 792.49 28.984 792.49 28.246V22.756H794.902V21.082H792.49V18.616H790.42V21.082H789.25V22.756H790.42V28.246ZM809.911 31H812.071L807.589 18.472H805.213L800.731 31H802.873L803.773 28.444H809.011L809.911 31ZM808.435 26.77H804.349L806.401 20.956L808.435 26.77ZM821.058 31H823.092V25.15C823.092 22.378 821.346 20.92 819.024 20.92C817.836 20.92 816.738 21.406 816.072 22.216V21.082H814.02V31H816.072V25.456C816.072 23.638 817.062 22.702 818.574 22.702C820.068 22.702 821.058 23.638 821.058 25.456V31ZM825.025 25.996C825.025 29.056 827.095 31.162 829.669 31.162C831.325 31.162 832.513 30.37 833.143 29.524V31H835.213V21.082H833.143V22.522C832.531 21.712 831.379 20.92 829.705 20.92C827.095 20.92 825.025 22.936 825.025 25.996ZM833.143 26.032C833.143 28.174 831.685 29.38 830.137 29.38C828.607 29.38 827.131 28.138 827.131 25.996C827.131 23.854 828.607 22.702 830.137 22.702C831.685 22.702 833.143 23.908 833.143 26.032ZM837.909 31H839.961V17.68H837.909V31ZM846.561 28.642L843.771 21.082H841.485L845.391 30.838L843.375 35.662H845.499L851.583 21.082H849.459L846.561 28.642ZM860.529 28.228C860.421 24.646 854.823 25.762 854.823 23.764C854.823 23.098 855.399 22.648 856.497 22.648C857.613 22.648 858.279 23.242 858.351 24.106H860.403C860.295 22.126 858.819 20.92 856.569 20.92C854.229 20.92 852.753 22.198 852.753 23.782C852.753 27.418 858.513 26.302 858.513 28.246C858.513 28.93 857.883 29.434 856.695 29.434C855.561 29.434 854.787 28.768 854.715 27.958H852.591C852.681 29.758 854.355 31.162 856.731 31.162C859.071 31.162 860.529 29.902 860.529 28.228ZM863.07 28.246C863.07 30.262 864.168 31 865.932 31H867.552V29.29H866.292C865.428 29.29 865.14 28.984 865.14 28.246V22.756H867.552V21.082H865.14V18.616H863.07V21.082H861.9V22.756H863.07V28.246Z" fill="#212832"/>
<circle cx="647.5" cy="25.5" r="23.5" fill="#D96868" stroke="#D96868"/>
<path d="M636.509 25.17C636.509 29.1412 637.558 32.1383 641.379 32.1383C645.2 32.1383 646.249 29.1412 646.249 25.17C646.249 21.2737 645.2 18.2766 641.379 18.2766C637.558 18.2766 636.509 21.2737 636.509 25.17ZM644.151 25.17C644.151 27.8487 643.87 30.1902 641.379 30.1902C638.888 30.1902 638.607 27.8487 638.607 25.17C638.607 22.6224 638.888 20.2247 641.379 20.2247C643.87 20.2247 644.151 22.6224 644.151 25.17ZM648.471 21.8919H650.551C650.682 20.9365 651.375 20.0374 652.873 20.0374C654.334 20.0374 655.102 20.8241 655.102 22.0043C655.102 23.4654 653.922 24.0273 651.993 24.0461H651.487V25.8069H651.974C654.203 25.8069 655.365 26.425 655.365 28.2233C655.365 29.4971 654.578 30.4712 652.986 30.4712C651.375 30.4712 650.438 29.4971 650.345 28.2233H648.284C648.415 30.902 650.419 32.2507 653.004 32.2507C655.852 32.2507 657.388 30.6023 657.388 28.4294C657.388 26.5374 656.47 25.3573 655.046 24.9265V24.8515C656.114 24.4956 657.144 23.3904 657.144 21.7607C657.144 19.7751 655.664 18.2017 652.948 18.2017C650.457 18.2017 648.621 19.5316 648.471 21.8919Z" fill="#212832"/>
<defs>
<filter id="filter0_d_585_5589" x="23.5312" y="1.53174" width="267.938" height="47.9365" filterUnits="userSpaceOnUse" color-interpolation-filters="sRGB">
<feFlood flood-opacity="0" result="BackgroundImageFix"/>
<feColorMatrix in="SourceAlpha" type="matrix" values="0 0 0 0 0 0 0 0 0 0 0 0 0 0 0 0 0 0 127 0" result="hardAlpha"/>
<feOffset/>
<feComposite in2="hardAlpha" operator="out"/>
<feColorMatrix type="matrix" values="0 0 0 0 0 0 0 0 0 0 0 0 0 0 0 0 0 0 0.1 0"/>
<feBlend mode="normal" in2="BackgroundImageFix" result="effect1_dropShadow_585_5589"/>
<feBlend mode="normal" in="SourceGraphic" in2="effect1_dropShadow_585_5589" result="shape"/>
</filter>
<filter id="filter1_d_585_5589" x="957.531" y="0.531738" width="267.938" height="47.9365" filterUnits="userSpaceOnUse" color-interpolation-filters="sRGB">
<feFlood flood-opacity="0" result="BackgroundImageFix"/>
<feColorMatrix in="SourceAlpha" type="matrix" values="0 0 0 0 0 0 0 0 0 0 0 0 0 0 0 0 0 0 127 0" result="hardAlpha"/>
<feOffset/>
<feComposite in2="hardAlpha" operator="out"/>
<feColorMatrix type="matrix" values="0 0 0 0 0 0 0 0 0 0 0 0 0 0 0 0 0 0 0.1 0"/>
<feBlend mode="normal" in2="BackgroundImageFix" result="effect1_dropShadow_585_5589"/>
<feBlend mode="normal" in="SourceGraphic" in2="effect1_dropShadow_585_5589" result="shape"/>
</filter>
<filter id="filter2_d_585_5589" x="335.059" y="1.53174" width="267.938" height="47.9365" filterUnits="userSpaceOnUse" color-interpolation-filters="sRGB">
<feFlood flood-opacity="0" result="BackgroundImageFix"/>
<feColorMatrix in="SourceAlpha" type="matrix" values="0 0 0 0 0 0 0 0 0 0 0 0 0 0 0 0 0 0 127 0" result="hardAlpha"/>
<feOffset/>
<feComposite in2="hardAlpha" operator="out"/>
<feColorMatrix type="matrix" values="0 0 0 0 0 0 0 0 0 0 0 0 0 0 0 0 0 0 0.1 0"/>
<feBlend mode="normal" in2="BackgroundImageFix" result="effect1_dropShadow_585_5589"/>
<feBlend mode="normal" in="SourceGraphic" in2="effect1_dropShadow_585_5589" result="shape"/>
</filter>
<filter id="filter3_d_585_5589" x="646.586" y="1.53174" width="267.938" height="47.9365" filterUnits="userSpaceOnUse" color-interpolation-filters="sRGB">
<feFlood flood-opacity="0" result="BackgroundImageFix"/>
<feColorMatrix in="SourceAlpha" type="matrix" values="0 0 0 0 0 0 0 0 0 0 0 0 0 0 0 0 0 0 127 0" result="hardAlpha"/>
<feOffset/>
<feComposite in2="hardAlpha" operator="out"/>
<feColorMatrix type="matrix" values="0 0 0 0 0 0 0 0 0 0 0 0 0 0 0 0 0 0 0.1 0"/>
<feBlend mode="normal" in2="BackgroundImageFix" result="effect1_dropShadow_585_5589"/>
<feBlend mode="normal" in="SourceGraphic" in2="effect1_dropShadow_585_5589" result="shape"/>
</filter>
</defs>
</svg>
