<svg width="396" height="344" viewBox="0 0 396 344" fill="none" xmlns="http://www.w3.org/2000/svg">
<path d="M396 0H0V344H396V0Z" fill="#FEAC25"/>
<path opacity="0.17" d="M155.348 323.316L75.7429 272.85C70.1194 269.271 70.9958 260.873 77.2766 258.536L295.206 176.666C297.543 175.79 300.172 176.082 302.29 177.396L386.351 230.637C391.974 234.216 391.098 242.614 384.817 244.952L171.781 325.068C166.303 327.04 160.242 326.456 155.348 323.316Z" fill="black"/>
<path d="M181.934 309.001L102.329 258.536C96.7053 254.957 97.5817 246.558 103.863 244.221L295.208 173.087C297.545 172.211 300.174 172.503 302.292 173.818L386.353 227.059C391.976 230.637 391.1 239.036 384.819 241.373L198.294 310.754C192.889 312.726 186.828 312.142 181.934 309.001Z" fill="#2F3332"/>
<path d="M390.077 220.778L390.004 234.946L375.836 234.362L390.077 220.778Z" fill="#2F3332"/>
<path d="M121.901 253.788L98.6761 252.109L98.457 239.036L121.901 240.497V253.788Z" fill="#2F3332"/>
<path d="M385.037 220.267H361.594V233.558H385.037V220.267Z" fill="#2F3332"/>
<path d="M182.007 295.928L102.109 245.317C96.5589 241.811 97.4353 233.485 103.57 231.221L295.281 159.942C297.618 159.065 300.174 159.357 302.292 160.672L386.572 214.132C392.122 217.637 391.246 225.963 385.111 228.227L198.293 297.681C192.889 299.653 186.827 298.996 182.007 295.928Z" fill="#6D61DF"/>
<path d="M214.433 291.4L113.355 227.351L268.477 170.02L369.481 234.07L214.433 291.4Z" fill="#49447A"/>
<path d="M336.327 199.306L315.951 186.379C315.586 186.16 315.659 185.649 316.024 185.503L318.653 184.554C319.237 184.334 319.822 184.407 320.333 184.7L340.49 197.48C340.855 197.699 340.855 198.357 340.417 198.503L337.715 199.525C337.204 199.598 336.765 199.525 336.327 199.306Z" fill="#49447A"/>
<path d="M157.615 260.8C157.615 263.064 153.672 264.889 148.778 264.889C143.885 264.889 139.941 263.064 139.941 260.8C139.941 258.536 143.885 256.71 148.778 256.71C153.599 256.637 157.615 258.536 157.615 260.8Z" fill="#FF6F8E"/>
<path d="M199.024 244.002C212.819 244.002 224.001 238.64 224.001 232.025C224.001 225.41 212.819 220.047 199.024 220.047C185.23 220.047 174.047 225.41 174.047 232.025C174.047 238.64 185.23 244.002 199.024 244.002Z" fill="#2F3332"/>
<path d="M216.987 31.9153C216.987 31.9153 210.78 53.679 215.454 69.0889C220.201 84.4988 227.431 112.105 230.571 113.493C233.712 114.807 239.481 106.847 237.948 102.173C236.414 97.4986 236.925 93.2627 236.925 93.2627C236.925 93.2627 221.296 63.1002 219.178 59.3025C217.06 55.4318 216.987 31.9153 216.987 31.9153Z" fill="#FF8B40"/>
<path d="M243.571 35.2748L239.189 0H222.537C219.47 13.7301 213.773 43.0893 217.06 55.4318C221.442 71.8641 241.526 104.948 249.706 103.56C257.885 102.1 243.06 66.9709 240.065 56.9655C237.436 48.0555 240.211 39.8028 243.571 35.2748Z" fill="#FAC9AA"/>
<path d="M279.86 117.505C284.853 113.166 281.566 101.208 272.518 90.7958C263.47 80.3837 252.088 75.4603 247.095 79.799C242.102 84.1377 245.389 96.0956 254.437 106.508C263.485 116.92 274.867 121.843 279.86 117.505Z" fill="#FF8B40"/>
<path d="M283.55 114.36L250.785 76.6545L246.375 80.4866L279.14 118.192L283.55 114.36Z" fill="#FFA340"/>
<path d="M283.216 114.583C288.209 110.244 284.922 98.2864 275.874 87.8743C266.826 77.4622 255.444 72.5388 250.451 76.8775C245.458 81.2162 248.745 93.1741 257.793 103.586C266.841 113.998 278.223 118.922 283.216 114.583Z" fill="#FFD840"/>
<path d="M279.864 110.725C283.7 107.391 280.976 97.9758 273.78 89.6949C266.584 81.4139 257.641 77.4031 253.805 80.7365C249.969 84.0699 252.693 93.4852 259.889 101.766C267.085 110.047 276.028 114.058 279.864 110.725Z" fill="#FFE066"/>
<path d="M262.487 92.0212L261.684 88.5886L264.24 89.6111L265.043 93.0436C265.408 94.6503 267.015 96.4761 268.549 97.1334C270.155 97.7177 271.105 96.9143 270.74 95.3076L269.936 91.729L272.492 92.7515L273.296 96.3301C274.026 99.3974 272.127 100.931 269.206 99.7626C266.212 98.5211 263.144 95.0885 262.487 92.0212Z" fill="#FFA340"/>
<path d="M268.622 102.246L265.773 90.0493L268.33 91.0717L271.105 103.268L268.622 102.246Z" fill="#FFA340"/>
<path d="M272.712 103.925L269.863 91.656L272.419 92.6784L275.268 104.875L272.712 103.925Z" fill="#FFA340"/>
<path d="M257.885 94.9425L263.801 91.2178L261.683 88.5886L257.082 91.5099L257.885 94.9425Z" fill="#FFA340"/>
<path d="M282.496 0H239.188L243.569 35.2748C244.008 34.6905 244.446 34.1063 244.957 33.6681C248.828 29.7243 262.412 40.0949 262.704 44.8421C263.069 49.6622 252.114 64.4148 250.8 69.7462C249.412 75.1506 252.406 81.7966 257.665 80.7011C262.923 79.6056 288.046 44.2578 286.513 31.8422C285.636 24.9041 283.883 10.8088 282.496 0Z" fill="#FAC9AA"/>
<path d="M266.795 71.7181C266.795 71.7181 261.391 67.7013 259.2 68.7237C257.009 69.7462 255.84 74.2742 256.863 76.027C257.885 77.7798 260.441 78.8022 260.441 78.8022L266.795 71.7181Z" fill="#FF8B40"/>
<path d="M162.066 185.065L193.69 153.442L211.656 171.481L252.262 130.875" stroke="white" stroke-miterlimit="10"/>
<path d="M162.066 185.065V222.092" stroke="white" stroke-miterlimit="10"/>
<path d="M245.91 130.875H252.264V138.178" stroke="white" stroke-miterlimit="10" stroke-linecap="round" stroke-linejoin="round"/>
<path d="M211.074 205.076V124.448" stroke="white" stroke-miterlimit="10"/>
<path d="M189.234 213.182V158.116" stroke="white" stroke-miterlimit="10"/>
<path d="M150.676 226.839L239.922 195.508" stroke="#2F3332" stroke-miterlimit="10"/>
<path d="M204.501 240.716C218.295 240.716 229.478 235.353 229.478 228.738C229.478 222.123 218.295 216.761 204.501 216.761C190.706 216.761 179.523 222.123 179.523 228.738C179.523 235.353 190.706 240.716 204.501 240.716Z" fill="#FFA340"/>
<path d="M229.478 223.845H179.523V229.688H229.478V223.845Z" fill="#FFA340"/>
<path d="M204.501 236.261C218.295 236.261 229.478 230.898 229.478 224.283C229.478 217.668 218.295 212.306 204.501 212.306C190.706 212.306 179.523 217.668 179.523 224.283C179.523 230.898 190.706 236.261 204.501 236.261Z" fill="#FFD840"/>
<path d="M204.502 233.485C215.473 233.485 224.366 229.366 224.366 224.283C224.366 219.201 215.473 215.081 204.502 215.081C193.531 215.081 184.637 219.201 184.637 224.283C184.637 229.366 193.531 233.485 204.502 233.485Z" fill="#FFE066"/>
<path d="M198.734 225.087L195.594 223.407L198.004 222.165L201.144 223.845C202.605 224.648 205.015 224.648 206.549 223.845C208.082 223.042 208.082 221.8 206.622 220.997L203.335 219.244L205.745 218.003L209.032 219.755C211.807 221.216 211.734 223.626 208.886 225.087C206.11 226.62 201.509 226.62 198.734 225.087Z" fill="#FFA340"/>
<path d="M210.493 227.205L199.465 221.362L201.875 220.12L212.976 225.963L210.493 227.205Z" fill="#FFA340"/>
<path d="M214.434 225.16L203.406 219.317L205.816 218.076L216.844 223.918L214.434 225.16Z" fill="#FFA340"/>
<path d="M198.002 230.491L199.025 223.626L195.665 223.48L194.789 228.884L198.002 230.491Z" fill="#FFA340"/>
<path d="M257.739 225.744C271.533 225.744 282.716 220.382 282.716 213.767C282.716 207.152 271.533 201.789 257.739 201.789C243.944 201.789 232.762 207.152 232.762 213.767C232.762 220.382 243.944 225.744 257.739 225.744Z" fill="#2F3332"/>
<path d="M260.88 222.458C274.674 222.458 285.857 217.095 285.857 210.48C285.857 203.865 274.674 198.503 260.88 198.503C247.085 198.503 235.902 203.865 235.902 210.48C235.902 217.095 247.085 222.458 260.88 222.458Z" fill="#FFA340"/>
<path d="M285.857 205.587H235.902V211.43H285.857V205.587Z" fill="#FFA340"/>
<path d="M260.88 218.002C274.674 218.002 285.857 212.64 285.857 206.025C285.857 199.41 274.674 194.048 260.88 194.048C247.085 194.048 235.902 199.41 235.902 206.025C235.902 212.64 247.085 218.002 260.88 218.002Z" fill="#FFD840"/>
<path d="M260.881 215.227C271.852 215.227 280.745 211.107 280.745 206.025C280.745 200.943 271.852 196.823 260.881 196.823C249.909 196.823 241.016 200.943 241.016 206.025C241.016 211.107 249.909 215.227 260.881 215.227Z" fill="#FFE066"/>
<path d="M255.183 206.829L252.043 205.149L254.453 203.907L257.593 205.587C259.054 206.39 261.464 206.39 262.998 205.587C264.532 204.784 264.532 203.542 263.071 202.739L259.784 200.986L262.195 199.744L265.481 201.497C268.256 202.958 268.183 205.368 265.335 206.829C262.56 208.289 257.959 208.289 255.183 206.829Z" fill="#FFA340"/>
<path d="M266.941 208.946L255.84 203.031L258.323 201.789L269.351 207.705L266.941 208.946Z" fill="#FFA340"/>
<path d="M270.886 206.902L259.785 201.059L262.195 199.744L273.296 205.66L270.886 206.902Z" fill="#FFA340"/>
<path d="M254.379 212.233L255.474 205.295L252.115 205.222L251.238 210.553L254.379 212.233Z" fill="#FFA340"/>
<path d="M260.88 213.986C274.674 213.986 285.857 208.623 285.857 202.008C285.857 195.393 274.674 190.031 260.88 190.031C247.085 190.031 235.902 195.393 235.902 202.008C235.902 208.623 247.085 213.986 260.88 213.986Z" fill="#FFA340"/>
<path d="M285.857 197.115H235.902V202.958H285.857V197.115Z" fill="#FFA340"/>
<path d="M260.88 209.531C274.674 209.531 285.857 204.168 285.857 197.553C285.857 190.938 274.674 185.576 260.88 185.576C247.085 185.576 235.902 190.938 235.902 197.553C235.902 204.168 247.085 209.531 260.88 209.531Z" fill="#FFD840"/>
<path d="M260.881 206.755C271.852 206.755 280.745 202.636 280.745 197.553C280.745 192.471 271.852 188.351 260.881 188.351C249.909 188.351 241.016 192.471 241.016 197.553C241.016 202.636 249.909 206.755 260.881 206.755Z" fill="#FFE066"/>
<path d="M255.183 198.357L252.043 196.677L254.453 195.435L257.593 197.115C259.054 197.918 261.464 197.918 262.998 197.115C264.532 196.312 264.532 195.07 263.071 194.267L259.784 192.514L262.195 191.273L265.481 193.025C268.256 194.486 268.183 196.896 265.335 198.357C262.56 199.817 257.959 199.817 255.183 198.357Z" fill="#FFA340"/>
<path d="M266.941 200.475L255.84 194.632L258.323 193.317L269.351 199.233L266.941 200.475Z" fill="#FFA340"/>
<path d="M270.886 198.43L259.785 192.587L262.195 191.273L273.296 197.188L270.886 198.43Z" fill="#FFA340"/>
<path d="M254.379 203.761L255.474 196.823L252.115 196.75L251.238 202.081L254.379 203.761Z" fill="#FFA340"/>
<path d="M260.88 205.514C274.674 205.514 285.857 200.151 285.857 193.537C285.857 186.922 274.674 181.559 260.88 181.559C247.085 181.559 235.902 186.922 235.902 193.537C235.902 200.151 247.085 205.514 260.88 205.514Z" fill="#FFA340"/>
<path d="M285.857 188.643H235.902V194.486H285.857V188.643Z" fill="#FFA340"/>
<path d="M260.88 201.059C274.674 201.059 285.857 195.696 285.857 189.082C285.857 182.467 274.674 177.104 260.88 177.104C247.085 177.104 235.902 182.467 235.902 189.082C235.902 195.696 247.085 201.059 260.88 201.059Z" fill="#FFD840"/>
<path d="M260.881 198.284C271.852 198.284 280.745 194.164 280.745 189.082C280.745 183.999 271.852 179.879 260.881 179.879C249.909 179.879 241.016 183.999 241.016 189.082C241.016 194.164 249.909 198.284 260.881 198.284Z" fill="#FFE066"/>
<path d="M255.183 189.885L252.043 188.205L254.453 186.964L257.593 188.643C259.054 189.447 261.464 189.447 262.998 188.643C264.532 187.84 264.532 186.598 263.071 185.795L259.784 184.042L262.195 182.801L265.481 184.553C268.256 186.014 268.183 188.424 265.335 189.885C262.56 191.346 257.959 191.346 255.183 189.885Z" fill="#FFA340"/>
<path d="M266.941 192.003L255.84 186.16L258.323 184.846L269.351 190.761L266.941 192.003Z" fill="#FFA340"/>
<path d="M270.886 189.958L259.785 184.115L262.195 182.801L273.296 188.716L270.886 189.958Z" fill="#FFA340"/>
<path d="M254.379 195.289L255.474 188.424L252.115 188.278L251.238 193.61L254.379 195.289Z" fill="#FFA340"/>
<path d="M260.88 197.042C274.674 197.042 285.857 191.68 285.857 185.065C285.857 178.45 274.674 173.087 260.88 173.087C247.085 173.087 235.902 178.45 235.902 185.065C235.902 191.68 247.085 197.042 260.88 197.042Z" fill="#FFA340"/>
<path d="M285.857 180.172H235.902V186.014H285.857V180.172Z" fill="#FFA340"/>
<path d="M260.88 192.587C274.674 192.587 285.857 187.225 285.857 180.61C285.857 173.995 274.674 168.632 260.88 168.632C247.085 168.632 235.902 173.995 235.902 180.61C235.902 187.225 247.085 192.587 260.88 192.587Z" fill="#FFD840"/>
<path d="M260.881 189.812C271.852 189.812 280.745 185.692 280.745 180.61C280.745 175.528 271.852 171.408 260.881 171.408C249.909 171.408 241.016 175.528 241.016 180.61C241.016 185.692 249.909 189.812 260.881 189.812Z" fill="#FFE066"/>
<path d="M255.183 181.413L252.043 179.733L254.453 178.492L257.593 180.172C259.054 180.975 261.464 180.975 262.998 180.172C264.532 179.368 264.532 178.127 263.071 177.323L259.784 175.571L262.195 174.329L265.481 176.082C268.256 177.542 268.183 179.952 265.335 181.413C262.56 182.874 257.959 182.874 255.183 181.413Z" fill="#FFA340"/>
<path d="M266.941 183.531L255.84 177.688L258.323 176.374L269.351 182.29L266.941 183.531Z" fill="#FFA340"/>
<path d="M270.886 181.486L259.785 175.644L262.195 174.329L273.296 180.245L270.886 181.486Z" fill="#FFA340"/>
<path d="M254.379 186.818L255.474 179.952L252.115 179.806L251.238 185.211L254.379 186.818Z" fill="#FFA340"/>
<path d="M260.88 188.57C274.674 188.57 285.857 183.208 285.857 176.593C285.857 169.978 274.674 164.616 260.88 164.616C247.085 164.616 235.902 169.978 235.902 176.593C235.902 183.208 247.085 188.57 260.88 188.57Z" fill="#FFA340"/>
<path d="M285.857 171.7H235.902V177.542H285.857V171.7Z" fill="#FFA340"/>
<path d="M260.88 184.115C274.674 184.115 285.857 178.753 285.857 172.138C285.857 165.523 274.674 160.161 260.88 160.161C247.085 160.161 235.902 165.523 235.902 172.138C235.902 178.753 247.085 184.115 260.88 184.115Z" fill="#FFD840"/>
<path d="M260.881 181.34C271.852 181.34 280.745 177.22 280.745 172.138C280.745 167.056 271.852 162.936 260.881 162.936C249.909 162.936 241.016 167.056 241.016 172.138C241.016 177.22 249.909 181.34 260.881 181.34Z" fill="#FFE066"/>
<path d="M255.183 172.941L252.043 171.262L254.453 170.02L257.593 171.7C259.054 172.503 261.464 172.503 262.998 171.7C264.532 170.896 264.532 169.655 263.071 168.852L259.784 167.099L262.195 165.857L265.481 167.61C268.256 169.071 268.183 171.481 265.335 172.941C262.56 174.475 257.959 174.475 255.183 172.941Z" fill="#FFA340"/>
<path d="M266.941 175.059L255.84 169.217L258.323 167.902L269.351 173.818L266.941 175.059Z" fill="#FFA340"/>
<path d="M270.886 173.014L259.785 167.172L262.195 165.857L273.296 171.773L270.886 173.014Z" fill="#FFA340"/>
<path d="M254.379 178.346L255.474 171.481L252.115 171.335L251.238 176.739L254.379 178.346Z" fill="#FFA340"/>
<path d="M260.88 180.099C274.674 180.099 285.857 174.736 285.857 168.121C285.857 161.506 274.674 156.144 260.88 156.144C247.085 156.144 235.902 161.506 235.902 168.121C235.902 174.736 247.085 180.099 260.88 180.099Z" fill="#FFA340"/>
<path d="M285.857 163.228H235.902V169.071H285.857V163.228Z" fill="#FFA340"/>
<path d="M260.88 175.644C274.674 175.644 285.857 170.281 285.857 163.666C285.857 157.051 274.674 151.689 260.88 151.689C247.085 151.689 235.902 157.051 235.902 163.666C235.902 170.281 247.085 175.644 260.88 175.644Z" fill="#FFD840"/>
<path d="M260.881 172.868C271.852 172.868 280.745 168.748 280.745 163.666C280.745 158.584 271.852 154.464 260.881 154.464C249.909 154.464 241.016 158.584 241.016 163.666C241.016 168.748 249.909 172.868 260.881 172.868Z" fill="#FFE066"/>
<path d="M255.183 164.47L252.043 162.79L254.453 161.548L257.593 163.228C259.054 164.031 261.464 164.031 262.998 163.228C264.532 162.425 264.532 161.183 263.071 160.38L259.784 158.627L262.195 157.385L265.481 159.138C268.256 160.599 268.183 163.009 265.335 164.47C262.56 166.003 257.959 166.003 255.183 164.47Z" fill="#FFA340"/>
<path d="M266.941 166.587L255.84 160.745L258.323 159.503L269.351 165.346L266.941 166.587Z" fill="#FFA340"/>
<path d="M270.886 164.543L259.785 158.7L262.195 157.458L273.296 163.301L270.886 164.543Z" fill="#FFA340"/>
<path d="M254.379 169.947L255.474 163.009L252.115 162.863L251.238 168.267L254.379 169.947Z" fill="#FFA340"/>
<path d="M260.88 171.627C274.674 171.627 285.857 166.264 285.857 159.649C285.857 153.034 274.674 147.672 260.88 147.672C247.085 147.672 235.902 153.034 235.902 159.649C235.902 166.264 247.085 171.627 260.88 171.627Z" fill="#FFA340"/>
<path d="M285.857 154.756H235.902V160.599H285.857V154.756Z" fill="#FFA340"/>
<path d="M260.88 167.172C274.674 167.172 285.857 161.809 285.857 155.194C285.857 148.579 274.674 143.217 260.88 143.217C247.085 143.217 235.902 148.579 235.902 155.194C235.902 161.809 247.085 167.172 260.88 167.172Z" fill="#FFD840"/>
<path d="M260.881 164.397C271.852 164.397 280.745 160.277 280.745 155.194C280.745 150.112 271.852 145.992 260.881 145.992C249.909 145.992 241.016 150.112 241.016 155.194C241.016 160.277 249.909 164.397 260.881 164.397Z" fill="#FFE066"/>
<path d="M255.183 155.998L252.043 154.318L254.453 153.076L257.593 154.756C259.054 155.56 261.464 155.56 262.998 154.756C264.532 153.953 264.532 152.711 263.071 151.908L259.784 150.155L262.195 148.914L265.481 150.666C268.256 152.127 268.183 154.537 265.335 155.998C262.56 157.531 257.959 157.531 255.183 155.998Z" fill="#FFA340"/>
<path d="M266.941 158.116L255.84 152.273L258.323 151.032L269.351 156.874L266.941 158.116Z" fill="#FFA340"/>
<path d="M270.886 156.071L259.785 150.228L262.195 148.987L273.296 154.829L270.886 156.071Z" fill="#FFA340"/>
<path d="M254.379 161.475L255.474 154.537L252.115 154.391L251.238 159.795L254.379 161.475Z" fill="#FFA340"/>
<path d="M253.067 265.474C266.862 265.474 278.044 260.111 278.044 253.496C278.044 246.881 266.862 241.519 253.067 241.519C239.273 241.519 228.09 246.881 228.09 253.496C228.09 260.111 239.273 265.474 253.067 265.474Z" fill="#2F3332"/>
<path d="M256.208 262.187C270.002 262.187 281.185 256.825 281.185 250.21C281.185 243.595 270.002 238.233 256.208 238.233C242.413 238.233 231.23 243.595 231.23 250.21C231.23 256.825 242.413 262.187 256.208 262.187Z" fill="#FFA340"/>
<path d="M281.185 245.317H231.23V251.159H281.185V245.317Z" fill="#FFA340"/>
<path d="M256.208 257.732C270.002 257.732 281.185 252.37 281.185 245.755C281.185 239.14 270.002 233.778 256.208 233.778C242.413 233.778 231.23 239.14 231.23 245.755C231.23 252.37 242.413 257.732 256.208 257.732Z" fill="#FFD840"/>
<path d="M256.209 254.957C267.18 254.957 276.074 250.837 276.074 245.755C276.074 240.673 267.18 236.553 256.209 236.553C245.238 236.553 236.344 240.673 236.344 245.755C236.344 250.837 245.238 254.957 256.209 254.957Z" fill="#FFE066"/>
<path d="M250.511 246.631L247.371 244.952L249.781 243.71L252.922 245.39C254.382 246.193 256.792 246.193 258.326 245.39C259.86 244.586 259.86 243.345 258.399 242.541L255.113 240.789L257.523 239.547L260.809 241.3C263.584 242.761 263.511 245.171 260.663 246.631C257.815 248.092 253.287 248.092 250.511 246.631Z" fill="#FFA340"/>
<path d="M262.269 248.676L251.168 242.834L253.578 241.592L264.679 247.435L262.269 248.676Z" fill="#FFA340"/>
<path d="M266.21 246.631L255.109 240.789L257.519 239.547L268.62 245.39L266.21 246.631Z" fill="#FFA340"/>
<path d="M249.707 252.036L250.802 245.098L247.37 244.952L246.566 250.356L249.707 252.036Z" fill="#FFA340"/>
<path d="M256.208 252.474C270.002 252.474 281.185 247.111 281.185 240.497C281.185 233.882 270.002 228.519 256.208 228.519C242.413 228.519 231.23 233.882 231.23 240.497C231.23 247.111 242.413 252.474 256.208 252.474Z" fill="#FFA340"/>
<path d="M281.185 235.603H231.23V241.446H281.185V235.603Z" fill="#FFA340"/>
<path d="M256.208 248.019C270.002 248.019 281.185 242.656 281.185 236.042C281.185 229.427 270.002 224.064 256.208 224.064C242.413 224.064 231.23 229.427 231.23 236.042C231.23 242.656 242.413 248.019 256.208 248.019Z" fill="#FFD840"/>
<path d="M256.209 245.244C267.18 245.244 276.074 241.124 276.074 236.042C276.074 230.959 267.18 226.839 256.209 226.839C245.238 226.839 236.344 230.959 236.344 236.042C236.344 241.124 245.238 245.244 256.209 245.244Z" fill="#FFE066"/>
<path d="M250.511 236.845L247.371 235.165L249.781 233.924L252.922 235.603C254.382 236.407 256.792 236.407 258.326 235.603C259.86 234.8 259.86 233.558 258.399 232.755L255.113 231.002L257.523 229.761L260.809 231.514C263.584 232.974 263.511 235.384 260.663 236.845C257.815 238.306 253.287 238.379 250.511 236.845Z" fill="#FFA340"/>
<path d="M262.269 238.963L251.168 233.12L253.578 231.806L264.679 237.721L262.269 238.963Z" fill="#FFA340"/>
<path d="M266.21 236.918L255.109 231.075L257.519 229.761L268.62 235.676L266.21 236.918Z" fill="#FFA340"/>
<path d="M249.707 242.249L250.802 235.384L247.37 235.238L246.566 240.643L249.707 242.249Z" fill="#FFA340"/>
<path d="M256.208 242.761C270.002 242.761 281.185 237.398 281.185 230.783C281.185 224.168 270.002 218.806 256.208 218.806C242.413 218.806 231.23 224.168 231.23 230.783C231.23 237.398 242.413 242.761 256.208 242.761Z" fill="#FFA340"/>
<path d="M281.185 225.89H231.23V231.733H281.185V225.89Z" fill="#FFA340"/>
<path d="M256.208 238.306C270.002 238.306 281.185 232.943 281.185 226.328C281.185 219.713 270.002 214.351 256.208 214.351C242.413 214.351 231.23 219.713 231.23 226.328C231.23 232.943 242.413 238.306 256.208 238.306Z" fill="#FFD840"/>
<path d="M256.209 235.53C267.18 235.53 276.074 231.41 276.074 226.328C276.074 221.246 267.18 217.126 256.209 217.126C245.238 217.126 236.344 221.246 236.344 226.328C236.344 231.41 245.238 235.53 256.209 235.53Z" fill="#FFE066"/>
<path d="M250.511 227.132L247.371 225.452L249.781 224.21L252.922 225.89C254.382 226.693 256.792 226.693 258.326 225.89C259.86 225.087 259.86 223.845 258.399 223.042L255.113 221.289L257.523 220.047L260.809 221.8C263.584 223.261 263.511 225.671 260.663 227.132C257.815 228.592 253.287 228.592 250.511 227.132Z" fill="#FFA340"/>
<path d="M262.269 229.25L251.168 223.407L253.578 222.092L264.679 228.008L262.269 229.25Z" fill="#FFA340"/>
<path d="M266.21 227.205L255.109 221.362L257.519 220.047L268.62 225.963L266.21 227.205Z" fill="#FFA340"/>
<path d="M249.707 232.536L250.802 225.598L247.37 225.525L246.566 230.856L249.707 232.536Z" fill="#FFA340"/>
<path d="M33.4988 65.8281C33.4988 67.3093 32.4945 68.1379 30.7873 68.1379H27.2473V63.4178H30.712C32.4192 63.4178 33.4988 64.3217 33.4988 65.8281ZM33.072 58.5221C33.072 59.9531 32.1179 60.7063 30.4609 60.7063H27.2473V56.3127H30.4609C32.1179 56.3127 33.072 57.1161 33.072 58.5221ZM37.0639 66.2549C37.0639 64.1961 35.658 62.3634 33.6745 62.0119C35.3818 61.4595 36.6622 60.1289 36.6622 57.9948C36.6622 55.3837 34.6286 53.4756 30.963 53.4756H23.7324V71H31.2894C34.9299 71 37.0639 69.0417 37.0639 66.2549ZM43.5559 69.117C43.5559 67.9621 42.6521 67.0583 41.4219 67.0583C40.1414 67.0583 39.2376 67.9621 39.2376 69.117C39.2376 70.2719 40.1414 71.1757 41.4219 71.1757C42.6521 71.1757 43.5559 70.2719 43.5559 69.117ZM45.5335 62.2127C45.5335 67.46 49.3748 71.1506 54.4212 71.1506C58.3127 71.1506 61.4761 69.0919 62.6561 65.4766H58.614C57.7854 67.1838 56.279 68.0123 54.3961 68.0123C51.3331 68.0123 49.1488 65.7527 49.1488 62.2127C49.1488 58.6476 51.3331 56.4131 54.3961 56.4131C56.279 56.4131 57.7854 57.2416 58.614 58.9238H62.6561C61.4761 55.3335 58.3127 53.2497 54.4212 53.2497C49.3748 53.2497 45.5335 56.9654 45.5335 62.2127ZM82.7559 62.1876C82.7559 56.9403 78.789 53.2246 73.7928 53.2246C68.8468 53.2246 64.8047 56.9403 64.8047 62.1876C64.8047 67.46 68.8468 71.1757 73.7928 71.1757C78.7639 71.1757 82.7559 67.46 82.7559 62.1876ZM68.42 62.1876C68.42 58.6225 70.6043 56.388 73.7928 56.388C76.9562 56.388 79.1405 58.6225 79.1405 62.1876C79.1405 65.7527 76.9562 68.0374 73.7928 68.0374C70.6043 68.0374 68.42 65.7527 68.42 62.1876ZM85.3709 71H88.8858V59.6016L93.6058 71H96.2671L100.962 59.6016V71H104.477V53.4756H100.51L94.9364 66.5059L89.3628 53.4756H85.3709V71Z" fill="black"/>
<path d="M24.1183 114H30.4452V100.668H40.5231V95.6519H30.4452V87.5625H43.5962V82.4558H24.1183V114ZM48.0825 114H54.4095V82.4558H48.0825V114ZM81.3134 82.4106V104.103L66.9874 82.4106H60.6605V114H66.9874V92.3529L81.3134 114H87.6403V82.4106H81.3134ZM92.2206 87.5625H100.626V114H106.953V87.5625H115.359V82.4558H92.2206V87.5625ZM138.278 82.4106H119.975V114H138.278V108.848H126.302V100.487H136.923V95.4712H126.302V87.5625H138.278V82.4106ZM142.491 98.1827C142.491 107.628 149.406 114.271 158.489 114.271C165.494 114.271 171.189 110.565 173.313 104.058H166.037C164.545 107.131 161.834 108.622 158.444 108.622C152.931 108.622 148.999 104.555 148.999 98.1827C148.999 91.7654 152.931 87.7433 158.444 87.7433C161.834 87.7433 164.545 89.2346 166.037 92.2625H173.313C171.189 85.8 165.494 82.049 158.489 82.049C149.406 82.049 142.491 88.7375 142.491 98.1827ZM198.556 114H204.883V82.4558H198.556V95.426H185.043V82.4558H178.717V114H185.043V100.578H198.556V114Z" fill="black"/>
<line x1="26" y1="124.8" x2="86.9591" y2="124.8" stroke="black" stroke-width="0.39927"/>
</svg>
