<svg width="1226" height="112" viewBox="0 0 1226 112" fill="none" xmlns="http://www.w3.org/2000/svg">
<g filter="url(#filter0_d_585_8346)">
<rect x="24" y="2" width="267" height="47" fill="white" shape-rendering="crispEdges"/>
<rect x="23.7658" y="1.76585" width="267.468" height="47.4683" stroke="black" stroke-opacity="0.2" stroke-width="0.468302" shape-rendering="crispEdges"/>
</g>
<path d="M74.9519 27.418C74.9519 28.624 74.1059 29.326 72.7199 29.326H69.9479V25.42H72.6479C74.0159 25.42 74.9519 26.176 74.9519 27.418ZM74.6279 21.964C74.6279 23.116 73.8179 23.746 72.4859 23.746H69.9479V20.164H72.4859C73.8179 20.164 74.6279 20.83 74.6279 21.964ZM77.0039 27.634C77.0039 26.14 75.9239 24.808 74.5919 24.574C75.7979 24.142 76.7159 23.224 76.7159 21.712C76.7159 19.948 75.3119 18.49 72.6659 18.49H67.8959V31H72.8999C75.4559 31 77.0039 29.542 77.0039 27.634ZM79.2338 31H81.2858V17.68H79.2338V31ZM93.4299 26.032C93.4299 22.918 91.1979 20.92 88.3719 20.92C85.5459 20.92 83.3139 22.918 83.3139 26.032C83.3139 29.146 85.4559 31.162 88.2819 31.162C91.1259 31.162 93.4299 29.146 93.4299 26.032ZM85.4019 26.032C85.4019 23.782 86.7879 22.702 88.3359 22.702C89.8659 22.702 91.3239 23.782 91.3239 26.032C91.3239 28.282 89.8119 29.38 88.2819 29.38C86.7339 29.38 85.4019 28.282 85.4019 26.032ZM94.7744 26.032C94.7744 29.146 96.7904 31.162 99.6344 31.162C102.064 31.162 103.648 29.812 104.206 27.868H101.992C101.614 28.894 100.858 29.434 99.6344 29.434C97.9784 29.434 96.8804 28.21 96.8804 26.032C96.8804 23.872 97.9784 22.648 99.6344 22.648C100.858 22.648 101.65 23.26 101.992 24.214H104.206C103.648 22.126 102.064 20.92 99.6344 20.92C96.7904 20.92 94.7744 22.936 94.7744 26.032ZM106.251 31H108.303V26.734L111.975 31H114.747L110.175 26.05L114.747 21.082H111.903L108.303 25.42V17.68H106.251V31ZM115.534 26.032C115.534 29.146 117.55 31.162 120.394 31.162C122.824 31.162 124.408 29.812 124.966 27.868H122.752C122.374 28.894 121.618 29.434 120.394 29.434C118.738 29.434 117.64 28.21 117.64 26.032C117.64 23.872 118.738 22.648 120.394 22.648C121.618 22.648 122.41 23.26 122.752 24.214H124.966C124.408 22.126 122.824 20.92 120.394 20.92C117.55 20.92 115.534 22.936 115.534 26.032ZM127.011 31H129.063V25.456C129.063 23.638 130.053 22.702 131.565 22.702C133.059 22.702 134.049 23.638 134.049 25.456V31H136.083V25.15C136.083 22.378 134.355 20.92 132.141 20.92C130.863 20.92 129.747 21.406 129.063 22.234V17.68H127.011V31ZM138.017 25.996C138.017 29.056 140.087 31.162 142.661 31.162C144.317 31.162 145.505 30.37 146.135 29.524V31H148.205V21.082H146.135V22.522C145.523 21.712 144.371 20.92 142.697 20.92C140.087 20.92 138.017 22.936 138.017 25.996ZM146.135 26.032C146.135 28.174 144.677 29.38 143.129 29.38C141.599 29.38 140.123 28.138 140.123 25.996C140.123 23.854 141.599 22.702 143.129 22.702C144.677 22.702 146.135 23.908 146.135 26.032ZM150.9 31H152.952V21.082H150.9V31ZM151.944 19.768C152.664 19.768 153.24 19.192 153.24 18.454C153.24 17.716 152.664 17.14 151.944 17.14C151.206 17.14 150.63 17.716 150.63 18.454C150.63 19.192 151.206 19.768 151.944 19.768ZM162.684 31H164.718V25.15C164.718 22.378 162.972 20.92 160.65 20.92C159.462 20.92 158.364 21.406 157.698 22.216V21.082H155.646V31H157.698V25.456C157.698 23.638 158.688 22.702 160.2 22.702C161.694 22.702 162.684 23.638 162.684 25.456V31ZM176.097 18.49H172.011V31H176.097C180.111 31 182.739 28.642 182.739 24.79C182.739 20.92 180.111 18.49 176.097 18.49ZM174.063 29.326V20.164H176.097C179.049 20.164 180.633 21.928 180.633 24.79C180.633 27.634 179.049 29.326 176.097 29.326H174.063ZM188.949 22.648C190.479 22.648 191.685 23.62 191.721 25.15H186.231C186.447 23.584 187.563 22.648 188.949 22.648ZM193.593 28.048H191.379C191.001 28.822 190.299 29.434 189.039 29.434C187.527 29.434 186.357 28.444 186.213 26.806H193.791C193.845 26.464 193.863 26.14 193.863 25.798C193.863 22.882 191.865 20.92 189.039 20.92C186.105 20.92 184.089 22.918 184.089 26.032C184.089 29.146 186.195 31.162 189.039 31.162C191.469 31.162 193.035 29.776 193.593 28.048ZM194.712 21.082L198.474 31H200.922L204.702 21.082H202.524L199.716 29.164L196.908 21.082H194.712ZM210.429 22.648C211.959 22.648 213.165 23.62 213.201 25.15H207.711C207.927 23.584 209.043 22.648 210.429 22.648ZM215.073 28.048H212.859C212.481 28.822 211.779 29.434 210.519 29.434C209.007 29.434 207.837 28.444 207.693 26.806H215.271C215.325 26.464 215.343 26.14 215.343 25.798C215.343 22.882 213.345 20.92 210.519 20.92C207.585 20.92 205.569 22.918 205.569 26.032C205.569 29.146 207.675 31.162 210.519 31.162C212.949 31.162 214.515 29.776 215.073 28.048ZM217.363 31H219.415V17.68H217.363V31ZM231.559 26.032C231.559 22.918 229.327 20.92 226.501 20.92C223.675 20.92 221.443 22.918 221.443 26.032C221.443 29.146 223.585 31.162 226.411 31.162C229.255 31.162 231.559 29.146 231.559 26.032ZM223.531 26.032C223.531 23.782 224.917 22.702 226.465 22.702C227.995 22.702 229.453 23.782 229.453 26.032C229.453 28.282 227.941 29.38 226.411 29.38C224.863 29.38 223.531 28.282 223.531 26.032ZM235.639 22.54V21.082H233.587V35.716H235.639V29.56C236.287 30.334 237.457 31.162 239.095 31.162C241.705 31.162 243.757 29.056 243.757 25.996C243.757 22.936 241.705 20.92 239.095 20.92C237.475 20.92 236.269 21.712 235.639 22.54ZM241.669 25.996C241.669 28.138 240.193 29.38 238.645 29.38C237.115 29.38 235.639 28.174 235.639 26.032C235.639 23.908 237.115 22.702 238.645 22.702C240.193 22.702 241.669 23.854 241.669 25.996ZM249.963 22.648C251.493 22.648 252.699 23.62 252.735 25.15H247.245C247.461 23.584 248.577 22.648 249.963 22.648ZM254.607 28.048H252.393C252.015 28.822 251.313 29.434 250.053 29.434C248.541 29.434 247.371 28.444 247.227 26.806H254.805C254.859 26.464 254.877 26.14 254.877 25.798C254.877 22.882 252.879 20.92 250.053 20.92C247.119 20.92 245.103 22.918 245.103 26.032C245.103 29.146 247.209 31.162 250.053 31.162C252.483 31.162 254.049 29.776 254.607 28.048ZM258.948 25.78C258.948 23.674 259.884 23.044 261.396 23.044H261.918V20.92C260.514 20.92 259.524 21.532 258.948 22.522V21.082H256.896V31H258.948V25.78Z" fill="#212832"/>
<path d="M291 2H289V49H291V2Z" fill="#946FB0" stroke="#946FB0" stroke-width="0.936604"/>
<circle cx="24.5" cy="25.5" r="23.5" fill="#946FB0" stroke="#946FB0"/>
<path d="M16.2623 25.17C16.2623 29.1412 17.3113 32.1383 21.1326 32.1383C24.9539 32.1383 26.0029 29.1412 26.0029 25.17C26.0029 21.2737 24.9539 18.2766 21.1326 18.2766C17.3113 18.2766 16.2623 21.2737 16.2623 25.17ZM23.905 25.17C23.905 27.8487 23.624 30.1902 21.1326 30.1902C18.6412 30.1902 18.3603 27.8487 18.3603 25.17C18.3603 22.6224 18.6412 20.2247 21.1326 20.2247C23.624 20.2247 23.905 22.6224 23.905 25.17ZM29.7236 32.1758H31.8778V18.5201H27.9815V20.4682H29.7236V32.1758Z" fill="#212832"/>
<g filter="url(#filter1_d_585_8346)">
<rect x="24" y="64" width="267" height="47" fill="white" shape-rendering="crispEdges"/>
<rect x="23.7658" y="63.7658" width="267.468" height="47.4683" stroke="black" stroke-opacity="0.2" stroke-width="0.468302" shape-rendering="crispEdges"/>
</g>
<path d="M96.2754 93H98.4354L93.9534 80.472H91.5774L87.0954 93H89.2374L90.1374 90.444H95.3754L96.2754 93ZM94.7994 88.77H90.7134L92.7654 82.956L94.7994 88.77ZM102.436 84.54V83.082H100.384V97.716H102.436V91.56C103.084 92.334 104.254 93.162 105.892 93.162C108.502 93.162 110.554 91.056 110.554 87.996C110.554 84.936 108.502 82.92 105.892 82.92C104.272 82.92 103.066 83.712 102.436 84.54ZM108.466 87.996C108.466 90.138 106.99 91.38 105.442 91.38C103.912 91.38 102.436 90.174 102.436 88.032C102.436 85.908 103.912 84.702 105.442 84.702C106.99 84.702 108.466 85.854 108.466 87.996ZM114.635 84.54V83.082H112.583V97.716H114.635V91.56C115.283 92.334 116.453 93.162 118.091 93.162C120.701 93.162 122.753 91.056 122.753 87.996C122.753 84.936 120.701 82.92 118.091 82.92C116.471 82.92 115.265 83.712 114.635 84.54ZM120.665 87.996C120.665 90.138 119.189 91.38 117.641 91.38C116.111 91.38 114.635 90.174 114.635 88.032C114.635 85.908 116.111 84.702 117.641 84.702C119.189 84.702 120.665 85.854 120.665 87.996ZM132.181 90.228C132.073 86.646 126.475 87.762 126.475 85.764C126.475 85.098 127.051 84.648 128.149 84.648C129.265 84.648 129.931 85.242 130.003 86.106H132.055C131.947 84.126 130.471 82.92 128.221 82.92C125.881 82.92 124.405 84.198 124.405 85.782C124.405 89.418 130.165 88.302 130.165 90.246C130.165 90.93 129.535 91.434 128.347 91.434C127.213 91.434 126.439 90.768 126.367 89.958H124.243C124.333 91.758 126.007 93.162 128.383 93.162C130.723 93.162 132.181 91.902 132.181 90.228ZM143.16 80.49H139.074V93H143.16C147.174 93 149.802 90.642 149.802 86.79C149.802 82.92 147.174 80.49 143.16 80.49ZM141.126 91.326V82.164H143.16C146.112 82.164 147.696 83.928 147.696 86.79C147.696 89.634 146.112 91.326 143.16 91.326H141.126ZM156.011 84.648C157.541 84.648 158.747 85.62 158.783 87.15H153.293C153.509 85.584 154.625 84.648 156.011 84.648ZM160.655 90.048H158.441C158.063 90.822 157.361 91.434 156.101 91.434C154.589 91.434 153.419 90.444 153.275 88.806H160.853C160.907 88.464 160.925 88.14 160.925 87.798C160.925 84.882 158.927 82.92 156.101 82.92C153.167 82.92 151.151 84.918 151.151 88.032C151.151 91.146 153.257 93.162 156.101 93.162C158.531 93.162 160.097 91.776 160.655 90.048ZM161.775 83.082L165.537 93H167.985L171.765 83.082H169.587L166.779 91.164L163.971 83.082H161.775ZM177.492 84.648C179.022 84.648 180.228 85.62 180.264 87.15H174.774C174.99 85.584 176.106 84.648 177.492 84.648ZM182.136 90.048H179.922C179.544 90.822 178.842 91.434 177.582 91.434C176.07 91.434 174.9 90.444 174.756 88.806H182.334C182.388 88.464 182.406 88.14 182.406 87.798C182.406 84.882 180.408 82.92 177.582 82.92C174.648 82.92 172.632 84.918 172.632 88.032C172.632 91.146 174.738 93.162 177.582 93.162C180.012 93.162 181.578 91.776 182.136 90.048ZM184.425 93H186.477V79.68H184.425V93ZM198.621 88.032C198.621 84.918 196.389 82.92 193.563 82.92C190.737 82.92 188.505 84.918 188.505 88.032C188.505 91.146 190.647 93.162 193.473 93.162C196.317 93.162 198.621 91.146 198.621 88.032ZM190.593 88.032C190.593 85.782 191.979 84.702 193.527 84.702C195.057 84.702 196.515 85.782 196.515 88.032C196.515 90.282 195.003 91.38 193.473 91.38C191.925 91.38 190.593 90.282 190.593 88.032ZM202.702 84.54V83.082H200.65V97.716H202.702V91.56C203.35 92.334 204.52 93.162 206.158 93.162C208.768 93.162 210.82 91.056 210.82 87.996C210.82 84.936 208.768 82.92 206.158 82.92C204.538 82.92 203.332 83.712 202.702 84.54ZM208.732 87.996C208.732 90.138 207.256 91.38 205.708 91.38C204.178 91.38 202.702 90.174 202.702 88.032C202.702 85.908 204.178 84.702 205.708 84.702C207.256 84.702 208.732 85.854 208.732 87.996ZM217.025 84.648C218.555 84.648 219.761 85.62 219.797 87.15H214.307C214.523 85.584 215.639 84.648 217.025 84.648ZM221.669 90.048H219.455C219.077 90.822 218.375 91.434 217.115 91.434C215.603 91.434 214.433 90.444 214.289 88.806H221.867C221.921 88.464 221.939 88.14 221.939 87.798C221.939 84.882 219.941 82.92 217.115 82.92C214.181 82.92 212.165 84.918 212.165 88.032C212.165 91.146 214.271 93.162 217.115 93.162C219.545 93.162 221.111 91.776 221.669 90.048ZM226.01 87.78C226.01 85.674 226.946 85.044 228.458 85.044H228.98V82.92C227.576 82.92 226.586 83.532 226.01 84.522V83.082H223.958V93H226.01V87.78Z" fill="#212832"/>
<path d="M291 64H289V111H291V64Z" fill="#36C8E3" stroke="#36C8E3" stroke-width="0.936604"/>
<circle cx="24.5" cy="87.5" r="23.5" fill="#36C8E3" stroke="#36C8E3"/>
<path d="M13.642 86.9942C13.642 90.9654 14.691 93.9625 18.5123 93.9625C22.3337 93.9625 23.3827 90.9654 23.3827 86.9942C23.3827 83.0979 22.3337 80.1008 18.5123 80.1008C14.691 80.1008 13.642 83.0979 13.642 86.9942ZM21.2847 86.9942C21.2847 89.6729 21.0037 92.0144 18.5123 92.0144C16.021 92.0144 15.74 89.6729 15.74 86.9942C15.74 84.4466 16.021 82.0489 18.5123 82.0489C21.0037 82.0489 21.2847 84.4466 21.2847 86.9942ZM26.2042 80.3069V88.1931H28.2272C28.5832 87.1815 29.4261 86.4884 30.6811 86.4884C32.4607 86.4884 33.3411 87.5 33.3411 89.2795C33.3411 90.9654 32.5169 92.2205 30.6811 92.2205C29.2388 92.2205 28.2647 91.4712 27.9837 90.3098H25.9045C26.2229 92.4452 27.8526 94 30.6624 94C33.8281 94 35.3829 91.9395 35.3829 89.2233C35.3829 87.1628 34.3526 84.6714 30.9996 84.6714C29.782 84.6714 28.6768 85.2334 28.171 85.9077V82.1801H34.4463V80.3069H26.2042Z" fill="#212832"/>
<g filter="url(#filter2_d_585_8346)">
<rect x="958" y="1" width="267" height="47" fill="white" shape-rendering="crispEdges"/>
<rect x="957.766" y="0.765849" width="267.468" height="47.4683" stroke="black" stroke-opacity="0.2" stroke-width="0.468302" shape-rendering="crispEdges"/>
</g>
<path d="M1007.94 24.718C1007.94 21.892 1009.74 20.128 1012.23 20.128C1014.71 20.128 1016.51 21.892 1016.51 24.718C1016.51 27.544 1014.71 29.344 1012.23 29.344C1009.74 29.344 1007.94 27.544 1007.94 24.718ZM1018.62 24.718C1018.62 20.974 1015.79 18.328 1012.23 18.328C1008.7 18.328 1005.84 20.974 1005.84 24.718C1005.84 28.48 1008.7 31.126 1012.23 31.126C1012.86 31.126 1013.45 31.054 1014.01 30.892L1016.2 33.268H1018.81L1015.81 30.082C1017.52 28.984 1018.62 27.076 1018.62 24.718ZM1029.67 21.082H1027.62V26.608C1027.62 28.426 1026.63 29.362 1025.12 29.362C1023.62 29.362 1022.63 28.426 1022.63 26.608V21.082H1020.6V26.914C1020.6 29.686 1022.36 31.144 1024.68 31.144C1025.85 31.144 1026.97 30.658 1027.62 29.812V31H1029.67V21.082ZM1031.69 25.996C1031.69 29.056 1033.76 31.162 1036.34 31.162C1037.99 31.162 1039.18 30.37 1039.81 29.524V31H1041.88V21.082H1039.81V22.522C1039.2 21.712 1038.05 20.92 1036.37 20.92C1033.76 20.92 1031.69 22.936 1031.69 25.996ZM1039.81 26.032C1039.81 28.174 1038.35 29.38 1036.81 29.38C1035.28 29.38 1033.8 28.138 1033.8 25.996C1033.8 23.854 1035.28 22.702 1036.81 22.702C1038.35 22.702 1039.81 23.908 1039.81 26.032ZM1051.61 31H1053.65V25.15C1053.65 22.378 1051.9 20.92 1049.58 20.92C1048.39 20.92 1047.29 21.406 1046.63 22.216V21.082H1044.58V31H1046.63V25.456C1046.63 23.638 1047.62 22.702 1049.13 22.702C1050.62 22.702 1051.61 23.638 1051.61 25.456V31ZM1056.59 28.246C1056.59 30.262 1057.69 31 1059.45 31H1061.07V29.29H1059.81C1058.95 29.29 1058.66 28.984 1058.66 28.246V22.756H1061.07V21.082H1058.66V18.616H1056.59V21.082H1055.42V22.756H1056.59V28.246ZM1062.96 31H1065.02V21.082H1062.96V31ZM1064.01 19.768C1064.73 19.768 1065.3 19.192 1065.3 18.454C1065.3 17.716 1064.73 17.14 1064.01 17.14C1063.27 17.14 1062.69 17.716 1062.69 18.454C1062.69 19.192 1063.27 19.768 1064.01 19.768ZM1068.03 28.246C1068.03 30.262 1069.13 31 1070.9 31H1072.52V29.29H1071.26C1070.39 29.29 1070.1 28.984 1070.1 28.246V22.756H1072.52V21.082H1070.1V18.616H1068.03V21.082H1066.86V22.756H1068.03V28.246ZM1073.72 25.996C1073.72 29.056 1075.79 31.162 1078.37 31.162C1080.02 31.162 1081.21 30.37 1081.84 29.524V31H1083.91V21.082H1081.84V22.522C1081.23 21.712 1080.08 20.92 1078.4 20.92C1075.79 20.92 1073.72 22.936 1073.72 25.996ZM1081.84 26.032C1081.84 28.174 1080.38 29.38 1078.83 29.38C1077.3 29.38 1075.83 28.138 1075.83 25.996C1075.83 23.854 1077.3 22.702 1078.83 22.702C1080.38 22.702 1081.84 23.908 1081.84 26.032ZM1086.93 28.246C1086.93 30.262 1088.03 31 1089.79 31H1091.41V29.29H1090.15C1089.29 29.29 1089 28.984 1089 28.246V22.756H1091.41V21.082H1089V18.616H1086.93V21.082H1085.76V22.756H1086.93V28.246ZM1093.3 31H1095.36V21.082H1093.3V31ZM1094.35 19.768C1095.07 19.768 1095.64 19.192 1095.64 18.454C1095.64 17.716 1095.07 17.14 1094.35 17.14C1093.61 17.14 1093.03 17.716 1093.03 18.454C1093.03 19.192 1093.61 19.768 1094.35 19.768ZM1096.88 21.082L1100.64 31H1103.09L1106.87 21.082H1104.69L1101.88 29.164L1099.08 21.082H1096.88ZM1112.6 22.648C1114.13 22.648 1115.33 23.62 1115.37 25.15H1109.88C1110.09 23.584 1111.21 22.648 1112.6 22.648ZM1117.24 28.048H1115.03C1114.65 28.822 1113.95 29.434 1112.69 29.434C1111.17 29.434 1110 28.444 1109.86 26.806H1117.44C1117.49 26.464 1117.51 26.14 1117.51 25.798C1117.51 22.882 1115.51 20.92 1112.69 20.92C1109.75 20.92 1107.74 22.918 1107.74 26.032C1107.74 29.146 1109.84 31.162 1112.69 31.162C1115.12 31.162 1116.68 29.776 1117.24 28.048ZM1132.65 31H1134.81L1130.33 18.472H1127.95L1123.47 31H1125.61L1126.51 28.444H1131.75L1132.65 31ZM1131.17 26.77H1127.09L1129.14 20.956L1131.17 26.77ZM1143.79 31H1145.83V25.15C1145.83 22.378 1144.08 20.92 1141.76 20.92C1140.57 20.92 1139.47 21.406 1138.81 22.216V21.082H1136.76V31H1138.81V25.456C1138.81 23.638 1139.8 22.702 1141.31 22.702C1142.8 22.702 1143.79 23.638 1143.79 25.456V31ZM1147.76 25.996C1147.76 29.056 1149.83 31.162 1152.41 31.162C1154.06 31.162 1155.25 30.37 1155.88 29.524V31H1157.95V21.082H1155.88V22.522C1155.27 21.712 1154.12 20.92 1152.44 20.92C1149.83 20.92 1147.76 22.936 1147.76 25.996ZM1155.88 26.032C1155.88 28.174 1154.42 29.38 1152.87 29.38C1151.34 29.38 1149.87 28.138 1149.87 25.996C1149.87 23.854 1151.34 22.702 1152.87 22.702C1154.42 22.702 1155.88 23.908 1155.88 26.032ZM1160.64 31H1162.7V17.68H1160.64V31ZM1169.3 28.642L1166.51 21.082H1164.22L1168.13 30.838L1166.11 35.662H1168.24L1174.32 21.082H1172.2L1169.3 28.642ZM1183.27 28.228C1183.16 24.646 1177.56 25.762 1177.56 23.764C1177.56 23.098 1178.14 22.648 1179.23 22.648C1180.35 22.648 1181.02 23.242 1181.09 24.106H1183.14C1183.03 22.126 1181.56 20.92 1179.31 20.92C1176.97 20.92 1175.49 22.198 1175.49 23.782C1175.49 27.418 1181.25 26.302 1181.25 28.246C1181.25 28.93 1180.62 29.434 1179.43 29.434C1178.3 29.434 1177.52 28.768 1177.45 27.958H1175.33C1175.42 29.758 1177.09 31.162 1179.47 31.162C1181.81 31.162 1183.27 29.902 1183.27 28.228ZM1185.81 28.246C1185.81 30.262 1186.9 31 1188.67 31H1190.29V29.29H1189.03C1188.16 29.29 1187.88 28.984 1187.88 28.246V22.756H1190.29V21.082H1187.88V18.616H1185.81V21.082H1184.64V22.756H1185.81V28.246Z" fill="#212832"/>
<path d="M1225 1H1223V48H1225V1Z" fill="#CF1C54" stroke="#CF1C54" stroke-width="0.936604"/>
<circle cx="958.5" cy="24.5" r="23.5" fill="#E9336C" stroke="#E9336C"/>
<path d="M947.474 24.6055C947.474 28.5767 948.523 31.5739 952.344 31.5739C956.165 31.5739 957.214 28.5767 957.214 24.6055C957.214 20.7093 956.165 17.7121 952.344 17.7121C948.523 17.7121 947.474 20.7093 947.474 24.6055ZM955.116 24.6055C955.116 27.2842 954.835 29.6257 952.344 29.6257C949.853 29.6257 949.572 27.2842 949.572 24.6055C949.572 22.058 949.853 19.6603 952.344 19.6603C954.835 19.6603 955.116 22.058 955.116 24.6055ZM965.993 31.6113H968.091V28.7641H969.833V26.9096H968.091V18.1242H965.506L959.212 27.1531V28.7641H965.993V31.6113ZM961.666 26.9096L966.086 20.2972V26.9096H961.666Z" fill="#212832"/>
<g filter="url(#filter3_d_585_8346)">
<rect x="336" y="2" width="267" height="47" fill="white" shape-rendering="crispEdges"/>
<rect x="335.766" y="1.76585" width="267.468" height="47.4683" stroke="black" stroke-opacity="0.2" stroke-width="0.468302" shape-rendering="crispEdges"/>
</g>
<path d="M602.81 2H600V48.8302H602.81V2Z" fill="#A9CF54" stroke="#A9CF54" stroke-width="0.936604"/>
<path d="M393.489 31H395.541V25.528H399.681V23.854H395.541V20.164H400.851V18.49H393.489V31ZM402.752 31H404.804V21.082H402.752V31ZM403.796 19.768C404.516 19.768 405.092 19.192 405.092 18.454C405.092 17.716 404.516 17.14 403.796 17.14C403.058 17.14 402.482 17.716 402.482 18.454C402.482 19.192 403.058 19.768 403.796 19.768ZM414.536 31H416.57V25.15C416.57 22.378 414.824 20.92 412.502 20.92C411.314 20.92 410.216 21.406 409.55 22.216V21.082H407.498V31H409.55V25.456C409.55 23.638 410.54 22.702 412.052 22.702C413.546 22.702 414.536 23.638 414.536 25.456V31ZM418.504 25.996C418.504 29.056 420.574 31.162 423.148 31.162C424.804 31.162 425.992 30.37 426.622 29.524V31H428.692V21.082H426.622V22.522C426.01 21.712 424.858 20.92 423.184 20.92C420.574 20.92 418.504 22.936 418.504 25.996ZM426.622 26.032C426.622 28.174 425.164 29.38 423.616 29.38C422.086 29.38 420.61 28.138 420.61 25.996C420.61 23.854 422.086 22.702 423.616 22.702C425.164 22.702 426.622 23.908 426.622 26.032ZM438.425 31H440.459V25.15C440.459 22.378 438.713 20.92 436.391 20.92C435.203 20.92 434.105 21.406 433.439 22.216V21.082H431.387V31H433.439V25.456C433.439 23.638 434.429 22.702 435.941 22.702C437.435 22.702 438.425 23.638 438.425 25.456V31ZM442.393 26.032C442.393 29.146 444.409 31.162 447.253 31.162C449.683 31.162 451.267 29.812 451.825 27.868H449.611C449.233 28.894 448.477 29.434 447.253 29.434C445.597 29.434 444.499 28.21 444.499 26.032C444.499 23.872 445.597 22.648 447.253 22.648C448.477 22.648 449.269 23.26 449.611 24.214H451.825C451.267 22.126 449.683 20.92 447.253 20.92C444.409 20.92 442.393 22.936 442.393 26.032ZM453.87 31H455.922V21.082H453.87V31ZM454.914 19.768C455.634 19.768 456.21 19.192 456.21 18.454C456.21 17.716 455.634 17.14 454.914 17.14C454.176 17.14 453.6 17.716 453.6 18.454C453.6 19.192 454.176 19.768 454.914 19.768ZM457.932 25.996C457.932 29.056 460.002 31.162 462.576 31.162C464.232 31.162 465.42 30.37 466.05 29.524V31H468.12V21.082H466.05V22.522C465.438 21.712 464.286 20.92 462.612 20.92C460.002 20.92 457.932 22.936 457.932 25.996ZM466.05 26.032C466.05 28.174 464.592 29.38 463.044 29.38C461.514 29.38 460.038 28.138 460.038 25.996C460.038 23.854 461.514 22.702 463.044 22.702C464.592 22.702 466.05 23.908 466.05 26.032ZM470.815 31H472.867V17.68H470.815V31ZM488.679 31H490.839L486.357 18.472H483.981L479.499 31H481.641L482.541 28.444H487.779L488.679 31ZM487.203 26.77H483.117L485.169 20.956L487.203 26.77ZM499.826 31H501.86V25.15C501.86 22.378 500.114 20.92 497.792 20.92C496.604 20.92 495.506 21.406 494.84 22.216V21.082H492.788V31H494.84V25.456C494.84 23.638 495.83 22.702 497.342 22.702C498.836 22.702 499.826 23.638 499.826 25.456V31ZM503.793 25.996C503.793 29.056 505.863 31.162 508.437 31.162C510.093 31.162 511.281 30.37 511.911 29.524V31H513.981V21.082H511.911V22.522C511.299 21.712 510.147 20.92 508.473 20.92C505.863 20.92 503.793 22.936 503.793 25.996ZM511.911 26.032C511.911 28.174 510.453 29.38 508.905 29.38C507.375 29.38 505.899 28.138 505.899 25.996C505.899 23.854 507.375 22.702 508.905 22.702C510.453 22.702 511.911 23.908 511.911 26.032ZM516.676 31H518.728V17.68H516.676V31ZM525.328 28.642L522.538 21.082H520.252L524.158 30.838L522.142 35.662H524.266L530.35 21.082H528.226L525.328 28.642ZM539.297 28.228C539.189 24.646 533.591 25.762 533.591 23.764C533.591 23.098 534.167 22.648 535.265 22.648C536.381 22.648 537.047 23.242 537.119 24.106H539.171C539.063 22.126 537.587 20.92 535.337 20.92C532.997 20.92 531.521 22.198 531.521 23.782C531.521 27.418 537.281 26.302 537.281 28.246C537.281 28.93 536.651 29.434 535.463 29.434C534.329 29.434 533.555 28.768 533.483 27.958H531.359C531.449 29.758 533.123 31.162 535.499 31.162C537.839 31.162 539.297 29.902 539.297 28.228ZM541.838 28.246C541.838 30.262 542.936 31 544.7 31H546.32V29.29H545.06C544.196 29.29 543.908 28.984 543.908 28.246V22.756H546.32V21.082H543.908V18.616H541.838V21.082H540.668V22.756H541.838V28.246Z" fill="#212832"/>
<circle cx="335.5" cy="25.5" r="23.5" fill="#A9CF54" stroke="#A9CF54"/>
<path d="M325.132 25.17C325.132 29.1412 326.181 32.1383 330.003 32.1383C333.824 32.1383 334.873 29.1412 334.873 25.17C334.873 21.2737 333.824 18.2766 330.003 18.2766C326.181 18.2766 325.132 21.2737 325.132 25.17ZM332.775 25.17C332.775 27.8487 332.494 30.1902 330.003 30.1902C327.511 30.1902 327.23 27.8487 327.23 25.17C327.23 22.6224 327.511 20.2247 330.003 20.2247C332.494 20.2247 332.775 22.6224 332.775 25.17ZM336.964 31.9885H346.068V30.2089H340.13C342.321 28.2046 345.693 25.6758 345.693 22.3602C345.693 19.9063 344.12 18.2391 341.347 18.2391C338.931 18.2391 337.02 19.6815 336.945 22.6412H339.006C339.062 21.1051 339.867 20.0561 341.366 20.0561C342.958 20.0561 343.576 21.0302 343.576 22.4538C343.576 25.1325 340.186 27.6052 336.964 30.4337V31.9885Z" fill="#212832"/>
<g filter="url(#filter4_d_585_8346)">
<rect x="336" y="64" width="267" height="47" fill="white" shape-rendering="crispEdges"/>
<rect x="335.766" y="63.7658" width="267.468" height="47.4683" stroke="black" stroke-opacity="0.2" stroke-width="0.468302" shape-rendering="crispEdges"/>
</g>
<path d="M602.81 64H600V110.83H602.81V64Z" fill="#F8D000" stroke="#F8D000" stroke-width="0.936604"/>
<path d="M394.74 86.25V82.164H397.008C398.61 82.164 399.33 82.92 399.33 84.216C399.33 85.476 398.61 86.25 397.008 86.25H394.74ZM401.436 84.216C401.436 82.182 399.978 80.49 397.008 80.49H392.688V93H394.74V87.924H397.008C400.266 87.924 401.436 85.998 401.436 84.216ZM405.445 87.78C405.445 85.674 406.381 85.044 407.893 85.044H408.415V82.92C407.011 82.92 406.021 83.532 405.445 84.522V83.082H403.393V93H405.445V87.78ZM419.751 88.032C419.751 84.918 417.519 82.92 414.693 82.92C411.867 82.92 409.635 84.918 409.635 88.032C409.635 91.146 411.777 93.162 414.603 93.162C417.447 93.162 419.751 91.146 419.751 88.032ZM411.723 88.032C411.723 85.782 413.109 84.702 414.657 84.702C416.187 84.702 417.645 85.782 417.645 88.032C417.645 90.282 416.133 91.38 414.603 91.38C413.055 91.38 411.723 90.282 411.723 88.032ZM421.096 87.996C421.096 91.056 423.166 93.162 425.776 93.162C427.396 93.162 428.584 92.406 429.214 91.506V93H431.284V79.68H429.214V84.468C428.458 83.532 427.09 82.92 425.794 82.92C423.166 82.92 421.096 84.936 421.096 87.996ZM429.214 88.032C429.214 90.174 427.756 91.38 426.208 91.38C424.678 91.38 423.202 90.138 423.202 87.996C423.202 85.854 424.678 84.702 426.208 84.702C427.756 84.702 429.214 85.908 429.214 88.032ZM442.961 83.082H440.909V88.608C440.909 90.426 439.919 91.362 438.407 91.362C436.913 91.362 435.923 90.426 435.923 88.608V83.082H433.889V88.914C433.889 91.686 435.653 93.144 437.975 93.144C439.145 93.144 440.261 92.658 440.909 91.812V93H442.961V83.082ZM444.984 88.032C444.984 91.146 447 93.162 449.844 93.162C452.274 93.162 453.858 91.812 454.416 89.868H452.202C451.824 90.894 451.068 91.434 449.844 91.434C448.188 91.434 447.09 90.21 447.09 88.032C447.09 85.872 448.188 84.648 449.844 84.648C451.068 84.648 451.86 85.26 452.202 86.214H454.416C453.858 84.126 452.274 82.92 449.844 82.92C447 82.92 444.984 84.936 444.984 88.032ZM456.785 90.246C456.785 92.262 457.883 93 459.647 93H461.267V91.29H460.007C459.143 91.29 458.855 90.984 458.855 90.246V84.756H461.267V83.082H458.855V80.616H456.785V83.082H455.615V84.756H456.785V90.246ZM467.834 93H469.886V84.432L473.72 93H475.142L478.958 84.432V93H481.01V80.49H478.814L474.44 90.3L470.048 80.49H467.834V93ZM483.023 87.996C483.023 91.056 485.093 93.162 487.667 93.162C489.323 93.162 490.511 92.37 491.141 91.524V93H493.211V83.082H491.141V84.522C490.529 83.712 489.377 82.92 487.703 82.92C485.093 82.92 483.023 84.936 483.023 87.996ZM491.141 88.032C491.141 90.174 489.683 91.38 488.135 91.38C486.605 91.38 485.129 90.138 485.129 87.996C485.129 85.854 486.605 84.702 488.135 84.702C489.683 84.702 491.141 85.908 491.141 88.032ZM502.945 93H504.979V87.15C504.979 84.378 503.233 82.92 500.911 82.92C499.723 82.92 498.625 83.406 497.959 84.216V83.082H495.907V93H497.959V87.456C497.959 85.638 498.949 84.702 500.461 84.702C501.955 84.702 502.945 85.638 502.945 87.456V93ZM506.912 87.996C506.912 91.056 508.982 93.162 511.556 93.162C513.212 93.162 514.4 92.37 515.03 91.524V93H517.1V83.082H515.03V84.522C514.418 83.712 513.266 82.92 511.592 82.92C508.982 82.92 506.912 84.936 506.912 87.996ZM515.03 88.032C515.03 90.174 513.572 91.38 512.024 91.38C510.494 91.38 509.018 90.138 509.018 87.996C509.018 85.854 510.494 84.702 512.024 84.702C513.572 84.702 515.03 85.908 515.03 88.032ZM519.111 87.996C519.111 91.056 521.181 93.162 523.791 93.162C525.411 93.162 526.599 92.352 527.229 91.506V93.162C527.229 95.142 526.041 96.114 524.457 96.114C523.035 96.114 521.937 95.412 521.631 94.386H519.597C519.849 96.582 521.811 97.896 524.457 97.896C527.553 97.896 529.299 95.862 529.299 93.162V83.082H527.229V84.522C526.617 83.676 525.411 82.92 523.791 82.92C521.181 82.92 519.111 84.936 519.111 87.996ZM527.229 88.032C527.229 90.174 525.771 91.38 524.223 91.38C522.693 91.38 521.217 90.138 521.217 87.996C521.217 85.854 522.693 84.702 524.223 84.702C525.771 84.702 527.229 85.908 527.229 88.032ZM536.171 84.648C537.701 84.648 538.907 85.62 538.943 87.15H533.453C533.669 85.584 534.785 84.648 536.171 84.648ZM540.815 90.048H538.601C538.223 90.822 537.521 91.434 536.261 91.434C534.749 91.434 533.579 90.444 533.435 88.806H541.013C541.067 88.464 541.085 88.14 541.085 87.798C541.085 84.882 539.087 82.92 536.261 82.92C533.327 82.92 531.311 84.918 531.311 88.032C531.311 91.146 533.417 93.162 536.261 93.162C538.691 93.162 540.257 91.776 540.815 90.048ZM545.156 87.78C545.156 85.674 546.092 85.044 547.604 85.044H548.126V82.92C546.722 82.92 545.732 83.532 545.156 84.522V83.082H543.104V93H545.156V87.78Z" fill="#212832"/>
<circle cx="335.5" cy="87.5" r="23.5" fill="#F8D000" stroke="#F8D000"/>
<path d="M324.529 87.17C324.529 91.1412 325.578 94.1383 329.399 94.1383C333.22 94.1383 334.269 91.1412 334.269 87.17C334.269 83.2737 333.22 80.2766 329.399 80.2766C325.578 80.2766 324.529 83.2737 324.529 87.17ZM332.171 87.17C332.171 89.8487 331.89 92.1902 329.399 92.1902C326.908 92.1902 326.627 89.8487 326.627 87.17C326.627 84.6224 326.908 82.2247 329.399 82.2247C331.89 82.2247 332.171 84.6224 332.171 87.17ZM345.839 83.6858C345.614 81.8688 344.284 80.1829 341.624 80.1829C338.215 80.1829 336.791 82.7679 336.791 87.0389C336.791 91.3847 337.821 94.1758 341.793 94.1758C344.715 94.1758 346.27 92.2089 346.27 89.6239C346.27 86.7766 344.528 85.1282 342.074 85.1282C340.65 85.1282 339.301 85.7276 338.627 86.8515C338.683 83.2737 339.676 81.9625 341.605 81.9625C342.954 81.9625 343.61 82.5806 343.872 83.6858H345.839ZM341.605 86.9265C343.404 86.9265 344.228 88.0879 344.228 89.7175C344.228 91.3285 343.254 92.3962 341.68 92.3962C339.863 92.3962 338.87 91.2723 338.87 89.5864C338.87 87.7694 340.2 86.9265 341.605 86.9265Z" fill="#212832"/>
<g filter="url(#filter5_d_585_8346)">
<rect x="647" y="2" width="267" height="47" fill="white" shape-rendering="crispEdges"/>
<rect x="646.766" y="1.76585" width="267.468" height="47.4683" stroke="black" stroke-opacity="0.2" stroke-width="0.468302" shape-rendering="crispEdges"/>
</g>
<path d="M913.864 2H911.055V48.8302H913.864V2Z" fill="#D96868" stroke="#D96868" stroke-width="0.936604"/>
<path d="M698.867 24.718C698.867 28.48 701.729 31.108 705.257 31.108C707.867 31.108 710.117 29.812 711.071 27.364H708.605C707.939 28.696 706.751 29.326 705.257 29.326C702.773 29.326 700.973 27.544 700.973 24.718C700.973 21.892 702.773 20.128 705.257 20.128C706.751 20.128 707.939 20.758 708.605 22.09H711.071C710.117 19.642 707.867 18.328 705.257 18.328C701.729 18.328 698.867 20.974 698.867 24.718ZM722.923 26.032C722.923 22.918 720.691 20.92 717.865 20.92C715.039 20.92 712.807 22.918 712.807 26.032C712.807 29.146 714.949 31.162 717.775 31.162C720.619 31.162 722.923 29.146 722.923 26.032ZM714.895 26.032C714.895 23.782 716.281 22.702 717.829 22.702C719.359 22.702 720.817 23.782 720.817 26.032C720.817 28.282 719.305 29.38 717.775 29.38C716.227 29.38 714.895 28.282 714.895 26.032ZM739.01 31H741.044V25.15C741.044 22.378 739.28 20.92 736.958 20.92C735.518 20.92 734.114 21.676 733.502 22.882C732.818 21.586 731.504 20.92 729.938 20.92C728.75 20.92 727.67 21.406 727.004 22.216V21.082H724.952V31H727.004V25.456C727.004 23.638 727.994 22.702 729.506 22.702C731 22.702 731.99 23.638 731.99 25.456V31H734.024V25.456C734.024 23.638 735.014 22.702 736.526 22.702C738.02 22.702 739.01 23.638 739.01 25.456V31ZM745.707 22.54V21.082H743.655V35.716H745.707V29.56C746.355 30.334 747.525 31.162 749.163 31.162C751.773 31.162 753.825 29.056 753.825 25.996C753.825 22.936 751.773 20.92 749.163 20.92C747.543 20.92 746.337 21.712 745.707 22.54ZM751.737 25.996C751.737 28.138 750.261 29.38 748.713 29.38C747.183 29.38 745.707 28.174 745.707 26.032C745.707 23.908 747.183 22.702 748.713 22.702C750.261 22.702 751.737 23.854 751.737 25.996ZM755.854 31H757.906V17.68H755.854V31ZM760.6 31H762.652V21.082H760.6V31ZM761.644 19.768C762.364 19.768 762.94 19.192 762.94 18.454C762.94 17.716 762.364 17.14 761.644 17.14C760.906 17.14 760.33 17.716 760.33 18.454C760.33 19.192 760.906 19.768 761.644 19.768ZM764.662 25.996C764.662 29.056 766.732 31.162 769.306 31.162C770.962 31.162 772.15 30.37 772.78 29.524V31H774.85V21.082H772.78V22.522C772.168 21.712 771.016 20.92 769.342 20.92C766.732 20.92 764.662 22.936 764.662 25.996ZM772.78 26.032C772.78 28.174 771.322 29.38 769.774 29.38C768.244 29.38 766.768 28.138 766.768 25.996C766.768 23.854 768.244 22.702 769.774 22.702C771.322 22.702 772.78 23.908 772.78 26.032ZM784.583 31H786.617V25.15C786.617 22.378 784.871 20.92 782.549 20.92C781.361 20.92 780.263 21.406 779.597 22.216V21.082H777.545V31H779.597V25.456C779.597 23.638 780.587 22.702 782.099 22.702C783.593 22.702 784.583 23.638 784.583 25.456V31ZM788.551 26.032C788.551 29.146 790.567 31.162 793.411 31.162C795.841 31.162 797.425 29.812 797.983 27.868H795.769C795.391 28.894 794.635 29.434 793.411 29.434C791.755 29.434 790.657 28.21 790.657 26.032C790.657 23.872 791.755 22.648 793.411 22.648C794.635 22.648 795.427 23.26 795.769 24.214H797.983C797.425 22.126 795.841 20.92 793.411 20.92C790.567 20.92 788.551 22.936 788.551 26.032ZM804.204 22.648C805.734 22.648 806.94 23.62 806.976 25.15H801.486C801.702 23.584 802.818 22.648 804.204 22.648ZM808.848 28.048H806.634C806.256 28.822 805.554 29.434 804.294 29.434C802.782 29.434 801.612 28.444 801.468 26.806H809.046C809.1 26.464 809.118 26.14 809.118 25.798C809.118 22.882 807.12 20.92 804.294 20.92C801.36 20.92 799.344 22.918 799.344 26.032C799.344 29.146 801.45 31.162 804.294 31.162C806.724 31.162 808.29 29.776 808.848 28.048ZM822.725 18.472H815.813V31H822.725V29.326H817.865V25.492H822.185V23.818H817.865V20.146H822.725V18.472ZM830.382 31H832.704L829.5 25.978L832.704 21.082H830.562L828.546 24.448L826.404 21.082H824.082L827.286 26.122L824.082 31H826.224L828.24 27.634L830.382 31ZM836.287 22.54V21.082H834.235V35.716H836.287V29.56C836.935 30.334 838.105 31.162 839.743 31.162C842.353 31.162 844.405 29.056 844.405 25.996C844.405 22.936 842.353 20.92 839.743 20.92C838.123 20.92 836.917 21.712 836.287 22.54ZM842.317 25.996C842.317 28.138 840.841 29.38 839.293 29.38C837.763 29.38 836.287 28.174 836.287 26.032C836.287 23.908 837.763 22.702 839.293 22.702C840.841 22.702 842.317 23.854 842.317 25.996ZM850.61 22.648C852.14 22.648 853.346 23.62 853.382 25.15H847.892C848.108 23.584 849.224 22.648 850.61 22.648ZM855.254 28.048H853.04C852.662 28.822 851.96 29.434 850.7 29.434C849.188 29.434 848.018 28.444 847.874 26.806H855.452C855.506 26.464 855.524 26.14 855.524 25.798C855.524 22.882 853.526 20.92 850.7 20.92C847.766 20.92 845.75 22.918 845.75 26.032C845.75 29.146 847.856 31.162 850.7 31.162C853.13 31.162 854.696 29.776 855.254 28.048ZM859.595 25.78C859.595 23.674 860.531 23.044 862.043 23.044H862.565V20.92C861.161 20.92 860.171 21.532 859.595 22.522V21.082H857.543V31H859.595V25.78ZM864.776 28.246C864.776 30.262 865.874 31 867.638 31H869.258V29.29H867.998C867.134 29.29 866.846 28.984 866.846 28.246V22.756H869.258V21.082H866.846V18.616H864.776V21.082H863.606V22.756H864.776V28.246Z" fill="#212832"/>
<circle cx="647.5" cy="25.5" r="23.5" fill="#D96868" stroke="#D96868"/>
<path d="M636.509 25.17C636.509 29.1412 637.558 32.1383 641.379 32.1383C645.2 32.1383 646.249 29.1412 646.249 25.17C646.249 21.2737 645.2 18.2766 641.379 18.2766C637.558 18.2766 636.509 21.2737 636.509 25.17ZM644.151 25.17C644.151 27.8487 643.87 30.1902 641.379 30.1902C638.888 30.1902 638.607 27.8487 638.607 25.17C638.607 22.6224 638.888 20.2247 641.379 20.2247C643.87 20.2247 644.151 22.6224 644.151 25.17ZM648.471 21.8919H650.551C650.682 20.9365 651.375 20.0374 652.873 20.0374C654.334 20.0374 655.102 20.8241 655.102 22.0043C655.102 23.4654 653.922 24.0273 651.993 24.0461H651.487V25.8069H651.974C654.203 25.8069 655.365 26.425 655.365 28.2233C655.365 29.4971 654.578 30.4712 652.986 30.4712C651.375 30.4712 650.438 29.4971 650.345 28.2233H648.284C648.415 30.902 650.419 32.2507 653.004 32.2507C655.852 32.2507 657.388 30.6023 657.388 28.4294C657.388 26.5374 656.47 25.3573 655.046 24.9265V24.8515C656.114 24.4956 657.144 23.3904 657.144 21.7607C657.144 19.7751 655.664 18.2017 652.948 18.2017C650.457 18.2017 648.621 19.5316 648.471 21.8919Z" fill="#212832"/>
<g filter="url(#filter6_d_585_8346)">
<rect x="652" y="64" width="262" height="47" fill="white" shape-rendering="crispEdges"/>
<rect x="651.766" y="63.7658" width="262.468" height="47.4683" stroke="black" stroke-opacity="0.2" stroke-width="0.468302" shape-rendering="crispEdges"/>
</g>
<g filter="url(#filter7_d_585_8346)">
<rect x="958" y="64" width="267" height="47" fill="white" shape-rendering="crispEdges"/>
<rect x="957.766" y="63.7658" width="267.468" height="47.4683" stroke="black" stroke-opacity="0.2" stroke-width="0.468302" shape-rendering="crispEdges"/>
</g>
<path d="M913.864 64H911.055V110.83H913.864V64Z" fill="#6887D9" stroke="#6887D9" stroke-width="0.936604"/>
<path d="M1224.86 64H1222.05V110.83H1224.86V64Z" fill="#68C4D9" stroke="#68C4D9" stroke-width="0.936604"/>
<path d="M687.016 86.718C687.016 90.48 689.878 93.108 693.406 93.108C696.016 93.108 698.266 91.812 699.22 89.364H696.754C696.088 90.696 694.9 91.326 693.406 91.326C690.922 91.326 689.122 89.544 689.122 86.718C689.122 83.892 690.922 82.128 693.406 82.128C694.9 82.128 696.088 82.758 696.754 84.09H699.22C698.266 81.642 696.016 80.328 693.406 80.328C689.878 80.328 687.016 82.974 687.016 86.718ZM705.527 90.642L702.737 83.082H700.451L704.357 92.838L702.341 97.662H704.465L710.549 83.082H708.425L705.527 90.642ZM714.15 84.558V79.68H712.098V93H714.15V91.56C714.798 92.424 715.968 93.162 717.606 93.162C720.216 93.162 722.268 91.056 722.268 87.996C722.268 84.936 720.234 82.92 717.606 82.92C716.04 82.92 714.798 83.658 714.15 84.558ZM720.18 87.996C720.18 90.138 718.704 91.38 717.156 91.38C715.626 91.38 714.15 90.174 714.15 88.032C714.15 85.908 715.626 84.702 717.156 84.702C718.704 84.702 720.18 85.854 720.18 87.996ZM728.473 84.648C730.003 84.648 731.209 85.62 731.245 87.15H725.755C725.971 85.584 727.087 84.648 728.473 84.648ZM733.117 90.048H730.903C730.525 90.822 729.823 91.434 728.563 91.434C727.051 91.434 725.881 90.444 725.737 88.806H733.315C733.369 88.464 733.387 88.14 733.387 87.798C733.387 84.882 731.389 82.92 728.563 82.92C725.629 82.92 723.613 84.918 723.613 88.032C723.613 91.146 725.719 93.162 728.563 93.162C730.993 93.162 732.559 91.776 733.117 90.048ZM737.459 87.78C737.459 85.674 738.395 85.044 739.907 85.044H740.429V82.92C739.025 82.92 738.035 83.532 737.459 84.522V83.082H735.407V93H737.459V87.78ZM749.713 90.228C749.605 86.646 744.007 87.762 744.007 85.764C744.007 85.098 744.583 84.648 745.681 84.648C746.797 84.648 747.463 85.242 747.535 86.106H749.587C749.479 84.126 748.003 82.92 745.753 82.92C743.413 82.92 741.937 84.198 741.937 85.782C741.937 89.418 747.697 88.302 747.697 90.246C747.697 90.93 747.067 91.434 745.879 91.434C744.745 91.434 743.971 90.768 743.899 89.958H741.775C741.865 91.758 743.539 93.162 745.915 93.162C748.255 93.162 749.713 91.902 749.713 90.228ZM756.106 84.648C757.636 84.648 758.842 85.62 758.878 87.15H753.388C753.604 85.584 754.72 84.648 756.106 84.648ZM760.75 90.048H758.536C758.158 90.822 757.456 91.434 756.196 91.434C754.684 91.434 753.514 90.444 753.37 88.806H760.948C761.002 88.464 761.02 88.14 761.02 87.798C761.02 84.882 759.022 82.92 756.196 82.92C753.262 82.92 751.246 84.918 751.246 88.032C751.246 91.146 753.352 93.162 756.196 93.162C758.626 93.162 760.192 91.776 760.75 90.048ZM762.355 88.032C762.355 91.146 764.371 93.162 767.215 93.162C769.645 93.162 771.229 91.812 771.787 89.868H769.573C769.195 90.894 768.439 91.434 767.215 91.434C765.559 91.434 764.461 90.21 764.461 88.032C764.461 85.872 765.559 84.648 767.215 84.648C768.439 84.648 769.231 85.26 769.573 86.214H771.787C771.229 84.126 769.645 82.92 767.215 82.92C764.371 82.92 762.355 84.936 762.355 88.032ZM782.814 83.082H780.762V88.608C780.762 90.426 779.772 91.362 778.26 91.362C776.766 91.362 775.776 90.426 775.776 88.608V83.082H773.742V88.914C773.742 91.686 775.506 93.144 777.828 93.144C778.998 93.144 780.114 92.658 780.762 91.812V93H782.814V83.082ZM787.574 87.78C787.574 85.674 788.51 85.044 790.022 85.044H790.544V82.92C789.14 82.92 788.15 83.532 787.574 84.522V83.082H785.522V93H787.574V87.78ZM792.43 93H794.482V83.082H792.43V93ZM793.474 81.768C794.194 81.768 794.77 81.192 794.77 80.454C794.77 79.716 794.194 79.14 793.474 79.14C792.736 79.14 792.16 79.716 792.16 80.454C792.16 81.192 792.736 81.768 793.474 81.768ZM797.5 90.246C797.5 92.262 798.598 93 800.362 93H801.982V91.29H800.722C799.858 91.29 799.57 90.984 799.57 90.246V84.756H801.982V83.082H799.57V80.616H797.5V83.082H796.33V84.756H797.5V90.246ZM807.779 90.642L804.989 83.082H802.703L806.609 92.838L804.593 97.662H806.717L812.801 83.082H810.677L807.779 90.642ZM827.468 93H829.628L825.146 80.472H822.77L818.288 93H820.43L821.33 90.444H826.568L827.468 93ZM825.992 88.77H821.906L823.958 82.956L825.992 88.77ZM838.615 93H840.649V87.15C840.649 84.378 838.903 82.92 836.581 82.92C835.393 82.92 834.295 83.406 833.629 84.216V83.082H831.577V93H833.629V87.456C833.629 85.638 834.619 84.702 836.131 84.702C837.625 84.702 838.615 85.638 838.615 87.456V93ZM842.582 87.996C842.582 91.056 844.652 93.162 847.226 93.162C848.882 93.162 850.07 92.37 850.7 91.524V93H852.77V83.082H850.7V84.522C850.088 83.712 848.936 82.92 847.262 82.92C844.652 82.92 842.582 84.936 842.582 87.996ZM850.7 88.032C850.7 90.174 849.242 91.38 847.694 91.38C846.164 91.38 844.688 90.138 844.688 87.996C844.688 85.854 846.164 84.702 847.694 84.702C849.242 84.702 850.7 85.908 850.7 88.032ZM855.465 93H857.517V79.68H855.465V93ZM864.117 90.642L861.327 83.082H859.041L862.947 92.838L860.931 97.662H863.055L869.139 83.082H867.015L864.117 90.642ZM878.086 90.228C877.978 86.646 872.38 87.762 872.38 85.764C872.38 85.098 872.956 84.648 874.054 84.648C875.17 84.648 875.836 85.242 875.908 86.106H877.96C877.852 84.126 876.376 82.92 874.126 82.92C871.786 82.92 870.31 84.198 870.31 85.782C870.31 89.418 876.07 88.302 876.07 90.246C876.07 90.93 875.44 91.434 874.252 91.434C873.118 91.434 872.344 90.768 872.272 89.958H870.148C870.238 91.758 871.912 93.162 874.288 93.162C876.628 93.162 878.086 91.902 878.086 90.228ZM880.627 90.246C880.627 92.262 881.725 93 883.489 93H885.109V91.29H883.849C882.985 91.29 882.697 90.984 882.697 90.246V84.756H885.109V83.082H882.697V80.616H880.627V83.082H879.457V84.756H880.627V90.246Z" fill="#212832"/>
<path d="M1030.81 80.49H1026.73V93H1030.81C1034.83 93 1037.45 90.642 1037.45 86.79C1037.45 82.92 1034.83 80.49 1030.81 80.49ZM1028.78 91.326V82.164H1030.81C1033.76 82.164 1035.35 83.928 1035.35 86.79C1035.35 89.634 1033.76 91.326 1030.81 91.326H1028.78ZM1038.8 87.996C1038.8 91.056 1040.87 93.162 1043.45 93.162C1045.1 93.162 1046.29 92.37 1046.92 91.524V93H1048.99V83.082H1046.92V84.522C1046.31 83.712 1045.16 82.92 1043.48 82.92C1040.87 82.92 1038.8 84.936 1038.8 87.996ZM1046.92 88.032C1046.92 90.174 1045.46 91.38 1043.92 91.38C1042.39 91.38 1040.91 90.138 1040.91 87.996C1040.91 85.854 1042.39 84.702 1043.92 84.702C1045.46 84.702 1046.92 85.908 1046.92 88.032ZM1052.01 90.246C1052.01 92.262 1053.11 93 1054.87 93H1056.49V91.29H1055.23C1054.37 91.29 1054.08 90.984 1054.08 90.246V84.756H1056.49V83.082H1054.08V80.616H1052.01V83.082H1050.84V84.756H1052.01V90.246ZM1057.7 87.996C1057.7 91.056 1059.77 93.162 1062.34 93.162C1064 93.162 1065.19 92.37 1065.82 91.524V93H1067.89V83.082H1065.82V84.522C1065.21 83.712 1064.05 82.92 1062.38 82.92C1059.77 82.92 1057.7 84.936 1057.7 87.996ZM1065.82 88.032C1065.82 90.174 1064.36 91.38 1062.81 91.38C1061.28 91.38 1059.81 90.138 1059.81 87.996C1059.81 85.854 1061.28 84.702 1062.81 84.702C1064.36 84.702 1065.82 85.908 1065.82 88.032ZM1083.7 89.454C1083.7 84.882 1077.08 86.646 1077.08 83.82C1077.08 82.614 1078 82.038 1079.18 82.074C1080.48 82.11 1081.22 82.884 1081.29 83.73H1083.56C1083.38 81.588 1081.69 80.328 1079.29 80.328C1076.74 80.328 1074.99 81.696 1074.99 83.892C1074.99 88.5 1081.63 86.538 1081.63 89.562C1081.63 90.624 1080.82 91.398 1079.38 91.398C1077.96 91.398 1077.24 90.57 1077.15 89.544H1074.95C1074.95 91.758 1076.88 93.126 1079.38 93.126C1082.17 93.126 1083.7 91.326 1083.7 89.454ZM1088.17 84.54V83.082H1086.12V97.716H1088.17V91.56C1088.82 92.334 1089.99 93.162 1091.63 93.162C1094.24 93.162 1096.29 91.056 1096.29 87.996C1096.29 84.936 1094.24 82.92 1091.63 82.92C1090.01 82.92 1088.8 83.712 1088.17 84.54ZM1094.2 87.996C1094.2 90.138 1092.73 91.38 1091.18 91.38C1089.65 91.38 1088.17 90.174 1088.17 88.032C1088.17 85.908 1089.65 84.702 1091.18 84.702C1092.73 84.702 1094.2 85.854 1094.2 87.996ZM1102.5 84.648C1104.03 84.648 1105.23 85.62 1105.27 87.15H1099.78C1100 85.584 1101.11 84.648 1102.5 84.648ZM1107.14 90.048H1104.93C1104.55 90.822 1103.85 91.434 1102.59 91.434C1101.08 91.434 1099.91 90.444 1099.76 88.806H1107.34C1107.39 88.464 1107.41 88.14 1107.41 87.798C1107.41 84.882 1105.41 82.92 1102.59 82.92C1099.65 82.92 1097.64 84.918 1097.64 88.032C1097.64 91.146 1099.74 93.162 1102.59 93.162C1105.02 93.162 1106.58 91.776 1107.14 90.048ZM1108.75 88.032C1108.75 91.146 1110.76 93.162 1113.61 93.162C1116.04 93.162 1117.62 91.812 1118.18 89.868H1115.97C1115.59 90.894 1114.83 91.434 1113.61 91.434C1111.95 91.434 1110.85 90.21 1110.85 88.032C1110.85 85.872 1111.95 84.648 1113.61 84.648C1114.83 84.648 1115.62 85.26 1115.97 86.214H1118.18C1117.62 84.126 1116.04 82.92 1113.61 82.92C1110.76 82.92 1108.75 84.936 1108.75 88.032ZM1120.22 93H1122.28V83.082H1120.22V93ZM1121.27 81.768C1121.99 81.768 1122.56 81.192 1122.56 80.454C1122.56 79.716 1121.99 79.14 1121.27 79.14C1120.53 79.14 1119.95 79.716 1119.95 80.454C1119.95 81.192 1120.53 81.768 1121.27 81.768ZM1124.29 87.996C1124.29 91.056 1126.36 93.162 1128.93 93.162C1130.59 93.162 1131.77 92.37 1132.4 91.524V93H1134.47V83.082H1132.4V84.522C1131.79 83.712 1130.64 82.92 1128.97 82.92C1126.36 82.92 1124.29 84.936 1124.29 87.996ZM1132.4 88.032C1132.4 90.174 1130.95 91.38 1129.4 91.38C1127.87 91.38 1126.39 90.138 1126.39 87.996C1126.39 85.854 1127.87 84.702 1129.4 84.702C1130.95 84.702 1132.4 85.908 1132.4 88.032ZM1137.17 93H1139.22V79.68H1137.17V93ZM1141.92 93H1143.97V83.082H1141.92V93ZM1142.96 81.768C1143.68 81.768 1144.26 81.192 1144.26 80.454C1144.26 79.716 1143.68 79.14 1142.96 79.14C1142.22 79.14 1141.65 79.716 1141.65 80.454C1141.65 81.192 1142.22 81.768 1142.96 81.768ZM1154.06 90.228C1153.95 86.646 1148.35 87.762 1148.35 85.764C1148.35 85.098 1148.93 84.648 1150.03 84.648C1151.14 84.648 1151.81 85.242 1151.88 86.106H1153.93C1153.83 84.126 1152.35 82.92 1150.1 82.92C1147.76 82.92 1146.28 84.198 1146.28 85.782C1146.28 89.418 1152.04 88.302 1152.04 90.246C1152.04 90.93 1151.41 91.434 1150.23 91.434C1149.09 91.434 1148.32 90.768 1148.25 89.958H1146.12C1146.21 91.758 1147.89 93.162 1150.26 93.162C1152.6 93.162 1154.06 91.902 1154.06 90.228ZM1156.6 90.246C1156.6 92.262 1157.7 93 1159.46 93H1161.08V91.29H1159.82C1158.96 91.29 1158.67 90.984 1158.67 90.246V84.756H1161.08V83.082H1158.67V80.616H1156.6V83.082H1155.43V84.756H1156.6V90.246Z" fill="#212832"/>
<circle cx="647.5" cy="87.5" r="23.5" fill="#6887D9" stroke="#6887D9"/>
<circle cx="958.5" cy="87.5" r="23.5" fill="#68C4D9" stroke="#68C4D9"/>
<path d="M636.829 87.17C636.829 91.1412 637.878 94.1383 641.699 94.1383C645.52 94.1383 646.569 91.1412 646.569 87.17C646.569 83.2737 645.52 80.2766 641.699 80.2766C637.878 80.2766 636.829 83.2737 636.829 87.17ZM644.471 87.17C644.471 89.8487 644.19 92.1902 641.699 92.1902C639.208 92.1902 638.927 89.8487 638.927 87.17C638.927 84.6224 639.208 82.2247 641.699 82.2247C644.19 82.2247 644.471 84.6224 644.471 87.17ZM648.454 80.5763V82.3933H655.385L650.121 94.1758H652.276L657.483 82.1685V80.5763H648.454Z" fill="#212832"/>
<path d="M947.651 86.9942C947.651 90.9654 948.7 93.9625 952.521 93.9625C956.343 93.9625 957.392 90.9654 957.392 86.9942C957.392 83.0979 956.343 80.1008 952.521 80.1008C948.7 80.1008 947.651 83.0979 947.651 86.9942ZM955.294 86.9942C955.294 89.6729 955.013 92.0144 952.521 92.0144C950.03 92.0144 949.749 89.6729 949.749 86.9942C949.749 84.4466 950.03 82.0489 952.521 82.0489C955.013 82.0489 955.294 84.4466 955.294 86.9942ZM961.955 86.8631C960.588 87.3688 959.67 88.5864 959.67 90.2349C959.67 92.7262 961.693 94.3372 964.503 94.3372C967.332 94.3372 969.355 92.7262 969.355 90.2349C969.355 88.6052 968.437 87.3876 967.051 86.8631C968.156 86.3198 968.999 85.2521 968.999 83.791C968.999 81.8242 967.519 80.1008 964.503 80.1008C961.487 80.1008 960.007 81.8054 960.007 83.791C960.007 85.3083 960.794 86.2824 961.955 86.8631ZM964.503 86.1887C963.079 86.1887 962.068 85.3083 962.068 84.072C962.068 82.6296 963.042 81.8803 964.503 81.8803C966.002 81.8803 966.957 82.6484 966.957 84.0533C966.957 85.2896 965.927 86.1887 964.503 86.1887ZM964.503 87.7997C966.114 87.7997 967.257 88.6239 967.257 90.1599C967.257 91.5274 966.226 92.5576 964.503 92.5576C962.761 92.5576 961.712 91.5461 961.712 90.1599C961.712 88.5677 962.929 87.7997 964.503 87.7997Z" fill="#212832"/>
<defs>
<filter id="filter0_d_585_8346" x="23.5312" y="1.53174" width="267.938" height="47.9365" filterUnits="userSpaceOnUse" color-interpolation-filters="sRGB">
<feFlood flood-opacity="0" result="BackgroundImageFix"/>
<feColorMatrix in="SourceAlpha" type="matrix" values="0 0 0 0 0 0 0 0 0 0 0 0 0 0 0 0 0 0 127 0" result="hardAlpha"/>
<feOffset/>
<feComposite in2="hardAlpha" operator="out"/>
<feColorMatrix type="matrix" values="0 0 0 0 0 0 0 0 0 0 0 0 0 0 0 0 0 0 0.1 0"/>
<feBlend mode="normal" in2="BackgroundImageFix" result="effect1_dropShadow_585_8346"/>
<feBlend mode="normal" in="SourceGraphic" in2="effect1_dropShadow_585_8346" result="shape"/>
</filter>
<filter id="filter1_d_585_8346" x="23.5312" y="63.5317" width="267.938" height="47.9365" filterUnits="userSpaceOnUse" color-interpolation-filters="sRGB">
<feFlood flood-opacity="0" result="BackgroundImageFix"/>
<feColorMatrix in="SourceAlpha" type="matrix" values="0 0 0 0 0 0 0 0 0 0 0 0 0 0 0 0 0 0 127 0" result="hardAlpha"/>
<feOffset/>
<feComposite in2="hardAlpha" operator="out"/>
<feColorMatrix type="matrix" values="0 0 0 0 0 0 0 0 0 0 0 0 0 0 0 0 0 0 0.1 0"/>
<feBlend mode="normal" in2="BackgroundImageFix" result="effect1_dropShadow_585_8346"/>
<feBlend mode="normal" in="SourceGraphic" in2="effect1_dropShadow_585_8346" result="shape"/>
</filter>
<filter id="filter2_d_585_8346" x="957.531" y="0.531738" width="267.938" height="47.9365" filterUnits="userSpaceOnUse" color-interpolation-filters="sRGB">
<feFlood flood-opacity="0" result="BackgroundImageFix"/>
<feColorMatrix in="SourceAlpha" type="matrix" values="0 0 0 0 0 0 0 0 0 0 0 0 0 0 0 0 0 0 127 0" result="hardAlpha"/>
<feOffset/>
<feComposite in2="hardAlpha" operator="out"/>
<feColorMatrix type="matrix" values="0 0 0 0 0 0 0 0 0 0 0 0 0 0 0 0 0 0 0.1 0"/>
<feBlend mode="normal" in2="BackgroundImageFix" result="effect1_dropShadow_585_8346"/>
<feBlend mode="normal" in="SourceGraphic" in2="effect1_dropShadow_585_8346" result="shape"/>
</filter>
<filter id="filter3_d_585_8346" x="335.531" y="1.53174" width="267.938" height="47.9365" filterUnits="userSpaceOnUse" color-interpolation-filters="sRGB">
<feFlood flood-opacity="0" result="BackgroundImageFix"/>
<feColorMatrix in="SourceAlpha" type="matrix" values="0 0 0 0 0 0 0 0 0 0 0 0 0 0 0 0 0 0 127 0" result="hardAlpha"/>
<feOffset/>
<feComposite in2="hardAlpha" operator="out"/>
<feColorMatrix type="matrix" values="0 0 0 0 0 0 0 0 0 0 0 0 0 0 0 0 0 0 0.1 0"/>
<feBlend mode="normal" in2="BackgroundImageFix" result="effect1_dropShadow_585_8346"/>
<feBlend mode="normal" in="SourceGraphic" in2="effect1_dropShadow_585_8346" result="shape"/>
</filter>
<filter id="filter4_d_585_8346" x="335.531" y="63.5317" width="267.938" height="47.9365" filterUnits="userSpaceOnUse" color-interpolation-filters="sRGB">
<feFlood flood-opacity="0" result="BackgroundImageFix"/>
<feColorMatrix in="SourceAlpha" type="matrix" values="0 0 0 0 0 0 0 0 0 0 0 0 0 0 0 0 0 0 127 0" result="hardAlpha"/>
<feOffset/>
<feComposite in2="hardAlpha" operator="out"/>
<feColorMatrix type="matrix" values="0 0 0 0 0 0 0 0 0 0 0 0 0 0 0 0 0 0 0.1 0"/>
<feBlend mode="normal" in2="BackgroundImageFix" result="effect1_dropShadow_585_8346"/>
<feBlend mode="normal" in="SourceGraphic" in2="effect1_dropShadow_585_8346" result="shape"/>
</filter>
<filter id="filter5_d_585_8346" x="646.531" y="1.53174" width="267.938" height="47.9365" filterUnits="userSpaceOnUse" color-interpolation-filters="sRGB">
<feFlood flood-opacity="0" result="BackgroundImageFix"/>
<feColorMatrix in="SourceAlpha" type="matrix" values="0 0 0 0 0 0 0 0 0 0 0 0 0 0 0 0 0 0 127 0" result="hardAlpha"/>
<feOffset/>
<feComposite in2="hardAlpha" operator="out"/>
<feColorMatrix type="matrix" values="0 0 0 0 0 0 0 0 0 0 0 0 0 0 0 0 0 0 0.1 0"/>
<feBlend mode="normal" in2="BackgroundImageFix" result="effect1_dropShadow_585_8346"/>
<feBlend mode="normal" in="SourceGraphic" in2="effect1_dropShadow_585_8346" result="shape"/>
</filter>
<filter id="filter6_d_585_8346" x="651.531" y="63.5317" width="262.938" height="47.9365" filterUnits="userSpaceOnUse" color-interpolation-filters="sRGB">
<feFlood flood-opacity="0" result="BackgroundImageFix"/>
<feColorMatrix in="SourceAlpha" type="matrix" values="0 0 0 0 0 0 0 0 0 0 0 0 0 0 0 0 0 0 127 0" result="hardAlpha"/>
<feOffset/>
<feComposite in2="hardAlpha" operator="out"/>
<feColorMatrix type="matrix" values="0 0 0 0 0 0 0 0 0 0 0 0 0 0 0 0 0 0 0.1 0"/>
<feBlend mode="normal" in2="BackgroundImageFix" result="effect1_dropShadow_585_8346"/>
<feBlend mode="normal" in="SourceGraphic" in2="effect1_dropShadow_585_8346" result="shape"/>
</filter>
<filter id="filter7_d_585_8346" x="957.531" y="63.5317" width="267.938" height="47.9365" filterUnits="userSpaceOnUse" color-interpolation-filters="sRGB">
<feFlood flood-opacity="0" result="BackgroundImageFix"/>
<feColorMatrix in="SourceAlpha" type="matrix" values="0 0 0 0 0 0 0 0 0 0 0 0 0 0 0 0 0 0 127 0" result="hardAlpha"/>
<feOffset/>
<feComposite in2="hardAlpha" operator="out"/>
<feColorMatrix type="matrix" values="0 0 0 0 0 0 0 0 0 0 0 0 0 0 0 0 0 0 0.1 0"/>
<feBlend mode="normal" in2="BackgroundImageFix" result="effect1_dropShadow_585_8346"/>
<feBlend mode="normal" in="SourceGraphic" in2="effect1_dropShadow_585_8346" result="shape"/>
</filter>
</defs>
</svg>
