<?xml version="1.0" encoding="utf-8"?>
<!-- Generator: Adobe Illustrator 24.1.1, SVG Export Plug-In . SVG Version: 6.00 Build 0)  -->
<svg version="1.1" id="Layer_1" xmlns="http://www.w3.org/2000/svg" xmlns:xlink="http://www.w3.org/1999/xlink" x="0px" y="0px"
	 viewBox="0 0 791 1080" style="enable-background:new 0 0 791 1080;" xml:space="preserve">
<style type="text/css">
	.st0{fill:#003C92;}
	.st1{fill:#327EED;}
</style>
<g>
	<path class="st0" d="M668.1,340.9c-52.2-30.5-114.6-39.6-175.1-37.8c-57.1,1.7-115.2,13.1-164.5,42.1
		c-31.9,18.9-59.7,45.5-78.2,77.7c-20.4,35.5-23.9,73.8-23.9,113.6c0.3,112.1,0.7,224.2,0.9,336.2c0,0.2,0,0.3,0,0.5
		c-0.2,7.7-0.5,15.5-1,23.2v0.5c-0.6,11.1-1.7,22.3-3,33.5c-3.1,25.4-9.9,50.1-24.3,73c0,0.1-0.1,0.1-0.1,0.1
		c-0.3,0.5-0.6,1.1-0.9,1.6c-0.2,0.4-0.5,0.7-0.7,1.1c-15.9,24.1-39.4,41.1-72.1,49.6c-3,0.8-6.2,1.5-9.3,2.2
		c0.1,0.3,0.3,0.6,0.4,0.9h10c54.4-0.7,107.9-4.3,159-22.1c40.1-14,71-35.4,91.4-66.3c5.5-8.3,9.9-16.9,13.4-25.7
		c2.4-4.6,4.5-9.3,6.2-14.3c2.9-8.6,4.5-17.5,5.5-26.5c0-0.2,0-0.4,0.1-0.7c1.1-11.3,1.2-22.8,1.1-34.1c-0.1-64.5-0.2-129-0.4-193.6
		v-9.4c-0.1-50.4-0.2-100.8-0.4-151.3c0-14.9-0.1-29.6-0.1-44.5c0-17,0.1-34.6,6-50.5c9.5-25.3,32.4-43.2,56.6-55.2
		c54.5-26.9,120.5-29.4,176.7-6.5c56.3,22.9,101.9,70.8,122.1,128C760.9,426,720.3,371.5,668.1,340.9z"/>
	<path class="st1" d="M84.8,225c31.8,1.4,62,2.7,92,4.1c8,0.4,18.1-1.4,23.4,2.8c4.9,3.9,4.8,14.3,6.6,21.8
		c8.6,35.3,17.1,70.7,25.6,106.1c0.7,3,1.4,5.9,2.1,8.8c1-0.1,1.8,0,2-0.2c21.3-27.9,49.9-46.3,81.3-60.4
		c64.7-29.2,132.6-45.5,203.8-47c28.3-0.6,55.2,6.2,81.7,21.4c-1.1-4.7-1.8-7.6-2.5-10.5c-9.8-40.8-19.5-81.6-29.7-122.4
		c-1.7-6.9,0.1-9.7,6-12.8c60.5-32,120.9-64.3,181.3-96.6c1.2-0.6,2.3-1.3,5.2-3c-4.3-0.5-6.9-0.9-9.4-1C620.1,31.1,486.1,26,352,21
		c-4.5-0.2-9.7,0.6-13.4,2.8C228.1,87.9,117.8,152.2,7.5,216.4c-1.7,1-3.2,2.1-7,4.5c5.6,0.3,8.9,0.5,12.3,0.7
		c17.9,0.8,35.7,1.9,53.6,2.3c5.5,0.1,7.7,2.1,8.9,7.4c4.5,20.2,9.7,40.3,14.3,60.4c0.6,2.4,0,6.4-1.7,7.9
		c-22,20.1-17.2,44.3,11.7,54.1c-1.2,43.1-2.3,86.4-3.5,129.8c8,1.1,11.4-2.5,13.5-9c2.8-8.9,6.4-17.6,10.5-28.5
		c4.3,11.1,7.8,20.1,11.4,29.5c13.4-3.2,26.3-6.3,40.2-9.7c-9.4-20.8-18.5-41.1-27.6-61.3c-7.6-16.8-15.4-33.5-22.6-50.5
		c-0.9-2.2-0.1-6.5,1.6-8.3c8.5-9,11.3-19.2,7.4-30.9c-3.8-11.1-12.1-16.9-23.4-19.3c-2.2-0.5-5.4-2.4-5.9-4.2
		C95.5,269.8,90.3,248.1,84.8,225z"/>
	<path class="st0" d="M230.8,958.2"/>
</g>
</svg>
