<svg width="617" height="400" viewBox="0 0 617 400" fill="none" xmlns="http://www.w3.org/2000/svg">
<rect width="617" height="58" fill="#3498DB"/>
<path d="M33.925 32.95C33.925 26.8 24.975 28.75 24.975 25.25C24.975 23.825 26 23.15 27.375 23.2C28.875 23.225 29.8 24.125 29.875 25.275H33.725C33.5 22.125 31.05 20.3 27.475 20.3C23.875 20.3 21.325 22.2 21.325 25.35C21.3 31.675 30.3 29.4 30.3 33.175C30.3 34.425 29.325 35.3 27.675 35.3C26.05 35.3 25.125 34.375 25.025 32.975H21.275C21.325 36.275 24.125 38.175 27.75 38.175C31.725 38.175 33.925 35.7 33.925 32.95ZM43.4094 26.8C45.2094 26.8 46.6594 27.95 46.7094 29.775H40.1344C40.4094 27.875 41.7344 26.8 43.4094 26.8ZM49.9844 33.65H46.2094C45.7594 34.575 44.9344 35.325 43.4344 35.325C41.6844 35.325 40.2844 34.175 40.1094 32.125H50.2344C50.3094 31.675 50.3344 31.225 50.3344 30.775C50.3344 26.65 47.5094 23.925 43.5094 23.925C39.4094 23.925 36.5594 26.7 36.5594 31.075C36.5594 35.425 39.4844 38.225 43.5094 38.225C46.9344 38.225 49.2344 36.2 49.9844 33.65ZM72.7641 38H76.2641V29.875C76.2641 26.05 73.9141 23.95 70.5891 23.95C68.5641 23.95 66.7391 25.025 65.8391 26.6C64.8891 24.875 63.1141 23.95 60.9641 23.95C59.2391 23.95 57.7641 24.675 56.8891 25.825V24.15H53.3891V38H56.8891V30.35C56.8891 28.15 58.1141 27 60.0141 27C61.8641 27 63.0891 28.15 63.0891 30.35V38H66.5891V30.35C66.5891 28.15 67.8141 27 69.6891 27C71.5391 27 72.7641 28.15 72.7641 30.35V38ZM86.0354 26.8C87.8354 26.8 89.2854 27.95 89.3354 29.775H82.7604C83.0354 27.875 84.3604 26.8 86.0354 26.8ZM92.6104 33.65H88.8354C88.3854 34.575 87.5604 35.325 86.0604 35.325C84.3104 35.325 82.9104 34.175 82.7354 32.125H92.8604C92.9354 31.675 92.9604 31.225 92.9604 30.775C92.9604 26.65 90.1354 23.925 86.1354 23.925C82.0354 23.925 79.1854 26.7 79.1854 31.075C79.1854 35.425 82.1104 38.225 86.1354 38.225C89.5604 38.225 91.8604 36.2 92.6104 33.65ZM106.765 34.05C106.665 28.975 98.99 30.55 98.99 28.025C98.99 27.225 99.665 26.7 100.965 26.7C102.34 26.7 103.19 27.425 103.29 28.5H106.64C106.44 25.75 104.415 23.925 101.065 23.925C97.64 23.925 95.59 25.775 95.59 28.075C95.59 33.15 103.415 31.575 103.415 34.05C103.415 34.85 102.665 35.475 101.29 35.475C99.89 35.475 98.915 34.675 98.79 33.625H95.265C95.415 36.2 97.84 38.225 101.315 38.225C104.69 38.225 106.765 36.425 106.765 34.05ZM110.688 33.7C110.688 36.875 112.463 38 115.113 38H117.313V35.05H115.688C114.588 35.05 114.213 34.65 114.213 33.725V27.025H117.313V24.15H114.213V20.725H110.688V24.15H109.038V27.025H110.688V33.7ZM126.28 26.8C128.08 26.8 129.53 27.95 129.58 29.775H123.005C123.28 27.875 124.605 26.8 126.28 26.8ZM132.855 33.65H129.08C128.63 34.575 127.805 35.325 126.305 35.325C124.555 35.325 123.155 34.175 122.98 32.125H133.105C133.18 31.675 133.205 31.225 133.205 30.775C133.205 26.65 130.38 23.925 126.38 23.925C122.28 23.925 119.43 26.7 119.43 31.075C119.43 35.425 122.355 38.225 126.38 38.225C129.805 38.225 132.105 36.2 132.855 33.65ZM139.76 31.1C139.76 28.425 141.01 27.625 143.085 27.625H144.01V23.95C142.085 23.95 140.635 24.875 139.76 26.3V24.15H136.26V38H139.76V31.1ZM154.925 38H158.525V19.775H152.5V23H154.925V38Z" fill="white"/>
<rect y="65" width="617" height="50" fill="white"/>
<path d="M24.6 93.44C26.08 93.44 27.24 92.3 27.24 90.84C27.24 89.36 26.08 88.22 24.6 88.22C23.16 88.22 22 89.36 22 90.84C22 92.3 23.16 93.44 24.6 93.44ZM47.4689 83.42C43.5489 83.42 40.3689 86.36 40.3689 90.52C40.3689 94.7 43.5489 97.62 47.4689 97.62C51.2089 97.62 53.9289 94.88 54.3489 91.66V89.88H46.6889V91.7H51.9089C51.5689 94.04 49.9889 95.56 47.4689 95.56C44.7089 95.56 42.7089 93.58 42.7089 90.52C42.7089 87.46 44.7089 85.5 47.4689 85.5C49.1289 85.5 50.4489 86.2 51.1889 87.6H53.9289C52.8689 84.88 50.3689 83.42 47.4689 83.42ZM58.8777 91.7C58.8777 89.36 59.9177 88.66 61.5977 88.66H62.1777V86.3C60.6177 86.3 59.5177 86.98 58.8777 88.08V86.48H56.5977V97.5H58.8777V91.7ZM63.5134 91.94C63.5134 95.34 65.8134 97.68 68.6734 97.68C70.5134 97.68 71.8334 96.8 72.5334 95.86V97.5H74.8334V86.48H72.5334V88.08C71.8534 87.18 70.5734 86.3 68.7134 86.3C65.8134 86.3 63.5134 88.54 63.5134 91.94ZM72.5334 91.98C72.5334 94.36 70.9134 95.7 69.1934 95.7C67.4934 95.7 65.8534 94.32 65.8534 91.94C65.8534 89.56 67.4934 88.28 69.1934 88.28C70.9134 88.28 72.5334 89.62 72.5334 91.98ZM80.1081 88.1V86.48H77.8281V102.74H80.1081V95.9C80.8281 96.76 82.1281 97.68 83.9481 97.68C86.8481 97.68 89.1281 95.34 89.1281 91.94C89.1281 88.54 86.8481 86.3 83.9481 86.3C82.1481 86.3 80.8081 87.18 80.1081 88.1ZM86.8081 91.94C86.8081 94.32 85.1681 95.7 83.4481 95.7C81.7481 95.7 80.1081 94.36 80.1081 91.98C80.1081 89.62 81.7481 88.28 83.4481 88.28C85.1681 88.28 86.8081 89.56 86.8081 91.94ZM91.3828 97.5H93.6628V91.34C93.6628 89.32 94.7628 88.28 96.4428 88.28C98.1028 88.28 99.2028 89.32 99.2028 91.34V97.5H101.463V91C101.463 87.92 99.5428 86.3 97.0828 86.3C95.6628 86.3 94.4228 86.84 93.6628 87.76V82.7H91.3828V97.5ZM108.846 85.46H112.566V97.5H114.846V85.46H118.546V83.6H108.846V85.46ZM120.855 97.5H123.135V91.34C123.135 89.32 124.235 88.28 125.915 88.28C127.575 88.28 128.675 89.32 128.675 91.34V97.5H130.935V91C130.935 87.92 129.015 86.3 126.555 86.3C125.135 86.3 123.895 86.84 123.135 87.76V82.7H120.855V97.5ZM138.484 88.22C140.184 88.22 141.524 89.3 141.564 91H135.464C135.704 89.26 136.944 88.22 138.484 88.22ZM143.644 94.22H141.184C140.764 95.08 139.984 95.76 138.584 95.76C136.904 95.76 135.604 94.66 135.444 92.84H143.864C143.924 92.46 143.944 92.1 143.944 91.72C143.944 88.48 141.724 86.3 138.584 86.3C135.324 86.3 133.084 88.52 133.084 91.98C133.084 95.44 135.424 97.68 138.584 97.68C141.284 97.68 143.024 96.14 143.644 94.22ZM156.688 91.98C156.688 88.52 154.208 86.3 151.068 86.3C147.928 86.3 145.448 88.52 145.448 91.98C145.448 95.44 147.828 97.68 150.968 97.68C154.128 97.68 156.688 95.44 156.688 91.98ZM147.768 91.98C147.768 89.48 149.308 88.28 151.028 88.28C152.728 88.28 154.348 89.48 154.348 91.98C154.348 94.48 152.668 95.7 150.968 95.7C149.248 95.7 147.768 94.48 147.768 91.98ZM161.221 91.7C161.221 89.36 162.261 88.66 163.941 88.66H164.521V86.3C162.961 86.3 161.861 86.98 161.221 88.08V86.48H158.941V97.5H161.221V91.7ZM170.957 94.88L167.857 86.48H165.317L169.657 97.32L167.417 102.68H169.777L176.537 86.48H174.177L170.957 94.88ZM182.693 91.94C182.693 95.34 184.993 97.68 187.853 97.68C189.693 97.68 191.013 96.8 191.713 95.86V97.5H194.013V86.48H191.713V88.08C191.033 87.18 189.753 86.3 187.893 86.3C184.993 86.3 182.693 88.54 182.693 91.94ZM191.713 91.98C191.713 94.36 190.093 95.7 188.373 95.7C186.673 95.7 185.033 94.32 185.033 91.94C185.033 89.56 186.673 88.28 188.373 88.28C190.093 88.28 191.713 89.62 191.713 91.98ZM204.828 97.5H207.088V91C207.088 87.92 205.148 86.3 202.568 86.3C201.248 86.3 200.028 86.84 199.288 87.74V86.48H197.008V97.5H199.288V91.34C199.288 89.32 200.388 88.28 202.068 88.28C203.728 88.28 204.828 89.32 204.828 91.34V97.5ZM209.236 91.94C209.236 95.34 211.536 97.68 214.436 97.68C216.236 97.68 217.556 96.84 218.256 95.84V97.5H220.556V82.7H218.256V88.02C217.416 86.98 215.896 86.3 214.456 86.3C211.536 86.3 209.236 88.54 209.236 91.94ZM218.256 91.98C218.256 94.36 216.636 95.7 214.916 95.7C213.216 95.7 211.576 94.32 211.576 91.94C211.576 89.56 213.216 88.28 214.916 88.28C216.636 88.28 218.256 89.62 218.256 91.98ZM227.986 90.52C227.986 94.7 231.166 97.62 235.086 97.62C237.986 97.62 240.486 96.18 241.546 93.46H238.806C238.066 94.94 236.746 95.64 235.086 95.64C232.326 95.64 230.326 93.66 230.326 90.52C230.326 87.38 232.326 85.42 235.086 85.42C236.746 85.42 238.066 86.12 238.806 87.6H241.546C240.486 84.88 237.986 83.42 235.086 83.42C231.166 83.42 227.986 86.36 227.986 90.52ZM254.715 91.98C254.715 88.52 252.235 86.3 249.095 86.3C245.955 86.3 243.475 88.52 243.475 91.98C243.475 95.44 245.855 97.68 248.995 97.68C252.155 97.68 254.715 95.44 254.715 91.98ZM245.795 91.98C245.795 89.48 247.335 88.28 249.055 88.28C250.755 88.28 252.375 89.48 252.375 91.98C252.375 94.48 250.695 95.7 248.995 95.7C247.275 95.7 245.795 94.48 245.795 91.98ZM272.589 97.5H274.849V91C274.849 87.92 272.889 86.3 270.309 86.3C268.709 86.3 267.149 87.14 266.469 88.48C265.709 87.04 264.249 86.3 262.509 86.3C261.189 86.3 259.989 86.84 259.249 87.74V86.48H256.969V97.5H259.249V91.34C259.249 89.32 260.349 88.28 262.029 88.28C263.689 88.28 264.789 89.32 264.789 91.34V97.5H267.049V91.34C267.049 89.32 268.149 88.28 269.829 88.28C271.489 88.28 272.589 89.32 272.589 91.34V97.5ZM280.03 88.12V82.7H277.75V97.5H280.03V95.9C280.75 96.86 282.05 97.68 283.87 97.68C286.77 97.68 289.05 95.34 289.05 91.94C289.05 88.54 286.79 86.3 283.87 86.3C282.13 86.3 280.75 87.12 280.03 88.12ZM286.73 91.94C286.73 94.32 285.09 95.7 283.37 95.7C281.67 95.7 280.03 94.36 280.03 91.98C280.03 89.62 281.67 88.28 283.37 88.28C285.09 88.28 286.73 89.56 286.73 91.94ZM291.305 97.5H293.585V86.48H291.305V97.5ZM292.465 85.02C293.265 85.02 293.905 84.38 293.905 83.56C293.905 82.74 293.265 82.1 292.465 82.1C291.645 82.1 291.005 82.74 291.005 83.56C291.005 84.38 291.645 85.02 292.465 85.02ZM304.398 97.5H306.658V91C306.658 87.92 304.718 86.3 302.138 86.3C300.818 86.3 299.598 86.84 298.858 87.74V86.48H296.578V97.5H298.858V91.34C298.858 89.32 299.958 88.28 301.638 88.28C303.298 88.28 304.398 89.32 304.398 91.34V97.5ZM308.806 91.94C308.806 95.34 311.106 97.68 313.966 97.68C315.806 97.68 317.126 96.8 317.826 95.86V97.5H320.126V86.48H317.826V88.08C317.146 87.18 315.866 86.3 314.006 86.3C311.106 86.3 308.806 88.54 308.806 91.94ZM317.826 91.98C317.826 94.36 316.206 95.7 314.486 95.7C312.786 95.7 311.146 94.32 311.146 91.94C311.146 89.56 312.786 88.28 314.486 88.28C316.206 88.28 317.826 89.62 317.826 91.98ZM323.481 94.44C323.481 96.68 324.701 97.5 326.661 97.5H328.461V95.6H327.061C326.101 95.6 325.781 95.26 325.781 94.44V88.34H328.461V86.48H325.781V83.74H323.481V86.48H322.181V88.34H323.481V94.44ZM341.063 91.98C341.063 88.52 338.583 86.3 335.443 86.3C332.303 86.3 329.823 88.52 329.823 91.98C329.823 95.44 332.203 97.68 335.343 97.68C338.503 97.68 341.063 95.44 341.063 91.98ZM332.143 91.98C332.143 89.48 333.683 88.28 335.403 88.28C337.103 88.28 338.723 89.48 338.723 91.98C338.723 94.48 337.043 95.7 335.343 95.7C333.623 95.7 332.143 94.48 332.143 91.98ZM345.596 91.7C345.596 89.36 346.636 88.66 348.316 88.66H348.896V86.3C347.336 86.3 346.236 86.98 345.596 88.08V86.48H343.316V97.5H345.596V91.7ZM350.992 97.5H353.272V86.48H350.992V97.5ZM352.152 85.02C352.952 85.02 353.592 84.38 353.592 83.56C353.592 82.74 352.952 82.1 352.152 82.1C351.332 82.1 350.692 82.74 350.692 83.56C350.692 84.38 351.332 85.02 352.152 85.02ZM355.506 91.98C355.506 95.44 357.746 97.68 360.906 97.68C363.606 97.68 365.366 96.18 365.986 94.02H363.526C363.106 95.16 362.266 95.76 360.906 95.76C359.066 95.76 357.846 94.4 357.846 91.98C357.846 89.58 359.066 88.22 360.906 88.22C362.266 88.22 363.146 88.9 363.526 89.96H365.986C365.366 87.64 363.606 86.3 360.906 86.3C357.746 86.3 355.506 88.54 355.506 91.98ZM376.478 94.42C376.358 90.44 370.138 91.68 370.138 89.46C370.138 88.72 370.778 88.22 371.998 88.22C373.238 88.22 373.978 88.88 374.058 89.84H376.338C376.218 87.64 374.578 86.3 372.078 86.3C369.478 86.3 367.838 87.72 367.838 89.48C367.838 93.52 374.238 92.28 374.238 94.44C374.238 95.2 373.538 95.76 372.218 95.76C370.958 95.76 370.098 95.02 370.018 94.12H367.658C367.758 96.12 369.618 97.68 372.258 97.68C374.858 97.68 376.478 96.28 376.478 94.42Z" fill="#212832"/>
<rect x="0.5" y="65.5" width="616" height="49" stroke="black" stroke-opacity="0.5"/>
<rect y="179" width="617" height="50" fill="white"/>
<path d="M24.6 207.44C26.08 207.44 27.24 206.3 27.24 204.84C27.24 203.36 26.08 202.22 24.6 202.22C23.16 202.22 22 203.36 22 204.84C22 206.3 23.16 207.44 24.6 207.44ZM40.3689 204.52C40.3689 208.7 43.5489 211.62 47.4689 211.62C50.3689 211.62 52.8689 210.18 53.9289 207.46H51.1889C50.4489 208.94 49.1289 209.64 47.4689 209.64C44.7089 209.64 42.7089 207.66 42.7089 204.52C42.7089 201.38 44.7089 199.42 47.4689 199.42C49.1289 199.42 50.4489 200.12 51.1889 201.6H53.9289C52.8689 198.88 50.3689 197.42 47.4689 197.42C43.5489 197.42 40.3689 200.36 40.3689 204.52ZM67.0977 205.98C67.0977 202.52 64.6177 200.3 61.4777 200.3C58.3377 200.3 55.8577 202.52 55.8577 205.98C55.8577 209.44 58.2377 211.68 61.3777 211.68C64.5377 211.68 67.0977 209.44 67.0977 205.98ZM58.1777 205.98C58.1777 203.48 59.7177 202.28 61.4377 202.28C63.1377 202.28 64.7577 203.48 64.7577 205.98C64.7577 208.48 63.0777 209.7 61.3777 209.7C59.6577 209.7 58.1777 208.48 58.1777 205.98ZM71.6316 205.7C71.6316 203.36 72.6716 202.66 74.3516 202.66H74.9316V200.3C73.3716 200.3 72.2716 200.98 71.6316 202.08V200.48H69.3516V211.5H71.6316V205.7ZM81.6673 202.22C83.3673 202.22 84.7073 203.3 84.7473 205H78.6473C78.8873 203.26 80.1273 202.22 81.6673 202.22ZM86.8273 208.22H84.3673C83.9473 209.08 83.1673 209.76 81.7673 209.76C80.0873 209.76 78.7873 208.66 78.6273 206.84H87.0473C87.1073 206.46 87.1273 206.1 87.1273 205.72C87.1273 202.48 84.9073 200.3 81.7673 200.3C78.5073 200.3 76.2673 202.52 76.2673 205.98C76.2673 209.44 78.6073 211.68 81.7673 211.68C84.4673 211.68 86.2073 210.14 86.8273 208.22ZM99.8464 207.62C99.8464 208.78 99.2664 209.62 98.0464 209.62C96.8264 209.62 96.2664 208.78 96.2464 207.62H93.9464C93.9464 210.14 95.6464 211.64 98.0464 211.64C100.446 211.64 102.146 210.14 102.146 207.62V197.6H99.8464V207.62ZM105.095 205.94C105.095 209.34 107.395 211.68 110.255 211.68C112.095 211.68 113.415 210.8 114.115 209.86V211.5H116.415V200.48H114.115V202.08C113.435 201.18 112.155 200.3 110.295 200.3C107.395 200.3 105.095 202.54 105.095 205.94ZM114.115 205.98C114.115 208.36 112.495 209.7 110.775 209.7C109.075 209.7 107.435 208.32 107.435 205.94C107.435 203.56 109.075 202.28 110.775 202.28C112.495 202.28 114.115 203.62 114.115 205.98ZM118.11 200.48L122.29 211.5H125.01L129.21 200.48H126.79L123.67 209.46L120.55 200.48H118.11ZM130.174 205.94C130.174 209.34 132.474 211.68 135.334 211.68C137.174 211.68 138.494 210.8 139.194 209.86V211.5H141.494V200.48H139.194V202.08C138.514 201.18 137.234 200.3 135.374 200.3C132.474 200.3 130.174 202.54 130.174 205.94ZM139.194 205.98C139.194 208.36 137.574 209.7 135.854 209.7C134.154 209.7 132.514 208.32 132.514 205.94C132.514 203.56 134.154 202.28 135.854 202.28C137.574 202.28 139.194 203.62 139.194 205.98Z" fill="#212832"/>
<rect x="0.5" y="179.5" width="616" height="49" stroke="black" stroke-opacity="0.5"/>
<rect y="122" width="617" height="50" fill="white"/>
<path d="M24.6 150.44C26.08 150.44 27.24 149.3 27.24 147.84C27.24 146.36 26.08 145.22 24.6 145.22C23.16 145.22 22 146.36 22 147.84C22 149.3 23.16 150.44 24.6 150.44ZM50.5089 154.5H52.9089L47.9289 140.58H45.2889L40.3089 154.5H42.6889L43.6889 151.66H49.5089L50.5089 154.5ZM48.8689 149.8H44.3289L46.6089 143.34L48.8689 149.8ZM54.3142 148.94C54.3142 152.34 56.6142 154.68 59.5142 154.68C61.3142 154.68 62.6342 153.84 63.3342 152.84V154.5H65.6342V139.7H63.3342V145.02C62.4942 143.98 60.9742 143.3 59.5342 143.3C56.6142 143.3 54.3142 145.54 54.3142 148.94ZM63.3342 148.98C63.3342 151.36 61.7142 152.7 59.9942 152.7C58.2942 152.7 56.6542 151.32 56.6542 148.94C56.6542 146.56 58.2942 145.28 59.9942 145.28C61.7142 145.28 63.3342 146.62 63.3342 148.98ZM67.3289 143.48L71.5089 154.5H74.2289L78.4289 143.48H76.0089L72.8889 152.46L69.7689 143.48H67.3289ZM79.3923 148.94C79.3923 152.34 81.6923 154.68 84.5523 154.68C86.3923 154.68 87.7123 153.8 88.4123 152.86V154.5H90.7123V143.48H88.4123V145.08C87.7323 144.18 86.4523 143.3 84.5923 143.3C81.6923 143.3 79.3923 145.54 79.3923 148.94ZM88.4123 148.98C88.4123 151.36 86.7923 152.7 85.0723 152.7C83.3723 152.7 81.7323 151.32 81.7323 148.94C81.7323 146.56 83.3723 145.28 85.0723 145.28C86.7923 145.28 88.4123 146.62 88.4123 148.98ZM101.527 154.5H103.787V148C103.787 144.92 101.847 143.3 99.267 143.3C97.947 143.3 96.727 143.84 95.987 144.74V143.48H93.707V154.5H95.987V148.34C95.987 146.32 97.087 145.28 98.767 145.28C100.427 145.28 101.527 146.32 101.527 148.34V154.5ZM105.935 148.98C105.935 152.44 108.175 154.68 111.335 154.68C114.035 154.68 115.795 153.18 116.415 151.02H113.955C113.535 152.16 112.695 152.76 111.335 152.76C109.495 152.76 108.275 151.4 108.275 148.98C108.275 146.58 109.495 145.22 111.335 145.22C112.695 145.22 113.575 145.9 113.955 146.96H116.415C115.795 144.64 114.035 143.3 111.335 143.3C108.175 143.3 105.935 145.54 105.935 148.98ZM123.328 145.22C125.028 145.22 126.368 146.3 126.408 148H120.308C120.548 146.26 121.788 145.22 123.328 145.22ZM128.487 151.22H126.028C125.608 152.08 124.828 152.76 123.428 152.76C121.748 152.76 120.448 151.66 120.288 149.84H128.708C128.768 149.46 128.788 149.1 128.788 148.72C128.788 145.48 126.568 143.3 123.428 143.3C120.168 143.3 117.928 145.52 117.928 148.98C117.928 152.44 120.268 154.68 123.428 154.68C126.128 154.68 127.868 153.14 128.487 151.22ZM130.271 148.94C130.271 152.34 132.571 154.68 135.471 154.68C137.271 154.68 138.591 153.84 139.291 152.84V154.5H141.591V139.7H139.291V145.02C138.451 143.98 136.931 143.3 135.491 143.3C132.571 143.3 130.271 145.54 130.271 148.94ZM139.291 148.98C139.291 151.36 137.671 152.7 135.951 152.7C134.251 152.7 132.611 151.32 132.611 148.94C132.611 146.56 134.251 145.28 135.951 145.28C137.671 145.28 139.291 146.62 139.291 148.98ZM154.321 140.6H149.781V154.5H154.321C158.781 154.5 161.701 151.88 161.701 147.6C161.701 143.3 158.781 140.6 154.321 140.6ZM152.061 152.64V142.46H154.321C157.601 142.46 159.361 144.42 159.361 147.6C159.361 150.76 157.601 152.64 154.321 152.64H152.061ZM163.201 148.94C163.201 152.34 165.501 154.68 168.361 154.68C170.201 154.68 171.521 153.8 172.221 152.86V154.5H174.521V143.48H172.221V145.08C171.541 144.18 170.261 143.3 168.401 143.3C165.501 143.3 163.201 145.54 163.201 148.94ZM172.221 148.98C172.221 151.36 170.601 152.7 168.881 152.7C167.181 152.7 165.541 151.32 165.541 148.94C165.541 146.56 167.181 145.28 168.881 145.28C170.601 145.28 172.221 146.62 172.221 148.98ZM177.876 151.44C177.876 153.68 179.096 154.5 181.056 154.5H182.856V152.6H181.456C180.496 152.6 180.176 152.26 180.176 151.44V145.34H182.856V143.48H180.176V140.74H177.876V143.48H176.576V145.34H177.876V151.44ZM184.197 148.94C184.197 152.34 186.497 154.68 189.357 154.68C191.197 154.68 192.517 153.8 193.217 152.86V154.5H195.517V143.48H193.217V145.08C192.537 144.18 191.257 143.3 189.397 143.3C186.497 143.3 184.197 145.54 184.197 148.94ZM193.217 148.98C193.217 151.36 191.597 152.7 189.877 152.7C188.177 152.7 186.537 151.32 186.537 148.94C186.537 146.56 188.177 145.28 189.877 145.28C191.597 145.28 193.217 146.62 193.217 148.98ZM200.792 145.12V139.7H198.512V154.5H200.792V152.9C201.512 153.86 202.812 154.68 204.632 154.68C207.532 154.68 209.812 152.34 209.812 148.94C209.812 145.54 207.552 143.3 204.632 143.3C202.892 143.3 201.512 144.12 200.792 145.12ZM207.492 148.94C207.492 151.32 205.852 152.7 204.132 152.7C202.432 152.7 200.792 151.36 200.792 148.98C200.792 146.62 202.432 145.28 204.132 145.28C205.852 145.28 207.492 146.56 207.492 148.94ZM211.306 148.94C211.306 152.34 213.606 154.68 216.466 154.68C218.306 154.68 219.626 153.8 220.326 152.86V154.5H222.626V143.48H220.326V145.08C219.646 144.18 218.366 143.3 216.506 143.3C213.606 143.3 211.306 145.54 211.306 148.94ZM220.326 148.98C220.326 151.36 218.706 152.7 216.986 152.7C215.286 152.7 213.646 151.32 213.646 148.94C213.646 146.56 215.286 145.28 216.986 145.28C218.706 145.28 220.326 146.62 220.326 148.98ZM233.841 151.42C233.721 147.44 227.501 148.68 227.501 146.46C227.501 145.72 228.141 145.22 229.361 145.22C230.601 145.22 231.341 145.88 231.421 146.84H233.701C233.581 144.64 231.941 143.3 229.441 143.3C226.841 143.3 225.201 144.72 225.201 146.48C225.201 150.52 231.601 149.28 231.601 151.44C231.601 152.2 230.901 152.76 229.581 152.76C228.321 152.76 227.461 152.02 227.381 151.12H225.021C225.121 153.12 226.981 154.68 229.621 154.68C232.221 154.68 233.841 153.28 233.841 151.42ZM240.945 145.22C242.645 145.22 243.985 146.3 244.025 148H237.925C238.165 146.26 239.405 145.22 240.945 145.22ZM246.105 151.22H243.645C243.225 152.08 242.445 152.76 241.045 152.76C239.365 152.76 238.065 151.66 237.905 149.84H246.325C246.385 149.46 246.405 149.1 246.405 148.72C246.405 145.48 244.185 143.3 241.045 143.3C237.785 143.3 235.545 145.52 235.545 148.98C235.545 152.44 237.885 154.68 241.045 154.68C243.745 154.68 245.485 153.14 246.105 151.22ZM253.844 154.5H256.124V144.98L260.384 154.5H261.964L266.204 144.98V154.5H268.484V140.6H266.044L261.184 151.5L256.304 140.6H253.844V154.5ZM270.72 148.94C270.72 152.34 273.02 154.68 275.88 154.68C277.72 154.68 279.04 153.8 279.74 152.86V154.5H282.04V143.48H279.74V145.08C279.06 144.18 277.78 143.3 275.92 143.3C273.02 143.3 270.72 145.54 270.72 148.94ZM279.74 148.98C279.74 151.36 278.12 152.7 276.4 152.7C274.7 152.7 273.06 151.32 273.06 148.94C273.06 146.56 274.7 145.28 276.4 145.28C278.12 145.28 279.74 146.62 279.74 148.98ZM292.855 154.5H295.115V148C295.115 144.92 293.175 143.3 290.595 143.3C289.275 143.3 288.055 143.84 287.315 144.74V143.48H285.035V154.5H287.315V148.34C287.315 146.32 288.415 145.28 290.095 145.28C291.755 145.28 292.855 146.32 292.855 148.34V154.5ZM297.263 148.94C297.263 152.34 299.563 154.68 302.423 154.68C304.263 154.68 305.583 153.8 306.283 152.86V154.5H308.583V143.48H306.283V145.08C305.603 144.18 304.323 143.3 302.463 143.3C299.563 143.3 297.263 145.54 297.263 148.94ZM306.283 148.98C306.283 151.36 304.663 152.7 302.943 152.7C301.243 152.7 299.603 151.32 299.603 148.94C299.603 146.56 301.243 145.28 302.943 145.28C304.663 145.28 306.283 146.62 306.283 148.98ZM310.818 148.94C310.818 152.34 313.118 154.68 316.018 154.68C317.818 154.68 319.138 153.78 319.838 152.84V154.68C319.838 156.88 318.518 157.96 316.758 157.96C315.178 157.96 313.958 157.18 313.618 156.04H311.358C311.638 158.48 313.818 159.94 316.758 159.94C320.198 159.94 322.138 157.68 322.138 154.68V143.48H319.838V145.08C319.158 144.14 317.818 143.3 316.018 143.3C313.118 143.3 310.818 145.54 310.818 148.94ZM319.838 148.98C319.838 151.36 318.218 152.7 316.498 152.7C314.798 152.7 313.158 151.32 313.158 148.94C313.158 146.56 314.798 145.28 316.498 145.28C318.218 145.28 319.838 146.62 319.838 148.98ZM329.773 145.22C331.473 145.22 332.813 146.3 332.853 148H326.753C326.993 146.26 328.233 145.22 329.773 145.22ZM334.933 151.22H332.473C332.053 152.08 331.273 152.76 329.873 152.76C328.193 152.76 326.893 151.66 326.733 149.84H335.153C335.213 149.46 335.233 149.1 335.233 148.72C335.233 145.48 333.013 143.3 329.873 143.3C326.613 143.3 324.373 145.52 324.373 148.98C324.373 152.44 326.713 154.68 329.873 154.68C332.573 154.68 334.313 153.14 334.933 151.22ZM353.097 154.5H355.357V148C355.357 144.92 353.397 143.3 350.817 143.3C349.217 143.3 347.657 144.14 346.977 145.48C346.217 144.04 344.757 143.3 343.017 143.3C341.697 143.3 340.497 143.84 339.757 144.74V143.48H337.477V154.5H339.757V148.34C339.757 146.32 340.857 145.28 342.537 145.28C344.197 145.28 345.297 146.32 345.297 148.34V154.5H347.557V148.34C347.557 146.32 348.657 145.28 350.337 145.28C351.997 145.28 353.097 146.32 353.097 148.34V154.5ZM362.898 145.22C364.598 145.22 365.938 146.3 365.978 148H359.878C360.118 146.26 361.358 145.22 362.898 145.22ZM368.058 151.22H365.598C365.178 152.08 364.398 152.76 362.998 152.76C361.318 152.76 360.018 151.66 359.858 149.84H368.278C368.338 149.46 368.358 149.1 368.358 148.72C368.358 145.48 366.138 143.3 362.998 143.3C359.738 143.3 357.498 145.52 357.498 148.98C357.498 152.44 359.838 154.68 362.998 154.68C365.698 154.68 367.438 153.14 368.058 151.22ZM378.422 154.5H380.682V148C380.682 144.92 378.742 143.3 376.162 143.3C374.842 143.3 373.622 143.84 372.882 144.74V143.48H370.602V154.5H372.882V148.34C372.882 146.32 373.982 145.28 375.662 145.28C377.322 145.28 378.422 146.32 378.422 148.34V154.5ZM383.95 151.44C383.95 153.68 385.17 154.5 387.13 154.5H388.93V152.6H387.53C386.57 152.6 386.25 152.26 386.25 151.44V145.34H388.93V143.48H386.25V140.74H383.95V143.48H382.65V145.34H383.95V151.44ZM405.607 150.56C405.607 145.48 398.247 147.44 398.247 144.3C398.247 142.96 399.267 142.32 400.587 142.36C402.027 142.4 402.847 143.26 402.927 144.2H405.447C405.247 141.82 403.367 140.42 400.707 140.42C397.867 140.42 395.927 141.94 395.927 144.38C395.927 149.5 403.307 147.32 403.307 150.68C403.307 151.86 402.407 152.72 400.807 152.72C399.227 152.72 398.427 151.8 398.327 150.66H395.887C395.887 153.12 398.027 154.64 400.807 154.64C403.907 154.64 405.607 152.64 405.607 150.56ZM412.637 151.88L409.537 143.48H406.997L411.337 154.32L409.097 159.68H411.457L418.217 143.48H415.857L412.637 151.88ZM428.158 151.42C428.038 147.44 421.818 148.68 421.818 146.46C421.818 145.72 422.458 145.22 423.678 145.22C424.918 145.22 425.658 145.88 425.738 146.84H428.018C427.898 144.64 426.258 143.3 423.758 143.3C421.158 143.3 419.518 144.72 419.518 146.48C419.518 150.52 425.918 149.28 425.918 151.44C425.918 152.2 425.218 152.76 423.898 152.76C422.638 152.76 421.778 152.02 421.698 151.12H419.338C419.438 153.12 421.298 154.68 423.938 154.68C426.538 154.68 428.158 153.28 428.158 151.42ZM430.981 151.44C430.981 153.68 432.201 154.5 434.161 154.5H435.961V152.6H434.561C433.601 152.6 433.281 152.26 433.281 151.44V145.34H435.961V143.48H433.281V140.74H430.981V143.48H429.681V145.34H430.981V151.44ZM442.703 145.22C444.403 145.22 445.743 146.3 445.783 148H439.683C439.923 146.26 441.163 145.22 442.703 145.22ZM447.862 151.22H445.403C444.983 152.08 444.203 152.76 442.803 152.76C441.123 152.76 439.823 151.66 439.663 149.84H448.083C448.143 149.46 448.163 149.1 448.163 148.72C448.163 145.48 445.943 143.3 442.803 143.3C439.543 143.3 437.303 145.52 437.303 148.98C437.303 152.44 439.643 154.68 442.803 154.68C445.503 154.68 447.243 153.14 447.862 151.22ZM466.026 154.5H468.286V148C468.286 144.92 466.326 143.3 463.746 143.3C462.146 143.3 460.586 144.14 459.906 145.48C459.146 144.04 457.686 143.3 455.946 143.3C454.626 143.3 453.426 143.84 452.686 144.74V143.48H450.406V154.5H452.686V148.34C452.686 146.32 453.786 145.28 455.466 145.28C457.126 145.28 458.226 146.32 458.226 148.34V154.5H460.486V148.34C460.486 146.32 461.586 145.28 463.266 145.28C464.926 145.28 466.026 146.32 466.026 148.34V154.5ZM479.408 151.42C479.288 147.44 473.068 148.68 473.068 146.46C473.068 145.72 473.708 145.22 474.928 145.22C476.168 145.22 476.908 145.88 476.988 146.84H479.268C479.148 144.64 477.508 143.3 475.008 143.3C472.408 143.3 470.768 144.72 470.768 146.48C470.768 150.52 477.168 149.28 477.168 151.44C477.168 152.2 476.468 152.76 475.148 152.76C473.888 152.76 473.028 152.02 472.948 151.12H470.588C470.688 153.12 472.548 154.68 475.188 154.68C477.788 154.68 479.408 153.28 479.408 151.42Z" fill="#212832"/>
<rect x="0.5" y="122.5" width="616" height="49" stroke="black" stroke-opacity="0.5"/>
<rect y="236" width="617" height="50" fill="white"/>
<path d="M24.6 264.44C26.08 264.44 27.24 263.3 27.24 261.84C27.24 260.36 26.08 259.22 24.6 259.22C23.16 259.22 22 260.36 22 261.84C22 263.3 23.16 264.44 24.6 264.44ZM50.5089 268.5H52.9089L47.9289 254.58H45.2889L40.3089 268.5H42.6889L43.6889 265.66H49.5089L50.5089 268.5ZM48.8689 263.8H44.3289L46.6089 257.34L48.8689 263.8ZM54.3142 262.94C54.3142 266.34 56.6142 268.68 59.5142 268.68C61.3142 268.68 62.6342 267.84 63.3342 266.84V268.5H65.6342V253.7H63.3342V259.02C62.4942 257.98 60.9742 257.3 59.5342 257.3C56.6142 257.3 54.3142 259.54 54.3142 262.94ZM63.3342 262.98C63.3342 265.36 61.7142 266.7 59.9942 266.7C58.2942 266.7 56.6542 265.32 56.6542 262.94C56.6542 260.56 58.2942 259.28 59.9942 259.28C61.7142 259.28 63.3342 260.62 63.3342 262.98ZM67.3289 257.48L71.5089 268.5H74.2289L78.4289 257.48H76.0089L72.8889 266.46L69.7689 257.48H67.3289ZM79.3923 262.94C79.3923 266.34 81.6923 268.68 84.5523 268.68C86.3923 268.68 87.7123 267.8 88.4123 266.86V268.5H90.7123V257.48H88.4123V259.08C87.7323 258.18 86.4523 257.3 84.5923 257.3C81.6923 257.3 79.3923 259.54 79.3923 262.94ZM88.4123 262.98C88.4123 265.36 86.7923 266.7 85.0723 266.7C83.3723 266.7 81.7323 265.32 81.7323 262.94C81.7323 260.56 83.3723 259.28 85.0723 259.28C86.7923 259.28 88.4123 260.62 88.4123 262.98ZM101.527 268.5H103.787V262C103.787 258.92 101.847 257.3 99.267 257.3C97.947 257.3 96.727 257.84 95.987 258.74V257.48H93.707V268.5H95.987V262.34C95.987 260.32 97.087 259.28 98.767 259.28C100.427 259.28 101.527 260.32 101.527 262.34V268.5ZM105.935 262.98C105.935 266.44 108.175 268.68 111.335 268.68C114.035 268.68 115.795 267.18 116.415 265.02H113.955C113.535 266.16 112.695 266.76 111.335 266.76C109.495 266.76 108.275 265.4 108.275 262.98C108.275 260.58 109.495 259.22 111.335 259.22C112.695 259.22 113.575 259.9 113.955 260.96H116.415C115.795 258.64 114.035 257.3 111.335 257.3C108.175 257.3 105.935 259.54 105.935 262.98ZM123.328 259.22C125.028 259.22 126.368 260.3 126.408 262H120.308C120.548 260.26 121.788 259.22 123.328 259.22ZM128.487 265.22H126.028C125.608 266.08 124.828 266.76 123.428 266.76C121.748 266.76 120.448 265.66 120.288 263.84H128.708C128.768 263.46 128.788 263.1 128.788 262.72C128.788 259.48 126.568 257.3 123.428 257.3C120.168 257.3 117.928 259.52 117.928 262.98C117.928 266.44 120.268 268.68 123.428 268.68C126.128 268.68 127.868 267.14 128.487 265.22ZM130.271 262.94C130.271 266.34 132.571 268.68 135.471 268.68C137.271 268.68 138.591 267.84 139.291 266.84V268.5H141.591V253.7H139.291V259.02C138.451 257.98 136.931 257.3 135.491 257.3C132.571 257.3 130.271 259.54 130.271 262.94ZM139.291 262.98C139.291 265.36 137.671 266.7 135.951 266.7C134.251 266.7 132.611 265.32 132.611 262.94C132.611 260.56 134.251 259.28 135.951 259.28C137.671 259.28 139.291 260.62 139.291 262.98ZM159.161 264.56C159.161 259.48 151.801 261.44 151.801 258.3C151.801 256.96 152.821 256.32 154.141 256.36C155.581 256.4 156.401 257.26 156.481 258.2H159.001C158.801 255.82 156.921 254.42 154.261 254.42C151.421 254.42 149.481 255.94 149.481 258.38C149.481 263.5 156.861 261.32 156.861 264.68C156.861 265.86 155.961 266.72 154.361 266.72C152.781 266.72 151.981 265.8 151.881 264.66H149.441C149.441 267.12 151.581 268.64 154.361 268.64C157.461 268.64 159.161 266.64 159.161 264.56ZM172.352 262.98C172.352 259.52 169.872 257.3 166.732 257.3C163.592 257.3 161.112 259.52 161.112 262.98C161.112 266.44 163.492 268.68 166.632 268.68C169.792 268.68 172.352 266.44 172.352 262.98ZM163.432 262.98C163.432 260.48 164.972 259.28 166.692 259.28C168.392 259.28 170.012 260.48 170.012 262.98C170.012 265.48 168.332 266.7 166.632 266.7C164.912 266.7 163.432 265.48 163.432 262.98ZM174.885 268.5H177.185V259.34H179.225V257.48H177.185V256.7C177.185 255.44 177.665 254.96 179.065 254.96V253.06C176.185 253.06 174.885 254.16 174.885 256.7V257.48H173.585V259.34H174.885V268.5ZM181.606 265.44C181.606 267.68 182.826 268.5 184.786 268.5H186.586V266.6H185.186C184.226 266.6 183.906 266.26 183.906 265.44V259.34H186.586V257.48H183.906V254.74H181.606V257.48H180.306V259.34H181.606V265.44ZM190.828 268.5H193.228L195.448 260.36L197.668 268.5H200.068L203.488 257.48H201.248L198.968 266.3L196.728 257.48H194.348L192.008 266.34L189.708 257.48H187.388L190.828 268.5ZM204.431 262.94C204.431 266.34 206.731 268.68 209.591 268.68C211.431 268.68 212.751 267.8 213.451 266.86V268.5H215.751V257.48H213.451V259.08C212.771 258.18 211.491 257.3 209.631 257.3C206.731 257.3 204.431 259.54 204.431 262.94ZM213.451 262.98C213.451 265.36 211.831 266.7 210.111 266.7C208.411 266.7 206.771 265.32 206.771 262.94C206.771 260.56 208.411 259.28 210.111 259.28C211.831 259.28 213.451 260.62 213.451 262.98ZM221.026 262.7C221.026 260.36 222.066 259.66 223.746 259.66H224.326V257.3C222.766 257.3 221.666 257.98 221.026 259.08V257.48H218.746V268.5H221.026V262.7ZM231.062 259.22C232.762 259.22 234.102 260.3 234.142 262H228.042C228.282 260.26 229.522 259.22 231.062 259.22ZM236.222 265.22H233.762C233.342 266.08 232.562 266.76 231.162 266.76C229.482 266.76 228.182 265.66 228.022 263.84H236.442C236.502 263.46 236.522 263.1 236.522 262.72C236.522 259.48 234.302 257.3 231.162 257.3C227.902 257.3 225.662 259.52 225.662 262.98C225.662 266.44 228.002 268.68 231.162 268.68C233.862 268.68 235.602 267.14 236.222 265.22ZM251.641 254.58H243.961V268.5H251.641V266.64H246.241V262.38H251.041V260.52H246.241V256.44H251.641V254.58ZM262.269 268.5H264.529V262C264.529 258.92 262.589 257.3 260.009 257.3C258.689 257.3 257.469 257.84 256.729 258.74V257.48H254.449V268.5H256.729V262.34C256.729 260.32 257.829 259.28 259.509 259.28C261.169 259.28 262.269 260.32 262.269 262.34V268.5ZM266.678 262.94C266.678 266.34 268.978 268.68 271.878 268.68C273.678 268.68 274.998 267.78 275.698 266.84V268.68C275.698 270.88 274.378 271.96 272.618 271.96C271.038 271.96 269.818 271.18 269.478 270.04H267.218C267.498 272.48 269.678 273.94 272.618 273.94C276.058 273.94 277.998 271.68 277.998 268.68V257.48H275.698V259.08C275.018 258.14 273.678 257.3 271.878 257.3C268.978 257.3 266.678 259.54 266.678 262.94ZM275.698 262.98C275.698 265.36 274.078 266.7 272.358 266.7C270.658 266.7 269.018 265.32 269.018 262.94C269.018 260.56 270.658 259.28 272.358 259.28C274.078 259.28 275.698 260.62 275.698 262.98ZM280.992 268.5H283.272V257.48H280.992V268.5ZM282.152 256.02C282.952 256.02 283.592 255.38 283.592 254.56C283.592 253.74 282.952 253.1 282.152 253.1C281.332 253.1 280.692 253.74 280.692 254.56C280.692 255.38 281.332 256.02 282.152 256.02ZM294.086 268.5H296.346V262C296.346 258.92 294.406 257.3 291.826 257.3C290.506 257.3 289.286 257.84 288.546 258.74V257.48H286.266V268.5H288.546V262.34C288.546 260.32 289.646 259.28 291.326 259.28C292.986 259.28 294.086 260.32 294.086 262.34V268.5ZM303.894 259.22C305.594 259.22 306.934 260.3 306.974 262H300.874C301.114 260.26 302.354 259.22 303.894 259.22ZM309.054 265.22H306.594C306.174 266.08 305.394 266.76 303.994 266.76C302.314 266.76 301.014 265.66 300.854 263.84H309.274C309.334 263.46 309.354 263.1 309.354 262.72C309.354 259.48 307.134 257.3 303.994 257.3C300.734 257.3 298.494 259.52 298.494 262.98C298.494 266.44 300.834 268.68 303.994 268.68C306.694 268.68 308.434 267.14 309.054 265.22ZM316.238 259.22C317.938 259.22 319.278 260.3 319.318 262H313.218C313.458 260.26 314.698 259.22 316.238 259.22ZM321.398 265.22H318.938C318.518 266.08 317.738 266.76 316.338 266.76C314.658 266.76 313.358 265.66 313.198 263.84H321.618C321.678 263.46 321.698 263.1 321.698 262.72C321.698 259.48 319.478 257.3 316.338 257.3C313.078 257.3 310.838 259.52 310.838 262.98C310.838 266.44 313.178 268.68 316.338 268.68C319.038 268.68 320.778 267.14 321.398 265.22ZM326.221 262.7C326.221 260.36 327.261 259.66 328.941 259.66H329.521V257.3C327.961 257.3 326.861 257.98 326.221 259.08V257.48H323.941V268.5H326.221V262.7ZM331.617 268.5H333.897V257.48H331.617V268.5ZM332.777 256.02C333.577 256.02 334.217 255.38 334.217 254.56C334.217 253.74 333.577 253.1 332.777 253.1C331.957 253.1 331.317 253.74 331.317 254.56C331.317 255.38 331.957 256.02 332.777 256.02ZM344.711 268.5H346.971V262C346.971 258.92 345.031 257.3 342.451 257.3C341.131 257.3 339.911 257.84 339.171 258.74V257.48H336.891V268.5H339.171V262.34C339.171 260.32 340.271 259.28 341.951 259.28C343.611 259.28 344.711 260.32 344.711 262.34V268.5ZM349.119 262.94C349.119 266.34 351.419 268.68 354.319 268.68C356.119 268.68 357.439 267.78 358.139 266.84V268.68C358.139 270.88 356.819 271.96 355.059 271.96C353.479 271.96 352.259 271.18 351.919 270.04H349.659C349.939 272.48 352.119 273.94 355.059 273.94C358.499 273.94 360.439 271.68 360.439 268.68V257.48H358.139V259.08C357.459 258.14 356.119 257.3 354.319 257.3C351.419 257.3 349.119 259.54 349.119 262.94ZM358.139 262.98C358.139 265.36 356.519 266.7 354.799 266.7C353.099 266.7 351.459 265.32 351.459 262.94C351.459 260.56 353.099 259.28 354.799 259.28C356.519 259.28 358.139 260.62 358.139 262.98ZM370.909 261V256.46H373.429C375.209 256.46 376.009 257.3 376.009 258.74C376.009 260.14 375.209 261 373.429 261H370.909ZM378.349 258.74C378.349 256.48 376.729 254.6 373.429 254.6H368.629V268.5H370.909V262.86H373.429C377.049 262.86 378.349 260.72 378.349 258.74ZM382.803 262.7C382.803 260.36 383.843 259.66 385.523 259.66H386.103V257.3C384.543 257.3 383.443 257.98 382.803 259.08V257.48H380.523V268.5H382.803V262.7ZM388.199 268.5H390.479V257.48H388.199V268.5ZM389.359 256.02C390.159 256.02 390.799 255.38 390.799 254.56C390.799 253.74 390.159 253.1 389.359 253.1C388.539 253.1 387.899 253.74 387.899 254.56C387.899 255.38 388.539 256.02 389.359 256.02ZM401.293 268.5H403.553V262C403.553 258.92 401.613 257.3 399.033 257.3C397.713 257.3 396.493 257.84 395.753 258.74V257.48H393.473V268.5H395.753V262.34C395.753 260.32 396.853 259.28 398.533 259.28C400.193 259.28 401.293 260.32 401.293 262.34V268.5ZM405.701 262.98C405.701 266.44 407.941 268.68 411.101 268.68C413.801 268.68 415.561 267.18 416.181 265.02H413.721C413.301 266.16 412.461 266.76 411.101 266.76C409.261 266.76 408.041 265.4 408.041 262.98C408.041 260.58 409.261 259.22 411.101 259.22C412.461 259.22 413.341 259.9 413.721 260.96H416.181C415.561 258.64 413.801 257.3 411.101 257.3C407.941 257.3 405.701 259.54 405.701 262.98ZM418.453 268.5H420.733V257.48H418.453V268.5ZM419.613 256.02C420.413 256.02 421.053 255.38 421.053 254.56C421.053 253.74 420.413 253.1 419.613 253.1C418.793 253.1 418.153 253.74 418.153 254.56C418.153 255.38 418.793 256.02 419.613 256.02ZM426.007 259.1V257.48H423.727V273.74H426.007V266.9C426.727 267.76 428.027 268.68 429.847 268.68C432.747 268.68 435.027 266.34 435.027 262.94C435.027 259.54 432.747 257.3 429.847 257.3C428.047 257.3 426.707 258.18 426.007 259.1ZM432.707 262.94C432.707 265.32 431.067 266.7 429.347 266.7C427.647 266.7 426.007 265.36 426.007 262.98C426.007 260.62 427.647 259.28 429.347 259.28C431.067 259.28 432.707 260.56 432.707 262.94ZM437.281 268.5H439.561V253.7H437.281V268.5ZM447.195 259.22C448.895 259.22 450.235 260.3 450.275 262H444.175C444.415 260.26 445.655 259.22 447.195 259.22ZM452.355 265.22H449.895C449.475 266.08 448.695 266.76 447.295 266.76C445.615 266.76 444.315 265.66 444.155 263.84H452.575C452.635 263.46 452.655 263.1 452.655 262.72C452.655 259.48 450.435 257.3 447.295 257.3C444.035 257.3 441.795 259.52 441.795 262.98C441.795 266.44 444.135 268.68 447.295 268.68C449.995 268.68 451.735 267.14 452.355 265.22ZM463.118 265.42C462.998 261.44 456.778 262.68 456.778 260.46C456.778 259.72 457.418 259.22 458.638 259.22C459.878 259.22 460.618 259.88 460.698 260.84H462.978C462.858 258.64 461.218 257.3 458.718 257.3C456.118 257.3 454.478 258.72 454.478 260.48C454.478 264.52 460.878 263.28 460.878 265.44C460.878 266.2 460.178 266.76 458.858 266.76C457.598 266.76 456.738 266.02 456.658 265.12H454.298C454.398 267.12 456.258 268.68 458.898 268.68C461.498 268.68 463.118 267.28 463.118 265.42Z" fill="#212832"/>
<rect x="0.5" y="236.5" width="616" height="49" stroke="black" stroke-opacity="0.5"/>
<rect y="293" width="617" height="50" fill="white"/>
<path d="M24.6 321.44C26.08 321.44 27.24 320.3 27.24 318.84C27.24 317.36 26.08 316.22 24.6 316.22C23.16 316.22 22 317.36 22 318.84C22 320.3 23.16 321.44 24.6 321.44ZM43.4089 318V313.46H45.9289C47.7089 313.46 48.5089 314.3 48.5089 315.74C48.5089 317.14 47.7089 318 45.9289 318H43.4089ZM50.8489 315.74C50.8489 313.48 49.2289 311.6 45.9289 311.6H41.1289V325.5H43.4089V319.86H45.9289C49.5489 319.86 50.8489 317.72 50.8489 315.74ZM55.3034 319.7C55.3034 317.36 56.3434 316.66 58.0234 316.66H58.6034V314.3C57.0434 314.3 55.9434 314.98 55.3034 316.08V314.48H53.0234V325.5H55.3034V319.7ZM71.1992 319.98C71.1992 316.52 68.7192 314.3 65.5792 314.3C62.4392 314.3 59.9592 316.52 59.9592 319.98C59.9592 323.44 62.3392 325.68 65.4792 325.68C68.6392 325.68 71.1992 323.44 71.1992 319.98ZM62.2792 319.98C62.2792 317.48 63.8192 316.28 65.5392 316.28C67.2392 316.28 68.8592 317.48 68.8592 319.98C68.8592 322.48 67.1792 323.7 65.4792 323.7C63.7592 323.7 62.2792 322.48 62.2792 319.98ZM73.7331 325.5H76.0331V316.34H78.0731V314.48H76.0331V313.7C76.0331 312.44 76.5131 311.96 77.9131 311.96V310.06C75.0331 310.06 73.7331 311.16 73.7331 313.7V314.48H72.4331V316.34H73.7331V325.5ZM84.7338 316.22C86.4338 316.22 87.7738 317.3 87.8138 319H81.7138C81.9538 317.26 83.1938 316.22 84.7338 316.22ZM89.8937 322.22H87.4338C87.0138 323.08 86.2338 323.76 84.8338 323.76C83.1538 323.76 81.8538 322.66 81.6938 320.84H90.1138C90.1738 320.46 90.1938 320.1 90.1938 319.72C90.1938 316.48 87.9738 314.3 84.8338 314.3C81.5738 314.3 79.3338 316.52 79.3338 319.98C79.3338 323.44 81.6738 325.68 84.8338 325.68C87.5338 325.68 89.2738 324.14 89.8937 322.22ZM100.658 322.42C100.538 318.44 94.3175 319.68 94.3175 317.46C94.3175 316.72 94.9575 316.22 96.1775 316.22C97.4175 316.22 98.1575 316.88 98.2375 317.84H100.518C100.398 315.64 98.7575 314.3 96.2575 314.3C93.6575 314.3 92.0175 315.72 92.0175 317.48C92.0175 321.52 98.4175 320.28 98.4175 322.44C98.4175 323.2 97.7175 323.76 96.3975 323.76C95.1375 323.76 94.2775 323.02 94.1975 322.12H91.8375C91.9375 324.12 93.7975 325.68 96.4375 325.68C99.0375 325.68 100.658 324.28 100.658 322.42ZM111.341 322.42C111.221 318.44 105.001 319.68 105.001 317.46C105.001 316.72 105.641 316.22 106.861 316.22C108.101 316.22 108.841 316.88 108.921 317.84H111.201C111.081 315.64 109.441 314.3 106.941 314.3C104.341 314.3 102.701 315.72 102.701 317.48C102.701 321.52 109.101 320.28 109.101 322.44C109.101 323.2 108.401 323.76 107.081 323.76C105.821 323.76 104.961 323.02 104.881 322.12H102.521C102.621 324.12 104.481 325.68 107.121 325.68C109.721 325.68 111.341 324.28 111.341 322.42ZM113.805 325.5H116.085V314.48H113.805V325.5ZM114.965 313.02C115.765 313.02 116.405 312.38 116.405 311.56C116.405 310.74 115.765 310.1 114.965 310.1C114.145 310.1 113.505 310.74 113.505 311.56C113.505 312.38 114.145 313.02 114.965 313.02ZM129.578 319.98C129.578 316.52 127.098 314.3 123.958 314.3C120.818 314.3 118.338 316.52 118.338 319.98C118.338 323.44 120.718 325.68 123.858 325.68C127.018 325.68 129.578 323.44 129.578 319.98ZM120.658 319.98C120.658 317.48 122.198 316.28 123.918 316.28C125.618 316.28 127.238 317.48 127.238 319.98C127.238 322.48 125.558 323.7 123.858 323.7C122.138 323.7 120.658 322.48 120.658 319.98ZM139.652 325.5H141.912V319C141.912 315.92 139.972 314.3 137.392 314.3C136.072 314.3 134.852 314.84 134.112 315.74V314.48H131.832V325.5H134.112V319.34C134.112 317.32 135.212 316.28 136.892 316.28C138.552 316.28 139.652 317.32 139.652 319.34V325.5ZM144.06 319.94C144.06 323.34 146.36 325.68 149.22 325.68C151.06 325.68 152.38 324.8 153.08 323.86V325.5H155.38V314.48H153.08V316.08C152.4 315.18 151.12 314.3 149.26 314.3C146.36 314.3 144.06 316.54 144.06 319.94ZM153.08 319.98C153.08 322.36 151.46 323.7 149.74 323.7C148.04 323.7 146.4 322.32 146.4 319.94C146.4 317.56 148.04 316.28 149.74 316.28C151.46 316.28 153.08 317.62 153.08 319.98ZM158.375 325.5H160.655V310.7H158.375V325.5ZM168.084 318.52C168.084 322.7 171.264 325.62 175.184 325.62C178.084 325.62 180.584 324.18 181.644 321.46H178.904C178.164 322.94 176.844 323.64 175.184 323.64C172.424 323.64 170.424 321.66 170.424 318.52C170.424 315.38 172.424 313.42 175.184 313.42C176.844 313.42 178.164 314.12 178.904 315.6H181.644C180.584 312.88 178.084 311.42 175.184 311.42C171.264 311.42 168.084 314.36 168.084 318.52ZM194.813 319.98C194.813 316.52 192.333 314.3 189.193 314.3C186.053 314.3 183.573 316.52 183.573 319.98C183.573 323.44 185.953 325.68 189.093 325.68C192.253 325.68 194.813 323.44 194.813 319.98ZM185.893 319.98C185.893 317.48 187.433 316.28 189.153 316.28C190.853 316.28 192.473 317.48 192.473 319.98C192.473 322.48 190.793 323.7 189.093 323.7C187.373 323.7 185.893 322.48 185.893 319.98ZM212.686 325.5H214.946V319C214.946 315.92 212.986 314.3 210.406 314.3C208.806 314.3 207.246 315.14 206.566 316.48C205.806 315.04 204.346 314.3 202.606 314.3C201.286 314.3 200.086 314.84 199.346 315.74V314.48H197.066V325.5H199.346V319.34C199.346 317.32 200.446 316.28 202.126 316.28C203.786 316.28 204.886 317.32 204.886 319.34V325.5H207.146V319.34C207.146 317.32 208.246 316.28 209.926 316.28C211.586 316.28 212.686 317.32 212.686 319.34V325.5ZM233.468 325.5H235.728V319C235.728 315.92 233.768 314.3 231.188 314.3C229.588 314.3 228.028 315.14 227.348 316.48C226.588 315.04 225.128 314.3 223.388 314.3C222.068 314.3 220.868 314.84 220.128 315.74V314.48H217.848V325.5H220.128V319.34C220.128 317.32 221.228 316.28 222.908 316.28C224.568 316.28 225.668 317.32 225.668 319.34V325.5H227.928V319.34C227.928 317.32 229.028 316.28 230.708 316.28C232.368 316.28 233.468 317.32 233.468 319.34V325.5ZM248.609 314.48H246.329V320.62C246.329 322.64 245.229 323.68 243.549 323.68C241.889 323.68 240.789 322.64 240.789 320.62V314.48H238.529V320.96C238.529 324.04 240.489 325.66 243.069 325.66C244.369 325.66 245.609 325.12 246.329 324.18V325.5H248.609V314.48ZM259.437 325.5H261.697V319C261.697 315.92 259.757 314.3 257.177 314.3C255.857 314.3 254.637 314.84 253.897 315.74V314.48H251.617V325.5H253.897V319.34C253.897 317.32 254.997 316.28 256.677 316.28C258.337 316.28 259.437 317.32 259.437 319.34V325.5ZM264.605 325.5H266.885V314.48H264.605V325.5ZM265.765 313.02C266.565 313.02 267.205 312.38 267.205 311.56C267.205 310.74 266.565 310.1 265.765 310.1C264.945 310.1 264.305 310.74 264.305 311.56C264.305 312.38 264.945 313.02 265.765 313.02ZM269.119 319.98C269.119 323.44 271.359 325.68 274.519 325.68C277.219 325.68 278.979 324.18 279.599 322.02H277.139C276.719 323.16 275.879 323.76 274.519 323.76C272.679 323.76 271.459 322.4 271.459 319.98C271.459 317.58 272.679 316.22 274.519 316.22C275.879 316.22 276.759 316.9 277.139 317.96H279.599C278.979 315.64 277.219 314.3 274.519 314.3C271.359 314.3 269.119 316.54 269.119 319.98ZM281.111 319.94C281.111 323.34 283.411 325.68 286.271 325.68C288.111 325.68 289.431 324.8 290.131 323.86V325.5H292.431V314.48H290.131V316.08C289.451 315.18 288.171 314.3 286.311 314.3C283.411 314.3 281.111 316.54 281.111 319.94ZM290.131 319.98C290.131 322.36 288.511 323.7 286.791 323.7C285.091 323.7 283.451 322.32 283.451 319.94C283.451 317.56 285.091 316.28 286.791 316.28C288.511 316.28 290.131 317.62 290.131 319.98ZM295.786 322.44C295.786 324.68 297.006 325.5 298.966 325.5H300.766V323.6H299.366C298.406 323.6 298.086 323.26 298.086 322.44V316.34H300.766V314.48H298.086V311.74H295.786V314.48H294.486V316.34H295.786V322.44ZM302.867 325.5H305.147V314.48H302.867V325.5ZM304.027 313.02C304.827 313.02 305.467 312.38 305.467 311.56C305.467 310.74 304.827 310.1 304.027 310.1C303.207 310.1 302.567 310.74 302.567 311.56C302.567 312.38 303.207 313.02 304.027 313.02ZM318.641 319.98C318.641 316.52 316.161 314.3 313.021 314.3C309.881 314.3 307.401 316.52 307.401 319.98C307.401 323.44 309.781 325.68 312.921 325.68C316.081 325.68 318.641 323.44 318.641 319.98ZM309.721 319.98C309.721 317.48 311.261 316.28 312.981 316.28C314.681 316.28 316.301 317.48 316.301 319.98C316.301 322.48 314.621 323.7 312.921 323.7C311.201 323.7 309.721 322.48 309.721 319.98ZM328.715 325.5H330.975V319C330.975 315.92 329.035 314.3 326.455 314.3C325.135 314.3 323.915 314.84 323.175 315.74V314.48H320.895V325.5H323.175V319.34C323.175 317.32 324.275 316.28 325.955 316.28C327.615 316.28 328.715 317.32 328.715 319.34V325.5Z" fill="#212832"/>
<rect x="0.5" y="293.5" width="616" height="49" stroke="black" stroke-opacity="0.5"/>
<rect y="350" width="617" height="50" fill="white"/>
<path d="M21.74 376.22H29.96V374.3H21.74V376.22ZM33.4392 376.22H41.6592V374.3H33.4392V376.22ZM45.1384 376.22H53.3584V374.3H45.1384V376.22ZM56.8377 376.22H65.0577V374.3H56.8377V376.22Z" fill="#212832"/>
<rect x="0.5" y="350.5" width="616" height="49" stroke="black" stroke-opacity="0.5"/>
</svg>
