<svg width="617" height="458" viewBox="0 0 617 458" fill="none" xmlns="http://www.w3.org/2000/svg">
<rect width="617" height="58" fill="#3498DB"/>
<path d="M33.925 32.95C33.925 26.8 24.975 28.75 24.975 25.25C24.975 23.825 26 23.15 27.375 23.2C28.875 23.225 29.8 24.125 29.875 25.275H33.725C33.5 22.125 31.05 20.3 27.475 20.3C23.875 20.3 21.325 22.2 21.325 25.35C21.3 31.675 30.3 29.4 30.3 33.175C30.3 34.425 29.325 35.3 27.675 35.3C26.05 35.3 25.125 34.375 25.025 32.975H21.275C21.325 36.275 24.125 38.175 27.75 38.175C31.725 38.175 33.925 35.7 33.925 32.95ZM43.4094 26.8C45.2094 26.8 46.6594 27.95 46.7094 29.775H40.1344C40.4094 27.875 41.7344 26.8 43.4094 26.8ZM49.9844 33.65H46.2094C45.7594 34.575 44.9344 35.325 43.4344 35.325C41.6844 35.325 40.2844 34.175 40.1094 32.125H50.2344C50.3094 31.675 50.3344 31.225 50.3344 30.775C50.3344 26.65 47.5094 23.925 43.5094 23.925C39.4094 23.925 36.5594 26.7 36.5594 31.075C36.5594 35.425 39.4844 38.225 43.5094 38.225C46.9344 38.225 49.2344 36.2 49.9844 33.65ZM72.7641 38H76.2641V29.875C76.2641 26.05 73.9141 23.95 70.5891 23.95C68.5641 23.95 66.7391 25.025 65.8391 26.6C64.8891 24.875 63.1141 23.95 60.9641 23.95C59.2391 23.95 57.7641 24.675 56.8891 25.825V24.15H53.3891V38H56.8891V30.35C56.8891 28.15 58.1141 27 60.0141 27C61.8641 27 63.0891 28.15 63.0891 30.35V38H66.5891V30.35C66.5891 28.15 67.8141 27 69.6891 27C71.5391 27 72.7641 28.15 72.7641 30.35V38ZM86.0354 26.8C87.8354 26.8 89.2854 27.95 89.3354 29.775H82.7604C83.0354 27.875 84.3604 26.8 86.0354 26.8ZM92.6104 33.65H88.8354C88.3854 34.575 87.5604 35.325 86.0604 35.325C84.3104 35.325 82.9104 34.175 82.7354 32.125H92.8604C92.9354 31.675 92.9604 31.225 92.9604 30.775C92.9604 26.65 90.1354 23.925 86.1354 23.925C82.0354 23.925 79.1854 26.7 79.1854 31.075C79.1854 35.425 82.1104 38.225 86.1354 38.225C89.5604 38.225 91.8604 36.2 92.6104 33.65ZM106.765 34.05C106.665 28.975 98.99 30.55 98.99 28.025C98.99 27.225 99.665 26.7 100.965 26.7C102.34 26.7 103.19 27.425 103.29 28.5H106.64C106.44 25.75 104.415 23.925 101.065 23.925C97.64 23.925 95.59 25.775 95.59 28.075C95.59 33.15 103.415 31.575 103.415 34.05C103.415 34.85 102.665 35.475 101.29 35.475C99.89 35.475 98.915 34.675 98.79 33.625H95.265C95.415 36.2 97.84 38.225 101.315 38.225C104.69 38.225 106.765 36.425 106.765 34.05ZM110.688 33.7C110.688 36.875 112.463 38 115.113 38H117.313V35.05H115.688C114.588 35.05 114.213 34.65 114.213 33.725V27.025H117.313V24.15H114.213V20.725H110.688V24.15H109.038V27.025H110.688V33.7ZM126.28 26.8C128.08 26.8 129.53 27.95 129.58 29.775H123.005C123.28 27.875 124.605 26.8 126.28 26.8ZM132.855 33.65H129.08C128.63 34.575 127.805 35.325 126.305 35.325C124.555 35.325 123.155 34.175 122.98 32.125H133.105C133.18 31.675 133.205 31.225 133.205 30.775C133.205 26.65 130.38 23.925 126.38 23.925C122.28 23.925 119.43 26.7 119.43 31.075C119.43 35.425 122.355 38.225 126.38 38.225C129.805 38.225 132.105 36.2 132.855 33.65ZM139.76 31.1C139.76 28.425 141.01 27.625 143.085 27.625H144.01V23.95C142.085 23.95 140.635 24.875 139.76 26.3V24.15H136.26V38H139.76V31.1ZM152.975 24.575H156.4C156.525 23.425 157.25 22.325 158.95 22.325C160.55 22.325 161.425 23.175 161.425 24.6C161.425 26.4 159.925 26.975 157.875 26.975H157.15V29.85H157.875C160.475 29.85 161.775 30.6 161.775 32.65C161.775 34.1 160.875 35.2 159.125 35.2C157.25 35.2 156.2 34.075 156.125 32.5H152.725C152.875 36.325 155.6 38.125 159.2 38.125C163.025 38.125 165.125 35.925 165.125 32.95C165.125 30.475 163.9 28.975 162.05 28.4V28.3C163.375 27.85 164.8 26.45 164.8 24.175C164.8 21.475 162.8 19.35 159.05 19.35C155.55 19.35 153.15 21.2 152.975 24.575Z" fill="white"/>
<rect y="66" width="617" height="50" fill="white"/>
<path d="M24.6 94.44C26.08 94.44 27.24 93.3 27.24 91.84C27.24 90.36 26.08 89.22 24.6 89.22C23.16 89.22 22 90.36 22 91.84C22 93.3 23.16 94.44 24.6 94.44ZM40.3689 91.52C40.3689 95.7 43.5489 98.62 47.4689 98.62C50.3689 98.62 52.8689 97.18 53.9289 94.46H51.1889C50.4489 95.94 49.1289 96.64 47.4689 96.64C44.7089 96.64 42.7089 94.66 42.7089 91.52C42.7089 88.38 44.7089 86.42 47.4689 86.42C49.1289 86.42 50.4489 87.12 51.1889 88.6H53.9289C52.8689 85.88 50.3689 84.42 47.4689 84.42C43.5489 84.42 40.3689 87.36 40.3689 91.52ZM56.5977 98.5H58.8777V83.7H56.5977V98.5ZM72.3711 92.98C72.3711 89.52 69.8911 87.3 66.7511 87.3C63.6111 87.3 61.1311 89.52 61.1311 92.98C61.1311 96.44 63.5111 98.68 66.6511 98.68C69.8111 98.68 72.3711 96.44 72.3711 92.98ZM63.4511 92.98C63.4511 90.48 64.9911 89.28 66.7111 89.28C68.4111 89.28 70.0311 90.48 70.0311 92.98C70.0311 95.48 68.3511 96.7 66.6511 96.7C64.9311 96.7 63.4511 95.48 63.4511 92.98ZM84.605 87.48H82.325V93.62C82.325 95.64 81.225 96.68 79.545 96.68C77.885 96.68 76.785 95.64 76.785 93.62V87.48H74.525V93.96C74.525 97.04 76.485 98.66 79.065 98.66C80.365 98.66 81.605 98.12 82.325 97.18V98.5H84.605V87.48ZM86.8533 92.94C86.8533 96.34 89.1533 98.68 92.0533 98.68C93.8533 98.68 95.1733 97.84 95.8733 96.84V98.5H98.1733V83.7H95.8733V89.02C95.0333 87.98 93.5133 87.3 92.0733 87.3C89.1533 87.3 86.8533 89.54 86.8533 92.94ZM95.8733 92.98C95.8733 95.36 94.2533 96.7 92.5333 96.7C90.8333 96.7 89.1933 95.32 89.1933 92.94C89.1933 90.56 90.8333 89.28 92.5333 89.28C94.2533 89.28 95.8733 90.62 95.8733 92.98ZM106.363 98.5H108.643V84.6H106.363V98.5ZM119.457 98.5H121.717V92C121.717 88.92 119.777 87.3 117.197 87.3C115.877 87.3 114.657 87.84 113.917 88.74V87.48H111.637V98.5H113.917V92.34C113.917 90.32 115.017 89.28 116.697 89.28C118.357 89.28 119.457 90.32 119.457 92.34V98.5ZM124.905 98.5H127.205V89.34H129.245V87.48H127.205V86.7C127.205 85.44 127.685 84.96 129.085 84.96V83.06C126.205 83.06 124.905 84.16 124.905 86.7V87.48H123.605V89.34H124.905V98.5ZM133.546 92.7C133.546 90.36 134.586 89.66 136.266 89.66H136.846V87.3C135.286 87.3 134.186 87.98 133.546 89.08V87.48H131.266V98.5H133.546V92.7ZM138.181 92.94C138.181 96.34 140.481 98.68 143.341 98.68C145.181 98.68 146.501 97.8 147.201 96.86V98.5H149.501V87.48H147.201V89.08C146.521 88.18 145.241 87.3 143.381 87.3C140.481 87.3 138.181 89.54 138.181 92.94ZM147.201 92.98C147.201 95.36 145.581 96.7 143.861 96.7C142.161 96.7 140.521 95.32 140.521 92.94C140.521 90.56 142.161 89.28 143.861 89.28C145.581 89.28 147.201 90.62 147.201 92.98ZM160.716 95.42C160.596 91.44 154.376 92.68 154.376 90.46C154.376 89.72 155.016 89.22 156.236 89.22C157.476 89.22 158.216 89.88 158.296 90.84H160.576C160.456 88.64 158.816 87.3 156.316 87.3C153.716 87.3 152.076 88.72 152.076 90.48C152.076 94.52 158.476 93.28 158.476 95.44C158.476 96.2 157.776 96.76 156.456 96.76C155.196 96.76 154.336 96.02 154.256 95.12H151.896C151.996 97.12 153.856 98.68 156.496 98.68C159.096 98.68 160.716 97.28 160.716 95.42ZM163.54 95.44C163.54 97.68 164.76 98.5 166.72 98.5H168.52V96.6H167.12C166.16 96.6 165.84 96.26 165.84 95.44V89.34H168.52V87.48H165.84V84.74H163.54V87.48H162.24V89.34H163.54V95.44ZM172.901 92.7C172.901 90.36 173.941 89.66 175.621 89.66H176.201V87.3C174.641 87.3 173.541 87.98 172.901 89.08V87.48H170.621V98.5H172.901V92.7ZM188.277 87.48H185.997V93.62C185.997 95.64 184.897 96.68 183.217 96.68C181.557 96.68 180.457 95.64 180.457 93.62V87.48H178.197V93.96C178.197 97.04 180.157 98.66 182.737 98.66C184.037 98.66 185.277 98.12 185.997 97.18V98.5H188.277V87.48ZM190.525 92.98C190.525 96.44 192.765 98.68 195.925 98.68C198.625 98.68 200.385 97.18 201.005 95.02H198.545C198.125 96.16 197.285 96.76 195.925 96.76C194.085 96.76 192.865 95.4 192.865 92.98C192.865 90.58 194.085 89.22 195.925 89.22C197.285 89.22 198.165 89.9 198.545 90.96H201.005C200.385 88.64 198.625 87.3 195.925 87.3C192.765 87.3 190.525 89.54 190.525 92.98ZM203.637 95.44C203.637 97.68 204.857 98.5 206.817 98.5H208.617V96.6H207.217C206.257 96.6 205.937 96.26 205.937 95.44V89.34H208.617V87.48H205.937V84.74H203.637V87.48H202.337V89.34H203.637V95.44ZM220.699 87.48H218.419V93.62C218.419 95.64 217.319 96.68 215.639 96.68C213.979 96.68 212.879 95.64 212.879 93.62V87.48H210.619V93.96C210.619 97.04 212.579 98.66 215.159 98.66C216.459 98.66 217.699 98.12 218.419 97.18V98.5H220.699V87.48ZM225.987 92.7C225.987 90.36 227.027 89.66 228.707 89.66H229.287V87.3C227.727 87.3 226.627 87.98 225.987 89.08V87.48H223.707V98.5H225.987V92.7ZM236.023 89.22C237.723 89.22 239.063 90.3 239.103 92H233.003C233.243 90.26 234.483 89.22 236.023 89.22ZM241.183 95.22H238.723C238.303 96.08 237.523 96.76 236.123 96.76C234.443 96.76 233.143 95.66 232.983 93.84H241.403C241.463 93.46 241.483 93.1 241.483 92.72C241.483 89.48 239.263 87.3 236.123 87.3C232.863 87.3 230.623 89.52 230.623 92.98C230.623 96.44 232.963 98.68 236.123 98.68C238.823 98.68 240.563 97.14 241.183 95.22ZM248.162 92.94C248.162 96.34 250.462 98.68 253.322 98.68C255.162 98.68 256.482 97.8 257.182 96.86V98.5H259.482V87.48H257.182V89.08C256.502 88.18 255.222 87.3 253.362 87.3C250.462 87.3 248.162 89.54 248.162 92.94ZM257.182 92.98C257.182 95.36 255.562 96.7 253.842 96.7C252.142 96.7 250.502 95.32 250.502 92.94C250.502 90.56 252.142 89.28 253.842 89.28C255.562 89.28 257.182 90.62 257.182 92.98ZM270.297 98.5H272.557V92C272.557 88.92 270.617 87.3 268.037 87.3C266.717 87.3 265.497 87.84 264.757 88.74V87.48H262.477V98.5H264.757V92.34C264.757 90.32 265.857 89.28 267.537 89.28C269.197 89.28 270.297 90.32 270.297 92.34V98.5ZM274.705 92.94C274.705 96.34 277.005 98.68 279.905 98.68C281.705 98.68 283.025 97.84 283.725 96.84V98.5H286.025V83.7H283.725V89.02C282.885 87.98 281.365 87.3 279.925 87.3C277.005 87.3 274.705 89.54 274.705 92.94ZM283.725 92.98C283.725 95.36 282.105 96.7 280.385 96.7C278.685 96.7 277.045 95.32 277.045 92.94C277.045 90.56 278.685 89.28 280.385 89.28C282.105 89.28 283.725 90.62 283.725 92.98ZM303.595 94.56C303.595 89.48 296.235 91.44 296.235 88.3C296.235 86.96 297.255 86.32 298.575 86.36C300.015 86.4 300.835 87.26 300.915 88.2H303.435C303.235 85.82 301.355 84.42 298.695 84.42C295.855 84.42 293.915 85.94 293.915 88.38C293.915 93.5 301.295 91.32 301.295 94.68C301.295 95.86 300.395 96.72 298.795 96.72C297.215 96.72 296.415 95.8 296.315 94.66H293.875C293.875 97.12 296.015 98.64 298.795 98.64C301.895 98.64 303.595 96.64 303.595 94.56ZM310.925 89.22C312.625 89.22 313.965 90.3 314.005 92H307.905C308.145 90.26 309.385 89.22 310.925 89.22ZM316.085 95.22H313.625C313.205 96.08 312.425 96.76 311.025 96.76C309.345 96.76 308.045 95.66 307.885 93.84H316.305C316.365 93.46 316.385 93.1 316.385 92.72C316.385 89.48 314.165 87.3 311.025 87.3C307.765 87.3 305.525 89.52 305.525 92.98C305.525 96.44 307.865 98.68 311.025 98.68C313.725 98.68 315.465 97.14 316.085 95.22ZM320.909 92.7C320.909 90.36 321.949 89.66 323.629 89.66H324.209V87.3C322.649 87.3 321.549 87.98 320.909 89.08V87.48H318.629V98.5H320.909V92.7ZM325.005 87.48L329.185 98.5H331.905L336.105 87.48H333.685L330.565 96.46L327.445 87.48H325.005ZM337.828 98.5H340.108V87.48H337.828V98.5ZM338.988 86.02C339.788 86.02 340.428 85.38 340.428 84.56C340.428 83.74 339.788 83.1 338.988 83.1C338.168 83.1 337.528 83.74 337.528 84.56C337.528 85.38 338.168 86.02 338.988 86.02ZM342.342 92.98C342.342 96.44 344.582 98.68 347.742 98.68C350.442 98.68 352.202 97.18 352.822 95.02H350.362C349.942 96.16 349.102 96.76 347.742 96.76C345.902 96.76 344.682 95.4 344.682 92.98C344.682 90.58 345.902 89.22 347.742 89.22C349.102 89.22 349.982 89.9 350.362 90.96H352.822C352.202 88.64 350.442 87.3 347.742 87.3C344.582 87.3 342.342 89.54 342.342 92.98ZM359.734 89.22C361.434 89.22 362.774 90.3 362.814 92H356.714C356.954 90.26 358.194 89.22 359.734 89.22ZM364.894 95.22H362.434C362.014 96.08 361.234 96.76 359.834 96.76C358.154 96.76 356.854 95.66 356.694 93.84H365.114C365.174 93.46 365.194 93.1 365.194 92.72C365.194 89.48 362.974 87.3 359.834 87.3C356.574 87.3 354.334 89.52 354.334 92.98C354.334 96.44 356.674 98.68 359.834 98.68C362.534 98.68 364.274 97.14 364.894 95.22ZM375.658 95.42C375.538 91.44 369.318 92.68 369.318 90.46C369.318 89.72 369.958 89.22 371.178 89.22C372.418 89.22 373.158 89.88 373.238 90.84H375.518C375.398 88.64 373.758 87.3 371.258 87.3C368.658 87.3 367.018 88.72 367.018 90.48C367.018 94.52 373.418 93.28 373.418 95.44C373.418 96.2 372.718 96.76 371.398 96.76C370.138 96.76 369.278 96.02 369.198 95.12H366.838C366.938 97.12 368.798 98.68 371.438 98.68C374.038 98.68 375.658 97.28 375.658 95.42Z" fill="#212832"/>
<rect x="0.5" y="66.5" width="616" height="49" stroke="black" stroke-opacity="0.5"/>
<rect y="180" width="617" height="50" fill="white"/>
<path d="M24.6 208.44C26.08 208.44 27.24 207.3 27.24 205.84C27.24 204.36 26.08 203.22 24.6 203.22C23.16 203.22 22 204.36 22 205.84C22 207.3 23.16 208.44 24.6 208.44ZM43.4089 205V200.46H45.9289C47.7089 200.46 48.5089 201.3 48.5089 202.74C48.5089 204.14 47.7089 205 45.9289 205H43.4089ZM50.8489 202.74C50.8489 200.48 49.2289 198.6 45.9289 198.6H41.1289V212.5H43.4089V206.86H45.9289C49.5489 206.86 50.8489 204.72 50.8489 202.74ZM55.3034 206.7C55.3034 204.36 56.3434 203.66 58.0234 203.66H58.6034V201.3C57.0434 201.3 55.9434 201.98 55.3034 203.08V201.48H53.0234V212.5H55.3034V206.7ZM71.1992 206.98C71.1992 203.52 68.7192 201.3 65.5792 201.3C62.4392 201.3 59.9592 203.52 59.9592 206.98C59.9592 210.44 62.3392 212.68 65.4792 212.68C68.6392 212.68 71.1992 210.44 71.1992 206.98ZM62.2792 206.98C62.2792 204.48 63.8192 203.28 65.5392 203.28C67.2392 203.28 68.8592 204.48 68.8592 206.98C68.8592 209.48 67.1792 210.7 65.4792 210.7C63.7592 210.7 62.2792 209.48 62.2792 206.98ZM73.7331 212.5H76.0331V203.34H78.0731V201.48H76.0331V200.7C76.0331 199.44 76.5131 198.96 77.9131 198.96V197.06C75.0331 197.06 73.7331 198.16 73.7331 200.7V201.48H72.4331V203.34H73.7331V212.5ZM84.7338 203.22C86.4338 203.22 87.7738 204.3 87.8138 206H81.7138C81.9538 204.26 83.1938 203.22 84.7338 203.22ZM89.8937 209.22H87.4338C87.0138 210.08 86.2338 210.76 84.8338 210.76C83.1538 210.76 81.8538 209.66 81.6938 207.84H90.1138C90.1738 207.46 90.1938 207.1 90.1938 206.72C90.1938 203.48 87.9738 201.3 84.8338 201.3C81.5738 201.3 79.3338 203.52 79.3338 206.98C79.3338 210.44 81.6738 212.68 84.8338 212.68C87.5338 212.68 89.2738 211.14 89.8937 209.22ZM100.658 209.42C100.538 205.44 94.3175 206.68 94.3175 204.46C94.3175 203.72 94.9575 203.22 96.1775 203.22C97.4175 203.22 98.1575 203.88 98.2375 204.84H100.518C100.398 202.64 98.7575 201.3 96.2575 201.3C93.6575 201.3 92.0175 202.72 92.0175 204.48C92.0175 208.52 98.4175 207.28 98.4175 209.44C98.4175 210.2 97.7175 210.76 96.3975 210.76C95.1375 210.76 94.2775 210.02 94.1975 209.12H91.8375C91.9375 211.12 93.7975 212.68 96.4375 212.68C99.0375 212.68 100.658 211.28 100.658 209.42ZM111.341 209.42C111.221 205.44 105.001 206.68 105.001 204.46C105.001 203.72 105.641 203.22 106.861 203.22C108.101 203.22 108.841 203.88 108.921 204.84H111.201C111.081 202.64 109.441 201.3 106.941 201.3C104.341 201.3 102.701 202.72 102.701 204.48C102.701 208.52 109.101 207.28 109.101 209.44C109.101 210.2 108.401 210.76 107.081 210.76C105.821 210.76 104.961 210.02 104.881 209.12H102.521C102.621 211.12 104.481 212.68 107.121 212.68C109.721 212.68 111.341 211.28 111.341 209.42ZM113.805 212.5H116.085V201.48H113.805V212.5ZM114.965 200.02C115.765 200.02 116.405 199.38 116.405 198.56C116.405 197.74 115.765 197.1 114.965 197.1C114.145 197.1 113.505 197.74 113.505 198.56C113.505 199.38 114.145 200.02 114.965 200.02ZM129.578 206.98C129.578 203.52 127.098 201.3 123.958 201.3C120.818 201.3 118.338 203.52 118.338 206.98C118.338 210.44 120.718 212.68 123.858 212.68C127.018 212.68 129.578 210.44 129.578 206.98ZM120.658 206.98C120.658 204.48 122.198 203.28 123.918 203.28C125.618 203.28 127.238 204.48 127.238 206.98C127.238 209.48 125.558 210.7 123.858 210.7C122.138 210.7 120.658 209.48 120.658 206.98ZM139.652 212.5H141.912V206C141.912 202.92 139.972 201.3 137.392 201.3C136.072 201.3 134.852 201.84 134.112 202.74V201.48H131.832V212.5H134.112V206.34C134.112 204.32 135.212 203.28 136.892 203.28C138.552 203.28 139.652 204.32 139.652 206.34V212.5ZM144.06 206.94C144.06 210.34 146.36 212.68 149.22 212.68C151.06 212.68 152.38 211.8 153.08 210.86V212.5H155.38V201.48H153.08V203.08C152.4 202.18 151.12 201.3 149.26 201.3C146.36 201.3 144.06 203.54 144.06 206.94ZM153.08 206.98C153.08 209.36 151.46 210.7 149.74 210.7C148.04 210.7 146.4 209.32 146.4 206.94C146.4 204.56 148.04 203.28 149.74 203.28C151.46 203.28 153.08 204.62 153.08 206.98ZM158.375 212.5H160.655V197.7H158.375V212.5ZM176.524 198.58H168.844V212.5H176.524V210.64H171.124V206.38H175.924V204.52H171.124V200.44H176.524V198.58ZM179.692 209.44C179.692 211.68 180.912 212.5 182.872 212.5H184.672V210.6H183.272C182.312 210.6 181.992 210.26 181.992 209.44V203.34H184.672V201.48H181.992V198.74H179.692V201.48H178.392V203.34H179.692V209.44ZM186.773 212.5H189.053V206.34C189.053 204.32 190.153 203.28 191.833 203.28C193.493 203.28 194.593 204.32 194.593 206.34V212.5H196.853V206C196.853 202.92 194.933 201.3 192.473 201.3C191.053 201.3 189.813 201.84 189.053 202.76V197.7H186.773V212.5ZM199.762 212.5H202.042V201.48H199.762V212.5ZM200.922 200.02C201.722 200.02 202.362 199.38 202.362 198.56C202.362 197.74 201.722 197.1 200.922 197.1C200.102 197.1 199.462 197.74 199.462 198.56C199.462 199.38 200.102 200.02 200.922 200.02ZM204.275 206.98C204.275 210.44 206.515 212.68 209.675 212.68C212.375 212.68 214.135 211.18 214.755 209.02H212.295C211.875 210.16 211.035 210.76 209.675 210.76C207.835 210.76 206.615 209.4 206.615 206.98C206.615 204.58 207.835 203.22 209.675 203.22C211.035 203.22 211.915 203.9 212.295 204.96H214.755C214.135 202.64 212.375 201.3 209.675 201.3C206.515 201.3 204.275 203.54 204.275 206.98ZM225.247 209.42C225.127 205.44 218.907 206.68 218.907 204.46C218.907 203.72 219.547 203.22 220.767 203.22C222.007 203.22 222.747 203.88 222.827 204.84H225.107C224.987 202.64 223.347 201.3 220.847 201.3C218.247 201.3 216.607 202.72 216.607 204.48C216.607 208.52 223.007 207.28 223.007 209.44C223.007 210.2 222.307 210.76 220.987 210.76C219.727 210.76 218.867 210.02 218.787 209.12H216.427C216.527 211.12 218.387 212.68 221.027 212.68C223.627 212.68 225.247 211.28 225.247 209.42Z" fill="#212832"/>
<rect x="0.5" y="180.5" width="616" height="49" stroke="black" stroke-opacity="0.5"/>
<rect y="351" width="617" height="50" fill="white"/>
<path d="M24.6 379.44C26.08 379.44 27.24 378.3 27.24 376.84C27.24 375.36 26.08 374.22 24.6 374.22C23.16 374.22 22 375.36 22 376.84C22 378.3 23.16 379.44 24.6 379.44ZM50.5089 379.56C50.5089 374.48 43.1489 376.44 43.1489 373.3C43.1489 371.96 44.1689 371.32 45.4889 371.36C46.9289 371.4 47.7489 372.26 47.8289 373.2H50.3489C50.1489 370.82 48.2689 369.42 45.6089 369.42C42.7689 369.42 40.8289 370.94 40.8289 373.38C40.8289 378.5 48.2089 376.32 48.2089 379.68C48.2089 380.86 47.3089 381.72 45.7089 381.72C44.1289 381.72 43.3289 380.8 43.2289 379.66H40.7889C40.7889 382.12 42.9289 383.64 45.7089 383.64C48.8089 383.64 50.5089 381.64 50.5089 379.56ZM55.4792 374.1V372.48H53.1992V388.74H55.4792V381.9C56.1992 382.76 57.4992 383.68 59.3192 383.68C62.2192 383.68 64.4992 381.34 64.4992 377.94C64.4992 374.54 62.2192 372.3 59.3192 372.3C57.5192 372.3 56.1792 373.18 55.4792 374.1ZM62.1792 377.94C62.1792 380.32 60.5392 381.7 58.8192 381.7C57.1192 381.7 55.4792 380.36 55.4792 377.98C55.4792 375.62 57.1192 374.28 58.8192 374.28C60.5392 374.28 62.1792 375.56 62.1792 377.94ZM71.3939 374.22C73.0939 374.22 74.4339 375.3 74.4739 377H68.3739C68.6139 375.26 69.8539 374.22 71.3939 374.22ZM76.5539 380.22H74.0939C73.6739 381.08 72.8939 381.76 71.4939 381.76C69.8139 381.76 68.5139 380.66 68.3539 378.84H76.7739C76.8339 378.46 76.8539 378.1 76.8539 377.72C76.8539 374.48 74.6339 372.3 71.4939 372.3C68.2339 372.3 65.9939 374.52 65.9939 377.98C65.9939 381.44 68.3339 383.68 71.4939 383.68C74.1939 383.68 75.9339 382.14 76.5539 380.22ZM78.3377 377.98C78.3377 381.44 80.5777 383.68 83.7377 383.68C86.4377 383.68 88.1977 382.18 88.8177 380.02H86.3577C85.9377 381.16 85.0977 381.76 83.7377 381.76C81.8977 381.76 80.6777 380.4 80.6777 377.98C80.6777 375.58 81.8977 374.22 83.7377 374.22C85.0977 374.22 85.9777 374.9 86.3577 375.96H88.8177C88.1977 373.64 86.4377 372.3 83.7377 372.3C80.5777 372.3 78.3377 374.54 78.3377 377.98ZM91.0898 383.5H93.3698V372.48H91.0898V383.5ZM92.2498 371.02C93.0498 371.02 93.6898 370.38 93.6898 369.56C93.6898 368.74 93.0498 368.1 92.2498 368.1C91.4298 368.1 90.7898 368.74 90.7898 369.56C90.7898 370.38 91.4298 371.02 92.2498 371.02ZM95.6033 377.94C95.6033 381.34 97.9033 383.68 100.763 383.68C102.603 383.68 103.923 382.8 104.623 381.86V383.5H106.923V372.48H104.623V374.08C103.943 373.18 102.663 372.3 100.803 372.3C97.9033 372.3 95.6033 374.54 95.6033 377.94ZM104.623 377.98C104.623 380.36 103.003 381.7 101.283 381.7C99.5833 381.7 97.9433 380.32 97.9433 377.94C97.9433 375.56 99.5833 374.28 101.283 374.28C103.003 374.28 104.623 375.62 104.623 377.98ZM109.918 383.5H112.198V368.7H109.918V383.5ZM115.191 383.5H117.471V372.48H115.191V383.5ZM116.351 371.02C117.151 371.02 117.791 370.38 117.791 369.56C117.791 368.74 117.151 368.1 116.351 368.1C115.531 368.1 114.891 368.74 114.891 369.56C114.891 370.38 115.531 371.02 116.351 371.02ZM127.485 372.48H119.845V374.34H124.865L119.845 381.64V383.5H127.485V381.64H122.485L127.485 374.34V372.48ZM129.119 377.94C129.119 381.34 131.419 383.68 134.279 383.68C136.119 383.68 137.439 382.8 138.139 381.86V383.5H140.439V372.48H138.139V374.08C137.459 373.18 136.179 372.3 134.319 372.3C131.419 372.3 129.119 374.54 129.119 377.94ZM138.139 377.98C138.139 380.36 136.519 381.7 134.799 381.7C133.099 381.7 131.459 380.32 131.459 377.94C131.459 375.56 133.099 374.28 134.799 374.28C136.519 374.28 138.139 375.62 138.139 377.98ZM143.794 380.44C143.794 382.68 145.014 383.5 146.974 383.5H148.774V381.6H147.374C146.414 381.6 146.094 381.26 146.094 380.44V374.34H148.774V372.48H146.094V369.74H143.794V372.48H142.494V374.34H143.794V380.44ZM150.875 383.5H153.155V372.48H150.875V383.5ZM152.035 371.02C152.835 371.02 153.475 370.38 153.475 369.56C153.475 368.74 152.835 368.1 152.035 368.1C151.215 368.1 150.575 368.74 150.575 369.56C150.575 370.38 151.215 371.02 152.035 371.02ZM166.648 377.98C166.648 374.52 164.168 372.3 161.028 372.3C157.888 372.3 155.408 374.52 155.408 377.98C155.408 381.44 157.788 383.68 160.928 383.68C164.088 383.68 166.648 381.44 166.648 377.98ZM157.728 377.98C157.728 375.48 159.268 374.28 160.988 374.28C162.688 374.28 164.308 375.48 164.308 377.98C164.308 380.48 162.628 381.7 160.928 381.7C159.208 381.7 157.728 380.48 157.728 377.98ZM176.722 383.5H178.982V377C178.982 373.92 177.042 372.3 174.462 372.3C173.142 372.3 171.922 372.84 171.182 373.74V372.48H168.902V383.5H171.182V377.34C171.182 375.32 172.282 374.28 173.962 374.28C175.622 374.28 176.722 375.32 176.722 377.34V383.5ZM187.086 383.5H189.366V369.6H187.086V383.5ZM192.359 383.5H194.639V369.6H192.359V383.5ZM197.633 383.5H199.913V369.6H197.633V383.5ZM212.582 368.78H210.722L211.122 371.7L208.782 369.9L207.862 371.54L210.582 372.52L207.862 373.54L208.822 375.24L211.102 373.4L210.722 376.3H212.562L212.142 373.4L214.422 375.2L215.342 373.56L212.602 372.54L215.342 371.52L214.442 369.92L212.142 371.7L212.582 368.78Z" fill="#212832"/>
<rect x="0.5" y="351.5" width="616" height="49" stroke="black" stroke-opacity="0.5"/>
<rect y="123" width="617" height="50" fill="white"/>
<path d="M24.6 151.44C26.08 151.44 27.24 150.3 27.24 148.84C27.24 147.36 26.08 146.22 24.6 146.22C23.16 146.22 22 147.36 22 148.84C22 150.3 23.16 151.44 24.6 151.44ZM41.1089 150.42C41.1089 153.96 43.5889 155.64 46.5089 155.64C49.4089 155.64 51.9689 153.96 51.9689 150.42V141.6H49.6889V150.46C49.6889 152.62 48.4689 153.64 46.5289 153.64C44.6089 153.64 43.3889 152.62 43.3889 150.46V141.6H41.1089V150.42ZM64.0775 141.58V151.94L57.2175 141.58H54.9375V155.5H57.2175V145.12L64.0775 155.5H66.3575V141.58H64.0775ZM69.3516 155.5H71.6316V141.6H69.3516V155.5ZM82.765 155.5H85.325L81.005 148.56L85.345 141.6H82.805L79.845 146.68L76.685 141.6H74.125L78.465 148.56L74.145 155.5H76.685L79.625 150.46L82.765 155.5ZM92.7434 159H94.9834L100.423 136.62H98.1634L92.7434 159ZM108.492 141.6V155.5H115.472V153.66H110.772V141.6H108.492ZM117.379 155.5H119.659V144.48H117.379V155.5ZM118.539 143.02C119.339 143.02 119.979 142.38 119.979 141.56C119.979 140.74 119.339 140.1 118.539 140.1C117.719 140.1 117.079 140.74 117.079 141.56C117.079 142.38 117.719 143.02 118.539 143.02ZM130.472 155.5H132.732V149C132.732 145.92 130.792 144.3 128.212 144.3C126.892 144.3 125.672 144.84 124.932 145.74V144.48H122.652V155.5H124.932V149.34C124.932 147.32 126.032 146.28 127.712 146.28C129.372 146.28 130.472 147.32 130.472 149.34V155.5ZM145.621 144.48H143.341V150.62C143.341 152.64 142.241 153.68 140.561 153.68C138.901 153.68 137.801 152.64 137.801 150.62V144.48H135.541V150.96C135.541 154.04 137.501 155.66 140.081 155.66C141.381 155.66 142.621 155.12 143.341 154.18V155.5H145.621V144.48ZM154.329 155.5H156.909L153.349 149.92L156.909 144.48H154.529L152.289 148.22L149.909 144.48H147.329L150.889 150.08L147.329 155.5H149.709L151.949 151.76L154.329 155.5ZM166.085 148V143.46H168.605C170.385 143.46 171.185 144.3 171.185 145.74C171.185 147.14 170.385 148 168.605 148H166.085ZM173.525 145.74C173.525 143.48 171.905 141.6 168.605 141.6H163.805V155.5H166.085V149.86H168.605C172.225 149.86 173.525 147.72 173.525 145.74ZM177.979 149.7C177.979 147.36 179.019 146.66 180.699 146.66H181.279V144.3C179.719 144.3 178.619 144.98 177.979 146.08V144.48H175.699V155.5H177.979V149.7ZM193.875 149.98C193.875 146.52 191.395 144.3 188.255 144.3C185.115 144.3 182.635 146.52 182.635 149.98C182.635 153.44 185.015 155.68 188.155 155.68C191.315 155.68 193.875 153.44 193.875 149.98ZM184.955 149.98C184.955 147.48 186.495 146.28 188.215 146.28C189.915 146.28 191.535 147.48 191.535 149.98C191.535 152.48 189.855 153.7 188.155 153.7C186.435 153.7 184.955 152.48 184.955 149.98ZM195.369 149.94C195.369 153.34 197.669 155.68 200.569 155.68C202.369 155.68 203.689 154.78 204.389 153.84V155.68C204.389 157.88 203.069 158.96 201.309 158.96C199.729 158.96 198.509 158.18 198.169 157.04H195.909C196.189 159.48 198.369 160.94 201.309 160.94C204.749 160.94 206.689 158.68 206.689 155.68V144.48H204.389V146.08C203.709 145.14 202.369 144.3 200.569 144.3C197.669 144.3 195.369 146.54 195.369 149.94ZM204.389 149.98C204.389 152.36 202.769 153.7 201.049 153.7C199.349 153.7 197.709 152.32 197.709 149.94C197.709 147.56 199.349 146.28 201.049 146.28C202.769 146.28 204.389 147.62 204.389 149.98ZM211.964 149.7C211.964 147.36 213.004 146.66 214.684 146.66H215.264V144.3C213.704 144.3 212.604 144.98 211.964 146.08V144.48H209.684V155.5H211.964V149.7ZM216.599 149.94C216.599 153.34 218.899 155.68 221.759 155.68C223.599 155.68 224.919 154.8 225.619 153.86V155.5H227.919V144.48H225.619V146.08C224.939 145.18 223.659 144.3 221.799 144.3C218.899 144.3 216.599 146.54 216.599 149.94ZM225.619 149.98C225.619 152.36 223.999 153.7 222.279 153.7C220.579 153.7 218.939 152.32 218.939 149.94C218.939 147.56 220.579 146.28 222.279 146.28C223.999 146.28 225.619 147.62 225.619 149.98ZM246.534 155.5H248.794V149C248.794 145.92 246.834 144.3 244.254 144.3C242.654 144.3 241.094 145.14 240.414 146.48C239.654 145.04 238.194 144.3 236.454 144.3C235.134 144.3 233.934 144.84 233.194 145.74V144.48H230.914V155.5H233.194V149.34C233.194 147.32 234.294 146.28 235.974 146.28C237.634 146.28 238.734 147.32 238.734 149.34V155.5H240.994V149.34C240.994 147.32 242.094 146.28 243.774 146.28C245.434 146.28 246.534 147.32 246.534 149.34V155.5ZM267.315 155.5H269.575V149C269.575 145.92 267.615 144.3 265.035 144.3C263.435 144.3 261.875 145.14 261.195 146.48C260.435 145.04 258.975 144.3 257.235 144.3C255.915 144.3 254.715 144.84 253.975 145.74V144.48H251.695V155.5H253.975V149.34C253.975 147.32 255.075 146.28 256.755 146.28C258.415 146.28 259.515 147.32 259.515 149.34V155.5H261.775V149.34C261.775 147.32 262.875 146.28 264.555 146.28C266.215 146.28 267.315 147.32 267.315 149.34V155.5ZM272.477 155.5H274.757V144.48H272.477V155.5ZM273.637 143.02C274.437 143.02 275.077 142.38 275.077 141.56C275.077 140.74 274.437 140.1 273.637 140.1C272.817 140.1 272.177 140.74 272.177 141.56C272.177 142.38 272.817 143.02 273.637 143.02ZM285.57 155.5H287.83V149C287.83 145.92 285.89 144.3 283.31 144.3C281.99 144.3 280.77 144.84 280.03 145.74V144.48H277.75V155.5H280.03V149.34C280.03 147.32 281.13 146.28 282.81 146.28C284.47 146.28 285.57 147.32 285.57 149.34V155.5ZM289.978 149.94C289.978 153.34 292.278 155.68 295.178 155.68C296.978 155.68 298.298 154.78 298.998 153.84V155.68C298.998 157.88 297.678 158.96 295.918 158.96C294.338 158.96 293.118 158.18 292.778 157.04H290.518C290.798 159.48 292.978 160.94 295.918 160.94C299.358 160.94 301.298 158.68 301.298 155.68V144.48H298.998V146.08C298.318 145.14 296.978 144.3 295.178 144.3C292.278 144.3 289.978 146.54 289.978 149.94ZM298.998 149.98C298.998 152.36 297.378 153.7 295.658 153.7C293.958 153.7 292.318 152.32 292.318 149.94C292.318 147.56 293.958 146.28 295.658 146.28C297.378 146.28 298.998 147.62 298.998 149.98Z" fill="#212832"/>
<rect x="0.5" y="123.5" width="616" height="49" stroke="black" stroke-opacity="0.5"/>
<rect y="294" width="617" height="50" fill="white"/>
<path d="M24.6 322.44C26.08 322.44 27.24 321.3 27.24 319.84C27.24 318.36 26.08 317.22 24.6 317.22C23.16 317.22 22 318.36 22 319.84C22 321.3 23.16 322.44 24.6 322.44ZM50.5089 322.56C50.5089 317.48 43.1489 319.44 43.1489 316.3C43.1489 314.96 44.1689 314.32 45.4889 314.36C46.9289 314.4 47.7489 315.26 47.8289 316.2H50.3489C50.1489 313.82 48.2689 312.42 45.6089 312.42C42.7689 312.42 40.8289 313.94 40.8289 316.38C40.8289 321.5 48.2089 319.32 48.2089 322.68C48.2089 323.86 47.3089 324.72 45.7089 324.72C44.1289 324.72 43.3289 323.8 43.2289 322.66H40.7889C40.7889 325.12 42.9289 326.64 45.7089 326.64C48.8089 326.64 50.5089 324.64 50.5089 322.56ZM57.8392 317.22C59.5392 317.22 60.8792 318.3 60.9192 320H54.8192C55.0592 318.26 56.2992 317.22 57.8392 317.22ZM62.9992 323.22H60.5392C60.1192 324.08 59.3392 324.76 57.9392 324.76C56.2592 324.76 54.9592 323.66 54.7992 321.84H63.2192C63.2792 321.46 63.2992 321.1 63.2992 320.72C63.2992 317.48 61.0792 315.3 57.9392 315.3C54.6792 315.3 52.4392 317.52 52.4392 320.98C52.4392 324.44 54.7792 326.68 57.9392 326.68C60.6392 326.68 62.3792 325.14 62.9992 323.22ZM81.163 326.5H83.423V320C83.423 316.92 81.463 315.3 78.883 315.3C77.283 315.3 75.723 316.14 75.043 317.48C74.283 316.04 72.823 315.3 71.083 315.3C69.763 315.3 68.563 315.84 67.823 316.74V315.48H65.543V326.5H67.823V320.34C67.823 318.32 68.923 317.28 70.603 317.28C72.263 317.28 73.363 318.32 73.363 320.34V326.5H75.623V320.34C75.623 318.32 76.723 317.28 78.403 317.28C80.063 317.28 81.163 318.32 81.163 320.34V326.5ZM86.3242 326.5H88.6042V315.48H86.3242V326.5ZM87.4842 314.02C88.2842 314.02 88.9242 313.38 88.9242 312.56C88.9242 311.74 88.2842 311.1 87.4842 311.1C86.6642 311.1 86.0242 311.74 86.0242 312.56C86.0242 313.38 86.6642 314.02 87.4842 314.02ZM99.4177 326.5H101.678V320C101.678 316.92 99.7377 315.3 97.1577 315.3C95.8377 315.3 94.6177 315.84 93.8777 316.74V315.48H91.5977V326.5H93.8777V320.34C93.8777 318.32 94.9777 317.28 96.6577 317.28C98.3177 317.28 99.4177 318.32 99.4177 320.34V326.5ZM103.826 320.94C103.826 324.34 106.126 326.68 108.986 326.68C110.826 326.68 112.146 325.8 112.846 324.86V326.5H115.146V315.48H112.846V317.08C112.166 316.18 110.886 315.3 109.026 315.3C106.126 315.3 103.826 317.54 103.826 320.94ZM112.846 320.98C112.846 323.36 111.226 324.7 109.506 324.7C107.806 324.7 106.166 323.32 106.166 320.94C106.166 318.56 107.806 317.28 109.506 317.28C111.226 317.28 112.846 318.62 112.846 320.98ZM120.421 320.7C120.421 318.36 121.461 317.66 123.141 317.66H123.721V315.3C122.161 315.3 121.061 315.98 120.421 317.08V315.48H118.141V326.5H120.421V320.7ZM138.412 330.22V330C135.612 327.12 134.192 323.18 134.192 319.22C134.192 315.26 135.612 310.98 138.812 308.04V307.82H136.452C133.412 310.52 131.992 314.86 131.992 319.22C131.992 323.58 133.412 327.68 136.052 330.22H138.412ZM148.535 312.58H140.855V326.5H148.535V324.64H143.135V320.38H147.935V318.52H143.135V314.44H148.535V312.58ZM150.044 315.48L154.224 326.5H156.944L161.144 315.48H158.724L155.604 324.46L152.484 315.48H150.044ZM162.107 320.94C162.107 324.34 164.407 326.68 167.267 326.68C169.107 326.68 170.427 325.8 171.127 324.86V326.5H173.427V315.48H171.127V317.08C170.447 316.18 169.167 315.3 167.307 315.3C164.407 315.3 162.107 317.54 162.107 320.94ZM171.127 320.98C171.127 323.36 169.507 324.7 167.787 324.7C166.087 324.7 164.447 323.32 164.447 320.94C164.447 318.56 166.087 317.28 167.787 317.28C169.507 317.28 171.127 318.62 171.127 320.98ZM176.422 326.5H178.702V311.7H176.422V326.5ZM191.675 315.48H189.395V321.62C189.395 323.64 188.295 324.68 186.615 324.68C184.955 324.68 183.855 323.64 183.855 321.62V315.48H181.595V321.96C181.595 325.04 183.555 326.66 186.135 326.66C187.435 326.66 188.675 326.12 189.395 325.18V326.5H191.675V315.48ZM193.924 320.94C193.924 324.34 196.224 326.68 199.084 326.68C200.924 326.68 202.244 325.8 202.944 324.86V326.5H205.244V315.48H202.944V317.08C202.264 316.18 200.984 315.3 199.124 315.3C196.224 315.3 193.924 317.54 193.924 320.94ZM202.944 320.98C202.944 323.36 201.324 324.7 199.604 324.7C197.904 324.7 196.264 323.32 196.264 320.94C196.264 318.56 197.904 317.28 199.604 317.28C201.324 317.28 202.944 318.62 202.944 320.98ZM208.598 323.44C208.598 325.68 209.818 326.5 211.778 326.5H213.578V324.6H212.178C211.218 324.6 210.898 324.26 210.898 323.44V317.34H213.578V315.48H210.898V312.74H208.598V315.48H207.298V317.34H208.598V323.44ZM215.68 326.5H217.96V315.48H215.68V326.5ZM216.84 314.02C217.64 314.02 218.28 313.38 218.28 312.56C218.28 311.74 217.64 311.1 216.84 311.1C216.02 311.1 215.38 311.74 215.38 312.56C215.38 313.38 216.02 314.02 216.84 314.02ZM231.453 320.98C231.453 317.52 228.973 315.3 225.833 315.3C222.693 315.3 220.213 317.52 220.213 320.98C220.213 324.44 222.593 326.68 225.733 326.68C228.893 326.68 231.453 324.44 231.453 320.98ZM222.533 320.98C222.533 318.48 224.073 317.28 225.793 317.28C227.493 317.28 229.113 318.48 229.113 320.98C229.113 323.48 227.433 324.7 225.733 324.7C224.013 324.7 222.533 323.48 222.533 320.98ZM241.527 326.5H243.787V320C243.787 316.92 241.847 315.3 239.267 315.3C237.947 315.3 236.727 315.84 235.987 316.74V315.48H233.707V326.5H235.987V320.34C235.987 318.32 237.087 317.28 238.767 317.28C240.427 317.28 241.527 318.32 241.527 320.34V326.5ZM246.135 330.22V330C248.935 327.12 250.355 323.18 250.355 319.22C250.355 315.26 248.935 310.98 245.735 308.04V307.82H248.095C251.135 310.52 252.555 314.86 252.555 319.22C252.555 323.58 251.135 327.68 248.495 330.22H246.135Z" fill="#212832"/>
<rect x="0.5" y="294.5" width="616" height="49" stroke="black" stroke-opacity="0.5"/>
<rect y="237" width="617" height="50" fill="white"/>
<path d="M24.6 265.44C26.08 265.44 27.24 264.3 27.24 262.84C27.24 261.36 26.08 260.22 24.6 260.22C23.16 260.22 22 261.36 22 262.84C22 264.3 23.16 265.44 24.6 265.44ZM42.7089 262.52C42.7089 259.38 44.7089 257.42 47.4689 257.42C50.2289 257.42 52.2289 259.38 52.2289 262.52C52.2289 265.66 50.2289 267.66 47.4689 267.66C44.7089 267.66 42.7089 265.66 42.7089 262.52ZM54.5689 262.52C54.5689 258.36 51.4289 255.42 47.4689 255.42C43.5489 255.42 40.3689 258.36 40.3689 262.52C40.3689 266.7 43.5489 269.64 47.4689 269.64C48.1689 269.64 48.8289 269.56 49.4489 269.38L51.8889 272.02H54.7889L51.4489 268.48C53.3489 267.26 54.5689 265.14 54.5689 262.52ZM66.8511 258.48H64.5711V264.62C64.5711 266.64 63.4711 267.68 61.7911 267.68C60.1311 267.68 59.0311 266.64 59.0311 264.62V258.48H56.7711V264.96C56.7711 268.04 58.7311 269.66 61.3111 269.66C62.6111 269.66 63.8511 269.12 64.5711 268.18V269.5H66.8511V258.48ZM69.0994 263.94C69.0994 267.34 71.3994 269.68 74.2594 269.68C76.0994 269.68 77.4194 268.8 78.1194 267.86V269.5H80.4194V258.48H78.1194V260.08C77.4394 259.18 76.1594 258.3 74.2994 258.3C71.3994 258.3 69.0994 260.54 69.0994 263.94ZM78.1194 263.98C78.1194 266.36 76.4994 267.7 74.7794 267.7C73.0794 267.7 71.4394 266.32 71.4394 263.94C71.4394 261.56 73.0794 260.28 74.7794 260.28C76.4994 260.28 78.1194 261.62 78.1194 263.98ZM91.2341 269.5H93.4941V263C93.4941 259.92 91.5541 258.3 88.9741 258.3C87.6541 258.3 86.4341 258.84 85.6941 259.74V258.48H83.4141V269.5H85.6941V263.34C85.6941 261.32 86.7941 260.28 88.4741 260.28C90.1341 260.28 91.2341 261.32 91.2341 263.34V269.5ZM96.7623 266.44C96.7623 268.68 97.9823 269.5 99.9423 269.5H101.742V267.6H100.342C99.3823 267.6 99.0623 267.26 99.0623 266.44V260.34H101.742V258.48H99.0623V255.74H96.7623V258.48H95.4623V260.34H96.7623V266.44ZM103.844 269.5H106.124V258.48H103.844V269.5ZM105.004 257.02C105.804 257.02 106.444 256.38 106.444 255.56C106.444 254.74 105.804 254.1 105.004 254.1C104.184 254.1 103.544 254.74 103.544 255.56C103.544 256.38 104.184 257.02 105.004 257.02ZM109.477 266.44C109.477 268.68 110.697 269.5 112.657 269.5H114.457V267.6H113.057C112.097 267.6 111.777 267.26 111.777 266.44V260.34H114.457V258.48H111.777V255.74H109.477V258.48H108.177V260.34H109.477V266.44ZM115.799 263.94C115.799 267.34 118.099 269.68 120.959 269.68C122.799 269.68 124.119 268.8 124.819 267.86V269.5H127.119V258.48H124.819V260.08C124.139 259.18 122.859 258.3 120.999 258.3C118.099 258.3 115.799 260.54 115.799 263.94ZM124.819 263.98C124.819 266.36 123.199 267.7 121.479 267.7C119.779 267.7 118.139 266.32 118.139 263.94C118.139 261.56 119.779 260.28 121.479 260.28C123.199 260.28 124.819 261.62 124.819 263.98ZM130.473 266.44C130.473 268.68 131.693 269.5 133.653 269.5H135.453V267.6H134.053C133.093 267.6 132.773 267.26 132.773 266.44V260.34H135.453V258.48H132.773V255.74H130.473V258.48H129.173V260.34H130.473V266.44ZM137.555 269.5H139.835V258.48H137.555V269.5ZM138.715 257.02C139.515 257.02 140.155 256.38 140.155 255.56C140.155 254.74 139.515 254.1 138.715 254.1C137.895 254.1 137.255 254.74 137.255 255.56C137.255 256.38 137.895 257.02 138.715 257.02ZM141.528 258.48L145.708 269.5H148.428L152.628 258.48H150.208L147.088 267.46L143.968 258.48H141.528ZM158.992 260.22C160.692 260.22 162.032 261.3 162.072 263H155.972C156.212 261.26 157.452 260.22 158.992 260.22ZM164.152 266.22H161.692C161.272 267.08 160.492 267.76 159.092 267.76C157.412 267.76 156.112 266.66 155.952 264.84H164.372C164.432 264.46 164.452 264.1 164.452 263.72C164.452 260.48 162.232 258.3 159.092 258.3C155.832 258.3 153.592 260.52 153.592 263.98C153.592 267.44 155.932 269.68 159.092 269.68C161.792 269.68 163.532 268.14 164.152 266.22ZM181.271 269.5H183.671L178.691 255.58H176.051L171.071 269.5H173.451L174.451 266.66H180.271L181.271 269.5ZM179.631 264.8H175.091L177.371 258.34L179.631 264.8ZM188.116 260.1V258.48H185.836V274.74H188.116V267.9C188.836 268.76 190.136 269.68 191.956 269.68C194.856 269.68 197.136 267.34 197.136 263.94C197.136 260.54 194.856 258.3 191.956 258.3C190.156 258.3 188.816 259.18 188.116 260.1ZM194.816 263.94C194.816 266.32 193.176 267.7 191.456 267.7C189.756 267.7 188.116 266.36 188.116 263.98C188.116 261.62 189.756 260.28 191.456 260.28C193.176 260.28 194.816 261.56 194.816 263.94ZM199.751 266.44C199.751 268.68 200.971 269.5 202.931 269.5H204.731V267.6H203.331C202.371 267.6 202.051 267.26 202.051 266.44V260.34H204.731V258.48H202.051V255.74H199.751V258.48H198.451V260.34H199.751V266.44ZM206.832 269.5H209.112V258.48H206.832V269.5ZM207.992 257.02C208.792 257.02 209.432 256.38 209.432 255.56C209.432 254.74 208.792 254.1 207.992 254.1C207.172 254.1 206.532 254.74 206.532 255.56C206.532 256.38 207.172 257.02 207.992 257.02ZM212.465 266.44C212.465 268.68 213.685 269.5 215.645 269.5H217.445V267.6H216.045C215.085 267.6 214.765 267.26 214.765 266.44V260.34H217.445V258.48H214.765V255.74H212.465V258.48H211.165V260.34H212.465V266.44ZM229.527 258.48H227.247V264.62C227.247 266.64 226.147 267.68 224.467 267.68C222.807 267.68 221.707 266.64 221.707 264.62V258.48H219.447V264.96C219.447 268.04 221.407 269.66 223.987 269.66C225.287 269.66 226.527 269.12 227.247 268.18V269.5H229.527V258.48ZM231.775 263.94C231.775 267.34 234.075 269.68 236.975 269.68C238.775 269.68 240.095 268.84 240.795 267.84V269.5H243.095V254.7H240.795V260.02C239.955 258.98 238.435 258.3 236.995 258.3C234.075 258.3 231.775 260.54 231.775 263.94ZM240.795 263.98C240.795 266.36 239.175 267.7 237.455 267.7C235.755 267.7 234.115 266.32 234.115 263.94C234.115 261.56 235.755 260.28 237.455 260.28C239.175 260.28 240.795 261.62 240.795 263.98ZM250.73 260.22C252.43 260.22 253.77 261.3 253.81 263H247.71C247.95 261.26 249.19 260.22 250.73 260.22ZM255.89 266.22H253.43C253.01 267.08 252.23 267.76 250.83 267.76C249.15 267.76 247.85 266.66 247.69 264.84H256.11C256.17 264.46 256.19 264.1 256.19 263.72C256.19 260.48 253.97 258.3 250.83 258.3C247.57 258.3 245.33 260.52 245.33 263.98C245.33 267.44 247.67 269.68 250.83 269.68C253.53 269.68 255.27 268.14 255.89 266.22Z" fill="#212832"/>
<rect x="0.5" y="237.5" width="616" height="49" stroke="black" stroke-opacity="0.5"/>
<rect y="408" width="617" height="50" fill="white"/>
<path d="M24.6 436.44C26.08 436.44 27.24 435.3 27.24 433.84C27.24 432.36 26.08 431.22 24.6 431.22C23.16 431.22 22 432.36 22 433.84C22 435.3 23.16 436.44 24.6 436.44ZM50.5089 436.56C50.5089 431.48 43.1489 433.44 43.1489 430.3C43.1489 428.96 44.1689 428.32 45.4889 428.36C46.9289 428.4 47.7489 429.26 47.8289 430.2H50.3489C50.1489 427.82 48.2689 426.42 45.6089 426.42C42.7689 426.42 40.8289 427.94 40.8289 430.38C40.8289 435.5 48.2089 433.32 48.2089 436.68C48.2089 437.86 47.3089 438.72 45.7089 438.72C44.1289 438.72 43.3289 437.8 43.2289 436.66H40.7889C40.7889 439.12 42.9289 440.64 45.7089 440.64C48.8089 440.64 50.5089 438.64 50.5089 436.56ZM55.4792 431.1V429.48H53.1992V445.74H55.4792V438.9C56.1992 439.76 57.4992 440.68 59.3192 440.68C62.2192 440.68 64.4992 438.34 64.4992 434.94C64.4992 431.54 62.2192 429.3 59.3192 429.3C57.5192 429.3 56.1792 430.18 55.4792 431.1ZM62.1792 434.94C62.1792 437.32 60.5392 438.7 58.8192 438.7C57.1192 438.7 55.4792 437.36 55.4792 434.98C55.4792 432.62 57.1192 431.28 58.8192 431.28C60.5392 431.28 62.1792 432.56 62.1792 434.94ZM71.3939 431.22C73.0939 431.22 74.4339 432.3 74.4739 434H68.3739C68.6139 432.26 69.8539 431.22 71.3939 431.22ZM76.5539 437.22H74.0939C73.6739 438.08 72.8939 438.76 71.4939 438.76C69.8139 438.76 68.5139 437.66 68.3539 435.84H76.7739C76.8339 435.46 76.8539 435.1 76.8539 434.72C76.8539 431.48 74.6339 429.3 71.4939 429.3C68.2339 429.3 65.9939 431.52 65.9939 434.98C65.9939 438.44 68.3339 440.68 71.4939 440.68C74.1939 440.68 75.9339 439.14 76.5539 437.22ZM78.3377 434.98C78.3377 438.44 80.5777 440.68 83.7377 440.68C86.4377 440.68 88.1977 439.18 88.8177 437.02H86.3577C85.9377 438.16 85.0977 438.76 83.7377 438.76C81.8977 438.76 80.6777 437.4 80.6777 434.98C80.6777 432.58 81.8977 431.22 83.7377 431.22C85.0977 431.22 85.9777 431.9 86.3577 432.96H88.8177C88.1977 430.64 86.4377 429.3 83.7377 429.3C80.5777 429.3 78.3377 431.54 78.3377 434.98ZM91.0898 440.5H93.3698V429.48H91.0898V440.5ZM92.2498 428.02C93.0498 428.02 93.6898 427.38 93.6898 426.56C93.6898 425.74 93.0498 425.1 92.2498 425.1C91.4298 425.1 90.7898 425.74 90.7898 426.56C90.7898 427.38 91.4298 428.02 92.2498 428.02ZM95.6033 434.94C95.6033 438.34 97.9033 440.68 100.763 440.68C102.603 440.68 103.923 439.8 104.623 438.86V440.5H106.923V429.48H104.623V431.08C103.943 430.18 102.663 429.3 100.803 429.3C97.9033 429.3 95.6033 431.54 95.6033 434.94ZM104.623 434.98C104.623 437.36 103.003 438.7 101.283 438.7C99.5833 438.7 97.9433 437.32 97.9433 434.94C97.9433 432.56 99.5833 431.28 101.283 431.28C103.003 431.28 104.623 432.62 104.623 434.98ZM109.918 440.5H112.198V425.7H109.918V440.5ZM115.191 440.5H117.471V429.48H115.191V440.5ZM116.351 428.02C117.151 428.02 117.791 427.38 117.791 426.56C117.791 425.74 117.151 425.1 116.351 425.1C115.531 425.1 114.891 425.74 114.891 426.56C114.891 427.38 115.531 428.02 116.351 428.02ZM127.485 429.48H119.845V431.34H124.865L119.845 438.64V440.5H127.485V438.64H122.485L127.485 431.34V429.48ZM129.119 434.94C129.119 438.34 131.419 440.68 134.279 440.68C136.119 440.68 137.439 439.8 138.139 438.86V440.5H140.439V429.48H138.139V431.08C137.459 430.18 136.179 429.3 134.319 429.3C131.419 429.3 129.119 431.54 129.119 434.94ZM138.139 434.98C138.139 437.36 136.519 438.7 134.799 438.7C133.099 438.7 131.459 437.32 131.459 434.94C131.459 432.56 133.099 431.28 134.799 431.28C136.519 431.28 138.139 432.62 138.139 434.98ZM143.794 437.44C143.794 439.68 145.014 440.5 146.974 440.5H148.774V438.6H147.374C146.414 438.6 146.094 438.26 146.094 437.44V431.34H148.774V429.48H146.094V426.74H143.794V429.48H142.494V431.34H143.794V437.44ZM150.875 440.5H153.155V429.48H150.875V440.5ZM152.035 428.02C152.835 428.02 153.475 427.38 153.475 426.56C153.475 425.74 152.835 425.1 152.035 425.1C151.215 425.1 150.575 425.74 150.575 426.56C150.575 427.38 151.215 428.02 152.035 428.02ZM166.648 434.98C166.648 431.52 164.168 429.3 161.028 429.3C157.888 429.3 155.408 431.52 155.408 434.98C155.408 438.44 157.788 440.68 160.928 440.68C164.088 440.68 166.648 438.44 166.648 434.98ZM157.728 434.98C157.728 432.48 159.268 431.28 160.988 431.28C162.688 431.28 164.308 432.48 164.308 434.98C164.308 437.48 162.628 438.7 160.928 438.7C159.208 438.7 157.728 437.48 157.728 434.98ZM176.722 440.5H178.982V434C178.982 430.92 177.042 429.3 174.462 429.3C173.142 429.3 171.922 429.84 171.182 430.74V429.48H168.902V440.5H171.182V434.34C171.182 432.32 172.282 431.28 173.962 431.28C175.622 431.28 176.722 432.32 176.722 434.34V440.5ZM187.086 440.5H189.366V426.6H187.086V440.5ZM197.799 438.16L193.679 426.6H191.239L196.479 440.5H199.119L204.339 426.6H201.939L197.799 438.16ZM215.921 425.78H214.061L214.461 428.7L212.121 426.9L211.201 428.54L213.921 429.52L211.201 430.54L212.161 432.24L214.441 430.4L214.061 433.3H215.901L215.481 430.4L217.761 432.2L218.681 430.56L215.941 429.54L218.681 428.52L217.781 426.92L215.481 428.7L215.921 425.78Z" fill="#212832"/>
<rect x="0.5" y="408.5" width="616" height="49" stroke="black" stroke-opacity="0.5"/>
</svg>
