<svg width="617" height="400" viewBox="0 0 617 400" fill="none" xmlns="http://www.w3.org/2000/svg">
<rect y="65" width="617" height="50" fill="white"/>
<path d="M24.6 93.44C26.08 93.44 27.24 92.3 27.24 90.84C27.24 89.36 26.08 88.22 24.6 88.22C23.16 88.22 22 89.36 22 90.84C22 92.3 23.16 93.44 24.6 93.44ZM48.5089 87.76C48.5089 89.14 47.7089 90.12 45.9289 90.12H43.4089V85.46H45.9289C47.7089 85.46 48.5089 86.36 48.5089 87.76ZM41.1289 83.6V97.5H43.4089V91.94H45.1489L48.3489 97.5H51.0689L47.6289 91.74C49.9689 91.16 50.8489 89.4 50.8489 87.76C50.8489 85.5 49.2289 83.6 45.9289 83.6H41.1289ZM58.4056 88.22C60.1056 88.22 61.4456 89.3 61.4856 91H55.3856C55.6256 89.26 56.8656 88.22 58.4056 88.22ZM63.5656 94.22H61.1056C60.6856 95.08 59.9056 95.76 58.5056 95.76C56.8256 95.76 55.5256 94.66 55.3656 92.84H63.7856C63.8456 92.46 63.8656 92.1 63.8656 91.72C63.8656 88.48 61.6456 86.3 58.5056 86.3C55.2456 86.3 53.0056 88.52 53.0056 91.98C53.0056 95.44 55.3456 97.68 58.5056 97.68C61.2056 97.68 62.9456 96.14 63.5656 94.22ZM74.3294 94.42C74.2094 90.44 67.9894 91.68 67.9894 89.46C67.9894 88.72 68.6294 88.22 69.8494 88.22C71.0894 88.22 71.8294 88.88 71.9094 89.84H74.1894C74.0694 87.64 72.4294 86.3 69.9294 86.3C67.3294 86.3 65.6894 87.72 65.6894 89.48C65.6894 93.52 72.0894 92.28 72.0894 94.44C72.0894 95.2 71.3894 95.76 70.0694 95.76C68.8094 95.76 67.9494 95.02 67.8694 94.12H65.5094C65.6094 96.12 67.4694 97.68 70.1094 97.68C72.7094 97.68 74.3294 96.28 74.3294 94.42ZM81.433 88.22C83.133 88.22 84.473 89.3 84.513 91H78.413C78.653 89.26 79.893 88.22 81.433 88.22ZM86.593 94.22H84.133C83.713 95.08 82.933 95.76 81.533 95.76C79.853 95.76 78.553 94.66 78.393 92.84H86.813C86.873 92.46 86.893 92.1 86.893 91.72C86.893 88.48 84.673 86.3 81.533 86.3C78.273 86.3 76.033 88.52 76.033 91.98C76.033 95.44 78.373 97.68 81.533 97.68C84.233 97.68 85.973 96.14 86.593 94.22ZM88.3767 91.94C88.3767 95.34 90.6767 97.68 93.5367 97.68C95.3767 97.68 96.6967 96.8 97.3967 95.86V97.5H99.6967V86.48H97.3967V88.08C96.7167 87.18 95.4367 86.3 93.5767 86.3C90.6767 86.3 88.3767 88.54 88.3767 91.94ZM97.3967 91.98C97.3967 94.36 95.7767 95.7 94.0567 95.7C92.3567 95.7 90.7167 94.32 90.7167 91.94C90.7167 89.56 92.3567 88.28 94.0567 88.28C95.7767 88.28 97.3967 89.62 97.3967 91.98ZM104.971 91.7C104.971 89.36 106.011 88.66 107.691 88.66H108.271V86.3C106.711 86.3 105.611 86.98 104.971 88.08V86.48H102.691V97.5H104.971V91.7ZM109.607 91.98C109.607 95.44 111.847 97.68 115.007 97.68C117.707 97.68 119.467 96.18 120.087 94.02H117.627C117.207 95.16 116.367 95.76 115.007 95.76C113.167 95.76 111.947 94.4 111.947 91.98C111.947 89.58 113.167 88.22 115.007 88.22C116.367 88.22 117.247 88.9 117.627 89.96H120.087C119.467 87.64 117.707 86.3 115.007 86.3C111.847 86.3 109.607 88.54 109.607 91.98ZM122.359 97.5H124.639V91.34C124.639 89.32 125.739 88.28 127.419 88.28C129.079 88.28 130.179 89.32 130.179 91.34V97.5H132.439V91C132.439 87.92 130.519 86.3 128.059 86.3C126.639 86.3 125.399 86.84 124.639 87.76V82.7H122.359V97.5ZM140.543 97.5H142.823V87.98L147.083 97.5H148.663L152.903 87.98V97.5H155.183V83.6H152.743L147.883 94.5L143.003 83.6H140.543V97.5ZM162.82 88.22C164.52 88.22 165.86 89.3 165.9 91H159.8C160.04 89.26 161.28 88.22 162.82 88.22ZM167.98 94.22H165.52C165.1 95.08 164.32 95.76 162.92 95.76C161.24 95.76 159.94 94.66 159.78 92.84H168.2C168.26 92.46 168.28 92.1 168.28 91.72C168.28 88.48 166.06 86.3 162.92 86.3C159.66 86.3 157.42 88.52 157.42 91.98C157.42 95.44 159.76 97.68 162.92 97.68C165.62 97.68 167.36 96.14 167.98 94.22ZM170.883 94.44C170.883 96.68 172.103 97.5 174.063 97.5H175.863V95.6H174.463C173.503 95.6 173.183 95.26 173.183 94.44V88.34H175.863V86.48H173.183V83.74H170.883V86.48H169.583V88.34H170.883V94.44ZM177.965 97.5H180.245V91.34C180.245 89.32 181.345 88.28 183.025 88.28C184.685 88.28 185.785 89.32 185.785 91.34V97.5H188.045V91C188.045 87.92 186.125 86.3 183.665 86.3C182.245 86.3 181.005 86.84 180.245 87.76V82.7H177.965V97.5ZM201.453 91.98C201.453 88.52 198.973 86.3 195.833 86.3C192.693 86.3 190.213 88.52 190.213 91.98C190.213 95.44 192.593 97.68 195.733 97.68C198.893 97.68 201.453 95.44 201.453 91.98ZM192.533 91.98C192.533 89.48 194.073 88.28 195.793 88.28C197.493 88.28 199.113 89.48 199.113 91.98C199.113 94.48 197.433 95.7 195.733 95.7C194.013 95.7 192.533 94.48 192.533 91.98ZM202.947 91.94C202.947 95.34 205.247 97.68 208.147 97.68C209.947 97.68 211.267 96.84 211.967 95.84V97.5H214.267V82.7H211.967V88.02C211.127 86.98 209.607 86.3 208.167 86.3C205.247 86.3 202.947 88.54 202.947 91.94ZM211.967 91.98C211.967 94.36 210.347 95.7 208.627 95.7C206.927 95.7 205.287 94.32 205.287 91.94C205.287 89.56 206.927 88.28 208.627 88.28C210.347 88.28 211.967 89.62 211.967 91.98ZM227.762 91.98C227.762 88.52 225.282 86.3 222.142 86.3C219.002 86.3 216.522 88.52 216.522 91.98C216.522 95.44 218.902 97.68 222.042 97.68C225.202 97.68 227.762 95.44 227.762 91.98ZM218.842 91.98C218.842 89.48 220.382 88.28 222.102 88.28C223.802 88.28 225.422 89.48 225.422 91.98C225.422 94.48 223.742 95.7 222.042 95.7C220.322 95.7 218.842 94.48 218.842 91.98ZM230.016 97.5H232.296V82.7H230.016V97.5ZM245.789 91.98C245.789 88.52 243.309 86.3 240.169 86.3C237.029 86.3 234.549 88.52 234.549 91.98C234.549 95.44 236.929 97.68 240.069 97.68C243.229 97.68 245.789 95.44 245.789 91.98ZM236.869 91.98C236.869 89.48 238.409 88.28 240.129 88.28C241.829 88.28 243.449 89.48 243.449 91.98C243.449 94.48 241.769 95.7 240.069 95.7C238.349 95.7 236.869 94.48 236.869 91.98ZM247.283 91.94C247.283 95.34 249.583 97.68 252.483 97.68C254.283 97.68 255.603 96.78 256.303 95.84V97.68C256.303 99.88 254.983 100.96 253.223 100.96C251.643 100.96 250.423 100.18 250.083 99.04H247.823C248.103 101.48 250.283 102.94 253.223 102.94C256.663 102.94 258.603 100.68 258.603 97.68V86.48H256.303V88.08C255.623 87.14 254.283 86.3 252.483 86.3C249.583 86.3 247.283 88.54 247.283 91.94ZM256.303 91.98C256.303 94.36 254.683 95.7 252.963 95.7C251.263 95.7 249.623 94.32 249.623 91.94C249.623 89.56 251.263 88.28 252.963 88.28C254.683 88.28 256.303 89.62 256.303 91.98ZM265.938 94.88L262.838 86.48H260.298L264.638 97.32L262.398 102.68H264.758L271.518 86.48H269.158L265.938 94.88Z" fill="#212832"/>
<rect x="0.5" y="65.5" width="616" height="49" stroke="black" stroke-opacity="0.5"/>
<rect y="179" width="617" height="50" fill="white"/>
<path d="M24.6 207.44C26.08 207.44 27.24 206.3 27.24 204.84C27.24 203.36 26.08 202.22 24.6 202.22C23.16 202.22 22 203.36 22 204.84C22 206.3 23.16 207.44 24.6 207.44ZM50.2689 197.58V207.94L43.4089 197.58H41.1289V211.5H43.4089V201.12L50.2689 211.5H52.5489V197.58H50.2689ZM60.183 202.22C61.883 202.22 63.223 203.3 63.263 205H57.163C57.403 203.26 58.643 202.22 60.183 202.22ZM65.343 208.22H62.883C62.463 209.08 61.683 209.76 60.283 209.76C58.603 209.76 57.303 208.66 57.143 206.84H65.563C65.623 206.46 65.643 206.1 65.643 205.72C65.643 202.48 63.423 200.3 60.283 200.3C57.023 200.3 54.783 202.52 54.783 205.98C54.783 209.44 57.123 211.68 60.283 211.68C62.983 211.68 64.723 210.14 65.343 208.22ZM68.2467 208.44C68.2467 210.68 69.4667 211.5 71.4267 211.5H73.2267V209.6H71.8267C70.8667 209.6 70.5467 209.26 70.5467 208.44V202.34H73.2267V200.48H70.5467V197.74H68.2467V200.48H66.9467V202.34H68.2467V208.44ZM77.4681 211.5H79.8681L82.0881 203.36L84.3081 211.5H86.7081L90.1281 200.48H87.8881L85.6081 209.3L83.3681 200.48H80.9881L78.6481 209.34L76.3481 200.48H74.0281L77.4681 211.5ZM102.332 205.98C102.332 202.52 99.852 200.3 96.712 200.3C93.572 200.3 91.092 202.52 91.092 205.98C91.092 209.44 93.472 211.68 96.612 211.68C99.772 211.68 102.332 209.44 102.332 205.98ZM93.412 205.98C93.412 203.48 94.952 202.28 96.672 202.28C98.372 202.28 99.992 203.48 99.992 205.98C99.992 208.48 98.312 209.7 96.612 209.7C94.892 209.7 93.412 208.48 93.412 205.98ZM106.866 205.7C106.866 203.36 107.906 202.66 109.586 202.66H110.166V200.3C108.606 200.3 107.506 200.98 106.866 202.08V200.48H104.586V211.5H106.866V205.7ZM112.262 211.5H114.542V206.76L118.622 211.5H121.702L116.622 206L121.702 200.48H118.542L114.542 205.3V196.7H112.262V211.5ZM137.911 207.56C137.911 202.48 130.551 204.44 130.551 201.3C130.551 199.96 131.571 199.32 132.891 199.36C134.331 199.4 135.151 200.26 135.231 201.2H137.751C137.551 198.82 135.671 197.42 133.011 197.42C130.171 197.42 128.231 198.94 128.231 201.38C128.231 206.5 135.611 204.32 135.611 207.68C135.611 208.86 134.711 209.72 133.111 209.72C131.531 209.72 130.731 208.8 130.631 207.66H128.191C128.191 210.12 130.331 211.64 133.111 211.64C136.211 211.64 137.911 209.64 137.911 207.56ZM145.242 202.22C146.942 202.22 148.282 203.3 148.322 205H142.222C142.462 203.26 143.702 202.22 145.242 202.22ZM150.402 208.22H147.942C147.522 209.08 146.742 209.76 145.342 209.76C143.662 209.76 142.362 208.66 142.202 206.84H150.622C150.682 206.46 150.702 206.1 150.702 205.72C150.702 202.48 148.482 200.3 145.342 200.3C142.082 200.3 139.842 202.52 139.842 205.98C139.842 209.44 142.182 211.68 145.342 211.68C148.042 211.68 149.782 210.14 150.402 208.22ZM152.185 205.98C152.185 209.44 154.425 211.68 157.585 211.68C160.285 211.68 162.045 210.18 162.665 208.02H160.205C159.785 209.16 158.945 209.76 157.585 209.76C155.745 209.76 154.525 208.4 154.525 205.98C154.525 203.58 155.745 202.22 157.585 202.22C158.945 202.22 159.825 202.9 160.205 203.96H162.665C162.045 201.64 160.285 200.3 157.585 200.3C154.425 200.3 152.185 202.54 152.185 205.98ZM174.918 200.48H172.638V206.62C172.638 208.64 171.538 209.68 169.858 209.68C168.198 209.68 167.098 208.64 167.098 206.62V200.48H164.838V206.96C164.838 210.04 166.798 211.66 169.378 211.66C170.678 211.66 171.918 211.12 172.638 210.18V211.5H174.918V200.48ZM180.206 205.7C180.206 203.36 181.246 202.66 182.926 202.66H183.506V200.3C181.946 200.3 180.846 200.98 180.206 202.08V200.48H177.926V211.5H180.206V205.7ZM185.602 211.5H187.882V200.48H185.602V211.5ZM186.762 199.02C187.562 199.02 188.202 198.38 188.202 197.56C188.202 196.74 187.562 196.1 186.762 196.1C185.942 196.1 185.302 196.74 185.302 197.56C185.302 198.38 185.942 199.02 186.762 199.02ZM191.235 208.44C191.235 210.68 192.455 211.5 194.415 211.5H196.215V209.6H194.815C193.855 209.6 193.535 209.26 193.535 208.44V202.34H196.215V200.48H193.535V197.74H191.235V200.48H189.935V202.34H191.235V208.44ZM202.656 208.88L199.556 200.48H197.016L201.356 211.32L199.116 216.68H201.476L208.236 200.48H205.876L202.656 208.88ZM214.392 205.94C214.392 209.34 216.692 211.68 219.552 211.68C221.392 211.68 222.712 210.8 223.412 209.86V211.5H225.712V200.48H223.412V202.08C222.732 201.18 221.452 200.3 219.592 200.3C216.692 200.3 214.392 202.54 214.392 205.94ZM223.412 205.98C223.412 208.36 221.792 209.7 220.072 209.7C218.372 209.7 216.732 208.32 216.732 205.94C216.732 203.56 218.372 202.28 220.072 202.28C221.792 202.28 223.412 203.62 223.412 205.98ZM236.527 211.5H238.787V205C238.787 201.92 236.847 200.3 234.267 200.3C232.947 200.3 231.727 200.84 230.987 201.74V200.48H228.707V211.5H230.987V205.34C230.987 203.32 232.087 202.28 233.767 202.28C235.427 202.28 236.527 203.32 236.527 205.34V211.5ZM240.935 205.94C240.935 209.34 243.235 211.68 246.135 211.68C247.935 211.68 249.255 210.84 249.955 209.84V211.5H252.255V196.7H249.955V202.02C249.115 200.98 247.595 200.3 246.155 200.3C243.235 200.3 240.935 202.54 240.935 205.94ZM249.955 205.98C249.955 208.36 248.335 209.7 246.615 209.7C244.915 209.7 243.275 208.32 243.275 205.94C243.275 203.56 244.915 202.28 246.615 202.28C248.335 202.28 249.955 203.62 249.955 205.98ZM259.685 204.52C259.685 208.7 262.865 211.62 266.785 211.62C269.685 211.62 272.185 210.18 273.245 207.46H270.505C269.765 208.94 268.445 209.64 266.785 209.64C264.025 209.64 262.025 207.66 262.025 204.52C262.025 201.38 264.025 199.42 266.785 199.42C268.445 199.42 269.765 200.12 270.505 201.6H273.245C272.185 198.88 269.685 197.42 266.785 197.42C262.865 197.42 259.685 200.36 259.685 204.52ZM278.194 205.7C278.194 203.36 279.234 202.66 280.914 202.66H281.494V200.3C279.934 200.3 278.834 200.98 278.194 202.08V200.48H275.914V211.5H278.194V205.7ZM287.93 208.88L284.83 200.48H282.29L286.63 211.32L284.39 216.68H286.75L293.51 200.48H291.15L287.93 208.88ZM297.51 202.1V200.48H295.23V216.74H297.51V209.9C298.23 210.76 299.53 211.68 301.35 211.68C304.25 211.68 306.53 209.34 306.53 205.94C306.53 202.54 304.25 200.3 301.35 200.3C299.55 200.3 298.21 201.18 297.51 202.1ZM304.21 205.94C304.21 208.32 302.57 209.7 300.85 209.7C299.15 209.7 297.51 208.36 297.51 205.98C297.51 203.62 299.15 202.28 300.85 202.28C302.57 202.28 304.21 203.56 304.21 205.94ZM309.145 208.44C309.145 210.68 310.365 211.5 312.325 211.5H314.125V209.6H312.725C311.765 209.6 311.445 209.26 311.445 208.44V202.34H314.125V200.48H311.445V197.74H309.145V200.48H307.845V202.34H309.145V208.44ZM326.727 205.98C326.727 202.52 324.247 200.3 321.107 200.3C317.967 200.3 315.487 202.52 315.487 205.98C315.487 209.44 317.867 211.68 321.007 211.68C324.167 211.68 326.727 209.44 326.727 205.98ZM317.807 205.98C317.807 203.48 319.347 202.28 321.067 202.28C322.767 202.28 324.387 203.48 324.387 205.98C324.387 208.48 322.707 209.7 321.007 209.7C319.287 209.7 317.807 208.48 317.807 205.98ZM328.22 205.94C328.22 209.34 330.52 211.68 333.42 211.68C335.22 211.68 336.54 210.78 337.24 209.84V211.68C337.24 213.88 335.92 214.96 334.16 214.96C332.58 214.96 331.36 214.18 331.02 213.04H328.76C329.04 215.48 331.22 216.94 334.16 216.94C337.6 216.94 339.54 214.68 339.54 211.68V200.48H337.24V202.08C336.56 201.14 335.22 200.3 333.42 200.3C330.52 200.3 328.22 202.54 328.22 205.94ZM337.24 205.98C337.24 208.36 335.62 209.7 333.9 209.7C332.2 209.7 330.56 208.32 330.56 205.94C330.56 203.56 332.2 202.28 333.9 202.28C335.62 202.28 337.24 203.62 337.24 205.98ZM344.815 205.7C344.815 203.36 345.855 202.66 347.535 202.66H348.115V200.3C346.555 200.3 345.455 200.98 344.815 202.08V200.48H342.535V211.5H344.815V205.7ZM349.451 205.94C349.451 209.34 351.751 211.68 354.611 211.68C356.451 211.68 357.771 210.8 358.471 209.86V211.5H360.771V200.48H358.471V202.08C357.791 201.18 356.511 200.3 354.651 200.3C351.751 200.3 349.451 202.54 349.451 205.94ZM358.471 205.98C358.471 208.36 356.851 209.7 355.131 209.7C353.431 209.7 351.791 208.32 351.791 205.94C351.791 203.56 353.431 202.28 355.131 202.28C356.851 202.28 358.471 203.62 358.471 205.98ZM366.046 202.1V200.48H363.766V216.74H366.046V209.9C366.766 210.76 368.066 211.68 369.886 211.68C372.786 211.68 375.066 209.34 375.066 205.94C375.066 202.54 372.786 200.3 369.886 200.3C368.086 200.3 366.746 201.18 366.046 202.1ZM372.746 205.94C372.746 208.32 371.106 209.7 369.386 209.7C367.686 209.7 366.046 208.36 366.046 205.98C366.046 203.62 367.686 202.28 369.386 202.28C371.106 202.28 372.746 203.56 372.746 205.94ZM377.32 211.5H379.6V205.34C379.6 203.32 380.7 202.28 382.38 202.28C384.04 202.28 385.14 203.32 385.14 205.34V211.5H387.4V205C387.4 201.92 385.48 200.3 383.02 200.3C381.6 200.3 380.36 200.84 379.6 201.76V196.7H377.32V211.5ZM394.649 208.88L391.549 200.48H389.009L393.349 211.32L391.109 216.68H393.469L400.229 200.48H397.869L394.649 208.88Z" fill="#212832"/>
<rect x="0.5" y="179.5" width="616" height="49" stroke="black" stroke-opacity="0.5"/>
<rect y="122" width="617" height="50" fill="white"/>
<path d="M24.6 150.44C26.08 150.44 27.24 149.3 27.24 147.84C27.24 146.36 26.08 145.22 24.6 145.22C23.16 145.22 22 146.36 22 147.84C22 149.3 23.16 150.44 24.6 150.44ZM45.6689 140.6H41.1289V154.5H45.6689C50.1289 154.5 53.0489 151.88 53.0489 147.6C53.0489 143.3 50.1289 140.6 45.6689 140.6ZM43.4089 152.64V142.46H45.6689C48.9489 142.46 50.7089 144.42 50.7089 147.6C50.7089 150.76 48.9489 152.64 45.6689 152.64H43.4089ZM54.5486 148.94C54.5486 152.34 56.8486 154.68 59.7086 154.68C61.5486 154.68 62.8686 153.8 63.5686 152.86V154.5H65.8686V143.48H63.5686V145.08C62.8886 144.18 61.6086 143.3 59.7486 143.3C56.8486 143.3 54.5486 145.54 54.5486 148.94ZM63.5686 148.98C63.5686 151.36 61.9486 152.7 60.2286 152.7C58.5286 152.7 56.8886 151.32 56.8886 148.94C56.8886 146.56 58.5286 145.28 60.2286 145.28C61.9486 145.28 63.5686 146.62 63.5686 148.98ZM69.2233 151.44C69.2233 153.68 70.4433 154.5 72.4033 154.5H74.2033V152.6H72.8033C71.8433 152.6 71.5233 152.26 71.5233 151.44V145.34H74.2033V143.48H71.5233V140.74H69.2233V143.48H67.9233V145.34H69.2233V151.44ZM75.5447 148.94C75.5447 152.34 77.8447 154.68 80.7047 154.68C82.5447 154.68 83.8647 153.8 84.5647 152.86V154.5H86.8647V143.48H84.5647V145.08C83.8847 144.18 82.6047 143.3 80.7447 143.3C77.8447 143.3 75.5447 145.54 75.5447 148.94ZM84.5647 148.98C84.5647 151.36 82.9447 152.7 81.2247 152.7C79.5247 152.7 77.8847 151.32 77.8847 148.94C77.8847 146.56 79.5247 145.28 81.2247 145.28C82.9447 145.28 84.5647 146.62 84.5647 148.98ZM104.435 150.56C104.435 145.48 97.0747 147.44 97.0747 144.3C97.0747 142.96 98.0947 142.32 99.4147 142.36C100.855 142.4 101.675 143.26 101.755 144.2H104.275C104.075 141.82 102.195 140.42 99.5347 140.42C96.6947 140.42 94.7547 141.94 94.7547 144.38C94.7547 149.5 102.135 147.32 102.135 150.68C102.135 151.86 101.235 152.72 99.6347 152.72C98.0547 152.72 97.2547 151.8 97.1547 150.66H94.7147C94.7147 153.12 96.8547 154.64 99.6347 154.64C102.735 154.64 104.435 152.64 104.435 150.56ZM107.485 151.44C107.485 153.68 108.705 154.5 110.665 154.5H112.465V152.6H111.065C110.105 152.6 109.785 152.26 109.785 151.44V145.34H112.465V143.48H109.785V140.74H107.485V143.48H106.185V145.34H107.485V151.44ZM116.846 148.7C116.846 146.36 117.886 145.66 119.566 145.66H120.146V143.3C118.586 143.3 117.486 143.98 116.846 145.08V143.48H114.566V154.5H116.846V148.7ZM132.222 143.48H129.942V149.62C129.942 151.64 128.842 152.68 127.162 152.68C125.502 152.68 124.402 151.64 124.402 149.62V143.48H122.142V149.96C122.142 153.04 124.102 154.66 126.682 154.66C127.982 154.66 129.222 154.12 129.942 153.18V154.5H132.222V143.48ZM134.47 148.98C134.47 152.44 136.71 154.68 139.87 154.68C142.57 154.68 144.33 153.18 144.95 151.02H142.49C142.07 152.16 141.23 152.76 139.87 152.76C138.03 152.76 136.81 151.4 136.81 148.98C136.81 146.58 138.03 145.22 139.87 145.22C141.23 145.22 142.11 145.9 142.49 146.96H144.95C144.33 144.64 142.57 143.3 139.87 143.3C136.71 143.3 134.47 145.54 134.47 148.98ZM147.583 151.44C147.583 153.68 148.803 154.5 150.763 154.5H152.563V152.6H151.163C150.203 152.6 149.883 152.26 149.883 151.44V145.34H152.563V143.48H149.883V140.74H147.583V143.48H146.283V145.34H147.583V151.44ZM164.644 143.48H162.364V149.62C162.364 151.64 161.264 152.68 159.584 152.68C157.924 152.68 156.824 151.64 156.824 149.62V143.48H154.564V149.96C154.564 153.04 156.524 154.66 159.104 154.66C160.404 154.66 161.644 154.12 162.364 153.18V154.5H164.644V143.48ZM169.932 148.7C169.932 146.36 170.972 145.66 172.652 145.66H173.232V143.3C171.672 143.3 170.572 143.98 169.932 145.08V143.48H167.652V154.5H169.932V148.7ZM179.968 145.22C181.668 145.22 183.008 146.3 183.048 148H176.948C177.188 146.26 178.428 145.22 179.968 145.22ZM185.128 151.22H182.668C182.248 152.08 181.468 152.76 180.068 152.76C178.388 152.76 177.088 151.66 176.928 149.84H185.348C185.408 149.46 185.428 149.1 185.428 148.72C185.428 145.48 183.208 143.3 180.068 143.3C176.808 143.3 174.568 145.52 174.568 148.98C174.568 152.44 176.908 154.68 180.068 154.68C182.768 154.68 184.508 153.14 185.128 151.22ZM195.892 151.42C195.772 147.44 189.552 148.68 189.552 146.46C189.552 145.72 190.192 145.22 191.412 145.22C192.652 145.22 193.392 145.88 193.472 146.84H195.752C195.632 144.64 193.992 143.3 191.492 143.3C188.892 143.3 187.252 144.72 187.252 146.48C187.252 150.52 193.652 149.28 193.652 151.44C193.652 152.2 192.952 152.76 191.632 152.76C190.372 152.76 189.512 152.02 189.432 151.12H187.072C187.172 153.12 189.032 154.68 191.672 154.68C194.272 154.68 195.892 153.28 195.892 151.42ZM202.791 148.94C202.791 152.34 205.091 154.68 207.951 154.68C209.791 154.68 211.111 153.8 211.811 152.86V154.5H214.111V143.48H211.811V145.08C211.131 144.18 209.851 143.3 207.991 143.3C205.091 143.3 202.791 145.54 202.791 148.94ZM211.811 148.98C211.811 151.36 210.191 152.7 208.471 152.7C206.771 152.7 205.131 151.32 205.131 148.94C205.131 146.56 206.771 145.28 208.471 145.28C210.191 145.28 211.811 146.62 211.811 148.98ZM224.925 154.5H227.185V148C227.185 144.92 225.245 143.3 222.665 143.3C221.345 143.3 220.125 143.84 219.385 144.74V143.48H217.105V154.5H219.385V148.34C219.385 146.32 220.485 145.28 222.165 145.28C223.825 145.28 224.925 146.32 224.925 148.34V154.5ZM229.334 148.94C229.334 152.34 231.634 154.68 234.534 154.68C236.334 154.68 237.654 153.84 238.354 152.84V154.5H240.654V139.7H238.354V145.02C237.514 143.98 235.994 143.3 234.554 143.3C231.634 143.3 229.334 145.54 229.334 148.94ZM238.354 148.98C238.354 151.36 236.734 152.7 235.014 152.7C233.314 152.7 231.674 151.32 231.674 148.94C231.674 146.56 233.314 145.28 235.014 145.28C236.734 145.28 238.354 146.62 238.354 148.98ZM258.224 154.5H260.624L255.644 140.58H253.004L248.024 154.5H250.404L251.404 151.66H257.224L258.224 154.5ZM256.584 149.8H252.044L254.324 143.34L256.584 149.8ZM262.789 154.5H265.069V139.7H262.789V154.5ZM267.303 148.94C267.303 152.34 269.603 154.68 272.503 154.68C274.303 154.68 275.623 153.78 276.323 152.84V154.68C276.323 156.88 275.003 157.96 273.243 157.96C271.663 157.96 270.443 157.18 270.103 156.04H267.843C268.123 158.48 270.303 159.94 273.243 159.94C276.683 159.94 278.623 157.68 278.623 154.68V143.48H276.323V145.08C275.643 144.14 274.303 143.3 272.503 143.3C269.603 143.3 267.303 145.54 267.303 148.94ZM276.323 148.98C276.323 151.36 274.703 152.7 272.983 152.7C271.283 152.7 269.643 151.32 269.643 148.94C269.643 146.56 271.283 145.28 272.983 145.28C274.703 145.28 276.323 146.62 276.323 148.98ZM292.117 148.98C292.117 145.52 289.637 143.3 286.497 143.3C283.357 143.3 280.877 145.52 280.877 148.98C280.877 152.44 283.257 154.68 286.397 154.68C289.557 154.68 292.117 152.44 292.117 148.98ZM283.197 148.98C283.197 146.48 284.737 145.28 286.457 145.28C288.157 145.28 289.777 146.48 289.777 148.98C289.777 151.48 288.097 152.7 286.397 152.7C284.677 152.7 283.197 151.48 283.197 148.98ZM296.651 148.7C296.651 146.36 297.691 145.66 299.371 145.66H299.951V143.3C298.391 143.3 297.291 143.98 296.651 145.08V143.48H294.371V154.5H296.651V148.7ZM302.047 154.5H304.327V143.48H302.047V154.5ZM303.207 142.02C304.007 142.02 304.647 141.38 304.647 140.56C304.647 139.74 304.007 139.1 303.207 139.1C302.387 139.1 301.747 139.74 301.747 140.56C301.747 141.38 302.387 142.02 303.207 142.02ZM307.68 151.44C307.68 153.68 308.9 154.5 310.86 154.5H312.66V152.6H311.26C310.3 152.6 309.98 152.26 309.98 151.44V145.34H312.66V143.48H309.98V140.74H307.68V143.48H306.38V145.34H307.68V151.44ZM314.762 154.5H317.042V148.34C317.042 146.32 318.142 145.28 319.822 145.28C321.482 145.28 322.582 146.32 322.582 148.34V154.5H324.842V148C324.842 144.92 322.922 143.3 320.462 143.3C319.042 143.3 317.802 143.84 317.042 144.76V139.7H314.762V154.5ZM343.37 154.5H345.63V148C345.63 144.92 343.67 143.3 341.09 143.3C339.49 143.3 337.93 144.14 337.25 145.48C336.49 144.04 335.03 143.3 333.29 143.3C331.97 143.3 330.77 143.84 330.03 144.74V143.48H327.75V154.5H330.03V148.34C330.03 146.32 331.13 145.28 332.81 145.28C334.47 145.28 335.57 146.32 335.57 148.34V154.5H337.83V148.34C337.83 146.32 338.93 145.28 340.61 145.28C342.27 145.28 343.37 146.32 343.37 148.34V154.5ZM358.267 140.6H353.727V154.5H358.267C362.727 154.5 365.647 151.88 365.647 147.6C365.647 143.3 362.727 140.6 358.267 140.6ZM356.007 152.64V142.46H358.267C361.547 142.46 363.307 144.42 363.307 147.6C363.307 150.76 361.547 152.64 358.267 152.64H356.007ZM372.546 145.22C374.246 145.22 375.586 146.3 375.626 148H369.526C369.766 146.26 371.006 145.22 372.546 145.22ZM377.706 151.22H375.246C374.826 152.08 374.046 152.76 372.646 152.76C370.966 152.76 369.666 151.66 369.506 149.84H377.926C377.986 149.46 378.006 149.1 378.006 148.72C378.006 145.48 375.786 143.3 372.646 143.3C369.386 143.3 367.146 145.52 367.146 148.98C367.146 152.44 369.486 154.68 372.646 154.68C375.346 154.68 377.086 153.14 377.706 151.22ZM388.47 151.42C388.35 147.44 382.13 148.68 382.13 146.46C382.13 145.72 382.77 145.22 383.99 145.22C385.23 145.22 385.97 145.88 386.05 146.84H388.33C388.21 144.64 386.57 143.3 384.07 143.3C381.47 143.3 379.83 144.72 379.83 146.48C379.83 150.52 386.23 149.28 386.23 151.44C386.23 152.2 385.53 152.76 384.21 152.76C382.95 152.76 382.09 152.02 382.01 151.12H379.65C379.75 153.12 381.61 154.68 384.25 154.68C386.85 154.68 388.47 153.28 388.47 151.42ZM390.934 154.5H393.214V143.48H390.934V154.5ZM392.094 142.02C392.894 142.02 393.534 141.38 393.534 140.56C393.534 139.74 392.894 139.1 392.094 139.1C391.274 139.1 390.634 139.74 390.634 140.56C390.634 141.38 391.274 142.02 392.094 142.02ZM395.447 148.94C395.447 152.34 397.747 154.68 400.647 154.68C402.447 154.68 403.767 153.78 404.467 152.84V154.68C404.467 156.88 403.147 157.96 401.387 157.96C399.807 157.96 398.587 157.18 398.247 156.04H395.987C396.267 158.48 398.447 159.94 401.387 159.94C404.827 159.94 406.767 157.68 406.767 154.68V143.48H404.467V145.08C403.787 144.14 402.447 143.3 400.647 143.3C397.747 143.3 395.447 145.54 395.447 148.94ZM404.467 148.98C404.467 151.36 402.847 152.7 401.127 152.7C399.427 152.7 397.787 151.32 397.787 148.94C397.787 146.56 399.427 145.28 401.127 145.28C402.847 145.28 404.467 146.62 404.467 148.98ZM417.582 154.5H419.842V148C419.842 144.92 417.902 143.3 415.322 143.3C414.002 143.3 412.782 143.84 412.042 144.74V143.48H409.762V154.5H412.042V148.34C412.042 146.32 413.142 145.28 414.822 145.28C416.482 145.28 417.582 146.32 417.582 148.34V154.5Z" fill="#212832"/>
<rect x="0.5" y="122.5" width="616" height="49" stroke="black" stroke-opacity="0.5"/>
<rect y="236" width="617" height="50" fill="white"/>
<path d="M24.6 264.44C26.08 264.44 27.24 263.3 27.24 261.84C27.24 260.36 26.08 259.22 24.6 259.22C23.16 259.22 22 260.36 22 261.84C22 263.3 23.16 264.44 24.6 264.44ZM40.3689 261.52C40.3689 265.7 43.5489 268.62 47.4689 268.62C50.3689 268.62 52.8689 267.18 53.9289 264.46H51.1889C50.4489 265.94 49.1289 266.64 47.4689 266.64C44.7089 266.64 42.7089 264.66 42.7089 261.52C42.7089 258.38 44.7089 256.42 47.4689 256.42C49.1289 256.42 50.4489 257.12 51.1889 258.6H53.9289C52.8689 255.88 50.3689 254.42 47.4689 254.42C43.5489 254.42 40.3689 257.36 40.3689 261.52ZM67.0977 262.98C67.0977 259.52 64.6177 257.3 61.4777 257.3C58.3377 257.3 55.8577 259.52 55.8577 262.98C55.8577 266.44 58.2377 268.68 61.3777 268.68C64.5377 268.68 67.0977 266.44 67.0977 262.98ZM58.1777 262.98C58.1777 260.48 59.7177 259.28 61.4377 259.28C63.1377 259.28 64.7577 260.48 64.7577 262.98C64.7577 265.48 63.0777 266.7 61.3777 266.7C59.6577 266.7 58.1777 265.48 58.1777 262.98ZM68.5916 262.94C68.5916 266.34 70.8916 268.68 73.7916 268.68C75.5916 268.68 76.9116 267.78 77.6116 266.84V268.68C77.6116 270.88 76.2916 271.96 74.5316 271.96C72.9516 271.96 71.7316 271.18 71.3916 270.04H69.1316C69.4116 272.48 71.5916 273.94 74.5316 273.94C77.9716 273.94 79.9116 271.68 79.9116 268.68V257.48H77.6116V259.08C76.9316 258.14 75.5916 257.3 73.7916 257.3C70.8916 257.3 68.5916 259.54 68.5916 262.94ZM77.6116 262.98C77.6116 265.36 75.9916 266.7 74.2716 266.7C72.5716 266.7 70.9316 265.32 70.9316 262.94C70.9316 260.56 72.5716 259.28 74.2716 259.28C75.9916 259.28 77.6116 260.62 77.6116 262.98ZM90.7263 268.5H92.9863V262C92.9863 258.92 91.0463 257.3 88.4663 257.3C87.1463 257.3 85.9263 257.84 85.1863 258.74V257.48H82.9063V268.5H85.1863V262.34C85.1863 260.32 86.2863 259.28 87.9663 259.28C89.6263 259.28 90.7263 260.32 90.7263 262.34V268.5ZM95.8945 268.5H98.1745V257.48H95.8945V268.5ZM97.0545 256.02C97.8545 256.02 98.4945 255.38 98.4945 254.56C98.4945 253.74 97.8545 253.1 97.0545 253.1C96.2345 253.1 95.5945 253.74 95.5945 254.56C95.5945 255.38 96.2345 256.02 97.0545 256.02ZM101.528 265.44C101.528 267.68 102.748 268.5 104.708 268.5H106.508V266.6H105.108C104.148 266.6 103.828 266.26 103.828 265.44V259.34H106.508V257.48H103.828V254.74H101.528V257.48H100.228V259.34H101.528V265.44ZM108.609 268.5H110.889V257.48H108.609V268.5ZM109.769 256.02C110.569 256.02 111.209 255.38 111.209 254.56C111.209 253.74 110.569 253.1 109.769 253.1C108.949 253.1 108.309 253.74 108.309 254.56C108.309 255.38 108.949 256.02 109.769 256.02ZM112.583 257.48L116.763 268.5H119.483L123.683 257.48H121.263L118.143 266.46L115.023 257.48H112.583ZM130.046 259.22C131.746 259.22 133.086 260.3 133.126 262H127.026C127.266 260.26 128.506 259.22 130.046 259.22ZM135.206 265.22H132.746C132.326 266.08 131.546 266.76 130.146 266.76C128.466 266.76 127.166 265.66 127.006 263.84H135.426C135.486 263.46 135.506 263.1 135.506 262.72C135.506 259.48 133.286 257.3 130.146 257.3C126.886 257.3 124.646 259.52 124.646 262.98C124.646 266.44 126.986 268.68 130.146 268.68C132.846 268.68 134.586 267.14 135.206 265.22ZM152.325 268.5H154.725L149.745 254.58H147.105L142.125 268.5H144.505L145.505 265.66H151.325L152.325 268.5ZM150.685 263.8H146.145L148.425 257.34L150.685 263.8ZM164.711 268.5H166.971V262C166.971 258.92 165.031 257.3 162.451 257.3C161.131 257.3 159.911 257.84 159.171 258.74V257.48H156.891V268.5H159.171V262.34C159.171 260.32 160.271 259.28 161.951 259.28C163.611 259.28 164.711 260.32 164.711 262.34V268.5ZM169.119 262.94C169.119 266.34 171.419 268.68 174.279 268.68C176.119 268.68 177.439 267.8 178.139 266.86V268.5H180.439V257.48H178.139V259.08C177.459 258.18 176.179 257.3 174.319 257.3C171.419 257.3 169.119 259.54 169.119 262.94ZM178.139 262.98C178.139 265.36 176.519 266.7 174.799 266.7C173.099 266.7 171.459 265.32 171.459 262.94C171.459 260.56 173.099 259.28 174.799 259.28C176.519 259.28 178.139 260.62 178.139 262.98ZM183.434 268.5H185.714V253.7H183.434V268.5ZM193.047 265.88L189.947 257.48H187.407L191.747 268.32L189.507 273.68H191.867L198.627 257.48H196.267L193.047 265.88ZM200.708 265.44C200.708 267.68 201.928 268.5 203.888 268.5H205.688V266.6H204.288C203.328 266.6 203.008 266.26 203.008 265.44V259.34H205.688V257.48H203.008V254.74H200.708V257.48H199.408V259.34H200.708V265.44ZM207.789 268.5H210.069V257.48H207.789V268.5ZM208.949 256.02C209.749 256.02 210.389 255.38 210.389 254.56C210.389 253.74 209.749 253.1 208.949 253.1C208.129 253.1 207.489 253.74 207.489 254.56C207.489 255.38 208.129 256.02 208.949 256.02ZM212.303 262.98C212.303 266.44 214.543 268.68 217.703 268.68C220.403 268.68 222.163 267.18 222.783 265.02H220.323C219.903 266.16 219.063 266.76 217.703 266.76C215.863 266.76 214.643 265.4 214.643 262.98C214.643 260.58 215.863 259.22 217.703 259.22C219.063 259.22 219.943 259.9 220.323 260.96H222.783C222.163 258.64 220.403 257.3 217.703 257.3C214.543 257.3 212.303 259.54 212.303 262.98ZM233.275 265.42C233.155 261.44 226.935 262.68 226.935 260.46C226.935 259.72 227.575 259.22 228.795 259.22C230.035 259.22 230.775 259.88 230.855 260.84H233.135C233.015 258.64 231.375 257.3 228.875 257.3C226.275 257.3 224.635 258.72 224.635 260.48C224.635 264.52 231.035 263.28 231.035 265.44C231.035 266.2 230.335 266.76 229.015 266.76C227.755 266.76 226.895 266.02 226.815 265.12H224.455C224.555 267.12 226.415 268.68 229.055 268.68C231.655 268.68 233.275 267.28 233.275 265.42ZM249.774 257.7C249.914 255.8 248.614 254.28 246.194 254.28C243.814 254.28 242.334 255.66 242.334 257.48C242.334 258.46 242.614 259.2 243.394 260.14C241.194 261.04 240.134 262.62 240.134 264.5C240.134 267.1 242.134 268.76 245.134 268.76C247.074 268.76 248.614 268.12 249.954 266.78L251.674 268.5H254.654L251.274 265.14C251.434 264.88 251.614 264.6 251.774 264.32L253.574 261.24H251.114L249.694 263.58L246.014 259.92C245.034 258.86 244.614 258.24 244.614 257.48C244.614 256.74 245.194 256.14 246.094 256.14C246.954 256.14 247.534 256.68 247.494 257.7H249.774ZM245.134 266.82C243.494 266.82 242.414 265.76 242.414 264.42C242.414 263.18 243.154 262.22 244.774 261.58L248.454 265.28C247.494 266.3 246.434 266.82 245.134 266.82ZM270.724 264.56C270.724 259.48 263.364 261.44 263.364 258.3C263.364 256.96 264.384 256.32 265.704 256.36C267.144 256.4 267.964 257.26 268.044 258.2H270.564C270.364 255.82 268.484 254.42 265.824 254.42C262.984 254.42 261.044 255.94 261.044 258.38C261.044 263.5 268.424 261.32 268.424 264.68C268.424 265.86 267.524 266.72 265.924 266.72C264.344 266.72 263.544 265.8 263.444 264.66H261.004C261.004 267.12 263.144 268.64 265.924 268.64C269.024 268.64 270.724 266.64 270.724 264.56ZM283.914 262.98C283.914 259.52 281.434 257.3 278.294 257.3C275.154 257.3 272.674 259.52 272.674 262.98C272.674 266.44 275.054 268.68 278.194 268.68C281.354 268.68 283.914 266.44 283.914 262.98ZM274.994 262.98C274.994 260.48 276.534 259.28 278.254 259.28C279.954 259.28 281.574 260.48 281.574 262.98C281.574 265.48 279.894 266.7 278.194 266.7C276.474 266.7 274.994 265.48 274.994 262.98ZM285.408 262.98C285.408 266.44 287.648 268.68 290.808 268.68C293.508 268.68 295.268 267.18 295.888 265.02H293.428C293.008 266.16 292.168 266.76 290.808 266.76C288.968 266.76 287.748 265.4 287.748 262.98C287.748 260.58 288.968 259.22 290.808 259.22C292.168 259.22 293.048 259.9 293.428 260.96H295.888C295.268 258.64 293.508 257.3 290.808 257.3C287.648 257.3 285.408 259.54 285.408 262.98ZM298.16 268.5H300.44V257.48H298.16V268.5ZM299.32 256.02C300.12 256.02 300.76 255.38 300.76 254.56C300.76 253.74 300.12 253.1 299.32 253.1C298.5 253.1 297.86 253.74 297.86 254.56C297.86 255.38 298.5 256.02 299.32 256.02ZM302.674 262.94C302.674 266.34 304.974 268.68 307.834 268.68C309.674 268.68 310.994 267.8 311.694 266.86V268.5H313.994V257.48H311.694V259.08C311.014 258.18 309.734 257.3 307.874 257.3C304.974 257.3 302.674 259.54 302.674 262.94ZM311.694 262.98C311.694 265.36 310.074 266.7 308.354 266.7C306.654 266.7 305.014 265.32 305.014 262.94C305.014 260.56 306.654 259.28 308.354 259.28C310.074 259.28 311.694 260.62 311.694 262.98ZM316.988 268.5H319.268V253.7H316.988V268.5ZM336.837 264.56C336.837 259.48 329.477 261.44 329.477 258.3C329.477 256.96 330.497 256.32 331.817 256.36C333.257 256.4 334.077 257.26 334.157 258.2H336.677C336.477 255.82 334.597 254.42 331.937 254.42C329.097 254.42 327.157 255.94 327.157 258.38C327.157 263.5 334.537 261.32 334.537 264.68C334.537 265.86 333.637 266.72 332.037 266.72C330.457 266.72 329.657 265.8 329.557 264.66H327.117C327.117 267.12 329.257 268.64 332.037 268.64C335.137 268.64 336.837 266.64 336.837 264.56ZM339.527 268.5H341.807V263.76L345.887 268.5H348.967L343.887 263L348.967 257.48H345.807L341.807 262.3V253.7H339.527V268.5ZM350.602 268.5H352.882V257.48H350.602V268.5ZM351.762 256.02C352.562 256.02 353.202 255.38 353.202 254.56C353.202 253.74 352.562 253.1 351.762 253.1C350.942 253.1 350.302 253.74 350.302 254.56C350.302 255.38 350.942 256.02 351.762 256.02ZM355.875 268.5H358.155V253.7H355.875V268.5ZM361.148 268.5H363.428V253.7H361.148V268.5ZM374.642 265.42C374.522 261.44 368.302 262.68 368.302 260.46C368.302 259.72 368.942 259.22 370.162 259.22C371.402 259.22 372.142 259.88 372.222 260.84H374.502C374.382 258.64 372.742 257.3 370.242 257.3C367.642 257.3 366.002 258.72 366.002 260.48C366.002 264.52 372.402 263.28 372.402 265.44C372.402 266.2 371.702 266.76 370.382 266.76C369.122 266.76 368.262 266.02 368.182 265.12H365.822C365.922 267.12 367.782 268.68 370.422 268.68C373.022 268.68 374.642 267.28 374.642 265.42ZM382.581 268.5H384.881V259.34H386.921V257.48H384.881V256.7C384.881 255.44 385.361 254.96 386.761 254.96V253.06C383.881 253.06 382.581 254.16 382.581 256.7V257.48H381.281V259.34H382.581V268.5ZM399.441 262.98C399.441 259.52 396.961 257.3 393.821 257.3C390.681 257.3 388.201 259.52 388.201 262.98C388.201 266.44 390.581 268.68 393.721 268.68C396.881 268.68 399.441 266.44 399.441 262.98ZM390.521 262.98C390.521 260.48 392.061 259.28 393.781 259.28C395.481 259.28 397.101 260.48 397.101 262.98C397.101 265.48 395.421 266.7 393.721 266.7C392.001 266.7 390.521 265.48 390.521 262.98ZM403.975 262.7C403.975 260.36 405.015 259.66 406.695 259.66H407.275V257.3C405.715 257.3 404.615 257.98 403.975 259.08V257.48H401.695V268.5H403.975V262.7ZM416.846 261V256.46H419.366C421.146 256.46 421.946 257.3 421.946 258.74C421.946 260.14 421.146 261 419.366 261H416.846ZM424.286 258.74C424.286 256.48 422.666 254.6 419.366 254.6H414.566V268.5H416.846V262.86H419.366C422.986 262.86 424.286 260.72 424.286 258.74ZM428.741 262.7C428.741 260.36 429.781 259.66 431.461 259.66H432.041V257.3C430.481 257.3 429.381 257.98 428.741 259.08V257.48H426.461V268.5H428.741V262.7ZM444.637 262.98C444.637 259.52 442.157 257.3 439.017 257.3C435.877 257.3 433.397 259.52 433.397 262.98C433.397 266.44 435.777 268.68 438.917 268.68C442.077 268.68 444.637 266.44 444.637 262.98ZM435.717 262.98C435.717 260.48 437.257 259.28 438.977 259.28C440.677 259.28 442.297 260.48 442.297 262.98C442.297 265.48 440.617 266.7 438.917 266.7C437.197 266.7 435.717 265.48 435.717 262.98ZM447.171 268.5H449.471V259.34H451.511V257.48H449.471V256.7C449.471 255.44 449.951 254.96 451.351 254.96V253.06C448.471 253.06 447.171 254.16 447.171 256.7V257.48H445.871V259.34H447.171V268.5ZM458.171 259.22C459.871 259.22 461.211 260.3 461.251 262H455.151C455.391 260.26 456.631 259.22 458.171 259.22ZM463.331 265.22H460.871C460.451 266.08 459.671 266.76 458.271 266.76C456.591 266.76 455.291 265.66 455.131 263.84H463.551C463.611 263.46 463.631 263.1 463.631 262.72C463.631 259.48 461.411 257.3 458.271 257.3C455.011 257.3 452.771 259.52 452.771 262.98C452.771 266.44 455.111 268.68 458.271 268.68C460.971 268.68 462.711 267.14 463.331 265.22ZM474.095 265.42C473.975 261.44 467.755 262.68 467.755 260.46C467.755 259.72 468.395 259.22 469.615 259.22C470.855 259.22 471.595 259.88 471.675 260.84H473.955C473.835 258.64 472.195 257.3 469.695 257.3C467.095 257.3 465.455 258.72 465.455 260.48C465.455 264.52 471.855 263.28 471.855 265.44C471.855 266.2 471.155 266.76 469.835 266.76C468.575 266.76 467.715 266.02 467.635 265.12H465.275C465.375 267.12 467.235 268.68 469.875 268.68C472.475 268.68 474.095 267.28 474.095 265.42ZM484.779 265.42C484.659 261.44 478.439 262.68 478.439 260.46C478.439 259.72 479.079 259.22 480.299 259.22C481.539 259.22 482.279 259.88 482.359 260.84H484.639C484.519 258.64 482.879 257.3 480.379 257.3C477.779 257.3 476.139 258.72 476.139 260.48C476.139 264.52 482.539 263.28 482.539 265.44C482.539 266.2 481.839 266.76 480.519 266.76C479.259 266.76 478.399 266.02 478.319 265.12H475.959C476.059 267.12 477.919 268.68 480.559 268.68C483.159 268.68 484.779 267.28 484.779 265.42ZM487.242 268.5H489.522V257.48H487.242V268.5ZM488.402 256.02C489.202 256.02 489.842 255.38 489.842 254.56C489.842 253.74 489.202 253.1 488.402 253.1C487.582 253.1 486.942 253.74 486.942 254.56C486.942 255.38 487.582 256.02 488.402 256.02ZM503.016 262.98C503.016 259.52 500.536 257.3 497.396 257.3C494.256 257.3 491.776 259.52 491.776 262.98C491.776 266.44 494.156 268.68 497.296 268.68C500.456 268.68 503.016 266.44 503.016 262.98ZM494.096 262.98C494.096 260.48 495.636 259.28 497.356 259.28C499.056 259.28 500.676 260.48 500.676 262.98C500.676 265.48 498.996 266.7 497.296 266.7C495.576 266.7 494.096 265.48 494.096 262.98ZM513.09 268.5H515.35V262C515.35 258.92 513.41 257.3 510.83 257.3C509.51 257.3 508.29 257.84 507.55 258.74V257.48H505.27V268.5H507.55V262.34C507.55 260.32 508.65 259.28 510.33 259.28C511.99 259.28 513.09 260.32 513.09 262.34V268.5ZM517.498 262.94C517.498 266.34 519.798 268.68 522.658 268.68C524.498 268.68 525.818 267.8 526.518 266.86V268.5H528.818V257.48H526.518V259.08C525.838 258.18 524.558 257.3 522.698 257.3C519.798 257.3 517.498 259.54 517.498 262.94ZM526.518 262.98C526.518 265.36 524.898 266.7 523.178 266.7C521.478 266.7 519.838 265.32 519.838 262.94C519.838 260.56 521.478 259.28 523.178 259.28C524.898 259.28 526.518 260.62 526.518 262.98ZM531.813 268.5H534.093V253.7H531.813V268.5ZM545.306 265.42C545.186 261.44 538.966 262.68 538.966 260.46C538.966 259.72 539.606 259.22 540.826 259.22C542.066 259.22 542.806 259.88 542.886 260.84H545.166C545.046 258.64 543.406 257.3 540.906 257.3C538.306 257.3 536.666 258.72 536.666 260.48C536.666 264.52 543.066 263.28 543.066 265.44C543.066 266.2 542.366 266.76 541.046 266.76C539.786 266.76 538.926 266.02 538.846 265.12H536.486C536.586 267.12 538.446 268.68 541.086 268.68C543.686 268.68 545.306 267.28 545.306 265.42Z" fill="#212832"/>
<rect x="0.5" y="236.5" width="616" height="49" stroke="black" stroke-opacity="0.5"/>
<rect y="293" width="617" height="50" fill="white"/>
<path d="M24.6 321.44C26.08 321.44 27.24 320.3 27.24 318.84C27.24 317.36 26.08 316.22 24.6 316.22C23.16 316.22 22 317.36 22 318.84C22 320.3 23.16 321.44 24.6 321.44ZM50.5089 321.56C50.5089 316.48 43.1489 318.44 43.1489 315.3C43.1489 313.96 44.1689 313.32 45.4889 313.36C46.9289 313.4 47.7489 314.26 47.8289 315.2H50.3489C50.1489 312.82 48.2689 311.42 45.6089 311.42C42.7689 311.42 40.8289 312.94 40.8289 315.38C40.8289 320.5 48.2089 318.32 48.2089 321.68C48.2089 322.86 47.3089 323.72 45.7089 323.72C44.1289 323.72 43.3289 322.8 43.2289 321.66H40.7889C40.7889 324.12 42.9289 325.64 45.7089 325.64C48.8089 325.64 50.5089 323.64 50.5089 321.56ZM55.4792 316.1V314.48H53.1992V330.74H55.4792V323.9C56.1992 324.76 57.4992 325.68 59.3192 325.68C62.2192 325.68 64.4992 323.34 64.4992 319.94C64.4992 316.54 62.2192 314.3 59.3192 314.3C57.5192 314.3 56.1792 315.18 55.4792 316.1ZM62.1792 319.94C62.1792 322.32 60.5392 323.7 58.8192 323.7C57.1192 323.7 55.4792 322.36 55.4792 319.98C55.4792 317.62 57.1192 316.28 58.8192 316.28C60.5392 316.28 62.1792 317.56 62.1792 319.94ZM71.3939 316.22C73.0939 316.22 74.4339 317.3 74.4739 319H68.3739C68.6139 317.26 69.8539 316.22 71.3939 316.22ZM76.5539 322.22H74.0939C73.6739 323.08 72.8939 323.76 71.4939 323.76C69.8139 323.76 68.5139 322.66 68.3539 320.84H76.7739C76.8339 320.46 76.8539 320.1 76.8539 319.72C76.8539 316.48 74.6339 314.3 71.4939 314.3C68.2339 314.3 65.9939 316.52 65.9939 319.98C65.9939 323.44 68.3339 325.68 71.4939 325.68C74.1939 325.68 75.9339 324.14 76.5539 322.22ZM78.3377 319.98C78.3377 323.44 80.5777 325.68 83.7377 325.68C86.4377 325.68 88.1977 324.18 88.8177 322.02H86.3577C85.9377 323.16 85.0977 323.76 83.7377 323.76C81.8977 323.76 80.6777 322.4 80.6777 319.98C80.6777 317.58 81.8977 316.22 83.7377 316.22C85.0977 316.22 85.9777 316.9 86.3577 317.96H88.8177C88.1977 315.64 86.4377 314.3 83.7377 314.3C80.5777 314.3 78.3377 316.54 78.3377 319.98ZM91.0898 325.5H93.3698V314.48H91.0898V325.5ZM92.2498 313.02C93.0498 313.02 93.6898 312.38 93.6898 311.56C93.6898 310.74 93.0498 310.1 92.2498 310.1C91.4298 310.1 90.7898 310.74 90.7898 311.56C90.7898 312.38 91.4298 313.02 92.2498 313.02ZM95.6033 319.94C95.6033 323.34 97.9033 325.68 100.763 325.68C102.603 325.68 103.923 324.8 104.623 323.86V325.5H106.923V314.48H104.623V316.08C103.943 315.18 102.663 314.3 100.803 314.3C97.9033 314.3 95.6033 316.54 95.6033 319.94ZM104.623 319.98C104.623 322.36 103.003 323.7 101.283 323.7C99.5833 323.7 97.9433 322.32 97.9433 319.94C97.9433 317.56 99.5833 316.28 101.283 316.28C103.003 316.28 104.623 317.62 104.623 319.98ZM109.918 325.5H112.198V310.7H109.918V325.5ZM115.191 325.5H117.471V314.48H115.191V325.5ZM116.351 313.02C117.151 313.02 117.791 312.38 117.791 311.56C117.791 310.74 117.151 310.1 116.351 310.1C115.531 310.1 114.891 310.74 114.891 311.56C114.891 312.38 115.531 313.02 116.351 313.02ZM127.485 314.48H119.845V316.34H124.865L119.845 323.64V325.5H127.485V323.64H122.485L127.485 316.34V314.48ZM129.119 319.94C129.119 323.34 131.419 325.68 134.279 325.68C136.119 325.68 137.439 324.8 138.139 323.86V325.5H140.439V314.48H138.139V316.08C137.459 315.18 136.179 314.3 134.319 314.3C131.419 314.3 129.119 316.54 129.119 319.94ZM138.139 319.98C138.139 322.36 136.519 323.7 134.799 323.7C133.099 323.7 131.459 322.32 131.459 319.94C131.459 317.56 133.099 316.28 134.799 316.28C136.519 316.28 138.139 317.62 138.139 319.98ZM143.794 322.44C143.794 324.68 145.014 325.5 146.974 325.5H148.774V323.6H147.374C146.414 323.6 146.094 323.26 146.094 322.44V316.34H148.774V314.48H146.094V311.74H143.794V314.48H142.494V316.34H143.794V322.44ZM150.875 325.5H153.155V314.48H150.875V325.5ZM152.035 313.02C152.835 313.02 153.475 312.38 153.475 311.56C153.475 310.74 152.835 310.1 152.035 310.1C151.215 310.1 150.575 310.74 150.575 311.56C150.575 312.38 151.215 313.02 152.035 313.02ZM166.648 319.98C166.648 316.52 164.168 314.3 161.028 314.3C157.888 314.3 155.408 316.52 155.408 319.98C155.408 323.44 157.788 325.68 160.928 325.68C164.088 325.68 166.648 323.44 166.648 319.98ZM157.728 319.98C157.728 317.48 159.268 316.28 160.988 316.28C162.688 316.28 164.308 317.48 164.308 319.98C164.308 322.48 162.628 323.7 160.928 323.7C159.208 323.7 157.728 322.48 157.728 319.98ZM176.722 325.5H178.982V319C178.982 315.92 177.042 314.3 174.462 314.3C173.142 314.3 171.922 314.84 171.182 315.74V314.48H168.902V325.5H171.182V319.34C171.182 317.32 172.282 316.28 173.962 316.28C175.622 316.28 176.722 317.32 176.722 319.34V325.5ZM187.086 325.5H189.366V311.6H187.086V325.5ZM202.035 310.78H200.175L200.575 313.7L198.235 311.9L197.315 313.54L200.035 314.52L197.315 315.54L198.275 317.24L200.555 315.4L200.175 318.3H202.015L201.595 315.4L203.875 317.2L204.795 315.56L202.055 314.54L204.795 313.52L203.895 311.92L201.595 313.7L202.035 310.78Z" fill="#212832"/>
<rect x="0.5" y="293.5" width="616" height="49" stroke="black" stroke-opacity="0.5"/>
<rect y="350" width="617" height="50" fill="white"/>
<path d="M24.6 378.44C26.08 378.44 27.24 377.3 27.24 375.84C27.24 374.36 26.08 373.22 24.6 373.22C23.16 373.22 22 374.36 22 375.84C22 377.3 23.16 378.44 24.6 378.44ZM50.5089 378.56C50.5089 373.48 43.1489 375.44 43.1489 372.3C43.1489 370.96 44.1689 370.32 45.4889 370.36C46.9289 370.4 47.7489 371.26 47.8289 372.2H50.3489C50.1489 369.82 48.2689 368.42 45.6089 368.42C42.7689 368.42 40.8289 369.94 40.8289 372.38C40.8289 377.5 48.2089 375.32 48.2089 378.68C48.2089 379.86 47.3089 380.72 45.7089 380.72C44.1289 380.72 43.3289 379.8 43.2289 378.66H40.7889C40.7889 381.12 42.9289 382.64 45.7089 382.64C48.8089 382.64 50.5089 380.64 50.5089 378.56ZM55.4792 373.1V371.48H53.1992V387.74H55.4792V380.9C56.1992 381.76 57.4992 382.68 59.3192 382.68C62.2192 382.68 64.4992 380.34 64.4992 376.94C64.4992 373.54 62.2192 371.3 59.3192 371.3C57.5192 371.3 56.1792 372.18 55.4792 373.1ZM62.1792 376.94C62.1792 379.32 60.5392 380.7 58.8192 380.7C57.1192 380.7 55.4792 379.36 55.4792 376.98C55.4792 374.62 57.1192 373.28 58.8192 373.28C60.5392 373.28 62.1792 374.56 62.1792 376.94ZM71.3939 373.22C73.0939 373.22 74.4339 374.3 74.4739 376H68.3739C68.6139 374.26 69.8539 373.22 71.3939 373.22ZM76.5539 379.22H74.0939C73.6739 380.08 72.8939 380.76 71.4939 380.76C69.8139 380.76 68.5139 379.66 68.3539 377.84H76.7739C76.8339 377.46 76.8539 377.1 76.8539 376.72C76.8539 373.48 74.6339 371.3 71.4939 371.3C68.2339 371.3 65.9939 373.52 65.9939 376.98C65.9939 380.44 68.3339 382.68 71.4939 382.68C74.1939 382.68 75.9339 381.14 76.5539 379.22ZM78.3377 376.98C78.3377 380.44 80.5777 382.68 83.7377 382.68C86.4377 382.68 88.1977 381.18 88.8177 379.02H86.3577C85.9377 380.16 85.0977 380.76 83.7377 380.76C81.8977 380.76 80.6777 379.4 80.6777 376.98C80.6777 374.58 81.8977 373.22 83.7377 373.22C85.0977 373.22 85.9777 373.9 86.3577 374.96H88.8177C88.1977 372.64 86.4377 371.3 83.7377 371.3C80.5777 371.3 78.3377 373.54 78.3377 376.98ZM91.0898 382.5H93.3698V371.48H91.0898V382.5ZM92.2498 370.02C93.0498 370.02 93.6898 369.38 93.6898 368.56C93.6898 367.74 93.0498 367.1 92.2498 367.1C91.4298 367.1 90.7898 367.74 90.7898 368.56C90.7898 369.38 91.4298 370.02 92.2498 370.02ZM95.6033 376.94C95.6033 380.34 97.9033 382.68 100.763 382.68C102.603 382.68 103.923 381.8 104.623 380.86V382.5H106.923V371.48H104.623V373.08C103.943 372.18 102.663 371.3 100.803 371.3C97.9033 371.3 95.6033 373.54 95.6033 376.94ZM104.623 376.98C104.623 379.36 103.003 380.7 101.283 380.7C99.5833 380.7 97.9433 379.32 97.9433 376.94C97.9433 374.56 99.5833 373.28 101.283 373.28C103.003 373.28 104.623 374.62 104.623 376.98ZM109.918 382.5H112.198V367.7H109.918V382.5ZM115.191 382.5H117.471V371.48H115.191V382.5ZM116.351 370.02C117.151 370.02 117.791 369.38 117.791 368.56C117.791 367.74 117.151 367.1 116.351 367.1C115.531 367.1 114.891 367.74 114.891 368.56C114.891 369.38 115.531 370.02 116.351 370.02ZM127.485 371.48H119.845V373.34H124.865L119.845 380.64V382.5H127.485V380.64H122.485L127.485 373.34V371.48ZM129.119 376.94C129.119 380.34 131.419 382.68 134.279 382.68C136.119 382.68 137.439 381.8 138.139 380.86V382.5H140.439V371.48H138.139V373.08C137.459 372.18 136.179 371.3 134.319 371.3C131.419 371.3 129.119 373.54 129.119 376.94ZM138.139 376.98C138.139 379.36 136.519 380.7 134.799 380.7C133.099 380.7 131.459 379.32 131.459 376.94C131.459 374.56 133.099 373.28 134.799 373.28C136.519 373.28 138.139 374.62 138.139 376.98ZM143.794 379.44C143.794 381.68 145.014 382.5 146.974 382.5H148.774V380.6H147.374C146.414 380.6 146.094 380.26 146.094 379.44V373.34H148.774V371.48H146.094V368.74H143.794V371.48H142.494V373.34H143.794V379.44ZM150.875 382.5H153.155V371.48H150.875V382.5ZM152.035 370.02C152.835 370.02 153.475 369.38 153.475 368.56C153.475 367.74 152.835 367.1 152.035 367.1C151.215 367.1 150.575 367.74 150.575 368.56C150.575 369.38 151.215 370.02 152.035 370.02ZM166.648 376.98C166.648 373.52 164.168 371.3 161.028 371.3C157.888 371.3 155.408 373.52 155.408 376.98C155.408 380.44 157.788 382.68 160.928 382.68C164.088 382.68 166.648 380.44 166.648 376.98ZM157.728 376.98C157.728 374.48 159.268 373.28 160.988 373.28C162.688 373.28 164.308 374.48 164.308 376.98C164.308 379.48 162.628 380.7 160.928 380.7C159.208 380.7 157.728 379.48 157.728 376.98ZM176.722 382.5H178.982V376C178.982 372.92 177.042 371.3 174.462 371.3C173.142 371.3 171.922 371.84 171.182 372.74V371.48H168.902V382.5H171.182V376.34C171.182 374.32 172.282 373.28 173.962 373.28C175.622 373.28 176.722 374.32 176.722 376.34V382.5ZM186.606 382.3H196.326V380.4H189.986C192.326 378.26 195.926 375.56 195.926 372.02C195.926 369.4 194.246 367.62 191.286 367.62C188.706 367.62 186.666 369.16 186.586 372.32H188.786C188.846 370.68 189.706 369.56 191.306 369.56C193.006 369.56 193.666 370.6 193.666 372.12C193.666 374.98 190.046 377.62 186.606 380.64V382.3ZM208.304 367.78H206.444L206.844 370.7L204.504 368.9L203.584 370.54L206.304 371.52L203.584 372.54L204.544 374.24L206.824 372.4L206.444 375.3H208.284L207.864 372.4L210.144 374.2L211.064 372.56L208.324 371.54L211.064 370.52L210.164 368.92L207.864 370.7L208.304 367.78Z" fill="#212832"/>
<rect x="0.5" y="350.5" width="616" height="49" stroke="black" stroke-opacity="0.5"/>
<rect width="617" height="58" fill="#3498DB"/>
<path d="M33.925 32.95C33.925 26.8 24.975 28.75 24.975 25.25C24.975 23.825 26 23.15 27.375 23.2C28.875 23.225 29.8 24.125 29.875 25.275H33.725C33.5 22.125 31.05 20.3 27.475 20.3C23.875 20.3 21.325 22.2 21.325 25.35C21.3 31.675 30.3 29.4 30.3 33.175C30.3 34.425 29.325 35.3 27.675 35.3C26.05 35.3 25.125 34.375 25.025 32.975H21.275C21.325 36.275 24.125 38.175 27.75 38.175C31.725 38.175 33.925 35.7 33.925 32.95ZM43.4094 26.8C45.2094 26.8 46.6594 27.95 46.7094 29.775H40.1344C40.4094 27.875 41.7344 26.8 43.4094 26.8ZM49.9844 33.65H46.2094C45.7594 34.575 44.9344 35.325 43.4344 35.325C41.6844 35.325 40.2844 34.175 40.1094 32.125H50.2344C50.3094 31.675 50.3344 31.225 50.3344 30.775C50.3344 26.65 47.5094 23.925 43.5094 23.925C39.4094 23.925 36.5594 26.7 36.5594 31.075C36.5594 35.425 39.4844 38.225 43.5094 38.225C46.9344 38.225 49.2344 36.2 49.9844 33.65ZM72.7641 38H76.2641V29.875C76.2641 26.05 73.9141 23.95 70.5891 23.95C68.5641 23.95 66.7391 25.025 65.8391 26.6C64.8891 24.875 63.1141 23.95 60.9641 23.95C59.2391 23.95 57.7641 24.675 56.8891 25.825V24.15H53.3891V38H56.8891V30.35C56.8891 28.15 58.1141 27 60.0141 27C61.8641 27 63.0891 28.15 63.0891 30.35V38H66.5891V30.35C66.5891 28.15 67.8141 27 69.6891 27C71.5391 27 72.7641 28.15 72.7641 30.35V38ZM86.0354 26.8C87.8354 26.8 89.2854 27.95 89.3354 29.775H82.7604C83.0354 27.875 84.3604 26.8 86.0354 26.8ZM92.6104 33.65H88.8354C88.3854 34.575 87.5604 35.325 86.0604 35.325C84.3104 35.325 82.9104 34.175 82.7354 32.125H92.8604C92.9354 31.675 92.9604 31.225 92.9604 30.775C92.9604 26.65 90.1354 23.925 86.1354 23.925C82.0354 23.925 79.1854 26.7 79.1854 31.075C79.1854 35.425 82.1104 38.225 86.1354 38.225C89.5604 38.225 91.8604 36.2 92.6104 33.65ZM106.765 34.05C106.665 28.975 98.99 30.55 98.99 28.025C98.99 27.225 99.665 26.7 100.965 26.7C102.34 26.7 103.19 27.425 103.29 28.5H106.64C106.44 25.75 104.415 23.925 101.065 23.925C97.64 23.925 95.59 25.775 95.59 28.075C95.59 33.15 103.415 31.575 103.415 34.05C103.415 34.85 102.665 35.475 101.29 35.475C99.89 35.475 98.915 34.675 98.79 33.625H95.265C95.415 36.2 97.84 38.225 101.315 38.225C104.69 38.225 106.765 36.425 106.765 34.05ZM110.688 33.7C110.688 36.875 112.463 38 115.113 38H117.313V35.05H115.688C114.588 35.05 114.213 34.65 114.213 33.725V27.025H117.313V24.15H114.213V20.725H110.688V24.15H109.038V27.025H110.688V33.7ZM126.28 26.8C128.08 26.8 129.53 27.95 129.58 29.775H123.005C123.28 27.875 124.605 26.8 126.28 26.8ZM132.855 33.65H129.08C128.63 34.575 127.805 35.325 126.305 35.325C124.555 35.325 123.155 34.175 122.98 32.125H133.105C133.18 31.675 133.205 31.225 133.205 30.775C133.205 26.65 130.38 23.925 126.38 23.925C122.28 23.925 119.43 26.7 119.43 31.075C119.43 35.425 122.355 38.225 126.38 38.225C129.805 38.225 132.105 36.2 132.855 33.65ZM139.76 31.1C139.76 28.425 141.01 27.625 143.085 27.625H144.01V23.95C142.085 23.95 140.635 24.875 139.76 26.3V24.15H136.26V38H139.76V31.1ZM152.725 37.75H165.075V34.85H157.7C160.6 32.4 164.675 29.1 164.675 24.875C164.675 21.7 162.7 19.375 158.775 19.375C155.5 19.375 152.825 21.3 152.7 25.475H156.1C156.125 23.55 157.05 22.35 158.725 22.35C160.45 22.35 161.175 23.45 161.175 25.075C161.175 28.425 156.85 31.65 152.725 35.15V37.75Z" fill="white"/>
</svg>
