<svg width="617" height="458" viewBox="0 0 617 458" fill="none" xmlns="http://www.w3.org/2000/svg">
<rect y="66" width="617" height="50" fill="white"/>
<path d="M24.6 94.44C26.08 94.44 27.24 93.3 27.24 91.84C27.24 90.36 26.08 89.22 24.6 89.22C23.16 89.22 22 90.36 22 91.84C22 93.3 23.16 94.44 24.6 94.44ZM41.1289 98.5H43.4089V88.98L47.6689 98.5H49.2489L53.4889 88.98V98.5H55.7689V84.6H53.3289L48.4689 95.5L43.5889 84.6H41.1289V98.5ZM58.0056 92.94C58.0056 96.34 60.3056 98.68 63.1656 98.68C65.0056 98.68 66.3256 97.8 67.0256 96.86V98.5H69.3256V87.48H67.0256V89.08C66.3456 88.18 65.0656 87.3 63.2056 87.3C60.3056 87.3 58.0056 89.54 58.0056 92.94ZM67.0256 92.98C67.0256 95.36 65.4056 96.7 63.6856 96.7C61.9856 96.7 60.3456 95.32 60.3456 92.94C60.3456 90.56 61.9856 89.28 63.6856 89.28C65.4056 89.28 67.0256 90.62 67.0256 92.98ZM73.4803 86.02C74.2803 86.02 74.9203 85.38 74.9203 84.56C74.9203 83.74 74.2803 83.1 73.4803 83.1C72.6603 83.1 72.0203 83.74 72.0203 84.56C72.0203 85.38 72.6603 86.02 73.4803 86.02ZM72.3203 87.48V100.66C72.3203 101.48 72.0003 101.82 71.0403 101.82H70.2603V103.74H71.4403C73.4003 103.74 74.6003 102.9 74.6003 100.66V87.48H72.3203ZM88.0938 92.98C88.0938 89.52 85.6138 87.3 82.4738 87.3C79.3338 87.3 76.8538 89.52 76.8538 92.98C76.8538 96.44 79.2338 98.68 82.3738 98.68C85.5338 98.68 88.0938 96.44 88.0938 92.98ZM79.1738 92.98C79.1738 90.48 80.7138 89.28 82.4338 89.28C84.1338 89.28 85.7538 90.48 85.7538 92.98C85.7538 95.48 84.0738 96.7 82.3738 96.7C80.6538 96.7 79.1738 95.48 79.1738 92.98ZM92.6277 92.7C92.6277 90.36 93.6677 89.66 95.3477 89.66H95.9277V87.3C94.3677 87.3 93.2677 87.98 92.6277 89.08V87.48H90.3477V98.5H92.6277V92.7ZM105.499 91V86.46H108.019C109.799 86.46 110.599 87.3 110.599 88.74C110.599 90.14 109.799 91 108.019 91H105.499ZM112.939 88.74C112.939 86.48 111.319 84.6 108.019 84.6H103.219V98.5H105.499V92.86H108.019C111.639 92.86 112.939 90.72 112.939 88.74ZM117.393 92.7C117.393 90.36 118.433 89.66 120.113 89.66H120.693V87.3C119.133 87.3 118.033 87.98 117.393 89.08V87.48H115.113V98.5H117.393V92.7ZM133.289 92.98C133.289 89.52 130.809 87.3 127.669 87.3C124.529 87.3 122.049 89.52 122.049 92.98C122.049 96.44 124.429 98.68 127.569 98.68C130.729 98.68 133.289 96.44 133.289 92.98ZM124.369 92.98C124.369 90.48 125.909 89.28 127.629 89.28C129.329 89.28 130.949 90.48 130.949 92.98C130.949 95.48 129.269 96.7 127.569 96.7C125.849 96.7 124.369 95.48 124.369 92.98ZM136.703 86.02C137.503 86.02 138.143 85.38 138.143 84.56C138.143 83.74 137.503 83.1 136.703 83.1C135.883 83.1 135.243 83.74 135.243 84.56C135.243 85.38 135.883 86.02 136.703 86.02ZM135.543 87.48V100.66C135.543 101.48 135.223 101.82 134.263 101.82H133.483V103.74H134.663C136.623 103.74 137.823 102.9 137.823 100.66V87.48H135.543ZM145.456 89.22C147.156 89.22 148.496 90.3 148.536 92H142.436C142.676 90.26 143.916 89.22 145.456 89.22ZM150.616 95.22H148.156C147.736 96.08 146.956 96.76 145.556 96.76C143.876 96.76 142.576 95.66 142.416 93.84H150.836C150.896 93.46 150.916 93.1 150.916 92.72C150.916 89.48 148.696 87.3 145.556 87.3C142.296 87.3 140.056 89.52 140.056 92.98C140.056 96.44 142.396 98.68 145.556 98.68C148.256 98.68 149.996 97.14 150.616 95.22ZM152.4 92.98C152.4 96.44 154.64 98.68 157.8 98.68C160.5 98.68 162.26 97.18 162.88 95.02H160.42C160 96.16 159.16 96.76 157.8 96.76C155.96 96.76 154.74 95.4 154.74 92.98C154.74 90.58 155.96 89.22 157.8 89.22C159.16 89.22 160.04 89.9 160.42 90.96H162.88C162.26 88.64 160.5 87.3 157.8 87.3C154.64 87.3 152.4 89.54 152.4 92.98ZM165.512 95.44C165.512 97.68 166.732 98.5 168.692 98.5H170.492V96.6H169.092C168.132 96.6 167.812 96.26 167.812 95.44V89.34H170.492V87.48H167.812V84.74H165.512V87.48H164.212V89.34H165.512V95.44Z" fill="#212832"/>
<rect x="0.5" y="66.5" width="616" height="49" stroke="black" stroke-opacity="0.5"/>
<rect y="180" width="617" height="50" fill="white"/>
<path d="M21.74 206.22H29.96V204.3H21.74V206.22ZM33.4392 206.22H41.6592V204.3H33.4392V206.22ZM45.1384 206.22H53.3584V204.3H45.1384V206.22ZM56.8377 206.22H65.0577V204.3H56.8377V206.22Z" fill="#212832"/>
<rect x="0.5" y="180.5" width="616" height="49" stroke="black" stroke-opacity="0.5"/>
<rect y="351" width="617" height="50" fill="white"/>
<path d="M21.74 377.22H29.96V375.3H21.74V377.22ZM33.4392 377.22H41.6592V375.3H33.4392V377.22ZM45.1384 377.22H53.3584V375.3H45.1384V377.22ZM56.8377 377.22H65.0577V375.3H56.8377V377.22Z" fill="#212832"/>
<rect x="0.5" y="351.5" width="616" height="49" stroke="black" stroke-opacity="0.5"/>
<rect y="123" width="617" height="50" fill="white"/>
<path d="M21.74 149.22H29.96V147.3H21.74V149.22ZM33.4392 149.22H41.6592V147.3H33.4392V149.22ZM45.1384 149.22H53.3584V147.3H45.1384V149.22ZM56.8377 149.22H65.0577V147.3H56.8377V149.22Z" fill="#212832"/>
<rect x="0.5" y="123.5" width="616" height="49" stroke="black" stroke-opacity="0.5"/>
<rect y="294" width="617" height="50" fill="white"/>
<path d="M21.74 320.22H29.96V318.3H21.74V320.22ZM33.4392 320.22H41.6592V318.3H33.4392V320.22ZM45.1384 320.22H53.3584V318.3H45.1384V320.22ZM56.8377 320.22H65.0577V318.3H56.8377V320.22Z" fill="#212832"/>
<rect x="0.5" y="294.5" width="616" height="49" stroke="black" stroke-opacity="0.5"/>
<rect y="237" width="617" height="50" fill="white"/>
<path d="M21.74 263.22H29.96V261.3H21.74V263.22ZM33.4392 263.22H41.6592V261.3H33.4392V263.22ZM45.1384 263.22H53.3584V261.3H45.1384V263.22ZM56.8377 263.22H65.0577V261.3H56.8377V263.22Z" fill="#212832"/>
<rect x="0.5" y="237.5" width="616" height="49" stroke="black" stroke-opacity="0.5"/>
<rect y="408" width="617" height="50" fill="white"/>
<path d="M21.74 434.22H29.96V432.3H21.74V434.22ZM33.4392 434.22H41.6592V432.3H33.4392V434.22ZM45.1384 434.22H53.3584V432.3H45.1384V434.22ZM56.8377 434.22H65.0577V432.3H56.8377V434.22Z" fill="#212832"/>
<rect x="0.5" y="408.5" width="616" height="49" stroke="black" stroke-opacity="0.5"/>
<rect width="617" height="58" fill="#3498DB"/>
<path d="M33.925 32.95C33.925 26.8 24.975 28.75 24.975 25.25C24.975 23.825 26 23.15 27.375 23.2C28.875 23.225 29.8 24.125 29.875 25.275H33.725C33.5 22.125 31.05 20.3 27.475 20.3C23.875 20.3 21.325 22.2 21.325 25.35C21.3 31.675 30.3 29.4 30.3 33.175C30.3 34.425 29.325 35.3 27.675 35.3C26.05 35.3 25.125 34.375 25.025 32.975H21.275C21.325 36.275 24.125 38.175 27.75 38.175C31.725 38.175 33.925 35.7 33.925 32.95ZM43.4094 26.8C45.2094 26.8 46.6594 27.95 46.7094 29.775H40.1344C40.4094 27.875 41.7344 26.8 43.4094 26.8ZM49.9844 33.65H46.2094C45.7594 34.575 44.9344 35.325 43.4344 35.325C41.6844 35.325 40.2844 34.175 40.1094 32.125H50.2344C50.3094 31.675 50.3344 31.225 50.3344 30.775C50.3344 26.65 47.5094 23.925 43.5094 23.925C39.4094 23.925 36.5594 26.7 36.5594 31.075C36.5594 35.425 39.4844 38.225 43.5094 38.225C46.9344 38.225 49.2344 36.2 49.9844 33.65ZM72.7641 38H76.2641V29.875C76.2641 26.05 73.9141 23.95 70.5891 23.95C68.5641 23.95 66.7391 25.025 65.8391 26.6C64.8891 24.875 63.1141 23.95 60.9641 23.95C59.2391 23.95 57.7641 24.675 56.8891 25.825V24.15H53.3891V38H56.8891V30.35C56.8891 28.15 58.1141 27 60.0141 27C61.8641 27 63.0891 28.15 63.0891 30.35V38H66.5891V30.35C66.5891 28.15 67.8141 27 69.6891 27C71.5391 27 72.7641 28.15 72.7641 30.35V38ZM86.0354 26.8C87.8354 26.8 89.2854 27.95 89.3354 29.775H82.7604C83.0354 27.875 84.3604 26.8 86.0354 26.8ZM92.6104 33.65H88.8354C88.3854 34.575 87.5604 35.325 86.0604 35.325C84.3104 35.325 82.9104 34.175 82.7354 32.125H92.8604C92.9354 31.675 92.9604 31.225 92.9604 30.775C92.9604 26.65 90.1354 23.925 86.1354 23.925C82.0354 23.925 79.1854 26.7 79.1854 31.075C79.1854 35.425 82.1104 38.225 86.1354 38.225C89.5604 38.225 91.8604 36.2 92.6104 33.65ZM106.765 34.05C106.665 28.975 98.99 30.55 98.99 28.025C98.99 27.225 99.665 26.7 100.965 26.7C102.34 26.7 103.19 27.425 103.29 28.5H106.64C106.44 25.75 104.415 23.925 101.065 23.925C97.64 23.925 95.59 25.775 95.59 28.075C95.59 33.15 103.415 31.575 103.415 34.05C103.415 34.85 102.665 35.475 101.29 35.475C99.89 35.475 98.915 34.675 98.79 33.625H95.265C95.415 36.2 97.84 38.225 101.315 38.225C104.69 38.225 106.765 36.425 106.765 34.05ZM110.688 33.7C110.688 36.875 112.463 38 115.113 38H117.313V35.05H115.688C114.588 35.05 114.213 34.65 114.213 33.725V27.025H117.313V24.15H114.213V20.725H110.688V24.15H109.038V27.025H110.688V33.7ZM126.28 26.8C128.08 26.8 129.53 27.95 129.58 29.775H123.005C123.28 27.875 124.605 26.8 126.28 26.8ZM132.855 33.65H129.08C128.63 34.575 127.805 35.325 126.305 35.325C124.555 35.325 123.155 34.175 122.98 32.125H133.105C133.18 31.675 133.205 31.225 133.205 30.775C133.205 26.65 130.38 23.925 126.38 23.925C122.28 23.925 119.43 26.7 119.43 31.075C119.43 35.425 122.355 38.225 126.38 38.225C129.805 38.225 132.105 36.2 132.855 33.65ZM139.76 31.1C139.76 28.425 141.01 27.625 143.085 27.625H144.01V23.95C142.085 23.95 140.635 24.875 139.76 26.3V24.15H136.26V38H139.76V31.1ZM161.525 38H165.025V34.45H167.225V31.4H165.025V20H160.95L152.775 31.7V34.45H161.525V38ZM156.625 31.4L161.75 23.75V31.4H156.625Z" fill="white"/>
</svg>
