<svg width="1240" height="107" viewBox="0 0 1240 107" fill="none" xmlns="http://www.w3.org/2000/svg">
<rect width="400" height="50" fill="white"/>
<path d="M24.6 28.44C26.08 28.44 27.24 27.3 27.24 25.84C27.24 24.36 26.08 23.22 24.6 23.22C23.16 23.22 22 24.36 22 25.84C22 27.3 23.16 28.44 24.6 28.44ZM41.1289 32.5H43.4089V22.98L47.6689 32.5H49.2489L53.4889 22.98V32.5H55.7689V18.6H53.3289L48.4689 29.5L43.5889 18.6H41.1289V32.5ZM58.0056 26.94C58.0056 30.34 60.3056 32.68 63.1656 32.68C65.0056 32.68 66.3256 31.8 67.0256 30.86V32.5H69.3256V21.48H67.0256V23.08C66.3456 22.18 65.0656 21.3 63.2056 21.3C60.3056 21.3 58.0056 23.54 58.0056 26.94ZM67.0256 26.98C67.0256 29.36 65.4056 30.7 63.6856 30.7C61.9856 30.7 60.3456 29.32 60.3456 26.94C60.3456 24.56 61.9856 23.28 63.6856 23.28C65.4056 23.28 67.0256 24.62 67.0256 26.98ZM71.5603 26.98C71.5603 30.44 73.8003 32.68 76.9603 32.68C79.6603 32.68 81.4203 31.18 82.0403 29.02H79.5803C79.1603 30.16 78.3203 30.76 76.9603 30.76C75.1203 30.76 73.9003 29.4 73.9003 26.98C73.9003 24.58 75.1203 23.22 76.9603 23.22C78.3203 23.22 79.2003 23.9 79.5803 24.96H82.0403C81.4203 22.64 79.6603 21.3 76.9603 21.3C73.8003 21.3 71.5603 23.54 71.5603 26.98ZM84.3125 32.5H86.5925V26.34C86.5925 24.32 87.6925 23.28 89.3725 23.28C91.0325 23.28 92.1325 24.32 92.1325 26.34V32.5H94.3925V26C94.3925 22.92 92.4725 21.3 90.0125 21.3C88.5925 21.3 87.3525 21.84 86.5925 22.76V17.7H84.3125V32.5ZM97.3008 32.5H99.5808V21.48H97.3008V32.5ZM98.4608 20.02C99.2608 20.02 99.9008 19.38 99.9008 18.56C99.9008 17.74 99.2608 17.1 98.4608 17.1C97.6408 17.1 97.0008 17.74 97.0008 18.56C97.0008 19.38 97.6408 20.02 98.4608 20.02ZM110.394 32.5H112.654V26C112.654 22.92 110.714 21.3 108.134 21.3C106.814 21.3 105.594 21.84 104.854 22.74V21.48H102.574V32.5H104.854V26.34C104.854 24.32 105.954 23.28 107.634 23.28C109.294 23.28 110.394 24.32 110.394 26.34V32.5ZM120.203 23.22C121.903 23.22 123.243 24.3 123.283 26H117.183C117.423 24.26 118.663 23.22 120.203 23.22ZM125.362 29.22H122.903C122.483 30.08 121.703 30.76 120.303 30.76C118.623 30.76 117.323 29.66 117.163 27.84H125.583C125.643 27.46 125.663 27.1 125.663 26.72C125.663 23.48 123.443 21.3 120.303 21.3C117.043 21.3 114.803 23.52 114.803 26.98C114.803 30.44 117.143 32.68 120.303 32.68C123.003 32.68 124.743 31.14 125.362 29.22ZM133.102 18.6V32.5H140.082V30.66H135.382V18.6H133.102ZM146.628 23.22C148.328 23.22 149.668 24.3 149.708 26H143.608C143.848 24.26 145.088 23.22 146.628 23.22ZM151.788 29.22H149.328C148.908 30.08 148.128 30.76 146.728 30.76C145.048 30.76 143.748 29.66 143.588 27.84H152.008C152.068 27.46 152.088 27.1 152.088 26.72C152.088 23.48 149.868 21.3 146.728 21.3C143.468 21.3 141.228 23.52 141.228 26.98C141.228 30.44 143.568 32.68 146.728 32.68C149.428 32.68 151.168 31.14 151.788 29.22ZM153.572 26.94C153.572 30.34 155.872 32.68 158.732 32.68C160.572 32.68 161.892 31.8 162.592 30.86V32.5H164.892V21.48H162.592V23.08C161.912 22.18 160.632 21.3 158.772 21.3C155.872 21.3 153.572 23.54 153.572 26.94ZM162.592 26.98C162.592 29.36 160.972 30.7 159.252 30.7C157.552 30.7 155.912 29.32 155.912 26.94C155.912 24.56 157.552 23.28 159.252 23.28C160.972 23.28 162.592 24.62 162.592 26.98ZM170.167 26.7C170.167 24.36 171.207 23.66 172.887 23.66H173.467V21.3C171.907 21.3 170.807 21.98 170.167 23.08V21.48H167.887V32.5H170.167V26.7ZM183.383 32.5H185.643V26C185.643 22.92 183.703 21.3 181.123 21.3C179.803 21.3 178.583 21.84 177.843 22.74V21.48H175.563V32.5H177.843V26.34C177.843 24.32 178.943 23.28 180.623 23.28C182.283 23.28 183.383 24.32 183.383 26.34V32.5ZM188.551 32.5H190.831V21.48H188.551V32.5ZM189.711 20.02C190.511 20.02 191.151 19.38 191.151 18.56C191.151 17.74 190.511 17.1 189.711 17.1C188.891 17.1 188.251 17.74 188.251 18.56C188.251 19.38 188.891 20.02 189.711 20.02ZM201.644 32.5H203.904V26C203.904 22.92 201.964 21.3 199.384 21.3C198.064 21.3 196.844 21.84 196.104 22.74V21.48H193.824V32.5H196.104V26.34C196.104 24.32 197.204 23.28 198.884 23.28C200.544 23.28 201.644 24.32 201.644 26.34V32.5ZM206.053 26.94C206.053 30.34 208.353 32.68 211.253 32.68C213.053 32.68 214.373 31.78 215.073 30.84V32.68C215.073 34.88 213.753 35.96 211.993 35.96C210.413 35.96 209.193 35.18 208.853 34.04H206.593C206.873 36.48 209.053 37.94 211.993 37.94C215.433 37.94 217.373 35.68 217.373 32.68V21.48H215.073V23.08C214.393 22.14 213.053 21.3 211.253 21.3C208.353 21.3 206.053 23.54 206.053 26.94ZM215.073 26.98C215.073 29.36 213.453 30.7 211.733 30.7C210.033 30.7 208.393 29.32 208.393 26.94C208.393 24.56 210.033 23.28 211.733 23.28C213.453 23.28 215.073 24.62 215.073 26.98ZM233.243 18.58H225.563V32.5H233.243V30.64H227.843V26.38H232.643V24.52H227.843V20.44H233.243V18.58ZM243.871 32.5H246.131V26C246.131 22.92 244.191 21.3 241.611 21.3C240.291 21.3 239.071 21.84 238.331 22.74V21.48H236.051V32.5H238.331V26.34C238.331 24.32 239.431 23.28 241.111 23.28C242.771 23.28 243.871 24.32 243.871 26.34V32.5ZM248.279 26.94C248.279 30.34 250.579 32.68 253.479 32.68C255.279 32.68 256.599 31.78 257.299 30.84V32.68C257.299 34.88 255.979 35.96 254.219 35.96C252.639 35.96 251.419 35.18 251.079 34.04H248.819C249.099 36.48 251.279 37.94 254.219 37.94C257.659 37.94 259.599 35.68 259.599 32.68V21.48H257.299V23.08C256.619 22.14 255.279 21.3 253.479 21.3C250.579 21.3 248.279 23.54 248.279 26.94ZM257.299 26.98C257.299 29.36 255.679 30.7 253.959 30.7C252.259 30.7 250.619 29.32 250.619 26.94C250.619 24.56 252.259 23.28 253.959 23.28C255.679 23.28 257.299 24.62 257.299 26.98ZM262.594 32.5H264.874V21.48H262.594V32.5ZM263.754 20.02C264.554 20.02 265.194 19.38 265.194 18.56C265.194 17.74 264.554 17.1 263.754 17.1C262.934 17.1 262.294 17.74 262.294 18.56C262.294 19.38 262.934 20.02 263.754 20.02ZM275.687 32.5H277.947V26C277.947 22.92 276.007 21.3 273.427 21.3C272.107 21.3 270.887 21.84 270.147 22.74V21.48H267.867V32.5H270.147V26.34C270.147 24.32 271.247 23.28 272.927 23.28C274.587 23.28 275.687 24.32 275.687 26.34V32.5ZM285.495 23.22C287.195 23.22 288.535 24.3 288.575 26H282.475C282.715 24.26 283.955 23.22 285.495 23.22ZM290.655 29.22H288.195C287.775 30.08 286.995 30.76 285.595 30.76C283.915 30.76 282.615 29.66 282.455 27.84H290.875C290.935 27.46 290.955 27.1 290.955 26.72C290.955 23.48 288.735 21.3 285.595 21.3C282.335 21.3 280.095 23.52 280.095 26.98C280.095 30.44 282.435 32.68 285.595 32.68C288.295 32.68 290.035 31.14 290.655 29.22ZM297.839 23.22C299.539 23.22 300.879 24.3 300.919 26H294.819C295.059 24.26 296.299 23.22 297.839 23.22ZM302.999 29.22H300.539C300.119 30.08 299.339 30.76 297.939 30.76C296.259 30.76 294.959 29.66 294.799 27.84H303.219C303.279 27.46 303.299 27.1 303.299 26.72C303.299 23.48 301.079 21.3 297.939 21.3C294.679 21.3 292.439 23.52 292.439 26.98C292.439 30.44 294.779 32.68 297.939 32.68C300.639 32.68 302.379 31.14 302.999 29.22ZM307.823 26.7C307.823 24.36 308.863 23.66 310.543 23.66H311.123V21.3C309.563 21.3 308.463 21.98 307.823 23.08V21.48H305.543V32.5H307.823V26.7Z" fill="#212832"/>
<rect x="0.5" y="0.5" width="399" height="49" stroke="black" stroke-opacity="0.5"/>
<rect y="57" width="400" height="50" fill="white"/>
<path d="M24.6 85.44C26.08 85.44 27.24 84.3 27.24 82.84C27.24 81.36 26.08 80.22 24.6 80.22C23.16 80.22 22 81.36 22 82.84C22 84.3 23.16 85.44 24.6 85.44ZM43.4089 82V77.46H45.9289C47.7089 77.46 48.5089 78.3 48.5089 79.74C48.5089 81.14 47.7089 82 45.9289 82H43.4089ZM50.8489 79.74C50.8489 77.48 49.2289 75.6 45.9289 75.6H41.1289V89.5H43.4089V83.86H45.9289C49.5489 83.86 50.8489 81.72 50.8489 79.74ZM55.3034 83.7C55.3034 81.36 56.3434 80.66 58.0234 80.66H58.6034V78.3C57.0434 78.3 55.9434 78.98 55.3034 80.08V78.48H53.0234V89.5H55.3034V83.7ZM71.1992 83.98C71.1992 80.52 68.7192 78.3 65.5792 78.3C62.4392 78.3 59.9592 80.52 59.9592 83.98C59.9592 87.44 62.3392 89.68 65.4792 89.68C68.6392 89.68 71.1992 87.44 71.1992 83.98ZM62.2792 83.98C62.2792 81.48 63.8192 80.28 65.5392 80.28C67.2392 80.28 68.8592 81.48 68.8592 83.98C68.8592 86.48 67.1792 87.7 65.4792 87.7C63.7592 87.7 62.2792 86.48 62.2792 83.98ZM74.6131 77.02C75.4131 77.02 76.0531 76.38 76.0531 75.56C76.0531 74.74 75.4131 74.1 74.6131 74.1C73.7931 74.1 73.1531 74.74 73.1531 75.56C73.1531 76.38 73.7931 77.02 74.6131 77.02ZM73.4531 78.48V91.66C73.4531 92.48 73.1331 92.82 72.1731 92.82H71.3931V94.74H72.5731C74.5331 94.74 75.7331 93.9 75.7331 91.66V78.48H73.4531ZM83.3666 80.22C85.0666 80.22 86.4066 81.3 86.4466 83H80.3466C80.5866 81.26 81.8266 80.22 83.3666 80.22ZM88.5266 86.22H86.0666C85.6466 87.08 84.8666 87.76 83.4666 87.76C81.7866 87.76 80.4866 86.66 80.3266 84.84H88.7466C88.8066 84.46 88.8266 84.1 88.8266 83.72C88.8266 80.48 86.6066 78.3 83.4666 78.3C80.2066 78.3 77.9666 80.52 77.9666 83.98C77.9666 87.44 80.3066 89.68 83.4666 89.68C86.1666 89.68 87.9066 88.14 88.5266 86.22ZM90.3103 83.98C90.3103 87.44 92.5503 89.68 95.7103 89.68C98.4103 89.68 100.17 88.18 100.79 86.02H98.3303C97.9103 87.16 97.0703 87.76 95.7103 87.76C93.8703 87.76 92.6503 86.4 92.6503 83.98C92.6503 81.58 93.8703 80.22 95.7103 80.22C97.0703 80.22 97.9503 80.9 98.3303 81.96H100.79C100.17 79.64 98.4103 78.3 95.7103 78.3C92.5503 78.3 90.3103 80.54 90.3103 83.98ZM103.423 86.44C103.423 88.68 104.643 89.5 106.603 89.5H108.403V87.6H107.003C106.043 87.6 105.723 87.26 105.723 86.44V80.34H108.403V78.48H105.723V75.74H103.423V78.48H102.123V80.34H103.423V86.44ZM115.699 89.5H117.979V79.98L122.239 89.5H123.819L128.059 79.98V89.5H130.339V75.6H127.899L123.039 86.5L118.159 75.6H115.699V89.5ZM132.576 83.94C132.576 87.34 134.876 89.68 137.736 89.68C139.576 89.68 140.896 88.8 141.596 87.86V89.5H143.896V78.48H141.596V80.08C140.916 79.18 139.636 78.3 137.776 78.3C134.876 78.3 132.576 80.54 132.576 83.94ZM141.596 83.98C141.596 86.36 139.976 87.7 138.256 87.7C136.556 87.7 134.916 86.32 134.916 83.94C134.916 81.56 136.556 80.28 138.256 80.28C139.976 80.28 141.596 81.62 141.596 83.98ZM154.711 89.5H156.971V83C156.971 79.92 155.031 78.3 152.451 78.3C151.131 78.3 149.911 78.84 149.171 79.74V78.48H146.891V89.5H149.171V83.34C149.171 81.32 150.271 80.28 151.951 80.28C153.611 80.28 154.711 81.32 154.711 83.34V89.5ZM159.119 83.94C159.119 87.34 161.419 89.68 164.279 89.68C166.119 89.68 167.439 88.8 168.139 87.86V89.5H170.439V78.48H168.139V80.08C167.459 79.18 166.179 78.3 164.319 78.3C161.419 78.3 159.119 80.54 159.119 83.94ZM168.139 83.98C168.139 86.36 166.519 87.7 164.799 87.7C163.099 87.7 161.459 86.32 161.459 83.94C161.459 81.56 163.099 80.28 164.799 80.28C166.519 80.28 168.139 81.62 168.139 83.98ZM172.674 83.94C172.674 87.34 174.974 89.68 177.874 89.68C179.674 89.68 180.994 88.78 181.694 87.84V89.68C181.694 91.88 180.374 92.96 178.614 92.96C177.034 92.96 175.814 92.18 175.474 91.04H173.214C173.494 93.48 175.674 94.94 178.614 94.94C182.054 94.94 183.994 92.68 183.994 89.68V78.48H181.694V80.08C181.014 79.14 179.674 78.3 177.874 78.3C174.974 78.3 172.674 80.54 172.674 83.94ZM181.694 83.98C181.694 86.36 180.074 87.7 178.354 87.7C176.654 87.7 175.014 86.32 175.014 83.94C175.014 81.56 176.654 80.28 178.354 80.28C180.074 80.28 181.694 81.62 181.694 83.98ZM191.628 80.22C193.328 80.22 194.668 81.3 194.708 83H188.608C188.848 81.26 190.088 80.22 191.628 80.22ZM196.788 86.22H194.328C193.908 87.08 193.128 87.76 191.728 87.76C190.048 87.76 188.748 86.66 188.588 84.84H197.008C197.068 84.46 197.088 84.1 197.088 83.72C197.088 80.48 194.868 78.3 191.728 78.3C188.468 78.3 186.228 80.52 186.228 83.98C186.228 87.44 188.568 89.68 191.728 89.68C194.428 89.68 196.168 88.14 196.788 86.22ZM201.612 83.7C201.612 81.36 202.652 80.66 204.332 80.66H204.912V78.3C203.352 78.3 202.252 78.98 201.612 80.08V78.48H199.332V89.5H201.612V83.7Z" fill="#212832"/>
<rect x="0.5" y="57.5" width="399" height="49" stroke="black" stroke-opacity="0.5"/>
<rect x="840" width="400" height="50" fill="white"/>
<path d="M864.6 28.44C866.08 28.44 867.24 27.3 867.24 25.84C867.24 24.36 866.08 23.22 864.6 23.22C863.16 23.22 862 24.36 862 25.84C862 27.3 863.16 28.44 864.6 28.44ZM881.129 32.5H883.409V18.6H881.129V32.5ZM894.222 32.5H896.482V26C896.482 22.92 894.542 21.3 891.962 21.3C890.642 21.3 889.422 21.84 888.682 22.74V21.48H886.402V32.5H888.682V26.34C888.682 24.32 889.782 23.28 891.462 23.28C893.122 23.28 894.222 24.32 894.222 26.34V32.5ZM899.671 32.5H901.971V23.34H904.011V21.48H901.971V20.7C901.971 19.44 902.451 18.96 903.851 18.96V17.06C900.971 17.06 899.671 18.16 899.671 20.7V21.48H898.371V23.34H899.671V32.5ZM916.531 26.98C916.531 23.52 914.051 21.3 910.911 21.3C907.771 21.3 905.291 23.52 905.291 26.98C905.291 30.44 907.671 32.68 910.811 32.68C913.971 32.68 916.531 30.44 916.531 26.98ZM907.611 26.98C907.611 24.48 909.151 23.28 910.871 23.28C912.571 23.28 914.191 24.48 914.191 26.98C914.191 29.48 912.511 30.7 910.811 30.7C909.091 30.7 907.611 29.48 907.611 26.98ZM921.065 26.7C921.065 24.36 922.105 23.66 923.785 23.66H924.365V21.3C922.805 21.3 921.705 21.98 921.065 23.08V21.48H918.785V32.5H921.065V26.7ZM942.081 32.5H944.341V26C944.341 22.92 942.381 21.3 939.801 21.3C938.201 21.3 936.641 22.14 935.961 23.48C935.201 22.04 933.741 21.3 932.001 21.3C930.681 21.3 929.481 21.84 928.741 22.74V21.48H926.461V32.5H928.741V26.34C928.741 24.32 929.841 23.28 931.521 23.28C933.181 23.28 934.281 24.32 934.281 26.34V32.5H936.541V26.34C936.541 24.32 937.641 23.28 939.321 23.28C940.981 23.28 942.081 24.32 942.081 26.34V32.5ZM946.482 26.94C946.482 30.34 948.782 32.68 951.642 32.68C953.482 32.68 954.802 31.8 955.502 30.86V32.5H957.802V21.48H955.502V23.08C954.822 22.18 953.542 21.3 951.682 21.3C948.782 21.3 946.482 23.54 946.482 26.94ZM955.502 26.98C955.502 29.36 953.882 30.7 952.162 30.7C950.462 30.7 948.822 29.32 948.822 26.94C948.822 24.56 950.462 23.28 952.162 23.28C953.882 23.28 955.502 24.62 955.502 26.98ZM961.157 29.44C961.157 31.68 962.377 32.5 964.337 32.5H966.137V30.6H964.737C963.777 30.6 963.457 30.26 963.457 29.44V23.34H966.137V21.48H963.457V18.74H961.157V21.48H959.857V23.34H961.157V29.44ZM968.238 32.5H970.518V21.48H968.238V32.5ZM969.398 20.02C970.198 20.02 970.838 19.38 970.838 18.56C970.838 17.74 970.198 17.1 969.398 17.1C968.578 17.1 967.938 17.74 967.938 18.56C967.938 19.38 968.578 20.02 969.398 20.02ZM984.012 26.98C984.012 23.52 981.532 21.3 978.392 21.3C975.252 21.3 972.772 23.52 972.772 26.98C972.772 30.44 975.152 32.68 978.292 32.68C981.452 32.68 984.012 30.44 984.012 26.98ZM975.092 26.98C975.092 24.48 976.632 23.28 978.352 23.28C980.052 23.28 981.672 24.48 981.672 26.98C981.672 29.48 979.992 30.7 978.292 30.7C976.572 30.7 975.092 29.48 975.092 26.98ZM994.086 32.5H996.346V26C996.346 22.92 994.406 21.3 991.826 21.3C990.506 21.3 989.286 21.84 988.546 22.74V21.48H986.266V32.5H988.546V26.34C988.546 24.32 989.646 23.28 991.326 23.28C992.986 23.28 994.086 24.32 994.086 26.34V32.5ZM1013.83 28.56C1013.83 23.48 1006.47 25.44 1006.47 22.3C1006.47 20.96 1007.49 20.32 1008.81 20.36C1010.25 20.4 1011.07 21.26 1011.15 22.2H1013.67C1013.47 19.82 1011.59 18.42 1008.93 18.42C1006.09 18.42 1004.15 19.94 1004.15 22.38C1004.15 27.5 1011.53 25.32 1011.53 28.68C1011.53 29.86 1010.63 30.72 1009.03 30.72C1007.45 30.72 1006.65 29.8 1006.55 28.66H1004.11C1004.11 31.12 1006.25 32.64 1009.03 32.64C1012.13 32.64 1013.83 30.64 1013.83 28.56ZM1021.16 23.22C1022.86 23.22 1024.2 24.3 1024.24 26H1018.14C1018.38 24.26 1019.62 23.22 1021.16 23.22ZM1026.32 29.22H1023.86C1023.44 30.08 1022.66 30.76 1021.26 30.76C1019.58 30.76 1018.28 29.66 1018.12 27.84H1026.54C1026.6 27.46 1026.62 27.1 1026.62 26.72C1026.62 23.48 1024.4 21.3 1021.26 21.3C1018 21.3 1015.76 23.52 1015.76 26.98C1015.76 30.44 1018.1 32.68 1021.26 32.68C1023.96 32.68 1025.7 31.14 1026.32 29.22ZM1028.1 26.98C1028.1 30.44 1030.34 32.68 1033.5 32.68C1036.2 32.68 1037.96 31.18 1038.58 29.02H1036.12C1035.7 30.16 1034.86 30.76 1033.5 30.76C1031.66 30.76 1030.44 29.4 1030.44 26.98C1030.44 24.58 1031.66 23.22 1033.5 23.22C1034.86 23.22 1035.74 23.9 1036.12 24.96H1038.58C1037.96 22.64 1036.2 21.3 1033.5 21.3C1030.34 21.3 1028.1 23.54 1028.1 26.98ZM1050.84 21.48H1048.56V27.62C1048.56 29.64 1047.46 30.68 1045.78 30.68C1044.12 30.68 1043.02 29.64 1043.02 27.62V21.48H1040.76V27.96C1040.76 31.04 1042.72 32.66 1045.3 32.66C1046.6 32.66 1047.84 32.12 1048.56 31.18V32.5H1050.84V21.48ZM1056.12 26.7C1056.12 24.36 1057.16 23.66 1058.84 23.66H1059.42V21.3C1057.86 21.3 1056.76 21.98 1056.12 23.08V21.48H1053.84V32.5H1056.12V26.7ZM1061.52 32.5H1063.8V21.48H1061.52V32.5ZM1062.68 20.02C1063.48 20.02 1064.12 19.38 1064.12 18.56C1064.12 17.74 1063.48 17.1 1062.68 17.1C1061.86 17.1 1061.22 17.74 1061.22 18.56C1061.22 19.38 1061.86 20.02 1062.68 20.02ZM1067.15 29.44C1067.15 31.68 1068.37 32.5 1070.33 32.5H1072.13V30.6H1070.73C1069.77 30.6 1069.45 30.26 1069.45 29.44V23.34H1072.13V21.48H1069.45V18.74H1067.15V21.48H1065.85V23.34H1067.15V29.44ZM1078.57 29.88L1075.47 21.48H1072.93L1077.27 32.32L1075.03 37.68H1077.39L1084.15 21.48H1081.79L1078.57 29.88ZM1100.45 32.5H1102.85L1097.87 18.58H1095.23L1090.25 32.5H1092.63L1093.63 29.66H1099.45L1100.45 32.5ZM1098.81 27.8H1094.27L1096.55 21.34L1098.81 27.8ZM1112.84 32.5H1115.1V26C1115.1 22.92 1113.16 21.3 1110.58 21.3C1109.26 21.3 1108.04 21.84 1107.3 22.74V21.48H1105.02V32.5H1107.3V26.34C1107.3 24.32 1108.4 23.28 1110.08 23.28C1111.74 23.28 1112.84 24.32 1112.84 26.34V32.5ZM1117.24 26.94C1117.24 30.34 1119.54 32.68 1122.4 32.68C1124.24 32.68 1125.56 31.8 1126.26 30.86V32.5H1128.56V21.48H1126.26V23.08C1125.58 22.18 1124.3 21.3 1122.44 21.3C1119.54 21.3 1117.24 23.54 1117.24 26.94ZM1126.26 26.98C1126.26 29.36 1124.64 30.7 1122.92 30.7C1121.22 30.7 1119.58 29.32 1119.58 26.94C1119.58 24.56 1121.22 23.28 1122.92 23.28C1124.64 23.28 1126.26 24.62 1126.26 26.98ZM1131.56 32.5H1133.84V17.7H1131.56V32.5ZM1141.17 29.88L1138.07 21.48H1135.53L1139.87 32.32L1137.63 37.68H1139.99L1146.75 21.48H1144.39L1141.17 29.88ZM1156.69 29.42C1156.57 25.44 1150.35 26.68 1150.35 24.46C1150.35 23.72 1150.99 23.22 1152.21 23.22C1153.45 23.22 1154.19 23.88 1154.27 24.84H1156.55C1156.43 22.64 1154.79 21.3 1152.29 21.3C1149.69 21.3 1148.05 22.72 1148.05 24.48C1148.05 28.52 1154.45 27.28 1154.45 29.44C1154.45 30.2 1153.75 30.76 1152.43 30.76C1151.17 30.76 1150.31 30.02 1150.23 29.12H1147.87C1147.97 31.12 1149.83 32.68 1152.47 32.68C1155.07 32.68 1156.69 31.28 1156.69 29.42ZM1159.52 29.44C1159.52 31.68 1160.74 32.5 1162.7 32.5H1164.5V30.6H1163.1C1162.14 30.6 1161.82 30.26 1161.82 29.44V23.34H1164.5V21.48H1161.82V18.74H1159.52V21.48H1158.22V23.34H1159.52V29.44Z" fill="#212832"/>
<rect x="840.5" y="0.5" width="399" height="49" stroke="black" stroke-opacity="0.5"/>
<rect x="840" y="57" width="400" height="50" fill="white"/>
<path d="M864.6 85.44C866.08 85.44 867.24 84.3 867.24 82.84C867.24 81.36 866.08 80.22 864.6 80.22C863.16 80.22 862 81.36 862 82.84C862 84.3 863.16 85.44 864.6 85.44ZM890.509 85.56C890.509 80.48 883.149 82.44 883.149 79.3C883.149 77.96 884.169 77.32 885.489 77.36C886.929 77.4 887.749 78.26 887.829 79.2H890.349C890.149 76.82 888.269 75.42 885.609 75.42C882.769 75.42 880.829 76.94 880.829 79.38C880.829 84.5 888.209 82.32 888.209 85.68C888.209 86.86 887.309 87.72 885.709 87.72C884.129 87.72 883.329 86.8 883.229 85.66H880.789C880.789 88.12 882.929 89.64 885.709 89.64C888.809 89.64 890.509 87.64 890.509 85.56ZM897.839 80.22C899.539 80.22 900.879 81.3 900.919 83H894.819C895.059 81.26 896.299 80.22 897.839 80.22ZM902.999 86.22H900.539C900.119 87.08 899.339 87.76 897.939 87.76C896.259 87.76 894.959 86.66 894.799 84.84H903.219C903.279 84.46 903.299 84.1 903.299 83.72C903.299 80.48 901.079 78.3 897.939 78.3C894.679 78.3 892.439 80.52 892.439 83.98C892.439 87.44 894.779 89.68 897.939 89.68C900.639 89.68 902.379 88.14 902.999 86.22ZM913.363 89.5H915.623V83C915.623 79.92 913.683 78.3 911.103 78.3C909.783 78.3 908.563 78.84 907.823 79.74V78.48H905.543V89.5H907.823V83.34C907.823 81.32 908.923 80.28 910.603 80.28C912.263 80.28 913.363 81.32 913.363 83.34V89.5ZM918.531 89.5H920.811V78.48H918.531V89.5ZM919.691 77.02C920.491 77.02 921.131 76.38 921.131 75.56C921.131 74.74 920.491 74.1 919.691 74.1C918.871 74.1 918.231 74.74 918.231 75.56C918.231 76.38 918.871 77.02 919.691 77.02ZM934.305 83.98C934.305 80.52 931.825 78.3 928.685 78.3C925.545 78.3 923.065 80.52 923.065 83.98C923.065 87.44 925.445 89.68 928.585 89.68C931.745 89.68 934.305 87.44 934.305 83.98ZM925.385 83.98C925.385 81.48 926.925 80.28 928.645 80.28C930.345 80.28 931.965 81.48 931.965 83.98C931.965 86.48 930.285 87.7 928.585 87.7C926.865 87.7 925.385 86.48 925.385 83.98ZM938.839 83.7C938.839 81.36 939.879 80.66 941.559 80.66H942.139V78.3C940.579 78.3 939.479 78.98 938.839 80.08V78.48H936.559V89.5H938.839V83.7ZM958.81 85.56C958.81 80.48 951.45 82.44 951.45 79.3C951.45 77.96 952.47 77.32 953.79 77.36C955.23 77.4 956.05 78.26 956.13 79.2H958.65C958.45 76.82 956.57 75.42 953.91 75.42C951.07 75.42 949.13 76.94 949.13 79.38C949.13 84.5 956.51 82.32 956.51 85.68C956.51 86.86 955.61 87.72 954.01 87.72C952.43 87.72 951.63 86.8 951.53 85.66H949.09C949.09 88.12 951.23 89.64 954.01 89.64C957.11 89.64 958.81 87.64 958.81 85.56ZM972 83.98C972 80.52 969.52 78.3 966.38 78.3C963.24 78.3 960.76 80.52 960.76 83.98C960.76 87.44 963.14 89.68 966.28 89.68C969.44 89.68 972 87.44 972 83.98ZM963.08 83.98C963.08 81.48 964.62 80.28 966.34 80.28C968.04 80.28 969.66 81.48 969.66 83.98C969.66 86.48 967.98 87.7 966.28 87.7C964.56 87.7 963.08 86.48 963.08 83.98ZM974.534 89.5H976.834V80.34H978.874V78.48H976.834V77.7C976.834 76.44 977.314 75.96 978.714 75.96V74.06C975.834 74.06 974.534 75.16 974.534 77.7V78.48H973.234V80.34H974.534V89.5ZM981.255 86.44C981.255 88.68 982.475 89.5 984.435 89.5H986.235V87.6H984.835C983.875 87.6 983.555 87.26 983.555 86.44V80.34H986.235V78.48H983.555V75.74H981.255V78.48H979.955V80.34H981.255V86.44ZM990.476 89.5H992.876L995.096 81.36L997.316 89.5H999.716L1003.14 78.48H1000.9L998.616 87.3L996.376 78.48H993.996L991.656 87.34L989.356 78.48H987.036L990.476 89.5ZM1004.08 83.94C1004.08 87.34 1006.38 89.68 1009.24 89.68C1011.08 89.68 1012.4 88.8 1013.1 87.86V89.5H1015.4V78.48H1013.1V80.08C1012.42 79.18 1011.14 78.3 1009.28 78.3C1006.38 78.3 1004.08 80.54 1004.08 83.94ZM1013.1 83.98C1013.1 86.36 1011.48 87.7 1009.76 87.7C1008.06 87.7 1006.42 86.32 1006.42 83.94C1006.42 81.56 1008.06 80.28 1009.76 80.28C1011.48 80.28 1013.1 81.62 1013.1 83.98ZM1020.67 83.7C1020.67 81.36 1021.71 80.66 1023.39 80.66H1023.97V78.3C1022.41 78.3 1021.31 78.98 1020.67 80.08V78.48H1018.39V89.5H1020.67V83.7ZM1030.71 80.22C1032.41 80.22 1033.75 81.3 1033.79 83H1027.69C1027.93 81.26 1029.17 80.22 1030.71 80.22ZM1035.87 86.22H1033.41C1032.99 87.08 1032.21 87.76 1030.81 87.76C1029.13 87.76 1027.83 86.66 1027.67 84.84H1036.09C1036.15 84.46 1036.17 84.1 1036.17 83.72C1036.17 80.48 1033.95 78.3 1030.81 78.3C1027.55 78.3 1025.31 80.52 1025.31 83.98C1025.31 87.44 1027.65 89.68 1030.81 89.68C1033.51 89.68 1035.25 88.14 1035.87 86.22ZM1051.29 75.58H1043.61V89.5H1051.29V87.64H1045.89V83.38H1050.69V81.52H1045.89V77.44H1051.29V75.58ZM1061.92 89.5H1064.18V83C1064.18 79.92 1062.24 78.3 1059.66 78.3C1058.34 78.3 1057.12 78.84 1056.38 79.74V78.48H1054.1V89.5H1056.38V83.34C1056.38 81.32 1057.48 80.28 1059.16 80.28C1060.82 80.28 1061.92 81.32 1061.92 83.34V89.5ZM1066.33 83.94C1066.33 87.34 1068.63 89.68 1071.53 89.68C1073.33 89.68 1074.65 88.78 1075.35 87.84V89.68C1075.35 91.88 1074.03 92.96 1072.27 92.96C1070.69 92.96 1069.47 92.18 1069.13 91.04H1066.87C1067.15 93.48 1069.33 94.94 1072.27 94.94C1075.71 94.94 1077.65 92.68 1077.65 89.68V78.48H1075.35V80.08C1074.67 79.14 1073.33 78.3 1071.53 78.3C1068.63 78.3 1066.33 80.54 1066.33 83.94ZM1075.35 83.98C1075.35 86.36 1073.73 87.7 1072.01 87.7C1070.31 87.7 1068.67 86.32 1068.67 83.94C1068.67 81.56 1070.31 80.28 1072.01 80.28C1073.73 80.28 1075.35 81.62 1075.35 83.98ZM1080.64 89.5H1082.92V78.48H1080.64V89.5ZM1081.8 77.02C1082.6 77.02 1083.24 76.38 1083.24 75.56C1083.24 74.74 1082.6 74.1 1081.8 74.1C1080.98 74.1 1080.34 74.74 1080.34 75.56C1080.34 76.38 1080.98 77.02 1081.8 77.02ZM1093.73 89.5H1095.99V83C1095.99 79.92 1094.05 78.3 1091.47 78.3C1090.15 78.3 1088.93 78.84 1088.19 79.74V78.48H1085.91V89.5H1088.19V83.34C1088.19 81.32 1089.29 80.28 1090.97 80.28C1092.63 80.28 1093.73 81.32 1093.73 83.34V89.5ZM1103.54 80.22C1105.24 80.22 1106.58 81.3 1106.62 83H1100.52C1100.76 81.26 1102 80.22 1103.54 80.22ZM1108.7 86.22H1106.24C1105.82 87.08 1105.04 87.76 1103.64 87.76C1101.96 87.76 1100.66 86.66 1100.5 84.84H1108.92C1108.98 84.46 1109 84.1 1109 83.72C1109 80.48 1106.78 78.3 1103.64 78.3C1100.38 78.3 1098.14 80.52 1098.14 83.98C1098.14 87.44 1100.48 89.68 1103.64 89.68C1106.34 89.68 1108.08 88.14 1108.7 86.22ZM1115.89 80.22C1117.59 80.22 1118.93 81.3 1118.97 83H1112.87C1113.11 81.26 1114.35 80.22 1115.89 80.22ZM1121.05 86.22H1118.59C1118.17 87.08 1117.39 87.76 1115.99 87.76C1114.31 87.76 1113.01 86.66 1112.85 84.84H1121.27C1121.33 84.46 1121.35 84.1 1121.35 83.72C1121.35 80.48 1119.13 78.3 1115.99 78.3C1112.73 78.3 1110.49 80.52 1110.49 83.98C1110.49 87.44 1112.83 89.68 1115.99 89.68C1118.69 89.68 1120.43 88.14 1121.05 86.22ZM1125.87 83.7C1125.87 81.36 1126.91 80.66 1128.59 80.66H1129.17V78.3C1127.61 78.3 1126.51 78.98 1125.87 80.08V78.48H1123.59V89.5H1125.87V83.7Z" fill="#212832"/>
<rect x="840.5" y="57.5" width="399" height="49" stroke="black" stroke-opacity="0.5"/>
<rect x="420" width="400" height="50" fill="white"/>
<path d="M444.6 28.44C446.08 28.44 447.24 27.3 447.24 25.84C447.24 24.36 446.08 23.22 444.6 23.22C443.16 23.22 442 24.36 442 25.84C442 27.3 443.16 28.44 444.6 28.44ZM465.669 18.6H461.129V32.5H465.669C470.129 32.5 473.049 29.88 473.049 25.6C473.049 21.3 470.129 18.6 465.669 18.6ZM463.409 30.64V20.46H465.669C468.949 20.46 470.709 22.42 470.709 25.6C470.709 28.76 468.949 30.64 465.669 30.64H463.409ZM474.549 26.94C474.549 30.34 476.849 32.68 479.709 32.68C481.549 32.68 482.869 31.8 483.569 30.86V32.5H485.869V21.48H483.569V23.08C482.889 22.18 481.609 21.3 479.749 21.3C476.849 21.3 474.549 23.54 474.549 26.94ZM483.569 26.98C483.569 29.36 481.949 30.7 480.229 30.7C478.529 30.7 476.889 29.32 476.889 26.94C476.889 24.56 478.529 23.28 480.229 23.28C481.949 23.28 483.569 24.62 483.569 26.98ZM489.223 29.44C489.223 31.68 490.443 32.5 492.403 32.5H494.203V30.6H492.803C491.843 30.6 491.523 30.26 491.523 29.44V23.34H494.203V21.48H491.523V18.74H489.223V21.48H487.923V23.34H489.223V29.44ZM495.545 26.94C495.545 30.34 497.845 32.68 500.705 32.68C502.545 32.68 503.865 31.8 504.565 30.86V32.5H506.865V21.48H504.565V23.08C503.885 22.18 502.605 21.3 500.745 21.3C497.845 21.3 495.545 23.54 495.545 26.94ZM504.565 26.98C504.565 29.36 502.945 30.7 501.225 30.7C499.525 30.7 497.885 29.32 497.885 26.94C497.885 24.56 499.525 23.28 501.225 23.28C502.945 23.28 504.565 24.62 504.565 26.98ZM524.435 28.56C524.435 23.48 517.075 25.44 517.075 22.3C517.075 20.96 518.095 20.32 519.415 20.36C520.855 20.4 521.675 21.26 521.755 22.2H524.275C524.075 19.82 522.195 18.42 519.535 18.42C516.695 18.42 514.755 19.94 514.755 22.38C514.755 27.5 522.135 25.32 522.135 28.68C522.135 29.86 521.235 30.72 519.635 30.72C518.055 30.72 517.255 29.8 517.155 28.66H514.715C514.715 31.12 516.855 32.64 519.635 32.64C522.735 32.64 524.435 30.64 524.435 28.56ZM526.365 26.98C526.365 30.44 528.605 32.68 531.765 32.68C534.465 32.68 536.225 31.18 536.845 29.02H534.385C533.965 30.16 533.125 30.76 531.765 30.76C529.925 30.76 528.705 29.4 528.705 26.98C528.705 24.58 529.925 23.22 531.765 23.22C533.125 23.22 534.005 23.9 534.385 24.96H536.845C536.225 22.64 534.465 21.3 531.765 21.3C528.605 21.3 526.365 23.54 526.365 26.98ZM539.117 32.5H541.397V21.48H539.117V32.5ZM540.277 20.02C541.077 20.02 541.717 19.38 541.717 18.56C541.717 17.74 541.077 17.1 540.277 17.1C539.457 17.1 538.817 17.74 538.817 18.56C538.817 19.38 539.457 20.02 540.277 20.02ZM549.031 23.22C550.731 23.22 552.071 24.3 552.111 26H546.011C546.251 24.26 547.491 23.22 549.031 23.22ZM554.191 29.22H551.731C551.311 30.08 550.531 30.76 549.131 30.76C547.451 30.76 546.151 29.66 545.991 27.84H554.411C554.471 27.46 554.491 27.1 554.491 26.72C554.491 23.48 552.271 21.3 549.131 21.3C545.871 21.3 543.631 23.52 543.631 26.98C543.631 30.44 545.971 32.68 549.131 32.68C551.831 32.68 553.571 31.14 554.191 29.22ZM564.554 32.5H566.814V26C566.814 22.92 564.874 21.3 562.294 21.3C560.974 21.3 559.754 21.84 559.014 22.74V21.48H556.734V32.5H559.014V26.34C559.014 24.32 560.114 23.28 561.794 23.28C563.454 23.28 564.554 24.32 564.554 26.34V32.5ZM570.083 29.44C570.083 31.68 571.303 32.5 573.263 32.5H575.063V30.6H573.663C572.703 30.6 572.383 30.26 572.383 29.44V23.34H575.063V21.48H572.383V18.74H570.083V21.48H568.783V23.34H570.083V29.44ZM577.164 32.5H579.444V21.48H577.164V32.5ZM578.324 20.02C579.124 20.02 579.764 19.38 579.764 18.56C579.764 17.74 579.124 17.1 578.324 17.1C577.504 17.1 576.864 17.74 576.864 18.56C576.864 19.38 577.504 20.02 578.324 20.02ZM590.658 29.42C590.538 25.44 584.318 26.68 584.318 24.46C584.318 23.72 584.958 23.22 586.178 23.22C587.418 23.22 588.158 23.88 588.238 24.84H590.518C590.398 22.64 588.758 21.3 586.258 21.3C583.658 21.3 582.018 22.72 582.018 24.48C582.018 28.52 588.418 27.28 588.418 29.44C588.418 30.2 587.718 30.76 586.398 30.76C585.138 30.76 584.278 30.02 584.198 29.12H581.838C581.938 31.12 583.798 32.68 586.438 32.68C589.038 32.68 590.658 31.28 590.658 29.42ZM593.481 29.44C593.481 31.68 594.701 32.5 596.661 32.5H598.461V30.6H597.061C596.101 30.6 595.781 30.26 595.781 29.44V23.34H598.461V21.48H595.781V18.74H593.481V21.48H592.181V23.34H593.481V29.44Z" fill="#212832"/>
<rect x="420.5" y="0.5" width="399" height="49" stroke="black" stroke-opacity="0.5"/>
<rect x="420" y="57" width="400" height="50" fill="white"/>
<path d="M444.6 85.44C446.08 85.44 447.24 84.3 447.24 82.84C447.24 81.36 446.08 80.22 444.6 80.22C443.16 80.22 442 81.36 442 82.84C442 84.3 443.16 85.44 444.6 85.44ZM470.509 85.56C470.509 80.48 463.149 82.44 463.149 79.3C463.149 77.96 464.169 77.32 465.489 77.36C466.929 77.4 467.749 78.26 467.829 79.2H470.349C470.149 76.82 468.269 75.42 465.609 75.42C462.769 75.42 460.829 76.94 460.829 79.38C460.829 84.5 468.209 82.32 468.209 85.68C468.209 86.86 467.309 87.72 465.709 87.72C464.129 87.72 463.329 86.8 463.229 85.66H460.789C460.789 88.12 462.929 89.64 465.709 89.64C468.809 89.64 470.509 87.64 470.509 85.56ZM477.539 86.88L474.439 78.48H471.899L476.239 89.32L473.999 94.68H476.359L483.119 78.48H480.759L477.539 86.88ZM493.06 86.42C492.94 82.44 486.72 83.68 486.72 81.46C486.72 80.72 487.36 80.22 488.58 80.22C489.82 80.22 490.56 80.88 490.64 81.84H492.92C492.8 79.64 491.16 78.3 488.66 78.3C486.06 78.3 484.42 79.72 484.42 81.48C484.42 85.52 490.82 84.28 490.82 86.44C490.82 87.2 490.12 87.76 488.8 87.76C487.54 87.76 486.68 87.02 486.6 86.12H484.24C484.34 88.12 486.2 89.68 488.84 89.68C491.44 89.68 493.06 88.28 493.06 86.42ZM495.883 86.44C495.883 88.68 497.103 89.5 499.063 89.5H500.863V87.6H499.463C498.503 87.6 498.183 87.26 498.183 86.44V80.34H500.863V78.48H498.183V75.74H495.883V78.48H494.583V80.34H495.883V86.44ZM507.605 80.22C509.305 80.22 510.645 81.3 510.685 83H504.585C504.825 81.26 506.065 80.22 507.605 80.22ZM512.765 86.22H510.305C509.885 87.08 509.105 87.76 507.705 87.76C506.025 87.76 504.725 86.66 504.565 84.84H512.985C513.045 84.46 513.065 84.1 513.065 83.72C513.065 80.48 510.845 78.3 507.705 78.3C504.445 78.3 502.205 80.52 502.205 83.98C502.205 87.44 504.545 89.68 507.705 89.68C510.405 89.68 512.145 88.14 512.765 86.22ZM530.929 89.5H533.189V83C533.189 79.92 531.229 78.3 528.649 78.3C527.049 78.3 525.489 79.14 524.809 80.48C524.049 79.04 522.589 78.3 520.849 78.3C519.529 78.3 518.329 78.84 517.589 79.74V78.48H515.309V89.5H517.589V83.34C517.589 81.32 518.689 80.28 520.369 80.28C522.029 80.28 523.129 81.32 523.129 83.34V89.5H525.389V83.34C525.389 81.32 526.489 80.28 528.169 80.28C529.829 80.28 530.929 81.32 530.929 83.34V89.5ZM550.665 89.5H553.065L548.085 75.58H545.445L540.465 89.5H542.845L543.845 86.66H549.665L550.665 89.5ZM549.025 84.8H544.485L546.765 78.34L549.025 84.8ZM554.47 83.94C554.47 87.34 556.77 89.68 559.67 89.68C561.47 89.68 562.79 88.84 563.49 87.84V89.5H565.79V74.7H563.49V80.02C562.65 78.98 561.13 78.3 559.69 78.3C556.77 78.3 554.47 80.54 554.47 83.94ZM563.49 83.98C563.49 86.36 561.87 87.7 560.15 87.7C558.45 87.7 556.81 86.32 556.81 83.94C556.81 81.56 558.45 80.28 560.15 80.28C561.87 80.28 563.49 81.62 563.49 83.98ZM584.405 89.5H586.665V83C586.665 79.92 584.705 78.3 582.125 78.3C580.525 78.3 578.965 79.14 578.285 80.48C577.525 79.04 576.065 78.3 574.325 78.3C573.005 78.3 571.805 78.84 571.065 79.74V78.48H568.785V89.5H571.065V83.34C571.065 81.32 572.165 80.28 573.845 80.28C575.505 80.28 576.605 81.32 576.605 83.34V89.5H578.865V83.34C578.865 81.32 579.965 80.28 581.645 80.28C583.305 80.28 584.405 81.32 584.405 83.34V89.5ZM589.566 89.5H591.846V78.48H589.566V89.5ZM590.726 77.02C591.526 77.02 592.166 76.38 592.166 75.56C592.166 74.74 591.526 74.1 590.726 74.1C589.906 74.1 589.266 74.74 589.266 75.56C589.266 76.38 589.906 77.02 590.726 77.02ZM602.66 89.5H604.92V83C604.92 79.92 602.98 78.3 600.4 78.3C599.08 78.3 597.86 78.84 597.12 79.74V78.48H594.84V89.5H597.12V83.34C597.12 81.32 598.22 80.28 599.9 80.28C601.56 80.28 602.66 81.32 602.66 83.34V89.5ZM607.828 89.5H610.108V78.48H607.828V89.5ZM608.988 77.02C609.788 77.02 610.428 76.38 610.428 75.56C610.428 74.74 609.788 74.1 608.988 74.1C608.168 74.1 607.528 74.74 607.528 75.56C607.528 76.38 608.168 77.02 608.988 77.02ZM621.322 86.42C621.202 82.44 614.982 83.68 614.982 81.46C614.982 80.72 615.622 80.22 616.842 80.22C618.082 80.22 618.822 80.88 618.902 81.84H621.182C621.062 79.64 619.422 78.3 616.922 78.3C614.322 78.3 612.682 79.72 612.682 81.48C612.682 85.52 619.082 84.28 619.082 86.44C619.082 87.2 618.382 87.76 617.062 87.76C615.802 87.76 614.942 87.02 614.862 86.12H612.502C612.602 88.12 614.462 89.68 617.102 89.68C619.702 89.68 621.322 88.28 621.322 86.42ZM624.145 86.44C624.145 88.68 625.365 89.5 627.325 89.5H629.125V87.6H627.725C626.765 87.6 626.445 87.26 626.445 86.44V80.34H629.125V78.48H626.445V75.74H624.145V78.48H622.845V80.34H624.145V86.44ZM633.507 83.7C633.507 81.36 634.547 80.66 636.227 80.66H636.807V78.3C635.247 78.3 634.147 78.98 633.507 80.08V78.48H631.227V89.5H633.507V83.7ZM638.142 83.94C638.142 87.34 640.442 89.68 643.302 89.68C645.142 89.68 646.462 88.8 647.162 87.86V89.5H649.462V78.48H647.162V80.08C646.482 79.18 645.202 78.3 643.342 78.3C640.442 78.3 638.142 80.54 638.142 83.94ZM647.162 83.98C647.162 86.36 645.542 87.7 643.822 87.7C642.122 87.7 640.482 86.32 640.482 83.94C640.482 81.56 642.122 80.28 643.822 80.28C645.542 80.28 647.162 81.62 647.162 83.98ZM652.817 86.44C652.817 88.68 654.037 89.5 655.997 89.5H657.797V87.6H656.397C655.437 87.6 655.117 87.26 655.117 86.44V80.34H657.797V78.48H655.117V75.74H652.817V78.48H651.517V80.34H652.817V86.44ZM670.398 83.98C670.398 80.52 667.918 78.3 664.778 78.3C661.638 78.3 659.158 80.52 659.158 83.98C659.158 87.44 661.538 89.68 664.678 89.68C667.838 89.68 670.398 87.44 670.398 83.98ZM661.478 83.98C661.478 81.48 663.018 80.28 664.738 80.28C666.438 80.28 668.058 81.48 668.058 83.98C668.058 86.48 666.378 87.7 664.678 87.7C662.958 87.7 661.478 86.48 661.478 83.98ZM674.932 83.7C674.932 81.36 675.972 80.66 677.652 80.66H678.232V78.3C676.672 78.3 675.572 78.98 674.932 80.08V78.48H672.652V89.5H674.932V83.7Z" fill="#212832"/>
<rect x="420.5" y="57.5" width="399" height="49" stroke="black" stroke-opacity="0.5"/>
</svg>
