<svg width="617" height="400" viewBox="0 0 617 400" fill="none" xmlns="http://www.w3.org/2000/svg">
<rect width="617" height="58" fill="#3498DB"/>
<path d="M33.925 32.95C33.925 26.8 24.975 28.75 24.975 25.25C24.975 23.825 26 23.15 27.375 23.2C28.875 23.225 29.8 24.125 29.875 25.275H33.725C33.5 22.125 31.05 20.3 27.475 20.3C23.875 20.3 21.325 22.2 21.325 25.35C21.3 31.675 30.3 29.4 30.3 33.175C30.3 34.425 29.325 35.3 27.675 35.3C26.05 35.3 25.125 34.375 25.025 32.975H21.275C21.325 36.275 24.125 38.175 27.75 38.175C31.725 38.175 33.925 35.7 33.925 32.95ZM43.4094 26.8C45.2094 26.8 46.6594 27.95 46.7094 29.775H40.1344C40.4094 27.875 41.7344 26.8 43.4094 26.8ZM49.9844 33.65H46.2094C45.7594 34.575 44.9344 35.325 43.4344 35.325C41.6844 35.325 40.2844 34.175 40.1094 32.125H50.2344C50.3094 31.675 50.3344 31.225 50.3344 30.775C50.3344 26.65 47.5094 23.925 43.5094 23.925C39.4094 23.925 36.5594 26.7 36.5594 31.075C36.5594 35.425 39.4844 38.225 43.5094 38.225C46.9344 38.225 49.2344 36.2 49.9844 33.65ZM72.7641 38H76.2641V29.875C76.2641 26.05 73.9141 23.95 70.5891 23.95C68.5641 23.95 66.7391 25.025 65.8391 26.6C64.8891 24.875 63.1141 23.95 60.9641 23.95C59.2391 23.95 57.7641 24.675 56.8891 25.825V24.15H53.3891V38H56.8891V30.35C56.8891 28.15 58.1141 27 60.0141 27C61.8641 27 63.0891 28.15 63.0891 30.35V38H66.5891V30.35C66.5891 28.15 67.8141 27 69.6891 27C71.5391 27 72.7641 28.15 72.7641 30.35V38ZM86.0354 26.8C87.8354 26.8 89.2854 27.95 89.3354 29.775H82.7604C83.0354 27.875 84.3604 26.8 86.0354 26.8ZM92.6104 33.65H88.8354C88.3854 34.575 87.5604 35.325 86.0604 35.325C84.3104 35.325 82.9104 34.175 82.7354 32.125H92.8604C92.9354 31.675 92.9604 31.225 92.9604 30.775C92.9604 26.65 90.1354 23.925 86.1354 23.925C82.0354 23.925 79.1854 26.7 79.1854 31.075C79.1854 35.425 82.1104 38.225 86.1354 38.225C89.5604 38.225 91.8604 36.2 92.6104 33.65ZM106.765 34.05C106.665 28.975 98.99 30.55 98.99 28.025C98.99 27.225 99.665 26.7 100.965 26.7C102.34 26.7 103.19 27.425 103.29 28.5H106.64C106.44 25.75 104.415 23.925 101.065 23.925C97.64 23.925 95.59 25.775 95.59 28.075C95.59 33.15 103.415 31.575 103.415 34.05C103.415 34.85 102.665 35.475 101.29 35.475C99.89 35.475 98.915 34.675 98.79 33.625H95.265C95.415 36.2 97.84 38.225 101.315 38.225C104.69 38.225 106.765 36.425 106.765 34.05ZM110.688 33.7C110.688 36.875 112.463 38 115.113 38H117.313V35.05H115.688C114.588 35.05 114.213 34.65 114.213 33.725V27.025H117.313V24.15H114.213V20.725H110.688V24.15H109.038V27.025H110.688V33.7ZM126.28 26.8C128.08 26.8 129.53 27.95 129.58 29.775H123.005C123.28 27.875 124.605 26.8 126.28 26.8ZM132.855 33.65H129.08C128.63 34.575 127.805 35.325 126.305 35.325C124.555 35.325 123.155 34.175 122.98 32.125H133.105C133.18 31.675 133.205 31.225 133.205 30.775C133.205 26.65 130.38 23.925 126.38 23.925C122.28 23.925 119.43 26.7 119.43 31.075C119.43 35.425 122.355 38.225 126.38 38.225C129.805 38.225 132.105 36.2 132.855 33.65ZM139.76 31.1C139.76 28.425 141.01 27.625 143.085 27.625H144.01V23.95C142.085 23.95 140.635 24.875 139.76 26.3V24.15H136.26V38H139.76V31.1ZM154.925 38H158.525V19.775H152.5V23H154.925V38Z" fill="white"/>
<rect y="65" width="617" height="50" fill="white"/>
<path d="M24.6 93.44C26.08 93.44 27.24 92.3 27.24 90.84C27.24 89.36 26.08 88.22 24.6 88.22C23.16 88.22 22 89.36 22 90.84C22 92.3 23.16 93.44 24.6 93.44ZM47.4689 83.42C43.5489 83.42 40.3689 86.36 40.3689 90.52C40.3689 94.7 43.5489 97.62 47.4689 97.62C51.2089 97.62 53.9289 94.88 54.3489 91.66V89.88H46.6889V91.7H51.9089C51.5689 94.04 49.9889 95.56 47.4689 95.56C44.7089 95.56 42.7089 93.58 42.7089 90.52C42.7089 87.46 44.7089 85.5 47.4689 85.5C49.1289 85.5 50.4489 86.2 51.1889 87.6H53.9289C52.8689 84.88 50.3689 83.42 47.4689 83.42ZM58.8777 91.7C58.8777 89.36 59.9177 88.66 61.5977 88.66H62.1777V86.3C60.6177 86.3 59.5177 86.98 58.8777 88.08V86.48H56.5977V97.5H58.8777V91.7ZM63.5134 91.94C63.5134 95.34 65.8134 97.68 68.6734 97.68C70.5134 97.68 71.8334 96.8 72.5334 95.86V97.5H74.8334V86.48H72.5334V88.08C71.8534 87.18 70.5734 86.3 68.7134 86.3C65.8134 86.3 63.5134 88.54 63.5134 91.94ZM72.5334 91.98C72.5334 94.36 70.9134 95.7 69.1934 95.7C67.4934 95.7 65.8534 94.32 65.8534 91.94C65.8534 89.56 67.4934 88.28 69.1934 88.28C70.9134 88.28 72.5334 89.62 72.5334 91.98ZM80.1081 88.1V86.48H77.8281V102.74H80.1081V95.9C80.8281 96.76 82.1281 97.68 83.9481 97.68C86.8481 97.68 89.1281 95.34 89.1281 91.94C89.1281 88.54 86.8481 86.3 83.9481 86.3C82.1481 86.3 80.8081 87.18 80.1081 88.1ZM86.8081 91.94C86.8081 94.32 85.1681 95.7 83.4481 95.7C81.7481 95.7 80.1081 94.36 80.1081 91.98C80.1081 89.62 81.7481 88.28 83.4481 88.28C85.1681 88.28 86.8081 89.56 86.8081 91.94ZM91.3828 97.5H93.6628V91.34C93.6628 89.32 94.7628 88.28 96.4428 88.28C98.1028 88.28 99.2028 89.32 99.2028 91.34V97.5H101.463V91C101.463 87.92 99.5428 86.3 97.0828 86.3C95.6628 86.3 94.4228 86.84 93.6628 87.76V82.7H91.3828V97.5ZM108.846 85.46H112.566V97.5H114.846V85.46H118.546V83.6H108.846V85.46ZM120.855 97.5H123.135V91.34C123.135 89.32 124.235 88.28 125.915 88.28C127.575 88.28 128.675 89.32 128.675 91.34V97.5H130.935V91C130.935 87.92 129.015 86.3 126.555 86.3C125.135 86.3 123.895 86.84 123.135 87.76V82.7H120.855V97.5ZM138.484 88.22C140.184 88.22 141.524 89.3 141.564 91H135.464C135.704 89.26 136.944 88.22 138.484 88.22ZM143.644 94.22H141.184C140.764 95.08 139.984 95.76 138.584 95.76C136.904 95.76 135.604 94.66 135.444 92.84H143.864C143.924 92.46 143.944 92.1 143.944 91.72C143.944 88.48 141.724 86.3 138.584 86.3C135.324 86.3 133.084 88.52 133.084 91.98C133.084 95.44 135.424 97.68 138.584 97.68C141.284 97.68 143.024 96.14 143.644 94.22ZM156.688 91.98C156.688 88.52 154.208 86.3 151.068 86.3C147.928 86.3 145.448 88.52 145.448 91.98C145.448 95.44 147.828 97.68 150.968 97.68C154.128 97.68 156.688 95.44 156.688 91.98ZM147.768 91.98C147.768 89.48 149.308 88.28 151.028 88.28C152.728 88.28 154.348 89.48 154.348 91.98C154.348 94.48 152.668 95.7 150.968 95.7C149.248 95.7 147.768 94.48 147.768 91.98ZM161.221 91.7C161.221 89.36 162.261 88.66 163.941 88.66H164.521V86.3C162.961 86.3 161.861 86.98 161.221 88.08V86.48H158.941V97.5H161.221V91.7ZM170.957 94.88L167.857 86.48H165.317L169.657 97.32L167.417 102.68H169.777L176.537 86.48H174.177L170.957 94.88ZM182.693 91.94C182.693 95.34 184.993 97.68 187.853 97.68C189.693 97.68 191.013 96.8 191.713 95.86V97.5H194.013V86.48H191.713V88.08C191.033 87.18 189.753 86.3 187.893 86.3C184.993 86.3 182.693 88.54 182.693 91.94ZM191.713 91.98C191.713 94.36 190.093 95.7 188.373 95.7C186.673 95.7 185.033 94.32 185.033 91.94C185.033 89.56 186.673 88.28 188.373 88.28C190.093 88.28 191.713 89.62 191.713 91.98ZM204.828 97.5H207.088V91C207.088 87.92 205.148 86.3 202.568 86.3C201.248 86.3 200.028 86.84 199.288 87.74V86.48H197.008V97.5H199.288V91.34C199.288 89.32 200.388 88.28 202.068 88.28C203.728 88.28 204.828 89.32 204.828 91.34V97.5ZM209.236 91.94C209.236 95.34 211.536 97.68 214.436 97.68C216.236 97.68 217.556 96.84 218.256 95.84V97.5H220.556V82.7H218.256V88.02C217.416 86.98 215.896 86.3 214.456 86.3C211.536 86.3 209.236 88.54 209.236 91.94ZM218.256 91.98C218.256 94.36 216.636 95.7 214.916 95.7C213.216 95.7 211.576 94.32 211.576 91.94C211.576 89.56 213.216 88.28 214.916 88.28C216.636 88.28 218.256 89.62 218.256 91.98ZM227.986 90.52C227.986 94.7 231.166 97.62 235.086 97.62C237.986 97.62 240.486 96.18 241.546 93.46H238.806C238.066 94.94 236.746 95.64 235.086 95.64C232.326 95.64 230.326 93.66 230.326 90.52C230.326 87.38 232.326 85.42 235.086 85.42C236.746 85.42 238.066 86.12 238.806 87.6H241.546C240.486 84.88 237.986 83.42 235.086 83.42C231.166 83.42 227.986 86.36 227.986 90.52ZM254.715 91.98C254.715 88.52 252.235 86.3 249.095 86.3C245.955 86.3 243.475 88.52 243.475 91.98C243.475 95.44 245.855 97.68 248.995 97.68C252.155 97.68 254.715 95.44 254.715 91.98ZM245.795 91.98C245.795 89.48 247.335 88.28 249.055 88.28C250.755 88.28 252.375 89.48 252.375 91.98C252.375 94.48 250.695 95.7 248.995 95.7C247.275 95.7 245.795 94.48 245.795 91.98ZM272.589 97.5H274.849V91C274.849 87.92 272.889 86.3 270.309 86.3C268.709 86.3 267.149 87.14 266.469 88.48C265.709 87.04 264.249 86.3 262.509 86.3C261.189 86.3 259.989 86.84 259.249 87.74V86.48H256.969V97.5H259.249V91.34C259.249 89.32 260.349 88.28 262.029 88.28C263.689 88.28 264.789 89.32 264.789 91.34V97.5H267.049V91.34C267.049 89.32 268.149 88.28 269.829 88.28C271.489 88.28 272.589 89.32 272.589 91.34V97.5ZM280.03 88.12V82.7H277.75V97.5H280.03V95.9C280.75 96.86 282.05 97.68 283.87 97.68C286.77 97.68 289.05 95.34 289.05 91.94C289.05 88.54 286.79 86.3 283.87 86.3C282.13 86.3 280.75 87.12 280.03 88.12ZM286.73 91.94C286.73 94.32 285.09 95.7 283.37 95.7C281.67 95.7 280.03 94.36 280.03 91.98C280.03 89.62 281.67 88.28 283.37 88.28C285.09 88.28 286.73 89.56 286.73 91.94ZM291.305 97.5H293.585V86.48H291.305V97.5ZM292.465 85.02C293.265 85.02 293.905 84.38 293.905 83.56C293.905 82.74 293.265 82.1 292.465 82.1C291.645 82.1 291.005 82.74 291.005 83.56C291.005 84.38 291.645 85.02 292.465 85.02ZM304.398 97.5H306.658V91C306.658 87.92 304.718 86.3 302.138 86.3C300.818 86.3 299.598 86.84 298.858 87.74V86.48H296.578V97.5H298.858V91.34C298.858 89.32 299.958 88.28 301.638 88.28C303.298 88.28 304.398 89.32 304.398 91.34V97.5ZM308.806 91.94C308.806 95.34 311.106 97.68 313.966 97.68C315.806 97.68 317.126 96.8 317.826 95.86V97.5H320.126V86.48H317.826V88.08C317.146 87.18 315.866 86.3 314.006 86.3C311.106 86.3 308.806 88.54 308.806 91.94ZM317.826 91.98C317.826 94.36 316.206 95.7 314.486 95.7C312.786 95.7 311.146 94.32 311.146 91.94C311.146 89.56 312.786 88.28 314.486 88.28C316.206 88.28 317.826 89.62 317.826 91.98ZM323.481 94.44C323.481 96.68 324.701 97.5 326.661 97.5H328.461V95.6H327.061C326.101 95.6 325.781 95.26 325.781 94.44V88.34H328.461V86.48H325.781V83.74H323.481V86.48H322.181V88.34H323.481V94.44ZM341.063 91.98C341.063 88.52 338.583 86.3 335.443 86.3C332.303 86.3 329.823 88.52 329.823 91.98C329.823 95.44 332.203 97.68 335.343 97.68C338.503 97.68 341.063 95.44 341.063 91.98ZM332.143 91.98C332.143 89.48 333.683 88.28 335.403 88.28C337.103 88.28 338.723 89.48 338.723 91.98C338.723 94.48 337.043 95.7 335.343 95.7C333.623 95.7 332.143 94.48 332.143 91.98ZM345.596 91.7C345.596 89.36 346.636 88.66 348.316 88.66H348.896V86.3C347.336 86.3 346.236 86.98 345.596 88.08V86.48H343.316V97.5H345.596V91.7ZM350.992 97.5H353.272V86.48H350.992V97.5ZM352.152 85.02C352.952 85.02 353.592 84.38 353.592 83.56C353.592 82.74 352.952 82.1 352.152 82.1C351.332 82.1 350.692 82.74 350.692 83.56C350.692 84.38 351.332 85.02 352.152 85.02ZM355.506 91.98C355.506 95.44 357.746 97.68 360.906 97.68C363.606 97.68 365.366 96.18 365.986 94.02H363.526C363.106 95.16 362.266 95.76 360.906 95.76C359.066 95.76 357.846 94.4 357.846 91.98C357.846 89.58 359.066 88.22 360.906 88.22C362.266 88.22 363.146 88.9 363.526 89.96H365.986C365.366 87.64 363.606 86.3 360.906 86.3C357.746 86.3 355.506 88.54 355.506 91.98ZM376.478 94.42C376.358 90.44 370.138 91.68 370.138 89.46C370.138 88.72 370.778 88.22 371.998 88.22C373.238 88.22 373.978 88.88 374.058 89.84H376.338C376.218 87.64 374.578 86.3 372.078 86.3C369.478 86.3 367.838 87.72 367.838 89.48C367.838 93.52 374.238 92.28 374.238 94.44C374.238 95.2 373.538 95.76 372.218 95.76C370.958 95.76 370.098 95.02 370.018 94.12H367.658C367.758 96.12 369.618 97.68 372.258 97.68C374.858 97.68 376.478 96.28 376.478 94.42Z" fill="#212832"/>
<rect x="0.5" y="65.5" width="616" height="49" stroke="black" stroke-opacity="0.5"/>
<rect y="293" width="617" height="50" fill="white"/>
<path d="M24.6 321.44C26.08 321.44 27.24 320.3 27.24 318.84C27.24 317.36 26.08 316.22 24.6 316.22C23.16 316.22 22 317.36 22 318.84C22 320.3 23.16 321.44 24.6 321.44ZM40.3689 318.52C40.3689 322.7 43.5489 325.62 47.4689 325.62C50.3689 325.62 52.8689 324.18 53.9289 321.46H51.1889C50.4489 322.94 49.1289 323.64 47.4689 323.64C44.7089 323.64 42.7089 321.66 42.7089 318.52C42.7089 315.38 44.7089 313.42 47.4689 313.42C49.1289 313.42 50.4489 314.12 51.1889 315.6H53.9289C52.8689 312.88 50.3689 311.42 47.4689 311.42C43.5489 311.42 40.3689 314.36 40.3689 318.52ZM67.0977 319.98C67.0977 316.52 64.6177 314.3 61.4777 314.3C58.3377 314.3 55.8577 316.52 55.8577 319.98C55.8577 323.44 58.2377 325.68 61.3777 325.68C64.5377 325.68 67.0977 323.44 67.0977 319.98ZM58.1777 319.98C58.1777 317.48 59.7177 316.28 61.4377 316.28C63.1377 316.28 64.7577 317.48 64.7577 319.98C64.7577 322.48 63.0777 323.7 61.3777 323.7C59.6577 323.7 58.1777 322.48 58.1777 319.98ZM71.6316 319.7C71.6316 317.36 72.6716 316.66 74.3516 316.66H74.9316V314.3C73.3716 314.3 72.2716 314.98 71.6316 316.08V314.48H69.3516V325.5H71.6316V319.7ZM81.6673 316.22C83.3673 316.22 84.7073 317.3 84.7473 319H78.6473C78.8873 317.26 80.1273 316.22 81.6673 316.22ZM86.8273 322.22H84.3673C83.9473 323.08 83.1673 323.76 81.7673 323.76C80.0873 323.76 78.7873 322.66 78.6273 320.84H87.0473C87.1073 320.46 87.1273 320.1 87.1273 319.72C87.1273 316.48 84.9073 314.3 81.7673 314.3C78.5073 314.3 76.2673 316.52 76.2673 319.98C76.2673 323.44 78.6073 325.68 81.7673 325.68C84.4673 325.68 86.2073 324.14 86.8273 322.22ZM99.8464 321.62C99.8464 322.78 99.2664 323.62 98.0464 323.62C96.8264 323.62 96.2664 322.78 96.2464 321.62H93.9464C93.9464 324.14 95.6464 325.64 98.0464 325.64C100.446 325.64 102.146 324.14 102.146 321.62V311.6H99.8464V321.62ZM105.095 319.94C105.095 323.34 107.395 325.68 110.255 325.68C112.095 325.68 113.415 324.8 114.115 323.86V325.5H116.415V314.48H114.115V316.08C113.435 315.18 112.155 314.3 110.295 314.3C107.395 314.3 105.095 316.54 105.095 319.94ZM114.115 319.98C114.115 322.36 112.495 323.7 110.775 323.7C109.075 323.7 107.435 322.32 107.435 319.94C107.435 317.56 109.075 316.28 110.775 316.28C112.495 316.28 114.115 317.62 114.115 319.98ZM118.11 314.48L122.29 325.5H125.01L129.21 314.48H126.79L123.67 323.46L120.55 314.48H118.11ZM130.174 319.94C130.174 323.34 132.474 325.68 135.334 325.68C137.174 325.68 138.494 324.8 139.194 323.86V325.5H141.494V314.48H139.194V316.08C138.514 315.18 137.234 314.3 135.374 314.3C132.474 314.3 130.174 316.54 130.174 319.94ZM139.194 319.98C139.194 322.36 137.574 323.7 135.854 323.7C134.154 323.7 132.514 322.32 132.514 319.94C132.514 317.56 134.154 316.28 135.854 316.28C137.574 316.28 139.194 317.62 139.194 319.98Z" fill="#212832"/>
<rect x="0.5" y="293.5" width="616" height="49" stroke="black" stroke-opacity="0.5"/>
<rect y="350" width="617" height="50" fill="white"/>
<path d="M21.74 376.22H29.96V374.3H21.74V376.22ZM33.4392 376.22H41.6592V374.3H33.4392V376.22ZM45.1384 376.22H53.3584V374.3H45.1384V376.22ZM56.8377 376.22H65.0577V374.3H56.8377V376.22Z" fill="#212832"/>
<rect x="0.5" y="350.5" width="616" height="49" stroke="black" stroke-opacity="0.5"/>
<rect y="179" width="617" height="50" fill="white"/>
<path d="M24.6 207.44C26.08 207.44 27.24 206.3 27.24 204.84C27.24 203.36 26.08 202.22 24.6 202.22C23.16 202.22 22 203.36 22 204.84C22 206.3 23.16 207.44 24.6 207.44ZM50.5089 211.5H52.9089L47.9289 197.58H45.2889L40.3089 211.5H42.6889L43.6889 208.66H49.5089L50.5089 211.5ZM48.8689 206.8H44.3289L46.6089 200.34L48.8689 206.8ZM54.3142 205.94C54.3142 209.34 56.6142 211.68 59.5142 211.68C61.3142 211.68 62.6342 210.84 63.3342 209.84V211.5H65.6342V196.7H63.3342V202.02C62.4942 200.98 60.9742 200.3 59.5342 200.3C56.6142 200.3 54.3142 202.54 54.3142 205.94ZM63.3342 205.98C63.3342 208.36 61.7142 209.7 59.9942 209.7C58.2942 209.7 56.6542 208.32 56.6542 205.94C56.6542 203.56 58.2942 202.28 59.9942 202.28C61.7142 202.28 63.3342 203.62 63.3342 205.98ZM67.3289 200.48L71.5089 211.5H74.2289L78.4289 200.48H76.0089L72.8889 209.46L69.7689 200.48H67.3289ZM79.3923 205.94C79.3923 209.34 81.6923 211.68 84.5523 211.68C86.3923 211.68 87.7123 210.8 88.4123 209.86V211.5H90.7123V200.48H88.4123V202.08C87.7323 201.18 86.4523 200.3 84.5923 200.3C81.6923 200.3 79.3923 202.54 79.3923 205.94ZM88.4123 205.98C88.4123 208.36 86.7923 209.7 85.0723 209.7C83.3723 209.7 81.7323 208.32 81.7323 205.94C81.7323 203.56 83.3723 202.28 85.0723 202.28C86.7923 202.28 88.4123 203.62 88.4123 205.98ZM101.527 211.5H103.787V205C103.787 201.92 101.847 200.3 99.267 200.3C97.947 200.3 96.727 200.84 95.987 201.74V200.48H93.707V211.5H95.987V205.34C95.987 203.32 97.087 202.28 98.767 202.28C100.427 202.28 101.527 203.32 101.527 205.34V211.5ZM105.935 205.98C105.935 209.44 108.175 211.68 111.335 211.68C114.035 211.68 115.795 210.18 116.415 208.02H113.955C113.535 209.16 112.695 209.76 111.335 209.76C109.495 209.76 108.275 208.4 108.275 205.98C108.275 203.58 109.495 202.22 111.335 202.22C112.695 202.22 113.575 202.9 113.955 203.96H116.415C115.795 201.64 114.035 200.3 111.335 200.3C108.175 200.3 105.935 202.54 105.935 205.98ZM123.328 202.22C125.028 202.22 126.368 203.3 126.408 205H120.308C120.548 203.26 121.788 202.22 123.328 202.22ZM128.487 208.22H126.028C125.608 209.08 124.828 209.76 123.428 209.76C121.748 209.76 120.448 208.66 120.288 206.84H128.708C128.768 206.46 128.788 206.1 128.788 205.72C128.788 202.48 126.568 200.3 123.428 200.3C120.168 200.3 117.928 202.52 117.928 205.98C117.928 209.44 120.268 211.68 123.428 211.68C126.128 211.68 127.868 210.14 128.487 208.22ZM130.271 205.94C130.271 209.34 132.571 211.68 135.471 211.68C137.271 211.68 138.591 210.84 139.291 209.84V211.5H141.591V196.7H139.291V202.02C138.451 200.98 136.931 200.3 135.491 200.3C132.571 200.3 130.271 202.54 130.271 205.94ZM139.291 205.98C139.291 208.36 137.671 209.7 135.951 209.7C134.251 209.7 132.611 208.32 132.611 205.94C132.611 203.56 134.251 202.28 135.951 202.28C137.671 202.28 139.291 203.62 139.291 205.98ZM159.161 207.56C159.161 202.48 151.801 204.44 151.801 201.3C151.801 199.96 152.821 199.32 154.141 199.36C155.581 199.4 156.401 200.26 156.481 201.2H159.001C158.801 198.82 156.921 197.42 154.261 197.42C151.421 197.42 149.481 198.94 149.481 201.38C149.481 206.5 156.861 204.32 156.861 207.68C156.861 208.86 155.961 209.72 154.361 209.72C152.781 209.72 151.981 208.8 151.881 207.66H149.441C149.441 210.12 151.581 211.64 154.361 211.64C157.461 211.64 159.161 209.64 159.161 207.56ZM172.352 205.98C172.352 202.52 169.872 200.3 166.732 200.3C163.592 200.3 161.112 202.52 161.112 205.98C161.112 209.44 163.492 211.68 166.632 211.68C169.792 211.68 172.352 209.44 172.352 205.98ZM163.432 205.98C163.432 203.48 164.972 202.28 166.692 202.28C168.392 202.28 170.012 203.48 170.012 205.98C170.012 208.48 168.332 209.7 166.632 209.7C164.912 209.7 163.432 208.48 163.432 205.98ZM174.885 211.5H177.185V202.34H179.225V200.48H177.185V199.7C177.185 198.44 177.665 197.96 179.065 197.96V196.06C176.185 196.06 174.885 197.16 174.885 199.7V200.48H173.585V202.34H174.885V211.5ZM181.606 208.44C181.606 210.68 182.826 211.5 184.786 211.5H186.586V209.6H185.186C184.226 209.6 183.906 209.26 183.906 208.44V202.34H186.586V200.48H183.906V197.74H181.606V200.48H180.306V202.34H181.606V208.44ZM190.828 211.5H193.228L195.448 203.36L197.668 211.5H200.068L203.488 200.48H201.248L198.968 209.3L196.728 200.48H194.348L192.008 209.34L189.708 200.48H187.388L190.828 211.5ZM204.431 205.94C204.431 209.34 206.731 211.68 209.591 211.68C211.431 211.68 212.751 210.8 213.451 209.86V211.5H215.751V200.48H213.451V202.08C212.771 201.18 211.491 200.3 209.631 200.3C206.731 200.3 204.431 202.54 204.431 205.94ZM213.451 205.98C213.451 208.36 211.831 209.7 210.111 209.7C208.411 209.7 206.771 208.32 206.771 205.94C206.771 203.56 208.411 202.28 210.111 202.28C211.831 202.28 213.451 203.62 213.451 205.98ZM221.026 205.7C221.026 203.36 222.066 202.66 223.746 202.66H224.326V200.3C222.766 200.3 221.666 200.98 221.026 202.08V200.48H218.746V211.5H221.026V205.7ZM231.062 202.22C232.762 202.22 234.102 203.3 234.142 205H228.042C228.282 203.26 229.522 202.22 231.062 202.22ZM236.222 208.22H233.762C233.342 209.08 232.562 209.76 231.162 209.76C229.482 209.76 228.182 208.66 228.022 206.84H236.442C236.502 206.46 236.522 206.1 236.522 205.72C236.522 202.48 234.302 200.3 231.162 200.3C227.902 200.3 225.662 202.52 225.662 205.98C225.662 209.44 228.002 211.68 231.162 211.68C233.862 211.68 235.602 210.14 236.222 208.22ZM251.641 197.58H243.961V211.5H251.641V209.64H246.241V205.38H251.041V203.52H246.241V199.44H251.641V197.58ZM262.269 211.5H264.529V205C264.529 201.92 262.589 200.3 260.009 200.3C258.689 200.3 257.469 200.84 256.729 201.74V200.48H254.449V211.5H256.729V205.34C256.729 203.32 257.829 202.28 259.509 202.28C261.169 202.28 262.269 203.32 262.269 205.34V211.5ZM266.678 205.94C266.678 209.34 268.978 211.68 271.878 211.68C273.678 211.68 274.998 210.78 275.698 209.84V211.68C275.698 213.88 274.378 214.96 272.618 214.96C271.038 214.96 269.818 214.18 269.478 213.04H267.218C267.498 215.48 269.678 216.94 272.618 216.94C276.058 216.94 277.998 214.68 277.998 211.68V200.48H275.698V202.08C275.018 201.14 273.678 200.3 271.878 200.3C268.978 200.3 266.678 202.54 266.678 205.94ZM275.698 205.98C275.698 208.36 274.078 209.7 272.358 209.7C270.658 209.7 269.018 208.32 269.018 205.94C269.018 203.56 270.658 202.28 272.358 202.28C274.078 202.28 275.698 203.62 275.698 205.98ZM280.992 211.5H283.272V200.48H280.992V211.5ZM282.152 199.02C282.952 199.02 283.592 198.38 283.592 197.56C283.592 196.74 282.952 196.1 282.152 196.1C281.332 196.1 280.692 196.74 280.692 197.56C280.692 198.38 281.332 199.02 282.152 199.02ZM294.086 211.5H296.346V205C296.346 201.92 294.406 200.3 291.826 200.3C290.506 200.3 289.286 200.84 288.546 201.74V200.48H286.266V211.5H288.546V205.34C288.546 203.32 289.646 202.28 291.326 202.28C292.986 202.28 294.086 203.32 294.086 205.34V211.5ZM303.894 202.22C305.594 202.22 306.934 203.3 306.974 205H300.874C301.114 203.26 302.354 202.22 303.894 202.22ZM309.054 208.22H306.594C306.174 209.08 305.394 209.76 303.994 209.76C302.314 209.76 301.014 208.66 300.854 206.84H309.274C309.334 206.46 309.354 206.1 309.354 205.72C309.354 202.48 307.134 200.3 303.994 200.3C300.734 200.3 298.494 202.52 298.494 205.98C298.494 209.44 300.834 211.68 303.994 211.68C306.694 211.68 308.434 210.14 309.054 208.22ZM316.238 202.22C317.938 202.22 319.278 203.3 319.318 205H313.218C313.458 203.26 314.698 202.22 316.238 202.22ZM321.398 208.22H318.938C318.518 209.08 317.738 209.76 316.338 209.76C314.658 209.76 313.358 208.66 313.198 206.84H321.618C321.678 206.46 321.698 206.1 321.698 205.72C321.698 202.48 319.478 200.3 316.338 200.3C313.078 200.3 310.838 202.52 310.838 205.98C310.838 209.44 313.178 211.68 316.338 211.68C319.038 211.68 320.778 210.14 321.398 208.22ZM326.221 205.7C326.221 203.36 327.261 202.66 328.941 202.66H329.521V200.3C327.961 200.3 326.861 200.98 326.221 202.08V200.48H323.941V211.5H326.221V205.7ZM331.617 211.5H333.897V200.48H331.617V211.5ZM332.777 199.02C333.577 199.02 334.217 198.38 334.217 197.56C334.217 196.74 333.577 196.1 332.777 196.1C331.957 196.1 331.317 196.74 331.317 197.56C331.317 198.38 331.957 199.02 332.777 199.02ZM344.711 211.5H346.971V205C346.971 201.92 345.031 200.3 342.451 200.3C341.131 200.3 339.911 200.84 339.171 201.74V200.48H336.891V211.5H339.171V205.34C339.171 203.32 340.271 202.28 341.951 202.28C343.611 202.28 344.711 203.32 344.711 205.34V211.5ZM349.119 205.94C349.119 209.34 351.419 211.68 354.319 211.68C356.119 211.68 357.439 210.78 358.139 209.84V211.68C358.139 213.88 356.819 214.96 355.059 214.96C353.479 214.96 352.259 214.18 351.919 213.04H349.659C349.939 215.48 352.119 216.94 355.059 216.94C358.499 216.94 360.439 214.68 360.439 211.68V200.48H358.139V202.08C357.459 201.14 356.119 200.3 354.319 200.3C351.419 200.3 349.119 202.54 349.119 205.94ZM358.139 205.98C358.139 208.36 356.519 209.7 354.799 209.7C353.099 209.7 351.459 208.32 351.459 205.94C351.459 203.56 353.099 202.28 354.799 202.28C356.519 202.28 358.139 203.62 358.139 205.98ZM370.909 204V199.46H373.429C375.209 199.46 376.009 200.3 376.009 201.74C376.009 203.14 375.209 204 373.429 204H370.909ZM378.349 201.74C378.349 199.48 376.729 197.6 373.429 197.6H368.629V211.5H370.909V205.86H373.429C377.049 205.86 378.349 203.72 378.349 201.74ZM382.803 205.7C382.803 203.36 383.843 202.66 385.523 202.66H386.103V200.3C384.543 200.3 383.443 200.98 382.803 202.08V200.48H380.523V211.5H382.803V205.7ZM388.199 211.5H390.479V200.48H388.199V211.5ZM389.359 199.02C390.159 199.02 390.799 198.38 390.799 197.56C390.799 196.74 390.159 196.1 389.359 196.1C388.539 196.1 387.899 196.74 387.899 197.56C387.899 198.38 388.539 199.02 389.359 199.02ZM401.293 211.5H403.553V205C403.553 201.92 401.613 200.3 399.033 200.3C397.713 200.3 396.493 200.84 395.753 201.74V200.48H393.473V211.5H395.753V205.34C395.753 203.32 396.853 202.28 398.533 202.28C400.193 202.28 401.293 203.32 401.293 205.34V211.5ZM405.701 205.98C405.701 209.44 407.941 211.68 411.101 211.68C413.801 211.68 415.561 210.18 416.181 208.02H413.721C413.301 209.16 412.461 209.76 411.101 209.76C409.261 209.76 408.041 208.4 408.041 205.98C408.041 203.58 409.261 202.22 411.101 202.22C412.461 202.22 413.341 202.9 413.721 203.96H416.181C415.561 201.64 413.801 200.3 411.101 200.3C407.941 200.3 405.701 202.54 405.701 205.98ZM418.453 211.5H420.733V200.48H418.453V211.5ZM419.613 199.02C420.413 199.02 421.053 198.38 421.053 197.56C421.053 196.74 420.413 196.1 419.613 196.1C418.793 196.1 418.153 196.74 418.153 197.56C418.153 198.38 418.793 199.02 419.613 199.02ZM426.007 202.1V200.48H423.727V216.74H426.007V209.9C426.727 210.76 428.027 211.68 429.847 211.68C432.747 211.68 435.027 209.34 435.027 205.94C435.027 202.54 432.747 200.3 429.847 200.3C428.047 200.3 426.707 201.18 426.007 202.1ZM432.707 205.94C432.707 208.32 431.067 209.7 429.347 209.7C427.647 209.7 426.007 208.36 426.007 205.98C426.007 203.62 427.647 202.28 429.347 202.28C431.067 202.28 432.707 203.56 432.707 205.94ZM437.281 211.5H439.561V196.7H437.281V211.5ZM447.195 202.22C448.895 202.22 450.235 203.3 450.275 205H444.175C444.415 203.26 445.655 202.22 447.195 202.22ZM452.355 208.22H449.895C449.475 209.08 448.695 209.76 447.295 209.76C445.615 209.76 444.315 208.66 444.155 206.84H452.575C452.635 206.46 452.655 206.1 452.655 205.72C452.655 202.48 450.435 200.3 447.295 200.3C444.035 200.3 441.795 202.52 441.795 205.98C441.795 209.44 444.135 211.68 447.295 211.68C449.995 211.68 451.735 210.14 452.355 208.22ZM463.118 208.42C462.998 204.44 456.778 205.68 456.778 203.46C456.778 202.72 457.418 202.22 458.638 202.22C459.878 202.22 460.618 202.88 460.698 203.84H462.978C462.858 201.64 461.218 200.3 458.718 200.3C456.118 200.3 454.478 201.72 454.478 203.48C454.478 207.52 460.878 206.28 460.878 208.44C460.878 209.2 460.178 209.76 458.858 209.76C457.598 209.76 456.738 209.02 456.658 208.12H454.298C454.398 210.12 456.258 211.68 458.898 211.68C461.498 211.68 463.118 210.28 463.118 208.42Z" fill="#212832"/>
<rect x="0.5" y="179.5" width="616" height="49" stroke="black" stroke-opacity="0.5"/>
<rect y="122" width="617" height="50" fill="white"/>
<path d="M24.6 150.44C26.08 150.44 27.24 149.3 27.24 147.84C27.24 146.36 26.08 145.22 24.6 145.22C23.16 145.22 22 146.36 22 147.84C22 149.3 23.16 150.44 24.6 150.44ZM50.5089 154.5H52.9089L47.9289 140.58H45.2889L40.3089 154.5H42.6889L43.6889 151.66H49.5089L50.5089 154.5ZM48.8689 149.8H44.3289L46.6089 143.34L48.8689 149.8ZM54.3142 148.94C54.3142 152.34 56.6142 154.68 59.5142 154.68C61.3142 154.68 62.6342 153.84 63.3342 152.84V154.5H65.6342V139.7H63.3342V145.02C62.4942 143.98 60.9742 143.3 59.5342 143.3C56.6142 143.3 54.3142 145.54 54.3142 148.94ZM63.3342 148.98C63.3342 151.36 61.7142 152.7 59.9942 152.7C58.2942 152.7 56.6542 151.32 56.6542 148.94C56.6542 146.56 58.2942 145.28 59.9942 145.28C61.7142 145.28 63.3342 146.62 63.3342 148.98ZM67.3289 143.48L71.5089 154.5H74.2289L78.4289 143.48H76.0089L72.8889 152.46L69.7689 143.48H67.3289ZM79.3923 148.94C79.3923 152.34 81.6923 154.68 84.5523 154.68C86.3923 154.68 87.7123 153.8 88.4123 152.86V154.5H90.7123V143.48H88.4123V145.08C87.7323 144.18 86.4523 143.3 84.5923 143.3C81.6923 143.3 79.3923 145.54 79.3923 148.94ZM88.4123 148.98C88.4123 151.36 86.7923 152.7 85.0723 152.7C83.3723 152.7 81.7323 151.32 81.7323 148.94C81.7323 146.56 83.3723 145.28 85.0723 145.28C86.7923 145.28 88.4123 146.62 88.4123 148.98ZM101.527 154.5H103.787V148C103.787 144.92 101.847 143.3 99.267 143.3C97.947 143.3 96.727 143.84 95.987 144.74V143.48H93.707V154.5H95.987V148.34C95.987 146.32 97.087 145.28 98.767 145.28C100.427 145.28 101.527 146.32 101.527 148.34V154.5ZM105.935 148.98C105.935 152.44 108.175 154.68 111.335 154.68C114.035 154.68 115.795 153.18 116.415 151.02H113.955C113.535 152.16 112.695 152.76 111.335 152.76C109.495 152.76 108.275 151.4 108.275 148.98C108.275 146.58 109.495 145.22 111.335 145.22C112.695 145.22 113.575 145.9 113.955 146.96H116.415C115.795 144.64 114.035 143.3 111.335 143.3C108.175 143.3 105.935 145.54 105.935 148.98ZM123.328 145.22C125.028 145.22 126.368 146.3 126.408 148H120.308C120.548 146.26 121.788 145.22 123.328 145.22ZM128.487 151.22H126.028C125.608 152.08 124.828 152.76 123.428 152.76C121.748 152.76 120.448 151.66 120.288 149.84H128.708C128.768 149.46 128.788 149.1 128.788 148.72C128.788 145.48 126.568 143.3 123.428 143.3C120.168 143.3 117.928 145.52 117.928 148.98C117.928 152.44 120.268 154.68 123.428 154.68C126.128 154.68 127.868 153.14 128.487 151.22ZM130.271 148.94C130.271 152.34 132.571 154.68 135.471 154.68C137.271 154.68 138.591 153.84 139.291 152.84V154.5H141.591V139.7H139.291V145.02C138.451 143.98 136.931 143.3 135.491 143.3C132.571 143.3 130.271 145.54 130.271 148.94ZM139.291 148.98C139.291 151.36 137.671 152.7 135.951 152.7C134.251 152.7 132.611 151.32 132.611 148.94C132.611 146.56 134.251 145.28 135.951 145.28C137.671 145.28 139.291 146.62 139.291 148.98ZM154.321 140.6H149.781V154.5H154.321C158.781 154.5 161.701 151.88 161.701 147.6C161.701 143.3 158.781 140.6 154.321 140.6ZM152.061 152.64V142.46H154.321C157.601 142.46 159.361 144.42 159.361 147.6C159.361 150.76 157.601 152.64 154.321 152.64H152.061ZM163.201 148.94C163.201 152.34 165.501 154.68 168.361 154.68C170.201 154.68 171.521 153.8 172.221 152.86V154.5H174.521V143.48H172.221V145.08C171.541 144.18 170.261 143.3 168.401 143.3C165.501 143.3 163.201 145.54 163.201 148.94ZM172.221 148.98C172.221 151.36 170.601 152.7 168.881 152.7C167.181 152.7 165.541 151.32 165.541 148.94C165.541 146.56 167.181 145.28 168.881 145.28C170.601 145.28 172.221 146.62 172.221 148.98ZM177.876 151.44C177.876 153.68 179.096 154.5 181.056 154.5H182.856V152.6H181.456C180.496 152.6 180.176 152.26 180.176 151.44V145.34H182.856V143.48H180.176V140.74H177.876V143.48H176.576V145.34H177.876V151.44ZM184.197 148.94C184.197 152.34 186.497 154.68 189.357 154.68C191.197 154.68 192.517 153.8 193.217 152.86V154.5H195.517V143.48H193.217V145.08C192.537 144.18 191.257 143.3 189.397 143.3C186.497 143.3 184.197 145.54 184.197 148.94ZM193.217 148.98C193.217 151.36 191.597 152.7 189.877 152.7C188.177 152.7 186.537 151.32 186.537 148.94C186.537 146.56 188.177 145.28 189.877 145.28C191.597 145.28 193.217 146.62 193.217 148.98ZM200.792 145.12V139.7H198.512V154.5H200.792V152.9C201.512 153.86 202.812 154.68 204.632 154.68C207.532 154.68 209.812 152.34 209.812 148.94C209.812 145.54 207.552 143.3 204.632 143.3C202.892 143.3 201.512 144.12 200.792 145.12ZM207.492 148.94C207.492 151.32 205.852 152.7 204.132 152.7C202.432 152.7 200.792 151.36 200.792 148.98C200.792 146.62 202.432 145.28 204.132 145.28C205.852 145.28 207.492 146.56 207.492 148.94ZM211.306 148.94C211.306 152.34 213.606 154.68 216.466 154.68C218.306 154.68 219.626 153.8 220.326 152.86V154.5H222.626V143.48H220.326V145.08C219.646 144.18 218.366 143.3 216.506 143.3C213.606 143.3 211.306 145.54 211.306 148.94ZM220.326 148.98C220.326 151.36 218.706 152.7 216.986 152.7C215.286 152.7 213.646 151.32 213.646 148.94C213.646 146.56 215.286 145.28 216.986 145.28C218.706 145.28 220.326 146.62 220.326 148.98ZM233.841 151.42C233.721 147.44 227.501 148.68 227.501 146.46C227.501 145.72 228.141 145.22 229.361 145.22C230.601 145.22 231.341 145.88 231.421 146.84H233.701C233.581 144.64 231.941 143.3 229.441 143.3C226.841 143.3 225.201 144.72 225.201 146.48C225.201 150.52 231.601 149.28 231.601 151.44C231.601 152.2 230.901 152.76 229.581 152.76C228.321 152.76 227.461 152.02 227.381 151.12H225.021C225.121 153.12 226.981 154.68 229.621 154.68C232.221 154.68 233.841 153.28 233.841 151.42ZM240.945 145.22C242.645 145.22 243.985 146.3 244.025 148H237.925C238.165 146.26 239.405 145.22 240.945 145.22ZM246.105 151.22H243.645C243.225 152.08 242.445 152.76 241.045 152.76C239.365 152.76 238.065 151.66 237.905 149.84H246.325C246.385 149.46 246.405 149.1 246.405 148.72C246.405 145.48 244.185 143.3 241.045 143.3C237.785 143.3 235.545 145.52 235.545 148.98C235.545 152.44 237.885 154.68 241.045 154.68C243.745 154.68 245.485 153.14 246.105 151.22ZM253.844 154.5H256.124V144.98L260.384 154.5H261.964L266.204 144.98V154.5H268.484V140.6H266.044L261.184 151.5L256.304 140.6H253.844V154.5ZM270.72 148.94C270.72 152.34 273.02 154.68 275.88 154.68C277.72 154.68 279.04 153.8 279.74 152.86V154.5H282.04V143.48H279.74V145.08C279.06 144.18 277.78 143.3 275.92 143.3C273.02 143.3 270.72 145.54 270.72 148.94ZM279.74 148.98C279.74 151.36 278.12 152.7 276.4 152.7C274.7 152.7 273.06 151.32 273.06 148.94C273.06 146.56 274.7 145.28 276.4 145.28C278.12 145.28 279.74 146.62 279.74 148.98ZM292.855 154.5H295.115V148C295.115 144.92 293.175 143.3 290.595 143.3C289.275 143.3 288.055 143.84 287.315 144.74V143.48H285.035V154.5H287.315V148.34C287.315 146.32 288.415 145.28 290.095 145.28C291.755 145.28 292.855 146.32 292.855 148.34V154.5ZM297.263 148.94C297.263 152.34 299.563 154.68 302.423 154.68C304.263 154.68 305.583 153.8 306.283 152.86V154.5H308.583V143.48H306.283V145.08C305.603 144.18 304.323 143.3 302.463 143.3C299.563 143.3 297.263 145.54 297.263 148.94ZM306.283 148.98C306.283 151.36 304.663 152.7 302.943 152.7C301.243 152.7 299.603 151.32 299.603 148.94C299.603 146.56 301.243 145.28 302.943 145.28C304.663 145.28 306.283 146.62 306.283 148.98ZM310.818 148.94C310.818 152.34 313.118 154.68 316.018 154.68C317.818 154.68 319.138 153.78 319.838 152.84V154.68C319.838 156.88 318.518 157.96 316.758 157.96C315.178 157.96 313.958 157.18 313.618 156.04H311.358C311.638 158.48 313.818 159.94 316.758 159.94C320.198 159.94 322.138 157.68 322.138 154.68V143.48H319.838V145.08C319.158 144.14 317.818 143.3 316.018 143.3C313.118 143.3 310.818 145.54 310.818 148.94ZM319.838 148.98C319.838 151.36 318.218 152.7 316.498 152.7C314.798 152.7 313.158 151.32 313.158 148.94C313.158 146.56 314.798 145.28 316.498 145.28C318.218 145.28 319.838 146.62 319.838 148.98ZM329.773 145.22C331.473 145.22 332.813 146.3 332.853 148H326.753C326.993 146.26 328.233 145.22 329.773 145.22ZM334.933 151.22H332.473C332.053 152.08 331.273 152.76 329.873 152.76C328.193 152.76 326.893 151.66 326.733 149.84H335.153C335.213 149.46 335.233 149.1 335.233 148.72C335.233 145.48 333.013 143.3 329.873 143.3C326.613 143.3 324.373 145.52 324.373 148.98C324.373 152.44 326.713 154.68 329.873 154.68C332.573 154.68 334.313 153.14 334.933 151.22ZM353.097 154.5H355.357V148C355.357 144.92 353.397 143.3 350.817 143.3C349.217 143.3 347.657 144.14 346.977 145.48C346.217 144.04 344.757 143.3 343.017 143.3C341.697 143.3 340.497 143.84 339.757 144.74V143.48H337.477V154.5H339.757V148.34C339.757 146.32 340.857 145.28 342.537 145.28C344.197 145.28 345.297 146.32 345.297 148.34V154.5H347.557V148.34C347.557 146.32 348.657 145.28 350.337 145.28C351.997 145.28 353.097 146.32 353.097 148.34V154.5ZM362.898 145.22C364.598 145.22 365.938 146.3 365.978 148H359.878C360.118 146.26 361.358 145.22 362.898 145.22ZM368.058 151.22H365.598C365.178 152.08 364.398 152.76 362.998 152.76C361.318 152.76 360.018 151.66 359.858 149.84H368.278C368.338 149.46 368.358 149.1 368.358 148.72C368.358 145.48 366.138 143.3 362.998 143.3C359.738 143.3 357.498 145.52 357.498 148.98C357.498 152.44 359.838 154.68 362.998 154.68C365.698 154.68 367.438 153.14 368.058 151.22ZM378.422 154.5H380.682V148C380.682 144.92 378.742 143.3 376.162 143.3C374.842 143.3 373.622 143.84 372.882 144.74V143.48H370.602V154.5H372.882V148.34C372.882 146.32 373.982 145.28 375.662 145.28C377.322 145.28 378.422 146.32 378.422 148.34V154.5ZM383.95 151.44C383.95 153.68 385.17 154.5 387.13 154.5H388.93V152.6H387.53C386.57 152.6 386.25 152.26 386.25 151.44V145.34H388.93V143.48H386.25V140.74H383.95V143.48H382.65V145.34H383.95V151.44ZM405.607 150.56C405.607 145.48 398.247 147.44 398.247 144.3C398.247 142.96 399.267 142.32 400.587 142.36C402.027 142.4 402.847 143.26 402.927 144.2H405.447C405.247 141.82 403.367 140.42 400.707 140.42C397.867 140.42 395.927 141.94 395.927 144.38C395.927 149.5 403.307 147.32 403.307 150.68C403.307 151.86 402.407 152.72 400.807 152.72C399.227 152.72 398.427 151.8 398.327 150.66H395.887C395.887 153.12 398.027 154.64 400.807 154.64C403.907 154.64 405.607 152.64 405.607 150.56ZM412.637 151.88L409.537 143.48H406.997L411.337 154.32L409.097 159.68H411.457L418.217 143.48H415.857L412.637 151.88ZM428.158 151.42C428.038 147.44 421.818 148.68 421.818 146.46C421.818 145.72 422.458 145.22 423.678 145.22C424.918 145.22 425.658 145.88 425.738 146.84H428.018C427.898 144.64 426.258 143.3 423.758 143.3C421.158 143.3 419.518 144.72 419.518 146.48C419.518 150.52 425.918 149.28 425.918 151.44C425.918 152.2 425.218 152.76 423.898 152.76C422.638 152.76 421.778 152.02 421.698 151.12H419.338C419.438 153.12 421.298 154.68 423.938 154.68C426.538 154.68 428.158 153.28 428.158 151.42ZM430.981 151.44C430.981 153.68 432.201 154.5 434.161 154.5H435.961V152.6H434.561C433.601 152.6 433.281 152.26 433.281 151.44V145.34H435.961V143.48H433.281V140.74H430.981V143.48H429.681V145.34H430.981V151.44ZM442.703 145.22C444.403 145.22 445.743 146.3 445.783 148H439.683C439.923 146.26 441.163 145.22 442.703 145.22ZM447.862 151.22H445.403C444.983 152.08 444.203 152.76 442.803 152.76C441.123 152.76 439.823 151.66 439.663 149.84H448.083C448.143 149.46 448.163 149.1 448.163 148.72C448.163 145.48 445.943 143.3 442.803 143.3C439.543 143.3 437.303 145.52 437.303 148.98C437.303 152.44 439.643 154.68 442.803 154.68C445.503 154.68 447.243 153.14 447.862 151.22ZM466.026 154.5H468.286V148C468.286 144.92 466.326 143.3 463.746 143.3C462.146 143.3 460.586 144.14 459.906 145.48C459.146 144.04 457.686 143.3 455.946 143.3C454.626 143.3 453.426 143.84 452.686 144.74V143.48H450.406V154.5H452.686V148.34C452.686 146.32 453.786 145.28 455.466 145.28C457.126 145.28 458.226 146.32 458.226 148.34V154.5H460.486V148.34C460.486 146.32 461.586 145.28 463.266 145.28C464.926 145.28 466.026 146.32 466.026 148.34V154.5ZM479.408 151.42C479.288 147.44 473.068 148.68 473.068 146.46C473.068 145.72 473.708 145.22 474.928 145.22C476.168 145.22 476.908 145.88 476.988 146.84H479.268C479.148 144.64 477.508 143.3 475.008 143.3C472.408 143.3 470.768 144.72 470.768 146.48C470.768 150.52 477.168 149.28 477.168 151.44C477.168 152.2 476.468 152.76 475.148 152.76C473.888 152.76 473.028 152.02 472.948 151.12H470.588C470.688 153.12 472.548 154.68 475.188 154.68C477.788 154.68 479.408 153.28 479.408 151.42Z" fill="#212832"/>
<rect x="0.5" y="122.5" width="616" height="49" stroke="black" stroke-opacity="0.5"/>
<rect y="236" width="617" height="50" fill="white"/>
<path d="M24.6 264.44C26.08 264.44 27.24 263.3 27.24 261.84C27.24 260.36 26.08 259.22 24.6 259.22C23.16 259.22 22 260.36 22 261.84C22 263.3 23.16 264.44 24.6 264.44ZM43.4089 261V256.46H45.9289C47.7089 256.46 48.5089 257.3 48.5089 258.74C48.5089 260.14 47.7089 261 45.9289 261H43.4089ZM50.8489 258.74C50.8489 256.48 49.2289 254.6 45.9289 254.6H41.1289V268.5H43.4089V262.86H45.9289C49.5489 262.86 50.8489 260.72 50.8489 258.74ZM55.3034 262.7C55.3034 260.36 56.3434 259.66 58.0234 259.66H58.6034V257.3C57.0434 257.3 55.9434 257.98 55.3034 259.08V257.48H53.0234V268.5H55.3034V262.7ZM71.1992 262.98C71.1992 259.52 68.7192 257.3 65.5792 257.3C62.4392 257.3 59.9592 259.52 59.9592 262.98C59.9592 266.44 62.3392 268.68 65.4792 268.68C68.6392 268.68 71.1992 266.44 71.1992 262.98ZM62.2792 262.98C62.2792 260.48 63.8192 259.28 65.5392 259.28C67.2392 259.28 68.8592 260.48 68.8592 262.98C68.8592 265.48 67.1792 266.7 65.4792 266.7C63.7592 266.7 62.2792 265.48 62.2792 262.98ZM73.7331 268.5H76.0331V259.34H78.0731V257.48H76.0331V256.7C76.0331 255.44 76.5131 254.96 77.9131 254.96V253.06C75.0331 253.06 73.7331 254.16 73.7331 256.7V257.48H72.4331V259.34H73.7331V268.5ZM84.7338 259.22C86.4338 259.22 87.7738 260.3 87.8138 262H81.7138C81.9538 260.26 83.1938 259.22 84.7338 259.22ZM89.8937 265.22H87.4338C87.0138 266.08 86.2338 266.76 84.8338 266.76C83.1538 266.76 81.8538 265.66 81.6938 263.84H90.1138C90.1738 263.46 90.1938 263.1 90.1938 262.72C90.1938 259.48 87.9738 257.3 84.8338 257.3C81.5738 257.3 79.3338 259.52 79.3338 262.98C79.3338 266.44 81.6738 268.68 84.8338 268.68C87.5338 268.68 89.2738 267.14 89.8937 265.22ZM100.658 265.42C100.538 261.44 94.3175 262.68 94.3175 260.46C94.3175 259.72 94.9575 259.22 96.1775 259.22C97.4175 259.22 98.1575 259.88 98.2375 260.84H100.518C100.398 258.64 98.7575 257.3 96.2575 257.3C93.6575 257.3 92.0175 258.72 92.0175 260.48C92.0175 264.52 98.4175 263.28 98.4175 265.44C98.4175 266.2 97.7175 266.76 96.3975 266.76C95.1375 266.76 94.2775 266.02 94.1975 265.12H91.8375C91.9375 267.12 93.7975 268.68 96.4375 268.68C99.0375 268.68 100.658 267.28 100.658 265.42ZM111.341 265.42C111.221 261.44 105.001 262.68 105.001 260.46C105.001 259.72 105.641 259.22 106.861 259.22C108.101 259.22 108.841 259.88 108.921 260.84H111.201C111.081 258.64 109.441 257.3 106.941 257.3C104.341 257.3 102.701 258.72 102.701 260.48C102.701 264.52 109.101 263.28 109.101 265.44C109.101 266.2 108.401 266.76 107.081 266.76C105.821 266.76 104.961 266.02 104.881 265.12H102.521C102.621 267.12 104.481 268.68 107.121 268.68C109.721 268.68 111.341 267.28 111.341 265.42ZM113.805 268.5H116.085V257.48H113.805V268.5ZM114.965 256.02C115.765 256.02 116.405 255.38 116.405 254.56C116.405 253.74 115.765 253.1 114.965 253.1C114.145 253.1 113.505 253.74 113.505 254.56C113.505 255.38 114.145 256.02 114.965 256.02ZM129.578 262.98C129.578 259.52 127.098 257.3 123.958 257.3C120.818 257.3 118.338 259.52 118.338 262.98C118.338 266.44 120.718 268.68 123.858 268.68C127.018 268.68 129.578 266.44 129.578 262.98ZM120.658 262.98C120.658 260.48 122.198 259.28 123.918 259.28C125.618 259.28 127.238 260.48 127.238 262.98C127.238 265.48 125.558 266.7 123.858 266.7C122.138 266.7 120.658 265.48 120.658 262.98ZM139.652 268.5H141.912V262C141.912 258.92 139.972 257.3 137.392 257.3C136.072 257.3 134.852 257.84 134.112 258.74V257.48H131.832V268.5H134.112V262.34C134.112 260.32 135.212 259.28 136.892 259.28C138.552 259.28 139.652 260.32 139.652 262.34V268.5ZM144.06 262.94C144.06 266.34 146.36 268.68 149.22 268.68C151.06 268.68 152.38 267.8 153.08 266.86V268.5H155.38V257.48H153.08V259.08C152.4 258.18 151.12 257.3 149.26 257.3C146.36 257.3 144.06 259.54 144.06 262.94ZM153.08 262.98C153.08 265.36 151.46 266.7 149.74 266.7C148.04 266.7 146.4 265.32 146.4 262.94C146.4 260.56 148.04 259.28 149.74 259.28C151.46 259.28 153.08 260.62 153.08 262.98ZM158.375 268.5H160.655V253.7H158.375V268.5ZM168.084 261.52C168.084 265.7 171.264 268.62 175.184 268.62C178.084 268.62 180.584 267.18 181.644 264.46H178.904C178.164 265.94 176.844 266.64 175.184 266.64C172.424 266.64 170.424 264.66 170.424 261.52C170.424 258.38 172.424 256.42 175.184 256.42C176.844 256.42 178.164 257.12 178.904 258.6H181.644C180.584 255.88 178.084 254.42 175.184 254.42C171.264 254.42 168.084 257.36 168.084 261.52ZM194.813 262.98C194.813 259.52 192.333 257.3 189.193 257.3C186.053 257.3 183.573 259.52 183.573 262.98C183.573 266.44 185.953 268.68 189.093 268.68C192.253 268.68 194.813 266.44 194.813 262.98ZM185.893 262.98C185.893 260.48 187.433 259.28 189.153 259.28C190.853 259.28 192.473 260.48 192.473 262.98C192.473 265.48 190.793 266.7 189.093 266.7C187.373 266.7 185.893 265.48 185.893 262.98ZM212.686 268.5H214.946V262C214.946 258.92 212.986 257.3 210.406 257.3C208.806 257.3 207.246 258.14 206.566 259.48C205.806 258.04 204.346 257.3 202.606 257.3C201.286 257.3 200.086 257.84 199.346 258.74V257.48H197.066V268.5H199.346V262.34C199.346 260.32 200.446 259.28 202.126 259.28C203.786 259.28 204.886 260.32 204.886 262.34V268.5H207.146V262.34C207.146 260.32 208.246 259.28 209.926 259.28C211.586 259.28 212.686 260.32 212.686 262.34V268.5ZM233.468 268.5H235.728V262C235.728 258.92 233.768 257.3 231.188 257.3C229.588 257.3 228.028 258.14 227.348 259.48C226.588 258.04 225.128 257.3 223.388 257.3C222.068 257.3 220.868 257.84 220.128 258.74V257.48H217.848V268.5H220.128V262.34C220.128 260.32 221.228 259.28 222.908 259.28C224.568 259.28 225.668 260.32 225.668 262.34V268.5H227.928V262.34C227.928 260.32 229.028 259.28 230.708 259.28C232.368 259.28 233.468 260.32 233.468 262.34V268.5ZM248.609 257.48H246.329V263.62C246.329 265.64 245.229 266.68 243.549 266.68C241.889 266.68 240.789 265.64 240.789 263.62V257.48H238.529V263.96C238.529 267.04 240.489 268.66 243.069 268.66C244.369 268.66 245.609 268.12 246.329 267.18V268.5H248.609V257.48ZM259.437 268.5H261.697V262C261.697 258.92 259.757 257.3 257.177 257.3C255.857 257.3 254.637 257.84 253.897 258.74V257.48H251.617V268.5H253.897V262.34C253.897 260.32 254.997 259.28 256.677 259.28C258.337 259.28 259.437 260.32 259.437 262.34V268.5ZM264.605 268.5H266.885V257.48H264.605V268.5ZM265.765 256.02C266.565 256.02 267.205 255.38 267.205 254.56C267.205 253.74 266.565 253.1 265.765 253.1C264.945 253.1 264.305 253.74 264.305 254.56C264.305 255.38 264.945 256.02 265.765 256.02ZM269.119 262.98C269.119 266.44 271.359 268.68 274.519 268.68C277.219 268.68 278.979 267.18 279.599 265.02H277.139C276.719 266.16 275.879 266.76 274.519 266.76C272.679 266.76 271.459 265.4 271.459 262.98C271.459 260.58 272.679 259.22 274.519 259.22C275.879 259.22 276.759 259.9 277.139 260.96H279.599C278.979 258.64 277.219 257.3 274.519 257.3C271.359 257.3 269.119 259.54 269.119 262.98ZM281.111 262.94C281.111 266.34 283.411 268.68 286.271 268.68C288.111 268.68 289.431 267.8 290.131 266.86V268.5H292.431V257.48H290.131V259.08C289.451 258.18 288.171 257.3 286.311 257.3C283.411 257.3 281.111 259.54 281.111 262.94ZM290.131 262.98C290.131 265.36 288.511 266.7 286.791 266.7C285.091 266.7 283.451 265.32 283.451 262.94C283.451 260.56 285.091 259.28 286.791 259.28C288.511 259.28 290.131 260.62 290.131 262.98ZM295.786 265.44C295.786 267.68 297.006 268.5 298.966 268.5H300.766V266.6H299.366C298.406 266.6 298.086 266.26 298.086 265.44V259.34H300.766V257.48H298.086V254.74H295.786V257.48H294.486V259.34H295.786V265.44ZM302.867 268.5H305.147V257.48H302.867V268.5ZM304.027 256.02C304.827 256.02 305.467 255.38 305.467 254.56C305.467 253.74 304.827 253.1 304.027 253.1C303.207 253.1 302.567 253.74 302.567 254.56C302.567 255.38 303.207 256.02 304.027 256.02ZM318.641 262.98C318.641 259.52 316.161 257.3 313.021 257.3C309.881 257.3 307.401 259.52 307.401 262.98C307.401 266.44 309.781 268.68 312.921 268.68C316.081 268.68 318.641 266.44 318.641 262.98ZM309.721 262.98C309.721 260.48 311.261 259.28 312.981 259.28C314.681 259.28 316.301 260.48 316.301 262.98C316.301 265.48 314.621 266.7 312.921 266.7C311.201 266.7 309.721 265.48 309.721 262.98ZM328.715 268.5H330.975V262C330.975 258.92 329.035 257.3 326.455 257.3C325.135 257.3 323.915 257.84 323.175 258.74V257.48H320.895V268.5H323.175V262.34C323.175 260.32 324.275 259.28 325.955 259.28C327.615 259.28 328.715 260.32 328.715 262.34V268.5Z" fill="#212832"/>
<rect x="0.5" y="236.5" width="616" height="49" stroke="black" stroke-opacity="0.5"/>
</svg>
