<svg width="617" height="287" viewBox="0 0 617 287" fill="none" xmlns="http://www.w3.org/2000/svg">
<rect width="617" height="58" fill="#3498DB"/>
<path d="M33.925 32.95C33.925 26.8 24.975 28.75 24.975 25.25C24.975 23.825 26 23.15 27.375 23.2C28.875 23.225 29.8 24.125 29.875 25.275H33.725C33.5 22.125 31.05 20.3 27.475 20.3C23.875 20.3 21.325 22.2 21.325 25.35C21.3 31.675 30.3 29.4 30.3 33.175C30.3 34.425 29.325 35.3 27.675 35.3C26.05 35.3 25.125 34.375 25.025 32.975H21.275C21.325 36.275 24.125 38.175 27.75 38.175C31.725 38.175 33.925 35.7 33.925 32.95ZM43.4094 26.8C45.2094 26.8 46.6594 27.95 46.7094 29.775H40.1344C40.4094 27.875 41.7344 26.8 43.4094 26.8ZM49.9844 33.65H46.2094C45.7594 34.575 44.9344 35.325 43.4344 35.325C41.6844 35.325 40.2844 34.175 40.1094 32.125H50.2344C50.3094 31.675 50.3344 31.225 50.3344 30.775C50.3344 26.65 47.5094 23.925 43.5094 23.925C39.4094 23.925 36.5594 26.7 36.5594 31.075C36.5594 35.425 39.4844 38.225 43.5094 38.225C46.9344 38.225 49.2344 36.2 49.9844 33.65ZM72.7641 38H76.2641V29.875C76.2641 26.05 73.9141 23.95 70.5891 23.95C68.5641 23.95 66.7391 25.025 65.8391 26.6C64.8891 24.875 63.1141 23.95 60.9641 23.95C59.2391 23.95 57.7641 24.675 56.8891 25.825V24.15H53.3891V38H56.8891V30.35C56.8891 28.15 58.1141 27 60.0141 27C61.8641 27 63.0891 28.15 63.0891 30.35V38H66.5891V30.35C66.5891 28.15 67.8141 27 69.6891 27C71.5391 27 72.7641 28.15 72.7641 30.35V38ZM86.0354 26.8C87.8354 26.8 89.2854 27.95 89.3354 29.775H82.7604C83.0354 27.875 84.3604 26.8 86.0354 26.8ZM92.6104 33.65H88.8354C88.3854 34.575 87.5604 35.325 86.0604 35.325C84.3104 35.325 82.9104 34.175 82.7354 32.125H92.8604C92.9354 31.675 92.9604 31.225 92.9604 30.775C92.9604 26.65 90.1354 23.925 86.1354 23.925C82.0354 23.925 79.1854 26.7 79.1854 31.075C79.1854 35.425 82.1104 38.225 86.1354 38.225C89.5604 38.225 91.8604 36.2 92.6104 33.65ZM106.765 34.05C106.665 28.975 98.99 30.55 98.99 28.025C98.99 27.225 99.665 26.7 100.965 26.7C102.34 26.7 103.19 27.425 103.29 28.5H106.64C106.44 25.75 104.415 23.925 101.065 23.925C97.64 23.925 95.59 25.775 95.59 28.075C95.59 33.15 103.415 31.575 103.415 34.05C103.415 34.85 102.665 35.475 101.29 35.475C99.89 35.475 98.915 34.675 98.79 33.625H95.265C95.415 36.2 97.84 38.225 101.315 38.225C104.69 38.225 106.765 36.425 106.765 34.05ZM110.688 33.7C110.688 36.875 112.463 38 115.113 38H117.313V35.05H115.688C114.588 35.05 114.213 34.65 114.213 33.725V27.025H117.313V24.15H114.213V20.725H110.688V24.15H109.038V27.025H110.688V33.7ZM126.28 26.8C128.08 26.8 129.53 27.95 129.58 29.775H123.005C123.28 27.875 124.605 26.8 126.28 26.8ZM132.855 33.65H129.08C128.63 34.575 127.805 35.325 126.305 35.325C124.555 35.325 123.155 34.175 122.98 32.125H133.105C133.18 31.675 133.205 31.225 133.205 30.775C133.205 26.65 130.38 23.925 126.38 23.925C122.28 23.925 119.43 26.7 119.43 31.075C119.43 35.425 122.355 38.225 126.38 38.225C129.805 38.225 132.105 36.2 132.855 33.65ZM139.76 31.1C139.76 28.425 141.01 27.625 143.085 27.625H144.01V23.95C142.085 23.95 140.635 24.875 139.76 26.3V24.15H136.26V38H139.76V31.1ZM152.975 24.575H156.4C156.525 23.425 157.25 22.325 158.95 22.325C160.55 22.325 161.425 23.175 161.425 24.6C161.425 26.4 159.925 26.975 157.875 26.975H157.15V29.85H157.875C160.475 29.85 161.775 30.6 161.775 32.65C161.775 34.1 160.875 35.2 159.125 35.2C157.25 35.2 156.2 34.075 156.125 32.5H152.725C152.875 36.325 155.6 38.125 159.2 38.125C163.025 38.125 165.125 35.925 165.125 32.95C165.125 30.475 163.9 28.975 162.05 28.4V28.3C163.375 27.85 164.8 26.45 164.8 24.175C164.8 21.475 162.8 19.35 159.05 19.35C155.55 19.35 153.15 21.2 152.975 24.575Z" fill="white"/>
<rect y="66" width="617" height="50" fill="white"/>
<path d="M24.6 94.44C26.08 94.44 27.24 93.3 27.24 91.84C27.24 90.36 26.08 89.22 24.6 89.22C23.16 89.22 22 90.36 22 91.84C22 93.3 23.16 94.44 24.6 94.44ZM40.3689 91.52C40.3689 95.7 43.5489 98.62 47.4689 98.62C50.3689 98.62 52.8689 97.18 53.9289 94.46H51.1889C50.4489 95.94 49.1289 96.64 47.4689 96.64C44.7089 96.64 42.7089 94.66 42.7089 91.52C42.7089 88.38 44.7089 86.42 47.4689 86.42C49.1289 86.42 50.4489 87.12 51.1889 88.6H53.9289C52.8689 85.88 50.3689 84.42 47.4689 84.42C43.5489 84.42 40.3689 87.36 40.3689 91.52ZM56.5977 98.5H58.8777V83.7H56.5977V98.5ZM72.3711 92.98C72.3711 89.52 69.8911 87.3 66.7511 87.3C63.6111 87.3 61.1311 89.52 61.1311 92.98C61.1311 96.44 63.5111 98.68 66.6511 98.68C69.8111 98.68 72.3711 96.44 72.3711 92.98ZM63.4511 92.98C63.4511 90.48 64.9911 89.28 66.7111 89.28C68.4111 89.28 70.0311 90.48 70.0311 92.98C70.0311 95.48 68.3511 96.7 66.6511 96.7C64.9311 96.7 63.4511 95.48 63.4511 92.98ZM84.605 87.48H82.325V93.62C82.325 95.64 81.225 96.68 79.545 96.68C77.885 96.68 76.785 95.64 76.785 93.62V87.48H74.525V93.96C74.525 97.04 76.485 98.66 79.065 98.66C80.365 98.66 81.605 98.12 82.325 97.18V98.5H84.605V87.48ZM86.8533 92.94C86.8533 96.34 89.1533 98.68 92.0533 98.68C93.8533 98.68 95.1733 97.84 95.8733 96.84V98.5H98.1733V83.7H95.8733V89.02C95.0333 87.98 93.5133 87.3 92.0733 87.3C89.1533 87.3 86.8533 89.54 86.8533 92.94ZM95.8733 92.98C95.8733 95.36 94.2533 96.7 92.5333 96.7C90.8333 96.7 89.1933 95.32 89.1933 92.94C89.1933 90.56 90.8333 89.28 92.5333 89.28C94.2533 89.28 95.8733 90.62 95.8733 92.98ZM106.363 98.5H108.643V84.6H106.363V98.5ZM119.457 98.5H121.717V92C121.717 88.92 119.777 87.3 117.197 87.3C115.877 87.3 114.657 87.84 113.917 88.74V87.48H111.637V98.5H113.917V92.34C113.917 90.32 115.017 89.28 116.697 89.28C118.357 89.28 119.457 90.32 119.457 92.34V98.5ZM124.905 98.5H127.205V89.34H129.245V87.48H127.205V86.7C127.205 85.44 127.685 84.96 129.085 84.96V83.06C126.205 83.06 124.905 84.16 124.905 86.7V87.48H123.605V89.34H124.905V98.5ZM133.546 92.7C133.546 90.36 134.586 89.66 136.266 89.66H136.846V87.3C135.286 87.3 134.186 87.98 133.546 89.08V87.48H131.266V98.5H133.546V92.7ZM138.181 92.94C138.181 96.34 140.481 98.68 143.341 98.68C145.181 98.68 146.501 97.8 147.201 96.86V98.5H149.501V87.48H147.201V89.08C146.521 88.18 145.241 87.3 143.381 87.3C140.481 87.3 138.181 89.54 138.181 92.94ZM147.201 92.98C147.201 95.36 145.581 96.7 143.861 96.7C142.161 96.7 140.521 95.32 140.521 92.94C140.521 90.56 142.161 89.28 143.861 89.28C145.581 89.28 147.201 90.62 147.201 92.98ZM160.716 95.42C160.596 91.44 154.376 92.68 154.376 90.46C154.376 89.72 155.016 89.22 156.236 89.22C157.476 89.22 158.216 89.88 158.296 90.84H160.576C160.456 88.64 158.816 87.3 156.316 87.3C153.716 87.3 152.076 88.72 152.076 90.48C152.076 94.52 158.476 93.28 158.476 95.44C158.476 96.2 157.776 96.76 156.456 96.76C155.196 96.76 154.336 96.02 154.256 95.12H151.896C151.996 97.12 153.856 98.68 156.496 98.68C159.096 98.68 160.716 97.28 160.716 95.42ZM163.54 95.44C163.54 97.68 164.76 98.5 166.72 98.5H168.52V96.6H167.12C166.16 96.6 165.84 96.26 165.84 95.44V89.34H168.52V87.48H165.84V84.74H163.54V87.48H162.24V89.34H163.54V95.44ZM172.901 92.7C172.901 90.36 173.941 89.66 175.621 89.66H176.201V87.3C174.641 87.3 173.541 87.98 172.901 89.08V87.48H170.621V98.5H172.901V92.7ZM188.277 87.48H185.997V93.62C185.997 95.64 184.897 96.68 183.217 96.68C181.557 96.68 180.457 95.64 180.457 93.62V87.48H178.197V93.96C178.197 97.04 180.157 98.66 182.737 98.66C184.037 98.66 185.277 98.12 185.997 97.18V98.5H188.277V87.48ZM190.525 92.98C190.525 96.44 192.765 98.68 195.925 98.68C198.625 98.68 200.385 97.18 201.005 95.02H198.545C198.125 96.16 197.285 96.76 195.925 96.76C194.085 96.76 192.865 95.4 192.865 92.98C192.865 90.58 194.085 89.22 195.925 89.22C197.285 89.22 198.165 89.9 198.545 90.96H201.005C200.385 88.64 198.625 87.3 195.925 87.3C192.765 87.3 190.525 89.54 190.525 92.98ZM203.637 95.44C203.637 97.68 204.857 98.5 206.817 98.5H208.617V96.6H207.217C206.257 96.6 205.937 96.26 205.937 95.44V89.34H208.617V87.48H205.937V84.74H203.637V87.48H202.337V89.34H203.637V95.44ZM220.699 87.48H218.419V93.62C218.419 95.64 217.319 96.68 215.639 96.68C213.979 96.68 212.879 95.64 212.879 93.62V87.48H210.619V93.96C210.619 97.04 212.579 98.66 215.159 98.66C216.459 98.66 217.699 98.12 218.419 97.18V98.5H220.699V87.48ZM225.987 92.7C225.987 90.36 227.027 89.66 228.707 89.66H229.287V87.3C227.727 87.3 226.627 87.98 225.987 89.08V87.48H223.707V98.5H225.987V92.7ZM236.023 89.22C237.723 89.22 239.063 90.3 239.103 92H233.003C233.243 90.26 234.483 89.22 236.023 89.22ZM241.183 95.22H238.723C238.303 96.08 237.523 96.76 236.123 96.76C234.443 96.76 233.143 95.66 232.983 93.84H241.403C241.463 93.46 241.483 93.1 241.483 92.72C241.483 89.48 239.263 87.3 236.123 87.3C232.863 87.3 230.623 89.52 230.623 92.98C230.623 96.44 232.963 98.68 236.123 98.68C238.823 98.68 240.563 97.14 241.183 95.22ZM248.162 92.94C248.162 96.34 250.462 98.68 253.322 98.68C255.162 98.68 256.482 97.8 257.182 96.86V98.5H259.482V87.48H257.182V89.08C256.502 88.18 255.222 87.3 253.362 87.3C250.462 87.3 248.162 89.54 248.162 92.94ZM257.182 92.98C257.182 95.36 255.562 96.7 253.842 96.7C252.142 96.7 250.502 95.32 250.502 92.94C250.502 90.56 252.142 89.28 253.842 89.28C255.562 89.28 257.182 90.62 257.182 92.98ZM270.297 98.5H272.557V92C272.557 88.92 270.617 87.3 268.037 87.3C266.717 87.3 265.497 87.84 264.757 88.74V87.48H262.477V98.5H264.757V92.34C264.757 90.32 265.857 89.28 267.537 89.28C269.197 89.28 270.297 90.32 270.297 92.34V98.5ZM274.705 92.94C274.705 96.34 277.005 98.68 279.905 98.68C281.705 98.68 283.025 97.84 283.725 96.84V98.5H286.025V83.7H283.725V89.02C282.885 87.98 281.365 87.3 279.925 87.3C277.005 87.3 274.705 89.54 274.705 92.94ZM283.725 92.98C283.725 95.36 282.105 96.7 280.385 96.7C278.685 96.7 277.045 95.32 277.045 92.94C277.045 90.56 278.685 89.28 280.385 89.28C282.105 89.28 283.725 90.62 283.725 92.98ZM303.595 94.56C303.595 89.48 296.235 91.44 296.235 88.3C296.235 86.96 297.255 86.32 298.575 86.36C300.015 86.4 300.835 87.26 300.915 88.2H303.435C303.235 85.82 301.355 84.42 298.695 84.42C295.855 84.42 293.915 85.94 293.915 88.38C293.915 93.5 301.295 91.32 301.295 94.68C301.295 95.86 300.395 96.72 298.795 96.72C297.215 96.72 296.415 95.8 296.315 94.66H293.875C293.875 97.12 296.015 98.64 298.795 98.64C301.895 98.64 303.595 96.64 303.595 94.56ZM310.925 89.22C312.625 89.22 313.965 90.3 314.005 92H307.905C308.145 90.26 309.385 89.22 310.925 89.22ZM316.085 95.22H313.625C313.205 96.08 312.425 96.76 311.025 96.76C309.345 96.76 308.045 95.66 307.885 93.84H316.305C316.365 93.46 316.385 93.1 316.385 92.72C316.385 89.48 314.165 87.3 311.025 87.3C307.765 87.3 305.525 89.52 305.525 92.98C305.525 96.44 307.865 98.68 311.025 98.68C313.725 98.68 315.465 97.14 316.085 95.22ZM320.909 92.7C320.909 90.36 321.949 89.66 323.629 89.66H324.209V87.3C322.649 87.3 321.549 87.98 320.909 89.08V87.48H318.629V98.5H320.909V92.7ZM325.005 87.48L329.185 98.5H331.905L336.105 87.48H333.685L330.565 96.46L327.445 87.48H325.005ZM337.828 98.5H340.108V87.48H337.828V98.5ZM338.988 86.02C339.788 86.02 340.428 85.38 340.428 84.56C340.428 83.74 339.788 83.1 338.988 83.1C338.168 83.1 337.528 83.74 337.528 84.56C337.528 85.38 338.168 86.02 338.988 86.02ZM342.342 92.98C342.342 96.44 344.582 98.68 347.742 98.68C350.442 98.68 352.202 97.18 352.822 95.02H350.362C349.942 96.16 349.102 96.76 347.742 96.76C345.902 96.76 344.682 95.4 344.682 92.98C344.682 90.58 345.902 89.22 347.742 89.22C349.102 89.22 349.982 89.9 350.362 90.96H352.822C352.202 88.64 350.442 87.3 347.742 87.3C344.582 87.3 342.342 89.54 342.342 92.98ZM359.734 89.22C361.434 89.22 362.774 90.3 362.814 92H356.714C356.954 90.26 358.194 89.22 359.734 89.22ZM364.894 95.22H362.434C362.014 96.08 361.234 96.76 359.834 96.76C358.154 96.76 356.854 95.66 356.694 93.84H365.114C365.174 93.46 365.194 93.1 365.194 92.72C365.194 89.48 362.974 87.3 359.834 87.3C356.574 87.3 354.334 89.52 354.334 92.98C354.334 96.44 356.674 98.68 359.834 98.68C362.534 98.68 364.274 97.14 364.894 95.22ZM375.658 95.42C375.538 91.44 369.318 92.68 369.318 90.46C369.318 89.72 369.958 89.22 371.178 89.22C372.418 89.22 373.158 89.88 373.238 90.84H375.518C375.398 88.64 373.758 87.3 371.258 87.3C368.658 87.3 367.018 88.72 367.018 90.48C367.018 94.52 373.418 93.28 373.418 95.44C373.418 96.2 372.718 96.76 371.398 96.76C370.138 96.76 369.278 96.02 369.198 95.12H366.838C366.938 97.12 368.798 98.68 371.438 98.68C374.038 98.68 375.658 97.28 375.658 95.42Z" fill="#212832"/>
<rect x="0.5" y="66.5" width="616" height="49" stroke="black" stroke-opacity="0.5"/>
<rect y="180" width="617" height="50" fill="white"/>
<path d="M24.6 208.44C26.08 208.44 27.24 207.3 27.24 205.84C27.24 204.36 26.08 203.22 24.6 203.22C23.16 203.22 22 204.36 22 205.84C22 207.3 23.16 208.44 24.6 208.44ZM43.4089 205V200.46H45.9289C47.7089 200.46 48.5089 201.3 48.5089 202.74C48.5089 204.14 47.7089 205 45.9289 205H43.4089ZM50.8489 202.74C50.8489 200.48 49.2289 198.6 45.9289 198.6H41.1289V212.5H43.4089V206.86H45.9289C49.5489 206.86 50.8489 204.72 50.8489 202.74ZM55.3034 206.7C55.3034 204.36 56.3434 203.66 58.0234 203.66H58.6034V201.3C57.0434 201.3 55.9434 201.98 55.3034 203.08V201.48H53.0234V212.5H55.3034V206.7ZM71.1992 206.98C71.1992 203.52 68.7192 201.3 65.5792 201.3C62.4392 201.3 59.9592 203.52 59.9592 206.98C59.9592 210.44 62.3392 212.68 65.4792 212.68C68.6392 212.68 71.1992 210.44 71.1992 206.98ZM62.2792 206.98C62.2792 204.48 63.8192 203.28 65.5392 203.28C67.2392 203.28 68.8592 204.48 68.8592 206.98C68.8592 209.48 67.1792 210.7 65.4792 210.7C63.7592 210.7 62.2792 209.48 62.2792 206.98ZM73.7331 212.5H76.0331V203.34H78.0731V201.48H76.0331V200.7C76.0331 199.44 76.5131 198.96 77.9131 198.96V197.06C75.0331 197.06 73.7331 198.16 73.7331 200.7V201.48H72.4331V203.34H73.7331V212.5ZM84.7338 203.22C86.4338 203.22 87.7738 204.3 87.8138 206H81.7138C81.9538 204.26 83.1938 203.22 84.7338 203.22ZM89.8937 209.22H87.4338C87.0138 210.08 86.2338 210.76 84.8338 210.76C83.1538 210.76 81.8538 209.66 81.6938 207.84H90.1138C90.1738 207.46 90.1938 207.1 90.1938 206.72C90.1938 203.48 87.9738 201.3 84.8338 201.3C81.5738 201.3 79.3338 203.52 79.3338 206.98C79.3338 210.44 81.6738 212.68 84.8338 212.68C87.5338 212.68 89.2738 211.14 89.8937 209.22ZM100.658 209.42C100.538 205.44 94.3175 206.68 94.3175 204.46C94.3175 203.72 94.9575 203.22 96.1775 203.22C97.4175 203.22 98.1575 203.88 98.2375 204.84H100.518C100.398 202.64 98.7575 201.3 96.2575 201.3C93.6575 201.3 92.0175 202.72 92.0175 204.48C92.0175 208.52 98.4175 207.28 98.4175 209.44C98.4175 210.2 97.7175 210.76 96.3975 210.76C95.1375 210.76 94.2775 210.02 94.1975 209.12H91.8375C91.9375 211.12 93.7975 212.68 96.4375 212.68C99.0375 212.68 100.658 211.28 100.658 209.42ZM111.341 209.42C111.221 205.44 105.001 206.68 105.001 204.46C105.001 203.72 105.641 203.22 106.861 203.22C108.101 203.22 108.841 203.88 108.921 204.84H111.201C111.081 202.64 109.441 201.3 106.941 201.3C104.341 201.3 102.701 202.72 102.701 204.48C102.701 208.52 109.101 207.28 109.101 209.44C109.101 210.2 108.401 210.76 107.081 210.76C105.821 210.76 104.961 210.02 104.881 209.12H102.521C102.621 211.12 104.481 212.68 107.121 212.68C109.721 212.68 111.341 211.28 111.341 209.42ZM113.805 212.5H116.085V201.48H113.805V212.5ZM114.965 200.02C115.765 200.02 116.405 199.38 116.405 198.56C116.405 197.74 115.765 197.1 114.965 197.1C114.145 197.1 113.505 197.74 113.505 198.56C113.505 199.38 114.145 200.02 114.965 200.02ZM129.578 206.98C129.578 203.52 127.098 201.3 123.958 201.3C120.818 201.3 118.338 203.52 118.338 206.98C118.338 210.44 120.718 212.68 123.858 212.68C127.018 212.68 129.578 210.44 129.578 206.98ZM120.658 206.98C120.658 204.48 122.198 203.28 123.918 203.28C125.618 203.28 127.238 204.48 127.238 206.98C127.238 209.48 125.558 210.7 123.858 210.7C122.138 210.7 120.658 209.48 120.658 206.98ZM139.652 212.5H141.912V206C141.912 202.92 139.972 201.3 137.392 201.3C136.072 201.3 134.852 201.84 134.112 202.74V201.48H131.832V212.5H134.112V206.34C134.112 204.32 135.212 203.28 136.892 203.28C138.552 203.28 139.652 204.32 139.652 206.34V212.5ZM144.06 206.94C144.06 210.34 146.36 212.68 149.22 212.68C151.06 212.68 152.38 211.8 153.08 210.86V212.5H155.38V201.48H153.08V203.08C152.4 202.18 151.12 201.3 149.26 201.3C146.36 201.3 144.06 203.54 144.06 206.94ZM153.08 206.98C153.08 209.36 151.46 210.7 149.74 210.7C148.04 210.7 146.4 209.32 146.4 206.94C146.4 204.56 148.04 203.28 149.74 203.28C151.46 203.28 153.08 204.62 153.08 206.98ZM158.375 212.5H160.655V197.7H158.375V212.5ZM176.524 198.58H168.844V212.5H176.524V210.64H171.124V206.38H175.924V204.52H171.124V200.44H176.524V198.58ZM179.692 209.44C179.692 211.68 180.912 212.5 182.872 212.5H184.672V210.6H183.272C182.312 210.6 181.992 210.26 181.992 209.44V203.34H184.672V201.48H181.992V198.74H179.692V201.48H178.392V203.34H179.692V209.44ZM186.773 212.5H189.053V206.34C189.053 204.32 190.153 203.28 191.833 203.28C193.493 203.28 194.593 204.32 194.593 206.34V212.5H196.853V206C196.853 202.92 194.933 201.3 192.473 201.3C191.053 201.3 189.813 201.84 189.053 202.76V197.7H186.773V212.5ZM199.762 212.5H202.042V201.48H199.762V212.5ZM200.922 200.02C201.722 200.02 202.362 199.38 202.362 198.56C202.362 197.74 201.722 197.1 200.922 197.1C200.102 197.1 199.462 197.74 199.462 198.56C199.462 199.38 200.102 200.02 200.922 200.02ZM204.275 206.98C204.275 210.44 206.515 212.68 209.675 212.68C212.375 212.68 214.135 211.18 214.755 209.02H212.295C211.875 210.16 211.035 210.76 209.675 210.76C207.835 210.76 206.615 209.4 206.615 206.98C206.615 204.58 207.835 203.22 209.675 203.22C211.035 203.22 211.915 203.9 212.295 204.96H214.755C214.135 202.64 212.375 201.3 209.675 201.3C206.515 201.3 204.275 203.54 204.275 206.98Z" fill="#212832"/>
<rect x="0.5" y="180.5" width="616" height="49" stroke="black" stroke-opacity="0.5"/>
<rect y="123" width="617" height="50" fill="white"/>
<path d="M24.6 151.44C26.08 151.44 27.24 150.3 27.24 148.84C27.24 147.36 26.08 146.22 24.6 146.22C23.16 146.22 22 147.36 22 148.84C22 150.3 23.16 151.44 24.6 151.44ZM42.7089 148.52C42.7089 145.38 44.7089 143.42 47.4689 143.42C50.2289 143.42 52.2289 145.38 52.2289 148.52C52.2289 151.66 50.2289 153.66 47.4689 153.66C44.7089 153.66 42.7089 151.66 42.7089 148.52ZM54.5689 148.52C54.5689 144.36 51.4289 141.42 47.4689 141.42C43.5489 141.42 40.3689 144.36 40.3689 148.52C40.3689 152.7 43.5489 155.64 47.4689 155.64C48.1689 155.64 48.8289 155.56 49.4489 155.38L51.8889 158.02H54.7889L51.4489 154.48C53.3489 153.26 54.5689 151.14 54.5689 148.52ZM66.8511 144.48H64.5711V150.62C64.5711 152.64 63.4711 153.68 61.7911 153.68C60.1311 153.68 59.0311 152.64 59.0311 150.62V144.48H56.7711V150.96C56.7711 154.04 58.7311 155.66 61.3111 155.66C62.6111 155.66 63.8511 155.12 64.5711 154.18V155.5H66.8511V144.48ZM69.0994 149.94C69.0994 153.34 71.3994 155.68 74.2594 155.68C76.0994 155.68 77.4194 154.8 78.1194 153.86V155.5H80.4194V144.48H78.1194V146.08C77.4394 145.18 76.1594 144.3 74.2994 144.3C71.3994 144.3 69.0994 146.54 69.0994 149.94ZM78.1194 149.98C78.1194 152.36 76.4994 153.7 74.7794 153.7C73.0794 153.7 71.4394 152.32 71.4394 149.94C71.4394 147.56 73.0794 146.28 74.7794 146.28C76.4994 146.28 78.1194 147.62 78.1194 149.98ZM91.2341 155.5H93.4941V149C93.4941 145.92 91.5541 144.3 88.9741 144.3C87.6541 144.3 86.4341 144.84 85.6941 145.74V144.48H83.4141V155.5H85.6941V149.34C85.6941 147.32 86.7941 146.28 88.4741 146.28C90.1341 146.28 91.2341 147.32 91.2341 149.34V155.5ZM96.7623 152.44C96.7623 154.68 97.9823 155.5 99.9423 155.5H101.742V153.6H100.342C99.3823 153.6 99.0623 153.26 99.0623 152.44V146.34H101.742V144.48H99.0623V141.74H96.7623V144.48H95.4623V146.34H96.7623V152.44ZM103.844 155.5H106.124V144.48H103.844V155.5ZM105.004 143.02C105.804 143.02 106.444 142.38 106.444 141.56C106.444 140.74 105.804 140.1 105.004 140.1C104.184 140.1 103.544 140.74 103.544 141.56C103.544 142.38 104.184 143.02 105.004 143.02ZM109.477 152.44C109.477 154.68 110.697 155.5 112.657 155.5H114.457V153.6H113.057C112.097 153.6 111.777 153.26 111.777 152.44V146.34H114.457V144.48H111.777V141.74H109.477V144.48H108.177V146.34H109.477V152.44ZM115.799 149.94C115.799 153.34 118.099 155.68 120.959 155.68C122.799 155.68 124.119 154.8 124.819 153.86V155.5H127.119V144.48H124.819V146.08C124.139 145.18 122.859 144.3 120.999 144.3C118.099 144.3 115.799 146.54 115.799 149.94ZM124.819 149.98C124.819 152.36 123.199 153.7 121.479 153.7C119.779 153.7 118.139 152.32 118.139 149.94C118.139 147.56 119.779 146.28 121.479 146.28C123.199 146.28 124.819 147.62 124.819 149.98ZM130.473 152.44C130.473 154.68 131.693 155.5 133.653 155.5H135.453V153.6H134.053C133.093 153.6 132.773 153.26 132.773 152.44V146.34H135.453V144.48H132.773V141.74H130.473V144.48H129.173V146.34H130.473V152.44ZM137.555 155.5H139.835V144.48H137.555V155.5ZM138.715 143.02C139.515 143.02 140.155 142.38 140.155 141.56C140.155 140.74 139.515 140.1 138.715 140.1C137.895 140.1 137.255 140.74 137.255 141.56C137.255 142.38 137.895 143.02 138.715 143.02ZM141.528 144.48L145.708 155.5H148.428L152.628 144.48H150.208L147.088 153.46L143.968 144.48H141.528ZM158.992 146.22C160.692 146.22 162.032 147.3 162.072 149H155.972C156.212 147.26 157.452 146.22 158.992 146.22ZM164.152 152.22H161.692C161.272 153.08 160.492 153.76 159.092 153.76C157.412 153.76 156.112 152.66 155.952 150.84H164.372C164.432 150.46 164.452 150.1 164.452 149.72C164.452 146.48 162.232 144.3 159.092 144.3C155.832 144.3 153.592 146.52 153.592 149.98C153.592 153.44 155.932 155.68 159.092 155.68C161.792 155.68 163.532 154.14 164.152 152.22ZM181.271 155.5H183.671L178.691 141.58H176.051L171.071 155.5H173.451L174.451 152.66H180.271L181.271 155.5ZM179.631 150.8H175.091L177.371 144.34L179.631 150.8ZM188.116 146.1V144.48H185.836V160.74H188.116V153.9C188.836 154.76 190.136 155.68 191.956 155.68C194.856 155.68 197.136 153.34 197.136 149.94C197.136 146.54 194.856 144.3 191.956 144.3C190.156 144.3 188.816 145.18 188.116 146.1ZM194.816 149.94C194.816 152.32 193.176 153.7 191.456 153.7C189.756 153.7 188.116 152.36 188.116 149.98C188.116 147.62 189.756 146.28 191.456 146.28C193.176 146.28 194.816 147.56 194.816 149.94ZM199.751 152.44C199.751 154.68 200.971 155.5 202.931 155.5H204.731V153.6H203.331C202.371 153.6 202.051 153.26 202.051 152.44V146.34H204.731V144.48H202.051V141.74H199.751V144.48H198.451V146.34H199.751V152.44ZM206.832 155.5H209.112V144.48H206.832V155.5ZM207.992 143.02C208.792 143.02 209.432 142.38 209.432 141.56C209.432 140.74 208.792 140.1 207.992 140.1C207.172 140.1 206.532 140.74 206.532 141.56C206.532 142.38 207.172 143.02 207.992 143.02ZM212.465 152.44C212.465 154.68 213.685 155.5 215.645 155.5H217.445V153.6H216.045C215.085 153.6 214.765 153.26 214.765 152.44V146.34H217.445V144.48H214.765V141.74H212.465V144.48H211.165V146.34H212.465V152.44ZM229.527 144.48H227.247V150.62C227.247 152.64 226.147 153.68 224.467 153.68C222.807 153.68 221.707 152.64 221.707 150.62V144.48H219.447V150.96C219.447 154.04 221.407 155.66 223.987 155.66C225.287 155.66 226.527 155.12 227.247 154.18V155.5H229.527V144.48ZM231.775 149.94C231.775 153.34 234.075 155.68 236.975 155.68C238.775 155.68 240.095 154.84 240.795 153.84V155.5H243.095V140.7H240.795V146.02C239.955 144.98 238.435 144.3 236.995 144.3C234.075 144.3 231.775 146.54 231.775 149.94ZM240.795 149.98C240.795 152.36 239.175 153.7 237.455 153.7C235.755 153.7 234.115 152.32 234.115 149.94C234.115 147.56 235.755 146.28 237.455 146.28C239.175 146.28 240.795 147.62 240.795 149.98ZM250.73 146.22C252.43 146.22 253.77 147.3 253.81 149H247.71C247.95 147.26 249.19 146.22 250.73 146.22ZM255.89 152.22H253.43C253.01 153.08 252.23 153.76 250.83 153.76C249.15 153.76 247.85 152.66 247.69 150.84H256.11C256.17 150.46 256.19 150.1 256.19 149.72C256.19 146.48 253.97 144.3 250.83 144.3C247.57 144.3 245.33 146.52 245.33 149.98C245.33 153.44 247.67 155.68 250.83 155.68C253.53 155.68 255.27 154.14 255.89 152.22Z" fill="#212832"/>
<rect x="0.5" y="123.5" width="616" height="49" stroke="black" stroke-opacity="0.5"/>
<rect y="237" width="617" height="50" fill="white"/>
<path d="M24.6 265.44C26.08 265.44 27.24 264.3 27.24 262.84C27.24 261.36 26.08 260.22 24.6 260.22C23.16 260.22 22 261.36 22 262.84C22 264.3 23.16 265.44 24.6 265.44ZM50.5089 265.56C50.5089 260.48 43.1489 262.44 43.1489 259.3C43.1489 257.96 44.1689 257.32 45.4889 257.36C46.9289 257.4 47.7489 258.26 47.8289 259.2H50.3489C50.1489 256.82 48.2689 255.42 45.6089 255.42C42.7689 255.42 40.8289 256.94 40.8289 259.38C40.8289 264.5 48.2089 262.32 48.2089 265.68C48.2089 266.86 47.3089 267.72 45.7089 267.72C44.1289 267.72 43.3289 266.8 43.2289 265.66H40.7889C40.7889 268.12 42.9289 269.64 45.7089 269.64C48.8089 269.64 50.5089 267.64 50.5089 265.56ZM57.8392 260.22C59.5392 260.22 60.8792 261.3 60.9192 263H54.8192C55.0592 261.26 56.2992 260.22 57.8392 260.22ZM62.9992 266.22H60.5392C60.1192 267.08 59.3392 267.76 57.9392 267.76C56.2592 267.76 54.9592 266.66 54.7992 264.84H63.2192C63.2792 264.46 63.2992 264.1 63.2992 263.72C63.2992 260.48 61.0792 258.3 57.9392 258.3C54.6792 258.3 52.4392 260.52 52.4392 263.98C52.4392 267.44 54.7792 269.68 57.9392 269.68C60.6392 269.68 62.3792 268.14 62.9992 266.22ZM81.163 269.5H83.423V263C83.423 259.92 81.463 258.3 78.883 258.3C77.283 258.3 75.723 259.14 75.043 260.48C74.283 259.04 72.823 258.3 71.083 258.3C69.763 258.3 68.563 258.84 67.823 259.74V258.48H65.543V269.5H67.823V263.34C67.823 261.32 68.923 260.28 70.603 260.28C72.263 260.28 73.363 261.32 73.363 263.34V269.5H75.623V263.34C75.623 261.32 76.723 260.28 78.403 260.28C80.063 260.28 81.163 261.32 81.163 263.34V269.5ZM86.3242 269.5H88.6042V258.48H86.3242V269.5ZM87.4842 257.02C88.2842 257.02 88.9242 256.38 88.9242 255.56C88.9242 254.74 88.2842 254.1 87.4842 254.1C86.6642 254.1 86.0242 254.74 86.0242 255.56C86.0242 256.38 86.6642 257.02 87.4842 257.02ZM99.4177 269.5H101.678V263C101.678 259.92 99.7377 258.3 97.1577 258.3C95.8377 258.3 94.6177 258.84 93.8777 259.74V258.48H91.5977V269.5H93.8777V263.34C93.8777 261.32 94.9777 260.28 96.6577 260.28C98.3177 260.28 99.4177 261.32 99.4177 263.34V269.5ZM103.826 263.94C103.826 267.34 106.126 269.68 108.986 269.68C110.826 269.68 112.146 268.8 112.846 267.86V269.5H115.146V258.48H112.846V260.08C112.166 259.18 110.886 258.3 109.026 258.3C106.126 258.3 103.826 260.54 103.826 263.94ZM112.846 263.98C112.846 266.36 111.226 267.7 109.506 267.7C107.806 267.7 106.166 266.32 106.166 263.94C106.166 261.56 107.806 260.28 109.506 260.28C111.226 260.28 112.846 261.62 112.846 263.98ZM120.421 263.7C120.421 261.36 121.461 260.66 123.141 260.66H123.721V258.3C122.161 258.3 121.061 258.98 120.421 260.08V258.48H118.141V269.5H120.421V263.7ZM138.412 273.22V273C135.612 270.12 134.192 266.18 134.192 262.22C134.192 258.26 135.612 253.98 138.812 251.04V250.82H136.452C133.412 253.52 131.992 257.86 131.992 262.22C131.992 266.58 133.412 270.68 136.052 273.22H138.412ZM148.535 255.58H140.855V269.5H148.535V267.64H143.135V263.38H147.935V261.52H143.135V257.44H148.535V255.58ZM150.044 258.48L154.224 269.5H156.944L161.144 258.48H158.724L155.604 267.46L152.484 258.48H150.044ZM162.107 263.94C162.107 267.34 164.407 269.68 167.267 269.68C169.107 269.68 170.427 268.8 171.127 267.86V269.5H173.427V258.48H171.127V260.08C170.447 259.18 169.167 258.3 167.307 258.3C164.407 258.3 162.107 260.54 162.107 263.94ZM171.127 263.98C171.127 266.36 169.507 267.7 167.787 267.7C166.087 267.7 164.447 266.32 164.447 263.94C164.447 261.56 166.087 260.28 167.787 260.28C169.507 260.28 171.127 261.62 171.127 263.98ZM176.422 269.5H178.702V254.7H176.422V269.5ZM191.675 258.48H189.395V264.62C189.395 266.64 188.295 267.68 186.615 267.68C184.955 267.68 183.855 266.64 183.855 264.62V258.48H181.595V264.96C181.595 268.04 183.555 269.66 186.135 269.66C187.435 269.66 188.675 269.12 189.395 268.18V269.5H191.675V258.48ZM193.924 263.94C193.924 267.34 196.224 269.68 199.084 269.68C200.924 269.68 202.244 268.8 202.944 267.86V269.5H205.244V258.48H202.944V260.08C202.264 259.18 200.984 258.3 199.124 258.3C196.224 258.3 193.924 260.54 193.924 263.94ZM202.944 263.98C202.944 266.36 201.324 267.7 199.604 267.7C197.904 267.7 196.264 266.32 196.264 263.94C196.264 261.56 197.904 260.28 199.604 260.28C201.324 260.28 202.944 261.62 202.944 263.98ZM208.598 266.44C208.598 268.68 209.818 269.5 211.778 269.5H213.578V267.6H212.178C211.218 267.6 210.898 267.26 210.898 266.44V260.34H213.578V258.48H210.898V255.74H208.598V258.48H207.298V260.34H208.598V266.44ZM215.68 269.5H217.96V258.48H215.68V269.5ZM216.84 257.02C217.64 257.02 218.28 256.38 218.28 255.56C218.28 254.74 217.64 254.1 216.84 254.1C216.02 254.1 215.38 254.74 215.38 255.56C215.38 256.38 216.02 257.02 216.84 257.02ZM231.453 263.98C231.453 260.52 228.973 258.3 225.833 258.3C222.693 258.3 220.213 260.52 220.213 263.98C220.213 267.44 222.593 269.68 225.733 269.68C228.893 269.68 231.453 267.44 231.453 263.98ZM222.533 263.98C222.533 261.48 224.073 260.28 225.793 260.28C227.493 260.28 229.113 261.48 229.113 263.98C229.113 266.48 227.433 267.7 225.733 267.7C224.013 267.7 222.533 266.48 222.533 263.98ZM241.527 269.5H243.787V263C243.787 259.92 241.847 258.3 239.267 258.3C237.947 258.3 236.727 258.84 235.987 259.74V258.48H233.707V269.5H235.987V263.34C235.987 261.32 237.087 260.28 238.767 260.28C240.427 260.28 241.527 261.32 241.527 263.34V269.5ZM246.135 273.22V273C248.935 270.12 250.355 266.18 250.355 262.22C250.355 258.26 248.935 253.98 245.735 251.04V250.82H248.095C251.135 253.52 252.555 257.86 252.555 262.22C252.555 266.58 251.135 270.68 248.495 273.22H246.135Z" fill="#212832"/>
<rect x="0.5" y="237.5" width="616" height="49" stroke="black" stroke-opacity="0.5"/>
</svg>
