<svg width="1240" height="125" viewBox="0 0 1240 125" fill="none" xmlns="http://www.w3.org/2000/svg">
<path d="M918.48 94.92C918.48 98.46 920.96 100.14 923.88 100.14C926.78 100.14 929.34 98.46 929.34 94.92V86.1H927.06V94.96C927.06 97.12 925.84 98.14 923.9 98.14C921.98 98.14 920.76 97.12 920.76 94.96V86.1H918.48V94.92ZM938.649 85.92C934.729 85.92 931.549 88.86 931.549 93.02C931.549 97.2 934.729 100.12 938.649 100.12C942.389 100.12 945.109 97.38 945.529 94.16V92.38H937.869V94.2H943.089C942.749 96.54 941.169 98.06 938.649 98.06C935.889 98.06 933.889 96.08 933.889 93.02C933.889 89.96 935.889 88 938.649 88C940.309 88 941.629 88.7 942.369 90.1H945.109C944.049 87.38 941.549 85.92 938.649 85.92ZM947.017 93.02C947.017 97.2 950.197 100.12 954.117 100.12C957.017 100.12 959.517 98.68 960.577 95.96H957.837C957.097 97.44 955.777 98.14 954.117 98.14C951.357 98.14 949.357 96.16 949.357 93.02C949.357 89.88 951.357 87.92 954.117 87.92C955.777 87.92 957.097 88.62 957.837 90.1H960.577C959.517 87.38 957.017 85.92 954.117 85.92C950.197 85.92 947.017 88.86 947.017 93.02ZM969.041 83.98V102.26H971.321V83.98H969.041ZM984.661 86.1H980.121V100H984.661C989.121 100 992.041 97.38 992.041 93.1C992.041 88.8 989.121 86.1 984.661 86.1ZM982.401 98.14V87.96H984.661C987.941 87.96 989.701 89.92 989.701 93.1C989.701 96.26 987.941 98.14 984.661 98.14H982.401ZM1001.98 86.08H994.301V100H1001.98V98.14H996.581V93.88H1001.38V92.02H996.581V87.94H1001.98V86.08ZM1012.63 96.02C1012.63 97.36 1011.69 98.14 1010.15 98.14H1007.07V93.8H1010.07C1011.59 93.8 1012.63 94.64 1012.63 96.02ZM1012.27 89.96C1012.27 91.24 1011.37 91.94 1009.89 91.94H1007.07V87.96H1009.89C1011.37 87.96 1012.27 88.7 1012.27 89.96ZM1014.91 96.26C1014.91 94.6 1013.71 93.12 1012.23 92.86C1013.57 92.38 1014.59 91.36 1014.59 89.68C1014.59 87.72 1013.03 86.1 1010.09 86.1H1004.79V100H1010.35C1013.19 100 1014.91 98.38 1014.91 96.26ZM1023.18 83.98V102.26H1025.46V83.98H1023.18ZM1043.64 100H1046.04L1041.06 86.08H1038.42L1033.44 100H1035.82L1036.82 97.16H1042.64L1043.64 100ZM1042 95.3H1037.46L1039.74 88.84L1042 95.3ZM1048.21 100H1050.49V86.1H1048.21V100ZM1052.72 93.02C1052.72 97.2 1055.9 100.12 1059.82 100.12C1062.72 100.12 1065.22 98.68 1066.28 95.96H1063.54C1062.8 97.44 1061.48 98.14 1059.82 98.14C1057.06 98.14 1055.06 96.16 1055.06 93.02C1055.06 89.88 1057.06 87.92 1059.82 87.92C1061.48 87.92 1062.8 88.62 1063.54 90.1H1066.28C1065.22 87.38 1062.72 85.92 1059.82 85.92C1055.9 85.92 1052.72 88.86 1052.72 93.02ZM1068.23 87.96H1071.95V100H1074.23V87.96H1077.93V86.1H1068.23V87.96ZM1087.92 86.08H1080.24V100H1087.92V98.14H1082.52V93.88H1087.32V92.02H1082.52V87.94H1087.92V86.08ZM1096.52 83.98V102.26H1098.8V83.98H1096.52ZM1116.74 86.08V96.44L1109.88 86.08H1107.6V100H1109.88V89.62L1116.74 100H1119.02V86.08H1116.74ZM1131.4 100H1133.8L1128.82 86.08H1126.18L1121.2 100H1123.58L1124.58 97.16H1130.4L1131.4 100ZM1129.76 95.3H1125.22L1127.5 88.84L1129.76 95.3ZM1145.34 100H1147.74L1142.76 86.08H1140.12L1135.14 100H1137.52L1138.52 97.16H1144.34L1145.34 100ZM1143.7 95.3H1139.16L1141.44 88.84L1143.7 95.3ZM1149.15 93.02C1149.15 97.2 1152.33 100.12 1156.25 100.12C1159.15 100.12 1161.65 98.68 1162.71 95.96H1159.97C1159.23 97.44 1157.91 98.14 1156.25 98.14C1153.49 98.14 1151.49 96.16 1151.49 93.02C1151.49 89.88 1153.49 87.92 1156.25 87.92C1157.91 87.92 1159.23 88.62 1159.97 90.1H1162.71C1161.65 87.38 1159.15 85.92 1156.25 85.92C1152.33 85.92 1149.15 88.86 1149.15 93.02Z" fill="black" fill-opacity="0.8"/>
<rect x="840.5" y="60.5" width="399" height="64" stroke="#3498DB"/>
<path d="M528.5 100H530.78V90.48L535.04 100H536.62L540.86 90.48V100H543.14V86.1H540.7L535.84 97L530.96 86.1H528.5V100ZM546.137 100H548.417V88.98H546.137V100ZM547.297 87.52C548.097 87.52 548.737 86.88 548.737 86.06C548.737 85.24 548.097 84.6 547.297 84.6C546.477 84.6 545.837 85.24 545.837 86.06C545.837 86.88 546.477 87.52 547.297 87.52ZM559.23 100H561.49V93.5C561.49 90.42 559.55 88.8 556.97 88.8C555.65 88.8 554.43 89.34 553.69 90.24V88.98H551.41V100H553.69V93.84C553.69 91.82 554.79 90.78 556.47 90.78C558.13 90.78 559.23 91.82 559.23 93.84V100ZM569.114 99.8H578.834V97.9H572.494C574.834 95.76 578.434 93.06 578.434 89.52C578.434 86.9 576.754 85.12 573.794 85.12C571.214 85.12 569.174 86.66 569.094 89.82H571.294C571.354 88.18 572.214 87.06 573.814 87.06C575.514 87.06 576.174 88.1 576.174 89.62C576.174 92.48 572.554 95.12 569.114 98.14V99.8ZM579.737 102.78H581.217L583.637 97.26H581.157L579.737 102.78ZM590.824 100H593.104V90.48L597.364 100H598.944L603.184 90.48V100H605.464V86.1H603.024L598.164 97L593.284 86.1H590.824V100ZM607.701 94.44C607.701 97.84 610.001 100.18 612.861 100.18C614.701 100.18 616.021 99.3 616.721 98.36V100H619.021V88.98H616.721V90.58C616.041 89.68 614.761 88.8 612.901 88.8C610.001 88.8 607.701 91.04 607.701 94.44ZM616.721 94.48C616.721 96.86 615.101 98.2 613.381 98.2C611.681 98.2 610.041 96.82 610.041 94.44C610.041 92.06 611.681 90.78 613.381 90.78C615.101 90.78 616.721 92.12 616.721 94.48ZM627.716 100H630.296L626.736 94.42L630.296 88.98H627.916L625.676 92.72L623.296 88.98H620.716L624.276 94.58L620.716 100H623.096L625.336 96.26L627.716 100ZM643.851 100H646.091V96.96H647.951V94.98H646.091V85.6H643.331L636.611 95.24V96.96H643.851V100ZM639.231 94.98L643.951 87.92V94.98H639.231ZM658.756 94.96V100H661.036V94.96L665.636 86.1H663.116L659.896 92.92L656.676 86.1H654.136L658.756 94.96ZM672.085 90.72C673.785 90.72 675.125 91.8 675.165 93.5H669.065C669.305 91.76 670.545 90.72 672.085 90.72ZM677.245 96.72H674.785C674.365 97.58 673.585 98.26 672.185 98.26C670.505 98.26 669.205 97.16 669.045 95.34H677.465C677.525 94.96 677.545 94.6 677.545 94.22C677.545 90.98 675.325 88.8 672.185 88.8C668.925 88.8 666.685 91.02 666.685 94.48C666.685 97.94 669.025 100.18 672.185 100.18C674.885 100.18 676.625 98.64 677.245 96.72ZM679.029 94.44C679.029 97.84 681.329 100.18 684.189 100.18C686.029 100.18 687.349 99.3 688.049 98.36V100H690.349V88.98H688.049V90.58C687.369 89.68 686.089 88.8 684.229 88.8C681.329 88.8 679.029 91.04 679.029 94.44ZM688.049 94.48C688.049 96.86 686.429 98.2 684.709 98.2C683.009 98.2 681.369 96.82 681.369 94.44C681.369 92.06 683.009 90.78 684.709 90.78C686.429 90.78 688.049 92.12 688.049 94.48ZM695.624 94.2C695.624 91.86 696.664 91.16 698.344 91.16H698.924V88.8C697.364 88.8 696.264 89.48 695.624 90.58V88.98H693.344V100H695.624V94.2ZM709.24 96.92C709.12 92.94 702.9 94.18 702.9 91.96C702.9 91.22 703.54 90.72 704.76 90.72C706 90.72 706.74 91.38 706.82 92.34H709.1C708.98 90.14 707.34 88.8 704.84 88.8C702.24 88.8 700.6 90.22 700.6 91.98C700.6 96.02 707 94.78 707 96.94C707 97.7 706.3 98.26 704.98 98.26C703.72 98.26 702.86 97.52 702.78 96.62H700.42C700.52 98.62 702.38 100.18 705.02 100.18C707.62 100.18 709.24 98.78 709.24 96.92Z" fill="black" fill-opacity="0.8"/>
<rect x="419.5" y="60.5" width="399" height="64" stroke="#E74C3C"/>
<rect x="0.5" y="0.5" width="399" height="59" fill="#9B59B6" stroke="#9B59B6"/>
<rect x="419.5" y="0.5" width="399" height="59" fill="#E74C3C" stroke="#E74C3C"/>
<rect x="840.5" y="0.5" width="399" height="59" fill="#3498DB" stroke="#3498DB"/>
<path d="M103.84 85.92C99.92 85.92 96.74 88.86 96.74 93.02C96.74 97.2 99.92 100.12 103.84 100.12C107.58 100.12 110.3 97.38 110.72 94.16V92.38H103.06V94.2H108.28C107.94 96.54 106.36 98.06 103.84 98.06C101.08 98.06 99.08 96.08 99.08 93.02C99.08 89.96 101.08 88 103.84 88C105.5 88 106.82 88.7 107.56 90.1H110.3C109.24 87.38 106.74 85.92 103.84 85.92ZM115.249 94.2C115.249 91.86 116.289 91.16 117.969 91.16H118.549V88.8C116.989 88.8 115.889 89.48 115.249 90.58V88.98H112.969V100H115.249V94.2ZM119.885 94.44C119.885 97.84 122.185 100.18 125.045 100.18C126.885 100.18 128.205 99.3 128.905 98.36V100H131.205V88.98H128.905V90.58C128.225 89.68 126.945 88.8 125.085 88.8C122.185 88.8 119.885 91.04 119.885 94.44ZM128.905 94.48C128.905 96.86 127.285 98.2 125.565 98.2C123.865 98.2 122.225 96.82 122.225 94.44C122.225 92.06 123.865 90.78 125.565 90.78C127.285 90.78 128.905 92.12 128.905 94.48ZM133.439 94.44C133.439 97.84 135.739 100.18 138.639 100.18C140.439 100.18 141.759 99.34 142.459 98.34V100H144.759V85.2H142.459V90.52C141.619 89.48 140.099 88.8 138.659 88.8C135.739 88.8 133.439 91.04 133.439 94.44ZM142.459 94.48C142.459 96.86 140.839 98.2 139.119 98.2C137.419 98.2 135.779 96.82 135.779 94.44C135.779 92.06 137.419 90.78 139.119 90.78C140.839 90.78 142.459 92.12 142.459 94.48ZM157.734 88.98H155.454V95.12C155.454 97.14 154.354 98.18 152.674 98.18C151.014 98.18 149.914 97.14 149.914 95.12V88.98H147.654V95.46C147.654 98.54 149.614 100.16 152.194 100.16C153.494 100.16 154.734 99.62 155.454 98.68V100H157.734V88.98ZM159.982 94.44C159.982 97.84 162.282 100.18 165.142 100.18C166.982 100.18 168.302 99.3 169.002 98.36V100H171.302V88.98H169.002V90.58C168.322 89.68 167.042 88.8 165.182 88.8C162.282 88.8 159.982 91.04 159.982 94.44ZM169.002 94.48C169.002 96.86 167.382 98.2 165.662 98.2C163.962 98.2 162.322 96.82 162.322 94.44C162.322 92.06 163.962 90.78 165.662 90.78C167.382 90.78 169.002 92.12 169.002 94.48ZM174.657 96.94C174.657 99.18 175.877 100 177.837 100H179.637V98.1H178.237C177.277 98.1 176.957 97.76 176.957 96.94V90.84H179.637V88.98H176.957V86.24H174.657V88.98H173.357V90.84H174.657V96.94ZM181.738 100H184.018V88.98H181.738V100ZM182.898 87.52C183.698 87.52 184.338 86.88 184.338 86.06C184.338 85.24 183.698 84.6 182.898 84.6C182.078 84.6 181.438 85.24 181.438 86.06C181.438 86.88 182.078 87.52 182.898 87.52ZM197.512 94.48C197.512 91.02 195.032 88.8 191.892 88.8C188.752 88.8 186.272 91.02 186.272 94.48C186.272 97.94 188.652 100.18 191.792 100.18C194.952 100.18 197.512 97.94 197.512 94.48ZM188.592 94.48C188.592 91.98 190.132 90.78 191.852 90.78C193.552 90.78 195.172 91.98 195.172 94.48C195.172 96.98 193.492 98.2 191.792 98.2C190.072 98.2 188.592 96.98 188.592 94.48ZM207.586 100H209.846V93.5C209.846 90.42 207.906 88.8 205.326 88.8C204.006 88.8 202.786 89.34 202.046 90.24V88.98H199.766V100H202.046V93.84C202.046 91.82 203.146 90.78 204.826 90.78C206.486 90.78 207.586 91.82 207.586 93.84V100ZM220.229 90.6V88.98H217.949V105.24H220.229V98.4C220.949 99.26 222.249 100.18 224.069 100.18C226.969 100.18 229.249 97.84 229.249 94.44C229.249 91.04 226.969 88.8 224.069 88.8C222.269 88.8 220.929 89.68 220.229 90.6ZM226.929 94.44C226.929 96.82 225.289 98.2 223.569 98.2C221.869 98.2 220.229 96.86 220.229 94.48C220.229 92.12 221.869 90.78 223.569 90.78C225.289 90.78 226.929 92.06 226.929 94.44ZM230.744 94.44C230.744 97.84 233.044 100.18 235.904 100.18C237.744 100.18 239.064 99.3 239.764 98.36V100H242.064V88.98H239.764V90.58C239.084 89.68 237.804 88.8 235.944 88.8C233.044 88.8 230.744 91.04 230.744 94.44ZM239.764 94.48C239.764 96.86 238.144 98.2 236.424 98.2C234.724 98.2 233.084 96.82 233.084 94.44C233.084 92.06 234.724 90.78 236.424 90.78C238.144 90.78 239.764 92.12 239.764 94.48ZM253.279 96.92C253.159 92.94 246.939 94.18 246.939 91.96C246.939 91.22 247.579 90.72 248.799 90.72C250.039 90.72 250.779 91.38 250.859 92.34H253.139C253.019 90.14 251.379 88.8 248.879 88.8C246.279 88.8 244.639 90.22 244.639 91.98C244.639 96.02 251.039 94.78 251.039 96.94C251.039 97.7 250.339 98.26 249.019 98.26C247.759 98.26 246.899 97.52 246.819 96.62H244.459C244.559 98.62 246.419 100.18 249.059 100.18C251.659 100.18 253.279 98.78 253.279 96.92ZM263.962 96.92C263.842 92.94 257.622 94.18 257.622 91.96C257.622 91.22 258.262 90.72 259.482 90.72C260.722 90.72 261.462 91.38 261.542 92.34H263.822C263.702 90.14 262.062 88.8 259.562 88.8C256.962 88.8 255.322 90.22 255.322 91.98C255.322 96.02 261.722 94.78 261.722 96.94C261.722 97.7 261.022 98.26 259.702 98.26C258.442 98.26 257.582 97.52 257.502 96.62H255.142C255.242 98.62 257.102 100.18 259.742 100.18C262.342 100.18 263.962 98.78 263.962 96.92ZM282.121 94.48C282.121 91.02 279.641 88.8 276.501 88.8C273.361 88.8 270.881 91.02 270.881 94.48C270.881 97.94 273.261 100.18 276.401 100.18C279.561 100.18 282.121 97.94 282.121 94.48ZM273.201 94.48C273.201 91.98 274.741 90.78 276.461 90.78C278.161 90.78 279.781 91.98 279.781 94.48C279.781 96.98 278.101 98.2 276.401 98.2C274.681 98.2 273.201 96.98 273.201 94.48ZM294.355 88.98H292.075V95.12C292.075 97.14 290.975 98.18 289.295 98.18C287.635 98.18 286.535 97.14 286.535 95.12V88.98H284.275V95.46C284.275 98.54 286.235 100.16 288.815 100.16C290.115 100.16 291.355 99.62 292.075 98.68V100H294.355V88.98ZM297.723 96.94C297.723 99.18 298.943 100 300.903 100H302.703V98.1H301.303C300.343 98.1 300.023 97.76 300.023 96.94V90.84H302.703V88.98H300.023V86.24H297.723V88.98H296.423V90.84H297.723V96.94Z" fill="black" fill-opacity="0.8"/>
<rect x="0.5" y="60.5" width="399" height="64" stroke="#9B59B6"/>
<path d="M173.139 21.6H163.539V39H173.139V36.675H166.389V31.35H172.389V29.025H166.389V23.925H173.139V21.6ZM177.149 39H179.999V20.5H177.149V39ZM184.241 39H187.091V25.225H184.241V39ZM185.691 23.4C186.691 23.4 187.491 22.6 187.491 21.575C187.491 20.55 186.691 19.75 185.691 19.75C184.666 19.75 183.866 20.55 183.866 21.575C183.866 22.6 184.666 23.4 185.691 23.4ZM190.383 32.05C190.383 36.3 193.258 39.225 196.883 39.225C199.133 39.225 200.783 38.1 201.658 36.925V39.225C201.658 41.975 200.008 43.325 197.808 43.325C195.833 43.325 194.308 42.35 193.883 40.925H191.058C191.408 43.975 194.133 45.8 197.808 45.8C202.108 45.8 204.533 42.975 204.533 39.225V25.225H201.658V27.225C200.808 26.05 199.133 25 196.883 25C193.258 25 190.383 27.8 190.383 32.05ZM201.658 32.1C201.658 35.075 199.633 36.75 197.483 36.75C195.358 36.75 193.308 35.025 193.308 32.05C193.308 29.075 195.358 27.475 197.483 27.475C199.633 27.475 201.658 29.15 201.658 32.1ZM208.776 39H211.626V25.225H208.776V39ZM210.226 23.4C211.226 23.4 212.026 22.6 212.026 21.575C212.026 20.55 211.226 19.75 210.226 19.75C209.201 19.75 208.401 20.55 208.401 21.575C208.401 22.6 209.201 23.4 210.226 23.4ZM218.718 27.275V20.5H215.868V39H218.718V37C219.618 38.2 221.243 39.225 223.518 39.225C227.143 39.225 229.993 36.3 229.993 32.05C229.993 27.8 227.168 25 223.518 25C221.343 25 219.618 26.025 218.718 27.275ZM227.093 32.05C227.093 35.025 225.043 36.75 222.893 36.75C220.768 36.75 218.718 35.075 218.718 32.1C218.718 29.15 220.768 27.475 222.893 27.475C225.043 27.475 227.093 29.075 227.093 32.05ZM233.312 39H236.162V25.225H233.312V39ZM234.762 23.4C235.762 23.4 236.562 22.6 236.562 21.575C236.562 20.55 235.762 19.75 234.762 19.75C233.737 19.75 232.937 20.55 232.937 21.575C232.937 22.6 233.737 23.4 234.762 23.4ZM240.403 39H243.253V20.5H240.403V39ZM247.495 39H250.345V25.225H247.495V39ZM248.945 23.4C249.945 23.4 250.745 22.6 250.745 21.575C250.745 20.55 249.945 19.75 248.945 19.75C247.92 19.75 247.12 20.55 247.12 21.575C247.12 22.6 247.92 23.4 248.945 23.4ZM255.037 35.175C255.037 37.975 256.562 39 259.012 39H261.262V36.625H259.512C258.312 36.625 257.912 36.2 257.912 35.175V27.55H261.262V25.225H257.912V21.8H255.037V25.225H253.412V27.55H255.037V35.175ZM269.814 35.725L265.939 25.225H262.764L268.189 38.775L265.389 45.475H268.339L276.789 25.225H273.839L269.814 35.725Z" fill="white"/>
<path d="M137.637 15C138.275 15.15 138.845 15.4125 139.235 15.9675C139.797 16.7774 139.88 17.6324 139.4 18.5024C138.92 19.3798 138.14 19.7998 137.142 19.7173C136.16 19.6348 135.455 19.1098 135.125 18.1799C134.622 16.7549 135.44 15.36 136.925 15.0525C136.962 15.045 137 15.0225 137.03 15.0075C137.24 15 137.435 15 137.637 15ZM137.33 18.8323C138.14 18.8323 138.8 18.1799 138.8 17.3699C138.807 16.5674 138.147 15.9 137.345 15.9C136.542 15.9 135.875 16.5599 135.875 17.3624C135.867 18.1724 136.527 18.8323 137.33 18.8323Z" fill="white"/>
<path d="M122.007 30.0294C122.157 29.4069 122.42 28.8594 122.945 28.4469C123.987 27.6295 125.592 27.892 126.342 29.0169C127.085 30.1344 126.732 31.7093 125.585 32.3543C124.13 33.1793 122.412 32.4068 122.052 30.7643C122.045 30.7194 122.022 30.6744 122 30.6219C122.007 30.4269 122.007 30.2319 122.007 30.0294ZM125.84 30.3369C125.84 29.5269 125.187 28.8669 124.377 28.8669C123.575 28.8594 122.907 29.5269 122.9 30.3294C122.9 31.1318 123.56 31.7993 124.362 31.7993C125.18 31.7993 125.84 31.1393 125.84 30.3369Z" fill="white"/>
<path d="M139.881 30.7117C138.696 32.7442 135.951 32.6767 134.796 30.6967C134.256 30.9217 133.694 31.1167 133.169 31.4017C132.659 31.6792 132.494 32.1892 132.494 32.7517C132.494 33.9516 132.494 35.1441 132.494 36.344C132.494 36.809 132.351 37.0265 132.051 37.0265C131.751 37.0265 131.594 36.794 131.594 36.344C131.594 35.1591 131.594 33.9666 131.594 32.7817C131.594 31.5742 132.141 30.7867 133.259 30.3443C133.836 30.1193 134.406 29.8868 134.984 29.6768C135.299 29.5643 135.456 29.3618 135.434 29.0243C135.434 28.9718 135.426 28.9268 135.434 28.8743C135.471 28.4393 135.396 28.0644 135.066 27.7119C134.639 27.2544 134.504 26.6469 134.474 26.0244C134.466 25.9119 134.444 25.7844 134.384 25.6869C133.379 24.082 134.414 21.7871 136.626 21.7346C137.369 21.7196 138.118 21.6446 138.853 21.8771C140.383 22.3646 141.103 24.172 140.331 25.5745C140.241 25.7319 140.181 25.9269 140.173 26.1069C140.128 26.8569 139.858 27.4944 139.341 28.0419C139.273 28.1094 139.228 28.2293 139.221 28.3268C139.206 28.5743 139.221 28.8218 139.213 29.0768C139.206 29.3768 139.348 29.5643 139.618 29.6693C140.203 29.8943 140.788 30.1193 141.373 30.3518C142.513 30.7942 143.053 31.5817 143.053 32.8042C143.053 33.9891 143.053 35.1816 143.053 36.3665C143.053 36.4265 143.053 36.4865 143.053 36.5465C143.023 36.8465 142.836 37.0415 142.588 37.034C142.333 37.0265 142.161 36.839 142.161 36.524C142.153 35.774 142.161 35.0241 142.161 34.2816C142.161 33.7641 142.161 33.2466 142.161 32.7217C142.153 31.9942 141.823 31.4917 141.141 31.2217C140.728 31.0342 140.301 30.8692 139.881 30.7117ZM139.723 24.592C139.896 23.692 139.266 22.7696 138.366 22.6646C137.759 22.5896 137.129 22.5896 136.514 22.6346C135.576 22.7021 134.976 23.3545 134.916 24.262C134.901 24.4345 134.901 24.5695 135.119 24.667C135.246 24.7195 135.344 24.937 135.366 25.0945C135.404 25.357 135.381 25.6345 135.381 25.8969C135.381 27.4344 136.739 28.2293 137.923 27.8619C138.771 27.5994 139.266 26.8569 139.296 25.8669C139.303 25.567 139.243 25.447 138.913 25.3945C137.968 25.2595 137.084 24.922 136.229 24.5095C135.966 24.382 135.869 24.1195 135.981 23.887C136.086 23.6695 136.334 23.587 136.596 23.692C136.769 23.7595 136.941 23.8495 137.114 23.9245C137.946 24.2845 138.801 24.532 139.723 24.592ZM136.349 28.7243C136.386 29.3768 136.274 29.9693 135.659 30.3443C136.071 30.9742 136.626 31.3117 137.361 31.3042C138.081 31.2967 138.628 30.9667 139.026 30.3368C138.396 29.9618 138.306 29.3468 138.336 28.7168C137.968 28.7618 137.661 28.8293 137.346 28.8293C137.024 28.8443 136.709 28.7693 136.349 28.7243Z" fill="white"/>
<path d="M125.004 33.7343C125.229 33.7343 125.326 33.9292 125.424 34.1542C125.746 34.9267 126.031 35.7217 126.436 36.4491C127.981 39.2165 130.283 41.114 133.276 42.1639C133.373 42.1939 133.463 42.2239 133.561 42.2614C133.868 42.3814 133.996 42.5989 133.913 42.8614C133.831 43.1089 133.576 43.2214 133.276 43.1089C132.788 42.9364 132.293 42.7714 131.828 42.5539C128.251 40.8815 125.829 38.1741 124.576 34.4317C124.546 34.3492 124.524 34.2592 124.524 34.1692C124.516 33.9217 124.704 33.7343 125.004 33.7343Z" fill="white"/>
<path d="M150.203 34.1092C150.083 34.4766 150.001 34.7766 149.881 35.0616C148.291 39.044 145.478 41.7289 141.414 43.1013C141.099 43.2063 140.851 43.1163 140.761 42.8763C140.656 42.5988 140.791 42.3663 141.151 42.2538C142.674 41.7589 144.061 41.0089 145.298 39.9889C147.121 38.474 148.418 36.5916 149.191 34.3492C149.236 34.2067 149.288 34.0642 149.356 33.9367C149.468 33.7492 149.663 33.6817 149.843 33.7642C149.986 33.8317 150.091 33.9967 150.203 34.1092Z" fill="white"/>
<path d="M124.966 26.9243C124.628 26.9243 124.448 26.6319 124.568 26.2644C124.898 25.2144 125.348 24.217 125.933 23.287C127.666 20.5271 130.073 18.6372 133.156 17.5947C133.268 17.5572 133.403 17.4897 133.501 17.5272C133.651 17.5797 133.831 17.6847 133.906 17.8122C134.003 17.9847 133.936 18.1872 133.756 18.3072C133.651 18.3747 133.523 18.4197 133.403 18.4647C129.488 19.8371 126.848 22.477 125.468 26.3844C125.378 26.6394 125.318 26.9168 124.966 26.9243Z" fill="white"/>
<path d="M141.129 17.4598C141.496 17.5873 141.796 17.6698 142.081 17.7823C146.048 19.3648 148.733 22.1772 150.098 26.227C150.211 26.5645 150.121 26.812 149.858 26.902C149.588 26.992 149.363 26.857 149.243 26.497C148.561 24.4046 147.421 22.6121 145.801 21.1197C144.496 19.9197 143.011 19.0423 141.331 18.4723C141.196 18.4273 141.061 18.3823 140.941 18.3148C140.739 18.2023 140.664 17.9923 140.761 17.8048C140.844 17.6623 141.016 17.5648 141.129 17.4598Z" fill="white"/>
<path d="M150.208 27.9744C151.461 27.8844 152.578 28.9044 152.661 30.2318C152.743 31.4918 151.746 32.5792 150.411 32.6842C149.166 32.7817 148.033 31.7692 147.943 30.4793C147.853 29.1594 148.836 28.0719 150.208 27.9744ZM151.768 30.3443C151.776 29.5418 151.116 28.8744 150.313 28.8669C149.511 28.8594 148.843 29.5118 148.836 30.3218C148.828 31.1318 149.481 31.7917 150.291 31.7992C151.086 31.8067 151.761 31.1468 151.768 30.3443Z" fill="white"/>
<path d="M139.695 43.4237C139.635 44.7737 138.465 45.7336 137.22 45.6511C135.878 45.5611 134.881 44.4287 134.993 43.1462C135.113 41.7888 136.23 40.8213 137.543 40.9413C138.818 41.0538 139.8 42.1788 139.695 43.4237ZM137.348 44.7587C138.15 44.7512 138.81 44.0837 138.803 43.2812C138.795 42.4713 138.135 41.8188 137.325 41.8263C136.515 41.8338 135.863 42.5013 135.87 43.3037C135.885 44.1062 136.545 44.7662 137.348 44.7587Z" fill="white"/>
<path d="M134.421 35.8342C134.421 36.5391 134.429 37.2516 134.421 37.9566C134.414 38.3616 134.054 38.5941 133.761 38.3766C133.641 38.2866 133.544 38.0991 133.544 37.9566C133.529 36.5541 133.529 35.1517 133.536 33.7418C133.536 33.4268 133.724 33.2543 133.986 33.2543C134.264 33.2543 134.421 33.4343 134.429 33.7793C134.429 34.4617 134.421 35.1517 134.421 35.8342Z" fill="white"/>
<path d="M140.253 35.8341C140.253 35.1441 140.246 34.4616 140.253 33.7716C140.253 33.4192 140.433 33.2392 140.726 33.2542C140.973 33.2692 141.131 33.4417 141.138 33.7491C141.153 34.0566 141.146 34.3641 141.146 34.6716C141.146 35.6766 141.146 36.6815 141.146 37.6865C141.146 37.769 141.146 37.844 141.146 37.9265C141.123 38.249 140.951 38.4515 140.688 38.4515C140.426 38.4515 140.253 38.249 140.253 37.919C140.246 37.2215 140.253 36.524 140.253 35.8341Z" fill="white"/>
<path d="M588.55 21.625H582.875V39H588.55C594.125 39 597.775 35.725 597.775 30.375C597.775 25 594.125 21.625 588.55 21.625ZM585.725 36.675V23.95H588.55C592.65 23.95 594.85 26.4 594.85 30.375C594.85 34.325 592.65 36.675 588.55 36.675H585.725ZM613.575 25.225H610.725V32.9C610.725 35.425 609.35 36.725 607.25 36.725C605.175 36.725 603.8 35.425 603.8 32.9V25.225H600.975V33.325C600.975 37.175 603.425 39.2 606.65 39.2C608.275 39.2 609.825 38.525 610.725 37.35V39H613.575V25.225ZM620.685 31.75C620.685 28.825 621.985 27.95 624.085 27.95H624.81V25C622.86 25 621.485 25.85 620.685 27.225V25.225H617.835V39H620.685V31.75ZM626.98 32.05C626.98 36.3 629.855 39.225 633.43 39.225C635.73 39.225 637.38 38.125 638.255 36.95V39H641.13V25.225H638.255V27.225C637.405 26.1 635.805 25 633.48 25C629.855 25 626.98 27.8 626.98 32.05ZM638.255 32.1C638.255 35.075 636.23 36.75 634.08 36.75C631.955 36.75 629.905 35.025 629.905 32.05C629.905 29.075 631.955 27.475 634.08 27.475C636.23 27.475 638.255 29.15 638.255 32.1ZM645.823 35.175C645.823 37.975 647.348 39 649.798 39H652.048V36.625H650.298C649.098 36.625 648.698 36.2 648.698 35.175V27.55H652.048V25.225H648.698V21.8H645.823V25.225H644.198V27.55H645.823V35.175ZM655.175 39H658.025V25.225H655.175V39ZM656.625 23.4C657.625 23.4 658.425 22.6 658.425 21.575C658.425 20.55 657.625 19.75 656.625 19.75C655.6 19.75 654.8 20.55 654.8 21.575C654.8 22.6 655.6 23.4 656.625 23.4ZM675.392 32.1C675.392 27.775 672.292 25 668.367 25C664.442 25 661.342 27.775 661.342 32.1C661.342 36.425 664.317 39.225 668.242 39.225C672.192 39.225 675.392 36.425 675.392 32.1ZM664.242 32.1C664.242 28.975 666.167 27.475 668.317 27.475C670.442 27.475 672.467 28.975 672.467 32.1C672.467 35.225 670.367 36.75 668.242 36.75C666.092 36.75 664.242 35.225 664.242 32.1ZM688.484 39H691.309V30.875C691.309 27.025 688.884 25 685.659 25C684.009 25 682.484 25.675 681.559 26.8V25.225H678.709V39H681.559V31.3C681.559 28.775 682.934 27.475 685.034 27.475C687.109 27.475 688.484 28.775 688.484 31.3V39Z" fill="white"/>
<path d="M555 24V32.764L561.836 37L563 35.2472L557.182 31.7416V24H555Z" fill="white"/>
<path d="M566.111 30.1111C566.32 31.4915 566.228 32.901 565.84 34.2423C565.453 35.5837 564.779 36.8251 563.865 37.8811C562.952 38.9371 561.821 39.7826 560.549 40.3594C559.278 40.9361 557.896 41.2305 556.5 41.2221C551.083 41.2221 546.778 36.9166 546.778 31.4999C546.778 26.0833 551.083 21.7778 556.5 21.7778C557.472 21.7778 558.403 21.9167 559.278 22.1805V19.3194C558.389 19.1111 557.458 19 556.5 19C549.555 19 544 24.5555 544 31.4999C544 38.4444 549.555 43.9999 556.5 43.9999C558.261 44.0072 560.003 43.6409 561.611 42.9253C563.22 42.2096 564.659 41.1609 565.832 39.8483C567.006 38.5357 567.887 36.9891 568.419 35.3106C568.951 33.6321 569.12 31.8599 568.916 30.1111H566.111Z" fill="white"/>
<path d="M568.875 20.125V16H566.125V20.125H562V22.875H566.125V27H568.875V22.875H573V20.125H568.875Z" fill="white"/>
<path d="M1000.6 39H1003.6L997.375 21.6H994.075L987.85 39H990.825L992.075 35.45H999.35L1000.6 39ZM998.55 33.125H992.875L995.725 25.05L998.55 33.125ZM1009.66 27.25V25.225H1006.81V45.55H1009.66V37C1010.56 38.075 1012.18 39.225 1014.46 39.225C1018.08 39.225 1020.93 36.3 1020.93 32.05C1020.93 27.8 1018.08 25 1014.46 25C1012.21 25 1010.53 26.1 1009.66 27.25ZM1018.03 32.05C1018.03 35.025 1015.98 36.75 1013.83 36.75C1011.71 36.75 1009.66 35.075 1009.66 32.1C1009.66 29.15 1011.71 27.475 1013.83 27.475C1015.98 27.475 1018.03 29.075 1018.03 32.05ZM1027.1 27.25V25.225H1024.25V45.55H1027.1V37C1028 38.075 1029.63 39.225 1031.9 39.225C1035.53 39.225 1038.38 36.3 1038.38 32.05C1038.38 27.8 1035.53 25 1031.9 25C1029.65 25 1027.98 26.1 1027.1 27.25ZM1035.48 32.05C1035.48 35.025 1033.43 36.75 1031.28 36.75C1029.15 36.75 1027.1 35.075 1027.1 32.1C1027.1 29.15 1029.15 27.475 1031.28 27.475C1033.43 27.475 1035.48 29.075 1035.48 32.05ZM1044.54 31.75C1044.54 28.825 1045.84 27.95 1047.94 27.95H1048.67V25C1046.72 25 1045.34 25.85 1044.54 27.225V25.225H1041.69V39H1044.54V31.75ZM1064.91 32.1C1064.91 27.775 1061.81 25 1057.89 25C1053.96 25 1050.86 27.775 1050.86 32.1C1050.86 36.425 1053.84 39.225 1057.76 39.225C1061.71 39.225 1064.91 36.425 1064.91 32.1ZM1053.76 32.1C1053.76 28.975 1055.69 27.475 1057.84 27.475C1059.96 27.475 1061.99 28.975 1061.99 32.1C1061.99 35.225 1059.89 36.75 1057.76 36.75C1055.61 36.75 1053.76 35.225 1053.76 32.1ZM1066.61 25.225L1071.83 39H1075.23L1080.48 25.225H1077.46L1073.56 36.45L1069.66 25.225H1066.61ZM1082.18 32.05C1082.18 36.3 1085.06 39.225 1088.63 39.225C1090.93 39.225 1092.58 38.125 1093.46 36.95V39H1096.33V25.225H1093.46V27.225C1092.61 26.1 1091.01 25 1088.68 25C1085.06 25 1082.18 27.8 1082.18 32.05ZM1093.46 32.1C1093.46 35.075 1091.43 36.75 1089.28 36.75C1087.16 36.75 1085.11 35.025 1085.11 32.05C1085.11 29.075 1087.16 27.475 1089.28 27.475C1091.43 27.475 1093.46 29.15 1093.46 32.1ZM1100.58 39H1103.43V20.5H1100.58V39ZM1117.94 35.15C1117.79 30.175 1110.02 31.725 1110.02 28.95C1110.02 28.025 1110.82 27.4 1112.34 27.4C1113.89 27.4 1114.82 28.225 1114.92 29.425H1117.77C1117.62 26.675 1115.57 25 1112.44 25C1109.19 25 1107.14 26.775 1107.14 28.975C1107.14 34.025 1115.14 32.475 1115.14 35.175C1115.14 36.125 1114.27 36.825 1112.62 36.825C1111.04 36.825 1109.97 35.9 1109.87 34.775H1106.92C1107.04 37.275 1109.37 39.225 1112.67 39.225C1115.92 39.225 1117.94 37.475 1117.94 35.15Z" fill="white"/>
<path d="M965.672 45.5916C965.464 45.4529 965.353 45.2587 965.291 45.009C965.062 44.1143 964.812 43.2266 964.57 42.3041C964.244 42.3873 963.932 42.4706 963.619 42.5538C963.016 42.7133 962.42 42.8728 961.816 43.0393C961.553 43.1156 961.296 43.1433 961.109 42.8937C960.921 42.6509 961.005 42.4151 961.143 42.1723C962.191 40.3621 963.231 38.545 964.285 36.7417C964.389 36.5683 964.382 36.4781 964.23 36.3325C963.724 35.8609 963.446 35.2644 963.342 34.5847C963.266 34.0714 963.023 33.6622 962.635 33.3293C961.476 32.3306 961.171 31.1793 961.677 29.7436C961.844 29.265 961.844 28.8003 961.671 28.3217C961.171 26.8999 961.49 25.7278 962.642 24.7429C963.023 24.4169 963.259 24.0077 963.342 23.5084C963.585 22.0935 964.507 21.1572 965.908 20.9214C966.442 20.8312 966.872 20.5815 967.226 20.1584C968.128 19.0765 969.383 18.7366 970.701 19.2152C971.221 19.4024 971.72 19.4094 972.241 19.2152C973.558 18.7366 974.8 19.0626 975.701 20.1307C976.076 20.5746 976.534 20.8381 977.109 20.9283C978.379 21.1294 979.377 22.1282 979.585 23.3974C979.676 23.9731 979.932 24.4308 980.383 24.8053C981.451 25.707 981.777 26.9485 981.299 28.2663C981.111 28.7864 981.111 29.2858 981.299 29.806C981.784 31.1376 981.437 32.393 980.341 33.3016C979.967 33.6137 979.703 33.9882 979.634 34.4737C979.509 35.2644 979.19 35.9371 978.566 36.4781C978.614 36.5683 978.656 36.6515 978.705 36.7278C979.731 38.5103 980.758 40.2928 981.791 42.0752C981.833 42.1446 981.867 42.207 981.909 42.2764C982.027 42.4844 982.034 42.6925 981.881 42.8798C981.729 43.067 981.534 43.1156 981.299 43.0532C980.404 42.8104 979.516 42.5746 978.621 42.3388C978.566 42.3249 978.503 42.3111 978.42 42.2972C978.261 42.8937 978.101 43.4832 977.942 44.0727C977.858 44.3779 977.761 44.69 977.699 45.0021C977.65 45.2518 977.526 45.446 977.317 45.5847C977.213 45.5847 977.109 45.5847 977.005 45.5847C976.874 45.446 976.7 45.3281 976.603 45.1616C975.466 43.2058 974.335 41.243 973.198 39.2802C973.142 39.1831 973.052 39.086 972.955 39.0513C972.698 38.9611 972.421 38.9126 972.157 38.8293C971.7 38.6767 971.242 38.6767 970.784 38.8363C970.583 38.9056 970.375 38.9889 970.167 39.0166C969.966 39.0443 969.875 39.1484 969.778 39.301C968.655 41.2568 967.524 43.2127 966.394 45.1616C966.297 45.3212 966.13 45.446 965.991 45.5847C965.881 45.5916 965.776 45.5916 965.672 45.5916ZM969.73 20.0405C968.988 20.0613 968.461 20.2763 968.079 20.7618C967.538 21.4346 966.852 21.8299 965.998 21.9686C965.125 22.1143 964.514 22.7454 964.375 23.6263C964.251 24.4239 963.883 25.0689 963.266 25.5891C962.503 26.2202 962.288 27.0109 962.628 27.9333C962.905 28.6824 962.905 29.4176 962.628 30.1597C962.295 31.0752 962.496 31.8659 963.245 32.4901C963.876 33.0172 964.251 33.6761 964.382 34.4945C964.521 35.3615 965.159 35.9996 966.026 36.1383C966.838 36.2701 967.497 36.6446 968.031 37.2757C968.655 38.0248 969.445 38.2259 970.361 37.893C971.11 37.6156 971.845 37.6156 972.587 37.893C973.503 38.2329 974.307 38.0109 974.939 37.2549C975.445 36.6446 976.09 36.277 976.874 36.1452C977.796 35.9926 978.399 35.41 978.566 34.4876C978.712 33.6692 979.086 32.9964 979.731 32.4693C980.439 31.8867 980.661 31.0683 980.341 30.2083C980.05 29.4245 980.05 28.6616 980.341 27.8779C980.661 27.0178 980.452 26.2133 979.752 25.6307C979.1 25.0897 978.719 24.4239 978.573 23.5916C978.413 22.69 977.831 22.1143 976.936 21.9478C976.159 21.8091 975.5 21.4762 974.987 20.8659C974.307 20.0544 973.551 19.8463 972.553 20.207C971.838 20.4636 971.138 20.4636 970.423 20.207C970.146 20.1237 969.875 20.0752 969.73 20.0405ZM974.196 38.9611C975.119 40.5563 976.014 42.1099 976.943 43.719C976.992 43.5595 977.012 43.4693 977.04 43.3792C977.2 42.7966 977.352 42.214 977.512 41.6244C977.623 41.2152 977.858 41.0834 978.268 41.1875C978.497 41.243 978.719 41.3123 978.94 41.3678C979.405 41.4926 979.87 41.6105 980.376 41.7423C979.447 40.1332 978.545 38.5727 977.657 37.033C977.387 37.0885 977.165 37.137 976.936 37.1856C976.506 37.2688 976.118 37.4491 975.847 37.789C975.417 38.323 974.904 38.7461 974.196 38.9611ZM966.026 43.7259C966.962 42.1099 967.857 40.5494 968.773 38.975C968.065 38.76 967.538 38.3438 967.101 37.8029C966.838 37.4769 966.47 37.2965 966.061 37.2064C965.818 37.1509 965.575 37.1093 965.305 37.0538C964.41 38.5935 963.509 40.1471 962.586 41.7562C963.314 41.562 963.98 41.3817 964.646 41.2013C965.138 41.0696 965.346 41.1944 965.478 41.6938C965.652 42.3457 965.825 42.9977 966.026 43.7259Z" fill="white"/>
<path d="M964.719 29.2026C964.733 26.5324 966.349 24.0702 968.804 23.0229C968.859 23.0021 968.915 22.9744 968.97 22.9535C969.269 22.8495 969.553 22.9605 969.664 23.231C969.775 23.5015 969.664 23.772 969.366 23.9107C969.123 24.0286 968.873 24.1326 968.644 24.2644C966.584 25.4227 965.426 27.8502 965.842 30.132C966.293 32.6011 968.152 34.4668 970.545 34.8483C973.707 35.3546 976.641 33.2323 977.141 30.0835C977.543 27.5311 976.163 25.0273 973.77 23.98C973.721 23.9592 973.673 23.9384 973.624 23.9176C973.312 23.772 973.187 23.5015 973.305 23.224C973.423 22.9466 973.707 22.8356 974.02 22.9605C974.824 23.2865 975.552 23.7373 976.163 24.3476C978.028 26.2411 978.694 28.5021 977.966 31.0614C977.245 33.5999 975.511 35.202 972.944 35.7985C969.06 36.707 965.19 33.912 964.781 29.9447C964.753 29.702 964.74 29.4523 964.719 29.2026Z" fill="white"/>
<path d="M970.884 28.183C971.606 27.4617 972.299 26.7681 972.986 26.0746C973.381 25.6792 973.61 25.6792 974.012 26.0815C974.477 26.5462 974.942 27.0109 975.407 27.4756C975.705 27.7808 975.712 28.0512 975.407 28.3495C974.047 29.7089 972.688 31.0683 971.328 32.4277C971.023 32.7328 970.753 32.7398 970.454 32.4346C969.483 31.4705 968.519 30.4995 967.555 29.5355C967.264 29.2442 967.264 28.9737 967.548 28.6824C968.048 28.1761 968.547 27.6767 969.053 27.1773C969.331 26.9069 969.608 26.9069 969.893 27.1773C970.226 27.5033 970.545 27.8362 970.884 28.183ZM973.485 27.0456C972.778 27.753 972.084 28.4535 971.384 29.154C971.016 29.5216 970.767 29.5216 970.399 29.1471C970.094 28.8419 969.802 28.5367 969.511 28.2454C969.199 28.5576 968.915 28.8419 968.651 29.1055C969.393 29.8476 970.149 30.6105 970.877 31.3388C972.015 30.2013 973.166 29.05 974.318 27.8987C974.061 27.6351 973.784 27.3507 973.485 27.0456Z" fill="white"/>
<path d="M971.496 22.475C971.78 22.4819 972.002 22.7108 972.002 22.9882C972.002 23.2656 971.767 23.5015 971.489 23.5015C971.205 23.5015 970.962 23.2518 970.969 22.9674C970.976 22.69 971.205 22.475 971.496 22.475Z" fill="white"/>
</svg>
