<svg width="1226" height="124" viewBox="0 0 1226 124" fill="none" xmlns="http://www.w3.org/2000/svg">
<g filter="url(#filter0_d_953_407)">
<rect x="24" y="1" width="365" height="47" fill="white" shape-rendering="crispEdges"/>
<rect x="23.7658" y="0.765849" width="365.468" height="47.4683" stroke="black" stroke-opacity="0.2" stroke-width="0.468302" shape-rendering="crispEdges"/>
</g>
<path d="M138.872 26.418C138.872 27.624 138.026 28.326 136.64 28.326H133.868V24.42H136.568C137.936 24.42 138.872 25.176 138.872 26.418ZM138.548 20.964C138.548 22.116 137.738 22.746 136.406 22.746H133.868V19.164H136.406C137.738 19.164 138.548 19.83 138.548 20.964ZM140.924 26.634C140.924 25.14 139.844 23.808 138.512 23.574C139.718 23.142 140.636 22.224 140.636 20.712C140.636 18.948 139.232 17.49 136.586 17.49H131.816V30H136.82C139.376 30 140.924 28.542 140.924 26.634ZM152.136 20.082H150.084V25.608C150.084 27.426 149.094 28.362 147.582 28.362C146.088 28.362 145.098 27.426 145.098 25.608V20.082H143.064V25.914C143.064 28.686 144.828 30.144 147.15 30.144C148.32 30.144 149.436 29.658 150.084 28.812V30H152.136V20.082ZM162.241 27.228C162.133 23.646 156.535 24.762 156.535 22.764C156.535 22.098 157.111 21.648 158.209 21.648C159.325 21.648 159.991 22.242 160.063 23.106H162.115C162.007 21.126 160.531 19.92 158.281 19.92C155.941 19.92 154.465 21.198 154.465 22.782C154.465 26.418 160.225 25.302 160.225 27.246C160.225 27.93 159.595 28.434 158.407 28.434C157.273 28.434 156.499 27.768 156.427 26.958H154.303C154.393 28.758 156.067 30.162 158.443 30.162C160.783 30.162 162.241 28.902 162.241 27.228ZM164.458 30H166.51V20.082H164.458V30ZM165.502 18.768C166.222 18.768 166.798 18.192 166.798 17.454C166.798 16.716 166.222 16.14 165.502 16.14C164.764 16.14 164.188 16.716 164.188 17.454C164.188 18.192 164.764 18.768 165.502 18.768ZM176.242 30H178.276V24.15C178.276 21.378 176.53 19.92 174.208 19.92C173.02 19.92 171.922 20.406 171.256 21.216V20.082H169.204V30H171.256V24.456C171.256 22.638 172.246 21.702 173.758 21.702C175.252 21.702 176.242 22.638 176.242 24.456V30ZM185.07 21.648C186.6 21.648 187.806 22.62 187.842 24.15H182.352C182.568 22.584 183.684 21.648 185.07 21.648ZM189.714 27.048H187.5C187.122 27.822 186.42 28.434 185.16 28.434C183.648 28.434 182.478 27.444 182.334 25.806H189.912C189.966 25.464 189.984 25.14 189.984 24.798C189.984 21.882 187.986 19.92 185.16 19.92C182.226 19.92 180.21 21.918 180.21 25.032C180.21 28.146 182.316 30.162 185.16 30.162C187.59 30.162 189.156 28.776 189.714 27.048ZM199.401 27.228C199.293 23.646 193.695 24.762 193.695 22.764C193.695 22.098 194.271 21.648 195.369 21.648C196.485 21.648 197.151 22.242 197.223 23.106H199.275C199.167 21.126 197.691 19.92 195.441 19.92C193.101 19.92 191.625 21.198 191.625 22.782C191.625 26.418 197.385 25.302 197.385 27.246C197.385 27.93 196.755 28.434 195.567 28.434C194.433 28.434 193.659 27.768 193.587 26.958H191.463C191.553 28.758 193.227 30.162 195.603 30.162C197.943 30.162 199.401 28.902 199.401 27.228ZM209.017 27.228C208.909 23.646 203.311 24.762 203.311 22.764C203.311 22.098 203.887 21.648 204.985 21.648C206.101 21.648 206.767 22.242 206.839 23.106H208.891C208.783 21.126 207.307 19.92 205.057 19.92C202.717 19.92 201.241 21.198 201.241 22.782C201.241 26.418 207.001 25.302 207.001 27.246C207.001 27.93 206.371 28.434 205.183 28.434C204.049 28.434 203.275 27.768 203.203 26.958H201.079C201.169 28.758 202.843 30.162 205.219 30.162C207.559 30.162 209.017 28.902 209.017 27.228ZM224.352 30H226.512L222.03 17.472H219.654L215.172 30H217.314L218.214 27.444H223.452L224.352 30ZM222.876 25.77H218.79L220.842 19.956L222.876 25.77ZM235.498 30H237.532V24.15C237.532 21.378 235.786 19.92 233.464 19.92C232.276 19.92 231.178 20.406 230.512 21.216V20.082H228.46V30H230.512V24.456C230.512 22.638 231.502 21.702 233.014 21.702C234.508 21.702 235.498 22.638 235.498 24.456V30ZM239.466 24.996C239.466 28.056 241.536 30.162 244.11 30.162C245.766 30.162 246.954 29.37 247.584 28.524V30H249.654V20.082H247.584V21.522C246.972 20.712 245.82 19.92 244.146 19.92C241.536 19.92 239.466 21.936 239.466 24.996ZM247.584 25.032C247.584 27.174 246.126 28.38 244.578 28.38C243.048 28.38 241.572 27.138 241.572 24.996C241.572 22.854 243.048 21.702 244.578 21.702C246.126 21.702 247.584 22.908 247.584 25.032ZM252.349 30H254.401V16.68H252.349V30ZM261.001 27.642L258.211 20.082H255.925L259.831 29.838L257.815 34.662H259.939L266.023 20.082H263.899L261.001 27.642ZM274.97 27.228C274.862 23.646 269.264 24.762 269.264 22.764C269.264 22.098 269.84 21.648 270.938 21.648C272.054 21.648 272.72 22.242 272.792 23.106H274.844C274.736 21.126 273.26 19.92 271.01 19.92C268.67 19.92 267.194 21.198 267.194 22.782C267.194 26.418 272.954 25.302 272.954 27.246C272.954 27.93 272.324 28.434 271.136 28.434C270.002 28.434 269.228 27.768 269.156 26.958H267.032C267.122 28.758 268.796 30.162 271.172 30.162C273.512 30.162 274.97 28.902 274.97 27.228ZM277.511 27.246C277.511 29.262 278.609 30 280.373 30H281.993V28.29H280.733C279.869 28.29 279.581 27.984 279.581 27.246V21.756H281.993V20.082H279.581V17.616H277.511V20.082H276.341V21.756H277.511V27.246Z" fill="#212832"/>
<path d="M389 1H387V48H389V1Z" fill="#946FB0" stroke="#946FB0" stroke-width="0.936604"/>
<circle cx="24.4151" cy="24.4151" r="23.4151" fill="#946FB0" stroke="#946FB0"/>
<path d="M16.3494 23.9942C16.3494 27.9654 17.3983 30.9625 21.2197 30.9625C25.041 30.9625 26.09 27.9654 26.09 23.9942C26.09 20.0979 25.041 17.1008 21.2197 17.1008C17.3983 17.1008 16.3494 20.0979 16.3494 23.9942ZM23.992 23.9942C23.992 26.6729 23.7111 29.0144 21.2197 29.0144C18.7283 29.0144 18.4473 26.6729 18.4473 23.9942C18.4473 21.4466 18.7283 19.0489 21.2197 19.0489C23.7111 19.0489 23.992 21.4466 23.992 23.9942ZM29.8107 31H31.9649V17.3443H28.0686V19.2925H29.8107V31Z" fill="#212832"/>
<g filter="url(#filter1_d_953_407)">
<rect x="24" y="76" width="365" height="47" fill="white" shape-rendering="crispEdges"/>
<rect x="23.7658" y="75.7658" width="365.468" height="47.4683" stroke="black" stroke-opacity="0.2" stroke-width="0.468302" shape-rendering="crispEdges"/>
</g>
<path d="M89.7119 102.454C89.7119 97.882 83.0879 99.646 83.0879 96.82C83.0879 95.614 84.0059 95.038 85.1939 95.074C86.4899 95.11 87.2279 95.884 87.2999 96.73H89.5679C89.3879 94.588 87.6959 93.328 85.3019 93.328C82.7459 93.328 80.9999 94.696 80.9999 96.892C80.9999 101.5 87.6419 99.538 87.6419 102.562C87.6419 103.624 86.8319 104.398 85.3919 104.398C83.9699 104.398 83.2499 103.57 83.1599 102.544H80.9639C80.9639 104.758 82.8899 106.126 85.3919 106.126C88.1819 106.126 89.7119 104.326 89.7119 102.454ZM92.4572 103.246C92.4572 105.262 93.5552 106 95.3192 106H96.9392V104.29H95.6792C94.8152 104.29 94.5272 103.984 94.5272 103.246V97.756H96.9392V96.082H94.5272V93.616H92.4572V96.082H91.2872V97.756H92.4572V103.246ZM100.882 100.78C100.882 98.674 101.818 98.044 103.33 98.044H103.852V95.92C102.448 95.92 101.458 96.532 100.882 97.522V96.082H98.8305V106H100.882V100.78ZM105.055 100.996C105.055 104.056 107.125 106.162 109.699 106.162C111.355 106.162 112.543 105.37 113.173 104.524V106H115.243V96.082H113.173V97.522C112.561 96.712 111.409 95.92 109.735 95.92C107.125 95.92 105.055 97.936 105.055 100.996ZM113.173 101.032C113.173 103.174 111.715 104.38 110.167 104.38C108.637 104.38 107.161 103.138 107.161 100.996C107.161 98.854 108.637 97.702 110.167 97.702C111.715 97.702 113.173 98.908 113.173 101.032ZM118.262 103.246C118.262 105.262 119.36 106 121.124 106H122.744V104.29H121.484C120.62 104.29 120.332 103.984 120.332 103.246V97.756H122.744V96.082H120.332V93.616H118.262V96.082H117.092V97.756H118.262V103.246ZM128.811 97.648C130.341 97.648 131.547 98.62 131.583 100.15H126.093C126.309 98.584 127.425 97.648 128.811 97.648ZM133.455 103.048H131.241C130.863 103.822 130.161 104.434 128.901 104.434C127.389 104.434 126.219 103.444 126.075 101.806H133.653C133.707 101.464 133.725 101.14 133.725 100.798C133.725 97.882 131.727 95.92 128.901 95.92C125.967 95.92 123.951 97.918 123.951 101.032C123.951 104.146 126.057 106.162 128.901 106.162C131.331 106.162 132.897 104.776 133.455 103.048ZM135.061 100.996C135.061 104.056 137.131 106.162 139.741 106.162C141.361 106.162 142.549 105.352 143.179 104.506V106.162C143.179 108.142 141.991 109.114 140.407 109.114C138.985 109.114 137.887 108.412 137.581 107.386H135.547C135.799 109.582 137.761 110.896 140.407 110.896C143.503 110.896 145.249 108.862 145.249 106.162V96.082H143.179V97.522C142.567 96.676 141.361 95.92 139.741 95.92C137.131 95.92 135.061 97.936 135.061 100.996ZM143.179 101.032C143.179 103.174 141.721 104.38 140.173 104.38C138.643 104.38 137.167 103.138 137.167 100.996C137.167 98.854 138.643 97.702 140.173 97.702C141.721 97.702 143.179 98.908 143.179 101.032ZM147.944 106H149.996V96.082H147.944V106ZM148.988 94.768C149.708 94.768 150.284 94.192 150.284 93.454C150.284 92.716 149.708 92.14 148.988 92.14C148.25 92.14 147.674 92.716 147.674 93.454C147.674 94.192 148.25 94.768 148.988 94.768ZM152.006 101.032C152.006 104.146 154.022 106.162 156.866 106.162C159.296 106.162 160.88 104.812 161.438 102.868H159.224C158.846 103.894 158.09 104.434 156.866 104.434C155.21 104.434 154.112 103.21 154.112 101.032C154.112 98.872 155.21 97.648 156.866 97.648C158.09 97.648 158.882 98.26 159.224 99.214H161.438C160.88 97.126 159.296 95.92 156.866 95.92C154.022 95.92 152.006 97.936 152.006 101.032ZM175.215 102.418C175.215 103.624 174.369 104.326 172.983 104.326H170.211V100.42H172.911C174.279 100.42 175.215 101.176 175.215 102.418ZM174.891 96.964C174.891 98.116 174.081 98.746 172.749 98.746H170.211V95.164H172.749C174.081 95.164 174.891 95.83 174.891 96.964ZM177.267 102.634C177.267 101.14 176.187 99.808 174.855 99.574C176.061 99.142 176.979 98.224 176.979 96.712C176.979 94.948 175.575 93.49 172.929 93.49H168.159V106H173.163C175.719 106 177.267 104.542 177.267 102.634ZM188.478 96.082H186.426V101.608C186.426 103.426 185.436 104.362 183.924 104.362C182.43 104.362 181.44 103.426 181.44 101.608V96.082H179.406V101.914C179.406 104.686 181.17 106.144 183.492 106.144C184.662 106.144 185.778 105.658 186.426 104.812V106H188.478V96.082ZM198.584 103.228C198.476 99.646 192.878 100.762 192.878 98.764C192.878 98.098 193.454 97.648 194.552 97.648C195.668 97.648 196.334 98.242 196.406 99.106H198.458C198.35 97.126 196.874 95.92 194.624 95.92C192.284 95.92 190.808 97.198 190.808 98.782C190.808 102.418 196.568 101.302 196.568 103.246C196.568 103.93 195.938 104.434 194.75 104.434C193.616 104.434 192.842 103.768 192.77 102.958H190.646C190.736 104.758 192.41 106.162 194.786 106.162C197.126 106.162 198.584 104.902 198.584 103.228ZM200.801 106H202.853V96.082H200.801V106ZM201.845 94.768C202.565 94.768 203.141 94.192 203.141 93.454C203.141 92.716 202.565 92.14 201.845 92.14C201.107 92.14 200.531 92.716 200.531 93.454C200.531 94.192 201.107 94.768 201.845 94.768ZM212.585 106H214.619V100.15C214.619 97.378 212.873 95.92 210.551 95.92C209.363 95.92 208.265 96.406 207.599 97.216V96.082H205.547V106H207.599V100.456C207.599 98.638 208.589 97.702 210.101 97.702C211.595 97.702 212.585 98.638 212.585 100.456V106ZM221.413 97.648C222.943 97.648 224.149 98.62 224.185 100.15H218.695C218.911 98.584 220.027 97.648 221.413 97.648ZM226.057 103.048H223.843C223.465 103.822 222.763 104.434 221.503 104.434C219.991 104.434 218.821 103.444 218.677 101.806H226.255C226.309 101.464 226.327 101.14 226.327 100.798C226.327 97.882 224.329 95.92 221.503 95.92C218.569 95.92 216.553 97.918 216.553 101.032C216.553 104.146 218.659 106.162 221.503 106.162C223.933 106.162 225.499 104.776 226.057 103.048ZM235.744 103.228C235.636 99.646 230.038 100.762 230.038 98.764C230.038 98.098 230.614 97.648 231.712 97.648C232.828 97.648 233.494 98.242 233.566 99.106H235.618C235.51 97.126 234.034 95.92 231.784 95.92C229.444 95.92 227.968 97.198 227.968 98.782C227.968 102.418 233.728 101.302 233.728 103.246C233.728 103.93 233.098 104.434 231.91 104.434C230.776 104.434 230.002 103.768 229.93 102.958H227.806C227.896 104.758 229.57 106.162 231.946 106.162C234.286 106.162 235.744 104.902 235.744 103.228ZM245.359 103.228C245.251 99.646 239.653 100.762 239.653 98.764C239.653 98.098 240.229 97.648 241.327 97.648C242.443 97.648 243.109 98.242 243.181 99.106H245.233C245.125 97.126 243.649 95.92 241.399 95.92C239.059 95.92 237.583 97.198 237.583 98.782C237.583 102.418 243.343 101.302 243.343 103.246C243.343 103.93 242.713 104.434 241.525 104.434C240.391 104.434 239.617 103.768 239.545 102.958H237.421C237.511 104.758 239.185 106.162 241.561 106.162C243.901 106.162 245.359 104.902 245.359 103.228ZM252.252 106H254.304V97.432L258.138 106H259.56L263.376 97.432V106H265.428V93.49H263.232L258.858 103.3L254.466 93.49H252.252V106ZM267.441 100.996C267.441 104.056 269.511 106.162 272.085 106.162C273.741 106.162 274.929 105.37 275.559 104.524V106H277.629V96.082H275.559V97.522C274.947 96.712 273.795 95.92 272.121 95.92C269.511 95.92 267.441 97.936 267.441 100.996ZM275.559 101.032C275.559 103.174 274.101 104.38 272.553 104.38C271.023 104.38 269.547 103.138 269.547 100.996C269.547 98.854 271.023 97.702 272.553 97.702C274.101 97.702 275.559 98.908 275.559 101.032ZM287.363 106H289.397V100.15C289.397 97.378 287.651 95.92 285.329 95.92C284.141 95.92 283.043 96.406 282.377 97.216V96.082H280.325V106H282.377V100.456C282.377 98.638 283.367 97.702 284.879 97.702C286.373 97.702 287.363 98.638 287.363 100.456V106ZM291.33 100.996C291.33 104.056 293.4 106.162 295.974 106.162C297.63 106.162 298.818 105.37 299.448 104.524V106H301.518V96.082H299.448V97.522C298.836 96.712 297.684 95.92 296.01 95.92C293.4 95.92 291.33 97.936 291.33 100.996ZM299.448 101.032C299.448 103.174 297.99 104.38 296.442 104.38C294.912 104.38 293.436 103.138 293.436 100.996C293.436 98.854 294.912 97.702 296.442 97.702C297.99 97.702 299.448 98.908 299.448 101.032ZM303.529 100.996C303.529 104.056 305.599 106.162 308.209 106.162C309.829 106.162 311.017 105.352 311.647 104.506V106.162C311.647 108.142 310.459 109.114 308.875 109.114C307.453 109.114 306.355 108.412 306.049 107.386H304.015C304.267 109.582 306.229 110.896 308.875 110.896C311.971 110.896 313.717 108.862 313.717 106.162V96.082H311.647V97.522C311.035 96.676 309.829 95.92 308.209 95.92C305.599 95.92 303.529 97.936 303.529 100.996ZM311.647 101.032C311.647 103.174 310.189 104.38 308.641 104.38C307.111 104.38 305.635 103.138 305.635 100.996C305.635 98.854 307.111 97.702 308.641 97.702C310.189 97.702 311.647 98.908 311.647 101.032ZM320.589 97.648C322.119 97.648 323.325 98.62 323.361 100.15H317.871C318.087 98.584 319.203 97.648 320.589 97.648ZM325.232 103.048H323.019C322.641 103.822 321.939 104.434 320.679 104.434C319.167 104.434 317.997 103.444 317.853 101.806H325.431C325.485 101.464 325.503 101.14 325.503 100.798C325.503 97.882 323.505 95.92 320.679 95.92C317.745 95.92 315.729 97.918 315.729 101.032C315.729 104.146 317.835 106.162 320.679 106.162C323.109 106.162 324.675 104.776 325.232 103.048ZM329.574 100.78C329.574 98.674 330.51 98.044 332.022 98.044H332.544V95.92C331.14 95.92 330.15 96.532 329.574 97.522V96.082H327.522V106H329.574V100.78Z" fill="#212832"/>
<path d="M389 76H387V123H389V76Z" fill="#CF1C54" stroke="#CF1C54" stroke-width="0.936604"/>
<circle cx="24.4151" cy="99.4151" r="23.4151" fill="#E9336C" stroke="#E9336C"/>
<path d="M13.4777 99.6055C13.4777 103.577 14.5267 106.574 18.348 106.574C22.1694 106.574 23.2184 103.577 23.2184 99.6055C23.2184 95.7093 22.1694 92.7121 18.348 92.7121C14.5267 92.7121 13.4777 95.7093 13.4777 99.6055ZM21.1204 99.6055C21.1204 102.284 20.8394 104.626 18.348 104.626C15.8567 104.626 15.5757 102.284 15.5757 99.6055C15.5757 97.058 15.8567 94.6603 18.348 94.6603C20.8394 94.6603 21.1204 97.058 21.1204 99.6055ZM31.9967 106.611H34.0947V103.764H35.8368V101.91H34.0947V93.1242H31.5097L25.2157 102.153V103.764H31.9967V106.611ZM27.6696 101.91L32.0904 95.2972V101.91H27.6696Z" fill="#212832"/>
<g filter="url(#filter2_d_953_407)">
<rect x="436" y="76" width="365" height="47" fill="white" shape-rendering="crispEdges"/>
<rect x="435.766" y="75.7658" width="365.468" height="47.4683" stroke="black" stroke-opacity="0.2" stroke-width="0.468302" shape-rendering="crispEdges"/>
</g>
<path d="M529.349 106H531.401V97.432L535.235 106H536.657L540.473 97.432V106H542.525V93.49H540.329L535.955 103.3L531.563 93.49H529.349V106ZM544.538 100.996C544.538 104.056 546.608 106.162 549.182 106.162C550.838 106.162 552.026 105.37 552.656 104.524V106H554.726V96.082H552.656V97.522C552.044 96.712 550.892 95.92 549.218 95.92C546.608 95.92 544.538 97.936 544.538 100.996ZM552.656 101.032C552.656 103.174 551.198 104.38 549.65 104.38C548.12 104.38 546.644 103.138 546.644 100.996C546.644 98.854 548.12 97.702 549.65 97.702C551.198 97.702 552.656 98.908 552.656 101.032ZM559.473 100.78C559.473 98.674 560.409 98.044 561.921 98.044H562.443V95.92C561.039 95.92 560.049 96.532 559.473 97.522V96.082H557.421V106H559.473V100.78ZM564.329 106H566.381V101.734L570.053 106H572.825L568.253 101.05L572.825 96.082H569.981L566.381 100.42V92.68H564.329V106ZM578.472 97.648C580.002 97.648 581.208 98.62 581.244 100.15H575.754C575.97 98.584 577.086 97.648 578.472 97.648ZM583.116 103.048H580.902C580.524 103.822 579.822 104.434 578.562 104.434C577.05 104.434 575.88 103.444 575.736 101.806H583.314C583.368 101.464 583.386 101.14 583.386 100.798C583.386 97.882 581.388 95.92 578.562 95.92C575.628 95.92 573.612 97.918 573.612 101.032C573.612 104.146 575.718 106.162 578.562 106.162C580.992 106.162 582.558 104.776 583.116 103.048ZM585.73 103.246C585.73 105.262 586.828 106 588.592 106H590.212V104.29H588.952C588.088 104.29 587.8 103.984 587.8 103.246V97.756H590.212V96.082H587.8V93.616H585.73V96.082H584.56V97.756H585.73V103.246ZM592.103 106H594.155V96.082H592.103V106ZM593.147 94.768C593.867 94.768 594.443 94.192 594.443 93.454C594.443 92.716 593.867 92.14 593.147 92.14C592.409 92.14 591.833 92.716 591.833 93.454C591.833 94.192 592.409 94.768 593.147 94.768ZM603.887 106H605.921V100.15C605.921 97.378 604.175 95.92 601.853 95.92C600.665 95.92 599.567 96.406 598.901 97.216V96.082H596.849V106H598.901V100.456C598.901 98.638 599.891 97.702 601.403 97.702C602.897 97.702 603.887 98.638 603.887 100.456V106ZM607.854 100.996C607.854 104.056 609.924 106.162 612.534 106.162C614.154 106.162 615.342 105.352 615.972 104.506V106.162C615.972 108.142 614.784 109.114 613.2 109.114C611.778 109.114 610.68 108.412 610.374 107.386H608.34C608.592 109.582 610.554 110.896 613.2 110.896C616.296 110.896 618.042 108.862 618.042 106.162V96.082H615.972V97.522C615.36 96.676 614.154 95.92 612.534 95.92C609.924 95.92 607.854 97.936 607.854 100.996ZM615.972 101.032C615.972 103.174 614.514 104.38 612.966 104.38C611.436 104.38 609.96 103.138 609.96 100.996C609.96 98.854 611.436 97.702 612.966 97.702C614.514 97.702 615.972 98.908 615.972 101.032ZM632.325 93.472H625.413V106H632.325V104.326H627.465V100.492H631.785V98.818H627.465V95.146H632.325V93.472ZM639.983 106H642.305L639.101 100.978L642.305 96.082H640.163L638.147 99.448L636.005 96.082H633.683L636.887 101.122L633.683 106H635.825L637.841 102.634L639.983 106ZM648.011 97.648C649.541 97.648 650.747 98.62 650.783 100.15H645.293C645.509 98.584 646.625 97.648 648.011 97.648ZM652.655 103.048H650.441C650.063 103.822 649.361 104.434 648.101 104.434C646.589 104.434 645.419 103.444 645.275 101.806H652.853C652.907 101.464 652.925 101.14 652.925 100.798C652.925 97.882 650.927 95.92 648.101 95.92C645.167 95.92 643.151 97.918 643.151 101.032C643.151 104.146 645.257 106.162 648.101 106.162C650.531 106.162 652.097 104.776 652.655 103.048ZM654.261 101.032C654.261 104.146 656.277 106.162 659.121 106.162C661.551 106.162 663.135 104.812 663.693 102.868H661.479C661.101 103.894 660.345 104.434 659.121 104.434C657.465 104.434 656.367 103.21 656.367 101.032C656.367 98.872 657.465 97.648 659.121 97.648C660.345 97.648 661.137 98.26 661.479 99.214H663.693C663.135 97.126 661.551 95.92 659.121 95.92C656.277 95.92 654.261 97.936 654.261 101.032ZM674.72 96.082H672.668V101.608C672.668 103.426 671.678 104.362 670.166 104.362C668.672 104.362 667.682 103.426 667.682 101.608V96.082H665.648V101.914C665.648 104.686 667.412 106.144 669.734 106.144C670.904 106.144 672.02 105.658 672.668 104.812V106H674.72V96.082ZM677.751 103.246C677.751 105.262 678.849 106 680.613 106H682.233V104.29H680.973C680.109 104.29 679.821 103.984 679.821 103.246V97.756H682.233V96.082H679.821V93.616H677.751V96.082H676.581V97.756H677.751V103.246ZM684.124 106H686.176V96.082H684.124V106ZM685.168 94.768C685.888 94.768 686.464 94.192 686.464 93.454C686.464 92.716 685.888 92.14 685.168 92.14C684.43 92.14 683.854 92.716 683.854 93.454C683.854 94.192 684.43 94.768 685.168 94.768ZM687.701 96.082L691.463 106H693.911L697.691 96.082H695.513L692.705 104.164L689.897 96.082H687.701ZM703.418 97.648C704.948 97.648 706.154 98.62 706.19 100.15H700.7C700.916 98.584 702.032 97.648 703.418 97.648ZM708.062 103.048H705.848C705.47 103.822 704.768 104.434 703.508 104.434C701.996 104.434 700.826 103.444 700.682 101.806H708.26C708.314 101.464 708.332 101.14 708.332 100.798C708.332 97.882 706.334 95.92 703.508 95.92C700.574 95.92 698.558 97.918 698.558 101.032C698.558 104.146 700.664 106.162 703.508 106.162C705.938 106.162 707.504 104.776 708.062 103.048Z" fill="#212832"/>
<path d="M801 76H799V123H801V76Z" fill="#00ADEF" stroke="#00ADEF" stroke-width="0.936604"/>
<circle cx="436.415" cy="99.8506" r="23.4151" fill="#00ADEF" stroke="#00ADEF"/>
<path d="M425.56 99.6055C425.56 103.577 426.609 106.574 430.43 106.574C434.252 106.574 435.301 103.577 435.301 99.6055C435.301 95.7093 434.252 92.7121 430.43 92.7121C426.609 92.7121 425.56 95.7093 425.56 99.6055ZM433.203 99.6055C433.203 102.284 432.922 104.626 430.43 104.626C427.939 104.626 427.658 102.284 427.658 99.6055C427.658 97.058 427.939 94.6603 430.43 94.6603C432.922 94.6603 433.203 97.058 433.203 99.6055ZM438.122 92.9182V100.804H440.145C440.501 99.7929 441.344 99.0998 442.599 99.0998C444.379 99.0998 445.259 100.111 445.259 101.891C445.259 103.577 444.435 104.832 442.599 104.832C441.157 104.832 440.183 104.082 439.902 102.921H437.823C438.141 105.057 439.771 106.611 442.58 106.611C445.746 106.611 447.301 104.551 447.301 101.835C447.301 99.7741 446.271 97.2828 442.918 97.2828C441.7 97.2828 440.595 97.8447 440.089 98.5191V94.7914H446.364V92.9182H438.122Z" fill="#212832"/>
<g filter="url(#filter3_d_953_407)">
<rect x="437" y="1" width="365" height="47" fill="white" shape-rendering="crispEdges"/>
<rect x="436.766" y="0.765849" width="365.468" height="47.4683" stroke="black" stroke-opacity="0.2" stroke-width="0.468302" shape-rendering="crispEdges"/>
</g>
<path d="M802 1H800V48H802V1Z" fill="#A9CF54" stroke="#A9CF54" stroke-width="0.936604"/>
<path d="M487.565 26.418C487.565 27.624 486.719 28.326 485.333 28.326H482.561V24.42H485.261C486.629 24.42 487.565 25.176 487.565 26.418ZM487.241 20.964C487.241 22.116 486.431 22.746 485.099 22.746H482.561V19.164H485.099C486.431 19.164 487.241 19.83 487.241 20.964ZM489.617 26.634C489.617 25.14 488.537 23.808 487.205 23.574C488.411 23.142 489.329 22.224 489.329 20.712C489.329 18.948 487.925 17.49 485.279 17.49H480.509V30H485.513C488.069 30 489.617 28.542 489.617 26.634ZM500.829 20.082H498.777V25.608C498.777 27.426 497.787 28.362 496.275 28.362C494.781 28.362 493.791 27.426 493.791 25.608V20.082H491.757V25.914C491.757 28.686 493.521 30.144 495.843 30.144C497.013 30.144 498.129 29.658 498.777 28.812V30H500.829V20.082ZM510.935 27.228C510.827 23.646 505.229 24.762 505.229 22.764C505.229 22.098 505.805 21.648 506.903 21.648C508.019 21.648 508.685 22.242 508.757 23.106H510.809C510.701 21.126 509.225 19.92 506.975 19.92C504.635 19.92 503.159 21.198 503.159 22.782C503.159 26.418 508.919 25.302 508.919 27.246C508.919 27.93 508.289 28.434 507.101 28.434C505.967 28.434 505.193 27.768 505.121 26.958H502.997C503.087 28.758 504.761 30.162 507.137 30.162C509.477 30.162 510.935 28.902 510.935 27.228ZM513.152 30H515.204V20.082H513.152V30ZM514.196 18.768C514.916 18.768 515.492 18.192 515.492 17.454C515.492 16.716 514.916 16.14 514.196 16.14C513.458 16.14 512.882 16.716 512.882 17.454C512.882 18.192 513.458 18.768 514.196 18.768ZM524.936 30H526.97V24.15C526.97 21.378 525.224 19.92 522.902 19.92C521.714 19.92 520.616 20.406 519.95 21.216V20.082H517.898V30H519.95V24.456C519.95 22.638 520.94 21.702 522.452 21.702C523.946 21.702 524.936 22.638 524.936 24.456V30ZM533.763 21.648C535.293 21.648 536.499 22.62 536.535 24.15H531.045C531.261 22.584 532.377 21.648 533.763 21.648ZM538.407 27.048H536.193C535.815 27.822 535.113 28.434 533.853 28.434C532.341 28.434 531.171 27.444 531.027 25.806H538.605C538.659 25.464 538.677 25.14 538.677 24.798C538.677 21.882 536.679 19.92 533.853 19.92C530.919 19.92 528.903 21.918 528.903 25.032C528.903 28.146 531.009 30.162 533.853 30.162C536.283 30.162 537.849 28.776 538.407 27.048ZM548.095 27.228C547.987 23.646 542.389 24.762 542.389 22.764C542.389 22.098 542.965 21.648 544.063 21.648C545.179 21.648 545.845 22.242 545.917 23.106H547.969C547.861 21.126 546.385 19.92 544.135 19.92C541.795 19.92 540.319 21.198 540.319 22.782C540.319 26.418 546.079 25.302 546.079 27.246C546.079 27.93 545.449 28.434 544.261 28.434C543.127 28.434 542.353 27.768 542.281 26.958H540.157C540.247 28.758 541.921 30.162 544.297 30.162C546.637 30.162 548.095 28.902 548.095 27.228ZM557.71 27.228C557.602 23.646 552.004 24.762 552.004 22.764C552.004 22.098 552.58 21.648 553.678 21.648C554.794 21.648 555.46 22.242 555.532 23.106H557.584C557.476 21.126 556 19.92 553.75 19.92C551.41 19.92 549.934 21.198 549.934 22.782C549.934 26.418 555.694 25.302 555.694 27.246C555.694 27.93 555.064 28.434 553.876 28.434C552.742 28.434 551.968 27.768 551.896 26.958H549.772C549.862 28.758 551.536 30.162 553.912 30.162C556.252 30.162 557.71 28.902 557.71 27.228ZM568.689 17.49H564.603V30H568.689C572.703 30 575.331 27.642 575.331 23.79C575.331 19.92 572.703 17.49 568.689 17.49ZM566.655 28.326V19.164H568.689C571.641 19.164 573.225 20.928 573.225 23.79C573.225 26.634 571.641 28.326 568.689 28.326H566.655ZM581.541 21.648C583.071 21.648 584.277 22.62 584.313 24.15H578.823C579.039 22.584 580.155 21.648 581.541 21.648ZM586.185 27.048H583.971C583.593 27.822 582.891 28.434 581.631 28.434C580.119 28.434 578.949 27.444 578.805 25.806H586.383C586.437 25.464 586.455 25.14 586.455 24.798C586.455 21.882 584.457 19.92 581.631 19.92C578.697 19.92 576.681 21.918 576.681 25.032C576.681 28.146 578.787 30.162 581.631 30.162C584.061 30.162 585.627 28.776 586.185 27.048ZM587.304 20.082L591.066 30H593.514L597.294 20.082H595.116L592.308 28.164L589.5 20.082H587.304ZM603.021 21.648C604.551 21.648 605.757 22.62 605.793 24.15H600.303C600.519 22.584 601.635 21.648 603.021 21.648ZM607.665 27.048H605.451C605.073 27.822 604.371 28.434 603.111 28.434C601.599 28.434 600.429 27.444 600.285 25.806H607.863C607.917 25.464 607.935 25.14 607.935 24.798C607.935 21.882 605.937 19.92 603.111 19.92C600.177 19.92 598.161 21.918 598.161 25.032C598.161 28.146 600.267 30.162 603.111 30.162C605.541 30.162 607.107 28.776 607.665 27.048ZM609.954 30H612.006V16.68H609.954V30ZM624.151 25.032C624.151 21.918 621.919 19.92 619.093 19.92C616.267 19.92 614.035 21.918 614.035 25.032C614.035 28.146 616.177 30.162 619.003 30.162C621.847 30.162 624.151 28.146 624.151 25.032ZM616.123 25.032C616.123 22.782 617.509 21.702 619.057 21.702C620.587 21.702 622.045 22.782 622.045 25.032C622.045 27.282 620.533 28.38 619.003 28.38C617.455 28.38 616.123 27.282 616.123 25.032ZM628.231 21.54V20.082H626.179V34.716H628.231V28.56C628.879 29.334 630.049 30.162 631.687 30.162C634.297 30.162 636.349 28.056 636.349 24.996C636.349 21.936 634.297 19.92 631.687 19.92C630.067 19.92 628.861 20.712 628.231 21.54ZM634.261 24.996C634.261 27.138 632.785 28.38 631.237 28.38C629.707 28.38 628.231 27.174 628.231 25.032C628.231 22.908 629.707 21.702 631.237 21.702C632.785 21.702 634.261 22.854 634.261 24.996ZM652.436 30H654.47V24.15C654.47 21.378 652.706 19.92 650.384 19.92C648.944 19.92 647.54 20.676 646.928 21.882C646.244 20.586 644.93 19.92 643.364 19.92C642.176 19.92 641.096 20.406 640.43 21.216V20.082H638.378V30H640.43V24.456C640.43 22.638 641.42 21.702 642.932 21.702C644.426 21.702 645.416 22.638 645.416 24.456V30H647.45V24.456C647.45 22.638 648.44 21.702 649.952 21.702C651.446 21.702 652.436 22.638 652.436 24.456V30ZM661.257 21.648C662.787 21.648 663.993 22.62 664.029 24.15H658.539C658.755 22.584 659.871 21.648 661.257 21.648ZM665.901 27.048H663.687C663.309 27.822 662.607 28.434 661.347 28.434C659.835 28.434 658.665 27.444 658.521 25.806H666.099C666.153 25.464 666.171 25.14 666.171 24.798C666.171 21.882 664.173 19.92 661.347 19.92C658.413 19.92 656.397 21.918 656.397 25.032C656.397 28.146 658.503 30.162 661.347 30.162C663.777 30.162 665.343 28.776 665.901 27.048ZM675.229 30H677.263V24.15C677.263 21.378 675.517 19.92 673.195 19.92C672.007 19.92 670.909 20.406 670.243 21.216V20.082H668.191V30H670.243V24.456C670.243 22.638 671.233 21.702 672.745 21.702C674.239 21.702 675.229 22.638 675.229 24.456V30ZM680.204 27.246C680.204 29.262 681.302 30 683.066 30H684.686V28.29H683.426C682.562 28.29 682.274 27.984 682.274 27.246V21.756H684.686V20.082H682.274V17.616H680.204V20.082H679.034V21.756H680.204V27.246ZM698.165 17.472H691.253V30H698.165V28.326H693.305V24.492H697.625V22.818H693.305V19.146H698.165V17.472ZM705.823 30H708.145L704.941 24.978L708.145 20.082H706.003L703.987 23.448L701.845 20.082H699.523L702.727 25.122L699.523 30H701.665L703.681 26.634L705.823 30ZM713.851 21.648C715.381 21.648 716.587 22.62 716.623 24.15H711.133C711.349 22.584 712.465 21.648 713.851 21.648ZM718.495 27.048H716.281C715.903 27.822 715.201 28.434 713.941 28.434C712.429 28.434 711.259 27.444 711.115 25.806H718.693C718.747 25.464 718.765 25.14 718.765 24.798C718.765 21.882 716.767 19.92 713.941 19.92C711.007 19.92 708.991 21.918 708.991 25.032C708.991 28.146 711.097 30.162 713.941 30.162C716.371 30.162 717.937 28.776 718.495 27.048ZM720.101 25.032C720.101 28.146 722.117 30.162 724.961 30.162C727.391 30.162 728.975 28.812 729.533 26.868H727.319C726.941 27.894 726.185 28.434 724.961 28.434C723.305 28.434 722.207 27.21 722.207 25.032C722.207 22.872 723.305 21.648 724.961 21.648C726.185 21.648 726.977 22.26 727.319 23.214H729.533C728.975 21.126 727.391 19.92 724.961 19.92C722.117 19.92 720.101 21.936 720.101 25.032ZM740.56 20.082H738.508V25.608C738.508 27.426 737.518 28.362 736.006 28.362C734.512 28.362 733.522 27.426 733.522 25.608V20.082H731.488V25.914C731.488 28.686 733.252 30.144 735.574 30.144C736.744 30.144 737.86 29.658 738.508 28.812V30H740.56V20.082ZM743.591 27.246C743.591 29.262 744.689 30 746.453 30H748.073V28.29H746.813C745.949 28.29 745.661 27.984 745.661 27.246V21.756H748.073V20.082H745.661V17.616H743.591V20.082H742.421V21.756H743.591V27.246ZM749.964 30H752.016V20.082H749.964V30ZM751.008 18.768C751.728 18.768 752.304 18.192 752.304 17.454C752.304 16.716 751.728 16.14 751.008 16.14C750.27 16.14 749.694 16.716 749.694 17.454C749.694 18.192 750.27 18.768 751.008 18.768ZM753.54 20.082L757.302 30H759.75L763.53 20.082H761.352L758.544 28.164L755.736 20.082H753.54ZM769.257 21.648C770.787 21.648 771.993 22.62 772.029 24.15H766.539C766.755 22.584 767.871 21.648 769.257 21.648ZM773.901 27.048H771.687C771.309 27.822 770.607 28.434 769.347 28.434C767.835 28.434 766.665 27.444 766.521 25.806H774.099C774.153 25.464 774.171 25.14 774.171 24.798C774.171 21.882 772.173 19.92 769.347 19.92C766.413 19.92 764.397 21.918 764.397 25.032C764.397 28.146 766.503 30.162 769.347 30.162C771.777 30.162 773.343 28.776 773.901 27.048Z" fill="#212832"/>
<circle cx="436.415" cy="24.4151" r="23.4151" fill="#A9CF54" stroke="#A9CF54"/>
<path d="M426.136 24.17C426.136 28.1412 427.185 31.1383 431.007 31.1383C434.828 31.1383 435.877 28.1412 435.877 24.17C435.877 20.2737 434.828 17.2766 431.007 17.2766C427.185 17.2766 426.136 20.2737 426.136 24.17ZM433.779 24.17C433.779 26.8487 433.498 29.1902 431.007 29.1902C428.515 29.1902 428.234 26.8487 428.234 24.17C428.234 21.6224 428.515 19.2247 431.007 19.2247C433.498 19.2247 433.779 21.6224 433.779 24.17ZM437.968 30.9885H447.072V29.2089H441.134C443.325 27.2046 446.697 24.6758 446.697 21.3602C446.697 18.9063 445.124 17.2391 442.351 17.2391C439.935 17.2391 438.024 18.6815 437.949 21.6412H440.01C440.066 20.1051 440.871 19.0561 442.37 19.0561C443.962 19.0561 444.58 20.0302 444.58 21.4538C444.58 24.1325 441.19 26.6052 437.968 29.4337V30.9885Z" fill="#212832"/>
<g filter="url(#filter4_d_953_407)">
<rect x="860" y="1" width="365" height="47" fill="white" shape-rendering="crispEdges"/>
<rect x="859.766" y="0.765849" width="365.468" height="47.4683" stroke="black" stroke-opacity="0.2" stroke-width="0.468302" shape-rendering="crispEdges"/>
</g>
<path d="M1225 1H1223V48H1225V1Z" fill="#3498DB" stroke="#3498DB" stroke-width="0.936604"/>
<path d="M902.579 30H904.631V17.49H902.579V30ZM914.363 30H916.397V24.15C916.397 21.378 914.651 19.92 912.329 19.92C911.141 19.92 910.043 20.406 909.377 21.216V20.082H907.325V30H909.377V24.456C909.377 22.638 910.367 21.702 911.879 21.702C913.373 21.702 914.363 22.638 914.363 24.456V30ZM919.338 27.246C919.338 29.262 920.436 30 922.2 30H923.82V28.29H922.56C921.696 28.29 921.408 27.984 921.408 27.246V21.756H923.82V20.082H921.408V17.616H919.338V20.082H918.168V21.756H919.338V27.246ZM929.887 21.648C931.417 21.648 932.623 22.62 932.659 24.15H927.169C927.385 22.584 928.501 21.648 929.887 21.648ZM934.531 27.048H932.317C931.939 27.822 931.237 28.434 929.977 28.434C928.465 28.434 927.295 27.444 927.151 25.806H934.729C934.783 25.464 934.801 25.14 934.801 24.798C934.801 21.882 932.803 19.92 929.977 19.92C927.043 19.92 925.027 21.918 925.027 25.032C925.027 28.146 927.133 30.162 929.977 30.162C932.407 30.162 933.973 28.776 934.531 27.048ZM938.873 24.78C938.873 22.674 939.809 22.044 941.321 22.044H941.843V19.92C940.439 19.92 939.449 20.532 938.873 21.522V20.082H936.821V30H938.873V24.78ZM950.767 30H952.801V24.15C952.801 21.378 951.055 19.92 948.733 19.92C947.545 19.92 946.447 20.406 945.781 21.216V20.082H943.729V30H945.781V24.456C945.781 22.638 946.771 21.702 948.283 21.702C949.777 21.702 950.767 22.638 950.767 24.456V30ZM954.734 24.996C954.734 28.056 956.804 30.162 959.378 30.162C961.034 30.162 962.222 29.37 962.852 28.524V30H964.922V20.082H962.852V21.522C962.24 20.712 961.088 19.92 959.414 19.92C956.804 19.92 954.734 21.936 954.734 24.996ZM962.852 25.032C962.852 27.174 961.394 28.38 959.846 28.38C958.316 28.38 956.84 27.138 956.84 24.996C956.84 22.854 958.316 21.702 959.846 21.702C961.394 21.702 962.852 22.908 962.852 25.032ZM967.942 27.246C967.942 29.262 969.04 30 970.804 30H972.424V28.29H971.164C970.3 28.29 970.012 27.984 970.012 27.246V21.756H972.424V20.082H970.012V17.616H967.942V20.082H966.772V21.756H967.942V27.246ZM974.315 30H976.367V20.082H974.315V30ZM975.359 18.768C976.079 18.768 976.655 18.192 976.655 17.454C976.655 16.716 976.079 16.14 975.359 16.14C974.621 16.14 974.045 16.716 974.045 17.454C974.045 18.192 974.621 18.768 975.359 18.768ZM988.511 25.032C988.511 21.918 986.279 19.92 983.453 19.92C980.627 19.92 978.395 21.918 978.395 25.032C978.395 28.146 980.537 30.162 983.363 30.162C986.207 30.162 988.511 28.146 988.511 25.032ZM980.483 25.032C980.483 22.782 981.869 21.702 983.417 21.702C984.947 21.702 986.405 22.782 986.405 25.032C986.405 27.282 984.893 28.38 983.363 28.38C981.815 28.38 980.483 27.282 980.483 25.032ZM997.577 30H999.611V24.15C999.611 21.378 997.865 19.92 995.543 19.92C994.355 19.92 993.257 20.406 992.591 21.216V20.082H990.539V30H992.591V24.456C992.591 22.638 993.581 21.702 995.093 21.702C996.587 21.702 997.577 22.638 997.577 24.456V30ZM1001.54 24.996C1001.54 28.056 1003.61 30.162 1006.19 30.162C1007.84 30.162 1009.03 29.37 1009.66 28.524V30H1011.73V20.082H1009.66V21.522C1009.05 20.712 1007.9 19.92 1006.22 19.92C1003.61 19.92 1001.54 21.936 1001.54 24.996ZM1009.66 25.032C1009.66 27.174 1008.2 28.38 1006.66 28.38C1005.13 28.38 1003.65 27.138 1003.65 24.996C1003.65 22.854 1005.13 21.702 1006.66 21.702C1008.2 21.702 1009.66 22.908 1009.66 25.032ZM1014.43 30H1016.48V16.68H1014.43V30ZM1030.91 26.418C1030.91 27.624 1030.06 28.326 1028.67 28.326H1025.9V24.42H1028.6C1029.97 24.42 1030.91 25.176 1030.91 26.418ZM1030.58 20.964C1030.58 22.116 1029.77 22.746 1028.44 22.746H1025.9V19.164H1028.44C1029.77 19.164 1030.58 19.83 1030.58 20.964ZM1032.96 26.634C1032.96 25.14 1031.88 23.808 1030.55 23.574C1031.75 23.142 1032.67 22.224 1032.67 20.712C1032.67 18.948 1031.27 17.49 1028.62 17.49H1023.85V30H1028.85C1031.41 30 1032.96 28.542 1032.96 26.634ZM1044.17 20.082H1042.12V25.608C1042.12 27.426 1041.13 28.362 1039.62 28.362C1038.12 28.362 1037.13 27.426 1037.13 25.608V20.082H1035.1V25.914C1035.1 28.686 1036.86 30.144 1039.18 30.144C1040.35 30.144 1041.47 29.658 1042.12 28.812V30H1044.17V20.082ZM1054.28 27.228C1054.17 23.646 1048.57 24.762 1048.57 22.764C1048.57 22.098 1049.15 21.648 1050.24 21.648C1051.36 21.648 1052.03 22.242 1052.1 23.106H1054.15C1054.04 21.126 1052.57 19.92 1050.32 19.92C1047.98 19.92 1046.5 21.198 1046.5 22.782C1046.5 26.418 1052.26 25.302 1052.26 27.246C1052.26 27.93 1051.63 28.434 1050.44 28.434C1049.31 28.434 1048.53 27.768 1048.46 26.958H1046.34C1046.43 28.758 1048.1 30.162 1050.48 30.162C1052.82 30.162 1054.28 28.902 1054.28 27.228ZM1056.49 30H1058.54V20.082H1056.49V30ZM1057.54 18.768C1058.26 18.768 1058.83 18.192 1058.83 17.454C1058.83 16.716 1058.26 16.14 1057.54 16.14C1056.8 16.14 1056.22 16.716 1056.22 17.454C1056.22 18.192 1056.8 18.768 1057.54 18.768ZM1068.28 30H1070.31V24.15C1070.31 21.378 1068.56 19.92 1066.24 19.92C1065.05 19.92 1063.96 20.406 1063.29 21.216V20.082H1061.24V30H1063.29V24.456C1063.29 22.638 1064.28 21.702 1065.79 21.702C1067.29 21.702 1068.28 22.638 1068.28 24.456V30ZM1077.1 21.648C1078.63 21.648 1079.84 22.62 1079.88 24.15H1074.39C1074.6 22.584 1075.72 21.648 1077.1 21.648ZM1081.75 27.048H1079.53C1079.16 27.822 1078.45 28.434 1077.19 28.434C1075.68 28.434 1074.51 27.444 1074.37 25.806H1081.95C1082 25.464 1082.02 25.14 1082.02 24.798C1082.02 21.882 1080.02 19.92 1077.19 19.92C1074.26 19.92 1072.24 21.918 1072.24 25.032C1072.24 28.146 1074.35 30.162 1077.19 30.162C1079.62 30.162 1081.19 28.776 1081.75 27.048ZM1091.44 27.228C1091.33 23.646 1085.73 24.762 1085.73 22.764C1085.73 22.098 1086.31 21.648 1087.4 21.648C1088.52 21.648 1089.19 22.242 1089.26 23.106H1091.31C1091.2 21.126 1089.73 19.92 1087.48 19.92C1085.14 19.92 1083.66 21.198 1083.66 22.782C1083.66 26.418 1089.42 25.302 1089.42 27.246C1089.42 27.93 1088.79 28.434 1087.6 28.434C1086.47 28.434 1085.69 27.768 1085.62 26.958H1083.5C1083.59 28.758 1085.26 30.162 1087.64 30.162C1089.98 30.162 1091.44 28.902 1091.44 27.228ZM1101.05 27.228C1100.94 23.646 1095.34 24.762 1095.34 22.764C1095.34 22.098 1095.92 21.648 1097.02 21.648C1098.13 21.648 1098.8 22.242 1098.87 23.106H1100.92C1100.82 21.126 1099.34 19.92 1097.09 19.92C1094.75 19.92 1093.27 21.198 1093.27 22.782C1093.27 26.418 1099.03 25.302 1099.03 27.246C1099.03 27.93 1098.4 28.434 1097.22 28.434C1096.08 28.434 1095.31 27.768 1095.24 26.958H1093.11C1093.2 28.758 1094.88 30.162 1097.25 30.162C1099.59 30.162 1101.05 28.902 1101.05 27.228ZM1107.94 30H1110V21.432L1113.83 30H1115.25L1119.07 21.432V30H1121.12V17.49H1118.92L1114.55 27.3L1110.16 17.49H1107.94V30ZM1123.13 24.996C1123.13 28.056 1125.2 30.162 1127.78 30.162C1129.43 30.162 1130.62 29.37 1131.25 28.524V30H1133.32V20.082H1131.25V21.522C1130.64 20.712 1129.49 19.92 1127.81 19.92C1125.2 19.92 1123.13 21.936 1123.13 24.996ZM1131.25 25.032C1131.25 27.174 1129.79 28.38 1128.24 28.38C1126.71 28.38 1125.24 27.138 1125.24 24.996C1125.24 22.854 1126.71 21.702 1128.24 21.702C1129.79 21.702 1131.25 22.908 1131.25 25.032ZM1143.05 30H1145.09V24.15C1145.09 21.378 1143.34 19.92 1141.02 19.92C1139.83 19.92 1138.73 20.406 1138.07 21.216V20.082H1136.02V30H1138.07V24.456C1138.07 22.638 1139.06 21.702 1140.57 21.702C1142.06 21.702 1143.05 22.638 1143.05 24.456V30ZM1147.02 24.996C1147.02 28.056 1149.09 30.162 1151.67 30.162C1153.32 30.162 1154.51 29.37 1155.14 28.524V30H1157.21V20.082H1155.14V21.522C1154.53 20.712 1153.38 19.92 1151.7 19.92C1149.09 19.92 1147.02 21.936 1147.02 24.996ZM1155.14 25.032C1155.14 27.174 1153.68 28.38 1152.13 28.38C1150.6 28.38 1149.13 27.138 1149.13 24.996C1149.13 22.854 1150.6 21.702 1152.13 21.702C1153.68 21.702 1155.14 22.908 1155.14 25.032ZM1159.22 24.996C1159.22 28.056 1161.29 30.162 1163.9 30.162C1165.52 30.162 1166.71 29.352 1167.34 28.506V30.162C1167.34 32.142 1166.15 33.114 1164.57 33.114C1163.14 33.114 1162.05 32.412 1161.74 31.386H1159.71C1159.96 33.582 1161.92 34.896 1164.57 34.896C1167.66 34.896 1169.41 32.862 1169.41 30.162V20.082H1167.34V21.522C1166.73 20.676 1165.52 19.92 1163.9 19.92C1161.29 19.92 1159.22 21.936 1159.22 24.996ZM1167.34 25.032C1167.34 27.174 1165.88 28.38 1164.33 28.38C1162.8 28.38 1161.33 27.138 1161.33 24.996C1161.33 22.854 1162.8 21.702 1164.33 21.702C1165.88 21.702 1167.34 22.908 1167.34 25.032ZM1176.28 21.648C1177.81 21.648 1179.02 22.62 1179.05 24.15H1173.56C1173.78 22.584 1174.89 21.648 1176.28 21.648ZM1180.92 27.048H1178.71C1178.33 27.822 1177.63 28.434 1176.37 28.434C1174.86 28.434 1173.69 27.444 1173.54 25.806H1181.12C1181.18 25.464 1181.19 25.14 1181.19 24.798C1181.19 21.882 1179.2 19.92 1176.37 19.92C1173.44 19.92 1171.42 21.918 1171.42 25.032C1171.42 28.146 1173.53 30.162 1176.37 30.162C1178.8 30.162 1180.37 28.776 1180.92 27.048ZM1185.27 24.78C1185.27 22.674 1186.2 22.044 1187.71 22.044H1188.24V19.92C1186.83 19.92 1185.84 20.532 1185.27 21.522V20.082H1183.21V30H1185.27V24.78Z" fill="#212832"/>
<circle cx="856.415" cy="24.415" r="23.415" fill="#3498DB" stroke="#3498DB"/>
<path d="M845.548 24.9942C845.548 28.9654 846.597 31.9625 850.418 31.9625C854.24 31.9625 855.289 28.9654 855.289 24.9942C855.289 21.0979 854.24 18.1008 850.418 18.1008C846.597 18.1008 845.548 21.0979 845.548 24.9942ZM853.191 24.9942C853.191 27.6729 852.91 30.0144 850.418 30.0144C847.927 30.0144 847.646 27.6729 847.646 24.9942C847.646 22.4466 847.927 20.0489 850.418 20.0489C852.91 20.0489 853.191 22.4466 853.191 24.9942ZM857.511 21.7161H859.59C859.721 20.7608 860.414 19.8616 861.913 19.8616C863.374 19.8616 864.142 20.6484 864.142 21.8285C864.142 23.2896 862.962 23.8515 861.032 23.8703H860.527V25.6311H861.014C863.243 25.6311 864.404 26.2493 864.404 28.0475C864.404 29.3213 863.617 30.2954 862.025 30.2954C860.414 30.2954 859.478 29.3213 859.384 28.0475H857.323C857.454 30.7262 859.459 32.0749 862.044 32.0749C864.891 32.0749 866.427 30.4265 866.427 28.2536C866.427 26.3616 865.509 25.1815 864.086 24.7507V24.6758C865.153 24.3198 866.184 23.2147 866.184 21.585C866.184 19.5994 864.704 18.0259 861.988 18.0259C859.496 18.0259 857.661 19.3558 857.511 21.7161Z" fill="#212832"/>
<defs>
<filter id="filter0_d_953_407" x="23.5312" y="0.531738" width="365.938" height="47.9365" filterUnits="userSpaceOnUse" color-interpolation-filters="sRGB">
<feFlood flood-opacity="0" result="BackgroundImageFix"/>
<feColorMatrix in="SourceAlpha" type="matrix" values="0 0 0 0 0 0 0 0 0 0 0 0 0 0 0 0 0 0 127 0" result="hardAlpha"/>
<feOffset/>
<feComposite in2="hardAlpha" operator="out"/>
<feColorMatrix type="matrix" values="0 0 0 0 0 0 0 0 0 0 0 0 0 0 0 0 0 0 0.1 0"/>
<feBlend mode="normal" in2="BackgroundImageFix" result="effect1_dropShadow_953_407"/>
<feBlend mode="normal" in="SourceGraphic" in2="effect1_dropShadow_953_407" result="shape"/>
</filter>
<filter id="filter1_d_953_407" x="23.5312" y="75.5317" width="365.938" height="47.9365" filterUnits="userSpaceOnUse" color-interpolation-filters="sRGB">
<feFlood flood-opacity="0" result="BackgroundImageFix"/>
<feColorMatrix in="SourceAlpha" type="matrix" values="0 0 0 0 0 0 0 0 0 0 0 0 0 0 0 0 0 0 127 0" result="hardAlpha"/>
<feOffset/>
<feComposite in2="hardAlpha" operator="out"/>
<feColorMatrix type="matrix" values="0 0 0 0 0 0 0 0 0 0 0 0 0 0 0 0 0 0 0.1 0"/>
<feBlend mode="normal" in2="BackgroundImageFix" result="effect1_dropShadow_953_407"/>
<feBlend mode="normal" in="SourceGraphic" in2="effect1_dropShadow_953_407" result="shape"/>
</filter>
<filter id="filter2_d_953_407" x="435.531" y="75.5317" width="365.938" height="47.9365" filterUnits="userSpaceOnUse" color-interpolation-filters="sRGB">
<feFlood flood-opacity="0" result="BackgroundImageFix"/>
<feColorMatrix in="SourceAlpha" type="matrix" values="0 0 0 0 0 0 0 0 0 0 0 0 0 0 0 0 0 0 127 0" result="hardAlpha"/>
<feOffset/>
<feComposite in2="hardAlpha" operator="out"/>
<feColorMatrix type="matrix" values="0 0 0 0 0 0 0 0 0 0 0 0 0 0 0 0 0 0 0.1 0"/>
<feBlend mode="normal" in2="BackgroundImageFix" result="effect1_dropShadow_953_407"/>
<feBlend mode="normal" in="SourceGraphic" in2="effect1_dropShadow_953_407" result="shape"/>
</filter>
<filter id="filter3_d_953_407" x="436.531" y="0.531738" width="365.938" height="47.9365" filterUnits="userSpaceOnUse" color-interpolation-filters="sRGB">
<feFlood flood-opacity="0" result="BackgroundImageFix"/>
<feColorMatrix in="SourceAlpha" type="matrix" values="0 0 0 0 0 0 0 0 0 0 0 0 0 0 0 0 0 0 127 0" result="hardAlpha"/>
<feOffset/>
<feComposite in2="hardAlpha" operator="out"/>
<feColorMatrix type="matrix" values="0 0 0 0 0 0 0 0 0 0 0 0 0 0 0 0 0 0 0.1 0"/>
<feBlend mode="normal" in2="BackgroundImageFix" result="effect1_dropShadow_953_407"/>
<feBlend mode="normal" in="SourceGraphic" in2="effect1_dropShadow_953_407" result="shape"/>
</filter>
<filter id="filter4_d_953_407" x="859.531" y="0.531738" width="365.938" height="47.9365" filterUnits="userSpaceOnUse" color-interpolation-filters="sRGB">
<feFlood flood-opacity="0" result="BackgroundImageFix"/>
<feColorMatrix in="SourceAlpha" type="matrix" values="0 0 0 0 0 0 0 0 0 0 0 0 0 0 0 0 0 0 127 0" result="hardAlpha"/>
<feOffset/>
<feComposite in2="hardAlpha" operator="out"/>
<feColorMatrix type="matrix" values="0 0 0 0 0 0 0 0 0 0 0 0 0 0 0 0 0 0 0.1 0"/>
<feBlend mode="normal" in2="BackgroundImageFix" result="effect1_dropShadow_953_407"/>
<feBlend mode="normal" in="SourceGraphic" in2="effect1_dropShadow_953_407" result="shape"/>
</filter>
</defs>
</svg>
