<svg width="396" height="345" viewBox="0 0 396 345" fill="none" xmlns="http://www.w3.org/2000/svg">
<path d="M0 344V0H396V344H0Z" fill="url(#paint0_linear_214_1493)"/>
<path d="M188.018 228.366H187.359V297.898H188.018V228.366Z" fill="#E0E0E0"/>
<path d="M235.136 228.366H234.478V297.898H235.136V228.366Z" fill="#E0E0E0"/>
<path d="M282.265 228.366H281.606V297.898H282.265V228.366Z" fill="#E0E0E0"/>
<path d="M151.867 219.793H140.576V221.601H151.867V219.793Z" fill="#D9D9D9"/>
<path d="M156.585 223.146H140.576V224.954H156.585V223.146Z" fill="#D9D9D9"/>
<path d="M200.434 219.793H187.179V221.601H200.434V219.793Z" fill="#D9D9D9"/>
<path d="M195.656 223.146H187.179V224.954H195.656V223.146Z" fill="#D9D9D9"/>
<path d="M243.361 219.793H235.146V221.601H243.361V219.793Z" fill="#D9D9D9"/>
<path d="M244.714 223.146H235.146V224.954H244.714V223.146Z" fill="#D9D9D9"/>
<path d="M294.225 219.793H282.263V221.601H294.225V219.793Z" fill="#D9D9D9"/>
<path d="M291.83 223.146H282.263V224.954H291.83V223.146Z" fill="#D9D9D9"/>
<path d="M195.188 302.005H187.692V304.424H195.188V302.005Z" fill="#B8B8B8"/>
<path d="M242.642 302.005H235.146V304.424H242.642V302.005Z" fill="#B8B8B8"/>
<path d="M289.758 302.005H282.263V304.424H289.758V302.005Z" fill="#B8B8B8"/>
<g opacity="0.43">
<path d="M312.725 277.231C298.033 277.231 285.257 270.873 271.93 264.252C255.49 256.074 238.487 247.62 215.833 249.931C201.368 251.404 192.292 257.295 184.282 262.504C177.025 267.209 170.176 271.352 160.885 271.7C145.87 272.274 140.673 265.868 140.577 265.473V261.378C140.601 261.45 143.87 268.634 160.861 268.55C169.23 268.503 175.409 264.503 182.557 259.857C190.867 254.469 200.291 248.351 215.509 246.794C239.074 244.387 256.496 253.044 273.331 261.426C290.956 270.191 307.78 278.405 329.045 271.28V274.657C322.986 276.693 318.137 277.231 312.725 277.231Z" fill="url(#paint1_linear_214_1493)"/>
</g>
<g opacity="0.22">
<path d="M224.503 276.441C213.655 276.441 205.045 269.149 196.628 262.001C190.246 256.589 183.612 251.045 175.961 248.315C152.612 239.981 140.674 255.2 140.566 255.331V250.697C140.698 250.542 142.817 247.776 148.984 245.13C154.6 242.723 164.011 240.807 176.991 245.321C185.217 248.183 192.054 253.978 198.663 259.582C212.062 270.945 223.641 280.764 243.745 265.389C258.976 253.751 273.32 242.651 287.449 238.592C301.267 234.629 315.66 237.526 329.142 251.009L329.046 255.212C300.417 226.45 276.026 244.675 245.673 267.892C237.626 274.058 230.705 276.441 224.503 276.441Z" fill="url(#paint2_linear_214_1493)"/>
</g>
<path d="M232.477 211.747L231.998 211.196L239.937 204.431H244.762L255.694 195.115L262.531 200.934H267.584L270.135 203.113L278.049 196.36H282.073L298.74 182.159L299.219 182.722L282.348 197.103H278.325L270.135 204.083L267.309 201.677H262.268L255.694 196.073L245.026 205.161H240.212L232.477 211.747Z" fill="url(#paint3_linear_214_1493)"/>
<path d="M233.627 202.407H230.885V201.677H233.315L237.434 197.558L240.428 200.551L247.588 193.391L249.791 195.594L257.048 188.338L261.394 192.684H266.351L273.991 185.033H280.588L285.473 180.16H291.436L297.363 174.233L297.89 174.759L291.748 180.902H285.773L280.899 185.775H274.302L266.651 193.427H261.083L257.048 189.379L249.791 196.636L247.588 194.432L240.428 201.593L237.434 198.599L233.627 202.407Z" fill="url(#paint4_linear_214_1493)"/>
<path d="M306.883 204.083C306.883 204.071 306.871 204.047 306.871 204.035C299.818 179.429 282.205 158.403 257.886 147.579C253.719 145.711 249.348 144.154 244.81 142.933C233.447 139.88 222.012 139.185 211.008 140.55C210.996 140.55 210.984 140.55 210.984 140.55H210.972C203.573 141.472 196.364 143.328 189.515 146.034C189.503 146.034 189.491 146.046 189.479 146.046C164.322 155.937 144.027 177.238 136.459 205.341C123.767 252.517 151.702 301.035 198.867 313.716C223.078 320.229 247.648 316.039 267.549 304.029L271.261 309.19L288.766 296.581L284.54 290.714C295.088 280.141 303.087 266.754 307.242 251.296C311.552 235.239 311.157 219.003 306.883 204.083ZM242.14 284.883C210.877 296.09 176.44 279.83 165.244 248.566C154.252 217.877 169.711 184.147 199.837 172.317C200.411 172.089 200.986 171.874 201.561 171.67C205.824 170.138 210.146 169.12 214.469 168.581C225.533 167.204 236.548 168.976 246.379 173.37C260.819 179.824 272.709 191.93 278.469 207.987C278.924 209.256 279.331 210.525 279.69 211.794C288.323 241.992 272.135 274.13 242.14 284.883Z" fill="url(#paint5_linear_214_1493)"/>
<path d="M324.303 199.078L306.869 204.047L279.676 211.794C279.317 210.525 278.898 209.256 278.455 207.987C272.696 191.918 260.806 179.812 246.365 173.37L257.872 147.591L259.081 144.873L265.272 131.019C294.596 144.059 315.813 169.419 324.303 199.078Z" fill="#007FE6"/>
<path d="M259.096 144.873L257.887 147.591L246.368 173.37C236.537 168.976 225.533 167.204 214.458 168.581L210.985 140.562L210.626 137.629C222.001 136.216 233.831 136.934 245.578 140.095C250.271 141.34 254.785 142.945 259.096 144.873Z" fill="#0064B5"/>
<path d="M214.456 168.581C210.145 169.12 205.811 170.138 201.548 171.67C200.961 171.874 200.387 172.101 199.824 172.317L189.49 146.046L186.365 138.096C193.885 135.114 201.799 133.079 209.93 132.073H209.942L210.624 137.629L210.983 140.562L214.456 168.581Z" fill="#004E8C"/>
<path d="M327.358 344.476H292.502L268.279 310.83L291.233 294.306L327.358 344.476Z" fill="url(#paint6_linear_214_1493)"/>
<path d="M202.984 125.966C202.984 125.966 201.726 123.655 201.008 122.829C200.29 122.003 197.919 121.38 198.242 120.315C198.565 119.249 201.75 119.716 202.624 120.758C203.499 121.799 206.169 122.158 206.264 122.602C206.36 123.045 205.331 125.439 204.768 125.822C204.193 126.218 202.984 125.966 202.984 125.966Z" fill="#6A75BA"/>
<path d="M197.642 127.918C197.642 127.918 195.595 126.301 194.613 125.822C193.631 125.344 191.2 125.715 191.081 124.613C190.961 123.512 194.062 122.673 195.271 123.272C196.493 123.871 199.091 123.152 199.342 123.524C199.606 123.895 199.618 126.493 199.247 127.08C198.875 127.666 197.642 127.918 197.642 127.918Z" fill="#545D94"/>
<path d="M202.181 132.145C202.181 132.145 203.079 126.038 203.031 124.972C203.019 124.673 204.875 124.781 204.779 125.367C204.588 126.637 205.45 131.546 205.294 132.444C205.162 133.342 202.109 132.707 202.181 132.145Z" fill="#EEA886"/>
<path d="M199.39 133.893C199.39 133.893 197.714 127.966 197.331 126.972C197.163 126.529 198.864 125.858 199.091 126.637C199.45 127.87 202.156 132.037 202.372 132.923C202.587 133.809 199.534 134.444 199.39 133.893Z" fill="#EEA886"/>
<path d="M200.552 138.012C200.552 138.012 198.756 131.953 198.48 131.306L201.318 129.558C201.318 129.558 202.635 133.426 202.815 134.396C202.995 135.366 200.552 138.012 200.552 138.012Z" fill="#D9D3C8"/>
<path d="M250.721 122.003C250.721 122.003 247.979 122.697 246.686 124.769C245.381 126.84 244.255 129.223 241.813 130.301C239.37 131.378 239.346 134.168 239.538 134.599C239.729 135.03 247.249 143.484 248.889 143.807C250.53 144.13 253.607 143.903 253.272 141.736C252.948 139.568 249.727 134.887 251.535 132.54C253.343 130.181 253.798 128.014 253.798 128.014L250.721 122.003Z" fill="#222538"/>
<path d="M250.256 132.109C250.256 132.109 250.172 132.085 250.04 132.073C249.884 132.061 249.657 132.061 249.405 132.145C249.346 132.169 249.25 132.204 249.154 132.264C248.507 132.648 246.963 133.689 246.759 133.713C246.52 133.737 246.723 130.145 246.723 130.145C246.723 130.145 247.537 128.696 247.645 127.738C247.741 126.792 250.256 132.109 250.256 132.109Z" fill="#EEA886"/>
<path d="M230.989 135.857C230.989 135.857 227.983 133.749 224.451 134.408C220.931 135.066 220.548 136.719 219.338 136.791C218.129 136.862 214.082 136.515 210.765 137.485C207.448 138.455 204.646 138.563 204.263 138.275C203.88 138 206.335 132.468 206.335 131.702L202.216 130.624C202.216 130.624 201.042 135.533 200.575 136.635C200.084 137.82 199.138 140.047 200.48 141.987C201.833 143.927 205.592 143.053 207.879 143.436C210.166 143.831 220.368 143.58 222.152 143.484C224.092 143.376 229.935 143.101 229.935 143.101L230.989 135.857Z" fill="#D9D3C8"/>
<path d="M255.692 124.936C255.692 124.936 255.884 127.906 255.225 128.804C254.962 129.163 254.782 129.355 254.662 129.463C254.495 129.606 254.363 129.798 254.291 130.001C254.088 130.576 253.956 131.378 253.8 131.546C253.621 131.738 253.106 131.259 252.926 131.259C252.735 131.259 250.926 132.815 250.495 132.504C250.064 132.181 247.418 129.51 247.646 127.666C247.873 125.834 248.675 123.092 251.645 123.104C254.614 123.104 255.465 124.194 255.692 124.936Z" fill="#EEA886"/>
<path d="M246.712 139.113C246.652 139.233 245.562 140.981 244.365 141.999C243.862 142.418 243.347 142.718 242.892 142.718C242.749 142.718 242.617 142.718 242.473 142.718C241.096 142.753 240.042 142.969 238.187 143.053C236.259 143.149 231.589 142.885 231.445 142.885C231.302 142.885 229.961 143.125 229.961 143.125C229.482 142.538 230.751 135.904 231.002 135.869C231.242 135.833 232.798 136.419 234.283 136.18C235.768 135.94 236.355 135.797 238.57 133.21C240.785 130.612 243 129.965 243.934 130.169C244.868 130.373 246.724 130.169 246.724 130.169C246.724 130.169 246.796 138.934 246.712 139.113Z" fill="#FFC955"/>
<path d="M254.445 127.056C254.445 127.056 254.996 128.493 255.295 128.684C255.295 128.684 256.361 127.559 255.678 124.769C254.996 121.979 252.398 121.715 250.733 122.003C248.65 122.35 246.554 129.403 246.662 130.085C246.77 130.768 249.105 126.445 251.14 126.792C253.188 127.14 253.2 127.247 254.445 127.056Z" fill="#222538"/>
<path d="M250.04 132.073C249.884 132.061 249.657 132.073 249.405 132.157C249.345 132.181 249.249 132.205 249.154 132.264C248.675 131.522 248.232 129.75 248.22 129.69C248.531 130.373 250.04 132.073 250.04 132.073Z" fill="#A77860"/>
<path d="M244.364 141.987C243.861 142.406 243.346 142.706 242.891 142.706C242.747 142.706 242.615 142.706 242.472 142.706L243.154 137.198L244.364 141.987Z" fill="#C29941"/>
<path d="M255.117 151.47L253.788 152.68C252.639 152.069 249.777 149.998 249.226 149.531C248.651 149.04 244.784 145.807 244.257 145.076C243.718 144.346 243.048 136.731 243.12 136.383C243.191 136.036 246.472 135.868 246.843 136.671C246.843 136.671 247.011 141.005 247.107 141.736C247.191 142.466 247.466 143.113 247.969 143.723C248.663 144.573 250.124 146.537 251.549 148.118C251.884 148.489 254.686 151.087 255.117 151.47Z" fill="#EEA886"/>
<path d="M247.117 136.755C247.117 136.755 247.321 130.983 245.441 131.055C243.07 131.151 242.711 134.048 243.034 137.21C243.034 137.21 246.578 137.245 247.117 136.755Z" fill="#FFC955"/>
<path d="M254.482 150.896C254.482 150.896 254.661 151.171 254.913 151.255C255.356 151.399 256.014 151.111 256.326 151.698C256.649 152.273 255.092 153.721 254.673 153.817C254.254 153.901 253.584 153.254 253.057 151.973C252.542 150.692 254.482 150.896 254.482 150.896Z" fill="#EEA886"/>
<path d="M256.195 151.53C256.195 151.53 256.985 152.129 257.788 152.907C258.494 153.59 259.213 154.488 259.033 154.655C258.781 154.883 258.303 154.117 257.56 153.482C256.878 152.907 256.914 153.123 256.914 153.123C256.914 153.123 256.902 153.063 257.536 153.829C258.207 154.655 258.901 155.649 258.698 155.781C258.566 155.865 258.566 155.889 258.267 155.625C258.398 155.817 258.374 155.877 258.303 155.937C257.931 156.248 256.746 155.182 256.279 154.751C256.638 155.086 256.866 155.362 256.495 155.398C256.075 155.446 254.483 153.853 253.86 153.338C253.178 152.787 256.195 151.53 256.195 151.53Z" fill="#EEA886"/>
<path d="M232.343 136.12C232.343 136.12 231.708 140.67 232.02 142.897C232.02 142.897 232.355 143.149 233.013 142.945C233.013 142.945 233.181 137.988 233.54 136.228C233.54 136.228 233.337 136.072 232.343 136.12Z" fill="#E0E0E0"/>
<path d="M232.992 105H232.501V139.568H232.992V105Z" fill="#E0E0E0"/>
<path d="M309.226 284.69H318.745V284.019H309.226V284.69Z" fill="white"/>
<path d="M309.226 288.084H318.745V285.282H309.226V288.084Z" fill="white"/>
<path d="M304.752 289.445H310.368V289.026H304.752V289.445Z" fill="white"/>
<path d="M304.752 290.767H310.368V289.629H304.752V290.767Z" fill="white"/>
<path d="M320.308 288.282H320.728V280.427H320.308V288.282Z" fill="white"/>
<path d="M62.0773 233.108H71.2253L68.4354 227.301H59.2754L62.0773 233.108Z" fill="url(#paint7_linear_214_1493)"/>
<path d="M62.0773 233.108H71.2253L68.4354 227.301H59.2754L62.0773 233.108Z" fill="url(#paint8_linear_214_1493)"/>
<path d="M57.8019 233.108H59.9811L57.1792 227.301H55L57.8019 233.108Z" fill="url(#paint9_linear_214_1493)"/>
<path d="M57.8019 233.108H59.9811L57.1792 227.301H55L57.8019 233.108Z" fill="url(#paint10_linear_214_1493)"/>
<path d="M303.674 128.66H313.816V124.745H303.674V128.66Z" fill="url(#paint11_linear_214_1493)"/>
<path d="M303.672 128.66H313.814V124.745H303.672V128.66Z" fill="url(#paint12_linear_214_1493)"/>
<path d="M303.674 123.655H313.816V122.925H303.674V123.655Z" fill="url(#paint13_linear_214_1493)"/>
<path d="M303.672 123.655H313.814V122.925H303.672V123.655Z" fill="url(#paint14_linear_214_1493)"/>
<path d="M152.109 213.567H85.9891C84.4445 213.567 83.1992 212.321 83.1992 210.777V210.07C83.1992 208.526 84.4445 207.28 85.9891 207.28H152.109C153.653 207.28 154.898 208.526 154.898 210.07V210.777C154.898 212.321 153.641 213.567 152.109 213.567Z" fill="url(#paint15_linear_214_1493)"/>
<path d="M192.927 299.802H229.327L217.856 335.041L218.922 335.388L230.884 298.677H192.101L180.271 335.041L181.336 335.388L192.927 299.802Z" fill="#616587"/>
<path d="M205.319 335.041L193.836 299.802H230.236L241.827 335.388L242.904 335.041L231.062 298.677H192.291L204.241 335.388L205.319 335.041Z" fill="#616587"/>
<path d="M234.093 309.776H189.538V310.902H234.093V309.776Z" fill="#616587"/>
<path d="M238.26 322.025H184.952V323.151H238.26V322.025Z" fill="#616587"/>
<path d="M211.161 219.398C211.161 219.398 212.071 217.805 210.635 213.555C209.246 209.436 204.42 209.807 202.888 212.453C201.355 215.087 201.87 216.728 204.133 219.709C206.384 222.679 210.227 220.751 211.161 219.398Z" fill="#EEA886"/>
<path d="M199.979 292.618C199.979 292.618 199.739 294.366 199.715 294.629C199.691 294.893 197.069 294.474 197.069 294.474L196.854 292.39C196.842 292.39 199.643 292.366 199.979 292.618Z" fill="#EEA886"/>
<path d="M199.738 294.402C199.738 294.402 200.564 295.456 201.378 295.911C202.181 296.366 203.45 296.557 203.917 297.024C204.264 297.371 205.162 298.844 201.833 298.808C198.493 298.772 196.888 299.012 196.529 298.449C196.17 297.886 197.044 294.27 197.044 294.27C197.044 294.27 197.846 294.522 199.738 294.402Z" fill="#152B3D"/>
<path d="M218.132 292.618C218.132 292.618 217.893 294.366 217.869 294.629C217.833 294.893 215.211 294.474 215.211 294.474L214.995 292.39C214.995 292.39 217.809 292.366 218.132 292.618Z" fill="#EEA886"/>
<path d="M217.89 294.402C217.89 294.402 218.717 295.456 219.531 295.911C220.345 296.366 223.291 296.749 223.769 297.228C224.117 297.575 224.679 298.952 219.986 298.82C216.645 298.724 215.041 299.024 214.681 298.461C214.322 297.898 215.196 294.282 215.196 294.282C215.196 294.282 216.226 294.474 217.89 294.402Z" fill="#152B3D"/>
<path d="M200.852 249.093C200.852 249.093 199.511 253.272 199.679 256.876C199.859 260.48 198.984 264.419 198.625 268.179C198.23 272.37 196.602 282.296 196.542 284.547C196.482 286.787 196.793 293.959 196.793 293.959L200.05 294.043C200.05 294.043 202.78 276.693 203.499 274.921C204.205 273.148 207.725 260.528 207.833 259.103C207.965 257.666 200.852 249.093 200.852 249.093Z" fill="#FFC05C"/>
<path d="M214.36 248.662C214.36 248.662 216.335 259.714 216.575 261.917C216.814 264.12 216.97 272.586 217.09 273.963C217.21 275.34 217.88 291.983 218.503 294.031H214.875C214.875 294.031 211.151 281.925 211.151 276.202C211.151 270.478 208.684 263.749 207.092 259.977C205.499 256.193 201.847 256.11 200.865 249.105C200.853 249.093 213.031 246.435 214.36 248.662Z" fill="#FFC05C"/>
<path d="M209.846 220.511C209.846 220.511 209.439 221.709 209.846 222.559C210.253 223.409 204.614 222.894 204.614 222.894C204.614 222.894 204.865 221.134 204.135 219.685C203.392 218.248 209.846 220.511 209.846 220.511Z" fill="#EEA886"/>
<path d="M200.603 250.003C200.603 250.003 202.626 252.086 214.552 249.68L214.372 248.662L200.83 249.177L200.603 250.003Z" fill="#FFC05C"/>
<path d="M210.709 222.834C210.709 222.834 212.792 223.05 213.391 223.158C213.989 223.265 217.989 222.439 218.815 222.355C219.641 222.272 223.149 219.865 223.257 219.589C223.365 219.302 225.388 214.189 225.508 213.088C225.616 211.986 227.472 212.549 227.316 213.315C227.017 214.74 226.634 218.2 226.43 219.206C226.203 220.284 225.604 222.739 225.257 223.05C224.909 223.361 221.76 225.756 218.671 226.774C215.582 227.792 213.259 229.3 213.259 229.3H198.028C198.028 229.3 192.101 220.835 191.981 219.554C191.85 218.272 196.124 209.795 196.975 208.729C197.825 207.664 199.058 209.076 199.058 209.076C199.058 209.076 196.508 216.56 196.172 217.614C195.837 218.679 199.142 223.349 200.04 223.361C200.95 223.373 203.273 223.074 204.315 223.038C205.344 222.99 206.446 222.547 206.446 222.547L210.709 222.834Z" fill="#EEA886"/>
<path d="M217.267 228.498C217.267 228.498 215.4 229.743 215.232 231.863C215.064 233.982 214.382 237.347 214.046 238.496C213.711 239.646 214.346 247.979 214.43 248.578C214.513 249.177 202.647 250.59 200.815 249.177C200.815 249.177 200.301 241.394 200.097 239.179C199.881 236.963 198.864 231.611 198.528 230.881C198.193 230.162 194.062 224.367 193.895 223.613C193.895 223.613 196.026 220.212 197.559 220.164C197.559 220.164 199.989 223.014 200.779 223.146C201.57 223.277 206.431 222.379 206.431 222.379C206.431 222.379 206.958 223.098 209.784 222.248C209.784 222.248 213.136 222.631 213.687 222.691C214.346 222.774 218.944 222.116 218.944 222.116C218.944 222.116 220.788 225.229 220.464 226.81L217.267 228.498Z" fill="#254380"/>
<path d="M225.387 213.746C225.387 213.746 225.806 211.771 225.303 211.208C225.015 210.885 224.333 210.034 224.273 209.903C224.213 209.783 223.471 209.352 223.471 209.148C223.471 208.945 224.189 208.693 224.824 209.268C225.446 209.843 225.842 209.975 226.093 209.915C226.344 209.855 226.704 207.771 226.74 207.256C226.775 206.742 226.967 205.377 227.29 205.472C227.614 205.568 227.602 206.167 227.602 206.167C227.602 206.167 227.973 205.137 228.224 205.341C228.476 205.544 228.44 206.047 228.44 206.047C228.44 206.047 228.907 205.472 229.039 205.891C229.158 206.311 229.039 206.694 229.039 206.694C229.039 206.694 229.529 206.43 229.553 207.089C229.589 207.747 229.41 209.675 229.062 210.358C228.715 211.052 227.422 212.848 227.278 213.555C227.123 214.249 225.387 213.746 225.387 213.746Z" fill="#EEA886"/>
<path d="M198.613 210.286C198.613 210.286 200.026 207.903 200.517 207.688C200.996 207.472 201.678 207.352 202.277 206.933C202.876 206.502 203.654 206.155 203.618 206.011C203.57 205.867 202.876 205.927 202.122 206.251C201.367 206.574 201.044 206.418 200.972 206.251C200.9 206.083 201.367 204.874 201.595 204.598C201.822 204.311 203.439 202.694 203.163 202.443C202.888 202.203 201.846 203.09 201.678 203.281C201.678 203.281 202.517 201.521 202.193 201.437C201.87 201.353 201.259 201.976 201.259 201.976C201.259 201.976 201.331 200.467 199.715 202.91C199.715 202.91 200.05 202.108 199.559 202.371C199.068 202.647 198.577 204.155 198.422 204.922C198.266 205.688 197.56 208.131 196.949 208.717C196.338 209.304 198.613 210.286 198.613 210.286Z" fill="#EEA886"/>
<path d="M204.134 219.697C204.134 219.697 204.876 219.769 206.469 219.218C208.061 218.667 208.181 215.89 208.516 216.225C209.223 216.895 209.881 216.428 210.145 216.033C210.145 216.033 209.366 215.015 209.726 214.525C210.085 214.034 210.671 213.674 210.671 213.674C210.671 213.674 209.558 208.286 204.469 210.741C198.518 213.603 204.134 219.697 204.134 219.697Z" fill="#353A3D"/>
<path d="M209.848 222.559L209.669 221.781C209.669 221.781 206.424 221.721 204.652 221.972L204.46 222.906C204.472 222.906 206.735 223.936 209.848 222.559Z" fill="#254380"/>
<path d="M209.043 215.542C208.744 215.051 207.654 214.728 207.535 216.105C207.439 217.183 209.486 218.356 209.498 217.35C209.522 216.345 209.247 215.866 209.043 215.542Z" fill="#EEA886"/>
<path d="M225.474 213.303C225.474 213.303 226.647 213.327 227.21 213.842C227.21 213.842 227.246 214.165 227.114 214.429C227.114 214.429 226.097 213.95 225.318 213.866C225.318 213.866 225.33 213.435 225.474 213.303Z" fill="#E55353"/>
<path d="M226.851 213.591C226.959 213.842 226.839 214.141 226.588 214.249C226.336 214.357 226.037 214.237 225.929 213.986C225.822 213.734 225.941 213.435 226.193 213.327C226.444 213.219 226.744 213.339 226.851 213.591Z" fill="#353A3D"/>
<path d="M319.31 240.891C319.31 240.891 318.268 241.035 318.28 240.592C318.292 240.149 318.364 239.574 318.364 239.574L319.31 240.891Z" fill="#EEA987"/>
<path d="M325.153 236.125L321.74 238.76C322.171 238.676 322.902 238.568 322.914 238.796C322.938 239.119 321.62 239.514 321.201 239.801C320.818 240.077 320.411 240.556 320.303 240.58L319.561 241.214L318.352 239.562C318.352 239.562 320.339 237.311 320.818 236.832C321.596 236.053 324.758 235.587 324.925 235.706C325.248 235.922 325.153 236.125 325.153 236.125Z" fill="#EEA987"/>
<path d="M320.948 241.346L318.194 239.011L308.758 248.542C307.286 249.56 311.644 253.056 312.865 253.823C316.026 255.786 319.762 260.324 323.63 257.558C327.821 254.553 321.714 252.422 319.678 252.482C317.918 252.529 314.075 249.057 314.075 249.057L320.948 241.346Z" fill="#2F4563"/>
<path d="M315.971 326.887C315.971 326.887 314.402 328.527 312.81 328.874C311.217 329.222 310.104 329.665 310.092 330.599C310.08 331.545 314.666 332.167 316.498 331.209C319.216 329.784 319.491 330.216 319.791 329.509C320.09 328.803 319.431 326.899 319.443 326.671C319.467 326.408 315.971 326.887 315.971 326.887Z" fill="#202338"/>
<path d="M316.14 326.097C316.14 326.097 315.936 326.863 315.96 326.887C315.996 326.899 319.54 327.306 319.432 326.683C319.349 326.18 319.217 325.642 319.217 325.642L316.14 326.097Z" fill="#2F6B8C"/>
<path d="M333.667 327.318C333.667 327.318 332.518 328.922 330.973 329.294C329.452 329.653 328.471 330.347 328.387 331.269C328.315 332.191 331.967 333.389 334.541 331.772C336.23 330.718 336.864 330.778 337.2 330.096C337.535 329.425 337.02 327.533 337.056 327.318C337.116 327.054 333.667 327.318 333.667 327.318Z" fill="#202338"/>
<path d="M333.716 326.528C333.716 326.528 333.644 327.306 333.668 327.318C333.692 327.33 337.081 327.94 337.069 327.33C337.057 326.839 336.853 326.24 336.853 326.24L333.716 326.528Z" fill="#2F6B8C"/>
<path d="M319.731 279.794C319.731 279.794 318.09 291.756 317.408 295.791C316.617 300.52 316.354 304.424 316.138 306.867C315.863 309.944 315.492 325.689 315.3 326.587C315.109 327.486 320.09 327.019 320.09 327.019C320.09 327.019 322.7 306.495 323.526 303.215C324.293 300.161 326.52 286.978 327.214 287.816C327.909 288.654 330.052 303.586 330.567 305.981C331.082 308.375 332.471 327.33 332.471 327.33C332.471 327.33 337.176 328.084 338.122 327.33C338.122 327.33 337.38 310.435 337.057 305.921C336.937 304.196 338.146 285.338 335.237 277.734C333.704 273.723 319.731 279.794 319.731 279.794Z" fill="#877D78"/>
<path d="M324.556 251.117C324.556 251.117 320.197 252.015 319.682 252.47C319.12 252.96 318.126 257.726 318.078 259.055C318.03 260.384 318.605 265.94 319.168 268C319.73 270.071 319.73 279.016 319.383 281.877C319.383 281.877 327.777 283.59 336.398 282.476C336.398 282.476 335.224 273.771 335.572 270.945C336.015 267.317 337.08 258.959 337.08 258.959C337.08 258.959 337.092 254.254 336.422 253.499C334.997 251.883 329.489 251.117 329.489 251.117H324.556Z" fill="#FFC05C"/>
<path d="M331.103 259.845C331.307 264.156 332.684 265.198 334.025 264.862C334.444 264.755 334.863 264.515 335.234 264.204C335.809 263.701 336.264 263.018 336.42 262.36C337.006 259.965 337.018 253.344 333.989 252.493C333.977 252.482 330.696 251.416 331.103 259.845Z" fill="#2F4563"/>
<path d="M318.065 261.797C318.065 261.797 320.496 261.39 320.639 264.922C320.783 268.455 322.316 274.992 324.794 277.603L315.012 277.974C312.521 275.363 311.3 269.113 311.12 265.593C310.953 262.348 308.546 262.468 308.546 262.468L318.065 261.797Z" fill="#F5E1D9"/>
<path d="M323.777 253.727C323.837 253.763 323.896 253.799 323.956 253.835C324.184 253.942 324.459 254.026 324.806 254.062C324.938 254.074 325.07 254.086 325.19 254.074C325.273 254.074 325.345 254.062 325.429 254.062C327.74 253.835 330.027 251.2 330.027 251.2C325.393 250.494 323.418 251.356 323.418 251.356C323.418 251.356 322.675 252.984 323.777 253.727Z" fill="#2F4563"/>
<path d="M324.771 237.766C324.771 237.766 319.287 236.664 320.699 243.489C322.112 250.314 323.429 250.829 326.686 249.332C329.943 247.836 329.536 243.453 329.656 241.286C329.776 239.119 326.507 237.802 324.771 237.766Z" fill="#EEA886"/>
<path d="M323.874 252.05C323.874 252.05 324.951 252.769 329.046 250.961C329.046 250.961 328.639 248.53 329.274 245.872C329.885 243.31 324.245 249.033 324.245 249.033C324.305 249.081 324.329 249.344 324.281 249.704C324.269 249.799 324.257 249.907 324.245 250.015C324.221 250.206 324.173 250.41 324.125 250.614C324.113 250.673 324.101 250.721 324.077 250.781C323.85 251.667 323.874 251.296 323.874 252.05Z" fill="#EEA886"/>
<path d="M329.464 244.818C329.464 244.818 329.189 242.974 328.399 242.926C327.609 242.879 327.381 244.004 327.381 244.004L326.758 244.064C326.758 244.064 327.01 242.112 326.22 241.801C325.429 241.49 321.131 242.555 320.484 242.004C319.837 241.466 320.161 237.873 321.286 237.311C322.412 236.76 325.441 235.251 327.788 236.76C327.788 236.76 329.584 236.508 329.896 237.957C330.195 239.43 329.931 243.729 329.464 244.818Z" fill="#353A3D"/>
<path d="M327.416 242.292C327.547 241.645 328.853 241.525 328.876 242.507C328.9 243.489 328.062 245.142 327.595 244.926C327.104 244.71 327.224 243.178 327.416 242.292Z" fill="#EEA886"/>
<path d="M329.033 250.195C329.033 250.195 326.89 251.488 324.782 251.775L325.908 253.571L329.476 251.117L329.033 250.195Z" fill="#4B6F9E"/>
<path d="M324.077 250.793C324.077 250.793 324.304 251.536 324.783 251.775L323.729 253.248L323.765 251.296L324.077 250.793Z" fill="#4B6F9E"/>
<path d="M324.782 251.775L323.943 252.937C323.943 252.937 324.47 253.607 325.608 253.104L324.782 251.775Z" fill="white"/>
<path d="M323.956 253.835C324.184 253.942 324.459 254.026 324.806 254.062C324.938 254.074 325.07 254.086 325.189 254.074L325.058 252.984H324.279C324.303 252.996 324.1 253.308 323.956 253.835Z" fill="white"/>
<path d="M324.1 250.721C326.518 250.853 328.075 248.339 328.123 248.267C326.602 249.931 324.243 250.027 324.243 250.027C324.207 250.218 324.148 250.518 324.1 250.721Z" fill="#A77860"/>
<path d="M318.064 261.797C318.064 261.797 315.154 262.073 315.765 266.132L307.119 266.599C307.119 266.599 305.922 263.833 308.544 262.468L318.064 261.797Z" fill="#EDDAD3"/>
<path d="M307.957 265.129L314.701 264.766L314.683 264.419L307.939 264.782L307.957 265.129Z" fill="#C9BAB3"/>
<path d="M308.544 263.576L315.288 263.213L315.269 262.866L308.526 263.229L308.544 263.576Z" fill="#C9BAB3"/>
<path d="M318.901 266.341L312.157 266.704L312.176 267.051L318.92 266.688L318.901 266.341Z" fill="#C9BAB3"/>
<path d="M319.75 268.7L313.006 269.063L313.025 269.41L319.768 269.047L319.75 268.7Z" fill="#C9BAB3"/>
<path d="M320.601 271.059L313.857 271.421L313.876 271.768L320.62 271.405L320.601 271.059Z" fill="#C9BAB3"/>
<path d="M321.439 273.43L314.695 273.793L314.714 274.14L321.458 273.777L321.439 273.43Z" fill="#C9BAB3"/>
<path d="M322.29 275.789L315.546 276.151L315.565 276.498L322.308 276.135L322.29 275.789Z" fill="#C9BAB3"/>
<path d="M325.562 269.389C325.562 269.389 325.19 269.568 324.867 269.472C324.304 269.317 323.825 268.538 323.095 268.945C322.365 269.341 322.975 272.035 323.346 272.43C323.718 272.825 324.867 272.598 326.292 271.568C327.717 270.538 325.562 269.389 325.562 269.389Z" fill="#EEA886"/>
<path d="M323.357 268.85C323.357 268.85 322.112 268.946 320.747 269.209C319.55 269.448 318.089 269.915 318.149 270.215C318.233 270.67 319.382 270.155 320.591 269.999C321.705 269.856 321.501 270.071 321.501 270.071C321.501 270.071 321.549 270.011 320.376 270.406C319.107 270.825 317.766 271.34 317.801 271.592C317.849 271.903 317.885 271.939 318.376 271.855C318.101 271.963 318.101 272.047 318.125 272.167C318.292 272.777 320.256 272.442 321.034 272.31C320.436 272.418 320.005 272.562 320.352 272.861C320.747 273.208 323.501 272.622 324.507 272.502C325.608 272.382 323.357 268.85 323.357 268.85Z" fill="#EEA886"/>
<path d="M333.02 252.565C332.134 252.853 331.655 254.11 332.194 256.72C332.793 259.606 333.463 261.007 333.846 261.689C334.229 262.372 336.313 265.856 335.942 266.407C335.559 266.958 330.518 268.275 330.182 268.371C329.5 268.562 324.926 269.472 324.926 269.472L326.039 273.388C326.039 273.388 339.965 271.017 340.635 270.334C341.306 269.652 341.665 268.742 340.923 266.371C340.156 263.964 338.791 258.337 338.552 257.894C338.301 257.463 337.031 251.248 333.02 252.565Z" fill="#2F4563"/>
<path d="M332.314 257.295C332.314 257.295 332.626 261.713 334.027 264.862C334.446 264.755 334.865 264.515 335.236 264.204C335.236 264.204 333.62 261.294 333.476 260.971C333.332 260.636 332.482 258.073 332.314 257.295Z" fill="#1E2C40"/>
<path d="M150.253 268.179H87.4624C85.2233 268.179 83.4033 266.359 83.4033 264.12V221.685C83.4033 219.446 85.2233 217.626 87.4624 217.626H150.253C152.492 217.626 154.312 219.446 154.312 221.685V264.132C154.312 266.371 152.492 268.179 150.253 268.179Z" fill="url(#paint16_linear_214_1493)"/>
<path d="M135.966 227.109H133.751V239.43H135.966V227.109Z" fill="url(#paint17_linear_214_1493)"/>
<path d="M139.86 223.828H137.645V239.43H139.86V223.828Z" fill="url(#paint18_linear_214_1493)"/>
<path d="M143.941 225.54H141.726V239.43H143.941V225.54Z" fill="url(#paint19_linear_214_1493)"/>
<path d="M148.134 229.528H145.919V239.43H148.134V229.528Z" fill="url(#paint20_linear_214_1493)"/>
<path d="M135.966 231.611H133.751V239.43H135.966V231.611Z" fill="#007BDE"/>
<path d="M139.86 229.528H137.645V239.43H139.86V229.528Z" fill="#007BDE"/>
<path d="M143.941 230.617H141.726V239.43H143.941V230.617Z" fill="#007BDE"/>
<path d="M148.134 233.263H145.919V239.418H148.134V233.263Z" fill="#007BDE"/>
<path d="M146.649 247.165H135.226C134.747 247.165 134.352 246.77 134.352 246.291V244.531C134.352 244.052 134.747 243.657 135.226 243.657H146.649C147.128 243.657 147.523 244.052 147.523 244.531V246.291C147.523 246.77 147.14 247.165 146.649 247.165Z" fill="white"/>
<path d="M146.649 253.739H135.226C134.747 253.739 134.352 253.344 134.352 252.865V251.105C134.352 250.626 134.747 250.23 135.226 250.23H146.649C147.128 250.23 147.523 250.626 147.523 251.105V252.865C147.523 253.344 147.14 253.739 146.649 253.739Z" fill="white"/>
<path d="M146.649 260.312H135.226C134.747 260.312 134.352 259.917 134.352 259.438V257.678C134.352 257.199 134.747 256.804 135.226 256.804H146.649C147.128 256.804 147.523 257.199 147.523 257.678V259.438C147.523 259.917 147.14 260.312 146.649 260.312Z" fill="white"/>
<path d="M127.993 235.814C125.059 227.624 117.229 222.595 108.979 222.834C106.979 222.894 104.955 223.265 102.98 223.972C96.9689 226.127 92.6583 230.905 90.8862 236.568C89.6648 240.484 89.6529 244.83 91.1376 248.985C91.2813 249.404 91.4489 249.811 91.6166 250.206C92.3949 252.014 93.4246 253.643 94.6459 255.08C99.7707 261.103 108.26 263.641 116.151 260.827C126.329 257.187 131.633 245.992 127.993 235.814ZM114.499 256.217C108.583 258.337 102.213 256.421 98.3818 251.907C97.4718 250.829 96.6935 249.608 96.1067 248.255C95.975 247.955 95.8553 247.656 95.7475 247.345C94.634 244.219 94.634 240.975 95.556 238.029C96.885 233.79 100.118 230.198 104.62 228.582C106.105 228.055 107.626 227.767 109.122 227.732C115.313 227.54 121.18 231.324 123.371 237.454C126.101 245.094 122.138 253.487 114.499 256.217Z" fill="white"/>
<path d="M95.5565 238.029L90.8867 236.568C92.6588 230.917 96.9694 226.127 102.98 223.972C104.968 223.265 106.991 222.894 108.979 222.834L109.123 227.732C107.626 227.779 106.105 228.055 104.621 228.582C100.119 230.198 96.8856 233.79 95.5565 238.029Z" fill="#1A598C"/>
<path d="M96.1085 248.255L91.6183 250.206C91.4507 249.811 91.2831 249.404 91.1394 248.985C89.6546 244.818 89.6546 240.484 90.8879 236.568L95.5577 238.029C94.6357 240.963 94.6357 244.219 95.7493 247.345C95.8571 247.656 95.9768 247.955 96.1085 248.255Z" fill="#2273B5"/>
<path d="M94.6456 255.08C93.4243 253.643 92.3945 252.014 91.6162 250.206L96.1064 248.255C96.6931 249.608 97.4594 250.829 98.3814 251.907L94.6456 255.08Z" fill="#3788CC"/>
<path d="M147.953 325.426C147.953 325.426 147.234 326.767 146.767 327.294C146.3 327.821 144.504 328.779 144.492 330.347C144.48 332.06 147.522 331.581 148.707 331.521C149.892 331.461 149.988 330.539 150.479 329.581C150.982 328.611 151.485 328.779 151.581 328C151.677 327.222 151.102 325.426 151.102 325.426H147.953Z" fill="#202338"/>
<path d="M151.054 324.911C151.054 324.911 151.198 325.642 151.162 325.653C151.138 325.665 147.797 326.264 147.821 325.665C147.833 325.186 148.133 324.624 148.133 324.624L151.054 324.911Z" fill="#81807E"/>
<path d="M181.626 262.025C181.626 262.025 185.122 261.282 185.386 261.438C185.649 261.594 185.661 261.785 185.338 261.869C185.015 261.953 181.973 262.683 181.973 262.683C181.973 262.683 186.224 262.528 186.463 262.599C186.607 262.647 186.655 263.018 186.487 263.078C186.32 263.138 182.105 263.545 182.105 263.545C182.105 263.545 186.068 263.414 186.248 263.533C186.404 263.641 186.368 264.012 186.08 264.036C185.781 264.072 182.105 264.407 182.105 264.407C182.105 264.407 184.991 264.491 185.074 264.707C185.134 264.826 185.194 265.162 184.452 265.114C183.709 265.066 181.937 265.15 181.937 265.15L181.626 262.025Z" fill="#EEA886"/>
<path d="M166.033 325.175C166.033 325.175 167.494 326.803 168.979 327.15C170.463 327.498 171.505 327.929 171.517 328.863C171.529 329.796 167.243 330.419 165.542 329.473C163.004 328.06 162.752 328.491 162.465 327.785C162.19 327.078 162.8 325.199 162.788 324.971C162.764 324.696 166.033 325.175 166.033 325.175Z" fill="#202338"/>
<path d="M165.867 324.396C165.867 324.396 166.059 325.163 166.035 325.175C166.011 325.187 162.694 325.582 162.79 324.971C162.874 324.468 162.982 323.929 162.982 323.929L165.867 324.396Z" fill="#81807E"/>
<path d="M162.85 278.596C162.85 278.596 164.059 290.319 164.682 294.33C165.412 299.024 165.663 302.891 165.867 305.322C166.118 308.375 166.178 323.39 166.358 324.288C166.538 325.186 162.359 324.54 162.359 324.54C162.359 324.54 160.299 304.915 159.533 301.67C158.814 298.641 156.168 285.601 155.522 286.439C154.875 287.265 154.061 301.646 153.582 304.041C153.103 306.424 151.63 325.127 151.63 325.127C151.63 325.127 148.301 325.785 147.427 325.043C147.427 325.043 147.02 308.926 147.332 304.46C147.451 302.76 145.332 284.009 148.05 276.453C149.487 272.43 162.85 278.596 162.85 278.596Z" fill="#292C47"/>
<path d="M142.17 280.261C142.17 280.261 144.205 280.883 145.056 280.728C145.906 280.572 145.475 270.119 145.511 267.94C145.535 266.18 146.504 261.522 146.504 261.522C146.504 261.522 146.504 261.522 146.504 261.534C146.504 261.534 146.504 261.534 146.504 261.546C146.6 261.893 147.905 266.73 147.953 269.053C148.001 271.46 147.642 280.68 147.642 280.68L151.234 281.027L161.556 281.279L163.711 281.027C163.711 281.027 163.459 277.088 163.364 275.208C163.304 274.022 163.076 271.891 163.136 269.808C163.136 269.808 163.1 267.616 163.316 266.682C163.34 262.528 163.591 258.409 163.591 258.409C163.735 256.529 163.831 254.757 163.878 253.116C163.423 252.877 162.873 252.589 162.442 252.386C161.089 251.739 159.197 250.877 157.987 250.314C157.281 249.991 156.586 249.751 156.586 249.751C156.586 249.751 151.749 249.284 151.354 249.308C151.234 249.32 150.623 249.524 149.833 249.835C148.121 250.482 144.804 251.811 144.277 252.194C143.499 252.745 141.871 265.892 141.799 266.814C141.655 268.455 142.17 280.261 142.17 280.261Z" fill="#CAC7D1"/>
<path d="M163.398 279.363C163.398 279.363 156.31 279.961 150.107 279.363V281.398C150.107 281.398 159.423 282.739 163.71 281.015L163.398 279.363Z" fill="#1D2033"/>
<path d="M157.353 250.027C157.353 250.027 158.502 252.733 159.364 258.78C159.699 261.103 160.31 265.018 160.765 269.005C161.112 272.154 161.927 275.387 162.178 277.794C162.441 280.285 163.244 287.649 163.244 287.649L165.183 286.427C165.459 286.176 165.842 285.841 165.734 285.481C165.207 283.757 164.178 278.07 163.579 273.112V273.1C163.555 272.861 163.519 272.621 163.495 272.394C163.495 272.382 163.495 272.37 163.495 272.358C163.375 271.364 163.292 270.418 163.22 269.544C163.172 268.874 163.22 268.227 163.304 267.592C163.579 263.138 163.711 258.456 163.711 258.456C163.854 256.541 163.938 254.745 163.986 253.068C163.675 252.829 162.98 252.458 162.489 252.23C162.489 252.23 158.167 250.266 157.353 250.027Z" fill="#323657"/>
<path d="M156.994 251.44C156.994 251.44 157.126 253.296 155.557 253.332C153.988 253.38 152.743 251.871 152.743 251.871L155.341 252.541L156.922 251.2L156.994 251.44Z" fill="#CAC7D1"/>
<path d="M177.686 263.521C177.686 263.521 178.823 263.198 178.979 262.516C179.11 261.941 179.673 261.258 179.853 261.055C180.08 260.779 180.511 259.666 180.835 259.941C181.158 260.217 180.224 261.809 180.092 262.18C179.961 262.551 181.541 261.905 181.9 262.013C182.272 262.12 183.002 264.85 181.876 265.174C180.751 265.497 179.386 265.066 179.194 265.162C179.003 265.258 178.38 265.425 178.38 265.425L177.686 263.521Z" fill="#EEA886"/>
<path d="M154.874 237.251C154.874 237.251 158.466 237.861 157.856 243.489C157.245 249.117 154.072 248.614 153.857 248.614C153.641 248.602 150.66 248.686 150.504 241.801C150.516 241.801 150.468 236.712 154.874 237.251Z" fill="#EEA987"/>
<path d="M156.454 246.974C156.454 246.974 156.454 249.296 156.55 249.787C156.658 250.326 153.664 251.883 151.736 250.075C151.736 250.075 152.131 247.548 152 246.65C151.88 245.764 156.454 246.974 156.454 246.974Z" fill="#EEA987"/>
<path d="M157.867 242.172C157.867 242.172 158.262 241.753 158.405 242.184C158.549 242.615 157.903 244.423 157.819 244.591C157.819 244.591 157.747 244.758 157.651 244.663C157.555 244.579 157.867 242.172 157.867 242.172Z" fill="#EEA987"/>
<path d="M150.552 241.741C150.552 241.741 150.169 241.31 150.013 241.729C149.857 242.148 150.432 244.04 150.504 244.16C150.504 244.16 150.624 244.351 150.719 244.268C150.827 244.184 150.552 241.741 150.552 241.741Z" fill="#EEA987"/>
<path d="M158.166 241.418C158.046 242.184 157.926 242.759 157.926 242.759L157.399 243.441C157.399 243.441 157.435 241.933 157.351 241.693C157.315 241.597 157.291 241.442 157.244 241.274C157.184 240.987 157.124 240.663 157.076 240.556C157.004 240.388 153.999 239.502 151.317 240.735C151.317 240.735 151.341 240.963 151.341 241.226C151.341 241.525 151.305 241.861 151.173 241.921C150.921 242.016 151.017 243.693 151.017 243.693L150.598 243.214C150.598 243.214 150.478 242.34 150.359 241.334C150.359 241.334 150.359 241.334 150.359 241.322C150.335 241.082 150.299 240.843 150.275 240.604C150.215 239.598 150.311 237.754 151.628 236.676C152.514 236.293 153.939 235.97 156.298 236.7C156.298 236.7 156.884 236.868 157.04 237.011C158.513 238.64 158.166 241.418 158.166 241.418Z" fill="#353A3D"/>
<path d="M152.24 247.86C152.24 247.86 152.815 248.662 154.144 248.626C155.473 248.59 156.06 247.895 156.06 247.895C156.06 247.895 155.425 249.213 154.144 249.201C152.863 249.189 152.24 247.86 152.24 247.86Z" fill="#C78D71"/>
<path d="M156.683 251.559L155.342 252.553C155.342 252.553 156.467 250.17 156.491 249.213L156.683 251.559Z" fill="#A09EA6"/>
<path d="M156.492 249.201L157.402 250.051L158.36 252.913L156.684 251.56L156.492 249.201Z" fill="#EAE6F2"/>
<path d="M179.194 266.168C179.194 266.168 171.28 268.251 169.34 267.772C168.442 267.557 167.268 266.323 166.143 264.862C165.772 264.384 165.412 263.881 165.065 263.39C163.688 261.402 162.61 259.51 162.61 259.51C162.61 259.51 158.551 254.757 161.808 252.637C161.808 252.637 163.185 252.494 163.964 253.08C164.682 253.607 166.442 256.96 166.729 257.582C167.017 258.205 170.094 263.964 170.31 264.096C170.513 264.228 173.159 263.749 174.56 263.641C176.835 263.45 178.727 262.875 178.727 262.875L179.194 266.168Z" fill="#323657"/>
<path d="M156.322 250.051C156.322 250.051 155.951 251.356 155.34 252.541C155.34 252.541 153.928 251.308 153.484 250.865C153.053 250.434 156.322 250.051 156.322 250.051Z" fill="#EEA987"/>
<path d="M153.868 251.164L155.341 252.541C155.341 252.541 153.605 252.422 153.27 252.134L153.868 251.164Z" fill="#A09EA6"/>
<path d="M151.917 248.626C151.917 248.626 153.09 250.542 153.868 251.164L152.563 253.332L150.468 249.524L151.917 248.626Z" fill="#EAE6F2"/>
<path d="M145.666 268.035C145.511 270.059 146.373 281.219 145.523 281.386C144.673 281.542 141.535 280.859 141.535 280.859C141.535 280.859 141.14 268.814 141.272 267.557C141.368 266.635 142.829 252.853 143.595 252.302C144.038 251.979 147.343 250.805 148.971 250.171C149.271 250.051 150.204 249.656 150.468 249.56C150.815 249.943 153.809 256.984 154.096 262.468C154.18 264.144 153.797 267.664 153.497 270.55C153.174 273.627 152.827 276.022 152.575 278.596C152.072 283.661 151.713 287.697 151.713 287.697L146.672 285.457C145.858 285.05 144.732 283.374 145.032 282.512C146.193 279.243 147.666 273.675 147.666 270.813C147.666 270.813 147.103 263.797 146.66 262.264C146.648 262.216 145.858 265.461 145.666 268.035Z" fill="#323657"/>
<path d="M158.359 279.494H155.019V281.973H158.359V279.494Z" fill="#3A4066"/>
<path d="M147.533 292.606H136.541L139.115 285.29H150.107L147.533 292.606Z" fill="#EDDAD3"/>
<path d="M147.533 292.606H136.541L139.115 285.29H150.107L147.533 292.606Z" fill="#F2DFD8"/>
<path d="M139.115 299.922H150.107L147.533 292.606H136.541L139.115 299.922Z" fill="#D6C5BE"/>
<path d="M147.533 307.226H136.541L139.115 299.922H150.107L147.533 307.226Z" fill="#F2DFD8"/>
<path d="M139.115 314.542H150.107L147.533 307.226H136.541L139.115 314.542Z" fill="#D6C5BE"/>
<path d="M146.025 286.511H139.763V286.787H146.025V286.511Z" fill="#C9BAB3"/>
<path d="M145.654 287.493H139.392V287.768H145.654V287.493Z" fill="#C9BAB3"/>
<path d="M144.048 288.475H138.983V288.75H144.048V288.475Z" fill="#C9BAB3"/>
<path d="M146.025 301.083H139.763V301.359H146.025V301.083Z" fill="#C9BAB3"/>
<path d="M142.529 302.065H139.392V302.341H142.529V302.065Z" fill="#C9BAB3"/>
<path d="M144.889 281.518C144.889 281.518 144.949 281.71 145.057 282.021C145.236 282.56 145.811 283.182 145.452 283.913C145.093 284.655 142.435 284.188 142.039 283.841C141.632 283.494 141.8 282.368 142.734 280.919C143.656 279.47 144.889 281.518 144.889 281.518Z" fill="#EEA886"/>
<path d="M145.534 283.649C145.534 283.649 145.51 284.871 145.307 286.212C145.139 287.397 144.756 288.846 144.456 288.81C144.001 288.75 144.444 287.601 144.54 286.415C144.624 285.326 144.42 285.529 144.42 285.529C144.42 285.529 144.48 285.469 144.157 286.643C143.81 287.9 143.379 289.241 143.139 289.217C142.84 289.181 142.804 289.157 142.852 288.678C142.768 288.942 142.672 288.966 142.565 288.93C141.966 288.798 142.181 286.858 142.265 286.092C142.193 286.679 142.074 287.11 141.762 286.787C141.403 286.415 141.834 283.697 141.906 282.715C141.966 281.626 145.534 283.649 145.534 283.649Z" fill="#EEA886"/>
<path d="M145.798 273.675L145.751 282.548C145.751 282.548 143.978 282.464 141.536 281.566L141.368 269.053L145.798 273.675Z" fill="#323657"/>
<path d="M131.594 269.604L125.428 283.494L125.26 283.865C124.937 283.901 124.673 283.829 124.577 283.793L124.709 283.482L130.816 269.736L121.919 260.169L120.578 259.881L120.722 259.235L122.254 259.57L131.594 269.604Z" fill="url(#paint21_linear_214_1493)"/>
<path d="M122.112 286.164H127.812C127.812 286.164 127.8 286.032 127.752 285.817C127.584 285.134 126.95 283.709 124.734 283.709C122.519 283.709 122.148 285.146 122.112 285.817C122.088 286.032 122.112 286.164 122.112 286.164Z" fill="url(#paint22_linear_214_1493)"/>
<path d="M116.293 257.091L116.676 258.181L119.011 264.803C119.957 264.467 120.711 263.821 121.178 263.006C121.765 262.001 121.921 260.767 121.502 259.582C120.759 257.451 118.424 256.337 116.293 257.091Z" fill="url(#paint23_linear_214_1493)"/>
<path d="M125.585 283.482V283.781C125.478 283.817 125.37 283.841 125.274 283.853C124.951 283.889 124.687 283.817 124.592 283.781C124.568 283.769 124.556 283.769 124.556 283.769V283.482H124.735H125.454H125.585Z" fill="#FFA855"/>
<path d="M122.112 286.164H127.812C127.812 286.164 127.8 286.032 127.752 285.817H122.112C122.088 286.032 122.112 286.164 122.112 286.164Z" fill="#FFA555"/>
<path d="M116.293 257.091L116.676 258.181C118.041 259.259 120.161 261.115 121.178 263.006C121.765 262.001 121.921 260.767 121.502 259.582C120.759 257.451 118.424 256.337 116.293 257.091Z" fill="#FFA855"/>
<path d="M97.0517 268.802C97.0517 268.802 98.0455 267.545 98.2012 267.353C98.3568 267.161 98.9795 266.994 99.6979 266.85C100.416 266.718 101.434 266.886 101.518 266.982C101.602 267.078 101.721 267.137 101.757 267.497C101.793 267.844 101.638 268.167 101.638 268.167C101.638 268.167 101.865 268.574 101.65 268.957C101.65 268.957 101.841 269.353 101.542 269.748C101.542 269.748 101.721 270.131 101.482 270.406C101.482 270.406 100.859 270.586 100.644 270.718C100.428 270.861 99.1232 271.125 97.842 271.185C97.8539 271.197 96.6566 270.801 97.0517 268.802Z" fill="#EEA886"/>
<path d="M68.362 307.597L62.6984 331.209H61.4531L66.2546 307.549L68.362 307.597Z" fill="#858585"/>
<path d="M74.5398 307.597L68.8761 331.209H67.6309L72.4324 307.549L74.5398 307.597Z" fill="#858585"/>
<path d="M84.5381 307.597L90.2017 331.209H91.447L86.6455 307.549L84.5381 307.597Z" fill="#858585"/>
<path d="M89.9022 307.824H65.4876C65.4876 307.824 63.7873 307.789 62.6498 302.748C61.3686 297.084 58.7822 278.165 58.7822 278.165C58.7822 278.165 59.4647 276.405 70.1933 276.633L89.3993 301.562C89.4112 301.562 90.0698 305.49 89.9022 307.824Z" fill="#E2D2CA"/>
<path d="M90.6475 284.212C90.6475 284.212 91.8927 283.673 92.8267 283.889C93.7607 284.104 95.9399 284.919 97.0175 285.062C98.0952 285.194 99.1249 285.829 99.101 286.188C99.077 286.547 90.7672 286.834 90.7313 286.02C90.6954 285.206 90.6475 284.212 90.6475 284.212Z" fill="#EEA886"/>
<path d="M97.0543 268.802C97.0543 268.802 95.4259 269.867 95.39 270.191C95.3301 270.73 95.6654 272.418 95.7013 272.394C95.7372 272.37 98.1439 271.185 98.1439 271.185L97.0543 268.802Z" fill="#EEA886"/>
<path d="M97.0124 327.186C97.0124 327.186 99.1078 328.431 100.054 328.886C101 329.353 104.688 329.485 105.047 329.832C105.406 330.18 105.274 331.281 104.664 331.389C104.053 331.497 99.5748 331.892 98.078 331.545C96.5813 331.197 93.7914 331.772 93.1688 331.557C92.5461 331.341 92.9532 328.012 93.2047 327.258C93.4561 326.504 97.0124 327.186 97.0124 327.186Z" fill="#292C47"/>
<path d="M96.9768 325.785L97.0128 327.198C97.0128 327.198 94.2109 327.713 93.2051 327.282L93.2769 325.737L96.9768 325.785Z" fill="#1C1E30"/>
<path d="M101.913 327.186C101.913 327.186 104.008 328.431 104.954 328.886C105.9 329.353 109.588 329.485 109.947 329.832C110.306 330.18 110.175 331.281 109.564 331.389C108.953 331.497 104.475 331.892 102.978 331.545C101.482 331.197 98.6918 331.772 98.0692 331.557C97.4465 331.341 97.8536 328.012 98.1051 327.258C98.3446 326.528 101.913 327.186 101.913 327.186Z" fill="#323657"/>
<path d="M101.878 325.785L101.914 327.198C101.914 327.198 99.1122 327.713 98.1064 327.282L98.1783 325.737L101.878 325.785Z" fill="#1C1E30"/>
<path d="M85.4233 292.917L82.2383 292.366L84.3576 287.026L85.4233 292.917Z" fill="#24263D"/>
<path d="M75.8932 294.019C75.8932 294.019 91.8782 297.407 94.3808 298.473C96.8713 299.539 98.368 299.97 98.5596 300.496C98.7512 301.023 102.643 326.384 102.643 326.384H97.3383C97.3383 326.384 93.2193 307.238 92.7284 306.052C92.2255 304.867 72.4567 304.807 71.0198 303.37C69.583 301.933 68.3377 298.006 69.8943 294.486C71.4509 290.965 75.8932 294.019 75.8932 294.019Z" fill="#282B45"/>
<path d="M83.986 292.235C83.986 292.235 102.318 297.395 103.827 299.754C105.359 302.161 97.708 326.384 97.708 326.384H92.4754C92.4754 326.384 97.5284 303.682 96.9058 302.676C96.2831 301.682 68.6475 302.64 73.7963 294.474C78.933 286.308 83.986 292.235 83.986 292.235Z" fill="#282B45"/>
<path d="M82.086 266.754C82.7805 266.395 85.0794 267.185 85.7619 268.239C87.3425 270.694 90.324 273.735 90.324 273.735L96.9814 268.143L98.3105 271.484L90.4078 278.141C89.7372 278.704 88.7434 278.68 88.1088 278.058C86.0373 276.046 81.7627 271.807 81.4274 270.742C80.9964 269.341 80.7689 267.437 82.086 266.754Z" fill="#323657"/>
<path d="M79.832 252.505C79.832 252.505 83.0171 253.032 83.041 258.432C83.0769 263.833 81.0294 264.336 77.9282 263.545C76.0603 263.066 74.3121 260.432 74.9946 255.774C75.6771 251.128 79.832 252.505 79.832 252.505Z" fill="#EEA987"/>
<path d="M80.2416 265.377C80.2416 265.377 84.624 266.97 85.2826 267.964C85.9411 268.957 85.5101 277.938 85.1389 281.159C84.7677 284.368 83.738 291.301 83.9894 292.235L73.7877 294.486C73.7877 294.486 70.5189 282.572 70.4231 280.668C70.3273 278.764 67.9325 269.903 69.082 269.185C70.2315 268.467 75.2605 265.665 75.2605 265.665L80.2416 265.377Z" fill="#EDDAD3"/>
<path d="M73.7868 294.474L73.2959 292.642L84.0125 290.546L83.9885 292.235L73.7868 294.474Z" fill="#1F2136"/>
<path d="M79.126 291.408L81.6644 290.882V292.893L79.126 293.48V291.408Z" fill="#4F558A"/>
<path d="M77.9882 286.176C77.9643 286.703 77.9284 287.23 77.9044 287.78L77.8924 287.792C77.5332 293.707 76.9944 299.898 76.9944 299.898C76.252 300.52 66.8047 298.329 66.8047 298.329C66.8047 298.329 67.9661 296.749 69.0917 292.378C70.2172 288.008 69.3431 283.817 68.1697 276.705C67.0082 269.592 67.9661 269.64 67.9661 269.64L75.2702 265.677C75.7491 267.497 77.6769 274.094 78.1439 277.866C78.2876 279.231 78.1918 282.536 77.9882 286.176Z" fill="#323657"/>
<path d="M80.3115 265.389C80.3115 265.389 82.4429 270.873 83.3409 276.477C84.2629 282.189 84.215 292.522 85.2088 292.773C86.2026 293.025 85.9033 292.857 85.9033 292.857C85.9033 292.857 85.7117 286.607 85.6279 284.547C85.4243 279.925 86.2865 269.508 85.8913 268.455C85.4842 267.413 82.6225 265.808 80.3115 265.389Z" fill="#323657"/>
<path d="M80.1441 264.527C80.1441 264.862 80.1681 265.174 80.2519 265.377C80.2519 265.377 79.6891 267.568 75.2588 265.653C75.2588 265.653 76.1329 262.396 75.2588 259.654L80.2519 262.755C80.2519 262.755 80.192 263.246 80.1681 263.821C80.1441 264.06 80.1321 264.312 80.1441 264.527Z" fill="#EEA987"/>
<path d="M75.4384 264.791C75.4384 264.791 77.1746 265.629 78.9348 265.796L78.0846 267.616L75.2588 265.665L75.4384 264.791Z" fill="#D6C5BF"/>
<path d="M78.9375 265.796C78.9375 265.796 80.1588 265.389 80.1588 264.791L80.3265 265.389L79.8236 267.305L78.9375 265.796Z" fill="#D6C5BF"/>
<path d="M82.658 255.619C82.658 255.619 83.5441 253.715 82.9095 252.302C82.2629 250.901 80.5865 251.488 79.8083 251.643C79.0419 251.811 77.5811 250.111 75.0068 252.182C72.4324 254.266 73.1987 256.445 74.3362 259.043C75.4857 261.642 75.6174 261.845 75.6174 261.845C75.6174 261.845 75.6294 259.211 75.9407 258.744C76.3119 258.193 77.641 257.906 77.641 257.906C77.641 257.906 76.6232 256.517 77.617 255.99C78.6228 255.487 80.6943 256.445 82.658 255.619Z" fill="#16202E"/>
<path d="M76.3392 257.379C76.2075 256.984 75.5369 256.529 75.2017 257.271C74.8664 258.013 75.7405 259.331 76.2194 259.331C76.6864 259.331 76.6505 258.289 76.3392 257.379Z" fill="#EEA987"/>
<path d="M78.9368 265.796L79.5714 266.898C79.5714 266.898 79.2721 267.233 78.3262 267.09L78.9368 265.796Z" fill="#007FE6"/>
<path d="M79.4366 266.994C79.4366 266.994 82.0589 274.693 82.0709 280.165C82.0948 285.637 81.6638 288.894 81.6638 288.894L81.089 289.972L80.2509 288.99C80.2509 288.99 80.8495 273.112 78.5146 267.114C78.5146 267.114 79.3408 266.718 79.4366 266.994Z" fill="#007FE6"/>
<path d="M68.769 269.185C70.6848 268.407 72.6725 271.053 73.7262 273.711C74.7918 276.357 76.8154 281.183 76.8154 281.183L90.9804 283.482L91.184 286.176H74.6601C74.6601 286.176 68.3619 274.896 67.9308 273.496C67.4878 272.083 67.392 269.748 68.769 269.185Z" fill="#323657"/>
<path d="M132.856 286.164H86.1582V287.768H132.856V286.164Z" fill="#E2D2CA"/>
<path d="M114.652 258.013H113.526V282.943H114.652V258.013Z" fill="#6E6760"/>
<path d="M116.283 286.164H124.7V285.649H116.283C115.84 285.649 115.528 285.541 115.349 285.338C115.121 285.086 115.157 284.751 115.157 284.751V284.739V284.727V273.855H114.642V284.715C114.63 284.823 114.618 285.29 114.953 285.673C115.241 286.008 115.684 286.164 116.283 286.164Z" fill="#918880"/>
<path d="M105.039 285.278H113.696V286.176H104.225V286.104C104.225 285.649 104.596 285.278 105.039 285.278Z" fill="#6E6760"/>
<path d="M127.994 331.48H129.323V287.775H127.994V331.48Z" fill="#706865"/>
<path d="M89.6856 331.48H91.0146V287.775H89.6856V331.48Z" fill="#706865"/>
<path d="M77.991 286.176C77.967 286.703 77.9311 287.229 77.9072 287.78L77.8952 287.792C77.8952 287.792 76.0512 288.032 74.5066 287.337C72.962 286.631 71.8843 281.302 71.8125 281.015C71.9682 281.326 74.4467 286.188 75.0574 286.188C75.68 286.176 77.991 286.176 77.991 286.176Z" fill="#1F2136"/>
<path d="M80.1566 263.833C80.1446 264.06 80.1327 264.312 80.1446 264.539C76.6243 264.599 76.5645 262.587 76.5645 262.587C77.1152 264.036 80.1566 263.833 80.1566 263.833Z" fill="#A77860"/>
<path d="M102.985 264.761L99.1338 268.478L99.4498 268.806L103.301 265.089L102.985 264.761Z" fill="#EB4747"/>
<path d="M102.978 264.767L103.696 264.383L103.289 265.09L102.978 264.767Z" fill="#EEA886"/>
<path d="M101.329 267.03C101.329 267.03 99.5092 267.425 99.5092 267.748C99.5212 268.071 99.7008 268.179 99.7008 268.179L99.0063 268.718C99.0063 268.718 98.707 269.353 99.4135 269.484C99.4135 269.484 99.0902 270.047 99.7727 270.095C99.7727 270.095 99.7008 270.562 100.012 270.646C100.323 270.73 101.497 270.418 101.497 270.418C101.497 270.418 101.772 270.239 101.605 269.76C101.605 269.76 101.904 269.401 101.7 268.97C101.7 268.97 101.916 268.634 101.688 268.179C101.688 268.179 102.048 267.401 101.509 266.994C101.521 266.994 101.401 267.006 101.329 267.03Z" fill="#D69779"/>
<path d="M98.2623 267.341C98.2623 267.341 99.4597 267.724 100.022 268.251C100.154 268.371 100.25 268.514 100.19 268.694C100.13 268.874 99.8189 269.017 99.2921 268.886C98.7652 268.754 98.0109 268.838 98.0109 268.838C98.0109 268.838 97.508 268.526 98.2623 267.341Z" fill="#EEA886"/>
<path d="M99.7928 308.064C99.7928 308.064 98.6673 301.071 98.6074 300.784C98.5475 300.497 97.41 299.479 91.9619 297.695C91.9619 297.695 98.0207 298.868 99.6132 299.91C100.835 300.7 99.7928 308.064 99.7928 308.064Z" fill="#12131F"/>
<path d="M122.605 286.164C123.203 285.912 124.173 283.086 124.64 281.626C124.808 281.111 124.904 280.764 124.904 280.764H119.432C119.899 284.14 121.048 286.164 121.048 286.164H122.605Z" fill="#9E633A"/>
<path d="M123.048 279.087C123.048 278.896 123.922 278.07 124.365 277.531C124.808 276.992 124.198 275.974 124.198 275.974C122.234 276.788 122.581 279.087 122.581 279.087C122.581 279.087 123.048 279.279 123.048 279.087Z" fill="#97A43C"/>
<path d="M121.933 279.171H122.173C122.173 279.171 122.34 275.196 120.892 274.657C119.443 274.118 119.443 273.04 119.443 273.04C119.443 273.04 119 274.525 119.718 275.304C120.425 276.082 121.239 276.992 121.107 277.734C120.951 278.465 121.933 279.171 121.933 279.171Z" fill="#97A43C"/>
<path d="M124.64 281.638C124.808 281.123 124.904 280.776 124.904 280.776H119.432C119.899 284.152 121.048 286.176 121.048 286.176H121.407C121.347 283.003 123.431 281.973 124.64 281.638Z" fill="#82522F"/>
<path d="M124.904 279.087H119.396L119.072 280.764H125.131L124.904 279.087Z" fill="#C67B47"/>
<path d="M183.25 36.2753C183.25 37.9149 182.138 38.832 180.248 38.832H176.33V33.6075H180.165C182.055 33.6075 183.25 34.6079 183.25 36.2753ZM182.777 28.1884C182.777 29.7725 181.721 30.6062 179.887 30.6062H176.33V25.7429H179.887C181.721 25.7429 182.777 26.6322 182.777 28.1884ZM187.196 36.7477C187.196 34.4689 185.64 32.4403 183.444 32.0512C185.334 31.4399 186.751 29.967 186.751 27.6049C186.751 24.7147 184.5 22.6027 180.443 22.6027H172.439V42H180.804C184.834 42 187.196 39.8324 187.196 36.7477ZM201.107 36.2753C201.107 37.9149 199.995 38.832 198.105 38.832H194.187V33.6075H198.022C199.912 33.6075 201.107 34.6079 201.107 36.2753ZM200.634 28.1884C200.634 29.7725 199.578 30.6062 197.744 30.6062H194.187V25.7429H197.744C199.578 25.7429 200.634 26.6322 200.634 28.1884ZM205.053 36.7477C205.053 34.4689 203.497 32.4403 201.301 32.0512C203.191 31.4399 204.608 29.967 204.608 27.6049C204.608 24.7147 202.357 22.6027 198.3 22.6027H190.297V42H198.661C202.691 42 205.053 39.8324 205.053 36.7477ZM221.326 42H225.439L218.464 22.5749H213.934L206.959 42H211.044L212.322 38.3039H220.048L221.326 42ZM218.992 35.1915H213.378L216.185 27.0768L218.992 35.1915Z" fill="white"/>
<line x1="174.705" y1="110.847" x2="221.471" y2="110.847" stroke="white" stroke-width="0.306309"/>
<path d="M70.8551 51.9698H62.0173V67.9883H70.8551V65.8479H64.641V60.9457H70.1647V58.8053H64.641V54.1102H70.8551V51.9698ZM83.0857 67.9883H85.6864V60.5084C85.6864 56.9641 83.4539 55.0999 80.485 55.0999C78.966 55.0999 77.5621 55.7213 76.7105 56.7569V55.307H74.0868V67.9883H76.7105V60.8997C76.7105 58.5751 77.9763 57.3784 79.9096 57.3784C81.8199 57.3784 83.0857 58.5751 83.0857 60.8997V67.9883ZM88.1586 61.5901C88.1586 65.5027 90.8053 68.1955 94.1425 68.1955C96.2139 68.1955 97.7329 67.1598 98.5384 66.0781V68.1955C98.5384 70.7271 97.0194 71.97 94.9941 71.97C93.1759 71.97 91.7719 71.0724 91.3807 69.7605H88.78C89.1022 72.5684 91.6108 74.2485 94.9941 74.2485C98.9527 74.2485 101.185 71.6478 101.185 68.1955V55.307H98.5384V57.1482C97.7559 56.0665 96.2139 55.0999 94.1425 55.0999C90.8053 55.0999 88.1586 57.6776 88.1586 61.5901ZM98.5384 61.6362C98.5384 64.375 96.6742 65.917 94.6949 65.917C92.7386 65.917 90.8513 64.3289 90.8513 61.5901C90.8513 58.8513 92.7386 57.3784 94.6949 57.3784C96.6742 57.3784 98.5384 58.9204 98.5384 61.6362ZM104.631 67.9883H107.255V55.307H104.631V67.9883ZM105.966 53.6269C106.887 53.6269 107.623 52.8904 107.623 51.9468C107.623 51.0032 106.887 50.2667 105.966 50.2667C105.023 50.2667 104.286 51.0032 104.286 51.9468C104.286 52.8904 105.023 53.6269 105.966 53.6269ZM119.699 67.9883H122.299V60.5084C122.299 56.9641 120.067 55.0999 117.098 55.0999C115.579 55.0999 114.175 55.7213 113.323 56.7569V55.307H110.7V67.9883H113.323V60.8997C113.323 58.5751 114.589 57.3784 116.523 57.3784C118.433 57.3784 119.699 58.5751 119.699 60.8997V67.9883ZM130.986 57.3093C132.942 57.3093 134.484 58.5521 134.53 60.5084H127.51C127.787 58.5061 129.213 57.3093 130.986 57.3093ZM136.924 64.2139H134.093C133.609 65.2035 132.712 65.986 131.101 65.986C129.167 65.986 127.671 64.7202 127.487 62.6258H137.177C137.246 62.1885 137.269 61.7743 137.269 61.337C137.269 57.6085 134.714 55.0999 131.101 55.0999C127.349 55.0999 124.772 57.6545 124.772 61.6362C124.772 65.6178 127.464 68.1955 131.101 68.1955C134.208 68.1955 136.21 66.4233 136.924 64.2139ZM145.19 57.3093C147.147 57.3093 148.689 58.5521 148.735 60.5084H141.715C141.991 58.5061 143.418 57.3093 145.19 57.3093ZM151.128 64.2139H148.297C147.814 65.2035 146.916 65.986 145.305 65.986C143.372 65.986 141.876 64.7202 141.692 62.6258H151.381C151.45 62.1885 151.473 61.7743 151.473 61.337C151.473 57.6085 148.919 55.0999 145.305 55.0999C141.554 55.0999 138.976 57.6545 138.976 61.6362C138.976 65.6178 141.669 68.1955 145.305 68.1955C148.412 68.1955 150.415 66.4233 151.128 64.2139ZM156.679 61.3139C156.679 58.6212 157.876 57.8156 159.809 57.8156H160.477V55.0999C158.681 55.0999 157.416 55.8824 156.679 57.1482V55.307H154.055V67.9883H156.679V61.3139ZM162.888 67.9883H165.512V55.307H162.888V67.9883ZM164.223 53.6269C165.144 53.6269 165.88 52.8904 165.88 51.9468C165.88 51.0032 165.144 50.2667 164.223 50.2667C163.28 50.2667 162.543 51.0032 162.543 51.9468C162.543 52.8904 163.28 53.6269 164.223 53.6269ZM177.956 67.9883H180.556V60.5084C180.556 56.9641 178.324 55.0999 175.355 55.0999C173.836 55.0999 172.432 55.7213 171.581 56.7569V55.307H168.957V67.9883H171.581V60.8997C171.581 58.5751 172.846 57.3784 174.78 57.3784C176.69 57.3784 177.956 58.5751 177.956 60.8997V67.9883ZM183.029 61.5901C183.029 65.5027 185.675 68.1955 189.013 68.1955C191.084 68.1955 192.603 67.1598 193.408 66.0781V68.1955C193.408 70.7271 191.889 71.97 189.864 71.97C188.046 71.97 186.642 71.0724 186.251 69.7605H183.65C183.972 72.5684 186.481 74.2485 189.864 74.2485C193.823 74.2485 196.055 71.6478 196.055 68.1955V55.307H193.408V57.1482C192.626 56.0665 191.084 55.0999 189.013 55.0999C185.675 55.0999 183.029 57.6776 183.029 61.5901ZM193.408 61.6362C193.408 64.375 191.544 65.917 189.565 65.917C187.609 65.917 185.721 64.3289 185.721 61.5901C185.721 58.8513 187.609 57.3784 189.565 57.3784C191.544 57.3784 193.408 58.9204 193.408 61.6362ZM204.605 61.5901C204.605 65.5027 207.252 68.1955 210.543 68.1955C212.661 68.1955 214.18 67.1828 214.985 66.1011V67.9883H217.632V55.307H214.985V57.1482C214.203 56.1125 212.73 55.0999 210.589 55.0999C207.252 55.0999 204.605 57.6776 204.605 61.5901ZM214.985 61.6362C214.985 64.375 213.121 65.917 211.142 65.917C209.185 65.917 207.298 64.3289 207.298 61.5901C207.298 58.8513 209.185 57.3784 211.142 57.3784C213.121 57.3784 214.985 58.9204 214.985 61.6362ZM230.077 67.9883H232.678V60.5084C232.678 56.9641 230.445 55.0999 227.476 55.0999C225.957 55.0999 224.553 55.7213 223.702 56.7569V55.307H221.078V67.9883H223.702V60.8997C223.702 58.5751 224.968 57.3784 226.901 57.3784C228.811 57.3784 230.077 58.5751 230.077 60.8997V67.9883ZM235.15 61.5901C235.15 65.5027 237.797 68.1955 241.134 68.1955C243.205 68.1955 244.724 67.2288 245.53 66.0781V67.9883H248.176V50.9571H245.53V57.0792C244.563 55.8824 242.814 55.0999 241.157 55.0999C237.797 55.0999 235.15 57.6776 235.15 61.5901ZM245.53 61.6362C245.53 64.375 243.665 65.917 241.686 65.917C239.73 65.917 237.843 64.3289 237.843 61.5901C237.843 58.8513 239.73 57.3784 241.686 57.3784C243.665 57.3784 245.53 58.9204 245.53 61.6362ZM260.225 59.3577V54.1332H263.125C265.173 54.1332 266.094 55.0999 266.094 56.7569C266.094 58.368 265.173 59.3577 263.125 59.3577H260.225ZM268.787 56.7569C268.787 54.1562 266.922 51.9928 263.125 51.9928H257.601V67.9883H260.225V61.4981H263.125C267.291 61.4981 268.787 59.0354 268.787 56.7569ZM273.913 61.3139C273.913 58.6212 275.109 57.8156 277.043 57.8156H277.71V55.0999C275.915 55.0999 274.649 55.8824 273.913 57.1482V55.307H271.289V67.9883H273.913V61.3139ZM292.205 61.6362C292.205 57.6545 289.351 55.0999 285.738 55.0999C282.124 55.0999 279.27 57.6545 279.27 61.6362C279.27 65.6178 282.009 68.1955 285.622 68.1955C289.259 68.1955 292.205 65.6178 292.205 61.6362ZM281.94 61.6362C281.94 58.7593 283.712 57.3784 285.692 57.3784C287.648 57.3784 289.512 58.7593 289.512 61.6362C289.512 64.5131 287.579 65.917 285.622 65.917C283.643 65.917 281.94 64.5131 281.94 61.6362ZM296.133 53.6269C297.054 53.6269 297.79 52.8904 297.79 51.9468C297.79 51.0032 297.054 50.2667 296.133 50.2667C295.19 50.2667 294.453 51.0032 294.453 51.9468C294.453 52.8904 295.19 53.6269 296.133 53.6269ZM294.798 55.307V70.474C294.798 71.4176 294.43 71.8089 293.326 71.8089H292.428V74.0183H293.786C296.041 74.0183 297.422 73.0517 297.422 70.474V55.307H294.798ZM306.206 57.3093C308.163 57.3093 309.705 58.5521 309.751 60.5084H302.731C303.007 58.5061 304.434 57.3093 306.206 57.3093ZM312.144 64.2139H309.314C308.83 65.2035 307.933 65.986 306.322 65.986C304.388 65.986 302.892 64.7202 302.708 62.6258H312.398C312.467 62.1885 312.49 61.7743 312.49 61.337C312.49 57.6085 309.935 55.0999 306.322 55.0999C302.57 55.0999 299.992 57.6545 299.992 61.6362C299.992 65.6178 302.685 68.1955 306.322 68.1955C309.429 68.1955 311.431 66.4233 312.144 64.2139ZM314.197 61.6362C314.197 65.6178 316.775 68.1955 320.411 68.1955C323.518 68.1955 325.544 66.4693 326.257 63.9837H323.426C322.943 65.2956 321.976 65.986 320.411 65.986C318.294 65.986 316.89 64.421 316.89 61.6362C316.89 58.8743 318.294 57.3093 320.411 57.3093C321.976 57.3093 322.989 58.0918 323.426 59.3116H326.257C325.544 56.6419 323.518 55.0999 320.411 55.0999C316.775 55.0999 314.197 57.6776 314.197 61.6362ZM329.286 64.467C329.286 67.0447 330.69 67.9883 332.945 67.9883H335.017V65.8019H333.406C332.301 65.8019 331.933 65.4106 331.933 64.467V57.4474H335.017V55.307H331.933V52.1539H329.286V55.307H327.79V57.4474H329.286V64.467ZM120.791 95.9883H123.415V85.0331L128.317 95.9883H130.136L135.015 85.0331V95.9883H137.638V79.9928H134.831L129.238 92.5361L123.622 79.9928H120.791V95.9883ZM140.212 89.5901C140.212 93.5027 142.859 96.1955 146.15 96.1955C148.268 96.1955 149.787 95.1828 150.592 94.1011V95.9883H153.239V83.307H150.592V85.1482C149.81 84.1125 148.337 83.0999 146.196 83.0999C142.859 83.0999 140.212 85.6776 140.212 89.5901ZM150.592 89.6362C150.592 92.375 148.728 93.917 146.749 93.917C144.792 93.917 142.905 92.3289 142.905 89.5901C142.905 86.8513 144.792 85.3784 146.749 85.3784C148.728 85.3784 150.592 86.9204 150.592 89.6362ZM165.684 95.9883H168.285V88.5084C168.285 84.9641 166.052 83.0999 163.083 83.0999C161.564 83.0999 160.16 83.7213 159.309 84.7569V83.307H156.685V95.9883H159.309V88.8997C159.309 86.5751 160.575 85.3784 162.508 85.3784C164.418 85.3784 165.684 86.5751 165.684 88.8997V95.9883ZM170.757 89.5901C170.757 93.5027 173.404 96.1955 176.695 96.1955C178.812 96.1955 180.331 95.1828 181.137 94.1011V95.9883H183.783V83.307H181.137V85.1482C180.354 84.1125 178.881 83.0999 176.741 83.0999C173.404 83.0999 170.757 85.6776 170.757 89.5901ZM181.137 89.6362C181.137 92.375 179.273 93.917 177.293 93.917C175.337 93.917 173.45 92.3289 173.45 89.5901C173.45 86.8513 175.337 85.3784 177.293 85.3784C179.273 85.3784 181.137 86.9204 181.137 89.6362ZM186.355 89.5901C186.355 93.5027 189.002 96.1955 192.339 96.1955C194.41 96.1955 195.929 95.1598 196.735 94.0781V96.1955C196.735 98.7271 195.216 99.97 193.191 99.97C191.372 99.97 189.968 99.0724 189.577 97.7605H186.976C187.299 100.568 189.807 102.248 193.191 102.248C197.149 102.248 199.382 99.6478 199.382 96.1955V83.307H196.735V85.1482C195.952 84.0665 194.41 83.0999 192.339 83.0999C189.002 83.0999 186.355 85.6776 186.355 89.5901ZM196.735 89.6362C196.735 92.375 194.871 93.917 192.891 93.917C190.935 93.917 189.048 92.3289 189.048 89.5901C189.048 86.8513 190.935 85.3784 192.891 85.3784C194.871 85.3784 196.735 86.9204 196.735 89.6362ZM208.167 85.3093C210.124 85.3093 211.666 86.5521 211.712 88.5084H204.692C204.968 86.5061 206.395 85.3093 208.167 85.3093ZM214.105 92.2139H211.274C210.791 93.2035 209.893 93.986 208.282 93.986C206.349 93.986 204.853 92.7202 204.669 90.6258H214.358C214.427 90.1885 214.45 89.7743 214.45 89.337C214.45 85.6085 211.896 83.0999 208.282 83.0999C204.531 83.0999 201.953 85.6545 201.953 89.6362C201.953 93.6178 204.646 96.1955 208.282 96.1955C211.389 96.1955 213.392 94.4233 214.105 92.2139ZM235.007 95.9883H237.608V88.5084C237.608 84.9641 235.353 83.0999 232.384 83.0999C230.542 83.0999 228.747 84.0665 227.965 85.6085C227.09 83.9514 225.41 83.0999 223.408 83.0999C221.889 83.0999 220.508 83.7213 219.656 84.7569V83.307H217.032V95.9883H219.656V88.8997C219.656 86.5751 220.922 85.3784 222.855 85.3784C224.766 85.3784 226.031 86.5751 226.031 88.8997V95.9883H228.632V88.8997C228.632 86.5751 229.898 85.3784 231.831 85.3784C233.741 85.3784 235.007 86.5751 235.007 88.8997V95.9883ZM246.286 85.3093C248.242 85.3093 249.784 86.5521 249.83 88.5084H242.811C243.087 86.5061 244.514 85.3093 246.286 85.3093ZM252.224 92.2139H249.393C248.91 93.2035 248.012 93.986 246.401 93.986C244.468 93.986 242.972 92.7202 242.788 90.6258H252.477C252.546 90.1885 252.569 89.7743 252.569 89.337C252.569 85.6085 250.015 83.0999 246.401 83.0999C242.65 83.0999 240.072 85.6545 240.072 89.6362C240.072 93.6178 242.765 96.1955 246.401 96.1955C249.508 96.1955 251.511 94.4233 252.224 92.2139ZM264.15 95.9883H266.751V88.5084C266.751 84.9641 264.518 83.0999 261.55 83.0999C260.031 83.0999 258.627 83.7213 257.775 84.7569V83.307H255.151V95.9883H257.775V88.8997C257.775 86.5751 259.041 85.3784 260.974 85.3784C262.884 85.3784 264.15 86.5751 264.15 88.8997V95.9883ZM270.512 92.467C270.512 95.0447 271.916 95.9883 274.171 95.9883H276.243V93.8019H274.632C273.527 93.8019 273.159 93.4106 273.159 92.467V85.4474H276.243V83.307H273.159V80.1539H270.512V83.307H269.016V85.4474H270.512V92.467Z" fill="white"/>
<defs>
<linearGradient id="paint0_linear_214_1493" x1="198" y1="0" x2="198" y2="344" gradientUnits="userSpaceOnUse">
<stop offset="0.328" stop-color="#1489C7"/>
<stop offset="0.4474" stop-color="#339ED6"/>
<stop offset="0.6028" stop-color="#55B6E5"/>
<stop offset="0.7509" stop-color="#6DC6F1"/>
<stop offset="0.8871" stop-color="#7CD0F8"/>
<stop offset="1" stop-color="#81D4FA"/>
</linearGradient>
<linearGradient id="paint1_linear_214_1493" x1="140.572" y1="261.809" x2="329.051" y2="261.809" gradientUnits="userSpaceOnUse">
<stop stop-color="#FFC05C"/>
<stop offset="1" stop-color="#FF3857"/>
</linearGradient>
<linearGradient id="paint2_linear_214_1493" x1="140.573" y1="256.709" x2="329.151" y2="256.709" gradientUnits="userSpaceOnUse">
<stop stop-color="#40D5E6"/>
<stop offset="1" stop-color="#5577FF"/>
</linearGradient>
<linearGradient id="paint3_linear_214_1493" x1="232" y1="196.956" x2="299.221" y2="196.956" gradientUnits="userSpaceOnUse">
<stop stop-color="#8FD6FF"/>
<stop offset="1" stop-color="#BFEBFE"/>
</linearGradient>
<linearGradient id="paint4_linear_214_1493" x1="230.882" y1="188.325" x2="297.886" y2="188.325" gradientUnits="userSpaceOnUse">
<stop stop-color="#8FD6FF"/>
<stop offset="1" stop-color="#BFEBFE"/>
</linearGradient>
<linearGradient id="paint5_linear_214_1493" x1="243.34" y1="167.047" x2="205.453" y2="274.989" gradientUnits="userSpaceOnUse">
<stop stop-color="#C6CBCF"/>
<stop offset="1" stop-color="#F8F1FE"/>
</linearGradient>
<linearGradient id="paint6_linear_214_1493" x1="272.899" y1="291.628" x2="330.033" y2="374.241" gradientUnits="userSpaceOnUse">
<stop stop-color="#007FE6"/>
<stop offset="1" stop-color="#188CC9"/>
</linearGradient>
<linearGradient id="paint7_linear_214_1493" x1="64.6675" y1="201.787" x2="65.6738" y2="250.424" gradientUnits="userSpaceOnUse">
<stop stop-color="white"/>
<stop offset="1"/>
</linearGradient>
<linearGradient id="paint8_linear_214_1493" x1="64.6675" y1="201.787" x2="65.6738" y2="250.424" gradientUnits="userSpaceOnUse">
<stop stop-color="#40D5E6"/>
<stop offset="1" stop-color="#5577FF"/>
</linearGradient>
<linearGradient id="paint9_linear_214_1493" x1="56.9054" y1="201.947" x2="57.9117" y2="250.585" gradientUnits="userSpaceOnUse">
<stop stop-color="white"/>
<stop offset="1"/>
</linearGradient>
<linearGradient id="paint10_linear_214_1493" x1="56.9054" y1="201.947" x2="57.9117" y2="250.585" gradientUnits="userSpaceOnUse">
<stop stop-color="#40D5E6"/>
<stop offset="1" stop-color="#5577FF"/>
</linearGradient>
<linearGradient id="paint11_linear_214_1493" x1="314.333" y1="105.815" x2="302.663" y2="149.469" gradientUnits="userSpaceOnUse">
<stop stop-color="white"/>
<stop offset="1"/>
</linearGradient>
<linearGradient id="paint12_linear_214_1493" x1="314.331" y1="105.815" x2="302.661" y2="149.469" gradientUnits="userSpaceOnUse">
<stop stop-color="#40D5E6"/>
<stop offset="1" stop-color="#5577FF"/>
</linearGradient>
<linearGradient id="paint13_linear_214_1493" x1="312.622" y1="108.8" x2="303.584" y2="142.61" gradientUnits="userSpaceOnUse">
<stop stop-color="white"/>
<stop offset="1"/>
</linearGradient>
<linearGradient id="paint14_linear_214_1493" x1="312.62" y1="108.8" x2="303.582" y2="142.61" gradientUnits="userSpaceOnUse">
<stop stop-color="#40D5E6"/>
<stop offset="1" stop-color="#5577FF"/>
</linearGradient>
<linearGradient id="paint15_linear_214_1493" x1="119.05" y1="221.604" x2="119.05" y2="285.346" gradientUnits="userSpaceOnUse">
<stop stop-color="#626E7A"/>
<stop offset="1" stop-color="#F5F5F5"/>
</linearGradient>
<linearGradient id="paint16_linear_214_1493" x1="118.861" y1="244.717" x2="118.861" y2="381.185" gradientUnits="userSpaceOnUse">
<stop stop-color="#44607D"/>
<stop offset="1" stop-color="#F5F5F5"/>
</linearGradient>
<linearGradient id="paint17_linear_214_1493" x1="133.746" y1="233.269" x2="135.963" y2="233.269" gradientUnits="userSpaceOnUse">
<stop stop-color="#D5E4FF"/>
<stop offset="1" stop-color="#EDFFFE"/>
</linearGradient>
<linearGradient id="paint18_linear_214_1493" x1="137.64" y1="231.627" x2="139.856" y2="231.627" gradientUnits="userSpaceOnUse">
<stop stop-color="#D5E4FF"/>
<stop offset="1" stop-color="#EDFFFE"/>
</linearGradient>
<linearGradient id="paint19_linear_214_1493" x1="141.721" y1="232.486" x2="143.938" y2="232.486" gradientUnits="userSpaceOnUse">
<stop stop-color="#D5E4FF"/>
<stop offset="1" stop-color="#EDFFFE"/>
</linearGradient>
<linearGradient id="paint20_linear_214_1493" x1="145.92" y1="234.481" x2="148.136" y2="234.481" gradientUnits="userSpaceOnUse">
<stop stop-color="#D5E4FF"/>
<stop offset="1" stop-color="#EDFFFE"/>
</linearGradient>
<linearGradient id="paint21_linear_214_1493" x1="126.097" y1="279.761" x2="126.097" y2="269.024" gradientUnits="userSpaceOnUse">
<stop stop-color="#FF9F55"/>
<stop offset="1" stop-color="#FFD255"/>
</linearGradient>
<linearGradient id="paint22_linear_214_1493" x1="127.813" y1="284.94" x2="122.101" y2="284.94" gradientUnits="userSpaceOnUse">
<stop stop-color="#FF9F55"/>
<stop offset="1" stop-color="#FFD255"/>
</linearGradient>
<linearGradient id="paint23_linear_214_1493" x1="121.748" y1="260.827" x2="116.298" y2="260.827" gradientUnits="userSpaceOnUse">
<stop stop-color="#FF9F55"/>
<stop offset="1" stop-color="#FFD255"/>
</linearGradient>
</defs>
</svg>
