<svg width="396" height="344" viewBox="0 0 396 344" fill="none" xmlns="http://www.w3.org/2000/svg">
<path d="M0 344V0H396V344H0Z" fill="url(#paint0_linear_228_15805)"/>
<path d="M322.992 118.363H319.983V117.096C319.983 115.75 318.875 114.641 317.529 114.641H315.232C314.995 111.87 312.619 109.732 309.848 109.732C306.839 109.732 304.384 112.187 304.384 115.196V118.363H301.929C300.583 118.363 299.475 119.471 299.475 120.818C299.475 122.164 300.583 123.272 301.929 123.272H322.992C324.338 123.272 325.447 122.164 325.447 120.818C325.447 119.471 324.338 118.363 322.992 118.363Z" fill="url(#paint1_linear_228_15805)"/>
<path d="M166.049 161.518H163.04V160.251C163.04 158.905 161.931 157.797 160.585 157.797H158.289C158.051 155.025 155.676 152.887 152.904 152.887C149.895 152.887 147.441 155.342 147.441 158.351V161.518H144.986C143.64 161.518 142.531 162.627 142.531 163.973C142.531 165.319 143.64 166.428 144.986 166.428H166.049C167.395 166.428 168.504 165.319 168.504 163.973C168.504 162.627 167.395 161.518 166.049 161.518Z" fill="url(#paint2_linear_228_15805)"/>
<path d="M76.6869 108.215H72.8068C71.6983 102.434 66.6305 98 60.4541 98C55.4655 98 51.2687 100.851 49.21 105.047C48.4181 104.493 47.3887 104.176 46.2801 104.176C43.4295 104.176 41.1332 106.473 41.1332 109.323C41.1332 109.798 41.2124 110.194 41.2915 110.59H26.8008C24.6629 110.59 23 112.332 23 114.391C23 116.529 24.7421 118.192 26.8008 118.192H50.5561C52.8524 121.201 56.4157 123.101 60.5333 123.101C63.3047 123.101 65.9178 122.151 67.9766 120.647H76.766C80.171 120.647 83.0216 117.875 83.0216 114.391C82.9424 110.986 80.171 108.215 76.6869 108.215Z" fill="url(#paint3_linear_228_15805)"/>
<path d="M388.398 179.018H386.419C385.864 176.088 383.33 173.95 380.242 173.95C377.787 173.95 375.649 175.376 374.62 177.434C374.224 177.118 373.749 176.959 373.195 176.959C371.769 176.959 370.661 178.147 370.661 179.493C370.661 179.731 370.661 179.968 370.74 180.127H363.455C362.426 180.127 361.555 180.998 361.555 182.027C361.555 183.056 362.426 183.927 363.455 183.927H375.333C376.52 185.432 378.263 186.382 380.321 186.382C381.747 186.382 383.014 185.907 384.043 185.115H388.398C390.14 185.115 391.486 183.69 391.486 182.027C391.486 180.443 390.14 179.018 388.398 179.018Z" fill="url(#paint4_linear_228_15805)"/>
<path d="M187.256 165.215H191.136C192.244 159.434 197.312 155 203.488 155C208.477 155 212.674 157.851 214.732 162.047C215.524 161.493 216.554 161.176 217.662 161.176C220.513 161.176 222.809 163.473 222.809 166.323C222.809 166.798 222.73 167.194 222.651 167.59H237.221C239.359 167.59 241.022 169.332 241.022 171.391C241.022 173.529 239.28 175.192 237.221 175.192H213.466C211.169 178.201 207.606 180.101 203.488 180.101C200.717 180.101 198.104 179.151 196.045 177.647H187.256C183.851 177.647 181 174.875 181 171.391C181 167.986 183.851 165.215 187.256 165.215Z" fill="url(#paint5_linear_228_15805)"/>
<path d="M7.83941 192.875H9.89819C10.4525 189.787 13.1447 187.491 16.3913 187.491C19.0044 187.491 21.2215 188.995 22.3301 191.212C22.726 190.896 23.2803 190.737 23.8346 190.737C25.3391 190.737 26.5269 191.925 26.5269 193.43C26.5269 193.667 26.5269 193.905 26.4477 194.142H34.1285C35.2371 194.142 36.1873 195.013 36.1873 196.201C36.1873 197.31 35.3163 198.26 34.1285 198.26H21.6966C20.5089 199.843 18.6085 200.873 16.4705 200.873C14.966 200.873 13.6198 200.398 12.5113 199.527H7.83941C6.01817 199.527 4.51367 198.022 4.51367 196.201C4.51367 194.38 6.01817 192.875 7.83941 192.875Z" fill="url(#paint6_linear_228_15805)"/>
<path d="M255.602 156.263H102.645V303.505H255.602V156.263Z" fill="url(#paint7_linear_228_15805)"/>
<path d="M292.17 249.788C292.17 249.788 283.875 226.976 264.654 232.944C264.654 232.944 280.84 235.524 289.186 249.13C297.481 262.686 292.17 249.788 292.17 249.788Z" fill="url(#paint8_linear_228_15805)"/>
<path d="M288.884 249.788C288.884 249.788 297.179 226.976 316.4 232.944C316.4 232.944 300.214 235.524 291.868 249.13C283.624 262.686 288.884 249.788 288.884 249.788Z" fill="url(#paint9_linear_228_15805)"/>
<path d="M309.115 231.983C309.115 231.983 322.165 230.618 309.621 251.204L316.399 252.013C316.399 252.013 340.476 230.921 309.115 231.983Z" fill="url(#paint10_linear_228_15805)"/>
<path d="M294.447 249.839L292.171 250.85L291.564 251.103C291.564 251.103 282.56 248.574 287.618 246.399C288.832 245.893 289.844 245.792 290.704 245.994C293.435 246.652 294.447 249.839 294.447 249.839Z" fill="url(#paint11_linear_228_15805)"/>
<path d="M292.171 250.901L291.564 251.154C291.564 251.154 282.56 248.625 287.618 246.45C288.832 245.944 289.844 245.843 290.704 246.045C290.704 246.045 286.759 247.411 292.171 250.901Z" fill="url(#paint12_linear_228_15805)"/>
<path d="M324.544 248.574H254.59V303.556H324.544V248.574Z" fill="url(#paint13_linear_228_15805)"/>
<path d="M327.073 248.574H252.111V265.063H327.073V248.574Z" fill="url(#paint14_linear_228_15805)"/>
<path d="M297.128 248.574H282.055V303.556H297.128V248.574Z" fill="url(#paint15_linear_228_15805)"/>
<path d="M334.256 266.884C334.256 266.884 328.186 264.659 324.797 262.18C323.785 261.422 323.027 260.663 322.774 259.955C322.521 259.297 322.622 258.69 323.229 258.134C323.229 258.134 323.634 257.982 324.645 258.387C326.163 259.044 329.096 260.966 334.053 266.682C334.155 266.783 334.205 266.834 334.256 266.884Z" fill="url(#paint16_linear_228_15805)"/>
<path d="M334.253 266.884L333.899 268.604C333.899 268.604 321.759 271.639 317.864 267.694C317.814 267.643 317.763 267.593 317.713 267.542C317.359 267.137 317.156 266.733 317.055 266.328C315.942 262.585 323.226 258.184 323.226 258.184C323.074 258.387 323.125 258.69 323.327 259.044C323.529 259.398 323.884 259.803 324.339 260.208C327.222 262.888 334.253 266.884 334.253 266.884Z" fill="url(#paint17_linear_228_15805)"/>
<path d="M324.341 260.157C324.341 260.157 321.862 261.169 321.103 262.787C320.345 264.406 319.94 265.772 318.878 266.277C318.372 266.53 318.018 266.986 317.765 267.491C317.411 267.087 317.209 266.682 317.107 266.277C317.209 265.62 317.411 264.912 317.967 264.305C319.535 262.484 321.103 261.118 321.306 260.461C321.457 259.955 322.773 259.297 323.38 258.994C323.531 259.348 323.885 259.752 324.341 260.157Z" fill="url(#paint18_linear_228_15805)"/>
<path d="M337.998 266.884C337.998 266.884 344.068 264.659 347.457 262.18C348.468 261.422 349.227 260.663 349.48 259.955C349.733 259.297 349.632 258.69 349.025 258.134C349.025 258.134 348.62 257.982 347.608 258.387C346.091 259.044 343.157 260.966 338.2 266.682C338.099 266.783 338.049 266.834 337.998 266.884Z" fill="url(#paint19_linear_228_15805)"/>
<path d="M337.998 266.884L338.352 268.604C338.352 268.604 350.492 271.639 354.386 267.694C354.437 267.643 354.488 267.593 354.538 267.542C354.892 267.137 355.094 266.733 355.196 266.328C356.308 262.585 349.025 258.184 349.025 258.184C349.177 258.387 349.126 258.69 348.924 259.044C348.721 259.398 348.367 259.803 347.912 260.208C345.079 262.888 337.998 266.884 337.998 266.884Z" fill="url(#paint20_linear_228_15805)"/>
<path d="M333.796 266.884C333.796 266.884 334.353 266.227 334.757 266.48C335.162 266.733 335.718 265.974 336.325 266.277C336.932 266.581 336.983 265.772 337.742 266.227C338.5 266.682 338.905 268.149 338.349 268.857C337.792 269.616 337.489 268.705 337.236 268.857C336.983 269.009 336.477 269.666 335.617 269.161C334.757 268.655 333.543 269.616 333.645 269.009C333.746 268.402 333.442 268.098 333.796 266.884Z" fill="url(#paint21_linear_228_15805)"/>
<path d="M358.433 268.554H313.871V303.556H358.433V268.554Z" fill="url(#paint22_linear_228_15805)"/>
<path d="M359.999 268.554H312.301V280.693H359.999V268.554Z" fill="url(#paint23_linear_228_15805)"/>
<path d="M340.878 268.554H331.318V303.556H340.878V268.554Z" fill="url(#paint24_linear_228_15805)"/>
<path d="M76.7947 207.755C84.4831 213.117 92.0702 216.708 96.1167 214.533C96.3696 214.381 96.572 214.229 96.7743 214.078C99.101 212.257 99.9103 207.957 98.3423 200.168C94.2452 179.531 81.2459 176.243 69.1064 169.971C57.1186 163.85 61.6709 150.75 61.8227 150.446C45.2321 179.834 63.7448 198.65 76.7947 207.755Z" fill="url(#paint25_linear_228_15805)"/>
<path d="M96.1676 214.533C96.4205 214.381 96.6229 214.229 96.8252 214.078C95.3078 210.031 91.9188 202.292 87.3159 198.043C85.1409 196.071 82.6119 194.25 79.9311 192.378C74.8729 188.787 69.6631 185.044 66.1224 179.581L65.4648 179.986C69.1067 185.6 74.3671 189.343 79.4758 192.985C82.1061 194.857 84.6351 196.678 86.7595 198.6C91.2613 202.747 94.6502 210.638 96.1676 214.533Z" fill="url(#paint26_linear_228_15805)"/>
<path d="M54.186 228.898C64.808 230.618 71.6871 222.221 83.9277 237.699C94.4992 251.052 109.471 236.283 113.315 231.983C113.922 231.326 114.276 230.871 114.276 230.871C114.276 230.871 114.024 230.921 113.619 231.022C110.989 231.579 100.923 233.248 98.5457 225.559C95.8143 216.708 87.9742 204.72 77.6557 207.907C67.3371 211.093 65.1115 203.304 57.4738 197.436C49.8866 191.67 38 202.444 38 202.444C38 202.444 43.5639 227.178 54.186 228.898Z" fill="url(#paint27_linear_228_15805)"/>
<path d="M87.5173 226.015C89.5405 229.505 91.6144 233.147 96.369 235.17C102.843 237.901 109.419 234.715 113.364 232.085C113.971 231.427 114.325 230.972 114.325 230.972C114.325 230.972 114.072 231.022 113.668 231.123C109.975 233.754 103.197 237.396 96.6219 234.614C92.0696 232.691 90.0463 229.151 88.0737 225.711C85.7975 221.766 83.4202 217.669 77.2493 216.253C74.5179 215.646 72.09 215.848 69.7127 216C66.3238 216.303 63.1371 216.556 59.647 214.128L59.293 214.634C62.9854 217.163 66.2732 216.91 69.7633 216.607C72.09 216.404 74.4673 216.202 77.0976 216.809C83.0156 218.175 85.1905 221.968 87.5173 226.015Z" fill="url(#paint28_linear_228_15805)"/>
<path d="M252.413 179.429C253.576 200.471 270.217 199.409 271.532 199.308C271.583 199.308 271.633 199.308 271.633 199.308C271.279 198.903 270.925 198.448 270.622 198.043C262.276 186.46 271.785 170.628 271.633 158.995C271.482 146.906 260.708 144.276 260.708 144.276C268.599 150.902 251.199 157.578 252.413 179.429Z" fill="url(#paint29_linear_228_15805)"/>
<path d="M262.175 190.051C264.451 194.098 267.992 197.133 271.532 199.308C271.583 199.308 271.634 199.308 271.634 199.308C271.28 198.903 270.925 198.448 270.622 198.043C267.587 195.969 264.653 193.238 262.681 189.799C260.152 185.347 259.747 180.39 261.416 175.13C266.677 158.438 263.692 155.757 263.591 155.656L263.389 155.909L263.187 156.111C263.338 156.263 265.817 159.248 260.86 174.978C259.14 180.34 259.545 185.398 262.175 190.051Z" fill="url(#paint30_linear_228_15805)"/>
<path d="M285.998 200.471C279.372 208.665 272.341 214.887 267.283 213.774C266.979 213.724 266.676 213.622 266.423 213.521C263.338 212.257 261.163 207.907 260.404 199.055C258.431 175.535 271.38 167.948 282.558 157.477C293.585 147.159 289.842 134.513 289.589 134.21C316.549 160.613 297.227 186.612 285.998 200.471Z" fill="url(#paint31_linear_228_15805)"/>
<path d="M267.284 213.724C266.98 213.673 266.677 213.572 266.424 213.471C266.828 208.665 268.042 199.257 271.684 193.289C273.404 190.456 275.579 187.775 277.855 184.892C282.155 179.48 286.656 173.815 288.73 166.835L289.59 167.088C287.466 174.27 282.913 179.935 278.563 185.449C276.287 188.281 274.163 191.013 272.443 193.744C268.902 199.561 267.688 209.07 267.284 213.724Z" fill="url(#paint32_linear_228_15805)"/>
<path d="M266.223 297.79H92.0215C86.5588 297.79 82.1582 293.389 82.1582 287.926V187.27C82.1582 181.807 86.5588 177.406 92.0215 177.406H266.223C271.686 177.406 276.087 181.807 276.087 187.27V287.926C276.087 293.389 271.686 297.79 266.223 297.79Z" fill="url(#paint33_linear_228_15805)"/>
<path d="M242.954 218.883C234.153 218.883 226.971 211.7 226.971 202.899C226.971 194.098 234.153 186.915 242.954 186.915C251.755 186.915 258.938 194.098 258.938 202.899C258.887 211.751 251.755 218.883 242.954 218.883ZM242.954 189.293C235.468 189.293 229.348 195.413 229.348 202.899C229.348 210.385 235.468 216.505 242.954 216.505C250.44 216.505 256.561 210.385 256.561 202.899C256.561 195.413 250.44 189.293 242.954 189.293Z" fill="#FF7759"/>
<path d="M103.858 270.273C102.998 270.273 102.189 270.122 101.43 269.818C100.672 269.515 100.014 269.11 99.4576 268.604C98.9012 268.098 98.446 267.491 98.1425 266.783C97.839 266.075 97.6367 265.367 97.6367 264.558C97.6367 263.799 97.7885 263.04 98.1425 262.332C98.446 261.624 98.9012 261.017 99.4576 260.511C100.014 260.005 100.672 259.601 101.43 259.297C102.189 258.994 102.998 258.842 103.858 258.842C104.718 258.842 105.527 258.994 106.286 259.297C107.045 259.601 107.702 260.005 108.259 260.511C108.815 261.017 109.27 261.624 109.574 262.332C109.877 263.04 110.08 263.748 110.08 264.558C110.08 265.367 109.928 266.126 109.574 266.783C109.27 267.491 108.815 268.048 108.259 268.604C107.702 269.11 107.045 269.515 106.286 269.818C105.527 270.122 104.718 270.273 103.858 270.273ZM99.7611 284.183L110.333 271.841L120.095 258.994L122.371 261.017L112.103 273.156L101.987 286.206L99.7611 284.183ZM103.858 267.744C104.212 267.744 104.566 267.643 104.87 267.491C105.173 267.34 105.477 267.087 105.73 266.783C105.983 266.48 106.185 266.176 106.337 265.772C106.488 265.367 106.539 264.962 106.539 264.558C106.539 263.698 106.286 262.939 105.73 262.332C105.224 261.725 104.566 261.422 103.858 261.422C103.504 261.422 103.15 261.523 102.847 261.674C102.543 261.826 102.24 262.079 101.987 262.383C101.734 262.686 101.531 262.99 101.38 263.394C101.228 263.748 101.177 264.153 101.177 264.608C101.177 265.468 101.43 266.227 101.987 266.884C102.493 267.441 103.15 267.744 103.858 267.744ZM118.375 286.308C117.515 286.308 116.706 286.156 115.947 285.852C115.188 285.549 114.531 285.144 113.974 284.638C113.418 284.133 112.963 283.526 112.659 282.868C112.356 282.16 112.154 281.452 112.154 280.642C112.154 279.833 112.305 279.074 112.659 278.417C112.963 277.709 113.418 277.152 113.974 276.596C114.531 276.09 115.188 275.685 115.947 275.382C116.706 275.078 117.515 274.927 118.375 274.927C119.235 274.927 120.044 275.078 120.803 275.382C121.562 275.685 122.219 276.09 122.776 276.596C123.332 277.102 123.787 277.709 124.091 278.417C124.394 279.125 124.546 279.833 124.546 280.642C124.546 281.452 124.394 282.21 124.091 282.868C123.787 283.576 123.332 284.133 122.776 284.638C122.219 285.144 121.562 285.549 120.803 285.852C120.044 286.156 119.235 286.308 118.375 286.308ZM118.375 283.778C118.729 283.778 119.083 283.677 119.387 283.526C119.69 283.374 119.994 283.121 120.247 282.817C120.499 282.514 120.702 282.21 120.853 281.806C121.005 281.452 121.056 281.047 121.056 280.592C121.056 280.137 121.005 279.732 120.853 279.327C120.702 278.923 120.499 278.619 120.247 278.316C119.994 278.012 119.741 277.81 119.387 277.658C119.083 277.506 118.729 277.405 118.375 277.405C118.021 277.405 117.667 277.506 117.363 277.658C117.06 277.81 116.756 278.063 116.504 278.366C116.251 278.67 116.048 278.973 115.897 279.378C115.745 279.783 115.694 280.187 115.694 280.592C115.694 281.452 115.947 282.21 116.504 282.817C117.009 283.475 117.616 283.778 118.375 283.778Z" fill="#FF6A59"/>
<path d="M196.368 192.985H93.4863V200.37H196.368V192.985Z" fill="url(#paint34_linear_228_15805)"/>
<path d="M196.368 186.966H93.4863V188.888H196.368V186.966Z" fill="url(#paint35_linear_228_15805)"/>
<path d="M146.091 204.467H93.4863V211.852H146.091V204.467Z" fill="url(#paint36_linear_228_15805)"/>
<path opacity="0.95" d="M211.85 308.715H146.398C142.25 308.715 138.861 305.326 138.861 301.178V215.646C138.861 211.498 142.25 208.109 146.398 208.109H211.85C215.998 208.109 219.387 211.498 219.387 215.646V301.178C219.387 305.377 215.998 308.715 211.85 308.715Z" fill="url(#paint37_linear_228_15805)"/>
<path d="M199.506 291.366C194.6 291.366 190.654 287.37 190.654 282.514C190.654 277.608 194.65 273.662 199.506 273.662C204.412 273.662 208.358 277.658 208.358 282.514C208.358 287.37 204.362 291.366 199.506 291.366ZM199.506 275.331C195.561 275.331 192.374 278.518 192.374 282.463C192.374 286.409 195.561 289.595 199.506 289.595C203.451 289.595 206.638 286.409 206.638 282.463C206.638 278.518 203.451 275.331 199.506 275.331Z" fill="#FF5458"/>
<path d="M198.947 285.953L194.9 281.958L196.114 280.744L198.947 283.526L202.892 279.58L204.106 280.794L198.947 285.953Z" fill="#FF5458"/>
<path d="M226.72 278.569H224.141V290.455H226.72V278.569Z" fill="#FF7759"/>
<path d="M229.198 278.569H227.934V290.455H229.198V278.569Z" fill="#FF7759"/>
<path d="M232.79 278.569H230.463V290.455H232.79V278.569Z" fill="#FF7759"/>
<path d="M235.52 278.569H234.104V290.455H235.52V278.569Z" fill="#FF7759"/>
<path d="M237.142 278.619H236.484V290.506H237.142V278.619Z" fill="#FF7759"/>
<path d="M240.325 278.569H238.1V290.455H240.325V278.569Z" fill="#FF7759"/>
<path d="M242.958 278.569H241.238V290.455H242.958V278.569Z" fill="#FF7759"/>
<path d="M244.626 278.569H243.766V290.455H244.626V278.569Z" fill="#FF7759"/>
<path d="M248.016 278.569H245.588V290.455H248.016V278.569Z" fill="#FF7759"/>
<path d="M250.444 278.569H248.623V290.455H250.444V278.569Z" fill="#FF7759"/>
<path d="M252.112 278.569H251.201V290.455H252.112V278.569Z" fill="#FF7759"/>
<path d="M254.085 278.569H252.82V290.455H254.085V278.569Z" fill="#FF7759"/>
<path d="M258.889 278.619H254.943V290.506H258.889V278.619Z" fill="#FF7759"/>
<path d="M97.9902 146.805V168.605C97.9902 168.605 102.34 174.776 107.55 168.605H117.11C117.11 168.605 121.46 174.776 126.67 168.605H136.23C136.23 168.605 140.58 174.776 145.789 168.605H155.349C155.349 168.605 159.699 174.776 164.909 168.605H174.469C174.469 168.605 178.819 174.776 184.029 168.605H193.589C193.589 168.605 197.939 174.776 203.149 168.605H212.506C212.506 168.605 216.856 174.776 222.066 168.605H231.626C231.626 168.605 235.976 174.776 241.186 168.605H250.745C250.745 168.605 255.095 174.776 260.305 168.605V146.805H97.9902Z" fill="url(#paint38_linear_228_15805)"/>
<path d="M107.551 168.656C107.551 168.656 111.901 174.827 117.111 168.656V146.805H107.551V168.656Z" fill="#38D2E0"/>
<path d="M126.619 168.656C126.619 168.656 130.969 174.827 136.179 168.656V146.805H126.619V168.656Z" fill="#38D2E0"/>
<path d="M145.74 168.656C145.74 168.656 150.09 174.827 155.3 168.656V146.805H145.74V168.656Z" fill="#38D2E0"/>
<path d="M164.809 168.656C164.809 168.656 169.159 174.827 174.368 168.656V146.805H164.809V168.656V168.656Z" fill="#38D2E0"/>
<path d="M183.877 168.656C183.877 168.656 188.227 174.827 193.437 168.656V146.805H183.877V168.656Z" fill="#38D2E0"/>
<path d="M202.947 168.656C202.947 168.656 207.297 174.827 212.507 168.656V146.805H202.947V168.656Z" fill="#38D2E0"/>
<path d="M222.066 168.656C222.066 168.656 226.416 174.827 231.626 168.656V146.805H222.066V168.656Z" fill="#38D2E0"/>
<path d="M241.137 146.805V168.605C241.137 168.605 245.487 174.776 250.697 168.605V146.805H241.137Z" fill="#38D2E0"/>
<path d="M194.144 223.081L192.778 228.999H158.332V230.365L163.289 253.379V254.037H166.122L166.83 257.021H167.841C166.88 257.375 166.172 258.286 166.172 259.398C166.172 260.764 167.285 261.927 168.701 261.927C170.067 261.927 171.23 260.815 171.23 259.398C171.23 258.336 170.522 257.375 169.561 257.021H183.724C182.763 257.375 182.055 258.286 182.055 259.398C182.055 260.764 183.167 261.927 184.584 261.927C185.949 261.927 187.113 260.815 187.113 259.398C187.113 258.336 186.405 257.375 185.444 257.021H186.556V255.959H167.639L167.184 254.037H188.58V253.379L192.626 234.563L195.003 224.194H209.47V223.081H194.144ZM170.168 259.398C170.168 260.208 169.51 260.865 168.701 260.865C167.892 260.865 167.234 260.208 167.234 259.398C167.234 258.589 167.892 257.931 168.701 257.931C169.51 257.931 170.168 258.589 170.168 259.398ZM186.051 259.398C186.051 260.208 185.393 260.865 184.584 260.865C183.774 260.865 183.117 260.208 183.117 259.398C183.117 258.589 183.774 257.931 184.584 257.931C185.393 257.931 186.051 258.589 186.051 259.398ZM171.433 238.255H180.436L179.981 244.831H171.888L171.433 238.255ZM170.724 244.78H162.682L161.266 238.205H170.269L170.724 244.78ZM180.537 236.89H171.331L170.876 230.314H181.043L180.537 236.89ZM182.206 230.365H192.323L190.906 236.94H181.701L182.206 230.365ZM179.88 246.146L179.424 252.722H172.495L172.04 246.146H179.88ZM181.043 246.146H188.883L187.467 252.722H180.537L181.043 246.146ZM189.187 244.78H181.144L181.599 238.205H190.603L189.237 244.629L189.187 244.78ZM169.662 230.365L170.117 236.94H160.912L159.495 230.365H169.662ZM162.935 246.146H170.775L171.23 252.722H164.301L162.935 246.146Z" fill="#FF5458"/>
<path d="M183.167 297.284H175.074V298.295H183.167V297.284Z" fill="#FF5458"/>
<path d="M183.167 213.875H175.074V214.887H183.167V213.875Z" fill="#FF5458"/>
<path d="M170.677 277.962H150.748V280.642H170.677V277.962Z" fill="#FF5458"/>
<path d="M180.287 284.335H150.748V287.016H180.287V284.335Z" fill="#FF5458"/>
<path d="M258.889 234.715H227.934V244.882H258.889V234.715Z" fill="#FF6A59"/>
<path d="M258.889 247.664H227.934V253.733H258.889V247.664Z" fill="#FF6A59"/>
<path d="M241.993 280.491C241.993 280.491 241.589 281.148 241.538 281.705C241.488 282.109 241.134 282.767 240.982 283.121C240.83 283.475 240.324 285.093 240.324 285.498C240.324 285.65 240.678 286.763 240.628 287.066C240.577 287.42 240.375 288.078 240.678 288.128C240.982 288.179 241.336 287.623 241.336 287.623C241.336 287.623 241.285 287.926 241.589 288.078C242.095 288.331 242.347 288.128 242.347 288.128C242.347 288.128 242.55 288.482 242.752 288.533C243.258 288.634 243.511 288.432 243.511 288.432C243.511 288.432 243.764 288.634 244.118 288.634C244.573 288.634 244.775 288.23 244.775 288.23C244.775 288.23 245.332 288.331 245.534 288.078C245.686 287.825 245.686 287.521 245.736 287.268C245.787 287.016 245.736 284.79 244.978 283.222C244.219 281.603 245.18 280.086 245.18 280.086L241.993 280.491Z" fill="#EEA886"/>
<path d="M241.232 287.42C241.232 287.42 241.181 285.448 241.687 284.992C242.193 284.588 242.294 285.296 242.294 285.296C242.294 285.296 242.244 284.588 242.8 284.487C243.356 284.385 243.407 285.245 243.407 285.245C243.407 285.245 243.508 284.689 244.115 284.79C244.722 284.891 244.57 285.599 244.57 285.599C244.57 285.599 245.127 284.891 245.531 285.549C246.138 286.662 245.531 287.977 245.531 287.977C245.531 287.977 245.329 288.28 244.773 288.128C244.773 288.128 244.368 288.887 243.508 288.331C243.508 288.331 242.648 288.837 242.294 288.027C242.345 288.128 241.384 288.584 241.232 287.42Z" fill="#DB9C7C"/>
<path d="M235.212 251.811C235.212 251.811 238.601 263.192 239.765 267.34C240.119 268.655 240.979 281.199 241.13 281.705C241.282 282.21 245.632 282.919 245.632 282.919C245.632 282.919 245.126 267.238 245.076 266.379C245.025 265.519 240.321 247.967 238.955 247.36C237.944 246.905 237.387 247.259 236.072 248.22C234.251 249.586 235.212 251.811 235.212 251.811Z" fill="#323657"/>
<path d="M237.998 329.352C237.998 329.352 238.302 331.527 238.352 331.831C238.403 332.134 241.792 331.628 241.792 331.628L242.045 329.049C242.045 329.099 238.403 329.049 237.998 329.352Z" fill="#424773"/>
<path d="M238.303 331.578C238.303 331.578 237.241 332.893 236.178 333.449C235.116 334.006 233.498 334.258 232.891 334.815C232.435 335.22 231.272 337.04 235.622 337.04C239.972 336.99 242.046 337.293 242.552 336.585C243.007 335.877 241.894 331.426 241.894 331.426C241.894 331.426 240.781 331.831 238.303 331.578Z" fill="#292C47"/>
<path d="M213.52 329.352C213.52 329.352 213.823 331.527 213.874 331.831C213.924 332.134 217.313 331.628 217.313 331.628L217.566 329.049C217.566 329.099 213.924 329.049 213.52 329.352Z" fill="#424773"/>
<path d="M213.822 331.578C213.822 331.578 212.76 332.893 211.698 333.449C210.636 334.006 206.791 334.461 206.184 335.068C205.729 335.472 204.971 337.192 211.091 337.04C215.441 336.939 217.515 337.293 218.02 336.585C218.476 335.877 217.363 331.426 217.363 331.426C217.363 331.426 216.351 331.831 213.822 331.578Z" fill="#292C47"/>
<path d="M235.162 273.966C235.162 273.966 238.349 279.074 238.147 283.677C237.894 288.28 239.31 293.338 239.816 298.144C240.372 303.505 242.547 316.252 242.648 319.084C242.75 321.967 242.294 331.122 242.294 331.122L237.894 331.224C237.894 331.224 234.201 309.018 233.24 306.742C232.279 304.466 227.525 288.28 227.373 286.51C227.171 284.689 235.162 273.966 235.162 273.966Z" fill="#292C47"/>
<path d="M218.274 274.623C218.274 274.623 215.846 287.268 215.542 290.101C215.239 292.934 214.986 303.758 214.834 305.528C214.682 307.299 213.317 328.543 212.912 331.224H218.527C218.527 331.224 222.826 315.746 222.826 308.411C222.826 301.077 226.164 292.478 228.339 287.623C230.514 282.767 235.421 282.666 236.736 273.713C236.786 273.713 220.044 271.791 218.274 274.623Z" fill="#292C47"/>
<path d="M229.804 231.073C229.804 231.073 225.505 229.454 223.482 232.742C221.509 236.03 221.661 242.605 223.836 243.415C226.011 244.224 229.248 243.819 230.361 241.745C231.474 239.672 232.485 236.738 232.435 234.765C232.435 232.742 230.917 231.629 229.804 231.073Z" fill="#EEA886"/>
<path d="M224.341 243.516C224.341 243.516 224.543 244.679 224.24 245.236C223.936 245.792 229.804 245.843 229.804 245.843C229.804 245.843 230.259 242.707 231.17 240.076C232.08 237.497 224.341 243.516 224.341 243.516Z" fill="#EEA886"/>
<path d="M231.171 240.127C231.171 240.127 230.766 240.784 229.097 240.532C227.428 240.279 225.404 238.053 224.747 237.8C224.039 237.547 224.039 237.143 224.039 237.143L223.584 237.8L222.825 237.851C222.825 237.851 223.482 235.878 222.471 235.069C221.459 234.259 223.533 228.696 228.844 230.567C228.844 230.567 232.941 231.68 232.789 234.007C232.688 236.333 232.132 238.964 231.171 240.127Z" fill="#323657"/>
<path d="M223.889 245.185C223.889 245.185 223.889 244.072 224.394 243.971C224.9 243.87 229.857 243.364 230.464 243.617V244.881C230.464 244.932 229.301 245.64 223.889 245.185Z" fill="#E2D2CA"/>
<path d="M224.189 236.333C224.29 235.929 225.251 234.816 225.656 236.03C226.06 237.244 225.099 238.812 224.543 238.711C223.986 238.508 223.936 237.294 224.189 236.333Z" fill="#EEA886"/>
<path d="M204.11 258.134C204.057 258.187 204.057 258.187 204.11 258.134V258.134Z" fill="#323657"/>
<path d="M231.02 231.427C231.02 231.427 236.533 231.882 231.171 240.076L231.02 231.427Z" fill="#323657"/>
<path d="M193.587 233.096C193.739 232.54 194.346 232.388 194.346 232.388C194.599 232.034 195.206 231.832 195.206 231.832C195.206 231.781 195.206 231.781 195.257 231.781C194.852 231.376 193.739 230.567 193.689 230.415C193.587 230.213 193.638 230.213 193.84 230.112C194.043 230.011 195.864 231.225 196.471 231.629C196.622 231.73 196.723 231.832 196.774 231.832C196.926 231.983 197.28 232.084 197.583 232.388C197.634 232.439 197.634 232.439 197.685 232.489C197.988 232.894 198.696 236.03 198.696 236.03L197.432 236.586L196.167 237.648C196.167 237.648 194.7 236.434 194.346 236.08C193.992 235.726 193.79 235.271 193.689 235.069C193.689 235.018 193.638 234.968 193.587 234.866C193.436 234.614 193.183 234.31 193.183 234.31C193.031 234.108 192.98 233.703 192.98 233.703C192.98 233.349 193.587 233.096 193.587 233.096Z" fill="#EFAA88"/>
<path d="M215.64 246.854C219.079 246.399 223.884 245.185 223.884 245.185L230.51 244.932C230.51 244.932 236.58 246.247 238.957 247.36C239.16 247.461 239.16 252.772 239.817 254.138L237.845 258.336C237.845 258.336 236.681 266.631 236.479 270.273C236.378 271.942 238.856 286.105 238.856 286.105C238.856 286.105 236.226 286.864 231.724 287.37C227.223 287.876 215.943 287.167 215.892 286.662C215.842 286.105 218.067 266.834 218.169 265.822C218.32 264.305 217.663 256.161 217.663 256.161C216.601 255.352 207.496 251.103 204.967 248.877C204.309 248.27 201.477 245.539 200.668 244.578C197.835 241.24 195.508 238.357 195.205 237.75C194.901 237.396 198.29 235.524 198.594 235.423C198.847 235.322 202.691 240.279 204.158 241.897C204.815 242.605 207.547 244.578 207.547 244.578C207.547 244.578 213.515 247.006 215.64 246.854Z" fill="#323657"/>
<path d="M108.662 244.224C108.662 244.224 109.471 242.757 109.573 242.504C109.724 242.302 110.331 241.948 111.141 241.644C111.899 241.341 113.113 241.29 113.214 241.391C113.316 241.493 113.467 241.493 113.619 241.847C113.72 242.201 113.619 242.555 113.619 242.555C113.619 242.555 113.923 242.909 113.821 243.364C113.821 243.364 114.175 243.668 113.923 244.173C113.923 244.173 114.277 244.527 114.074 244.831C114.074 244.831 113.417 245.134 113.214 245.337C113.012 245.539 111.596 246.095 110.18 246.45C110.18 246.45 108.713 246.348 108.662 244.224Z" fill="#EEA886"/>
<path d="M110.989 243.617C110.989 243.617 110.888 244.477 110.787 244.679C110.635 244.881 112.405 245.64 112.405 245.64C112.405 245.64 112.001 243.769 110.989 243.617Z" fill="#CF8C6C"/>
<path d="M131.123 265.316L110.082 268.048L106.49 248.776L128.544 244.983L131.123 265.316Z" fill="#EB4747"/>
<path d="M120.447 246.854C120.396 244.831 119.638 242.403 118.07 241.088C116.906 240.127 115.49 239.925 114.023 240.177C110.584 240.734 110.381 244.325 111.09 246.804L120.447 246.854ZM111.444 246.399C110.837 243.718 111.393 241.088 114.124 240.633C115.439 240.43 116.755 240.582 117.817 241.442C119.182 242.555 119.84 244.629 119.992 246.399H111.444Z" fill="#23344A"/>
<path d="M121.308 246.854C121.258 244.831 120.347 242.403 118.779 241.088C117.616 240.127 116.199 239.925 114.733 240.177C111.293 240.734 111.698 244.325 112.406 246.804L121.308 246.854ZM112.76 246.399C112.153 243.718 112.052 241.088 114.834 240.633C116.149 240.43 117.464 240.582 118.526 241.442C119.892 242.555 120.853 244.629 121.005 246.399H112.76Z" fill="#23344A"/>
<path d="M127.879 268.402L103.297 266.53L105.27 246.601L128.132 245.893L127.879 268.402Z" fill="#9E4CC7"/>
<path d="M59.1939 257.375C59.1939 257.375 59.3962 255.706 59.3962 255.453C59.3962 255.2 59.0927 254.543 58.5869 253.885C58.1317 253.177 57.1706 252.469 57.0695 252.469C56.9177 252.469 56.766 252.418 56.4625 252.62C56.159 252.823 56.0579 253.177 56.0579 253.177C56.0579 253.177 55.552 253.278 55.4003 253.733C55.4003 253.733 54.9451 253.834 54.8945 254.34C54.8945 254.34 54.4393 254.441 54.3887 254.795C54.3887 254.795 54.7427 255.402 54.7933 255.706C54.8439 255.959 55.6532 257.223 56.6142 258.336C56.6648 258.336 57.9294 259.044 59.1939 257.375Z" fill="#EEA886"/>
<path d="M61.8717 259.702C62.074 258.134 61.8717 256.161 60.86 254.947C60.1519 254.138 59.2414 253.834 58.2298 253.784C56.8135 253.733 55.4984 254.138 54.5374 255.2C53.2223 256.616 52.8682 259.044 53.0705 260.966L61.8717 259.702ZM53.4246 260.46C53.3234 258.791 53.6775 256.768 54.8409 255.504C55.7008 254.543 56.9147 254.188 58.2298 254.239C59.1403 254.239 59.9496 254.543 60.5566 255.251C61.4164 256.262 61.6693 257.982 61.5176 259.348L53.4246 260.46Z" fill="#23344A"/>
<path d="M43.6133 282.413L45.2319 261.624L48.8231 282.109L46.3447 281.705L43.6133 282.413Z" fill="#3F74A0"/>
<path d="M48.8233 282.109L70.2191 278.366L66.729 258.437L45.1309 261.472L48.8233 282.109Z" fill="#5B83C2"/>
<path d="M71.7386 264.153C72.0927 265.165 71.7386 266.48 71.334 267.441L71.7386 267.491C72.1939 266.48 72.4974 265.165 72.1433 264.102L71.7386 264.153Z" fill="#23344A"/>
<path d="M55.957 282.919L73.5087 285.195L76.493 269.11L58.132 265.974L55.957 282.919Z" fill="#EB4747"/>
<path d="M52.3652 282.413L58.1315 266.024L55.9565 282.817L54.085 282.109L52.3652 282.413Z" fill="#AD3434"/>
<path d="M72.0918 263.698C72.6988 264.912 72.3953 266.631 72.2941 267.087L72.6482 267.238C72.7494 266.733 73.2046 264.709 72.2435 263.242L72.0918 263.698Z" fill="#23344A"/>
<path d="M54.084 284.891L57.9787 267.137L58.6363 285.397L56.5119 284.588L54.084 284.891Z" fill="#B06E2A"/>
<path d="M56.668 258.336C56.668 258.336 57.9831 259.499 58.6406 259.499C59.2982 259.499 59.6523 257.679 59.6523 257.679L59.0453 256.515L56.668 258.336Z" fill="#EEA886"/>
<path d="M107.751 245.286C107.751 245.286 108.409 244.679 108.712 244.123C109.016 243.566 110.331 246.399 110.331 246.399C110.331 246.399 108.712 246.449 108.004 246.955C107.245 247.512 107.751 245.286 107.751 245.286Z" fill="#EEA886"/>
<path d="M113.012 241.493C113.012 241.493 111.09 242.302 111.141 242.605C111.242 242.909 111.444 243.01 111.444 243.01L110.787 243.718C110.787 243.718 110.635 244.426 111.444 244.376C111.444 244.376 111.242 245.033 112.001 244.882C112.001 244.882 112.051 245.387 112.405 245.387C112.759 245.387 114.024 244.831 114.024 244.831C114.024 244.831 114.226 244.578 113.923 244.173C113.923 244.173 114.176 243.718 113.822 243.364C113.822 243.364 113.973 242.959 113.619 242.555C113.619 242.555 113.872 241.695 113.164 241.391C113.215 241.391 113.063 241.442 113.012 241.493Z" fill="#DB9C7C"/>
<path d="M109.619 242.504C109.619 242.504 111.036 242.605 111.794 243.01C111.946 243.111 112.098 243.212 112.098 243.415C112.098 243.617 111.794 243.819 111.137 243.819C110.53 243.819 109.72 244.072 109.72 244.072C109.72 244.072 109.113 243.87 109.619 242.504Z" fill="#EEA886"/>
<path d="M57.6217 255.554C57.6217 255.554 57.217 256.313 57.1664 256.566C57.1664 256.819 55.2949 256.414 55.2949 256.414C55.2949 256.414 56.7112 255.048 57.6217 255.554Z" fill="#CF8C6C"/>
<path d="M57.2189 252.62C57.2189 252.62 58.3317 254.391 58.0788 254.593C57.8259 254.795 57.573 254.745 57.573 254.745L57.7247 255.706C57.7247 255.706 57.4718 256.363 56.8143 255.908C56.8143 255.908 56.6119 256.566 56.0556 256.009C56.0556 256.009 55.7521 256.363 55.4486 256.161C55.1451 255.959 54.437 254.795 54.437 254.795C54.437 254.795 54.3864 254.492 54.8922 254.29C54.8922 254.29 54.9428 253.784 55.4486 253.683C55.4486 253.683 55.5497 253.278 56.0556 253.177C56.0556 253.177 56.359 252.317 57.0672 252.469C57.0672 252.469 57.1683 252.57 57.2189 252.62Z" fill="#DB9C7C"/>
<path d="M59.3438 255.402C59.3438 255.402 58.0793 254.694 57.27 254.593C57.0676 254.593 56.8653 254.593 56.8147 254.745C56.7136 254.897 56.8653 255.251 57.3711 255.605C57.8769 255.959 58.4333 256.616 58.4333 256.616C58.4333 256.616 59.0403 256.819 59.3438 255.402Z" fill="#EEA886"/>
<path d="M82.4111 332.893C81.3995 333.196 81.096 334.916 80.2361 335.422C79.3763 335.928 75.2286 336.282 75.0768 334.967C74.9251 333.652 76.8472 332.488 77.6565 331.831C78.5164 331.173 80.4385 329.049 80.8431 328.189C80.8431 328.189 81.1972 328.745 82.2088 328.543C83.2204 328.391 83.4227 328.088 83.4227 328.088C83.3722 329.099 83.7262 329.807 83.8274 330.212C84.1815 331.628 83.4227 332.64 82.4111 332.893Z" fill="#3F74A0"/>
<path d="M89.1878 333.146C88.429 333.854 88.2773 334.967 87.4174 335.472C87.1645 335.624 86.6587 335.776 86.1023 335.877C85.0401 336.079 83.725 336.079 83.0674 335.725C82.8651 335.574 82.7134 335.422 82.6628 335.169C82.511 333.854 84.4331 332.387 85.293 331.729C85.7988 331.325 86.3552 330.414 86.8104 329.554C87.0633 328.998 87.3163 328.492 87.468 328.189C87.468 328.189 87.5186 328.29 87.6197 328.391C87.7715 328.492 88.1256 328.644 88.7325 328.543C89.5418 328.391 89.8453 328.189 89.9465 328.088C90.0982 328.897 90.4017 329.757 90.5029 330.111C90.9075 331.477 89.9465 332.488 89.1878 333.146Z" fill="#3F74A0"/>
<path d="M81.8517 230.112C81.8517 230.112 85.0889 229.758 86.3028 232.944C87.4662 236.08 88.579 237.143 88.7307 238.761C89.2871 245.438 92.4232 243.92 91.5127 247.815C90.6528 251.659 90.0459 252.266 90.0459 252.266L82.5598 250.799H74.9727C74.9727 250.799 77.9569 249.333 77.2488 246.197C76.5913 243.061 74.9727 237.901 75.8831 234.361C76.8442 230.82 79.879 230.365 81.8517 230.112Z" fill="#223247"/>
<path d="M58.6361 285.397L77.5534 284.739L77.9075 267.036H57.9785L58.6361 285.397Z" fill="#FAA146"/>
<path d="M136.128 263.9L128.541 244.983L131.121 265.316L133.346 264.001L136.128 263.9Z" fill="#AD3434"/>
<path d="M133.396 267.795L128.136 245.893L127.883 268.402L130.462 267.441L133.396 267.795Z" fill="#5B2C73"/>
<path d="M76.4401 274.977C76.4401 274.977 73.7087 284.537 73.2029 287.016C72.7476 289.443 71.3819 301.28 71.2302 303.303C71.0784 305.326 75.7319 314.734 75.9848 315.442C76.9459 318.072 80.9418 327.632 80.9418 327.632C80.9418 327.632 83.5214 329.15 83.2179 326.924C82.3581 320.096 81.9534 318.427 81.2959 314.886C79.9302 307.147 77.1482 306.135 77.6034 304.972C81.9028 293.541 82.7627 285.802 83.3697 285.094C83.9261 284.436 84.0272 285.448 84.3813 286.914C84.7354 288.381 84.2296 298.649 84.8365 302.595C85.1906 304.719 85.8987 309.575 86.1516 312.357C86.4046 315.139 87.6691 327.986 87.6691 327.986C87.6691 327.986 87.8208 328.442 89.7429 327.379C90.0464 327.228 91.5638 315.999 91.6144 312.711C91.665 309.423 90.1981 308.917 91.3615 302.544C93.8906 288.837 93.5365 286.459 90.6028 276.596C83.4708 252.469 76.4401 274.977 76.4401 274.977Z" fill="#EEA886"/>
<path d="M109.978 246.955C109.877 246.854 102.897 252.165 102.138 252.62C100.621 253.48 99.0021 253.43 97.3329 253.531C95.4614 253.632 93.2864 253.43 91.4149 253.834C90.4539 254.037 90.3527 254.29 89.8469 255.301C88.4812 258.083 88.026 261.573 87.8743 264.659C87.6719 267.845 88.9365 270.071 90.201 272.903C90.6562 273.865 91.2632 274.876 90.4033 275.736C89.6446 276.545 88.1272 276.697 87.1155 276.798C84.6371 277.102 80.8435 277.304 78.4662 276.343C75.5324 275.129 76.0888 271.487 75.7854 268.908C75.583 267.188 74.7737 264.608 74.2679 262.99C73.8127 261.371 73.7621 260.663 73.8633 258.943C72.9528 261.523 72.1941 265.923 69.7662 267.542C67.8947 268.806 66.1749 267.087 64.8092 265.923C62.2296 263.698 59.65 261.422 57.0703 259.196C57.6267 258.69 58.1831 258.184 58.7395 257.679C58.9418 257.527 58.9418 257.476 59.1441 257.324C59.65 256.92 59.5488 256.819 60.0546 257.122C60.4087 257.324 61.2686 258.184 61.572 258.437C62.4825 259.297 63.3424 259.854 64.2528 260.713C65.0621 261.472 66.4784 263.242 67.6924 262.585C68.6534 262.13 68.9063 260.157 69.2604 259.297C70.1708 256.869 71.0813 254.441 72.1941 252.115C73.3575 249.586 75.9371 248.27 78.4662 247.259C80.6412 246.399 83.5243 246.551 85.7499 247.107C87.3179 247.512 87.8237 247.512 89.3917 247.967C90.8586 248.372 92.2242 248.877 93.7417 249.181C95.4614 249.535 97.2318 249.687 99.0021 249.687C100.418 249.687 100.975 249.484 102.138 248.675C103.706 247.562 106.033 245.691 107.753 244.831C108.764 244.274 109.118 246.095 109.978 246.955Z" fill="#F0DDD5"/>
<path d="M84.0752 243.162C84.0752 243.162 83.8223 246.399 84.4292 247.411C85.0362 248.372 83.8728 249.687 81.4955 249.231C79.1182 248.776 79.2194 247.411 79.2194 247.411C79.2194 247.411 79.8769 245.387 79.6746 243.769C79.5229 242.201 84.0752 243.162 84.0752 243.162Z" fill="#EEA886"/>
<path d="M85.6445 247.158C85.6445 247.158 83.4695 252.216 80.6876 253.278C80.6876 253.278 77.9056 250.85 78.6643 247.208C78.6643 247.158 82.2556 245.337 85.6445 247.158Z" fill="#EEA886"/>
<path d="M82.2569 231.933C82.2569 231.933 86.5563 232.54 85.9494 238.913C85.3424 245.337 81.4982 244.831 81.2453 244.78C80.9924 244.78 77.4011 244.932 77.0977 237.143C77.1482 237.143 76.9965 231.427 82.2569 231.933Z" fill="#EEA886"/>
<path d="M81.7495 234.259C81.7495 234.259 83.7727 236.384 84.6832 237.446C85.6442 238.508 85.7454 240.582 85.7454 240.582C85.7454 240.582 87.3134 238.66 86.6559 236.384C85.9983 234.158 84.4303 229.758 80.4849 231.123C76.5396 232.489 76.3879 238.357 76.8431 241.29C76.8937 241.341 78.664 234.866 81.7495 234.259Z" fill="#223247"/>
<path d="M80.1328 244.527C80.1328 244.527 82.0043 245.438 83.8758 243.971C83.8758 243.971 83.1677 245.185 81.9032 245.236C80.588 245.337 80.1328 244.527 80.1328 244.527Z" fill="#A77860"/>
<path d="M68.2503 261.978C68.0479 262.383 67.6433 262.585 67.6433 262.585C65.6706 263.647 65.3166 266.176 65.266 267.036H64.8613C65.2154 262.433 68.2503 261.978 68.2503 261.978Z" fill="#23344A"/>
<path d="M68.1459 262.029C68.1459 262.029 64.9593 262.18 64.0488 267.036L64.3523 267.087C64.3523 267.087 64.9593 263.546 67.5389 262.585C67.5389 262.534 67.893 262.383 68.1459 262.029Z" fill="#23344A"/>
<path d="M90.7066 274.168C90.7066 274.168 95.0566 283.222 92.1229 301.532C92.1229 301.532 83.2206 300.723 69.8672 299.762C69.8672 299.762 75.9369 275.129 76.0887 273.561C76.291 271.942 90.7066 274.168 90.7066 274.168Z" fill="#F0DDD5"/>
<path d="M80.8965 327.43C80.8965 327.43 82.161 328.239 83.2738 327.177L83.375 328.138C83.375 328.138 81.4023 329.909 80.8965 327.986V327.43Z" fill="#EEA886"/>
<path d="M88.0238 327.278C88.0238 327.278 88.7825 327.936 89.8953 326.924L90.047 328.037C90.047 328.037 88.125 330.01 87.6191 328.088L88.0238 327.278Z" fill="#EEA886"/>
<path d="M80.8902 327.986C80.8902 327.986 79.8786 329.2 79.9798 329.403C80.0809 329.605 82.3065 330.06 82.6606 329.554C83.0146 329.099 83.4193 328.088 83.4193 328.088C83.4193 328.088 81.4466 328.998 80.8902 327.986Z" fill="#3F74A0"/>
<path d="M87.6701 327.986C87.6701 327.986 86.709 329.352 86.8102 329.554C86.9114 329.757 88.884 330.06 89.2381 329.605C89.5922 329.15 90.0474 328.138 90.0474 328.138C90.0474 328.138 88.2265 328.998 87.6701 327.986Z" fill="#3F74A0"/>
<path d="M75.9847 272.246C75.9847 272.246 81.2451 274.168 88.7817 269.919C88.7817 269.919 89.0852 270.526 89.4393 271.386C89.4393 271.386 82.5602 275.635 76.1364 273.561C76.1364 273.51 75.9341 272.549 75.9847 272.246Z" fill="#FF4D4D"/>
<path d="M74.4699 254.542C73.8629 256.11 73.8124 258.943 73.8124 258.943C73.8124 258.943 73.61 259.702 73.3065 260.562C73.2054 256.313 74.4699 254.542 74.4699 254.542Z" fill="#AD3434"/>
<path d="M81.3982 247.512C81.1453 247.512 80.8924 247.461 80.6395 247.461C79.7796 247.309 79.4256 246.905 79.375 246.854L79.4762 246.45C79.4762 246.45 79.982 246.905 80.7407 247.006C81.7523 247.208 82.9157 246.905 84.0791 246.197L84.2308 246.601C83.1686 247.309 82.157 247.512 81.3982 247.512Z" fill="#C43B3B"/>
<path d="M94.8051 179.429L84.6888 181.301C84.1325 181.402 83.5761 181.706 83.222 182.161L60.3087 208.665C59.3982 209.728 59.4994 211.397 60.5616 212.307L70.2226 220.653C71.2848 221.564 72.954 221.462 73.8645 220.4L96.7778 193.896C97.1824 193.44 97.3847 192.884 97.3847 192.328L97.7894 182.06C97.9411 180.441 96.4743 179.126 94.8051 179.429ZM96.2719 182.97C95.7661 183.527 94.9063 183.628 94.2993 183.122C93.7429 182.616 93.6417 181.756 94.1475 181.149C94.6533 180.593 95.5132 180.492 96.1202 180.997C96.7272 181.503 96.7778 182.414 96.2719 182.97Z" fill="#EEECF0"/>
<path d="M75.1262 210.689C74.7722 211.093 74.4181 211.397 73.9629 211.65C73.5076 211.903 73.0524 212.054 72.5972 212.105L72.2431 210.638C72.2937 210.638 72.4454 210.638 72.5972 210.638C72.7489 210.587 72.9512 210.537 73.1536 210.486C73.3559 210.385 73.5582 210.284 73.7605 210.183C73.9629 210.031 74.1652 209.879 74.3675 209.677C74.6204 209.374 74.7722 209.07 74.7722 208.817C74.7722 208.564 74.671 208.362 74.4687 208.16C74.3675 208.058 74.2664 208.008 74.1146 208.008C74.0134 208.008 73.8617 208.008 73.71 208.109C73.5582 208.16 73.4065 208.261 73.2041 208.362C73.0524 208.463 72.8501 208.564 72.6478 208.716C72.1925 209.019 71.7879 209.171 71.4338 209.222C71.0797 209.272 70.7257 209.171 70.4222 208.868C70.1187 208.564 69.8658 208.261 69.714 207.907C69.5623 207.553 69.5117 207.199 69.5117 206.844C69.5117 206.49 69.6129 206.086 69.7646 205.732C69.9164 205.378 70.1187 205.024 70.4222 204.72C70.7257 204.366 71.0797 204.062 71.4844 203.911C71.8385 203.708 72.1925 203.607 72.5466 203.557L72.8501 204.973C72.7995 204.973 72.6983 204.973 72.5972 204.973C72.4454 204.973 72.3443 205.024 72.1419 205.125C71.9902 205.175 71.8385 205.276 71.6361 205.378C71.4844 205.479 71.3326 205.631 71.1809 205.782C70.928 206.086 70.7763 206.389 70.7763 206.642C70.7763 206.895 70.8774 207.148 71.1303 207.35C71.2315 207.451 71.3326 207.451 71.4338 207.502C71.535 207.502 71.6361 207.502 71.7879 207.451C71.9396 207.401 72.0408 207.35 72.1925 207.249C72.3443 207.148 72.496 207.047 72.6983 206.946C72.9512 206.794 73.1536 206.642 73.4065 206.541C73.6088 206.44 73.8617 206.389 74.064 206.339C74.2664 206.288 74.4687 206.339 74.671 206.389C74.8733 206.44 75.0757 206.541 75.278 206.743C75.632 207.047 75.885 207.35 75.9861 207.704C76.1379 208.058 76.1884 208.412 76.1379 208.767C76.0873 209.121 75.9861 209.475 75.8344 209.829C75.5815 210.082 75.3791 210.385 75.1262 210.689Z" fill="#78C2FF"/>
<path d="M78.8701 206.389C78.6678 206.642 78.4655 206.794 78.2126 206.895C77.9597 206.996 77.7068 207.047 77.4539 207.047C77.201 207.047 76.9481 206.996 76.6446 206.844C76.3917 206.743 76.1388 206.592 75.8858 206.389C75.5318 206.086 75.2789 205.732 75.0765 205.378C74.8742 204.973 74.7225 204.568 74.6719 204.164C74.6213 203.759 74.6213 203.354 74.7225 202.95C74.8236 202.545 74.9754 202.191 75.2283 201.888C75.4812 201.584 75.7341 201.432 76.0882 201.331C76.3917 201.281 76.6951 201.281 76.9986 201.432L76.4422 200.674L77.3527 199.611L79.73 202.697C79.7806 202.747 79.8312 202.798 79.8312 202.849C79.9323 202.95 80.0335 202.95 80.1852 202.798L80.8934 203.759C80.8428 203.86 80.7922 203.961 80.7416 204.062C80.6911 204.164 80.6405 204.214 80.5899 204.265C80.4382 204.467 80.2864 204.568 80.0841 204.619C79.9323 204.669 79.73 204.619 79.5783 204.467C79.5277 204.417 79.4265 204.315 79.3254 204.164C79.4265 204.568 79.4265 204.973 79.3254 205.378C79.2748 205.782 79.123 206.136 78.8701 206.389ZM78.4149 205.125C78.5161 205.024 78.5667 204.922 78.6172 204.771C78.6678 204.619 78.7184 204.518 78.7184 204.366C78.7184 204.214 78.7184 204.063 78.7184 203.911C78.7184 203.759 78.6678 203.607 78.6172 203.456L77.8079 202.393C77.555 202.242 77.3021 202.14 76.9986 202.191C76.6951 202.191 76.4928 202.343 76.3411 202.545C76.1893 202.697 76.0882 202.899 76.0376 203.152C75.987 203.405 75.987 203.607 76.0376 203.86C76.0882 204.113 76.1388 204.315 76.2905 204.568C76.3917 204.771 76.5434 204.973 76.7457 205.175C76.9986 205.428 77.3021 205.529 77.6056 205.529C77.9091 205.529 78.162 205.428 78.4149 205.125Z" fill="#78C2FF"/>
<path d="M82.5618 202.09C82.3089 202.343 82.1065 202.494 81.8536 202.545C81.6007 202.596 81.3478 202.494 81.1455 202.292C81.0949 202.242 81.0443 202.191 80.9938 202.14C80.9432 202.09 80.8926 202.039 80.842 201.989L76.9473 196.88L77.8577 195.818L81.449 200.572C81.449 200.623 81.4996 200.623 81.4996 200.674L81.5502 200.724C81.7525 200.926 81.9548 200.876 82.1571 200.674C82.2077 200.623 82.2583 200.522 82.3089 200.471C82.3595 200.37 82.41 200.269 82.41 200.168L83.1688 200.876C83.1182 201.078 83.017 201.281 82.8653 201.533C82.8147 201.786 82.6629 201.938 82.5618 202.09Z" fill="#78C2FF"/>
<path d="M85.3941 198.903C85.1918 199.156 84.9389 199.358 84.6354 199.51C84.3825 199.662 84.079 199.713 83.8261 199.713C83.5226 199.713 83.2697 199.662 82.9662 199.561C82.7133 199.46 82.4099 199.308 82.1569 199.055C81.8029 198.751 81.55 198.397 81.3476 197.993C81.1453 197.588 81.0442 197.183 80.9936 196.728C80.943 196.273 80.9936 195.868 81.1453 195.413C81.2971 194.958 81.4994 194.553 81.8029 194.199C82.2075 193.744 82.6122 193.491 83.0168 193.39C83.4215 193.289 83.8261 193.39 84.2308 193.744C85.0907 194.503 84.8883 195.666 83.5226 197.285C83.4215 197.386 83.3709 197.487 83.2697 197.588C83.1686 197.689 83.0674 197.79 82.9662 197.892L83.0674 197.993C83.3203 198.246 83.6238 198.347 83.9273 198.397C84.2308 198.397 84.4837 198.296 84.686 198.043C84.8883 197.841 84.9895 197.588 85.0401 197.335C85.0907 197.082 85.0907 196.779 84.9895 196.526L85.9505 195.919C86.0011 196.172 86.0517 196.425 86.0517 196.678C86.0517 196.931 86.0011 197.234 85.9505 197.487C85.9 197.74 85.7988 197.993 85.6976 198.246C85.6976 198.448 85.5459 198.701 85.3941 198.903ZM82.511 195.11C82.3593 195.261 82.3087 195.413 82.2075 195.615C82.1569 195.818 82.1064 195.97 82.1064 196.172C82.1064 196.374 82.1569 196.526 82.2075 196.728C82.2581 196.931 82.3593 197.082 82.4604 197.285C82.5616 197.183 82.6122 197.133 82.6628 197.032C82.7133 196.931 82.8145 196.88 82.8651 196.779C83.0674 196.526 83.2697 196.324 83.3709 196.121C83.4721 195.919 83.5732 195.767 83.6238 195.615C83.6744 195.464 83.6744 195.312 83.6238 195.211C83.5732 195.11 83.5226 195.008 83.4215 194.907C83.2697 194.756 83.118 194.756 82.9157 194.806C82.8651 194.806 82.6628 194.907 82.511 195.11Z" fill="#78C2FF"/>
<path d="M96.1695 181.2L96.0684 180.896C96.0684 180.896 96.8271 180.694 97.8893 180.087L98.041 180.39C96.9788 180.947 96.2201 181.2 96.1695 181.2Z" fill="#E6E6E6"/>
<path d="M219.741 208.008L219.437 207.907C219.893 206.541 220.297 205.327 220.651 204.062L220.955 204.164C220.601 205.428 220.196 206.693 219.741 208.008ZM222.017 200.319L221.714 200.218C222.068 198.853 222.371 197.538 222.573 196.324L222.927 196.374C222.675 197.639 222.371 198.954 222.017 200.319ZM223.534 192.378L223.18 192.328C223.332 190.962 223.433 189.596 223.484 188.332H223.838C223.787 189.647 223.737 191.013 223.534 192.378ZM223.332 184.386C223.18 183.021 222.927 181.706 222.573 180.492L222.877 180.39C223.231 181.655 223.484 182.97 223.636 184.386H223.332ZM101.128 177.71L100.875 177.507C101.684 176.496 102.291 175.282 102.645 174.017L102.949 174.118C102.595 175.434 101.988 176.647 101.128 177.71ZM221.157 176.749C220.55 175.585 219.791 174.472 218.982 173.461L219.235 173.259C220.095 174.27 220.854 175.434 221.461 176.647L221.157 176.749ZM216.099 170.679C215.087 169.87 213.975 169.161 212.761 168.554L212.912 168.251C214.126 168.909 215.29 169.617 216.301 170.426L216.099 170.679ZM103.455 170.072H103.101C103.151 168.858 103.252 167.442 103.455 166.025L103.809 166.076C103.606 167.492 103.505 168.858 103.455 170.072ZM209.068 166.936C207.854 166.531 206.59 166.127 205.224 165.823L205.325 165.52C206.691 165.823 208.006 166.228 209.22 166.632L209.068 166.936ZM201.279 165.064C200.014 164.862 198.648 164.71 197.283 164.609L197.333 164.255C198.699 164.356 200.065 164.508 201.329 164.71L201.279 165.064ZM193.287 164.306C191.921 164.154 190.555 164.002 189.291 163.8L189.342 163.446C190.606 163.648 191.921 163.8 193.337 163.952L193.287 164.306ZM185.346 163.041C183.98 162.738 182.665 162.384 181.451 161.979L181.552 161.675C182.766 162.08 184.03 162.434 185.396 162.738L185.346 163.041ZM104.517 162.131L104.213 162.08C104.517 160.765 104.871 159.45 105.276 158.185L105.579 158.286C105.174 159.5 104.82 160.816 104.517 162.131ZM177.708 160.461C176.494 159.905 175.331 159.248 174.167 158.489L174.369 158.185C175.482 158.893 176.646 159.551 177.86 160.107L177.708 160.461ZM170.93 156.162C169.817 155.252 168.755 154.341 167.895 153.532L168.097 153.279C168.957 154.088 170.02 154.999 171.132 155.909L170.93 156.162ZM107.046 154.493L106.742 154.341C107.299 153.077 107.906 151.863 108.563 150.75L108.867 150.902C108.209 152.065 107.602 153.279 107.046 154.493ZM164.911 150.8C163.798 149.789 162.786 148.98 161.825 148.221L162.028 147.968C162.989 148.727 164 149.536 165.113 150.548L164.911 150.8ZM111.092 147.664L110.839 147.462C111.699 146.4 112.61 145.388 113.571 144.478L113.824 144.731C112.863 145.591 111.952 146.552 111.092 147.664ZM158.588 145.945C157.475 145.237 156.312 144.579 155.098 143.972L155.25 143.669C156.464 144.275 157.627 144.933 158.74 145.692L158.588 145.945ZM151.507 142.303C150.293 141.797 149.028 141.342 147.764 140.937L147.865 140.634C149.18 141.038 150.445 141.544 151.659 141.999L151.507 142.303ZM116.909 142.202L116.707 141.898C117.82 141.139 119.034 140.482 120.248 139.926L120.399 140.229C119.185 140.785 118.022 141.443 116.909 142.202ZM143.92 139.774C142.908 139.521 141.795 139.268 140.733 139.015C140.48 138.964 140.278 138.914 140.025 138.863L140.075 138.509C140.328 138.56 140.531 138.61 140.784 138.661C141.896 138.914 142.959 139.167 144.021 139.42L143.92 139.774ZM124.142 138.914L124.041 138.61C125.306 138.256 126.621 138.003 127.987 137.852L128.037 138.206C126.722 138.357 125.407 138.61 124.142 138.914ZM136.029 138.256C134.663 138.105 133.298 138.003 132.033 138.003V137.649C133.348 137.649 134.714 137.751 136.08 137.902L136.029 138.256Z" fill="#E6E6E6"/>
<path d="M217.612 213.926L217.309 213.825C217.511 213.218 217.764 212.56 218.017 211.953L218.32 212.054C218.067 212.661 217.814 213.319 217.612 213.926Z" fill="#E6E6E6"/>
<path d="M299.961 214.482L310.583 208.362L320.75 201.685L321.863 203.708L311.544 209.728L301.124 216.505L299.961 214.482ZM306.385 205.681C305.778 205.479 305.221 205.175 304.766 204.771C304.311 204.366 303.957 203.911 303.704 203.405C303.451 202.899 303.299 202.343 303.249 201.786C303.198 201.23 303.249 200.623 303.451 200.067C303.653 199.51 303.957 199.055 304.361 198.6C304.766 198.195 305.221 197.892 305.727 197.639C306.233 197.436 306.789 197.285 307.396 197.285C308.003 197.285 308.61 197.335 309.217 197.588C309.824 197.79 310.381 198.094 310.836 198.499C311.291 198.903 311.645 199.358 311.949 199.864C312.202 200.37 312.353 200.876 312.404 201.483C312.454 202.039 312.404 202.646 312.202 203.152C311.999 203.708 311.696 204.214 311.291 204.619C310.886 205.024 310.431 205.327 309.925 205.58C309.42 205.782 308.863 205.934 308.206 205.934C307.599 205.985 306.992 205.883 306.385 205.681ZM306.992 203.911C307.245 204.012 307.548 204.012 307.801 203.961C308.054 203.911 308.307 203.81 308.56 203.658C308.813 203.506 309.015 203.304 309.217 203.101C309.42 202.849 309.571 202.596 309.673 202.292C309.875 201.685 309.875 201.078 309.673 200.522C309.47 199.965 309.066 199.561 308.56 199.409C308.307 199.308 308.003 199.308 307.75 199.358C307.498 199.409 307.245 199.51 306.992 199.662C306.739 199.814 306.536 199.965 306.334 200.218C306.132 200.471 305.98 200.724 305.879 201.028C305.677 201.635 305.677 202.242 305.879 202.849C306.132 203.304 306.486 203.708 306.992 203.911ZM312.657 220.704C312.05 220.501 311.493 220.198 311.038 219.793C310.583 219.389 310.229 218.933 309.976 218.428C309.723 217.922 309.571 217.416 309.47 216.809C309.42 216.253 309.47 215.646 309.673 215.089C309.875 214.533 310.178 214.027 310.583 213.622C310.988 213.218 311.443 212.914 311.949 212.661C312.454 212.459 313.011 212.307 313.618 212.307C314.225 212.307 314.832 212.358 315.439 212.611C316.046 212.813 316.602 213.117 317.057 213.521C317.513 213.926 317.867 214.381 318.17 214.887C318.423 215.393 318.625 215.949 318.625 216.505C318.676 217.062 318.575 217.618 318.372 218.225C318.17 218.782 317.867 219.287 317.462 219.692C317.057 220.097 316.602 220.4 316.096 220.603C315.591 220.805 314.984 220.957 314.377 220.957C313.871 221.007 313.264 220.906 312.657 220.704ZM313.264 218.883C313.517 218.984 313.82 218.984 314.073 218.933C314.326 218.883 314.579 218.782 314.832 218.63C315.085 218.478 315.287 218.326 315.489 218.073C315.692 217.821 315.843 217.568 315.945 217.264C316.046 216.961 316.096 216.607 316.096 216.303C316.096 216 316.046 215.696 315.945 215.443C315.843 215.19 315.692 214.937 315.489 214.735C315.287 214.533 315.085 214.381 314.832 214.33C314.579 214.229 314.275 214.229 314.023 214.28C313.77 214.33 313.517 214.432 313.264 214.583C313.011 214.735 312.809 214.937 312.606 215.14C312.404 215.393 312.252 215.646 312.151 215.949C311.949 216.556 311.949 217.163 312.151 217.719C312.404 218.326 312.758 218.731 313.264 218.883Z" fill="#78C2FF"/>
<path d="M71.0287 138.206C70.6746 138.459 70.27 138.61 69.8653 138.712C69.4607 138.813 69.1066 138.813 68.702 138.762C68.3479 138.712 67.9938 138.56 67.6398 138.358C67.3363 138.155 67.0328 137.902 66.8305 137.548C66.6281 137.245 66.4764 136.891 66.4258 136.486C66.3752 136.081 66.3752 135.727 66.4764 135.373C66.5775 135.019 66.7293 134.665 66.9822 134.311C67.2351 133.957 67.488 133.704 67.8927 133.451C68.2467 133.198 68.6514 133.046 69.0054 132.996C69.4101 132.895 69.8147 132.895 70.1688 132.945C70.5229 132.996 70.8769 133.148 71.231 133.35C71.5851 133.552 71.838 133.805 72.0403 134.159C72.2426 134.513 72.3944 134.867 72.445 135.221C72.4955 135.576 72.4955 135.98 72.3944 136.334C72.2932 136.688 72.1415 137.042 71.8886 137.396C71.6862 137.7 71.3828 137.953 71.0287 138.206ZM70.3206 137.144C70.4723 137.042 70.5735 136.891 70.6746 136.739C70.7758 136.587 70.8264 136.385 70.8264 136.233C70.8264 136.031 70.8264 135.828 70.7758 135.626C70.7252 135.424 70.624 135.221 70.5229 135.07C70.27 134.716 69.9665 134.463 69.5618 134.362C69.1572 134.26 68.8031 134.311 68.4996 134.513C68.3479 134.615 68.2467 134.766 68.1456 134.918C68.0444 135.07 67.9938 135.272 67.9938 135.424C67.9938 135.626 67.9938 135.828 68.0444 135.98C68.095 136.183 68.1961 136.385 68.2973 136.537C68.5502 136.891 68.8537 137.144 69.2583 137.245C69.7136 137.396 70.0171 137.346 70.3206 137.144ZM73.1531 145.135L74.1647 137.042L74.7211 129L76.2386 129.202L75.2775 137.093L74.6705 145.338L73.1531 145.135ZM81.499 140.887C81.1449 141.139 80.7403 141.291 80.3356 141.392C79.931 141.494 79.5769 141.494 79.1723 141.443C78.8182 141.392 78.4641 141.241 78.1101 141.038C77.8066 140.836 77.5031 140.583 77.3008 140.229C77.0984 139.875 76.9467 139.521 76.8961 139.167C76.8455 138.813 76.8455 138.408 76.9467 138.054C77.0479 137.7 77.1996 137.346 77.4019 136.992C77.6548 136.638 77.9077 136.385 78.3124 136.132C78.6665 135.879 79.0711 135.727 79.4758 135.626C79.8804 135.525 80.2345 135.525 80.6391 135.576C80.9932 135.626 81.3473 135.778 81.7013 135.98C82.0048 136.183 82.3083 136.435 82.5106 136.79C82.713 137.144 82.8647 137.498 82.9153 137.852C82.9659 138.206 82.9659 138.61 82.8647 138.964C82.7635 139.319 82.6118 139.673 82.3589 140.027C82.1566 140.381 81.9037 140.684 81.499 140.887ZM80.8414 139.875C80.9932 139.774 81.0944 139.622 81.1955 139.47C81.2967 139.319 81.3473 139.116 81.3473 138.964C81.3473 138.762 81.3473 138.56 81.2967 138.408C81.2461 138.206 81.1449 138.003 81.0438 137.852C80.9426 137.649 80.7909 137.498 80.5885 137.396C80.4368 137.295 80.2345 137.194 80.0827 137.144C79.8804 137.093 79.7287 137.093 79.5263 137.093C79.324 137.093 79.1723 137.194 79.0205 137.295C78.8688 137.396 78.7676 137.548 78.6665 137.7C78.5653 137.852 78.5147 138.054 78.5147 138.206C78.5147 138.408 78.5147 138.61 78.5653 138.813C78.6159 139.015 78.717 139.217 78.8182 139.369C79.0711 139.723 79.3746 139.976 79.7792 140.077C80.1839 140.077 80.538 140.077 80.8414 139.875Z" fill="#78C2FF"/>
<path d="M63.7972 79.87V76.15C63.7972 73.9 63.1072 72.67 61.5772 72.04C62.9872 71.02 63.7972 69.31 63.7972 66.67V64.54C63.7972 59.71 62.0872 58 56.9572 58H52.4572V82H56.9572V73.21C58.6972 73.21 59.2972 73.51 59.2972 75.25V79.87C59.2972 80.77 59.3272 81.64 59.6272 82H64.1272C63.8272 81.64 63.7972 80.77 63.7972 79.87ZM59.2972 64.54V66.67C59.2972 68.41 58.6972 68.71 56.9572 68.71V62.5C58.6972 62.5 59.2972 62.8 59.2972 64.54ZM74.4896 62.5V58H65.9396V82H74.4896V77.5H70.4396V72.25H74.4896V67.75H70.4396V62.5H74.4896ZM87.2603 58H76.5803V62.5H79.6703V82H84.1703V62.5H87.2603V58ZM95.1025 82H99.6025L96.6625 58H90.5125L87.5725 82H92.0725L92.4025 77.92H94.7725L95.1025 82ZM92.7625 73.42L93.6025 62.77L94.4125 73.42H92.7625ZM101.406 58V82H105.906V58H101.406ZM112.504 77.5V58H108.004V82H116.554V77.5H112.504ZM137.324 67.87H135.914V66.46H131.414V67.87H131.264C129.374 67.87 128.834 66.97 128.834 64.54C128.834 62.8 129.374 62.2 130.064 62.2C130.754 62.2 131.414 62.8 131.414 65.14H135.914C135.914 60.01 133.844 57.7 130.064 57.7C126.284 57.7 124.334 60.01 124.334 63.94C124.334 67.18 125.534 68.95 127.364 69.82C125.534 70.75 124.334 72.61 124.334 76.06C124.334 79.99 126.284 82.3 130.064 82.3C133.844 82.3 135.914 79.99 135.914 74.56V71.77H137.324V67.87ZM131.414 74.56C131.414 77.2 130.754 77.8 130.064 77.8C129.374 77.8 128.834 77.2 128.834 75.46C128.834 72.67 129.374 71.77 131.264 71.77H131.414V74.56ZM152.077 67.66C150.397 66.37 149.617 65.68 149.617 63.94C149.617 62.8 149.857 62.2 150.547 62.2C151.237 62.2 151.597 62.8 151.597 65.14H156.097C156.097 60.01 154.327 57.7 150.547 57.7C146.767 57.7 145.117 60.01 145.117 63.94C145.117 68.47 147.427 69.91 149.617 71.68C151.597 73.3 151.897 74.02 151.897 75.76C151.897 77.2 151.717 77.8 150.877 77.8C150.037 77.8 149.617 77.2 149.617 73.66H145.117C145.117 80.59 146.947 82.3 150.877 82.3C154.807 82.3 156.397 79.99 156.397 75.76C156.397 71.23 154.597 69.58 152.077 67.66ZM165.456 82H169.956L167.016 58H160.866L157.926 82H162.426L162.756 77.92H165.126L165.456 82ZM163.116 73.42L163.956 62.77L164.766 73.42H163.116ZM176.26 77.5V58H171.76V82H180.31V77.5H176.26ZM190.951 62.5V58H182.401V82H190.951V77.5H186.901V72.25H190.951V67.75H186.901V62.5H190.951ZM200.001 67.66C198.321 66.37 197.541 65.68 197.541 63.94C197.541 62.8 197.781 62.2 198.471 62.2C199.161 62.2 199.521 62.8 199.521 65.14H204.021C204.021 60.01 202.251 57.7 198.471 57.7C194.691 57.7 193.041 60.01 193.041 63.94C193.041 68.47 195.351 69.91 197.541 71.68C199.521 73.3 199.821 74.02 199.821 75.76C199.821 77.2 199.641 77.8 198.801 77.8C197.961 77.8 197.541 77.2 197.541 73.66H193.041C193.041 80.59 194.871 82.3 198.801 82.3C202.731 82.3 204.321 79.99 204.321 75.76C204.321 71.23 202.521 69.58 200.001 67.66ZM222.445 58L219.535 71.86L216.625 58H212.125V82H216.625V71.71L218.485 82H220.585L222.445 71.71V82H226.945V58H222.445ZM236.272 82H240.772L237.832 58H231.682L228.742 82H233.242L233.572 77.92H235.942L236.272 82ZM233.932 73.42L234.772 62.77L235.582 73.42H233.932ZM250.946 58V69.85L247.076 58H242.576V82H247.076V70.15L250.946 82H255.446V58H250.946ZM264.79 82H269.29L266.35 58H260.2L257.26 82H261.76L262.09 77.92H264.46L264.79 82ZM262.45 73.42L263.29 62.77L264.1 73.42H262.45ZM282.081 67.75V64.54C282.081 59.71 280.071 57.7 276.441 57.7C272.811 57.7 270.801 59.71 270.801 64.54V75.46C270.801 80.29 272.511 82.3 275.751 82.3C277.371 82.3 278.631 81.46 279.561 80.29L280.281 82H282.081V69.55H276.441V74.05H277.581V75.16C277.581 77.2 277.431 77.8 276.441 77.8C275.451 77.8 275.301 77.2 275.301 75.16V64.84C275.301 62.8 275.451 62.2 276.441 62.2C277.401 62.2 277.581 62.8 277.581 64.84V67.75H282.081ZM292.746 62.5V58H284.196V82H292.746V77.5H288.696V72.25H292.746V67.75H288.696V62.5H292.746ZM305.156 58L302.246 71.86L299.336 58H294.836V82H299.336V71.71L301.196 82H303.296L305.156 71.71V82H309.656V58H305.156ZM320.296 62.5V58H311.746V82H320.296V77.5H316.246V72.25H320.296V67.75H316.246V62.5H320.296ZM330.757 58V69.85L326.887 58H322.387V82H326.887V70.15L330.757 82H335.257V58H330.757ZM348.043 58H337.363V62.5H340.453V82H344.953V62.5H348.043V58Z" fill="white"/>
<path d="M182.013 39.79C182.013 41.855 180.613 43.01 178.233 43.01H173.298V36.43H178.128C180.508 36.43 182.013 37.69 182.013 39.79ZM181.418 29.605C181.418 31.6 180.088 32.65 177.778 32.65H173.298V26.525H177.778C180.088 26.525 181.418 27.645 181.418 29.605ZM186.983 40.385C186.983 37.515 185.023 34.96 182.258 34.47C184.638 33.7 186.423 31.845 186.423 28.87C186.423 25.23 183.588 22.57 178.478 22.57H168.398V47H178.933C184.008 47 186.983 44.27 186.983 40.385ZM204.503 39.79C204.503 41.855 203.103 43.01 200.723 43.01H195.788V36.43H200.618C202.998 36.43 204.503 37.69 204.503 39.79ZM203.908 29.605C203.908 31.6 202.578 32.65 200.268 32.65H195.788V26.525H200.268C202.578 26.525 203.908 27.645 203.908 29.605ZM209.473 40.385C209.473 37.515 207.513 34.96 204.748 34.47C207.128 33.7 208.913 31.845 208.913 28.87C208.913 25.23 206.078 22.57 200.968 22.57H190.888V47H201.423C206.498 47 209.473 44.27 209.473 40.385ZM229.968 47H235.148L226.363 22.535H220.658L211.873 47H217.018L218.628 42.345H228.358L229.968 47ZM227.028 38.425H219.958L223.493 28.205L227.028 38.425Z" fill="white"/>
<line x1="174" y1="95.8261" x2="227.113" y2="95.8261" stroke="white" stroke-width="0.347879"/>
<defs>
<linearGradient id="paint0_linear_228_15805" x1="198" y1="0" x2="198" y2="344" gradientUnits="userSpaceOnUse">
<stop offset="0.328" stop-color="#1489C7"/>
<stop offset="0.4474" stop-color="#339ED6"/>
<stop offset="0.6028" stop-color="#55B6E5"/>
<stop offset="0.7509" stop-color="#6DC6F1"/>
<stop offset="0.8871" stop-color="#7CD0F8"/>
<stop offset="1" stop-color="#81D4FA"/>
</linearGradient>
<linearGradient id="paint1_linear_228_15805" x1="312.446" y1="93.1842" x2="312.446" y2="135.16" gradientUnits="userSpaceOnUse">
<stop stop-color="white"/>
<stop offset="0.0211896" stop-color="#FAFDFF"/>
<stop offset="0.2425" stop-color="#CFEFFD"/>
<stop offset="0.4567" stop-color="#ADE3FC"/>
<stop offset="0.6593" stop-color="#95DBFB"/>
<stop offset="0.8455" stop-color="#86D6FA"/>
<stop offset="1" stop-color="#81D4FA"/>
</linearGradient>
<linearGradient id="paint2_linear_228_15805" x1="155.502" y1="127.234" x2="155.502" y2="199.295" gradientUnits="userSpaceOnUse">
<stop stop-color="white"/>
<stop offset="0.0211896" stop-color="#FAFDFF"/>
<stop offset="0.2425" stop-color="#CFEFFD"/>
<stop offset="0.4567" stop-color="#ADE3FC"/>
<stop offset="0.6593" stop-color="#95DBFB"/>
<stop offset="0.8455" stop-color="#86D6FA"/>
<stop offset="1" stop-color="#81D4FA"/>
</linearGradient>
<linearGradient id="paint3_linear_228_15805" x1="52.9499" y1="84.4616" x2="52.9499" y2="126.437" gradientUnits="userSpaceOnUse">
<stop stop-color="white"/>
<stop offset="0.0211896" stop-color="#FAFDFF"/>
<stop offset="0.2425" stop-color="#CFEFFD"/>
<stop offset="0.4567" stop-color="#ADE3FC"/>
<stop offset="0.6593" stop-color="#95DBFB"/>
<stop offset="0.8455" stop-color="#86D6FA"/>
<stop offset="1" stop-color="#81D4FA"/>
</linearGradient>
<linearGradient id="paint4_linear_228_15805" x1="376.523" y1="127.235" x2="376.523" y2="199.295" gradientUnits="userSpaceOnUse">
<stop stop-color="white"/>
<stop offset="0.0211896" stop-color="#FAFDFF"/>
<stop offset="0.2425" stop-color="#CFEFFD"/>
<stop offset="0.4567" stop-color="#ADE3FC"/>
<stop offset="0.6593" stop-color="#95DBFB"/>
<stop offset="0.8455" stop-color="#86D6FA"/>
<stop offset="1" stop-color="#81D4FA"/>
</linearGradient>
<linearGradient id="paint5_linear_228_15805" x1="211.011" y1="154.052" x2="211.011" y2="196.027" gradientUnits="userSpaceOnUse">
<stop stop-color="white"/>
<stop offset="0.0211896" stop-color="#FAFDFF"/>
<stop offset="0.2425" stop-color="#CFEFFD"/>
<stop offset="0.4567" stop-color="#ADE3FC"/>
<stop offset="0.6593" stop-color="#95DBFB"/>
<stop offset="0.8455" stop-color="#86D6FA"/>
<stop offset="1" stop-color="#81D4FA"/>
</linearGradient>
<linearGradient id="paint6_linear_228_15805" x1="20.3946" y1="127.232" x2="20.3946" y2="199.296" gradientUnits="userSpaceOnUse">
<stop stop-color="white"/>
<stop offset="0.0211896" stop-color="#FAFDFF"/>
<stop offset="0.2425" stop-color="#CFEFFD"/>
<stop offset="0.4567" stop-color="#ADE3FC"/>
<stop offset="0.6593" stop-color="#95DBFB"/>
<stop offset="0.8455" stop-color="#86D6FA"/>
<stop offset="1" stop-color="#81D4FA"/>
</linearGradient>
<linearGradient id="paint7_linear_228_15805" x1="92.2577" y1="229.907" x2="263.218" y2="229.907" gradientUnits="userSpaceOnUse">
<stop stop-color="#A246C4"/>
<stop offset="1" stop-color="#5EAFFF"/>
</linearGradient>
<linearGradient id="paint8_linear_228_15805" x1="264.664" y1="243.64" x2="293.843" y2="243.64" gradientUnits="userSpaceOnUse">
<stop offset="0.00518135" stop-color="#595959"/>
<stop offset="1" stop-color="white"/>
</linearGradient>
<linearGradient id="paint9_linear_228_15805" x1="287.24" y1="243.64" x2="316.419" y2="243.64" gradientUnits="userSpaceOnUse">
<stop offset="0.00518135" stop-color="#595959"/>
<stop offset="1" stop-color="white"/>
</linearGradient>
<linearGradient id="paint10_linear_228_15805" x1="309.14" y1="241.975" x2="325.24" y2="241.975" gradientUnits="userSpaceOnUse">
<stop offset="0.00518135" stop-color="#B3B3B3"/>
<stop offset="1" stop-color="white"/>
</linearGradient>
<linearGradient id="paint11_linear_228_15805" x1="286.084" y1="248.558" x2="294.457" y2="248.558" gradientUnits="userSpaceOnUse">
<stop offset="0.00518135" stop-color="#B3B3B3"/>
<stop offset="1" stop-color="white"/>
</linearGradient>
<linearGradient id="paint12_linear_228_15805" x1="286.084" y1="248.558" x2="292.175" y2="248.558" gradientUnits="userSpaceOnUse">
<stop offset="0.00518135" stop-color="#595959"/>
<stop offset="1" stop-color="white"/>
</linearGradient>
<linearGradient id="paint13_linear_228_15805" x1="289.59" y1="315.055" x2="289.59" y2="268.147" gradientUnits="userSpaceOnUse">
<stop stop-color="#40D5E6"/>
<stop offset="1" stop-color="#5577FF"/>
</linearGradient>
<linearGradient id="paint14_linear_228_15805" x1="252.12" y1="256.82" x2="327.059" y2="256.82" gradientUnits="userSpaceOnUse">
<stop stop-color="#40D5E6"/>
<stop offset="1" stop-color="#5577FF"/>
</linearGradient>
<linearGradient id="paint15_linear_228_15805" x1="300.976" y1="276.051" x2="277.451" y2="276.051" gradientUnits="userSpaceOnUse">
<stop offset="0.00518135" stop-color="#B3B3B3"/>
<stop offset="1" stop-color="white"/>
</linearGradient>
<linearGradient id="paint16_linear_228_15805" x1="322.661" y1="262.511" x2="334.28" y2="262.511" gradientUnits="userSpaceOnUse">
<stop stop-color="#1F3073"/>
<stop offset="1" stop-color="#4E6CDE"/>
</linearGradient>
<linearGradient id="paint17_linear_228_15805" x1="316.97" y1="263.932" x2="334.277" y2="263.932" gradientUnits="userSpaceOnUse">
<stop stop-color="#7C3596"/>
<stop offset="1" stop-color="#3098FF"/>
</linearGradient>
<linearGradient id="paint18_linear_228_15805" x1="315.106" y1="268.253" x2="325.979" y2="257.632" gradientUnits="userSpaceOnUse">
<stop stop-color="#354996"/>
<stop offset="1" stop-color="#4E6CDE"/>
</linearGradient>
<linearGradient id="paint19_linear_228_15805" x1="337.983" y1="262.511" x2="349.603" y2="262.511" gradientUnits="userSpaceOnUse">
<stop stop-color="#1F3073"/>
<stop offset="1" stop-color="#4E6CDE"/>
</linearGradient>
<linearGradient id="paint20_linear_228_15805" x1="337.983" y1="263.932" x2="355.291" y2="263.932" gradientUnits="userSpaceOnUse">
<stop stop-color="#7C3596"/>
<stop offset="1" stop-color="#3098FF"/>
</linearGradient>
<linearGradient id="paint21_linear_228_15805" x1="336.104" y1="268.014" x2="335.852" y2="264.935" gradientUnits="userSpaceOnUse">
<stop stop-color="#354996"/>
<stop offset="1" stop-color="#4E6CDE"/>
</linearGradient>
<linearGradient id="paint22_linear_228_15805" x1="336.131" y1="296.542" x2="336.131" y2="271.254" gradientUnits="userSpaceOnUse">
<stop stop-color="#FFC05C"/>
<stop offset="1" stop-color="#FF3857"/>
</linearGradient>
<linearGradient id="paint23_linear_228_15805" x1="336.129" y1="282.771" x2="336.129" y2="254.886" gradientUnits="userSpaceOnUse">
<stop stop-color="#FFC05C"/>
<stop offset="1" stop-color="#FF3857"/>
</linearGradient>
<linearGradient id="paint24_linear_228_15805" x1="336.128" y1="304.659" x2="336.128" y2="256.293" gradientUnits="userSpaceOnUse">
<stop stop-color="#7C3596"/>
<stop offset="1" stop-color="#3098FF"/>
</linearGradient>
<linearGradient id="paint25_linear_228_15805" x1="55.2492" y1="182.827" x2="99.209" y2="182.827" gradientUnits="userSpaceOnUse">
<stop stop-color="#40D5E6"/>
<stop offset="1" stop-color="#5577FF"/>
</linearGradient>
<linearGradient id="paint26_linear_228_15805" x1="100.517" y1="219.491" x2="74.189" y2="186.164" gradientUnits="userSpaceOnUse">
<stop stop-color="#40D5E6"/>
<stop offset="1" stop-color="#5577FF"/>
</linearGradient>
<linearGradient id="paint27_linear_228_15805" x1="38" y1="219.485" x2="114.291" y2="219.485" gradientUnits="userSpaceOnUse">
<stop stop-color="#40D5E6"/>
<stop offset="1" stop-color="#5577FF"/>
</linearGradient>
<linearGradient id="paint28_linear_228_15805" x1="110.276" y1="238.599" x2="66.8574" y2="209.366" gradientUnits="userSpaceOnUse">
<stop stop-color="#40D5E6"/>
<stop offset="1" stop-color="#5577FF"/>
</linearGradient>
<linearGradient id="paint29_linear_228_15805" x1="234.462" y1="177.434" x2="273.411" y2="170.467" gradientUnits="userSpaceOnUse">
<stop stop-color="#40D5E6"/>
<stop offset="1" stop-color="#5577FF"/>
</linearGradient>
<linearGradient id="paint30_linear_228_15805" x1="66.47" y1="-194.083" x2="47.795" y2="-228.966" gradientUnits="userSpaceOnUse">
<stop stop-color="#40D5E6"/>
<stop offset="1" stop-color="#5577FF"/>
</linearGradient>
<linearGradient id="paint31_linear_228_15805" x1="273.114" y1="213.901" x2="296.977" y2="115.262" gradientUnits="userSpaceOnUse">
<stop stop-color="#40D5E6"/>
<stop offset="1" stop-color="#5577FF"/>
</linearGradient>
<linearGradient id="paint32_linear_228_15805" x1="259.602" y1="208.704" x2="303.24" y2="165.066" gradientUnits="userSpaceOnUse">
<stop stop-color="#40D5E6"/>
<stop offset="1" stop-color="#5577FF"/>
</linearGradient>
<linearGradient id="paint33_linear_228_15805" x1="82.1388" y1="237.608" x2="276.092" y2="237.608" gradientUnits="userSpaceOnUse">
<stop stop-color="#FFC05C"/>
<stop offset="1" stop-color="#FF3857"/>
</linearGradient>
<linearGradient id="paint34_linear_228_15805" x1="53.9255" y1="196.689" x2="218.194" y2="196.689" gradientUnits="userSpaceOnUse">
<stop stop-color="#FFC05C"/>
<stop offset="1" stop-color="#FF3857"/>
</linearGradient>
<linearGradient id="paint35_linear_228_15805" x1="53.9255" y1="187.908" x2="218.194" y2="187.908" gradientUnits="userSpaceOnUse">
<stop stop-color="#FFC05C"/>
<stop offset="1" stop-color="#FF3857"/>
</linearGradient>
<linearGradient id="paint36_linear_228_15805" x1="53.9255" y1="208.123" x2="218.194" y2="208.123" gradientUnits="userSpaceOnUse">
<stop stop-color="#FFC05C"/>
<stop offset="1" stop-color="#FF3857"/>
</linearGradient>
<linearGradient id="paint37_linear_228_15805" x1="253.994" y1="258.427" x2="110.914" y2="258.427" gradientUnits="userSpaceOnUse">
<stop stop-color="#EDF4FF"/>
<stop offset="1" stop-color="#EDFFFE"/>
</linearGradient>
<linearGradient id="paint38_linear_228_15805" x1="179.116" y1="171.373" x2="179.116" y2="146.827" gradientUnits="userSpaceOnUse">
<stop stop-color="#7C3596"/>
<stop offset="1" stop-color="#3098FF"/>
</linearGradient>
</defs>
</svg>
