<svg width="1240" height="140" viewBox="0 0 1240 140" fill="none" xmlns="http://www.w3.org/2000/svg">
<rect width="400" height="75" fill="white"/>
<path d="M24.6 40.94C26.08 40.94 27.24 39.8 27.24 38.34C27.24 36.86 26.08 35.72 24.6 35.72C23.16 35.72 22 36.86 22 38.34C22 39.8 23.16 40.94 24.6 40.94ZM40.4089 32.96H44.1289V45H46.4089V32.96H50.1089V31.1H40.4089V32.96ZM52.418 45H54.698V38.84C54.698 36.82 55.798 35.78 57.478 35.78C59.138 35.78 60.238 36.82 60.238 38.84V45H62.498V38.5C62.498 35.42 60.578 33.8 58.118 33.8C56.698 33.8 55.458 34.34 54.698 35.26V30.2H52.418V45ZM70.0463 35.72C71.7463 35.72 73.0863 36.8 73.1263 38.5H67.0263C67.2663 36.76 68.5063 35.72 70.0463 35.72ZM75.2062 41.72H72.7463C72.3263 42.58 71.5463 43.26 70.1463 43.26C68.4663 43.26 67.1663 42.16 67.0063 40.34H75.4263C75.4863 39.96 75.5063 39.6 75.5063 39.22C75.5063 35.98 73.2863 33.8 70.1463 33.8C66.8863 33.8 64.6463 36.02 64.6463 39.48C64.6463 42.94 66.9863 45.18 70.1463 45.18C72.8463 45.18 74.5863 43.64 75.2062 41.72ZM91.7653 45H94.0453V31.1H91.7653V37.06H85.2253V31.1H82.9453V45H85.2253V38.92H91.7653V45ZM101.687 35.72C103.387 35.72 104.727 36.8 104.767 38.5H98.6669C98.9069 36.76 100.147 35.72 101.687 35.72ZM106.847 41.72H104.387C103.967 42.58 103.187 43.26 101.787 43.26C100.107 43.26 98.8069 42.16 98.6469 40.34H107.067C107.127 39.96 107.147 39.6 107.147 39.22C107.147 35.98 104.927 33.8 101.787 33.8C98.5269 33.8 96.2869 36.02 96.2869 39.48C96.2869 42.94 98.6269 45.18 101.787 45.18C104.487 45.18 106.227 43.64 106.847 41.72ZM108.631 39.44C108.631 42.84 110.931 45.18 113.791 45.18C115.631 45.18 116.951 44.3 117.651 43.36V45H119.951V33.98H117.651V35.58C116.971 34.68 115.691 33.8 113.831 33.8C110.931 33.8 108.631 36.04 108.631 39.44ZM117.651 39.48C117.651 41.86 116.031 43.2 114.311 43.2C112.611 43.2 110.971 41.82 110.971 39.44C110.971 37.06 112.611 35.78 114.311 35.78C116.031 35.78 117.651 37.12 117.651 39.48ZM122.945 45H125.225V30.2H122.945V45ZM128.579 41.94C128.579 44.18 129.799 45 131.759 45H133.559V43.1H132.159C131.199 43.1 130.879 42.76 130.879 41.94V35.84H133.559V33.98H130.879V31.24H128.579V33.98H127.279V35.84H128.579V41.94ZM135.66 45H137.94V38.84C137.94 36.82 139.04 35.78 140.72 35.78C142.38 35.78 143.48 36.82 143.48 38.84V45H145.74V38.5C145.74 35.42 143.82 33.8 141.36 33.8C139.94 33.8 138.7 34.34 137.94 35.26V30.2H135.66V45ZM147.888 39.48C147.888 42.94 150.128 45.18 153.288 45.18C155.988 45.18 157.748 43.68 158.368 41.52H155.908C155.488 42.66 154.648 43.26 153.288 43.26C151.448 43.26 150.228 41.9 150.228 39.48C150.228 37.08 151.448 35.72 153.288 35.72C154.648 35.72 155.528 36.4 155.908 37.46H158.368C157.748 35.14 155.988 33.8 153.288 33.8C150.128 33.8 147.888 36.04 147.888 39.48ZM159.881 39.44C159.881 42.84 162.181 45.18 165.041 45.18C166.881 45.18 168.201 44.3 168.901 43.36V45H171.201V33.98H168.901V35.58C168.221 34.68 166.941 33.8 165.081 33.8C162.181 33.8 159.881 36.04 159.881 39.44ZM168.901 39.48C168.901 41.86 167.281 43.2 165.561 43.2C163.861 43.2 162.221 41.82 162.221 39.44C162.221 37.06 163.861 35.78 165.561 35.78C167.281 35.78 168.901 37.12 168.901 39.48ZM176.475 39.2C176.475 36.86 177.515 36.16 179.195 36.16H179.775V33.8C178.215 33.8 177.115 34.48 176.475 35.58V33.98H174.195V45H176.475V39.2ZM186.511 35.72C188.211 35.72 189.551 36.8 189.591 38.5H183.491C183.731 36.76 184.971 35.72 186.511 35.72ZM191.671 41.72H189.211C188.791 42.58 188.011 43.26 186.611 43.26C184.931 43.26 183.631 42.16 183.471 40.34H191.891C191.951 39.96 191.971 39.6 191.971 39.22C191.971 35.98 189.751 33.8 186.611 33.8C183.351 33.8 181.111 36.02 181.111 39.48C181.111 42.94 183.451 45.18 186.611 45.18C189.311 45.18 191.051 43.64 191.671 41.72ZM199.41 45H201.69V31.1H199.41V45ZM212.504 45H214.764V38.5C214.764 35.42 212.824 33.8 210.244 33.8C208.924 33.8 207.704 34.34 206.964 35.24V33.98H204.684V45H206.964V38.84C206.964 36.82 208.064 35.78 209.744 35.78C211.404 35.78 212.504 36.82 212.504 38.84V45ZM216.912 39.44C216.912 42.84 219.212 45.18 222.112 45.18C223.912 45.18 225.232 44.34 225.932 43.34V45H228.232V30.2H225.932V35.52C225.092 34.48 223.572 33.8 222.132 33.8C219.212 33.8 216.912 36.04 216.912 39.44ZM225.932 39.48C225.932 41.86 224.312 43.2 222.592 43.2C220.892 43.2 219.252 41.82 219.252 39.44C219.252 37.06 220.892 35.78 222.592 35.78C224.312 35.78 225.932 37.12 225.932 39.48ZM241.207 33.98H238.927V40.12C238.927 42.14 237.827 43.18 236.147 43.18C234.487 43.18 233.387 42.14 233.387 40.12V33.98H231.127V40.46C231.127 43.54 233.087 45.16 235.667 45.16C236.967 45.16 238.207 44.62 238.927 43.68V45H241.207V33.98ZM252.435 41.92C252.315 37.94 246.095 39.18 246.095 36.96C246.095 36.22 246.735 35.72 247.955 35.72C249.195 35.72 249.935 36.38 250.015 37.34H252.295C252.175 35.14 250.535 33.8 248.035 33.8C245.435 33.8 243.795 35.22 243.795 36.98C243.795 41.02 250.195 39.78 250.195 41.94C250.195 42.7 249.495 43.26 248.175 43.26C246.915 43.26 246.055 42.52 245.975 41.62H243.615C243.715 43.62 245.575 45.18 248.215 45.18C250.815 45.18 252.435 43.78 252.435 41.92ZM255.258 41.94C255.258 44.18 256.478 45 258.438 45H260.238V43.1H258.838C257.878 43.1 257.558 42.76 257.558 41.94V35.84H260.238V33.98H257.558V31.24H255.258V33.98H253.958V35.84H255.258V41.94ZM264.62 39.2C264.62 36.86 265.66 36.16 267.34 36.16H267.92V33.8C266.36 33.8 265.26 34.48 264.62 35.58V33.98H262.34V45H264.62V39.2ZM274.356 42.38L271.256 33.98H268.716L273.056 44.82L270.816 50.18H273.176L279.936 33.98H277.576L274.356 42.38Z" fill="#212832"/>
<rect x="0.5" y="0.5" width="399" height="74" stroke="black" stroke-opacity="0.5"/>
<rect y="90" width="400" height="50" fill="white"/>
<path d="M24.6 115.94C26.08 115.94 27.24 114.8 27.24 113.34C27.24 111.86 26.08 110.72 24.6 110.72C23.16 110.72 22 111.86 22 113.34C22 114.8 23.16 115.94 24.6 115.94ZM48.8089 106.08H41.1289V120H48.8089V118.14H43.4089V113.88H48.2089V112.02H43.4089V107.94H48.8089V106.08ZM59.4372 120H61.6972V113.5C61.6972 110.42 59.7572 108.8 57.1772 108.8C55.8572 108.8 54.6372 109.34 53.8972 110.24V108.98H51.6172V120H53.8972V113.84C53.8972 111.82 54.9972 110.78 56.6772 110.78C58.3372 110.78 59.4372 111.82 59.4372 113.84V120ZM69.2455 110.72C70.9455 110.72 72.2855 111.8 72.3255 113.5H66.2255C66.4655 111.76 67.7055 110.72 69.2455 110.72ZM74.4055 116.72H71.9455C71.5255 117.58 70.7455 118.26 69.3455 118.26C67.6655 118.26 66.3655 117.16 66.2055 115.34H74.6255C74.6855 114.96 74.7055 114.6 74.7055 114.22C74.7055 110.98 72.4855 108.8 69.3455 108.8C66.0855 108.8 63.8455 111.02 63.8455 114.48C63.8455 117.94 66.1855 120.18 69.3455 120.18C72.0455 120.18 73.7855 118.64 74.4055 116.72ZM79.2292 114.2C79.2292 111.86 80.2692 111.16 81.9492 111.16H82.5292V108.8C80.9692 108.8 79.8692 109.48 79.2292 110.58V108.98H76.9492V120H79.2292V114.2ZM83.865 114.44C83.865 117.84 86.165 120.18 89.065 120.18C90.865 120.18 92.185 119.28 92.885 118.34V120.18C92.885 122.38 91.565 123.46 89.805 123.46C88.225 123.46 87.005 122.68 86.665 121.54H84.405C84.685 123.98 86.865 125.44 89.805 125.44C93.245 125.44 95.185 123.18 95.185 120.18V108.98H92.885V110.58C92.205 109.64 90.865 108.8 89.065 108.8C86.165 108.8 83.865 111.04 83.865 114.44ZM92.885 114.48C92.885 116.86 91.265 118.2 89.545 118.2C87.845 118.2 86.205 116.82 86.205 114.44C86.205 112.06 87.845 110.78 89.545 110.78C91.265 110.78 92.885 112.12 92.885 114.48ZM102.52 117.38L99.4197 108.98H96.8797L101.22 119.82L98.9797 125.18H101.34L108.1 108.98H105.74L102.52 117.38ZM115.016 120H117.296V106.1H115.016V120ZM128.109 120H130.369V113.5C130.369 110.42 128.429 108.8 125.849 108.8C124.529 108.8 123.309 109.34 122.569 110.24V108.98H120.289V120H122.569V113.84C122.569 111.82 123.669 110.78 125.349 110.78C127.009 110.78 128.109 111.82 128.109 113.84V120ZM132.517 114.44C132.517 117.84 134.817 120.18 137.717 120.18C139.517 120.18 140.837 119.34 141.537 118.34V120H143.837V105.2H141.537V110.52C140.697 109.48 139.177 108.8 137.737 108.8C134.817 108.8 132.517 111.04 132.517 114.44ZM141.537 114.48C141.537 116.86 139.917 118.2 138.197 118.2C136.497 118.2 134.857 116.82 134.857 114.44C134.857 112.06 136.497 110.78 138.197 110.78C139.917 110.78 141.537 112.12 141.537 114.48ZM156.812 108.98H154.532V115.12C154.532 117.14 153.432 118.18 151.752 118.18C150.092 118.18 148.992 117.14 148.992 115.12V108.98H146.732V115.46C146.732 118.54 148.692 120.16 151.272 120.16C152.572 120.16 153.812 119.62 154.532 118.68V120H156.812V108.98ZM168.04 116.92C167.92 112.94 161.7 114.18 161.7 111.96C161.7 111.22 162.34 110.72 163.56 110.72C164.8 110.72 165.54 111.38 165.62 112.34H167.9C167.78 110.14 166.14 108.8 163.64 108.8C161.04 108.8 159.4 110.22 159.4 111.98C159.4 116.02 165.8 114.78 165.8 116.94C165.8 117.7 165.1 118.26 163.78 118.26C162.52 118.26 161.66 117.52 161.58 116.62H159.22C159.32 118.62 161.18 120.18 163.82 120.18C166.42 120.18 168.04 118.78 168.04 116.92ZM170.864 116.94C170.864 119.18 172.084 120 174.044 120H175.844V118.1H174.444C173.484 118.1 173.164 117.76 173.164 116.94V110.84H175.844V108.98H173.164V106.24H170.864V108.98H169.564V110.84H170.864V116.94ZM180.225 114.2C180.225 111.86 181.265 111.16 182.945 111.16H183.525V108.8C181.965 108.8 180.865 109.48 180.225 110.58V108.98H177.945V120H180.225V114.2ZM189.961 117.38L186.861 108.98H184.321L188.661 119.82L186.421 125.18H188.781L195.541 108.98H193.181L189.961 117.38Z" fill="#212832"/>
<rect x="0.5" y="90.5" width="399" height="49" stroke="black" stroke-opacity="0.5"/>
<rect x="840" width="400" height="75" fill="white"/>
<path d="M864.6 40.94C866.08 40.94 867.24 39.8 867.24 38.34C867.24 36.86 866.08 35.72 864.6 35.72C863.16 35.72 862 36.86 862 38.34C862 39.8 863.16 40.94 864.6 40.94ZM881.129 45H883.409V38.92H888.009V37.06H883.409V32.96H889.309V31.1H881.129V45ZM891.422 45H893.702V33.98H891.422V45ZM892.582 32.52C893.382 32.52 894.022 31.88 894.022 31.06C894.022 30.24 893.382 29.6 892.582 29.6C891.762 29.6 891.122 30.24 891.122 31.06C891.122 31.88 891.762 32.52 892.582 32.52ZM904.515 45H906.775V38.5C906.775 35.42 904.835 33.8 902.255 33.8C900.935 33.8 899.715 34.34 898.975 35.24V33.98H896.695V45H898.975V38.84C898.975 36.82 900.075 35.78 901.755 35.78C903.415 35.78 904.515 36.82 904.515 38.84V45ZM908.924 39.44C908.924 42.84 911.224 45.18 914.084 45.18C915.924 45.18 917.244 44.3 917.944 43.36V45H920.244V33.98H917.944V35.58C917.264 34.68 915.984 33.8 914.124 33.8C911.224 33.8 908.924 36.04 908.924 39.44ZM917.944 39.48C917.944 41.86 916.324 43.2 914.604 43.2C912.904 43.2 911.264 41.82 911.264 39.44C911.264 37.06 912.904 35.78 914.604 35.78C916.324 35.78 917.944 37.12 917.944 39.48ZM931.058 45H933.318V38.5C933.318 35.42 931.378 33.8 928.798 33.8C927.478 33.8 926.258 34.34 925.518 35.24V33.98H923.238V45H925.518V38.84C925.518 36.82 926.618 35.78 928.298 35.78C929.958 35.78 931.058 36.82 931.058 38.84V45ZM935.467 39.48C935.467 42.94 937.707 45.18 940.867 45.18C943.567 45.18 945.327 43.68 945.947 41.52H943.487C943.067 42.66 942.227 43.26 940.867 43.26C939.027 43.26 937.807 41.9 937.807 39.48C937.807 37.08 939.027 35.72 940.867 35.72C942.227 35.72 943.107 36.4 943.487 37.46H945.947C945.327 35.14 943.567 33.8 940.867 33.8C937.707 33.8 935.467 36.04 935.467 39.48ZM952.859 35.72C954.559 35.72 955.899 36.8 955.939 38.5H949.839C950.079 36.76 951.319 35.72 952.859 35.72ZM958.019 41.72H955.559C955.139 42.58 954.359 43.26 952.959 43.26C951.279 43.26 949.979 42.16 949.819 40.34H958.239C958.299 39.96 958.319 39.6 958.319 39.22C958.319 35.98 956.099 33.8 952.959 33.8C949.699 33.8 947.459 36.02 947.459 39.48C947.459 42.94 949.799 45.18 952.959 45.18C955.659 45.18 957.399 43.64 958.019 41.72ZM964.998 39.44C964.998 42.84 967.298 45.18 970.158 45.18C971.998 45.18 973.318 44.3 974.018 43.36V45H976.318V33.98H974.018V35.58C973.338 34.68 972.058 33.8 970.198 33.8C967.298 33.8 964.998 36.04 964.998 39.44ZM974.018 39.48C974.018 41.86 972.398 43.2 970.678 43.2C968.978 43.2 967.338 41.82 967.338 39.44C967.338 37.06 968.978 35.78 970.678 35.78C972.398 35.78 974.018 37.12 974.018 39.48ZM987.133 45H989.393V38.5C989.393 35.42 987.453 33.8 984.873 33.8C983.553 33.8 982.333 34.34 981.593 35.24V33.98H979.313V45H981.593V38.84C981.593 36.82 982.693 35.78 984.373 35.78C986.033 35.78 987.133 36.82 987.133 38.84V45ZM991.541 39.44C991.541 42.84 993.841 45.18 996.741 45.18C998.541 45.18 999.861 44.34 1000.56 43.34V45H1002.86V30.2H1000.56V35.52C999.721 34.48 998.201 33.8 996.761 33.8C993.841 33.8 991.541 36.04 991.541 39.44ZM1000.56 39.48C1000.56 41.86 998.941 43.2 997.221 43.2C995.521 43.2 993.881 41.82 993.881 39.44C993.881 37.06 995.521 35.78 997.221 35.78C998.941 35.78 1000.56 37.12 1000.56 39.48ZM1018.89 41.02C1018.89 42.36 1017.95 43.14 1016.41 43.14H1013.33V38.8H1016.33C1017.85 38.8 1018.89 39.64 1018.89 41.02ZM1018.53 34.96C1018.53 36.24 1017.63 36.94 1016.15 36.94H1013.33V32.96H1016.15C1017.63 32.96 1018.53 33.7 1018.53 34.96ZM1021.17 41.26C1021.17 39.6 1019.97 38.12 1018.49 37.86C1019.83 37.38 1020.85 36.36 1020.85 34.68C1020.85 32.72 1019.29 31.1 1016.35 31.1H1011.05V45H1016.61C1019.45 45 1021.17 43.38 1021.17 41.26ZM1022.89 39.44C1022.89 42.84 1025.19 45.18 1028.05 45.18C1029.89 45.18 1031.21 44.3 1031.91 43.36V45H1034.21V33.98H1031.91V35.58C1031.23 34.68 1029.95 33.8 1028.09 33.8C1025.19 33.8 1022.89 36.04 1022.89 39.44ZM1031.91 39.48C1031.91 41.86 1030.29 43.2 1028.57 43.2C1026.87 43.2 1025.23 41.82 1025.23 39.44C1025.23 37.06 1026.87 35.78 1028.57 35.78C1030.29 35.78 1031.91 37.12 1031.91 39.48ZM1045.02 45H1047.28V38.5C1047.28 35.42 1045.34 33.8 1042.76 33.8C1041.44 33.8 1040.22 34.34 1039.48 35.24V33.98H1037.2V45H1039.48V38.84C1039.48 36.82 1040.58 35.78 1042.26 35.78C1043.92 35.78 1045.02 36.82 1045.02 38.84V45ZM1050.19 45H1052.47V40.26L1056.55 45H1059.63L1054.55 39.5L1059.63 33.98H1056.47L1052.47 38.8V30.2H1050.19V45ZM1061.27 45H1063.55V33.98H1061.27V45ZM1062.43 32.52C1063.23 32.52 1063.87 31.88 1063.87 31.06C1063.87 30.24 1063.23 29.6 1062.43 29.6C1061.61 29.6 1060.97 30.24 1060.97 31.06C1060.97 31.88 1061.61 32.52 1062.43 32.52ZM1074.36 45H1076.62V38.5C1076.62 35.42 1074.68 33.8 1072.1 33.8C1070.78 33.8 1069.56 34.34 1068.82 35.24V33.98H1066.54V45H1068.82V38.84C1068.82 36.82 1069.92 35.78 1071.6 35.78C1073.26 35.78 1074.36 36.82 1074.36 38.84V45ZM1078.77 39.44C1078.77 42.84 1081.07 45.18 1083.97 45.18C1085.77 45.18 1087.09 44.28 1087.79 43.34V45.18C1087.79 47.38 1086.47 48.46 1084.71 48.46C1083.13 48.46 1081.91 47.68 1081.57 46.54H1079.31C1079.59 48.98 1081.77 50.44 1084.71 50.44C1088.15 50.44 1090.09 48.18 1090.09 45.18V33.98H1087.79V35.58C1087.11 34.64 1085.77 33.8 1083.97 33.8C1081.07 33.8 1078.77 36.04 1078.77 39.44ZM1087.79 39.48C1087.79 41.86 1086.17 43.2 1084.45 43.2C1082.75 43.2 1081.11 41.82 1081.11 39.44C1081.11 37.06 1082.75 35.78 1084.45 35.78C1086.17 35.78 1087.79 37.12 1087.79 39.48ZM1098.28 45H1100.56V31.1H1098.28V45ZM1111.37 45H1113.63V38.5C1113.63 35.42 1111.69 33.8 1109.11 33.8C1107.79 33.8 1106.57 34.34 1105.83 35.24V33.98H1103.55V45H1105.83V38.84C1105.83 36.82 1106.93 35.78 1108.61 35.78C1110.27 35.78 1111.37 36.82 1111.37 38.84V45ZM1115.78 39.44C1115.78 42.84 1118.08 45.18 1120.98 45.18C1122.78 45.18 1124.1 44.34 1124.8 43.34V45H1127.1V30.2H1124.8V35.52C1123.96 34.48 1122.44 33.8 1121 33.8C1118.08 33.8 1115.78 36.04 1115.78 39.44ZM1124.8 39.48C1124.8 41.86 1123.18 43.2 1121.46 43.2C1119.76 43.2 1118.12 41.82 1118.12 39.44C1118.12 37.06 1119.76 35.78 1121.46 35.78C1123.18 35.78 1124.8 37.12 1124.8 39.48ZM1140.07 33.98H1137.79V40.12C1137.79 42.14 1136.69 43.18 1135.01 43.18C1133.35 43.18 1132.25 42.14 1132.25 40.12V33.98H1129.99V40.46C1129.99 43.54 1131.95 45.16 1134.53 45.16C1135.83 45.16 1137.07 44.62 1137.79 43.68V45H1140.07V33.98ZM1151.3 41.92C1151.18 37.94 1144.96 39.18 1144.96 36.96C1144.96 36.22 1145.6 35.72 1146.82 35.72C1148.06 35.72 1148.8 36.38 1148.88 37.34H1151.16C1151.04 35.14 1149.4 33.8 1146.9 33.8C1144.3 33.8 1142.66 35.22 1142.66 36.98C1142.66 41.02 1149.06 39.78 1149.06 41.94C1149.06 42.7 1148.36 43.26 1147.04 43.26C1145.78 43.26 1144.92 42.52 1144.84 41.62H1142.48C1142.58 43.62 1144.44 45.18 1147.08 45.18C1149.68 45.18 1151.3 43.78 1151.3 41.92ZM1154.13 41.94C1154.13 44.18 1155.35 45 1157.31 45H1159.11V43.1H1157.71C1156.75 43.1 1156.43 42.76 1156.43 41.94V35.84H1159.11V33.98H1156.43V31.24H1154.13V33.98H1152.83V35.84H1154.13V41.94ZM1163.49 39.2C1163.49 36.86 1164.53 36.16 1166.21 36.16H1166.79V33.8C1165.23 33.8 1164.13 34.48 1163.49 35.58V33.98H1161.21V45H1163.49V39.2ZM1173.22 42.38L1170.12 33.98H1167.58L1171.92 44.82L1169.68 50.18H1172.04L1178.8 33.98H1176.44L1173.22 42.38Z" fill="#212832"/>
<rect x="840.5" y="0.5" width="399" height="74" stroke="black" stroke-opacity="0.5"/>
<rect x="420" width="400" height="75" fill="white"/>
<path d="M444.6 28.44C446.08 28.44 447.24 27.3 447.24 25.84C447.24 24.36 446.08 23.22 444.6 23.22C443.16 23.22 442 24.36 442 25.84C442 27.3 443.16 28.44 444.6 28.44ZM461.129 32.5H463.409V22.98L467.669 32.5H469.249L473.489 22.98V32.5H475.769V18.6H473.329L468.469 29.5L463.589 18.6H461.129V32.5ZM478.006 26.94C478.006 30.34 480.306 32.68 483.166 32.68C485.006 32.68 486.326 31.8 487.026 30.86V32.5H489.326V21.48H487.026V23.08C486.346 22.18 485.066 21.3 483.206 21.3C480.306 21.3 478.006 23.54 478.006 26.94ZM487.026 26.98C487.026 29.36 485.406 30.7 483.686 30.7C481.986 30.7 480.346 29.32 480.346 26.94C480.346 24.56 481.986 23.28 483.686 23.28C485.406 23.28 487.026 24.62 487.026 26.98ZM500.14 32.5H502.4V26C502.4 22.92 500.46 21.3 497.88 21.3C496.56 21.3 495.34 21.84 494.6 22.74V21.48H492.32V32.5H494.6V26.34C494.6 24.32 495.7 23.28 497.38 23.28C499.04 23.28 500.14 24.32 500.14 26.34V32.5ZM515.289 21.48H513.009V27.62C513.009 29.64 511.909 30.68 510.229 30.68C508.569 30.68 507.469 29.64 507.469 27.62V21.48H505.209V27.96C505.209 31.04 507.169 32.66 509.749 32.66C511.049 32.66 512.289 32.12 513.009 31.18V32.5H515.289V21.48ZM518.577 32.5H520.877V23.34H522.917V21.48H520.877V20.7C520.877 19.44 521.357 18.96 522.757 18.96V17.06C519.877 17.06 518.577 18.16 518.577 20.7V21.48H517.277V23.34H518.577V32.5ZM524.178 26.94C524.178 30.34 526.478 32.68 529.338 32.68C531.178 32.68 532.498 31.8 533.198 30.86V32.5H535.498V21.48H533.198V23.08C532.518 22.18 531.238 21.3 529.378 21.3C526.478 21.3 524.178 23.54 524.178 26.94ZM533.198 26.98C533.198 29.36 531.578 30.7 529.858 30.7C528.158 30.7 526.518 29.32 526.518 26.94C526.518 24.56 528.158 23.28 529.858 23.28C531.578 23.28 533.198 24.62 533.198 26.98ZM537.732 26.98C537.732 30.44 539.972 32.68 543.132 32.68C545.832 32.68 547.592 31.18 548.212 29.02H545.752C545.332 30.16 544.492 30.76 543.132 30.76C541.292 30.76 540.072 29.4 540.072 26.98C540.072 24.58 541.292 23.22 543.132 23.22C544.492 23.22 545.372 23.9 545.752 24.96H548.212C547.592 22.64 545.832 21.3 543.132 21.3C539.972 21.3 537.732 23.54 537.732 26.98ZM550.844 29.44C550.844 31.68 552.064 32.5 554.024 32.5H555.824V30.6H554.424C553.464 30.6 553.144 30.26 553.144 29.44V23.34H555.824V21.48H553.144V18.74H550.844V21.48H549.544V23.34H550.844V29.44ZM567.906 21.48H565.626V27.62C565.626 29.64 564.526 30.68 562.846 30.68C561.186 30.68 560.086 29.64 560.086 27.62V21.48H557.826V27.96C557.826 31.04 559.786 32.66 562.366 32.66C563.666 32.66 564.906 32.12 565.626 31.18V32.5H567.906V21.48ZM573.194 26.7C573.194 24.36 574.234 23.66 575.914 23.66H576.494V21.3C574.934 21.3 573.834 21.98 573.194 23.08V21.48H570.914V32.5H573.194V26.7ZM578.59 32.5H580.87V21.48H578.59V32.5ZM579.75 20.02C580.55 20.02 581.19 19.38 581.19 18.56C581.19 17.74 580.55 17.1 579.75 17.1C578.93 17.1 578.29 17.74 578.29 18.56C578.29 19.38 578.93 20.02 579.75 20.02ZM591.683 32.5H593.943V26C593.943 22.92 592.003 21.3 589.423 21.3C588.103 21.3 586.883 21.84 586.143 22.74V21.48H583.863V32.5H586.143V26.34C586.143 24.32 587.243 23.28 588.923 23.28C590.583 23.28 591.683 24.32 591.683 26.34V32.5ZM596.092 26.94C596.092 30.34 598.392 32.68 601.292 32.68C603.092 32.68 604.412 31.78 605.112 30.84V32.68C605.112 34.88 603.792 35.96 602.032 35.96C600.452 35.96 599.232 35.18 598.892 34.04H596.632C596.912 36.48 599.092 37.94 602.032 37.94C605.472 37.94 607.412 35.68 607.412 32.68V21.48H605.112V23.08C604.432 22.14 603.092 21.3 601.292 21.3C598.392 21.3 596.092 23.54 596.092 26.94ZM605.112 26.98C605.112 29.36 603.492 30.7 601.772 30.7C600.072 30.7 598.432 29.32 598.432 26.94C598.432 24.56 600.072 23.28 601.772 23.28C603.492 23.28 605.112 24.62 605.112 26.98ZM615.882 32.5H618.182V23.34H620.222V21.48H618.182V20.7C618.182 19.44 618.662 18.96 620.062 18.96V17.06C617.182 17.06 615.882 18.16 615.882 20.7V21.48H614.582V23.34H615.882V32.5ZM632.742 26.98C632.742 23.52 630.262 21.3 627.122 21.3C623.982 21.3 621.502 23.52 621.502 26.98C621.502 30.44 623.882 32.68 627.022 32.68C630.182 32.68 632.742 30.44 632.742 26.98ZM623.822 26.98C623.822 24.48 625.362 23.28 627.082 23.28C628.782 23.28 630.402 24.48 630.402 26.98C630.402 29.48 628.722 30.7 627.022 30.7C625.302 30.7 623.822 29.48 623.822 26.98ZM637.276 26.7C637.276 24.36 638.316 23.66 639.996 23.66H640.576V21.3C639.016 21.3 637.916 21.98 637.276 23.08V21.48H634.996V32.5H637.276V26.7ZM648.227 29.44C648.227 31.68 649.447 32.5 651.407 32.5H653.207V30.6H651.807C650.847 30.6 650.527 30.26 650.527 29.44V23.34H653.207V21.48H650.527V18.74H648.227V21.48H646.927V23.34H648.227V29.44ZM655.309 32.5H657.589V26.34C657.589 24.32 658.689 23.28 660.369 23.28C662.029 23.28 663.129 24.32 663.129 26.34V32.5H665.389V26C665.389 22.92 663.469 21.3 661.009 21.3C659.589 21.3 658.349 21.84 657.589 22.76V17.7H655.309V32.5ZM672.937 23.22C674.637 23.22 675.977 24.3 676.017 26H669.917C670.157 24.26 671.397 23.22 672.937 23.22ZM678.097 29.22H675.637C675.217 30.08 674.437 30.76 673.037 30.76C671.357 30.76 670.057 29.66 669.897 27.84H678.317C678.377 27.46 678.397 27.1 678.397 26.72C678.397 23.48 676.177 21.3 673.037 21.3C669.777 21.3 667.537 23.52 667.537 26.98C667.537 30.44 669.877 32.68 673.037 32.68C675.737 32.68 677.477 31.14 678.097 29.22ZM695.216 32.5H697.616L692.636 18.58H689.996L685.016 32.5H687.396L688.396 29.66H694.216L695.216 32.5ZM693.576 27.8H689.036L691.316 21.34L693.576 27.8ZM709.761 21.48H707.481V27.62C707.481 29.64 706.381 30.68 704.701 30.68C703.041 30.68 701.941 29.64 701.941 27.62V21.48H699.681V27.96C699.681 31.04 701.641 32.66 704.221 32.66C705.521 32.66 706.761 32.12 707.481 31.18V32.5H709.761V21.48ZM713.13 29.44C713.13 31.68 714.35 32.5 716.31 32.5H718.11V30.6H716.71C715.75 30.6 715.43 30.26 715.43 29.44V23.34H718.11V21.48H715.43V18.74H713.13V21.48H711.83V23.34H713.13V29.44ZM730.711 26.98C730.711 23.52 728.231 21.3 725.091 21.3C721.951 21.3 719.471 23.52 719.471 26.98C719.471 30.44 721.851 32.68 724.991 32.68C728.151 32.68 730.711 30.44 730.711 26.98ZM721.791 26.98C721.791 24.48 723.331 23.28 725.051 23.28C726.751 23.28 728.371 24.48 728.371 26.98C728.371 29.48 726.691 30.7 724.991 30.7C723.271 30.7 721.791 29.48 721.791 26.98ZM748.585 32.5H750.845V26C750.845 22.92 748.885 21.3 746.305 21.3C744.705 21.3 743.145 22.14 742.465 23.48C741.705 22.04 740.245 21.3 738.505 21.3C737.185 21.3 735.985 21.84 735.245 22.74V21.48H732.965V32.5H735.245V26.34C735.245 24.32 736.345 23.28 738.025 23.28C739.685 23.28 740.785 24.32 740.785 26.34V32.5H743.045V26.34C743.045 24.32 744.145 23.28 745.825 23.28C747.485 23.28 748.585 24.32 748.585 26.34V32.5ZM764.246 26.98C764.246 23.52 761.766 21.3 758.626 21.3C755.486 21.3 753.006 23.52 753.006 26.98C753.006 30.44 755.386 32.68 758.526 32.68C761.686 32.68 764.246 30.44 764.246 26.98ZM755.326 26.98C755.326 24.48 756.866 23.28 758.586 23.28C760.286 23.28 761.906 24.48 761.906 26.98C761.906 29.48 760.226 30.7 758.526 30.7C756.806 30.7 755.326 29.48 755.326 26.98ZM768.78 23.12V17.7H766.5V32.5H768.78V30.9C769.5 31.86 770.8 32.68 772.62 32.68C775.52 32.68 777.8 30.34 777.8 26.94C777.8 23.54 775.54 21.3 772.62 21.3C770.88 21.3 769.5 22.12 768.78 23.12ZM775.48 26.94C775.48 29.32 773.84 30.7 772.12 30.7C770.42 30.7 768.78 29.36 768.78 26.98C768.78 24.62 770.42 23.28 772.12 23.28C773.84 23.28 775.48 24.56 775.48 26.94ZM780.055 32.5H782.335V21.48H780.055V32.5ZM781.215 20.02C782.015 20.02 782.655 19.38 782.655 18.56C782.655 17.74 782.015 17.1 781.215 17.1C780.395 17.1 779.755 17.74 779.755 18.56C779.755 19.38 780.395 20.02 781.215 20.02ZM785.328 32.5H787.608V17.7H785.328V32.5ZM795.242 23.22C796.942 23.22 798.282 24.3 798.322 26H792.222C792.462 24.26 793.702 23.22 795.242 23.22ZM800.402 29.22H797.942C797.522 30.08 796.742 30.76 795.342 30.76C793.662 30.76 792.362 29.66 792.202 27.84H800.622C800.682 27.46 800.702 27.1 800.702 26.72C800.702 23.48 798.482 21.3 795.342 21.3C792.082 21.3 789.842 23.52 789.842 26.98C789.842 30.44 792.182 32.68 795.342 32.68C798.042 32.68 799.782 31.14 800.402 29.22ZM462.281 57.5H464.561V43.6H462.281V57.5ZM475.375 57.5H477.635V51C477.635 47.92 475.695 46.3 473.115 46.3C471.795 46.3 470.575 46.84 469.835 47.74V46.48H467.555V57.5H469.835V51.34C469.835 49.32 470.935 48.28 472.615 48.28C474.275 48.28 475.375 49.32 475.375 51.34V57.5ZM479.783 51.94C479.783 55.34 482.083 57.68 484.983 57.68C486.783 57.68 488.103 56.84 488.803 55.84V57.5H491.103V42.7H488.803V48.02C487.963 46.98 486.443 46.3 485.003 46.3C482.083 46.3 479.783 48.54 479.783 51.94ZM488.803 51.98C488.803 54.36 487.183 55.7 485.463 55.7C483.763 55.7 482.123 54.32 482.123 51.94C482.123 49.56 483.763 48.28 485.463 48.28C487.183 48.28 488.803 49.62 488.803 51.98ZM504.078 46.48H501.798V52.62C501.798 54.64 500.698 55.68 499.018 55.68C497.358 55.68 496.258 54.64 496.258 52.62V46.48H493.998V52.96C493.998 56.04 495.958 57.66 498.538 57.66C499.838 57.66 501.078 57.12 501.798 56.18V57.5H504.078V46.48ZM515.306 54.42C515.186 50.44 508.966 51.68 508.966 49.46C508.966 48.72 509.606 48.22 510.826 48.22C512.066 48.22 512.806 48.88 512.886 49.84H515.166C515.046 47.64 513.406 46.3 510.906 46.3C508.306 46.3 506.666 47.72 506.666 49.48C506.666 53.52 513.066 52.28 513.066 54.44C513.066 55.2 512.366 55.76 511.046 55.76C509.786 55.76 508.926 55.02 508.846 54.12H506.486C506.586 56.12 508.446 57.68 511.086 57.68C513.686 57.68 515.306 56.28 515.306 54.42ZM518.13 54.44C518.13 56.68 519.35 57.5 521.31 57.5H523.11V55.6H521.71C520.75 55.6 520.43 55.26 520.43 54.44V48.34H523.11V46.48H520.43V43.74H518.13V46.48H516.83V48.34H518.13V54.44ZM527.491 51.7C527.491 49.36 528.531 48.66 530.211 48.66H530.791V46.3C529.231 46.3 528.131 46.98 527.491 48.08V46.48H525.211V57.5H527.491V51.7ZM537.227 54.88L534.127 46.48H531.587L535.927 57.32L533.687 62.68H536.047L542.807 46.48H540.447L537.227 54.88Z" fill="#212832"/>
<rect x="420.5" y="0.5" width="399" height="74" stroke="black" stroke-opacity="0.5"/>
<rect x="420" y="90" width="820" height="50" fill="white"/>
<path d="M444.6 115.94C446.08 115.94 447.24 114.8 447.24 113.34C447.24 111.86 446.08 110.72 444.6 110.72C443.16 110.72 442 111.86 442 113.34C442 114.8 443.16 115.94 444.6 115.94ZM461.129 120H463.409V106.1H461.129V120ZM474.222 120H476.482V113.5C476.482 110.42 474.542 108.8 471.962 108.8C470.642 108.8 469.422 109.34 468.682 110.24V108.98H466.402V120H468.682V113.84C468.682 111.82 469.782 110.78 471.462 110.78C473.122 110.78 474.222 111.82 474.222 113.84V120ZM478.631 114.44C478.631 117.84 480.931 120.18 483.831 120.18C485.631 120.18 486.951 119.34 487.651 118.34V120H489.951V105.2H487.651V110.52C486.811 109.48 485.291 108.8 483.851 108.8C480.931 108.8 478.631 111.04 478.631 114.44ZM487.651 114.48C487.651 116.86 486.031 118.2 484.311 118.2C482.611 118.2 480.971 116.82 480.971 114.44C480.971 112.06 482.611 110.78 484.311 110.78C486.031 110.78 487.651 112.12 487.651 114.48ZM502.925 108.98H500.645V115.12C500.645 117.14 499.545 118.18 497.865 118.18C496.205 118.18 495.105 117.14 495.105 115.12V108.98H492.845V115.46C492.845 118.54 494.805 120.16 497.385 120.16C498.685 120.16 499.925 119.62 500.645 118.68V120H502.925V108.98ZM514.154 116.92C514.034 112.94 507.814 114.18 507.814 111.96C507.814 111.22 508.454 110.72 509.674 110.72C510.914 110.72 511.654 111.38 511.734 112.34H514.014C513.894 110.14 512.254 108.8 509.754 108.8C507.154 108.8 505.514 110.22 505.514 111.98C505.514 116.02 511.914 114.78 511.914 116.94C511.914 117.7 511.214 118.26 509.894 118.26C508.634 118.26 507.774 117.52 507.694 116.62H505.334C505.434 118.62 507.294 120.18 509.934 120.18C512.534 120.18 514.154 118.78 514.154 116.92ZM516.977 116.94C516.977 119.18 518.197 120 520.157 120H521.957V118.1H520.557C519.597 118.1 519.277 117.76 519.277 116.94V110.84H521.957V108.98H519.277V106.24H516.977V108.98H515.677V110.84H516.977V116.94ZM526.339 114.2C526.339 111.86 527.379 111.16 529.059 111.16H529.639V108.8C528.079 108.8 526.979 109.48 526.339 110.58V108.98H524.059V120H526.339V114.2ZM531.734 120H534.014V108.98H531.734V120ZM532.894 107.52C533.694 107.52 534.334 106.88 534.334 106.06C534.334 105.24 533.694 104.6 532.894 104.6C532.074 104.6 531.434 105.24 531.434 106.06C531.434 106.88 532.074 107.52 532.894 107.52ZM541.648 110.72C543.348 110.72 544.688 111.8 544.728 113.5H538.628C538.868 111.76 540.108 110.72 541.648 110.72ZM546.808 116.72H544.348C543.928 117.58 543.148 118.26 541.748 118.26C540.068 118.26 538.768 117.16 538.608 115.34H547.028C547.088 114.96 547.108 114.6 547.108 114.22C547.108 110.98 544.888 108.8 541.748 108.8C538.488 108.8 536.248 111.02 536.248 114.48C536.248 117.94 538.588 120.18 541.748 120.18C544.448 120.18 546.188 118.64 546.808 116.72ZM557.572 116.92C557.452 112.94 551.232 114.18 551.232 111.96C551.232 111.22 551.872 110.72 553.092 110.72C554.332 110.72 555.072 111.38 555.152 112.34H557.432C557.312 110.14 555.672 108.8 553.172 108.8C550.572 108.8 548.932 110.22 548.932 111.98C548.932 116.02 555.332 114.78 555.332 116.94C555.332 117.7 554.632 118.26 553.312 118.26C552.052 118.26 551.192 117.52 551.112 116.62H548.752C548.852 118.62 550.712 120.18 553.352 120.18C555.952 120.18 557.572 118.78 557.572 116.92ZM572.61 110.26C572.61 111.64 571.81 112.62 570.03 112.62H567.51V107.96H570.03C571.81 107.96 572.61 108.86 572.61 110.26ZM565.23 106.1V120H567.51V114.44H569.25L572.45 120H575.17L571.73 114.24C574.07 113.66 574.95 111.9 574.95 110.26C574.95 108 573.33 106.1 570.03 106.1H565.23ZM582.507 110.72C584.207 110.72 585.547 111.8 585.587 113.5H579.487C579.727 111.76 580.967 110.72 582.507 110.72ZM587.667 116.72H585.207C584.787 117.58 584.007 118.26 582.607 118.26C580.927 118.26 579.627 117.16 579.467 115.34H587.887C587.947 114.96 587.967 114.6 587.967 114.22C587.967 110.98 585.747 108.8 582.607 108.8C579.347 108.8 577.107 111.02 577.107 114.48C577.107 117.94 579.447 120.18 582.607 120.18C585.307 120.18 587.047 118.64 587.667 116.72ZM590.211 120H592.491V105.2H590.211V120ZM594.724 114.44C594.724 117.84 597.024 120.18 599.884 120.18C601.724 120.18 603.044 119.3 603.744 118.36V120H606.044V108.98H603.744V110.58C603.064 109.68 601.784 108.8 599.924 108.8C597.024 108.8 594.724 111.04 594.724 114.44ZM603.744 114.48C603.744 116.86 602.124 118.2 600.404 118.2C598.704 118.2 597.064 116.82 597.064 114.44C597.064 112.06 598.704 110.78 600.404 110.78C602.124 110.78 603.744 112.12 603.744 114.48ZM609.399 116.94C609.399 119.18 610.619 120 612.579 120H614.379V118.1H612.979C612.019 118.1 611.699 117.76 611.699 116.94V110.84H614.379V108.98H611.699V106.24H609.399V108.98H608.099V110.84H609.399V116.94ZM616.48 120H618.76V108.98H616.48V120ZM617.64 107.52C618.44 107.52 619.08 106.88 619.08 106.06C619.08 105.24 618.44 104.6 617.64 104.6C616.82 104.6 616.18 105.24 616.18 106.06C616.18 106.88 616.82 107.52 617.64 107.52ZM629.574 120H631.834V113.5C631.834 110.42 629.894 108.8 627.314 108.8C625.994 108.8 624.774 109.34 624.034 110.24V108.98H621.754V120H624.034V113.84C624.034 111.82 625.134 110.78 626.814 110.78C628.474 110.78 629.574 111.82 629.574 113.84V120ZM633.982 114.44C633.982 117.84 636.282 120.18 639.182 120.18C640.982 120.18 642.302 119.28 643.002 118.34V120.18C643.002 122.38 641.682 123.46 639.922 123.46C638.342 123.46 637.122 122.68 636.782 121.54H634.522C634.802 123.98 636.982 125.44 639.922 125.44C643.362 125.44 645.302 123.18 645.302 120.18V108.98H643.002V110.58C642.322 109.64 640.982 108.8 639.182 108.8C636.282 108.8 633.982 111.04 633.982 114.44ZM643.002 114.48C643.002 116.86 641.382 118.2 639.662 118.2C637.962 118.2 636.322 116.82 636.322 114.44C636.322 112.06 637.962 110.78 639.662 110.78C641.382 110.78 643.002 112.12 643.002 114.48ZM653.852 116.94C653.852 119.18 655.072 120 657.032 120H658.832V118.1H657.432C656.472 118.1 656.152 117.76 656.152 116.94V110.84H658.832V108.98H656.152V106.24H653.852V108.98H652.552V110.84H653.852V116.94ZM671.434 114.48C671.434 111.02 668.954 108.8 665.814 108.8C662.674 108.8 660.194 111.02 660.194 114.48C660.194 117.94 662.574 120.18 665.714 120.18C668.874 120.18 671.434 117.94 671.434 114.48ZM662.514 114.48C662.514 111.98 664.054 110.78 665.774 110.78C667.474 110.78 669.094 111.98 669.094 114.48C669.094 116.98 667.414 118.2 665.714 118.2C663.994 118.2 662.514 116.98 662.514 114.48ZM678.163 107.96H681.883V120H684.163V107.96H687.863V106.1H678.163V107.96ZM694.812 110.72C696.512 110.72 697.852 111.8 697.892 113.5H691.792C692.032 111.76 693.272 110.72 694.812 110.72ZM699.972 116.72H697.512C697.092 117.58 696.312 118.26 694.912 118.26C693.232 118.26 691.932 117.16 691.772 115.34H700.192C700.252 114.96 700.272 114.6 700.272 114.22C700.272 110.98 698.052 108.8 694.912 108.8C691.652 108.8 689.412 111.02 689.412 114.48C689.412 117.94 691.752 120.18 694.912 120.18C697.612 120.18 699.352 118.64 699.972 116.72ZM702.516 120H704.796V105.2H702.516V120ZM712.429 110.72C714.129 110.72 715.469 111.8 715.509 113.5H709.409C709.649 111.76 710.889 110.72 712.429 110.72ZM717.589 116.72H715.129C714.709 117.58 713.929 118.26 712.529 118.26C710.849 118.26 709.549 117.16 709.389 115.34H717.809C717.869 114.96 717.889 114.6 717.889 114.22C717.889 110.98 715.669 108.8 712.529 108.8C709.269 108.8 707.029 111.02 707.029 114.48C707.029 117.94 709.369 120.18 712.529 120.18C715.229 120.18 716.969 118.64 717.589 116.72ZM719.373 114.48C719.373 117.94 721.613 120.18 724.773 120.18C727.473 120.18 729.233 118.68 729.853 116.52H727.393C726.973 117.66 726.133 118.26 724.773 118.26C722.933 118.26 721.713 116.9 721.713 114.48C721.713 112.08 722.933 110.72 724.773 110.72C726.133 110.72 727.013 111.4 727.393 112.46H729.853C729.233 110.14 727.473 108.8 724.773 108.8C721.613 108.8 719.373 111.04 719.373 114.48ZM742.625 114.48C742.625 111.02 740.145 108.8 737.005 108.8C733.865 108.8 731.385 111.02 731.385 114.48C731.385 117.94 733.765 120.18 736.905 120.18C740.065 120.18 742.625 117.94 742.625 114.48ZM733.705 114.48C733.705 111.98 735.245 110.78 736.965 110.78C738.665 110.78 740.285 111.98 740.285 114.48C740.285 116.98 738.605 118.2 736.905 118.2C735.185 118.2 733.705 116.98 733.705 114.48ZM760.499 120H762.759V113.5C762.759 110.42 760.799 108.8 758.219 108.8C756.619 108.8 755.059 109.64 754.379 110.98C753.619 109.54 752.159 108.8 750.419 108.8C749.099 108.8 747.899 109.34 747.159 110.24V108.98H744.879V120H747.159V113.84C747.159 111.82 748.259 110.78 749.939 110.78C751.599 110.78 752.699 111.82 752.699 113.84V120H754.959V113.84C754.959 111.82 756.059 110.78 757.739 110.78C759.399 110.78 760.499 111.82 760.499 113.84V120ZM781.28 120H783.54V113.5C783.54 110.42 781.58 108.8 779 108.8C777.4 108.8 775.84 109.64 775.16 110.98C774.4 109.54 772.94 108.8 771.2 108.8C769.88 108.8 768.68 109.34 767.94 110.24V108.98H765.66V120H767.94V113.84C767.94 111.82 769.04 110.78 770.72 110.78C772.38 110.78 773.48 111.82 773.48 113.84V120H775.74V113.84C775.74 111.82 776.84 110.78 778.52 110.78C780.18 110.78 781.28 111.82 781.28 113.84V120ZM796.421 108.98H794.141V115.12C794.141 117.14 793.041 118.18 791.361 118.18C789.701 118.18 788.601 117.14 788.601 115.12V108.98H786.341V115.46C786.341 118.54 788.301 120.16 790.881 120.16C792.181 120.16 793.421 119.62 794.141 118.68V120H796.421V108.98ZM807.25 120H809.51V113.5C809.51 110.42 807.57 108.8 804.99 108.8C803.67 108.8 802.45 109.34 801.71 110.24V108.98H799.43V120H801.71V113.84C801.71 111.82 802.81 110.78 804.49 110.78C806.15 110.78 807.25 111.82 807.25 113.84V120ZM812.418 120H814.698V108.98H812.418V120ZM813.578 107.52C814.378 107.52 815.018 106.88 815.018 106.06C815.018 105.24 814.378 104.6 813.578 104.6C812.758 104.6 812.118 105.24 812.118 106.06C812.118 106.88 812.758 107.52 813.578 107.52ZM816.931 114.48C816.931 117.94 819.171 120.18 822.331 120.18C825.031 120.18 826.791 118.68 827.411 116.52H824.951C824.531 117.66 823.691 118.26 822.331 118.26C820.491 118.26 819.271 116.9 819.271 114.48C819.271 112.08 820.491 110.72 822.331 110.72C823.691 110.72 824.571 111.4 824.951 112.46H827.411C826.791 110.14 825.031 108.8 822.331 108.8C819.171 108.8 816.931 111.04 816.931 114.48ZM828.924 114.44C828.924 117.84 831.224 120.18 834.084 120.18C835.924 120.18 837.244 119.3 837.944 118.36V120H840.244V108.98H837.944V110.58C837.264 109.68 835.984 108.8 834.124 108.8C831.224 108.8 828.924 111.04 828.924 114.44ZM837.944 114.48C837.944 116.86 836.324 118.2 834.604 118.2C832.904 118.2 831.264 116.82 831.264 114.44C831.264 112.06 832.904 110.78 834.604 110.78C836.324 110.78 837.944 112.12 837.944 114.48ZM843.598 116.94C843.598 119.18 844.818 120 846.778 120H848.578V118.1H847.178C846.218 118.1 845.898 117.76 845.898 116.94V110.84H848.578V108.98H845.898V106.24H843.598V108.98H842.298V110.84H843.598V116.94ZM850.68 120H852.96V108.98H850.68V120ZM851.84 107.52C852.64 107.52 853.28 106.88 853.28 106.06C853.28 105.24 852.64 104.6 851.84 104.6C851.02 104.6 850.38 105.24 850.38 106.06C850.38 106.88 851.02 107.52 851.84 107.52ZM866.453 114.48C866.453 111.02 863.973 108.8 860.833 108.8C857.693 108.8 855.213 111.02 855.213 114.48C855.213 117.94 857.593 120.18 860.733 120.18C863.893 120.18 866.453 117.94 866.453 114.48ZM857.533 114.48C857.533 111.98 859.073 110.78 860.793 110.78C862.493 110.78 864.113 111.98 864.113 114.48C864.113 116.98 862.433 118.2 860.733 118.2C859.013 118.2 857.533 116.98 857.533 114.48ZM876.527 120H878.787V113.5C878.787 110.42 876.847 108.8 874.267 108.8C872.947 108.8 871.727 109.34 870.987 110.24V108.98H868.707V120H870.987V113.84C870.987 111.82 872.087 110.78 873.767 110.78C875.427 110.78 876.527 111.82 876.527 113.84V120ZM889.915 116.92C889.795 112.94 883.575 114.18 883.575 111.96C883.575 111.22 884.215 110.72 885.435 110.72C886.675 110.72 887.415 111.38 887.495 112.34H889.775C889.655 110.14 888.015 108.8 885.515 108.8C882.915 108.8 881.275 110.22 881.275 111.98C881.275 116.02 887.675 114.78 887.675 116.94C887.675 117.7 886.975 118.26 885.655 118.26C884.395 118.26 883.535 117.52 883.455 116.62H881.095C881.195 118.62 883.055 120.18 885.695 120.18C888.295 120.18 889.915 118.78 889.915 116.92Z" fill="#212832"/>
<rect x="420.5" y="90.5" width="819" height="49" stroke="black" stroke-opacity="0.5"/>
</svg>
