<svg width="617" height="572" viewBox="0 0 617 572" fill="none" xmlns="http://www.w3.org/2000/svg">
<rect width="617" height="58" fill="#3498DB"/>
<path d="M33.925 32.95C33.925 26.8 24.975 28.75 24.975 25.25C24.975 23.825 26 23.15 27.375 23.2C28.875 23.225 29.8 24.125 29.875 25.275H33.725C33.5 22.125 31.05 20.3 27.475 20.3C23.875 20.3 21.325 22.2 21.325 25.35C21.3 31.675 30.3 29.4 30.3 33.175C30.3 34.425 29.325 35.3 27.675 35.3C26.05 35.3 25.125 34.375 25.025 32.975H21.275C21.325 36.275 24.125 38.175 27.75 38.175C31.725 38.175 33.925 35.7 33.925 32.95ZM43.4094 26.8C45.2094 26.8 46.6594 27.95 46.7094 29.775H40.1344C40.4094 27.875 41.7344 26.8 43.4094 26.8ZM49.9844 33.65H46.2094C45.7594 34.575 44.9344 35.325 43.4344 35.325C41.6844 35.325 40.2844 34.175 40.1094 32.125H50.2344C50.3094 31.675 50.3344 31.225 50.3344 30.775C50.3344 26.65 47.5094 23.925 43.5094 23.925C39.4094 23.925 36.5594 26.7 36.5594 31.075C36.5594 35.425 39.4844 38.225 43.5094 38.225C46.9344 38.225 49.2344 36.2 49.9844 33.65ZM72.7641 38H76.2641V29.875C76.2641 26.05 73.9141 23.95 70.5891 23.95C68.5641 23.95 66.7391 25.025 65.8391 26.6C64.8891 24.875 63.1141 23.95 60.9641 23.95C59.2391 23.95 57.7641 24.675 56.8891 25.825V24.15H53.3891V38H56.8891V30.35C56.8891 28.15 58.1141 27 60.0141 27C61.8641 27 63.0891 28.15 63.0891 30.35V38H66.5891V30.35C66.5891 28.15 67.8141 27 69.6891 27C71.5391 27 72.7641 28.15 72.7641 30.35V38ZM86.0354 26.8C87.8354 26.8 89.2854 27.95 89.3354 29.775H82.7604C83.0354 27.875 84.3604 26.8 86.0354 26.8ZM92.6104 33.65H88.8354C88.3854 34.575 87.5604 35.325 86.0604 35.325C84.3104 35.325 82.9104 34.175 82.7354 32.125H92.8604C92.9354 31.675 92.9604 31.225 92.9604 30.775C92.9604 26.65 90.1354 23.925 86.1354 23.925C82.0354 23.925 79.1854 26.7 79.1854 31.075C79.1854 35.425 82.1104 38.225 86.1354 38.225C89.5604 38.225 91.8604 36.2 92.6104 33.65ZM106.765 34.05C106.665 28.975 98.99 30.55 98.99 28.025C98.99 27.225 99.665 26.7 100.965 26.7C102.34 26.7 103.19 27.425 103.29 28.5H106.64C106.44 25.75 104.415 23.925 101.065 23.925C97.64 23.925 95.59 25.775 95.59 28.075C95.59 33.15 103.415 31.575 103.415 34.05C103.415 34.85 102.665 35.475 101.29 35.475C99.89 35.475 98.915 34.675 98.79 33.625H95.265C95.415 36.2 97.84 38.225 101.315 38.225C104.69 38.225 106.765 36.425 106.765 34.05ZM110.688 33.7C110.688 36.875 112.463 38 115.113 38H117.313V35.05H115.688C114.588 35.05 114.213 34.65 114.213 33.725V27.025H117.313V24.15H114.213V20.725H110.688V24.15H109.038V27.025H110.688V33.7ZM126.28 26.8C128.08 26.8 129.53 27.95 129.58 29.775H123.005C123.28 27.875 124.605 26.8 126.28 26.8ZM132.855 33.65H129.08C128.63 34.575 127.805 35.325 126.305 35.325C124.555 35.325 123.155 34.175 122.98 32.125H133.105C133.18 31.675 133.205 31.225 133.205 30.775C133.205 26.65 130.38 23.925 126.38 23.925C122.28 23.925 119.43 26.7 119.43 31.075C119.43 35.425 122.355 38.225 126.38 38.225C129.805 38.225 132.105 36.2 132.855 33.65ZM139.76 31.1C139.76 28.425 141.01 27.625 143.085 27.625H144.01V23.95C142.085 23.95 140.635 24.875 139.76 26.3V24.15H136.26V38H139.76V31.1ZM154.925 38H158.525V19.775H152.5V23H154.925V38Z" fill="white"/>
<rect y="66" width="617" height="50" fill="white"/>
<path d="M24.6 94.44C26.08 94.44 27.24 93.3 27.24 91.84C27.24 90.36 26.08 89.22 24.6 89.22C23.16 89.22 22 90.36 22 91.84C22 93.3 23.16 94.44 24.6 94.44ZM40.3689 91.52C40.3689 95.7 43.5489 98.62 47.4689 98.62C50.3689 98.62 52.8689 97.18 53.9289 94.46H51.1889C50.4489 95.94 49.1289 96.64 47.4689 96.64C44.7089 96.64 42.7089 94.66 42.7089 91.52C42.7089 88.38 44.7089 86.42 47.4689 86.42C49.1289 86.42 50.4489 87.12 51.1889 88.6H53.9289C52.8689 85.88 50.3689 84.42 47.4689 84.42C43.5489 84.42 40.3689 87.36 40.3689 91.52ZM66.5777 87.48H64.2977V93.62C64.2977 95.64 63.1977 96.68 61.5177 96.68C59.8577 96.68 58.7577 95.64 58.7577 93.62V87.48H56.4977V93.96C56.4977 97.04 58.4577 98.66 61.0377 98.66C62.3377 98.66 63.5777 98.12 64.2977 97.18V98.5H66.5777V87.48ZM69.5859 98.5H71.8659V83.7H69.5859V98.5ZM75.2194 95.44C75.2194 97.68 76.4394 98.5 78.3994 98.5H80.1994V96.6H78.7994C77.8394 96.6 77.5194 96.26 77.5194 95.44V89.34H80.1994V87.48H77.5194V84.74H75.2194V87.48H73.9194V89.34H75.2194V95.44ZM92.2808 87.48H90.0008V93.62C90.0008 95.64 88.9008 96.68 87.2208 96.68C85.5608 96.68 84.4608 95.64 84.4608 93.62V87.48H82.2008V93.96C82.2008 97.04 84.1608 98.66 86.7408 98.66C88.0408 98.66 89.2808 98.12 90.0008 97.18V98.5H92.2808V87.48ZM97.5691 92.7C97.5691 90.36 98.6091 89.66 100.289 89.66H100.869V87.3C99.3091 87.3 98.2091 87.98 97.5691 89.08V87.48H95.2891V98.5H97.5691V92.7ZM102.205 92.94C102.205 96.34 104.505 98.68 107.365 98.68C109.205 98.68 110.525 97.8 111.225 96.86V98.5H113.525V87.48H111.225V89.08C110.545 88.18 109.265 87.3 107.405 87.3C104.505 87.3 102.205 89.54 102.205 92.94ZM111.225 92.98C111.225 95.36 109.605 96.7 107.885 96.7C106.185 96.7 104.545 95.32 104.545 92.94C104.545 90.56 106.185 89.28 107.885 89.28C109.605 89.28 111.225 90.62 111.225 92.98ZM116.52 98.5H118.8V83.7H116.52V98.5ZM134.668 84.58H126.988V98.5H134.668V96.64H129.268V92.38H134.068V90.52H129.268V86.44H134.668V84.58ZM136.717 92.94C136.717 96.34 139.017 98.68 141.917 98.68C143.717 98.68 145.037 97.84 145.737 96.84V98.5H148.037V83.7H145.737V89.02C144.897 87.98 143.377 87.3 141.937 87.3C139.017 87.3 136.717 89.54 136.717 92.94ZM145.737 92.98C145.737 95.36 144.117 96.7 142.397 96.7C140.697 96.7 139.057 95.32 139.057 92.94C139.057 90.56 140.697 89.28 142.397 89.28C144.117 89.28 145.737 90.62 145.737 92.98ZM161.011 87.48H158.731V93.62C158.731 95.64 157.631 96.68 155.951 96.68C154.291 96.68 153.191 95.64 153.191 93.62V87.48H150.931V93.96C150.931 97.04 152.891 98.66 155.471 98.66C156.771 98.66 158.011 98.12 158.731 97.18V98.5H161.011V87.48ZM163.26 92.98C163.26 96.44 165.5 98.68 168.66 98.68C171.36 98.68 173.12 97.18 173.74 95.02H171.28C170.86 96.16 170.02 96.76 168.66 96.76C166.82 96.76 165.6 95.4 165.6 92.98C165.6 90.58 166.82 89.22 168.66 89.22C170.02 89.22 170.9 89.9 171.28 90.96H173.74C173.12 88.64 171.36 87.3 168.66 87.3C165.5 87.3 163.26 89.54 163.26 92.98ZM175.252 92.94C175.252 96.34 177.552 98.68 180.412 98.68C182.252 98.68 183.572 97.8 184.272 96.86V98.5H186.572V87.48H184.272V89.08C183.592 88.18 182.312 87.3 180.452 87.3C177.552 87.3 175.252 89.54 175.252 92.94ZM184.272 92.98C184.272 95.36 182.652 96.7 180.932 96.7C179.232 96.7 177.592 95.32 177.592 92.94C177.592 90.56 179.232 89.28 180.932 89.28C182.652 89.28 184.272 90.62 184.272 92.98ZM189.926 95.44C189.926 97.68 191.146 98.5 193.106 98.5H194.906V96.6H193.506C192.546 96.6 192.226 96.26 192.226 95.44V89.34H194.906V87.48H192.226V84.74H189.926V87.48H188.626V89.34H189.926V95.44ZM197.008 98.5H199.288V87.48H197.008V98.5ZM198.168 86.02C198.968 86.02 199.608 85.38 199.608 84.56C199.608 83.74 198.968 83.1 198.168 83.1C197.348 83.1 196.708 83.74 196.708 84.56C196.708 85.38 197.348 86.02 198.168 86.02ZM212.781 92.98C212.781 89.52 210.301 87.3 207.161 87.3C204.021 87.3 201.541 89.52 201.541 92.98C201.541 96.44 203.921 98.68 207.061 98.68C210.221 98.68 212.781 96.44 212.781 92.98ZM203.861 92.98C203.861 90.48 205.401 89.28 207.121 89.28C208.821 89.28 210.441 90.48 210.441 92.98C210.441 95.48 208.761 96.7 207.061 96.7C205.341 96.7 203.861 95.48 203.861 92.98ZM222.855 98.5H225.115V92C225.115 88.92 223.175 87.3 220.595 87.3C219.275 87.3 218.055 87.84 217.315 88.74V87.48H215.035V98.5H217.315V92.34C217.315 90.32 218.415 89.28 220.095 89.28C221.755 89.28 222.855 90.32 222.855 92.34V98.5ZM234.479 98.5H236.779V83.92H232.619V86H234.479V98.5Z" fill="#212832"/>
<rect x="0.5" y="66.5" width="616" height="49" stroke="black" stroke-opacity="0.5"/>
<rect y="180" width="617" height="50" fill="white"/>
<path d="M24.6 208.44C26.08 208.44 27.24 207.3 27.24 205.84C27.24 204.36 26.08 203.22 24.6 203.22C23.16 203.22 22 204.36 22 205.84C22 207.3 23.16 208.44 24.6 208.44ZM41.1289 198.6V212.5H48.1089V210.66H43.4089V198.6H41.1289ZM49.2556 206.94C49.2556 210.34 51.5556 212.68 54.4156 212.68C56.2556 212.68 57.5756 211.8 58.2756 210.86V212.5H60.5756V201.48H58.2756V203.08C57.5956 202.18 56.3156 201.3 54.4556 201.3C51.5556 201.3 49.2556 203.54 49.2556 206.94ZM58.2756 206.98C58.2756 209.36 56.6556 210.7 54.9356 210.7C53.2356 210.7 51.5956 209.32 51.5956 206.94C51.5956 204.56 53.2356 203.28 54.9356 203.28C56.6556 203.28 58.2756 204.62 58.2756 206.98ZM71.3903 212.5H73.6503V206C73.6503 202.92 71.7103 201.3 69.1303 201.3C67.8103 201.3 66.5903 201.84 65.8503 202.74V201.48H63.5703V212.5H65.8503V206.34C65.8503 204.32 66.9503 203.28 68.6303 203.28C70.2903 203.28 71.3903 204.32 71.3903 206.34V212.5ZM75.7986 206.94C75.7986 210.34 78.0986 212.68 80.9986 212.68C82.7986 212.68 84.1186 211.78 84.8186 210.84V212.68C84.8186 214.88 83.4986 215.96 81.7386 215.96C80.1586 215.96 78.9386 215.18 78.5986 214.04H76.3386C76.6186 216.48 78.7986 217.94 81.7386 217.94C85.1786 217.94 87.1186 215.68 87.1186 212.68V201.48H84.8186V203.08C84.1386 202.14 82.7986 201.3 80.9986 201.3C78.0986 201.3 75.7986 203.54 75.7986 206.94ZM84.8186 206.98C84.8186 209.36 83.1986 210.7 81.4786 210.7C79.7786 210.7 78.1386 209.32 78.1386 206.94C78.1386 204.56 79.7786 203.28 81.4786 203.28C83.1986 203.28 84.8186 204.62 84.8186 206.98ZM100.093 201.48H97.8133V207.62C97.8133 209.64 96.7133 210.68 95.0333 210.68C93.3733 210.68 92.2733 209.64 92.2733 207.62V201.48H90.0133V207.96C90.0133 211.04 91.9733 212.66 94.5533 212.66C95.8533 212.66 97.0933 212.12 97.8133 211.18V212.5H100.093V201.48ZM102.342 206.94C102.342 210.34 104.642 212.68 107.502 212.68C109.342 212.68 110.662 211.8 111.362 210.86V212.5H113.662V201.48H111.362V203.08C110.682 202.18 109.402 201.3 107.542 201.3C104.642 201.3 102.342 203.54 102.342 206.94ZM111.362 206.98C111.362 209.36 109.742 210.7 108.022 210.7C106.322 210.7 104.682 209.32 104.682 206.94C104.682 204.56 106.322 203.28 108.022 203.28C109.742 203.28 111.362 204.62 111.362 206.98ZM115.896 206.94C115.896 210.34 118.196 212.68 121.096 212.68C122.896 212.68 124.216 211.78 124.916 210.84V212.68C124.916 214.88 123.596 215.96 121.836 215.96C120.256 215.96 119.036 215.18 118.696 214.04H116.436C116.716 216.48 118.896 217.94 121.836 217.94C125.276 217.94 127.216 215.68 127.216 212.68V201.48H124.916V203.08C124.236 202.14 122.896 201.3 121.096 201.3C118.196 201.3 115.896 203.54 115.896 206.94ZM124.916 206.98C124.916 209.36 123.296 210.7 121.576 210.7C119.876 210.7 118.236 209.32 118.236 206.94C118.236 204.56 119.876 203.28 121.576 203.28C123.296 203.28 124.916 204.62 124.916 206.98ZM134.851 203.22C136.551 203.22 137.891 204.3 137.931 206H131.831C132.071 204.26 133.311 203.22 134.851 203.22ZM140.011 209.22H137.551C137.131 210.08 136.351 210.76 134.951 210.76C133.271 210.76 131.971 209.66 131.811 207.84H140.231C140.291 207.46 140.311 207.1 140.311 206.72C140.311 203.48 138.091 201.3 134.951 201.3C131.691 201.3 129.451 203.52 129.451 206.98C129.451 210.44 131.791 212.68 134.951 212.68C137.651 212.68 139.391 211.14 140.011 209.22ZM149.01 212.5H151.31V197.92H147.15V200H149.01V212.5Z" fill="#212832"/>
<rect x="0.5" y="180.5" width="616" height="49" stroke="black" stroke-opacity="0.5"/>
<rect y="123" width="617" height="50" fill="white"/>
<path d="M24.6 151.44C26.08 151.44 27.24 150.3 27.24 148.84C27.24 147.36 26.08 146.22 24.6 146.22C23.16 146.22 22 147.36 22 148.84C22 150.3 23.16 151.44 24.6 151.44ZM40.3689 148.52C40.3689 152.7 43.5489 155.62 47.4689 155.62C50.3689 155.62 52.8689 154.18 53.9289 151.46H51.1889C50.4489 152.94 49.1289 153.64 47.4689 153.64C44.7089 153.64 42.7089 151.66 42.7089 148.52C42.7089 145.38 44.7089 143.42 47.4689 143.42C49.1289 143.42 50.4489 144.12 51.1889 145.6H53.9289C52.8689 142.88 50.3689 141.42 47.4689 141.42C43.5489 141.42 40.3689 144.36 40.3689 148.52ZM67.0977 149.98C67.0977 146.52 64.6177 144.3 61.4777 144.3C58.3377 144.3 55.8577 146.52 55.8577 149.98C55.8577 153.44 58.2377 155.68 61.3777 155.68C64.5377 155.68 67.0977 153.44 67.0977 149.98ZM58.1777 149.98C58.1777 147.48 59.7177 146.28 61.4377 146.28C63.1377 146.28 64.7577 147.48 64.7577 149.98C64.7577 152.48 63.0777 153.7 61.3777 153.7C59.6577 153.7 58.1777 152.48 58.1777 149.98ZM84.9716 155.5H87.2316V149C87.2316 145.92 85.2716 144.3 82.6916 144.3C81.0916 144.3 79.5316 145.14 78.8516 146.48C78.0916 145.04 76.6316 144.3 74.8916 144.3C73.5716 144.3 72.3716 144.84 71.6316 145.74V144.48H69.3516V155.5H71.6316V149.34C71.6316 147.32 72.7316 146.28 74.4116 146.28C76.0716 146.28 77.1716 147.32 77.1716 149.34V155.5H79.4316V149.34C79.4316 147.32 80.5316 146.28 82.2116 146.28C83.8716 146.28 84.9716 147.32 84.9716 149.34V155.5ZM105.753 155.5H108.013V149C108.013 145.92 106.053 144.3 103.473 144.3C101.873 144.3 100.313 145.14 99.6328 146.48C98.8728 145.04 97.4128 144.3 95.6728 144.3C94.3528 144.3 93.1528 144.84 92.4128 145.74V144.48H90.1328V155.5H92.4128V149.34C92.4128 147.32 93.5128 146.28 95.1928 146.28C96.8528 146.28 97.9528 147.32 97.9528 149.34V155.5H100.213V149.34C100.213 147.32 101.313 146.28 102.993 146.28C104.653 146.28 105.753 147.32 105.753 149.34V155.5ZM120.894 144.48H118.614V150.62C118.614 152.64 117.514 153.68 115.834 153.68C114.174 153.68 113.074 152.64 113.074 150.62V144.48H110.814V150.96C110.814 154.04 112.774 155.66 115.354 155.66C116.654 155.66 117.894 155.12 118.614 154.18V155.5H120.894V144.48ZM131.722 155.5H133.982V149C133.982 145.92 132.042 144.3 129.462 144.3C128.142 144.3 126.922 144.84 126.182 145.74V144.48H123.902V155.5H126.182V149.34C126.182 147.32 127.282 146.28 128.962 146.28C130.622 146.28 131.722 147.32 131.722 149.34V155.5ZM136.891 155.5H139.171V144.48H136.891V155.5ZM138.051 143.02C138.851 143.02 139.491 142.38 139.491 141.56C139.491 140.74 138.851 140.1 138.051 140.1C137.231 140.1 136.591 140.74 136.591 141.56C136.591 142.38 137.231 143.02 138.051 143.02ZM141.404 149.98C141.404 153.44 143.644 155.68 146.804 155.68C149.504 155.68 151.264 154.18 151.884 152.02H149.424C149.004 153.16 148.164 153.76 146.804 153.76C144.964 153.76 143.744 152.4 143.744 149.98C143.744 147.58 144.964 146.22 146.804 146.22C148.164 146.22 149.044 146.9 149.424 147.96H151.884C151.264 145.64 149.504 144.3 146.804 144.3C143.644 144.3 141.404 146.54 141.404 149.98ZM153.396 149.94C153.396 153.34 155.696 155.68 158.556 155.68C160.396 155.68 161.716 154.8 162.416 153.86V155.5H164.716V144.48H162.416V146.08C161.736 145.18 160.456 144.3 158.596 144.3C155.696 144.3 153.396 146.54 153.396 149.94ZM162.416 149.98C162.416 152.36 160.796 153.7 159.076 153.7C157.376 153.7 155.736 152.32 155.736 149.94C155.736 147.56 157.376 146.28 159.076 146.28C160.796 146.28 162.416 147.62 162.416 149.98ZM168.071 152.44C168.071 154.68 169.291 155.5 171.251 155.5H173.051V153.6H171.651C170.691 153.6 170.371 153.26 170.371 152.44V146.34H173.051V144.48H170.371V141.74H168.071V144.48H166.771V146.34H168.071V152.44ZM175.152 155.5H177.432V144.48H175.152V155.5ZM176.312 143.02C177.112 143.02 177.752 142.38 177.752 141.56C177.752 140.74 177.112 140.1 176.312 140.1C175.492 140.1 174.852 140.74 174.852 141.56C174.852 142.38 175.492 143.02 176.312 143.02ZM179.126 144.48L183.306 155.5H186.026L190.226 144.48H187.806L184.686 153.46L181.566 144.48H179.126ZM196.589 146.22C198.289 146.22 199.629 147.3 199.669 149H193.569C193.809 147.26 195.049 146.22 196.589 146.22ZM201.749 152.22H199.289C198.869 153.08 198.089 153.76 196.689 153.76C195.009 153.76 193.709 152.66 193.549 150.84H201.969C202.029 150.46 202.049 150.1 202.049 149.72C202.049 146.48 199.829 144.3 196.689 144.3C193.429 144.3 191.189 146.52 191.189 149.98C191.189 153.44 193.529 155.68 196.689 155.68C199.389 155.68 201.129 154.14 201.749 152.22ZM217.168 141.58H209.488V155.5H217.168V153.64H211.768V149.38H216.568V147.52H211.768V143.44H217.168V141.58ZM227.797 155.5H230.057V149C230.057 145.92 228.117 144.3 225.537 144.3C224.217 144.3 222.997 144.84 222.257 145.74V144.48H219.977V155.5H222.257V149.34C222.257 147.32 223.357 146.28 225.037 146.28C226.697 146.28 227.797 147.32 227.797 149.34V155.5ZM232.205 149.94C232.205 153.34 234.505 155.68 237.405 155.68C239.205 155.68 240.525 154.78 241.225 153.84V155.68C241.225 157.88 239.905 158.96 238.145 158.96C236.565 158.96 235.345 158.18 235.005 157.04H232.745C233.025 159.48 235.205 160.94 238.145 160.94C241.585 160.94 243.525 158.68 243.525 155.68V144.48H241.225V146.08C240.545 145.14 239.205 144.3 237.405 144.3C234.505 144.3 232.205 146.54 232.205 149.94ZM241.225 149.98C241.225 152.36 239.605 153.7 237.885 153.7C236.185 153.7 234.545 152.32 234.545 149.94C234.545 147.56 236.185 146.28 237.885 146.28C239.605 146.28 241.225 147.62 241.225 149.98ZM246.52 155.5H248.8V140.7H246.52V155.5ZM251.793 155.5H254.073V144.48H251.793V155.5ZM252.953 143.02C253.753 143.02 254.393 142.38 254.393 141.56C254.393 140.74 253.753 140.1 252.953 140.1C252.133 140.1 251.493 140.74 251.493 141.56C251.493 142.38 252.133 143.02 252.953 143.02ZM265.286 152.42C265.166 148.44 258.946 149.68 258.946 147.46C258.946 146.72 259.586 146.22 260.806 146.22C262.046 146.22 262.786 146.88 262.866 147.84H265.146C265.026 145.64 263.386 144.3 260.886 144.3C258.286 144.3 256.646 145.72 256.646 147.48C256.646 151.52 263.046 150.28 263.046 152.44C263.046 153.2 262.346 153.76 261.026 153.76C259.766 153.76 258.906 153.02 258.826 152.12H256.466C256.566 154.12 258.426 155.68 261.066 155.68C263.666 155.68 265.286 154.28 265.286 152.42ZM267.75 155.5H270.03V149.34C270.03 147.32 271.13 146.28 272.81 146.28C274.47 146.28 275.57 147.32 275.57 149.34V155.5H277.83V149C277.83 145.92 275.91 144.3 273.45 144.3C272.03 144.3 270.79 144.84 270.03 145.76V140.7H267.75V155.5Z" fill="#212832"/>
<rect x="0.5" y="123.5" width="616" height="49" stroke="black" stroke-opacity="0.5"/>
<rect y="237" width="617" height="50" fill="white"/>
<path d="M24.6 265.44C26.08 265.44 27.24 264.3 27.24 262.84C27.24 261.36 26.08 260.22 24.6 260.22C23.16 260.22 22 261.36 22 262.84C22 264.3 23.16 265.44 24.6 265.44ZM45.6689 255.6H41.1289V269.5H45.6689C50.1289 269.5 53.0489 266.88 53.0489 262.6C53.0489 258.3 50.1289 255.6 45.6689 255.6ZM43.4089 267.64V257.46H45.6689C48.9489 257.46 50.7089 259.42 50.7089 262.6C50.7089 265.76 48.9489 267.64 45.6689 267.64H43.4089ZM55.3086 269.5H57.5886V258.48H55.3086V269.5ZM56.4686 257.02C57.2686 257.02 57.9086 256.38 57.9086 255.56C57.9086 254.74 57.2686 254.1 56.4686 254.1C55.6486 254.1 55.0086 254.74 55.0086 255.56C55.0086 256.38 55.6486 257.02 56.4686 257.02ZM68.802 266.42C68.682 262.44 62.462 263.68 62.462 261.46C62.462 260.72 63.102 260.22 64.322 260.22C65.562 260.22 66.302 260.88 66.382 261.84H68.662C68.542 259.64 66.902 258.3 64.402 258.3C61.802 258.3 60.162 259.72 60.162 261.48C60.162 265.52 66.562 264.28 66.562 266.44C66.562 267.2 65.862 267.76 64.542 267.76C63.282 267.76 62.422 267.02 62.342 266.12H59.982C60.082 268.12 61.942 269.68 64.582 269.68C67.182 269.68 68.802 268.28 68.802 266.42ZM70.5056 263.98C70.5056 267.44 72.7456 269.68 75.9056 269.68C78.6056 269.68 80.3656 268.18 80.9856 266.02H78.5256C78.1056 267.16 77.2656 267.76 75.9056 267.76C74.0656 267.76 72.8456 266.4 72.8456 263.98C72.8456 261.58 74.0656 260.22 75.9056 260.22C77.2656 260.22 78.1456 260.9 78.5256 261.96H80.9856C80.3656 259.64 78.6056 258.3 75.9056 258.3C72.7456 258.3 70.5056 260.54 70.5056 263.98ZM85.5378 263.7C85.5378 261.36 86.5778 260.66 88.2578 260.66H88.8378V258.3C87.2778 258.3 86.1778 258.98 85.5378 260.08V258.48H83.2578V269.5H85.5378V263.7ZM95.5736 260.22C97.2736 260.22 98.6136 261.3 98.6536 263H92.5536C92.7936 261.26 94.0336 260.22 95.5736 260.22ZM100.734 266.22H98.2736C97.8536 267.08 97.0736 267.76 95.6736 267.76C93.9936 267.76 92.6936 266.66 92.5336 264.84H100.954C101.014 264.46 101.034 264.1 101.034 263.72C101.034 260.48 98.8136 258.3 95.6736 258.3C92.4136 258.3 90.1736 260.52 90.1736 263.98C90.1736 267.44 92.5136 269.68 95.6736 269.68C98.3736 269.68 100.114 268.14 100.734 266.22ZM103.637 266.44C103.637 268.68 104.857 269.5 106.817 269.5H108.617V267.6H107.217C106.257 267.6 105.937 267.26 105.937 266.44V260.34H108.617V258.48H105.937V255.74H103.637V258.48H102.337V260.34H103.637V266.44ZM115.359 260.22C117.059 260.22 118.399 261.3 118.439 263H112.339C112.579 261.26 113.819 260.22 115.359 260.22ZM120.519 266.22H118.059C117.639 267.08 116.859 267.76 115.459 267.76C113.779 267.76 112.479 266.66 112.319 264.84H120.739C120.799 264.46 120.819 264.1 120.819 263.72C120.819 260.48 118.599 258.3 115.459 258.3C112.199 258.3 109.959 260.52 109.959 263.98C109.959 267.44 112.299 269.68 115.459 269.68C118.159 269.68 119.899 268.14 120.519 266.22ZM128.258 269.5H130.538V259.98L134.798 269.5H136.378L140.618 259.98V269.5H142.898V255.6H140.458L135.598 266.5L130.718 255.6H128.258V269.5ZM145.135 263.94C145.135 267.34 147.435 269.68 150.295 269.68C152.135 269.68 153.455 268.8 154.155 267.86V269.5H156.455V258.48H154.155V260.08C153.475 259.18 152.195 258.3 150.335 258.3C147.435 258.3 145.135 260.54 145.135 263.94ZM154.155 263.98C154.155 266.36 152.535 267.7 150.815 267.7C149.115 267.7 147.475 266.32 147.475 263.94C147.475 261.56 149.115 260.28 150.815 260.28C152.535 260.28 154.155 261.62 154.155 263.98ZM159.809 266.44C159.809 268.68 161.029 269.5 162.989 269.5H164.789V267.6H163.389C162.429 267.6 162.109 267.26 162.109 266.44V260.34H164.789V258.48H162.109V255.74H159.809V258.48H158.509V260.34H159.809V266.44ZM166.891 269.5H169.171V263.34C169.171 261.32 170.271 260.28 171.951 260.28C173.611 260.28 174.711 261.32 174.711 263.34V269.5H176.971V263C176.971 259.92 175.051 258.3 172.591 258.3C171.171 258.3 169.931 258.84 169.171 259.76V254.7H166.891V269.5ZM188.099 266.42C187.979 262.44 181.759 263.68 181.759 261.46C181.759 260.72 182.399 260.22 183.619 260.22C184.859 260.22 185.599 260.88 185.679 261.84H187.959C187.839 259.64 186.199 258.3 183.699 258.3C181.099 258.3 179.459 259.72 179.459 261.48C179.459 265.52 185.859 264.28 185.859 266.44C185.859 267.2 185.159 267.76 183.839 267.76C182.579 267.76 181.719 267.02 181.639 266.12H179.279C179.379 268.12 181.239 269.68 183.879 269.68C186.479 269.68 188.099 268.28 188.099 266.42Z" fill="#212832"/>
<rect x="0.5" y="237.5" width="616" height="49" stroke="black" stroke-opacity="0.5"/>
<rect y="408" width="617" height="50" fill="white"/>
<path d="M24.6 436.44C26.08 436.44 27.24 435.3 27.24 433.84C27.24 432.36 26.08 431.22 24.6 431.22C23.16 431.22 22 432.36 22 433.84C22 435.3 23.16 436.44 24.6 436.44ZM40.3689 433.52C40.3689 437.7 43.5489 440.62 47.4689 440.62C50.3689 440.62 52.8689 439.18 53.9289 436.46H51.1889C50.4489 437.94 49.1289 438.64 47.4689 438.64C44.7089 438.64 42.7089 436.66 42.7089 433.52C42.7089 430.38 44.7089 428.42 47.4689 428.42C49.1289 428.42 50.4489 429.12 51.1889 430.6H53.9289C52.8689 427.88 50.3689 426.42 47.4689 426.42C43.5489 426.42 40.3689 429.36 40.3689 433.52ZM67.0977 434.98C67.0977 431.52 64.6177 429.3 61.4777 429.3C58.3377 429.3 55.8577 431.52 55.8577 434.98C55.8577 438.44 58.2377 440.68 61.3777 440.68C64.5377 440.68 67.0977 438.44 67.0977 434.98ZM58.1777 434.98C58.1777 432.48 59.7177 431.28 61.4377 431.28C63.1377 431.28 64.7577 432.48 64.7577 434.98C64.7577 437.48 63.0777 438.7 61.3777 438.7C59.6577 438.7 58.1777 437.48 58.1777 434.98ZM84.9716 440.5H87.2316V434C87.2316 430.92 85.2716 429.3 82.6916 429.3C81.0916 429.3 79.5316 430.14 78.8516 431.48C78.0916 430.04 76.6316 429.3 74.8916 429.3C73.5716 429.3 72.3716 429.84 71.6316 430.74V429.48H69.3516V440.5H71.6316V434.34C71.6316 432.32 72.7316 431.28 74.4116 431.28C76.0716 431.28 77.1716 432.32 77.1716 434.34V440.5H79.4316V434.34C79.4316 432.32 80.5316 431.28 82.2116 431.28C83.8716 431.28 84.9716 432.32 84.9716 434.34V440.5ZM92.4128 431.1V429.48H90.1328V445.74H92.4128V438.9C93.1328 439.76 94.4328 440.68 96.2528 440.68C99.1528 440.68 101.433 438.34 101.433 434.94C101.433 431.54 99.1528 429.3 96.2528 429.3C94.4528 429.3 93.1128 430.18 92.4128 431.1ZM99.1128 434.94C99.1128 437.32 97.4728 438.7 95.7528 438.7C94.0528 438.7 92.4128 437.36 92.4128 434.98C92.4128 432.62 94.0528 431.28 95.7528 431.28C97.4728 431.28 99.1128 432.56 99.1128 434.94ZM113.668 429.48H111.388V435.62C111.388 437.64 110.288 438.68 108.608 438.68C106.948 438.68 105.848 437.64 105.848 435.62V429.48H103.588V435.96C103.588 439.04 105.548 440.66 108.128 440.66C109.428 440.66 110.668 440.12 111.388 439.18V440.5H113.668V429.48ZM117.036 437.44C117.036 439.68 118.256 440.5 120.216 440.5H122.016V438.6H120.616C119.656 438.6 119.336 438.26 119.336 437.44V431.34H122.016V429.48H119.336V426.74H117.036V429.48H115.736V431.34H117.036V437.44ZM123.357 434.94C123.357 438.34 125.657 440.68 128.517 440.68C130.357 440.68 131.677 439.8 132.377 438.86V440.5H134.677V429.48H132.377V431.08C131.697 430.18 130.417 429.3 128.557 429.3C125.657 429.3 123.357 431.54 123.357 434.94ZM132.377 434.98C132.377 437.36 130.757 438.7 129.037 438.7C127.337 438.7 125.697 437.32 125.697 434.94C125.697 432.56 127.337 431.28 129.037 431.28C130.757 431.28 132.377 432.62 132.377 434.98ZM138.032 437.44C138.032 439.68 139.252 440.5 141.212 440.5H143.012V438.6H141.612C140.652 438.6 140.332 438.26 140.332 437.44V431.34H143.012V429.48H140.332V426.74H138.032V429.48H136.732V431.34H138.032V437.44ZM145.113 440.5H147.393V429.48H145.113V440.5ZM146.273 428.02C147.073 428.02 147.713 427.38 147.713 426.56C147.713 425.74 147.073 425.1 146.273 425.1C145.453 425.1 144.813 425.74 144.813 426.56C144.813 427.38 145.453 428.02 146.273 428.02ZM160.887 434.98C160.887 431.52 158.407 429.3 155.267 429.3C152.127 429.3 149.647 431.52 149.647 434.98C149.647 438.44 152.027 440.68 155.167 440.68C158.327 440.68 160.887 438.44 160.887 434.98ZM151.967 434.98C151.967 432.48 153.507 431.28 155.227 431.28C156.927 431.28 158.547 432.48 158.547 434.98C158.547 437.48 156.867 438.7 155.167 438.7C153.447 438.7 151.967 437.48 151.967 434.98ZM170.961 440.5H173.221V434C173.221 430.92 171.281 429.3 168.701 429.3C167.381 429.3 166.161 429.84 165.421 430.74V429.48H163.141V440.5H165.421V434.34C165.421 432.32 166.521 431.28 168.201 431.28C169.861 431.28 170.961 432.32 170.961 434.34V440.5ZM175.369 434.94C175.369 438.34 177.669 440.68 180.529 440.68C182.369 440.68 183.689 439.8 184.389 438.86V440.5H186.689V429.48H184.389V431.08C183.709 430.18 182.429 429.3 180.569 429.3C177.669 429.3 175.369 431.54 175.369 434.94ZM184.389 434.98C184.389 437.36 182.769 438.7 181.049 438.7C179.349 438.7 177.709 437.32 177.709 434.94C177.709 432.56 179.349 431.28 181.049 431.28C182.769 431.28 184.389 432.62 184.389 434.98ZM189.684 440.5H191.964V425.7H189.684V440.5ZM199.432 428.46H203.152V440.5H205.432V428.46H209.132V426.6H199.432V428.46ZM211.441 440.5H213.721V434.34C213.721 432.32 214.821 431.28 216.501 431.28C218.161 431.28 219.261 432.32 219.261 434.34V440.5H221.521V434C221.521 430.92 219.601 429.3 217.141 429.3C215.721 429.3 214.481 429.84 213.721 430.76V425.7H211.441V440.5ZM224.43 440.5H226.71V429.48H224.43V440.5ZM225.59 428.02C226.39 428.02 227.03 427.38 227.03 426.56C227.03 425.74 226.39 425.1 225.59 425.1C224.77 425.1 224.13 425.74 224.13 426.56C224.13 427.38 224.77 428.02 225.59 428.02ZM237.523 440.5H239.783V434C239.783 430.92 237.843 429.3 235.263 429.3C233.943 429.3 232.723 429.84 231.983 430.74V429.48H229.703V440.5H231.983V434.34C231.983 432.32 233.083 431.28 234.763 431.28C236.423 431.28 237.523 432.32 237.523 434.34V440.5ZM242.691 440.5H244.971V435.76L249.051 440.5H252.131L247.051 435L252.131 429.48H248.971L244.971 434.3V425.7H242.691V440.5ZM253.766 440.5H256.046V429.48H253.766V440.5ZM254.926 428.02C255.726 428.02 256.366 427.38 256.366 426.56C256.366 425.74 255.726 425.1 254.926 425.1C254.106 425.1 253.466 425.74 253.466 426.56C253.466 427.38 254.106 428.02 254.926 428.02ZM266.859 440.5H269.119V434C269.119 430.92 267.179 429.3 264.599 429.3C263.279 429.3 262.059 429.84 261.319 430.74V429.48H259.039V440.5H261.319V434.34C261.319 432.32 262.419 431.28 264.099 431.28C265.759 431.28 266.859 432.32 266.859 434.34V440.5ZM271.267 434.94C271.267 438.34 273.567 440.68 276.467 440.68C278.267 440.68 279.587 439.78 280.287 438.84V440.68C280.287 442.88 278.967 443.96 277.207 443.96C275.627 443.96 274.407 443.18 274.067 442.04H271.807C272.087 444.48 274.267 445.94 277.207 445.94C280.647 445.94 282.587 443.68 282.587 440.68V429.48H280.287V431.08C279.607 430.14 278.267 429.3 276.467 429.3C273.567 429.3 271.267 431.54 271.267 434.94ZM280.287 434.98C280.287 437.36 278.667 438.7 276.947 438.7C275.247 438.7 273.607 437.32 273.607 434.94C273.607 432.56 275.247 431.28 276.947 431.28C278.667 431.28 280.287 432.62 280.287 434.98ZM290.017 434.94C290.017 438.34 292.317 440.68 295.177 440.68C297.017 440.68 298.337 439.8 299.037 438.86V440.5H301.337V429.48H299.037V431.08C298.357 430.18 297.077 429.3 295.217 429.3C292.317 429.3 290.017 431.54 290.017 434.94ZM299.037 434.98C299.037 437.36 297.417 438.7 295.697 438.7C293.997 438.7 292.357 437.32 292.357 434.94C292.357 432.56 293.997 431.28 295.697 431.28C297.417 431.28 299.037 432.62 299.037 434.98ZM312.152 440.5H314.412V434C314.412 430.92 312.472 429.3 309.892 429.3C308.572 429.3 307.352 429.84 306.612 430.74V429.48H304.332V440.5H306.612V434.34C306.612 432.32 307.712 431.28 309.392 431.28C311.052 431.28 312.152 432.32 312.152 434.34V440.5ZM316.56 434.94C316.56 438.34 318.86 440.68 321.76 440.68C323.56 440.68 324.88 439.84 325.58 438.84V440.5H327.88V425.7H325.58V431.02C324.74 429.98 323.22 429.3 321.78 429.3C318.86 429.3 316.56 431.54 316.56 434.94ZM325.58 434.98C325.58 437.36 323.96 438.7 322.24 438.7C320.54 438.7 318.9 437.32 318.9 434.94C318.9 432.56 320.54 431.28 322.24 431.28C323.96 431.28 325.58 432.62 325.58 434.98ZM338.35 433V428.46H340.87C342.65 428.46 343.45 429.3 343.45 430.74C343.45 432.14 342.65 433 340.87 433H338.35ZM345.79 430.74C345.79 428.48 344.17 426.6 340.87 426.6H336.07V440.5H338.35V434.86H340.87C344.49 434.86 345.79 432.72 345.79 430.74ZM350.245 434.7C350.245 432.36 351.285 431.66 352.965 431.66H353.545V429.3C351.985 429.3 350.885 429.98 350.245 431.08V429.48H347.965V440.5H350.245V434.7ZM366.141 434.98C366.141 431.52 363.661 429.3 360.521 429.3C357.381 429.3 354.901 431.52 354.901 434.98C354.901 438.44 357.281 440.68 360.421 440.68C363.581 440.68 366.141 438.44 366.141 434.98ZM357.221 434.98C357.221 432.48 358.761 431.28 360.481 431.28C362.181 431.28 363.801 432.48 363.801 434.98C363.801 437.48 362.121 438.7 360.421 438.7C358.701 438.7 357.221 437.48 357.221 434.98ZM367.635 434.94C367.635 438.34 369.935 440.68 372.835 440.68C374.635 440.68 375.955 439.78 376.655 438.84V440.68C376.655 442.88 375.335 443.96 373.575 443.96C371.995 443.96 370.775 443.18 370.435 442.04H368.175C368.455 444.48 370.635 445.94 373.575 445.94C377.015 445.94 378.955 443.68 378.955 440.68V429.48H376.655V431.08C375.975 430.14 374.635 429.3 372.835 429.3C369.935 429.3 367.635 431.54 367.635 434.94ZM376.655 434.98C376.655 437.36 375.035 438.7 373.315 438.7C371.615 438.7 369.975 437.32 369.975 434.94C369.975 432.56 371.615 431.28 373.315 431.28C375.035 431.28 376.655 432.62 376.655 434.98ZM384.229 434.7C384.229 432.36 385.269 431.66 386.949 431.66H387.529V429.3C385.969 429.3 384.869 429.98 384.229 431.08V429.48H381.949V440.5H384.229V434.7ZM388.865 434.94C388.865 438.34 391.165 440.68 394.025 440.68C395.865 440.68 397.185 439.8 397.885 438.86V440.5H400.185V429.48H397.885V431.08C397.205 430.18 395.925 429.3 394.065 429.3C391.165 429.3 388.865 431.54 388.865 434.94ZM397.885 434.98C397.885 437.36 396.265 438.7 394.545 438.7C392.845 438.7 391.205 437.32 391.205 434.94C391.205 432.56 392.845 431.28 394.545 431.28C396.265 431.28 397.885 432.62 397.885 434.98ZM418.8 440.5H421.06V434C421.06 430.92 419.1 429.3 416.52 429.3C414.92 429.3 413.36 430.14 412.68 431.48C411.92 430.04 410.46 429.3 408.72 429.3C407.4 429.3 406.2 429.84 405.46 430.74V429.48H403.18V440.5H405.46V434.34C405.46 432.32 406.56 431.28 408.24 431.28C409.9 431.28 411 432.32 411 434.34V440.5H413.26V434.34C413.26 432.32 414.36 431.28 416.04 431.28C417.7 431.28 418.8 432.32 418.8 434.34V440.5ZM439.581 440.5H441.841V434C441.841 430.92 439.881 429.3 437.301 429.3C435.701 429.3 434.141 430.14 433.461 431.48C432.701 430.04 431.241 429.3 429.501 429.3C428.181 429.3 426.981 429.84 426.241 430.74V429.48H423.961V440.5H426.241V434.34C426.241 432.32 427.341 431.28 429.021 431.28C430.681 431.28 431.781 432.32 431.781 434.34V440.5H434.041V434.34C434.041 432.32 435.141 431.28 436.821 431.28C438.481 431.28 439.581 432.32 439.581 434.34V440.5ZM444.742 440.5H447.022V429.48H444.742V440.5ZM445.902 428.02C446.702 428.02 447.342 427.38 447.342 426.56C447.342 425.74 446.702 425.1 445.902 425.1C445.082 425.1 444.442 425.74 444.442 426.56C444.442 427.38 445.082 428.02 445.902 428.02ZM457.836 440.5H460.096V434C460.096 430.92 458.156 429.3 455.576 429.3C454.256 429.3 453.036 429.84 452.296 430.74V429.48H450.016V440.5H452.296V434.34C452.296 432.32 453.396 431.28 455.076 431.28C456.736 431.28 457.836 432.32 457.836 434.34V440.5ZM462.244 434.94C462.244 438.34 464.544 440.68 467.444 440.68C469.244 440.68 470.564 439.78 471.264 438.84V440.68C471.264 442.88 469.944 443.96 468.184 443.96C466.604 443.96 465.384 443.18 465.044 442.04H462.784C463.064 444.48 465.244 445.94 468.184 445.94C471.624 445.94 473.564 443.68 473.564 440.68V429.48H471.264V431.08C470.584 430.14 469.244 429.3 467.444 429.3C464.544 429.3 462.244 431.54 462.244 434.94ZM471.264 434.98C471.264 437.36 469.644 438.7 467.924 438.7C466.224 438.7 464.584 437.32 464.584 434.94C464.584 432.56 466.224 431.28 467.924 431.28C469.644 431.28 471.264 432.62 471.264 434.98ZM481.754 440.5H484.034V429.48H481.754V440.5ZM482.914 428.02C483.714 428.02 484.354 427.38 484.354 426.56C484.354 425.74 483.714 425.1 482.914 425.1C482.094 425.1 481.454 425.74 481.454 426.56C481.454 427.38 482.094 428.02 482.914 428.02ZM494.847 440.5H497.107V434C497.107 430.92 495.167 429.3 492.587 429.3C491.267 429.3 490.047 429.84 489.307 430.74V429.48H487.027V440.5H489.307V434.34C489.307 432.32 490.407 431.28 492.087 431.28C493.747 431.28 494.847 432.32 494.847 434.34V440.5ZM504.451 433.52C504.451 437.7 507.631 440.62 511.551 440.62C514.451 440.62 516.951 439.18 518.011 436.46H515.271C514.531 437.94 513.211 438.64 511.551 438.64C508.791 438.64 506.791 436.66 506.791 433.52C506.791 430.38 508.791 428.42 511.551 428.42C513.211 428.42 514.531 429.12 515.271 430.6H518.011C516.951 427.88 514.451 426.42 511.551 426.42C507.631 426.42 504.451 429.36 504.451 433.52Z" fill="#212832"/>
<rect x="0.5" y="408.5" width="616" height="49" stroke="black" stroke-opacity="0.5"/>
<rect y="294" width="617" height="50" fill="white"/>
<path d="M24.6 322.44C26.08 322.44 27.24 321.3 27.24 319.84C27.24 318.36 26.08 317.22 24.6 317.22C23.16 317.22 22 318.36 22 319.84C22 321.3 23.16 322.44 24.6 322.44ZM48.8089 312.58H41.1289V326.5H48.8089V324.64H43.4089V320.38H48.2089V318.52H43.4089V314.44H48.8089V312.58ZM59.4372 326.5H61.6972V320C61.6972 316.92 59.7572 315.3 57.1772 315.3C55.8572 315.3 54.6372 315.84 53.8972 316.74V315.48H51.6172V326.5H53.8972V320.34C53.8972 318.32 54.9972 317.28 56.6772 317.28C58.3372 317.28 59.4372 318.32 59.4372 320.34V326.5ZM63.3055 315.48L67.4855 326.5H70.2055L74.4055 315.48H71.9855L68.8655 324.46L65.7455 315.48H63.3055ZM76.1289 326.5H78.4089V315.48H76.1289V326.5ZM77.2889 314.02C78.0889 314.02 78.7289 313.38 78.7289 312.56C78.7289 311.74 78.0889 311.1 77.2889 311.1C76.4689 311.1 75.8289 311.74 75.8289 312.56C75.8289 313.38 76.4689 314.02 77.2889 314.02ZM83.6823 320.7C83.6823 318.36 84.7223 317.66 86.4023 317.66H86.9823V315.3C85.4223 315.3 84.3223 315.98 83.6823 317.08V315.48H81.4023V326.5H83.6823V320.7ZM99.5781 320.98C99.5781 317.52 97.0981 315.3 93.9581 315.3C90.8181 315.3 88.3381 317.52 88.3381 320.98C88.3381 324.44 90.7181 326.68 93.8581 326.68C97.0181 326.68 99.5781 324.44 99.5781 320.98ZM90.6581 320.98C90.6581 318.48 92.1981 317.28 93.9181 317.28C95.6181 317.28 97.2381 318.48 97.2381 320.98C97.2381 323.48 95.5581 324.7 93.8581 324.7C92.1381 324.7 90.6581 323.48 90.6581 320.98ZM109.652 326.5H111.912V320C111.912 316.92 109.972 315.3 107.392 315.3C106.072 315.3 104.852 315.84 104.112 316.74V315.48H101.832V326.5H104.112V320.34C104.112 318.32 105.212 317.28 106.892 317.28C108.552 317.28 109.652 318.32 109.652 320.34V326.5ZM130.44 326.5H132.7V320C132.7 316.92 130.74 315.3 128.16 315.3C126.56 315.3 125 316.14 124.32 317.48C123.56 316.04 122.1 315.3 120.36 315.3C119.04 315.3 117.84 315.84 117.1 316.74V315.48H114.82V326.5H117.1V320.34C117.1 318.32 118.2 317.28 119.88 317.28C121.54 317.28 122.64 318.32 122.64 320.34V326.5H124.9V320.34C124.9 318.32 126 317.28 127.68 317.28C129.34 317.28 130.44 318.32 130.44 320.34V326.5ZM140.242 317.22C141.942 317.22 143.282 318.3 143.322 320H137.222C137.462 318.26 138.702 317.22 140.242 317.22ZM145.402 323.22H142.942C142.522 324.08 141.742 324.76 140.342 324.76C138.662 324.76 137.362 323.66 137.202 321.84H145.622C145.682 321.46 145.702 321.1 145.702 320.72C145.702 317.48 143.482 315.3 140.342 315.3C137.082 315.3 134.842 317.52 134.842 320.98C134.842 324.44 137.182 326.68 140.342 326.68C143.042 326.68 144.782 325.14 145.402 323.22ZM155.765 326.5H158.025V320C158.025 316.92 156.085 315.3 153.505 315.3C152.185 315.3 150.965 315.84 150.225 316.74V315.48H147.945V326.5H150.225V320.34C150.225 318.32 151.325 317.28 153.005 317.28C154.665 317.28 155.765 318.32 155.765 320.34V326.5ZM161.294 323.44C161.294 325.68 162.514 326.5 164.474 326.5H166.274V324.6H164.874C163.914 324.6 163.594 324.26 163.594 323.44V317.34H166.274V315.48H163.594V312.74H161.294V315.48H159.994V317.34H161.294V323.44ZM167.615 320.94C167.615 324.34 169.915 326.68 172.775 326.68C174.615 326.68 175.935 325.8 176.635 324.86V326.5H178.935V315.48H176.635V317.08C175.955 316.18 174.675 315.3 172.815 315.3C169.915 315.3 167.615 317.54 167.615 320.94ZM176.635 320.98C176.635 323.36 175.015 324.7 173.295 324.7C171.595 324.7 169.955 323.32 169.955 320.94C169.955 318.56 171.595 317.28 173.295 317.28C175.015 317.28 176.635 318.62 176.635 320.98ZM181.93 326.5H184.21V311.7H181.93V326.5ZM201.778 322.56C201.778 317.48 194.418 319.44 194.418 316.3C194.418 314.96 195.438 314.32 196.758 314.36C198.198 314.4 199.018 315.26 199.098 316.2H201.618C201.418 313.82 199.538 312.42 196.878 312.42C194.038 312.42 192.098 313.94 192.098 316.38C192.098 321.5 199.478 319.32 199.478 322.68C199.478 323.86 198.578 324.72 196.978 324.72C195.398 324.72 194.598 323.8 194.498 322.66H192.058C192.058 325.12 194.198 326.64 196.978 326.64C200.078 326.64 201.778 324.64 201.778 322.56ZM203.709 320.98C203.709 324.44 205.949 326.68 209.109 326.68C211.809 326.68 213.569 325.18 214.189 323.02H211.729C211.309 324.16 210.469 324.76 209.109 324.76C207.269 324.76 206.049 323.4 206.049 320.98C206.049 318.58 207.269 317.22 209.109 317.22C210.469 317.22 211.349 317.9 211.729 318.96H214.189C213.569 316.64 211.809 315.3 209.109 315.3C205.949 315.3 203.709 317.54 203.709 320.98ZM216.461 326.5H218.741V315.48H216.461V326.5ZM217.621 314.02C218.421 314.02 219.061 313.38 219.061 312.56C219.061 311.74 218.421 311.1 217.621 311.1C216.801 311.1 216.161 311.74 216.161 312.56C216.161 313.38 216.801 314.02 217.621 314.02ZM226.374 317.22C228.074 317.22 229.414 318.3 229.454 320H223.354C223.594 318.26 224.834 317.22 226.374 317.22ZM231.534 323.22H229.074C228.654 324.08 227.874 324.76 226.474 324.76C224.794 324.76 223.494 323.66 223.334 321.84H231.754C231.814 321.46 231.834 321.1 231.834 320.72C231.834 317.48 229.614 315.3 226.474 315.3C223.214 315.3 220.974 317.52 220.974 320.98C220.974 324.44 223.314 326.68 226.474 326.68C229.174 326.68 230.914 325.14 231.534 323.22ZM241.898 326.5H244.158V320C244.158 316.92 242.218 315.3 239.638 315.3C238.318 315.3 237.098 315.84 236.358 316.74V315.48H234.078V326.5H236.358V320.34C236.358 318.32 237.458 317.28 239.138 317.28C240.798 317.28 241.898 318.32 241.898 320.34V326.5ZM246.306 320.98C246.306 324.44 248.546 326.68 251.706 326.68C254.406 326.68 256.166 325.18 256.786 323.02H254.326C253.906 324.16 253.066 324.76 251.706 324.76C249.866 324.76 248.646 323.4 248.646 320.98C248.646 318.58 249.866 317.22 251.706 317.22C253.066 317.22 253.946 317.9 254.326 318.96H256.786C256.166 316.64 254.406 315.3 251.706 315.3C248.546 315.3 246.306 317.54 246.306 320.98ZM263.699 317.22C265.399 317.22 266.739 318.3 266.779 320H260.679C260.919 318.26 262.159 317.22 263.699 317.22ZM268.859 323.22H266.399C265.979 324.08 265.199 324.76 263.799 324.76C262.119 324.76 260.819 323.66 260.659 321.84H269.079C269.139 321.46 269.159 321.1 269.159 320.72C269.159 317.48 266.939 315.3 263.799 315.3C260.539 315.3 258.299 317.52 258.299 320.98C258.299 324.44 260.639 326.68 263.799 326.68C266.499 326.68 268.239 325.14 268.859 323.22ZM275.838 320.94C275.838 324.34 278.138 326.68 280.998 326.68C282.838 326.68 284.158 325.8 284.858 324.86V326.5H287.158V315.48H284.858V317.08C284.178 316.18 282.898 315.3 281.038 315.3C278.138 315.3 275.838 317.54 275.838 320.94ZM284.858 320.98C284.858 323.36 283.238 324.7 281.518 324.7C279.818 324.7 278.178 323.32 278.178 320.94C278.178 318.56 279.818 317.28 281.518 317.28C283.238 317.28 284.858 318.62 284.858 320.98ZM297.972 326.5H300.232V320C300.232 316.92 298.292 315.3 295.712 315.3C294.392 315.3 293.172 315.84 292.432 316.74V315.48H290.152V326.5H292.432V320.34C292.432 318.32 293.532 317.28 295.212 317.28C296.872 317.28 297.972 318.32 297.972 320.34V326.5ZM302.381 320.94C302.381 324.34 304.681 326.68 307.581 326.68C309.381 326.68 310.701 325.84 311.401 324.84V326.5H313.701V311.7H311.401V317.02C310.561 315.98 309.041 315.3 307.601 315.3C304.681 315.3 302.381 317.54 302.381 320.94ZM311.401 320.98C311.401 323.36 309.781 324.7 308.061 324.7C306.361 324.7 304.721 323.32 304.721 320.94C304.721 318.56 306.361 317.28 308.061 317.28C309.781 317.28 311.401 318.62 311.401 320.98ZM331.271 322.56C331.271 317.48 323.911 319.44 323.911 316.3C323.911 314.96 324.931 314.32 326.251 314.36C327.691 314.4 328.511 315.26 328.591 316.2H331.111C330.911 313.82 329.031 312.42 326.371 312.42C323.531 312.42 321.591 313.94 321.591 316.38C321.591 321.5 328.971 319.32 328.971 322.68C328.971 323.86 328.071 324.72 326.471 324.72C324.891 324.72 324.091 323.8 323.991 322.66H321.551C321.551 325.12 323.691 326.64 326.471 326.64C329.571 326.64 331.271 324.64 331.271 322.56ZM343.941 315.48H341.661V321.62C341.661 323.64 340.561 324.68 338.881 324.68C337.221 324.68 336.121 323.64 336.121 321.62V315.48H333.861V321.96C333.861 325.04 335.821 326.66 338.401 326.66C339.701 326.66 340.941 326.12 341.661 325.18V326.5H343.941V315.48ZM355.169 323.42C355.049 319.44 348.829 320.68 348.829 318.46C348.829 317.72 349.469 317.22 350.689 317.22C351.929 317.22 352.669 317.88 352.749 318.84H355.029C354.909 316.64 353.269 315.3 350.769 315.3C348.169 315.3 346.529 316.72 346.529 318.48C346.529 322.52 352.929 321.28 352.929 323.44C352.929 324.2 352.229 324.76 350.909 324.76C349.649 324.76 348.789 324.02 348.709 323.12H346.349C346.449 325.12 348.309 326.68 350.949 326.68C353.549 326.68 355.169 325.28 355.169 323.42ZM357.993 323.44C357.993 325.68 359.213 326.5 361.173 326.5H362.973V324.6H361.573C360.613 324.6 360.293 324.26 360.293 323.44V317.34H362.973V315.48H360.293V312.74H357.993V315.48H356.693V317.34H357.993V323.44ZM364.314 320.94C364.314 324.34 366.614 326.68 369.474 326.68C371.314 326.68 372.634 325.8 373.334 324.86V326.5H375.634V315.48H373.334V317.08C372.654 316.18 371.374 315.3 369.514 315.3C366.614 315.3 364.314 317.54 364.314 320.94ZM373.334 320.98C373.334 323.36 371.714 324.7 369.994 324.7C368.294 324.7 366.654 323.32 366.654 320.94C366.654 318.56 368.294 317.28 369.994 317.28C371.714 317.28 373.334 318.62 373.334 320.98ZM378.629 326.5H380.909V315.48H378.629V326.5ZM379.789 314.02C380.589 314.02 381.229 313.38 381.229 312.56C381.229 311.74 380.589 311.1 379.789 311.1C378.969 311.1 378.329 311.74 378.329 312.56C378.329 313.38 378.969 314.02 379.789 314.02ZM391.722 326.5H393.982V320C393.982 316.92 392.042 315.3 389.462 315.3C388.142 315.3 386.922 315.84 386.182 316.74V315.48H383.902V326.5H386.182V320.34C386.182 318.32 387.282 317.28 388.962 317.28C390.622 317.28 391.722 318.32 391.722 320.34V326.5ZM396.131 320.94C396.131 324.34 398.431 326.68 401.291 326.68C403.131 326.68 404.451 325.8 405.151 324.86V326.5H407.451V315.48H405.151V317.08C404.471 316.18 403.191 315.3 401.331 315.3C398.431 315.3 396.131 317.54 396.131 320.94ZM405.151 320.98C405.151 323.36 403.531 324.7 401.811 324.7C400.111 324.7 398.471 323.32 398.471 320.94C398.471 318.56 400.111 317.28 401.811 317.28C403.531 317.28 405.151 318.62 405.151 320.98ZM412.725 317.12V311.7H410.445V326.5H412.725V324.9C413.445 325.86 414.745 326.68 416.565 326.68C419.465 326.68 421.745 324.34 421.745 320.94C421.745 317.54 419.485 315.3 416.565 315.3C414.825 315.3 413.445 316.12 412.725 317.12ZM419.425 320.94C419.425 323.32 417.785 324.7 416.065 324.7C414.365 324.7 412.725 323.36 412.725 320.98C412.725 318.62 414.365 317.28 416.065 317.28C417.785 317.28 419.425 318.56 419.425 320.94ZM424 326.5H426.28V315.48H424V326.5ZM425.16 314.02C425.96 314.02 426.6 313.38 426.6 312.56C426.6 311.74 425.96 311.1 425.16 311.1C424.34 311.1 423.7 311.74 423.7 312.56C423.7 313.38 424.34 314.02 425.16 314.02ZM429.273 326.5H431.553V311.7H429.273V326.5ZM434.547 326.5H436.827V315.48H434.547V326.5ZM435.707 314.02C436.507 314.02 437.147 313.38 437.147 312.56C437.147 311.74 436.507 311.1 435.707 311.1C434.887 311.1 434.247 311.74 434.247 312.56C434.247 313.38 434.887 314.02 435.707 314.02ZM440.18 323.44C440.18 325.68 441.4 326.5 443.36 326.5H445.16V324.6H443.76C442.8 324.6 442.48 324.26 442.48 323.44V317.34H445.16V315.48H442.48V312.74H440.18V315.48H438.88V317.34H440.18V323.44ZM451.602 323.88L448.502 315.48H445.962L450.302 326.32L448.062 331.68H450.422L457.182 315.48H454.822L451.602 323.88Z" fill="#212832"/>
<rect x="0.5" y="294.5" width="616" height="49" stroke="black" stroke-opacity="0.5"/>
<rect y="465" width="617" height="50" fill="white"/>
<path d="M24.6 493.44C26.08 493.44 27.24 492.3 27.24 490.84C27.24 489.36 26.08 488.22 24.6 488.22C23.16 488.22 22 489.36 22 490.84C22 492.3 23.16 493.44 24.6 493.44ZM40.3689 490.52C40.3689 494.7 43.5489 497.62 47.4689 497.62C50.3689 497.62 52.8689 496.18 53.9289 493.46H51.1889C50.4489 494.94 49.1289 495.64 47.4689 495.64C44.7089 495.64 42.7089 493.66 42.7089 490.52C42.7089 487.38 44.7089 485.42 47.4689 485.42C49.1289 485.42 50.4489 486.12 51.1889 487.6H53.9289C52.8689 484.88 50.3689 483.42 47.4689 483.42C43.5489 483.42 40.3689 486.36 40.3689 490.52ZM67.0977 491.98C67.0977 488.52 64.6177 486.3 61.4777 486.3C58.3377 486.3 55.8577 488.52 55.8577 491.98C55.8577 495.44 58.2377 497.68 61.3777 497.68C64.5377 497.68 67.0977 495.44 67.0977 491.98ZM58.1777 491.98C58.1777 489.48 59.7177 488.28 61.4377 488.28C63.1377 488.28 64.7577 489.48 64.7577 491.98C64.7577 494.48 63.0777 495.7 61.3777 495.7C59.6577 495.7 58.1777 494.48 58.1777 491.98ZM84.9716 497.5H87.2316V491C87.2316 487.92 85.2716 486.3 82.6916 486.3C81.0916 486.3 79.5316 487.14 78.8516 488.48C78.0916 487.04 76.6316 486.3 74.8916 486.3C73.5716 486.3 72.3716 486.84 71.6316 487.74V486.48H69.3516V497.5H71.6316V491.34C71.6316 489.32 72.7316 488.28 74.4116 488.28C76.0716 488.28 77.1716 489.32 77.1716 491.34V497.5H79.4316V491.34C79.4316 489.32 80.5316 488.28 82.2116 488.28C83.8716 488.28 84.9716 489.32 84.9716 491.34V497.5ZM92.4128 488.1V486.48H90.1328V502.74H92.4128V495.9C93.1328 496.76 94.4328 497.68 96.2528 497.68C99.1528 497.68 101.433 495.34 101.433 491.94C101.433 488.54 99.1528 486.3 96.2528 486.3C94.4528 486.3 93.1128 487.18 92.4128 488.1ZM99.1128 491.94C99.1128 494.32 97.4728 495.7 95.7528 495.7C94.0528 495.7 92.4128 494.36 92.4128 491.98C92.4128 489.62 94.0528 488.28 95.7528 488.28C97.4728 488.28 99.1128 489.56 99.1128 491.94ZM113.668 486.48H111.388V492.62C111.388 494.64 110.288 495.68 108.608 495.68C106.948 495.68 105.848 494.64 105.848 492.62V486.48H103.588V492.96C103.588 496.04 105.548 497.66 108.128 497.66C109.428 497.66 110.668 497.12 111.388 496.18V497.5H113.668V486.48ZM117.036 494.44C117.036 496.68 118.256 497.5 120.216 497.5H122.016V495.6H120.616C119.656 495.6 119.336 495.26 119.336 494.44V488.34H122.016V486.48H119.336V483.74H117.036V486.48H115.736V488.34H117.036V494.44ZM123.357 491.94C123.357 495.34 125.657 497.68 128.517 497.68C130.357 497.68 131.677 496.8 132.377 495.86V497.5H134.677V486.48H132.377V488.08C131.697 487.18 130.417 486.3 128.557 486.3C125.657 486.3 123.357 488.54 123.357 491.94ZM132.377 491.98C132.377 494.36 130.757 495.7 129.037 495.7C127.337 495.7 125.697 494.32 125.697 491.94C125.697 489.56 127.337 488.28 129.037 488.28C130.757 488.28 132.377 489.62 132.377 491.98ZM138.032 494.44C138.032 496.68 139.252 497.5 141.212 497.5H143.012V495.6H141.612C140.652 495.6 140.332 495.26 140.332 494.44V488.34H143.012V486.48H140.332V483.74H138.032V486.48H136.732V488.34H138.032V494.44ZM145.113 497.5H147.393V486.48H145.113V497.5ZM146.273 485.02C147.073 485.02 147.713 484.38 147.713 483.56C147.713 482.74 147.073 482.1 146.273 482.1C145.453 482.1 144.813 482.74 144.813 483.56C144.813 484.38 145.453 485.02 146.273 485.02ZM160.887 491.98C160.887 488.52 158.407 486.3 155.267 486.3C152.127 486.3 149.647 488.52 149.647 491.98C149.647 495.44 152.027 497.68 155.167 497.68C158.327 497.68 160.887 495.44 160.887 491.98ZM151.967 491.98C151.967 489.48 153.507 488.28 155.227 488.28C156.927 488.28 158.547 489.48 158.547 491.98C158.547 494.48 156.867 495.7 155.167 495.7C153.447 495.7 151.967 494.48 151.967 491.98ZM170.961 497.5H173.221V491C173.221 487.92 171.281 486.3 168.701 486.3C167.381 486.3 166.161 486.84 165.421 487.74V486.48H163.141V497.5H165.421V491.34C165.421 489.32 166.521 488.28 168.201 488.28C169.861 488.28 170.961 489.32 170.961 491.34V497.5ZM175.369 491.94C175.369 495.34 177.669 497.68 180.529 497.68C182.369 497.68 183.689 496.8 184.389 495.86V497.5H186.689V486.48H184.389V488.08C183.709 487.18 182.429 486.3 180.569 486.3C177.669 486.3 175.369 488.54 175.369 491.94ZM184.389 491.98C184.389 494.36 182.769 495.7 181.049 495.7C179.349 495.7 177.709 494.32 177.709 491.94C177.709 489.56 179.349 488.28 181.049 488.28C182.769 488.28 184.389 489.62 184.389 491.98ZM189.684 497.5H191.964V482.7H189.684V497.5ZM199.432 485.46H203.152V497.5H205.432V485.46H209.132V483.6H199.432V485.46ZM211.441 497.5H213.721V491.34C213.721 489.32 214.821 488.28 216.501 488.28C218.161 488.28 219.261 489.32 219.261 491.34V497.5H221.521V491C221.521 487.92 219.601 486.3 217.141 486.3C215.721 486.3 214.481 486.84 213.721 487.76V482.7H211.441V497.5ZM224.43 497.5H226.71V486.48H224.43V497.5ZM225.59 485.02C226.39 485.02 227.03 484.38 227.03 483.56C227.03 482.74 226.39 482.1 225.59 482.1C224.77 482.1 224.13 482.74 224.13 483.56C224.13 484.38 224.77 485.02 225.59 485.02ZM237.523 497.5H239.783V491C239.783 487.92 237.843 486.3 235.263 486.3C233.943 486.3 232.723 486.84 231.983 487.74V486.48H229.703V497.5H231.983V491.34C231.983 489.32 233.083 488.28 234.763 488.28C236.423 488.28 237.523 489.32 237.523 491.34V497.5ZM242.691 497.5H244.971V492.76L249.051 497.5H252.131L247.051 492L252.131 486.48H248.971L244.971 491.3V482.7H242.691V497.5ZM253.766 497.5H256.046V486.48H253.766V497.5ZM254.926 485.02C255.726 485.02 256.366 484.38 256.366 483.56C256.366 482.74 255.726 482.1 254.926 482.1C254.106 482.1 253.466 482.74 253.466 483.56C253.466 484.38 254.106 485.02 254.926 485.02ZM266.859 497.5H269.119V491C269.119 487.92 267.179 486.3 264.599 486.3C263.279 486.3 262.059 486.84 261.319 487.74V486.48H259.039V497.5H261.319V491.34C261.319 489.32 262.419 488.28 264.099 488.28C265.759 488.28 266.859 489.32 266.859 491.34V497.5ZM271.267 491.94C271.267 495.34 273.567 497.68 276.467 497.68C278.267 497.68 279.587 496.78 280.287 495.84V497.68C280.287 499.88 278.967 500.96 277.207 500.96C275.627 500.96 274.407 500.18 274.067 499.04H271.807C272.087 501.48 274.267 502.94 277.207 502.94C280.647 502.94 282.587 500.68 282.587 497.68V486.48H280.287V488.08C279.607 487.14 278.267 486.3 276.467 486.3C273.567 486.3 271.267 488.54 271.267 491.94ZM280.287 491.98C280.287 494.36 278.667 495.7 276.947 495.7C275.247 495.7 273.607 494.32 273.607 491.94C273.607 489.56 275.247 488.28 276.947 488.28C278.667 488.28 280.287 489.62 280.287 491.98ZM290.017 491.94C290.017 495.34 292.317 497.68 295.177 497.68C297.017 497.68 298.337 496.8 299.037 495.86V497.5H301.337V486.48H299.037V488.08C298.357 487.18 297.077 486.3 295.217 486.3C292.317 486.3 290.017 488.54 290.017 491.94ZM299.037 491.98C299.037 494.36 297.417 495.7 295.697 495.7C293.997 495.7 292.357 494.32 292.357 491.94C292.357 489.56 293.997 488.28 295.697 488.28C297.417 488.28 299.037 489.62 299.037 491.98ZM312.152 497.5H314.412V491C314.412 487.92 312.472 486.3 309.892 486.3C308.572 486.3 307.352 486.84 306.612 487.74V486.48H304.332V497.5H306.612V491.34C306.612 489.32 307.712 488.28 309.392 488.28C311.052 488.28 312.152 489.32 312.152 491.34V497.5ZM316.56 491.94C316.56 495.34 318.86 497.68 321.76 497.68C323.56 497.68 324.88 496.84 325.58 495.84V497.5H327.88V482.7H325.58V488.02C324.74 486.98 323.22 486.3 321.78 486.3C318.86 486.3 316.56 488.54 316.56 491.94ZM325.58 491.98C325.58 494.36 323.96 495.7 322.24 495.7C320.54 495.7 318.9 494.32 318.9 491.94C318.9 489.56 320.54 488.28 322.24 488.28C323.96 488.28 325.58 489.62 325.58 491.98ZM338.35 490V485.46H340.87C342.65 485.46 343.45 486.3 343.45 487.74C343.45 489.14 342.65 490 340.87 490H338.35ZM345.79 487.74C345.79 485.48 344.17 483.6 340.87 483.6H336.07V497.5H338.35V491.86H340.87C344.49 491.86 345.79 489.72 345.79 487.74ZM350.245 491.7C350.245 489.36 351.285 488.66 352.965 488.66H353.545V486.3C351.985 486.3 350.885 486.98 350.245 488.08V486.48H347.965V497.5H350.245V491.7ZM366.141 491.98C366.141 488.52 363.661 486.3 360.521 486.3C357.381 486.3 354.901 488.52 354.901 491.98C354.901 495.44 357.281 497.68 360.421 497.68C363.581 497.68 366.141 495.44 366.141 491.98ZM357.221 491.98C357.221 489.48 358.761 488.28 360.481 488.28C362.181 488.28 363.801 489.48 363.801 491.98C363.801 494.48 362.121 495.7 360.421 495.7C358.701 495.7 357.221 494.48 357.221 491.98ZM367.635 491.94C367.635 495.34 369.935 497.68 372.835 497.68C374.635 497.68 375.955 496.78 376.655 495.84V497.68C376.655 499.88 375.335 500.96 373.575 500.96C371.995 500.96 370.775 500.18 370.435 499.04H368.175C368.455 501.48 370.635 502.94 373.575 502.94C377.015 502.94 378.955 500.68 378.955 497.68V486.48H376.655V488.08C375.975 487.14 374.635 486.3 372.835 486.3C369.935 486.3 367.635 488.54 367.635 491.94ZM376.655 491.98C376.655 494.36 375.035 495.7 373.315 495.7C371.615 495.7 369.975 494.32 369.975 491.94C369.975 489.56 371.615 488.28 373.315 488.28C375.035 488.28 376.655 489.62 376.655 491.98ZM384.229 491.7C384.229 489.36 385.269 488.66 386.949 488.66H387.529V486.3C385.969 486.3 384.869 486.98 384.229 488.08V486.48H381.949V497.5H384.229V491.7ZM388.865 491.94C388.865 495.34 391.165 497.68 394.025 497.68C395.865 497.68 397.185 496.8 397.885 495.86V497.5H400.185V486.48H397.885V488.08C397.205 487.18 395.925 486.3 394.065 486.3C391.165 486.3 388.865 488.54 388.865 491.94ZM397.885 491.98C397.885 494.36 396.265 495.7 394.545 495.7C392.845 495.7 391.205 494.32 391.205 491.94C391.205 489.56 392.845 488.28 394.545 488.28C396.265 488.28 397.885 489.62 397.885 491.98ZM418.8 497.5H421.06V491C421.06 487.92 419.1 486.3 416.52 486.3C414.92 486.3 413.36 487.14 412.68 488.48C411.92 487.04 410.46 486.3 408.72 486.3C407.4 486.3 406.2 486.84 405.46 487.74V486.48H403.18V497.5H405.46V491.34C405.46 489.32 406.56 488.28 408.24 488.28C409.9 488.28 411 489.32 411 491.34V497.5H413.26V491.34C413.26 489.32 414.36 488.28 416.04 488.28C417.7 488.28 418.8 489.32 418.8 491.34V497.5ZM439.581 497.5H441.841V491C441.841 487.92 439.881 486.3 437.301 486.3C435.701 486.3 434.141 487.14 433.461 488.48C432.701 487.04 431.241 486.3 429.501 486.3C428.181 486.3 426.981 486.84 426.241 487.74V486.48H423.961V497.5H426.241V491.34C426.241 489.32 427.341 488.28 429.021 488.28C430.681 488.28 431.781 489.32 431.781 491.34V497.5H434.041V491.34C434.041 489.32 435.141 488.28 436.821 488.28C438.481 488.28 439.581 489.32 439.581 491.34V497.5ZM444.742 497.5H447.022V486.48H444.742V497.5ZM445.902 485.02C446.702 485.02 447.342 484.38 447.342 483.56C447.342 482.74 446.702 482.1 445.902 482.1C445.082 482.1 444.442 482.74 444.442 483.56C444.442 484.38 445.082 485.02 445.902 485.02ZM457.836 497.5H460.096V491C460.096 487.92 458.156 486.3 455.576 486.3C454.256 486.3 453.036 486.84 452.296 487.74V486.48H450.016V497.5H452.296V491.34C452.296 489.32 453.396 488.28 455.076 488.28C456.736 488.28 457.836 489.32 457.836 491.34V497.5ZM462.244 491.94C462.244 495.34 464.544 497.68 467.444 497.68C469.244 497.68 470.564 496.78 471.264 495.84V497.68C471.264 499.88 469.944 500.96 468.184 500.96C466.604 500.96 465.384 500.18 465.044 499.04H462.784C463.064 501.48 465.244 502.94 468.184 502.94C471.624 502.94 473.564 500.68 473.564 497.68V486.48H471.264V488.08C470.584 487.14 469.244 486.3 467.444 486.3C464.544 486.3 462.244 488.54 462.244 491.94ZM471.264 491.98C471.264 494.36 469.644 495.7 467.924 495.7C466.224 495.7 464.584 494.32 464.584 491.94C464.584 489.56 466.224 488.28 467.924 488.28C469.644 488.28 471.264 489.62 471.264 491.98ZM481.754 497.5H484.034V486.48H481.754V497.5ZM482.914 485.02C483.714 485.02 484.354 484.38 484.354 483.56C484.354 482.74 483.714 482.1 482.914 482.1C482.094 482.1 481.454 482.74 481.454 483.56C481.454 484.38 482.094 485.02 482.914 485.02ZM494.847 497.5H497.107V491C497.107 487.92 495.167 486.3 492.587 486.3C491.267 486.3 490.047 486.84 489.307 487.74V486.48H487.027V497.5H489.307V491.34C489.307 489.32 490.407 488.28 492.087 488.28C493.747 488.28 494.847 489.32 494.847 491.34V497.5ZM504.451 490.52C504.451 494.7 507.631 497.62 511.551 497.62C514.451 497.62 516.951 496.18 518.011 493.46H515.271C514.531 494.94 513.211 495.64 511.551 495.64C508.791 495.64 506.791 493.66 506.791 490.52C506.791 487.38 508.791 485.42 511.551 485.42C513.211 485.42 514.531 486.12 515.271 487.6H518.011C516.951 484.88 514.451 483.42 511.551 483.42C507.631 483.42 504.451 486.36 504.451 490.52ZM525.875 483.6V497.5H532.855V495.66H528.155V483.6H525.875ZM534.002 491.94C534.002 495.34 536.302 497.68 539.162 497.68C541.002 497.68 542.322 496.8 543.022 495.86V497.5H545.322V486.48H543.022V488.08C542.342 487.18 541.062 486.3 539.202 486.3C536.302 486.3 534.002 488.54 534.002 491.94ZM543.022 491.98C543.022 494.36 541.402 495.7 539.682 495.7C537.982 495.7 536.342 494.32 536.342 491.94C536.342 489.56 537.982 488.28 539.682 488.28C541.402 488.28 543.022 489.62 543.022 491.98ZM550.596 488.12V482.7H548.316V497.5H550.596V495.9C551.316 496.86 552.616 497.68 554.436 497.68C557.336 497.68 559.616 495.34 559.616 491.94C559.616 488.54 557.356 486.3 554.436 486.3C552.696 486.3 551.316 487.12 550.596 488.12ZM557.296 491.94C557.296 494.32 555.656 495.7 553.936 495.7C552.236 495.7 550.596 494.36 550.596 491.98C550.596 489.62 552.236 488.28 553.936 488.28C555.656 488.28 557.296 489.56 557.296 491.94Z" fill="#212832"/>
<rect x="0.5" y="465.5" width="616" height="49" stroke="black" stroke-opacity="0.5"/>
<rect y="351" width="617" height="50" fill="white"/>
<path d="M24.6 379.44C26.08 379.44 27.24 378.3 27.24 376.84C27.24 375.36 26.08 374.22 24.6 374.22C23.16 374.22 22 375.36 22 376.84C22 378.3 23.16 379.44 24.6 379.44ZM40.3689 376.52C40.3689 380.7 43.5489 383.62 47.4689 383.62C50.3689 383.62 52.8689 382.18 53.9289 379.46H51.1889C50.4489 380.94 49.1289 381.64 47.4689 381.64C44.7089 381.64 42.7089 379.66 42.7089 376.52C42.7089 373.38 44.7089 371.42 47.4689 371.42C49.1289 371.42 50.4489 372.12 51.1889 373.6H53.9289C52.8689 370.88 50.3689 369.42 47.4689 369.42C43.5489 369.42 40.3689 372.36 40.3689 376.52ZM67.0977 377.98C67.0977 374.52 64.6177 372.3 61.4777 372.3C58.3377 372.3 55.8577 374.52 55.8577 377.98C55.8577 381.44 58.2377 383.68 61.3777 383.68C64.5377 383.68 67.0977 381.44 67.0977 377.98ZM58.1777 377.98C58.1777 375.48 59.7177 374.28 61.4377 374.28C63.1377 374.28 64.7577 375.48 64.7577 377.98C64.7577 380.48 63.0777 381.7 61.3777 381.7C59.6577 381.7 58.1777 380.48 58.1777 377.98ZM84.9716 383.5H87.2316V377C87.2316 373.92 85.2716 372.3 82.6916 372.3C81.0916 372.3 79.5316 373.14 78.8516 374.48C78.0916 373.04 76.6316 372.3 74.8916 372.3C73.5716 372.3 72.3716 372.84 71.6316 373.74V372.48H69.3516V383.5H71.6316V377.34C71.6316 375.32 72.7316 374.28 74.4116 374.28C76.0716 374.28 77.1716 375.32 77.1716 377.34V383.5H79.4316V377.34C79.4316 375.32 80.5316 374.28 82.2116 374.28C83.8716 374.28 84.9716 375.32 84.9716 377.34V383.5ZM92.4128 374.1V372.48H90.1328V388.74H92.4128V381.9C93.1328 382.76 94.4328 383.68 96.2528 383.68C99.1528 383.68 101.433 381.34 101.433 377.94C101.433 374.54 99.1528 372.3 96.2528 372.3C94.4528 372.3 93.1128 373.18 92.4128 374.1ZM99.1128 377.94C99.1128 380.32 97.4728 381.7 95.7528 381.7C94.0528 381.7 92.4128 380.36 92.4128 377.98C92.4128 375.62 94.0528 374.28 95.7528 374.28C97.4728 374.28 99.1128 375.56 99.1128 377.94ZM113.668 372.48H111.388V378.62C111.388 380.64 110.288 381.68 108.608 381.68C106.948 381.68 105.848 380.64 105.848 378.62V372.48H103.588V378.96C103.588 382.04 105.548 383.66 108.128 383.66C109.428 383.66 110.668 383.12 111.388 382.18V383.5H113.668V372.48ZM117.036 380.44C117.036 382.68 118.256 383.5 120.216 383.5H122.016V381.6H120.616C119.656 381.6 119.336 381.26 119.336 380.44V374.34H122.016V372.48H119.336V369.74H117.036V372.48H115.736V374.34H117.036V380.44ZM128.757 374.22C130.457 374.22 131.797 375.3 131.837 377H125.737C125.977 375.26 127.217 374.22 128.757 374.22ZM133.917 380.22H131.457C131.037 381.08 130.257 381.76 128.857 381.76C127.177 381.76 125.877 380.66 125.717 378.84H134.137C134.197 378.46 134.217 378.1 134.217 377.72C134.217 374.48 131.997 372.3 128.857 372.3C125.597 372.3 123.357 374.52 123.357 377.98C123.357 381.44 125.697 383.68 128.857 383.68C131.557 383.68 133.297 382.14 133.917 380.22ZM138.741 377.7C138.741 375.36 139.781 374.66 141.461 374.66H142.041V372.3C140.481 372.3 139.381 372.98 138.741 374.08V372.48H136.461V383.5H138.741V377.7ZM157.012 369.58H149.332V383.5H157.012V381.64H151.612V377.38H156.412V375.52H151.612V371.44H157.012V369.58ZM168.04 380.42C167.92 376.44 161.7 377.68 161.7 375.46C161.7 374.72 162.34 374.22 163.56 374.22C164.8 374.22 165.54 374.88 165.62 375.84H167.9C167.78 373.64 166.14 372.3 163.64 372.3C161.04 372.3 159.4 373.72 159.4 375.48C159.4 379.52 165.8 378.28 165.8 380.44C165.8 381.2 165.1 381.76 163.78 381.76C162.52 381.76 161.66 381.02 161.58 380.12H159.22C159.32 382.12 161.18 383.68 163.82 383.68C166.42 383.68 168.04 382.28 168.04 380.42ZM178.724 380.42C178.604 376.44 172.384 377.68 172.384 375.46C172.384 374.72 173.024 374.22 174.244 374.22C175.484 374.22 176.224 374.88 176.304 375.84H178.584C178.464 373.64 176.824 372.3 174.324 372.3C171.724 372.3 170.084 373.72 170.084 375.48C170.084 379.52 176.484 378.28 176.484 380.44C176.484 381.2 175.784 381.76 174.464 381.76C173.204 381.76 172.344 381.02 172.264 380.12H169.904C170.004 382.12 171.864 383.68 174.504 383.68C177.104 383.68 178.724 382.28 178.724 380.42ZM185.828 374.22C187.528 374.22 188.868 375.3 188.908 377H182.808C183.048 375.26 184.288 374.22 185.828 374.22ZM190.987 380.22H188.528C188.108 381.08 187.328 381.76 185.928 381.76C184.248 381.76 182.948 380.66 182.788 378.84H191.208C191.268 378.46 191.288 378.1 191.288 377.72C191.288 374.48 189.068 372.3 185.928 372.3C182.668 372.3 180.428 374.52 180.428 377.98C180.428 381.44 182.768 383.68 185.928 383.68C188.628 383.68 190.368 382.14 190.987 380.22ZM201.351 383.5H203.611V377C203.611 373.92 201.671 372.3 199.091 372.3C197.771 372.3 196.551 372.84 195.811 373.74V372.48H193.531V383.5H195.811V377.34C195.811 375.32 196.911 374.28 198.591 374.28C200.251 374.28 201.351 375.32 201.351 377.34V383.5ZM206.88 380.44C206.88 382.68 208.1 383.5 210.06 383.5H211.86V381.6H210.46C209.5 381.6 209.18 381.26 209.18 380.44V374.34H211.86V372.48H209.18V369.74H206.88V372.48H205.58V374.34H206.88V380.44ZM213.961 383.5H216.241V372.48H213.961V383.5ZM215.121 371.02C215.921 371.02 216.561 370.38 216.561 369.56C216.561 368.74 215.921 368.1 215.121 368.1C214.301 368.1 213.661 368.74 213.661 369.56C213.661 370.38 214.301 371.02 215.121 371.02ZM218.474 377.94C218.474 381.34 220.774 383.68 223.634 383.68C225.474 383.68 226.794 382.8 227.494 381.86V383.5H229.794V372.48H227.494V374.08C226.814 373.18 225.534 372.3 223.674 372.3C220.774 372.3 218.474 374.54 218.474 377.94ZM227.494 377.98C227.494 380.36 225.874 381.7 224.154 381.7C222.454 381.7 220.814 380.32 220.814 377.94C220.814 375.56 222.454 374.28 224.154 374.28C225.874 374.28 227.494 375.62 227.494 377.98ZM232.789 383.5H235.069V368.7H232.789V383.5ZM243.538 383.5H245.838V374.34H247.878V372.48H245.838V371.7C245.838 370.44 246.318 369.96 247.718 369.96V368.06C244.838 368.06 243.538 369.16 243.538 371.7V372.48H242.238V374.34H243.538V383.5ZM260.398 377.98C260.398 374.52 257.918 372.3 254.778 372.3C251.638 372.3 249.158 374.52 249.158 377.98C249.158 381.44 251.538 383.68 254.678 383.68C257.838 383.68 260.398 381.44 260.398 377.98ZM251.478 377.98C251.478 375.48 253.018 374.28 254.738 374.28C256.438 374.28 258.058 375.48 258.058 377.98C258.058 380.48 256.378 381.7 254.678 381.7C252.958 381.7 251.478 380.48 251.478 377.98ZM264.932 377.7C264.932 375.36 265.972 374.66 267.652 374.66H268.232V372.3C266.672 372.3 265.572 372.98 264.932 374.08V372.48H262.652V383.5H264.932V377.7ZM280.063 369.6H275.523V383.5H280.063C284.523 383.5 287.443 380.88 287.443 376.6C287.443 372.3 284.523 369.6 280.063 369.6ZM277.803 381.64V371.46H280.063C283.343 371.46 285.103 373.42 285.103 376.6C285.103 379.76 283.343 381.64 280.063 381.64H277.803ZM288.943 377.94C288.943 381.34 291.243 383.68 294.103 383.68C295.943 383.68 297.263 382.8 297.963 381.86V383.5H300.263V372.48H297.963V374.08C297.283 373.18 296.003 372.3 294.143 372.3C291.243 372.3 288.943 374.54 288.943 377.94ZM297.963 377.98C297.963 380.36 296.343 381.7 294.623 381.7C292.923 381.7 291.283 380.32 291.283 377.94C291.283 375.56 292.923 374.28 294.623 374.28C296.343 374.28 297.963 375.62 297.963 377.98ZM303.618 380.44C303.618 382.68 304.838 383.5 306.798 383.5H308.598V381.6H307.198C306.238 381.6 305.918 381.26 305.918 380.44V374.34H308.598V372.48H305.918V369.74H303.618V372.48H302.318V374.34H303.618V380.44ZM309.939 377.94C309.939 381.34 312.239 383.68 315.099 383.68C316.939 383.68 318.259 382.8 318.959 381.86V383.5H321.259V372.48H318.959V374.08C318.279 373.18 316.999 372.3 315.139 372.3C312.239 372.3 309.939 374.54 309.939 377.94ZM318.959 377.98C318.959 380.36 317.339 381.7 315.619 381.7C313.919 381.7 312.279 380.32 312.279 377.94C312.279 375.56 313.919 374.28 315.619 374.28C317.339 374.28 318.959 375.62 318.959 377.98ZM338.829 379.56C338.829 374.48 331.469 376.44 331.469 373.3C331.469 371.96 332.489 371.32 333.809 371.36C335.249 371.4 336.069 372.26 336.149 373.2H338.669C338.469 370.82 336.589 369.42 333.929 369.42C331.089 369.42 329.149 370.94 329.149 373.38C329.149 378.5 336.529 376.32 336.529 379.68C336.529 380.86 335.629 381.72 334.029 381.72C332.449 381.72 331.649 380.8 331.549 379.66H329.109C329.109 382.12 331.249 383.64 334.029 383.64C337.129 383.64 338.829 381.64 338.829 379.56ZM340.76 377.98C340.76 381.44 343 383.68 346.16 383.68C348.86 383.68 350.62 382.18 351.24 380.02H348.78C348.36 381.16 347.52 381.76 346.16 381.76C344.32 381.76 343.1 380.4 343.1 377.98C343.1 375.58 344.32 374.22 346.16 374.22C347.52 374.22 348.4 374.9 348.78 375.96H351.24C350.62 373.64 348.86 372.3 346.16 372.3C343 372.3 340.76 374.54 340.76 377.98ZM353.512 383.5H355.792V372.48H353.512V383.5ZM354.672 371.02C355.472 371.02 356.112 370.38 356.112 369.56C356.112 368.74 355.472 368.1 354.672 368.1C353.852 368.1 353.212 368.74 353.212 369.56C353.212 370.38 353.852 371.02 354.672 371.02ZM363.425 374.22C365.125 374.22 366.465 375.3 366.505 377H360.405C360.645 375.26 361.885 374.22 363.425 374.22ZM368.585 380.22H366.125C365.705 381.08 364.925 381.76 363.525 381.76C361.845 381.76 360.545 380.66 360.385 378.84H368.805C368.865 378.46 368.885 378.1 368.885 377.72C368.885 374.48 366.665 372.3 363.525 372.3C360.265 372.3 358.025 374.52 358.025 377.98C358.025 381.44 360.365 383.68 363.525 383.68C366.225 383.68 367.965 382.14 368.585 380.22ZM378.949 383.5H381.209V377C381.209 373.92 379.269 372.3 376.689 372.3C375.369 372.3 374.149 372.84 373.409 373.74V372.48H371.129V383.5H373.409V377.34C373.409 375.32 374.509 374.28 376.189 374.28C377.849 374.28 378.949 375.32 378.949 377.34V383.5ZM383.357 377.98C383.357 381.44 385.597 383.68 388.757 383.68C391.457 383.68 393.217 382.18 393.837 380.02H391.377C390.957 381.16 390.117 381.76 388.757 381.76C386.917 381.76 385.697 380.4 385.697 377.98C385.697 375.58 386.917 374.22 388.757 374.22C390.117 374.22 390.997 374.9 391.377 375.96H393.837C393.217 373.64 391.457 372.3 388.757 372.3C385.597 372.3 383.357 374.54 383.357 377.98ZM400.749 374.22C402.449 374.22 403.789 375.3 403.829 377H397.729C397.969 375.26 399.209 374.22 400.749 374.22ZM405.909 380.22H403.449C403.029 381.08 402.249 381.76 400.849 381.76C399.169 381.76 397.869 380.66 397.709 378.84H406.129C406.189 378.46 406.209 378.1 406.209 377.72C406.209 374.48 403.989 372.3 400.849 372.3C397.589 372.3 395.349 374.52 395.349 377.98C395.349 381.44 397.689 383.68 400.849 383.68C403.549 383.68 405.289 382.14 405.909 380.22Z" fill="#212832"/>
<rect x="0.5" y="351.5" width="616" height="49" stroke="black" stroke-opacity="0.5"/>
<rect y="522" width="617" height="50" fill="white"/>
<path d="M21.74 548.22H29.96V546.3H21.74V548.22ZM33.4392 548.22H41.6592V546.3H33.4392V548.22ZM45.1384 548.22H53.3584V546.3H45.1384V548.22ZM56.8377 548.22H65.0577V546.3H56.8377V548.22Z" fill="#212832"/>
<rect x="0.5" y="522.5" width="616" height="49" stroke="black" stroke-opacity="0.5"/>
</svg>
