<svg width="617" height="572" viewBox="0 0 617 572" fill="none" xmlns="http://www.w3.org/2000/svg">
<rect y="66" width="617" height="50" fill="white"/>
<path d="M24.6 94.44C26.08 94.44 27.24 93.3 27.24 91.84C27.24 90.36 26.08 89.22 24.6 89.22C23.16 89.22 22 90.36 22 91.84C22 93.3 23.16 94.44 24.6 94.44ZM45.6689 84.6H41.1289V98.5H45.6689C50.1289 98.5 53.0489 95.88 53.0489 91.6C53.0489 87.3 50.1289 84.6 45.6689 84.6ZM43.4089 96.64V86.46H45.6689C48.9489 86.46 50.7089 88.42 50.7089 91.6C50.7089 94.76 48.9489 96.64 45.6689 96.64H43.4089ZM54.5486 92.94C54.5486 96.34 56.8486 98.68 59.7086 98.68C61.5486 98.68 62.8686 97.8 63.5686 96.86V98.5H65.8686V87.48H63.5686V89.08C62.8886 88.18 61.6086 87.3 59.7486 87.3C56.8486 87.3 54.5486 89.54 54.5486 92.94ZM63.5686 92.98C63.5686 95.36 61.9486 96.7 60.2286 96.7C58.5286 96.7 56.8886 95.32 56.8886 92.94C56.8886 90.56 58.5286 89.28 60.2286 89.28C61.9486 89.28 63.5686 90.62 63.5686 92.98ZM69.2233 95.44C69.2233 97.68 70.4433 98.5 72.4033 98.5H74.2033V96.6H72.8033C71.8433 96.6 71.5233 96.26 71.5233 95.44V89.34H74.2033V87.48H71.5233V84.74H69.2233V87.48H67.9233V89.34H69.2233V95.44ZM75.5447 92.94C75.5447 96.34 77.8447 98.68 80.7047 98.68C82.5447 98.68 83.8647 97.8 84.5647 96.86V98.5H86.8647V87.48H84.5647V89.08C83.8847 88.18 82.6047 87.3 80.7447 87.3C77.8447 87.3 75.5447 89.54 75.5447 92.94ZM84.5647 92.98C84.5647 95.36 82.9447 96.7 81.2247 96.7C79.5247 96.7 77.8847 95.32 77.8847 92.94C77.8847 90.56 79.5247 89.28 81.2247 89.28C82.9447 89.28 84.5647 90.62 84.5647 92.98ZM95.0547 98.5H97.3347V88.98L101.595 98.5H103.175L107.415 88.98V98.5H109.695V84.6H107.255L102.395 95.5L97.5147 84.6H95.0547V98.5ZM123.191 92.98C123.191 89.52 120.711 87.3 117.571 87.3C114.431 87.3 111.951 89.52 111.951 92.98C111.951 96.44 114.331 98.68 117.471 98.68C120.631 98.68 123.191 96.44 123.191 92.98ZM114.271 92.98C114.271 90.48 115.811 89.28 117.531 89.28C119.231 89.28 120.851 90.48 120.851 92.98C120.851 95.48 119.171 96.7 117.471 96.7C115.751 96.7 114.271 95.48 114.271 92.98ZM124.685 92.94C124.685 96.34 126.985 98.68 129.885 98.68C131.685 98.68 133.005 97.84 133.705 96.84V98.5H136.005V83.7H133.705V89.02C132.865 87.98 131.345 87.3 129.905 87.3C126.985 87.3 124.685 89.54 124.685 92.94ZM133.705 92.98C133.705 95.36 132.085 96.7 130.365 96.7C128.665 96.7 127.025 95.32 127.025 92.94C127.025 90.56 128.665 89.28 130.365 89.28C132.085 89.28 133.705 90.62 133.705 92.98ZM143.64 89.22C145.34 89.22 146.68 90.3 146.72 92H140.62C140.86 90.26 142.1 89.22 143.64 89.22ZM148.8 95.22H146.34C145.92 96.08 145.14 96.76 143.74 96.76C142.06 96.76 140.76 95.66 140.6 93.84H149.02C149.08 93.46 149.1 93.1 149.1 92.72C149.1 89.48 146.88 87.3 143.74 87.3C140.48 87.3 138.24 89.52 138.24 92.98C138.24 96.44 140.58 98.68 143.74 98.68C146.44 98.68 148.18 97.14 148.8 95.22ZM151.344 98.5H153.624V83.7H151.344V98.5ZM156.617 98.5H158.897V83.7H156.617V98.5ZM161.891 98.5H164.171V87.48H161.891V98.5ZM163.051 86.02C163.851 86.02 164.491 85.38 164.491 84.56C164.491 83.74 163.851 83.1 163.051 83.1C162.231 83.1 161.591 83.74 161.591 84.56C161.591 85.38 162.231 86.02 163.051 86.02ZM174.984 98.5H177.244V92C177.244 88.92 175.304 87.3 172.724 87.3C171.404 87.3 170.184 87.84 169.444 88.74V87.48H167.164V98.5H169.444V92.34C169.444 90.32 170.544 89.28 172.224 89.28C173.884 89.28 174.984 90.32 174.984 92.34V98.5ZM179.392 92.94C179.392 96.34 181.692 98.68 184.592 98.68C186.392 98.68 187.712 97.78 188.412 96.84V98.68C188.412 100.88 187.092 101.96 185.332 101.96C183.752 101.96 182.532 101.18 182.192 100.04H179.932C180.212 102.48 182.392 103.94 185.332 103.94C188.772 103.94 190.712 101.68 190.712 98.68V87.48H188.412V89.08C187.732 88.14 186.392 87.3 184.592 87.3C181.692 87.3 179.392 89.54 179.392 92.94ZM188.412 92.98C188.412 95.36 186.792 96.7 185.072 96.7C183.372 96.7 181.732 95.32 181.732 92.94C181.732 90.56 183.372 89.28 185.072 89.28C186.792 89.28 188.412 90.62 188.412 92.98ZM198.142 92.94C198.142 96.34 200.442 98.68 203.302 98.68C205.142 98.68 206.462 97.8 207.162 96.86V98.5H209.462V87.48H207.162V89.08C206.482 88.18 205.202 87.3 203.342 87.3C200.442 87.3 198.142 89.54 198.142 92.94ZM207.162 92.98C207.162 95.36 205.542 96.7 203.822 96.7C202.122 96.7 200.482 95.32 200.482 92.94C200.482 90.56 202.122 89.28 203.822 89.28C205.542 89.28 207.162 90.62 207.162 92.98ZM220.277 98.5H222.537V92C222.537 88.92 220.597 87.3 218.017 87.3C216.697 87.3 215.477 87.84 214.737 88.74V87.48H212.457V98.5H214.737V92.34C214.737 90.32 215.837 89.28 217.517 89.28C219.177 89.28 220.277 90.32 220.277 92.34V98.5ZM224.685 92.94C224.685 96.34 226.985 98.68 229.885 98.68C231.685 98.68 233.005 97.84 233.705 96.84V98.5H236.005V83.7H233.705V89.02C232.865 87.98 231.345 87.3 229.905 87.3C226.985 87.3 224.685 89.54 224.685 92.94ZM233.705 92.98C233.705 95.36 232.085 96.7 230.365 96.7C228.665 96.7 227.025 95.32 227.025 92.94C227.025 90.56 228.665 89.28 230.365 89.28C232.085 89.28 233.705 90.62 233.705 92.98ZM249.635 96.16L245.515 84.6H243.075L248.315 98.5H250.955L256.175 84.6H253.775L249.635 96.16ZM258.082 98.5H260.362V87.48H258.082V98.5ZM259.242 86.02C260.042 86.02 260.682 85.38 260.682 84.56C260.682 83.74 260.042 83.1 259.242 83.1C258.422 83.1 257.782 83.74 257.782 84.56C257.782 85.38 258.422 86.02 259.242 86.02ZM271.575 95.42C271.455 91.44 265.235 92.68 265.235 90.46C265.235 89.72 265.875 89.22 267.095 89.22C268.335 89.22 269.075 89.88 269.155 90.84H271.435C271.315 88.64 269.675 87.3 267.175 87.3C264.575 87.3 262.935 88.72 262.935 90.48C262.935 94.52 269.335 93.28 269.335 95.44C269.335 96.2 268.635 96.76 267.315 96.76C266.055 96.76 265.195 96.02 265.115 95.12H262.755C262.855 97.12 264.715 98.68 267.355 98.68C269.955 98.68 271.575 97.28 271.575 95.42ZM284.019 87.48H281.739V93.62C281.739 95.64 280.639 96.68 278.959 96.68C277.299 96.68 276.199 95.64 276.199 93.62V87.48H273.939V93.96C273.939 97.04 275.899 98.66 278.479 98.66C279.779 98.66 281.019 98.12 281.739 97.18V98.5H284.019V87.48ZM286.267 92.94C286.267 96.34 288.567 98.68 291.427 98.68C293.267 98.68 294.587 97.8 295.287 96.86V98.5H297.587V87.48H295.287V89.08C294.607 88.18 293.327 87.3 291.467 87.3C288.567 87.3 286.267 89.54 286.267 92.94ZM295.287 92.98C295.287 95.36 293.667 96.7 291.947 96.7C290.247 96.7 288.607 95.32 288.607 92.94C288.607 90.56 290.247 89.28 291.947 89.28C293.667 89.28 295.287 90.62 295.287 92.98ZM300.582 98.5H302.862V83.7H300.582V98.5ZM305.855 98.5H308.135V87.48H305.855V98.5ZM307.015 86.02C307.815 86.02 308.455 85.38 308.455 84.56C308.455 83.74 307.815 83.1 307.015 83.1C306.195 83.1 305.555 83.74 305.555 84.56C305.555 85.38 306.195 86.02 307.015 86.02ZM319.349 95.42C319.229 91.44 313.009 92.68 313.009 90.46C313.009 89.72 313.649 89.22 314.869 89.22C316.109 89.22 316.849 89.88 316.929 90.84H319.209C319.089 88.64 317.449 87.3 314.949 87.3C312.349 87.3 310.709 88.72 310.709 90.48C310.709 94.52 317.109 93.28 317.109 95.44C317.109 96.2 316.409 96.76 315.089 96.76C313.829 96.76 312.969 96.02 312.889 95.12H310.529C310.629 97.12 312.489 98.68 315.129 98.68C317.729 98.68 319.349 97.28 319.349 95.42ZM321.053 92.94C321.053 96.34 323.353 98.68 326.213 98.68C328.053 98.68 329.373 97.8 330.073 96.86V98.5H332.373V87.48H330.073V89.08C329.393 88.18 328.113 87.3 326.253 87.3C323.353 87.3 321.053 89.54 321.053 92.94ZM330.073 92.98C330.073 95.36 328.453 96.7 326.733 96.7C325.033 96.7 323.393 95.32 323.393 92.94C323.393 90.56 325.033 89.28 326.733 89.28C328.453 89.28 330.073 90.62 330.073 92.98ZM335.727 95.44C335.727 97.68 336.947 98.5 338.907 98.5H340.707V96.6H339.307C338.347 96.6 338.027 96.26 338.027 95.44V89.34H340.707V87.48H338.027V84.74H335.727V87.48H334.427V89.34H335.727V95.44ZM342.809 98.5H345.089V87.48H342.809V98.5ZM343.969 86.02C344.769 86.02 345.409 85.38 345.409 84.56C345.409 83.74 344.769 83.1 343.969 83.1C343.149 83.1 342.509 83.74 342.509 84.56C342.509 85.38 343.149 86.02 343.969 86.02ZM358.582 92.98C358.582 89.52 356.102 87.3 352.962 87.3C349.822 87.3 347.342 89.52 347.342 92.98C347.342 96.44 349.722 98.68 352.862 98.68C356.022 98.68 358.582 96.44 358.582 92.98ZM349.662 92.98C349.662 90.48 351.202 89.28 352.922 89.28C354.622 89.28 356.242 90.48 356.242 92.98C356.242 95.48 354.562 96.7 352.862 96.7C351.142 96.7 349.662 95.48 349.662 92.98ZM368.656 98.5H370.916V92C370.916 88.92 368.976 87.3 366.396 87.3C365.076 87.3 363.856 87.84 363.116 88.74V87.48H360.836V98.5H363.116V92.34C363.116 90.32 364.216 89.28 365.896 89.28C367.556 89.28 368.656 90.32 368.656 92.34V98.5Z" fill="#212832"/>
<rect x="0.5" y="66.5" width="616" height="49" stroke="black" stroke-opacity="0.5"/>
<rect y="294" width="617" height="50" fill="white"/>
<path d="M24.6 322.44C26.08 322.44 27.24 321.3 27.24 319.84C27.24 318.36 26.08 317.22 24.6 317.22C23.16 317.22 22 318.36 22 319.84C22 321.3 23.16 322.44 24.6 322.44ZM41.1289 326.5H43.4089V312.6H41.1289V326.5ZM53.8223 326.5H56.0823V320C56.0823 316.92 54.1423 315.3 51.5623 315.3C50.2423 315.3 49.0223 315.84 48.2823 316.74V315.48H46.0023V326.5H48.2823V320.34C48.2823 318.32 49.3823 317.28 51.0623 317.28C52.7223 317.28 53.8223 318.32 53.8223 320.34V326.5ZM58.9506 323.44C58.9506 325.68 60.1706 326.5 62.1306 326.5H63.9306V324.6H62.5306C61.5706 324.6 61.2506 324.26 61.2506 323.44V317.34H63.9306V315.48H61.2506V312.74H58.9506V315.48H57.6506V317.34H58.9506V323.44ZM67.912 320.7C67.912 318.36 68.952 317.66 70.632 317.66H71.212V315.3C69.652 315.3 68.552 315.98 67.912 317.08V315.48H65.632V326.5H67.912V320.7ZM83.4078 320.98C83.4078 317.52 80.9278 315.3 77.7878 315.3C74.6478 315.3 72.1678 317.52 72.1678 320.98C72.1678 324.44 74.5478 326.68 77.6878 326.68C80.8478 326.68 83.4078 324.44 83.4078 320.98ZM74.4878 320.98C74.4878 318.48 76.0278 317.28 77.7478 317.28C79.4478 317.28 81.0678 318.48 81.0678 320.98C81.0678 323.48 79.3878 324.7 77.6878 324.7C75.9678 324.7 74.4878 323.48 74.4878 320.98ZM84.5017 320.94C84.5017 324.34 86.8017 326.68 89.7017 326.68C91.5017 326.68 92.8217 325.84 93.5217 324.84V326.5H95.8217V311.7H93.5217V317.02C92.6817 315.98 91.1617 315.3 89.7217 315.3C86.8017 315.3 84.5017 317.54 84.5017 320.94ZM93.5217 320.98C93.5217 323.36 91.9017 324.7 90.1817 324.7C88.4817 324.7 86.8417 323.32 86.8417 320.94C86.8417 318.56 88.4817 317.28 90.1817 317.28C91.9017 317.28 93.5217 318.62 93.5217 320.98ZM108.396 315.48H106.116V321.62C106.116 323.64 105.016 324.68 103.336 324.68C101.676 324.68 100.576 323.64 100.576 321.62V315.48H98.3164V321.96C98.3164 325.04 100.276 326.66 102.856 326.66C104.156 326.66 105.396 326.12 106.116 325.18V326.5H108.396V315.48ZM110.245 320.98C110.245 324.44 112.485 326.68 115.645 326.68C118.345 326.68 120.105 325.18 120.725 323.02H118.265C117.845 324.16 117.005 324.76 115.645 324.76C113.805 324.76 112.585 323.4 112.585 320.98C112.585 318.58 113.805 317.22 115.645 317.22C117.005 317.22 117.885 317.9 118.265 318.96H120.725C120.105 316.64 118.345 315.3 115.645 315.3C112.485 315.3 110.245 317.54 110.245 320.98ZM122.957 323.44C122.957 325.68 124.177 326.5 126.137 326.5H127.937V324.6H126.537C125.577 324.6 125.257 324.26 125.257 323.44V317.34H127.937V315.48H125.257V312.74H122.957V315.48H121.657V317.34H122.957V323.44ZM129.638 326.5H131.918V315.48H129.638V326.5ZM130.798 314.02C131.598 314.02 132.238 313.38 132.238 312.56C132.238 311.74 131.598 311.1 130.798 311.1C129.978 311.1 129.338 311.74 129.338 312.56C129.338 313.38 129.978 314.02 130.798 314.02ZM145.012 320.98C145.012 317.52 142.532 315.3 139.392 315.3C136.252 315.3 133.772 317.52 133.772 320.98C133.772 324.44 136.152 326.68 139.292 326.68C142.452 326.68 145.012 324.44 145.012 320.98ZM136.092 320.98C136.092 318.48 137.632 317.28 139.352 317.28C141.052 317.28 142.672 318.48 142.672 320.98C142.672 323.48 140.992 324.7 139.292 324.7C137.572 324.7 136.092 323.48 136.092 320.98ZM154.686 326.5H156.946V320C156.946 316.92 155.006 315.3 152.426 315.3C151.106 315.3 149.886 315.84 149.146 316.74V315.48H146.866V326.5H149.146V320.34C149.146 318.32 150.246 317.28 151.926 317.28C153.586 317.28 154.686 318.32 154.686 320.34V326.5ZM164.609 323.44C164.609 325.68 165.829 326.5 167.789 326.5H169.589V324.6H168.189C167.229 324.6 166.909 324.26 166.909 323.44V317.34H169.589V315.48H166.909V312.74H164.609V315.48H163.309V317.34H164.609V323.44ZM181.791 320.98C181.791 317.52 179.311 315.3 176.171 315.3C173.031 315.3 170.551 317.52 170.551 320.98C170.551 324.44 172.931 326.68 176.071 326.68C179.231 326.68 181.791 324.44 181.791 320.98ZM172.871 320.98C172.871 318.48 174.411 317.28 176.131 317.28C177.831 317.28 179.451 318.48 179.451 320.98C179.451 323.48 177.771 324.7 176.071 324.7C174.351 324.7 172.871 323.48 172.871 320.98ZM190.72 319V314.46H193.24C195.02 314.46 195.82 315.3 195.82 316.74C195.82 318.14 195.02 319 193.24 319H190.72ZM198.16 316.74C198.16 314.48 196.54 312.6 193.24 312.6H188.44V326.5H190.72V320.86H193.24C196.86 320.86 198.16 318.72 198.16 316.74ZM199.174 320.94C199.174 324.34 201.474 326.68 204.334 326.68C206.174 326.68 207.494 325.8 208.194 324.86V326.5H210.494V315.48H208.194V317.08C207.514 316.18 206.234 315.3 204.374 315.3C201.474 315.3 199.174 317.54 199.174 320.94ZM208.194 320.98C208.194 323.36 206.574 324.7 204.854 324.7C203.154 324.7 201.514 323.32 201.514 320.94C201.514 318.56 203.154 317.28 204.854 317.28C206.574 317.28 208.194 318.62 208.194 320.98ZM215.369 320.7C215.369 318.36 216.409 317.66 218.089 317.66H218.669V315.3C217.109 315.3 216.009 315.98 215.369 317.08V315.48H213.089V326.5H215.369V320.7ZM219.605 320.94C219.605 324.34 221.905 326.68 224.765 326.68C226.605 326.68 227.925 325.8 228.625 324.86V326.5H230.925V315.48H228.625V317.08C227.945 316.18 226.665 315.3 224.805 315.3C221.905 315.3 219.605 317.54 219.605 320.94ZM228.625 320.98C228.625 323.36 227.005 324.7 225.285 324.7C223.585 324.7 221.945 323.32 221.945 320.94C221.945 318.56 223.585 317.28 225.285 317.28C227.005 317.28 228.625 318.62 228.625 320.98ZM233.52 326.5H235.8V311.7H233.52V326.5ZM238.393 326.5H240.673V311.7H238.393V326.5ZM247.906 317.22C249.606 317.22 250.946 318.3 250.986 320H244.886C245.126 318.26 246.366 317.22 247.906 317.22ZM253.066 323.22H250.606C250.186 324.08 249.406 324.76 248.006 324.76C246.326 324.76 245.026 323.66 244.866 321.84H253.286C253.346 321.46 253.366 321.1 253.366 320.72C253.366 317.48 251.146 315.3 248.006 315.3C244.746 315.3 242.506 317.52 242.506 320.98C242.506 324.44 244.846 326.68 248.006 326.68C250.706 326.68 252.446 325.14 253.066 323.22ZM255.21 326.5H257.49V311.7H255.21V326.5ZM267.159 319V314.46H269.679C271.459 314.46 272.259 315.3 272.259 316.74C272.259 318.14 271.459 319 269.679 319H267.159ZM274.599 316.74C274.599 314.48 272.979 312.6 269.679 312.6H264.879V326.5H267.159V320.86H269.679C273.299 320.86 274.599 318.72 274.599 316.74ZM278.653 320.7C278.653 318.36 279.693 317.66 281.373 317.66H281.953V315.3C280.393 315.3 279.293 315.98 278.653 317.08V315.48H276.373V326.5H278.653V320.7ZM294.149 320.98C294.149 317.52 291.669 315.3 288.529 315.3C285.389 315.3 282.909 317.52 282.909 320.98C282.909 324.44 285.289 326.68 288.429 326.68C291.589 326.68 294.149 324.44 294.149 320.98ZM285.229 320.98C285.229 318.48 286.769 317.28 288.489 317.28C290.189 317.28 291.809 318.48 291.809 320.98C291.809 323.48 290.129 324.7 288.429 324.7C286.709 324.7 285.229 323.48 285.229 320.98ZM295.243 320.94C295.243 324.34 297.543 326.68 300.443 326.68C302.243 326.68 303.563 325.78 304.263 324.84V326.68C304.263 328.88 302.943 329.96 301.183 329.96C299.603 329.96 298.383 329.18 298.043 328.04H295.783C296.063 330.48 298.243 331.94 301.183 331.94C304.623 331.94 306.563 329.68 306.563 326.68V315.48H304.263V317.08C303.583 316.14 302.243 315.3 300.443 315.3C297.543 315.3 295.243 317.54 295.243 320.94ZM304.263 320.98C304.263 323.36 302.643 324.7 300.923 324.7C299.223 324.7 297.583 323.32 297.583 320.94C297.583 318.56 299.223 317.28 300.923 317.28C302.643 317.28 304.263 318.62 304.263 320.98ZM311.438 320.7C311.438 318.36 312.478 317.66 314.158 317.66H314.738V315.3C313.178 315.3 312.078 315.98 311.438 317.08V315.48H309.158V326.5H311.438V320.7ZM315.674 320.94C315.674 324.34 317.974 326.68 320.834 326.68C322.674 326.68 323.994 325.8 324.694 324.86V326.5H326.994V315.48H324.694V317.08C324.014 316.18 322.734 315.3 320.874 315.3C317.974 315.3 315.674 317.54 315.674 320.94ZM324.694 320.98C324.694 323.36 323.074 324.7 321.354 324.7C319.654 324.7 318.014 323.32 318.014 320.94C318.014 318.56 319.654 317.28 321.354 317.28C323.074 317.28 324.694 318.62 324.694 320.98ZM345.208 326.5H347.468V320C347.468 316.92 345.508 315.3 342.928 315.3C341.328 315.3 339.768 316.14 339.088 317.48C338.328 316.04 336.868 315.3 335.128 315.3C333.808 315.3 332.608 315.84 331.868 316.74V315.48H329.588V326.5H331.868V320.34C331.868 318.32 332.968 317.28 334.648 317.28C336.308 317.28 337.408 318.32 337.408 320.34V326.5H339.668V320.34C339.668 318.32 340.768 317.28 342.448 317.28C344.108 317.28 345.208 318.32 345.208 320.34V326.5ZM365.59 326.5H367.85V320C367.85 316.92 365.89 315.3 363.31 315.3C361.71 315.3 360.15 316.14 359.47 317.48C358.71 316.04 357.25 315.3 355.51 315.3C354.19 315.3 352.99 315.84 352.25 316.74V315.48H349.97V326.5H352.25V320.34C352.25 318.32 353.35 317.28 355.03 317.28C356.69 317.28 357.79 318.32 357.79 320.34V326.5H360.05V320.34C360.05 318.32 361.15 317.28 362.83 317.28C364.49 317.28 365.59 318.32 365.59 320.34V326.5ZM370.351 326.5H372.631V315.48H370.351V326.5ZM371.511 314.02C372.311 314.02 372.951 313.38 372.951 312.56C372.951 311.74 372.311 311.1 371.511 311.1C370.691 311.1 370.051 311.74 370.051 312.56C370.051 313.38 370.691 314.02 371.511 314.02ZM383.044 326.5H385.304V320C385.304 316.92 383.364 315.3 380.784 315.3C379.464 315.3 378.244 315.84 377.504 316.74V315.48H375.224V326.5H377.504V320.34C377.504 318.32 378.604 317.28 380.284 317.28C381.944 317.28 383.044 318.32 383.044 320.34V326.5ZM387.053 320.94C387.053 324.34 389.353 326.68 392.253 326.68C394.053 326.68 395.373 325.78 396.073 324.84V326.68C396.073 328.88 394.753 329.96 392.993 329.96C391.413 329.96 390.193 329.18 389.853 328.04H387.593C387.873 330.48 390.053 331.94 392.993 331.94C396.433 331.94 398.373 329.68 398.373 326.68V315.48H396.073V317.08C395.393 316.14 394.053 315.3 392.253 315.3C389.353 315.3 387.053 317.54 387.053 320.94ZM396.073 320.98C396.073 323.36 394.453 324.7 392.733 324.7C391.033 324.7 389.393 323.32 389.393 320.94C389.393 318.56 391.033 317.28 392.733 317.28C394.453 317.28 396.073 318.62 396.073 320.98ZM414.603 315.7C414.743 313.8 413.443 312.28 411.023 312.28C408.643 312.28 407.163 313.66 407.163 315.48C407.163 316.46 407.443 317.2 408.223 318.14C406.023 319.04 404.963 320.62 404.963 322.5C404.963 325.1 406.963 326.76 409.963 326.76C411.903 326.76 413.443 326.12 414.783 324.78L416.503 326.5H419.483L416.103 323.14C416.263 322.88 416.443 322.6 416.603 322.32L418.403 319.24H415.943L414.523 321.58L410.843 317.92C409.863 316.86 409.443 316.24 409.443 315.48C409.443 314.74 410.023 314.14 410.923 314.14C411.783 314.14 412.363 314.68 412.323 315.7H414.603ZM409.963 324.82C408.323 324.82 407.243 323.76 407.243 322.42C407.243 321.18 407.983 320.22 409.603 319.58L413.283 323.28C412.323 324.3 411.263 324.82 409.963 324.82ZM429.913 312.6H425.373V326.5H429.913C434.373 326.5 437.293 323.88 437.293 319.6C437.293 315.3 434.373 312.6 429.913 312.6ZM427.653 324.64V314.46H429.913C433.193 314.46 434.953 316.42 434.953 319.6C434.953 322.76 433.193 324.64 429.913 324.64H427.653ZM438.392 320.94C438.392 324.34 440.692 326.68 443.552 326.68C445.392 326.68 446.712 325.8 447.412 324.86V326.5H449.712V315.48H447.412V317.08C446.732 316.18 445.452 315.3 443.592 315.3C440.692 315.3 438.392 317.54 438.392 320.94ZM447.412 320.98C447.412 323.36 445.792 324.7 444.072 324.7C442.372 324.7 440.732 323.32 440.732 320.94C440.732 318.56 442.372 317.28 444.072 317.28C445.792 317.28 447.412 318.62 447.412 320.98ZM452.667 323.44C452.667 325.68 453.887 326.5 455.847 326.5H457.647V324.6H456.247C455.287 324.6 454.967 324.26 454.967 323.44V317.34H457.647V315.48H454.967V312.74H452.667V315.48H451.367V317.34H452.667V323.44ZM458.588 320.94C458.588 324.34 460.888 326.68 463.748 326.68C465.588 326.68 466.908 325.8 467.608 324.86V326.5H469.908V315.48H467.608V317.08C466.928 316.18 465.648 315.3 463.788 315.3C460.888 315.3 458.588 317.54 458.588 320.94ZM467.608 320.98C467.608 323.36 465.988 324.7 464.268 324.7C462.568 324.7 460.928 323.32 460.928 320.94C460.928 318.56 462.568 317.28 464.268 317.28C465.988 317.28 467.608 318.62 467.608 320.98ZM490.738 319.52C490.738 315.36 487.598 312.42 483.638 312.42C479.718 312.42 476.538 315.36 476.538 319.52C476.538 323.7 479.718 326.64 483.638 326.64C487.598 326.64 490.738 323.7 490.738 319.52ZM478.878 319.52C478.878 316.38 480.878 314.42 483.638 314.42C486.398 314.42 488.398 316.38 488.398 319.52C488.398 322.66 486.398 324.66 483.638 324.66C480.878 324.66 478.878 322.66 478.878 319.52ZM494.862 317.1V315.48H492.582V331.74H494.862V324.9C495.582 325.76 496.882 326.68 498.702 326.68C501.602 326.68 503.882 324.34 503.882 320.94C503.882 317.54 501.602 315.3 498.702 315.3C496.902 315.3 495.562 316.18 494.862 317.1ZM501.562 320.94C501.562 323.32 499.922 324.7 498.202 324.7C496.502 324.7 494.862 323.36 494.862 320.98C494.862 318.62 496.502 317.28 498.202 317.28C499.922 317.28 501.562 318.56 501.562 320.94ZM506.097 323.44C506.097 325.68 507.317 326.5 509.277 326.5H511.077V324.6H509.677C508.717 324.6 508.397 324.26 508.397 323.44V317.34H511.077V315.48H508.397V312.74H506.097V315.48H504.797V317.34H506.097V323.44ZM512.778 326.5H515.058V315.48H512.778V326.5ZM513.938 314.02C514.738 314.02 515.378 313.38 515.378 312.56C515.378 311.74 514.738 311.1 513.938 311.1C513.118 311.1 512.478 311.74 512.478 312.56C512.478 313.38 513.118 314.02 513.938 314.02ZM533.272 326.5H535.532V320C535.532 316.92 533.572 315.3 530.992 315.3C529.392 315.3 527.832 316.14 527.152 317.48C526.392 316.04 524.932 315.3 523.192 315.3C521.872 315.3 520.672 315.84 519.932 316.74V315.48H517.652V326.5H519.932V320.34C519.932 318.32 521.032 317.28 522.712 317.28C524.372 317.28 525.472 318.32 525.472 320.34V326.5H527.732V320.34C527.732 318.32 528.832 317.28 530.512 317.28C532.172 317.28 533.272 318.32 533.272 320.34V326.5ZM538.033 326.5H540.313V315.48H538.033V326.5ZM539.193 314.02C539.993 314.02 540.633 313.38 540.633 312.56C540.633 311.74 539.993 311.1 539.193 311.1C538.373 311.1 537.733 311.74 537.733 312.56C537.733 313.38 538.373 314.02 539.193 314.02ZM549.926 315.48H542.286V317.34H547.306L542.286 324.64V326.5H549.926V324.64H544.926L549.926 317.34V315.48ZM551.16 320.94C551.16 324.34 553.46 326.68 556.32 326.68C558.16 326.68 559.48 325.8 560.18 324.86V326.5H562.48V315.48H560.18V317.08C559.5 316.18 558.22 315.3 556.36 315.3C553.46 315.3 551.16 317.54 551.16 320.94ZM560.18 320.98C560.18 323.36 558.56 324.7 556.84 324.7C555.14 324.7 553.5 323.32 553.5 320.94C553.5 318.56 555.14 317.28 556.84 317.28C558.56 317.28 560.18 318.62 560.18 320.98ZM565.435 323.44C565.435 325.68 566.655 326.5 568.615 326.5H570.415V324.6H569.015C568.055 324.6 567.735 324.26 567.735 323.44V317.34H570.415V315.48H567.735V312.74H565.435V315.48H564.135V317.34H565.435V323.44ZM572.116 326.5H574.396V315.48H572.116V326.5ZM573.276 314.02C574.076 314.02 574.716 313.38 574.716 312.56C574.716 311.74 574.076 311.1 573.276 311.1C572.456 311.1 571.816 311.74 571.816 312.56C571.816 313.38 572.456 314.02 573.276 314.02ZM587.49 320.98C587.49 317.52 585.01 315.3 581.87 315.3C578.73 315.3 576.25 317.52 576.25 320.98C576.25 324.44 578.63 326.68 581.77 326.68C584.93 326.68 587.49 324.44 587.49 320.98ZM578.57 320.98C578.57 318.48 580.11 317.28 581.83 317.28C583.53 317.28 585.15 318.48 585.15 320.98C585.15 323.48 583.47 324.7 581.77 324.7C580.05 324.7 578.57 323.48 578.57 320.98ZM597.164 326.5H599.424V320C599.424 316.92 597.484 315.3 594.904 315.3C593.584 315.3 592.364 315.84 591.624 316.74V315.48H589.344V326.5H591.624V320.34C591.624 318.32 592.724 317.28 594.404 317.28C596.064 317.28 597.164 318.32 597.164 320.34V326.5Z" fill="#212832"/>
<rect x="0.5" y="294.5" width="616" height="49" stroke="black" stroke-opacity="0.5"/>
<rect y="180" width="617" height="50" fill="white"/>
<path d="M24.6 208.44C26.08 208.44 27.24 207.3 27.24 205.84C27.24 204.36 26.08 203.22 24.6 203.22C23.16 203.22 22 204.36 22 205.84C22 207.3 23.16 208.44 24.6 208.44ZM41.1289 212.5H43.4089V202.98L47.6689 212.5H49.2489L53.4889 202.98V212.5H55.7689V198.6H53.3289L48.4689 209.5L43.5889 198.6H41.1289V212.5ZM58.0056 206.94C58.0056 210.34 60.3056 212.68 63.1656 212.68C65.0056 212.68 66.3256 211.8 67.0256 210.86V212.5H69.3256V201.48H67.0256V203.08C66.3456 202.18 65.0656 201.3 63.2056 201.3C60.3056 201.3 58.0056 203.54 58.0056 206.94ZM67.0256 206.98C67.0256 209.36 65.4056 210.7 63.6856 210.7C61.9856 210.7 60.3456 209.32 60.3456 206.94C60.3456 204.56 61.9856 203.28 63.6856 203.28C65.4056 203.28 67.0256 204.62 67.0256 206.98ZM71.5603 206.98C71.5603 210.44 73.8003 212.68 76.9603 212.68C79.6603 212.68 81.4203 211.18 82.0403 209.02H79.5803C79.1603 210.16 78.3203 210.76 76.9603 210.76C75.1203 210.76 73.9003 209.4 73.9003 206.98C73.9003 204.58 75.1203 203.22 76.9603 203.22C78.3203 203.22 79.2003 203.9 79.5803 204.96H82.0403C81.4203 202.64 79.6603 201.3 76.9603 201.3C73.8003 201.3 71.5603 203.54 71.5603 206.98ZM84.3125 212.5H86.5925V206.34C86.5925 204.32 87.6925 203.28 89.3725 203.28C91.0325 203.28 92.1325 204.32 92.1325 206.34V212.5H94.3925V206C94.3925 202.92 92.4725 201.3 90.0125 201.3C88.5925 201.3 87.3525 201.84 86.5925 202.76V197.7H84.3125V212.5ZM97.3008 212.5H99.5808V201.48H97.3008V212.5ZM98.4608 200.02C99.2608 200.02 99.9008 199.38 99.9008 198.56C99.9008 197.74 99.2608 197.1 98.4608 197.1C97.6408 197.1 97.0008 197.74 97.0008 198.56C97.0008 199.38 97.6408 200.02 98.4608 200.02ZM110.394 212.5H112.654V206C112.654 202.92 110.714 201.3 108.134 201.3C106.814 201.3 105.594 201.84 104.854 202.74V201.48H102.574V212.5H104.854V206.34C104.854 204.32 105.954 203.28 107.634 203.28C109.294 203.28 110.394 204.32 110.394 206.34V212.5ZM120.203 203.22C121.903 203.22 123.243 204.3 123.283 206H117.183C117.423 204.26 118.663 203.22 120.203 203.22ZM125.362 209.22H122.903C122.483 210.08 121.703 210.76 120.303 210.76C118.623 210.76 117.323 209.66 117.163 207.84H125.583C125.643 207.46 125.663 207.1 125.663 206.72C125.663 203.48 123.443 201.3 120.303 201.3C117.043 201.3 114.803 203.52 114.803 206.98C114.803 210.44 117.143 212.68 120.303 212.68C123.003 212.68 124.743 211.14 125.362 209.22ZM133.102 198.6V212.5H140.082V210.66H135.382V198.6H133.102ZM146.628 203.22C148.328 203.22 149.668 204.3 149.708 206H143.608C143.848 204.26 145.088 203.22 146.628 203.22ZM151.788 209.22H149.328C148.908 210.08 148.128 210.76 146.728 210.76C145.048 210.76 143.748 209.66 143.588 207.84H152.008C152.068 207.46 152.088 207.1 152.088 206.72C152.088 203.48 149.868 201.3 146.728 201.3C143.468 201.3 141.228 203.52 141.228 206.98C141.228 210.44 143.568 212.68 146.728 212.68C149.428 212.68 151.168 211.14 151.788 209.22ZM153.572 206.94C153.572 210.34 155.872 212.68 158.732 212.68C160.572 212.68 161.892 211.8 162.592 210.86V212.5H164.892V201.48H162.592V203.08C161.912 202.18 160.632 201.3 158.772 201.3C155.872 201.3 153.572 203.54 153.572 206.94ZM162.592 206.98C162.592 209.36 160.972 210.7 159.252 210.7C157.552 210.7 155.912 209.32 155.912 206.94C155.912 204.56 157.552 203.28 159.252 203.28C160.972 203.28 162.592 204.62 162.592 206.98ZM170.167 206.7C170.167 204.36 171.207 203.66 172.887 203.66H173.467V201.3C171.907 201.3 170.807 201.98 170.167 203.08V201.48H167.887V212.5H170.167V206.7ZM183.383 212.5H185.643V206C185.643 202.92 183.703 201.3 181.123 201.3C179.803 201.3 178.583 201.84 177.843 202.74V201.48H175.563V212.5H177.843V206.34C177.843 204.32 178.943 203.28 180.623 203.28C182.283 203.28 183.383 204.32 183.383 206.34V212.5ZM188.551 212.5H190.831V201.48H188.551V212.5ZM189.711 200.02C190.511 200.02 191.151 199.38 191.151 198.56C191.151 197.74 190.511 197.1 189.711 197.1C188.891 197.1 188.251 197.74 188.251 198.56C188.251 199.38 188.891 200.02 189.711 200.02ZM201.644 212.5H203.904V206C203.904 202.92 201.964 201.3 199.384 201.3C198.064 201.3 196.844 201.84 196.104 202.74V201.48H193.824V212.5H196.104V206.34C196.104 204.32 197.204 203.28 198.884 203.28C200.544 203.28 201.644 204.32 201.644 206.34V212.5ZM206.053 206.94C206.053 210.34 208.353 212.68 211.253 212.68C213.053 212.68 214.373 211.78 215.073 210.84V212.68C215.073 214.88 213.753 215.96 211.993 215.96C210.413 215.96 209.193 215.18 208.853 214.04H206.593C206.873 216.48 209.053 217.94 211.993 217.94C215.433 217.94 217.373 215.68 217.373 212.68V201.48H215.073V203.08C214.393 202.14 213.053 201.3 211.253 201.3C208.353 201.3 206.053 203.54 206.053 206.94ZM215.073 206.98C215.073 209.36 213.453 210.7 211.733 210.7C210.033 210.7 208.393 209.32 208.393 206.94C208.393 204.56 210.033 203.28 211.733 203.28C213.453 203.28 215.073 204.62 215.073 206.98Z" fill="#212832"/>
<rect x="0.5" y="180.5" width="616" height="49" stroke="black" stroke-opacity="0.5"/>
<rect y="408" width="617" height="50" fill="white"/>
<path d="M24.6 436.44C26.08 436.44 27.24 435.3 27.24 433.84C27.24 432.36 26.08 431.22 24.6 431.22C23.16 431.22 22 432.36 22 433.84C22 435.3 23.16 436.44 24.6 436.44ZM41.1289 440.5H43.4089V426.6H41.1289V440.5ZM54.2223 440.5H56.4823V434C56.4823 430.92 54.5423 429.3 51.9623 429.3C50.6423 429.3 49.4223 429.84 48.6823 430.74V429.48H46.4023V440.5H48.6823V434.34C48.6823 432.32 49.7823 431.28 51.4623 431.28C53.1223 431.28 54.2223 432.32 54.2223 434.34V440.5ZM59.7506 437.44C59.7506 439.68 60.9706 440.5 62.9306 440.5H64.7306V438.6H63.3306C62.3706 438.6 62.0506 438.26 62.0506 437.44V431.34H64.7306V429.48H62.0506V426.74H59.7506V429.48H58.4506V431.34H59.7506V437.44ZM69.112 434.7C69.112 432.36 70.152 431.66 71.832 431.66H72.412V429.3C70.852 429.3 69.752 429.98 69.112 431.08V429.48H66.832V440.5H69.112V434.7ZM85.0078 434.98C85.0078 431.52 82.5278 429.3 79.3878 429.3C76.2478 429.3 73.7678 431.52 73.7678 434.98C73.7678 438.44 76.1478 440.68 79.2878 440.68C82.4478 440.68 85.0078 438.44 85.0078 434.98ZM76.0878 434.98C76.0878 432.48 77.6278 431.28 79.3478 431.28C81.0478 431.28 82.6678 432.48 82.6678 434.98C82.6678 437.48 80.9878 438.7 79.2878 438.7C77.5678 438.7 76.0878 437.48 76.0878 434.98ZM86.5017 434.94C86.5017 438.34 88.8017 440.68 91.7017 440.68C93.5017 440.68 94.8217 439.84 95.5217 438.84V440.5H97.8217V425.7H95.5217V431.02C94.6817 429.98 93.1617 429.3 91.7217 429.3C88.8017 429.3 86.5017 431.54 86.5017 434.94ZM95.5217 434.98C95.5217 437.36 93.9017 438.7 92.1817 438.7C90.4817 438.7 88.8417 437.32 88.8417 434.94C88.8417 432.56 90.4817 431.28 92.1817 431.28C93.9017 431.28 95.5217 432.62 95.5217 434.98ZM110.796 429.48H108.516V435.62C108.516 437.64 107.416 438.68 105.736 438.68C104.076 438.68 102.976 437.64 102.976 435.62V429.48H100.716V435.96C100.716 439.04 102.676 440.66 105.256 440.66C106.556 440.66 107.796 440.12 108.516 439.18V440.5H110.796V429.48ZM113.045 434.98C113.045 438.44 115.285 440.68 118.445 440.68C121.145 440.68 122.905 439.18 123.525 437.02H121.065C120.645 438.16 119.805 438.76 118.445 438.76C116.605 438.76 115.385 437.4 115.385 434.98C115.385 432.58 116.605 431.22 118.445 431.22C119.805 431.22 120.685 431.9 121.065 432.96H123.525C122.905 430.64 121.145 429.3 118.445 429.3C115.285 429.3 113.045 431.54 113.045 434.98ZM126.157 437.44C126.157 439.68 127.377 440.5 129.337 440.5H131.137V438.6H129.737C128.777 438.6 128.457 438.26 128.457 437.44V431.34H131.137V429.48H128.457V426.74H126.157V429.48H124.857V431.34H126.157V437.44ZM133.238 440.5H135.518V429.48H133.238V440.5ZM134.398 428.02C135.198 428.02 135.838 427.38 135.838 426.56C135.838 425.74 135.198 425.1 134.398 425.1C133.578 425.1 132.938 425.74 132.938 426.56C132.938 427.38 133.578 428.02 134.398 428.02ZM149.012 434.98C149.012 431.52 146.532 429.3 143.392 429.3C140.252 429.3 137.772 431.52 137.772 434.98C137.772 438.44 140.152 440.68 143.292 440.68C146.452 440.68 149.012 438.44 149.012 434.98ZM140.092 434.98C140.092 432.48 141.632 431.28 143.352 431.28C145.052 431.28 146.672 432.48 146.672 434.98C146.672 437.48 144.992 438.7 143.292 438.7C141.572 438.7 140.092 437.48 140.092 434.98ZM159.086 440.5H161.346V434C161.346 430.92 159.406 429.3 156.826 429.3C155.506 429.3 154.286 429.84 153.546 430.74V429.48H151.266V440.5H153.546V434.34C153.546 432.32 154.646 431.28 156.326 431.28C157.986 431.28 159.086 432.32 159.086 434.34V440.5ZM169.809 437.44C169.809 439.68 171.029 440.5 172.989 440.5H174.789V438.6H173.389C172.429 438.6 172.109 438.26 172.109 437.44V431.34H174.789V429.48H172.109V426.74H169.809V429.48H168.509V431.34H169.809V437.44ZM187.391 434.98C187.391 431.52 184.911 429.3 181.771 429.3C178.631 429.3 176.151 431.52 176.151 434.98C176.151 438.44 178.531 440.68 181.671 440.68C184.831 440.68 187.391 438.44 187.391 434.98ZM178.471 434.98C178.471 432.48 180.011 431.28 181.731 431.28C183.431 431.28 185.051 432.48 185.051 434.98C185.051 437.48 183.371 438.7 181.671 438.7C179.951 438.7 178.471 437.48 178.471 434.98ZM197.12 433V428.46H199.64C201.42 428.46 202.22 429.3 202.22 430.74C202.22 432.14 201.42 433 199.64 433H197.12ZM204.56 430.74C204.56 428.48 202.94 426.6 199.64 426.6H194.84V440.5H197.12V434.86H199.64C203.26 434.86 204.56 432.72 204.56 430.74ZM205.974 434.94C205.974 438.34 208.274 440.68 211.134 440.68C212.974 440.68 214.294 439.8 214.994 438.86V440.5H217.294V429.48H214.994V431.08C214.314 430.18 213.034 429.3 211.174 429.3C208.274 429.3 205.974 431.54 205.974 434.94ZM214.994 434.98C214.994 437.36 213.374 438.7 211.654 438.7C209.954 438.7 208.314 437.32 208.314 434.94C208.314 432.56 209.954 431.28 211.654 431.28C213.374 431.28 214.994 432.62 214.994 434.98ZM222.569 434.7C222.569 432.36 223.609 431.66 225.289 431.66H225.869V429.3C224.309 429.3 223.209 429.98 222.569 431.08V429.48H220.289V440.5H222.569V434.7ZM227.205 434.94C227.205 438.34 229.505 440.68 232.365 440.68C234.205 440.68 235.525 439.8 236.225 438.86V440.5H238.525V429.48H236.225V431.08C235.545 430.18 234.265 429.3 232.405 429.3C229.505 429.3 227.205 431.54 227.205 434.94ZM236.225 434.98C236.225 437.36 234.605 438.7 232.885 438.7C231.185 438.7 229.545 437.32 229.545 434.94C229.545 432.56 231.185 431.28 232.885 431.28C234.605 431.28 236.225 432.62 236.225 434.98ZM241.52 440.5H243.8V425.7H241.52V440.5ZM246.793 440.5H249.073V425.7H246.793V440.5ZM256.706 431.22C258.406 431.22 259.746 432.3 259.786 434H253.686C253.926 432.26 255.166 431.22 256.706 431.22ZM261.866 437.22H259.406C258.986 438.08 258.206 438.76 256.806 438.76C255.126 438.76 253.826 437.66 253.666 435.84H262.086C262.146 435.46 262.166 435.1 262.166 434.72C262.166 431.48 259.946 429.3 256.806 429.3C253.546 429.3 251.306 431.52 251.306 434.98C251.306 438.44 253.646 440.68 256.806 440.68C259.506 440.68 261.246 439.14 261.866 437.22ZM264.41 440.5H266.69V425.7H264.41V440.5ZM277.159 433V428.46H279.679C281.459 428.46 282.259 429.3 282.259 430.74C282.259 432.14 281.459 433 279.679 433H277.159ZM284.599 430.74C284.599 428.48 282.979 426.6 279.679 426.6H274.879V440.5H277.159V434.86H279.679C283.299 434.86 284.599 432.72 284.599 430.74ZM289.053 434.7C289.053 432.36 290.093 431.66 291.773 431.66H292.353V429.3C290.793 429.3 289.693 429.98 289.053 431.08V429.48H286.773V440.5H289.053V434.7ZM304.949 434.98C304.949 431.52 302.469 429.3 299.329 429.3C296.189 429.3 293.709 431.52 293.709 434.98C293.709 438.44 296.089 440.68 299.229 440.68C302.389 440.68 304.949 438.44 304.949 434.98ZM296.029 434.98C296.029 432.48 297.569 431.28 299.289 431.28C300.989 431.28 302.609 432.48 302.609 434.98C302.609 437.48 300.929 438.7 299.229 438.7C297.509 438.7 296.029 437.48 296.029 434.98ZM306.443 434.94C306.443 438.34 308.743 440.68 311.643 440.68C313.443 440.68 314.763 439.78 315.463 438.84V440.68C315.463 442.88 314.143 443.96 312.383 443.96C310.803 443.96 309.583 443.18 309.243 442.04H306.983C307.263 444.48 309.443 445.94 312.383 445.94C315.823 445.94 317.763 443.68 317.763 440.68V429.48H315.463V431.08C314.783 430.14 313.443 429.3 311.643 429.3C308.743 429.3 306.443 431.54 306.443 434.94ZM315.463 434.98C315.463 437.36 313.843 438.7 312.123 438.7C310.423 438.7 308.783 437.32 308.783 434.94C308.783 432.56 310.423 431.28 312.123 431.28C313.843 431.28 315.463 432.62 315.463 434.98ZM323.038 434.7C323.038 432.36 324.078 431.66 325.758 431.66H326.338V429.3C324.778 429.3 323.678 429.98 323.038 431.08V429.48H320.758V440.5H323.038V434.7ZM327.674 434.94C327.674 438.34 329.974 440.68 332.834 440.68C334.674 440.68 335.994 439.8 336.694 438.86V440.5H338.994V429.48H336.694V431.08C336.014 430.18 334.734 429.3 332.874 429.3C329.974 429.3 327.674 431.54 327.674 434.94ZM336.694 434.98C336.694 437.36 335.074 438.7 333.354 438.7C331.654 438.7 330.014 437.32 330.014 434.94C330.014 432.56 331.654 431.28 333.354 431.28C335.074 431.28 336.694 432.62 336.694 434.98ZM357.608 440.5H359.868V434C359.868 430.92 357.908 429.3 355.328 429.3C353.728 429.3 352.168 430.14 351.488 431.48C350.728 430.04 349.268 429.3 347.528 429.3C346.208 429.3 345.008 429.84 344.268 430.74V429.48H341.988V440.5H344.268V434.34C344.268 432.32 345.368 431.28 347.048 431.28C348.708 431.28 349.808 432.32 349.808 434.34V440.5H352.068V434.34C352.068 432.32 353.168 431.28 354.848 431.28C356.508 431.28 357.608 432.32 357.608 434.34V440.5ZM378.39 440.5H380.65V434C380.65 430.92 378.69 429.3 376.11 429.3C374.51 429.3 372.95 430.14 372.27 431.48C371.51 430.04 370.05 429.3 368.31 429.3C366.99 429.3 365.79 429.84 365.05 430.74V429.48H362.77V440.5H365.05V434.34C365.05 432.32 366.15 431.28 367.83 431.28C369.49 431.28 370.59 432.32 370.59 434.34V440.5H372.85V434.34C372.85 432.32 373.95 431.28 375.63 431.28C377.29 431.28 378.39 432.32 378.39 434.34V440.5ZM383.551 440.5H385.831V429.48H383.551V440.5ZM384.711 428.02C385.511 428.02 386.151 427.38 386.151 426.56C386.151 425.74 385.511 425.1 384.711 425.1C383.891 425.1 383.251 425.74 383.251 426.56C383.251 427.38 383.891 428.02 384.711 428.02ZM396.644 440.5H398.904V434C398.904 430.92 396.964 429.3 394.384 429.3C393.064 429.3 391.844 429.84 391.104 430.74V429.48H388.824V440.5H391.104V434.34C391.104 432.32 392.204 431.28 393.884 431.28C395.544 431.28 396.644 432.32 396.644 434.34V440.5ZM401.053 434.94C401.053 438.34 403.353 440.68 406.253 440.68C408.053 440.68 409.373 439.78 410.073 438.84V440.68C410.073 442.88 408.753 443.96 406.993 443.96C405.413 443.96 404.193 443.18 403.853 442.04H401.593C401.873 444.48 404.053 445.94 406.993 445.94C410.433 445.94 412.373 443.68 412.373 440.68V429.48H410.073V431.08C409.393 430.14 408.053 429.3 406.253 429.3C403.353 429.3 401.053 431.54 401.053 434.94ZM410.073 434.98C410.073 437.36 408.453 438.7 406.733 438.7C405.033 438.7 403.393 437.32 403.393 434.94C403.393 432.56 405.033 431.28 406.733 431.28C408.453 431.28 410.073 432.62 410.073 434.98ZM420.563 426.6V440.5H427.543V438.66H422.843V426.6H420.563ZM428.689 434.94C428.689 438.34 430.989 440.68 433.849 440.68C435.689 440.68 437.009 439.8 437.709 438.86V440.5H440.009V429.48H437.709V431.08C437.029 430.18 435.749 429.3 433.889 429.3C430.989 429.3 428.689 431.54 428.689 434.94ZM437.709 434.98C437.709 437.36 436.089 438.7 434.369 438.7C432.669 438.7 431.029 437.32 431.029 434.94C431.029 432.56 432.669 431.28 434.369 431.28C436.089 431.28 437.709 432.62 437.709 434.98ZM445.284 431.12V425.7H443.004V440.5H445.284V438.9C446.004 439.86 447.304 440.68 449.124 440.68C452.024 440.68 454.304 438.34 454.304 434.94C454.304 431.54 452.044 429.3 449.124 429.3C447.384 429.3 446.004 430.12 445.284 431.12ZM451.984 434.94C451.984 437.32 450.344 438.7 448.624 438.7C446.924 438.7 445.284 437.36 445.284 434.98C445.284 432.62 446.924 431.28 448.624 431.28C450.344 431.28 451.984 432.56 451.984 434.94Z" fill="#212832"/>
<rect x="0.5" y="408.5" width="616" height="49" stroke="black" stroke-opacity="0.5"/>
<rect y="123" width="617" height="50" fill="white"/>
<path d="M24.6 151.44C26.08 151.44 27.24 150.3 27.24 148.84C27.24 147.36 26.08 146.22 24.6 146.22C23.16 146.22 22 147.36 22 148.84C22 150.3 23.16 151.44 24.6 151.44ZM48.5089 145.76C48.5089 147.14 47.7089 148.12 45.9289 148.12H43.4089V143.46H45.9289C47.7089 143.46 48.5089 144.36 48.5089 145.76ZM41.1289 141.6V155.5H43.4089V149.94H45.1489L48.3489 155.5H51.0689L47.6289 149.74C49.9689 149.16 50.8489 147.4 50.8489 145.76C50.8489 143.5 49.2289 141.6 45.9289 141.6H41.1289ZM61.2409 148V143.46H63.7609C65.5409 143.46 66.3409 144.3 66.3409 145.74C66.3409 147.14 65.5409 148 63.7609 148H61.2409ZM68.6809 145.74C68.6809 143.48 67.0609 141.6 63.7609 141.6H58.9609V155.5H61.2409V149.86H63.7609C67.3809 149.86 68.6809 147.72 68.6809 145.74ZM73.1355 149.7C73.1355 147.36 74.1755 146.66 75.8555 146.66H76.4355V144.3C74.8755 144.3 73.7755 144.98 73.1355 146.08V144.48H70.8555V155.5H73.1355V149.7ZM89.0313 149.98C89.0313 146.52 86.5513 144.3 83.4113 144.3C80.2713 144.3 77.7913 146.52 77.7913 149.98C77.7913 153.44 80.1713 155.68 83.3113 155.68C86.4713 155.68 89.0313 153.44 89.0313 149.98ZM80.1113 149.98C80.1113 147.48 81.6513 146.28 83.3713 146.28C85.0713 146.28 86.6913 147.48 86.6913 149.98C86.6913 152.48 85.0113 153.7 83.3113 153.7C81.5913 153.7 80.1113 152.48 80.1113 149.98ZM90.5252 149.94C90.5252 153.34 92.8252 155.68 95.7252 155.68C97.5252 155.68 98.8452 154.78 99.5452 153.84V155.68C99.5452 157.88 98.2252 158.96 96.4652 158.96C94.8852 158.96 93.6652 158.18 93.3252 157.04H91.0652C91.3452 159.48 93.5252 160.94 96.4652 160.94C99.9052 160.94 101.845 158.68 101.845 155.68V144.48H99.5452V146.08C98.8652 145.14 97.5252 144.3 95.7252 144.3C92.8252 144.3 90.5252 146.54 90.5252 149.94ZM99.5452 149.98C99.5452 152.36 97.9252 153.7 96.2052 153.7C94.5052 153.7 92.8652 152.32 92.8652 149.94C92.8652 147.56 94.5052 146.28 96.2052 146.28C97.9252 146.28 99.5452 147.62 99.5452 149.98ZM107.12 149.7C107.12 147.36 108.16 146.66 109.84 146.66H110.42V144.3C108.86 144.3 107.76 144.98 107.12 146.08V144.48H104.84V155.5H107.12V149.7ZM111.756 149.94C111.756 153.34 114.056 155.68 116.916 155.68C118.756 155.68 120.076 154.8 120.776 153.86V155.5H123.076V144.48H120.776V146.08C120.096 145.18 118.816 144.3 116.956 144.3C114.056 144.3 111.756 146.54 111.756 149.94ZM120.776 149.98C120.776 152.36 119.156 153.7 117.436 153.7C115.736 153.7 114.096 152.32 114.096 149.94C114.096 147.56 115.736 146.28 117.436 146.28C119.156 146.28 120.776 147.62 120.776 149.98ZM141.69 155.5H143.95V149C143.95 145.92 141.99 144.3 139.41 144.3C137.81 144.3 136.25 145.14 135.57 146.48C134.81 145.04 133.35 144.3 131.61 144.3C130.29 144.3 129.09 144.84 128.35 145.74V144.48H126.07V155.5H128.35V149.34C128.35 147.32 129.45 146.28 131.13 146.28C132.79 146.28 133.89 147.32 133.89 149.34V155.5H136.15V149.34C136.15 147.32 137.25 146.28 138.93 146.28C140.59 146.28 141.69 147.32 141.69 149.34V155.5ZM162.472 155.5H164.732V149C164.732 145.92 162.772 144.3 160.192 144.3C158.592 144.3 157.032 145.14 156.352 146.48C155.592 145.04 154.132 144.3 152.392 144.3C151.072 144.3 149.872 144.84 149.132 145.74V144.48H146.852V155.5H149.132V149.34C149.132 147.32 150.232 146.28 151.912 146.28C153.572 146.28 154.672 147.32 154.672 149.34V155.5H156.932V149.34C156.932 147.32 158.032 146.28 159.712 146.28C161.372 146.28 162.472 147.32 162.472 149.34V155.5ZM167.633 155.5H169.913V144.48H167.633V155.5ZM168.793 143.02C169.593 143.02 170.233 142.38 170.233 141.56C170.233 140.74 169.593 140.1 168.793 140.1C167.973 140.1 167.333 140.74 167.333 141.56C167.333 142.38 167.973 143.02 168.793 143.02ZM180.726 155.5H182.986V149C182.986 145.92 181.046 144.3 178.466 144.3C177.146 144.3 175.926 144.84 175.186 145.74V144.48H172.906V155.5H175.186V149.34C175.186 147.32 176.286 146.28 177.966 146.28C179.626 146.28 180.726 147.32 180.726 149.34V155.5ZM185.135 149.94C185.135 153.34 187.435 155.68 190.335 155.68C192.135 155.68 193.455 154.78 194.155 153.84V155.68C194.155 157.88 192.835 158.96 191.075 158.96C189.495 158.96 188.275 158.18 187.935 157.04H185.675C185.955 159.48 188.135 160.94 191.075 160.94C194.515 160.94 196.455 158.68 196.455 155.68V144.48H194.155V146.08C193.475 145.14 192.135 144.3 190.335 144.3C187.435 144.3 185.135 146.54 185.135 149.94ZM194.155 149.98C194.155 152.36 192.535 153.7 190.815 153.7C189.115 153.7 187.475 152.32 187.475 149.94C187.475 147.56 189.115 146.28 190.815 146.28C192.535 146.28 194.155 147.62 194.155 149.98ZM204.925 155.5H207.225V146.34H209.265V144.48H207.225V143.7C207.225 142.44 207.705 141.96 209.105 141.96V140.06C206.225 140.06 204.925 141.16 204.925 143.7V144.48H203.625V146.34H204.925V155.5ZM221.785 149.98C221.785 146.52 219.305 144.3 216.165 144.3C213.025 144.3 210.545 146.52 210.545 149.98C210.545 153.44 212.925 155.68 216.065 155.68C219.225 155.68 221.785 153.44 221.785 149.98ZM212.865 149.98C212.865 147.48 214.405 146.28 216.125 146.28C217.825 146.28 219.445 147.48 219.445 149.98C219.445 152.48 217.765 153.7 216.065 153.7C214.345 153.7 212.865 152.48 212.865 149.98ZM226.319 149.7C226.319 147.36 227.359 146.66 229.039 146.66H229.619V144.3C228.059 144.3 226.959 144.98 226.319 146.08V144.48H224.039V155.5H226.319V149.7ZM241.45 141.6H236.91V155.5H241.45C245.91 155.5 248.83 152.88 248.83 148.6C248.83 144.3 245.91 141.6 241.45 141.6ZM239.19 153.64V143.46H241.45C244.73 143.46 246.49 145.42 246.49 148.6C246.49 151.76 244.73 153.64 241.45 153.64H239.19ZM250.33 149.94C250.33 153.34 252.63 155.68 255.49 155.68C257.33 155.68 258.65 154.8 259.35 153.86V155.5H261.65V144.48H259.35V146.08C258.67 145.18 257.39 144.3 255.53 144.3C252.63 144.3 250.33 146.54 250.33 149.94ZM259.35 149.98C259.35 152.36 257.73 153.7 256.01 153.7C254.31 153.7 252.67 152.32 252.67 149.94C252.67 147.56 254.31 146.28 256.01 146.28C257.73 146.28 259.35 147.62 259.35 149.98ZM265.005 152.44C265.005 154.68 266.225 155.5 268.185 155.5H269.985V153.6H268.585C267.625 153.6 267.305 153.26 267.305 152.44V146.34H269.985V144.48H267.305V141.74H265.005V144.48H263.705V146.34H265.005V152.44ZM271.326 149.94C271.326 153.34 273.626 155.68 276.486 155.68C278.326 155.68 279.646 154.8 280.346 153.86V155.5H282.646V144.48H280.346V146.08C279.666 145.18 278.386 144.3 276.526 144.3C273.626 144.3 271.326 146.54 271.326 149.94ZM280.346 149.98C280.346 152.36 278.726 153.7 277.006 153.7C275.306 153.7 273.666 152.32 273.666 149.94C273.666 147.56 275.306 146.28 277.006 146.28C278.726 146.28 280.346 147.62 280.346 149.98ZM300.216 151.56C300.216 146.48 292.856 148.44 292.856 145.3C292.856 143.96 293.876 143.32 295.196 143.36C296.636 143.4 297.456 144.26 297.536 145.2H300.056C299.856 142.82 297.976 141.42 295.316 141.42C292.476 141.42 290.536 142.94 290.536 145.38C290.536 150.5 297.916 148.32 297.916 151.68C297.916 152.86 297.016 153.72 295.416 153.72C293.836 153.72 293.036 152.8 292.936 151.66H290.496C290.496 154.12 292.636 155.64 295.416 155.64C298.516 155.64 300.216 153.64 300.216 151.56ZM302.146 149.98C302.146 153.44 304.386 155.68 307.546 155.68C310.246 155.68 312.006 154.18 312.626 152.02H310.166C309.746 153.16 308.906 153.76 307.546 153.76C305.706 153.76 304.486 152.4 304.486 149.98C304.486 147.58 305.706 146.22 307.546 146.22C308.906 146.22 309.786 146.9 310.166 147.96H312.626C312.006 145.64 310.246 144.3 307.546 144.3C304.386 144.3 302.146 146.54 302.146 149.98ZM314.898 155.5H317.178V144.48H314.898V155.5ZM316.058 143.02C316.858 143.02 317.498 142.38 317.498 141.56C317.498 140.74 316.858 140.1 316.058 140.1C315.238 140.1 314.598 140.74 314.598 141.56C314.598 142.38 315.238 143.02 316.058 143.02ZM324.812 146.22C326.512 146.22 327.852 147.3 327.892 149H321.792C322.032 147.26 323.272 146.22 324.812 146.22ZM329.972 152.22H327.512C327.092 153.08 326.312 153.76 324.912 153.76C323.232 153.76 321.932 152.66 321.772 150.84H330.192C330.252 150.46 330.272 150.1 330.272 149.72C330.272 146.48 328.052 144.3 324.912 144.3C321.652 144.3 319.412 146.52 319.412 149.98C319.412 153.44 321.752 155.68 324.912 155.68C327.612 155.68 329.352 154.14 329.972 152.22ZM340.336 155.5H342.596V149C342.596 145.92 340.656 144.3 338.076 144.3C336.756 144.3 335.536 144.84 334.796 145.74V144.48H332.516V155.5H334.796V149.34C334.796 147.32 335.896 146.28 337.576 146.28C339.236 146.28 340.336 147.32 340.336 149.34V155.5ZM344.744 149.98C344.744 153.44 346.984 155.68 350.144 155.68C352.844 155.68 354.604 154.18 355.224 152.02H352.764C352.344 153.16 351.504 153.76 350.144 153.76C348.304 153.76 347.084 152.4 347.084 149.98C347.084 147.58 348.304 146.22 350.144 146.22C351.504 146.22 352.384 146.9 352.764 147.96H355.224C354.604 145.64 352.844 144.3 350.144 144.3C346.984 144.3 344.744 146.54 344.744 149.98ZM362.136 146.22C363.836 146.22 365.176 147.3 365.216 149H359.116C359.356 147.26 360.596 146.22 362.136 146.22ZM367.296 152.22H364.836C364.416 153.08 363.636 153.76 362.236 153.76C360.556 153.76 359.256 152.66 359.096 150.84H367.516C367.576 150.46 367.596 150.1 367.596 149.72C367.596 146.48 365.376 144.3 362.236 144.3C358.976 144.3 356.736 146.52 356.736 149.98C356.736 153.44 359.076 155.68 362.236 155.68C364.936 155.68 366.676 154.14 367.296 152.22Z" fill="#212832"/>
<rect x="0.5" y="123.5" width="616" height="49" stroke="black" stroke-opacity="0.5"/>
<rect y="351" width="617" height="50" fill="white"/>
<path d="M24.6 379.44C26.08 379.44 27.24 378.3 27.24 376.84C27.24 375.36 26.08 374.22 24.6 374.22C23.16 374.22 22 375.36 22 376.84C22 378.3 23.16 379.44 24.6 379.44ZM54.5689 376.52C54.5689 372.36 51.4289 369.42 47.4689 369.42C43.5489 369.42 40.3689 372.36 40.3689 376.52C40.3689 380.7 43.5489 383.64 47.4689 383.64C51.4289 383.64 54.5689 380.7 54.5689 376.52ZM42.7089 376.52C42.7089 373.38 44.7089 371.42 47.4689 371.42C50.2289 371.42 52.2289 373.38 52.2289 376.52C52.2289 379.66 50.2289 381.66 47.4689 381.66C44.7089 381.66 42.7089 379.66 42.7089 376.52ZM59.0925 374.1V372.48H56.8125V388.74H59.0925V381.9C59.8125 382.76 61.1125 383.68 62.9325 383.68C65.8325 383.68 68.1125 381.34 68.1125 377.94C68.1125 374.54 65.8325 372.3 62.9325 372.3C61.1325 372.3 59.7925 373.18 59.0925 374.1ZM65.7925 377.94C65.7925 380.32 64.1525 381.7 62.4325 381.7C60.7325 381.7 59.0925 380.36 59.0925 377.98C59.0925 375.62 60.7325 374.28 62.4325 374.28C64.1525 374.28 65.7925 375.56 65.7925 377.94ZM75.0072 374.22C76.7072 374.22 78.0472 375.3 78.0872 377H71.9872C72.2272 375.26 73.4672 374.22 75.0072 374.22ZM80.1672 380.22H77.7072C77.2872 381.08 76.5072 381.76 75.1072 381.76C73.4272 381.76 72.1272 380.66 71.9672 378.84H80.3872C80.4472 378.46 80.4672 378.1 80.4672 377.72C80.4672 374.48 78.2472 372.3 75.1072 372.3C71.8472 372.3 69.6072 374.52 69.6072 377.98C69.6072 381.44 71.9472 383.68 75.1072 383.68C77.8072 383.68 79.5472 382.14 80.1672 380.22ZM90.5309 383.5H92.7909V377C92.7909 373.92 90.8509 372.3 88.2709 372.3C86.9509 372.3 85.7309 372.84 84.9909 373.74V372.48H82.7109V383.5H84.9909V377.34C84.9909 375.32 86.0909 374.28 87.7709 374.28C89.4309 374.28 90.5309 375.32 90.5309 377.34V383.5ZM108.575 369.58H100.895V383.5H108.575V381.64H103.175V377.38H107.975V375.52H103.175V371.44H108.575V369.58ZM111.383 383.5H113.663V368.7H111.383V383.5ZM121.296 374.22C122.996 374.22 124.336 375.3 124.376 377H118.276C118.516 375.26 119.756 374.22 121.296 374.22ZM126.456 380.22H123.996C123.576 381.08 122.796 381.76 121.396 381.76C119.716 381.76 118.416 380.66 118.256 378.84H126.676C126.736 378.46 126.756 378.1 126.756 377.72C126.756 374.48 124.536 372.3 121.396 372.3C118.136 372.3 115.896 374.52 115.896 377.98C115.896 381.44 118.236 383.68 121.396 383.68C124.096 383.68 125.836 382.14 126.456 380.22ZM128.24 377.98C128.24 381.44 130.48 383.68 133.64 383.68C136.34 383.68 138.1 382.18 138.72 380.02H136.26C135.84 381.16 135 381.76 133.64 381.76C131.8 381.76 130.58 380.4 130.58 377.98C130.58 375.58 131.8 374.22 133.64 374.22C135 374.22 135.88 374.9 136.26 375.96H138.72C138.1 373.64 136.34 372.3 133.64 372.3C130.48 372.3 128.24 374.54 128.24 377.98ZM141.352 380.44C141.352 382.68 142.572 383.5 144.532 383.5H146.332V381.6H144.932C143.972 381.6 143.652 381.26 143.652 380.44V374.34H146.332V372.48H143.652V369.74H141.352V372.48H140.052V374.34H141.352V380.44ZM148.434 383.5H150.714V372.48H148.434V383.5ZM149.594 371.02C150.394 371.02 151.034 370.38 151.034 369.56C151.034 368.74 150.394 368.1 149.594 368.1C148.774 368.1 148.134 368.74 148.134 369.56C148.134 370.38 148.774 371.02 149.594 371.02ZM152.407 372.48L156.587 383.5H159.307L163.507 372.48H161.087L157.967 381.46L154.847 372.48H152.407ZM169.87 374.22C171.57 374.22 172.91 375.3 172.95 377H166.85C167.09 375.26 168.33 374.22 169.87 374.22ZM175.03 380.22H172.57C172.15 381.08 171.37 381.76 169.97 381.76C168.29 381.76 166.99 380.66 166.83 378.84H175.25C175.31 378.46 175.33 378.1 175.33 377.72C175.33 374.48 173.11 372.3 169.97 372.3C166.71 372.3 164.47 374.52 164.47 377.98C164.47 381.44 166.81 383.68 169.97 383.68C172.67 383.68 174.41 382.14 175.03 380.22ZM190.61 379.52C190.61 380.86 189.67 381.64 188.13 381.64H185.05V377.3H188.05C189.57 377.3 190.61 378.14 190.61 379.52ZM190.25 373.46C190.25 374.74 189.35 375.44 187.87 375.44H185.05V371.46H187.87C189.35 371.46 190.25 372.2 190.25 373.46ZM192.89 379.76C192.89 378.1 191.69 376.62 190.21 376.36C191.55 375.88 192.57 374.86 192.57 373.18C192.57 371.22 191.01 369.6 188.07 369.6H182.77V383.5H188.33C191.17 383.5 192.89 381.88 192.89 379.76Z" fill="#212832"/>
<rect x="0.5" y="351.5" width="616" height="49" stroke="black" stroke-opacity="0.5"/>
<rect y="237" width="617" height="50" fill="white"/>
<path d="M24.6 265.44C26.08 265.44 27.24 264.3 27.24 262.84C27.24 261.36 26.08 260.22 24.6 260.22C23.16 260.22 22 261.36 22 262.84C22 264.3 23.16 265.44 24.6 265.44ZM48.8089 255.58H41.1289V269.5H48.8089V267.64H43.4089V263.38H48.2089V261.52H43.4089V257.44H48.8089V255.58ZM51.6172 269.5H53.8972V254.7H51.6172V269.5ZM61.5306 260.22C63.2306 260.22 64.5706 261.3 64.6106 263H58.5106C58.7506 261.26 59.9906 260.22 61.5306 260.22ZM66.6906 266.22H64.2306C63.8106 267.08 63.0306 267.76 61.6306 267.76C59.9506 267.76 58.6506 266.66 58.4906 264.84H66.9106C66.9706 264.46 66.9906 264.1 66.9906 263.72C66.9906 260.48 64.7706 258.3 61.6306 258.3C58.3706 258.3 56.1306 260.52 56.1306 263.98C56.1306 267.44 58.4706 269.68 61.6306 269.68C64.3306 269.68 66.0706 268.14 66.6906 266.22ZM68.4744 263.98C68.4744 267.44 70.7144 269.68 73.8744 269.68C76.5744 269.68 78.3344 268.18 78.9544 266.02H76.4944C76.0744 267.16 75.2344 267.76 73.8744 267.76C72.0344 267.76 70.8144 266.4 70.8144 263.98C70.8144 261.58 72.0344 260.22 73.8744 260.22C75.2344 260.22 76.1144 260.9 76.4944 261.96H78.9544C78.3344 259.64 76.5744 258.3 73.8744 258.3C70.7144 258.3 68.4744 260.54 68.4744 263.98ZM81.5866 266.44C81.5866 268.68 82.8066 269.5 84.7666 269.5H86.5666V267.6H85.1666C84.2066 267.6 83.8866 267.26 83.8866 266.44V260.34H86.5666V258.48H83.8866V255.74H81.5866V258.48H80.2866V260.34H81.5866V266.44ZM88.668 269.5H90.948V258.48H88.668V269.5ZM89.828 257.02C90.628 257.02 91.268 256.38 91.268 255.56C91.268 254.74 90.628 254.1 89.828 254.1C89.008 254.1 88.368 254.74 88.368 255.56C88.368 256.38 89.008 257.02 89.828 257.02ZM92.6414 258.48L96.8214 269.5H99.5414L103.741 258.48H101.321L98.2014 267.46L95.0814 258.48H92.6414ZM110.105 260.22C111.805 260.22 113.145 261.3 113.185 263H107.085C107.325 261.26 108.565 260.22 110.105 260.22ZM115.265 266.22H112.805C112.385 267.08 111.605 267.76 110.205 267.76C108.525 267.76 107.225 266.66 107.065 264.84H115.485C115.545 264.46 115.565 264.1 115.565 263.72C115.565 260.48 113.345 258.3 110.205 258.3C106.945 258.3 104.705 260.52 104.705 263.98C104.705 267.44 107.045 269.68 110.205 269.68C112.905 269.68 114.645 268.14 115.265 266.22ZM130.844 265.52C130.844 266.86 129.904 267.64 128.364 267.64H125.284V263.3H128.284C129.804 263.3 130.844 264.14 130.844 265.52ZM130.484 259.46C130.484 260.74 129.584 261.44 128.104 261.44H125.284V257.46H128.104C129.584 257.46 130.484 258.2 130.484 259.46ZM133.124 265.76C133.124 264.1 131.924 262.62 130.444 262.36C131.784 261.88 132.804 260.86 132.804 259.18C132.804 257.22 131.244 255.6 128.304 255.6H123.004V269.5H128.564C131.404 269.5 133.124 267.88 133.124 265.76Z" fill="#212832"/>
<rect x="0.5" y="237.5" width="616" height="49" stroke="black" stroke-opacity="0.5"/>
<rect y="465" width="617" height="50" fill="white"/>
<path d="M24.6 493.44C26.08 493.44 27.24 492.3 27.24 490.84C27.24 489.36 26.08 488.22 24.6 488.22C23.16 488.22 22 489.36 22 490.84C22 492.3 23.16 493.44 24.6 493.44ZM41.1289 497.5H43.4089V491.42H48.0089V489.56H43.4089V485.46H49.3089V483.6H41.1289V497.5ZM61.4019 486.48H59.1219V492.62C59.1219 494.64 58.0219 495.68 56.3419 495.68C54.6819 495.68 53.5819 494.64 53.5819 492.62V486.48H51.3219V492.96C51.3219 496.04 53.2819 497.66 55.8619 497.66C57.1619 497.66 58.4019 497.12 59.1219 496.18V497.5H61.4019V486.48ZM72.2302 497.5H74.4902V491C74.4902 487.92 72.5502 486.3 69.9702 486.3C68.6502 486.3 67.4302 486.84 66.6902 487.74V486.48H64.4102V497.5H66.6902V491.34C66.6902 489.32 67.7902 488.28 69.4702 488.28C71.1302 488.28 72.2302 489.32 72.2302 491.34V497.5ZM76.6384 491.94C76.6384 495.34 78.9384 497.68 81.8384 497.68C83.6384 497.68 84.9584 496.84 85.6584 495.84V497.5H87.9584V482.7H85.6584V488.02C84.8184 486.98 83.2984 486.3 81.8584 486.3C78.9384 486.3 76.6384 488.54 76.6384 491.94ZM85.6584 491.98C85.6584 494.36 84.0384 495.7 82.3184 495.7C80.6184 495.7 78.9784 494.32 78.9784 491.94C78.9784 489.56 80.6184 488.28 82.3184 488.28C84.0384 488.28 85.6584 489.62 85.6584 491.98ZM90.1931 491.94C90.1931 495.34 92.4931 497.68 95.3531 497.68C97.1931 497.68 98.5131 496.8 99.2131 495.86V497.5H101.513V486.48H99.2131V488.08C98.5331 487.18 97.2531 486.3 95.3931 486.3C92.4931 486.3 90.1931 488.54 90.1931 491.94ZM99.2131 491.98C99.2131 494.36 97.5931 495.7 95.8731 495.7C94.1731 495.7 92.5331 494.32 92.5331 491.94C92.5331 489.56 94.1731 488.28 95.8731 488.28C97.5931 488.28 99.2131 489.62 99.2131 491.98ZM120.128 497.5H122.388V491C122.388 487.92 120.428 486.3 117.848 486.3C116.248 486.3 114.688 487.14 114.008 488.48C113.248 487.04 111.788 486.3 110.048 486.3C108.728 486.3 107.528 486.84 106.788 487.74V486.48H104.508V497.5H106.788V491.34C106.788 489.32 107.888 488.28 109.568 488.28C111.228 488.28 112.328 489.32 112.328 491.34V497.5H114.588V491.34C114.588 489.32 115.688 488.28 117.368 488.28C119.028 488.28 120.128 489.32 120.128 491.34V497.5ZM129.929 488.22C131.629 488.22 132.969 489.3 133.009 491H126.909C127.149 489.26 128.389 488.22 129.929 488.22ZM135.089 494.22H132.629C132.209 495.08 131.429 495.76 130.029 495.76C128.349 495.76 127.049 494.66 126.889 492.84H135.309C135.369 492.46 135.389 492.1 135.389 491.72C135.389 488.48 133.169 486.3 130.029 486.3C126.769 486.3 124.529 488.52 124.529 491.98C124.529 495.44 126.869 497.68 130.029 497.68C132.729 497.68 134.469 496.14 135.089 494.22ZM145.453 497.5H147.713V491C147.713 487.92 145.773 486.3 143.193 486.3C141.873 486.3 140.653 486.84 139.913 487.74V486.48H137.633V497.5H139.913V491.34C139.913 489.32 141.013 488.28 142.693 488.28C144.353 488.28 145.453 489.32 145.453 491.34V497.5ZM150.981 494.44C150.981 496.68 152.201 497.5 154.161 497.5H155.961V495.6H154.561C153.601 495.6 153.281 495.26 153.281 494.44V488.34H155.961V486.48H153.281V483.74H150.981V486.48H149.681V488.34H150.981V494.44ZM157.303 491.94C157.303 495.34 159.603 497.68 162.463 497.68C164.303 497.68 165.623 496.8 166.323 495.86V497.5H168.623V486.48H166.323V488.08C165.643 487.18 164.363 486.3 162.503 486.3C159.603 486.3 157.303 488.54 157.303 491.94ZM166.323 491.98C166.323 494.36 164.703 495.7 162.983 495.7C161.283 495.7 159.643 494.32 159.643 491.94C159.643 489.56 161.283 488.28 162.983 488.28C164.703 488.28 166.323 489.62 166.323 491.98ZM171.617 497.5H173.897V482.7H171.617V497.5ZM192.586 491.98C192.586 488.52 190.106 486.3 186.966 486.3C183.826 486.3 181.346 488.52 181.346 491.98C181.346 495.44 183.726 497.68 186.866 497.68C190.026 497.68 192.586 495.44 192.586 491.98ZM183.666 491.98C183.666 489.48 185.206 488.28 186.926 488.28C188.626 488.28 190.246 489.48 190.246 491.98C190.246 494.48 188.566 495.7 186.866 495.7C185.146 495.7 183.666 494.48 183.666 491.98ZM195.12 497.5H197.42V488.34H199.46V486.48H197.42V485.7C197.42 484.44 197.9 483.96 199.3 483.96V482.06C196.42 482.06 195.12 483.16 195.12 485.7V486.48H193.82V488.34H195.12V497.5ZM206.676 497.5H208.956V487.98L213.216 497.5H214.796L219.036 487.98V497.5H221.316V483.6H218.876L214.016 494.5L209.136 483.6H206.676V497.5ZM223.553 491.94C223.553 495.34 225.853 497.68 228.713 497.68C230.553 497.68 231.873 496.8 232.573 495.86V497.5H234.873V486.48H232.573V488.08C231.893 487.18 230.613 486.3 228.753 486.3C225.853 486.3 223.553 488.54 223.553 491.94ZM232.573 491.98C232.573 494.36 230.953 495.7 229.233 495.7C227.533 495.7 225.893 494.32 225.893 491.94C225.893 489.56 227.533 488.28 229.233 488.28C230.953 488.28 232.573 489.62 232.573 491.98ZM237.107 491.98C237.107 495.44 239.347 497.68 242.507 497.68C245.207 497.68 246.967 496.18 247.587 494.02H245.127C244.707 495.16 243.867 495.76 242.507 495.76C240.667 495.76 239.447 494.4 239.447 491.98C239.447 489.58 240.667 488.22 242.507 488.22C243.867 488.22 244.747 488.9 245.127 489.96H247.587C246.967 487.64 245.207 486.3 242.507 486.3C239.347 486.3 237.107 488.54 237.107 491.98ZM249.859 497.5H252.139V491.34C252.139 489.32 253.239 488.28 254.919 488.28C256.579 488.28 257.679 489.32 257.679 491.34V497.5H259.939V491C259.939 487.92 258.019 486.3 255.559 486.3C254.139 486.3 252.899 486.84 252.139 487.76V482.7H249.859V497.5ZM262.848 497.5H265.128V486.48H262.848V497.5ZM264.008 485.02C264.808 485.02 265.448 484.38 265.448 483.56C265.448 482.74 264.808 482.1 264.008 482.1C263.188 482.1 262.548 482.74 262.548 483.56C262.548 484.38 263.188 485.02 264.008 485.02ZM275.941 497.5H278.201V491C278.201 487.92 276.261 486.3 273.681 486.3C272.361 486.3 271.141 486.84 270.401 487.74V486.48H268.121V497.5H270.401V491.34C270.401 489.32 271.501 488.28 273.181 488.28C274.841 488.28 275.941 489.32 275.941 491.34V497.5ZM285.749 488.22C287.449 488.22 288.789 489.3 288.829 491H282.729C282.969 489.26 284.209 488.22 285.749 488.22ZM290.909 494.22H288.449C288.029 495.08 287.249 495.76 285.849 495.76C284.169 495.76 282.869 494.66 282.709 492.84H291.129C291.189 492.46 291.209 492.1 291.209 491.72C291.209 488.48 288.989 486.3 285.849 486.3C282.589 486.3 280.349 488.52 280.349 491.98C280.349 495.44 282.689 497.68 285.849 497.68C288.549 497.68 290.289 496.14 290.909 494.22ZM298.648 483.6V497.5H305.628V495.66H300.928V483.6H298.648ZM312.175 488.22C313.875 488.22 315.215 489.3 315.255 491H309.155C309.395 489.26 310.635 488.22 312.175 488.22ZM317.335 494.22H314.875C314.455 495.08 313.675 495.76 312.275 495.76C310.595 495.76 309.295 494.66 309.135 492.84H317.555C317.615 492.46 317.635 492.1 317.635 491.72C317.635 488.48 315.415 486.3 312.275 486.3C309.015 486.3 306.775 488.52 306.775 491.98C306.775 495.44 309.115 497.68 312.275 497.68C314.975 497.68 316.715 496.14 317.335 494.22ZM319.119 491.94C319.119 495.34 321.419 497.68 324.279 497.68C326.119 497.68 327.439 496.8 328.139 495.86V497.5H330.439V486.48H328.139V488.08C327.459 487.18 326.179 486.3 324.319 486.3C321.419 486.3 319.119 488.54 319.119 491.94ZM328.139 491.98C328.139 494.36 326.519 495.7 324.799 495.7C323.099 495.7 321.459 494.32 321.459 491.94C321.459 489.56 323.099 488.28 324.799 488.28C326.519 488.28 328.139 489.62 328.139 491.98ZM335.714 491.7C335.714 489.36 336.754 488.66 338.434 488.66H339.014V486.3C337.454 486.3 336.354 486.98 335.714 488.08V486.48H333.434V497.5H335.714V491.7ZM348.929 497.5H351.189V491C351.189 487.92 349.249 486.3 346.669 486.3C345.349 486.3 344.129 486.84 343.389 487.74V486.48H341.109V497.5H343.389V491.34C343.389 489.32 344.489 488.28 346.169 488.28C347.829 488.28 348.929 489.32 348.929 491.34V497.5ZM354.098 497.5H356.378V486.48H354.098V497.5ZM355.258 485.02C356.058 485.02 356.698 484.38 356.698 483.56C356.698 482.74 356.058 482.1 355.258 482.1C354.438 482.1 353.798 482.74 353.798 483.56C353.798 484.38 354.438 485.02 355.258 485.02ZM367.191 497.5H369.451V491C369.451 487.92 367.511 486.3 364.931 486.3C363.611 486.3 362.391 486.84 361.651 487.74V486.48H359.371V497.5H361.651V491.34C361.651 489.32 362.751 488.28 364.431 488.28C366.091 488.28 367.191 489.32 367.191 491.34V497.5ZM371.599 491.94C371.599 495.34 373.899 497.68 376.799 497.68C378.599 497.68 379.919 496.78 380.619 495.84V497.68C380.619 499.88 379.299 500.96 377.539 500.96C375.959 500.96 374.739 500.18 374.399 499.04H372.139C372.419 501.48 374.599 502.94 377.539 502.94C380.979 502.94 382.919 500.68 382.919 497.68V486.48H380.619V488.08C379.939 487.14 378.599 486.3 376.799 486.3C373.899 486.3 371.599 488.54 371.599 491.94ZM380.619 491.98C380.619 494.36 378.999 495.7 377.279 495.7C375.579 495.7 373.939 494.32 373.939 491.94C373.939 489.56 375.579 488.28 377.279 488.28C378.999 488.28 380.619 489.62 380.619 491.98ZM391.109 483.6V497.5H398.089V495.66H393.389V483.6H391.109ZM399.236 491.94C399.236 495.34 401.536 497.68 404.396 497.68C406.236 497.68 407.556 496.8 408.256 495.86V497.5H410.556V486.48H408.256V488.08C407.576 487.18 406.296 486.3 404.436 486.3C401.536 486.3 399.236 488.54 399.236 491.94ZM408.256 491.98C408.256 494.36 406.636 495.7 404.916 495.7C403.216 495.7 401.576 494.32 401.576 491.94C401.576 489.56 403.216 488.28 404.916 488.28C406.636 488.28 408.256 489.62 408.256 491.98ZM415.831 488.12V482.7H413.551V497.5H415.831V495.9C416.551 496.86 417.851 497.68 419.671 497.68C422.571 497.68 424.851 495.34 424.851 491.94C424.851 488.54 422.591 486.3 419.671 486.3C417.931 486.3 416.551 487.12 415.831 488.12ZM422.531 491.94C422.531 494.32 420.891 495.7 419.171 495.7C417.471 495.7 415.831 494.36 415.831 491.98C415.831 489.62 417.471 488.28 419.171 488.28C420.891 488.28 422.531 489.56 422.531 491.94Z" fill="#212832"/>
<rect x="0.5" y="465.5" width="616" height="49" stroke="black" stroke-opacity="0.5"/>
<rect y="522" width="617" height="50" fill="white"/>
<path d="M24.6 550.44C26.08 550.44 27.24 549.3 27.24 547.84C27.24 546.36 26.08 545.22 24.6 545.22C23.16 545.22 22 546.36 22 547.84C22 549.3 23.16 550.44 24.6 550.44ZM41.1289 554.5H43.4089V544.98L47.6689 554.5H49.2489L53.4889 544.98V554.5H55.7689V540.6H53.3289L48.4689 551.5L43.5889 540.6H41.1289V554.5ZM58.7656 554.5H61.0456V543.48H58.7656V554.5ZM59.9256 542.02C60.7256 542.02 61.3656 541.38 61.3656 540.56C61.3656 539.74 60.7256 539.1 59.9256 539.1C59.1056 539.1 58.4656 539.74 58.4656 540.56C58.4656 541.38 59.1056 542.02 59.9256 542.02ZM71.8591 554.5H74.1191V548C74.1191 544.92 72.1791 543.3 69.5991 543.3C68.2791 543.3 67.0591 543.84 66.3191 544.74V543.48H64.0391V554.5H66.3191V548.34C66.3191 546.32 67.4191 545.28 69.0991 545.28C70.7591 545.28 71.8591 546.32 71.8591 548.34V554.5ZM87.5273 548.98C87.5273 545.52 85.0473 543.3 81.9073 543.3C78.7673 543.3 76.2873 545.52 76.2873 548.98C76.2873 552.44 78.6673 554.68 81.8073 554.68C84.9673 554.68 87.5273 552.44 87.5273 548.98ZM78.6073 548.98C78.6073 546.48 80.1473 545.28 81.8673 545.28C83.5673 545.28 85.1873 546.48 85.1873 548.98C85.1873 551.48 83.5073 552.7 81.8073 552.7C80.0873 552.7 78.6073 551.48 78.6073 548.98ZM92.0613 548.7C92.0613 546.36 93.1013 545.66 94.7813 545.66H95.3613V543.3C93.8013 543.3 92.7013 543.98 92.0613 545.08V543.48H89.7813V554.5H92.0613V548.7ZM104.932 547V542.46H107.452C109.232 542.46 110.032 543.3 110.032 544.74C110.032 546.14 109.232 547 107.452 547H104.932ZM112.372 544.74C112.372 542.48 110.752 540.6 107.452 540.6H102.652V554.5H104.932V548.86H107.452C111.072 548.86 112.372 546.72 112.372 544.74ZM116.827 548.7C116.827 546.36 117.867 545.66 119.547 545.66H120.127V543.3C118.567 543.3 117.467 543.98 116.827 545.08V543.48H114.547V554.5H116.827V548.7ZM132.723 548.98C132.723 545.52 130.243 543.3 127.103 543.3C123.963 543.3 121.483 545.52 121.483 548.98C121.483 552.44 123.863 554.68 127.003 554.68C130.163 554.68 132.723 552.44 132.723 548.98ZM123.803 548.98C123.803 546.48 125.343 545.28 127.063 545.28C128.763 545.28 130.383 546.48 130.383 548.98C130.383 551.48 128.703 552.7 127.003 552.7C125.283 552.7 123.803 551.48 123.803 548.98ZM136.137 542.02C136.937 542.02 137.577 541.38 137.577 540.56C137.577 539.74 136.937 539.1 136.137 539.1C135.317 539.1 134.677 539.74 134.677 540.56C134.677 541.38 135.317 542.02 136.137 542.02ZM134.977 543.48V556.66C134.977 557.48 134.657 557.82 133.697 557.82H132.917V559.74H134.097C136.057 559.74 137.257 558.9 137.257 556.66V543.48H134.977ZM144.89 545.22C146.59 545.22 147.93 546.3 147.97 548H141.87C142.11 546.26 143.35 545.22 144.89 545.22ZM150.05 551.22H147.59C147.17 552.08 146.39 552.76 144.99 552.76C143.31 552.76 142.01 551.66 141.85 549.84H150.27C150.33 549.46 150.35 549.1 150.35 548.72C150.35 545.48 148.13 543.3 144.99 543.3C141.73 543.3 139.49 545.52 139.49 548.98C139.49 552.44 141.83 554.68 144.99 554.68C147.69 554.68 149.43 553.14 150.05 551.22ZM151.834 548.98C151.834 552.44 154.074 554.68 157.234 554.68C159.934 554.68 161.694 553.18 162.314 551.02H159.854C159.434 552.16 158.594 552.76 157.234 552.76C155.394 552.76 154.174 551.4 154.174 548.98C154.174 546.58 155.394 545.22 157.234 545.22C158.594 545.22 159.474 545.9 159.854 546.96H162.314C161.694 544.64 159.934 543.3 157.234 543.3C154.074 543.3 151.834 545.54 151.834 548.98ZM164.946 551.44C164.946 553.68 166.166 554.5 168.126 554.5H169.926V552.6H168.526C167.566 552.6 167.246 552.26 167.246 551.44V545.34H169.926V543.48H167.246V540.74H164.946V543.48H163.646V545.34H164.946V551.44ZM180.247 551.42C180.127 547.44 173.907 548.68 173.907 546.46C173.907 545.72 174.547 545.22 175.767 545.22C177.007 545.22 177.747 545.88 177.827 546.84H180.107C179.987 544.64 178.347 543.3 175.847 543.3C173.247 543.3 171.607 544.72 171.607 546.48C171.607 550.52 178.007 549.28 178.007 551.44C178.007 552.2 177.307 552.76 175.987 552.76C174.727 552.76 173.867 552.02 173.787 551.12H171.427C171.527 553.12 173.387 554.68 176.027 554.68C178.627 554.68 180.247 553.28 180.247 551.42Z" fill="#212832"/>
<rect x="0.5" y="522.5" width="616" height="49" stroke="black" stroke-opacity="0.5"/>
<rect width="617" height="58" fill="#3498DB"/>
<path d="M33.925 32.95C33.925 26.8 24.975 28.75 24.975 25.25C24.975 23.825 26 23.15 27.375 23.2C28.875 23.225 29.8 24.125 29.875 25.275H33.725C33.5 22.125 31.05 20.3 27.475 20.3C23.875 20.3 21.325 22.2 21.325 25.35C21.3 31.675 30.3 29.4 30.3 33.175C30.3 34.425 29.325 35.3 27.675 35.3C26.05 35.3 25.125 34.375 25.025 32.975H21.275C21.325 36.275 24.125 38.175 27.75 38.175C31.725 38.175 33.925 35.7 33.925 32.95ZM43.4094 26.8C45.2094 26.8 46.6594 27.95 46.7094 29.775H40.1344C40.4094 27.875 41.7344 26.8 43.4094 26.8ZM49.9844 33.65H46.2094C45.7594 34.575 44.9344 35.325 43.4344 35.325C41.6844 35.325 40.2844 34.175 40.1094 32.125H50.2344C50.3094 31.675 50.3344 31.225 50.3344 30.775C50.3344 26.65 47.5094 23.925 43.5094 23.925C39.4094 23.925 36.5594 26.7 36.5594 31.075C36.5594 35.425 39.4844 38.225 43.5094 38.225C46.9344 38.225 49.2344 36.2 49.9844 33.65ZM72.7641 38H76.2641V29.875C76.2641 26.05 73.9141 23.95 70.5891 23.95C68.5641 23.95 66.7391 25.025 65.8391 26.6C64.8891 24.875 63.1141 23.95 60.9641 23.95C59.2391 23.95 57.7641 24.675 56.8891 25.825V24.15H53.3891V38H56.8891V30.35C56.8891 28.15 58.1141 27 60.0141 27C61.8641 27 63.0891 28.15 63.0891 30.35V38H66.5891V30.35C66.5891 28.15 67.8141 27 69.6891 27C71.5391 27 72.7641 28.15 72.7641 30.35V38ZM86.0354 26.8C87.8354 26.8 89.2854 27.95 89.3354 29.775H82.7604C83.0354 27.875 84.3604 26.8 86.0354 26.8ZM92.6104 33.65H88.8354C88.3854 34.575 87.5604 35.325 86.0604 35.325C84.3104 35.325 82.9104 34.175 82.7354 32.125H92.8604C92.9354 31.675 92.9604 31.225 92.9604 30.775C92.9604 26.65 90.1354 23.925 86.1354 23.925C82.0354 23.925 79.1854 26.7 79.1854 31.075C79.1854 35.425 82.1104 38.225 86.1354 38.225C89.5604 38.225 91.8604 36.2 92.6104 33.65ZM106.765 34.05C106.665 28.975 98.99 30.55 98.99 28.025C98.99 27.225 99.665 26.7 100.965 26.7C102.34 26.7 103.19 27.425 103.29 28.5H106.64C106.44 25.75 104.415 23.925 101.065 23.925C97.64 23.925 95.59 25.775 95.59 28.075C95.59 33.15 103.415 31.575 103.415 34.05C103.415 34.85 102.665 35.475 101.29 35.475C99.89 35.475 98.915 34.675 98.79 33.625H95.265C95.415 36.2 97.84 38.225 101.315 38.225C104.69 38.225 106.765 36.425 106.765 34.05ZM110.688 33.7C110.688 36.875 112.463 38 115.113 38H117.313V35.05H115.688C114.588 35.05 114.213 34.65 114.213 33.725V27.025H117.313V24.15H114.213V20.725H110.688V24.15H109.038V27.025H110.688V33.7ZM126.28 26.8C128.08 26.8 129.53 27.95 129.58 29.775H123.005C123.28 27.875 124.605 26.8 126.28 26.8ZM132.855 33.65H129.08C128.63 34.575 127.805 35.325 126.305 35.325C124.555 35.325 123.155 34.175 122.98 32.125H133.105C133.18 31.675 133.205 31.225 133.205 30.775C133.205 26.65 130.38 23.925 126.38 23.925C122.28 23.925 119.43 26.7 119.43 31.075C119.43 35.425 122.355 38.225 126.38 38.225C129.805 38.225 132.105 36.2 132.855 33.65ZM139.76 31.1C139.76 28.425 141.01 27.625 143.085 27.625H144.01V23.95C142.085 23.95 140.635 24.875 139.76 26.3V24.15H136.26V38H139.76V31.1ZM165.625 24.325C165.35 21.75 163.6 19.35 159.875 19.35C155.25 19.35 153.325 22.65 153.325 28.6C153.325 34.25 154.675 38.05 160.075 38.05C163.975 38.05 166.15 35.475 166.15 31.95C166.15 28.15 163.875 26 160.625 26C158.85 26 157.2 26.75 156.375 28.125C156.425 23.925 157.475 22.225 159.75 22.225C161.325 22.225 162.05 22.975 162.375 24.325H165.625ZM159.825 28.875C161.85 28.875 162.825 30.15 162.825 32.025C162.825 33.9 161.7 35.075 159.9 35.075C157.85 35.075 156.7 33.85 156.7 31.9C156.7 29.825 158.2 28.875 159.825 28.875Z" fill="white"/>
</svg>
