<svg width="617" height="572" viewBox="0 0 617 572" fill="none" xmlns="http://www.w3.org/2000/svg">
<rect y="66" width="617" height="50" fill="white"/>
<path d="M24.6 94.44C26.08 94.44 27.24 93.3 27.24 91.84C27.24 90.36 26.08 89.22 24.6 89.22C23.16 89.22 22 90.36 22 91.84C22 93.3 23.16 94.44 24.6 94.44ZM40.3689 91.52C40.3689 95.7 43.5489 98.62 47.4689 98.62C50.3689 98.62 52.8689 97.18 53.9289 94.46H51.1889C50.4489 95.94 49.1289 96.64 47.4689 96.64C44.7089 96.64 42.7089 94.66 42.7089 91.52C42.7089 88.38 44.7089 86.42 47.4689 86.42C49.1289 86.42 50.4489 87.12 51.1889 88.6H53.9289C52.8689 85.88 50.3689 84.42 47.4689 84.42C43.5489 84.42 40.3689 87.36 40.3689 91.52ZM66.5777 87.48H64.2977V93.62C64.2977 95.64 63.1977 96.68 61.5177 96.68C59.8577 96.68 58.7577 95.64 58.7577 93.62V87.48H56.4977V93.96C56.4977 97.04 58.4577 98.66 61.0377 98.66C62.3377 98.66 63.5777 98.12 64.2977 97.18V98.5H66.5777V87.48ZM69.5859 98.5H71.8659V83.7H69.5859V98.5ZM75.2194 95.44C75.2194 97.68 76.4394 98.5 78.3994 98.5H80.1994V96.6H78.7994C77.8394 96.6 77.5194 96.26 77.5194 95.44V89.34H80.1994V87.48H77.5194V84.74H75.2194V87.48H73.9194V89.34H75.2194V95.44ZM92.2808 87.48H90.0008V93.62C90.0008 95.64 88.9008 96.68 87.2208 96.68C85.5608 96.68 84.4608 95.64 84.4608 93.62V87.48H82.2008V93.96C82.2008 97.04 84.1608 98.66 86.7408 98.66C88.0408 98.66 89.2808 98.12 90.0008 97.18V98.5H92.2808V87.48ZM97.5691 92.7C97.5691 90.36 98.6091 89.66 100.289 89.66H100.869V87.3C99.3091 87.3 98.2091 87.98 97.5691 89.08V87.48H95.2891V98.5H97.5691V92.7ZM102.205 92.94C102.205 96.34 104.505 98.68 107.365 98.68C109.205 98.68 110.525 97.8 111.225 96.86V98.5H113.525V87.48H111.225V89.08C110.545 88.18 109.265 87.3 107.405 87.3C104.505 87.3 102.205 89.54 102.205 92.94ZM111.225 92.98C111.225 95.36 109.605 96.7 107.885 96.7C106.185 96.7 104.545 95.32 104.545 92.94C104.545 90.56 106.185 89.28 107.885 89.28C109.605 89.28 111.225 90.62 111.225 92.98ZM116.52 98.5H118.8V83.7H116.52V98.5ZM134.668 84.58H126.988V98.5H134.668V96.64H129.268V92.38H134.068V90.52H129.268V86.44H134.668V84.58ZM136.717 92.94C136.717 96.34 139.017 98.68 141.917 98.68C143.717 98.68 145.037 97.84 145.737 96.84V98.5H148.037V83.7H145.737V89.02C144.897 87.98 143.377 87.3 141.937 87.3C139.017 87.3 136.717 89.54 136.717 92.94ZM145.737 92.98C145.737 95.36 144.117 96.7 142.397 96.7C140.697 96.7 139.057 95.32 139.057 92.94C139.057 90.56 140.697 89.28 142.397 89.28C144.117 89.28 145.737 90.62 145.737 92.98ZM161.011 87.48H158.731V93.62C158.731 95.64 157.631 96.68 155.951 96.68C154.291 96.68 153.191 95.64 153.191 93.62V87.48H150.931V93.96C150.931 97.04 152.891 98.66 155.471 98.66C156.771 98.66 158.011 98.12 158.731 97.18V98.5H161.011V87.48ZM163.26 92.98C163.26 96.44 165.5 98.68 168.66 98.68C171.36 98.68 173.12 97.18 173.74 95.02H171.28C170.86 96.16 170.02 96.76 168.66 96.76C166.82 96.76 165.6 95.4 165.6 92.98C165.6 90.58 166.82 89.22 168.66 89.22C170.02 89.22 170.9 89.9 171.28 90.96H173.74C173.12 88.64 171.36 87.3 168.66 87.3C165.5 87.3 163.26 89.54 163.26 92.98ZM175.252 92.94C175.252 96.34 177.552 98.68 180.412 98.68C182.252 98.68 183.572 97.8 184.272 96.86V98.5H186.572V87.48H184.272V89.08C183.592 88.18 182.312 87.3 180.452 87.3C177.552 87.3 175.252 89.54 175.252 92.94ZM184.272 92.98C184.272 95.36 182.652 96.7 180.932 96.7C179.232 96.7 177.592 95.32 177.592 92.94C177.592 90.56 179.232 89.28 180.932 89.28C182.652 89.28 184.272 90.62 184.272 92.98ZM189.926 95.44C189.926 97.68 191.146 98.5 193.106 98.5H194.906V96.6H193.506C192.546 96.6 192.226 96.26 192.226 95.44V89.34H194.906V87.48H192.226V84.74H189.926V87.48H188.626V89.34H189.926V95.44ZM197.008 98.5H199.288V87.48H197.008V98.5ZM198.168 86.02C198.968 86.02 199.608 85.38 199.608 84.56C199.608 83.74 198.968 83.1 198.168 83.1C197.348 83.1 196.708 83.74 196.708 84.56C196.708 85.38 197.348 86.02 198.168 86.02ZM212.781 92.98C212.781 89.52 210.301 87.3 207.161 87.3C204.021 87.3 201.541 89.52 201.541 92.98C201.541 96.44 203.921 98.68 207.061 98.68C210.221 98.68 212.781 96.44 212.781 92.98ZM203.861 92.98C203.861 90.48 205.401 89.28 207.121 89.28C208.821 89.28 210.441 90.48 210.441 92.98C210.441 95.48 208.761 96.7 207.061 96.7C205.341 96.7 203.861 95.48 203.861 92.98ZM222.855 98.5H225.115V92C225.115 88.92 223.175 87.3 220.595 87.3C219.275 87.3 218.055 87.84 217.315 88.74V87.48H215.035V98.5H217.315V92.34C217.315 90.32 218.415 89.28 220.095 89.28C221.755 89.28 222.855 90.32 222.855 92.34V98.5ZM232.739 98.3H242.459V96.4H236.119C238.459 94.26 242.059 91.56 242.059 88.02C242.059 85.4 240.379 83.62 237.419 83.62C234.839 83.62 232.799 85.16 232.719 88.32H234.919C234.979 86.68 235.839 85.56 237.439 85.56C239.139 85.56 239.799 86.6 239.799 88.12C239.799 90.98 236.179 93.62 232.739 96.64V98.3Z" fill="#212832"/>
<rect x="0.5" y="66.5" width="616" height="49" stroke="black" stroke-opacity="0.5"/>
<rect y="180" width="617" height="50" fill="white"/>
<path d="M24.6 208.44C26.08 208.44 27.24 207.3 27.24 205.84C27.24 204.36 26.08 203.22 24.6 203.22C23.16 203.22 22 204.36 22 205.84C22 207.3 23.16 208.44 24.6 208.44ZM43.4089 205V200.46H45.9289C47.7089 200.46 48.5089 201.3 48.5089 202.74C48.5089 204.14 47.7089 205 45.9289 205H43.4089ZM50.8489 202.74C50.8489 200.48 49.2289 198.6 45.9289 198.6H41.1289V212.5H43.4089V206.86H45.9289C49.5489 206.86 50.8489 204.72 50.8489 202.74ZM55.3034 206.7C55.3034 204.36 56.3434 203.66 58.0234 203.66H58.6034V201.3C57.0434 201.3 55.9434 201.98 55.3034 203.08V201.48H53.0234V212.5H55.3034V206.7ZM71.1992 206.98C71.1992 203.52 68.7192 201.3 65.5792 201.3C62.4392 201.3 59.9592 203.52 59.9592 206.98C59.9592 210.44 62.3392 212.68 65.4792 212.68C68.6392 212.68 71.1992 210.44 71.1992 206.98ZM62.2792 206.98C62.2792 204.48 63.8192 203.28 65.5392 203.28C67.2392 203.28 68.8592 204.48 68.8592 206.98C68.8592 209.48 67.1792 210.7 65.4792 210.7C63.7592 210.7 62.2792 209.48 62.2792 206.98ZM73.7331 212.5H76.0331V203.34H78.0731V201.48H76.0331V200.7C76.0331 199.44 76.5131 198.96 77.9131 198.96V197.06C75.0331 197.06 73.7331 198.16 73.7331 200.7V201.48H72.4331V203.34H73.7331V212.5ZM84.7338 203.22C86.4338 203.22 87.7738 204.3 87.8138 206H81.7138C81.9538 204.26 83.1938 203.22 84.7338 203.22ZM89.8937 209.22H87.4338C87.0138 210.08 86.2338 210.76 84.8338 210.76C83.1538 210.76 81.8538 209.66 81.6938 207.84H90.1138C90.1738 207.46 90.1938 207.1 90.1938 206.72C90.1938 203.48 87.9738 201.3 84.8338 201.3C81.5738 201.3 79.3338 203.52 79.3338 206.98C79.3338 210.44 81.6738 212.68 84.8338 212.68C87.5338 212.68 89.2738 211.14 89.8937 209.22ZM100.658 209.42C100.538 205.44 94.3175 206.68 94.3175 204.46C94.3175 203.72 94.9575 203.22 96.1775 203.22C97.4175 203.22 98.1575 203.88 98.2375 204.84H100.518C100.398 202.64 98.7575 201.3 96.2575 201.3C93.6575 201.3 92.0175 202.72 92.0175 204.48C92.0175 208.52 98.4175 207.28 98.4175 209.44C98.4175 210.2 97.7175 210.76 96.3975 210.76C95.1375 210.76 94.2775 210.02 94.1975 209.12H91.8375C91.9375 211.12 93.7975 212.68 96.4375 212.68C99.0375 212.68 100.658 211.28 100.658 209.42ZM111.341 209.42C111.221 205.44 105.001 206.68 105.001 204.46C105.001 203.72 105.641 203.22 106.861 203.22C108.101 203.22 108.841 203.88 108.921 204.84H111.201C111.081 202.64 109.441 201.3 106.941 201.3C104.341 201.3 102.701 202.72 102.701 204.48C102.701 208.52 109.101 207.28 109.101 209.44C109.101 210.2 108.401 210.76 107.081 210.76C105.821 210.76 104.961 210.02 104.881 209.12H102.521C102.621 211.12 104.481 212.68 107.121 212.68C109.721 212.68 111.341 211.28 111.341 209.42ZM113.805 212.5H116.085V201.48H113.805V212.5ZM114.965 200.02C115.765 200.02 116.405 199.38 116.405 198.56C116.405 197.74 115.765 197.1 114.965 197.1C114.145 197.1 113.505 197.74 113.505 198.56C113.505 199.38 114.145 200.02 114.965 200.02ZM129.578 206.98C129.578 203.52 127.098 201.3 123.958 201.3C120.818 201.3 118.338 203.52 118.338 206.98C118.338 210.44 120.718 212.68 123.858 212.68C127.018 212.68 129.578 210.44 129.578 206.98ZM120.658 206.98C120.658 204.48 122.198 203.28 123.918 203.28C125.618 203.28 127.238 204.48 127.238 206.98C127.238 209.48 125.558 210.7 123.858 210.7C122.138 210.7 120.658 209.48 120.658 206.98ZM139.652 212.5H141.912V206C141.912 202.92 139.972 201.3 137.392 201.3C136.072 201.3 134.852 201.84 134.112 202.74V201.48H131.832V212.5H134.112V206.34C134.112 204.32 135.212 203.28 136.892 203.28C138.552 203.28 139.652 204.32 139.652 206.34V212.5ZM144.06 206.94C144.06 210.34 146.36 212.68 149.22 212.68C151.06 212.68 152.38 211.8 153.08 210.86V212.5H155.38V201.48H153.08V203.08C152.4 202.18 151.12 201.3 149.26 201.3C146.36 201.3 144.06 203.54 144.06 206.94ZM153.08 206.98C153.08 209.36 151.46 210.7 149.74 210.7C148.04 210.7 146.4 209.32 146.4 206.94C146.4 204.56 148.04 203.28 149.74 203.28C151.46 203.28 153.08 204.62 153.08 206.98ZM158.375 212.5H160.655V197.7H158.375V212.5ZM168.084 205.52C168.084 209.7 171.264 212.62 175.184 212.62C178.084 212.62 180.584 211.18 181.644 208.46H178.904C178.164 209.94 176.844 210.64 175.184 210.64C172.424 210.64 170.424 208.66 170.424 205.52C170.424 202.38 172.424 200.42 175.184 200.42C176.844 200.42 178.164 201.12 178.904 202.6H181.644C180.584 199.88 178.084 198.42 175.184 198.42C171.264 198.42 168.084 201.36 168.084 205.52ZM194.813 206.98C194.813 203.52 192.333 201.3 189.193 201.3C186.053 201.3 183.573 203.52 183.573 206.98C183.573 210.44 185.953 212.68 189.093 212.68C192.253 212.68 194.813 210.44 194.813 206.98ZM185.893 206.98C185.893 204.48 187.433 203.28 189.153 203.28C190.853 203.28 192.473 204.48 192.473 206.98C192.473 209.48 190.793 210.7 189.093 210.7C187.373 210.7 185.893 209.48 185.893 206.98ZM212.686 212.5H214.946V206C214.946 202.92 212.986 201.3 210.406 201.3C208.806 201.3 207.246 202.14 206.566 203.48C205.806 202.04 204.346 201.3 202.606 201.3C201.286 201.3 200.086 201.84 199.346 202.74V201.48H197.066V212.5H199.346V206.34C199.346 204.32 200.446 203.28 202.126 203.28C203.786 203.28 204.886 204.32 204.886 206.34V212.5H207.146V206.34C207.146 204.32 208.246 203.28 209.926 203.28C211.586 203.28 212.686 204.32 212.686 206.34V212.5ZM233.468 212.5H235.728V206C235.728 202.92 233.768 201.3 231.188 201.3C229.588 201.3 228.028 202.14 227.348 203.48C226.588 202.04 225.128 201.3 223.388 201.3C222.068 201.3 220.868 201.84 220.128 202.74V201.48H217.848V212.5H220.128V206.34C220.128 204.32 221.228 203.28 222.908 203.28C224.568 203.28 225.668 204.32 225.668 206.34V212.5H227.928V206.34C227.928 204.32 229.028 203.28 230.708 203.28C232.368 203.28 233.468 204.32 233.468 206.34V212.5ZM248.609 201.48H246.329V207.62C246.329 209.64 245.229 210.68 243.549 210.68C241.889 210.68 240.789 209.64 240.789 207.62V201.48H238.529V207.96C238.529 211.04 240.489 212.66 243.069 212.66C244.369 212.66 245.609 212.12 246.329 211.18V212.5H248.609V201.48ZM259.437 212.5H261.697V206C261.697 202.92 259.757 201.3 257.177 201.3C255.857 201.3 254.637 201.84 253.897 202.74V201.48H251.617V212.5H253.897V206.34C253.897 204.32 254.997 203.28 256.677 203.28C258.337 203.28 259.437 204.32 259.437 206.34V212.5ZM264.605 212.5H266.885V201.48H264.605V212.5ZM265.765 200.02C266.565 200.02 267.205 199.38 267.205 198.56C267.205 197.74 266.565 197.1 265.765 197.1C264.945 197.1 264.305 197.74 264.305 198.56C264.305 199.38 264.945 200.02 265.765 200.02ZM269.119 206.98C269.119 210.44 271.359 212.68 274.519 212.68C277.219 212.68 278.979 211.18 279.599 209.02H277.139C276.719 210.16 275.879 210.76 274.519 210.76C272.679 210.76 271.459 209.4 271.459 206.98C271.459 204.58 272.679 203.22 274.519 203.22C275.879 203.22 276.759 203.9 277.139 204.96H279.599C278.979 202.64 277.219 201.3 274.519 201.3C271.359 201.3 269.119 203.54 269.119 206.98ZM281.111 206.94C281.111 210.34 283.411 212.68 286.271 212.68C288.111 212.68 289.431 211.8 290.131 210.86V212.5H292.431V201.48H290.131V203.08C289.451 202.18 288.171 201.3 286.311 201.3C283.411 201.3 281.111 203.54 281.111 206.94ZM290.131 206.98C290.131 209.36 288.511 210.7 286.791 210.7C285.091 210.7 283.451 209.32 283.451 206.94C283.451 204.56 285.091 203.28 286.791 203.28C288.511 203.28 290.131 204.62 290.131 206.98ZM295.786 209.44C295.786 211.68 297.006 212.5 298.966 212.5H300.766V210.6H299.366C298.406 210.6 298.086 210.26 298.086 209.44V203.34H300.766V201.48H298.086V198.74H295.786V201.48H294.486V203.34H295.786V209.44ZM302.867 212.5H305.147V201.48H302.867V212.5ZM304.027 200.02C304.827 200.02 305.467 199.38 305.467 198.56C305.467 197.74 304.827 197.1 304.027 197.1C303.207 197.1 302.567 197.74 302.567 198.56C302.567 199.38 303.207 200.02 304.027 200.02ZM318.641 206.98C318.641 203.52 316.161 201.3 313.021 201.3C309.881 201.3 307.401 203.52 307.401 206.98C307.401 210.44 309.781 212.68 312.921 212.68C316.081 212.68 318.641 210.44 318.641 206.98ZM309.721 206.98C309.721 204.48 311.261 203.28 312.981 203.28C314.681 203.28 316.301 204.48 316.301 206.98C316.301 209.48 314.621 210.7 312.921 210.7C311.201 210.7 309.721 209.48 309.721 206.98ZM328.715 212.5H330.975V206C330.975 202.92 329.035 201.3 326.455 201.3C325.135 201.3 323.915 201.84 323.175 202.74V201.48H320.895V212.5H323.175V206.34C323.175 204.32 324.275 203.28 325.955 203.28C327.615 203.28 328.715 204.32 328.715 206.34V212.5Z" fill="#212832"/>
<rect x="0.5" y="180.5" width="616" height="49" stroke="black" stroke-opacity="0.5"/>
<rect y="123" width="617" height="50" fill="white"/>
<path d="M24.6 151.44C26.08 151.44 27.24 150.3 27.24 148.84C27.24 147.36 26.08 146.22 24.6 146.22C23.16 146.22 22 147.36 22 148.84C22 150.3 23.16 151.44 24.6 151.44ZM41.1289 141.6V155.5H48.1089V153.66H43.4089V141.6H41.1289ZM49.2556 149.94C49.2556 153.34 51.5556 155.68 54.4156 155.68C56.2556 155.68 57.5756 154.8 58.2756 153.86V155.5H60.5756V144.48H58.2756V146.08C57.5956 145.18 56.3156 144.3 54.4556 144.3C51.5556 144.3 49.2556 146.54 49.2556 149.94ZM58.2756 149.98C58.2756 152.36 56.6556 153.7 54.9356 153.7C53.2356 153.7 51.5956 152.32 51.5956 149.94C51.5956 147.56 53.2356 146.28 54.9356 146.28C56.6556 146.28 58.2756 147.62 58.2756 149.98ZM71.3903 155.5H73.6503V149C73.6503 145.92 71.7103 144.3 69.1303 144.3C67.8103 144.3 66.5903 144.84 65.8503 145.74V144.48H63.5703V155.5H65.8503V149.34C65.8503 147.32 66.9503 146.28 68.6303 146.28C70.2903 146.28 71.3903 147.32 71.3903 149.34V155.5ZM75.7986 149.94C75.7986 153.34 78.0986 155.68 80.9986 155.68C82.7986 155.68 84.1186 154.78 84.8186 153.84V155.68C84.8186 157.88 83.4986 158.96 81.7386 158.96C80.1586 158.96 78.9386 158.18 78.5986 157.04H76.3386C76.6186 159.48 78.7986 160.94 81.7386 160.94C85.1786 160.94 87.1186 158.68 87.1186 155.68V144.48H84.8186V146.08C84.1386 145.14 82.7986 144.3 80.9986 144.3C78.0986 144.3 75.7986 146.54 75.7986 149.94ZM84.8186 149.98C84.8186 152.36 83.1986 153.7 81.4786 153.7C79.7786 153.7 78.1386 152.32 78.1386 149.94C78.1386 147.56 79.7786 146.28 81.4786 146.28C83.1986 146.28 84.8186 147.62 84.8186 149.98ZM100.093 144.48H97.8133V150.62C97.8133 152.64 96.7133 153.68 95.0333 153.68C93.3733 153.68 92.2733 152.64 92.2733 150.62V144.48H90.0133V150.96C90.0133 154.04 91.9733 155.66 94.5533 155.66C95.8533 155.66 97.0933 155.12 97.8133 154.18V155.5H100.093V144.48ZM102.342 149.94C102.342 153.34 104.642 155.68 107.502 155.68C109.342 155.68 110.662 154.8 111.362 153.86V155.5H113.662V144.48H111.362V146.08C110.682 145.18 109.402 144.3 107.542 144.3C104.642 144.3 102.342 146.54 102.342 149.94ZM111.362 149.98C111.362 152.36 109.742 153.7 108.022 153.7C106.322 153.7 104.682 152.32 104.682 149.94C104.682 147.56 106.322 146.28 108.022 146.28C109.742 146.28 111.362 147.62 111.362 149.98ZM115.896 149.94C115.896 153.34 118.196 155.68 121.096 155.68C122.896 155.68 124.216 154.78 124.916 153.84V155.68C124.916 157.88 123.596 158.96 121.836 158.96C120.256 158.96 119.036 158.18 118.696 157.04H116.436C116.716 159.48 118.896 160.94 121.836 160.94C125.276 160.94 127.216 158.68 127.216 155.68V144.48H124.916V146.08C124.236 145.14 122.896 144.3 121.096 144.3C118.196 144.3 115.896 146.54 115.896 149.94ZM124.916 149.98C124.916 152.36 123.296 153.7 121.576 153.7C119.876 153.7 118.236 152.32 118.236 149.94C118.236 147.56 119.876 146.28 121.576 146.28C123.296 146.28 124.916 147.62 124.916 149.98ZM134.851 146.22C136.551 146.22 137.891 147.3 137.931 149H131.831C132.071 147.26 133.311 146.22 134.851 146.22ZM140.011 152.22H137.551C137.131 153.08 136.351 153.76 134.951 153.76C133.271 153.76 131.971 152.66 131.811 150.84H140.231C140.291 150.46 140.311 150.1 140.311 149.72C140.311 146.48 138.091 144.3 134.951 144.3C131.691 144.3 129.451 146.52 129.451 149.98C129.451 153.44 131.791 155.68 134.951 155.68C137.651 155.68 139.391 154.14 140.011 152.22ZM150.03 148V143.46H152.55C154.33 143.46 155.13 144.3 155.13 145.74C155.13 147.14 154.33 148 152.55 148H150.03ZM157.47 145.74C157.47 143.48 155.85 141.6 152.55 141.6H147.75V155.5H150.03V149.86H152.55C156.17 149.86 157.47 147.72 157.47 145.74ZM158.885 149.94C158.885 153.34 161.185 155.68 164.045 155.68C165.885 155.68 167.205 154.8 167.905 153.86V155.5H170.205V144.48H167.905V146.08C167.225 145.18 165.945 144.3 164.085 144.3C161.185 144.3 158.885 146.54 158.885 149.94ZM167.905 149.98C167.905 152.36 166.285 153.7 164.565 153.7C162.865 153.7 161.225 152.32 161.225 149.94C161.225 147.56 162.865 146.28 164.565 146.28C166.285 146.28 167.905 147.62 167.905 149.98ZM175.479 146.1V144.48H173.199V160.74H175.479V153.9C176.199 154.76 177.499 155.68 179.319 155.68C182.219 155.68 184.499 153.34 184.499 149.94C184.499 146.54 182.219 144.3 179.319 144.3C177.519 144.3 176.179 145.18 175.479 146.1ZM182.179 149.94C182.179 152.32 180.539 153.7 178.819 153.7C177.119 153.7 175.479 152.36 175.479 149.98C175.479 147.62 177.119 146.28 178.819 146.28C180.539 146.28 182.179 147.56 182.179 149.94ZM191.394 146.22C193.094 146.22 194.434 147.3 194.474 149H188.374C188.614 147.26 189.854 146.22 191.394 146.22ZM196.554 152.22H194.094C193.674 153.08 192.894 153.76 191.494 153.76C189.814 153.76 188.514 152.66 188.354 150.84H196.774C196.834 150.46 196.854 150.1 196.854 149.72C196.854 146.48 194.634 144.3 191.494 144.3C188.234 144.3 185.994 146.52 185.994 149.98C185.994 153.44 188.334 155.68 191.494 155.68C194.194 155.68 195.934 154.14 196.554 152.22ZM201.378 149.7C201.378 147.36 202.418 146.66 204.098 146.66H204.678V144.3C203.118 144.3 202.018 144.98 201.378 146.08V144.48H199.098V155.5H201.378V149.7ZM211.489 155.3H221.209V153.4H214.869C217.209 151.26 220.809 148.56 220.809 145.02C220.809 142.4 219.129 140.62 216.169 140.62C213.589 140.62 211.549 142.16 211.469 145.32H213.669C213.729 143.68 214.589 142.56 216.189 142.56C217.889 142.56 218.549 143.6 218.549 145.12C218.549 147.98 214.929 150.62 211.489 153.64V155.3Z" fill="#212832"/>
<rect x="0.5" y="123.5" width="616" height="49" stroke="black" stroke-opacity="0.5"/>
<rect y="237" width="617" height="50" fill="white"/>
<path d="M24.6 265.44C26.08 265.44 27.24 264.3 27.24 262.84C27.24 261.36 26.08 260.22 24.6 260.22C23.16 260.22 22 261.36 22 262.84C22 264.3 23.16 265.44 24.6 265.44ZM50.5089 265.56C50.5089 260.48 43.1489 262.44 43.1489 259.3C43.1489 257.96 44.1689 257.32 45.4889 257.36C46.9289 257.4 47.7489 258.26 47.8289 259.2H50.3489C50.1489 256.82 48.2689 255.42 45.6089 255.42C42.7689 255.42 40.8289 256.94 40.8289 259.38C40.8289 264.5 48.2089 262.32 48.2089 265.68C48.2089 266.86 47.3089 267.72 45.7089 267.72C44.1289 267.72 43.3289 266.8 43.2289 265.66H40.7889C40.7889 268.12 42.9289 269.64 45.7089 269.64C48.8089 269.64 50.5089 267.64 50.5089 265.56ZM53.5592 266.44C53.5592 268.68 54.7792 269.5 56.7392 269.5H58.5392V267.6H57.1392C56.1792 267.6 55.8592 267.26 55.8592 266.44V260.34H58.5392V258.48H55.8592V255.74H53.5592V258.48H52.2592V260.34H53.5592V266.44ZM59.8806 263.94C59.8806 267.34 62.1806 269.68 65.0406 269.68C66.8806 269.68 68.2006 268.8 68.9006 267.86V269.5H71.2006V258.48H68.9006V260.08C68.2206 259.18 66.9406 258.3 65.0806 258.3C62.1806 258.3 59.8806 260.54 59.8806 263.94ZM68.9006 263.98C68.9006 266.36 67.2806 267.7 65.5606 267.7C63.8606 267.7 62.2206 266.32 62.2206 263.94C62.2206 261.56 63.8606 260.28 65.5606 260.28C67.2806 260.28 68.9006 261.62 68.9006 263.98ZM74.5553 266.44C74.5553 268.68 75.7753 269.5 77.7353 269.5H79.5353V267.6H78.1353C77.1753 267.6 76.8553 267.26 76.8553 266.44V260.34H79.5353V258.48H76.8553V255.74H74.5553V258.48H73.2553V260.34H74.5553V266.44ZM81.6367 269.5H83.9167V258.48H81.6367V269.5ZM82.7967 257.02C83.5967 257.02 84.2367 256.38 84.2367 255.56C84.2367 254.74 83.5967 254.1 82.7967 254.1C81.9767 254.1 81.3367 254.74 81.3367 255.56C81.3367 256.38 81.9767 257.02 82.7967 257.02ZM95.1302 266.42C95.0102 262.44 88.7902 263.68 88.7902 261.46C88.7902 260.72 89.4302 260.22 90.6502 260.22C91.8902 260.22 92.6302 260.88 92.7102 261.84H94.9902C94.8702 259.64 93.2302 258.3 90.7302 258.3C88.1302 258.3 86.4902 259.72 86.4902 261.48C86.4902 265.52 92.8902 264.28 92.8902 266.44C92.8902 267.2 92.1902 267.76 90.8702 267.76C89.6102 267.76 88.7502 267.02 88.6702 266.12H86.3102C86.4102 268.12 88.2702 269.68 90.9102 269.68C93.5102 269.68 95.1302 268.28 95.1302 266.42ZM97.9538 266.44C97.9538 268.68 99.1738 269.5 101.134 269.5H102.934V267.6H101.534C100.574 267.6 100.254 267.26 100.254 266.44V260.34H102.934V258.48H100.254V255.74H97.9538V258.48H96.6538V260.34H97.9538V266.44ZM105.035 269.5H107.315V258.48H105.035V269.5ZM106.195 257.02C106.995 257.02 107.635 256.38 107.635 255.56C107.635 254.74 106.995 254.1 106.195 254.1C105.375 254.1 104.735 254.74 104.735 255.56C104.735 256.38 105.375 257.02 106.195 257.02ZM109.549 263.98C109.549 267.44 111.789 269.68 114.949 269.68C117.649 269.68 119.409 268.18 120.029 266.02H117.569C117.149 267.16 116.309 267.76 114.949 267.76C113.109 267.76 111.889 266.4 111.889 263.98C111.889 261.58 113.109 260.22 114.949 260.22C116.309 260.22 117.189 260.9 117.569 261.96H120.029C119.409 259.64 117.649 258.3 114.949 258.3C111.789 258.3 109.549 260.54 109.549 263.98ZM130.521 266.42C130.401 262.44 124.181 263.68 124.181 261.46C124.181 260.72 124.821 260.22 126.041 260.22C127.281 260.22 128.021 260.88 128.101 261.84H130.381C130.261 259.64 128.621 258.3 126.121 258.3C123.521 258.3 121.881 259.72 121.881 261.48C121.881 265.52 128.281 264.28 128.281 266.44C128.281 267.2 127.581 267.76 126.261 267.76C125.001 267.76 124.141 267.02 124.061 266.12H121.701C121.801 268.12 123.661 269.68 126.301 269.68C128.901 269.68 130.521 268.28 130.521 266.42ZM137.42 263.94C137.42 267.34 139.72 269.68 142.58 269.68C144.42 269.68 145.74 268.8 146.44 267.86V269.5H148.74V258.48H146.44V260.08C145.76 259.18 144.48 258.3 142.62 258.3C139.72 258.3 137.42 260.54 137.42 263.94ZM146.44 263.98C146.44 266.36 144.82 267.7 143.1 267.7C141.4 267.7 139.76 266.32 139.76 263.94C139.76 261.56 141.4 260.28 143.1 260.28C144.82 260.28 146.44 261.62 146.44 263.98ZM159.554 269.5H161.814V263C161.814 259.92 159.874 258.3 157.294 258.3C155.974 258.3 154.754 258.84 154.014 259.74V258.48H151.734V269.5H154.014V263.34C154.014 261.32 155.114 260.28 156.794 260.28C158.454 260.28 159.554 261.32 159.554 263.34V269.5ZM163.963 263.94C163.963 267.34 166.263 269.68 169.163 269.68C170.963 269.68 172.283 268.84 172.983 267.84V269.5H175.283V254.7H172.983V260.02C172.143 258.98 170.623 258.3 169.183 258.3C166.263 258.3 163.963 260.54 163.963 263.94ZM172.983 263.98C172.983 266.36 171.363 267.7 169.643 267.7C167.943 267.7 166.303 266.32 166.303 263.94C166.303 261.56 167.943 260.28 169.643 260.28C171.363 260.28 172.983 261.62 172.983 263.98ZM185.753 262V257.46H188.273C190.053 257.46 190.853 258.3 190.853 259.74C190.853 261.14 190.053 262 188.273 262H185.753ZM193.193 259.74C193.193 257.48 191.573 255.6 188.273 255.6H183.473V269.5H185.753V263.86H188.273C191.893 263.86 193.193 261.72 193.193 259.74ZM197.647 263.7C197.647 261.36 198.687 260.66 200.367 260.66H200.947V258.3C199.387 258.3 198.287 258.98 197.647 260.08V258.48H195.367V269.5H197.647V263.7ZM213.543 263.98C213.543 260.52 211.063 258.3 207.923 258.3C204.783 258.3 202.303 260.52 202.303 263.98C202.303 267.44 204.683 269.68 207.823 269.68C210.983 269.68 213.543 267.44 213.543 263.98ZM204.623 263.98C204.623 261.48 206.163 260.28 207.883 260.28C209.583 260.28 211.203 261.48 211.203 263.98C211.203 266.48 209.523 267.7 207.823 267.7C206.103 267.7 204.623 266.48 204.623 263.98ZM218.077 260.12V254.7H215.797V269.5H218.077V267.9C218.797 268.86 220.097 269.68 221.917 269.68C224.817 269.68 227.097 267.34 227.097 263.94C227.097 260.54 224.837 258.3 221.917 258.3C220.177 258.3 218.797 259.12 218.077 260.12ZM224.777 263.94C224.777 266.32 223.137 267.7 221.417 267.7C219.717 267.7 218.077 266.36 218.077 263.98C218.077 261.62 219.717 260.28 221.417 260.28C223.137 260.28 224.777 261.56 224.777 263.94ZM228.592 263.94C228.592 267.34 230.892 269.68 233.752 269.68C235.592 269.68 236.912 268.8 237.612 267.86V269.5H239.912V258.48H237.612V260.08C236.932 259.18 235.652 258.3 233.792 258.3C230.892 258.3 228.592 260.54 228.592 263.94ZM237.612 263.98C237.612 266.36 235.992 267.7 234.272 267.7C232.572 267.7 230.932 266.32 230.932 263.94C230.932 261.56 232.572 260.28 234.272 260.28C235.992 260.28 237.612 261.62 237.612 263.98ZM245.186 260.12V254.7H242.906V269.5H245.186V267.9C245.906 268.86 247.206 269.68 249.026 269.68C251.926 269.68 254.206 267.34 254.206 263.94C254.206 260.54 251.946 258.3 249.026 258.3C247.286 258.3 245.906 259.12 245.186 260.12ZM251.886 263.94C251.886 266.32 250.246 267.7 248.526 267.7C246.826 267.7 245.186 266.36 245.186 263.98C245.186 261.62 246.826 260.28 248.526 260.28C250.246 260.28 251.886 261.56 251.886 263.94ZM256.461 269.5H258.741V258.48H256.461V269.5ZM257.621 257.02C258.421 257.02 259.061 256.38 259.061 255.56C259.061 254.74 258.421 254.1 257.621 254.1C256.801 254.1 256.161 254.74 256.161 255.56C256.161 256.38 256.801 257.02 257.621 257.02ZM261.734 269.5H264.014V254.7H261.734V269.5ZM267.008 269.5H269.288V258.48H267.008V269.5ZM268.168 257.02C268.968 257.02 269.608 256.38 269.608 255.56C269.608 254.74 268.968 254.1 268.168 254.1C267.348 254.1 266.708 254.74 266.708 255.56C266.708 256.38 267.348 257.02 268.168 257.02ZM272.641 266.44C272.641 268.68 273.861 269.5 275.821 269.5H277.621V267.6H276.221C275.261 267.6 274.941 267.26 274.941 266.44V260.34H277.621V258.48H274.941V255.74H272.641V258.48H271.341V260.34H272.641V266.44ZM284.063 266.88L280.963 258.48H278.423L282.763 269.32L280.523 274.68H282.883L289.643 258.48H287.283L284.063 266.88Z" fill="#212832"/>
<rect x="0.5" y="237.5" width="616" height="49" stroke="black" stroke-opacity="0.5"/>
<rect y="408" width="617" height="50" fill="white"/>
<path d="M24.6 436.44C26.08 436.44 27.24 435.3 27.24 433.84C27.24 432.36 26.08 431.22 24.6 431.22C23.16 431.22 22 432.36 22 433.84C22 435.3 23.16 436.44 24.6 436.44ZM54.5689 433.52C54.5689 429.36 51.4289 426.42 47.4689 426.42C43.5489 426.42 40.3689 429.36 40.3689 433.52C40.3689 437.7 43.5489 440.64 47.4689 440.64C51.4289 440.64 54.5689 437.7 54.5689 433.52ZM42.7089 433.52C42.7089 430.38 44.7089 428.42 47.4689 428.42C50.2289 428.42 52.2289 430.38 52.2289 433.52C52.2289 436.66 50.2289 438.66 47.4689 438.66C44.7089 438.66 42.7089 436.66 42.7089 433.52ZM59.0925 431.1V429.48H56.8125V445.74H59.0925V438.9C59.8125 439.76 61.1125 440.68 62.9325 440.68C65.8325 440.68 68.1125 438.34 68.1125 434.94C68.1125 431.54 65.8325 429.3 62.9325 429.3C61.1325 429.3 59.7925 430.18 59.0925 431.1ZM65.7925 434.94C65.7925 437.32 64.1525 438.7 62.4325 438.7C60.7325 438.7 59.0925 437.36 59.0925 434.98C59.0925 432.62 60.7325 431.28 62.4325 431.28C64.1525 431.28 65.7925 432.56 65.7925 434.94ZM75.0072 431.22C76.7072 431.22 78.0472 432.3 78.0872 434H71.9872C72.2272 432.26 73.4672 431.22 75.0072 431.22ZM80.1672 437.22H77.7072C77.2872 438.08 76.5072 438.76 75.1072 438.76C73.4272 438.76 72.1272 437.66 71.9672 435.84H80.3872C80.4472 435.46 80.4672 435.1 80.4672 434.72C80.4672 431.48 78.2472 429.3 75.1072 429.3C71.8472 429.3 69.6072 431.52 69.6072 434.98C69.6072 438.44 71.9472 440.68 75.1072 440.68C77.8072 440.68 79.5472 439.14 80.1672 437.22ZM84.9909 434.7C84.9909 432.36 86.0309 431.66 87.7109 431.66H88.2909V429.3C86.7309 429.3 85.6309 429.98 84.9909 431.08V429.48H82.7109V440.5H84.9909V434.7ZM89.6267 434.94C89.6267 438.34 91.9267 440.68 94.7867 440.68C96.6267 440.68 97.9467 439.8 98.6467 438.86V440.5H100.947V429.48H98.6467V431.08C97.9667 430.18 96.6867 429.3 94.8267 429.3C91.9267 429.3 89.6267 431.54 89.6267 434.94ZM98.6467 434.98C98.6467 437.36 97.0267 438.7 95.3067 438.7C93.6067 438.7 91.9667 437.32 91.9667 434.94C91.9667 432.56 93.6067 431.28 95.3067 431.28C97.0267 431.28 98.6467 432.62 98.6467 434.98ZM104.301 437.44C104.301 439.68 105.521 440.5 107.481 440.5H109.281V438.6H107.881C106.921 438.6 106.601 438.26 106.601 437.44V431.34H109.281V429.48H106.601V426.74H104.301V429.48H103.001V431.34H104.301V437.44ZM111.383 440.5H113.663V429.48H111.383V440.5ZM112.543 428.02C113.343 428.02 113.983 427.38 113.983 426.56C113.983 425.74 113.343 425.1 112.543 425.1C111.723 425.1 111.083 425.74 111.083 426.56C111.083 427.38 111.723 428.02 112.543 428.02ZM124.476 440.5H126.736V434C126.736 430.92 124.796 429.3 122.216 429.3C120.896 429.3 119.676 429.84 118.936 430.74V429.48H116.656V440.5H118.936V434.34C118.936 432.32 120.036 431.28 121.716 431.28C123.376 431.28 124.476 432.32 124.476 434.34V440.5ZM128.885 434.94C128.885 438.34 131.185 440.68 134.085 440.68C135.885 440.68 137.205 439.78 137.905 438.84V440.68C137.905 442.88 136.585 443.96 134.825 443.96C133.245 443.96 132.025 443.18 131.685 442.04H129.425C129.705 444.48 131.885 445.94 134.825 445.94C138.265 445.94 140.205 443.68 140.205 440.68V429.48H137.905V431.08C137.225 430.14 135.885 429.3 134.085 429.3C131.185 429.3 128.885 431.54 128.885 434.94ZM137.905 434.98C137.905 437.36 136.285 438.7 134.565 438.7C132.865 438.7 131.225 437.32 131.225 434.94C131.225 432.56 132.865 431.28 134.565 431.28C136.285 431.28 137.905 432.62 137.905 434.98ZM157.775 436.56C157.775 431.48 150.415 433.44 150.415 430.3C150.415 428.96 151.435 428.32 152.755 428.36C154.195 428.4 155.015 429.26 155.095 430.2H157.615C157.415 427.82 155.535 426.42 152.875 426.42C150.035 426.42 148.095 427.94 148.095 430.38C148.095 435.5 155.475 433.32 155.475 436.68C155.475 437.86 154.575 438.72 152.975 438.72C151.395 438.72 150.595 437.8 150.495 436.66H148.055C148.055 439.12 150.195 440.64 152.975 440.64C156.075 440.64 157.775 438.64 157.775 436.56ZM164.805 437.88L161.705 429.48H159.165L163.505 440.32L161.265 445.68H163.625L170.385 429.48H168.025L164.805 437.88ZM180.325 437.42C180.205 433.44 173.985 434.68 173.985 432.46C173.985 431.72 174.625 431.22 175.845 431.22C177.085 431.22 177.825 431.88 177.905 432.84H180.185C180.065 430.64 178.425 429.3 175.925 429.3C173.325 429.3 171.685 430.72 171.685 432.48C171.685 436.52 178.085 435.28 178.085 437.44C178.085 438.2 177.385 438.76 176.065 438.76C174.805 438.76 173.945 438.02 173.865 437.12H171.505C171.605 439.12 173.465 440.68 176.105 440.68C178.705 440.68 180.325 439.28 180.325 437.42ZM183.149 437.44C183.149 439.68 184.369 440.5 186.329 440.5H188.129V438.6H186.729C185.769 438.6 185.449 438.26 185.449 437.44V431.34H188.129V429.48H185.449V426.74H183.149V429.48H181.849V431.34H183.149V437.44ZM194.87 431.22C196.57 431.22 197.91 432.3 197.95 434H191.85C192.09 432.26 193.33 431.22 194.87 431.22ZM200.03 437.22H197.57C197.15 438.08 196.37 438.76 194.97 438.76C193.29 438.76 191.99 437.66 191.83 435.84H200.25C200.31 435.46 200.33 435.1 200.33 434.72C200.33 431.48 198.11 429.3 194.97 429.3C191.71 429.3 189.47 431.52 189.47 434.98C189.47 438.44 191.81 440.68 194.97 440.68C197.67 440.68 199.41 439.14 200.03 437.22ZM218.194 440.5H220.454V434C220.454 430.92 218.494 429.3 215.914 429.3C214.314 429.3 212.754 430.14 212.074 431.48C211.314 430.04 209.854 429.3 208.114 429.3C206.794 429.3 205.594 429.84 204.854 430.74V429.48H202.574V440.5H204.854V434.34C204.854 432.32 205.954 431.28 207.634 431.28C209.294 431.28 210.394 432.32 210.394 434.34V440.5H212.654V434.34C212.654 432.32 213.754 431.28 215.434 431.28C217.094 431.28 218.194 432.32 218.194 434.34V440.5Z" fill="#212832"/>
<rect x="0.5" y="408.5" width="616" height="49" stroke="black" stroke-opacity="0.5"/>
<rect y="294" width="617" height="50" fill="white"/>
<path d="M24.6 322.44C26.08 322.44 27.24 321.3 27.24 319.84C27.24 318.36 26.08 317.22 24.6 317.22C23.16 317.22 22 318.36 22 319.84C22 321.3 23.16 322.44 24.6 322.44ZM45.6689 312.6H41.1289V326.5H45.6689C50.1289 326.5 53.0489 323.88 53.0489 319.6C53.0489 315.3 50.1289 312.6 45.6689 312.6ZM43.4089 324.64V314.46H45.6689C48.9489 314.46 50.7089 316.42 50.7089 319.6C50.7089 322.76 48.9489 324.64 45.6689 324.64H43.4089ZM54.5486 320.94C54.5486 324.34 56.8486 326.68 59.7086 326.68C61.5486 326.68 62.8686 325.8 63.5686 324.86V326.5H65.8686V315.48H63.5686V317.08C62.8886 316.18 61.6086 315.3 59.7486 315.3C56.8486 315.3 54.5486 317.54 54.5486 320.94ZM63.5686 320.98C63.5686 323.36 61.9486 324.7 60.2286 324.7C58.5286 324.7 56.8886 323.32 56.8886 320.94C56.8886 318.56 58.5286 317.28 60.2286 317.28C61.9486 317.28 63.5686 318.62 63.5686 320.98ZM69.2233 323.44C69.2233 325.68 70.4433 326.5 72.4033 326.5H74.2033V324.6H72.8033C71.8433 324.6 71.5233 324.26 71.5233 323.44V317.34H74.2033V315.48H71.5233V312.74H69.2233V315.48H67.9233V317.34H69.2233V323.44ZM75.5447 320.94C75.5447 324.34 77.8447 326.68 80.7047 326.68C82.5447 326.68 83.8647 325.8 84.5647 324.86V326.5H86.8647V315.48H84.5647V317.08C83.8847 316.18 82.6047 315.3 80.7447 315.3C77.8447 315.3 75.5447 317.54 75.5447 320.94ZM84.5647 320.98C84.5647 323.36 82.9447 324.7 81.2247 324.7C79.5247 324.7 77.8847 323.32 77.8847 320.94C77.8847 318.56 79.5247 317.28 81.2247 317.28C82.9447 317.28 84.5647 318.62 84.5647 320.98ZM92.1394 317.12V311.7H89.8594V326.5H92.1394V324.9C92.8594 325.86 94.1594 326.68 95.9794 326.68C98.8794 326.68 101.159 324.34 101.159 320.94C101.159 317.54 98.8994 315.3 95.9794 315.3C94.2394 315.3 92.8594 316.12 92.1394 317.12ZM98.8394 320.94C98.8394 323.32 97.1994 324.7 95.4794 324.7C93.7794 324.7 92.1394 323.36 92.1394 320.98C92.1394 318.62 93.7794 317.28 95.4794 317.28C97.1994 317.28 98.8394 318.56 98.8394 320.94ZM102.654 320.94C102.654 324.34 104.954 326.68 107.814 326.68C109.654 326.68 110.974 325.8 111.674 324.86V326.5H113.974V315.48H111.674V317.08C110.994 316.18 109.714 315.3 107.854 315.3C104.954 315.3 102.654 317.54 102.654 320.94ZM111.674 320.98C111.674 323.36 110.054 324.7 108.334 324.7C106.634 324.7 104.994 323.32 104.994 320.94C104.994 318.56 106.634 317.28 108.334 317.28C110.054 317.28 111.674 318.62 111.674 320.98ZM125.189 323.42C125.069 319.44 118.849 320.68 118.849 318.46C118.849 317.72 119.489 317.22 120.709 317.22C121.949 317.22 122.689 317.88 122.769 318.84H125.049C124.929 316.64 123.289 315.3 120.789 315.3C118.189 315.3 116.549 316.72 116.549 318.48C116.549 322.52 122.949 321.28 122.949 323.44C122.949 324.2 122.249 324.76 120.929 324.76C119.669 324.76 118.809 324.02 118.729 323.12H116.369C116.469 325.12 118.329 326.68 120.969 326.68C123.569 326.68 125.189 325.28 125.189 323.42ZM132.292 317.22C133.992 317.22 135.332 318.3 135.372 320H129.272C129.512 318.26 130.752 317.22 132.292 317.22ZM137.452 323.22H134.992C134.572 324.08 133.792 324.76 132.392 324.76C130.712 324.76 129.412 323.66 129.252 321.84H137.672C137.732 321.46 137.752 321.1 137.752 320.72C137.752 317.48 135.532 315.3 132.392 315.3C129.132 315.3 126.892 317.52 126.892 320.98C126.892 324.44 129.232 326.68 132.392 326.68C135.092 326.68 136.832 325.14 137.452 323.22ZM145.191 326.5H147.471V316.98L151.731 326.5H153.311L157.551 316.98V326.5H159.831V312.6H157.391L152.531 323.5L147.651 312.6H145.191V326.5ZM162.068 320.94C162.068 324.34 164.368 326.68 167.228 326.68C169.068 326.68 170.388 325.8 171.088 324.86V326.5H173.388V315.48H171.088V317.08C170.408 316.18 169.128 315.3 167.268 315.3C164.368 315.3 162.068 317.54 162.068 320.94ZM171.088 320.98C171.088 323.36 169.468 324.7 167.748 324.7C166.048 324.7 164.408 323.32 164.408 320.94C164.408 318.56 166.048 317.28 167.748 317.28C169.468 317.28 171.088 318.62 171.088 320.98ZM184.203 326.5H186.463V320C186.463 316.92 184.523 315.3 181.943 315.3C180.623 315.3 179.403 315.84 178.663 316.74V315.48H176.383V326.5H178.663V320.34C178.663 318.32 179.763 317.28 181.443 317.28C183.103 317.28 184.203 318.32 184.203 320.34V326.5ZM188.611 320.94C188.611 324.34 190.911 326.68 193.771 326.68C195.611 326.68 196.931 325.8 197.631 324.86V326.5H199.931V315.48H197.631V317.08C196.951 316.18 195.671 315.3 193.811 315.3C190.911 315.3 188.611 317.54 188.611 320.94ZM197.631 320.98C197.631 323.36 196.011 324.7 194.291 324.7C192.591 324.7 190.951 323.32 190.951 320.94C190.951 318.56 192.591 317.28 194.291 317.28C196.011 317.28 197.631 318.62 197.631 320.98ZM202.166 320.94C202.166 324.34 204.466 326.68 207.366 326.68C209.166 326.68 210.486 325.78 211.186 324.84V326.68C211.186 328.88 209.866 329.96 208.106 329.96C206.526 329.96 205.306 329.18 204.966 328.04H202.706C202.986 330.48 205.166 331.94 208.106 331.94C211.546 331.94 213.486 329.68 213.486 326.68V315.48H211.186V317.08C210.506 316.14 209.166 315.3 207.366 315.3C204.466 315.3 202.166 317.54 202.166 320.94ZM211.186 320.98C211.186 323.36 209.566 324.7 207.846 324.7C206.146 324.7 204.506 323.32 204.506 320.94C204.506 318.56 206.146 317.28 207.846 317.28C209.566 317.28 211.186 318.62 211.186 320.98ZM221.12 317.22C222.82 317.22 224.16 318.3 224.2 320H218.1C218.34 318.26 219.58 317.22 221.12 317.22ZM226.28 323.22H223.82C223.4 324.08 222.62 324.76 221.22 324.76C219.54 324.76 218.24 323.66 218.08 321.84H226.5C226.56 321.46 226.58 321.1 226.58 320.72C226.58 317.48 224.36 315.3 221.22 315.3C217.96 315.3 215.72 317.52 215.72 320.98C215.72 324.44 218.06 326.68 221.22 326.68C223.92 326.68 225.66 325.14 226.28 323.22ZM244.444 326.5H246.704V320C246.704 316.92 244.744 315.3 242.164 315.3C240.564 315.3 239.004 316.14 238.324 317.48C237.564 316.04 236.104 315.3 234.364 315.3C233.044 315.3 231.844 315.84 231.104 316.74V315.48H228.824V326.5H231.104V320.34C231.104 318.32 232.204 317.28 233.884 317.28C235.544 317.28 236.644 318.32 236.644 320.34V326.5H238.904V320.34C238.904 318.32 240.004 317.28 241.684 317.28C243.344 317.28 244.444 318.32 244.444 320.34V326.5ZM254.245 317.22C255.945 317.22 257.285 318.3 257.325 320H251.225C251.465 318.26 252.705 317.22 254.245 317.22ZM259.405 323.22H256.945C256.525 324.08 255.745 324.76 254.345 324.76C252.665 324.76 251.365 323.66 251.205 321.84H259.625C259.685 321.46 259.705 321.1 259.705 320.72C259.705 317.48 257.485 315.3 254.345 315.3C251.085 315.3 248.845 317.52 248.845 320.98C248.845 324.44 251.185 326.68 254.345 326.68C257.045 326.68 258.785 325.14 259.405 323.22ZM269.769 326.5H272.029V320C272.029 316.92 270.089 315.3 267.509 315.3C266.189 315.3 264.969 315.84 264.229 316.74V315.48H261.949V326.5H264.229V320.34C264.229 318.32 265.329 317.28 267.009 317.28C268.669 317.28 269.769 318.32 269.769 320.34V326.5ZM275.298 323.44C275.298 325.68 276.518 326.5 278.478 326.5H280.278V324.6H278.878C277.918 324.6 277.598 324.26 277.598 323.44V317.34H280.278V315.48H277.598V312.74H275.298V315.48H273.998V317.34H275.298V323.44ZM296.954 322.56C296.954 317.48 289.594 319.44 289.594 316.3C289.594 314.96 290.614 314.32 291.934 314.36C293.374 314.4 294.194 315.26 294.274 316.2H296.794C296.594 313.82 294.714 312.42 292.054 312.42C289.214 312.42 287.274 313.94 287.274 316.38C287.274 321.5 294.654 319.32 294.654 322.68C294.654 323.86 293.754 324.72 292.154 324.72C290.574 324.72 289.774 323.8 289.674 322.66H287.234C287.234 325.12 289.374 326.64 292.154 326.64C295.254 326.64 296.954 324.64 296.954 322.56ZM303.985 323.88L300.885 315.48H298.345L302.685 326.32L300.445 331.68H302.805L309.565 315.48H307.205L303.985 323.88ZM319.505 323.42C319.385 319.44 313.165 320.68 313.165 318.46C313.165 317.72 313.805 317.22 315.025 317.22C316.265 317.22 317.005 317.88 317.085 318.84H319.365C319.245 316.64 317.605 315.3 315.105 315.3C312.505 315.3 310.865 316.72 310.865 318.48C310.865 322.52 317.265 321.28 317.265 323.44C317.265 324.2 316.565 324.76 315.245 324.76C313.985 324.76 313.125 324.02 313.045 323.12H310.685C310.785 325.12 312.645 326.68 315.285 326.68C317.885 326.68 319.505 325.28 319.505 323.42ZM322.329 323.44C322.329 325.68 323.549 326.5 325.509 326.5H327.309V324.6H325.909C324.949 324.6 324.629 324.26 324.629 323.44V317.34H327.309V315.48H324.629V312.74H322.329V315.48H321.029V317.34H322.329V323.44ZM334.05 317.22C335.75 317.22 337.09 318.3 337.13 320H331.03C331.27 318.26 332.51 317.22 334.05 317.22ZM339.21 323.22H336.75C336.33 324.08 335.55 324.76 334.15 324.76C332.47 324.76 331.17 323.66 331.01 321.84H339.43C339.49 321.46 339.51 321.1 339.51 320.72C339.51 317.48 337.29 315.3 334.15 315.3C330.89 315.3 328.65 317.52 328.65 320.98C328.65 324.44 330.99 326.68 334.15 326.68C336.85 326.68 338.59 325.14 339.21 323.22ZM357.374 326.5H359.634V320C359.634 316.92 357.674 315.3 355.094 315.3C353.494 315.3 351.934 316.14 351.254 317.48C350.494 316.04 349.034 315.3 347.294 315.3C345.974 315.3 344.774 315.84 344.034 316.74V315.48H341.754V326.5H344.034V320.34C344.034 318.32 345.134 317.28 346.814 317.28C348.474 317.28 349.574 318.32 349.574 320.34V326.5H351.834V320.34C351.834 318.32 352.934 317.28 354.614 317.28C356.274 317.28 357.374 318.32 357.374 320.34V326.5Z" fill="#212832"/>
<rect x="0.5" y="294.5" width="616" height="49" stroke="black" stroke-opacity="0.5"/>
<rect y="465" width="617" height="50" fill="white"/>
<path d="M24.6 493.44C26.08 493.44 27.24 492.3 27.24 490.84C27.24 489.36 26.08 488.22 24.6 488.22C23.16 488.22 22 489.36 22 490.84C22 492.3 23.16 493.44 24.6 493.44ZM45.6689 483.6H41.1289V497.5H45.6689C50.1289 497.5 53.0489 494.88 53.0489 490.6C53.0489 486.3 50.1289 483.6 45.6689 483.6ZM43.4089 495.64V485.46H45.6689C48.9489 485.46 50.7089 487.42 50.7089 490.6C50.7089 493.76 48.9489 495.64 45.6689 495.64H43.4089ZM54.5486 491.94C54.5486 495.34 56.8486 497.68 59.7086 497.68C61.5486 497.68 62.8686 496.8 63.5686 495.86V497.5H65.8686V486.48H63.5686V488.08C62.8886 487.18 61.6086 486.3 59.7486 486.3C56.8486 486.3 54.5486 488.54 54.5486 491.94ZM63.5686 491.98C63.5686 494.36 61.9486 495.7 60.2286 495.7C58.5286 495.7 56.8886 494.32 56.8886 491.94C56.8886 489.56 58.5286 488.28 60.2286 488.28C61.9486 488.28 63.5686 489.62 63.5686 491.98ZM69.2233 494.44C69.2233 496.68 70.4433 497.5 72.4033 497.5H74.2033V495.6H72.8033C71.8433 495.6 71.5233 495.26 71.5233 494.44V488.34H74.2033V486.48H71.5233V483.74H69.2233V486.48H67.9233V488.34H69.2233V494.44ZM75.5447 491.94C75.5447 495.34 77.8447 497.68 80.7047 497.68C82.5447 497.68 83.8647 496.8 84.5647 495.86V497.5H86.8647V486.48H84.5647V488.08C83.8847 487.18 82.6047 486.3 80.7447 486.3C77.8447 486.3 75.5447 488.54 75.5447 491.94ZM84.5647 491.98C84.5647 494.36 82.9447 495.7 81.2247 495.7C79.5247 495.7 77.8847 494.32 77.8847 491.94C77.8847 489.56 79.5247 488.28 81.2247 488.28C82.9447 488.28 84.5647 489.62 84.5647 491.98ZM92.1394 488.12V482.7H89.8594V497.5H92.1394V495.9C92.8594 496.86 94.1594 497.68 95.9794 497.68C98.8794 497.68 101.159 495.34 101.159 491.94C101.159 488.54 98.8994 486.3 95.9794 486.3C94.2394 486.3 92.8594 487.12 92.1394 488.12ZM98.8394 491.94C98.8394 494.32 97.1994 495.7 95.4794 495.7C93.7794 495.7 92.1394 494.36 92.1394 491.98C92.1394 489.62 93.7794 488.28 95.4794 488.28C97.1994 488.28 98.8394 489.56 98.8394 491.94ZM102.654 491.94C102.654 495.34 104.954 497.68 107.814 497.68C109.654 497.68 110.974 496.8 111.674 495.86V497.5H113.974V486.48H111.674V488.08C110.994 487.18 109.714 486.3 107.854 486.3C104.954 486.3 102.654 488.54 102.654 491.94ZM111.674 491.98C111.674 494.36 110.054 495.7 108.334 495.7C106.634 495.7 104.994 494.32 104.994 491.94C104.994 489.56 106.634 488.28 108.334 488.28C110.054 488.28 111.674 489.62 111.674 491.98ZM125.189 494.42C125.069 490.44 118.849 491.68 118.849 489.46C118.849 488.72 119.489 488.22 120.709 488.22C121.949 488.22 122.689 488.88 122.769 489.84H125.049C124.929 487.64 123.289 486.3 120.789 486.3C118.189 486.3 116.549 487.72 116.549 489.48C116.549 493.52 122.949 492.28 122.949 494.44C122.949 495.2 122.249 495.76 120.929 495.76C119.669 495.76 118.809 495.02 118.729 494.12H116.369C116.469 496.12 118.329 497.68 120.969 497.68C123.569 497.68 125.189 496.28 125.189 494.42ZM132.292 488.22C133.992 488.22 135.332 489.3 135.372 491H129.272C129.512 489.26 130.752 488.22 132.292 488.22ZM137.452 494.22H134.992C134.572 495.08 133.792 495.76 132.392 495.76C130.712 495.76 129.412 494.66 129.252 492.84H137.672C137.732 492.46 137.752 492.1 137.752 491.72C137.752 488.48 135.532 486.3 132.392 486.3C129.132 486.3 126.892 488.52 126.892 491.98C126.892 495.44 129.232 497.68 132.392 497.68C135.092 497.68 136.832 496.14 137.452 494.22ZM145.191 497.5H147.471V487.98L151.731 497.5H153.311L157.551 487.98V497.5H159.831V483.6H157.391L152.531 494.5L147.651 483.6H145.191V497.5ZM162.068 491.94C162.068 495.34 164.368 497.68 167.228 497.68C169.068 497.68 170.388 496.8 171.088 495.86V497.5H173.388V486.48H171.088V488.08C170.408 487.18 169.128 486.3 167.268 486.3C164.368 486.3 162.068 488.54 162.068 491.94ZM171.088 491.98C171.088 494.36 169.468 495.7 167.748 495.7C166.048 495.7 164.408 494.32 164.408 491.94C164.408 489.56 166.048 488.28 167.748 488.28C169.468 488.28 171.088 489.62 171.088 491.98ZM184.203 497.5H186.463V491C186.463 487.92 184.523 486.3 181.943 486.3C180.623 486.3 179.403 486.84 178.663 487.74V486.48H176.383V497.5H178.663V491.34C178.663 489.32 179.763 488.28 181.443 488.28C183.103 488.28 184.203 489.32 184.203 491.34V497.5ZM188.611 491.94C188.611 495.34 190.911 497.68 193.771 497.68C195.611 497.68 196.931 496.8 197.631 495.86V497.5H199.931V486.48H197.631V488.08C196.951 487.18 195.671 486.3 193.811 486.3C190.911 486.3 188.611 488.54 188.611 491.94ZM197.631 491.98C197.631 494.36 196.011 495.7 194.291 495.7C192.591 495.7 190.951 494.32 190.951 491.94C190.951 489.56 192.591 488.28 194.291 488.28C196.011 488.28 197.631 489.62 197.631 491.98ZM202.166 491.94C202.166 495.34 204.466 497.68 207.366 497.68C209.166 497.68 210.486 496.78 211.186 495.84V497.68C211.186 499.88 209.866 500.96 208.106 500.96C206.526 500.96 205.306 500.18 204.966 499.04H202.706C202.986 501.48 205.166 502.94 208.106 502.94C211.546 502.94 213.486 500.68 213.486 497.68V486.48H211.186V488.08C210.506 487.14 209.166 486.3 207.366 486.3C204.466 486.3 202.166 488.54 202.166 491.94ZM211.186 491.98C211.186 494.36 209.566 495.7 207.846 495.7C206.146 495.7 204.506 494.32 204.506 491.94C204.506 489.56 206.146 488.28 207.846 488.28C209.566 488.28 211.186 489.62 211.186 491.98ZM221.12 488.22C222.82 488.22 224.16 489.3 224.2 491H218.1C218.34 489.26 219.58 488.22 221.12 488.22ZM226.28 494.22H223.82C223.4 495.08 222.62 495.76 221.22 495.76C219.54 495.76 218.24 494.66 218.08 492.84H226.5C226.56 492.46 226.58 492.1 226.58 491.72C226.58 488.48 224.36 486.3 221.22 486.3C217.96 486.3 215.72 488.52 215.72 491.98C215.72 495.44 218.06 497.68 221.22 497.68C223.92 497.68 225.66 496.14 226.28 494.22ZM244.444 497.5H246.704V491C246.704 487.92 244.744 486.3 242.164 486.3C240.564 486.3 239.004 487.14 238.324 488.48C237.564 487.04 236.104 486.3 234.364 486.3C233.044 486.3 231.844 486.84 231.104 487.74V486.48H228.824V497.5H231.104V491.34C231.104 489.32 232.204 488.28 233.884 488.28C235.544 488.28 236.644 489.32 236.644 491.34V497.5H238.904V491.34C238.904 489.32 240.004 488.28 241.684 488.28C243.344 488.28 244.444 489.32 244.444 491.34V497.5ZM254.245 488.22C255.945 488.22 257.285 489.3 257.325 491H251.225C251.465 489.26 252.705 488.22 254.245 488.22ZM259.405 494.22H256.945C256.525 495.08 255.745 495.76 254.345 495.76C252.665 495.76 251.365 494.66 251.205 492.84H259.625C259.685 492.46 259.705 492.1 259.705 491.72C259.705 488.48 257.485 486.3 254.345 486.3C251.085 486.3 248.845 488.52 248.845 491.98C248.845 495.44 251.185 497.68 254.345 497.68C257.045 497.68 258.785 496.14 259.405 494.22ZM269.769 497.5H272.029V491C272.029 487.92 270.089 486.3 267.509 486.3C266.189 486.3 264.969 486.84 264.229 487.74V486.48H261.949V497.5H264.229V491.34C264.229 489.32 265.329 488.28 267.009 488.28C268.669 488.28 269.769 489.32 269.769 491.34V497.5ZM275.298 494.44C275.298 496.68 276.518 497.5 278.478 497.5H280.278V495.6H278.878C277.918 495.6 277.598 495.26 277.598 494.44V488.34H280.278V486.48H277.598V483.74H275.298V486.48H273.998V488.34H275.298V494.44ZM296.954 493.56C296.954 488.48 289.594 490.44 289.594 487.3C289.594 485.96 290.614 485.32 291.934 485.36C293.374 485.4 294.194 486.26 294.274 487.2H296.794C296.594 484.82 294.714 483.42 292.054 483.42C289.214 483.42 287.274 484.94 287.274 487.38C287.274 492.5 294.654 490.32 294.654 493.68C294.654 494.86 293.754 495.72 292.154 495.72C290.574 495.72 289.774 494.8 289.674 493.66H287.234C287.234 496.12 289.374 497.64 292.154 497.64C295.254 497.64 296.954 495.64 296.954 493.56ZM303.985 494.88L300.885 486.48H298.345L302.685 497.32L300.445 502.68H302.805L309.565 486.48H307.205L303.985 494.88ZM319.505 494.42C319.385 490.44 313.165 491.68 313.165 489.46C313.165 488.72 313.805 488.22 315.025 488.22C316.265 488.22 317.005 488.88 317.085 489.84H319.365C319.245 487.64 317.605 486.3 315.105 486.3C312.505 486.3 310.865 487.72 310.865 489.48C310.865 493.52 317.265 492.28 317.265 494.44C317.265 495.2 316.565 495.76 315.245 495.76C313.985 495.76 313.125 495.02 313.045 494.12H310.685C310.785 496.12 312.645 497.68 315.285 497.68C317.885 497.68 319.505 496.28 319.505 494.42ZM322.329 494.44C322.329 496.68 323.549 497.5 325.509 497.5H327.309V495.6H325.909C324.949 495.6 324.629 495.26 324.629 494.44V488.34H327.309V486.48H324.629V483.74H322.329V486.48H321.029V488.34H322.329V494.44ZM334.05 488.22C335.75 488.22 337.09 489.3 337.13 491H331.03C331.27 489.26 332.51 488.22 334.05 488.22ZM339.21 494.22H336.75C336.33 495.08 335.55 495.76 334.15 495.76C332.47 495.76 331.17 494.66 331.01 492.84H339.43C339.49 492.46 339.51 492.1 339.51 491.72C339.51 488.48 337.29 486.3 334.15 486.3C330.89 486.3 328.65 488.52 328.65 491.98C328.65 495.44 330.99 497.68 334.15 497.68C336.85 497.68 338.59 496.14 339.21 494.22ZM357.374 497.5H359.634V491C359.634 487.92 357.674 486.3 355.094 486.3C353.494 486.3 351.934 487.14 351.254 488.48C350.494 487.04 349.034 486.3 347.294 486.3C345.974 486.3 344.774 486.84 344.034 487.74V486.48H341.754V497.5H344.034V491.34C344.034 489.32 345.134 488.28 346.814 488.28C348.474 488.28 349.574 489.32 349.574 491.34V497.5H351.834V491.34C351.834 489.32 352.934 488.28 354.614 488.28C356.274 488.28 357.374 489.32 357.374 491.34V497.5ZM367.73 483.6V497.5H374.71V495.66H370.01V483.6H367.73ZM375.857 491.94C375.857 495.34 378.157 497.68 381.017 497.68C382.857 497.68 384.177 496.8 384.877 495.86V497.5H387.177V486.48H384.877V488.08C384.197 487.18 382.917 486.3 381.057 486.3C378.157 486.3 375.857 488.54 375.857 491.94ZM384.877 491.98C384.877 494.36 383.257 495.7 381.537 495.7C379.837 495.7 378.197 494.32 378.197 491.94C378.197 489.56 379.837 488.28 381.537 488.28C383.257 488.28 384.877 489.62 384.877 491.98ZM392.452 488.12V482.7H390.172V497.5H392.452V495.9C393.172 496.86 394.472 497.68 396.292 497.68C399.192 497.68 401.472 495.34 401.472 491.94C401.472 488.54 399.212 486.3 396.292 486.3C394.552 486.3 393.172 487.12 392.452 488.12ZM399.152 491.94C399.152 494.32 397.512 495.7 395.792 495.7C394.092 495.7 392.452 494.36 392.452 491.98C392.452 489.62 394.092 488.28 395.792 488.28C397.512 488.28 399.152 489.56 399.152 491.94Z" fill="#212832"/>
<rect x="0.5" y="465.5" width="616" height="49" stroke="black" stroke-opacity="0.5"/>
<rect y="351" width="617" height="50" fill="white"/>
<path d="M24.6 379.44C26.08 379.44 27.24 378.3 27.24 376.84C27.24 375.36 26.08 374.22 24.6 374.22C23.16 374.22 22 375.36 22 376.84C22 378.3 23.16 379.44 24.6 379.44ZM45.6689 369.6H41.1289V383.5H45.6689C50.1289 383.5 53.0489 380.88 53.0489 376.6C53.0489 372.3 50.1289 369.6 45.6689 369.6ZM43.4089 381.64V371.46H45.6689C48.9489 371.46 50.7089 373.42 50.7089 376.6C50.7089 379.76 48.9489 381.64 45.6689 381.64H43.4089ZM54.5486 377.94C54.5486 381.34 56.8486 383.68 59.7086 383.68C61.5486 383.68 62.8686 382.8 63.5686 381.86V383.5H65.8686V372.48H63.5686V374.08C62.8886 373.18 61.6086 372.3 59.7486 372.3C56.8486 372.3 54.5486 374.54 54.5486 377.94ZM63.5686 377.98C63.5686 380.36 61.9486 381.7 60.2286 381.7C58.5286 381.7 56.8886 380.32 56.8886 377.94C56.8886 375.56 58.5286 374.28 60.2286 374.28C61.9486 374.28 63.5686 375.62 63.5686 377.98ZM69.2233 380.44C69.2233 382.68 70.4433 383.5 72.4033 383.5H74.2033V381.6H72.8033C71.8433 381.6 71.5233 381.26 71.5233 380.44V374.34H74.2033V372.48H71.5233V369.74H69.2233V372.48H67.9233V374.34H69.2233V380.44ZM75.5447 377.94C75.5447 381.34 77.8447 383.68 80.7047 383.68C82.5447 383.68 83.8647 382.8 84.5647 381.86V383.5H86.8647V372.48H84.5647V374.08C83.8847 373.18 82.6047 372.3 80.7447 372.3C77.8447 372.3 75.5447 374.54 75.5447 377.94ZM84.5647 377.98C84.5647 380.36 82.9447 381.7 81.2247 381.7C79.5247 381.7 77.8847 380.32 77.8847 377.94C77.8847 375.56 79.5247 374.28 81.2247 374.28C82.9447 374.28 84.5647 375.62 84.5647 377.98ZM104.435 379.56C104.435 374.48 97.0747 376.44 97.0747 373.3C97.0747 371.96 98.0947 371.32 99.4147 371.36C100.855 371.4 101.675 372.26 101.755 373.2H104.275C104.075 370.82 102.195 369.42 99.5347 369.42C96.6947 369.42 94.7547 370.94 94.7547 373.38C94.7547 378.5 102.135 376.32 102.135 379.68C102.135 380.86 101.235 381.72 99.6347 381.72C98.0547 381.72 97.2547 380.8 97.1547 379.66H94.7147C94.7147 382.12 96.8547 383.64 99.6347 383.64C102.735 383.64 104.435 381.64 104.435 379.56ZM107.485 380.44C107.485 382.68 108.705 383.5 110.665 383.5H112.465V381.6H111.065C110.105 381.6 109.785 381.26 109.785 380.44V374.34H112.465V372.48H109.785V369.74H107.485V372.48H106.185V374.34H107.485V380.44ZM116.846 377.7C116.846 375.36 117.886 374.66 119.566 374.66H120.146V372.3C118.586 372.3 117.486 372.98 116.846 374.08V372.48H114.566V383.5H116.846V377.7ZM132.222 372.48H129.942V378.62C129.942 380.64 128.842 381.68 127.162 381.68C125.502 381.68 124.402 380.64 124.402 378.62V372.48H122.142V378.96C122.142 382.04 124.102 383.66 126.682 383.66C127.982 383.66 129.222 383.12 129.942 382.18V383.5H132.222V372.48ZM134.47 377.98C134.47 381.44 136.71 383.68 139.87 383.68C142.57 383.68 144.33 382.18 144.95 380.02H142.49C142.07 381.16 141.23 381.76 139.87 381.76C138.03 381.76 136.81 380.4 136.81 377.98C136.81 375.58 138.03 374.22 139.87 374.22C141.23 374.22 142.11 374.9 142.49 375.96H144.95C144.33 373.64 142.57 372.3 139.87 372.3C136.71 372.3 134.47 374.54 134.47 377.98ZM147.583 380.44C147.583 382.68 148.803 383.5 150.763 383.5H152.563V381.6H151.163C150.203 381.6 149.883 381.26 149.883 380.44V374.34H152.563V372.48H149.883V369.74H147.583V372.48H146.283V374.34H147.583V380.44ZM164.644 372.48H162.364V378.62C162.364 380.64 161.264 381.68 159.584 381.68C157.924 381.68 156.824 380.64 156.824 378.62V372.48H154.564V378.96C154.564 382.04 156.524 383.66 159.104 383.66C160.404 383.66 161.644 383.12 162.364 382.18V383.5H164.644V372.48ZM169.932 377.7C169.932 375.36 170.972 374.66 172.652 374.66H173.232V372.3C171.672 372.3 170.572 372.98 169.932 374.08V372.48H167.652V383.5H169.932V377.7ZM179.968 374.22C181.668 374.22 183.008 375.3 183.048 377H176.948C177.188 375.26 178.428 374.22 179.968 374.22ZM185.128 380.22H182.668C182.248 381.08 181.468 381.76 180.068 381.76C178.388 381.76 177.088 380.66 176.928 378.84H185.348C185.408 378.46 185.428 378.1 185.428 377.72C185.428 374.48 183.208 372.3 180.068 372.3C176.808 372.3 174.568 374.52 174.568 377.98C174.568 381.44 176.908 383.68 180.068 383.68C182.768 383.68 184.508 382.14 185.128 380.22ZM192.107 377.94C192.107 381.34 194.407 383.68 197.267 383.68C199.107 383.68 200.427 382.8 201.127 381.86V383.5H203.427V372.48H201.127V374.08C200.447 373.18 199.167 372.3 197.307 372.3C194.407 372.3 192.107 374.54 192.107 377.94ZM201.127 377.98C201.127 380.36 199.507 381.7 197.787 381.7C196.087 381.7 194.447 380.32 194.447 377.94C194.447 375.56 196.087 374.28 197.787 374.28C199.507 374.28 201.127 375.62 201.127 377.98ZM214.242 383.5H216.502V377C216.502 373.92 214.562 372.3 211.982 372.3C210.662 372.3 209.442 372.84 208.702 373.74V372.48H206.422V383.5H208.702V377.34C208.702 375.32 209.802 374.28 211.482 374.28C213.142 374.28 214.242 375.32 214.242 377.34V383.5ZM218.65 377.94C218.65 381.34 220.95 383.68 223.85 383.68C225.65 383.68 226.97 382.84 227.67 381.84V383.5H229.97V368.7H227.67V374.02C226.83 372.98 225.31 372.3 223.87 372.3C220.95 372.3 218.65 374.54 218.65 377.94ZM227.67 377.98C227.67 380.36 226.05 381.7 224.33 381.7C222.63 381.7 220.99 380.32 220.99 377.94C220.99 375.56 222.63 374.28 224.33 374.28C226.05 374.28 227.67 375.62 227.67 377.98ZM247.54 383.5H249.94L244.96 369.58H242.32L237.34 383.5H239.72L240.72 380.66H246.54L247.54 383.5ZM245.9 378.8H241.36L243.64 372.34L245.9 378.8ZM252.105 383.5H254.385V368.7H252.105V383.5ZM256.619 377.94C256.619 381.34 258.919 383.68 261.819 383.68C263.619 383.68 264.939 382.78 265.639 381.84V383.68C265.639 385.88 264.319 386.96 262.559 386.96C260.979 386.96 259.759 386.18 259.419 385.04H257.159C257.439 387.48 259.619 388.94 262.559 388.94C265.999 388.94 267.939 386.68 267.939 383.68V372.48H265.639V374.08C264.959 373.14 263.619 372.3 261.819 372.3C258.919 372.3 256.619 374.54 256.619 377.94ZM265.639 377.98C265.639 380.36 264.019 381.7 262.299 381.7C260.599 381.7 258.959 380.32 258.959 377.94C258.959 375.56 260.599 374.28 262.299 374.28C264.019 374.28 265.639 375.62 265.639 377.98ZM281.434 377.98C281.434 374.52 278.954 372.3 275.814 372.3C272.674 372.3 270.194 374.52 270.194 377.98C270.194 381.44 272.574 383.68 275.714 383.68C278.874 383.68 281.434 381.44 281.434 377.98ZM272.514 377.98C272.514 375.48 274.054 374.28 275.774 374.28C277.474 374.28 279.094 375.48 279.094 377.98C279.094 380.48 277.414 381.7 275.714 381.7C273.994 381.7 272.514 380.48 272.514 377.98ZM285.968 377.7C285.968 375.36 287.008 374.66 288.688 374.66H289.268V372.3C287.708 372.3 286.608 372.98 285.968 374.08V372.48H283.688V383.5H285.968V377.7ZM291.363 383.5H293.643V372.48H291.363V383.5ZM292.523 371.02C293.323 371.02 293.963 370.38 293.963 369.56C293.963 368.74 293.323 368.1 292.523 368.1C291.703 368.1 291.063 368.74 291.063 369.56C291.063 370.38 291.703 371.02 292.523 371.02ZM296.997 380.44C296.997 382.68 298.217 383.5 300.177 383.5H301.977V381.6H300.577C299.617 381.6 299.297 381.26 299.297 380.44V374.34H301.977V372.48H299.297V369.74H296.997V372.48H295.697V374.34H296.997V380.44ZM304.078 383.5H306.358V377.34C306.358 375.32 307.458 374.28 309.138 374.28C310.798 374.28 311.898 375.32 311.898 377.34V383.5H314.158V377C314.158 373.92 312.238 372.3 309.778 372.3C308.358 372.3 307.118 372.84 306.358 373.76V368.7H304.078V383.5ZM332.686 383.5H334.946V377C334.946 373.92 332.986 372.3 330.406 372.3C328.806 372.3 327.246 373.14 326.566 374.48C325.806 373.04 324.346 372.3 322.606 372.3C321.286 372.3 320.086 372.84 319.346 373.74V372.48H317.066V383.5H319.346V377.34C319.346 375.32 320.446 374.28 322.126 374.28C323.786 374.28 324.886 375.32 324.886 377.34V383.5H327.146V377.34C327.146 375.32 328.246 374.28 329.926 374.28C331.586 374.28 332.686 375.32 332.686 377.34V383.5Z" fill="#212832"/>
<rect x="0.5" y="351.5" width="616" height="49" stroke="black" stroke-opacity="0.5"/>
<rect y="522" width="617" height="50" fill="white"/>
<path d="M24.6 550.44C26.08 550.44 27.24 549.3 27.24 547.84C27.24 546.36 26.08 545.22 24.6 545.22C23.16 545.22 22 546.36 22 547.84C22 549.3 23.16 550.44 24.6 550.44ZM45.6689 540.6H41.1289V554.5H45.6689C50.1289 554.5 53.0489 551.88 53.0489 547.6C53.0489 543.3 50.1289 540.6 45.6689 540.6ZM43.4089 552.64V542.46H45.6689C48.9489 542.46 50.7089 544.42 50.7089 547.6C50.7089 550.76 48.9489 552.64 45.6689 552.64H43.4089ZM54.5486 548.94C54.5486 552.34 56.8486 554.68 59.7086 554.68C61.5486 554.68 62.8686 553.8 63.5686 552.86V554.5H65.8686V543.48H63.5686V545.08C62.8886 544.18 61.6086 543.3 59.7486 543.3C56.8486 543.3 54.5486 545.54 54.5486 548.94ZM63.5686 548.98C63.5686 551.36 61.9486 552.7 60.2286 552.7C58.5286 552.7 56.8886 551.32 56.8886 548.94C56.8886 546.56 58.5286 545.28 60.2286 545.28C61.9486 545.28 63.5686 546.62 63.5686 548.98ZM69.2233 551.44C69.2233 553.68 70.4433 554.5 72.4033 554.5H74.2033V552.6H72.8033C71.8433 552.6 71.5233 552.26 71.5233 551.44V545.34H74.2033V543.48H71.5233V540.74H69.2233V543.48H67.9233V545.34H69.2233V551.44ZM75.5447 548.94C75.5447 552.34 77.8447 554.68 80.7047 554.68C82.5447 554.68 83.8647 553.8 84.5647 552.86V554.5H86.8647V543.48H84.5647V545.08C83.8847 544.18 82.6047 543.3 80.7447 543.3C77.8447 543.3 75.5447 545.54 75.5447 548.94ZM84.5647 548.98C84.5647 551.36 82.9447 552.7 81.2247 552.7C79.5247 552.7 77.8847 551.32 77.8847 548.94C77.8847 546.56 79.5247 545.28 81.2247 545.28C82.9447 545.28 84.5647 546.62 84.5647 548.98ZM104.435 550.56C104.435 545.48 97.0747 547.44 97.0747 544.3C97.0747 542.96 98.0947 542.32 99.4147 542.36C100.855 542.4 101.675 543.26 101.755 544.2H104.275C104.075 541.82 102.195 540.42 99.5347 540.42C96.6947 540.42 94.7547 541.94 94.7547 544.38C94.7547 549.5 102.135 547.32 102.135 550.68C102.135 551.86 101.235 552.72 99.6347 552.72C98.0547 552.72 97.2547 551.8 97.1547 550.66H94.7147C94.7147 553.12 96.8547 554.64 99.6347 554.64C102.735 554.64 104.435 552.64 104.435 550.56ZM107.485 551.44C107.485 553.68 108.705 554.5 110.665 554.5H112.465V552.6H111.065C110.105 552.6 109.785 552.26 109.785 551.44V545.34H112.465V543.48H109.785V540.74H107.485V543.48H106.185V545.34H107.485V551.44ZM116.846 548.7C116.846 546.36 117.886 545.66 119.566 545.66H120.146V543.3C118.586 543.3 117.486 543.98 116.846 545.08V543.48H114.566V554.5H116.846V548.7ZM132.222 543.48H129.942V549.62C129.942 551.64 128.842 552.68 127.162 552.68C125.502 552.68 124.402 551.64 124.402 549.62V543.48H122.142V549.96C122.142 553.04 124.102 554.66 126.682 554.66C127.982 554.66 129.222 554.12 129.942 553.18V554.5H132.222V543.48ZM134.47 548.98C134.47 552.44 136.71 554.68 139.87 554.68C142.57 554.68 144.33 553.18 144.95 551.02H142.49C142.07 552.16 141.23 552.76 139.87 552.76C138.03 552.76 136.81 551.4 136.81 548.98C136.81 546.58 138.03 545.22 139.87 545.22C141.23 545.22 142.11 545.9 142.49 546.96H144.95C144.33 544.64 142.57 543.3 139.87 543.3C136.71 543.3 134.47 545.54 134.47 548.98ZM147.583 551.44C147.583 553.68 148.803 554.5 150.763 554.5H152.563V552.6H151.163C150.203 552.6 149.883 552.26 149.883 551.44V545.34H152.563V543.48H149.883V540.74H147.583V543.48H146.283V545.34H147.583V551.44ZM164.644 543.48H162.364V549.62C162.364 551.64 161.264 552.68 159.584 552.68C157.924 552.68 156.824 551.64 156.824 549.62V543.48H154.564V549.96C154.564 553.04 156.524 554.66 159.104 554.66C160.404 554.66 161.644 554.12 162.364 553.18V554.5H164.644V543.48ZM169.932 548.7C169.932 546.36 170.972 545.66 172.652 545.66H173.232V543.3C171.672 543.3 170.572 543.98 169.932 545.08V543.48H167.652V554.5H169.932V548.7ZM179.968 545.22C181.668 545.22 183.008 546.3 183.048 548H176.948C177.188 546.26 178.428 545.22 179.968 545.22ZM185.128 551.22H182.668C182.248 552.08 181.468 552.76 180.068 552.76C178.388 552.76 177.088 551.66 176.928 549.84H185.348C185.408 549.46 185.428 549.1 185.428 548.72C185.428 545.48 183.208 543.3 180.068 543.3C176.808 543.3 174.568 545.52 174.568 548.98C174.568 552.44 176.908 554.68 180.068 554.68C182.768 554.68 184.508 553.14 185.128 551.22ZM195.892 551.42C195.772 547.44 189.552 548.68 189.552 546.46C189.552 545.72 190.192 545.22 191.412 545.22C192.652 545.22 193.392 545.88 193.472 546.84H195.752C195.632 544.64 193.992 543.3 191.492 543.3C188.892 543.3 187.252 544.72 187.252 546.48C187.252 550.52 193.652 549.28 193.652 551.44C193.652 552.2 192.952 552.76 191.632 552.76C190.372 552.76 189.512 552.02 189.432 551.12H187.072C187.172 553.12 189.032 554.68 191.672 554.68C194.272 554.68 195.892 553.28 195.892 551.42ZM203.551 540.6V554.5H210.531V552.66H205.831V540.6H203.551ZM211.678 548.94C211.678 552.34 213.978 554.68 216.838 554.68C218.678 554.68 219.998 553.8 220.698 552.86V554.5H222.998V543.48H220.698V545.08C220.018 544.18 218.738 543.3 216.878 543.3C213.978 543.3 211.678 545.54 211.678 548.94ZM220.698 548.98C220.698 551.36 219.078 552.7 217.358 552.7C215.658 552.7 214.018 551.32 214.018 548.94C214.018 546.56 215.658 545.28 217.358 545.28C219.078 545.28 220.698 546.62 220.698 548.98ZM228.272 545.12V539.7H225.992V554.5H228.272V552.9C228.992 553.86 230.292 554.68 232.112 554.68C235.012 554.68 237.292 552.34 237.292 548.94C237.292 545.54 235.032 543.3 232.112 543.3C230.372 543.3 228.992 544.12 228.272 545.12ZM234.972 548.94C234.972 551.32 233.332 552.7 231.612 552.7C229.912 552.7 228.272 551.36 228.272 548.98C228.272 546.62 229.912 545.28 231.612 545.28C233.332 545.28 234.972 546.56 234.972 548.94Z" fill="#212832"/>
<rect x="0.5" y="522.5" width="616" height="49" stroke="black" stroke-opacity="0.5"/>
<rect width="617" height="58" fill="#3498DB"/>
<path d="M33.925 32.95C33.925 26.8 24.975 28.75 24.975 25.25C24.975 23.825 26 23.15 27.375 23.2C28.875 23.225 29.8 24.125 29.875 25.275H33.725C33.5 22.125 31.05 20.3 27.475 20.3C23.875 20.3 21.325 22.2 21.325 25.35C21.3 31.675 30.3 29.4 30.3 33.175C30.3 34.425 29.325 35.3 27.675 35.3C26.05 35.3 25.125 34.375 25.025 32.975H21.275C21.325 36.275 24.125 38.175 27.75 38.175C31.725 38.175 33.925 35.7 33.925 32.95ZM43.4094 26.8C45.2094 26.8 46.6594 27.95 46.7094 29.775H40.1344C40.4094 27.875 41.7344 26.8 43.4094 26.8ZM49.9844 33.65H46.2094C45.7594 34.575 44.9344 35.325 43.4344 35.325C41.6844 35.325 40.2844 34.175 40.1094 32.125H50.2344C50.3094 31.675 50.3344 31.225 50.3344 30.775C50.3344 26.65 47.5094 23.925 43.5094 23.925C39.4094 23.925 36.5594 26.7 36.5594 31.075C36.5594 35.425 39.4844 38.225 43.5094 38.225C46.9344 38.225 49.2344 36.2 49.9844 33.65ZM72.7641 38H76.2641V29.875C76.2641 26.05 73.9141 23.95 70.5891 23.95C68.5641 23.95 66.7391 25.025 65.8391 26.6C64.8891 24.875 63.1141 23.95 60.9641 23.95C59.2391 23.95 57.7641 24.675 56.8891 25.825V24.15H53.3891V38H56.8891V30.35C56.8891 28.15 58.1141 27 60.0141 27C61.8641 27 63.0891 28.15 63.0891 30.35V38H66.5891V30.35C66.5891 28.15 67.8141 27 69.6891 27C71.5391 27 72.7641 28.15 72.7641 30.35V38ZM86.0354 26.8C87.8354 26.8 89.2854 27.95 89.3354 29.775H82.7604C83.0354 27.875 84.3604 26.8 86.0354 26.8ZM92.6104 33.65H88.8354C88.3854 34.575 87.5604 35.325 86.0604 35.325C84.3104 35.325 82.9104 34.175 82.7354 32.125H92.8604C92.9354 31.675 92.9604 31.225 92.9604 30.775C92.9604 26.65 90.1354 23.925 86.1354 23.925C82.0354 23.925 79.1854 26.7 79.1854 31.075C79.1854 35.425 82.1104 38.225 86.1354 38.225C89.5604 38.225 91.8604 36.2 92.6104 33.65ZM106.765 34.05C106.665 28.975 98.99 30.55 98.99 28.025C98.99 27.225 99.665 26.7 100.965 26.7C102.34 26.7 103.19 27.425 103.29 28.5H106.64C106.44 25.75 104.415 23.925 101.065 23.925C97.64 23.925 95.59 25.775 95.59 28.075C95.59 33.15 103.415 31.575 103.415 34.05C103.415 34.85 102.665 35.475 101.29 35.475C99.89 35.475 98.915 34.675 98.79 33.625H95.265C95.415 36.2 97.84 38.225 101.315 38.225C104.69 38.225 106.765 36.425 106.765 34.05ZM110.688 33.7C110.688 36.875 112.463 38 115.113 38H117.313V35.05H115.688C114.588 35.05 114.213 34.65 114.213 33.725V27.025H117.313V24.15H114.213V20.725H110.688V24.15H109.038V27.025H110.688V33.7ZM126.28 26.8C128.08 26.8 129.53 27.95 129.58 29.775H123.005C123.28 27.875 124.605 26.8 126.28 26.8ZM132.855 33.65H129.08C128.63 34.575 127.805 35.325 126.305 35.325C124.555 35.325 123.155 34.175 122.98 32.125H133.105C133.18 31.675 133.205 31.225 133.205 30.775C133.205 26.65 130.38 23.925 126.38 23.925C122.28 23.925 119.43 26.7 119.43 31.075C119.43 35.425 122.355 38.225 126.38 38.225C129.805 38.225 132.105 36.2 132.855 33.65ZM139.76 31.1C139.76 28.425 141.01 27.625 143.085 27.625H144.01V23.95C142.085 23.95 140.635 24.875 139.76 26.3V24.15H136.26V38H139.76V31.1ZM152.725 37.75H165.075V34.85H157.7C160.6 32.4 164.675 29.1 164.675 24.875C164.675 21.7 162.7 19.375 158.775 19.375C155.5 19.375 152.825 21.3 152.7 25.475H156.1C156.125 23.55 157.05 22.35 158.725 22.35C160.45 22.35 161.175 23.45 161.175 25.075C161.175 28.425 156.85 31.65 152.725 35.15V37.75Z" fill="white"/>
</svg>
