<svg width="617" height="572" viewBox="0 0 617 572" fill="none" xmlns="http://www.w3.org/2000/svg">
<rect width="617" height="58" fill="#3498DB"/>
<path d="M33.925 32.95C33.925 26.8 24.975 28.75 24.975 25.25C24.975 23.825 26 23.15 27.375 23.2C28.875 23.225 29.8 24.125 29.875 25.275H33.725C33.5 22.125 31.05 20.3 27.475 20.3C23.875 20.3 21.325 22.2 21.325 25.35C21.3 31.675 30.3 29.4 30.3 33.175C30.3 34.425 29.325 35.3 27.675 35.3C26.05 35.3 25.125 34.375 25.025 32.975H21.275C21.325 36.275 24.125 38.175 27.75 38.175C31.725 38.175 33.925 35.7 33.925 32.95ZM43.4094 26.8C45.2094 26.8 46.6594 27.95 46.7094 29.775H40.1344C40.4094 27.875 41.7344 26.8 43.4094 26.8ZM49.9844 33.65H46.2094C45.7594 34.575 44.9344 35.325 43.4344 35.325C41.6844 35.325 40.2844 34.175 40.1094 32.125H50.2344C50.3094 31.675 50.3344 31.225 50.3344 30.775C50.3344 26.65 47.5094 23.925 43.5094 23.925C39.4094 23.925 36.5594 26.7 36.5594 31.075C36.5594 35.425 39.4844 38.225 43.5094 38.225C46.9344 38.225 49.2344 36.2 49.9844 33.65ZM72.7641 38H76.2641V29.875C76.2641 26.05 73.9141 23.95 70.5891 23.95C68.5641 23.95 66.7391 25.025 65.8391 26.6C64.8891 24.875 63.1141 23.95 60.9641 23.95C59.2391 23.95 57.7641 24.675 56.8891 25.825V24.15H53.3891V38H56.8891V30.35C56.8891 28.15 58.1141 27 60.0141 27C61.8641 27 63.0891 28.15 63.0891 30.35V38H66.5891V30.35C66.5891 28.15 67.8141 27 69.6891 27C71.5391 27 72.7641 28.15 72.7641 30.35V38ZM86.0354 26.8C87.8354 26.8 89.2854 27.95 89.3354 29.775H82.7604C83.0354 27.875 84.3604 26.8 86.0354 26.8ZM92.6104 33.65H88.8354C88.3854 34.575 87.5604 35.325 86.0604 35.325C84.3104 35.325 82.9104 34.175 82.7354 32.125H92.8604C92.9354 31.675 92.9604 31.225 92.9604 30.775C92.9604 26.65 90.1354 23.925 86.1354 23.925C82.0354 23.925 79.1854 26.7 79.1854 31.075C79.1854 35.425 82.1104 38.225 86.1354 38.225C89.5604 38.225 91.8604 36.2 92.6104 33.65ZM106.765 34.05C106.665 28.975 98.99 30.55 98.99 28.025C98.99 27.225 99.665 26.7 100.965 26.7C102.34 26.7 103.19 27.425 103.29 28.5H106.64C106.44 25.75 104.415 23.925 101.065 23.925C97.64 23.925 95.59 25.775 95.59 28.075C95.59 33.15 103.415 31.575 103.415 34.05C103.415 34.85 102.665 35.475 101.29 35.475C99.89 35.475 98.915 34.675 98.79 33.625H95.265C95.415 36.2 97.84 38.225 101.315 38.225C104.69 38.225 106.765 36.425 106.765 34.05ZM110.688 33.7C110.688 36.875 112.463 38 115.113 38H117.313V35.05H115.688C114.588 35.05 114.213 34.65 114.213 33.725V27.025H117.313V24.15H114.213V20.725H110.688V24.15H109.038V27.025H110.688V33.7ZM126.28 26.8C128.08 26.8 129.53 27.95 129.58 29.775H123.005C123.28 27.875 124.605 26.8 126.28 26.8ZM132.855 33.65H129.08C128.63 34.575 127.805 35.325 126.305 35.325C124.555 35.325 123.155 34.175 122.98 32.125H133.105C133.18 31.675 133.205 31.225 133.205 30.775C133.205 26.65 130.38 23.925 126.38 23.925C122.28 23.925 119.43 26.7 119.43 31.075C119.43 35.425 122.355 38.225 126.38 38.225C129.805 38.225 132.105 36.2 132.855 33.65ZM139.76 31.1C139.76 28.425 141.01 27.625 143.085 27.625H144.01V23.95C142.085 23.95 140.635 24.875 139.76 26.3V24.15H136.26V38H139.76V31.1ZM153.875 19.725V30.425H157.225C157.6 29.3 158.525 28.5 159.975 28.5C161.95 28.5 162.975 29.625 162.975 31.675C162.975 33.6 162.05 35.05 160 35.05C158.3 35.05 157.275 34.125 156.975 32.85H153.575C153.875 35.825 156.125 38 160.05 38C164.2 38 166.35 35.35 166.35 31.625C166.35 28.8 164.9 25.6 160.65 25.6C159.125 25.6 157.75 26.25 157.075 27.075V22.8H165.175V19.725H153.875Z" fill="white"/>
<rect y="66" width="617" height="50" fill="white"/>
<path d="M24.6 94.44C26.08 94.44 27.24 93.3 27.24 91.84C27.24 90.36 26.08 89.22 24.6 89.22C23.16 89.22 22 90.36 22 91.84C22 93.3 23.16 94.44 24.6 94.44ZM41.1289 84.6V98.5H48.1089V96.66H43.4089V84.6H41.1289ZM50.0156 98.5H52.2956V87.48H50.0156V98.5ZM51.1756 86.02C51.9756 86.02 52.6156 85.38 52.6156 84.56C52.6156 83.74 51.9756 83.1 51.1756 83.1C50.3556 83.1 49.7156 83.74 49.7156 84.56C49.7156 85.38 50.3556 86.02 51.1756 86.02ZM55.5691 98.5H57.8691V89.34H59.9091V87.48H57.8691V86.7C57.8691 85.44 58.3491 84.96 59.7491 84.96V83.06C56.8691 83.06 55.5691 84.16 55.5691 86.7V87.48H54.2691V89.34H55.5691V98.5ZM66.5697 89.22C68.2697 89.22 69.6097 90.3 69.6497 92H63.5497C63.7897 90.26 65.0297 89.22 66.5697 89.22ZM71.7297 95.22H69.2697C68.8497 96.08 68.0697 96.76 66.6697 96.76C64.9897 96.76 63.6897 95.66 63.5297 93.84H71.9497C72.0097 93.46 72.0297 93.1 72.0297 92.72C72.0297 89.48 69.8097 87.3 66.6697 87.3C63.4097 87.3 61.1697 89.52 61.1697 92.98C61.1697 96.44 63.5097 98.68 66.6697 98.68C69.3697 98.68 71.1097 97.14 71.7297 95.22ZM88.8488 94.56C88.8488 89.48 81.4888 91.44 81.4888 88.3C81.4888 86.96 82.5088 86.32 83.8288 86.36C85.2688 86.4 86.0888 87.26 86.1688 88.2H88.6888C88.4888 85.82 86.6088 84.42 83.9488 84.42C81.1088 84.42 79.1688 85.94 79.1688 88.38C79.1688 93.5 86.5488 91.32 86.5488 94.68C86.5488 95.86 85.6488 96.72 84.0488 96.72C82.4688 96.72 81.6688 95.8 81.5688 94.66H79.1288C79.1288 97.12 81.2688 98.64 84.0488 98.64C87.1488 98.64 88.8488 96.64 88.8488 94.56ZM91.5391 98.5H93.8191V93.76L97.8991 98.5H100.979L95.8991 93L100.979 87.48H97.8191L93.8191 92.3V83.7H91.5391V98.5ZM102.613 98.5H104.893V87.48H102.613V98.5ZM103.773 86.02C104.573 86.02 105.213 85.38 105.213 84.56C105.213 83.74 104.573 83.1 103.773 83.1C102.953 83.1 102.313 83.74 102.313 84.56C102.313 85.38 102.953 86.02 103.773 86.02ZM107.887 98.5H110.167V83.7H107.887V98.5ZM113.16 98.5H115.44V83.7H113.16V98.5ZM126.654 95.42C126.534 91.44 120.314 92.68 120.314 90.46C120.314 89.72 120.954 89.22 122.174 89.22C123.414 89.22 124.154 89.88 124.234 90.84H126.514C126.394 88.64 124.754 87.3 122.254 87.3C119.654 87.3 118.014 88.72 118.014 90.48C118.014 94.52 124.414 93.28 124.414 95.44C124.414 96.2 123.714 96.76 122.394 96.76C121.134 96.76 120.274 96.02 120.194 95.12H117.834C117.934 97.12 119.794 98.68 122.434 98.68C125.034 98.68 126.654 97.28 126.654 95.42ZM133.833 98.3H143.553V96.4H137.213C139.553 94.26 143.153 91.56 143.153 88.02C143.153 85.4 141.473 83.62 138.513 83.62C135.933 83.62 133.893 85.16 133.813 88.32H136.013C136.073 86.68 136.933 85.56 138.533 85.56C140.233 85.56 140.893 86.6 140.893 88.12C140.893 90.98 137.273 93.62 133.833 96.64V98.3Z" fill="#212832"/>
<rect x="0.5" y="66.5" width="616" height="49" stroke="black" stroke-opacity="0.5"/>
<rect y="294" width="617" height="50" fill="white"/>
<path d="M24.6 322.44C26.08 322.44 27.24 321.3 27.24 319.84C27.24 318.36 26.08 317.22 24.6 317.22C23.16 317.22 22 318.36 22 319.84C22 321.3 23.16 322.44 24.6 322.44ZM41.1289 326.5H43.4089V312.6H41.1289V326.5ZM54.2223 326.5H56.4823V320C56.4823 316.92 54.5423 315.3 51.9623 315.3C50.6423 315.3 49.4223 315.84 48.6823 316.74V315.48H46.4023V326.5H48.6823V320.34C48.6823 318.32 49.7823 317.28 51.4623 317.28C53.1223 317.28 54.2223 318.32 54.2223 320.34V326.5ZM59.7506 323.44C59.7506 325.68 60.9706 326.5 62.9306 326.5H64.7306V324.6H63.3306C62.3706 324.6 62.0506 324.26 62.0506 323.44V317.34H64.7306V315.48H62.0506V312.74H59.7506V315.48H58.4506V317.34H59.7506V323.44ZM69.112 320.7C69.112 318.36 70.152 317.66 71.832 317.66H72.412V315.3C70.852 315.3 69.752 315.98 69.112 317.08V315.48H66.832V326.5H69.112V320.7ZM85.0078 320.98C85.0078 317.52 82.5278 315.3 79.3878 315.3C76.2478 315.3 73.7678 317.52 73.7678 320.98C73.7678 324.44 76.1478 326.68 79.2878 326.68C82.4478 326.68 85.0078 324.44 85.0078 320.98ZM76.0878 320.98C76.0878 318.48 77.6278 317.28 79.3478 317.28C81.0478 317.28 82.6678 318.48 82.6678 320.98C82.6678 323.48 80.9878 324.7 79.2878 324.7C77.5678 324.7 76.0878 323.48 76.0878 320.98ZM86.5017 320.94C86.5017 324.34 88.8017 326.68 91.7017 326.68C93.5017 326.68 94.8217 325.84 95.5217 324.84V326.5H97.8217V311.7H95.5217V317.02C94.6817 315.98 93.1617 315.3 91.7217 315.3C88.8017 315.3 86.5017 317.54 86.5017 320.94ZM95.5217 320.98C95.5217 323.36 93.9017 324.7 92.1817 324.7C90.4817 324.7 88.8417 323.32 88.8417 320.94C88.8417 318.56 90.4817 317.28 92.1817 317.28C93.9017 317.28 95.5217 318.62 95.5217 320.98ZM110.796 315.48H108.516V321.62C108.516 323.64 107.416 324.68 105.736 324.68C104.076 324.68 102.976 323.64 102.976 321.62V315.48H100.716V321.96C100.716 325.04 102.676 326.66 105.256 326.66C106.556 326.66 107.796 326.12 108.516 325.18V326.5H110.796V315.48ZM113.045 320.98C113.045 324.44 115.285 326.68 118.445 326.68C121.145 326.68 122.905 325.18 123.525 323.02H121.065C120.645 324.16 119.805 324.76 118.445 324.76C116.605 324.76 115.385 323.4 115.385 320.98C115.385 318.58 116.605 317.22 118.445 317.22C119.805 317.22 120.685 317.9 121.065 318.96H123.525C122.905 316.64 121.145 315.3 118.445 315.3C115.285 315.3 113.045 317.54 113.045 320.98ZM126.157 323.44C126.157 325.68 127.377 326.5 129.337 326.5H131.137V324.6H129.737C128.777 324.6 128.457 324.26 128.457 323.44V317.34H131.137V315.48H128.457V312.74H126.157V315.48H124.857V317.34H126.157V323.44ZM133.238 326.5H135.518V315.48H133.238V326.5ZM134.398 314.02C135.198 314.02 135.838 313.38 135.838 312.56C135.838 311.74 135.198 311.1 134.398 311.1C133.578 311.1 132.938 311.74 132.938 312.56C132.938 313.38 133.578 314.02 134.398 314.02ZM149.012 320.98C149.012 317.52 146.532 315.3 143.392 315.3C140.252 315.3 137.772 317.52 137.772 320.98C137.772 324.44 140.152 326.68 143.292 326.68C146.452 326.68 149.012 324.44 149.012 320.98ZM140.092 320.98C140.092 318.48 141.632 317.28 143.352 317.28C145.052 317.28 146.672 318.48 146.672 320.98C146.672 323.48 144.992 324.7 143.292 324.7C141.572 324.7 140.092 323.48 140.092 320.98ZM159.086 326.5H161.346V320C161.346 316.92 159.406 315.3 156.826 315.3C155.506 315.3 154.286 315.84 153.546 316.74V315.48H151.266V326.5H153.546V320.34C153.546 318.32 154.646 317.28 156.326 317.28C157.986 317.28 159.086 318.32 159.086 320.34V326.5ZM169.809 323.44C169.809 325.68 171.029 326.5 172.989 326.5H174.789V324.6H173.389C172.429 324.6 172.109 324.26 172.109 323.44V317.34H174.789V315.48H172.109V312.74H169.809V315.48H168.509V317.34H169.809V323.44ZM187.391 320.98C187.391 317.52 184.911 315.3 181.771 315.3C178.631 315.3 176.151 317.52 176.151 320.98C176.151 324.44 178.531 326.68 181.671 326.68C184.831 326.68 187.391 324.44 187.391 320.98ZM178.471 320.98C178.471 318.48 180.011 317.28 181.731 317.28C183.431 317.28 185.051 318.48 185.051 320.98C185.051 323.48 183.371 324.7 181.671 324.7C179.951 324.7 178.471 323.48 178.471 320.98ZM200.12 322.62C200.12 323.78 199.54 324.62 198.32 324.62C197.1 324.62 196.54 323.78 196.52 322.62H194.22C194.22 325.14 195.92 326.64 198.32 326.64C200.72 326.64 202.42 325.14 202.42 322.62V312.6H200.12V322.62ZM205.369 320.94C205.369 324.34 207.669 326.68 210.529 326.68C212.369 326.68 213.689 325.8 214.389 324.86V326.5H216.689V315.48H214.389V317.08C213.709 316.18 212.429 315.3 210.569 315.3C207.669 315.3 205.369 317.54 205.369 320.94ZM214.389 320.98C214.389 323.36 212.769 324.7 211.049 324.7C209.349 324.7 207.709 323.32 207.709 320.94C207.709 318.56 209.349 317.28 211.049 317.28C212.769 317.28 214.389 318.62 214.389 320.98ZM218.384 315.48L222.564 326.5H225.284L229.484 315.48H227.064L223.944 324.46L220.824 315.48H218.384ZM230.447 320.94C230.447 324.34 232.747 326.68 235.607 326.68C237.447 326.68 238.767 325.8 239.467 324.86V326.5H241.767V315.48H239.467V317.08C238.787 316.18 237.507 315.3 235.647 315.3C232.747 315.3 230.447 317.54 230.447 320.94ZM239.467 320.98C239.467 323.36 237.847 324.7 236.127 324.7C234.427 324.7 232.787 323.32 232.787 320.94C232.787 318.56 234.427 317.28 236.127 317.28C237.847 317.28 239.467 318.62 239.467 320.98ZM249.197 320.94C249.197 324.34 251.497 326.68 254.357 326.68C256.197 326.68 257.517 325.8 258.217 324.86V326.5H260.517V315.48H258.217V317.08C257.537 316.18 256.257 315.3 254.397 315.3C251.497 315.3 249.197 317.54 249.197 320.94ZM258.217 320.98C258.217 323.36 256.597 324.7 254.877 324.7C253.177 324.7 251.537 323.32 251.537 320.94C251.537 318.56 253.177 317.28 254.877 317.28C256.597 317.28 258.217 318.62 258.217 320.98ZM271.332 326.5H273.592V320C273.592 316.92 271.652 315.3 269.072 315.3C267.752 315.3 266.532 315.84 265.792 316.74V315.48H263.512V326.5H265.792V320.34C265.792 318.32 266.892 317.28 268.572 317.28C270.232 317.28 271.332 318.32 271.332 320.34V326.5ZM275.74 320.94C275.74 324.34 278.04 326.68 280.94 326.68C282.74 326.68 284.06 325.84 284.76 324.84V326.5H287.06V311.7H284.76V317.02C283.92 315.98 282.4 315.3 280.96 315.3C278.04 315.3 275.74 317.54 275.74 320.94ZM284.76 320.98C284.76 323.36 283.14 324.7 281.42 324.7C279.72 324.7 278.08 323.32 278.08 320.94C278.08 318.56 279.72 317.28 281.42 317.28C283.14 317.28 284.76 318.62 284.76 320.98ZM298.07 326.52L300.63 326.5L303.73 315.98L306.65 326.5H309.23L313.35 312.6H310.91L308.01 323.86L305.11 312.6H302.55L299.43 323.92L296.55 312.6H294.13L298.07 326.52ZM319.87 317.22C321.57 317.22 322.91 318.3 322.95 320H316.85C317.09 318.26 318.33 317.22 319.87 317.22ZM325.03 323.22H322.57C322.15 324.08 321.37 324.76 319.97 324.76C318.29 324.76 316.99 323.66 316.83 321.84H325.25C325.31 321.46 325.33 321.1 325.33 320.72C325.33 317.48 323.11 315.3 319.97 315.3C316.71 315.3 314.47 317.52 314.47 320.98C314.47 324.44 316.81 326.68 319.97 326.68C322.67 326.68 324.41 325.14 325.03 323.22ZM329.854 317.12V311.7H327.574V326.5H329.854V324.9C330.574 325.86 331.874 326.68 333.694 326.68C336.594 326.68 338.874 324.34 338.874 320.94C338.874 317.54 336.614 315.3 333.694 315.3C331.954 315.3 330.574 316.12 329.854 317.12ZM336.554 320.94C336.554 323.32 334.914 324.7 333.194 324.7C331.494 324.7 329.854 323.36 329.854 320.98C329.854 318.62 331.494 317.28 333.194 317.28C334.914 317.28 336.554 318.56 336.554 320.94ZM348.604 319V314.46H351.124C352.904 314.46 353.704 315.3 353.704 316.74C353.704 318.14 352.904 319 351.124 319H348.604ZM356.044 316.74C356.044 314.48 354.424 312.6 351.124 312.6H346.324V326.5H348.604V320.86H351.124C354.744 320.86 356.044 318.72 356.044 316.74ZM360.499 320.7C360.499 318.36 361.539 317.66 363.219 317.66H363.799V315.3C362.239 315.3 361.139 315.98 360.499 317.08V315.48H358.219V326.5H360.499V320.7ZM376.395 320.98C376.395 317.52 373.915 315.3 370.775 315.3C367.635 315.3 365.155 317.52 365.155 320.98C365.155 324.44 367.535 326.68 370.675 326.68C373.835 326.68 376.395 324.44 376.395 320.98ZM367.475 320.98C367.475 318.48 369.015 317.28 370.735 317.28C372.435 317.28 374.055 318.48 374.055 320.98C374.055 323.48 372.375 324.7 370.675 324.7C368.955 324.7 367.475 323.48 367.475 320.98ZM377.888 320.94C377.888 324.34 380.188 326.68 383.088 326.68C384.888 326.68 386.208 325.78 386.908 324.84V326.68C386.908 328.88 385.588 329.96 383.828 329.96C382.248 329.96 381.028 329.18 380.688 328.04H378.428C378.708 330.48 380.888 331.94 383.828 331.94C387.268 331.94 389.208 329.68 389.208 326.68V315.48H386.908V317.08C386.228 316.14 384.888 315.3 383.088 315.3C380.188 315.3 377.888 317.54 377.888 320.94ZM386.908 320.98C386.908 323.36 385.288 324.7 383.568 324.7C381.868 324.7 380.228 323.32 380.228 320.94C380.228 318.56 381.868 317.28 383.568 317.28C385.288 317.28 386.908 318.62 386.908 320.98ZM394.483 320.7C394.483 318.36 395.523 317.66 397.203 317.66H397.783V315.3C396.223 315.3 395.123 315.98 394.483 317.08V315.48H392.203V326.5H394.483V320.7ZM399.119 320.94C399.119 324.34 401.419 326.68 404.279 326.68C406.119 326.68 407.439 325.8 408.139 324.86V326.5H410.439V315.48H408.139V317.08C407.459 316.18 406.179 315.3 404.319 315.3C401.419 315.3 399.119 317.54 399.119 320.94ZM408.139 320.98C408.139 323.36 406.519 324.7 404.799 324.7C403.099 324.7 401.459 323.32 401.459 320.94C401.459 318.56 403.099 317.28 404.799 317.28C406.519 317.28 408.139 318.62 408.139 320.98ZM429.054 326.5H431.314V320C431.314 316.92 429.354 315.3 426.774 315.3C425.174 315.3 423.614 316.14 422.934 317.48C422.174 316.04 420.714 315.3 418.974 315.3C417.654 315.3 416.454 315.84 415.714 316.74V315.48H413.434V326.5H415.714V320.34C415.714 318.32 416.814 317.28 418.494 317.28C420.154 317.28 421.254 318.32 421.254 320.34V326.5H423.514V320.34C423.514 318.32 424.614 317.28 426.294 317.28C427.954 317.28 429.054 318.32 429.054 320.34V326.5ZM449.835 326.5H452.095V320C452.095 316.92 450.135 315.3 447.555 315.3C445.955 315.3 444.395 316.14 443.715 317.48C442.955 316.04 441.495 315.3 439.755 315.3C438.435 315.3 437.235 315.84 436.495 316.74V315.48H434.215V326.5H436.495V320.34C436.495 318.32 437.595 317.28 439.275 317.28C440.935 317.28 442.035 318.32 442.035 320.34V326.5H444.295V320.34C444.295 318.32 445.395 317.28 447.075 317.28C448.735 317.28 449.835 318.32 449.835 320.34V326.5ZM454.996 326.5H457.276V315.48H454.996V326.5ZM456.156 314.02C456.956 314.02 457.596 313.38 457.596 312.56C457.596 311.74 456.956 311.1 456.156 311.1C455.336 311.1 454.696 311.74 454.696 312.56C454.696 313.38 455.336 314.02 456.156 314.02ZM468.09 326.5H470.35V320C470.35 316.92 468.41 315.3 465.83 315.3C464.51 315.3 463.29 315.84 462.55 316.74V315.48H460.27V326.5H462.55V320.34C462.55 318.32 463.65 317.28 465.33 317.28C466.99 317.28 468.09 318.32 468.09 320.34V326.5ZM472.498 320.94C472.498 324.34 474.798 326.68 477.698 326.68C479.498 326.68 480.818 325.78 481.518 324.84V326.68C481.518 328.88 480.198 329.96 478.438 329.96C476.858 329.96 475.638 329.18 475.298 328.04H473.038C473.318 330.48 475.498 331.94 478.438 331.94C481.878 331.94 483.818 329.68 483.818 326.68V315.48H481.518V317.08C480.838 316.14 479.498 315.3 477.698 315.3C474.798 315.3 472.498 317.54 472.498 320.94ZM481.518 320.98C481.518 323.36 479.898 324.7 478.178 324.7C476.478 324.7 474.838 323.32 474.838 320.94C474.838 318.56 476.478 317.28 478.178 317.28C479.898 317.28 481.518 318.62 481.518 320.98Z" fill="#212832"/>
<rect x="0.5" y="294.5" width="616" height="49" stroke="black" stroke-opacity="0.5"/>
<rect y="180" width="617" height="50" fill="white"/>
<path d="M24.6 208.44C26.08 208.44 27.24 207.3 27.24 205.84C27.24 204.36 26.08 203.22 24.6 203.22C23.16 203.22 22 204.36 22 205.84C22 207.3 23.16 208.44 24.6 208.44ZM41.1289 212.5H43.4089V198.6H41.1289V212.5ZM54.2223 212.5H56.4823V206C56.4823 202.92 54.5423 201.3 51.9623 201.3C50.6423 201.3 49.4223 201.84 48.6823 202.74V201.48H46.4023V212.5H48.6823V206.34C48.6823 204.32 49.7823 203.28 51.4623 203.28C53.1223 203.28 54.2223 204.32 54.2223 206.34V212.5ZM59.7506 209.44C59.7506 211.68 60.9706 212.5 62.9306 212.5H64.7306V210.6H63.3306C62.3706 210.6 62.0506 210.26 62.0506 209.44V203.34H64.7306V201.48H62.0506V198.74H59.7506V201.48H58.4506V203.34H59.7506V209.44ZM69.112 206.7C69.112 204.36 70.152 203.66 71.832 203.66H72.412V201.3C70.852 201.3 69.752 201.98 69.112 203.08V201.48H66.832V212.5H69.112V206.7ZM85.0078 206.98C85.0078 203.52 82.5278 201.3 79.3878 201.3C76.2478 201.3 73.7678 203.52 73.7678 206.98C73.7678 210.44 76.1478 212.68 79.2878 212.68C82.4478 212.68 85.0078 210.44 85.0078 206.98ZM76.0878 206.98C76.0878 204.48 77.6278 203.28 79.3478 203.28C81.0478 203.28 82.6678 204.48 82.6678 206.98C82.6678 209.48 80.9878 210.7 79.2878 210.7C77.5678 210.7 76.0878 209.48 76.0878 206.98ZM86.5017 206.94C86.5017 210.34 88.8017 212.68 91.7017 212.68C93.5017 212.68 94.8217 211.84 95.5217 210.84V212.5H97.8217V197.7H95.5217V203.02C94.6817 201.98 93.1617 201.3 91.7217 201.3C88.8017 201.3 86.5017 203.54 86.5017 206.94ZM95.5217 206.98C95.5217 209.36 93.9017 210.7 92.1817 210.7C90.4817 210.7 88.8417 209.32 88.8417 206.94C88.8417 204.56 90.4817 203.28 92.1817 203.28C93.9017 203.28 95.5217 204.62 95.5217 206.98ZM110.796 201.48H108.516V207.62C108.516 209.64 107.416 210.68 105.736 210.68C104.076 210.68 102.976 209.64 102.976 207.62V201.48H100.716V207.96C100.716 211.04 102.676 212.66 105.256 212.66C106.556 212.66 107.796 212.12 108.516 211.18V212.5H110.796V201.48ZM113.045 206.98C113.045 210.44 115.285 212.68 118.445 212.68C121.145 212.68 122.905 211.18 123.525 209.02H121.065C120.645 210.16 119.805 210.76 118.445 210.76C116.605 210.76 115.385 209.4 115.385 206.98C115.385 204.58 116.605 203.22 118.445 203.22C119.805 203.22 120.685 203.9 121.065 204.96H123.525C122.905 202.64 121.145 201.3 118.445 201.3C115.285 201.3 113.045 203.54 113.045 206.98ZM126.157 209.44C126.157 211.68 127.377 212.5 129.337 212.5H131.137V210.6H129.737C128.777 210.6 128.457 210.26 128.457 209.44V203.34H131.137V201.48H128.457V198.74H126.157V201.48H124.857V203.34H126.157V209.44ZM133.238 212.5H135.518V201.48H133.238V212.5ZM134.398 200.02C135.198 200.02 135.838 199.38 135.838 198.56C135.838 197.74 135.198 197.1 134.398 197.1C133.578 197.1 132.938 197.74 132.938 198.56C132.938 199.38 133.578 200.02 134.398 200.02ZM149.012 206.98C149.012 203.52 146.532 201.3 143.392 201.3C140.252 201.3 137.772 203.52 137.772 206.98C137.772 210.44 140.152 212.68 143.292 212.68C146.452 212.68 149.012 210.44 149.012 206.98ZM140.092 206.98C140.092 204.48 141.632 203.28 143.352 203.28C145.052 203.28 146.672 204.48 146.672 206.98C146.672 209.48 144.992 210.7 143.292 210.7C141.572 210.7 140.092 209.48 140.092 206.98ZM159.086 212.5H161.346V206C161.346 202.92 159.406 201.3 156.826 201.3C155.506 201.3 154.286 201.84 153.546 202.74V201.48H151.266V212.5H153.546V206.34C153.546 204.32 154.646 203.28 156.326 203.28C157.986 203.28 159.086 204.32 159.086 206.34V212.5ZM169.809 209.44C169.809 211.68 171.029 212.5 172.989 212.5H174.789V210.6H173.389C172.429 210.6 172.109 210.26 172.109 209.44V203.34H174.789V201.48H172.109V198.74H169.809V201.48H168.509V203.34H169.809V209.44ZM187.391 206.98C187.391 203.52 184.911 201.3 181.771 201.3C178.631 201.3 176.151 203.52 176.151 206.98C176.151 210.44 178.531 212.68 181.671 212.68C184.831 212.68 187.391 210.44 187.391 206.98ZM178.471 206.98C178.471 204.48 180.011 203.28 181.731 203.28C183.431 203.28 185.051 204.48 185.051 206.98C185.051 209.48 183.371 210.7 181.671 210.7C179.951 210.7 178.471 209.48 178.471 206.98ZM199.38 198.6H194.84V212.5H199.38C203.84 212.5 206.76 209.88 206.76 205.6C206.76 201.3 203.84 198.6 199.38 198.6ZM197.12 210.64V200.46H199.38C202.66 200.46 204.42 202.42 204.42 205.6C204.42 208.76 202.66 210.64 199.38 210.64H197.12ZM208.26 206.94C208.26 210.34 210.56 212.68 213.42 212.68C215.26 212.68 216.58 211.8 217.28 210.86V212.5H219.58V201.48H217.28V203.08C216.6 202.18 215.32 201.3 213.46 201.3C210.56 201.3 208.26 203.54 208.26 206.94ZM217.28 206.98C217.28 209.36 215.66 210.7 213.94 210.7C212.24 210.7 210.6 209.32 210.6 206.94C210.6 204.56 212.24 203.28 213.94 203.28C215.66 203.28 217.28 204.62 217.28 206.98ZM222.934 209.44C222.934 211.68 224.154 212.5 226.114 212.5H227.914V210.6H226.514C225.554 210.6 225.234 210.26 225.234 209.44V203.34H227.914V201.48H225.234V198.74H222.934V201.48H221.634V203.34H222.934V209.44ZM229.256 206.94C229.256 210.34 231.556 212.68 234.416 212.68C236.256 212.68 237.576 211.8 238.276 210.86V212.5H240.576V201.48H238.276V203.08C237.596 202.18 236.316 201.3 234.456 201.3C231.556 201.3 229.256 203.54 229.256 206.94ZM238.276 206.98C238.276 209.36 236.656 210.7 234.936 210.7C233.236 210.7 231.596 209.32 231.596 206.94C231.596 204.56 233.236 203.28 234.936 203.28C236.656 203.28 238.276 204.62 238.276 206.98ZM248.766 212.5H251.046V202.98L255.306 212.5H256.886L261.126 202.98V212.5H263.406V198.6H260.966L256.106 209.5L251.226 198.6H248.766V212.5ZM266.402 212.5H268.682V201.48H266.402V212.5ZM267.562 200.02C268.362 200.02 269.002 199.38 269.002 198.56C269.002 197.74 268.362 197.1 267.562 197.1C266.742 197.1 266.102 197.74 266.102 198.56C266.102 199.38 266.742 200.02 267.562 200.02ZM279.496 212.5H281.756V206C281.756 202.92 279.816 201.3 277.236 201.3C275.916 201.3 274.696 201.84 273.956 202.74V201.48H271.676V212.5H273.956V206.34C273.956 204.32 275.056 203.28 276.736 203.28C278.396 203.28 279.496 204.32 279.496 206.34V212.5ZM284.664 212.5H286.944V201.48H284.664V212.5ZM285.824 200.02C286.624 200.02 287.264 199.38 287.264 198.56C287.264 197.74 286.624 197.1 285.824 197.1C285.004 197.1 284.364 197.74 284.364 198.56C284.364 199.38 285.004 200.02 285.824 200.02ZM297.758 212.5H300.018V206C300.018 202.92 298.078 201.3 295.498 201.3C294.178 201.3 292.958 201.84 292.218 202.74V201.48H289.938V212.5H292.218V206.34C292.218 204.32 293.318 203.28 294.998 203.28C296.658 203.28 297.758 204.32 297.758 206.34V212.5ZM302.166 206.94C302.166 210.34 304.466 212.68 307.366 212.68C309.166 212.68 310.486 211.78 311.186 210.84V212.68C311.186 214.88 309.866 215.96 308.106 215.96C306.526 215.96 305.306 215.18 304.966 214.04H302.706C302.986 216.48 305.166 217.94 308.106 217.94C311.546 217.94 313.486 215.68 313.486 212.68V201.48H311.186V203.08C310.506 202.14 309.166 201.3 307.366 201.3C304.466 201.3 302.166 203.54 302.166 206.94ZM311.186 206.98C311.186 209.36 309.566 210.7 307.846 210.7C306.146 210.7 304.506 209.32 304.506 206.94C304.506 204.56 306.146 203.28 307.846 203.28C309.566 203.28 311.186 204.62 311.186 206.98Z" fill="#212832"/>
<rect x="0.5" y="180.5" width="616" height="49" stroke="black" stroke-opacity="0.5"/>
<rect y="408" width="617" height="50" fill="white"/>
<path d="M24.6 436.44C26.08 436.44 27.24 435.3 27.24 433.84C27.24 432.36 26.08 431.22 24.6 431.22C23.16 431.22 22 432.36 22 433.84C22 435.3 23.16 436.44 24.6 436.44ZM48.8089 426.58H41.1289V440.5H48.8089V438.64H43.4089V434.38H48.2089V432.52H43.4089V428.44H48.8089V426.58ZM51.6172 440.5H53.8972V425.7H51.6172V440.5ZM61.5306 431.22C63.2306 431.22 64.5706 432.3 64.6106 434H58.5106C58.7506 432.26 59.9906 431.22 61.5306 431.22ZM66.6906 437.22H64.2306C63.8106 438.08 63.0306 438.76 61.6306 438.76C59.9506 438.76 58.6506 437.66 58.4906 435.84H66.9106C66.9706 435.46 66.9906 435.1 66.9906 434.72C66.9906 431.48 64.7706 429.3 61.6306 429.3C58.3706 429.3 56.1306 431.52 56.1306 434.98C56.1306 438.44 58.4706 440.68 61.6306 440.68C64.3306 440.68 66.0706 439.14 66.6906 437.22ZM68.4744 434.98C68.4744 438.44 70.7144 440.68 73.8744 440.68C76.5744 440.68 78.3344 439.18 78.9544 437.02H76.4944C76.0744 438.16 75.2344 438.76 73.8744 438.76C72.0344 438.76 70.8144 437.4 70.8144 434.98C70.8144 432.58 72.0344 431.22 73.8744 431.22C75.2344 431.22 76.1144 431.9 76.4944 432.96H78.9544C78.3344 430.64 76.5744 429.3 73.8744 429.3C70.7144 429.3 68.4744 431.54 68.4744 434.98ZM81.5866 437.44C81.5866 439.68 82.8066 440.5 84.7666 440.5H86.5666V438.6H85.1666C84.2066 438.6 83.8866 438.26 83.8866 437.44V431.34H86.5666V429.48H83.8866V426.74H81.5866V429.48H80.2866V431.34H81.5866V437.44ZM88.668 440.5H90.948V429.48H88.668V440.5ZM89.828 428.02C90.628 428.02 91.268 427.38 91.268 426.56C91.268 425.74 90.628 425.1 89.828 425.1C89.008 425.1 88.368 425.74 88.368 426.56C88.368 427.38 89.008 428.02 89.828 428.02ZM92.6414 429.48L96.8214 440.5H99.5414L103.741 429.48H101.321L98.2014 438.46L95.0814 429.48H92.6414ZM110.105 431.22C111.805 431.22 113.145 432.3 113.185 434H107.085C107.325 432.26 108.565 431.22 110.105 431.22ZM115.265 437.22H112.805C112.385 438.08 111.605 438.76 110.205 438.76C108.525 438.76 107.225 437.66 107.065 435.84H115.485C115.545 435.46 115.565 435.1 115.565 434.72C115.565 431.48 113.345 429.3 110.205 429.3C106.945 429.3 104.705 431.52 104.705 434.98C104.705 438.44 107.045 440.68 110.205 440.68C112.905 440.68 114.645 439.14 115.265 437.22ZM132.384 440.5H134.784L129.804 426.58H127.164L122.184 440.5H124.564L125.564 437.66H131.384L132.384 440.5ZM130.744 435.8H126.204L128.484 429.34L130.744 435.8Z" fill="#212832"/>
<rect x="0.5" y="408.5" width="616" height="49" stroke="black" stroke-opacity="0.5"/>
<rect y="123" width="617" height="50" fill="white"/>
<path d="M24.6 151.44C26.08 151.44 27.24 150.3 27.24 148.84C27.24 147.36 26.08 146.22 24.6 146.22C23.16 146.22 22 147.36 22 148.84C22 150.3 23.16 151.44 24.6 151.44ZM41.1289 155.5H43.4089V141.6H41.1289V155.5ZM54.2223 155.5H56.4823V149C56.4823 145.92 54.5423 144.3 51.9623 144.3C50.6423 144.3 49.4223 144.84 48.6823 145.74V144.48H46.4023V155.5H48.6823V149.34C48.6823 147.32 49.7823 146.28 51.4623 146.28C53.1223 146.28 54.2223 147.32 54.2223 149.34V155.5ZM59.7506 152.44C59.7506 154.68 60.9706 155.5 62.9306 155.5H64.7306V153.6H63.3306C62.3706 153.6 62.0506 153.26 62.0506 152.44V146.34H64.7306V144.48H62.0506V141.74H59.7506V144.48H58.4506V146.34H59.7506V152.44ZM69.112 149.7C69.112 147.36 70.152 146.66 71.832 146.66H72.412V144.3C70.852 144.3 69.752 144.98 69.112 146.08V144.48H66.832V155.5H69.112V149.7ZM85.0078 149.98C85.0078 146.52 82.5278 144.3 79.3878 144.3C76.2478 144.3 73.7678 146.52 73.7678 149.98C73.7678 153.44 76.1478 155.68 79.2878 155.68C82.4478 155.68 85.0078 153.44 85.0078 149.98ZM76.0878 149.98C76.0878 147.48 77.6278 146.28 79.3478 146.28C81.0478 146.28 82.6678 147.48 82.6678 149.98C82.6678 152.48 80.9878 153.7 79.2878 153.7C77.5678 153.7 76.0878 152.48 76.0878 149.98ZM86.5017 149.94C86.5017 153.34 88.8017 155.68 91.7017 155.68C93.5017 155.68 94.8217 154.84 95.5217 153.84V155.5H97.8217V140.7H95.5217V146.02C94.6817 144.98 93.1617 144.3 91.7217 144.3C88.8017 144.3 86.5017 146.54 86.5017 149.94ZM95.5217 149.98C95.5217 152.36 93.9017 153.7 92.1817 153.7C90.4817 153.7 88.8417 152.32 88.8417 149.94C88.8417 147.56 90.4817 146.28 92.1817 146.28C93.9017 146.28 95.5217 147.62 95.5217 149.98ZM110.796 144.48H108.516V150.62C108.516 152.64 107.416 153.68 105.736 153.68C104.076 153.68 102.976 152.64 102.976 150.62V144.48H100.716V150.96C100.716 154.04 102.676 155.66 105.256 155.66C106.556 155.66 107.796 155.12 108.516 154.18V155.5H110.796V144.48ZM113.045 149.98C113.045 153.44 115.285 155.68 118.445 155.68C121.145 155.68 122.905 154.18 123.525 152.02H121.065C120.645 153.16 119.805 153.76 118.445 153.76C116.605 153.76 115.385 152.4 115.385 149.98C115.385 147.58 116.605 146.22 118.445 146.22C119.805 146.22 120.685 146.9 121.065 147.96H123.525C122.905 145.64 121.145 144.3 118.445 144.3C115.285 144.3 113.045 146.54 113.045 149.98ZM126.157 152.44C126.157 154.68 127.377 155.5 129.337 155.5H131.137V153.6H129.737C128.777 153.6 128.457 153.26 128.457 152.44V146.34H131.137V144.48H128.457V141.74H126.157V144.48H124.857V146.34H126.157V152.44ZM133.238 155.5H135.518V144.48H133.238V155.5ZM134.398 143.02C135.198 143.02 135.838 142.38 135.838 141.56C135.838 140.74 135.198 140.1 134.398 140.1C133.578 140.1 132.938 140.74 132.938 141.56C132.938 142.38 133.578 143.02 134.398 143.02ZM149.012 149.98C149.012 146.52 146.532 144.3 143.392 144.3C140.252 144.3 137.772 146.52 137.772 149.98C137.772 153.44 140.152 155.68 143.292 155.68C146.452 155.68 149.012 153.44 149.012 149.98ZM140.092 149.98C140.092 147.48 141.632 146.28 143.352 146.28C145.052 146.28 146.672 147.48 146.672 149.98C146.672 152.48 144.992 153.7 143.292 153.7C141.572 153.7 140.092 152.48 140.092 149.98ZM159.086 155.5H161.346V149C161.346 145.92 159.406 144.3 156.826 144.3C155.506 144.3 154.286 144.84 153.546 145.74V144.48H151.266V155.5H153.546V149.34C153.546 147.32 154.646 146.28 156.326 146.28C157.986 146.28 159.086 147.32 159.086 149.34V155.5ZM169.809 152.44C169.809 154.68 171.029 155.5 172.989 155.5H174.789V153.6H173.389C172.429 153.6 172.109 153.26 172.109 152.44V146.34H174.789V144.48H172.109V141.74H169.809V144.48H168.509V146.34H169.809V152.44ZM187.391 149.98C187.391 146.52 184.911 144.3 181.771 144.3C178.631 144.3 176.151 146.52 176.151 149.98C176.151 153.44 178.531 155.68 181.671 155.68C184.831 155.68 187.391 153.44 187.391 149.98ZM178.471 149.98C178.471 147.48 180.011 146.28 181.731 146.28C183.431 146.28 185.051 147.48 185.051 149.98C185.051 152.48 183.371 153.7 181.671 153.7C179.951 153.7 178.471 152.48 178.471 149.98ZM199.38 141.6H194.84V155.5H199.38C203.84 155.5 206.76 152.88 206.76 148.6C206.76 144.3 203.84 141.6 199.38 141.6ZM197.12 153.64V143.46H199.38C202.66 143.46 204.42 145.42 204.42 148.6C204.42 151.76 202.66 153.64 199.38 153.64H197.12ZM208.26 149.94C208.26 153.34 210.56 155.68 213.42 155.68C215.26 155.68 216.58 154.8 217.28 153.86V155.5H219.58V144.48H217.28V146.08C216.6 145.18 215.32 144.3 213.46 144.3C210.56 144.3 208.26 146.54 208.26 149.94ZM217.28 149.98C217.28 152.36 215.66 153.7 213.94 153.7C212.24 153.7 210.6 152.32 210.6 149.94C210.6 147.56 212.24 146.28 213.94 146.28C215.66 146.28 217.28 147.62 217.28 149.98ZM222.934 152.44C222.934 154.68 224.154 155.5 226.114 155.5H227.914V153.6H226.514C225.554 153.6 225.234 153.26 225.234 152.44V146.34H227.914V144.48H225.234V141.74H222.934V144.48H221.634V146.34H222.934V152.44ZM229.256 149.94C229.256 153.34 231.556 155.68 234.416 155.68C236.256 155.68 237.576 154.8 238.276 153.86V155.5H240.576V144.48H238.276V146.08C237.596 145.18 236.316 144.3 234.456 144.3C231.556 144.3 229.256 146.54 229.256 149.94ZM238.276 149.98C238.276 152.36 236.656 153.7 234.936 153.7C233.236 153.7 231.596 152.32 231.596 149.94C231.596 147.56 233.236 146.28 234.936 146.28C236.656 146.28 238.276 147.62 238.276 149.98ZM248.766 155.5H251.046V145.98L255.306 155.5H256.886L261.126 145.98V155.5H263.406V141.6H260.966L256.106 152.5L251.226 141.6H248.766V155.5ZM266.402 155.5H268.682V144.48H266.402V155.5ZM267.562 143.02C268.362 143.02 269.002 142.38 269.002 141.56C269.002 140.74 268.362 140.1 267.562 140.1C266.742 140.1 266.102 140.74 266.102 141.56C266.102 142.38 266.742 143.02 267.562 143.02ZM279.496 155.5H281.756V149C281.756 145.92 279.816 144.3 277.236 144.3C275.916 144.3 274.696 144.84 273.956 145.74V144.48H271.676V155.5H273.956V149.34C273.956 147.32 275.056 146.28 276.736 146.28C278.396 146.28 279.496 147.32 279.496 149.34V155.5ZM284.664 155.5H286.944V144.48H284.664V155.5ZM285.824 143.02C286.624 143.02 287.264 142.38 287.264 141.56C287.264 140.74 286.624 140.1 285.824 140.1C285.004 140.1 284.364 140.74 284.364 141.56C284.364 142.38 285.004 143.02 285.824 143.02ZM297.758 155.5H300.018V149C300.018 145.92 298.078 144.3 295.498 144.3C294.178 144.3 292.958 144.84 292.218 145.74V144.48H289.938V155.5H292.218V149.34C292.218 147.32 293.318 146.28 294.998 146.28C296.658 146.28 297.758 147.32 297.758 149.34V155.5ZM302.166 149.94C302.166 153.34 304.466 155.68 307.366 155.68C309.166 155.68 310.486 154.78 311.186 153.84V155.68C311.186 157.88 309.866 158.96 308.106 158.96C306.526 158.96 305.306 158.18 304.966 157.04H302.706C302.986 159.48 305.166 160.94 308.106 160.94C311.546 160.94 313.486 158.68 313.486 155.68V144.48H311.186V146.08C310.506 145.14 309.166 144.3 307.366 144.3C304.466 144.3 302.166 146.54 302.166 149.94ZM311.186 149.98C311.186 152.36 309.566 153.7 307.846 153.7C306.146 153.7 304.506 152.32 304.506 149.94C304.506 147.56 306.146 146.28 307.846 146.28C309.566 146.28 311.186 147.62 311.186 149.98Z" fill="#212832"/>
<rect x="0.5" y="123.5" width="616" height="49" stroke="black" stroke-opacity="0.5"/>
<rect y="351" width="617" height="50" fill="white"/>
<path d="M24.6 379.44C26.08 379.44 27.24 378.3 27.24 376.84C27.24 375.36 26.08 374.22 24.6 374.22C23.16 374.22 22 375.36 22 376.84C22 378.3 23.16 379.44 24.6 379.44ZM43.4089 376V371.46H45.9289C47.7089 371.46 48.5089 372.3 48.5089 373.74C48.5089 375.14 47.7089 376 45.9289 376H43.4089ZM50.8489 373.74C50.8489 371.48 49.2289 369.6 45.9289 369.6H41.1289V383.5H43.4089V377.86H45.9289C49.5489 377.86 50.8489 375.72 50.8489 373.74ZM57.3634 380.88L54.2634 372.48H51.7234L56.0634 383.32L53.8234 388.68H56.1834L62.9434 372.48H60.5834L57.3634 380.88ZM65.0241 380.44C65.0241 382.68 66.2441 383.5 68.2041 383.5H70.0041V381.6H68.6041C67.6441 381.6 67.3241 381.26 67.3241 380.44V374.34H70.0041V372.48H67.3241V369.74H65.0241V372.48H63.7241V374.34H65.0241V380.44ZM72.1055 383.5H74.3855V377.34C74.3855 375.32 75.4855 374.28 77.1655 374.28C78.8255 374.28 79.9255 375.32 79.9255 377.34V383.5H82.1855V377C82.1855 373.92 80.2655 372.3 77.8055 372.3C76.3855 372.3 75.1455 372.84 74.3855 373.76V368.7H72.1055V383.5ZM95.5938 377.98C95.5938 374.52 93.1138 372.3 89.9738 372.3C86.8338 372.3 84.3538 374.52 84.3538 377.98C84.3538 381.44 86.7338 383.68 89.8738 383.68C93.0338 383.68 95.5938 381.44 95.5938 377.98ZM86.6738 377.98C86.6738 375.48 88.2138 374.28 89.9338 374.28C91.6338 374.28 93.2538 375.48 93.2538 377.98C93.2538 380.48 91.5738 381.7 89.8738 381.7C88.1538 381.7 86.6738 380.48 86.6738 377.98ZM105.668 383.5H107.928V377C107.928 373.92 105.988 372.3 103.408 372.3C102.088 372.3 100.868 372.84 100.128 373.74V372.48H97.8477V383.5H100.128V377.34C100.128 375.32 101.228 374.28 102.908 374.28C104.568 374.28 105.668 375.32 105.668 377.34V383.5ZM118.311 376V371.46H120.831C122.611 371.46 123.411 372.3 123.411 373.74C123.411 375.14 122.611 376 120.831 376H118.311ZM125.751 373.74C125.751 371.48 124.131 369.6 120.831 369.6H116.031V383.5H118.311V377.86H120.831C124.451 377.86 125.751 375.72 125.751 373.74ZM130.206 377.7C130.206 375.36 131.246 374.66 132.926 374.66H133.506V372.3C131.946 372.3 130.846 372.98 130.206 374.08V372.48H127.926V383.5H130.206V377.7ZM146.102 377.98C146.102 374.52 143.622 372.3 140.482 372.3C137.342 372.3 134.862 374.52 134.862 377.98C134.862 381.44 137.242 383.68 140.382 383.68C143.542 383.68 146.102 381.44 146.102 377.98ZM137.182 377.98C137.182 375.48 138.722 374.28 140.442 374.28C142.142 374.28 143.762 375.48 143.762 377.98C143.762 380.48 142.082 381.7 140.382 381.7C138.662 381.7 137.182 380.48 137.182 377.98ZM147.595 377.94C147.595 381.34 149.895 383.68 152.795 383.68C154.595 383.68 155.915 382.78 156.615 381.84V383.68C156.615 385.88 155.295 386.96 153.535 386.96C151.955 386.96 150.735 386.18 150.395 385.04H148.135C148.415 387.48 150.595 388.94 153.535 388.94C156.975 388.94 158.915 386.68 158.915 383.68V372.48H156.615V374.08C155.935 373.14 154.595 372.3 152.795 372.3C149.895 372.3 147.595 374.54 147.595 377.94ZM156.615 377.98C156.615 380.36 154.995 381.7 153.275 381.7C151.575 381.7 149.935 380.32 149.935 377.94C149.935 375.56 151.575 374.28 153.275 374.28C154.995 374.28 156.615 375.62 156.615 377.98ZM164.19 377.7C164.19 375.36 165.23 374.66 166.91 374.66H167.49V372.3C165.93 372.3 164.83 372.98 164.19 374.08V372.48H161.91V383.5H164.19V377.7ZM168.826 377.94C168.826 381.34 171.126 383.68 173.986 383.68C175.826 383.68 177.146 382.8 177.846 381.86V383.5H180.146V372.48H177.846V374.08C177.166 373.18 175.886 372.3 174.026 372.3C171.126 372.3 168.826 374.54 168.826 377.94ZM177.846 377.98C177.846 380.36 176.226 381.7 174.506 381.7C172.806 381.7 171.166 380.32 171.166 377.94C171.166 375.56 172.806 374.28 174.506 374.28C176.226 374.28 177.846 375.62 177.846 377.98ZM198.761 383.5H201.021V377C201.021 373.92 199.061 372.3 196.481 372.3C194.881 372.3 193.321 373.14 192.641 374.48C191.881 373.04 190.421 372.3 188.681 372.3C187.361 372.3 186.161 372.84 185.421 373.74V372.48H183.141V383.5H185.421V377.34C185.421 375.32 186.521 374.28 188.201 374.28C189.861 374.28 190.961 375.32 190.961 377.34V383.5H193.221V377.34C193.221 375.32 194.321 374.28 196.001 374.28C197.661 374.28 198.761 375.32 198.761 377.34V383.5ZM219.542 383.5H221.802V377C221.802 373.92 219.842 372.3 217.262 372.3C215.662 372.3 214.102 373.14 213.422 374.48C212.662 373.04 211.202 372.3 209.462 372.3C208.142 372.3 206.942 372.84 206.202 373.74V372.48H203.922V383.5H206.202V377.34C206.202 375.32 207.302 374.28 208.982 374.28C210.642 374.28 211.742 375.32 211.742 377.34V383.5H214.002V377.34C214.002 375.32 215.102 374.28 216.782 374.28C218.442 374.28 219.542 375.32 219.542 377.34V383.5ZM224.703 383.5H226.983V372.48H224.703V383.5ZM225.863 371.02C226.663 371.02 227.303 370.38 227.303 369.56C227.303 368.74 226.663 368.1 225.863 368.1C225.043 368.1 224.403 368.74 224.403 369.56C224.403 370.38 225.043 371.02 225.863 371.02ZM237.797 383.5H240.057V377C240.057 373.92 238.117 372.3 235.537 372.3C234.217 372.3 232.997 372.84 232.257 373.74V372.48H229.977V383.5H232.257V377.34C232.257 375.32 233.357 374.28 235.037 374.28C236.697 374.28 237.797 375.32 237.797 377.34V383.5ZM242.205 377.94C242.205 381.34 244.505 383.68 247.405 383.68C249.205 383.68 250.525 382.78 251.225 381.84V383.68C251.225 385.88 249.905 386.96 248.145 386.96C246.565 386.96 245.345 386.18 245.005 385.04H242.745C243.025 387.48 245.205 388.94 248.145 388.94C251.585 388.94 253.525 386.68 253.525 383.68V372.48H251.225V374.08C250.545 373.14 249.205 372.3 247.405 372.3C244.505 372.3 242.205 374.54 242.205 377.94ZM251.225 377.98C251.225 380.36 249.605 381.7 247.885 381.7C246.185 381.7 244.545 380.32 244.545 377.94C244.545 375.56 246.185 374.28 247.885 374.28C249.605 374.28 251.225 375.62 251.225 377.98ZM261.715 369.6V383.5H268.695V381.66H263.995V369.6H261.715ZM269.842 377.94C269.842 381.34 272.142 383.68 275.002 383.68C276.842 383.68 278.162 382.8 278.862 381.86V383.5H281.162V372.48H278.862V374.08C278.182 373.18 276.902 372.3 275.042 372.3C272.142 372.3 269.842 374.54 269.842 377.94ZM278.862 377.98C278.862 380.36 277.242 381.7 275.522 381.7C273.822 381.7 272.182 380.32 272.182 377.94C272.182 375.56 273.822 374.28 275.522 374.28C277.242 374.28 278.862 375.62 278.862 377.98ZM286.436 374.12V368.7H284.156V383.5H286.436V381.9C287.156 382.86 288.456 383.68 290.276 383.68C293.176 383.68 295.456 381.34 295.456 377.94C295.456 374.54 293.196 372.3 290.276 372.3C288.536 372.3 287.156 373.12 286.436 374.12ZM293.136 377.94C293.136 380.32 291.496 381.7 289.776 381.7C288.076 381.7 286.436 380.36 286.436 377.98C286.436 375.62 288.076 374.28 289.776 374.28C291.496 374.28 293.136 375.56 293.136 377.94Z" fill="#212832"/>
<rect x="0.5" y="351.5" width="616" height="49" stroke="black" stroke-opacity="0.5"/>
<rect y="237" width="617" height="50" fill="white"/>
<path d="M24.6 265.44C26.08 265.44 27.24 264.3 27.24 262.84C27.24 261.36 26.08 260.22 24.6 260.22C23.16 260.22 22 261.36 22 262.84C22 264.3 23.16 265.44 24.6 265.44ZM54.5689 262.52C54.5689 258.36 51.4289 255.42 47.4689 255.42C43.5489 255.42 40.3689 258.36 40.3689 262.52C40.3689 266.7 43.5489 269.64 47.4689 269.64C51.4289 269.64 54.5689 266.7 54.5689 262.52ZM42.7089 262.52C42.7089 259.38 44.7089 257.42 47.4689 257.42C50.2289 257.42 52.2289 259.38 52.2289 262.52C52.2289 265.66 50.2289 267.66 47.4689 267.66C44.7089 267.66 42.7089 265.66 42.7089 262.52ZM59.0925 260.1V258.48H56.8125V274.74H59.0925V267.9C59.8125 268.76 61.1125 269.68 62.9325 269.68C65.8325 269.68 68.1125 267.34 68.1125 263.94C68.1125 260.54 65.8325 258.3 62.9325 258.3C61.1325 258.3 59.7925 259.18 59.0925 260.1ZM65.7925 263.94C65.7925 266.32 64.1525 267.7 62.4325 267.7C60.7325 267.7 59.0925 266.36 59.0925 263.98C59.0925 261.62 60.7325 260.28 62.4325 260.28C64.1525 260.28 65.7925 261.56 65.7925 263.94ZM75.0072 260.22C76.7072 260.22 78.0472 261.3 78.0872 263H71.9872C72.2272 261.26 73.4672 260.22 75.0072 260.22ZM80.1672 266.22H77.7072C77.2872 267.08 76.5072 267.76 75.1072 267.76C73.4272 267.76 72.1272 266.66 71.9672 264.84H80.3872C80.4472 264.46 80.4672 264.1 80.4672 263.72C80.4672 260.48 78.2472 258.3 75.1072 258.3C71.8472 258.3 69.6072 260.52 69.6072 263.98C69.6072 267.44 71.9472 269.68 75.1072 269.68C77.8072 269.68 79.5472 268.14 80.1672 266.22ZM90.5309 269.5H92.7909V263C92.7909 259.92 90.8509 258.3 88.2709 258.3C86.9509 258.3 85.7309 258.84 84.9909 259.74V258.48H82.7109V269.5H84.9909V263.34C84.9909 261.32 86.0909 260.28 87.7709 260.28C89.4309 260.28 90.5309 261.32 90.5309 263.34V269.5ZM108.575 255.58H100.895V269.5H108.575V267.64H103.175V263.38H107.975V261.52H103.175V257.44H108.575V255.58ZM111.383 269.5H113.663V254.7H111.383V269.5ZM121.296 260.22C122.996 260.22 124.336 261.3 124.376 263H118.276C118.516 261.26 119.756 260.22 121.296 260.22ZM126.456 266.22H123.996C123.576 267.08 122.796 267.76 121.396 267.76C119.716 267.76 118.416 266.66 118.256 264.84H126.676C126.736 264.46 126.756 264.1 126.756 263.72C126.756 260.48 124.536 258.3 121.396 258.3C118.136 258.3 115.896 260.52 115.896 263.98C115.896 267.44 118.236 269.68 121.396 269.68C124.096 269.68 125.836 268.14 126.456 266.22ZM128.24 263.98C128.24 267.44 130.48 269.68 133.64 269.68C136.34 269.68 138.1 268.18 138.72 266.02H136.26C135.84 267.16 135 267.76 133.64 267.76C131.8 267.76 130.58 266.4 130.58 263.98C130.58 261.58 131.8 260.22 133.64 260.22C135 260.22 135.88 260.9 136.26 261.96H138.72C138.1 259.64 136.34 258.3 133.64 258.3C130.48 258.3 128.24 260.54 128.24 263.98ZM141.352 266.44C141.352 268.68 142.572 269.5 144.532 269.5H146.332V267.6H144.932C143.972 267.6 143.652 267.26 143.652 266.44V260.34H146.332V258.48H143.652V255.74H141.352V258.48H140.052V260.34H141.352V266.44ZM148.434 269.5H150.714V258.48H148.434V269.5ZM149.594 257.02C150.394 257.02 151.034 256.38 151.034 255.56C151.034 254.74 150.394 254.1 149.594 254.1C148.774 254.1 148.134 254.74 148.134 255.56C148.134 256.38 148.774 257.02 149.594 257.02ZM152.407 258.48L156.587 269.5H159.307L163.507 258.48H161.087L157.967 267.46L154.847 258.48H152.407ZM169.87 260.22C171.57 260.22 172.91 261.3 172.95 263H166.85C167.09 261.26 168.33 260.22 169.87 260.22ZM175.03 266.22H172.57C172.15 267.08 171.37 267.76 169.97 267.76C168.29 267.76 166.99 266.66 166.83 264.84H175.25C175.31 264.46 175.33 264.1 175.33 263.72C175.33 260.48 173.11 258.3 169.97 258.3C166.71 258.3 164.47 260.52 164.47 263.98C164.47 267.44 166.81 269.68 169.97 269.68C172.67 269.68 174.41 268.14 175.03 266.22ZM192.15 269.5H194.55L189.57 255.58H186.93L181.95 269.5H184.33L185.33 266.66H191.15L192.15 269.5ZM190.51 264.8H185.97L188.25 258.34L190.51 264.8Z" fill="#212832"/>
<rect x="0.5" y="237.5" width="616" height="49" stroke="black" stroke-opacity="0.5"/>
<rect y="465" width="617" height="50" fill="white"/>
<path d="M24.6 493.44C26.08 493.44 27.24 492.3 27.24 490.84C27.24 489.36 26.08 488.22 24.6 488.22C23.16 488.22 22 489.36 22 490.84C22 492.3 23.16 493.44 24.6 493.44ZM46.4089 493.62C46.4089 494.78 45.8289 495.62 44.6089 495.62C43.3889 495.62 42.8289 494.78 42.8089 493.62H40.5089C40.5089 496.14 42.2089 497.64 44.6089 497.64C47.0089 497.64 48.7089 496.14 48.7089 493.62V483.6H46.4089V493.62ZM51.658 491.94C51.658 495.34 53.958 497.68 56.818 497.68C58.658 497.68 59.978 496.8 60.678 495.86V497.5H62.978V486.48H60.678V488.08C59.998 487.18 58.718 486.3 56.858 486.3C53.958 486.3 51.658 488.54 51.658 491.94ZM60.678 491.98C60.678 494.36 59.058 495.7 57.338 495.7C55.638 495.7 53.998 494.32 53.998 491.94C53.998 489.56 55.638 488.28 57.338 488.28C59.058 488.28 60.678 489.62 60.678 491.98ZM64.6727 486.48L68.8527 497.5H71.5727L75.7727 486.48H73.3527L70.2327 495.46L67.1127 486.48H64.6727ZM76.7361 491.94C76.7361 495.34 79.0361 497.68 81.8961 497.68C83.7361 497.68 85.0561 496.8 85.7561 495.86V497.5H88.0561V486.48H85.7561V488.08C85.0761 487.18 83.7961 486.3 81.9361 486.3C79.0361 486.3 76.7361 488.54 76.7361 491.94ZM85.7561 491.98C85.7561 494.36 84.1361 495.7 82.4161 495.7C80.7161 495.7 79.0761 494.32 79.0761 491.94C79.0761 489.56 80.7161 488.28 82.4161 488.28C84.1361 488.28 85.7561 489.62 85.7561 491.98ZM98.5261 490V485.46H101.046C102.826 485.46 103.626 486.3 103.626 487.74C103.626 489.14 102.826 490 101.046 490H98.5261ZM105.966 487.74C105.966 485.48 104.346 483.6 101.046 483.6H96.2461V497.5H98.5261V491.86H101.046C104.666 491.86 105.966 489.72 105.966 487.74ZM110.421 491.7C110.421 489.36 111.461 488.66 113.141 488.66H113.721V486.3C112.161 486.3 111.061 486.98 110.421 488.08V486.48H108.141V497.5H110.421V491.7ZM126.316 491.98C126.316 488.52 123.836 486.3 120.696 486.3C117.556 486.3 115.076 488.52 115.076 491.98C115.076 495.44 117.456 497.68 120.596 497.68C123.756 497.68 126.316 495.44 126.316 491.98ZM117.396 491.98C117.396 489.48 118.936 488.28 120.656 488.28C122.356 488.28 123.976 489.48 123.976 491.98C123.976 494.48 122.296 495.7 120.596 495.7C118.876 495.7 117.396 494.48 117.396 491.98ZM127.81 491.94C127.81 495.34 130.11 497.68 133.01 497.68C134.81 497.68 136.13 496.78 136.83 495.84V497.68C136.83 499.88 135.51 500.96 133.75 500.96C132.17 500.96 130.95 500.18 130.61 499.04H128.35C128.63 501.48 130.81 502.94 133.75 502.94C137.19 502.94 139.13 500.68 139.13 497.68V486.48H136.83V488.08C136.15 487.14 134.81 486.3 133.01 486.3C130.11 486.3 127.81 488.54 127.81 491.94ZM136.83 491.98C136.83 494.36 135.21 495.7 133.49 495.7C131.79 495.7 130.15 494.32 130.15 491.94C130.15 489.56 131.79 488.28 133.49 488.28C135.21 488.28 136.83 489.62 136.83 491.98ZM144.405 491.7C144.405 489.36 145.445 488.66 147.125 488.66H147.705V486.3C146.145 486.3 145.045 486.98 144.405 488.08V486.48H142.125V497.5H144.405V491.7ZM149.041 491.94C149.041 495.34 151.341 497.68 154.201 497.68C156.041 497.68 157.361 496.8 158.061 495.86V497.5H160.361V486.48H158.061V488.08C157.381 487.18 156.101 486.3 154.241 486.3C151.341 486.3 149.041 488.54 149.041 491.94ZM158.061 491.98C158.061 494.36 156.441 495.7 154.721 495.7C153.021 495.7 151.381 494.32 151.381 491.94C151.381 489.56 153.021 488.28 154.721 488.28C156.441 488.28 158.061 489.62 158.061 491.98ZM178.975 497.5H181.235V491C181.235 487.92 179.275 486.3 176.695 486.3C175.095 486.3 173.535 487.14 172.855 488.48C172.095 487.04 170.635 486.3 168.895 486.3C167.575 486.3 166.375 486.84 165.635 487.74V486.48H163.355V497.5H165.635V491.34C165.635 489.32 166.735 488.28 168.415 488.28C170.075 488.28 171.175 489.32 171.175 491.34V497.5H173.435V491.34C173.435 489.32 174.535 488.28 176.215 488.28C177.875 488.28 178.975 489.32 178.975 491.34V497.5ZM199.757 497.5H202.017V491C202.017 487.92 200.057 486.3 197.477 486.3C195.877 486.3 194.317 487.14 193.637 488.48C192.877 487.04 191.417 486.3 189.677 486.3C188.357 486.3 187.157 486.84 186.417 487.74V486.48H184.137V497.5H186.417V491.34C186.417 489.32 187.517 488.28 189.197 488.28C190.857 488.28 191.957 489.32 191.957 491.34V497.5H194.217V491.34C194.217 489.32 195.317 488.28 196.997 488.28C198.657 488.28 199.757 489.32 199.757 491.34V497.5ZM204.918 497.5H207.198V486.48H204.918V497.5ZM206.078 485.02C206.878 485.02 207.518 484.38 207.518 483.56C207.518 482.74 206.878 482.1 206.078 482.1C205.258 482.1 204.618 482.74 204.618 483.56C204.618 484.38 205.258 485.02 206.078 485.02ZM218.011 497.5H220.271V491C220.271 487.92 218.331 486.3 215.751 486.3C214.431 486.3 213.211 486.84 212.471 487.74V486.48H210.191V497.5H212.471V491.34C212.471 489.32 213.571 488.28 215.251 488.28C216.911 488.28 218.011 489.32 218.011 491.34V497.5ZM222.42 491.94C222.42 495.34 224.72 497.68 227.62 497.68C229.42 497.68 230.74 496.78 231.44 495.84V497.68C231.44 499.88 230.12 500.96 228.36 500.96C226.78 500.96 225.56 500.18 225.22 499.04H222.96C223.24 501.48 225.42 502.94 228.36 502.94C231.8 502.94 233.74 500.68 233.74 497.68V486.48H231.44V488.08C230.76 487.14 229.42 486.3 227.62 486.3C224.72 486.3 222.42 488.54 222.42 491.94ZM231.44 491.98C231.44 494.36 229.82 495.7 228.1 495.7C226.4 495.7 224.76 494.32 224.76 491.94C224.76 489.56 226.4 488.28 228.1 488.28C229.82 488.28 231.44 489.62 231.44 491.98ZM241.93 483.6V497.5H248.91V495.66H244.21V483.6H241.93ZM250.056 491.94C250.056 495.34 252.356 497.68 255.216 497.68C257.056 497.68 258.376 496.8 259.076 495.86V497.5H261.376V486.48H259.076V488.08C258.396 487.18 257.116 486.3 255.256 486.3C252.356 486.3 250.056 488.54 250.056 491.94ZM259.076 491.98C259.076 494.36 257.456 495.7 255.736 495.7C254.036 495.7 252.396 494.32 252.396 491.94C252.396 489.56 254.036 488.28 255.736 488.28C257.456 488.28 259.076 489.62 259.076 491.98ZM266.651 488.12V482.7H264.371V497.5H266.651V495.9C267.371 496.86 268.671 497.68 270.491 497.68C273.391 497.68 275.671 495.34 275.671 491.94C275.671 488.54 273.411 486.3 270.491 486.3C268.751 486.3 267.371 487.12 266.651 488.12ZM273.351 491.94C273.351 494.32 271.711 495.7 269.991 495.7C268.291 495.7 266.651 494.36 266.651 491.98C266.651 489.62 268.291 488.28 269.991 488.28C271.711 488.28 273.351 489.56 273.351 491.94Z" fill="#212832"/>
<rect x="0.5" y="465.5" width="616" height="49" stroke="black" stroke-opacity="0.5"/>
<rect y="522" width="617" height="50" fill="white"/>
<path d="M21.74 548.22H29.96V546.3H21.74V548.22ZM33.4392 548.22H41.6592V546.3H33.4392V548.22ZM45.1384 548.22H53.3584V546.3H45.1384V548.22ZM56.8377 548.22H65.0577V546.3H56.8377V548.22Z" fill="#212832"/>
<rect x="0.5" y="522.5" width="616" height="49" stroke="black" stroke-opacity="0.5"/>
</svg>
