<svg width="617" height="515" viewBox="0 0 617 515" fill="none" xmlns="http://www.w3.org/2000/svg">
<rect width="617" height="58" fill="#3498DB"/>
<path d="M33.925 32.95C33.925 26.8 24.975 28.75 24.975 25.25C24.975 23.825 26 23.15 27.375 23.2C28.875 23.225 29.8 24.125 29.875 25.275H33.725C33.5 22.125 31.05 20.3 27.475 20.3C23.875 20.3 21.325 22.2 21.325 25.35C21.3 31.675 30.3 29.4 30.3 33.175C30.3 34.425 29.325 35.3 27.675 35.3C26.05 35.3 25.125 34.375 25.025 32.975H21.275C21.325 36.275 24.125 38.175 27.75 38.175C31.725 38.175 33.925 35.7 33.925 32.95ZM43.4094 26.8C45.2094 26.8 46.6594 27.95 46.7094 29.775H40.1344C40.4094 27.875 41.7344 26.8 43.4094 26.8ZM49.9844 33.65H46.2094C45.7594 34.575 44.9344 35.325 43.4344 35.325C41.6844 35.325 40.2844 34.175 40.1094 32.125H50.2344C50.3094 31.675 50.3344 31.225 50.3344 30.775C50.3344 26.65 47.5094 23.925 43.5094 23.925C39.4094 23.925 36.5594 26.7 36.5594 31.075C36.5594 35.425 39.4844 38.225 43.5094 38.225C46.9344 38.225 49.2344 36.2 49.9844 33.65ZM72.7641 38H76.2641V29.875C76.2641 26.05 73.9141 23.95 70.5891 23.95C68.5641 23.95 66.7391 25.025 65.8391 26.6C64.8891 24.875 63.1141 23.95 60.9641 23.95C59.2391 23.95 57.7641 24.675 56.8891 25.825V24.15H53.3891V38H56.8891V30.35C56.8891 28.15 58.1141 27 60.0141 27C61.8641 27 63.0891 28.15 63.0891 30.35V38H66.5891V30.35C66.5891 28.15 67.8141 27 69.6891 27C71.5391 27 72.7641 28.15 72.7641 30.35V38ZM86.0354 26.8C87.8354 26.8 89.2854 27.95 89.3354 29.775H82.7604C83.0354 27.875 84.3604 26.8 86.0354 26.8ZM92.6104 33.65H88.8354C88.3854 34.575 87.5604 35.325 86.0604 35.325C84.3104 35.325 82.9104 34.175 82.7354 32.125H92.8604C92.9354 31.675 92.9604 31.225 92.9604 30.775C92.9604 26.65 90.1354 23.925 86.1354 23.925C82.0354 23.925 79.1854 26.7 79.1854 31.075C79.1854 35.425 82.1104 38.225 86.1354 38.225C89.5604 38.225 91.8604 36.2 92.6104 33.65ZM106.765 34.05C106.665 28.975 98.99 30.55 98.99 28.025C98.99 27.225 99.665 26.7 100.965 26.7C102.34 26.7 103.19 27.425 103.29 28.5H106.64C106.44 25.75 104.415 23.925 101.065 23.925C97.64 23.925 95.59 25.775 95.59 28.075C95.59 33.15 103.415 31.575 103.415 34.05C103.415 34.85 102.665 35.475 101.29 35.475C99.89 35.475 98.915 34.675 98.79 33.625H95.265C95.415 36.2 97.84 38.225 101.315 38.225C104.69 38.225 106.765 36.425 106.765 34.05ZM110.688 33.7C110.688 36.875 112.463 38 115.113 38H117.313V35.05H115.688C114.588 35.05 114.213 34.65 114.213 33.725V27.025H117.313V24.15H114.213V20.725H110.688V24.15H109.038V27.025H110.688V33.7ZM126.28 26.8C128.08 26.8 129.53 27.95 129.58 29.775H123.005C123.28 27.875 124.605 26.8 126.28 26.8ZM132.855 33.65H129.08C128.63 34.575 127.805 35.325 126.305 35.325C124.555 35.325 123.155 34.175 122.98 32.125H133.105C133.18 31.675 133.205 31.225 133.205 30.775C133.205 26.65 130.38 23.925 126.38 23.925C122.28 23.925 119.43 26.7 119.43 31.075C119.43 35.425 122.355 38.225 126.38 38.225C129.805 38.225 132.105 36.2 132.855 33.65ZM139.76 31.1C139.76 28.425 141.01 27.625 143.085 27.625H144.01V23.95C142.085 23.95 140.635 24.875 139.76 26.3V24.15H136.26V38H139.76V31.1ZM152.975 24.575H156.4C156.525 23.425 157.25 22.325 158.95 22.325C160.55 22.325 161.425 23.175 161.425 24.6C161.425 26.4 159.925 26.975 157.875 26.975H157.15V29.85H157.875C160.475 29.85 161.775 30.6 161.775 32.65C161.775 34.1 160.875 35.2 159.125 35.2C157.25 35.2 156.2 34.075 156.125 32.5H152.725C152.875 36.325 155.6 38.125 159.2 38.125C163.025 38.125 165.125 35.925 165.125 32.95C165.125 30.475 163.9 28.975 162.05 28.4V28.3C163.375 27.85 164.8 26.45 164.8 24.175C164.8 21.475 162.8 19.35 159.05 19.35C155.55 19.35 153.15 21.2 152.975 24.575Z" fill="white"/>
<rect y="66" width="617" height="50" fill="white"/>
<path d="M24.6 94.44C26.08 94.44 27.24 93.3 27.24 91.84C27.24 90.36 26.08 89.22 24.6 89.22C23.16 89.22 22 90.36 22 91.84C22 93.3 23.16 94.44 24.6 94.44ZM41.1289 84.6V98.5H48.1089V96.66H43.4089V84.6H41.1289ZM50.0156 98.5H52.2956V87.48H50.0156V98.5ZM51.1756 86.02C51.9756 86.02 52.6156 85.38 52.6156 84.56C52.6156 83.74 51.9756 83.1 51.1756 83.1C50.3556 83.1 49.7156 83.74 49.7156 84.56C49.7156 85.38 50.3556 86.02 51.1756 86.02ZM55.5691 98.5H57.8691V89.34H59.9091V87.48H57.8691V86.7C57.8691 85.44 58.3491 84.96 59.7491 84.96V83.06C56.8691 83.06 55.5691 84.16 55.5691 86.7V87.48H54.2691V89.34H55.5691V98.5ZM66.5697 89.22C68.2697 89.22 69.6097 90.3 69.6497 92H63.5497C63.7897 90.26 65.0297 89.22 66.5697 89.22ZM71.7297 95.22H69.2697C68.8497 96.08 68.0697 96.76 66.6697 96.76C64.9897 96.76 63.6897 95.66 63.5297 93.84H71.9497C72.0097 93.46 72.0297 93.1 72.0297 92.72C72.0297 89.48 69.8097 87.3 66.6697 87.3C63.4097 87.3 61.1697 89.52 61.1697 92.98C61.1697 96.44 63.5097 98.68 66.6697 98.68C69.3697 98.68 71.1097 97.14 71.7297 95.22ZM88.8488 94.56C88.8488 89.48 81.4888 91.44 81.4888 88.3C81.4888 86.96 82.5088 86.32 83.8288 86.36C85.2688 86.4 86.0888 87.26 86.1688 88.2H88.6888C88.4888 85.82 86.6088 84.42 83.9488 84.42C81.1088 84.42 79.1688 85.94 79.1688 88.38C79.1688 93.5 86.5488 91.32 86.5488 94.68C86.5488 95.86 85.6488 96.72 84.0488 96.72C82.4688 96.72 81.6688 95.8 81.5688 94.66H79.1288C79.1288 97.12 81.2688 98.64 84.0488 98.64C87.1488 98.64 88.8488 96.64 88.8488 94.56ZM91.5391 98.5H93.8191V93.76L97.8991 98.5H100.979L95.8991 93L100.979 87.48H97.8191L93.8191 92.3V83.7H91.5391V98.5ZM102.613 98.5H104.893V87.48H102.613V98.5ZM103.773 86.02C104.573 86.02 105.213 85.38 105.213 84.56C105.213 83.74 104.573 83.1 103.773 83.1C102.953 83.1 102.313 83.74 102.313 84.56C102.313 85.38 102.953 86.02 103.773 86.02ZM107.887 98.5H110.167V83.7H107.887V98.5ZM113.16 98.5H115.44V83.7H113.16V98.5ZM126.654 95.42C126.534 91.44 120.314 92.68 120.314 90.46C120.314 89.72 120.954 89.22 122.174 89.22C123.414 89.22 124.154 89.88 124.234 90.84H126.514C126.394 88.64 124.754 87.3 122.254 87.3C119.654 87.3 118.014 88.72 118.014 90.48C118.014 94.52 124.414 93.28 124.414 95.44C124.414 96.2 123.714 96.76 122.394 96.76C121.134 96.76 120.274 96.02 120.194 95.12H117.834C117.934 97.12 119.794 98.68 122.434 98.68C125.034 98.68 126.654 97.28 126.654 95.42ZM135.573 98.5H137.873V83.92H133.713V86H135.573V98.5Z" fill="#212832"/>
<rect x="0.5" y="66.5" width="616" height="49" stroke="black" stroke-opacity="0.5"/>
<rect y="294" width="617" height="50" fill="white"/>
<path d="M24.6 322.44C26.08 322.44 27.24 321.3 27.24 319.84C27.24 318.36 26.08 317.22 24.6 317.22C23.16 317.22 22 318.36 22 319.84C22 321.3 23.16 322.44 24.6 322.44ZM54.5689 319.52C54.5689 315.36 51.4289 312.42 47.4689 312.42C43.5489 312.42 40.3689 315.36 40.3689 319.52C40.3689 323.7 43.5489 326.64 47.4689 326.64C51.4289 326.64 54.5689 323.7 54.5689 319.52ZM42.7089 319.52C42.7089 316.38 44.7089 314.42 47.4689 314.42C50.2289 314.42 52.2289 316.38 52.2289 319.52C52.2289 322.66 50.2289 324.66 47.4689 324.66C44.7089 324.66 42.7089 322.66 42.7089 319.52ZM59.0925 317.12V311.7H56.8125V326.5H59.0925V324.9C59.8125 325.86 61.1125 326.68 62.9325 326.68C65.8325 326.68 68.1125 324.34 68.1125 320.94C68.1125 317.54 65.8525 315.3 62.9325 315.3C61.1925 315.3 59.8125 316.12 59.0925 317.12ZM65.7925 320.94C65.7925 323.32 64.1525 324.7 62.4325 324.7C60.7325 324.7 59.0925 323.36 59.0925 320.98C59.0925 318.62 60.7325 317.28 62.4325 317.28C64.1525 317.28 65.7925 318.56 65.7925 320.94ZM71.5272 314.02C72.3272 314.02 72.9672 313.38 72.9672 312.56C72.9672 311.74 72.3272 311.1 71.5272 311.1C70.7072 311.1 70.0672 311.74 70.0672 312.56C70.0672 313.38 70.7072 314.02 71.5272 314.02ZM70.3672 315.48V328.66C70.3672 329.48 70.0472 329.82 69.0872 329.82H68.3072V331.74H69.4872C71.4472 331.74 72.6472 330.9 72.6472 328.66V315.48H70.3672ZM80.2806 317.22C81.9806 317.22 83.3206 318.3 83.3606 320H77.2606C77.5006 318.26 78.7406 317.22 80.2806 317.22ZM85.4406 323.22H82.9806C82.5606 324.08 81.7806 324.76 80.3806 324.76C78.7006 324.76 77.4006 323.66 77.2406 321.84H85.6606C85.7206 321.46 85.7406 321.1 85.7406 320.72C85.7406 317.48 83.5206 315.3 80.3806 315.3C77.1206 315.3 74.8806 317.52 74.8806 320.98C74.8806 324.44 77.2206 326.68 80.3806 326.68C83.0806 326.68 84.8206 325.14 85.4406 323.22ZM87.2244 320.98C87.2244 324.44 89.4644 326.68 92.6244 326.68C95.3244 326.68 97.0844 325.18 97.7044 323.02H95.2444C94.8244 324.16 93.9844 324.76 92.6244 324.76C90.7844 324.76 89.5644 323.4 89.5644 320.98C89.5644 318.58 90.7844 317.22 92.6244 317.22C93.9844 317.22 94.8644 317.9 95.2444 318.96H97.7044C97.0844 316.64 95.3244 315.3 92.6244 315.3C89.4644 315.3 87.2244 317.54 87.2244 320.98ZM100.337 323.44C100.337 325.68 101.557 326.5 103.517 326.5H105.317V324.6H103.917C102.957 324.6 102.637 324.26 102.637 323.44V317.34H105.317V315.48H102.637V312.74H100.337V315.48H99.0366V317.34H100.337V323.44ZM107.658 320.22H115.878V318.3H107.658V320.22ZM132.557 319.52C132.557 315.36 129.417 312.42 125.457 312.42C121.537 312.42 118.357 315.36 118.357 319.52C118.357 323.7 121.537 326.64 125.457 326.64C129.417 326.64 132.557 323.7 132.557 319.52ZM120.697 319.52C120.697 316.38 122.697 314.42 125.457 314.42C128.217 314.42 130.217 316.38 130.217 319.52C130.217 322.66 128.217 324.66 125.457 324.66C122.697 324.66 120.697 322.66 120.697 319.52ZM137.081 320.7C137.081 318.36 138.121 317.66 139.801 317.66H140.381V315.3C138.821 315.3 137.721 315.98 137.081 317.08V315.48H134.801V326.5H137.081V320.7ZM142.477 326.5H144.757V315.48H142.477V326.5ZM143.637 314.02C144.437 314.02 145.077 313.38 145.077 312.56C145.077 311.74 144.437 311.1 143.637 311.1C142.817 311.1 142.177 311.74 142.177 312.56C142.177 313.38 142.817 314.02 143.637 314.02ZM152.39 317.22C154.09 317.22 155.43 318.3 155.47 320H149.37C149.61 318.26 150.85 317.22 152.39 317.22ZM157.55 323.22H155.09C154.67 324.08 153.89 324.76 152.49 324.76C150.81 324.76 149.51 323.66 149.35 321.84H157.77C157.83 321.46 157.85 321.1 157.85 320.72C157.85 317.48 155.63 315.3 152.49 315.3C149.23 315.3 146.99 317.52 146.99 320.98C146.99 324.44 149.33 326.68 152.49 326.68C155.19 326.68 156.93 325.14 157.55 323.22ZM167.914 326.5H170.174V320C170.174 316.92 168.234 315.3 165.654 315.3C164.334 315.3 163.114 315.84 162.374 316.74V315.48H160.094V326.5H162.374V320.34C162.374 318.32 163.474 317.28 165.154 317.28C166.814 317.28 167.914 318.32 167.914 320.34V326.5ZM173.442 323.44C173.442 325.68 174.662 326.5 176.622 326.5H178.422V324.6H177.022C176.062 324.6 175.742 324.26 175.742 323.44V317.34H178.422V315.48H175.742V312.74H173.442V315.48H172.142V317.34H173.442V323.44ZM185.163 317.22C186.863 317.22 188.203 318.3 188.243 320H182.143C182.383 318.26 183.623 317.22 185.163 317.22ZM190.323 323.22H187.863C187.443 324.08 186.663 324.76 185.263 324.76C183.583 324.76 182.283 323.66 182.123 321.84H190.543C190.603 321.46 190.623 321.1 190.623 320.72C190.623 317.48 188.403 315.3 185.263 315.3C182.003 315.3 179.763 317.52 179.763 320.98C179.763 324.44 182.103 326.68 185.263 326.68C187.963 326.68 189.703 325.14 190.323 323.22ZM192.107 320.94C192.107 324.34 194.407 326.68 197.307 326.68C199.107 326.68 200.427 325.84 201.127 324.84V326.5H203.427V311.7H201.127V317.02C200.287 315.98 198.767 315.3 197.327 315.3C194.407 315.3 192.107 317.54 192.107 320.94ZM201.127 320.98C201.127 323.36 199.507 324.7 197.787 324.7C196.087 324.7 194.447 323.32 194.447 320.94C194.447 318.56 196.087 317.28 197.787 317.28C199.507 317.28 201.127 318.62 201.127 320.98ZM213.897 319V314.46H216.417C218.197 314.46 218.997 315.3 218.997 316.74C218.997 318.14 218.197 319 216.417 319H213.897ZM221.337 316.74C221.337 314.48 219.717 312.6 216.417 312.6H211.617V326.5H213.897V320.86H216.417C220.037 320.86 221.337 318.72 221.337 316.74ZM225.792 320.7C225.792 318.36 226.832 317.66 228.512 317.66H229.092V315.3C227.532 315.3 226.432 315.98 225.792 317.08V315.48H223.512V326.5H225.792V320.7ZM241.688 320.98C241.688 317.52 239.208 315.3 236.068 315.3C232.928 315.3 230.448 317.52 230.448 320.98C230.448 324.44 232.828 326.68 235.968 326.68C239.128 326.68 241.688 324.44 241.688 320.98ZM232.768 320.98C232.768 318.48 234.308 317.28 236.028 317.28C237.728 317.28 239.348 318.48 239.348 320.98C239.348 323.48 237.668 324.7 235.968 324.7C234.248 324.7 232.768 323.48 232.768 320.98ZM243.181 320.94C243.181 324.34 245.481 326.68 248.381 326.68C250.181 326.68 251.501 325.78 252.201 324.84V326.68C252.201 328.88 250.881 329.96 249.121 329.96C247.541 329.96 246.321 329.18 245.981 328.04H243.721C244.001 330.48 246.181 331.94 249.121 331.94C252.561 331.94 254.501 329.68 254.501 326.68V315.48H252.201V317.08C251.521 316.14 250.181 315.3 248.381 315.3C245.481 315.3 243.181 317.54 243.181 320.94ZM252.201 320.98C252.201 323.36 250.581 324.7 248.861 324.7C247.161 324.7 245.521 323.32 245.521 320.94C245.521 318.56 247.161 317.28 248.861 317.28C250.581 317.28 252.201 318.62 252.201 320.98ZM259.776 320.7C259.776 318.36 260.816 317.66 262.496 317.66H263.076V315.3C261.516 315.3 260.416 315.98 259.776 317.08V315.48H257.496V326.5H259.776V320.7ZM264.412 320.94C264.412 324.34 266.712 326.68 269.572 326.68C271.412 326.68 272.732 325.8 273.432 324.86V326.5H275.732V315.48H273.432V317.08C272.752 316.18 271.472 315.3 269.612 315.3C266.712 315.3 264.412 317.54 264.412 320.94ZM273.432 320.98C273.432 323.36 271.812 324.7 270.092 324.7C268.392 324.7 266.752 323.32 266.752 320.94C266.752 318.56 268.392 317.28 270.092 317.28C271.812 317.28 273.432 318.62 273.432 320.98ZM294.347 326.5H296.607V320C296.607 316.92 294.647 315.3 292.067 315.3C290.467 315.3 288.907 316.14 288.227 317.48C287.467 316.04 286.007 315.3 284.267 315.3C282.947 315.3 281.747 315.84 281.007 316.74V315.48H278.727V326.5H281.007V320.34C281.007 318.32 282.107 317.28 283.787 317.28C285.447 317.28 286.547 318.32 286.547 320.34V326.5H288.807V320.34C288.807 318.32 289.907 317.28 291.587 317.28C293.247 317.28 294.347 318.32 294.347 320.34V326.5ZM315.128 326.5H317.388V320C317.388 316.92 315.428 315.3 312.848 315.3C311.248 315.3 309.688 316.14 309.008 317.48C308.248 316.04 306.788 315.3 305.048 315.3C303.728 315.3 302.528 315.84 301.788 316.74V315.48H299.508V326.5H301.788V320.34C301.788 318.32 302.888 317.28 304.568 317.28C306.228 317.28 307.328 318.32 307.328 320.34V326.5H309.588V320.34C309.588 318.32 310.688 317.28 312.368 317.28C314.028 317.28 315.128 318.32 315.128 320.34V326.5ZM320.289 326.5H322.569V315.48H320.289V326.5ZM321.449 314.02C322.249 314.02 322.889 313.38 322.889 312.56C322.889 311.74 322.249 311.1 321.449 311.1C320.629 311.1 319.989 311.74 319.989 312.56C319.989 313.38 320.629 314.02 321.449 314.02ZM333.383 326.5H335.643V320C335.643 316.92 333.703 315.3 331.123 315.3C329.803 315.3 328.583 315.84 327.843 316.74V315.48H325.563V326.5H327.843V320.34C327.843 318.32 328.943 317.28 330.623 317.28C332.283 317.28 333.383 318.32 333.383 320.34V326.5ZM337.791 320.94C337.791 324.34 340.091 326.68 342.991 326.68C344.791 326.68 346.111 325.78 346.811 324.84V326.68C346.811 328.88 345.491 329.96 343.731 329.96C342.151 329.96 340.931 329.18 340.591 328.04H338.331C338.611 330.48 340.791 331.94 343.731 331.94C347.171 331.94 349.111 329.68 349.111 326.68V315.48H346.811V317.08C346.131 316.14 344.791 315.3 342.991 315.3C340.091 315.3 337.791 317.54 337.791 320.94ZM346.811 320.98C346.811 323.36 345.191 324.7 343.471 324.7C341.771 324.7 340.131 323.32 340.131 320.94C340.131 318.56 341.771 317.28 343.471 317.28C345.191 317.28 346.811 318.62 346.811 320.98ZM357.281 321.42C357.281 324.96 359.761 326.64 362.681 326.64C365.581 326.64 368.141 324.96 368.141 321.42V312.6H365.861V321.46C365.861 323.62 364.641 324.64 362.701 324.64C360.781 324.64 359.561 323.62 359.561 321.46V312.6H357.281V321.42ZM379.329 323.42C379.209 319.44 372.989 320.68 372.989 318.46C372.989 317.72 373.629 317.22 374.849 317.22C376.089 317.22 376.829 317.88 376.909 318.84H379.189C379.069 316.64 377.429 315.3 374.929 315.3C372.329 315.3 370.689 316.72 370.689 318.48C370.689 322.52 377.089 321.28 377.089 323.44C377.089 324.2 376.389 324.76 375.069 324.76C373.809 324.76 372.949 324.02 372.869 323.12H370.509C370.609 325.12 372.469 326.68 375.109 326.68C377.709 326.68 379.329 325.28 379.329 323.42ZM381.793 326.5H384.073V315.48H381.793V326.5ZM382.953 314.02C383.753 314.02 384.393 313.38 384.393 312.56C384.393 311.74 383.753 311.1 382.953 311.1C382.133 311.1 381.493 311.74 381.493 312.56C381.493 313.38 382.133 314.02 382.953 314.02ZM394.886 326.5H397.146V320C397.146 316.92 395.206 315.3 392.626 315.3C391.306 315.3 390.086 315.84 389.346 316.74V315.48H387.066V326.5H389.346V320.34C389.346 318.32 390.446 317.28 392.126 317.28C393.786 317.28 394.886 318.32 394.886 320.34V326.5ZM399.295 320.94C399.295 324.34 401.595 326.68 404.495 326.68C406.295 326.68 407.615 325.78 408.315 324.84V326.68C408.315 328.88 406.995 329.96 405.235 329.96C403.655 329.96 402.435 329.18 402.095 328.04H399.835C400.115 330.48 402.295 331.94 405.235 331.94C408.675 331.94 410.615 329.68 410.615 326.68V315.48H408.315V317.08C407.635 316.14 406.295 315.3 404.495 315.3C401.595 315.3 399.295 317.54 399.295 320.94ZM408.315 320.98C408.315 323.36 406.695 324.7 404.975 324.7C403.275 324.7 401.635 323.32 401.635 320.94C401.635 318.56 403.275 317.28 404.975 317.28C406.695 317.28 408.315 318.62 408.315 320.98ZM418.045 319.52C418.045 323.7 421.225 326.62 425.145 326.62C428.045 326.62 430.545 325.18 431.605 322.46H428.865C428.125 323.94 426.805 324.64 425.145 324.64C422.385 324.64 420.385 322.66 420.385 319.52C420.385 316.38 422.385 314.42 425.145 314.42C426.805 314.42 428.125 315.12 428.865 316.6H431.605C430.545 313.88 428.045 312.42 425.145 312.42C421.225 312.42 418.045 315.36 418.045 319.52ZM438.853 314.18V318.32H434.813V320.24H438.853V324.38H440.973V320.24H445.013V318.32H440.973V314.18H438.853ZM453.131 314.18V318.32H449.091V320.24H453.131V324.38H455.251V320.24H459.291V318.32H455.251V314.18H453.131Z" fill="#212832"/>
<rect x="0.5" y="294.5" width="616" height="49" stroke="black" stroke-opacity="0.5"/>
<rect y="180" width="617" height="50" fill="white"/>
<path d="M24.6 208.44C26.08 208.44 27.24 207.3 27.24 205.84C27.24 204.36 26.08 203.22 24.6 203.22C23.16 203.22 22 204.36 22 205.84C22 207.3 23.16 208.44 24.6 208.44ZM45.6689 198.6H41.1289V212.5H45.6689C50.1289 212.5 53.0489 209.88 53.0489 205.6C53.0489 201.3 50.1289 198.6 45.6689 198.6ZM43.4089 210.64V200.46H45.6689C48.9489 200.46 50.7089 202.42 50.7089 205.6C50.7089 208.76 48.9489 210.64 45.6689 210.64H43.4089ZM59.9486 203.22C61.6486 203.22 62.9886 204.3 63.0286 206H56.9286C57.1686 204.26 58.4086 203.22 59.9486 203.22ZM65.1086 209.22H62.6486C62.2286 210.08 61.4486 210.76 60.0486 210.76C58.3686 210.76 57.0686 209.66 56.9086 207.84H65.3286C65.3886 207.46 65.4086 207.1 65.4086 206.72C65.4086 203.48 63.1886 201.3 60.0486 201.3C56.7886 201.3 54.5486 203.52 54.5486 206.98C54.5486 210.44 56.8886 212.68 60.0486 212.68C62.7486 212.68 64.4886 211.14 65.1086 209.22ZM75.8723 209.42C75.7523 205.44 69.5323 206.68 69.5323 204.46C69.5323 203.72 70.1723 203.22 71.3923 203.22C72.6323 203.22 73.3723 203.88 73.4523 204.84H75.7323C75.6123 202.64 73.9723 201.3 71.4723 201.3C68.8723 201.3 67.2323 202.72 67.2323 204.48C67.2323 208.52 73.6323 207.28 73.6323 209.44C73.6323 210.2 72.9323 210.76 71.6123 210.76C70.3523 210.76 69.4923 210.02 69.4123 209.12H67.0523C67.1523 211.12 69.0123 212.68 71.6523 212.68C74.2523 212.68 75.8723 211.28 75.8723 209.42ZM77.5759 206.98C77.5759 210.44 79.8159 212.68 82.9759 212.68C85.6759 212.68 87.4359 211.18 88.0559 209.02H85.5959C85.1759 210.16 84.3359 210.76 82.9759 210.76C81.1359 210.76 79.9159 209.4 79.9159 206.98C79.9159 204.58 81.1359 203.22 82.9759 203.22C84.3359 203.22 85.2159 203.9 85.5959 204.96H88.0559C87.4359 202.64 85.6759 201.3 82.9759 201.3C79.8159 201.3 77.5759 203.54 77.5759 206.98ZM92.6081 206.7C92.6081 204.36 93.6481 203.66 95.3281 203.66H95.9081V201.3C94.3481 201.3 93.2481 201.98 92.6081 203.08V201.48H90.3281V212.5H92.6081V206.7ZM98.0039 212.5H100.284V201.48H98.0039V212.5ZM99.1639 200.02C99.9639 200.02 100.604 199.38 100.604 198.56C100.604 197.74 99.9639 197.1 99.1639 197.1C98.3439 197.1 97.7039 197.74 97.7039 198.56C97.7039 199.38 98.3439 200.02 99.1639 200.02ZM105.557 203.1V201.48H103.277V217.74H105.557V210.9C106.277 211.76 107.577 212.68 109.397 212.68C112.297 212.68 114.577 210.34 114.577 206.94C114.577 203.54 112.297 201.3 109.397 201.3C107.597 201.3 106.257 202.18 105.557 203.1ZM112.257 206.94C112.257 209.32 110.617 210.7 108.897 210.7C107.197 210.7 105.557 209.36 105.557 206.98C105.557 204.62 107.197 203.28 108.897 203.28C110.617 203.28 112.257 204.56 112.257 206.94ZM117.192 209.44C117.192 211.68 118.412 212.5 120.372 212.5H122.172V210.6H120.772C119.812 210.6 119.492 210.26 119.492 209.44V203.34H122.172V201.48H119.492V198.74H117.192V201.48H115.892V203.34H117.192V209.44ZM124.273 212.5H126.553V201.48H124.273V212.5ZM125.433 200.02C126.233 200.02 126.873 199.38 126.873 198.56C126.873 197.74 126.233 197.1 125.433 197.1C124.613 197.1 123.973 197.74 123.973 198.56C123.973 199.38 124.613 200.02 125.433 200.02ZM128.247 201.48L132.427 212.5H135.147L139.347 201.48H136.927L133.807 210.46L130.687 201.48H128.247ZM145.71 203.22C147.41 203.22 148.75 204.3 148.79 206H142.69C142.93 204.26 144.17 203.22 145.71 203.22ZM150.87 209.22H148.41C147.99 210.08 147.21 210.76 145.81 210.76C144.13 210.76 142.83 209.66 142.67 207.84H151.09C151.15 207.46 151.17 207.1 151.17 206.72C151.17 203.48 148.95 201.3 145.81 201.3C142.55 201.3 140.31 203.52 140.31 206.98C140.31 210.44 142.65 212.68 145.81 212.68C148.51 212.68 150.25 211.14 150.87 209.22ZM167.989 208.56C167.989 203.48 160.629 205.44 160.629 202.3C160.629 200.96 161.649 200.32 162.969 200.36C164.409 200.4 165.229 201.26 165.309 202.2H167.829C167.629 199.82 165.749 198.42 163.089 198.42C160.249 198.42 158.309 199.94 158.309 202.38C158.309 207.5 165.689 205.32 165.689 208.68C165.689 209.86 164.789 210.72 163.189 210.72C161.609 210.72 160.809 209.8 160.709 208.66H158.269C158.269 211.12 160.409 212.64 163.189 212.64C166.289 212.64 167.989 210.64 167.989 208.56ZM171.04 209.44C171.04 211.68 172.26 212.5 174.22 212.5H176.02V210.6H174.62C173.66 210.6 173.34 210.26 173.34 209.44V203.34H176.02V201.48H173.34V198.74H171.04V201.48H169.74V203.34H171.04V209.44ZM177.361 206.94C177.361 210.34 179.661 212.68 182.521 212.68C184.361 212.68 185.681 211.8 186.381 210.86V212.5H188.681V201.48H186.381V203.08C185.701 202.18 184.421 201.3 182.561 201.3C179.661 201.3 177.361 203.54 177.361 206.94ZM186.381 206.98C186.381 209.36 184.761 210.7 183.041 210.7C181.341 210.7 179.701 209.32 179.701 206.94C179.701 204.56 181.341 203.28 183.041 203.28C184.761 203.28 186.381 204.62 186.381 206.98ZM192.036 209.44C192.036 211.68 193.256 212.5 195.216 212.5H197.016V210.6H195.616C194.656 210.6 194.336 210.26 194.336 209.44V203.34H197.016V201.48H194.336V198.74H192.036V201.48H190.736V203.34H192.036V209.44ZM199.117 212.5H201.397V201.48H199.117V212.5ZM200.277 200.02C201.077 200.02 201.717 199.38 201.717 198.56C201.717 197.74 201.077 197.1 200.277 197.1C199.457 197.1 198.817 197.74 198.817 198.56C198.817 199.38 199.457 200.02 200.277 200.02ZM212.611 209.42C212.491 205.44 206.271 206.68 206.271 204.46C206.271 203.72 206.911 203.22 208.131 203.22C209.371 203.22 210.111 203.88 210.191 204.84H212.471C212.351 202.64 210.711 201.3 208.211 201.3C205.611 201.3 203.971 202.72 203.971 204.48C203.971 208.52 210.371 207.28 210.371 209.44C210.371 210.2 209.671 210.76 208.351 210.76C207.091 210.76 206.231 210.02 206.151 209.12H203.791C203.891 211.12 205.751 212.68 208.391 212.68C210.991 212.68 212.611 211.28 212.611 209.42ZM215.434 209.44C215.434 211.68 216.654 212.5 218.614 212.5H220.414V210.6H219.014C218.054 210.6 217.734 210.26 217.734 209.44V203.34H220.414V201.48H217.734V198.74H215.434V201.48H214.134V203.34H215.434V209.44ZM222.516 212.5H224.796V201.48H222.516V212.5ZM223.676 200.02C224.476 200.02 225.116 199.38 225.116 198.56C225.116 197.74 224.476 197.1 223.676 197.1C222.856 197.1 222.216 197.74 222.216 198.56C222.216 199.38 222.856 200.02 223.676 200.02ZM227.029 206.98C227.029 210.44 229.269 212.68 232.429 212.68C235.129 212.68 236.889 211.18 237.509 209.02H235.049C234.629 210.16 233.789 210.76 232.429 210.76C230.589 210.76 229.369 209.4 229.369 206.98C229.369 204.58 230.589 203.22 232.429 203.22C233.789 203.22 234.669 203.9 235.049 204.96H237.509C236.889 202.64 235.129 201.3 232.429 201.3C229.269 201.3 227.029 203.54 227.029 206.98ZM248.001 209.42C247.881 205.44 241.661 206.68 241.661 204.46C241.661 203.72 242.301 203.22 243.521 203.22C244.761 203.22 245.501 203.88 245.581 204.84H247.861C247.741 202.64 246.101 201.3 243.601 201.3C241.001 201.3 239.361 202.72 239.361 204.48C239.361 208.52 245.761 207.28 245.761 209.44C245.761 210.2 245.061 210.76 243.741 210.76C242.481 210.76 241.621 210.02 241.541 209.12H239.181C239.281 211.12 241.141 212.68 243.781 212.68C246.381 212.68 248.001 211.28 248.001 209.42Z" fill="#212832"/>
<rect x="0.5" y="180.5" width="616" height="49" stroke="black" stroke-opacity="0.5"/>
<rect y="408" width="617" height="50" fill="white"/>
<path d="M24.6 436.44C26.08 436.44 27.24 435.3 27.24 433.84C27.24 432.36 26.08 431.22 24.6 431.22C23.16 431.22 22 432.36 22 433.84C22 435.3 23.16 436.44 24.6 436.44ZM50.5089 436.56C50.5089 431.48 43.1489 433.44 43.1489 430.3C43.1489 428.96 44.1689 428.32 45.4889 428.36C46.9289 428.4 47.7489 429.26 47.8289 430.2H50.3489C50.1489 427.82 48.2689 426.42 45.6089 426.42C42.7689 426.42 40.8289 427.94 40.8289 430.38C40.8289 435.5 48.2089 433.32 48.2089 436.68C48.2089 437.86 47.3089 438.72 45.7089 438.72C44.1289 438.72 43.3289 437.8 43.2289 436.66H40.7889C40.7889 439.12 42.9289 440.64 45.7089 440.64C48.8089 440.64 50.5089 438.64 50.5089 436.56ZM52.4392 434.98C52.4392 438.44 54.6792 440.68 57.8392 440.68C60.5392 440.68 62.2992 439.18 62.9192 437.02H60.4592C60.0392 438.16 59.1992 438.76 57.8392 438.76C55.9992 438.76 54.7792 437.4 54.7792 434.98C54.7792 432.58 55.9992 431.22 57.8392 431.22C59.1992 431.22 60.0792 431.9 60.4592 432.96H62.9192C62.2992 430.64 60.5392 429.3 57.8392 429.3C54.6792 429.3 52.4392 431.54 52.4392 434.98ZM67.4714 434.7C67.4714 432.36 68.5114 431.66 70.1914 431.66H70.7714V429.3C69.2114 429.3 68.1114 429.98 67.4714 431.08V429.48H65.1914V440.5H67.4714V434.7ZM72.8672 440.5H75.1472V429.48H72.8672V440.5ZM74.0272 428.02C74.8272 428.02 75.4672 427.38 75.4672 426.56C75.4672 425.74 74.8272 425.1 74.0272 425.1C73.2072 425.1 72.5672 425.74 72.5672 426.56C72.5672 427.38 73.2072 428.02 74.0272 428.02ZM80.4206 431.1V429.48H78.1406V445.74H80.4206V438.9C81.1406 439.76 82.4406 440.68 84.2606 440.68C87.1606 440.68 89.4406 438.34 89.4406 434.94C89.4406 431.54 87.1606 429.3 84.2606 429.3C82.4606 429.3 81.1206 430.18 80.4206 431.1ZM87.1206 434.94C87.1206 437.32 85.4806 438.7 83.7606 438.7C82.0606 438.7 80.4206 437.36 80.4206 434.98C80.4206 432.62 82.0606 431.28 83.7606 431.28C85.4806 431.28 87.1206 432.56 87.1206 434.94ZM92.0553 437.44C92.0553 439.68 93.2753 440.5 95.2353 440.5H97.0353V438.6H95.6353C94.6753 438.6 94.3553 438.26 94.3553 437.44V431.34H97.0353V429.48H94.3553V426.74H92.0553V429.48H90.7553V431.34H92.0553V437.44ZM99.1367 440.5H101.417V429.48H99.1367V440.5ZM100.297 428.02C101.097 428.02 101.737 427.38 101.737 426.56C101.737 425.74 101.097 425.1 100.297 425.1C99.4767 425.1 98.8367 425.74 98.8367 426.56C98.8367 427.38 99.4767 428.02 100.297 428.02ZM112.23 440.5H114.49V434C114.49 430.92 112.55 429.3 109.97 429.3C108.65 429.3 107.43 429.84 106.69 430.74V429.48H104.41V440.5H106.69V434.34C106.69 432.32 107.79 431.28 109.47 431.28C111.13 431.28 112.23 432.32 112.23 434.34V440.5ZM116.638 434.94C116.638 438.34 118.938 440.68 121.838 440.68C123.638 440.68 124.958 439.78 125.658 438.84V440.68C125.658 442.88 124.338 443.96 122.578 443.96C120.998 443.96 119.778 443.18 119.438 442.04H117.178C117.458 444.48 119.638 445.94 122.578 445.94C126.018 445.94 127.958 443.68 127.958 440.68V429.48H125.658V431.08C124.978 430.14 123.638 429.3 121.838 429.3C118.938 429.3 116.638 431.54 116.638 434.94ZM125.658 434.98C125.658 437.36 124.038 438.7 122.318 438.7C120.618 438.7 118.978 437.32 118.978 434.94C118.978 432.56 120.618 431.28 122.318 431.28C124.038 431.28 125.658 432.62 125.658 434.98ZM135.428 428.46H139.148V440.5H141.428V428.46H145.128V426.6H135.428V428.46ZM152.078 431.22C153.778 431.22 155.118 432.3 155.158 434H149.058C149.298 432.26 150.538 431.22 152.078 431.22ZM157.237 437.22H154.778C154.358 438.08 153.578 438.76 152.178 438.76C150.498 438.76 149.198 437.66 149.038 435.84H157.458C157.518 435.46 157.538 435.1 157.538 434.72C157.538 431.48 155.318 429.3 152.178 429.3C148.918 429.3 146.678 431.52 146.678 434.98C146.678 438.44 149.018 440.68 152.178 440.68C154.878 440.68 156.618 439.14 157.237 437.22ZM159.021 434.98C159.021 438.44 161.261 440.68 164.421 440.68C167.121 440.68 168.881 439.18 169.501 437.02H167.041C166.621 438.16 165.781 438.76 164.421 438.76C162.581 438.76 161.361 437.4 161.361 434.98C161.361 432.58 162.581 431.22 164.421 431.22C165.781 431.22 166.661 431.9 167.041 432.96H169.501C168.881 430.64 167.121 429.3 164.421 429.3C161.261 429.3 159.021 431.54 159.021 434.98ZM171.773 440.5H174.053V434.34C174.053 432.32 175.153 431.28 176.833 431.28C178.493 431.28 179.593 432.32 179.593 434.34V440.5H181.853V434C181.853 430.92 179.933 429.3 177.473 429.3C176.053 429.3 174.813 429.84 174.053 430.76V425.7H171.773V440.5ZM192.582 440.5H194.842V434C194.842 430.92 192.902 429.3 190.322 429.3C189.002 429.3 187.782 429.84 187.042 430.74V429.48H184.762V440.5H187.042V434.34C187.042 432.32 188.142 431.28 189.822 431.28C191.482 431.28 192.582 432.32 192.582 434.34V440.5ZM208.25 434.98C208.25 431.52 205.77 429.3 202.63 429.3C199.49 429.3 197.01 431.52 197.01 434.98C197.01 438.44 199.39 440.68 202.53 440.68C205.69 440.68 208.25 438.44 208.25 434.98ZM199.33 434.98C199.33 432.48 200.87 431.28 202.59 431.28C204.29 431.28 205.91 432.48 205.91 434.98C205.91 437.48 204.23 438.7 202.53 438.7C200.81 438.7 199.33 437.48 199.33 434.98ZM210.504 440.5H212.784V425.7H210.504V440.5ZM226.277 434.98C226.277 431.52 223.797 429.3 220.657 429.3C217.517 429.3 215.037 431.52 215.037 434.98C215.037 438.44 217.417 440.68 220.557 440.68C223.717 440.68 226.277 438.44 226.277 434.98ZM217.357 434.98C217.357 432.48 218.897 431.28 220.617 431.28C222.317 431.28 223.937 432.48 223.937 434.98C223.937 437.48 222.257 438.7 220.557 438.7C218.837 438.7 217.357 437.48 217.357 434.98ZM227.771 434.94C227.771 438.34 230.071 440.68 232.971 440.68C234.771 440.68 236.091 439.78 236.791 438.84V440.68C236.791 442.88 235.471 443.96 233.711 443.96C232.131 443.96 230.911 443.18 230.571 442.04H228.311C228.591 444.48 230.771 445.94 233.711 445.94C237.151 445.94 239.091 443.68 239.091 440.68V429.48H236.791V431.08C236.111 430.14 234.771 429.3 232.971 429.3C230.071 429.3 227.771 431.54 227.771 434.94ZM236.791 434.98C236.791 437.36 235.171 438.7 233.451 438.7C231.751 438.7 230.111 437.32 230.111 434.94C230.111 432.56 231.751 431.28 233.451 431.28C235.171 431.28 236.791 432.62 236.791 434.98ZM242.086 440.5H244.366V429.48H242.086V440.5ZM243.246 428.02C244.046 428.02 244.686 427.38 244.686 426.56C244.686 425.74 244.046 425.1 243.246 425.1C242.426 425.1 241.786 425.74 241.786 426.56C241.786 427.38 242.426 428.02 243.246 428.02ZM251.999 431.22C253.699 431.22 255.039 432.3 255.079 434H248.979C249.219 432.26 250.459 431.22 251.999 431.22ZM257.159 437.22H254.699C254.279 438.08 253.499 438.76 252.099 438.76C250.419 438.76 249.119 437.66 248.959 435.84H257.379C257.439 435.46 257.459 435.1 257.459 434.72C257.459 431.48 255.239 429.3 252.099 429.3C248.839 429.3 246.599 431.52 246.599 434.98C246.599 438.44 248.939 440.68 252.099 440.68C254.799 440.68 256.539 439.14 257.159 437.22ZM267.923 437.42C267.803 433.44 261.583 434.68 261.583 432.46C261.583 431.72 262.223 431.22 263.443 431.22C264.683 431.22 265.423 431.88 265.503 432.84H267.783C267.663 430.64 266.023 429.3 263.523 429.3C260.923 429.3 259.283 430.72 259.283 432.48C259.283 436.52 265.683 435.28 265.683 437.44C265.683 438.2 264.983 438.76 263.663 438.76C262.403 438.76 261.543 438.02 261.463 437.12H259.103C259.203 439.12 261.063 440.68 263.703 440.68C266.303 440.68 267.923 439.28 267.923 437.42ZM275.582 426.6V440.5H282.562V438.66H277.862V426.6H275.582ZM283.709 434.94C283.709 438.34 286.009 440.68 288.869 440.68C290.709 440.68 292.029 439.8 292.729 438.86V440.5H295.029V429.48H292.729V431.08C292.049 430.18 290.769 429.3 288.909 429.3C286.009 429.3 283.709 431.54 283.709 434.94ZM292.729 434.98C292.729 437.36 291.109 438.7 289.389 438.7C287.689 438.7 286.049 437.32 286.049 434.94C286.049 432.56 287.689 431.28 289.389 431.28C291.109 431.28 292.729 432.62 292.729 434.98ZM300.303 431.12V425.7H298.023V440.5H300.303V438.9C301.023 439.86 302.323 440.68 304.143 440.68C307.043 440.68 309.323 438.34 309.323 434.94C309.323 431.54 307.063 429.3 304.143 429.3C302.403 429.3 301.023 430.12 300.303 431.12ZM307.003 434.94C307.003 437.32 305.363 438.7 303.643 438.7C301.943 438.7 300.303 437.36 300.303 434.98C300.303 432.62 301.943 431.28 303.643 431.28C305.363 431.28 307.003 432.56 307.003 434.94Z" fill="#212832"/>
<rect x="0.5" y="408.5" width="616" height="49" stroke="black" stroke-opacity="0.5"/>
<rect y="123" width="617" height="50" fill="white"/>
<path d="M24.6 151.44C26.08 151.44 27.24 150.3 27.24 148.84C27.24 147.36 26.08 146.22 24.6 146.22C23.16 146.22 22 147.36 22 148.84C22 150.3 23.16 151.44 24.6 151.44ZM48.8089 141.58H41.1289V155.5H48.8089V153.64H43.4089V149.38H48.2089V147.52H43.4089V143.44H48.8089V141.58ZM59.8372 152.42C59.7172 148.44 53.4972 149.68 53.4972 147.46C53.4972 146.72 54.1372 146.22 55.3572 146.22C56.5972 146.22 57.3372 146.88 57.4172 147.84H59.6972C59.5772 145.64 57.9372 144.3 55.4372 144.3C52.8372 144.3 51.1972 145.72 51.1972 147.48C51.1972 151.52 57.5972 150.28 57.5972 152.44C57.5972 153.2 56.8972 153.76 55.5772 153.76C54.3172 153.76 53.4572 153.02 53.3772 152.12H51.0172C51.1172 154.12 52.9772 155.68 55.6172 155.68C58.2172 155.68 59.8372 154.28 59.8372 152.42ZM70.5208 152.42C70.4008 148.44 64.1808 149.68 64.1808 147.46C64.1808 146.72 64.8208 146.22 66.0408 146.22C67.2808 146.22 68.0208 146.88 68.1008 147.84H70.3808C70.2608 145.64 68.6208 144.3 66.1208 144.3C63.5208 144.3 61.8808 145.72 61.8808 147.48C61.8808 151.52 68.2808 150.28 68.2808 152.44C68.2808 153.2 67.5808 153.76 66.2608 153.76C65.0008 153.76 64.1408 153.02 64.0608 152.12H61.7008C61.8008 154.12 63.6608 155.68 66.3008 155.68C68.9008 155.68 70.5208 154.28 70.5208 152.42ZM77.6244 146.22C79.3244 146.22 80.6644 147.3 80.7044 149H74.6044C74.8444 147.26 76.0844 146.22 77.6244 146.22ZM82.7844 152.22H80.3244C79.9044 153.08 79.1244 153.76 77.7244 153.76C76.0444 153.76 74.7444 152.66 74.5844 150.84H83.0044C83.0644 150.46 83.0844 150.1 83.0844 149.72C83.0844 146.48 80.8644 144.3 77.7244 144.3C74.4644 144.3 72.2244 146.52 72.2244 149.98C72.2244 153.44 74.5644 155.68 77.7244 155.68C80.4244 155.68 82.1644 154.14 82.7844 152.22ZM93.1481 155.5H95.4081V149C95.4081 145.92 93.4681 144.3 90.8881 144.3C89.5681 144.3 88.3481 144.84 87.6081 145.74V144.48H85.3281V155.5H87.6081V149.34C87.6081 147.32 88.7081 146.28 90.3881 146.28C92.0481 146.28 93.1481 147.32 93.1481 149.34V155.5ZM98.6764 152.44C98.6764 154.68 99.8964 155.5 101.856 155.5H103.656V153.6H102.256C101.296 153.6 100.976 153.26 100.976 152.44V146.34H103.656V144.48H100.976V141.74H98.6764V144.48H97.3764V146.34H98.6764V152.44ZM105.758 155.5H108.038V144.48H105.758V155.5ZM106.918 143.02C107.718 143.02 108.358 142.38 108.358 141.56C108.358 140.74 107.718 140.1 106.918 140.1C106.098 140.1 105.458 140.74 105.458 141.56C105.458 142.38 106.098 143.02 106.918 143.02ZM110.271 149.94C110.271 153.34 112.571 155.68 115.431 155.68C117.271 155.68 118.591 154.8 119.291 153.86V155.5H121.591V144.48H119.291V146.08C118.611 145.18 117.331 144.3 115.471 144.3C112.571 144.3 110.271 146.54 110.271 149.94ZM119.291 149.98C119.291 152.36 117.671 153.7 115.951 153.7C114.251 153.7 112.611 152.32 112.611 149.94C112.611 147.56 114.251 146.28 115.951 146.28C117.671 146.28 119.291 147.62 119.291 149.98ZM124.586 155.5H126.866V140.7H124.586V155.5ZM145.555 149.98C145.555 146.52 143.075 144.3 139.935 144.3C136.795 144.3 134.315 146.52 134.315 149.98C134.315 153.44 136.695 155.68 139.835 155.68C142.995 155.68 145.555 153.44 145.555 149.98ZM136.635 149.98C136.635 147.48 138.175 146.28 139.895 146.28C141.595 146.28 143.215 147.48 143.215 149.98C143.215 152.48 141.535 153.7 139.835 153.7C138.115 153.7 136.635 152.48 136.635 149.98ZM148.089 155.5H150.389V146.34H152.429V144.48H150.389V143.7C150.389 142.44 150.869 141.96 152.269 141.96V140.06C149.389 140.06 148.089 141.16 148.089 143.7V144.48H146.789V146.34H148.089V155.5ZM164.185 141.6H159.645V155.5H164.185C168.645 155.5 171.565 152.88 171.565 148.6C171.565 144.3 168.645 141.6 164.185 141.6ZM161.925 153.64V143.46H164.185C167.465 143.46 169.225 145.42 169.225 148.6C169.225 151.76 167.465 153.64 164.185 153.64H161.925ZM173.064 149.94C173.064 153.34 175.364 155.68 178.224 155.68C180.064 155.68 181.384 154.8 182.084 153.86V155.5H184.384V144.48H182.084V146.08C181.404 145.18 180.124 144.3 178.264 144.3C175.364 144.3 173.064 146.54 173.064 149.94ZM182.084 149.98C182.084 152.36 180.464 153.7 178.744 153.7C177.044 153.7 175.404 152.32 175.404 149.94C175.404 147.56 177.044 146.28 178.744 146.28C180.464 146.28 182.084 147.62 182.084 149.98ZM187.739 152.44C187.739 154.68 188.959 155.5 190.919 155.5H192.719V153.6H191.319C190.359 153.6 190.039 153.26 190.039 152.44V146.34H192.719V144.48H190.039V141.74H187.739V144.48H186.439V146.34H187.739V152.44ZM194.06 149.94C194.06 153.34 196.36 155.68 199.22 155.68C201.06 155.68 202.38 154.8 203.08 153.86V155.5H205.38V144.48H203.08V146.08C202.4 145.18 201.12 144.3 199.26 144.3C196.36 144.3 194.06 146.54 194.06 149.94ZM203.08 149.98C203.08 152.36 201.46 153.7 199.74 153.7C198.04 153.7 196.4 152.32 196.4 149.94C196.4 147.56 198.04 146.28 199.74 146.28C201.46 146.28 203.08 147.62 203.08 149.98ZM212.81 148.52C212.81 152.7 215.99 155.62 219.91 155.62C222.81 155.62 225.31 154.18 226.37 151.46H223.63C222.89 152.94 221.57 153.64 219.91 153.64C217.15 153.64 215.15 151.66 215.15 148.52C215.15 145.38 217.15 143.42 219.91 143.42C221.57 143.42 222.89 144.12 223.63 145.6H226.37C225.31 142.88 222.81 141.42 219.91 141.42C215.99 141.42 212.81 144.36 212.81 148.52ZM239.539 149.98C239.539 146.52 237.059 144.3 233.919 144.3C230.779 144.3 228.299 146.52 228.299 149.98C228.299 153.44 230.679 155.68 233.819 155.68C236.979 155.68 239.539 153.44 239.539 149.98ZM230.619 149.98C230.619 147.48 232.159 146.28 233.879 146.28C235.579 146.28 237.199 147.48 237.199 149.98C237.199 152.48 235.519 153.7 233.819 153.7C232.099 153.7 230.619 152.48 230.619 149.98ZM241.793 155.5H244.073V140.7H241.793V155.5ZM247.066 155.5H249.346V140.7H247.066V155.5ZM256.98 146.22C258.68 146.22 260.02 147.3 260.06 149H253.96C254.2 147.26 255.44 146.22 256.98 146.22ZM262.14 152.22H259.68C259.26 153.08 258.48 153.76 257.08 153.76C255.4 153.76 254.1 152.66 253.94 150.84H262.36C262.42 150.46 262.44 150.1 262.44 149.72C262.44 146.48 260.22 144.3 257.08 144.3C253.82 144.3 251.58 146.52 251.58 149.98C251.58 153.44 253.92 155.68 257.08 155.68C259.78 155.68 261.52 154.14 262.14 152.22ZM263.924 149.98C263.924 153.44 266.164 155.68 269.324 155.68C272.024 155.68 273.784 154.18 274.404 152.02H271.944C271.524 153.16 270.684 153.76 269.324 153.76C267.484 153.76 266.264 152.4 266.264 149.98C266.264 147.58 267.484 146.22 269.324 146.22C270.684 146.22 271.564 146.9 271.944 147.96H274.404C273.784 145.64 272.024 144.3 269.324 144.3C266.164 144.3 263.924 146.54 263.924 149.98ZM277.036 152.44C277.036 154.68 278.256 155.5 280.216 155.5H282.016V153.6H280.616C279.656 153.6 279.336 153.26 279.336 152.44V146.34H282.016V144.48H279.336V141.74H277.036V144.48H275.736V146.34H277.036V152.44ZM284.117 155.5H286.397V144.48H284.117V155.5ZM285.277 143.02C286.077 143.02 286.717 142.38 286.717 141.56C286.717 140.74 286.077 140.1 285.277 140.1C284.457 140.1 283.817 140.74 283.817 141.56C283.817 142.38 284.457 143.02 285.277 143.02ZM299.891 149.98C299.891 146.52 297.411 144.3 294.271 144.3C291.131 144.3 288.651 146.52 288.651 149.98C288.651 153.44 291.031 155.68 294.171 155.68C297.331 155.68 299.891 153.44 299.891 149.98ZM290.971 149.98C290.971 147.48 292.511 146.28 294.231 146.28C295.931 146.28 297.551 147.48 297.551 149.98C297.551 152.48 295.871 153.7 294.171 153.7C292.451 153.7 290.971 152.48 290.971 149.98ZM309.965 155.5H312.225V149C312.225 145.92 310.285 144.3 307.705 144.3C306.385 144.3 305.165 144.84 304.425 145.74V144.48H302.145V155.5H304.425V149.34C304.425 147.32 305.525 146.28 307.205 146.28C308.865 146.28 309.965 147.32 309.965 149.34V155.5ZM328.008 141.58H320.328V155.5H328.008V153.64H322.608V149.38H327.408V147.52H322.608V143.44H328.008V141.58ZM331.176 152.44C331.176 154.68 332.396 155.5 334.356 155.5H336.156V153.6H334.756C333.796 153.6 333.476 153.26 333.476 152.44V146.34H336.156V144.48H333.476V141.74H331.176V144.48H329.876V146.34H331.176V152.44ZM338.258 155.5H340.538V149.34C340.538 147.32 341.638 146.28 343.318 146.28C344.978 146.28 346.078 147.32 346.078 149.34V155.5H348.338V149C348.338 145.92 346.418 144.3 343.958 144.3C342.538 144.3 341.298 144.84 340.538 145.76V140.7H338.258V155.5ZM351.246 155.5H353.526V144.48H351.246V155.5ZM352.406 143.02C353.206 143.02 353.846 142.38 353.846 141.56C353.846 140.74 353.206 140.1 352.406 140.1C351.586 140.1 350.946 140.74 350.946 141.56C350.946 142.38 351.586 143.02 352.406 143.02ZM355.76 149.98C355.76 153.44 358 155.68 361.16 155.68C363.86 155.68 365.62 154.18 366.24 152.02H363.78C363.36 153.16 362.52 153.76 361.16 153.76C359.32 153.76 358.1 152.4 358.1 149.98C358.1 147.58 359.32 146.22 361.16 146.22C362.52 146.22 363.4 146.9 363.78 147.96H366.24C365.62 145.64 363.86 144.3 361.16 144.3C358 144.3 355.76 146.54 355.76 149.98ZM376.732 152.42C376.612 148.44 370.392 149.68 370.392 147.46C370.392 146.72 371.032 146.22 372.252 146.22C373.492 146.22 374.232 146.88 374.312 147.84H376.592C376.472 145.64 374.832 144.3 372.332 144.3C369.732 144.3 368.092 145.72 368.092 147.48C368.092 151.52 374.492 150.28 374.492 152.44C374.492 153.2 373.792 153.76 372.472 153.76C371.212 153.76 370.352 153.02 370.272 152.12H367.912C368.012 154.12 369.872 155.68 372.512 155.68C375.112 155.68 376.732 154.28 376.732 152.42Z" fill="#212832"/>
<rect x="0.5" y="123.5" width="616" height="49" stroke="black" stroke-opacity="0.5"/>
<rect y="351" width="617" height="50" fill="white"/>
<path d="M24.6 379.44C26.08 379.44 27.24 378.3 27.24 376.84C27.24 375.36 26.08 374.22 24.6 374.22C23.16 374.22 22 375.36 22 376.84C22 378.3 23.16 379.44 24.6 379.44ZM50.5089 379.56C50.5089 374.48 43.1489 376.44 43.1489 373.3C43.1489 371.96 44.1689 371.32 45.4889 371.36C46.9289 371.4 47.7489 372.26 47.8289 373.2H50.3489C50.1489 370.82 48.2689 369.42 45.6089 369.42C42.7689 369.42 40.8289 370.94 40.8289 373.38C40.8289 378.5 48.2089 376.32 48.2089 379.68C48.2089 380.86 47.3089 381.72 45.7089 381.72C44.1289 381.72 43.3289 380.8 43.2289 379.66H40.7889C40.7889 382.12 42.9289 383.64 45.7089 383.64C48.8089 383.64 50.5089 381.64 50.5089 379.56ZM63.6992 377.98C63.6992 374.52 61.2192 372.3 58.0792 372.3C54.9392 372.3 52.4592 374.52 52.4592 377.98C52.4592 381.44 54.8392 383.68 57.9792 383.68C61.1392 383.68 63.6992 381.44 63.6992 377.98ZM54.7792 377.98C54.7792 375.48 56.3192 374.28 58.0392 374.28C59.7392 374.28 61.3592 375.48 61.3592 377.98C61.3592 380.48 59.6792 381.7 57.9792 381.7C56.2592 381.7 54.7792 380.48 54.7792 377.98ZM66.2331 383.5H68.5331V374.34H70.5731V372.48H68.5331V371.7C68.5331 370.44 69.0131 369.96 70.4131 369.96V368.06C67.5331 368.06 66.2331 369.16 66.2331 371.7V372.48H64.9331V374.34H66.2331V383.5ZM72.9538 380.44C72.9538 382.68 74.1738 383.5 76.1338 383.5H77.9338V381.6H76.5338C75.5738 381.6 75.2538 381.26 75.2538 380.44V374.34H77.9338V372.48H75.2538V369.74H72.9538V372.48H71.6538V374.34H72.9538V380.44ZM82.1752 383.5H84.5752L86.7952 375.36L89.0152 383.5H91.4152L94.8352 372.48H92.5952L90.3152 381.3L88.0752 372.48H85.6952L83.3552 381.34L81.0552 372.48H78.7352L82.1752 383.5ZM95.7791 377.94C95.7791 381.34 98.0791 383.68 100.939 383.68C102.779 383.68 104.099 382.8 104.799 381.86V383.5H107.099V372.48H104.799V374.08C104.119 373.18 102.839 372.3 100.979 372.3C98.0791 372.3 95.7791 374.54 95.7791 377.94ZM104.799 377.98C104.799 380.36 103.179 381.7 101.459 381.7C99.7591 381.7 98.1191 380.32 98.1191 377.94C98.1191 375.56 99.7591 374.28 101.459 374.28C103.179 374.28 104.799 375.62 104.799 377.98ZM112.374 377.7C112.374 375.36 113.414 374.66 115.094 374.66H115.674V372.3C114.114 372.3 113.014 372.98 112.374 374.08V372.48H110.094V383.5H112.374V377.7ZM122.41 374.22C124.11 374.22 125.45 375.3 125.49 377H119.39C119.63 375.26 120.87 374.22 122.41 374.22ZM127.57 380.22H125.11C124.69 381.08 123.91 381.76 122.51 381.76C120.83 381.76 119.53 380.66 119.37 378.84H127.79C127.85 378.46 127.87 378.1 127.87 377.72C127.87 374.48 125.65 372.3 122.51 372.3C119.25 372.3 117.01 374.52 117.01 377.98C117.01 381.44 119.35 383.68 122.51 383.68C125.21 383.68 126.95 382.14 127.57 380.22ZM142.989 369.58H135.309V383.5H142.989V381.64H137.589V377.38H142.389V375.52H137.589V371.44H142.989V369.58ZM153.617 383.5H155.877V377C155.877 373.92 153.937 372.3 151.357 372.3C150.037 372.3 148.817 372.84 148.077 373.74V372.48H145.797V383.5H148.077V377.34C148.077 375.32 149.177 374.28 150.857 374.28C152.517 374.28 153.617 375.32 153.617 377.34V383.5ZM158.025 377.94C158.025 381.34 160.325 383.68 163.225 383.68C165.025 383.68 166.345 382.78 167.045 381.84V383.68C167.045 385.88 165.725 386.96 163.965 386.96C162.385 386.96 161.165 386.18 160.825 385.04H158.565C158.845 387.48 161.025 388.94 163.965 388.94C167.405 388.94 169.345 386.68 169.345 383.68V372.48H167.045V374.08C166.365 373.14 165.025 372.3 163.225 372.3C160.325 372.3 158.025 374.54 158.025 377.94ZM167.045 377.98C167.045 380.36 165.425 381.7 163.705 381.7C162.005 381.7 160.365 380.32 160.365 377.94C160.365 375.56 162.005 374.28 163.705 374.28C165.425 374.28 167.045 375.62 167.045 377.98ZM172.34 383.5H174.62V372.48H172.34V383.5ZM173.5 371.02C174.3 371.02 174.94 370.38 174.94 369.56C174.94 368.74 174.3 368.1 173.5 368.1C172.68 368.1 172.04 368.74 172.04 369.56C172.04 370.38 172.68 371.02 173.5 371.02ZM185.433 383.5H187.693V377C187.693 373.92 185.753 372.3 183.173 372.3C181.853 372.3 180.633 372.84 179.893 373.74V372.48H177.613V383.5H179.893V377.34C179.893 375.32 180.993 374.28 182.673 374.28C184.333 374.28 185.433 375.32 185.433 377.34V383.5ZM195.242 374.22C196.942 374.22 198.282 375.3 198.322 377H192.222C192.462 375.26 193.702 374.22 195.242 374.22ZM200.402 380.22H197.942C197.522 381.08 196.742 381.76 195.342 381.76C193.662 381.76 192.362 380.66 192.202 378.84H200.622C200.682 378.46 200.702 378.1 200.702 377.72C200.702 374.48 198.482 372.3 195.342 372.3C192.082 372.3 189.842 374.52 189.842 377.98C189.842 381.44 192.182 383.68 195.342 383.68C198.042 383.68 199.782 382.14 200.402 380.22ZM207.585 374.22C209.285 374.22 210.625 375.3 210.665 377H204.565C204.805 375.26 206.045 374.22 207.585 374.22ZM212.745 380.22H210.285C209.865 381.08 209.085 381.76 207.685 381.76C206.005 381.76 204.705 380.66 204.545 378.84H212.965C213.025 378.46 213.045 378.1 213.045 377.72C213.045 374.48 210.825 372.3 207.685 372.3C204.425 372.3 202.185 374.52 202.185 377.98C202.185 381.44 204.525 383.68 207.685 383.68C210.385 383.68 212.125 382.14 212.745 380.22ZM217.569 377.7C217.569 375.36 218.609 374.66 220.289 374.66H220.869V372.3C219.309 372.3 218.209 372.98 217.569 374.08V372.48H215.289V383.5H217.569V377.7ZM222.965 383.5H225.245V372.48H222.965V383.5ZM224.125 371.02C224.925 371.02 225.565 370.38 225.565 369.56C225.565 368.74 224.925 368.1 224.125 368.1C223.305 368.1 222.665 368.74 222.665 369.56C222.665 370.38 223.305 371.02 224.125 371.02ZM236.058 383.5H238.318V377C238.318 373.92 236.378 372.3 233.798 372.3C232.478 372.3 231.258 372.84 230.518 373.74V372.48H228.238V383.5H230.518V377.34C230.518 375.32 231.618 374.28 233.298 374.28C234.958 374.28 236.058 375.32 236.058 377.34V383.5ZM240.467 377.94C240.467 381.34 242.767 383.68 245.667 383.68C247.467 383.68 248.787 382.78 249.487 381.84V383.68C249.487 385.88 248.167 386.96 246.407 386.96C244.827 386.96 243.607 386.18 243.267 385.04H241.007C241.287 387.48 243.467 388.94 246.407 388.94C249.847 388.94 251.787 386.68 251.787 383.68V372.48H249.487V374.08C248.807 373.14 247.467 372.3 245.667 372.3C242.767 372.3 240.467 374.54 240.467 377.94ZM249.487 377.98C249.487 380.36 247.867 381.7 246.147 381.7C244.447 381.7 242.807 380.32 242.807 377.94C242.807 375.56 244.447 374.28 246.147 374.28C247.867 374.28 249.487 375.62 249.487 377.98Z" fill="#212832"/>
<rect x="0.5" y="351.5" width="616" height="49" stroke="black" stroke-opacity="0.5"/>
<rect y="237" width="617" height="50" fill="white"/>
<path d="M24.6 265.44C26.08 265.44 27.24 264.3 27.24 262.84C27.24 261.36 26.08 260.22 24.6 260.22C23.16 260.22 22 261.36 22 262.84C22 264.3 23.16 265.44 24.6 265.44ZM40.3689 262.52C40.3689 266.7 43.5489 269.62 47.4689 269.62C50.3689 269.62 52.8689 268.18 53.9289 265.46H51.1889C50.4489 266.94 49.1289 267.64 47.4689 267.64C44.7089 267.64 42.7089 265.66 42.7089 262.52C42.7089 259.38 44.7089 257.42 47.4689 257.42C49.1289 257.42 50.4489 258.12 51.1889 259.6H53.9289C52.8689 256.88 50.3689 255.42 47.4689 255.42C43.5489 255.42 40.3689 258.36 40.3689 262.52ZM67.0977 263.98C67.0977 260.52 64.6177 258.3 61.4777 258.3C58.3377 258.3 55.8577 260.52 55.8577 263.98C55.8577 267.44 58.2377 269.68 61.3777 269.68C64.5377 269.68 67.0977 267.44 67.0977 263.98ZM58.1777 263.98C58.1777 261.48 59.7177 260.28 61.4377 260.28C63.1377 260.28 64.7577 261.48 64.7577 263.98C64.7577 266.48 63.0777 267.7 61.3777 267.7C59.6577 267.7 58.1777 266.48 58.1777 263.98ZM84.9716 269.5H87.2316V263C87.2316 259.92 85.2716 258.3 82.6916 258.3C81.0916 258.3 79.5316 259.14 78.8516 260.48C78.0916 259.04 76.6316 258.3 74.8916 258.3C73.5716 258.3 72.3716 258.84 71.6316 259.74V258.48H69.3516V269.5H71.6316V263.34C71.6316 261.32 72.7316 260.28 74.4116 260.28C76.0716 260.28 77.1716 261.32 77.1716 263.34V269.5H79.4316V263.34C79.4316 261.32 80.5316 260.28 82.2116 260.28C83.8716 260.28 84.9716 261.32 84.9716 263.34V269.5ZM92.4128 260.1V258.48H90.1328V274.74H92.4128V267.9C93.1328 268.76 94.4328 269.68 96.2528 269.68C99.1528 269.68 101.433 267.34 101.433 263.94C101.433 260.54 99.1528 258.3 96.2528 258.3C94.4528 258.3 93.1128 259.18 92.4128 260.1ZM99.1128 263.94C99.1128 266.32 97.4728 267.7 95.7528 267.7C94.0528 267.7 92.4128 266.36 92.4128 263.98C92.4128 261.62 94.0528 260.28 95.7528 260.28C97.4728 260.28 99.1128 261.56 99.1128 263.94ZM113.668 258.48H111.388V264.62C111.388 266.64 110.288 267.68 108.608 267.68C106.948 267.68 105.848 266.64 105.848 264.62V258.48H103.588V264.96C103.588 268.04 105.548 269.66 108.128 269.66C109.428 269.66 110.668 269.12 111.388 268.18V269.5H113.668V258.48ZM117.036 266.44C117.036 268.68 118.256 269.5 120.216 269.5H122.016V267.6H120.616C119.656 267.6 119.336 267.26 119.336 266.44V260.34H122.016V258.48H119.336V255.74H117.036V258.48H115.736V260.34H117.036V266.44ZM128.757 260.22C130.457 260.22 131.797 261.3 131.837 263H125.737C125.977 261.26 127.217 260.22 128.757 260.22ZM133.917 266.22H131.457C131.037 267.08 130.257 267.76 128.857 267.76C127.177 267.76 125.877 266.66 125.717 264.84H134.137C134.197 264.46 134.217 264.1 134.217 263.72C134.217 260.48 131.997 258.3 128.857 258.3C125.597 258.3 123.357 260.52 123.357 263.98C123.357 267.44 125.697 269.68 128.857 269.68C131.557 269.68 133.297 268.14 133.917 266.22ZM138.741 263.7C138.741 261.36 139.781 260.66 141.461 260.66H142.041V258.3C140.481 258.3 139.381 258.98 138.741 260.08V258.48H136.461V269.5H138.741V263.7ZM158.472 255.58V265.94L151.612 255.58H149.332V269.5H151.612V259.12L158.472 269.5H160.752V255.58H158.472ZM168.386 260.22C170.086 260.22 171.426 261.3 171.466 263H165.366C165.606 261.26 166.846 260.22 168.386 260.22ZM173.546 266.22H171.086C170.666 267.08 169.886 267.76 168.486 267.76C166.806 267.76 165.506 266.66 165.346 264.84H173.766C173.826 264.46 173.846 264.1 173.846 263.72C173.846 260.48 171.626 258.3 168.486 258.3C165.226 258.3 162.986 260.52 162.986 263.98C162.986 267.44 165.326 269.68 168.486 269.68C171.186 269.68 172.926 268.14 173.546 266.22ZM176.45 266.44C176.45 268.68 177.67 269.5 179.63 269.5H181.43V267.6H180.03C179.07 267.6 178.75 267.26 178.75 266.44V260.34H181.43V258.48H178.75V255.74H176.45V258.48H175.15V260.34H176.45V266.44ZM185.671 269.5H188.071L190.291 261.36L192.511 269.5H194.911L198.331 258.48H196.091L193.811 267.3L191.571 258.48H189.191L186.851 267.34L184.551 258.48H182.231L185.671 269.5ZM210.535 263.98C210.535 260.52 208.055 258.3 204.915 258.3C201.775 258.3 199.295 260.52 199.295 263.98C199.295 267.44 201.675 269.68 204.815 269.68C207.975 269.68 210.535 267.44 210.535 263.98ZM201.615 263.98C201.615 261.48 203.155 260.28 204.875 260.28C206.575 260.28 208.195 261.48 208.195 263.98C208.195 266.48 206.515 267.7 204.815 267.7C203.095 267.7 201.615 266.48 201.615 263.98ZM215.069 263.7C215.069 261.36 216.109 260.66 217.789 260.66H218.369V258.3C216.809 258.3 215.709 258.98 215.069 260.08V258.48H212.789V269.5H215.069V263.7ZM220.465 269.5H222.745V264.76L226.825 269.5H229.905L224.825 264L229.905 258.48H226.745L222.745 263.3V254.7H220.465V269.5ZM239.759 266.42C239.639 262.44 233.419 263.68 233.419 261.46C233.419 260.72 234.059 260.22 235.279 260.22C236.519 260.22 237.259 260.88 237.339 261.84H239.619C239.499 259.64 237.859 258.3 235.359 258.3C232.759 258.3 231.119 259.72 231.119 261.48C231.119 265.52 237.519 264.28 237.519 266.44C237.519 267.2 236.819 267.76 235.499 267.76C234.239 267.76 233.379 267.02 233.299 266.12H230.939C231.039 268.12 232.899 269.68 235.539 269.68C238.139 269.68 239.759 268.28 239.759 266.42Z" fill="#212832"/>
<rect x="0.5" y="237.5" width="616" height="49" stroke="black" stroke-opacity="0.5"/>
<rect y="465" width="617" height="50" fill="white"/>
<path d="M24.6 493.44C26.08 493.44 27.24 492.3 27.24 490.84C27.24 489.36 26.08 488.22 24.6 488.22C23.16 488.22 22 489.36 22 490.84C22 492.3 23.16 493.44 24.6 493.44ZM43.4089 490V485.46H45.9289C47.7089 485.46 48.5089 486.3 48.5089 487.74C48.5089 489.14 47.7089 490 45.9289 490H43.4089ZM50.8489 487.74C50.8489 485.48 49.2289 483.6 45.9289 483.6H41.1289V497.5H43.4089V491.86H45.9289C49.5489 491.86 50.8489 489.72 50.8489 487.74ZM55.3034 491.7C55.3034 489.36 56.3434 488.66 58.0234 488.66H58.6034V486.3C57.0434 486.3 55.9434 486.98 55.3034 488.08V486.48H53.0234V497.5H55.3034V491.7ZM59.9392 491.94C59.9392 495.34 62.2392 497.68 65.0992 497.68C66.9392 497.68 68.2592 496.8 68.9592 495.86V497.5H71.2592V486.48H68.9592V488.08C68.2792 487.18 66.9992 486.3 65.1392 486.3C62.2392 486.3 59.9392 488.54 59.9392 491.94ZM68.9592 491.98C68.9592 494.36 67.3392 495.7 65.6192 495.7C63.9192 495.7 62.2792 494.32 62.2792 491.94C62.2792 489.56 63.9192 488.28 65.6192 488.28C67.3392 488.28 68.9592 489.62 68.9592 491.98ZM73.4939 491.98C73.4939 495.44 75.7339 497.68 78.8939 497.68C81.5939 497.68 83.3539 496.18 83.9739 494.02H81.5139C81.0939 495.16 80.2539 495.76 78.8939 495.76C77.0539 495.76 75.8339 494.4 75.8339 491.98C75.8339 489.58 77.0539 488.22 78.8939 488.22C80.2539 488.22 81.1339 488.9 81.5139 489.96H83.9739C83.3539 487.64 81.5939 486.3 78.8939 486.3C75.7339 486.3 73.4939 488.54 73.4939 491.98ZM86.6061 494.44C86.6061 496.68 87.8261 497.5 89.7861 497.5H91.5861V495.6H90.1861C89.2261 495.6 88.9061 495.26 88.9061 494.44V488.34H91.5861V486.48H88.9061V483.74H86.6061V486.48H85.3061V488.34H86.6061V494.44ZM93.6875 497.5H95.9675V486.48H93.6875V497.5ZM94.8475 485.02C95.6475 485.02 96.2875 484.38 96.2875 483.56C96.2875 482.74 95.6475 482.1 94.8475 482.1C94.0275 482.1 93.3875 482.74 93.3875 483.56C93.3875 484.38 94.0275 485.02 94.8475 485.02ZM98.2009 491.98C98.2009 495.44 100.441 497.68 103.601 497.68C106.301 497.68 108.061 496.18 108.681 494.02H106.221C105.801 495.16 104.961 495.76 103.601 495.76C101.761 495.76 100.541 494.4 100.541 491.98C100.541 489.58 101.761 488.22 103.601 488.22C104.961 488.22 105.841 488.9 106.221 489.96H108.681C108.061 487.64 106.301 486.3 103.601 486.3C100.441 486.3 98.2009 488.54 98.2009 491.98ZM110.193 491.94C110.193 495.34 112.493 497.68 115.353 497.68C117.193 497.68 118.513 496.8 119.213 495.86V497.5H121.513V486.48H119.213V488.08C118.533 487.18 117.253 486.3 115.393 486.3C112.493 486.3 110.193 488.54 110.193 491.94ZM119.213 491.98C119.213 494.36 117.593 495.7 115.873 495.7C114.173 495.7 112.533 494.32 112.533 491.94C112.533 489.56 114.173 488.28 115.873 488.28C117.593 488.28 119.213 489.62 119.213 491.98ZM124.508 497.5H126.788V482.7H124.508V497.5ZM142.657 483.58H134.977V497.5H142.657V495.64H137.257V491.38H142.057V489.52H137.257V485.44H142.657V483.58ZM151.165 497.5H153.745L150.185 491.92L153.745 486.48H151.365L149.125 490.22L146.745 486.48H144.165L147.725 492.08L144.165 497.5H146.545L148.785 493.76L151.165 497.5ZM157.725 488.1V486.48H155.445V502.74H157.725V495.9C158.445 496.76 159.745 497.68 161.565 497.68C164.465 497.68 166.745 495.34 166.745 491.94C166.745 488.54 164.465 486.3 161.565 486.3C159.765 486.3 158.425 487.18 157.725 488.1ZM164.425 491.94C164.425 494.32 162.785 495.7 161.065 495.7C159.365 495.7 157.725 494.36 157.725 491.98C157.725 489.62 159.365 488.28 161.065 488.28C162.785 488.28 164.425 489.56 164.425 491.94ZM179.5 491.98C179.5 488.52 177.02 486.3 173.88 486.3C170.74 486.3 168.26 488.52 168.26 491.98C168.26 495.44 170.64 497.68 173.78 497.68C176.94 497.68 179.5 495.44 179.5 491.98ZM170.58 491.98C170.58 489.48 172.12 488.28 173.84 488.28C175.54 488.28 177.16 489.48 177.16 491.98C177.16 494.48 175.48 495.7 173.78 495.7C172.06 495.7 170.58 494.48 170.58 491.98ZM189.974 494.42C189.854 490.44 183.634 491.68 183.634 489.46C183.634 488.72 184.274 488.22 185.494 488.22C186.734 488.22 187.474 488.88 187.554 489.84H189.834C189.714 487.64 188.074 486.3 185.574 486.3C182.974 486.3 181.334 487.72 181.334 489.48C181.334 493.52 187.734 492.28 187.734 494.44C187.734 495.2 187.034 495.76 185.714 495.76C184.454 495.76 183.594 495.02 183.514 494.12H181.154C181.254 496.12 183.114 497.68 185.754 497.68C188.354 497.68 189.974 496.28 189.974 494.42ZM202.418 486.48H200.138V492.62C200.138 494.64 199.038 495.68 197.358 495.68C195.698 495.68 194.598 494.64 194.598 492.62V486.48H192.338V492.96C192.338 496.04 194.298 497.66 196.878 497.66C198.178 497.66 199.418 497.12 200.138 496.18V497.5H202.418V486.48ZM207.706 491.7C207.706 489.36 208.746 488.66 210.426 488.66H211.006V486.3C209.446 486.3 208.346 486.98 207.706 488.08V486.48H205.426V497.5H207.706V491.7ZM217.742 488.22C219.442 488.22 220.782 489.3 220.822 491H214.722C214.962 489.26 216.202 488.22 217.742 488.22ZM222.902 494.22H220.442C220.022 495.08 219.242 495.76 217.842 495.76C216.162 495.76 214.862 494.66 214.702 492.84H223.122C223.182 492.46 223.202 492.1 223.202 491.72C223.202 488.48 220.982 486.3 217.842 486.3C214.582 486.3 212.342 488.52 212.342 491.98C212.342 495.44 214.682 497.68 217.842 497.68C220.542 497.68 222.282 496.14 222.902 494.22ZM231.001 494.44C231.001 496.68 232.221 497.5 234.181 497.5H235.981V495.6H234.581C233.621 495.6 233.301 495.26 233.301 494.44V488.34H235.981V486.48H233.301V483.74H231.001V486.48H229.701V488.34H231.001V494.44ZM248.582 491.98C248.582 488.52 246.102 486.3 242.962 486.3C239.822 486.3 237.342 488.52 237.342 491.98C237.342 495.44 239.722 497.68 242.862 497.68C246.022 497.68 248.582 495.44 248.582 491.98ZM239.662 491.98C239.662 489.48 241.202 488.28 242.922 488.28C244.622 488.28 246.242 489.48 246.242 491.98C246.242 494.48 244.562 495.7 242.862 495.7C241.142 495.7 239.662 494.48 239.662 491.98ZM260.571 483.6H256.031V497.5H260.571C265.031 497.5 267.951 494.88 267.951 490.6C267.951 486.3 265.031 483.6 260.571 483.6ZM258.311 495.64V485.46H260.571C263.851 485.46 265.611 487.42 265.611 490.6C265.611 493.76 263.851 495.64 260.571 495.64H258.311ZM269.451 491.94C269.451 495.34 271.751 497.68 274.611 497.68C276.451 497.68 277.771 496.8 278.471 495.86V497.5H280.771V486.48H278.471V488.08C277.791 487.18 276.511 486.3 274.651 486.3C271.751 486.3 269.451 488.54 269.451 491.94ZM278.471 491.98C278.471 494.36 276.851 495.7 275.131 495.7C273.431 495.7 271.791 494.32 271.791 491.94C271.791 489.56 273.431 488.28 275.131 488.28C276.851 488.28 278.471 489.62 278.471 491.98ZM284.126 494.44C284.126 496.68 285.346 497.5 287.306 497.5H289.106V495.6H287.706C286.746 495.6 286.426 495.26 286.426 494.44V488.34H289.106V486.48H286.426V483.74H284.126V486.48H282.826V488.34H284.126V494.44ZM290.447 491.94C290.447 495.34 292.747 497.68 295.607 497.68C297.447 497.68 298.767 496.8 299.467 495.86V497.5H301.767V486.48H299.467V488.08C298.787 487.18 297.507 486.3 295.647 486.3C292.747 486.3 290.447 488.54 290.447 491.94ZM299.467 491.98C299.467 494.36 297.847 495.7 296.127 495.7C294.427 495.7 292.787 494.32 292.787 491.94C292.787 489.56 294.427 488.28 296.127 488.28C297.847 488.28 299.467 489.62 299.467 491.98ZM309.197 490.52C309.197 494.7 312.377 497.62 316.297 497.62C319.197 497.62 321.697 496.18 322.757 493.46H320.017C319.277 494.94 317.957 495.64 316.297 495.64C313.537 495.64 311.537 493.66 311.537 490.52C311.537 487.38 313.537 485.42 316.297 485.42C317.957 485.42 319.277 486.12 320.017 487.6H322.757C321.697 484.88 319.197 483.42 316.297 483.42C312.377 483.42 309.197 486.36 309.197 490.52ZM335.926 491.98C335.926 488.52 333.446 486.3 330.306 486.3C327.166 486.3 324.686 488.52 324.686 491.98C324.686 495.44 327.066 497.68 330.206 497.68C333.366 497.68 335.926 495.44 335.926 491.98ZM327.006 491.98C327.006 489.48 328.546 488.28 330.266 488.28C331.966 488.28 333.586 489.48 333.586 491.98C333.586 494.48 331.906 495.7 330.206 495.7C328.486 495.7 327.006 494.48 327.006 491.98ZM338.18 497.5H340.46V482.7H338.18V497.5ZM343.453 497.5H345.733V482.7H343.453V497.5ZM353.367 488.22C355.067 488.22 356.407 489.3 356.447 491H350.347C350.587 489.26 351.827 488.22 353.367 488.22ZM358.527 494.22H356.067C355.647 495.08 354.867 495.76 353.467 495.76C351.787 495.76 350.487 494.66 350.327 492.84H358.747C358.807 492.46 358.827 492.1 358.827 491.72C358.827 488.48 356.607 486.3 353.467 486.3C350.207 486.3 347.967 488.52 347.967 491.98C347.967 495.44 350.307 497.68 353.467 497.68C356.167 497.68 357.907 496.14 358.527 494.22ZM360.31 491.98C360.31 495.44 362.55 497.68 365.71 497.68C368.41 497.68 370.17 496.18 370.79 494.02H368.33C367.91 495.16 367.07 495.76 365.71 495.76C363.87 495.76 362.65 494.4 362.65 491.98C362.65 489.58 363.87 488.22 365.71 488.22C367.07 488.22 367.95 488.9 368.33 489.96H370.79C370.17 487.64 368.41 486.3 365.71 486.3C362.55 486.3 360.31 488.54 360.31 491.98ZM373.423 494.44C373.423 496.68 374.643 497.5 376.603 497.5H378.403V495.6H377.003C376.043 495.6 375.723 495.26 375.723 494.44V488.34H378.403V486.48H375.723V483.74H373.423V486.48H372.123V488.34H373.423V494.44ZM380.504 497.5H382.784V486.48H380.504V497.5ZM381.664 485.02C382.464 485.02 383.104 484.38 383.104 483.56C383.104 482.74 382.464 482.1 381.664 482.1C380.844 482.1 380.204 482.74 380.204 483.56C380.204 484.38 380.844 485.02 381.664 485.02ZM396.277 491.98C396.277 488.52 393.797 486.3 390.657 486.3C387.517 486.3 385.037 488.52 385.037 491.98C385.037 495.44 387.417 497.68 390.557 497.68C393.717 497.68 396.277 495.44 396.277 491.98ZM387.357 491.98C387.357 489.48 388.897 488.28 390.617 488.28C392.317 488.28 393.937 489.48 393.937 491.98C393.937 494.48 392.257 495.7 390.557 495.7C388.837 495.7 387.357 494.48 387.357 491.98ZM406.351 497.5H408.611V491C408.611 487.92 406.671 486.3 404.091 486.3C402.771 486.3 401.551 486.84 400.811 487.74V486.48H398.531V497.5H400.811V491.34C400.811 489.32 401.911 488.28 403.591 488.28C405.251 488.28 406.351 489.32 406.351 491.34V497.5ZM416.715 483.6V497.5H423.695V495.66H418.995V483.6H416.715ZM424.842 491.94C424.842 495.34 427.142 497.68 430.002 497.68C431.842 497.68 433.162 496.8 433.862 495.86V497.5H436.162V486.48H433.862V488.08C433.182 487.18 431.902 486.3 430.042 486.3C427.142 486.3 424.842 488.54 424.842 491.94ZM433.862 491.98C433.862 494.36 432.242 495.7 430.522 495.7C428.822 495.7 427.182 494.32 427.182 491.94C427.182 489.56 428.822 488.28 430.522 488.28C432.242 488.28 433.862 489.62 433.862 491.98ZM441.436 488.12V482.7H439.156V497.5H441.436V495.9C442.156 496.86 443.456 497.68 445.276 497.68C448.176 497.68 450.456 495.34 450.456 491.94C450.456 488.54 448.196 486.3 445.276 486.3C443.536 486.3 442.156 487.12 441.436 488.12ZM448.136 491.94C448.136 494.32 446.496 495.7 444.776 495.7C443.076 495.7 441.436 494.36 441.436 491.98C441.436 489.62 443.076 488.28 444.776 488.28C446.496 488.28 448.136 489.56 448.136 491.94Z" fill="#212832"/>
<rect x="0.5" y="465.5" width="616" height="49" stroke="black" stroke-opacity="0.5"/>
</svg>
