<svg width="1226" height="199" viewBox="0 0 1226 199" fill="none" xmlns="http://www.w3.org/2000/svg">
<g filter="url(#filter0_d_953_501)">
<rect x="24" y="1" width="365" height="47" fill="white" shape-rendering="crispEdges"/>
<rect x="23.7658" y="0.765849" width="365.468" height="47.4683" stroke="black" stroke-opacity="0.2" stroke-width="0.468302" shape-rendering="crispEdges"/>
</g>
<path d="M118.729 30H120.781V21.432L124.615 30H126.037L129.853 21.432V30H131.905V17.49H129.709L125.335 27.3L120.943 17.49H118.729V30ZM133.918 24.996C133.918 28.056 135.988 30.162 138.562 30.162C140.218 30.162 141.406 29.37 142.036 28.524V30H144.106V20.082H142.036V21.522C141.424 20.712 140.272 19.92 138.598 19.92C135.988 19.92 133.918 21.936 133.918 24.996ZM142.036 25.032C142.036 27.174 140.578 28.38 139.03 28.38C137.5 28.38 136.024 27.138 136.024 24.996C136.024 22.854 137.5 21.702 139.03 21.702C140.578 21.702 142.036 22.908 142.036 25.032ZM148.853 24.78C148.853 22.674 149.789 22.044 151.301 22.044H151.823V19.92C150.419 19.92 149.429 20.532 148.853 21.522V20.082H146.801V30H148.853V24.78ZM153.709 30H155.761V25.734L159.433 30H162.205L157.633 25.05L162.205 20.082H159.361L155.761 24.42V16.68H153.709V30ZM167.852 21.648C169.382 21.648 170.588 22.62 170.624 24.15H165.134C165.35 22.584 166.466 21.648 167.852 21.648ZM172.496 27.048H170.282C169.904 27.822 169.202 28.434 167.942 28.434C166.43 28.434 165.26 27.444 165.116 25.806H172.694C172.748 25.464 172.766 25.14 172.766 24.798C172.766 21.882 170.768 19.92 167.942 19.92C165.008 19.92 162.992 21.918 162.992 25.032C162.992 28.146 165.098 30.162 167.942 30.162C170.372 30.162 171.938 28.776 172.496 27.048ZM175.11 27.246C175.11 29.262 176.208 30 177.972 30H179.592V28.29H178.332C177.468 28.29 177.18 27.984 177.18 27.246V21.756H179.592V20.082H177.18V17.616H175.11V20.082H173.94V21.756H175.11V27.246ZM181.483 30H183.535V20.082H181.483V30ZM182.527 18.768C183.247 18.768 183.823 18.192 183.823 17.454C183.823 16.716 183.247 16.14 182.527 16.14C181.789 16.14 181.213 16.716 181.213 17.454C181.213 18.192 181.789 18.768 182.527 18.768ZM193.267 30H195.301V24.15C195.301 21.378 193.555 19.92 191.233 19.92C190.045 19.92 188.947 20.406 188.281 21.216V20.082H186.229V30H188.281V24.456C188.281 22.638 189.271 21.702 190.783 21.702C192.277 21.702 193.267 22.638 193.267 24.456V30ZM197.234 24.996C197.234 28.056 199.304 30.162 201.914 30.162C203.534 30.162 204.722 29.352 205.352 28.506V30.162C205.352 32.142 204.164 33.114 202.58 33.114C201.158 33.114 200.06 32.412 199.754 31.386H197.72C197.972 33.582 199.934 34.896 202.58 34.896C205.676 34.896 207.422 32.862 207.422 30.162V20.082H205.352V21.522C204.74 20.676 203.534 19.92 201.914 19.92C199.304 19.92 197.234 21.936 197.234 24.996ZM205.352 25.032C205.352 27.174 203.894 28.38 202.346 28.38C200.816 28.38 199.34 27.138 199.34 24.996C199.34 22.854 200.816 21.702 202.346 21.702C203.894 21.702 205.352 22.908 205.352 25.032ZM214.793 30H216.845V21.432L220.679 30H222.101L225.917 21.432V30H227.969V17.49H225.773L221.399 27.3L217.007 17.49H214.793V30ZM229.982 24.996C229.982 28.056 232.052 30.162 234.626 30.162C236.282 30.162 237.47 29.37 238.1 28.524V30H240.17V20.082H238.1V21.522C237.488 20.712 236.336 19.92 234.662 19.92C232.052 19.92 229.982 21.936 229.982 24.996ZM238.1 25.032C238.1 27.174 236.642 28.38 235.094 28.38C233.564 28.38 232.088 27.138 232.088 24.996C232.088 22.854 233.564 21.702 235.094 21.702C236.642 21.702 238.1 22.908 238.1 25.032ZM249.904 30H251.938V24.15C251.938 21.378 250.192 19.92 247.87 19.92C246.682 19.92 245.584 20.406 244.918 21.216V20.082H242.866V30H244.918V24.456C244.918 22.638 245.908 21.702 247.42 21.702C248.914 21.702 249.904 22.638 249.904 24.456V30ZM253.871 24.996C253.871 28.056 255.941 30.162 258.515 30.162C260.171 30.162 261.359 29.37 261.989 28.524V30H264.059V20.082H261.989V21.522C261.377 20.712 260.225 19.92 258.551 19.92C255.941 19.92 253.871 21.936 253.871 24.996ZM261.989 25.032C261.989 27.174 260.531 28.38 258.983 28.38C257.453 28.38 255.977 27.138 255.977 24.996C255.977 22.854 257.453 21.702 258.983 21.702C260.531 21.702 261.989 22.908 261.989 25.032ZM266.07 24.996C266.07 28.056 268.14 30.162 270.75 30.162C272.37 30.162 273.558 29.352 274.188 28.506V30.162C274.188 32.142 273 33.114 271.416 33.114C269.994 33.114 268.896 32.412 268.59 31.386H266.556C266.808 33.582 268.77 34.896 271.416 34.896C274.512 34.896 276.258 32.862 276.258 30.162V20.082H274.188V21.522C273.576 20.676 272.37 19.92 270.75 19.92C268.14 19.92 266.07 21.936 266.07 24.996ZM274.188 25.032C274.188 27.174 272.73 28.38 271.182 28.38C269.652 28.38 268.176 27.138 268.176 24.996C268.176 22.854 269.652 21.702 271.182 21.702C272.73 21.702 274.188 22.908 274.188 25.032ZM283.13 21.648C284.66 21.648 285.866 22.62 285.902 24.15H280.412C280.628 22.584 281.744 21.648 283.13 21.648ZM287.774 27.048H285.56C285.182 27.822 284.48 28.434 283.22 28.434C281.708 28.434 280.538 27.444 280.394 25.806H287.972C288.026 25.464 288.044 25.14 288.044 24.798C288.044 21.882 286.046 19.92 283.22 19.92C280.286 19.92 278.27 21.918 278.27 25.032C278.27 28.146 280.376 30.162 283.22 30.162C285.65 30.162 287.216 28.776 287.774 27.048ZM292.115 24.78C292.115 22.674 293.051 22.044 294.563 22.044H295.085V19.92C293.681 19.92 292.691 20.532 292.115 21.522V20.082H290.063V30H292.115V24.78Z" fill="#212832"/>
<path d="M389 1H387V48H389V1Z" fill="#946FB0" stroke="#946FB0" stroke-width="0.936604"/>
<circle cx="24.4151" cy="24.4151" r="23.4151" fill="#946FB0" stroke="#946FB0"/>
<path d="M16.3494 23.9942C16.3494 27.9654 17.3983 30.9625 21.2197 30.9625C25.041 30.9625 26.09 27.9654 26.09 23.9942C26.09 20.0979 25.041 17.1008 21.2197 17.1008C17.3983 17.1008 16.3494 20.0979 16.3494 23.9942ZM23.992 23.9942C23.992 26.6729 23.7111 29.0144 21.2197 29.0144C18.7283 29.0144 18.4473 26.6729 18.4473 23.9942C18.4473 21.4466 18.7283 19.0489 21.2197 19.0489C23.7111 19.0489 23.992 21.4466 23.992 23.9942ZM29.8107 31H31.9649V17.3443H28.0686V19.2925H29.8107V31Z" fill="#212832"/>
<g filter="url(#filter1_d_953_501)">
<rect x="24" y="76" width="365" height="47" fill="white" shape-rendering="crispEdges"/>
<rect x="23.7658" y="75.7658" width="365.468" height="47.4683" stroke="black" stroke-opacity="0.2" stroke-width="0.468302" shape-rendering="crispEdges"/>
</g>
<g filter="url(#filter2_d_953_501)">
<rect x="24" y="151" width="365" height="47" fill="white" shape-rendering="crispEdges"/>
<rect x="23.7658" y="150.766" width="365.468" height="47.4683" stroke="black" stroke-opacity="0.2" stroke-width="0.468302" shape-rendering="crispEdges"/>
</g>
<g filter="url(#filter3_d_953_501)">
<rect x="437" y="151" width="365" height="47" fill="white" shape-rendering="crispEdges"/>
<rect x="436.766" y="150.766" width="365.468" height="47.4683" stroke="black" stroke-opacity="0.2" stroke-width="0.468302" shape-rendering="crispEdges"/>
</g>
<path d="M142.206 99.718C142.206 103.48 145.068 106.108 148.596 106.108C151.206 106.108 153.456 104.812 154.41 102.364H151.944C151.278 103.696 150.09 104.326 148.596 104.326C146.112 104.326 144.312 102.544 144.312 99.718C144.312 96.892 146.112 95.128 148.596 95.128C150.09 95.128 151.278 95.758 151.944 97.09H154.41C153.456 94.642 151.206 93.328 148.596 93.328C145.068 93.328 142.206 95.974 142.206 99.718ZM156.812 106H158.864V100.456C158.864 98.638 159.854 97.702 161.366 97.702C162.86 97.702 163.85 98.638 163.85 100.456V106H165.884V100.15C165.884 97.378 164.156 95.92 161.942 95.92C160.664 95.92 159.548 96.406 158.864 97.234V92.68H156.812V106ZM167.817 100.996C167.817 104.056 169.887 106.162 172.461 106.162C174.117 106.162 175.305 105.37 175.935 104.524V106H178.005V96.082H175.935V97.522C175.323 96.712 174.171 95.92 172.497 95.92C169.887 95.92 167.817 97.936 167.817 100.996ZM175.935 101.032C175.935 103.174 174.477 104.38 172.929 104.38C171.399 104.38 169.923 103.138 169.923 100.996C169.923 98.854 171.399 97.702 172.929 97.702C174.477 97.702 175.935 98.908 175.935 101.032ZM187.739 106H189.773V100.15C189.773 97.378 188.027 95.92 185.705 95.92C184.517 95.92 183.419 96.406 182.753 97.216V96.082H180.701V106H182.753V100.456C182.753 98.638 183.743 97.702 185.255 97.702C186.749 97.702 187.739 98.638 187.739 100.456V106ZM199.428 106H201.462V100.15C201.462 97.378 199.716 95.92 197.394 95.92C196.206 95.92 195.108 96.406 194.442 97.216V96.082H192.39V106H194.442V100.456C194.442 98.638 195.432 97.702 196.944 97.702C198.438 97.702 199.428 98.638 199.428 100.456V106ZM208.255 97.648C209.785 97.648 210.991 98.62 211.027 100.15H205.537C205.753 98.584 206.869 97.648 208.255 97.648ZM212.899 103.048H210.685C210.307 103.822 209.605 104.434 208.345 104.434C206.833 104.434 205.663 103.444 205.519 101.806H213.097C213.151 101.464 213.169 101.14 213.169 100.798C213.169 97.882 211.171 95.92 208.345 95.92C205.411 95.92 203.395 97.918 203.395 101.032C203.395 104.146 205.501 106.162 208.345 106.162C210.775 106.162 212.341 104.776 212.899 103.048ZM215.189 106H217.241V92.68H215.189V106ZM232.549 106H234.601V93.49H232.549V98.854H226.663V93.49H224.611V106H226.663V100.528H232.549V106ZM241.478 97.648C243.008 97.648 244.214 98.62 244.25 100.15H238.76C238.976 98.584 240.092 97.648 241.478 97.648ZM246.122 103.048H243.908C243.53 103.822 242.828 104.434 241.568 104.434C240.056 104.434 238.886 103.444 238.742 101.806H246.32C246.374 101.464 246.392 101.14 246.392 100.798C246.392 97.882 244.394 95.92 241.568 95.92C238.634 95.92 236.618 97.918 236.618 101.032C236.618 104.146 238.724 106.162 241.568 106.162C243.998 106.162 245.564 104.776 246.122 103.048ZM247.728 100.996C247.728 104.056 249.798 106.162 252.372 106.162C254.028 106.162 255.216 105.37 255.846 104.524V106H257.916V96.082H255.846V97.522C255.234 96.712 254.082 95.92 252.408 95.92C249.798 95.92 247.728 97.936 247.728 100.996ZM255.846 101.032C255.846 103.174 254.388 104.38 252.84 104.38C251.31 104.38 249.834 103.138 249.834 100.996C249.834 98.854 251.31 97.702 252.84 97.702C254.388 97.702 255.846 98.908 255.846 101.032ZM259.927 100.996C259.927 104.056 261.997 106.162 264.607 106.162C266.227 106.162 267.415 105.406 268.045 104.506V106H270.115V92.68H268.045V97.468C267.289 96.532 265.921 95.92 264.625 95.92C261.997 95.92 259.927 97.936 259.927 100.996ZM268.045 101.032C268.045 103.174 266.587 104.38 265.039 104.38C263.509 104.38 262.033 103.138 262.033 100.996C262.033 98.854 263.509 97.702 265.039 97.702C266.587 97.702 268.045 98.908 268.045 101.032Z" fill="#212832"/>
<path d="M145.585 181H147.637V172.432L151.471 181H152.893L156.709 172.432V181H158.761V168.49H156.565L152.191 178.3L147.799 168.49H145.585V181ZM165.274 172.648C166.804 172.648 168.01 173.62 168.046 175.15H162.556C162.772 173.584 163.888 172.648 165.274 172.648ZM169.918 178.048H167.704C167.326 178.822 166.624 179.434 165.364 179.434C163.852 179.434 162.682 178.444 162.538 176.806H170.116C170.17 176.464 170.188 176.14 170.188 175.798C170.188 172.882 168.19 170.92 165.364 170.92C162.43 170.92 160.414 172.918 160.414 176.032C160.414 179.146 162.52 181.162 165.364 181.162C167.794 181.162 169.36 179.776 169.918 178.048ZM171.164 175.996C171.164 179.056 173.234 181.162 175.844 181.162C177.464 181.162 178.652 180.406 179.282 179.506V181H181.352V167.68H179.282V172.468C178.526 171.532 177.158 170.92 175.862 170.92C173.234 170.92 171.164 172.936 171.164 175.996ZM179.282 176.032C179.282 178.174 177.824 179.38 176.276 179.38C174.746 179.38 173.27 178.138 173.27 175.996C173.27 173.854 174.746 172.702 176.276 172.702C177.824 172.702 179.282 173.908 179.282 176.032ZM183.687 181H185.739V171.082H183.687V181ZM184.731 169.768C185.451 169.768 186.027 169.192 186.027 168.454C186.027 167.716 185.451 167.14 184.731 167.14C183.993 167.14 183.417 167.716 183.417 168.454C183.417 169.192 183.993 169.768 184.731 169.768ZM187.389 175.996C187.389 179.056 189.459 181.162 192.033 181.162C193.689 181.162 194.877 180.37 195.507 179.524V181H197.577V171.082H195.507V172.522C194.895 171.712 193.743 170.92 192.069 170.92C189.459 170.92 187.389 172.936 187.389 175.996ZM195.507 176.032C195.507 178.174 194.049 179.38 192.501 179.38C190.971 179.38 189.495 178.138 189.495 175.996C189.495 173.854 190.971 172.702 192.501 172.702C194.049 172.702 195.507 173.908 195.507 176.032ZM206.28 174.25V170.164H208.548C210.15 170.164 210.87 170.92 210.87 172.216C210.87 173.476 210.15 174.25 208.548 174.25H206.28ZM212.976 172.216C212.976 170.182 211.518 168.49 208.548 168.49H204.228V181H206.28V175.924H208.548C211.806 175.924 212.976 173.998 212.976 172.216ZM214.573 181H216.625V167.68H214.573V181ZM218.275 175.996C218.275 179.056 220.345 181.162 222.919 181.162C224.575 181.162 225.763 180.37 226.393 179.524V181H228.463V171.082H226.393V172.522C225.781 171.712 224.629 170.92 222.955 170.92C220.345 170.92 218.275 172.936 218.275 175.996ZM226.393 176.032C226.393 178.174 224.935 179.38 223.387 179.38C221.857 179.38 220.381 178.138 220.381 175.996C220.381 173.854 221.857 172.702 223.387 172.702C224.935 172.702 226.393 173.908 226.393 176.032ZM237.836 181H239.87V175.15C239.87 172.378 238.124 170.92 235.802 170.92C234.614 170.92 233.516 171.406 232.85 172.216V171.082H230.798V181H232.85V175.456C232.85 173.638 233.84 172.702 235.352 172.702C236.846 172.702 237.836 173.638 237.836 175.456V181ZM249.166 181H251.2V175.15C251.2 172.378 249.454 170.92 247.132 170.92C245.944 170.92 244.846 171.406 244.18 172.216V171.082H242.128V181H244.18V175.456C244.18 173.638 245.17 172.702 246.682 172.702C248.176 172.702 249.166 173.638 249.166 175.456V181ZM257.633 172.648C259.163 172.648 260.369 173.62 260.405 175.15H254.915C255.131 173.584 256.247 172.648 257.633 172.648ZM262.277 178.048H260.063C259.685 178.822 258.983 179.434 257.723 179.434C256.211 179.434 255.041 178.444 254.897 176.806H262.475C262.529 176.464 262.547 176.14 262.547 175.798C262.547 172.882 260.549 170.92 257.723 170.92C254.789 170.92 252.773 172.918 252.773 176.032C252.773 179.146 254.879 181.162 257.723 181.162C260.153 181.162 261.719 179.776 262.277 178.048ZM266.259 175.78C266.259 173.674 267.195 173.044 268.707 173.044H269.229V170.92C267.825 170.92 266.835 171.532 266.259 172.522V171.082H264.207V181H266.259V175.78Z" fill="#212832"/>
<path d="M468.13 174.718C468.13 178.48 470.992 181.108 474.52 181.108C477.13 181.108 479.38 179.812 480.334 177.364H477.868C477.202 178.696 476.014 179.326 474.52 179.326C472.036 179.326 470.236 177.544 470.236 174.718C470.236 171.892 472.036 170.128 474.52 170.128C476.014 170.128 477.202 170.758 477.868 172.09H480.334C479.38 169.642 477.13 168.328 474.52 168.328C470.992 168.328 468.13 170.974 468.13 174.718ZM491.358 171.082H489.306V176.608C489.306 178.426 488.316 179.362 486.804 179.362C485.31 179.362 484.32 178.426 484.32 176.608V171.082H482.286V176.914C482.286 179.686 484.05 181.144 486.372 181.144C487.542 181.144 488.658 180.658 489.306 179.812V181H491.358V171.082ZM501.103 178.228C500.995 174.646 495.397 175.762 495.397 173.764C495.397 173.098 495.973 172.648 497.071 172.648C498.187 172.648 498.853 173.242 498.925 174.106H500.977C500.869 172.126 499.393 170.92 497.143 170.92C494.803 170.92 493.327 172.198 493.327 173.782C493.327 177.418 499.087 176.302 499.087 178.246C499.087 178.93 498.457 179.434 497.269 179.434C496.135 179.434 495.361 178.768 495.289 177.958H493.165C493.255 179.758 494.929 181.162 497.305 181.162C499.645 181.162 501.103 179.902 501.103 178.228ZM503.284 178.246C503.284 180.262 504.382 181 506.146 181H507.766V179.29H506.506C505.642 179.29 505.354 178.984 505.354 178.246V172.756H507.766V171.082H505.354V168.616H503.284V171.082H502.114V172.756H503.284V178.246ZM518.748 176.032C518.748 172.918 516.516 170.92 513.69 170.92C510.864 170.92 508.632 172.918 508.632 176.032C508.632 179.146 510.774 181.162 513.6 181.162C516.444 181.162 518.748 179.146 518.748 176.032ZM510.72 176.032C510.72 173.782 512.106 172.702 513.654 172.702C515.184 172.702 516.642 173.782 516.642 176.032C516.642 178.282 515.13 179.38 513.6 179.38C512.052 179.38 510.72 178.282 510.72 176.032ZM534.474 181H536.508V175.15C536.508 172.378 534.744 170.92 532.422 170.92C530.982 170.92 529.578 171.676 528.966 172.882C528.282 171.586 526.968 170.92 525.402 170.92C524.214 170.92 523.134 171.406 522.468 172.216V171.082H520.416V181H522.468V175.456C522.468 173.638 523.458 172.702 524.97 172.702C526.464 172.702 527.454 173.638 527.454 175.456V181H529.488V175.456C529.488 173.638 530.478 172.702 531.99 172.702C533.484 172.702 534.474 173.638 534.474 175.456V181ZM542.935 172.648C544.465 172.648 545.671 173.62 545.707 175.15H540.217C540.433 173.584 541.549 172.648 542.935 172.648ZM547.579 178.048H545.365C544.987 178.822 544.285 179.434 543.025 179.434C541.513 179.434 540.343 178.444 540.199 176.806H547.777C547.831 176.464 547.849 176.14 547.849 175.798C547.849 172.882 545.851 170.92 543.025 170.92C540.091 170.92 538.075 172.918 538.075 176.032C538.075 179.146 540.181 181.162 543.025 181.162C545.455 181.162 547.021 179.776 547.579 178.048ZM551.561 175.78C551.561 173.674 552.497 173.044 554.009 173.044H554.531V170.92C553.127 170.92 552.137 171.532 551.561 172.522V171.082H549.509V181H551.561V175.78ZM567.015 172.234C567.015 173.476 566.295 174.358 564.693 174.358H562.425V170.164H564.693C566.295 170.164 567.015 170.974 567.015 172.234ZM560.373 168.49V181H562.425V175.996H563.991L566.871 181H569.319L566.223 175.816C568.329 175.294 569.121 173.71 569.121 172.234C569.121 170.2 567.663 168.49 564.693 168.49H560.373ZM575.562 172.648C577.092 172.648 578.298 173.62 578.334 175.15H572.844C573.06 173.584 574.176 172.648 575.562 172.648ZM580.206 178.048H577.992C577.614 178.822 576.912 179.434 575.652 179.434C574.14 179.434 572.97 178.444 572.826 176.806H580.404C580.458 176.464 580.476 176.14 580.476 175.798C580.476 172.882 578.478 170.92 575.652 170.92C572.718 170.92 570.702 172.918 570.702 176.032C570.702 179.146 572.808 181.162 575.652 181.162C578.082 181.162 579.648 179.776 580.206 178.048ZM582.135 181H584.187V167.68H582.135V181ZM585.837 175.996C585.837 179.056 587.907 181.162 590.481 181.162C592.137 181.162 593.325 180.37 593.955 179.524V181H596.025V171.082H593.955V172.522C593.343 171.712 592.191 170.92 590.517 170.92C587.907 170.92 585.837 172.936 585.837 175.996ZM593.955 176.032C593.955 178.174 592.497 179.38 590.949 179.38C589.419 179.38 587.943 178.138 587.943 175.996C587.943 173.854 589.419 172.702 590.949 172.702C592.497 172.702 593.955 173.908 593.955 176.032ZM598.684 178.246C598.684 180.262 599.782 181 601.546 181H603.166V179.29H601.906C601.042 179.29 600.754 178.984 600.754 178.246V172.756H603.166V171.082H600.754V168.616H598.684V171.082H597.514V172.756H598.684V178.246ZM604.698 181H606.75V171.082H604.698V181ZM605.742 169.768C606.462 169.768 607.038 169.192 607.038 168.454C607.038 167.716 606.462 167.14 605.742 167.14C605.004 167.14 604.428 167.716 604.428 168.454C604.428 169.192 605.004 169.768 605.742 169.768ZM618.534 176.032C618.534 172.918 616.302 170.92 613.476 170.92C610.65 170.92 608.418 172.918 608.418 176.032C608.418 179.146 610.56 181.162 613.386 181.162C616.23 181.162 618.534 179.146 618.534 176.032ZM610.506 176.032C610.506 173.782 611.892 172.702 613.44 172.702C614.97 172.702 616.428 173.782 616.428 176.032C616.428 178.282 614.916 179.38 613.386 179.38C611.838 179.38 610.506 178.282 610.506 176.032ZM627.24 181H629.274V175.15C629.274 172.378 627.528 170.92 625.206 170.92C624.018 170.92 622.92 171.406 622.254 172.216V171.082H620.202V181H622.254V175.456C622.254 173.638 623.244 172.702 624.756 172.702C626.25 172.702 627.24 173.638 627.24 175.456V181ZM638.93 178.228C638.822 174.646 633.224 175.762 633.224 173.764C633.224 173.098 633.8 172.648 634.898 172.648C636.014 172.648 636.68 173.242 636.752 174.106H638.804C638.696 172.126 637.22 170.92 634.97 170.92C632.63 170.92 631.154 172.198 631.154 173.782C631.154 177.418 636.914 176.302 636.914 178.246C636.914 178.93 636.284 179.434 635.096 179.434C633.962 179.434 633.188 178.768 633.116 177.958H630.992C631.082 179.758 632.756 181.162 635.132 181.162C637.472 181.162 638.93 179.902 638.93 178.228ZM640.787 181H642.839V175.456C642.839 173.638 643.829 172.702 645.341 172.702C646.835 172.702 647.825 173.638 647.825 175.456V181H649.859V175.15C649.859 172.378 648.131 170.92 645.917 170.92C644.639 170.92 643.523 171.406 642.839 172.234V167.68H640.787V181ZM652.116 181H654.168V171.082H652.116V181ZM653.16 169.768C653.88 169.768 654.456 169.192 654.456 168.454C654.456 167.716 653.88 167.14 653.16 167.14C652.422 167.14 651.846 167.716 651.846 168.454C651.846 169.192 652.422 169.768 653.16 169.768ZM658.554 172.54V171.082H656.502V185.716H658.554V179.56C659.202 180.334 660.372 181.162 662.01 181.162C664.62 181.162 666.672 179.056 666.672 175.996C666.672 172.936 664.62 170.92 662.01 170.92C660.39 170.92 659.184 171.712 658.554 172.54ZM664.584 175.996C664.584 178.138 663.108 179.38 661.56 179.38C660.03 179.38 658.554 178.174 658.554 176.032C658.554 173.908 660.03 172.702 661.56 172.702C663.108 172.702 664.584 173.854 664.584 175.996ZM672.657 181H674.709V172.432L678.543 181H679.965L683.781 172.432V181H685.833V168.49H683.637L679.263 178.3L674.871 168.49H672.657V181ZM687.487 175.996C687.487 179.056 689.557 181.162 692.131 181.162C693.787 181.162 694.975 180.37 695.605 179.524V181H697.675V171.082H695.605V172.522C694.993 171.712 693.841 170.92 692.167 170.92C689.557 170.92 687.487 172.936 687.487 175.996ZM695.605 176.032C695.605 178.174 694.147 179.38 692.599 179.38C691.069 179.38 689.593 178.138 689.593 175.996C689.593 173.854 691.069 172.702 692.599 172.702C694.147 172.702 695.605 173.908 695.605 176.032ZM707.048 181H709.082V175.15C709.082 172.378 707.336 170.92 705.014 170.92C703.826 170.92 702.728 171.406 702.062 172.216V171.082H700.01V181H702.062V175.456C702.062 173.638 703.052 172.702 704.564 172.702C706.058 172.702 707.048 173.638 707.048 175.456V181ZM710.655 175.996C710.655 179.056 712.725 181.162 715.299 181.162C716.955 181.162 718.143 180.37 718.773 179.524V181H720.843V171.082H718.773V172.522C718.161 171.712 717.009 170.92 715.335 170.92C712.725 170.92 710.655 172.936 710.655 175.996ZM718.773 176.032C718.773 178.174 717.315 179.38 715.767 179.38C714.237 179.38 712.761 178.138 712.761 175.996C712.761 173.854 714.237 172.702 715.767 172.702C717.315 172.702 718.773 173.908 718.773 176.032ZM722.494 175.996C722.494 179.056 724.564 181.162 727.174 181.162C728.794 181.162 729.982 180.352 730.612 179.506V181.162C730.612 183.142 729.424 184.114 727.84 184.114C726.418 184.114 725.32 183.412 725.014 182.386H722.98C723.232 184.582 725.194 185.896 727.84 185.896C730.936 185.896 732.682 183.862 732.682 181.162V171.082H730.612V172.522C730 171.676 728.794 170.92 727.174 170.92C724.564 170.92 722.494 172.936 722.494 175.996ZM730.612 176.032C730.612 178.174 729.154 179.38 727.606 179.38C726.076 179.38 724.6 178.138 724.6 175.996C724.6 173.854 726.076 172.702 727.606 172.702C729.154 172.702 730.612 173.908 730.612 176.032ZM739.194 172.648C740.724 172.648 741.93 173.62 741.966 175.15H736.476C736.692 173.584 737.808 172.648 739.194 172.648ZM743.838 178.048H741.624C741.246 178.822 740.544 179.434 739.284 179.434C737.772 179.434 736.602 178.444 736.458 176.806H744.036C744.09 176.464 744.108 176.14 744.108 175.798C744.108 172.882 742.11 170.92 739.284 170.92C736.35 170.92 734.334 172.918 734.334 176.032C734.334 179.146 736.44 181.162 739.284 181.162C741.714 181.162 743.28 179.776 743.838 178.048ZM759.825 181H761.859V175.15C761.859 172.378 760.095 170.92 757.773 170.92C756.333 170.92 754.929 171.676 754.317 172.882C753.633 171.586 752.319 170.92 750.753 170.92C749.565 170.92 748.485 171.406 747.819 172.216V171.082H745.767V181H747.819V175.456C747.819 173.638 748.809 172.702 750.321 172.702C751.815 172.702 752.805 173.638 752.805 175.456V181H754.839V175.456C754.839 173.638 755.829 172.702 757.341 172.702C758.835 172.702 759.825 173.638 759.825 175.456V181ZM768.286 172.648C769.816 172.648 771.022 173.62 771.058 175.15H765.568C765.784 173.584 766.9 172.648 768.286 172.648ZM772.93 178.048H770.716C770.338 178.822 769.636 179.434 768.376 179.434C766.864 179.434 765.694 178.444 765.55 176.806H773.128C773.182 176.464 773.2 176.14 773.2 175.798C773.2 172.882 771.202 170.92 768.376 170.92C765.442 170.92 763.426 172.918 763.426 176.032C763.426 179.146 765.532 181.162 768.376 181.162C770.806 181.162 772.372 179.776 772.93 178.048ZM781.898 181H783.932V175.15C783.932 172.378 782.186 170.92 779.864 170.92C778.676 170.92 777.578 171.406 776.912 172.216V171.082H774.86V181H776.912V175.456C776.912 173.638 777.902 172.702 779.414 172.702C780.908 172.702 781.898 173.638 781.898 175.456V181ZM786.513 178.246C786.513 180.262 787.611 181 789.375 181H790.995V179.29H789.735C788.871 179.29 788.583 178.984 788.583 178.246V172.756H790.995V171.082H788.583V168.616H786.513V171.082H785.343V172.756H786.513V178.246Z" fill="#212832"/>
<path d="M389 76H387V123H389V76Z" fill="#CF1C54" stroke="#CF1C54" stroke-width="0.936604"/>
<path d="M389 151H387V198H389V151Z" fill="#A344ED" stroke="#A344ED" stroke-width="0.936604"/>
<path d="M802 151H800V198H802V151Z" fill="#FFDC5F" stroke="#FFDC5F" stroke-width="0.936604"/>
<circle cx="24.4151" cy="99.4151" r="23.4151" fill="#E9336C" stroke="#E9336C"/>
<circle cx="24.4151" cy="174.415" r="23.4151" fill="#A344ED" stroke="#A344ED"/>
<circle cx="437.415" cy="174.415" r="23.4151" fill="#FFDC5F" stroke="#FFDC5F"/>
<path d="M13.4699 99.6055C13.4699 103.577 14.5189 106.574 18.3402 106.574C22.1616 106.574 23.2106 103.577 23.2106 99.6055C23.2106 95.7093 22.1616 92.7121 18.3402 92.7121C14.5189 92.7121 13.4699 95.7093 13.4699 99.6055ZM21.1126 99.6055C21.1126 102.284 20.8316 104.626 18.3402 104.626C15.8489 104.626 15.5679 102.284 15.5679 99.6055C15.5679 97.058 15.8489 94.6603 18.3402 94.6603C20.8316 94.6603 21.1126 97.058 21.1126 99.6055ZM31.9889 106.611H34.0869V103.764H35.829V101.91H34.0869V93.1242H31.5019L25.2079 102.153V103.764H31.9889V106.611ZM27.6618 101.91L32.0825 95.2972V101.91H27.6618Z" fill="#212832"/>
<path d="M14.2931 174.606C14.2931 178.577 15.3421 181.574 19.1634 181.574C22.9848 181.574 24.0338 178.577 24.0338 174.606C24.0338 170.709 22.9848 167.712 19.1634 167.712C15.3421 167.712 14.2931 170.709 14.2931 174.606ZM21.9358 174.606C21.9358 177.284 21.6548 179.626 19.1634 179.626C16.672 179.626 16.3911 177.284 16.3911 174.606C16.3911 172.058 16.672 169.66 19.1634 169.66C21.6548 169.66 21.9358 172.058 21.9358 174.606ZM25.9187 168.012V169.829H32.8495L27.5858 181.611H29.74L34.9475 169.604V168.012H25.9187Z" fill="#212832"/>
<path d="M426.561 174.606C426.561 178.577 427.61 181.574 431.432 181.574C435.253 181.574 436.302 178.577 436.302 174.606C436.302 170.709 435.253 167.712 431.432 167.712C427.61 167.712 426.561 170.709 426.561 174.606ZM434.204 174.606C434.204 177.284 433.923 179.626 431.432 179.626C428.94 179.626 428.659 177.284 428.659 174.606C428.659 172.058 428.94 169.66 431.432 169.66C433.923 169.66 434.204 172.058 434.204 174.606ZM440.866 174.474C439.498 174.98 438.58 176.198 438.58 177.846C438.58 180.338 440.603 181.949 443.413 181.949C446.242 181.949 448.265 180.338 448.265 177.846C448.265 176.216 447.347 174.999 445.961 174.474C447.066 173.931 447.909 172.863 447.909 171.402C447.909 169.435 446.429 167.712 443.413 167.712C440.397 167.712 438.917 169.417 438.917 171.402C438.917 172.92 439.704 173.894 440.866 174.474ZM443.413 173.8C441.99 173.8 440.978 172.92 440.978 171.683C440.978 170.241 441.952 169.492 443.413 169.492C444.912 169.492 445.867 170.26 445.867 171.665C445.867 172.901 444.837 173.8 443.413 173.8ZM443.413 175.411C445.024 175.411 446.167 176.235 446.167 177.771C446.167 179.139 445.137 180.169 443.413 180.169C441.671 180.169 440.622 179.157 440.622 177.771C440.622 176.179 441.84 175.411 443.413 175.411Z" fill="#212832"/>
<g filter="url(#filter4_d_953_501)">
<rect x="436" y="76" width="365" height="47" fill="white" shape-rendering="crispEdges"/>
<rect x="435.766" y="75.7658" width="365.468" height="47.4683" stroke="black" stroke-opacity="0.2" stroke-width="0.468302" shape-rendering="crispEdges"/>
</g>
<path d="M556.312 102.418C556.312 103.624 555.466 104.326 554.08 104.326H551.308V100.42H554.008C555.376 100.42 556.312 101.176 556.312 102.418ZM555.988 96.964C555.988 98.116 555.178 98.746 553.846 98.746H551.308V95.164H553.846C555.178 95.164 555.988 95.83 555.988 96.964ZM558.364 102.634C558.364 101.14 557.284 99.808 555.952 99.574C557.158 99.142 558.076 98.224 558.076 96.712C558.076 94.948 556.672 93.49 554.026 93.49H549.256V106H554.26C556.816 106 558.364 104.542 558.364 102.634ZM562.646 100.78C562.646 98.674 563.582 98.044 565.094 98.044H565.616V95.92C564.212 95.92 563.222 96.532 562.646 97.522V96.082H560.594V106H562.646V100.78ZM566.818 100.996C566.818 104.056 568.888 106.162 571.462 106.162C573.118 106.162 574.306 105.37 574.936 104.524V106H577.006V96.082H574.936V97.522C574.324 96.712 573.172 95.92 571.498 95.92C568.888 95.92 566.818 97.936 566.818 100.996ZM574.936 101.032C574.936 103.174 573.478 104.38 571.93 104.38C570.4 104.38 568.924 103.138 568.924 100.996C568.924 98.854 570.4 97.702 571.93 97.702C573.478 97.702 574.936 98.908 574.936 101.032ZM586.74 106H588.774V100.15C588.774 97.378 587.028 95.92 584.706 95.92C583.518 95.92 582.42 96.406 581.754 97.216V96.082H579.702V106H581.754V100.456C581.754 98.638 582.744 97.702 584.256 97.702C585.75 97.702 586.74 98.638 586.74 100.456V106ZM590.707 100.996C590.707 104.056 592.777 106.162 595.387 106.162C597.007 106.162 598.195 105.406 598.825 104.506V106H600.895V92.68H598.825V97.468C598.069 96.532 596.701 95.92 595.405 95.92C592.777 95.92 590.707 97.936 590.707 100.996ZM598.825 101.032C598.825 103.174 597.367 104.38 595.819 104.38C594.289 104.38 592.813 103.138 592.813 100.996C592.813 98.854 594.289 97.702 595.819 97.702C597.367 97.702 598.825 98.908 598.825 101.032ZM608.266 106H610.318V97.432L614.152 106H615.574L619.39 97.432V106H621.442V93.49H619.246L614.872 103.3L610.48 93.49H608.266V106ZM623.455 100.996C623.455 104.056 625.525 106.162 628.099 106.162C629.755 106.162 630.943 105.37 631.573 104.524V106H633.643V96.082H631.573V97.522C630.961 96.712 629.809 95.92 628.135 95.92C625.525 95.92 623.455 97.936 623.455 100.996ZM631.573 101.032C631.573 103.174 630.115 104.38 628.567 104.38C627.037 104.38 625.561 103.138 625.561 100.996C625.561 98.854 627.037 97.702 628.567 97.702C630.115 97.702 631.573 98.908 631.573 101.032ZM643.376 106H645.41V100.15C645.41 97.378 643.664 95.92 641.342 95.92C640.154 95.92 639.056 96.406 638.39 97.216V96.082H636.338V106H638.39V100.456C638.39 98.638 639.38 97.702 640.892 97.702C642.386 97.702 643.376 98.638 643.376 100.456V106ZM647.344 100.996C647.344 104.056 649.414 106.162 651.988 106.162C653.644 106.162 654.832 105.37 655.462 104.524V106H657.532V96.082H655.462V97.522C654.85 96.712 653.698 95.92 652.024 95.92C649.414 95.92 647.344 97.936 647.344 100.996ZM655.462 101.032C655.462 103.174 654.004 104.38 652.456 104.38C650.926 104.38 649.45 103.138 649.45 100.996C649.45 98.854 650.926 97.702 652.456 97.702C654.004 97.702 655.462 98.908 655.462 101.032ZM659.543 100.996C659.543 104.056 661.613 106.162 664.223 106.162C665.843 106.162 667.031 105.352 667.661 104.506V106.162C667.661 108.142 666.473 109.114 664.889 109.114C663.467 109.114 662.369 108.412 662.063 107.386H660.029C660.281 109.582 662.243 110.896 664.889 110.896C667.985 110.896 669.731 108.862 669.731 106.162V96.082H667.661V97.522C667.049 96.676 665.843 95.92 664.223 95.92C661.613 95.92 659.543 97.936 659.543 100.996ZM667.661 101.032C667.661 103.174 666.203 104.38 664.655 104.38C663.125 104.38 661.649 103.138 661.649 100.996C661.649 98.854 663.125 97.702 664.655 97.702C666.203 97.702 667.661 98.908 667.661 101.032ZM676.602 97.648C678.132 97.648 679.338 98.62 679.374 100.15H673.884C674.1 98.584 675.216 97.648 676.602 97.648ZM681.246 103.048H679.032C678.654 103.822 677.952 104.434 676.692 104.434C675.18 104.434 674.01 103.444 673.866 101.806H681.444C681.498 101.464 681.516 101.14 681.516 100.798C681.516 97.882 679.518 95.92 676.692 95.92C673.758 95.92 671.742 97.918 671.742 101.032C671.742 104.146 673.848 106.162 676.692 106.162C679.122 106.162 680.688 104.776 681.246 103.048ZM685.588 100.78C685.588 98.674 686.524 98.044 688.036 98.044H688.558V95.92C687.154 95.92 686.164 96.532 685.588 97.522V96.082H683.536V106H685.588V100.78Z" fill="#212832"/>
<path d="M801 76H799V123H801V76Z" fill="#00ADEF" stroke="#00ADEF" stroke-width="0.936604"/>
<circle cx="436.415" cy="99.8506" r="23.4151" fill="#00ADEF" stroke="#00ADEF"/>
<path d="M425.552 99.6055C425.552 103.577 426.601 106.574 430.423 106.574C434.244 106.574 435.293 103.577 435.293 99.6055C435.293 95.7093 434.244 92.7121 430.423 92.7121C426.601 92.7121 425.552 95.7093 425.552 99.6055ZM433.195 99.6055C433.195 102.284 432.914 104.626 430.423 104.626C427.931 104.626 427.65 102.284 427.65 99.6055C427.65 97.058 427.931 94.6603 430.423 94.6603C432.914 94.6603 433.195 97.058 433.195 99.6055ZM438.114 92.9182V100.804H440.137C440.493 99.7929 441.336 99.0998 442.591 99.0998C444.371 99.0998 445.251 100.111 445.251 101.891C445.251 103.577 444.427 104.832 442.591 104.832C441.149 104.832 440.175 104.082 439.894 102.921H437.815C438.133 105.057 439.763 106.611 442.573 106.611C445.738 106.611 447.293 104.551 447.293 101.835C447.293 99.7741 446.263 97.2828 442.91 97.2828C441.692 97.2828 440.587 97.8447 440.081 98.5191V94.7914H446.357V92.9182H438.114Z" fill="#212832"/>
<g filter="url(#filter5_d_953_501)">
<rect x="859" y="76" width="365" height="47" fill="white" shape-rendering="crispEdges"/>
<rect x="858.766" y="75.7658" width="365.468" height="47.4683" stroke="black" stroke-opacity="0.2" stroke-width="0.468302" shape-rendering="crispEdges"/>
</g>
<path d="M983.571 106H985.731L981.249 93.472H978.873L974.391 106H976.533L977.433 103.444H982.671L983.571 106ZM982.095 101.77H978.009L980.061 95.956L982.095 101.77ZM995.078 103.228C994.97 99.646 989.372 100.762 989.372 98.764C989.372 98.098 989.948 97.648 991.046 97.648C992.162 97.648 992.828 98.242 992.9 99.106H994.952C994.844 97.126 993.368 95.92 991.118 95.92C988.778 95.92 987.302 97.198 987.302 98.782C987.302 102.418 993.062 101.302 993.062 103.246C993.062 103.93 992.432 104.434 991.244 104.434C990.11 104.434 989.336 103.768 989.264 102.958H987.14C987.23 104.758 988.904 106.162 991.28 106.162C993.62 106.162 995.078 104.902 995.078 103.228ZM1004.69 103.228C1004.59 99.646 998.987 100.762 998.987 98.764C998.987 98.098 999.563 97.648 1000.66 97.648C1001.78 97.648 1002.44 98.242 1002.52 99.106H1004.57C1004.46 97.126 1002.98 95.92 1000.73 95.92C998.393 95.92 996.917 97.198 996.917 98.782C996.917 102.418 1002.68 101.302 1002.68 103.246C1002.68 103.93 1002.05 104.434 1000.86 104.434C999.725 104.434 998.951 103.768 998.879 102.958H996.755C996.845 104.758 998.519 106.162 1000.9 106.162C1003.24 106.162 1004.69 104.902 1004.69 103.228ZM1011.09 97.648C1012.62 97.648 1013.82 98.62 1013.86 100.15H1008.37C1008.58 98.584 1009.7 97.648 1011.09 97.648ZM1015.73 103.048H1013.52C1013.14 103.822 1012.44 104.434 1011.18 104.434C1009.66 104.434 1008.49 103.444 1008.35 101.806H1015.93C1015.98 101.464 1016 101.14 1016 100.798C1016 97.882 1014 95.92 1011.18 95.92C1008.24 95.92 1006.23 97.918 1006.23 101.032C1006.23 104.146 1008.33 106.162 1011.18 106.162C1013.61 106.162 1015.17 104.776 1015.73 103.048ZM1018.34 103.246C1018.34 105.262 1019.44 106 1021.21 106H1022.83V104.29H1021.57C1020.7 104.29 1020.41 103.984 1020.41 103.246V97.756H1022.83V96.082H1020.41V93.616H1018.34V96.082H1017.17V97.756H1018.34V103.246ZM1029.39 106H1031.44V97.432L1035.28 106H1036.7L1040.52 97.432V106H1042.57V93.49H1040.37L1036 103.3L1031.61 93.49H1029.39V106ZM1044.58 100.996C1044.58 104.056 1046.65 106.162 1049.23 106.162C1050.88 106.162 1052.07 105.37 1052.7 104.524V106H1054.77V96.082H1052.7V97.522C1052.09 96.712 1050.94 95.92 1049.26 95.92C1046.65 95.92 1044.58 97.936 1044.58 100.996ZM1052.7 101.032C1052.7 103.174 1051.24 104.38 1049.69 104.38C1048.16 104.38 1046.69 103.138 1046.69 100.996C1046.69 98.854 1048.16 97.702 1049.69 97.702C1051.24 97.702 1052.7 98.908 1052.7 101.032ZM1064.5 106H1066.54V100.15C1066.54 97.378 1064.79 95.92 1062.47 95.92C1061.28 95.92 1060.18 96.406 1059.52 97.216V96.082H1057.47V106H1059.52V100.456C1059.52 98.638 1060.51 97.702 1062.02 97.702C1063.51 97.702 1064.5 98.638 1064.5 100.456V106ZM1068.47 100.996C1068.47 104.056 1070.54 106.162 1073.11 106.162C1074.77 106.162 1075.96 105.37 1076.59 104.524V106H1078.66V96.082H1076.59V97.522C1075.98 96.712 1074.82 95.92 1073.15 95.92C1070.54 95.92 1068.47 97.936 1068.47 100.996ZM1076.59 101.032C1076.59 103.174 1075.13 104.38 1073.58 104.38C1072.05 104.38 1070.58 103.138 1070.58 100.996C1070.58 98.854 1072.05 97.702 1073.58 97.702C1075.13 97.702 1076.59 98.908 1076.59 101.032ZM1080.67 100.996C1080.67 104.056 1082.74 106.162 1085.35 106.162C1086.97 106.162 1088.16 105.352 1088.79 104.506V106.162C1088.79 108.142 1087.6 109.114 1086.02 109.114C1084.59 109.114 1083.5 108.412 1083.19 107.386H1081.16C1081.41 109.582 1083.37 110.896 1086.02 110.896C1089.11 110.896 1090.86 108.862 1090.86 106.162V96.082H1088.79V97.522C1088.18 96.676 1086.97 95.92 1085.35 95.92C1082.74 95.92 1080.67 97.936 1080.67 100.996ZM1088.79 101.032C1088.79 103.174 1087.33 104.38 1085.78 104.38C1084.25 104.38 1082.78 103.138 1082.78 100.996C1082.78 98.854 1084.25 97.702 1085.78 97.702C1087.33 97.702 1088.79 98.908 1088.79 101.032ZM1097.73 97.648C1099.26 97.648 1100.47 98.62 1100.5 100.15H1095.01C1095.23 98.584 1096.34 97.648 1097.73 97.648ZM1102.37 103.048H1100.16C1099.78 103.822 1099.08 104.434 1097.82 104.434C1096.31 104.434 1095.14 103.444 1094.99 101.806H1102.57C1102.63 101.464 1102.64 101.14 1102.64 100.798C1102.64 97.882 1100.65 95.92 1097.82 95.92C1094.89 95.92 1092.87 97.918 1092.87 101.032C1092.87 104.146 1094.98 106.162 1097.82 106.162C1100.25 106.162 1101.82 104.776 1102.37 103.048ZM1106.71 100.78C1106.71 98.674 1107.65 98.044 1109.16 98.044H1109.68V95.92C1108.28 95.92 1107.29 96.532 1106.71 97.522V96.082H1104.66V106H1106.71V100.78Z" fill="#212832"/>
<path d="M1224 76H1222V123H1224V76Z" fill="#E74C3C" stroke="#E74C3C" stroke-width="0.936604"/>
<circle cx="856.415" cy="99.8506" r="23.4151" fill="#E74C3C" stroke="#E74C3C"/>
<path d="M845.525 99.6055C845.525 103.577 846.574 106.574 850.395 106.574C854.216 106.574 855.265 103.577 855.265 99.6055C855.265 95.7093 854.216 92.7121 850.395 92.7121C846.574 92.7121 845.525 95.7093 845.525 99.6055ZM853.167 99.6055C853.167 102.284 852.886 104.626 850.395 104.626C847.904 104.626 847.623 102.284 847.623 99.6055C847.623 97.058 847.904 94.6603 850.395 94.6603C852.886 94.6603 853.167 97.058 853.167 99.6055ZM866.835 96.1214C866.61 94.3044 865.28 92.6185 862.62 92.6185C859.211 92.6185 857.787 95.2035 857.787 99.4744C857.787 103.82 858.818 106.611 862.789 106.611C865.711 106.611 867.266 104.644 867.266 102.059C867.266 99.2122 865.524 97.5637 863.07 97.5637C861.646 97.5637 860.297 98.1632 859.623 99.2871C859.679 95.7093 860.672 94.398 862.601 94.398C863.95 94.398 864.606 95.0162 864.868 96.1214H866.835ZM862.601 99.362C864.4 99.362 865.224 100.523 865.224 102.153C865.224 103.764 864.25 104.832 862.676 104.832C860.859 104.832 859.867 103.708 859.867 102.022C859.867 100.205 861.196 99.362 862.601 99.362Z" fill="#212832"/>
<g filter="url(#filter6_d_953_501)">
<rect x="437" y="1" width="365" height="47" fill="white" shape-rendering="crispEdges"/>
<rect x="436.766" y="0.765849" width="365.468" height="47.4683" stroke="black" stroke-opacity="0.2" stroke-width="0.468302" shape-rendering="crispEdges"/>
</g>
<path d="M802 1H800V48H802V1Z" fill="#A9CF54" stroke="#A9CF54" stroke-width="0.936604"/>
<path d="M516.244 23.718C516.244 27.48 519.106 30.108 522.634 30.108C525.244 30.108 527.494 28.812 528.448 26.364H525.982C525.316 27.696 524.128 28.326 522.634 28.326C520.15 28.326 518.35 26.544 518.35 23.718C518.35 20.892 520.15 19.128 522.634 19.128C524.128 19.128 525.316 19.758 525.982 21.09H528.448C527.494 18.642 525.244 17.328 522.634 17.328C519.106 17.328 516.244 19.974 516.244 23.718ZM540.3 25.032C540.3 21.918 538.068 19.92 535.242 19.92C532.416 19.92 530.184 21.918 530.184 25.032C530.184 28.146 532.326 30.162 535.152 30.162C537.996 30.162 540.3 28.146 540.3 25.032ZM532.272 25.032C532.272 22.782 533.658 21.702 535.206 21.702C536.736 21.702 538.194 22.782 538.194 25.032C538.194 27.282 536.682 28.38 535.152 28.38C533.604 28.38 532.272 27.282 532.272 25.032ZM556.387 30H558.421V24.15C558.421 21.378 556.657 19.92 554.335 19.92C552.895 19.92 551.491 20.676 550.879 21.882C550.195 20.586 548.881 19.92 547.315 19.92C546.127 19.92 545.047 20.406 544.381 21.216V20.082H542.329V30H544.381V24.456C544.381 22.638 545.371 21.702 546.883 21.702C548.377 21.702 549.367 22.638 549.367 24.456V30H551.401V24.456C551.401 22.638 552.391 21.702 553.903 21.702C555.397 21.702 556.387 22.638 556.387 24.456V30ZM563.084 21.54V20.082H561.032V34.716H563.084V28.56C563.732 29.334 564.902 30.162 566.54 30.162C569.15 30.162 571.202 28.056 571.202 24.996C571.202 21.936 569.15 19.92 566.54 19.92C564.92 19.92 563.714 20.712 563.084 21.54ZM569.114 24.996C569.114 27.138 567.638 28.38 566.09 28.38C564.56 28.38 563.084 27.174 563.084 25.032C563.084 22.908 564.56 21.702 566.09 21.702C567.638 21.702 569.114 22.854 569.114 24.996ZM577.407 21.648C578.937 21.648 580.143 22.62 580.179 24.15H574.689C574.905 22.584 576.021 21.648 577.407 21.648ZM582.051 27.048H579.837C579.459 27.822 578.757 28.434 577.497 28.434C575.985 28.434 574.815 27.444 574.671 25.806H582.249C582.303 25.464 582.321 25.14 582.321 24.798C582.321 21.882 580.323 19.92 577.497 19.92C574.563 19.92 572.547 21.918 572.547 25.032C572.547 28.146 574.653 30.162 577.497 30.162C579.927 30.162 581.493 28.776 582.051 27.048ZM584.664 27.246C584.664 29.262 585.762 30 587.526 30H589.146V28.29H587.886C587.022 28.29 586.734 27.984 586.734 27.246V21.756H589.146V20.082H586.734V17.616H584.664V20.082H583.494V21.756H584.664V27.246ZM591.038 30H593.09V20.082H591.038V30ZM592.082 18.768C592.802 18.768 593.378 18.192 593.378 17.454C593.378 16.716 592.802 16.14 592.082 16.14C591.344 16.14 590.768 16.716 590.768 17.454C590.768 18.192 591.344 18.768 592.082 18.768ZM596.108 27.246C596.108 29.262 597.206 30 598.97 30H600.59V28.29H599.33C598.466 28.29 598.178 27.984 598.178 27.246V21.756H600.59V20.082H598.178V17.616H596.108V20.082H594.938V21.756H596.108V27.246ZM602.481 30H604.533V20.082H602.481V30ZM603.525 18.768C604.245 18.768 604.821 18.192 604.821 17.454C604.821 16.716 604.245 16.14 603.525 16.14C602.787 16.14 602.211 16.716 602.211 17.454C602.211 18.192 602.787 18.768 603.525 18.768ZM606.057 20.082L609.819 30H612.267L616.047 20.082H613.869L611.061 28.164L608.253 20.082H606.057ZM621.774 21.648C623.304 21.648 624.51 22.62 624.546 24.15H619.056C619.272 22.584 620.388 21.648 621.774 21.648ZM626.418 27.048H624.204C623.826 27.822 623.124 28.434 621.864 28.434C620.352 28.434 619.182 27.444 619.038 25.806H626.616C626.67 25.464 626.688 25.14 626.688 24.798C626.688 21.882 624.69 19.92 621.864 19.92C618.93 19.92 616.914 21.918 616.914 25.032C616.914 28.146 619.02 30.162 621.864 30.162C624.294 30.162 625.86 28.776 626.418 27.048ZM633.383 30H635.435V21.432L639.269 30H640.691L644.507 21.432V30H646.559V17.49H644.363L639.989 27.3L635.597 17.49H633.383V30ZM648.572 24.996C648.572 28.056 650.642 30.162 653.216 30.162C654.872 30.162 656.06 29.37 656.69 28.524V30H658.76V20.082H656.69V21.522C656.078 20.712 654.926 19.92 653.252 19.92C650.642 19.92 648.572 21.936 648.572 24.996ZM656.69 25.032C656.69 27.174 655.232 28.38 653.684 28.38C652.154 28.38 650.678 27.138 650.678 24.996C650.678 22.854 652.154 21.702 653.684 21.702C655.232 21.702 656.69 22.908 656.69 25.032ZM663.507 24.78C663.507 22.674 664.443 22.044 665.955 22.044H666.477V19.92C665.073 19.92 664.083 20.532 663.507 21.522V20.082H661.455V30H663.507V24.78ZM668.364 30H670.416V25.734L674.088 30H676.86L672.288 25.05L676.86 20.082H674.016L670.416 24.42V16.68H668.364V30ZM682.506 21.648C684.036 21.648 685.242 22.62 685.278 24.15H679.788C680.004 22.584 681.12 21.648 682.506 21.648ZM687.15 27.048H684.936C684.558 27.822 683.856 28.434 682.596 28.434C681.084 28.434 679.914 27.444 679.77 25.806H687.348C687.402 25.464 687.42 25.14 687.42 24.798C687.42 21.882 685.422 19.92 682.596 19.92C679.662 19.92 677.646 21.918 677.646 25.032C677.646 28.146 679.752 30.162 682.596 30.162C685.026 30.162 686.592 28.776 687.15 27.048ZM689.764 27.246C689.764 29.262 690.862 30 692.626 30H694.246V28.29H692.986C692.122 28.29 691.834 27.984 691.834 27.246V21.756H694.246V20.082H691.834V17.616H689.764V20.082H688.594V21.756H689.764V27.246ZM696.137 30H698.189V20.082H696.137V30ZM697.181 18.768C697.901 18.768 698.477 18.192 698.477 17.454C698.477 16.716 697.901 16.14 697.181 16.14C696.443 16.14 695.867 16.716 695.867 17.454C695.867 18.192 696.443 18.768 697.181 18.768ZM707.921 30H709.955V24.15C709.955 21.378 708.209 19.92 705.887 19.92C704.699 19.92 703.601 20.406 702.935 21.216V20.082H700.883V30H702.935V24.456C702.935 22.638 703.925 21.702 705.437 21.702C706.931 21.702 707.921 22.638 707.921 24.456V30ZM711.889 24.996C711.889 28.056 713.959 30.162 716.569 30.162C718.189 30.162 719.377 29.352 720.007 28.506V30.162C720.007 32.142 718.819 33.114 717.235 33.114C715.813 33.114 714.715 32.412 714.409 31.386H712.375C712.627 33.582 714.589 34.896 717.235 34.896C720.331 34.896 722.077 32.862 722.077 30.162V20.082H720.007V21.522C719.395 20.676 718.189 19.92 716.569 19.92C713.959 19.92 711.889 21.936 711.889 24.996ZM720.007 25.032C720.007 27.174 718.549 28.38 717.001 28.38C715.471 28.38 713.995 27.138 713.995 24.996C713.995 22.854 715.471 21.702 717.001 21.702C718.549 21.702 720.007 22.908 720.007 25.032Z" fill="#212832"/>
<circle cx="436.415" cy="24.4151" r="23.4151" fill="#A9CF54" stroke="#A9CF54"/>
<path d="M426.128 24.17C426.128 28.1412 427.177 31.1383 430.999 31.1383C434.82 31.1383 435.869 28.1412 435.869 24.17C435.869 20.2737 434.82 17.2766 430.999 17.2766C427.177 17.2766 426.128 20.2737 426.128 24.17ZM433.771 24.17C433.771 26.8487 433.49 29.1902 430.999 29.1902C428.507 29.1902 428.226 26.8487 428.226 24.17C428.226 21.6224 428.507 19.2247 430.999 19.2247C433.49 19.2247 433.771 21.6224 433.771 24.17ZM437.96 30.9885H447.064V29.2089H441.126C443.317 27.2046 446.689 24.6758 446.689 21.3602C446.689 18.9063 445.116 17.2391 442.343 17.2391C439.927 17.2391 438.016 18.6815 437.941 21.6412H440.002C440.058 20.1051 440.864 19.0561 442.362 19.0561C443.954 19.0561 444.573 20.0302 444.573 21.4538C444.573 24.1325 441.182 26.6052 437.96 29.4337V30.9885Z" fill="#212832"/>
<g filter="url(#filter7_d_953_501)">
<rect x="860" y="1" width="365" height="47" fill="white" shape-rendering="crispEdges"/>
<rect x="859.766" y="0.765849" width="365.468" height="47.4683" stroke="black" stroke-opacity="0.2" stroke-width="0.468302" shape-rendering="crispEdges"/>
</g>
<path d="M1225 1H1223V48H1225V1Z" fill="#3498DB" stroke="#3498DB" stroke-width="0.936604"/>
<path d="M959.338 30H961.498L957.016 17.472H954.64L950.158 30H952.3L953.2 27.444H958.438L959.338 30ZM957.862 25.77H953.776L955.828 19.956L957.862 25.77ZM970.485 30H972.519V24.15C972.519 21.378 970.773 19.92 968.451 19.92C967.263 19.92 966.165 20.406 965.499 21.216V20.082H963.447V30H965.499V24.456C965.499 22.638 966.489 21.702 968.001 21.702C969.495 21.702 970.485 22.638 970.485 24.456V30ZM974.452 24.996C974.452 28.056 976.522 30.162 979.096 30.162C980.752 30.162 981.94 29.37 982.57 28.524V30H984.64V20.082H982.57V21.522C981.958 20.712 980.806 19.92 979.132 19.92C976.522 19.92 974.452 21.936 974.452 24.996ZM982.57 25.032C982.57 27.174 981.112 28.38 979.564 28.38C978.034 28.38 976.558 27.138 976.558 24.996C976.558 22.854 978.034 21.702 979.564 21.702C981.112 21.702 982.57 22.908 982.57 25.032ZM987.335 30H989.387V16.68H987.335V30ZM995.987 27.642L993.197 20.082H990.911L994.817 29.838L992.801 34.662H994.925L1001.01 20.082H998.885L995.987 27.642ZM1002.88 27.246C1002.88 29.262 1003.98 30 1005.74 30H1007.36V28.29H1006.1C1005.24 28.29 1004.95 27.984 1004.95 27.246V21.756H1007.36V20.082H1004.95V17.616H1002.88V20.082H1001.71V21.756H1002.88V27.246ZM1009.26 30H1011.31V20.082H1009.26V30ZM1010.3 18.768C1011.02 18.768 1011.6 18.192 1011.6 17.454C1011.6 16.716 1011.02 16.14 1010.3 16.14C1009.56 16.14 1008.99 16.716 1008.99 17.454C1008.99 18.192 1009.56 18.768 1010.3 18.768ZM1013.32 25.032C1013.32 28.146 1015.33 30.162 1018.18 30.162C1020.61 30.162 1022.19 28.812 1022.75 26.868H1020.54C1020.16 27.894 1019.4 28.434 1018.18 28.434C1016.52 28.434 1015.42 27.21 1015.42 25.032C1015.42 22.872 1016.52 21.648 1018.18 21.648C1019.4 21.648 1020.19 22.26 1020.54 23.214H1022.75C1022.19 21.126 1020.61 19.92 1018.18 19.92C1015.33 19.92 1013.32 21.936 1013.32 25.032ZM1024.11 24.996C1024.11 28.056 1026.18 30.162 1028.75 30.162C1030.41 30.162 1031.6 29.37 1032.23 28.524V30H1034.3V20.082H1032.23V21.522C1031.62 20.712 1030.46 19.92 1028.79 19.92C1026.18 19.92 1024.11 21.936 1024.11 24.996ZM1032.23 25.032C1032.23 27.174 1030.77 28.38 1029.22 28.38C1027.69 28.38 1026.22 27.138 1026.22 24.996C1026.22 22.854 1027.69 21.702 1029.22 21.702C1030.77 21.702 1032.23 22.908 1032.23 25.032ZM1036.99 30H1039.05V16.68H1036.99V30ZM1046.42 30H1048.47V21.432L1052.3 30H1053.72L1057.54 21.432V30H1059.59V17.49H1057.4L1053.02 27.3L1048.63 17.49H1046.42V30ZM1061.6 24.996C1061.6 28.056 1063.67 30.162 1066.25 30.162C1067.9 30.162 1069.09 29.37 1069.72 28.524V30H1071.79V20.082H1069.72V21.522C1069.11 20.712 1067.96 19.92 1066.28 19.92C1063.67 19.92 1061.6 21.936 1061.6 24.996ZM1069.72 25.032C1069.72 27.174 1068.26 28.38 1066.72 28.38C1065.19 28.38 1063.71 27.138 1063.71 24.996C1063.71 22.854 1065.19 21.702 1066.72 21.702C1068.26 21.702 1069.72 22.908 1069.72 25.032ZM1076.54 24.78C1076.54 22.674 1077.48 22.044 1078.99 22.044H1079.51V19.92C1078.11 19.92 1077.12 20.532 1076.54 21.522V20.082H1074.49V30H1076.54V24.78ZM1081.4 30H1083.45V25.734L1087.12 30H1089.89L1085.32 25.05L1089.89 20.082H1087.05L1083.45 24.42V16.68H1081.4V30ZM1095.54 21.648C1097.07 21.648 1098.27 22.62 1098.31 24.15H1092.82C1093.04 22.584 1094.15 21.648 1095.54 21.648ZM1100.18 27.048H1097.97C1097.59 27.822 1096.89 28.434 1095.63 28.434C1094.12 28.434 1092.95 27.444 1092.8 25.806H1100.38C1100.43 25.464 1100.45 25.14 1100.45 24.798C1100.45 21.882 1098.45 19.92 1095.63 19.92C1092.69 19.92 1090.68 21.918 1090.68 25.032C1090.68 28.146 1092.78 30.162 1095.63 30.162C1098.06 30.162 1099.62 28.776 1100.18 27.048ZM1102.8 27.246C1102.8 29.262 1103.89 30 1105.66 30H1107.28V28.29H1106.02C1105.15 28.29 1104.87 27.984 1104.87 27.246V21.756H1107.28V20.082H1104.87V17.616H1102.8V20.082H1101.63V21.756H1102.8V27.246ZM1109.17 30H1111.22V20.082H1109.17V30ZM1110.21 18.768C1110.93 18.768 1111.51 18.192 1111.51 17.454C1111.51 16.716 1110.93 16.14 1110.21 16.14C1109.48 16.14 1108.9 16.716 1108.9 17.454C1108.9 18.192 1109.48 18.768 1110.21 18.768ZM1120.95 30H1122.99V24.15C1122.99 21.378 1121.24 19.92 1118.92 19.92C1117.73 19.92 1116.63 20.406 1115.97 21.216V20.082H1113.92V30H1115.97V24.456C1115.97 22.638 1116.96 21.702 1118.47 21.702C1119.96 21.702 1120.95 22.638 1120.95 24.456V30ZM1124.92 24.996C1124.92 28.056 1126.99 30.162 1129.6 30.162C1131.22 30.162 1132.41 29.352 1133.04 28.506V30.162C1133.04 32.142 1131.85 33.114 1130.27 33.114C1128.84 33.114 1127.75 32.412 1127.44 31.386H1125.41C1125.66 33.582 1127.62 34.896 1130.27 34.896C1133.36 34.896 1135.11 32.862 1135.11 30.162V20.082H1133.04V21.522C1132.43 20.676 1131.22 19.92 1129.6 19.92C1126.99 19.92 1124.92 21.936 1124.92 24.996ZM1133.04 25.032C1133.04 27.174 1131.58 28.38 1130.03 28.38C1128.5 28.38 1127.03 27.138 1127.03 24.996C1127.03 22.854 1128.5 21.702 1130.03 21.702C1131.58 21.702 1133.04 22.908 1133.04 25.032Z" fill="#212832"/>
<circle cx="856.415" cy="24.415" r="23.415" fill="#3498DB" stroke="#3498DB"/>
<path d="M845.548 24.9942C845.548 28.9654 846.597 31.9625 850.418 31.9625C854.24 31.9625 855.289 28.9654 855.289 24.9942C855.289 21.0979 854.24 18.1008 850.418 18.1008C846.597 18.1008 845.548 21.0979 845.548 24.9942ZM853.191 24.9942C853.191 27.6729 852.91 30.0144 850.418 30.0144C847.927 30.0144 847.646 27.6729 847.646 24.9942C847.646 22.4466 847.927 20.0489 850.418 20.0489C852.91 20.0489 853.191 22.4466 853.191 24.9942ZM857.511 21.7161H859.59C859.721 20.7608 860.414 19.8616 861.913 19.8616C863.374 19.8616 864.142 20.6484 864.142 21.8285C864.142 23.2896 862.962 23.8515 861.032 23.8703H860.527V25.6311H861.014C863.243 25.6311 864.404 26.2493 864.404 28.0475C864.404 29.3213 863.617 30.2954 862.025 30.2954C860.414 30.2954 859.478 29.3213 859.384 28.0475H857.323C857.454 30.7262 859.459 32.0749 862.044 32.0749C864.891 32.0749 866.427 30.4265 866.427 28.2536C866.427 26.3616 865.509 25.1815 864.086 24.7507V24.6758C865.153 24.3198 866.184 23.2147 866.184 21.585C866.184 19.5994 864.704 18.0259 861.988 18.0259C859.496 18.0259 857.661 19.3558 857.511 21.7161Z" fill="#212832"/>
<defs>
<filter id="filter0_d_953_501" x="23.5312" y="0.531738" width="365.938" height="47.9365" filterUnits="userSpaceOnUse" color-interpolation-filters="sRGB">
<feFlood flood-opacity="0" result="BackgroundImageFix"/>
<feColorMatrix in="SourceAlpha" type="matrix" values="0 0 0 0 0 0 0 0 0 0 0 0 0 0 0 0 0 0 127 0" result="hardAlpha"/>
<feOffset/>
<feComposite in2="hardAlpha" operator="out"/>
<feColorMatrix type="matrix" values="0 0 0 0 0 0 0 0 0 0 0 0 0 0 0 0 0 0 0.1 0"/>
<feBlend mode="normal" in2="BackgroundImageFix" result="effect1_dropShadow_953_501"/>
<feBlend mode="normal" in="SourceGraphic" in2="effect1_dropShadow_953_501" result="shape"/>
</filter>
<filter id="filter1_d_953_501" x="23.5312" y="75.5317" width="365.938" height="47.9365" filterUnits="userSpaceOnUse" color-interpolation-filters="sRGB">
<feFlood flood-opacity="0" result="BackgroundImageFix"/>
<feColorMatrix in="SourceAlpha" type="matrix" values="0 0 0 0 0 0 0 0 0 0 0 0 0 0 0 0 0 0 127 0" result="hardAlpha"/>
<feOffset/>
<feComposite in2="hardAlpha" operator="out"/>
<feColorMatrix type="matrix" values="0 0 0 0 0 0 0 0 0 0 0 0 0 0 0 0 0 0 0.1 0"/>
<feBlend mode="normal" in2="BackgroundImageFix" result="effect1_dropShadow_953_501"/>
<feBlend mode="normal" in="SourceGraphic" in2="effect1_dropShadow_953_501" result="shape"/>
</filter>
<filter id="filter2_d_953_501" x="23.5312" y="150.532" width="365.938" height="47.9365" filterUnits="userSpaceOnUse" color-interpolation-filters="sRGB">
<feFlood flood-opacity="0" result="BackgroundImageFix"/>
<feColorMatrix in="SourceAlpha" type="matrix" values="0 0 0 0 0 0 0 0 0 0 0 0 0 0 0 0 0 0 127 0" result="hardAlpha"/>
<feOffset/>
<feComposite in2="hardAlpha" operator="out"/>
<feColorMatrix type="matrix" values="0 0 0 0 0 0 0 0 0 0 0 0 0 0 0 0 0 0 0.1 0"/>
<feBlend mode="normal" in2="BackgroundImageFix" result="effect1_dropShadow_953_501"/>
<feBlend mode="normal" in="SourceGraphic" in2="effect1_dropShadow_953_501" result="shape"/>
</filter>
<filter id="filter3_d_953_501" x="436.531" y="150.532" width="365.938" height="47.9365" filterUnits="userSpaceOnUse" color-interpolation-filters="sRGB">
<feFlood flood-opacity="0" result="BackgroundImageFix"/>
<feColorMatrix in="SourceAlpha" type="matrix" values="0 0 0 0 0 0 0 0 0 0 0 0 0 0 0 0 0 0 127 0" result="hardAlpha"/>
<feOffset/>
<feComposite in2="hardAlpha" operator="out"/>
<feColorMatrix type="matrix" values="0 0 0 0 0 0 0 0 0 0 0 0 0 0 0 0 0 0 0.1 0"/>
<feBlend mode="normal" in2="BackgroundImageFix" result="effect1_dropShadow_953_501"/>
<feBlend mode="normal" in="SourceGraphic" in2="effect1_dropShadow_953_501" result="shape"/>
</filter>
<filter id="filter4_d_953_501" x="435.531" y="75.5317" width="365.938" height="47.9365" filterUnits="userSpaceOnUse" color-interpolation-filters="sRGB">
<feFlood flood-opacity="0" result="BackgroundImageFix"/>
<feColorMatrix in="SourceAlpha" type="matrix" values="0 0 0 0 0 0 0 0 0 0 0 0 0 0 0 0 0 0 127 0" result="hardAlpha"/>
<feOffset/>
<feComposite in2="hardAlpha" operator="out"/>
<feColorMatrix type="matrix" values="0 0 0 0 0 0 0 0 0 0 0 0 0 0 0 0 0 0 0.1 0"/>
<feBlend mode="normal" in2="BackgroundImageFix" result="effect1_dropShadow_953_501"/>
<feBlend mode="normal" in="SourceGraphic" in2="effect1_dropShadow_953_501" result="shape"/>
</filter>
<filter id="filter5_d_953_501" x="858.531" y="75.5317" width="365.938" height="47.9365" filterUnits="userSpaceOnUse" color-interpolation-filters="sRGB">
<feFlood flood-opacity="0" result="BackgroundImageFix"/>
<feColorMatrix in="SourceAlpha" type="matrix" values="0 0 0 0 0 0 0 0 0 0 0 0 0 0 0 0 0 0 127 0" result="hardAlpha"/>
<feOffset/>
<feComposite in2="hardAlpha" operator="out"/>
<feColorMatrix type="matrix" values="0 0 0 0 0 0 0 0 0 0 0 0 0 0 0 0 0 0 0.1 0"/>
<feBlend mode="normal" in2="BackgroundImageFix" result="effect1_dropShadow_953_501"/>
<feBlend mode="normal" in="SourceGraphic" in2="effect1_dropShadow_953_501" result="shape"/>
</filter>
<filter id="filter6_d_953_501" x="436.531" y="0.531738" width="365.938" height="47.9365" filterUnits="userSpaceOnUse" color-interpolation-filters="sRGB">
<feFlood flood-opacity="0" result="BackgroundImageFix"/>
<feColorMatrix in="SourceAlpha" type="matrix" values="0 0 0 0 0 0 0 0 0 0 0 0 0 0 0 0 0 0 127 0" result="hardAlpha"/>
<feOffset/>
<feComposite in2="hardAlpha" operator="out"/>
<feColorMatrix type="matrix" values="0 0 0 0 0 0 0 0 0 0 0 0 0 0 0 0 0 0 0.1 0"/>
<feBlend mode="normal" in2="BackgroundImageFix" result="effect1_dropShadow_953_501"/>
<feBlend mode="normal" in="SourceGraphic" in2="effect1_dropShadow_953_501" result="shape"/>
</filter>
<filter id="filter7_d_953_501" x="859.531" y="0.531738" width="365.938" height="47.9365" filterUnits="userSpaceOnUse" color-interpolation-filters="sRGB">
<feFlood flood-opacity="0" result="BackgroundImageFix"/>
<feColorMatrix in="SourceAlpha" type="matrix" values="0 0 0 0 0 0 0 0 0 0 0 0 0 0 0 0 0 0 127 0" result="hardAlpha"/>
<feOffset/>
<feComposite in2="hardAlpha" operator="out"/>
<feColorMatrix type="matrix" values="0 0 0 0 0 0 0 0 0 0 0 0 0 0 0 0 0 0 0.1 0"/>
<feBlend mode="normal" in2="BackgroundImageFix" result="effect1_dropShadow_953_501"/>
<feBlend mode="normal" in="SourceGraphic" in2="effect1_dropShadow_953_501" result="shape"/>
</filter>
</defs>
</svg>
