<svg width="617" height="572" viewBox="0 0 617 572" fill="none" xmlns="http://www.w3.org/2000/svg">
<rect width="617" height="58" fill="#3498DB"/>
<path d="M33.925 32.95C33.925 26.8 24.975 28.75 24.975 25.25C24.975 23.825 26 23.15 27.375 23.2C28.875 23.225 29.8 24.125 29.875 25.275H33.725C33.5 22.125 31.05 20.3 27.475 20.3C23.875 20.3 21.325 22.2 21.325 25.35C21.3 31.675 30.3 29.4 30.3 33.175C30.3 34.425 29.325 35.3 27.675 35.3C26.05 35.3 25.125 34.375 25.025 32.975H21.275C21.325 36.275 24.125 38.175 27.75 38.175C31.725 38.175 33.925 35.7 33.925 32.95ZM43.4094 26.8C45.2094 26.8 46.6594 27.95 46.7094 29.775H40.1344C40.4094 27.875 41.7344 26.8 43.4094 26.8ZM49.9844 33.65H46.2094C45.7594 34.575 44.9344 35.325 43.4344 35.325C41.6844 35.325 40.2844 34.175 40.1094 32.125H50.2344C50.3094 31.675 50.3344 31.225 50.3344 30.775C50.3344 26.65 47.5094 23.925 43.5094 23.925C39.4094 23.925 36.5594 26.7 36.5594 31.075C36.5594 35.425 39.4844 38.225 43.5094 38.225C46.9344 38.225 49.2344 36.2 49.9844 33.65ZM72.7641 38H76.2641V29.875C76.2641 26.05 73.9141 23.95 70.5891 23.95C68.5641 23.95 66.7391 25.025 65.8391 26.6C64.8891 24.875 63.1141 23.95 60.9641 23.95C59.2391 23.95 57.7641 24.675 56.8891 25.825V24.15H53.3891V38H56.8891V30.35C56.8891 28.15 58.1141 27 60.0141 27C61.8641 27 63.0891 28.15 63.0891 30.35V38H66.5891V30.35C66.5891 28.15 67.8141 27 69.6891 27C71.5391 27 72.7641 28.15 72.7641 30.35V38ZM86.0354 26.8C87.8354 26.8 89.2854 27.95 89.3354 29.775H82.7604C83.0354 27.875 84.3604 26.8 86.0354 26.8ZM92.6104 33.65H88.8354C88.3854 34.575 87.5604 35.325 86.0604 35.325C84.3104 35.325 82.9104 34.175 82.7354 32.125H92.8604C92.9354 31.675 92.9604 31.225 92.9604 30.775C92.9604 26.65 90.1354 23.925 86.1354 23.925C82.0354 23.925 79.1854 26.7 79.1854 31.075C79.1854 35.425 82.1104 38.225 86.1354 38.225C89.5604 38.225 91.8604 36.2 92.6104 33.65ZM106.765 34.05C106.665 28.975 98.99 30.55 98.99 28.025C98.99 27.225 99.665 26.7 100.965 26.7C102.34 26.7 103.19 27.425 103.29 28.5H106.64C106.44 25.75 104.415 23.925 101.065 23.925C97.64 23.925 95.59 25.775 95.59 28.075C95.59 33.15 103.415 31.575 103.415 34.05C103.415 34.85 102.665 35.475 101.29 35.475C99.89 35.475 98.915 34.675 98.79 33.625H95.265C95.415 36.2 97.84 38.225 101.315 38.225C104.69 38.225 106.765 36.425 106.765 34.05ZM110.688 33.7C110.688 36.875 112.463 38 115.113 38H117.313V35.05H115.688C114.588 35.05 114.213 34.65 114.213 33.725V27.025H117.313V24.15H114.213V20.725H110.688V24.15H109.038V27.025H110.688V33.7ZM126.28 26.8C128.08 26.8 129.53 27.95 129.58 29.775H123.005C123.28 27.875 124.605 26.8 126.28 26.8ZM132.855 33.65H129.08C128.63 34.575 127.805 35.325 126.305 35.325C124.555 35.325 123.155 34.175 122.98 32.125H133.105C133.18 31.675 133.205 31.225 133.205 30.775C133.205 26.65 130.38 23.925 126.38 23.925C122.28 23.925 119.43 26.7 119.43 31.075C119.43 35.425 122.355 38.225 126.38 38.225C129.805 38.225 132.105 36.2 132.855 33.65ZM139.76 31.1C139.76 28.425 141.01 27.625 143.085 27.625H144.01V23.95C142.085 23.95 140.635 24.875 139.76 26.3V24.15H136.26V38H139.76V31.1ZM152.975 24.575H156.4C156.525 23.425 157.25 22.325 158.95 22.325C160.55 22.325 161.425 23.175 161.425 24.6C161.425 26.4 159.925 26.975 157.875 26.975H157.15V29.85H157.875C160.475 29.85 161.775 30.6 161.775 32.65C161.775 34.1 160.875 35.2 159.125 35.2C157.25 35.2 156.2 34.075 156.125 32.5H152.725C152.875 36.325 155.6 38.125 159.2 38.125C163.025 38.125 165.125 35.925 165.125 32.95C165.125 30.475 163.9 28.975 162.05 28.4V28.3C163.375 27.85 164.8 26.45 164.8 24.175C164.8 21.475 162.8 19.35 159.05 19.35C155.55 19.35 153.15 21.2 152.975 24.575Z" fill="white"/>
<rect y="66" width="617" height="50" fill="white"/>
<path d="M24.6 91.94C26.08 91.94 27.24 90.8 27.24 89.34C27.24 87.86 26.08 86.72 24.6 86.72C23.16 86.72 22 87.86 22 89.34C22 90.8 23.16 91.94 24.6 91.94ZM41.1289 96H43.4089V82.1H41.1289V96ZM54.2223 96H56.4823V89.5C56.4823 86.42 54.5423 84.8 51.9623 84.8C50.6423 84.8 49.4223 85.34 48.6823 86.24V84.98H46.4023V96H48.6823V89.84C48.6823 87.82 49.7823 86.78 51.4623 86.78C53.1223 86.78 54.2223 87.82 54.2223 89.84V96ZM59.7506 92.94C59.7506 95.18 60.9706 96 62.9306 96H64.7306V94.1H63.3306C62.3706 94.1 62.0506 93.76 62.0506 92.94V86.84H64.7306V84.98H62.0506V82.24H59.7506V84.98H58.4506V86.84H59.7506V92.94ZM71.472 86.72C73.172 86.72 74.512 87.8 74.552 89.5H68.452C68.692 87.76 69.932 86.72 71.472 86.72ZM76.632 92.72H74.172C73.752 93.58 72.972 94.26 71.572 94.26C69.892 94.26 68.592 93.16 68.432 91.34H76.852C76.912 90.96 76.932 90.6 76.932 90.22C76.932 86.98 74.712 84.8 71.572 84.8C68.312 84.8 66.072 87.02 66.072 90.48C66.072 93.94 68.412 96.18 71.572 96.18C74.272 96.18 76.012 94.64 76.632 92.72ZM81.4558 90.2C81.4558 87.86 82.4958 87.16 84.1758 87.16H84.7558V84.8C83.1958 84.8 82.0958 85.48 81.4558 86.58V84.98H79.1758V96H81.4558V90.2ZM89.1316 86.6V84.98H86.8516V101.24H89.1316V94.4C89.8516 95.26 91.1516 96.18 92.9716 96.18C95.8716 96.18 98.1516 93.84 98.1516 90.44C98.1516 87.04 95.8716 84.8 92.9716 84.8C91.1716 84.8 89.8316 85.68 89.1316 86.6ZM95.8316 90.44C95.8316 92.82 94.1916 94.2 92.4716 94.2C90.7716 94.2 89.1316 92.86 89.1316 90.48C89.1316 88.12 90.7716 86.78 92.4716 86.78C94.1916 86.78 95.8316 88.06 95.8316 90.44ZM105.046 86.72C106.746 86.72 108.086 87.8 108.126 89.5H102.026C102.266 87.76 103.506 86.72 105.046 86.72ZM110.206 92.72H107.746C107.326 93.58 106.546 94.26 105.146 94.26C103.466 94.26 102.166 93.16 102.006 91.34H110.426C110.486 90.96 110.506 90.6 110.506 90.22C110.506 86.98 108.286 84.8 105.146 84.8C101.886 84.8 99.6463 87.02 99.6463 90.48C99.6463 93.94 101.986 96.18 105.146 96.18C107.846 96.18 109.586 94.64 110.206 92.72ZM115.03 90.2C115.03 87.86 116.07 87.16 117.75 87.16H118.33V84.8C116.77 84.8 115.67 85.48 115.03 86.58V84.98H112.75V96H115.03V90.2ZM128.646 92.92C128.526 88.94 122.306 90.18 122.306 87.96C122.306 87.22 122.946 86.72 124.166 86.72C125.406 86.72 126.146 87.38 126.226 88.34H128.506C128.386 86.14 126.746 84.8 124.246 84.8C121.646 84.8 120.006 86.22 120.006 87.98C120.006 92.02 126.406 90.78 126.406 92.94C126.406 93.7 125.706 94.26 124.386 94.26C123.126 94.26 122.266 93.52 122.186 92.62H119.826C119.926 94.62 121.786 96.18 124.426 96.18C127.026 96.18 128.646 94.78 128.646 92.92ZM141.609 90.48C141.609 87.02 139.129 84.8 135.989 84.8C132.849 84.8 130.369 87.02 130.369 90.48C130.369 93.94 132.749 96.18 135.889 96.18C139.049 96.18 141.609 93.94 141.609 90.48ZM132.689 90.48C132.689 87.98 134.229 86.78 135.949 86.78C137.649 86.78 139.269 87.98 139.269 90.48C139.269 92.98 137.589 94.2 135.889 94.2C134.169 94.2 132.689 92.98 132.689 90.48ZM151.683 96H153.943V89.5C153.943 86.42 152.003 84.8 149.423 84.8C148.103 84.8 146.883 85.34 146.143 86.24V84.98H143.863V96H146.143V89.84C146.143 87.82 147.243 86.78 148.923 86.78C150.583 86.78 151.683 87.82 151.683 89.84V96ZM156.092 90.44C156.092 93.84 158.392 96.18 161.252 96.18C163.092 96.18 164.412 95.3 165.112 94.36V96H167.412V84.98H165.112V86.58C164.432 85.68 163.152 84.8 161.292 84.8C158.392 84.8 156.092 87.04 156.092 90.44ZM165.112 90.48C165.112 92.86 163.492 94.2 161.772 94.2C160.072 94.2 158.432 92.82 158.432 90.44C158.432 88.06 160.072 86.78 161.772 86.78C163.492 86.78 165.112 88.12 165.112 90.48ZM170.406 96H172.686V81.2H170.406V96ZM180.115 89.02C180.115 93.2 183.295 96.12 187.215 96.12C190.115 96.12 192.615 94.68 193.675 91.96H190.935C190.195 93.44 188.875 94.14 187.215 94.14C184.455 94.14 182.455 92.16 182.455 89.02C182.455 85.88 184.455 83.92 187.215 83.92C188.875 83.92 190.195 84.62 190.935 86.1H193.675C192.615 83.38 190.115 81.92 187.215 81.92C183.295 81.92 180.115 84.86 180.115 89.02ZM206.844 90.48C206.844 87.02 204.364 84.8 201.224 84.8C198.084 84.8 195.604 87.02 195.604 90.48C195.604 93.94 197.984 96.18 201.124 96.18C204.284 96.18 206.844 93.94 206.844 90.48ZM197.924 90.48C197.924 87.98 199.464 86.78 201.184 86.78C202.884 86.78 204.504 87.98 204.504 90.48C204.504 92.98 202.824 94.2 201.124 94.2C199.404 94.2 197.924 92.98 197.924 90.48ZM224.718 96H226.978V89.5C226.978 86.42 225.018 84.8 222.438 84.8C220.838 84.8 219.278 85.64 218.598 86.98C217.838 85.54 216.378 84.8 214.638 84.8C213.318 84.8 212.118 85.34 211.378 86.24V84.98H209.098V96H211.378V89.84C211.378 87.82 212.478 86.78 214.158 86.78C215.818 86.78 216.918 87.82 216.918 89.84V96H219.178V89.84C219.178 87.82 220.278 86.78 221.958 86.78C223.618 86.78 224.718 87.82 224.718 89.84V96ZM245.499 96H247.759V89.5C247.759 86.42 245.799 84.8 243.219 84.8C241.619 84.8 240.059 85.64 239.379 86.98C238.619 85.54 237.159 84.8 235.419 84.8C234.099 84.8 232.899 85.34 232.159 86.24V84.98H229.879V96H232.159V89.84C232.159 87.82 233.259 86.78 234.939 86.78C236.599 86.78 237.699 87.82 237.699 89.84V96H239.959V89.84C239.959 87.82 241.059 86.78 242.739 86.78C244.399 86.78 245.499 87.82 245.499 89.84V96ZM260.64 84.98H258.36V91.12C258.36 93.14 257.26 94.18 255.58 94.18C253.92 94.18 252.82 93.14 252.82 91.12V84.98H250.56V91.46C250.56 94.54 252.52 96.16 255.1 96.16C256.4 96.16 257.64 95.62 258.36 94.68V96H260.64V84.98ZM271.468 96H273.728V89.5C273.728 86.42 271.788 84.8 269.208 84.8C267.888 84.8 266.668 85.34 265.928 86.24V84.98H263.648V96H265.928V89.84C265.928 87.82 267.028 86.78 268.708 86.78C270.368 86.78 271.468 87.82 271.468 89.84V96ZM276.637 96H278.917V84.98H276.637V96ZM277.797 83.52C278.597 83.52 279.237 82.88 279.237 82.06C279.237 81.24 278.597 80.6 277.797 80.6C276.977 80.6 276.337 81.24 276.337 82.06C276.337 82.88 276.977 83.52 277.797 83.52ZM281.15 90.48C281.15 93.94 283.39 96.18 286.55 96.18C289.25 96.18 291.01 94.68 291.63 92.52H289.17C288.75 93.66 287.91 94.26 286.55 94.26C284.71 94.26 283.49 92.9 283.49 90.48C283.49 88.08 284.71 86.72 286.55 86.72C287.91 86.72 288.79 87.4 289.17 88.46H291.63C291.01 86.14 289.25 84.8 286.55 84.8C283.39 84.8 281.15 87.04 281.15 90.48ZM293.142 90.44C293.142 93.84 295.442 96.18 298.302 96.18C300.142 96.18 301.462 95.3 302.162 94.36V96H304.462V84.98H302.162V86.58C301.482 85.68 300.202 84.8 298.342 84.8C295.442 84.8 293.142 87.04 293.142 90.44ZM302.162 90.48C302.162 92.86 300.542 94.2 298.822 94.2C297.122 94.2 295.482 92.82 295.482 90.44C295.482 88.06 297.122 86.78 298.822 86.78C300.542 86.78 302.162 88.12 302.162 90.48ZM307.817 92.94C307.817 95.18 309.037 96 310.997 96H312.797V94.1H311.397C310.437 94.1 310.117 93.76 310.117 92.94V86.84H312.797V84.98H310.117V82.24H307.817V84.98H306.517V86.84H307.817V92.94ZM314.898 96H317.178V84.98H314.898V96ZM316.058 83.52C316.858 83.52 317.498 82.88 317.498 82.06C317.498 81.24 316.858 80.6 316.058 80.6C315.238 80.6 314.598 81.24 314.598 82.06C314.598 82.88 315.238 83.52 316.058 83.52ZM330.672 90.48C330.672 87.02 328.192 84.8 325.052 84.8C321.912 84.8 319.432 87.02 319.432 90.48C319.432 93.94 321.812 96.18 324.952 96.18C328.112 96.18 330.672 93.94 330.672 90.48ZM321.752 90.48C321.752 87.98 323.292 86.78 325.012 86.78C326.712 86.78 328.332 87.98 328.332 90.48C328.332 92.98 326.652 94.2 324.952 94.2C323.232 94.2 321.752 92.98 321.752 90.48ZM340.746 96H343.006V89.5C343.006 86.42 341.066 84.8 338.486 84.8C337.166 84.8 335.946 85.34 335.206 86.24V84.98H332.926V96H335.206V89.84C335.206 87.82 336.306 86.78 337.986 86.78C339.646 86.78 340.746 87.82 340.746 89.84V96Z" fill="#212832"/>
<rect x="0.5" y="66.5" width="616" height="49" stroke="black" stroke-opacity="0.5"/>
<rect y="294" width="617" height="50" fill="white"/>
<path d="M24.6 319.94C26.08 319.94 27.24 318.8 27.24 317.34C27.24 315.86 26.08 314.72 24.6 314.72C23.16 314.72 22 315.86 22 317.34C22 318.8 23.16 319.94 24.6 319.94ZM45.6689 310.1H41.1289V324H45.6689C50.1289 324 53.0489 321.38 53.0489 317.1C53.0489 312.8 50.1289 310.1 45.6689 310.1ZM43.4089 322.14V311.96H45.6689C48.9489 311.96 50.7089 313.92 50.7089 317.1C50.7089 320.26 48.9489 322.14 45.6689 322.14H43.4089ZM54.5486 318.44C54.5486 321.84 56.8486 324.18 59.7086 324.18C61.5486 324.18 62.8686 323.3 63.5686 322.36V324H65.8686V312.98H63.5686V314.58C62.8886 313.68 61.6086 312.8 59.7486 312.8C56.8486 312.8 54.5486 315.04 54.5486 318.44ZM63.5686 318.48C63.5686 320.86 61.9486 322.2 60.2286 322.2C58.5286 322.2 56.8886 320.82 56.8886 318.44C56.8886 316.06 58.5286 314.78 60.2286 314.78C61.9486 314.78 63.5686 316.12 63.5686 318.48ZM69.2233 320.94C69.2233 323.18 70.4433 324 72.4033 324H74.2033V322.1H72.8033C71.8433 322.1 71.5233 321.76 71.5233 320.94V314.84H74.2033V312.98H71.5233V310.24H69.2233V312.98H67.9233V314.84H69.2233V320.94ZM75.5447 318.44C75.5447 321.84 77.8447 324.18 80.7047 324.18C82.5447 324.18 83.8647 323.3 84.5647 322.36V324H86.8647V312.98H84.5647V314.58C83.8847 313.68 82.6047 312.8 80.7447 312.8C77.8447 312.8 75.5447 315.04 75.5447 318.44ZM84.5647 318.48C84.5647 320.86 82.9447 322.2 81.2247 322.2C79.5247 322.2 77.8847 320.82 77.8847 318.44C77.8847 316.06 79.5247 314.78 81.2247 314.78C82.9447 314.78 84.5647 316.12 84.5647 318.48ZM92.1394 314.62V309.2H89.8594V324H92.1394V322.4C92.8594 323.36 94.1594 324.18 95.9794 324.18C98.8794 324.18 101.159 321.84 101.159 318.44C101.159 315.04 98.8994 312.8 95.9794 312.8C94.2394 312.8 92.8594 313.62 92.1394 314.62ZM98.8394 318.44C98.8394 320.82 97.1994 322.2 95.4794 322.2C93.7794 322.2 92.1394 320.86 92.1394 318.48C92.1394 316.12 93.7794 314.78 95.4794 314.78C97.1994 314.78 98.8394 316.06 98.8394 318.44ZM102.654 318.44C102.654 321.84 104.954 324.18 107.814 324.18C109.654 324.18 110.974 323.3 111.674 322.36V324H113.974V312.98H111.674V314.58C110.994 313.68 109.714 312.8 107.854 312.8C104.954 312.8 102.654 315.04 102.654 318.44ZM111.674 318.48C111.674 320.86 110.054 322.2 108.334 322.2C106.634 322.2 104.994 320.82 104.994 318.44C104.994 316.06 106.634 314.78 108.334 314.78C110.054 314.78 111.674 316.12 111.674 318.48ZM125.189 320.92C125.069 316.94 118.849 318.18 118.849 315.96C118.849 315.22 119.489 314.72 120.709 314.72C121.949 314.72 122.689 315.38 122.769 316.34H125.049C124.929 314.14 123.289 312.8 120.789 312.8C118.189 312.8 116.549 314.22 116.549 315.98C116.549 320.02 122.949 318.78 122.949 320.94C122.949 321.7 122.249 322.26 120.929 322.26C119.669 322.26 118.809 321.52 118.729 320.62H116.369C116.469 322.62 118.329 324.18 120.969 324.18C123.569 324.18 125.189 322.78 125.189 320.92ZM132.292 314.72C133.992 314.72 135.332 315.8 135.372 317.5H129.272C129.512 315.76 130.752 314.72 132.292 314.72ZM137.452 320.72H134.992C134.572 321.58 133.792 322.26 132.392 322.26C130.712 322.26 129.412 321.16 129.252 319.34H137.672C137.732 318.96 137.752 318.6 137.752 318.22C137.752 314.98 135.532 312.8 132.392 312.8C129.132 312.8 126.892 315.02 126.892 318.48C126.892 321.94 129.232 324.18 132.392 324.18C135.092 324.18 136.832 322.64 137.452 320.72ZM145.191 324H147.471V314.48L151.731 324H153.311L157.551 314.48V324H159.831V310.1H157.391L152.531 321L147.651 310.1H145.191V324ZM162.068 318.44C162.068 321.84 164.368 324.18 167.228 324.18C169.068 324.18 170.388 323.3 171.088 322.36V324H173.388V312.98H171.088V314.58C170.408 313.68 169.128 312.8 167.268 312.8C164.368 312.8 162.068 315.04 162.068 318.44ZM171.088 318.48C171.088 320.86 169.468 322.2 167.748 322.2C166.048 322.2 164.408 320.82 164.408 318.44C164.408 316.06 166.048 314.78 167.748 314.78C169.468 314.78 171.088 316.12 171.088 318.48ZM184.203 324H186.463V317.5C186.463 314.42 184.523 312.8 181.943 312.8C180.623 312.8 179.403 313.34 178.663 314.24V312.98H176.383V324H178.663V317.84C178.663 315.82 179.763 314.78 181.443 314.78C183.103 314.78 184.203 315.82 184.203 317.84V324ZM188.611 318.44C188.611 321.84 190.911 324.18 193.771 324.18C195.611 324.18 196.931 323.3 197.631 322.36V324H199.931V312.98H197.631V314.58C196.951 313.68 195.671 312.8 193.811 312.8C190.911 312.8 188.611 315.04 188.611 318.44ZM197.631 318.48C197.631 320.86 196.011 322.2 194.291 322.2C192.591 322.2 190.951 320.82 190.951 318.44C190.951 316.06 192.591 314.78 194.291 314.78C196.011 314.78 197.631 316.12 197.631 318.48ZM202.166 318.44C202.166 321.84 204.466 324.18 207.366 324.18C209.166 324.18 210.486 323.28 211.186 322.34V324.18C211.186 326.38 209.866 327.46 208.106 327.46C206.526 327.46 205.306 326.68 204.966 325.54H202.706C202.986 327.98 205.166 329.44 208.106 329.44C211.546 329.44 213.486 327.18 213.486 324.18V312.98H211.186V314.58C210.506 313.64 209.166 312.8 207.366 312.8C204.466 312.8 202.166 315.04 202.166 318.44ZM211.186 318.48C211.186 320.86 209.566 322.2 207.846 322.2C206.146 322.2 204.506 320.82 204.506 318.44C204.506 316.06 206.146 314.78 207.846 314.78C209.566 314.78 211.186 316.12 211.186 318.48ZM221.12 314.72C222.82 314.72 224.16 315.8 224.2 317.5H218.1C218.34 315.76 219.58 314.72 221.12 314.72ZM226.28 320.72H223.82C223.4 321.58 222.62 322.26 221.22 322.26C219.54 322.26 218.24 321.16 218.08 319.34H226.5C226.56 318.96 226.58 318.6 226.58 318.22C226.58 314.98 224.36 312.8 221.22 312.8C217.96 312.8 215.72 315.02 215.72 318.48C215.72 321.94 218.06 324.18 221.22 324.18C223.92 324.18 225.66 322.64 226.28 320.72ZM244.444 324H246.704V317.5C246.704 314.42 244.744 312.8 242.164 312.8C240.564 312.8 239.004 313.64 238.324 314.98C237.564 313.54 236.104 312.8 234.364 312.8C233.044 312.8 231.844 313.34 231.104 314.24V312.98H228.824V324H231.104V317.84C231.104 315.82 232.204 314.78 233.884 314.78C235.544 314.78 236.644 315.82 236.644 317.84V324H238.904V317.84C238.904 315.82 240.004 314.78 241.684 314.78C243.344 314.78 244.444 315.82 244.444 317.84V324ZM254.245 314.72C255.945 314.72 257.285 315.8 257.325 317.5H251.225C251.465 315.76 252.705 314.72 254.245 314.72ZM259.405 320.72H256.945C256.525 321.58 255.745 322.26 254.345 322.26C252.665 322.26 251.365 321.16 251.205 319.34H259.625C259.685 318.96 259.705 318.6 259.705 318.22C259.705 314.98 257.485 312.8 254.345 312.8C251.085 312.8 248.845 315.02 248.845 318.48C248.845 321.94 251.185 324.18 254.345 324.18C257.045 324.18 258.785 322.64 259.405 320.72ZM269.769 324H272.029V317.5C272.029 314.42 270.089 312.8 267.509 312.8C266.189 312.8 264.969 313.34 264.229 314.24V312.98H261.949V324H264.229V317.84C264.229 315.82 265.329 314.78 267.009 314.78C268.669 314.78 269.769 315.82 269.769 317.84V324ZM275.298 320.94C275.298 323.18 276.518 324 278.478 324H280.278V322.1H278.878C277.918 322.1 277.598 321.76 277.598 320.94V314.84H280.278V312.98H277.598V310.24H275.298V312.98H273.998V314.84H275.298V320.94ZM296.954 320.06C296.954 314.98 289.594 316.94 289.594 313.8C289.594 312.46 290.614 311.82 291.934 311.86C293.374 311.9 294.194 312.76 294.274 313.7H296.794C296.594 311.32 294.714 309.92 292.054 309.92C289.214 309.92 287.274 311.44 287.274 313.88C287.274 319 294.654 316.82 294.654 320.18C294.654 321.36 293.754 322.22 292.154 322.22C290.574 322.22 289.774 321.3 289.674 320.16H287.234C287.234 322.62 289.374 324.14 292.154 324.14C295.254 324.14 296.954 322.14 296.954 320.06ZM303.985 321.38L300.885 312.98H298.345L302.685 323.82L300.445 329.18H302.805L309.565 312.98H307.205L303.985 321.38ZM319.505 320.92C319.385 316.94 313.165 318.18 313.165 315.96C313.165 315.22 313.805 314.72 315.025 314.72C316.265 314.72 317.005 315.38 317.085 316.34H319.365C319.245 314.14 317.605 312.8 315.105 312.8C312.505 312.8 310.865 314.22 310.865 315.98C310.865 320.02 317.265 318.78 317.265 320.94C317.265 321.7 316.565 322.26 315.245 322.26C313.985 322.26 313.125 321.52 313.045 320.62H310.685C310.785 322.62 312.645 324.18 315.285 324.18C317.885 324.18 319.505 322.78 319.505 320.92ZM322.329 320.94C322.329 323.18 323.549 324 325.509 324H327.309V322.1H325.909C324.949 322.1 324.629 321.76 324.629 320.94V314.84H327.309V312.98H324.629V310.24H322.329V312.98H321.029V314.84H322.329V320.94ZM334.05 314.72C335.75 314.72 337.09 315.8 337.13 317.5H331.03C331.27 315.76 332.51 314.72 334.05 314.72ZM339.21 320.72H336.75C336.33 321.58 335.55 322.26 334.15 322.26C332.47 322.26 331.17 321.16 331.01 319.34H339.43C339.49 318.96 339.51 318.6 339.51 318.22C339.51 314.98 337.29 312.8 334.15 312.8C330.89 312.8 328.65 315.02 328.65 318.48C328.65 321.94 330.99 324.18 334.15 324.18C336.85 324.18 338.59 322.64 339.21 320.72ZM357.374 324H359.634V317.5C359.634 314.42 357.674 312.8 355.094 312.8C353.494 312.8 351.934 313.64 351.254 314.98C350.494 313.54 349.034 312.8 347.294 312.8C345.974 312.8 344.774 313.34 344.034 314.24V312.98H341.754V324H344.034V317.84C344.034 315.82 345.134 314.78 346.814 314.78C348.474 314.78 349.574 315.82 349.574 317.84V324H351.834V317.84C351.834 315.82 352.934 314.78 354.614 314.78C356.274 314.78 357.374 315.82 357.374 317.84V324ZM370.755 320.92C370.635 316.94 364.415 318.18 364.415 315.96C364.415 315.22 365.055 314.72 366.275 314.72C367.515 314.72 368.255 315.38 368.335 316.34H370.615C370.495 314.14 368.855 312.8 366.355 312.8C363.755 312.8 362.115 314.22 362.115 315.98C362.115 320.02 368.515 318.78 368.515 320.94C368.515 321.7 367.815 322.26 366.495 322.26C365.235 322.26 364.375 321.52 364.295 320.62H361.935C362.035 322.62 363.895 324.18 366.535 324.18C369.135 324.18 370.755 322.78 370.755 320.92Z" fill="#212832"/>
<rect x="0.5" y="294.5" width="616" height="49" stroke="black" stroke-opacity="0.5"/>
<rect y="180" width="617" height="50" fill="white"/>
<path d="M24.6 205.94C26.08 205.94 27.24 204.8 27.24 203.34C27.24 201.86 26.08 200.72 24.6 200.72C23.16 200.72 22 201.86 22 203.34C22 204.8 23.16 205.94 24.6 205.94ZM41.1289 210H43.4089V203.92H48.0089V202.06H43.4089V197.96H49.3089V196.1H41.1289V210ZM51.4219 210H53.7019V198.98H51.4219V210ZM52.5819 197.52C53.3819 197.52 54.0219 196.88 54.0219 196.06C54.0219 195.24 53.3819 194.6 52.5819 194.6C51.7619 194.6 51.1219 195.24 51.1219 196.06C51.1219 196.88 51.7619 197.52 52.5819 197.52ZM64.5153 210H66.7753V203.5C66.7753 200.42 64.8353 198.8 62.2553 198.8C60.9353 198.8 59.7153 199.34 58.9753 200.24V198.98H56.6953V210H58.9753V203.84C58.9753 201.82 60.0753 200.78 61.7553 200.78C63.4153 200.78 64.5153 201.82 64.5153 203.84V210ZM68.9236 204.44C68.9236 207.84 71.2236 210.18 74.0836 210.18C75.9236 210.18 77.2436 209.3 77.9436 208.36V210H80.2436V198.98H77.9436V200.58C77.2636 199.68 75.9836 198.8 74.1236 198.8C71.2236 198.8 68.9236 201.04 68.9236 204.44ZM77.9436 204.48C77.9436 206.86 76.3236 208.2 74.6036 208.2C72.9036 208.2 71.2636 206.82 71.2636 204.44C71.2636 202.06 72.9036 200.78 74.6036 200.78C76.3236 200.78 77.9436 202.12 77.9436 204.48ZM91.0583 210H93.3183V203.5C93.3183 200.42 91.3783 198.8 88.7983 198.8C87.4783 198.8 86.2583 199.34 85.5183 200.24V198.98H83.2383V210H85.5183V203.84C85.5183 201.82 86.6183 200.78 88.2983 200.78C89.9583 200.78 91.0583 201.82 91.0583 203.84V210ZM95.4666 204.48C95.4666 207.94 97.7066 210.18 100.867 210.18C103.567 210.18 105.327 208.68 105.947 206.52H103.487C103.067 207.66 102.227 208.26 100.867 208.26C99.0266 208.26 97.8066 206.9 97.8066 204.48C97.8066 202.08 99.0266 200.72 100.867 200.72C102.227 200.72 103.107 201.4 103.487 202.46H105.947C105.327 200.14 103.567 198.8 100.867 198.8C97.7066 198.8 95.4666 201.04 95.4666 204.48ZM108.219 210H110.499V198.98H108.219V210ZM109.379 197.52C110.179 197.52 110.819 196.88 110.819 196.06C110.819 195.24 110.179 194.6 109.379 194.6C108.559 194.6 107.919 195.24 107.919 196.06C107.919 196.88 108.559 197.52 109.379 197.52ZM112.732 204.44C112.732 207.84 115.032 210.18 117.892 210.18C119.732 210.18 121.052 209.3 121.752 208.36V210H124.052V198.98H121.752V200.58C121.072 199.68 119.792 198.8 117.932 198.8C115.032 198.8 112.732 201.04 112.732 204.44ZM121.752 204.48C121.752 206.86 120.132 208.2 118.412 208.2C116.712 208.2 115.072 206.82 115.072 204.44C115.072 202.06 116.712 200.78 118.412 200.78C120.132 200.78 121.752 202.12 121.752 204.48ZM127.047 210H129.327V195.2H127.047V210ZM146.896 210H149.296L144.316 196.08H141.676L136.696 210H139.076L140.076 207.16H145.896L146.896 210ZM145.256 205.3H140.716L142.996 198.84L145.256 205.3ZM150.701 204.48C150.701 207.94 152.941 210.18 156.101 210.18C158.801 210.18 160.561 208.68 161.181 206.52H158.721C158.301 207.66 157.461 208.26 156.101 208.26C154.261 208.26 153.041 206.9 153.041 204.48C153.041 202.08 154.261 200.72 156.101 200.72C157.461 200.72 158.341 201.4 158.721 202.46H161.181C160.561 200.14 158.801 198.8 156.101 198.8C152.941 198.8 150.701 201.04 150.701 204.48ZM162.693 204.48C162.693 207.94 164.933 210.18 168.093 210.18C170.793 210.18 172.553 208.68 173.173 206.52H170.713C170.293 207.66 169.453 208.26 168.093 208.26C166.253 208.26 165.033 206.9 165.033 204.48C165.033 202.08 166.253 200.72 168.093 200.72C169.453 200.72 170.333 201.4 170.713 202.46H173.173C172.553 200.14 170.793 198.8 168.093 198.8C164.933 198.8 162.693 201.04 162.693 204.48ZM185.945 204.48C185.945 201.02 183.465 198.8 180.325 198.8C177.185 198.8 174.705 201.02 174.705 204.48C174.705 207.94 177.085 210.18 180.225 210.18C183.385 210.18 185.945 207.94 185.945 204.48ZM177.025 204.48C177.025 201.98 178.565 200.78 180.285 200.78C181.985 200.78 183.605 201.98 183.605 204.48C183.605 206.98 181.925 208.2 180.225 208.2C178.505 208.2 177.025 206.98 177.025 204.48ZM198.179 198.98H195.899V205.12C195.899 207.14 194.799 208.18 193.119 208.18C191.459 208.18 190.359 207.14 190.359 205.12V198.98H188.099V205.46C188.099 208.54 190.059 210.16 192.639 210.16C193.939 210.16 195.179 209.62 195.899 208.68V210H198.179V198.98ZM209.008 210H211.268V203.5C211.268 200.42 209.328 198.8 206.748 198.8C205.428 198.8 204.208 199.34 203.468 200.24V198.98H201.188V210H203.468V203.84C203.468 201.82 204.568 200.78 206.248 200.78C207.908 200.78 209.008 201.82 209.008 203.84V210ZM214.536 206.94C214.536 209.18 215.756 210 217.716 210H219.516V208.1H218.116C217.156 208.1 216.836 207.76 216.836 206.94V200.84H219.516V198.98H216.836V196.24H214.536V198.98H213.236V200.84H214.536V206.94ZM221.617 210H223.897V198.98H221.617V210ZM222.777 197.52C223.577 197.52 224.217 196.88 224.217 196.06C224.217 195.24 223.577 194.6 222.777 194.6C221.957 194.6 221.317 195.24 221.317 196.06C221.317 196.88 221.957 197.52 222.777 197.52ZM234.711 210H236.971V203.5C236.971 200.42 235.031 198.8 232.451 198.8C231.131 198.8 229.911 199.34 229.171 200.24V198.98H226.891V210H229.171V203.84C229.171 201.82 230.271 200.78 231.951 200.78C233.611 200.78 234.711 201.82 234.711 203.84V210ZM239.119 204.44C239.119 207.84 241.419 210.18 244.319 210.18C246.119 210.18 247.439 209.28 248.139 208.34V210.18C248.139 212.38 246.819 213.46 245.059 213.46C243.479 213.46 242.259 212.68 241.919 211.54H239.659C239.939 213.98 242.119 215.44 245.059 215.44C248.499 215.44 250.439 213.18 250.439 210.18V198.98H248.139V200.58C247.459 199.64 246.119 198.8 244.319 198.8C241.419 198.8 239.119 201.04 239.119 204.44ZM248.139 204.48C248.139 206.86 246.519 208.2 244.799 208.2C243.099 208.2 241.459 206.82 241.459 204.44C241.459 202.06 243.099 200.78 244.799 200.78C246.519 200.78 248.139 202.12 248.139 204.48Z" fill="#212832"/>
<rect x="0.5" y="180.5" width="616" height="49" stroke="black" stroke-opacity="0.5"/>
<rect y="123" width="617" height="50" fill="white"/>
<path d="M24.6 148.94C26.08 148.94 27.24 147.8 27.24 146.34C27.24 144.86 26.08 143.72 24.6 143.72C23.16 143.72 22 144.86 22 146.34C22 147.8 23.16 148.94 24.6 148.94ZM41.1289 153H43.4089V139.1H41.1289V153ZM54.2223 153H56.4823V146.5C56.4823 143.42 54.5423 141.8 51.9623 141.8C50.6423 141.8 49.4223 142.34 48.6823 143.24V141.98H46.4023V153H48.6823V146.84C48.6823 144.82 49.7823 143.78 51.4623 143.78C53.1223 143.78 54.2223 144.82 54.2223 146.84V153ZM59.7506 149.94C59.7506 152.18 60.9706 153 62.9306 153H64.7306V151.1H63.3306C62.3706 151.1 62.0506 150.76 62.0506 149.94V143.84H64.7306V141.98H62.0506V139.24H59.7506V141.98H58.4506V143.84H59.7506V149.94ZM69.112 147.2C69.112 144.86 70.152 144.16 71.832 144.16H72.412V141.8C70.852 141.8 69.752 142.48 69.112 143.58V141.98H66.832V153H69.112V147.2ZM85.0078 147.48C85.0078 144.02 82.5278 141.8 79.3878 141.8C76.2478 141.8 73.7678 144.02 73.7678 147.48C73.7678 150.94 76.1478 153.18 79.2878 153.18C82.4478 153.18 85.0078 150.94 85.0078 147.48ZM76.0878 147.48C76.0878 144.98 77.6278 143.78 79.3478 143.78C81.0478 143.78 82.6678 144.98 82.6678 147.48C82.6678 149.98 80.9878 151.2 79.2878 151.2C77.5678 151.2 76.0878 149.98 76.0878 147.48ZM86.5017 147.44C86.5017 150.84 88.8017 153.18 91.7017 153.18C93.5017 153.18 94.8217 152.34 95.5217 151.34V153H97.8217V138.2H95.5217V143.52C94.6817 142.48 93.1617 141.8 91.7217 141.8C88.8017 141.8 86.5017 144.04 86.5017 147.44ZM95.5217 147.48C95.5217 149.86 93.9017 151.2 92.1817 151.2C90.4817 151.2 88.8417 149.82 88.8417 147.44C88.8417 145.06 90.4817 143.78 92.1817 143.78C93.9017 143.78 95.5217 145.12 95.5217 147.48ZM110.796 141.98H108.516V148.12C108.516 150.14 107.416 151.18 105.736 151.18C104.076 151.18 102.976 150.14 102.976 148.12V141.98H100.716V148.46C100.716 151.54 102.676 153.16 105.256 153.16C106.556 153.16 107.796 152.62 108.516 151.68V153H110.796V141.98ZM113.045 147.48C113.045 150.94 115.285 153.18 118.445 153.18C121.145 153.18 122.905 151.68 123.525 149.52H121.065C120.645 150.66 119.805 151.26 118.445 151.26C116.605 151.26 115.385 149.9 115.385 147.48C115.385 145.08 116.605 143.72 118.445 143.72C119.805 143.72 120.685 144.4 121.065 145.46H123.525C122.905 143.14 121.145 141.8 118.445 141.8C115.285 141.8 113.045 144.04 113.045 147.48ZM126.157 149.94C126.157 152.18 127.377 153 129.337 153H131.137V151.1H129.737C128.777 151.1 128.457 150.76 128.457 149.94V143.84H131.137V141.98H128.457V139.24H126.157V141.98H124.857V143.84H126.157V149.94ZM143.738 147.48C143.738 144.02 141.258 141.8 138.118 141.8C134.978 141.8 132.498 144.02 132.498 147.48C132.498 150.94 134.878 153.18 138.018 153.18C141.178 153.18 143.738 150.94 143.738 147.48ZM134.818 147.48C134.818 144.98 136.358 143.78 138.078 143.78C139.778 143.78 141.398 144.98 141.398 147.48C141.398 149.98 139.718 151.2 138.018 151.2C136.298 151.2 134.818 149.98 134.818 147.48ZM148.272 147.2C148.272 144.86 149.312 144.16 150.992 144.16H151.572V141.8C150.012 141.8 148.912 142.48 148.272 143.58V141.98H145.992V153H148.272V147.2ZM158.008 150.38L154.908 141.98H152.368L156.708 152.82L154.468 158.18H156.828L163.588 141.98H161.228L158.008 150.38ZM179.884 153H182.284L177.304 139.08H174.664L169.684 153H172.064L173.064 150.16H178.884L179.884 153ZM178.244 148.3H173.704L175.984 141.84L178.244 148.3ZM184.449 153H186.729V138.2H184.449V153ZM188.963 147.44C188.963 150.84 191.263 153.18 194.163 153.18C195.963 153.18 197.283 152.28 197.983 151.34V153.18C197.983 155.38 196.663 156.46 194.903 156.46C193.323 156.46 192.103 155.68 191.763 154.54H189.503C189.783 156.98 191.963 158.44 194.903 158.44C198.343 158.44 200.283 156.18 200.283 153.18V141.98H197.983V143.58C197.303 142.64 195.963 141.8 194.163 141.8C191.263 141.8 188.963 144.04 188.963 147.44ZM197.983 147.48C197.983 149.86 196.363 151.2 194.643 151.2C192.943 151.2 191.303 149.82 191.303 147.44C191.303 145.06 192.943 143.78 194.643 143.78C196.363 143.78 197.983 145.12 197.983 147.48ZM207.917 143.72C209.617 143.72 210.957 144.8 210.997 146.5H204.897C205.137 144.76 206.377 143.72 207.917 143.72ZM213.077 149.72H210.617C210.197 150.58 209.417 151.26 208.017 151.26C206.337 151.26 205.037 150.16 204.877 148.34H213.297C213.357 147.96 213.377 147.6 213.377 147.22C213.377 143.98 211.157 141.8 208.017 141.8C204.757 141.8 202.517 144.02 202.517 147.48C202.517 150.94 204.857 153.18 208.017 153.18C210.717 153.18 212.457 151.64 213.077 149.72ZM217.901 143.62V138.2H215.621V153H217.901V151.4C218.621 152.36 219.921 153.18 221.741 153.18C224.641 153.18 226.921 150.84 226.921 147.44C226.921 144.04 224.661 141.8 221.741 141.8C220.001 141.8 218.621 142.62 217.901 143.62ZM224.601 147.44C224.601 149.82 222.961 151.2 221.241 151.2C219.541 151.2 217.901 149.86 217.901 147.48C217.901 145.12 219.541 143.78 221.241 143.78C222.961 143.78 224.601 145.06 224.601 147.44ZM231.456 147.2C231.456 144.86 232.496 144.16 234.176 144.16H234.756V141.8C233.196 141.8 232.096 142.48 231.456 143.58V141.98H229.176V153H231.456V147.2ZM236.092 147.44C236.092 150.84 238.392 153.18 241.252 153.18C243.092 153.18 244.412 152.3 245.112 151.36V153H247.412V141.98H245.112V143.58C244.432 142.68 243.152 141.8 241.292 141.8C238.392 141.8 236.092 144.04 236.092 147.44ZM245.112 147.48C245.112 149.86 243.492 151.2 241.772 151.2C240.072 151.2 238.432 149.82 238.432 147.44C238.432 145.06 240.072 143.78 241.772 143.78C243.492 143.78 245.112 145.12 245.112 147.48Z" fill="#212832"/>
<rect x="0.5" y="123.5" width="616" height="49" stroke="black" stroke-opacity="0.5"/>
<rect y="351" width="617" height="50" fill="white"/>
<path d="M24.6 376.94C26.08 376.94 27.24 375.8 27.24 374.34C27.24 372.86 26.08 371.72 24.6 371.72C23.16 371.72 22 372.86 22 374.34C22 375.8 23.16 376.94 24.6 376.94ZM54.5689 374.02C54.5689 369.86 51.4289 366.92 47.4689 366.92C43.5489 366.92 40.3689 369.86 40.3689 374.02C40.3689 378.2 43.5489 381.14 47.4689 381.14C51.4289 381.14 54.5689 378.2 54.5689 374.02ZM42.7089 374.02C42.7089 370.88 44.7089 368.92 47.4689 368.92C50.2289 368.92 52.2289 370.88 52.2289 374.02C52.2289 377.16 50.2289 379.16 47.4689 379.16C44.7089 379.16 42.7089 377.16 42.7089 374.02ZM59.0925 371.62V366.2H56.8125V381H59.0925V379.4C59.8125 380.36 61.1125 381.18 62.9325 381.18C65.8325 381.18 68.1125 378.84 68.1125 375.44C68.1125 372.04 65.8525 369.8 62.9325 369.8C61.1925 369.8 59.8125 370.62 59.0925 371.62ZM65.7925 375.44C65.7925 377.82 64.1525 379.2 62.4325 379.2C60.7325 379.2 59.0925 377.86 59.0925 375.48C59.0925 373.12 60.7325 371.78 62.4325 371.78C64.1525 371.78 65.7925 373.06 65.7925 375.44ZM71.5272 368.52C72.3272 368.52 72.9672 367.88 72.9672 367.06C72.9672 366.24 72.3272 365.6 71.5272 365.6C70.7072 365.6 70.0672 366.24 70.0672 367.06C70.0672 367.88 70.7072 368.52 71.5272 368.52ZM70.3672 369.98V383.16C70.3672 383.98 70.0472 384.32 69.0872 384.32H68.3072V386.24H69.4872C71.4472 386.24 72.6472 385.4 72.6472 383.16V369.98H70.3672ZM80.2806 371.72C81.9806 371.72 83.3206 372.8 83.3606 374.5H77.2606C77.5006 372.76 78.7406 371.72 80.2806 371.72ZM85.4406 377.72H82.9806C82.5606 378.58 81.7806 379.26 80.3806 379.26C78.7006 379.26 77.4006 378.16 77.2406 376.34H85.6606C85.7206 375.96 85.7406 375.6 85.7406 375.22C85.7406 371.98 83.5206 369.8 80.3806 369.8C77.1206 369.8 74.8806 372.02 74.8806 375.48C74.8806 378.94 77.2206 381.18 80.3806 381.18C83.0806 381.18 84.8206 379.64 85.4406 377.72ZM87.2244 375.48C87.2244 378.94 89.4644 381.18 92.6244 381.18C95.3244 381.18 97.0844 379.68 97.7044 377.52H95.2444C94.8244 378.66 93.9844 379.26 92.6244 379.26C90.7844 379.26 89.5644 377.9 89.5644 375.48C89.5644 373.08 90.7844 371.72 92.6244 371.72C93.9844 371.72 94.8644 372.4 95.2444 373.46H97.7044C97.0844 371.14 95.3244 369.8 92.6244 369.8C89.4644 369.8 87.2244 372.04 87.2244 375.48ZM100.337 377.94C100.337 380.18 101.557 381 103.517 381H105.317V379.1H103.917C102.957 379.1 102.637 378.76 102.637 377.94V371.84H105.317V369.98H102.637V367.24H100.337V369.98H99.0366V371.84H100.337V377.94ZM107.658 374.72H115.878V372.8H107.658V374.72ZM132.557 374.02C132.557 369.86 129.417 366.92 125.457 366.92C121.537 366.92 118.357 369.86 118.357 374.02C118.357 378.2 121.537 381.14 125.457 381.14C129.417 381.14 132.557 378.2 132.557 374.02ZM120.697 374.02C120.697 370.88 122.697 368.92 125.457 368.92C128.217 368.92 130.217 370.88 130.217 374.02C130.217 377.16 128.217 379.16 125.457 379.16C122.697 379.16 120.697 377.16 120.697 374.02ZM137.081 375.2C137.081 372.86 138.121 372.16 139.801 372.16H140.381V369.8C138.821 369.8 137.721 370.48 137.081 371.58V369.98H134.801V381H137.081V375.2ZM142.477 381H144.757V369.98H142.477V381ZM143.637 368.52C144.437 368.52 145.077 367.88 145.077 367.06C145.077 366.24 144.437 365.6 143.637 365.6C142.817 365.6 142.177 366.24 142.177 367.06C142.177 367.88 142.817 368.52 143.637 368.52ZM152.39 371.72C154.09 371.72 155.43 372.8 155.47 374.5H149.37C149.61 372.76 150.85 371.72 152.39 371.72ZM157.55 377.72H155.09C154.67 378.58 153.89 379.26 152.49 379.26C150.81 379.26 149.51 378.16 149.35 376.34H157.77C157.83 375.96 157.85 375.6 157.85 375.22C157.85 371.98 155.63 369.8 152.49 369.8C149.23 369.8 146.99 372.02 146.99 375.48C146.99 378.94 149.33 381.18 152.49 381.18C155.19 381.18 156.93 379.64 157.55 377.72ZM167.914 381H170.174V374.5C170.174 371.42 168.234 369.8 165.654 369.8C164.334 369.8 163.114 370.34 162.374 371.24V369.98H160.094V381H162.374V374.84C162.374 372.82 163.474 371.78 165.154 371.78C166.814 371.78 167.914 372.82 167.914 374.84V381ZM173.442 377.94C173.442 380.18 174.662 381 176.622 381H178.422V379.1H177.022C176.062 379.1 175.742 378.76 175.742 377.94V371.84H178.422V369.98H175.742V367.24H173.442V369.98H172.142V371.84H173.442V377.94ZM185.163 371.72C186.863 371.72 188.203 372.8 188.243 374.5H182.143C182.383 372.76 183.623 371.72 185.163 371.72ZM190.323 377.72H187.863C187.443 378.58 186.663 379.26 185.263 379.26C183.583 379.26 182.283 378.16 182.123 376.34H190.543C190.603 375.96 190.623 375.6 190.623 375.22C190.623 371.98 188.403 369.8 185.263 369.8C182.003 369.8 179.763 372.02 179.763 375.48C179.763 378.94 182.103 381.18 185.263 381.18C187.963 381.18 189.703 379.64 190.323 377.72ZM192.107 375.44C192.107 378.84 194.407 381.18 197.307 381.18C199.107 381.18 200.427 380.34 201.127 379.34V381H203.427V366.2H201.127V371.52C200.287 370.48 198.767 369.8 197.327 369.8C194.407 369.8 192.107 372.04 192.107 375.44ZM201.127 375.48C201.127 377.86 199.507 379.2 197.787 379.2C196.087 379.2 194.447 377.82 194.447 375.44C194.447 373.06 196.087 371.78 197.787 371.78C199.507 371.78 201.127 373.12 201.127 375.48ZM213.897 373.5V368.96H216.417C218.197 368.96 218.997 369.8 218.997 371.24C218.997 372.64 218.197 373.5 216.417 373.5H213.897ZM221.337 371.24C221.337 368.98 219.717 367.1 216.417 367.1H211.617V381H213.897V375.36H216.417C220.037 375.36 221.337 373.22 221.337 371.24ZM225.792 375.2C225.792 372.86 226.832 372.16 228.512 372.16H229.092V369.8C227.532 369.8 226.432 370.48 225.792 371.58V369.98H223.512V381H225.792V375.2ZM241.688 375.48C241.688 372.02 239.208 369.8 236.068 369.8C232.928 369.8 230.448 372.02 230.448 375.48C230.448 378.94 232.828 381.18 235.968 381.18C239.128 381.18 241.688 378.94 241.688 375.48ZM232.768 375.48C232.768 372.98 234.308 371.78 236.028 371.78C237.728 371.78 239.348 372.98 239.348 375.48C239.348 377.98 237.668 379.2 235.968 379.2C234.248 379.2 232.768 377.98 232.768 375.48ZM243.181 375.44C243.181 378.84 245.481 381.18 248.381 381.18C250.181 381.18 251.501 380.28 252.201 379.34V381.18C252.201 383.38 250.881 384.46 249.121 384.46C247.541 384.46 246.321 383.68 245.981 382.54H243.721C244.001 384.98 246.181 386.44 249.121 386.44C252.561 386.44 254.501 384.18 254.501 381.18V369.98H252.201V371.58C251.521 370.64 250.181 369.8 248.381 369.8C245.481 369.8 243.181 372.04 243.181 375.44ZM252.201 375.48C252.201 377.86 250.581 379.2 248.861 379.2C247.161 379.2 245.521 377.82 245.521 375.44C245.521 373.06 247.161 371.78 248.861 371.78C250.581 371.78 252.201 373.12 252.201 375.48ZM259.776 375.2C259.776 372.86 260.816 372.16 262.496 372.16H263.076V369.8C261.516 369.8 260.416 370.48 259.776 371.58V369.98H257.496V381H259.776V375.2ZM264.412 375.44C264.412 378.84 266.712 381.18 269.572 381.18C271.412 381.18 272.732 380.3 273.432 379.36V381H275.732V369.98H273.432V371.58C272.752 370.68 271.472 369.8 269.612 369.8C266.712 369.8 264.412 372.04 264.412 375.44ZM273.432 375.48C273.432 377.86 271.812 379.2 270.092 379.2C268.392 379.2 266.752 377.82 266.752 375.44C266.752 373.06 268.392 371.78 270.092 371.78C271.812 371.78 273.432 373.12 273.432 375.48ZM294.347 381H296.607V374.5C296.607 371.42 294.647 369.8 292.067 369.8C290.467 369.8 288.907 370.64 288.227 371.98C287.467 370.54 286.007 369.8 284.267 369.8C282.947 369.8 281.747 370.34 281.007 371.24V369.98H278.727V381H281.007V374.84C281.007 372.82 282.107 371.78 283.787 371.78C285.447 371.78 286.547 372.82 286.547 374.84V381H288.807V374.84C288.807 372.82 289.907 371.78 291.587 371.78C293.247 371.78 294.347 372.82 294.347 374.84V381ZM315.128 381H317.388V374.5C317.388 371.42 315.428 369.8 312.848 369.8C311.248 369.8 309.688 370.64 309.008 371.98C308.248 370.54 306.788 369.8 305.048 369.8C303.728 369.8 302.528 370.34 301.788 371.24V369.98H299.508V381H301.788V374.84C301.788 372.82 302.888 371.78 304.568 371.78C306.228 371.78 307.328 372.82 307.328 374.84V381H309.588V374.84C309.588 372.82 310.688 371.78 312.368 371.78C314.028 371.78 315.128 372.82 315.128 374.84V381ZM320.289 381H322.569V369.98H320.289V381ZM321.449 368.52C322.249 368.52 322.889 367.88 322.889 367.06C322.889 366.24 322.249 365.6 321.449 365.6C320.629 365.6 319.989 366.24 319.989 367.06C319.989 367.88 320.629 368.52 321.449 368.52ZM333.383 381H335.643V374.5C335.643 371.42 333.703 369.8 331.123 369.8C329.803 369.8 328.583 370.34 327.843 371.24V369.98H325.563V381H327.843V374.84C327.843 372.82 328.943 371.78 330.623 371.78C332.283 371.78 333.383 372.82 333.383 374.84V381ZM337.791 375.44C337.791 378.84 340.091 381.18 342.991 381.18C344.791 381.18 346.111 380.28 346.811 379.34V381.18C346.811 383.38 345.491 384.46 343.731 384.46C342.151 384.46 340.931 383.68 340.591 382.54H338.331C338.611 384.98 340.791 386.44 343.731 386.44C347.171 386.44 349.111 384.18 349.111 381.18V369.98H346.811V371.58C346.131 370.64 344.791 369.8 342.991 369.8C340.091 369.8 337.791 372.04 337.791 375.44ZM346.811 375.48C346.811 377.86 345.191 379.2 343.471 379.2C341.771 379.2 340.131 377.82 340.131 375.44C340.131 373.06 341.771 371.78 343.471 371.78C345.191 371.78 346.811 373.12 346.811 375.48ZM357.281 375.92C357.281 379.46 359.761 381.14 362.681 381.14C365.581 381.14 368.141 379.46 368.141 375.92V367.1H365.861V375.96C365.861 378.12 364.641 379.14 362.701 379.14C360.781 379.14 359.561 378.12 359.561 375.96V367.1H357.281V375.92ZM379.329 377.92C379.209 373.94 372.989 375.18 372.989 372.96C372.989 372.22 373.629 371.72 374.849 371.72C376.089 371.72 376.829 372.38 376.909 373.34H379.189C379.069 371.14 377.429 369.8 374.929 369.8C372.329 369.8 370.689 371.22 370.689 372.98C370.689 377.02 377.089 375.78 377.089 377.94C377.089 378.7 376.389 379.26 375.069 379.26C373.809 379.26 372.949 378.52 372.869 377.62H370.509C370.609 379.62 372.469 381.18 375.109 381.18C377.709 381.18 379.329 379.78 379.329 377.92ZM381.793 381H384.073V369.98H381.793V381ZM382.953 368.52C383.753 368.52 384.393 367.88 384.393 367.06C384.393 366.24 383.753 365.6 382.953 365.6C382.133 365.6 381.493 366.24 381.493 367.06C381.493 367.88 382.133 368.52 382.953 368.52ZM394.886 381H397.146V374.5C397.146 371.42 395.206 369.8 392.626 369.8C391.306 369.8 390.086 370.34 389.346 371.24V369.98H387.066V381H389.346V374.84C389.346 372.82 390.446 371.78 392.126 371.78C393.786 371.78 394.886 372.82 394.886 374.84V381ZM399.295 375.44C399.295 378.84 401.595 381.18 404.495 381.18C406.295 381.18 407.615 380.28 408.315 379.34V381.18C408.315 383.38 406.995 384.46 405.235 384.46C403.655 384.46 402.435 383.68 402.095 382.54H399.835C400.115 384.98 402.295 386.44 405.235 386.44C408.675 386.44 410.615 384.18 410.615 381.18V369.98H408.315V371.58C407.635 370.64 406.295 369.8 404.495 369.8C401.595 369.8 399.295 372.04 399.295 375.44ZM408.315 375.48C408.315 377.86 406.695 379.2 404.975 379.2C403.275 379.2 401.635 377.82 401.635 375.44C401.635 373.06 403.275 371.78 404.975 371.78C406.695 371.78 408.315 373.12 408.315 375.48ZM418.045 374.02C418.045 378.2 421.225 381.12 425.145 381.12C428.045 381.12 430.545 379.68 431.605 376.96H428.865C428.125 378.44 426.805 379.14 425.145 379.14C422.385 379.14 420.385 377.16 420.385 374.02C420.385 370.88 422.385 368.92 425.145 368.92C426.805 368.92 428.125 369.62 428.865 371.1H431.605C430.545 368.38 428.045 366.92 425.145 366.92C421.225 366.92 418.045 369.86 418.045 374.02ZM438.853 368.68V372.82H434.813V374.74H438.853V378.88H440.973V374.74H445.013V372.82H440.973V368.68H438.853ZM453.131 368.68V372.82H449.091V374.74H453.131V378.88H455.251V374.74H459.291V372.82H455.251V368.68H453.131Z" fill="#212832"/>
<rect x="0.5" y="351.5" width="616" height="49" stroke="black" stroke-opacity="0.5"/>
<rect y="408" width="617" height="50" fill="white"/>
<path d="M24.6 433.94C26.08 433.94 27.24 432.8 27.24 431.34C27.24 429.86 26.08 428.72 24.6 428.72C23.16 428.72 22 429.86 22 431.34C22 432.8 23.16 433.94 24.6 433.94ZM40.3689 431.02C40.3689 435.2 43.5489 438.12 47.4689 438.12C50.3689 438.12 52.8689 436.68 53.9289 433.96H51.1889C50.4489 435.44 49.1289 436.14 47.4689 436.14C44.7089 436.14 42.7089 434.16 42.7089 431.02C42.7089 427.88 44.7089 425.92 47.4689 425.92C49.1289 425.92 50.4489 426.62 51.1889 428.1H53.9289C52.8689 425.38 50.3689 423.92 47.4689 423.92C43.5489 423.92 40.3689 426.86 40.3689 431.02ZM61.1777 425.68V429.82H57.1377V431.74H61.1777V435.88H63.2977V431.74H67.3377V429.82H63.2977V425.68H61.1777ZM75.455 425.68V429.82H71.415V431.74H75.455V435.88H77.575V431.74H81.615V429.82H77.575V425.68H75.455ZM90.3477 424.1V438H97.3277V436.16H92.6277V424.1H90.3477ZM98.4744 432.44C98.4744 435.84 100.774 438.18 103.634 438.18C105.474 438.18 106.794 437.3 107.494 436.36V438H109.794V426.98H107.494V428.58C106.814 427.68 105.534 426.8 103.674 426.8C100.774 426.8 98.4744 429.04 98.4744 432.44ZM107.494 432.48C107.494 434.86 105.874 436.2 104.154 436.2C102.454 436.2 100.814 434.82 100.814 432.44C100.814 430.06 102.454 428.78 104.154 428.78C105.874 428.78 107.494 430.12 107.494 432.48ZM115.069 428.62V423.2H112.789V438H115.069V436.4C115.789 437.36 117.089 438.18 118.909 438.18C121.809 438.18 124.089 435.84 124.089 432.44C124.089 429.04 121.829 426.8 118.909 426.8C117.169 426.8 115.789 427.62 115.069 428.62ZM121.769 432.44C121.769 434.82 120.129 436.2 118.409 436.2C116.709 436.2 115.069 434.86 115.069 432.48C115.069 430.12 116.709 428.78 118.409 428.78C120.129 428.78 121.769 430.06 121.769 432.44Z" fill="#212832"/>
<rect x="0.5" y="408.5" width="616" height="49" stroke="black" stroke-opacity="0.5"/>
<rect y="237" width="617" height="50" fill="white"/>
<path d="M24.6 262.94C26.08 262.94 27.24 261.8 27.24 260.34C27.24 258.86 26.08 257.72 24.6 257.72C23.16 257.72 22 258.86 22 260.34C22 261.8 23.16 262.94 24.6 262.94ZM50.5089 263.06C50.5089 257.98 43.1489 259.94 43.1489 256.8C43.1489 255.46 44.1689 254.82 45.4889 254.86C46.9289 254.9 47.7489 255.76 47.8289 256.7H50.3489C50.1489 254.32 48.2689 252.92 45.6089 252.92C42.7689 252.92 40.8289 254.44 40.8289 256.88C40.8289 262 48.2089 259.82 48.2089 263.18C48.2089 264.36 47.3089 265.22 45.7089 265.22C44.1289 265.22 43.3289 264.3 43.2289 263.16H40.7889C40.7889 265.62 42.9289 267.14 45.7089 267.14C48.8089 267.14 50.5089 265.14 50.5089 263.06ZM63.6992 261.48C63.6992 258.02 61.2192 255.8 58.0792 255.8C54.9392 255.8 52.4592 258.02 52.4592 261.48C52.4592 264.94 54.8392 267.18 57.9792 267.18C61.1392 267.18 63.6992 264.94 63.6992 261.48ZM54.7792 261.48C54.7792 258.98 56.3192 257.78 58.0392 257.78C59.7392 257.78 61.3592 258.98 61.3592 261.48C61.3592 263.98 59.6792 265.2 57.9792 265.2C56.2592 265.2 54.7792 263.98 54.7792 261.48ZM66.2331 267H68.5331V257.84H70.5731V255.98H68.5331V255.2C68.5331 253.94 69.0131 253.46 70.4131 253.46V251.56C67.5331 251.56 66.2331 252.66 66.2331 255.2V255.98H64.9331V257.84H66.2331V267ZM72.9538 263.94C72.9538 266.18 74.1738 267 76.1338 267H77.9338V265.1H76.5338C75.5738 265.1 75.2538 264.76 75.2538 263.94V257.84H77.9338V255.98H75.2538V253.24H72.9538V255.98H71.6538V257.84H72.9538V263.94ZM82.1752 267H84.5752L86.7952 258.86L89.0152 267H91.4152L94.8352 255.98H92.5952L90.3152 264.8L88.0752 255.98H85.6952L83.3552 264.84L81.0552 255.98H78.7352L82.1752 267ZM95.7791 261.44C95.7791 264.84 98.0791 267.18 100.939 267.18C102.779 267.18 104.099 266.3 104.799 265.36V267H107.099V255.98H104.799V257.58C104.119 256.68 102.839 255.8 100.979 255.8C98.0791 255.8 95.7791 258.04 95.7791 261.44ZM104.799 261.48C104.799 263.86 103.179 265.2 101.459 265.2C99.7591 265.2 98.1191 263.82 98.1191 261.44C98.1191 259.06 99.7591 257.78 101.459 257.78C103.179 257.78 104.799 259.12 104.799 261.48ZM112.374 261.2C112.374 258.86 113.414 258.16 115.094 258.16H115.674V255.8C114.114 255.8 113.014 256.48 112.374 257.58V255.98H110.094V267H112.374V261.2ZM122.41 257.72C124.11 257.72 125.45 258.8 125.49 260.5H119.39C119.63 258.76 120.87 257.72 122.41 257.72ZM127.57 263.72H125.11C124.69 264.58 123.91 265.26 122.51 265.26C120.83 265.26 119.53 264.16 119.37 262.34H127.79C127.85 261.96 127.87 261.6 127.87 261.22C127.87 257.98 125.65 255.8 122.51 255.8C119.25 255.8 117.01 258.02 117.01 261.48C117.01 264.94 119.35 267.18 122.51 267.18C125.21 267.18 126.95 265.64 127.57 263.72ZM142.989 253.08H135.309V267H142.989V265.14H137.589V260.88H142.389V259.02H137.589V254.94H142.989V253.08ZM153.617 267H155.877V260.5C155.877 257.42 153.937 255.8 151.357 255.8C150.037 255.8 148.817 256.34 148.077 257.24V255.98H145.797V267H148.077V260.84C148.077 258.82 149.177 257.78 150.857 257.78C152.517 257.78 153.617 258.82 153.617 260.84V267ZM158.025 261.44C158.025 264.84 160.325 267.18 163.225 267.18C165.025 267.18 166.345 266.28 167.045 265.34V267.18C167.045 269.38 165.725 270.46 163.965 270.46C162.385 270.46 161.165 269.68 160.825 268.54H158.565C158.845 270.98 161.025 272.44 163.965 272.44C167.405 272.44 169.345 270.18 169.345 267.18V255.98H167.045V257.58C166.365 256.64 165.025 255.8 163.225 255.8C160.325 255.8 158.025 258.04 158.025 261.44ZM167.045 261.48C167.045 263.86 165.425 265.2 163.705 265.2C162.005 265.2 160.365 263.82 160.365 261.44C160.365 259.06 162.005 257.78 163.705 257.78C165.425 257.78 167.045 259.12 167.045 261.48ZM172.34 267H174.62V255.98H172.34V267ZM173.5 254.52C174.3 254.52 174.94 253.88 174.94 253.06C174.94 252.24 174.3 251.6 173.5 251.6C172.68 251.6 172.04 252.24 172.04 253.06C172.04 253.88 172.68 254.52 173.5 254.52ZM185.433 267H187.693V260.5C187.693 257.42 185.753 255.8 183.173 255.8C181.853 255.8 180.633 256.34 179.893 257.24V255.98H177.613V267H179.893V260.84C179.893 258.82 180.993 257.78 182.673 257.78C184.333 257.78 185.433 258.82 185.433 260.84V267ZM195.242 257.72C196.942 257.72 198.282 258.8 198.322 260.5H192.222C192.462 258.76 193.702 257.72 195.242 257.72ZM200.402 263.72H197.942C197.522 264.58 196.742 265.26 195.342 265.26C193.662 265.26 192.362 264.16 192.202 262.34H200.622C200.682 261.96 200.702 261.6 200.702 261.22C200.702 257.98 198.482 255.8 195.342 255.8C192.082 255.8 189.842 258.02 189.842 261.48C189.842 264.94 192.182 267.18 195.342 267.18C198.042 267.18 199.782 265.64 200.402 263.72ZM207.585 257.72C209.285 257.72 210.625 258.8 210.665 260.5H204.565C204.805 258.76 206.045 257.72 207.585 257.72ZM212.745 263.72H210.285C209.865 264.58 209.085 265.26 207.685 265.26C206.005 265.26 204.705 264.16 204.545 262.34H212.965C213.025 261.96 213.045 261.6 213.045 261.22C213.045 257.98 210.825 255.8 207.685 255.8C204.425 255.8 202.185 258.02 202.185 261.48C202.185 264.94 204.525 267.18 207.685 267.18C210.385 267.18 212.125 265.64 212.745 263.72ZM217.569 261.2C217.569 258.86 218.609 258.16 220.289 258.16H220.869V255.8C219.309 255.8 218.209 256.48 217.569 257.58V255.98H215.289V267H217.569V261.2ZM222.965 267H225.245V255.98H222.965V267ZM224.125 254.52C224.925 254.52 225.565 253.88 225.565 253.06C225.565 252.24 224.925 251.6 224.125 251.6C223.305 251.6 222.665 252.24 222.665 253.06C222.665 253.88 223.305 254.52 224.125 254.52ZM236.058 267H238.318V260.5C238.318 257.42 236.378 255.8 233.798 255.8C232.478 255.8 231.258 256.34 230.518 257.24V255.98H228.238V267H230.518V260.84C230.518 258.82 231.618 257.78 233.298 257.78C234.958 257.78 236.058 258.82 236.058 260.84V267ZM240.467 261.44C240.467 264.84 242.767 267.18 245.667 267.18C247.467 267.18 248.787 266.28 249.487 265.34V267.18C249.487 269.38 248.167 270.46 246.407 270.46C244.827 270.46 243.607 269.68 243.267 268.54H241.007C241.287 270.98 243.467 272.44 246.407 272.44C249.847 272.44 251.787 270.18 251.787 267.18V255.98H249.487V257.58C248.807 256.64 247.467 255.8 245.667 255.8C242.767 255.8 240.467 258.04 240.467 261.44ZM249.487 261.48C249.487 263.86 247.867 265.2 246.147 265.2C244.447 265.2 242.807 263.82 242.807 261.44C242.807 259.06 244.447 257.78 246.147 257.78C247.867 257.78 249.487 259.12 249.487 261.48Z" fill="#212832"/>
<rect x="0.5" y="237.5" width="616" height="49" stroke="black" stroke-opacity="0.5"/>
<rect y="465" width="617" height="50" fill="white"/>
<path d="M24.6 490.94C26.08 490.94 27.24 489.8 27.24 488.34C27.24 486.86 26.08 485.72 24.6 485.72C23.16 485.72 22 486.86 22 488.34C22 489.8 23.16 490.94 24.6 490.94ZM54.5689 488.02C54.5689 483.86 51.4289 480.92 47.4689 480.92C43.5489 480.92 40.3689 483.86 40.3689 488.02C40.3689 492.2 43.5489 495.14 47.4689 495.14C51.4289 495.14 54.5689 492.2 54.5689 488.02ZM42.7089 488.02C42.7089 484.88 44.7089 482.92 47.4689 482.92C50.2289 482.92 52.2289 484.88 52.2289 488.02C52.2289 491.16 50.2289 493.16 47.4689 493.16C44.7089 493.16 42.7089 491.16 42.7089 488.02ZM59.0925 489.2C59.0925 486.86 60.1325 486.16 61.8125 486.16H62.3925V483.8C60.8325 483.8 59.7325 484.48 59.0925 485.58V483.98H56.8125V495H59.0925V489.2ZM63.7283 489.44C63.7283 492.84 66.0283 495.18 68.8883 495.18C70.7283 495.18 72.0483 494.3 72.7483 493.36V495H75.0483V483.98H72.7483V485.58C72.0683 484.68 70.7883 483.8 68.9283 483.8C66.0283 483.8 63.7283 486.04 63.7283 489.44ZM72.7483 489.48C72.7483 491.86 71.1283 493.2 69.4083 493.2C67.7083 493.2 66.0683 491.82 66.0683 489.44C66.0683 487.06 67.7083 485.78 69.4083 485.78C71.1283 485.78 72.7483 487.12 72.7483 489.48ZM77.283 489.48C77.283 492.94 79.523 495.18 82.683 495.18C85.383 495.18 87.143 493.68 87.763 491.52H85.303C84.883 492.66 84.043 493.26 82.683 493.26C80.843 493.26 79.623 491.9 79.623 489.48C79.623 487.08 80.843 485.72 82.683 485.72C84.043 485.72 84.923 486.4 85.303 487.46H87.763C87.143 485.14 85.383 483.8 82.683 483.8C79.523 483.8 77.283 486.04 77.283 489.48ZM90.0352 495H92.3152V480.2H90.0352V495ZM99.9486 485.72C101.649 485.72 102.989 486.8 103.029 488.5H96.9286C97.1686 486.76 98.4086 485.72 99.9486 485.72ZM105.109 491.72H102.649C102.229 492.58 101.449 493.26 100.049 493.26C98.3686 493.26 97.0686 492.16 96.9086 490.34H105.329C105.389 489.96 105.409 489.6 105.409 489.22C105.409 485.98 103.189 483.8 100.049 483.8C96.7886 483.8 94.5486 486.02 94.5486 489.48C94.5486 492.94 96.8886 495.18 100.049 495.18C102.749 495.18 104.489 493.64 105.109 491.72ZM112.848 481.1V495H119.828V493.16H115.128V481.1H112.848ZM120.974 489.44C120.974 492.84 123.274 495.18 126.134 495.18C127.974 495.18 129.294 494.3 129.994 493.36V495H132.294V483.98H129.994V485.58C129.314 484.68 128.034 483.8 126.174 483.8C123.274 483.8 120.974 486.04 120.974 489.44ZM129.994 489.48C129.994 491.86 128.374 493.2 126.654 493.2C124.954 493.2 123.314 491.82 123.314 489.44C123.314 487.06 124.954 485.78 126.654 485.78C128.374 485.78 129.994 487.12 129.994 489.48ZM137.569 485.62V480.2H135.289V495H137.569V493.4C138.289 494.36 139.589 495.18 141.409 495.18C144.309 495.18 146.589 492.84 146.589 489.44C146.589 486.04 144.329 483.8 141.409 483.8C139.669 483.8 138.289 484.62 137.569 485.62ZM144.269 489.44C144.269 491.82 142.629 493.2 140.909 493.2C139.209 493.2 137.569 491.86 137.569 489.48C137.569 487.12 139.209 485.78 140.909 485.78C142.629 485.78 144.269 487.06 144.269 489.44Z" fill="#212832"/>
<rect x="0.5" y="465.5" width="616" height="49" stroke="black" stroke-opacity="0.5"/>
<rect y="522" width="617" height="50" fill="white"/>
<path d="M24.6 547.94C26.08 547.94 27.24 546.8 27.24 545.34C27.24 543.86 26.08 542.72 24.6 542.72C23.16 542.72 22 543.86 22 545.34C22 546.8 23.16 547.94 24.6 547.94ZM45.6689 538.1H41.1289V552H45.6689C50.1289 552 53.0489 549.38 53.0489 545.1C53.0489 540.8 50.1289 538.1 45.6689 538.1ZM43.4089 550.14V539.96H45.6689C48.9489 539.96 50.7089 541.92 50.7089 545.1C50.7089 548.26 48.9489 550.14 45.6689 550.14H43.4089ZM65.8086 546.48C65.8086 543.02 63.3286 540.8 60.1886 540.8C57.0486 540.8 54.5686 543.02 54.5686 546.48C54.5686 549.94 56.9486 552.18 60.0886 552.18C63.2486 552.18 65.8086 549.94 65.8086 546.48ZM56.8886 546.48C56.8886 543.98 58.4286 542.78 60.1486 542.78C61.8486 542.78 63.4686 543.98 63.4686 546.48C63.4686 548.98 61.7886 550.2 60.0886 550.2C58.3686 550.2 56.8886 548.98 56.8886 546.48ZM83.6825 552H85.9425V545.5C85.9425 542.42 83.9825 540.8 81.4025 540.8C79.8025 540.8 78.2425 541.64 77.5625 542.98C76.8025 541.54 75.3425 540.8 73.6025 540.8C72.2825 540.8 71.0825 541.34 70.3425 542.24V540.98H68.0625V552H70.3425V545.84C70.3425 543.82 71.4425 542.78 73.1225 542.78C74.7825 542.78 75.8825 543.82 75.8825 545.84V552H78.1425V545.84C78.1425 543.82 79.2425 542.78 80.9225 542.78C82.5825 542.78 83.6825 543.82 83.6825 545.84V552ZM88.0838 546.44C88.0838 549.84 90.3838 552.18 93.2438 552.18C95.0838 552.18 96.4038 551.3 97.1038 550.36V552H99.4038V540.98H97.1038V542.58C96.4238 541.68 95.1438 540.8 93.2838 540.8C90.3838 540.8 88.0838 543.04 88.0838 546.44ZM97.1038 546.48C97.1038 548.86 95.4838 550.2 93.7638 550.2C92.0638 550.2 90.4238 548.82 90.4238 546.44C90.4238 544.06 92.0638 542.78 93.7638 542.78C95.4838 542.78 97.1038 544.12 97.1038 546.48ZM102.398 552H104.678V540.98H102.398V552ZM103.558 539.52C104.358 539.52 104.998 538.88 104.998 538.06C104.998 537.24 104.358 536.6 103.558 536.6C102.738 536.6 102.098 537.24 102.098 538.06C102.098 538.88 102.738 539.52 103.558 539.52ZM115.492 552H117.752V545.5C117.752 542.42 115.812 540.8 113.232 540.8C111.912 540.8 110.692 541.34 109.952 542.24V540.98H107.672V552H109.952V545.84C109.952 543.82 111.052 542.78 112.732 542.78C114.392 542.78 115.492 543.82 115.492 545.84V552ZM125.855 538.1V552H132.835V550.16H128.135V538.1H125.855ZM133.982 546.44C133.982 549.84 136.282 552.18 139.142 552.18C140.982 552.18 142.302 551.3 143.002 550.36V552H145.302V540.98H143.002V542.58C142.322 541.68 141.042 540.8 139.182 540.8C136.282 540.8 133.982 543.04 133.982 546.44ZM143.002 546.48C143.002 548.86 141.382 550.2 139.662 550.2C137.962 550.2 136.322 548.82 136.322 546.44C136.322 544.06 137.962 542.78 139.662 542.78C141.382 542.78 143.002 544.12 143.002 546.48ZM150.577 542.62V537.2H148.297V552H150.577V550.4C151.297 551.36 152.597 552.18 154.417 552.18C157.317 552.18 159.597 549.84 159.597 546.44C159.597 543.04 157.337 540.8 154.417 540.8C152.677 540.8 151.297 541.62 150.577 542.62ZM157.277 546.44C157.277 548.82 155.637 550.2 153.917 550.2C152.217 550.2 150.577 548.86 150.577 546.48C150.577 544.12 152.217 542.78 153.917 542.78C155.637 542.78 157.277 544.06 157.277 546.44Z" fill="#212832"/>
<rect x="0.5" y="522.5" width="616" height="49" stroke="black" stroke-opacity="0.5"/>
</svg>
