<svg width="617" height="515" viewBox="0 0 617 515" fill="none" xmlns="http://www.w3.org/2000/svg">
<rect y="66" width="617" height="50" fill="white"/>
<path d="M24.6 91.94C26.08 91.94 27.24 90.8 27.24 89.34C27.24 87.86 26.08 86.72 24.6 86.72C23.16 86.72 22 87.86 22 89.34C22 90.8 23.16 91.94 24.6 91.94ZM40.3689 89.02C40.3689 93.2 43.5489 96.12 47.4689 96.12C50.3689 96.12 52.8689 94.68 53.9289 91.96H51.1889C50.4489 93.44 49.1289 94.14 47.4689 94.14C44.7089 94.14 42.7089 92.16 42.7089 89.02C42.7089 85.88 44.7089 83.92 47.4689 83.92C49.1289 83.92 50.4489 84.62 51.1889 86.1H53.9289C52.8689 83.38 50.3689 81.92 47.4689 81.92C43.5489 81.92 40.3689 84.86 40.3689 89.02ZM55.8377 90.44C55.8377 93.84 58.1377 96.18 60.9977 96.18C62.8377 96.18 64.1577 95.3 64.8577 94.36V96H67.1577V84.98H64.8577V86.58C64.1777 85.68 62.8977 84.8 61.0377 84.8C58.1377 84.8 55.8377 87.04 55.8377 90.44ZM64.8577 90.48C64.8577 92.86 63.2377 94.2 61.5177 94.2C59.8177 94.2 58.1777 92.82 58.1777 90.44C58.1777 88.06 59.8177 86.78 61.5177 86.78C63.2377 86.78 64.8577 88.12 64.8577 90.48ZM78.3723 92.92C78.2523 88.94 72.0323 90.18 72.0323 87.96C72.0323 87.22 72.6723 86.72 73.8923 86.72C75.1323 86.72 75.8723 87.38 75.9523 88.34H78.2323C78.1123 86.14 76.4723 84.8 73.9723 84.8C71.3723 84.8 69.7323 86.22 69.7323 87.98C69.7323 92.02 76.1323 90.78 76.1323 92.94C76.1323 93.7 75.4323 94.26 74.1123 94.26C72.8523 94.26 71.9923 93.52 71.9123 92.62H69.5523C69.6523 94.62 71.5123 96.18 74.1523 96.18C76.7523 96.18 78.3723 94.78 78.3723 92.92ZM85.4759 86.72C87.1759 86.72 88.5159 87.8 88.5559 89.5H82.4559C82.6959 87.76 83.9359 86.72 85.4759 86.72ZM90.6359 92.72H88.1759C87.7559 93.58 86.9759 94.26 85.5759 94.26C83.8959 94.26 82.5959 93.16 82.4359 91.34H90.8559C90.9159 90.96 90.9359 90.6 90.9359 90.22C90.9359 86.98 88.7159 84.8 85.5759 84.8C82.3159 84.8 80.0759 87.02 80.0759 90.48C80.0759 93.94 82.4159 96.18 85.5759 96.18C88.2759 96.18 90.0159 94.64 90.6359 92.72ZM97.655 83.96H101.375V96H103.655V83.96H107.355V82.1H97.655V83.96ZM120.164 90.48C120.164 87.02 117.684 84.8 114.544 84.8C111.404 84.8 108.924 87.02 108.924 90.48C108.924 93.94 111.304 96.18 114.444 96.18C117.604 96.18 120.164 93.94 120.164 90.48ZM111.244 90.48C111.244 87.98 112.784 86.78 114.504 86.78C116.204 86.78 117.824 87.98 117.824 90.48C117.824 92.98 116.144 94.2 114.444 94.2C112.724 94.2 111.244 92.98 111.244 90.48ZM132.918 90.48C132.918 87.02 130.438 84.8 127.298 84.8C124.158 84.8 121.678 87.02 121.678 90.48C121.678 93.94 124.058 96.18 127.198 96.18C130.358 96.18 132.918 93.94 132.918 90.48ZM123.998 90.48C123.998 87.98 125.538 86.78 127.258 86.78C128.958 86.78 130.578 87.98 130.578 90.48C130.578 92.98 128.898 94.2 127.198 94.2C125.478 94.2 123.998 92.98 123.998 90.48ZM135.172 96H137.452V81.2H135.172V96ZM148.665 92.92C148.545 88.94 142.325 90.18 142.325 87.96C142.325 87.22 142.965 86.72 144.185 86.72C145.425 86.72 146.165 87.38 146.245 88.34H148.525C148.405 86.14 146.765 84.8 144.265 84.8C141.665 84.8 140.025 86.22 140.025 87.98C140.025 92.02 146.425 90.78 146.425 92.94C146.425 93.7 145.725 94.26 144.405 94.26C143.145 94.26 142.285 93.52 142.205 92.62H139.845C139.945 94.62 141.805 96.18 144.445 96.18C147.045 96.18 148.665 94.78 148.665 92.92ZM156.324 82.1V96H163.304V94.16H158.604V82.1H156.324ZM164.451 90.44C164.451 93.84 166.751 96.18 169.611 96.18C171.451 96.18 172.771 95.3 173.471 94.36V96H175.771V84.98H173.471V86.58C172.791 85.68 171.511 84.8 169.651 84.8C166.751 84.8 164.451 87.04 164.451 90.44ZM173.471 90.48C173.471 92.86 171.851 94.2 170.131 94.2C168.431 94.2 166.791 92.82 166.791 90.44C166.791 88.06 168.431 86.78 170.131 86.78C171.851 86.78 173.471 88.12 173.471 90.48ZM181.046 86.62V81.2H178.766V96H181.046V94.4C181.766 95.36 183.066 96.18 184.886 96.18C187.786 96.18 190.066 93.84 190.066 90.44C190.066 87.04 187.806 84.8 184.886 84.8C183.146 84.8 181.766 85.62 181.046 86.62ZM187.746 90.44C187.746 92.82 186.106 94.2 184.386 94.2C182.686 94.2 181.046 92.86 181.046 90.48C181.046 88.12 182.686 86.78 184.386 86.78C186.106 86.78 187.746 88.06 187.746 90.44Z" fill="#212832"/>
<rect x="0.5" y="66.5" width="616" height="49" stroke="black" stroke-opacity="0.5"/>
<rect y="180" width="617" height="50" fill="white"/>
<path d="M24.6 205.94C26.08 205.94 27.24 204.8 27.24 203.34C27.24 201.86 26.08 200.72 24.6 200.72C23.16 200.72 22 201.86 22 203.34C22 204.8 23.16 205.94 24.6 205.94ZM48.9689 206.02C48.9689 207.36 48.0289 208.14 46.4889 208.14H43.4089V203.8H46.4089C47.9289 203.8 48.9689 204.64 48.9689 206.02ZM48.6089 199.96C48.6089 201.24 47.7089 201.94 46.2289 201.94H43.4089V197.96H46.2289C47.7089 197.96 48.6089 198.7 48.6089 199.96ZM51.2489 206.26C51.2489 204.6 50.0489 203.12 48.5689 202.86C49.9089 202.38 50.9289 201.36 50.9289 199.68C50.9289 197.72 49.3689 196.1 46.4289 196.1H41.1289V210H46.6889C49.5289 210 51.2489 208.38 51.2489 206.26ZM52.9666 204.44C52.9666 207.84 55.2666 210.18 58.1266 210.18C59.9666 210.18 61.2866 209.3 61.9866 208.36V210H64.2866V198.98H61.9866V200.58C61.3066 199.68 60.0266 198.8 58.1666 198.8C55.2666 198.8 52.9666 201.04 52.9666 204.44ZM61.9866 204.48C61.9866 206.86 60.3666 208.2 58.6466 208.2C56.9466 208.2 55.3066 206.82 55.3066 204.44C55.3066 202.06 56.9466 200.78 58.6466 200.78C60.3666 200.78 61.9866 202.12 61.9866 204.48ZM75.5013 206.92C75.3813 202.94 69.1613 204.18 69.1613 201.96C69.1613 201.22 69.8013 200.72 71.0213 200.72C72.2613 200.72 73.0013 201.38 73.0813 202.34H75.3613C75.2413 200.14 73.6013 198.8 71.1013 198.8C68.5013 198.8 66.8613 200.22 66.8613 201.98C66.8613 206.02 73.2613 204.78 73.2613 206.94C73.2613 207.7 72.5613 208.26 71.2413 208.26C69.9813 208.26 69.1213 207.52 69.0413 206.62H66.6813C66.7813 208.62 68.6413 210.18 71.2813 210.18C73.8813 210.18 75.5013 208.78 75.5013 206.92ZM77.9648 210H80.2448V198.98H77.9648V210ZM79.1248 197.52C79.9248 197.52 80.5648 196.88 80.5648 196.06C80.5648 195.24 79.9248 194.6 79.1248 194.6C78.3048 194.6 77.6648 195.24 77.6648 196.06C77.6648 196.88 78.3048 197.52 79.1248 197.52ZM82.4783 204.48C82.4783 207.94 84.7183 210.18 87.8783 210.18C90.5783 210.18 92.3383 208.68 92.9583 206.52H90.4983C90.0783 207.66 89.2383 208.26 87.8783 208.26C86.0383 208.26 84.8183 206.9 84.8183 204.48C84.8183 202.08 86.0383 200.72 87.8783 200.72C89.2383 200.72 90.1183 201.4 90.4983 202.46H92.9583C92.3383 200.14 90.5783 198.8 87.8783 198.8C84.7183 198.8 82.4783 201.04 82.4783 204.48ZM104.966 196.1H100.426V210H104.966C109.426 210 112.346 207.38 112.346 203.1C112.346 198.8 109.426 196.1 104.966 196.1ZM102.706 208.14V197.96H104.966C108.246 197.96 110.006 199.92 110.006 203.1C110.006 206.26 108.246 208.14 104.966 208.14H102.706ZM114.605 210H116.885V198.98H114.605V210ZM115.765 197.52C116.565 197.52 117.205 196.88 117.205 196.06C117.205 195.24 116.565 194.6 115.765 194.6C114.945 194.6 114.305 195.24 114.305 196.06C114.305 196.88 114.945 197.52 115.765 197.52ZM128.099 206.92C127.979 202.94 121.759 204.18 121.759 201.96C121.759 201.22 122.399 200.72 123.619 200.72C124.859 200.72 125.599 201.38 125.679 202.34H127.959C127.839 200.14 126.199 198.8 123.699 198.8C121.099 198.8 119.459 200.22 119.459 201.98C119.459 206.02 125.859 204.78 125.859 206.94C125.859 207.7 125.159 208.26 123.839 208.26C122.579 208.26 121.719 207.52 121.639 206.62H119.279C119.379 208.62 121.239 210.18 123.879 210.18C126.479 210.18 128.099 208.78 128.099 206.92ZM129.803 204.48C129.803 207.94 132.043 210.18 135.203 210.18C137.903 210.18 139.663 208.68 140.283 206.52H137.823C137.403 207.66 136.563 208.26 135.203 208.26C133.363 208.26 132.143 206.9 132.143 204.48C132.143 202.08 133.363 200.72 135.203 200.72C136.563 200.72 137.443 201.4 137.823 202.46H140.283C139.663 200.14 137.903 198.8 135.203 198.8C132.043 198.8 129.803 201.04 129.803 204.48ZM144.835 204.2C144.835 201.86 145.875 201.16 147.555 201.16H148.135V198.8C146.575 198.8 145.475 199.48 144.835 200.58V198.98H142.555V210H144.835V204.2ZM154.87 200.72C156.57 200.72 157.91 201.8 157.95 203.5H151.85C152.09 201.76 153.33 200.72 154.87 200.72ZM160.03 206.72H157.57C157.15 207.58 156.37 208.26 154.97 208.26C153.29 208.26 151.99 207.16 151.83 205.34H160.25C160.31 204.96 160.33 204.6 160.33 204.22C160.33 200.98 158.11 198.8 154.97 198.8C151.71 198.8 149.47 201.02 149.47 204.48C149.47 207.94 151.81 210.18 154.97 210.18C157.67 210.18 159.41 208.64 160.03 206.72ZM162.934 206.94C162.934 209.18 164.154 210 166.114 210H167.914V208.1H166.514C165.554 208.1 165.234 207.76 165.234 206.94V200.84H167.914V198.98H165.234V196.24H162.934V198.98H161.634V200.84H162.934V206.94ZM174.656 200.72C176.356 200.72 177.696 201.8 177.736 203.5H171.636C171.876 201.76 173.116 200.72 174.656 200.72ZM179.816 206.72H177.356C176.936 207.58 176.156 208.26 174.756 208.26C173.076 208.26 171.776 207.16 171.616 205.34H180.036C180.096 204.96 180.116 204.6 180.116 204.22C180.116 200.98 177.896 198.8 174.756 198.8C171.496 198.8 169.256 201.02 169.256 204.48C169.256 207.94 171.596 210.18 174.756 210.18C177.456 210.18 179.196 208.64 179.816 206.72ZM187.555 210H189.835V200.48L194.095 210H195.675L199.915 200.48V210H202.195V196.1H199.755L194.895 207L190.015 196.1H187.555V210ZM204.431 204.44C204.431 207.84 206.731 210.18 209.591 210.18C211.431 210.18 212.751 209.3 213.451 208.36V210H215.751V198.98H213.451V200.58C212.771 199.68 211.491 198.8 209.631 198.8C206.731 198.8 204.431 201.04 204.431 204.44ZM213.451 204.48C213.451 206.86 211.831 208.2 210.111 208.2C208.411 208.2 206.771 206.82 206.771 204.44C206.771 202.06 208.411 200.78 210.111 200.78C211.831 200.78 213.451 202.12 213.451 204.48ZM219.106 206.94C219.106 209.18 220.326 210 222.286 210H224.086V208.1H222.686C221.726 208.1 221.406 207.76 221.406 206.94V200.84H224.086V198.98H221.406V196.24H219.106V198.98H217.806V200.84H219.106V206.94ZM226.188 210H228.468V203.84C228.468 201.82 229.568 200.78 231.248 200.78C232.908 200.78 234.008 201.82 234.008 203.84V210H236.268V203.5C236.268 200.42 234.348 198.8 231.888 198.8C230.468 198.8 229.228 199.34 228.468 200.26V195.2H226.188V210ZM243.816 200.72C245.516 200.72 246.856 201.8 246.896 203.5H240.796C241.036 201.76 242.276 200.72 243.816 200.72ZM248.976 206.72H246.516C246.096 207.58 245.316 208.26 243.916 208.26C242.236 208.26 240.936 207.16 240.776 205.34H249.196C249.256 204.96 249.276 204.6 249.276 204.22C249.276 200.98 247.056 198.8 243.916 198.8C240.656 198.8 238.416 201.02 238.416 204.48C238.416 207.94 240.756 210.18 243.916 210.18C246.616 210.18 248.356 208.64 248.976 206.72ZM267.14 210H269.4V203.5C269.4 200.42 267.44 198.8 264.86 198.8C263.26 198.8 261.7 199.64 261.02 200.98C260.26 199.54 258.8 198.8 257.06 198.8C255.74 198.8 254.54 199.34 253.8 200.24V198.98H251.52V210H253.8V203.84C253.8 201.82 254.9 200.78 256.58 200.78C258.24 200.78 259.34 201.82 259.34 203.84V210H261.6V203.84C261.6 201.82 262.7 200.78 264.38 200.78C266.04 200.78 267.14 201.82 267.14 203.84V210ZM271.541 204.44C271.541 207.84 273.841 210.18 276.701 210.18C278.541 210.18 279.861 209.3 280.561 208.36V210H282.861V198.98H280.561V200.58C279.881 199.68 278.601 198.8 276.741 198.8C273.841 198.8 271.541 201.04 271.541 204.44ZM280.561 204.48C280.561 206.86 278.941 208.2 277.221 208.2C275.521 208.2 273.881 206.82 273.881 204.44C273.881 202.06 275.521 200.78 277.221 200.78C278.941 200.78 280.561 202.12 280.561 204.48ZM286.215 206.94C286.215 209.18 287.435 210 289.395 210H291.195V208.1H289.795C288.835 208.1 288.515 207.76 288.515 206.94V200.84H291.195V198.98H288.515V196.24H286.215V198.98H284.915V200.84H286.215V206.94ZM293.297 210H295.577V198.98H293.297V210ZM294.457 197.52C295.257 197.52 295.897 196.88 295.897 196.06C295.897 195.24 295.257 194.6 294.457 194.6C293.637 194.6 292.997 195.24 292.997 196.06C292.997 196.88 293.637 197.52 294.457 197.52ZM297.81 204.48C297.81 207.94 300.05 210.18 303.21 210.18C305.91 210.18 307.67 208.68 308.29 206.52H305.83C305.41 207.66 304.57 208.26 303.21 208.26C301.37 208.26 300.15 206.9 300.15 204.48C300.15 202.08 301.37 200.72 303.21 200.72C304.57 200.72 305.45 201.4 305.83 202.46H308.29C307.67 200.14 305.91 198.8 303.21 198.8C300.05 198.8 297.81 201.04 297.81 204.48ZM318.783 206.92C318.663 202.94 312.443 204.18 312.443 201.96C312.443 201.22 313.083 200.72 314.303 200.72C315.543 200.72 316.283 201.38 316.363 202.34H318.643C318.523 200.14 316.883 198.8 314.383 198.8C311.783 198.8 310.143 200.22 310.143 201.98C310.143 206.02 316.543 204.78 316.543 206.94C316.543 207.7 315.843 208.26 314.523 208.26C313.263 208.26 312.403 207.52 312.323 206.62H309.963C310.063 208.62 311.923 210.18 314.563 210.18C317.163 210.18 318.783 208.78 318.783 206.92Z" fill="#212832"/>
<rect x="0.5" y="180.5" width="616" height="49" stroke="black" stroke-opacity="0.5"/>
<rect y="123" width="617" height="50" fill="white"/>
<path d="M24.6 148.94C26.08 148.94 27.24 147.8 27.24 146.34C27.24 144.86 26.08 143.72 24.6 143.72C23.16 143.72 22 144.86 22 146.34C22 147.8 23.16 148.94 24.6 148.94ZM40.3689 146.02C40.3689 150.2 43.5489 153.12 47.4689 153.12C50.3689 153.12 52.8689 151.68 53.9289 148.96H51.1889C50.4489 150.44 49.1289 151.14 47.4689 151.14C44.7089 151.14 42.7089 149.16 42.7089 146.02C42.7089 142.88 44.7089 140.92 47.4689 140.92C49.1289 140.92 50.4489 141.62 51.1889 143.1H53.9289C52.8689 140.38 50.3689 138.92 47.4689 138.92C43.5489 138.92 40.3689 141.86 40.3689 146.02ZM67.0977 147.48C67.0977 144.02 64.6177 141.8 61.4777 141.8C58.3377 141.8 55.8577 144.02 55.8577 147.48C55.8577 150.94 58.2377 153.18 61.3777 153.18C64.5377 153.18 67.0977 150.94 67.0977 147.48ZM58.1777 147.48C58.1777 144.98 59.7177 143.78 61.4377 143.78C63.1377 143.78 64.7577 144.98 64.7577 147.48C64.7577 149.98 63.0777 151.2 61.3777 151.2C59.6577 151.2 58.1777 149.98 58.1777 147.48ZM84.9716 153H87.2316V146.5C87.2316 143.42 85.2716 141.8 82.6916 141.8C81.0916 141.8 79.5316 142.64 78.8516 143.98C78.0916 142.54 76.6316 141.8 74.8916 141.8C73.5716 141.8 72.3716 142.34 71.6316 143.24V141.98H69.3516V153H71.6316V146.84C71.6316 144.82 72.7316 143.78 74.4116 143.78C76.0716 143.78 77.1716 144.82 77.1716 146.84V153H79.4316V146.84C79.4316 144.82 80.5316 143.78 82.2116 143.78C83.8716 143.78 84.9716 144.82 84.9716 146.84V153ZM105.753 153H108.013V146.5C108.013 143.42 106.053 141.8 103.473 141.8C101.873 141.8 100.313 142.64 99.6328 143.98C98.8728 142.54 97.4128 141.8 95.6728 141.8C94.3528 141.8 93.1528 142.34 92.4128 143.24V141.98H90.1328V153H92.4128V146.84C92.4128 144.82 93.5128 143.78 95.1928 143.78C96.8528 143.78 97.9528 144.82 97.9528 146.84V153H100.213V146.84C100.213 144.82 101.313 143.78 102.993 143.78C104.653 143.78 105.753 144.82 105.753 146.84V153ZM120.894 141.98H118.614V148.12C118.614 150.14 117.514 151.18 115.834 151.18C114.174 151.18 113.074 150.14 113.074 148.12V141.98H110.814V148.46C110.814 151.54 112.774 153.16 115.354 153.16C116.654 153.16 117.894 152.62 118.614 151.68V153H120.894V141.98ZM131.722 153H133.982V146.5C133.982 143.42 132.042 141.8 129.462 141.8C128.142 141.8 126.922 142.34 126.182 143.24V141.98H123.902V153H126.182V146.84C126.182 144.82 127.282 143.78 128.962 143.78C130.622 143.78 131.722 144.82 131.722 146.84V153ZM136.891 153H139.171V141.98H136.891V153ZM138.051 140.52C138.851 140.52 139.491 139.88 139.491 139.06C139.491 138.24 138.851 137.6 138.051 137.6C137.231 137.6 136.591 138.24 136.591 139.06C136.591 139.88 137.231 140.52 138.051 140.52ZM141.404 147.48C141.404 150.94 143.644 153.18 146.804 153.18C149.504 153.18 151.264 151.68 151.884 149.52H149.424C149.004 150.66 148.164 151.26 146.804 151.26C144.964 151.26 143.744 149.9 143.744 147.48C143.744 145.08 144.964 143.72 146.804 143.72C148.164 143.72 149.044 144.4 149.424 145.46H151.884C151.264 143.14 149.504 141.8 146.804 141.8C143.644 141.8 141.404 144.04 141.404 147.48ZM153.396 147.44C153.396 150.84 155.696 153.18 158.556 153.18C160.396 153.18 161.716 152.3 162.416 151.36V153H164.716V141.98H162.416V143.58C161.736 142.68 160.456 141.8 158.596 141.8C155.696 141.8 153.396 144.04 153.396 147.44ZM162.416 147.48C162.416 149.86 160.796 151.2 159.076 151.2C157.376 151.2 155.736 149.82 155.736 147.44C155.736 145.06 157.376 143.78 159.076 143.78C160.796 143.78 162.416 145.12 162.416 147.48ZM168.071 149.94C168.071 152.18 169.291 153 171.251 153H173.051V151.1H171.651C170.691 151.1 170.371 150.76 170.371 149.94V143.84H173.051V141.98H170.371V139.24H168.071V141.98H166.771V143.84H168.071V149.94ZM175.152 153H177.432V141.98H175.152V153ZM176.312 140.52C177.112 140.52 177.752 139.88 177.752 139.06C177.752 138.24 177.112 137.6 176.312 137.6C175.492 137.6 174.852 138.24 174.852 139.06C174.852 139.88 175.492 140.52 176.312 140.52ZM179.126 141.98L183.306 153H186.026L190.226 141.98H187.806L184.686 150.96L181.566 141.98H179.126ZM196.589 143.72C198.289 143.72 199.629 144.8 199.669 146.5H193.569C193.809 144.76 195.049 143.72 196.589 143.72ZM201.749 149.72H199.289C198.869 150.58 198.089 151.26 196.689 151.26C195.009 151.26 193.709 150.16 193.549 148.34H201.969C202.029 147.96 202.049 147.6 202.049 147.22C202.049 143.98 199.829 141.8 196.689 141.8C193.429 141.8 191.189 144.02 191.189 147.48C191.189 150.94 193.529 153.18 196.689 153.18C199.389 153.18 201.129 151.64 201.749 149.72ZM217.168 139.08H209.488V153H217.168V151.14H211.768V146.88H216.568V145.02H211.768V140.94H217.168V139.08ZM227.797 153H230.057V146.5C230.057 143.42 228.117 141.8 225.537 141.8C224.217 141.8 222.997 142.34 222.257 143.24V141.98H219.977V153H222.257V146.84C222.257 144.82 223.357 143.78 225.037 143.78C226.697 143.78 227.797 144.82 227.797 146.84V153ZM232.205 147.44C232.205 150.84 234.505 153.18 237.405 153.18C239.205 153.18 240.525 152.28 241.225 151.34V153.18C241.225 155.38 239.905 156.46 238.145 156.46C236.565 156.46 235.345 155.68 235.005 154.54H232.745C233.025 156.98 235.205 158.44 238.145 158.44C241.585 158.44 243.525 156.18 243.525 153.18V141.98H241.225V143.58C240.545 142.64 239.205 141.8 237.405 141.8C234.505 141.8 232.205 144.04 232.205 147.44ZM241.225 147.48C241.225 149.86 239.605 151.2 237.885 151.2C236.185 151.2 234.545 149.82 234.545 147.44C234.545 145.06 236.185 143.78 237.885 143.78C239.605 143.78 241.225 145.12 241.225 147.48ZM246.52 153H248.8V138.2H246.52V153ZM251.793 153H254.073V141.98H251.793V153ZM252.953 140.52C253.753 140.52 254.393 139.88 254.393 139.06C254.393 138.24 253.753 137.6 252.953 137.6C252.133 137.6 251.493 138.24 251.493 139.06C251.493 139.88 252.133 140.52 252.953 140.52ZM265.286 149.92C265.166 145.94 258.946 147.18 258.946 144.96C258.946 144.22 259.586 143.72 260.806 143.72C262.046 143.72 262.786 144.38 262.866 145.34H265.146C265.026 143.14 263.386 141.8 260.886 141.8C258.286 141.8 256.646 143.22 256.646 144.98C256.646 149.02 263.046 147.78 263.046 149.94C263.046 150.7 262.346 151.26 261.026 151.26C259.766 151.26 258.906 150.52 258.826 149.62H256.466C256.566 151.62 258.426 153.18 261.066 153.18C263.666 153.18 265.286 151.78 265.286 149.92ZM267.75 153H270.03V146.84C270.03 144.82 271.13 143.78 272.81 143.78C274.47 143.78 275.57 144.82 275.57 146.84V153H277.83V146.5C277.83 143.42 275.91 141.8 273.45 141.8C272.03 141.8 270.79 142.34 270.03 143.26V138.2H267.75V153Z" fill="#212832"/>
<rect x="0.5" y="123.5" width="616" height="49" stroke="black" stroke-opacity="0.5"/>
<rect y="237" width="617" height="50" fill="white"/>
<path d="M24.6 262.94C26.08 262.94 27.24 261.8 27.24 260.34C27.24 258.86 26.08 257.72 24.6 257.72C23.16 257.72 22 258.86 22 260.34C22 261.8 23.16 262.94 24.6 262.94ZM54.5689 260.02C54.5689 255.86 51.4289 252.92 47.4689 252.92C43.5489 252.92 40.3689 255.86 40.3689 260.02C40.3689 264.2 43.5489 267.14 47.4689 267.14C51.4289 267.14 54.5689 264.2 54.5689 260.02ZM42.7089 260.02C42.7089 256.88 44.7089 254.92 47.4689 254.92C50.2289 254.92 52.2289 256.88 52.2289 260.02C52.2289 263.16 50.2289 265.16 47.4689 265.16C44.7089 265.16 42.7089 263.16 42.7089 260.02ZM59.0925 257.6V255.98H56.8125V272.24H59.0925V265.4C59.8125 266.26 61.1125 267.18 62.9325 267.18C65.8325 267.18 68.1125 264.84 68.1125 261.44C68.1125 258.04 65.8325 255.8 62.9325 255.8C61.1325 255.8 59.7925 256.68 59.0925 257.6ZM65.7925 261.44C65.7925 263.82 64.1525 265.2 62.4325 265.2C60.7325 265.2 59.0925 263.86 59.0925 261.48C59.0925 259.12 60.7325 257.78 62.4325 257.78C64.1525 257.78 65.7925 259.06 65.7925 261.44ZM75.0072 257.72C76.7072 257.72 78.0472 258.8 78.0872 260.5H71.9872C72.2272 258.76 73.4672 257.72 75.0072 257.72ZM80.1672 263.72H77.7072C77.2872 264.58 76.5072 265.26 75.1072 265.26C73.4272 265.26 72.1272 264.16 71.9672 262.34H80.3872C80.4472 261.96 80.4672 261.6 80.4672 261.22C80.4672 257.98 78.2472 255.8 75.1072 255.8C71.8472 255.8 69.6072 258.02 69.6072 261.48C69.6072 264.94 71.9472 267.18 75.1072 267.18C77.8072 267.18 79.5472 265.64 80.1672 263.72ZM84.9909 261.2C84.9909 258.86 86.0309 258.16 87.7109 258.16H88.2909V255.8C86.7309 255.8 85.6309 256.48 84.9909 257.58V255.98H82.7109V267H84.9909V261.2ZM89.6267 261.44C89.6267 264.84 91.9267 267.18 94.7867 267.18C96.6267 267.18 97.9467 266.3 98.6467 265.36V267H100.947V255.98H98.6467V257.58C97.9667 256.68 96.6867 255.8 94.8267 255.8C91.9267 255.8 89.6267 258.04 89.6267 261.44ZM98.6467 261.48C98.6467 263.86 97.0267 265.2 95.3067 265.2C93.6067 265.2 91.9667 263.82 91.9667 261.44C91.9667 259.06 93.6067 257.78 95.3067 257.78C97.0267 257.78 98.6467 259.12 98.6467 261.48ZM104.301 263.94C104.301 266.18 105.521 267 107.481 267H109.281V265.1H107.881C106.921 265.1 106.601 264.76 106.601 263.94V257.84H109.281V255.98H106.601V253.24H104.301V255.98H103.001V257.84H104.301V263.94ZM111.383 267H113.663V255.98H111.383V267ZM112.543 254.52C113.343 254.52 113.983 253.88 113.983 253.06C113.983 252.24 113.343 251.6 112.543 251.6C111.723 251.6 111.083 252.24 111.083 253.06C111.083 253.88 111.723 254.52 112.543 254.52ZM124.476 267H126.736V260.5C126.736 257.42 124.796 255.8 122.216 255.8C120.896 255.8 119.676 256.34 118.936 257.24V255.98H116.656V267H118.936V260.84C118.936 258.82 120.036 257.78 121.716 257.78C123.376 257.78 124.476 258.82 124.476 260.84V267ZM128.885 261.44C128.885 264.84 131.185 267.18 134.085 267.18C135.885 267.18 137.205 266.28 137.905 265.34V267.18C137.905 269.38 136.585 270.46 134.825 270.46C133.245 270.46 132.025 269.68 131.685 268.54H129.425C129.705 270.98 131.885 272.44 134.825 272.44C138.265 272.44 140.205 270.18 140.205 267.18V255.98H137.905V257.58C137.225 256.64 135.885 255.8 134.085 255.8C131.185 255.8 128.885 258.04 128.885 261.44ZM137.905 261.48C137.905 263.86 136.285 265.2 134.565 265.2C132.865 265.2 131.225 263.82 131.225 261.44C131.225 259.06 132.865 257.78 134.565 257.78C136.285 257.78 137.905 259.12 137.905 261.48ZM157.775 263.06C157.775 257.98 150.415 259.94 150.415 256.8C150.415 255.46 151.435 254.82 152.755 254.86C154.195 254.9 155.015 255.76 155.095 256.7H157.615C157.415 254.32 155.535 252.92 152.875 252.92C150.035 252.92 148.095 254.44 148.095 256.88C148.095 262 155.475 259.82 155.475 263.18C155.475 264.36 154.575 265.22 152.975 265.22C151.395 265.22 150.595 264.3 150.495 263.16H148.055C148.055 265.62 150.195 267.14 152.975 267.14C156.075 267.14 157.775 265.14 157.775 263.06ZM164.805 264.38L161.705 255.98H159.165L163.505 266.82L161.265 272.18H163.625L170.385 255.98H168.025L164.805 264.38ZM180.325 263.92C180.205 259.94 173.985 261.18 173.985 258.96C173.985 258.22 174.625 257.72 175.845 257.72C177.085 257.72 177.825 258.38 177.905 259.34H180.185C180.065 257.14 178.425 255.8 175.925 255.8C173.325 255.8 171.685 257.22 171.685 258.98C171.685 263.02 178.085 261.78 178.085 263.94C178.085 264.7 177.385 265.26 176.065 265.26C174.805 265.26 173.945 264.52 173.865 263.62H171.505C171.605 265.62 173.465 267.18 176.105 267.18C178.705 267.18 180.325 265.78 180.325 263.92ZM183.149 263.94C183.149 266.18 184.369 267 186.329 267H188.129V265.1H186.729C185.769 265.1 185.449 264.76 185.449 263.94V257.84H188.129V255.98H185.449V253.24H183.149V255.98H181.849V257.84H183.149V263.94ZM194.87 257.72C196.57 257.72 197.91 258.8 197.95 260.5H191.85C192.09 258.76 193.33 257.72 194.87 257.72ZM200.03 263.72H197.57C197.15 264.58 196.37 265.26 194.97 265.26C193.29 265.26 191.99 264.16 191.83 262.34H200.25C200.31 261.96 200.33 261.6 200.33 261.22C200.33 257.98 198.11 255.8 194.97 255.8C191.71 255.8 189.47 258.02 189.47 261.48C189.47 264.94 191.81 267.18 194.97 267.18C197.67 267.18 199.41 265.64 200.03 263.72ZM218.194 267H220.454V260.5C220.454 257.42 218.494 255.8 215.914 255.8C214.314 255.8 212.754 256.64 212.074 257.98C211.314 256.54 209.854 255.8 208.114 255.8C206.794 255.8 205.594 256.34 204.854 257.24V255.98H202.574V267H204.854V260.84C204.854 258.82 205.954 257.78 207.634 257.78C209.294 257.78 210.394 258.82 210.394 260.84V267H212.654V260.84C212.654 258.82 213.754 257.78 215.434 257.78C217.094 257.78 218.194 258.82 218.194 260.84V267ZM231.575 263.92C231.455 259.94 225.235 261.18 225.235 258.96C225.235 258.22 225.875 257.72 227.095 257.72C228.335 257.72 229.075 258.38 229.155 259.34H231.435C231.315 257.14 229.675 255.8 227.175 255.8C224.575 255.8 222.935 257.22 222.935 258.98C222.935 263.02 229.335 261.78 229.335 263.94C229.335 264.7 228.635 265.26 227.315 265.26C226.055 265.26 225.195 264.52 225.115 263.62H222.755C222.855 265.62 224.715 267.18 227.355 267.18C229.955 267.18 231.575 265.78 231.575 263.92Z" fill="#212832"/>
<rect x="0.5" y="237.5" width="616" height="49" stroke="black" stroke-opacity="0.5"/>
<rect y="408" width="617" height="50" fill="white"/>
<path d="M24.6 433.94C26.08 433.94 27.24 432.8 27.24 431.34C27.24 429.86 26.08 428.72 24.6 428.72C23.16 428.72 22 429.86 22 431.34C22 432.8 23.16 433.94 24.6 433.94ZM46.5689 435.66L42.4489 424.1H40.0089L45.2489 438H47.8889L53.1089 424.1H50.7089L46.5689 435.66ZM55.0156 438H57.2956V426.98H55.0156V438ZM56.1756 425.52C56.9756 425.52 57.6156 424.88 57.6156 424.06C57.6156 423.24 56.9756 422.6 56.1756 422.6C55.3556 422.6 54.7156 423.24 54.7156 424.06C54.7156 424.88 55.3556 425.52 56.1756 425.52ZM68.5091 434.92C68.3891 430.94 62.1691 432.18 62.1691 429.96C62.1691 429.22 62.8091 428.72 64.0291 428.72C65.2691 428.72 66.0091 429.38 66.0891 430.34H68.3691C68.2491 428.14 66.6091 426.8 64.1091 426.8C61.5091 426.8 59.8691 428.22 59.8691 429.98C59.8691 434.02 66.2691 432.78 66.2691 434.94C66.2691 435.7 65.5691 436.26 64.2491 436.26C62.9891 436.26 62.1291 435.52 62.0491 434.62H59.6891C59.7891 436.62 61.6491 438.18 64.2891 438.18C66.8891 438.18 68.5091 436.78 68.5091 434.92ZM80.9527 426.98H78.6727V433.12C78.6727 435.14 77.5727 436.18 75.8927 436.18C74.2327 436.18 73.1327 435.14 73.1327 433.12V426.98H70.8727V433.46C70.8727 436.54 72.8327 438.16 75.4127 438.16C76.7127 438.16 77.9527 437.62 78.6727 436.68V438H80.9527V426.98ZM83.2009 432.44C83.2009 435.84 85.5009 438.18 88.3609 438.18C90.2009 438.18 91.5209 437.3 92.2209 436.36V438H94.5209V426.98H92.2209V428.58C91.5409 427.68 90.2609 426.8 88.4009 426.8C85.5009 426.8 83.2009 429.04 83.2009 432.44ZM92.2209 432.48C92.2209 434.86 90.6009 436.2 88.8809 436.2C87.1809 436.2 85.5409 434.82 85.5409 432.44C85.5409 430.06 87.1809 428.78 88.8809 428.78C90.6009 428.78 92.2209 430.12 92.2209 432.48ZM97.5156 438H99.7956V423.2H97.5156V438ZM110.264 430.5V425.96H112.784C114.564 425.96 115.364 426.8 115.364 428.24C115.364 429.64 114.564 430.5 112.784 430.5H110.264ZM117.704 428.24C117.704 425.98 116.084 424.1 112.784 424.1H107.984V438H110.264V432.36H112.784C116.404 432.36 117.704 430.22 117.704 428.24ZM122.159 432.2C122.159 429.86 123.199 429.16 124.879 429.16H125.459V426.8C123.899 426.8 122.799 427.48 122.159 428.58V426.98H119.879V438H122.159V432.2ZM138.055 432.48C138.055 429.02 135.575 426.8 132.435 426.8C129.295 426.8 126.815 429.02 126.815 432.48C126.815 435.94 129.195 438.18 132.335 438.18C135.495 438.18 138.055 435.94 138.055 432.48ZM129.135 432.48C129.135 429.98 130.675 428.78 132.395 428.78C134.095 428.78 135.715 429.98 135.715 432.48C135.715 434.98 134.035 436.2 132.335 436.2C130.615 436.2 129.135 434.98 129.135 432.48ZM139.549 432.44C139.549 435.84 141.849 438.18 144.749 438.18C146.549 438.18 147.869 437.28 148.569 436.34V438.18C148.569 440.38 147.249 441.46 145.489 441.46C143.909 441.46 142.689 440.68 142.349 439.54H140.089C140.369 441.98 142.549 443.44 145.489 443.44C148.929 443.44 150.869 441.18 150.869 438.18V426.98H148.569V428.58C147.889 427.64 146.549 426.8 144.749 426.8C141.849 426.8 139.549 429.04 139.549 432.44ZM148.569 432.48C148.569 434.86 146.949 436.2 145.229 436.2C143.529 436.2 141.889 434.82 141.889 432.44C141.889 430.06 143.529 428.78 145.229 428.78C146.949 428.78 148.569 430.12 148.569 432.48ZM156.143 432.2C156.143 429.86 157.183 429.16 158.863 429.16H159.443V426.8C157.883 426.8 156.783 427.48 156.143 428.58V426.98H153.863V438H156.143V432.2ZM160.779 432.44C160.779 435.84 163.079 438.18 165.939 438.18C167.779 438.18 169.099 437.3 169.799 436.36V438H172.099V426.98H169.799V428.58C169.119 427.68 167.839 426.8 165.979 426.8C163.079 426.8 160.779 429.04 160.779 432.44ZM169.799 432.48C169.799 434.86 168.179 436.2 166.459 436.2C164.759 436.2 163.119 434.82 163.119 432.44C163.119 430.06 164.759 428.78 166.459 428.78C168.179 428.78 169.799 430.12 169.799 432.48ZM190.714 438H192.974V431.5C192.974 428.42 191.014 426.8 188.434 426.8C186.834 426.8 185.274 427.64 184.594 428.98C183.834 427.54 182.374 426.8 180.634 426.8C179.314 426.8 178.114 427.34 177.374 428.24V426.98H175.094V438H177.374V431.84C177.374 429.82 178.474 428.78 180.154 428.78C181.814 428.78 182.914 429.82 182.914 431.84V438H185.174V431.84C185.174 429.82 186.274 428.78 187.954 428.78C189.614 428.78 190.714 429.82 190.714 431.84V438ZM211.495 438H213.755V431.5C213.755 428.42 211.795 426.8 209.215 426.8C207.615 426.8 206.055 427.64 205.375 428.98C204.615 427.54 203.155 426.8 201.415 426.8C200.095 426.8 198.895 427.34 198.155 428.24V426.98H195.875V438H198.155V431.84C198.155 429.82 199.255 428.78 200.935 428.78C202.595 428.78 203.695 429.82 203.695 431.84V438H205.955V431.84C205.955 429.82 207.055 428.78 208.735 428.78C210.395 428.78 211.495 429.82 211.495 431.84V438ZM216.656 438H218.936V426.98H216.656V438ZM217.816 425.52C218.616 425.52 219.256 424.88 219.256 424.06C219.256 423.24 218.616 422.6 217.816 422.6C216.996 422.6 216.356 423.24 216.356 424.06C216.356 424.88 216.996 425.52 217.816 425.52ZM229.75 438H232.01V431.5C232.01 428.42 230.07 426.8 227.49 426.8C226.17 426.8 224.95 427.34 224.21 428.24V426.98H221.93V438H224.21V431.84C224.21 429.82 225.31 428.78 226.99 428.78C228.65 428.78 229.75 429.82 229.75 431.84V438ZM234.158 432.44C234.158 435.84 236.458 438.18 239.358 438.18C241.158 438.18 242.478 437.28 243.178 436.34V438.18C243.178 440.38 241.858 441.46 240.098 441.46C238.518 441.46 237.298 440.68 236.958 439.54H234.698C234.978 441.98 237.158 443.44 240.098 443.44C243.538 443.44 245.478 441.18 245.478 438.18V426.98H243.178V428.58C242.498 427.64 241.158 426.8 239.358 426.8C236.458 426.8 234.158 429.04 234.158 432.44ZM243.178 432.48C243.178 434.86 241.558 436.2 239.838 436.2C238.138 436.2 236.498 434.82 236.498 432.44C236.498 430.06 238.138 428.78 239.838 428.78C241.558 428.78 243.178 430.12 243.178 432.48ZM253.668 424.1V438H260.648V436.16H255.948V424.1H253.668ZM261.795 432.44C261.795 435.84 264.095 438.18 266.955 438.18C268.795 438.18 270.115 437.3 270.815 436.36V438H273.115V426.98H270.815V428.58C270.135 427.68 268.855 426.8 266.995 426.8C264.095 426.8 261.795 429.04 261.795 432.44ZM270.815 432.48C270.815 434.86 269.195 436.2 267.475 436.2C265.775 436.2 264.135 434.82 264.135 432.44C264.135 430.06 265.775 428.78 267.475 428.78C269.195 428.78 270.815 430.12 270.815 432.48ZM278.389 428.62V423.2H276.109V438H278.389V436.4C279.109 437.36 280.409 438.18 282.229 438.18C285.129 438.18 287.409 435.84 287.409 432.44C287.409 429.04 285.149 426.8 282.229 426.8C280.489 426.8 279.109 427.62 278.389 428.62ZM285.089 432.44C285.089 434.82 283.449 436.2 281.729 436.2C280.029 436.2 278.389 434.86 278.389 432.48C278.389 430.12 280.029 428.78 281.729 428.78C283.449 428.78 285.089 430.06 285.089 432.44Z" fill="#212832"/>
<rect x="0.5" y="408.5" width="616" height="49" stroke="black" stroke-opacity="0.5"/>
<rect y="294" width="617" height="50" fill="white"/>
<path d="M24.6 319.94C26.08 319.94 27.24 318.8 27.24 317.34C27.24 315.86 26.08 314.72 24.6 314.72C23.16 314.72 22 315.86 22 317.34C22 318.8 23.16 319.94 24.6 319.94ZM45.6689 310.1H41.1289V324H45.6689C50.1289 324 53.0489 321.38 53.0489 317.1C53.0489 312.8 50.1289 310.1 45.6689 310.1ZM43.4089 322.14V311.96H45.6689C48.9489 311.96 50.7089 313.92 50.7089 317.1C50.7089 320.26 48.9489 322.14 45.6689 322.14H43.4089ZM54.5486 318.44C54.5486 321.84 56.8486 324.18 59.7086 324.18C61.5486 324.18 62.8686 323.3 63.5686 322.36V324H65.8686V312.98H63.5686V314.58C62.8886 313.68 61.6086 312.8 59.7486 312.8C56.8486 312.8 54.5486 315.04 54.5486 318.44ZM63.5686 318.48C63.5686 320.86 61.9486 322.2 60.2286 322.2C58.5286 322.2 56.8886 320.82 56.8886 318.44C56.8886 316.06 58.5286 314.78 60.2286 314.78C61.9486 314.78 63.5686 316.12 63.5686 318.48ZM69.2233 320.94C69.2233 323.18 70.4433 324 72.4033 324H74.2033V322.1H72.8033C71.8433 322.1 71.5233 321.76 71.5233 320.94V314.84H74.2033V312.98H71.5233V310.24H69.2233V312.98H67.9233V314.84H69.2233V320.94ZM75.5447 318.44C75.5447 321.84 77.8447 324.18 80.7047 324.18C82.5447 324.18 83.8647 323.3 84.5647 322.36V324H86.8647V312.98H84.5647V314.58C83.8847 313.68 82.6047 312.8 80.7447 312.8C77.8447 312.8 75.5447 315.04 75.5447 318.44ZM84.5647 318.48C84.5647 320.86 82.9447 322.2 81.2247 322.2C79.5247 322.2 77.8847 320.82 77.8847 318.44C77.8847 316.06 79.5247 314.78 81.2247 314.78C82.9447 314.78 84.5647 316.12 84.5647 318.48ZM104.435 320.06C104.435 314.98 97.0747 316.94 97.0747 313.8C97.0747 312.46 98.0947 311.82 99.4147 311.86C100.855 311.9 101.675 312.76 101.755 313.7H104.275C104.075 311.32 102.195 309.92 99.5347 309.92C96.6947 309.92 94.7547 311.44 94.7547 313.88C94.7547 319 102.135 316.82 102.135 320.18C102.135 321.36 101.235 322.22 99.6347 322.22C98.0547 322.22 97.2547 321.3 97.1547 320.16H94.7147C94.7147 322.62 96.8547 324.14 99.6347 324.14C102.735 324.14 104.435 322.14 104.435 320.06ZM107.485 320.94C107.485 323.18 108.705 324 110.665 324H112.465V322.1H111.065C110.105 322.1 109.785 321.76 109.785 320.94V314.84H112.465V312.98H109.785V310.24H107.485V312.98H106.185V314.84H107.485V320.94ZM116.846 318.2C116.846 315.86 117.886 315.16 119.566 315.16H120.146V312.8C118.586 312.8 117.486 313.48 116.846 314.58V312.98H114.566V324H116.846V318.2ZM132.222 312.98H129.942V319.12C129.942 321.14 128.842 322.18 127.162 322.18C125.502 322.18 124.402 321.14 124.402 319.12V312.98H122.142V319.46C122.142 322.54 124.102 324.16 126.682 324.16C127.982 324.16 129.222 323.62 129.942 322.68V324H132.222V312.98ZM134.47 318.48C134.47 321.94 136.71 324.18 139.87 324.18C142.57 324.18 144.33 322.68 144.95 320.52H142.49C142.07 321.66 141.23 322.26 139.87 322.26C138.03 322.26 136.81 320.9 136.81 318.48C136.81 316.08 138.03 314.72 139.87 314.72C141.23 314.72 142.11 315.4 142.49 316.46H144.95C144.33 314.14 142.57 312.8 139.87 312.8C136.71 312.8 134.47 315.04 134.47 318.48ZM147.583 320.94C147.583 323.18 148.803 324 150.763 324H152.563V322.1H151.163C150.203 322.1 149.883 321.76 149.883 320.94V314.84H152.563V312.98H149.883V310.24H147.583V312.98H146.283V314.84H147.583V320.94ZM164.644 312.98H162.364V319.12C162.364 321.14 161.264 322.18 159.584 322.18C157.924 322.18 156.824 321.14 156.824 319.12V312.98H154.564V319.46C154.564 322.54 156.524 324.16 159.104 324.16C160.404 324.16 161.644 323.62 162.364 322.68V324H164.644V312.98ZM169.932 318.2C169.932 315.86 170.972 315.16 172.652 315.16H173.232V312.8C171.672 312.8 170.572 313.48 169.932 314.58V312.98H167.652V324H169.932V318.2ZM179.968 314.72C181.668 314.72 183.008 315.8 183.048 317.5H176.948C177.188 315.76 178.428 314.72 179.968 314.72ZM185.128 320.72H182.668C182.248 321.58 181.468 322.26 180.068 322.26C178.388 322.26 177.088 321.16 176.928 319.34H185.348C185.408 318.96 185.428 318.6 185.428 318.22C185.428 314.98 183.208 312.8 180.068 312.8C176.808 312.8 174.568 315.02 174.568 318.48C174.568 321.94 176.908 324.18 180.068 324.18C182.768 324.18 184.508 322.64 185.128 320.72ZM195.892 320.92C195.772 316.94 189.552 318.18 189.552 315.96C189.552 315.22 190.192 314.72 191.412 314.72C192.652 314.72 193.392 315.38 193.472 316.34H195.752C195.632 314.14 193.992 312.8 191.492 312.8C188.892 312.8 187.252 314.22 187.252 315.98C187.252 320.02 193.652 318.78 193.652 320.94C193.652 321.7 192.952 322.26 191.632 322.26C190.372 322.26 189.512 321.52 189.432 320.62H187.072C187.172 322.62 189.032 324.18 191.672 324.18C194.272 324.18 195.892 322.78 195.892 320.92Z" fill="#212832"/>
<rect x="0.5" y="294.5" width="616" height="49" stroke="black" stroke-opacity="0.5"/>
<rect y="465" width="617" height="50" fill="white"/>
<path d="M21.74 488.72H29.96V486.8H21.74V488.72ZM33.4392 488.72H41.6592V486.8H33.4392V488.72ZM45.1384 488.72H53.3584V486.8H45.1384V488.72ZM56.8377 488.72H65.0577V486.8H56.8377V488.72Z" fill="#212832"/>
<rect x="0.5" y="465.5" width="616" height="49" stroke="black" stroke-opacity="0.5"/>
<rect y="351" width="617" height="50" fill="white"/>
<path d="M24.6 376.94C26.08 376.94 27.24 375.8 27.24 374.34C27.24 372.86 26.08 371.72 24.6 371.72C23.16 371.72 22 372.86 22 374.34C22 375.8 23.16 376.94 24.6 376.94ZM45.6689 367.1H41.1289V381H45.6689C50.1289 381 53.0489 378.38 53.0489 374.1C53.0489 369.8 50.1289 367.1 45.6689 367.1ZM43.4089 379.14V368.96H45.6689C48.9489 368.96 50.7089 370.92 50.7089 374.1C50.7089 377.26 48.9489 379.14 45.6689 379.14H43.4089ZM54.5486 375.44C54.5486 378.84 56.8486 381.18 59.7086 381.18C61.5486 381.18 62.8686 380.3 63.5686 379.36V381H65.8686V369.98H63.5686V371.58C62.8886 370.68 61.6086 369.8 59.7486 369.8C56.8486 369.8 54.5486 372.04 54.5486 375.44ZM63.5686 375.48C63.5686 377.86 61.9486 379.2 60.2286 379.2C58.5286 379.2 56.8886 377.82 56.8886 375.44C56.8886 373.06 58.5286 371.78 60.2286 371.78C61.9486 371.78 63.5686 373.12 63.5686 375.48ZM69.2233 377.94C69.2233 380.18 70.4433 381 72.4033 381H74.2033V379.1H72.8033C71.8433 379.1 71.5233 378.76 71.5233 377.94V371.84H74.2033V369.98H71.5233V367.24H69.2233V369.98H67.9233V371.84H69.2233V377.94ZM75.5447 375.44C75.5447 378.84 77.8447 381.18 80.7047 381.18C82.5447 381.18 83.8647 380.3 84.5647 379.36V381H86.8647V369.98H84.5647V371.58C83.8847 370.68 82.6047 369.8 80.7447 369.8C77.8447 369.8 75.5447 372.04 75.5447 375.44ZM84.5647 375.48C84.5647 377.86 82.9447 379.2 81.2247 379.2C79.5247 379.2 77.8847 377.82 77.8847 375.44C77.8847 373.06 79.5247 371.78 81.2247 371.78C82.9447 371.78 84.5647 373.12 84.5647 375.48ZM104.435 377.06C104.435 371.98 97.0747 373.94 97.0747 370.8C97.0747 369.46 98.0947 368.82 99.4147 368.86C100.855 368.9 101.675 369.76 101.755 370.7H104.275C104.075 368.32 102.195 366.92 99.5347 366.92C96.6947 366.92 94.7547 368.44 94.7547 370.88C94.7547 376 102.135 373.82 102.135 377.18C102.135 378.36 101.235 379.22 99.6347 379.22C98.0547 379.22 97.2547 378.3 97.1547 377.16H94.7147C94.7147 379.62 96.8547 381.14 99.6347 381.14C102.735 381.14 104.435 379.14 104.435 377.06ZM107.485 377.94C107.485 380.18 108.705 381 110.665 381H112.465V379.1H111.065C110.105 379.1 109.785 378.76 109.785 377.94V371.84H112.465V369.98H109.785V367.24H107.485V369.98H106.185V371.84H107.485V377.94ZM116.846 375.2C116.846 372.86 117.886 372.16 119.566 372.16H120.146V369.8C118.586 369.8 117.486 370.48 116.846 371.58V369.98H114.566V381H116.846V375.2ZM132.222 369.98H129.942V376.12C129.942 378.14 128.842 379.18 127.162 379.18C125.502 379.18 124.402 378.14 124.402 376.12V369.98H122.142V376.46C122.142 379.54 124.102 381.16 126.682 381.16C127.982 381.16 129.222 380.62 129.942 379.68V381H132.222V369.98ZM134.47 375.48C134.47 378.94 136.71 381.18 139.87 381.18C142.57 381.18 144.33 379.68 144.95 377.52H142.49C142.07 378.66 141.23 379.26 139.87 379.26C138.03 379.26 136.81 377.9 136.81 375.48C136.81 373.08 138.03 371.72 139.87 371.72C141.23 371.72 142.11 372.4 142.49 373.46H144.95C144.33 371.14 142.57 369.8 139.87 369.8C136.71 369.8 134.47 372.04 134.47 375.48ZM147.583 377.94C147.583 380.18 148.803 381 150.763 381H152.563V379.1H151.163C150.203 379.1 149.883 378.76 149.883 377.94V371.84H152.563V369.98H149.883V367.24H147.583V369.98H146.283V371.84H147.583V377.94ZM164.644 369.98H162.364V376.12C162.364 378.14 161.264 379.18 159.584 379.18C157.924 379.18 156.824 378.14 156.824 376.12V369.98H154.564V376.46C154.564 379.54 156.524 381.16 159.104 381.16C160.404 381.16 161.644 380.62 162.364 379.68V381H164.644V369.98ZM169.932 375.2C169.932 372.86 170.972 372.16 172.652 372.16H173.232V369.8C171.672 369.8 170.572 370.48 169.932 371.58V369.98H167.652V381H169.932V375.2ZM179.968 371.72C181.668 371.72 183.008 372.8 183.048 374.5H176.948C177.188 372.76 178.428 371.72 179.968 371.72ZM185.128 377.72H182.668C182.248 378.58 181.468 379.26 180.068 379.26C178.388 379.26 177.088 378.16 176.928 376.34H185.348C185.408 375.96 185.428 375.6 185.428 375.22C185.428 371.98 183.208 369.8 180.068 369.8C176.808 369.8 174.568 372.02 174.568 375.48C174.568 378.94 176.908 381.18 180.068 381.18C182.768 381.18 184.508 379.64 185.128 377.72ZM195.892 377.92C195.772 373.94 189.552 375.18 189.552 372.96C189.552 372.22 190.192 371.72 191.412 371.72C192.652 371.72 193.392 372.38 193.472 373.34H195.752C195.632 371.14 193.992 369.8 191.492 369.8C188.892 369.8 187.252 371.22 187.252 372.98C187.252 377.02 193.652 375.78 193.652 377.94C193.652 378.7 192.952 379.26 191.632 379.26C190.372 379.26 189.512 378.52 189.432 377.62H187.072C187.172 379.62 189.032 381.18 191.672 381.18C194.272 381.18 195.892 379.78 195.892 377.92ZM203.551 367.1V381H210.531V379.16H205.831V367.1H203.551ZM211.678 375.44C211.678 378.84 213.978 381.18 216.838 381.18C218.678 381.18 219.998 380.3 220.698 379.36V381H222.998V369.98H220.698V371.58C220.018 370.68 218.738 369.8 216.878 369.8C213.978 369.8 211.678 372.04 211.678 375.44ZM220.698 375.48C220.698 377.86 219.078 379.2 217.358 379.2C215.658 379.2 214.018 377.82 214.018 375.44C214.018 373.06 215.658 371.78 217.358 371.78C219.078 371.78 220.698 373.12 220.698 375.48ZM228.272 371.62V366.2H225.992V381H228.272V379.4C228.992 380.36 230.292 381.18 232.112 381.18C235.012 381.18 237.292 378.84 237.292 375.44C237.292 372.04 235.032 369.8 232.112 369.8C230.372 369.8 228.992 370.62 228.272 371.62ZM234.972 375.44C234.972 377.82 233.332 379.2 231.612 379.2C229.912 379.2 228.272 377.86 228.272 375.48C228.272 373.12 229.912 371.78 231.612 371.78C233.332 371.78 234.972 373.06 234.972 375.44Z" fill="#212832"/>
<rect x="0.5" y="351.5" width="616" height="49" stroke="black" stroke-opacity="0.5"/>
<rect width="617" height="58" fill="#3498DB"/>
<path d="M33.925 32.95C33.925 26.8 24.975 28.75 24.975 25.25C24.975 23.825 26 23.15 27.375 23.2C28.875 23.225 29.8 24.125 29.875 25.275H33.725C33.5 22.125 31.05 20.3 27.475 20.3C23.875 20.3 21.325 22.2 21.325 25.35C21.3 31.675 30.3 29.4 30.3 33.175C30.3 34.425 29.325 35.3 27.675 35.3C26.05 35.3 25.125 34.375 25.025 32.975H21.275C21.325 36.275 24.125 38.175 27.75 38.175C31.725 38.175 33.925 35.7 33.925 32.95ZM43.4094 26.8C45.2094 26.8 46.6594 27.95 46.7094 29.775H40.1344C40.4094 27.875 41.7344 26.8 43.4094 26.8ZM49.9844 33.65H46.2094C45.7594 34.575 44.9344 35.325 43.4344 35.325C41.6844 35.325 40.2844 34.175 40.1094 32.125H50.2344C50.3094 31.675 50.3344 31.225 50.3344 30.775C50.3344 26.65 47.5094 23.925 43.5094 23.925C39.4094 23.925 36.5594 26.7 36.5594 31.075C36.5594 35.425 39.4844 38.225 43.5094 38.225C46.9344 38.225 49.2344 36.2 49.9844 33.65ZM72.7641 38H76.2641V29.875C76.2641 26.05 73.9141 23.95 70.5891 23.95C68.5641 23.95 66.7391 25.025 65.8391 26.6C64.8891 24.875 63.1141 23.95 60.9641 23.95C59.2391 23.95 57.7641 24.675 56.8891 25.825V24.15H53.3891V38H56.8891V30.35C56.8891 28.15 58.1141 27 60.0141 27C61.8641 27 63.0891 28.15 63.0891 30.35V38H66.5891V30.35C66.5891 28.15 67.8141 27 69.6891 27C71.5391 27 72.7641 28.15 72.7641 30.35V38ZM86.0354 26.8C87.8354 26.8 89.2854 27.95 89.3354 29.775H82.7604C83.0354 27.875 84.3604 26.8 86.0354 26.8ZM92.6104 33.65H88.8354C88.3854 34.575 87.5604 35.325 86.0604 35.325C84.3104 35.325 82.9104 34.175 82.7354 32.125H92.8604C92.9354 31.675 92.9604 31.225 92.9604 30.775C92.9604 26.65 90.1354 23.925 86.1354 23.925C82.0354 23.925 79.1854 26.7 79.1854 31.075C79.1854 35.425 82.1104 38.225 86.1354 38.225C89.5604 38.225 91.8604 36.2 92.6104 33.65ZM106.765 34.05C106.665 28.975 98.99 30.55 98.99 28.025C98.99 27.225 99.665 26.7 100.965 26.7C102.34 26.7 103.19 27.425 103.29 28.5H106.64C106.44 25.75 104.415 23.925 101.065 23.925C97.64 23.925 95.59 25.775 95.59 28.075C95.59 33.15 103.415 31.575 103.415 34.05C103.415 34.85 102.665 35.475 101.29 35.475C99.89 35.475 98.915 34.675 98.79 33.625H95.265C95.415 36.2 97.84 38.225 101.315 38.225C104.69 38.225 106.765 36.425 106.765 34.05ZM110.688 33.7C110.688 36.875 112.463 38 115.113 38H117.313V35.05H115.688C114.588 35.05 114.213 34.65 114.213 33.725V27.025H117.313V24.15H114.213V20.725H110.688V24.15H109.038V27.025H110.688V33.7ZM126.28 26.8C128.08 26.8 129.53 27.95 129.58 29.775H123.005C123.28 27.875 124.605 26.8 126.28 26.8ZM132.855 33.65H129.08C128.63 34.575 127.805 35.325 126.305 35.325C124.555 35.325 123.155 34.175 122.98 32.125H133.105C133.18 31.675 133.205 31.225 133.205 30.775C133.205 26.65 130.38 23.925 126.38 23.925C122.28 23.925 119.43 26.7 119.43 31.075C119.43 35.425 122.355 38.225 126.38 38.225C129.805 38.225 132.105 36.2 132.855 33.65ZM139.76 31.1C139.76 28.425 141.01 27.625 143.085 27.625H144.01V23.95C142.085 23.95 140.635 24.875 139.76 26.3V24.15H136.26V38H139.76V31.1ZM152.725 37.75H165.075V34.85H157.7C160.6 32.4 164.675 29.1 164.675 24.875C164.675 21.7 162.7 19.375 158.775 19.375C155.5 19.375 152.825 21.3 152.7 25.475H156.1C156.125 23.55 157.05 22.35 158.725 22.35C160.45 22.35 161.175 23.45 161.175 25.075C161.175 28.425 156.85 31.65 152.725 35.15V37.75Z" fill="white"/>
</svg>
