<svg width="203" height="75" viewBox="0 0 203 75" fill="none" xmlns="http://www.w3.org/2000/svg">
<rect width="203" height="75" fill="white"/>
<path fill-rule="evenodd" clip-rule="evenodd" d="M49.0504 25.5964L46.4294 45.909C42.5525 39.3019 43.59 30.9476 49.0504 25.5964Z" fill="#F48120"/>
<path fill-rule="evenodd" clip-rule="evenodd" d="M40.2592 41.3223L40.2046 41.0493L42.5525 40.7216L42.3887 39.7388L42.6618 39.6842L42.8802 40.94L40.2592 41.3223ZM39.877 38.1006C39.877 37.7184 39.9862 37.3908 40.2592 37.1178C40.8052 36.5717 41.6789 36.5717 42.2249 37.1178C42.771 37.6638 42.771 38.5375 42.2249 39.0289C41.9519 39.3019 41.6243 39.4111 41.242 39.4111C41.0236 39.4111 40.7506 39.3565 40.5322 39.2473C40.15 39.0289 39.877 38.5921 39.877 38.1006ZM40.15 38.1006C40.15 38.3191 40.2046 38.4829 40.3138 38.6467C40.423 38.8105 40.5322 38.9743 40.696 39.0289C40.8598 39.1381 41.0782 39.1927 41.242 39.1927C41.8427 39.1927 42.3341 38.7013 42.3341 38.1006C42.3341 37.8822 42.2795 37.7184 42.1703 37.5546C42.0611 37.3908 41.9519 37.227 41.7881 37.1724C41.6243 37.0632 41.4059 37.0086 41.242 37.0086C41.0236 37.0086 40.8598 37.0632 40.696 37.1724C40.3138 37.3362 40.0954 37.6638 40.15 38.1006ZM39.9316 35.9711L39.9862 35.6981L42.1157 35.152L40.2592 34.0054L40.3138 33.7323L42.7164 35.2612V35.3158L39.9316 35.9711ZM40.423 32.9679L40.8052 31.5482L41.0782 31.6028L40.7506 32.8041L41.5151 33.0225L41.8427 31.8758L42.1157 31.9304L41.7881 33.1317L42.771 33.4047L43.0986 32.2034L43.3716 32.258L42.9894 33.6777L40.423 32.9679ZM41.0236 30.8929L43.4808 31.8212L43.9176 30.6199L43.6992 30.5107L43.3716 31.439L41.1874 30.6199L41.0236 30.8929ZM41.6789 29.3094L41.7881 29.0364L43.044 28.9272L42.3341 27.8897L42.4433 27.6167L43.317 28.9272L44.4637 29.4732L44.3545 29.6916L43.2078 29.1456L41.6789 29.3094Z" fill="#231F20"/>
<path fill-rule="evenodd" clip-rule="evenodd" d="M44.409 47.4379C44.8458 47.4379 45.1734 47.7656 45.1734 48.2024C45.1734 48.6392 44.8458 48.9668 44.409 48.9668C43.9722 48.9668 43.6445 48.6392 43.6445 48.2024C43.6445 47.7656 43.9722 47.4379 44.409 47.4379Z" fill="#231F20"/>
<path d="M44.4089 48.9668C43.9721 48.9668 43.5898 48.5846 43.5898 48.1478C43.5898 47.7109 43.9721 47.3287 44.4089 47.3287C44.8457 47.3287 45.228 47.7109 45.228 48.1478C45.1734 48.6392 44.8457 48.9668 44.4089 48.9668ZM44.4089 47.4925C44.0267 47.4925 43.6991 47.8201 43.6991 48.2024C43.6991 48.5846 44.0267 48.9122 44.4089 48.9122C44.7911 48.9122 45.1188 48.5846 45.1188 48.2024C45.0641 47.8201 44.7911 47.4925 44.4089 47.4925Z" fill="#231F20"/>
<path d="M127.571 25.2687H123.694V22.0471H127.134V21.0642H123.694V18.2248H127.352V17.2966H122.493V26.2516H127.571V25.2687Z" fill="#231F20"/>
<path d="M137.345 26.2516H138.491V22.4293L141.495 17.2966H140.184L138.874 19.7537C138.71 20.0814 138.546 20.409 138.382 20.7366C138.218 21.0642 138.109 21.3373 137.945 21.6103C137.836 21.3919 137.782 21.1734 137.672 21.0096L137.399 20.409C137.29 20.1906 137.181 19.9722 137.072 19.7537L135.816 17.2966H134.505L137.345 22.4293V26.2516Z" fill="#231F20"/>
<path d="M134.615 25.2687H130.792V17.2966H129.591V26.2516H134.615V25.2687Z" fill="#231F20"/>
<path d="M139.42 32.3127H138.437V41.2677H139.42V32.3127Z" fill="#231F20"/>
<path d="M153.835 41.2676V32.3126H152.907V36.0803C152.907 36.5171 152.907 36.9539 152.907 37.3908C152.907 37.8276 152.907 38.2098 152.962 38.592C153.016 38.9743 153.016 39.3565 153.016 39.7387H152.962C152.798 39.3019 152.579 38.8105 152.361 38.319C152.142 37.8276 151.869 37.3362 151.596 36.7901L149.194 32.258H148.102V41.213H149.03V37.3908C149.03 36.8993 149.03 36.4625 149.03 36.0257C149.03 35.5888 149.03 35.2066 149.03 34.8244C149.03 34.4421 149.03 34.0599 148.975 33.6777H149.03C149.194 34.1691 149.412 34.6606 149.685 35.152C149.904 35.6434 150.177 36.1349 150.45 36.6809L152.852 41.213H153.835V41.2676Z" fill="#231F20"/>
<path d="M146.3 33.4048C146.027 33.0225 145.645 32.6949 145.208 32.4765C144.334 32.0397 143.297 32.0397 142.368 32.4765C141.931 32.6949 141.549 33.0225 141.276 33.4048C140.949 33.8416 140.676 34.333 140.566 34.8791C140.403 35.5343 140.293 36.1349 140.293 36.7902C140.293 37.3908 140.348 38.0461 140.566 38.6467C140.73 39.1382 140.949 39.6296 141.276 40.0664C141.549 40.4487 141.931 40.7763 142.368 40.9947C142.805 41.2131 143.242 41.3223 143.733 41.3223C144.116 41.3223 144.498 41.2677 144.825 41.1039C145.208 40.9947 145.535 40.7763 145.808 40.5033C146.136 40.2302 146.354 39.9026 146.573 39.575C146.791 39.1382 146.955 38.7013 147.064 38.2645C147.173 37.7185 147.228 37.1724 147.228 36.5718C147.228 35.9711 147.173 35.3159 147.01 34.7152C146.846 34.333 146.627 33.8416 146.3 33.4048ZM146.027 38.2099C145.918 38.6467 145.754 39.029 145.535 39.4112C145.371 39.7388 145.098 40.0118 144.771 40.2302C144.443 40.4487 144.116 40.5033 143.733 40.5033C143.46 40.5033 143.133 40.4487 142.86 40.2848C142.587 40.1756 142.368 39.9572 142.204 39.7388C141.986 39.5204 141.822 39.2474 141.713 38.9197C141.549 38.5921 141.495 38.2645 141.385 37.9369C141.331 37.5547 141.276 37.1724 141.276 36.8448C141.276 36.4626 141.331 36.0803 141.385 35.6981C141.44 35.3705 141.549 34.9883 141.658 34.6606C141.768 34.3876 141.931 34.06 142.15 33.8416C142.314 33.6232 142.587 33.4048 142.86 33.2955C143.133 33.1863 143.46 33.0771 143.733 33.0771C144.061 33.0771 144.334 33.1317 144.607 33.2955C144.88 33.4594 145.098 33.6232 145.262 33.8416C145.481 34.1146 145.645 34.3876 145.754 34.6606C145.863 34.9883 145.972 35.3159 146.027 35.6435C146.081 35.9711 146.136 36.3534 146.136 36.7356C146.191 37.227 146.136 37.7185 146.027 38.2099Z" fill="#231F20"/>
<path d="M160.934 41.2677L158.367 32.3127H157.221L154.654 41.2677H155.692L156.456 38.4283H159.132L159.951 41.2677H160.934ZM156.62 37.5546L157.384 34.9882C157.439 34.7152 157.548 34.4422 157.603 34.1692C157.658 33.8962 157.712 33.6231 157.767 33.3501C157.821 33.6231 157.876 33.8962 157.931 34.1692C157.985 34.4422 158.04 34.7152 158.149 34.9882L158.913 37.5546H156.62Z" fill="#231F20"/>
<path d="M121.837 33.2955V32.3127H117.742V41.2677H118.725V37.227H121.619V36.2441H118.725V33.2955H121.837Z" fill="#231F20"/>
<path d="M131.393 36.8447C131.065 36.5717 130.683 36.3533 130.301 36.1895C130.028 36.0803 129.7 35.9165 129.427 35.6981C129.209 35.5343 129.045 35.3704 128.936 35.152C128.827 34.9336 128.772 34.6606 128.772 34.4422C128.772 34.2784 128.772 34.1146 128.827 33.9507C128.881 33.7869 128.991 33.6231 129.1 33.5139C129.209 33.3501 129.373 33.2955 129.537 33.1863C129.755 33.0771 129.973 33.0771 130.192 33.0771C130.41 33.0771 130.629 33.0771 130.792 33.1317C130.956 33.1863 131.12 33.2409 131.284 33.2955C131.393 33.3501 131.502 33.4047 131.612 33.4593L131.885 32.531C131.775 32.4218 131.612 32.3672 131.502 32.3126C131.339 32.258 131.12 32.2034 130.956 32.1488C130.738 32.0942 130.519 32.0942 130.246 32.0942C129.919 32.0942 129.537 32.1488 129.264 32.258C128.663 32.4764 128.226 32.9679 128.008 33.5139C127.898 33.8415 127.844 34.1692 127.844 34.4968C127.844 34.879 127.898 35.2612 128.062 35.5889C128.226 35.9165 128.445 36.1895 128.772 36.4079C129.1 36.6809 129.482 36.8993 129.864 37.0086C130.137 37.1178 130.41 37.2816 130.683 37.5C130.902 37.6638 131.011 37.8276 131.12 38.046C131.229 38.2644 131.284 38.5375 131.284 38.7559C131.284 39.0289 131.229 39.3019 131.12 39.5749C131.011 39.7934 130.792 40.0118 130.574 40.121C130.301 40.2302 130.028 40.3394 129.7 40.3394C129.373 40.3394 129.045 40.2848 128.718 40.1756C128.445 40.0664 128.171 39.9572 127.953 39.7388L127.68 40.7216C127.844 40.8308 128.008 40.94 128.226 40.9946C128.663 41.1585 129.154 41.2677 129.646 41.2677C130.028 41.2677 130.465 41.2131 130.792 41.0492C131.12 40.94 131.393 40.7216 131.612 40.5032C131.83 40.2848 131.994 39.9572 132.103 39.6841C132.212 39.3565 132.267 39.0289 132.267 38.7013C132.267 38.319 132.212 37.9368 132.048 37.5546C131.885 37.3362 131.666 37.0632 131.393 36.8447Z" fill="#231F20"/>
<path d="M134.778 41.4315C135.161 41.4315 135.597 41.3769 135.925 41.2131C136.253 41.1038 136.526 40.8854 136.744 40.667C136.963 40.4486 137.126 40.121 137.236 39.848C137.345 39.5203 137.399 39.1927 137.399 38.8651C137.399 38.4829 137.345 38.1006 137.181 37.7184C137.017 37.3908 136.799 37.1178 136.526 36.8447C136.198 36.5717 135.816 36.3533 135.434 36.1895C135.161 36.0803 134.833 35.9165 134.56 35.6981C134.342 35.5343 134.178 35.3704 134.069 35.152C133.959 34.9336 133.905 34.6606 133.905 34.4422C133.905 34.2784 133.905 34.1146 133.959 33.9507C134.014 33.7869 134.123 33.6231 134.232 33.5139C134.342 33.3501 134.505 33.2955 134.669 33.1863C134.888 33.0771 135.106 33.0771 135.324 33.0771C135.543 33.0771 135.761 33.0771 135.925 33.1317C136.089 33.1863 136.253 33.2409 136.416 33.2955C136.526 33.3501 136.635 33.4047 136.744 33.4593L137.017 32.531C136.908 32.4218 136.744 32.3672 136.635 32.3126C136.471 32.258 136.253 32.2034 136.089 32.1488C135.87 32.0942 135.652 32.0942 135.379 32.0942C135.051 32.0942 134.669 32.1488 134.396 32.258C133.795 32.4764 133.359 32.9679 133.14 33.5139C133.031 33.8415 132.976 34.1692 132.976 34.4968C132.976 34.879 133.031 35.2612 133.195 35.5889C133.359 35.9165 133.577 36.1895 133.905 36.4079C134.232 36.6809 134.615 36.8993 134.997 37.0086C135.27 37.1178 135.543 37.2816 135.816 37.5C136.034 37.6638 136.143 37.8276 136.253 38.046C136.362 38.2644 136.416 38.5375 136.416 38.7559C136.416 39.0289 136.362 39.3019 136.253 39.5749C136.143 39.7934 135.925 40.0118 135.707 40.121C135.434 40.2302 135.161 40.3394 134.833 40.3394C134.178 40.3394 133.577 40.121 133.086 39.7388L132.813 40.7216C132.976 40.8308 133.14 40.94 133.359 40.9946C133.85 41.2677 134.287 41.3769 134.778 41.4315Z" fill="#231F20"/>
<path d="M165.903 40.2848H162.681V32.3127H161.698V41.2677H165.903V40.2848Z" fill="#231F20"/>
<path d="M126.97 33.2955V32.3127H122.875V41.2677H127.134V40.2848H123.858V37.0632H126.806V36.0803H123.858V33.2955H126.97Z" fill="#231F20"/>
<path d="M121.837 51.7516C121.619 52.3523 121.455 52.8983 121.291 53.4443C121.127 53.9904 120.964 54.5364 120.854 55.0825C120.745 54.5364 120.581 54.045 120.418 53.4989C120.254 52.9529 120.09 52.3523 119.872 51.7516L118.452 47.3287H117.196L120.145 56.2837H121.4L124.622 47.3287H123.366L121.837 51.7516Z" fill="#231F20"/>
<path d="M151.487 48.3116H154.217V56.2837H155.364V48.3116H158.149V47.3287H151.487V48.3116Z" fill="#231F20"/>
<path d="M165.029 47.3287L163.718 49.7859C163.555 50.1135 163.391 50.4411 163.227 50.7688C163.063 51.0964 162.954 51.3694 162.79 51.6424C162.681 51.424 162.626 51.2056 162.517 51.0418L162.244 50.4411C162.135 50.2227 162.026 50.0043 161.916 49.7859L160.661 47.3287H159.35L162.19 52.4615V56.2837H163.336V52.4615L166.339 47.3287H165.029Z" fill="#231F20"/>
<path d="M138.655 53.8265C138.601 53.3897 138.437 53.0075 138.164 52.6799C137.945 52.4068 137.672 52.1338 137.345 52.0246V51.97C137.672 51.8608 137.945 51.697 138.218 51.4786C138.491 51.2602 138.655 50.9871 138.819 50.7141C138.983 50.3865 139.037 50.0589 139.037 49.6767C139.037 49.349 138.983 49.0214 138.819 48.6938C138.71 48.4208 138.546 48.1477 138.328 47.9293C138.055 47.6563 137.672 47.4925 137.29 47.3833C136.799 47.2741 136.253 47.1649 135.761 47.2195C135.488 47.2195 135.215 47.2195 134.942 47.2195C134.669 47.2195 134.396 47.2741 134.178 47.2741C133.959 47.3287 133.741 47.3287 133.522 47.3833V56.2291H134.669V52.3522H135.761C136.089 52.3522 136.362 52.4068 136.635 52.5707C136.853 52.6799 137.072 52.8983 137.236 53.1167C137.399 53.4443 137.509 53.7719 137.563 54.0996C137.672 54.6456 137.782 55.137 137.891 55.4647C137.945 55.7377 138.055 55.9561 138.164 56.2291H139.365C139.256 55.9561 139.147 55.6285 139.037 55.3555C138.928 54.9732 138.819 54.4818 138.655 53.8265ZM136.908 51.3148C136.58 51.4786 136.198 51.5332 135.816 51.5332H134.615V48.257C134.778 48.2023 134.888 48.2023 135.051 48.2023C135.27 48.2023 135.488 48.2023 135.761 48.2023C136.143 48.2023 136.471 48.257 136.853 48.3662C137.126 48.4754 137.399 48.6392 137.563 48.9122C138.055 49.6767 137.891 50.7141 137.126 51.2056C137.072 51.2602 137.017 51.3148 136.908 51.3148Z" fill="#231F20"/>
<path d="M145.317 51.8608C144.935 51.5878 144.498 51.3694 144.061 51.2056C143.733 51.0964 143.351 50.9326 143.024 50.7141C142.805 50.6049 142.587 50.3865 142.423 50.1681C142.314 49.9497 142.205 49.7313 142.259 49.4583C142.259 49.2944 142.314 49.1306 142.368 48.9668C142.423 48.803 142.532 48.6392 142.641 48.53C142.805 48.3662 142.969 48.257 143.187 48.2024C143.46 48.0932 143.679 48.0932 143.952 48.0932C144.17 48.0932 144.443 48.0932 144.662 48.1478C144.88 48.2024 145.044 48.257 145.208 48.3116C145.317 48.3662 145.481 48.4208 145.59 48.4754L145.918 47.5471C145.754 47.4379 145.59 47.3833 145.426 47.3287C145.208 47.2741 144.989 47.2195 144.771 47.1649C144.498 47.1103 144.225 47.1103 143.952 47.1103C143.57 47.1103 143.133 47.1649 142.751 47.2741C142.423 47.3833 142.095 47.5471 141.822 47.7655C141.549 47.984 141.385 48.257 141.222 48.53C141.058 48.8576 141.003 49.1852 141.003 49.5129C141.003 49.8951 141.112 50.2773 141.276 50.6049C141.495 50.9326 141.768 51.2056 142.095 51.424C142.478 51.697 142.914 51.9154 143.351 52.0246C143.679 52.1338 144.006 52.2977 144.334 52.5161C144.552 52.6799 144.771 52.8437 144.88 53.0621C144.989 53.2805 145.044 53.5536 145.044 53.772C145.044 54.045 144.989 54.318 144.826 54.591C144.662 54.8094 144.443 55.0279 144.17 55.1371C143.843 55.3009 143.515 55.3555 143.133 55.3555C142.751 55.3555 142.368 55.3009 141.986 55.1917C141.658 55.0825 141.331 54.9732 141.058 54.7548L140.73 55.7377C140.949 55.8469 141.112 55.9561 141.331 56.0107C141.604 56.1199 141.877 56.1745 142.15 56.2291C142.423 56.2837 142.751 56.2837 143.024 56.2837C143.515 56.2837 143.952 56.2291 144.389 56.0653C144.771 55.9561 145.099 55.7377 145.372 55.5193C145.645 55.3009 145.808 55.0279 145.972 54.7002C146.081 54.3726 146.191 54.045 146.191 53.7174C146.354 53.0621 145.972 52.2977 145.317 51.8608Z" fill="#231F20"/>
<path d="M127.407 52.0792H130.902V51.151H127.407V48.3116H131.12V47.3287H126.26V56.2837H131.284V55.3009H127.407V52.0792Z" fill="#231F20"/>
<path d="M149.74 47.3287H148.593V56.2837H149.74V47.3287Z" fill="#231F20"/>
<path d="M60.7355 59.4508C72.9189 59.4508 82.7955 49.5742 82.7955 37.3908C82.7955 25.2075 72.9189 15.3309 60.7355 15.3309C48.5521 15.3309 38.6755 25.2075 38.6755 37.3908C38.6755 49.5742 48.5521 59.4508 60.7355 59.4508Z" fill="white"/>
<path d="M60.7357 59.6692C48.4498 59.6692 38.4573 49.6767 38.4573 37.3908C38.4573 25.1049 48.4498 15.1124 60.7357 15.1124C73.0215 15.1124 83.014 25.1049 83.014 37.3908C83.014 49.6767 73.0215 59.6692 60.7357 59.6692ZM60.7357 15.5493C48.6682 15.5493 38.8395 25.378 38.8395 37.3908C38.8395 49.4037 48.6682 59.2324 60.7357 59.2324C72.8031 59.2324 82.6318 49.4037 82.6318 37.3908C82.6318 25.378 72.8031 15.5493 60.7357 15.5493Z" fill="#231F20"/>
<path fill-rule="evenodd" clip-rule="evenodd" d="M60.7355 20.3544C70.182 20.3544 77.772 27.9989 77.772 37.4454C77.772 46.8918 70.1274 54.4818 60.6809 54.4818C51.2891 54.4818 43.6445 46.8372 43.6445 37.3908C43.6445 27.9443 51.2891 20.2998 60.7355 20.3544Z" fill="white"/>
<path fill-rule="evenodd" clip-rule="evenodd" d="M60.7356 20.7913C69.9091 20.7913 77.3352 28.2174 77.3352 37.3908C77.3352 46.5643 69.8545 53.9904 60.681 53.9904C51.5075 53.9904 44.0814 46.5643 44.0814 37.3908C44.136 28.2174 51.5622 20.7913 60.7356 20.7913Z" fill="#231F20"/>
<path fill-rule="evenodd" clip-rule="evenodd" d="M47.2484 47.0557L53.9647 22.211C56.0942 21.2827 58.3876 20.7913 60.7356 20.7913C61.9915 20.7913 63.302 20.9551 64.5032 21.2281L48.6135 48.7484C48.1221 48.257 47.6852 47.6564 47.2484 47.0557Z" fill="#F48120"/>
<path fill-rule="evenodd" clip-rule="evenodd" d="M49.214 49.349L69.6358 23.3576C72.5298 25.2141 74.7686 27.8897 76.0791 31.0021L50.5791 50.5503C50.0877 50.1681 49.6508 49.7859 49.214 49.349Z" fill="#F48120"/>
<path fill-rule="evenodd" clip-rule="evenodd" d="M51.2892 51.0418L77.3352 36.2987C77.3352 36.6809 77.3898 37.0086 77.3898 37.3908C77.3898 40.8308 76.3524 44.1617 74.332 46.9465L53.6372 52.4069C52.8181 52.0246 51.999 51.5332 51.2892 51.0418Z" fill="#F48120"/>
<path fill-rule="evenodd" clip-rule="evenodd" d="M55.7666 53.2259L69.363 51.5878C65.2677 54.045 60.2987 54.6456 55.7666 53.2259Z" fill="#F48120"/>
<path d="M60.7356 54.2089C51.4529 54.2089 43.9176 46.6735 43.9176 37.3909C43.9176 28.1082 51.4529 20.5729 60.7356 20.5729C70.0183 20.5729 77.5536 28.1082 77.5536 37.3909C77.5536 46.6735 70.0183 54.2089 60.7356 54.2089ZM60.7356 21.0097C51.6714 21.0097 44.2998 28.3812 44.2998 37.3909C44.2998 46.4005 51.6714 53.772 60.7356 53.772C69.7998 53.772 77.1714 46.4005 77.1714 37.3909C77.1714 28.3812 69.7998 21.0097 60.7356 21.0097Z" fill="#231F20"/>
<path fill-rule="evenodd" clip-rule="evenodd" d="M46.5386 22.4293L46.9208 22.1017C47.0846 21.9925 47.2484 21.8287 47.4122 21.7195C47.5214 21.6649 47.6853 21.6103 47.8491 21.6649C48.0129 21.7195 48.1221 21.7741 48.2313 21.8833C48.3405 21.9925 48.3951 22.1563 48.3951 22.3201C48.3951 22.4839 48.3405 22.5931 48.2313 22.7569C48.0675 22.9207 47.9037 23.0846 47.7399 23.1938L47.576 23.303L48.3405 24.2312L48.1221 24.3951L46.5386 22.4293ZM46.9208 22.4839L47.4668 23.1392L47.7945 22.8661C47.9037 22.8115 48.0129 22.7023 48.0675 22.5931C48.1221 22.5385 48.1221 22.4293 48.1221 22.3201C48.1221 22.2109 48.0675 22.1563 48.0129 22.1017C47.9583 22.0471 47.9037 21.9925 47.7945 21.9925C47.7399 21.9925 47.6307 21.9925 47.576 21.9925C47.4668 22.0471 47.3576 22.1017 47.2484 22.2109L46.9208 22.4839ZM48.3951 20.9004L49.8694 23.03L50.0878 22.8661L49.378 21.8833L49.4872 21.7741L50.9615 22.2109L51.2345 22.0471L49.7602 21.6103C49.924 21.501 50.0332 21.3918 50.1424 21.228C50.197 21.1188 50.2516 21.0096 50.2516 20.8458C50.2516 20.7366 50.197 20.5728 50.1424 20.4636C50.0332 20.3544 49.924 20.2452 49.7602 20.1906C49.5964 20.136 49.4872 20.136 49.3234 20.2452C49.1596 20.3544 48.9957 20.409 48.8319 20.5728L48.3951 20.9004ZM48.7227 20.955L49.105 20.682C49.2142 20.6274 49.3234 20.5182 49.4326 20.5182C49.4872 20.5182 49.5964 20.5182 49.651 20.5182C49.7056 20.5728 49.8148 20.6274 49.8148 20.682C49.8694 20.7366 49.8694 20.8458 49.924 20.9004C49.924 21.0096 49.924 21.0642 49.8694 21.1188C49.8148 21.228 49.7056 21.3372 49.5964 21.3918L49.2142 21.6649L48.7227 20.955ZM51.5621 18.8801C51.8898 18.7162 52.272 18.6616 52.5996 18.7709C53.3095 18.9893 53.6917 19.7537 53.4733 20.4636C53.3641 20.7912 53.091 21.1188 52.7634 21.2826C52.4358 21.4464 52.0536 21.501 51.7259 21.3918C51.3983 21.2826 51.0707 21.0642 50.9615 20.7366C50.8523 20.5182 50.7977 20.2998 50.7977 20.0267C50.8523 19.5353 51.1253 19.0985 51.5621 18.8801ZM51.6713 19.0985C51.8352 18.9893 52.0536 18.9893 52.2174 18.9893C52.4358 18.9893 52.5996 19.0439 52.7634 19.1531C52.9272 19.2623 53.0364 19.4261 53.1456 19.5899C53.2549 19.7537 53.2549 19.9721 53.2549 20.136C53.2549 20.2998 53.2002 20.5182 53.091 20.682C52.9818 20.8458 52.818 20.955 52.6542 21.0642C52.1082 21.3372 51.4529 21.1188 51.1799 20.5728C51.0707 20.409 51.0161 20.1906 51.0707 20.0267C51.0707 19.6445 51.2891 19.2623 51.6713 19.0985ZM53.6917 18.0064L54.9476 17.6242L55.0022 17.8426L54.0193 18.1702L54.2923 18.9347L55.2752 18.607L55.3298 18.8255L54.3469 19.1531L54.7292 20.3544L54.4561 20.409L53.6917 18.0064ZM55.6574 17.4604L57.1317 17.1327L57.1863 17.4058L55.9304 17.6242L56.0943 18.4432L57.2955 18.1702L57.3501 18.4432L56.1489 18.7163L56.3673 19.6991L57.5686 19.4261L57.6232 19.6991L56.1489 20.0267L55.6574 17.4604ZM57.7324 19.0985L57.9508 18.9347C58.1146 19.2077 58.333 19.3169 58.5514 19.3169C58.6606 19.3169 58.7152 19.2623 58.7698 19.2077C58.8244 19.1531 58.8791 19.0985 58.9337 19.0439C58.9883 18.9893 58.9883 18.8801 58.9883 18.8255C58.9883 18.7162 58.9337 18.6616 58.8791 18.607C58.7152 18.4432 58.5514 18.334 58.3876 18.2248C58.2238 18.1156 58.06 18.061 57.9508 17.8972C57.8416 17.788 57.787 17.6788 57.787 17.515C57.787 17.4058 57.787 17.2965 57.8416 17.1873C57.8962 17.0781 57.9508 17.0235 58.06 16.9143C58.1692 16.8597 58.2784 16.8051 58.3876 16.8051C58.4968 16.8051 58.606 16.8051 58.7152 16.8597C58.879 16.9143 58.9883 17.0235 59.0975 17.1327L58.9337 17.2965C58.8791 17.1873 58.7698 17.1327 58.6606 17.0781C58.606 17.0235 58.4968 17.0235 58.4422 17.0235C58.333 17.0235 58.2784 17.0781 58.2238 17.1327C58.1692 17.1873 58.1146 17.2965 58.1692 17.3512C58.1692 17.4058 58.1692 17.4604 58.2238 17.515C58.2784 17.5696 58.333 17.6242 58.3876 17.6788C58.4422 17.7334 58.5514 17.788 58.7698 17.8972C58.9883 18.0064 59.1521 18.1156 59.2613 18.2794C59.3705 18.3886 59.4251 18.4978 59.4251 18.6616C59.4251 18.8255 59.3705 19.0439 59.2613 19.1531C59.1521 19.3169 58.9883 19.4261 58.7698 19.4261C58.606 19.4261 58.4422 19.4261 58.333 19.3715C58.0054 19.4261 57.8416 19.2623 57.7324 19.0985ZM59.5889 18.9347L59.8073 18.8255C59.9711 19.0985 60.1349 19.2623 60.3534 19.2623C60.4626 19.2623 60.5172 19.2623 60.5718 19.2077C60.7356 19.1531 60.7902 18.9893 60.7902 18.8255C60.7902 18.7162 60.7356 18.6616 60.681 18.5524C60.5718 18.3886 60.408 18.2794 60.2441 18.1702C60.0803 18.061 59.9711 17.9518 59.8073 17.8426C59.6981 17.7334 59.6435 17.5696 59.6435 17.4604C59.6435 17.2419 59.7527 17.0235 59.9165 16.9143C60.0257 16.8597 60.1349 16.8051 60.2441 16.8051C60.3534 16.8051 60.4626 16.8051 60.5718 16.9143C60.681 17.0235 60.8448 17.1327 60.8994 17.2419L60.8448 17.2965C60.7902 17.1873 60.681 17.1327 60.5718 17.0235C60.5172 16.9689 60.408 16.9689 60.3534 16.9689C60.2441 16.9689 60.1895 17.0235 60.0803 17.0781C60.0257 17.1327 59.9711 17.2419 59.9711 17.2965C59.9711 17.3512 59.9711 17.4058 60.0257 17.4604C60.0803 17.515 60.0803 17.5696 60.1349 17.6242C60.1895 17.6788 60.2988 17.7334 60.4626 17.8972C60.6264 18.0064 60.7902 18.1702 60.954 18.334C61.0086 18.4432 61.0632 18.607 61.0632 18.7163C61.0632 18.8801 61.0086 19.0985 60.8448 19.2077C60.681 19.3715 60.5172 19.4261 60.3534 19.4261C60.1895 19.4261 60.0257 19.3715 59.9165 19.3169C59.8073 19.2077 59.6981 19.0985 59.5889 18.9347ZM61.8277 16.8051H62.1007L61.9369 19.3715H61.6638L61.8277 16.8051ZM64.1756 17.0235C64.5579 17.0781 64.8855 17.2965 65.1039 17.5696C65.5407 18.1702 65.3769 19.0439 64.7763 19.4807C64.5032 19.6991 64.121 19.7537 63.7388 19.6991C63.3566 19.6445 63.0289 19.4261 62.8651 19.1531C62.6467 18.8801 62.5921 18.4978 62.6467 18.1702C62.7013 17.9518 62.8105 17.7334 62.9743 17.515C63.1382 17.3512 63.302 17.1873 63.575 17.1327C63.6842 16.9689 63.9572 16.9689 64.1756 17.0235ZM64.121 17.2419C63.7388 17.1873 63.3566 17.3512 63.0835 17.6242C62.9743 17.788 62.8651 17.9518 62.8651 18.1702C62.7559 18.7709 63.1382 19.3169 63.7388 19.4261C63.9572 19.4807 64.121 19.4261 64.3394 19.3715C64.5033 19.3169 64.6671 19.2077 64.7763 19.0439C64.8855 18.8801 64.9947 18.7163 64.9947 18.4978C65.0493 18.2794 64.9947 18.1156 64.9401 17.8972C64.8855 17.7334 64.7763 17.5696 64.6125 17.4604C64.5033 17.4058 64.3394 17.2965 64.121 17.2419ZM65.5953 19.9721L66.4144 17.515H66.469L67.5065 19.9175L68.1071 18.0064L68.3255 18.061L67.5065 20.5182H67.4519L66.4144 18.1156L65.8137 19.9721H65.5953ZM70.2367 19.0439L70.1821 18.9893L67.8887 20.7366L68.1617 20.8458L68.9262 20.2452L69.909 20.7366V21.6649L70.1821 21.7741L70.2367 19.0439ZM69.9636 19.5353L69.909 20.5728L69.1446 20.1906L69.9636 19.5353ZM71.8202 19.9721L72.0386 20.136L70.7827 22.1017L71.6018 22.6477L71.4925 22.8661L70.4005 22.2109L71.8202 19.9721Z" fill="#231F20"/>
<path fill-rule="evenodd" clip-rule="evenodd" d="M76.7346 24.2313L76.8984 24.4497L75.6971 25.4326C75.5879 25.4872 75.5333 25.5964 75.4241 25.651C75.3695 25.7056 75.3149 25.8148 75.2603 25.8694C75.2603 25.9786 75.2603 26.0333 75.2603 26.1425C75.2603 26.2517 75.3149 26.3609 75.3695 26.4155C75.4787 26.5247 75.6425 26.6339 75.8063 26.6339C75.9155 26.6339 75.9701 26.6339 76.0793 26.5793C76.1886 26.5247 76.2978 26.4155 76.407 26.3609L77.6629 25.378L77.8267 25.5964L76.6254 26.5793C76.4616 26.6885 76.2978 26.7977 76.1339 26.9069C75.9701 26.9615 75.8063 26.9615 75.6971 26.9069C75.5333 26.8523 75.3695 26.7431 75.2603 26.6339C75.1511 26.4701 75.0419 26.3063 75.0419 26.1425C75.0419 25.9786 75.0419 25.8148 75.1511 25.651C75.2603 25.4872 75.4241 25.378 75.5333 25.2688L76.7346 24.2313ZM76.1339 27.7806L76.2432 27.999L77.9359 27.0161L77.1168 29.4733L77.1714 29.5279L79.4102 28.2174L79.301 27.999L77.5536 28.9819L78.4273 26.4701L78.3727 26.4155L76.1339 27.7806ZM79.7924 28.9819L79.9016 29.2003L77.5536 30.2924L77.4444 30.0739C77.3898 30.0739 79.7924 28.9819 79.7924 28.9819ZM80.12 29.8555L78.0451 31.7667V31.8213L80.8845 32.0397L80.7753 31.7667L78.5911 31.6028L80.2292 30.1285L80.12 29.8555ZM81.1029 32.7495L81.3759 34.2238L81.1029 34.2784L80.8845 33.0772L80.0654 33.241L80.2838 34.4422L80.0108 34.4969L79.7924 33.2956L78.8641 33.4594L79.0826 34.6607L78.8095 34.7153L78.5365 33.241L81.1029 32.7495ZM81.4305 34.9337L81.4851 35.4251C81.4851 35.6435 81.5397 35.8073 81.4851 36.0258C81.4851 36.1896 81.3759 36.2988 81.2667 36.408C81.1575 36.5172 80.9937 36.5718 80.8299 36.6264C80.7207 36.6264 80.5569 36.6264 80.4477 36.5718C80.3384 36.5172 80.2292 36.408 80.1746 36.2988C80.12 36.135 80.0654 35.9712 80.0654 35.8073L78.9187 36.8448L78.8641 36.5172L80.0108 35.4797V35.3159L78.8641 35.4797V35.2067L81.4305 34.9337ZM81.2121 35.2613L80.3384 35.3159L80.3931 35.7527C80.3931 35.8619 80.4477 36.0258 80.5023 36.135C80.5569 36.1896 80.6115 36.2988 80.6661 36.2988C80.7207 36.3534 80.8299 36.3534 80.9391 36.3534C81.0483 36.3534 81.1029 36.2988 81.1575 36.2442C81.2121 36.1896 81.2667 36.135 81.2667 36.0258C81.2667 35.9166 81.3213 35.7527 81.2667 35.6435L81.2121 35.2613ZM79.4648 37.1178L79.574 37.3363C79.301 37.5001 79.1372 37.6639 79.1372 37.8823C79.1372 37.9915 79.1372 38.0461 79.1918 38.1553C79.2464 38.3191 79.4102 38.3737 79.574 38.3737C79.6832 38.3737 79.7378 38.3191 79.847 38.2645C80.0108 38.1553 80.1746 37.9915 80.2838 37.8277C80.393 37.6639 80.5023 37.5547 80.6661 37.4455C80.7753 37.3363 80.9391 37.3363 81.0483 37.3363C81.1575 37.3363 81.2667 37.3909 81.3759 37.4455C81.4851 37.5001 81.5397 37.6093 81.5943 37.6639C81.6489 37.7731 81.6489 37.8823 81.6489 37.9915C81.6489 38.1007 81.5943 38.2099 81.5397 38.3191C81.4305 38.4283 81.3213 38.5375 81.2121 38.6467L81.0483 38.4283C81.1575 38.3737 81.2121 38.2645 81.3213 38.2099C81.3759 38.1553 81.3759 38.0461 81.3759 37.9915C81.3759 37.8823 81.3213 37.8277 81.2667 37.7185C81.2121 37.6639 81.1029 37.6093 81.0483 37.6093C80.9937 37.6093 80.9391 37.6093 80.8845 37.6639C80.8299 37.7185 80.7753 37.7185 80.7207 37.7731C80.6661 37.8277 80.6115 37.9369 80.4477 38.1007C80.3384 38.2645 80.1746 38.4283 80.0108 38.5375C79.9016 38.5921 79.7378 38.6467 79.6286 38.6467C79.4648 38.6467 79.2464 38.5375 79.1372 38.4283C79.028 38.2645 78.9187 38.1007 78.9187 37.8823C78.9187 37.7185 78.9734 37.5547 79.028 37.4455C79.1372 37.3363 79.301 37.1724 79.4648 37.1178ZM81.5397 39.302V39.575L78.9187 39.4112V39.1382L81.5397 39.302ZM81.2121 40.1211L81.4851 40.1757L81.2121 41.5954L80.9391 41.5408L81.0483 40.9947L78.7549 40.6125L78.8095 40.3395L81.1029 40.7217L81.2121 40.1211ZM81.1575 41.9776L81.1029 42.2506L79.9016 42.6328L80.7753 43.5611L80.7207 43.8341L79.6286 42.6874L78.4273 42.3598L78.4819 42.0868L79.6832 42.4144L81.1575 41.9776Z" fill="#231F20"/>
<path fill-rule="evenodd" clip-rule="evenodd" d="M48.3952 50.4957L48.7774 50.8233C48.9412 50.9325 49.105 51.0963 49.2142 51.2601C49.3234 51.3694 49.3234 51.5332 49.3234 51.6424C49.3234 51.97 49.0504 52.243 48.7774 52.2976C48.6136 52.2976 48.4498 52.2976 48.3405 52.243C48.1767 52.1338 47.9583 51.97 47.7945 51.8608L47.6307 51.7516L46.8662 52.6799L46.6478 52.516L48.3952 50.4957ZM48.3952 50.8779L47.7945 51.5332L48.1221 51.8062C48.2313 51.9154 48.3405 51.97 48.4498 52.0246C48.5044 52.0246 48.6136 52.0246 48.7228 52.0246C48.832 52.0246 48.8866 51.97 48.9412 51.8608C48.9958 51.8062 49.0504 51.697 49.0504 51.6424C49.0504 51.5332 49.0504 51.4786 48.9958 51.424C48.9412 51.3148 48.832 51.2055 48.7228 51.1509L48.3952 50.8779ZM49.9241 51.8062L49.0504 53.1167C48.9412 53.2805 48.832 53.4443 48.7774 53.6081C48.7228 53.7719 48.7228 53.9357 48.832 54.0996C48.8866 54.2634 49.0504 54.4272 49.2142 54.5364C49.4872 54.7548 49.8695 54.7002 50.1425 54.5364C50.3063 54.4272 50.4155 54.2634 50.5247 54.0996L51.3984 52.7891L51.1799 52.6252L50.3063 53.9357C50.2517 54.0449 50.1425 54.1542 50.0333 54.2634C49.9787 54.318 49.8695 54.3726 49.8149 54.3726C49.7602 54.3726 49.651 54.4272 49.5418 54.3726C49.4326 54.3726 49.378 54.318 49.3234 54.2634C49.2142 54.2088 49.1596 54.1542 49.105 54.0449C49.0504 53.9903 49.0504 53.8811 48.9958 53.7719C48.9958 53.6627 48.9958 53.6081 49.0504 53.4989C49.0504 53.4443 49.105 53.3351 49.2142 53.2259L50.0879 51.9154L49.9241 51.8062ZM50.6885 55.3008L51.8898 53.0075H51.9444L52.545 55.5739L53.4733 53.8265L53.6917 53.9357L52.4904 56.2291L52.4358 56.1745L51.8352 53.6627L50.9069 55.41L50.6885 55.3008ZM54.893 54.318L54.347 55.9561C54.2924 56.1199 54.2378 56.2291 54.1832 56.3383C54.1286 56.3929 54.074 56.4475 54.0194 56.4475C53.9647 56.4475 53.8555 56.4475 53.8009 56.4475C53.7463 56.4475 53.6917 56.3929 53.6371 56.3383C53.5279 56.2291 53.4733 56.1745 53.3641 56.0653L53.2003 56.2837C53.2549 56.3929 53.3641 56.5021 53.4733 56.6113C53.5825 56.6659 53.6371 56.7205 53.7463 56.7751C53.8555 56.8297 54.0194 56.8297 54.1286 56.7751C54.2378 56.7205 54.347 56.6659 54.4016 56.6113C54.5108 56.4475 54.5654 56.2837 54.62 56.1199L55.166 54.4272L54.893 54.318ZM56.7495 54.864L57.2956 57.6488L57.0226 57.5942L56.8041 56.6659L55.7121 56.3929L55.1114 57.1028L54.8384 57.0482L56.6403 54.8094L56.7495 54.864ZM56.5857 55.41L55.9305 56.2291L56.8041 56.4475L56.5857 55.41ZM58.2785 55.137L58.7699 55.1916C58.9337 55.1916 59.0975 55.2462 59.2067 55.3008C59.3159 55.3554 59.3705 55.4646 59.4251 55.5739C59.4797 55.6831 59.4797 55.7923 59.4797 55.9015C59.4797 56.0107 59.4251 56.1199 59.3705 56.2291C59.3159 56.3383 59.2067 56.3929 59.0975 56.4475C59.2067 56.5021 59.3159 56.5567 59.3705 56.6659C59.4251 56.7205 59.4797 56.8297 59.5343 56.939C59.5889 57.0482 59.5889 57.1574 59.5343 57.212C59.5343 57.4304 59.4251 57.5942 59.2613 57.7034C59.0975 57.8126 58.8245 57.8672 58.6061 57.8126L57.8962 57.7034L58.2785 55.137ZM58.4969 55.41L58.3877 56.2291H58.5515C58.6607 56.2291 58.8245 56.2291 58.9337 56.2291C59.0429 56.2291 59.0975 56.1745 59.1521 56.1199C59.2067 56.0653 59.2613 55.9561 59.2613 55.9015C59.2613 55.7923 59.2613 55.6831 59.1521 55.6285C59.0429 55.5192 58.9337 55.4646 58.7699 55.4646L58.4969 55.41ZM58.3877 56.5021L58.2785 57.485L58.6061 57.5396C58.7699 57.5396 58.8791 57.5396 59.0429 57.5396C59.1521 57.5396 59.2067 57.485 59.2613 57.3758C59.3159 57.3212 59.3705 57.212 59.3705 57.1574C59.3705 57.0482 59.3705 56.939 59.3159 56.8297C59.2613 56.7205 59.1521 56.6659 59.0429 56.6113C58.8791 56.5567 58.7699 56.5567 58.6061 56.5021H58.3877ZM61.8277 55.137H62.1007C61.9915 55.41 61.8823 55.6831 61.8823 55.9561C61.8277 56.2837 61.8277 56.6113 61.8277 56.939C61.8277 57.2666 61.8823 57.5396 61.9369 57.8126C61.9915 58.0856 62.1007 58.304 62.2099 58.5771H61.9369C61.8277 58.3587 61.7731 58.0856 61.7185 57.8672C61.6639 57.5942 61.6093 57.2666 61.6093 56.9936C61.6093 56.6659 61.6093 56.3383 61.6639 56.0107C61.6639 55.7377 61.7185 55.4646 61.8277 55.137ZM62.7014 55.1916H62.9744L63.1928 57.758H62.9198L62.7014 55.1916ZM64.0119 57.7034L63.5204 55.137H63.575L65.65 56.7205L65.2131 54.8094L65.4862 54.7548L65.9776 57.3212H65.923L63.848 55.7377L64.2303 57.6488L64.0119 57.7034ZM66.7967 57.0482L67.5611 56.7751C67.8341 56.7205 68.0525 56.5567 68.2164 56.3929C68.3802 56.2291 68.4348 56.0653 68.4894 55.8469C68.544 55.6285 68.4894 55.3554 68.4348 55.137C68.3256 54.864 68.2164 54.6456 67.9979 54.4818C67.7795 54.318 67.5611 54.2634 67.2881 54.2634C67.0151 54.2634 66.7421 54.3726 66.469 54.4818L65.9776 54.6456L66.7967 57.0482ZM66.9605 56.7205L66.2506 54.7548L66.4144 54.7002C66.6874 54.591 66.9059 54.5364 67.1789 54.4818C67.3973 54.4818 67.6157 54.5364 67.7795 54.6456C67.9433 54.8094 68.1072 54.9732 68.1618 55.1916C68.2164 55.41 68.271 55.6285 68.2164 55.8469C68.1618 56.0107 68.0525 56.2291 67.8887 56.3383C67.6703 56.4475 67.4519 56.5567 67.1789 56.6659L66.9605 56.7205ZM68.3802 53.6627L68.5986 53.5535L69.6907 55.9015L69.4176 56.0653L68.3802 53.6627ZM70.0183 52.8437L72.3663 54.4818L72.1478 54.6456L71.3834 54.0996L70.4005 54.6456L70.5097 55.5739L70.2367 55.7377L70.0183 52.8437ZM70.2913 53.3351L70.4005 54.3726L71.165 53.9357L70.2913 53.3351ZM73.4583 54.6456C73.4037 54.3726 73.2945 54.0449 73.1853 53.7719C73.0215 53.4989 72.8577 53.2259 72.6939 52.9529C72.5301 52.7345 72.3116 52.516 72.0932 52.2976C71.9294 52.1338 71.711 51.97 71.4926 51.8062L71.2742 51.97C71.4926 52.1338 71.711 52.243 71.8748 52.4614C72.0932 52.6799 72.3116 52.8983 72.4755 53.1167C72.6939 53.3897 72.8577 53.6627 72.9669 53.9903C73.0761 54.2634 73.1853 54.5364 73.2399 54.8094L73.4583 54.6456Z" fill="#231F20"/>
<path fill-rule="evenodd" clip-rule="evenodd" d="M76.8984 47.4379C77.3352 47.4379 77.6628 47.7656 77.6628 48.2024C77.6628 48.6392 77.3352 48.9668 76.8984 48.9668C76.4615 48.9668 76.1339 48.6392 76.1339 48.2024C76.1339 47.7656 76.4615 47.4379 76.8984 47.4379Z" fill="#231F20"/>
<path d="M76.8983 48.9668C76.4615 48.9668 76.0792 48.5846 76.0792 48.1478C76.0792 47.7109 76.4615 47.3287 76.8983 47.3287C77.3351 47.3287 77.7173 47.7109 77.7173 48.1478C77.6627 48.6392 77.3351 48.9668 76.8983 48.9668ZM76.8983 47.4925C76.5161 47.4925 76.1884 47.8201 76.1884 48.2024C76.1884 48.5846 76.5161 48.9122 76.8983 48.9122C77.2805 48.9122 77.6081 48.5846 77.6081 48.2024C77.5535 47.8201 77.2805 47.4925 76.8983 47.4925Z" fill="#231F20"/>
<path d="M102.726 15.5493H90.3855V27.8898H102.726V15.5493Z" fill="#F48120"/>
<path d="M102.944 28.1081H90.2217V15.3854H102.944V28.1081ZM90.6039 27.6713H102.508V15.7677H90.6039V27.6713Z" fill="#231F20"/>
<path d="M102.726 30.6745H90.3855V43.015H102.726V30.6745Z" fill="#F48120"/>
<path d="M102.944 43.2334H90.2217V30.5107H102.944V43.2334ZM90.6039 42.7966H102.508V30.8929H90.6039V42.7966Z" fill="#231F20"/>
<path d="M102.726 45.7998H90.3855V58.1403H102.726V45.7998Z" fill="#F48120"/>
<path d="M102.944 58.3587H90.2217V45.636H102.944V58.3587ZM90.6039 57.9219H102.508V46.0182H90.6039V57.9219Z" fill="#231F20"/>
<path d="M106.657 26.0332C107.149 26.2516 107.749 26.3608 108.296 26.3608C108.732 26.3608 109.169 26.3062 109.606 26.1424C110.425 25.8693 111.19 25.3233 111.681 24.6135C111.954 24.2312 112.172 23.7398 112.282 23.303C112.445 22.7569 112.5 22.2109 112.5 21.6102C112.5 21.0096 112.391 20.3544 112.227 19.7537C112.063 19.2077 111.79 18.7162 111.408 18.334C111.08 17.9518 110.644 17.6242 110.152 17.4057C109.115 16.9689 107.913 16.9689 106.821 17.4057C106.33 17.6242 105.893 17.9518 105.511 18.334C105.129 18.7708 104.855 19.2623 104.637 19.8083C104.419 20.409 104.309 21.0642 104.309 21.7195C104.309 22.3747 104.419 22.9753 104.582 23.576C104.746 24.122 105.019 24.6135 105.402 24.9957C105.729 25.4871 106.166 25.8147 106.657 26.0332ZM105.62 20.6274C105.675 20.2998 105.784 19.9175 105.948 19.5899C106.111 19.2623 106.275 18.9893 106.548 18.7708C106.767 18.5524 107.04 18.334 107.367 18.2248C107.695 18.1156 108.077 18.0064 108.405 18.0064C109.115 18.0064 109.77 18.2794 110.261 18.7708C110.48 18.9893 110.698 19.3169 110.807 19.5899C110.971 19.9175 111.08 20.2451 111.135 20.5728C111.19 20.9004 111.244 21.2826 111.244 21.6649C111.244 22.1563 111.19 22.6477 111.026 23.0846C110.917 23.5214 110.698 23.9036 110.48 24.2858C110.261 24.6135 109.934 24.8865 109.551 25.1049C109.169 25.3233 108.732 25.3779 108.35 25.3779C108.023 25.3779 107.64 25.3233 107.367 25.1595C107.094 25.0503 106.821 24.8319 106.548 24.6135C106.33 24.395 106.111 24.122 105.948 23.7944C105.784 23.4668 105.675 23.1392 105.62 22.8115C105.511 22.4293 105.511 22.0471 105.511 21.7195C105.511 21.3918 105.511 21.0096 105.62 20.6274Z" fill="#231F20"/>
<path d="M117.742 26.2516L120.964 17.2966H119.708L118.179 21.7195C117.96 22.3201 117.797 22.8662 117.633 23.4122C117.469 23.9582 117.305 24.5043 117.196 25.0503H117.141C117.032 24.5043 116.868 24.0128 116.705 23.4668C116.541 22.9208 116.377 22.3201 116.159 21.7195L114.739 17.2966H113.483L116.432 26.2516H117.742Z" fill="#231F20"/>
<path d="M105.62 37.3908H106.548C106.821 37.3908 107.04 37.4454 107.313 37.6092C107.531 37.7184 107.695 37.9368 107.804 38.1552C107.968 38.4828 108.022 38.8105 108.077 39.1381C108.186 39.6841 108.296 40.1756 108.35 40.5032C108.405 40.7762 108.459 40.9946 108.569 41.2676H109.606C109.497 40.9946 109.388 40.667 109.333 40.394C109.224 39.9571 109.115 39.4657 109.005 38.8105C108.951 38.4282 108.787 37.9914 108.623 37.6638C108.459 37.3908 108.241 37.1723 107.913 37.0085V36.9539C108.186 36.8447 108.405 36.6809 108.623 36.4625C108.842 36.2441 109.005 35.9711 109.115 35.698C109.224 35.3704 109.333 34.9882 109.333 34.6606C109.333 34.3329 109.278 34.0053 109.169 33.6777C109.06 33.4047 108.951 33.1317 108.732 32.9132C108.514 32.6402 108.186 32.4764 107.859 32.3672C107.422 32.258 106.985 32.1488 106.548 32.2034C106.33 32.2034 106.111 32.2034 105.893 32.2034C105.675 32.2034 105.456 32.258 105.238 32.258C105.019 32.258 104.855 32.3126 104.692 32.3672V41.213H105.675V37.3908H105.62ZM105.62 33.2409C105.729 33.1863 105.838 33.1863 106.002 33.1863C106.221 33.1863 106.384 33.1317 106.603 33.1863C106.93 33.1863 107.203 33.2409 107.531 33.3501C107.804 33.4593 108.022 33.6777 108.132 33.8961C108.405 34.4968 108.405 35.152 108.132 35.7526C108.022 36.0257 107.804 36.1895 107.531 36.3533C107.258 36.5171 106.93 36.5717 106.603 36.5717H105.62V33.2409Z" fill="#231F20"/>
<path d="M115.94 33.4048C115.667 33.0225 115.285 32.6949 114.848 32.4765C113.974 32.0397 112.937 32.0397 112.009 32.4765C111.572 32.6949 111.189 33.0225 110.916 33.4048C110.589 33.8416 110.316 34.333 110.207 34.8791C110.043 35.5343 109.934 36.1349 109.934 36.7902C109.934 37.3908 109.988 38.0461 110.207 38.6467C110.37 39.1382 110.589 39.6296 110.916 40.0664C111.189 40.4487 111.572 40.7763 112.009 40.9947C112.445 41.2131 112.937 41.3223 113.374 41.3223C113.756 41.3223 114.138 41.2677 114.466 41.1039C114.848 40.9947 115.121 40.7763 115.449 40.5033C115.776 40.2302 115.995 39.9026 116.213 39.575C116.431 39.1382 116.595 38.7013 116.704 38.2645C116.814 37.7185 116.868 37.1724 116.868 36.5718C116.868 35.9711 116.814 35.3159 116.65 34.7152C116.486 34.333 116.213 33.8416 115.94 33.4048ZM115.667 38.2099C115.558 38.6467 115.394 39.029 115.176 39.4112C115.012 39.7388 114.739 40.0118 114.411 40.2302C113.865 40.5579 113.155 40.6125 112.555 40.3394C112.282 40.2302 112.063 40.0118 111.899 39.7934C111.681 39.575 111.517 39.302 111.408 38.9743C111.244 38.6467 111.189 38.3191 111.08 37.9915C111.026 37.6093 110.971 37.227 110.971 36.8994C110.971 36.5172 111.026 36.1349 111.08 35.7527C111.135 35.4251 111.244 35.0429 111.353 34.7152C111.463 34.4422 111.626 34.1146 111.845 33.8962C112.009 33.6778 112.282 33.4594 112.555 33.3502C112.828 33.2409 113.155 33.1317 113.428 33.1317C113.756 33.1317 114.029 33.1863 114.302 33.3502C114.575 33.514 114.793 33.6778 114.957 33.8962C115.176 34.1692 115.339 34.4422 115.449 34.7152C115.558 35.0429 115.667 35.3705 115.722 35.6981C115.885 36.5172 115.831 37.3362 115.667 38.2099Z" fill="#231F20"/>
<path d="M110.425 51.0963C110.425 51.5878 110.425 51.97 110.425 52.4068C110.425 52.8437 110.425 53.2259 110.48 53.6081C110.48 53.9904 110.534 54.3726 110.589 54.7548H110.534C110.316 54.318 110.097 53.8265 109.824 53.3351C109.551 52.8437 109.278 52.3522 108.951 51.8062L106.111 47.2741H104.855V56.2291H105.947V52.4068C105.947 51.9154 105.947 51.4786 105.947 51.0417C105.947 50.6049 105.947 50.2227 105.947 49.8405C105.947 49.4582 105.893 49.076 105.893 48.6938H105.947C106.166 49.1852 106.439 49.6766 106.712 50.1681C106.985 50.6595 107.313 51.151 107.64 51.697L110.48 56.2291H111.626V47.3287H110.534L110.425 51.0963Z" fill="#231F20"/>
<path d="M115.394 47.3287H114.247V56.2837H115.394V47.3287Z" fill="#231F20"/>
<path fill-rule="evenodd" clip-rule="evenodd" d="M93.4978 25.7602H98.5214V24.8319H94.6991V17.2966H93.5524V25.7602H93.4978ZM93.4978 40.8854H94.6445V37.5C94.8083 37.5546 94.9175 37.5546 95.0814 37.5546C95.2452 37.5546 95.409 37.5546 95.5728 37.5546C95.955 37.5546 96.2826 37.5 96.6649 37.4454C96.9925 37.3908 97.3201 37.2816 97.5931 37.1178C97.8662 37.0086 98.0846 36.7902 98.303 36.6263C98.5214 36.4079 98.6852 36.1349 98.7944 35.8619C98.9036 35.5343 98.9582 35.2066 98.9582 34.8244C98.9582 34.4968 98.9036 34.1146 98.7398 33.7869C98.6306 33.5139 98.4122 33.2409 98.1938 33.0225C97.9208 32.7495 97.5385 32.5857 97.1563 32.4764C96.6649 32.3672 96.1734 32.258 95.682 32.3126C95.1906 32.3126 94.8083 32.3126 94.4261 32.3672C94.0439 32.4218 93.7163 32.4218 93.4432 32.4764L93.4978 40.8854ZM94.6445 33.2955C94.8083 33.2409 94.9175 33.2409 95.0814 33.2409C95.2452 33.2409 95.4636 33.2409 95.7366 33.2409C96.1188 33.2409 96.5011 33.2955 96.8287 33.4047C97.1017 33.5139 97.3747 33.6777 97.5385 33.9508C97.7023 34.2238 97.8115 34.5514 97.8115 34.879C97.8115 35.2066 97.7023 35.5889 97.5385 35.8619C97.3747 36.1349 97.1017 36.3533 96.7741 36.4625C96.3918 36.6263 96.0096 36.6809 95.5728 36.6809C95.3544 36.6809 95.1906 36.6809 95.0268 36.6809C94.8629 36.6809 94.7537 36.6263 94.5899 36.6263V33.2955H94.6445ZM93.4978 47.5471V52.5707C93.4978 53.1167 93.5524 53.7174 93.7163 54.2634C93.8801 54.7002 94.0985 55.0825 94.3715 55.4101C94.6445 55.6831 95.0268 55.9015 95.409 56.0107C95.8458 56.1199 96.228 56.2291 96.6649 56.2291C97.1017 56.2291 97.5931 56.1745 98.03 56.0107C98.4122 55.9015 98.7944 55.6831 99.122 55.3555C99.4497 55.0278 99.6681 54.6456 99.8319 54.2088C99.9957 53.6627 100.105 53.1167 100.105 52.5161V47.5471H98.9582V52.5707C98.9582 53.1167 98.9036 53.6081 98.6852 54.0996C98.5214 54.4818 98.2484 54.7548 97.9208 54.9732C97.5931 55.1917 97.1563 55.2463 96.7741 55.2463C96.3918 55.2463 96.0096 55.1371 95.682 54.9732C95.3544 54.7548 95.0814 54.4818 94.9175 54.0996C94.6991 53.6081 94.6445 53.1167 94.6445 52.5707V47.5471H93.4978Z" fill="#231F20"/>
<path d="M167.432 12.1638H36.1638V13.4197H167.432V12.1638Z" fill="#F48120"/>
<path d="M167.595 13.5835H36V12H167.595V13.5835ZM36.3276 13.2559H167.213V12.3276H36.3276V13.2559Z" fill="#231F20"/>
<path d="M167.432 61.5803H36.1638V62.8362H167.432V61.5803Z" fill="#F48120"/>
<path d="M167.595 63H36V61.4165H167.595V63ZM36.3276 62.6724H167.213V61.7441H36.3276V62.6724Z" fill="#231F20"/>
</svg>
