<svg width="1239" height="341" viewBox="0 0 1239 341" fill="none" xmlns="http://www.w3.org/2000/svg">
<rect width="405" height="80" fill="white"/>
<path d="M51.9609 48H54.2409V38.48L58.5009 48H60.0809L64.3209 38.48V48H66.6009V34.1H64.1609L59.3009 45L54.4209 34.1H51.9609V48ZM68.8377 41.02C68.8377 45.2 72.0177 48.12 75.9377 48.12C78.8377 48.12 81.3377 46.68 82.3977 43.96H79.6577C78.9177 45.44 77.5977 46.14 75.9377 46.14C73.1777 46.14 71.1777 44.16 71.1777 41.02C71.1777 37.88 73.1777 35.92 75.9377 35.92C77.5977 35.92 78.9177 36.62 79.6577 38.1H82.3977C81.3377 35.38 78.8377 33.92 75.9377 33.92C72.0177 33.92 68.8377 36.86 68.8377 41.02ZM94.4464 48H96.8464L91.8664 34.08H89.2264L84.2464 48H86.6264L87.6264 45.16H93.4464L94.4464 48ZM92.8064 43.3H88.2664L90.5464 36.84L92.8064 43.3ZM104.207 48H106.487V34.1H104.207V48ZM117.3 48H119.56V41.5C119.56 38.42 117.62 36.8 115.04 36.8C113.72 36.8 112.5 37.34 111.76 38.24V36.98H109.48V48H111.76V41.84C111.76 39.82 112.86 38.78 114.54 38.78C116.2 38.78 117.3 39.82 117.3 41.84V48ZM126.904 41.02C126.904 45.2 130.084 48.12 134.004 48.12C136.904 48.12 139.404 46.68 140.464 43.96H137.724C136.984 45.44 135.664 46.14 134.004 46.14C131.244 46.14 129.244 44.16 129.244 41.02C129.244 37.88 131.244 35.92 134.004 35.92C135.664 35.92 136.984 36.62 137.724 38.1H140.464C139.404 35.38 136.904 33.92 134.004 33.92C130.084 33.92 126.904 36.86 126.904 41.02ZM153.633 42.48C153.633 39.02 151.153 36.8 148.013 36.8C144.873 36.8 142.393 39.02 142.393 42.48C142.393 45.94 144.773 48.18 147.913 48.18C151.073 48.18 153.633 45.94 153.633 42.48ZM144.713 42.48C144.713 39.98 146.253 38.78 147.973 38.78C149.673 38.78 151.293 39.98 151.293 42.48C151.293 44.98 149.613 46.2 147.913 46.2C146.193 46.2 144.713 44.98 144.713 42.48ZM171.507 48H173.767V41.5C173.767 38.42 171.807 36.8 169.227 36.8C167.627 36.8 166.067 37.64 165.387 38.98C164.627 37.54 163.167 36.8 161.427 36.8C160.107 36.8 158.907 37.34 158.167 38.24V36.98H155.887V48H158.167V41.84C158.167 39.82 159.267 38.78 160.947 38.78C162.607 38.78 163.707 39.82 163.707 41.84V48H165.967V41.84C165.967 39.82 167.067 38.78 168.747 38.78C170.407 38.78 171.507 39.82 171.507 41.84V48ZM178.948 38.6V36.98H176.668V53.24H178.948V46.4C179.668 47.26 180.968 48.18 182.788 48.18C185.688 48.18 187.968 45.84 187.968 42.44C187.968 39.04 185.688 36.8 182.788 36.8C180.988 36.8 179.648 37.68 178.948 38.6ZM185.648 42.44C185.648 44.82 184.008 46.2 182.288 46.2C180.588 46.2 178.948 44.86 178.948 42.48C178.948 40.12 180.588 38.78 182.288 38.78C184.008 38.78 185.648 40.06 185.648 42.44ZM200.203 36.98H197.923V43.12C197.923 45.14 196.823 46.18 195.143 46.18C193.483 46.18 192.383 45.14 192.383 43.12V36.98H190.123V43.46C190.123 46.54 192.083 48.16 194.663 48.16C195.963 48.16 197.203 47.62 197.923 46.68V48H200.203V36.98ZM203.571 44.94C203.571 47.18 204.791 48 206.751 48H208.551V46.1H207.151C206.191 46.1 205.871 45.76 205.871 44.94V38.84H208.551V36.98H205.871V34.24H203.571V36.98H202.271V38.84H203.571V44.94ZM215.292 38.72C216.992 38.72 218.332 39.8 218.372 41.5H212.272C212.512 39.76 213.752 38.72 215.292 38.72ZM220.452 44.72H217.992C217.572 45.58 216.792 46.26 215.392 46.26C213.712 46.26 212.412 45.16 212.252 43.34H220.672C220.732 42.96 220.752 42.6 220.752 42.22C220.752 38.98 218.532 36.8 215.392 36.8C212.132 36.8 209.892 39.02 209.892 42.48C209.892 45.94 212.232 48.18 215.392 48.18C218.092 48.18 219.832 46.64 220.452 44.72ZM225.276 42.2C225.276 39.86 226.316 39.16 227.996 39.16H228.576V36.8C227.016 36.8 225.916 37.48 225.276 38.58V36.98H222.996V48H225.276V42.2ZM245.247 44.06C245.247 38.98 237.887 40.94 237.887 37.8C237.887 36.46 238.907 35.82 240.227 35.86C241.667 35.9 242.487 36.76 242.567 37.7H245.087C244.887 35.32 243.007 33.92 240.347 33.92C237.507 33.92 235.567 35.44 235.567 37.88C235.567 43 242.947 40.82 242.947 44.18C242.947 45.36 242.047 46.22 240.447 46.22C238.867 46.22 238.067 45.3 237.967 44.16H235.527C235.527 46.62 237.667 48.14 240.447 48.14C243.547 48.14 245.247 46.14 245.247 44.06ZM247.178 42.48C247.178 45.94 249.418 48.18 252.578 48.18C255.278 48.18 257.038 46.68 257.658 44.52H255.198C254.778 45.66 253.938 46.26 252.578 46.26C250.738 46.26 249.518 44.9 249.518 42.48C249.518 40.08 250.738 38.72 252.578 38.72C253.938 38.72 254.818 39.4 255.198 40.46H257.658C257.038 38.14 255.278 36.8 252.578 36.8C249.418 36.8 247.178 39.04 247.178 42.48ZM259.93 48H262.21V36.98H259.93V48ZM261.09 35.52C261.89 35.52 262.53 34.88 262.53 34.06C262.53 33.24 261.89 32.6 261.09 32.6C260.27 32.6 259.63 33.24 259.63 34.06C259.63 34.88 260.27 35.52 261.09 35.52ZM269.843 38.72C271.543 38.72 272.883 39.8 272.923 41.5H266.823C267.063 39.76 268.303 38.72 269.843 38.72ZM275.003 44.72H272.543C272.123 45.58 271.343 46.26 269.943 46.26C268.263 46.26 266.963 45.16 266.803 43.34H275.223C275.283 42.96 275.303 42.6 275.303 42.22C275.303 38.98 273.083 36.8 269.943 36.8C266.683 36.8 264.443 39.02 264.443 42.48C264.443 45.94 266.783 48.18 269.943 48.18C272.643 48.18 274.383 46.64 275.003 44.72ZM285.367 48H287.627V41.5C287.627 38.42 285.687 36.8 283.107 36.8C281.787 36.8 280.567 37.34 279.827 38.24V36.98H277.547V48H279.827V41.84C279.827 39.82 280.927 38.78 282.607 38.78C284.267 38.78 285.367 39.82 285.367 41.84V48ZM289.775 42.48C289.775 45.94 292.015 48.18 295.175 48.18C297.875 48.18 299.635 46.68 300.255 44.52H297.795C297.375 45.66 296.535 46.26 295.175 46.26C293.335 46.26 292.115 44.9 292.115 42.48C292.115 40.08 293.335 38.72 295.175 38.72C296.535 38.72 297.415 39.4 297.795 40.46H300.255C299.635 38.14 297.875 36.8 295.175 36.8C292.015 36.8 289.775 39.04 289.775 42.48ZM307.167 38.72C308.867 38.72 310.207 39.8 310.247 41.5H304.147C304.387 39.76 305.627 38.72 307.167 38.72ZM312.327 44.72H309.867C309.447 45.58 308.667 46.26 307.267 46.26C305.587 46.26 304.287 45.16 304.127 43.34H312.547C312.607 42.96 312.627 42.6 312.627 42.22C312.627 38.98 310.407 36.8 307.267 36.8C304.007 36.8 301.767 39.02 301.767 42.48C301.767 45.94 304.107 48.18 307.267 48.18C309.967 48.18 311.707 46.64 312.327 44.72ZM328.906 37.2C329.046 35.3 327.746 33.78 325.326 33.78C322.946 33.78 321.466 35.16 321.466 36.98C321.466 37.96 321.746 38.7 322.526 39.64C320.326 40.54 319.266 42.12 319.266 44C319.266 46.6 321.266 48.26 324.266 48.26C326.206 48.26 327.746 47.62 329.086 46.28L330.806 48H333.786L330.406 44.64C330.566 44.38 330.746 44.1 330.906 43.82L332.706 40.74H330.246L328.826 43.08L325.146 39.42C324.166 38.36 323.746 37.74 323.746 36.98C323.746 36.24 324.326 35.64 325.226 35.64C326.086 35.64 326.666 36.18 326.626 37.2H328.906ZM324.266 46.32C322.626 46.32 321.546 45.26 321.546 43.92C321.546 42.68 322.286 41.72 323.906 41.08L327.586 44.78C326.626 45.8 325.566 46.32 324.266 46.32ZM340.477 48H342.757V34.1H340.477V48ZM345.03 35.96H348.75V48H351.03V35.96H354.73V34.1H345.03V35.96Z" fill="#212832"/>
<rect x="0.5" y="0.5" width="404" height="79" stroke="black" stroke-opacity="0.5"/>
<rect y="261" width="405" height="80" fill="white"/>
<path d="M48.709 309H50.989V299.48L55.249 309H56.829L61.069 299.48V309H63.349V295.1H60.909L56.049 306L51.169 295.1H48.709V309ZM65.5857 302.02C65.5857 306.2 68.7657 309.12 72.6857 309.12C75.5857 309.12 78.0857 307.68 79.1457 304.96H76.4057C75.6657 306.44 74.3457 307.14 72.6857 307.14C69.9257 307.14 67.9257 305.16 67.9257 302.02C67.9257 298.88 69.9257 296.92 72.6857 296.92C74.3457 296.92 75.6657 297.62 76.4057 299.1H79.1457C78.0857 296.38 75.5857 294.92 72.6857 294.92C68.7657 294.92 65.5857 297.86 65.5857 302.02ZM91.1945 309H93.5945L88.6145 295.08H85.9745L80.9945 309H83.3745L84.3745 306.16H90.1945L91.1945 309ZM89.5545 304.3H85.0145L87.2945 297.84L89.5545 304.3ZM100.955 309H103.235V295.1H100.955V309ZM114.049 309H116.309V302.5C116.309 299.42 114.369 297.8 111.789 297.8C110.469 297.8 109.249 298.34 108.509 299.24V297.98H106.229V309H108.509V302.84C108.509 300.82 109.609 299.78 111.289 299.78C112.949 299.78 114.049 300.82 114.049 302.84V309ZM124.412 309H126.692V302.92H131.292V301.06H126.692V296.96H132.592V295.1H124.412V309ZM144.685 297.98H142.405V304.12C142.405 306.14 141.305 307.18 139.625 307.18C137.965 307.18 136.865 306.14 136.865 304.12V297.98H134.605V304.46C134.605 307.54 136.565 309.16 139.145 309.16C140.445 309.16 141.685 308.62 142.405 307.68V309H144.685V297.98ZM147.693 309H149.973V294.2H147.693V309ZM152.967 309H155.247V294.2H152.967V309ZM172.816 305.06C172.816 299.98 165.456 301.94 165.456 298.8C165.456 297.46 166.476 296.82 167.796 296.86C169.236 296.9 170.056 297.76 170.136 298.7H172.656C172.456 296.32 170.576 294.92 167.916 294.92C165.076 294.92 163.136 296.44 163.136 298.88C163.136 304 170.516 301.82 170.516 305.18C170.516 306.36 169.616 307.22 168.016 307.22C166.436 307.22 165.636 306.3 165.536 305.16H163.096C163.096 307.62 165.236 309.14 168.016 309.14C171.116 309.14 172.816 307.14 172.816 305.06ZM175.866 305.94C175.866 308.18 177.086 309 179.046 309H180.846V307.1H179.446C178.486 307.1 178.166 306.76 178.166 305.94V299.84H180.846V297.98H178.166V295.24H175.866V297.98H174.566V299.84H175.866V305.94ZM182.187 303.44C182.187 306.84 184.487 309.18 187.347 309.18C189.187 309.18 190.507 308.3 191.207 307.36V309H193.507V297.98H191.207V299.58C190.527 298.68 189.247 297.8 187.387 297.8C184.487 297.8 182.187 300.04 182.187 303.44ZM191.207 303.48C191.207 305.86 189.587 307.2 187.867 307.2C186.167 307.2 184.527 305.82 184.527 303.44C184.527 301.06 186.167 299.78 187.867 299.78C189.587 299.78 191.207 301.12 191.207 303.48ZM195.742 303.48C195.742 306.94 197.982 309.18 201.142 309.18C203.842 309.18 205.602 307.68 206.222 305.52H203.762C203.342 306.66 202.502 307.26 201.142 307.26C199.302 307.26 198.082 305.9 198.082 303.48C198.082 301.08 199.302 299.72 201.142 299.72C202.502 299.72 203.382 300.4 203.762 301.46H206.222C205.602 299.14 203.842 297.8 201.142 297.8C197.982 297.8 195.742 300.04 195.742 303.48ZM208.494 309H210.774V304.26L214.854 309H217.934L212.854 303.5L217.934 297.98H214.774L210.774 302.8V294.2H208.494V309ZM229.304 295.1H224.764V309H229.304C233.764 309 236.684 306.38 236.684 302.1C236.684 297.8 233.764 295.1 229.304 295.1ZM227.044 307.14V296.96H229.304C232.584 296.96 234.344 298.92 234.344 302.1C234.344 305.26 232.584 307.14 229.304 307.14H227.044ZM243.583 299.72C245.283 299.72 246.623 300.8 246.663 302.5H240.563C240.803 300.76 242.043 299.72 243.583 299.72ZM248.743 305.72H246.283C245.863 306.58 245.083 307.26 243.683 307.26C242.003 307.26 240.703 306.16 240.543 304.34H248.963C249.023 303.96 249.043 303.6 249.043 303.22C249.043 299.98 246.823 297.8 243.683 297.8C240.423 297.8 238.183 300.02 238.183 303.48C238.183 306.94 240.523 309.18 243.683 309.18C246.383 309.18 248.123 307.64 248.743 305.72ZM249.987 297.98L254.167 309H256.887L261.087 297.98H258.667L255.547 306.96L252.427 297.98H249.987ZM267.451 299.72C269.151 299.72 270.491 300.8 270.531 302.5H264.431C264.671 300.76 265.911 299.72 267.451 299.72ZM272.611 305.72H270.151C269.731 306.58 268.951 307.26 267.551 307.26C265.871 307.26 264.571 306.16 264.411 304.34H272.831C272.891 303.96 272.911 303.6 272.911 303.22C272.911 299.98 270.691 297.8 267.551 297.8C264.291 297.8 262.051 300.02 262.051 303.48C262.051 306.94 264.391 309.18 267.551 309.18C270.251 309.18 271.991 307.64 272.611 305.72ZM275.154 309H277.434V294.2H275.154V309ZM290.928 303.48C290.928 300.02 288.448 297.8 285.308 297.8C282.168 297.8 279.688 300.02 279.688 303.48C279.688 306.94 282.068 309.18 285.208 309.18C288.368 309.18 290.928 306.94 290.928 303.48ZM282.008 303.48C282.008 300.98 283.548 299.78 285.268 299.78C286.968 299.78 288.588 300.98 288.588 303.48C288.588 305.98 286.908 307.2 285.208 307.2C283.488 307.2 282.008 305.98 282.008 303.48ZM295.462 299.6V297.98H293.182V314.24H295.462V307.4C296.182 308.26 297.482 309.18 299.302 309.18C302.202 309.18 304.482 306.84 304.482 303.44C304.482 300.04 302.202 297.8 299.302 297.8C297.502 297.8 296.162 298.68 295.462 299.6ZM302.162 303.44C302.162 305.82 300.522 307.2 298.802 307.2C297.102 307.2 295.462 305.86 295.462 303.48C295.462 301.12 297.102 299.78 298.802 299.78C300.522 299.78 302.162 301.06 302.162 303.44ZM322.356 309H324.616V302.5C324.616 299.42 322.656 297.8 320.076 297.8C318.476 297.8 316.916 298.64 316.236 299.98C315.476 298.54 314.016 297.8 312.276 297.8C310.956 297.8 309.756 298.34 309.016 299.24V297.98H306.736V309H309.016V302.84C309.016 300.82 310.116 299.78 311.796 299.78C313.456 299.78 314.556 300.82 314.556 302.84V309H316.816V302.84C316.816 300.82 317.916 299.78 319.596 299.78C321.256 299.78 322.356 300.82 322.356 302.84V309ZM332.158 299.72C333.858 299.72 335.198 300.8 335.238 302.5H329.138C329.378 300.76 330.618 299.72 332.158 299.72ZM337.318 305.72H334.858C334.438 306.58 333.658 307.26 332.258 307.26C330.578 307.26 329.278 306.16 329.118 304.34H337.538C337.598 303.96 337.618 303.6 337.618 303.22C337.618 299.98 335.398 297.8 332.258 297.8C328.998 297.8 326.758 300.02 326.758 303.48C326.758 306.94 329.098 309.18 332.258 309.18C334.958 309.18 336.698 307.64 337.318 305.72ZM347.681 309H349.941V302.5C349.941 299.42 348.001 297.8 345.421 297.8C344.101 297.8 342.881 298.34 342.141 299.24V297.98H339.861V309H342.141V302.84C342.141 300.82 343.241 299.78 344.921 299.78C346.581 299.78 347.681 300.82 347.681 302.84V309ZM353.21 305.94C353.21 308.18 354.43 309 356.39 309H358.19V307.1H356.79C355.83 307.1 355.51 306.76 355.51 305.94V299.84H358.19V297.98H355.51V295.24H353.21V297.98H351.91V299.84H353.21V305.94Z" fill="#212832"/>
<rect x="0.5" y="261.5" width="404" height="79" stroke="black" stroke-opacity="0.5"/>
<rect y="87" width="405" height="80" fill="white"/>
<path d="M111.404 135H113.684V125.48L117.944 135H119.524L123.764 125.48V135H126.044V121.1H123.604L118.744 132L113.864 121.1H111.404V135ZM128.281 128.02C128.281 132.2 131.461 135.12 135.381 135.12C138.281 135.12 140.781 133.68 141.841 130.96H139.101C138.361 132.44 137.041 133.14 135.381 133.14C132.621 133.14 130.621 131.16 130.621 128.02C130.621 124.88 132.621 122.92 135.381 122.92C137.041 122.92 138.361 123.62 139.101 125.1H141.841C140.781 122.38 138.281 120.92 135.381 120.92C131.461 120.92 128.281 123.86 128.281 128.02ZM153.89 135H156.29L151.31 121.08H148.67L143.69 135H146.07L147.07 132.16H152.89L153.89 135ZM152.25 130.3H147.71L149.99 123.84L152.25 130.3ZM163.65 135H165.93V123.98H163.65V135ZM164.81 122.52C165.61 122.52 166.25 121.88 166.25 121.06C166.25 120.24 165.61 119.6 164.81 119.6C163.99 119.6 163.35 120.24 163.35 121.06C163.35 121.88 163.99 122.52 164.81 122.52ZM176.744 135H179.004V128.5C179.004 125.42 177.064 123.8 174.484 123.8C173.164 123.8 171.944 124.34 171.204 125.24V123.98H168.924V135H171.204V128.84C171.204 126.82 172.304 125.78 173.984 125.78C175.644 125.78 176.744 126.82 176.744 128.84V135ZM194.947 131.02C194.947 132.36 194.007 133.14 192.467 133.14H189.387V128.8H192.387C193.907 128.8 194.947 129.64 194.947 131.02ZM194.587 124.96C194.587 126.24 193.687 126.94 192.207 126.94H189.387V122.96H192.207C193.687 122.96 194.587 123.7 194.587 124.96ZM197.227 131.26C197.227 129.6 196.027 128.12 194.547 127.86C195.887 127.38 196.907 126.36 196.907 124.68C196.907 122.72 195.347 121.1 192.407 121.1H187.107V135H192.667C195.507 135 197.227 133.38 197.227 131.26ZM199.705 135H201.985V120.2H199.705V135ZM215.479 129.48C215.479 126.02 212.999 123.8 209.859 123.8C206.719 123.8 204.239 126.02 204.239 129.48C204.239 132.94 206.619 135.18 209.759 135.18C212.919 135.18 215.479 132.94 215.479 129.48ZM206.559 129.48C206.559 126.98 208.099 125.78 209.819 125.78C211.519 125.78 213.139 126.98 213.139 129.48C213.139 131.98 211.459 133.2 209.759 133.2C208.039 133.2 206.559 131.98 206.559 129.48ZM216.972 129.48C216.972 132.94 219.212 135.18 222.372 135.18C225.072 135.18 226.832 133.68 227.452 131.52H224.992C224.572 132.66 223.732 133.26 222.372 133.26C220.532 133.26 219.312 131.9 219.312 129.48C219.312 127.08 220.532 125.72 222.372 125.72C223.732 125.72 224.612 126.4 224.992 127.46H227.452C226.832 125.14 225.072 123.8 222.372 123.8C219.212 123.8 216.972 126.04 216.972 129.48ZM229.725 135H232.005V130.26L236.085 135H239.165L234.085 129.5L239.165 123.98H236.005L232.005 128.8V120.2H229.725V135ZM240.039 129.48C240.039 132.94 242.279 135.18 245.439 135.18C248.139 135.18 249.899 133.68 250.519 131.52H248.059C247.639 132.66 246.799 133.26 245.439 133.26C243.599 133.26 242.379 131.9 242.379 129.48C242.379 127.08 243.599 125.72 245.439 125.72C246.799 125.72 247.679 126.4 248.059 127.46H250.519C249.899 125.14 248.139 123.8 245.439 123.8C242.279 123.8 240.039 126.04 240.039 129.48ZM252.791 135H255.071V128.84C255.071 126.82 256.171 125.78 257.851 125.78C259.511 125.78 260.611 126.82 260.611 128.84V135H262.871V128.5C262.871 125.42 260.951 123.8 258.491 123.8C257.071 123.8 255.831 124.34 255.071 125.26V120.2H252.791V135ZM265.019 129.44C265.019 132.84 267.319 135.18 270.179 135.18C272.019 135.18 273.339 134.3 274.039 133.36V135H276.339V123.98H274.039V125.58C273.359 124.68 272.079 123.8 270.219 123.8C267.319 123.8 265.019 126.04 265.019 129.44ZM274.039 129.48C274.039 131.86 272.419 133.2 270.699 133.2C268.999 133.2 267.359 131.82 267.359 129.44C267.359 127.06 268.999 125.78 270.699 125.78C272.419 125.78 274.039 127.12 274.039 129.48ZM279.334 135H281.614V123.98H279.334V135ZM280.494 122.52C281.294 122.52 281.934 121.88 281.934 121.06C281.934 120.24 281.294 119.6 280.494 119.6C279.674 119.6 279.034 120.24 279.034 121.06C279.034 121.88 279.674 122.52 280.494 122.52ZM292.427 135H294.687V128.5C294.687 125.42 292.747 123.8 290.167 123.8C288.847 123.8 287.627 124.34 286.887 125.24V123.98H284.607V135H286.887V128.84C286.887 126.82 287.987 125.78 289.667 125.78C291.327 125.78 292.427 126.82 292.427 128.84V135Z" fill="#212832"/>
<rect x="0.5" y="87.5" width="404" height="79" stroke="black" stroke-opacity="0.5"/>
<rect y="174" width="405" height="80" fill="white"/>
<path d="M92.4961 222H94.7761V212.48L99.0361 222H100.616L104.856 212.48V222H107.136V208.1H104.696L99.8361 219L94.9561 208.1H92.4961V222ZM109.373 215.02C109.373 219.2 112.553 222.12 116.473 222.12C119.373 222.12 121.873 220.68 122.933 217.96H120.193C119.453 219.44 118.133 220.14 116.473 220.14C113.713 220.14 111.713 218.16 111.713 215.02C111.713 211.88 113.713 209.92 116.473 209.92C118.133 209.92 119.453 210.62 120.193 212.1H122.933C121.873 209.38 119.373 207.92 116.473 207.92C112.553 207.92 109.373 210.86 109.373 215.02ZM134.982 222H137.382L132.402 208.08H129.762L124.782 222H127.162L128.162 219.16H133.982L134.982 222ZM133.342 217.3H128.802L131.082 210.84L133.342 217.3ZM144.742 222H147.022V208.1H144.742V222ZM157.836 222H160.096V215.5C160.096 212.42 158.156 210.8 155.576 210.8C154.256 210.8 153.036 211.34 152.296 212.24V210.98H150.016V222H152.296V215.84C152.296 213.82 153.396 212.78 155.076 212.78C156.736 212.78 157.836 213.82 157.836 215.84V222ZM167.439 215.02C167.439 219.2 170.619 222.12 174.539 222.12C177.439 222.12 179.939 220.68 180.999 217.96H178.259C177.519 219.44 176.199 220.14 174.539 220.14C171.779 220.14 169.779 218.16 169.779 215.02C169.779 211.88 171.779 209.92 174.539 209.92C176.199 209.92 177.519 210.62 178.259 212.1H180.999C179.939 209.38 177.439 207.92 174.539 207.92C170.619 207.92 167.439 210.86 167.439 215.02ZM188.008 219.38L184.908 210.98H182.368L186.708 221.82L184.468 227.18H186.828L193.588 210.98H191.228L188.008 219.38ZM197.589 212.62V207.2H195.309V222H197.589V220.4C198.309 221.36 199.609 222.18 201.429 222.18C204.329 222.18 206.609 219.84 206.609 216.44C206.609 213.04 204.349 210.8 201.429 210.8C199.689 210.8 198.309 211.62 197.589 212.62ZM204.289 216.44C204.289 218.82 202.649 220.2 200.929 220.2C199.229 220.2 197.589 218.86 197.589 216.48C197.589 214.12 199.229 212.78 200.929 212.78C202.649 212.78 204.289 214.06 204.289 216.44ZM213.503 212.72C215.203 212.72 216.543 213.8 216.583 215.5H210.483C210.723 213.76 211.963 212.72 213.503 212.72ZM218.663 218.72H216.203C215.783 219.58 215.003 220.26 213.603 220.26C211.923 220.26 210.623 219.16 210.463 217.34H218.883C218.943 216.96 218.963 216.6 218.963 216.22C218.963 212.98 216.743 210.8 213.603 210.8C210.343 210.8 208.103 213.02 208.103 216.48C208.103 219.94 210.443 222.18 213.603 222.18C216.303 222.18 218.043 220.64 218.663 218.72ZM223.487 216.2C223.487 213.86 224.527 213.16 226.207 213.16H226.787V210.8C225.227 210.8 224.127 211.48 223.487 212.58V210.98H221.207V222H223.487V216.2ZM243.458 218.06C243.458 212.98 236.098 214.94 236.098 211.8C236.098 210.46 237.118 209.82 238.438 209.86C239.878 209.9 240.698 210.76 240.778 211.7H243.298C243.098 209.32 241.218 207.92 238.558 207.92C235.718 207.92 233.778 209.44 233.778 211.88C233.778 217 241.158 214.82 241.158 218.18C241.158 219.36 240.258 220.22 238.658 220.22C237.078 220.22 236.278 219.3 236.178 218.16H233.738C233.738 220.62 235.878 222.14 238.658 222.14C241.758 222.14 243.458 220.14 243.458 218.06ZM250.788 212.72C252.488 212.72 253.828 213.8 253.868 215.5H247.768C248.008 213.76 249.248 212.72 250.788 212.72ZM255.948 218.72H253.488C253.068 219.58 252.288 220.26 250.888 220.26C249.208 220.26 247.908 219.16 247.748 217.34H256.168C256.228 216.96 256.248 216.6 256.248 216.22C256.248 212.98 254.028 210.8 250.888 210.8C247.628 210.8 245.388 213.02 245.388 216.48C245.388 219.94 247.728 222.18 250.888 222.18C253.588 222.18 255.328 220.64 255.948 218.72ZM257.732 216.48C257.732 219.94 259.972 222.18 263.132 222.18C265.832 222.18 267.592 220.68 268.212 218.52H265.752C265.332 219.66 264.492 220.26 263.132 220.26C261.292 220.26 260.072 218.9 260.072 216.48C260.072 214.08 261.292 212.72 263.132 212.72C264.492 212.72 265.372 213.4 265.752 214.46H268.212C267.592 212.14 265.832 210.8 263.132 210.8C259.972 210.8 257.732 213.04 257.732 216.48ZM280.464 210.98H278.184V217.12C278.184 219.14 277.084 220.18 275.404 220.18C273.744 220.18 272.644 219.14 272.644 217.12V210.98H270.384V217.46C270.384 220.54 272.344 222.16 274.924 222.16C276.224 222.16 277.464 221.62 278.184 220.68V222H280.464V210.98ZM285.753 216.2C285.753 213.86 286.793 213.16 288.473 213.16H289.053V210.8C287.493 210.8 286.393 211.48 285.753 212.58V210.98H283.473V222H285.753V216.2ZM291.148 222H293.428V210.98H291.148V222ZM292.308 209.52C293.108 209.52 293.748 208.88 293.748 208.06C293.748 207.24 293.108 206.6 292.308 206.6C291.488 206.6 290.848 207.24 290.848 208.06C290.848 208.88 291.488 209.52 292.308 209.52ZM296.782 218.94C296.782 221.18 298.002 222 299.962 222H301.762V220.1H300.362C299.402 220.1 299.082 219.76 299.082 218.94V212.84H301.762V210.98H299.082V208.24H296.782V210.98H295.482V212.84H296.782V218.94ZM308.203 219.38L305.103 210.98H302.563L306.903 221.82L304.663 227.18H307.023L313.783 210.98H311.423L308.203 219.38Z" fill="#212832"/>
<rect x="0.5" y="174.5" width="404" height="79" stroke="black" stroke-opacity="0.5"/>
<rect x="834" width="405" height="80" fill="white"/>
<path d="M880.852 35H883.132V25.48L887.392 35H888.972L893.212 25.48V35H895.492V21.1H893.052L888.192 32L883.312 21.1H880.852V35ZM897.728 28.02C897.728 32.2 900.908 35.12 904.828 35.12C907.728 35.12 910.228 33.68 911.288 30.96H908.548C907.808 32.44 906.488 33.14 904.828 33.14C902.068 33.14 900.068 31.16 900.068 28.02C900.068 24.88 902.068 22.92 904.828 22.92C906.488 22.92 907.808 23.62 908.548 25.1H911.288C910.228 22.38 907.728 20.92 904.828 20.92C900.908 20.92 897.728 23.86 897.728 28.02ZM923.337 35H925.737L920.757 21.08H918.117L913.137 35H915.517L916.517 32.16H922.337L923.337 35ZM921.697 30.3H917.157L919.437 23.84L921.697 30.3ZM933.098 35H935.378V23.98H933.098V35ZM934.258 22.52C935.058 22.52 935.698 21.88 935.698 21.06C935.698 20.24 935.058 19.6 934.258 19.6C933.438 19.6 932.798 20.24 932.798 21.06C932.798 21.88 933.438 22.52 934.258 22.52ZM946.191 35H948.451V28.5C948.451 25.42 946.511 23.8 943.931 23.8C942.611 23.8 941.391 24.34 940.651 25.24V23.98H938.371V35H940.651V28.84C940.651 26.82 941.751 25.78 943.431 25.78C945.091 25.78 946.191 26.82 946.191 28.84V35ZM965.935 35H968.335L963.355 21.08H960.715L955.735 35H958.115L959.115 32.16H964.935L965.935 35ZM964.295 30.3H959.755L962.035 23.84L964.295 30.3ZM980.48 23.98H978.2V30.12C978.2 32.14 977.1 33.18 975.42 33.18C973.76 33.18 972.66 32.14 972.66 30.12V23.98H970.4V30.46C970.4 33.54 972.36 35.16 974.94 35.16C976.24 35.16 977.48 34.62 978.2 33.68V35H980.48V23.98ZM982.728 29.44C982.728 32.84 985.028 35.18 987.928 35.18C989.728 35.18 991.048 34.28 991.748 33.34V35.18C991.748 37.38 990.428 38.46 988.668 38.46C987.088 38.46 985.868 37.68 985.528 36.54H983.268C983.548 38.98 985.728 40.44 988.668 40.44C992.108 40.44 994.048 38.18 994.048 35.18V23.98H991.748V25.58C991.068 24.64 989.728 23.8 987.928 23.8C985.028 23.8 982.728 26.04 982.728 29.44ZM991.748 29.48C991.748 31.86 990.128 33.2 988.408 33.2C986.708 33.2 985.068 31.82 985.068 29.44C985.068 27.06 986.708 25.78 988.408 25.78C990.128 25.78 991.748 27.12 991.748 29.48ZM1012.66 35H1014.92V28.5C1014.92 25.42 1012.96 23.8 1010.38 23.8C1008.78 23.8 1007.22 24.64 1006.54 25.98C1005.78 24.54 1004.32 23.8 1002.58 23.8C1001.26 23.8 1000.06 24.34 999.323 25.24V23.98H997.043V35H999.323V28.84C999.323 26.82 1000.42 25.78 1002.1 25.78C1003.76 25.78 1004.86 26.82 1004.86 28.84V35H1007.12V28.84C1007.12 26.82 1008.22 25.78 1009.9 25.78C1011.56 25.78 1012.66 26.82 1012.66 28.84V35ZM1022.46 25.72C1024.16 25.72 1025.5 26.8 1025.54 28.5H1019.44C1019.68 26.76 1020.92 25.72 1022.46 25.72ZM1027.62 31.72H1025.16C1024.74 32.58 1023.96 33.26 1022.56 33.26C1020.88 33.26 1019.58 32.16 1019.42 30.34H1027.84C1027.9 29.96 1027.92 29.6 1027.92 29.22C1027.92 25.98 1025.7 23.8 1022.56 23.8C1019.3 23.8 1017.06 26.02 1017.06 29.48C1017.06 32.94 1019.4 35.18 1022.56 35.18C1025.26 35.18 1027 33.64 1027.62 31.72ZM1037.99 35H1040.25V28.5C1040.25 25.42 1038.31 23.8 1035.73 23.8C1034.41 23.8 1033.19 24.34 1032.45 25.24V23.98H1030.17V35H1032.45V28.84C1032.45 26.82 1033.55 25.78 1035.23 25.78C1036.89 25.78 1037.99 26.82 1037.99 28.84V35ZM1043.52 31.94C1043.52 34.18 1044.74 35 1046.7 35H1048.5V33.1H1047.1C1046.14 33.1 1045.82 32.76 1045.82 31.94V25.84H1048.5V23.98H1045.82V21.24H1043.52V23.98H1042.22V25.84H1043.52V31.94ZM1055.24 25.72C1056.94 25.72 1058.28 26.8 1058.32 28.5H1052.22C1052.46 26.76 1053.7 25.72 1055.24 25.72ZM1060.4 31.72H1057.94C1057.52 32.58 1056.74 33.26 1055.34 33.26C1053.66 33.26 1052.36 32.16 1052.2 30.34H1060.62C1060.68 29.96 1060.7 29.6 1060.7 29.22C1060.7 25.98 1058.48 23.8 1055.34 23.8C1052.08 23.8 1049.84 26.02 1049.84 29.48C1049.84 32.94 1052.18 35.18 1055.34 35.18C1058.04 35.18 1059.78 33.64 1060.4 31.72ZM1062.18 29.44C1062.18 32.84 1064.48 35.18 1067.38 35.18C1069.18 35.18 1070.5 34.34 1071.2 33.34V35H1073.5V20.2H1071.2V25.52C1070.36 24.48 1068.84 23.8 1067.4 23.8C1064.48 23.8 1062.18 26.04 1062.18 29.44ZM1071.2 29.48C1071.2 31.86 1069.58 33.2 1067.86 33.2C1066.16 33.2 1064.52 31.82 1064.52 29.44C1064.52 27.06 1066.16 25.78 1067.86 25.78C1069.58 25.78 1071.2 27.12 1071.2 29.48ZM1089.07 25.26C1089.07 26.64 1088.27 27.62 1086.49 27.62H1083.97V22.96H1086.49C1088.27 22.96 1089.07 23.86 1089.07 25.26ZM1081.69 21.1V35H1083.97V29.44H1085.71L1088.91 35H1091.63L1088.19 29.24C1090.53 28.66 1091.41 26.9 1091.41 25.26C1091.41 23 1089.79 21.1 1086.49 21.1H1081.69ZM1098.97 25.72C1100.67 25.72 1102.01 26.8 1102.05 28.5H1095.95C1096.19 26.76 1097.43 25.72 1098.97 25.72ZM1104.13 31.72H1101.67C1101.25 32.58 1100.47 33.26 1099.07 33.26C1097.39 33.26 1096.09 32.16 1095.93 30.34H1104.35C1104.41 29.96 1104.43 29.6 1104.43 29.22C1104.43 25.98 1102.21 23.8 1099.07 23.8C1095.81 23.8 1093.57 26.02 1093.57 29.48C1093.57 32.94 1095.91 35.18 1099.07 35.18C1101.77 35.18 1103.51 33.64 1104.13 31.72ZM1105.91 29.44C1105.91 32.84 1108.21 35.18 1111.07 35.18C1112.91 35.18 1114.23 34.3 1114.93 33.36V35H1117.23V23.98H1114.93V25.58C1114.25 24.68 1112.97 23.8 1111.11 23.8C1108.21 23.8 1105.91 26.04 1105.91 29.44ZM1114.93 29.48C1114.93 31.86 1113.31 33.2 1111.59 33.2C1109.89 33.2 1108.25 31.82 1108.25 29.44C1108.25 27.06 1109.89 25.78 1111.59 25.78C1113.31 25.78 1114.93 27.12 1114.93 29.48ZM1120.23 35H1122.51V20.2H1120.23V35ZM1125.5 35H1127.78V23.98H1125.5V35ZM1126.66 22.52C1127.46 22.52 1128.1 21.88 1128.1 21.06C1128.1 20.24 1127.46 19.6 1126.66 19.6C1125.84 19.6 1125.2 20.24 1125.2 21.06C1125.2 21.88 1125.84 22.52 1126.66 22.52ZM1131.13 31.94C1131.13 34.18 1132.35 35 1134.31 35H1136.11V33.1H1134.71C1133.75 33.1 1133.43 32.76 1133.43 31.94V25.84H1136.11V23.98H1133.43V21.24H1131.13V23.98H1129.83V25.84H1131.13V31.94ZM1142.55 32.38L1139.45 23.98H1136.91L1141.25 34.82L1139.01 40.18H1141.37L1148.13 23.98H1145.77L1142.55 32.38ZM1154.29 29.44C1154.29 32.84 1156.59 35.18 1159.45 35.18C1161.29 35.18 1162.61 34.3 1163.31 33.36V35H1165.61V23.98H1163.31V25.58C1162.63 24.68 1161.35 23.8 1159.49 23.8C1156.59 23.8 1154.29 26.04 1154.29 29.44ZM1163.31 29.48C1163.31 31.86 1161.69 33.2 1159.97 33.2C1158.27 33.2 1156.63 31.82 1156.63 29.44C1156.63 27.06 1158.27 25.78 1159.97 25.78C1161.69 25.78 1163.31 27.12 1163.31 29.48ZM1176.43 35H1178.69V28.5C1178.69 25.42 1176.75 23.8 1174.17 23.8C1172.85 23.8 1171.63 24.34 1170.89 25.24V23.98H1168.61V35H1170.89V28.84C1170.89 26.82 1171.99 25.78 1173.67 25.78C1175.33 25.78 1176.43 26.82 1176.43 28.84V35ZM1180.83 29.44C1180.83 32.84 1183.13 35.18 1186.03 35.18C1187.83 35.18 1189.15 34.34 1189.85 33.34V35H1192.15V20.2H1189.85V25.52C1189.01 24.48 1187.49 23.8 1186.05 23.8C1183.13 23.8 1180.83 26.04 1180.83 29.44ZM1189.85 29.48C1189.85 31.86 1188.23 33.2 1186.51 33.2C1184.81 33.2 1183.17 31.82 1183.17 29.44C1183.17 27.06 1184.81 25.78 1186.51 25.78C1188.23 25.78 1189.85 27.12 1189.85 29.48ZM973.713 57.66L969.593 46.1H967.153L972.393 60H975.033L980.253 46.1H977.853L973.713 57.66ZM982.16 60H984.44V48.98H982.16V60ZM983.32 47.52C984.12 47.52 984.76 46.88 984.76 46.06C984.76 45.24 984.12 44.6 983.32 44.6C982.5 44.6 981.86 45.24 981.86 46.06C981.86 46.88 982.5 47.52 983.32 47.52ZM989.714 54.2C989.714 51.86 990.754 51.16 992.434 51.16H993.014V48.8C991.454 48.8 990.354 49.48 989.714 50.58V48.98H987.434V60H989.714V54.2ZM995.469 56.94C995.469 59.18 996.689 60 998.649 60H1000.45V58.1H999.049C998.089 58.1 997.769 57.76 997.769 56.94V50.84H1000.45V48.98H997.769V46.24H995.469V48.98H994.169V50.84H995.469V56.94ZM1012.53 48.98H1010.25V55.12C1010.25 57.14 1009.15 58.18 1007.47 58.18C1005.81 58.18 1004.71 57.14 1004.71 55.12V48.98H1002.45V55.46C1002.45 58.54 1004.41 60.16 1006.99 60.16C1008.29 60.16 1009.53 59.62 1010.25 58.68V60H1012.53V48.98ZM1014.78 54.44C1014.78 57.84 1017.08 60.18 1019.94 60.18C1021.78 60.18 1023.1 59.3 1023.8 58.36V60H1026.1V48.98H1023.8V50.58C1023.12 49.68 1021.84 48.8 1019.98 48.8C1017.08 48.8 1014.78 51.04 1014.78 54.44ZM1023.8 54.48C1023.8 56.86 1022.18 58.2 1020.46 58.2C1018.76 58.2 1017.12 56.82 1017.12 54.44C1017.12 52.06 1018.76 50.78 1020.46 50.78C1022.18 50.78 1023.8 52.12 1023.8 54.48ZM1029.09 60H1031.37V45.2H1029.09V60ZM1046.94 50.26C1046.94 51.64 1046.14 52.62 1044.36 52.62H1041.84V47.96H1044.36C1046.14 47.96 1046.94 48.86 1046.94 50.26ZM1039.56 46.1V60H1041.84V54.44H1043.58L1046.78 60H1049.5L1046.06 54.24C1048.4 53.66 1049.28 51.9 1049.28 50.26C1049.28 48 1047.66 46.1 1044.36 46.1H1039.56ZM1056.84 50.72C1058.54 50.72 1059.88 51.8 1059.92 53.5H1053.82C1054.06 51.76 1055.3 50.72 1056.84 50.72ZM1062 56.72H1059.54C1059.12 57.58 1058.34 58.26 1056.94 58.26C1055.26 58.26 1053.96 57.16 1053.8 55.34H1062.22C1062.28 54.96 1062.3 54.6 1062.3 54.22C1062.3 50.98 1060.08 48.8 1056.94 48.8C1053.68 48.8 1051.44 51.02 1051.44 54.48C1051.44 57.94 1053.78 60.18 1056.94 60.18C1059.64 60.18 1061.38 58.64 1062 56.72ZM1063.78 54.44C1063.78 57.84 1066.08 60.18 1068.94 60.18C1070.78 60.18 1072.1 59.3 1072.8 58.36V60H1075.1V48.98H1072.8V50.58C1072.12 49.68 1070.84 48.8 1068.98 48.8C1066.08 48.8 1063.78 51.04 1063.78 54.44ZM1072.8 54.48C1072.8 56.86 1071.18 58.2 1069.46 58.2C1067.76 58.2 1066.12 56.82 1066.12 54.44C1066.12 52.06 1067.76 50.78 1069.46 50.78C1071.18 50.78 1072.8 52.12 1072.8 54.48ZM1078.1 60H1080.38V45.2H1078.1V60ZM1083.37 60H1085.65V48.98H1083.37V60ZM1084.53 47.52C1085.33 47.52 1085.97 46.88 1085.97 46.06C1085.97 45.24 1085.33 44.6 1084.53 44.6C1083.71 44.6 1083.07 45.24 1083.07 46.06C1083.07 46.88 1083.71 47.52 1084.53 47.52ZM1089 56.94C1089 59.18 1090.22 60 1092.18 60H1093.98V58.1H1092.58C1091.62 58.1 1091.3 57.76 1091.3 56.94V50.84H1093.98V48.98H1091.3V46.24H1089V48.98H1087.7V50.84H1089V56.94ZM1100.43 57.38L1097.33 48.98H1094.79L1099.13 59.82L1096.89 65.18H1099.25L1106.01 48.98H1103.65L1100.43 57.38Z" fill="#212832"/>
<rect x="834.5" y="0.5" width="404" height="79" stroke="black" stroke-opacity="0.5"/>
<rect x="834" y="261" width="405" height="80" fill="white"/>
<path d="M1003.64 301.72H1011.86V299.8H1003.64V301.72ZM1015.34 301.72H1023.56V299.8H1015.34V301.72ZM1027.04 301.72H1035.26V299.8H1027.04V301.72ZM1038.74 301.72H1046.96V299.8H1038.74V301.72ZM1050.44 301.72H1058.66V299.8H1050.44V301.72ZM1062.14 301.72H1070.36V299.8H1062.14V301.72Z" fill="#212832"/>
<rect x="834.5" y="261.5" width="404" height="79" stroke="black" stroke-opacity="0.5"/>
<rect x="834" y="87" width="405" height="80" fill="white"/>
<path d="M887.883 122H890.163V112.48L894.423 122H896.003L900.243 112.48V122H902.523V108.1H900.083L895.223 119L890.343 108.1H887.883V122ZM904.76 115.02C904.76 119.2 907.94 122.12 911.86 122.12C914.76 122.12 917.26 120.68 918.32 117.96H915.58C914.84 119.44 913.52 120.14 911.86 120.14C909.1 120.14 907.1 118.16 907.1 115.02C907.1 111.88 909.1 109.92 911.86 109.92C913.52 109.92 914.84 110.62 915.58 112.1H918.32C917.26 109.38 914.76 107.92 911.86 107.92C907.94 107.92 904.76 110.86 904.76 115.02ZM930.368 122H932.768L927.788 108.08H925.148L920.168 122H922.548L923.548 119.16H929.368L930.368 122ZM928.728 117.3H924.188L926.468 110.84L928.728 117.3ZM940.129 122H942.409V110.98H940.129V122ZM941.289 109.52C942.089 109.52 942.729 108.88 942.729 108.06C942.729 107.24 942.089 106.6 941.289 106.6C940.469 106.6 939.829 107.24 939.829 108.06C939.829 108.88 940.469 109.52 941.289 109.52ZM953.222 122H955.482V115.5C955.482 112.42 953.542 110.8 950.962 110.8C949.642 110.8 948.422 111.34 947.682 112.24V110.98H945.402V122H947.682V115.84C947.682 113.82 948.782 112.78 950.462 112.78C952.122 112.78 953.222 113.82 953.222 115.84V122ZM963.586 122H965.866V112.48L970.126 122H971.706L975.946 112.48V122H978.226V108.1H975.786L970.926 119L966.046 108.1H963.586V122ZM980.463 116.44C980.463 119.84 982.763 122.18 985.623 122.18C987.463 122.18 988.783 121.3 989.483 120.36V122H991.783V110.98H989.483V112.58C988.803 111.68 987.523 110.8 985.663 110.8C982.763 110.8 980.463 113.04 980.463 116.44ZM989.483 116.48C989.483 118.86 987.863 120.2 986.143 120.2C984.443 120.2 982.803 118.82 982.803 116.44C982.803 114.06 984.443 112.78 986.143 112.78C987.863 112.78 989.483 114.12 989.483 116.48ZM994.017 116.48C994.017 119.94 996.257 122.18 999.417 122.18C1002.12 122.18 1003.88 120.68 1004.5 118.52H1002.04C1001.62 119.66 1000.78 120.26 999.417 120.26C997.577 120.26 996.357 118.9 996.357 116.48C996.357 114.08 997.577 112.72 999.417 112.72C1000.78 112.72 1001.66 113.4 1002.04 114.46H1004.5C1003.88 112.14 1002.12 110.8 999.417 110.8C996.257 110.8 994.017 113.04 994.017 116.48ZM1006.77 122H1009.05V115.84C1009.05 113.82 1010.15 112.78 1011.83 112.78C1013.49 112.78 1014.59 113.82 1014.59 115.84V122H1016.85V115.5C1016.85 112.42 1014.93 110.8 1012.47 110.8C1011.05 110.8 1009.81 111.34 1009.05 112.26V107.2H1006.77V122ZM1019.76 122H1022.04V110.98H1019.76V122ZM1020.92 109.52C1021.72 109.52 1022.36 108.88 1022.36 108.06C1022.36 107.24 1021.72 106.6 1020.92 106.6C1020.1 106.6 1019.46 107.24 1019.46 108.06C1019.46 108.88 1020.1 109.52 1020.92 109.52ZM1032.85 122H1035.11V115.5C1035.11 112.42 1033.17 110.8 1030.59 110.8C1029.27 110.8 1028.05 111.34 1027.31 112.24V110.98H1025.03V122H1027.31V115.84C1027.31 113.82 1028.41 112.78 1030.09 112.78C1031.75 112.78 1032.85 113.82 1032.85 115.84V122ZM1042.66 112.72C1044.36 112.72 1045.7 113.8 1045.74 115.5H1039.64C1039.88 113.76 1041.12 112.72 1042.66 112.72ZM1047.82 118.72H1045.36C1044.94 119.58 1044.16 120.26 1042.76 120.26C1041.08 120.26 1039.78 119.16 1039.62 117.34H1048.04C1048.1 116.96 1048.12 116.6 1048.12 116.22C1048.12 112.98 1045.9 110.8 1042.76 110.8C1039.5 110.8 1037.26 113.02 1037.26 116.48C1037.26 119.94 1039.6 122.18 1042.76 122.18C1045.46 122.18 1047.2 120.64 1047.82 118.72ZM1055.56 108.1V122H1062.54V120.16H1057.84V108.1H1055.56ZM1069.09 112.72C1070.79 112.72 1072.13 113.8 1072.17 115.5H1066.07C1066.31 113.76 1067.55 112.72 1069.09 112.72ZM1074.25 118.72H1071.79C1071.37 119.58 1070.59 120.26 1069.19 120.26C1067.51 120.26 1066.21 119.16 1066.05 117.34H1074.47C1074.53 116.96 1074.55 116.6 1074.55 116.22C1074.55 112.98 1072.33 110.8 1069.19 110.8C1065.93 110.8 1063.69 113.02 1063.69 116.48C1063.69 119.94 1066.03 122.18 1069.19 122.18C1071.89 122.18 1073.63 120.64 1074.25 118.72ZM1076.03 116.44C1076.03 119.84 1078.33 122.18 1081.19 122.18C1083.03 122.18 1084.35 121.3 1085.05 120.36V122H1087.35V110.98H1085.05V112.58C1084.37 111.68 1083.09 110.8 1081.23 110.8C1078.33 110.8 1076.03 113.04 1076.03 116.44ZM1085.05 116.48C1085.05 118.86 1083.43 120.2 1081.71 120.2C1080.01 120.2 1078.37 118.82 1078.37 116.44C1078.37 114.06 1080.01 112.78 1081.71 112.78C1083.43 112.78 1085.05 114.12 1085.05 116.48ZM1092.62 116.2C1092.62 113.86 1093.66 113.16 1095.34 113.16H1095.92V110.8C1094.36 110.8 1093.26 111.48 1092.62 112.58V110.98H1090.34V122H1092.62V116.2ZM1105.84 122H1108.1V115.5C1108.1 112.42 1106.16 110.8 1103.58 110.8C1102.26 110.8 1101.04 111.34 1100.3 112.24V110.98H1098.02V122H1100.3V115.84C1100.3 113.82 1101.4 112.78 1103.08 112.78C1104.74 112.78 1105.84 113.82 1105.84 115.84V122ZM1111.01 122H1113.29V110.98H1111.01V122ZM1112.17 109.52C1112.97 109.52 1113.61 108.88 1113.61 108.06C1113.61 107.24 1112.97 106.6 1112.17 106.6C1111.35 106.6 1110.71 107.24 1110.71 108.06C1110.71 108.88 1111.35 109.52 1112.17 109.52ZM1124.1 122H1126.36V115.5C1126.36 112.42 1124.42 110.8 1121.84 110.8C1120.52 110.8 1119.3 111.34 1118.56 112.24V110.98H1116.28V122H1118.56V115.84C1118.56 113.82 1119.66 112.78 1121.34 112.78C1123 112.78 1124.1 113.82 1124.1 115.84V122ZM1128.51 116.44C1128.51 119.84 1130.81 122.18 1133.71 122.18C1135.51 122.18 1136.83 121.28 1137.53 120.34V122.18C1137.53 124.38 1136.21 125.46 1134.45 125.46C1132.87 125.46 1131.65 124.68 1131.31 123.54H1129.05C1129.33 125.98 1131.51 127.44 1134.45 127.44C1137.89 127.44 1139.83 125.18 1139.83 122.18V110.98H1137.53V112.58C1136.85 111.64 1135.51 110.8 1133.71 110.8C1130.81 110.8 1128.51 113.04 1128.51 116.44ZM1137.53 116.48C1137.53 118.86 1135.91 120.2 1134.19 120.2C1132.49 120.2 1130.85 118.82 1130.85 116.44C1130.85 114.06 1132.49 112.78 1134.19 112.78C1135.91 112.78 1137.53 114.12 1137.53 116.48ZM1147.26 116.44C1147.26 119.84 1149.56 122.18 1152.42 122.18C1154.26 122.18 1155.58 121.3 1156.28 120.36V122H1158.58V110.98H1156.28V112.58C1155.6 111.68 1154.32 110.8 1152.46 110.8C1149.56 110.8 1147.26 113.04 1147.26 116.44ZM1156.28 116.48C1156.28 118.86 1154.66 120.2 1152.94 120.2C1151.24 120.2 1149.6 118.82 1149.6 116.44C1149.6 114.06 1151.24 112.78 1152.94 112.78C1154.66 112.78 1156.28 114.12 1156.28 116.48ZM1169.39 122H1171.65V115.5C1171.65 112.42 1169.71 110.8 1167.13 110.8C1165.81 110.8 1164.59 111.34 1163.85 112.24V110.98H1161.57V122H1163.85V115.84C1163.85 113.82 1164.95 112.78 1166.63 112.78C1168.29 112.78 1169.39 113.82 1169.39 115.84V122ZM1173.8 116.44C1173.8 119.84 1176.1 122.18 1179 122.18C1180.8 122.18 1182.12 121.34 1182.82 120.34V122H1185.12V107.2H1182.82V112.52C1181.98 111.48 1180.46 110.8 1179.02 110.8C1176.1 110.8 1173.8 113.04 1173.8 116.44ZM1182.82 116.48C1182.82 118.86 1181.2 120.2 1179.48 120.2C1177.78 120.2 1176.14 118.82 1176.14 116.44C1176.14 114.06 1177.78 112.78 1179.48 112.78C1181.2 112.78 1182.82 114.12 1182.82 116.48ZM945.066 147H947.466L942.486 133.08H939.846L934.866 147H937.246L938.246 144.16H944.066L945.066 147ZM943.426 142.3H938.886L941.166 135.84L943.426 142.3ZM951.911 141.2C951.911 138.86 952.951 138.16 954.631 138.16H955.211V135.8C953.651 135.8 952.551 136.48 951.911 137.58V135.98H949.631V147H951.911V141.2ZM957.667 143.94C957.667 146.18 958.887 147 960.847 147H962.647V145.1H961.247C960.287 145.1 959.967 144.76 959.967 143.94V137.84H962.647V135.98H959.967V133.24H957.667V135.98H956.367V137.84H957.667V143.94ZM964.748 147H967.028V135.98H964.748V147ZM965.908 134.52C966.708 134.52 967.348 133.88 967.348 133.06C967.348 132.24 966.708 131.6 965.908 131.6C965.088 131.6 964.448 132.24 964.448 133.06C964.448 133.88 965.088 134.52 965.908 134.52ZM970.301 147H972.601V137.84H974.641V135.98H972.601V135.2C972.601 133.94 973.081 133.46 974.481 133.46V131.56C971.601 131.56 970.301 132.66 970.301 135.2V135.98H969.001V137.84H970.301V147ZM976.662 147H978.942V135.98H976.662V147ZM977.822 134.52C978.622 134.52 979.262 133.88 979.262 133.06C979.262 132.24 978.622 131.6 977.822 131.6C977.002 131.6 976.362 132.24 976.362 133.06C976.362 133.88 977.002 134.52 977.822 134.52ZM981.176 141.48C981.176 144.94 983.416 147.18 986.576 147.18C989.276 147.18 991.036 145.68 991.656 143.52H989.196C988.776 144.66 987.936 145.26 986.576 145.26C984.736 145.26 983.516 143.9 983.516 141.48C983.516 139.08 984.736 137.72 986.576 137.72C987.936 137.72 988.816 138.4 989.196 139.46H991.656C991.036 137.14 989.276 135.8 986.576 135.8C983.416 135.8 981.176 138.04 981.176 141.48ZM993.928 147H996.208V135.98H993.928V147ZM995.088 134.52C995.888 134.52 996.528 133.88 996.528 133.06C996.528 132.24 995.888 131.6 995.088 131.6C994.268 131.6 993.628 132.24 993.628 133.06C993.628 133.88 994.268 134.52 995.088 134.52ZM998.441 141.44C998.441 144.84 1000.74 147.18 1003.6 147.18C1005.44 147.18 1006.76 146.3 1007.46 145.36V147H1009.76V135.98H1007.46V137.58C1006.78 136.68 1005.5 135.8 1003.64 135.8C1000.74 135.8 998.441 138.04 998.441 141.44ZM1007.46 141.48C1007.46 143.86 1005.84 145.2 1004.12 145.2C1002.42 145.2 1000.78 143.82 1000.78 141.44C1000.78 139.06 1002.42 137.78 1004.12 137.78C1005.84 137.78 1007.46 139.12 1007.46 141.48ZM1012.76 147H1015.04V132.2H1012.76V147ZM1023.22 147H1025.5V133.1H1023.22V147ZM1036.32 147H1038.58V140.5C1038.58 137.42 1036.64 135.8 1034.06 135.8C1032.74 135.8 1031.52 136.34 1030.78 137.24V135.98H1028.5V147H1030.78V140.84C1030.78 138.82 1031.88 137.78 1033.56 137.78C1035.22 137.78 1036.32 138.82 1036.32 140.84V147ZM1041.85 143.94C1041.85 146.18 1043.07 147 1045.03 147H1046.83V145.1H1045.43C1044.47 145.1 1044.15 144.76 1044.15 143.94V137.84H1046.83V135.98H1044.15V133.24H1041.85V135.98H1040.55V137.84H1041.85V143.94ZM1053.57 137.72C1055.27 137.72 1056.61 138.8 1056.65 140.5H1050.55C1050.79 138.76 1052.03 137.72 1053.57 137.72ZM1058.73 143.72H1056.27C1055.85 144.58 1055.07 145.26 1053.67 145.26C1051.99 145.26 1050.69 144.16 1050.53 142.34H1058.95C1059.01 141.96 1059.03 141.6 1059.03 141.22C1059.03 137.98 1056.81 135.8 1053.67 135.8C1050.41 135.8 1048.17 138.02 1048.17 141.48C1048.17 144.94 1050.51 147.18 1053.67 147.18C1056.37 147.18 1058.11 145.64 1058.73 143.72ZM1061.27 147H1063.55V132.2H1061.27V147ZM1066.54 147H1068.82V132.2H1066.54V147ZM1071.82 147H1074.1V135.98H1071.82V147ZM1072.98 134.52C1073.78 134.52 1074.42 133.88 1074.42 133.06C1074.42 132.24 1073.78 131.6 1072.98 131.6C1072.16 131.6 1071.52 132.24 1071.52 133.06C1071.52 133.88 1072.16 134.52 1072.98 134.52ZM1076.33 141.44C1076.33 144.84 1078.63 147.18 1081.53 147.18C1083.33 147.18 1084.65 146.28 1085.35 145.34V147.18C1085.35 149.38 1084.03 150.46 1082.27 150.46C1080.69 150.46 1079.47 149.68 1079.13 148.54H1076.87C1077.15 150.98 1079.33 152.44 1082.27 152.44C1085.71 152.44 1087.65 150.18 1087.65 147.18V135.98H1085.35V137.58C1084.67 136.64 1083.33 135.8 1081.53 135.8C1078.63 135.8 1076.33 138.04 1076.33 141.44ZM1085.35 141.48C1085.35 143.86 1083.73 145.2 1082.01 145.2C1080.31 145.2 1078.67 143.82 1078.67 141.44C1078.67 139.06 1080.31 137.78 1082.01 137.78C1083.73 137.78 1085.35 139.12 1085.35 141.48ZM1095.29 137.72C1096.99 137.72 1098.33 138.8 1098.37 140.5H1092.27C1092.51 138.76 1093.75 137.72 1095.29 137.72ZM1100.45 143.72H1097.99C1097.57 144.58 1096.79 145.26 1095.39 145.26C1093.71 145.26 1092.41 144.16 1092.25 142.34H1100.67C1100.73 141.96 1100.75 141.6 1100.75 141.22C1100.75 137.98 1098.53 135.8 1095.39 135.8C1092.13 135.8 1089.89 138.02 1089.89 141.48C1089.89 144.94 1092.23 147.18 1095.39 147.18C1098.09 147.18 1099.83 145.64 1100.45 143.72ZM1110.81 147H1113.07V140.5C1113.07 137.42 1111.13 135.8 1108.55 135.8C1107.23 135.8 1106.01 136.34 1105.27 137.24V135.98H1102.99V147H1105.27V140.84C1105.27 138.82 1106.37 137.78 1108.05 137.78C1109.71 137.78 1110.81 138.82 1110.81 140.84V147ZM1115.22 141.48C1115.22 144.94 1117.46 147.18 1120.62 147.18C1123.32 147.18 1125.08 145.68 1125.7 143.52H1123.24C1122.82 144.66 1121.98 145.26 1120.62 145.26C1118.78 145.26 1117.56 143.9 1117.56 141.48C1117.56 139.08 1118.78 137.72 1120.62 137.72C1121.98 137.72 1122.86 138.4 1123.24 139.46H1125.7C1125.08 137.14 1123.32 135.8 1120.62 135.8C1117.46 135.8 1115.22 138.04 1115.22 141.48ZM1132.61 137.72C1134.31 137.72 1135.65 138.8 1135.69 140.5H1129.59C1129.83 138.76 1131.07 137.72 1132.61 137.72ZM1137.77 143.72H1135.31C1134.89 144.58 1134.11 145.26 1132.71 145.26C1131.03 145.26 1129.73 144.16 1129.57 142.34H1137.99C1138.05 141.96 1138.07 141.6 1138.07 141.22C1138.07 137.98 1135.85 135.8 1132.71 135.8C1129.45 135.8 1127.21 138.02 1127.21 141.48C1127.21 144.94 1129.55 147.18 1132.71 147.18C1135.41 147.18 1137.15 145.64 1137.77 143.72Z" fill="#212832"/>
<rect x="834.5" y="87.5" width="404" height="79" stroke="black" stroke-opacity="0.5"/>
<rect x="834" y="174" width="405" height="80" fill="white"/>
<path d="M910.629 222H912.909V212.48L917.169 222H918.749L922.989 212.48V222H925.269V208.1H922.829L917.969 219L913.089 208.1H910.629V222ZM927.506 215.02C927.506 219.2 930.686 222.12 934.606 222.12C937.506 222.12 940.006 220.68 941.066 217.96H938.326C937.586 219.44 936.266 220.14 934.606 220.14C931.846 220.14 929.846 218.16 929.846 215.02C929.846 211.88 931.846 209.92 934.606 209.92C936.266 209.92 937.586 210.62 938.326 212.1H941.066C940.006 209.38 937.506 207.92 934.606 207.92C930.686 207.92 927.506 210.86 927.506 215.02ZM953.114 222H955.514L950.534 208.08H947.894L942.914 222H945.294L946.294 219.16H952.114L953.114 222ZM951.474 217.3H946.934L949.214 210.84L951.474 217.3ZM962.875 222H965.155V208.1H962.875V222ZM975.968 222H978.228V215.5C978.228 212.42 976.288 210.8 973.708 210.8C972.388 210.8 971.168 211.34 970.428 212.24V210.98H968.148V222H970.428V215.84C970.428 213.82 971.528 212.78 973.208 212.78C974.868 212.78 975.968 213.82 975.968 215.84V222ZM985.572 215.02C985.572 219.2 988.752 222.12 992.672 222.12C995.572 222.12 998.072 220.68 999.132 217.96H996.392C995.652 219.44 994.332 220.14 992.672 220.14C989.912 220.14 987.912 218.16 987.912 215.02C987.912 211.88 989.912 209.92 992.672 209.92C994.332 209.92 995.652 210.62 996.392 212.1H999.132C998.072 209.38 995.572 207.92 992.672 207.92C988.752 207.92 985.572 210.86 985.572 215.02ZM1001.8 222H1004.08V207.2H1001.8V222ZM1017.57 216.48C1017.57 213.02 1015.09 210.8 1011.95 210.8C1008.81 210.8 1006.33 213.02 1006.33 216.48C1006.33 219.94 1008.71 222.18 1011.85 222.18C1015.01 222.18 1017.57 219.94 1017.57 216.48ZM1008.65 216.48C1008.65 213.98 1010.19 212.78 1011.91 212.78C1013.61 212.78 1015.23 213.98 1015.23 216.48C1015.23 218.98 1013.55 220.2 1011.85 220.2C1010.13 220.2 1008.65 218.98 1008.65 216.48ZM1029.81 210.98H1027.53V217.12C1027.53 219.14 1026.43 220.18 1024.75 220.18C1023.09 220.18 1021.99 219.14 1021.99 217.12V210.98H1019.73V217.46C1019.73 220.54 1021.69 222.16 1024.27 222.16C1025.57 222.16 1026.81 221.62 1027.53 220.68V222H1029.81V210.98ZM1032.06 216.44C1032.06 219.84 1034.36 222.18 1037.26 222.18C1039.06 222.18 1040.38 221.34 1041.08 220.34V222H1043.38V207.2H1041.08V212.52C1040.24 211.48 1038.72 210.8 1037.28 210.8C1034.36 210.8 1032.06 213.04 1032.06 216.44ZM1041.08 216.48C1041.08 218.86 1039.46 220.2 1037.74 220.2C1036.04 220.2 1034.4 218.82 1034.4 216.44C1034.4 214.06 1036.04 212.78 1037.74 212.78C1039.46 212.78 1041.08 214.12 1041.08 216.48ZM1050.81 215.02C1050.81 219.2 1053.99 222.12 1057.91 222.12C1060.81 222.12 1063.31 220.68 1064.37 217.96H1061.63C1060.89 219.44 1059.57 220.14 1057.91 220.14C1055.15 220.14 1053.15 218.16 1053.15 215.02C1053.15 211.88 1055.15 209.92 1057.91 209.92C1059.57 209.92 1060.89 210.62 1061.63 212.1H1064.37C1063.31 209.38 1060.81 207.92 1057.91 207.92C1053.99 207.92 1050.81 210.86 1050.81 215.02ZM1077.54 216.48C1077.54 213.02 1075.06 210.8 1071.92 210.8C1068.78 210.8 1066.3 213.02 1066.3 216.48C1066.3 219.94 1068.68 222.18 1071.82 222.18C1074.98 222.18 1077.54 219.94 1077.54 216.48ZM1068.62 216.48C1068.62 213.98 1070.16 212.78 1071.88 212.78C1073.58 212.78 1075.2 213.98 1075.2 216.48C1075.2 218.98 1073.52 220.2 1071.82 220.2C1070.1 220.2 1068.62 218.98 1068.62 216.48ZM1095.41 222H1097.67V215.5C1097.67 212.42 1095.71 210.8 1093.13 210.8C1091.53 210.8 1089.97 211.64 1089.29 212.98C1088.53 211.54 1087.07 210.8 1085.33 210.8C1084.01 210.8 1082.81 211.34 1082.07 212.24V210.98H1079.79V222H1082.07V215.84C1082.07 213.82 1083.17 212.78 1084.85 212.78C1086.51 212.78 1087.61 213.82 1087.61 215.84V222H1089.87V215.84C1089.87 213.82 1090.97 212.78 1092.65 212.78C1094.31 212.78 1095.41 213.82 1095.41 215.84V222ZM1102.85 212.6V210.98H1100.57V227.24H1102.85V220.4C1103.57 221.26 1104.87 222.18 1106.69 222.18C1109.59 222.18 1111.87 219.84 1111.87 216.44C1111.87 213.04 1109.59 210.8 1106.69 210.8C1104.89 210.8 1103.55 211.68 1102.85 212.6ZM1109.55 216.44C1109.55 218.82 1107.91 220.2 1106.19 220.2C1104.49 220.2 1102.85 218.86 1102.85 216.48C1102.85 214.12 1104.49 212.78 1106.19 212.78C1107.91 212.78 1109.55 214.06 1109.55 216.44ZM1124.11 210.98H1121.83V217.12C1121.83 219.14 1120.73 220.18 1119.05 220.18C1117.39 220.18 1116.29 219.14 1116.29 217.12V210.98H1114.03V217.46C1114.03 220.54 1115.99 222.16 1118.57 222.16C1119.87 222.16 1121.11 221.62 1121.83 220.68V222H1124.11V210.98ZM1127.47 218.94C1127.47 221.18 1128.69 222 1130.65 222H1132.45V220.1H1131.05C1130.09 220.1 1129.77 219.76 1129.77 218.94V212.84H1132.45V210.98H1129.77V208.24H1127.47V210.98H1126.17V212.84H1127.47V218.94ZM1134.55 222H1136.83V210.98H1134.55V222ZM1135.71 209.52C1136.51 209.52 1137.15 208.88 1137.15 208.06C1137.15 207.24 1136.51 206.6 1135.71 206.6C1134.89 206.6 1134.25 207.24 1134.25 208.06C1134.25 208.88 1134.89 209.52 1135.71 209.52ZM1147.65 222H1149.91V215.5C1149.91 212.42 1147.97 210.8 1145.39 210.8C1144.07 210.8 1142.85 211.34 1142.11 212.24V210.98H1139.83V222H1142.11V215.84C1142.11 213.82 1143.21 212.78 1144.89 212.78C1146.55 212.78 1147.65 213.82 1147.65 215.84V222ZM1152.06 216.44C1152.06 219.84 1154.36 222.18 1157.26 222.18C1159.06 222.18 1160.38 221.28 1161.08 220.34V222.18C1161.08 224.38 1159.76 225.46 1158 225.46C1156.42 225.46 1155.2 224.68 1154.86 223.54H1152.6C1152.88 225.98 1155.06 227.44 1158 227.44C1161.44 227.44 1163.38 225.18 1163.38 222.18V210.98H1161.08V212.58C1160.4 211.64 1159.06 210.8 1157.26 210.8C1154.36 210.8 1152.06 213.04 1152.06 216.44ZM1161.08 216.48C1161.08 218.86 1159.46 220.2 1157.74 220.2C1156.04 220.2 1154.4 218.82 1154.4 216.44C1154.4 214.06 1156.04 212.78 1157.74 212.78C1159.46 212.78 1161.08 214.12 1161.08 216.48Z" fill="#212832"/>
<rect x="834.5" y="174.5" width="404" height="79" stroke="black" stroke-opacity="0.5"/>
<rect x="417" width="405" height="80" fill="white"/>
<path d="M493.529 48H495.809V38.48L500.069 48H501.649L505.889 38.48V48H508.169V34.1H505.729L500.869 45L495.989 34.1H493.529V48ZM510.406 41.02C510.406 45.2 513.586 48.12 517.506 48.12C520.406 48.12 522.906 46.68 523.966 43.96H521.226C520.486 45.44 519.166 46.14 517.506 46.14C514.746 46.14 512.746 44.16 512.746 41.02C512.746 37.88 514.746 35.92 517.506 35.92C519.166 35.92 520.486 36.62 521.226 38.1H523.966C522.906 35.38 520.406 33.92 517.506 33.92C513.586 33.92 510.406 36.86 510.406 41.02ZM536.015 48H538.415L533.435 34.08H530.795L525.815 48H528.195L529.195 45.16H535.015L536.015 48ZM534.375 43.3H529.835L532.115 36.84L534.375 43.3ZM545.775 48H548.055V36.98H545.775V48ZM546.935 35.52C547.735 35.52 548.375 34.88 548.375 34.06C548.375 33.24 547.735 32.6 546.935 32.6C546.115 32.6 545.475 33.24 545.475 34.06C545.475 34.88 546.115 35.52 546.935 35.52ZM558.869 48H561.129V41.5C561.129 38.42 559.189 36.8 556.609 36.8C555.289 36.8 554.069 37.34 553.329 38.24V36.98H551.049V48H553.329V41.84C553.329 39.82 554.429 38.78 556.109 38.78C557.769 38.78 558.869 39.82 558.869 41.84V48ZM569.232 48H571.512V38.48L575.772 48H577.352L581.592 38.48V48H583.872V34.1H581.432L576.572 45L571.692 34.1H569.232V48ZM586.109 42.44C586.109 45.84 588.409 48.18 591.269 48.18C593.109 48.18 594.429 47.3 595.129 46.36V48H597.429V36.98H595.129V38.58C594.449 37.68 593.169 36.8 591.309 36.8C588.409 36.8 586.109 39.04 586.109 42.44ZM595.129 42.48C595.129 44.86 593.509 46.2 591.789 46.2C590.089 46.2 588.449 44.82 588.449 42.44C588.449 40.06 590.089 38.78 591.789 38.78C593.509 38.78 595.129 40.12 595.129 42.48ZM599.664 42.48C599.664 45.94 601.904 48.18 605.064 48.18C607.764 48.18 609.524 46.68 610.144 44.52H607.684C607.264 45.66 606.424 46.26 605.064 46.26C603.224 46.26 602.004 44.9 602.004 42.48C602.004 40.08 603.224 38.72 605.064 38.72C606.424 38.72 607.304 39.4 607.684 40.46H610.144C609.524 38.14 607.764 36.8 605.064 36.8C601.904 36.8 599.664 39.04 599.664 42.48ZM612.416 48H614.696V41.84C614.696 39.82 615.796 38.78 617.476 38.78C619.136 38.78 620.236 39.82 620.236 41.84V48H622.496V41.5C622.496 38.42 620.576 36.8 618.116 36.8C616.696 36.8 615.456 37.34 614.696 38.26V33.2H612.416V48ZM625.404 48H627.684V36.98H625.404V48ZM626.564 35.52C627.364 35.52 628.004 34.88 628.004 34.06C628.004 33.24 627.364 32.6 626.564 32.6C625.744 32.6 625.104 33.24 625.104 34.06C625.104 34.88 625.744 35.52 626.564 35.52ZM638.498 48H640.758V41.5C640.758 38.42 638.818 36.8 636.238 36.8C634.918 36.8 633.698 37.34 632.958 38.24V36.98H630.678V48H632.958V41.84C632.958 39.82 634.058 38.78 635.738 38.78C637.398 38.78 638.498 39.82 638.498 41.84V48ZM648.306 38.72C650.006 38.72 651.346 39.8 651.386 41.5H645.286C645.526 39.76 646.766 38.72 648.306 38.72ZM653.466 44.72H651.006C650.586 45.58 649.806 46.26 648.406 46.26C646.726 46.26 645.426 45.16 645.266 43.34H653.686C653.746 42.96 653.766 42.6 653.766 42.22C653.766 38.98 651.546 36.8 648.406 36.8C645.146 36.8 642.906 39.02 642.906 42.48C642.906 45.94 645.246 48.18 648.406 48.18C651.106 48.18 652.846 46.64 653.466 44.72ZM661.205 34.1V48H668.185V46.16H663.485V34.1H661.205ZM674.732 38.72C676.432 38.72 677.772 39.8 677.812 41.5H671.712C671.952 39.76 673.192 38.72 674.732 38.72ZM679.892 44.72H677.432C677.012 45.58 676.232 46.26 674.832 46.26C673.152 46.26 671.852 45.16 671.692 43.34H680.112C680.172 42.96 680.192 42.6 680.192 42.22C680.192 38.98 677.972 36.8 674.832 36.8C671.572 36.8 669.332 39.02 669.332 42.48C669.332 45.94 671.672 48.18 674.832 48.18C677.532 48.18 679.272 46.64 679.892 44.72ZM681.676 42.44C681.676 45.84 683.976 48.18 686.836 48.18C688.676 48.18 689.996 47.3 690.696 46.36V48H692.996V36.98H690.696V38.58C690.016 37.68 688.736 36.8 686.876 36.8C683.976 36.8 681.676 39.04 681.676 42.44ZM690.696 42.48C690.696 44.86 689.076 46.2 687.356 46.2C685.656 46.2 684.016 44.82 684.016 42.44C684.016 40.06 685.656 38.78 687.356 38.78C689.076 38.78 690.696 40.12 690.696 42.48ZM698.27 42.2C698.27 39.86 699.31 39.16 700.99 39.16H701.57V36.8C700.01 36.8 698.91 37.48 698.27 38.58V36.98H695.99V48H698.27V42.2ZM711.486 48H713.746V41.5C713.746 38.42 711.806 36.8 709.226 36.8C707.906 36.8 706.686 37.34 705.946 38.24V36.98H703.666V48H705.946V41.84C705.946 39.82 707.046 38.78 708.726 38.78C710.386 38.78 711.486 39.82 711.486 41.84V48ZM716.654 48H718.934V36.98H716.654V48ZM717.814 35.52C718.614 35.52 719.254 34.88 719.254 34.06C719.254 33.24 718.614 32.6 717.814 32.6C716.994 32.6 716.354 33.24 716.354 34.06C716.354 34.88 716.994 35.52 717.814 35.52ZM729.748 48H732.008V41.5C732.008 38.42 730.068 36.8 727.488 36.8C726.168 36.8 724.948 37.34 724.208 38.24V36.98H721.928V48H724.208V41.84C724.208 39.82 725.308 38.78 726.988 38.78C728.648 38.78 729.748 39.82 729.748 41.84V48ZM734.156 42.44C734.156 45.84 736.456 48.18 739.356 48.18C741.156 48.18 742.476 47.28 743.176 46.34V48.18C743.176 50.38 741.856 51.46 740.096 51.46C738.516 51.46 737.296 50.68 736.956 49.54H734.696C734.976 51.98 737.156 53.44 740.096 53.44C743.536 53.44 745.476 51.18 745.476 48.18V36.98H743.176V38.58C742.496 37.64 741.156 36.8 739.356 36.8C736.456 36.8 734.156 39.04 734.156 42.44ZM743.176 42.48C743.176 44.86 741.556 46.2 739.836 46.2C738.136 46.2 736.496 44.82 736.496 42.44C736.496 40.06 738.136 38.78 739.836 38.78C741.556 38.78 743.176 40.12 743.176 42.48Z" fill="#212832"/>
<rect x="417.5" y="0.5" width="404" height="79" stroke="black" stroke-opacity="0.5"/>
<rect x="417" y="261" width="405" height="80" fill="white"/>
<path d="M480.834 309H483.114V299.48L487.374 309H488.954L493.194 299.48V309H495.474V295.1H493.034L488.174 306L483.294 295.1H480.834V309ZM497.711 302.02C497.711 306.2 500.891 309.12 504.811 309.12C507.711 309.12 510.211 307.68 511.271 304.96H508.531C507.791 306.44 506.471 307.14 504.811 307.14C502.051 307.14 500.051 305.16 500.051 302.02C500.051 298.88 502.051 296.92 504.811 296.92C506.471 296.92 507.791 297.62 508.531 299.1H511.271C510.211 296.38 507.711 294.92 504.811 294.92C500.891 294.92 497.711 297.86 497.711 302.02ZM523.319 309H525.719L520.739 295.08H518.099L513.119 309H515.499L516.499 306.16H522.319L523.319 309ZM521.679 304.3H517.139L519.419 297.84L521.679 304.3ZM533.08 309H535.36V295.1H533.08V309ZM546.174 309H548.434V302.5C548.434 299.42 546.494 297.8 543.914 297.8C542.594 297.8 541.374 298.34 540.634 299.24V297.98H538.354V309H540.634V302.84C540.634 300.82 541.734 299.78 543.414 299.78C545.074 299.78 546.174 300.82 546.174 302.84V309ZM565.917 309H568.317L563.337 295.08H560.697L555.717 309H558.097L559.097 306.16H564.917L565.917 309ZM564.277 304.3H559.737L562.017 297.84L564.277 304.3ZM572.762 303.2C572.762 300.86 573.802 300.16 575.482 300.16H576.062V297.8C574.502 297.8 573.402 298.48 572.762 299.58V297.98H570.482V309H572.762V303.2ZM578.518 305.94C578.518 308.18 579.738 309 581.698 309H583.498V307.1H582.098C581.138 307.1 580.818 306.76 580.818 305.94V299.84H583.498V297.98H580.818V295.24H578.518V297.98H577.218V299.84H578.518V305.94ZM585.6 309H587.88V297.98H585.6V309ZM586.76 296.52C587.56 296.52 588.2 295.88 588.2 295.06C588.2 294.24 587.56 293.6 586.76 293.6C585.94 293.6 585.3 294.24 585.3 295.06C585.3 295.88 585.94 296.52 586.76 296.52ZM591.153 309H593.453V299.84H595.493V297.98H593.453V297.2C593.453 295.94 593.933 295.46 595.333 295.46V293.56C592.453 293.56 591.153 294.66 591.153 297.2V297.98H589.853V299.84H591.153V309ZM597.514 309H599.794V297.98H597.514V309ZM598.674 296.52C599.474 296.52 600.114 295.88 600.114 295.06C600.114 294.24 599.474 293.6 598.674 293.6C597.854 293.6 597.214 294.24 597.214 295.06C597.214 295.88 597.854 296.52 598.674 296.52ZM602.027 303.48C602.027 306.94 604.267 309.18 607.427 309.18C610.127 309.18 611.887 307.68 612.507 305.52H610.047C609.627 306.66 608.787 307.26 607.427 307.26C605.587 307.26 604.367 305.9 604.367 303.48C604.367 301.08 605.587 299.72 607.427 299.72C608.787 299.72 609.667 300.4 610.047 301.46H612.507C611.887 299.14 610.127 297.8 607.427 297.8C604.267 297.8 602.027 300.04 602.027 303.48ZM614.779 309H617.059V297.98H614.779V309ZM615.939 296.52C616.739 296.52 617.379 295.88 617.379 295.06C617.379 294.24 616.739 293.6 615.939 293.6C615.119 293.6 614.479 294.24 614.479 295.06C614.479 295.88 615.119 296.52 615.939 296.52ZM619.293 303.44C619.293 306.84 621.593 309.18 624.453 309.18C626.293 309.18 627.613 308.3 628.313 307.36V309H630.613V297.98H628.313V299.58C627.633 298.68 626.353 297.8 624.493 297.8C621.593 297.8 619.293 300.04 619.293 303.44ZM628.313 303.48C628.313 305.86 626.693 307.2 624.973 307.2C623.273 307.2 621.633 305.82 621.633 303.44C621.633 301.06 623.273 299.78 624.973 299.78C626.693 299.78 628.313 301.12 628.313 303.48ZM633.607 309H635.887V294.2H633.607V309ZM644.076 309H646.356V295.1H644.076V309ZM657.17 309H659.43V302.5C659.43 299.42 657.49 297.8 654.91 297.8C653.59 297.8 652.37 298.34 651.63 299.24V297.98H649.35V309H651.63V302.84C651.63 300.82 652.73 299.78 654.41 299.78C656.07 299.78 657.17 300.82 657.17 302.84V309ZM662.698 305.94C662.698 308.18 663.918 309 665.878 309H667.678V307.1H666.278C665.318 307.1 664.998 306.76 664.998 305.94V299.84H667.678V297.98H664.998V295.24H662.698V297.98H661.398V299.84H662.698V305.94ZM674.419 299.72C676.119 299.72 677.459 300.8 677.499 302.5H671.399C671.639 300.76 672.879 299.72 674.419 299.72ZM679.579 305.72H677.119C676.699 306.58 675.919 307.26 674.519 307.26C672.839 307.26 671.539 306.16 671.379 304.34H679.799C679.859 303.96 679.879 303.6 679.879 303.22C679.879 299.98 677.659 297.8 674.519 297.8C671.259 297.8 669.019 300.02 669.019 303.48C669.019 306.94 671.359 309.18 674.519 309.18C677.219 309.18 678.959 307.64 679.579 305.72ZM682.123 309H684.403V294.2H682.123V309ZM687.396 309H689.676V294.2H687.396V309ZM692.67 309H694.95V297.98H692.67V309ZM693.83 296.52C694.63 296.52 695.27 295.88 695.27 295.06C695.27 294.24 694.63 293.6 693.83 293.6C693.01 293.6 692.37 294.24 692.37 295.06C692.37 295.88 693.01 296.52 693.83 296.52ZM697.183 303.44C697.183 306.84 699.483 309.18 702.383 309.18C704.183 309.18 705.503 308.28 706.203 307.34V309.18C706.203 311.38 704.883 312.46 703.123 312.46C701.543 312.46 700.323 311.68 699.983 310.54H697.723C698.003 312.98 700.183 314.44 703.123 314.44C706.563 314.44 708.503 312.18 708.503 309.18V297.98H706.203V299.58C705.523 298.64 704.183 297.8 702.383 297.8C699.483 297.8 697.183 300.04 697.183 303.44ZM706.203 303.48C706.203 305.86 704.583 307.2 702.863 307.2C701.163 307.2 699.523 305.82 699.523 303.44C699.523 301.06 701.163 299.78 702.863 299.78C704.583 299.78 706.203 301.12 706.203 303.48ZM716.138 299.72C717.838 299.72 719.178 300.8 719.218 302.5H713.118C713.358 300.76 714.598 299.72 716.138 299.72ZM721.298 305.72H718.838C718.418 306.58 717.638 307.26 716.238 307.26C714.558 307.26 713.258 306.16 713.098 304.34H721.518C721.578 303.96 721.598 303.6 721.598 303.22C721.598 299.98 719.378 297.8 716.238 297.8C712.978 297.8 710.738 300.02 710.738 303.48C710.738 306.94 713.078 309.18 716.238 309.18C718.938 309.18 720.678 307.64 721.298 305.72ZM731.662 309H733.922V302.5C733.922 299.42 731.982 297.8 729.402 297.8C728.082 297.8 726.862 298.34 726.122 299.24V297.98H723.842V309H726.122V302.84C726.122 300.82 727.222 299.78 728.902 299.78C730.562 299.78 731.662 300.82 731.662 302.84V309ZM736.07 303.48C736.07 306.94 738.31 309.18 741.47 309.18C744.17 309.18 745.93 307.68 746.55 305.52H744.09C743.67 306.66 742.83 307.26 741.47 307.26C739.63 307.26 738.41 305.9 738.41 303.48C738.41 301.08 739.63 299.72 741.47 299.72C742.83 299.72 743.71 300.4 744.09 301.46H746.55C745.93 299.14 744.17 297.8 741.47 297.8C738.31 297.8 736.07 300.04 736.07 303.48ZM753.462 299.72C755.162 299.72 756.502 300.8 756.542 302.5H750.442C750.682 300.76 751.922 299.72 753.462 299.72ZM758.622 305.72H756.162C755.742 306.58 754.962 307.26 753.562 307.26C751.882 307.26 750.582 306.16 750.422 304.34H758.842C758.902 303.96 758.922 303.6 758.922 303.22C758.922 299.98 756.702 297.8 753.562 297.8C750.302 297.8 748.062 300.02 748.062 303.48C748.062 306.94 750.402 309.18 753.562 309.18C756.262 309.18 758.002 307.64 758.622 305.72Z" fill="#212832"/>
<rect x="417.5" y="261.5" width="404" height="79" stroke="black" stroke-opacity="0.5"/>
<rect x="417" y="87" width="405" height="80" fill="white"/>
<path d="M519.781 135H522.061V125.48L526.321 135H527.901L532.141 125.48V135H534.421V121.1H531.981L527.121 132L522.241 121.1H519.781V135ZM536.658 128.02C536.658 132.2 539.838 135.12 543.758 135.12C546.658 135.12 549.158 133.68 550.218 130.96H547.478C546.738 132.44 545.418 133.14 543.758 133.14C540.998 133.14 538.998 131.16 538.998 128.02C538.998 124.88 540.998 122.92 543.758 122.92C545.418 122.92 546.738 123.62 547.478 125.1H550.218C549.158 122.38 546.658 120.92 543.758 120.92C539.838 120.92 536.658 123.86 536.658 128.02ZM562.267 135H564.667L559.687 121.08H557.047L552.067 135H554.447L555.447 132.16H561.267L562.267 135ZM560.627 130.3H556.087L558.367 123.84L560.627 130.3ZM572.027 135H574.307V121.1H572.027V135ZM585.121 135H587.381V128.5C587.381 125.42 585.441 123.8 582.861 123.8C581.541 123.8 580.321 124.34 579.581 125.24V123.98H577.301V135H579.581V128.84C579.581 126.82 580.681 125.78 582.361 125.78C584.021 125.78 585.121 126.82 585.121 128.84V135ZM600.024 121.1H595.484V135H600.024C604.484 135 607.404 132.38 607.404 128.1C607.404 123.8 604.484 121.1 600.024 121.1ZM597.764 133.14V122.96H600.024C603.304 122.96 605.064 124.92 605.064 128.1C605.064 131.26 603.304 133.14 600.024 133.14H597.764ZM608.904 129.44C608.904 132.84 611.204 135.18 614.064 135.18C615.904 135.18 617.224 134.3 617.924 133.36V135H620.224V123.98H617.924V125.58C617.244 124.68 615.964 123.8 614.104 123.8C611.204 123.8 608.904 126.04 608.904 129.44ZM617.924 129.48C617.924 131.86 616.304 133.2 614.584 133.2C612.884 133.2 611.244 131.82 611.244 129.44C611.244 127.06 612.884 125.78 614.584 125.78C616.304 125.78 617.924 127.12 617.924 129.48ZM623.579 131.94C623.579 134.18 624.799 135 626.759 135H628.559V133.1H627.159C626.199 133.1 625.879 132.76 625.879 131.94V125.84H628.559V123.98H625.879V121.24H623.579V123.98H622.279V125.84H623.579V131.94ZM629.9 129.44C629.9 132.84 632.2 135.18 635.06 135.18C636.9 135.18 638.22 134.3 638.92 133.36V135H641.22V123.98H638.92V125.58C638.24 124.68 636.96 123.8 635.1 123.8C632.2 123.8 629.9 126.04 629.9 129.44ZM638.92 129.48C638.92 131.86 637.3 133.2 635.58 133.2C633.88 133.2 632.24 131.82 632.24 129.44C632.24 127.06 633.88 125.78 635.58 125.78C637.3 125.78 638.92 127.12 638.92 129.48ZM658.79 131.06C658.79 125.98 651.43 127.94 651.43 124.8C651.43 123.46 652.45 122.82 653.77 122.86C655.21 122.9 656.03 123.76 656.11 124.7H658.63C658.43 122.32 656.55 120.92 653.89 120.92C651.05 120.92 649.11 122.44 649.11 124.88C649.11 130 656.49 127.82 656.49 131.18C656.49 132.36 655.59 133.22 653.99 133.22C652.41 133.22 651.61 132.3 651.51 131.16H649.07C649.07 133.62 651.21 135.14 653.99 135.14C657.09 135.14 658.79 133.14 658.79 131.06ZM660.72 129.48C660.72 132.94 662.96 135.18 666.12 135.18C668.82 135.18 670.58 133.68 671.2 131.52H668.74C668.32 132.66 667.48 133.26 666.12 133.26C664.28 133.26 663.06 131.9 663.06 129.48C663.06 127.08 664.28 125.72 666.12 125.72C667.48 125.72 668.36 126.4 668.74 127.46H671.2C670.58 125.14 668.82 123.8 666.12 123.8C662.96 123.8 660.72 126.04 660.72 129.48ZM673.473 135H675.753V123.98H673.473V135ZM674.633 122.52C675.433 122.52 676.073 121.88 676.073 121.06C676.073 120.24 675.433 119.6 674.633 119.6C673.813 119.6 673.173 120.24 673.173 121.06C673.173 121.88 673.813 122.52 674.633 122.52ZM683.386 125.72C685.086 125.72 686.426 126.8 686.466 128.5H680.366C680.606 126.76 681.846 125.72 683.386 125.72ZM688.546 131.72H686.086C685.666 132.58 684.886 133.26 683.486 133.26C681.806 133.26 680.506 132.16 680.346 130.34H688.766C688.826 129.96 688.846 129.6 688.846 129.22C688.846 125.98 686.626 123.8 683.486 123.8C680.226 123.8 677.986 126.02 677.986 129.48C677.986 132.94 680.326 135.18 683.486 135.18C686.186 135.18 687.926 133.64 688.546 131.72ZM698.91 135H701.17V128.5C701.17 125.42 699.23 123.8 696.65 123.8C695.33 123.8 694.11 124.34 693.37 125.24V123.98H691.09V135H693.37V128.84C693.37 126.82 694.47 125.78 696.15 125.78C697.81 125.78 698.91 126.82 698.91 128.84V135ZM703.318 129.48C703.318 132.94 705.558 135.18 708.718 135.18C711.418 135.18 713.178 133.68 713.798 131.52H711.338C710.918 132.66 710.078 133.26 708.718 133.26C706.878 133.26 705.658 131.9 705.658 129.48C705.658 127.08 706.878 125.72 708.718 125.72C710.078 125.72 710.958 126.4 711.338 127.46H713.798C713.178 125.14 711.418 123.8 708.718 123.8C705.558 123.8 703.318 126.04 703.318 129.48ZM720.71 125.72C722.41 125.72 723.75 126.8 723.79 128.5H717.69C717.93 126.76 719.17 125.72 720.71 125.72ZM725.87 131.72H723.41C722.99 132.58 722.21 133.26 720.81 133.26C719.13 133.26 717.83 132.16 717.67 130.34H726.09C726.15 129.96 726.17 129.6 726.17 129.22C726.17 125.98 723.95 123.8 720.81 123.8C717.55 123.8 715.31 126.02 715.31 129.48C715.31 132.94 717.65 135.18 720.81 135.18C723.51 135.18 725.25 133.64 725.87 131.72Z" fill="#212832"/>
<rect x="417.5" y="87.5" width="404" height="79" stroke="black" stroke-opacity="0.5"/>
<rect x="417" y="174" width="405" height="80" fill="white"/>
<path d="M481.713 222H483.993V212.48L488.253 222H489.833L494.073 212.48V222H496.353V208.1H493.913L489.053 219L484.173 208.1H481.713V222ZM498.59 215.02C498.59 219.2 501.77 222.12 505.69 222.12C508.59 222.12 511.09 220.68 512.15 217.96H509.41C508.67 219.44 507.35 220.14 505.69 220.14C502.93 220.14 500.93 218.16 500.93 215.02C500.93 211.88 502.93 209.92 505.69 209.92C507.35 209.92 508.67 210.62 509.41 212.1H512.15C511.09 209.38 508.59 207.92 505.69 207.92C501.77 207.92 498.59 210.86 498.59 215.02ZM524.198 222H526.598L521.618 208.08H518.978L513.998 222H516.378L517.378 219.16H523.198L524.198 222ZM522.558 217.3H518.018L520.298 210.84L522.558 217.3ZM533.959 222H536.239V208.1H533.959V222ZM547.052 222H549.312V215.5C549.312 212.42 547.372 210.8 544.792 210.8C543.472 210.8 542.252 211.34 541.512 212.24V210.98H539.232V222H541.512V215.84C541.512 213.82 542.612 212.78 544.292 212.78C545.952 212.78 547.052 213.82 547.052 215.84V222ZM563.756 207.92C559.836 207.92 556.656 210.86 556.656 215.02C556.656 219.2 559.836 222.12 563.756 222.12C567.496 222.12 570.216 219.38 570.636 216.16V214.38H562.976V216.2H568.196C567.856 218.54 566.276 220.06 563.756 220.06C560.996 220.06 558.996 218.08 558.996 215.02C558.996 211.96 560.996 210 563.756 210C565.416 210 566.736 210.7 567.476 212.1H570.216C569.156 209.38 566.656 207.92 563.756 207.92ZM572.125 216.44C572.125 219.84 574.425 222.18 577.285 222.18C579.125 222.18 580.445 221.3 581.145 220.36V222H583.445V210.98H581.145V212.58C580.465 211.68 579.185 210.8 577.325 210.8C574.425 210.8 572.125 213.04 572.125 216.44ZM581.145 216.48C581.145 218.86 579.525 220.2 577.805 220.2C576.105 220.2 574.465 218.82 574.465 216.44C574.465 214.06 576.105 212.78 577.805 212.78C579.525 212.78 581.145 214.12 581.145 216.48ZM602.059 222H604.319V215.5C604.319 212.42 602.359 210.8 599.779 210.8C598.179 210.8 596.619 211.64 595.939 212.98C595.179 211.54 593.719 210.8 591.979 210.8C590.659 210.8 589.459 211.34 588.719 212.24V210.98H586.439V222H588.719V215.84C588.719 213.82 589.819 212.78 591.499 212.78C593.159 212.78 594.259 213.82 594.259 215.84V222H596.519V215.84C596.519 213.82 597.619 212.78 599.299 212.78C600.959 212.78 602.059 213.82 602.059 215.84V222ZM611.861 212.72C613.561 212.72 614.901 213.8 614.941 215.5H608.841C609.081 213.76 610.321 212.72 611.861 212.72ZM617.021 218.72H614.561C614.141 219.58 613.361 220.26 611.961 220.26C610.281 220.26 608.981 219.16 608.821 217.34H617.241C617.301 216.96 617.321 216.6 617.321 216.22C617.321 212.98 615.101 210.8 611.961 210.8C608.701 210.8 606.461 213.02 606.461 216.48C606.461 219.94 608.801 222.18 611.961 222.18C614.661 222.18 616.401 220.64 617.021 218.72ZM629.3 208.1H624.76V222H629.3C633.76 222 636.68 219.38 636.68 215.1C636.68 210.8 633.76 208.1 629.3 208.1ZM627.04 220.14V209.96H629.3C632.58 209.96 634.34 211.92 634.34 215.1C634.34 218.26 632.58 220.14 629.3 220.14H627.04ZM643.579 212.72C645.279 212.72 646.619 213.8 646.659 215.5H640.559C640.799 213.76 642.039 212.72 643.579 212.72ZM648.739 218.72H646.279C645.859 219.58 645.079 220.26 643.679 220.26C641.999 220.26 640.699 219.16 640.539 217.34H648.959C649.019 216.96 649.039 216.6 649.039 216.22C649.039 212.98 646.819 210.8 643.679 210.8C640.419 210.8 638.179 213.02 638.179 216.48C638.179 219.94 640.519 222.18 643.679 222.18C646.379 222.18 648.119 220.64 648.739 218.72ZM649.983 210.98L654.163 222H656.883L661.083 210.98H658.663L655.543 219.96L652.423 210.98H649.983ZM667.447 212.72C669.147 212.72 670.487 213.8 670.527 215.5H664.427C664.667 213.76 665.907 212.72 667.447 212.72ZM672.607 218.72H670.147C669.727 219.58 668.947 220.26 667.547 220.26C665.867 220.26 664.567 219.16 664.407 217.34H672.827C672.887 216.96 672.907 216.6 672.907 216.22C672.907 212.98 670.687 210.8 667.547 210.8C664.287 210.8 662.047 213.02 662.047 216.48C662.047 219.94 664.387 222.18 667.547 222.18C670.247 222.18 671.987 220.64 672.607 218.72ZM675.15 222H677.43V207.2H675.15V222ZM690.924 216.48C690.924 213.02 688.444 210.8 685.304 210.8C682.164 210.8 679.684 213.02 679.684 216.48C679.684 219.94 682.064 222.18 685.204 222.18C688.364 222.18 690.924 219.94 690.924 216.48ZM682.004 216.48C682.004 213.98 683.544 212.78 685.264 212.78C686.964 212.78 688.584 213.98 688.584 216.48C688.584 218.98 686.904 220.2 685.204 220.2C683.484 220.2 682.004 218.98 682.004 216.48ZM695.458 212.6V210.98H693.178V227.24H695.458V220.4C696.178 221.26 697.478 222.18 699.298 222.18C702.198 222.18 704.478 219.84 704.478 216.44C704.478 213.04 702.198 210.8 699.298 210.8C697.498 210.8 696.158 211.68 695.458 212.6ZM702.158 216.44C702.158 218.82 700.518 220.2 698.798 220.2C697.098 220.2 695.458 218.86 695.458 216.48C695.458 214.12 697.098 212.78 698.798 212.78C700.518 212.78 702.158 214.06 702.158 216.44ZM722.352 222H724.612V215.5C724.612 212.42 722.652 210.8 720.072 210.8C718.472 210.8 716.912 211.64 716.232 212.98C715.472 211.54 714.012 210.8 712.272 210.8C710.952 210.8 709.752 211.34 709.012 212.24V210.98H706.732V222H709.012V215.84C709.012 213.82 710.112 212.78 711.792 212.78C713.452 212.78 714.552 213.82 714.552 215.84V222H716.812V215.84C716.812 213.82 717.912 212.78 719.592 212.78C721.252 212.78 722.352 213.82 722.352 215.84V222ZM732.154 212.72C733.854 212.72 735.194 213.8 735.234 215.5H729.134C729.374 213.76 730.614 212.72 732.154 212.72ZM737.314 218.72H734.854C734.434 219.58 733.654 220.26 732.254 220.26C730.574 220.26 729.274 219.16 729.114 217.34H737.534C737.594 216.96 737.614 216.6 737.614 216.22C737.614 212.98 735.394 210.8 732.254 210.8C728.994 210.8 726.754 213.02 726.754 216.48C726.754 219.94 729.094 222.18 732.254 222.18C734.954 222.18 736.694 220.64 737.314 218.72ZM747.677 222H749.937V215.5C749.937 212.42 747.997 210.8 745.417 210.8C744.097 210.8 742.877 211.34 742.137 212.24V210.98H739.857V222H742.137V215.84C742.137 213.82 743.237 212.78 744.917 212.78C746.577 212.78 747.677 213.82 747.677 215.84V222ZM753.206 218.94C753.206 221.18 754.426 222 756.386 222H758.186V220.1H756.786C755.826 220.1 755.506 219.76 755.506 218.94V212.84H758.186V210.98H755.506V208.24H753.206V210.98H751.906V212.84H753.206V218.94Z" fill="#212832"/>
<rect x="417.5" y="174.5" width="404" height="79" stroke="black" stroke-opacity="0.5"/>
</svg>
