<svg width="1226" height="124" viewBox="0 0 1226 124" fill="none" xmlns="http://www.w3.org/2000/svg">
<g filter="url(#filter0_d_1129_3)">
<rect x="24" y="1" width="365" height="47" fill="white" shape-rendering="crispEdges"/>
<rect x="23.7658" y="0.765849" width="365.468" height="47.4683" stroke="black" stroke-opacity="0.2" stroke-width="0.468302" shape-rendering="crispEdges"/>
</g>
<path d="M138.512 23.574C139.184 23.694 139.754 24.048 140.222 24.636C140.69 25.224 140.924 25.89 140.924 26.634C140.924 27.27 140.756 27.846 140.42 28.362C140.096 28.866 139.622 29.268 138.998 29.568C138.374 29.856 137.648 30 136.82 30H131.816V17.49H136.586C137.438 17.49 138.17 17.634 138.782 17.922C139.394 18.21 139.856 18.6 140.168 19.092C140.48 19.572 140.636 20.112 140.636 20.712C140.636 21.432 140.444 22.032 140.06 22.512C139.676 22.992 139.16 23.346 138.512 23.574ZM133.868 22.746H136.406C137.078 22.746 137.6 22.596 137.972 22.296C138.356 21.984 138.548 21.54 138.548 20.964C138.548 20.4 138.356 19.962 137.972 19.65C137.6 19.326 137.078 19.164 136.406 19.164H133.868V22.746ZM136.64 28.326C137.336 28.326 137.882 28.158 138.278 27.822C138.674 27.486 138.872 27.018 138.872 26.418C138.872 25.806 138.662 25.32 138.242 24.96C137.822 24.6 137.264 24.42 136.568 24.42H133.868V28.326H136.64ZM152.136 20.082V30H150.084V28.83C149.76 29.238 149.334 29.562 148.806 29.802C148.29 30.03 147.738 30.144 147.15 30.144C146.37 30.144 145.668 29.982 145.044 29.658C144.432 29.334 143.946 28.854 143.586 28.218C143.238 27.582 143.064 26.814 143.064 25.914V20.082H145.098V25.608C145.098 26.496 145.32 27.18 145.764 27.66C146.208 28.128 146.814 28.362 147.582 28.362C148.35 28.362 148.956 28.128 149.4 27.66C149.856 27.18 150.084 26.496 150.084 25.608V20.082H152.136ZM158.443 30.162C157.663 30.162 156.961 30.024 156.337 29.748C155.725 29.46 155.239 29.076 154.879 28.596C154.519 28.104 154.327 27.558 154.303 26.958H156.427C156.463 27.378 156.661 27.732 157.021 28.02C157.393 28.296 157.855 28.434 158.407 28.434C158.983 28.434 159.427 28.326 159.739 28.11C160.063 27.882 160.225 27.594 160.225 27.246C160.225 26.874 160.045 26.598 159.685 26.418C159.337 26.238 158.779 26.04 158.011 25.824C157.267 25.62 156.661 25.422 156.193 25.23C155.725 25.038 155.317 24.744 154.969 24.348C154.633 23.952 154.465 23.43 154.465 22.782C154.465 22.254 154.621 21.774 154.933 21.342C155.245 20.898 155.689 20.55 156.265 20.298C156.853 20.046 157.525 19.92 158.281 19.92C159.409 19.92 160.315 20.208 160.999 20.784C161.695 21.348 162.067 22.122 162.115 23.106H160.063C160.027 22.662 159.847 22.308 159.523 22.044C159.199 21.78 158.761 21.648 158.209 21.648C157.669 21.648 157.255 21.75 156.967 21.954C156.679 22.158 156.535 22.428 156.535 22.764C156.535 23.028 156.631 23.25 156.823 23.43C157.015 23.61 157.249 23.754 157.525 23.862C157.801 23.958 158.209 24.084 158.749 24.24C159.469 24.432 160.057 24.63 160.513 24.834C160.981 25.026 161.383 25.314 161.719 25.698C162.055 26.082 162.229 26.592 162.241 27.228C162.241 27.792 162.085 28.296 161.773 28.74C161.461 29.184 161.017 29.532 160.441 29.784C159.877 30.036 159.211 30.162 158.443 30.162ZM165.502 18.768C165.13 18.768 164.818 18.642 164.566 18.39C164.314 18.138 164.188 17.826 164.188 17.454C164.188 17.082 164.314 16.77 164.566 16.518C164.818 16.266 165.13 16.14 165.502 16.14C165.862 16.14 166.168 16.266 166.42 16.518C166.672 16.77 166.798 17.082 166.798 17.454C166.798 17.826 166.672 18.138 166.42 18.39C166.168 18.642 165.862 18.768 165.502 18.768ZM166.51 20.082V30H164.458V20.082H166.51ZM174.208 19.92C174.988 19.92 175.684 20.082 176.296 20.406C176.92 20.73 177.406 21.21 177.754 21.846C178.102 22.482 178.276 23.25 178.276 24.15V30H176.242V24.456C176.242 23.568 176.02 22.89 175.576 22.422C175.132 21.942 174.526 21.702 173.758 21.702C172.99 21.702 172.378 21.942 171.922 22.422C171.478 22.89 171.256 23.568 171.256 24.456V30H169.204V20.082H171.256V21.216C171.592 20.808 172.018 20.49 172.534 20.262C173.062 20.034 173.62 19.92 174.208 19.92ZM189.984 24.798C189.984 25.17 189.96 25.506 189.912 25.806H182.334C182.394 26.598 182.688 27.234 183.216 27.714C183.744 28.194 184.392 28.434 185.16 28.434C186.264 28.434 187.044 27.972 187.5 27.048H189.714C189.414 27.96 188.868 28.71 188.076 29.298C187.296 29.874 186.324 30.162 185.16 30.162C184.212 30.162 183.36 29.952 182.604 29.532C181.86 29.1 181.272 28.5 180.84 27.732C180.42 26.952 180.21 26.052 180.21 25.032C180.21 24.012 180.414 23.118 180.822 22.35C181.242 21.57 181.824 20.97 182.568 20.55C183.324 20.13 184.188 19.92 185.16 19.92C186.096 19.92 186.93 20.124 187.662 20.532C188.394 20.94 188.964 21.516 189.372 22.26C189.78 22.992 189.984 23.838 189.984 24.798ZM187.842 24.15C187.83 23.394 187.56 22.788 187.032 22.332C186.504 21.876 185.85 21.648 185.07 21.648C184.362 21.648 183.756 21.876 183.252 22.332C182.748 22.776 182.448 23.382 182.352 24.15H187.842ZM195.603 30.162C194.823 30.162 194.121 30.024 193.497 29.748C192.885 29.46 192.399 29.076 192.039 28.596C191.679 28.104 191.487 27.558 191.463 26.958H193.587C193.623 27.378 193.821 27.732 194.181 28.02C194.553 28.296 195.015 28.434 195.567 28.434C196.143 28.434 196.587 28.326 196.899 28.11C197.223 27.882 197.385 27.594 197.385 27.246C197.385 26.874 197.205 26.598 196.845 26.418C196.497 26.238 195.939 26.04 195.171 25.824C194.427 25.62 193.821 25.422 193.353 25.23C192.885 25.038 192.477 24.744 192.129 24.348C191.793 23.952 191.625 23.43 191.625 22.782C191.625 22.254 191.781 21.774 192.093 21.342C192.405 20.898 192.849 20.55 193.425 20.298C194.013 20.046 194.685 19.92 195.441 19.92C196.569 19.92 197.475 20.208 198.159 20.784C198.855 21.348 199.227 22.122 199.275 23.106H197.223C197.187 22.662 197.007 22.308 196.683 22.044C196.359 21.78 195.921 21.648 195.369 21.648C194.829 21.648 194.415 21.75 194.127 21.954C193.839 22.158 193.695 22.428 193.695 22.764C193.695 23.028 193.791 23.25 193.983 23.43C194.175 23.61 194.409 23.754 194.685 23.862C194.961 23.958 195.369 24.084 195.909 24.24C196.629 24.432 197.217 24.63 197.673 24.834C198.141 25.026 198.543 25.314 198.879 25.698C199.215 26.082 199.389 26.592 199.401 27.228C199.401 27.792 199.245 28.296 198.933 28.74C198.621 29.184 198.177 29.532 197.601 29.784C197.037 30.036 196.371 30.162 195.603 30.162ZM205.219 30.162C204.439 30.162 203.737 30.024 203.113 29.748C202.501 29.46 202.015 29.076 201.655 28.596C201.295 28.104 201.103 27.558 201.079 26.958H203.203C203.239 27.378 203.437 27.732 203.797 28.02C204.169 28.296 204.631 28.434 205.183 28.434C205.759 28.434 206.203 28.326 206.515 28.11C206.839 27.882 207.001 27.594 207.001 27.246C207.001 26.874 206.821 26.598 206.461 26.418C206.113 26.238 205.555 26.04 204.787 25.824C204.043 25.62 203.437 25.422 202.969 25.23C202.501 25.038 202.093 24.744 201.745 24.348C201.409 23.952 201.241 23.43 201.241 22.782C201.241 22.254 201.397 21.774 201.709 21.342C202.021 20.898 202.465 20.55 203.041 20.298C203.629 20.046 204.301 19.92 205.057 19.92C206.185 19.92 207.091 20.208 207.775 20.784C208.471 21.348 208.843 22.122 208.891 23.106H206.839C206.803 22.662 206.623 22.308 206.299 22.044C205.975 21.78 205.537 21.648 204.985 21.648C204.445 21.648 204.031 21.75 203.743 21.954C203.455 22.158 203.311 22.428 203.311 22.764C203.311 23.028 203.407 23.25 203.599 23.43C203.791 23.61 204.025 23.754 204.301 23.862C204.577 23.958 204.985 24.084 205.525 24.24C206.245 24.432 206.833 24.63 207.289 24.834C207.757 25.026 208.159 25.314 208.495 25.698C208.831 26.082 209.005 26.592 209.017 27.228C209.017 27.792 208.861 28.296 208.549 28.74C208.237 29.184 207.793 29.532 207.217 29.784C206.653 30.036 205.987 30.162 205.219 30.162ZM223.452 27.444H218.214L217.314 30H215.172L219.654 17.472H222.03L226.512 30H224.352L223.452 27.444ZM222.876 25.77L220.842 19.956L218.79 25.77H222.876ZM233.464 19.92C234.244 19.92 234.94 20.082 235.552 20.406C236.176 20.73 236.662 21.21 237.01 21.846C237.358 22.482 237.532 23.25 237.532 24.15V30H235.498V24.456C235.498 23.568 235.276 22.89 234.832 22.422C234.388 21.942 233.782 21.702 233.014 21.702C232.246 21.702 231.634 21.942 231.178 22.422C230.734 22.89 230.512 23.568 230.512 24.456V30H228.46V20.082H230.512V21.216C230.848 20.808 231.274 20.49 231.79 20.262C232.318 20.034 232.876 19.92 233.464 19.92ZM239.466 24.996C239.466 24 239.67 23.118 240.078 22.35C240.498 21.582 241.062 20.988 241.77 20.568C242.49 20.136 243.282 19.92 244.146 19.92C244.926 19.92 245.604 20.076 246.18 20.388C246.768 20.688 247.236 21.066 247.584 21.522V20.082H249.654V30H247.584V28.524C247.236 28.992 246.762 29.382 246.162 29.694C245.562 30.006 244.878 30.162 244.11 30.162C243.258 30.162 242.478 29.946 241.77 29.514C241.062 29.07 240.498 28.458 240.078 27.678C239.67 26.886 239.466 25.992 239.466 24.996ZM247.584 25.032C247.584 24.348 247.44 23.754 247.152 23.25C246.876 22.746 246.51 22.362 246.054 22.098C245.598 21.834 245.106 21.702 244.578 21.702C244.05 21.702 243.558 21.834 243.102 22.098C242.646 22.35 242.274 22.728 241.986 23.232C241.71 23.724 241.572 24.312 241.572 24.996C241.572 25.68 241.71 26.28 241.986 26.796C242.274 27.312 242.646 27.708 243.102 27.984C243.57 28.248 244.062 28.38 244.578 28.38C245.106 28.38 245.598 28.248 246.054 27.984C246.51 27.72 246.876 27.336 247.152 26.832C247.44 26.316 247.584 25.716 247.584 25.032ZM254.401 16.68V30H252.349V16.68H254.401ZM266.023 20.082L259.939 34.662H257.815L259.831 29.838L255.925 20.082H258.211L261.001 27.642L263.899 20.082H266.023ZM271.172 30.162C270.392 30.162 269.69 30.024 269.066 29.748C268.454 29.46 267.968 29.076 267.608 28.596C267.248 28.104 267.056 27.558 267.032 26.958H269.156C269.192 27.378 269.39 27.732 269.75 28.02C270.122 28.296 270.584 28.434 271.136 28.434C271.712 28.434 272.156 28.326 272.468 28.11C272.792 27.882 272.954 27.594 272.954 27.246C272.954 26.874 272.774 26.598 272.414 26.418C272.066 26.238 271.508 26.04 270.74 25.824C269.996 25.62 269.39 25.422 268.922 25.23C268.454 25.038 268.046 24.744 267.698 24.348C267.362 23.952 267.194 23.43 267.194 22.782C267.194 22.254 267.35 21.774 267.662 21.342C267.974 20.898 268.418 20.55 268.994 20.298C269.582 20.046 270.254 19.92 271.01 19.92C272.138 19.92 273.044 20.208 273.728 20.784C274.424 21.348 274.796 22.122 274.844 23.106H272.792C272.756 22.662 272.576 22.308 272.252 22.044C271.928 21.78 271.49 21.648 270.938 21.648C270.398 21.648 269.984 21.75 269.696 21.954C269.408 22.158 269.264 22.428 269.264 22.764C269.264 23.028 269.36 23.25 269.552 23.43C269.744 23.61 269.978 23.754 270.254 23.862C270.53 23.958 270.938 24.084 271.478 24.24C272.198 24.432 272.786 24.63 273.242 24.834C273.71 25.026 274.112 25.314 274.448 25.698C274.784 26.082 274.958 26.592 274.97 27.228C274.97 27.792 274.814 28.296 274.502 28.74C274.19 29.184 273.746 29.532 273.17 29.784C272.606 30.036 271.94 30.162 271.172 30.162ZM279.581 21.756V27.246C279.581 27.618 279.665 27.888 279.833 28.056C280.013 28.212 280.313 28.29 280.733 28.29H281.993V30H280.373C279.449 30 278.741 29.784 278.249 29.352C277.757 28.92 277.511 28.218 277.511 27.246V21.756H276.341V20.082H277.511V17.616H279.581V20.082H281.993V21.756H279.581Z" fill="#212832"/>
<path d="M389 1H387V48H389V1Z" fill="#946FB0" stroke="#946FB0" stroke-width="0.936604"/>
<circle cx="24.4151" cy="24.4151" r="23.4151" fill="#946FB0" stroke="#946FB0"/>
<path d="M16.3494 23.9942C16.3494 27.9654 17.3983 30.9625 21.2197 30.9625C25.041 30.9625 26.09 27.9654 26.09 23.9942C26.09 20.0979 25.041 17.1008 21.2197 17.1008C17.3983 17.1008 16.3494 20.0979 16.3494 23.9942ZM23.992 23.9942C23.992 26.6729 23.7111 29.0144 21.2197 29.0144C18.7283 29.0144 18.4473 26.6729 18.4473 23.9942C18.4473 21.4466 18.7283 19.0489 21.2197 19.0489C23.7111 19.0489 23.992 21.4466 23.992 23.9942ZM29.8107 31H31.9649V17.3443H28.0686V19.2925H29.8107V31Z" fill="#212832"/>
<g filter="url(#filter1_d_1129_3)">
<rect x="24" y="76" width="365" height="47" fill="white" shape-rendering="crispEdges"/>
<rect x="23.7658" y="75.7658" width="365.468" height="47.4683" stroke="black" stroke-opacity="0.2" stroke-width="0.468302" shape-rendering="crispEdges"/>
</g>
<path d="M154.182 93.49H150.096V106H154.182C158.196 106 160.824 103.642 160.824 99.79C160.824 95.92 158.196 93.49 154.182 93.49ZM152.148 104.326V95.164H154.182C157.134 95.164 158.718 96.928 158.718 99.79C158.718 102.634 157.134 104.326 154.182 104.326H152.148ZM162.174 100.996C162.174 104.056 164.244 106.162 166.818 106.162C168.474 106.162 169.662 105.37 170.292 104.524V106H172.362V96.082H170.292V97.522C169.68 96.712 168.528 95.92 166.854 95.92C164.244 95.92 162.174 97.936 162.174 100.996ZM170.292 101.032C170.292 103.174 168.834 104.38 167.286 104.38C165.756 104.38 164.28 103.138 164.28 100.996C164.28 98.854 165.756 97.702 167.286 97.702C168.834 97.702 170.292 98.908 170.292 101.032ZM175.381 103.246C175.381 105.262 176.479 106 178.243 106H179.863V104.29H178.603C177.739 104.29 177.451 103.984 177.451 103.246V97.756H179.863V96.082H177.451V93.616H175.381V96.082H174.211V97.756H175.381V103.246ZM181.07 100.996C181.07 104.056 183.14 106.162 185.714 106.162C187.37 106.162 188.558 105.37 189.188 104.524V106H191.258V96.082H189.188V97.522C188.576 96.712 187.424 95.92 185.75 95.92C183.14 95.92 181.07 97.936 181.07 100.996ZM189.188 101.032C189.188 103.174 187.73 104.38 186.182 104.38C184.652 104.38 183.176 103.138 183.176 100.996C183.176 98.854 184.652 97.702 186.182 97.702C187.73 97.702 189.188 98.908 189.188 101.032ZM207.071 106H209.231L204.749 93.472H202.373L197.891 106H200.033L200.933 103.444H206.171L207.071 106ZM205.595 101.77H201.509L203.561 95.956L205.595 101.77ZM218.218 106H220.252V100.15C220.252 97.378 218.506 95.92 216.184 95.92C214.996 95.92 213.898 96.406 213.232 97.216V96.082H211.18V106H213.232V100.456C213.232 98.638 214.222 97.702 215.734 97.702C217.228 97.702 218.218 98.638 218.218 100.456V106ZM222.186 100.996C222.186 104.056 224.256 106.162 226.83 106.162C228.486 106.162 229.674 105.37 230.304 104.524V106H232.374V96.082H230.304V97.522C229.692 96.712 228.54 95.92 226.866 95.92C224.256 95.92 222.186 97.936 222.186 100.996ZM230.304 101.032C230.304 103.174 228.846 104.38 227.298 104.38C225.768 104.38 224.292 103.138 224.292 100.996C224.292 98.854 225.768 97.702 227.298 97.702C228.846 97.702 230.304 98.908 230.304 101.032ZM235.069 106H237.121V92.68H235.069V106ZM243.721 103.642L240.931 96.082H238.645L242.551 105.838L240.535 110.662H242.659L248.743 96.082H246.619L243.721 103.642ZM257.689 103.228C257.581 99.646 251.983 100.762 251.983 98.764C251.983 98.098 252.559 97.648 253.657 97.648C254.773 97.648 255.439 98.242 255.511 99.106H257.563C257.455 97.126 255.979 95.92 253.729 95.92C251.389 95.92 249.913 97.198 249.913 98.782C249.913 102.418 255.673 101.302 255.673 103.246C255.673 103.93 255.043 104.434 253.855 104.434C252.721 104.434 251.947 103.768 251.875 102.958H249.751C249.841 104.758 251.515 106.162 253.891 106.162C256.231 106.162 257.689 104.902 257.689 103.228ZM260.231 103.246C260.231 105.262 261.329 106 263.093 106H264.713V104.29H263.453C262.589 104.29 262.301 103.984 262.301 103.246V97.756H264.713V96.082H262.301V93.616H260.231V96.082H259.061V97.756H260.231V103.246Z" fill="#212832"/>
<path d="M389 76H387V123H389V76Z" fill="#CF1C54" stroke="#CF1C54" stroke-width="0.936604"/>
<circle cx="24.4151" cy="99.4151" r="23.4151" fill="#E9336C" stroke="#E9336C"/>
<path d="M13.4777 99.6055C13.4777 103.577 14.5267 106.574 18.348 106.574C22.1694 106.574 23.2184 103.577 23.2184 99.6055C23.2184 95.7093 22.1694 92.7121 18.348 92.7121C14.5267 92.7121 13.4777 95.7093 13.4777 99.6055ZM21.1204 99.6055C21.1204 102.284 20.8394 104.626 18.348 104.626C15.8567 104.626 15.5757 102.284 15.5757 99.6055C15.5757 97.058 15.8567 94.6603 18.348 94.6603C20.8394 94.6603 21.1204 97.058 21.1204 99.6055ZM31.9967 106.611H34.0947V103.764H35.8368V101.91H34.0947V93.1242H31.5097L25.2157 102.153V103.764H31.9967V106.611ZM27.6696 101.91L32.0904 95.2972V101.91H27.6696Z" fill="#212832"/>
<g filter="url(#filter2_d_1129_3)">
<rect x="437" y="1" width="365" height="47" fill="white" shape-rendering="crispEdges"/>
<rect x="436.766" y="0.765849" width="365.468" height="47.4683" stroke="black" stroke-opacity="0.2" stroke-width="0.468302" shape-rendering="crispEdges"/>
</g>
<path d="M802 1H800V48H802V1Z" fill="#A9CF54" stroke="#A9CF54" stroke-width="0.936604"/>
<path d="M541.515 26.454C541.515 21.882 534.891 23.646 534.891 20.82C534.891 19.614 535.809 19.038 536.997 19.074C538.293 19.11 539.031 19.884 539.103 20.73H541.371C541.191 18.588 539.499 17.328 537.105 17.328C534.549 17.328 532.803 18.696 532.803 20.892C532.803 25.5 539.445 23.538 539.445 26.562C539.445 27.624 538.635 28.398 537.195 28.398C535.773 28.398 535.053 27.57 534.963 26.544H532.767C532.767 28.758 534.693 30.126 537.195 30.126C539.985 30.126 541.515 28.326 541.515 26.454ZM553.386 25.032C553.386 21.918 551.154 19.92 548.328 19.92C545.502 19.92 543.27 21.918 543.27 25.032C543.27 28.146 545.412 30.162 548.238 30.162C551.082 30.162 553.386 28.146 553.386 25.032ZM545.358 25.032C545.358 22.782 546.744 21.702 548.292 21.702C549.822 21.702 551.28 22.782 551.28 25.032C551.28 27.282 549.768 28.38 548.238 28.38C546.69 28.38 545.358 27.282 545.358 25.032ZM555.666 30H557.736V21.756H559.572V20.082H557.736V19.38C557.736 18.246 558.168 17.814 559.428 17.814V16.104C556.836 16.104 555.666 17.094 555.666 19.38V20.082H554.496V21.756H555.666V30ZM561.715 27.246C561.715 29.262 562.813 30 564.577 30H566.197V28.29H564.937C564.073 28.29 563.785 27.984 563.785 27.246V21.756H566.197V20.082H563.785V17.616H561.715V20.082H560.545V21.756H561.715V27.246ZM570.014 30H572.174L574.172 22.674L576.17 30H578.33L581.408 20.082H579.392L577.34 28.02L575.324 20.082H573.182L571.076 28.056L569.006 20.082H566.918L570.014 30ZM582.258 24.996C582.258 28.056 584.328 30.162 586.902 30.162C588.558 30.162 589.746 29.37 590.376 28.524V30H592.446V20.082H590.376V21.522C589.764 20.712 588.612 19.92 586.938 19.92C584.328 19.92 582.258 21.936 582.258 24.996ZM590.376 25.032C590.376 27.174 588.918 28.38 587.37 28.38C585.84 28.38 584.364 27.138 584.364 24.996C584.364 22.854 585.84 21.702 587.37 21.702C588.918 21.702 590.376 22.908 590.376 25.032ZM597.193 24.78C597.193 22.674 598.129 22.044 599.641 22.044H600.163V19.92C598.759 19.92 597.769 20.532 597.193 21.522V20.082H595.141V30H597.193V24.78ZM606.225 21.648C607.755 21.648 608.961 22.62 608.997 24.15H603.507C603.723 22.584 604.839 21.648 606.225 21.648ZM610.869 27.048H608.655C608.277 27.822 607.575 28.434 606.315 28.434C604.803 28.434 603.633 27.444 603.489 25.806H611.067C611.121 25.464 611.139 25.14 611.139 24.798C611.139 21.882 609.141 19.92 606.315 19.92C603.381 19.92 601.365 21.918 601.365 25.032C601.365 28.146 603.471 30.162 606.315 30.162C608.745 30.162 610.311 28.776 610.869 27.048ZM621.92 17.49H617.834V30H621.92C625.934 30 628.562 27.642 628.562 23.79C628.562 19.92 625.934 17.49 621.92 17.49ZM619.886 28.326V19.164H621.92C624.872 19.164 626.456 20.928 626.456 23.79C626.456 26.634 624.872 28.326 621.92 28.326H619.886ZM634.772 21.648C636.302 21.648 637.508 22.62 637.544 24.15H632.054C632.27 22.584 633.386 21.648 634.772 21.648ZM639.416 27.048H637.202C636.824 27.822 636.122 28.434 634.862 28.434C633.35 28.434 632.18 27.444 632.036 25.806H639.614C639.668 25.464 639.686 25.14 639.686 24.798C639.686 21.882 637.688 19.92 634.862 19.92C631.928 19.92 629.912 21.918 629.912 25.032C629.912 28.146 632.018 30.162 634.862 30.162C637.292 30.162 638.858 28.776 639.416 27.048ZM640.535 20.082L644.297 30H646.745L650.525 20.082H648.347L645.539 28.164L642.731 20.082H640.535ZM656.253 21.648C657.783 21.648 658.989 22.62 659.025 24.15H653.535C653.751 22.584 654.867 21.648 656.253 21.648ZM660.897 27.048H658.683C658.305 27.822 657.603 28.434 656.343 28.434C654.831 28.434 653.661 27.444 653.517 25.806H661.095C661.149 25.464 661.167 25.14 661.167 24.798C661.167 21.882 659.169 19.92 656.343 19.92C653.409 19.92 651.393 21.918 651.393 25.032C651.393 28.146 653.499 30.162 656.343 30.162C658.773 30.162 660.339 28.776 660.897 27.048ZM663.186 30H665.238V16.68H663.186V30ZM677.382 25.032C677.382 21.918 675.15 19.92 672.324 19.92C669.498 19.92 667.266 21.918 667.266 25.032C667.266 28.146 669.408 30.162 672.234 30.162C675.078 30.162 677.382 28.146 677.382 25.032ZM669.354 25.032C669.354 22.782 670.74 21.702 672.288 21.702C673.818 21.702 675.276 22.782 675.276 25.032C675.276 27.282 673.764 28.38 672.234 28.38C670.686 28.38 669.354 27.282 669.354 25.032ZM681.463 21.54V20.082H679.411V34.716H681.463V28.56C682.111 29.334 683.281 30.162 684.919 30.162C687.529 30.162 689.581 28.056 689.581 24.996C689.581 21.936 687.529 19.92 684.919 19.92C683.299 19.92 682.093 20.712 681.463 21.54ZM687.493 24.996C687.493 27.138 686.017 28.38 684.469 28.38C682.939 28.38 681.463 27.174 681.463 25.032C681.463 22.908 682.939 21.702 684.469 21.702C686.017 21.702 687.493 22.854 687.493 24.996ZM695.786 21.648C697.316 21.648 698.522 22.62 698.558 24.15H693.068C693.284 22.584 694.4 21.648 695.786 21.648ZM700.43 27.048H698.216C697.838 27.822 697.136 28.434 695.876 28.434C694.364 28.434 693.194 27.444 693.05 25.806H700.628C700.682 25.464 700.7 25.14 700.7 24.798C700.7 21.882 698.702 19.92 695.876 19.92C692.942 19.92 690.926 21.918 690.926 25.032C690.926 28.146 693.032 30.162 695.876 30.162C698.306 30.162 699.872 28.776 700.43 27.048ZM704.771 24.78C704.771 22.674 705.707 22.044 707.219 22.044H707.741V19.92C706.337 19.92 705.347 20.532 704.771 21.522V20.082H702.719V30H704.771V24.78Z" fill="#212832"/>
<circle cx="436.415" cy="24.4151" r="23.4151" fill="#A9CF54" stroke="#A9CF54"/>
<path d="M426.136 24.17C426.136 28.1412 427.185 31.1383 431.007 31.1383C434.828 31.1383 435.877 28.1412 435.877 24.17C435.877 20.2737 434.828 17.2766 431.007 17.2766C427.185 17.2766 426.136 20.2737 426.136 24.17ZM433.779 24.17C433.779 26.8487 433.498 29.1902 431.007 29.1902C428.515 29.1902 428.234 26.8487 428.234 24.17C428.234 21.6224 428.515 19.2247 431.007 19.2247C433.498 19.2247 433.779 21.6224 433.779 24.17ZM437.968 30.9885H447.072V29.2089H441.134C443.325 27.2046 446.697 24.6758 446.697 21.3602C446.697 18.9063 445.124 17.2391 442.351 17.2391C439.935 17.2391 438.024 18.6815 437.949 21.6412H440.01C440.066 20.1051 440.871 19.0561 442.37 19.0561C443.962 19.0561 444.58 20.0302 444.58 21.4538C444.58 24.1325 441.19 26.6052 437.968 29.4337V30.9885Z" fill="#212832"/>
<g filter="url(#filter3_d_1129_3)">
<rect x="860" y="1" width="365" height="47" fill="white" shape-rendering="crispEdges"/>
<rect x="859.766" y="0.765849" width="365.468" height="47.4683" stroke="black" stroke-opacity="0.2" stroke-width="0.468302" shape-rendering="crispEdges"/>
</g>
<path d="M1225 1H1223V48H1225V1Z" fill="#3498DB" stroke="#3498DB" stroke-width="0.936604"/>
<path d="M964.515 26.454C964.515 21.882 957.891 23.646 957.891 20.82C957.891 19.614 958.809 19.038 959.997 19.074C961.293 19.11 962.031 19.884 962.103 20.73H964.371C964.191 18.588 962.499 17.328 960.105 17.328C957.549 17.328 955.803 18.696 955.803 20.892C955.803 25.5 962.445 23.538 962.445 26.562C962.445 27.624 961.635 28.398 960.195 28.398C958.773 28.398 958.053 27.57 957.963 26.544H955.767C955.767 28.758 957.693 30.126 960.195 30.126C962.985 30.126 964.515 28.326 964.515 26.454ZM976.386 25.032C976.386 21.918 974.154 19.92 971.328 19.92C968.502 19.92 966.27 21.918 966.27 25.032C966.27 28.146 968.412 30.162 971.238 30.162C974.082 30.162 976.386 28.146 976.386 25.032ZM968.358 25.032C968.358 22.782 969.744 21.702 971.292 21.702C972.822 21.702 974.28 22.782 974.28 25.032C974.28 27.282 972.768 28.38 971.238 28.38C969.69 28.38 968.358 27.282 968.358 25.032ZM978.666 30H980.736V21.756H982.572V20.082H980.736V19.38C980.736 18.246 981.168 17.814 982.428 17.814V16.104C979.836 16.104 978.666 17.094 978.666 19.38V20.082H977.496V21.756H978.666V30ZM984.715 27.246C984.715 29.262 985.813 30 987.577 30H989.197V28.29H987.937C987.073 28.29 986.785 27.984 986.785 27.246V21.756H989.197V20.082H986.785V17.616H984.715V20.082H983.545V21.756H984.715V27.246ZM993.014 30H995.174L997.172 22.674L999.17 30H1001.33L1004.41 20.082H1002.39L1000.34 28.02L998.324 20.082H996.182L994.076 28.056L992.006 20.082H989.918L993.014 30ZM1005.26 24.996C1005.26 28.056 1007.33 30.162 1009.9 30.162C1011.56 30.162 1012.75 29.37 1013.38 28.524V30H1015.45V20.082H1013.38V21.522C1012.76 20.712 1011.61 19.92 1009.94 19.92C1007.33 19.92 1005.26 21.936 1005.26 24.996ZM1013.38 25.032C1013.38 27.174 1011.92 28.38 1010.37 28.38C1008.84 28.38 1007.36 27.138 1007.36 24.996C1007.36 22.854 1008.84 21.702 1010.37 21.702C1011.92 21.702 1013.38 22.908 1013.38 25.032ZM1020.19 24.78C1020.19 22.674 1021.13 22.044 1022.64 22.044H1023.16V19.92C1021.76 19.92 1020.77 20.532 1020.19 21.522V20.082H1018.14V30H1020.19V24.78ZM1029.23 21.648C1030.76 21.648 1031.96 22.62 1032 24.15H1026.51C1026.72 22.584 1027.84 21.648 1029.23 21.648ZM1033.87 27.048H1031.66C1031.28 27.822 1030.58 28.434 1029.32 28.434C1027.8 28.434 1026.63 27.444 1026.49 25.806H1034.07C1034.12 25.464 1034.14 25.14 1034.14 24.798C1034.14 21.882 1032.14 19.92 1029.32 19.92C1026.38 19.92 1024.37 21.918 1024.37 25.032C1024.37 28.146 1026.47 30.162 1029.32 30.162C1031.75 30.162 1033.31 28.776 1033.87 27.048ZM1044.92 17.49H1040.83V30H1044.92C1048.93 30 1051.56 27.642 1051.56 23.79C1051.56 19.92 1048.93 17.49 1044.92 17.49ZM1042.89 28.326V19.164H1044.92C1047.87 19.164 1049.46 20.928 1049.46 23.79C1049.46 26.634 1047.87 28.326 1044.92 28.326H1042.89ZM1057.77 21.648C1059.3 21.648 1060.51 22.62 1060.54 24.15H1055.05C1055.27 22.584 1056.39 21.648 1057.77 21.648ZM1062.42 27.048H1060.2C1059.82 27.822 1059.12 28.434 1057.86 28.434C1056.35 28.434 1055.18 27.444 1055.04 25.806H1062.61C1062.67 25.464 1062.69 25.14 1062.69 24.798C1062.69 21.882 1060.69 19.92 1057.86 19.92C1054.93 19.92 1052.91 21.918 1052.91 25.032C1052.91 28.146 1055.02 30.162 1057.86 30.162C1060.29 30.162 1061.86 28.776 1062.42 27.048ZM1063.54 20.082L1067.3 30H1069.75L1073.53 20.082H1071.35L1068.54 28.164L1065.73 20.082H1063.54ZM1079.25 21.648C1080.78 21.648 1081.99 22.62 1082.02 24.15H1076.53C1076.75 22.584 1077.87 21.648 1079.25 21.648ZM1083.9 27.048H1081.68C1081.3 27.822 1080.6 28.434 1079.34 28.434C1077.83 28.434 1076.66 27.444 1076.52 25.806H1084.09C1084.15 25.464 1084.17 25.14 1084.17 24.798C1084.17 21.882 1082.17 19.92 1079.34 19.92C1076.41 19.92 1074.39 21.918 1074.39 25.032C1074.39 28.146 1076.5 30.162 1079.34 30.162C1081.77 30.162 1083.34 28.776 1083.9 27.048ZM1086.19 30H1088.24V16.68H1086.19V30ZM1100.38 25.032C1100.38 21.918 1098.15 19.92 1095.32 19.92C1092.5 19.92 1090.27 21.918 1090.27 25.032C1090.27 28.146 1092.41 30.162 1095.23 30.162C1098.08 30.162 1100.38 28.146 1100.38 25.032ZM1092.35 25.032C1092.35 22.782 1093.74 21.702 1095.29 21.702C1096.82 21.702 1098.28 22.782 1098.28 25.032C1098.28 27.282 1096.76 28.38 1095.23 28.38C1093.69 28.38 1092.35 27.282 1092.35 25.032ZM1104.46 21.54V20.082H1102.41V34.716H1104.46V28.56C1105.11 29.334 1106.28 30.162 1107.92 30.162C1110.53 30.162 1112.58 28.056 1112.58 24.996C1112.58 21.936 1110.53 19.92 1107.92 19.92C1106.3 19.92 1105.09 20.712 1104.46 21.54ZM1110.49 24.996C1110.49 27.138 1109.02 28.38 1107.47 28.38C1105.94 28.38 1104.46 27.174 1104.46 25.032C1104.46 22.908 1105.94 21.702 1107.47 21.702C1109.02 21.702 1110.49 22.854 1110.49 24.996ZM1118.79 21.648C1120.32 21.648 1121.52 22.62 1121.56 24.15H1116.07C1116.28 22.584 1117.4 21.648 1118.79 21.648ZM1123.43 27.048H1121.22C1120.84 27.822 1120.14 28.434 1118.88 28.434C1117.36 28.434 1116.19 27.444 1116.05 25.806H1123.63C1123.68 25.464 1123.7 25.14 1123.7 24.798C1123.7 21.882 1121.7 19.92 1118.88 19.92C1115.94 19.92 1113.93 21.918 1113.93 25.032C1113.93 28.146 1116.03 30.162 1118.88 30.162C1121.31 30.162 1122.87 28.776 1123.43 27.048ZM1127.77 24.78C1127.77 22.674 1128.71 22.044 1130.22 22.044H1130.74V19.92C1129.34 19.92 1128.35 20.532 1127.77 21.522V20.082H1125.72V30H1127.77V24.78Z" fill="#212832"/>
<circle cx="856.415" cy="24.415" r="23.415" fill="#3498DB" stroke="#3498DB"/>
<path d="M845.548 24.9942C845.548 28.9654 846.597 31.9625 850.418 31.9625C854.24 31.9625 855.289 28.9654 855.289 24.9942C855.289 21.0979 854.24 18.1008 850.418 18.1008C846.597 18.1008 845.548 21.0979 845.548 24.9942ZM853.191 24.9942C853.191 27.6729 852.91 30.0144 850.418 30.0144C847.927 30.0144 847.646 27.6729 847.646 24.9942C847.646 22.4466 847.927 20.0489 850.418 20.0489C852.91 20.0489 853.191 22.4466 853.191 24.9942ZM857.511 21.7161H859.59C859.721 20.7608 860.414 19.8616 861.913 19.8616C863.374 19.8616 864.142 20.6484 864.142 21.8285C864.142 23.2896 862.962 23.8515 861.032 23.8703H860.527V25.6311H861.014C863.243 25.6311 864.404 26.2493 864.404 28.0475C864.404 29.3213 863.617 30.2954 862.025 30.2954C860.414 30.2954 859.478 29.3213 859.384 28.0475H857.323C857.454 30.7262 859.459 32.0749 862.044 32.0749C864.891 32.0749 866.427 30.4265 866.427 28.2536C866.427 26.3616 865.509 25.1815 864.086 24.7507V24.6758C865.153 24.3198 866.184 23.2147 866.184 21.585C866.184 19.5994 864.704 18.0259 861.988 18.0259C859.496 18.0259 857.661 19.3558 857.511 21.7161Z" fill="#212832"/>
<g filter="url(#filter4_d_1129_3)">
<rect x="436" y="76" width="365" height="47" fill="white" shape-rendering="crispEdges"/>
<rect x="435.766" y="75.7658" width="365.468" height="47.4683" stroke="black" stroke-opacity="0.2" stroke-width="0.468302" shape-rendering="crispEdges"/>
</g>
<path d="M567.59 106H569.642V93.49H567.59V106ZM571.688 95.164H575.036V106H577.088V95.164H580.418V93.49H571.688V95.164ZM594.084 93.472H587.172V106H594.084V104.326H589.224V100.492H593.544V98.818H589.224V95.146H594.084V93.472ZM601.742 106H604.064L600.86 100.978L604.064 96.082H601.922L599.906 99.448L597.764 96.082H595.442L598.646 101.122L595.442 106H597.584L599.6 102.634L601.742 106ZM609.77 97.648C611.3 97.648 612.506 98.62 612.542 100.15H607.052C607.268 98.584 608.384 97.648 609.77 97.648ZM614.414 103.048H612.2C611.822 103.822 611.12 104.434 609.86 104.434C608.348 104.434 607.178 103.444 607.034 101.806H614.612C614.666 101.464 614.684 101.14 614.684 100.798C614.684 97.882 612.686 95.92 609.86 95.92C606.926 95.92 604.91 97.918 604.91 101.032C604.91 104.146 607.016 106.162 609.86 106.162C612.29 106.162 613.856 104.776 614.414 103.048ZM616.02 101.032C616.02 104.146 618.036 106.162 620.88 106.162C623.31 106.162 624.894 104.812 625.452 102.868H623.238C622.86 103.894 622.104 104.434 620.88 104.434C619.224 104.434 618.126 103.21 618.126 101.032C618.126 98.872 619.224 97.648 620.88 97.648C622.104 97.648 622.896 98.26 623.238 99.214H625.452C624.894 97.126 623.31 95.92 620.88 95.92C618.036 95.92 616.02 97.936 616.02 101.032ZM636.478 96.082H634.426V101.608C634.426 103.426 633.436 104.362 631.924 104.362C630.43 104.362 629.44 103.426 629.44 101.608V96.082H627.406V101.914C627.406 104.686 629.17 106.144 631.492 106.144C632.662 106.144 633.778 105.658 634.426 104.812V106H636.478V96.082ZM639.51 103.246C639.51 105.262 640.608 106 642.372 106H643.992V104.29H642.732C641.868 104.29 641.58 103.984 641.58 103.246V97.756H643.992V96.082H641.58V93.616H639.51V96.082H638.34V97.756H639.51V103.246ZM645.883 106H647.935V96.082H645.883V106ZM646.927 94.768C647.647 94.768 648.223 94.192 648.223 93.454C648.223 92.716 647.647 92.14 646.927 92.14C646.189 92.14 645.613 92.716 645.613 93.454C645.613 94.192 646.189 94.768 646.927 94.768ZM649.459 96.082L653.221 106H655.669L659.449 96.082H657.271L654.463 104.164L651.655 96.082H649.459ZM665.176 97.648C666.706 97.648 667.912 98.62 667.948 100.15H662.458C662.674 98.584 663.79 97.648 665.176 97.648ZM669.82 103.048H667.606C667.228 103.822 666.526 104.434 665.266 104.434C663.754 104.434 662.584 103.444 662.44 101.806H670.018C670.072 101.464 670.09 101.14 670.09 100.798C670.09 97.882 668.092 95.92 665.266 95.92C662.332 95.92 660.316 97.918 660.316 101.032C660.316 104.146 662.422 106.162 665.266 106.162C667.696 106.162 669.262 104.776 669.82 103.048Z" fill="#212832"/>
<path d="M801 76H799V123H801V76Z" fill="#E9D733" stroke="#E9D733" stroke-width="0.936604"/>
<circle cx="436.415" cy="99.4151" r="23.4151" fill="#E9D733" stroke="#E9D733"/>
<path d="M425.56 99.6055C425.56 103.577 426.609 106.574 430.43 106.574C434.252 106.574 435.301 103.577 435.301 99.6055C435.301 95.7093 434.252 92.7121 430.43 92.7121C426.609 92.7121 425.56 95.7093 425.56 99.6055ZM433.203 99.6055C433.203 102.284 432.922 104.626 430.43 104.626C427.939 104.626 427.658 102.284 427.658 99.6055C427.658 97.058 427.939 94.6603 430.43 94.6603C432.922 94.6603 433.203 97.058 433.203 99.6055ZM438.122 92.9182V100.804H440.145C440.501 99.7929 441.344 99.0998 442.599 99.0998C444.379 99.0998 445.259 100.111 445.259 101.891C445.259 103.577 444.435 104.832 442.599 104.832C441.157 104.832 440.183 104.082 439.902 102.921H437.823C438.141 105.057 439.771 106.611 442.58 106.611C445.746 106.611 447.301 104.551 447.301 101.835C447.301 99.7741 446.271 97.2828 442.918 97.2828C441.7 97.2828 440.595 97.8447 440.089 98.5191V94.7914H446.364V92.9182H438.122Z" fill="#212832"/>
<defs>
<filter id="filter0_d_1129_3" x="23.5312" y="0.531738" width="365.938" height="47.9365" filterUnits="userSpaceOnUse" color-interpolation-filters="sRGB">
<feFlood flood-opacity="0" result="BackgroundImageFix"/>
<feColorMatrix in="SourceAlpha" type="matrix" values="0 0 0 0 0 0 0 0 0 0 0 0 0 0 0 0 0 0 127 0" result="hardAlpha"/>
<feOffset/>
<feComposite in2="hardAlpha" operator="out"/>
<feColorMatrix type="matrix" values="0 0 0 0 0 0 0 0 0 0 0 0 0 0 0 0 0 0 0.1 0"/>
<feBlend mode="normal" in2="BackgroundImageFix" result="effect1_dropShadow_1129_3"/>
<feBlend mode="normal" in="SourceGraphic" in2="effect1_dropShadow_1129_3" result="shape"/>
</filter>
<filter id="filter1_d_1129_3" x="23.5312" y="75.5317" width="365.938" height="47.9365" filterUnits="userSpaceOnUse" color-interpolation-filters="sRGB">
<feFlood flood-opacity="0" result="BackgroundImageFix"/>
<feColorMatrix in="SourceAlpha" type="matrix" values="0 0 0 0 0 0 0 0 0 0 0 0 0 0 0 0 0 0 127 0" result="hardAlpha"/>
<feOffset/>
<feComposite in2="hardAlpha" operator="out"/>
<feColorMatrix type="matrix" values="0 0 0 0 0 0 0 0 0 0 0 0 0 0 0 0 0 0 0.1 0"/>
<feBlend mode="normal" in2="BackgroundImageFix" result="effect1_dropShadow_1129_3"/>
<feBlend mode="normal" in="SourceGraphic" in2="effect1_dropShadow_1129_3" result="shape"/>
</filter>
<filter id="filter2_d_1129_3" x="436.531" y="0.531738" width="365.938" height="47.9365" filterUnits="userSpaceOnUse" color-interpolation-filters="sRGB">
<feFlood flood-opacity="0" result="BackgroundImageFix"/>
<feColorMatrix in="SourceAlpha" type="matrix" values="0 0 0 0 0 0 0 0 0 0 0 0 0 0 0 0 0 0 127 0" result="hardAlpha"/>
<feOffset/>
<feComposite in2="hardAlpha" operator="out"/>
<feColorMatrix type="matrix" values="0 0 0 0 0 0 0 0 0 0 0 0 0 0 0 0 0 0 0.1 0"/>
<feBlend mode="normal" in2="BackgroundImageFix" result="effect1_dropShadow_1129_3"/>
<feBlend mode="normal" in="SourceGraphic" in2="effect1_dropShadow_1129_3" result="shape"/>
</filter>
<filter id="filter3_d_1129_3" x="859.531" y="0.531738" width="365.938" height="47.9365" filterUnits="userSpaceOnUse" color-interpolation-filters="sRGB">
<feFlood flood-opacity="0" result="BackgroundImageFix"/>
<feColorMatrix in="SourceAlpha" type="matrix" values="0 0 0 0 0 0 0 0 0 0 0 0 0 0 0 0 0 0 127 0" result="hardAlpha"/>
<feOffset/>
<feComposite in2="hardAlpha" operator="out"/>
<feColorMatrix type="matrix" values="0 0 0 0 0 0 0 0 0 0 0 0 0 0 0 0 0 0 0.1 0"/>
<feBlend mode="normal" in2="BackgroundImageFix" result="effect1_dropShadow_1129_3"/>
<feBlend mode="normal" in="SourceGraphic" in2="effect1_dropShadow_1129_3" result="shape"/>
</filter>
<filter id="filter4_d_1129_3" x="435.531" y="75.5317" width="365.938" height="47.9365" filterUnits="userSpaceOnUse" color-interpolation-filters="sRGB">
<feFlood flood-opacity="0" result="BackgroundImageFix"/>
<feColorMatrix in="SourceAlpha" type="matrix" values="0 0 0 0 0 0 0 0 0 0 0 0 0 0 0 0 0 0 127 0" result="hardAlpha"/>
<feOffset/>
<feComposite in2="hardAlpha" operator="out"/>
<feColorMatrix type="matrix" values="0 0 0 0 0 0 0 0 0 0 0 0 0 0 0 0 0 0 0.1 0"/>
<feBlend mode="normal" in2="BackgroundImageFix" result="effect1_dropShadow_1129_3"/>
<feBlend mode="normal" in="SourceGraphic" in2="effect1_dropShadow_1129_3" result="shape"/>
</filter>
</defs>
</svg>
