<svg width="584" height="64" viewBox="0 0 584 64" fill="none" xmlns="http://www.w3.org/2000/svg">
<path d="M21.5 13.47C21.5 7.2 16.76 2.76 10.79 2.76C4.88 2.76 0.05 7.2 0.05 13.47C0.05 19.77 4.88 24.21 10.79 24.21C16.73 24.21 21.5 19.77 21.5 13.47ZM4.37 13.47C4.37 9.21 6.98 6.54 10.79 6.54C14.57 6.54 17.18 9.21 17.18 13.47C17.18 17.73 14.57 20.46 10.79 20.46C6.98 20.46 4.37 17.73 4.37 13.47ZM36.2647 24H40.4647V14.25C40.4647 9.66 37.7047 7.14 33.8347 7.14C31.7047 7.14 29.9047 8.04 28.8247 9.45V7.38H24.6247V24H28.8247V14.82C28.8247 12.15 30.2947 10.71 32.5747 10.71C34.7947 10.71 36.2647 12.15 36.2647 14.82V24ZM44.4587 24H48.6587V1.8H44.4587V24ZM52.8083 24H57.0083V7.38H52.8083V24ZM54.9383 5.4C56.4083 5.4 57.5183 4.32 57.5183 2.94C57.5183 1.56 56.4083 0.479999 54.9383 0.479999C53.4383 0.479999 52.3583 1.56 52.3583 2.94C52.3583 4.32 53.4383 5.4 54.9383 5.4ZM72.7979 24H76.9979V14.25C76.9979 9.66 74.2379 7.14 70.3679 7.14C68.2379 7.14 66.4379 8.04 65.3579 9.45V7.38H61.1579V24H65.3579V14.82C65.3579 12.15 66.8279 10.71 69.1079 10.71C71.3279 10.71 72.7979 12.15 72.7979 14.82V24ZM88.1319 10.56C90.2919 10.56 92.0319 11.94 92.0919 14.13H84.2019C84.5319 11.85 86.1219 10.56 88.1319 10.56ZM96.0219 18.78H91.4919C90.9519 19.89 89.9619 20.79 88.1619 20.79C86.0619 20.79 84.3819 19.41 84.1719 16.95H96.3219C96.4119 16.41 96.4419 15.87 96.4419 15.33C96.4419 10.38 93.0519 7.11 88.2519 7.11C83.3319 7.11 79.9119 10.44 79.9119 15.69C79.9119 20.91 83.4219 24.27 88.2519 24.27C92.3619 24.27 95.1219 21.84 96.0219 18.78ZM105.576 15.63C105.576 20.82 108.936 24.27 113.136 24.27C115.776 24.27 117.666 23.01 118.656 21.57V24H122.886V7.38H118.656V9.75C117.666 8.37 115.836 7.11 113.166 7.11C108.936 7.11 105.576 10.44 105.576 15.63ZM118.656 15.69C118.656 18.84 116.556 20.58 114.246 20.58C111.996 20.58 109.866 18.78 109.866 15.63C109.866 12.48 111.996 10.8 114.246 10.8C116.556 10.8 118.656 12.54 118.656 15.69ZM138.628 24H142.828V14.25C142.828 9.66 140.068 7.14 136.198 7.14C134.068 7.14 132.268 8.04 131.188 9.45V7.38H126.988V24H131.188V14.82C131.188 12.15 132.658 10.71 134.938 10.71C137.158 10.71 138.628 12.15 138.628 14.82V24ZM145.742 15.63C145.742 20.82 149.102 24.27 153.332 24.27C155.942 24.27 157.802 23.07 158.792 21.54V24H163.052V1.8H158.792V9.69C157.652 8.13 155.552 7.11 153.362 7.11C149.102 7.11 145.742 10.44 145.742 15.63ZM158.822 15.69C158.822 18.84 156.722 20.58 154.412 20.58C152.162 20.58 150.032 18.78 150.032 15.63C150.032 12.48 152.162 10.8 154.412 10.8C156.722 10.8 158.822 12.54 158.822 15.69ZM181.622 3.06H174.302V24H181.622C188.312 24 192.662 19.89 192.662 13.56C192.662 7.2 188.312 3.06 181.622 3.06ZM178.502 20.43V6.6H181.472C185.882 6.6 188.372 9.21 188.372 13.56C188.372 17.91 185.882 20.43 181.472 20.43H178.502ZM195.806 24H200.006V7.38H195.806V24ZM197.936 5.4C199.406 5.4 200.516 4.32 200.516 2.94C200.516 1.56 199.406 0.479999 197.936 0.479999C196.436 0.479999 195.356 1.56 195.356 2.94C195.356 4.32 196.436 5.4 197.936 5.4ZM217.056 19.26C216.936 13.17 207.726 15.06 207.726 12.03C207.726 11.07 208.536 10.44 210.096 10.44C211.746 10.44 212.766 11.31 212.886 12.6H216.906C216.666 9.3 214.236 7.11 210.216 7.11C206.106 7.11 203.646 9.33 203.646 12.09C203.646 18.18 213.036 16.29 213.036 19.26C213.036 20.22 212.136 20.97 210.486 20.97C208.806 20.97 207.636 20.01 207.486 18.75H203.256C203.436 21.84 206.346 24.27 210.516 24.27C214.566 24.27 217.056 22.11 217.056 19.26ZM221.164 18.84C221.164 22.65 223.294 24 226.474 24H229.114V20.46H227.164C225.844 20.46 225.394 19.98 225.394 18.87V10.83H229.114V7.38H225.394V3.27H221.164V7.38H219.184V10.83H221.164V18.84ZM231.054 15.63C231.054 20.82 234.414 24.27 238.614 24.27C241.254 24.27 243.144 23.01 244.134 21.57V24H248.364V7.38H244.134V9.75C243.144 8.37 241.314 7.11 238.644 7.11C234.414 7.11 231.054 10.44 231.054 15.63ZM244.134 15.69C244.134 18.84 242.034 20.58 239.724 20.58C237.474 20.58 235.344 18.78 235.344 15.63C235.344 12.48 237.474 10.8 239.724 10.8C242.034 10.8 244.134 12.54 244.134 15.69ZM264.106 24H268.306V14.25C268.306 9.66 265.546 7.14 261.676 7.14C259.546 7.14 257.746 8.04 256.666 9.45V7.38H252.466V24H256.666V14.82C256.666 12.15 258.136 10.71 260.416 10.71C262.636 10.71 264.106 12.15 264.106 14.82V24ZM271.22 15.69C271.22 20.91 274.64 24.27 279.44 24.27C283.58 24.27 286.37 21.93 287.27 18.39H282.74C282.23 19.89 281.15 20.67 279.41 20.67C277.07 20.67 275.51 18.93 275.51 15.69C275.51 12.45 277.07 10.68 279.41 10.68C281.15 10.68 282.26 11.58 282.74 12.99H287.27C286.37 9.27 283.58 7.11 279.44 7.11C274.64 7.11 271.22 10.47 271.22 15.69ZM297.487 10.56C299.647 10.56 301.387 11.94 301.447 14.13H293.557C293.887 11.85 295.477 10.56 297.487 10.56ZM305.377 18.78H300.847C300.307 19.89 299.317 20.79 297.517 20.79C295.417 20.79 293.737 19.41 293.527 16.95H305.677C305.767 16.41 305.797 15.87 305.797 15.33C305.797 10.38 302.407 7.11 297.607 7.11C292.687 7.11 289.267 10.44 289.267 15.69C289.267 20.91 292.777 24.27 297.607 24.27C301.717 24.27 304.477 21.84 305.377 18.78ZM316.011 24H320.211V10.38L325.851 24H329.031L334.641 10.38V24H338.841V3.06H334.101L327.441 18.63L320.781 3.06H316.011V24ZM341.974 13.5C341.974 19.77 346.564 24.18 352.594 24.18C357.244 24.18 361.024 21.72 362.434 17.4H357.604C356.614 19.44 354.814 20.43 352.564 20.43C348.904 20.43 346.294 17.73 346.294 13.5C346.294 9.24 348.904 6.57 352.564 6.57C354.814 6.57 356.614 7.56 357.604 9.57H362.434C361.024 5.28 357.244 2.79 352.594 2.79C346.564 2.79 341.974 7.23 341.974 13.5ZM380.241 24H384.681L377.151 3.03H372.261L364.731 24H369.141L370.521 20.01H378.861L380.241 24ZM377.721 16.65H371.661L374.691 7.89L377.721 16.65ZM394.644 24H398.844V7.38H394.644V24ZM396.774 5.4C398.244 5.4 399.354 4.32 399.354 2.94C399.354 1.56 398.244 0.479999 396.774 0.479999C395.274 0.479999 394.194 1.56 394.194 2.94C394.194 4.32 395.274 5.4 396.774 5.4ZM414.634 24H418.834V14.25C418.834 9.66 416.074 7.14 412.204 7.14C410.074 7.14 408.274 8.04 407.194 9.45V7.38H402.994V24H407.194V14.82C407.194 12.15 408.664 10.71 410.944 10.71C413.164 10.71 414.634 12.15 414.634 14.82V24ZM428.956 13.5C428.956 19.77 433.546 24.18 439.576 24.18C444.226 24.18 448.006 21.72 449.416 17.4H444.586C443.596 19.44 441.796 20.43 439.546 20.43C435.886 20.43 433.276 17.73 433.276 13.5C433.276 9.24 435.886 6.57 439.546 6.57C441.796 6.57 443.596 7.56 444.586 9.57H449.416C448.006 5.28 444.226 2.79 439.576 2.79C433.546 2.79 428.956 7.23 428.956 13.5ZM469.054 15.69C469.054 10.44 465.304 7.11 460.504 7.11C455.704 7.11 451.954 10.44 451.954 15.69C451.954 20.91 455.584 24.27 460.384 24.27C465.214 24.27 469.054 20.91 469.054 15.69ZM456.214 15.69C456.214 12.36 458.224 10.77 460.444 10.77C462.664 10.77 464.734 12.36 464.734 15.69C464.734 18.99 462.604 20.61 460.384 20.61C458.134 20.61 456.214 18.99 456.214 15.69ZM495.384 24H499.584V14.25C499.584 9.66 496.764 7.14 492.774 7.14C490.344 7.14 488.154 8.43 487.074 10.32C485.934 8.25 483.804 7.14 481.224 7.14C479.154 7.14 477.384 8.01 476.334 9.39V7.38H472.134V24H476.334V14.82C476.334 12.18 477.804 10.8 480.084 10.8C482.304 10.8 483.774 12.18 483.774 14.82V24H487.974V14.82C487.974 12.18 489.444 10.8 491.694 10.8C493.914 10.8 495.384 12.18 495.384 14.82V24ZM507.77 9.78V7.38H503.57V31.92H507.77V21.63C508.79 22.98 510.65 24.27 513.26 24.27C517.52 24.27 520.85 20.82 520.85 15.63C520.85 10.44 517.52 7.11 513.26 7.11C510.68 7.11 508.76 8.37 507.77 9.78ZM516.56 15.63C516.56 18.78 514.43 20.58 512.15 20.58C509.9 20.58 507.77 18.84 507.77 15.69C507.77 12.54 509.9 10.8 512.15 10.8C514.43 10.8 516.56 12.48 516.56 15.63ZM539.592 7.38H535.362V16.53C535.362 19.2 533.922 20.64 531.642 20.64C529.422 20.64 527.952 19.2 527.952 16.53V7.38H523.752V17.13C523.752 21.69 526.542 24.21 530.412 24.21C532.482 24.21 534.312 23.31 535.362 21.9V24H539.592V7.38ZM544.396 18.84C544.396 22.65 546.526 24 549.706 24H552.346V20.46H550.396C549.076 20.46 548.626 19.98 548.626 18.87V10.83H552.346V7.38H548.626V3.27H544.396V7.38H542.416V10.83H544.396V18.84ZM562.507 10.56C564.667 10.56 566.407 11.94 566.467 14.13H558.577C558.907 11.85 560.497 10.56 562.507 10.56ZM570.397 18.78H565.867C565.327 19.89 564.337 20.79 562.537 20.79C560.437 20.79 558.757 19.41 558.547 16.95H570.697C570.787 16.41 570.817 15.87 570.817 15.33C570.817 10.38 567.427 7.11 562.627 7.11C557.707 7.11 554.287 10.44 554.287 15.69C554.287 20.91 557.797 24.27 562.627 24.27C566.737 24.27 569.497 21.84 570.397 18.78ZM578.083 15.72C578.083 12.51 579.583 11.55 582.073 11.55H583.183V7.14C580.873 7.14 579.133 8.25 578.083 9.96V7.38H573.883V24H578.083V15.72ZM15.71 56.94C15.71 49.56 4.97 51.9 4.97 47.7C4.97 45.99 6.2 45.18 7.85 45.24C9.65 45.27 10.76 46.35 10.85 47.73H15.47C15.2 43.95 12.26 41.76 7.97 41.76C3.65 41.76 0.59 44.04 0.59 47.82C0.56 55.41 11.36 52.68 11.36 57.21C11.36 58.71 10.19 59.76 8.21 59.76C6.26 59.76 5.15 58.65 5.03 56.97H0.53C0.59 60.93 3.95 63.21 8.3 63.21C13.07 63.21 15.71 60.24 15.71 56.94ZM18.2712 54.69C18.2712 59.91 21.6912 63.27 26.4913 63.27C30.6313 63.27 33.4213 60.93 34.3213 57.39H29.7913C29.2813 58.89 28.2013 59.67 26.4613 59.67C24.1213 59.67 22.5613 57.93 22.5613 54.69C22.5613 51.45 24.1213 49.68 26.4613 49.68C28.2013 49.68 29.3113 50.58 29.7913 51.99H34.3213C33.4213 48.27 30.6313 46.11 26.4913 46.11C21.6912 46.11 18.2712 49.47 18.2712 54.69ZM37.3981 63H41.5981V46.38H37.3981V63ZM39.5281 44.4C40.9981 44.4 42.1081 43.32 42.1081 41.94C42.1081 40.56 40.9981 39.48 39.5281 39.48C38.0281 39.48 36.9481 40.56 36.9481 41.94C36.9481 43.32 38.0281 44.4 39.5281 44.4ZM52.8877 49.56C55.0477 49.56 56.7877 50.94 56.8477 53.13H48.9577C49.2877 50.85 50.8777 49.56 52.8877 49.56ZM60.7777 57.78H56.2477C55.7077 58.89 54.7177 59.79 52.9177 59.79C50.8177 59.79 49.1377 58.41 48.9277 55.95H61.0777C61.1677 55.41 61.1977 54.87 61.1977 54.33C61.1977 49.38 57.8077 46.11 53.0077 46.11C48.0877 46.11 44.6677 49.44 44.6677 54.69C44.6677 59.91 48.1777 63.27 53.0077 63.27C57.1177 63.27 59.8777 60.84 60.7777 57.78ZM75.9034 63H80.1034V53.25C80.1034 48.66 77.3434 46.14 73.4734 46.14C71.3434 46.14 69.5434 47.04 68.4634 48.45V46.38H64.2634V63H68.4634V53.82C68.4634 51.15 69.9334 49.71 72.2134 49.71C74.4334 49.71 75.9034 51.15 75.9034 53.82V63ZM83.0173 54.69C83.0173 59.91 86.4373 63.27 91.2373 63.27C95.3773 63.27 98.1673 60.93 99.0673 57.39H94.5373C94.0273 58.89 92.9473 59.67 91.2073 59.67C88.8673 59.67 87.3073 57.93 87.3073 54.69C87.3073 51.45 88.8673 49.68 91.2073 49.68C92.9473 49.68 94.0573 50.58 94.5373 51.99H99.0673C98.1673 48.27 95.3773 46.11 91.2373 46.11C86.4373 46.11 83.0173 49.47 83.0173 54.69ZM109.284 49.56C111.444 49.56 113.184 50.94 113.244 53.13H105.354C105.684 50.85 107.274 49.56 109.284 49.56ZM117.174 57.78H112.644C112.104 58.89 111.114 59.79 109.314 59.79C107.214 59.79 105.534 58.41 105.324 55.95H117.474C117.564 55.41 117.594 54.87 117.594 54.33C117.594 49.38 114.204 46.11 109.404 46.11C104.484 46.11 101.064 49.44 101.064 54.69C101.064 59.91 104.574 63.27 109.404 63.27C113.514 63.27 116.274 60.84 117.174 57.78ZM126.728 54.63C126.728 59.82 130.088 63.27 134.288 63.27C136.928 63.27 138.818 62.01 139.808 60.57V63H144.038V46.38H139.808V48.75C138.818 47.37 136.988 46.11 134.318 46.11C130.088 46.11 126.728 49.44 126.728 54.63ZM139.808 54.69C139.808 57.84 137.708 59.58 135.398 59.58C133.148 59.58 131.018 57.78 131.018 54.63C131.018 51.48 133.148 49.8 135.398 49.8C137.708 49.8 139.808 51.54 139.808 54.69ZM159.78 63H163.98V53.25C163.98 48.66 161.22 46.14 157.35 46.14C155.22 46.14 153.42 47.04 152.34 48.45V46.38H148.14V63H152.34V53.82C152.34 51.15 153.81 49.71 156.09 49.71C158.31 49.71 159.78 51.15 159.78 53.82V63ZM166.894 54.63C166.894 59.82 170.254 63.27 174.484 63.27C177.094 63.27 178.954 62.07 179.944 60.54V63H184.204V40.8H179.944V48.69C178.804 47.13 176.704 46.11 174.514 46.11C170.254 46.11 166.894 49.44 166.894 54.63ZM179.974 54.69C179.974 57.84 177.874 59.58 175.564 59.58C173.314 59.58 171.184 57.78 171.184 54.63C171.184 51.48 173.314 49.8 175.564 49.8C177.874 49.8 179.974 51.54 179.974 54.69ZM195.455 63H199.655V42.06H195.455V63ZM202.694 45.45H208.274V63H212.474V45.45H218.054V42.06H202.694V45.45Z" fill="white"/>
</svg>
