<svg width="617" height="401" viewBox="0 0 617 401" fill="none" xmlns="http://www.w3.org/2000/svg">
<rect width="617" height="58" fill="#3498DB"/>
<path d="M33.925 32.95C33.925 26.8 24.975 28.75 24.975 25.25C24.975 23.825 26 23.15 27.375 23.2C28.875 23.225 29.8 24.125 29.875 25.275H33.725C33.5 22.125 31.05 20.3 27.475 20.3C23.875 20.3 21.325 22.2 21.325 25.35C21.3 31.675 30.3 29.4 30.3 33.175C30.3 34.425 29.325 35.3 27.675 35.3C26.05 35.3 25.125 34.375 25.025 32.975H21.275C21.325 36.275 24.125 38.175 27.75 38.175C31.725 38.175 33.925 35.7 33.925 32.95ZM43.4094 26.8C45.2094 26.8 46.6594 27.95 46.7094 29.775H40.1344C40.4094 27.875 41.7344 26.8 43.4094 26.8ZM49.9844 33.65H46.2094C45.7594 34.575 44.9344 35.325 43.4344 35.325C41.6844 35.325 40.2844 34.175 40.1094 32.125H50.2344C50.3094 31.675 50.3344 31.225 50.3344 30.775C50.3344 26.65 47.5094 23.925 43.5094 23.925C39.4094 23.925 36.5594 26.7 36.5594 31.075C36.5594 35.425 39.4844 38.225 43.5094 38.225C46.9344 38.225 49.2344 36.2 49.9844 33.65ZM72.7641 38H76.2641V29.875C76.2641 26.05 73.9141 23.95 70.5891 23.95C68.5641 23.95 66.7391 25.025 65.8391 26.6C64.8891 24.875 63.1141 23.95 60.9641 23.95C59.2391 23.95 57.7641 24.675 56.8891 25.825V24.15H53.3891V38H56.8891V30.35C56.8891 28.15 58.1141 27 60.0141 27C61.8641 27 63.0891 28.15 63.0891 30.35V38H66.5891V30.35C66.5891 28.15 67.8141 27 69.6891 27C71.5391 27 72.7641 28.15 72.7641 30.35V38ZM86.0354 26.8C87.8354 26.8 89.2854 27.95 89.3354 29.775H82.7604C83.0354 27.875 84.3604 26.8 86.0354 26.8ZM92.6104 33.65H88.8354C88.3854 34.575 87.5604 35.325 86.0604 35.325C84.3104 35.325 82.9104 34.175 82.7354 32.125H92.8604C92.9354 31.675 92.9604 31.225 92.9604 30.775C92.9604 26.65 90.1354 23.925 86.1354 23.925C82.0354 23.925 79.1854 26.7 79.1854 31.075C79.1854 35.425 82.1104 38.225 86.1354 38.225C89.5604 38.225 91.8604 36.2 92.6104 33.65ZM106.765 34.05C106.665 28.975 98.99 30.55 98.99 28.025C98.99 27.225 99.665 26.7 100.965 26.7C102.34 26.7 103.19 27.425 103.29 28.5H106.64C106.44 25.75 104.415 23.925 101.065 23.925C97.64 23.925 95.59 25.775 95.59 28.075C95.59 33.15 103.415 31.575 103.415 34.05C103.415 34.85 102.665 35.475 101.29 35.475C99.89 35.475 98.915 34.675 98.79 33.625H95.265C95.415 36.2 97.84 38.225 101.315 38.225C104.69 38.225 106.765 36.425 106.765 34.05ZM110.688 33.7C110.688 36.875 112.463 38 115.113 38H117.313V35.05H115.688C114.588 35.05 114.213 34.65 114.213 33.725V27.025H117.313V24.15H114.213V20.725H110.688V24.15H109.038V27.025H110.688V33.7ZM126.28 26.8C128.08 26.8 129.53 27.95 129.58 29.775H123.005C123.28 27.875 124.605 26.8 126.28 26.8ZM132.855 33.65H129.08C128.63 34.575 127.805 35.325 126.305 35.325C124.555 35.325 123.155 34.175 122.98 32.125H133.105C133.18 31.675 133.205 31.225 133.205 30.775C133.205 26.65 130.38 23.925 126.38 23.925C122.28 23.925 119.43 26.7 119.43 31.075C119.43 35.425 122.355 38.225 126.38 38.225C129.805 38.225 132.105 36.2 132.855 33.65ZM139.76 31.1C139.76 28.425 141.01 27.625 143.085 27.625H144.01V23.95C142.085 23.95 140.635 24.875 139.76 26.3V24.15H136.26V38H139.76V31.1ZM152.975 24.575H156.4C156.525 23.425 157.25 22.325 158.95 22.325C160.55 22.325 161.425 23.175 161.425 24.6C161.425 26.4 159.925 26.975 157.875 26.975H157.15V29.85H157.875C160.475 29.85 161.775 30.6 161.775 32.65C161.775 34.1 160.875 35.2 159.125 35.2C157.25 35.2 156.2 34.075 156.125 32.5H152.725C152.875 36.325 155.6 38.125 159.2 38.125C163.025 38.125 165.125 35.925 165.125 32.95C165.125 30.475 163.9 28.975 162.05 28.4V28.3C163.375 27.85 164.8 26.45 164.8 24.175C164.8 21.475 162.8 19.35 159.05 19.35C155.55 19.35 153.15 21.2 152.975 24.575Z" fill="white"/>
<rect y="66" width="617" height="50" fill="white"/>
<path d="M24.6 94.44C26.08 94.44 27.24 93.3 27.24 91.84C27.24 90.36 26.08 89.22 24.6 89.22C23.16 89.22 22 90.36 22 91.84C22 93.3 23.16 94.44 24.6 94.44ZM50.5089 98.5H52.9089L47.9289 84.58H45.2889L40.3089 98.5H42.6889L43.6889 95.66H49.5089L50.5089 98.5ZM48.8689 93.8H44.3289L46.6089 87.34L48.8689 93.8ZM57.3542 89.1V87.48H55.0742V103.74H57.3542V96.9C58.0742 97.76 59.3742 98.68 61.1942 98.68C64.0942 98.68 66.3742 96.34 66.3742 92.94C66.3742 89.54 64.0942 87.3 61.1942 87.3C59.3942 87.3 58.0542 88.18 57.3542 89.1ZM64.0542 92.94C64.0542 95.32 62.4142 96.7 60.6942 96.7C58.9942 96.7 57.3542 95.36 57.3542 92.98C57.3542 90.62 58.9942 89.28 60.6942 89.28C62.4142 89.28 64.0542 90.56 64.0542 92.94ZM70.9089 89.1V87.48H68.6289V103.74H70.9089V96.9C71.6289 97.76 72.9289 98.68 74.7489 98.68C77.6489 98.68 79.9289 96.34 79.9289 92.94C79.9289 89.54 77.6489 87.3 74.7489 87.3C72.9489 87.3 71.6089 88.18 70.9089 89.1ZM77.6089 92.94C77.6089 95.32 75.9689 96.7 74.2489 96.7C72.5489 96.7 70.9089 95.36 70.9089 92.98C70.9089 90.62 72.5489 89.28 74.2489 89.28C75.9689 89.28 77.6089 90.56 77.6089 92.94ZM82.1836 98.5H84.4636V83.7H82.1836V98.5ZM87.457 98.5H89.737V87.48H87.457V98.5ZM88.617 86.02C89.417 86.02 90.057 85.38 90.057 84.56C90.057 83.74 89.417 83.1 88.617 83.1C87.797 83.1 87.157 83.74 87.157 84.56C87.157 85.38 87.797 86.02 88.617 86.02ZM91.9705 92.98C91.9705 96.44 94.2105 98.68 97.3705 98.68C100.07 98.68 101.83 97.18 102.45 95.02H99.9905C99.5705 96.16 98.7305 96.76 97.3705 96.76C95.5305 96.76 94.3105 95.4 94.3105 92.98C94.3105 90.58 95.5305 89.22 97.3705 89.22C98.7305 89.22 99.6105 89.9 99.9905 90.96H102.45C101.83 88.64 100.07 87.3 97.3705 87.3C94.2105 87.3 91.9705 89.54 91.9705 92.98ZM103.963 92.94C103.963 96.34 106.263 98.68 109.123 98.68C110.963 98.68 112.283 97.8 112.983 96.86V98.5H115.283V87.48H112.983V89.08C112.303 88.18 111.023 87.3 109.163 87.3C106.263 87.3 103.963 89.54 103.963 92.94ZM112.983 92.98C112.983 95.36 111.363 96.7 109.643 96.7C107.943 96.7 106.303 95.32 106.303 92.94C106.303 90.56 107.943 89.28 109.643 89.28C111.363 89.28 112.983 90.62 112.983 92.98ZM118.637 95.44C118.637 97.68 119.857 98.5 121.817 98.5H123.617V96.6H122.217C121.257 96.6 120.937 96.26 120.937 95.44V89.34H123.617V87.48H120.937V84.74H118.637V87.48H117.337V89.34H118.637V95.44ZM125.719 98.5H127.999V87.48H125.719V98.5ZM126.879 86.02C127.679 86.02 128.319 85.38 128.319 84.56C128.319 83.74 127.679 83.1 126.879 83.1C126.059 83.1 125.419 83.74 125.419 84.56C125.419 85.38 126.059 86.02 126.879 86.02ZM141.492 92.98C141.492 89.52 139.012 87.3 135.872 87.3C132.732 87.3 130.252 89.52 130.252 92.98C130.252 96.44 132.632 98.68 135.772 98.68C138.932 98.68 141.492 96.44 141.492 92.98ZM132.572 92.98C132.572 90.48 134.112 89.28 135.832 89.28C137.532 89.28 139.152 90.48 139.152 92.98C139.152 95.48 137.472 96.7 135.772 96.7C134.052 96.7 132.572 95.48 132.572 92.98ZM151.566 98.5H153.826V92C153.826 88.92 151.886 87.3 149.306 87.3C147.986 87.3 146.766 87.84 146.026 88.74V87.48H143.746V98.5H146.026V92.34C146.026 90.32 147.126 89.28 148.806 89.28C150.466 89.28 151.566 90.32 151.566 92.34V98.5ZM166.47 84.6H161.93V98.5H166.47C170.93 98.5 173.85 95.88 173.85 91.6C173.85 87.3 170.93 84.6 166.47 84.6ZM164.21 96.64V86.46H166.47C169.75 86.46 171.51 88.42 171.51 91.6C171.51 94.76 169.75 96.64 166.47 96.64H164.21ZM180.749 89.22C182.449 89.22 183.789 90.3 183.829 92H177.729C177.969 90.26 179.209 89.22 180.749 89.22ZM185.909 95.22H183.449C183.029 96.08 182.249 96.76 180.849 96.76C179.169 96.76 177.869 95.66 177.709 93.84H186.129C186.189 93.46 186.209 93.1 186.209 92.72C186.209 89.48 183.989 87.3 180.849 87.3C177.589 87.3 175.349 89.52 175.349 92.98C175.349 96.44 177.689 98.68 180.849 98.68C183.549 98.68 185.289 97.14 185.909 95.22ZM187.153 87.48L191.333 98.5H194.053L198.253 87.48H195.833L192.713 96.46L189.593 87.48H187.153ZM204.617 89.22C206.317 89.22 207.657 90.3 207.697 92H201.597C201.837 90.26 203.077 89.22 204.617 89.22ZM209.777 95.22H207.317C206.897 96.08 206.117 96.76 204.717 96.76C203.037 96.76 201.737 95.66 201.577 93.84H209.997C210.057 93.46 210.077 93.1 210.077 92.72C210.077 89.48 207.857 87.3 204.717 87.3C201.457 87.3 199.217 89.52 199.217 92.98C199.217 96.44 201.557 98.68 204.717 98.68C207.417 98.68 209.157 97.14 209.777 95.22ZM212.32 98.5H214.6V83.7H212.32V98.5ZM228.094 92.98C228.094 89.52 225.614 87.3 222.474 87.3C219.334 87.3 216.854 89.52 216.854 92.98C216.854 96.44 219.234 98.68 222.374 98.68C225.534 98.68 228.094 96.44 228.094 92.98ZM219.174 92.98C219.174 90.48 220.714 89.28 222.434 89.28C224.134 89.28 225.754 90.48 225.754 92.98C225.754 95.48 224.074 96.7 222.374 96.7C220.654 96.7 219.174 95.48 219.174 92.98ZM232.628 89.1V87.48H230.348V103.74H232.628V96.9C233.348 97.76 234.648 98.68 236.468 98.68C239.368 98.68 241.648 96.34 241.648 92.94C241.648 89.54 239.368 87.3 236.468 87.3C234.668 87.3 233.328 88.18 232.628 89.1ZM239.328 92.94C239.328 95.32 237.688 96.7 235.968 96.7C234.268 96.7 232.628 95.36 232.628 92.98C232.628 90.62 234.268 89.28 235.968 89.28C237.688 89.28 239.328 90.56 239.328 92.94ZM259.522 98.5H261.782V92C261.782 88.92 259.822 87.3 257.242 87.3C255.642 87.3 254.082 88.14 253.402 89.48C252.642 88.04 251.182 87.3 249.442 87.3C248.122 87.3 246.922 87.84 246.182 88.74V87.48H243.902V98.5H246.182V92.34C246.182 90.32 247.282 89.28 248.962 89.28C250.622 89.28 251.722 90.32 251.722 92.34V98.5H253.982V92.34C253.982 90.32 255.082 89.28 256.762 89.28C258.422 89.28 259.522 90.32 259.522 92.34V98.5ZM269.324 89.22C271.024 89.22 272.364 90.3 272.404 92H266.304C266.544 90.26 267.784 89.22 269.324 89.22ZM274.484 95.22H272.024C271.604 96.08 270.824 96.76 269.424 96.76C267.744 96.76 266.444 95.66 266.284 93.84H274.704C274.764 93.46 274.784 93.1 274.784 92.72C274.784 89.48 272.564 87.3 269.424 87.3C266.164 87.3 263.924 89.52 263.924 92.98C263.924 96.44 266.264 98.68 269.424 98.68C272.124 98.68 273.864 97.14 274.484 95.22ZM284.847 98.5H287.107V92C287.107 88.92 285.167 87.3 282.587 87.3C281.267 87.3 280.047 87.84 279.307 88.74V87.48H277.027V98.5H279.307V92.34C279.307 90.32 280.407 89.28 282.087 89.28C283.747 89.28 284.847 90.32 284.847 92.34V98.5ZM290.376 95.44C290.376 97.68 291.596 98.5 293.556 98.5H295.356V96.6H293.956C292.996 96.6 292.676 96.26 292.676 95.44V89.34H295.356V87.48H292.676V84.74H290.376V87.48H289.076V89.34H290.376V95.44ZM312.632 87.48H310.352V93.62C310.352 95.64 309.252 96.68 307.572 96.68C305.912 96.68 304.812 95.64 304.812 93.62V87.48H302.552V93.96C302.552 97.04 304.512 98.66 307.092 98.66C308.392 98.66 309.632 98.12 310.352 97.18V98.5H312.632V87.48ZM323.861 95.42C323.741 91.44 317.521 92.68 317.521 90.46C317.521 89.72 318.161 89.22 319.381 89.22C320.621 89.22 321.361 89.88 321.441 90.84H323.721C323.601 88.64 321.961 87.3 319.461 87.3C316.861 87.3 315.221 88.72 315.221 90.48C315.221 94.52 321.621 93.28 321.621 95.44C321.621 96.2 320.921 96.76 319.601 96.76C318.341 96.76 317.481 96.02 317.401 95.12H315.041C315.141 97.12 317.001 98.68 319.641 98.68C322.241 98.68 323.861 97.28 323.861 95.42ZM326.324 98.5H328.604V87.48H326.324V98.5ZM327.484 86.02C328.284 86.02 328.924 85.38 328.924 84.56C328.924 83.74 328.284 83.1 327.484 83.1C326.664 83.1 326.024 83.74 326.024 84.56C326.024 85.38 326.664 86.02 327.484 86.02ZM339.418 98.5H341.678V92C341.678 88.92 339.738 87.3 337.158 87.3C335.838 87.3 334.618 87.84 333.878 88.74V87.48H331.598V98.5H333.878V92.34C333.878 90.32 334.978 89.28 336.658 89.28C338.318 89.28 339.418 90.32 339.418 92.34V98.5ZM343.826 92.94C343.826 96.34 346.126 98.68 349.026 98.68C350.826 98.68 352.146 97.78 352.846 96.84V98.68C352.846 100.88 351.526 101.96 349.766 101.96C348.186 101.96 346.966 101.18 346.626 100.04H344.366C344.646 102.48 346.826 103.94 349.766 103.94C353.206 103.94 355.146 101.68 355.146 98.68V87.48H352.846V89.08C352.166 88.14 350.826 87.3 349.026 87.3C346.126 87.3 343.826 89.54 343.826 92.94ZM352.846 92.98C352.846 95.36 351.226 96.7 349.506 96.7C347.806 96.7 346.166 95.32 346.166 92.94C346.166 90.56 347.806 89.28 349.506 89.28C351.226 89.28 352.846 90.62 352.846 92.98ZM365.616 91V86.46H368.136C369.916 86.46 370.716 87.3 370.716 88.74C370.716 90.14 369.916 91 368.136 91H365.616ZM373.056 88.74C373.056 86.48 371.436 84.6 368.136 84.6H363.336V98.5H365.616V92.86H368.136C371.756 92.86 373.056 90.72 373.056 88.74ZM379.57 95.88L376.47 87.48H373.93L378.27 98.32L376.03 103.68H378.39L385.15 87.48H382.79L379.57 95.88ZM387.231 95.44C387.231 97.68 388.451 98.5 390.411 98.5H392.211V96.6H390.811C389.851 96.6 389.531 96.26 389.531 95.44V89.34H392.211V87.48H389.531V84.74H387.231V87.48H385.931V89.34H387.231V95.44ZM394.313 98.5H396.593V92.34C396.593 90.32 397.693 89.28 399.373 89.28C401.033 89.28 402.133 90.32 402.133 92.34V98.5H404.393V92C404.393 88.92 402.473 87.3 400.013 87.3C398.593 87.3 397.353 87.84 396.593 88.76V83.7H394.313V98.5ZM417.801 92.98C417.801 89.52 415.321 87.3 412.181 87.3C409.041 87.3 406.561 89.52 406.561 92.98C406.561 96.44 408.941 98.68 412.081 98.68C415.241 98.68 417.801 96.44 417.801 92.98ZM408.881 92.98C408.881 90.48 410.421 89.28 412.141 89.28C413.841 89.28 415.461 90.48 415.461 92.98C415.461 95.48 413.781 96.7 412.081 96.7C410.361 96.7 408.881 95.48 408.881 92.98ZM427.875 98.5H430.135V92C430.135 88.92 428.195 87.3 425.615 87.3C424.295 87.3 423.075 87.84 422.335 88.74V87.48H420.055V98.5H422.335V92.34C422.335 90.32 423.435 89.28 425.115 89.28C426.775 89.28 427.875 90.32 427.875 92.34V98.5Z" fill="#212832"/>
<rect x="0.5" y="66.5" width="616" height="49" stroke="black" stroke-opacity="0.5"/>
<rect y="180" width="617" height="50" fill="white"/>
<path d="M24.6 208.44C26.08 208.44 27.24 207.3 27.24 205.84C27.24 204.36 26.08 203.22 24.6 203.22C23.16 203.22 22 204.36 22 205.84C22 207.3 23.16 208.44 24.6 208.44ZM50.5089 212.5H52.9089L47.9289 198.58H45.2889L40.3089 212.5H42.6889L43.6889 209.66H49.5089L50.5089 212.5ZM48.8689 207.8H44.3289L46.6089 201.34L48.8689 207.8ZM54.3142 206.94C54.3142 210.34 56.6142 212.68 59.5142 212.68C61.3142 212.68 62.6342 211.84 63.3342 210.84V212.5H65.6342V197.7H63.3342V203.02C62.4942 201.98 60.9742 201.3 59.5342 201.3C56.6142 201.3 54.3142 203.54 54.3142 206.94ZM63.3342 206.98C63.3342 209.36 61.7142 210.7 59.9942 210.7C58.2942 210.7 56.6542 209.32 56.6542 206.94C56.6542 204.56 58.2942 203.28 59.9942 203.28C61.7142 203.28 63.3342 204.62 63.3342 206.98ZM67.3289 201.48L71.5089 212.5H74.2289L78.4289 201.48H76.0089L72.8889 210.46L69.7689 201.48H67.3289ZM79.3923 206.94C79.3923 210.34 81.6923 212.68 84.5523 212.68C86.3923 212.68 87.7123 211.8 88.4123 210.86V212.5H90.7123V201.48H88.4123V203.08C87.7323 202.18 86.4523 201.3 84.5923 201.3C81.6923 201.3 79.3923 203.54 79.3923 206.94ZM88.4123 206.98C88.4123 209.36 86.7923 210.7 85.0723 210.7C83.3723 210.7 81.7323 209.32 81.7323 206.94C81.7323 204.56 83.3723 203.28 85.0723 203.28C86.7923 203.28 88.4123 204.62 88.4123 206.98ZM101.527 212.5H103.787V206C103.787 202.92 101.847 201.3 99.267 201.3C97.947 201.3 96.727 201.84 95.987 202.74V201.48H93.707V212.5H95.987V206.34C95.987 204.32 97.087 203.28 98.767 203.28C100.427 203.28 101.527 204.32 101.527 206.34V212.5ZM105.935 206.98C105.935 210.44 108.175 212.68 111.335 212.68C114.035 212.68 115.795 211.18 116.415 209.02H113.955C113.535 210.16 112.695 210.76 111.335 210.76C109.495 210.76 108.275 209.4 108.275 206.98C108.275 204.58 109.495 203.22 111.335 203.22C112.695 203.22 113.575 203.9 113.955 204.96H116.415C115.795 202.64 114.035 201.3 111.335 201.3C108.175 201.3 105.935 203.54 105.935 206.98ZM123.328 203.22C125.028 203.22 126.368 204.3 126.408 206H120.308C120.548 204.26 121.788 203.22 123.328 203.22ZM128.487 209.22H126.028C125.608 210.08 124.828 210.76 123.428 210.76C121.748 210.76 120.448 209.66 120.288 207.84H128.708C128.768 207.46 128.788 207.1 128.788 206.72C128.788 203.48 126.568 201.3 123.428 201.3C120.168 201.3 117.928 203.52 117.928 206.98C117.928 210.44 120.268 212.68 123.428 212.68C126.128 212.68 127.868 211.14 128.487 209.22ZM130.271 206.94C130.271 210.34 132.571 212.68 135.471 212.68C137.271 212.68 138.591 211.84 139.291 210.84V212.5H141.591V197.7H139.291V203.02C138.451 201.98 136.931 201.3 135.491 201.3C132.571 201.3 130.271 203.54 130.271 206.94ZM139.291 206.98C139.291 209.36 137.671 210.7 135.951 210.7C134.251 210.7 132.611 209.32 132.611 206.94C132.611 204.56 134.251 203.28 135.951 203.28C137.671 203.28 139.291 204.62 139.291 206.98ZM159.161 208.56C159.161 203.48 151.801 205.44 151.801 202.3C151.801 200.96 152.821 200.32 154.141 200.36C155.581 200.4 156.401 201.26 156.481 202.2H159.001C158.801 199.82 156.921 198.42 154.261 198.42C151.421 198.42 149.481 199.94 149.481 202.38C149.481 207.5 156.861 205.32 156.861 208.68C156.861 209.86 155.961 210.72 154.361 210.72C152.781 210.72 151.981 209.8 151.881 208.66H149.441C149.441 211.12 151.581 212.64 154.361 212.64C157.461 212.64 159.161 210.64 159.161 208.56ZM172.352 206.98C172.352 203.52 169.872 201.3 166.732 201.3C163.592 201.3 161.112 203.52 161.112 206.98C161.112 210.44 163.492 212.68 166.632 212.68C169.792 212.68 172.352 210.44 172.352 206.98ZM163.432 206.98C163.432 204.48 164.972 203.28 166.692 203.28C168.392 203.28 170.012 204.48 170.012 206.98C170.012 209.48 168.332 210.7 166.632 210.7C164.912 210.7 163.432 209.48 163.432 206.98ZM174.885 212.5H177.185V203.34H179.225V201.48H177.185V200.7C177.185 199.44 177.665 198.96 179.065 198.96V197.06C176.185 197.06 174.885 198.16 174.885 200.7V201.48H173.585V203.34H174.885V212.5ZM181.606 209.44C181.606 211.68 182.826 212.5 184.786 212.5H186.586V210.6H185.186C184.226 210.6 183.906 210.26 183.906 209.44V203.34H186.586V201.48H183.906V198.74H181.606V201.48H180.306V203.34H181.606V209.44ZM190.828 212.5H193.228L195.448 204.36L197.668 212.5H200.068L203.488 201.48H201.248L198.968 210.3L196.728 201.48H194.348L192.008 210.34L189.708 201.48H187.388L190.828 212.5ZM204.431 206.94C204.431 210.34 206.731 212.68 209.591 212.68C211.431 212.68 212.751 211.8 213.451 210.86V212.5H215.751V201.48H213.451V203.08C212.771 202.18 211.491 201.3 209.631 201.3C206.731 201.3 204.431 203.54 204.431 206.94ZM213.451 206.98C213.451 209.36 211.831 210.7 210.111 210.7C208.411 210.7 206.771 209.32 206.771 206.94C206.771 204.56 208.411 203.28 210.111 203.28C211.831 203.28 213.451 204.62 213.451 206.98ZM221.026 206.7C221.026 204.36 222.066 203.66 223.746 203.66H224.326V201.3C222.766 201.3 221.666 201.98 221.026 203.08V201.48H218.746V212.5H221.026V206.7ZM231.062 203.22C232.762 203.22 234.102 204.3 234.142 206H228.042C228.282 204.26 229.522 203.22 231.062 203.22ZM236.222 209.22H233.762C233.342 210.08 232.562 210.76 231.162 210.76C229.482 210.76 228.182 209.66 228.022 207.84H236.442C236.502 207.46 236.522 207.1 236.522 206.72C236.522 203.48 234.302 201.3 231.162 201.3C227.902 201.3 225.662 203.52 225.662 206.98C225.662 210.44 228.002 212.68 231.162 212.68C233.862 212.68 235.602 211.14 236.222 209.22ZM251.641 198.58H243.961V212.5H251.641V210.64H246.241V206.38H251.041V204.52H246.241V200.44H251.641V198.58ZM262.269 212.5H264.529V206C264.529 202.92 262.589 201.3 260.009 201.3C258.689 201.3 257.469 201.84 256.729 202.74V201.48H254.449V212.5H256.729V206.34C256.729 204.32 257.829 203.28 259.509 203.28C261.169 203.28 262.269 204.32 262.269 206.34V212.5ZM266.678 206.94C266.678 210.34 268.978 212.68 271.878 212.68C273.678 212.68 274.998 211.78 275.698 210.84V212.68C275.698 214.88 274.378 215.96 272.618 215.96C271.038 215.96 269.818 215.18 269.478 214.04H267.218C267.498 216.48 269.678 217.94 272.618 217.94C276.058 217.94 277.998 215.68 277.998 212.68V201.48H275.698V203.08C275.018 202.14 273.678 201.3 271.878 201.3C268.978 201.3 266.678 203.54 266.678 206.94ZM275.698 206.98C275.698 209.36 274.078 210.7 272.358 210.7C270.658 210.7 269.018 209.32 269.018 206.94C269.018 204.56 270.658 203.28 272.358 203.28C274.078 203.28 275.698 204.62 275.698 206.98ZM280.992 212.5H283.272V201.48H280.992V212.5ZM282.152 200.02C282.952 200.02 283.592 199.38 283.592 198.56C283.592 197.74 282.952 197.1 282.152 197.1C281.332 197.1 280.692 197.74 280.692 198.56C280.692 199.38 281.332 200.02 282.152 200.02ZM294.086 212.5H296.346V206C296.346 202.92 294.406 201.3 291.826 201.3C290.506 201.3 289.286 201.84 288.546 202.74V201.48H286.266V212.5H288.546V206.34C288.546 204.32 289.646 203.28 291.326 203.28C292.986 203.28 294.086 204.32 294.086 206.34V212.5ZM303.894 203.22C305.594 203.22 306.934 204.3 306.974 206H300.874C301.114 204.26 302.354 203.22 303.894 203.22ZM309.054 209.22H306.594C306.174 210.08 305.394 210.76 303.994 210.76C302.314 210.76 301.014 209.66 300.854 207.84H309.274C309.334 207.46 309.354 207.1 309.354 206.72C309.354 203.48 307.134 201.3 303.994 201.3C300.734 201.3 298.494 203.52 298.494 206.98C298.494 210.44 300.834 212.68 303.994 212.68C306.694 212.68 308.434 211.14 309.054 209.22ZM316.238 203.22C317.938 203.22 319.278 204.3 319.318 206H313.218C313.458 204.26 314.698 203.22 316.238 203.22ZM321.398 209.22H318.938C318.518 210.08 317.738 210.76 316.338 210.76C314.658 210.76 313.358 209.66 313.198 207.84H321.618C321.678 207.46 321.698 207.1 321.698 206.72C321.698 203.48 319.478 201.3 316.338 201.3C313.078 201.3 310.838 203.52 310.838 206.98C310.838 210.44 313.178 212.68 316.338 212.68C319.038 212.68 320.778 211.14 321.398 209.22ZM326.221 206.7C326.221 204.36 327.261 203.66 328.941 203.66H329.521V201.3C327.961 201.3 326.861 201.98 326.221 203.08V201.48H323.941V212.5H326.221V206.7ZM331.617 212.5H333.897V201.48H331.617V212.5ZM332.777 200.02C333.577 200.02 334.217 199.38 334.217 198.56C334.217 197.74 333.577 197.1 332.777 197.1C331.957 197.1 331.317 197.74 331.317 198.56C331.317 199.38 331.957 200.02 332.777 200.02ZM344.711 212.5H346.971V206C346.971 202.92 345.031 201.3 342.451 201.3C341.131 201.3 339.911 201.84 339.171 202.74V201.48H336.891V212.5H339.171V206.34C339.171 204.32 340.271 203.28 341.951 203.28C343.611 203.28 344.711 204.32 344.711 206.34V212.5ZM349.119 206.94C349.119 210.34 351.419 212.68 354.319 212.68C356.119 212.68 357.439 211.78 358.139 210.84V212.68C358.139 214.88 356.819 215.96 355.059 215.96C353.479 215.96 352.259 215.18 351.919 214.04H349.659C349.939 216.48 352.119 217.94 355.059 217.94C358.499 217.94 360.439 215.68 360.439 212.68V201.48H358.139V203.08C357.459 202.14 356.119 201.3 354.319 201.3C351.419 201.3 349.119 203.54 349.119 206.94ZM358.139 206.98C358.139 209.36 356.519 210.7 354.799 210.7C353.099 210.7 351.459 209.32 351.459 206.94C351.459 204.56 353.099 203.28 354.799 203.28C356.519 203.28 358.139 204.62 358.139 206.98Z" fill="#212832"/>
<rect x="0.5" y="180.5" width="616" height="49" stroke="black" stroke-opacity="0.5"/>
<rect y="123" width="617" height="50" fill="white"/>
<path d="M24.6 151.44C26.08 151.44 27.24 150.3 27.24 148.84C27.24 147.36 26.08 146.22 24.6 146.22C23.16 146.22 22 147.36 22 148.84C22 150.3 23.16 151.44 24.6 151.44ZM50.5089 155.5H52.9089L47.9289 141.58H45.2889L40.3089 155.5H42.6889L43.6889 152.66H49.5089L50.5089 155.5ZM48.8689 150.8H44.3289L46.6089 144.34L48.8689 150.8ZM54.3142 149.94C54.3142 153.34 56.6142 155.68 59.5142 155.68C61.3142 155.68 62.6342 154.84 63.3342 153.84V155.5H65.6342V140.7H63.3342V146.02C62.4942 144.98 60.9742 144.3 59.5342 144.3C56.6142 144.3 54.3142 146.54 54.3142 149.94ZM63.3342 149.98C63.3342 152.36 61.7142 153.7 59.9942 153.7C58.2942 153.7 56.6542 152.32 56.6542 149.94C56.6542 147.56 58.2942 146.28 59.9942 146.28C61.7142 146.28 63.3342 147.62 63.3342 149.98ZM67.3289 144.48L71.5089 155.5H74.2289L78.4289 144.48H76.0089L72.8889 153.46L69.7689 144.48H67.3289ZM79.3923 149.94C79.3923 153.34 81.6923 155.68 84.5523 155.68C86.3923 155.68 87.7123 154.8 88.4123 153.86V155.5H90.7123V144.48H88.4123V146.08C87.7323 145.18 86.4523 144.3 84.5923 144.3C81.6923 144.3 79.3923 146.54 79.3923 149.94ZM88.4123 149.98C88.4123 152.36 86.7923 153.7 85.0723 153.7C83.3723 153.7 81.7323 152.32 81.7323 149.94C81.7323 147.56 83.3723 146.28 85.0723 146.28C86.7923 146.28 88.4123 147.62 88.4123 149.98ZM101.527 155.5H103.787V149C103.787 145.92 101.847 144.3 99.267 144.3C97.947 144.3 96.727 144.84 95.987 145.74V144.48H93.707V155.5H95.987V149.34C95.987 147.32 97.087 146.28 98.767 146.28C100.427 146.28 101.527 147.32 101.527 149.34V155.5ZM105.935 149.98C105.935 153.44 108.175 155.68 111.335 155.68C114.035 155.68 115.795 154.18 116.415 152.02H113.955C113.535 153.16 112.695 153.76 111.335 153.76C109.495 153.76 108.275 152.4 108.275 149.98C108.275 147.58 109.495 146.22 111.335 146.22C112.695 146.22 113.575 146.9 113.955 147.96H116.415C115.795 145.64 114.035 144.3 111.335 144.3C108.175 144.3 105.935 146.54 105.935 149.98ZM123.328 146.22C125.028 146.22 126.368 147.3 126.408 149H120.308C120.548 147.26 121.788 146.22 123.328 146.22ZM128.487 152.22H126.028C125.608 153.08 124.828 153.76 123.428 153.76C121.748 153.76 120.448 152.66 120.288 150.84H128.708C128.768 150.46 128.788 150.1 128.788 149.72C128.788 146.48 126.568 144.3 123.428 144.3C120.168 144.3 117.928 146.52 117.928 149.98C117.928 153.44 120.268 155.68 123.428 155.68C126.128 155.68 127.868 154.14 128.487 152.22ZM130.271 149.94C130.271 153.34 132.571 155.68 135.471 155.68C137.271 155.68 138.591 154.84 139.291 153.84V155.5H141.591V140.7H139.291V146.02C138.451 144.98 136.931 144.3 135.491 144.3C132.571 144.3 130.271 146.54 130.271 149.94ZM139.291 149.98C139.291 152.36 137.671 153.7 135.951 153.7C134.251 153.7 132.611 152.32 132.611 149.94C132.611 147.56 134.251 146.28 135.951 146.28C137.671 146.28 139.291 147.62 139.291 149.98ZM152.601 155.52L155.161 155.5L158.261 144.98L161.181 155.5H163.761L167.881 141.6H165.441L162.541 152.86L159.641 141.6H157.081L153.961 152.92L151.081 141.6H148.661L152.601 155.52ZM174.402 146.22C176.102 146.22 177.442 147.3 177.482 149H171.382C171.622 147.26 172.862 146.22 174.402 146.22ZM179.562 152.22H177.102C176.682 153.08 175.902 153.76 174.502 153.76C172.822 153.76 171.522 152.66 171.362 150.84H179.782C179.842 150.46 179.862 150.1 179.862 149.72C179.862 146.48 177.642 144.3 174.502 144.3C171.242 144.3 169.002 146.52 169.002 149.98C169.002 153.44 171.342 155.68 174.502 155.68C177.202 155.68 178.942 154.14 179.562 152.22ZM184.385 146.12V140.7H182.105V155.5H184.385V153.9C185.105 154.86 186.405 155.68 188.225 155.68C191.125 155.68 193.405 153.34 193.405 149.94C193.405 146.54 191.145 144.3 188.225 144.3C186.485 144.3 185.105 145.12 184.385 146.12ZM191.085 149.94C191.085 152.32 189.445 153.7 187.725 153.7C186.025 153.7 184.385 152.36 184.385 149.98C184.385 147.62 186.025 146.28 187.725 146.28C189.445 146.28 191.085 147.56 191.085 149.94ZM200.135 143.46H203.855V155.5H206.135V143.46H209.835V141.6H200.135V143.46ZM216.785 146.22C218.485 146.22 219.825 147.3 219.865 149H213.765C214.005 147.26 215.245 146.22 216.785 146.22ZM221.945 152.22H219.485C219.065 153.08 218.285 153.76 216.885 153.76C215.205 153.76 213.905 152.66 213.745 150.84H222.165C222.225 150.46 222.245 150.1 222.245 149.72C222.245 146.48 220.025 144.3 216.885 144.3C213.625 144.3 211.385 146.52 211.385 149.98C211.385 153.44 213.725 155.68 216.885 155.68C219.585 155.68 221.325 154.14 221.945 152.22ZM223.728 149.98C223.728 153.44 225.968 155.68 229.128 155.68C231.828 155.68 233.588 154.18 234.208 152.02H231.748C231.328 153.16 230.488 153.76 229.128 153.76C227.288 153.76 226.068 152.4 226.068 149.98C226.068 147.58 227.288 146.22 229.128 146.22C230.488 146.22 231.368 146.9 231.748 147.96H234.208C233.588 145.64 231.828 144.3 229.128 144.3C225.968 144.3 223.728 146.54 223.728 149.98ZM236.48 155.5H238.76V149.34C238.76 147.32 239.86 146.28 241.54 146.28C243.2 146.28 244.3 147.32 244.3 149.34V155.5H246.56V149C246.56 145.92 244.64 144.3 242.18 144.3C240.76 144.3 239.52 144.84 238.76 145.76V140.7H236.48V155.5ZM257.289 155.5H259.549V149C259.549 145.92 257.609 144.3 255.029 144.3C253.709 144.3 252.489 144.84 251.749 145.74V144.48H249.469V155.5H251.749V149.34C251.749 147.32 252.849 146.28 254.529 146.28C256.189 146.28 257.289 147.32 257.289 149.34V155.5ZM272.957 149.98C272.957 146.52 270.477 144.3 267.337 144.3C264.197 144.3 261.717 146.52 261.717 149.98C261.717 153.44 264.097 155.68 267.237 155.68C270.397 155.68 272.957 153.44 272.957 149.98ZM264.037 149.98C264.037 147.48 265.577 146.28 267.297 146.28C268.997 146.28 270.617 147.48 270.617 149.98C270.617 152.48 268.937 153.7 267.237 153.7C265.517 153.7 264.037 152.48 264.037 149.98ZM275.211 155.5H277.491V140.7H275.211V155.5ZM290.984 149.98C290.984 146.52 288.504 144.3 285.364 144.3C282.224 144.3 279.744 146.52 279.744 149.98C279.744 153.44 282.124 155.68 285.264 155.68C288.424 155.68 290.984 153.44 290.984 149.98ZM282.064 149.98C282.064 147.48 283.604 146.28 285.324 146.28C287.024 146.28 288.644 147.48 288.644 149.98C288.644 152.48 286.964 153.7 285.264 153.7C283.544 153.7 282.064 152.48 282.064 149.98ZM292.478 149.94C292.478 153.34 294.778 155.68 297.678 155.68C299.478 155.68 300.798 154.78 301.498 153.84V155.68C301.498 157.88 300.178 158.96 298.418 158.96C296.838 158.96 295.618 158.18 295.278 157.04H293.018C293.298 159.48 295.478 160.94 298.418 160.94C301.858 160.94 303.798 158.68 303.798 155.68V144.48H301.498V146.08C300.818 145.14 299.478 144.3 297.678 144.3C294.778 144.3 292.478 146.54 292.478 149.94ZM301.498 149.98C301.498 152.36 299.878 153.7 298.158 153.7C296.458 153.7 294.818 152.32 294.818 149.94C294.818 147.56 296.458 146.28 298.158 146.28C299.878 146.28 301.498 147.62 301.498 149.98ZM306.793 155.5H309.073V144.48H306.793V155.5ZM307.953 143.02C308.753 143.02 309.393 142.38 309.393 141.56C309.393 140.74 308.753 140.1 307.953 140.1C307.133 140.1 306.493 140.74 306.493 141.56C306.493 142.38 307.133 143.02 307.953 143.02ZM316.706 146.22C318.406 146.22 319.746 147.3 319.786 149H313.686C313.926 147.26 315.166 146.22 316.706 146.22ZM321.866 152.22H319.406C318.986 153.08 318.206 153.76 316.806 153.76C315.126 153.76 313.826 152.66 313.666 150.84H322.086C322.146 150.46 322.166 150.1 322.166 149.72C322.166 146.48 319.946 144.3 316.806 144.3C313.546 144.3 311.306 146.52 311.306 149.98C311.306 153.44 313.646 155.68 316.806 155.68C319.506 155.68 321.246 154.14 321.866 152.22ZM332.63 152.42C332.51 148.44 326.29 149.68 326.29 147.46C326.29 146.72 326.93 146.22 328.15 146.22C329.39 146.22 330.13 146.88 330.21 147.84H332.49C332.37 145.64 330.73 144.3 328.23 144.3C325.63 144.3 323.99 145.72 323.99 147.48C323.99 151.52 330.39 150.28 330.39 152.44C330.39 153.2 329.69 153.76 328.37 153.76C327.11 153.76 326.25 153.02 326.17 152.12H323.81C323.91 154.12 325.77 155.68 328.41 155.68C331.01 155.68 332.63 154.28 332.63 152.42Z" fill="#212832"/>
<rect x="0.5" y="123.5" width="616" height="49" stroke="black" stroke-opacity="0.5"/>
<rect y="237" width="617" height="50" fill="white"/>
<path d="M24.6 265.44C26.08 265.44 27.24 264.3 27.24 262.84C27.24 261.36 26.08 260.22 24.6 260.22C23.16 260.22 22 261.36 22 262.84C22 264.3 23.16 265.44 24.6 265.44ZM40.3689 262.52C40.3689 266.7 43.5489 269.62 47.4689 269.62C50.3689 269.62 52.8689 268.18 53.9289 265.46H51.1889C50.4489 266.94 49.1289 267.64 47.4689 267.64C44.7089 267.64 42.7089 265.66 42.7089 262.52C42.7089 259.38 44.7089 257.42 47.4689 257.42C49.1289 257.42 50.4489 258.12 51.1889 259.6H53.9289C52.8689 256.88 50.3689 255.42 47.4689 255.42C43.5489 255.42 40.3689 258.36 40.3689 262.52ZM56.5977 269.5H58.8777V254.7H56.5977V269.5ZM72.3711 263.98C72.3711 260.52 69.8911 258.3 66.7511 258.3C63.6111 258.3 61.1311 260.52 61.1311 263.98C61.1311 267.44 63.5111 269.68 66.6511 269.68C69.8111 269.68 72.3711 267.44 72.3711 263.98ZM63.4511 263.98C63.4511 261.48 64.9911 260.28 66.7111 260.28C68.4111 260.28 70.0311 261.48 70.0311 263.98C70.0311 266.48 68.3511 267.7 66.6511 267.7C64.9311 267.7 63.4511 266.48 63.4511 263.98ZM84.605 258.48H82.325V264.62C82.325 266.64 81.225 267.68 79.545 267.68C77.885 267.68 76.785 266.64 76.785 264.62V258.48H74.525V264.96C74.525 268.04 76.485 269.66 79.065 269.66C80.365 269.66 81.605 269.12 82.325 268.18V269.5H84.605V258.48ZM86.8533 263.94C86.8533 267.34 89.1533 269.68 92.0533 269.68C93.8533 269.68 95.1733 268.84 95.8733 267.84V269.5H98.1733V254.7H95.8733V260.02C95.0333 258.98 93.5133 258.3 92.0733 258.3C89.1533 258.3 86.8533 260.54 86.8533 263.94ZM95.8733 263.98C95.8733 266.36 94.2533 267.7 92.5333 267.7C90.8333 267.7 89.1933 266.32 89.1933 263.94C89.1933 261.56 90.8333 260.28 92.5333 260.28C94.2533 260.28 95.8733 261.62 95.8733 263.98ZM106.363 269.5H108.643V255.6H106.363V269.5ZM119.457 269.5H121.717V263C121.717 259.92 119.777 258.3 117.197 258.3C115.877 258.3 114.657 258.84 113.917 259.74V258.48H111.637V269.5H113.917V263.34C113.917 261.32 115.017 260.28 116.697 260.28C118.357 260.28 119.457 261.32 119.457 263.34V269.5ZM124.905 269.5H127.205V260.34H129.245V258.48H127.205V257.7C127.205 256.44 127.685 255.96 129.085 255.96V254.06C126.205 254.06 124.905 255.16 124.905 257.7V258.48H123.605V260.34H124.905V269.5ZM133.546 263.7C133.546 261.36 134.586 260.66 136.266 260.66H136.846V258.3C135.286 258.3 134.186 258.98 133.546 260.08V258.48H131.266V269.5H133.546V263.7ZM138.181 263.94C138.181 267.34 140.481 269.68 143.341 269.68C145.181 269.68 146.501 268.8 147.201 267.86V269.5H149.501V258.48H147.201V260.08C146.521 259.18 145.241 258.3 143.381 258.3C140.481 258.3 138.181 260.54 138.181 263.94ZM147.201 263.98C147.201 266.36 145.581 267.7 143.861 267.7C142.161 267.7 140.521 266.32 140.521 263.94C140.521 261.56 142.161 260.28 143.861 260.28C145.581 260.28 147.201 261.62 147.201 263.98ZM160.716 266.42C160.596 262.44 154.376 263.68 154.376 261.46C154.376 260.72 155.016 260.22 156.236 260.22C157.476 260.22 158.216 260.88 158.296 261.84H160.576C160.456 259.64 158.816 258.3 156.316 258.3C153.716 258.3 152.076 259.72 152.076 261.48C152.076 265.52 158.476 264.28 158.476 266.44C158.476 267.2 157.776 267.76 156.456 267.76C155.196 267.76 154.336 267.02 154.256 266.12H151.896C151.996 268.12 153.856 269.68 156.496 269.68C159.096 269.68 160.716 268.28 160.716 266.42ZM163.54 266.44C163.54 268.68 164.76 269.5 166.72 269.5H168.52V267.6H167.12C166.16 267.6 165.84 267.26 165.84 266.44V260.34H168.52V258.48H165.84V255.74H163.54V258.48H162.24V260.34H163.54V266.44ZM172.901 263.7C172.901 261.36 173.941 260.66 175.621 260.66H176.201V258.3C174.641 258.3 173.541 258.98 172.901 260.08V258.48H170.621V269.5H172.901V263.7ZM188.277 258.48H185.997V264.62C185.997 266.64 184.897 267.68 183.217 267.68C181.557 267.68 180.457 266.64 180.457 264.62V258.48H178.197V264.96C178.197 268.04 180.157 269.66 182.737 269.66C184.037 269.66 185.277 269.12 185.997 268.18V269.5H188.277V258.48ZM190.525 263.98C190.525 267.44 192.765 269.68 195.925 269.68C198.625 269.68 200.385 268.18 201.005 266.02H198.545C198.125 267.16 197.285 267.76 195.925 267.76C194.085 267.76 192.865 266.4 192.865 263.98C192.865 261.58 194.085 260.22 195.925 260.22C197.285 260.22 198.165 260.9 198.545 261.96H201.005C200.385 259.64 198.625 258.3 195.925 258.3C192.765 258.3 190.525 260.54 190.525 263.98ZM203.637 266.44C203.637 268.68 204.857 269.5 206.817 269.5H208.617V267.6H207.217C206.257 267.6 205.937 267.26 205.937 266.44V260.34H208.617V258.48H205.937V255.74H203.637V258.48H202.337V260.34H203.637V266.44ZM220.699 258.48H218.419V264.62C218.419 266.64 217.319 267.68 215.639 267.68C213.979 267.68 212.879 266.64 212.879 264.62V258.48H210.619V264.96C210.619 268.04 212.579 269.66 215.159 269.66C216.459 269.66 217.699 269.12 218.419 268.18V269.5H220.699V258.48ZM225.987 263.7C225.987 261.36 227.027 260.66 228.707 260.66H229.287V258.3C227.727 258.3 226.627 258.98 225.987 260.08V258.48H223.707V269.5H225.987V263.7ZM236.023 260.22C237.723 260.22 239.063 261.3 239.103 263H233.003C233.243 261.26 234.483 260.22 236.023 260.22ZM241.183 266.22H238.723C238.303 267.08 237.523 267.76 236.123 267.76C234.443 267.76 233.143 266.66 232.983 264.84H241.403C241.463 264.46 241.483 264.1 241.483 263.72C241.483 260.48 239.263 258.3 236.123 258.3C232.863 258.3 230.623 260.52 230.623 263.98C230.623 267.44 232.963 269.68 236.123 269.68C238.823 269.68 240.563 268.14 241.183 266.22ZM248.162 263.94C248.162 267.34 250.462 269.68 253.322 269.68C255.162 269.68 256.482 268.8 257.182 267.86V269.5H259.482V258.48H257.182V260.08C256.502 259.18 255.222 258.3 253.362 258.3C250.462 258.3 248.162 260.54 248.162 263.94ZM257.182 263.98C257.182 266.36 255.562 267.7 253.842 267.7C252.142 267.7 250.502 266.32 250.502 263.94C250.502 261.56 252.142 260.28 253.842 260.28C255.562 260.28 257.182 261.62 257.182 263.98ZM270.297 269.5H272.557V263C272.557 259.92 270.617 258.3 268.037 258.3C266.717 258.3 265.497 258.84 264.757 259.74V258.48H262.477V269.5H264.757V263.34C264.757 261.32 265.857 260.28 267.537 260.28C269.197 260.28 270.297 261.32 270.297 263.34V269.5ZM274.705 263.94C274.705 267.34 277.005 269.68 279.905 269.68C281.705 269.68 283.025 268.84 283.725 267.84V269.5H286.025V254.7H283.725V260.02C282.885 258.98 281.365 258.3 279.925 258.3C277.005 258.3 274.705 260.54 274.705 263.94ZM283.725 263.98C283.725 266.36 282.105 267.7 280.385 267.7C278.685 267.7 277.045 266.32 277.045 263.94C277.045 261.56 278.685 260.28 280.385 260.28C282.105 260.28 283.725 261.62 283.725 263.98ZM303.595 265.56C303.595 260.48 296.235 262.44 296.235 259.3C296.235 257.96 297.255 257.32 298.575 257.36C300.015 257.4 300.835 258.26 300.915 259.2H303.435C303.235 256.82 301.355 255.42 298.695 255.42C295.855 255.42 293.915 256.94 293.915 259.38C293.915 264.5 301.295 262.32 301.295 265.68C301.295 266.86 300.395 267.72 298.795 267.72C297.215 267.72 296.415 266.8 296.315 265.66H293.875C293.875 268.12 296.015 269.64 298.795 269.64C301.895 269.64 303.595 267.64 303.595 265.56ZM310.925 260.22C312.625 260.22 313.965 261.3 314.005 263H307.905C308.145 261.26 309.385 260.22 310.925 260.22ZM316.085 266.22H313.625C313.205 267.08 312.425 267.76 311.025 267.76C309.345 267.76 308.045 266.66 307.885 264.84H316.305C316.365 264.46 316.385 264.1 316.385 263.72C316.385 260.48 314.165 258.3 311.025 258.3C307.765 258.3 305.525 260.52 305.525 263.98C305.525 267.44 307.865 269.68 311.025 269.68C313.725 269.68 315.465 268.14 316.085 266.22ZM320.909 263.7C320.909 261.36 321.949 260.66 323.629 260.66H324.209V258.3C322.649 258.3 321.549 258.98 320.909 260.08V258.48H318.629V269.5H320.909V263.7ZM325.005 258.48L329.185 269.5H331.905L336.105 258.48H333.685L330.565 267.46L327.445 258.48H325.005ZM337.828 269.5H340.108V258.48H337.828V269.5ZM338.988 257.02C339.788 257.02 340.428 256.38 340.428 255.56C340.428 254.74 339.788 254.1 338.988 254.1C338.168 254.1 337.528 254.74 337.528 255.56C337.528 256.38 338.168 257.02 338.988 257.02ZM342.342 263.98C342.342 267.44 344.582 269.68 347.742 269.68C350.442 269.68 352.202 268.18 352.822 266.02H350.362C349.942 267.16 349.102 267.76 347.742 267.76C345.902 267.76 344.682 266.4 344.682 263.98C344.682 261.58 345.902 260.22 347.742 260.22C349.102 260.22 349.982 260.9 350.362 261.96H352.822C352.202 259.64 350.442 258.3 347.742 258.3C344.582 258.3 342.342 260.54 342.342 263.98ZM359.734 260.22C361.434 260.22 362.774 261.3 362.814 263H356.714C356.954 261.26 358.194 260.22 359.734 260.22ZM364.894 266.22H362.434C362.014 267.08 361.234 267.76 359.834 267.76C358.154 267.76 356.854 266.66 356.694 264.84H365.114C365.174 264.46 365.194 264.1 365.194 263.72C365.194 260.48 362.974 258.3 359.834 258.3C356.574 258.3 354.334 260.52 354.334 263.98C354.334 267.44 356.674 269.68 359.834 269.68C362.534 269.68 364.274 268.14 364.894 266.22ZM375.658 266.42C375.538 262.44 369.318 263.68 369.318 261.46C369.318 260.72 369.958 260.22 371.178 260.22C372.418 260.22 373.158 260.88 373.238 261.84H375.518C375.398 259.64 373.758 258.3 371.258 258.3C368.658 258.3 367.018 259.72 367.018 261.48C367.018 265.52 373.418 264.28 373.418 266.44C373.418 267.2 372.718 267.76 371.398 267.76C370.138 267.76 369.278 267.02 369.198 266.12H366.838C366.938 268.12 368.798 269.68 371.438 269.68C374.038 269.68 375.658 268.28 375.658 266.42Z" fill="#212832"/>
<rect x="0.5" y="237.5" width="616" height="49" stroke="black" stroke-opacity="0.5"/>
<rect y="294" width="617" height="50" fill="white"/>
<path d="M24.6 322.44C26.08 322.44 27.24 321.3 27.24 319.84C27.24 318.36 26.08 317.22 24.6 317.22C23.16 317.22 22 318.36 22 319.84C22 321.3 23.16 322.44 24.6 322.44ZM50.5089 326.5H52.9089L47.9289 312.58H45.2889L40.3089 326.5H42.6889L43.6889 323.66H49.5089L50.5089 326.5ZM48.8689 321.8H44.3289L46.6089 315.34L48.8689 321.8ZM54.3142 320.94C54.3142 324.34 56.6142 326.68 59.5142 326.68C61.3142 326.68 62.6342 325.84 63.3342 324.84V326.5H65.6342V311.7H63.3342V317.02C62.4942 315.98 60.9742 315.3 59.5342 315.3C56.6142 315.3 54.3142 317.54 54.3142 320.94ZM63.3342 320.98C63.3342 323.36 61.7142 324.7 59.9942 324.7C58.2942 324.7 56.6542 323.32 56.6542 320.94C56.6542 318.56 58.2942 317.28 59.9942 317.28C61.7142 317.28 63.3342 318.62 63.3342 320.98ZM67.3289 315.48L71.5089 326.5H74.2289L78.4289 315.48H76.0089L72.8889 324.46L69.7689 315.48H67.3289ZM79.3923 320.94C79.3923 324.34 81.6923 326.68 84.5523 326.68C86.3923 326.68 87.7123 325.8 88.4123 324.86V326.5H90.7123V315.48H88.4123V317.08C87.7323 316.18 86.4523 315.3 84.5923 315.3C81.6923 315.3 79.3923 317.54 79.3923 320.94ZM88.4123 320.98C88.4123 323.36 86.7923 324.7 85.0723 324.7C83.3723 324.7 81.7323 323.32 81.7323 320.94C81.7323 318.56 83.3723 317.28 85.0723 317.28C86.7923 317.28 88.4123 318.62 88.4123 320.98ZM101.527 326.5H103.787V320C103.787 316.92 101.847 315.3 99.267 315.3C97.947 315.3 96.727 315.84 95.987 316.74V315.48H93.707V326.5H95.987V320.34C95.987 318.32 97.087 317.28 98.767 317.28C100.427 317.28 101.527 318.32 101.527 320.34V326.5ZM105.935 320.98C105.935 324.44 108.175 326.68 111.335 326.68C114.035 326.68 115.795 325.18 116.415 323.02H113.955C113.535 324.16 112.695 324.76 111.335 324.76C109.495 324.76 108.275 323.4 108.275 320.98C108.275 318.58 109.495 317.22 111.335 317.22C112.695 317.22 113.575 317.9 113.955 318.96H116.415C115.795 316.64 114.035 315.3 111.335 315.3C108.175 315.3 105.935 317.54 105.935 320.98ZM123.328 317.22C125.028 317.22 126.368 318.3 126.408 320H120.308C120.548 318.26 121.788 317.22 123.328 317.22ZM128.487 323.22H126.028C125.608 324.08 124.828 324.76 123.428 324.76C121.748 324.76 120.448 323.66 120.288 321.84H128.708C128.768 321.46 128.788 321.1 128.788 320.72C128.788 317.48 126.568 315.3 123.428 315.3C120.168 315.3 117.928 317.52 117.928 320.98C117.928 324.44 120.268 326.68 123.428 326.68C126.128 326.68 127.868 325.14 128.487 323.22ZM130.271 320.94C130.271 324.34 132.571 326.68 135.471 326.68C137.271 326.68 138.591 325.84 139.291 324.84V326.5H141.591V311.7H139.291V317.02C138.451 315.98 136.931 315.3 135.491 315.3C132.571 315.3 130.271 317.54 130.271 320.94ZM139.291 320.98C139.291 323.36 137.671 324.7 135.951 324.7C134.251 324.7 132.611 323.32 132.611 320.94C132.611 318.56 134.251 317.28 135.951 317.28C137.671 317.28 139.291 318.62 139.291 320.98ZM154.321 312.6H149.781V326.5H154.321C158.781 326.5 161.701 323.88 161.701 319.6C161.701 315.3 158.781 312.6 154.321 312.6ZM152.061 324.64V314.46H154.321C157.601 314.46 159.361 316.42 159.361 319.6C159.361 322.76 157.601 324.64 154.321 324.64H152.061ZM163.201 320.94C163.201 324.34 165.501 326.68 168.361 326.68C170.201 326.68 171.521 325.8 172.221 324.86V326.5H174.521V315.48H172.221V317.08C171.541 316.18 170.261 315.3 168.401 315.3C165.501 315.3 163.201 317.54 163.201 320.94ZM172.221 320.98C172.221 323.36 170.601 324.7 168.881 324.7C167.181 324.7 165.541 323.32 165.541 320.94C165.541 318.56 167.181 317.28 168.881 317.28C170.601 317.28 172.221 318.62 172.221 320.98ZM177.876 323.44C177.876 325.68 179.096 326.5 181.056 326.5H182.856V324.6H181.456C180.496 324.6 180.176 324.26 180.176 323.44V317.34H182.856V315.48H180.176V312.74H177.876V315.48H176.576V317.34H177.876V323.44ZM184.197 320.94C184.197 324.34 186.497 326.68 189.357 326.68C191.197 326.68 192.517 325.8 193.217 324.86V326.5H195.517V315.48H193.217V317.08C192.537 316.18 191.257 315.3 189.397 315.3C186.497 315.3 184.197 317.54 184.197 320.94ZM193.217 320.98C193.217 323.36 191.597 324.7 189.877 324.7C188.177 324.7 186.537 323.32 186.537 320.94C186.537 318.56 188.177 317.28 189.877 317.28C191.597 317.28 193.217 318.62 193.217 320.98ZM203.707 326.5H205.987V316.98L210.247 326.5H211.827L216.067 316.98V326.5H218.347V312.6H215.907L211.047 323.5L206.167 312.6H203.707V326.5ZM220.584 320.94C220.584 324.34 222.884 326.68 225.744 326.68C227.584 326.68 228.904 325.8 229.604 324.86V326.5H231.904V315.48H229.604V317.08C228.924 316.18 227.644 315.3 225.784 315.3C222.884 315.3 220.584 317.54 220.584 320.94ZM229.604 320.98C229.604 323.36 227.984 324.7 226.264 324.7C224.564 324.7 222.924 323.32 222.924 320.94C222.924 318.56 224.564 317.28 226.264 317.28C227.984 317.28 229.604 318.62 229.604 320.98ZM242.718 326.5H244.978V320C244.978 316.92 243.038 315.3 240.458 315.3C239.138 315.3 237.918 315.84 237.178 316.74V315.48H234.898V326.5H237.178V320.34C237.178 318.32 238.278 317.28 239.958 317.28C241.618 317.28 242.718 318.32 242.718 320.34V326.5ZM247.127 320.94C247.127 324.34 249.427 326.68 252.287 326.68C254.127 326.68 255.447 325.8 256.147 324.86V326.5H258.447V315.48H256.147V317.08C255.467 316.18 254.187 315.3 252.327 315.3C249.427 315.3 247.127 317.54 247.127 320.94ZM256.147 320.98C256.147 323.36 254.527 324.7 252.807 324.7C251.107 324.7 249.467 323.32 249.467 320.94C249.467 318.56 251.107 317.28 252.807 317.28C254.527 317.28 256.147 318.62 256.147 320.98ZM260.681 320.94C260.681 324.34 262.981 326.68 265.881 326.68C267.681 326.68 269.001 325.78 269.701 324.84V326.68C269.701 328.88 268.381 329.96 266.621 329.96C265.041 329.96 263.821 329.18 263.481 328.04H261.221C261.501 330.48 263.681 331.94 266.621 331.94C270.061 331.94 272.001 329.68 272.001 326.68V315.48H269.701V317.08C269.021 316.14 267.681 315.3 265.881 315.3C262.981 315.3 260.681 317.54 260.681 320.94ZM269.701 320.98C269.701 323.36 268.081 324.7 266.361 324.7C264.661 324.7 263.021 323.32 263.021 320.94C263.021 318.56 264.661 317.28 266.361 317.28C268.081 317.28 269.701 318.62 269.701 320.98ZM279.636 317.22C281.336 317.22 282.676 318.3 282.716 320H276.616C276.856 318.26 278.096 317.22 279.636 317.22ZM284.796 323.22H282.336C281.916 324.08 281.136 324.76 279.736 324.76C278.056 324.76 276.756 323.66 276.596 321.84H285.016C285.076 321.46 285.096 321.1 285.096 320.72C285.096 317.48 282.876 315.3 279.736 315.3C276.476 315.3 274.236 317.52 274.236 320.98C274.236 324.44 276.576 326.68 279.736 326.68C282.436 326.68 284.176 325.14 284.796 323.22ZM302.96 326.5H305.22V320C305.22 316.92 303.26 315.3 300.68 315.3C299.08 315.3 297.52 316.14 296.84 317.48C296.08 316.04 294.62 315.3 292.88 315.3C291.56 315.3 290.36 315.84 289.62 316.74V315.48H287.34V326.5H289.62V320.34C289.62 318.32 290.72 317.28 292.4 317.28C294.06 317.28 295.16 318.32 295.16 320.34V326.5H297.42V320.34C297.42 318.32 298.52 317.28 300.2 317.28C301.86 317.28 302.96 318.32 302.96 320.34V326.5ZM312.761 317.22C314.461 317.22 315.801 318.3 315.841 320H309.741C309.981 318.26 311.221 317.22 312.761 317.22ZM317.921 323.22H315.461C315.041 324.08 314.261 324.76 312.861 324.76C311.181 324.76 309.881 323.66 309.721 321.84H318.141C318.201 321.46 318.221 321.1 318.221 320.72C318.221 317.48 316.001 315.3 312.861 315.3C309.601 315.3 307.361 317.52 307.361 320.98C307.361 324.44 309.701 326.68 312.861 326.68C315.561 326.68 317.301 325.14 317.921 323.22ZM328.285 326.5H330.545V320C330.545 316.92 328.605 315.3 326.025 315.3C324.705 315.3 323.485 315.84 322.745 316.74V315.48H320.465V326.5H322.745V320.34C322.745 318.32 323.845 317.28 325.525 317.28C327.185 317.28 328.285 318.32 328.285 320.34V326.5ZM333.813 323.44C333.813 325.68 335.033 326.5 336.993 326.5H338.793V324.6H337.393C336.433 324.6 336.113 324.26 336.113 323.44V317.34H338.793V315.48H336.113V312.74H333.813V315.48H332.513V317.34H333.813V323.44ZM345.37 314.46H349.09V326.5H351.37V314.46H355.07V312.6H345.37V314.46ZM362.019 317.22C363.719 317.22 365.059 318.3 365.099 320H358.999C359.239 318.26 360.479 317.22 362.019 317.22ZM367.179 323.22H364.719C364.299 324.08 363.519 324.76 362.119 324.76C360.439 324.76 359.139 323.66 358.979 321.84H367.399C367.459 321.46 367.479 321.1 367.479 320.72C367.479 317.48 365.259 315.3 362.119 315.3C358.859 315.3 356.619 317.52 356.619 320.98C356.619 324.44 358.959 326.68 362.119 326.68C364.819 326.68 366.559 325.14 367.179 323.22ZM368.963 320.98C368.963 324.44 371.203 326.68 374.363 326.68C377.063 326.68 378.823 325.18 379.443 323.02H376.983C376.563 324.16 375.723 324.76 374.363 324.76C372.523 324.76 371.303 323.4 371.303 320.98C371.303 318.58 372.523 317.22 374.363 317.22C375.723 317.22 376.603 317.9 376.983 318.96H379.443C378.823 316.64 377.063 315.3 374.363 315.3C371.203 315.3 368.963 317.54 368.963 320.98ZM381.715 326.5H383.995V320.34C383.995 318.32 385.095 317.28 386.775 317.28C388.435 317.28 389.535 318.32 389.535 320.34V326.5H391.795V320C391.795 316.92 389.875 315.3 387.415 315.3C385.995 315.3 384.755 315.84 383.995 316.76V311.7H381.715V326.5ZM402.523 326.5H404.783V320C404.783 316.92 402.843 315.3 400.263 315.3C398.943 315.3 397.723 315.84 396.983 316.74V315.48H394.703V326.5H396.983V320.34C396.983 318.32 398.083 317.28 399.763 317.28C401.423 317.28 402.523 318.32 402.523 320.34V326.5ZM407.691 326.5H409.971V315.48H407.691V326.5ZM408.851 314.02C409.651 314.02 410.291 313.38 410.291 312.56C410.291 311.74 409.651 311.1 408.851 311.1C408.031 311.1 407.391 311.74 407.391 312.56C407.391 313.38 408.031 314.02 408.851 314.02ZM412.205 320.94C412.205 324.34 414.505 326.68 417.345 326.68C419.205 326.68 420.585 325.76 421.225 324.9V331.74H423.525V315.48H421.225V317.08C420.585 316.18 419.245 315.3 417.425 315.3C414.505 315.3 412.205 317.54 412.205 320.94ZM421.225 320.98C421.225 323.36 419.605 324.7 417.885 324.7C416.185 324.7 414.545 323.32 414.545 320.94C414.545 318.56 416.185 317.28 417.885 317.28C419.605 317.28 421.225 318.62 421.225 320.98ZM436.5 315.48H434.22V321.62C434.22 323.64 433.12 324.68 431.44 324.68C429.78 324.68 428.68 323.64 428.68 321.62V315.48H426.42V321.96C426.42 325.04 428.38 326.66 430.96 326.66C432.26 326.66 433.5 326.12 434.22 325.18V326.5H436.5V315.48ZM444.148 317.22C445.848 317.22 447.188 318.3 447.228 320H441.128C441.368 318.26 442.608 317.22 444.148 317.22ZM449.308 323.22H446.848C446.428 324.08 445.648 324.76 444.248 324.76C442.568 324.76 441.268 323.66 441.108 321.84H449.528C449.588 321.46 449.608 321.1 449.608 320.72C449.608 317.48 447.388 315.3 444.248 315.3C440.988 315.3 438.748 317.52 438.748 320.98C438.748 324.44 441.088 326.68 444.248 326.68C446.948 326.68 448.688 325.14 449.308 323.22ZM460.072 323.42C459.952 319.44 453.732 320.68 453.732 318.46C453.732 317.72 454.372 317.22 455.592 317.22C456.832 317.22 457.572 317.88 457.652 318.84H459.932C459.812 316.64 458.172 315.3 455.672 315.3C453.072 315.3 451.432 316.72 451.432 318.48C451.432 322.52 457.832 321.28 457.832 323.44C457.832 324.2 457.132 324.76 455.812 324.76C454.552 324.76 453.692 324.02 453.612 323.12H451.252C451.352 325.12 453.212 326.68 455.852 326.68C458.452 326.68 460.072 325.28 460.072 323.42Z" fill="#212832"/>
<rect x="0.5" y="294.5" width="616" height="49" stroke="black" stroke-opacity="0.5"/>
<rect y="351" width="617" height="50" fill="white"/>
<path d="M24.6 378.94C26.08 378.94 27.24 377.8 27.24 376.34C27.24 374.86 26.08 373.72 24.6 373.72C23.16 373.72 22 374.86 22 376.34C22 377.8 23.16 378.94 24.6 378.94ZM54.5689 376.02C54.5689 371.86 51.4289 368.92 47.4689 368.92C43.5489 368.92 40.3689 371.86 40.3689 376.02C40.3689 380.2 43.5489 383.14 47.4689 383.14C51.4289 383.14 54.5689 380.2 54.5689 376.02ZM42.7089 376.02C42.7089 372.88 44.7089 370.92 47.4689 370.92C50.2289 370.92 52.2289 372.88 52.2289 376.02C52.2289 379.16 50.2289 381.16 47.4689 381.16C44.7089 381.16 42.7089 379.16 42.7089 376.02ZM59.0925 373.6V371.98H56.8125V388.24H59.0925V381.4C59.8125 382.26 61.1125 383.18 62.9325 383.18C65.8325 383.18 68.1125 380.84 68.1125 377.44C68.1125 374.04 65.8325 371.8 62.9325 371.8C61.1325 371.8 59.7925 372.68 59.0925 373.6ZM65.7925 377.44C65.7925 379.82 64.1525 381.2 62.4325 381.2C60.7325 381.2 59.0925 379.86 59.0925 377.48C59.0925 375.12 60.7325 373.78 62.4325 373.78C64.1525 373.78 65.7925 375.06 65.7925 377.44ZM75.0072 373.72C76.7072 373.72 78.0472 374.8 78.0872 376.5H71.9872C72.2272 374.76 73.4672 373.72 75.0072 373.72ZM80.1672 379.72H77.7072C77.2872 380.58 76.5072 381.26 75.1072 381.26C73.4272 381.26 72.1272 380.16 71.9672 378.34H80.3872C80.4472 377.96 80.4672 377.6 80.4672 377.22C80.4672 373.98 78.2472 371.8 75.1072 371.8C71.8472 371.8 69.6072 374.02 69.6072 377.48C69.6072 380.94 71.9472 383.18 75.1072 383.18C77.8072 383.18 79.5472 381.64 80.1672 379.72ZM90.5309 383H92.7909V376.5C92.7909 373.42 90.8509 371.8 88.2709 371.8C86.9509 371.8 85.7309 372.34 84.9909 373.24V371.98H82.7109V383H84.9909V376.84C84.9909 374.82 86.0909 373.78 87.7709 373.78C89.4309 373.78 90.5309 374.82 90.5309 376.84V383ZM108.575 369.08H100.895V383H108.575V381.14H103.175V376.88H107.975V375.02H103.175V370.94H108.575V369.08ZM111.383 383H113.663V368.2H111.383V383ZM121.296 373.72C122.996 373.72 124.336 374.8 124.376 376.5H118.276C118.516 374.76 119.756 373.72 121.296 373.72ZM126.456 379.72H123.996C123.576 380.58 122.796 381.26 121.396 381.26C119.716 381.26 118.416 380.16 118.256 378.34H126.676C126.736 377.96 126.756 377.6 126.756 377.22C126.756 373.98 124.536 371.8 121.396 371.8C118.136 371.8 115.896 374.02 115.896 377.48C115.896 380.94 118.236 383.18 121.396 383.18C124.096 383.18 125.836 381.64 126.456 379.72ZM128.24 377.48C128.24 380.94 130.48 383.18 133.64 383.18C136.34 383.18 138.1 381.68 138.72 379.52H136.26C135.84 380.66 135 381.26 133.64 381.26C131.8 381.26 130.58 379.9 130.58 377.48C130.58 375.08 131.8 373.72 133.64 373.72C135 373.72 135.88 374.4 136.26 375.46H138.72C138.1 373.14 136.34 371.8 133.64 371.8C130.48 371.8 128.24 374.04 128.24 377.48ZM141.352 379.94C141.352 382.18 142.572 383 144.532 383H146.332V381.1H144.932C143.972 381.1 143.652 380.76 143.652 379.94V373.84H146.332V371.98H143.652V369.24H141.352V371.98H140.052V373.84H141.352V379.94ZM148.434 383H150.714V371.98H148.434V383ZM149.594 370.52C150.394 370.52 151.034 369.88 151.034 369.06C151.034 368.24 150.394 367.6 149.594 367.6C148.774 367.6 148.134 368.24 148.134 369.06C148.134 369.88 148.774 370.52 149.594 370.52ZM152.407 371.98L156.587 383H159.307L163.507 371.98H161.087L157.967 380.96L154.847 371.98H152.407ZM169.87 373.72C171.57 373.72 172.91 374.8 172.95 376.5H166.85C167.09 374.76 168.33 373.72 169.87 373.72ZM175.03 379.72H172.57C172.15 380.58 171.37 381.26 169.97 381.26C168.29 381.26 166.99 380.16 166.83 378.34H175.25C175.31 377.96 175.33 377.6 175.33 377.22C175.33 373.98 173.11 371.8 169.97 371.8C166.71 371.8 164.47 374.02 164.47 377.48C164.47 380.94 166.81 383.18 169.97 383.18C172.67 383.18 174.41 381.64 175.03 379.72ZM182.01 376.02C182.01 380.2 185.19 383.12 189.11 383.12C192.01 383.12 194.51 381.68 195.57 378.96H192.83C192.09 380.44 190.77 381.14 189.11 381.14C186.35 381.14 184.35 379.16 184.35 376.02C184.35 372.88 186.35 370.92 189.11 370.92C190.77 370.92 192.09 371.62 192.83 373.1H195.57C194.51 370.38 192.01 368.92 189.11 368.92C185.19 368.92 182.01 371.86 182.01 376.02ZM208.738 377.48C208.738 374.02 206.258 371.8 203.118 371.8C199.978 371.8 197.498 374.02 197.498 377.48C197.498 380.94 199.878 383.18 203.018 383.18C206.178 383.18 208.738 380.94 208.738 377.48ZM199.818 377.48C199.818 374.98 201.358 373.78 203.078 373.78C204.778 373.78 206.398 374.98 206.398 377.48C206.398 379.98 204.718 381.2 203.018 381.2C201.298 381.2 199.818 379.98 199.818 377.48ZM220.972 371.98H218.692V378.12C218.692 380.14 217.592 381.18 215.912 381.18C214.252 381.18 213.152 380.14 213.152 378.12V371.98H210.892V378.46C210.892 381.54 212.852 383.16 215.432 383.16C216.732 383.16 217.972 382.62 218.692 381.68V383H220.972V371.98ZM226.26 377.2C226.26 374.86 227.3 374.16 228.98 374.16H229.56V371.8C228 371.8 226.9 372.48 226.26 373.58V371.98H223.98V383H226.26V377.2ZM239.876 379.92C239.756 375.94 233.536 377.18 233.536 374.96C233.536 374.22 234.176 373.72 235.396 373.72C236.636 373.72 237.376 374.38 237.456 375.34H239.736C239.616 373.14 237.976 371.8 235.476 371.8C232.876 371.8 231.236 373.22 231.236 374.98C231.236 379.02 237.636 377.78 237.636 379.94C237.636 380.7 236.936 381.26 235.616 381.26C234.356 381.26 233.496 380.52 233.416 379.62H231.056C231.156 381.62 233.016 383.18 235.656 383.18C238.256 383.18 239.876 381.78 239.876 379.92ZM246.98 373.72C248.68 373.72 250.02 374.8 250.06 376.5H243.96C244.2 374.76 245.44 373.72 246.98 373.72ZM252.14 379.72H249.68C249.26 380.58 248.48 381.26 247.08 381.26C245.4 381.26 244.1 380.16 243.94 378.34H252.36C252.42 377.96 252.44 377.6 252.44 377.22C252.44 373.98 250.22 371.8 247.08 371.8C243.82 371.8 241.58 374.02 241.58 377.48C241.58 380.94 243.92 383.18 247.08 383.18C249.78 383.18 251.52 381.64 252.14 379.72Z" fill="#212832"/>
<rect x="0.5" y="351.5" width="616" height="49" stroke="black" stroke-opacity="0.5"/>
</svg>
