<svg width="1226" height="199" viewBox="0 0 1226 199" fill="none" xmlns="http://www.w3.org/2000/svg">
<g filter="url(#filter0_d_953_496)">
<rect x="24" y="1" width="365" height="47" fill="white" shape-rendering="crispEdges"/>
<rect x="23.7658" y="0.765849" width="365.468" height="47.4683" stroke="black" stroke-opacity="0.2" stroke-width="0.468302" shape-rendering="crispEdges"/>
</g>
<path d="M98.6676 23.25V19.164H100.936C102.538 19.164 103.258 19.92 103.258 21.216C103.258 22.476 102.538 23.25 100.936 23.25H98.6676ZM105.364 21.216C105.364 19.182 103.906 17.49 100.936 17.49H96.6156V30H98.6676V24.924H100.936C104.194 24.924 105.364 22.998 105.364 21.216ZM116.771 25.032C116.771 21.918 114.539 19.92 111.713 19.92C108.887 19.92 106.655 21.918 106.655 25.032C106.655 28.146 108.797 30.162 111.623 30.162C114.467 30.162 116.771 28.146 116.771 25.032ZM108.743 25.032C108.743 22.782 110.129 21.702 111.677 21.702C113.207 21.702 114.665 22.782 114.665 25.032C114.665 27.282 113.153 28.38 111.623 28.38C110.075 28.38 108.743 27.282 108.743 25.032ZM120.725 30H122.885L124.883 22.674L126.881 30H129.041L132.119 20.082H130.103L128.051 28.02L126.035 20.082H123.893L121.787 28.056L119.717 20.082H117.629L120.725 30ZM137.829 21.648C139.359 21.648 140.565 22.62 140.601 24.15H135.111C135.327 22.584 136.443 21.648 137.829 21.648ZM142.473 27.048H140.259C139.881 27.822 139.179 28.434 137.919 28.434C136.407 28.434 135.237 27.444 135.093 25.806H142.671C142.725 25.464 142.743 25.14 142.743 24.798C142.743 21.882 140.745 19.92 137.919 19.92C134.985 19.92 132.969 21.918 132.969 25.032C132.969 28.146 135.075 30.162 137.919 30.162C140.349 30.162 141.915 28.776 142.473 27.048ZM146.814 24.78C146.814 22.674 147.75 22.044 149.262 22.044H149.784V19.92C148.38 19.92 147.39 20.532 146.814 21.522V20.082H144.762V30H146.814V24.78ZM164.788 26.454C164.788 21.882 158.164 23.646 158.164 20.82C158.164 19.614 159.082 19.038 160.27 19.074C161.566 19.11 162.304 19.884 162.376 20.73H164.644C164.464 18.588 162.772 17.328 160.378 17.328C157.822 17.328 156.076 18.696 156.076 20.892C156.076 25.5 162.718 23.538 162.718 26.562C162.718 27.624 161.908 28.398 160.468 28.398C159.046 28.398 158.326 27.57 158.236 26.544H156.04C156.04 28.758 157.966 30.126 160.468 30.126C163.258 30.126 164.788 28.326 164.788 26.454ZM176.191 20.082H174.139V25.608C174.139 27.426 173.149 28.362 171.637 28.362C170.143 28.362 169.153 27.426 169.153 25.608V20.082H167.119V25.914C167.119 28.686 168.883 30.144 171.205 30.144C172.375 30.144 173.491 29.658 174.139 28.812V30H176.191V20.082ZM180.951 21.54V20.082H178.899V34.716H180.951V28.56C181.599 29.334 182.769 30.162 184.407 30.162C187.017 30.162 189.069 28.056 189.069 24.996C189.069 21.936 187.017 19.92 184.407 19.92C182.787 19.92 181.581 20.712 180.951 21.54ZM186.981 24.996C186.981 27.138 185.505 28.38 183.957 28.38C182.427 28.38 180.951 27.174 180.951 25.032C180.951 22.908 182.427 21.702 183.957 21.702C185.505 21.702 186.981 22.854 186.981 24.996ZM193.15 21.54V20.082H191.098V34.716H193.15V28.56C193.798 29.334 194.968 30.162 196.606 30.162C199.216 30.162 201.268 28.056 201.268 24.996C201.268 21.936 199.216 19.92 196.606 19.92C194.986 19.92 193.78 20.712 193.15 21.54ZM199.18 24.996C199.18 27.138 197.704 28.38 196.156 28.38C194.626 28.38 193.15 27.174 193.15 25.032C193.15 22.908 194.626 21.702 196.156 21.702C197.704 21.702 199.18 22.854 199.18 24.996ZM203.297 30H205.349V16.68H203.297V30ZM211.949 27.642L209.159 20.082H206.873L210.779 29.838L208.763 34.662H210.887L216.971 20.082H214.847L211.949 27.642ZM231.638 26.454C231.638 21.882 225.014 23.646 225.014 20.82C225.014 19.614 225.932 19.038 227.12 19.074C228.416 19.11 229.154 19.884 229.226 20.73H231.494C231.314 18.588 229.622 17.328 227.228 17.328C224.672 17.328 222.926 18.696 222.926 20.892C222.926 25.5 229.568 23.538 229.568 26.562C229.568 27.624 228.758 28.398 227.318 28.398C225.896 28.398 225.176 27.57 225.086 26.544H222.89C222.89 28.758 224.816 30.126 227.318 30.126C230.108 30.126 231.638 28.326 231.638 26.454ZM243.041 20.082H240.989V25.608C240.989 27.426 239.999 28.362 238.487 28.362C236.993 28.362 236.003 27.426 236.003 25.608V20.082H233.969V25.914C233.969 28.686 235.733 30.144 238.055 30.144C239.225 30.144 240.341 29.658 240.989 28.812V30H243.041V20.082ZM247.8 21.54V20.082H245.748V34.716H247.8V28.56C248.448 29.334 249.618 30.162 251.256 30.162C253.866 30.162 255.918 28.056 255.918 24.996C255.918 21.936 253.866 19.92 251.256 19.92C249.636 19.92 248.43 20.712 247.8 21.54ZM253.83 24.996C253.83 27.138 252.354 28.38 250.806 28.38C249.276 28.38 247.8 27.174 247.8 25.032C247.8 22.908 249.276 21.702 250.806 21.702C252.354 21.702 253.83 22.854 253.83 24.996ZM262.124 21.648C263.654 21.648 264.86 22.62 264.896 24.15H259.406C259.622 22.584 260.738 21.648 262.124 21.648ZM266.768 27.048H264.554C264.176 27.822 263.474 28.434 262.214 28.434C260.702 28.434 259.532 27.444 259.388 25.806H266.966C267.02 25.464 267.038 25.14 267.038 24.798C267.038 21.882 265.04 19.92 262.214 19.92C259.28 19.92 257.264 21.918 257.264 25.032C257.264 28.146 259.37 30.162 262.214 30.162C264.644 30.162 266.21 28.776 266.768 27.048ZM271.109 24.78C271.109 22.674 272.045 22.044 273.557 22.044H274.079V19.92C272.675 19.92 271.685 20.532 271.109 21.522V20.082H269.057V30H271.109V24.78ZM274.795 20.082L278.557 30H281.005L284.785 20.082H282.607L279.799 28.164L276.991 20.082H274.795ZM286.336 30H288.388V20.082H286.336V30ZM287.38 18.768C288.1 18.768 288.676 18.192 288.676 17.454C288.676 16.716 288.1 16.14 287.38 16.14C286.642 16.14 286.066 16.716 286.066 17.454C286.066 18.192 286.642 18.768 287.38 18.768ZM298.48 27.228C298.372 23.646 292.774 24.762 292.774 22.764C292.774 22.098 293.35 21.648 294.448 21.648C295.564 21.648 296.23 22.242 296.302 23.106H298.354C298.246 21.126 296.77 19.92 294.52 19.92C292.18 19.92 290.704 21.198 290.704 22.782C290.704 26.418 296.464 25.302 296.464 27.246C296.464 27.93 295.834 28.434 294.646 28.434C293.512 28.434 292.738 27.768 292.666 26.958H290.542C290.632 28.758 292.306 30.162 294.682 30.162C297.022 30.162 298.48 28.902 298.48 27.228ZM310.148 25.032C310.148 21.918 307.916 19.92 305.09 19.92C302.264 19.92 300.032 21.918 300.032 25.032C300.032 28.146 302.174 30.162 305 30.162C307.844 30.162 310.148 28.146 310.148 25.032ZM302.12 25.032C302.12 22.782 303.506 21.702 305.054 21.702C306.584 21.702 308.042 22.782 308.042 25.032C308.042 27.282 306.53 28.38 305 28.38C303.452 28.38 302.12 27.282 302.12 25.032ZM314.228 24.78C314.228 22.674 315.164 22.044 316.676 22.044H317.198V19.92C315.794 19.92 314.804 20.532 314.228 21.522V20.082H312.176V30H314.228V24.78Z" fill="#212832"/>
<path d="M389 1H387V48H389V1Z" fill="#946FB0" stroke="#946FB0" stroke-width="0.936604"/>
<circle cx="24.4151" cy="24.4151" r="23.4151" fill="#946FB0" stroke="#946FB0"/>
<path d="M16.3494 23.9942C16.3494 27.9654 17.3983 30.9625 21.2197 30.9625C25.041 30.9625 26.09 27.9654 26.09 23.9942C26.09 20.0979 25.041 17.1008 21.2197 17.1008C17.3983 17.1008 16.3494 20.0979 16.3494 23.9942ZM23.992 23.9942C23.992 26.6729 23.7111 29.0144 21.2197 29.0144C18.7283 29.0144 18.4473 26.6729 18.4473 23.9942C18.4473 21.4466 18.7283 19.0489 21.2197 19.0489C23.7111 19.0489 23.992 21.4466 23.992 23.9942ZM29.8107 31H31.9649V17.3443H28.0686V19.2925H29.8107V31Z" fill="#212832"/>
<g filter="url(#filter1_d_953_496)">
<rect x="24" y="76" width="365" height="47" fill="white" shape-rendering="crispEdges"/>
<rect x="23.7658" y="75.7658" width="365.468" height="47.4683" stroke="black" stroke-opacity="0.2" stroke-width="0.468302" shape-rendering="crispEdges"/>
</g>
<g filter="url(#filter2_d_953_496)">
<rect x="24" y="151" width="365" height="47" fill="white" shape-rendering="crispEdges"/>
<rect x="23.7658" y="150.766" width="365.468" height="47.4683" stroke="black" stroke-opacity="0.2" stroke-width="0.468302" shape-rendering="crispEdges"/>
</g>
<path d="M136.601 99.25V95.164H138.869C140.471 95.164 141.191 95.92 141.191 97.216C141.191 98.476 140.471 99.25 138.869 99.25H136.601ZM143.297 97.216C143.297 95.182 141.839 93.49 138.869 93.49H134.549V106H136.601V100.924H138.869C142.127 100.924 143.297 98.998 143.297 97.216ZM145.254 106H147.306V92.68H145.254V106ZM149.316 100.996C149.316 104.056 151.386 106.162 153.96 106.162C155.616 106.162 156.804 105.37 157.434 104.524V106H159.504V96.082H157.434V97.522C156.822 96.712 155.67 95.92 153.996 95.92C151.386 95.92 149.316 97.936 149.316 100.996ZM157.434 101.032C157.434 103.174 155.976 104.38 154.428 104.38C152.898 104.38 151.422 103.138 151.422 100.996C151.422 98.854 152.898 97.702 154.428 97.702C155.976 97.702 157.434 98.908 157.434 101.032ZM169.238 106H171.272V100.15C171.272 97.378 169.526 95.92 167.204 95.92C166.016 95.92 164.918 96.406 164.252 97.216V96.082H162.2V106H164.252V100.456C164.252 98.638 165.242 97.702 166.754 97.702C168.248 97.702 169.238 98.638 169.238 100.456V106ZM174.213 103.246C174.213 105.262 175.311 106 177.075 106H178.695V104.29H177.435C176.571 104.29 176.283 103.984 176.283 103.246V97.756H178.695V96.082H176.283V93.616H174.213V96.082H173.043V97.756H174.213V103.246ZM193.704 102.454C193.704 97.882 187.08 99.646 187.08 96.82C187.08 95.614 187.998 95.038 189.186 95.074C190.482 95.11 191.22 95.884 191.292 96.73H193.56C193.38 94.588 191.688 93.328 189.294 93.328C186.738 93.328 184.992 94.696 184.992 96.892C184.992 101.5 191.634 99.538 191.634 102.562C191.634 103.624 190.824 104.398 189.384 104.398C187.962 104.398 187.242 103.57 187.152 102.544H184.956C184.956 104.758 186.882 106.126 189.384 106.126C192.174 106.126 193.704 104.326 193.704 102.454ZM205.107 96.082H203.055V101.608C203.055 103.426 202.065 104.362 200.553 104.362C199.059 104.362 198.069 103.426 198.069 101.608V96.082H196.035V101.914C196.035 104.686 197.799 106.144 200.121 106.144C201.291 106.144 202.407 105.658 203.055 104.812V106H205.107V96.082ZM209.867 97.54V96.082H207.815V110.716H209.867V104.56C210.515 105.334 211.685 106.162 213.323 106.162C215.933 106.162 217.985 104.056 217.985 100.996C217.985 97.936 215.933 95.92 213.323 95.92C211.703 95.92 210.497 96.712 209.867 97.54ZM215.897 100.996C215.897 103.138 214.421 104.38 212.873 104.38C211.343 104.38 209.867 103.174 209.867 101.032C209.867 98.908 211.343 97.702 212.873 97.702C214.421 97.702 215.897 98.854 215.897 100.996ZM224.19 97.648C225.72 97.648 226.926 98.62 226.962 100.15H221.472C221.688 98.584 222.804 97.648 224.19 97.648ZM228.834 103.048H226.62C226.242 103.822 225.54 104.434 224.28 104.434C222.768 104.434 221.598 103.444 221.454 101.806H229.032C229.086 101.464 229.104 101.14 229.104 100.798C229.104 97.882 227.106 95.92 224.28 95.92C221.346 95.92 219.33 97.918 219.33 101.032C219.33 104.146 221.436 106.162 224.28 106.162C226.71 106.162 228.276 104.776 228.834 103.048ZM233.175 100.78C233.175 98.674 234.111 98.044 235.623 98.044H236.145V95.92C234.741 95.92 233.751 96.532 233.175 97.522V96.082H231.123V106H233.175V100.78ZM236.862 96.082L240.624 106H243.072L246.852 96.082H244.674L241.866 104.164L239.058 96.082H236.862ZM248.403 106H250.455V96.082H248.403V106ZM249.447 94.768C250.167 94.768 250.743 94.192 250.743 93.454C250.743 92.716 250.167 92.14 249.447 92.14C248.709 92.14 248.133 92.716 248.133 93.454C248.133 94.192 248.709 94.768 249.447 94.768ZM260.547 103.228C260.439 99.646 254.841 100.762 254.841 98.764C254.841 98.098 255.417 97.648 256.515 97.648C257.631 97.648 258.297 98.242 258.369 99.106H260.421C260.313 97.126 258.837 95.92 256.587 95.92C254.247 95.92 252.771 97.198 252.771 98.782C252.771 102.418 258.531 101.302 258.531 103.246C258.531 103.93 257.901 104.434 256.713 104.434C255.579 104.434 254.805 103.768 254.733 102.958H252.609C252.699 104.758 254.373 106.162 256.749 106.162C259.089 106.162 260.547 104.902 260.547 103.228ZM272.214 101.032C272.214 97.918 269.982 95.92 267.156 95.92C264.33 95.92 262.098 97.918 262.098 101.032C262.098 104.146 264.24 106.162 267.066 106.162C269.91 106.162 272.214 104.146 272.214 101.032ZM264.186 101.032C264.186 98.782 265.572 97.702 267.12 97.702C268.65 97.702 270.108 98.782 270.108 101.032C270.108 103.282 268.596 104.38 267.066 104.38C265.518 104.38 264.186 103.282 264.186 101.032ZM276.295 100.78C276.295 98.674 277.231 98.044 278.743 98.044H279.265V95.92C277.861 95.92 276.871 96.532 276.295 97.522V96.082H274.243V106H276.295V100.78Z" fill="#212832"/>
<path d="M64.3942 168.49H60.3082V181H64.3942C68.4082 181 71.0362 178.642 71.0362 174.79C71.0362 170.92 68.4082 168.49 64.3942 168.49ZM62.3602 179.326V170.164H64.3942C67.3462 170.164 68.9302 171.928 68.9302 174.79C68.9302 177.634 67.3462 179.326 64.3942 179.326H62.3602ZM72.7099 181H74.7619V171.082H72.7099V181ZM73.7539 169.768C74.4739 169.768 75.0499 169.192 75.0499 168.454C75.0499 167.716 74.4739 167.14 73.7539 167.14C73.0159 167.14 72.4399 167.716 72.4399 168.454C72.4399 169.192 73.0159 169.768 73.7539 169.768ZM79.148 175.78C79.148 173.674 80.084 173.044 81.596 173.044H82.118V170.92C80.714 170.92 79.724 171.532 79.148 172.522V171.082H77.096V181H79.148V175.78ZM87.8202 172.648C89.3502 172.648 90.5562 173.62 90.5922 175.15H85.1022C85.3182 173.584 86.4342 172.648 87.8202 172.648ZM92.4642 178.048H90.2502C89.8722 178.822 89.1702 179.434 87.9102 179.434C86.3982 179.434 85.2282 178.444 85.0842 176.806H92.6622C92.7162 176.464 92.7342 176.14 92.7342 175.798C92.7342 172.882 90.7362 170.92 87.9102 170.92C84.9762 170.92 82.9602 172.918 82.9602 176.032C82.9602 179.146 85.0662 181.162 87.9102 181.162C90.3402 181.162 91.9062 179.776 92.4642 178.048ZM93.7096 176.032C93.7096 179.146 95.7256 181.162 98.5696 181.162C101 181.162 102.584 179.812 103.142 177.868H100.928C100.55 178.894 99.7936 179.434 98.5696 179.434C96.9136 179.434 95.8156 178.21 95.8156 176.032C95.8156 173.872 96.9136 172.648 98.5696 172.648C99.7936 172.648 100.586 173.26 100.928 174.214H103.142C102.584 172.126 101 170.92 98.5696 170.92C95.7256 170.92 93.7096 172.936 93.7096 176.032ZM105.151 178.246C105.151 180.262 106.249 181 108.013 181H109.633V179.29H108.373C107.509 179.29 107.221 178.984 107.221 178.246V172.756H109.633V171.082H107.221V168.616H105.151V171.082H103.981V172.756H105.151V178.246ZM120.614 176.032C120.614 172.918 118.382 170.92 115.556 170.92C112.73 170.92 110.498 172.918 110.498 176.032C110.498 179.146 112.64 181.162 115.466 181.162C118.31 181.162 120.614 179.146 120.614 176.032ZM112.586 176.032C112.586 173.782 113.972 172.702 115.52 172.702C117.05 172.702 118.508 173.782 118.508 176.032C118.508 178.282 116.996 179.38 115.466 179.38C113.918 179.38 112.586 178.282 112.586 176.032ZM124.334 175.78C124.334 173.674 125.27 173.044 126.782 173.044H127.304V170.92C125.9 170.92 124.91 171.532 124.334 172.522V171.082H122.282V181H124.334V175.78ZM129.047 175.348H136.445V173.62H129.047V175.348ZM139 181H141.052V172.432L144.886 181H146.308L150.124 172.432V181H152.176V168.49H149.98L145.606 178.3L141.214 168.49H139V181ZM153.829 175.996C153.829 179.056 155.899 181.162 158.473 181.162C160.129 181.162 161.317 180.37 161.947 179.524V181H164.017V171.082H161.947V172.522C161.335 171.712 160.183 170.92 158.509 170.92C155.899 170.92 153.829 172.936 153.829 175.996ZM161.947 176.032C161.947 178.174 160.489 179.38 158.941 179.38C157.411 179.38 155.935 178.138 155.935 175.996C155.935 173.854 157.411 172.702 158.941 172.702C160.489 172.702 161.947 173.908 161.947 176.032ZM173.39 181H175.424V175.15C175.424 172.378 173.678 170.92 171.356 170.92C170.168 170.92 169.07 171.406 168.404 172.216V171.082H166.352V181H168.404V175.456C168.404 173.638 169.394 172.702 170.906 172.702C172.4 172.702 173.39 173.638 173.39 175.456V181ZM186.664 171.082H184.612V176.608C184.612 178.426 183.622 179.362 182.11 179.362C180.616 179.362 179.626 178.426 179.626 176.608V171.082H177.592V176.914C177.592 179.686 179.356 181.144 181.678 181.144C182.848 181.144 183.964 180.658 184.612 179.812V181H186.664V171.082ZM189.263 181H191.333V172.756H193.169V171.082H191.333V170.38C191.333 169.246 191.765 168.814 193.025 168.814V167.104C190.433 167.104 189.263 168.094 189.263 170.38V171.082H188.093V172.756H189.263V181ZM193.944 175.996C193.944 179.056 196.014 181.162 198.588 181.162C200.244 181.162 201.432 180.37 202.062 179.524V181H204.132V171.082H202.062V172.522C201.45 171.712 200.298 170.92 198.624 170.92C196.014 170.92 193.944 172.936 193.944 175.996ZM202.062 176.032C202.062 178.174 200.604 179.38 199.056 179.38C197.526 179.38 196.05 178.138 196.05 175.996C196.05 173.854 197.526 172.702 199.056 172.702C200.604 172.702 202.062 173.908 202.062 176.032ZM205.783 176.032C205.783 179.146 207.799 181.162 210.643 181.162C213.073 181.162 214.657 179.812 215.215 177.868H213.001C212.623 178.894 211.867 179.434 210.643 179.434C208.987 179.434 207.889 178.21 207.889 176.032C207.889 173.872 208.987 172.648 210.643 172.648C211.867 172.648 212.659 173.26 213.001 174.214H215.215C214.657 172.126 213.073 170.92 210.643 170.92C207.799 170.92 205.783 172.936 205.783 176.032ZM217.224 178.246C217.224 180.262 218.322 181 220.086 181H221.706V179.29H220.446C219.582 179.29 219.294 178.984 219.294 178.246V172.756H221.706V171.082H219.294V168.616H217.224V171.082H216.054V172.756H217.224V178.246ZM232.219 171.082H230.167V176.608C230.167 178.426 229.177 179.362 227.665 179.362C226.171 179.362 225.181 178.426 225.181 176.608V171.082H223.147V176.914C223.147 179.686 224.911 181.144 227.233 181.144C228.403 181.144 229.519 180.658 230.167 179.812V181H232.219V171.082ZM236.618 175.78C236.618 173.674 237.554 173.044 239.066 173.044H239.588V170.92C238.184 170.92 237.194 171.532 236.618 172.522V171.082H234.566V181H236.618V175.78ZM245.291 172.648C246.821 172.648 248.027 173.62 248.063 175.15H242.573C242.789 173.584 243.905 172.648 245.291 172.648ZM249.935 178.048H247.721C247.343 178.822 246.641 179.434 245.381 179.434C243.869 179.434 242.699 178.444 242.555 176.806H250.133C250.187 176.464 250.205 176.14 250.205 175.798C250.205 172.882 248.207 170.92 245.381 170.92C242.447 170.92 240.431 172.918 240.431 176.032C240.431 179.146 242.537 181.162 245.381 181.162C247.811 181.162 249.377 179.776 249.935 178.048ZM253.916 175.78C253.916 173.674 254.852 173.044 256.364 173.044H256.886V170.92C255.482 170.92 254.492 171.532 253.916 172.522V171.082H251.864V181H253.916V175.78ZM270.684 171.28C270.81 169.57 269.64 168.202 267.462 168.202C265.32 168.202 263.988 169.444 263.988 171.082C263.988 171.964 264.24 172.63 264.942 173.476C262.962 174.286 262.008 175.708 262.008 177.4C262.008 179.74 263.808 181.234 266.508 181.234C268.254 181.234 269.64 180.658 270.846 179.452L272.394 181H275.076L272.034 177.976C272.178 177.742 272.34 177.49 272.484 177.238L274.104 174.466H271.89L270.612 176.572L267.3 173.278C266.418 172.324 266.04 171.766 266.04 171.082C266.04 170.416 266.562 169.876 267.372 169.876C268.146 169.876 268.668 170.362 268.632 171.28H270.684ZM266.508 179.488C265.032 179.488 264.06 178.534 264.06 177.328C264.06 176.212 264.726 175.348 266.184 174.772L269.496 178.102C268.632 179.02 267.678 179.488 266.508 179.488ZM284.463 168.49H280.377V181H284.463C288.477 181 291.105 178.642 291.105 174.79C291.105 170.92 288.477 168.49 284.463 168.49ZM282.429 179.326V170.164H284.463C287.415 170.164 288.999 171.928 288.999 174.79C288.999 177.634 287.415 179.326 284.463 179.326H282.429ZM292.779 181H294.831V171.082H292.779V181ZM293.823 169.768C294.543 169.768 295.119 169.192 295.119 168.454C295.119 167.716 294.543 167.14 293.823 167.14C293.085 167.14 292.509 167.716 292.509 168.454C292.509 169.192 293.085 169.768 293.823 169.768ZM304.563 178.228C304.455 174.646 298.857 175.762 298.857 173.764C298.857 173.098 299.433 172.648 300.531 172.648C301.647 172.648 302.313 173.242 302.385 174.106H304.437C304.329 172.126 302.853 170.92 300.603 170.92C298.263 170.92 296.787 172.198 296.787 173.782C296.787 177.418 302.547 176.302 302.547 178.246C302.547 178.93 301.917 179.434 300.729 179.434C299.595 179.434 298.821 178.768 298.749 177.958H296.625C296.715 179.758 298.389 181.162 300.765 181.162C303.105 181.162 304.563 179.902 304.563 178.228ZM306.744 178.246C306.744 180.262 307.842 181 309.606 181H311.226V179.29H309.966C309.102 179.29 308.814 178.984 308.814 178.246V172.756H311.226V171.082H308.814V168.616H306.744V171.082H305.574V172.756H306.744V178.246ZM314.81 175.78C314.81 173.674 315.746 173.044 317.258 173.044H317.78V170.92C316.376 170.92 315.386 171.532 314.81 172.522V171.082H312.758V181H314.81V175.78ZM319.306 181H321.358V171.082H319.306V181ZM320.35 169.768C321.07 169.768 321.646 169.192 321.646 168.454C321.646 167.716 321.07 167.14 320.35 167.14C319.612 167.14 319.036 167.716 319.036 168.454C319.036 169.192 319.612 169.768 320.35 169.768ZM325.744 172.558V167.68H323.692V181H325.744V179.56C326.392 180.424 327.562 181.162 329.2 181.162C331.81 181.162 333.862 179.056 333.862 175.996C333.862 172.936 331.828 170.92 329.2 170.92C327.634 170.92 326.392 171.658 325.744 172.558ZM331.774 175.996C331.774 178.138 330.298 179.38 328.75 179.38C327.22 179.38 325.744 178.174 325.744 176.032C325.744 173.908 327.22 172.702 328.75 172.702C330.298 172.702 331.774 173.854 331.774 175.996ZM344.513 171.082H342.461V176.608C342.461 178.426 341.471 179.362 339.959 179.362C338.465 179.362 337.475 178.426 337.475 176.608V171.082H335.441V176.914C335.441 179.686 337.205 181.144 339.527 181.144C340.697 181.144 341.813 180.658 342.461 179.812V181H344.513V171.082ZM347.184 178.246C347.184 180.262 348.282 181 350.046 181H351.666V179.29H350.406C349.542 179.29 349.254 178.984 349.254 178.246V172.756H351.666V171.082H349.254V168.616H347.184V171.082H346.014V172.756H347.184V178.246ZM353.198 181H355.25V171.082H353.198V181ZM354.242 169.768C354.962 169.768 355.538 169.192 355.538 168.454C355.538 167.716 354.962 167.14 354.242 167.14C353.504 167.14 352.928 167.716 352.928 168.454C352.928 169.192 353.504 169.768 354.242 169.768ZM367.034 176.032C367.034 172.918 364.802 170.92 361.976 170.92C359.15 170.92 356.918 172.918 356.918 176.032C356.918 179.146 359.06 181.162 361.886 181.162C364.73 181.162 367.034 179.146 367.034 176.032ZM359.006 176.032C359.006 173.782 360.392 172.702 361.94 172.702C363.47 172.702 364.928 173.782 364.928 176.032C364.928 178.282 363.416 179.38 361.886 179.38C360.338 179.38 359.006 178.282 359.006 176.032ZM375.74 181H377.774V175.15C377.774 172.378 376.028 170.92 373.706 170.92C372.518 170.92 371.42 171.406 370.754 172.216V171.082H368.702V181H370.754V175.456C370.754 173.638 371.744 172.702 373.256 172.702C374.75 172.702 375.74 173.638 375.74 175.456V181Z" fill="#212832"/>
<path d="M389 76H387V123H389V76Z" fill="#CF1C54" stroke="#CF1C54" stroke-width="0.936604"/>
<path d="M389 151H387V198H389V151Z" fill="#A344ED" stroke="#A344ED" stroke-width="0.936604"/>
<circle cx="24.4151" cy="99.4151" r="23.4151" fill="#E9336C" stroke="#E9336C"/>
<circle cx="24.4151" cy="174.415" r="23.4151" fill="#A344ED" stroke="#A344ED"/>
<path d="M13.4699 99.6055C13.4699 103.577 14.5189 106.574 18.3402 106.574C22.1616 106.574 23.2106 103.577 23.2106 99.6055C23.2106 95.7093 22.1616 92.7121 18.3402 92.7121C14.5189 92.7121 13.4699 95.7093 13.4699 99.6055ZM21.1126 99.6055C21.1126 102.284 20.8316 104.626 18.3402 104.626C15.8489 104.626 15.5679 102.284 15.5679 99.6055C15.5679 97.058 15.8489 94.6603 18.3402 94.6603C20.8316 94.6603 21.1126 97.058 21.1126 99.6055ZM31.9889 106.611H34.0869V103.764H35.829V101.91H34.0869V93.1242H31.5019L25.2079 102.153V103.764H31.9889V106.611ZM27.6618 101.91L32.0825 95.2972V101.91H27.6618Z" fill="#212832"/>
<path d="M14.2931 174.606C14.2931 178.577 15.3421 181.574 19.1634 181.574C22.9848 181.574 24.0338 178.577 24.0338 174.606C24.0338 170.709 22.9848 167.712 19.1634 167.712C15.3421 167.712 14.2931 170.709 14.2931 174.606ZM21.9358 174.606C21.9358 177.284 21.6548 179.626 19.1634 179.626C16.672 179.626 16.3911 177.284 16.3911 174.606C16.3911 172.058 16.672 169.66 19.1634 169.66C21.6548 169.66 21.9358 172.058 21.9358 174.606ZM25.9187 168.012V169.829H32.8495L27.5858 181.611H29.74L34.9475 169.604V168.012H25.9187Z" fill="#212832"/>
<g filter="url(#filter3_d_953_496)">
<rect x="436" y="76" width="365" height="47" fill="white" shape-rendering="crispEdges"/>
<rect x="435.766" y="75.7658" width="365.468" height="47.4683" stroke="black" stroke-opacity="0.2" stroke-width="0.468302" shape-rendering="crispEdges"/>
</g>
<path d="M489.591 99.25V95.164H491.859C493.461 95.164 494.181 95.92 494.181 97.216C494.181 98.476 493.461 99.25 491.859 99.25H489.591ZM496.287 97.216C496.287 95.182 494.829 93.49 491.859 93.49H487.539V106H489.591V100.924H491.859C495.117 100.924 496.287 98.998 496.287 97.216ZM507.695 101.032C507.695 97.918 505.463 95.92 502.637 95.92C499.811 95.92 497.579 97.918 497.579 101.032C497.579 104.146 499.721 106.162 502.547 106.162C505.391 106.162 507.695 104.146 507.695 101.032ZM499.667 101.032C499.667 98.782 501.053 97.702 502.601 97.702C504.131 97.702 505.589 98.782 505.589 101.032C505.589 103.282 504.077 104.38 502.547 104.38C500.999 104.38 499.667 103.282 499.667 101.032ZM511.649 106H513.809L515.807 98.674L517.805 106H519.965L523.043 96.082H521.027L518.975 104.02L516.959 96.082H514.817L512.711 104.056L510.641 96.082H508.553L511.649 106ZM528.753 97.648C530.283 97.648 531.489 98.62 531.525 100.15H526.035C526.251 98.584 527.367 97.648 528.753 97.648ZM533.397 103.048H531.183C530.805 103.822 530.103 104.434 528.843 104.434C527.331 104.434 526.161 103.444 526.017 101.806H533.595C533.649 101.464 533.667 101.14 533.667 100.798C533.667 97.882 531.669 95.92 528.843 95.92C525.909 95.92 523.893 97.918 523.893 101.032C523.893 104.146 525.999 106.162 528.843 106.162C531.273 106.162 532.839 104.776 533.397 103.048ZM537.738 100.78C537.738 98.674 538.674 98.044 540.186 98.044H540.708V95.92C539.304 95.92 538.314 96.532 537.738 97.522V96.082H535.686V106H537.738V100.78ZM546.586 99.718C546.586 103.48 549.448 106.108 552.976 106.108C555.586 106.108 557.836 104.812 558.79 102.364H556.324C555.658 103.696 554.47 104.326 552.976 104.326C550.492 104.326 548.692 102.544 548.692 99.718C548.692 96.892 550.492 95.128 552.976 95.128C554.47 95.128 555.658 95.758 556.324 97.09H558.79C557.836 94.642 555.586 93.328 552.976 93.328C549.448 93.328 546.586 95.974 546.586 99.718ZM570.642 101.032C570.642 97.918 568.41 95.92 565.584 95.92C562.758 95.92 560.526 97.918 560.526 101.032C560.526 104.146 562.668 106.162 565.494 106.162C568.338 106.162 570.642 104.146 570.642 101.032ZM562.614 101.032C562.614 98.782 564 97.702 565.548 97.702C567.078 97.702 568.536 98.782 568.536 101.032C568.536 103.282 567.024 104.38 565.494 104.38C563.946 104.38 562.614 103.282 562.614 101.032ZM579.708 106H581.742V100.15C581.742 97.378 579.996 95.92 577.674 95.92C576.486 95.92 575.388 96.406 574.722 97.216V96.082H572.67V106H574.722V100.456C574.722 98.638 575.712 97.702 577.224 97.702C578.718 97.702 579.708 98.638 579.708 100.456V106ZM591.758 103.228C591.65 99.646 586.052 100.762 586.052 98.764C586.052 98.098 586.628 97.648 587.726 97.648C588.842 97.648 589.508 98.242 589.58 99.106H591.632C591.524 97.126 590.048 95.92 587.798 95.92C585.458 95.92 583.982 97.198 583.982 98.782C583.982 102.418 589.742 101.302 589.742 103.246C589.742 103.93 589.112 104.434 587.924 104.434C586.79 104.434 586.016 103.768 585.944 102.958H583.82C583.91 104.758 585.584 106.162 587.96 106.162C590.3 106.162 591.758 104.902 591.758 103.228ZM602.957 96.082H600.905V101.608C600.905 103.426 599.915 104.362 598.403 104.362C596.909 104.362 595.919 103.426 595.919 101.608V96.082H593.885V101.914C593.885 104.686 595.649 106.144 597.971 106.144C599.141 106.144 600.257 105.658 600.905 104.812V106H602.957V96.082ZM605.664 106H607.716V92.68H605.664V106ZM610.735 103.246C610.735 105.262 611.833 106 613.597 106H615.217V104.29H613.957C613.093 104.29 612.805 103.984 612.805 103.246V97.756H615.217V96.082H612.805V93.616H610.735V96.082H609.565V97.756H610.735V103.246ZM616.424 100.996C616.424 104.056 618.494 106.162 621.068 106.162C622.724 106.162 623.912 105.37 624.542 104.524V106H626.612V96.082H624.542V97.522C623.93 96.712 622.778 95.92 621.104 95.92C618.494 95.92 616.424 97.936 616.424 100.996ZM624.542 101.032C624.542 103.174 623.084 104.38 621.536 104.38C620.006 104.38 618.53 103.138 618.53 100.996C618.53 98.854 620.006 97.702 621.536 97.702C623.084 97.702 624.542 98.908 624.542 101.032ZM636.345 106H638.379V100.15C638.379 97.378 636.633 95.92 634.311 95.92C633.123 95.92 632.025 96.406 631.359 97.216V96.082H629.307V106H631.359V100.456C631.359 98.638 632.349 97.702 633.861 97.702C635.355 97.702 636.345 98.638 636.345 100.456V106ZM641.32 103.246C641.32 105.262 642.418 106 644.182 106H645.802V104.29H644.542C643.678 104.29 643.39 103.984 643.39 103.246V97.756H645.802V96.082H643.39V93.616H641.32V96.082H640.15V97.756H641.32V103.246ZM655.092 103.228C654.984 99.646 649.386 100.762 649.386 98.764C649.386 98.098 649.962 97.648 651.06 97.648C652.176 97.648 652.842 98.242 652.914 99.106H654.966C654.858 97.126 653.382 95.92 651.132 95.92C648.792 95.92 647.316 97.198 647.316 98.782C647.316 102.418 653.076 101.302 653.076 103.246C653.076 103.93 652.446 104.434 651.258 104.434C650.124 104.434 649.35 103.768 649.278 102.958H647.154C647.244 104.758 648.918 106.162 651.294 106.162C653.634 106.162 655.092 104.902 655.092 103.228ZM669.941 96.28C670.067 94.57 668.897 93.202 666.719 93.202C664.577 93.202 663.245 94.444 663.245 96.082C663.245 96.964 663.497 97.63 664.199 98.476C662.219 99.286 661.265 100.708 661.265 102.4C661.265 104.74 663.065 106.234 665.765 106.234C667.511 106.234 668.897 105.658 670.103 104.452L671.651 106H674.333L671.291 102.976C671.435 102.742 671.597 102.49 671.741 102.238L673.361 99.466H671.147L669.869 101.572L666.557 98.278C665.675 97.324 665.297 96.766 665.297 96.082C665.297 95.416 665.819 94.876 666.629 94.876C667.403 94.876 667.925 95.362 667.889 96.28H669.941ZM665.765 104.488C664.289 104.488 663.317 103.534 663.317 102.328C663.317 101.212 663.983 100.348 665.441 99.772L668.753 103.102C667.889 104.02 666.935 104.488 665.765 104.488ZM687.752 103.228C687.644 99.646 682.046 100.762 682.046 98.764C682.046 98.098 682.622 97.648 683.72 97.648C684.836 97.648 685.502 98.242 685.574 99.106H687.626C687.518 97.126 686.042 95.92 683.792 95.92C681.452 95.92 679.976 97.198 679.976 98.782C679.976 102.418 685.736 101.302 685.736 103.246C685.736 103.93 685.106 104.434 683.918 104.434C682.784 104.434 682.01 103.768 681.938 102.958H679.814C679.904 104.758 681.578 106.162 683.954 106.162C686.294 106.162 687.752 104.902 687.752 103.228ZM699.419 101.032C699.419 97.918 697.187 95.92 694.361 95.92C691.535 95.92 689.303 97.918 689.303 101.032C689.303 104.146 691.445 106.162 694.271 106.162C697.115 106.162 699.419 104.146 699.419 101.032ZM691.391 101.032C691.391 98.782 692.777 97.702 694.325 97.702C695.855 97.702 697.313 98.782 697.313 101.032C697.313 103.282 695.801 104.38 694.271 104.38C692.723 104.38 691.391 103.282 691.391 101.032ZM706.123 106H708.175V100.528H712.315V98.854H708.175V95.164H713.485V93.49H706.123V106ZM724.837 101.032C724.837 97.918 722.605 95.92 719.779 95.92C716.953 95.92 714.721 97.918 714.721 101.032C714.721 104.146 716.863 106.162 719.689 106.162C722.533 106.162 724.837 104.146 724.837 101.032ZM716.809 101.032C716.809 98.782 718.195 97.702 719.743 97.702C721.273 97.702 722.731 98.782 722.731 101.032C722.731 103.282 721.219 104.38 719.689 104.38C718.141 104.38 716.809 103.282 716.809 101.032ZM728.918 100.78C728.918 98.674 729.854 98.044 731.366 98.044H731.888V95.92C730.484 95.92 729.494 96.532 728.918 97.522V96.082H726.866V106H728.918V100.78ZM734.098 103.246C734.098 105.262 735.196 106 736.96 106H738.58V104.29H737.32C736.456 104.29 736.168 103.984 736.168 103.246V97.756H738.58V96.082H736.168V93.616H734.098V96.082H732.928V97.756H734.098V103.246ZM740.471 106H742.523V100.456C742.523 98.638 743.513 97.702 745.025 97.702C746.519 97.702 747.509 98.638 747.509 100.456V106H749.543V100.15C749.543 97.378 747.815 95.92 745.601 95.92C744.323 95.92 743.207 96.406 742.523 97.234V92.68H740.471V106Z" fill="#212832"/>
<path d="M801 76H799V123H801V76Z" fill="#00ADEF" stroke="#00ADEF" stroke-width="0.936604"/>
<circle cx="436.415" cy="99.8506" r="23.4151" fill="#00ADEF" stroke="#00ADEF"/>
<path d="M425.552 99.6055C425.552 103.577 426.601 106.574 430.423 106.574C434.244 106.574 435.293 103.577 435.293 99.6055C435.293 95.7093 434.244 92.7121 430.423 92.7121C426.601 92.7121 425.552 95.7093 425.552 99.6055ZM433.195 99.6055C433.195 102.284 432.914 104.626 430.423 104.626C427.931 104.626 427.65 102.284 427.65 99.6055C427.65 97.058 427.931 94.6603 430.423 94.6603C432.914 94.6603 433.195 97.058 433.195 99.6055ZM438.114 92.9182V100.804H440.137C440.493 99.7929 441.336 99.0998 442.591 99.0998C444.371 99.0998 445.251 100.111 445.251 101.891C445.251 103.577 444.427 104.832 442.591 104.832C441.149 104.832 440.175 104.082 439.894 102.921H437.815C438.133 105.057 439.763 106.611 442.573 106.611C445.738 106.611 447.293 104.551 447.293 101.835C447.293 99.7741 446.263 97.2828 442.91 97.2828C441.692 97.2828 440.587 97.8447 440.081 98.5191V94.7914H446.357V92.9182H438.114Z" fill="#212832"/>
<g filter="url(#filter4_d_953_496)">
<rect x="859" y="76" width="365" height="47" fill="white" shape-rendering="crispEdges"/>
<rect x="858.766" y="75.7658" width="365.468" height="47.4683" stroke="black" stroke-opacity="0.2" stroke-width="0.468302" shape-rendering="crispEdges"/>
</g>
<path d="M908.864 106H911.024L906.542 93.472H904.166L899.684 106H901.826L902.726 103.444H907.964L908.864 106ZM907.388 101.77H903.302L905.354 95.956L907.388 101.77ZM915.025 100.78C915.025 98.674 915.961 98.044 917.473 98.044H917.995V95.92C916.591 95.92 915.601 96.532 915.025 97.522V96.082H912.973V106H915.025V100.78ZM924.057 97.648C925.587 97.648 926.793 98.62 926.829 100.15H921.339C921.555 98.584 922.671 97.648 924.057 97.648ZM928.701 103.048H926.487C926.109 103.822 925.407 104.434 924.147 104.434C922.635 104.434 921.465 103.444 921.321 101.806H928.899C928.953 101.464 928.971 101.14 928.971 100.798C928.971 97.882 926.973 95.92 924.147 95.92C921.213 95.92 919.197 97.918 919.197 101.032C919.197 104.146 921.303 106.162 924.147 106.162C926.577 106.162 928.143 104.776 928.701 103.048ZM930.307 100.996C930.307 104.056 932.377 106.162 934.951 106.162C936.607 106.162 937.795 105.37 938.425 104.524V106H940.495V96.082H938.425V97.522C937.813 96.712 936.661 95.92 934.987 95.92C932.377 95.92 930.307 97.936 930.307 100.996ZM938.425 101.032C938.425 103.174 936.967 104.38 935.419 104.38C933.889 104.38 932.413 103.138 932.413 100.996C932.413 98.854 933.889 97.702 935.419 97.702C936.967 97.702 938.425 98.908 938.425 101.032ZM947.866 106H949.918V97.432L953.752 106H955.174L958.99 97.432V106H961.042V93.49H958.846L954.472 103.3L950.08 93.49H947.866V106ZM963.055 100.996C963.055 104.056 965.125 106.162 967.699 106.162C969.355 106.162 970.543 105.37 971.173 104.524V106H973.243V96.082H971.173V97.522C970.561 96.712 969.409 95.92 967.735 95.92C965.125 95.92 963.055 97.936 963.055 100.996ZM971.173 101.032C971.173 103.174 969.715 104.38 968.167 104.38C966.637 104.38 965.161 103.138 965.161 100.996C965.161 98.854 966.637 97.702 968.167 97.702C969.715 97.702 971.173 98.908 971.173 101.032ZM982.976 106H985.01V100.15C985.01 97.378 983.264 95.92 980.942 95.92C979.754 95.92 978.656 96.406 977.99 97.216V96.082H975.938V106H977.99V100.456C977.99 98.638 978.98 97.702 980.492 97.702C981.986 97.702 982.976 98.638 982.976 100.456V106ZM986.943 100.996C986.943 104.056 989.013 106.162 991.587 106.162C993.243 106.162 994.431 105.37 995.061 104.524V106H997.131V96.082H995.061V97.522C994.449 96.712 993.297 95.92 991.623 95.92C989.013 95.92 986.943 97.936 986.943 100.996ZM995.061 101.032C995.061 103.174 993.603 104.38 992.055 104.38C990.525 104.38 989.049 103.138 989.049 100.996C989.049 98.854 990.525 97.702 992.055 97.702C993.603 97.702 995.061 98.908 995.061 101.032ZM999.143 100.996C999.143 104.056 1001.21 106.162 1003.82 106.162C1005.44 106.162 1006.63 105.352 1007.26 104.506V106.162C1007.26 108.142 1006.07 109.114 1004.49 109.114C1003.07 109.114 1001.97 108.412 1001.66 107.386H999.629C999.881 109.582 1001.84 110.896 1004.49 110.896C1007.58 110.896 1009.33 108.862 1009.33 106.162V96.082H1007.26V97.522C1006.65 96.676 1005.44 95.92 1003.82 95.92C1001.21 95.92 999.143 97.936 999.143 100.996ZM1007.26 101.032C1007.26 103.174 1005.8 104.38 1004.25 104.38C1002.72 104.38 1001.25 103.138 1001.25 100.996C1001.25 98.854 1002.72 97.702 1004.25 97.702C1005.8 97.702 1007.26 98.908 1007.26 101.032ZM1016.2 97.648C1017.73 97.648 1018.94 98.62 1018.97 100.15H1013.48C1013.7 98.584 1014.82 97.648 1016.2 97.648ZM1020.85 103.048H1018.63C1018.25 103.822 1017.55 104.434 1016.29 104.434C1014.78 104.434 1013.61 103.444 1013.47 101.806H1021.04C1021.1 101.464 1021.12 101.14 1021.12 100.798C1021.12 97.882 1019.12 95.92 1016.29 95.92C1013.36 95.92 1011.34 97.918 1011.34 101.032C1011.34 104.146 1013.45 106.162 1016.29 106.162C1018.72 106.162 1020.29 104.776 1020.85 103.048ZM1025.19 100.78C1025.19 98.674 1026.12 98.044 1027.64 98.044H1028.16V95.92C1026.75 95.92 1025.76 96.532 1025.19 97.522V96.082H1023.14V106H1025.19V100.78ZM1030.26 100.348H1037.66V98.62H1030.26V100.348ZM1042.62 99.25V95.164H1044.89C1046.49 95.164 1047.21 95.92 1047.21 97.216C1047.21 98.476 1046.49 99.25 1044.89 99.25H1042.62ZM1049.32 97.216C1049.32 95.182 1047.86 93.49 1044.89 93.49H1040.57V106H1042.62V100.924H1044.89C1048.15 100.924 1049.32 98.998 1049.32 97.216ZM1060.73 101.032C1060.73 97.918 1058.5 95.92 1055.67 95.92C1052.84 95.92 1050.61 97.918 1050.61 101.032C1050.61 104.146 1052.75 106.162 1055.58 106.162C1058.42 106.162 1060.73 104.146 1060.73 101.032ZM1052.7 101.032C1052.7 98.782 1054.09 97.702 1055.63 97.702C1057.16 97.702 1058.62 98.782 1058.62 101.032C1058.62 103.282 1057.11 104.38 1055.58 104.38C1054.03 104.38 1052.7 103.282 1052.7 101.032ZM1064.68 106H1066.84L1068.84 98.674L1070.84 106H1073L1076.08 96.082H1074.06L1072.01 104.02L1069.99 96.082H1067.85L1065.74 104.056L1063.67 96.082H1061.59L1064.68 106ZM1081.79 97.648C1083.32 97.648 1084.52 98.62 1084.56 100.15H1079.07C1079.28 98.584 1080.4 97.648 1081.79 97.648ZM1086.43 103.048H1084.22C1083.84 103.822 1083.14 104.434 1081.88 104.434C1080.36 104.434 1079.19 103.444 1079.05 101.806H1086.63C1086.68 101.464 1086.7 101.14 1086.7 100.798C1086.7 97.882 1084.7 95.92 1081.88 95.92C1078.94 95.92 1076.93 97.918 1076.93 101.032C1076.93 104.146 1079.03 106.162 1081.88 106.162C1084.31 106.162 1085.87 104.776 1086.43 103.048ZM1090.77 100.78C1090.77 98.674 1091.71 98.044 1093.22 98.044H1093.74V95.92C1092.34 95.92 1091.35 96.532 1090.77 97.522V96.082H1088.72V106H1090.77V100.78ZM1104.39 93.49H1100.3V106H1104.39C1108.4 106 1111.03 103.642 1111.03 99.79C1111.03 95.92 1108.4 93.49 1104.39 93.49ZM1102.36 104.326V95.164H1104.39C1107.34 95.164 1108.93 96.928 1108.93 99.79C1108.93 102.634 1107.34 104.326 1104.39 104.326H1102.36ZM1113.06 106H1115.12V96.082H1113.06V106ZM1114.11 94.768C1114.83 94.768 1115.4 94.192 1115.4 93.454C1115.4 92.716 1114.83 92.14 1114.11 92.14C1113.37 92.14 1112.79 92.716 1112.79 93.454C1112.79 94.192 1113.37 94.768 1114.11 94.768ZM1125.21 103.228C1125.1 99.646 1119.5 100.762 1119.5 98.764C1119.5 98.098 1120.08 97.648 1121.18 97.648C1122.29 97.648 1122.96 98.242 1123.03 99.106H1125.08C1124.97 97.126 1123.5 95.92 1121.25 95.92C1118.91 95.92 1117.43 97.198 1117.43 98.782C1117.43 102.418 1123.19 101.302 1123.19 103.246C1123.19 103.93 1122.56 104.434 1121.37 104.434C1120.24 104.434 1119.47 103.768 1119.39 102.958H1117.27C1117.36 104.758 1119.03 106.162 1121.41 106.162C1123.75 106.162 1125.21 104.902 1125.21 103.228ZM1127.75 103.246C1127.75 105.262 1128.85 106 1130.61 106H1132.23V104.29H1130.97C1130.11 104.29 1129.82 103.984 1129.82 103.246V97.756H1132.23V96.082H1129.82V93.616H1127.75V96.082H1126.58V97.756H1127.75V103.246ZM1136.18 100.78C1136.18 98.674 1137.11 98.044 1138.62 98.044H1139.15V95.92C1137.74 95.92 1136.75 96.532 1136.18 97.522V96.082H1134.12V106H1136.18V100.78ZM1141.03 106H1143.08V96.082H1141.03V106ZM1142.08 94.768C1142.8 94.768 1143.37 94.192 1143.37 93.454C1143.37 92.716 1142.8 92.14 1142.08 92.14C1141.34 92.14 1140.76 92.716 1140.76 93.454C1140.76 94.192 1141.34 94.768 1142.08 94.768ZM1147.83 97.558V92.68H1145.78V106H1147.83V104.56C1148.48 105.424 1149.65 106.162 1151.29 106.162C1153.9 106.162 1155.95 104.056 1155.95 100.996C1155.95 97.936 1153.91 95.92 1151.29 95.92C1149.72 95.92 1148.48 96.658 1147.83 97.558ZM1153.86 100.996C1153.86 103.138 1152.38 104.38 1150.84 104.38C1149.31 104.38 1147.83 103.174 1147.83 101.032C1147.83 98.908 1149.31 97.702 1150.84 97.702C1152.38 97.702 1153.86 98.854 1153.86 100.996ZM1166.96 96.082H1164.91V101.608C1164.91 103.426 1163.92 104.362 1162.4 104.362C1160.91 104.362 1159.92 103.426 1159.92 101.608V96.082H1157.89V101.914C1157.89 104.686 1159.65 106.144 1161.97 106.144C1163.14 106.144 1164.26 105.658 1164.91 104.812V106H1166.96V96.082ZM1169.99 103.246C1169.99 105.262 1171.09 106 1172.85 106H1174.47V104.29H1173.21C1172.35 104.29 1172.06 103.984 1172.06 103.246V97.756H1174.47V96.082H1172.06V93.616H1169.99V96.082H1168.82V97.756H1169.99V103.246ZM1176.36 106H1178.42V96.082H1176.36V106ZM1177.41 94.768C1178.13 94.768 1178.7 94.192 1178.7 93.454C1178.7 92.716 1178.13 92.14 1177.41 92.14C1176.67 92.14 1176.09 92.716 1176.09 93.454C1176.09 94.192 1176.67 94.768 1177.41 94.768ZM1190.56 101.032C1190.56 97.918 1188.33 95.92 1185.5 95.92C1182.68 95.92 1180.44 97.918 1180.44 101.032C1180.44 104.146 1182.59 106.162 1185.41 106.162C1188.26 106.162 1190.56 104.146 1190.56 101.032ZM1182.53 101.032C1182.53 98.782 1183.92 97.702 1185.47 97.702C1187 97.702 1188.45 98.782 1188.45 101.032C1188.45 103.282 1186.94 104.38 1185.41 104.38C1183.86 104.38 1182.53 103.282 1182.53 101.032ZM1199.63 106H1201.66V100.15C1201.66 97.378 1199.91 95.92 1197.59 95.92C1196.4 95.92 1195.31 96.406 1194.64 97.216V96.082H1192.59V106H1194.64V100.456C1194.64 98.638 1195.63 97.702 1197.14 97.702C1198.64 97.702 1199.63 98.638 1199.63 100.456V106Z" fill="#212832"/>
<path d="M1224 76H1222V123H1224V76Z" fill="#E74C3C" stroke="#E74C3C" stroke-width="0.936604"/>
<circle cx="856.415" cy="99.8506" r="23.4151" fill="#E74C3C" stroke="#E74C3C"/>
<path d="M845.525 99.6055C845.525 103.577 846.574 106.574 850.395 106.574C854.216 106.574 855.265 103.577 855.265 99.6055C855.265 95.7093 854.216 92.7121 850.395 92.7121C846.574 92.7121 845.525 95.7093 845.525 99.6055ZM853.167 99.6055C853.167 102.284 852.886 104.626 850.395 104.626C847.904 104.626 847.623 102.284 847.623 99.6055C847.623 97.058 847.904 94.6603 850.395 94.6603C852.886 94.6603 853.167 97.058 853.167 99.6055ZM866.835 96.1214C866.61 94.3044 865.28 92.6185 862.62 92.6185C859.211 92.6185 857.787 95.2035 857.787 99.4744C857.787 103.82 858.818 106.611 862.789 106.611C865.711 106.611 867.266 104.644 867.266 102.059C867.266 99.2122 865.524 97.5637 863.07 97.5637C861.646 97.5637 860.297 98.1632 859.623 99.2871C859.679 95.7093 860.672 94.398 862.601 94.398C863.95 94.398 864.606 95.0162 864.868 96.1214H866.835ZM862.601 99.362C864.4 99.362 865.224 100.523 865.224 102.153C865.224 103.764 864.25 104.832 862.676 104.832C860.859 104.832 859.867 103.708 859.867 102.022C859.867 100.205 861.196 99.362 862.601 99.362Z" fill="#212832"/>
<g filter="url(#filter5_d_953_496)">
<rect x="437" y="1" width="365" height="47" fill="white" shape-rendering="crispEdges"/>
<rect x="436.766" y="0.765849" width="365.468" height="47.4683" stroke="black" stroke-opacity="0.2" stroke-width="0.468302" shape-rendering="crispEdges"/>
</g>
<path d="M802 1H800V48H802V1Z" fill="#A9CF54" stroke="#A9CF54" stroke-width="0.936604"/>
<path d="M509.752 23.25V19.164H512.02C513.622 19.164 514.342 19.92 514.342 21.216C514.342 22.476 513.622 23.25 512.02 23.25H509.752ZM516.448 21.216C516.448 19.182 514.99 17.49 512.02 17.49H507.7V30H509.752V24.924H512.02C515.278 24.924 516.448 22.998 516.448 21.216ZM527.855 25.032C527.855 21.918 525.623 19.92 522.797 19.92C519.971 19.92 517.739 21.918 517.739 25.032C517.739 28.146 519.881 30.162 522.707 30.162C525.551 30.162 527.855 28.146 527.855 25.032ZM519.827 25.032C519.827 22.782 521.213 21.702 522.761 21.702C524.291 21.702 525.749 22.782 525.749 25.032C525.749 27.282 524.237 28.38 522.707 28.38C521.159 28.38 519.827 27.282 519.827 25.032ZM531.809 30H533.969L535.967 22.674L537.965 30H540.125L543.203 20.082H541.187L539.135 28.02L537.119 20.082H534.977L532.871 28.056L530.801 20.082H528.713L531.809 30ZM548.913 21.648C550.443 21.648 551.649 22.62 551.685 24.15H546.195C546.411 22.584 547.527 21.648 548.913 21.648ZM553.557 27.048H551.343C550.965 27.822 550.263 28.434 549.003 28.434C547.491 28.434 546.321 27.444 546.177 25.806H553.755C553.809 25.464 553.827 25.14 553.827 24.798C553.827 21.882 551.829 19.92 549.003 19.92C546.069 19.92 544.053 21.918 544.053 25.032C544.053 28.146 546.159 30.162 549.003 30.162C551.433 30.162 552.999 28.776 553.557 27.048ZM557.898 24.78C557.898 22.674 558.834 22.044 560.346 22.044H560.868V19.92C559.464 19.92 558.474 20.532 557.898 21.522V20.082H555.846V30H557.898V24.78ZM573.136 17.328C569.608 17.328 566.746 19.974 566.746 23.718C566.746 27.48 569.608 30.108 573.136 30.108C576.502 30.108 578.95 27.642 579.328 24.744V23.142H572.434V24.78H577.132C576.826 26.886 575.404 28.254 573.136 28.254C570.652 28.254 568.852 26.472 568.852 23.718C568.852 20.964 570.652 19.2 573.136 19.2C574.63 19.2 575.818 19.83 576.484 21.09H578.95C577.996 18.642 575.746 17.328 573.136 17.328ZM585.528 21.648C587.058 21.648 588.264 22.62 588.3 24.15H582.81C583.026 22.584 584.142 21.648 585.528 21.648ZM590.172 27.048H587.958C587.58 27.822 586.878 28.434 585.618 28.434C584.106 28.434 582.936 27.444 582.792 25.806H590.37C590.424 25.464 590.442 25.14 590.442 24.798C590.442 21.882 588.444 19.92 585.618 19.92C582.684 19.92 580.668 21.918 580.668 25.032C580.668 28.146 582.774 30.162 585.618 30.162C588.048 30.162 589.614 28.776 590.172 27.048ZM599.499 30H601.533V24.15C601.533 21.378 599.787 19.92 597.465 19.92C596.277 19.92 595.179 20.406 594.513 21.216V20.082H592.461V30H594.513V24.456C594.513 22.638 595.503 21.702 597.015 21.702C598.509 21.702 599.499 22.638 599.499 24.456V30ZM608.327 21.648C609.857 21.648 611.063 22.62 611.099 24.15H605.609C605.825 22.584 606.941 21.648 608.327 21.648ZM612.971 27.048H610.757C610.379 27.822 609.677 28.434 608.417 28.434C606.905 28.434 605.735 27.444 605.591 25.806H613.169C613.223 25.464 613.241 25.14 613.241 24.798C613.241 21.882 611.243 19.92 608.417 19.92C605.483 19.92 603.467 21.918 603.467 25.032C603.467 28.146 605.573 30.162 608.417 30.162C610.847 30.162 612.413 28.776 612.971 27.048ZM617.312 24.78C617.312 22.674 618.248 22.044 619.76 22.044H620.282V19.92C618.878 19.92 617.888 20.532 617.312 21.522V20.082H615.26V30H617.312V24.78ZM621.484 24.996C621.484 28.056 623.554 30.162 626.128 30.162C627.784 30.162 628.972 29.37 629.602 28.524V30H631.672V20.082H629.602V21.522C628.99 20.712 627.838 19.92 626.164 19.92C623.554 19.92 621.484 21.936 621.484 24.996ZM629.602 25.032C629.602 27.174 628.144 28.38 626.596 28.38C625.066 28.38 623.59 27.138 623.59 24.996C623.59 22.854 625.066 21.702 626.596 21.702C628.144 21.702 629.602 22.908 629.602 25.032ZM634.692 27.246C634.692 29.262 635.79 30 637.554 30H639.174V28.29H637.914C637.05 28.29 636.762 27.984 636.762 27.246V21.756H639.174V20.082H636.762V17.616H634.692V20.082H633.522V21.756H634.692V27.246ZM641.065 30H643.117V20.082H641.065V30ZM642.109 18.768C642.829 18.768 643.405 18.192 643.405 17.454C643.405 16.716 642.829 16.14 642.109 16.14C641.371 16.14 640.795 16.716 640.795 17.454C640.795 18.192 641.371 18.768 642.109 18.768ZM652.849 30H654.883V24.15C654.883 21.378 653.137 19.92 650.815 19.92C649.627 19.92 648.529 20.406 647.863 21.216V20.082H645.811V30H647.863V24.456C647.863 22.638 648.853 21.702 650.365 21.702C651.859 21.702 652.849 22.638 652.849 24.456V30ZM656.816 24.996C656.816 28.056 658.886 30.162 661.496 30.162C663.116 30.162 664.304 29.352 664.934 28.506V30.162C664.934 32.142 663.746 33.114 662.162 33.114C660.74 33.114 659.642 32.412 659.336 31.386H657.302C657.554 33.582 659.516 34.896 662.162 34.896C665.258 34.896 667.004 32.862 667.004 30.162V20.082H664.934V21.522C664.322 20.676 663.116 19.92 661.496 19.92C658.886 19.92 656.816 21.936 656.816 24.996ZM664.934 25.032C664.934 27.174 663.476 28.38 661.928 28.38C660.398 28.38 658.922 27.138 658.922 24.996C658.922 22.854 660.398 21.702 661.928 21.702C663.476 21.702 664.934 22.908 664.934 25.032ZM686.471 23.718C686.471 19.974 683.645 17.328 680.081 17.328C676.553 17.328 673.691 19.974 673.691 23.718C673.691 27.48 676.553 30.126 680.081 30.126C683.645 30.126 686.471 27.48 686.471 23.718ZM675.797 23.718C675.797 20.892 677.597 19.128 680.081 19.128C682.565 19.128 684.365 20.892 684.365 23.718C684.365 26.544 682.565 28.344 680.081 28.344C677.597 28.344 675.797 26.544 675.797 23.718ZM688.743 30H690.813V21.756H692.649V20.082H690.813V19.38C690.813 18.246 691.245 17.814 692.505 17.814V16.104C689.913 16.104 688.743 17.094 688.743 19.38V20.082H687.573V21.756H688.743V30ZM694.719 30H696.789V21.756H698.625V20.082H696.789V19.38C696.789 18.246 697.221 17.814 698.481 17.814V16.104C695.889 16.104 694.719 17.094 694.719 19.38V20.082H693.549V21.756H694.719V30ZM700.444 30H702.496V20.082H700.444V30ZM701.488 18.768C702.208 18.768 702.784 18.192 702.784 17.454C702.784 16.716 702.208 16.14 701.488 16.14C700.75 16.14 700.174 16.716 700.174 17.454C700.174 18.192 700.75 18.768 701.488 18.768ZM704.506 25.032C704.506 28.146 706.522 30.162 709.366 30.162C711.796 30.162 713.38 28.812 713.938 26.868H711.724C711.346 27.894 710.59 28.434 709.366 28.434C707.71 28.434 706.612 27.21 706.612 25.032C706.612 22.872 707.71 21.648 709.366 21.648C710.59 21.648 711.382 22.26 711.724 23.214H713.938C713.38 21.126 711.796 19.92 709.366 19.92C706.522 19.92 704.506 21.936 704.506 25.032ZM720.159 21.648C721.689 21.648 722.895 22.62 722.931 24.15H717.441C717.657 22.584 718.773 21.648 720.159 21.648ZM724.803 27.048H722.589C722.211 27.822 721.509 28.434 720.249 28.434C718.737 28.434 717.567 27.444 717.423 25.806H725.001C725.055 25.464 725.073 25.14 725.073 24.798C725.073 21.882 723.075 19.92 720.249 19.92C717.315 19.92 715.299 21.918 715.299 25.032C715.299 28.146 717.405 30.162 720.249 30.162C722.679 30.162 724.245 28.776 724.803 27.048ZM729.144 24.78C729.144 22.674 730.08 22.044 731.592 22.044H732.114V19.92C730.71 19.92 729.72 20.532 729.144 21.522V20.082H727.092V30H729.144V24.78Z" fill="#212832"/>
<circle cx="436.415" cy="24.4151" r="23.4151" fill="#A9CF54" stroke="#A9CF54"/>
<path d="M426.128 24.17C426.128 28.1412 427.177 31.1383 430.999 31.1383C434.82 31.1383 435.869 28.1412 435.869 24.17C435.869 20.2737 434.82 17.2766 430.999 17.2766C427.177 17.2766 426.128 20.2737 426.128 24.17ZM433.771 24.17C433.771 26.8487 433.49 29.1902 430.999 29.1902C428.507 29.1902 428.226 26.8487 428.226 24.17C428.226 21.6224 428.507 19.2247 430.999 19.2247C433.49 19.2247 433.771 21.6224 433.771 24.17ZM437.96 30.9885H447.064V29.2089H441.126C443.317 27.2046 446.689 24.6758 446.689 21.3602C446.689 18.9063 445.116 17.2391 442.343 17.2391C439.927 17.2391 438.016 18.6815 437.941 21.6412H440.002C440.058 20.1051 440.864 19.0561 442.362 19.0561C443.954 19.0561 444.573 20.0302 444.573 21.4538C444.573 24.1325 441.182 26.6052 437.96 29.4337V30.9885Z" fill="#212832"/>
<g filter="url(#filter6_d_953_496)">
<rect x="860" y="1" width="365" height="47" fill="white" shape-rendering="crispEdges"/>
<rect x="859.766" y="0.765849" width="365.468" height="47.4683" stroke="black" stroke-opacity="0.2" stroke-width="0.468302" shape-rendering="crispEdges"/>
</g>
<path d="M1225 1H1223V48H1225V1Z" fill="#3498DB" stroke="#3498DB" stroke-width="0.936604"/>
<path d="M956.546 21.234C956.546 22.476 955.826 23.358 954.224 23.358H951.956V19.164H954.224C955.826 19.164 956.546 19.974 956.546 21.234ZM949.904 17.49V30H951.956V24.996H953.522L956.402 30H958.85L955.754 24.816C957.86 24.294 958.652 22.71 958.652 21.234C958.652 19.2 957.194 17.49 954.224 17.49H949.904ZM965.453 21.648C966.983 21.648 968.189 22.62 968.225 24.15H962.735C962.951 22.584 964.067 21.648 965.453 21.648ZM970.097 27.048H967.883C967.505 27.822 966.803 28.434 965.543 28.434C964.031 28.434 962.861 27.444 962.717 25.806H970.295C970.349 25.464 970.367 25.14 970.367 24.798C970.367 21.882 968.369 19.92 965.543 19.92C962.609 19.92 960.593 21.918 960.593 25.032C960.593 28.146 962.699 30.162 965.543 30.162C967.973 30.162 969.539 28.776 970.097 27.048ZM979.784 27.228C979.676 23.646 974.078 24.762 974.078 22.764C974.078 22.098 974.654 21.648 975.752 21.648C976.868 21.648 977.534 22.242 977.606 23.106H979.658C979.55 21.126 978.074 19.92 975.824 19.92C973.484 19.92 972.008 21.198 972.008 22.782C972.008 26.418 977.768 25.302 977.768 27.246C977.768 27.93 977.138 28.434 975.95 28.434C974.816 28.434 974.042 27.768 973.97 26.958H971.846C971.936 28.758 973.61 30.162 975.986 30.162C978.326 30.162 979.784 28.902 979.784 27.228ZM986.177 21.648C987.707 21.648 988.913 22.62 988.949 24.15H983.459C983.675 22.584 984.791 21.648 986.177 21.648ZM990.821 27.048H988.607C988.229 27.822 987.527 28.434 986.267 28.434C984.755 28.434 983.585 27.444 983.441 25.806H991.019C991.073 25.464 991.091 25.14 991.091 24.798C991.091 21.882 989.093 19.92 986.267 19.92C983.333 19.92 981.317 21.918 981.317 25.032C981.317 28.146 983.423 30.162 986.267 30.162C988.697 30.162 990.263 28.776 990.821 27.048ZM992.427 24.996C992.427 28.056 994.497 30.162 997.071 30.162C998.727 30.162 999.915 29.37 1000.54 28.524V30H1002.61V20.082H1000.54V21.522C999.933 20.712 998.781 19.92 997.107 19.92C994.497 19.92 992.427 21.936 992.427 24.996ZM1000.54 25.032C1000.54 27.174 999.087 28.38 997.539 28.38C996.009 28.38 994.533 27.138 994.533 24.996C994.533 22.854 996.009 21.702 997.539 21.702C999.087 21.702 1000.54 22.908 1000.54 25.032ZM1007.36 24.78C1007.36 22.674 1008.3 22.044 1009.81 22.044H1010.33V19.92C1008.93 19.92 1007.94 20.532 1007.36 21.522V20.082H1005.31V30H1007.36V24.78ZM1011.53 25.032C1011.53 28.146 1013.55 30.162 1016.39 30.162C1018.82 30.162 1020.41 28.812 1020.97 26.868H1018.75C1018.37 27.894 1017.62 28.434 1016.39 28.434C1014.74 28.434 1013.64 27.21 1013.64 25.032C1013.64 22.872 1014.74 21.648 1016.39 21.648C1017.62 21.648 1018.41 22.26 1018.75 23.214H1020.97C1020.41 21.126 1018.82 19.92 1016.39 19.92C1013.55 19.92 1011.53 21.936 1011.53 25.032ZM1023.01 30H1025.06V24.456C1025.06 22.638 1026.05 21.702 1027.57 21.702C1029.06 21.702 1030.05 22.638 1030.05 24.456V30H1032.08V24.15C1032.08 21.378 1030.36 19.92 1028.14 19.92C1026.86 19.92 1025.75 20.406 1025.06 21.234V16.68H1023.01V30ZM1047.82 30H1049.98L1045.5 17.472H1043.12L1038.64 30H1040.78L1041.68 27.444H1046.92L1047.82 30ZM1046.34 25.77H1042.26L1044.31 19.956L1046.34 25.77ZM1059.33 27.228C1059.22 23.646 1053.62 24.762 1053.62 22.764C1053.62 22.098 1054.2 21.648 1055.29 21.648C1056.41 21.648 1057.08 22.242 1057.15 23.106H1059.2C1059.09 21.126 1057.62 19.92 1055.37 19.92C1053.03 19.92 1051.55 21.198 1051.55 22.782C1051.55 26.418 1057.31 25.302 1057.31 27.246C1057.31 27.93 1056.68 28.434 1055.49 28.434C1054.36 28.434 1053.58 27.768 1053.51 26.958H1051.39C1051.48 28.758 1053.15 30.162 1055.53 30.162C1057.87 30.162 1059.33 28.902 1059.33 27.228ZM1068.94 27.228C1068.83 23.646 1063.23 24.762 1063.23 22.764C1063.23 22.098 1063.81 21.648 1064.91 21.648C1066.02 21.648 1066.69 22.242 1066.76 23.106H1068.81C1068.71 21.126 1067.23 19.92 1064.98 19.92C1062.64 19.92 1061.16 21.198 1061.16 22.782C1061.16 26.418 1066.92 25.302 1066.92 27.246C1066.92 27.93 1066.29 28.434 1065.11 28.434C1063.97 28.434 1063.2 27.768 1063.13 26.958H1061C1061.09 28.758 1062.77 30.162 1065.14 30.162C1067.48 30.162 1068.94 28.902 1068.94 27.228ZM1080.61 25.032C1080.61 21.918 1078.38 19.92 1075.55 19.92C1072.72 19.92 1070.49 21.918 1070.49 25.032C1070.49 28.146 1072.63 30.162 1075.46 30.162C1078.3 30.162 1080.61 28.146 1080.61 25.032ZM1072.58 25.032C1072.58 22.782 1073.97 21.702 1075.51 21.702C1077.04 21.702 1078.5 22.782 1078.5 25.032C1078.5 27.282 1076.99 28.38 1075.46 28.38C1073.91 28.38 1072.58 27.282 1072.58 25.032ZM1081.95 25.032C1081.95 28.146 1083.97 30.162 1086.81 30.162C1089.24 30.162 1090.83 28.812 1091.38 26.868H1089.17C1088.79 27.894 1088.04 28.434 1086.81 28.434C1085.16 28.434 1084.06 27.21 1084.06 25.032C1084.06 22.872 1085.16 21.648 1086.81 21.648C1088.04 21.648 1088.83 22.26 1089.17 23.214H1091.38C1090.83 21.126 1089.24 19.92 1086.81 19.92C1083.97 19.92 1081.95 21.936 1081.95 25.032ZM1093.43 30H1095.48V20.082H1093.43V30ZM1094.47 18.768C1095.19 18.768 1095.77 18.192 1095.77 17.454C1095.77 16.716 1095.19 16.14 1094.47 16.14C1093.74 16.14 1093.16 16.716 1093.16 17.454C1093.16 18.192 1093.74 18.768 1094.47 18.768ZM1097.49 24.996C1097.49 28.056 1099.56 30.162 1102.14 30.162C1103.79 30.162 1104.98 29.37 1105.61 28.524V30H1107.68V20.082H1105.61V21.522C1105 20.712 1103.85 19.92 1102.17 19.92C1099.56 19.92 1097.49 21.936 1097.49 24.996ZM1105.61 25.032C1105.61 27.174 1104.15 28.38 1102.6 28.38C1101.07 28.38 1099.6 27.138 1099.6 24.996C1099.6 22.854 1101.07 21.702 1102.6 21.702C1104.15 21.702 1105.61 22.908 1105.61 25.032ZM1110.7 27.246C1110.7 29.262 1111.8 30 1113.56 30H1115.18V28.29H1113.92C1113.06 28.29 1112.77 27.984 1112.77 27.246V21.756H1115.18V20.082H1112.77V17.616H1110.7V20.082H1109.53V21.756H1110.7V27.246ZM1121.25 21.648C1122.78 21.648 1123.98 22.62 1124.02 24.15H1118.53C1118.75 22.584 1119.86 21.648 1121.25 21.648ZM1125.89 27.048H1123.68C1123.3 27.822 1122.6 28.434 1121.34 28.434C1119.83 28.434 1118.66 27.444 1118.51 25.806H1126.09C1126.14 25.464 1126.16 25.14 1126.16 24.798C1126.16 21.882 1124.16 19.92 1121.34 19.92C1118.4 19.92 1116.39 21.918 1116.39 25.032C1116.39 28.146 1118.49 30.162 1121.34 30.162C1123.77 30.162 1125.33 28.776 1125.89 27.048ZM1135.58 27.228C1135.47 23.646 1129.87 24.762 1129.87 22.764C1129.87 22.098 1130.45 21.648 1131.55 21.648C1132.66 21.648 1133.33 22.242 1133.4 23.106H1135.45C1135.35 21.126 1133.87 19.92 1131.62 19.92C1129.28 19.92 1127.8 21.198 1127.8 22.782C1127.8 26.418 1133.56 25.302 1133.56 27.246C1133.56 27.93 1132.93 28.434 1131.75 28.434C1130.61 28.434 1129.84 27.768 1129.77 26.958H1127.64C1127.73 28.758 1129.41 30.162 1131.78 30.162C1134.12 30.162 1135.58 28.902 1135.58 27.228Z" fill="#212832"/>
<circle cx="856.415" cy="24.415" r="23.415" fill="#3498DB" stroke="#3498DB"/>
<path d="M845.548 24.9942C845.548 28.9654 846.597 31.9625 850.418 31.9625C854.24 31.9625 855.289 28.9654 855.289 24.9942C855.289 21.0979 854.24 18.1008 850.418 18.1008C846.597 18.1008 845.548 21.0979 845.548 24.9942ZM853.191 24.9942C853.191 27.6729 852.91 30.0144 850.418 30.0144C847.927 30.0144 847.646 27.6729 847.646 24.9942C847.646 22.4466 847.927 20.0489 850.418 20.0489C852.91 20.0489 853.191 22.4466 853.191 24.9942ZM857.511 21.7161H859.59C859.721 20.7608 860.414 19.8616 861.913 19.8616C863.374 19.8616 864.142 20.6484 864.142 21.8285C864.142 23.2896 862.962 23.8515 861.032 23.8703H860.527V25.6311H861.014C863.243 25.6311 864.404 26.2493 864.404 28.0475C864.404 29.3213 863.617 30.2954 862.025 30.2954C860.414 30.2954 859.478 29.3213 859.384 28.0475H857.323C857.454 30.7262 859.459 32.0749 862.044 32.0749C864.891 32.0749 866.427 30.4265 866.427 28.2536C866.427 26.3616 865.509 25.1815 864.086 24.7507V24.6758C865.153 24.3198 866.184 23.2147 866.184 21.585C866.184 19.5994 864.704 18.0259 861.988 18.0259C859.496 18.0259 857.661 19.3558 857.511 21.7161Z" fill="#212832"/>
<defs>
<filter id="filter0_d_953_496" x="23.5312" y="0.531738" width="365.938" height="47.9365" filterUnits="userSpaceOnUse" color-interpolation-filters="sRGB">
<feFlood flood-opacity="0" result="BackgroundImageFix"/>
<feColorMatrix in="SourceAlpha" type="matrix" values="0 0 0 0 0 0 0 0 0 0 0 0 0 0 0 0 0 0 127 0" result="hardAlpha"/>
<feOffset/>
<feComposite in2="hardAlpha" operator="out"/>
<feColorMatrix type="matrix" values="0 0 0 0 0 0 0 0 0 0 0 0 0 0 0 0 0 0 0.1 0"/>
<feBlend mode="normal" in2="BackgroundImageFix" result="effect1_dropShadow_953_496"/>
<feBlend mode="normal" in="SourceGraphic" in2="effect1_dropShadow_953_496" result="shape"/>
</filter>
<filter id="filter1_d_953_496" x="23.5312" y="75.5317" width="365.938" height="47.9365" filterUnits="userSpaceOnUse" color-interpolation-filters="sRGB">
<feFlood flood-opacity="0" result="BackgroundImageFix"/>
<feColorMatrix in="SourceAlpha" type="matrix" values="0 0 0 0 0 0 0 0 0 0 0 0 0 0 0 0 0 0 127 0" result="hardAlpha"/>
<feOffset/>
<feComposite in2="hardAlpha" operator="out"/>
<feColorMatrix type="matrix" values="0 0 0 0 0 0 0 0 0 0 0 0 0 0 0 0 0 0 0.1 0"/>
<feBlend mode="normal" in2="BackgroundImageFix" result="effect1_dropShadow_953_496"/>
<feBlend mode="normal" in="SourceGraphic" in2="effect1_dropShadow_953_496" result="shape"/>
</filter>
<filter id="filter2_d_953_496" x="23.5312" y="150.532" width="365.938" height="47.9365" filterUnits="userSpaceOnUse" color-interpolation-filters="sRGB">
<feFlood flood-opacity="0" result="BackgroundImageFix"/>
<feColorMatrix in="SourceAlpha" type="matrix" values="0 0 0 0 0 0 0 0 0 0 0 0 0 0 0 0 0 0 127 0" result="hardAlpha"/>
<feOffset/>
<feComposite in2="hardAlpha" operator="out"/>
<feColorMatrix type="matrix" values="0 0 0 0 0 0 0 0 0 0 0 0 0 0 0 0 0 0 0.1 0"/>
<feBlend mode="normal" in2="BackgroundImageFix" result="effect1_dropShadow_953_496"/>
<feBlend mode="normal" in="SourceGraphic" in2="effect1_dropShadow_953_496" result="shape"/>
</filter>
<filter id="filter3_d_953_496" x="435.531" y="75.5317" width="365.938" height="47.9365" filterUnits="userSpaceOnUse" color-interpolation-filters="sRGB">
<feFlood flood-opacity="0" result="BackgroundImageFix"/>
<feColorMatrix in="SourceAlpha" type="matrix" values="0 0 0 0 0 0 0 0 0 0 0 0 0 0 0 0 0 0 127 0" result="hardAlpha"/>
<feOffset/>
<feComposite in2="hardAlpha" operator="out"/>
<feColorMatrix type="matrix" values="0 0 0 0 0 0 0 0 0 0 0 0 0 0 0 0 0 0 0.1 0"/>
<feBlend mode="normal" in2="BackgroundImageFix" result="effect1_dropShadow_953_496"/>
<feBlend mode="normal" in="SourceGraphic" in2="effect1_dropShadow_953_496" result="shape"/>
</filter>
<filter id="filter4_d_953_496" x="858.531" y="75.5317" width="365.938" height="47.9365" filterUnits="userSpaceOnUse" color-interpolation-filters="sRGB">
<feFlood flood-opacity="0" result="BackgroundImageFix"/>
<feColorMatrix in="SourceAlpha" type="matrix" values="0 0 0 0 0 0 0 0 0 0 0 0 0 0 0 0 0 0 127 0" result="hardAlpha"/>
<feOffset/>
<feComposite in2="hardAlpha" operator="out"/>
<feColorMatrix type="matrix" values="0 0 0 0 0 0 0 0 0 0 0 0 0 0 0 0 0 0 0.1 0"/>
<feBlend mode="normal" in2="BackgroundImageFix" result="effect1_dropShadow_953_496"/>
<feBlend mode="normal" in="SourceGraphic" in2="effect1_dropShadow_953_496" result="shape"/>
</filter>
<filter id="filter5_d_953_496" x="436.531" y="0.531738" width="365.938" height="47.9365" filterUnits="userSpaceOnUse" color-interpolation-filters="sRGB">
<feFlood flood-opacity="0" result="BackgroundImageFix"/>
<feColorMatrix in="SourceAlpha" type="matrix" values="0 0 0 0 0 0 0 0 0 0 0 0 0 0 0 0 0 0 127 0" result="hardAlpha"/>
<feOffset/>
<feComposite in2="hardAlpha" operator="out"/>
<feColorMatrix type="matrix" values="0 0 0 0 0 0 0 0 0 0 0 0 0 0 0 0 0 0 0.1 0"/>
<feBlend mode="normal" in2="BackgroundImageFix" result="effect1_dropShadow_953_496"/>
<feBlend mode="normal" in="SourceGraphic" in2="effect1_dropShadow_953_496" result="shape"/>
</filter>
<filter id="filter6_d_953_496" x="859.531" y="0.531738" width="365.938" height="47.9365" filterUnits="userSpaceOnUse" color-interpolation-filters="sRGB">
<feFlood flood-opacity="0" result="BackgroundImageFix"/>
<feColorMatrix in="SourceAlpha" type="matrix" values="0 0 0 0 0 0 0 0 0 0 0 0 0 0 0 0 0 0 127 0" result="hardAlpha"/>
<feOffset/>
<feComposite in2="hardAlpha" operator="out"/>
<feColorMatrix type="matrix" values="0 0 0 0 0 0 0 0 0 0 0 0 0 0 0 0 0 0 0.1 0"/>
<feBlend mode="normal" in2="BackgroundImageFix" result="effect1_dropShadow_953_496"/>
<feBlend mode="normal" in="SourceGraphic" in2="effect1_dropShadow_953_496" result="shape"/>
</filter>
</defs>
</svg>
