<svg width="590" height="411" viewBox="0 0 590 411" fill="none" xmlns="http://www.w3.org/2000/svg">
<path d="M589.401 403.579C589.401 407.216 569.398 410.284 544.736 410.284C520.073 410.284 500.07 407.329 500.07 403.579C500.07 399.942 520.073 396.873 544.736 396.873C569.398 396.873 589.401 399.942 589.401 403.579Z" fill="#CDD4DE"/>
<path d="M396.985 29.8905C396.076 21.1393 388.689 14.3202 379.596 14.3202C377.21 14.3202 374.823 14.7748 372.777 15.684C369.254 6.47817 360.275 0 349.933 0C339.704 0 330.953 6.25087 327.316 15.1157C325.612 14.5475 323.793 14.2065 321.975 14.2065C312.996 14.2065 305.495 21.0256 304.586 29.7769H396.985V29.8905Z" fill="url(#paint0_linear_777_5665)"/>
<path d="M112.74 254.24C112.286 249.694 108.421 246.171 103.875 246.171C102.625 246.171 101.489 246.398 100.352 246.852C98.5337 242.193 93.9876 238.783 88.646 238.783C83.418 238.783 78.8719 241.965 77.0535 246.512C76.1442 246.284 75.235 246.057 74.3258 246.057C69.6661 246.057 65.9155 249.58 65.4609 254.126H112.74V254.24Z" fill="url(#paint1_linear_777_5665)"/>
<path d="M528.592 66.9411C528.137 62.395 524.273 58.8718 519.727 58.8718C518.477 58.8718 517.34 59.0991 516.204 59.5537C514.385 54.894 509.839 51.4844 504.498 51.4844C499.27 51.4844 494.723 54.6667 492.905 59.2128C491.996 58.9855 491.087 58.7582 490.177 58.7582C485.518 58.7582 481.767 62.2814 481.312 66.8275H528.592V66.9411Z" fill="url(#paint2_linear_777_5665)"/>
<path d="M205.365 77.5108C204.911 72.9647 201.046 69.4415 196.5 69.4415C195.25 69.4415 194.114 69.6688 192.977 70.1234C191.159 65.4636 186.613 62.0541 181.271 62.0541C176.043 62.0541 171.497 65.2363 169.678 69.7824C168.769 69.5551 167.86 69.3278 166.951 69.3278C162.291 69.3278 158.541 72.851 158.086 77.3971H205.365V77.5108Z" fill="url(#paint3_linear_777_5665)"/>
<path d="M360.611 379.257C430.347 379.257 486.879 376.255 486.879 372.552C486.879 368.848 430.347 365.846 360.611 365.846C290.876 365.846 234.344 368.848 234.344 372.552C234.344 376.255 290.876 379.257 360.611 379.257Z" fill="#CDD4DE"/>
<path d="M389.024 349.253L386.637 316.521H321.514L319.014 349.48C318.787 353.117 317.65 356.754 315.945 359.823H392.32C390.501 356.64 389.365 353.004 389.024 349.253Z" fill="#BFBFBF"/>
<path d="M405.96 359.936H302.196C300.832 359.936 299.695 361.073 299.695 362.437V369.597C299.695 370.961 300.832 372.097 302.196 372.097H405.96C407.324 372.097 408.46 370.961 408.46 369.597V362.437C408.46 360.959 407.324 359.936 405.96 359.936Z" fill="#DEDEDE"/>
<path d="M387.209 324.477H320.836L319.586 341.979L388.345 341.525" fill="#BFBFBF"/>
<path d="M185.25 293.109V314.021C185.25 319.931 190.023 324.591 195.82 324.591H512.114C518.023 324.591 522.683 319.817 522.683 314.021V293.109H185.25Z" fill="#DEDEDE"/>
<path d="M512.34 91.8309H196.046C190.136 91.8309 185.477 96.6043 185.477 102.401V292.768H523.023V102.514C522.91 96.6043 518.136 91.8309 512.34 91.8309Z" fill="#02093B"/>
<path d="M507.682 105.242H199.344V279.471H507.682V105.242Z" fill="url(#paint4_linear_777_5665)"/>
<path d="M326.637 190.708H273.789V272.424H326.637V190.708Z" fill="#7257FA"/>
<path d="M213.664 112.97V207.983V213.211V272.311H270.149V213.211V207.983V112.97H213.664Z" fill="#7257FA"/>
<path d="M383.236 112.743H342.435H330.274H273.789V186.049H342.435H383.236V112.743Z" fill="#FF5C9D"/>
<path d="M439.715 112.743H386.867V186.049H439.715V112.743Z" fill="#7257FA"/>
<path d="M499.041 112.743H443.352V186.049H499.041V112.743Z" fill="#7257FA"/>
<path d="M456.195 190.708H443.352H386.867V272.311H443.352H456.195H499.042V190.708H456.195Z" fill="#FF5C9D"/>
<path d="M383.122 190.708H330.273V272.424H383.122V190.708Z" fill="#7257FA"/>
<path d="M225.594 117.175H217.07V125.699H225.594V117.175Z" fill="white"/>
<path d="M266.623 117.175H228.891V120.471H266.623V117.175Z" fill="#54CEFF"/>
<path d="M252.53 122.403H228.891V125.699H252.53V122.403Z" fill="#54CEFF"/>
<path d="M225.594 155.476H217.07V164H225.594V155.476Z" fill="white"/>
<path d="M266.623 155.476H228.891V158.772H266.623V155.476Z" fill="#54CEFF"/>
<path d="M252.53 160.704H228.891V164H252.53V160.704Z" fill="#54CEFF"/>
<path d="M225.594 193.777H217.07V202.301H225.594V193.777Z" fill="white"/>
<path d="M266.623 193.777H228.891V197.073H266.623V193.777Z" fill="#54CEFF"/>
<path d="M252.53 199.005H228.891V202.301H252.53V199.005Z" fill="#54CEFF"/>
<path d="M225.594 232.078H217.07V240.602H225.594V232.078Z" fill="white"/>
<path d="M266.623 232.078H228.891V235.374H266.623V232.078Z" fill="#54CEFF"/>
<path d="M252.53 237.306H228.891V240.602H252.53V237.306Z" fill="#54CEFF"/>
<path d="M266.63 131.723H217.305V133.541H266.63V131.723Z" fill="#8E97FF"/>
<path d="M266.63 135.587H217.305V137.405H266.63V135.587Z" fill="#8E97FF"/>
<path d="M266.63 139.451H217.305V141.27H266.63V139.451Z" fill="#8E97FF"/>
<path d="M266.63 143.315H217.305V145.134H266.63V143.315Z" fill="#8E97FF"/>
<path d="M266.63 169.683H217.305V171.501H266.63V169.683Z" fill="#8E97FF"/>
<path d="M266.63 173.547H217.305V175.365H266.63V173.547Z" fill="#8E97FF"/>
<path d="M266.63 177.411H217.305V179.229H266.63V177.411Z" fill="#8E97FF"/>
<path d="M266.63 181.389H217.305V183.207H266.63V181.389Z" fill="#8E97FF"/>
<path d="M266.63 208.097H217.305V209.916H266.63V208.097Z" fill="#8E97FF"/>
<path d="M266.63 211.961H217.305V213.78H266.63V211.961Z" fill="#8E97FF"/>
<path d="M266.63 215.825H217.305V217.644H266.63V215.825Z" fill="#8E97FF"/>
<path d="M266.63 219.69H217.305V221.508H266.63V219.69Z" fill="#8E97FF"/>
<path d="M266.63 246.852H217.305V248.671H266.63V246.852Z" fill="#8E97FF"/>
<path d="M266.63 250.717H217.305V252.535H266.63V250.717Z" fill="#8E97FF"/>
<path d="M266.63 254.694H217.305V256.513H266.63V254.694Z" fill="#8E97FF"/>
<path d="M266.63 258.559H217.305V260.377H266.63V258.559Z" fill="#8E97FF"/>
<path d="M285.375 233.441H276.852V241.965H285.375V233.441Z" fill="white"/>
<path d="M323.452 233.441H287.992V236.737H323.452V233.441Z" fill="#54CEFF"/>
<path d="M310.268 238.67H287.992V241.965H310.268V238.67Z" fill="#54CEFF"/>
<path d="M323.562 247.534H277.078V249.353H323.562V247.534Z" fill="#8E97FF"/>
<path d="M323.562 251.399H277.078V253.217H323.562V251.399Z" fill="#8E97FF"/>
<path d="M323.562 255.376H277.078V257.195H323.562V255.376Z" fill="#8E97FF"/>
<path d="M323.562 259.241H277.078V261.059H323.562V259.241Z" fill="#8E97FF"/>
<path d="M398.118 116.721H389.594V125.245H398.118V116.721Z" fill="white"/>
<path d="M436.194 116.721H400.734V120.017H436.194V116.721Z" fill="#54CEFF"/>
<path d="M423.01 121.949H400.734V125.245H423.01V121.949Z" fill="#54CEFF"/>
<path d="M436.304 130.814H389.82V132.632H436.304V130.814Z" fill="#8E97FF"/>
<path d="M436.304 134.678H389.82V136.496H436.304V134.678Z" fill="#8E97FF"/>
<path d="M436.304 138.542H389.82V140.36H436.304V138.542Z" fill="#8E97FF"/>
<path d="M436.304 142.406H389.82V144.225H436.304V142.406Z" fill="#8E97FF"/>
<path d="M286.399 116.152H277.875V124.676H286.399V116.152Z" fill="white"/>
<path d="M324.475 116.152H289.016V119.448H324.475V116.152Z" fill="#FF9CC3"/>
<path d="M311.291 121.494H289.016V124.79H311.291V121.494Z" fill="#FF9CC3"/>
<path d="M398.118 150.248H389.594V158.772H398.118V150.248Z" fill="white"/>
<path d="M436.194 150.248H400.734V153.544H436.194V150.248Z" fill="#54CEFF"/>
<path d="M423.01 155.476H400.734V158.772H423.01V155.476Z" fill="#54CEFF"/>
<path d="M436.304 164.341H389.82V166.159H436.304V164.341Z" fill="#8E97FF"/>
<path d="M436.304 168.205H389.82V170.024H436.304V168.205Z" fill="#8E97FF"/>
<path d="M436.304 172.069H389.82V173.888H436.304V172.069Z" fill="#8E97FF"/>
<path d="M436.304 175.934H389.82V177.752H436.304V175.934Z" fill="#8E97FF"/>
<path d="M284.809 140.019H281.172V178.888H284.809V140.019Z" fill="#FF9CC3"/>
<path d="M291.285 148.202H287.648V178.888H291.285V148.202Z" fill="white"/>
<path d="M297.652 140.019H294.016V178.888H297.652V140.019Z" fill="#FF9CC3"/>
<path d="M304.129 148.202H300.492V178.888H304.129V148.202Z" fill="white"/>
<path d="M310.606 140.019H306.969V178.888H310.606V140.019Z" fill="#FF9CC3"/>
<path d="M317.09 140.019H313.453V178.888H317.09V140.019Z" fill="white"/>
<path d="M323.567 148.202H319.93V178.888H323.567V148.202Z" fill="#FF9CC3"/>
<path d="M329.926 140.019H326.289V178.888H329.926V140.019Z" fill="white"/>
<path d="M336.41 135.36H332.773V178.888H336.41V135.36Z" fill="#FF9CC3"/>
<path d="M342.887 140.019H339.25V178.888H342.887V140.019Z" fill="white"/>
<path d="M349.363 135.36H345.727V178.888H349.363V135.36Z" fill="#FF9CC3"/>
<path d="M355.84 140.019H352.203V178.888H355.84V140.019Z" fill="white"/>
<path d="M362.317 129.109H358.68V178.888H362.317V129.109Z" fill="#FF9CC3"/>
<path d="M368.684 140.019H365.047V178.888H368.684V140.019Z" fill="white"/>
<path d="M379.144 169.569H373.461V173.32H379.144V169.569Z" fill="#FF9CC3"/>
<path d="M379.144 175.024H373.461V178.775H379.144V175.024Z" fill="white"/>
<path d="M399.141 195.027H390.617V203.551H399.141V195.027Z" fill="white"/>
<path d="M437.217 195.027H401.758V198.323H437.217V195.027Z" fill="#FF9CC3"/>
<path d="M424.034 200.255H401.758V203.551H424.034V200.255Z" fill="#FF9CC3"/>
<path d="M455.633 116.607H447.109V125.131H455.633V116.607Z" fill="white"/>
<path d="M493.709 116.607H458.25V119.903H493.709V116.607Z" fill="#54CEFF"/>
<path d="M480.526 121.835H458.25V125.131H480.526V121.835Z" fill="#54CEFF"/>
<path d="M494.843 255.263H486.773V259.013H494.843V255.263Z" fill="#FF9CC3"/>
<path d="M494.843 260.832H486.773V264.582H494.843V260.832Z" fill="white"/>
<path d="M344.814 253.558H340.609V261.173H344.814V253.558Z" fill="#54CEFF"/>
<path d="M352.088 249.807H347.883V261.173H352.088V249.807Z" fill="#54CEFF"/>
<path d="M359.479 244.693H355.273V261.173H359.479V244.693Z" fill="#54CEFF"/>
<path d="M366.752 241.965H362.547V261.173H366.752V241.965Z" fill="#54CEFF"/>
<path d="M374.025 233.214H369.82V260.832H374.025V233.214Z" fill="#54CEFF"/>
<path d="M375.161 264.241H336.633V233.214H337.201V263.787H375.161V264.241Z" fill="#54CEFF"/>
<path d="M345.047 261.4H340.273V232.987H345.047V261.4ZM340.955 260.945H344.592V233.441H340.955V260.945Z" fill="#54CEFF"/>
<path d="M352.43 261.4H347.656V232.987H352.43V261.4ZM348.225 260.945H351.861V233.441H348.225V260.945Z" fill="#54CEFF"/>
<path d="M359.703 261.4H354.93V232.987H359.703V261.4ZM355.498 260.945H359.135V233.441H355.498V260.945Z" fill="#54CEFF"/>
<path d="M366.976 261.4H362.203V232.987H366.976V261.4ZM362.885 260.945H366.522V233.441H362.885V260.945Z" fill="#54CEFF"/>
<path d="M376.187 223.895H336.75V196.959H337.205V223.44H376.187V223.895Z" fill="#00FEFF"/>
<path d="M372.095 202.301C371.982 201.619 370.845 201.505 370.618 202.301L366.981 216.962C366.754 217.644 365.617 217.644 365.39 216.962L363.685 212.643C363.458 212.189 362.662 212.189 362.549 212.643L361.639 214.803C361.071 216.28 358.685 216.28 358.116 214.803L354.366 205.824C354.252 205.483 353.684 205.369 353.343 205.597L347.888 210.597C346.865 211.507 345.16 211.166 344.705 210.029L342.887 201.164C342.773 200.823 342.205 200.823 342.091 201.164L339.25 221.053L374.596 221.394L372.095 202.301Z" fill="#54CEFF"/>
<path d="M299.808 196.732C291.966 196.732 285.602 203.096 285.602 210.938C285.602 218.78 291.966 225.145 299.808 225.145C307.65 225.145 314.015 218.78 314.015 210.938C314.015 203.096 307.65 196.732 299.808 196.732ZM299.808 223.44C292.875 223.44 287.193 217.871 287.193 210.825C287.193 203.892 292.762 198.209 299.808 198.209C306.741 198.209 312.423 203.778 312.423 210.825C312.423 217.871 306.741 223.44 299.808 223.44Z" fill="#B0E8FF"/>
<path d="M297.422 206.165C297.422 204.915 298.445 203.778 299.809 203.778C301.059 203.778 302.195 204.801 302.195 206.165C302.195 207.529 301.172 208.552 299.809 208.552C298.445 208.552 297.422 207.415 297.422 206.165Z" fill="#B0E8FF"/>
<path d="M303.674 213.893C303.674 211.734 301.969 210.029 299.809 210.029C297.65 210.029 295.945 211.734 295.945 213.893V218.212H303.787V213.893H303.674Z" fill="#B0E8FF"/>
<path d="M481.716 167.563C489.084 160.195 489.084 148.25 481.716 140.882C474.349 133.514 462.403 133.514 455.036 140.882C447.668 148.25 447.668 160.195 455.036 167.563C462.403 174.93 474.349 174.93 481.716 167.563Z" fill="#3E308A"/>
<path d="M468.358 154.226L481.769 167.523C478.246 171.046 473.359 173.092 468.358 173.092C458.016 173.092 449.492 164.568 449.492 154.226C449.492 143.884 458.016 135.36 468.358 135.36V154.226Z" fill="#B0E8FF"/>
<path d="M468.358 154.226L453.356 165.591C450.856 162.295 449.492 158.317 449.492 154.226C449.492 143.884 458.016 135.36 468.358 135.36V154.226Z" fill="#54CEFF"/>
<path d="M468.354 154.226L455.625 140.36C457.33 138.769 459.376 137.519 461.535 136.724C463.694 135.928 466.081 135.473 468.354 135.473V154.226Z" fill="#5642BD"/>
<path d="M482.568 224.577C480.863 228.214 478.363 231.623 475.294 234.351C467.793 240.829 457.223 243.67 446.881 243.102C440.744 242.761 434.607 241.17 429.833 237.647C422.673 232.305 419.718 223.326 412.899 217.644C407.785 213.325 400.511 211.279 393.578 211.961V264.355H482.454V224.577H482.568Z" fill="#FF9CC3"/>
<path d="M483.249 264.469C477.225 264.469 472.225 256.74 469.724 252.421C468.815 250.717 468.02 249.012 467.451 247.193C463.701 235.828 466.087 222.531 457.109 213.211C453.017 209.006 445.744 208.097 440.402 210.825C435.401 213.325 433.242 219.008 431.992 224.236C429.491 234.237 428.696 255.149 414.489 256.967C403.351 258.445 395.85 242.647 393.805 230.941C393.805 246.171 393.805 264.355 393.805 264.355C393.805 264.355 482.567 264.469 483.249 264.469Z" fill="white"/>
<path d="M286.399 406.42C315.523 406.42 339.133 401.332 339.133 395.055C339.133 388.778 315.523 383.69 286.399 383.69C257.274 383.69 233.664 388.778 233.664 395.055C233.664 401.332 257.274 406.42 286.399 406.42Z" fill="#CDD4DE"/>
<path d="M291.398 403.238C291.398 403.238 299.922 406.988 304.696 406.875L305.491 399.601L295.263 399.26L291.398 403.238Z" fill="#EEA886"/>
<path d="M299.016 406.761C300.379 407.216 316.177 409.602 318.45 408.352C322.655 406.079 320.837 401.76 317.314 400.737C314.7 400.056 301.516 398.692 300.493 399.033C300.379 399.033 303.221 403.351 299.016 406.761Z" fill="#DB4F87"/>
<path d="M303.677 400.169C303.677 400.169 304.928 403.238 302.995 406.306C302.995 406.306 297.654 406.193 298.222 402.329C298.677 398.464 303.677 400.169 303.677 400.169Z" fill="#FF5C9D"/>
<path d="M342.322 373.347C343.231 378.575 328.457 386.076 312.091 389.372C295.725 392.668 283.45 399.146 280.723 385.963C279.7 380.848 292.201 373.916 308.567 370.62C325.047 367.437 341.413 368.233 342.322 373.347Z" fill="#02093B"/>
<path d="M233.556 373.347C232.646 378.575 247.421 386.076 263.787 389.372C280.153 392.668 294.246 398.464 295.155 385.963C295.496 380.735 283.676 373.916 267.31 370.62C250.831 367.437 234.465 368.233 233.556 373.347Z" fill="#02093B"/>
<path d="M299.358 395.85L296.972 405.511C296.972 405.511 244.919 395.396 233.781 378.462C233.44 377.893 233.213 377.098 233.213 376.416C233.099 374.029 233.895 368.915 241.168 370.392C241.168 370.392 254.125 371.643 274.468 386.531C281.401 392.441 299.358 395.85 299.358 395.85Z" fill="url(#paint5_linear_777_5665)"/>
<path d="M279.349 404.033C277.985 404.602 276.508 404.943 275.598 405.284C274.235 405.738 263.097 406.079 260.824 406.534C258.551 406.988 258.096 407.216 256.278 405.397C254.459 403.692 253.891 401.419 256.505 400.396C259.005 399.487 267.643 398.123 269.348 397.896C271.052 397.669 273.212 397.101 274.235 397.442C274.576 397.555 275.939 397.669 277.758 396.987C277.758 398.123 279.349 404.033 279.349 404.033Z" fill="#EEA886"/>
<path d="M275.601 405.17C274.237 405.624 258.44 408.011 256.167 406.761C251.962 404.488 253.78 400.169 257.303 399.146C259.917 398.464 273.101 397.101 274.124 397.442C274.124 397.442 271.396 401.76 275.601 405.17Z" fill="#DB4F87"/>
<path d="M270.945 398.578C270.945 398.578 269.695 401.647 271.627 404.715C271.627 404.715 276.968 404.602 276.4 400.737C275.945 396.873 270.945 398.578 270.945 398.578Z" fill="#FF5C9D"/>
<path d="M276.969 395.85L279.355 405.511C279.355 405.511 331.408 395.396 342.546 378.462C342.887 377.893 343.114 377.098 343.114 376.416C343.228 374.029 342.432 368.915 335.159 370.392C335.159 370.392 319.816 372.324 301.859 386.531C292.539 393.236 276.969 395.85 276.969 395.85Z" fill="#333466"/>
<path d="M271.397 309.588C271.283 312.202 271.511 314.589 271.852 317.203C272.647 322.545 269.124 328.227 270.942 333.114C271.738 335.274 273.443 336.751 275.375 337.774C277.193 338.683 279.239 339.138 281.285 339.479C282.876 339.82 284.808 339.934 285.831 338.456C286.513 337.547 286.513 336.183 286.399 335.047C286.058 324.477 285.717 313.794 284.808 303.224C284.581 300.837 284.24 298.223 282.762 296.405C281.739 295.155 278.898 293.563 278.103 295.382C277.534 296.859 276.625 298.678 275.716 299.928C273.784 302.769 271.511 305.383 271.397 309.588Z" fill="#02093B"/>
<path d="M300.949 309.588C301.063 312.202 300.835 314.589 300.494 317.203C299.699 322.545 303.222 328.227 301.404 333.114C300.608 335.274 298.903 336.751 296.971 337.774C295.153 338.683 293.107 339.138 291.061 339.479C289.47 339.82 287.538 339.934 286.515 338.456C285.833 337.547 285.833 336.183 285.947 335.047C286.288 324.477 286.629 313.794 287.538 303.224C287.765 300.837 288.106 298.223 289.584 296.405C290.607 295.155 293.448 293.563 294.244 295.382C294.812 296.859 295.721 298.678 296.63 299.928C298.676 302.769 300.835 305.383 300.949 309.588Z" fill="#02093B"/>
<path d="M324.019 354.026C323.906 353.685 315.495 340.502 313.222 334.478C310.949 328.455 305.494 325.727 302.88 324.818C301.971 324.477 300.266 324.022 298.561 323.454C295.492 322.431 292.083 321.408 292.083 321.408H281.286C281.286 321.408 277.535 322.658 273.558 324.022C269.921 325.272 266.057 326.75 264.806 327.318C262.079 328.682 257.533 338.342 256.623 339.365C255.714 340.502 248.668 353.572 247.645 358.686C246.849 362.664 270.148 374.143 270.716 375.62C271.398 374.825 274.808 371.529 274.808 371.529C274.808 371.529 273.671 370.847 272.194 369.824C278.445 370.165 293.674 369.597 295.833 369.71C296.288 369.71 296.743 369.71 297.197 369.71C297.879 370.165 302.198 374.029 302.198 374.029C302.198 374.029 312.995 369.597 317.882 364.596C325.156 357.436 324.815 355.504 324.019 354.026ZM262.874 362.664C260.601 359.936 257.419 358.232 258.215 356.981C259.01 355.731 266.738 341.866 266.738 341.866C266.738 341.866 266.511 351.071 271.057 355.618C274.012 358.572 271.171 361.641 270.716 362.891C270.375 364.028 270.034 364.71 269.693 368.119C266.966 366.187 264.011 364.028 262.874 362.664ZM310.495 361.414C309.585 362.437 306.062 364.71 302.766 366.528C302.539 364.255 302.198 360.846 302.084 359.482C301.971 357.55 303.448 356.299 305.153 352.208C306.289 349.367 305.38 342.207 305.38 342.207C305.38 342.207 313.563 353.231 314.813 354.481C316.177 355.731 313.45 357.891 310.495 361.414Z" fill="url(#paint6_linear_777_5665)"/>
<path d="M264.352 358.232L267.534 378.234H305.607L307.88 358.232H264.352Z" fill="#525252"/>
<path d="M289.126 368.915C289.126 370.506 287.989 371.756 286.625 371.756C285.262 371.756 284.125 370.506 284.125 368.915C284.125 367.324 285.262 366.074 286.625 366.074C287.989 366.074 289.126 367.324 289.126 368.915Z" fill="#6E6E6E"/>
<path d="M292.197 321.295C291.629 320.044 291.97 314.362 291.97 314.362C291.97 314.362 281.287 311.634 281.514 313.68C281.855 315.726 280.605 321.408 280.605 321.408C279.354 321.863 276.513 322.772 273.672 323.795C273.672 323.795 278.332 338.797 286.742 338.797C295.152 338.797 298.675 323.34 298.675 323.34C295.834 322.431 292.765 321.522 292.197 321.295Z" fill="#EEA886"/>
<path d="M280.602 321.295C283.784 324.25 289.466 324.818 292.194 321.295C291.626 320.158 291.967 314.362 291.967 314.362C291.967 314.362 281.283 311.634 281.511 313.68C281.738 315.612 280.829 320.385 280.602 321.295Z" fill="#DB9B7B"/>
<path d="M281.516 316.18C282.538 318.453 284.812 320.044 286.744 320.158C289.699 320.272 290.949 319.249 291.972 316.976C291.972 315.726 292.085 314.703 292.085 314.703C292.085 314.703 281.402 311.975 281.629 314.021C281.629 314.475 281.516 315.271 281.516 316.18Z" fill="#B88267"/>
<path d="M287.873 291.745C287.873 291.745 296.283 293.109 295.033 306.179C293.896 318.112 287.191 318.453 286.623 318.453C286.168 318.453 278.326 317.089 277.758 302.428C277.871 302.428 277.644 290.609 287.873 291.745Z" fill="#EEA886"/>
<path d="M278.328 303.565C278.328 303.565 277.191 302.997 276.737 303.906C275.032 307.77 278.214 309.02 278.214 309.134C278.214 309.134 278.328 309.475 278.555 309.361C278.896 309.247 278.328 303.565 278.328 303.565Z" fill="#EEA886"/>
<path d="M294.805 303.451C294.805 303.451 295.828 302.997 296.396 303.792C297.76 305.838 294.919 308.906 294.919 309.02C294.919 309.02 294.805 309.361 294.578 309.247C294.237 309.02 294.805 303.451 294.805 303.451Z" fill="#EEA886"/>
<path d="M296.854 306.747L294.012 313.566C294.012 313.566 294.467 302.769 294.24 302.201C294.012 301.633 293.558 299.814 292.99 299.246C292.762 298.905 285.034 296.177 279.692 299.928C279.692 299.928 278.669 301.405 278.897 303.451C279.92 311.521 279.124 314.589 279.124 314.589C279.124 314.589 274.351 309.361 276.055 298.337C276.624 294.7 278.783 289.358 287.875 290.04C299.468 291.063 296.854 306.747 296.854 306.747Z" fill="#020A45"/>
<path d="M288.558 301.633C289.695 301.974 290.945 301.974 292.081 302.315C293.218 302.656 294.355 303.451 294.468 304.701C295.377 302.883 295.264 300.496 294.241 298.678C293.218 296.859 291.4 295.496 289.467 295.041C288.331 294.7 287.194 294.7 286.172 295.041C281.739 296.518 285.944 300.837 288.558 301.633Z" fill="#020A45"/>
<path d="M351.982 62.395V56.4851H347.891V62.395H341.867V66.6001H347.891V72.5101H351.982V66.6001H358.006V62.395H351.982Z" fill="white"/>
<path d="M550.303 149.339V143.429H546.211V149.339H540.188V153.544H546.211V159.454H550.303V153.544H556.326V149.339H550.303Z" fill="white"/>
<path d="M10.115 302.769V296.746H6.02356V302.769H0V306.861H6.02356V312.771H10.115V306.861H16.025V302.769H10.115Z" fill="white"/>
<path d="M545.303 217.985C545.303 217.985 543.257 239.351 546.439 246.171C546.439 246.171 535.983 243.329 533.938 236.51L537.688 220.599L545.303 217.985Z" fill="#02093B"/>
<path d="M531.212 222.531C531.212 222.531 530.075 237.988 533.939 243.443C533.939 243.443 527.007 240.602 522.688 235.374C522.688 235.374 521.551 208.211 532.917 204.688L535.531 219.235C535.531 219.121 531.553 219.69 531.212 222.531Z" fill="#02093B"/>
<path d="M543.711 236.169C543.711 236.169 547.348 237.306 549.507 240.147C551.553 242.988 551.894 247.08 552.008 249.125C552.121 251.171 552.689 259.127 552.689 259.127L546.439 260.832L543.711 236.169Z" fill="#DE4784"/>
<path d="M570.078 395.85C570.078 395.85 574.738 402.101 574.056 403.124C573.374 404.147 568.487 404.261 565.532 403.124C562.577 401.988 562.464 394.6 561.1 391.418C560.532 390.054 561.782 386.19 563.487 385.849C565.191 385.622 567.01 386.417 567.01 386.417C567.01 386.417 565.305 390.963 570.078 395.85Z" fill="#292C47"/>
<path d="M567.128 386.531C567.128 386.531 568.151 389.259 568.492 391.759C568.833 393.918 571.788 398.351 571.675 398.919C571.561 399.487 567.697 400.056 566.106 398.578C564.515 397.101 563.492 392.895 563.151 390.281C562.81 387.895 562.469 386.758 562.469 386.758C562.469 386.758 565.651 384.94 567.128 386.531Z" fill="#EEA886"/>
<path d="M529.505 395.964C529.505 395.964 534.051 402.101 533.369 403.124C532.687 404.147 527.8 404.261 524.845 403.124C521.89 401.988 521.776 394.6 520.412 391.418C519.844 390.054 521.094 386.19 522.799 385.849C524.504 385.622 526.55 386.417 526.55 386.417C526.55 386.417 524.731 391.077 529.505 395.964Z" fill="#292C47"/>
<path d="M526.438 386.645C526.438 386.645 526.779 389.6 527.347 391.645C527.915 393.691 530.984 398.351 530.87 398.919C530.757 399.487 526.892 400.056 525.301 398.578C523.71 397.101 522.574 392.895 522.346 390.281C522.233 387.667 522.687 386.076 522.687 386.076C522.687 386.076 524.96 385.054 526.438 386.645Z" fill="#EEA886"/>
<path d="M548.942 284.358C548.942 284.358 552.92 302.997 553.829 307.656C554.739 312.316 557.353 335.047 557.58 338.911C557.807 342.775 561.785 357.322 561.558 358.686C561.33 360.05 567.354 387.781 567.354 387.781C567.354 387.781 565.308 389.372 563.149 387.895C562.012 387.099 550.079 361.982 550.079 355.049C550.079 345.503 543.032 333.114 542.123 330.955C533.713 311.18 535.304 305.042 534.281 303.792C533.145 302.542 533.031 304.588 532.463 307.429C531.781 310.27 530.417 334.933 529.622 338.001C528.826 341.07 529.394 351.753 528.94 356.981C528.485 362.323 526.439 386.417 526.439 386.417C526.439 386.417 524.848 388.918 522.689 386.531C522.234 385.963 518.938 359.709 518.825 353.345C518.711 346.98 518.597 338.229 518.484 335.501C516.779 309.248 512.574 305.497 519.166 286.858C531.44 252.194 548.942 284.358 548.942 284.358Z" fill="#EEA886"/>
<path d="M522.004 279.243C522.004 279.243 510.638 295.155 515.525 329.137C515.525 329.137 542.575 332.773 557.008 324.931C557.008 324.931 550.985 289.927 548.825 284.471C546.78 278.902 522.004 279.243 522.004 279.243Z" fill="#02093B"/>
<path d="M560.984 390.963V397.555H561.894V392.441L560.984 390.963Z" fill="#292C47"/>
<path d="M520.297 390.963V397.555H521.092V392.441L520.297 390.963Z" fill="#292C47"/>
<path d="M537.348 233.896C537.348 233.896 542.235 235.942 543.712 236.283C545.19 236.624 550.077 243.898 551.1 246.512C552.123 249.239 551.1 253.217 549.054 257.99C547.008 262.764 548.94 264.241 548.031 269.015C547.122 273.788 550.077 283.789 550.304 286.403C550.532 289.017 522.914 289.472 517.459 284.699C517.459 284.699 522.914 276.516 523.596 275.379C524.278 274.243 523.71 267.878 523.028 266.173C522.346 264.582 518.141 250.603 518.141 250.603C518.141 250.603 514.618 239.92 517.8 237.533C520.527 235.374 528.028 234.692 529.392 234.123C530.642 233.669 534.62 233.442 537.348 233.896Z" fill="#FF5C9D"/>
<path d="M539.283 229.009C539.283 229.009 539.169 230.032 539.055 231.509C538.942 232.191 538.942 232.873 538.828 233.669C538.601 235.828 538.487 238.101 538.601 239.238C538.601 239.238 534.282 243.557 529.281 234.123C529.281 234.123 531.327 230.259 529.85 224.918C528.258 219.576 539.283 229.009 539.283 229.009Z" fill="#EEA886"/>
<path d="M550.303 264.241L550.985 265.946L549.508 264.81L550.303 264.241Z" fill="#EEA886"/>
<path d="M540.87 204.801C540.87 204.801 550.644 207.87 545.302 224.804C539.961 241.738 526.663 222.872 528.027 212.53C529.391 202.187 540.87 204.801 540.87 204.801Z" fill="#EEA987"/>
<path d="M546.328 214.689C546.328 214.689 541.441 219.462 533.372 220.031C533.372 220.031 530.19 223.667 529.962 225.145C529.962 225.145 521.439 210.938 531.667 205.369C542.351 199.46 549.624 211.62 546.328 214.689Z" fill="#02093B"/>
<path d="M539.054 231.509C538.94 232.191 538.94 232.873 538.826 233.669C533.144 230.828 532.348 226.85 532.234 226.736C536.667 231.509 539.054 231.509 539.054 231.509Z" fill="#A77860"/>
<path d="M551.554 249.012C551.554 249.012 551.782 254.922 550.531 258.331L549.281 257.649C549.281 257.763 551.554 251.853 551.554 249.012Z" fill="#1D3B54"/>
<path d="M530.415 268.446C530.415 268.446 532.688 266.969 533.029 266.742C533.37 266.514 534.62 266.628 535.871 266.969C537.121 267.31 538.485 267.878 538.826 268.105C539.053 268.219 539.28 268.219 539.167 268.787C539.053 269.356 538.712 269.81 538.712 269.81C538.712 269.81 538.939 270.606 538.371 271.06C538.371 271.06 538.598 271.742 537.916 272.311C537.916 272.311 538.03 272.992 537.575 273.333C537.575 273.333 536.439 273.447 535.984 273.447C535.416 273.333 532.12 272.538 529.847 271.97C529.847 271.97 528.824 271.401 530.415 268.446Z" fill="#EEA886"/>
<path d="M538.144 267.878C538.144 267.878 544.054 269.128 543.941 269.583C543.827 270.265 542.349 270.492 537.917 269.242C533.598 268.105 538.144 267.878 538.144 267.878Z" fill="#EEA886"/>
<path d="M523.709 236.51C522.345 235.715 517.912 235.828 516.208 239.92C514.503 244.125 513.025 248.785 511.889 250.944C510.639 253.103 506.547 262.991 507.797 264.241C509.047 265.378 511.548 266.855 515.298 267.764C519.162 268.674 530.528 272.879 530.528 272.879L532.005 266.742C532.005 266.742 527.004 264.355 524.163 263.218C521.549 262.196 521.89 261.968 517.685 260.377C517.685 260.377 520.072 254.24 521.208 252.535C522.231 250.944 529.732 240.147 523.709 236.51Z" fill="#DE4784"/>
<path d="M537.803 279.016L554.737 277.652C555.192 277.652 555.533 277.425 555.874 276.97L572.467 250.035C573.035 249.126 572.353 247.875 571.33 247.875L553.26 247.648C552.692 247.648 552.237 247.875 552.01 248.33L536.439 276.857C535.985 277.88 536.667 279.016 537.803 279.016Z" fill="#857B77"/>
<path d="M560.418 269.469C560.418 269.469 561.327 268.56 562.236 267.31C563.032 266.06 565.873 261.286 565.646 261.059C565.419 260.718 561.214 260.604 560.532 261.286C559.736 261.968 561.214 262.195 561.214 262.195C561.214 262.195 558.941 262.423 559.168 263.105C559.282 263.787 560.645 263.559 560.645 263.559C560.645 263.559 558.827 263.9 559.054 264.469C559.282 265.037 560.191 265.037 560.191 265.037C560.191 265.037 558.6 265.264 558.827 265.832C559.054 266.401 561.555 266.969 561.214 267.537C560.873 268.105 560.418 269.469 560.418 269.469Z" fill="#EEA886"/>
<path d="M528.594 234.237C528.594 234.237 534.049 243.216 538.368 243.102C542.687 242.988 539.732 234.805 539.732 234.805C539.732 234.805 536.436 232.191 528.594 234.237Z" fill="#EEA886"/>
<path d="M557.125 264.241C555.647 265.719 553.715 266.06 552.692 265.15C551.669 264.128 552.124 262.195 553.602 260.718C555.079 259.241 557.011 258.9 558.034 259.809C559.057 260.832 558.602 262.764 557.125 264.241Z" fill="#918682"/>
<path d="M547.118 212.302C547.118 212.302 547.686 214.689 546.663 218.78C546.663 218.78 546.777 214.916 545.981 213.893C545.186 212.757 547.118 212.302 547.118 212.302Z" fill="#02093B"/>
<path d="M533.256 219.917C533.143 218.667 532.461 215.939 530.642 216.621C528.824 217.417 530.756 223.099 532.006 222.758C531.893 222.758 533.37 222.872 533.256 219.917Z" fill="#EEA987"/>
<path d="M193.206 403.579C193.206 407.216 173.203 410.284 148.54 410.284C123.878 410.284 103.875 407.329 103.875 403.579C103.875 399.942 123.878 396.873 148.54 396.873C173.089 396.873 193.206 399.942 193.206 403.579Z" fill="#CDD4DE"/>
<path d="M123.876 277.425C124.672 282.994 126.49 286.062 127.399 286.176C131.377 286.744 134.9 280.039 134.9 280.039L136.946 270.833C136.946 270.833 138.651 250.717 126.035 245.943C125.808 246.057 122.626 268.105 123.876 277.425Z" fill="#020A3D"/>
<path d="M164.109 262.65L181.385 272.083L198.773 244.807L177.748 237.533L164.109 262.65Z" fill="#292C47"/>
<path d="M165.25 261.741L181.389 270.719L197.641 245.148L177.979 238.329L165.25 261.741Z" fill="white"/>
<path d="M159.344 256.968C159.344 256.968 162.412 255.49 163.663 254.808C165.026 254.013 168.436 252.99 168.663 252.762C168.891 252.535 178.778 251.967 179.347 251.399C179.915 250.83 180.483 252.649 177.983 253.103C175.482 253.672 171.959 255.035 171.732 256.058C171.505 257.081 174.346 257.308 174.573 258.104C174.8 258.9 174.459 258.786 174.119 258.9C173.664 259.127 170.823 257.422 169.459 257.877C168.209 258.331 166.163 257.649 165.254 257.99C164.231 258.331 159.457 259.922 159.457 259.922L159.344 256.968Z" fill="#EEA886"/>
<path d="M182.294 268.674C182.294 268.674 184.795 266.401 186.045 265.491C187.295 264.582 189.568 261.741 189.909 261.627C190.25 261.514 194.683 252.421 195.364 252.08C196.046 251.739 194.683 250.489 193.205 252.649C191.728 254.808 189 257.649 187.977 257.422C186.954 257.195 187.863 254.467 187.181 253.899C186.5 253.331 186.5 253.672 186.272 254.013C185.931 254.353 186.386 257.763 185.363 258.786C184.454 259.809 184.227 261.968 183.545 262.764C182.863 263.559 179.453 267.423 179.453 267.423L182.294 268.674Z" fill="#EEA886"/>
<path d="M127.746 390.395C127.746 390.395 127.178 394.146 127.178 394.714C127.064 395.282 121.041 394.373 121.041 394.373L120.586 389.827C120.586 389.94 127.064 389.94 127.746 390.395Z" fill="white"/>
<path d="M127.173 394.373C127.173 394.373 129.105 396.646 130.924 397.669C132.742 398.692 135.697 399.033 136.72 400.056C137.516 400.851 139.561 404.033 131.947 403.92C124.332 403.806 120.581 404.374 119.786 403.124C118.99 401.874 120.922 394.032 120.922 394.032C120.922 394.032 122.855 394.714 127.173 394.373Z" fill="#292C47"/>
<path d="M170.934 390.395C170.934 390.395 170.365 394.146 170.365 394.714C170.252 395.282 164.228 394.373 164.228 394.373L163.773 389.827C163.773 389.94 170.138 389.94 170.934 390.395Z" fill="white"/>
<path d="M170.364 394.373C170.364 394.373 172.296 396.646 174.115 397.669C175.933 398.692 182.752 399.487 183.889 400.51C184.684 401.306 185.935 404.261 175.251 404.033C167.637 403.806 163.886 404.488 163.091 403.238C162.295 401.988 164.227 394.146 164.227 394.146C164.227 394.146 165.818 394.714 170.364 394.373Z" fill="#292C47"/>
<path d="M132.746 292.768C132.746 292.768 127.063 301.746 127.518 309.929C127.972 317.999 125.472 326.977 124.563 335.388C123.653 344.821 119.789 367.21 119.562 372.324C119.448 377.439 120.017 396.078 120.017 396.078L127.745 396.305C127.745 396.305 134.45 354.595 136.041 350.617C137.746 346.639 146.157 318.112 146.384 314.93C146.838 311.634 132.746 292.768 132.746 292.768Z" fill="#02093B"/>
<path d="M162.52 294.018C162.52 294.018 166.839 316.294 167.294 321.295C167.862 326.295 168.203 345.389 168.544 348.457C168.771 351.526 170.59 391.418 172.067 396.078H162.18C162.18 396.078 154.451 366.528 154.451 353.572C154.451 340.615 148.541 325.5 144.791 316.976C141.04 308.452 132.289 308.225 130.016 292.427C129.902 292.313 159.338 289.017 162.52 294.018Z" fill="#02093B"/>
<path d="M142.177 217.189C142.177 217.189 149.792 214.348 153.315 220.144C156.838 225.94 156.497 237.533 152.633 238.897C148.769 240.374 143.086 239.579 141.04 235.942C139.108 232.305 137.29 227.077 137.403 223.554C137.517 220.144 140.245 218.212 142.177 217.189Z" fill="#EEA886"/>
<path d="M151.842 239.238C151.842 239.238 151.501 241.283 152.069 242.306C152.637 243.329 142.181 243.329 142.181 243.329C142.181 243.329 141.386 237.874 139.795 233.214C138.09 228.554 151.842 239.238 151.842 239.238Z" fill="#EEA886"/>
<path d="M152.632 242.193C152.632 242.193 152.632 240.261 151.722 240.033C150.813 239.806 142.062 239.01 141.039 239.465V241.738C141.039 241.624 143.085 242.988 152.632 242.193Z" fill="#E2D2CA"/>
<path d="M187.523 264.923C187.409 264.923 187.409 264.923 187.523 264.923C187.523 264.923 187.523 265.037 187.523 264.923Z" fill="#323657"/>
<path d="M126.38 314.248C126.38 314.248 131.04 315.612 138.995 316.521C146.951 317.43 166.726 316.18 166.954 315.271C167.067 314.362 162.635 280.38 162.976 278.561C163.203 276.857 163.317 270.606 163.317 270.606C163.43 272.311 165.135 279.243 167.295 283.108C168.09 284.471 170.591 288.79 171.841 287.767C177.751 282.994 186.956 265.15 187.525 265.037C187.07 264.809 183.206 262.991 182.638 262.877C182.183 262.764 177.864 267.31 175.25 270.038C174.114 271.288 173.318 272.197 173.318 272.197C172.523 270.492 169.795 259.922 168.999 256.172C167.067 247.875 167.408 247.534 167.408 247.534C161.612 245.83 152.747 242.193 152.747 242.193L141.155 241.738C141.155 241.738 130.471 244.125 126.266 245.943C125.812 246.171 128.312 265.264 128.312 265.264C128.312 265.264 130.358 279.812 130.699 286.29C130.699 289.245 126.38 314.248 126.38 314.248Z" fill="#030E59"/>
<path opacity="0.46" d="M127.404 264.355C126.722 269.128 127.29 274.129 129.109 278.561L130.018 280.948L127.745 261.741L127.404 264.355Z" fill="#030E59"/>
<path d="M173.203 272.083L174.226 276.175C174.226 276.175 175.249 272.083 175.249 269.924C173.999 271.174 173.203 272.083 173.203 272.083Z" fill="#252840"/>
<path d="M190.823 243.329L191.846 241.624L183.89 238.783L182.867 240.602L190.823 243.329Z" fill="#292C47"/>
<path d="M150.819 209.461C148.887 208.324 149.341 213.893 143.772 215.03C143.772 215.03 138.317 215.825 136.839 219.349C135.362 221.394 134.68 224.918 138.317 230.941C138.658 231.85 139.112 232.646 139.567 233.214C139.567 233.214 140.249 234.123 143.318 233.669C150.364 232.532 149.227 228.895 150.478 228.441C151.728 227.986 152.751 227.304 152.751 227.304L153.319 229.236L154.342 229.009C154.342 229.009 153.319 222.304 154.569 220.258C156.388 216.962 154.569 211.62 150.819 209.461Z" fill="#02093B"/>
<path d="M152.525 225.713C152.298 225.031 150.479 222.986 149.797 225.145C149.115 227.304 150.82 230.259 151.843 230.032C152.866 229.691 152.979 227.532 152.525 225.713Z" fill="#EEA886"/>
<path opacity="0.46" d="M163.203 270.492L163.885 252.99L168.204 284.812C168.204 284.812 164.681 279.812 163.203 270.492Z" fill="#030E59"/>
<path d="M68.8774 403.238C68.8774 404.829 65.0133 406.193 60.1262 406.193C55.2392 406.193 51.375 404.829 51.375 403.238C51.375 401.647 55.2392 400.283 60.1262 400.283C65.0133 400.283 68.8774 401.647 68.8774 403.238Z" fill="#CDD4DE"/>
<path d="M79.5578 331.523C78.194 331.069 76.4892 331.182 75.239 330.5C73.1933 329.25 72.966 326.182 74.1025 324.136C75.239 321.977 77.1711 320.272 78.8759 318.453C81.3762 315.726 83.5356 313.907 83.5356 310.725C83.5356 307.543 80.5807 304.815 77.5121 305.724C74.7844 306.52 72.966 309.247 70.1247 309.02C67.6243 308.793 66.3742 305.724 66.3742 303.11C66.3742 300.269 66.9424 297.428 67.1697 294.7C67.397 291.859 67.1697 288.904 65.6922 286.517C64.3284 284.358 61.4871 282.994 58.9868 283.676C57.1683 284.017 55.5772 285.153 54.5543 286.631C52.9632 289.017 52.8495 291.972 53.0769 294.814C53.3042 297.655 53.9861 300.383 53.8724 303.224C53.8724 305.838 52.6222 308.907 50.1219 309.134C47.3942 309.361 45.4622 306.52 42.7345 305.838C39.6659 304.929 36.7109 307.656 36.7109 310.839C36.7109 314.021 38.7567 315.839 41.3707 318.567C42.9618 320.385 45.0075 322.09 46.1441 324.25C47.2806 326.409 47.0533 329.478 45.0075 330.614C43.7574 331.41 42.0526 331.182 40.6888 331.637C38.643 332.319 37.3929 334.478 37.1655 336.638C36.9382 338.797 37.6202 340.956 38.643 342.889C42.6209 350.731 64.8967 364.482 81.8308 342.775C83.1947 341.07 83.5356 338.683 83.3083 336.524C82.8537 334.365 81.6035 332.205 79.5578 331.523Z" fill="url(#paint7_linear_777_5665)"/>
<path d="M67.3975 338.115L60.9193 342.548V324.022L68.1931 319.022C68.534 318.794 68.6477 318.34 68.4204 317.999C68.1931 317.658 67.7384 317.544 67.3975 317.771L60.9193 322.204V306.293C60.9193 305.952 60.5784 305.611 60.2374 305.611C59.8964 305.611 59.5555 305.952 59.5555 306.293V322.431L52.2818 317.658C51.9408 317.43 51.4862 317.544 51.2589 317.885C51.0316 318.226 51.1452 318.681 51.4862 318.908L59.5555 324.136V342.661L52.2818 337.888C51.9408 337.66 51.4862 337.774 51.2589 338.115C51.0316 338.456 51.1452 338.911 51.4862 339.138L59.5555 344.366V391.304C59.5555 391.645 59.8964 391.986 60.2374 391.986C60.5784 391.986 60.9193 391.645 60.9193 391.304V344.139L68.1931 339.138C68.534 338.911 68.6477 338.456 68.4204 338.115C68.1931 338.001 67.7384 337.888 67.3975 338.115Z" fill="#8F3358"/>
<path d="M62.3969 403.124H57.7371C56.487 403.124 55.3505 402.215 55.1231 400.965L53.1911 390.85C52.9638 389.6 53.873 388.463 55.2368 388.463H64.8972C66.1474 388.463 67.1703 389.6 66.943 390.85L65.0109 400.965C64.6699 402.215 63.6471 403.124 62.3969 403.124Z" fill="#02093B"/>
<path d="M93.1977 403.238C93.1977 404.829 89.3336 406.193 84.4465 406.193C79.5595 406.193 75.6953 404.829 75.6953 403.238C75.6953 401.647 79.5595 400.283 84.4465 400.283C89.3336 400.283 93.1977 401.647 93.1977 403.238Z" fill="#CDD4DE"/>
<path d="M101.15 340.275C99.8999 339.82 98.5361 339.934 97.3996 339.365C95.5812 338.342 95.4675 335.615 96.3767 333.796C97.3996 331.978 99.1044 330.387 100.468 328.796C102.741 326.409 104.56 324.818 104.56 321.976C104.56 319.135 102.059 316.749 99.3317 317.544C96.945 318.226 95.3538 320.613 92.8535 320.499C90.5805 320.272 89.5576 317.544 89.5576 315.385C89.5576 312.884 90.1259 310.498 90.2395 307.997C90.4668 305.497 90.2395 302.883 88.8757 300.837C87.6255 298.905 85.1252 297.655 83.0794 298.337C81.4883 298.564 80.0108 299.587 79.2152 300.951C77.8514 302.997 77.6241 305.611 77.8514 308.111C78.0787 310.611 78.647 312.998 78.5333 315.498C78.5333 317.771 77.5105 320.499 75.2374 320.613C72.8507 320.84 71.1459 318.34 68.7592 317.658C66.0316 316.862 63.5312 319.249 63.5312 322.09C63.5312 324.931 65.3497 326.523 67.6227 328.909C68.9866 330.5 70.805 331.978 71.7142 333.91C72.7371 335.728 72.5098 338.456 70.6913 339.479C69.5548 340.161 68.191 339.934 66.9408 340.388C65.1224 341.07 63.9859 342.889 63.8722 344.821C63.6449 346.753 64.3268 348.571 65.1224 350.276C68.6456 357.095 88.0801 369.142 102.855 350.162C103.991 348.685 104.332 346.639 104.105 344.707C104.105 342.775 102.969 340.843 101.15 340.275Z" fill="url(#paint8_linear_777_5665)"/>
<path d="M90.5826 346.071L84.9 349.935V333.796L91.2645 329.478C91.4918 329.25 91.6055 328.909 91.3782 328.568C91.1509 328.227 90.8099 328.227 90.4689 328.455L84.7863 332.319V318.453C84.7863 318.112 84.559 317.885 84.2181 317.885C83.8771 317.885 83.6498 318.112 83.6498 318.453V332.66L77.2853 328.455C76.9443 328.227 76.6034 328.341 76.3761 328.682C76.1488 329.023 76.2624 329.364 76.6034 329.591L83.6498 334.137V350.39L77.2853 346.184C76.9443 345.957 76.6034 346.071 76.3761 346.412C76.1488 346.753 76.2624 347.094 76.6034 347.321L83.6498 351.867V392.895C83.6498 393.236 83.8771 393.464 84.2181 393.464C84.559 393.464 84.7863 393.236 84.7863 392.895V351.64L91.1508 347.321C91.3782 347.094 91.4918 346.753 91.2645 346.412C91.2645 345.957 90.8099 345.843 90.5826 346.071Z" fill="#327A96"/>
<path d="M86.6054 403.124H82.0593C80.8092 403.124 79.6727 402.215 79.4453 400.965L77.6269 391.418C77.286 389.941 78.5361 388.577 80.0136 388.577H88.7648C90.2423 388.577 91.4925 389.941 91.1515 391.418L89.3331 400.965C89.1058 402.215 87.9693 403.124 86.6054 403.124Z" fill="#02093B"/>
<defs>
<linearGradient id="paint0_linear_777_5665" x1="350.757" y1="-3.06599" x2="350.757" y2="46.0762" gradientUnits="userSpaceOnUse">
<stop stop-color="white"/>
<stop offset="1" stop-color="white" stop-opacity="0"/>
</linearGradient>
<linearGradient id="paint1_linear_777_5665" x1="89.0253" y1="234.581" x2="89.0253" y2="259.838" gradientUnits="userSpaceOnUse">
<stop stop-color="white"/>
<stop offset="1" stop-color="white" stop-opacity="0"/>
</linearGradient>
<linearGradient id="paint2_linear_777_5665" x1="504.801" y1="54.0633" x2="504.801" y2="79.3206" gradientUnits="userSpaceOnUse">
<stop stop-color="white"/>
<stop offset="1" stop-color="white" stop-opacity="0"/>
</linearGradient>
<linearGradient id="paint3_linear_777_5665" x1="181.65" y1="60.1248" x2="181.65" y2="85.382" gradientUnits="userSpaceOnUse">
<stop stop-color="white"/>
<stop offset="1" stop-color="white" stop-opacity="0"/>
</linearGradient>
<linearGradient id="paint4_linear_777_5665" x1="353.576" y1="273.665" x2="353.576" y2="66.7446" gradientUnits="userSpaceOnUse">
<stop offset="0.00649351" stop-color="#061690"/>
<stop offset="0.238" stop-color="#1624AD"/>
<stop offset="0.561" stop-color="#2936D0"/>
<stop offset="0.8266" stop-color="#3540E5"/>
<stop offset="1" stop-color="#3944ED"/>
</linearGradient>
<linearGradient id="paint5_linear_777_5665" x1="233.06" y1="387.859" x2="299.328" y2="387.859" gradientUnits="userSpaceOnUse">
<stop stop-color="#333466"/>
<stop offset="1" stop-color="#28284F"/>
</linearGradient>
<linearGradient id="paint6_linear_777_5665" x1="286.031" y1="324.153" x2="286.031" y2="367.014" gradientUnits="userSpaceOnUse">
<stop offset="0.0238095" stop-color="#FF5C9D"/>
<stop offset="0.9957" stop-color="#C73870"/>
</linearGradient>
<linearGradient id="paint7_linear_777_5665" x1="60.0345" y1="289.111" x2="60.0345" y2="360.143" gradientUnits="userSpaceOnUse">
<stop stop-color="#FF8AB8"/>
<stop offset="1" stop-color="#FF5C9D"/>
</linearGradient>
<linearGradient id="paint8_linear_777_5665" x1="84.1317" y1="294.793" x2="84.1317" y2="362.422" gradientUnits="userSpaceOnUse">
<stop stop-color="#54CEFF"/>
<stop offset="0.9827" stop-color="#41A1C7"/>
</linearGradient>
</defs>
</svg>
