<svg width="1226" height="124" viewBox="0 0 1226 124" fill="none" xmlns="http://www.w3.org/2000/svg">
<g filter="url(#filter0_d_953_403)">
<rect x="24" y="1" width="365" height="47" fill="white" shape-rendering="crispEdges"/>
<rect x="23.7658" y="0.765849" width="365.468" height="47.4683" stroke="black" stroke-opacity="0.2" stroke-width="0.468302" shape-rendering="crispEdges"/>
</g>
<path d="M119.229 30H121.281V21.432L125.115 30H126.537L130.353 21.432V30H132.405V17.49H130.209L125.835 27.3L121.443 17.49H119.229V30ZM134.418 24.996C134.418 28.056 136.488 30.162 139.062 30.162C140.718 30.162 141.906 29.37 142.536 28.524V30H144.606V20.082H142.536V21.522C141.924 20.712 140.772 19.92 139.098 19.92C136.488 19.92 134.418 21.936 134.418 24.996ZM142.536 25.032C142.536 27.174 141.078 28.38 139.53 28.38C138 28.38 136.524 27.138 136.524 24.996C136.524 22.854 138 21.702 139.53 21.702C141.078 21.702 142.536 22.908 142.536 25.032ZM149.353 24.78C149.353 22.674 150.289 22.044 151.801 22.044H152.323V19.92C150.919 19.92 149.929 20.532 149.353 21.522V20.082H147.301V30H149.353V24.78ZM154.209 30H156.261V25.734L159.933 30H162.705L158.133 25.05L162.705 20.082H159.861L156.261 24.42V16.68H154.209V30ZM168.352 21.648C169.882 21.648 171.088 22.62 171.124 24.15H165.634C165.85 22.584 166.966 21.648 168.352 21.648ZM172.996 27.048H170.782C170.404 27.822 169.702 28.434 168.442 28.434C166.93 28.434 165.76 27.444 165.616 25.806H173.194C173.248 25.464 173.266 25.14 173.266 24.798C173.266 21.882 171.268 19.92 168.442 19.92C165.508 19.92 163.492 21.918 163.492 25.032C163.492 28.146 165.598 30.162 168.442 30.162C170.872 30.162 172.438 28.776 172.996 27.048ZM175.61 27.246C175.61 29.262 176.708 30 178.472 30H180.092V28.29H178.832C177.968 28.29 177.68 27.984 177.68 27.246V21.756H180.092V20.082H177.68V17.616H175.61V20.082H174.44V21.756H175.61V27.246ZM181.983 30H184.035V20.082H181.983V30ZM183.027 18.768C183.747 18.768 184.323 18.192 184.323 17.454C184.323 16.716 183.747 16.14 183.027 16.14C182.289 16.14 181.713 16.716 181.713 17.454C181.713 18.192 182.289 18.768 183.027 18.768ZM193.767 30H195.801V24.15C195.801 21.378 194.055 19.92 191.733 19.92C190.545 19.92 189.447 20.406 188.781 21.216V20.082H186.729V30H188.781V24.456C188.781 22.638 189.771 21.702 191.283 21.702C192.777 21.702 193.767 22.638 193.767 24.456V30ZM197.734 24.996C197.734 28.056 199.804 30.162 202.414 30.162C204.034 30.162 205.222 29.352 205.852 28.506V30.162C205.852 32.142 204.664 33.114 203.08 33.114C201.658 33.114 200.56 32.412 200.254 31.386H198.22C198.472 33.582 200.434 34.896 203.08 34.896C206.176 34.896 207.922 32.862 207.922 30.162V20.082H205.852V21.522C205.24 20.676 204.034 19.92 202.414 19.92C199.804 19.92 197.734 21.936 197.734 24.996ZM205.852 25.032C205.852 27.174 204.394 28.38 202.846 28.38C201.316 28.38 199.84 27.138 199.84 24.996C199.84 22.854 201.316 21.702 202.846 21.702C204.394 21.702 205.852 22.908 205.852 25.032ZM215.293 30H217.345V21.432L221.179 30H222.601L226.417 21.432V30H228.469V17.49H226.273L221.899 27.3L217.507 17.49H215.293V30ZM230.482 24.996C230.482 28.056 232.552 30.162 235.126 30.162C236.782 30.162 237.97 29.37 238.6 28.524V30H240.67V20.082H238.6V21.522C237.988 20.712 236.836 19.92 235.162 19.92C232.552 19.92 230.482 21.936 230.482 24.996ZM238.6 25.032C238.6 27.174 237.142 28.38 235.594 28.38C234.064 28.38 232.588 27.138 232.588 24.996C232.588 22.854 234.064 21.702 235.594 21.702C237.142 21.702 238.6 22.908 238.6 25.032ZM250.404 30H252.438V24.15C252.438 21.378 250.692 19.92 248.37 19.92C247.182 19.92 246.084 20.406 245.418 21.216V20.082H243.366V30H245.418V24.456C245.418 22.638 246.408 21.702 247.92 21.702C249.414 21.702 250.404 22.638 250.404 24.456V30ZM254.371 24.996C254.371 28.056 256.441 30.162 259.015 30.162C260.671 30.162 261.859 29.37 262.489 28.524V30H264.559V20.082H262.489V21.522C261.877 20.712 260.725 19.92 259.051 19.92C256.441 19.92 254.371 21.936 254.371 24.996ZM262.489 25.032C262.489 27.174 261.031 28.38 259.483 28.38C257.953 28.38 256.477 27.138 256.477 24.996C256.477 22.854 257.953 21.702 259.483 21.702C261.031 21.702 262.489 22.908 262.489 25.032ZM266.57 24.996C266.57 28.056 268.64 30.162 271.25 30.162C272.87 30.162 274.058 29.352 274.688 28.506V30.162C274.688 32.142 273.5 33.114 271.916 33.114C270.494 33.114 269.396 32.412 269.09 31.386H267.056C267.308 33.582 269.27 34.896 271.916 34.896C275.012 34.896 276.758 32.862 276.758 30.162V20.082H274.688V21.522C274.076 20.676 272.87 19.92 271.25 19.92C268.64 19.92 266.57 21.936 266.57 24.996ZM274.688 25.032C274.688 27.174 273.23 28.38 271.682 28.38C270.152 28.38 268.676 27.138 268.676 24.996C268.676 22.854 270.152 21.702 271.682 21.702C273.23 21.702 274.688 22.908 274.688 25.032ZM283.63 21.648C285.16 21.648 286.366 22.62 286.402 24.15H280.912C281.128 22.584 282.244 21.648 283.63 21.648ZM288.274 27.048H286.06C285.682 27.822 284.98 28.434 283.72 28.434C282.208 28.434 281.038 27.444 280.894 25.806H288.472C288.526 25.464 288.544 25.14 288.544 24.798C288.544 21.882 286.546 19.92 283.72 19.92C280.786 19.92 278.77 21.918 278.77 25.032C278.77 28.146 280.876 30.162 283.72 30.162C286.15 30.162 287.716 28.776 288.274 27.048ZM292.615 24.78C292.615 22.674 293.551 22.044 295.063 22.044H295.585V19.92C294.181 19.92 293.191 20.532 292.615 21.522V20.082H290.563V30H292.615V24.78Z" fill="#212832"/>
<path d="M389 1H387V48H389V1Z" fill="#946FB0" stroke="#946FB0" stroke-width="0.936604"/>
<circle cx="24.4151" cy="24.4151" r="23.4151" fill="#946FB0" stroke="#946FB0"/>
<path d="M16.3494 23.9942C16.3494 27.9654 17.3983 30.9625 21.2197 30.9625C25.041 30.9625 26.09 27.9654 26.09 23.9942C26.09 20.0979 25.041 17.1008 21.2197 17.1008C17.3983 17.1008 16.3494 20.0979 16.3494 23.9942ZM23.992 23.9942C23.992 26.6729 23.7111 29.0144 21.2197 29.0144C18.7283 29.0144 18.4473 26.6729 18.4473 23.9942C18.4473 21.4466 18.7283 19.0489 21.2197 19.0489C23.7111 19.0489 23.992 21.4466 23.992 23.9942ZM29.8107 31H31.9649V17.3443H28.0686V19.2925H29.8107V31Z" fill="#212832"/>
<g filter="url(#filter1_d_953_403)">
<rect x="24" y="76" width="365" height="47" fill="white" shape-rendering="crispEdges"/>
<rect x="23.7658" y="75.7658" width="365.468" height="47.4683" stroke="black" stroke-opacity="0.2" stroke-width="0.468302" shape-rendering="crispEdges"/>
</g>
<path d="M91.5299 99.25V95.164H93.7979C95.3999 95.164 96.1199 95.92 96.1199 97.216C96.1199 98.476 95.3999 99.25 93.7979 99.25H91.5299ZM98.2259 97.216C98.2259 95.182 96.7679 93.49 93.7979 93.49H89.4779V106H91.5299V100.924H93.7979C97.0559 100.924 98.2259 98.998 98.2259 97.216ZM104.359 97.648C105.889 97.648 107.095 98.62 107.131 100.15H101.641C101.857 98.584 102.973 97.648 104.359 97.648ZM109.003 103.048H106.789C106.411 103.822 105.709 104.434 104.449 104.434C102.937 104.434 101.767 103.444 101.623 101.806H109.201C109.255 101.464 109.273 101.14 109.273 100.798C109.273 97.882 107.275 95.92 104.449 95.92C101.515 95.92 99.499 97.918 99.499 101.032C99.499 104.146 101.605 106.162 104.449 106.162C106.879 106.162 108.445 104.776 109.003 103.048ZM113.344 100.78C113.344 98.674 114.28 98.044 115.792 98.044H116.314V95.92C114.91 95.92 113.92 96.532 113.344 97.522V96.082H111.292V106H113.344V100.78ZM125.599 103.228C125.491 99.646 119.893 100.762 119.893 98.764C119.893 98.098 120.469 97.648 121.567 97.648C122.683 97.648 123.349 98.242 123.421 99.106H125.473C125.365 97.126 123.889 95.92 121.639 95.92C119.299 95.92 117.823 97.198 117.823 98.782C117.823 102.418 123.583 101.302 123.583 103.246C123.583 103.93 122.953 104.434 121.765 104.434C120.631 104.434 119.857 103.768 119.785 102.958H117.661C117.751 104.758 119.425 106.162 121.801 106.162C124.141 106.162 125.599 104.902 125.599 103.228ZM137.266 101.032C137.266 97.918 135.034 95.92 132.208 95.92C129.382 95.92 127.15 97.918 127.15 101.032C127.15 104.146 129.292 106.162 132.118 106.162C134.962 106.162 137.266 104.146 137.266 101.032ZM129.238 101.032C129.238 98.782 130.624 97.702 132.172 97.702C133.702 97.702 135.16 98.782 135.16 101.032C135.16 103.282 133.648 104.38 132.118 104.38C130.57 104.38 129.238 103.282 129.238 101.032ZM146.332 106H148.366V100.15C148.366 97.378 146.62 95.92 144.298 95.92C143.11 95.92 142.012 96.406 141.346 97.216V96.082H139.294V106H141.346V100.456C141.346 98.638 142.336 97.702 143.848 97.702C145.342 97.702 146.332 98.638 146.332 100.456V106ZM150.3 100.996C150.3 104.056 152.37 106.162 154.944 106.162C156.6 106.162 157.788 105.37 158.418 104.524V106H160.488V96.082H158.418V97.522C157.806 96.712 156.654 95.92 154.98 95.92C152.37 95.92 150.3 97.936 150.3 100.996ZM158.418 101.032C158.418 103.174 156.96 104.38 155.412 104.38C153.882 104.38 152.406 103.138 152.406 100.996C152.406 98.854 153.882 97.702 155.412 97.702C156.96 97.702 158.418 98.908 158.418 101.032ZM163.183 106H165.235V92.68H163.183V106ZM172.605 106H174.657V100.528H178.797V98.854H174.657V95.164H179.967V93.49H172.605V106ZM181.869 106H183.921V96.082H181.869V106ZM182.913 94.768C183.633 94.768 184.209 94.192 184.209 93.454C184.209 92.716 183.633 92.14 182.913 92.14C182.175 92.14 181.599 92.716 181.599 93.454C181.599 94.192 182.175 94.768 182.913 94.768ZM193.653 106H195.687V100.15C195.687 97.378 193.941 95.92 191.619 95.92C190.431 95.92 189.333 96.406 188.667 97.216V96.082H186.615V106H188.667V100.456C188.667 98.638 189.657 97.702 191.169 97.702C192.663 97.702 193.653 98.638 193.653 100.456V106ZM197.62 100.996C197.62 104.056 199.69 106.162 202.264 106.162C203.92 106.162 205.108 105.37 205.738 104.524V106H207.808V96.082H205.738V97.522C205.126 96.712 203.974 95.92 202.3 95.92C199.69 95.92 197.62 97.936 197.62 100.996ZM205.738 101.032C205.738 103.174 204.28 104.38 202.732 104.38C201.202 104.38 199.726 103.138 199.726 100.996C199.726 98.854 201.202 97.702 202.732 97.702C204.28 97.702 205.738 98.908 205.738 101.032ZM217.541 106H219.575V100.15C219.575 97.378 217.829 95.92 215.507 95.92C214.319 95.92 213.221 96.406 212.555 97.216V96.082H210.503V106H212.555V100.456C212.555 98.638 213.545 97.702 215.057 97.702C216.551 97.702 217.541 98.638 217.541 100.456V106ZM221.509 101.032C221.509 104.146 223.525 106.162 226.369 106.162C228.799 106.162 230.383 104.812 230.941 102.868H228.727C228.349 103.894 227.593 104.434 226.369 104.434C224.713 104.434 223.615 103.21 223.615 101.032C223.615 98.872 224.713 97.648 226.369 97.648C227.593 97.648 228.385 98.26 228.727 99.214H230.941C230.383 97.126 228.799 95.92 226.369 95.92C223.525 95.92 221.509 97.936 221.509 101.032ZM232.986 106H235.038V96.082H232.986V106ZM234.03 94.768C234.75 94.768 235.326 94.192 235.326 93.454C235.326 92.716 234.75 92.14 234.03 92.14C233.292 92.14 232.716 92.716 232.716 93.454C232.716 94.192 233.292 94.768 234.03 94.768ZM237.048 100.996C237.048 104.056 239.118 106.162 241.692 106.162C243.348 106.162 244.536 105.37 245.166 104.524V106H247.236V96.082H245.166V97.522C244.554 96.712 243.402 95.92 241.728 95.92C239.118 95.92 237.048 97.936 237.048 100.996ZM245.166 101.032C245.166 103.174 243.708 104.38 242.16 104.38C240.63 104.38 239.154 103.138 239.154 100.996C239.154 98.854 240.63 97.702 242.16 97.702C243.708 97.702 245.166 98.908 245.166 101.032ZM249.931 106H251.983V92.68H249.931V106ZM267.795 106H269.955L265.473 93.472H263.097L258.615 106H260.757L261.657 103.444H266.895L267.795 106ZM266.319 101.77H262.233L264.285 95.956L266.319 101.77ZM271.22 100.996C271.22 104.056 273.29 106.162 275.9 106.162C277.52 106.162 278.708 105.406 279.338 104.506V106H281.408V92.68H279.338V97.468C278.582 96.532 277.214 95.92 275.918 95.92C273.29 95.92 271.22 97.936 271.22 100.996ZM279.338 101.032C279.338 103.174 277.88 104.38 276.332 104.38C274.802 104.38 273.326 103.138 273.326 100.996C273.326 98.854 274.802 97.702 276.332 97.702C277.88 97.702 279.338 98.908 279.338 101.032ZM282.933 96.082L286.695 106H289.143L292.923 96.082H290.745L287.937 104.164L285.129 96.082H282.933ZM294.474 106H296.526V96.082H294.474V106ZM295.518 94.768C296.238 94.768 296.814 94.192 296.814 93.454C296.814 92.716 296.238 92.14 295.518 92.14C294.78 92.14 294.204 92.716 294.204 93.454C294.204 94.192 294.78 94.768 295.518 94.768ZM306.618 103.228C306.51 99.646 300.912 100.762 300.912 98.764C300.912 98.098 301.488 97.648 302.586 97.648C303.702 97.648 304.368 98.242 304.44 99.106H306.492C306.384 97.126 304.908 95.92 302.658 95.92C300.318 95.92 298.842 97.198 298.842 98.782C298.842 102.418 304.602 101.302 304.602 103.246C304.602 103.93 303.972 104.434 302.784 104.434C301.65 104.434 300.876 103.768 300.804 102.958H298.68C298.77 104.758 300.444 106.162 302.82 106.162C305.16 106.162 306.618 104.902 306.618 103.228ZM318.285 101.032C318.285 97.918 316.053 95.92 313.227 95.92C310.401 95.92 308.169 97.918 308.169 101.032C308.169 104.146 310.311 106.162 313.137 106.162C315.981 106.162 318.285 104.146 318.285 101.032ZM310.257 101.032C310.257 98.782 311.643 97.702 313.191 97.702C314.721 97.702 316.179 98.782 316.179 101.032C316.179 103.282 314.667 104.38 313.137 104.38C311.589 104.38 310.257 103.282 310.257 101.032ZM322.366 100.78C322.366 98.674 323.302 98.044 324.814 98.044H325.336V95.92C323.932 95.92 322.942 96.532 322.366 97.522V96.082H320.314V106H322.366V100.78Z" fill="#212832"/>
<path d="M389 76H387V123H389V76Z" fill="#CF1C54" stroke="#CF1C54" stroke-width="0.936604"/>
<circle cx="24.4151" cy="99.4151" r="23.4151" fill="#E9336C" stroke="#E9336C"/>
<path d="M13.4777 99.6055C13.4777 103.577 14.5267 106.574 18.348 106.574C22.1694 106.574 23.2184 103.577 23.2184 99.6055C23.2184 95.7093 22.1694 92.7121 18.348 92.7121C14.5267 92.7121 13.4777 95.7093 13.4777 99.6055ZM21.1204 99.6055C21.1204 102.284 20.8394 104.626 18.348 104.626C15.8567 104.626 15.5757 102.284 15.5757 99.6055C15.5757 97.058 15.8567 94.6603 18.348 94.6603C20.8394 94.6603 21.1204 97.058 21.1204 99.6055ZM31.9967 106.611H34.0947V103.764H35.8368V101.91H34.0947V93.1242H31.5097L25.2157 102.153V103.764H31.9967V106.611ZM27.6696 101.91L32.0904 95.2972V101.91H27.6696Z" fill="#212832"/>
<g filter="url(#filter2_d_953_403)">
<rect x="436" y="76" width="365" height="47" fill="white" shape-rendering="crispEdges"/>
<rect x="435.766" y="75.7658" width="365.468" height="47.4683" stroke="black" stroke-opacity="0.2" stroke-width="0.468302" shape-rendering="crispEdges"/>
</g>
<path d="M542.489 106H544.541V100.528H548.681V98.854H544.541V95.164H549.851V93.49H542.489V106ZM551.752 106H553.804V96.082H551.752V106ZM552.796 94.768C553.516 94.768 554.092 94.192 554.092 93.454C554.092 92.716 553.516 92.14 552.796 92.14C552.058 92.14 551.482 92.716 551.482 93.454C551.482 94.192 552.058 94.768 552.796 94.768ZM563.536 106H565.57V100.15C565.57 97.378 563.824 95.92 561.502 95.92C560.314 95.92 559.216 96.406 558.55 97.216V96.082H556.498V106H558.55V100.456C558.55 98.638 559.54 97.702 561.052 97.702C562.546 97.702 563.536 98.638 563.536 100.456V106ZM567.504 100.996C567.504 104.056 569.574 106.162 572.148 106.162C573.804 106.162 574.992 105.37 575.622 104.524V106H577.692V96.082H575.622V97.522C575.01 96.712 573.858 95.92 572.184 95.92C569.574 95.92 567.504 97.936 567.504 100.996ZM575.622 101.032C575.622 103.174 574.164 104.38 572.616 104.38C571.086 104.38 569.61 103.138 569.61 100.996C569.61 98.854 571.086 97.702 572.616 97.702C574.164 97.702 575.622 98.908 575.622 101.032ZM587.425 106H589.459V100.15C589.459 97.378 587.713 95.92 585.391 95.92C584.203 95.92 583.105 96.406 582.439 97.216V96.082H580.387V106H582.439V100.456C582.439 98.638 583.429 97.702 584.941 97.702C586.435 97.702 587.425 98.638 587.425 100.456V106ZM591.393 101.032C591.393 104.146 593.409 106.162 596.253 106.162C598.683 106.162 600.267 104.812 600.825 102.868H598.611C598.233 103.894 597.477 104.434 596.253 104.434C594.597 104.434 593.499 103.21 593.499 101.032C593.499 98.872 594.597 97.648 596.253 97.648C597.477 97.648 598.269 98.26 598.611 99.214H600.825C600.267 97.126 598.683 95.92 596.253 95.92C593.409 95.92 591.393 97.936 591.393 101.032ZM602.87 106H604.922V96.082H602.87V106ZM603.914 94.768C604.634 94.768 605.21 94.192 605.21 93.454C605.21 92.716 604.634 92.14 603.914 92.14C603.176 92.14 602.6 92.716 602.6 93.454C602.6 94.192 603.176 94.768 603.914 94.768ZM606.932 100.996C606.932 104.056 609.002 106.162 611.576 106.162C613.232 106.162 614.42 105.37 615.05 104.524V106H617.12V96.082H615.05V97.522C614.438 96.712 613.286 95.92 611.612 95.92C609.002 95.92 606.932 97.936 606.932 100.996ZM615.05 101.032C615.05 103.174 613.592 104.38 612.044 104.38C610.514 104.38 609.038 103.138 609.038 100.996C609.038 98.854 610.514 97.702 612.044 97.702C613.592 97.702 615.05 98.908 615.05 101.032ZM619.815 106H621.867V92.68H619.815V106ZM637.679 106H639.839L635.357 93.472H632.981L628.499 106H630.641L631.541 103.444H636.779L637.679 106ZM636.203 101.77H632.117L634.169 95.956L636.203 101.77ZM648.826 106H650.86V100.15C650.86 97.378 649.114 95.92 646.792 95.92C645.604 95.92 644.506 96.406 643.84 97.216V96.082H641.788V106H643.84V100.456C643.84 98.638 644.83 97.702 646.342 97.702C647.836 97.702 648.826 98.638 648.826 100.456V106ZM652.793 100.996C652.793 104.056 654.863 106.162 657.437 106.162C659.093 106.162 660.281 105.37 660.911 104.524V106H662.981V96.082H660.911V97.522C660.299 96.712 659.147 95.92 657.473 95.92C654.863 95.92 652.793 97.936 652.793 100.996ZM660.911 101.032C660.911 103.174 659.453 104.38 657.905 104.38C656.375 104.38 654.899 103.138 654.899 100.996C654.899 98.854 656.375 97.702 657.905 97.702C659.453 97.702 660.911 98.908 660.911 101.032ZM665.676 106H667.728V92.68H665.676V106ZM674.328 103.642L671.538 96.082H669.252L673.158 105.838L671.142 110.662H673.266L679.35 96.082H677.226L674.328 103.642ZM688.297 103.228C688.189 99.646 682.591 100.762 682.591 98.764C682.591 98.098 683.167 97.648 684.265 97.648C685.381 97.648 686.047 98.242 686.119 99.106H688.171C688.063 97.126 686.587 95.92 684.337 95.92C681.997 95.92 680.521 97.198 680.521 98.782C680.521 102.418 686.281 101.302 686.281 103.246C686.281 103.93 685.651 104.434 684.463 104.434C683.329 104.434 682.555 103.768 682.483 102.958H680.359C680.449 104.758 682.123 106.162 684.499 106.162C686.839 106.162 688.297 104.902 688.297 103.228ZM690.838 103.246C690.838 105.262 691.936 106 693.7 106H695.32V104.29H694.06C693.196 104.29 692.908 103.984 692.908 103.246V97.756H695.32V96.082H692.908V93.616H690.838V96.082H689.668V97.756H690.838V103.246Z" fill="#212832"/>
<path d="M801 76H799V123H801V76Z" fill="#00ADEF" stroke="#00ADEF" stroke-width="0.936604"/>
<circle cx="436.415" cy="99.8506" r="23.4151" fill="#00ADEF" stroke="#00ADEF"/>
<path d="M425.56 99.6055C425.56 103.577 426.609 106.574 430.43 106.574C434.252 106.574 435.301 103.577 435.301 99.6055C435.301 95.7093 434.252 92.7121 430.43 92.7121C426.609 92.7121 425.56 95.7093 425.56 99.6055ZM433.203 99.6055C433.203 102.284 432.922 104.626 430.43 104.626C427.939 104.626 427.658 102.284 427.658 99.6055C427.658 97.058 427.939 94.6603 430.43 94.6603C432.922 94.6603 433.203 97.058 433.203 99.6055ZM438.122 92.9182V100.804H440.145C440.501 99.7929 441.344 99.0998 442.599 99.0998C444.379 99.0998 445.259 100.111 445.259 101.891C445.259 103.577 444.435 104.832 442.599 104.832C441.157 104.832 440.183 104.082 439.902 102.921H437.823C438.141 105.057 439.771 106.611 442.58 106.611C445.746 106.611 447.301 104.551 447.301 101.835C447.301 99.7741 446.271 97.2828 442.918 97.2828C441.7 97.2828 440.595 97.8447 440.089 98.5191V94.7914H446.364V92.9182H438.122Z" fill="#212832"/>
<g filter="url(#filter3_d_953_403)">
<rect x="437" y="1" width="365" height="47" fill="white" shape-rendering="crispEdges"/>
<rect x="436.766" y="0.765849" width="365.468" height="47.4683" stroke="black" stroke-opacity="0.2" stroke-width="0.468302" shape-rendering="crispEdges"/>
</g>
<path d="M802 1H800V48H802V1Z" fill="#A9CF54" stroke="#A9CF54" stroke-width="0.936604"/>
<path d="M546.742 23.718C546.742 19.974 543.916 17.328 540.352 17.328C536.824 17.328 533.962 19.974 533.962 23.718C533.962 27.48 536.824 30.126 540.352 30.126C543.916 30.126 546.742 27.48 546.742 23.718ZM536.068 23.718C536.068 20.892 537.868 19.128 540.352 19.128C542.836 19.128 544.636 20.892 544.636 23.718C544.636 26.544 542.836 28.344 540.352 28.344C537.868 28.344 536.068 26.544 536.068 23.718ZM550.813 21.54V20.082H548.761V34.716H550.813V28.56C551.461 29.334 552.631 30.162 554.269 30.162C556.879 30.162 558.931 28.056 558.931 24.996C558.931 21.936 556.879 19.92 554.269 19.92C552.649 19.92 551.443 20.712 550.813 21.54ZM556.843 24.996C556.843 27.138 555.367 28.38 553.819 28.38C552.289 28.38 550.813 27.174 550.813 25.032C550.813 22.908 552.289 21.702 553.819 21.702C555.367 21.702 556.843 22.854 556.843 24.996ZM565.136 21.648C566.666 21.648 567.872 22.62 567.908 24.15H562.418C562.634 22.584 563.75 21.648 565.136 21.648ZM569.78 27.048H567.566C567.188 27.822 566.486 28.434 565.226 28.434C563.714 28.434 562.544 27.444 562.4 25.806H569.978C570.032 25.464 570.05 25.14 570.05 24.798C570.05 21.882 568.052 19.92 565.226 19.92C562.292 19.92 560.276 21.918 560.276 25.032C560.276 28.146 562.382 30.162 565.226 30.162C567.656 30.162 569.222 28.776 569.78 27.048ZM574.122 24.78C574.122 22.674 575.058 22.044 576.57 22.044H577.092V19.92C575.688 19.92 574.698 20.532 574.122 21.522V20.082H572.07V30H574.122V24.78ZM578.294 24.996C578.294 28.056 580.364 30.162 582.938 30.162C584.594 30.162 585.782 29.37 586.412 28.524V30H588.482V20.082H586.412V21.522C585.8 20.712 584.648 19.92 582.974 19.92C580.364 19.92 578.294 21.936 578.294 24.996ZM586.412 25.032C586.412 27.174 584.954 28.38 583.406 28.38C581.876 28.38 580.4 27.138 580.4 24.996C580.4 22.854 581.876 21.702 583.406 21.702C584.954 21.702 586.412 22.908 586.412 25.032ZM591.501 27.246C591.501 29.262 592.599 30 594.363 30H595.983V28.29H594.723C593.859 28.29 593.571 27.984 593.571 27.246V21.756H595.983V20.082H593.571V17.616H591.501V20.082H590.331V21.756H591.501V27.246ZM597.874 30H599.926V20.082H597.874V30ZM598.918 18.768C599.638 18.768 600.214 18.192 600.214 17.454C600.214 16.716 599.638 16.14 598.918 16.14C598.18 16.14 597.604 16.716 597.604 17.454C597.604 18.192 598.18 18.768 598.918 18.768ZM612.071 25.032C612.071 21.918 609.839 19.92 607.013 19.92C604.187 19.92 601.955 21.918 601.955 25.032C601.955 28.146 604.097 30.162 606.923 30.162C609.767 30.162 612.071 28.146 612.071 25.032ZM604.043 25.032C604.043 22.782 605.429 21.702 606.977 21.702C608.507 21.702 609.965 22.782 609.965 25.032C609.965 27.282 608.453 28.38 606.923 28.38C605.375 28.38 604.043 27.282 604.043 25.032ZM621.137 30H623.171V24.15C623.171 21.378 621.425 19.92 619.103 19.92C617.915 19.92 616.817 20.406 616.151 21.216V20.082H614.099V30H616.151V24.456C616.151 22.638 617.141 21.702 618.653 21.702C620.147 21.702 621.137 22.638 621.137 24.456V30ZM633.186 27.228C633.078 23.646 627.48 24.762 627.48 22.764C627.48 22.098 628.056 21.648 629.154 21.648C630.27 21.648 630.936 22.242 631.008 23.106H633.06C632.952 21.126 631.476 19.92 629.226 19.92C626.886 19.92 625.41 21.198 625.41 22.782C625.41 26.418 631.17 25.302 631.17 27.246C631.17 27.93 630.54 28.434 629.352 28.434C628.218 28.434 627.444 27.768 627.372 26.958H625.248C625.338 28.758 627.012 30.162 629.388 30.162C631.728 30.162 633.186 28.902 633.186 27.228ZM648.521 30H650.681L646.199 17.472H643.823L639.341 30H641.483L642.383 27.444H647.621L648.521 30ZM647.045 25.77H642.959L645.011 19.956L647.045 25.77ZM659.668 30H661.702V24.15C661.702 21.378 659.956 19.92 657.634 19.92C656.446 19.92 655.348 20.406 654.682 21.216V20.082H652.63V30H654.682V24.456C654.682 22.638 655.672 21.702 657.184 21.702C658.678 21.702 659.668 22.638 659.668 24.456V30ZM663.636 24.996C663.636 28.056 665.706 30.162 668.28 30.162C669.936 30.162 671.124 29.37 671.754 28.524V30H673.824V20.082H671.754V21.522C671.142 20.712 669.99 19.92 668.316 19.92C665.706 19.92 663.636 21.936 663.636 24.996ZM671.754 25.032C671.754 27.174 670.296 28.38 668.748 28.38C667.218 28.38 665.742 27.138 665.742 24.996C665.742 22.854 667.218 21.702 668.748 21.702C670.296 21.702 671.754 22.908 671.754 25.032ZM676.519 30H678.571V16.68H676.519V30ZM685.171 27.642L682.381 20.082H680.095L684.001 29.838L681.985 34.662H684.109L690.193 20.082H688.069L685.171 27.642ZM699.14 27.228C699.032 23.646 693.434 24.762 693.434 22.764C693.434 22.098 694.01 21.648 695.108 21.648C696.224 21.648 696.89 22.242 696.962 23.106H699.014C698.906 21.126 697.43 19.92 695.18 19.92C692.84 19.92 691.364 21.198 691.364 22.782C691.364 26.418 697.124 25.302 697.124 27.246C697.124 27.93 696.494 28.434 695.306 28.434C694.172 28.434 693.398 27.768 693.326 26.958H691.202C691.292 28.758 692.966 30.162 695.342 30.162C697.682 30.162 699.14 28.902 699.14 27.228ZM701.681 27.246C701.681 29.262 702.779 30 704.543 30H706.163V28.29H704.903C704.039 28.29 703.751 27.984 703.751 27.246V21.756H706.163V20.082H703.751V17.616H701.681V20.082H700.511V21.756H701.681V27.246Z" fill="#212832"/>
<circle cx="436.415" cy="24.4151" r="23.4151" fill="#A9CF54" stroke="#A9CF54"/>
<path d="M426.136 24.17C426.136 28.1412 427.185 31.1383 431.007 31.1383C434.828 31.1383 435.877 28.1412 435.877 24.17C435.877 20.2737 434.828 17.2766 431.007 17.2766C427.185 17.2766 426.136 20.2737 426.136 24.17ZM433.779 24.17C433.779 26.8487 433.498 29.1902 431.007 29.1902C428.515 29.1902 428.234 26.8487 428.234 24.17C428.234 21.6224 428.515 19.2247 431.007 19.2247C433.498 19.2247 433.779 21.6224 433.779 24.17ZM437.968 30.9885H447.072V29.2089H441.134C443.325 27.2046 446.697 24.6758 446.697 21.3602C446.697 18.9063 445.124 17.2391 442.351 17.2391C439.935 17.2391 438.024 18.6815 437.949 21.6412H440.01C440.066 20.1051 440.871 19.0561 442.37 19.0561C443.962 19.0561 444.58 20.0302 444.58 21.4538C444.58 24.1325 441.19 26.6052 437.968 29.4337V30.9885Z" fill="#212832"/>
<g filter="url(#filter4_d_953_403)">
<rect x="860" y="1" width="365" height="47" fill="white" shape-rendering="crispEdges"/>
<rect x="859.766" y="0.765849" width="365.468" height="47.4683" stroke="black" stroke-opacity="0.2" stroke-width="0.468302" shape-rendering="crispEdges"/>
</g>
<path d="M1225 1H1223V48H1225V1Z" fill="#3498DB" stroke="#3498DB" stroke-width="0.936604"/>
<path d="M955.919 26.454C955.919 21.882 949.295 23.646 949.295 20.82C949.295 19.614 950.213 19.038 951.401 19.074C952.697 19.11 953.435 19.884 953.507 20.73H955.775C955.595 18.588 953.903 17.328 951.509 17.328C948.953 17.328 947.207 18.696 947.207 20.892C947.207 25.5 953.849 23.538 953.849 26.562C953.849 27.624 953.039 28.398 951.599 28.398C950.177 28.398 949.457 27.57 949.367 26.544H947.171C947.171 28.758 949.097 30.126 951.599 30.126C954.389 30.126 955.919 28.326 955.919 26.454ZM967.322 20.082H965.27V25.608C965.27 27.426 964.28 28.362 962.768 28.362C961.274 28.362 960.284 27.426 960.284 25.608V20.082H958.25V25.914C958.25 28.686 960.014 30.144 962.336 30.144C963.506 30.144 964.622 29.658 965.27 28.812V30H967.322V20.082ZM972.082 21.54V20.082H970.03V34.716H972.082V28.56C972.73 29.334 973.9 30.162 975.538 30.162C978.148 30.162 980.2 28.056 980.2 24.996C980.2 21.936 978.148 19.92 975.538 19.92C973.918 19.92 972.712 20.712 972.082 21.54ZM978.112 24.996C978.112 27.138 976.636 28.38 975.088 28.38C973.558 28.38 972.082 27.174 972.082 25.032C972.082 22.908 973.558 21.702 975.088 21.702C976.636 21.702 978.112 22.854 978.112 24.996ZM984.281 21.54V20.082H982.229V34.716H984.281V28.56C984.929 29.334 986.099 30.162 987.737 30.162C990.347 30.162 992.399 28.056 992.399 24.996C992.399 21.936 990.347 19.92 987.737 19.92C986.117 19.92 984.911 20.712 984.281 21.54ZM990.311 24.996C990.311 27.138 988.835 28.38 987.287 28.38C985.757 28.38 984.281 27.174 984.281 25.032C984.281 22.908 985.757 21.702 987.287 21.702C988.835 21.702 990.311 22.854 990.311 24.996ZM994.428 30H996.48V16.68H994.428V30ZM1003.08 27.642L1000.29 20.082H998.004L1001.91 29.838L999.894 34.662H1002.02L1008.1 20.082H1005.98L1003.08 27.642ZM1013.64 23.718C1013.64 27.48 1016.5 30.108 1020.03 30.108C1022.64 30.108 1024.89 28.812 1025.85 26.364H1023.38C1022.71 27.696 1021.53 28.326 1020.03 28.326C1017.55 28.326 1015.75 26.544 1015.75 23.718C1015.75 20.892 1017.55 19.128 1020.03 19.128C1021.53 19.128 1022.71 19.758 1023.38 21.09H1025.85C1024.89 18.642 1022.64 17.328 1020.03 17.328C1016.5 17.328 1013.64 19.974 1013.64 23.718ZM1028.25 30H1030.3V24.456C1030.3 22.638 1031.29 21.702 1032.8 21.702C1034.3 21.702 1035.29 22.638 1035.29 24.456V30H1037.32V24.15C1037.32 21.378 1035.59 19.92 1033.38 19.92C1032.1 19.92 1030.98 20.406 1030.3 21.234V16.68H1028.25V30ZM1039.25 24.996C1039.25 28.056 1041.32 30.162 1043.9 30.162C1045.55 30.162 1046.74 29.37 1047.37 28.524V30H1049.44V20.082H1047.37V21.522C1046.76 20.712 1045.61 19.92 1043.93 19.92C1041.32 19.92 1039.25 21.936 1039.25 24.996ZM1047.37 25.032C1047.37 27.174 1045.91 28.38 1044.37 28.38C1042.84 28.38 1041.36 27.138 1041.36 24.996C1041.36 22.854 1042.84 21.702 1044.37 21.702C1045.91 21.702 1047.37 22.908 1047.37 25.032ZM1052.14 30H1054.19V20.082H1052.14V30ZM1053.18 18.768C1053.9 18.768 1054.48 18.192 1054.48 17.454C1054.48 16.716 1053.9 16.14 1053.18 16.14C1052.44 16.14 1051.87 16.716 1051.87 17.454C1051.87 18.192 1052.44 18.768 1053.18 18.768ZM1063.92 30H1065.96V24.15C1065.96 21.378 1064.21 19.92 1061.89 19.92C1060.7 19.92 1059.6 20.406 1058.94 21.216V20.082H1056.88V30H1058.94V24.456C1058.94 22.638 1059.93 21.702 1061.44 21.702C1062.93 21.702 1063.92 22.638 1063.92 24.456V30ZM1081.69 30H1083.85L1079.37 17.472H1076.99L1072.51 30H1074.65L1075.55 27.444H1080.79L1081.69 30ZM1080.21 25.77H1076.13L1078.18 19.956L1080.21 25.77ZM1092.84 30H1094.87V24.15C1094.87 21.378 1093.13 19.92 1090.8 19.92C1089.62 19.92 1088.52 20.406 1087.85 21.216V20.082H1085.8V30H1087.85V24.456C1087.85 22.638 1088.84 21.702 1090.35 21.702C1091.85 21.702 1092.84 22.638 1092.84 24.456V30ZM1096.8 24.996C1096.8 28.056 1098.87 30.162 1101.45 30.162C1103.1 30.162 1104.29 29.37 1104.92 28.524V30H1106.99V20.082H1104.92V21.522C1104.31 20.712 1103.16 19.92 1101.48 19.92C1098.87 19.92 1096.8 21.936 1096.8 24.996ZM1104.92 25.032C1104.92 27.174 1103.46 28.38 1101.92 28.38C1100.39 28.38 1098.91 27.138 1098.91 24.996C1098.91 22.854 1100.39 21.702 1101.92 21.702C1103.46 21.702 1104.92 22.908 1104.92 25.032ZM1109.69 30H1111.74V16.68H1109.69V30ZM1118.34 27.642L1115.55 20.082H1113.26L1117.17 29.838L1115.15 34.662H1117.28L1123.36 20.082H1121.24L1118.34 27.642ZM1132.31 27.228C1132.2 23.646 1126.6 24.762 1126.6 22.764C1126.6 22.098 1127.18 21.648 1128.28 21.648C1129.39 21.648 1130.06 22.242 1130.13 23.106H1132.18C1132.07 21.126 1130.6 19.92 1128.35 19.92C1126.01 19.92 1124.53 21.198 1124.53 22.782C1124.53 26.418 1130.29 25.302 1130.29 27.246C1130.29 27.93 1129.66 28.434 1128.47 28.434C1127.34 28.434 1126.57 27.768 1126.49 26.958H1124.37C1124.46 28.758 1126.13 30.162 1128.51 30.162C1130.85 30.162 1132.31 28.902 1132.31 27.228ZM1134.85 27.246C1134.85 29.262 1135.95 30 1137.71 30H1139.33V28.29H1138.07C1137.21 28.29 1136.92 27.984 1136.92 27.246V21.756H1139.33V20.082H1136.92V17.616H1134.85V20.082H1133.68V21.756H1134.85V27.246Z" fill="#212832"/>
<circle cx="856.415" cy="24.415" r="23.415" fill="#3498DB" stroke="#3498DB"/>
<path d="M845.548 24.9942C845.548 28.9654 846.597 31.9625 850.418 31.9625C854.24 31.9625 855.289 28.9654 855.289 24.9942C855.289 21.0979 854.24 18.1008 850.418 18.1008C846.597 18.1008 845.548 21.0979 845.548 24.9942ZM853.191 24.9942C853.191 27.6729 852.91 30.0144 850.418 30.0144C847.927 30.0144 847.646 27.6729 847.646 24.9942C847.646 22.4466 847.927 20.0489 850.418 20.0489C852.91 20.0489 853.191 22.4466 853.191 24.9942ZM857.511 21.7161H859.59C859.721 20.7608 860.414 19.8616 861.913 19.8616C863.374 19.8616 864.142 20.6484 864.142 21.8285C864.142 23.2896 862.962 23.8515 861.032 23.8703H860.527V25.6311H861.014C863.243 25.6311 864.404 26.2493 864.404 28.0475C864.404 29.3213 863.617 30.2954 862.025 30.2954C860.414 30.2954 859.478 29.3213 859.384 28.0475H857.323C857.454 30.7262 859.459 32.0749 862.044 32.0749C864.891 32.0749 866.427 30.4265 866.427 28.2536C866.427 26.3616 865.509 25.1815 864.086 24.7507V24.6758C865.153 24.3198 866.184 23.2147 866.184 21.585C866.184 19.5994 864.704 18.0259 861.988 18.0259C859.496 18.0259 857.661 19.3558 857.511 21.7161Z" fill="#212832"/>
<defs>
<filter id="filter0_d_953_403" x="23.5312" y="0.531738" width="365.938" height="47.9365" filterUnits="userSpaceOnUse" color-interpolation-filters="sRGB">
<feFlood flood-opacity="0" result="BackgroundImageFix"/>
<feColorMatrix in="SourceAlpha" type="matrix" values="0 0 0 0 0 0 0 0 0 0 0 0 0 0 0 0 0 0 127 0" result="hardAlpha"/>
<feOffset/>
<feComposite in2="hardAlpha" operator="out"/>
<feColorMatrix type="matrix" values="0 0 0 0 0 0 0 0 0 0 0 0 0 0 0 0 0 0 0.1 0"/>
<feBlend mode="normal" in2="BackgroundImageFix" result="effect1_dropShadow_953_403"/>
<feBlend mode="normal" in="SourceGraphic" in2="effect1_dropShadow_953_403" result="shape"/>
</filter>
<filter id="filter1_d_953_403" x="23.5312" y="75.5317" width="365.938" height="47.9365" filterUnits="userSpaceOnUse" color-interpolation-filters="sRGB">
<feFlood flood-opacity="0" result="BackgroundImageFix"/>
<feColorMatrix in="SourceAlpha" type="matrix" values="0 0 0 0 0 0 0 0 0 0 0 0 0 0 0 0 0 0 127 0" result="hardAlpha"/>
<feOffset/>
<feComposite in2="hardAlpha" operator="out"/>
<feColorMatrix type="matrix" values="0 0 0 0 0 0 0 0 0 0 0 0 0 0 0 0 0 0 0.1 0"/>
<feBlend mode="normal" in2="BackgroundImageFix" result="effect1_dropShadow_953_403"/>
<feBlend mode="normal" in="SourceGraphic" in2="effect1_dropShadow_953_403" result="shape"/>
</filter>
<filter id="filter2_d_953_403" x="435.531" y="75.5317" width="365.938" height="47.9365" filterUnits="userSpaceOnUse" color-interpolation-filters="sRGB">
<feFlood flood-opacity="0" result="BackgroundImageFix"/>
<feColorMatrix in="SourceAlpha" type="matrix" values="0 0 0 0 0 0 0 0 0 0 0 0 0 0 0 0 0 0 127 0" result="hardAlpha"/>
<feOffset/>
<feComposite in2="hardAlpha" operator="out"/>
<feColorMatrix type="matrix" values="0 0 0 0 0 0 0 0 0 0 0 0 0 0 0 0 0 0 0.1 0"/>
<feBlend mode="normal" in2="BackgroundImageFix" result="effect1_dropShadow_953_403"/>
<feBlend mode="normal" in="SourceGraphic" in2="effect1_dropShadow_953_403" result="shape"/>
</filter>
<filter id="filter3_d_953_403" x="436.531" y="0.531738" width="365.938" height="47.9365" filterUnits="userSpaceOnUse" color-interpolation-filters="sRGB">
<feFlood flood-opacity="0" result="BackgroundImageFix"/>
<feColorMatrix in="SourceAlpha" type="matrix" values="0 0 0 0 0 0 0 0 0 0 0 0 0 0 0 0 0 0 127 0" result="hardAlpha"/>
<feOffset/>
<feComposite in2="hardAlpha" operator="out"/>
<feColorMatrix type="matrix" values="0 0 0 0 0 0 0 0 0 0 0 0 0 0 0 0 0 0 0.1 0"/>
<feBlend mode="normal" in2="BackgroundImageFix" result="effect1_dropShadow_953_403"/>
<feBlend mode="normal" in="SourceGraphic" in2="effect1_dropShadow_953_403" result="shape"/>
</filter>
<filter id="filter4_d_953_403" x="859.531" y="0.531738" width="365.938" height="47.9365" filterUnits="userSpaceOnUse" color-interpolation-filters="sRGB">
<feFlood flood-opacity="0" result="BackgroundImageFix"/>
<feColorMatrix in="SourceAlpha" type="matrix" values="0 0 0 0 0 0 0 0 0 0 0 0 0 0 0 0 0 0 127 0" result="hardAlpha"/>
<feOffset/>
<feComposite in2="hardAlpha" operator="out"/>
<feColorMatrix type="matrix" values="0 0 0 0 0 0 0 0 0 0 0 0 0 0 0 0 0 0 0.1 0"/>
<feBlend mode="normal" in2="BackgroundImageFix" result="effect1_dropShadow_953_403"/>
<feBlend mode="normal" in="SourceGraphic" in2="effect1_dropShadow_953_403" result="shape"/>
</filter>
</defs>
</svg>
