<svg width="1226" height="275" viewBox="0 0 1226 275" fill="none" xmlns="http://www.w3.org/2000/svg">
<g filter="url(#filter0_d_953_321)">
<rect x="24" y="1" width="365" height="47" fill="white" shape-rendering="crispEdges"/>
<rect x="23.7658" y="0.765849" width="365.468" height="47.4683" stroke="black" stroke-opacity="0.2" stroke-width="0.468302" shape-rendering="crispEdges"/>
</g>
<path d="M123.193 30H125.245V17.49H123.193V30ZM134.977 30H137.011V24.15C137.011 21.378 135.265 19.92 132.943 19.92C131.755 19.92 130.657 20.406 129.991 21.216V20.082H127.939V30H129.991V24.456C129.991 22.638 130.981 21.702 132.493 21.702C133.987 21.702 134.977 22.638 134.977 24.456V30ZM138.458 20.082L142.22 30H144.668L148.448 20.082H146.27L143.462 28.164L140.654 20.082H138.458ZM154.175 21.648C155.705 21.648 156.911 22.62 156.947 24.15H151.457C151.673 22.584 152.789 21.648 154.175 21.648ZM158.819 27.048H156.605C156.227 27.822 155.525 28.434 154.265 28.434C152.753 28.434 151.583 27.444 151.439 25.806H159.017C159.071 25.464 159.089 25.14 159.089 24.798C159.089 21.882 157.091 19.92 154.265 19.92C151.331 19.92 149.315 21.918 149.315 25.032C149.315 28.146 151.421 30.162 154.265 30.162C156.695 30.162 158.261 28.776 158.819 27.048ZM168.507 27.228C168.399 23.646 162.801 24.762 162.801 22.764C162.801 22.098 163.377 21.648 164.475 21.648C165.591 21.648 166.257 22.242 166.329 23.106H168.381C168.273 21.126 166.797 19.92 164.547 19.92C162.207 19.92 160.731 21.198 160.731 22.782C160.731 26.418 166.491 25.302 166.491 27.246C166.491 27.93 165.861 28.434 164.673 28.434C163.539 28.434 162.765 27.768 162.693 26.958H160.569C160.659 28.758 162.333 30.162 164.709 30.162C167.049 30.162 168.507 28.902 168.507 27.228ZM171.048 27.246C171.048 29.262 172.146 30 173.91 30H175.53V28.29H174.27C173.406 28.29 173.118 27.984 173.118 27.246V21.756H175.53V20.082H173.118V17.616H171.048V20.082H169.878V21.756H171.048V27.246ZM191.479 30H193.513V24.15C193.513 21.378 191.749 19.92 189.427 19.92C187.987 19.92 186.583 20.676 185.971 21.882C185.287 20.586 183.973 19.92 182.407 19.92C181.219 19.92 180.139 20.406 179.473 21.216V20.082H177.421V30H179.473V24.456C179.473 22.638 180.463 21.702 181.975 21.702C183.469 21.702 184.459 22.638 184.459 24.456V30H186.493V24.456C186.493 22.638 187.483 21.702 188.995 21.702C190.489 21.702 191.479 22.638 191.479 24.456V30ZM200.3 21.648C201.83 21.648 203.036 22.62 203.072 24.15H197.582C197.798 22.584 198.914 21.648 200.3 21.648ZM204.944 27.048H202.73C202.352 27.822 201.65 28.434 200.39 28.434C198.878 28.434 197.708 27.444 197.564 25.806H205.142C205.196 25.464 205.214 25.14 205.214 24.798C205.214 21.882 203.216 19.92 200.39 19.92C197.456 19.92 195.44 21.918 195.44 25.032C195.44 28.146 197.546 30.162 200.39 30.162C202.82 30.162 204.386 28.776 204.944 27.048ZM214.272 30H216.306V24.15C216.306 21.378 214.56 19.92 212.238 19.92C211.05 19.92 209.952 20.406 209.286 21.216V20.082H207.234V30H209.286V24.456C209.286 22.638 210.276 21.702 211.788 21.702C213.282 21.702 214.272 22.638 214.272 24.456V30ZM219.247 27.246C219.247 29.262 220.345 30 222.109 30H223.729V28.29H222.469C221.605 28.29 221.317 27.984 221.317 27.246V21.756H223.729V20.082H221.317V17.616H219.247V20.082H218.077V21.756H219.247V27.246ZM237.352 26.418C237.352 27.624 236.506 28.326 235.12 28.326H232.348V24.42H235.048C236.416 24.42 237.352 25.176 237.352 26.418ZM237.028 20.964C237.028 22.116 236.218 22.746 234.886 22.746H232.348V19.164H234.886C236.218 19.164 237.028 19.83 237.028 20.964ZM239.404 26.634C239.404 25.14 238.324 23.808 236.992 23.574C238.198 23.142 239.116 22.224 239.116 20.712C239.116 18.948 237.712 17.49 235.066 17.49H230.296V30H235.3C237.856 30 239.404 28.542 239.404 26.634ZM240.95 24.996C240.95 28.056 243.02 30.162 245.594 30.162C247.25 30.162 248.438 29.37 249.068 28.524V30H251.138V20.082H249.068V21.522C248.456 20.712 247.304 19.92 245.63 19.92C243.02 19.92 240.95 21.936 240.95 24.996ZM249.068 25.032C249.068 27.174 247.61 28.38 246.062 28.38C244.532 28.38 243.056 27.138 243.056 24.996C243.056 22.854 244.532 21.702 246.062 21.702C247.61 21.702 249.068 22.908 249.068 25.032ZM260.871 30H262.905V24.15C262.905 21.378 261.159 19.92 258.837 19.92C257.649 19.92 256.551 20.406 255.885 21.216V20.082H253.833V30H255.885V24.456C255.885 22.638 256.875 21.702 258.387 21.702C259.881 21.702 260.871 22.638 260.871 24.456V30ZM265.523 30H267.575V25.734L271.247 30H274.019L269.447 25.05L274.019 20.082H271.175L267.575 24.42V16.68H265.523V30ZM279.666 21.648C281.196 21.648 282.402 22.62 282.438 24.15H276.948C277.164 22.584 278.28 21.648 279.666 21.648ZM284.31 27.048H282.096C281.718 27.822 281.016 28.434 279.756 28.434C278.244 28.434 277.074 27.444 276.93 25.806H284.508C284.562 25.464 284.58 25.14 284.58 24.798C284.58 21.882 282.582 19.92 279.756 19.92C276.822 19.92 274.806 21.918 274.806 25.032C274.806 28.146 276.912 30.162 279.756 30.162C282.186 30.162 283.752 28.776 284.31 27.048ZM288.651 24.78C288.651 22.674 289.587 22.044 291.099 22.044H291.621V19.92C290.217 19.92 289.227 20.532 288.651 21.522V20.082H286.599V30H288.651V24.78Z" fill="#212832"/>
<path d="M389 1H387V48H389V1Z" fill="#946FB0" stroke="#946FB0" stroke-width="0.936604"/>
<circle cx="24.4151" cy="24.4151" r="23.4151" fill="#946FB0" stroke="#946FB0"/>
<path d="M16.3494 23.9942C16.3494 27.9654 17.3983 30.9625 21.2197 30.9625C25.041 30.9625 26.09 27.9654 26.09 23.9942C26.09 20.0979 25.041 17.1008 21.2197 17.1008C17.3983 17.1008 16.3494 20.0979 16.3494 23.9942ZM23.992 23.9942C23.992 26.6729 23.7111 29.0144 21.2197 29.0144C18.7283 29.0144 18.4473 26.6729 18.4473 23.9942C18.4473 21.4466 18.7283 19.0489 21.2197 19.0489C23.7111 19.0489 23.992 21.4466 23.992 23.9942ZM29.8107 31H31.9649V17.3443H28.0686V19.2925H29.8107V31Z" fill="#212832"/>
<g filter="url(#filter1_d_953_321)">
<rect x="24" y="76" width="365" height="47" fill="white" shape-rendering="crispEdges"/>
<rect x="23.7658" y="75.7658" width="365.468" height="47.4683" stroke="black" stroke-opacity="0.2" stroke-width="0.468302" shape-rendering="crispEdges"/>
</g>
<g filter="url(#filter2_d_953_321)">
<rect x="24" y="151" width="365" height="47" fill="white" shape-rendering="crispEdges"/>
<rect x="23.7658" y="150.766" width="365.468" height="47.4683" stroke="black" stroke-opacity="0.2" stroke-width="0.468302" shape-rendering="crispEdges"/>
</g>
<path d="M116.26 99.718C116.26 103.48 119.122 106.108 122.65 106.108C125.26 106.108 127.51 104.812 128.464 102.364H125.998C125.332 103.696 124.144 104.326 122.65 104.326C120.166 104.326 118.366 102.544 118.366 99.718C118.366 96.892 120.166 95.128 122.65 95.128C124.144 95.128 125.332 95.758 125.998 97.09H128.464C127.51 94.642 125.26 93.328 122.65 93.328C119.122 93.328 116.26 95.974 116.26 99.718ZM132.918 100.78C132.918 98.674 133.854 98.044 135.366 98.044H135.888V95.92C134.484 95.92 133.494 96.532 132.918 97.522V96.082H130.866V106H132.918V100.78ZM141.95 97.648C143.48 97.648 144.686 98.62 144.722 100.15H139.232C139.448 98.584 140.564 97.648 141.95 97.648ZM146.594 103.048H144.38C144.002 103.822 143.3 104.434 142.04 104.434C140.528 104.434 139.358 103.444 139.214 101.806H146.792C146.846 101.464 146.864 101.14 146.864 100.798C146.864 97.882 144.866 95.92 142.04 95.92C139.106 95.92 137.09 97.918 137.09 101.032C137.09 104.146 139.196 106.162 142.04 106.162C144.47 106.162 146.036 104.776 146.594 103.048ZM148.199 100.996C148.199 104.056 150.269 106.162 152.879 106.162C154.499 106.162 155.687 105.406 156.317 104.506V106H158.387V92.68H156.317V97.468C155.561 96.532 154.193 95.92 152.897 95.92C150.269 95.92 148.199 97.936 148.199 100.996ZM156.317 101.032C156.317 103.174 154.859 104.38 153.311 104.38C151.781 104.38 150.305 103.138 150.305 100.996C150.305 98.854 151.781 97.702 153.311 97.702C154.859 97.702 156.317 98.908 156.317 101.032ZM161.082 106H163.134V96.082H161.082V106ZM162.126 94.768C162.846 94.768 163.422 94.192 163.422 93.454C163.422 92.716 162.846 92.14 162.126 92.14C161.388 92.14 160.812 92.716 160.812 93.454C160.812 94.192 161.388 94.768 162.126 94.768ZM166.153 103.246C166.153 105.262 167.251 106 169.015 106H170.635V104.29H169.375C168.511 104.29 168.223 103.984 168.223 103.246V97.756H170.635V96.082H168.223V93.616H166.153V96.082H164.983V97.756H166.153V103.246ZM183.844 97.234C183.844 98.476 183.124 99.358 181.522 99.358H179.254V95.164H181.522C183.124 95.164 183.844 95.974 183.844 97.234ZM177.202 93.49V106H179.254V100.996H180.82L183.7 106H186.148L183.052 100.816C185.158 100.294 185.95 98.71 185.95 97.234C185.95 95.2 184.492 93.49 181.522 93.49H177.202ZM188.575 106H190.627V96.082H188.575V106ZM189.619 94.768C190.339 94.768 190.915 94.192 190.915 93.454C190.915 92.716 190.339 92.14 189.619 92.14C188.881 92.14 188.305 92.716 188.305 93.454C188.305 94.192 188.881 94.768 189.619 94.768ZM200.719 103.228C200.611 99.646 195.013 100.762 195.013 98.764C195.013 98.098 195.589 97.648 196.687 97.648C197.803 97.648 198.469 98.242 198.541 99.106H200.593C200.485 97.126 199.009 95.92 196.759 95.92C194.419 95.92 192.943 97.198 192.943 98.782C192.943 102.418 198.703 101.302 198.703 103.246C198.703 103.93 198.073 104.434 196.885 104.434C195.751 104.434 194.977 103.768 194.905 102.958H192.781C192.871 104.758 194.545 106.162 196.921 106.162C199.261 106.162 200.719 104.902 200.719 103.228ZM202.936 106H204.988V101.734L208.66 106H211.432L206.86 101.05L211.432 96.082H208.588L204.988 100.42V92.68H202.936V106ZM217.579 106H219.631V97.432L223.465 106H224.887L228.703 97.432V106H230.755V93.49H228.559L224.185 103.3L219.793 93.49H217.579V106ZM232.768 100.996C232.768 104.056 234.838 106.162 237.412 106.162C239.068 106.162 240.256 105.37 240.886 104.524V106H242.956V96.082H240.886V97.522C240.274 96.712 239.122 95.92 237.448 95.92C234.838 95.92 232.768 97.936 232.768 100.996ZM240.886 101.032C240.886 103.174 239.428 104.38 237.88 104.38C236.35 104.38 234.874 103.138 234.874 100.996C234.874 98.854 236.35 97.702 237.88 97.702C239.428 97.702 240.886 98.908 240.886 101.032ZM252.689 106H254.723V100.15C254.723 97.378 252.977 95.92 250.655 95.92C249.467 95.92 248.369 96.406 247.703 97.216V96.082H245.651V106H247.703V100.456C247.703 98.638 248.693 97.702 250.205 97.702C251.699 97.702 252.689 98.638 252.689 100.456V106ZM256.656 100.996C256.656 104.056 258.726 106.162 261.3 106.162C262.956 106.162 264.144 105.37 264.774 104.524V106H266.844V96.082H264.774V97.522C264.162 96.712 263.01 95.92 261.336 95.92C258.726 95.92 256.656 97.936 256.656 100.996ZM264.774 101.032C264.774 103.174 263.316 104.38 261.768 104.38C260.238 104.38 258.762 103.138 258.762 100.996C258.762 98.854 260.238 97.702 261.768 97.702C263.316 97.702 264.774 98.908 264.774 101.032ZM268.855 100.996C268.855 104.056 270.925 106.162 273.535 106.162C275.155 106.162 276.343 105.352 276.973 104.506V106.162C276.973 108.142 275.785 109.114 274.201 109.114C272.779 109.114 271.681 108.412 271.375 107.386H269.341C269.593 109.582 271.555 110.896 274.201 110.896C277.297 110.896 279.043 108.862 279.043 106.162V96.082H276.973V97.522C276.361 96.676 275.155 95.92 273.535 95.92C270.925 95.92 268.855 97.936 268.855 100.996ZM276.973 101.032C276.973 103.174 275.515 104.38 273.967 104.38C272.437 104.38 270.961 103.138 270.961 100.996C270.961 98.854 272.437 97.702 273.967 97.702C275.515 97.702 276.973 98.908 276.973 101.032ZM285.915 97.648C287.445 97.648 288.651 98.62 288.687 100.15H283.197C283.413 98.584 284.529 97.648 285.915 97.648ZM290.559 103.048H288.345C287.967 103.822 287.265 104.434 286.005 104.434C284.493 104.434 283.323 103.444 283.179 101.806H290.757C290.811 101.464 290.829 101.14 290.829 100.798C290.829 97.882 288.831 95.92 286.005 95.92C283.071 95.92 281.055 97.918 281.055 101.032C281.055 104.146 283.161 106.162 286.005 106.162C288.435 106.162 290.001 104.776 290.559 103.048ZM294.9 100.78C294.9 98.674 295.836 98.044 297.348 98.044H297.87V95.92C296.466 95.92 295.476 96.532 294.9 97.522V96.082H292.848V106H294.9V100.78Z" fill="#212832"/>
<path d="M74.2909 170.164H77.6389V181H79.6909V170.164H83.0209V168.49H74.2909V170.164ZM84.415 175.996C84.415 179.056 86.485 181.162 89.059 181.162C90.715 181.162 91.903 180.37 92.533 179.524V181H94.603V171.082H92.533V172.522C91.921 171.712 90.769 170.92 89.095 170.92C86.485 170.92 84.415 172.936 84.415 175.996ZM92.533 176.032C92.533 178.174 91.075 179.38 89.527 179.38C87.997 179.38 86.521 178.138 86.521 175.996C86.521 173.854 87.997 172.702 89.527 172.702C91.075 172.702 92.533 173.908 92.533 176.032ZM97.2982 181H99.3502V167.68H97.2982V181ZM106.22 172.648C107.75 172.648 108.956 173.62 108.992 175.15H103.502C103.718 173.584 104.834 172.648 106.22 172.648ZM110.864 178.048H108.65C108.272 178.822 107.57 179.434 106.31 179.434C104.798 179.434 103.628 178.444 103.484 176.806H111.062C111.116 176.464 111.134 176.14 111.134 175.798C111.134 172.882 109.136 170.92 106.31 170.92C103.376 170.92 101.36 172.918 101.36 176.032C101.36 179.146 103.466 181.162 106.31 181.162C108.74 181.162 110.306 179.776 110.864 178.048ZM120.192 181H122.226V175.15C122.226 172.378 120.48 170.92 118.158 170.92C116.97 170.92 115.872 171.406 115.206 172.216V171.082H113.154V181H115.206V175.456C115.206 173.638 116.196 172.702 117.708 172.702C119.202 172.702 120.192 173.638 120.192 175.456V181ZM125.167 178.246C125.167 180.262 126.265 181 128.029 181H129.649V179.29H128.389C127.525 179.29 127.237 178.984 127.237 178.246V172.756H129.649V171.082H127.237V168.616H125.167V171.082H123.997V172.756H125.167V178.246ZM144.658 181H146.818L142.336 168.472H139.96L135.478 181H137.62L138.52 178.444H143.758L144.658 181ZM143.182 176.77H139.096L141.148 170.956L143.182 176.77ZM148.083 176.032C148.083 179.146 150.099 181.162 152.943 181.162C155.373 181.162 156.957 179.812 157.515 177.868H155.301C154.923 178.894 154.167 179.434 152.943 179.434C151.287 179.434 150.189 178.21 150.189 176.032C150.189 173.872 151.287 172.648 152.943 172.648C154.167 172.648 154.959 173.26 155.301 174.214H157.515C156.957 172.126 155.373 170.92 152.943 170.92C150.099 170.92 148.083 172.936 148.083 176.032ZM158.876 175.996C158.876 179.056 160.946 181.162 163.502 181.162C165.176 181.162 166.418 180.334 166.994 179.56V185.716H169.064V171.082H166.994V172.522C166.418 171.712 165.212 170.92 163.574 170.92C160.946 170.92 158.876 172.936 158.876 175.996ZM166.994 176.032C166.994 178.174 165.536 179.38 163.988 179.38C162.458 179.38 160.982 178.138 160.982 175.996C160.982 173.854 162.458 172.702 163.988 172.702C165.536 172.702 166.994 173.908 166.994 176.032ZM180.741 171.082H178.689V176.608C178.689 178.426 177.699 179.362 176.187 179.362C174.693 179.362 173.703 178.426 173.703 176.608V171.082H171.669V176.914C171.669 179.686 173.433 181.144 175.755 181.144C176.925 181.144 178.041 180.658 178.689 179.812V181H180.741V171.082ZM183.449 181H185.501V171.082H183.449V181ZM184.493 169.768C185.213 169.768 185.789 169.192 185.789 168.454C185.789 167.716 185.213 167.14 184.493 167.14C183.755 167.14 183.179 167.716 183.179 168.454C183.179 169.192 183.755 169.768 184.493 169.768ZM195.593 178.228C195.485 174.646 189.887 175.762 189.887 173.764C189.887 173.098 190.463 172.648 191.561 172.648C192.677 172.648 193.343 173.242 193.415 174.106H195.467C195.359 172.126 193.883 170.92 191.633 170.92C189.293 170.92 187.817 172.198 187.817 173.782C187.817 177.418 193.577 176.302 193.577 178.246C193.577 178.93 192.947 179.434 191.759 179.434C190.625 179.434 189.851 178.768 189.779 177.958H187.655C187.745 179.758 189.419 181.162 191.795 181.162C194.135 181.162 195.593 179.902 195.593 178.228ZM197.81 181H199.862V171.082H197.81V181ZM198.854 169.768C199.574 169.768 200.15 169.192 200.15 168.454C200.15 167.716 199.574 167.14 198.854 167.14C198.116 167.14 197.54 167.716 197.54 168.454C197.54 169.192 198.116 169.768 198.854 169.768ZM202.88 178.246C202.88 180.262 203.978 181 205.742 181H207.362V179.29H206.102C205.238 179.29 204.95 178.984 204.95 178.246V172.756H207.362V171.082H204.95V168.616H202.88V171.082H201.71V172.756H202.88V178.246ZM209.253 181H211.305V171.082H209.253V181ZM210.297 169.768C211.017 169.768 211.593 169.192 211.593 168.454C211.593 167.716 211.017 167.14 210.297 167.14C209.559 167.14 208.983 167.716 208.983 168.454C208.983 169.192 209.559 169.768 210.297 169.768ZM223.449 176.032C223.449 172.918 221.217 170.92 218.391 170.92C215.565 170.92 213.333 172.918 213.333 176.032C213.333 179.146 215.475 181.162 218.301 181.162C221.145 181.162 223.449 179.146 223.449 176.032ZM215.421 176.032C215.421 173.782 216.807 172.702 218.355 172.702C219.885 172.702 221.343 173.782 221.343 176.032C221.343 178.282 219.831 179.38 218.301 179.38C216.753 179.38 215.421 178.282 215.421 176.032ZM232.516 181H234.55V175.15C234.55 172.378 232.804 170.92 230.482 170.92C229.294 170.92 228.196 171.406 227.53 172.216V171.082H225.478V181H227.53V175.456C227.53 173.638 228.52 172.702 230.032 172.702C231.526 172.702 232.516 173.638 232.516 175.456V181ZM249.781 181H251.833V168.49H249.781V173.854H243.895V168.49H241.843V181H243.895V175.528H249.781V181ZM261.177 172.234C261.177 173.476 260.457 174.358 258.855 174.358H256.587V170.164H258.855C260.457 170.164 261.177 170.974 261.177 172.234ZM254.535 168.49V181H256.587V175.996H258.153L261.033 181H263.481L260.385 175.816C262.491 175.294 263.283 173.71 263.283 172.234C263.283 170.2 261.825 168.49 258.855 168.49H254.535ZM270.583 181H272.635V172.432L276.469 181H277.891L281.707 172.432V181H283.759V168.49H281.563L277.189 178.3L272.797 168.49H270.583V181ZM285.772 175.996C285.772 179.056 287.842 181.162 290.416 181.162C292.072 181.162 293.26 180.37 293.89 179.524V181H295.96V171.082H293.89V172.522C293.278 171.712 292.126 170.92 290.452 170.92C287.842 170.92 285.772 172.936 285.772 175.996ZM293.89 176.032C293.89 178.174 292.432 179.38 290.884 179.38C289.354 179.38 287.878 178.138 287.878 175.996C287.878 173.854 289.354 172.702 290.884 172.702C292.432 172.702 293.89 173.908 293.89 176.032ZM305.694 181H307.728V175.15C307.728 172.378 305.982 170.92 303.66 170.92C302.472 170.92 301.374 171.406 300.708 172.216V171.082H298.656V181H300.708V175.456C300.708 173.638 301.698 172.702 303.21 172.702C304.704 172.702 305.694 173.638 305.694 175.456V181ZM309.661 175.996C309.661 179.056 311.731 181.162 314.305 181.162C315.961 181.162 317.149 180.37 317.779 179.524V181H319.849V171.082H317.779V172.522C317.167 171.712 316.015 170.92 314.341 170.92C311.731 170.92 309.661 172.936 309.661 175.996ZM317.779 176.032C317.779 178.174 316.321 179.38 314.773 179.38C313.243 179.38 311.767 178.138 311.767 175.996C311.767 173.854 313.243 172.702 314.773 172.702C316.321 172.702 317.779 173.908 317.779 176.032ZM321.86 175.996C321.86 179.056 323.93 181.162 326.54 181.162C328.16 181.162 329.348 180.352 329.978 179.506V181.162C329.978 183.142 328.79 184.114 327.206 184.114C325.784 184.114 324.686 183.412 324.38 182.386H322.346C322.598 184.582 324.56 185.896 327.206 185.896C330.302 185.896 332.048 183.862 332.048 181.162V171.082H329.978V172.522C329.366 171.676 328.16 170.92 326.54 170.92C323.93 170.92 321.86 172.936 321.86 175.996ZM329.978 176.032C329.978 178.174 328.52 179.38 326.972 179.38C325.442 179.38 323.966 178.138 323.966 175.996C323.966 173.854 325.442 172.702 326.972 172.702C328.52 172.702 329.978 173.908 329.978 176.032ZM338.92 172.648C340.45 172.648 341.656 173.62 341.692 175.15H336.202C336.418 173.584 337.534 172.648 338.92 172.648ZM343.564 178.048H341.35C340.972 178.822 340.27 179.434 339.01 179.434C337.498 179.434 336.328 178.444 336.184 176.806H343.762C343.816 176.464 343.834 176.14 343.834 175.798C343.834 172.882 341.836 170.92 339.01 170.92C336.076 170.92 334.06 172.918 334.06 176.032C334.06 179.146 336.166 181.162 339.01 181.162C341.44 181.162 343.006 179.776 343.564 178.048ZM347.905 175.78C347.905 173.674 348.841 173.044 350.353 173.044H350.875V170.92C349.471 170.92 348.481 171.532 347.905 172.522V171.082H345.853V181H347.905V175.78Z" fill="#212832"/>
<path d="M389 76H387V123H389V76Z" fill="#CF1C54" stroke="#CF1C54" stroke-width="0.936604"/>
<path d="M389 151H387V198H389V151Z" fill="#E9D733" stroke="#E9D733" stroke-width="0.936604"/>
<circle cx="24.4151" cy="99.4151" r="23.4151" fill="#E9336C" stroke="#E9336C"/>
<circle cx="24.4151" cy="174.415" r="23.4151" fill="#E9D733" stroke="#E9D733"/>
<path d="M13.4777 99.6055C13.4777 103.577 14.5267 106.574 18.348 106.574C22.1694 106.574 23.2184 103.577 23.2184 99.6055C23.2184 95.7093 22.1694 92.7121 18.348 92.7121C14.5267 92.7121 13.4777 95.7093 13.4777 99.6055ZM21.1204 99.6055C21.1204 102.284 20.8394 104.626 18.348 104.626C15.8567 104.626 15.5757 102.284 15.5757 99.6055C15.5757 97.058 15.8567 94.6603 18.348 94.6603C20.8394 94.6603 21.1204 97.058 21.1204 99.6055ZM31.9967 106.611H34.0947V103.764H35.8368V101.91H34.0947V93.1242H31.5097L25.2157 102.153V103.764H31.9967V106.611ZM27.6696 101.91L32.0904 95.2972V101.91H27.6696Z" fill="#212832"/>
<path d="M14.3009 174.606C14.3009 178.577 15.3499 181.574 19.1712 181.574C22.9926 181.574 24.0416 178.577 24.0416 174.606C24.0416 170.709 22.9926 167.712 19.1712 167.712C15.3499 167.712 14.3009 170.709 14.3009 174.606ZM21.9436 174.606C21.9436 177.284 21.6626 179.626 19.1712 179.626C16.6799 179.626 16.3989 177.284 16.3989 174.606C16.3989 172.058 16.6799 169.66 19.1712 169.66C21.6626 169.66 21.9436 172.058 21.9436 174.606ZM25.9265 168.012V169.829H32.8573L27.5936 181.611H29.7478L34.9553 169.604V168.012H25.9265Z" fill="#212832"/>
<g filter="url(#filter3_d_953_321)">
<rect x="436" y="76" width="365" height="47" fill="white" shape-rendering="crispEdges"/>
<rect x="435.766" y="75.7658" width="365.468" height="47.4683" stroke="black" stroke-opacity="0.2" stroke-width="0.468302" shape-rendering="crispEdges"/>
</g>
<g filter="url(#filter4_d_953_321)">
<rect x="436" y="151" width="365" height="47" fill="white" shape-rendering="crispEdges"/>
<rect x="435.766" y="150.766" width="365.468" height="47.4683" stroke="black" stroke-opacity="0.2" stroke-width="0.468302" shape-rendering="crispEdges"/>
</g>
<path d="M501.522 93.49V106H507.804V104.344H503.574V93.49H501.522ZM508.836 100.996C508.836 104.056 510.906 106.162 513.48 106.162C515.136 106.162 516.324 105.37 516.954 104.524V106H519.024V96.082H516.954V97.522C516.342 96.712 515.19 95.92 513.516 95.92C510.906 95.92 508.836 97.936 508.836 100.996ZM516.954 101.032C516.954 103.174 515.496 104.38 513.948 104.38C512.418 104.38 510.942 103.138 510.942 100.996C510.942 98.854 512.418 97.702 513.948 97.702C515.496 97.702 516.954 98.908 516.954 101.032ZM523.771 97.558V92.68H521.719V106H523.771V104.56C524.419 105.424 525.589 106.162 527.227 106.162C529.837 106.162 531.889 104.056 531.889 100.996C531.889 97.936 529.855 95.92 527.227 95.92C525.661 95.92 524.419 96.658 523.771 97.558ZM529.801 100.996C529.801 103.138 528.325 104.38 526.777 104.38C525.247 104.38 523.771 103.174 523.771 101.032C523.771 98.908 525.247 97.702 526.777 97.702C528.325 97.702 529.801 98.854 529.801 100.996ZM543.368 101.032C543.368 97.918 541.136 95.92 538.31 95.92C535.484 95.92 533.252 97.918 533.252 101.032C533.252 104.146 535.394 106.162 538.22 106.162C541.064 106.162 543.368 104.146 543.368 101.032ZM535.34 101.032C535.34 98.782 536.726 97.702 538.274 97.702C539.804 97.702 541.262 98.782 541.262 101.032C541.262 103.282 539.75 104.38 538.22 104.38C536.672 104.38 535.34 103.282 535.34 101.032ZM554.379 96.082H552.327V101.608C552.327 103.426 551.337 104.362 549.825 104.362C548.331 104.362 547.341 103.426 547.341 101.608V96.082H545.307V101.914C545.307 104.686 547.071 106.144 549.393 106.144C550.563 106.144 551.679 105.658 552.327 104.812V106H554.379V96.082ZM559.138 100.78C559.138 98.674 560.074 98.044 561.586 98.044H562.108V95.92C560.704 95.92 559.714 96.532 559.138 97.522V96.082H557.086V106H559.138V100.78ZM575.312 97.234C575.312 98.476 574.592 99.358 572.99 99.358H570.722V95.164H572.99C574.592 95.164 575.312 95.974 575.312 97.234ZM568.67 93.49V106H570.722V100.996H572.288L575.168 106H577.616L574.52 100.816C576.626 100.294 577.418 98.71 577.418 97.234C577.418 95.2 575.96 93.49 572.99 93.49H568.67ZM584.219 97.648C585.749 97.648 586.955 98.62 586.991 100.15H581.501C581.717 98.584 582.833 97.648 584.219 97.648ZM588.863 103.048H586.649C586.271 103.822 585.569 104.434 584.309 104.434C582.797 104.434 581.627 103.444 581.483 101.806H589.061C589.115 101.464 589.133 101.14 589.133 100.798C589.133 97.882 587.135 95.92 584.309 95.92C581.375 95.92 579.359 97.918 579.359 101.032C579.359 104.146 581.465 106.162 584.309 106.162C586.739 106.162 588.305 104.776 588.863 103.048ZM591.153 106H593.205V92.68H591.153V106ZM595.215 100.996C595.215 104.056 597.285 106.162 599.859 106.162C601.515 106.162 602.703 105.37 603.333 104.524V106H605.403V96.082H603.333V97.522C602.721 96.712 601.569 95.92 599.895 95.92C597.285 95.92 595.215 97.936 595.215 100.996ZM603.333 101.032C603.333 103.174 601.875 104.38 600.327 104.38C598.797 104.38 597.321 103.138 597.321 100.996C597.321 98.854 598.797 97.702 600.327 97.702C601.875 97.702 603.333 98.908 603.333 101.032ZM608.422 103.246C608.422 105.262 609.52 106 611.284 106H612.904V104.29H611.644C610.78 104.29 610.492 103.984 610.492 103.246V97.756H612.904V96.082H610.492V93.616H608.422V96.082H607.252V97.756H608.422V103.246ZM614.795 106H616.847V96.082H614.795V106ZM615.839 94.768C616.559 94.768 617.135 94.192 617.135 93.454C617.135 92.716 616.559 92.14 615.839 92.14C615.101 92.14 614.525 92.716 614.525 93.454C614.525 94.192 615.101 94.768 615.839 94.768ZM628.991 101.032C628.991 97.918 626.759 95.92 623.933 95.92C621.107 95.92 618.875 97.918 618.875 101.032C618.875 104.146 621.017 106.162 623.843 106.162C626.687 106.162 628.991 104.146 628.991 101.032ZM620.963 101.032C620.963 98.782 622.349 97.702 623.897 97.702C625.427 97.702 626.885 98.782 626.885 101.032C626.885 103.282 625.373 104.38 623.843 104.38C622.295 104.38 620.963 103.282 620.963 101.032ZM638.058 106H640.092V100.15C640.092 97.378 638.346 95.92 636.024 95.92C634.836 95.92 633.738 96.406 633.072 97.216V96.082H631.02V106H633.072V100.456C633.072 98.638 634.062 97.702 635.574 97.702C637.068 97.702 638.058 98.638 638.058 100.456V106ZM650.107 103.228C649.999 99.646 644.401 100.762 644.401 98.764C644.401 98.098 644.977 97.648 646.075 97.648C647.191 97.648 647.857 98.242 647.929 99.106H649.981C649.873 97.126 648.397 95.92 646.147 95.92C643.807 95.92 642.331 97.198 642.331 98.782C642.331 102.418 648.091 101.302 648.091 103.246C648.091 103.93 647.461 104.434 646.273 104.434C645.139 104.434 644.365 103.768 644.293 102.958H642.169C642.259 104.758 643.933 106.162 646.309 106.162C648.649 106.162 650.107 104.902 650.107 103.228ZM657 106H659.052V97.432L662.886 106H664.308L668.124 97.432V106H670.176V93.49H667.98L663.606 103.3L659.214 93.49H657V106ZM672.189 100.996C672.189 104.056 674.259 106.162 676.833 106.162C678.489 106.162 679.677 105.37 680.307 104.524V106H682.377V96.082H680.307V97.522C679.695 96.712 678.543 95.92 676.869 95.92C674.259 95.92 672.189 97.936 672.189 100.996ZM680.307 101.032C680.307 103.174 678.849 104.38 677.301 104.38C675.771 104.38 674.295 103.138 674.295 100.996C674.295 98.854 675.771 97.702 677.301 97.702C678.849 97.702 680.307 98.908 680.307 101.032ZM692.111 106H694.145V100.15C694.145 97.378 692.399 95.92 690.077 95.92C688.889 95.92 687.791 96.406 687.125 97.216V96.082H685.073V106H687.125V100.456C687.125 98.638 688.115 97.702 689.627 97.702C691.121 97.702 692.111 98.638 692.111 100.456V106ZM696.078 100.996C696.078 104.056 698.148 106.162 700.722 106.162C702.378 106.162 703.566 105.37 704.196 104.524V106H706.266V96.082H704.196V97.522C703.584 96.712 702.432 95.92 700.758 95.92C698.148 95.92 696.078 97.936 696.078 100.996ZM704.196 101.032C704.196 103.174 702.738 104.38 701.19 104.38C699.66 104.38 698.184 103.138 698.184 100.996C698.184 98.854 699.66 97.702 701.19 97.702C702.738 97.702 704.196 98.908 704.196 101.032ZM708.277 100.996C708.277 104.056 710.347 106.162 712.957 106.162C714.577 106.162 715.765 105.352 716.395 104.506V106.162C716.395 108.142 715.207 109.114 713.623 109.114C712.201 109.114 711.103 108.412 710.797 107.386H708.763C709.015 109.582 710.977 110.896 713.623 110.896C716.719 110.896 718.465 108.862 718.465 106.162V96.082H716.395V97.522C715.783 96.676 714.577 95.92 712.957 95.92C710.347 95.92 708.277 97.936 708.277 100.996ZM716.395 101.032C716.395 103.174 714.937 104.38 713.389 104.38C711.859 104.38 710.383 103.138 710.383 100.996C710.383 98.854 711.859 97.702 713.389 97.702C714.937 97.702 716.395 98.908 716.395 101.032ZM725.337 97.648C726.867 97.648 728.073 98.62 728.109 100.15H722.619C722.835 98.584 723.951 97.648 725.337 97.648ZM729.981 103.048H727.767C727.389 103.822 726.687 104.434 725.427 104.434C723.915 104.434 722.745 103.444 722.601 101.806H730.179C730.233 101.464 730.251 101.14 730.251 100.798C730.251 97.882 728.253 95.92 725.427 95.92C722.493 95.92 720.477 97.918 720.477 101.032C720.477 104.146 722.583 106.162 725.427 106.162C727.857 106.162 729.423 104.776 729.981 103.048ZM734.322 100.78C734.322 98.674 735.258 98.044 736.77 98.044H737.292V95.92C735.888 95.92 734.898 96.532 734.322 97.522V96.082H732.27V106H734.322V100.78Z" fill="#212832"/>
<path d="M475.828 170.164H479.176V181H481.228V170.164H484.558V168.49H475.828V170.164ZM488.688 175.78C488.688 173.674 489.624 173.044 491.136 173.044H491.658V170.92C490.254 170.92 489.264 171.532 488.688 172.522V171.082H486.636V181H488.688V175.78ZM492.86 175.996C492.86 179.056 494.93 181.162 497.504 181.162C499.16 181.162 500.348 180.37 500.978 179.524V181H503.048V171.082H500.978V172.522C500.366 171.712 499.214 170.92 497.54 170.92C494.93 170.92 492.86 172.936 492.86 175.996ZM500.978 176.032C500.978 178.174 499.52 179.38 497.972 179.38C496.442 179.38 494.966 178.138 494.966 175.996C494.966 173.854 496.442 172.702 497.972 172.702C499.52 172.702 500.978 173.908 500.978 176.032ZM505.744 181H507.796V171.082H505.744V181ZM506.788 169.768C507.508 169.768 508.084 169.192 508.084 168.454C508.084 167.716 507.508 167.14 506.788 167.14C506.05 167.14 505.474 167.716 505.474 168.454C505.474 169.192 506.05 169.768 506.788 169.768ZM517.528 181H519.562V175.15C519.562 172.378 517.816 170.92 515.494 170.92C514.306 170.92 513.208 171.406 512.542 172.216V171.082H510.49V181H512.542V175.456C512.542 173.638 513.532 172.702 515.044 172.702C516.538 172.702 517.528 173.638 517.528 175.456V181ZM522.179 181H524.231V171.082H522.179V181ZM523.223 169.768C523.943 169.768 524.519 169.192 524.519 168.454C524.519 167.716 523.943 167.14 523.223 167.14C522.485 167.14 521.909 167.716 521.909 168.454C521.909 169.192 522.485 169.768 523.223 169.768ZM533.963 181H535.997V175.15C535.997 172.378 534.251 170.92 531.929 170.92C530.741 170.92 529.643 171.406 528.977 172.216V171.082H526.925V181H528.977V175.456C528.977 173.638 529.967 172.702 531.479 172.702C532.973 172.702 533.963 173.638 533.963 175.456V181ZM537.931 175.996C537.931 179.056 540.001 181.162 542.611 181.162C544.231 181.162 545.419 180.352 546.049 179.506V181.162C546.049 183.142 544.861 184.114 543.277 184.114C541.855 184.114 540.757 183.412 540.451 182.386H538.417C538.669 184.582 540.631 185.896 543.277 185.896C546.373 185.896 548.119 183.862 548.119 181.162V171.082H546.049V172.522C545.437 171.676 544.231 170.92 542.611 170.92C540.001 170.92 537.931 172.936 537.931 175.996ZM546.049 176.032C546.049 178.174 544.591 179.38 543.043 179.38C541.513 179.38 540.037 178.138 540.037 175.996C540.037 173.854 541.513 172.702 543.043 172.702C544.591 172.702 546.049 173.908 546.049 176.032ZM563.446 171.28C563.572 169.57 562.402 168.202 560.224 168.202C558.082 168.202 556.75 169.444 556.75 171.082C556.75 171.964 557.002 172.63 557.704 173.476C555.724 174.286 554.77 175.708 554.77 177.4C554.77 179.74 556.57 181.234 559.27 181.234C561.016 181.234 562.402 180.658 563.608 179.452L565.156 181H567.838L564.796 177.976C564.94 177.742 565.102 177.49 565.246 177.238L566.866 174.466H564.652L563.374 176.572L560.062 173.278C559.18 172.324 558.802 171.766 558.802 171.082C558.802 170.416 559.324 169.876 560.134 169.876C560.908 169.876 561.43 170.362 561.394 171.28H563.446ZM559.27 179.488C557.794 179.488 556.822 178.534 556.822 177.328C556.822 176.212 557.488 175.348 558.946 174.772L562.258 178.102C561.394 179.02 560.44 179.488 559.27 179.488ZM577.945 168.49H573.859V181H577.945C581.959 181 584.587 178.642 584.587 174.79C584.587 170.92 581.959 168.49 577.945 168.49ZM575.911 179.326V170.164H577.945C580.897 170.164 582.481 171.928 582.481 174.79C582.481 177.634 580.897 179.326 577.945 179.326H575.911ZM590.797 172.648C592.327 172.648 593.533 173.62 593.569 175.15H588.079C588.295 173.584 589.411 172.648 590.797 172.648ZM595.441 178.048H593.227C592.849 178.822 592.147 179.434 590.887 179.434C589.375 179.434 588.205 178.444 588.061 176.806H595.639C595.693 176.464 595.711 176.14 595.711 175.798C595.711 172.882 593.713 170.92 590.887 170.92C587.953 170.92 585.937 172.918 585.937 176.032C585.937 179.146 588.043 181.162 590.887 181.162C593.317 181.162 594.883 179.776 595.441 178.048ZM596.56 171.082L600.322 181H602.77L606.55 171.082H604.372L601.564 179.164L598.756 171.082H596.56ZM612.277 172.648C613.807 172.648 615.013 173.62 615.049 175.15H609.559C609.775 173.584 610.891 172.648 612.277 172.648ZM616.921 178.048H614.707C614.329 178.822 613.627 179.434 612.367 179.434C610.855 179.434 609.685 178.444 609.541 176.806H617.119C617.173 176.464 617.191 176.14 617.191 175.798C617.191 172.882 615.193 170.92 612.367 170.92C609.433 170.92 607.417 172.918 607.417 176.032C607.417 179.146 609.523 181.162 612.367 181.162C614.797 181.162 616.363 179.776 616.921 178.048ZM619.21 181H621.262V167.68H619.21V181ZM633.406 176.032C633.406 172.918 631.174 170.92 628.348 170.92C625.522 170.92 623.29 172.918 623.29 176.032C623.29 179.146 625.432 181.162 628.258 181.162C631.102 181.162 633.406 179.146 633.406 176.032ZM625.378 176.032C625.378 173.782 626.764 172.702 628.312 172.702C629.842 172.702 631.3 173.782 631.3 176.032C631.3 178.282 629.788 179.38 628.258 179.38C626.71 179.38 625.378 178.282 625.378 176.032ZM637.487 172.54V171.082H635.435V185.716H637.487V179.56C638.135 180.334 639.305 181.162 640.943 181.162C643.553 181.162 645.605 179.056 645.605 175.996C645.605 172.936 643.553 170.92 640.943 170.92C639.323 170.92 638.117 171.712 637.487 172.54ZM643.517 175.996C643.517 178.138 642.041 179.38 640.493 179.38C638.963 179.38 637.487 178.174 637.487 176.032C637.487 173.908 638.963 172.702 640.493 172.702C642.041 172.702 643.517 173.854 643.517 175.996ZM661.692 181H663.726V175.15C663.726 172.378 661.962 170.92 659.64 170.92C658.2 170.92 656.796 171.676 656.184 172.882C655.5 171.586 654.186 170.92 652.62 170.92C651.432 170.92 650.352 171.406 649.686 172.216V171.082H647.634V181H649.686V175.456C649.686 173.638 650.676 172.702 652.188 172.702C653.682 172.702 654.672 173.638 654.672 175.456V181H656.706V175.456C656.706 173.638 657.696 172.702 659.208 172.702C660.702 172.702 661.692 173.638 661.692 175.456V181ZM670.513 172.648C672.043 172.648 673.249 173.62 673.285 175.15H667.795C668.011 173.584 669.127 172.648 670.513 172.648ZM675.157 178.048H672.943C672.565 178.822 671.863 179.434 670.603 179.434C669.091 179.434 667.921 178.444 667.777 176.806H675.355C675.409 176.464 675.427 176.14 675.427 175.798C675.427 172.882 673.429 170.92 670.603 170.92C667.669 170.92 665.653 172.918 665.653 176.032C665.653 179.146 667.759 181.162 670.603 181.162C673.033 181.162 674.599 179.776 675.157 178.048ZM684.485 181H686.519V175.15C686.519 172.378 684.773 170.92 682.451 170.92C681.263 170.92 680.165 171.406 679.499 172.216V171.082H677.447V181H679.499V175.456C679.499 173.638 680.489 172.702 682.001 172.702C683.495 172.702 684.485 173.638 684.485 175.456V181ZM689.46 178.246C689.46 180.262 690.558 181 692.322 181H693.942V179.29H692.682C691.818 179.29 691.53 178.984 691.53 178.246V172.756H693.942V171.082H691.53V168.616H689.46V171.082H688.29V172.756H689.46V178.246ZM708.951 177.454C708.951 172.882 702.327 174.646 702.327 171.82C702.327 170.614 703.245 170.038 704.433 170.074C705.729 170.11 706.467 170.884 706.539 171.73H708.807C708.627 169.588 706.935 168.328 704.541 168.328C701.985 168.328 700.239 169.696 700.239 171.892C700.239 176.5 706.881 174.538 706.881 177.562C706.881 178.624 706.071 179.398 704.631 179.398C703.209 179.398 702.489 178.57 702.399 177.544H700.203C700.203 179.758 702.129 181.126 704.631 181.126C707.421 181.126 708.951 179.326 708.951 177.454ZM713.424 172.54V171.082H711.372V185.716H713.424V179.56C714.072 180.334 715.242 181.162 716.88 181.162C719.49 181.162 721.542 179.056 721.542 175.996C721.542 172.936 719.49 170.92 716.88 170.92C715.26 170.92 714.054 171.712 713.424 172.54ZM719.454 175.996C719.454 178.138 717.978 179.38 716.43 179.38C714.9 179.38 713.424 178.174 713.424 176.032C713.424 173.908 714.9 172.702 716.43 172.702C717.978 172.702 719.454 173.854 719.454 175.996ZM727.748 172.648C729.278 172.648 730.484 173.62 730.52 175.15H725.03C725.246 173.584 726.362 172.648 727.748 172.648ZM732.392 178.048H730.178C729.8 178.822 729.098 179.434 727.838 179.434C726.326 179.434 725.156 178.444 725.012 176.806H732.59C732.644 176.464 732.662 176.14 732.662 175.798C732.662 172.882 730.664 170.92 727.838 170.92C724.904 170.92 722.888 172.918 722.888 176.032C722.888 179.146 724.994 181.162 727.838 181.162C730.268 181.162 731.834 179.776 732.392 178.048ZM733.997 176.032C733.997 179.146 736.013 181.162 738.857 181.162C741.287 181.162 742.871 179.812 743.429 177.868H741.215C740.837 178.894 740.081 179.434 738.857 179.434C737.201 179.434 736.103 178.21 736.103 176.032C736.103 173.872 737.201 172.648 738.857 172.648C740.081 172.648 740.873 173.26 741.215 174.214H743.429C742.871 172.126 741.287 170.92 738.857 170.92C736.013 170.92 733.997 172.936 733.997 176.032ZM745.474 181H747.526V171.082H745.474V181ZM746.518 169.768C747.238 169.768 747.814 169.192 747.814 168.454C747.814 167.716 747.238 167.14 746.518 167.14C745.78 167.14 745.204 167.716 745.204 168.454C745.204 169.192 745.78 169.768 746.518 169.768ZM749.536 175.996C749.536 179.056 751.606 181.162 754.18 181.162C755.836 181.162 757.024 180.37 757.654 179.524V181H759.724V171.082H757.654V172.522C757.042 171.712 755.89 170.92 754.216 170.92C751.606 170.92 749.536 172.936 749.536 175.996ZM757.654 176.032C757.654 178.174 756.196 179.38 754.648 179.38C753.118 179.38 751.642 178.138 751.642 175.996C751.642 173.854 753.118 172.702 754.648 172.702C756.196 172.702 757.654 173.908 757.654 176.032ZM762.419 181H764.471V167.68H762.419V181ZM767.165 181H769.217V171.082H767.165V181ZM768.209 169.768C768.929 169.768 769.505 169.192 769.505 168.454C769.505 167.716 768.929 167.14 768.209 167.14C767.471 167.14 766.895 167.716 766.895 168.454C766.895 169.192 767.471 169.768 768.209 169.768ZM779.31 178.228C779.202 174.646 773.604 175.762 773.604 173.764C773.604 173.098 774.18 172.648 775.278 172.648C776.394 172.648 777.06 173.242 777.132 174.106H779.184C779.076 172.126 777.6 170.92 775.35 170.92C773.01 170.92 771.534 172.198 771.534 173.782C771.534 177.418 777.294 176.302 777.294 178.246C777.294 178.93 776.664 179.434 775.476 179.434C774.342 179.434 773.568 178.768 773.496 177.958H771.372C771.462 179.758 773.136 181.162 775.512 181.162C777.852 181.162 779.31 179.902 779.31 178.228ZM781.851 178.246C781.851 180.262 782.949 181 784.713 181H786.333V179.29H785.073C784.209 179.29 783.921 178.984 783.921 178.246V172.756H786.333V171.082H783.921V168.616H781.851V171.082H780.681V172.756H781.851V178.246Z" fill="#212832"/>
<path d="M801 76H799V123H801V76Z" fill="#00ADEF" stroke="#00ADEF" stroke-width="0.936604"/>
<path d="M801 151H799V198H801V151Z" fill="#EF9E00" stroke="#EF9E00" stroke-width="0.936604"/>
<circle cx="436.415" cy="99.8506" r="23.4151" fill="#00ADEF" stroke="#00ADEF"/>
<circle cx="436.415" cy="174.851" r="23.4151" fill="#EF9E00" stroke="#EF9E00"/>
<path d="M425.56 99.6055C425.56 103.577 426.609 106.574 430.43 106.574C434.252 106.574 435.301 103.577 435.301 99.6055C435.301 95.7093 434.252 92.7121 430.43 92.7121C426.609 92.7121 425.56 95.7093 425.56 99.6055ZM433.203 99.6055C433.203 102.284 432.922 104.626 430.43 104.626C427.939 104.626 427.658 102.284 427.658 99.6055C427.658 97.058 427.939 94.6603 430.43 94.6603C432.922 94.6603 433.203 97.058 433.203 99.6055ZM438.122 92.9182V100.804H440.145C440.501 99.7929 441.344 99.0998 442.599 99.0998C444.379 99.0998 445.259 100.111 445.259 101.891C445.259 103.577 444.435 104.832 442.599 104.832C441.157 104.832 440.183 104.082 439.902 102.921H437.823C438.141 105.057 439.771 106.611 442.58 106.611C445.746 106.611 447.301 104.551 447.301 101.835C447.301 99.7741 446.271 97.2828 442.918 97.2828C441.7 97.2828 440.595 97.8447 440.089 98.5191V94.7914H446.364V92.9182H438.122Z" fill="#212832"/>
<path d="M425.569 174.606C425.569 178.577 426.618 181.574 430.44 181.574C434.261 181.574 435.31 178.577 435.31 174.606C435.31 170.709 434.261 167.712 430.44 167.712C426.618 167.712 425.569 170.709 425.569 174.606ZM433.212 174.606C433.212 177.284 432.931 179.626 430.44 179.626C427.948 179.626 427.667 177.284 427.667 174.606C427.667 172.058 427.948 169.66 430.44 169.66C432.931 169.66 433.212 172.058 433.212 174.606ZM439.873 174.474C438.506 174.98 437.588 176.198 437.588 177.846C437.588 180.338 439.611 181.949 442.421 181.949C445.25 181.949 447.273 180.338 447.273 177.846C447.273 176.216 446.355 174.999 444.969 174.474C446.074 173.931 446.917 172.863 446.917 171.402C446.917 169.435 445.437 167.712 442.421 167.712C439.405 167.712 437.925 169.417 437.925 171.402C437.925 172.92 438.712 173.894 439.873 174.474ZM442.421 173.8C440.997 173.8 439.986 172.92 439.986 171.683C439.986 170.241 440.96 169.492 442.421 169.492C443.92 169.492 444.875 170.26 444.875 171.665C444.875 172.901 443.845 173.8 442.421 173.8ZM442.421 175.411C444.032 175.411 445.175 176.235 445.175 177.771C445.175 179.139 444.144 180.169 442.421 180.169C440.679 180.169 439.63 179.157 439.63 177.771C439.63 176.179 440.848 175.411 442.421 175.411Z" fill="#212832"/>
<g filter="url(#filter5_d_953_321)">
<rect x="859" y="76" width="365" height="47" fill="white" shape-rendering="crispEdges"/>
<rect x="858.766" y="75.7658" width="365.468" height="47.4683" stroke="black" stroke-opacity="0.2" stroke-width="0.468302" shape-rendering="crispEdges"/>
</g>
<g filter="url(#filter6_d_953_321)">
<rect x="859" y="151" width="365" height="47" fill="white" shape-rendering="crispEdges"/>
<rect x="858.766" y="150.766" width="365.468" height="47.4683" stroke="black" stroke-opacity="0.2" stroke-width="0.468302" shape-rendering="crispEdges"/>
</g>
<path d="M929.076 99.718C929.076 103.48 931.938 106.108 935.466 106.108C938.076 106.108 940.326 104.812 941.28 102.364H938.814C938.148 103.696 936.96 104.326 935.466 104.326C932.982 104.326 931.182 102.544 931.182 99.718C931.182 96.892 932.982 95.128 935.466 95.128C936.96 95.128 938.148 95.758 938.814 97.09H941.28C940.326 94.642 938.076 93.328 935.466 93.328C931.938 93.328 929.076 95.974 929.076 99.718ZM953.132 101.032C953.132 97.918 950.9 95.92 948.074 95.92C945.248 95.92 943.016 97.918 943.016 101.032C943.016 104.146 945.158 106.162 947.984 106.162C950.828 106.162 953.132 104.146 953.132 101.032ZM945.104 101.032C945.104 98.782 946.49 97.702 948.038 97.702C949.568 97.702 951.026 98.782 951.026 101.032C951.026 103.282 949.514 104.38 947.984 104.38C946.436 104.38 945.104 103.282 945.104 101.032ZM969.219 106H971.253V100.15C971.253 97.378 969.489 95.92 967.167 95.92C965.727 95.92 964.323 96.676 963.711 97.882C963.027 96.586 961.713 95.92 960.147 95.92C958.959 95.92 957.879 96.406 957.213 97.216V96.082H955.161V106H957.213V100.456C957.213 98.638 958.203 97.702 959.715 97.702C961.209 97.702 962.199 98.638 962.199 100.456V106H964.233V100.456C964.233 98.638 965.223 97.702 966.735 97.702C968.229 97.702 969.219 98.638 969.219 100.456V106ZM975.916 97.54V96.082H973.864V110.716H975.916V104.56C976.564 105.334 977.734 106.162 979.372 106.162C981.982 106.162 984.034 104.056 984.034 100.996C984.034 97.936 981.982 95.92 979.372 95.92C977.752 95.92 976.546 96.712 975.916 97.54ZM981.946 100.996C981.946 103.138 980.47 104.38 978.922 104.38C977.392 104.38 975.916 103.174 975.916 101.032C975.916 98.908 977.392 97.702 978.922 97.702C980.47 97.702 981.946 98.854 981.946 100.996ZM986.063 106H988.115V92.68H986.063V106ZM990.809 106H992.861V96.082H990.809V106ZM991.853 94.768C992.573 94.768 993.149 94.192 993.149 93.454C993.149 92.716 992.573 92.14 991.853 92.14C991.115 92.14 990.539 92.716 990.539 93.454C990.539 94.192 991.115 94.768 991.853 94.768ZM994.871 100.996C994.871 104.056 996.941 106.162 999.515 106.162C1001.17 106.162 1002.36 105.37 1002.99 104.524V106H1005.06V96.082H1002.99V97.522C1002.38 96.712 1001.23 95.92 999.551 95.92C996.941 95.92 994.871 97.936 994.871 100.996ZM1002.99 101.032C1002.99 103.174 1001.53 104.38 999.983 104.38C998.453 104.38 996.977 103.138 996.977 100.996C996.977 98.854 998.453 97.702 999.983 97.702C1001.53 97.702 1002.99 98.908 1002.99 101.032ZM1014.79 106H1016.83V100.15C1016.83 97.378 1015.08 95.92 1012.76 95.92C1011.57 95.92 1010.47 96.406 1009.81 97.216V96.082H1007.75V106H1009.81V100.456C1009.81 98.638 1010.8 97.702 1012.31 97.702C1013.8 97.702 1014.79 98.638 1014.79 100.456V106ZM1018.76 101.032C1018.76 104.146 1020.78 106.162 1023.62 106.162C1026.05 106.162 1027.63 104.812 1028.19 102.868H1025.98C1025.6 103.894 1024.84 104.434 1023.62 104.434C1021.96 104.434 1020.87 103.21 1020.87 101.032C1020.87 98.872 1021.96 97.648 1023.62 97.648C1024.84 97.648 1025.64 98.26 1025.98 99.214H1028.19C1027.63 97.126 1026.05 95.92 1023.62 95.92C1020.78 95.92 1018.76 97.936 1018.76 101.032ZM1034.41 97.648C1035.94 97.648 1037.15 98.62 1037.18 100.15H1031.69C1031.91 98.584 1033.03 97.648 1034.41 97.648ZM1039.06 103.048H1036.84C1036.46 103.822 1035.76 104.434 1034.5 104.434C1032.99 104.434 1031.82 103.444 1031.68 101.806H1039.25C1039.31 101.464 1039.33 101.14 1039.33 100.798C1039.33 97.882 1037.33 95.92 1034.5 95.92C1031.57 95.92 1029.55 97.918 1029.55 101.032C1029.55 104.146 1031.66 106.162 1034.5 106.162C1036.93 106.162 1038.5 104.776 1039.06 103.048ZM1053.96 106H1056.01V93.49H1053.96V98.854H1048.07V93.49H1046.02V106H1048.07V100.528H1053.96V106ZM1065.36 97.234C1065.36 98.476 1064.64 99.358 1063.03 99.358H1060.77V95.164H1063.03C1064.64 95.164 1065.36 95.974 1065.36 97.234ZM1058.71 93.49V106H1060.77V100.996H1062.33L1065.21 106H1067.66L1064.56 100.816C1066.67 100.294 1067.46 98.71 1067.46 97.234C1067.46 95.2 1066 93.49 1063.03 93.49H1058.71ZM1074.76 106H1076.81V97.432L1080.65 106H1082.07L1085.89 97.432V106H1087.94V93.49H1085.74L1081.37 103.3L1076.98 93.49H1074.76V106ZM1089.95 100.996C1089.95 104.056 1092.02 106.162 1094.6 106.162C1096.25 106.162 1097.44 105.37 1098.07 104.524V106H1100.14V96.082H1098.07V97.522C1097.46 96.712 1096.31 95.92 1094.63 95.92C1092.02 95.92 1089.95 97.936 1089.95 100.996ZM1098.07 101.032C1098.07 103.174 1096.61 104.38 1095.06 104.38C1093.53 104.38 1092.06 103.138 1092.06 100.996C1092.06 98.854 1093.53 97.702 1095.06 97.702C1096.61 97.702 1098.07 98.908 1098.07 101.032ZM1109.87 106H1111.91V100.15C1111.91 97.378 1110.16 95.92 1107.84 95.92C1106.65 95.92 1105.55 96.406 1104.89 97.216V96.082H1102.83V106H1104.89V100.456C1104.89 98.638 1105.88 97.702 1107.39 97.702C1108.88 97.702 1109.87 98.638 1109.87 100.456V106ZM1113.84 100.996C1113.84 104.056 1115.91 106.162 1118.48 106.162C1120.14 106.162 1121.33 105.37 1121.96 104.524V106H1124.03V96.082H1121.96V97.522C1121.35 96.712 1120.19 95.92 1118.52 95.92C1115.91 95.92 1113.84 97.936 1113.84 100.996ZM1121.96 101.032C1121.96 103.174 1120.5 104.38 1118.95 104.38C1117.42 104.38 1115.95 103.138 1115.95 100.996C1115.95 98.854 1117.42 97.702 1118.95 97.702C1120.5 97.702 1121.96 98.908 1121.96 101.032ZM1126.04 100.996C1126.04 104.056 1128.11 106.162 1130.72 106.162C1132.34 106.162 1133.53 105.352 1134.16 104.506V106.162C1134.16 108.142 1132.97 109.114 1131.39 109.114C1129.96 109.114 1128.87 108.412 1128.56 107.386H1126.53C1126.78 109.582 1128.74 110.896 1131.39 110.896C1134.48 110.896 1136.23 108.862 1136.23 106.162V96.082H1134.16V97.522C1133.55 96.676 1132.34 95.92 1130.72 95.92C1128.11 95.92 1126.04 97.936 1126.04 100.996ZM1134.16 101.032C1134.16 103.174 1132.7 104.38 1131.15 104.38C1129.62 104.38 1128.15 103.138 1128.15 100.996C1128.15 98.854 1129.62 97.702 1131.15 97.702C1132.7 97.702 1134.16 98.908 1134.16 101.032ZM1143.1 97.648C1144.63 97.648 1145.83 98.62 1145.87 100.15H1140.38C1140.6 98.584 1141.71 97.648 1143.1 97.648ZM1147.74 103.048H1145.53C1145.15 103.822 1144.45 104.434 1143.19 104.434C1141.68 104.434 1140.51 103.444 1140.36 101.806H1147.94C1147.99 101.464 1148.01 101.14 1148.01 100.798C1148.01 97.882 1146.01 95.92 1143.19 95.92C1140.25 95.92 1138.24 97.918 1138.24 101.032C1138.24 104.146 1140.34 106.162 1143.19 106.162C1145.62 106.162 1147.18 104.776 1147.74 103.048ZM1152.08 100.78C1152.08 98.674 1153.02 98.044 1154.53 98.044H1155.05V95.92C1153.65 95.92 1152.66 96.532 1152.08 97.522V96.082H1150.03V106H1152.08V100.78Z" fill="#212832"/>
<path d="M905.104 181H907.264L902.782 168.472H900.406L895.924 181H898.066L898.966 178.444H904.204L905.104 181ZM903.628 176.77H899.542L901.594 170.956L903.628 176.77ZM908.528 176.032C908.528 179.146 910.544 181.162 913.388 181.162C915.818 181.162 917.402 179.812 917.96 177.868H915.746C915.368 178.894 914.612 179.434 913.388 179.434C911.732 179.434 910.634 178.21 910.634 176.032C910.634 173.872 911.732 172.648 913.388 172.648C914.612 172.648 915.404 173.26 915.746 174.214H917.96C917.402 172.126 915.818 170.92 913.388 170.92C910.544 170.92 908.528 172.936 908.528 176.032ZM919.321 176.032C919.321 179.146 921.337 181.162 924.181 181.162C926.611 181.162 928.195 179.812 928.753 177.868H926.539C926.161 178.894 925.405 179.434 924.181 179.434C922.525 179.434 921.427 178.21 921.427 176.032C921.427 173.872 922.525 172.648 924.181 172.648C925.405 172.648 926.197 173.26 926.539 174.214H928.753C928.195 172.126 926.611 170.92 924.181 170.92C921.337 170.92 919.321 172.936 919.321 176.032ZM940.248 176.032C940.248 172.918 938.016 170.92 935.19 170.92C932.364 170.92 930.132 172.918 930.132 176.032C930.132 179.146 932.274 181.162 935.1 181.162C937.944 181.162 940.248 179.146 940.248 176.032ZM932.22 176.032C932.22 173.782 933.606 172.702 935.154 172.702C936.684 172.702 938.142 173.782 938.142 176.032C938.142 178.282 936.63 179.38 935.1 179.38C933.552 179.38 932.22 178.282 932.22 176.032ZM951.259 171.082H949.207V176.608C949.207 178.426 948.217 179.362 946.705 179.362C945.211 179.362 944.221 178.426 944.221 176.608V171.082H942.187V176.914C942.187 179.686 943.951 181.144 946.273 181.144C947.443 181.144 948.559 180.658 949.207 179.812V181H951.259V171.082ZM961.004 181H963.038V175.15C963.038 172.378 961.292 170.92 958.97 170.92C957.782 170.92 956.684 171.406 956.018 172.216V171.082H953.966V181H956.018V175.456C956.018 173.638 957.008 172.702 958.52 172.702C960.014 172.702 961.004 173.638 961.004 175.456V181ZM965.98 178.246C965.98 180.262 967.078 181 968.842 181H970.462V179.29H969.202C968.338 179.29 968.05 178.984 968.05 178.246V172.756H970.462V171.082H968.05V168.616H965.98V171.082H964.81V172.756H965.98V178.246ZM972.353 181H974.405V171.082H972.353V181ZM973.397 169.768C974.117 169.768 974.693 169.192 974.693 168.454C974.693 167.716 974.117 167.14 973.397 167.14C972.659 167.14 972.083 167.716 972.083 168.454C972.083 169.192 972.659 169.768 973.397 169.768ZM984.137 181H986.171V175.15C986.171 172.378 984.425 170.92 982.103 170.92C980.915 170.92 979.817 171.406 979.151 172.216V171.082H977.099V181H979.151V175.456C979.151 173.638 980.141 172.702 981.653 172.702C983.147 172.702 984.137 173.638 984.137 175.456V181ZM988.104 175.996C988.104 179.056 990.174 181.162 992.784 181.162C994.404 181.162 995.592 180.352 996.222 179.506V181.162C996.222 183.142 995.034 184.114 993.45 184.114C992.028 184.114 990.93 183.412 990.624 182.386H988.59C988.842 184.582 990.804 185.896 993.45 185.896C996.546 185.896 998.292 183.862 998.292 181.162V171.082H996.222V172.522C995.61 171.676 994.404 170.92 992.784 170.92C990.174 170.92 988.104 172.936 988.104 175.996ZM996.222 176.032C996.222 178.174 994.764 179.38 993.216 179.38C991.686 179.38 990.21 178.138 990.21 175.996C990.21 173.854 991.686 172.702 993.216 172.702C994.764 172.702 996.222 173.908 996.222 176.032ZM1013.62 171.28C1013.75 169.57 1012.58 168.202 1010.4 168.202C1008.26 168.202 1006.92 169.444 1006.92 171.082C1006.92 171.964 1007.18 172.63 1007.88 173.476C1005.9 174.286 1004.94 175.708 1004.94 177.4C1004.94 179.74 1006.74 181.234 1009.44 181.234C1011.19 181.234 1012.58 180.658 1013.78 179.452L1015.33 181H1018.01L1014.97 177.976C1015.11 177.742 1015.28 177.49 1015.42 177.238L1017.04 174.466H1014.83L1013.55 176.572L1010.24 173.278C1009.35 172.324 1008.98 171.766 1008.98 171.082C1008.98 170.416 1009.5 169.876 1010.31 169.876C1011.08 169.876 1011.6 170.362 1011.57 171.28H1013.62ZM1009.44 179.488C1007.97 179.488 1007 178.534 1007 177.328C1007 176.212 1007.66 175.348 1009.12 174.772L1012.43 178.102C1011.57 179.02 1010.61 179.488 1009.44 179.488ZM1023.38 170.164H1026.73V181H1028.78V170.164H1032.11V168.49H1023.38V170.164ZM1033.51 175.996C1033.51 179.056 1035.58 181.162 1038.15 181.162C1039.81 181.162 1041 180.37 1041.63 179.524V181H1043.7V171.082H1041.63V172.522C1041.01 171.712 1039.86 170.92 1038.19 170.92C1035.58 170.92 1033.51 172.936 1033.51 175.996ZM1041.63 176.032C1041.63 178.174 1040.17 179.38 1038.62 179.38C1037.09 179.38 1035.61 178.138 1035.61 175.996C1035.61 173.854 1037.09 172.702 1038.62 172.702C1040.17 172.702 1041.63 173.908 1041.63 176.032ZM1051.52 181H1053.84L1050.64 175.978L1053.84 171.082H1051.7L1049.69 174.448L1047.54 171.082H1045.22L1048.43 176.122L1045.22 181H1047.36L1049.38 177.634L1051.52 181ZM1054.69 175.996C1054.69 179.056 1056.76 181.162 1059.33 181.162C1060.99 181.162 1062.18 180.37 1062.81 179.524V181H1064.88V171.082H1062.81V172.522C1062.2 171.712 1061.04 170.92 1059.37 170.92C1056.76 170.92 1054.69 172.936 1054.69 175.996ZM1062.81 176.032C1062.81 178.174 1061.35 179.38 1059.8 179.38C1058.27 179.38 1056.8 178.138 1056.8 175.996C1056.8 173.854 1058.27 172.702 1059.8 172.702C1061.35 172.702 1062.81 173.908 1062.81 176.032ZM1067.9 178.246C1067.9 180.262 1069 181 1070.76 181H1072.38V179.29H1071.12C1070.26 179.29 1069.97 178.984 1069.97 178.246V172.756H1072.38V171.082H1069.97V168.616H1067.9V171.082H1066.73V172.756H1067.9V178.246ZM1074.27 181H1076.32V171.082H1074.27V181ZM1075.31 169.768C1076.03 169.768 1076.61 169.192 1076.61 168.454C1076.61 167.716 1076.03 167.14 1075.31 167.14C1074.58 167.14 1074 167.716 1074 168.454C1074 169.192 1074.58 169.768 1075.31 169.768ZM1088.47 176.032C1088.47 172.918 1086.23 170.92 1083.41 170.92C1080.58 170.92 1078.35 172.918 1078.35 176.032C1078.35 179.146 1080.49 181.162 1083.32 181.162C1086.16 181.162 1088.47 179.146 1088.47 176.032ZM1080.44 176.032C1080.44 173.782 1081.82 172.702 1083.37 172.702C1084.9 172.702 1086.36 173.782 1086.36 176.032C1086.36 178.282 1084.85 179.38 1083.32 179.38C1081.77 179.38 1080.44 178.282 1080.44 176.032ZM1097.53 181H1099.57V175.15C1099.57 172.378 1097.82 170.92 1095.5 170.92C1094.31 170.92 1093.21 171.406 1092.55 172.216V171.082H1090.5V181H1092.55V175.456C1092.55 173.638 1093.54 172.702 1095.05 172.702C1096.54 172.702 1097.53 173.638 1097.53 175.456V181ZM1106.86 181H1108.91V172.432L1112.75 181H1114.17L1117.98 172.432V181H1120.04V168.49H1117.84L1113.47 178.3L1109.07 168.49H1106.86V181ZM1122.05 175.996C1122.05 179.056 1124.12 181.162 1126.69 181.162C1128.35 181.162 1129.54 180.37 1130.17 179.524V181H1132.24V171.082H1130.17V172.522C1129.56 171.712 1128.4 170.92 1126.73 170.92C1124.12 170.92 1122.05 172.936 1122.05 175.996ZM1130.17 176.032C1130.17 178.174 1128.71 179.38 1127.16 179.38C1125.63 179.38 1124.16 178.138 1124.16 175.996C1124.16 173.854 1125.63 172.702 1127.16 172.702C1128.71 172.702 1130.17 173.908 1130.17 176.032ZM1141.97 181H1144.01V175.15C1144.01 172.378 1142.26 170.92 1139.94 170.92C1138.75 170.92 1137.65 171.406 1136.99 172.216V171.082H1134.93V181H1136.99V175.456C1136.99 173.638 1137.98 172.702 1139.49 172.702C1140.98 172.702 1141.97 173.638 1141.97 175.456V181ZM1145.94 175.996C1145.94 179.056 1148.01 181.162 1150.58 181.162C1152.24 181.162 1153.43 180.37 1154.06 179.524V181H1156.13V171.082H1154.06V172.522C1153.44 171.712 1152.29 170.92 1150.62 170.92C1148.01 170.92 1145.94 172.936 1145.94 175.996ZM1154.06 176.032C1154.06 178.174 1152.6 179.38 1151.05 179.38C1149.52 179.38 1148.04 178.138 1148.04 175.996C1148.04 173.854 1149.52 172.702 1151.05 172.702C1152.6 172.702 1154.06 173.908 1154.06 176.032ZM1158.14 175.996C1158.14 179.056 1160.21 181.162 1162.82 181.162C1164.44 181.162 1165.63 180.352 1166.26 179.506V181.162C1166.26 183.142 1165.07 184.114 1163.48 184.114C1162.06 184.114 1160.96 183.412 1160.66 182.386H1158.62C1158.88 184.582 1160.84 185.896 1163.48 185.896C1166.58 185.896 1168.33 183.862 1168.33 181.162V171.082H1166.26V172.522C1165.64 171.676 1164.44 170.92 1162.82 170.92C1160.21 170.92 1158.14 172.936 1158.14 175.996ZM1166.26 176.032C1166.26 178.174 1164.8 179.38 1163.25 179.38C1161.72 179.38 1160.24 178.138 1160.24 175.996C1160.24 173.854 1161.72 172.702 1163.25 172.702C1164.8 172.702 1166.26 173.908 1166.26 176.032ZM1175.2 172.648C1176.73 172.648 1177.93 173.62 1177.97 175.15H1172.48C1172.69 173.584 1173.81 172.648 1175.2 172.648ZM1179.84 178.048H1177.63C1177.25 178.822 1176.55 179.434 1175.29 179.434C1173.77 179.434 1172.6 178.444 1172.46 176.806H1180.04C1180.09 176.464 1180.11 176.14 1180.11 175.798C1180.11 172.882 1178.11 170.92 1175.29 170.92C1172.35 170.92 1170.34 172.918 1170.34 176.032C1170.34 179.146 1172.44 181.162 1175.29 181.162C1177.72 181.162 1179.28 179.776 1179.84 178.048ZM1184.18 175.78C1184.18 173.674 1185.12 173.044 1186.63 173.044H1187.15V170.92C1185.75 170.92 1184.76 171.532 1184.18 172.522V171.082H1182.13V181H1184.18V175.78Z" fill="#212832"/>
<path d="M1224 76H1222V123H1224V76Z" fill="#E74C3C" stroke="#E74C3C" stroke-width="0.936604"/>
<path d="M1224 151H1222V198H1224V151Z" fill="#ADADAD" stroke="#ADADAD" stroke-width="0.936604"/>
<circle cx="856.415" cy="99.8506" r="23.4151" fill="#E74C3C" stroke="#E74C3C"/>
<circle cx="856.415" cy="174.851" r="23.4151" fill="#ADADAD" stroke="#ADADAD"/>
<path d="M845.533 99.6055C845.533 103.577 846.582 106.574 850.403 106.574C854.224 106.574 855.273 103.577 855.273 99.6055C855.273 95.7093 854.224 92.7121 850.403 92.7121C846.582 92.7121 845.533 95.7093 845.533 99.6055ZM853.175 99.6055C853.175 102.284 852.894 104.626 850.403 104.626C847.912 104.626 847.631 102.284 847.631 99.6055C847.631 97.058 847.912 94.6603 850.403 94.6603C852.894 94.6603 853.175 97.058 853.175 99.6055ZM866.843 96.1214C866.618 94.3044 865.288 92.6185 862.628 92.6185C859.219 92.6185 857.795 95.2035 857.795 99.4744C857.795 103.82 858.825 106.611 862.797 106.611C865.719 106.611 867.273 104.644 867.273 102.059C867.273 99.2122 865.531 97.5637 863.078 97.5637C861.654 97.5637 860.305 98.1632 859.631 99.2871C859.687 95.7093 860.68 94.398 862.609 94.398C863.958 94.398 864.614 95.0162 864.876 96.1214H866.843ZM862.609 99.362C864.407 99.362 865.232 100.523 865.232 102.153C865.232 103.764 864.258 104.832 862.684 104.832C860.867 104.832 859.874 103.708 859.874 102.022C859.874 100.205 861.204 99.362 862.609 99.362Z" fill="#212832"/>
<path d="M845.597 174.606C845.597 178.577 846.646 181.574 850.467 181.574C854.288 181.574 855.337 178.577 855.337 174.606C855.337 170.709 854.288 167.712 850.467 167.712C846.646 167.712 845.597 170.709 845.597 174.606ZM853.239 174.606C853.239 177.284 852.958 179.626 850.467 179.626C847.976 179.626 847.695 177.284 847.695 174.606C847.695 172.058 847.976 169.66 850.467 169.66C852.958 169.66 853.239 172.058 853.239 174.606ZM858.29 177.902C858.459 179.851 859.77 181.593 862.598 181.593C866.176 181.593 867.15 179.139 867.15 174.531C867.15 170.054 865.97 167.637 862.448 167.637C859.582 167.637 857.915 169.435 857.915 172.152C857.915 175.036 859.863 176.516 862.261 176.516C863.497 176.516 864.678 176.048 865.296 175.186C865.296 178.67 864.434 179.813 862.729 179.813C861.306 179.813 860.5 179.12 860.257 177.902H858.29ZM862.636 174.718C860.744 174.718 859.957 173.5 859.957 172.095C859.957 170.522 860.912 169.417 862.505 169.417C864.059 169.417 865.052 170.41 865.052 172.152C865.052 173.688 864.153 174.718 862.636 174.718Z" fill="#212832"/>
<g filter="url(#filter7_d_953_321)">
<rect x="437" y="1" width="365" height="47" fill="white" shape-rendering="crispEdges"/>
<rect x="436.766" y="0.765849" width="365.468" height="47.4683" stroke="black" stroke-opacity="0.2" stroke-width="0.468302" shape-rendering="crispEdges"/>
</g>
<path d="M802 1H800V48H802V1Z" fill="#A9CF54" stroke="#A9CF54" stroke-width="0.936604"/>
<path d="M525.736 19.164H529.084V30H531.136V19.164H534.466V17.49H525.736V19.164ZM538.596 24.78C538.596 22.674 539.532 22.044 541.044 22.044H541.566V19.92C540.162 19.92 539.172 20.532 538.596 21.522V20.082H536.544V30H538.596V24.78ZM542.769 24.996C542.769 28.056 544.839 30.162 547.413 30.162C549.069 30.162 550.257 29.37 550.887 28.524V30H552.957V20.082H550.887V21.522C550.275 20.712 549.123 19.92 547.449 19.92C544.839 19.92 542.769 21.936 542.769 24.996ZM550.887 25.032C550.887 27.174 549.429 28.38 547.881 28.38C546.351 28.38 544.875 27.138 544.875 24.996C544.875 22.854 546.351 21.702 547.881 21.702C549.429 21.702 550.887 22.908 550.887 25.032ZM555.652 30H557.704V20.082H555.652V30ZM556.696 18.768C557.416 18.768 557.992 18.192 557.992 17.454C557.992 16.716 557.416 16.14 556.696 16.14C555.958 16.14 555.382 16.716 555.382 17.454C555.382 18.192 555.958 18.768 556.696 18.768ZM567.436 30H569.47V24.15C569.47 21.378 567.724 19.92 565.402 19.92C564.214 19.92 563.116 20.406 562.45 21.216V20.082H560.398V30H562.45V24.456C562.45 22.638 563.44 21.702 564.952 21.702C566.446 21.702 567.436 22.638 567.436 24.456V30ZM572.087 30H574.139V20.082H572.087V30ZM573.131 18.768C573.851 18.768 574.427 18.192 574.427 17.454C574.427 16.716 573.851 16.14 573.131 16.14C572.393 16.14 571.817 16.716 571.817 17.454C571.817 18.192 572.393 18.768 573.131 18.768ZM583.871 30H585.905V24.15C585.905 21.378 584.159 19.92 581.837 19.92C580.649 19.92 579.551 20.406 578.885 21.216V20.082H576.833V30H578.885V24.456C578.885 22.638 579.875 21.702 581.387 21.702C582.881 21.702 583.871 22.638 583.871 24.456V30ZM587.839 24.996C587.839 28.056 589.909 30.162 592.519 30.162C594.139 30.162 595.327 29.352 595.957 28.506V30.162C595.957 32.142 594.769 33.114 593.185 33.114C591.763 33.114 590.665 32.412 590.359 31.386H588.325C588.577 33.582 590.539 34.896 593.185 34.896C596.281 34.896 598.027 32.862 598.027 30.162V20.082H595.957V21.522C595.345 20.676 594.139 19.92 592.519 19.92C589.909 19.92 587.839 21.936 587.839 24.996ZM595.957 25.032C595.957 27.174 594.499 28.38 592.951 28.38C591.421 28.38 589.945 27.138 589.945 24.996C589.945 22.854 591.421 21.702 592.951 21.702C594.499 21.702 595.957 22.908 595.957 25.032ZM613.336 30H615.388V17.49H613.336V22.854H607.45V17.49H605.398V30H607.45V24.528H613.336V30ZM624.731 21.234C624.731 22.476 624.011 23.358 622.409 23.358H620.141V19.164H622.409C624.011 19.164 624.731 19.974 624.731 21.234ZM618.089 17.49V30H620.141V24.996H621.707L624.587 30H627.035L623.939 24.816C626.045 24.294 626.837 22.71 626.837 21.234C626.837 19.2 625.379 17.49 622.409 17.49H618.089ZM634.138 30H636.19V21.432L640.024 30H641.446L645.262 21.432V30H647.314V17.49H645.118L640.744 27.3L636.352 17.49H634.138V30ZM649.327 24.996C649.327 28.056 651.397 30.162 653.971 30.162C655.627 30.162 656.815 29.37 657.445 28.524V30H659.515V20.082H657.445V21.522C656.833 20.712 655.681 19.92 654.007 19.92C651.397 19.92 649.327 21.936 649.327 24.996ZM657.445 25.032C657.445 27.174 655.987 28.38 654.439 28.38C652.909 28.38 651.433 27.138 651.433 24.996C651.433 22.854 652.909 21.702 654.439 21.702C655.987 21.702 657.445 22.908 657.445 25.032ZM669.248 30H671.282V24.15C671.282 21.378 669.536 19.92 667.214 19.92C666.026 19.92 664.928 20.406 664.262 21.216V20.082H662.21V30H664.262V24.456C664.262 22.638 665.252 21.702 666.764 21.702C668.258 21.702 669.248 22.638 669.248 24.456V30ZM673.216 24.996C673.216 28.056 675.286 30.162 677.86 30.162C679.516 30.162 680.704 29.37 681.334 28.524V30H683.404V20.082H681.334V21.522C680.722 20.712 679.57 19.92 677.896 19.92C675.286 19.92 673.216 21.936 673.216 24.996ZM681.334 25.032C681.334 27.174 679.876 28.38 678.328 28.38C676.798 28.38 675.322 27.138 675.322 24.996C675.322 22.854 676.798 21.702 678.328 21.702C679.876 21.702 681.334 22.908 681.334 25.032ZM685.415 24.996C685.415 28.056 687.485 30.162 690.095 30.162C691.715 30.162 692.903 29.352 693.533 28.506V30.162C693.533 32.142 692.345 33.114 690.761 33.114C689.339 33.114 688.241 32.412 687.935 31.386H685.901C686.153 33.582 688.115 34.896 690.761 34.896C693.857 34.896 695.603 32.862 695.603 30.162V20.082H693.533V21.522C692.921 20.676 691.715 19.92 690.095 19.92C687.485 19.92 685.415 21.936 685.415 24.996ZM693.533 25.032C693.533 27.174 692.075 28.38 690.527 28.38C688.997 28.38 687.521 27.138 687.521 24.996C687.521 22.854 688.997 21.702 690.527 21.702C692.075 21.702 693.533 22.908 693.533 25.032ZM702.474 21.648C704.004 21.648 705.21 22.62 705.246 24.15H699.756C699.972 22.584 701.088 21.648 702.474 21.648ZM707.118 27.048H704.904C704.526 27.822 703.824 28.434 702.564 28.434C701.052 28.434 699.882 27.444 699.738 25.806H707.316C707.37 25.464 707.388 25.14 707.388 24.798C707.388 21.882 705.39 19.92 702.564 19.92C699.63 19.92 697.614 21.918 697.614 25.032C697.614 28.146 699.72 30.162 702.564 30.162C704.994 30.162 706.56 28.776 707.118 27.048ZM711.46 24.78C711.46 22.674 712.396 22.044 713.908 22.044H714.43V19.92C713.026 19.92 712.036 20.532 711.46 21.522V20.082H709.408V30H711.46V24.78Z" fill="#212832"/>
<circle cx="436.415" cy="24.4151" r="23.4151" fill="#A9CF54" stroke="#A9CF54"/>
<path d="M426.136 24.17C426.136 28.1412 427.185 31.1383 431.007 31.1383C434.828 31.1383 435.877 28.1412 435.877 24.17C435.877 20.2737 434.828 17.2766 431.007 17.2766C427.185 17.2766 426.136 20.2737 426.136 24.17ZM433.779 24.17C433.779 26.8487 433.498 29.1902 431.007 29.1902C428.515 29.1902 428.234 26.8487 428.234 24.17C428.234 21.6224 428.515 19.2247 431.007 19.2247C433.498 19.2247 433.779 21.6224 433.779 24.17ZM437.968 30.9885H447.072V29.2089H441.134C443.325 27.2046 446.697 24.6758 446.697 21.3602C446.697 18.9063 445.124 17.2391 442.351 17.2391C439.935 17.2391 438.024 18.6815 437.949 21.6412H440.01C440.066 20.1051 440.871 19.0561 442.37 19.0561C443.962 19.0561 444.58 20.0302 444.58 21.4538C444.58 24.1325 441.19 26.6052 437.968 29.4337V30.9885Z" fill="#212832"/>
<g filter="url(#filter8_d_953_321)">
<rect x="860" y="1" width="365" height="47" fill="white" shape-rendering="crispEdges"/>
<rect x="859.766" y="0.765849" width="365.468" height="47.4683" stroke="black" stroke-opacity="0.2" stroke-width="0.468302" shape-rendering="crispEdges"/>
</g>
<path d="M1225 1H1223V48H1225V1Z" fill="#3498DB" stroke="#3498DB" stroke-width="0.936604"/>
<path d="M966.489 30H968.541V24.528H972.681V22.854H968.541V19.164H973.851V17.49H966.489V30ZM975.752 30H977.804V20.082H975.752V30ZM976.796 18.768C977.516 18.768 978.092 18.192 978.092 17.454C978.092 16.716 977.516 16.14 976.796 16.14C976.058 16.14 975.482 16.716 975.482 17.454C975.482 18.192 976.058 18.768 976.796 18.768ZM987.536 30H989.57V24.15C989.57 21.378 987.824 19.92 985.502 19.92C984.314 19.92 983.216 20.406 982.55 21.216V20.082H980.498V30H982.55V24.456C982.55 22.638 983.54 21.702 985.052 21.702C986.546 21.702 987.536 22.638 987.536 24.456V30ZM991.504 24.996C991.504 28.056 993.574 30.162 996.148 30.162C997.804 30.162 998.992 29.37 999.622 28.524V30H1001.69V20.082H999.622V21.522C999.01 20.712 997.858 19.92 996.184 19.92C993.574 19.92 991.504 21.936 991.504 24.996ZM999.622 25.032C999.622 27.174 998.164 28.38 996.616 28.38C995.086 28.38 993.61 27.138 993.61 24.996C993.61 22.854 995.086 21.702 996.616 21.702C998.164 21.702 999.622 22.908 999.622 25.032ZM1011.43 30H1013.46V24.15C1013.46 21.378 1011.71 19.92 1009.39 19.92C1008.2 19.92 1007.11 20.406 1006.44 21.216V20.082H1004.39V30H1006.44V24.456C1006.44 22.638 1007.43 21.702 1008.94 21.702C1010.44 21.702 1011.43 22.638 1011.43 24.456V30ZM1015.39 25.032C1015.39 28.146 1017.41 30.162 1020.25 30.162C1022.68 30.162 1024.27 28.812 1024.82 26.868H1022.61C1022.23 27.894 1021.48 28.434 1020.25 28.434C1018.6 28.434 1017.5 27.21 1017.5 25.032C1017.5 22.872 1018.6 21.648 1020.25 21.648C1021.48 21.648 1022.27 22.26 1022.61 23.214H1024.82C1024.27 21.126 1022.68 19.92 1020.25 19.92C1017.41 19.92 1015.39 21.936 1015.39 25.032ZM1026.87 30H1028.92V20.082H1026.87V30ZM1027.91 18.768C1028.63 18.768 1029.21 18.192 1029.21 17.454C1029.21 16.716 1028.63 16.14 1027.91 16.14C1027.18 16.14 1026.6 16.716 1026.6 17.454C1026.6 18.192 1027.18 18.768 1027.91 18.768ZM1030.93 24.996C1030.93 28.056 1033 30.162 1035.58 30.162C1037.23 30.162 1038.42 29.37 1039.05 28.524V30H1041.12V20.082H1039.05V21.522C1038.44 20.712 1037.29 19.92 1035.61 19.92C1033 19.92 1030.93 21.936 1030.93 24.996ZM1039.05 25.032C1039.05 27.174 1037.59 28.38 1036.04 28.38C1034.51 28.38 1033.04 27.138 1033.04 24.996C1033.04 22.854 1034.51 21.702 1036.04 21.702C1037.59 21.702 1039.05 22.908 1039.05 25.032ZM1043.81 30H1045.87V16.68H1043.81V30ZM1061.68 30H1063.84L1059.36 17.472H1056.98L1052.5 30H1054.64L1055.54 27.444H1060.78L1061.68 30ZM1060.2 25.77H1056.12L1058.17 19.956L1060.2 25.77ZM1072.83 30H1074.86V24.15C1074.86 21.378 1073.11 19.92 1070.79 19.92C1069.6 19.92 1068.51 20.406 1067.84 21.216V20.082H1065.79V30H1067.84V24.456C1067.84 22.638 1068.83 21.702 1070.34 21.702C1071.84 21.702 1072.83 22.638 1072.83 24.456V30ZM1076.79 24.996C1076.79 28.056 1078.86 30.162 1081.44 30.162C1083.09 30.162 1084.28 29.37 1084.91 28.524V30H1086.98V20.082H1084.91V21.522C1084.3 20.712 1083.15 19.92 1081.47 19.92C1078.86 19.92 1076.79 21.936 1076.79 24.996ZM1084.91 25.032C1084.91 27.174 1083.45 28.38 1081.9 28.38C1080.37 28.38 1078.9 27.138 1078.9 24.996C1078.9 22.854 1080.37 21.702 1081.9 21.702C1083.45 21.702 1084.91 22.908 1084.91 25.032ZM1089.68 30H1091.73V16.68H1089.68V30ZM1098.33 27.642L1095.54 20.082H1093.25L1097.16 29.838L1095.14 34.662H1097.27L1103.35 20.082H1101.23L1098.33 27.642ZM1112.3 27.228C1112.19 23.646 1106.59 24.762 1106.59 22.764C1106.59 22.098 1107.17 21.648 1108.26 21.648C1109.38 21.648 1110.05 22.242 1110.12 23.106H1112.17C1112.06 21.126 1110.59 19.92 1108.34 19.92C1106 19.92 1104.52 21.198 1104.52 22.782C1104.52 26.418 1110.28 25.302 1110.28 27.246C1110.28 27.93 1109.65 28.434 1108.46 28.434C1107.33 28.434 1106.55 27.768 1106.48 26.958H1104.36C1104.45 28.758 1106.12 30.162 1108.5 30.162C1110.84 30.162 1112.3 28.902 1112.3 27.228ZM1114.84 27.246C1114.84 29.262 1115.94 30 1117.7 30H1119.32V28.29H1118.06C1117.2 28.29 1116.91 27.984 1116.91 27.246V21.756H1119.32V20.082H1116.91V17.616H1114.84V20.082H1113.67V21.756H1114.84V27.246Z" fill="#212832"/>
<circle cx="856.415" cy="24.415" r="23.415" fill="#3498DB" stroke="#3498DB"/>
<path d="M845.548 24.9942C845.548 28.9654 846.597 31.9625 850.418 31.9625C854.24 31.9625 855.289 28.9654 855.289 24.9942C855.289 21.0979 854.24 18.1008 850.418 18.1008C846.597 18.1008 845.548 21.0979 845.548 24.9942ZM853.191 24.9942C853.191 27.6729 852.91 30.0144 850.418 30.0144C847.927 30.0144 847.646 27.6729 847.646 24.9942C847.646 22.4466 847.927 20.0489 850.418 20.0489C852.91 20.0489 853.191 22.4466 853.191 24.9942ZM857.511 21.7161H859.59C859.721 20.7608 860.414 19.8616 861.913 19.8616C863.374 19.8616 864.142 20.6484 864.142 21.8285C864.142 23.2896 862.962 23.8515 861.032 23.8703H860.527V25.6311H861.014C863.243 25.6311 864.404 26.2493 864.404 28.0475C864.404 29.3213 863.617 30.2954 862.025 30.2954C860.414 30.2954 859.478 29.3213 859.384 28.0475H857.323C857.454 30.7262 859.459 32.0749 862.044 32.0749C864.891 32.0749 866.427 30.4265 866.427 28.2536C866.427 26.3616 865.509 25.1815 864.086 24.7507V24.6758C865.153 24.3198 866.184 23.2147 866.184 21.585C866.184 19.5994 864.704 18.0259 861.988 18.0259C859.496 18.0259 857.661 19.3558 857.511 21.7161Z" fill="#212832"/>
<g filter="url(#filter9_d_953_321)">
<rect x="30" y="227" width="359" height="47" fill="white" shape-rendering="crispEdges"/>
<rect x="29.7658" y="226.766" width="359.468" height="47.4683" stroke="black" stroke-opacity="0.2" stroke-width="0.468302" shape-rendering="crispEdges"/>
</g>
<path d="M389 227H387V274H389V227Z" fill="#6BD8B1" stroke="#6BD8B1" stroke-width="0.936604"/>
<path d="M135.868 249.25V245.164H138.136C139.738 245.164 140.458 245.92 140.458 247.216C140.458 248.476 139.738 249.25 138.136 249.25H135.868ZM142.564 247.216C142.564 245.182 141.106 243.49 138.136 243.49H133.816V256H135.868V250.924H138.136C141.394 250.924 142.564 248.998 142.564 247.216ZM153.971 251.032C153.971 247.918 151.739 245.92 148.913 245.92C146.087 245.92 143.855 247.918 143.855 251.032C143.855 254.146 145.997 256.162 148.823 256.162C151.667 256.162 153.971 254.146 153.971 251.032ZM145.943 251.032C145.943 248.782 147.329 247.702 148.877 247.702C150.407 247.702 151.865 248.782 151.865 251.032C151.865 253.282 150.353 254.38 148.823 254.38C147.275 254.38 145.943 253.282 145.943 251.032ZM158.051 250.78C158.051 248.674 158.987 248.044 160.499 248.044H161.021V245.92C159.617 245.92 158.627 246.532 158.051 247.522V246.082H155.999V256H158.051V250.78ZM163.232 253.246C163.232 255.262 164.33 256 166.094 256H167.714V254.29H166.454C165.59 254.29 165.302 253.984 165.302 253.246V247.756H167.714V246.082H165.302V243.616H163.232V246.082H162.062V247.756H163.232V253.246ZM169.857 256H171.927V247.756H173.763V246.082H171.927V245.38C171.927 244.246 172.359 243.814 173.619 243.814V242.104C171.027 242.104 169.857 243.094 169.857 245.38V246.082H168.687V247.756H169.857V256ZM185.031 251.032C185.031 247.918 182.799 245.92 179.973 245.92C177.147 245.92 174.915 247.918 174.915 251.032C174.915 254.146 177.057 256.162 179.883 256.162C182.727 256.162 185.031 254.146 185.031 251.032ZM177.003 251.032C177.003 248.782 178.389 247.702 179.937 247.702C181.467 247.702 182.925 248.782 182.925 251.032C182.925 253.282 181.413 254.38 179.883 254.38C178.335 254.38 177.003 253.282 177.003 251.032ZM187.06 256H189.112V242.68H187.06V256ZM191.806 256H193.858V246.082H191.806V256ZM192.85 244.768C193.57 244.768 194.146 244.192 194.146 243.454C194.146 242.716 193.57 242.14 192.85 242.14C192.112 242.14 191.536 242.716 191.536 243.454C191.536 244.192 192.112 244.768 192.85 244.768ZM206.002 251.032C206.002 247.918 203.77 245.92 200.944 245.92C198.118 245.92 195.886 247.918 195.886 251.032C195.886 254.146 198.028 256.162 200.854 256.162C203.698 256.162 206.002 254.146 206.002 251.032ZM197.974 251.032C197.974 248.782 199.36 247.702 200.908 247.702C202.438 247.702 203.896 248.782 203.896 251.032C203.896 253.282 202.384 254.38 200.854 254.38C199.306 254.38 197.974 253.282 197.974 251.032ZM212.706 256H214.758V247.432L218.592 256H220.014L223.83 247.432V256H225.882V243.49H223.686L219.312 253.3L214.92 243.49H212.706V256ZM227.895 250.996C227.895 254.056 229.965 256.162 232.539 256.162C234.195 256.162 235.383 255.37 236.013 254.524V256H238.083V246.082H236.013V247.522C235.401 246.712 234.249 245.92 232.575 245.92C229.965 245.92 227.895 247.936 227.895 250.996ZM236.013 251.032C236.013 253.174 234.555 254.38 233.007 254.38C231.477 254.38 230.001 253.138 230.001 250.996C230.001 248.854 231.477 247.702 233.007 247.702C234.555 247.702 236.013 248.908 236.013 251.032ZM247.817 256H249.851V250.15C249.851 247.378 248.105 245.92 245.783 245.92C244.595 245.92 243.497 246.406 242.831 247.216V246.082H240.779V256H242.831V250.456C242.831 248.638 243.821 247.702 245.333 247.702C246.827 247.702 247.817 248.638 247.817 250.456V256ZM251.784 250.996C251.784 254.056 253.854 256.162 256.428 256.162C258.084 256.162 259.272 255.37 259.902 254.524V256H261.972V246.082H259.902V247.522C259.29 246.712 258.138 245.92 256.464 245.92C253.854 245.92 251.784 247.936 251.784 250.996ZM259.902 251.032C259.902 253.174 258.444 254.38 256.896 254.38C255.366 254.38 253.89 253.138 253.89 250.996C253.89 248.854 255.366 247.702 256.896 247.702C258.444 247.702 259.902 248.908 259.902 251.032ZM263.983 250.996C263.983 254.056 266.053 256.162 268.663 256.162C270.283 256.162 271.471 255.352 272.101 254.506V256.162C272.101 258.142 270.913 259.114 269.329 259.114C267.907 259.114 266.809 258.412 266.503 257.386H264.469C264.721 259.582 266.683 260.896 269.329 260.896C272.425 260.896 274.171 258.862 274.171 256.162V246.082H272.101V247.522C271.489 246.676 270.283 245.92 268.663 245.92C266.053 245.92 263.983 247.936 263.983 250.996ZM272.101 251.032C272.101 253.174 270.643 254.38 269.095 254.38C267.565 254.38 266.089 253.138 266.089 250.996C266.089 248.854 267.565 247.702 269.095 247.702C270.643 247.702 272.101 248.908 272.101 251.032ZM281.043 247.648C282.573 247.648 283.779 248.62 283.815 250.15H278.325C278.541 248.584 279.657 247.648 281.043 247.648ZM285.687 253.048H283.473C283.095 253.822 282.393 254.434 281.133 254.434C279.621 254.434 278.451 253.444 278.307 251.806H285.885C285.939 251.464 285.957 251.14 285.957 250.798C285.957 247.882 283.959 245.92 281.133 245.92C278.199 245.92 276.183 247.918 276.183 251.032C276.183 254.146 278.289 256.162 281.133 256.162C283.563 256.162 285.129 254.776 285.687 253.048ZM290.028 250.78C290.028 248.674 290.964 248.044 292.476 248.044H292.998V245.92C291.594 245.92 290.604 246.532 290.028 247.522V246.082H287.976V256H290.028V250.78Z" fill="#212832"/>
<circle cx="30.415" cy="250.415" r="23.415" fill="#6BD8B1" stroke="#6BD8B1"/>
<path d="M23.7487 258H25.9029V244.344H22.0067V246.292H23.7487V258ZM28.8366 250.994C28.8366 254.965 29.8855 257.963 33.7069 257.963C37.5282 257.963 38.5772 254.965 38.5772 250.994C38.5772 247.098 37.5282 244.101 33.7069 244.101C29.8855 244.101 28.8366 247.098 28.8366 250.994ZM36.4792 250.994C36.4792 253.673 36.1983 256.014 33.7069 256.014C31.2155 256.014 30.9345 253.673 30.9345 250.994C30.9345 248.447 31.2155 246.049 33.7069 246.049C36.1983 246.049 36.4792 248.447 36.4792 250.994Z" fill="#212832"/>
<defs>
<filter id="filter0_d_953_321" x="23.5312" y="0.531738" width="365.938" height="47.9365" filterUnits="userSpaceOnUse" color-interpolation-filters="sRGB">
<feFlood flood-opacity="0" result="BackgroundImageFix"/>
<feColorMatrix in="SourceAlpha" type="matrix" values="0 0 0 0 0 0 0 0 0 0 0 0 0 0 0 0 0 0 127 0" result="hardAlpha"/>
<feOffset/>
<feComposite in2="hardAlpha" operator="out"/>
<feColorMatrix type="matrix" values="0 0 0 0 0 0 0 0 0 0 0 0 0 0 0 0 0 0 0.1 0"/>
<feBlend mode="normal" in2="BackgroundImageFix" result="effect1_dropShadow_953_321"/>
<feBlend mode="normal" in="SourceGraphic" in2="effect1_dropShadow_953_321" result="shape"/>
</filter>
<filter id="filter1_d_953_321" x="23.5312" y="75.5317" width="365.938" height="47.9365" filterUnits="userSpaceOnUse" color-interpolation-filters="sRGB">
<feFlood flood-opacity="0" result="BackgroundImageFix"/>
<feColorMatrix in="SourceAlpha" type="matrix" values="0 0 0 0 0 0 0 0 0 0 0 0 0 0 0 0 0 0 127 0" result="hardAlpha"/>
<feOffset/>
<feComposite in2="hardAlpha" operator="out"/>
<feColorMatrix type="matrix" values="0 0 0 0 0 0 0 0 0 0 0 0 0 0 0 0 0 0 0.1 0"/>
<feBlend mode="normal" in2="BackgroundImageFix" result="effect1_dropShadow_953_321"/>
<feBlend mode="normal" in="SourceGraphic" in2="effect1_dropShadow_953_321" result="shape"/>
</filter>
<filter id="filter2_d_953_321" x="23.5312" y="150.532" width="365.938" height="47.9365" filterUnits="userSpaceOnUse" color-interpolation-filters="sRGB">
<feFlood flood-opacity="0" result="BackgroundImageFix"/>
<feColorMatrix in="SourceAlpha" type="matrix" values="0 0 0 0 0 0 0 0 0 0 0 0 0 0 0 0 0 0 127 0" result="hardAlpha"/>
<feOffset/>
<feComposite in2="hardAlpha" operator="out"/>
<feColorMatrix type="matrix" values="0 0 0 0 0 0 0 0 0 0 0 0 0 0 0 0 0 0 0.1 0"/>
<feBlend mode="normal" in2="BackgroundImageFix" result="effect1_dropShadow_953_321"/>
<feBlend mode="normal" in="SourceGraphic" in2="effect1_dropShadow_953_321" result="shape"/>
</filter>
<filter id="filter3_d_953_321" x="435.531" y="75.5317" width="365.938" height="47.9365" filterUnits="userSpaceOnUse" color-interpolation-filters="sRGB">
<feFlood flood-opacity="0" result="BackgroundImageFix"/>
<feColorMatrix in="SourceAlpha" type="matrix" values="0 0 0 0 0 0 0 0 0 0 0 0 0 0 0 0 0 0 127 0" result="hardAlpha"/>
<feOffset/>
<feComposite in2="hardAlpha" operator="out"/>
<feColorMatrix type="matrix" values="0 0 0 0 0 0 0 0 0 0 0 0 0 0 0 0 0 0 0.1 0"/>
<feBlend mode="normal" in2="BackgroundImageFix" result="effect1_dropShadow_953_321"/>
<feBlend mode="normal" in="SourceGraphic" in2="effect1_dropShadow_953_321" result="shape"/>
</filter>
<filter id="filter4_d_953_321" x="435.531" y="150.532" width="365.938" height="47.9365" filterUnits="userSpaceOnUse" color-interpolation-filters="sRGB">
<feFlood flood-opacity="0" result="BackgroundImageFix"/>
<feColorMatrix in="SourceAlpha" type="matrix" values="0 0 0 0 0 0 0 0 0 0 0 0 0 0 0 0 0 0 127 0" result="hardAlpha"/>
<feOffset/>
<feComposite in2="hardAlpha" operator="out"/>
<feColorMatrix type="matrix" values="0 0 0 0 0 0 0 0 0 0 0 0 0 0 0 0 0 0 0.1 0"/>
<feBlend mode="normal" in2="BackgroundImageFix" result="effect1_dropShadow_953_321"/>
<feBlend mode="normal" in="SourceGraphic" in2="effect1_dropShadow_953_321" result="shape"/>
</filter>
<filter id="filter5_d_953_321" x="858.531" y="75.5317" width="365.938" height="47.9365" filterUnits="userSpaceOnUse" color-interpolation-filters="sRGB">
<feFlood flood-opacity="0" result="BackgroundImageFix"/>
<feColorMatrix in="SourceAlpha" type="matrix" values="0 0 0 0 0 0 0 0 0 0 0 0 0 0 0 0 0 0 127 0" result="hardAlpha"/>
<feOffset/>
<feComposite in2="hardAlpha" operator="out"/>
<feColorMatrix type="matrix" values="0 0 0 0 0 0 0 0 0 0 0 0 0 0 0 0 0 0 0.1 0"/>
<feBlend mode="normal" in2="BackgroundImageFix" result="effect1_dropShadow_953_321"/>
<feBlend mode="normal" in="SourceGraphic" in2="effect1_dropShadow_953_321" result="shape"/>
</filter>
<filter id="filter6_d_953_321" x="858.531" y="150.532" width="365.938" height="47.9365" filterUnits="userSpaceOnUse" color-interpolation-filters="sRGB">
<feFlood flood-opacity="0" result="BackgroundImageFix"/>
<feColorMatrix in="SourceAlpha" type="matrix" values="0 0 0 0 0 0 0 0 0 0 0 0 0 0 0 0 0 0 127 0" result="hardAlpha"/>
<feOffset/>
<feComposite in2="hardAlpha" operator="out"/>
<feColorMatrix type="matrix" values="0 0 0 0 0 0 0 0 0 0 0 0 0 0 0 0 0 0 0.1 0"/>
<feBlend mode="normal" in2="BackgroundImageFix" result="effect1_dropShadow_953_321"/>
<feBlend mode="normal" in="SourceGraphic" in2="effect1_dropShadow_953_321" result="shape"/>
</filter>
<filter id="filter7_d_953_321" x="436.531" y="0.531738" width="365.938" height="47.9365" filterUnits="userSpaceOnUse" color-interpolation-filters="sRGB">
<feFlood flood-opacity="0" result="BackgroundImageFix"/>
<feColorMatrix in="SourceAlpha" type="matrix" values="0 0 0 0 0 0 0 0 0 0 0 0 0 0 0 0 0 0 127 0" result="hardAlpha"/>
<feOffset/>
<feComposite in2="hardAlpha" operator="out"/>
<feColorMatrix type="matrix" values="0 0 0 0 0 0 0 0 0 0 0 0 0 0 0 0 0 0 0.1 0"/>
<feBlend mode="normal" in2="BackgroundImageFix" result="effect1_dropShadow_953_321"/>
<feBlend mode="normal" in="SourceGraphic" in2="effect1_dropShadow_953_321" result="shape"/>
</filter>
<filter id="filter8_d_953_321" x="859.531" y="0.531738" width="365.938" height="47.9365" filterUnits="userSpaceOnUse" color-interpolation-filters="sRGB">
<feFlood flood-opacity="0" result="BackgroundImageFix"/>
<feColorMatrix in="SourceAlpha" type="matrix" values="0 0 0 0 0 0 0 0 0 0 0 0 0 0 0 0 0 0 127 0" result="hardAlpha"/>
<feOffset/>
<feComposite in2="hardAlpha" operator="out"/>
<feColorMatrix type="matrix" values="0 0 0 0 0 0 0 0 0 0 0 0 0 0 0 0 0 0 0.1 0"/>
<feBlend mode="normal" in2="BackgroundImageFix" result="effect1_dropShadow_953_321"/>
<feBlend mode="normal" in="SourceGraphic" in2="effect1_dropShadow_953_321" result="shape"/>
</filter>
<filter id="filter9_d_953_321" x="29.5312" y="226.532" width="359.938" height="47.9365" filterUnits="userSpaceOnUse" color-interpolation-filters="sRGB">
<feFlood flood-opacity="0" result="BackgroundImageFix"/>
<feColorMatrix in="SourceAlpha" type="matrix" values="0 0 0 0 0 0 0 0 0 0 0 0 0 0 0 0 0 0 127 0" result="hardAlpha"/>
<feOffset/>
<feComposite in2="hardAlpha" operator="out"/>
<feColorMatrix type="matrix" values="0 0 0 0 0 0 0 0 0 0 0 0 0 0 0 0 0 0 0.1 0"/>
<feBlend mode="normal" in2="BackgroundImageFix" result="effect1_dropShadow_953_321"/>
<feBlend mode="normal" in="SourceGraphic" in2="effect1_dropShadow_953_321" result="shape"/>
</filter>
</defs>
</svg>
