<svg width="611" height="344" viewBox="0 0 611 344" fill="none" xmlns="http://www.w3.org/2000/svg">
<path d="M364.283 78.0368C364.574 75.4144 364.741 72.7711 364.741 70.0655C364.741 68.6502 364.699 67.2349 364.616 65.8404L351.441 61.5738C350.63 56.0168 349.048 50.7303 346.779 45.7976L355.521 35.0582C353.502 31.4992 351.192 28.1483 348.611 25.0056L335.436 29.293C331.607 25.3802 327.215 21.9877 322.407 19.2612L323.157 5.42063C319.473 3.7556 315.643 2.38195 311.668 1.3413L303.488 12.5803C300.325 12.0391 297.057 11.7686 293.748 11.7686C291.479 11.7686 289.252 11.8934 287.046 12.1432L279.512 0.508789C275.474 1.32049 271.561 2.48601 267.815 3.96373L267.836 17.8251C262.882 20.281 258.324 23.4446 254.287 27.1493L241.362 22.1542C238.615 25.1513 236.117 28.3981 233.911 31.8322L242.07 43.0295C239.551 47.8373 237.678 53.0405 236.575 58.5351L223.192 62.0941C222.901 64.7166 222.734 67.3598 222.734 70.0655C222.734 71.4807 222.776 72.896 222.859 74.2905L236.034 78.5571C236.846 84.1142 238.427 89.4006 240.696 94.3333L231.954 105.073C233.973 108.632 236.284 111.983 238.864 115.125L252.039 110.838C255.869 114.751 260.26 118.143 265.068 120.87L264.319 134.71C268.002 136.375 271.832 137.749 275.807 138.79L283.945 127.571C287.109 128.113 290.376 128.383 293.686 128.383C295.954 128.383 298.181 128.258 300.387 128.009L307.922 139.643C311.959 138.831 315.872 137.666 319.618 136.188L319.598 122.327C324.551 119.871 329.109 116.707 333.147 113.002L346.072 117.998C348.819 115 351.316 111.754 353.523 108.32L345.364 97.1222C347.882 92.3144 349.755 87.1112 350.859 81.6166L364.283 78.0368ZM293.748 97.9131C278.367 97.9131 265.9 85.4462 265.9 70.0655C265.9 54.6847 278.367 42.2178 293.748 42.2178C309.129 42.2178 321.575 54.6847 321.575 70.0655C321.575 85.4462 309.129 97.9131 293.748 97.9131Z" fill="#9EC8FF"/>
<path d="M331.709 101.826C331.48 101.826 331.23 101.743 331.043 101.576C330.606 101.202 330.543 100.556 330.918 100.119C337.911 91.7109 341.761 81.0339 341.761 70.0655C341.761 64.8206 340.908 59.659 339.201 54.7472C339.014 54.2061 339.305 53.6025 339.847 53.4152C340.388 53.2278 340.991 53.5192 341.179 54.0604C342.948 59.2011 343.843 64.5709 343.843 70.0655C343.843 81.5126 339.826 92.6475 332.52 101.451C332.312 101.701 332.021 101.826 331.709 101.826Z" fill="white"/>
<path d="M327.693 36.0988C327.443 36.0988 327.173 35.9948 326.985 35.8075C322.282 31.3743 316.829 28.0234 310.793 25.8381C310.252 25.6508 309.981 25.0472 310.169 24.5061C310.356 23.9649 310.959 23.6943 311.501 23.8817C317.807 26.1711 323.489 29.6676 328.401 34.2881C328.817 34.6836 328.838 35.3496 328.442 35.7658C328.234 35.9948 327.964 36.0988 327.693 36.0988Z" fill="white"/>
<path d="M282.947 24.5061C282.489 24.5061 282.052 24.1939 281.948 23.7152C281.803 23.1532 282.136 22.5913 282.698 22.4456C286.61 21.4466 290.669 20.9471 294.748 20.9471C295.331 20.9471 295.789 21.4049 295.789 21.9877C295.789 22.5705 295.331 23.0283 294.748 23.0283C290.835 23.0283 286.964 23.507 283.197 24.4644C283.114 24.4852 283.031 24.5061 282.947 24.5061Z" fill="white"/>
<path d="M140.5 254.322C140.708 252.511 140.812 250.659 140.812 248.807C140.812 247.828 140.771 246.85 140.729 245.872L131.613 242.917C131.051 239.066 129.948 235.403 128.387 231.99L134.444 224.539C133.049 222.083 131.446 219.752 129.657 217.566L120.541 220.543C117.876 217.816 114.838 215.485 111.508 213.591L112.028 203.996C109.489 202.831 106.825 201.894 104.057 201.166L98.4164 208.95C96.2311 208.575 93.9625 208.388 91.673 208.388C90.1121 208.388 88.5511 208.471 87.0318 208.659L81.8077 200.604C79.0188 201.166 76.3131 201.978 73.7115 202.997L73.7323 212.592C70.2982 214.299 67.1347 216.484 64.3457 219.044L55.3962 215.589C53.5022 217.67 51.7747 219.918 50.2346 222.291L55.8749 230.054C54.1266 233.384 52.8362 237.006 52.0661 240.794L42.8044 243.25C42.5963 245.06 42.4922 246.913 42.4922 248.765C42.4922 249.743 42.5338 250.721 42.5754 251.7L51.6915 254.655C52.2534 258.505 53.3565 262.168 54.9175 265.582L48.8609 273.033C50.2554 275.489 51.858 277.82 53.6479 280.005L62.7639 277.029C65.428 279.755 68.4667 282.086 71.7967 283.98L71.2764 293.575C73.8156 294.741 76.4796 295.677 79.2478 296.406L84.888 288.622C87.0942 288.996 89.342 289.184 91.6314 289.184C93.1924 289.184 94.7534 289.1 96.2727 288.913L101.497 296.968C104.286 296.406 106.991 295.594 109.593 294.574L109.572 284.979C113.006 283.273 116.17 281.087 118.959 278.527L127.908 281.982C129.802 279.901 131.53 277.653 133.07 275.281L127.43 267.517C129.178 264.187 130.468 260.566 131.238 256.778L140.5 254.322ZM91.6314 268.1C80.9752 268.1 72.3379 259.463 72.3379 248.807C72.3379 238.15 80.9752 229.513 91.6314 229.513C102.288 229.513 110.925 238.15 110.925 248.807C110.925 259.463 102.288 268.1 91.6314 268.1Z" fill="#9EC8FF"/>
<path d="M117.935 271.118C117.706 271.118 117.457 271.035 117.269 270.868C116.832 270.494 116.77 269.848 117.144 269.411C121.952 263.646 124.595 256.32 124.595 248.807C124.595 245.206 124.013 241.668 122.847 238.296C122.66 237.755 122.951 237.151 123.492 236.964C124.033 236.777 124.637 237.068 124.824 237.609C126.052 241.21 126.698 244.956 126.698 248.786C126.698 256.799 123.888 264.583 118.768 270.723C118.539 270.993 118.248 271.118 117.935 271.118Z" fill="white"/>
<path d="M115.149 225.6C114.899 225.6 114.628 225.496 114.441 225.309C111.215 222.27 107.489 219.981 103.348 218.461C102.806 218.274 102.536 217.67 102.723 217.129C102.911 216.588 103.514 216.318 104.055 216.505C108.468 218.108 112.443 220.563 115.877 223.789C116.293 224.185 116.314 224.851 115.919 225.267C115.71 225.496 115.419 225.6 115.149 225.6Z" fill="white"/>
<path d="M84.1582 217.566C83.7003 217.566 83.2633 217.254 83.1592 216.776C83.0135 216.214 83.3465 215.652 83.9085 215.506C86.6558 214.819 89.4863 214.465 92.3377 214.465C92.9204 214.465 93.3783 214.923 93.3783 215.506C93.3783 216.089 92.9204 216.547 92.3377 216.547C89.6528 216.547 86.9888 216.88 84.4288 217.525C84.3247 217.566 84.2415 217.566 84.1582 217.566Z" fill="white"/>
<path d="M406.779 131.068C406.779 130.527 406.758 129.986 406.737 129.465L413.564 123.971C413.023 121.224 412.19 118.601 411.087 116.124L402.263 115.458C400.265 112.295 397.663 109.548 394.624 107.362L394.604 98.5583C392.148 97.2679 389.525 96.2481 386.778 95.5405L380.742 102.034C379.702 101.93 378.64 101.868 377.579 101.868C374.915 101.868 372.355 102.221 369.899 102.887L362.989 97.4136C360.387 98.5375 357.931 99.9736 355.683 101.659L356.995 110.38C354.414 112.94 352.312 116 350.834 119.371L342.238 121.369C341.51 124.033 341.073 126.801 340.969 129.653L348.545 134.044C348.94 137.874 350.064 141.495 351.791 144.763L348.004 152.713C349.627 154.94 351.5 156.98 353.581 158.77L361.698 155.586C364.883 157.667 368.525 159.145 372.417 159.831L376.247 167.72C376.704 167.74 377.162 167.74 377.62 167.74C379.91 167.74 382.157 167.532 384.343 167.116L386.924 158.77C390.691 157.5 394.104 155.502 396.997 152.922L405.53 154.836C407.279 152.776 408.819 150.528 410.088 148.114L405.135 140.85C406.196 137.77 406.779 134.481 406.779 131.068ZM377.266 143.93C370.481 143.93 364.966 138.415 364.966 131.63C364.966 124.845 370.481 119.33 377.266 119.33C384.051 119.33 389.567 124.845 389.567 131.63C389.567 138.415 384.051 143.93 377.266 143.93Z" fill="#9EC8FF"/>
<g opacity="0.8">
<path d="M520.498 60.2002H509.925C505.846 60.2002 502.516 56.8701 502.516 52.7908V42.2178C502.516 38.1385 505.846 34.8084 509.925 34.8084H520.498C524.577 34.8084 527.907 38.1385 527.907 42.2178V52.7908C527.907 56.8701 524.577 60.2002 520.498 60.2002ZM509.925 37.7222C507.448 37.7222 505.429 39.7411 505.429 42.2178V52.7908C505.429 55.2675 507.448 57.2864 509.925 57.2864H520.498C522.975 57.2864 524.994 55.2675 524.994 52.7908V42.2178C524.994 39.7411 522.975 37.7222 520.498 37.7222H509.925Z" fill="#9EC8FF"/>
</g>
<g opacity="0.8">
<path d="M470.756 60.2002H460.183C456.104 60.2002 452.773 56.8701 452.773 52.7908V42.2178C452.773 38.1385 456.104 34.8084 460.183 34.8084H470.756C474.835 34.8084 478.165 38.1385 478.165 42.2178V52.7908C478.165 56.8701 474.835 60.2002 470.756 60.2002ZM460.183 37.7222C457.706 37.7222 455.687 39.7411 455.687 42.2178V52.7908C455.687 55.2675 457.706 57.2864 460.183 57.2864H470.756C473.233 57.2864 475.251 55.2675 475.251 52.7908V42.2178C475.251 39.7411 473.233 37.7222 470.756 37.7222H460.183Z" fill="#9EC8FF"/>
</g>
<path d="M466.132 54.0395C466.112 54.0395 466.091 54.0395 466.07 54.0395C465.695 54.0187 465.362 53.8522 465.133 53.5608L457.537 43.6539C457.12 43.1128 457.224 42.3219 457.766 41.9056C458.307 41.4894 459.098 41.5934 459.514 42.1346L466.216 50.876L483.719 32.1236C484.198 31.6241 484.989 31.5824 485.488 32.0611C485.988 32.5398 486.029 33.3307 485.551 33.8302L467.048 53.6649C466.798 53.8939 466.465 54.0395 466.132 54.0395Z" fill="#F37168"/>
<path d="M113.028 65.2369H22.5547V213.55H113.028V65.2369Z" fill="#99BBEB"/>
<path d="M110.054 68.2756H27.2812V207.909H110.054V68.2756Z" fill="white"/>
<path d="M52.0469 124.262C55.1688 117.56 60.4345 115.417 69.0926 115.417C79.395 115.417 84.7647 119.142 86.2633 124.595C67.8022 124.845 52.0469 124.262 52.0469 124.262Z" fill="#9BD6E8"/>
<path d="M65.4956 82.8238C61.1249 84.0517 61.333 86.5076 59.8761 88.7762C58.4192 91.0448 55.2556 92.5642 54.881 94.0835C54.5064 95.6029 55.8592 98.7664 54.2566 100.536C52.654 102.305 52.1129 103.2 52.7373 104.969C53.3617 106.738 54.7561 109.527 54.881 109.901C55.0059 110.276 56.775 112.94 58.9187 113.315C61.0624 113.689 65.1209 114.334 67.1398 115.209C69.1587 116.104 75.6731 114.085 79.2737 114.21C82.8743 114.334 85.3511 111.67 85.0805 109.901C84.8308 108.132 87.7446 104.594 87.7446 101.555C87.7446 98.2877 83.9566 95.8734 82.9368 93.7089C81.917 91.5652 83.0617 87.7564 79.2737 85.5086C76.8802 84.0933 75.236 84.2182 73.3212 83.573C71.4273 82.9486 68.2637 82.0329 65.4956 82.8238Z" fill="#3A384D"/>
<path d="M70.7969 120.766C69.8186 122.223 69.0902 122.285 68.0079 120.766C67.1546 119.558 65.4688 116.811 65.4688 115.417V101.535C65.4688 100.14 66.6135 98.9953 68.0079 98.9953H70.7969C72.1913 98.9953 73.336 100.14 73.336 101.535V115.417C73.336 116.811 71.6918 119.454 70.7969 120.766Z" fill="#F09959"/>
<path d="M70.7969 99.0162H68.0079C66.6135 99.0162 65.4688 100.161 65.4688 101.555V113.939C68.5907 114.938 71.4421 112.961 73.3152 110.734V101.555C73.336 100.14 72.1913 99.0162 70.7969 99.0162Z" fill="#E38540"/>
<path d="M69.4006 110.609C74.0444 110.609 77.809 105.475 77.809 99.1411C77.809 92.8075 74.0444 87.6732 69.4006 87.6732C64.7568 87.6732 60.9922 92.8075 60.9922 99.1411C60.9922 105.475 64.7568 110.609 69.4006 110.609Z" fill="#F09959"/>
<path d="M73.3412 90.025C68.034 98.9954 60.1875 98.1212 60.1875 98.1212C60.1875 98.1212 60.3748 86.2371 66.5979 85.6127C72.8209 84.9883 76.484 87.4858 77.7536 91.6068C79.0232 95.7277 77.7536 98.4542 77.7536 98.4542C77.7536 98.4542 75.7347 96.8724 74.7149 94.3541C73.7159 91.7941 73.3412 90.025 73.3412 90.025Z" fill="#3A384D"/>
<path d="M61.2775 102.925C62.3781 102.403 62.6347 100.641 61.8506 98.9897C61.0666 97.3388 59.5388 96.4242 58.4381 96.9469C57.3375 97.4696 57.0809 99.2317 57.865 100.883C58.649 102.534 60.1769 103.448 61.2775 102.925Z" fill="#F09959"/>
<path d="M76.5874 98.9745C75.7965 100.64 76.0671 102.388 77.1702 102.929C78.2732 103.449 79.8134 102.534 80.5835 100.889C81.3744 99.2243 81.1038 97.476 80.0007 96.9349C78.8976 96.3937 77.3575 97.3095 76.5874 98.9745Z" fill="#F09959"/>
<path d="M72.5693 105.364C72.5693 105.364 71.154 107.196 69.4057 107.196C67.6575 107.196 66.2422 105.364 66.2422 105.364H72.5693Z" fill="white"/>
<path d="M79.4168 142.432H58.1877C56.8348 142.432 55.7109 141.329 55.7109 139.955C55.7109 138.602 56.814 137.478 58.1877 137.478H79.4168C80.7697 137.478 81.8935 138.581 81.8935 139.955C81.8935 141.329 80.7697 142.432 79.4168 142.432Z" fill="#99BBEB"/>
<path d="M83.3102 150.029H54.297C52.9442 150.029 51.8203 148.926 51.8203 147.552C51.8203 146.199 52.9234 145.075 54.297 145.075H83.3102C84.6631 145.075 85.787 146.178 85.787 147.552C85.787 148.905 84.6631 150.029 83.3102 150.029Z" fill="#99BBEB"/>
<path d="M104.078 177.314H33.522C32.7311 177.314 32.0859 176.669 32.0859 175.878C32.0859 175.087 32.7311 174.442 33.522 174.442H104.078C104.869 174.442 105.514 175.087 105.514 175.878C105.514 176.669 104.869 177.314 104.078 177.314Z" fill="#99BBEB"/>
<path d="M104.078 183.974H33.522C32.7311 183.974 32.0859 183.329 32.0859 182.538C32.0859 181.747 32.7311 181.102 33.522 181.102H104.078C104.869 181.102 105.514 181.747 105.514 182.538C105.514 183.329 104.869 183.974 104.078 183.974Z" fill="#99BBEB"/>
<path d="M104.078 190.635H33.522C32.7311 190.635 32.0859 189.989 32.0859 189.198C32.0859 188.408 32.7311 187.762 33.522 187.762H104.078C104.869 187.762 105.514 188.408 105.514 189.198C105.514 189.989 104.869 190.635 104.078 190.635Z" fill="#99BBEB"/>
<path d="M94.2132 125.906H43.3881C41.9728 125.906 40.8281 124.762 40.8281 123.346V76.4966C40.8281 75.0814 41.9728 73.9366 43.3881 73.9366H94.2132C95.6285 73.9366 96.7732 75.0814 96.7732 76.4966V123.346C96.7732 124.762 95.6285 125.906 94.2132 125.906ZM43.3881 76.0179C43.1384 76.0179 42.9094 76.2261 42.9094 76.4966V123.346C42.9094 123.596 43.1175 123.825 43.3881 123.825H94.2132C94.4629 123.825 94.6919 123.617 94.6919 123.346V76.4966C94.6919 76.2469 94.4838 76.0179 94.2132 76.0179H43.3881Z" fill="#99BBEB"/>
<path d="M50.7115 156.46L52.1892 159.436L55.4776 159.915L53.1049 162.246L53.6669 165.513L50.7115 163.973L47.7768 165.513L48.3388 162.246L45.9453 159.915L49.2546 159.436L50.7115 156.46Z" fill="#99BBEB"/>
<path d="M62.761 156.46L64.2387 159.436L67.5271 159.915L65.1544 162.246L65.7164 165.513L62.761 163.973L59.8263 165.513L60.3883 162.246L58.0156 159.915L61.3041 159.436L62.761 156.46Z" fill="#99BBEB"/>
<path d="M74.8365 156.46L76.2934 159.436L79.5818 159.915L77.2091 162.246L77.7711 165.513L74.8365 163.973L71.881 165.513L72.443 162.246L70.0703 159.915L73.3587 159.436L74.8365 156.46Z" fill="#99BBEB"/>
<path d="M86.8833 156.46L88.3402 159.436L91.6287 159.915L89.256 162.246L89.818 165.513L86.8833 163.973L83.9279 165.513L84.4899 162.246L82.1172 159.915L85.4056 159.436L86.8833 156.46Z" fill="#99BBEB"/>
<path d="M314.747 65.2369H224.273V213.55H314.747V65.2369Z" fill="#99BBEB"/>
<path d="M311.773 68.2756H229V207.909H311.773V68.2756Z" fill="white"/>
<path d="M257.688 98.3918C257.688 105.031 261.684 115.75 271.112 115.417C280.54 115.063 282.642 104.865 282.996 101.972C283.371 99.0786 257.688 98.3918 257.688 98.3918Z" fill="#7A4E34"/>
<path d="M253.758 124.262C256.88 117.56 262.145 115.417 270.804 115.417C281.106 115.417 286.476 119.142 287.974 124.595C269.513 124.845 253.758 124.262 253.758 124.262Z" fill="#D54A41"/>
<path d="M272.508 120.766C271.53 122.223 270.801 122.285 269.719 120.766C268.866 119.559 267.18 116.811 267.18 115.417V101.535C267.18 100.14 268.324 98.9954 269.719 98.9954H272.508C273.902 98.9954 275.047 100.14 275.047 101.535V115.417C275.047 116.811 273.403 119.454 272.508 120.766Z" fill="#F09959"/>
<path d="M272.508 99.0162H269.719C268.324 99.0162 267.18 100.161 267.18 101.555V113.939C270.302 114.938 273.153 112.961 275.026 110.734V101.555C275.047 100.14 273.902 99.0162 272.508 99.0162Z" fill="#E38540"/>
<path d="M271.112 110.609C275.755 110.609 279.52 105.475 279.52 99.1411C279.52 92.8075 275.755 87.6732 271.112 87.6732C266.468 87.6732 262.703 92.8075 262.703 99.1411C262.703 105.475 266.468 110.609 271.112 110.609Z" fill="#F09959"/>
<path d="M275.734 90.4413C274.735 93.9587 272.549 93.917 269.49 95.0826C266.43 96.2481 264.973 97.4136 263.974 99.6614C262.705 102.534 264.557 110.921 264.557 110.921C264.557 110.921 256.835 105.135 257.71 96.04C258.605 86.9447 263.974 83.4273 269.011 83.4273C274.069 83.4273 275.983 86.5076 275.983 86.5076C275.983 86.5076 278.668 86.5285 281.207 89.5255C284.621 93.584 283.58 103.408 281.207 106.925C278.835 110.442 277.253 111.546 277.315 111.4C277.378 111.233 279.522 103.158 278.377 98.1421C277.232 93.1261 275.734 90.4413 275.734 90.4413Z" fill="#7A4E34"/>
<path d="M274.28 105.364C274.28 105.364 272.865 107.196 271.117 107.196C269.368 107.196 267.953 105.364 267.953 105.364H274.28Z" fill="white"/>
<path d="M281.128 142.432H259.899C258.546 142.432 257.422 141.329 257.422 139.955C257.422 138.602 258.525 137.478 259.899 137.478H281.128C282.481 137.478 283.604 138.581 283.604 139.955C283.604 141.329 282.481 142.432 281.128 142.432Z" fill="#99BBEB"/>
<path d="M285.021 150.029H256.008C254.655 150.029 253.531 148.926 253.531 147.552C253.531 146.199 254.634 145.075 256.008 145.075H285.021C286.374 145.075 287.498 146.178 287.498 147.552C287.498 148.905 286.374 150.029 285.021 150.029Z" fill="#99BBEB"/>
<path d="M305.794 177.314H235.217C234.426 177.314 233.781 176.669 233.781 175.878C233.781 175.087 234.426 174.442 235.217 174.442H305.794C306.585 174.442 307.23 175.087 307.23 175.878C307.23 176.669 306.585 177.314 305.794 177.314Z" fill="#99BBEB"/>
<path d="M305.794 183.974H235.217C234.426 183.974 233.781 183.329 233.781 182.538C233.781 181.747 234.426 181.102 235.217 181.102H305.794C306.585 181.102 307.23 181.747 307.23 182.538C307.23 183.329 306.585 183.974 305.794 183.974Z" fill="#99BBEB"/>
<path d="M305.794 190.635H235.217C234.426 190.635 233.781 189.989 233.781 189.198C233.781 188.408 234.426 187.762 235.217 187.762H305.794C306.585 187.762 307.23 188.408 307.23 189.198C307.23 189.989 306.585 190.635 305.794 190.635Z" fill="#99BBEB"/>
<path d="M295.932 125.906H245.107C243.692 125.906 242.547 124.762 242.547 123.346V76.4966C242.547 75.0814 243.692 73.9366 245.107 73.9366H295.932C297.347 73.9366 298.492 75.0814 298.492 76.4966V123.346C298.492 124.762 297.347 125.906 295.932 125.906ZM245.107 76.0179C244.857 76.0179 244.628 76.2261 244.628 76.4966V123.346C244.628 123.596 244.836 123.825 245.107 123.825H295.932C296.182 123.825 296.411 123.617 296.411 123.346V76.4966C296.411 76.2469 296.203 76.0179 295.932 76.0179H245.107Z" fill="#99BBEB"/>
<path d="M252.433 156.46L253.911 159.436L257.199 159.915L254.826 162.246L255.388 165.513L252.433 163.973L249.498 165.513L250.06 162.246L247.688 159.915L250.976 159.436L252.433 156.46Z" fill="#99BBEB"/>
<path d="M264.501 156.46L265.957 159.436L269.246 159.915L266.873 162.246L267.435 165.513L264.501 163.973L261.545 165.513L262.107 162.246L259.734 159.915L263.023 159.436L264.501 156.46Z" fill="#99BBEB"/>
<path d="M276.555 156.46L278.012 159.436L281.301 159.915L278.928 162.246L279.49 165.513L276.555 163.973L273.6 165.513L274.162 162.246L271.789 159.915L275.077 159.436L276.555 156.46Z" fill="#99BBEB"/>
<path d="M288.602 156.46L290.08 159.436L293.368 159.915L290.975 162.246L291.537 165.513L288.602 163.973L285.647 165.513L286.209 162.246L283.836 159.915L287.124 159.436L288.602 156.46Z" fill="#99BBEB"/>
<path opacity="0.2" d="M234.43 212.072H91.6328L101.748 65.7988H239.592L234.43 212.072Z" fill="#99BBEB"/>
<path d="M230.22 38.1177H106.633V240.69H230.22V38.1177Z" fill="#99BBEB"/>
<path d="M226.165 42.2386H113.109V232.947H226.165V42.2386Z" fill="white"/>
<path d="M159.107 82.3034C159.024 82.0745 157.047 70.7107 156.818 66.2983C156.589 61.886 163.915 61.2408 163.915 61.2408C163.915 61.2408 169.909 58.0148 174.259 59.659C178.588 61.324 181.543 64.113 183.521 67.5679C185.498 71.0437 181.793 81.8664 181.793 81.8664L159.107 82.3034Z" fill="#2E2D3D"/>
<path d="M145.493 118.809C145.472 118.622 145.992 114.147 146.013 113.981C147.012 104.573 158.626 101.909 170.198 101.909C183.809 101.909 193.029 104.407 194.507 114.189C194.549 114.48 195.34 118.955 195.298 119.267C170.094 119.579 145.493 118.809 145.493 118.809Z" fill="#D5E1E8"/>
<path d="M172.546 109.215C171.193 111.213 170.215 111.296 168.737 109.215C167.572 107.57 163.68 103.803 163.68 101.909L165.282 82.9695C165.282 81.0755 166.843 79.5145 168.737 79.5145H172.546C174.44 79.5145 176.001 81.0755 176.001 82.9695L176.75 101.909C176.729 103.803 173.753 107.425 172.546 109.215Z" fill="#F09959"/>
<path d="M172.549 79.4937H168.74C166.846 79.4937 165.285 81.0547 165.285 82.9486L163.891 99.7654C168.157 101.118 173.922 98.371 176.462 95.3115L175.983 82.9486C176.004 81.0547 174.443 79.4937 172.549 79.4937Z" fill="#E38540"/>
<path d="M157.609 103.283L163.708 114.543C163.708 114.543 166.975 111.858 167.287 112.378C167.6 112.898 166.705 119.538 166.705 119.538C166.705 119.538 173.968 119.642 174.28 119.33C174.593 119.017 172.803 112.128 173.552 112.128C174.28 112.128 176.507 114.126 176.507 114.126L183.313 103.283L181.815 102.929L170.68 108.923L158.754 103.054L157.609 103.283Z" fill="#BDCCD4"/>
<path d="M164.578 108.465L169.095 111.504L167.7 119.559L173.798 119.226L172.279 111.899L176.025 108.465L174.256 106.8H166.326L164.578 108.465Z" fill="#D54A41"/>
<path d="M164.013 97.7674L158.414 103.096C158.414 103.096 164.117 113.231 164.429 113.231C164.741 113.231 169.258 107.633 169.258 107.633L172.151 107.591L176.729 112.399L182.037 102.991L176.625 97.2471C176.625 97.2471 172.005 106.197 171.152 106.405C170.319 106.613 170.298 106.717 169.632 106.197C168.966 105.676 164.013 97.7674 164.013 97.7674Z" fill="#D5E1E8"/>
<path d="M170.637 95.3531C176.982 95.3531 182.126 88.3458 182.126 79.7018C182.126 71.0579 176.982 64.0505 170.637 64.0505C164.292 64.0505 159.148 71.0579 159.148 79.7018C159.148 88.3458 164.292 95.3531 170.637 95.3531Z" fill="#F09959"/>
<path d="M160.335 79.452C161.417 81.7207 161.064 84.135 159.544 84.8426C158.046 85.5502 155.944 84.3015 154.861 82.0537C153.779 79.7851 154.133 77.3708 155.652 76.6631C157.172 75.9347 159.274 77.1834 160.335 79.452Z" fill="#F09959"/>
<path d="M180.44 79.452C179.357 81.7207 179.711 84.135 181.23 84.8426C182.729 85.5502 184.831 84.3015 185.913 82.0537C186.996 79.7851 186.642 77.3708 185.122 76.6631C183.603 75.9347 181.522 77.1834 180.44 79.452Z" fill="#F09959"/>
<path d="M175.737 86.1122C175.737 86.1122 173.448 89.8169 170.638 89.8169C167.828 89.8169 165.539 86.1122 165.539 86.1122H175.737Z" fill="white"/>
<path d="M163.916 69.0456C168.64 65.7364 170.784 66.2775 174.322 71.7305C177.881 77.1835 182.127 77.2667 182.127 77.2667L182.689 71.6264C182.689 71.6264 177.402 61.3865 170.305 62.7393C163.208 64.0713 159.17 70.4609 159.17 70.4609C159.17 70.4609 158.816 82.4283 159.815 82.8446C160.814 83.2608 160.918 78.9734 161.626 78.12C162.334 77.2459 160.918 73.1458 161.855 71.2518C162.812 69.3578 163.916 69.0456 163.916 69.0456Z" fill="#2E2D3D"/>
<path d="M179.125 75.2062C180.769 77.017 180.145 84.1974 181.019 84.1142C181.893 84.0309 182.205 77.2459 181.956 76.5383C181.727 75.8306 179.125 75.2062 179.125 75.2062Z" fill="#2E2D3D"/>
<path d="M196.195 143.556H143.434C141.582 143.556 140.062 142.036 140.062 140.184C140.062 138.332 141.582 136.812 143.434 136.812H196.195C198.047 136.812 199.567 138.332 199.567 140.184C199.567 142.036 198.047 143.556 196.195 143.556Z" fill="#99BBEB"/>
<path d="M189.64 153.9H150.012C148.16 153.9 146.641 152.38 146.641 150.528C146.641 148.676 148.16 147.156 150.012 147.156H189.64C191.492 147.156 193.012 148.676 193.012 150.528C193.012 152.401 191.492 153.9 189.64 153.9Z" fill="#99BBEB"/>
<path d="M218.005 191.176H121.62C120.538 191.176 119.664 190.302 119.664 189.219C119.664 188.137 120.538 187.263 121.62 187.263H218.005C219.087 187.263 219.961 188.137 219.961 189.219C219.961 190.302 219.087 191.176 218.005 191.176Z" fill="#99BBEB"/>
<path d="M218.005 200.271H121.62C120.538 200.271 119.664 199.397 119.664 198.314C119.664 197.232 120.538 196.358 121.62 196.358H218.005C219.087 196.358 219.961 197.232 219.961 198.314C219.961 199.397 219.087 200.271 218.005 200.271Z" fill="#99BBEB"/>
<path d="M218.005 209.366H121.62C120.538 209.366 119.664 208.492 119.664 207.41C119.664 206.327 120.538 205.453 121.62 205.453H218.005C219.087 205.453 219.961 206.327 219.961 207.41C219.961 208.492 219.087 209.366 218.005 209.366Z" fill="#99BBEB"/>
<path d="M204.517 120.599H135.106C133.4 120.599 131.984 119.205 131.984 117.477V53.4984C131.984 51.7917 133.379 50.3765 135.106 50.3765H204.538C206.245 50.3765 207.66 51.7709 207.66 53.4984V117.477C207.639 119.184 206.245 120.599 204.517 120.599ZM135.106 52.4578C134.544 52.4578 134.066 52.9156 134.066 53.4984V117.477C134.066 118.039 134.524 118.518 135.106 118.518H204.538C205.1 118.518 205.579 118.06 205.579 117.477V53.4984C205.579 52.9365 205.121 52.4578 204.538 52.4578H135.106Z" fill="#99BBEB"/>
<path d="M136.751 162.704L138.77 166.783L143.266 167.428L140.019 170.613L140.768 175.087L136.751 172.964L132.735 175.087L133.505 170.613L130.258 167.428L134.753 166.783L136.751 162.704Z" fill="#99BBEB"/>
<path d="M153.212 162.704L155.231 166.783L159.727 167.428L156.48 170.613L157.229 175.087L153.212 172.964L149.195 175.087L149.966 170.613L146.719 167.428L151.214 166.783L153.212 162.704Z" fill="#99BBEB"/>
<path d="M169.681 162.704L171.7 166.783L176.196 167.428L172.949 170.613L173.698 175.087L169.681 172.964L165.664 175.087L166.434 170.613L163.188 167.428L167.683 166.783L169.681 162.704Z" fill="#99BBEB"/>
<path d="M186.142 162.704L188.161 166.783L192.656 167.428L189.41 170.613L190.159 175.087L186.142 172.964L182.125 175.087L182.895 170.613L179.648 167.428L184.144 166.783L186.142 162.704Z" fill="#99BBEB"/>
<path d="M202.874 162.704L204.872 166.783L209.367 167.428L206.121 170.613L206.891 175.087L202.874 172.964L198.857 175.087L199.627 170.613L196.359 167.428L200.855 166.783L202.874 162.704Z" fill="#99BBEB"/>
<path d="M428.712 234.175H270.118C269.161 234.175 268.391 233.405 268.391 232.448V229.867C268.391 228.909 269.161 228.139 270.118 228.139H428.712C429.67 228.139 430.44 228.909 430.44 229.867V232.448C430.44 233.405 429.649 234.175 428.712 234.175Z" fill="#2E5B9A"/>
<path d="M469.545 147.198C471.689 154.774 466.444 162.579 460.658 164.223C454.872 165.867 450.751 160.706 448.607 153.13C446.464 145.554 449.398 138.082 455.184 136.438C460.97 134.814 467.381 139.622 469.545 147.198Z" fill="#F09959"/>
<path d="M437.124 293.991C437.124 293.991 451.942 317.01 453.94 318.009C455.938 319.008 460.954 319.258 459.06 323.005C457.187 326.751 456.438 341.507 454.69 342.256C452.941 343.006 437.935 344.754 440.183 342.256C442.431 339.759 443.825 341.008 444.949 336.512C446.094 332.017 447.676 323.504 445.553 321.756C443.43 320.007 430.422 304.252 430.422 304.252L437.124 293.991Z" fill="#F09959"/>
<path d="M362.55 303.877C362.55 303.877 344.546 333.557 341.196 336.221C337.866 338.885 326.856 342.902 335.867 343.568C344.879 344.234 349.209 340.571 354.87 338.906C360.531 337.241 367.545 336.242 364.881 331.892C362.217 327.563 363.32 318.093 369.064 312.078C374.829 306.084 362.55 303.877 362.55 303.877Z" fill="#F09959"/>
<path d="M454.459 235.049C454.459 235.049 409.878 233.884 392.187 248.39C381.843 264.062 356.826 310.309 354.891 315.408C356.223 316.74 363.736 319.154 367.066 318.821C376.911 307.083 389.919 296.947 395.08 287.747C401.449 276.404 403.426 270.743 413.749 269.744C424.093 268.745 447.446 265.415 454.439 265.415C461.432 265.415 454.459 235.049 454.459 235.049Z" fill="#6791C9"/>
<path d="M493.335 343.651H491.004L474.25 273.74H479.391L493.335 343.651Z" fill="#2E5B9A"/>
<path d="M423.344 343.651H425.675L444.906 271.264H439.765L423.344 343.651Z" fill="#2E5B9A"/>
<path d="M479.873 231.99L453.961 236.465C453.961 236.465 419.516 236.777 403.76 239.711C389.441 242.375 387.318 258.651 403.76 281.067C413.105 293.804 420.993 303.961 437.144 315.408C441.244 312.39 442.826 311.245 443.95 304.002C442.784 302.4 439.766 292.368 438.809 290.412C429.88 271.742 417.955 264.957 417.788 263.126C419.786 259.879 470.798 280.068 480.934 268.183C490.633 256.84 479.873 231.99 479.873 231.99Z" fill="#75A1DE"/>
<path d="M480.933 173.318C474.107 172.361 467.155 173.651 460.641 178.376C454.959 184.162 448.528 193.715 448.923 209.47C449.422 229.471 445.822 230.762 449.568 236.277C465.219 242.729 491.985 270.514 485.679 240.731C481.121 219.169 495.69 203.122 483.93 179.208C483.015 177.252 481.807 175.358 480.933 173.318Z" fill="#F37168"/>
<path d="M448.947 216.984C448.635 227.411 447.178 230.491 448.302 233.759C454.692 234.404 466.347 236.964 469.261 241.043C472.591 245.705 475.942 246.371 474.381 242.937C472.82 239.482 468.72 234.591 475.047 217.816C481.374 201.02 484.392 189.698 478.169 178.022L448.947 216.984Z" fill="#D54A41"/>
<path d="M480.933 173.318C476.729 163.37 475.688 152.193 475.688 152.193L464.678 155.44C464.678 155.44 470.922 169.447 464.928 174.442C463.659 175.504 462.181 176.794 460.641 178.355C467.155 173.651 474.107 172.361 480.933 173.318Z" fill="#F09959"/>
<path d="M476.041 154.836C475.396 154.254 474.563 153.525 473.71 152.776L464.74 155.419C464.74 155.44 464.719 155.461 464.719 155.461C464.927 155.96 467.216 161.288 467.528 166.429C470.213 164.806 473.127 162.163 476.478 157.542C476.291 156.522 476.145 155.606 476.041 154.836Z" fill="#E38540"/>
<path d="M473.211 176.44C461.868 180.395 463.138 192.341 452.71 209.949C447.32 219.065 442.304 218.919 442.304 218.919C442.304 218.919 429.65 219.023 414.331 217.15C404.737 215.985 404.133 218.836 410.793 221.209C424.238 226.016 438.204 231.199 449.463 229.95C460.723 228.701 479.975 199.98 480.974 192.508C482.306 182.185 478.914 174.442 473.211 176.44Z" fill="#F09959"/>
<path d="M467.365 276.654C466.658 276.654 465.929 276.654 465.201 276.633C455.96 276.404 449.674 275.135 444.617 274.094C438.727 272.887 435.459 272.242 431.692 274.032C430.235 274.719 428.508 274.115 427.8 272.658C427.092 271.201 427.717 269.474 429.174 268.766C434.71 266.123 439.351 267.059 445.782 268.371C450.611 269.349 456.626 270.577 465.346 270.785C475.108 271.035 481.06 269.578 484.078 266.227C486.763 263.251 487.554 258.235 486.555 250.451C486.222 247.787 485.868 245.581 485.577 243.624C484.723 238.109 484.161 234.466 484.869 228.847C485.514 223.623 487.242 216.671 491.258 203.164C491.716 201.624 493.34 200.75 494.88 201.207C496.42 201.665 497.294 203.289 496.836 204.829C489.364 229.971 489.739 232.427 491.342 242.729C491.654 244.706 491.987 246.975 492.341 249.702C493.569 259.296 492.32 265.769 488.407 270.119C484.39 274.615 477.834 276.654 467.365 276.654Z" fill="#2E5B9A"/>
<path d="M363.777 328.895C351.83 334.743 345.399 338.094 341.569 337.761C340.674 337.678 339.925 337.594 339.28 337.49C335.013 340.009 328.207 342.985 335.866 343.547C344.878 344.213 349.208 340.55 354.869 338.885C360.53 337.22 367.544 336.221 364.88 331.871C364.38 331.08 364.006 330.039 363.777 328.895Z" fill="#D54A41"/>
<path d="M455.251 318.509C454.959 327.979 453.648 337.345 447.862 339.114C446.322 339.592 444.927 339.655 443.699 339.488C442.784 340.612 441.681 340.633 440.182 342.277C437.934 344.775 452.94 343.027 454.689 342.277C456.437 341.528 457.186 326.772 459.059 323.025C460.62 319.945 457.519 319.217 455.251 318.509Z" fill="#D54A41"/>
<path d="M409.213 228.951H371.25C370.126 228.951 369.085 228.285 368.607 227.265L353.267 194.235C352.581 192.778 353.226 191.051 354.683 190.364C356.14 189.677 357.867 190.322 358.554 191.779L373.123 223.103H409.233C410.836 223.103 412.147 224.414 412.147 226.016C412.147 227.619 410.836 228.951 409.213 228.951Z" fill="#75A1DE"/>
<path d="M417.16 217.504C409.48 217.4 401.883 212.821 398.095 213.487C394.307 214.153 381.965 222.707 383.526 223.04C385.087 223.373 394.869 218.295 395.202 218.232C395.535 218.149 397.658 221.75 402.882 223.061C408.106 224.372 402.924 219.148 419.116 224.039C429.648 227.224 417.16 217.504 417.16 217.504Z" fill="#F09959"/>
<path d="M479.81 164.223L480.934 173.297C480.934 173.297 471.007 173.88 466.074 176.669C461.141 179.458 453.836 187.471 453.836 187.471L459.788 177.21L460.642 170.654L479.81 164.223Z" fill="#F2E5DE"/>
<path d="M475.585 175.337C468.217 173.963 464.804 180.561 460.017 191.342C455.23 202.123 447.072 215.215 445.448 216.921C443.825 218.607 418.1 216.921 418.1 216.921C418.1 216.921 417.33 224.372 418.1 225.267C418.87 226.162 423.324 226.037 423.324 226.037C423.324 226.037 425.093 227.453 426.779 228.576C428.444 229.7 442.576 231.823 449.132 231.469C455.688 231.116 461.703 230.574 462.577 229.575C463.472 228.576 481.371 200.999 482.474 191.113C483.598 181.248 479.352 176.045 475.585 175.337Z" fill="#F2E5DE"/>
<path d="M453.852 129.986C439.908 130.652 442.093 151.631 442.093 151.631C442.093 151.631 445.715 152.755 453.311 151.506C452.729 149.259 452.978 143.493 452.978 143.493C452.978 143.493 453.852 148.155 454.976 151.007C456.579 151.735 458.39 151.09 461.491 150.341C463.073 157.001 467.547 159.831 470.607 160.789C473.999 161.85 477.579 163.12 481.575 161.122C485.571 159.124 483.386 138.665 481.242 134.544C478.058 128.362 472.751 122.847 463.572 125.761C458.972 127.218 453.852 129.986 453.852 129.986Z" fill="#303C60"/>
<path d="M478.102 154.899L483.804 163.224C483.804 163.224 477.477 179.021 495.855 186.16C510.257 191.758 508.551 201.624 502.057 211.551C495.564 221.479 505.949 230.137 505.949 230.137C505.949 230.137 507.531 219.148 521.517 217.067C540.582 214.236 545.993 188.637 531.736 175.837C519.956 165.243 516.376 174.026 508.384 164.514C500.413 155.003 485.344 161.434 485.344 161.434L479.829 153.379L478.102 154.899Z" fill="#303C60"/>
<path d="M538.291 201.645C538.208 201.645 538.124 201.624 538.041 201.582C537.791 201.457 537.708 201.145 537.833 200.895C542.62 192.133 538.707 181.519 536.751 178.646C536.543 178.334 536.334 178.043 536.126 177.71C534.191 174.692 531.797 170.946 518.956 168.635C515.854 168.073 513.357 166.242 510.714 164.285C505.24 160.269 499.038 155.711 485.551 161.913C485.301 162.038 484.989 161.913 484.885 161.663C484.76 161.413 484.885 161.101 485.135 160.997C499.163 154.545 505.615 159.29 511.317 163.474C513.877 165.347 516.292 167.116 519.143 167.636C532.422 170.03 534.961 173.984 537 177.169C537.209 177.481 537.396 177.793 537.604 178.084C539.664 181.102 543.765 192.216 538.749 201.395C538.645 201.561 538.478 201.645 538.291 201.645Z" fill="#303C60"/>
<path d="M475.043 163.432C474.127 163.432 473.149 163.349 472.087 163.203C467.217 162.475 460.661 159.707 460.141 144.139C460.141 143.868 460.349 143.618 460.64 143.618C460.931 143.618 461.16 143.826 461.16 144.118C461.369 150.528 462.638 155.273 464.948 158.229C466.697 160.477 469.007 161.725 472.233 162.225C476.749 162.891 479.746 162.058 481.12 159.748C481.266 159.498 481.578 159.436 481.807 159.582C482.057 159.727 482.119 160.04 481.973 160.269C480.725 162.371 478.394 163.432 475.043 163.432Z" fill="#303C60"/>
<path d="M285.398 343.651H289.145L303.714 232.24H295.472L285.398 343.651Z" fill="#2E5B9A"/>
<path d="M412.526 343.651H408.78L394.211 232.24H402.453L412.526 343.651Z" fill="#2E5B9A"/>
<path d="M559.46 249.618C565.932 255.529 563.123 261.461 558.336 272.45C553.549 283.439 552.695 324.024 552.695 324.024L556.65 323.462C556.65 323.462 556.088 281.753 561.437 270.473C566.786 259.192 569.054 253.573 573.841 257.236C578.628 260.899 559.46 249.618 559.46 249.618Z" fill="#74B570"/>
<path d="M555.905 241.938C556.696 238.421 561.358 234.633 567.623 231.407C566.686 236.589 563.71 245.039 566.79 246.767C570.953 249.098 567.186 237.297 568.809 230.803C574.679 227.931 581.734 225.6 588.249 224.435C588.249 224.455 588.228 224.476 588.228 224.497C584.565 233.8 579.778 237.464 581.755 238.879C583.233 239.94 588.082 229.201 594.451 223.685C599.238 223.436 603.296 224.081 605.69 225.975C609.394 228.909 611.892 231.511 608.166 240.44C606.044 241.959 603.275 243.062 600.07 243.374C591.62 244.228 587.666 244.498 593.597 247.329C596.49 248.703 601.361 247.246 605.294 246.371C604.025 248.723 602.443 251.387 600.528 254.426C599.321 256.341 597.989 258.027 596.574 259.463C593.847 259.983 591.475 259.983 590.205 259.442C586.251 257.756 576.115 252.386 573.575 254.655C571.099 256.861 592.37 258.256 590.892 263.875C580.589 269.807 568.788 266.997 566.686 261.544C563.877 254.239 553.533 252.511 555.905 241.938Z" fill="#9CD499"/>
<path d="M577.212 282.024C565.931 273.574 554.38 281.462 548.469 290.474C542.558 299.486 546.783 319.779 546.783 319.779C546.783 319.779 549.031 319.779 549.031 318.925C549.031 318.072 542.829 294.97 557.481 284.542C566.659 278.028 573.257 281.171 574.11 284.251C574.964 287.331 570.447 292.992 570.447 292.992L577.212 282.024Z" fill="#74B570"/>
<path d="M551.282 264.645C562.563 264.645 566.226 282.128 563.125 292.264C560.024 302.4 555.799 321.298 555.799 321.298L552.989 318.488C552.989 318.488 563.708 291.993 561.169 280.151C558.629 268.308 552.427 266.331 551.303 266.331C550.159 266.331 551.282 264.645 551.282 264.645Z" fill="#9CD499"/>
<path d="M560.752 292.347C561.543 291.306 562.522 290.432 563.729 289.85C563.562 290.682 563.375 291.494 563.146 292.264C561.731 296.884 560.086 303.316 558.713 308.956C558.588 308.227 558.401 307.124 558.088 305.397C558.026 305.001 557.964 304.543 557.922 304.086C559.025 300.339 560.066 296.26 560.752 292.347Z" fill="#74B570"/>
<path d="M563.832 292.43C585.248 283.418 573.968 271.035 592.845 279.214C594.177 279.797 595.8 281.233 597.424 283.252C595.738 283.731 593.698 284.064 591.451 283.731C585.81 282.877 587.787 287.394 597.091 288.518C598.839 288.726 600.275 289.017 601.441 289.433C605.874 297.946 607.872 309.143 598.485 313.035C596.633 313.805 594.364 314.242 591.804 314.409C588.911 312.119 592.512 298.799 588.058 300.631C583.771 302.4 589.39 312.036 588.62 314.471C584.395 314.388 579.712 313.701 575.237 312.598C573.468 311.599 572.115 310.267 571.699 308.519C570.284 302.608 579.587 298.945 579.879 293.866C580.128 289.204 576.465 304.127 566.746 306.313C557.963 302.212 553.821 296.635 563.832 292.43Z" fill="#9CD499"/>
<path d="M548.555 276.488C550.803 271.701 544.892 270.577 545.162 274.24C545.412 277.487 545.433 285.375 542.103 287.519C536.358 286.894 528.554 284.584 522.643 281.046C522.56 280.567 522.643 280.088 522.893 279.568C525.432 274.49 541.77 270.265 536.712 268.579C532.675 267.226 525.598 275.176 519.895 279.193C516.461 276.592 514.172 273.491 514.172 270.036C514.172 265.353 519.854 260.046 527.222 257.527C530.531 257.86 533.611 259.671 538.419 262.397C545.516 266.414 543.872 259.921 537.17 256.049C542.956 256.341 548.742 258.818 552.988 264.728C552.988 264.728 552.593 267.247 555.257 271.16C562.562 281.816 554.133 288.06 544.059 287.643C544.642 284.854 546.994 279.797 548.555 276.488Z" fill="#9CD499"/>
<path d="M576.526 281.545C582.042 285.812 588.161 290.786 595.674 294.158C603.188 297.55 601.689 308.56 601.689 308.56C601.689 308.56 602.813 299.049 596.548 295.781C590.284 292.534 586.142 288.642 581.396 287.893C576.651 287.144 574.008 286.395 574.008 286.395C574.008 286.395 575.506 283.398 574.632 282.253C573.758 281.108 576.526 281.545 576.526 281.545Z" fill="#74B570"/>
<path d="M603.71 231.532C583.543 236.922 568.765 249.826 565.997 252.948C563.25 256.07 563.25 256.965 563.25 256.965L565.373 260.982L566.372 260.483C566.372 260.483 564.749 257.09 568.994 252.719C576.341 245.164 585.27 239.191 591.41 236.569C597.57 233.905 603.71 231.532 603.71 231.532Z" fill="#74B570"/>
<path d="M548.037 343.172H555.738C561.212 343.172 565.666 338.739 565.666 333.244V315.533H538.109V333.244C538.109 338.718 542.563 343.172 548.037 343.172Z" fill="#75A1DE"/>
<path d="M565.666 318.696H538.109V320.632H565.666V318.696Z" fill="white"/>
<path d="M565.666 322.234H538.109V323.379H565.666V322.234Z" fill="white"/>
<path d="M45.5262 319.071H52.103C53.4975 319.071 54.6214 317.947 54.6214 316.553V311.141C54.6214 309.747 53.4975 308.623 52.103 308.623H45.5262C44.1317 308.623 43.0078 309.747 43.0078 311.141V316.553C43.0286 317.947 44.1525 319.071 45.5262 319.071Z" fill="#9EC8FF"/>
<path d="M24.448 319.071H31.0249C32.4194 319.071 33.5433 317.947 33.5433 316.553V311.141C33.5433 309.747 32.4194 308.623 31.0249 308.623H24.448C23.0536 308.623 21.9297 309.747 21.9297 311.141V316.553C21.9297 317.947 23.0536 319.071 24.448 319.071Z" fill="#9EC8FF"/>
<path d="M3.36211 319.071H9.93898C11.3334 319.071 12.4573 317.947 12.4573 316.553V311.141C12.4573 309.747 11.3334 308.623 9.93898 308.623H3.36211C1.96765 308.623 0.84375 309.747 0.84375 311.141V316.553C0.84375 317.947 1.96765 319.071 3.36211 319.071Z" fill="#9EC8FF"/>
<path d="M603.542 124.533V117.956C603.542 116.561 602.418 115.438 601.023 115.438H595.612C594.218 115.438 593.094 116.561 593.094 117.956V124.533C593.094 125.927 594.218 127.051 595.612 127.051H601.023C602.418 127.03 603.542 125.906 603.542 124.533Z" fill="#9EC8FF"/>
<path d="M603.542 145.616V139.039C603.542 137.645 602.418 136.521 601.023 136.521H595.612C594.218 136.521 593.094 137.645 593.094 139.039V145.616C593.094 147.011 594.218 148.135 595.612 148.135H601.023C602.418 148.135 603.542 147.011 603.542 145.616Z" fill="#9EC8FF"/>
<path d="M603.542 166.7V160.123C603.542 158.728 602.418 157.605 601.023 157.605H595.612C594.218 157.605 593.094 158.728 593.094 160.123V166.7C593.094 168.094 594.218 169.218 595.612 169.218H601.023C602.418 169.218 603.542 168.094 603.542 166.7Z" fill="#9EC8FF"/>
</svg>
