<svg width="396" height="383" viewBox="0 0 396 383" fill="none" xmlns="http://www.w3.org/2000/svg">
<path d="M396 0H0V344H396V0Z" fill="#330057"/>
<path d="M178.838 47.3349C178.838 49.5302 177.349 50.7581 174.819 50.7581H169.573V43.7628H174.707C177.238 43.7628 178.838 45.1023 178.838 47.3349ZM178.205 36.507C178.205 38.6279 176.791 39.7442 174.335 39.7442H169.573V33.2326H174.335C176.791 33.2326 178.205 34.4233 178.205 36.507ZM184.121 47.9674C184.121 44.9163 182.038 42.2 179.098 41.6791C181.628 40.8605 183.526 38.8884 183.526 35.7256C183.526 31.8558 180.512 29.0279 175.08 29.0279H164.363V55H175.563C180.959 55 184.121 52.0977 184.121 47.9674ZM202.748 47.3349C202.748 49.5302 201.259 50.7581 198.729 50.7581H193.482V43.7628H198.617C201.148 43.7628 202.748 45.1023 202.748 47.3349ZM202.115 36.507C202.115 38.6279 200.701 39.7442 198.245 39.7442H193.482V33.2326H198.245C200.701 33.2326 202.115 34.4233 202.115 36.507ZM208.031 47.9674C208.031 44.9163 205.948 42.2 203.008 41.6791C205.538 40.8605 207.436 38.8884 207.436 35.7256C207.436 31.8558 204.422 29.0279 198.989 29.0279H188.273V55H199.473C204.868 55 208.031 52.0977 208.031 47.9674ZM229.82 55H235.327L225.988 28.9907H219.923L210.583 55H216.053L217.764 50.0512H228.109L229.82 55ZM226.695 45.8837H219.178L222.937 35.0186L226.695 45.8837Z" fill="white"/>
<line x1="176" y1="96.8468" x2="222.766" y2="96.8468" stroke="white" stroke-width="0.306309"/>
<path d="M65.1468 83H67.7705V72.0448L72.6727 83H74.4909L79.3702 72.0448V83H81.9939V67.0045H79.186L73.5934 79.5477L67.9777 67.0045H65.1468V83ZM95.7762 70.3187H93.1525V77.3843C93.1525 79.7088 91.8866 80.9056 89.9534 80.9056C88.0431 80.9056 86.7773 79.7088 86.7773 77.3843V70.3187H84.1765V77.7756C84.1765 81.3199 86.432 83.1841 89.401 83.1841C90.897 83.1841 92.3239 82.5627 93.1525 81.481V83H95.7762V70.3187ZM98.0872 83H100.711V65.9688H98.0872V83ZM103.419 79.4787C103.419 82.0564 104.823 83 107.079 83H109.15V80.8136H107.539C106.434 80.8136 106.066 80.4223 106.066 79.4787V72.4591H109.15V70.3187H106.066V67.1656H103.419V70.3187H101.923V72.4591H103.419V79.4787ZM110.417 83H113.041V70.3187H110.417V83ZM111.752 68.6385C112.673 68.6385 113.409 67.9021 113.409 66.9584C113.409 66.0148 112.673 65.2783 111.752 65.2783C110.809 65.2783 110.072 66.0148 110.072 66.9584C110.072 67.9021 110.809 68.6385 111.752 68.6385ZM133.31 83H135.911V75.5201C135.911 71.9757 133.655 70.1115 130.686 70.1115C128.845 70.1115 127.05 71.0782 126.267 72.6202C125.393 70.9631 123.713 70.1115 121.71 70.1115C120.191 70.1115 118.81 70.7329 117.959 71.7686V70.3187H115.335V83H117.959V75.9113C117.959 73.5868 119.225 72.39 121.158 72.39C123.068 72.39 124.334 73.5868 124.334 75.9113V83H126.935V75.9113C126.935 73.5868 128.201 72.39 130.134 72.39C132.044 72.39 133.31 73.5868 133.31 75.9113V83ZM143.438 72.321C145.394 72.321 146.936 73.5638 146.982 75.5201H139.963C140.239 73.5178 141.666 72.321 143.438 72.321ZM149.376 79.2255H146.545C146.062 80.2152 145.164 80.9977 143.553 80.9977C141.62 80.9977 140.124 79.7318 139.94 77.6375H149.629C149.698 77.2002 149.721 76.7859 149.721 76.3486C149.721 72.6202 147.167 70.1115 143.553 70.1115C139.802 70.1115 137.224 72.6662 137.224 76.6478C137.224 80.6294 139.917 83.2071 143.553 83.2071C146.66 83.2071 148.662 81.435 149.376 79.2255ZM150.278 76.6018C150.278 80.5144 152.925 83.2071 156.262 83.2071C158.333 83.2071 159.852 82.2405 160.658 81.0897V83H163.304V65.9688H160.658V72.0908C159.691 70.894 157.942 70.1115 156.285 70.1115C152.925 70.1115 150.278 72.6892 150.278 76.6018ZM160.658 76.6478C160.658 79.3866 158.793 80.9286 156.814 80.9286C154.858 80.9286 152.971 79.3406 152.971 76.6018C152.971 73.863 154.858 72.39 156.814 72.39C158.793 72.39 160.658 73.932 160.658 76.6478ZM165.6 83H168.224V70.3187H165.6V83ZM166.935 68.6385C167.855 68.6385 168.592 67.9021 168.592 66.9584C168.592 66.0148 167.855 65.2783 166.935 65.2783C165.991 65.2783 165.255 66.0148 165.255 66.9584C165.255 67.9021 165.991 68.6385 166.935 68.6385ZM169.643 76.6018C169.643 80.5144 172.29 83.2071 175.581 83.2071C177.698 83.2071 179.217 82.1945 180.023 81.1128V83H182.67V70.3187H180.023V72.1599C179.24 71.1242 177.767 70.1115 175.627 70.1115C172.29 70.1115 169.643 72.6892 169.643 76.6018ZM180.023 76.6478C180.023 79.3866 178.159 80.9286 176.179 80.9286C174.223 80.9286 172.336 79.3406 172.336 76.6018C172.336 73.863 174.223 72.39 176.179 72.39C178.159 72.39 180.023 73.932 180.023 76.6478ZM189.793 83H192.416V72.0448L197.319 83H199.137L204.016 72.0448V83H206.64V67.0045H203.832L198.239 79.5477L192.624 67.0045H189.793V83ZM208.063 76.6018C208.063 80.5144 210.71 83.2071 214.001 83.2071C216.118 83.2071 217.637 82.1945 218.443 81.1128V83H221.09V70.3187H218.443V72.1599C217.66 71.1242 216.187 70.1115 214.047 70.1115C210.71 70.1115 208.063 72.6892 208.063 76.6018ZM218.443 76.6478C218.443 79.3866 216.579 80.9286 214.599 80.9286C212.643 80.9286 210.756 79.3406 210.756 76.6018C210.756 73.863 212.643 72.39 214.599 72.39C216.579 72.39 218.443 73.932 218.443 76.6478ZM232.384 83H234.985V75.5201C234.985 71.9757 232.752 70.1115 229.783 70.1115C228.264 70.1115 226.86 70.7329 226.009 71.7686V70.3187H223.385V83H226.009V75.9113C226.009 73.5868 227.275 72.39 229.208 72.39C231.118 72.39 232.384 73.5868 232.384 75.9113V83ZM236.306 76.6018C236.306 80.5144 238.953 83.2071 242.244 83.2071C244.361 83.2071 245.88 82.1945 246.686 81.1128V83H249.333V70.3187H246.686V72.1599C245.903 71.1242 244.43 70.1115 242.29 70.1115C238.953 70.1115 236.306 72.6892 236.306 76.6018ZM246.686 76.6478C246.686 79.3866 244.822 80.9286 242.842 80.9286C240.886 80.9286 238.999 79.3406 238.999 76.6018C238.999 73.863 240.886 72.39 242.842 72.39C244.822 72.39 246.686 73.932 246.686 76.6478ZM250.753 76.6018C250.753 80.5144 253.4 83.2071 256.737 83.2071C258.809 83.2071 260.328 82.1715 261.133 81.0897V83.2071C261.133 85.7388 259.614 86.9816 257.589 86.9816C255.771 86.9816 254.367 86.084 253.976 84.7722H251.375C251.697 87.58 254.206 89.2601 257.589 89.2601C261.548 89.2601 263.78 86.6594 263.78 83.2071V70.3187H261.133V72.1599C260.351 71.0782 258.809 70.1115 256.737 70.1115C253.4 70.1115 250.753 72.6892 250.753 76.6018ZM261.133 76.6478C261.133 79.3866 259.269 80.9286 257.29 80.9286C255.333 80.9286 253.446 79.3406 253.446 76.6018C253.446 73.863 255.333 72.39 257.29 72.39C259.269 72.39 261.133 73.932 261.133 76.6478ZM271.415 72.321C273.371 72.321 274.913 73.5638 274.959 75.5201H267.94C268.216 73.5178 269.643 72.321 271.415 72.321ZM277.353 79.2255H274.522C274.039 80.2152 273.141 80.9977 271.53 80.9977C269.597 80.9977 268.101 79.7318 267.917 77.6375H277.606C277.675 77.2002 277.698 76.7859 277.698 76.3486C277.698 72.6202 275.143 70.1115 271.53 70.1115C267.779 70.1115 265.201 72.6662 265.201 76.6478C265.201 80.6294 267.894 83.2071 271.53 83.2071C274.637 83.2071 276.639 81.435 277.353 79.2255ZM297.104 83H299.705V75.5201C299.705 71.9757 297.449 70.1115 294.48 70.1115C292.639 70.1115 290.844 71.0782 290.061 72.6202C289.187 70.9631 287.507 70.1115 285.504 70.1115C283.985 70.1115 282.605 70.7329 281.753 71.7686V70.3187H279.129V83H281.753V75.9113C281.753 73.5868 283.019 72.39 284.952 72.39C286.862 72.39 288.128 73.5868 288.128 75.9113V83H290.729V75.9113C290.729 73.5868 291.995 72.39 293.928 72.39C295.838 72.39 297.104 73.5868 297.104 75.9113V83ZM307.232 72.321C309.189 72.321 310.731 73.5638 310.777 75.5201H303.757C304.033 73.5178 305.46 72.321 307.232 72.321ZM313.17 79.2255H310.339C309.856 80.2152 308.958 80.9977 307.347 80.9977C305.414 80.9977 303.918 79.7318 303.734 77.6375H313.423C313.492 77.2002 313.515 76.7859 313.515 76.3486C313.515 72.6202 310.961 70.1115 307.347 70.1115C303.596 70.1115 301.018 72.6662 301.018 76.6478C301.018 80.6294 303.711 83.2071 307.347 83.2071C310.454 83.2071 312.457 81.435 313.17 79.2255ZM323.946 83H326.546V75.5201C326.546 71.9757 324.314 70.1115 321.345 70.1115C319.826 70.1115 318.422 70.7329 317.57 71.7686V70.3187H314.947V83H317.57V75.9113C317.57 73.5868 318.836 72.39 320.769 72.39C322.68 72.39 323.946 73.5868 323.946 75.9113V83ZM329.156 79.4787C329.156 82.0564 330.56 83 332.816 83H334.887V80.8136H333.276C332.171 80.8136 331.803 80.4223 331.803 79.4787V72.4591H334.887V70.3187H331.803V67.1656H329.156V70.3187H327.661V72.4591H329.156V79.4787Z" fill="white"/>
<path d="M279.002 342.541H118V344.334H279.002V342.541Z" fill="#1D0030"/>
<path d="M275.13 306.13C317.496 263.764 317.496 195.076 275.13 152.71C232.764 110.344 164.076 110.344 121.71 152.71C79.3442 195.076 79.3442 263.764 121.71 306.13C164.076 348.496 232.764 348.496 275.13 306.13Z" fill="#460078"/>
<path d="M297.563 171.979V302.705C297.563 307.619 293.58 311.536 288.733 311.536H224.93" stroke="#C370FF" stroke-width="1.335" stroke-miterlimit="10" stroke-dasharray="2.67 2.67"/>
<path d="M98.9824 292.215V171.979C98.9824 167.066 102.966 163.149 107.813 163.149H171.749" stroke="#C370FF" stroke-width="1.335" stroke-miterlimit="10" stroke-dasharray="2.67 2.67"/>
<path d="M211.916 291.751H184.629L167.102 337.96H229.378L211.916 291.751Z" fill="#C1C9D9"/>
<path d="M232.897 344.267H163.583L160.596 337.827H235.885L232.897 344.267Z" fill="#DCE6F2"/>
<path d="M178.787 307.22L224.2 324.217L215.834 302.241H180.646L178.787 307.22Z" fill="#A5ACBA"/>
<path d="M288.667 307.154H107.88C105.423 307.154 103.432 305.162 103.432 302.705V171.979C103.432 169.522 105.423 167.53 107.88 167.53H288.667C291.123 167.53 293.115 169.522 293.115 171.979V302.705C293.115 305.162 291.123 307.154 288.667 307.154Z" fill="#C1C9D9"/>
<path d="M201.227 172.975C201.227 174.634 199.899 175.896 198.306 175.896C196.646 175.896 195.385 174.568 195.385 172.975C195.385 171.315 196.713 170.053 198.306 170.053C199.899 170.053 201.227 171.381 201.227 172.975Z" fill="#0A1D45"/>
<path d="M282.439 291.782V178.185L114.068 178.185L114.068 291.782H282.439Z" fill="#0A1D45"/>
<path d="M72.2963 315.254C72.2963 316.05 71.6323 316.714 70.8356 316.714C70.0389 316.714 69.375 316.05 69.375 315.254C69.375 314.457 70.0389 313.793 70.8356 313.793C71.6323 313.793 72.2963 314.457 72.2963 315.254Z" fill="#F15A24"/>
<path d="M77.1442 316.714C77.9509 316.714 78.6049 316.06 78.6049 315.254C78.6049 314.447 77.9509 313.793 77.1442 313.793C76.3375 313.793 75.6836 314.447 75.6836 315.254C75.6836 316.06 76.3375 316.714 77.1442 316.714Z" fill="#F15A24"/>
<path d="M83.3845 316.714C84.1911 316.714 84.8451 316.06 84.8451 315.254C84.8451 314.447 84.1911 313.793 83.3845 313.793C82.5778 313.793 81.9238 314.447 81.9238 315.254C81.9238 316.06 82.5778 316.714 83.3845 316.714Z" fill="#F15A24"/>
<path d="M89.6247 316.714C90.4314 316.714 91.0853 316.06 91.0853 315.254C91.0853 314.447 90.4314 313.793 89.6247 313.793C88.818 313.793 88.1641 314.447 88.1641 315.254C88.1641 316.06 88.818 316.714 89.6247 316.714Z" fill="#F15A24"/>
<path d="M95.9333 316.714C96.74 316.714 97.3939 316.06 97.3939 315.254C97.3939 314.447 96.74 313.793 95.9333 313.793C95.1266 313.793 94.4727 314.447 94.4727 315.254C94.4727 316.06 95.1266 316.714 95.9333 316.714Z" fill="#F15A24"/>
<path d="M102.172 316.714C102.978 316.714 103.632 316.06 103.632 315.254C103.632 314.447 102.978 313.793 102.172 313.793C101.365 313.793 100.711 314.447 100.711 315.254C100.711 316.06 101.365 316.714 102.172 316.714Z" fill="#F15A24"/>
<path d="M108.48 316.714C109.287 316.714 109.941 316.06 109.941 315.254C109.941 314.447 109.287 313.793 108.48 313.793C107.673 313.793 107.02 314.447 107.02 315.254C107.02 316.06 107.673 316.714 108.48 316.714Z" fill="#F15A24"/>
<path d="M114.722 316.714C115.529 316.714 116.183 316.06 116.183 315.254C116.183 314.447 115.529 313.793 114.722 313.793C113.916 313.793 113.262 314.447 113.262 315.254C113.262 316.06 113.916 316.714 114.722 316.714Z" fill="#F15A24"/>
<path d="M193.994 140.907C193.994 141.704 193.33 142.368 192.533 142.368C191.736 142.368 191.072 141.704 191.072 140.907C191.072 140.11 191.736 139.446 192.533 139.446C193.33 139.446 193.994 140.11 193.994 140.907Z" fill="#F15A24"/>
<path d="M200.236 140.907C200.236 141.704 199.572 142.368 198.775 142.368C197.978 142.368 197.314 141.704 197.314 140.907C197.314 140.11 197.978 139.446 198.775 139.446C199.572 139.446 200.236 140.11 200.236 140.907Z" fill="#F15A24"/>
<path d="M206.54 140.907C206.54 141.704 205.876 142.368 205.08 142.368C204.283 142.368 203.619 141.704 203.619 140.907C203.619 140.11 204.283 139.446 205.08 139.446C205.876 139.446 206.54 140.11 206.54 140.907Z" fill="#F15A24"/>
<path d="M212.783 140.907C212.783 141.704 212.119 142.368 211.322 142.368C210.525 142.368 209.861 141.704 209.861 140.907C209.861 140.11 210.525 139.446 211.322 139.446C212.119 139.446 212.783 140.11 212.783 140.907Z" fill="#F15A24"/>
<path d="M219.091 140.907C219.091 141.704 218.427 142.368 217.631 142.368C216.834 142.368 216.17 141.704 216.17 140.907C216.17 140.11 216.834 139.446 217.631 139.446C218.427 139.446 219.091 140.11 219.091 140.907Z" fill="#F15A24"/>
<path d="M225.329 140.907C225.329 141.704 224.666 142.368 223.869 142.368C223.072 142.368 222.408 141.704 222.408 140.907C222.408 140.11 223.072 139.446 223.869 139.446C224.666 139.446 225.329 140.11 225.329 140.907Z" fill="#F15A24"/>
<path d="M231.638 140.907C231.638 141.704 230.974 142.368 230.177 142.368C229.381 142.368 228.717 141.704 228.717 140.907C228.717 140.11 229.381 139.446 230.177 139.446C230.974 139.446 231.638 140.11 231.638 140.907Z" fill="#F15A24"/>
<path d="M237.88 140.907C237.88 141.704 237.216 142.368 236.42 142.368C235.623 142.368 234.959 141.704 234.959 140.907C234.959 140.11 235.623 139.446 236.42 139.446C237.216 139.446 237.88 140.11 237.88 140.907Z" fill="#F15A24"/>
<path d="M313.235 288.365C313.235 290.489 311.509 292.215 309.384 292.215C307.259 292.215 305.533 290.489 305.533 288.365C305.533 286.24 307.259 284.514 309.384 284.514C311.509 284.514 313.235 286.24 313.235 288.365Z" fill="#0CBA83"/>
<path d="M92.014 164.543C92.014 166.667 90.2878 168.393 88.1633 168.393C86.0387 168.393 84.3125 166.667 84.3125 164.543C84.3125 162.418 86.0387 160.692 88.1633 160.692C90.2878 160.692 92.014 162.418 92.014 164.543Z" fill="#ED1E79"/>
<path d="M149.776 308.88C149.776 311.005 148.05 312.731 145.925 312.731C143.8 312.731 142.074 311.005 142.074 308.88C142.074 306.755 143.8 305.029 145.925 305.029C148.116 305.096 149.776 306.755 149.776 308.88Z" fill="#29ABE2"/>
<path d="M227.853 191.896H127.401C124.945 191.896 122.953 193.888 122.953 196.345V199V295.934H232.235V199V196.345C232.235 193.888 230.243 191.896 227.853 191.896Z" fill="#A5ACBA"/>
<path d="M227.786 187.183C227.786 184.726 225.794 182.734 223.338 182.734H122.952C120.496 182.734 118.504 184.726 118.504 187.183V189.838H227.786V187.183Z" fill="#0059D6"/>
<path d="M227.786 189.838H118.504V286.771H227.786V189.838Z" fill="#E4EBFD"/>
<path d="M219.949 197.208H190.936V201.723H219.949V197.208Z" fill="#BECBEB"/>
<path d="M219.949 205.308H190.936V209.822H219.949V205.308Z" fill="#BECBEB"/>
<path d="M219.949 213.408H190.936V217.922H219.949V213.408Z" fill="#BECBEB"/>
<path d="M219.949 221.507H190.936V226.022H219.949V221.507Z" fill="#BECBEB"/>
<path d="M219.949 229.607H190.936V234.122H219.949V229.607Z" fill="#BECBEB"/>
<path d="M221.878 239.765H189.943V283.651H221.878V239.765Z" stroke="#0068FA" stroke-width="0.6675" stroke-miterlimit="10" stroke-dasharray="2.67 2.67"/>
<path d="M219.621 242.023H192.201V281.393H219.621V242.023Z" fill="white"/>
<path d="M216.765 244.346H194.988V279.07H216.765V244.346Z" fill="#2FCBE0"/>
<path d="M204.55 248.927H206.741L211.256 274.422H209.197L208.334 269.244H203.222L202.425 274.422H200.434L204.55 248.927ZM208.069 267.451L205.745 253.044L203.62 267.451H208.069Z" fill="black"/>
<path d="M184.366 239.301H124.082V243.815H184.366V239.301Z" fill="#BECBEB"/>
<path d="M184.366 248.264H124.082V252.778H184.366V248.264Z" fill="#BECBEB"/>
<path d="M160.133 257.16H124.082V261.675H160.133V257.16Z" fill="#BECBEB"/>
<path d="M152.564 266.057H124.082V270.572H152.564V266.057Z" fill="#BECBEB"/>
<path d="M168.631 274.953H161.195V279.468H168.631V274.953Z" fill="#ED1E79"/>
<path d="M157.942 274.953H124.082V279.468H157.942V274.953Z" fill="#BECBEB"/>
<path d="M177.595 257.16H162.988V261.675H177.595V257.16Z" fill="#FBB03B"/>
<path d="M184.367 266.057H156.881V270.572H184.367V266.057Z" fill="#BECBEB"/>
<path d="M184.431 274.953H172.812V279.468H184.431V274.953Z" fill="#BECBEB"/>
<path d="M180.247 200.926H128.262V231.267H180.247V200.926Z" fill="#0A1D45"/>
<path d="M159.469 212.345L153.56 224.827L144.398 205.308L132.115 231.267H156.614V231.201H168.432L159.469 212.345Z" fill="#133785"/>
<path d="M171.819 204.246C169.296 204.246 167.238 206.304 167.238 208.827C167.238 211.35 169.296 213.408 171.819 213.408C174.342 213.408 176.4 211.35 176.4 208.827C176.4 206.304 174.342 204.246 171.819 204.246Z" fill="#FBB03B"/>
<path d="M184.361 197.208H124.076V234.919H184.361V197.208Z" stroke="#0068FA" stroke-width="0.6675" stroke-miterlimit="10" stroke-dasharray="2.67 2.67"/>
<path d="M185.423 196.212H183.365V198.27H185.423V196.212Z" fill="#0A1D45"/>
<path d="M125.138 196.212H123.08V198.27H125.138V196.212Z" fill="#0A1D45"/>
<path d="M185.423 233.923H183.365V235.981H185.423V233.923Z" fill="#0A1D45"/>
<path d="M125.138 233.923H123.08V235.981H125.138V233.923Z" fill="#0A1D45"/>
<path d="M274.99 186.319H235.287V226.022H274.99V186.319Z" stroke="#0068FA" stroke-width="0.6675" stroke-miterlimit="10" stroke-dasharray="2.67 2.67"/>
<path d="M271.474 189.838H238.809V222.503H271.474V189.838Z" fill="#103173"/>
<path d="M262.182 213.212C266.072 209.323 266.072 203.018 262.182 199.128C258.293 195.239 251.988 195.239 248.099 199.128C244.209 203.018 244.209 209.323 248.099 213.212C251.988 217.101 258.293 217.101 262.182 213.212Z" fill="#0A1D45"/>
<path d="M252.949 199.996V212.345L260.85 206.171L252.949 199.996Z" fill="#ED1E79"/>
<path d="M219.09 167.53C219.621 172.244 223.605 175.962 228.518 175.962H277.449C282.295 175.962 286.345 172.311 286.877 167.53H219.09Z" fill="#A5ACBA"/>
<path d="M274.396 172.975H225.398C220.153 172.975 215.904 168.726 215.904 163.481C215.904 158.236 220.153 153.986 225.398 153.986H274.396C279.641 153.986 283.89 158.236 283.89 163.481C283.89 168.792 279.641 172.975 274.396 172.975Z" fill="#DCE6F2"/>
<path d="M273.6 169.589H225.997C222.677 169.589 219.955 166.867 219.955 163.547C219.955 160.227 222.677 157.505 225.997 157.505H273.6C276.92 157.505 279.642 160.227 279.642 163.547C279.642 166.867 276.92 169.589 273.6 169.589Z" fill="#BECBEB"/>
<path d="M231.309 165.871L229.251 163.945C229.45 163.547 229.583 163.082 229.583 162.684C229.583 161.223 228.388 159.962 226.861 159.962C225.4 159.962 224.139 161.157 224.139 162.684C224.139 164.144 225.334 165.406 226.861 165.406C227.392 165.406 227.857 165.273 228.321 164.941L230.38 166.867C230.512 166.999 230.645 167.066 230.844 167.066C231.043 167.066 231.243 166.999 231.309 166.867C231.442 166.734 231.508 166.535 231.508 166.402C231.508 166.203 231.442 166.003 231.309 165.871ZM228.454 162.684C228.454 163.547 227.724 164.277 226.861 164.277C225.998 164.277 225.267 163.547 225.267 162.684C225.267 161.821 225.998 161.09 226.861 161.09C227.724 161.09 228.454 161.821 228.454 162.684Z" fill="#E4EBFD"/>
<path d="M293.115 248.264H246.441C245.445 248.264 244.648 249.06 244.648 250.056V277.742C244.648 278.738 245.445 279.535 246.441 279.535H293.115V248.264Z" fill="#A5ACBA"/>
<path d="M305.728 274.09V275.02H304.865" stroke="#0068FA" stroke-width="0.6675" stroke-miterlimit="10"/>
<path d="M303.072 275.02H237.477" stroke="#0068FA" stroke-width="0.6675" stroke-miterlimit="10" stroke-dasharray="2.64 2.64"/>
<path d="M236.613 275.02H235.684V274.09" stroke="#0068FA" stroke-width="0.6675" stroke-miterlimit="10"/>
<path d="M235.684 272.431V239.301" stroke="#0068FA" stroke-width="0.6675" stroke-miterlimit="10" stroke-dasharray="2.56 2.56"/>
<path d="M235.684 238.438V237.575H236.613" stroke="#0068FA" stroke-width="0.6675" stroke-miterlimit="10"/>
<path d="M238.34 237.575H304.002" stroke="#0068FA" stroke-width="0.6675" stroke-miterlimit="10" stroke-dasharray="2.64 2.64"/>
<path d="M304.865 237.575H305.728V238.438" stroke="#0068FA" stroke-width="0.6675" stroke-miterlimit="10"/>
<path d="M305.729 240.164V273.294" stroke="#0068FA" stroke-width="0.6675" stroke-miterlimit="10" stroke-dasharray="2.56 2.56"/>
<path d="M306.722 236.512H304.664V238.57H306.722V236.512Z" fill="#DCE6F2"/>
<path d="M236.746 236.512H234.688V238.57H236.746V236.512Z" fill="#DCE6F2"/>
<path d="M306.722 273.958H304.664V276.016H306.722V273.958Z" fill="#DCE6F2"/>
<path d="M236.746 273.958H234.688V276.016H236.746V273.958Z" fill="#DCE6F2"/>
<path d="M300.884 271.899H240.599C239.603 271.899 238.807 271.103 238.807 270.107V242.421C238.807 241.425 239.603 240.629 240.599 240.629H300.884C301.879 240.629 302.676 241.425 302.676 242.421V270.107C302.61 271.103 301.813 271.899 300.884 271.899Z" fill="#DCE6F2"/>
<path d="M282.228 245.409H262.51V249.26H282.228V245.409Z" fill="#BECBEB"/>
<path d="M287.673 251.783H262.51V255.633H287.673V251.783Z" fill="#BECBEB"/>
<path d="M300.552 251.783H289.863V255.633H300.552V251.783Z" fill="#E43438"/>
<path d="M283.708 249.255H289.219V245.405H283.708V249.255Z" fill="#BECBEB"/>
<path d="M290.58 249.255H299.145V245.405H290.58V249.255Z" fill="#BECBEB"/>
<path d="M282.228 258.09H262.51V261.941H282.228V258.09Z" fill="#BECBEB"/>
<path d="M300.486 264.464H262.51V268.314H300.486V264.464Z" fill="#BECBEB"/>
<path d="M283.708 261.975H289.219V258.124H283.708V261.975Z" fill="#ED1E79"/>
<path d="M290.58 261.975H299.145V258.124H290.58V261.975Z" fill="#BECBEB"/>
<path d="M250.692 246.139C247.173 246.139 244.385 248.994 244.385 252.446V254.438H246.377V252.247C246.377 249.857 248.302 247.932 250.692 247.932C253.082 247.932 255.008 249.857 255.008 252.247V254.438H256.999V252.446C257.066 248.994 254.211 246.139 250.692 246.139Z" fill="#0A1D45"/>
<path d="M256.999 254.438H244.451C243.986 254.438 243.588 254.837 243.588 255.301V265.592C243.588 266.057 243.986 266.455 244.451 266.455H256.999C257.464 266.455 257.862 266.057 257.862 265.592V255.301C257.862 254.837 257.464 254.438 256.999 254.438ZM251.688 262.671H249.762L250.028 260.546C249.696 260.347 249.43 259.882 249.43 259.484C249.43 258.754 250.028 258.156 250.758 258.156C251.489 258.156 252.086 258.754 252.086 259.484C252.086 259.949 251.821 260.347 251.489 260.546L251.688 262.671Z" fill="#FBBF62"/>
<path d="M251.422 287.966C240.334 287.966 231.371 293.875 231.371 301.112C231.371 306.822 236.948 311.669 244.65 313.461V322.225L252.683 314.191C263.173 313.793 271.472 308.083 271.472 301.112C271.472 293.809 262.509 287.966 251.422 287.966ZM242.591 303.834C241.064 303.834 239.803 302.573 239.803 301.046C239.803 299.519 241.064 298.257 242.591 298.257C244.118 298.257 245.38 299.519 245.38 301.046C245.38 302.573 244.185 303.834 242.591 303.834ZM251.422 303.834C249.895 303.834 248.633 302.573 248.633 301.046C248.633 299.519 249.895 298.257 251.422 298.257C252.949 298.257 254.21 299.519 254.21 301.046C254.21 302.573 252.949 303.834 251.422 303.834ZM260.185 303.834C258.658 303.834 257.397 302.573 257.397 301.046C257.397 299.519 258.658 298.257 260.185 298.257C261.712 298.257 262.974 299.519 262.974 301.046C262.974 302.573 261.712 303.834 260.185 303.834Z" fill="#E43438"/>
<path d="M175.467 150.932V147.48L173.21 147.015C173.144 146.882 173.077 146.683 173.011 146.551L174.272 144.625L171.816 142.169L169.89 143.43C169.758 143.364 169.558 143.297 169.426 143.231L168.961 140.974H165.442L164.977 143.231C164.844 143.297 164.645 143.364 164.513 143.43L162.587 142.169L160.131 144.625L161.392 146.551C161.326 146.683 161.259 146.882 161.193 147.015L158.936 147.48V150.999L161.193 151.464C161.259 151.596 161.326 151.796 161.392 151.928L160.131 153.854L162.587 156.31L164.513 155.049C164.645 155.115 164.844 155.182 164.977 155.248L165.442 157.505H168.961L169.426 155.248C169.558 155.182 169.758 155.115 169.89 155.049L171.816 156.31L174.272 153.854L173.011 151.928C173.077 151.796 173.144 151.596 173.21 151.464L175.467 150.932ZM167.235 152.459C165.442 152.459 163.981 150.999 163.981 149.206C163.981 147.414 165.442 145.953 167.235 145.953C169.027 145.953 170.488 147.414 170.488 149.206C170.488 150.999 169.027 152.459 167.235 152.459Z" fill="#0059D6"/>
<path d="M127.996 167.53L132.71 172.244L136.428 169.788C136.76 169.921 137.025 170.053 137.357 170.186L138.221 174.568H145.059L145.922 170.186C146.254 170.053 146.586 169.921 146.852 169.788L150.57 172.244L155.283 167.53H127.996Z" fill="#A5ACBA"/>
<path d="M154.554 159.231V152.393L150.172 151.53C150.039 151.198 149.906 150.866 149.774 150.6L152.23 146.882L147.383 142.036L143.665 144.492C143.334 144.36 143.068 144.227 142.736 144.094L141.873 139.712H135.034L134.171 144.094C133.839 144.227 133.507 144.36 133.242 144.492L129.524 142.036L124.611 146.816L127.067 150.534C126.935 150.866 126.802 151.132 126.669 151.464L122.287 152.327V159.165L126.669 160.028C126.802 160.36 126.935 160.692 127.067 160.958L124.611 164.676L129.457 169.522L133.175 167.066C133.507 167.199 133.773 167.331 134.105 167.464L134.968 171.846H141.806L142.67 167.464C143.002 167.331 143.334 167.199 143.599 167.066L147.317 169.522L152.164 164.676L149.707 160.958C149.84 160.626 149.973 160.36 150.106 160.028L154.554 159.231ZM138.42 162.219C134.902 162.219 132.047 159.364 132.047 155.845C132.047 152.327 134.902 149.472 138.42 149.472C141.939 149.472 144.794 152.327 144.794 155.845C144.794 159.298 141.939 162.219 138.42 162.219Z" fill="#0CBA83"/>
<path d="M320.208 215.8C327.623 208.385 327.623 196.362 320.207 188.947C312.792 181.532 300.77 181.532 293.354 188.947C285.939 196.362 285.939 208.385 293.354 215.8C300.77 223.216 312.792 223.216 320.208 215.8Z" fill="#E4EBFD"/>
<path d="M310.112 187.581V198.536L306.793 200.262L303.473 198.536V187.581C299.556 188.975 296.701 192.693 296.701 197.075C296.701 201.391 299.357 205.042 303.141 206.503V218.387C304.27 218.653 305.531 218.785 306.726 218.785C307.988 218.785 309.183 218.653 310.312 218.387V206.503C314.096 205.042 316.752 201.391 316.752 197.075C316.818 192.693 314.03 188.975 310.112 187.581Z" fill="#0059D6"/>
<path d="M131.053 257.227H103.566V288.298H131.053C132.049 288.298 132.845 287.767 132.845 287.103V258.422C132.779 257.758 131.982 257.227 131.053 257.227Z" fill="#A5ACBA"/>
<path d="M127.534 283.651H66.32C65.5233 283.651 64.8594 282.987 64.8594 282.19V254.837C64.8594 254.04 65.5233 253.376 66.32 253.376H127.534C128.331 253.376 128.995 254.04 128.995 254.837V282.19C128.995 282.987 128.331 283.651 127.534 283.651Z" fill="#DCE6F2"/>
<path d="M95.9999 279.068H123.818V275.151H95.9999V279.068Z" fill="#BECBEB"/>
<path d="M95.9999 273.162H123.818V269.245H95.9999V273.162Z" fill="#BECBEB"/>
<path d="M95.9742 267.256H112.971V263.339H95.9742V267.256Z" fill="#BECBEB"/>
<path d="M115.992 267.256H123.826V263.339H115.992V267.256Z" fill="#0CBA83"/>
<path d="M95.9999 261.35H123.818V257.433H95.9999V261.35Z" fill="#BECBEB"/>
<path d="M92.015 257.16H70.0391V279.136H92.015V257.16Z" fill="#0059D6"/>
<path d="M73.8906 268.381V267.318L78.2061 265.393V266.522L74.9529 267.85L78.2061 269.177V270.306L73.8906 268.381Z" fill="white"/>
<path d="M81.9251 264.065H83.3858L80.1989 271.634H78.7383L81.9251 264.065Z" fill="white"/>
<path d="M83.8496 269.177L87.1028 267.85L83.8496 266.522V265.393L88.1651 267.318V268.381L83.8496 270.306V269.177Z" fill="white"/>
<path d="M112.729 209.358H103.434V234.72H112.729V209.358Z" fill="#A5ACBA"/>
<path d="M109.076 204.179H63V229.541H109.076V204.179Z" fill="#FBB03B"/>
<path d="M86.0382 229.541H109.076L86.0382 213.673L63 229.541H86.0382Z" fill="#FBBF62"/>
<path d="M86.0382 204.179H63L86.0382 220.047L109.076 204.179H86.0382Z" fill="#FF9129"/>
</svg>
