<svg width="1226" height="124" viewBox="0 0 1226 124" fill="none" xmlns="http://www.w3.org/2000/svg">
<g filter="url(#filter0_d_955_8)">
<rect x="24" y="1" width="365" height="47" fill="white" shape-rendering="crispEdges"/>
<rect x="23.7658" y="0.765849" width="365.468" height="47.4683" stroke="black" stroke-opacity="0.2" stroke-width="0.468302" shape-rendering="crispEdges"/>
</g>
<path d="M149.191 17.49H145.105V30H149.191C153.205 30 155.833 27.642 155.833 23.79C155.833 19.92 153.205 17.49 149.191 17.49ZM147.157 28.326V19.164H149.191C152.143 19.164 153.727 20.928 153.727 23.79C153.727 26.634 152.143 28.326 149.191 28.326H147.157ZM157.183 24.996C157.183 28.056 159.253 30.162 161.827 30.162C163.483 30.162 164.671 29.37 165.301 28.524V30H167.371V20.082H165.301V21.522C164.689 20.712 163.537 19.92 161.863 19.92C159.253 19.92 157.183 21.936 157.183 24.996ZM165.301 25.032C165.301 27.174 163.843 28.38 162.295 28.38C160.765 28.38 159.289 27.138 159.289 24.996C159.289 22.854 160.765 21.702 162.295 21.702C163.843 21.702 165.301 22.908 165.301 25.032ZM170.39 27.246C170.39 29.262 171.488 30 173.252 30H174.872V28.29H173.612C172.748 28.29 172.46 27.984 172.46 27.246V21.756H174.872V20.082H172.46V17.616H170.39V20.082H169.22V21.756H170.39V27.246ZM176.079 24.996C176.079 28.056 178.149 30.162 180.723 30.162C182.379 30.162 183.567 29.37 184.197 28.524V30H186.267V20.082H184.197V21.522C183.585 20.712 182.433 19.92 180.759 19.92C178.149 19.92 176.079 21.936 176.079 24.996ZM184.197 25.032C184.197 27.174 182.739 28.38 181.191 28.38C179.661 28.38 178.185 27.138 178.185 24.996C178.185 22.854 179.661 21.702 181.191 21.702C182.739 21.702 184.197 22.908 184.197 25.032ZM202.08 26.454C202.08 21.882 195.456 23.646 195.456 20.82C195.456 19.614 196.374 19.038 197.562 19.074C198.858 19.11 199.596 19.884 199.668 20.73H201.936C201.756 18.588 200.064 17.328 197.67 17.328C195.114 17.328 193.368 18.696 193.368 20.892C193.368 25.5 200.01 23.538 200.01 26.562C200.01 27.624 199.2 28.398 197.76 28.398C196.338 28.398 195.618 27.57 195.528 26.544H193.332C193.332 28.758 195.258 30.126 197.76 30.126C200.55 30.126 202.08 28.326 202.08 26.454ZM203.817 25.032C203.817 28.146 205.833 30.162 208.677 30.162C211.107 30.162 212.691 28.812 213.249 26.868H211.035C210.657 27.894 209.901 28.434 208.677 28.434C207.021 28.434 205.923 27.21 205.923 25.032C205.923 22.872 207.021 21.648 208.677 21.648C209.901 21.648 210.693 22.26 211.035 23.214H213.249C212.691 21.126 211.107 19.92 208.677 19.92C205.833 19.92 203.817 21.936 203.817 25.032ZM215.294 30H217.346V20.082H215.294V30ZM216.338 18.768C217.058 18.768 217.634 18.192 217.634 17.454C217.634 16.716 217.058 16.14 216.338 16.14C215.6 16.14 215.024 16.716 215.024 17.454C215.024 18.192 215.6 18.768 216.338 18.768ZM224.216 21.648C225.746 21.648 226.952 22.62 226.988 24.15H221.498C221.714 22.584 222.83 21.648 224.216 21.648ZM228.86 27.048H226.646C226.268 27.822 225.566 28.434 224.306 28.434C222.794 28.434 221.624 27.444 221.48 25.806H229.058C229.112 25.464 229.13 25.14 229.13 24.798C229.13 21.882 227.132 19.92 224.306 19.92C221.372 19.92 219.356 21.918 219.356 25.032C219.356 28.146 221.462 30.162 224.306 30.162C226.736 30.162 228.302 28.776 228.86 27.048ZM238.188 30H240.222V24.15C240.222 21.378 238.476 19.92 236.154 19.92C234.966 19.92 233.868 20.406 233.202 21.216V20.082H231.15V30H233.202V24.456C233.202 22.638 234.192 21.702 235.704 21.702C237.198 21.702 238.188 22.638 238.188 24.456V30ZM243.163 27.246C243.163 29.262 244.261 30 246.025 30H247.645V28.29H246.385C245.521 28.29 245.233 27.984 245.233 27.246V21.756H247.645V20.082H245.233V17.616H243.163V20.082H241.993V21.756H243.163V27.246ZM249.537 30H251.589V20.082H249.537V30ZM250.581 18.768C251.301 18.768 251.877 18.192 251.877 17.454C251.877 16.716 251.301 16.14 250.581 16.14C249.843 16.14 249.267 16.716 249.267 17.454C249.267 18.192 249.843 18.768 250.581 18.768ZM261.681 27.228C261.573 23.646 255.975 24.762 255.975 22.764C255.975 22.098 256.551 21.648 257.649 21.648C258.765 21.648 259.431 22.242 259.503 23.106H261.555C261.447 21.126 259.971 19.92 257.721 19.92C255.381 19.92 253.905 21.198 253.905 22.782C253.905 26.418 259.665 25.302 259.665 27.246C259.665 27.93 259.035 28.434 257.847 28.434C256.713 28.434 255.939 27.768 255.867 26.958H253.743C253.833 28.758 255.507 30.162 257.883 30.162C260.223 30.162 261.681 28.902 261.681 27.228ZM264.222 27.246C264.222 29.262 265.32 30 267.084 30H268.704V28.29H267.444C266.58 28.29 266.292 27.984 266.292 27.246V21.756H268.704V20.082H266.292V17.616H264.222V20.082H263.052V21.756H264.222V27.246Z" fill="#212832"/>
<path d="M389 1H387V48H389V1Z" fill="#946FB0" stroke="#946FB0" stroke-width="0.936604"/>
<circle cx="24.4151" cy="24.4151" r="23.4151" fill="#946FB0" stroke="#946FB0"/>
<path d="M16.3494 23.9942C16.3494 27.9654 17.3983 30.9625 21.2197 30.9625C25.041 30.9625 26.09 27.9654 26.09 23.9942C26.09 20.0979 25.041 17.1008 21.2197 17.1008C17.3983 17.1008 16.3494 20.0979 16.3494 23.9942ZM23.992 23.9942C23.992 26.6729 23.7111 29.0144 21.2197 29.0144C18.7283 29.0144 18.4473 26.6729 18.4473 23.9942C18.4473 21.4466 18.7283 19.0489 21.2197 19.0489C23.7111 19.0489 23.992 21.4466 23.992 23.9942ZM29.8107 31H31.9649V17.3443H28.0686V19.2925H29.8107V31Z" fill="#212832"/>
<g filter="url(#filter1_d_955_8)">
<rect x="24" y="76" width="365" height="47" fill="white" shape-rendering="crispEdges"/>
<rect x="23.7658" y="75.7658" width="365.468" height="47.4683" stroke="black" stroke-opacity="0.2" stroke-width="0.468302" shape-rendering="crispEdges"/>
</g>
<path d="M114.369 106H116.421V100.528H120.561V98.854H116.421V95.164H121.731V93.49H114.369V106ZM132.614 96.082H130.562V101.608C130.562 103.426 129.572 104.362 128.06 104.362C126.566 104.362 125.576 103.426 125.576 101.608V96.082H123.542V101.914C123.542 104.686 125.306 106.144 127.628 106.144C128.798 106.144 129.914 105.658 130.562 104.812V106H132.614V96.082ZM135.322 106H137.374V92.68H135.322V106ZM140.068 106H142.12V92.68H140.068V106ZM145.03 100.348H152.428V98.62H145.03V100.348ZM163.785 102.454C163.785 97.882 157.161 99.646 157.161 96.82C157.161 95.614 158.079 95.038 159.267 95.074C160.563 95.11 161.301 95.884 161.373 96.73H163.641C163.461 94.588 161.769 93.328 159.375 93.328C156.819 93.328 155.073 94.696 155.073 96.892C155.073 101.5 161.715 99.538 161.715 102.562C161.715 103.624 160.905 104.398 159.465 104.398C158.043 104.398 157.323 103.57 157.233 102.544H155.037C155.037 104.758 156.963 106.126 159.465 106.126C162.255 106.126 163.785 104.326 163.785 102.454ZM166.53 103.246C166.53 105.262 167.628 106 169.392 106H171.012V104.29H169.752C168.888 104.29 168.6 103.984 168.6 103.246V97.756H171.012V96.082H168.6V93.616H166.53V96.082H165.36V97.756H166.53V103.246ZM172.22 100.996C172.22 104.056 174.29 106.162 176.864 106.162C178.52 106.162 179.708 105.37 180.338 104.524V106H182.408V96.082H180.338V97.522C179.726 96.712 178.574 95.92 176.9 95.92C174.29 95.92 172.22 97.936 172.22 100.996ZM180.338 101.032C180.338 103.174 178.88 104.38 177.332 104.38C175.802 104.38 174.326 103.138 174.326 100.996C174.326 98.854 175.802 97.702 177.332 97.702C178.88 97.702 180.338 98.908 180.338 101.032ZM184.419 101.032C184.419 104.146 186.435 106.162 189.279 106.162C191.709 106.162 193.293 104.812 193.851 102.868H191.637C191.259 103.894 190.503 104.434 189.279 104.434C187.623 104.434 186.525 103.21 186.525 101.032C186.525 98.872 187.623 97.648 189.279 97.648C190.503 97.648 191.295 98.26 191.637 99.214H193.851C193.293 97.126 191.709 95.92 189.279 95.92C186.435 95.92 184.419 97.936 184.419 101.032ZM195.896 106H197.948V101.734L201.62 106H204.392L199.82 101.05L204.392 96.082H201.548L197.948 100.42V92.68H195.896V106ZM214.624 93.49H210.538V106H214.624C218.638 106 221.266 103.642 221.266 99.79C221.266 95.92 218.638 93.49 214.624 93.49ZM212.59 104.326V95.164H214.624C217.576 95.164 219.16 96.928 219.16 99.79C219.16 102.634 217.576 104.326 214.624 104.326H212.59ZM227.476 97.648C229.006 97.648 230.212 98.62 230.248 100.15H224.758C224.974 98.584 226.09 97.648 227.476 97.648ZM232.12 103.048H229.906C229.528 103.822 228.826 104.434 227.566 104.434C226.054 104.434 224.884 103.444 224.74 101.806H232.318C232.372 101.464 232.39 101.14 232.39 100.798C232.39 97.882 230.392 95.92 227.566 95.92C224.632 95.92 222.616 97.918 222.616 101.032C222.616 104.146 224.722 106.162 227.566 106.162C229.996 106.162 231.562 104.776 232.12 103.048ZM233.24 96.082L237.002 106H239.45L243.23 96.082H241.052L238.244 104.164L235.436 96.082H233.24ZM248.957 97.648C250.487 97.648 251.693 98.62 251.729 100.15H246.239C246.455 98.584 247.571 97.648 248.957 97.648ZM253.601 103.048H251.387C251.009 103.822 250.307 104.434 249.047 104.434C247.535 104.434 246.365 103.444 246.221 101.806H253.799C253.853 101.464 253.871 101.14 253.871 100.798C253.871 97.882 251.873 95.92 249.047 95.92C246.113 95.92 244.097 97.918 244.097 101.032C244.097 104.146 246.203 106.162 249.047 106.162C251.477 106.162 253.043 104.776 253.601 103.048ZM255.89 106H257.942V92.68H255.89V106ZM270.086 101.032C270.086 97.918 267.854 95.92 265.028 95.92C262.202 95.92 259.97 97.918 259.97 101.032C259.97 104.146 262.112 106.162 264.938 106.162C267.782 106.162 270.086 104.146 270.086 101.032ZM262.058 101.032C262.058 98.782 263.444 97.702 264.992 97.702C266.522 97.702 267.98 98.782 267.98 101.032C267.98 103.282 266.468 104.38 264.938 104.38C263.39 104.38 262.058 103.282 262.058 101.032ZM274.167 97.54V96.082H272.115V110.716H274.167V104.56C274.815 105.334 275.985 106.162 277.623 106.162C280.233 106.162 282.285 104.056 282.285 100.996C282.285 97.936 280.233 95.92 277.623 95.92C276.003 95.92 274.797 96.712 274.167 97.54ZM280.197 100.996C280.197 103.138 278.721 104.38 277.173 104.38C275.643 104.38 274.167 103.174 274.167 101.032C274.167 98.908 275.643 97.702 277.173 97.702C278.721 97.702 280.197 98.854 280.197 100.996ZM288.49 97.648C290.02 97.648 291.226 98.62 291.262 100.15H285.772C285.988 98.584 287.104 97.648 288.49 97.648ZM293.134 103.048H290.92C290.542 103.822 289.84 104.434 288.58 104.434C287.068 104.434 285.898 103.444 285.754 101.806H293.332C293.386 101.464 293.404 101.14 293.404 100.798C293.404 97.882 291.406 95.92 288.58 95.92C285.646 95.92 283.63 97.918 283.63 101.032C283.63 104.146 285.736 106.162 288.58 106.162C291.01 106.162 292.576 104.776 293.134 103.048ZM297.475 100.78C297.475 98.674 298.411 98.044 299.923 98.044H300.445V95.92C299.041 95.92 298.051 96.532 297.475 97.522V96.082H295.423V106H297.475V100.78Z" fill="#212832"/>
<path d="M389 76H387V123H389V76Z" fill="#CF1C54" stroke="#CF1C54" stroke-width="0.936604"/>
<circle cx="24.4151" cy="99.4151" r="23.4151" fill="#E9336C" stroke="#E9336C"/>
<path d="M13.4777 99.6055C13.4777 103.577 14.5267 106.574 18.348 106.574C22.1694 106.574 23.2184 103.577 23.2184 99.6055C23.2184 95.7093 22.1694 92.7121 18.348 92.7121C14.5267 92.7121 13.4777 95.7093 13.4777 99.6055ZM21.1204 99.6055C21.1204 102.284 20.8394 104.626 18.348 104.626C15.8567 104.626 15.5757 102.284 15.5757 99.6055C15.5757 97.058 15.8567 94.6603 18.348 94.6603C20.8394 94.6603 21.1204 97.058 21.1204 99.6055ZM31.9967 106.611H34.0947V103.764H35.8368V101.91H34.0947V93.1242H31.5097L25.2157 102.153V103.764H31.9967V106.611ZM27.6696 101.91L32.0904 95.2972V101.91H27.6696Z" fill="#212832"/>
<g filter="url(#filter2_d_955_8)">
<rect x="437" y="1" width="365" height="47" fill="white" shape-rendering="crispEdges"/>
<rect x="436.766" y="0.765849" width="365.468" height="47.4683" stroke="black" stroke-opacity="0.2" stroke-width="0.468302" shape-rendering="crispEdges"/>
</g>
<path d="M802 1H800V48H802V1Z" fill="#A9CF54" stroke="#A9CF54" stroke-width="0.936604"/>
<path d="M555.008 30.018L557.312 30L560.102 20.532L562.73 30H565.052L568.76 17.49H566.564L563.954 27.624L561.344 17.49H559.04L556.232 27.678L553.64 17.49H551.462L555.008 30.018ZM574.629 21.648C576.159 21.648 577.365 22.62 577.401 24.15H571.911C572.127 22.584 573.243 21.648 574.629 21.648ZM579.273 27.048H577.059C576.681 27.822 575.979 28.434 574.719 28.434C573.207 28.434 572.037 27.444 571.893 25.806H579.471C579.525 25.464 579.543 25.14 579.543 24.798C579.543 21.882 577.545 19.92 574.719 19.92C571.785 19.92 569.769 21.918 569.769 25.032C569.769 28.146 571.875 30.162 574.719 30.162C577.149 30.162 578.715 28.776 579.273 27.048ZM583.614 21.558V16.68H581.562V30H583.614V28.56C584.262 29.424 585.432 30.162 587.07 30.162C589.68 30.162 591.732 28.056 591.732 24.996C591.732 21.936 589.698 19.92 587.07 19.92C585.504 19.92 584.262 20.658 583.614 21.558ZM589.644 24.996C589.644 27.138 588.168 28.38 586.62 28.38C585.09 28.38 583.614 27.174 583.614 25.032C583.614 22.908 585.09 21.702 586.62 21.702C588.168 21.702 589.644 22.854 589.644 24.996ZM602.523 17.49H598.437V30H602.523C606.537 30 609.165 27.642 609.165 23.79C609.165 19.92 606.537 17.49 602.523 17.49ZM600.489 28.326V19.164H602.523C605.475 19.164 607.059 20.928 607.059 23.79C607.059 26.634 605.475 28.326 602.523 28.326H600.489ZM615.375 21.648C616.905 21.648 618.111 22.62 618.147 24.15H612.657C612.873 22.584 613.989 21.648 615.375 21.648ZM620.019 27.048H617.805C617.427 27.822 616.725 28.434 615.465 28.434C613.953 28.434 612.783 27.444 612.639 25.806H620.217C620.271 25.464 620.289 25.14 620.289 24.798C620.289 21.882 618.291 19.92 615.465 19.92C612.531 19.92 610.515 21.918 610.515 25.032C610.515 28.146 612.621 30.162 615.465 30.162C617.895 30.162 619.461 28.776 620.019 27.048ZM621.138 20.082L624.9 30H627.348L631.128 20.082H628.95L626.142 28.164L623.334 20.082H621.138ZM636.855 21.648C638.385 21.648 639.591 22.62 639.627 24.15H634.137C634.353 22.584 635.469 21.648 636.855 21.648ZM641.499 27.048H639.285C638.907 27.822 638.205 28.434 636.945 28.434C635.433 28.434 634.263 27.444 634.119 25.806H641.697C641.751 25.464 641.769 25.14 641.769 24.798C641.769 21.882 639.771 19.92 636.945 19.92C634.011 19.92 631.995 21.918 631.995 25.032C631.995 28.146 634.101 30.162 636.945 30.162C639.375 30.162 640.941 28.776 641.499 27.048ZM643.788 30H645.84V16.68H643.788V30ZM657.985 25.032C657.985 21.918 655.753 19.92 652.927 19.92C650.101 19.92 647.869 21.918 647.869 25.032C647.869 28.146 650.011 30.162 652.837 30.162C655.681 30.162 657.985 28.146 657.985 25.032ZM649.957 25.032C649.957 22.782 651.343 21.702 652.891 21.702C654.421 21.702 655.879 22.782 655.879 25.032C655.879 27.282 654.367 28.38 652.837 28.38C651.289 28.38 649.957 27.282 649.957 25.032ZM662.065 21.54V20.082H660.013V34.716H662.065V28.56C662.713 29.334 663.883 30.162 665.521 30.162C668.131 30.162 670.183 28.056 670.183 24.996C670.183 21.936 668.131 19.92 665.521 19.92C663.901 19.92 662.695 20.712 662.065 21.54ZM668.095 24.996C668.095 27.138 666.619 28.38 665.071 28.38C663.541 28.38 662.065 27.174 662.065 25.032C662.065 22.908 663.541 21.702 665.071 21.702C666.619 21.702 668.095 22.854 668.095 24.996ZM676.388 21.648C677.918 21.648 679.124 22.62 679.16 24.15H673.67C673.886 22.584 675.002 21.648 676.388 21.648ZM681.032 27.048H678.818C678.44 27.822 677.738 28.434 676.478 28.434C674.966 28.434 673.796 27.444 673.652 25.806H681.23C681.284 25.464 681.302 25.14 681.302 24.798C681.302 21.882 679.304 19.92 676.478 19.92C673.544 19.92 671.528 21.918 671.528 25.032C671.528 28.146 673.634 30.162 676.478 30.162C678.908 30.162 680.474 28.776 681.032 27.048ZM685.374 24.78C685.374 22.674 686.31 22.044 687.822 22.044H688.344V19.92C686.94 19.92 685.95 20.532 685.374 21.522V20.082H683.322V30H685.374V24.78Z" fill="#212832"/>
<circle cx="436.415" cy="24.4151" r="23.4151" fill="#A9CF54" stroke="#A9CF54"/>
<path d="M426.136 24.17C426.136 28.1412 427.185 31.1383 431.007 31.1383C434.828 31.1383 435.877 28.1412 435.877 24.17C435.877 20.2737 434.828 17.2766 431.007 17.2766C427.185 17.2766 426.136 20.2737 426.136 24.17ZM433.779 24.17C433.779 26.8487 433.498 29.1902 431.007 29.1902C428.515 29.1902 428.234 26.8487 428.234 24.17C428.234 21.6224 428.515 19.2247 431.007 19.2247C433.498 19.2247 433.779 21.6224 433.779 24.17ZM437.968 30.9885H447.072V29.2089H441.134C443.325 27.2046 446.697 24.6758 446.697 21.3602C446.697 18.9063 445.124 17.2391 442.351 17.2391C439.935 17.2391 438.024 18.6815 437.949 21.6412H440.01C440.066 20.1051 440.871 19.0561 442.37 19.0561C443.962 19.0561 444.58 20.0302 444.58 21.4538C444.58 24.1325 441.19 26.6052 437.968 29.4337V30.9885Z" fill="#212832"/>
<g filter="url(#filter3_d_955_8)">
<rect x="860" y="1" width="365" height="47" fill="white" shape-rendering="crispEdges"/>
<rect x="859.766" y="0.765849" width="365.468" height="47.4683" stroke="black" stroke-opacity="0.2" stroke-width="0.468302" shape-rendering="crispEdges"/>
</g>
<path d="M1225 1H1223V48H1225V1Z" fill="#3498DB" stroke="#3498DB" stroke-width="0.936604"/>
<path d="M983.335 30.018L985.639 30L988.429 20.532L991.057 30H993.379L997.087 17.49H994.891L992.281 27.624L989.671 17.49H987.367L984.559 27.678L981.967 17.49H979.789L983.335 30.018ZM1002.96 21.648C1004.49 21.648 1005.69 22.62 1005.73 24.15H1000.24C1000.45 22.584 1001.57 21.648 1002.96 21.648ZM1007.6 27.048H1005.39C1005.01 27.822 1004.31 28.434 1003.05 28.434C1001.53 28.434 1000.36 27.444 1000.22 25.806H1007.8C1007.85 25.464 1007.87 25.14 1007.87 24.798C1007.87 21.882 1005.87 19.92 1003.05 19.92C1000.11 19.92 998.096 21.918 998.096 25.032C998.096 28.146 1000.2 30.162 1003.05 30.162C1005.48 30.162 1007.04 28.776 1007.6 27.048ZM1011.94 21.558V16.68H1009.89V30H1011.94V28.56C1012.59 29.424 1013.76 30.162 1015.4 30.162C1018.01 30.162 1020.06 28.056 1020.06 24.996C1020.06 21.936 1018.03 19.92 1015.4 19.92C1013.83 19.92 1012.59 20.658 1011.94 21.558ZM1017.97 24.996C1017.97 27.138 1016.5 28.38 1014.95 28.38C1013.42 28.38 1011.94 27.174 1011.94 25.032C1011.94 22.908 1013.42 21.702 1014.95 21.702C1016.5 21.702 1017.97 22.854 1017.97 24.996ZM1030.85 17.49H1026.76V30H1030.85C1034.86 30 1037.49 27.642 1037.49 23.79C1037.49 19.92 1034.86 17.49 1030.85 17.49ZM1028.82 28.326V19.164H1030.85C1033.8 19.164 1035.39 20.928 1035.39 23.79C1035.39 26.634 1033.8 28.326 1030.85 28.326H1028.82ZM1043.7 21.648C1045.23 21.648 1046.44 22.62 1046.47 24.15H1040.98C1041.2 22.584 1042.32 21.648 1043.7 21.648ZM1048.35 27.048H1046.13C1045.75 27.822 1045.05 28.434 1043.79 28.434C1042.28 28.434 1041.11 27.444 1040.97 25.806H1048.54C1048.6 25.464 1048.62 25.14 1048.62 24.798C1048.62 21.882 1046.62 19.92 1043.79 19.92C1040.86 19.92 1038.84 21.918 1038.84 25.032C1038.84 28.146 1040.95 30.162 1043.79 30.162C1046.22 30.162 1047.79 28.776 1048.35 27.048ZM1058.03 27.228C1057.93 23.646 1052.33 24.762 1052.33 22.764C1052.33 22.098 1052.9 21.648 1054 21.648C1055.12 21.648 1055.78 22.242 1055.86 23.106H1057.91C1057.8 21.126 1056.32 19.92 1054.07 19.92C1051.73 19.92 1050.26 21.198 1050.26 22.782C1050.26 26.418 1056.02 25.302 1056.02 27.246C1056.02 27.93 1055.39 28.434 1054.2 28.434C1053.07 28.434 1052.29 27.768 1052.22 26.958H1050.1C1050.19 28.758 1051.86 30.162 1054.24 30.162C1056.58 30.162 1058.03 28.902 1058.03 27.228ZM1060.25 30H1062.3V20.082H1060.25V30ZM1061.29 18.768C1062.01 18.768 1062.59 18.192 1062.59 17.454C1062.59 16.716 1062.01 16.14 1061.29 16.14C1060.56 16.14 1059.98 16.716 1059.98 17.454C1059.98 18.192 1060.56 18.768 1061.29 18.768ZM1064.31 24.996C1064.31 28.056 1066.38 30.162 1068.99 30.162C1070.61 30.162 1071.8 29.352 1072.43 28.506V30.162C1072.43 32.142 1071.24 33.114 1069.66 33.114C1068.24 33.114 1067.14 32.412 1066.83 31.386H1064.8C1065.05 33.582 1067.01 34.896 1069.66 34.896C1072.75 34.896 1074.5 32.862 1074.5 30.162V20.082H1072.43V21.522C1071.82 20.676 1070.61 19.92 1068.99 19.92C1066.38 19.92 1064.31 21.936 1064.31 24.996ZM1072.43 25.032C1072.43 27.174 1070.97 28.38 1069.42 28.38C1067.89 28.38 1066.42 27.138 1066.42 24.996C1066.42 22.854 1067.89 21.702 1069.42 21.702C1070.97 21.702 1072.43 22.908 1072.43 25.032ZM1084.23 30H1086.27V24.15C1086.27 21.378 1084.52 19.92 1082.2 19.92C1081.01 19.92 1079.91 20.406 1079.25 21.216V20.082H1077.2V30H1079.25V24.456C1079.25 22.638 1080.24 21.702 1081.75 21.702C1083.24 21.702 1084.23 22.638 1084.23 24.456V30ZM1093.06 21.648C1094.59 21.648 1095.8 22.62 1095.83 24.15H1090.34C1090.56 22.584 1091.68 21.648 1093.06 21.648ZM1097.71 27.048H1095.49C1095.11 27.822 1094.41 28.434 1093.15 28.434C1091.64 28.434 1090.47 27.444 1090.33 25.806H1097.9C1097.96 25.464 1097.98 25.14 1097.98 24.798C1097.98 21.882 1095.98 19.92 1093.15 19.92C1090.22 19.92 1088.2 21.918 1088.2 25.032C1088.2 28.146 1090.31 30.162 1093.15 30.162C1095.58 30.162 1097.15 28.776 1097.71 27.048ZM1102.05 24.78C1102.05 22.674 1102.98 22.044 1104.49 22.044H1105.02V19.92C1103.61 19.92 1102.62 20.532 1102.05 21.522V20.082H1099.99V30H1102.05V24.78Z" fill="#212832"/>
<circle cx="856.415" cy="24.415" r="23.415" fill="#3498DB" stroke="#3498DB"/>
<path d="M845.548 24.9942C845.548 28.9654 846.597 31.9625 850.418 31.9625C854.24 31.9625 855.289 28.9654 855.289 24.9942C855.289 21.0979 854.24 18.1008 850.418 18.1008C846.597 18.1008 845.548 21.0979 845.548 24.9942ZM853.191 24.9942C853.191 27.6729 852.91 30.0144 850.418 30.0144C847.927 30.0144 847.646 27.6729 847.646 24.9942C847.646 22.4466 847.927 20.0489 850.418 20.0489C852.91 20.0489 853.191 22.4466 853.191 24.9942ZM857.511 21.7161H859.59C859.721 20.7608 860.414 19.8616 861.913 19.8616C863.374 19.8616 864.142 20.6484 864.142 21.8285C864.142 23.2896 862.962 23.8515 861.032 23.8703H860.527V25.6311H861.014C863.243 25.6311 864.404 26.2493 864.404 28.0475C864.404 29.3213 863.617 30.2954 862.025 30.2954C860.414 30.2954 859.478 29.3213 859.384 28.0475H857.323C857.454 30.7262 859.459 32.0749 862.044 32.0749C864.891 32.0749 866.427 30.4265 866.427 28.2536C866.427 26.3616 865.509 25.1815 864.086 24.7507V24.6758C865.153 24.3198 866.184 23.2147 866.184 21.585C866.184 19.5994 864.704 18.0259 861.988 18.0259C859.496 18.0259 857.661 19.3558 857.511 21.7161Z" fill="#212832"/>
<defs>
<filter id="filter0_d_955_8" x="23.5312" y="0.531738" width="365.938" height="47.9365" filterUnits="userSpaceOnUse" color-interpolation-filters="sRGB">
<feFlood flood-opacity="0" result="BackgroundImageFix"/>
<feColorMatrix in="SourceAlpha" type="matrix" values="0 0 0 0 0 0 0 0 0 0 0 0 0 0 0 0 0 0 127 0" result="hardAlpha"/>
<feOffset/>
<feComposite in2="hardAlpha" operator="out"/>
<feColorMatrix type="matrix" values="0 0 0 0 0 0 0 0 0 0 0 0 0 0 0 0 0 0 0.1 0"/>
<feBlend mode="normal" in2="BackgroundImageFix" result="effect1_dropShadow_955_8"/>
<feBlend mode="normal" in="SourceGraphic" in2="effect1_dropShadow_955_8" result="shape"/>
</filter>
<filter id="filter1_d_955_8" x="23.5312" y="75.5317" width="365.938" height="47.9365" filterUnits="userSpaceOnUse" color-interpolation-filters="sRGB">
<feFlood flood-opacity="0" result="BackgroundImageFix"/>
<feColorMatrix in="SourceAlpha" type="matrix" values="0 0 0 0 0 0 0 0 0 0 0 0 0 0 0 0 0 0 127 0" result="hardAlpha"/>
<feOffset/>
<feComposite in2="hardAlpha" operator="out"/>
<feColorMatrix type="matrix" values="0 0 0 0 0 0 0 0 0 0 0 0 0 0 0 0 0 0 0.1 0"/>
<feBlend mode="normal" in2="BackgroundImageFix" result="effect1_dropShadow_955_8"/>
<feBlend mode="normal" in="SourceGraphic" in2="effect1_dropShadow_955_8" result="shape"/>
</filter>
<filter id="filter2_d_955_8" x="436.531" y="0.531738" width="365.938" height="47.9365" filterUnits="userSpaceOnUse" color-interpolation-filters="sRGB">
<feFlood flood-opacity="0" result="BackgroundImageFix"/>
<feColorMatrix in="SourceAlpha" type="matrix" values="0 0 0 0 0 0 0 0 0 0 0 0 0 0 0 0 0 0 127 0" result="hardAlpha"/>
<feOffset/>
<feComposite in2="hardAlpha" operator="out"/>
<feColorMatrix type="matrix" values="0 0 0 0 0 0 0 0 0 0 0 0 0 0 0 0 0 0 0.1 0"/>
<feBlend mode="normal" in2="BackgroundImageFix" result="effect1_dropShadow_955_8"/>
<feBlend mode="normal" in="SourceGraphic" in2="effect1_dropShadow_955_8" result="shape"/>
</filter>
<filter id="filter3_d_955_8" x="859.531" y="0.531738" width="365.938" height="47.9365" filterUnits="userSpaceOnUse" color-interpolation-filters="sRGB">
<feFlood flood-opacity="0" result="BackgroundImageFix"/>
<feColorMatrix in="SourceAlpha" type="matrix" values="0 0 0 0 0 0 0 0 0 0 0 0 0 0 0 0 0 0 127 0" result="hardAlpha"/>
<feOffset/>
<feComposite in2="hardAlpha" operator="out"/>
<feColorMatrix type="matrix" values="0 0 0 0 0 0 0 0 0 0 0 0 0 0 0 0 0 0 0.1 0"/>
<feBlend mode="normal" in2="BackgroundImageFix" result="effect1_dropShadow_955_8"/>
<feBlend mode="normal" in="SourceGraphic" in2="effect1_dropShadow_955_8" result="shape"/>
</filter>
</defs>
</svg>
