<svg width="1239" height="341" viewBox="0 0 1239 341" fill="none" xmlns="http://www.w3.org/2000/svg">
<rect width="405" height="80" fill="white"/>
<rect x="0.5" y="0.5" width="404" height="79" stroke="black" stroke-opacity="0.5"/>
<rect y="261" width="405" height="80" fill="white"/>
<rect x="0.5" y="261.5" width="404" height="79" stroke="black" stroke-opacity="0.5"/>
<rect y="87" width="405" height="80" fill="white"/>
<rect x="0.5" y="87.5" width="404" height="79" stroke="black" stroke-opacity="0.5"/>
<rect y="174" width="405" height="80" fill="white"/>
<rect x="0.5" y="174.5" width="404" height="79" stroke="black" stroke-opacity="0.5"/>
<rect x="834" width="405" height="80" fill="white"/>
<rect x="834.5" y="0.5" width="404" height="79" stroke="black" stroke-opacity="0.5"/>
<rect x="834" y="261" width="405" height="80" fill="white"/>
<rect x="834.5" y="261.5" width="404" height="79" stroke="black" stroke-opacity="0.5"/>
<rect x="834" y="87" width="405" height="80" fill="white"/>
<rect x="834.5" y="87.5" width="404" height="79" stroke="black" stroke-opacity="0.5"/>
<rect x="834" y="174" width="405" height="80" fill="white"/>
<rect x="834.5" y="174.5" width="404" height="79" stroke="black" stroke-opacity="0.5"/>
<rect x="417" y="261" width="405" height="80" fill="white"/>
<rect x="417.5" y="261.5" width="404" height="79" stroke="black" stroke-opacity="0.5"/>
<rect x="417" y="87" width="405" height="80" fill="white"/>
<rect x="417.5" y="87.5" width="404" height="79" stroke="black" stroke-opacity="0.5"/>
<rect x="417" y="174" width="405" height="80" fill="white"/>
<rect x="417.5" y="174.5" width="404" height="79" stroke="black" stroke-opacity="0.5"/>
<rect x="417" width="405" height="80" fill="white"/>
<rect x="417.5" y="0.5" width="404" height="79" stroke="black" stroke-opacity="0.5"/>
<path d="M50.9609 46H53.2409V36.48L57.5009 46H59.0809L63.3209 36.48V46H65.6009V32.1H63.1609L58.3009 43L53.4209 32.1H50.9609V46ZM67.8377 39.02C67.8377 43.2 71.0177 46.12 74.9377 46.12C77.8377 46.12 80.3377 44.68 81.3977 41.96H78.6577C77.9177 43.44 76.5977 44.14 74.9377 44.14C72.1777 44.14 70.1777 42.16 70.1777 39.02C70.1777 35.88 72.1777 33.92 74.9377 33.92C76.5977 33.92 77.9177 34.62 78.6577 36.1H81.3977C80.3377 33.38 77.8377 31.92 74.9377 31.92C71.0177 31.92 67.8377 34.86 67.8377 39.02ZM93.4464 46H95.8464L90.8664 32.08H88.2264L83.2464 46H85.6264L86.6264 43.16H92.4464L93.4464 46ZM91.8064 41.3H87.2664L89.5464 34.84L91.8064 41.3ZM103.207 46H105.487V32.1H103.207V46ZM116.3 46H118.56V39.5C118.56 36.42 116.62 34.8 114.04 34.8C112.72 34.8 111.5 35.34 110.76 36.24V34.98H108.48V46H110.76V39.84C110.76 37.82 111.86 36.78 113.54 36.78C115.2 36.78 116.3 37.82 116.3 39.84V46ZM125.904 39.02C125.904 43.2 129.084 46.12 133.004 46.12C135.904 46.12 138.404 44.68 139.464 41.96H136.724C135.984 43.44 134.664 44.14 133.004 44.14C130.244 44.14 128.244 42.16 128.244 39.02C128.244 35.88 130.244 33.92 133.004 33.92C134.664 33.92 135.984 34.62 136.724 36.1H139.464C138.404 33.38 135.904 31.92 133.004 31.92C129.084 31.92 125.904 34.86 125.904 39.02ZM152.633 40.48C152.633 37.02 150.153 34.8 147.013 34.8C143.873 34.8 141.393 37.02 141.393 40.48C141.393 43.94 143.773 46.18 146.913 46.18C150.073 46.18 152.633 43.94 152.633 40.48ZM143.713 40.48C143.713 37.98 145.253 36.78 146.973 36.78C148.673 36.78 150.293 37.98 150.293 40.48C150.293 42.98 148.613 44.2 146.913 44.2C145.193 44.2 143.713 42.98 143.713 40.48ZM170.507 46H172.767V39.5C172.767 36.42 170.807 34.8 168.227 34.8C166.627 34.8 165.067 35.64 164.387 36.98C163.627 35.54 162.167 34.8 160.427 34.8C159.107 34.8 157.907 35.34 157.167 36.24V34.98H154.887V46H157.167V39.84C157.167 37.82 158.267 36.78 159.947 36.78C161.607 36.78 162.707 37.82 162.707 39.84V46H164.967V39.84C164.967 37.82 166.067 36.78 167.747 36.78C169.407 36.78 170.507 37.82 170.507 39.84V46ZM177.948 36.6V34.98H175.668V51.24H177.948V44.4C178.668 45.26 179.968 46.18 181.788 46.18C184.688 46.18 186.968 43.84 186.968 40.44C186.968 37.04 184.688 34.8 181.788 34.8C179.988 34.8 178.648 35.68 177.948 36.6ZM184.648 40.44C184.648 42.82 183.008 44.2 181.288 44.2C179.588 44.2 177.948 42.86 177.948 40.48C177.948 38.12 179.588 36.78 181.288 36.78C183.008 36.78 184.648 38.06 184.648 40.44ZM199.203 34.98H196.923V41.12C196.923 43.14 195.823 44.18 194.143 44.18C192.483 44.18 191.383 43.14 191.383 41.12V34.98H189.123V41.46C189.123 44.54 191.083 46.16 193.663 46.16C194.963 46.16 196.203 45.62 196.923 44.68V46H199.203V34.98ZM202.571 42.94C202.571 45.18 203.791 46 205.751 46H207.551V44.1H206.151C205.191 44.1 204.871 43.76 204.871 42.94V36.84H207.551V34.98H204.871V32.24H202.571V34.98H201.271V36.84H202.571V42.94ZM214.292 36.72C215.992 36.72 217.332 37.8 217.372 39.5H211.272C211.512 37.76 212.752 36.72 214.292 36.72ZM219.452 42.72H216.992C216.572 43.58 215.792 44.26 214.392 44.26C212.712 44.26 211.412 43.16 211.252 41.34H219.672C219.732 40.96 219.752 40.6 219.752 40.22C219.752 36.98 217.532 34.8 214.392 34.8C211.132 34.8 208.892 37.02 208.892 40.48C208.892 43.94 211.232 46.18 214.392 46.18C217.092 46.18 218.832 44.64 219.452 42.72ZM224.276 40.2C224.276 37.86 225.316 37.16 226.996 37.16H227.576V34.8C226.016 34.8 224.916 35.48 224.276 36.58V34.98H221.996V46H224.276V40.2ZM244.247 42.06C244.247 36.98 236.887 38.94 236.887 35.8C236.887 34.46 237.907 33.82 239.227 33.86C240.667 33.9 241.487 34.76 241.567 35.7H244.087C243.887 33.32 242.007 31.92 239.347 31.92C236.507 31.92 234.567 33.44 234.567 35.88C234.567 41 241.947 38.82 241.947 42.18C241.947 43.36 241.047 44.22 239.447 44.22C237.867 44.22 237.067 43.3 236.967 42.16H234.527C234.527 44.62 236.667 46.14 239.447 46.14C242.547 46.14 244.247 44.14 244.247 42.06ZM246.178 40.48C246.178 43.94 248.418 46.18 251.578 46.18C254.278 46.18 256.038 44.68 256.658 42.52H254.198C253.778 43.66 252.938 44.26 251.578 44.26C249.738 44.26 248.518 42.9 248.518 40.48C248.518 38.08 249.738 36.72 251.578 36.72C252.938 36.72 253.818 37.4 254.198 38.46H256.658C256.038 36.14 254.278 34.8 251.578 34.8C248.418 34.8 246.178 37.04 246.178 40.48ZM258.93 46H261.21V34.98H258.93V46ZM260.09 33.52C260.89 33.52 261.53 32.88 261.53 32.06C261.53 31.24 260.89 30.6 260.09 30.6C259.27 30.6 258.63 31.24 258.63 32.06C258.63 32.88 259.27 33.52 260.09 33.52ZM268.843 36.72C270.543 36.72 271.883 37.8 271.923 39.5H265.823C266.063 37.76 267.303 36.72 268.843 36.72ZM274.003 42.72H271.543C271.123 43.58 270.343 44.26 268.943 44.26C267.263 44.26 265.963 43.16 265.803 41.34H274.223C274.283 40.96 274.303 40.6 274.303 40.22C274.303 36.98 272.083 34.8 268.943 34.8C265.683 34.8 263.443 37.02 263.443 40.48C263.443 43.94 265.783 46.18 268.943 46.18C271.643 46.18 273.383 44.64 274.003 42.72ZM284.367 46H286.627V39.5C286.627 36.42 284.687 34.8 282.107 34.8C280.787 34.8 279.567 35.34 278.827 36.24V34.98H276.547V46H278.827V39.84C278.827 37.82 279.927 36.78 281.607 36.78C283.267 36.78 284.367 37.82 284.367 39.84V46ZM288.775 40.48C288.775 43.94 291.015 46.18 294.175 46.18C296.875 46.18 298.635 44.68 299.255 42.52H296.795C296.375 43.66 295.535 44.26 294.175 44.26C292.335 44.26 291.115 42.9 291.115 40.48C291.115 38.08 292.335 36.72 294.175 36.72C295.535 36.72 296.415 37.4 296.795 38.46H299.255C298.635 36.14 296.875 34.8 294.175 34.8C291.015 34.8 288.775 37.04 288.775 40.48ZM306.167 36.72C307.867 36.72 309.207 37.8 309.247 39.5H303.147C303.387 37.76 304.627 36.72 306.167 36.72ZM311.327 42.72H308.867C308.447 43.58 307.667 44.26 306.267 44.26C304.587 44.26 303.287 43.16 303.127 41.34H311.547C311.607 40.96 311.627 40.6 311.627 40.22C311.627 36.98 309.407 34.8 306.267 34.8C303.007 34.8 300.767 37.02 300.767 40.48C300.767 43.94 303.107 46.18 306.267 46.18C308.967 46.18 310.707 44.64 311.327 42.72ZM327.906 35.2C328.046 33.3 326.746 31.78 324.326 31.78C321.946 31.78 320.466 33.16 320.466 34.98C320.466 35.96 320.746 36.7 321.526 37.64C319.326 38.54 318.266 40.12 318.266 42C318.266 44.6 320.266 46.26 323.266 46.26C325.206 46.26 326.746 45.62 328.086 44.28L329.806 46H332.786L329.406 42.64C329.566 42.38 329.746 42.1 329.906 41.82L331.706 38.74H329.246L327.826 41.08L324.146 37.42C323.166 36.36 322.746 35.74 322.746 34.98C322.746 34.24 323.326 33.64 324.226 33.64C325.086 33.64 325.666 34.18 325.626 35.2H327.906ZM323.266 44.32C321.626 44.32 320.546 43.26 320.546 41.92C320.546 40.68 321.286 39.72 322.906 39.08L326.586 42.78C325.626 43.8 324.566 44.32 323.266 44.32ZM339.477 46H341.757V32.1H339.477V46ZM344.03 33.96H347.75V46H350.03V33.96H353.73V32.1H344.03V33.96Z" fill="#212832"/>
<path d="M110.404 307H112.684V297.48L116.944 307H118.524L122.764 297.48V307H125.044V293.1H122.604L117.744 304L112.864 293.1H110.404V307ZM127.281 300.02C127.281 304.2 130.461 307.12 134.381 307.12C137.281 307.12 139.781 305.68 140.841 302.96H138.101C137.361 304.44 136.041 305.14 134.381 305.14C131.621 305.14 129.621 303.16 129.621 300.02C129.621 296.88 131.621 294.92 134.381 294.92C136.041 294.92 137.361 295.62 138.101 297.1H140.841C139.781 294.38 137.281 292.92 134.381 292.92C130.461 292.92 127.281 295.86 127.281 300.02ZM152.89 307H155.29L150.31 293.08H147.67L142.69 307H145.07L146.07 304.16H151.89L152.89 307ZM151.25 302.3H146.71L148.99 295.84L151.25 302.3ZM162.65 307H164.93V295.98H162.65V307ZM163.81 294.52C164.61 294.52 165.25 293.88 165.25 293.06C165.25 292.24 164.61 291.6 163.81 291.6C162.99 291.6 162.35 292.24 162.35 293.06C162.35 293.88 162.99 294.52 163.81 294.52ZM175.744 307H178.004V300.5C178.004 297.42 176.064 295.8 173.484 295.8C172.164 295.8 170.944 296.34 170.204 297.24V295.98H167.924V307H170.204V300.84C170.204 298.82 171.304 297.78 172.984 297.78C174.644 297.78 175.744 298.82 175.744 300.84V307ZM193.947 303.02C193.947 304.36 193.007 305.14 191.467 305.14H188.387V300.8H191.387C192.907 300.8 193.947 301.64 193.947 303.02ZM193.587 296.96C193.587 298.24 192.687 298.94 191.207 298.94H188.387V294.96H191.207C192.687 294.96 193.587 295.7 193.587 296.96ZM196.227 303.26C196.227 301.6 195.027 300.12 193.547 299.86C194.887 299.38 195.907 298.36 195.907 296.68C195.907 294.72 194.347 293.1 191.407 293.1H186.107V307H191.667C194.507 307 196.227 305.38 196.227 303.26ZM198.705 307H200.985V292.2H198.705V307ZM214.479 301.48C214.479 298.02 211.999 295.8 208.859 295.8C205.719 295.8 203.239 298.02 203.239 301.48C203.239 304.94 205.619 307.18 208.759 307.18C211.919 307.18 214.479 304.94 214.479 301.48ZM205.559 301.48C205.559 298.98 207.099 297.78 208.819 297.78C210.519 297.78 212.139 298.98 212.139 301.48C212.139 303.98 210.459 305.2 208.759 305.2C207.039 305.2 205.559 303.98 205.559 301.48ZM215.972 301.48C215.972 304.94 218.212 307.18 221.372 307.18C224.072 307.18 225.832 305.68 226.452 303.52H223.992C223.572 304.66 222.732 305.26 221.372 305.26C219.532 305.26 218.312 303.9 218.312 301.48C218.312 299.08 219.532 297.72 221.372 297.72C222.732 297.72 223.612 298.4 223.992 299.46H226.452C225.832 297.14 224.072 295.8 221.372 295.8C218.212 295.8 215.972 298.04 215.972 301.48ZM228.725 307H231.005V302.26L235.085 307H238.165L233.085 301.5L238.165 295.98H235.005L231.005 300.8V292.2H228.725V307ZM239.039 301.48C239.039 304.94 241.279 307.18 244.439 307.18C247.139 307.18 248.899 305.68 249.519 303.52H247.059C246.639 304.66 245.799 305.26 244.439 305.26C242.599 305.26 241.379 303.9 241.379 301.48C241.379 299.08 242.599 297.72 244.439 297.72C245.799 297.72 246.679 298.4 247.059 299.46H249.519C248.899 297.14 247.139 295.8 244.439 295.8C241.279 295.8 239.039 298.04 239.039 301.48ZM251.791 307H254.071V300.84C254.071 298.82 255.171 297.78 256.851 297.78C258.511 297.78 259.611 298.82 259.611 300.84V307H261.871V300.5C261.871 297.42 259.951 295.8 257.491 295.8C256.071 295.8 254.831 296.34 254.071 297.26V292.2H251.791V307ZM264.019 301.44C264.019 304.84 266.319 307.18 269.179 307.18C271.019 307.18 272.339 306.3 273.039 305.36V307H275.339V295.98H273.039V297.58C272.359 296.68 271.079 295.8 269.219 295.8C266.319 295.8 264.019 298.04 264.019 301.44ZM273.039 301.48C273.039 303.86 271.419 305.2 269.699 305.2C267.999 305.2 266.359 303.82 266.359 301.44C266.359 299.06 267.999 297.78 269.699 297.78C271.419 297.78 273.039 299.12 273.039 301.48ZM278.334 307H280.614V295.98H278.334V307ZM279.494 294.52C280.294 294.52 280.934 293.88 280.934 293.06C280.934 292.24 280.294 291.6 279.494 291.6C278.674 291.6 278.034 292.24 278.034 293.06C278.034 293.88 278.674 294.52 279.494 294.52ZM291.427 307H293.687V300.5C293.687 297.42 291.747 295.8 289.167 295.8C287.847 295.8 286.627 296.34 285.887 297.24V295.98H283.607V307H285.887V300.84C285.887 298.82 286.987 297.78 288.667 297.78C290.327 297.78 291.427 298.82 291.427 300.84V307Z" fill="#212832"/>
<path d="M75.6289 133H77.9089V123.48L82.1689 133H83.7489L87.9889 123.48V133H90.2689V119.1H87.8289L82.9689 130L78.0889 119.1H75.6289V133ZM92.5056 126.02C92.5056 130.2 95.6856 133.12 99.6056 133.12C102.506 133.12 105.006 131.68 106.066 128.96H103.326C102.586 130.44 101.266 131.14 99.6056 131.14C96.8456 131.14 94.8456 129.16 94.8456 126.02C94.8456 122.88 96.8456 120.92 99.6056 120.92C101.266 120.92 102.586 121.62 103.326 123.1H106.066C105.006 120.38 102.506 118.92 99.6056 118.92C95.6856 118.92 92.5056 121.86 92.5056 126.02ZM118.114 133H120.514L115.534 119.08H112.894L107.914 133H110.294L111.294 130.16H117.114L118.114 133ZM116.474 128.3H111.934L114.214 121.84L116.474 128.3ZM127.875 133H130.155V119.1H127.875V133ZM140.968 133H143.228V126.5C143.228 123.42 141.288 121.8 138.708 121.8C137.388 121.8 136.168 122.34 135.428 123.24V121.98H133.148V133H135.428V126.84C135.428 124.82 136.528 123.78 138.208 123.78C139.868 123.78 140.968 124.82 140.968 126.84V133ZM150.572 126.02C150.572 130.2 153.752 133.12 157.672 133.12C160.572 133.12 163.072 131.68 164.132 128.96H161.392C160.652 130.44 159.332 131.14 157.672 131.14C154.912 131.14 152.912 129.16 152.912 126.02C152.912 122.88 154.912 120.92 157.672 120.92C159.332 120.92 160.652 121.62 161.392 123.1H164.132C163.072 120.38 160.572 118.92 157.672 118.92C153.752 118.92 150.572 121.86 150.572 126.02ZM166.801 133H169.081V118.2H166.801V133ZM182.574 127.48C182.574 124.02 180.094 121.8 176.954 121.8C173.814 121.8 171.334 124.02 171.334 127.48C171.334 130.94 173.714 133.18 176.854 133.18C180.014 133.18 182.574 130.94 182.574 127.48ZM173.654 127.48C173.654 124.98 175.194 123.78 176.914 123.78C178.614 123.78 180.234 124.98 180.234 127.48C180.234 129.98 178.554 131.2 176.854 131.2C175.134 131.2 173.654 129.98 173.654 127.48ZM194.808 121.98H192.528V128.12C192.528 130.14 191.428 131.18 189.748 131.18C188.088 131.18 186.988 130.14 186.988 128.12V121.98H184.728V128.46C184.728 131.54 186.688 133.16 189.268 133.16C190.568 133.16 191.808 132.62 192.528 131.68V133H194.808V121.98ZM197.056 127.44C197.056 130.84 199.356 133.18 202.256 133.18C204.056 133.18 205.376 132.34 206.076 131.34V133H208.376V118.2H206.076V123.52C205.236 122.48 203.716 121.8 202.276 121.8C199.356 121.8 197.056 124.04 197.056 127.44ZM206.076 127.48C206.076 129.86 204.456 131.2 202.736 131.2C201.036 131.2 199.396 129.82 199.396 127.44C199.396 125.06 201.036 123.78 202.736 123.78C204.456 123.78 206.076 125.12 206.076 127.48ZM215.806 126.02C215.806 130.2 218.986 133.12 222.906 133.12C225.806 133.12 228.306 131.68 229.366 128.96H226.626C225.886 130.44 224.566 131.14 222.906 131.14C220.146 131.14 218.146 129.16 218.146 126.02C218.146 122.88 220.146 120.92 222.906 120.92C224.566 120.92 225.886 121.62 226.626 123.1H229.366C228.306 120.38 225.806 118.92 222.906 118.92C218.986 118.92 215.806 121.86 215.806 126.02ZM242.535 127.48C242.535 124.02 240.055 121.8 236.915 121.8C233.775 121.8 231.295 124.02 231.295 127.48C231.295 130.94 233.675 133.18 236.815 133.18C239.975 133.18 242.535 130.94 242.535 127.48ZM233.615 127.48C233.615 124.98 235.155 123.78 236.875 123.78C238.575 123.78 240.195 124.98 240.195 127.48C240.195 129.98 238.515 131.2 236.815 131.2C235.095 131.2 233.615 129.98 233.615 127.48ZM260.409 133H262.669V126.5C262.669 123.42 260.709 121.8 258.129 121.8C256.529 121.8 254.969 122.64 254.289 123.98C253.529 122.54 252.069 121.8 250.329 121.8C249.009 121.8 247.809 122.34 247.069 123.24V121.98H244.789V133H247.069V126.84C247.069 124.82 248.169 123.78 249.849 123.78C251.509 123.78 252.609 124.82 252.609 126.84V133H254.869V126.84C254.869 124.82 255.969 123.78 257.649 123.78C259.309 123.78 260.409 124.82 260.409 126.84V133ZM267.85 123.6V121.98H265.57V138.24H267.85V131.4C268.57 132.26 269.87 133.18 271.69 133.18C274.59 133.18 276.87 130.84 276.87 127.44C276.87 124.04 274.59 121.8 271.69 121.8C269.89 121.8 268.55 122.68 267.85 123.6ZM274.55 127.44C274.55 129.82 272.91 131.2 271.19 131.2C269.49 131.2 267.85 129.86 267.85 127.48C267.85 125.12 269.49 123.78 271.19 123.78C272.91 123.78 274.55 125.06 274.55 127.44ZM289.105 121.98H286.825V128.12C286.825 130.14 285.725 131.18 284.045 131.18C282.385 131.18 281.285 130.14 281.285 128.12V121.98H279.025V128.46C279.025 131.54 280.985 133.16 283.565 133.16C284.865 133.16 286.105 132.62 286.825 131.68V133H289.105V121.98ZM292.473 129.94C292.473 132.18 293.693 133 295.653 133H297.453V131.1H296.053C295.093 131.1 294.773 130.76 294.773 129.94V123.84H297.453V121.98H294.773V119.24H292.473V121.98H291.173V123.84H292.473V129.94ZM299.555 133H301.835V121.98H299.555V133ZM300.715 120.52C301.515 120.52 302.155 119.88 302.155 119.06C302.155 118.24 301.515 117.6 300.715 117.6C299.895 117.6 299.255 118.24 299.255 119.06C299.255 119.88 299.895 120.52 300.715 120.52ZM312.648 133H314.908V126.5C314.908 123.42 312.968 121.8 310.388 121.8C309.068 121.8 307.848 122.34 307.108 123.24V121.98H304.828V133H307.108V126.84C307.108 124.82 308.208 123.78 309.888 123.78C311.548 123.78 312.648 124.82 312.648 126.84V133ZM317.056 127.44C317.056 130.84 319.356 133.18 322.256 133.18C324.056 133.18 325.376 132.28 326.076 131.34V133.18C326.076 135.38 324.756 136.46 322.996 136.46C321.416 136.46 320.196 135.68 319.856 134.54H317.596C317.876 136.98 320.056 138.44 322.996 138.44C326.436 138.44 328.376 136.18 328.376 133.18V121.98H326.076V123.58C325.396 122.64 324.056 121.8 322.256 121.8C319.356 121.8 317.056 124.04 317.056 127.44ZM326.076 127.48C326.076 129.86 324.456 131.2 322.736 131.2C321.036 131.2 319.396 129.82 319.396 127.44C319.396 125.06 321.036 123.78 322.736 123.78C324.456 123.78 326.076 125.12 326.076 127.48Z" fill="#212832"/>
<path d="M91.4961 220H93.7761V210.48L98.0361 220H99.6161L103.856 210.48V220H106.136V206.1H103.696L98.8361 217L93.9561 206.1H91.4961V220ZM108.373 213.02C108.373 217.2 111.553 220.12 115.473 220.12C118.373 220.12 120.873 218.68 121.933 215.96H119.193C118.453 217.44 117.133 218.14 115.473 218.14C112.713 218.14 110.713 216.16 110.713 213.02C110.713 209.88 112.713 207.92 115.473 207.92C117.133 207.92 118.453 208.62 119.193 210.1H121.933C120.873 207.38 118.373 205.92 115.473 205.92C111.553 205.92 108.373 208.86 108.373 213.02ZM133.982 220H136.382L131.402 206.08H128.762L123.782 220H126.162L127.162 217.16H132.982L133.982 220ZM132.342 215.3H127.802L130.082 208.84L132.342 215.3ZM143.742 220H146.022V206.1H143.742V220ZM156.836 220H159.096V213.5C159.096 210.42 157.156 208.8 154.576 208.8C153.256 208.8 152.036 209.34 151.296 210.24V208.98H149.016V220H151.296V213.84C151.296 211.82 152.396 210.78 154.076 210.78C155.736 210.78 156.836 211.82 156.836 213.84V220ZM166.439 213.02C166.439 217.2 169.619 220.12 173.539 220.12C176.439 220.12 178.939 218.68 179.999 215.96H177.259C176.519 217.44 175.199 218.14 173.539 218.14C170.779 218.14 168.779 216.16 168.779 213.02C168.779 209.88 170.779 207.92 173.539 207.92C175.199 207.92 176.519 208.62 177.259 210.1H179.999C178.939 207.38 176.439 205.92 173.539 205.92C169.619 205.92 166.439 208.86 166.439 213.02ZM187.008 217.38L183.908 208.98H181.368L185.708 219.82L183.468 225.18H185.828L192.588 208.98H190.228L187.008 217.38ZM196.589 210.62V205.2H194.309V220H196.589V218.4C197.309 219.36 198.609 220.18 200.429 220.18C203.329 220.18 205.609 217.84 205.609 214.44C205.609 211.04 203.349 208.8 200.429 208.8C198.689 208.8 197.309 209.62 196.589 210.62ZM203.289 214.44C203.289 216.82 201.649 218.2 199.929 218.2C198.229 218.2 196.589 216.86 196.589 214.48C196.589 212.12 198.229 210.78 199.929 210.78C201.649 210.78 203.289 212.06 203.289 214.44ZM212.503 210.72C214.203 210.72 215.543 211.8 215.583 213.5H209.483C209.723 211.76 210.963 210.72 212.503 210.72ZM217.663 216.72H215.203C214.783 217.58 214.003 218.26 212.603 218.26C210.923 218.26 209.623 217.16 209.463 215.34H217.883C217.943 214.96 217.963 214.6 217.963 214.22C217.963 210.98 215.743 208.8 212.603 208.8C209.343 208.8 207.103 211.02 207.103 214.48C207.103 217.94 209.443 220.18 212.603 220.18C215.303 220.18 217.043 218.64 217.663 216.72ZM222.487 214.2C222.487 211.86 223.527 211.16 225.207 211.16H225.787V208.8C224.227 208.8 223.127 209.48 222.487 210.58V208.98H220.207V220H222.487V214.2ZM242.458 216.06C242.458 210.98 235.098 212.94 235.098 209.8C235.098 208.46 236.118 207.82 237.438 207.86C238.878 207.9 239.698 208.76 239.778 209.7H242.298C242.098 207.32 240.218 205.92 237.558 205.92C234.718 205.92 232.778 207.44 232.778 209.88C232.778 215 240.158 212.82 240.158 216.18C240.158 217.36 239.258 218.22 237.658 218.22C236.078 218.22 235.278 217.3 235.178 216.16H232.738C232.738 218.62 234.878 220.14 237.658 220.14C240.758 220.14 242.458 218.14 242.458 216.06ZM249.788 210.72C251.488 210.72 252.828 211.8 252.868 213.5H246.768C247.008 211.76 248.248 210.72 249.788 210.72ZM254.948 216.72H252.488C252.068 217.58 251.288 218.26 249.888 218.26C248.208 218.26 246.908 217.16 246.748 215.34H255.168C255.228 214.96 255.248 214.6 255.248 214.22C255.248 210.98 253.028 208.8 249.888 208.8C246.628 208.8 244.388 211.02 244.388 214.48C244.388 217.94 246.728 220.18 249.888 220.18C252.588 220.18 254.328 218.64 254.948 216.72ZM256.732 214.48C256.732 217.94 258.972 220.18 262.132 220.18C264.832 220.18 266.592 218.68 267.212 216.52H264.752C264.332 217.66 263.492 218.26 262.132 218.26C260.292 218.26 259.072 216.9 259.072 214.48C259.072 212.08 260.292 210.72 262.132 210.72C263.492 210.72 264.372 211.4 264.752 212.46H267.212C266.592 210.14 264.832 208.8 262.132 208.8C258.972 208.8 256.732 211.04 256.732 214.48ZM279.464 208.98H277.184V215.12C277.184 217.14 276.084 218.18 274.404 218.18C272.744 218.18 271.644 217.14 271.644 215.12V208.98H269.384V215.46C269.384 218.54 271.344 220.16 273.924 220.16C275.224 220.16 276.464 219.62 277.184 218.68V220H279.464V208.98ZM284.753 214.2C284.753 211.86 285.793 211.16 287.473 211.16H288.053V208.8C286.493 208.8 285.393 209.48 284.753 210.58V208.98H282.473V220H284.753V214.2ZM290.148 220H292.428V208.98H290.148V220ZM291.308 207.52C292.108 207.52 292.748 206.88 292.748 206.06C292.748 205.24 292.108 204.6 291.308 204.6C290.488 204.6 289.848 205.24 289.848 206.06C289.848 206.88 290.488 207.52 291.308 207.52ZM295.782 216.94C295.782 219.18 297.002 220 298.962 220H300.762V218.1H299.362C298.402 218.1 298.082 217.76 298.082 216.94V210.84H300.762V208.98H298.082V206.24H295.782V208.98H294.482V210.84H295.782V216.94ZM307.203 217.38L304.103 208.98H301.563L305.903 219.82L303.663 225.18H306.023L312.783 208.98H310.423L307.203 217.38Z" fill="#212832"/>
<path d="M879.852 33H882.132V23.48L886.392 33H887.972L892.212 23.48V33H894.492V19.1H892.052L887.192 30L882.312 19.1H879.852V33ZM896.728 26.02C896.728 30.2 899.908 33.12 903.828 33.12C906.728 33.12 909.228 31.68 910.288 28.96H907.548C906.808 30.44 905.488 31.14 903.828 31.14C901.068 31.14 899.068 29.16 899.068 26.02C899.068 22.88 901.068 20.92 903.828 20.92C905.488 20.92 906.808 21.62 907.548 23.1H910.288C909.228 20.38 906.728 18.92 903.828 18.92C899.908 18.92 896.728 21.86 896.728 26.02ZM922.337 33H924.737L919.757 19.08H917.117L912.137 33H914.517L915.517 30.16H921.337L922.337 33ZM920.697 28.3H916.157L918.437 21.84L920.697 28.3ZM932.098 33H934.378V21.98H932.098V33ZM933.258 20.52C934.058 20.52 934.698 19.88 934.698 19.06C934.698 18.24 934.058 17.6 933.258 17.6C932.438 17.6 931.798 18.24 931.798 19.06C931.798 19.88 932.438 20.52 933.258 20.52ZM945.191 33H947.451V26.5C947.451 23.42 945.511 21.8 942.931 21.8C941.611 21.8 940.391 22.34 939.651 23.24V21.98H937.371V33H939.651V26.84C939.651 24.82 940.751 23.78 942.431 23.78C944.091 23.78 945.191 24.82 945.191 26.84V33ZM964.935 33H967.335L962.355 19.08H959.715L954.735 33H957.115L958.115 30.16H963.935L964.935 33ZM963.295 28.3H958.755L961.035 21.84L963.295 28.3ZM979.48 21.98H977.2V28.12C977.2 30.14 976.1 31.18 974.42 31.18C972.76 31.18 971.66 30.14 971.66 28.12V21.98H969.4V28.46C969.4 31.54 971.36 33.16 973.94 33.16C975.24 33.16 976.48 32.62 977.2 31.68V33H979.48V21.98ZM981.728 27.44C981.728 30.84 984.028 33.18 986.928 33.18C988.728 33.18 990.048 32.28 990.748 31.34V33.18C990.748 35.38 989.428 36.46 987.668 36.46C986.088 36.46 984.868 35.68 984.528 34.54H982.268C982.548 36.98 984.728 38.44 987.668 38.44C991.108 38.44 993.048 36.18 993.048 33.18V21.98H990.748V23.58C990.068 22.64 988.728 21.8 986.928 21.8C984.028 21.8 981.728 24.04 981.728 27.44ZM990.748 27.48C990.748 29.86 989.128 31.2 987.408 31.2C985.708 31.2 984.068 29.82 984.068 27.44C984.068 25.06 985.708 23.78 987.408 23.78C989.128 23.78 990.748 25.12 990.748 27.48ZM1011.66 33H1013.92V26.5C1013.92 23.42 1011.96 21.8 1009.38 21.8C1007.78 21.8 1006.22 22.64 1005.54 23.98C1004.78 22.54 1003.32 21.8 1001.58 21.8C1000.26 21.8 999.063 22.34 998.323 23.24V21.98H996.043V33H998.323V26.84C998.323 24.82 999.423 23.78 1001.1 23.78C1002.76 23.78 1003.86 24.82 1003.86 26.84V33H1006.12V26.84C1006.12 24.82 1007.22 23.78 1008.9 23.78C1010.56 23.78 1011.66 24.82 1011.66 26.84V33ZM1021.46 23.72C1023.16 23.72 1024.5 24.8 1024.54 26.5H1018.44C1018.68 24.76 1019.92 23.72 1021.46 23.72ZM1026.62 29.72H1024.16C1023.74 30.58 1022.96 31.26 1021.56 31.26C1019.88 31.26 1018.58 30.16 1018.42 28.34H1026.84C1026.9 27.96 1026.92 27.6 1026.92 27.22C1026.92 23.98 1024.7 21.8 1021.56 21.8C1018.3 21.8 1016.06 24.02 1016.06 27.48C1016.06 30.94 1018.4 33.18 1021.56 33.18C1024.26 33.18 1026 31.64 1026.62 29.72ZM1036.99 33H1039.25V26.5C1039.25 23.42 1037.31 21.8 1034.73 21.8C1033.41 21.8 1032.19 22.34 1031.45 23.24V21.98H1029.17V33H1031.45V26.84C1031.45 24.82 1032.55 23.78 1034.23 23.78C1035.89 23.78 1036.99 24.82 1036.99 26.84V33ZM1042.52 29.94C1042.52 32.18 1043.74 33 1045.7 33H1047.5V31.1H1046.1C1045.14 31.1 1044.82 30.76 1044.82 29.94V23.84H1047.5V21.98H1044.82V19.24H1042.52V21.98H1041.22V23.84H1042.52V29.94ZM1054.24 23.72C1055.94 23.72 1057.28 24.8 1057.32 26.5H1051.22C1051.46 24.76 1052.7 23.72 1054.24 23.72ZM1059.4 29.72H1056.94C1056.52 30.58 1055.74 31.26 1054.34 31.26C1052.66 31.26 1051.36 30.16 1051.2 28.34H1059.62C1059.68 27.96 1059.7 27.6 1059.7 27.22C1059.7 23.98 1057.48 21.8 1054.34 21.8C1051.08 21.8 1048.84 24.02 1048.84 27.48C1048.84 30.94 1051.18 33.18 1054.34 33.18C1057.04 33.18 1058.78 31.64 1059.4 29.72ZM1061.18 27.44C1061.18 30.84 1063.48 33.18 1066.38 33.18C1068.18 33.18 1069.5 32.34 1070.2 31.34V33H1072.5V18.2H1070.2V23.52C1069.36 22.48 1067.84 21.8 1066.4 21.8C1063.48 21.8 1061.18 24.04 1061.18 27.44ZM1070.2 27.48C1070.2 29.86 1068.58 31.2 1066.86 31.2C1065.16 31.2 1063.52 29.82 1063.52 27.44C1063.52 25.06 1065.16 23.78 1066.86 23.78C1068.58 23.78 1070.2 25.12 1070.2 27.48ZM1088.07 23.26C1088.07 24.64 1087.27 25.62 1085.49 25.62H1082.97V20.96H1085.49C1087.27 20.96 1088.07 21.86 1088.07 23.26ZM1080.69 19.1V33H1082.97V27.44H1084.71L1087.91 33H1090.63L1087.19 27.24C1089.53 26.66 1090.41 24.9 1090.41 23.26C1090.41 21 1088.79 19.1 1085.49 19.1H1080.69ZM1097.97 23.72C1099.67 23.72 1101.01 24.8 1101.05 26.5H1094.95C1095.19 24.76 1096.43 23.72 1097.97 23.72ZM1103.13 29.72H1100.67C1100.25 30.58 1099.47 31.26 1098.07 31.26C1096.39 31.26 1095.09 30.16 1094.93 28.34H1103.35C1103.41 27.96 1103.43 27.6 1103.43 27.22C1103.43 23.98 1101.21 21.8 1098.07 21.8C1094.81 21.8 1092.57 24.02 1092.57 27.48C1092.57 30.94 1094.91 33.18 1098.07 33.18C1100.77 33.18 1102.51 31.64 1103.13 29.72ZM1104.91 27.44C1104.91 30.84 1107.21 33.18 1110.07 33.18C1111.91 33.18 1113.23 32.3 1113.93 31.36V33H1116.23V21.98H1113.93V23.58C1113.25 22.68 1111.97 21.8 1110.11 21.8C1107.21 21.8 1104.91 24.04 1104.91 27.44ZM1113.93 27.48C1113.93 29.86 1112.31 31.2 1110.59 31.2C1108.89 31.2 1107.25 29.82 1107.25 27.44C1107.25 25.06 1108.89 23.78 1110.59 23.78C1112.31 23.78 1113.93 25.12 1113.93 27.48ZM1119.23 33H1121.51V18.2H1119.23V33ZM1124.5 33H1126.78V21.98H1124.5V33ZM1125.66 20.52C1126.46 20.52 1127.1 19.88 1127.1 19.06C1127.1 18.24 1126.46 17.6 1125.66 17.6C1124.84 17.6 1124.2 18.24 1124.2 19.06C1124.2 19.88 1124.84 20.52 1125.66 20.52ZM1130.13 29.94C1130.13 32.18 1131.35 33 1133.31 33H1135.11V31.1H1133.71C1132.75 31.1 1132.43 30.76 1132.43 29.94V23.84H1135.11V21.98H1132.43V19.24H1130.13V21.98H1128.83V23.84H1130.13V29.94ZM1141.55 30.38L1138.45 21.98H1135.91L1140.25 32.82L1138.01 38.18H1140.37L1147.13 21.98H1144.77L1141.55 30.38ZM1153.29 27.44C1153.29 30.84 1155.59 33.18 1158.45 33.18C1160.29 33.18 1161.61 32.3 1162.31 31.36V33H1164.61V21.98H1162.31V23.58C1161.63 22.68 1160.35 21.8 1158.49 21.8C1155.59 21.8 1153.29 24.04 1153.29 27.44ZM1162.31 27.48C1162.31 29.86 1160.69 31.2 1158.97 31.2C1157.27 31.2 1155.63 29.82 1155.63 27.44C1155.63 25.06 1157.27 23.78 1158.97 23.78C1160.69 23.78 1162.31 25.12 1162.31 27.48ZM1175.43 33H1177.69V26.5C1177.69 23.42 1175.75 21.8 1173.17 21.8C1171.85 21.8 1170.63 22.34 1169.89 23.24V21.98H1167.61V33H1169.89V26.84C1169.89 24.82 1170.99 23.78 1172.67 23.78C1174.33 23.78 1175.43 24.82 1175.43 26.84V33ZM1179.83 27.44C1179.83 30.84 1182.13 33.18 1185.03 33.18C1186.83 33.18 1188.15 32.34 1188.85 31.34V33H1191.15V18.2H1188.85V23.52C1188.01 22.48 1186.49 21.8 1185.05 21.8C1182.13 21.8 1179.83 24.04 1179.83 27.44ZM1188.85 27.48C1188.85 29.86 1187.23 31.2 1185.51 31.2C1183.81 31.2 1182.17 29.82 1182.17 27.44C1182.17 25.06 1183.81 23.78 1185.51 23.78C1187.23 23.78 1188.85 25.12 1188.85 27.48ZM972.713 55.66L968.593 44.1H966.153L971.393 58H974.033L979.253 44.1H976.853L972.713 55.66ZM981.16 58H983.44V46.98H981.16V58ZM982.32 45.52C983.12 45.52 983.76 44.88 983.76 44.06C983.76 43.24 983.12 42.6 982.32 42.6C981.5 42.6 980.86 43.24 980.86 44.06C980.86 44.88 981.5 45.52 982.32 45.52ZM988.714 52.2C988.714 49.86 989.754 49.16 991.434 49.16H992.014V46.8C990.454 46.8 989.354 47.48 988.714 48.58V46.98H986.434V58H988.714V52.2ZM994.469 54.94C994.469 57.18 995.689 58 997.649 58H999.449V56.1H998.049C997.089 56.1 996.769 55.76 996.769 54.94V48.84H999.449V46.98H996.769V44.24H994.469V46.98H993.169V48.84H994.469V54.94ZM1011.53 46.98H1009.25V53.12C1009.25 55.14 1008.15 56.18 1006.47 56.18C1004.81 56.18 1003.71 55.14 1003.71 53.12V46.98H1001.45V53.46C1001.45 56.54 1003.41 58.16 1005.99 58.16C1007.29 58.16 1008.53 57.62 1009.25 56.68V58H1011.53V46.98ZM1013.78 52.44C1013.78 55.84 1016.08 58.18 1018.94 58.18C1020.78 58.18 1022.1 57.3 1022.8 56.36V58H1025.1V46.98H1022.8V48.58C1022.12 47.68 1020.84 46.8 1018.98 46.8C1016.08 46.8 1013.78 49.04 1013.78 52.44ZM1022.8 52.48C1022.8 54.86 1021.18 56.2 1019.46 56.2C1017.76 56.2 1016.12 54.82 1016.12 52.44C1016.12 50.06 1017.76 48.78 1019.46 48.78C1021.18 48.78 1022.8 50.12 1022.8 52.48ZM1028.09 58H1030.37V43.2H1028.09V58ZM1045.94 48.26C1045.94 49.64 1045.14 50.62 1043.36 50.62H1040.84V45.96H1043.36C1045.14 45.96 1045.94 46.86 1045.94 48.26ZM1038.56 44.1V58H1040.84V52.44H1042.58L1045.78 58H1048.5L1045.06 52.24C1047.4 51.66 1048.28 49.9 1048.28 48.26C1048.28 46 1046.66 44.1 1043.36 44.1H1038.56ZM1055.84 48.72C1057.54 48.72 1058.88 49.8 1058.92 51.5H1052.82C1053.06 49.76 1054.3 48.72 1055.84 48.72ZM1061 54.72H1058.54C1058.12 55.58 1057.34 56.26 1055.94 56.26C1054.26 56.26 1052.96 55.16 1052.8 53.34H1061.22C1061.28 52.96 1061.3 52.6 1061.3 52.22C1061.3 48.98 1059.08 46.8 1055.94 46.8C1052.68 46.8 1050.44 49.02 1050.44 52.48C1050.44 55.94 1052.78 58.18 1055.94 58.18C1058.64 58.18 1060.38 56.64 1061 54.72ZM1062.78 52.44C1062.78 55.84 1065.08 58.18 1067.94 58.18C1069.78 58.18 1071.1 57.3 1071.8 56.36V58H1074.1V46.98H1071.8V48.58C1071.12 47.68 1069.84 46.8 1067.98 46.8C1065.08 46.8 1062.78 49.04 1062.78 52.44ZM1071.8 52.48C1071.8 54.86 1070.18 56.2 1068.46 56.2C1066.76 56.2 1065.12 54.82 1065.12 52.44C1065.12 50.06 1066.76 48.78 1068.46 48.78C1070.18 48.78 1071.8 50.12 1071.8 52.48ZM1077.1 58H1079.38V43.2H1077.1V58ZM1082.37 58H1084.65V46.98H1082.37V58ZM1083.53 45.52C1084.33 45.52 1084.97 44.88 1084.97 44.06C1084.97 43.24 1084.33 42.6 1083.53 42.6C1082.71 42.6 1082.07 43.24 1082.07 44.06C1082.07 44.88 1082.71 45.52 1083.53 45.52ZM1088 54.94C1088 57.18 1089.22 58 1091.18 58H1092.98V56.1H1091.58C1090.62 56.1 1090.3 55.76 1090.3 54.94V48.84H1092.98V46.98H1090.3V44.24H1088V46.98H1086.7V48.84H1088V54.94ZM1099.43 55.38L1096.33 46.98H1093.79L1098.13 57.82L1095.89 63.18H1098.25L1105.01 46.98H1102.65L1099.43 55.38Z" fill="#212832"/>
<path d="M1002.64 299.72H1010.86V297.8H1002.64V299.72ZM1014.34 299.72H1022.56V297.8H1014.34V299.72ZM1026.04 299.72H1034.26V297.8H1026.04V299.72ZM1037.74 299.72H1045.96V297.8H1037.74V299.72ZM1049.44 299.72H1057.66V297.8H1049.44V299.72ZM1061.14 299.72H1069.36V297.8H1061.14V299.72Z" fill="#212832"/>
<path d="M886.883 120H889.163V110.48L893.423 120H895.003L899.243 110.48V120H901.523V106.1H899.083L894.223 117L889.343 106.1H886.883V120ZM903.76 113.02C903.76 117.2 906.94 120.12 910.86 120.12C913.76 120.12 916.26 118.68 917.32 115.96H914.58C913.84 117.44 912.52 118.14 910.86 118.14C908.1 118.14 906.1 116.16 906.1 113.02C906.1 109.88 908.1 107.92 910.86 107.92C912.52 107.92 913.84 108.62 914.58 110.1H917.32C916.26 107.38 913.76 105.92 910.86 105.92C906.94 105.92 903.76 108.86 903.76 113.02ZM929.368 120H931.768L926.788 106.08H924.148L919.168 120H921.548L922.548 117.16H928.368L929.368 120ZM927.728 115.3H923.188L925.468 108.84L927.728 115.3ZM939.129 120H941.409V108.98H939.129V120ZM940.289 107.52C941.089 107.52 941.729 106.88 941.729 106.06C941.729 105.24 941.089 104.6 940.289 104.6C939.469 104.6 938.829 105.24 938.829 106.06C938.829 106.88 939.469 107.52 940.289 107.52ZM952.222 120H954.482V113.5C954.482 110.42 952.542 108.8 949.962 108.8C948.642 108.8 947.422 109.34 946.682 110.24V108.98H944.402V120H946.682V113.84C946.682 111.82 947.782 110.78 949.462 110.78C951.122 110.78 952.222 111.82 952.222 113.84V120ZM962.586 120H964.866V110.48L969.126 120H970.706L974.946 110.48V120H977.226V106.1H974.786L969.926 117L965.046 106.1H962.586V120ZM979.463 114.44C979.463 117.84 981.763 120.18 984.623 120.18C986.463 120.18 987.783 119.3 988.483 118.36V120H990.783V108.98H988.483V110.58C987.803 109.68 986.523 108.8 984.663 108.8C981.763 108.8 979.463 111.04 979.463 114.44ZM988.483 114.48C988.483 116.86 986.863 118.2 985.143 118.2C983.443 118.2 981.803 116.82 981.803 114.44C981.803 112.06 983.443 110.78 985.143 110.78C986.863 110.78 988.483 112.12 988.483 114.48ZM993.017 114.48C993.017 117.94 995.257 120.18 998.417 120.18C1001.12 120.18 1002.88 118.68 1003.5 116.52H1001.04C1000.62 117.66 999.777 118.26 998.417 118.26C996.577 118.26 995.357 116.9 995.357 114.48C995.357 112.08 996.577 110.72 998.417 110.72C999.777 110.72 1000.66 111.4 1001.04 112.46H1003.5C1002.88 110.14 1001.12 108.8 998.417 108.8C995.257 108.8 993.017 111.04 993.017 114.48ZM1005.77 120H1008.05V113.84C1008.05 111.82 1009.15 110.78 1010.83 110.78C1012.49 110.78 1013.59 111.82 1013.59 113.84V120H1015.85V113.5C1015.85 110.42 1013.93 108.8 1011.47 108.8C1010.05 108.8 1008.81 109.34 1008.05 110.26V105.2H1005.77V120ZM1018.76 120H1021.04V108.98H1018.76V120ZM1019.92 107.52C1020.72 107.52 1021.36 106.88 1021.36 106.06C1021.36 105.24 1020.72 104.6 1019.92 104.6C1019.1 104.6 1018.46 105.24 1018.46 106.06C1018.46 106.88 1019.1 107.52 1019.92 107.52ZM1031.85 120H1034.11V113.5C1034.11 110.42 1032.17 108.8 1029.59 108.8C1028.27 108.8 1027.05 109.34 1026.31 110.24V108.98H1024.03V120H1026.31V113.84C1026.31 111.82 1027.41 110.78 1029.09 110.78C1030.75 110.78 1031.85 111.82 1031.85 113.84V120ZM1041.66 110.72C1043.36 110.72 1044.7 111.8 1044.74 113.5H1038.64C1038.88 111.76 1040.12 110.72 1041.66 110.72ZM1046.82 116.72H1044.36C1043.94 117.58 1043.16 118.26 1041.76 118.26C1040.08 118.26 1038.78 117.16 1038.62 115.34H1047.04C1047.1 114.96 1047.12 114.6 1047.12 114.22C1047.12 110.98 1044.9 108.8 1041.76 108.8C1038.5 108.8 1036.26 111.02 1036.26 114.48C1036.26 117.94 1038.6 120.18 1041.76 120.18C1044.46 120.18 1046.2 118.64 1046.82 116.72ZM1054.56 106.1V120H1061.54V118.16H1056.84V106.1H1054.56ZM1068.09 110.72C1069.79 110.72 1071.13 111.8 1071.17 113.5H1065.07C1065.31 111.76 1066.55 110.72 1068.09 110.72ZM1073.25 116.72H1070.79C1070.37 117.58 1069.59 118.26 1068.19 118.26C1066.51 118.26 1065.21 117.16 1065.05 115.34H1073.47C1073.53 114.96 1073.55 114.6 1073.55 114.22C1073.55 110.98 1071.33 108.8 1068.19 108.8C1064.93 108.8 1062.69 111.02 1062.69 114.48C1062.69 117.94 1065.03 120.18 1068.19 120.18C1070.89 120.18 1072.63 118.64 1073.25 116.72ZM1075.03 114.44C1075.03 117.84 1077.33 120.18 1080.19 120.18C1082.03 120.18 1083.35 119.3 1084.05 118.36V120H1086.35V108.98H1084.05V110.58C1083.37 109.68 1082.09 108.8 1080.23 108.8C1077.33 108.8 1075.03 111.04 1075.03 114.44ZM1084.05 114.48C1084.05 116.86 1082.43 118.2 1080.71 118.2C1079.01 118.2 1077.37 116.82 1077.37 114.44C1077.37 112.06 1079.01 110.78 1080.71 110.78C1082.43 110.78 1084.05 112.12 1084.05 114.48ZM1091.62 114.2C1091.62 111.86 1092.66 111.16 1094.34 111.16H1094.92V108.8C1093.36 108.8 1092.26 109.48 1091.62 110.58V108.98H1089.34V120H1091.62V114.2ZM1104.84 120H1107.1V113.5C1107.1 110.42 1105.16 108.8 1102.58 108.8C1101.26 108.8 1100.04 109.34 1099.3 110.24V108.98H1097.02V120H1099.3V113.84C1099.3 111.82 1100.4 110.78 1102.08 110.78C1103.74 110.78 1104.84 111.82 1104.84 113.84V120ZM1110.01 120H1112.29V108.98H1110.01V120ZM1111.17 107.52C1111.97 107.52 1112.61 106.88 1112.61 106.06C1112.61 105.24 1111.97 104.6 1111.17 104.6C1110.35 104.6 1109.71 105.24 1109.71 106.06C1109.71 106.88 1110.35 107.52 1111.17 107.52ZM1123.1 120H1125.36V113.5C1125.36 110.42 1123.42 108.8 1120.84 108.8C1119.52 108.8 1118.3 109.34 1117.56 110.24V108.98H1115.28V120H1117.56V113.84C1117.56 111.82 1118.66 110.78 1120.34 110.78C1122 110.78 1123.1 111.82 1123.1 113.84V120ZM1127.51 114.44C1127.51 117.84 1129.81 120.18 1132.71 120.18C1134.51 120.18 1135.83 119.28 1136.53 118.34V120.18C1136.53 122.38 1135.21 123.46 1133.45 123.46C1131.87 123.46 1130.65 122.68 1130.31 121.54H1128.05C1128.33 123.98 1130.51 125.44 1133.45 125.44C1136.89 125.44 1138.83 123.18 1138.83 120.18V108.98H1136.53V110.58C1135.85 109.64 1134.51 108.8 1132.71 108.8C1129.81 108.8 1127.51 111.04 1127.51 114.44ZM1136.53 114.48C1136.53 116.86 1134.91 118.2 1133.19 118.2C1131.49 118.2 1129.85 116.82 1129.85 114.44C1129.85 112.06 1131.49 110.78 1133.19 110.78C1134.91 110.78 1136.53 112.12 1136.53 114.48ZM1146.26 114.44C1146.26 117.84 1148.56 120.18 1151.42 120.18C1153.26 120.18 1154.58 119.3 1155.28 118.36V120H1157.58V108.98H1155.28V110.58C1154.6 109.68 1153.32 108.8 1151.46 108.8C1148.56 108.8 1146.26 111.04 1146.26 114.44ZM1155.28 114.48C1155.28 116.86 1153.66 118.2 1151.94 118.2C1150.24 118.2 1148.6 116.82 1148.6 114.44C1148.6 112.06 1150.24 110.78 1151.94 110.78C1153.66 110.78 1155.28 112.12 1155.28 114.48ZM1168.39 120H1170.65V113.5C1170.65 110.42 1168.71 108.8 1166.13 108.8C1164.81 108.8 1163.59 109.34 1162.85 110.24V108.98H1160.57V120H1162.85V113.84C1162.85 111.82 1163.95 110.78 1165.63 110.78C1167.29 110.78 1168.39 111.82 1168.39 113.84V120ZM1172.8 114.44C1172.8 117.84 1175.1 120.18 1178 120.18C1179.8 120.18 1181.12 119.34 1181.82 118.34V120H1184.12V105.2H1181.82V110.52C1180.98 109.48 1179.46 108.8 1178.02 108.8C1175.1 108.8 1172.8 111.04 1172.8 114.44ZM1181.82 114.48C1181.82 116.86 1180.2 118.2 1178.48 118.2C1176.78 118.2 1175.14 116.82 1175.14 114.44C1175.14 112.06 1176.78 110.78 1178.48 110.78C1180.2 110.78 1181.82 112.12 1181.82 114.48ZM944.066 145H946.466L941.486 131.08H938.846L933.866 145H936.246L937.246 142.16H943.066L944.066 145ZM942.426 140.3H937.886L940.166 133.84L942.426 140.3ZM950.911 139.2C950.911 136.86 951.951 136.16 953.631 136.16H954.211V133.8C952.651 133.8 951.551 134.48 950.911 135.58V133.98H948.631V145H950.911V139.2ZM956.667 141.94C956.667 144.18 957.887 145 959.847 145H961.647V143.1H960.247C959.287 143.1 958.967 142.76 958.967 141.94V135.84H961.647V133.98H958.967V131.24H956.667V133.98H955.367V135.84H956.667V141.94ZM963.748 145H966.028V133.98H963.748V145ZM964.908 132.52C965.708 132.52 966.348 131.88 966.348 131.06C966.348 130.24 965.708 129.6 964.908 129.6C964.088 129.6 963.448 130.24 963.448 131.06C963.448 131.88 964.088 132.52 964.908 132.52ZM969.301 145H971.601V135.84H973.641V133.98H971.601V133.2C971.601 131.94 972.081 131.46 973.481 131.46V129.56C970.601 129.56 969.301 130.66 969.301 133.2V133.98H968.001V135.84H969.301V145ZM975.662 145H977.942V133.98H975.662V145ZM976.822 132.52C977.622 132.52 978.262 131.88 978.262 131.06C978.262 130.24 977.622 129.6 976.822 129.6C976.002 129.6 975.362 130.24 975.362 131.06C975.362 131.88 976.002 132.52 976.822 132.52ZM980.176 139.48C980.176 142.94 982.416 145.18 985.576 145.18C988.276 145.18 990.036 143.68 990.656 141.52H988.196C987.776 142.66 986.936 143.26 985.576 143.26C983.736 143.26 982.516 141.9 982.516 139.48C982.516 137.08 983.736 135.72 985.576 135.72C986.936 135.72 987.816 136.4 988.196 137.46H990.656C990.036 135.14 988.276 133.8 985.576 133.8C982.416 133.8 980.176 136.04 980.176 139.48ZM992.928 145H995.208V133.98H992.928V145ZM994.088 132.52C994.888 132.52 995.528 131.88 995.528 131.06C995.528 130.24 994.888 129.6 994.088 129.6C993.268 129.6 992.628 130.24 992.628 131.06C992.628 131.88 993.268 132.52 994.088 132.52ZM997.441 139.44C997.441 142.84 999.741 145.18 1002.6 145.18C1004.44 145.18 1005.76 144.3 1006.46 143.36V145H1008.76V133.98H1006.46V135.58C1005.78 134.68 1004.5 133.8 1002.64 133.8C999.741 133.8 997.441 136.04 997.441 139.44ZM1006.46 139.48C1006.46 141.86 1004.84 143.2 1003.12 143.2C1001.42 143.2 999.781 141.82 999.781 139.44C999.781 137.06 1001.42 135.78 1003.12 135.78C1004.84 135.78 1006.46 137.12 1006.46 139.48ZM1011.76 145H1014.04V130.2H1011.76V145ZM1022.22 145H1024.5V131.1H1022.22V145ZM1035.32 145H1037.58V138.5C1037.58 135.42 1035.64 133.8 1033.06 133.8C1031.74 133.8 1030.52 134.34 1029.78 135.24V133.98H1027.5V145H1029.78V138.84C1029.78 136.82 1030.88 135.78 1032.56 135.78C1034.22 135.78 1035.32 136.82 1035.32 138.84V145ZM1040.85 141.94C1040.85 144.18 1042.07 145 1044.03 145H1045.83V143.1H1044.43C1043.47 143.1 1043.15 142.76 1043.15 141.94V135.84H1045.83V133.98H1043.15V131.24H1040.85V133.98H1039.55V135.84H1040.85V141.94ZM1052.57 135.72C1054.27 135.72 1055.61 136.8 1055.65 138.5H1049.55C1049.79 136.76 1051.03 135.72 1052.57 135.72ZM1057.73 141.72H1055.27C1054.85 142.58 1054.07 143.26 1052.67 143.26C1050.99 143.26 1049.69 142.16 1049.53 140.34H1057.95C1058.01 139.96 1058.03 139.6 1058.03 139.22C1058.03 135.98 1055.81 133.8 1052.67 133.8C1049.41 133.8 1047.17 136.02 1047.17 139.48C1047.17 142.94 1049.51 145.18 1052.67 145.18C1055.37 145.18 1057.11 143.64 1057.73 141.72ZM1060.27 145H1062.55V130.2H1060.27V145ZM1065.54 145H1067.82V130.2H1065.54V145ZM1070.82 145H1073.1V133.98H1070.82V145ZM1071.98 132.52C1072.78 132.52 1073.42 131.88 1073.42 131.06C1073.42 130.24 1072.78 129.6 1071.98 129.6C1071.16 129.6 1070.52 130.24 1070.52 131.06C1070.52 131.88 1071.16 132.52 1071.98 132.52ZM1075.33 139.44C1075.33 142.84 1077.63 145.18 1080.53 145.18C1082.33 145.18 1083.65 144.28 1084.35 143.34V145.18C1084.35 147.38 1083.03 148.46 1081.27 148.46C1079.69 148.46 1078.47 147.68 1078.13 146.54H1075.87C1076.15 148.98 1078.33 150.44 1081.27 150.44C1084.71 150.44 1086.65 148.18 1086.65 145.18V133.98H1084.35V135.58C1083.67 134.64 1082.33 133.8 1080.53 133.8C1077.63 133.8 1075.33 136.04 1075.33 139.44ZM1084.35 139.48C1084.35 141.86 1082.73 143.2 1081.01 143.2C1079.31 143.2 1077.67 141.82 1077.67 139.44C1077.67 137.06 1079.31 135.78 1081.01 135.78C1082.73 135.78 1084.35 137.12 1084.35 139.48ZM1094.29 135.72C1095.99 135.72 1097.33 136.8 1097.37 138.5H1091.27C1091.51 136.76 1092.75 135.72 1094.29 135.72ZM1099.45 141.72H1096.99C1096.57 142.58 1095.79 143.26 1094.39 143.26C1092.71 143.26 1091.41 142.16 1091.25 140.34H1099.67C1099.73 139.96 1099.75 139.6 1099.75 139.22C1099.75 135.98 1097.53 133.8 1094.39 133.8C1091.13 133.8 1088.89 136.02 1088.89 139.48C1088.89 142.94 1091.23 145.18 1094.39 145.18C1097.09 145.18 1098.83 143.64 1099.45 141.72ZM1109.81 145H1112.07V138.5C1112.07 135.42 1110.13 133.8 1107.55 133.8C1106.23 133.8 1105.01 134.34 1104.27 135.24V133.98H1101.99V145H1104.27V138.84C1104.27 136.82 1105.37 135.78 1107.05 135.78C1108.71 135.78 1109.81 136.82 1109.81 138.84V145ZM1114.22 139.48C1114.22 142.94 1116.46 145.18 1119.62 145.18C1122.32 145.18 1124.08 143.68 1124.7 141.52H1122.24C1121.82 142.66 1120.98 143.26 1119.62 143.26C1117.78 143.26 1116.56 141.9 1116.56 139.48C1116.56 137.08 1117.78 135.72 1119.62 135.72C1120.98 135.72 1121.86 136.4 1122.24 137.46H1124.7C1124.08 135.14 1122.32 133.8 1119.62 133.8C1116.46 133.8 1114.22 136.04 1114.22 139.48ZM1131.61 135.72C1133.31 135.72 1134.65 136.8 1134.69 138.5H1128.59C1128.83 136.76 1130.07 135.72 1131.61 135.72ZM1136.77 141.72H1134.31C1133.89 142.58 1133.11 143.26 1131.71 143.26C1130.03 143.26 1128.73 142.16 1128.57 140.34H1136.99C1137.05 139.96 1137.07 139.6 1137.07 139.22C1137.07 135.98 1134.85 133.8 1131.71 133.8C1128.45 133.8 1126.21 136.02 1126.21 139.48C1126.21 142.94 1128.55 145.18 1131.71 145.18C1134.41 145.18 1136.15 143.64 1136.77 141.72Z" fill="#212832"/>
<path d="M910.029 220H912.309V210.48L916.569 220H918.149L922.389 210.48V220H924.669V206.1H922.229L917.369 217L912.489 206.1H910.029V220ZM926.906 213.02C926.906 217.2 930.086 220.12 934.006 220.12C936.906 220.12 939.406 218.68 940.466 215.96H937.726C936.986 217.44 935.666 218.14 934.006 218.14C931.246 218.14 929.246 216.16 929.246 213.02C929.246 209.88 931.246 207.92 934.006 207.92C935.666 207.92 936.986 208.62 937.726 210.1H940.466C939.406 207.38 936.906 205.92 934.006 205.92C930.086 205.92 926.906 208.86 926.906 213.02ZM952.515 220H954.915L949.935 206.08H947.295L942.315 220H944.695L945.695 217.16H951.515L952.515 220ZM950.875 215.3H946.335L948.615 208.84L950.875 215.3ZM962.275 220H964.555V208.98H962.275V220ZM963.435 207.52C964.235 207.52 964.875 206.88 964.875 206.06C964.875 205.24 964.235 204.6 963.435 204.6C962.615 204.6 961.975 205.24 961.975 206.06C961.975 206.88 962.615 207.52 963.435 207.52ZM975.369 220H977.629V213.5C977.629 210.42 975.689 208.8 973.109 208.8C971.789 208.8 970.569 209.34 969.829 210.24V208.98H967.549V220H969.829V213.84C969.829 211.82 970.929 210.78 972.609 210.78C974.269 210.78 975.369 211.82 975.369 213.84V220ZM985.732 220H988.012V210.48L992.272 220H993.852L998.092 210.48V220H1000.37V206.1H997.932L993.072 217L988.192 206.1H985.732V220ZM1002.61 214.44C1002.61 217.84 1004.91 220.18 1007.77 220.18C1009.61 220.18 1010.93 219.3 1011.63 218.36V220H1013.93V208.98H1011.63V210.58C1010.95 209.68 1009.67 208.8 1007.81 208.8C1004.91 208.8 1002.61 211.04 1002.61 214.44ZM1011.63 214.48C1011.63 216.86 1010.01 218.2 1008.29 218.2C1006.59 218.2 1004.95 216.82 1004.95 214.44C1004.95 212.06 1006.59 210.78 1008.29 210.78C1010.01 210.78 1011.63 212.12 1011.63 214.48ZM1016.16 214.48C1016.16 217.94 1018.4 220.18 1021.56 220.18C1024.26 220.18 1026.02 218.68 1026.64 216.52H1024.18C1023.76 217.66 1022.92 218.26 1021.56 218.26C1019.72 218.26 1018.5 216.9 1018.5 214.48C1018.5 212.08 1019.72 210.72 1021.56 210.72C1022.92 210.72 1023.8 211.4 1024.18 212.46H1026.64C1026.02 210.14 1024.26 208.8 1021.56 208.8C1018.4 208.8 1016.16 211.04 1016.16 214.48ZM1028.92 220H1031.2V213.84C1031.2 211.82 1032.3 210.78 1033.98 210.78C1035.64 210.78 1036.74 211.82 1036.74 213.84V220H1039V213.5C1039 210.42 1037.08 208.8 1034.62 208.8C1033.2 208.8 1031.96 209.34 1031.2 210.26V205.2H1028.92V220ZM1041.9 220H1044.18V208.98H1041.9V220ZM1043.06 207.52C1043.86 207.52 1044.5 206.88 1044.5 206.06C1044.5 205.24 1043.86 204.6 1043.06 204.6C1042.24 204.6 1041.6 205.24 1041.6 206.06C1041.6 206.88 1042.24 207.52 1043.06 207.52ZM1055 220H1057.26V213.5C1057.26 210.42 1055.32 208.8 1052.74 208.8C1051.42 208.8 1050.2 209.34 1049.46 210.24V208.98H1047.18V220H1049.46V213.84C1049.46 211.82 1050.56 210.78 1052.24 210.78C1053.9 210.78 1055 211.82 1055 213.84V220ZM1064.81 210.72C1066.51 210.72 1067.85 211.8 1067.89 213.5H1061.79C1062.03 211.76 1063.27 210.72 1064.81 210.72ZM1069.97 216.72H1067.51C1067.09 217.58 1066.31 218.26 1064.91 218.26C1063.23 218.26 1061.93 217.16 1061.77 215.34H1070.19C1070.25 214.96 1070.27 214.6 1070.27 214.22C1070.27 210.98 1068.05 208.8 1064.91 208.8C1061.65 208.8 1059.41 211.02 1059.41 214.48C1059.41 217.94 1061.75 220.18 1064.91 220.18C1067.61 220.18 1069.35 218.64 1069.97 216.72ZM1077.71 206.1V220H1084.69V218.16H1079.99V206.1H1077.71ZM1091.23 210.72C1092.93 210.72 1094.27 211.8 1094.31 213.5H1088.21C1088.45 211.76 1089.69 210.72 1091.23 210.72ZM1096.39 216.72H1093.93C1093.51 217.58 1092.73 218.26 1091.33 218.26C1089.65 218.26 1088.35 217.16 1088.19 215.34H1096.61C1096.67 214.96 1096.69 214.6 1096.69 214.22C1096.69 210.98 1094.47 208.8 1091.33 208.8C1088.07 208.8 1085.83 211.02 1085.83 214.48C1085.83 217.94 1088.17 220.18 1091.33 220.18C1094.03 220.18 1095.77 218.64 1096.39 216.72ZM1098.18 214.44C1098.18 217.84 1100.48 220.18 1103.34 220.18C1105.18 220.18 1106.5 219.3 1107.2 218.36V220H1109.5V208.98H1107.2V210.58C1106.52 209.68 1105.24 208.8 1103.38 208.8C1100.48 208.8 1098.18 211.04 1098.18 214.44ZM1107.2 214.48C1107.2 216.86 1105.58 218.2 1103.86 218.2C1102.16 218.2 1100.52 216.82 1100.52 214.44C1100.52 212.06 1102.16 210.78 1103.86 210.78C1105.58 210.78 1107.2 212.12 1107.2 214.48ZM1114.77 214.2C1114.77 211.86 1115.81 211.16 1117.49 211.16H1118.07V208.8C1116.51 208.8 1115.41 209.48 1114.77 210.58V208.98H1112.49V220H1114.77V214.2ZM1127.99 220H1130.25V213.5C1130.25 210.42 1128.31 208.8 1125.73 208.8C1124.41 208.8 1123.19 209.34 1122.45 210.24V208.98H1120.17V220H1122.45V213.84C1122.45 211.82 1123.55 210.78 1125.23 210.78C1126.89 210.78 1127.99 211.82 1127.99 213.84V220ZM1133.15 220H1135.43V208.98H1133.15V220ZM1134.31 207.52C1135.11 207.52 1135.75 206.88 1135.75 206.06C1135.75 205.24 1135.11 204.6 1134.31 204.6C1133.49 204.6 1132.85 205.24 1132.85 206.06C1132.85 206.88 1133.49 207.52 1134.31 207.52ZM1146.25 220H1148.51V213.5C1148.51 210.42 1146.57 208.8 1143.99 208.8C1142.67 208.8 1141.45 209.34 1140.71 210.24V208.98H1138.43V220H1140.71V213.84C1140.71 211.82 1141.81 210.78 1143.49 210.78C1145.15 210.78 1146.25 211.82 1146.25 213.84V220ZM1150.66 214.44C1150.66 217.84 1152.96 220.18 1155.86 220.18C1157.66 220.18 1158.98 219.28 1159.68 218.34V220.18C1159.68 222.38 1158.36 223.46 1156.6 223.46C1155.02 223.46 1153.8 222.68 1153.46 221.54H1151.2C1151.48 223.98 1153.66 225.44 1156.6 225.44C1160.04 225.44 1161.98 223.18 1161.98 220.18V208.98H1159.68V210.58C1159 209.64 1157.66 208.8 1155.86 208.8C1152.96 208.8 1150.66 211.04 1150.66 214.44ZM1159.68 214.48C1159.68 216.86 1158.06 218.2 1156.34 218.2C1154.64 218.2 1153 216.82 1153 214.44C1153 212.06 1154.64 210.78 1156.34 210.78C1158.06 210.78 1159.68 212.12 1159.68 214.48Z" fill="#212832"/>
<path d="M508.789 46H511.069V36.48L515.329 46H516.909L521.149 36.48V46H523.429V32.1H520.989L516.129 43L511.249 32.1H508.789V46ZM525.666 39.02C525.666 43.2 528.846 46.12 532.766 46.12C535.666 46.12 538.166 44.68 539.226 41.96H536.486C535.746 43.44 534.426 44.14 532.766 44.14C530.006 44.14 528.006 42.16 528.006 39.02C528.006 35.88 530.006 33.92 532.766 33.92C534.426 33.92 535.746 34.62 536.486 36.1H539.226C538.166 33.38 535.666 31.92 532.766 31.92C528.846 31.92 525.666 34.86 525.666 39.02ZM551.275 46H553.675L548.695 32.08H546.055L541.075 46H543.455L544.455 43.16H550.275L551.275 46ZM549.635 41.3H545.095L547.375 34.84L549.635 41.3ZM561.035 46H563.315V32.1H561.035V46ZM574.129 46H576.389V39.5C576.389 36.42 574.449 34.8 571.869 34.8C570.549 34.8 569.329 35.34 568.589 36.24V34.98H566.309V46H568.589V39.84C568.589 37.82 569.689 36.78 571.369 36.78C573.029 36.78 574.129 37.82 574.129 39.84V46ZM589.032 32.1H584.492V46H589.032C593.492 46 596.412 43.38 596.412 39.1C596.412 34.8 593.492 32.1 589.032 32.1ZM586.772 44.14V33.96H589.032C592.312 33.96 594.072 35.92 594.072 39.1C594.072 42.26 592.312 44.14 589.032 44.14H586.772ZM597.912 40.44C597.912 43.84 600.212 46.18 603.072 46.18C604.912 46.18 606.232 45.3 606.932 44.36V46H609.232V34.98H606.932V36.58C606.252 35.68 604.972 34.8 603.112 34.8C600.212 34.8 597.912 37.04 597.912 40.44ZM606.932 40.48C606.932 42.86 605.312 44.2 603.592 44.2C601.892 44.2 600.252 42.82 600.252 40.44C600.252 38.06 601.892 36.78 603.592 36.78C605.312 36.78 606.932 38.12 606.932 40.48ZM612.587 42.94C612.587 45.18 613.807 46 615.767 46H617.567V44.1H616.167C615.207 44.1 614.887 43.76 614.887 42.94V36.84H617.567V34.98H614.887V32.24H612.587V34.98H611.287V36.84H612.587V42.94ZM618.908 40.44C618.908 43.84 621.208 46.18 624.068 46.18C625.908 46.18 627.228 45.3 627.928 44.36V46H630.228V34.98H627.928V36.58C627.248 35.68 625.968 34.8 624.108 34.8C621.208 34.8 618.908 37.04 618.908 40.44ZM627.928 40.48C627.928 42.86 626.308 44.2 624.588 44.2C622.888 44.2 621.248 42.82 621.248 40.44C621.248 38.06 622.888 36.78 624.588 36.78C626.308 36.78 627.928 38.12 627.928 40.48ZM647.798 46H650.198L645.218 32.08H642.578L637.598 46H639.978L640.978 43.16H646.798L647.798 46ZM646.158 41.3H641.618L643.898 34.84L646.158 41.3ZM660.183 46H662.443V39.5C662.443 36.42 660.503 34.8 657.923 34.8C656.603 34.8 655.383 35.34 654.643 36.24V34.98H652.363V46H654.643V39.84C654.643 37.82 655.743 36.78 657.423 36.78C659.083 36.78 660.183 37.82 660.183 39.84V46ZM664.592 40.44C664.592 43.84 666.892 46.18 669.752 46.18C671.592 46.18 672.912 45.3 673.612 44.36V46H675.912V34.98H673.612V36.58C672.932 35.68 671.652 34.8 669.792 34.8C666.892 34.8 664.592 37.04 664.592 40.44ZM673.612 40.48C673.612 42.86 671.992 44.2 670.272 44.2C668.572 44.2 666.932 42.82 666.932 40.44C666.932 38.06 668.572 36.78 670.272 36.78C671.992 36.78 673.612 38.12 673.612 40.48ZM678.906 46H681.186V31.2H678.906V46ZM688.52 43.38L685.42 34.98H682.88L687.22 45.82L684.98 51.18H687.34L694.1 34.98H691.74L688.52 43.38ZM696.18 42.94C696.18 45.18 697.4 46 699.36 46H701.16V44.1H699.76C698.8 44.1 698.48 43.76 698.48 42.94V36.84H701.16V34.98H698.48V32.24H696.18V34.98H694.88V36.84H696.18V42.94ZM703.262 46H705.542V34.98H703.262V46ZM704.422 33.52C705.222 33.52 705.862 32.88 705.862 32.06C705.862 31.24 705.222 30.6 704.422 30.6C703.602 30.6 702.962 31.24 702.962 32.06C702.962 32.88 703.602 33.52 704.422 33.52ZM707.775 40.48C707.775 43.94 710.015 46.18 713.175 46.18C715.875 46.18 717.635 44.68 718.255 42.52H715.795C715.375 43.66 714.535 44.26 713.175 44.26C711.335 44.26 710.115 42.9 710.115 40.48C710.115 38.08 711.335 36.72 713.175 36.72C714.535 36.72 715.415 37.4 715.795 38.46H718.255C717.635 36.14 715.875 34.8 713.175 34.8C710.015 34.8 707.775 37.04 707.775 40.48ZM728.747 42.92C728.627 38.94 722.407 40.18 722.407 37.96C722.407 37.22 723.047 36.72 724.267 36.72C725.507 36.72 726.247 37.38 726.327 38.34H728.607C728.487 36.14 726.847 34.8 724.347 34.8C721.747 34.8 720.107 36.22 720.107 37.98C720.107 42.02 726.507 40.78 726.507 42.94C726.507 43.7 725.807 44.26 724.487 44.26C723.227 44.26 722.367 43.52 722.287 42.62H719.927C720.027 44.62 721.887 46.18 724.527 46.18C727.127 46.18 728.747 44.78 728.747 42.92Z" fill="#212832"/>
<path d="M479.834 307H482.114V297.48L486.374 307H487.954L492.194 297.48V307H494.474V293.1H492.034L487.174 304L482.294 293.1H479.834V307ZM496.711 300.02C496.711 304.2 499.891 307.12 503.811 307.12C506.711 307.12 509.211 305.68 510.271 302.96H507.531C506.791 304.44 505.471 305.14 503.811 305.14C501.051 305.14 499.051 303.16 499.051 300.02C499.051 296.88 501.051 294.92 503.811 294.92C505.471 294.92 506.791 295.62 507.531 297.1H510.271C509.211 294.38 506.711 292.92 503.811 292.92C499.891 292.92 496.711 295.86 496.711 300.02ZM522.319 307H524.719L519.739 293.08H517.099L512.119 307H514.499L515.499 304.16H521.319L522.319 307ZM520.679 302.3H516.139L518.419 295.84L520.679 302.3ZM532.08 307H534.36V293.1H532.08V307ZM545.174 307H547.434V300.5C547.434 297.42 545.494 295.8 542.914 295.8C541.594 295.8 540.374 296.34 539.634 297.24V295.98H537.354V307H539.634V300.84C539.634 298.82 540.734 297.78 542.414 297.78C544.074 297.78 545.174 298.82 545.174 300.84V307ZM564.917 307H567.317L562.337 293.08H559.697L554.717 307H557.097L558.097 304.16H563.917L564.917 307ZM563.277 302.3H558.737L561.017 295.84L563.277 302.3ZM571.762 301.2C571.762 298.86 572.802 298.16 574.482 298.16H575.062V295.8C573.502 295.8 572.402 296.48 571.762 297.58V295.98H569.482V307H571.762V301.2ZM577.518 303.94C577.518 306.18 578.738 307 580.698 307H582.498V305.1H581.098C580.138 305.1 579.818 304.76 579.818 303.94V297.84H582.498V295.98H579.818V293.24H577.518V295.98H576.218V297.84H577.518V303.94ZM584.6 307H586.88V295.98H584.6V307ZM585.76 294.52C586.56 294.52 587.2 293.88 587.2 293.06C587.2 292.24 586.56 291.6 585.76 291.6C584.94 291.6 584.3 292.24 584.3 293.06C584.3 293.88 584.94 294.52 585.76 294.52ZM590.153 307H592.453V297.84H594.493V295.98H592.453V295.2C592.453 293.94 592.933 293.46 594.333 293.46V291.56C591.453 291.56 590.153 292.66 590.153 295.2V295.98H588.853V297.84H590.153V307ZM596.514 307H598.794V295.98H596.514V307ZM597.674 294.52C598.474 294.52 599.114 293.88 599.114 293.06C599.114 292.24 598.474 291.6 597.674 291.6C596.854 291.6 596.214 292.24 596.214 293.06C596.214 293.88 596.854 294.52 597.674 294.52ZM601.027 301.48C601.027 304.94 603.267 307.18 606.427 307.18C609.127 307.18 610.887 305.68 611.507 303.52H609.047C608.627 304.66 607.787 305.26 606.427 305.26C604.587 305.26 603.367 303.9 603.367 301.48C603.367 299.08 604.587 297.72 606.427 297.72C607.787 297.72 608.667 298.4 609.047 299.46H611.507C610.887 297.14 609.127 295.8 606.427 295.8C603.267 295.8 601.027 298.04 601.027 301.48ZM613.779 307H616.059V295.98H613.779V307ZM614.939 294.52C615.739 294.52 616.379 293.88 616.379 293.06C616.379 292.24 615.739 291.6 614.939 291.6C614.119 291.6 613.479 292.24 613.479 293.06C613.479 293.88 614.119 294.52 614.939 294.52ZM618.293 301.44C618.293 304.84 620.593 307.18 623.453 307.18C625.293 307.18 626.613 306.3 627.313 305.36V307H629.613V295.98H627.313V297.58C626.633 296.68 625.353 295.8 623.493 295.8C620.593 295.8 618.293 298.04 618.293 301.44ZM627.313 301.48C627.313 303.86 625.693 305.2 623.973 305.2C622.273 305.2 620.633 303.82 620.633 301.44C620.633 299.06 622.273 297.78 623.973 297.78C625.693 297.78 627.313 299.12 627.313 301.48ZM632.607 307H634.887V292.2H632.607V307ZM643.076 307H645.356V293.1H643.076V307ZM656.17 307H658.43V300.5C658.43 297.42 656.49 295.8 653.91 295.8C652.59 295.8 651.37 296.34 650.63 297.24V295.98H648.35V307H650.63V300.84C650.63 298.82 651.73 297.78 653.41 297.78C655.07 297.78 656.17 298.82 656.17 300.84V307ZM661.698 303.94C661.698 306.18 662.918 307 664.878 307H666.678V305.1H665.278C664.318 305.1 663.998 304.76 663.998 303.94V297.84H666.678V295.98H663.998V293.24H661.698V295.98H660.398V297.84H661.698V303.94ZM673.419 297.72C675.119 297.72 676.459 298.8 676.499 300.5H670.399C670.639 298.76 671.879 297.72 673.419 297.72ZM678.579 303.72H676.119C675.699 304.58 674.919 305.26 673.519 305.26C671.839 305.26 670.539 304.16 670.379 302.34H678.799C678.859 301.96 678.879 301.6 678.879 301.22C678.879 297.98 676.659 295.8 673.519 295.8C670.259 295.8 668.019 298.02 668.019 301.48C668.019 304.94 670.359 307.18 673.519 307.18C676.219 307.18 677.959 305.64 678.579 303.72ZM681.123 307H683.403V292.2H681.123V307ZM686.396 307H688.676V292.2H686.396V307ZM691.67 307H693.95V295.98H691.67V307ZM692.83 294.52C693.63 294.52 694.27 293.88 694.27 293.06C694.27 292.24 693.63 291.6 692.83 291.6C692.01 291.6 691.37 292.24 691.37 293.06C691.37 293.88 692.01 294.52 692.83 294.52ZM696.183 301.44C696.183 304.84 698.483 307.18 701.383 307.18C703.183 307.18 704.503 306.28 705.203 305.34V307.18C705.203 309.38 703.883 310.46 702.123 310.46C700.543 310.46 699.323 309.68 698.983 308.54H696.723C697.003 310.98 699.183 312.44 702.123 312.44C705.563 312.44 707.503 310.18 707.503 307.18V295.98H705.203V297.58C704.523 296.64 703.183 295.8 701.383 295.8C698.483 295.8 696.183 298.04 696.183 301.44ZM705.203 301.48C705.203 303.86 703.583 305.2 701.863 305.2C700.163 305.2 698.523 303.82 698.523 301.44C698.523 299.06 700.163 297.78 701.863 297.78C703.583 297.78 705.203 299.12 705.203 301.48ZM715.138 297.72C716.838 297.72 718.178 298.8 718.218 300.5H712.118C712.358 298.76 713.598 297.72 715.138 297.72ZM720.298 303.72H717.838C717.418 304.58 716.638 305.26 715.238 305.26C713.558 305.26 712.258 304.16 712.098 302.34H720.518C720.578 301.96 720.598 301.6 720.598 301.22C720.598 297.98 718.378 295.8 715.238 295.8C711.978 295.8 709.738 298.02 709.738 301.48C709.738 304.94 712.078 307.18 715.238 307.18C717.938 307.18 719.678 305.64 720.298 303.72ZM730.662 307H732.922V300.5C732.922 297.42 730.982 295.8 728.402 295.8C727.082 295.8 725.862 296.34 725.122 297.24V295.98H722.842V307H725.122V300.84C725.122 298.82 726.222 297.78 727.902 297.78C729.562 297.78 730.662 298.82 730.662 300.84V307ZM735.07 301.48C735.07 304.94 737.31 307.18 740.47 307.18C743.17 307.18 744.93 305.68 745.55 303.52H743.09C742.67 304.66 741.83 305.26 740.47 305.26C738.63 305.26 737.41 303.9 737.41 301.48C737.41 299.08 738.63 297.72 740.47 297.72C741.83 297.72 742.71 298.4 743.09 299.46H745.55C744.93 297.14 743.17 295.8 740.47 295.8C737.31 295.8 735.07 298.04 735.07 301.48ZM752.462 297.72C754.162 297.72 755.502 298.8 755.542 300.5H749.442C749.682 298.76 750.922 297.72 752.462 297.72ZM757.622 303.72H755.162C754.742 304.58 753.962 305.26 752.562 305.26C750.882 305.26 749.582 304.16 749.422 302.34H757.842C757.902 301.96 757.922 301.6 757.922 301.22C757.922 297.98 755.702 295.8 752.562 295.8C749.302 295.8 747.062 298.02 747.062 301.48C747.062 304.94 749.402 307.18 752.562 307.18C755.262 307.18 757.002 305.64 757.622 303.72Z" fill="#212832"/>
<path d="M518.781 133H521.061V123.48L525.321 133H526.901L531.141 123.48V133H533.421V119.1H530.981L526.121 130L521.241 119.1H518.781V133ZM535.658 126.02C535.658 130.2 538.838 133.12 542.758 133.12C545.658 133.12 548.158 131.68 549.218 128.96H546.478C545.738 130.44 544.418 131.14 542.758 131.14C539.998 131.14 537.998 129.16 537.998 126.02C537.998 122.88 539.998 120.92 542.758 120.92C544.418 120.92 545.738 121.62 546.478 123.1H549.218C548.158 120.38 545.658 118.92 542.758 118.92C538.838 118.92 535.658 121.86 535.658 126.02ZM561.267 133H563.667L558.687 119.08H556.047L551.067 133H553.447L554.447 130.16H560.267L561.267 133ZM559.627 128.3H555.087L557.367 121.84L559.627 128.3ZM571.027 133H573.307V119.1H571.027V133ZM584.121 133H586.381V126.5C586.381 123.42 584.441 121.8 581.861 121.8C580.541 121.8 579.321 122.34 578.581 123.24V121.98H576.301V133H578.581V126.84C578.581 124.82 579.681 123.78 581.361 123.78C583.021 123.78 584.121 124.82 584.121 126.84V133ZM599.024 119.1H594.484V133H599.024C603.484 133 606.404 130.38 606.404 126.1C606.404 121.8 603.484 119.1 599.024 119.1ZM596.764 131.14V120.96H599.024C602.304 120.96 604.064 122.92 604.064 126.1C604.064 129.26 602.304 131.14 599.024 131.14H596.764ZM607.904 127.44C607.904 130.84 610.204 133.18 613.064 133.18C614.904 133.18 616.224 132.3 616.924 131.36V133H619.224V121.98H616.924V123.58C616.244 122.68 614.964 121.8 613.104 121.8C610.204 121.8 607.904 124.04 607.904 127.44ZM616.924 127.48C616.924 129.86 615.304 131.2 613.584 131.2C611.884 131.2 610.244 129.82 610.244 127.44C610.244 125.06 611.884 123.78 613.584 123.78C615.304 123.78 616.924 125.12 616.924 127.48ZM622.579 129.94C622.579 132.18 623.799 133 625.759 133H627.559V131.1H626.159C625.199 131.1 624.879 130.76 624.879 129.94V123.84H627.559V121.98H624.879V119.24H622.579V121.98H621.279V123.84H622.579V129.94ZM628.9 127.44C628.9 130.84 631.2 133.18 634.06 133.18C635.9 133.18 637.22 132.3 637.92 131.36V133H640.22V121.98H637.92V123.58C637.24 122.68 635.96 121.8 634.1 121.8C631.2 121.8 628.9 124.04 628.9 127.44ZM637.92 127.48C637.92 129.86 636.3 131.2 634.58 131.2C632.88 131.2 631.24 129.82 631.24 127.44C631.24 125.06 632.88 123.78 634.58 123.78C636.3 123.78 637.92 125.12 637.92 127.48ZM657.79 129.06C657.79 123.98 650.43 125.94 650.43 122.8C650.43 121.46 651.45 120.82 652.77 120.86C654.21 120.9 655.03 121.76 655.11 122.7H657.63C657.43 120.32 655.55 118.92 652.89 118.92C650.05 118.92 648.11 120.44 648.11 122.88C648.11 128 655.49 125.82 655.49 129.18C655.49 130.36 654.59 131.22 652.99 131.22C651.41 131.22 650.61 130.3 650.51 129.16H648.07C648.07 131.62 650.21 133.14 652.99 133.14C656.09 133.14 657.79 131.14 657.79 129.06ZM659.72 127.48C659.72 130.94 661.96 133.18 665.12 133.18C667.82 133.18 669.58 131.68 670.2 129.52H667.74C667.32 130.66 666.48 131.26 665.12 131.26C663.28 131.26 662.06 129.9 662.06 127.48C662.06 125.08 663.28 123.72 665.12 123.72C666.48 123.72 667.36 124.4 667.74 125.46H670.2C669.58 123.14 667.82 121.8 665.12 121.8C661.96 121.8 659.72 124.04 659.72 127.48ZM672.473 133H674.753V121.98H672.473V133ZM673.633 120.52C674.433 120.52 675.073 119.88 675.073 119.06C675.073 118.24 674.433 117.6 673.633 117.6C672.813 117.6 672.173 118.24 672.173 119.06C672.173 119.88 672.813 120.52 673.633 120.52ZM682.386 123.72C684.086 123.72 685.426 124.8 685.466 126.5H679.366C679.606 124.76 680.846 123.72 682.386 123.72ZM687.546 129.72H685.086C684.666 130.58 683.886 131.26 682.486 131.26C680.806 131.26 679.506 130.16 679.346 128.34H687.766C687.826 127.96 687.846 127.6 687.846 127.22C687.846 123.98 685.626 121.8 682.486 121.8C679.226 121.8 676.986 124.02 676.986 127.48C676.986 130.94 679.326 133.18 682.486 133.18C685.186 133.18 686.926 131.64 687.546 129.72ZM697.91 133H700.17V126.5C700.17 123.42 698.23 121.8 695.65 121.8C694.33 121.8 693.11 122.34 692.37 123.24V121.98H690.09V133H692.37V126.84C692.37 124.82 693.47 123.78 695.15 123.78C696.81 123.78 697.91 124.82 697.91 126.84V133ZM702.318 127.48C702.318 130.94 704.558 133.18 707.718 133.18C710.418 133.18 712.178 131.68 712.798 129.52H710.338C709.918 130.66 709.078 131.26 707.718 131.26C705.878 131.26 704.658 129.9 704.658 127.48C704.658 125.08 705.878 123.72 707.718 123.72C709.078 123.72 709.958 124.4 710.338 125.46H712.798C712.178 123.14 710.418 121.8 707.718 121.8C704.558 121.8 702.318 124.04 702.318 127.48ZM719.71 123.72C721.41 123.72 722.75 124.8 722.79 126.5H716.69C716.93 124.76 718.17 123.72 719.71 123.72ZM724.87 129.72H722.41C721.99 130.58 721.21 131.26 719.81 131.26C718.13 131.26 716.83 130.16 716.67 128.34H725.09C725.15 127.96 725.17 127.6 725.17 127.22C725.17 123.98 722.95 121.8 719.81 121.8C716.55 121.8 714.31 124.02 714.31 127.48C714.31 130.94 716.65 133.18 719.81 133.18C722.51 133.18 724.25 131.64 724.87 129.72Z" fill="#212832"/>
<path d="M480.713 220H482.993V210.48L487.253 220H488.833L493.073 210.48V220H495.353V206.1H492.913L488.053 217L483.173 206.1H480.713V220ZM497.59 213.02C497.59 217.2 500.77 220.12 504.69 220.12C507.59 220.12 510.09 218.68 511.15 215.96H508.41C507.67 217.44 506.35 218.14 504.69 218.14C501.93 218.14 499.93 216.16 499.93 213.02C499.93 209.88 501.93 207.92 504.69 207.92C506.35 207.92 507.67 208.62 508.41 210.1H511.15C510.09 207.38 507.59 205.92 504.69 205.92C500.77 205.92 497.59 208.86 497.59 213.02ZM523.198 220H525.598L520.618 206.08H517.978L512.998 220H515.378L516.378 217.16H522.198L523.198 220ZM521.558 215.3H517.018L519.298 208.84L521.558 215.3ZM532.959 220H535.239V206.1H532.959V220ZM546.052 220H548.312V213.5C548.312 210.42 546.372 208.8 543.792 208.8C542.472 208.8 541.252 209.34 540.512 210.24V208.98H538.232V220H540.512V213.84C540.512 211.82 541.612 210.78 543.292 210.78C544.952 210.78 546.052 211.82 546.052 213.84V220ZM562.756 205.92C558.836 205.92 555.656 208.86 555.656 213.02C555.656 217.2 558.836 220.12 562.756 220.12C566.496 220.12 569.216 217.38 569.636 214.16V212.38H561.976V214.2H567.196C566.856 216.54 565.276 218.06 562.756 218.06C559.996 218.06 557.996 216.08 557.996 213.02C557.996 209.96 559.996 208 562.756 208C564.416 208 565.736 208.7 566.476 210.1H569.216C568.156 207.38 565.656 205.92 562.756 205.92ZM571.125 214.44C571.125 217.84 573.425 220.18 576.285 220.18C578.125 220.18 579.445 219.3 580.145 218.36V220H582.445V208.98H580.145V210.58C579.465 209.68 578.185 208.8 576.325 208.8C573.425 208.8 571.125 211.04 571.125 214.44ZM580.145 214.48C580.145 216.86 578.525 218.2 576.805 218.2C575.105 218.2 573.465 216.82 573.465 214.44C573.465 212.06 575.105 210.78 576.805 210.78C578.525 210.78 580.145 212.12 580.145 214.48ZM601.059 220H603.319V213.5C603.319 210.42 601.359 208.8 598.779 208.8C597.179 208.8 595.619 209.64 594.939 210.98C594.179 209.54 592.719 208.8 590.979 208.8C589.659 208.8 588.459 209.34 587.719 210.24V208.98H585.439V220H587.719V213.84C587.719 211.82 588.819 210.78 590.499 210.78C592.159 210.78 593.259 211.82 593.259 213.84V220H595.519V213.84C595.519 211.82 596.619 210.78 598.299 210.78C599.959 210.78 601.059 211.82 601.059 213.84V220ZM610.861 210.72C612.561 210.72 613.901 211.8 613.941 213.5H607.841C608.081 211.76 609.321 210.72 610.861 210.72ZM616.021 216.72H613.561C613.141 217.58 612.361 218.26 610.961 218.26C609.281 218.26 607.981 217.16 607.821 215.34H616.241C616.301 214.96 616.321 214.6 616.321 214.22C616.321 210.98 614.101 208.8 610.961 208.8C607.701 208.8 605.461 211.02 605.461 214.48C605.461 217.94 607.801 220.18 610.961 220.18C613.661 220.18 615.401 218.64 616.021 216.72ZM628.3 206.1H623.76V220H628.3C632.76 220 635.68 217.38 635.68 213.1C635.68 208.8 632.76 206.1 628.3 206.1ZM626.04 218.14V207.96H628.3C631.58 207.96 633.34 209.92 633.34 213.1C633.34 216.26 631.58 218.14 628.3 218.14H626.04ZM642.579 210.72C644.279 210.72 645.619 211.8 645.659 213.5H639.559C639.799 211.76 641.039 210.72 642.579 210.72ZM647.739 216.72H645.279C644.859 217.58 644.079 218.26 642.679 218.26C640.999 218.26 639.699 217.16 639.539 215.34H647.959C648.019 214.96 648.039 214.6 648.039 214.22C648.039 210.98 645.819 208.8 642.679 208.8C639.419 208.8 637.179 211.02 637.179 214.48C637.179 217.94 639.519 220.18 642.679 220.18C645.379 220.18 647.119 218.64 647.739 216.72ZM648.983 208.98L653.163 220H655.883L660.083 208.98H657.663L654.543 217.96L651.423 208.98H648.983ZM666.447 210.72C668.147 210.72 669.487 211.8 669.527 213.5H663.427C663.667 211.76 664.907 210.72 666.447 210.72ZM671.607 216.72H669.147C668.727 217.58 667.947 218.26 666.547 218.26C664.867 218.26 663.567 217.16 663.407 215.34H671.827C671.887 214.96 671.907 214.6 671.907 214.22C671.907 210.98 669.687 208.8 666.547 208.8C663.287 208.8 661.047 211.02 661.047 214.48C661.047 217.94 663.387 220.18 666.547 220.18C669.247 220.18 670.987 218.64 671.607 216.72ZM674.15 220H676.43V205.2H674.15V220ZM689.924 214.48C689.924 211.02 687.444 208.8 684.304 208.8C681.164 208.8 678.684 211.02 678.684 214.48C678.684 217.94 681.064 220.18 684.204 220.18C687.364 220.18 689.924 217.94 689.924 214.48ZM681.004 214.48C681.004 211.98 682.544 210.78 684.264 210.78C685.964 210.78 687.584 211.98 687.584 214.48C687.584 216.98 685.904 218.2 684.204 218.2C682.484 218.2 681.004 216.98 681.004 214.48ZM694.458 210.6V208.98H692.178V225.24H694.458V218.4C695.178 219.26 696.478 220.18 698.298 220.18C701.198 220.18 703.478 217.84 703.478 214.44C703.478 211.04 701.198 208.8 698.298 208.8C696.498 208.8 695.158 209.68 694.458 210.6ZM701.158 214.44C701.158 216.82 699.518 218.2 697.798 218.2C696.098 218.2 694.458 216.86 694.458 214.48C694.458 212.12 696.098 210.78 697.798 210.78C699.518 210.78 701.158 212.06 701.158 214.44ZM721.352 220H723.612V213.5C723.612 210.42 721.652 208.8 719.072 208.8C717.472 208.8 715.912 209.64 715.232 210.98C714.472 209.54 713.012 208.8 711.272 208.8C709.952 208.8 708.752 209.34 708.012 210.24V208.98H705.732V220H708.012V213.84C708.012 211.82 709.112 210.78 710.792 210.78C712.452 210.78 713.552 211.82 713.552 213.84V220H715.812V213.84C715.812 211.82 716.912 210.78 718.592 210.78C720.252 210.78 721.352 211.82 721.352 213.84V220ZM731.154 210.72C732.854 210.72 734.194 211.8 734.234 213.5H728.134C728.374 211.76 729.614 210.72 731.154 210.72ZM736.314 216.72H733.854C733.434 217.58 732.654 218.26 731.254 218.26C729.574 218.26 728.274 217.16 728.114 215.34H736.534C736.594 214.96 736.614 214.6 736.614 214.22C736.614 210.98 734.394 208.8 731.254 208.8C727.994 208.8 725.754 211.02 725.754 214.48C725.754 217.94 728.094 220.18 731.254 220.18C733.954 220.18 735.694 218.64 736.314 216.72ZM746.677 220H748.937V213.5C748.937 210.42 746.997 208.8 744.417 208.8C743.097 208.8 741.877 209.34 741.137 210.24V208.98H738.857V220H741.137V213.84C741.137 211.82 742.237 210.78 743.917 210.78C745.577 210.78 746.677 211.82 746.677 213.84V220ZM752.206 216.94C752.206 219.18 753.426 220 755.386 220H757.186V218.1H755.786C754.826 218.1 754.506 217.76 754.506 216.94V210.84H757.186V208.98H754.506V206.24H752.206V208.98H750.906V210.84H752.206V216.94Z" fill="#212832"/>
</svg>
