<svg width="574" height="414" viewBox="0 0 574 414" fill="none" xmlns="http://www.w3.org/2000/svg">
<path d="M179.708 0L187.01 14.7192L182.104 16.8872L175.258 3.42308L179.708 0Z" fill="#FF1D9C"/>
<mask id="mask0_955_6" style="mask-type:alpha" maskUnits="userSpaceOnUse" x="0" y="0" width="574" height="414">
<rect width="574" height="414" fill="#D9D9D9"/>
</mask>
<g mask="url(#mask0_955_6)">
<path d="M94.5876 181.537C94.5876 181.309 94.7017 181.081 95.044 181.081L102.689 181.423C103.488 181.423 104.058 181.537 104.629 181.765C105.199 181.994 105.541 182.222 105.884 182.564C106.226 182.906 106.454 183.363 106.568 183.819C106.682 184.276 106.797 184.846 106.797 185.531L106.682 187.585C106.682 188.155 106.568 188.726 106.454 189.296C106.34 189.753 105.998 190.209 105.656 190.551C105.313 190.894 104.857 191.122 104.286 191.35C103.716 191.578 103.145 191.578 102.347 191.578L98.2389 191.464L97.4401 189.068H97.326L97.2119 191.464L94.3594 191.35L94.5876 181.537ZM97.326 188.84L102.232 188.954C102.803 188.954 103.145 188.84 103.373 188.612C103.602 188.383 103.716 187.927 103.716 187.356V185.645C103.716 184.96 103.602 184.618 103.373 184.39C103.145 184.162 102.803 184.047 102.232 184.047L97.5543 183.933C97.4401 183.933 97.4401 183.933 97.4401 184.047L97.326 184.162V188.84Z" fill="#F1F1F4"/>
<path d="M110.788 185.987L110.56 189.068C110.56 189.182 110.674 189.296 110.788 189.296L119.345 189.524L119.231 192.149L107.935 191.806C107.707 191.806 107.479 191.692 107.593 191.35L107.821 181.994C107.821 181.765 107.935 181.537 108.277 181.537L119.231 181.88C119.46 181.88 119.688 181.994 119.688 182.336L119.574 184.96L116.835 185.873H116.721V184.504C116.721 184.39 116.721 184.39 116.607 184.39L110.788 184.162C110.674 184.162 110.674 184.162 110.674 184.276V184.39V185.645L115.466 185.759L115.352 187.813L111.358 187.699L110.788 185.987Z" fill="#F1F1F4"/>
<path d="M129.963 185.759L129.849 184.618C129.849 184.504 129.849 184.504 129.734 184.39L124.372 184.276C124.143 184.276 124.029 184.276 123.915 184.39C123.801 184.504 123.801 184.618 123.801 184.732V184.96C123.801 185.189 123.801 185.303 123.915 185.303C124.029 185.417 124.143 185.417 124.258 185.417L130.533 186.444C130.99 186.558 131.218 186.558 131.56 186.786C131.788 186.9 132.017 187.128 132.245 187.242C132.473 187.471 132.587 187.699 132.587 187.927C132.701 188.155 132.701 188.497 132.701 188.954V189.753C132.701 190.209 132.587 190.551 132.473 190.894C132.359 191.236 132.131 191.464 131.902 191.692C131.674 191.921 131.332 192.035 130.99 192.149C130.647 192.263 130.077 192.263 129.62 192.263L120.492 192.035L120.606 189.41L128.708 189.639C128.936 189.639 129.164 189.639 129.164 189.524C129.278 189.41 129.278 189.296 129.278 189.068V188.84C129.278 188.612 129.278 188.497 129.164 188.497C129.05 188.383 128.936 188.383 128.822 188.383L122.774 187.471C122.318 187.356 121.976 187.356 121.747 187.242C121.405 187.128 121.177 187.014 121.063 186.786C120.834 186.558 120.72 186.33 120.72 186.101C120.606 185.873 120.606 185.531 120.606 185.074V184.39C120.606 183.705 120.835 183.135 121.291 182.678C121.747 182.336 122.318 182.108 123.231 182.108L132.245 182.336C132.587 182.336 132.701 182.45 132.701 182.792L132.587 184.846L129.963 185.759Z" fill="#F1F1F4"/>
<path d="M133.836 192.605L134.178 182.45L137.031 182.564L136.689 192.719L133.836 192.605Z" fill="#F1F1F4"/>
<path d="M147.419 188.612C147.419 188.497 147.419 188.269 147.419 188.155C147.419 188.041 147.419 187.813 147.419 187.699V187.585L150.271 187.699L150.157 192.719C150.157 192.947 150.043 193.062 149.815 193.062L142.17 192.833C141.371 192.833 140.801 192.719 140.23 192.491C139.66 192.263 139.318 192.035 138.975 191.692C138.633 191.35 138.405 190.894 138.291 190.437C138.177 189.981 138.062 189.41 138.062 188.726L138.177 186.672C138.177 186.101 138.291 185.531 138.405 184.96C138.519 184.504 138.861 184.047 139.204 183.705C139.546 183.363 140.002 183.135 140.573 182.906C141.143 182.678 141.714 182.678 142.513 182.678L150.157 182.906C150.386 182.906 150.614 183.021 150.5 183.363L150.386 185.531L147.647 186.444H147.533V185.417C147.533 185.303 147.533 185.303 147.419 185.303L142.513 185.189C142.284 185.189 141.942 185.189 141.828 185.189C141.6 185.189 141.486 185.303 141.371 185.417C141.257 185.531 141.143 185.759 141.143 185.873C141.029 186.101 141.029 186.33 141.029 186.672V188.497C141.029 189.068 141.143 189.524 141.371 189.753C141.6 189.981 141.942 190.095 142.513 190.209L147.305 190.323C147.419 190.323 147.419 190.323 147.419 190.209V188.612Z" fill="#F1F1F4"/>
<path d="M156.317 183.021C156.546 183.021 156.66 183.021 156.774 183.135C156.888 183.249 156.888 183.363 157.002 183.477L160.653 190.894C160.767 191.008 160.767 191.122 160.881 191.122H160.996C161.11 191.122 161.224 191.008 161.224 190.894L161.452 183.249L164.076 183.363L163.734 193.176C163.734 193.404 163.62 193.632 163.278 193.518L159.17 193.404C158.942 193.404 158.828 193.404 158.714 193.29C158.599 193.176 158.485 193.176 158.485 192.947L154.72 185.531C154.72 185.417 154.606 185.303 154.492 185.303H154.378C154.264 185.303 154.149 185.417 154.149 185.531L153.921 193.176L151.297 193.062L151.639 183.249C151.639 183.021 151.753 182.792 152.096 182.792L156.317 183.021Z" fill="#F1F1F4"/>
<path d="M102.462 169.556C98.1261 162.026 90.3671 158.945 90.3671 158.945L87.6287 160.2L93.6761 171.154C92.8774 175.376 90.0248 177.658 90.0248 177.658C90.0248 177.658 86.3735 178.342 82.6081 176.288L78.044 164.65L75.3056 165.905C75.3056 165.905 72.6812 173.778 75.6479 181.879C75.6479 181.879 76.7889 184.504 77.0171 184.732C78.044 185.987 80.8966 187.356 86.2594 187.128L104.858 222.5C103.375 225.124 103.033 228.433 104.402 231.4C106.684 236.192 112.389 238.36 117.295 236.078C122.088 233.796 124.256 228.091 121.974 223.185C120.604 220.218 117.866 218.278 114.899 217.708L99.7235 180.967C103.375 177.201 104.059 174.12 103.831 172.409C103.717 172.067 102.462 169.556 102.462 169.556ZM117.638 230.487L112.731 232.769L108.281 229.688L108.738 224.326L113.644 222.044L118.094 225.124L117.638 230.487Z" fill="url(#paint0_linear_955_6)"/>
<path d="M103.829 172.523C99.4933 164.992 91.7343 161.912 91.7343 161.912L88.9958 163.167L95.0433 174.121C94.2446 178.342 91.392 180.624 91.392 180.624C91.392 180.624 87.7407 181.309 83.9753 179.255L79.4112 167.617L76.6728 168.872C76.6728 168.872 74.0484 176.745 77.0151 184.846C77.0151 184.846 81.2369 190.437 87.5125 190.095L105.997 225.353C104.514 227.977 104.171 231.286 105.541 234.253C107.823 239.045 113.528 241.213 118.434 238.931C123.227 236.649 125.395 230.944 123.113 226.037C121.743 223.071 119.005 221.131 116.038 220.56L100.863 183.819C105.427 179.255 103.829 172.523 103.829 172.523ZM119.005 233.34L114.098 235.622L109.648 232.541L110.105 227.178L115.011 224.896L119.461 227.977L119.005 233.34Z" fill="url(#paint1_linear_955_6)"/>
<path d="M78.1487 164.752L75.4609 166.008L76.8133 168.902L79.5011 167.647L78.1487 164.752Z" fill="#E5E2FF"/>
<path d="M90.469 159.019L87.7812 160.275L89.1336 163.17L91.8214 161.914L90.469 159.019Z" fill="#E5E2FF"/>
<path d="M117.617 230.427L112.758 232.697L114.11 235.591L118.969 233.321L117.617 230.427Z" fill="#E5E2FF"/>
<path d="M91.7344 192.719L106.682 221.359C110.561 221.587 112.729 218.506 112.729 218.506L100.52 188.497C95.0433 188.383 91.7344 192.719 91.7344 192.719ZM111.474 218.849C111.018 219.191 110.333 219.762 109.534 220.104C108.85 220.446 108.165 220.674 107.481 220.674L92.5331 192.605C93.2177 191.921 94.4728 191.008 96.1844 190.209C97.4395 189.638 98.5805 189.296 99.8357 189.068L111.474 218.849Z" fill="url(#paint2_linear_955_6)"/>
<path d="M111.477 218.849L112.618 218.621C112.618 218.621 110.906 221.701 106.57 221.473L107.483 220.788C107.483 220.674 109.651 220.446 111.477 218.849Z" fill="#E5E2FF"/>
<path opacity="0.62" d="M91.7344 192.719L92.6472 192.605C92.6472 192.605 95.1574 189.981 99.9498 189.182L100.634 188.612C100.634 188.612 98.6946 188.269 95.728 189.638C92.6472 191.008 91.7344 192.719 91.7344 192.719Z" fill="url(#paint3_linear_955_6)"/>
<path opacity="0.62" d="M87.7422 190.095C87.7422 190.095 94.9306 188.84 101.092 183.933L103.032 188.612C103.032 188.612 100.864 186.444 95.9576 188.383C90.2524 190.665 90.5948 195.229 90.5948 195.229L87.7422 190.095Z" fill="url(#paint4_linear_955_6)"/>
<path opacity="0.5" d="M103.029 188.612C101.66 187.585 100.062 187.585 100.062 187.585L114.554 222.5L116.265 220.674L103.029 188.612Z" fill="url(#paint5_linear_955_6)"/>
<path d="M103.034 188.612C103.034 188.612 101.551 193.29 105.886 195.458L103.034 188.612Z" fill="white"/>
<path d="M320.515 414.192H266.887C261.296 383.042 248.174 342.422 248.174 342.422C244.979 340.596 238.818 342.878 238.818 342.878L219.306 414.192H170.356C167.732 370.149 191.807 320.286 191.807 320.286C191.693 320.172 191.009 318.574 191.123 317.547C191.237 317.091 192.036 316.292 192.949 315.379C194.318 314.124 195.801 312.983 195.801 312.983L287.197 312.413C287.197 312.413 288.11 312.869 289.251 313.554C291.305 314.809 293.929 316.635 293.929 318.004C293.929 319.83 293.245 321.085 293.016 321.427V321.541C312.642 358.51 320.515 414.192 320.515 414.192Z" fill="url(#paint6_linear_955_6)"/>
<path opacity="0.5" d="M215.653 382.244C209.149 410.655 194.886 431.65 183.818 429.14C172.864 426.63 169.213 401.527 175.717 373.001C182.221 344.59 196.484 323.595 207.551 326.105C218.619 328.729 222.271 353.832 215.653 382.244Z" fill="url(#paint7_radial_955_6)"/>
<path opacity="0.5" d="M310.358 371.632C318.231 399.701 315.835 425.032 304.881 427.999C294.041 431.079 278.751 410.769 270.878 382.586C263.005 354.517 265.401 329.186 276.355 326.219C287.309 323.138 302.485 343.449 310.358 371.632Z" fill="url(#paint8_radial_955_6)"/>
<path d="M212.914 414.306L212.344 414.192C218.619 377.451 234.366 346.644 234.594 346.301L234.708 346.187L238.701 342.65L239.044 343.106L235.05 346.644C234.366 348.013 219.076 378.25 212.914 414.306Z" fill="url(#paint9_linear_955_6)"/>
<path d="M274.192 414.306C268.03 378.25 252.284 347.785 251.6 346.415L248.062 343.221L248.405 342.764L252.056 346.073C252.17 346.415 268.487 377.451 274.648 414.192L274.192 414.306Z" fill="url(#paint10_linear_955_6)"/>
<path opacity="0.76" d="M294.041 318.118C294.041 319.944 293.357 321.199 293.129 321.541V321.655C274.073 325.991 259.582 343.677 259.582 343.677C269.966 363.531 287.309 414.306 287.309 414.306H266.999C261.408 383.156 248.286 342.536 248.286 342.536C245.091 340.71 238.93 342.992 238.93 342.992L219.304 414.192H206.639C211.203 384.297 224.553 347.899 224.553 347.899C211.317 332.495 191.805 320.286 191.805 320.286L189.523 318.803L191.235 317.547C199.679 325.649 227.063 336.26 227.862 336.603L193.061 315.379C194.43 314.124 195.913 312.983 195.913 312.983L287.309 312.413C287.309 312.413 288.222 312.869 289.363 313.554L264.375 327.246L294.041 318.118Z" fill="url(#paint11_linear_955_6)"/>
<path opacity="0.76" d="M248.289 342.536L258.901 335.576L256.39 342.536L254.565 363.303L248.289 342.536Z" fill="url(#paint12_linear_955_6)"/>
<path opacity="0.76" d="M238.931 342.878L227.749 336.603L204.016 325.877L234.253 345.959L236.078 353.147L238.931 342.878Z" fill="url(#paint13_linear_955_6)"/>
<path d="M269.51 128.594C269.624 129.05 269.624 129.392 269.624 129.392C269.053 131.674 268.369 133.842 267.684 135.896C265.402 142.286 262.664 146.85 260.61 149.703C258.784 152.099 257.529 153.354 257.529 153.354C240.87 148.105 232.655 131.903 229.574 123.801V123.687C229.003 122.204 228.547 120.949 228.319 120.15C228.091 119.465 227.977 119.123 227.977 119.123C228.091 119.009 228.091 118.781 228.205 118.667C228.433 118.096 228.775 117.526 229.003 116.955C231.171 112.163 232.655 107.713 233.568 104.176C234.366 101.209 234.823 98.9269 235.051 97.6718C235.165 96.9872 235.165 96.6449 235.165 96.6449L242.924 100.753L269.624 114.901C269.168 117.297 269.053 119.694 269.053 121.633C269.053 123.117 269.053 124.372 269.168 125.399C269.282 126.768 269.396 127.795 269.51 128.479C269.396 128.479 269.51 128.479 269.51 128.594Z" fill="#FE9083"/>
<path d="M262.092 155.065C260.608 156.549 258.783 157.918 256.615 159.059L256.501 159.173C256.501 159.173 256.386 159.173 256.386 159.059C255.816 158.717 253.762 157.462 251.138 155.522C244.177 150.273 232.539 139.662 229.116 125.285C229.116 125.285 229.116 125.285 229.116 125.17C228.774 123.459 228.431 121.747 228.317 119.922C228.317 119.465 228.203 119.009 228.203 118.553C228.203 118.553 230.485 124.029 234.593 129.849C239.271 136.809 246.46 144.34 254.903 144.34C262.206 144.34 265.971 139.433 267.911 134.755C268.71 132.815 269.166 130.876 269.508 129.506C269.622 129.05 269.622 128.708 269.736 128.479C269.736 128.365 269.736 128.137 269.851 128.023C269.965 127.453 269.965 127.224 269.965 127.224C269.965 127.224 272.361 144.682 262.092 155.065Z" fill="url(#paint14_linear_955_6)"/>
<path opacity="0.5" d="M262.092 155.065C260.608 156.549 258.783 157.918 256.615 159.059H256.501H256.386C255.816 158.717 253.762 157.462 251.138 155.522C244.177 150.273 232.539 139.662 229.116 125.285C229.116 125.285 229.116 125.285 229.116 125.17C228.774 123.459 228.431 121.747 228.317 119.922C228.317 119.465 228.203 119.009 228.203 118.553C228.203 118.553 230.485 124.029 234.593 129.849C234.593 129.849 239.157 142.514 249.198 148.79C254.219 151.985 257.984 151.528 260.722 149.588C263.461 147.763 265.286 144.568 266.313 142.172C267.34 139.776 267.683 137.494 267.797 135.782C267.797 135.44 267.797 135.097 267.797 134.755C268.595 132.815 269.052 130.876 269.394 129.506C269.508 129.05 269.508 128.708 269.622 128.479C269.622 128.365 269.622 128.137 269.736 128.023C269.851 127.453 269.851 127.224 269.851 127.224C269.851 127.224 272.361 144.682 262.092 155.065Z" fill="url(#paint15_linear_955_6)"/>
<path d="M326.101 258.556C325.987 258.556 325.873 258.671 325.873 258.671C324.96 258.785 321.994 258.1 318.228 254.905C315.033 252.167 311.154 247.488 307.389 239.844C299.744 224.554 297.576 214.399 297.233 212.573V212.345L292.783 219.419C289.817 228.547 283.998 266.087 284.112 267.799C284.226 269.51 289.132 277.269 289.132 278.296C289.018 279.323 286.736 281.491 286.165 283.773C285.709 285.371 288.79 290.277 290.958 293.928C292.099 295.868 292.898 297.465 292.898 298.036C292.898 299.747 287.535 308.191 287.535 308.191V312.755L287.421 312.869L287.192 313.097L286.964 313.326C284.91 314.923 276.239 320.286 248.968 321.655C216.677 323.367 195.226 312.983 195.226 312.983L196.823 308.533C196.823 308.533 195.34 307.278 195.226 306.594C195.112 305.909 196.367 304.426 196.367 304.426C196.367 304.426 193.172 302.714 193.172 300.546C193.172 298.378 199.676 291.646 199.448 285.941C199.219 280.236 194.199 275.101 193.628 271.906C192.944 268.712 202.072 260.61 202.072 260.61C194.313 235.964 192.715 202.874 192.715 202.874L191.232 201.163C191.232 201.163 181.876 222.386 173.546 232.769C172.519 234.024 171.492 235.165 170.351 236.421C167.955 238.931 165.445 241.327 163.049 243.495C157.23 248.629 151.867 251.938 150.612 251.71C148.444 251.254 139.772 234.138 140.228 216.681C140.457 208.351 145.477 198.995 150.612 191.578C151.182 190.779 151.753 189.981 152.323 189.182C155.974 184.162 159.512 180.168 161.223 178.342C161.908 177.658 162.25 177.315 162.25 177.315C162.25 177.315 161.109 173.55 160.196 170.127C160.196 170.013 160.196 170.013 160.082 169.899V169.785C160.082 169.671 160.082 169.671 160.082 169.671C159.626 167.617 159.283 165.905 159.626 165.449C160.31 164.308 164.532 163.053 165.217 162.14C165.901 161.227 168.982 146.736 171.264 145.138C173.432 143.655 177.426 142.514 190.319 137.379C191.004 137.151 191.574 136.923 192.259 136.581C206.864 130.762 221.127 123.801 221.127 123.801L226.604 117.069H229L228.201 118.781C228.544 120.492 229 122.204 229.571 123.801V123.915C237.101 147.649 256.499 155.294 256.499 155.294C269.963 145.367 269.735 129.621 269.735 129.621V127.453L272.245 128.251L273.957 132.359C273.957 132.359 276.923 136.923 288.448 141.944C290.501 142.856 292.555 143.883 294.837 145.138C305.449 151.186 317.201 160.428 318.114 162.368C318.228 162.596 318.342 162.938 318.457 163.395C319.712 168.301 322.222 186.558 324.618 193.062C326.101 197.169 328.498 199.337 330.209 200.592C331.464 201.505 332.377 201.733 332.377 201.733C332.605 202.76 332.719 203.787 332.833 204.7C337.74 235.85 328.269 257.073 326.101 258.556Z" fill="url(#paint16_linear_955_6)"/>
<path opacity="0.5" d="M201.964 199.451L192.608 202.646L191.125 200.935C191.125 200.935 181.768 222.158 173.439 232.541C172.412 233.796 171.385 234.937 170.244 236.192C167.848 238.703 165.337 241.099 162.941 243.267L155.753 212.345L152.102 188.954C155.753 183.933 159.29 179.94 161.002 178.114C161.686 177.43 162.028 177.087 162.028 177.087C162.028 177.087 160.887 173.322 159.975 169.899C159.975 169.785 159.975 169.785 159.861 169.671V169.556C159.861 169.442 159.861 169.442 159.861 169.442C159.404 167.388 159.062 165.677 159.404 165.221C160.089 164.08 164.311 162.824 164.995 161.912C165.68 160.999 168.761 146.508 171.043 144.91C171.043 144.91 169.559 158.945 177.546 176.631L181.426 182.108L192.836 191.236C192.95 191.122 197.286 196.827 201.964 199.451Z" fill="url(#paint17_linear_955_6)"/>
<path d="M174.802 224.782C172.748 239.729 150.498 251.254 150.498 251.254C145.478 251.254 140.001 242.582 134.866 231.971C129.846 221.359 129.503 190.665 129.275 188.726C129.047 186.786 126.194 183.021 126.08 181.423C125.966 179.826 130.644 176.403 130.644 176.403V176.288V176.174C130.188 175.147 127.449 169.214 127.564 168.073C127.792 166.932 133.04 164.308 133.04 164.308L133.383 170.127C133.383 170.127 145.706 167.845 149.814 158.26L150.498 155.294L152.552 156.663V169.214C152.552 169.214 153.008 171.154 153.579 171.154C154.264 171.154 159.056 168.758 160.083 169.1C161.11 169.442 162.137 176.174 163.392 176.973C164.761 177.886 168.298 180.282 168.869 181.537C169.097 182.108 169.097 184.047 169.211 186.33C169.211 189.068 169.325 192.377 169.667 194.203C170.238 197.74 176.742 209.721 174.802 224.782Z" fill="url(#paint18_linear_955_6)"/>
<path d="M378.931 211.888C377.904 213.486 372.883 216.795 371.628 218.05C370.373 219.305 371.628 223.641 371.628 223.641C350.405 246.119 328.383 257.415 326.101 258.442C325.987 258.442 325.873 258.556 325.873 258.556C312.523 249.656 313.664 234.823 318.114 222.5C322.336 210.633 329.524 200.821 329.867 200.364C330.095 200.25 333.86 198.653 336.599 198.538C337.512 198.424 338.31 198.881 339.109 199.337C340.707 200.364 342.076 201.962 343.445 201.277C345.385 200.25 349.721 189.981 352.687 189.753C354.741 189.524 357.594 191.692 359.533 192.833C360.332 193.404 361.017 193.746 361.359 193.632C362.5 193.29 366.151 188.954 366.38 188.84C366.722 188.726 368.319 189.981 368.319 189.981L367.178 191.464C369.004 201.847 374.937 208.808 374.937 208.808L378.931 202.988C378.931 202.874 379.958 210.291 378.931 211.888Z" fill="url(#paint19_linear_955_6)"/>
<path d="M269.506 128.137C269.506 128.251 269.506 128.48 269.392 128.594C269.278 128.936 269.278 129.164 269.164 129.506C267.795 134.527 262.318 139.662 255.358 137.265C247.827 134.527 233.336 104.062 233.336 104.062L234.819 97.5577L268.936 125.399L269.278 128.023L269.506 128.137Z" fill="#CB4D7A"/>
<path d="M155.747 122.546C155.747 122.546 153.693 111.022 154.606 102.464C155.519 93.9064 154.378 84.3218 154.378 84.3218C154.378 84.3218 152.324 83.409 150.84 84.3218C149.357 85.2346 145.82 94.0205 147.417 101.095C149.015 108.169 147.76 125.056 147.76 125.056H145.363L140.229 117.868L137.719 117.183C137.719 117.183 123.228 130.876 123.456 138.977L125.396 146.165L143.31 145.595L154.948 132.245L155.747 122.546Z" fill="#EE8183"/>
<path d="M137.608 117.183C137.608 117.183 137.95 126.312 140.004 134.071C140.004 134.071 139.662 137.265 135.896 137.494L134.984 136.467C134.984 136.467 134.299 140.118 130.99 140.346L127.909 137.265L128.708 139.89C128.708 139.89 127.567 142.628 124.6 142.514C124.6 142.514 119.58 138.635 119.352 133.5L124.258 129.392V126.197L130.077 122.09L130.191 119.808C130.191 119.694 133.614 117.183 137.608 117.183Z" fill="url(#paint20_linear_955_6)"/>
<path opacity="0.6" d="M154.838 100.068C154.838 100.068 153.925 102.236 152.67 103.149C151.415 104.062 147.878 104.632 147.878 104.632L147.763 125.056H145.367L140.233 117.868C140.233 117.868 142.857 121.976 142.971 125.056L140.917 126.083L139.092 119.922L138.293 124.372L139.092 129.849C139.092 129.849 142.172 127.224 147.763 127.11L148.562 128.594C148.562 128.594 138.521 136.923 136.125 141.829C136.125 141.829 141.146 135.554 152.442 128.479L153.469 125.17L154.952 117.183C154.952 117.183 153.583 105.659 154.838 100.068Z" fill="url(#paint21_linear_955_6)"/>
<path d="M163.281 135.554C162.368 138.406 152.555 150.045 151.414 152.555C150.388 155.065 149.703 158.374 149.703 158.374C144.911 168.758 133.272 170.241 133.272 170.241L132.702 160.885C132.702 160.885 126.426 157.233 125.399 155.294L125.285 154.951C124.943 153.126 125.285 146.279 125.285 146.279L136.239 141.829C141.031 135.668 152.555 128.479 152.555 128.479L153.126 125.285C144.796 121.177 146.166 108.854 147.649 107.371C149.018 105.887 151.643 105.887 151.643 105.887C151.643 105.887 154.723 115.814 156.663 120.492C158.375 125.056 164.194 132.815 163.281 135.554Z" fill="url(#paint22_linear_955_6)"/>
<path d="M130.192 119.694C130.192 119.694 131.447 130.99 134.985 136.467C134.985 136.467 130.42 130.762 130.078 122.09L130.192 119.694Z" fill="#E28183"/>
<path d="M124.258 126.083C124.258 126.083 125.399 135.212 131.104 140.346C131.104 140.346 126.083 137.836 124.258 129.278V126.083Z" fill="#E28183"/>
<path opacity="0.91" d="M152.896 150.159C152.896 150.159 140.573 162.14 132.586 160.885L133.156 170.241C133.156 170.241 146.164 169.1 150.386 155.408C150.386 155.522 151.869 151.642 152.896 150.159Z" fill="url(#paint23_linear_955_6)"/>
<path d="M414.307 166.476C414.307 166.476 402.897 187.242 389.661 193.632H385.097L374.6 209.492C374.6 209.492 367.867 205.271 367.297 191.236C367.297 191.236 369.693 188.726 370.264 185.987C370.264 185.987 366.498 183.021 365.471 180.853C364.444 178.685 364.102 172.181 363.417 169.556C362.733 166.932 356.571 161.341 355.202 160.656C353.833 159.972 347.671 159.515 347.671 159.515C347.671 159.515 346.759 157.233 347.671 156.206C348.584 155.179 358.169 151.414 363.417 154.951C363.417 154.951 363.76 157.69 364.33 159.173C364.901 160.656 369.579 165.677 370.264 165.677C370.948 165.677 374.029 163.053 375.398 161.113C376.653 159.173 383.728 144.112 385.325 139.091C385.325 138.977 385.325 138.977 385.325 138.977C385.325 138.863 385.439 138.863 385.439 138.749C385.439 138.635 385.439 138.635 385.439 138.635C385.439 138.635 385.439 138.635 385.439 138.521C386.694 134.185 394.339 125.741 398.333 123.345C398.333 123.345 400.044 122.888 400.957 125.056C400.957 125.056 397.762 134.299 394.339 139.776C393.769 140.688 393.198 141.829 392.514 142.971C389.661 148.333 386.352 155.179 385.896 156.206L385.782 156.321L387.607 157.233L392.514 152.669L397.534 147.877L408.944 159.972L407.803 161.455L404.266 166.019L406.092 166.362L410.314 161.683L414.307 166.476Z" fill="url(#paint24_linear_955_6)"/>
<path opacity="0.6" d="M411.571 170.926L407.919 176.288C407.919 176.288 387.952 160.885 383.73 159.629C379.394 158.374 377.796 159.173 377.796 159.173L373.346 164.878C373.346 164.878 381.562 172.181 382.246 181.994C382.246 181.994 379.508 169.556 370.266 165.905C370.95 165.905 374.031 163.281 375.4 161.341C376.655 159.401 383.73 144.34 385.327 139.319C385.099 140.232 384.757 141.83 385.555 143.199C386.582 145.024 392.287 143.313 392.63 143.199L386.012 156.435L385.898 156.549L387.723 157.462L392.63 152.897L390.234 158.603L408.034 161.797L404.496 166.362L406.322 166.704L411.571 170.926Z" fill="url(#paint25_linear_955_6)"/>
<path d="M397.764 147.991C397.764 147.991 401.187 147.535 403.469 151.985L403.013 153.468C403.013 153.468 406.436 154.153 409.631 159.63C409.631 159.63 406.778 164.878 399.59 167.274C399.59 167.274 396.281 166.362 395.71 163.509L396.395 161.683L393.77 163.623C393.77 163.623 390.69 164.536 389.32 159.972L397.764 147.991Z" fill="url(#paint26_linear_955_6)"/>
<path d="M415.332 165.106C415.332 165.106 416.016 161.797 412.479 159.629L405.633 167.16C405.633 167.16 405.861 169.556 408.828 170.127C408.828 170.127 413.506 168.529 415.332 165.106Z" fill="url(#paint27_linear_955_6)"/>
<path opacity="0.91" d="M365.469 180.967C365.469 180.967 373.456 189.867 384.98 193.632L379.96 201.277L369.462 188.041L370.147 186.101C370.261 185.987 366.039 182.906 365.469 180.967Z" fill="url(#paint28_linear_955_6)"/>
<path d="M402.896 153.354C402.896 153.354 399.587 158.831 396.278 161.569L395.594 163.395C395.594 163.395 401.983 159.059 404.38 154.038C404.38 154.038 403.695 153.468 402.896 153.354Z" fill="#E28183"/>
<path opacity="0.5" d="M378.937 211.888C377.91 213.486 372.889 216.795 371.634 218.05C370.379 219.305 371.634 223.641 371.634 223.641C350.411 246.119 328.389 257.415 326.107 258.442C325.993 258.442 325.879 258.556 325.879 258.556C324.167 258.785 315.724 256.388 307.28 239.501C299.635 224.212 297.467 214.056 297.125 212.231V212.003L298.951 209.492L301.689 178.342L303.629 184.618C310.931 175.718 317.892 162.14 317.892 162.14L318.234 163.167C319.489 168.073 321.999 186.329 324.396 192.833C325.879 196.941 328.275 199.109 329.987 200.364C323.255 206.526 319.831 215.426 318.234 222.5C316.751 229.004 316.637 233.91 316.637 233.91C316.637 233.91 318.462 225.124 324.396 214.513C326.563 210.633 329.644 207.21 332.725 204.472C335.007 202.304 337.403 200.592 339.229 199.223C340.826 200.25 342.196 201.847 343.565 201.163C334.665 214.513 334.893 240.985 343.222 235.964C351.552 230.944 353.492 220.218 353.492 220.218C351.552 207.21 352.122 192.491 353.72 189.638C355.66 189.753 361.137 193.632 361.479 193.518C361.022 208.922 368.211 219.077 368.211 219.077L373.003 211.774C366.043 200.136 366.613 188.726 366.613 188.726C366.956 188.612 368.553 189.867 368.553 189.867L367.412 191.35C369.238 201.733 375.171 208.694 375.171 208.694L379.165 202.874C378.937 202.874 379.963 210.291 378.937 211.888Z" fill="url(#paint29_linear_955_6)"/>
<path opacity="0.5" d="M287.193 307.849V312.413L287.078 312.527L286.85 312.755L286.622 312.983C284.568 314.581 275.896 319.944 248.626 321.313C216.335 323.024 194.884 312.641 194.884 312.641L196.481 308.191C196.481 308.191 194.998 306.936 194.884 306.251C194.77 305.567 196.025 304.083 196.025 304.083C196.025 304.083 192.83 302.372 192.83 300.204C192.83 298.264 198.078 292.559 198.991 287.31C199.105 286.74 199.105 286.169 199.105 285.599C198.877 279.894 193.971 274.873 193.286 271.564C192.602 268.369 201.73 260.268 201.73 260.268C193.971 235.622 192.373 202.532 192.373 202.532L190.89 200.821C190.89 200.821 181.534 222.044 173.204 232.427C164.761 242.81 152.437 251.71 150.27 251.254C145.249 251.254 139.772 242.582 134.637 231.971C129.617 221.359 129.275 190.665 129.046 188.726C128.818 186.786 125.966 183.021 125.852 181.423C131.214 190.779 139.886 188.041 139.886 188.041C133.611 188.155 130.416 176.517 130.416 176.517V176.403V176.288L127.335 168.301C127.677 168.644 134.752 176.631 141.712 171.724C148.786 166.704 152.437 156.891 152.437 156.891V169.442C152.437 169.442 152.894 171.382 153.464 171.382C153.008 177.201 151.867 184.162 150.384 191.122C147.189 206.069 142.739 220.56 142.739 220.56C142.739 220.56 154.605 214.056 158.827 197.626C160.881 189.753 161.109 182.906 160.995 178C160.881 173.778 160.311 170.812 160.082 169.785C160.082 169.671 160.082 169.671 159.968 169.556V169.442C159.968 169.442 159.968 169.442 159.968 169.328L161.109 171.724L163.277 177.201C165.787 198.31 160.539 230.031 160.539 230.031C168.184 220.56 169.781 199.451 169.439 194.317C169.325 191.921 169.096 188.84 168.982 186.444C168.868 183.705 168.64 181.651 168.64 181.651L184.272 191.008L181.42 181.879L192.83 191.008C192.83 191.008 203.099 203.331 213.596 204.814C224.094 206.297 262.775 205.385 262.775 205.385C262.775 205.385 229.228 207.553 219.416 210.405C209.603 213.258 207.777 216.567 207.777 216.567C214.852 252.623 254.103 264.718 255.358 265.174C219.758 259.812 203.213 229.574 203.213 229.574C203.213 229.574 202.643 246.576 205.381 253.08C208.12 259.583 224.322 275.444 244.975 278.753C246.686 278.981 248.398 279.209 250.109 279.323C267.567 280.122 282.058 271.222 283.541 270.195C283.655 270.081 283.655 270.081 283.655 270.081C283.655 270.081 283.655 270.081 283.655 270.195C283.085 271.108 275.896 281.149 246.914 282.29C245.203 282.404 243.491 282.404 241.78 282.29C214.966 281.149 201.273 263.235 201.273 263.235C201.273 263.235 191.346 268.597 197.736 276.471C197.85 276.585 197.85 276.699 197.964 276.699C199.79 278.867 204.012 281.491 208.804 284.23C208.918 284.344 209.032 284.344 209.261 284.458C215.194 287.767 222.04 291.076 227.403 293.814H227.517C230.826 295.526 233.45 297.009 234.934 298.036C236.417 299.177 236.759 299.862 235.276 299.976C227.745 300.888 199.448 294.613 198.193 296.324C197.052 298.036 199.562 302.486 199.562 302.486C225.577 315.38 281.373 308.99 283.199 308.876C236.531 320.856 198.307 305.681 198.307 305.681L199.562 310.131C199.562 310.131 220.328 317.319 244.861 317.89C269.393 318.46 284.682 312.185 284.682 312.185L287.193 307.849Z" fill="url(#paint30_linear_955_6)"/>
<path opacity="0.5" d="M268.141 205.271C268.141 205.271 286.739 206.297 298.948 209.492L292.673 219.077C292.673 219.077 283.088 210.747 268.141 205.271Z" fill="url(#paint31_linear_955_6)"/>
<path opacity="0.5" d="M285.486 256.503C285.486 256.503 273.962 266.201 262.552 270.651C251.141 275.101 240.188 275.558 240.188 275.558C240.188 275.558 246.691 277.497 262.894 274.873C278.982 272.249 284.459 263.577 284.459 263.577L285.486 256.503Z" fill="url(#paint32_linear_955_6)"/>
<path opacity="0.5" d="M290.732 293.7C269.281 299.291 242.125 291.304 242.353 290.391C242.581 289.364 249.77 290.847 266.543 287.424C282.745 284.115 288.679 278.41 289.021 278.068C288.907 279.095 286.625 281.263 286.054 283.545C285.484 285.028 288.565 289.935 290.732 293.7Z" fill="url(#paint33_linear_955_6)"/>
<path opacity="0.5" d="M232.541 208.237C214.285 210.063 209.264 215.197 209.264 215.197C204.13 215.882 192.605 202.646 192.605 202.646L191.122 200.935C191.122 200.935 181.766 222.158 173.436 232.541C172.409 233.796 171.382 234.937 170.241 236.192L171.382 233.454C171.382 233.454 173.322 232.541 173.892 222.272C174.463 212.003 169.557 196.599 169.557 194.545C169.557 192.491 168.758 181.879 168.758 181.879L184.39 191.236L181.537 182.108L192.948 191.236C192.948 191.236 197.398 197.968 208.694 203.559C219.305 208.694 231.172 208.237 232.541 208.237Z" fill="url(#paint34_linear_955_6)"/>
<path opacity="0.5" d="M191.008 200.935L201.962 199.565C201.962 199.565 206.298 202.418 215.083 206.069L207.781 216.795C207.781 216.795 210.633 232.085 218.963 240.756C218.963 240.756 196.941 228.547 193.86 218.164L191.008 200.935Z" fill="url(#paint35_linear_955_6)"/>
<path opacity="0.5" d="M127.336 168.301L130.417 176.517C130.417 176.517 133.612 187.585 139.887 188.041C146.163 188.497 152.324 169.442 152.324 169.442V156.891C152.324 156.891 145.592 171.268 138.404 172.865C131.215 174.463 127.336 168.301 127.336 168.301Z" fill="url(#paint36_linear_955_6)"/>
<path opacity="0.5" d="M165.109 161.797C165.109 161.797 170.7 172.979 177.661 176.517C177.661 176.517 169.445 156.549 171.157 144.796C171.157 144.796 168.076 146.622 165.109 161.797Z" fill="url(#paint37_linear_955_6)"/>
<path opacity="0.76" d="M301.689 178.456L303.629 184.732L305.569 236.078C305.569 236.078 300.548 226.265 297.125 212.345L298.951 209.606C298.951 209.492 302.031 190.209 301.689 178.456Z" fill="url(#paint38_linear_955_6)"/>
<path opacity="0.5" d="M361.474 193.518C361.474 193.518 360.333 218.735 371.059 220.903L371.629 223.641C371.629 223.641 357.709 223.185 361.474 193.518Z" fill="url(#paint39_linear_955_6)"/>
<path opacity="0.3" d="M343.564 201.163C343.564 201.163 343.108 202.076 339.228 199.223C339.228 199.223 325.764 208.808 320.516 222.272C320.516 222.272 328.845 209.835 333.295 208.58C337.745 207.21 338.772 212.231 338.772 212.231C338.772 212.231 340.598 205.271 343.564 201.163Z" fill="url(#paint40_linear_955_6)"/>
<path opacity="0.5" d="M125.969 181.423C125.969 181.423 131.217 191.008 140.916 188.041C140.916 188.041 135.097 191.921 129.278 188.726C129.164 188.726 125.626 182.564 125.969 181.423Z" fill="url(#paint41_linear_955_6)"/>
<path opacity="0.5" d="M159.97 169.328C159.97 169.328 167.158 196.028 148.445 216.11C148.445 216.11 160.54 209.949 163.279 195.572C166.017 181.081 159.97 169.328 159.97 169.328Z" fill="url(#paint42_linear_955_6)"/>
<path opacity="0.5" d="M287.879 147.991C287.879 147.991 287.08 160.086 281.261 168.644C275.442 177.315 264.031 183.135 264.031 183.135C264.031 183.135 278.408 177.886 285.026 170.355C291.644 162.938 287.879 147.991 287.879 147.991Z" fill="url(#paint43_linear_955_6)"/>
<path opacity="0.5" d="M214.402 129.849C214.402 129.849 214.402 139.89 217.597 150.159C220.791 160.428 248.975 178.342 248.975 178.342C248.975 178.342 219.993 166.247 214.288 155.408C208.582 144.568 214.402 129.849 214.402 129.849Z" fill="url(#paint44_linear_955_6)"/>
<path d="M214.055 177.886V194.317C214.055 194.317 251.823 193.974 294.155 196.827L295.068 182.108C295.182 181.994 258.326 177.658 214.055 177.886Z" fill="url(#paint45_linear_955_6)"/>
<path d="M221.017 181.537C221.017 181.309 221.131 181.081 221.474 181.081L229.119 181.309C229.917 181.309 230.488 181.423 231.058 181.651C231.629 181.879 231.971 182.108 232.313 182.45C232.656 182.792 232.884 183.249 232.998 183.705C233.112 184.162 233.226 184.732 233.226 185.417L233.112 187.471C233.112 188.041 232.998 188.612 232.884 189.182C232.77 189.638 232.428 190.095 232.085 190.437C231.743 190.779 231.286 191.008 230.716 191.236C230.145 191.464 229.575 191.464 228.776 191.464L224.669 191.35L223.87 188.954H223.756L223.642 191.35L220.789 191.236L221.017 181.537ZM223.756 188.84L228.662 188.954C229.233 188.954 229.575 188.84 229.803 188.612C230.031 188.383 230.145 187.927 230.145 187.356V185.645C230.145 184.96 230.031 184.618 229.803 184.39C229.575 184.162 229.233 184.047 228.662 184.047L223.984 183.933C223.87 183.933 223.87 183.933 223.87 184.047L223.756 184.162V188.84Z" fill="#EBEFFF"/>
<path d="M237.335 185.987L237.106 189.068C237.106 189.182 237.22 189.296 237.335 189.296L245.892 189.524L245.778 192.149L234.482 191.806C234.254 191.806 234.026 191.692 234.14 191.35L234.368 181.994C234.368 181.765 234.482 181.537 234.824 181.537L245.778 181.88C246.006 181.88 246.235 181.994 246.235 182.336L246.12 184.96L243.382 185.873H243.268V184.504C243.268 184.39 243.268 184.39 243.154 184.39L237.335 184.162C237.22 184.162 237.22 184.162 237.22 184.276V184.39V185.645L242.013 185.759L241.899 187.813L237.905 187.699L237.335 185.987Z" fill="#EBEFFF"/>
<path d="M256.392 185.759L256.278 184.618C256.278 184.504 256.278 184.504 256.164 184.39L250.801 184.276C250.573 184.276 250.459 184.276 250.345 184.39C250.231 184.504 250.231 184.618 250.231 184.732V184.96C250.231 185.189 250.231 185.303 250.345 185.303C250.459 185.417 250.573 185.417 250.687 185.417L256.963 186.444C257.419 186.558 257.648 186.558 257.99 186.786C258.218 186.9 258.446 187.128 258.674 187.242C258.903 187.471 259.017 187.699 259.017 187.927C259.131 188.155 259.131 188.497 259.131 188.954V189.753C259.131 190.209 259.017 190.551 258.903 190.894C258.789 191.236 258.56 191.464 258.332 191.692C258.104 191.921 257.762 192.035 257.419 192.149C257.077 192.263 256.506 192.263 256.05 192.263L246.922 192.035L247.036 189.41L255.137 189.639C255.365 189.639 255.594 189.639 255.594 189.524C255.708 189.41 255.708 189.296 255.708 189.068V188.84C255.708 188.612 255.708 188.497 255.594 188.497C255.48 188.383 255.365 188.383 255.251 188.383L249.204 187.471C248.748 187.356 248.405 187.356 248.177 187.242C247.835 187.128 247.606 187.014 247.492 186.786C247.264 186.558 247.15 186.33 247.15 186.101C247.036 185.873 247.036 185.531 247.036 185.074V184.39C247.036 183.705 247.264 183.135 247.721 182.678C248.177 182.336 248.748 182.108 249.66 182.108L258.674 182.336C259.017 182.336 259.131 182.45 259.131 182.792L259.017 184.846L256.392 185.759Z" fill="#EBEFFF"/>
<path d="M260.266 192.605L260.608 182.45L263.46 182.564L263.118 192.719L260.266 192.605Z" fill="#EBEFFF"/>
<path d="M273.849 188.612C273.849 188.497 273.849 188.269 273.849 188.155C273.849 188.041 273.849 187.813 273.849 187.699V187.585L276.701 187.699L276.587 192.719C276.587 192.947 276.473 193.062 276.245 193.062L268.6 192.833C267.801 192.833 267.231 192.719 266.66 192.491C266.09 192.263 265.747 192.035 265.405 191.692C265.063 191.35 264.834 190.894 264.72 190.437C264.606 189.981 264.492 189.41 264.492 188.726L264.606 186.672C264.606 186.101 264.72 185.531 264.834 184.96C264.949 184.504 265.291 184.047 265.633 183.705C265.976 183.363 266.432 183.135 267.002 182.906C267.573 182.678 268.143 182.678 268.942 182.678L276.587 182.906C276.815 182.906 277.043 183.021 276.929 183.363L276.815 185.531L274.077 186.444H273.963V185.417C273.963 185.303 273.963 185.303 273.849 185.303L268.942 185.189C268.714 185.189 268.372 185.189 268.258 185.189C268.029 185.189 267.915 185.303 267.801 185.417C267.687 185.531 267.573 185.759 267.573 185.873C267.459 186.101 267.459 186.33 267.459 186.672V188.497C267.459 189.068 267.573 189.524 267.801 189.753C268.029 189.981 268.372 190.095 268.942 190.209L273.734 190.323C273.849 190.323 273.849 190.323 273.849 190.209V188.612Z" fill="#EBEFFF"/>
<path d="M282.747 183.021C282.975 183.021 283.089 183.021 283.203 183.135C283.318 183.249 283.318 183.363 283.432 183.477L287.083 190.894C287.197 191.008 287.197 191.122 287.311 191.122H287.425C287.539 191.122 287.653 191.008 287.653 190.894L287.882 183.249L290.506 183.363L290.164 193.176C290.164 193.404 290.05 193.632 289.707 193.518L285.6 193.404C285.371 193.404 285.257 193.404 285.143 193.29C285.029 193.176 284.915 193.176 284.915 192.947L281.15 185.531C281.15 185.417 281.036 185.303 280.921 185.303H280.807C280.693 185.303 280.579 185.417 280.579 185.531L280.351 193.176L277.727 193.062L278.069 183.249C278.069 183.021 278.183 182.792 278.525 182.792L282.747 183.021Z" fill="#EBEFFF"/>
<path opacity="0.5" d="M273.845 132.017C272.932 142.628 269.737 150.045 266.314 155.065C261.522 161.912 256.387 164.308 256.387 164.308C251.253 162.026 246.803 159.287 242.923 156.206C226.607 143.199 221.358 125.171 221.016 123.687C227.862 140.232 238.017 150.273 245.662 155.978C251.823 160.542 256.387 162.254 256.387 162.254V157.005C255.132 156.549 253.991 155.978 252.85 155.408C239.386 148.676 232.312 134.527 229.003 125.285C229.003 125.285 229.003 125.285 229.003 125.17C227.177 120.264 226.493 116.727 226.493 116.727H228.889L228.09 118.438C228.432 120.15 228.889 121.862 229.459 123.459V123.573C236.99 147.306 256.387 154.951 256.387 154.951C269.852 145.024 269.623 129.278 269.623 129.278V127.11L272.134 127.909L273.845 132.017Z" fill="url(#paint46_linear_955_6)"/>
<path opacity="0.3" d="M353.716 189.638C353.716 189.638 350.065 201.619 353.488 220.218C353.488 220.218 355.199 196.599 356.569 194.545C357.824 192.491 361.475 193.518 361.475 193.518C361.475 193.518 355.77 190.437 353.716 189.638Z" fill="url(#paint47_linear_955_6)"/>
<path opacity="0.5" d="M318.229 254.677C315.034 251.938 311.155 247.26 307.389 239.615C299.745 224.326 297.577 214.171 297.234 212.345L299.06 209.606L301.456 186.101L303.738 184.732C303.738 184.732 311.84 175.718 318.001 162.254C318.115 162.482 318.229 162.824 318.343 163.281C319.598 168.187 322.109 186.444 324.505 192.947C325.988 197.055 328.384 199.223 330.096 200.478C330.096 200.478 316.061 221.359 315.377 236.192C314.692 249.656 317.659 253.992 318.229 254.677Z" fill="url(#paint48_linear_955_6)"/>
<path opacity="0.5" d="M234.825 298.15C234.825 298.15 209.495 294.042 199.111 287.31C199.225 286.74 199.225 286.169 199.225 285.599C198.997 279.894 194.091 274.873 193.406 271.564C193.52 271.906 194.319 273.618 197.856 276.699C200.138 278.638 203.561 281.149 208.696 284.23C208.81 284.344 208.924 284.344 209.152 284.458C216.455 288.794 222.731 291.646 227.295 293.814H227.409C231.402 295.754 234.141 297.009 234.825 298.15Z" fill="url(#paint49_linear_955_6)"/>
<path opacity="0.5" d="M289.02 277.954C288.905 278.981 286.623 281.149 286.053 283.431C286.053 283.431 276.811 293.244 242.352 290.277C242.58 289.25 249.768 290.733 266.541 287.31C282.744 284.115 288.563 278.296 289.02 277.954Z" fill="url(#paint50_linear_955_6)"/>
<path opacity="0.5" d="M294.729 144.91L272.707 151.985L266.317 154.951H262.096H256.39L252.853 155.294L251.028 155.408L245.665 155.864L242.926 156.092L216.569 146.508L211.89 144.796L190.211 136.923C190.896 136.695 191.466 136.467 192.151 136.124C206.756 130.305 221.019 123.345 221.019 123.345L226.496 116.613H228.892C231.06 111.82 232.543 107.37 233.456 103.833L234.939 97.3295C235.053 96.6449 235.053 96.3026 235.053 96.3026L242.812 100.41L268.942 121.291C268.942 122.774 268.942 124.029 269.056 125.056L269.398 127.681C269.512 127.11 269.512 126.882 269.512 126.882L272.022 127.681L273.734 131.788C273.734 131.788 276.701 136.353 288.225 141.373C290.279 142.514 292.447 143.655 294.729 144.91Z" fill="#7A4AC0"/>
<path d="M277.961 124.828C277.961 124.828 267.692 127.11 256.396 121.633C245.1 116.156 235.629 100.068 234.945 95.9603C234.374 91.9667 239.28 81.3551 239.28 73.1398C239.28 64.9244 235.287 50.7756 242.019 43.1308C248.751 35.4859 279.901 34.3449 290.056 44.1577C290.056 44.1577 293.137 52.0308 293.137 56.4808C293.137 57.5077 292.909 59.1051 292.681 60.9308C292.566 61.6154 292.452 62.3 292.338 63.0987C291.425 68.4615 290.17 75.0795 290.741 77.9321C290.969 78.959 291.311 79.8718 291.654 80.7846C292.909 83.6372 294.734 85.9192 295.077 88.4295C295.533 91.7385 291.197 114.787 277.961 124.828Z" fill="url(#paint51_linear_955_6)"/>
<path d="M239.277 70.9718C239.277 70.9718 236.424 64.0115 229.464 63.8974C229.464 63.8974 225.356 65.4949 224.672 68.6898C224.672 68.6898 226.155 79.9859 227.867 85.3487C229.578 90.5975 235.968 89.9128 235.968 89.9128C235.968 89.9128 241.445 81.3551 239.277 70.9718Z" fill="url(#paint52_linear_955_6)"/>
<path d="M266.203 94.0205C266.203 94.0205 268.599 93.7923 269.512 94.591C270.539 95.3898 274.19 98.9269 278.868 99.8398C283.547 100.867 286.627 96.8731 287.654 96.6449C288.681 96.4167 289.708 97.7859 289.708 97.7859C289.708 97.7859 289.252 96.1885 286.856 95.3898C286.856 95.3898 285.829 99.1551 279.097 97.7859C272.365 96.5308 269.512 93.5641 269.512 93.5641L269.17 92.9936C269.284 93.1077 267.344 93.5641 266.203 94.0205Z" fill="url(#paint53_linear_955_6)"/>
<path opacity="0.6" d="M256.279 59.1051L256.393 58.4205C256.393 58.4205 263.125 46.668 276.361 46.3257C289.711 45.9833 292.678 54.3128 292.678 54.3128L295.188 50.5474L289.597 39.1372L250.574 38.4526L241.104 46.0974L239.734 65.0385L243.956 89.7987L254.225 95.2757L257.078 92.6513C256.051 84.3218 249.775 76.791 249.775 76.791L254.225 73.7103C254.225 73.7103 265.75 79.3013 272.482 77.5898C272.482 77.5898 277.502 62.8705 277.274 52.0308C277.502 52.0308 260.273 54.541 256.279 59.1051Z" fill="url(#paint54_linear_955_6)"/>
<path d="M255.711 60.0179C255.711 60.0179 256.396 55.7961 263.584 54.0846C271.571 52.1449 278.075 50.5474 278.075 50.5474C278.075 50.5474 276.706 55.2256 273.967 56.9372C273.967 56.9372 265.524 56.5949 261.188 57.6218C256.966 58.6487 255.711 60.0179 255.711 60.0179Z" fill="#38368E"/>
<path d="M292.674 54.3128C292.674 54.3128 288.567 57.3936 285.828 64.9243C285.828 64.9243 288.452 61.5013 290.963 61.5013C292.674 61.5013 292.332 63.2128 292.332 63.2128C292.332 63.2128 294.044 58.7628 292.674 54.3128Z" fill="#38368E"/>
<path d="M258.445 71.9987C258.445 71.9987 258.902 62.9846 267.688 60.7026C267.688 60.7026 270.768 64.8103 271.111 69.3744C270.997 69.4885 266.432 68.5756 258.445 71.9987Z" fill="url(#paint55_linear_955_6)"/>
<path d="M283.438 75.65C283.438 75.65 284.122 68.4615 288.23 65.8372C288.23 65.8372 291.082 67.891 290.74 73.9385C290.74 73.9385 288.344 73.0256 283.438 75.65Z" fill="url(#paint56_linear_955_6)"/>
<path d="M258.445 71.9987C258.445 71.9987 261.298 75.5359 269.285 76.2205C269.285 76.2205 270.768 73.9385 270.654 69.3744C270.54 69.3744 263.238 68.6897 258.445 71.9987Z" fill="#FFEBED"/>
<path d="M283.438 75.65V76.6769C283.438 76.6769 284.693 79.1872 289.029 79.6436C289.029 79.6436 290.398 77.4756 290.512 73.8244C290.626 73.8244 287.888 73.1397 283.438 75.65Z" fill="#FFEBED"/>
<path d="M266.89 69.1461C266.89 69.1461 264.836 71.6564 265.065 75.4218C265.065 75.4218 267.689 75.9923 269.172 76.1064C269.172 76.1064 270.884 73.7102 270.542 69.2602C270.542 69.3743 268.259 68.9179 266.89 69.1461Z" fill="#7F9EC9"/>
<path d="M287.658 73.9385C287.658 73.9385 286.517 75.1936 286.289 78.959C286.289 78.959 287.886 79.6436 289.142 79.6436C289.142 79.6436 290.739 77.3615 290.625 73.8244C290.625 73.8244 289.484 73.4821 287.658 73.9385Z" fill="#7F9EC9"/>
<path d="M266.209 75.7641C266.209 75.7641 265.524 70.9718 268.263 69.032L270.545 69.3744C270.545 69.3744 271.343 73.2538 269.176 76.2205C269.176 76.2205 266.893 75.9923 266.209 75.7641Z" fill="#38368E"/>
<path d="M288.686 73.7103C288.686 73.7103 287.66 75.8782 287.203 79.1872C287.203 79.1872 288.002 79.5295 289.143 79.5295C289.143 79.5295 290.74 77.5898 290.626 73.7103C290.626 73.8244 289.485 73.4821 288.686 73.7103Z" fill="#38368E"/>
<path d="M258.445 71.9987C258.445 71.9987 263.694 68.918 272.822 70.6295L271.111 69.3744C270.997 69.4885 264.607 67.4346 258.445 71.9987Z" fill="#131163"/>
<path d="M283.438 75.65C283.438 75.65 287.659 73.3679 292.68 74.6231L290.626 73.1397C290.626 73.0256 287.317 72.5692 283.438 75.65Z" fill="#131163"/>
<path d="M264.148 71.9987C264.148 71.9987 265.632 71.6564 266.887 73.0256C266.887 73.0256 265.061 73.5961 264.148 71.9987Z" fill="white"/>
<path d="M285.375 76.2205C285.375 76.2205 287.657 75.7641 288.456 76.791C288.456 76.791 287.201 77.5897 285.375 76.2205Z" fill="white"/>
<path d="M258.906 72.5692C258.906 72.5692 263.014 76.6769 269.632 77.5897L269.746 75.1936L269.175 76.2205C269.175 76.2205 262.9 75.8782 258.906 72.5692Z" fill="#C6659C"/>
<path d="M283.438 76.6769C283.438 76.6769 284.122 79.3013 289.485 80.4423L289.257 79.1872L288.914 79.6436C289.143 79.6436 285.263 79.1872 283.438 76.6769Z" fill="#C6659C"/>
<path d="M272.711 87.1743C272.711 87.1743 274.765 86.7179 278.416 87.1743C282.067 87.6308 286.175 88.6577 288.457 87.1743C288.457 87.1743 285.49 90.141 282.866 90.5974C280.242 91.0538 276.362 88.7718 276.362 88.7718H274.651C274.537 88.8859 273.281 88.2013 272.711 87.1743Z" fill="#CB5F7D"/>
<path d="M274.875 88.7718C274.875 88.7718 275.788 88.2013 276.587 88.3154C277.385 88.4295 278.07 89.5705 278.07 89.5705C278.07 89.5705 276.358 88.7718 274.875 88.7718Z" fill="#9F4A8B"/>
<path d="M288.454 87.1743C289.367 86.2615 284.46 77.3615 282.064 77.0192C279.668 76.6769 277.5 86.9461 277.5 86.9461C277.5 86.9461 280.809 87.4025 284.004 87.8589C287.199 88.3154 288.454 87.1743 288.454 87.1743Z" fill="#FFBCAF"/>
<path opacity="0.6" d="M291.996 59.3333C290.627 59.2192 285.949 64.9244 285.949 64.9244C285.949 64.9244 282.868 74.2808 283.552 77.0192C284.123 79.7577 291.54 81.241 291.54 81.241L291.882 80.7846C291.54 79.8718 291.197 78.959 290.969 77.932C290.399 75.0795 291.654 68.4615 292.566 63.0987C292.566 63.0987 292.909 61.9577 292.909 60.9308C292.795 60.132 292.681 59.3333 291.996 59.3333Z" fill="url(#paint57_linear_955_6)"/>
<path d="M291.762 97.3295C290.279 94.1346 291.192 92.5372 277.956 90.8256C259.357 88.4295 257.645 94.0205 254.565 93.2218C254.45 93.2218 254.336 93.1077 254.222 93.1077C250.799 91.7384 242.698 83.8654 242.47 73.1397C242.241 61.9577 249.772 54.0846 249.772 54.0846C247.034 51.8025 246.007 45.1846 248.859 42.4461C251.826 39.5936 256.733 40.2782 268.941 41.5333C281.15 42.7884 281.15 42.1038 281.15 42.1038C285.03 43.1307 287.312 46.782 287.883 47.923C287.997 48.1513 288.111 48.2654 288.111 48.2654L289.594 46.8961C293.702 52.8295 292.903 59.3333 292.903 59.3333C292.903 59.3333 299.635 45.7551 298.836 43.8154C297.467 40.2782 293.588 35.0295 293.359 34.6872C293.359 34.6872 292.333 24.3038 289.024 24.3038C285.829 24.3038 271.908 27.3846 271.908 27.3846C273.391 23.8474 273.163 19.7397 273.163 19.7397C273.163 19.7397 273.163 19.7397 273.049 19.8538C268.485 23.8474 264.149 24.3038 257.874 27.2705C254.679 28.7538 253.195 30.1231 252.054 31.4923L251.598 31.9487L251.141 32.5192C250.685 33.0897 250.229 33.6602 249.772 34.2307C249.772 34.2307 249.772 34.2307 249.658 34.3448C249.202 34.9154 248.517 35.4859 247.833 36.0564C243.725 39.3654 234.711 41.6474 233.57 45.1846C232.543 48.7218 234.939 53.5141 236.194 58.5346C237.449 63.5551 236.879 67.891 236.879 67.891C236.879 67.891 241.215 73.482 239.731 81.5833C238.476 88.8859 235.738 90.0269 235.738 90.0269C233.798 94.0205 234.711 97.7859 234.711 97.7859C238.704 113.646 255.249 123.117 255.249 123.117C269.968 128.594 279.667 126.197 279.667 126.197C290.393 119.237 294.044 96.1884 294.158 95.0474C294.158 95.0474 292.218 98.1282 291.762 97.3295ZM285.144 112.049C282.52 111.592 281.949 105.088 281.15 104.176C280.238 103.263 275.559 103.719 275.559 103.719C275.559 103.719 271.224 108.626 269.512 108.74C267.8 108.854 258.558 105.088 260.498 99.4974C262.438 93.9064 269.512 93.1077 269.512 93.1077C269.512 93.1077 273.163 96.1884 278.526 96.5307C283.889 96.8731 285.829 95.8461 286.513 95.6179C287.198 95.2756 290.621 96.873 290.507 101.779C290.621 105.203 287.768 112.505 285.144 112.049Z" fill="url(#paint58_linear_955_6)"/>
<path d="M284.579 79.0731C284.579 79.0731 289.257 84.8923 288.801 87.0602C288.344 89.4564 282.867 90.7115 282.867 90.7115C282.867 90.7115 287.203 89.2282 288.116 87.0602C288.116 86.9461 286.975 82.6102 284.579 79.0731Z" fill="#D2726C"/>
<path opacity="0.6" d="M293.02 59.2192C293.02 59.2192 293.819 52.7154 289.711 46.782C293.02 40.8487 293.476 34.5731 293.476 34.5731C294.617 37.3115 295.188 42.6743 295.188 42.6743L298.953 43.7013C299.638 45.5269 293.02 59.2192 293.02 59.2192Z" fill="url(#paint59_linear_955_6)"/>
<path opacity="0.6" d="M287.885 47.809C287.201 46.6679 285.033 43.0167 281.153 41.9897C281.153 41.9897 281.153 42.7885 268.944 41.4192C256.735 40.1641 251.715 39.4795 248.862 42.332C245.896 45.1846 247.037 51.6885 249.775 53.9705C249.775 53.9705 242.359 61.8436 242.473 73.0256C242.701 83.7513 250.802 91.7385 254.225 92.9936L254.111 94.1346C254.111 94.1346 254.682 118.667 260.729 120.606C266.662 122.546 279.1 121.519 280.241 122.66C281.382 123.801 280.126 125.627 280.012 125.855C280.012 125.855 270.314 128.251 255.594 122.774C255.594 122.774 239.05 113.304 235.056 97.4436C235.056 97.4436 234.143 93.6782 236.083 89.6846C236.083 89.6846 238.821 88.5436 240.076 81.241C241.56 73.1397 237.224 67.5487 237.224 67.5487C237.224 67.5487 237.794 63.0987 236.539 58.1923C235.284 53.1718 232.774 48.3795 233.915 44.8423C240.875 45.9833 245.325 42.332 245.325 42.332C245.325 42.332 246.58 40.6205 251.943 39.8218C257.306 38.909 278.757 41.0769 278.757 41.0769C278.757 41.0769 276.589 39.2513 272.025 38.1103C267.689 36.9692 253.084 38.3385 251.487 38.4526C253.198 38.1103 269.743 35.2577 271.683 35.8282C273.737 36.3987 280.925 39.7077 280.925 39.7077C280.241 36.3987 273.851 28.4115 273.851 28.4115C273.851 28.4115 264.723 28.5256 258.789 29.7808C253.426 30.9218 250.574 33.3179 250.003 33.7744L251.373 32.0628L251.829 31.4923L252.285 31.0359L254.339 30.6936L264.723 26.4718C268.26 24.6461 272.71 19.9679 273.28 19.3974L273.394 19.2833C273.394 19.2833 273.623 23.391 272.139 26.9282C280.925 25.7872 283.892 26.3577 283.892 26.3577C287.771 32.4051 287.885 47.809 287.885 47.809Z" fill="url(#paint60_linear_955_6)"/>
<path opacity="0.5" d="M255.477 122.888C255.477 122.888 260.839 121.633 269.055 121.976C277.156 122.318 281.834 122.318 279.895 125.969C279.78 125.969 269.625 128.251 255.477 122.888Z" fill="url(#paint61_linear_955_6)"/>
<path d="M283.776 26.7C283.776 26.7 288.682 24.7602 290.736 25.1026C290.736 25.1026 289.938 24.0756 289.139 23.8474C288.34 23.6192 272.023 27.2705 272.023 27.2705C272.023 27.2705 282.179 26.1295 283.776 26.7Z" fill="url(#paint62_linear_955_6)"/>
<path d="M273.735 28.5256C273.735 28.5256 273.393 33.8885 271.567 35.8282L251.371 38.4526L245.438 37.4256C245.438 37.4256 247.72 36.3987 250.23 33.5461C252.854 30.5795 265.976 27.7269 273.735 28.5256Z" fill="url(#paint63_linear_955_6)"/>
<path d="M293.359 34.5731C293.359 34.5731 294.957 39.9359 295.185 42.6743L298.95 43.7013C298.95 43.5872 297.809 39.5936 293.359 34.5731Z" fill="url(#paint64_linear_955_6)"/>
<path opacity="0.8" d="M238.362 80.4423C238.362 80.4423 236.993 73.5962 233.456 70.2872C230.033 66.8641 226.039 68.0051 226.039 68.0051C226.039 68.0051 227.066 80.6705 228.207 83.7513C229.348 86.8321 231.06 87.6308 231.06 87.6308C231.06 87.6308 228.663 85.4628 228.321 81.3551C227.979 77.1333 227.865 71.3141 228.778 70.6295C229.69 69.9449 233.456 72.6833 233.456 72.6833C233.456 72.6833 232.315 74.1667 231.63 77.818C230.945 81.5833 233.57 84.2077 234.483 84.2077C235.51 84.2077 234.483 79.8718 234.597 78.7308C234.711 77.5898 236.879 77.5898 238.362 80.4423Z" fill="url(#paint65_linear_955_6)"/>
<path opacity="0.8" d="M234.945 71.9987C234.945 71.9987 231.18 74.509 231.522 79.6436C231.978 84.7782 234.831 84.55 234.831 83.409C234.831 82.382 234.26 79.5295 234.603 78.0461C234.945 76.4487 237.455 77.1333 237.455 77.1333C237.455 77.1333 235.744 73.1397 234.945 71.9987Z" fill="url(#paint66_linear_955_6)"/>
<path d="M294.39 94.8192C294.39 94.8192 289.712 116.385 279.899 125.969C279.785 125.969 290.967 121.519 294.39 94.8192Z" fill="#34C7FF"/>
<path d="M289.141 23.8474C289.141 23.8474 291.651 25.7872 292.107 32.5192C292.564 39.2513 289.711 46.668 289.711 46.668C289.711 46.668 293.477 41.0769 293.819 34.9154C294.047 28.868 291.08 24.6462 289.141 23.8474Z" fill="#34C7FF"/>
<path d="M258.898 37.9961C258.898 37.9961 264.604 39.9359 270.993 40.5064C277.269 41.0769 278.638 41.191 278.638 41.191C278.638 41.191 276.128 38.6807 270.651 37.9961C265.288 37.1974 258.898 37.9961 258.898 37.9961Z" fill="url(#paint67_linear_955_6)"/>
<path d="M286.742 95.2757C286.742 95.2757 289.481 95.2757 290.622 98.6987C291.534 101.437 291.763 103.833 291.763 103.833L292.79 100.068C292.79 100.068 291.534 95.2757 290.165 94.1346C289.252 93.3359 287.541 92.5372 286.742 92.7654V95.2757Z" fill="url(#paint68_linear_955_6)"/>
<path d="M279.32 91.8526L279.777 95.9602C279.777 95.9602 283.086 96.1885 285.368 95.2756L285.71 92.7654C285.824 92.7654 281.488 91.7385 279.32 91.8526Z" fill="url(#paint69_linear_955_6)"/>
<path d="M294.727 144.91C294.727 144.91 314.352 159.287 316.977 164.194C319.487 169.1 320.514 184.618 324.051 191.35C324.051 191.35 321.655 180.396 320.057 171.838C318.346 163.281 318.802 163.167 317.889 160.999C316.862 158.831 302.143 148.676 294.727 144.91Z" fill="#34C7FF"/>
<path d="M291.186 224.782C291.186 224.782 281.716 265.288 282.172 268.027C282.629 270.765 288.79 276.356 289.018 277.84C289.018 277.84 284.34 284.115 284.568 285.485C284.797 286.854 292.784 295.64 292.556 298.378C292.441 299.177 287.307 307.735 287.307 307.735C287.307 307.735 293.126 299.291 293.468 298.036C293.811 296.667 286.28 285.485 286.052 284.344C285.481 281.377 289.817 279.209 289.931 277.269C290.045 275.33 284.112 270.537 284.112 267.342C283.998 264.262 291.186 224.782 291.186 224.782Z" fill="#34C7FF"/>
<path d="M293.133 321.541C293.133 321.541 313.671 367.867 320.632 414.306C320.517 414.192 319.376 369.008 293.133 321.541Z" fill="#34C7FF"/>
<path d="M163.279 135.554C163.279 135.554 158.031 134.413 155.749 129.849C153.581 125.171 154.95 118.553 154.95 118.553C154.95 118.553 159.058 126.54 161.112 129.278C163.279 131.903 163.85 134.983 163.279 135.554Z" fill="#FFBCAF"/>
<path opacity="0.6" d="M326.792 111.478L330.443 216.224C330.557 220.332 333.98 223.641 338.202 223.641H518.598C522.82 223.641 526.243 220.332 526.357 216.11L528.867 110.109C528.981 105.773 525.444 102.122 521.108 102.236L334.437 103.491C330.101 103.491 326.564 107.028 326.792 111.478Z" fill="#36D1F7"/>
<path d="M518.597 223.869H338.087C333.751 223.869 330.214 220.446 330.1 216.11L326.448 111.364C326.334 109.196 327.133 107.142 328.616 105.545C330.1 103.947 332.153 103.149 334.321 103.035L520.993 101.779C523.161 101.779 525.215 102.578 526.698 104.176C528.182 105.773 529.094 107.827 528.98 109.995L526.47 215.996C526.47 220.446 522.933 223.869 518.597 223.869ZM521.107 102.464L334.435 103.719C332.382 103.719 330.556 104.518 329.073 106.001C327.703 107.485 326.905 109.424 327.019 111.364L330.67 216.11C330.784 220.104 334.093 223.299 338.087 223.299H518.483C522.476 223.299 525.785 219.99 525.9 215.996L528.41 109.995C528.41 107.941 527.725 106.001 526.242 104.632C524.987 103.263 523.047 102.464 521.107 102.464Z" fill="#744CA2"/>
<path opacity="0.6" d="M327.02 116.727H528.64L528.982 111.25C529.324 106.344 525.331 102.236 520.424 102.35L333.867 103.833C329.987 103.833 326.906 107.028 326.906 110.908L327.02 116.727Z" fill="url(#paint70_linear_955_6)"/>
<path opacity="0.3" d="M337.172 125.171V185.873H398.901V124.942L337.172 125.171Z" fill="url(#paint71_linear_955_6)"/>
<path opacity="0.3" d="M485.283 129.278H458.469V156.092H485.283V129.278Z" fill="url(#paint72_linear_955_6)"/>
<path opacity="0.3" d="M517.002 129.278H490.188V156.092H517.002V129.278Z" fill="url(#paint73_linear_955_6)"/>
<path opacity="0.3" d="M453.103 129.278H426.289V156.092H453.103V129.278Z" fill="url(#paint74_linear_955_6)"/>
<path d="M517.002 171.724H448.312V178.114H517.002V171.724Z" fill="#D1D4FB"/>
<path d="M517 181.537H431.195V183.477H517V181.537Z" fill="#D1D4FB"/>
<path d="M448.423 159.515H431.992V161.455H448.423V159.515Z" fill="#D1D4FB"/>
<path d="M480.142 159.515H463.711V161.455H480.142V159.515Z" fill="#D1D4FB"/>
<path d="M511.751 159.515H495.32V161.455H511.751V159.515Z" fill="#D1D4FB"/>
<path d="M453.902 184.732H426.289V186.672H453.902V184.732Z" fill="#D1D4FB"/>
<path d="M517 187.927H431.195V189.867H517V187.927Z" fill="#D1D4FB"/>
<path d="M517.001 191.122H426.289V193.062H517.001V191.122Z" fill="#D1D4FB"/>
<path d="M517.001 194.317H426.289V196.256H517.001V194.317Z" fill="#D1D4FB"/>
<path d="M517 207.324H431.195V209.264H517V207.324Z" fill="#D1D4FB"/>
<path d="M517.001 210.519H426.289V212.459H517.001V210.519Z" fill="#D1D4FB"/>
<path d="M517.001 213.714H426.289V215.654H517.001V213.714Z" fill="#D1D4FB"/>
<path d="M513.349 197.512H426.289V199.451H513.349V197.512Z" fill="#D1D4FB"/>
<path d="M517 200.706H431.195V202.646H517V200.706Z" fill="#D1D4FB"/>
<path d="M499.771 203.901H426.289V205.841H499.771V203.901Z" fill="#D1D4FB"/>
<path d="M354.4 173.664C344.701 173.664 336.828 165.791 336.828 156.092C336.828 146.394 344.701 138.521 354.4 138.521C364.099 138.521 371.972 146.394 371.972 156.092C371.972 165.791 364.099 173.664 354.4 173.664ZM354.4 139.662C345.386 139.662 337.969 147.078 337.969 156.092C337.969 165.106 345.386 172.523 354.4 172.523C363.414 172.523 370.831 165.106 370.831 156.092C370.831 147.078 363.528 139.662 354.4 139.662Z" fill="#E0FFFF"/>
<path d="M354.405 165.677C359.698 165.677 363.99 161.386 363.99 156.092C363.99 150.799 359.698 146.508 354.405 146.508C349.111 146.508 344.82 150.799 344.82 156.092C344.82 161.386 349.111 165.677 354.405 165.677Z" fill="white"/>
<path d="M398.9 142.4C389.201 142.4 381.328 134.527 381.328 124.828C381.328 115.13 389.201 107.256 398.9 107.256C408.599 107.256 416.472 115.13 416.472 124.828C416.472 134.527 408.485 142.4 398.9 142.4ZM398.9 108.512C389.886 108.512 382.469 115.928 382.469 124.942C382.469 133.956 389.886 141.373 398.9 141.373C407.914 141.373 415.331 133.956 415.331 124.942C415.217 115.814 407.914 108.512 398.9 108.512Z" fill="#E0FFFF"/>
<path d="M407.795 126.262C408.569 121.344 405.209 116.73 400.292 115.957C395.374 115.183 390.76 118.543 389.987 123.46C389.213 128.378 392.572 132.991 397.49 133.765C402.408 134.539 407.021 131.179 407.795 126.262Z" fill="white"/>
<path d="M334.094 108.512L335.349 106.572L342.309 112.619L341.282 114.103L334.094 108.512Z" fill="white"/>
<path d="M342.426 108.512L341.171 106.572L334.211 112.619L335.352 114.103L342.426 108.512Z" fill="white"/>
<path d="M523.619 107.941H461.547V111.022H523.619V107.941Z" fill="white"/>
<path d="M134.758 62.9846V89.9128L166.935 90.141L167.391 62.0718L134.758 62.9846Z" fill="url(#paint75_linear_955_6)"/>
<path d="M167.394 62.0718L169.448 65.609L168.421 90.141H166.938L167.394 62.0718Z" fill="url(#paint76_linear_955_6)"/>
<path d="M140.461 71.9987L143.428 67.6628L159.516 81.241L157.12 84.55L140.461 71.9987Z" fill="white"/>
<path d="M159.977 71.9987L157.01 67.6628L140.922 81.241L143.318 84.55L159.977 71.9987Z" fill="white"/>
<path opacity="0.81" d="M209.954 380.19H99.6172C94.7107 380.19 90.7171 376.31 90.603 371.404L88.5492 280.92C88.4351 275.9 92.5428 271.678 97.5633 271.678H212.465C217.599 271.678 221.593 275.9 221.479 280.92L218.968 371.404C218.854 376.31 214.861 380.19 209.954 380.19Z" fill="url(#paint77_linear_955_6)"/>
<path d="M209.951 380.532H99.6142C94.5937 380.532 90.3719 376.424 90.2578 371.404L88.2039 280.921C88.0898 278.41 89.1167 276.014 90.8283 274.188C92.5398 272.363 94.936 271.336 97.4462 271.336H212.348C214.858 271.336 217.254 272.363 219.08 274.188C220.905 276.014 221.818 278.41 221.704 280.921L219.194 371.404C219.08 376.538 214.972 380.532 209.951 380.532ZM97.5603 271.906C95.1642 271.906 92.9962 272.819 91.2847 274.531C89.5732 276.242 88.7744 278.524 88.7744 280.806L90.8283 371.29C90.9424 375.968 94.8219 379.847 99.6142 379.847H209.951C214.744 379.847 218.623 376.082 218.737 371.29L221.248 280.806C221.362 278.41 220.449 276.128 218.737 274.417C217.026 272.705 214.858 271.792 212.462 271.792H97.5603V271.906Z" fill="#473DA2"/>
<path d="M176.175 290.163H118.211V292.673H176.175V290.163Z" fill="white"/>
<path d="M147.193 296.21H118.211V298.72H147.193V296.21Z" fill="white"/>
<path d="M147.193 301.231H118.211V303.741H147.193V301.231Z" fill="white"/>
<path d="M173.549 301.231H150.5V303.741H173.549V301.231Z" fill="white"/>
<path d="M164.993 306.251H118.211V308.762H164.993V306.251Z" fill="white"/>
<path d="M134.87 311.386H118.211V313.896H134.87V311.386Z" fill="white"/>
<path d="M167.051 326.447H138.297V328.958H167.051V326.447Z" fill="white"/>
<path d="M170.356 316.406H118.211V318.917H170.356V316.406Z" fill="white"/>
<path d="M158.375 321.427H118.211V323.937H158.375V321.427Z" fill="white"/>
<path d="M137.038 326.447H118.211V328.958H137.038V326.447Z" fill="white"/>
<path d="M147.193 331.468H118.211V333.978H147.193V331.468Z" fill="white"/>
<path d="M126.54 336.603H118.211V339.113H126.54V336.603Z" fill="white"/>
<path d="M160.198 336.603H129.961V339.113H160.198V336.603Z" fill="white"/>
<path d="M167.051 341.509H138.297V344.019H167.051V341.509Z" fill="white"/>
<path d="M137.038 341.509H118.211V344.019H137.038V341.509Z" fill="white"/>
<path d="M147.193 346.53H118.211V349.04H147.193V346.53Z" fill="white"/>
<path d="M126.54 351.55H118.211V354.06H126.54V351.55Z" fill="white"/>
<path d="M160.198 351.55H129.961V354.06H160.198V351.55Z" fill="white"/>
<path d="M505.933 82.0397C505.933 84.8923 503.651 87.1744 500.799 87.1744C497.946 87.1744 495.664 84.8923 495.664 82.0397C495.664 79.1872 497.946 76.9051 500.799 76.9051C503.651 76.9051 505.933 79.1872 505.933 82.0397Z" fill="url(#paint78_linear_955_6)"/>
<path d="M27.9514 200.25C27.9514 203.787 25.0988 206.64 21.5616 206.64C18.0244 206.64 15.1719 203.787 15.1719 200.25C15.1719 196.713 18.0244 193.86 21.5616 193.86C25.0988 193.86 27.9514 196.713 27.9514 200.25Z" fill="url(#paint79_linear_955_6)"/>
<path d="M515.861 87.1744C518.697 87.1744 520.996 84.8755 520.996 82.0397C520.996 79.204 518.697 76.9051 515.861 76.9051C513.025 76.9051 510.727 79.204 510.727 82.0397C510.727 84.8755 513.025 87.1744 515.861 87.1744Z" fill="url(#paint80_linear_955_6)"/>
<path d="M187.011 120.721C189.027 120.721 190.662 119.086 190.662 117.069C190.662 115.053 189.027 113.418 187.011 113.418C184.994 113.418 183.359 115.053 183.359 117.069C183.359 119.086 184.994 120.721 187.011 120.721Z" fill="url(#paint81_linear_955_6)"/>
<path d="M428.565 279.779C430.582 279.779 432.217 278.145 432.217 276.128C432.217 274.112 430.582 272.477 428.565 272.477C426.549 272.477 424.914 274.112 424.914 276.128C424.914 278.145 426.549 279.779 428.565 279.779Z" fill="url(#paint82_linear_955_6)"/>
<path d="M53.6246 315.265C55.389 315.265 56.8194 313.835 56.8194 312.071C56.8194 310.306 55.389 308.876 53.6246 308.876C51.8601 308.876 50.4297 310.306 50.4297 312.071C50.4297 313.835 51.8601 315.265 53.6246 315.265Z" fill="url(#paint83_linear_955_6)"/>
<path opacity="0.73" d="M108.629 280.464H52.9465C48.4965 280.464 44.8452 276.927 44.617 272.477L43.3619 235.85C43.2478 231.172 47.0132 227.292 51.6914 227.292H109.77C114.448 227.292 118.213 231.172 118.099 235.85L116.958 272.477C116.844 276.927 113.079 280.464 108.629 280.464Z" fill="url(#paint84_linear_955_6)"/>
<path d="M108.629 280.806H52.9474C48.2692 280.806 44.5038 277.155 44.3897 272.477L43.1346 235.85C43.0205 233.454 43.9333 231.286 45.5307 229.574C47.1282 227.863 49.4102 226.95 51.6923 226.95H109.77C112.167 226.95 114.335 227.863 115.932 229.574C117.529 231.286 118.442 233.454 118.328 235.85L117.187 272.477C117.073 277.155 113.308 280.806 108.629 280.806ZM51.6923 227.521C49.5243 227.521 47.4705 228.433 45.873 229.917C44.3897 231.514 43.591 233.568 43.591 235.736L44.8461 272.363C44.9602 276.699 48.4974 280.122 52.8333 280.122H108.515C112.851 280.122 116.388 276.699 116.503 272.363L117.644 235.736C117.758 233.568 116.959 231.514 115.361 229.917C113.878 228.319 111.824 227.521 109.656 227.521H51.6923Z" fill="#953DA2"/>
<path d="M67.7782 240.414L54.0859 256.274L68.0064 268.141V262.094L59.9052 255.019L67.4359 246.576L67.7782 240.414Z" fill="white"/>
<path d="M91.9739 241.099L105.666 257.073L91.6316 268.94V262.778L99.7329 255.704L90.7188 246.233L91.9739 241.099Z" fill="white"/>
<path d="M70.75 268.141L82.7308 241.783H88.3218L74.8577 268.141H70.75Z" fill="white"/>
<path opacity="0.73" d="M483.224 355.886H413.621C408.03 355.886 403.466 351.436 403.238 345.845L401.641 299.976C401.412 294.156 406.205 289.25 412.024 289.25H484.593C490.412 289.25 495.205 294.156 494.977 299.976L493.607 345.845C493.493 351.322 488.815 355.886 483.224 355.886Z" fill="url(#paint85_linear_955_6)"/>
<path d="M483.223 356.114H413.621C407.801 356.114 403.123 351.55 402.895 345.845L401.298 299.976C401.184 297.009 402.21 294.271 404.264 292.217C406.318 290.163 409.057 288.908 411.909 288.908H484.478C487.445 288.908 490.069 290.049 492.123 292.103C494.177 294.156 495.204 297.009 495.09 299.862L493.721 345.731C493.721 351.55 489.042 356.114 483.223 356.114ZM412.023 289.478C409.285 289.478 406.66 290.619 404.721 292.559C402.781 294.499 401.754 297.123 401.868 299.976L403.466 345.845C403.694 351.322 408.144 355.658 413.621 355.658H483.223C488.7 355.658 493.15 351.322 493.378 345.845L494.748 299.976C494.862 297.237 493.835 294.613 491.895 292.673C489.955 290.733 487.445 289.592 484.593 289.592H412.023V289.478Z" fill="#953DA2"/>
<path d="M479.346 296.553H415.562V334.435H479.346V296.553Z" fill="#D1D4FB"/>
<path d="M441.914 306.023V325.078L458.117 314.695L441.914 306.023Z" fill="white"/>
<path d="M479.346 341.509H415.562V344.932H479.346V341.509Z" fill="#D1D4FB"/>
<path d="M432.107 341.509H415.562V344.932H432.107V341.509Z" fill="white"/>
<path fill-rule="evenodd" clip-rule="evenodd" d="M368.896 284.686L365.587 294.156C367.413 288.908 370.037 285.485 368.896 284.686ZM365.587 294.156L362.278 303.627C363.077 303.399 363.762 299.405 365.587 294.156ZM368.896 284.686L365.587 294.156C367.413 288.908 370.037 285.485 368.896 284.686ZM365.587 294.156L362.278 303.627C363.077 303.399 363.762 299.405 365.587 294.156ZM375.172 302.372L378.367 304.197L381.904 294.613L378.138 294.042C378.253 293.7 378.253 293.358 378.367 293.015C378.595 291.418 378.709 289.82 378.709 288.223L382.588 285.713L380.763 277.269L376.997 280.806C376.427 279.779 375.856 278.753 375.058 278.068C374.83 277.84 374.601 277.612 374.373 277.383L376.655 272.135L370.608 270.195L369.124 275.558C367.755 275.558 366.386 275.9 365.017 276.47L364.332 271.45L357.6 276.585L359.197 281.035C357.942 282.404 356.915 284.001 355.888 285.827L352.694 284.001L349.156 293.586L352.922 294.156C352.58 296.21 352.351 298.15 352.465 299.976L348.586 302.486L350.412 310.929L354.177 307.392C354.862 308.762 355.66 309.903 356.801 310.815L354.519 316.064L360.567 318.46L361.48 315.037L362.164 312.755C363.533 312.755 364.903 312.413 366.272 311.842L366.956 316.863L373.688 311.728L372.091 307.278C373.004 306.137 373.917 304.996 374.715 303.627C374.715 303.171 374.944 302.828 375.172 302.372ZM365.587 294.156C363.762 299.405 365.587 304.882 362.278 303.627C358.969 302.486 357.714 297.237 359.54 291.988C361.365 286.74 365.587 283.431 368.896 284.572C372.205 285.827 367.413 288.908 365.587 294.156ZM368.896 284.686L365.587 294.156C367.413 288.908 370.037 285.485 368.896 284.686ZM365.587 294.156L362.278 303.627C363.077 303.399 363.762 299.405 365.587 294.156Z" fill="url(#paint86_linear_955_6)"/>
<path fill-rule="evenodd" clip-rule="evenodd" d="M378.364 304.197L381.902 294.613L378.364 292.901L377.794 292.673L378.136 287.424L382.13 285.485L380.875 277.383L372.317 274.531L373.914 278.296L376.881 272.135L370.834 270.195L368.323 269.396L362.276 267L361.135 271.108L355.886 268.597L349.154 273.732L351.208 279.209L344.932 296.667L341.852 307.963L347.785 308.647L345.845 313.097L351.893 315.494L360.45 318.346L359.081 315.608L358.168 313.896L361.363 314.923L366.84 316.749L373.572 311.614L369.464 306.708L374.713 303.513L378.364 304.197ZM359.537 291.988C361.363 286.74 365.585 283.431 368.894 284.572L365.585 294.042L362.276 303.513C358.853 302.486 357.598 297.237 359.537 291.988Z" fill="url(#paint87_linear_955_6)"/>
<path fill-rule="evenodd" clip-rule="evenodd" d="M369.809 301.459L373.346 291.874L369.581 291.304C369.923 289.25 370.151 287.31 370.037 285.485L373.917 282.974L372.091 274.531L368.326 278.068C367.641 276.699 366.842 275.558 365.815 274.645L368.097 269.396L362.05 267L360.453 272.705C359.083 272.705 357.714 273.047 356.345 273.618L355.66 268.597L348.928 273.732L350.526 278.182C349.27 279.551 348.244 281.149 347.217 282.974L344.022 281.149L340.485 290.733L344.25 291.304C343.908 293.358 343.679 295.297 343.794 297.123L339.914 299.633L341.74 308.077L345.505 304.54C346.19 305.909 346.988 307.05 348.015 307.963L345.733 313.212L351.781 315.608L353.378 309.903C354.747 309.903 356.117 309.56 357.486 308.99L358.17 314.01L364.903 308.876L363.305 304.426C364.56 303.056 365.587 301.459 366.614 299.633L369.809 301.459ZM353.606 300.888C350.297 299.747 349.042 294.499 350.868 289.25C352.694 284.001 356.915 280.692 360.224 281.833C363.533 282.974 364.788 288.223 362.963 293.472C361.137 298.721 356.915 302.03 353.606 300.888Z" fill="url(#paint88_linear_955_6)"/>
<path opacity="0.5" fill-rule="evenodd" clip-rule="evenodd" d="M382.59 285.827L373.919 282.974L370.039 285.485L378.597 288.337L382.59 285.827Z" fill="#601734"/>
<path fill-rule="evenodd" clip-rule="evenodd" d="M373.46 311.614L364.788 308.876L363.305 304.426L371.862 307.164L373.46 311.614Z" fill="#B3D9FF"/>
<path opacity="0.5" fill-rule="evenodd" clip-rule="evenodd" d="M365.812 274.759L370.605 276.128L372.202 274.645L375.283 275.672L376.766 272.249L368.095 269.51L365.812 274.759Z" fill="#601734"/>
<path opacity="0.5" fill-rule="evenodd" clip-rule="evenodd" d="M353.266 309.903L357.83 311.728L357.487 308.876C357.487 308.876 354.977 310.131 353.266 309.903Z" fill="#601734"/>
<path opacity="0.5" fill-rule="evenodd" clip-rule="evenodd" d="M353.945 284.001L361.59 287.995C361.59 287.995 362.731 286.512 363.53 285.941C363.53 285.941 361.59 277.612 353.945 284.001Z" fill="#601734"/>
<path d="M14.8359 341.509L21.6821 349.04L24.3064 345.959L17.9167 338.885L14.8359 341.509Z" fill="#6877FF"/>
<path d="M359.194 89.4564L352.348 93.5641L349.609 88.4295L357.14 84.0936L359.194 89.4564Z" fill="#4F31E0"/>
<path d="M392.856 351.55L383.043 358.51L380.305 353.376L389.775 347.785L392.856 351.55Z" fill="#4F31E0"/>
<path fill-rule="evenodd" clip-rule="evenodd" d="M379.847 53.9705L378.25 15.632H428.569L426.515 53.8564L379.847 53.9705Z" fill="url(#paint89_linear_955_6)"/>
<path fill-rule="evenodd" clip-rule="evenodd" d="M378.249 15.632L376.766 17.9141L378.249 53.9705H379.846L378.249 15.632Z" fill="url(#paint90_linear_955_6)"/>
<path d="M394.904 23.2769L387.031 22.4782L388.172 48.7218L394.904 48.0372V45.2987L391.025 45.4128L390.568 25.1026L394.904 25.3308V23.2769Z" fill="white"/>
<path d="M411.109 23.2769L418.982 22.4782L417.956 48.7218L411.109 48.0372V45.2987L414.989 45.4128L415.445 25.1026L411.109 25.3308V23.2769Z" fill="white"/>
<path fill-rule="evenodd" clip-rule="evenodd" d="M33.2038 138.064L34.2308 111.935H0L1.36923 138.064H33.2038Z" fill="url(#paint91_linear_955_6)"/>
<path fill-rule="evenodd" clip-rule="evenodd" d="M34.23 111.935L35.257 113.418L34.23 138.064H33.2031L34.23 111.935Z" fill="url(#paint92_linear_955_6)"/>
<path d="M21.1079 117.183C21.1079 117.183 24.8733 117.069 25.5579 117.297C26.2425 117.64 25.3297 123.687 25.3297 123.687L26.8131 125.056L25.4438 126.426C25.4438 126.426 25.5579 132.587 24.6451 133.158C23.7323 133.728 20.7656 133.158 20.7656 133.158V131.56C20.7656 131.56 23.2759 131.674 23.6182 131.332C24.0746 130.99 23.9605 125.627 23.9605 125.627L24.6451 124.942L23.9605 124.144C23.9605 124.144 24.0746 120.264 23.9605 119.237C23.9605 118.553 20.9938 118.438 20.9938 118.438V117.183H21.1079Z" fill="white"/>
<path d="M12.4395 117.183C12.4395 117.183 8.67412 117.069 7.9895 117.297C7.30489 117.526 8.21771 123.687 8.21771 123.687L6.73438 125.056L8.10361 126.426C8.10361 126.426 7.9895 132.587 8.90232 133.158C9.81514 133.728 12.7818 133.158 12.7818 133.158V131.56C12.7818 131.56 10.2716 131.674 9.92925 131.332C9.47284 130.99 9.58694 125.627 9.58694 125.627L8.90232 124.942L9.58694 124.144C9.58694 124.144 9.47284 120.264 9.58694 119.237C9.58694 118.553 12.5536 118.438 12.5536 118.438V117.183H12.4395Z" fill="white"/>
<path d="M322.451 57.5077L314.008 35.4859L335.801 40.05L322.451 57.5077ZM314.921 36.2846L322.566 56.3666L334.774 40.5064L314.921 36.2846Z" fill="#744CA2"/>
<path d="M389.462 358.792L382.109 368.822L382.569 369.16L389.922 359.129L389.462 358.792Z" fill="#744CA2"/>
<path d="M313.326 276.356L305.453 266.544L305.91 266.087L313.783 276.014L313.326 276.356Z" fill="#744CA2"/>
<path d="M68.7978 345.617L52.9375 334.206L53.2798 333.75L69.1401 345.16L68.7978 345.617Z" fill="#744CA2"/>
<path d="M66.6677 331.766L54.8438 347.288L55.2976 347.633L67.1216 332.112L66.6677 331.766Z" fill="#744CA2"/>
<path d="M33.32 171.45L33.0547 171.955L43.256 177.315L43.5214 176.81L33.32 171.45Z" fill="#744CA2"/>
<path d="M436.785 39.2513L436.328 38.909L448.195 25.3308L448.537 25.7872L436.785 39.2513Z" fill="#744CA2"/>
<path d="M206.823 71.9367L206.312 72.1908L211.598 82.815L212.109 82.5609L206.823 71.9367Z" fill="#744CA2"/>
<path d="M136.19 250.923L122.625 262.27L122.991 262.708L136.556 251.36L136.19 250.923Z" fill="#744CA2"/>
</g>
<defs>
<linearGradient id="paint0_linear_955_6" x1="117.337" y1="236.099" x2="82.9534" y2="162.506" gradientUnits="userSpaceOnUse">
<stop stop-color="#DBCCFF"/>
<stop offset="1" stop-color="#D1BBFF"/>
</linearGradient>
<linearGradient id="paint1_linear_955_6" x1="118.672" y1="238.972" x2="84.2884" y2="165.379" gradientUnits="userSpaceOnUse">
<stop stop-color="#B5A6E7"/>
<stop offset="1" stop-color="#7760BF"/>
</linearGradient>
<linearGradient id="paint2_linear_955_6" x1="110.124" y1="220.676" x2="95.6306" y2="189.655" gradientUnits="userSpaceOnUse">
<stop stop-color="#B5A6E7"/>
<stop offset="1" stop-color="#7760BF"/>
</linearGradient>
<linearGradient id="paint3_linear_955_6" x1="91.5185" y1="192.333" x2="100.323" y2="188.219" gradientUnits="userSpaceOnUse">
<stop stop-color="#8B8BE0"/>
<stop offset="1" stop-color="#A177B7"/>
</linearGradient>
<linearGradient id="paint4_linear_955_6" x1="96.877" y1="192.32" x2="94.3869" y2="186.991" gradientUnits="userSpaceOnUse">
<stop stop-color="white"/>
<stop offset="1" stop-color="#A177B7"/>
</linearGradient>
<linearGradient id="paint5_linear_955_6" x1="116.259" y1="221.667" x2="100.281" y2="187.47" gradientUnits="userSpaceOnUse">
<stop/>
<stop offset="1" stop-color="white"/>
</linearGradient>
<linearGradient id="paint6_linear_955_6" x1="245.325" y1="414.235" x2="245.325" y2="312.444" gradientUnits="userSpaceOnUse">
<stop stop-color="#6456C0"/>
<stop offset="1" stop-color="#5F2C95"/>
</linearGradient>
<radialGradient id="paint7_radial_955_6" cx="0" cy="0" r="1" gradientUnits="userSpaceOnUse" gradientTransform="translate(195.757 377.627) rotate(12.9927) scale(20.4519 52.8419)">
<stop stop-color="#4B474B"/>
<stop offset="1"/>
</radialGradient>
<radialGradient id="paint8_radial_955_6" cx="0" cy="0" r="1" gradientUnits="userSpaceOnUse" gradientTransform="translate(290.691 377.114) rotate(-15.6582) scale(20.4526 52.8405)">
<stop stop-color="#4B474B"/>
<stop offset="1"/>
</radialGradient>
<linearGradient id="paint9_linear_955_6" x1="212.379" y1="378.5" x2="239.076" y2="378.5" gradientUnits="userSpaceOnUse">
<stop stop-color="#9E8CEF"/>
<stop offset="1" stop-color="#CAAFEE"/>
</linearGradient>
<linearGradient id="paint10_linear_955_6" x1="274.769" y1="378.501" x2="248.07" y2="378.501" gradientUnits="userSpaceOnUse">
<stop stop-color="#9E8CEF"/>
<stop offset="1" stop-color="#CAAFEE"/>
</linearGradient>
<linearGradient id="paint11_linear_955_6" x1="241.741" y1="414.235" x2="241.741" y2="312.444" gradientUnits="userSpaceOnUse">
<stop stop-color="#CCCCFF"/>
<stop offset="1" stop-color="#755CBB"/>
</linearGradient>
<linearGradient id="paint12_linear_955_6" x1="253.594" y1="363.339" x2="253.594" y2="335.576" gradientUnits="userSpaceOnUse">
<stop stop-color="#CCCCFF"/>
<stop offset="1" stop-color="#755CBB"/>
</linearGradient>
<linearGradient id="paint13_linear_955_6" x1="221.435" y1="353.13" x2="221.435" y2="325.93" gradientUnits="userSpaceOnUse">
<stop stop-color="#CCCCFF"/>
<stop offset="1" stop-color="#755CBB"/>
</linearGradient>
<linearGradient id="paint14_linear_955_6" x1="249.022" y1="159.159" x2="249.022" y2="118.527" gradientUnits="userSpaceOnUse">
<stop stop-color="#D5CDF8"/>
<stop offset="1" stop-color="#F3EDFB"/>
</linearGradient>
<linearGradient id="paint15_linear_955_6" x1="228.104" y1="138.803" x2="269.939" y2="138.803" gradientUnits="userSpaceOnUse">
<stop stop-color="#CCCCFF"/>
<stop offset="1" stop-color="#755CBB"/>
</linearGradient>
<linearGradient id="paint16_linear_955_6" x1="237.058" y1="321.503" x2="237.058" y2="116.758" gradientUnits="userSpaceOnUse">
<stop stop-color="#9E8CEF"/>
<stop offset="1" stop-color="#CAAFEE"/>
</linearGradient>
<linearGradient id="paint17_linear_955_6" x1="152.094" y1="193.92" x2="201.957" y2="193.92" gradientUnits="userSpaceOnUse">
<stop stop-color="#CCCCFF"/>
<stop offset="1" stop-color="#755CBB"/>
</linearGradient>
<linearGradient id="paint18_linear_955_6" x1="150.546" y1="251.262" x2="150.546" y2="155.519" gradientUnits="userSpaceOnUse">
<stop stop-color="#9E8CEF"/>
<stop offset="1" stop-color="#DAC7F3"/>
</linearGradient>
<linearGradient id="paint19_linear_955_6" x1="315.186" y1="223.668" x2="379.432" y2="223.668" gradientUnits="userSpaceOnUse">
<stop stop-color="#A999F1"/>
<stop offset="1" stop-color="#DAC7F3"/>
</linearGradient>
<linearGradient id="paint20_linear_955_6" x1="129.651" y1="142.464" x2="129.651" y2="117.219" gradientUnits="userSpaceOnUse">
<stop offset="0.0159875" stop-color="#FFC2A9"/>
<stop offset="1" stop-color="#FF9595"/>
</linearGradient>
<linearGradient id="paint21_linear_955_6" x1="145.548" y1="141.866" x2="145.548" y2="100.078" gradientUnits="userSpaceOnUse">
<stop stop-color="#FFEADB"/>
<stop offset="0.9944" stop-color="#C27CB6"/>
</linearGradient>
<linearGradient id="paint22_linear_955_6" x1="144.192" y1="170.295" x2="144.192" y2="105.873" gradientUnits="userSpaceOnUse">
<stop offset="0.0159875" stop-color="#FFC2A9"/>
<stop offset="1" stop-color="#FF9595"/>
</linearGradient>
<linearGradient id="paint23_linear_955_6" x1="132.67" y1="160.242" x2="152.925" y2="160.242" gradientUnits="userSpaceOnUse">
<stop offset="0.0159875" stop-color="#D1A1D6"/>
<stop offset="0.9944" stop-color="#BD89C4"/>
</linearGradient>
<linearGradient id="paint24_linear_955_6" x1="380.761" y1="209.535" x2="380.761" y2="123.386" gradientUnits="userSpaceOnUse">
<stop offset="0.0159875" stop-color="#FFC2A9"/>
<stop offset="1" stop-color="#FF9595"/>
</linearGradient>
<linearGradient id="paint25_linear_955_6" x1="390.94" y1="181.933" x2="390.94" y2="139.134" gradientUnits="userSpaceOnUse">
<stop stop-color="#FFEADB"/>
<stop offset="0.9944" stop-color="#C27CB6"/>
</linearGradient>
<linearGradient id="paint26_linear_955_6" x1="399.383" y1="167.161" x2="399.383" y2="147.975" gradientUnits="userSpaceOnUse">
<stop stop-color="#FFB0B0"/>
<stop offset="0.984" stop-color="#FFC2A9"/>
</linearGradient>
<linearGradient id="paint27_linear_955_6" x1="410.507" y1="170.115" x2="410.507" y2="159.594" gradientUnits="userSpaceOnUse">
<stop stop-color="#FFB0B0"/>
<stop offset="0.984" stop-color="#FFC2A9"/>
</linearGradient>
<linearGradient id="paint28_linear_955_6" x1="365.507" y1="191.086" x2="385.076" y2="191.086" gradientUnits="userSpaceOnUse">
<stop offset="0.0159875" stop-color="#D1A1D6"/>
<stop offset="0.9944" stop-color="#BD89C4"/>
</linearGradient>
<linearGradient id="paint29_linear_955_6" x1="338.278" y1="258.623" x2="338.278" y2="162.194" gradientUnits="userSpaceOnUse">
<stop stop-color="#CCCCFF"/>
<stop offset="1" stop-color="#755CBB"/>
</linearGradient>
<linearGradient id="paint30_linear_955_6" x1="125.958" y1="239.195" x2="287.242" y2="239.195" gradientUnits="userSpaceOnUse">
<stop stop-color="#CCCCFF"/>
<stop offset="1" stop-color="#755CBB"/>
</linearGradient>
<linearGradient id="paint31_linear_955_6" x1="268.151" y1="212.207" x2="298.979" y2="212.207" gradientUnits="userSpaceOnUse">
<stop stop-color="#CCEDFF"/>
<stop offset="1" stop-color="#755CBB"/>
</linearGradient>
<linearGradient id="paint32_linear_955_6" x1="240.191" y1="266.31" x2="285.497" y2="266.31" gradientUnits="userSpaceOnUse">
<stop stop-color="#CCEDFF"/>
<stop offset="1" stop-color="#755CBB"/>
</linearGradient>
<linearGradient id="paint33_linear_955_6" x1="242.287" y1="286.796" x2="290.691" y2="286.796" gradientUnits="userSpaceOnUse">
<stop stop-color="#CCEDFF"/>
<stop offset="1" stop-color="#755CBB"/>
</linearGradient>
<linearGradient id="paint34_linear_955_6" x1="200.631" y1="236.075" x2="200.631" y2="181.751" gradientUnits="userSpaceOnUse">
<stop stop-color="#CCEDFF"/>
<stop offset="1" stop-color="#755CBB"/>
</linearGradient>
<linearGradient id="paint35_linear_955_6" x1="205.004" y1="240.642" x2="205.004" y2="199.462" gradientUnits="userSpaceOnUse">
<stop stop-color="#CCEDFF"/>
<stop offset="1" stop-color="#755CBB"/>
</linearGradient>
<linearGradient id="paint36_linear_955_6" x1="139.92" y1="188.001" x2="139.92" y2="156.888" gradientUnits="userSpaceOnUse">
<stop stop-color="#CCEDFF"/>
<stop offset="1" stop-color="#755CBB"/>
</linearGradient>
<linearGradient id="paint37_linear_955_6" x1="165.102" y1="160.602" x2="177.641" y2="160.602" gradientUnits="userSpaceOnUse">
<stop stop-color="#CCEDFF"/>
<stop offset="1" stop-color="#755CBB"/>
</linearGradient>
<linearGradient id="paint38_linear_955_6" x1="301.405" y1="236.075" x2="301.405" y2="178.408" gradientUnits="userSpaceOnUse">
<stop stop-color="#CCCCFF"/>
<stop offset="1" stop-color="#755CBB"/>
</linearGradient>
<linearGradient id="paint39_linear_955_6" x1="366.234" y1="223.672" x2="366.234" y2="193.538" gradientUnits="userSpaceOnUse">
<stop stop-color="#CCCCFF"/>
<stop offset="1" stop-color="#755CBB"/>
</linearGradient>
<linearGradient id="paint40_linear_955_6" x1="332.062" y1="222.326" x2="332.062" y2="199.288" gradientUnits="userSpaceOnUse">
<stop stop-color="#CCCCFF"/>
<stop offset="1" stop-color="#755CBB"/>
</linearGradient>
<linearGradient id="paint41_linear_955_6" x1="133.409" y1="189.987" x2="133.409" y2="181.431" gradientUnits="userSpaceOnUse">
<stop stop-color="#CCEDFF"/>
<stop offset="1" stop-color="#755CBB"/>
</linearGradient>
<linearGradient id="paint42_linear_955_6" x1="156.261" y1="216.069" x2="156.261" y2="169.314" gradientUnits="userSpaceOnUse">
<stop stop-color="#CCCCFF"/>
<stop offset="1" stop-color="#755CBB"/>
</linearGradient>
<linearGradient id="paint43_linear_955_6" x1="276.552" y1="183.159" x2="276.552" y2="147.974" gradientUnits="userSpaceOnUse">
<stop stop-color="#CCEDFF"/>
<stop offset="1" stop-color="#755CBB"/>
</linearGradient>
<linearGradient id="paint44_linear_955_6" x1="230.462" y1="178.403" x2="230.462" y2="129.841" gradientUnits="userSpaceOnUse">
<stop stop-color="#CCEDFF"/>
<stop offset="1" stop-color="#755CBB"/>
</linearGradient>
<linearGradient id="paint45_linear_955_6" x1="214.06" y1="187.285" x2="295.169" y2="187.285" gradientUnits="userSpaceOnUse">
<stop stop-color="#8642A0"/>
<stop offset="1" stop-color="#6456C0"/>
</linearGradient>
<linearGradient id="paint46_linear_955_6" x1="221.054" y1="140.48" x2="273.838" y2="140.48" gradientUnits="userSpaceOnUse">
<stop stop-color="#CCCCFF"/>
<stop offset="1" stop-color="#755CBB"/>
</linearGradient>
<linearGradient id="paint47_linear_955_6" x1="356.745" y1="220.236" x2="356.745" y2="189.689" gradientUnits="userSpaceOnUse">
<stop stop-color="#CCCCFF"/>
<stop offset="1" stop-color="#755CBB"/>
</linearGradient>
<linearGradient id="paint48_linear_955_6" x1="313.566" y1="254.697" x2="313.566" y2="162.194" gradientUnits="userSpaceOnUse">
<stop stop-color="#CCCCFF"/>
<stop offset="1" stop-color="#755CBB"/>
</linearGradient>
<linearGradient id="paint49_linear_955_6" x1="214.12" y1="298.147" x2="214.12" y2="271.629" gradientUnits="userSpaceOnUse">
<stop stop-color="#CCCCFF"/>
<stop offset="1" stop-color="#755CBB"/>
</linearGradient>
<linearGradient id="paint50_linear_955_6" x1="265.627" y1="290.863" x2="265.627" y2="277.985" gradientUnits="userSpaceOnUse">
<stop stop-color="#CCCCFF"/>
<stop offset="1" stop-color="#755CBB"/>
</linearGradient>
<linearGradient id="paint51_linear_955_6" x1="265.069" y1="125.341" x2="265.069" y2="37.2456" gradientUnits="userSpaceOnUse">
<stop offset="0.0159875" stop-color="#FFC2A9"/>
<stop offset="1" stop-color="#FF9595"/>
</linearGradient>
<linearGradient id="paint52_linear_955_6" x1="232.224" y1="89.7925" x2="232.224" y2="63.8199" gradientUnits="userSpaceOnUse">
<stop offset="0.0159875" stop-color="#FFC2A9"/>
<stop offset="1" stop-color="#FF9595"/>
</linearGradient>
<linearGradient id="paint53_linear_955_6" x1="277.308" y1="99.6144" x2="278.397" y2="93.9444" gradientUnits="userSpaceOnUse">
<stop stop-color="#E1616A"/>
<stop offset="1" stop-color="#FF8883"/>
</linearGradient>
<linearGradient id="paint54_linear_955_6" x1="267.481" y1="95.2761" x2="267.481" y2="38.5251" gradientUnits="userSpaceOnUse">
<stop stop-color="#FFEADB"/>
<stop offset="0.9944" stop-color="#C27CB6"/>
</linearGradient>
<linearGradient id="paint55_linear_955_6" x1="264.713" y1="72.0352" x2="264.713" y2="60.7932" gradientUnits="userSpaceOnUse">
<stop stop-color="#CF6074"/>
<stop offset="1" stop-color="#F37270"/>
</linearGradient>
<linearGradient id="paint56_linear_955_6" x1="287.14" y1="75.6025" x2="287.14" y2="65.8197" gradientUnits="userSpaceOnUse">
<stop stop-color="#CF6074"/>
<stop offset="1" stop-color="#FF817F"/>
</linearGradient>
<linearGradient id="paint57_linear_955_6" x1="288.062" y1="81.295" x2="288.062" y2="59.2808" gradientUnits="userSpaceOnUse">
<stop stop-color="#FFEADB"/>
<stop offset="0.9944" stop-color="#C27CB6"/>
</linearGradient>
<linearGradient id="paint58_linear_955_6" x1="266.245" y1="126.449" x2="266.245" y2="19.6111" gradientUnits="userSpaceOnUse">
<stop stop-color="#2E33A0"/>
<stop offset="1" stop-color="#0665A5"/>
</linearGradient>
<linearGradient id="paint59_linear_955_6" x1="294.309" y1="59.1705" x2="294.309" y2="34.5243" gradientUnits="userSpaceOnUse">
<stop stop-color="#FFEADB"/>
<stop offset="0.9944" stop-color="#8860C7"/>
</linearGradient>
<linearGradient id="paint60_linear_955_6" x1="260.724" y1="126.449" x2="260.724" y2="19.6111" gradientUnits="userSpaceOnUse">
<stop stop-color="#CCC2DB"/>
<stop offset="0.9944" stop-color="#8860C7"/>
</linearGradient>
<linearGradient id="paint61_linear_955_6" x1="267.884" y1="126.423" x2="267.884" y2="121.833" gradientUnits="userSpaceOnUse">
<stop stop-color="#776D7E"/>
<stop offset="1" stop-color="#9D68C2"/>
</linearGradient>
<linearGradient id="paint62_linear_955_6" x1="281.353" y1="27.2788" x2="281.353" y2="23.8686" gradientUnits="userSpaceOnUse">
<stop stop-color="#1F77D1"/>
<stop offset="1" stop-color="#0686C9"/>
</linearGradient>
<linearGradient id="paint63_linear_955_6" x1="259.628" y1="38.5065" x2="259.628" y2="28.4237" gradientUnits="userSpaceOnUse">
<stop stop-color="#1F77D1"/>
<stop offset="1" stop-color="#0686C9"/>
</linearGradient>
<linearGradient id="paint64_linear_955_6" x1="296.165" y1="43.6183" x2="296.165" y2="34.5243" gradientUnits="userSpaceOnUse">
<stop stop-color="#1F77D1"/>
<stop offset="1" stop-color="#0686C9"/>
</linearGradient>
<linearGradient id="paint65_linear_955_6" x1="236.005" y1="83.6367" x2="224.371" y2="69.3841" gradientUnits="userSpaceOnUse">
<stop stop-color="#FFEADB"/>
<stop offset="0.9944" stop-color="#B060F4"/>
</linearGradient>
<linearGradient id="paint66_linear_955_6" x1="237.229" y1="81.8008" x2="231.505" y2="74.788" gradientUnits="userSpaceOnUse">
<stop stop-color="#FFEADB"/>
<stop offset="0.9944" stop-color="#B060F4"/>
</linearGradient>
<linearGradient id="paint67_linear_955_6" x1="258.952" y1="39.4084" x2="278.654" y2="39.4084" gradientUnits="userSpaceOnUse">
<stop stop-color="#1F77D1"/>
<stop offset="1" stop-color="#0686C9"/>
</linearGradient>
<linearGradient id="paint68_linear_955_6" x1="286.743" y1="98.329" x2="292.719" y2="98.329" gradientUnits="userSpaceOnUse">
<stop stop-color="#1F77D1"/>
<stop offset="1" stop-color="#0686C9"/>
</linearGradient>
<linearGradient id="paint69_linear_955_6" x1="279.36" y1="93.8856" x2="285.806" y2="93.8856" gradientUnits="userSpaceOnUse">
<stop stop-color="#1F77D1"/>
<stop offset="1" stop-color="#0686C9"/>
</linearGradient>
<linearGradient id="paint70_linear_955_6" x1="326.906" y1="109.52" x2="528.934" y2="109.52" gradientUnits="userSpaceOnUse">
<stop stop-color="#9D68C2"/>
<stop offset="1" stop-color="#AEC2FF"/>
</linearGradient>
<linearGradient id="paint71_linear_955_6" x1="368" y1="185.824" x2="368" y2="124.891" gradientUnits="userSpaceOnUse">
<stop stop-color="#CCEDFF"/>
<stop offset="1" stop-color="#9D68C2"/>
</linearGradient>
<linearGradient id="paint72_linear_955_6" x1="471.906" y1="156.116" x2="471.906" y2="129.276" gradientUnits="userSpaceOnUse">
<stop stop-color="#CCEDFF"/>
<stop offset="1" stop-color="#9D68C2"/>
</linearGradient>
<linearGradient id="paint73_linear_955_6" x1="503.571" y1="156.116" x2="503.571" y2="129.276" gradientUnits="userSpaceOnUse">
<stop stop-color="#CCEDFF"/>
<stop offset="1" stop-color="#9D68C2"/>
</linearGradient>
<linearGradient id="paint74_linear_955_6" x1="439.706" y1="156.116" x2="439.706" y2="129.276" gradientUnits="userSpaceOnUse">
<stop stop-color="#CCEDFF"/>
<stop offset="1" stop-color="#9D68C2"/>
</linearGradient>
<linearGradient id="paint75_linear_955_6" x1="151.042" y1="90.1692" x2="151.042" y2="62.0749" gradientUnits="userSpaceOnUse">
<stop stop-color="#D93DE3"/>
<stop offset="1" stop-color="#FF6DBA"/>
</linearGradient>
<linearGradient id="paint76_linear_955_6" x1="168.217" y1="90.1692" x2="168.217" y2="62.0749" gradientUnits="userSpaceOnUse">
<stop stop-color="#A242EA"/>
<stop offset="1" stop-color="#FE117E"/>
</linearGradient>
<linearGradient id="paint77_linear_955_6" x1="146.17" y1="386.131" x2="161.363" y2="265.167" gradientUnits="userSpaceOnUse">
<stop stop-color="#067EFF"/>
<stop offset="1" stop-color="#3E37A0"/>
</linearGradient>
<linearGradient id="paint78_linear_955_6" x1="500.859" y1="87.1123" x2="500.859" y2="76.9147" gradientUnits="userSpaceOnUse">
<stop stop-color="#459FFF"/>
<stop offset="1" stop-color="#A96DFF"/>
</linearGradient>
<linearGradient id="paint79_linear_955_6" x1="21.6292" y1="206.612" x2="21.6292" y2="193.92" gradientUnits="userSpaceOnUse">
<stop stop-color="#459FFF"/>
<stop offset="1" stop-color="#A96DFF"/>
</linearGradient>
<linearGradient id="paint80_linear_955_6" x1="515.836" y1="87.1123" x2="515.836" y2="76.9147" gradientUnits="userSpaceOnUse">
<stop stop-color="#B31A8F"/>
<stop offset="1" stop-color="#FE117E"/>
</linearGradient>
<linearGradient id="paint81_linear_955_6" x1="187.018" y1="120.678" x2="187.018" y2="113.467" gradientUnits="userSpaceOnUse">
<stop stop-color="#B31A8F"/>
<stop offset="1" stop-color="#FE117E"/>
</linearGradient>
<linearGradient id="paint82_linear_955_6" x1="428.524" y1="279.78" x2="428.524" y2="272.569" gradientUnits="userSpaceOnUse">
<stop stop-color="#8642A0"/>
<stop offset="1" stop-color="#6456C0"/>
</linearGradient>
<linearGradient id="paint83_linear_955_6" x1="53.6723" y1="315.345" x2="53.6723" y2="308.899" gradientUnits="userSpaceOnUse">
<stop stop-color="#8642A0"/>
<stop offset="1" stop-color="#6456C0"/>
</linearGradient>
<linearGradient id="paint84_linear_955_6" x1="80.7266" y1="280.474" x2="80.7266" y2="227.231" gradientUnits="userSpaceOnUse">
<stop stop-color="#D906E3"/>
<stop offset="1" stop-color="#FF6DF9"/>
</linearGradient>
<linearGradient id="paint85_linear_955_6" x1="448.351" y1="355.839" x2="448.351" y2="289.232" gradientUnits="userSpaceOnUse">
<stop stop-color="#D906E3"/>
<stop offset="1" stop-color="#FF6DF9"/>
</linearGradient>
<linearGradient id="paint86_linear_955_6" x1="361.931" y1="318.593" x2="369.116" y2="270.082" gradientUnits="userSpaceOnUse">
<stop stop-color="#1852A0"/>
<stop offset="1" stop-color="#067ED3"/>
</linearGradient>
<linearGradient id="paint87_linear_955_6" x1="356.569" y1="317.341" x2="369.546" y2="269.144" gradientUnits="userSpaceOnUse">
<stop stop-color="#1852A0"/>
<stop offset="1" stop-color="#067ED3"/>
</linearGradient>
<linearGradient id="paint88_linear_955_6" x1="350.476" y1="315.353" x2="358.137" y2="266.521" gradientUnits="userSpaceOnUse">
<stop stop-color="#188DC1"/>
<stop offset="1" stop-color="#06BFE7"/>
</linearGradient>
<linearGradient id="paint89_linear_955_6" x1="395.998" y1="58.3461" x2="408.928" y2="10.328" gradientUnits="userSpaceOnUse">
<stop stop-color="#188DC1"/>
<stop offset="1" stop-color="#06BFE7"/>
</linearGradient>
<linearGradient id="paint90_linear_955_6" x1="373.773" y1="52.8066" x2="383.415" y2="16.9986" gradientUnits="userSpaceOnUse">
<stop stop-color="#1852A0"/>
<stop offset="1" stop-color="#067ED3"/>
</linearGradient>
<linearGradient id="paint91_linear_955_6" x1="22.1759" y1="141.04" x2="13.3615" y2="108.305" gradientUnits="userSpaceOnUse">
<stop stop-color="#188DC1"/>
<stop offset="1" stop-color="#06BFE7"/>
</linearGradient>
<linearGradient id="paint92_linear_955_6" x1="37.3261" y1="137.264" x2="30.7531" y2="112.852" gradientUnits="userSpaceOnUse">
<stop stop-color="#1852A0"/>
<stop offset="1" stop-color="#067ED3"/>
</linearGradient>
</defs>
</svg>
