<svg width="1226" height="124" viewBox="0 0 1226 124" fill="none" xmlns="http://www.w3.org/2000/svg">
<g filter="url(#filter0_d_955_90)">
<rect x="24" y="1" width="365" height="47" fill="white" shape-rendering="crispEdges"/>
<rect x="23.7658" y="0.765849" width="365.468" height="47.4683" stroke="black" stroke-opacity="0.2" stroke-width="0.468302" shape-rendering="crispEdges"/>
</g>
<path d="M133.725 19.164H137.073V30H139.125V19.164H142.455V17.49H133.725V19.164ZM148.71 21.648C150.24 21.648 151.446 22.62 151.482 24.15H145.992C146.208 22.584 147.324 21.648 148.71 21.648ZM153.354 27.048H151.14C150.762 27.822 150.06 28.434 148.8 28.434C147.288 28.434 146.118 27.444 145.974 25.806H153.552C153.606 25.464 153.624 25.14 153.624 24.798C153.624 21.882 151.626 19.92 148.8 19.92C145.866 19.92 143.85 21.918 143.85 25.032C143.85 28.146 145.956 30.162 148.8 30.162C151.23 30.162 152.796 28.776 153.354 27.048ZM154.959 25.032C154.959 28.146 156.975 30.162 159.819 30.162C162.249 30.162 163.833 28.812 164.391 26.868H162.177C161.799 27.894 161.043 28.434 159.819 28.434C158.163 28.434 157.065 27.21 157.065 25.032C157.065 22.872 158.163 21.648 159.819 21.648C161.043 21.648 161.835 22.26 162.177 23.214H164.391C163.833 21.126 162.249 19.92 159.819 19.92C156.975 19.92 154.959 21.936 154.959 25.032ZM166.436 30H168.488V24.456C168.488 22.638 169.478 21.702 170.99 21.702C172.484 21.702 173.474 22.638 173.474 24.456V30H175.508V24.15C175.508 21.378 173.78 19.92 171.566 19.92C170.288 19.92 169.172 20.406 168.488 21.234V16.68H166.436V30ZM185.163 30H187.197V24.15C187.197 21.378 185.451 19.92 183.129 19.92C181.941 19.92 180.843 20.406 180.177 21.216V20.082H178.125V30H180.177V24.456C180.177 22.638 181.167 21.702 182.679 21.702C184.173 21.702 185.163 22.638 185.163 24.456V30ZM189.815 30H191.867V20.082H189.815V30ZM190.859 18.768C191.579 18.768 192.155 18.192 192.155 17.454C192.155 16.716 191.579 16.14 190.859 16.14C190.121 16.14 189.545 16.716 189.545 17.454C189.545 18.192 190.121 18.768 190.859 18.768ZM193.877 25.032C193.877 28.146 195.893 30.162 198.737 30.162C201.167 30.162 202.751 28.812 203.309 26.868H201.095C200.717 27.894 199.961 28.434 198.737 28.434C197.081 28.434 195.983 27.21 195.983 25.032C195.983 22.872 197.081 21.648 198.737 21.648C199.961 21.648 200.753 22.26 201.095 23.214H203.309C202.751 21.126 201.167 19.92 198.737 19.92C195.893 19.92 193.877 21.936 193.877 25.032ZM204.67 24.996C204.67 28.056 206.74 30.162 209.314 30.162C210.97 30.162 212.158 29.37 212.788 28.524V30H214.858V20.082H212.788V21.522C212.176 20.712 211.024 19.92 209.35 19.92C206.74 19.92 204.67 21.936 204.67 24.996ZM212.788 25.032C212.788 27.174 211.33 28.38 209.782 28.38C208.252 28.38 206.776 27.138 206.776 24.996C206.776 22.854 208.252 21.702 209.782 21.702C211.33 21.702 212.788 22.908 212.788 25.032ZM217.553 30H219.605V16.68H217.553V30ZM229.513 30.018L231.817 30L234.607 20.532L237.235 30H239.557L243.265 17.49H241.069L238.459 27.624L235.849 17.49H233.545L230.737 27.678L228.145 17.49H225.967L229.513 30.018ZM247.009 24.78C247.009 22.674 247.945 22.044 249.457 22.044H249.979V19.92C248.575 19.92 247.585 20.532 247.009 21.522V20.082H244.957V30H247.009V24.78ZM251.866 30H253.918V20.082H251.866V30ZM252.91 18.768C253.63 18.768 254.206 18.192 254.206 17.454C254.206 16.716 253.63 16.14 252.91 16.14C252.172 16.14 251.596 16.716 251.596 17.454C251.596 18.192 252.172 18.768 252.91 18.768ZM256.936 27.246C256.936 29.262 258.034 30 259.798 30H261.418V28.29H260.158C259.294 28.29 259.006 27.984 259.006 27.246V21.756H261.418V20.082H259.006V17.616H256.936V20.082H255.766V21.756H256.936V27.246ZM267.485 21.648C269.015 21.648 270.221 22.62 270.257 24.15H264.767C264.983 22.584 266.099 21.648 267.485 21.648ZM272.129 27.048H269.915C269.537 27.822 268.835 28.434 267.575 28.434C266.063 28.434 264.893 27.444 264.749 25.806H272.327C272.381 25.464 272.399 25.14 272.399 24.798C272.399 21.882 270.401 19.92 267.575 19.92C264.641 19.92 262.625 21.918 262.625 25.032C262.625 28.146 264.731 30.162 267.575 30.162C270.005 30.162 271.571 28.776 272.129 27.048ZM276.47 24.78C276.47 22.674 277.406 22.044 278.918 22.044H279.44V19.92C278.036 19.92 277.046 20.532 276.47 21.522V20.082H274.418V30H276.47V24.78Z" fill="#212832"/>
<path d="M389 1H387V48H389V1Z" fill="#946FB0" stroke="#946FB0" stroke-width="0.936604"/>
<circle cx="24.4151" cy="24.4151" r="23.4151" fill="#946FB0" stroke="#946FB0"/>
<path d="M16.3494 23.9942C16.3494 27.9654 17.3983 30.9625 21.2197 30.9625C25.041 30.9625 26.09 27.9654 26.09 23.9942C26.09 20.0979 25.041 17.1008 21.2197 17.1008C17.3983 17.1008 16.3494 20.0979 16.3494 23.9942ZM23.992 23.9942C23.992 26.6729 23.7111 29.0144 21.2197 29.0144C18.7283 29.0144 18.4473 26.6729 18.4473 23.9942C18.4473 21.4466 18.7283 19.0489 21.2197 19.0489C23.7111 19.0489 23.992 21.4466 23.992 23.9942ZM29.8107 31H31.9649V17.3443H28.0686V19.2925H29.8107V31Z" fill="#212832"/>
<g filter="url(#filter1_d_955_90)">
<rect x="24" y="76" width="365" height="47" fill="white" shape-rendering="crispEdges"/>
<rect x="23.7658" y="75.7658" width="365.468" height="47.4683" stroke="black" stroke-opacity="0.2" stroke-width="0.468302" shape-rendering="crispEdges"/>
</g>
<path d="M157.567 106H159.619V93.49H157.567V106ZM161.665 95.164H165.013V106H167.065V95.164H170.395V93.49H161.665V95.164ZM185.591 106H187.751L183.269 93.472H180.893L176.411 106H178.553L179.453 103.444H184.691L185.591 106ZM184.115 101.77H180.029L182.081 95.956L184.115 101.77ZM191.752 100.78C191.752 98.674 192.688 98.044 194.2 98.044H194.722V95.92C193.318 95.92 192.328 96.532 191.752 97.522V96.082H189.7V106H191.752V100.78ZM195.924 101.032C195.924 104.146 197.94 106.162 200.784 106.162C203.214 106.162 204.798 104.812 205.356 102.868H203.142C202.764 103.894 202.008 104.434 200.784 104.434C199.128 104.434 198.03 103.21 198.03 101.032C198.03 98.872 199.128 97.648 200.784 97.648C202.008 97.648 202.8 98.26 203.142 99.214H205.356C204.798 97.126 203.214 95.92 200.784 95.92C197.94 95.92 195.924 97.936 195.924 101.032ZM207.401 106H209.453V100.456C209.453 98.638 210.443 97.702 211.955 97.702C213.449 97.702 214.439 98.638 214.439 100.456V106H216.473V100.15C216.473 97.378 214.745 95.92 212.531 95.92C211.253 95.92 210.137 96.406 209.453 97.234V92.68H207.401V106ZM219.09 106H221.142V96.082H219.09V106ZM220.134 94.768C220.854 94.768 221.43 94.192 221.43 93.454C221.43 92.716 220.854 92.14 220.134 92.14C219.396 92.14 218.82 92.716 218.82 93.454C218.82 94.192 219.396 94.768 220.134 94.768ZM224.16 103.246C224.16 105.262 225.258 106 227.022 106H228.642V104.29H227.382C226.518 104.29 226.23 103.984 226.23 103.246V97.756H228.642V96.082H226.23V93.616H224.16V96.082H222.99V97.756H224.16V103.246ZM234.71 97.648C236.24 97.648 237.446 98.62 237.482 100.15H231.992C232.208 98.584 233.324 97.648 234.71 97.648ZM239.354 103.048H237.14C236.762 103.822 236.06 104.434 234.8 104.434C233.288 104.434 232.118 103.444 231.974 101.806H239.552C239.606 101.464 239.624 101.14 239.624 100.798C239.624 97.882 237.626 95.92 234.8 95.92C231.866 95.92 229.85 97.918 229.85 101.032C229.85 104.146 231.956 106.162 234.8 106.162C237.23 106.162 238.796 104.776 239.354 103.048ZM240.959 101.032C240.959 104.146 242.975 106.162 245.819 106.162C248.249 106.162 249.833 104.812 250.391 102.868H248.177C247.799 103.894 247.043 104.434 245.819 104.434C244.163 104.434 243.065 103.21 243.065 101.032C243.065 98.872 244.163 97.648 245.819 97.648C247.043 97.648 247.835 98.26 248.177 99.214H250.391C249.833 97.126 248.249 95.92 245.819 95.92C242.975 95.92 240.959 97.936 240.959 101.032ZM252.76 103.246C252.76 105.262 253.858 106 255.622 106H257.242V104.29H255.982C255.118 104.29 254.83 103.984 254.83 103.246V97.756H257.242V96.082H254.83V93.616H252.76V96.082H251.59V97.756H252.76V103.246Z" fill="#212832"/>
<path d="M389 76H387V123H389V76Z" fill="#CF1C54" stroke="#CF1C54" stroke-width="0.936604"/>
<circle cx="24.4151" cy="99.4151" r="23.4151" fill="#E9336C" stroke="#E9336C"/>
<path d="M13.4777 99.6055C13.4777 103.577 14.5267 106.574 18.348 106.574C22.1694 106.574 23.2184 103.577 23.2184 99.6055C23.2184 95.7093 22.1694 92.7121 18.348 92.7121C14.5267 92.7121 13.4777 95.7093 13.4777 99.6055ZM21.1204 99.6055C21.1204 102.284 20.8394 104.626 18.348 104.626C15.8567 104.626 15.5757 102.284 15.5757 99.6055C15.5757 97.058 15.8567 94.6603 18.348 94.6603C20.8394 94.6603 21.1204 97.058 21.1204 99.6055ZM31.9967 106.611H34.0947V103.764H35.8368V101.91H34.0947V93.1242H31.5097L25.2157 102.153V103.764H31.9967V106.611ZM27.6696 101.91L32.0904 95.2972V101.91H27.6696Z" fill="#212832"/>
<g filter="url(#filter2_d_955_90)">
<rect x="437" y="1" width="365" height="47" fill="white" shape-rendering="crispEdges"/>
<rect x="436.766" y="0.765849" width="365.468" height="47.4683" stroke="black" stroke-opacity="0.2" stroke-width="0.468302" shape-rendering="crispEdges"/>
</g>
<path d="M802 1H800V48H802V1Z" fill="#A9CF54" stroke="#A9CF54" stroke-width="0.936604"/>
<path d="M549.818 23.718C549.818 27.48 552.68 30.108 556.208 30.108C558.818 30.108 561.068 28.812 562.022 26.364H559.556C558.89 27.696 557.702 28.326 556.208 28.326C553.724 28.326 551.924 26.544 551.924 23.718C551.924 20.892 553.724 19.128 556.208 19.128C557.702 19.128 558.89 19.758 559.556 21.09H562.022C561.068 18.642 558.818 17.328 556.208 17.328C552.68 17.328 549.818 19.974 549.818 23.718ZM564.424 30H566.476V16.68H564.424V30ZM578.62 25.032C578.62 21.918 576.388 19.92 573.562 19.92C570.736 19.92 568.504 21.918 568.504 25.032C568.504 28.146 570.646 30.162 573.472 30.162C576.316 30.162 578.62 28.146 578.62 25.032ZM570.592 25.032C570.592 22.782 571.978 21.702 573.526 21.702C575.056 21.702 576.514 22.782 576.514 25.032C576.514 27.282 575.002 28.38 573.472 28.38C571.924 28.38 570.592 27.282 570.592 25.032ZM589.631 20.082H587.579V25.608C587.579 27.426 586.589 28.362 585.077 28.362C583.583 28.362 582.593 27.426 582.593 25.608V20.082H580.559V25.914C580.559 28.686 582.323 30.144 584.645 30.144C585.815 30.144 586.931 29.658 587.579 28.812V30H589.631V20.082ZM591.654 24.996C591.654 28.056 593.724 30.162 596.334 30.162C597.954 30.162 599.142 29.406 599.772 28.506V30H601.842V16.68H599.772V21.468C599.016 20.532 597.648 19.92 596.352 19.92C593.724 19.92 591.654 21.936 591.654 24.996ZM599.772 25.032C599.772 27.174 598.314 28.38 596.766 28.38C595.236 28.38 593.76 27.138 593.76 24.996C593.76 22.854 595.236 21.702 596.766 21.702C598.314 21.702 599.772 22.908 599.772 25.032ZM617.655 30H619.815L615.333 17.472H612.957L608.475 30H610.617L611.517 27.444H616.755L617.655 30ZM616.179 25.77H612.093L614.145 19.956L616.179 25.77ZM623.816 24.78C623.816 22.674 624.752 22.044 626.264 22.044H626.786V19.92C625.382 19.92 624.392 20.532 623.816 21.522V20.082H621.764V30H623.816V24.78ZM627.988 25.032C627.988 28.146 630.004 30.162 632.848 30.162C635.278 30.162 636.862 28.812 637.42 26.868H635.206C634.828 27.894 634.072 28.434 632.848 28.434C631.192 28.434 630.094 27.21 630.094 25.032C630.094 22.872 631.192 21.648 632.848 21.648C634.072 21.648 634.864 22.26 635.206 23.214H637.42C636.862 21.126 635.278 19.92 632.848 19.92C630.004 19.92 627.988 21.936 627.988 25.032ZM639.465 30H641.517V24.456C641.517 22.638 642.507 21.702 644.019 21.702C645.513 21.702 646.503 22.638 646.503 24.456V30H648.537V24.15C648.537 21.378 646.809 19.92 644.595 19.92C643.317 19.92 642.201 20.406 641.517 21.234V16.68H639.465V30ZM651.155 30H653.207V20.082H651.155V30ZM652.199 18.768C652.919 18.768 653.495 18.192 653.495 17.454C653.495 16.716 652.919 16.14 652.199 16.14C651.461 16.14 650.885 16.716 650.885 17.454C650.885 18.192 651.461 18.768 652.199 18.768ZM656.225 27.246C656.225 29.262 657.323 30 659.087 30H660.707V28.29H659.447C658.583 28.29 658.295 27.984 658.295 27.246V21.756H660.707V20.082H658.295V17.616H656.225V20.082H655.055V21.756H656.225V27.246ZM666.774 21.648C668.304 21.648 669.51 22.62 669.546 24.15H664.056C664.272 22.584 665.388 21.648 666.774 21.648ZM671.418 27.048H669.204C668.826 27.822 668.124 28.434 666.864 28.434C665.352 28.434 664.182 27.444 664.038 25.806H671.616C671.67 25.464 671.688 25.14 671.688 24.798C671.688 21.882 669.69 19.92 666.864 19.92C663.93 19.92 661.914 21.918 661.914 25.032C661.914 28.146 664.02 30.162 666.864 30.162C669.294 30.162 670.86 28.776 671.418 27.048ZM673.023 25.032C673.023 28.146 675.039 30.162 677.883 30.162C680.313 30.162 681.897 28.812 682.455 26.868H680.241C679.863 27.894 679.107 28.434 677.883 28.434C676.227 28.434 675.129 27.21 675.129 25.032C675.129 22.872 676.227 21.648 677.883 21.648C679.107 21.648 679.899 22.26 680.241 23.214H682.455C681.897 21.126 680.313 19.92 677.883 19.92C675.039 19.92 673.023 21.936 673.023 25.032ZM684.824 27.246C684.824 29.262 685.922 30 687.686 30H689.306V28.29H688.046C687.182 28.29 686.894 27.984 686.894 27.246V21.756H689.306V20.082H686.894V17.616H684.824V20.082H683.654V21.756H684.824V27.246Z" fill="#212832"/>
<circle cx="436.415" cy="24.4151" r="23.4151" fill="#A9CF54" stroke="#A9CF54"/>
<path d="M426.136 24.17C426.136 28.1412 427.185 31.1383 431.007 31.1383C434.828 31.1383 435.877 28.1412 435.877 24.17C435.877 20.2737 434.828 17.2766 431.007 17.2766C427.185 17.2766 426.136 20.2737 426.136 24.17ZM433.779 24.17C433.779 26.8487 433.498 29.1902 431.007 29.1902C428.515 29.1902 428.234 26.8487 428.234 24.17C428.234 21.6224 428.515 19.2247 431.007 19.2247C433.498 19.2247 433.779 21.6224 433.779 24.17ZM437.968 30.9885H447.072V29.2089H441.134C443.325 27.2046 446.697 24.6758 446.697 21.3602C446.697 18.9063 445.124 17.2391 442.351 17.2391C439.935 17.2391 438.024 18.6815 437.949 21.6412H440.01C440.066 20.1051 440.871 19.0561 442.37 19.0561C443.962 19.0561 444.58 20.0302 444.58 21.4538C444.58 24.1325 441.19 26.6052 437.968 29.4337V30.9885Z" fill="#212832"/>
<g filter="url(#filter3_d_955_90)">
<rect x="860" y="1" width="365" height="47" fill="white" shape-rendering="crispEdges"/>
<rect x="859.766" y="0.765849" width="365.468" height="47.4683" stroke="black" stroke-opacity="0.2" stroke-width="0.468302" shape-rendering="crispEdges"/>
</g>
<path d="M1225 1H1223V48H1225V1Z" fill="#3498DB" stroke="#3498DB" stroke-width="0.936604"/>
<path d="M985.191 17.49H981.105V30H985.191C989.205 30 991.833 27.642 991.833 23.79C991.833 19.92 989.205 17.49 985.191 17.49ZM983.157 28.326V19.164H985.191C988.143 19.164 989.727 20.928 989.727 23.79C989.727 26.634 988.143 28.326 985.191 28.326H983.157ZM993.183 24.996C993.183 28.056 995.253 30.162 997.827 30.162C999.483 30.162 1000.67 29.37 1001.3 28.524V30H1003.37V20.082H1001.3V21.522C1000.69 20.712 999.537 19.92 997.863 19.92C995.253 19.92 993.183 21.936 993.183 24.996ZM1001.3 25.032C1001.3 27.174 999.843 28.38 998.295 28.38C996.765 28.38 995.289 27.138 995.289 24.996C995.289 22.854 996.765 21.702 998.295 21.702C999.843 21.702 1001.3 22.908 1001.3 25.032ZM1006.39 27.246C1006.39 29.262 1007.49 30 1009.25 30H1010.87V28.29H1009.61C1008.75 28.29 1008.46 27.984 1008.46 27.246V21.756H1010.87V20.082H1008.46V17.616H1006.39V20.082H1005.22V21.756H1006.39V27.246ZM1012.08 24.996C1012.08 28.056 1014.15 30.162 1016.72 30.162C1018.38 30.162 1019.57 29.37 1020.2 28.524V30H1022.27V20.082H1020.2V21.522C1019.59 20.712 1018.43 19.92 1016.76 19.92C1014.15 19.92 1012.08 21.936 1012.08 24.996ZM1020.2 25.032C1020.2 27.174 1018.74 28.38 1017.19 28.38C1015.66 28.38 1014.19 27.138 1014.19 24.996C1014.19 22.854 1015.66 21.702 1017.19 21.702C1018.74 21.702 1020.2 22.908 1020.2 25.032ZM1038.08 26.454C1038.08 21.882 1031.46 23.646 1031.46 20.82C1031.46 19.614 1032.37 19.038 1033.56 19.074C1034.86 19.11 1035.6 19.884 1035.67 20.73H1037.94C1037.76 18.588 1036.06 17.328 1033.67 17.328C1031.11 17.328 1029.37 18.696 1029.37 20.892C1029.37 25.5 1036.01 23.538 1036.01 26.562C1036.01 27.624 1035.2 28.398 1033.76 28.398C1032.34 28.398 1031.62 27.57 1031.53 26.544H1029.33C1029.33 28.758 1031.26 30.126 1033.76 30.126C1036.55 30.126 1038.08 28.326 1038.08 26.454ZM1039.82 25.032C1039.82 28.146 1041.83 30.162 1044.68 30.162C1047.11 30.162 1048.69 28.812 1049.25 26.868H1047.04C1046.66 27.894 1045.9 28.434 1044.68 28.434C1043.02 28.434 1041.92 27.21 1041.92 25.032C1041.92 22.872 1043.02 21.648 1044.68 21.648C1045.9 21.648 1046.69 22.26 1047.04 23.214H1049.25C1048.69 21.126 1047.11 19.92 1044.68 19.92C1041.83 19.92 1039.82 21.936 1039.82 25.032ZM1051.29 30H1053.35V20.082H1051.29V30ZM1052.34 18.768C1053.06 18.768 1053.63 18.192 1053.63 17.454C1053.63 16.716 1053.06 16.14 1052.34 16.14C1051.6 16.14 1051.02 16.716 1051.02 17.454C1051.02 18.192 1051.6 18.768 1052.34 18.768ZM1060.22 21.648C1061.75 21.648 1062.95 22.62 1062.99 24.15H1057.5C1057.71 22.584 1058.83 21.648 1060.22 21.648ZM1064.86 27.048H1062.65C1062.27 27.822 1061.57 28.434 1060.31 28.434C1058.79 28.434 1057.62 27.444 1057.48 25.806H1065.06C1065.11 25.464 1065.13 25.14 1065.13 24.798C1065.13 21.882 1063.13 19.92 1060.31 19.92C1057.37 19.92 1055.36 21.918 1055.36 25.032C1055.36 28.146 1057.46 30.162 1060.31 30.162C1062.74 30.162 1064.3 28.776 1064.86 27.048ZM1074.19 30H1076.22V24.15C1076.22 21.378 1074.48 19.92 1072.15 19.92C1070.97 19.92 1069.87 20.406 1069.2 21.216V20.082H1067.15V30H1069.2V24.456C1069.2 22.638 1070.19 21.702 1071.7 21.702C1073.2 21.702 1074.19 22.638 1074.19 24.456V30ZM1079.16 27.246C1079.16 29.262 1080.26 30 1082.03 30H1083.65V28.29H1082.39C1081.52 28.29 1081.23 27.984 1081.23 27.246V21.756H1083.65V20.082H1081.23V17.616H1079.16V20.082H1077.99V21.756H1079.16V27.246ZM1085.54 30H1087.59V20.082H1085.54V30ZM1086.58 18.768C1087.3 18.768 1087.88 18.192 1087.88 17.454C1087.88 16.716 1087.3 16.14 1086.58 16.14C1085.84 16.14 1085.27 16.716 1085.27 17.454C1085.27 18.192 1085.84 18.768 1086.58 18.768ZM1097.68 27.228C1097.57 23.646 1091.97 24.762 1091.97 22.764C1091.97 22.098 1092.55 21.648 1093.65 21.648C1094.76 21.648 1095.43 22.242 1095.5 23.106H1097.55C1097.45 21.126 1095.97 19.92 1093.72 19.92C1091.38 19.92 1089.9 21.198 1089.9 22.782C1089.9 26.418 1095.66 25.302 1095.66 27.246C1095.66 27.93 1095.03 28.434 1093.85 28.434C1092.71 28.434 1091.94 27.768 1091.87 26.958H1089.74C1089.83 28.758 1091.51 30.162 1093.88 30.162C1096.22 30.162 1097.68 28.902 1097.68 27.228ZM1100.22 27.246C1100.22 29.262 1101.32 30 1103.08 30H1104.7V28.29H1103.44C1102.58 28.29 1102.29 27.984 1102.29 27.246V21.756H1104.7V20.082H1102.29V17.616H1100.22V20.082H1099.05V21.756H1100.22V27.246Z" fill="#212832"/>
<circle cx="856.415" cy="24.415" r="23.415" fill="#3498DB" stroke="#3498DB"/>
<path d="M845.548 24.9942C845.548 28.9654 846.597 31.9625 850.418 31.9625C854.24 31.9625 855.289 28.9654 855.289 24.9942C855.289 21.0979 854.24 18.1008 850.418 18.1008C846.597 18.1008 845.548 21.0979 845.548 24.9942ZM853.191 24.9942C853.191 27.6729 852.91 30.0144 850.418 30.0144C847.927 30.0144 847.646 27.6729 847.646 24.9942C847.646 22.4466 847.927 20.0489 850.418 20.0489C852.91 20.0489 853.191 22.4466 853.191 24.9942ZM857.511 21.7161H859.59C859.721 20.7608 860.414 19.8616 861.913 19.8616C863.374 19.8616 864.142 20.6484 864.142 21.8285C864.142 23.2896 862.962 23.8515 861.032 23.8703H860.527V25.6311H861.014C863.243 25.6311 864.404 26.2493 864.404 28.0475C864.404 29.3213 863.617 30.2954 862.025 30.2954C860.414 30.2954 859.478 29.3213 859.384 28.0475H857.323C857.454 30.7262 859.459 32.0749 862.044 32.0749C864.891 32.0749 866.427 30.4265 866.427 28.2536C866.427 26.3616 865.509 25.1815 864.086 24.7507V24.6758C865.153 24.3198 866.184 23.2147 866.184 21.585C866.184 19.5994 864.704 18.0259 861.988 18.0259C859.496 18.0259 857.661 19.3558 857.511 21.7161Z" fill="#212832"/>
<g filter="url(#filter4_d_955_90)">
<rect x="436" y="76" width="365" height="47" fill="white" shape-rendering="crispEdges"/>
<rect x="435.766" y="75.7658" width="365.468" height="47.4683" stroke="black" stroke-opacity="0.2" stroke-width="0.468302" shape-rendering="crispEdges"/>
</g>
<path d="M501.916 106.018L504.22 106L507.01 96.532L509.638 106H511.96L515.668 93.49H513.472L510.862 103.624L508.252 93.49H505.948L503.14 103.678L500.548 93.49H498.37L501.916 106.018ZM521.537 97.648C523.067 97.648 524.273 98.62 524.309 100.15H518.819C519.035 98.584 520.151 97.648 521.537 97.648ZM526.181 103.048H523.967C523.589 103.822 522.887 104.434 521.627 104.434C520.115 104.434 518.945 103.444 518.801 101.806H526.379C526.433 101.464 526.451 101.14 526.451 100.798C526.451 97.882 524.453 95.92 521.627 95.92C518.693 95.92 516.677 97.918 516.677 101.032C516.677 104.146 518.783 106.162 521.627 106.162C524.057 106.162 525.623 104.776 526.181 103.048ZM530.522 97.558V92.68H528.47V106H530.522V104.56C531.17 105.424 532.34 106.162 533.978 106.162C536.588 106.162 538.64 104.056 538.64 100.996C538.64 97.936 536.606 95.92 533.978 95.92C532.412 95.92 531.17 96.658 530.522 97.558ZM536.552 100.996C536.552 103.138 535.076 104.38 533.528 104.38C531.998 104.38 530.522 103.174 530.522 101.032C530.522 98.908 531.998 97.702 533.528 97.702C535.076 97.702 536.552 98.854 536.552 100.996ZM549.431 93.49H545.345V106H549.431C553.445 106 556.073 103.642 556.073 99.79C556.073 95.92 553.445 93.49 549.431 93.49ZM547.397 104.326V95.164H549.431C552.383 95.164 553.967 96.928 553.967 99.79C553.967 102.634 552.383 104.326 549.431 104.326H547.397ZM562.283 97.648C563.813 97.648 565.019 98.62 565.055 100.15H559.565C559.781 98.584 560.897 97.648 562.283 97.648ZM566.927 103.048H564.713C564.335 103.822 563.633 104.434 562.373 104.434C560.861 104.434 559.691 103.444 559.547 101.806H567.125C567.179 101.464 567.197 101.14 567.197 100.798C567.197 97.882 565.199 95.92 562.373 95.92C559.439 95.92 557.423 97.918 557.423 101.032C557.423 104.146 559.529 106.162 562.373 106.162C564.803 106.162 566.369 104.776 566.927 103.048ZM568.046 96.082L571.808 106H574.256L578.036 96.082H575.858L573.05 104.164L570.242 96.082H568.046ZM583.763 97.648C585.293 97.648 586.499 98.62 586.535 100.15H581.045C581.261 98.584 582.377 97.648 583.763 97.648ZM588.407 103.048H586.193C585.815 103.822 585.113 104.434 583.853 104.434C582.341 104.434 581.171 103.444 581.027 101.806H588.605C588.659 101.464 588.677 101.14 588.677 100.798C588.677 97.882 586.679 95.92 583.853 95.92C580.919 95.92 578.903 97.918 578.903 101.032C578.903 104.146 581.009 106.162 583.853 106.162C586.283 106.162 587.849 104.776 588.407 103.048ZM590.697 106H592.749V92.68H590.697V106ZM604.893 101.032C604.893 97.918 602.661 95.92 599.835 95.92C597.009 95.92 594.777 97.918 594.777 101.032C594.777 104.146 596.919 106.162 599.745 106.162C602.589 106.162 604.893 104.146 604.893 101.032ZM596.865 101.032C596.865 98.782 598.251 97.702 599.799 97.702C601.329 97.702 602.787 98.782 602.787 101.032C602.787 103.282 601.275 104.38 599.745 104.38C598.197 104.38 596.865 103.282 596.865 101.032ZM608.973 97.54V96.082H606.921V110.716H608.973V104.56C609.621 105.334 610.791 106.162 612.429 106.162C615.039 106.162 617.091 104.056 617.091 100.996C617.091 97.936 615.039 95.92 612.429 95.92C610.809 95.92 609.603 96.712 608.973 97.54ZM615.003 100.996C615.003 103.138 613.527 104.38 611.979 104.38C610.449 104.38 608.973 103.174 608.973 101.032C608.973 98.908 610.449 97.702 611.979 97.702C613.527 97.702 615.003 98.854 615.003 100.996ZM623.297 97.648C624.827 97.648 626.033 98.62 626.069 100.15H620.579C620.795 98.584 621.911 97.648 623.297 97.648ZM627.941 103.048H625.727C625.349 103.822 624.647 104.434 623.387 104.434C621.875 104.434 620.705 103.444 620.561 101.806H628.139C628.193 101.464 628.211 101.14 628.211 100.798C628.211 97.882 626.213 95.92 623.387 95.92C620.453 95.92 618.437 97.918 618.437 101.032C618.437 104.146 620.543 106.162 623.387 106.162C625.817 106.162 627.383 104.776 627.941 103.048ZM632.282 100.78C632.282 98.674 633.218 98.044 634.73 98.044H635.252V95.92C633.848 95.92 632.858 96.532 632.282 97.522V96.082H630.23V106H632.282V100.78ZM649.77 96.28C649.896 94.57 648.726 93.202 646.548 93.202C644.406 93.202 643.074 94.444 643.074 96.082C643.074 96.964 643.326 97.63 644.028 98.476C642.048 99.286 641.094 100.708 641.094 102.4C641.094 104.74 642.894 106.234 645.594 106.234C647.34 106.234 648.726 105.658 649.932 104.452L651.48 106H654.162L651.12 102.976C651.264 102.742 651.426 102.49 651.57 102.238L653.19 99.466H650.976L649.698 101.572L646.386 98.278C645.504 97.324 645.126 96.766 645.126 96.082C645.126 95.416 645.648 94.876 646.458 94.876C647.232 94.876 647.754 95.362 647.718 96.28H649.77ZM645.594 104.488C644.118 104.488 643.146 103.534 643.146 102.328C643.146 101.212 643.812 100.348 645.27 99.772L648.582 103.102C647.718 104.02 646.764 104.488 645.594 104.488ZM664.269 93.49H660.183V106H664.269C668.283 106 670.911 103.642 670.911 99.79C670.911 95.92 668.283 93.49 664.269 93.49ZM662.235 104.326V95.164H664.269C667.221 95.164 668.805 96.928 668.805 99.79C668.805 102.634 667.221 104.326 664.269 104.326H662.235ZM677.121 97.648C678.651 97.648 679.857 98.62 679.893 100.15H674.403C674.619 98.584 675.735 97.648 677.121 97.648ZM681.765 103.048H679.551C679.173 103.822 678.471 104.434 677.211 104.434C675.699 104.434 674.529 103.444 674.385 101.806H681.963C682.017 101.464 682.035 101.14 682.035 100.798C682.035 97.882 680.037 95.92 677.211 95.92C674.277 95.92 672.261 97.918 672.261 101.032C672.261 104.146 674.367 106.162 677.211 106.162C679.641 106.162 681.207 104.776 681.765 103.048ZM691.452 103.228C691.344 99.646 685.746 100.762 685.746 98.764C685.746 98.098 686.322 97.648 687.42 97.648C688.536 97.648 689.202 98.242 689.274 99.106H691.326C691.218 97.126 689.742 95.92 687.492 95.92C685.152 95.92 683.676 97.198 683.676 98.782C683.676 102.418 689.436 101.302 689.436 103.246C689.436 103.93 688.806 104.434 687.618 104.434C686.484 104.434 685.71 103.768 685.638 102.958H683.514C683.604 104.758 685.278 106.162 687.654 106.162C689.994 106.162 691.452 104.902 691.452 103.228ZM693.669 106H695.721V96.082H693.669V106ZM694.713 94.768C695.433 94.768 696.009 94.192 696.009 93.454C696.009 92.716 695.433 92.14 694.713 92.14C693.975 92.14 693.399 92.716 693.399 93.454C693.399 94.192 693.975 94.768 694.713 94.768ZM697.731 100.996C697.731 104.056 699.801 106.162 702.411 106.162C704.031 106.162 705.219 105.352 705.849 104.506V106.162C705.849 108.142 704.661 109.114 703.077 109.114C701.655 109.114 700.557 108.412 700.251 107.386H698.217C698.469 109.582 700.431 110.896 703.077 110.896C706.173 110.896 707.919 108.862 707.919 106.162V96.082H705.849V97.522C705.237 96.676 704.031 95.92 702.411 95.92C699.801 95.92 697.731 97.936 697.731 100.996ZM705.849 101.032C705.849 103.174 704.391 104.38 702.843 104.38C701.313 104.38 699.837 103.138 699.837 100.996C699.837 98.854 701.313 97.702 702.843 97.702C704.391 97.702 705.849 98.908 705.849 101.032ZM717.653 106H719.687V100.15C719.687 97.378 717.941 95.92 715.619 95.92C714.431 95.92 713.333 96.406 712.667 97.216V96.082H710.615V106H712.667V100.456C712.667 98.638 713.657 97.702 715.169 97.702C716.663 97.702 717.653 98.638 717.653 100.456V106ZM726.48 97.648C728.01 97.648 729.216 98.62 729.252 100.15H723.762C723.978 98.584 725.094 97.648 726.48 97.648ZM731.124 103.048H728.91C728.532 103.822 727.83 104.434 726.57 104.434C725.058 104.434 723.888 103.444 723.744 101.806H731.322C731.376 101.464 731.394 101.14 731.394 100.798C731.394 97.882 729.396 95.92 726.57 95.92C723.636 95.92 721.62 97.918 721.62 101.032C721.62 104.146 723.726 106.162 726.57 106.162C729 106.162 730.566 104.776 731.124 103.048ZM735.465 100.78C735.465 98.674 736.401 98.044 737.913 98.044H738.435V95.92C737.031 95.92 736.041 96.532 735.465 97.522V96.082H733.413V106H735.465V100.78Z" fill="#212832"/>
<path d="M801 76H799V123H801V76Z" fill="#E9D733" stroke="#E9D733" stroke-width="0.936604"/>
<circle cx="436.415" cy="99.4151" r="23.4151" fill="#E9D733" stroke="#E9D733"/>
<path d="M425.56 99.6055C425.56 103.577 426.609 106.574 430.43 106.574C434.252 106.574 435.301 103.577 435.301 99.6055C435.301 95.7093 434.252 92.7121 430.43 92.7121C426.609 92.7121 425.56 95.7093 425.56 99.6055ZM433.203 99.6055C433.203 102.284 432.922 104.626 430.43 104.626C427.939 104.626 427.658 102.284 427.658 99.6055C427.658 97.058 427.939 94.6603 430.43 94.6603C432.922 94.6603 433.203 97.058 433.203 99.6055ZM438.122 92.9182V100.804H440.145C440.501 99.7929 441.344 99.0998 442.599 99.0998C444.379 99.0998 445.259 100.111 445.259 101.891C445.259 103.577 444.435 104.832 442.599 104.832C441.157 104.832 440.183 104.082 439.902 102.921H437.823C438.141 105.057 439.771 106.611 442.58 106.611C445.746 106.611 447.301 104.551 447.301 101.835C447.301 99.7741 446.271 97.2828 442.918 97.2828C441.7 97.2828 440.595 97.8447 440.089 98.5191V94.7914H446.364V92.9182H438.122Z" fill="#212832"/>
<defs>
<filter id="filter0_d_955_90" x="23.5312" y="0.531738" width="365.938" height="47.9365" filterUnits="userSpaceOnUse" color-interpolation-filters="sRGB">
<feFlood flood-opacity="0" result="BackgroundImageFix"/>
<feColorMatrix in="SourceAlpha" type="matrix" values="0 0 0 0 0 0 0 0 0 0 0 0 0 0 0 0 0 0 127 0" result="hardAlpha"/>
<feOffset/>
<feComposite in2="hardAlpha" operator="out"/>
<feColorMatrix type="matrix" values="0 0 0 0 0 0 0 0 0 0 0 0 0 0 0 0 0 0 0.1 0"/>
<feBlend mode="normal" in2="BackgroundImageFix" result="effect1_dropShadow_955_90"/>
<feBlend mode="normal" in="SourceGraphic" in2="effect1_dropShadow_955_90" result="shape"/>
</filter>
<filter id="filter1_d_955_90" x="23.5312" y="75.5317" width="365.938" height="47.9365" filterUnits="userSpaceOnUse" color-interpolation-filters="sRGB">
<feFlood flood-opacity="0" result="BackgroundImageFix"/>
<feColorMatrix in="SourceAlpha" type="matrix" values="0 0 0 0 0 0 0 0 0 0 0 0 0 0 0 0 0 0 127 0" result="hardAlpha"/>
<feOffset/>
<feComposite in2="hardAlpha" operator="out"/>
<feColorMatrix type="matrix" values="0 0 0 0 0 0 0 0 0 0 0 0 0 0 0 0 0 0 0.1 0"/>
<feBlend mode="normal" in2="BackgroundImageFix" result="effect1_dropShadow_955_90"/>
<feBlend mode="normal" in="SourceGraphic" in2="effect1_dropShadow_955_90" result="shape"/>
</filter>
<filter id="filter2_d_955_90" x="436.531" y="0.531738" width="365.938" height="47.9365" filterUnits="userSpaceOnUse" color-interpolation-filters="sRGB">
<feFlood flood-opacity="0" result="BackgroundImageFix"/>
<feColorMatrix in="SourceAlpha" type="matrix" values="0 0 0 0 0 0 0 0 0 0 0 0 0 0 0 0 0 0 127 0" result="hardAlpha"/>
<feOffset/>
<feComposite in2="hardAlpha" operator="out"/>
<feColorMatrix type="matrix" values="0 0 0 0 0 0 0 0 0 0 0 0 0 0 0 0 0 0 0.1 0"/>
<feBlend mode="normal" in2="BackgroundImageFix" result="effect1_dropShadow_955_90"/>
<feBlend mode="normal" in="SourceGraphic" in2="effect1_dropShadow_955_90" result="shape"/>
</filter>
<filter id="filter3_d_955_90" x="859.531" y="0.531738" width="365.938" height="47.9365" filterUnits="userSpaceOnUse" color-interpolation-filters="sRGB">
<feFlood flood-opacity="0" result="BackgroundImageFix"/>
<feColorMatrix in="SourceAlpha" type="matrix" values="0 0 0 0 0 0 0 0 0 0 0 0 0 0 0 0 0 0 127 0" result="hardAlpha"/>
<feOffset/>
<feComposite in2="hardAlpha" operator="out"/>
<feColorMatrix type="matrix" values="0 0 0 0 0 0 0 0 0 0 0 0 0 0 0 0 0 0 0.1 0"/>
<feBlend mode="normal" in2="BackgroundImageFix" result="effect1_dropShadow_955_90"/>
<feBlend mode="normal" in="SourceGraphic" in2="effect1_dropShadow_955_90" result="shape"/>
</filter>
<filter id="filter4_d_955_90" x="435.531" y="75.5317" width="365.938" height="47.9365" filterUnits="userSpaceOnUse" color-interpolation-filters="sRGB">
<feFlood flood-opacity="0" result="BackgroundImageFix"/>
<feColorMatrix in="SourceAlpha" type="matrix" values="0 0 0 0 0 0 0 0 0 0 0 0 0 0 0 0 0 0 127 0" result="hardAlpha"/>
<feOffset/>
<feComposite in2="hardAlpha" operator="out"/>
<feColorMatrix type="matrix" values="0 0 0 0 0 0 0 0 0 0 0 0 0 0 0 0 0 0 0.1 0"/>
<feBlend mode="normal" in2="BackgroundImageFix" result="effect1_dropShadow_955_90"/>
<feBlend mode="normal" in="SourceGraphic" in2="effect1_dropShadow_955_90" result="shape"/>
</filter>
</defs>
</svg>
