<svg width="1239" height="341" viewBox="0 0 1239 341" fill="none" xmlns="http://www.w3.org/2000/svg">
<rect width="405" height="80" fill="white"/>
<path d="M51.9609 48H54.2409V38.48L58.5009 48H60.0809L64.3209 38.48V48H66.6009V34.1H64.1609L59.3009 45L54.4209 34.1H51.9609V48ZM68.8377 41.02C68.8377 45.2 72.0177 48.12 75.9377 48.12C78.8377 48.12 81.3377 46.68 82.3977 43.96H79.6577C78.9177 45.44 77.5977 46.14 75.9377 46.14C73.1777 46.14 71.1777 44.16 71.1777 41.02C71.1777 37.88 73.1777 35.92 75.9377 35.92C77.5977 35.92 78.9177 36.62 79.6577 38.1H82.3977C81.3377 35.38 78.8377 33.92 75.9377 33.92C72.0177 33.92 68.8377 36.86 68.8377 41.02ZM94.4464 48H96.8464L91.8664 34.08H89.2264L84.2464 48H86.6264L87.6264 45.16H93.4464L94.4464 48ZM92.8064 43.3H88.2664L90.5464 36.84L92.8064 43.3ZM104.207 48H106.487V34.1H104.207V48ZM117.3 48H119.56V41.5C119.56 38.42 117.62 36.8 115.04 36.8C113.72 36.8 112.5 37.34 111.76 38.24V36.98H109.48V48H111.76V41.84C111.76 39.82 112.86 38.78 114.54 38.78C116.2 38.78 117.3 39.82 117.3 41.84V48ZM126.904 41.02C126.904 45.2 130.084 48.12 134.004 48.12C136.904 48.12 139.404 46.68 140.464 43.96H137.724C136.984 45.44 135.664 46.14 134.004 46.14C131.244 46.14 129.244 44.16 129.244 41.02C129.244 37.88 131.244 35.92 134.004 35.92C135.664 35.92 136.984 36.62 137.724 38.1H140.464C139.404 35.38 136.904 33.92 134.004 33.92C130.084 33.92 126.904 36.86 126.904 41.02ZM153.633 42.48C153.633 39.02 151.153 36.8 148.013 36.8C144.873 36.8 142.393 39.02 142.393 42.48C142.393 45.94 144.773 48.18 147.913 48.18C151.073 48.18 153.633 45.94 153.633 42.48ZM144.713 42.48C144.713 39.98 146.253 38.78 147.973 38.78C149.673 38.78 151.293 39.98 151.293 42.48C151.293 44.98 149.613 46.2 147.913 46.2C146.193 46.2 144.713 44.98 144.713 42.48ZM171.507 48H173.767V41.5C173.767 38.42 171.807 36.8 169.227 36.8C167.627 36.8 166.067 37.64 165.387 38.98C164.627 37.54 163.167 36.8 161.427 36.8C160.107 36.8 158.907 37.34 158.167 38.24V36.98H155.887V48H158.167V41.84C158.167 39.82 159.267 38.78 160.947 38.78C162.607 38.78 163.707 39.82 163.707 41.84V48H165.967V41.84C165.967 39.82 167.067 38.78 168.747 38.78C170.407 38.78 171.507 39.82 171.507 41.84V48ZM178.948 38.6V36.98H176.668V53.24H178.948V46.4C179.668 47.26 180.968 48.18 182.788 48.18C185.688 48.18 187.968 45.84 187.968 42.44C187.968 39.04 185.688 36.8 182.788 36.8C180.988 36.8 179.648 37.68 178.948 38.6ZM185.648 42.44C185.648 44.82 184.008 46.2 182.288 46.2C180.588 46.2 178.948 44.86 178.948 42.48C178.948 40.12 180.588 38.78 182.288 38.78C184.008 38.78 185.648 40.06 185.648 42.44ZM200.203 36.98H197.923V43.12C197.923 45.14 196.823 46.18 195.143 46.18C193.483 46.18 192.383 45.14 192.383 43.12V36.98H190.123V43.46C190.123 46.54 192.083 48.16 194.663 48.16C195.963 48.16 197.203 47.62 197.923 46.68V48H200.203V36.98ZM203.571 44.94C203.571 47.18 204.791 48 206.751 48H208.551V46.1H207.151C206.191 46.1 205.871 45.76 205.871 44.94V38.84H208.551V36.98H205.871V34.24H203.571V36.98H202.271V38.84H203.571V44.94ZM215.292 38.72C216.992 38.72 218.332 39.8 218.372 41.5H212.272C212.512 39.76 213.752 38.72 215.292 38.72ZM220.452 44.72H217.992C217.572 45.58 216.792 46.26 215.392 46.26C213.712 46.26 212.412 45.16 212.252 43.34H220.672C220.732 42.96 220.752 42.6 220.752 42.22C220.752 38.98 218.532 36.8 215.392 36.8C212.132 36.8 209.892 39.02 209.892 42.48C209.892 45.94 212.232 48.18 215.392 48.18C218.092 48.18 219.832 46.64 220.452 44.72ZM225.276 42.2C225.276 39.86 226.316 39.16 227.996 39.16H228.576V36.8C227.016 36.8 225.916 37.48 225.276 38.58V36.98H222.996V48H225.276V42.2ZM245.247 44.06C245.247 38.98 237.887 40.94 237.887 37.8C237.887 36.46 238.907 35.82 240.227 35.86C241.667 35.9 242.487 36.76 242.567 37.7H245.087C244.887 35.32 243.007 33.92 240.347 33.92C237.507 33.92 235.567 35.44 235.567 37.88C235.567 43 242.947 40.82 242.947 44.18C242.947 45.36 242.047 46.22 240.447 46.22C238.867 46.22 238.067 45.3 237.967 44.16H235.527C235.527 46.62 237.667 48.14 240.447 48.14C243.547 48.14 245.247 46.14 245.247 44.06ZM247.178 42.48C247.178 45.94 249.418 48.18 252.578 48.18C255.278 48.18 257.038 46.68 257.658 44.52H255.198C254.778 45.66 253.938 46.26 252.578 46.26C250.738 46.26 249.518 44.9 249.518 42.48C249.518 40.08 250.738 38.72 252.578 38.72C253.938 38.72 254.818 39.4 255.198 40.46H257.658C257.038 38.14 255.278 36.8 252.578 36.8C249.418 36.8 247.178 39.04 247.178 42.48ZM259.93 48H262.21V36.98H259.93V48ZM261.09 35.52C261.89 35.52 262.53 34.88 262.53 34.06C262.53 33.24 261.89 32.6 261.09 32.6C260.27 32.6 259.63 33.24 259.63 34.06C259.63 34.88 260.27 35.52 261.09 35.52ZM269.843 38.72C271.543 38.72 272.883 39.8 272.923 41.5H266.823C267.063 39.76 268.303 38.72 269.843 38.72ZM275.003 44.72H272.543C272.123 45.58 271.343 46.26 269.943 46.26C268.263 46.26 266.963 45.16 266.803 43.34H275.223C275.283 42.96 275.303 42.6 275.303 42.22C275.303 38.98 273.083 36.8 269.943 36.8C266.683 36.8 264.443 39.02 264.443 42.48C264.443 45.94 266.783 48.18 269.943 48.18C272.643 48.18 274.383 46.64 275.003 44.72ZM285.367 48H287.627V41.5C287.627 38.42 285.687 36.8 283.107 36.8C281.787 36.8 280.567 37.34 279.827 38.24V36.98H277.547V48H279.827V41.84C279.827 39.82 280.927 38.78 282.607 38.78C284.267 38.78 285.367 39.82 285.367 41.84V48ZM289.775 42.48C289.775 45.94 292.015 48.18 295.175 48.18C297.875 48.18 299.635 46.68 300.255 44.52H297.795C297.375 45.66 296.535 46.26 295.175 46.26C293.335 46.26 292.115 44.9 292.115 42.48C292.115 40.08 293.335 38.72 295.175 38.72C296.535 38.72 297.415 39.4 297.795 40.46H300.255C299.635 38.14 297.875 36.8 295.175 36.8C292.015 36.8 289.775 39.04 289.775 42.48ZM307.167 38.72C308.867 38.72 310.207 39.8 310.247 41.5H304.147C304.387 39.76 305.627 38.72 307.167 38.72ZM312.327 44.72H309.867C309.447 45.58 308.667 46.26 307.267 46.26C305.587 46.26 304.287 45.16 304.127 43.34H312.547C312.607 42.96 312.627 42.6 312.627 42.22C312.627 38.98 310.407 36.8 307.267 36.8C304.007 36.8 301.767 39.02 301.767 42.48C301.767 45.94 304.107 48.18 307.267 48.18C309.967 48.18 311.707 46.64 312.327 44.72ZM328.906 37.2C329.046 35.3 327.746 33.78 325.326 33.78C322.946 33.78 321.466 35.16 321.466 36.98C321.466 37.96 321.746 38.7 322.526 39.64C320.326 40.54 319.266 42.12 319.266 44C319.266 46.6 321.266 48.26 324.266 48.26C326.206 48.26 327.746 47.62 329.086 46.28L330.806 48H333.786L330.406 44.64C330.566 44.38 330.746 44.1 330.906 43.82L332.706 40.74H330.246L328.826 43.08L325.146 39.42C324.166 38.36 323.746 37.74 323.746 36.98C323.746 36.24 324.326 35.64 325.226 35.64C326.086 35.64 326.666 36.18 326.626 37.2H328.906ZM324.266 46.32C322.626 46.32 321.546 45.26 321.546 43.92C321.546 42.68 322.286 41.72 323.906 41.08L327.586 44.78C326.626 45.8 325.566 46.32 324.266 46.32ZM340.477 48H342.757V34.1H340.477V48ZM345.03 35.96H348.75V48H351.03V35.96H354.73V34.1H345.03V35.96Z" fill="#212832"/>
<rect x="0.5" y="0.5" width="404" height="79" stroke="black" stroke-opacity="0.5"/>
<rect y="261" width="405" height="80" fill="white"/>
<path d="M48.709 309H50.989V299.48L55.249 309H56.829L61.069 299.48V309H63.349V295.1H60.909L56.049 306L51.169 295.1H48.709V309ZM65.5857 302.02C65.5857 306.2 68.7657 309.12 72.6857 309.12C75.5857 309.12 78.0857 307.68 79.1457 304.96H76.4057C75.6657 306.44 74.3457 307.14 72.6857 307.14C69.9257 307.14 67.9257 305.16 67.9257 302.02C67.9257 298.88 69.9257 296.92 72.6857 296.92C74.3457 296.92 75.6657 297.62 76.4057 299.1H79.1457C78.0857 296.38 75.5857 294.92 72.6857 294.92C68.7657 294.92 65.5857 297.86 65.5857 302.02ZM91.1945 309H93.5945L88.6145 295.08H85.9745L80.9945 309H83.3745L84.3745 306.16H90.1945L91.1945 309ZM89.5545 304.3H85.0145L87.2945 297.84L89.5545 304.3ZM100.955 309H103.235V295.1H100.955V309ZM114.049 309H116.309V302.5C116.309 299.42 114.369 297.8 111.789 297.8C110.469 297.8 109.249 298.34 108.509 299.24V297.98H106.229V309H108.509V302.84C108.509 300.82 109.609 299.78 111.289 299.78C112.949 299.78 114.049 300.82 114.049 302.84V309ZM124.412 309H126.692V302.92H131.292V301.06H126.692V296.96H132.592V295.1H124.412V309ZM144.685 297.98H142.405V304.12C142.405 306.14 141.305 307.18 139.625 307.18C137.965 307.18 136.865 306.14 136.865 304.12V297.98H134.605V304.46C134.605 307.54 136.565 309.16 139.145 309.16C140.445 309.16 141.685 308.62 142.405 307.68V309H144.685V297.98ZM147.693 309H149.973V294.2H147.693V309ZM152.967 309H155.247V294.2H152.967V309ZM172.816 305.06C172.816 299.98 165.456 301.94 165.456 298.8C165.456 297.46 166.476 296.82 167.796 296.86C169.236 296.9 170.056 297.76 170.136 298.7H172.656C172.456 296.32 170.576 294.92 167.916 294.92C165.076 294.92 163.136 296.44 163.136 298.88C163.136 304 170.516 301.82 170.516 305.18C170.516 306.36 169.616 307.22 168.016 307.22C166.436 307.22 165.636 306.3 165.536 305.16H163.096C163.096 307.62 165.236 309.14 168.016 309.14C171.116 309.14 172.816 307.14 172.816 305.06ZM175.866 305.94C175.866 308.18 177.086 309 179.046 309H180.846V307.1H179.446C178.486 307.1 178.166 306.76 178.166 305.94V299.84H180.846V297.98H178.166V295.24H175.866V297.98H174.566V299.84H175.866V305.94ZM182.187 303.44C182.187 306.84 184.487 309.18 187.347 309.18C189.187 309.18 190.507 308.3 191.207 307.36V309H193.507V297.98H191.207V299.58C190.527 298.68 189.247 297.8 187.387 297.8C184.487 297.8 182.187 300.04 182.187 303.44ZM191.207 303.48C191.207 305.86 189.587 307.2 187.867 307.2C186.167 307.2 184.527 305.82 184.527 303.44C184.527 301.06 186.167 299.78 187.867 299.78C189.587 299.78 191.207 301.12 191.207 303.48ZM195.742 303.48C195.742 306.94 197.982 309.18 201.142 309.18C203.842 309.18 205.602 307.68 206.222 305.52H203.762C203.342 306.66 202.502 307.26 201.142 307.26C199.302 307.26 198.082 305.9 198.082 303.48C198.082 301.08 199.302 299.72 201.142 299.72C202.502 299.72 203.382 300.4 203.762 301.46H206.222C205.602 299.14 203.842 297.8 201.142 297.8C197.982 297.8 195.742 300.04 195.742 303.48ZM208.494 309H210.774V304.26L214.854 309H217.934L212.854 303.5L217.934 297.98H214.774L210.774 302.8V294.2H208.494V309ZM229.304 295.1H224.764V309H229.304C233.764 309 236.684 306.38 236.684 302.1C236.684 297.8 233.764 295.1 229.304 295.1ZM227.044 307.14V296.96H229.304C232.584 296.96 234.344 298.92 234.344 302.1C234.344 305.26 232.584 307.14 229.304 307.14H227.044ZM243.583 299.72C245.283 299.72 246.623 300.8 246.663 302.5H240.563C240.803 300.76 242.043 299.72 243.583 299.72ZM248.743 305.72H246.283C245.863 306.58 245.083 307.26 243.683 307.26C242.003 307.26 240.703 306.16 240.543 304.34H248.963C249.023 303.96 249.043 303.6 249.043 303.22C249.043 299.98 246.823 297.8 243.683 297.8C240.423 297.8 238.183 300.02 238.183 303.48C238.183 306.94 240.523 309.18 243.683 309.18C246.383 309.18 248.123 307.64 248.743 305.72ZM249.987 297.98L254.167 309H256.887L261.087 297.98H258.667L255.547 306.96L252.427 297.98H249.987ZM267.451 299.72C269.151 299.72 270.491 300.8 270.531 302.5H264.431C264.671 300.76 265.911 299.72 267.451 299.72ZM272.611 305.72H270.151C269.731 306.58 268.951 307.26 267.551 307.26C265.871 307.26 264.571 306.16 264.411 304.34H272.831C272.891 303.96 272.911 303.6 272.911 303.22C272.911 299.98 270.691 297.8 267.551 297.8C264.291 297.8 262.051 300.02 262.051 303.48C262.051 306.94 264.391 309.18 267.551 309.18C270.251 309.18 271.991 307.64 272.611 305.72ZM275.154 309H277.434V294.2H275.154V309ZM290.928 303.48C290.928 300.02 288.448 297.8 285.308 297.8C282.168 297.8 279.688 300.02 279.688 303.48C279.688 306.94 282.068 309.18 285.208 309.18C288.368 309.18 290.928 306.94 290.928 303.48ZM282.008 303.48C282.008 300.98 283.548 299.78 285.268 299.78C286.968 299.78 288.588 300.98 288.588 303.48C288.588 305.98 286.908 307.2 285.208 307.2C283.488 307.2 282.008 305.98 282.008 303.48ZM295.462 299.6V297.98H293.182V314.24H295.462V307.4C296.182 308.26 297.482 309.18 299.302 309.18C302.202 309.18 304.482 306.84 304.482 303.44C304.482 300.04 302.202 297.8 299.302 297.8C297.502 297.8 296.162 298.68 295.462 299.6ZM302.162 303.44C302.162 305.82 300.522 307.2 298.802 307.2C297.102 307.2 295.462 305.86 295.462 303.48C295.462 301.12 297.102 299.78 298.802 299.78C300.522 299.78 302.162 301.06 302.162 303.44ZM322.356 309H324.616V302.5C324.616 299.42 322.656 297.8 320.076 297.8C318.476 297.8 316.916 298.64 316.236 299.98C315.476 298.54 314.016 297.8 312.276 297.8C310.956 297.8 309.756 298.34 309.016 299.24V297.98H306.736V309H309.016V302.84C309.016 300.82 310.116 299.78 311.796 299.78C313.456 299.78 314.556 300.82 314.556 302.84V309H316.816V302.84C316.816 300.82 317.916 299.78 319.596 299.78C321.256 299.78 322.356 300.82 322.356 302.84V309ZM332.158 299.72C333.858 299.72 335.198 300.8 335.238 302.5H329.138C329.378 300.76 330.618 299.72 332.158 299.72ZM337.318 305.72H334.858C334.438 306.58 333.658 307.26 332.258 307.26C330.578 307.26 329.278 306.16 329.118 304.34H337.538C337.598 303.96 337.618 303.6 337.618 303.22C337.618 299.98 335.398 297.8 332.258 297.8C328.998 297.8 326.758 300.02 326.758 303.48C326.758 306.94 329.098 309.18 332.258 309.18C334.958 309.18 336.698 307.64 337.318 305.72ZM347.681 309H349.941V302.5C349.941 299.42 348.001 297.8 345.421 297.8C344.101 297.8 342.881 298.34 342.141 299.24V297.98H339.861V309H342.141V302.84C342.141 300.82 343.241 299.78 344.921 299.78C346.581 299.78 347.681 300.82 347.681 302.84V309ZM353.21 305.94C353.21 308.18 354.43 309 356.39 309H358.19V307.1H356.79C355.83 307.1 355.51 306.76 355.51 305.94V299.84H358.19V297.98H355.51V295.24H353.21V297.98H351.91V299.84H353.21V305.94Z" fill="#212832"/>
<rect x="0.5" y="261.5" width="404" height="79" stroke="black" stroke-opacity="0.5"/>
<rect y="87" width="405" height="80" fill="white"/>
<path d="M76.6289 135H78.9089V125.48L83.1689 135H84.7489L88.9889 125.48V135H91.2689V121.1H88.8289L83.9689 132L79.0889 121.1H76.6289V135ZM93.5056 128.02C93.5056 132.2 96.6856 135.12 100.606 135.12C103.506 135.12 106.006 133.68 107.066 130.96H104.326C103.586 132.44 102.266 133.14 100.606 133.14C97.8456 133.14 95.8456 131.16 95.8456 128.02C95.8456 124.88 97.8456 122.92 100.606 122.92C102.266 122.92 103.586 123.62 104.326 125.1H107.066C106.006 122.38 103.506 120.92 100.606 120.92C96.6856 120.92 93.5056 123.86 93.5056 128.02ZM119.114 135H121.514L116.534 121.08H113.894L108.914 135H111.294L112.294 132.16H118.114L119.114 135ZM117.474 130.3H112.934L115.214 123.84L117.474 130.3ZM128.875 135H131.155V121.1H128.875V135ZM141.968 135H144.228V128.5C144.228 125.42 142.288 123.8 139.708 123.8C138.388 123.8 137.168 124.34 136.428 125.24V123.98H134.148V135H136.428V128.84C136.428 126.82 137.528 125.78 139.208 125.78C140.868 125.78 141.968 126.82 141.968 128.84V135ZM151.572 128.02C151.572 132.2 154.752 135.12 158.672 135.12C161.572 135.12 164.072 133.68 165.132 130.96H162.392C161.652 132.44 160.332 133.14 158.672 133.14C155.912 133.14 153.912 131.16 153.912 128.02C153.912 124.88 155.912 122.92 158.672 122.92C160.332 122.92 161.652 123.62 162.392 125.1H165.132C164.072 122.38 161.572 120.92 158.672 120.92C154.752 120.92 151.572 123.86 151.572 128.02ZM167.801 135H170.081V120.2H167.801V135ZM183.574 129.48C183.574 126.02 181.094 123.8 177.954 123.8C174.814 123.8 172.334 126.02 172.334 129.48C172.334 132.94 174.714 135.18 177.854 135.18C181.014 135.18 183.574 132.94 183.574 129.48ZM174.654 129.48C174.654 126.98 176.194 125.78 177.914 125.78C179.614 125.78 181.234 126.98 181.234 129.48C181.234 131.98 179.554 133.2 177.854 133.2C176.134 133.2 174.654 131.98 174.654 129.48ZM195.808 123.98H193.528V130.12C193.528 132.14 192.428 133.18 190.748 133.18C189.088 133.18 187.988 132.14 187.988 130.12V123.98H185.728V130.46C185.728 133.54 187.688 135.16 190.268 135.16C191.568 135.16 192.808 134.62 193.528 133.68V135H195.808V123.98ZM198.056 129.44C198.056 132.84 200.356 135.18 203.256 135.18C205.056 135.18 206.376 134.34 207.076 133.34V135H209.376V120.2H207.076V125.52C206.236 124.48 204.716 123.8 203.276 123.8C200.356 123.8 198.056 126.04 198.056 129.44ZM207.076 129.48C207.076 131.86 205.456 133.2 203.736 133.2C202.036 133.2 200.396 131.82 200.396 129.44C200.396 127.06 202.036 125.78 203.736 125.78C205.456 125.78 207.076 127.12 207.076 129.48ZM216.806 128.02C216.806 132.2 219.986 135.12 223.906 135.12C226.806 135.12 229.306 133.68 230.366 130.96H227.626C226.886 132.44 225.566 133.14 223.906 133.14C221.146 133.14 219.146 131.16 219.146 128.02C219.146 124.88 221.146 122.92 223.906 122.92C225.566 122.92 226.886 123.62 227.626 125.1H230.366C229.306 122.38 226.806 120.92 223.906 120.92C219.986 120.92 216.806 123.86 216.806 128.02ZM243.535 129.48C243.535 126.02 241.055 123.8 237.915 123.8C234.775 123.8 232.295 126.02 232.295 129.48C232.295 132.94 234.675 135.18 237.815 135.18C240.975 135.18 243.535 132.94 243.535 129.48ZM234.615 129.48C234.615 126.98 236.155 125.78 237.875 125.78C239.575 125.78 241.195 126.98 241.195 129.48C241.195 131.98 239.515 133.2 237.815 133.2C236.095 133.2 234.615 131.98 234.615 129.48ZM261.409 135H263.669V128.5C263.669 125.42 261.709 123.8 259.129 123.8C257.529 123.8 255.969 124.64 255.289 125.98C254.529 124.54 253.069 123.8 251.329 123.8C250.009 123.8 248.809 124.34 248.069 125.24V123.98H245.789V135H248.069V128.84C248.069 126.82 249.169 125.78 250.849 125.78C252.509 125.78 253.609 126.82 253.609 128.84V135H255.869V128.84C255.869 126.82 256.969 125.78 258.649 125.78C260.309 125.78 261.409 126.82 261.409 128.84V135ZM268.85 125.6V123.98H266.57V140.24H268.85V133.4C269.57 134.26 270.87 135.18 272.69 135.18C275.59 135.18 277.87 132.84 277.87 129.44C277.87 126.04 275.59 123.8 272.69 123.8C270.89 123.8 269.55 124.68 268.85 125.6ZM275.55 129.44C275.55 131.82 273.91 133.2 272.19 133.2C270.49 133.2 268.85 131.86 268.85 129.48C268.85 127.12 270.49 125.78 272.19 125.78C273.91 125.78 275.55 127.06 275.55 129.44ZM290.105 123.98H287.825V130.12C287.825 132.14 286.725 133.18 285.045 133.18C283.385 133.18 282.285 132.14 282.285 130.12V123.98H280.025V130.46C280.025 133.54 281.985 135.16 284.565 135.16C285.865 135.16 287.105 134.62 287.825 133.68V135H290.105V123.98ZM293.473 131.94C293.473 134.18 294.693 135 296.653 135H298.453V133.1H297.053C296.093 133.1 295.773 132.76 295.773 131.94V125.84H298.453V123.98H295.773V121.24H293.473V123.98H292.173V125.84H293.473V131.94ZM300.555 135H302.835V123.98H300.555V135ZM301.715 122.52C302.515 122.52 303.155 121.88 303.155 121.06C303.155 120.24 302.515 119.6 301.715 119.6C300.895 119.6 300.255 120.24 300.255 121.06C300.255 121.88 300.895 122.52 301.715 122.52ZM313.648 135H315.908V128.5C315.908 125.42 313.968 123.8 311.388 123.8C310.068 123.8 308.848 124.34 308.108 125.24V123.98H305.828V135H308.108V128.84C308.108 126.82 309.208 125.78 310.888 125.78C312.548 125.78 313.648 126.82 313.648 128.84V135ZM318.056 129.44C318.056 132.84 320.356 135.18 323.256 135.18C325.056 135.18 326.376 134.28 327.076 133.34V135.18C327.076 137.38 325.756 138.46 323.996 138.46C322.416 138.46 321.196 137.68 320.856 136.54H318.596C318.876 138.98 321.056 140.44 323.996 140.44C327.436 140.44 329.376 138.18 329.376 135.18V123.98H327.076V125.58C326.396 124.64 325.056 123.8 323.256 123.8C320.356 123.8 318.056 126.04 318.056 129.44ZM327.076 129.48C327.076 131.86 325.456 133.2 323.736 133.2C322.036 133.2 320.396 131.82 320.396 129.44C320.396 127.06 322.036 125.78 323.736 125.78C325.456 125.78 327.076 127.12 327.076 129.48Z" fill="#212832"/>
<rect x="0.5" y="87.5" width="404" height="79" stroke="black" stroke-opacity="0.5"/>
<rect y="174" width="405" height="80" fill="white"/>
<path d="M92.4961 222H94.7761V212.48L99.0361 222H100.616L104.856 212.48V222H107.136V208.1H104.696L99.8361 219L94.9561 208.1H92.4961V222ZM109.373 215.02C109.373 219.2 112.553 222.12 116.473 222.12C119.373 222.12 121.873 220.68 122.933 217.96H120.193C119.453 219.44 118.133 220.14 116.473 220.14C113.713 220.14 111.713 218.16 111.713 215.02C111.713 211.88 113.713 209.92 116.473 209.92C118.133 209.92 119.453 210.62 120.193 212.1H122.933C121.873 209.38 119.373 207.92 116.473 207.92C112.553 207.92 109.373 210.86 109.373 215.02ZM134.982 222H137.382L132.402 208.08H129.762L124.782 222H127.162L128.162 219.16H133.982L134.982 222ZM133.342 217.3H128.802L131.082 210.84L133.342 217.3ZM144.742 222H147.022V208.1H144.742V222ZM157.836 222H160.096V215.5C160.096 212.42 158.156 210.8 155.576 210.8C154.256 210.8 153.036 211.34 152.296 212.24V210.98H150.016V222H152.296V215.84C152.296 213.82 153.396 212.78 155.076 212.78C156.736 212.78 157.836 213.82 157.836 215.84V222ZM167.439 215.02C167.439 219.2 170.619 222.12 174.539 222.12C177.439 222.12 179.939 220.68 180.999 217.96H178.259C177.519 219.44 176.199 220.14 174.539 220.14C171.779 220.14 169.779 218.16 169.779 215.02C169.779 211.88 171.779 209.92 174.539 209.92C176.199 209.92 177.519 210.62 178.259 212.1H180.999C179.939 209.38 177.439 207.92 174.539 207.92C170.619 207.92 167.439 210.86 167.439 215.02ZM188.008 219.38L184.908 210.98H182.368L186.708 221.82L184.468 227.18H186.828L193.588 210.98H191.228L188.008 219.38ZM197.589 212.62V207.2H195.309V222H197.589V220.4C198.309 221.36 199.609 222.18 201.429 222.18C204.329 222.18 206.609 219.84 206.609 216.44C206.609 213.04 204.349 210.8 201.429 210.8C199.689 210.8 198.309 211.62 197.589 212.62ZM204.289 216.44C204.289 218.82 202.649 220.2 200.929 220.2C199.229 220.2 197.589 218.86 197.589 216.48C197.589 214.12 199.229 212.78 200.929 212.78C202.649 212.78 204.289 214.06 204.289 216.44ZM213.503 212.72C215.203 212.72 216.543 213.8 216.583 215.5H210.483C210.723 213.76 211.963 212.72 213.503 212.72ZM218.663 218.72H216.203C215.783 219.58 215.003 220.26 213.603 220.26C211.923 220.26 210.623 219.16 210.463 217.34H218.883C218.943 216.96 218.963 216.6 218.963 216.22C218.963 212.98 216.743 210.8 213.603 210.8C210.343 210.8 208.103 213.02 208.103 216.48C208.103 219.94 210.443 222.18 213.603 222.18C216.303 222.18 218.043 220.64 218.663 218.72ZM223.487 216.2C223.487 213.86 224.527 213.16 226.207 213.16H226.787V210.8C225.227 210.8 224.127 211.48 223.487 212.58V210.98H221.207V222H223.487V216.2ZM243.458 218.06C243.458 212.98 236.098 214.94 236.098 211.8C236.098 210.46 237.118 209.82 238.438 209.86C239.878 209.9 240.698 210.76 240.778 211.7H243.298C243.098 209.32 241.218 207.92 238.558 207.92C235.718 207.92 233.778 209.44 233.778 211.88C233.778 217 241.158 214.82 241.158 218.18C241.158 219.36 240.258 220.22 238.658 220.22C237.078 220.22 236.278 219.3 236.178 218.16H233.738C233.738 220.62 235.878 222.14 238.658 222.14C241.758 222.14 243.458 220.14 243.458 218.06ZM250.788 212.72C252.488 212.72 253.828 213.8 253.868 215.5H247.768C248.008 213.76 249.248 212.72 250.788 212.72ZM255.948 218.72H253.488C253.068 219.58 252.288 220.26 250.888 220.26C249.208 220.26 247.908 219.16 247.748 217.34H256.168C256.228 216.96 256.248 216.6 256.248 216.22C256.248 212.98 254.028 210.8 250.888 210.8C247.628 210.8 245.388 213.02 245.388 216.48C245.388 219.94 247.728 222.18 250.888 222.18C253.588 222.18 255.328 220.64 255.948 218.72ZM257.732 216.48C257.732 219.94 259.972 222.18 263.132 222.18C265.832 222.18 267.592 220.68 268.212 218.52H265.752C265.332 219.66 264.492 220.26 263.132 220.26C261.292 220.26 260.072 218.9 260.072 216.48C260.072 214.08 261.292 212.72 263.132 212.72C264.492 212.72 265.372 213.4 265.752 214.46H268.212C267.592 212.14 265.832 210.8 263.132 210.8C259.972 210.8 257.732 213.04 257.732 216.48ZM280.464 210.98H278.184V217.12C278.184 219.14 277.084 220.18 275.404 220.18C273.744 220.18 272.644 219.14 272.644 217.12V210.98H270.384V217.46C270.384 220.54 272.344 222.16 274.924 222.16C276.224 222.16 277.464 221.62 278.184 220.68V222H280.464V210.98ZM285.753 216.2C285.753 213.86 286.793 213.16 288.473 213.16H289.053V210.8C287.493 210.8 286.393 211.48 285.753 212.58V210.98H283.473V222H285.753V216.2ZM291.148 222H293.428V210.98H291.148V222ZM292.308 209.52C293.108 209.52 293.748 208.88 293.748 208.06C293.748 207.24 293.108 206.6 292.308 206.6C291.488 206.6 290.848 207.24 290.848 208.06C290.848 208.88 291.488 209.52 292.308 209.52ZM296.782 218.94C296.782 221.18 298.002 222 299.962 222H301.762V220.1H300.362C299.402 220.1 299.082 219.76 299.082 218.94V212.84H301.762V210.98H299.082V208.24H296.782V210.98H295.482V212.84H296.782V218.94ZM308.203 219.38L305.103 210.98H302.563L306.903 221.82L304.663 227.18H307.023L313.783 210.98H311.423L308.203 219.38Z" fill="#212832"/>
<rect x="0.5" y="174.5" width="404" height="79" stroke="black" stroke-opacity="0.5"/>
<rect x="834" width="405" height="80" fill="white"/>
<path d="M880.852 35H883.132V25.48L887.392 35H888.972L893.212 25.48V35H895.492V21.1H893.052L888.192 32L883.312 21.1H880.852V35ZM897.728 28.02C897.728 32.2 900.908 35.12 904.828 35.12C907.728 35.12 910.228 33.68 911.288 30.96H908.548C907.808 32.44 906.488 33.14 904.828 33.14C902.068 33.14 900.068 31.16 900.068 28.02C900.068 24.88 902.068 22.92 904.828 22.92C906.488 22.92 907.808 23.62 908.548 25.1H911.288C910.228 22.38 907.728 20.92 904.828 20.92C900.908 20.92 897.728 23.86 897.728 28.02ZM923.337 35H925.737L920.757 21.08H918.117L913.137 35H915.517L916.517 32.16H922.337L923.337 35ZM921.697 30.3H917.157L919.437 23.84L921.697 30.3ZM933.098 35H935.378V23.98H933.098V35ZM934.258 22.52C935.058 22.52 935.698 21.88 935.698 21.06C935.698 20.24 935.058 19.6 934.258 19.6C933.438 19.6 932.798 20.24 932.798 21.06C932.798 21.88 933.438 22.52 934.258 22.52ZM946.191 35H948.451V28.5C948.451 25.42 946.511 23.8 943.931 23.8C942.611 23.8 941.391 24.34 940.651 25.24V23.98H938.371V35H940.651V28.84C940.651 26.82 941.751 25.78 943.431 25.78C945.091 25.78 946.191 26.82 946.191 28.84V35ZM965.935 35H968.335L963.355 21.08H960.715L955.735 35H958.115L959.115 32.16H964.935L965.935 35ZM964.295 30.3H959.755L962.035 23.84L964.295 30.3ZM980.48 23.98H978.2V30.12C978.2 32.14 977.1 33.18 975.42 33.18C973.76 33.18 972.66 32.14 972.66 30.12V23.98H970.4V30.46C970.4 33.54 972.36 35.16 974.94 35.16C976.24 35.16 977.48 34.62 978.2 33.68V35H980.48V23.98ZM982.728 29.44C982.728 32.84 985.028 35.18 987.928 35.18C989.728 35.18 991.048 34.28 991.748 33.34V35.18C991.748 37.38 990.428 38.46 988.668 38.46C987.088 38.46 985.868 37.68 985.528 36.54H983.268C983.548 38.98 985.728 40.44 988.668 40.44C992.108 40.44 994.048 38.18 994.048 35.18V23.98H991.748V25.58C991.068 24.64 989.728 23.8 987.928 23.8C985.028 23.8 982.728 26.04 982.728 29.44ZM991.748 29.48C991.748 31.86 990.128 33.2 988.408 33.2C986.708 33.2 985.068 31.82 985.068 29.44C985.068 27.06 986.708 25.78 988.408 25.78C990.128 25.78 991.748 27.12 991.748 29.48ZM1012.66 35H1014.92V28.5C1014.92 25.42 1012.96 23.8 1010.38 23.8C1008.78 23.8 1007.22 24.64 1006.54 25.98C1005.78 24.54 1004.32 23.8 1002.58 23.8C1001.26 23.8 1000.06 24.34 999.323 25.24V23.98H997.043V35H999.323V28.84C999.323 26.82 1000.42 25.78 1002.1 25.78C1003.76 25.78 1004.86 26.82 1004.86 28.84V35H1007.12V28.84C1007.12 26.82 1008.22 25.78 1009.9 25.78C1011.56 25.78 1012.66 26.82 1012.66 28.84V35ZM1022.46 25.72C1024.16 25.72 1025.5 26.8 1025.54 28.5H1019.44C1019.68 26.76 1020.92 25.72 1022.46 25.72ZM1027.62 31.72H1025.16C1024.74 32.58 1023.96 33.26 1022.56 33.26C1020.88 33.26 1019.58 32.16 1019.42 30.34H1027.84C1027.9 29.96 1027.92 29.6 1027.92 29.22C1027.92 25.98 1025.7 23.8 1022.56 23.8C1019.3 23.8 1017.06 26.02 1017.06 29.48C1017.06 32.94 1019.4 35.18 1022.56 35.18C1025.26 35.18 1027 33.64 1027.62 31.72ZM1037.99 35H1040.25V28.5C1040.25 25.42 1038.31 23.8 1035.73 23.8C1034.41 23.8 1033.19 24.34 1032.45 25.24V23.98H1030.17V35H1032.45V28.84C1032.45 26.82 1033.55 25.78 1035.23 25.78C1036.89 25.78 1037.99 26.82 1037.99 28.84V35ZM1043.52 31.94C1043.52 34.18 1044.74 35 1046.7 35H1048.5V33.1H1047.1C1046.14 33.1 1045.82 32.76 1045.82 31.94V25.84H1048.5V23.98H1045.82V21.24H1043.52V23.98H1042.22V25.84H1043.52V31.94ZM1055.24 25.72C1056.94 25.72 1058.28 26.8 1058.32 28.5H1052.22C1052.46 26.76 1053.7 25.72 1055.24 25.72ZM1060.4 31.72H1057.94C1057.52 32.58 1056.74 33.26 1055.34 33.26C1053.66 33.26 1052.36 32.16 1052.2 30.34H1060.62C1060.68 29.96 1060.7 29.6 1060.7 29.22C1060.7 25.98 1058.48 23.8 1055.34 23.8C1052.08 23.8 1049.84 26.02 1049.84 29.48C1049.84 32.94 1052.18 35.18 1055.34 35.18C1058.04 35.18 1059.78 33.64 1060.4 31.72ZM1062.18 29.44C1062.18 32.84 1064.48 35.18 1067.38 35.18C1069.18 35.18 1070.5 34.34 1071.2 33.34V35H1073.5V20.2H1071.2V25.52C1070.36 24.48 1068.84 23.8 1067.4 23.8C1064.48 23.8 1062.18 26.04 1062.18 29.44ZM1071.2 29.48C1071.2 31.86 1069.58 33.2 1067.86 33.2C1066.16 33.2 1064.52 31.82 1064.52 29.44C1064.52 27.06 1066.16 25.78 1067.86 25.78C1069.58 25.78 1071.2 27.12 1071.2 29.48ZM1089.07 25.26C1089.07 26.64 1088.27 27.62 1086.49 27.62H1083.97V22.96H1086.49C1088.27 22.96 1089.07 23.86 1089.07 25.26ZM1081.69 21.1V35H1083.97V29.44H1085.71L1088.91 35H1091.63L1088.19 29.24C1090.53 28.66 1091.41 26.9 1091.41 25.26C1091.41 23 1089.79 21.1 1086.49 21.1H1081.69ZM1098.97 25.72C1100.67 25.72 1102.01 26.8 1102.05 28.5H1095.95C1096.19 26.76 1097.43 25.72 1098.97 25.72ZM1104.13 31.72H1101.67C1101.25 32.58 1100.47 33.26 1099.07 33.26C1097.39 33.26 1096.09 32.16 1095.93 30.34H1104.35C1104.41 29.96 1104.43 29.6 1104.43 29.22C1104.43 25.98 1102.21 23.8 1099.07 23.8C1095.81 23.8 1093.57 26.02 1093.57 29.48C1093.57 32.94 1095.91 35.18 1099.07 35.18C1101.77 35.18 1103.51 33.64 1104.13 31.72ZM1105.91 29.44C1105.91 32.84 1108.21 35.18 1111.07 35.18C1112.91 35.18 1114.23 34.3 1114.93 33.36V35H1117.23V23.98H1114.93V25.58C1114.25 24.68 1112.97 23.8 1111.11 23.8C1108.21 23.8 1105.91 26.04 1105.91 29.44ZM1114.93 29.48C1114.93 31.86 1113.31 33.2 1111.59 33.2C1109.89 33.2 1108.25 31.82 1108.25 29.44C1108.25 27.06 1109.89 25.78 1111.59 25.78C1113.31 25.78 1114.93 27.12 1114.93 29.48ZM1120.23 35H1122.51V20.2H1120.23V35ZM1125.5 35H1127.78V23.98H1125.5V35ZM1126.66 22.52C1127.46 22.52 1128.1 21.88 1128.1 21.06C1128.1 20.24 1127.46 19.6 1126.66 19.6C1125.84 19.6 1125.2 20.24 1125.2 21.06C1125.2 21.88 1125.84 22.52 1126.66 22.52ZM1131.13 31.94C1131.13 34.18 1132.35 35 1134.31 35H1136.11V33.1H1134.71C1133.75 33.1 1133.43 32.76 1133.43 31.94V25.84H1136.11V23.98H1133.43V21.24H1131.13V23.98H1129.83V25.84H1131.13V31.94ZM1142.55 32.38L1139.45 23.98H1136.91L1141.25 34.82L1139.01 40.18H1141.37L1148.13 23.98H1145.77L1142.55 32.38ZM1154.29 29.44C1154.29 32.84 1156.59 35.18 1159.45 35.18C1161.29 35.18 1162.61 34.3 1163.31 33.36V35H1165.61V23.98H1163.31V25.58C1162.63 24.68 1161.35 23.8 1159.49 23.8C1156.59 23.8 1154.29 26.04 1154.29 29.44ZM1163.31 29.48C1163.31 31.86 1161.69 33.2 1159.97 33.2C1158.27 33.2 1156.63 31.82 1156.63 29.44C1156.63 27.06 1158.27 25.78 1159.97 25.78C1161.69 25.78 1163.31 27.12 1163.31 29.48ZM1176.43 35H1178.69V28.5C1178.69 25.42 1176.75 23.8 1174.17 23.8C1172.85 23.8 1171.63 24.34 1170.89 25.24V23.98H1168.61V35H1170.89V28.84C1170.89 26.82 1171.99 25.78 1173.67 25.78C1175.33 25.78 1176.43 26.82 1176.43 28.84V35ZM1180.83 29.44C1180.83 32.84 1183.13 35.18 1186.03 35.18C1187.83 35.18 1189.15 34.34 1189.85 33.34V35H1192.15V20.2H1189.85V25.52C1189.01 24.48 1187.49 23.8 1186.05 23.8C1183.13 23.8 1180.83 26.04 1180.83 29.44ZM1189.85 29.48C1189.85 31.86 1188.23 33.2 1186.51 33.2C1184.81 33.2 1183.17 31.82 1183.17 29.44C1183.17 27.06 1184.81 25.78 1186.51 25.78C1188.23 25.78 1189.85 27.12 1189.85 29.48ZM973.713 57.66L969.593 46.1H967.153L972.393 60H975.033L980.253 46.1H977.853L973.713 57.66ZM982.16 60H984.44V48.98H982.16V60ZM983.32 47.52C984.12 47.52 984.76 46.88 984.76 46.06C984.76 45.24 984.12 44.6 983.32 44.6C982.5 44.6 981.86 45.24 981.86 46.06C981.86 46.88 982.5 47.52 983.32 47.52ZM989.714 54.2C989.714 51.86 990.754 51.16 992.434 51.16H993.014V48.8C991.454 48.8 990.354 49.48 989.714 50.58V48.98H987.434V60H989.714V54.2ZM995.469 56.94C995.469 59.18 996.689 60 998.649 60H1000.45V58.1H999.049C998.089 58.1 997.769 57.76 997.769 56.94V50.84H1000.45V48.98H997.769V46.24H995.469V48.98H994.169V50.84H995.469V56.94ZM1012.53 48.98H1010.25V55.12C1010.25 57.14 1009.15 58.18 1007.47 58.18C1005.81 58.18 1004.71 57.14 1004.71 55.12V48.98H1002.45V55.46C1002.45 58.54 1004.41 60.16 1006.99 60.16C1008.29 60.16 1009.53 59.62 1010.25 58.68V60H1012.53V48.98ZM1014.78 54.44C1014.78 57.84 1017.08 60.18 1019.94 60.18C1021.78 60.18 1023.1 59.3 1023.8 58.36V60H1026.1V48.98H1023.8V50.58C1023.12 49.68 1021.84 48.8 1019.98 48.8C1017.08 48.8 1014.78 51.04 1014.78 54.44ZM1023.8 54.48C1023.8 56.86 1022.18 58.2 1020.46 58.2C1018.76 58.2 1017.12 56.82 1017.12 54.44C1017.12 52.06 1018.76 50.78 1020.46 50.78C1022.18 50.78 1023.8 52.12 1023.8 54.48ZM1029.09 60H1031.37V45.2H1029.09V60ZM1046.94 50.26C1046.94 51.64 1046.14 52.62 1044.36 52.62H1041.84V47.96H1044.36C1046.14 47.96 1046.94 48.86 1046.94 50.26ZM1039.56 46.1V60H1041.84V54.44H1043.58L1046.78 60H1049.5L1046.06 54.24C1048.4 53.66 1049.28 51.9 1049.28 50.26C1049.28 48 1047.66 46.1 1044.36 46.1H1039.56ZM1056.84 50.72C1058.54 50.72 1059.88 51.8 1059.92 53.5H1053.82C1054.06 51.76 1055.3 50.72 1056.84 50.72ZM1062 56.72H1059.54C1059.12 57.58 1058.34 58.26 1056.94 58.26C1055.26 58.26 1053.96 57.16 1053.8 55.34H1062.22C1062.28 54.96 1062.3 54.6 1062.3 54.22C1062.3 50.98 1060.08 48.8 1056.94 48.8C1053.68 48.8 1051.44 51.02 1051.44 54.48C1051.44 57.94 1053.78 60.18 1056.94 60.18C1059.64 60.18 1061.38 58.64 1062 56.72ZM1063.78 54.44C1063.78 57.84 1066.08 60.18 1068.94 60.18C1070.78 60.18 1072.1 59.3 1072.8 58.36V60H1075.1V48.98H1072.8V50.58C1072.12 49.68 1070.84 48.8 1068.98 48.8C1066.08 48.8 1063.78 51.04 1063.78 54.44ZM1072.8 54.48C1072.8 56.86 1071.18 58.2 1069.46 58.2C1067.76 58.2 1066.12 56.82 1066.12 54.44C1066.12 52.06 1067.76 50.78 1069.46 50.78C1071.18 50.78 1072.8 52.12 1072.8 54.48ZM1078.1 60H1080.38V45.2H1078.1V60ZM1083.37 60H1085.65V48.98H1083.37V60ZM1084.53 47.52C1085.33 47.52 1085.97 46.88 1085.97 46.06C1085.97 45.24 1085.33 44.6 1084.53 44.6C1083.71 44.6 1083.07 45.24 1083.07 46.06C1083.07 46.88 1083.71 47.52 1084.53 47.52ZM1089 56.94C1089 59.18 1090.22 60 1092.18 60H1093.98V58.1H1092.58C1091.62 58.1 1091.3 57.76 1091.3 56.94V50.84H1093.98V48.98H1091.3V46.24H1089V48.98H1087.7V50.84H1089V56.94ZM1100.43 57.38L1097.33 48.98H1094.79L1099.13 59.82L1096.89 65.18H1099.25L1106.01 48.98H1103.65L1100.43 57.38Z" fill="#212832"/>
<rect x="834.5" y="0.5" width="404" height="79" stroke="black" stroke-opacity="0.5"/>
<rect x="834" y="261" width="405" height="80" fill="white"/>
<path d="M1003.64 301.72H1011.86V299.8H1003.64V301.72ZM1015.34 301.72H1023.56V299.8H1015.34V301.72ZM1027.04 301.72H1035.26V299.8H1027.04V301.72ZM1038.74 301.72H1046.96V299.8H1038.74V301.72ZM1050.44 301.72H1058.66V299.8H1050.44V301.72ZM1062.14 301.72H1070.36V299.8H1062.14V301.72Z" fill="#212832"/>
<rect x="834.5" y="261.5" width="404" height="79" stroke="black" stroke-opacity="0.5"/>
<rect x="834" y="87" width="405" height="80" fill="white"/>
<path d="M887.883 122H890.163V112.48L894.423 122H896.003L900.243 112.48V122H902.523V108.1H900.083L895.223 119L890.343 108.1H887.883V122ZM904.76 115.02C904.76 119.2 907.94 122.12 911.86 122.12C914.76 122.12 917.26 120.68 918.32 117.96H915.58C914.84 119.44 913.52 120.14 911.86 120.14C909.1 120.14 907.1 118.16 907.1 115.02C907.1 111.88 909.1 109.92 911.86 109.92C913.52 109.92 914.84 110.62 915.58 112.1H918.32C917.26 109.38 914.76 107.92 911.86 107.92C907.94 107.92 904.76 110.86 904.76 115.02ZM930.368 122H932.768L927.788 108.08H925.148L920.168 122H922.548L923.548 119.16H929.368L930.368 122ZM928.728 117.3H924.188L926.468 110.84L928.728 117.3ZM940.129 122H942.409V110.98H940.129V122ZM941.289 109.52C942.089 109.52 942.729 108.88 942.729 108.06C942.729 107.24 942.089 106.6 941.289 106.6C940.469 106.6 939.829 107.24 939.829 108.06C939.829 108.88 940.469 109.52 941.289 109.52ZM953.222 122H955.482V115.5C955.482 112.42 953.542 110.8 950.962 110.8C949.642 110.8 948.422 111.34 947.682 112.24V110.98H945.402V122H947.682V115.84C947.682 113.82 948.782 112.78 950.462 112.78C952.122 112.78 953.222 113.82 953.222 115.84V122ZM963.586 122H965.866V112.48L970.126 122H971.706L975.946 112.48V122H978.226V108.1H975.786L970.926 119L966.046 108.1H963.586V122ZM980.463 116.44C980.463 119.84 982.763 122.18 985.623 122.18C987.463 122.18 988.783 121.3 989.483 120.36V122H991.783V110.98H989.483V112.58C988.803 111.68 987.523 110.8 985.663 110.8C982.763 110.8 980.463 113.04 980.463 116.44ZM989.483 116.48C989.483 118.86 987.863 120.2 986.143 120.2C984.443 120.2 982.803 118.82 982.803 116.44C982.803 114.06 984.443 112.78 986.143 112.78C987.863 112.78 989.483 114.12 989.483 116.48ZM994.017 116.48C994.017 119.94 996.257 122.18 999.417 122.18C1002.12 122.18 1003.88 120.68 1004.5 118.52H1002.04C1001.62 119.66 1000.78 120.26 999.417 120.26C997.577 120.26 996.357 118.9 996.357 116.48C996.357 114.08 997.577 112.72 999.417 112.72C1000.78 112.72 1001.66 113.4 1002.04 114.46H1004.5C1003.88 112.14 1002.12 110.8 999.417 110.8C996.257 110.8 994.017 113.04 994.017 116.48ZM1006.77 122H1009.05V115.84C1009.05 113.82 1010.15 112.78 1011.83 112.78C1013.49 112.78 1014.59 113.82 1014.59 115.84V122H1016.85V115.5C1016.85 112.42 1014.93 110.8 1012.47 110.8C1011.05 110.8 1009.81 111.34 1009.05 112.26V107.2H1006.77V122ZM1019.76 122H1022.04V110.98H1019.76V122ZM1020.92 109.52C1021.72 109.52 1022.36 108.88 1022.36 108.06C1022.36 107.24 1021.72 106.6 1020.92 106.6C1020.1 106.6 1019.46 107.24 1019.46 108.06C1019.46 108.88 1020.1 109.52 1020.92 109.52ZM1032.85 122H1035.11V115.5C1035.11 112.42 1033.17 110.8 1030.59 110.8C1029.27 110.8 1028.05 111.34 1027.31 112.24V110.98H1025.03V122H1027.31V115.84C1027.31 113.82 1028.41 112.78 1030.09 112.78C1031.75 112.78 1032.85 113.82 1032.85 115.84V122ZM1042.66 112.72C1044.36 112.72 1045.7 113.8 1045.74 115.5H1039.64C1039.88 113.76 1041.12 112.72 1042.66 112.72ZM1047.82 118.72H1045.36C1044.94 119.58 1044.16 120.26 1042.76 120.26C1041.08 120.26 1039.78 119.16 1039.62 117.34H1048.04C1048.1 116.96 1048.12 116.6 1048.12 116.22C1048.12 112.98 1045.9 110.8 1042.76 110.8C1039.5 110.8 1037.26 113.02 1037.26 116.48C1037.26 119.94 1039.6 122.18 1042.76 122.18C1045.46 122.18 1047.2 120.64 1047.82 118.72ZM1055.56 108.1V122H1062.54V120.16H1057.84V108.1H1055.56ZM1069.09 112.72C1070.79 112.72 1072.13 113.8 1072.17 115.5H1066.07C1066.31 113.76 1067.55 112.72 1069.09 112.72ZM1074.25 118.72H1071.79C1071.37 119.58 1070.59 120.26 1069.19 120.26C1067.51 120.26 1066.21 119.16 1066.05 117.34H1074.47C1074.53 116.96 1074.55 116.6 1074.55 116.22C1074.55 112.98 1072.33 110.8 1069.19 110.8C1065.93 110.8 1063.69 113.02 1063.69 116.48C1063.69 119.94 1066.03 122.18 1069.19 122.18C1071.89 122.18 1073.63 120.64 1074.25 118.72ZM1076.03 116.44C1076.03 119.84 1078.33 122.18 1081.19 122.18C1083.03 122.18 1084.35 121.3 1085.05 120.36V122H1087.35V110.98H1085.05V112.58C1084.37 111.68 1083.09 110.8 1081.23 110.8C1078.33 110.8 1076.03 113.04 1076.03 116.44ZM1085.05 116.48C1085.05 118.86 1083.43 120.2 1081.71 120.2C1080.01 120.2 1078.37 118.82 1078.37 116.44C1078.37 114.06 1080.01 112.78 1081.71 112.78C1083.43 112.78 1085.05 114.12 1085.05 116.48ZM1092.62 116.2C1092.62 113.86 1093.66 113.16 1095.34 113.16H1095.92V110.8C1094.36 110.8 1093.26 111.48 1092.62 112.58V110.98H1090.34V122H1092.62V116.2ZM1105.84 122H1108.1V115.5C1108.1 112.42 1106.16 110.8 1103.58 110.8C1102.26 110.8 1101.04 111.34 1100.3 112.24V110.98H1098.02V122H1100.3V115.84C1100.3 113.82 1101.4 112.78 1103.08 112.78C1104.74 112.78 1105.84 113.82 1105.84 115.84V122ZM1111.01 122H1113.29V110.98H1111.01V122ZM1112.17 109.52C1112.97 109.52 1113.61 108.88 1113.61 108.06C1113.61 107.24 1112.97 106.6 1112.17 106.6C1111.35 106.6 1110.71 107.24 1110.71 108.06C1110.71 108.88 1111.35 109.52 1112.17 109.52ZM1124.1 122H1126.36V115.5C1126.36 112.42 1124.42 110.8 1121.84 110.8C1120.52 110.8 1119.3 111.34 1118.56 112.24V110.98H1116.28V122H1118.56V115.84C1118.56 113.82 1119.66 112.78 1121.34 112.78C1123 112.78 1124.1 113.82 1124.1 115.84V122ZM1128.51 116.44C1128.51 119.84 1130.81 122.18 1133.71 122.18C1135.51 122.18 1136.83 121.28 1137.53 120.34V122.18C1137.53 124.38 1136.21 125.46 1134.45 125.46C1132.87 125.46 1131.65 124.68 1131.31 123.54H1129.05C1129.33 125.98 1131.51 127.44 1134.45 127.44C1137.89 127.44 1139.83 125.18 1139.83 122.18V110.98H1137.53V112.58C1136.85 111.64 1135.51 110.8 1133.71 110.8C1130.81 110.8 1128.51 113.04 1128.51 116.44ZM1137.53 116.48C1137.53 118.86 1135.91 120.2 1134.19 120.2C1132.49 120.2 1130.85 118.82 1130.85 116.44C1130.85 114.06 1132.49 112.78 1134.19 112.78C1135.91 112.78 1137.53 114.12 1137.53 116.48ZM1147.26 116.44C1147.26 119.84 1149.56 122.18 1152.42 122.18C1154.26 122.18 1155.58 121.3 1156.28 120.36V122H1158.58V110.98H1156.28V112.58C1155.6 111.68 1154.32 110.8 1152.46 110.8C1149.56 110.8 1147.26 113.04 1147.26 116.44ZM1156.28 116.48C1156.28 118.86 1154.66 120.2 1152.94 120.2C1151.24 120.2 1149.6 118.82 1149.6 116.44C1149.6 114.06 1151.24 112.78 1152.94 112.78C1154.66 112.78 1156.28 114.12 1156.28 116.48ZM1169.39 122H1171.65V115.5C1171.65 112.42 1169.71 110.8 1167.13 110.8C1165.81 110.8 1164.59 111.34 1163.85 112.24V110.98H1161.57V122H1163.85V115.84C1163.85 113.82 1164.95 112.78 1166.63 112.78C1168.29 112.78 1169.39 113.82 1169.39 115.84V122ZM1173.8 116.44C1173.8 119.84 1176.1 122.18 1179 122.18C1180.8 122.18 1182.12 121.34 1182.82 120.34V122H1185.12V107.2H1182.82V112.52C1181.98 111.48 1180.46 110.8 1179.02 110.8C1176.1 110.8 1173.8 113.04 1173.8 116.44ZM1182.82 116.48C1182.82 118.86 1181.2 120.2 1179.48 120.2C1177.78 120.2 1176.14 118.82 1176.14 116.44C1176.14 114.06 1177.78 112.78 1179.48 112.78C1181.2 112.78 1182.82 114.12 1182.82 116.48ZM945.066 147H947.466L942.486 133.08H939.846L934.866 147H937.246L938.246 144.16H944.066L945.066 147ZM943.426 142.3H938.886L941.166 135.84L943.426 142.3ZM951.911 141.2C951.911 138.86 952.951 138.16 954.631 138.16H955.211V135.8C953.651 135.8 952.551 136.48 951.911 137.58V135.98H949.631V147H951.911V141.2ZM957.667 143.94C957.667 146.18 958.887 147 960.847 147H962.647V145.1H961.247C960.287 145.1 959.967 144.76 959.967 143.94V137.84H962.647V135.98H959.967V133.24H957.667V135.98H956.367V137.84H957.667V143.94ZM964.748 147H967.028V135.98H964.748V147ZM965.908 134.52C966.708 134.52 967.348 133.88 967.348 133.06C967.348 132.24 966.708 131.6 965.908 131.6C965.088 131.6 964.448 132.24 964.448 133.06C964.448 133.88 965.088 134.52 965.908 134.52ZM970.301 147H972.601V137.84H974.641V135.98H972.601V135.2C972.601 133.94 973.081 133.46 974.481 133.46V131.56C971.601 131.56 970.301 132.66 970.301 135.2V135.98H969.001V137.84H970.301V147ZM976.662 147H978.942V135.98H976.662V147ZM977.822 134.52C978.622 134.52 979.262 133.88 979.262 133.06C979.262 132.24 978.622 131.6 977.822 131.6C977.002 131.6 976.362 132.24 976.362 133.06C976.362 133.88 977.002 134.52 977.822 134.52ZM981.176 141.48C981.176 144.94 983.416 147.18 986.576 147.18C989.276 147.18 991.036 145.68 991.656 143.52H989.196C988.776 144.66 987.936 145.26 986.576 145.26C984.736 145.26 983.516 143.9 983.516 141.48C983.516 139.08 984.736 137.72 986.576 137.72C987.936 137.72 988.816 138.4 989.196 139.46H991.656C991.036 137.14 989.276 135.8 986.576 135.8C983.416 135.8 981.176 138.04 981.176 141.48ZM993.928 147H996.208V135.98H993.928V147ZM995.088 134.52C995.888 134.52 996.528 133.88 996.528 133.06C996.528 132.24 995.888 131.6 995.088 131.6C994.268 131.6 993.628 132.24 993.628 133.06C993.628 133.88 994.268 134.52 995.088 134.52ZM998.441 141.44C998.441 144.84 1000.74 147.18 1003.6 147.18C1005.44 147.18 1006.76 146.3 1007.46 145.36V147H1009.76V135.98H1007.46V137.58C1006.78 136.68 1005.5 135.8 1003.64 135.8C1000.74 135.8 998.441 138.04 998.441 141.44ZM1007.46 141.48C1007.46 143.86 1005.84 145.2 1004.12 145.2C1002.42 145.2 1000.78 143.82 1000.78 141.44C1000.78 139.06 1002.42 137.78 1004.12 137.78C1005.84 137.78 1007.46 139.12 1007.46 141.48ZM1012.76 147H1015.04V132.2H1012.76V147ZM1023.22 147H1025.5V133.1H1023.22V147ZM1036.32 147H1038.58V140.5C1038.58 137.42 1036.64 135.8 1034.06 135.8C1032.74 135.8 1031.52 136.34 1030.78 137.24V135.98H1028.5V147H1030.78V140.84C1030.78 138.82 1031.88 137.78 1033.56 137.78C1035.22 137.78 1036.32 138.82 1036.32 140.84V147ZM1041.85 143.94C1041.85 146.18 1043.07 147 1045.03 147H1046.83V145.1H1045.43C1044.47 145.1 1044.15 144.76 1044.15 143.94V137.84H1046.83V135.98H1044.15V133.24H1041.85V135.98H1040.55V137.84H1041.85V143.94ZM1053.57 137.72C1055.27 137.72 1056.61 138.8 1056.65 140.5H1050.55C1050.79 138.76 1052.03 137.72 1053.57 137.72ZM1058.73 143.72H1056.27C1055.85 144.58 1055.07 145.26 1053.67 145.26C1051.99 145.26 1050.69 144.16 1050.53 142.34H1058.95C1059.01 141.96 1059.03 141.6 1059.03 141.22C1059.03 137.98 1056.81 135.8 1053.67 135.8C1050.41 135.8 1048.17 138.02 1048.17 141.48C1048.17 144.94 1050.51 147.18 1053.67 147.18C1056.37 147.18 1058.11 145.64 1058.73 143.72ZM1061.27 147H1063.55V132.2H1061.27V147ZM1066.54 147H1068.82V132.2H1066.54V147ZM1071.82 147H1074.1V135.98H1071.82V147ZM1072.98 134.52C1073.78 134.52 1074.42 133.88 1074.42 133.06C1074.42 132.24 1073.78 131.6 1072.98 131.6C1072.16 131.6 1071.52 132.24 1071.52 133.06C1071.52 133.88 1072.16 134.52 1072.98 134.52ZM1076.33 141.44C1076.33 144.84 1078.63 147.18 1081.53 147.18C1083.33 147.18 1084.65 146.28 1085.35 145.34V147.18C1085.35 149.38 1084.03 150.46 1082.27 150.46C1080.69 150.46 1079.47 149.68 1079.13 148.54H1076.87C1077.15 150.98 1079.33 152.44 1082.27 152.44C1085.71 152.44 1087.65 150.18 1087.65 147.18V135.98H1085.35V137.58C1084.67 136.64 1083.33 135.8 1081.53 135.8C1078.63 135.8 1076.33 138.04 1076.33 141.44ZM1085.35 141.48C1085.35 143.86 1083.73 145.2 1082.01 145.2C1080.31 145.2 1078.67 143.82 1078.67 141.44C1078.67 139.06 1080.31 137.78 1082.01 137.78C1083.73 137.78 1085.35 139.12 1085.35 141.48ZM1095.29 137.72C1096.99 137.72 1098.33 138.8 1098.37 140.5H1092.27C1092.51 138.76 1093.75 137.72 1095.29 137.72ZM1100.45 143.72H1097.99C1097.57 144.58 1096.79 145.26 1095.39 145.26C1093.71 145.26 1092.41 144.16 1092.25 142.34H1100.67C1100.73 141.96 1100.75 141.6 1100.75 141.22C1100.75 137.98 1098.53 135.8 1095.39 135.8C1092.13 135.8 1089.89 138.02 1089.89 141.48C1089.89 144.94 1092.23 147.18 1095.39 147.18C1098.09 147.18 1099.83 145.64 1100.45 143.72ZM1110.81 147H1113.07V140.5C1113.07 137.42 1111.13 135.8 1108.55 135.8C1107.23 135.8 1106.01 136.34 1105.27 137.24V135.98H1102.99V147H1105.27V140.84C1105.27 138.82 1106.37 137.78 1108.05 137.78C1109.71 137.78 1110.81 138.82 1110.81 140.84V147ZM1115.22 141.48C1115.22 144.94 1117.46 147.18 1120.62 147.18C1123.32 147.18 1125.08 145.68 1125.7 143.52H1123.24C1122.82 144.66 1121.98 145.26 1120.62 145.26C1118.78 145.26 1117.56 143.9 1117.56 141.48C1117.56 139.08 1118.78 137.72 1120.62 137.72C1121.98 137.72 1122.86 138.4 1123.24 139.46H1125.7C1125.08 137.14 1123.32 135.8 1120.62 135.8C1117.46 135.8 1115.22 138.04 1115.22 141.48ZM1132.61 137.72C1134.31 137.72 1135.65 138.8 1135.69 140.5H1129.59C1129.83 138.76 1131.07 137.72 1132.61 137.72ZM1137.77 143.72H1135.31C1134.89 144.58 1134.11 145.26 1132.71 145.26C1131.03 145.26 1129.73 144.16 1129.57 142.34H1137.99C1138.05 141.96 1138.07 141.6 1138.07 141.22C1138.07 137.98 1135.85 135.8 1132.71 135.8C1129.45 135.8 1127.21 138.02 1127.21 141.48C1127.21 144.94 1129.55 147.18 1132.71 147.18C1135.41 147.18 1137.15 145.64 1137.77 143.72Z" fill="#212832"/>
<rect x="834.5" y="87.5" width="404" height="79" stroke="black" stroke-opacity="0.5"/>
<rect x="834" y="174" width="405" height="80" fill="white"/>
<path d="M911.029 222H913.309V212.48L917.569 222H919.149L923.389 212.48V222H925.669V208.1H923.229L918.369 219L913.489 208.1H911.029V222ZM927.906 215.02C927.906 219.2 931.086 222.12 935.006 222.12C937.906 222.12 940.406 220.68 941.466 217.96H938.726C937.986 219.44 936.666 220.14 935.006 220.14C932.246 220.14 930.246 218.16 930.246 215.02C930.246 211.88 932.246 209.92 935.006 209.92C936.666 209.92 937.986 210.62 938.726 212.1H941.466C940.406 209.38 937.906 207.92 935.006 207.92C931.086 207.92 927.906 210.86 927.906 215.02ZM953.515 222H955.915L950.935 208.08H948.295L943.315 222H945.695L946.695 219.16H952.515L953.515 222ZM951.875 217.3H947.335L949.615 210.84L951.875 217.3ZM963.275 222H965.555V210.98H963.275V222ZM964.435 209.52C965.235 209.52 965.875 208.88 965.875 208.06C965.875 207.24 965.235 206.6 964.435 206.6C963.615 206.6 962.975 207.24 962.975 208.06C962.975 208.88 963.615 209.52 964.435 209.52ZM976.369 222H978.629V215.5C978.629 212.42 976.689 210.8 974.109 210.8C972.789 210.8 971.569 211.34 970.829 212.24V210.98H968.549V222H970.829V215.84C970.829 213.82 971.929 212.78 973.609 212.78C975.269 212.78 976.369 213.82 976.369 215.84V222ZM986.732 222H989.012V212.48L993.272 222H994.852L999.092 212.48V222H1001.37V208.1H998.932L994.072 219L989.192 208.1H986.732V222ZM1003.61 216.44C1003.61 219.84 1005.91 222.18 1008.77 222.18C1010.61 222.18 1011.93 221.3 1012.63 220.36V222H1014.93V210.98H1012.63V212.58C1011.95 211.68 1010.67 210.8 1008.81 210.8C1005.91 210.8 1003.61 213.04 1003.61 216.44ZM1012.63 216.48C1012.63 218.86 1011.01 220.2 1009.29 220.2C1007.59 220.2 1005.95 218.82 1005.95 216.44C1005.95 214.06 1007.59 212.78 1009.29 212.78C1011.01 212.78 1012.63 214.12 1012.63 216.48ZM1017.16 216.48C1017.16 219.94 1019.4 222.18 1022.56 222.18C1025.26 222.18 1027.02 220.68 1027.64 218.52H1025.18C1024.76 219.66 1023.92 220.26 1022.56 220.26C1020.72 220.26 1019.5 218.9 1019.5 216.48C1019.5 214.08 1020.72 212.72 1022.56 212.72C1023.92 212.72 1024.8 213.4 1025.18 214.46H1027.64C1027.02 212.14 1025.26 210.8 1022.56 210.8C1019.4 210.8 1017.16 213.04 1017.16 216.48ZM1029.92 222H1032.2V215.84C1032.2 213.82 1033.3 212.78 1034.98 212.78C1036.64 212.78 1037.74 213.82 1037.74 215.84V222H1040V215.5C1040 212.42 1038.08 210.8 1035.62 210.8C1034.2 210.8 1032.96 211.34 1032.2 212.26V207.2H1029.92V222ZM1042.9 222H1045.18V210.98H1042.9V222ZM1044.06 209.52C1044.86 209.52 1045.5 208.88 1045.5 208.06C1045.5 207.24 1044.86 206.6 1044.06 206.6C1043.24 206.6 1042.6 207.24 1042.6 208.06C1042.6 208.88 1043.24 209.52 1044.06 209.52ZM1056 222H1058.26V215.5C1058.26 212.42 1056.32 210.8 1053.74 210.8C1052.42 210.8 1051.2 211.34 1050.46 212.24V210.98H1048.18V222H1050.46V215.84C1050.46 213.82 1051.56 212.78 1053.24 212.78C1054.9 212.78 1056 213.82 1056 215.84V222ZM1065.81 212.72C1067.51 212.72 1068.85 213.8 1068.89 215.5H1062.79C1063.03 213.76 1064.27 212.72 1065.81 212.72ZM1070.97 218.72H1068.51C1068.09 219.58 1067.31 220.26 1065.91 220.26C1064.23 220.26 1062.93 219.16 1062.77 217.34H1071.19C1071.25 216.96 1071.27 216.6 1071.27 216.22C1071.27 212.98 1069.05 210.8 1065.91 210.8C1062.65 210.8 1060.41 213.02 1060.41 216.48C1060.41 219.94 1062.75 222.18 1065.91 222.18C1068.61 222.18 1070.35 220.64 1070.97 218.72ZM1078.71 208.1V222H1085.69V220.16H1080.99V208.1H1078.71ZM1092.23 212.72C1093.93 212.72 1095.27 213.8 1095.31 215.5H1089.21C1089.45 213.76 1090.69 212.72 1092.23 212.72ZM1097.39 218.72H1094.93C1094.51 219.58 1093.73 220.26 1092.33 220.26C1090.65 220.26 1089.35 219.16 1089.19 217.34H1097.61C1097.67 216.96 1097.69 216.6 1097.69 216.22C1097.69 212.98 1095.47 210.8 1092.33 210.8C1089.07 210.8 1086.83 213.02 1086.83 216.48C1086.83 219.94 1089.17 222.18 1092.33 222.18C1095.03 222.18 1096.77 220.64 1097.39 218.72ZM1099.18 216.44C1099.18 219.84 1101.48 222.18 1104.34 222.18C1106.18 222.18 1107.5 221.3 1108.2 220.36V222H1110.5V210.98H1108.2V212.58C1107.52 211.68 1106.24 210.8 1104.38 210.8C1101.48 210.8 1099.18 213.04 1099.18 216.44ZM1108.2 216.48C1108.2 218.86 1106.58 220.2 1104.86 220.2C1103.16 220.2 1101.52 218.82 1101.52 216.44C1101.52 214.06 1103.16 212.78 1104.86 212.78C1106.58 212.78 1108.2 214.12 1108.2 216.48ZM1115.77 216.2C1115.77 213.86 1116.81 213.16 1118.49 213.16H1119.07V210.8C1117.51 210.8 1116.41 211.48 1115.77 212.58V210.98H1113.49V222H1115.77V216.2ZM1128.99 222H1131.25V215.5C1131.25 212.42 1129.31 210.8 1126.73 210.8C1125.41 210.8 1124.19 211.34 1123.45 212.24V210.98H1121.17V222H1123.45V215.84C1123.45 213.82 1124.55 212.78 1126.23 212.78C1127.89 212.78 1128.99 213.82 1128.99 215.84V222ZM1134.15 222H1136.43V210.98H1134.15V222ZM1135.31 209.52C1136.11 209.52 1136.75 208.88 1136.75 208.06C1136.75 207.24 1136.11 206.6 1135.31 206.6C1134.49 206.6 1133.85 207.24 1133.85 208.06C1133.85 208.88 1134.49 209.52 1135.31 209.52ZM1147.25 222H1149.51V215.5C1149.51 212.42 1147.57 210.8 1144.99 210.8C1143.67 210.8 1142.45 211.34 1141.71 212.24V210.98H1139.43V222H1141.71V215.84C1141.71 213.82 1142.81 212.78 1144.49 212.78C1146.15 212.78 1147.25 213.82 1147.25 215.84V222ZM1151.66 216.44C1151.66 219.84 1153.96 222.18 1156.86 222.18C1158.66 222.18 1159.98 221.28 1160.68 220.34V222.18C1160.68 224.38 1159.36 225.46 1157.6 225.46C1156.02 225.46 1154.8 224.68 1154.46 223.54H1152.2C1152.48 225.98 1154.66 227.44 1157.6 227.44C1161.04 227.44 1162.98 225.18 1162.98 222.18V210.98H1160.68V212.58C1160 211.64 1158.66 210.8 1156.86 210.8C1153.96 210.8 1151.66 213.04 1151.66 216.44ZM1160.68 216.48C1160.68 218.86 1159.06 220.2 1157.34 220.2C1155.64 220.2 1154 218.82 1154 216.44C1154 214.06 1155.64 212.78 1157.34 212.78C1159.06 212.78 1160.68 214.12 1160.68 216.48Z" fill="#212832"/>
<rect x="834.5" y="174.5" width="404" height="79" stroke="black" stroke-opacity="0.5"/>
<rect x="417" width="405" height="80" fill="white"/>
<path d="M509.789 48H512.069V38.48L516.329 48H517.909L522.149 38.48V48H524.429V34.1H521.989L517.129 45L512.249 34.1H509.789V48ZM526.666 41.02C526.666 45.2 529.846 48.12 533.766 48.12C536.666 48.12 539.166 46.68 540.226 43.96H537.486C536.746 45.44 535.426 46.14 533.766 46.14C531.006 46.14 529.006 44.16 529.006 41.02C529.006 37.88 531.006 35.92 533.766 35.92C535.426 35.92 536.746 36.62 537.486 38.1H540.226C539.166 35.38 536.666 33.92 533.766 33.92C529.846 33.92 526.666 36.86 526.666 41.02ZM552.275 48H554.675L549.695 34.08H547.055L542.075 48H544.455L545.455 45.16H551.275L552.275 48ZM550.635 43.3H546.095L548.375 36.84L550.635 43.3ZM562.035 48H564.315V34.1H562.035V48ZM575.129 48H577.389V41.5C577.389 38.42 575.449 36.8 572.869 36.8C571.549 36.8 570.329 37.34 569.589 38.24V36.98H567.309V48H569.589V41.84C569.589 39.82 570.689 38.78 572.369 38.78C574.029 38.78 575.129 39.82 575.129 41.84V48ZM590.032 34.1H585.492V48H590.032C594.492 48 597.412 45.38 597.412 41.1C597.412 36.8 594.492 34.1 590.032 34.1ZM587.772 46.14V35.96H590.032C593.312 35.96 595.072 37.92 595.072 41.1C595.072 44.26 593.312 46.14 590.032 46.14H587.772ZM598.912 42.44C598.912 45.84 601.212 48.18 604.072 48.18C605.912 48.18 607.232 47.3 607.932 46.36V48H610.232V36.98H607.932V38.58C607.252 37.68 605.972 36.8 604.112 36.8C601.212 36.8 598.912 39.04 598.912 42.44ZM607.932 42.48C607.932 44.86 606.312 46.2 604.592 46.2C602.892 46.2 601.252 44.82 601.252 42.44C601.252 40.06 602.892 38.78 604.592 38.78C606.312 38.78 607.932 40.12 607.932 42.48ZM613.587 44.94C613.587 47.18 614.807 48 616.767 48H618.567V46.1H617.167C616.207 46.1 615.887 45.76 615.887 44.94V38.84H618.567V36.98H615.887V34.24H613.587V36.98H612.287V38.84H613.587V44.94ZM619.908 42.44C619.908 45.84 622.208 48.18 625.068 48.18C626.908 48.18 628.228 47.3 628.928 46.36V48H631.228V36.98H628.928V38.58C628.248 37.68 626.968 36.8 625.108 36.8C622.208 36.8 619.908 39.04 619.908 42.44ZM628.928 42.48C628.928 44.86 627.308 46.2 625.588 46.2C623.888 46.2 622.248 44.82 622.248 42.44C622.248 40.06 623.888 38.78 625.588 38.78C627.308 38.78 628.928 40.12 628.928 42.48ZM648.798 48H651.198L646.218 34.08H643.578L638.598 48H640.978L641.978 45.16H647.798L648.798 48ZM647.158 43.3H642.618L644.898 36.84L647.158 43.3ZM661.183 48H663.443V41.5C663.443 38.42 661.503 36.8 658.923 36.8C657.603 36.8 656.383 37.34 655.643 38.24V36.98H653.363V48H655.643V41.84C655.643 39.82 656.743 38.78 658.423 38.78C660.083 38.78 661.183 39.82 661.183 41.84V48ZM665.592 42.44C665.592 45.84 667.892 48.18 670.752 48.18C672.592 48.18 673.912 47.3 674.612 46.36V48H676.912V36.98H674.612V38.58C673.932 37.68 672.652 36.8 670.792 36.8C667.892 36.8 665.592 39.04 665.592 42.44ZM674.612 42.48C674.612 44.86 672.992 46.2 671.272 46.2C669.572 46.2 667.932 44.82 667.932 42.44C667.932 40.06 669.572 38.78 671.272 38.78C672.992 38.78 674.612 40.12 674.612 42.48ZM679.906 48H682.186V33.2H679.906V48ZM689.52 45.38L686.42 36.98H683.88L688.22 47.82L685.98 53.18H688.34L695.1 36.98H692.74L689.52 45.38ZM697.18 44.94C697.18 47.18 698.4 48 700.36 48H702.16V46.1H700.76C699.8 46.1 699.48 45.76 699.48 44.94V38.84H702.16V36.98H699.48V34.24H697.18V36.98H695.88V38.84H697.18V44.94ZM704.262 48H706.542V36.98H704.262V48ZM705.422 35.52C706.222 35.52 706.862 34.88 706.862 34.06C706.862 33.24 706.222 32.6 705.422 32.6C704.602 32.6 703.962 33.24 703.962 34.06C703.962 34.88 704.602 35.52 705.422 35.52ZM708.775 42.48C708.775 45.94 711.015 48.18 714.175 48.18C716.875 48.18 718.635 46.68 719.255 44.52H716.795C716.375 45.66 715.535 46.26 714.175 46.26C712.335 46.26 711.115 44.9 711.115 42.48C711.115 40.08 712.335 38.72 714.175 38.72C715.535 38.72 716.415 39.4 716.795 40.46H719.255C718.635 38.14 716.875 36.8 714.175 36.8C711.015 36.8 708.775 39.04 708.775 42.48ZM729.747 44.92C729.627 40.94 723.407 42.18 723.407 39.96C723.407 39.22 724.047 38.72 725.267 38.72C726.507 38.72 727.247 39.38 727.327 40.34H729.607C729.487 38.14 727.847 36.8 725.347 36.8C722.747 36.8 721.107 38.22 721.107 39.98C721.107 44.02 727.507 42.78 727.507 44.94C727.507 45.7 726.807 46.26 725.487 46.26C724.227 46.26 723.367 45.52 723.287 44.62H720.927C721.027 46.62 722.887 48.18 725.527 48.18C728.127 48.18 729.747 46.78 729.747 44.92Z" fill="#212832"/>
<rect x="417.5" y="0.5" width="404" height="79" stroke="black" stroke-opacity="0.5"/>
<rect x="417" y="261" width="405" height="80" fill="white"/>
<path d="M527.904 309H530.184V299.48L534.444 309H536.024L540.264 299.48V309H542.544V295.1H540.104L535.244 306L530.364 295.1H527.904V309ZM544.781 302.02C544.781 306.2 547.961 309.12 551.881 309.12C554.781 309.12 557.281 307.68 558.341 304.96H555.601C554.861 306.44 553.541 307.14 551.881 307.14C549.121 307.14 547.121 305.16 547.121 302.02C547.121 298.88 549.121 296.92 551.881 296.92C553.541 296.92 554.861 297.62 555.601 299.1H558.341C557.281 296.38 554.781 294.92 551.881 294.92C547.961 294.92 544.781 297.86 544.781 302.02ZM570.39 309H572.79L567.81 295.08H565.17L560.19 309H562.57L563.57 306.16H569.39L570.39 309ZM568.75 304.3H564.21L566.49 297.84L568.75 304.3ZM580.15 309H582.43V297.98H580.15V309ZM581.31 296.52C582.11 296.52 582.75 295.88 582.75 295.06C582.75 294.24 582.11 293.6 581.31 293.6C580.49 293.6 579.85 294.24 579.85 295.06C579.85 295.88 580.49 296.52 581.31 296.52ZM593.244 309H595.504V302.5C595.504 299.42 593.564 297.8 590.984 297.8C589.664 297.8 588.444 298.34 587.704 299.24V297.98H585.424V309H587.704V302.84C587.704 300.82 588.804 299.78 590.484 299.78C592.144 299.78 593.244 300.82 593.244 302.84V309ZM611.447 305.02C611.447 306.36 610.507 307.14 608.967 307.14H605.887V302.8H608.887C610.407 302.8 611.447 303.64 611.447 305.02ZM611.087 298.96C611.087 300.24 610.187 300.94 608.707 300.94H605.887V296.96H608.707C610.187 296.96 611.087 297.7 611.087 298.96ZM613.727 305.26C613.727 303.6 612.527 302.12 611.047 301.86C612.387 301.38 613.407 300.36 613.407 298.68C613.407 296.72 611.847 295.1 608.907 295.1H603.607V309H609.167C612.007 309 613.727 307.38 613.727 305.26ZM616.205 309H618.485V294.2H616.205V309ZM631.979 303.48C631.979 300.02 629.499 297.8 626.359 297.8C623.219 297.8 620.739 300.02 620.739 303.48C620.739 306.94 623.119 309.18 626.259 309.18C629.419 309.18 631.979 306.94 631.979 303.48ZM623.059 303.48C623.059 300.98 624.599 299.78 626.319 299.78C628.019 299.78 629.639 300.98 629.639 303.48C629.639 305.98 627.959 307.2 626.259 307.2C624.539 307.2 623.059 305.98 623.059 303.48ZM633.472 303.48C633.472 306.94 635.712 309.18 638.872 309.18C641.572 309.18 643.332 307.68 643.952 305.52H641.492C641.072 306.66 640.232 307.26 638.872 307.26C637.032 307.26 635.812 305.9 635.812 303.48C635.812 301.08 637.032 299.72 638.872 299.72C640.232 299.72 641.112 300.4 641.492 301.46H643.952C643.332 299.14 641.572 297.8 638.872 297.8C635.712 297.8 633.472 300.04 633.472 303.48ZM646.225 309H648.505V304.26L652.585 309H655.665L650.585 303.5L655.665 297.98H652.505L648.505 302.8V294.2H646.225V309ZM656.539 303.48C656.539 306.94 658.779 309.18 661.939 309.18C664.639 309.18 666.399 307.68 667.019 305.52H664.559C664.139 306.66 663.299 307.26 661.939 307.26C660.099 307.26 658.879 305.9 658.879 303.48C658.879 301.08 660.099 299.72 661.939 299.72C663.299 299.72 664.179 300.4 664.559 301.46H667.019C666.399 299.14 664.639 297.8 661.939 297.8C658.779 297.8 656.539 300.04 656.539 303.48ZM669.291 309H671.571V302.84C671.571 300.82 672.671 299.78 674.351 299.78C676.011 299.78 677.111 300.82 677.111 302.84V309H679.371V302.5C679.371 299.42 677.451 297.8 674.991 297.8C673.571 297.8 672.331 298.34 671.571 299.26V294.2H669.291V309ZM681.519 303.44C681.519 306.84 683.819 309.18 686.679 309.18C688.519 309.18 689.839 308.3 690.539 307.36V309H692.839V297.98H690.539V299.58C689.859 298.68 688.579 297.8 686.719 297.8C683.819 297.8 681.519 300.04 681.519 303.44ZM690.539 303.48C690.539 305.86 688.919 307.2 687.199 307.2C685.499 307.2 683.859 305.82 683.859 303.44C683.859 301.06 685.499 299.78 687.199 299.78C688.919 299.78 690.539 301.12 690.539 303.48ZM695.834 309H698.114V297.98H695.834V309ZM696.994 296.52C697.794 296.52 698.434 295.88 698.434 295.06C698.434 294.24 697.794 293.6 696.994 293.6C696.174 293.6 695.534 294.24 695.534 295.06C695.534 295.88 696.174 296.52 696.994 296.52ZM708.927 309H711.187V302.5C711.187 299.42 709.247 297.8 706.667 297.8C705.347 297.8 704.127 298.34 703.387 299.24V297.98H701.107V309H703.387V302.84C703.387 300.82 704.487 299.78 706.167 299.78C707.827 299.78 708.927 300.82 708.927 302.84V309Z" fill="#212832"/>
<rect x="417.5" y="261.5" width="404" height="79" stroke="black" stroke-opacity="0.5"/>
<rect x="417" y="87" width="405" height="80" fill="white"/>
<path d="M519.781 135H522.061V125.48L526.321 135H527.901L532.141 125.48V135H534.421V121.1H531.981L527.121 132L522.241 121.1H519.781V135ZM536.658 128.02C536.658 132.2 539.838 135.12 543.758 135.12C546.658 135.12 549.158 133.68 550.218 130.96H547.478C546.738 132.44 545.418 133.14 543.758 133.14C540.998 133.14 538.998 131.16 538.998 128.02C538.998 124.88 540.998 122.92 543.758 122.92C545.418 122.92 546.738 123.62 547.478 125.1H550.218C549.158 122.38 546.658 120.92 543.758 120.92C539.838 120.92 536.658 123.86 536.658 128.02ZM562.267 135H564.667L559.687 121.08H557.047L552.067 135H554.447L555.447 132.16H561.267L562.267 135ZM560.627 130.3H556.087L558.367 123.84L560.627 130.3ZM572.027 135H574.307V121.1H572.027V135ZM585.121 135H587.381V128.5C587.381 125.42 585.441 123.8 582.861 123.8C581.541 123.8 580.321 124.34 579.581 125.24V123.98H577.301V135H579.581V128.84C579.581 126.82 580.681 125.78 582.361 125.78C584.021 125.78 585.121 126.82 585.121 128.84V135ZM600.024 121.1H595.484V135H600.024C604.484 135 607.404 132.38 607.404 128.1C607.404 123.8 604.484 121.1 600.024 121.1ZM597.764 133.14V122.96H600.024C603.304 122.96 605.064 124.92 605.064 128.1C605.064 131.26 603.304 133.14 600.024 133.14H597.764ZM608.904 129.44C608.904 132.84 611.204 135.18 614.064 135.18C615.904 135.18 617.224 134.3 617.924 133.36V135H620.224V123.98H617.924V125.58C617.244 124.68 615.964 123.8 614.104 123.8C611.204 123.8 608.904 126.04 608.904 129.44ZM617.924 129.48C617.924 131.86 616.304 133.2 614.584 133.2C612.884 133.2 611.244 131.82 611.244 129.44C611.244 127.06 612.884 125.78 614.584 125.78C616.304 125.78 617.924 127.12 617.924 129.48ZM623.579 131.94C623.579 134.18 624.799 135 626.759 135H628.559V133.1H627.159C626.199 133.1 625.879 132.76 625.879 131.94V125.84H628.559V123.98H625.879V121.24H623.579V123.98H622.279V125.84H623.579V131.94ZM629.9 129.44C629.9 132.84 632.2 135.18 635.06 135.18C636.9 135.18 638.22 134.3 638.92 133.36V135H641.22V123.98H638.92V125.58C638.24 124.68 636.96 123.8 635.1 123.8C632.2 123.8 629.9 126.04 629.9 129.44ZM638.92 129.48C638.92 131.86 637.3 133.2 635.58 133.2C633.88 133.2 632.24 131.82 632.24 129.44C632.24 127.06 633.88 125.78 635.58 125.78C637.3 125.78 638.92 127.12 638.92 129.48ZM658.79 131.06C658.79 125.98 651.43 127.94 651.43 124.8C651.43 123.46 652.45 122.82 653.77 122.86C655.21 122.9 656.03 123.76 656.11 124.7H658.63C658.43 122.32 656.55 120.92 653.89 120.92C651.05 120.92 649.11 122.44 649.11 124.88C649.11 130 656.49 127.82 656.49 131.18C656.49 132.36 655.59 133.22 653.99 133.22C652.41 133.22 651.61 132.3 651.51 131.16H649.07C649.07 133.62 651.21 135.14 653.99 135.14C657.09 135.14 658.79 133.14 658.79 131.06ZM660.72 129.48C660.72 132.94 662.96 135.18 666.12 135.18C668.82 135.18 670.58 133.68 671.2 131.52H668.74C668.32 132.66 667.48 133.26 666.12 133.26C664.28 133.26 663.06 131.9 663.06 129.48C663.06 127.08 664.28 125.72 666.12 125.72C667.48 125.72 668.36 126.4 668.74 127.46H671.2C670.58 125.14 668.82 123.8 666.12 123.8C662.96 123.8 660.72 126.04 660.72 129.48ZM673.473 135H675.753V123.98H673.473V135ZM674.633 122.52C675.433 122.52 676.073 121.88 676.073 121.06C676.073 120.24 675.433 119.6 674.633 119.6C673.813 119.6 673.173 120.24 673.173 121.06C673.173 121.88 673.813 122.52 674.633 122.52ZM683.386 125.72C685.086 125.72 686.426 126.8 686.466 128.5H680.366C680.606 126.76 681.846 125.72 683.386 125.72ZM688.546 131.72H686.086C685.666 132.58 684.886 133.26 683.486 133.26C681.806 133.26 680.506 132.16 680.346 130.34H688.766C688.826 129.96 688.846 129.6 688.846 129.22C688.846 125.98 686.626 123.8 683.486 123.8C680.226 123.8 677.986 126.02 677.986 129.48C677.986 132.94 680.326 135.18 683.486 135.18C686.186 135.18 687.926 133.64 688.546 131.72ZM698.91 135H701.17V128.5C701.17 125.42 699.23 123.8 696.65 123.8C695.33 123.8 694.11 124.34 693.37 125.24V123.98H691.09V135H693.37V128.84C693.37 126.82 694.47 125.78 696.15 125.78C697.81 125.78 698.91 126.82 698.91 128.84V135ZM703.318 129.48C703.318 132.94 705.558 135.18 708.718 135.18C711.418 135.18 713.178 133.68 713.798 131.52H711.338C710.918 132.66 710.078 133.26 708.718 133.26C706.878 133.26 705.658 131.9 705.658 129.48C705.658 127.08 706.878 125.72 708.718 125.72C710.078 125.72 710.958 126.4 711.338 127.46H713.798C713.178 125.14 711.418 123.8 708.718 123.8C705.558 123.8 703.318 126.04 703.318 129.48ZM720.71 125.72C722.41 125.72 723.75 126.8 723.79 128.5H717.69C717.93 126.76 719.17 125.72 720.71 125.72ZM725.87 131.72H723.41C722.99 132.58 722.21 133.26 720.81 133.26C719.13 133.26 717.83 132.16 717.67 130.34H726.09C726.15 129.96 726.17 129.6 726.17 129.22C726.17 125.98 723.95 123.8 720.81 123.8C717.55 123.8 715.31 126.02 715.31 129.48C715.31 132.94 717.65 135.18 720.81 135.18C723.51 135.18 725.25 133.64 725.87 131.72Z" fill="#212832"/>
<rect x="417.5" y="87.5" width="404" height="79" stroke="black" stroke-opacity="0.5"/>
<rect x="417" y="174" width="405" height="80" fill="white"/>
<path d="M481.713 222H483.993V212.48L488.253 222H489.833L494.073 212.48V222H496.353V208.1H493.913L489.053 219L484.173 208.1H481.713V222ZM498.59 215.02C498.59 219.2 501.77 222.12 505.69 222.12C508.59 222.12 511.09 220.68 512.15 217.96H509.41C508.67 219.44 507.35 220.14 505.69 220.14C502.93 220.14 500.93 218.16 500.93 215.02C500.93 211.88 502.93 209.92 505.69 209.92C507.35 209.92 508.67 210.62 509.41 212.1H512.15C511.09 209.38 508.59 207.92 505.69 207.92C501.77 207.92 498.59 210.86 498.59 215.02ZM524.198 222H526.598L521.618 208.08H518.978L513.998 222H516.378L517.378 219.16H523.198L524.198 222ZM522.558 217.3H518.018L520.298 210.84L522.558 217.3ZM533.959 222H536.239V208.1H533.959V222ZM547.052 222H549.312V215.5C549.312 212.42 547.372 210.8 544.792 210.8C543.472 210.8 542.252 211.34 541.512 212.24V210.98H539.232V222H541.512V215.84C541.512 213.82 542.612 212.78 544.292 212.78C545.952 212.78 547.052 213.82 547.052 215.84V222ZM563.756 207.92C559.836 207.92 556.656 210.86 556.656 215.02C556.656 219.2 559.836 222.12 563.756 222.12C567.496 222.12 570.216 219.38 570.636 216.16V214.38H562.976V216.2H568.196C567.856 218.54 566.276 220.06 563.756 220.06C560.996 220.06 558.996 218.08 558.996 215.02C558.996 211.96 560.996 210 563.756 210C565.416 210 566.736 210.7 567.476 212.1H570.216C569.156 209.38 566.656 207.92 563.756 207.92ZM572.125 216.44C572.125 219.84 574.425 222.18 577.285 222.18C579.125 222.18 580.445 221.3 581.145 220.36V222H583.445V210.98H581.145V212.58C580.465 211.68 579.185 210.8 577.325 210.8C574.425 210.8 572.125 213.04 572.125 216.44ZM581.145 216.48C581.145 218.86 579.525 220.2 577.805 220.2C576.105 220.2 574.465 218.82 574.465 216.44C574.465 214.06 576.105 212.78 577.805 212.78C579.525 212.78 581.145 214.12 581.145 216.48ZM602.059 222H604.319V215.5C604.319 212.42 602.359 210.8 599.779 210.8C598.179 210.8 596.619 211.64 595.939 212.98C595.179 211.54 593.719 210.8 591.979 210.8C590.659 210.8 589.459 211.34 588.719 212.24V210.98H586.439V222H588.719V215.84C588.719 213.82 589.819 212.78 591.499 212.78C593.159 212.78 594.259 213.82 594.259 215.84V222H596.519V215.84C596.519 213.82 597.619 212.78 599.299 212.78C600.959 212.78 602.059 213.82 602.059 215.84V222ZM611.861 212.72C613.561 212.72 614.901 213.8 614.941 215.5H608.841C609.081 213.76 610.321 212.72 611.861 212.72ZM617.021 218.72H614.561C614.141 219.58 613.361 220.26 611.961 220.26C610.281 220.26 608.981 219.16 608.821 217.34H617.241C617.301 216.96 617.321 216.6 617.321 216.22C617.321 212.98 615.101 210.8 611.961 210.8C608.701 210.8 606.461 213.02 606.461 216.48C606.461 219.94 608.801 222.18 611.961 222.18C614.661 222.18 616.401 220.64 617.021 218.72ZM629.3 208.1H624.76V222H629.3C633.76 222 636.68 219.38 636.68 215.1C636.68 210.8 633.76 208.1 629.3 208.1ZM627.04 220.14V209.96H629.3C632.58 209.96 634.34 211.92 634.34 215.1C634.34 218.26 632.58 220.14 629.3 220.14H627.04ZM643.579 212.72C645.279 212.72 646.619 213.8 646.659 215.5H640.559C640.799 213.76 642.039 212.72 643.579 212.72ZM648.739 218.72H646.279C645.859 219.58 645.079 220.26 643.679 220.26C641.999 220.26 640.699 219.16 640.539 217.34H648.959C649.019 216.96 649.039 216.6 649.039 216.22C649.039 212.98 646.819 210.8 643.679 210.8C640.419 210.8 638.179 213.02 638.179 216.48C638.179 219.94 640.519 222.18 643.679 222.18C646.379 222.18 648.119 220.64 648.739 218.72ZM649.983 210.98L654.163 222H656.883L661.083 210.98H658.663L655.543 219.96L652.423 210.98H649.983ZM667.447 212.72C669.147 212.72 670.487 213.8 670.527 215.5H664.427C664.667 213.76 665.907 212.72 667.447 212.72ZM672.607 218.72H670.147C669.727 219.58 668.947 220.26 667.547 220.26C665.867 220.26 664.567 219.16 664.407 217.34H672.827C672.887 216.96 672.907 216.6 672.907 216.22C672.907 212.98 670.687 210.8 667.547 210.8C664.287 210.8 662.047 213.02 662.047 216.48C662.047 219.94 664.387 222.18 667.547 222.18C670.247 222.18 671.987 220.64 672.607 218.72ZM675.15 222H677.43V207.2H675.15V222ZM690.924 216.48C690.924 213.02 688.444 210.8 685.304 210.8C682.164 210.8 679.684 213.02 679.684 216.48C679.684 219.94 682.064 222.18 685.204 222.18C688.364 222.18 690.924 219.94 690.924 216.48ZM682.004 216.48C682.004 213.98 683.544 212.78 685.264 212.78C686.964 212.78 688.584 213.98 688.584 216.48C688.584 218.98 686.904 220.2 685.204 220.2C683.484 220.2 682.004 218.98 682.004 216.48ZM695.458 212.6V210.98H693.178V227.24H695.458V220.4C696.178 221.26 697.478 222.18 699.298 222.18C702.198 222.18 704.478 219.84 704.478 216.44C704.478 213.04 702.198 210.8 699.298 210.8C697.498 210.8 696.158 211.68 695.458 212.6ZM702.158 216.44C702.158 218.82 700.518 220.2 698.798 220.2C697.098 220.2 695.458 218.86 695.458 216.48C695.458 214.12 697.098 212.78 698.798 212.78C700.518 212.78 702.158 214.06 702.158 216.44ZM722.352 222H724.612V215.5C724.612 212.42 722.652 210.8 720.072 210.8C718.472 210.8 716.912 211.64 716.232 212.98C715.472 211.54 714.012 210.8 712.272 210.8C710.952 210.8 709.752 211.34 709.012 212.24V210.98H706.732V222H709.012V215.84C709.012 213.82 710.112 212.78 711.792 212.78C713.452 212.78 714.552 213.82 714.552 215.84V222H716.812V215.84C716.812 213.82 717.912 212.78 719.592 212.78C721.252 212.78 722.352 213.82 722.352 215.84V222ZM732.154 212.72C733.854 212.72 735.194 213.8 735.234 215.5H729.134C729.374 213.76 730.614 212.72 732.154 212.72ZM737.314 218.72H734.854C734.434 219.58 733.654 220.26 732.254 220.26C730.574 220.26 729.274 219.16 729.114 217.34H737.534C737.594 216.96 737.614 216.6 737.614 216.22C737.614 212.98 735.394 210.8 732.254 210.8C728.994 210.8 726.754 213.02 726.754 216.48C726.754 219.94 729.094 222.18 732.254 222.18C734.954 222.18 736.694 220.64 737.314 218.72ZM747.677 222H749.937V215.5C749.937 212.42 747.997 210.8 745.417 210.8C744.097 210.8 742.877 211.34 742.137 212.24V210.98H739.857V222H742.137V215.84C742.137 213.82 743.237 212.78 744.917 212.78C746.577 212.78 747.677 213.82 747.677 215.84V222ZM753.206 218.94C753.206 221.18 754.426 222 756.386 222H758.186V220.1H756.786C755.826 220.1 755.506 219.76 755.506 218.94V212.84H758.186V210.98H755.506V208.24H753.206V210.98H751.906V212.84H753.206V218.94Z" fill="#212832"/>
<rect x="417.5" y="174.5" width="404" height="79" stroke="black" stroke-opacity="0.5"/>
</svg>
