<svg width="1240" height="115" viewBox="0 0 1240 115" fill="none" xmlns="http://www.w3.org/2000/svg">
<rect width="1240" height="58" fill="#CBE3FF"/>
<path d="M23.325 38H26.925V19.775H20.9V23H23.325V38ZM34.9576 36.125C34.9576 34.975 34.0576 34.075 32.8326 34.075C31.5576 34.075 30.6576 34.975 30.6576 36.125C30.6576 37.275 31.5576 38.175 32.8326 38.175C34.0576 38.175 34.9576 37.275 34.9576 36.125ZM44.7338 38H48.2338V30.625H53.8088V27.85H48.2338V23.375H55.5088V20.55H44.7338V38ZM71.8656 31.075C71.8656 26.7 68.7406 23.925 64.7406 23.925C60.7406 23.925 57.6156 26.7 57.6156 31.075C57.6156 35.425 60.6406 38.225 64.6406 38.225C68.6656 38.225 71.8656 35.425 71.8656 31.075ZM61.1656 31.075C61.1656 28.3 62.8406 26.975 64.6906 26.975C66.5406 26.975 68.2656 28.3 68.2656 31.075C68.2656 33.825 66.4906 35.175 64.6406 35.175C62.7656 35.175 61.1656 33.825 61.1656 31.075ZM88.008 24.15H84.483V31.775C84.483 34 83.283 35.2 81.383 35.2C79.533 35.2 78.308 34 78.308 31.775V24.15H74.808V32.275C74.808 36.075 77.133 38.175 80.358 38.175C82.083 38.175 83.608 37.425 84.483 36.25V38H88.008V24.15ZM101.661 38H105.161V29.875C105.161 26.05 102.861 23.95 99.6363 23.95C97.8613 23.95 96.3613 24.7 95.4613 25.875V24.15H91.9613V38H95.4613V30.35C95.4613 28.125 96.6863 26.925 98.5863 26.925C100.436 26.925 101.661 28.125 101.661 30.35V38ZM108.09 31.025C108.09 35.35 110.89 38.225 114.415 38.225C116.59 38.225 118.14 37.225 118.965 35.95V38H122.515V19.5H118.965V26.075C118.015 24.775 116.265 23.925 114.44 23.925C110.89 23.925 108.09 26.7 108.09 31.025ZM118.99 31.075C118.99 33.7 117.24 35.15 115.315 35.15C113.44 35.15 111.665 33.65 111.665 31.025C111.665 28.4 113.44 27 115.315 27C117.24 27 118.99 28.45 118.99 31.075ZM125.533 31.025C125.533 35.35 128.333 38.225 131.833 38.225C134.033 38.225 135.608 37.175 136.433 35.975V38H139.958V24.15H136.433V26.125C135.608 24.975 134.083 23.925 131.858 23.925C128.333 23.925 125.533 26.7 125.533 31.025ZM136.433 31.075C136.433 33.7 134.683 35.15 132.758 35.15C130.883 35.15 129.108 33.65 129.108 31.025C129.108 28.4 130.883 27 132.758 27C134.683 27 136.433 28.45 136.433 31.075ZM144.426 33.7C144.426 36.875 146.201 38 148.851 38H151.051V35.05H149.426C148.326 35.05 147.951 34.65 147.951 33.725V27.025H151.051V24.15H147.951V20.725H144.426V24.15H142.776V27.025H144.426V33.7ZM154.069 38H157.569V24.15H154.069V38ZM155.844 22.5C157.069 22.5 157.994 21.6 157.994 20.45C157.994 19.3 157.069 18.4 155.844 18.4C154.594 18.4 153.694 19.3 153.694 20.45C153.694 21.6 154.594 22.5 155.844 22.5ZM174.902 31.075C174.902 26.7 171.777 23.925 167.777 23.925C163.777 23.925 160.652 26.7 160.652 31.075C160.652 35.425 163.677 38.225 167.677 38.225C171.702 38.225 174.902 35.425 174.902 31.075ZM164.202 31.075C164.202 28.3 165.877 26.975 167.727 26.975C169.577 26.975 171.302 28.3 171.302 31.075C171.302 33.825 169.527 35.175 167.677 35.175C165.802 35.175 164.202 33.825 164.202 31.075ZM187.669 38H191.169V29.875C191.169 26.05 188.869 23.95 185.644 23.95C183.869 23.95 182.369 24.7 181.469 25.875V24.15H177.969V38H181.469V30.35C181.469 28.125 182.694 26.925 184.594 26.925C186.444 26.925 187.669 28.125 187.669 30.35V38Z" fill="black"/>
<rect y="65" width="617" height="50" fill="white"/>
<path d="M24.6 93.44C26.08 93.44 27.24 92.3 27.24 90.84C27.24 89.36 26.08 88.22 24.6 88.22C23.16 88.22 22 89.36 22 90.84C22 92.3 23.16 93.44 24.6 93.44ZM43.4089 90V85.46H45.9289C47.7089 85.46 48.5089 86.3 48.5089 87.74C48.5089 89.14 47.7089 90 45.9289 90H43.4089ZM50.8489 87.74C50.8489 85.48 49.2289 83.6 45.9289 83.6H41.1289V97.5H43.4089V91.86H45.9289C49.5489 91.86 50.8489 89.72 50.8489 87.74ZM57.3634 94.88L54.2634 86.48H51.7234L56.0634 97.32L53.8234 102.68H56.1834L62.9434 86.48H60.5834L57.3634 94.88ZM65.0241 94.44C65.0241 96.68 66.2441 97.5 68.2041 97.5H70.0041V95.6H68.6041C67.6441 95.6 67.3241 95.26 67.3241 94.44V88.34H70.0041V86.48H67.3241V83.74H65.0241V86.48H63.7241V88.34H65.0241V94.44ZM72.1055 97.5H74.3855V91.34C74.3855 89.32 75.4855 88.28 77.1655 88.28C78.8255 88.28 79.9255 89.32 79.9255 91.34V97.5H82.1855V91C82.1855 87.92 80.2655 86.3 77.8055 86.3C76.3855 86.3 75.1455 86.84 74.3855 87.76V82.7H72.1055V97.5ZM95.5938 91.98C95.5938 88.52 93.1138 86.3 89.9738 86.3C86.8338 86.3 84.3538 88.52 84.3538 91.98C84.3538 95.44 86.7338 97.68 89.8738 97.68C93.0338 97.68 95.5938 95.44 95.5938 91.98ZM86.6738 91.98C86.6738 89.48 88.2138 88.28 89.9338 88.28C91.6338 88.28 93.2538 89.48 93.2538 91.98C93.2538 94.48 91.5738 95.7 89.8738 95.7C88.1538 95.7 86.6738 94.48 86.6738 91.98ZM105.668 97.5H107.928V91C107.928 87.92 105.988 86.3 103.408 86.3C102.088 86.3 100.868 86.84 100.128 87.74V86.48H97.8477V97.5H100.128V91.34C100.128 89.32 101.228 88.28 102.908 88.28C104.568 88.28 105.668 89.32 105.668 91.34V97.5ZM116.311 97.5H118.611V88.34H120.651V86.48H118.611V85.7C118.611 84.44 119.091 83.96 120.491 83.96V82.06C117.611 82.06 116.311 83.16 116.311 85.7V86.48H115.011V88.34H116.311V97.5ZM133.172 91.98C133.172 88.52 130.692 86.3 127.552 86.3C124.412 86.3 121.932 88.52 121.932 91.98C121.932 95.44 124.312 97.68 127.452 97.68C130.612 97.68 133.172 95.44 133.172 91.98ZM124.252 91.98C124.252 89.48 125.792 88.28 127.512 88.28C129.212 88.28 130.832 89.48 130.832 91.98C130.832 94.48 129.152 95.7 127.452 95.7C125.732 95.7 124.252 94.48 124.252 91.98ZM137.706 91.7C137.706 89.36 138.746 88.66 140.426 88.66H141.006V86.3C139.446 86.3 138.346 86.98 137.706 88.08V86.48H135.426V97.5H137.706V91.7ZM157.677 97.5H160.077L155.097 83.58H152.457L147.477 97.5H149.857L150.857 94.66H156.677L157.677 97.5ZM156.037 92.8H151.497L153.777 86.34L156.037 92.8ZM162.242 97.5H164.522V83.6H162.242V97.5ZM181.551 86.7C181.691 84.8 180.391 83.28 177.971 83.28C175.591 83.28 174.111 84.66 174.111 86.48C174.111 87.46 174.391 88.2 175.171 89.14C172.971 90.04 171.911 91.62 171.911 93.5C171.911 96.1 173.911 97.76 176.911 97.76C178.851 97.76 180.391 97.12 181.731 95.78L183.451 97.5H186.431L183.051 94.14C183.211 93.88 183.391 93.6 183.551 93.32L185.351 90.24H182.891L181.471 92.58L177.791 88.92C176.811 87.86 176.391 87.24 176.391 86.48C176.391 85.74 176.971 85.14 177.871 85.14C178.731 85.14 179.311 85.68 179.271 86.7H181.551ZM176.911 95.82C175.271 95.82 174.191 94.76 174.191 93.42C174.191 92.18 174.931 91.22 176.551 90.58L180.231 94.28C179.271 95.3 178.211 95.82 176.911 95.82ZM193.121 97.5H195.401V87.98L199.661 97.5H201.241L205.481 87.98V97.5H207.761V83.6H205.321L200.461 94.5L195.581 83.6H193.121V97.5ZM210.758 83.6V97.5H217.738V95.66H213.038V83.6H210.758Z" fill="#212832"/>
<rect x="0.5" y="65.5" width="616" height="49" stroke="black" stroke-opacity="0.5"/>
<rect x="623" y="65" width="617" height="50" fill="white"/>
<path d="M647.6 93.44C649.08 93.44 650.24 92.3 650.24 90.84C650.24 89.36 649.08 88.22 647.6 88.22C646.16 88.22 645 89.36 645 90.84C645 92.3 646.16 93.44 647.6 93.44ZM673.509 97.5H675.909L670.929 83.58H668.289L663.309 97.5H665.689L666.689 94.66H672.509L673.509 97.5ZM671.869 92.8H667.329L669.609 86.34L671.869 92.8ZM680.354 88.1V86.48H678.074V102.74H680.354V95.9C681.074 96.76 682.374 97.68 684.194 97.68C687.094 97.68 689.374 95.34 689.374 91.94C689.374 88.54 687.094 86.3 684.194 86.3C682.394 86.3 681.054 87.18 680.354 88.1ZM687.054 91.94C687.054 94.32 685.414 95.7 683.694 95.7C681.994 95.7 680.354 94.36 680.354 91.98C680.354 89.62 681.994 88.28 683.694 88.28C685.414 88.28 687.054 89.56 687.054 91.94ZM693.909 88.1V86.48H691.629V102.74H693.909V95.9C694.629 96.76 695.929 97.68 697.749 97.68C700.649 97.68 702.929 95.34 702.929 91.94C702.929 88.54 700.649 86.3 697.749 86.3C695.949 86.3 694.609 87.18 693.909 88.1ZM700.609 91.94C700.609 94.32 698.969 95.7 697.249 95.7C695.549 95.7 693.909 94.36 693.909 91.98C693.909 89.62 695.549 88.28 697.249 88.28C698.969 88.28 700.609 89.56 700.609 91.94ZM705.184 97.5H707.464V82.7H705.184V97.5ZM710.457 97.5H712.737V86.48H710.457V97.5ZM711.617 85.02C712.417 85.02 713.057 84.38 713.057 83.56C713.057 82.74 712.417 82.1 711.617 82.1C710.797 82.1 710.157 82.74 710.157 83.56C710.157 84.38 710.797 85.02 711.617 85.02ZM720.37 88.22C722.07 88.22 723.41 89.3 723.45 91H717.35C717.59 89.26 718.83 88.22 720.37 88.22ZM725.53 94.22H723.07C722.65 95.08 721.87 95.76 720.47 95.76C718.79 95.76 717.49 94.66 717.33 92.84H725.75C725.81 92.46 725.83 92.1 725.83 91.72C725.83 88.48 723.61 86.3 720.47 86.3C717.21 86.3 714.97 88.52 714.97 91.98C714.97 95.44 717.31 97.68 720.47 97.68C723.17 97.68 724.91 96.14 725.53 94.22ZM727.314 91.94C727.314 95.34 729.614 97.68 732.514 97.68C734.314 97.68 735.634 96.84 736.334 95.84V97.5H738.634V82.7H736.334V88.02C735.494 86.98 733.974 86.3 732.534 86.3C729.614 86.3 727.314 88.54 727.314 91.94ZM736.334 91.98C736.334 94.36 734.714 95.7 732.994 95.7C731.294 95.7 729.654 94.32 729.654 91.94C729.654 89.56 731.294 88.28 732.994 88.28C734.714 88.28 736.334 89.62 736.334 91.98ZM756.204 93.56C756.204 88.48 748.844 90.44 748.844 87.3C748.844 85.96 749.864 85.32 751.184 85.36C752.624 85.4 753.444 86.26 753.524 87.2H756.044C755.844 84.82 753.964 83.42 751.304 83.42C748.464 83.42 746.524 84.94 746.524 87.38C746.524 92.5 753.904 90.32 753.904 93.68C753.904 94.86 753.004 95.72 751.404 95.72C749.824 95.72 749.024 94.8 748.924 93.66H746.484C746.484 96.12 748.624 97.64 751.404 97.64C754.504 97.64 756.204 95.64 756.204 93.56ZM759.255 94.44C759.255 96.68 760.475 97.5 762.435 97.5H764.235V95.6H762.835C761.875 95.6 761.555 95.26 761.555 94.44V88.34H764.235V86.48H761.555V83.74H759.255V86.48H757.955V88.34H759.255V94.44ZM765.576 91.94C765.576 95.34 767.876 97.68 770.736 97.68C772.576 97.68 773.896 96.8 774.596 95.86V97.5H776.896V86.48H774.596V88.08C773.916 87.18 772.636 86.3 770.776 86.3C767.876 86.3 765.576 88.54 765.576 91.94ZM774.596 91.98C774.596 94.36 772.976 95.7 771.256 95.7C769.556 95.7 767.916 94.32 767.916 91.94C767.916 89.56 769.556 88.28 771.256 88.28C772.976 88.28 774.596 89.62 774.596 91.98ZM780.251 94.44C780.251 96.68 781.471 97.5 783.431 97.5H785.231V95.6H783.831C782.871 95.6 782.551 95.26 782.551 94.44V88.34H785.231V86.48H782.551V83.74H780.251V86.48H778.951V88.34H780.251V94.44ZM787.332 97.5H789.612V86.48H787.332V97.5ZM788.492 85.02C789.292 85.02 789.932 84.38 789.932 83.56C789.932 82.74 789.292 82.1 788.492 82.1C787.672 82.1 787.032 82.74 787.032 83.56C787.032 84.38 787.672 85.02 788.492 85.02ZM800.825 94.42C800.705 90.44 794.485 91.68 794.485 89.46C794.485 88.72 795.125 88.22 796.345 88.22C797.585 88.22 798.325 88.88 798.405 89.84H800.685C800.565 87.64 798.925 86.3 796.425 86.3C793.825 86.3 792.185 87.72 792.185 89.48C792.185 93.52 798.585 92.28 798.585 94.44C798.585 95.2 797.885 95.76 796.565 95.76C795.305 95.76 794.445 95.02 794.365 94.12H792.005C792.105 96.12 793.965 97.68 796.605 97.68C799.205 97.68 800.825 96.28 800.825 94.42ZM803.649 94.44C803.649 96.68 804.869 97.5 806.829 97.5H808.629V95.6H807.229C806.269 95.6 805.949 95.26 805.949 94.44V88.34H808.629V86.48H805.949V83.74H803.649V86.48H802.349V88.34H803.649V94.44ZM810.73 97.5H813.01V86.48H810.73V97.5ZM811.89 85.02C812.69 85.02 813.33 84.38 813.33 83.56C813.33 82.74 812.69 82.1 811.89 82.1C811.07 82.1 810.43 82.74 810.43 83.56C810.43 84.38 811.07 85.02 811.89 85.02ZM815.244 91.98C815.244 95.44 817.484 97.68 820.644 97.68C823.344 97.68 825.104 96.18 825.724 94.02H823.264C822.844 95.16 822.004 95.76 820.644 95.76C818.804 95.76 817.584 94.4 817.584 91.98C817.584 89.58 818.804 88.22 820.644 88.22C822.004 88.22 822.884 88.9 823.264 89.96H825.724C825.104 87.64 823.344 86.3 820.644 86.3C817.484 86.3 815.244 88.54 815.244 91.98ZM836.216 94.42C836.096 90.44 829.876 91.68 829.876 89.46C829.876 88.72 830.516 88.22 831.736 88.22C832.976 88.22 833.716 88.88 833.796 89.84H836.076C835.956 87.64 834.316 86.3 831.816 86.3C829.216 86.3 827.576 87.72 827.576 89.48C827.576 93.52 833.976 92.28 833.976 94.44C833.976 95.2 833.276 95.76 831.956 95.76C830.696 95.76 829.836 95.02 829.756 94.12H827.396C827.496 96.12 829.356 97.68 831.996 97.68C834.596 97.68 836.216 96.28 836.216 94.42Z" fill="#212832"/>
<rect x="623.5" y="65.5" width="616" height="49" stroke="black" stroke-opacity="0.5"/>
</svg>
