<svg width="1240" height="229" viewBox="0 0 1240 229" fill="none" xmlns="http://www.w3.org/2000/svg">
<rect width="1240" height="58" fill="#CBE3FF"/>
<path d="M21.125 37.75H33.475V34.85H26.1C29 32.4 33.075 29.1 33.075 24.875C33.075 21.7 31.1 19.375 27.175 19.375C23.9 19.375 21.225 21.3 21.1 25.475H24.5C24.525 23.55 25.45 22.35 27.125 22.35C28.85 22.35 29.575 23.45 29.575 25.075C29.575 28.425 25.25 31.65 21.125 35.15V37.75ZM40.2555 36.125C40.2555 34.975 39.3555 34.075 38.1305 34.075C36.8555 34.075 35.9555 34.975 35.9555 36.125C35.9555 37.275 36.8555 38.175 38.1305 38.175C39.3555 38.175 40.2555 37.275 40.2555 36.125ZM50.0316 38H53.5316V26.65L58.2316 38H60.8816L65.5566 26.65V38H69.0566V20.55H65.1066L59.5566 33.525L54.0066 20.55H50.0316V38ZM72.117 31.025C72.117 35.35 74.917 38.225 78.417 38.225C80.617 38.225 82.192 37.175 83.017 35.975V38H86.542V24.15H83.017V26.125C82.192 24.975 80.667 23.925 78.442 23.925C74.917 23.925 72.117 26.7 72.117 31.025ZM83.017 31.075C83.017 33.7 81.267 35.15 79.342 35.15C77.467 35.15 75.692 33.65 75.692 31.025C75.692 28.4 77.467 27 79.342 27C81.267 27 83.017 28.45 83.017 31.075ZM89.5604 31.075C89.5604 35.425 92.4104 38.225 96.4104 38.225C99.8604 38.225 102.185 36.275 102.935 33.325H99.1604C98.7354 34.575 97.8354 35.225 96.3854 35.225C94.4354 35.225 93.1354 33.775 93.1354 31.075C93.1354 28.375 94.4354 26.9 96.3854 26.9C97.8354 26.9 98.7604 27.65 99.1604 28.825H102.935C102.185 25.725 99.8604 23.925 96.4104 23.925C92.4104 23.925 89.5604 26.725 89.5604 31.075ZM105.999 38H109.499V30.35C109.499 28.125 110.724 26.925 112.624 26.925C114.474 26.925 115.699 28.125 115.699 30.35V38H119.199V29.875C119.199 26.05 116.924 23.95 113.799 23.95C111.949 23.95 110.399 24.7 109.499 25.875V19.5H105.999V38ZM123.028 38H126.528V24.15H123.028V38ZM124.803 22.5C126.028 22.5 126.953 21.6 126.953 20.45C126.953 19.3 126.028 18.4 124.803 18.4C123.553 18.4 122.653 19.3 122.653 20.45C122.653 21.6 123.553 22.5 124.803 22.5ZM140.186 38H143.686V29.875C143.686 26.05 141.386 23.95 138.161 23.95C136.386 23.95 134.886 24.7 133.986 25.875V24.15H130.486V38H133.986V30.35C133.986 28.125 135.211 26.925 137.111 26.925C138.961 26.925 140.186 28.125 140.186 30.35V38ZM153.464 26.8C155.264 26.8 156.714 27.95 156.764 29.775H150.189C150.464 27.875 151.789 26.8 153.464 26.8ZM160.039 33.65H156.264C155.814 34.575 154.989 35.325 153.489 35.325C151.739 35.325 150.339 34.175 150.164 32.125H160.289C160.364 31.675 160.389 31.225 160.389 30.775C160.389 26.65 157.564 23.925 153.564 23.925C149.464 23.925 146.614 26.7 146.614 31.075C146.614 35.425 149.539 38.225 153.564 38.225C156.989 38.225 159.289 36.2 160.039 33.65ZM169.901 20.55V38H179.151V35.225H173.401V20.55H169.901ZM187.825 26.8C189.625 26.8 191.075 27.95 191.125 29.775H184.55C184.825 27.875 186.15 26.8 187.825 26.8ZM194.4 33.65H190.625C190.175 34.575 189.35 35.325 187.85 35.325C186.1 35.325 184.7 34.175 184.525 32.125H194.65C194.725 31.675 194.75 31.225 194.75 30.775C194.75 26.65 191.925 23.925 187.925 23.925C183.825 23.925 180.975 26.7 180.975 31.075C180.975 35.425 183.9 38.225 187.925 38.225C191.35 38.225 193.65 36.2 194.4 33.65ZM196.905 31.025C196.905 35.35 199.705 38.225 203.205 38.225C205.405 38.225 206.98 37.175 207.805 35.975V38H211.33V24.15H207.805V26.125C206.98 24.975 205.455 23.925 203.23 23.925C199.705 23.925 196.905 26.7 196.905 31.025ZM207.805 31.075C207.805 33.7 206.055 35.15 204.13 35.15C202.255 35.15 200.48 33.65 200.48 31.025C200.48 28.4 202.255 27 204.13 27C206.055 27 207.805 28.45 207.805 31.075ZM218.748 31.1C218.748 28.425 219.998 27.625 222.073 27.625H222.998V23.95C221.073 23.95 219.623 24.875 218.748 26.3V24.15H215.248V38H218.748V31.1ZM235.556 38H239.056V29.875C239.056 26.05 236.756 23.95 233.531 23.95C231.756 23.95 230.256 24.7 229.356 25.875V24.15H225.856V38H229.356V30.35C229.356 28.125 230.581 26.925 232.481 26.925C234.331 26.925 235.556 28.125 235.556 30.35V38ZM242.884 38H246.384V24.15H242.884V38ZM244.659 22.5C245.884 22.5 246.809 21.6 246.809 20.45C246.809 19.3 245.884 18.4 244.659 18.4C243.409 18.4 242.509 19.3 242.509 20.45C242.509 21.6 243.409 22.5 244.659 22.5ZM260.042 38H263.542V29.875C263.542 26.05 261.242 23.95 258.017 23.95C256.242 23.95 254.742 24.7 253.842 25.875V24.15H250.342V38H253.842V30.35C253.842 28.125 255.067 26.925 256.967 26.925C258.817 26.925 260.042 28.125 260.042 30.35V38ZM266.471 31.025C266.471 35.35 269.271 38.225 272.796 38.225C274.971 38.225 276.546 37.15 277.371 35.95V38.1C277.371 40.675 275.871 41.775 273.946 41.775C272.196 41.775 270.896 40.95 270.546 39.7H267.071C267.421 42.875 270.146 44.825 274.046 44.825C278.596 44.825 280.896 41.85 280.896 38.1V24.15H277.371V26.125C276.546 24.925 274.971 23.925 272.796 23.925C269.271 23.925 266.471 26.7 266.471 31.025ZM277.371 31.075C277.371 33.7 275.621 35.15 273.696 35.15C271.821 35.15 270.046 33.65 270.046 31.025C270.046 28.4 271.821 27 273.696 27C275.621 27 277.371 28.45 277.371 31.075Z" fill="black"/>
<rect y="65" width="617" height="50" fill="white"/>
<path d="M24.6 93.44C26.08 93.44 27.24 92.3 27.24 90.84C27.24 89.36 26.08 88.22 24.6 88.22C23.16 88.22 22 89.36 22 90.84C22 92.3 23.16 93.44 24.6 93.44ZM50.5089 93.56C50.5089 88.48 43.1489 90.44 43.1489 87.3C43.1489 85.96 44.1689 85.32 45.4889 85.36C46.9289 85.4 47.7489 86.26 47.8289 87.2H50.3489C50.1489 84.82 48.2689 83.42 45.6089 83.42C42.7689 83.42 40.8289 84.94 40.8289 87.38C40.8289 92.5 48.2089 90.32 48.2089 93.68C48.2089 94.86 47.3089 95.72 45.7089 95.72C44.1289 95.72 43.3289 94.8 43.2289 93.66H40.7889C40.7889 96.12 42.9289 97.64 45.7089 97.64C48.8089 97.64 50.5089 95.64 50.5089 93.56ZM63.1792 86.48H60.8992V92.62C60.8992 94.64 59.7992 95.68 58.1192 95.68C56.4592 95.68 55.3592 94.64 55.3592 92.62V86.48H53.0992V92.96C53.0992 96.04 55.0592 97.66 57.6392 97.66C58.9392 97.66 60.1792 97.12 60.8992 96.18V97.5H63.1792V86.48ZM68.4675 88.1V86.48H66.1875V102.74H68.4675V95.9C69.1875 96.76 70.4875 97.68 72.3075 97.68C75.2075 97.68 77.4875 95.34 77.4875 91.94C77.4875 88.54 75.2075 86.3 72.3075 86.3C70.5075 86.3 69.1675 87.18 68.4675 88.1ZM75.1675 91.94C75.1675 94.32 73.5275 95.7 71.8075 95.7C70.1075 95.7 68.4675 94.36 68.4675 91.98C68.4675 89.62 70.1075 88.28 71.8075 88.28C73.5275 88.28 75.1675 89.56 75.1675 91.94ZM84.3822 88.22C86.0822 88.22 87.4222 89.3 87.4622 91H81.3622C81.6022 89.26 82.8422 88.22 84.3822 88.22ZM89.5422 94.22H87.0822C86.6622 95.08 85.8822 95.76 84.4822 95.76C82.8022 95.76 81.5022 94.66 81.3422 92.84H89.7622C89.8222 92.46 89.8422 92.1 89.8422 91.72C89.8422 88.48 87.6222 86.3 84.4822 86.3C81.2222 86.3 78.9822 88.52 78.9822 91.98C78.9822 95.44 81.3222 97.68 84.4822 97.68C87.1822 97.68 88.9222 96.14 89.5422 94.22ZM94.3659 91.7C94.3659 89.36 95.4059 88.66 97.0859 88.66H97.6659V86.3C96.1059 86.3 95.0059 86.98 94.3659 88.08V86.48H92.0859V97.5H94.3659V91.7ZM98.4617 86.48L102.642 97.5H105.362L109.562 86.48H107.142L104.022 95.46L100.902 86.48H98.4617ZM111.285 97.5H113.565V86.48H111.285V97.5ZM112.445 85.02C113.245 85.02 113.885 84.38 113.885 83.56C113.885 82.74 113.245 82.1 112.445 82.1C111.625 82.1 110.985 82.74 110.985 83.56C110.985 84.38 111.625 85.02 112.445 85.02ZM124.779 94.42C124.659 90.44 118.439 91.68 118.439 89.46C118.439 88.72 119.079 88.22 120.299 88.22C121.539 88.22 122.279 88.88 122.359 89.84H124.639C124.519 87.64 122.879 86.3 120.379 86.3C117.779 86.3 116.139 87.72 116.139 89.48C116.139 93.52 122.539 92.28 122.539 94.44C122.539 95.2 121.839 95.76 120.519 95.76C119.259 95.76 118.399 95.02 118.319 94.12H115.959C116.059 96.12 117.919 97.68 120.559 97.68C123.159 97.68 124.779 96.28 124.779 94.42ZM131.882 88.22C133.582 88.22 134.922 89.3 134.962 91H128.862C129.102 89.26 130.342 88.22 131.882 88.22ZM137.042 94.22H134.582C134.162 95.08 133.382 95.76 131.982 95.76C130.302 95.76 129.002 94.66 128.842 92.84H137.262C137.322 92.46 137.342 92.1 137.342 91.72C137.342 88.48 135.122 86.3 131.982 86.3C128.722 86.3 126.482 88.52 126.482 91.98C126.482 95.44 128.822 97.68 131.982 97.68C134.682 97.68 136.422 96.14 137.042 94.22ZM138.826 91.94C138.826 95.34 141.126 97.68 144.026 97.68C145.826 97.68 147.146 96.84 147.846 95.84V97.5H150.146V82.7H147.846V88.02C147.006 86.98 145.486 86.3 144.046 86.3C141.126 86.3 138.826 88.54 138.826 91.94ZM147.846 91.98C147.846 94.36 146.226 95.7 144.506 95.7C142.806 95.7 141.166 94.32 141.166 91.94C141.166 89.56 142.806 88.28 144.506 88.28C146.226 88.28 147.846 89.62 147.846 91.98ZM158.336 83.6V97.5H165.316V95.66H160.616V83.6H158.336ZM171.863 88.22C173.563 88.22 174.903 89.3 174.943 91H168.843C169.083 89.26 170.323 88.22 171.863 88.22ZM177.023 94.22H174.563C174.143 95.08 173.363 95.76 171.963 95.76C170.283 95.76 168.983 94.66 168.823 92.84H177.243C177.303 92.46 177.323 92.1 177.323 91.72C177.323 88.48 175.103 86.3 171.963 86.3C168.703 86.3 166.463 88.52 166.463 91.98C166.463 95.44 168.803 97.68 171.963 97.68C174.663 97.68 176.403 96.14 177.023 94.22ZM178.806 91.94C178.806 95.34 181.106 97.68 183.966 97.68C185.806 97.68 187.126 96.8 187.826 95.86V97.5H190.126V86.48H187.826V88.08C187.146 87.18 185.866 86.3 184.006 86.3C181.106 86.3 178.806 88.54 178.806 91.94ZM187.826 91.98C187.826 94.36 186.206 95.7 184.486 95.7C182.786 95.7 181.146 94.32 181.146 91.94C181.146 89.56 182.786 88.28 184.486 88.28C186.206 88.28 187.826 89.62 187.826 91.98ZM195.401 91.7C195.401 89.36 196.441 88.66 198.121 88.66H198.701V86.3C197.141 86.3 196.041 86.98 195.401 88.08V86.48H193.121V97.5H195.401V91.7ZM208.617 97.5H210.877V91C210.877 87.92 208.937 86.3 206.357 86.3C205.037 86.3 203.817 86.84 203.077 87.74V86.48H200.797V97.5H203.077V91.34C203.077 89.32 204.177 88.28 205.857 88.28C207.517 88.28 208.617 89.32 208.617 91.34V97.5ZM213.785 97.5H216.065V86.48H213.785V97.5ZM214.945 85.02C215.745 85.02 216.385 84.38 216.385 83.56C216.385 82.74 215.745 82.1 214.945 82.1C214.125 82.1 213.485 82.74 213.485 83.56C213.485 84.38 214.125 85.02 214.945 85.02ZM226.879 97.5H229.139V91C229.139 87.92 227.199 86.3 224.619 86.3C223.299 86.3 222.079 86.84 221.339 87.74V86.48H219.059V97.5H221.339V91.34C221.339 89.32 222.439 88.28 224.119 88.28C225.779 88.28 226.879 89.32 226.879 91.34V97.5ZM231.287 91.94C231.287 95.34 233.587 97.68 236.487 97.68C238.287 97.68 239.607 96.78 240.307 95.84V97.68C240.307 99.88 238.987 100.96 237.227 100.96C235.647 100.96 234.427 100.18 234.087 99.04H231.827C232.107 101.48 234.287 102.94 237.227 102.94C240.667 102.94 242.607 100.68 242.607 97.68V86.48H240.307V88.08C239.627 87.14 238.287 86.3 236.487 86.3C233.587 86.3 231.287 88.54 231.287 91.94ZM240.307 91.98C240.307 94.36 238.687 95.7 236.967 95.7C235.267 95.7 233.627 94.32 233.627 91.94C233.627 89.56 235.267 88.28 236.967 88.28C238.687 88.28 240.307 89.62 240.307 91.98Z" fill="#212832"/>
<rect x="0.5" y="65.5" width="616" height="49" stroke="black" stroke-opacity="0.5"/>
<rect y="122" width="617" height="50" fill="white"/>
<path d="M24.6 150.44C26.08 150.44 27.24 149.3 27.24 147.84C27.24 146.36 26.08 145.22 24.6 145.22C23.16 145.22 22 146.36 22 147.84C22 149.3 23.16 150.44 24.6 150.44ZM48.8089 140.58H41.1289V154.5H48.8089V152.64H43.4089V148.38H48.2089V146.52H43.4089V142.44H48.8089V140.58ZM59.4372 154.5H61.6972V148C61.6972 144.92 59.7572 143.3 57.1772 143.3C55.8572 143.3 54.6372 143.84 53.8972 144.74V143.48H51.6172V154.5H53.8972V148.34C53.8972 146.32 54.9972 145.28 56.6772 145.28C58.3372 145.28 59.4372 146.32 59.4372 148.34V154.5ZM72.8255 151.42C72.7055 147.44 66.4855 148.68 66.4855 146.46C66.4855 145.72 67.1255 145.22 68.3455 145.22C69.5855 145.22 70.3255 145.88 70.4055 146.84H72.6855C72.5655 144.64 70.9255 143.3 68.4255 143.3C65.8255 143.3 64.1855 144.72 64.1855 146.48C64.1855 150.52 70.5855 149.28 70.5855 151.44C70.5855 152.2 69.8855 152.76 68.5655 152.76C67.3055 152.76 66.4455 152.02 66.3655 151.12H64.0055C64.1055 153.12 65.9655 154.68 68.6055 154.68C71.2055 154.68 72.8255 153.28 72.8255 151.42ZM79.9291 145.22C81.6291 145.22 82.9691 146.3 83.0091 148H76.9091C77.1491 146.26 78.3891 145.22 79.9291 145.22ZM85.0891 151.22H82.6291C82.2091 152.08 81.4291 152.76 80.0291 152.76C78.3491 152.76 77.0491 151.66 76.8891 149.84H85.3091C85.3691 149.46 85.3891 149.1 85.3891 148.72C85.3891 145.48 83.1691 143.3 80.0291 143.3C76.7691 143.3 74.5291 145.52 74.5291 148.98C74.5291 152.44 76.8691 154.68 80.0291 154.68C82.7291 154.68 84.4691 153.14 85.0891 151.22ZM103.253 154.5H105.513V148C105.513 144.92 103.553 143.3 100.973 143.3C99.3728 143.3 97.8128 144.14 97.1328 145.48C96.3728 144.04 94.9128 143.3 93.1728 143.3C91.8528 143.3 90.6528 143.84 89.9128 144.74V143.48H87.6328V154.5H89.9128V148.34C89.9128 146.32 91.0128 145.28 92.6928 145.28C94.3528 145.28 95.4528 146.32 95.4528 148.34V154.5H97.7128V148.34C97.7128 146.32 98.8128 145.28 100.493 145.28C102.153 145.28 103.253 146.32 103.253 148.34V154.5ZM110.694 145.12V139.7H108.414V154.5H110.694V152.9C111.414 153.86 112.714 154.68 114.534 154.68C117.434 154.68 119.714 152.34 119.714 148.94C119.714 145.54 117.454 143.3 114.534 143.3C112.794 143.3 111.414 144.12 110.694 145.12ZM117.394 148.94C117.394 151.32 115.754 152.7 114.034 152.7C112.334 152.7 110.694 151.36 110.694 148.98C110.694 146.62 112.334 145.28 114.034 145.28C115.754 145.28 117.394 146.56 117.394 148.94ZM121.969 154.5H124.249V139.7H121.969V154.5ZM131.882 145.22C133.582 145.22 134.922 146.3 134.962 148H128.862C129.102 146.26 130.342 145.22 131.882 145.22ZM137.042 151.22H134.582C134.162 152.08 133.382 152.76 131.982 152.76C130.302 152.76 129.002 151.66 128.842 149.84H137.262C137.322 149.46 137.342 149.1 137.342 148.72C137.342 145.48 135.122 143.3 131.982 143.3C128.722 143.3 126.482 145.52 126.482 148.98C126.482 152.44 128.822 154.68 131.982 154.68C134.682 154.68 136.422 153.14 137.042 151.22ZM144.061 142.46H147.781V154.5H150.061V142.46H153.761V140.6H144.061V142.46ZM160.71 145.22C162.41 145.22 163.75 146.3 163.79 148H157.69C157.93 146.26 159.17 145.22 160.71 145.22ZM165.87 151.22H163.41C162.99 152.08 162.21 152.76 160.81 152.76C159.13 152.76 157.83 151.66 157.67 149.84H166.09C166.15 149.46 166.17 149.1 166.17 148.72C166.17 145.48 163.95 143.3 160.81 143.3C157.55 143.3 155.31 145.52 155.31 148.98C155.31 152.44 157.65 154.68 160.81 154.68C163.51 154.68 165.25 153.14 165.87 151.22ZM167.654 148.98C167.654 152.44 169.894 154.68 173.054 154.68C175.754 154.68 177.514 153.18 178.134 151.02H175.674C175.254 152.16 174.414 152.76 173.054 152.76C171.214 152.76 169.994 151.4 169.994 148.98C169.994 146.58 171.214 145.22 173.054 145.22C174.414 145.22 175.294 145.9 175.674 146.96H178.134C177.514 144.64 175.754 143.3 173.054 143.3C169.894 143.3 167.654 145.54 167.654 148.98ZM180.406 154.5H182.686V148.34C182.686 146.32 183.786 145.28 185.466 145.28C187.126 145.28 188.226 146.32 188.226 148.34V154.5H190.486V148C190.486 144.92 188.566 143.3 186.106 143.3C184.686 143.3 183.446 143.84 182.686 144.76V139.7H180.406V154.5ZM201.215 154.5H203.475V148C203.475 144.92 201.535 143.3 198.955 143.3C197.635 143.3 196.415 143.84 195.675 144.74V143.48H193.395V154.5H195.675V148.34C195.675 146.32 196.775 145.28 198.455 145.28C200.115 145.28 201.215 146.32 201.215 148.34V154.5ZM206.383 154.5H208.663V143.48H206.383V154.5ZM207.543 142.02C208.343 142.02 208.983 141.38 208.983 140.56C208.983 139.74 208.343 139.1 207.543 139.1C206.723 139.1 206.083 139.74 206.083 140.56C206.083 141.38 206.723 142.02 207.543 142.02ZM210.896 148.94C210.896 152.34 213.196 154.68 216.036 154.68C217.896 154.68 219.276 153.76 219.916 152.9V159.74H222.216V143.48H219.916V145.08C219.276 144.18 217.936 143.3 216.116 143.3C213.196 143.3 210.896 145.54 210.896 148.94ZM219.916 148.98C219.916 151.36 218.296 152.7 216.576 152.7C214.876 152.7 213.236 151.32 213.236 148.94C213.236 146.56 214.876 145.28 216.576 145.28C218.296 145.28 219.916 146.62 219.916 148.98ZM235.191 143.48H232.911V149.62C232.911 151.64 231.811 152.68 230.131 152.68C228.471 152.68 227.371 151.64 227.371 149.62V143.48H225.111V149.96C225.111 153.04 227.071 154.66 229.651 154.66C230.951 154.66 232.191 154.12 232.911 153.18V154.5H235.191V143.48ZM242.839 145.22C244.539 145.22 245.879 146.3 245.919 148H239.819C240.059 146.26 241.299 145.22 242.839 145.22ZM247.999 151.22H245.539C245.119 152.08 244.339 152.76 242.939 152.76C241.259 152.76 239.959 151.66 239.799 149.84H248.219C248.279 149.46 248.299 149.1 248.299 148.72C248.299 145.48 246.079 143.3 242.939 143.3C239.679 143.3 237.439 145.52 237.439 148.98C237.439 152.44 239.779 154.68 242.939 154.68C245.639 154.68 247.379 153.14 247.999 151.22ZM258.763 151.42C258.643 147.44 252.423 148.68 252.423 146.46C252.423 145.72 253.063 145.22 254.283 145.22C255.523 145.22 256.263 145.88 256.343 146.84H258.623C258.503 144.64 256.863 143.3 254.363 143.3C251.763 143.3 250.123 144.72 250.123 146.48C250.123 150.52 256.523 149.28 256.523 151.44C256.523 152.2 255.823 152.76 254.503 152.76C253.243 152.76 252.383 152.02 252.303 151.12H249.943C250.043 153.12 251.903 154.68 254.543 154.68C257.143 154.68 258.763 153.28 258.763 151.42Z" fill="#212832"/>
<rect x="0.5" y="122.5" width="616" height="49" stroke="black" stroke-opacity="0.5"/>
<rect y="179" width="617" height="50" fill="white"/>
<path d="M24.6 207.44C26.08 207.44 27.24 206.3 27.24 204.84C27.24 203.36 26.08 202.22 24.6 202.22C23.16 202.22 22 203.36 22 204.84C22 206.3 23.16 207.44 24.6 207.44ZM48.5089 201.76C48.5089 203.14 47.7089 204.12 45.9289 204.12H43.4089V199.46H45.9289C47.7089 199.46 48.5089 200.36 48.5089 201.76ZM41.1289 197.6V211.5H43.4089V205.94H45.1489L48.3489 211.5H51.0689L47.6289 205.74C49.9689 205.16 50.8489 203.4 50.8489 201.76C50.8489 199.5 49.2289 197.6 45.9289 197.6H41.1289ZM58.4056 202.22C60.1056 202.22 61.4456 203.3 61.4856 205H55.3856C55.6256 203.26 56.8656 202.22 58.4056 202.22ZM63.5656 208.22H61.1056C60.6856 209.08 59.9056 209.76 58.5056 209.76C56.8256 209.76 55.5256 208.66 55.3656 206.84H63.7856C63.8456 206.46 63.8656 206.1 63.8656 205.72C63.8656 202.48 61.6456 200.3 58.5056 200.3C55.2456 200.3 53.0056 202.52 53.0056 205.98C53.0056 209.44 55.3456 211.68 58.5056 211.68C61.2056 211.68 62.9456 210.14 63.5656 208.22ZM65.3494 205.98C65.3494 209.44 67.5894 211.68 70.7494 211.68C73.4494 211.68 75.2094 210.18 75.8294 208.02H73.3694C72.9494 209.16 72.1094 209.76 70.7494 209.76C68.9094 209.76 67.6894 208.4 67.6894 205.98C67.6894 203.58 68.9094 202.22 70.7494 202.22C72.1094 202.22 72.9894 202.9 73.3694 203.96H75.8294C75.2094 201.64 73.4494 200.3 70.7494 200.3C67.5894 200.3 65.3494 202.54 65.3494 205.98ZM88.6016 205.98C88.6016 202.52 86.1216 200.3 82.9816 200.3C79.8416 200.3 77.3616 202.52 77.3616 205.98C77.3616 209.44 79.7416 211.68 82.8816 211.68C86.0416 211.68 88.6016 209.44 88.6016 205.98ZM79.6816 205.98C79.6816 203.48 81.2216 202.28 82.9416 202.28C84.6416 202.28 86.2616 203.48 86.2616 205.98C86.2616 208.48 84.5816 209.7 82.8816 209.7C81.1616 209.7 79.6816 208.48 79.6816 205.98ZM106.475 211.5H108.735V205C108.735 201.92 106.775 200.3 104.195 200.3C102.595 200.3 101.035 201.14 100.355 202.48C99.5955 201.04 98.1355 200.3 96.3955 200.3C95.0755 200.3 93.8755 200.84 93.1355 201.74V200.48H90.8555V211.5H93.1355V205.34C93.1355 203.32 94.2355 202.28 95.9155 202.28C97.5755 202.28 98.6755 203.32 98.6755 205.34V211.5H100.935V205.34C100.935 203.32 102.035 202.28 103.715 202.28C105.375 202.28 106.475 203.32 106.475 205.34V211.5ZM127.257 211.5H129.517V205C129.517 201.92 127.557 200.3 124.977 200.3C123.377 200.3 121.817 201.14 121.137 202.48C120.377 201.04 118.917 200.3 117.177 200.3C115.857 200.3 114.657 200.84 113.917 201.74V200.48H111.637V211.5H113.917V205.34C113.917 203.32 115.017 202.28 116.697 202.28C118.357 202.28 119.457 203.32 119.457 205.34V211.5H121.717V205.34C121.717 203.32 122.817 202.28 124.497 202.28C126.157 202.28 127.257 203.32 127.257 205.34V211.5ZM137.058 202.22C138.758 202.22 140.098 203.3 140.138 205H134.038C134.278 203.26 135.518 202.22 137.058 202.22ZM142.218 208.22H139.758C139.338 209.08 138.558 209.76 137.158 209.76C135.478 209.76 134.178 208.66 134.018 206.84H142.438C142.498 206.46 142.518 206.1 142.518 205.72C142.518 202.48 140.298 200.3 137.158 200.3C133.898 200.3 131.658 202.52 131.658 205.98C131.658 209.44 133.998 211.68 137.158 211.68C139.858 211.68 141.598 210.14 142.218 208.22ZM152.582 211.5H154.842V205C154.842 201.92 152.902 200.3 150.322 200.3C149.002 200.3 147.782 200.84 147.042 201.74V200.48H144.762V211.5H147.042V205.34C147.042 203.32 148.142 202.28 149.822 202.28C151.482 202.28 152.582 203.32 152.582 205.34V211.5ZM156.99 205.94C156.99 209.34 159.29 211.68 162.19 211.68C163.99 211.68 165.31 210.84 166.01 209.84V211.5H168.31V196.7H166.01V202.02C165.17 200.98 163.65 200.3 162.21 200.3C159.29 200.3 156.99 202.54 156.99 205.94ZM166.01 205.98C166.01 208.36 164.39 209.7 162.67 209.7C160.97 209.7 159.33 208.32 159.33 205.94C159.33 203.56 160.97 202.28 162.67 202.28C164.39 202.28 166.01 203.62 166.01 205.98ZM170.545 205.94C170.545 209.34 172.845 211.68 175.705 211.68C177.545 211.68 178.865 210.8 179.565 209.86V211.5H181.865V200.48H179.565V202.08C178.885 201.18 177.605 200.3 175.745 200.3C172.845 200.3 170.545 202.54 170.545 205.94ZM179.565 205.98C179.565 208.36 177.945 209.7 176.225 209.7C174.525 209.7 172.885 208.32 172.885 205.94C172.885 203.56 174.525 202.28 176.225 202.28C177.945 202.28 179.565 203.62 179.565 205.98ZM185.219 208.44C185.219 210.68 186.439 211.5 188.399 211.5H190.199V209.6H188.799C187.839 209.6 187.519 209.26 187.519 208.44V202.34H190.199V200.48H187.519V197.74H185.219V200.48H183.919V202.34H185.219V208.44ZM192.301 211.5H194.581V200.48H192.301V211.5ZM193.461 199.02C194.261 199.02 194.901 198.38 194.901 197.56C194.901 196.74 194.261 196.1 193.461 196.1C192.641 196.1 192.001 196.74 192.001 197.56C192.001 198.38 192.641 199.02 193.461 199.02ZM208.074 205.98C208.074 202.52 205.594 200.3 202.454 200.3C199.314 200.3 196.834 202.52 196.834 205.98C196.834 209.44 199.214 211.68 202.354 211.68C205.514 211.68 208.074 209.44 208.074 205.98ZM199.154 205.98C199.154 203.48 200.694 202.28 202.414 202.28C204.114 202.28 205.734 203.48 205.734 205.98C205.734 208.48 204.054 209.7 202.354 209.7C200.634 209.7 199.154 208.48 199.154 205.98ZM218.148 211.5H220.408V205C220.408 201.92 218.468 200.3 215.888 200.3C214.568 200.3 213.348 200.84 212.608 201.74V200.48H210.328V211.5H212.608V205.34C212.608 203.32 213.708 202.28 215.388 202.28C217.048 202.28 218.148 203.32 218.148 205.34V211.5ZM237.892 207.56C237.892 202.48 230.532 204.44 230.532 201.3C230.532 199.96 231.552 199.32 232.872 199.36C234.312 199.4 235.132 200.26 235.212 201.2H237.732C237.532 198.82 235.652 197.42 232.992 197.42C230.152 197.42 228.212 198.94 228.212 201.38C228.212 206.5 235.592 204.32 235.592 207.68C235.592 208.86 234.692 209.72 233.092 209.72C231.512 209.72 230.712 208.8 230.612 207.66H228.172C228.172 210.12 230.312 211.64 233.092 211.64C236.192 211.64 237.892 209.64 237.892 207.56ZM244.922 208.88L241.822 200.48H239.282L243.622 211.32L241.382 216.68H243.742L250.502 200.48H248.142L244.922 208.88ZM260.443 208.42C260.323 204.44 254.103 205.68 254.103 203.46C254.103 202.72 254.743 202.22 255.963 202.22C257.203 202.22 257.943 202.88 258.023 203.84H260.303C260.183 201.64 258.543 200.3 256.043 200.3C253.443 200.3 251.803 201.72 251.803 203.48C251.803 207.52 258.203 206.28 258.203 208.44C258.203 209.2 257.503 209.76 256.183 209.76C254.923 209.76 254.063 209.02 253.983 208.12H251.623C251.723 210.12 253.583 211.68 256.223 211.68C258.823 211.68 260.443 210.28 260.443 208.42ZM263.266 208.44C263.266 210.68 264.486 211.5 266.446 211.5H268.246V209.6H266.846C265.886 209.6 265.566 209.26 265.566 208.44V202.34H268.246V200.48H265.566V197.74H263.266V200.48H261.966V202.34H263.266V208.44ZM274.988 202.22C276.688 202.22 278.028 203.3 278.068 205H271.968C272.208 203.26 273.448 202.22 274.988 202.22ZM280.148 208.22H277.688C277.268 209.08 276.488 209.76 275.088 209.76C273.408 209.76 272.108 208.66 271.948 206.84H280.368C280.428 206.46 280.448 206.1 280.448 205.72C280.448 202.48 278.228 200.3 275.088 200.3C271.828 200.3 269.588 202.52 269.588 205.98C269.588 209.44 271.928 211.68 275.088 211.68C277.788 211.68 279.528 210.14 280.148 208.22ZM298.311 211.5H300.571V205C300.571 201.92 298.611 200.3 296.031 200.3C294.431 200.3 292.871 201.14 292.191 202.48C291.431 201.04 289.971 200.3 288.231 200.3C286.911 200.3 285.711 200.84 284.971 201.74V200.48H282.691V211.5H284.971V205.34C284.971 203.32 286.071 202.28 287.751 202.28C289.411 202.28 290.511 203.32 290.511 205.34V211.5H292.771V205.34C292.771 203.32 293.871 202.28 295.551 202.28C297.211 202.28 298.311 203.32 298.311 205.34V211.5ZM311.693 208.42C311.573 204.44 305.353 205.68 305.353 203.46C305.353 202.72 305.993 202.22 307.213 202.22C308.453 202.22 309.193 202.88 309.273 203.84H311.553C311.433 201.64 309.793 200.3 307.293 200.3C304.693 200.3 303.053 201.72 303.053 203.48C303.053 207.52 309.453 206.28 309.453 208.44C309.453 209.2 308.753 209.76 307.433 209.76C306.173 209.76 305.313 209.02 305.233 208.12H302.873C302.973 210.12 304.833 211.68 307.473 211.68C310.073 211.68 311.693 210.28 311.693 208.42Z" fill="#212832"/>
<rect x="0.5" y="179.5" width="616" height="49" stroke="black" stroke-opacity="0.5"/>
<rect x="623" y="65" width="617" height="50" fill="white"/>
<path d="M647.6 93.44C649.08 93.44 650.24 92.3 650.24 90.84C650.24 89.36 649.08 88.22 647.6 88.22C646.16 88.22 645 89.36 645 90.84C645 92.3 646.16 93.44 647.6 93.44ZM664.109 92.42C664.109 95.96 666.589 97.64 669.509 97.64C672.409 97.64 674.969 95.96 674.969 92.42V83.6H672.689V92.46C672.689 94.62 671.469 95.64 669.529 95.64C667.609 95.64 666.389 94.62 666.389 92.46V83.6H664.109V92.42ZM685.758 97.5H688.018V91C688.018 87.92 686.078 86.3 683.498 86.3C682.178 86.3 680.958 86.84 680.218 87.74V86.48H677.938V97.5H680.218V91.34C680.218 89.32 681.318 88.28 682.998 88.28C684.658 88.28 685.758 89.32 685.758 91.34V97.5ZM699.146 94.42C699.026 90.44 692.806 91.68 692.806 89.46C692.806 88.72 693.446 88.22 694.666 88.22C695.906 88.22 696.646 88.88 696.726 89.84H699.006C698.886 87.64 697.246 86.3 694.746 86.3C692.146 86.3 690.506 87.72 690.506 89.48C690.506 93.52 696.906 92.28 696.906 94.44C696.906 95.2 696.206 95.76 694.886 95.76C693.626 95.76 692.766 95.02 692.686 94.12H690.326C690.426 96.12 692.286 97.68 694.926 97.68C697.526 97.68 699.146 96.28 699.146 94.42ZM711.589 86.48H709.309V92.62C709.309 94.64 708.209 95.68 706.529 95.68C704.869 95.68 703.769 94.64 703.769 92.62V86.48H701.509V92.96C701.509 96.04 703.469 97.66 706.049 97.66C707.349 97.66 708.589 97.12 709.309 96.18V97.5H711.589V86.48ZM716.878 88.1V86.48H714.598V102.74H716.878V95.9C717.598 96.76 718.898 97.68 720.718 97.68C723.618 97.68 725.898 95.34 725.898 91.94C725.898 88.54 723.618 86.3 720.718 86.3C718.918 86.3 717.578 87.18 716.878 88.1ZM723.578 91.94C723.578 94.32 721.938 95.7 720.218 95.7C718.518 95.7 716.878 94.36 716.878 91.98C716.878 89.62 718.518 88.28 720.218 88.28C721.938 88.28 723.578 89.56 723.578 91.94ZM732.792 88.22C734.492 88.22 735.832 89.3 735.872 91H729.772C730.012 89.26 731.252 88.22 732.792 88.22ZM737.952 94.22H735.492C735.072 95.08 734.292 95.76 732.892 95.76C731.212 95.76 729.912 94.66 729.752 92.84H738.172C738.232 92.46 738.252 92.1 738.252 91.72C738.252 88.48 736.032 86.3 732.892 86.3C729.632 86.3 727.392 88.52 727.392 91.98C727.392 95.44 729.732 97.68 732.892 97.68C735.592 97.68 737.332 96.14 737.952 94.22ZM742.776 91.7C742.776 89.36 743.816 88.66 745.496 88.66H746.076V86.3C744.516 86.3 743.416 86.98 742.776 88.08V86.48H740.496V97.5H742.776V91.7ZM746.872 86.48L751.052 97.5H753.772L757.972 86.48H755.552L752.432 95.46L749.312 86.48H746.872ZM759.695 97.5H761.975V86.48H759.695V97.5ZM760.855 85.02C761.655 85.02 762.295 84.38 762.295 83.56C762.295 82.74 761.655 82.1 760.855 82.1C760.035 82.1 759.395 82.74 759.395 83.56C759.395 84.38 760.035 85.02 760.855 85.02ZM773.189 94.42C773.069 90.44 766.849 91.68 766.849 89.46C766.849 88.72 767.489 88.22 768.709 88.22C769.949 88.22 770.689 88.88 770.769 89.84H773.049C772.929 87.64 771.289 86.3 768.789 86.3C766.189 86.3 764.549 87.72 764.549 89.48C764.549 93.52 770.949 92.28 770.949 94.44C770.949 95.2 770.249 95.76 768.929 95.76C767.669 95.76 766.809 95.02 766.729 94.12H764.369C764.469 96.12 766.329 97.68 768.969 97.68C771.569 97.68 773.189 96.28 773.189 94.42ZM780.292 88.22C781.992 88.22 783.332 89.3 783.372 91H777.272C777.512 89.26 778.752 88.22 780.292 88.22ZM785.452 94.22H782.992C782.572 95.08 781.792 95.76 780.392 95.76C778.712 95.76 777.412 94.66 777.252 92.84H785.672C785.732 92.46 785.752 92.1 785.752 91.72C785.752 88.48 783.532 86.3 780.392 86.3C777.132 86.3 774.892 88.52 774.892 91.98C774.892 95.44 777.232 97.68 780.392 97.68C783.092 97.68 784.832 96.14 785.452 94.22ZM787.236 91.94C787.236 95.34 789.536 97.68 792.436 97.68C794.236 97.68 795.556 96.84 796.256 95.84V97.5H798.556V82.7H796.256V88.02C795.416 86.98 793.896 86.3 792.456 86.3C789.536 86.3 787.236 88.54 787.236 91.94ZM796.256 91.98C796.256 94.36 794.636 95.7 792.916 95.7C791.216 95.7 789.576 94.32 789.576 91.94C789.576 89.56 791.216 88.28 792.916 88.28C794.636 88.28 796.256 89.62 796.256 91.98ZM806.746 83.6V97.5H813.726V95.66H809.026V83.6H806.746ZM820.273 88.22C821.973 88.22 823.313 89.3 823.353 91H817.253C817.493 89.26 818.733 88.22 820.273 88.22ZM825.433 94.22H822.973C822.553 95.08 821.773 95.76 820.373 95.76C818.693 95.76 817.393 94.66 817.233 92.84H825.653C825.713 92.46 825.733 92.1 825.733 91.72C825.733 88.48 823.513 86.3 820.373 86.3C817.113 86.3 814.873 88.52 814.873 91.98C814.873 95.44 817.213 97.68 820.373 97.68C823.073 97.68 824.813 96.14 825.433 94.22ZM827.217 91.94C827.217 95.34 829.517 97.68 832.377 97.68C834.217 97.68 835.537 96.8 836.237 95.86V97.5H838.537V86.48H836.237V88.08C835.557 87.18 834.277 86.3 832.417 86.3C829.517 86.3 827.217 88.54 827.217 91.94ZM836.237 91.98C836.237 94.36 834.617 95.7 832.897 95.7C831.197 95.7 829.557 94.32 829.557 91.94C829.557 89.56 831.197 88.28 832.897 88.28C834.617 88.28 836.237 89.62 836.237 91.98ZM843.811 91.7C843.811 89.36 844.851 88.66 846.531 88.66H847.111V86.3C845.551 86.3 844.451 86.98 843.811 88.08V86.48H841.531V97.5H843.811V91.7ZM857.027 97.5H859.287V91C859.287 87.92 857.347 86.3 854.767 86.3C853.447 86.3 852.227 86.84 851.487 87.74V86.48H849.207V97.5H851.487V91.34C851.487 89.32 852.587 88.28 854.267 88.28C855.927 88.28 857.027 89.32 857.027 91.34V97.5ZM862.195 97.5H864.475V86.48H862.195V97.5ZM863.355 85.02C864.155 85.02 864.795 84.38 864.795 83.56C864.795 82.74 864.155 82.1 863.355 82.1C862.535 82.1 861.895 82.74 861.895 83.56C861.895 84.38 862.535 85.02 863.355 85.02ZM875.289 97.5H877.549V91C877.549 87.92 875.609 86.3 873.029 86.3C871.709 86.3 870.489 86.84 869.749 87.74V86.48H867.469V97.5H869.749V91.34C869.749 89.32 870.849 88.28 872.529 88.28C874.189 88.28 875.289 89.32 875.289 91.34V97.5ZM879.697 91.94C879.697 95.34 881.997 97.68 884.897 97.68C886.697 97.68 888.017 96.78 888.717 95.84V97.68C888.717 99.88 887.397 100.96 885.637 100.96C884.057 100.96 882.837 100.18 882.497 99.04H880.237C880.517 101.48 882.697 102.94 885.637 102.94C889.077 102.94 891.017 100.68 891.017 97.68V86.48H888.717V88.08C888.037 87.14 886.697 86.3 884.897 86.3C881.997 86.3 879.697 88.54 879.697 91.94ZM888.717 91.98C888.717 94.36 887.097 95.7 885.377 95.7C883.677 95.7 882.037 94.32 882.037 91.94C882.037 89.56 883.677 88.28 885.377 88.28C887.097 88.28 888.717 89.62 888.717 91.98Z" fill="#212832"/>
<rect x="623.5" y="65.5" width="616" height="49" stroke="black" stroke-opacity="0.5"/>
<rect x="623" y="122" width="617" height="50" fill="white"/>
<path d="M647.6 150.44C649.08 150.44 650.24 149.3 650.24 147.84C650.24 146.36 649.08 145.22 647.6 145.22C646.16 145.22 645 146.36 645 147.84C645 149.3 646.16 150.44 647.6 150.44ZM664.129 154.5H666.409V148.42H671.009V146.56H666.409V142.46H672.309V140.6H664.129V154.5ZM679.062 145.22C680.762 145.22 682.102 146.3 682.142 148H676.042C676.282 146.26 677.522 145.22 679.062 145.22ZM684.222 151.22H681.762C681.342 152.08 680.562 152.76 679.162 152.76C677.482 152.76 676.182 151.66 676.022 149.84H684.442C684.502 149.46 684.522 149.1 684.522 148.72C684.522 145.48 682.302 143.3 679.162 143.3C675.902 143.3 673.662 145.52 673.662 148.98C673.662 152.44 676.002 154.68 679.162 154.68C681.862 154.68 683.602 153.14 684.222 151.22ZM686.006 148.94C686.006 152.34 688.306 154.68 691.166 154.68C693.006 154.68 694.326 153.8 695.026 152.86V154.5H697.326V143.48H695.026V145.08C694.346 144.18 693.066 143.3 691.206 143.3C688.306 143.3 686.006 145.54 686.006 148.94ZM695.026 148.98C695.026 151.36 693.406 152.7 691.686 152.7C689.986 152.7 688.346 151.32 688.346 148.94C688.346 146.56 689.986 145.28 691.686 145.28C693.406 145.28 695.026 146.62 695.026 148.98ZM700.68 151.44C700.68 153.68 701.9 154.5 703.86 154.5H705.66V152.6H704.26C703.3 152.6 702.98 152.26 702.98 151.44V145.34H705.66V143.48H702.98V140.74H700.68V143.48H699.38V145.34H700.68V151.44ZM717.742 143.48H715.462V149.62C715.462 151.64 714.362 152.68 712.682 152.68C711.022 152.68 709.922 151.64 709.922 149.62V143.48H707.662V149.96C707.662 153.04 709.622 154.66 712.202 154.66C713.502 154.66 714.742 154.12 715.462 153.18V154.5H717.742V143.48ZM723.03 148.7C723.03 146.36 724.07 145.66 725.75 145.66H726.33V143.3C724.77 143.3 723.67 143.98 723.03 145.08V143.48H720.75V154.5H723.03V148.7ZM728.426 154.5H730.706V143.48H728.426V154.5ZM729.586 142.02C730.386 142.02 731.026 141.38 731.026 140.56C731.026 139.74 730.386 139.1 729.586 139.1C728.766 139.1 728.126 139.74 728.126 140.56C728.126 141.38 728.766 142.02 729.586 142.02ZM740.719 143.48H733.079V145.34H738.099L733.079 152.64V154.5H740.719V152.64H735.719L740.719 145.34V143.48ZM742.353 148.94C742.353 152.34 744.653 154.68 747.513 154.68C749.353 154.68 750.673 153.8 751.373 152.86V154.5H753.673V143.48H751.373V145.08C750.693 144.18 749.413 143.3 747.553 143.3C744.653 143.3 742.353 145.54 742.353 148.94ZM751.373 148.98C751.373 151.36 749.753 152.7 748.033 152.7C746.333 152.7 744.693 151.32 744.693 148.94C744.693 146.56 746.333 145.28 748.033 145.28C749.753 145.28 751.373 146.62 751.373 148.98ZM757.028 151.44C757.028 153.68 758.248 154.5 760.208 154.5H762.008V152.6H760.608C759.648 152.6 759.328 152.26 759.328 151.44V145.34H762.008V143.48H759.328V140.74H757.028V143.48H755.728V145.34H757.028V151.44ZM764.109 154.5H766.389V143.48H764.109V154.5ZM765.269 142.02C766.069 142.02 766.709 141.38 766.709 140.56C766.709 139.74 766.069 139.1 765.269 139.1C764.449 139.1 763.809 139.74 763.809 140.56C763.809 141.38 764.449 142.02 765.269 142.02ZM779.883 148.98C779.883 145.52 777.403 143.3 774.263 143.3C771.123 143.3 768.643 145.52 768.643 148.98C768.643 152.44 771.023 154.68 774.163 154.68C777.323 154.68 779.883 152.44 779.883 148.98ZM770.963 148.98C770.963 146.48 772.503 145.28 774.223 145.28C775.923 145.28 777.543 146.48 777.543 148.98C777.543 151.48 775.863 152.7 774.163 152.7C772.443 152.7 770.963 151.48 770.963 148.98ZM789.957 154.5H792.217V148C792.217 144.92 790.277 143.3 787.697 143.3C786.377 143.3 785.157 143.84 784.417 144.74V143.48H782.137V154.5H784.417V148.34C784.417 146.32 785.517 145.28 787.197 145.28C788.857 145.28 789.957 146.32 789.957 148.34V154.5ZM793.725 157.28H795.205L797.625 151.76H795.145L793.725 157.28ZM804.813 154.5H807.093V144.98L811.353 154.5H812.933L817.173 144.98V154.5H819.453V140.6H817.013L812.153 151.5L807.273 140.6H804.813V154.5ZM832.949 148.98C832.949 145.52 830.469 143.3 827.329 143.3C824.189 143.3 821.709 145.52 821.709 148.98C821.709 152.44 824.089 154.68 827.229 154.68C830.389 154.68 832.949 152.44 832.949 148.98ZM824.029 148.98C824.029 146.48 825.569 145.28 827.289 145.28C828.989 145.28 830.609 146.48 830.609 148.98C830.609 151.48 828.929 152.7 827.229 152.7C825.509 152.7 824.029 151.48 824.029 148.98ZM834.443 148.94C834.443 152.34 836.743 154.68 839.643 154.68C841.443 154.68 842.763 153.84 843.463 152.84V154.5H845.763V139.7H843.463V145.02C842.623 143.98 841.103 143.3 839.663 143.3C836.743 143.3 834.443 145.54 834.443 148.94ZM843.463 148.98C843.463 151.36 841.843 152.7 840.123 152.7C838.423 152.7 836.783 151.32 836.783 148.94C836.783 146.56 838.423 145.28 840.123 145.28C841.843 145.28 843.463 146.62 843.463 148.98ZM853.398 145.22C855.098 145.22 856.438 146.3 856.478 148H850.378C850.618 146.26 851.858 145.22 853.398 145.22ZM858.558 151.22H856.098C855.678 152.08 854.898 152.76 853.498 152.76C851.818 152.76 850.518 151.66 850.358 149.84H858.778C858.838 149.46 858.858 149.1 858.858 148.72C858.858 145.48 856.638 143.3 853.498 143.3C850.238 143.3 847.998 145.52 847.998 148.98C847.998 152.44 850.338 154.68 853.498 154.68C856.198 154.68 857.938 153.14 858.558 151.22ZM861.102 154.5H863.382V139.7H861.102V154.5ZM880.95 150.56C880.95 145.48 873.59 147.44 873.59 144.3C873.59 142.96 874.61 142.32 875.93 142.36C877.37 142.4 878.19 143.26 878.27 144.2H880.79C880.59 141.82 878.71 140.42 876.05 140.42C873.21 140.42 871.27 141.94 871.27 144.38C871.27 149.5 878.65 147.32 878.65 150.68C878.65 151.86 877.75 152.72 876.15 152.72C874.57 152.72 873.77 151.8 873.67 150.66H871.23C871.23 153.12 873.37 154.64 876.15 154.64C879.25 154.64 880.95 152.64 880.95 150.56ZM888.281 145.22C889.981 145.22 891.321 146.3 891.361 148H885.261C885.501 146.26 886.741 145.22 888.281 145.22ZM893.441 151.22H890.981C890.561 152.08 889.781 152.76 888.381 152.76C886.701 152.76 885.401 151.66 885.241 149.84H893.661C893.721 149.46 893.741 149.1 893.741 148.72C893.741 145.48 891.521 143.3 888.381 143.3C885.121 143.3 882.881 145.52 882.881 148.98C882.881 152.44 885.221 154.68 888.381 154.68C891.081 154.68 892.821 153.14 893.441 151.22ZM895.984 154.5H898.264V139.7H895.984V154.5ZM905.898 145.22C907.598 145.22 908.938 146.3 908.978 148H902.878C903.118 146.26 904.358 145.22 905.898 145.22ZM911.058 151.22H908.598C908.178 152.08 907.398 152.76 905.998 152.76C904.318 152.76 903.018 151.66 902.858 149.84H911.278C911.338 149.46 911.358 149.1 911.358 148.72C911.358 145.48 909.138 143.3 905.998 143.3C902.738 143.3 900.498 145.52 900.498 148.98C900.498 152.44 902.838 154.68 905.998 154.68C908.698 154.68 910.438 153.14 911.058 151.22ZM912.842 148.98C912.842 152.44 915.082 154.68 918.242 154.68C920.942 154.68 922.702 153.18 923.322 151.02H920.862C920.442 152.16 919.602 152.76 918.242 152.76C916.402 152.76 915.182 151.4 915.182 148.98C915.182 146.58 916.402 145.22 918.242 145.22C919.602 145.22 920.482 145.9 920.862 146.96H923.322C922.702 144.64 920.942 143.3 918.242 143.3C915.082 143.3 912.842 145.54 912.842 148.98ZM925.954 151.44C925.954 153.68 927.174 154.5 929.134 154.5H930.934V152.6H929.534C928.574 152.6 928.254 152.26 928.254 151.44V145.34H930.934V143.48H928.254V140.74H925.954V143.48H924.654V145.34H925.954V151.44ZM933.035 154.5H935.315V143.48H933.035V154.5ZM934.195 142.02C934.995 142.02 935.635 141.38 935.635 140.56C935.635 139.74 934.995 139.1 934.195 139.1C933.375 139.1 932.735 139.74 932.735 140.56C932.735 141.38 933.375 142.02 934.195 142.02ZM948.809 148.98C948.809 145.52 946.329 143.3 943.189 143.3C940.049 143.3 937.569 145.52 937.569 148.98C937.569 152.44 939.949 154.68 943.089 154.68C946.249 154.68 948.809 152.44 948.809 148.98ZM939.889 148.98C939.889 146.48 941.429 145.28 943.149 145.28C944.849 145.28 946.469 146.48 946.469 148.98C946.469 151.48 944.789 152.7 943.089 152.7C941.369 152.7 939.889 151.48 939.889 148.98ZM958.883 154.5H961.143V148C961.143 144.92 959.203 143.3 956.623 143.3C955.303 143.3 954.083 143.84 953.343 144.74V143.48H951.063V154.5H953.343V148.34C953.343 146.32 954.443 145.28 956.123 145.28C957.783 145.28 958.883 146.32 958.883 148.34V154.5ZM978.086 143.7C978.226 141.8 976.926 140.28 974.506 140.28C972.126 140.28 970.646 141.66 970.646 143.48C970.646 144.46 970.926 145.2 971.706 146.14C969.506 147.04 968.446 148.62 968.446 150.5C968.446 153.1 970.446 154.76 973.446 154.76C975.386 154.76 976.926 154.12 978.266 152.78L979.986 154.5H982.966L979.586 151.14C979.746 150.88 979.926 150.6 980.086 150.32L981.886 147.24H979.426L978.006 149.58L974.326 145.92C973.346 144.86 972.926 144.24 972.926 143.48C972.926 142.74 973.506 142.14 974.406 142.14C975.266 142.14 975.846 142.68 975.806 143.7H978.086ZM973.446 152.82C971.806 152.82 970.726 151.76 970.726 150.42C970.726 149.18 971.466 148.22 973.086 147.58L976.766 151.28C975.806 152.3 974.746 152.82 973.446 152.82ZM988.936 142.46H992.656V154.5H994.936V142.46H998.636V140.6H988.936V142.46ZM1010.93 143.48H1008.65V149.62C1008.65 151.64 1007.55 152.68 1005.87 152.68C1004.21 152.68 1003.11 151.64 1003.11 149.62V143.48H1000.85V149.96C1000.85 153.04 1002.81 154.66 1005.39 154.66C1006.69 154.66 1007.93 154.12 1008.65 153.18V154.5H1010.93V143.48ZM1021.75 154.5H1024.01V148C1024.01 144.92 1022.07 143.3 1019.49 143.3C1018.17 143.3 1016.95 143.84 1016.21 144.74V143.48H1013.93V154.5H1016.21V148.34C1016.21 146.32 1017.31 145.28 1018.99 145.28C1020.65 145.28 1021.75 146.32 1021.75 148.34V154.5ZM1026.92 154.5H1029.2V143.48H1026.92V154.5ZM1028.08 142.02C1028.88 142.02 1029.52 141.38 1029.52 140.56C1029.52 139.74 1028.88 139.1 1028.08 139.1C1027.26 139.1 1026.62 139.74 1026.62 140.56C1026.62 141.38 1027.26 142.02 1028.08 142.02ZM1040.02 154.5H1042.28V148C1042.28 144.92 1040.34 143.3 1037.76 143.3C1036.44 143.3 1035.22 143.84 1034.48 144.74V143.48H1032.2V154.5H1034.48V148.34C1034.48 146.32 1035.58 145.28 1037.26 145.28C1038.92 145.28 1040.02 146.32 1040.02 148.34V154.5ZM1044.42 148.94C1044.42 152.34 1046.72 154.68 1049.62 154.68C1051.42 154.68 1052.74 153.78 1053.44 152.84V154.68C1053.44 156.88 1052.12 157.96 1050.36 157.96C1048.78 157.96 1047.56 157.18 1047.22 156.04H1044.96C1045.24 158.48 1047.42 159.94 1050.36 159.94C1053.8 159.94 1055.74 157.68 1055.74 154.68V143.48H1053.44V145.08C1052.76 144.14 1051.42 143.3 1049.62 143.3C1046.72 143.3 1044.42 145.54 1044.42 148.94ZM1053.44 148.98C1053.44 151.36 1051.82 152.7 1050.1 152.7C1048.4 152.7 1046.76 151.32 1046.76 148.94C1046.76 146.56 1048.4 145.28 1050.1 145.28C1051.82 145.28 1053.44 146.62 1053.44 148.98Z" fill="#212832"/>
<rect x="623.5" y="122.5" width="616" height="49" stroke="black" stroke-opacity="0.5"/>
<rect x="623" y="179" width="617" height="50" fill="white"/>
<path d="M644.74 205.22H652.96V203.3H644.74V205.22ZM656.439 205.22H664.659V203.3H656.439V205.22ZM668.138 205.22H676.358V203.3H668.138V205.22ZM679.838 205.22H688.058V203.3H679.838V205.22Z" fill="#212832"/>
<rect x="623.5" y="179.5" width="616" height="49" stroke="black" stroke-opacity="0.5"/>
</svg>
