<svg width="1240" height="172" viewBox="0 0 1240 172" fill="none" xmlns="http://www.w3.org/2000/svg">
<rect width="1240" height="58" fill="#CBE3FF"/>
<path d="M21.375 24.575H24.8C24.925 23.425 25.65 22.325 27.35 22.325C28.95 22.325 29.825 23.175 29.825 24.6C29.825 26.4 28.325 26.975 26.275 26.975H25.55V29.85H26.275C28.875 29.85 30.175 30.6 30.175 32.65C30.175 34.1 29.275 35.2 27.525 35.2C25.65 35.2 24.6 34.075 24.525 32.5H21.125C21.275 36.325 24 38.125 27.6 38.125C31.425 38.125 33.525 35.925 33.525 32.95C33.525 30.475 32.3 28.975 30.45 28.4V28.3C31.775 27.85 33.2 26.45 33.2 24.175C33.2 21.475 31.2 19.35 27.45 19.35C23.95 19.35 21.55 21.2 21.375 24.575ZM40.8658 36.125C40.8658 34.975 39.9658 34.075 38.7408 34.075C37.4658 34.075 36.5658 34.975 36.5658 36.125C36.5658 37.275 37.4658 38.175 38.7408 38.175C39.9658 38.175 40.8658 37.275 40.8658 36.125ZM62.492 38H66.192L59.917 20.525H55.842L49.567 38H53.242L54.392 34.675H61.342L62.492 38ZM60.392 31.875H55.342L57.867 24.575L60.392 31.875ZM72.5375 31.1C72.5375 28.425 73.7875 27.625 75.8625 27.625H76.7875V23.95C74.8625 23.95 73.4125 24.875 72.5375 26.3V24.15H69.0375V38H72.5375V31.1ZM80.1949 33.7C80.1949 36.875 81.9699 38 84.6199 38H86.8199V35.05H85.1949C84.0949 35.05 83.7199 34.65 83.7199 33.725V27.025H86.8199V24.15H83.7199V20.725H80.1949V24.15H78.5449V27.025H80.1949V33.7ZM89.8373 38H93.3373V24.15H89.8373V38ZM91.6123 22.5C92.8373 22.5 93.7623 21.6 93.7623 20.45C93.7623 19.3 92.8373 18.4 91.6123 18.4C90.3623 18.4 89.4623 19.3 89.4623 20.45C89.4623 21.6 90.3623 22.5 91.6123 22.5ZM97.6703 38H101.22V27.025H103.645V24.15H101.22V23.575C101.22 22.025 101.795 21.475 103.495 21.525V18.575C99.5953 18.475 97.6703 20.05 97.6703 23.45V24.15H96.0953V27.025H97.6703V38ZM106.413 38H109.913V24.15H106.413V38ZM108.188 22.5C109.413 22.5 110.338 21.6 110.338 20.45C110.338 19.3 109.413 18.4 108.188 18.4C106.938 18.4 106.038 19.3 106.038 20.45C106.038 21.6 106.938 22.5 108.188 22.5ZM112.971 31.075C112.971 35.425 115.821 38.225 119.821 38.225C123.271 38.225 125.596 36.275 126.346 33.325H122.571C122.146 34.575 121.246 35.225 119.796 35.225C117.846 35.225 116.546 33.775 116.546 31.075C116.546 28.375 117.846 26.9 119.796 26.9C121.246 26.9 122.171 27.65 122.571 28.825H126.346C125.596 25.725 123.271 23.925 119.821 23.925C115.821 23.925 112.971 26.725 112.971 31.075ZM129.411 38H132.911V24.15H129.411V38ZM131.186 22.5C132.411 22.5 133.336 21.6 133.336 20.45C133.336 19.3 132.411 18.4 131.186 18.4C129.936 18.4 129.036 19.3 129.036 20.45C129.036 21.6 129.936 22.5 131.186 22.5ZM135.969 31.025C135.969 35.35 138.769 38.225 142.269 38.225C144.469 38.225 146.044 37.175 146.869 35.975V38H150.394V24.15H146.869V26.125C146.044 24.975 144.519 23.925 142.294 23.925C138.769 23.925 135.969 26.7 135.969 31.025ZM146.869 31.075C146.869 33.7 145.119 35.15 143.194 35.15C141.319 35.15 139.544 33.65 139.544 31.025C139.544 28.4 141.319 27 143.194 27C145.119 27 146.869 28.45 146.869 31.075ZM154.312 38H157.812V19.5H154.312V38ZM168.227 38H171.727V20.55H168.227V38ZM185.385 38H188.885V29.875C188.885 26.05 186.585 23.95 183.36 23.95C181.585 23.95 180.085 24.7 179.185 25.875V24.15H175.685V38H179.185V30.35C179.185 28.125 180.41 26.925 182.31 26.925C184.16 26.925 185.385 28.125 185.385 30.35V38ZM193.263 33.7C193.263 36.875 195.038 38 197.688 38H199.888V35.05H198.263C197.163 35.05 196.788 34.65 196.788 33.725V27.025H199.888V24.15H196.788V20.725H193.263V24.15H191.613V27.025H193.263V33.7ZM208.856 26.8C210.656 26.8 212.106 27.95 212.156 29.775H205.581C205.856 27.875 207.181 26.8 208.856 26.8ZM215.431 33.65H211.656C211.206 34.575 210.381 35.325 208.881 35.325C207.131 35.325 205.731 34.175 205.556 32.125H215.681C215.756 31.675 215.781 31.225 215.781 30.775C215.781 26.65 212.956 23.925 208.956 23.925C204.856 23.925 202.006 26.7 202.006 31.075C202.006 35.425 204.931 38.225 208.956 38.225C212.381 38.225 214.681 36.2 215.431 33.65ZM218.835 38H222.335V19.5H218.835V38ZM226.293 38H229.793V19.5H226.293V38ZM233.751 38H237.251V24.15H233.751V38ZM235.526 22.5C236.751 22.5 237.676 21.6 237.676 20.45C237.676 19.3 236.751 18.4 235.526 18.4C234.276 18.4 233.376 19.3 233.376 20.45C233.376 21.6 234.276 22.5 235.526 22.5ZM240.309 31.025C240.309 35.35 243.109 38.225 246.634 38.225C248.809 38.225 250.384 37.15 251.209 35.95V38.1C251.209 40.675 249.709 41.775 247.784 41.775C246.034 41.775 244.734 40.95 244.384 39.7H240.909C241.259 42.875 243.984 44.825 247.884 44.825C252.434 44.825 254.734 41.85 254.734 38.1V24.15H251.209V26.125C250.384 24.925 248.809 23.925 246.634 23.925C243.109 23.925 240.309 26.7 240.309 31.025ZM251.209 31.075C251.209 33.7 249.459 35.15 247.534 35.15C245.659 35.15 243.884 33.65 243.884 31.025C243.884 28.4 245.659 27 247.534 27C249.459 27 251.209 28.45 251.209 31.075ZM264.603 26.8C266.403 26.8 267.853 27.95 267.903 29.775H261.328C261.603 27.875 262.928 26.8 264.603 26.8ZM271.178 33.65H267.403C266.953 34.575 266.128 35.325 264.628 35.325C262.878 35.325 261.478 34.175 261.303 32.125H271.428C271.503 31.675 271.528 31.225 271.528 30.775C271.528 26.65 268.703 23.925 264.703 23.925C260.603 23.925 257.753 26.7 257.753 31.075C257.753 35.425 260.678 38.225 264.703 38.225C268.128 38.225 270.428 36.2 271.178 33.65ZM284.282 38H287.782V29.875C287.782 26.05 285.482 23.95 282.257 23.95C280.482 23.95 278.982 24.7 278.082 25.875V24.15H274.582V38H278.082V30.35C278.082 28.125 279.307 26.925 281.207 26.925C283.057 26.925 284.282 28.125 284.282 30.35V38ZM290.711 31.075C290.711 35.425 293.561 38.225 297.561 38.225C301.011 38.225 303.336 36.275 304.086 33.325H300.311C299.886 34.575 298.986 35.225 297.536 35.225C295.586 35.225 294.286 33.775 294.286 31.075C294.286 28.375 295.586 26.9 297.536 26.9C298.986 26.9 299.911 27.65 300.311 28.825H304.086C303.336 25.725 301.011 23.925 297.561 23.925C293.561 23.925 290.711 26.725 290.711 31.075ZM313.1 26.8C314.9 26.8 316.35 27.95 316.4 29.775H309.825C310.1 27.875 311.425 26.8 313.1 26.8ZM319.675 33.65H315.9C315.45 34.575 314.625 35.325 313.125 35.325C311.375 35.325 309.975 34.175 309.8 32.125H319.925C320 31.675 320.025 31.225 320.025 30.775C320.025 26.65 317.2 23.925 313.2 23.925C309.1 23.925 306.25 26.7 306.25 31.075C306.25 35.425 309.175 38.225 313.2 38.225C316.625 38.225 318.925 36.2 319.675 33.65Z" fill="black"/>
<rect y="65" width="617" height="50" fill="white"/>
<path d="M24.6 93.44C26.08 93.44 27.24 92.3 27.24 90.84C27.24 89.36 26.08 88.22 24.6 88.22C23.16 88.22 22 89.36 22 90.84C22 92.3 23.16 93.44 24.6 93.44ZM41.1289 97.5H43.4089V83.6H41.1289V97.5ZM54.2223 97.5H56.4823V91C56.4823 87.92 54.5423 86.3 51.9623 86.3C50.6423 86.3 49.4223 86.84 48.6823 87.74V86.48H46.4023V97.5H48.6823V91.34C48.6823 89.32 49.7823 88.28 51.4623 88.28C53.1223 88.28 54.2223 89.32 54.2223 91.34V97.5ZM59.7506 94.44C59.7506 96.68 60.9706 97.5 62.9306 97.5H64.7306V95.6H63.3306C62.3706 95.6 62.0506 95.26 62.0506 94.44V88.34H64.7306V86.48H62.0506V83.74H59.7506V86.48H58.4506V88.34H59.7506V94.44ZM69.112 91.7C69.112 89.36 70.152 88.66 71.832 88.66H72.412V86.3C70.852 86.3 69.752 86.98 69.112 88.08V86.48H66.832V97.5H69.112V91.7ZM85.0078 91.98C85.0078 88.52 82.5278 86.3 79.3878 86.3C76.2478 86.3 73.7678 88.52 73.7678 91.98C73.7678 95.44 76.1478 97.68 79.2878 97.68C82.4478 97.68 85.0078 95.44 85.0078 91.98ZM76.0878 91.98C76.0878 89.48 77.6278 88.28 79.3478 88.28C81.0478 88.28 82.6678 89.48 82.6678 91.98C82.6678 94.48 80.9878 95.7 79.2878 95.7C77.5678 95.7 76.0878 94.48 76.0878 91.98ZM86.5017 91.94C86.5017 95.34 88.8017 97.68 91.7017 97.68C93.5017 97.68 94.8217 96.84 95.5217 95.84V97.5H97.8217V82.7H95.5217V88.02C94.6817 86.98 93.1617 86.3 91.7217 86.3C88.8017 86.3 86.5017 88.54 86.5017 91.94ZM95.5217 91.98C95.5217 94.36 93.9017 95.7 92.1817 95.7C90.4817 95.7 88.8417 94.32 88.8417 91.94C88.8417 89.56 90.4817 88.28 92.1817 88.28C93.9017 88.28 95.5217 89.62 95.5217 91.98ZM110.796 86.48H108.516V92.62C108.516 94.64 107.416 95.68 105.736 95.68C104.076 95.68 102.976 94.64 102.976 92.62V86.48H100.716V92.96C100.716 96.04 102.676 97.66 105.256 97.66C106.556 97.66 107.796 97.12 108.516 96.18V97.5H110.796V86.48ZM113.045 91.98C113.045 95.44 115.285 97.68 118.445 97.68C121.145 97.68 122.905 96.18 123.525 94.02H121.065C120.645 95.16 119.805 95.76 118.445 95.76C116.605 95.76 115.385 94.4 115.385 91.98C115.385 89.58 116.605 88.22 118.445 88.22C119.805 88.22 120.685 88.9 121.065 89.96H123.525C122.905 87.64 121.145 86.3 118.445 86.3C115.285 86.3 113.045 88.54 113.045 91.98ZM126.157 94.44C126.157 96.68 127.377 97.5 129.337 97.5H131.137V95.6H129.737C128.777 95.6 128.457 95.26 128.457 94.44V88.34H131.137V86.48H128.457V83.74H126.157V86.48H124.857V88.34H126.157V94.44ZM133.238 97.5H135.518V86.48H133.238V97.5ZM134.398 85.02C135.198 85.02 135.838 84.38 135.838 83.56C135.838 82.74 135.198 82.1 134.398 82.1C133.578 82.1 132.938 82.74 132.938 83.56C132.938 84.38 133.578 85.02 134.398 85.02ZM149.012 91.98C149.012 88.52 146.532 86.3 143.392 86.3C140.252 86.3 137.772 88.52 137.772 91.98C137.772 95.44 140.152 97.68 143.292 97.68C146.452 97.68 149.012 95.44 149.012 91.98ZM140.092 91.98C140.092 89.48 141.632 88.28 143.352 88.28C145.052 88.28 146.672 89.48 146.672 91.98C146.672 94.48 144.992 95.7 143.292 95.7C141.572 95.7 140.092 94.48 140.092 91.98ZM159.086 97.5H161.346V91C161.346 87.92 159.406 86.3 156.826 86.3C155.506 86.3 154.286 86.84 153.546 87.74V86.48H151.266V97.5H153.546V91.34C153.546 89.32 154.646 88.28 156.326 88.28C157.986 88.28 159.086 89.32 159.086 91.34V97.5ZM169.809 94.44C169.809 96.68 171.029 97.5 172.989 97.5H174.789V95.6H173.389C172.429 95.6 172.109 95.26 172.109 94.44V88.34H174.789V86.48H172.109V83.74H169.809V86.48H168.509V88.34H169.809V94.44ZM187.391 91.98C187.391 88.52 184.911 86.3 181.771 86.3C178.631 86.3 176.151 88.52 176.151 91.98C176.151 95.44 178.531 97.68 181.671 97.68C184.831 97.68 187.391 95.44 187.391 91.98ZM178.471 91.98C178.471 89.48 180.011 88.28 181.731 88.28C183.431 88.28 185.051 89.48 185.051 91.98C185.051 94.48 183.371 95.7 181.671 95.7C179.951 95.7 178.471 94.48 178.471 91.98ZM203.98 83.58V93.94L197.12 83.58H194.84V97.5H197.12V87.12L203.98 97.5H206.26V83.58H203.98ZM213.894 88.22C215.594 88.22 216.934 89.3 216.974 91H210.874C211.114 89.26 212.354 88.22 213.894 88.22ZM219.054 94.22H216.594C216.174 95.08 215.394 95.76 213.994 95.76C212.314 95.76 211.014 94.66 210.854 92.84H219.274C219.334 92.46 219.354 92.1 219.354 91.72C219.354 88.48 217.134 86.3 213.994 86.3C210.734 86.3 208.494 88.52 208.494 91.98C208.494 95.44 210.834 97.68 213.994 97.68C216.694 97.68 218.434 96.14 219.054 94.22ZM231.578 86.48H229.298V92.62C229.298 94.64 228.198 95.68 226.518 95.68C224.858 95.68 223.758 94.64 223.758 92.62V86.48H221.498V92.96C221.498 96.04 223.458 97.66 226.038 97.66C227.338 97.66 228.578 97.12 229.298 96.18V97.5H231.578V86.48ZM236.866 91.7C236.866 89.36 237.906 88.66 239.586 88.66H240.166V86.3C238.606 86.3 237.506 86.98 236.866 88.08V86.48H234.586V97.5H236.866V91.7ZM241.502 91.94C241.502 95.34 243.802 97.68 246.662 97.68C248.502 97.68 249.822 96.8 250.522 95.86V97.5H252.822V86.48H250.522V88.08C249.842 87.18 248.562 86.3 246.702 86.3C243.802 86.3 241.502 88.54 241.502 91.94ZM250.522 91.98C250.522 94.36 248.902 95.7 247.182 95.7C245.482 95.7 243.842 94.32 243.842 91.94C243.842 89.56 245.482 88.28 247.182 88.28C248.902 88.28 250.522 89.62 250.522 91.98ZM255.816 97.5H258.096V82.7H255.816V97.5ZM275.425 83.58V93.94L268.565 83.58H266.285V97.5H268.565V87.12L275.425 97.5H277.705V83.58H275.425ZM285.339 88.22C287.039 88.22 288.379 89.3 288.419 91H282.319C282.559 89.26 283.799 88.22 285.339 88.22ZM290.499 94.22H288.039C287.619 95.08 286.839 95.76 285.439 95.76C283.759 95.76 282.459 94.66 282.299 92.84H290.719C290.779 92.46 290.799 92.1 290.799 91.72C290.799 88.48 288.579 86.3 285.439 86.3C282.179 86.3 279.939 88.52 279.939 91.98C279.939 95.44 282.279 97.68 285.439 97.68C288.139 97.68 289.879 96.14 290.499 94.22ZM293.403 94.44C293.403 96.68 294.623 97.5 296.583 97.5H298.383V95.6H296.983C296.023 95.6 295.703 95.26 295.703 94.44V88.34H298.383V86.48H295.703V83.74H293.403V86.48H292.103V88.34H293.403V94.44ZM302.624 97.5H305.024L307.244 89.36L309.464 97.5H311.864L315.284 86.48H313.044L310.764 95.3L308.524 86.48H306.144L303.804 95.34L301.504 86.48H299.184L302.624 97.5ZM327.488 91.98C327.488 88.52 325.008 86.3 321.868 86.3C318.728 86.3 316.248 88.52 316.248 91.98C316.248 95.44 318.628 97.68 321.768 97.68C324.928 97.68 327.488 95.44 327.488 91.98ZM318.568 91.98C318.568 89.48 320.108 88.28 321.828 88.28C323.528 88.28 325.148 89.48 325.148 91.98C325.148 94.48 323.468 95.7 321.768 95.7C320.048 95.7 318.568 94.48 318.568 91.98ZM332.022 91.7C332.022 89.36 333.062 88.66 334.742 88.66H335.322V86.3C333.762 86.3 332.662 86.98 332.022 88.08V86.48H329.742V97.5H332.022V91.7ZM337.418 97.5H339.698V92.76L343.778 97.5H346.858L341.778 92L346.858 86.48H343.698L339.698 91.3V82.7H337.418V97.5ZM356.712 94.42C356.592 90.44 350.372 91.68 350.372 89.46C350.372 88.72 351.012 88.22 352.232 88.22C353.472 88.22 354.212 88.88 354.292 89.84H356.572C356.452 87.64 354.812 86.3 352.312 86.3C349.712 86.3 348.072 87.72 348.072 89.48C348.072 93.52 354.472 92.28 354.472 94.44C354.472 95.2 353.772 95.76 352.452 95.76C351.192 95.76 350.332 95.02 350.252 94.12H347.892C347.992 96.12 349.852 97.68 352.492 97.68C355.092 97.68 356.712 96.28 356.712 94.42ZM363.611 91.94C363.611 95.34 365.911 97.68 368.771 97.68C370.611 97.68 371.931 96.8 372.631 95.86V97.5H374.931V86.48H372.631V88.08C371.951 87.18 370.671 86.3 368.811 86.3C365.911 86.3 363.611 88.54 363.611 91.94ZM372.631 91.98C372.631 94.36 371.011 95.7 369.291 95.7C367.591 95.7 365.951 94.32 365.951 91.94C365.951 89.56 367.591 88.28 369.291 88.28C371.011 88.28 372.631 89.62 372.631 91.98ZM385.746 97.5H388.006V91C388.006 87.92 386.066 86.3 383.486 86.3C382.166 86.3 380.946 86.84 380.206 87.74V86.48H377.926V97.5H380.206V91.34C380.206 89.32 381.306 88.28 382.986 88.28C384.646 88.28 385.746 89.32 385.746 91.34V97.5ZM390.154 91.94C390.154 95.34 392.454 97.68 395.354 97.68C397.154 97.68 398.474 96.84 399.174 95.84V97.5H401.474V82.7H399.174V88.02C398.334 86.98 396.814 86.3 395.374 86.3C392.454 86.3 390.154 88.54 390.154 91.94ZM399.174 91.98C399.174 94.36 397.554 95.7 395.834 95.7C394.134 95.7 392.494 94.32 392.494 91.94C392.494 89.56 394.134 88.28 395.834 88.28C397.554 88.28 399.174 89.62 399.174 91.98ZM414.204 83.6H409.664V97.5H414.204C418.664 97.5 421.584 94.88 421.584 90.6C421.584 86.3 418.664 83.6 414.204 83.6ZM411.944 95.64V85.46H414.204C417.484 85.46 419.244 87.42 419.244 90.6C419.244 93.76 417.484 95.64 414.204 95.64H411.944ZM428.484 88.22C430.184 88.22 431.524 89.3 431.564 91H425.464C425.704 89.26 426.944 88.22 428.484 88.22ZM433.644 94.22H431.184C430.764 95.08 429.984 95.76 428.584 95.76C426.904 95.76 425.604 94.66 425.444 92.84H433.864C433.924 92.46 433.944 92.1 433.944 91.72C433.944 88.48 431.724 86.3 428.584 86.3C425.324 86.3 423.084 88.52 423.084 91.98C423.084 95.44 425.424 97.68 428.584 97.68C431.284 97.68 433.024 96.14 433.644 94.22ZM440.828 88.22C442.528 88.22 443.868 89.3 443.908 91H437.808C438.048 89.26 439.288 88.22 440.828 88.22ZM445.987 94.22H443.528C443.108 95.08 442.328 95.76 440.928 95.76C439.248 95.76 437.948 94.66 437.788 92.84H446.208C446.268 92.46 446.288 92.1 446.288 91.72C446.288 88.48 444.068 86.3 440.928 86.3C437.668 86.3 435.428 88.52 435.428 91.98C435.428 95.44 437.768 97.68 440.928 97.68C443.628 97.68 445.368 96.14 445.987 94.22ZM450.811 88.1V86.48H448.531V102.74H450.811V95.9C451.531 96.76 452.831 97.68 454.651 97.68C457.551 97.68 459.831 95.34 459.831 91.94C459.831 88.54 457.551 86.3 454.651 86.3C452.851 86.3 451.511 87.18 450.811 88.1ZM457.511 91.94C457.511 94.32 455.871 95.7 454.151 95.7C452.451 95.7 450.811 94.36 450.811 91.98C450.811 89.62 452.451 88.28 454.151 88.28C455.871 88.28 457.511 89.56 457.511 91.94ZM467.281 83.6V97.5H474.261V95.66H469.561V83.6H467.281ZM480.808 88.22C482.508 88.22 483.848 89.3 483.888 91H477.788C478.028 89.26 479.268 88.22 480.808 88.22ZM485.968 94.22H483.508C483.088 95.08 482.308 95.76 480.908 95.76C479.228 95.76 477.928 94.66 477.768 92.84H486.188C486.248 92.46 486.268 92.1 486.268 91.72C486.268 88.48 484.048 86.3 480.908 86.3C477.648 86.3 475.408 88.52 475.408 91.98C475.408 95.44 477.748 97.68 480.908 97.68C483.608 97.68 485.348 96.14 485.968 94.22ZM487.752 91.94C487.752 95.34 490.052 97.68 492.912 97.68C494.752 97.68 496.072 96.8 496.772 95.86V97.5H499.072V86.48H496.772V88.08C496.092 87.18 494.812 86.3 492.952 86.3C490.052 86.3 487.752 88.54 487.752 91.94ZM496.772 91.98C496.772 94.36 495.152 95.7 493.432 95.7C491.732 95.7 490.092 94.32 490.092 91.94C490.092 89.56 491.732 88.28 493.432 88.28C495.152 88.28 496.772 89.62 496.772 91.98ZM504.346 91.7C504.346 89.36 505.386 88.66 507.066 88.66H507.646V86.3C506.086 86.3 504.986 86.98 504.346 88.08V86.48H502.066V97.5H504.346V91.7ZM517.562 97.5H519.822V91C519.822 87.92 517.882 86.3 515.302 86.3C513.982 86.3 512.762 86.84 512.022 87.74V86.48H509.742V97.5H512.022V91.34C512.022 89.32 513.122 88.28 514.802 88.28C516.462 88.28 517.562 89.32 517.562 91.34V97.5ZM522.73 97.5H525.01V86.48H522.73V97.5ZM523.89 85.02C524.69 85.02 525.33 84.38 525.33 83.56C525.33 82.74 524.69 82.1 523.89 82.1C523.07 82.1 522.43 82.74 522.43 83.56C522.43 84.38 523.07 85.02 523.89 85.02ZM535.824 97.5H538.084V91C538.084 87.92 536.144 86.3 533.564 86.3C532.244 86.3 531.024 86.84 530.284 87.74V86.48H528.004V97.5H530.284V91.34C530.284 89.32 531.384 88.28 533.064 88.28C534.724 88.28 535.824 89.32 535.824 91.34V97.5ZM540.232 91.94C540.232 95.34 542.532 97.68 545.432 97.68C547.232 97.68 548.552 96.78 549.252 95.84V97.68C549.252 99.88 547.932 100.96 546.172 100.96C544.592 100.96 543.372 100.18 543.032 99.04H540.772C541.052 101.48 543.232 102.94 546.172 102.94C549.612 102.94 551.552 100.68 551.552 97.68V86.48H549.252V88.08C548.572 87.14 547.232 86.3 545.432 86.3C542.532 86.3 540.232 88.54 540.232 91.94ZM549.252 91.98C549.252 94.36 547.632 95.7 545.912 95.7C544.212 95.7 542.572 94.32 542.572 91.94C542.572 89.56 544.212 88.28 545.912 88.28C547.632 88.28 549.252 89.62 549.252 91.98Z" fill="#212832"/>
<rect x="0.5" y="65.5" width="616" height="49" stroke="black" stroke-opacity="0.5"/>
<rect y="122" width="617" height="50" fill="white"/>
<path d="M24.6 150.44C26.08 150.44 27.24 149.3 27.24 147.84C27.24 146.36 26.08 145.22 24.6 145.22C23.16 145.22 22 146.36 22 147.84C22 149.3 23.16 150.44 24.6 150.44ZM50.2689 140.58V150.94L43.4089 140.58H41.1289V154.5H43.4089V144.12L50.2689 154.5H52.5489V140.58H50.2689ZM54.783 148.94C54.783 152.34 57.083 154.68 59.943 154.68C61.783 154.68 63.103 153.8 63.803 152.86V154.5H66.103V143.48H63.803V145.08C63.123 144.18 61.843 143.3 59.983 143.3C57.083 143.3 54.783 145.54 54.783 148.94ZM63.803 148.98C63.803 151.36 62.183 152.7 60.463 152.7C58.763 152.7 57.123 151.32 57.123 148.94C57.123 146.56 58.763 145.28 60.463 145.28C62.183 145.28 63.803 146.62 63.803 148.98ZM69.4577 151.44C69.4577 153.68 70.6777 154.5 72.6377 154.5H74.4377V152.6H73.0377C72.0777 152.6 71.7577 152.26 71.7577 151.44V145.34H74.4377V143.48H71.7577V140.74H69.4577V143.48H68.1577V145.34H69.4577V151.44ZM86.5191 143.48H84.2391V149.62C84.2391 151.64 83.1391 152.68 81.4591 152.68C79.7991 152.68 78.6991 151.64 78.6991 149.62V143.48H76.4391V149.96C76.4391 153.04 78.3991 154.66 80.9791 154.66C82.2791 154.66 83.5191 154.12 84.2391 153.18V154.5H86.5191V143.48ZM91.8073 148.7C91.8073 146.36 92.8473 145.66 94.5273 145.66H95.1073V143.3C93.5473 143.3 92.4473 143.98 91.8073 145.08V143.48H89.5273V154.5H91.8073V148.7ZM96.4431 148.94C96.4431 152.34 98.7431 154.68 101.603 154.68C103.443 154.68 104.763 153.8 105.463 152.86V154.5H107.763V143.48H105.463V145.08C104.783 144.18 103.503 143.3 101.643 143.3C98.7431 143.3 96.4431 145.54 96.4431 148.94ZM105.463 148.98C105.463 151.36 103.843 152.7 102.123 152.7C100.423 152.7 98.7831 151.32 98.7831 148.94C98.7831 146.56 100.423 145.28 102.123 145.28C103.843 145.28 105.463 146.62 105.463 148.98ZM110.758 154.5H113.038V139.7H110.758V154.5ZM121.227 140.6V154.5H128.207V152.66H123.507V140.6H121.227ZM129.353 148.94C129.353 152.34 131.653 154.68 134.513 154.68C136.353 154.68 137.673 153.8 138.373 152.86V154.5H140.673V143.48H138.373V145.08C137.693 144.18 136.413 143.3 134.553 143.3C131.653 143.3 129.353 145.54 129.353 148.94ZM138.373 148.98C138.373 151.36 136.753 152.7 135.033 152.7C133.333 152.7 131.693 151.32 131.693 148.94C131.693 146.56 133.333 145.28 135.033 145.28C136.753 145.28 138.373 146.62 138.373 148.98ZM151.488 154.5H153.748V148C153.748 144.92 151.808 143.3 149.228 143.3C147.908 143.3 146.688 143.84 145.948 144.74V143.48H143.668V154.5H145.948V148.34C145.948 146.32 147.048 145.28 148.728 145.28C150.388 145.28 151.488 146.32 151.488 148.34V154.5ZM155.896 148.94C155.896 152.34 158.196 154.68 161.096 154.68C162.896 154.68 164.216 153.78 164.916 152.84V154.68C164.916 156.88 163.596 157.96 161.836 157.96C160.256 157.96 159.036 157.18 158.696 156.04H156.436C156.716 158.48 158.896 159.94 161.836 159.94C165.276 159.94 167.216 157.68 167.216 154.68V143.48H164.916V145.08C164.236 144.14 162.896 143.3 161.096 143.3C158.196 143.3 155.896 145.54 155.896 148.94ZM164.916 148.98C164.916 151.36 163.296 152.7 161.576 152.7C159.876 152.7 158.236 151.32 158.236 148.94C158.236 146.56 159.876 145.28 161.576 145.28C163.296 145.28 164.916 146.62 164.916 148.98ZM180.191 143.48H177.911V149.62C177.911 151.64 176.811 152.68 175.131 152.68C173.471 152.68 172.371 151.64 172.371 149.62V143.48H170.111V149.96C170.111 153.04 172.071 154.66 174.651 154.66C175.951 154.66 177.191 154.12 177.911 153.18V154.5H180.191V143.48ZM182.439 148.94C182.439 152.34 184.739 154.68 187.599 154.68C189.439 154.68 190.759 153.8 191.459 152.86V154.5H193.759V143.48H191.459V145.08C190.779 144.18 189.499 143.3 187.639 143.3C184.739 143.3 182.439 145.54 182.439 148.94ZM191.459 148.98C191.459 151.36 189.839 152.7 188.119 152.7C186.419 152.7 184.779 151.32 184.779 148.94C184.779 146.56 186.419 145.28 188.119 145.28C189.839 145.28 191.459 146.62 191.459 148.98ZM195.994 148.94C195.994 152.34 198.294 154.68 201.194 154.68C202.994 154.68 204.314 153.78 205.014 152.84V154.68C205.014 156.88 203.694 157.96 201.934 157.96C200.354 157.96 199.134 157.18 198.794 156.04H196.534C196.814 158.48 198.994 159.94 201.934 159.94C205.374 159.94 207.314 157.68 207.314 154.68V143.48H205.014V145.08C204.334 144.14 202.994 143.3 201.194 143.3C198.294 143.3 195.994 145.54 195.994 148.94ZM205.014 148.98C205.014 151.36 203.394 152.7 201.674 152.7C199.974 152.7 198.334 151.32 198.334 148.94C198.334 146.56 199.974 145.28 201.674 145.28C203.394 145.28 205.014 146.62 205.014 148.98ZM214.949 145.22C216.649 145.22 217.989 146.3 218.029 148H211.929C212.169 146.26 213.409 145.22 214.949 145.22ZM220.109 151.22H217.649C217.229 152.08 216.449 152.76 215.049 152.76C213.369 152.76 212.069 151.66 211.909 149.84H220.329C220.389 149.46 220.409 149.1 220.409 148.72C220.409 145.48 218.189 143.3 215.049 143.3C211.789 143.3 209.549 145.52 209.549 148.98C209.549 152.44 211.889 154.68 215.049 154.68C217.749 154.68 219.489 153.14 220.109 151.22ZM230.128 147V142.46H232.648C234.428 142.46 235.228 143.3 235.228 144.74C235.228 146.14 234.428 147 232.648 147H230.128ZM237.568 144.74C237.568 142.48 235.948 140.6 232.648 140.6H227.848V154.5H230.128V148.86H232.648C236.268 148.86 237.568 146.72 237.568 144.74ZM242.022 148.7C242.022 146.36 243.062 145.66 244.742 145.66H245.322V143.3C243.762 143.3 242.662 143.98 242.022 145.08V143.48H239.742V154.5H242.022V148.7ZM257.918 148.98C257.918 145.52 255.438 143.3 252.298 143.3C249.158 143.3 246.678 145.52 246.678 148.98C246.678 152.44 249.058 154.68 252.198 154.68C255.358 154.68 257.918 152.44 257.918 148.98ZM248.998 148.98C248.998 146.48 250.538 145.28 252.258 145.28C253.958 145.28 255.578 146.48 255.578 148.98C255.578 151.48 253.898 152.7 252.198 152.7C250.478 152.7 248.998 151.48 248.998 148.98ZM259.412 148.98C259.412 152.44 261.652 154.68 264.812 154.68C267.512 154.68 269.272 153.18 269.892 151.02H267.432C267.012 152.16 266.172 152.76 264.812 152.76C262.972 152.76 261.752 151.4 261.752 148.98C261.752 146.58 262.972 145.22 264.812 145.22C266.172 145.22 267.052 145.9 267.432 146.96H269.892C269.272 144.64 267.512 143.3 264.812 143.3C261.652 143.3 259.412 145.54 259.412 148.98ZM276.804 145.22C278.504 145.22 279.844 146.3 279.884 148H273.784C274.024 146.26 275.264 145.22 276.804 145.22ZM281.964 151.22H279.504C279.084 152.08 278.304 152.76 276.904 152.76C275.224 152.76 273.924 151.66 273.764 149.84H282.184C282.244 149.46 282.264 149.1 282.264 148.72C282.264 145.48 280.044 143.3 276.904 143.3C273.644 143.3 271.404 145.52 271.404 148.98C271.404 152.44 273.744 154.68 276.904 154.68C279.604 154.68 281.344 153.14 281.964 151.22ZM292.728 151.42C292.608 147.44 286.388 148.68 286.388 146.46C286.388 145.72 287.028 145.22 288.248 145.22C289.488 145.22 290.228 145.88 290.308 146.84H292.588C292.468 144.64 290.828 143.3 288.328 143.3C285.728 143.3 284.088 144.72 284.088 146.48C284.088 150.52 290.488 149.28 290.488 151.44C290.488 152.2 289.788 152.76 288.468 152.76C287.208 152.76 286.348 152.02 286.268 151.12H283.908C284.008 153.12 285.868 154.68 288.508 154.68C291.108 154.68 292.728 153.28 292.728 151.42ZM303.411 151.42C303.291 147.44 297.071 148.68 297.071 146.46C297.071 145.72 297.711 145.22 298.931 145.22C300.171 145.22 300.911 145.88 300.991 146.84H303.271C303.151 144.64 301.511 143.3 299.011 143.3C296.411 143.3 294.771 144.72 294.771 146.48C294.771 150.52 301.171 149.28 301.171 151.44C301.171 152.2 300.471 152.76 299.151 152.76C297.891 152.76 297.031 152.02 296.951 151.12H294.591C294.691 153.12 296.551 154.68 299.191 154.68C301.791 154.68 303.411 153.28 303.411 151.42ZM305.875 154.5H308.155V143.48H305.875V154.5ZM307.035 142.02C307.835 142.02 308.475 141.38 308.475 140.56C308.475 139.74 307.835 139.1 307.035 139.1C306.215 139.1 305.575 139.74 305.575 140.56C305.575 141.38 306.215 142.02 307.035 142.02ZM318.968 154.5H321.228V148C321.228 144.92 319.288 143.3 316.708 143.3C315.388 143.3 314.168 143.84 313.428 144.74V143.48H311.148V154.5H313.428V148.34C313.428 146.32 314.528 145.28 316.208 145.28C317.868 145.28 318.968 146.32 318.968 148.34V154.5ZM323.377 148.94C323.377 152.34 325.677 154.68 328.577 154.68C330.377 154.68 331.697 153.78 332.397 152.84V154.68C332.397 156.88 331.077 157.96 329.317 157.96C327.737 157.96 326.517 157.18 326.177 156.04H323.917C324.197 158.48 326.377 159.94 329.317 159.94C332.757 159.94 334.697 157.68 334.697 154.68V143.48H332.397V145.08C331.717 144.14 330.377 143.3 328.577 143.3C325.677 143.3 323.377 145.54 323.377 148.94ZM332.397 148.98C332.397 151.36 330.777 152.7 329.057 152.7C327.357 152.7 325.717 151.32 325.717 148.94C325.717 146.56 327.357 145.28 329.057 145.28C330.777 145.28 332.397 146.62 332.397 148.98Z" fill="#212832"/>
<rect x="0.5" y="122.5" width="616" height="49" stroke="black" stroke-opacity="0.5"/>
<rect x="623" y="65" width="617" height="50" fill="white"/>
<path d="M647.6 93.44C649.08 93.44 650.24 92.3 650.24 90.84C650.24 89.36 649.08 88.22 647.6 88.22C646.16 88.22 645 89.36 645 90.84C645 92.3 646.16 93.44 647.6 93.44ZM663.369 90.52C663.369 94.7 666.549 97.62 670.469 97.62C673.369 97.62 675.869 96.18 676.929 93.46H674.189C673.449 94.94 672.129 95.64 670.469 95.64C667.709 95.64 665.709 93.66 665.709 90.52C665.709 87.38 667.709 85.42 670.469 85.42C672.129 85.42 673.449 86.12 674.189 87.6H676.929C675.869 84.88 673.369 83.42 670.469 83.42C666.549 83.42 663.369 86.36 663.369 90.52ZM690.098 91.98C690.098 88.52 687.618 86.3 684.478 86.3C681.338 86.3 678.858 88.52 678.858 91.98C678.858 95.44 681.238 97.68 684.378 97.68C687.538 97.68 690.098 95.44 690.098 91.98ZM681.178 91.98C681.178 89.48 682.718 88.28 684.438 88.28C686.138 88.28 687.758 89.48 687.758 91.98C687.758 94.48 686.078 95.7 684.378 95.7C682.658 95.7 681.178 94.48 681.178 91.98ZM707.972 97.5H710.232V91C710.232 87.92 708.272 86.3 705.692 86.3C704.092 86.3 702.532 87.14 701.852 88.48C701.092 87.04 699.632 86.3 697.892 86.3C696.572 86.3 695.372 86.84 694.632 87.74V86.48H692.352V97.5H694.632V91.34C694.632 89.32 695.732 88.28 697.412 88.28C699.072 88.28 700.172 89.32 700.172 91.34V97.5H702.432V91.34C702.432 89.32 703.532 88.28 705.212 88.28C706.872 88.28 707.972 89.32 707.972 91.34V97.5ZM715.413 88.1V86.48H713.133V102.74H715.413V95.9C716.133 96.76 717.433 97.68 719.253 97.68C722.153 97.68 724.433 95.34 724.433 91.94C724.433 88.54 722.153 86.3 719.253 86.3C717.453 86.3 716.113 87.18 715.413 88.1ZM722.113 91.94C722.113 94.32 720.473 95.7 718.753 95.7C717.053 95.7 715.413 94.36 715.413 91.98C715.413 89.62 717.053 88.28 718.753 88.28C720.473 88.28 722.113 89.56 722.113 91.94ZM736.668 86.48H734.388V92.62C734.388 94.64 733.288 95.68 731.608 95.68C729.948 95.68 728.848 94.64 728.848 92.62V86.48H726.588V92.96C726.588 96.04 728.548 97.66 731.128 97.66C732.428 97.66 733.668 97.12 734.388 96.18V97.5H736.668V86.48ZM740.036 94.44C740.036 96.68 741.256 97.5 743.216 97.5H745.016V95.6H743.616C742.656 95.6 742.336 95.26 742.336 94.44V88.34H745.016V86.48H742.336V83.74H740.036V86.48H738.736V88.34H740.036V94.44ZM751.757 88.22C753.457 88.22 754.797 89.3 754.837 91H748.737C748.977 89.26 750.217 88.22 751.757 88.22ZM756.917 94.22H754.457C754.037 95.08 753.257 95.76 751.857 95.76C750.177 95.76 748.877 94.66 748.717 92.84H757.137C757.197 92.46 757.217 92.1 757.217 91.72C757.217 88.48 754.997 86.3 751.857 86.3C748.597 86.3 746.357 88.52 746.357 91.98C746.357 95.44 748.697 97.68 751.857 97.68C754.557 97.68 756.297 96.14 756.917 94.22ZM761.741 91.7C761.741 89.36 762.781 88.66 764.461 88.66H765.041V86.3C763.481 86.3 762.381 86.98 761.741 88.08V86.48H759.461V97.5H761.741V91.7ZM777.772 95.16L773.652 83.6H771.212L776.452 97.5H779.092L784.312 83.6H781.912L777.772 95.16ZM786.219 97.5H788.499V86.48H786.219V97.5ZM787.379 85.02C788.179 85.02 788.819 84.38 788.819 83.56C788.819 82.74 788.179 82.1 787.379 82.1C786.559 82.1 785.919 82.74 785.919 83.56C785.919 84.38 786.559 85.02 787.379 85.02ZM799.712 94.42C799.592 90.44 793.372 91.68 793.372 89.46C793.372 88.72 794.012 88.22 795.232 88.22C796.472 88.22 797.212 88.88 797.292 89.84H799.572C799.452 87.64 797.812 86.3 795.312 86.3C792.712 86.3 791.072 87.72 791.072 89.48C791.072 93.52 797.472 92.28 797.472 94.44C797.472 95.2 796.772 95.76 795.452 95.76C794.192 95.76 793.332 95.02 793.252 94.12H790.892C790.992 96.12 792.852 97.68 795.492 97.68C798.092 97.68 799.712 96.28 799.712 94.42ZM802.176 97.5H804.456V86.48H802.176V97.5ZM803.336 85.02C804.136 85.02 804.776 84.38 804.776 83.56C804.776 82.74 804.136 82.1 803.336 82.1C802.516 82.1 801.876 82.74 801.876 83.56C801.876 84.38 802.516 85.02 803.336 85.02ZM817.949 91.98C817.949 88.52 815.469 86.3 812.329 86.3C809.189 86.3 806.709 88.52 806.709 91.98C806.709 95.44 809.089 97.68 812.229 97.68C815.389 97.68 817.949 95.44 817.949 91.98ZM809.029 91.98C809.029 89.48 810.569 88.28 812.289 88.28C813.989 88.28 815.609 89.48 815.609 91.98C815.609 94.48 813.929 95.7 812.229 95.7C810.509 95.7 809.029 94.48 809.029 91.98ZM828.023 97.5H830.283V91C830.283 87.92 828.343 86.3 825.763 86.3C824.443 86.3 823.223 86.84 822.483 87.74V86.48H820.203V97.5H822.483V91.34C822.483 89.32 823.583 88.28 825.263 88.28C826.923 88.28 828.023 89.32 828.023 91.34V97.5Z" fill="#212832"/>
<rect x="623.5" y="65.5" width="616" height="49" stroke="black" stroke-opacity="0.5"/>
<rect x="623" y="122" width="617" height="50" fill="white"/>
<path d="M644.74 148.22H652.96V146.3H644.74V148.22ZM656.439 148.22H664.659V146.3H656.439V148.22ZM668.138 148.22H676.358V146.3H668.138V148.22ZM679.838 148.22H688.058V146.3H679.838V148.22Z" fill="#212832"/>
<rect x="623.5" y="122.5" width="616" height="49" stroke="black" stroke-opacity="0.5"/>
</svg>
