<svg width="1240" height="286" viewBox="0 0 1240 286" fill="none" xmlns="http://www.w3.org/2000/svg">
<rect width="1240" height="58" fill="#CBE3FF"/>
<path d="M29.925 38H33.425V34.45H35.625V31.4H33.425V20H29.35L21.175 31.7V34.45H29.925V38ZM25.025 31.4L30.15 23.75V31.4H25.025ZM42.4283 36.125C42.4283 34.975 41.5283 34.075 40.3033 34.075C39.0283 34.075 38.1283 34.975 38.1283 36.125C38.1283 37.275 39.0283 38.175 40.3033 38.175C41.5283 38.175 42.4283 37.275 42.4283 36.125ZM64.0545 38H67.7545L61.4795 20.525H57.4045L51.1295 38H54.8045L55.9545 34.675H62.9045L64.0545 38ZM61.9545 31.875H56.9045L59.4295 24.575L61.9545 31.875ZM69.7 31.025C69.7 35.35 72.5 38.225 76.025 38.225C78.2 38.225 79.75 37.225 80.575 35.95V38H84.125V19.5H80.575V26.075C79.625 24.775 77.875 23.925 76.05 23.925C72.5 23.925 69.7 26.7 69.7 31.025ZM80.6 31.075C80.6 33.7 78.85 35.15 76.925 35.15C75.05 35.15 73.275 33.65 73.275 31.025C73.275 28.4 75.05 27 76.925 27C78.85 27 80.6 28.45 80.6 31.075ZM87.1434 31.025C87.1434 35.35 89.9434 38.225 93.4684 38.225C95.6434 38.225 97.1934 37.225 98.0184 35.95V38H101.568V19.5H98.0184V26.075C97.0684 24.775 95.3184 23.925 93.4934 23.925C89.9434 23.925 87.1434 26.7 87.1434 31.025ZM98.0434 31.075C98.0434 33.7 96.2934 35.15 94.3684 35.15C92.4934 35.15 90.7184 33.65 90.7184 31.025C90.7184 28.4 92.4934 27 94.3684 27C96.2934 27 98.0434 28.45 98.0434 31.075ZM105.487 38H108.987V24.15H105.487V38ZM107.262 22.5C108.487 22.5 109.412 21.6 109.412 20.45C109.412 19.3 108.487 18.4 107.262 18.4C106.012 18.4 105.112 19.3 105.112 20.45C105.112 21.6 106.012 22.5 107.262 22.5ZM113.495 33.7C113.495 36.875 115.27 38 117.92 38H120.12V35.05H118.495C117.395 35.05 117.02 34.65 117.02 33.725V27.025H120.12V24.15H117.02V20.725H113.495V24.15H111.845V27.025H113.495V33.7ZM123.137 38H126.637V24.15H123.137V38ZM124.912 22.5C126.137 22.5 127.062 21.6 127.062 20.45C127.062 19.3 126.137 18.4 124.912 18.4C123.662 18.4 122.762 19.3 122.762 20.45C122.762 21.6 123.662 22.5 124.912 22.5ZM143.97 31.075C143.97 26.7 140.845 23.925 136.845 23.925C132.845 23.925 129.72 26.7 129.72 31.075C129.72 35.425 132.745 38.225 136.745 38.225C140.77 38.225 143.97 35.425 143.97 31.075ZM133.27 31.075C133.27 28.3 134.945 26.975 136.795 26.975C138.645 26.975 140.37 28.3 140.37 31.075C140.37 33.825 138.595 35.175 136.745 35.175C134.87 35.175 133.27 33.825 133.27 31.075ZM156.738 38H160.238V29.875C160.238 26.05 157.937 23.95 154.713 23.95C152.938 23.95 151.438 24.7 150.538 25.875V24.15H147.038V38H150.538V30.35C150.538 28.125 151.763 26.925 153.663 26.925C155.513 26.925 156.738 28.125 156.738 30.35V38ZM163.166 31.025C163.166 35.35 165.966 38.225 169.466 38.225C171.666 38.225 173.241 37.175 174.066 35.975V38H177.591V24.15H174.066V26.125C173.241 24.975 171.716 23.925 169.491 23.925C165.966 23.925 163.166 26.7 163.166 31.025ZM174.066 31.075C174.066 33.7 172.316 35.15 170.391 35.15C168.516 35.15 166.741 33.65 166.741 31.025C166.741 28.4 168.516 27 170.391 27C172.316 27 174.066 28.45 174.066 31.075ZM181.509 38H185.009V19.5H181.509V38ZM195.424 38H198.924V26.65L203.624 38H206.274L210.949 26.65V38H214.449V20.55H210.499L204.949 33.525L199.399 20.55H195.424V38ZM231.785 31.075C231.785 26.7 228.66 23.925 224.66 23.925C220.66 23.925 217.535 26.7 217.535 31.075C217.535 35.425 220.56 38.225 224.56 38.225C228.585 38.225 231.785 35.425 231.785 31.075ZM221.085 31.075C221.085 28.3 222.76 26.975 224.61 26.975C226.46 26.975 228.185 28.3 228.185 31.075C228.185 33.825 226.41 35.175 224.56 35.175C222.685 35.175 221.085 33.825 221.085 31.075ZM233.952 31.025C233.952 35.35 236.752 38.225 240.277 38.225C242.452 38.225 244.002 37.225 244.827 35.95V38H248.377V19.5H244.827V26.075C243.877 24.775 242.127 23.925 240.302 23.925C236.752 23.925 233.952 26.7 233.952 31.025ZM244.852 31.075C244.852 33.7 243.102 35.15 241.177 35.15C239.302 35.15 237.527 33.65 237.527 31.025C237.527 28.4 239.302 27 241.177 27C243.102 27 244.852 28.45 244.852 31.075ZM265.37 24.15H261.845V31.775C261.845 34 260.645 35.2 258.745 35.2C256.895 35.2 255.67 34 255.67 31.775V24.15H252.17V32.275C252.17 36.075 254.495 38.175 257.72 38.175C259.445 38.175 260.97 37.425 261.845 36.25V38H265.37V24.15ZM269.324 38H272.824V19.5H269.324V38ZM282.732 26.8C284.532 26.8 285.982 27.95 286.032 29.775H279.457C279.732 27.875 281.057 26.8 282.732 26.8ZM289.307 33.65H285.532C285.082 34.575 284.257 35.325 282.757 35.325C281.007 35.325 279.607 34.175 279.432 32.125H289.557C289.632 31.675 289.657 31.225 289.657 30.775C289.657 26.65 286.832 23.925 282.832 23.925C278.732 23.925 275.882 26.7 275.882 31.075C275.882 35.425 278.807 38.225 282.832 38.225C286.257 38.225 288.557 36.2 289.307 33.65ZM303.461 34.05C303.361 28.975 295.686 30.55 295.686 28.025C295.686 27.225 296.361 26.7 297.661 26.7C299.036 26.7 299.886 27.425 299.986 28.5H303.336C303.136 25.75 301.111 23.925 297.761 23.925C294.336 23.925 292.286 25.775 292.286 28.075C292.286 33.15 300.111 31.575 300.111 34.05C300.111 34.85 299.361 35.475 297.986 35.475C296.586 35.475 295.611 34.675 295.486 33.625H291.961C292.111 36.2 294.536 38.225 298.011 38.225C301.386 38.225 303.461 36.425 303.461 34.05Z" fill="black"/>
<rect y="65" width="617" height="50" fill="white"/>
<path d="M24.6 93.44C26.08 93.44 27.24 92.3 27.24 90.84C27.24 89.36 26.08 88.22 24.6 88.22C23.16 88.22 22 89.36 22 90.84C22 92.3 23.16 93.44 24.6 93.44ZM48.8089 83.58H41.1289V97.5H48.8089V95.64H43.4089V91.38H48.2089V89.52H43.4089V85.44H48.8089V83.58ZM56.1572 83.6H51.6172V97.5H56.1572C60.6172 97.5 63.5372 94.88 63.5372 90.6C63.5372 86.3 60.6172 83.6 56.1572 83.6ZM53.8972 95.64V85.46H56.1572C59.4372 85.46 61.1972 87.42 61.1972 90.6C61.1972 93.76 59.4372 95.64 56.1572 95.64H53.8972ZM75.1769 97.5H77.5769L72.5969 83.58H69.9569L64.9769 97.5H67.3569L68.3569 94.66H74.1769L75.1769 97.5ZM73.5369 92.8H68.9969L71.2769 86.34L73.5369 92.8Z" fill="#212832"/>
<rect x="0.5" y="65.5" width="616" height="49" stroke="black" stroke-opacity="0.5"/>
<rect y="122" width="617" height="50" fill="white"/>
<path d="M24.6 150.44C26.08 150.44 27.24 149.3 27.24 147.84C27.24 146.36 26.08 145.22 24.6 145.22C23.16 145.22 22 146.36 22 147.84C22 149.3 23.16 150.44 24.6 150.44ZM43.4089 147V142.46H45.9289C47.7089 142.46 48.5089 143.3 48.5089 144.74C48.5089 146.14 47.7089 147 45.9289 147H43.4089ZM50.8489 144.74C50.8489 142.48 49.2289 140.6 45.9289 140.6H41.1289V154.5H43.4089V148.86H45.9289C49.5489 148.86 50.8489 146.72 50.8489 144.74ZM55.3034 148.7C55.3034 146.36 56.3434 145.66 58.0234 145.66H58.6034V143.3C57.0434 143.3 55.9434 143.98 55.3034 145.08V143.48H53.0234V154.5H55.3034V148.7ZM65.3392 145.22C67.0392 145.22 68.3792 146.3 68.4192 148H62.3192C62.5592 146.26 63.7992 145.22 65.3392 145.22ZM70.4992 151.22H68.0392C67.6192 152.08 66.8392 152.76 65.4392 152.76C63.7592 152.76 62.4592 151.66 62.2992 149.84H70.7192C70.7792 149.46 70.7992 149.1 70.7992 148.72C70.7992 145.48 68.5792 143.3 65.4392 143.3C62.1792 143.3 59.9392 145.52 59.9392 148.98C59.9392 152.44 62.2792 154.68 65.4392 154.68C68.1392 154.68 69.8792 153.14 70.4992 151.22ZM81.0583 154.52L83.6183 154.5L86.7183 143.98L89.6383 154.5H92.2183L96.3383 140.6H93.8983L90.9983 151.86L88.0983 140.6H85.5383L82.4183 151.92L79.5383 140.6H77.1183L81.0583 154.52ZM108.719 148.98C108.719 145.52 106.239 143.3 103.099 143.3C99.9588 143.3 97.4788 145.52 97.4788 148.98C97.4788 152.44 99.8588 154.68 102.999 154.68C106.159 154.68 108.719 152.44 108.719 148.98ZM99.7988 148.98C99.7988 146.48 101.339 145.28 103.059 145.28C104.759 145.28 106.379 146.48 106.379 148.98C106.379 151.48 104.699 152.7 102.999 152.7C101.279 152.7 99.7988 151.48 99.7988 148.98ZM113.253 148.7C113.253 146.36 114.293 145.66 115.973 145.66H116.553V143.3C114.993 143.3 113.893 143.98 113.253 145.08V143.48H110.973V154.5H113.253V148.7ZM118.648 154.5H120.928V149.76L125.008 154.5H128.088L123.008 149L128.088 143.48H124.928L120.928 148.3V139.7H118.648V154.5ZM135.198 154.5H137.498V145.34H139.538V143.48H137.498V142.7C137.498 141.44 137.978 140.96 139.378 140.96V139.06C136.498 139.06 135.198 140.16 135.198 142.7V143.48H133.898V145.34H135.198V154.5ZM152.059 148.98C152.059 145.52 149.579 143.3 146.439 143.3C143.299 143.3 140.819 145.52 140.819 148.98C140.819 152.44 143.199 154.68 146.339 154.68C149.499 154.68 152.059 152.44 152.059 148.98ZM143.139 148.98C143.139 146.48 144.679 145.28 146.399 145.28C148.099 145.28 149.719 146.48 149.719 148.98C149.719 151.48 148.039 152.7 146.339 152.7C144.619 152.7 143.139 151.48 143.139 148.98ZM156.593 148.7C156.593 146.36 157.633 145.66 159.313 145.66H159.893V143.3C158.333 143.3 157.233 143.98 156.593 145.08V143.48H154.313V154.5H156.593V148.7ZM171.724 140.6H167.184V154.5H171.724C176.184 154.5 179.104 151.88 179.104 147.6C179.104 143.3 176.184 140.6 171.724 140.6ZM169.464 152.64V142.46H171.724C175.004 142.46 176.764 144.42 176.764 147.6C176.764 150.76 175.004 152.64 171.724 152.64H169.464ZM186.003 145.22C187.703 145.22 189.043 146.3 189.083 148H182.983C183.223 146.26 184.463 145.22 186.003 145.22ZM191.163 151.22H188.703C188.283 152.08 187.503 152.76 186.103 152.76C184.423 152.76 183.123 151.66 182.963 149.84H191.383C191.443 149.46 191.463 149.1 191.463 148.72C191.463 145.48 189.243 143.3 186.103 143.3C182.843 143.3 180.603 145.52 180.603 148.98C180.603 152.44 182.943 154.68 186.103 154.68C188.803 154.68 190.543 153.14 191.163 151.22ZM198.347 145.22C200.047 145.22 201.387 146.3 201.427 148H195.327C195.567 146.26 196.807 145.22 198.347 145.22ZM203.507 151.22H201.047C200.627 152.08 199.847 152.76 198.447 152.76C196.767 152.76 195.467 151.66 195.307 149.84H203.727C203.787 149.46 203.807 149.1 203.807 148.72C203.807 145.48 201.587 143.3 198.447 143.3C195.187 143.3 192.947 145.52 192.947 148.98C192.947 152.44 195.287 154.68 198.447 154.68C201.147 154.68 202.887 153.14 203.507 151.22ZM208.331 145.1V143.48H206.051V159.74H208.331V152.9C209.051 153.76 210.351 154.68 212.171 154.68C215.071 154.68 217.351 152.34 217.351 148.94C217.351 145.54 215.071 143.3 212.171 143.3C210.371 143.3 209.031 144.18 208.331 145.1ZM215.031 148.94C215.031 151.32 213.391 152.7 211.671 152.7C209.971 152.7 208.331 151.36 208.331 148.98C208.331 146.62 209.971 145.28 211.671 145.28C213.391 145.28 215.031 146.56 215.031 148.94ZM224.801 140.6V154.5H231.781V152.66H227.081V140.6H224.801ZM238.328 145.22C240.028 145.22 241.368 146.3 241.408 148H235.308C235.548 146.26 236.788 145.22 238.328 145.22ZM243.487 151.22H241.028C240.608 152.08 239.828 152.76 238.428 152.76C236.748 152.76 235.448 151.66 235.288 149.84H243.708C243.768 149.46 243.788 149.1 243.788 148.72C243.788 145.48 241.568 143.3 238.428 143.3C235.168 143.3 232.928 145.52 232.928 148.98C232.928 152.44 235.268 154.68 238.428 154.68C241.128 154.68 242.868 153.14 243.487 151.22ZM245.271 148.94C245.271 152.34 247.571 154.68 250.431 154.68C252.271 154.68 253.591 153.8 254.291 152.86V154.5H256.591V143.48H254.291V145.08C253.611 144.18 252.331 143.3 250.471 143.3C247.571 143.3 245.271 145.54 245.271 148.94ZM254.291 148.98C254.291 151.36 252.671 152.7 250.951 152.7C249.251 152.7 247.611 151.32 247.611 148.94C247.611 146.56 249.251 145.28 250.951 145.28C252.671 145.28 254.291 146.62 254.291 148.98ZM261.866 148.7C261.866 146.36 262.906 145.66 264.586 145.66H265.166V143.3C263.606 143.3 262.506 143.98 261.866 145.08V143.48H259.586V154.5H261.866V148.7ZM275.082 154.5H277.342V148C277.342 144.92 275.402 143.3 272.822 143.3C271.502 143.3 270.282 143.84 269.542 144.74V143.48H267.262V154.5H269.542V148.34C269.542 146.32 270.642 145.28 272.322 145.28C273.982 145.28 275.082 146.32 275.082 148.34V154.5ZM280.25 154.5H282.53V143.48H280.25V154.5ZM281.41 142.02C282.21 142.02 282.85 141.38 282.85 140.56C282.85 139.74 282.21 139.1 281.41 139.1C280.59 139.1 279.95 139.74 279.95 140.56C279.95 141.38 280.59 142.02 281.41 142.02ZM293.343 154.5H295.603V148C295.603 144.92 293.663 143.3 291.083 143.3C289.763 143.3 288.543 143.84 287.803 144.74V143.48H285.523V154.5H287.803V148.34C287.803 146.32 288.903 145.28 290.583 145.28C292.243 145.28 293.343 146.32 293.343 148.34V154.5ZM297.752 148.94C297.752 152.34 300.052 154.68 302.952 154.68C304.752 154.68 306.072 153.78 306.772 152.84V154.68C306.772 156.88 305.452 157.96 303.692 157.96C302.112 157.96 300.892 157.18 300.552 156.04H298.292C298.572 158.48 300.752 159.94 303.692 159.94C307.132 159.94 309.072 157.68 309.072 154.68V143.48H306.772V145.08C306.092 144.14 304.752 143.3 302.952 143.3C300.052 143.3 297.752 145.54 297.752 148.94ZM306.772 148.98C306.772 151.36 305.152 152.7 303.432 152.7C301.732 152.7 300.092 151.32 300.092 148.94C300.092 146.56 301.732 145.28 303.432 145.28C305.152 145.28 306.772 146.62 306.772 148.98Z" fill="#212832"/>
<rect x="0.5" y="122.5" width="616" height="49" stroke="black" stroke-opacity="0.5"/>
<rect y="179" width="617" height="50" fill="white"/>
<path d="M24.6 207.44C26.08 207.44 27.24 206.3 27.24 204.84C27.24 203.36 26.08 202.22 24.6 202.22C23.16 202.22 22 203.36 22 204.84C22 206.3 23.16 207.44 24.6 207.44ZM46.5689 209.16L42.4489 197.6H40.0089L45.2489 211.5H47.8889L53.1089 197.6H50.7089L46.5689 209.16ZM55.0156 211.5H57.2956V200.48H55.0156V211.5ZM56.1756 199.02C56.9756 199.02 57.6156 198.38 57.6156 197.56C57.6156 196.74 56.9756 196.1 56.1756 196.1C55.3556 196.1 54.7156 196.74 54.7156 197.56C54.7156 198.38 55.3556 199.02 56.1756 199.02ZM68.5091 208.42C68.3891 204.44 62.1691 205.68 62.1691 203.46C62.1691 202.72 62.8091 202.22 64.0291 202.22C65.2691 202.22 66.0091 202.88 66.0891 203.84H68.3691C68.2491 201.64 66.6091 200.3 64.1091 200.3C61.5091 200.3 59.8691 201.72 59.8691 203.48C59.8691 207.52 66.2691 206.28 66.2691 208.44C66.2691 209.2 65.5691 209.76 64.2491 209.76C62.9891 209.76 62.1291 209.02 62.0491 208.12H59.6891C59.7891 210.12 61.6491 211.68 64.2891 211.68C66.8891 211.68 68.5091 210.28 68.5091 208.42ZM80.9527 200.48H78.6727V206.62C78.6727 208.64 77.5727 209.68 75.8927 209.68C74.2327 209.68 73.1327 208.64 73.1327 206.62V200.48H70.8727V206.96C70.8727 210.04 72.8327 211.66 75.4127 211.66C76.7127 211.66 77.9527 211.12 78.6727 210.18V211.5H80.9527V200.48ZM83.2009 205.94C83.2009 209.34 85.5009 211.68 88.3609 211.68C90.2009 211.68 91.5209 210.8 92.2209 209.86V211.5H94.5209V200.48H92.2209V202.08C91.5409 201.18 90.2609 200.3 88.4009 200.3C85.5009 200.3 83.2009 202.54 83.2009 205.94ZM92.2209 205.98C92.2209 208.36 90.6009 209.7 88.8809 209.7C87.1809 209.7 85.5409 208.32 85.5409 205.94C85.5409 203.56 87.1809 202.28 88.8809 202.28C90.6009 202.28 92.2209 203.62 92.2209 205.98ZM97.5156 211.5H99.7956V196.7H97.5156V211.5ZM102.789 211.5H105.069V200.48H102.789V211.5ZM103.949 199.02C104.749 199.02 105.389 198.38 105.389 197.56C105.389 196.74 104.749 196.1 103.949 196.1C103.129 196.1 102.489 196.74 102.489 197.56C102.489 198.38 103.129 199.02 103.949 199.02ZM115.083 200.48H107.443V202.34H112.463L107.443 209.64V211.5H115.083V209.64H110.083L115.083 202.34V200.48ZM116.717 205.94C116.717 209.34 119.017 211.68 121.877 211.68C123.717 211.68 125.037 210.8 125.737 209.86V211.5H128.037V200.48H125.737V202.08C125.057 201.18 123.777 200.3 121.917 200.3C119.017 200.3 116.717 202.54 116.717 205.94ZM125.737 205.98C125.737 208.36 124.117 209.7 122.397 209.7C120.697 209.7 119.057 208.32 119.057 205.94C119.057 203.56 120.697 202.28 122.397 202.28C124.117 202.28 125.737 203.62 125.737 205.98ZM131.391 208.44C131.391 210.68 132.611 211.5 134.571 211.5H136.371V209.6H134.971C134.011 209.6 133.691 209.26 133.691 208.44V202.34H136.371V200.48H133.691V197.74H131.391V200.48H130.091V202.34H131.391V208.44ZM138.473 211.5H140.753V200.48H138.473V211.5ZM139.633 199.02C140.433 199.02 141.073 198.38 141.073 197.56C141.073 196.74 140.433 196.1 139.633 196.1C138.813 196.1 138.173 196.74 138.173 197.56C138.173 198.38 138.813 199.02 139.633 199.02ZM154.246 205.98C154.246 202.52 151.766 200.3 148.626 200.3C145.486 200.3 143.006 202.52 143.006 205.98C143.006 209.44 145.386 211.68 148.526 211.68C151.686 211.68 154.246 209.44 154.246 205.98ZM145.326 205.98C145.326 203.48 146.866 202.28 148.586 202.28C150.286 202.28 151.906 203.48 151.906 205.98C151.906 208.48 150.226 209.7 148.526 209.7C146.806 209.7 145.326 208.48 145.326 205.98ZM164.32 211.5H166.58V205C166.58 201.92 164.64 200.3 162.06 200.3C160.74 200.3 159.52 200.84 158.78 201.74V200.48H156.5V211.5H158.78V205.34C158.78 203.32 159.88 202.28 161.56 202.28C163.22 202.28 164.32 203.32 164.32 205.34V211.5ZM184.664 200.48H182.384V206.62C182.384 208.64 181.284 209.68 179.604 209.68C177.944 209.68 176.844 208.64 176.844 206.62V200.48H174.584V206.96C174.584 210.04 176.544 211.66 179.124 211.66C180.424 211.66 181.664 211.12 182.384 210.18V211.5H184.664V200.48ZM195.892 208.42C195.772 204.44 189.552 205.68 189.552 203.46C189.552 202.72 190.192 202.22 191.412 202.22C192.652 202.22 193.392 202.88 193.472 203.84H195.752C195.632 201.64 193.992 200.3 191.492 200.3C188.892 200.3 187.252 201.72 187.252 203.48C187.252 207.52 193.652 206.28 193.652 208.44C193.652 209.2 192.952 209.76 191.632 209.76C190.372 209.76 189.512 209.02 189.432 208.12H187.072C187.172 210.12 189.032 211.68 191.672 211.68C194.272 211.68 195.892 210.28 195.892 208.42ZM198.355 211.5H200.635V200.48H198.355V211.5ZM199.515 199.02C200.315 199.02 200.955 198.38 200.955 197.56C200.955 196.74 200.315 196.1 199.515 196.1C198.695 196.1 198.055 196.74 198.055 197.56C198.055 198.38 198.695 199.02 199.515 199.02ZM211.449 211.5H213.709V205C213.709 201.92 211.769 200.3 209.189 200.3C207.869 200.3 206.649 200.84 205.909 201.74V200.48H203.629V211.5H205.909V205.34C205.909 203.32 207.009 202.28 208.689 202.28C210.349 202.28 211.449 203.32 211.449 205.34V211.5ZM215.857 205.94C215.857 209.34 218.157 211.68 221.057 211.68C222.857 211.68 224.177 210.78 224.877 209.84V211.68C224.877 213.88 223.557 214.96 221.797 214.96C220.217 214.96 218.997 214.18 218.657 213.04H216.397C216.677 215.48 218.857 216.94 221.797 216.94C225.237 216.94 227.177 214.68 227.177 211.68V200.48H224.877V202.08C224.197 201.14 222.857 200.3 221.057 200.3C218.157 200.3 215.857 202.54 215.857 205.94ZM224.877 205.98C224.877 208.36 223.257 209.7 221.537 209.7C219.837 209.7 218.197 208.32 218.197 205.94C218.197 203.56 219.837 202.28 221.537 202.28C223.257 202.28 224.877 203.62 224.877 205.98ZM234.647 199.46H238.367V211.5H240.647V199.46H244.347V197.6H234.647V199.46ZM251.296 202.22C252.996 202.22 254.336 203.3 254.376 205H248.276C248.516 203.26 249.756 202.22 251.296 202.22ZM256.456 208.22H253.996C253.576 209.08 252.796 209.76 251.396 209.76C249.716 209.76 248.416 208.66 248.256 206.84H256.676C256.736 206.46 256.756 206.1 256.756 205.72C256.756 202.48 254.536 200.3 251.396 200.3C248.136 200.3 245.896 202.52 245.896 205.98C245.896 209.44 248.236 211.68 251.396 211.68C254.096 211.68 255.836 210.14 256.456 208.22ZM266.82 211.5H269.08V205C269.08 201.92 267.14 200.3 264.56 200.3C263.24 200.3 262.02 200.84 261.28 201.74V200.48H259V211.5H261.28V205.34C261.28 203.32 262.38 202.28 264.06 202.28C265.72 202.28 266.82 203.32 266.82 205.34V211.5ZM280.208 208.42C280.088 204.44 273.868 205.68 273.868 203.46C273.868 202.72 274.508 202.22 275.728 202.22C276.968 202.22 277.708 202.88 277.788 203.84H280.068C279.948 201.64 278.308 200.3 275.808 200.3C273.208 200.3 271.568 201.72 271.568 203.48C271.568 207.52 277.968 206.28 277.968 208.44C277.968 209.2 277.268 209.76 275.948 209.76C274.688 209.76 273.828 209.02 273.748 208.12H271.388C271.488 210.12 273.348 211.68 275.988 211.68C278.588 211.68 280.208 210.28 280.208 208.42ZM293.172 205.98C293.172 202.52 290.692 200.3 287.552 200.3C284.412 200.3 281.932 202.52 281.932 205.98C281.932 209.44 284.312 211.68 287.452 211.68C290.612 211.68 293.172 209.44 293.172 205.98ZM284.252 205.98C284.252 203.48 285.792 202.28 287.512 202.28C289.212 202.28 290.832 203.48 290.832 205.98C290.832 208.48 289.152 209.7 287.452 209.7C285.732 209.7 284.252 208.48 284.252 205.98ZM297.706 205.7C297.706 203.36 298.746 202.66 300.426 202.66H301.006V200.3C299.446 200.3 298.346 200.98 297.706 202.08V200.48H295.426V211.5H297.706V205.7ZM310.577 202.12V196.7H308.297V211.5H310.577V209.9C311.297 210.86 312.597 211.68 314.417 211.68C317.317 211.68 319.597 209.34 319.597 205.94C319.597 202.54 317.337 200.3 314.417 200.3C312.677 200.3 311.297 201.12 310.577 202.12ZM317.277 205.94C317.277 208.32 315.637 209.7 313.917 209.7C312.217 209.7 310.577 208.36 310.577 205.98C310.577 203.62 312.217 202.28 313.917 202.28C315.637 202.28 317.277 203.56 317.277 205.94ZM332.352 205.98C332.352 202.52 329.872 200.3 326.732 200.3C323.592 200.3 321.112 202.52 321.112 205.98C321.112 209.44 323.492 211.68 326.632 211.68C329.792 211.68 332.352 209.44 332.352 205.98ZM323.432 205.98C323.432 203.48 324.972 202.28 326.692 202.28C328.392 202.28 330.012 203.48 330.012 205.98C330.012 208.48 328.332 209.7 326.632 209.7C324.912 209.7 323.432 208.48 323.432 205.98ZM333.845 205.94C333.845 209.34 336.145 211.68 339.005 211.68C340.845 211.68 342.165 210.8 342.865 209.86V211.5H345.165V200.48H342.865V202.08C342.185 201.18 340.905 200.3 339.045 200.3C336.145 200.3 333.845 202.54 333.845 205.94ZM342.865 205.98C342.865 208.36 341.245 209.7 339.525 209.7C337.825 209.7 336.185 208.32 336.185 205.94C336.185 203.56 337.825 202.28 339.525 202.28C341.245 202.28 342.865 203.62 342.865 205.98ZM350.44 205.7C350.44 203.36 351.48 202.66 353.16 202.66H353.74V200.3C352.18 200.3 351.08 200.98 350.44 202.08V200.48H348.16V211.5H350.44V205.7ZM355.076 205.94C355.076 209.34 357.376 211.68 360.276 211.68C362.076 211.68 363.396 210.84 364.096 209.84V211.5H366.396V196.7H364.096V202.02C363.256 200.98 361.736 200.3 360.296 200.3C357.376 200.3 355.076 202.54 355.076 205.94ZM364.096 205.98C364.096 208.36 362.476 209.7 360.756 209.7C359.056 209.7 357.416 208.32 357.416 205.94C357.416 203.56 359.056 202.28 360.756 202.28C362.476 202.28 364.096 203.62 364.096 205.98Z" fill="#212832"/>
<rect x="0.5" y="179.5" width="616" height="49" stroke="black" stroke-opacity="0.5"/>
<rect y="236" width="617" height="50" fill="white"/>
<path d="M24.6 264.44C26.08 264.44 27.24 263.3 27.24 261.84C27.24 260.36 26.08 259.22 24.6 259.22C23.16 259.22 22 260.36 22 261.84C22 263.3 23.16 264.44 24.6 264.44ZM48.5089 258.76C48.5089 260.14 47.7089 261.12 45.9289 261.12H43.4089V256.46H45.9289C47.7089 256.46 48.5089 257.36 48.5089 258.76ZM41.1289 254.6V268.5H43.4089V262.94H45.1489L48.3489 268.5H51.0689L47.6289 262.74C49.9689 262.16 50.8489 260.4 50.8489 258.76C50.8489 256.5 49.2289 254.6 45.9289 254.6H41.1289ZM58.4056 259.22C60.1056 259.22 61.4456 260.3 61.4856 262H55.3856C55.6256 260.26 56.8656 259.22 58.4056 259.22ZM63.5656 265.22H61.1056C60.6856 266.08 59.9056 266.76 58.5056 266.76C56.8256 266.76 55.5256 265.66 55.3656 263.84H63.7856C63.8456 263.46 63.8656 263.1 63.8656 262.72C63.8656 259.48 61.6456 257.3 58.5056 257.3C55.2456 257.3 53.0056 259.52 53.0056 262.98C53.0056 266.44 55.3456 268.68 58.5056 268.68C61.2056 268.68 62.9456 267.14 63.5656 265.22ZM66.1094 268.5H68.3894V257.48H66.1094V268.5ZM67.2694 256.02C68.0694 256.02 68.7094 255.38 68.7094 254.56C68.7094 253.74 68.0694 253.1 67.2694 253.1C66.4494 253.1 65.8094 253.74 65.8094 254.56C65.8094 255.38 66.4494 256.02 67.2694 256.02ZM79.2028 268.5H81.4628V262C81.4628 258.92 79.5228 257.3 76.9428 257.3C75.6228 257.3 74.4028 257.84 73.6628 258.74V257.48H71.3828V268.5H73.6628V262.34C73.6628 260.32 74.7628 259.28 76.4428 259.28C78.1028 259.28 79.2028 260.32 79.2028 262.34V268.5ZM84.6511 268.5H86.9511V259.34H88.9911V257.48H86.9511V256.7C86.9511 255.44 87.4311 254.96 88.8311 254.96V253.06C85.9511 253.06 84.6511 254.16 84.6511 256.7V257.48H83.3511V259.34H84.6511V268.5ZM101.512 262.98C101.512 259.52 99.0317 257.3 95.8917 257.3C92.7517 257.3 90.2717 259.52 90.2717 262.98C90.2717 266.44 92.6517 268.68 95.7917 268.68C98.9517 268.68 101.512 266.44 101.512 262.98ZM92.5917 262.98C92.5917 260.48 94.1317 259.28 95.8517 259.28C97.5517 259.28 99.1717 260.48 99.1717 262.98C99.1717 265.48 97.4917 266.7 95.7917 266.7C94.0717 266.7 92.5917 265.48 92.5917 262.98ZM106.046 262.7C106.046 260.36 107.086 259.66 108.766 259.66H109.346V257.3C107.786 257.3 106.686 257.98 106.046 259.08V257.48H103.766V268.5H106.046V262.7ZM110.681 262.98C110.681 266.44 112.921 268.68 116.081 268.68C118.781 268.68 120.541 267.18 121.161 265.02H118.701C118.281 266.16 117.441 266.76 116.081 266.76C114.241 266.76 113.021 265.4 113.021 262.98C113.021 260.58 114.241 259.22 116.081 259.22C117.441 259.22 118.321 259.9 118.701 260.96H121.161C120.541 258.64 118.781 257.3 116.081 257.3C112.921 257.3 110.681 259.54 110.681 262.98ZM128.074 259.22C129.774 259.22 131.114 260.3 131.154 262H125.054C125.294 260.26 126.534 259.22 128.074 259.22ZM133.234 265.22H130.774C130.354 266.08 129.574 266.76 128.174 266.76C126.494 266.76 125.194 265.66 125.034 263.84H133.454C133.514 263.46 133.534 263.1 133.534 262.72C133.534 259.48 131.314 257.3 128.174 257.3C124.914 257.3 122.674 259.52 122.674 262.98C122.674 266.44 125.014 268.68 128.174 268.68C130.874 268.68 132.614 267.14 133.234 265.22ZM151.397 268.5H153.657V262C153.657 258.92 151.697 257.3 149.117 257.3C147.517 257.3 145.957 258.14 145.277 259.48C144.517 258.04 143.057 257.3 141.317 257.3C139.997 257.3 138.797 257.84 138.057 258.74V257.48H135.777V268.5H138.057V262.34C138.057 260.32 139.157 259.28 140.837 259.28C142.497 259.28 143.597 260.32 143.597 262.34V268.5H145.857V262.34C145.857 260.32 146.957 259.28 148.637 259.28C150.297 259.28 151.397 260.32 151.397 262.34V268.5ZM161.199 259.22C162.899 259.22 164.239 260.3 164.279 262H158.179C158.419 260.26 159.659 259.22 161.199 259.22ZM166.359 265.22H163.899C163.479 266.08 162.699 266.76 161.299 266.76C159.619 266.76 158.319 265.66 158.159 263.84H166.579C166.639 263.46 166.659 263.1 166.659 262.72C166.659 259.48 164.439 257.3 161.299 257.3C158.039 257.3 155.799 259.52 155.799 262.98C155.799 266.44 158.139 268.68 161.299 268.68C163.999 268.68 165.739 267.14 166.359 265.22ZM176.722 268.5H178.982V262C178.982 258.92 177.042 257.3 174.462 257.3C173.142 257.3 171.922 257.84 171.182 258.74V257.48H168.902V268.5H171.182V262.34C171.182 260.32 172.282 259.28 173.962 259.28C175.622 259.28 176.722 260.32 176.722 262.34V268.5ZM182.251 265.44C182.251 267.68 183.471 268.5 185.431 268.5H187.231V266.6H185.831C184.871 266.6 184.551 266.26 184.551 265.44V259.34H187.231V257.48H184.551V254.74H182.251V257.48H180.951V259.34H182.251V265.44ZM194.527 254.6V268.5H201.507V266.66H196.807V254.6H194.527ZM208.054 259.22C209.754 259.22 211.094 260.3 211.134 262H205.034C205.274 260.26 206.514 259.22 208.054 259.22ZM213.214 265.22H210.754C210.334 266.08 209.554 266.76 208.154 266.76C206.474 266.76 205.174 265.66 205.014 263.84H213.434C213.494 263.46 213.514 263.1 213.514 262.72C213.514 259.48 211.294 257.3 208.154 257.3C204.894 257.3 202.654 259.52 202.654 262.98C202.654 266.44 204.994 268.68 208.154 268.68C210.854 268.68 212.594 267.14 213.214 265.22ZM214.998 262.94C214.998 266.34 217.298 268.68 220.158 268.68C221.998 268.68 223.318 267.8 224.018 266.86V268.5H226.318V257.48H224.018V259.08C223.338 258.18 222.058 257.3 220.198 257.3C217.298 257.3 214.998 259.54 214.998 262.94ZM224.018 262.98C224.018 265.36 222.398 266.7 220.678 266.7C218.978 266.7 217.338 265.32 217.338 262.94C217.338 260.56 218.978 259.28 220.678 259.28C222.398 259.28 224.018 260.62 224.018 262.98ZM231.593 262.7C231.593 260.36 232.633 259.66 234.313 259.66H234.893V257.3C233.333 257.3 232.233 257.98 231.593 259.08V257.48H229.313V268.5H231.593V262.7ZM244.808 268.5H247.068V262C247.068 258.92 245.128 257.3 242.548 257.3C241.228 257.3 240.008 257.84 239.268 258.74V257.48H236.988V268.5H239.268V262.34C239.268 260.32 240.368 259.28 242.048 259.28C243.708 259.28 244.808 260.32 244.808 262.34V268.5ZM249.977 268.5H252.257V257.48H249.977V268.5ZM251.137 256.02C251.937 256.02 252.577 255.38 252.577 254.56C252.577 253.74 251.937 253.1 251.137 253.1C250.317 253.1 249.677 253.74 249.677 254.56C249.677 255.38 250.317 256.02 251.137 256.02ZM263.07 268.5H265.33V262C265.33 258.92 263.39 257.3 260.81 257.3C259.49 257.3 258.27 257.84 257.53 258.74V257.48H255.25V268.5H257.53V262.34C257.53 260.32 258.63 259.28 260.31 259.28C261.97 259.28 263.07 260.32 263.07 262.34V268.5ZM267.478 262.94C267.478 266.34 269.778 268.68 272.678 268.68C274.478 268.68 275.798 267.78 276.498 266.84V268.68C276.498 270.88 275.178 271.96 273.418 271.96C271.838 271.96 270.618 271.18 270.278 270.04H268.018C268.298 272.48 270.478 273.94 273.418 273.94C276.858 273.94 278.798 271.68 278.798 268.68V257.48H276.498V259.08C275.818 258.14 274.478 257.3 272.678 257.3C269.778 257.3 267.478 259.54 267.478 262.94ZM276.498 262.98C276.498 265.36 274.878 266.7 273.158 266.7C271.458 266.7 269.818 265.32 269.818 262.94C269.818 260.56 271.458 259.28 273.158 259.28C274.878 259.28 276.498 260.62 276.498 262.98Z" fill="#212832"/>
<rect x="0.5" y="236.5" width="616" height="49" stroke="black" stroke-opacity="0.5"/>
<rect x="623" y="65" width="617" height="50" fill="white"/>
<path d="M647.6 93.44C649.08 93.44 650.24 92.3 650.24 90.84C650.24 89.36 649.08 88.22 647.6 88.22C646.16 88.22 645 89.36 645 90.84C645 92.3 646.16 93.44 647.6 93.44ZM663.409 85.46H667.129V97.5H669.409V85.46H673.109V83.6H663.409V85.46ZM675.418 97.5H677.698V86.48H675.418V97.5ZM676.578 85.02C677.378 85.02 678.018 84.38 678.018 83.56C678.018 82.74 677.378 82.1 676.578 82.1C675.758 82.1 675.118 82.74 675.118 83.56C675.118 84.38 675.758 85.02 676.578 85.02ZM696.311 97.5H698.571V91C698.571 87.92 696.611 86.3 694.031 86.3C692.431 86.3 690.871 87.14 690.191 88.48C689.431 87.04 687.971 86.3 686.231 86.3C684.911 86.3 683.711 86.84 682.971 87.74V86.48H680.691V97.5H682.971V91.34C682.971 89.32 684.071 88.28 685.751 88.28C687.411 88.28 688.511 89.32 688.511 91.34V97.5H690.771V91.34C690.771 89.32 691.871 88.28 693.551 88.28C695.211 88.28 696.311 89.32 696.311 91.34V97.5ZM706.113 88.22C707.813 88.22 709.153 89.3 709.193 91H703.093C703.333 89.26 704.573 88.22 706.113 88.22ZM711.273 94.22H708.813C708.393 95.08 707.613 95.76 706.213 95.76C704.533 95.76 703.233 94.66 703.073 92.84H711.493C711.553 92.46 711.573 92.1 711.573 91.72C711.573 88.48 709.353 86.3 706.213 86.3C702.953 86.3 700.713 88.52 700.713 91.98C700.713 95.44 703.053 97.68 706.213 97.68C708.913 97.68 710.653 96.14 711.273 94.22ZM728.392 93.56C728.392 88.48 721.032 90.44 721.032 87.3C721.032 85.96 722.052 85.32 723.372 85.36C724.812 85.4 725.632 86.26 725.712 87.2H728.232C728.032 84.82 726.152 83.42 723.492 83.42C720.652 83.42 718.712 84.94 718.712 87.38C718.712 92.5 726.092 90.32 726.092 93.68C726.092 94.86 725.192 95.72 723.592 95.72C722.012 95.72 721.212 94.8 721.112 93.66H718.672C718.672 96.12 720.812 97.64 723.592 97.64C726.692 97.64 728.392 95.64 728.392 93.56ZM735.722 88.22C737.422 88.22 738.762 89.3 738.802 91H732.702C732.942 89.26 734.182 88.22 735.722 88.22ZM740.882 94.22H738.422C738.002 95.08 737.222 95.76 735.822 95.76C734.142 95.76 732.842 94.66 732.682 92.84H741.102C741.162 92.46 741.182 92.1 741.182 91.72C741.182 88.48 738.962 86.3 735.822 86.3C732.562 86.3 730.322 88.52 730.322 91.98C730.322 95.44 732.662 97.68 735.822 97.68C738.522 97.68 740.262 96.14 740.882 94.22ZM745.706 91.7C745.706 89.36 746.746 88.66 748.426 88.66H749.006V86.3C747.446 86.3 746.346 86.98 745.706 88.08V86.48H743.426V97.5H745.706V91.7ZM751.102 97.5H753.382V86.48H751.102V97.5ZM752.262 85.02C753.062 85.02 753.702 84.38 753.702 83.56C753.702 82.74 753.062 82.1 752.262 82.1C751.442 82.1 750.802 82.74 750.802 83.56C750.802 84.38 751.442 85.02 752.262 85.02ZM761.015 88.22C762.715 88.22 764.055 89.3 764.095 91H757.995C758.235 89.26 759.475 88.22 761.015 88.22ZM766.175 94.22H763.715C763.295 95.08 762.515 95.76 761.115 95.76C759.435 95.76 758.135 94.66 757.975 92.84H766.395C766.455 92.46 766.475 92.1 766.475 91.72C766.475 88.48 764.255 86.3 761.115 86.3C757.855 86.3 755.615 88.52 755.615 91.98C755.615 95.44 757.955 97.68 761.115 97.68C763.815 97.68 765.555 96.14 766.175 94.22ZM776.939 94.42C776.819 90.44 770.599 91.68 770.599 89.46C770.599 88.72 771.239 88.22 772.459 88.22C773.699 88.22 774.439 88.88 774.519 89.84H776.799C776.679 87.64 775.039 86.3 772.539 86.3C769.939 86.3 768.299 87.72 768.299 89.48C768.299 93.52 774.699 92.28 774.699 94.44C774.699 95.2 773.999 95.76 772.679 95.76C771.419 95.76 770.559 95.02 770.479 94.12H768.119C768.219 96.12 770.079 97.68 772.719 97.68C775.319 97.68 776.939 96.28 776.939 94.42ZM784.598 97.5H786.878V91.42H791.478V89.56H786.878V85.46H792.778V83.6H784.598V97.5ZM805.391 91.98C805.391 88.52 802.911 86.3 799.771 86.3C796.631 86.3 794.151 88.52 794.151 91.98C794.151 95.44 796.531 97.68 799.671 97.68C802.831 97.68 805.391 95.44 805.391 91.98ZM796.471 91.98C796.471 89.48 798.011 88.28 799.731 88.28C801.431 88.28 803.051 89.48 803.051 91.98C803.051 94.48 801.371 95.7 799.671 95.7C797.951 95.7 796.471 94.48 796.471 91.98ZM809.925 91.7C809.925 89.36 810.965 88.66 812.645 88.66H813.225V86.3C811.665 86.3 810.565 86.98 809.925 88.08V86.48H807.645V97.5H809.925V91.7ZM819.96 88.22C821.66 88.22 823 89.3 823.04 91H816.94C817.18 89.26 818.42 88.22 819.96 88.22ZM825.12 94.22H822.66C822.24 95.08 821.46 95.76 820.06 95.76C818.38 95.76 817.08 94.66 816.92 92.84H825.34C825.4 92.46 825.42 92.1 825.42 91.72C825.42 88.48 823.2 86.3 820.06 86.3C816.8 86.3 814.56 88.52 814.56 91.98C814.56 95.44 816.9 97.68 820.06 97.68C822.76 97.68 824.5 96.14 825.12 94.22ZM826.904 91.98C826.904 95.44 829.144 97.68 832.304 97.68C835.004 97.68 836.764 96.18 837.384 94.02H834.924C834.504 95.16 833.664 95.76 832.304 95.76C830.464 95.76 829.244 94.4 829.244 91.98C829.244 89.58 830.464 88.22 832.304 88.22C833.664 88.22 834.544 88.9 834.924 89.96H837.384C836.764 87.64 835.004 86.3 832.304 86.3C829.144 86.3 826.904 88.54 826.904 91.98ZM838.896 91.94C838.896 95.34 841.196 97.68 844.056 97.68C845.896 97.68 847.216 96.8 847.916 95.86V97.5H850.216V86.48H847.916V88.08C847.236 87.18 845.956 86.3 844.096 86.3C841.196 86.3 838.896 88.54 838.896 91.94ZM847.916 91.98C847.916 94.36 846.296 95.7 844.576 95.7C842.876 95.7 841.236 94.32 841.236 91.94C841.236 89.56 842.876 88.28 844.576 88.28C846.296 88.28 847.916 89.62 847.916 91.98ZM861.431 94.42C861.311 90.44 855.091 91.68 855.091 89.46C855.091 88.72 855.731 88.22 856.951 88.22C858.191 88.22 858.931 88.88 859.011 89.84H861.291C861.171 87.64 859.531 86.3 857.031 86.3C854.431 86.3 852.791 87.72 852.791 89.48C852.791 93.52 859.191 92.28 859.191 94.44C859.191 95.2 858.491 95.76 857.171 95.76C855.911 95.76 855.051 95.02 854.971 94.12H852.611C852.711 96.12 854.571 97.68 857.211 97.68C859.811 97.68 861.431 96.28 861.431 94.42ZM864.255 94.44C864.255 96.68 865.475 97.5 867.435 97.5H869.235V95.6H867.835C866.875 95.6 866.555 95.26 866.555 94.44V88.34H869.235V86.48H866.555V83.74H864.255V86.48H862.955V88.34H864.255V94.44ZM871.336 97.5H873.616V86.48H871.336V97.5ZM872.496 85.02C873.296 85.02 873.936 84.38 873.936 83.56C873.936 82.74 873.296 82.1 872.496 82.1C871.676 82.1 871.036 82.74 871.036 83.56C871.036 84.38 871.676 85.02 872.496 85.02ZM884.429 97.5H886.689V91C886.689 87.92 884.749 86.3 882.169 86.3C880.849 86.3 879.629 86.84 878.889 87.74V86.48H876.609V97.5H878.889V91.34C878.889 89.32 879.989 88.28 881.669 88.28C883.329 88.28 884.429 89.32 884.429 91.34V97.5ZM888.838 91.94C888.838 95.34 891.138 97.68 894.038 97.68C895.838 97.68 897.158 96.78 897.858 95.84V97.68C897.858 99.88 896.538 100.96 894.778 100.96C893.198 100.96 891.978 100.18 891.638 99.04H889.378C889.658 101.48 891.838 102.94 894.778 102.94C898.218 102.94 900.158 100.68 900.158 97.68V86.48H897.858V88.08C897.178 87.14 895.838 86.3 894.038 86.3C891.138 86.3 888.838 88.54 888.838 91.94ZM897.858 91.98C897.858 94.36 896.238 95.7 894.518 95.7C892.818 95.7 891.178 94.32 891.178 91.94C891.178 89.56 892.818 88.28 894.518 88.28C896.238 88.28 897.858 89.62 897.858 91.98Z" fill="#212832"/>
<rect x="623.5" y="65.5" width="616" height="49" stroke="black" stroke-opacity="0.5"/>
<rect x="623" y="122" width="617" height="50" fill="white"/>
<path d="M647.6 150.44C649.08 150.44 650.24 149.3 650.24 147.84C650.24 146.36 649.08 145.22 647.6 145.22C646.16 145.22 645 146.36 645 147.84C645 149.3 646.16 150.44 647.6 150.44ZM664.129 154.5H666.409V144.98L670.669 154.5H672.249L676.489 144.98V154.5H678.769V140.6H676.329L671.469 151.5L666.589 140.6H664.129V154.5ZM692.266 148.98C692.266 145.52 689.786 143.3 686.646 143.3C683.506 143.3 681.026 145.52 681.026 148.98C681.026 152.44 683.406 154.68 686.546 154.68C689.706 154.68 692.266 152.44 692.266 148.98ZM683.346 148.98C683.346 146.48 684.886 145.28 686.606 145.28C688.306 145.28 689.926 146.48 689.926 148.98C689.926 151.48 688.246 152.7 686.546 152.7C684.826 152.7 683.346 151.48 683.346 148.98ZM693.76 148.94C693.76 152.34 696.06 154.68 698.96 154.68C700.76 154.68 702.08 153.84 702.78 152.84V154.5H705.08V139.7H702.78V145.02C701.94 143.98 700.42 143.3 698.98 143.3C696.06 143.3 693.76 145.54 693.76 148.94ZM702.78 148.98C702.78 151.36 701.16 152.7 699.44 152.7C697.74 152.7 696.1 151.32 696.1 148.94C696.1 146.56 697.74 145.28 699.44 145.28C701.16 145.28 702.78 146.62 702.78 148.98ZM712.714 145.22C714.414 145.22 715.754 146.3 715.794 148H709.694C709.934 146.26 711.174 145.22 712.714 145.22ZM717.874 151.22H715.414C714.994 152.08 714.214 152.76 712.814 152.76C711.134 152.76 709.834 151.66 709.674 149.84H718.094C718.154 149.46 718.174 149.1 718.174 148.72C718.174 145.48 715.954 143.3 712.814 143.3C709.554 143.3 707.314 145.52 707.314 148.98C707.314 152.44 709.654 154.68 712.814 154.68C715.514 154.68 717.254 153.14 717.874 151.22ZM720.418 154.5H722.698V139.7H720.418V154.5ZM735.427 140.6H730.887V154.5H735.427C739.887 154.5 742.807 151.88 742.807 147.6C742.807 143.3 739.887 140.6 735.427 140.6ZM733.167 152.64V142.46H735.427C738.707 142.46 740.467 144.42 740.467 147.6C740.467 150.76 738.707 152.64 735.427 152.64H733.167ZM749.706 145.22C751.406 145.22 752.746 146.3 752.786 148H746.686C746.926 146.26 748.166 145.22 749.706 145.22ZM754.866 151.22H752.406C751.986 152.08 751.206 152.76 749.806 152.76C748.126 152.76 746.826 151.66 746.666 149.84H755.086C755.146 149.46 755.166 149.1 755.166 148.72C755.166 145.48 752.946 143.3 749.806 143.3C746.546 143.3 744.306 145.52 744.306 148.98C744.306 152.44 746.646 154.68 749.806 154.68C752.506 154.68 754.246 153.14 754.866 151.22ZM759.69 145.1V143.48H757.41V159.74H759.69V152.9C760.41 153.76 761.71 154.68 763.53 154.68C766.43 154.68 768.71 152.34 768.71 148.94C768.71 145.54 766.43 143.3 763.53 143.3C761.73 143.3 760.39 144.18 759.69 145.1ZM766.39 148.94C766.39 151.32 764.75 152.7 763.03 152.7C761.33 152.7 759.69 151.36 759.69 148.98C759.69 146.62 761.33 145.28 763.03 145.28C764.75 145.28 766.39 146.56 766.39 148.94ZM770.965 154.5H773.245V139.7H770.965V154.5ZM786.738 148.98C786.738 145.52 784.258 143.3 781.118 143.3C777.978 143.3 775.498 145.52 775.498 148.98C775.498 152.44 777.878 154.68 781.018 154.68C784.178 154.68 786.738 152.44 786.738 148.98ZM777.818 148.98C777.818 146.48 779.358 145.28 781.078 145.28C782.778 145.28 784.398 146.48 784.398 148.98C784.398 151.48 782.718 152.7 781.018 152.7C779.298 152.7 777.818 151.48 777.818 148.98ZM793.332 151.88L790.232 143.48H787.692L792.032 154.32L789.792 159.68H792.152L798.912 143.48H796.552L793.332 151.88ZM816.253 154.5H818.513V148C818.513 144.92 816.553 143.3 813.973 143.3C812.373 143.3 810.813 144.14 810.133 145.48C809.373 144.04 807.913 143.3 806.173 143.3C804.853 143.3 803.653 143.84 802.913 144.74V143.48H800.633V154.5H802.913V148.34C802.913 146.32 804.013 145.28 805.693 145.28C807.353 145.28 808.453 146.32 808.453 148.34V154.5H810.713V148.34C810.713 146.32 811.813 145.28 813.493 145.28C815.153 145.28 816.253 146.32 816.253 148.34V154.5ZM826.054 145.22C827.754 145.22 829.094 146.3 829.134 148H823.034C823.274 146.26 824.514 145.22 826.054 145.22ZM831.214 151.22H828.754C828.334 152.08 827.554 152.76 826.154 152.76C824.474 152.76 823.174 151.66 823.014 149.84H831.434C831.494 149.46 831.514 149.1 831.514 148.72C831.514 145.48 829.294 143.3 826.154 143.3C822.894 143.3 820.654 145.52 820.654 148.98C820.654 152.44 822.994 154.68 826.154 154.68C828.854 154.68 830.594 153.14 831.214 151.22ZM841.578 154.5H843.838V148C843.838 144.92 841.898 143.3 839.318 143.3C837.998 143.3 836.778 143.84 836.038 144.74V143.48H833.758V154.5H836.038V148.34C836.038 146.32 837.138 145.28 838.818 145.28C840.478 145.28 841.578 146.32 841.578 148.34V154.5ZM847.106 151.44C847.106 153.68 848.326 154.5 850.286 154.5H852.086V152.6H850.686C849.726 152.6 849.406 152.26 849.406 151.44V145.34H852.086V143.48H849.406V140.74H847.106V143.48H845.806V145.34H847.106V151.44Z" fill="#212832"/>
<rect x="623.5" y="122.5" width="616" height="49" stroke="black" stroke-opacity="0.5"/>
<rect x="623" y="179" width="617" height="50" fill="white"/>
<path d="M647.6 207.44C649.08 207.44 650.24 206.3 650.24 204.84C650.24 203.36 649.08 202.22 647.6 202.22C646.16 202.22 645 203.36 645 204.84C645 206.3 646.16 207.44 647.6 207.44ZM670.469 197.42C666.549 197.42 663.369 200.36 663.369 204.52C663.369 208.7 666.549 211.62 670.469 211.62C674.209 211.62 676.929 208.88 677.349 205.66V203.88H669.689V205.7H674.909C674.569 208.04 672.989 209.56 670.469 209.56C667.709 209.56 665.709 207.58 665.709 204.52C665.709 201.46 667.709 199.5 670.469 199.5C672.129 199.5 673.449 200.2 674.189 201.6H676.929C675.869 198.88 673.369 197.42 670.469 197.42ZM688.978 211.5H691.378L686.398 197.58H683.758L678.778 211.5H681.158L682.158 208.66H687.978L688.978 211.5ZM687.338 206.8H682.798L685.078 200.34L687.338 206.8ZM702.683 197.58V207.94L695.823 197.58H693.543V211.5H695.823V201.12L702.683 211.5H704.963V197.58H702.683ZM716.177 208.42C716.057 204.44 709.837 205.68 709.837 203.46C709.837 202.72 710.477 202.22 711.697 202.22C712.937 202.22 713.677 202.88 713.757 203.84H716.037C715.917 201.64 714.277 200.3 711.777 200.3C709.177 200.3 707.537 201.72 707.537 203.48C707.537 207.52 713.937 206.28 713.937 208.44C713.937 209.2 713.237 209.76 711.917 209.76C710.657 209.76 709.797 209.02 709.717 208.12H707.357C707.457 210.12 709.317 211.68 711.957 211.68C714.557 211.68 716.177 210.28 716.177 208.42ZM731.236 215.22V215C728.436 212.12 727.016 208.18 727.016 204.22C727.016 200.26 728.436 195.98 731.636 193.04V192.82H729.276C726.236 195.52 724.816 199.86 724.816 204.22C724.816 208.58 726.236 212.68 728.876 215.22H731.236ZM740.02 197.42C736.1 197.42 732.92 200.36 732.92 204.52C732.92 208.7 736.1 211.62 740.02 211.62C743.76 211.62 746.48 208.88 746.9 205.66V203.88H739.24V205.7H744.46C744.12 208.04 742.54 209.56 740.02 209.56C737.26 209.56 735.26 207.58 735.26 204.52C735.26 201.46 737.26 199.5 740.02 199.5C741.68 199.5 743 200.2 743.74 201.6H746.48C745.42 198.88 742.92 197.42 740.02 197.42ZM753.788 202.22C755.488 202.22 756.828 203.3 756.868 205H750.768C751.008 203.26 752.248 202.22 753.788 202.22ZM758.948 208.22H756.488C756.068 209.08 755.288 209.76 753.888 209.76C752.208 209.76 750.908 208.66 750.748 206.84H759.168C759.228 206.46 759.248 206.1 759.248 205.72C759.248 202.48 757.028 200.3 753.888 200.3C750.628 200.3 748.388 202.52 748.388 205.98C748.388 209.44 750.728 211.68 753.888 211.68C756.588 211.68 758.328 210.14 758.948 208.22ZM769.312 211.5H771.572V205C771.572 201.92 769.632 200.3 767.052 200.3C765.732 200.3 764.512 200.84 763.772 201.74V200.48H761.492V211.5H763.772V205.34C763.772 203.32 764.872 202.28 766.552 202.28C768.212 202.28 769.312 203.32 769.312 205.34V211.5ZM779.12 202.22C780.82 202.22 782.16 203.3 782.2 205H776.1C776.34 203.26 777.58 202.22 779.12 202.22ZM784.28 208.22H781.82C781.4 209.08 780.62 209.76 779.22 209.76C777.54 209.76 776.24 208.66 776.08 206.84H784.5C784.56 206.46 784.58 206.1 784.58 205.72C784.58 202.48 782.36 200.3 779.22 200.3C775.96 200.3 773.72 202.52 773.72 205.98C773.72 209.44 776.06 211.68 779.22 211.68C781.92 211.68 783.66 210.14 784.28 208.22ZM789.104 205.7C789.104 203.36 790.144 202.66 791.824 202.66H792.404V200.3C790.844 200.3 789.744 200.98 789.104 202.08V200.48H786.824V211.5H789.104V205.7ZM793.74 205.94C793.74 209.34 796.04 211.68 798.9 211.68C800.74 211.68 802.06 210.8 802.76 209.86V211.5H805.06V200.48H802.76V202.08C802.08 201.18 800.8 200.3 798.94 200.3C796.04 200.3 793.74 202.54 793.74 205.94ZM802.76 205.98C802.76 208.36 801.14 209.7 799.42 209.7C797.72 209.7 796.08 208.32 796.08 205.94C796.08 203.56 797.72 202.28 799.42 202.28C801.14 202.28 802.76 203.62 802.76 205.98ZM808.415 208.44C808.415 210.68 809.635 211.5 811.595 211.5H813.395V209.6H811.995C811.035 209.6 810.715 209.26 810.715 208.44V202.34H813.395V200.48H810.715V197.74H808.415V200.48H807.115V202.34H808.415V208.44ZM815.496 211.5H817.776V200.48H815.496V211.5ZM816.656 199.02C817.456 199.02 818.096 198.38 818.096 197.56C818.096 196.74 817.456 196.1 816.656 196.1C815.836 196.1 815.196 196.74 815.196 197.56C815.196 198.38 815.836 199.02 816.656 199.02ZM819.47 200.48L823.65 211.5H826.37L830.57 200.48H828.15L825.03 209.46L821.91 200.48H819.47ZM836.933 202.22C838.633 202.22 839.973 203.3 840.013 205H833.913C834.153 203.26 835.393 202.22 836.933 202.22ZM842.093 208.22H839.633C839.213 209.08 838.433 209.76 837.033 209.76C835.353 209.76 834.053 208.66 833.893 206.84H842.313C842.373 206.46 842.393 206.1 842.393 205.72C842.393 202.48 840.173 200.3 837.033 200.3C833.773 200.3 831.533 202.52 831.533 205.98C831.533 209.44 833.873 211.68 837.033 211.68C839.733 211.68 841.473 210.14 842.093 208.22ZM859.212 211.5H861.612L856.632 197.58H853.992L849.012 211.5H851.392L852.392 208.66H858.212L859.212 211.5ZM857.572 206.8H853.032L855.312 200.34L857.572 206.8ZM863.017 205.94C863.017 209.34 865.317 211.68 868.217 211.68C870.017 211.68 871.337 210.84 872.037 209.84V211.5H874.337V196.7H872.037V202.02C871.197 200.98 869.677 200.3 868.237 200.3C865.317 200.3 863.017 202.54 863.017 205.94ZM872.037 205.98C872.037 208.36 870.417 209.7 868.697 209.7C866.997 209.7 865.357 208.32 865.357 205.94C865.357 203.56 866.997 202.28 868.697 202.28C870.417 202.28 872.037 203.62 872.037 205.98ZM876.032 200.48L880.212 211.5H882.932L887.132 200.48H884.712L881.592 209.46L878.472 200.48H876.032ZM893.495 202.22C895.195 202.22 896.535 203.3 896.575 205H890.475C890.715 203.26 891.955 202.22 893.495 202.22ZM898.655 208.22H896.195C895.775 209.08 894.995 209.76 893.595 209.76C891.915 209.76 890.615 208.66 890.455 206.84H898.875C898.935 206.46 898.955 206.1 898.955 205.72C898.955 202.48 896.735 200.3 893.595 200.3C890.335 200.3 888.095 202.52 888.095 205.98C888.095 209.44 890.435 211.68 893.595 211.68C896.295 211.68 898.035 210.14 898.655 208.22ZM903.479 205.7C903.479 203.36 904.519 202.66 906.199 202.66H906.779V200.3C905.219 200.3 904.119 200.98 903.479 202.08V200.48H901.199V211.5H903.479V205.7ZM917.095 208.42C916.975 204.44 910.755 205.68 910.755 203.46C910.755 202.72 911.395 202.22 912.615 202.22C913.855 202.22 914.595 202.88 914.675 203.84H916.955C916.835 201.64 915.195 200.3 912.695 200.3C910.095 200.3 908.455 201.72 908.455 203.48C908.455 207.52 914.855 206.28 914.855 208.44C914.855 209.2 914.155 209.76 912.835 209.76C911.575 209.76 910.715 209.02 910.635 208.12H908.275C908.375 210.12 910.235 211.68 912.875 211.68C915.475 211.68 917.095 210.28 917.095 208.42ZM918.799 205.94C918.799 209.34 921.099 211.68 923.959 211.68C925.799 211.68 927.119 210.8 927.819 209.86V211.5H930.119V200.48H927.819V202.08C927.139 201.18 925.859 200.3 923.999 200.3C921.099 200.3 918.799 202.54 918.799 205.94ZM927.819 205.98C927.819 208.36 926.199 209.7 924.479 209.7C922.779 209.7 921.139 208.32 921.139 205.94C921.139 203.56 922.779 202.28 924.479 202.28C926.199 202.28 927.819 203.62 927.819 205.98ZM935.393 205.7C935.393 203.36 936.433 202.66 938.113 202.66H938.693V200.3C937.133 200.3 936.033 200.98 935.393 202.08V200.48H933.113V211.5H935.393V205.7ZM940.789 211.5H943.069V200.48H940.789V211.5ZM941.949 199.02C942.749 199.02 943.389 198.38 943.389 197.56C943.389 196.74 942.749 196.1 941.949 196.1C941.129 196.1 940.489 196.74 940.489 197.56C940.489 198.38 941.129 199.02 941.949 199.02ZM945.303 205.94C945.303 209.34 947.603 211.68 950.463 211.68C952.303 211.68 953.623 210.8 954.323 209.86V211.5H956.623V200.48H954.323V202.08C953.643 201.18 952.363 200.3 950.503 200.3C947.603 200.3 945.303 202.54 945.303 205.94ZM954.323 205.98C954.323 208.36 952.703 209.7 950.983 209.7C949.283 209.7 947.643 208.32 947.643 205.94C947.643 203.56 949.283 202.28 950.983 202.28C952.703 202.28 954.323 203.62 954.323 205.98ZM959.617 211.5H961.897V196.7H959.617V211.5ZM979.226 197.58V207.94L972.366 197.58H970.086V211.5H972.366V201.12L979.226 211.5H981.506V197.58H979.226ZM989.14 202.22C990.84 202.22 992.18 203.3 992.22 205H986.12C986.36 203.26 987.6 202.22 989.14 202.22ZM994.3 208.22H991.84C991.42 209.08 990.64 209.76 989.24 209.76C987.56 209.76 986.26 208.66 986.1 206.84H994.52C994.58 206.46 994.6 206.1 994.6 205.72C994.6 202.48 992.38 200.3 989.24 200.3C985.98 200.3 983.74 202.52 983.74 205.98C983.74 209.44 986.08 211.68 989.24 211.68C991.94 211.68 993.68 210.14 994.3 208.22ZM997.204 208.44C997.204 210.68 998.424 211.5 1000.38 211.5H1002.18V209.6H1000.78C999.824 209.6 999.504 209.26 999.504 208.44V202.34H1002.18V200.48H999.504V197.74H997.204V200.48H995.904V202.34H997.204V208.44ZM1006.43 211.5H1008.83L1011.05 203.36L1013.27 211.5H1015.67L1019.09 200.48H1016.85L1014.57 209.3L1012.33 200.48H1009.95L1007.61 209.34L1005.31 200.48H1002.99L1006.43 211.5ZM1031.29 205.98C1031.29 202.52 1028.81 200.3 1025.67 200.3C1022.53 200.3 1020.05 202.52 1020.05 205.98C1020.05 209.44 1022.43 211.68 1025.57 211.68C1028.73 211.68 1031.29 209.44 1031.29 205.98ZM1022.37 205.98C1022.37 203.48 1023.91 202.28 1025.63 202.28C1027.33 202.28 1028.95 203.48 1028.95 205.98C1028.95 208.48 1027.27 209.7 1025.57 209.7C1023.85 209.7 1022.37 208.48 1022.37 205.98ZM1035.82 205.7C1035.82 203.36 1036.86 202.66 1038.54 202.66H1039.12V200.3C1037.56 200.3 1036.46 200.98 1035.82 202.08V200.48H1033.54V211.5H1035.82V205.7ZM1041.22 211.5H1043.5V206.76L1047.58 211.5H1050.66L1045.58 206L1050.66 200.48H1047.5L1043.5 205.3V196.7H1041.22V211.5ZM1060.51 208.42C1060.39 204.44 1054.17 205.68 1054.17 203.46C1054.17 202.72 1054.81 202.22 1056.03 202.22C1057.27 202.22 1058.01 202.88 1058.09 203.84H1060.37C1060.25 201.64 1058.61 200.3 1056.11 200.3C1053.51 200.3 1051.87 201.72 1051.87 203.48C1051.87 207.52 1058.27 206.28 1058.27 208.44C1058.27 209.2 1057.57 209.76 1056.25 209.76C1054.99 209.76 1054.13 209.02 1054.05 208.12H1051.69C1051.79 210.12 1053.65 211.68 1056.29 211.68C1058.89 211.68 1060.51 210.28 1060.51 208.42ZM1062.42 215.22V215C1065.22 212.12 1066.64 208.18 1066.64 204.22C1066.64 200.26 1065.22 195.98 1062.02 193.04V192.82H1064.38C1067.42 195.52 1068.84 199.86 1068.84 204.22C1068.84 208.58 1067.42 212.68 1064.78 215.22H1062.42Z" fill="#212832"/>
<rect x="623.5" y="179.5" width="616" height="49" stroke="black" stroke-opacity="0.5"/>
<rect x="623" y="236" width="617" height="50" fill="white"/>
<path d="M644.74 262.22H652.96V260.3H644.74V262.22ZM656.439 262.22H664.659V260.3H656.439V262.22ZM668.138 262.22H676.358V260.3H668.138V262.22ZM679.838 262.22H688.058V260.3H679.838V262.22Z" fill="#212832"/>
<rect x="623.5" y="236.5" width="616" height="49" stroke="black" stroke-opacity="0.5"/>
</svg>
