<svg width="617" height="287" viewBox="0 0 617 287" fill="none" xmlns="http://www.w3.org/2000/svg">
<rect y="66" width="617" height="50" fill="white"/>
<path d="M24.6 94.44C26.08 94.44 27.24 93.3 27.24 91.84C27.24 90.36 26.08 89.22 24.6 89.22C23.16 89.22 22 90.36 22 91.84C22 93.3 23.16 94.44 24.6 94.44ZM48.8089 84.58H41.1289V98.5H48.8089V96.64H43.4089V92.38H48.2089V90.52H43.4089V86.44H48.8089V84.58ZM67.2372 98.5H69.4972V92C69.4972 88.92 67.5372 87.3 64.9572 87.3C63.3572 87.3 61.7972 88.14 61.1172 89.48C60.3572 88.04 58.8972 87.3 57.1572 87.3C55.8372 87.3 54.6372 87.84 53.8972 88.74V87.48H51.6172V98.5H53.8972V92.34C53.8972 90.32 54.9972 89.28 56.6772 89.28C58.3372 89.28 59.4372 90.32 59.4372 92.34V98.5H61.6972V92.34C61.6972 90.32 62.7972 89.28 64.4772 89.28C66.1372 89.28 67.2372 90.32 67.2372 92.34V98.5ZM74.6784 89.12V83.7H72.3984V98.5H74.6784V96.9C75.3984 97.86 76.6984 98.68 78.5184 98.68C81.4184 98.68 83.6984 96.34 83.6984 92.94C83.6984 89.54 81.4384 87.3 78.5184 87.3C76.7784 87.3 75.3984 88.12 74.6784 89.12ZM81.3784 92.94C81.3784 95.32 79.7384 96.7 78.0184 96.7C76.3184 96.7 74.6784 95.36 74.6784 92.98C74.6784 90.62 76.3184 89.28 78.0184 89.28C79.7384 89.28 81.3784 90.56 81.3784 92.94ZM90.5931 89.22C92.2931 89.22 93.6331 90.3 93.6731 92H87.5731C87.8131 90.26 89.0531 89.22 90.5931 89.22ZM95.7531 95.22H93.2931C92.8731 96.08 92.0931 96.76 90.6931 96.76C89.0131 96.76 87.7131 95.66 87.5531 93.84H95.9731C96.0331 93.46 96.0531 93.1 96.0531 92.72C96.0531 89.48 93.8331 87.3 90.6931 87.3C87.4331 87.3 85.1931 89.52 85.1931 92.98C85.1931 96.44 87.5331 98.68 90.6931 98.68C93.3931 98.68 95.1331 97.14 95.7531 95.22ZM97.5369 92.94C97.5369 96.34 99.8369 98.68 102.737 98.68C104.537 98.68 105.857 97.84 106.557 96.84V98.5H108.857V83.7H106.557V89.02C105.717 87.98 104.197 87.3 102.757 87.3C99.8369 87.3 97.5369 89.54 97.5369 92.94ZM106.557 92.98C106.557 95.36 104.937 96.7 103.217 96.7C101.517 96.7 99.8769 95.32 99.8769 92.94C99.8769 90.56 101.517 89.28 103.217 89.28C104.937 89.28 106.557 90.62 106.557 92.98ZM111.092 92.94C111.092 96.34 113.392 98.68 116.292 98.68C118.092 98.68 119.412 97.84 120.112 96.84V98.5H122.412V83.7H120.112V89.02C119.272 87.98 117.752 87.3 116.312 87.3C113.392 87.3 111.092 89.54 111.092 92.94ZM120.112 92.98C120.112 95.36 118.492 96.7 116.772 96.7C115.072 96.7 113.432 95.32 113.432 92.94C113.432 90.56 115.072 89.28 116.772 89.28C118.492 89.28 120.112 90.62 120.112 92.98ZM130.046 89.22C131.746 89.22 133.086 90.3 133.126 92H127.026C127.266 90.26 128.506 89.22 130.046 89.22ZM135.206 95.22H132.746C132.326 96.08 131.546 96.76 130.146 96.76C128.466 96.76 127.166 95.66 127.006 93.84H135.426C135.486 93.46 135.506 93.1 135.506 92.72C135.506 89.48 133.286 87.3 130.146 87.3C126.886 87.3 124.646 89.52 124.646 92.98C124.646 96.44 126.986 98.68 130.146 98.68C132.846 98.68 134.586 97.14 135.206 95.22ZM136.99 92.94C136.99 96.34 139.29 98.68 142.19 98.68C143.99 98.68 145.31 97.84 146.01 96.84V98.5H148.31V83.7H146.01V89.02C145.17 87.98 143.65 87.3 142.21 87.3C139.29 87.3 136.99 89.54 136.99 92.94ZM146.01 92.98C146.01 95.36 144.39 96.7 142.67 96.7C140.97 96.7 139.33 95.32 139.33 92.94C139.33 90.56 140.97 89.28 142.67 89.28C144.39 89.28 146.01 90.62 146.01 92.98ZM165.88 94.56C165.88 89.48 158.52 91.44 158.52 88.3C158.52 86.96 159.54 86.32 160.86 86.36C162.3 86.4 163.12 87.26 163.2 88.2H165.72C165.52 85.82 163.64 84.42 160.98 84.42C158.14 84.42 156.2 85.94 156.2 88.38C156.2 93.5 163.58 91.32 163.58 94.68C163.58 95.86 162.68 96.72 161.08 96.72C159.5 96.72 158.7 95.8 158.6 94.66H156.16C156.16 97.12 158.3 98.64 161.08 98.64C164.18 98.64 165.88 96.64 165.88 94.56ZM172.91 95.88L169.81 87.48H167.27L171.61 98.32L169.37 103.68H171.73L178.49 87.48H176.13L172.91 95.88ZM188.431 95.42C188.311 91.44 182.091 92.68 182.091 90.46C182.091 89.72 182.731 89.22 183.951 89.22C185.191 89.22 185.931 89.88 186.011 90.84H188.291C188.171 88.64 186.531 87.3 184.031 87.3C181.431 87.3 179.791 88.72 179.791 90.48C179.791 94.52 186.191 93.28 186.191 95.44C186.191 96.2 185.491 96.76 184.171 96.76C182.911 96.76 182.051 96.02 181.971 95.12H179.611C179.711 97.12 181.571 98.68 184.211 98.68C186.811 98.68 188.431 97.28 188.431 95.42ZM191.255 95.44C191.255 97.68 192.475 98.5 194.435 98.5H196.235V96.6H194.835C193.875 96.6 193.555 96.26 193.555 95.44V89.34H196.235V87.48H193.555V84.74H191.255V87.48H189.955V89.34H191.255V95.44ZM202.976 89.22C204.676 89.22 206.016 90.3 206.056 92H199.956C200.196 90.26 201.436 89.22 202.976 89.22ZM208.136 95.22H205.676C205.256 96.08 204.476 96.76 203.076 96.76C201.396 96.76 200.096 95.66 199.936 93.84H208.356C208.416 93.46 208.436 93.1 208.436 92.72C208.436 89.48 206.216 87.3 203.076 87.3C199.816 87.3 197.576 89.52 197.576 92.98C197.576 96.44 199.916 98.68 203.076 98.68C205.776 98.68 207.516 97.14 208.136 95.22ZM226.3 98.5H228.56V92C228.56 88.92 226.6 87.3 224.02 87.3C222.42 87.3 220.86 88.14 220.18 89.48C219.42 88.04 217.96 87.3 216.22 87.3C214.9 87.3 213.7 87.84 212.96 88.74V87.48H210.68V98.5H212.96V92.34C212.96 90.32 214.06 89.28 215.74 89.28C217.4 89.28 218.5 90.32 218.5 92.34V98.5H220.76V92.34C220.76 90.32 221.86 89.28 223.54 89.28C225.2 89.28 226.3 90.32 226.3 92.34V98.5ZM239.681 95.42C239.561 91.44 233.341 92.68 233.341 90.46C233.341 89.72 233.981 89.22 235.201 89.22C236.441 89.22 237.181 89.88 237.261 90.84H239.541C239.421 88.64 237.781 87.3 235.281 87.3C232.681 87.3 231.041 88.72 231.041 90.48C231.041 94.52 237.441 93.28 237.441 95.44C237.441 96.2 236.741 96.76 235.421 96.76C234.161 96.76 233.301 96.02 233.221 95.12H230.861C230.961 97.12 232.821 98.68 235.461 98.68C238.061 98.68 239.681 97.28 239.681 95.42Z" fill="#212832"/>
<rect x="0.5" y="66.5" width="616" height="49" stroke="black" stroke-opacity="0.5"/>
<rect y="180" width="617" height="50" fill="white"/>
<path d="M24.6 208.44C26.08 208.44 27.24 207.3 27.24 205.84C27.24 204.36 26.08 203.22 24.6 203.22C23.16 203.22 22 204.36 22 205.84C22 207.3 23.16 208.44 24.6 208.44ZM50.5089 212.5H52.9089L47.9289 198.58H45.2889L40.3089 212.5H42.6889L43.6889 209.66H49.5089L50.5089 212.5ZM48.8689 207.8H44.3289L46.6089 201.34L48.8689 207.8ZM57.3542 206.7C57.3542 204.36 58.3942 203.66 60.0742 203.66H60.6542V201.3C59.0942 201.3 57.9942 201.98 57.3542 203.08V201.48H55.0742V212.5H57.3542V206.7ZM63.11 209.44C63.11 211.68 64.33 212.5 66.29 212.5H68.09V210.6H66.69C65.73 210.6 65.41 210.26 65.41 209.44V203.34H68.09V201.48H65.41V198.74H63.11V201.48H61.81V203.34H63.11V209.44ZM70.1914 212.5H72.4714V201.48H70.1914V212.5ZM71.3514 200.02C72.1514 200.02 72.7914 199.38 72.7914 198.56C72.7914 197.74 72.1514 197.1 71.3514 197.1C70.5314 197.1 69.8914 197.74 69.8914 198.56C69.8914 199.38 70.5314 200.02 71.3514 200.02ZM75.7448 212.5H78.0448V203.34H80.0848V201.48H78.0448V200.7C78.0448 199.44 78.5248 198.96 79.9248 198.96V197.06C77.0448 197.06 75.7448 198.16 75.7448 200.7V201.48H74.4448V203.34H75.7448V212.5ZM82.1055 212.5H84.3855V201.48H82.1055V212.5ZM83.2655 200.02C84.0655 200.02 84.7055 199.38 84.7055 198.56C84.7055 197.74 84.0655 197.1 83.2655 197.1C82.4455 197.1 81.8055 197.74 81.8055 198.56C81.8055 199.38 82.4455 200.02 83.2655 200.02ZM86.6189 206.98C86.6189 210.44 88.8589 212.68 92.0189 212.68C94.7189 212.68 96.4789 211.18 97.0989 209.02H94.6389C94.2189 210.16 93.3789 210.76 92.0189 210.76C90.1789 210.76 88.9589 209.4 88.9589 206.98C88.9589 204.58 90.1789 203.22 92.0189 203.22C93.3789 203.22 94.2589 203.9 94.6389 204.96H97.0989C96.4789 202.64 94.7189 201.3 92.0189 201.3C88.8589 201.3 86.6189 203.54 86.6189 206.98ZM99.3711 212.5H101.651V201.48H99.3711V212.5ZM100.531 200.02C101.331 200.02 101.971 199.38 101.971 198.56C101.971 197.74 101.331 197.1 100.531 197.1C99.7111 197.1 99.0711 197.74 99.0711 198.56C99.0711 199.38 99.7111 200.02 100.531 200.02ZM103.885 206.94C103.885 210.34 106.185 212.68 109.045 212.68C110.885 212.68 112.205 211.8 112.905 210.86V212.5H115.205V201.48H112.905V203.08C112.225 202.18 110.945 201.3 109.085 201.3C106.185 201.3 103.885 203.54 103.885 206.94ZM112.905 206.98C112.905 209.36 111.285 210.7 109.565 210.7C107.865 210.7 106.225 209.32 106.225 206.94C106.225 204.56 107.865 203.28 109.565 203.28C111.285 203.28 112.905 204.62 112.905 206.98ZM118.199 212.5H120.479V197.7H118.199V212.5ZM137.808 198.58V208.94L130.948 198.58H128.668V212.5H130.948V202.12L137.808 212.5H140.088V198.58H137.808ZM147.722 203.22C149.422 203.22 150.762 204.3 150.802 206H144.702C144.942 204.26 146.182 203.22 147.722 203.22ZM152.882 209.22H150.422C150.002 210.08 149.222 210.76 147.822 210.76C146.142 210.76 144.842 209.66 144.682 207.84H153.102C153.162 207.46 153.182 207.1 153.182 206.72C153.182 203.48 150.962 201.3 147.822 201.3C144.562 201.3 142.322 203.52 142.322 206.98C142.322 210.44 144.662 212.68 147.822 212.68C150.522 212.68 152.262 211.14 152.882 209.22ZM165.406 201.48H163.126V207.62C163.126 209.64 162.026 210.68 160.346 210.68C158.686 210.68 157.586 209.64 157.586 207.62V201.48H155.326V207.96C155.326 211.04 157.286 212.66 159.866 212.66C161.166 212.66 162.406 212.12 163.126 211.18V212.5H165.406V201.48ZM170.694 206.7C170.694 204.36 171.734 203.66 173.414 203.66H173.994V201.3C172.434 201.3 171.334 201.98 170.694 203.08V201.48H168.414V212.5H170.694V206.7ZM175.33 206.94C175.33 210.34 177.63 212.68 180.49 212.68C182.33 212.68 183.65 211.8 184.35 210.86V212.5H186.65V201.48H184.35V203.08C183.67 202.18 182.39 201.3 180.53 201.3C177.63 201.3 175.33 203.54 175.33 206.94ZM184.35 206.98C184.35 209.36 182.73 210.7 181.01 210.7C179.31 210.7 177.67 209.32 177.67 206.94C177.67 204.56 179.31 203.28 181.01 203.28C182.73 203.28 184.35 204.62 184.35 206.98ZM189.645 212.5H191.925V197.7H189.645V212.5ZM209.253 198.58V208.94L202.393 198.58H200.113V212.5H202.393V202.12L209.253 212.5H211.533V198.58H209.253ZM219.167 203.22C220.867 203.22 222.207 204.3 222.247 206H216.147C216.387 204.26 217.627 203.22 219.167 203.22ZM224.327 209.22H221.867C221.447 210.08 220.667 210.76 219.267 210.76C217.587 210.76 216.287 209.66 216.127 207.84H224.547C224.607 207.46 224.627 207.1 224.627 206.72C224.627 203.48 222.407 201.3 219.267 201.3C216.007 201.3 213.767 203.52 213.767 206.98C213.767 210.44 216.107 212.68 219.267 212.68C221.967 212.68 223.707 211.14 224.327 209.22ZM227.231 209.44C227.231 211.68 228.451 212.5 230.411 212.5H232.211V210.6H230.811C229.851 210.6 229.531 210.26 229.531 209.44V203.34H232.211V201.48H229.531V198.74H227.231V201.48H225.931V203.34H227.231V209.44ZM236.453 212.5H238.853L241.073 204.36L243.293 212.5H245.693L249.113 201.48H246.873L244.593 210.3L242.353 201.48H239.973L237.633 210.34L235.333 201.48H233.013L236.453 212.5ZM261.316 206.98C261.316 203.52 258.836 201.3 255.696 201.3C252.556 201.3 250.076 203.52 250.076 206.98C250.076 210.44 252.456 212.68 255.596 212.68C258.756 212.68 261.316 210.44 261.316 206.98ZM252.396 206.98C252.396 204.48 253.936 203.28 255.656 203.28C257.356 203.28 258.976 204.48 258.976 206.98C258.976 209.48 257.296 210.7 255.596 210.7C253.876 210.7 252.396 209.48 252.396 206.98ZM265.85 206.7C265.85 204.36 266.89 203.66 268.57 203.66H269.15V201.3C267.59 201.3 266.49 201.98 265.85 203.08V201.48H263.57V212.5H265.85V206.7ZM271.246 212.5H273.526V207.76L277.606 212.5H280.686L275.606 207L280.686 201.48H277.526L273.526 206.3V197.7H271.246V212.5ZM290.54 209.42C290.42 205.44 284.2 206.68 284.2 204.46C284.2 203.72 284.84 203.22 286.06 203.22C287.3 203.22 288.04 203.88 288.12 204.84H290.4C290.28 202.64 288.64 201.3 286.14 201.3C283.54 201.3 281.9 202.72 281.9 204.48C281.9 208.52 288.3 207.28 288.3 209.44C288.3 210.2 287.6 210.76 286.28 210.76C285.02 210.76 284.16 210.02 284.08 209.12H281.72C281.82 211.12 283.68 212.68 286.32 212.68C288.92 212.68 290.54 211.28 290.54 209.42Z" fill="#212832"/>
<rect x="0.5" y="180.5" width="616" height="49" stroke="black" stroke-opacity="0.5"/>
<rect y="123" width="617" height="50" fill="white"/>
<path d="M24.6 151.44C26.08 151.44 27.24 150.3 27.24 148.84C27.24 147.36 26.08 146.22 24.6 146.22C23.16 146.22 22 147.36 22 148.84C22 150.3 23.16 151.44 24.6 151.44ZM50.2689 141.58V151.94L43.4089 141.58H41.1289V155.5H43.4089V145.12L50.2689 155.5H52.5489V141.58H50.2689ZM54.783 149.94C54.783 153.34 57.083 155.68 59.943 155.68C61.783 155.68 63.103 154.8 63.803 153.86V155.5H66.103V144.48H63.803V146.08C63.123 145.18 61.843 144.3 59.983 144.3C57.083 144.3 54.783 146.54 54.783 149.94ZM63.803 149.98C63.803 152.36 62.183 153.7 60.463 153.7C58.763 153.7 57.123 152.32 57.123 149.94C57.123 147.56 58.763 146.28 60.463 146.28C62.183 146.28 63.803 147.62 63.803 149.98ZM69.4577 152.44C69.4577 154.68 70.6777 155.5 72.6377 155.5H74.4377V153.6H73.0377C72.0777 153.6 71.7577 153.26 71.7577 152.44V146.34H74.4377V144.48H71.7577V141.74H69.4577V144.48H68.1577V146.34H69.4577V152.44ZM86.5191 144.48H84.2391V150.62C84.2391 152.64 83.1391 153.68 81.4591 153.68C79.7991 153.68 78.6991 152.64 78.6991 150.62V144.48H76.4391V150.96C76.4391 154.04 78.3991 155.66 80.9791 155.66C82.2791 155.66 83.5191 155.12 84.2391 154.18V155.5H86.5191V144.48ZM91.8073 149.7C91.8073 147.36 92.8473 146.66 94.5273 146.66H95.1073V144.3C93.5473 144.3 92.4473 144.98 91.8073 146.08V144.48H89.5273V155.5H91.8073V149.7ZM96.4431 149.94C96.4431 153.34 98.7431 155.68 101.603 155.68C103.443 155.68 104.763 154.8 105.463 153.86V155.5H107.763V144.48H105.463V146.08C104.783 145.18 103.503 144.3 101.643 144.3C98.7431 144.3 96.4431 146.54 96.4431 149.94ZM105.463 149.98C105.463 152.36 103.843 153.7 102.123 153.7C100.423 153.7 98.7831 152.32 98.7831 149.94C98.7831 147.56 100.423 146.28 102.123 146.28C103.843 146.28 105.463 147.62 105.463 149.98ZM110.758 155.5H113.038V140.7H110.758V155.5ZM121.227 141.6V155.5H128.207V153.66H123.507V141.6H121.227ZM129.353 149.94C129.353 153.34 131.653 155.68 134.513 155.68C136.353 155.68 137.673 154.8 138.373 153.86V155.5H140.673V144.48H138.373V146.08C137.693 145.18 136.413 144.3 134.553 144.3C131.653 144.3 129.353 146.54 129.353 149.94ZM138.373 149.98C138.373 152.36 136.753 153.7 135.033 153.7C133.333 153.7 131.693 152.32 131.693 149.94C131.693 147.56 133.333 146.28 135.033 146.28C136.753 146.28 138.373 147.62 138.373 149.98ZM151.488 155.5H153.748V149C153.748 145.92 151.808 144.3 149.228 144.3C147.908 144.3 146.688 144.84 145.948 145.74V144.48H143.668V155.5H145.948V149.34C145.948 147.32 147.048 146.28 148.728 146.28C150.388 146.28 151.488 147.32 151.488 149.34V155.5ZM155.896 149.94C155.896 153.34 158.196 155.68 161.096 155.68C162.896 155.68 164.216 154.78 164.916 153.84V155.68C164.916 157.88 163.596 158.96 161.836 158.96C160.256 158.96 159.036 158.18 158.696 157.04H156.436C156.716 159.48 158.896 160.94 161.836 160.94C165.276 160.94 167.216 158.68 167.216 155.68V144.48H164.916V146.08C164.236 145.14 162.896 144.3 161.096 144.3C158.196 144.3 155.896 146.54 155.896 149.94ZM164.916 149.98C164.916 152.36 163.296 153.7 161.576 153.7C159.876 153.7 158.236 152.32 158.236 149.94C158.236 147.56 159.876 146.28 161.576 146.28C163.296 146.28 164.916 147.62 164.916 149.98ZM180.191 144.48H177.911V150.62C177.911 152.64 176.811 153.68 175.131 153.68C173.471 153.68 172.371 152.64 172.371 150.62V144.48H170.111V150.96C170.111 154.04 172.071 155.66 174.651 155.66C175.951 155.66 177.191 155.12 177.911 154.18V155.5H180.191V144.48ZM182.439 149.94C182.439 153.34 184.739 155.68 187.599 155.68C189.439 155.68 190.759 154.8 191.459 153.86V155.5H193.759V144.48H191.459V146.08C190.779 145.18 189.499 144.3 187.639 144.3C184.739 144.3 182.439 146.54 182.439 149.94ZM191.459 149.98C191.459 152.36 189.839 153.7 188.119 153.7C186.419 153.7 184.779 152.32 184.779 149.94C184.779 147.56 186.419 146.28 188.119 146.28C189.839 146.28 191.459 147.62 191.459 149.98ZM195.994 149.94C195.994 153.34 198.294 155.68 201.194 155.68C202.994 155.68 204.314 154.78 205.014 153.84V155.68C205.014 157.88 203.694 158.96 201.934 158.96C200.354 158.96 199.134 158.18 198.794 157.04H196.534C196.814 159.48 198.994 160.94 201.934 160.94C205.374 160.94 207.314 158.68 207.314 155.68V144.48H205.014V146.08C204.334 145.14 202.994 144.3 201.194 144.3C198.294 144.3 195.994 146.54 195.994 149.94ZM205.014 149.98C205.014 152.36 203.394 153.7 201.674 153.7C199.974 153.7 198.334 152.32 198.334 149.94C198.334 147.56 199.974 146.28 201.674 146.28C203.394 146.28 205.014 147.62 205.014 149.98ZM214.949 146.22C216.649 146.22 217.989 147.3 218.029 149H211.929C212.169 147.26 213.409 146.22 214.949 146.22ZM220.109 152.22H217.649C217.229 153.08 216.449 153.76 215.049 153.76C213.369 153.76 212.069 152.66 211.909 150.84H220.329C220.389 150.46 220.409 150.1 220.409 149.72C220.409 146.48 218.189 144.3 215.049 144.3C211.789 144.3 209.549 146.52 209.549 149.98C209.549 153.44 211.889 155.68 215.049 155.68C217.749 155.68 219.489 154.14 220.109 152.22ZM230.128 148V143.46H232.648C234.428 143.46 235.228 144.3 235.228 145.74C235.228 147.14 234.428 148 232.648 148H230.128ZM237.568 145.74C237.568 143.48 235.948 141.6 232.648 141.6H227.848V155.5H230.128V149.86H232.648C236.268 149.86 237.568 147.72 237.568 145.74ZM242.022 149.7C242.022 147.36 243.062 146.66 244.742 146.66H245.322V144.3C243.762 144.3 242.662 144.98 242.022 146.08V144.48H239.742V155.5H242.022V149.7ZM257.918 149.98C257.918 146.52 255.438 144.3 252.298 144.3C249.158 144.3 246.678 146.52 246.678 149.98C246.678 153.44 249.058 155.68 252.198 155.68C255.358 155.68 257.918 153.44 257.918 149.98ZM248.998 149.98C248.998 147.48 250.538 146.28 252.258 146.28C253.958 146.28 255.578 147.48 255.578 149.98C255.578 152.48 253.898 153.7 252.198 153.7C250.478 153.7 248.998 152.48 248.998 149.98ZM259.412 149.98C259.412 153.44 261.652 155.68 264.812 155.68C267.512 155.68 269.272 154.18 269.892 152.02H267.432C267.012 153.16 266.172 153.76 264.812 153.76C262.972 153.76 261.752 152.4 261.752 149.98C261.752 147.58 262.972 146.22 264.812 146.22C266.172 146.22 267.052 146.9 267.432 147.96H269.892C269.272 145.64 267.512 144.3 264.812 144.3C261.652 144.3 259.412 146.54 259.412 149.98ZM276.804 146.22C278.504 146.22 279.844 147.3 279.884 149H273.784C274.024 147.26 275.264 146.22 276.804 146.22ZM281.964 152.22H279.504C279.084 153.08 278.304 153.76 276.904 153.76C275.224 153.76 273.924 152.66 273.764 150.84H282.184C282.244 150.46 282.264 150.1 282.264 149.72C282.264 146.48 280.044 144.3 276.904 144.3C273.644 144.3 271.404 146.52 271.404 149.98C271.404 153.44 273.744 155.68 276.904 155.68C279.604 155.68 281.344 154.14 281.964 152.22ZM292.728 152.42C292.608 148.44 286.388 149.68 286.388 147.46C286.388 146.72 287.028 146.22 288.248 146.22C289.488 146.22 290.228 146.88 290.308 147.84H292.588C292.468 145.64 290.828 144.3 288.328 144.3C285.728 144.3 284.088 145.72 284.088 147.48C284.088 151.52 290.488 150.28 290.488 152.44C290.488 153.2 289.788 153.76 288.468 153.76C287.208 153.76 286.348 153.02 286.268 152.12H283.908C284.008 154.12 285.868 155.68 288.508 155.68C291.108 155.68 292.728 154.28 292.728 152.42ZM303.411 152.42C303.291 148.44 297.071 149.68 297.071 147.46C297.071 146.72 297.711 146.22 298.931 146.22C300.171 146.22 300.911 146.88 300.991 147.84H303.271C303.151 145.64 301.511 144.3 299.011 144.3C296.411 144.3 294.771 145.72 294.771 147.48C294.771 151.52 301.171 150.28 301.171 152.44C301.171 153.2 300.471 153.76 299.151 153.76C297.891 153.76 297.031 153.02 296.951 152.12H294.591C294.691 154.12 296.551 155.68 299.191 155.68C301.791 155.68 303.411 154.28 303.411 152.42ZM305.875 155.5H308.155V144.48H305.875V155.5ZM307.035 143.02C307.835 143.02 308.475 142.38 308.475 141.56C308.475 140.74 307.835 140.1 307.035 140.1C306.215 140.1 305.575 140.74 305.575 141.56C305.575 142.38 306.215 143.02 307.035 143.02ZM318.968 155.5H321.228V149C321.228 145.92 319.288 144.3 316.708 144.3C315.388 144.3 314.168 144.84 313.428 145.74V144.48H311.148V155.5H313.428V149.34C313.428 147.32 314.528 146.28 316.208 146.28C317.868 146.28 318.968 147.32 318.968 149.34V155.5ZM323.377 149.94C323.377 153.34 325.677 155.68 328.577 155.68C330.377 155.68 331.697 154.78 332.397 153.84V155.68C332.397 157.88 331.077 158.96 329.317 158.96C327.737 158.96 326.517 158.18 326.177 157.04H323.917C324.197 159.48 326.377 160.94 329.317 160.94C332.757 160.94 334.697 158.68 334.697 155.68V144.48H332.397V146.08C331.717 145.14 330.377 144.3 328.577 144.3C325.677 144.3 323.377 146.54 323.377 149.94ZM332.397 149.98C332.397 152.36 330.777 153.7 329.057 153.7C327.357 153.7 325.717 152.32 325.717 149.94C325.717 147.56 327.357 146.28 329.057 146.28C330.777 146.28 332.397 147.62 332.397 149.98Z" fill="#212832"/>
<rect x="0.5" y="123.5" width="616" height="49" stroke="black" stroke-opacity="0.5"/>
<rect y="237" width="617" height="50" fill="white"/>
<path d="M24.6 265.44C26.08 265.44 27.24 264.3 27.24 262.84C27.24 261.36 26.08 260.22 24.6 260.22C23.16 260.22 22 261.36 22 262.84C22 264.3 23.16 265.44 24.6 265.44ZM41.1289 269.5H43.4089V259.98L47.6689 269.5H49.2489L53.4889 259.98V269.5H55.7689V255.6H53.3289L48.4689 266.5L43.5889 255.6H41.1289V269.5ZM58.0056 263.94C58.0056 267.34 60.3056 269.68 63.1656 269.68C65.0056 269.68 66.3256 268.8 67.0256 267.86V269.5H69.3256V258.48H67.0256V260.08C66.3456 259.18 65.0656 258.3 63.2056 258.3C60.3056 258.3 58.0056 260.54 58.0056 263.94ZM67.0256 263.98C67.0256 266.36 65.4056 267.7 63.6856 267.7C61.9856 267.7 60.3456 266.32 60.3456 263.94C60.3456 261.56 61.9856 260.28 63.6856 260.28C65.4056 260.28 67.0256 261.62 67.0256 263.98ZM71.5603 263.98C71.5603 267.44 73.8003 269.68 76.9603 269.68C79.6603 269.68 81.4203 268.18 82.0403 266.02H79.5803C79.1603 267.16 78.3203 267.76 76.9603 267.76C75.1203 267.76 73.9003 266.4 73.9003 263.98C73.9003 261.58 75.1203 260.22 76.9603 260.22C78.3203 260.22 79.2003 260.9 79.5803 261.96H82.0403C81.4203 259.64 79.6603 258.3 76.9603 258.3C73.8003 258.3 71.5603 260.54 71.5603 263.98ZM84.3125 269.5H86.5925V263.34C86.5925 261.32 87.6925 260.28 89.3725 260.28C91.0325 260.28 92.1325 261.32 92.1325 263.34V269.5H94.3925V263C94.3925 259.92 92.4725 258.3 90.0125 258.3C88.5925 258.3 87.3525 258.84 86.5925 259.76V254.7H84.3125V269.5ZM97.3008 269.5H99.5808V258.48H97.3008V269.5ZM98.4608 257.02C99.2608 257.02 99.9008 256.38 99.9008 255.56C99.9008 254.74 99.2608 254.1 98.4608 254.1C97.6408 254.1 97.0008 254.74 97.0008 255.56C97.0008 256.38 97.6408 257.02 98.4608 257.02ZM110.394 269.5H112.654V263C112.654 259.92 110.714 258.3 108.134 258.3C106.814 258.3 105.594 258.84 104.854 259.74V258.48H102.574V269.5H104.854V263.34C104.854 261.32 105.954 260.28 107.634 260.28C109.294 260.28 110.394 261.32 110.394 263.34V269.5ZM120.203 260.22C121.903 260.22 123.243 261.3 123.283 263H117.183C117.423 261.26 118.663 260.22 120.203 260.22ZM125.362 266.22H122.903C122.483 267.08 121.703 267.76 120.303 267.76C118.623 267.76 117.323 266.66 117.163 264.84H125.583C125.643 264.46 125.663 264.1 125.663 263.72C125.663 260.48 123.443 258.3 120.303 258.3C117.043 258.3 114.803 260.52 114.803 263.98C114.803 267.44 117.143 269.68 120.303 269.68C123.003 269.68 124.743 268.14 125.362 266.22ZM133.102 255.6V269.5H140.082V267.66H135.382V255.6H133.102ZM146.628 260.22C148.328 260.22 149.668 261.3 149.708 263H143.608C143.848 261.26 145.088 260.22 146.628 260.22ZM151.788 266.22H149.328C148.908 267.08 148.128 267.76 146.728 267.76C145.048 267.76 143.748 266.66 143.588 264.84H152.008C152.068 264.46 152.088 264.1 152.088 263.72C152.088 260.48 149.868 258.3 146.728 258.3C143.468 258.3 141.228 260.52 141.228 263.98C141.228 267.44 143.568 269.68 146.728 269.68C149.428 269.68 151.168 268.14 151.788 266.22ZM153.572 263.94C153.572 267.34 155.872 269.68 158.732 269.68C160.572 269.68 161.892 268.8 162.592 267.86V269.5H164.892V258.48H162.592V260.08C161.912 259.18 160.632 258.3 158.772 258.3C155.872 258.3 153.572 260.54 153.572 263.94ZM162.592 263.98C162.592 266.36 160.972 267.7 159.252 267.7C157.552 267.7 155.912 266.32 155.912 263.94C155.912 261.56 157.552 260.28 159.252 260.28C160.972 260.28 162.592 261.62 162.592 263.98ZM170.167 263.7C170.167 261.36 171.207 260.66 172.887 260.66H173.467V258.3C171.907 258.3 170.807 258.98 170.167 260.08V258.48H167.887V269.5H170.167V263.7ZM183.383 269.5H185.643V263C185.643 259.92 183.703 258.3 181.123 258.3C179.803 258.3 178.583 258.84 177.843 259.74V258.48H175.563V269.5H177.843V263.34C177.843 261.32 178.943 260.28 180.623 260.28C182.283 260.28 183.383 261.32 183.383 263.34V269.5ZM188.551 269.5H190.831V258.48H188.551V269.5ZM189.711 257.02C190.511 257.02 191.151 256.38 191.151 255.56C191.151 254.74 190.511 254.1 189.711 254.1C188.891 254.1 188.251 254.74 188.251 255.56C188.251 256.38 188.891 257.02 189.711 257.02ZM201.644 269.5H203.904V263C203.904 259.92 201.964 258.3 199.384 258.3C198.064 258.3 196.844 258.84 196.104 259.74V258.48H193.824V269.5H196.104V263.34C196.104 261.32 197.204 260.28 198.884 260.28C200.544 260.28 201.644 261.32 201.644 263.34V269.5ZM206.053 263.94C206.053 267.34 208.353 269.68 211.253 269.68C213.053 269.68 214.373 268.78 215.073 267.84V269.68C215.073 271.88 213.753 272.96 211.993 272.96C210.413 272.96 209.193 272.18 208.853 271.04H206.593C206.873 273.48 209.053 274.94 211.993 274.94C215.433 274.94 217.373 272.68 217.373 269.68V258.48H215.073V260.08C214.393 259.14 213.053 258.3 211.253 258.3C208.353 258.3 206.053 260.54 206.053 263.94ZM215.073 263.98C215.073 266.36 213.453 267.7 211.733 267.7C210.033 267.7 208.393 266.32 208.393 263.94C208.393 261.56 210.033 260.28 211.733 260.28C213.453 260.28 215.073 261.62 215.073 263.98ZM225.563 255.6V269.5H232.543V267.66H227.843V255.6H225.563ZM234.449 269.5H236.729V258.48H234.449V269.5ZM235.609 257.02C236.409 257.02 237.049 256.38 237.049 255.56C237.049 254.74 236.409 254.1 235.609 254.1C234.789 254.1 234.149 254.74 234.149 255.56C234.149 256.38 234.789 257.02 235.609 257.02ZM238.423 258.48L242.603 269.5H245.323L249.523 258.48H247.103L243.983 267.46L240.863 258.48H238.423ZM255.886 260.22C257.586 260.22 258.926 261.3 258.966 263H252.866C253.106 261.26 254.346 260.22 255.886 260.22ZM261.046 266.22H258.586C258.166 267.08 257.386 267.76 255.986 267.76C254.306 267.76 253.006 266.66 252.846 264.84H261.266C261.326 264.46 261.346 264.1 261.346 263.72C261.346 260.48 259.126 258.3 255.986 258.3C252.726 258.3 250.486 260.52 250.486 263.98C250.486 267.44 252.826 269.68 255.986 269.68C258.686 269.68 260.426 268.14 261.046 266.22ZM271.065 262V257.46H273.585C275.365 257.46 276.165 258.3 276.165 259.74C276.165 261.14 275.365 262 273.585 262H271.065ZM278.505 259.74C278.505 257.48 276.885 255.6 273.585 255.6H268.785V269.5H271.065V263.86H273.585C277.205 263.86 278.505 261.72 278.505 259.74ZM282.96 263.7C282.96 261.36 284 260.66 285.68 260.66H286.26V258.3C284.7 258.3 283.6 258.98 282.96 260.08V258.48H280.68V269.5H282.96V263.7ZM298.855 263.98C298.855 260.52 296.375 258.3 293.235 258.3C290.095 258.3 287.615 260.52 287.615 263.98C287.615 267.44 289.995 269.68 293.135 269.68C296.295 269.68 298.855 267.44 298.855 263.98ZM289.935 263.98C289.935 261.48 291.475 260.28 293.195 260.28C294.895 260.28 296.515 261.48 296.515 263.98C296.515 266.48 294.835 267.7 293.135 267.7C291.415 267.7 289.935 266.48 289.935 263.98ZM302.269 257.02C303.069 257.02 303.709 256.38 303.709 255.56C303.709 254.74 303.069 254.1 302.269 254.1C301.449 254.1 300.809 254.74 300.809 255.56C300.809 256.38 301.449 257.02 302.269 257.02ZM301.109 258.48V271.66C301.109 272.48 300.789 272.82 299.829 272.82H299.049V274.74H300.229C302.189 274.74 303.389 273.9 303.389 271.66V258.48H301.109ZM311.023 260.22C312.723 260.22 314.063 261.3 314.103 263H308.003C308.243 261.26 309.483 260.22 311.023 260.22ZM316.183 266.22H313.723C313.303 267.08 312.523 267.76 311.123 267.76C309.443 267.76 308.143 266.66 307.983 264.84H316.403C316.463 264.46 316.483 264.1 316.483 263.72C316.483 260.48 314.263 258.3 311.123 258.3C307.863 258.3 305.623 260.52 305.623 263.98C305.623 267.44 307.963 269.68 311.123 269.68C313.823 269.68 315.563 268.14 316.183 266.22ZM317.967 263.98C317.967 267.44 320.207 269.68 323.367 269.68C326.067 269.68 327.827 268.18 328.447 266.02H325.987C325.567 267.16 324.727 267.76 323.367 267.76C321.527 267.76 320.307 266.4 320.307 263.98C320.307 261.58 321.527 260.22 323.367 260.22C324.727 260.22 325.607 260.9 325.987 261.96H328.447C327.827 259.64 326.067 258.3 323.367 258.3C320.207 258.3 317.967 260.54 317.967 263.98ZM331.079 266.44C331.079 268.68 332.299 269.5 334.259 269.5H336.059V267.6H334.659C333.699 267.6 333.379 267.26 333.379 266.44V260.34H336.059V258.48H333.379V255.74H331.079V258.48H329.779V260.34H331.079V266.44Z" fill="#212832"/>
<rect x="0.5" y="237.5" width="616" height="49" stroke="black" stroke-opacity="0.5"/>
<rect width="617" height="58" fill="#3498DB"/>
<path d="M33.925 32.95C33.925 26.8 24.975 28.75 24.975 25.25C24.975 23.825 26 23.15 27.375 23.2C28.875 23.225 29.8 24.125 29.875 25.275H33.725C33.5 22.125 31.05 20.3 27.475 20.3C23.875 20.3 21.325 22.2 21.325 25.35C21.3 31.675 30.3 29.4 30.3 33.175C30.3 34.425 29.325 35.3 27.675 35.3C26.05 35.3 25.125 34.375 25.025 32.975H21.275C21.325 36.275 24.125 38.175 27.75 38.175C31.725 38.175 33.925 35.7 33.925 32.95ZM43.4094 26.8C45.2094 26.8 46.6594 27.95 46.7094 29.775H40.1344C40.4094 27.875 41.7344 26.8 43.4094 26.8ZM49.9844 33.65H46.2094C45.7594 34.575 44.9344 35.325 43.4344 35.325C41.6844 35.325 40.2844 34.175 40.1094 32.125H50.2344C50.3094 31.675 50.3344 31.225 50.3344 30.775C50.3344 26.65 47.5094 23.925 43.5094 23.925C39.4094 23.925 36.5594 26.7 36.5594 31.075C36.5594 35.425 39.4844 38.225 43.5094 38.225C46.9344 38.225 49.2344 36.2 49.9844 33.65ZM72.7641 38H76.2641V29.875C76.2641 26.05 73.9141 23.95 70.5891 23.95C68.5641 23.95 66.7391 25.025 65.8391 26.6C64.8891 24.875 63.1141 23.95 60.9641 23.95C59.2391 23.95 57.7641 24.675 56.8891 25.825V24.15H53.3891V38H56.8891V30.35C56.8891 28.15 58.1141 27 60.0141 27C61.8641 27 63.0891 28.15 63.0891 30.35V38H66.5891V30.35C66.5891 28.15 67.8141 27 69.6891 27C71.5391 27 72.7641 28.15 72.7641 30.35V38ZM86.0354 26.8C87.8354 26.8 89.2854 27.95 89.3354 29.775H82.7604C83.0354 27.875 84.3604 26.8 86.0354 26.8ZM92.6104 33.65H88.8354C88.3854 34.575 87.5604 35.325 86.0604 35.325C84.3104 35.325 82.9104 34.175 82.7354 32.125H92.8604C92.9354 31.675 92.9604 31.225 92.9604 30.775C92.9604 26.65 90.1354 23.925 86.1354 23.925C82.0354 23.925 79.1854 26.7 79.1854 31.075C79.1854 35.425 82.1104 38.225 86.1354 38.225C89.5604 38.225 91.8604 36.2 92.6104 33.65ZM106.765 34.05C106.665 28.975 98.99 30.55 98.99 28.025C98.99 27.225 99.665 26.7 100.965 26.7C102.34 26.7 103.19 27.425 103.29 28.5H106.64C106.44 25.75 104.415 23.925 101.065 23.925C97.64 23.925 95.59 25.775 95.59 28.075C95.59 33.15 103.415 31.575 103.415 34.05C103.415 34.85 102.665 35.475 101.29 35.475C99.89 35.475 98.915 34.675 98.79 33.625H95.265C95.415 36.2 97.84 38.225 101.315 38.225C104.69 38.225 106.765 36.425 106.765 34.05ZM110.688 33.7C110.688 36.875 112.463 38 115.113 38H117.313V35.05H115.688C114.588 35.05 114.213 34.65 114.213 33.725V27.025H117.313V24.15H114.213V20.725H110.688V24.15H109.038V27.025H110.688V33.7ZM126.28 26.8C128.08 26.8 129.53 27.95 129.58 29.775H123.005C123.28 27.875 124.605 26.8 126.28 26.8ZM132.855 33.65H129.08C128.63 34.575 127.805 35.325 126.305 35.325C124.555 35.325 123.155 34.175 122.98 32.125H133.105C133.18 31.675 133.205 31.225 133.205 30.775C133.205 26.65 130.38 23.925 126.38 23.925C122.28 23.925 119.43 26.7 119.43 31.075C119.43 35.425 122.355 38.225 126.38 38.225C129.805 38.225 132.105 36.2 132.855 33.65ZM139.76 31.1C139.76 28.425 141.01 27.625 143.085 27.625H144.01V23.95C142.085 23.95 140.635 24.875 139.76 26.3V24.15H136.26V38H139.76V31.1ZM165.625 24.325C165.35 21.75 163.6 19.35 159.875 19.35C155.25 19.35 153.325 22.65 153.325 28.6C153.325 34.25 154.675 38.05 160.075 38.05C163.975 38.05 166.15 35.475 166.15 31.95C166.15 28.15 163.875 26 160.625 26C158.85 26 157.2 26.75 156.375 28.125C156.425 23.925 157.475 22.225 159.75 22.225C161.325 22.225 162.05 22.975 162.375 24.325H165.625ZM159.825 28.875C161.85 28.875 162.825 30.15 162.825 32.025C162.825 33.9 161.7 35.075 159.9 35.075C157.85 35.075 156.7 33.85 156.7 31.9C156.7 29.825 158.2 28.875 159.825 28.875Z" fill="white"/>
</svg>
