<svg width="617" height="344" viewBox="0 0 617 344" fill="none" xmlns="http://www.w3.org/2000/svg">
<rect y="66" width="617" height="50" fill="white"/>
<path d="M24.6 94.44C26.08 94.44 27.24 93.3 27.24 91.84C27.24 90.36 26.08 89.22 24.6 89.22C23.16 89.22 22 90.36 22 91.84C22 93.3 23.16 94.44 24.6 94.44ZM50.5089 98.5H52.9089L47.9289 84.58H45.2889L40.3089 98.5H42.6889L43.6889 95.66H49.5089L50.5089 98.5ZM48.8689 93.8H44.3289L46.6089 87.34L48.8689 93.8ZM55.0742 98.5H57.3542V84.6H55.0742V98.5ZM64.783 92.94C64.783 96.34 67.083 98.68 69.943 98.68C71.783 98.68 73.103 97.8 73.803 96.86V98.5H76.103V87.48H73.803V89.08C73.123 88.18 71.843 87.3 69.983 87.3C67.083 87.3 64.783 89.54 64.783 92.94ZM73.803 92.98C73.803 95.36 72.183 96.7 70.463 96.7C68.763 96.7 67.123 95.32 67.123 92.94C67.123 90.56 68.763 89.28 70.463 89.28C72.183 89.28 73.803 90.62 73.803 92.98ZM86.9177 98.5H89.1777V92C89.1777 88.92 87.2377 87.3 84.6577 87.3C83.3377 87.3 82.1177 87.84 81.3777 88.74V87.48H79.0977V98.5H81.3777V92.34C81.3777 90.32 82.4777 89.28 84.1577 89.28C85.8177 89.28 86.9177 90.32 86.9177 92.34V98.5ZM91.3259 92.94C91.3259 96.34 93.6259 98.68 96.5259 98.68C98.3259 98.68 99.6459 97.84 100.346 96.84V98.5H102.646V83.7H100.346V89.02C99.5059 87.98 97.9859 87.3 96.5459 87.3C93.6259 87.3 91.3259 89.54 91.3259 92.94ZM100.346 92.98C100.346 95.36 98.7259 96.7 97.0059 96.7C95.3059 96.7 93.6659 95.32 93.6659 92.94C93.6659 90.56 95.3059 89.28 97.0059 89.28C98.7259 89.28 100.346 90.62 100.346 92.98ZM118.496 98.5H121.476L115.336 91.56L121.376 84.6H118.516L113.116 90.94V84.6H110.836V98.5H113.116V92.28L118.496 98.5ZM131.312 98.5H133.572V92C133.572 88.92 131.632 87.3 129.052 87.3C127.732 87.3 126.512 87.84 125.772 88.74V87.48H123.492V98.5H125.772V92.34C125.772 90.32 126.872 89.28 128.552 89.28C130.212 89.28 131.312 90.32 131.312 92.34V98.5ZM146.98 92.98C146.98 89.52 144.5 87.3 141.36 87.3C138.22 87.3 135.74 89.52 135.74 92.98C135.74 96.44 138.12 98.68 141.26 98.68C144.42 98.68 146.98 96.44 146.98 92.98ZM138.06 92.98C138.06 90.48 139.6 89.28 141.32 89.28C143.02 89.28 144.64 90.48 144.64 92.98C144.64 95.48 142.96 96.7 141.26 96.7C139.54 96.7 138.06 95.48 138.06 92.98ZM151.374 98.5H153.774L155.994 90.36L158.214 98.5H160.614L164.034 87.48H161.794L159.514 96.3L157.274 87.48H154.894L152.554 96.34L150.254 87.48H147.934L151.374 98.5ZM165.738 98.5H168.018V83.7H165.738V98.5ZM175.652 89.22C177.352 89.22 178.692 90.3 178.732 92H172.632C172.872 90.26 174.112 89.22 175.652 89.22ZM180.812 95.22H178.352C177.932 96.08 177.152 96.76 175.752 96.76C174.072 96.76 172.772 95.66 172.612 93.84H181.032C181.092 93.46 181.112 93.1 181.112 92.72C181.112 89.48 178.892 87.3 175.752 87.3C172.492 87.3 170.252 89.52 170.252 92.98C170.252 96.44 172.592 98.68 175.752 98.68C178.452 98.68 180.192 97.14 180.812 95.22ZM182.595 92.94C182.595 96.34 184.895 98.68 187.795 98.68C189.595 98.68 190.915 97.84 191.615 96.84V98.5H193.915V83.7H191.615V89.02C190.775 87.98 189.255 87.3 187.815 87.3C184.895 87.3 182.595 89.54 182.595 92.94ZM191.615 92.98C191.615 95.36 189.995 96.7 188.275 96.7C186.575 96.7 184.935 95.32 184.935 92.94C184.935 90.56 186.575 89.28 188.275 89.28C189.995 89.28 191.615 90.62 191.615 92.98ZM196.15 92.94C196.15 96.34 198.45 98.68 201.35 98.68C203.15 98.68 204.47 97.78 205.17 96.84V98.68C205.17 100.88 203.85 101.96 202.09 101.96C200.51 101.96 199.29 101.18 198.95 100.04H196.69C196.97 102.48 199.15 103.94 202.09 103.94C205.53 103.94 207.47 101.68 207.47 98.68V87.48H205.17V89.08C204.49 88.14 203.15 87.3 201.35 87.3C198.45 87.3 196.15 89.54 196.15 92.94ZM205.17 92.98C205.17 95.36 203.55 96.7 201.83 96.7C200.13 96.7 198.49 95.32 198.49 92.94C198.49 90.56 200.13 89.28 201.83 89.28C203.55 89.28 205.17 90.62 205.17 92.98ZM215.105 89.22C216.805 89.22 218.145 90.3 218.185 92H212.085C212.325 90.26 213.565 89.22 215.105 89.22ZM220.265 95.22H217.805C217.385 96.08 216.605 96.76 215.205 96.76C213.525 96.76 212.225 95.66 212.065 93.84H220.485C220.545 93.46 220.565 93.1 220.565 92.72C220.565 89.48 218.345 87.3 215.205 87.3C211.945 87.3 209.705 89.52 209.705 92.98C209.705 96.44 212.045 98.68 215.205 98.68C217.905 98.68 219.645 97.14 220.265 95.22ZM235.384 88.76C235.384 90.14 234.584 91.12 232.804 91.12H230.284V86.46H232.804C234.584 86.46 235.384 87.36 235.384 88.76ZM228.004 84.6V98.5H230.284V92.94H232.024L235.224 98.5H237.944L234.504 92.74C236.844 92.16 237.724 90.4 237.724 88.76C237.724 86.5 236.104 84.6 232.804 84.6H228.004ZM245.281 89.22C246.981 89.22 248.321 90.3 248.361 92H242.261C242.501 90.26 243.741 89.22 245.281 89.22ZM250.441 95.22H247.981C247.561 96.08 246.781 96.76 245.381 96.76C243.701 96.76 242.401 95.66 242.241 93.84H250.661C250.721 93.46 250.741 93.1 250.741 92.72C250.741 89.48 248.521 87.3 245.381 87.3C242.121 87.3 239.881 89.52 239.881 92.98C239.881 96.44 242.221 98.68 245.381 98.68C248.081 98.68 249.821 97.14 250.441 95.22ZM255.264 89.1V87.48H252.984V103.74H255.264V96.9C255.984 97.76 257.284 98.68 259.104 98.68C262.004 98.68 264.284 96.34 264.284 92.94C264.284 89.54 262.004 87.3 259.104 87.3C257.304 87.3 255.964 88.18 255.264 89.1ZM261.964 92.94C261.964 95.32 260.324 96.7 258.604 96.7C256.904 96.7 255.264 95.36 255.264 92.98C255.264 90.62 256.904 89.28 258.604 89.28C260.324 89.28 261.964 90.56 261.964 92.94ZM268.819 92.7C268.819 90.36 269.859 89.66 271.539 89.66H272.119V87.3C270.559 87.3 269.459 87.98 268.819 89.08V87.48H266.539V98.5H268.819V92.7ZM278.855 89.22C280.555 89.22 281.895 90.3 281.935 92H275.835C276.075 90.26 277.315 89.22 278.855 89.22ZM284.015 95.22H281.555C281.135 96.08 280.355 96.76 278.955 96.76C277.275 96.76 275.975 95.66 275.815 93.84H284.235C284.295 93.46 284.315 93.1 284.315 92.72C284.315 89.48 282.095 87.3 278.955 87.3C275.695 87.3 273.455 89.52 273.455 92.98C273.455 96.44 275.795 98.68 278.955 98.68C281.655 98.68 283.395 97.14 284.015 95.22ZM294.779 95.42C294.659 91.44 288.439 92.68 288.439 90.46C288.439 89.72 289.079 89.22 290.299 89.22C291.539 89.22 292.279 89.88 292.359 90.84H294.639C294.519 88.64 292.879 87.3 290.379 87.3C287.779 87.3 286.139 88.72 286.139 90.48C286.139 94.52 292.539 93.28 292.539 95.44C292.539 96.2 291.839 96.76 290.519 96.76C289.259 96.76 288.399 96.02 288.319 95.12H285.959C286.059 97.12 287.919 98.68 290.559 98.68C293.159 98.68 294.779 97.28 294.779 95.42ZM301.882 89.22C303.582 89.22 304.922 90.3 304.962 92H298.862C299.102 90.26 300.342 89.22 301.882 89.22ZM307.042 95.22H304.582C304.162 96.08 303.382 96.76 301.982 96.76C300.302 96.76 299.002 95.66 298.842 93.84H307.262C307.322 93.46 307.342 93.1 307.342 92.72C307.342 89.48 305.122 87.3 301.982 87.3C298.722 87.3 296.482 89.52 296.482 92.98C296.482 96.44 298.822 98.68 301.982 98.68C304.682 98.68 306.422 97.14 307.042 95.22ZM317.406 98.5H319.666V92C319.666 88.92 317.726 87.3 315.146 87.3C313.826 87.3 312.606 87.84 311.866 88.74V87.48H309.586V98.5H311.866V92.34C311.866 90.32 312.966 89.28 314.646 89.28C316.306 89.28 317.406 90.32 317.406 92.34V98.5ZM322.934 95.44C322.934 97.68 324.154 98.5 326.114 98.5H327.914V96.6H326.514C325.554 96.6 325.234 96.26 325.234 95.44V89.34H327.914V87.48H325.234V84.74H322.934V87.48H321.634V89.34H322.934V95.44ZM329.256 92.94C329.256 96.34 331.556 98.68 334.416 98.68C336.256 98.68 337.576 97.8 338.276 96.86V98.5H340.576V87.48H338.276V89.08C337.596 88.18 336.316 87.3 334.456 87.3C331.556 87.3 329.256 89.54 329.256 92.94ZM338.276 92.98C338.276 95.36 336.656 96.7 334.936 96.7C333.236 96.7 331.596 95.32 331.596 92.94C331.596 90.56 333.236 89.28 334.936 89.28C336.656 89.28 338.276 90.62 338.276 92.98ZM343.93 95.44C343.93 97.68 345.15 98.5 347.11 98.5H348.91V96.6H347.51C346.55 96.6 346.23 96.26 346.23 95.44V89.34H348.91V87.48H346.23V84.74H343.93V87.48H342.63V89.34H343.93V95.44ZM351.012 98.5H353.292V87.48H351.012V98.5ZM352.172 86.02C352.972 86.02 353.612 85.38 353.612 84.56C353.612 83.74 352.972 83.1 352.172 83.1C351.352 83.1 350.712 83.74 350.712 84.56C350.712 85.38 351.352 86.02 352.172 86.02ZM366.785 92.98C366.785 89.52 364.305 87.3 361.165 87.3C358.025 87.3 355.545 89.52 355.545 92.98C355.545 96.44 357.925 98.68 361.065 98.68C364.225 98.68 366.785 96.44 366.785 92.98ZM357.865 92.98C357.865 90.48 359.405 89.28 361.125 89.28C362.825 89.28 364.445 90.48 364.445 92.98C364.445 95.48 362.765 96.7 361.065 96.7C359.345 96.7 357.865 95.48 357.865 92.98ZM376.859 98.5H379.119V92C379.119 88.92 377.179 87.3 374.599 87.3C373.279 87.3 372.059 87.84 371.319 88.74V87.48H369.039V98.5H371.319V92.34C371.319 90.32 372.419 89.28 374.099 89.28C375.759 89.28 376.859 90.32 376.859 92.34V98.5Z" fill="#212832"/>
<rect x="0.5" y="66.5" width="616" height="49" stroke="black" stroke-opacity="0.5"/>
<rect y="294" width="617" height="50" fill="white"/>
<path d="M24.6 322.44C26.08 322.44 27.24 321.3 27.24 319.84C27.24 318.36 26.08 317.22 24.6 317.22C23.16 317.22 22 318.36 22 319.84C22 321.3 23.16 322.44 24.6 322.44ZM41.1289 326.5H43.4089V316.98L47.6689 326.5H49.2489L53.4889 316.98V326.5H55.7689V312.6H53.3289L48.4689 323.5L43.5889 312.6H41.1289V326.5ZM58.0056 320.94C58.0056 324.34 60.3056 326.68 63.1656 326.68C65.0056 326.68 66.3256 325.8 67.0256 324.86V326.5H69.3256V315.48H67.0256V317.08C66.3456 316.18 65.0656 315.3 63.2056 315.3C60.3056 315.3 58.0056 317.54 58.0056 320.94ZM67.0256 320.98C67.0256 323.36 65.4056 324.7 63.6856 324.7C61.9856 324.7 60.3456 323.32 60.3456 320.94C60.3456 318.56 61.9856 317.28 63.6856 317.28C65.4056 317.28 67.0256 318.62 67.0256 320.98ZM73.4803 314.02C74.2803 314.02 74.9203 313.38 74.9203 312.56C74.9203 311.74 74.2803 311.1 73.4803 311.1C72.6603 311.1 72.0203 311.74 72.0203 312.56C72.0203 313.38 72.6603 314.02 73.4803 314.02ZM72.3203 315.48V328.66C72.3203 329.48 72.0003 329.82 71.0403 329.82H70.2603V331.74H71.4403C73.4003 331.74 74.6003 330.9 74.6003 328.66V315.48H72.3203ZM88.0938 320.98C88.0938 317.52 85.6138 315.3 82.4738 315.3C79.3338 315.3 76.8538 317.52 76.8538 320.98C76.8538 324.44 79.2338 326.68 82.3738 326.68C85.5338 326.68 88.0938 324.44 88.0938 320.98ZM79.1738 320.98C79.1738 318.48 80.7138 317.28 82.4338 317.28C84.1338 317.28 85.7538 318.48 85.7538 320.98C85.7538 323.48 84.0738 324.7 82.3738 324.7C80.6538 324.7 79.1738 323.48 79.1738 320.98ZM92.6277 320.7C92.6277 318.36 93.6677 317.66 95.3477 317.66H95.9277V315.3C94.3677 315.3 93.2677 315.98 92.6277 317.08V315.48H90.3477V326.5H92.6277V320.7ZM110.899 312.58H103.219V326.5H110.899V324.64H105.499V320.38H110.299V318.52H105.499V314.44H110.899V312.58ZM113.707 326.5H115.987V311.7H113.707V326.5ZM123.62 317.22C125.32 317.22 126.66 318.3 126.7 320H120.6C120.84 318.26 122.08 317.22 123.62 317.22ZM128.78 323.22H126.32C125.9 324.08 125.12 324.76 123.72 324.76C122.04 324.76 120.74 323.66 120.58 321.84H129C129.06 321.46 129.08 321.1 129.08 320.72C129.08 317.48 126.86 315.3 123.72 315.3C120.46 315.3 118.22 317.52 118.22 320.98C118.22 324.44 120.56 326.68 123.72 326.68C126.42 326.68 128.16 325.14 128.78 323.22ZM130.564 320.98C130.564 324.44 132.804 326.68 135.964 326.68C138.664 326.68 140.424 325.18 141.044 323.02H138.584C138.164 324.16 137.324 324.76 135.964 324.76C134.124 324.76 132.904 323.4 132.904 320.98C132.904 318.58 134.124 317.22 135.964 317.22C137.324 317.22 138.204 317.9 138.584 318.96H141.044C140.424 316.64 138.664 315.3 135.964 315.3C132.804 315.3 130.564 317.54 130.564 320.98ZM143.676 323.44C143.676 325.68 144.896 326.5 146.856 326.5H148.656V324.6H147.256C146.296 324.6 145.976 324.26 145.976 323.44V317.34H148.656V315.48H145.976V312.74H143.676V315.48H142.376V317.34H143.676V323.44ZM150.758 326.5H153.038V315.48H150.758V326.5ZM151.918 314.02C152.718 314.02 153.358 313.38 153.358 312.56C153.358 311.74 152.718 311.1 151.918 311.1C151.098 311.1 150.458 311.74 150.458 312.56C150.458 313.38 151.098 314.02 151.918 314.02ZM154.731 315.48L158.911 326.5H161.631L165.831 315.48H163.411L160.291 324.46L157.171 315.48H154.731ZM172.195 317.22C173.895 317.22 175.235 318.3 175.275 320H169.175C169.415 318.26 170.655 317.22 172.195 317.22ZM177.355 323.22H174.895C174.475 324.08 173.695 324.76 172.295 324.76C170.615 324.76 169.315 323.66 169.155 321.84H177.575C177.635 321.46 177.655 321.1 177.655 320.72C177.655 317.48 175.435 315.3 172.295 315.3C169.035 315.3 166.795 317.52 166.795 320.98C166.795 324.44 169.135 326.68 172.295 326.68C174.995 326.68 176.735 325.14 177.355 323.22Z" fill="#212832"/>
<rect x="0.5" y="294.5" width="616" height="49" stroke="black" stroke-opacity="0.5"/>
<rect y="180" width="617" height="50" fill="white"/>
<path d="M24.6 208.44C26.08 208.44 27.24 207.3 27.24 205.84C27.24 204.36 26.08 203.22 24.6 203.22C23.16 203.22 22 204.36 22 205.84C22 207.3 23.16 208.44 24.6 208.44ZM43.4089 205V200.46H45.9289C47.7089 200.46 48.5089 201.3 48.5089 202.74C48.5089 204.14 47.7089 205 45.9289 205H43.4089ZM50.8489 202.74C50.8489 200.48 49.2289 198.6 45.9289 198.6H41.1289V212.5H43.4089V206.86H45.9289C49.5489 206.86 50.8489 204.72 50.8489 202.74ZM55.3034 206.7C55.3034 204.36 56.3434 203.66 58.0234 203.66H58.6034V201.3C57.0434 201.3 55.9434 201.98 55.3034 203.08V201.48H53.0234V212.5H55.3034V206.7ZM71.1992 206.98C71.1992 203.52 68.7192 201.3 65.5792 201.3C62.4392 201.3 59.9592 203.52 59.9592 206.98C59.9592 210.44 62.3392 212.68 65.4792 212.68C68.6392 212.68 71.1992 210.44 71.1992 206.98ZM62.2792 206.98C62.2792 204.48 63.8192 203.28 65.5392 203.28C67.2392 203.28 68.8592 204.48 68.8592 206.98C68.8592 209.48 67.1792 210.7 65.4792 210.7C63.7592 210.7 62.2792 209.48 62.2792 206.98ZM72.6931 206.94C72.6931 210.34 74.9931 212.68 77.8931 212.68C79.6931 212.68 81.0131 211.78 81.7131 210.84V212.68C81.7131 214.88 80.3931 215.96 78.6331 215.96C77.0531 215.96 75.8331 215.18 75.4931 214.04H73.2331C73.5131 216.48 75.6931 217.94 78.6331 217.94C82.0731 217.94 84.0131 215.68 84.0131 212.68V201.48H81.7131V203.08C81.0331 202.14 79.6931 201.3 77.8931 201.3C74.9931 201.3 72.6931 203.54 72.6931 206.94ZM81.7131 206.98C81.7131 209.36 80.0931 210.7 78.3731 210.7C76.6731 210.7 75.0331 209.32 75.0331 206.94C75.0331 204.56 76.6731 203.28 78.3731 203.28C80.0931 203.28 81.7131 204.62 81.7131 206.98ZM89.2878 206.7C89.2878 204.36 90.3278 203.66 92.0078 203.66H92.5878V201.3C91.0278 201.3 89.9278 201.98 89.2878 203.08V201.48H87.0078V212.5H89.2878V206.7ZM93.9236 206.94C93.9236 210.34 96.2236 212.68 99.0836 212.68C100.924 212.68 102.244 211.8 102.944 210.86V212.5H105.244V201.48H102.944V203.08C102.264 202.18 100.984 201.3 99.1236 201.3C96.2236 201.3 93.9236 203.54 93.9236 206.94ZM102.944 206.98C102.944 209.36 101.324 210.7 99.6036 210.7C97.9036 210.7 96.2636 209.32 96.2636 206.94C96.2636 204.56 97.9036 203.28 99.6036 203.28C101.324 203.28 102.944 204.62 102.944 206.98ZM123.858 212.5H126.118V206C126.118 202.92 124.158 201.3 121.578 201.3C119.978 201.3 118.418 202.14 117.738 203.48C116.978 202.04 115.518 201.3 113.778 201.3C112.458 201.3 111.258 201.84 110.518 202.74V201.48H108.238V212.5H110.518V206.34C110.518 204.32 111.618 203.28 113.298 203.28C114.958 203.28 116.058 204.32 116.058 206.34V212.5H118.318V206.34C118.318 204.32 119.418 203.28 121.098 203.28C122.758 203.28 123.858 204.32 123.858 206.34V212.5ZM144.64 212.5H146.9V206C146.9 202.92 144.94 201.3 142.36 201.3C140.76 201.3 139.2 202.14 138.52 203.48C137.76 202.04 136.3 201.3 134.56 201.3C133.24 201.3 132.04 201.84 131.3 202.74V201.48H129.02V212.5H131.3V206.34C131.3 204.32 132.4 203.28 134.08 203.28C135.74 203.28 136.84 204.32 136.84 206.34V212.5H139.1V206.34C139.1 204.32 140.2 203.28 141.88 203.28C143.54 203.28 144.64 204.32 144.64 206.34V212.5ZM149.801 212.5H152.081V201.48H149.801V212.5ZM150.961 200.02C151.761 200.02 152.401 199.38 152.401 198.56C152.401 197.74 151.761 197.1 150.961 197.1C150.141 197.1 149.501 197.74 149.501 198.56C149.501 199.38 150.141 200.02 150.961 200.02ZM162.894 212.5H165.154V206C165.154 202.92 163.214 201.3 160.634 201.3C159.314 201.3 158.094 201.84 157.354 202.74V201.48H155.074V212.5H157.354V206.34C157.354 204.32 158.454 203.28 160.134 203.28C161.794 203.28 162.894 204.32 162.894 206.34V212.5ZM167.303 206.94C167.303 210.34 169.603 212.68 172.503 212.68C174.303 212.68 175.623 211.78 176.323 210.84V212.68C176.323 214.88 175.003 215.96 173.243 215.96C171.663 215.96 170.443 215.18 170.103 214.04H167.843C168.123 216.48 170.303 217.94 173.243 217.94C176.683 217.94 178.623 215.68 178.623 212.68V201.48H176.323V203.08C175.643 202.14 174.303 201.3 172.503 201.3C169.603 201.3 167.303 203.54 167.303 206.94ZM176.323 206.98C176.323 209.36 174.703 210.7 172.983 210.7C171.283 210.7 169.643 209.32 169.643 206.94C169.643 204.56 171.283 203.28 172.983 203.28C174.703 203.28 176.323 204.62 176.323 206.98ZM186.813 212.5H189.093V201.48H186.813V212.5ZM187.973 200.02C188.773 200.02 189.413 199.38 189.413 198.56C189.413 197.74 188.773 197.1 187.973 197.1C187.153 197.1 186.513 197.74 186.513 198.56C186.513 199.38 187.153 200.02 187.973 200.02ZM199.906 212.5H202.166V206C202.166 202.92 200.226 201.3 197.646 201.3C196.326 201.3 195.106 201.84 194.366 202.74V201.48H192.086V212.5H194.366V206.34C194.366 204.32 195.466 203.28 197.146 203.28C198.806 203.28 199.906 204.32 199.906 206.34V212.5ZM217.65 202.76C217.65 204.14 216.85 205.12 215.07 205.12H212.55V200.46H215.07C216.85 200.46 217.65 201.36 217.65 202.76ZM210.27 198.6V212.5H212.55V206.94H214.29L217.49 212.5H220.21L216.77 206.74C219.11 206.16 219.99 204.4 219.99 202.76C219.99 200.5 218.37 198.6 215.07 198.6H210.27Z" fill="#212832"/>
<rect x="0.5" y="180.5" width="616" height="49" stroke="black" stroke-opacity="0.5"/>
<rect y="123" width="617" height="50" fill="white"/>
<path d="M24.6 151.44C26.08 151.44 27.24 150.3 27.24 148.84C27.24 147.36 26.08 146.22 24.6 146.22C23.16 146.22 22 147.36 22 148.84C22 150.3 23.16 151.44 24.6 151.44ZM41.1289 155.5H43.4089V141.6H41.1289V155.5ZM54.2223 155.5H56.4823V149C56.4823 145.92 54.5423 144.3 51.9623 144.3C50.6423 144.3 49.4223 144.84 48.6823 145.74V144.48H46.4023V155.5H48.6823V149.34C48.6823 147.32 49.7823 146.28 51.4623 146.28C53.1223 146.28 54.2223 147.32 54.2223 149.34V155.5ZM59.7506 152.44C59.7506 154.68 60.9706 155.5 62.9306 155.5H64.7306V153.6H63.3306C62.3706 153.6 62.0506 153.26 62.0506 152.44V146.34H64.7306V144.48H62.0506V141.74H59.7506V144.48H58.4506V146.34H59.7506V152.44ZM69.112 149.7C69.112 147.36 70.152 146.66 71.832 146.66H72.412V144.3C70.852 144.3 69.752 144.98 69.112 146.08V144.48H66.832V155.5H69.112V149.7ZM85.0078 149.98C85.0078 146.52 82.5278 144.3 79.3878 144.3C76.2478 144.3 73.7678 146.52 73.7678 149.98C73.7678 153.44 76.1478 155.68 79.2878 155.68C82.4478 155.68 85.0078 153.44 85.0078 149.98ZM76.0878 149.98C76.0878 147.48 77.6278 146.28 79.3478 146.28C81.0478 146.28 82.6678 147.48 82.6678 149.98C82.6678 152.48 80.9878 153.7 79.2878 153.7C77.5678 153.7 76.0878 152.48 76.0878 149.98ZM86.5017 149.94C86.5017 153.34 88.8017 155.68 91.7017 155.68C93.5017 155.68 94.8217 154.84 95.5217 153.84V155.5H97.8217V140.7H95.5217V146.02C94.6817 144.98 93.1617 144.3 91.7217 144.3C88.8017 144.3 86.5017 146.54 86.5017 149.94ZM95.5217 149.98C95.5217 152.36 93.9017 153.7 92.1817 153.7C90.4817 153.7 88.8417 152.32 88.8417 149.94C88.8417 147.56 90.4817 146.28 92.1817 146.28C93.9017 146.28 95.5217 147.62 95.5217 149.98ZM110.796 144.48H108.516V150.62C108.516 152.64 107.416 153.68 105.736 153.68C104.076 153.68 102.976 152.64 102.976 150.62V144.48H100.716V150.96C100.716 154.04 102.676 155.66 105.256 155.66C106.556 155.66 107.796 155.12 108.516 154.18V155.5H110.796V144.48ZM113.045 149.98C113.045 153.44 115.285 155.68 118.445 155.68C121.145 155.68 122.905 154.18 123.525 152.02H121.065C120.645 153.16 119.805 153.76 118.445 153.76C116.605 153.76 115.385 152.4 115.385 149.98C115.385 147.58 116.605 146.22 118.445 146.22C119.805 146.22 120.685 146.9 121.065 147.96H123.525C122.905 145.64 121.145 144.3 118.445 144.3C115.285 144.3 113.045 146.54 113.045 149.98ZM126.157 152.44C126.157 154.68 127.377 155.5 129.337 155.5H131.137V153.6H129.737C128.777 153.6 128.457 153.26 128.457 152.44V146.34H131.137V144.48H128.457V141.74H126.157V144.48H124.857V146.34H126.157V152.44ZM133.238 155.5H135.518V144.48H133.238V155.5ZM134.398 143.02C135.198 143.02 135.838 142.38 135.838 141.56C135.838 140.74 135.198 140.1 134.398 140.1C133.578 140.1 132.938 140.74 132.938 141.56C132.938 142.38 133.578 143.02 134.398 143.02ZM149.012 149.98C149.012 146.52 146.532 144.3 143.392 144.3C140.252 144.3 137.772 146.52 137.772 149.98C137.772 153.44 140.152 155.68 143.292 155.68C146.452 155.68 149.012 153.44 149.012 149.98ZM140.092 149.98C140.092 147.48 141.632 146.28 143.352 146.28C145.052 146.28 146.672 147.48 146.672 149.98C146.672 152.48 144.992 153.7 143.292 153.7C141.572 153.7 140.092 152.48 140.092 149.98ZM159.086 155.5H161.346V149C161.346 145.92 159.406 144.3 156.826 144.3C155.506 144.3 154.286 144.84 153.546 145.74V144.48H151.266V155.5H153.546V149.34C153.546 147.32 154.646 146.28 156.326 146.28C157.986 146.28 159.086 147.32 159.086 149.34V155.5ZM169.809 152.44C169.809 154.68 171.029 155.5 172.989 155.5H174.789V153.6H173.389C172.429 153.6 172.109 153.26 172.109 152.44V146.34H174.789V144.48H172.109V141.74H169.809V144.48H168.509V146.34H169.809V152.44ZM187.391 149.98C187.391 146.52 184.911 144.3 181.771 144.3C178.631 144.3 176.151 146.52 176.151 149.98C176.151 153.44 178.531 155.68 181.671 155.68C184.831 155.68 187.391 153.44 187.391 149.98ZM178.471 149.98C178.471 147.48 180.011 146.28 181.731 146.28C183.431 146.28 185.051 147.48 185.051 149.98C185.051 152.48 183.371 153.7 181.671 153.7C179.951 153.7 178.471 152.48 178.471 149.98ZM194.84 155.5H197.12V145.98L201.38 155.5H202.96L207.2 145.98V155.5H209.48V141.6H207.04L202.18 152.5L197.3 141.6H194.84V155.5ZM211.717 149.94C211.717 153.34 214.017 155.68 216.877 155.68C218.717 155.68 220.037 154.8 220.737 153.86V155.5H223.037V144.48H220.737V146.08C220.057 145.18 218.777 144.3 216.917 144.3C214.017 144.3 211.717 146.54 211.717 149.94ZM220.737 149.98C220.737 152.36 219.117 153.7 217.397 153.7C215.697 153.7 214.057 152.32 214.057 149.94C214.057 147.56 215.697 146.28 217.397 146.28C219.117 146.28 220.737 147.62 220.737 149.98ZM225.271 149.98C225.271 153.44 227.511 155.68 230.671 155.68C233.371 155.68 235.131 154.18 235.751 152.02H233.291C232.871 153.16 232.031 153.76 230.671 153.76C228.831 153.76 227.611 152.4 227.611 149.98C227.611 147.58 228.831 146.22 230.671 146.22C232.031 146.22 232.911 146.9 233.291 147.96H235.751C235.131 145.64 233.371 144.3 230.671 144.3C227.511 144.3 225.271 146.54 225.271 149.98ZM238.023 155.5H240.303V149.34C240.303 147.32 241.403 146.28 243.083 146.28C244.743 146.28 245.843 147.32 245.843 149.34V155.5H248.103V149C248.103 145.92 246.183 144.3 243.723 144.3C242.303 144.3 241.063 144.84 240.303 145.76V140.7H238.023V155.5ZM251.012 155.5H253.292V144.48H251.012V155.5ZM252.172 143.02C252.972 143.02 253.612 142.38 253.612 141.56C253.612 140.74 252.972 140.1 252.172 140.1C251.352 140.1 250.712 140.74 250.712 141.56C250.712 142.38 251.352 143.02 252.172 143.02ZM264.105 155.5H266.365V149C266.365 145.92 264.425 144.3 261.845 144.3C260.525 144.3 259.305 144.84 258.565 145.74V144.48H256.285V155.5H258.565V149.34C258.565 147.32 259.665 146.28 261.345 146.28C263.005 146.28 264.105 147.32 264.105 149.34V155.5ZM273.913 146.22C275.613 146.22 276.953 147.3 276.993 149H270.893C271.133 147.26 272.373 146.22 273.913 146.22ZM279.073 152.22H276.613C276.193 153.08 275.413 153.76 274.013 153.76C272.333 153.76 271.033 152.66 270.873 150.84H279.293C279.353 150.46 279.373 150.1 279.373 149.72C279.373 146.48 277.153 144.3 274.013 144.3C270.753 144.3 268.513 146.52 268.513 149.98C268.513 153.44 270.853 155.68 274.013 155.68C276.713 155.68 278.453 154.14 279.073 152.22ZM286.813 141.6V155.5H293.793V153.66H289.093V141.6H286.813ZM300.339 146.22C302.039 146.22 303.379 147.3 303.419 149H297.319C297.559 147.26 298.799 146.22 300.339 146.22ZM305.499 152.22H303.039C302.619 153.08 301.839 153.76 300.439 153.76C298.759 153.76 297.459 152.66 297.299 150.84H305.719C305.779 150.46 305.799 150.1 305.799 149.72C305.799 146.48 303.579 144.3 300.439 144.3C297.179 144.3 294.939 146.52 294.939 149.98C294.939 153.44 297.279 155.68 300.439 155.68C303.139 155.68 304.879 154.14 305.499 152.22ZM307.283 149.94C307.283 153.34 309.583 155.68 312.443 155.68C314.283 155.68 315.603 154.8 316.303 153.86V155.5H318.603V144.48H316.303V146.08C315.623 145.18 314.343 144.3 312.483 144.3C309.583 144.3 307.283 146.54 307.283 149.94ZM316.303 149.98C316.303 152.36 314.683 153.7 312.963 153.7C311.263 153.7 309.623 152.32 309.623 149.94C309.623 147.56 311.263 146.28 312.963 146.28C314.683 146.28 316.303 147.62 316.303 149.98ZM323.878 149.7C323.878 147.36 324.918 146.66 326.598 146.66H327.178V144.3C325.618 144.3 324.518 144.98 323.878 146.08V144.48H321.598V155.5H323.878V149.7ZM337.093 155.5H339.353V149C339.353 145.92 337.413 144.3 334.833 144.3C333.513 144.3 332.293 144.84 331.553 145.74V144.48H329.273V155.5H331.553V149.34C331.553 147.32 332.653 146.28 334.333 146.28C335.993 146.28 337.093 147.32 337.093 149.34V155.5ZM342.262 155.5H344.542V144.48H342.262V155.5ZM343.422 143.02C344.222 143.02 344.862 142.38 344.862 141.56C344.862 140.74 344.222 140.1 343.422 140.1C342.602 140.1 341.962 140.74 341.962 141.56C341.962 142.38 342.602 143.02 343.422 143.02ZM355.355 155.5H357.615V149C357.615 145.92 355.675 144.3 353.095 144.3C351.775 144.3 350.555 144.84 349.815 145.74V144.48H347.535V155.5H349.815V149.34C349.815 147.32 350.915 146.28 352.595 146.28C354.255 146.28 355.355 147.32 355.355 149.34V155.5ZM359.763 149.94C359.763 153.34 362.063 155.68 364.963 155.68C366.763 155.68 368.083 154.78 368.783 153.84V155.68C368.783 157.88 367.463 158.96 365.703 158.96C364.123 158.96 362.903 158.18 362.563 157.04H360.303C360.583 159.48 362.763 160.94 365.703 160.94C369.143 160.94 371.083 158.68 371.083 155.68V144.48H368.783V146.08C368.103 145.14 366.763 144.3 364.963 144.3C362.063 144.3 359.763 146.54 359.763 149.94ZM368.783 149.98C368.783 152.36 367.163 153.7 365.443 153.7C363.743 153.7 362.103 152.32 362.103 149.94C362.103 147.56 363.743 146.28 365.443 146.28C367.163 146.28 368.783 147.62 368.783 149.98Z" fill="#212832"/>
<rect x="0.5" y="123.5" width="616" height="49" stroke="black" stroke-opacity="0.5"/>
<rect y="237" width="617" height="50" fill="white"/>
<path d="M24.6 265.44C26.08 265.44 27.24 264.3 27.24 262.84C27.24 261.36 26.08 260.22 24.6 260.22C23.16 260.22 22 261.36 22 262.84C22 264.3 23.16 265.44 24.6 265.44ZM50.5089 265.56C50.5089 260.48 43.1489 262.44 43.1489 259.3C43.1489 257.96 44.1689 257.32 45.4889 257.36C46.9289 257.4 47.7489 258.26 47.8289 259.2H50.3489C50.1489 256.82 48.2689 255.42 45.6089 255.42C42.7689 255.42 40.8289 256.94 40.8289 259.38C40.8289 264.5 48.2089 262.32 48.2089 265.68C48.2089 266.86 47.3089 267.72 45.7089 267.72C44.1289 267.72 43.3289 266.8 43.2289 265.66H40.7889C40.7889 268.12 42.9289 269.64 45.7089 269.64C48.8089 269.64 50.5089 267.64 50.5089 265.56ZM53.1992 269.5H55.4792V264.76L59.5592 269.5H62.6392L57.5592 264L62.6392 258.48H59.4792L55.4792 263.3V254.7H53.1992V269.5ZM64.2734 269.5H66.5534V258.48H64.2734V269.5ZM65.4334 257.02C66.2334 257.02 66.8734 256.38 66.8734 255.56C66.8734 254.74 66.2334 254.1 65.4334 254.1C64.6134 254.1 63.9734 254.74 63.9734 255.56C63.9734 256.38 64.6134 257.02 65.4334 257.02ZM69.5469 269.5H71.8269V254.7H69.5469V269.5ZM74.8203 269.5H77.1003V254.7H74.8203V269.5ZM93.1291 265.52C93.1291 266.86 92.1891 267.64 90.6491 267.64H87.5691V263.3H90.5691C92.0891 263.3 93.1291 264.14 93.1291 265.52ZM92.7691 259.46C92.7691 260.74 91.8691 261.44 90.3891 261.44H87.5691V257.46H90.3891C91.8691 257.46 92.7691 258.2 92.7691 259.46ZM95.4091 265.76C95.4091 264.1 94.2091 262.62 92.7291 262.36C94.0691 261.88 95.0891 260.86 95.0891 259.18C95.0891 257.22 93.5291 255.6 90.5891 255.6H85.2891V269.5H90.8491C93.6891 269.5 95.4091 267.88 95.4091 265.76ZM97.1267 263.94C97.1267 267.34 99.4267 269.68 102.287 269.68C104.127 269.68 105.447 268.8 106.147 267.86V269.5H108.447V258.48H106.147V260.08C105.467 259.18 104.187 258.3 102.327 258.3C99.4267 258.3 97.1267 260.54 97.1267 263.94ZM106.147 263.98C106.147 266.36 104.527 267.7 102.807 267.7C101.107 267.7 99.4667 266.32 99.4667 263.94C99.4667 261.56 101.107 260.28 102.807 260.28C104.527 260.28 106.147 261.62 106.147 263.98ZM119.661 266.42C119.541 262.44 113.321 263.68 113.321 261.46C113.321 260.72 113.961 260.22 115.181 260.22C116.421 260.22 117.161 260.88 117.241 261.84H119.521C119.401 259.64 117.761 258.3 115.261 258.3C112.661 258.3 111.021 259.72 111.021 261.48C111.021 265.52 117.421 264.28 117.421 266.44C117.421 267.2 116.721 267.76 115.401 267.76C114.141 267.76 113.281 267.02 113.201 266.12H110.841C110.941 268.12 112.801 269.68 115.441 269.68C118.041 269.68 119.661 268.28 119.661 266.42ZM126.765 260.22C128.465 260.22 129.805 261.3 129.845 263H123.745C123.985 261.26 125.225 260.22 126.765 260.22ZM131.925 266.22H129.465C129.045 267.08 128.265 267.76 126.865 267.76C125.185 267.76 123.885 266.66 123.725 264.84H132.145C132.205 264.46 132.225 264.1 132.225 263.72C132.225 260.48 130.005 258.3 126.865 258.3C123.605 258.3 121.365 260.52 121.365 263.98C121.365 267.44 123.705 269.68 126.865 269.68C129.565 269.68 131.305 268.14 131.925 266.22ZM133.709 263.94C133.709 267.34 136.009 269.68 138.909 269.68C140.709 269.68 142.029 268.84 142.729 267.84V269.5H145.029V254.7H142.729V260.02C141.889 258.98 140.369 258.3 138.929 258.3C136.009 258.3 133.709 260.54 133.709 263.94ZM142.729 263.98C142.729 266.36 141.109 267.7 139.389 267.7C137.689 267.7 136.049 266.32 136.049 263.94C136.049 261.56 137.689 260.28 139.389 260.28C141.109 260.28 142.729 261.62 142.729 263.98ZM155.499 262V257.46H158.019C159.799 257.46 160.599 258.3 160.599 259.74C160.599 261.14 159.799 262 158.019 262H155.499ZM162.939 259.74C162.939 257.48 161.319 255.6 158.019 255.6H153.219V269.5H155.499V263.86H158.019C161.639 263.86 162.939 261.72 162.939 259.74ZM167.393 263.7C167.393 261.36 168.433 260.66 170.113 260.66H170.693V258.3C169.133 258.3 168.033 258.98 167.393 260.08V258.48H165.113V269.5H167.393V263.7ZM183.289 263.98C183.289 260.52 180.809 258.3 177.669 258.3C174.529 258.3 172.049 260.52 172.049 263.98C172.049 267.44 174.429 269.68 177.569 269.68C180.729 269.68 183.289 267.44 183.289 263.98ZM174.369 263.98C174.369 261.48 175.909 260.28 177.629 260.28C179.329 260.28 180.949 261.48 180.949 263.98C180.949 266.48 179.269 267.7 177.569 267.7C175.849 267.7 174.369 266.48 174.369 263.98ZM186.703 257.02C187.503 257.02 188.143 256.38 188.143 255.56C188.143 254.74 187.503 254.1 186.703 254.1C185.883 254.1 185.243 254.74 185.243 255.56C185.243 256.38 185.883 257.02 186.703 257.02ZM185.543 258.48V271.66C185.543 272.48 185.223 272.82 184.263 272.82H183.483V274.74H184.663C186.623 274.74 187.823 273.9 187.823 271.66V258.48H185.543ZM195.456 260.22C197.156 260.22 198.496 261.3 198.536 263H192.436C192.676 261.26 193.916 260.22 195.456 260.22ZM200.616 266.22H198.156C197.736 267.08 196.956 267.76 195.556 267.76C193.876 267.76 192.576 266.66 192.416 264.84H200.836C200.896 264.46 200.916 264.1 200.916 263.72C200.916 260.48 198.696 258.3 195.556 258.3C192.296 258.3 190.056 260.52 190.056 263.98C190.056 267.44 192.396 269.68 195.556 269.68C198.256 269.68 199.996 268.14 200.616 266.22ZM202.4 263.98C202.4 267.44 204.64 269.68 207.8 269.68C210.5 269.68 212.26 268.18 212.88 266.02H210.42C210 267.16 209.16 267.76 207.8 267.76C205.96 267.76 204.74 266.4 204.74 263.98C204.74 261.58 205.96 260.22 207.8 260.22C209.16 260.22 210.04 260.9 210.42 261.96H212.88C212.26 259.64 210.5 258.3 207.8 258.3C204.64 258.3 202.4 260.54 202.4 263.98ZM215.512 266.44C215.512 268.68 216.732 269.5 218.692 269.5H220.492V267.6H219.092C218.132 267.6 217.812 267.26 217.812 266.44V260.34H220.492V258.48H217.812V255.74H215.512V258.48H214.212V260.34H215.512V266.44ZM230.609 269.52L233.169 269.5L236.269 258.98L239.189 269.5H241.769L245.889 255.6H243.449L240.549 266.86L237.649 255.6H235.089L231.969 266.92L229.089 255.6H226.669L230.609 269.52ZM258.27 263.98C258.27 260.52 255.79 258.3 252.65 258.3C249.51 258.3 247.03 260.52 247.03 263.98C247.03 267.44 249.41 269.68 252.55 269.68C255.71 269.68 258.27 267.44 258.27 263.98ZM249.35 263.98C249.35 261.48 250.89 260.28 252.61 260.28C254.31 260.28 255.93 261.48 255.93 263.98C255.93 266.48 254.25 267.7 252.55 267.7C250.83 267.7 249.35 266.48 249.35 263.98ZM262.803 263.7C262.803 261.36 263.843 260.66 265.523 260.66H266.103V258.3C264.543 258.3 263.443 258.98 262.803 260.08V258.48H260.523V269.5H262.803V263.7ZM268.199 269.5H270.479V264.76L274.559 269.5H277.639L272.559 264L277.639 258.48H274.479L270.479 263.3V254.7H268.199V269.5Z" fill="#212832"/>
<rect x="0.5" y="237.5" width="616" height="49" stroke="black" stroke-opacity="0.5"/>
<rect width="617" height="58" fill="#3498DB"/>
<path d="M33.925 32.95C33.925 26.8 24.975 28.75 24.975 25.25C24.975 23.825 26 23.15 27.375 23.2C28.875 23.225 29.8 24.125 29.875 25.275H33.725C33.5 22.125 31.05 20.3 27.475 20.3C23.875 20.3 21.325 22.2 21.325 25.35C21.3 31.675 30.3 29.4 30.3 33.175C30.3 34.425 29.325 35.3 27.675 35.3C26.05 35.3 25.125 34.375 25.025 32.975H21.275C21.325 36.275 24.125 38.175 27.75 38.175C31.725 38.175 33.925 35.7 33.925 32.95ZM43.4094 26.8C45.2094 26.8 46.6594 27.95 46.7094 29.775H40.1344C40.4094 27.875 41.7344 26.8 43.4094 26.8ZM49.9844 33.65H46.2094C45.7594 34.575 44.9344 35.325 43.4344 35.325C41.6844 35.325 40.2844 34.175 40.1094 32.125H50.2344C50.3094 31.675 50.3344 31.225 50.3344 30.775C50.3344 26.65 47.5094 23.925 43.5094 23.925C39.4094 23.925 36.5594 26.7 36.5594 31.075C36.5594 35.425 39.4844 38.225 43.5094 38.225C46.9344 38.225 49.2344 36.2 49.9844 33.65ZM72.7641 38H76.2641V29.875C76.2641 26.05 73.9141 23.95 70.5891 23.95C68.5641 23.95 66.7391 25.025 65.8391 26.6C64.8891 24.875 63.1141 23.95 60.9641 23.95C59.2391 23.95 57.7641 24.675 56.8891 25.825V24.15H53.3891V38H56.8891V30.35C56.8891 28.15 58.1141 27 60.0141 27C61.8641 27 63.0891 28.15 63.0891 30.35V38H66.5891V30.35C66.5891 28.15 67.8141 27 69.6891 27C71.5391 27 72.7641 28.15 72.7641 30.35V38ZM86.0354 26.8C87.8354 26.8 89.2854 27.95 89.3354 29.775H82.7604C83.0354 27.875 84.3604 26.8 86.0354 26.8ZM92.6104 33.65H88.8354C88.3854 34.575 87.5604 35.325 86.0604 35.325C84.3104 35.325 82.9104 34.175 82.7354 32.125H92.8604C92.9354 31.675 92.9604 31.225 92.9604 30.775C92.9604 26.65 90.1354 23.925 86.1354 23.925C82.0354 23.925 79.1854 26.7 79.1854 31.075C79.1854 35.425 82.1104 38.225 86.1354 38.225C89.5604 38.225 91.8604 36.2 92.6104 33.65ZM106.765 34.05C106.665 28.975 98.99 30.55 98.99 28.025C98.99 27.225 99.665 26.7 100.965 26.7C102.34 26.7 103.19 27.425 103.29 28.5H106.64C106.44 25.75 104.415 23.925 101.065 23.925C97.64 23.925 95.59 25.775 95.59 28.075C95.59 33.15 103.415 31.575 103.415 34.05C103.415 34.85 102.665 35.475 101.29 35.475C99.89 35.475 98.915 34.675 98.79 33.625H95.265C95.415 36.2 97.84 38.225 101.315 38.225C104.69 38.225 106.765 36.425 106.765 34.05ZM110.688 33.7C110.688 36.875 112.463 38 115.113 38H117.313V35.05H115.688C114.588 35.05 114.213 34.65 114.213 33.725V27.025H117.313V24.15H114.213V20.725H110.688V24.15H109.038V27.025H110.688V33.7ZM126.28 26.8C128.08 26.8 129.53 27.95 129.58 29.775H123.005C123.28 27.875 124.605 26.8 126.28 26.8ZM132.855 33.65H129.08C128.63 34.575 127.805 35.325 126.305 35.325C124.555 35.325 123.155 34.175 122.98 32.125H133.105C133.18 31.675 133.205 31.225 133.205 30.775C133.205 26.65 130.38 23.925 126.38 23.925C122.28 23.925 119.43 26.7 119.43 31.075C119.43 35.425 122.355 38.225 126.38 38.225C129.805 38.225 132.105 36.2 132.855 33.65ZM139.76 31.1C139.76 28.425 141.01 27.625 143.085 27.625H144.01V23.95C142.085 23.95 140.635 24.875 139.76 26.3V24.15H136.26V38H139.76V31.1ZM161.525 38H165.025V34.45H167.225V31.4H165.025V20H160.95L152.775 31.7V34.45H161.525V38ZM156.625 31.4L161.75 23.75V31.4H156.625Z" fill="white"/>
</svg>
