<svg width="396" height="344" viewBox="0 0 396 344" fill="none" xmlns="http://www.w3.org/2000/svg">
<path d="M0 344V0H396V344H0Z" fill="#A9A7FC"/>
<path d="M65.6125 61.6V84H69.8125V61.6H65.6125ZM79.8623 61.6V72.66L76.2503 61.6H72.0503V84H76.2503V72.94L79.8623 84H84.0623V61.6H79.8623ZM96.2764 61.6H86.3084V65.8H89.1924V84H93.3924V65.8H96.2764V61.6ZM106.496 65.8V61.6H98.5158V84H106.496V79.8H102.716V74.9H106.496V70.7H102.716V65.8H106.496ZM119.311 82.012V78.54C119.311 76.44 118.667 75.292 117.239 74.704C118.555 73.752 119.311 72.156 119.311 69.692V67.704C119.311 63.196 117.715 61.6 112.927 61.6H108.727V84H112.927V75.796C114.551 75.796 115.111 76.076 115.111 77.7V82.012C115.111 82.852 115.139 83.664 115.419 84H119.619C119.339 83.664 119.311 82.852 119.311 82.012ZM115.111 67.704V69.692C115.111 71.316 114.551 71.596 112.927 71.596V65.8C114.551 65.8 115.111 66.08 115.111 67.704ZM129.403 61.6V72.66L125.791 61.6H121.591V84H125.791V72.94L129.403 84H133.603V61.6H129.403ZM142.603 84H146.803L144.059 61.6H138.319L135.575 84H139.775L140.083 80.192H142.295L142.603 84ZM140.419 75.992L141.203 66.052L141.959 75.992H140.419ZM157.341 61.6H147.373V65.8H150.257V84H154.457V65.8H157.341V61.6ZM159.58 61.6V84H163.78V61.6H159.58ZM171.282 61.32C167.894 61.32 166.018 63.196 166.018 67.704V77.896C166.018 82.404 167.894 84.28 171.282 84.28C174.67 84.28 176.546 82.404 176.546 77.896V67.704C176.546 63.196 174.67 61.32 171.282 61.32ZM172.346 77.616C172.346 79.52 172.206 80.08 171.282 80.08C170.358 80.08 170.218 79.52 170.218 77.616V67.984C170.218 66.08 170.358 65.52 171.282 65.52C172.206 65.52 172.346 66.08 172.346 67.984V77.616ZM186.611 61.6V72.66L182.999 61.6H178.799V84H182.999V72.94L186.611 84H190.811V61.6H186.611ZM199.812 84H204.012L201.268 61.6H195.528L192.784 84H196.984L197.292 80.192H199.504L199.812 84ZM197.628 75.992L198.412 66.052L199.168 75.992H197.628ZM210.176 79.8V61.6H205.976V84H213.956V79.8H210.176ZM231.409 61.6L228.693 74.536L225.977 61.6H221.777V84H225.977V74.396L227.713 84H229.673L231.409 74.396V84H235.609V61.6H231.409ZM244.594 84H248.794L246.05 61.6H240.31L237.566 84H241.766L242.074 80.192H244.286L244.594 84ZM242.41 75.992L243.194 66.052L243.95 75.992H242.41ZM261.342 82.012V78.54C261.342 76.44 260.698 75.292 259.27 74.704C260.586 73.752 261.342 72.156 261.342 69.692V67.704C261.342 63.196 259.746 61.6 254.958 61.6H250.758V84H254.958V75.796C256.582 75.796 257.142 76.076 257.142 77.7V82.012C257.142 82.852 257.17 83.664 257.45 84H261.65C261.37 83.664 261.342 82.852 261.342 82.012ZM257.142 67.704V69.692C257.142 71.316 256.582 71.596 254.958 71.596V65.8C256.582 65.8 257.142 66.08 257.142 67.704ZM263.622 61.6V84H267.822V61.6H263.622ZM274.766 61.6H270.426L267.822 72.8L270.426 84H274.766L271.994 72.8L274.766 61.6ZM284.711 65.8V61.6H276.731V84H284.711V79.8H280.931V74.9H284.711V70.7H280.931V65.8H284.711ZM296.911 61.6H286.943V65.8H289.827V84H294.027V65.8H296.911V61.6ZM299.15 61.6V84H303.35V61.6H299.15ZM313.4 61.6V72.66L309.788 61.6H305.588V84H309.788V72.94L313.4 84H317.6V61.6H313.4ZM330.374 70.7V67.704C330.374 63.196 328.498 61.32 325.11 61.32C321.722 61.32 319.846 63.196 319.846 67.704V77.896C319.846 82.404 321.442 84.28 324.466 84.28C325.978 84.28 327.154 83.496 328.022 82.404L328.694 84H330.374V72.38H325.11V76.58H326.174V77.616C326.174 79.52 326.034 80.08 325.11 80.08C324.186 80.08 324.046 79.52 324.046 77.616V67.984C324.046 66.08 324.186 65.52 325.11 65.52C326.006 65.52 326.174 66.08 326.174 67.984V70.7H330.374Z" fill="white"/>
<path d="M176.634 44.9317C176.634 47.2425 175.067 48.535 172.404 48.535H166.881V41.1717H172.286C174.949 41.1717 176.634 42.5817 176.634 44.9317ZM175.968 33.5342C175.968 35.7667 174.479 36.9417 171.894 36.9417H166.881V30.0875H171.894C174.479 30.0875 175.968 31.3408 175.968 33.5342ZM182.195 45.5975C182.195 42.3858 180.002 39.5267 176.908 38.9783C179.571 38.1167 181.569 36.0408 181.569 32.7117C181.569 28.6383 178.396 25.6617 172.678 25.6617H161.398V53H173.187C178.866 53 182.195 49.945 182.195 45.5975ZM201.801 44.9317C201.801 47.2425 200.234 48.535 197.571 48.535H192.049V41.1717H197.454C200.117 41.1717 201.801 42.5817 201.801 44.9317ZM201.135 33.5342C201.135 35.7667 199.647 36.9417 197.062 36.9417H192.049V30.0875H197.062C199.647 30.0875 201.135 31.3408 201.135 33.5342ZM207.363 45.5975C207.363 42.3858 205.169 39.5267 202.075 38.9783C204.739 38.1167 206.736 36.0408 206.736 32.7117C206.736 28.6383 203.564 25.6617 197.845 25.6617H186.565V53H198.354C204.034 53 207.363 49.945 207.363 45.5975ZM230.298 53H236.095L226.264 25.6225H219.88L210.049 53H215.806L217.608 47.7908H228.496L230.298 53ZM227.008 43.4042H219.096L223.052 31.9675L227.008 43.4042Z" fill="white"/>
<line x1="176" y1="91.8539" x2="220.615" y2="91.8539" stroke="white" stroke-width="0.292219"/>
<path d="M57.7363 316.097C57.7363 319.981 106.86 323.087 167.44 323.087C228.02 323.087 277.143 319.981 277.143 316.097C277.143 312.214 228.02 309.107 167.44 309.107C106.86 309.107 57.7363 312.214 57.7363 316.097Z" fill="#CDCCFF"/>
<path d="M124.724 324.738C124.724 327.165 112.297 329.106 96.8608 329.106C81.5217 329.106 68.998 327.165 68.998 324.738C68.998 322.31 81.4246 320.369 96.8608 320.369C112.2 320.369 124.724 322.31 124.724 324.738Z" fill="#CDCCFF"/>
<path d="M309.959 329.203C335.748 329.203 356.655 327.639 356.655 325.708C356.655 323.778 335.748 322.213 309.959 322.213C284.169 322.213 263.262 323.778 263.262 325.708C263.262 327.639 284.169 329.203 309.959 329.203Z" fill="#CDCCFF"/>
<path d="M68.7065 267.944L66.959 293.089H90.9384L89.288 267.944H68.7065Z" fill="#D7D7FF"/>
<path d="M73.4668 270.177C73.4668 269.789 73.8551 269.497 74.2435 269.497C74.7289 269.497 75.0201 269.789 75.0201 270.177C75.0201 270.565 74.6318 270.857 74.2435 270.857C73.8551 270.857 73.4668 270.565 73.4668 270.177ZM74.3405 269.692C74.0493 269.692 73.758 269.886 73.758 270.08C73.758 270.274 74.0493 270.468 74.3405 270.468C74.6318 270.468 74.923 270.274 74.923 270.08C74.826 269.886 74.6318 269.692 74.3405 269.692Z" fill="#EAE6FF"/>
<path d="M81.623 270.177H81.7201H81.623C81.623 269.983 81.7201 269.886 81.8172 269.692C82.0114 269.497 82.2055 269.4 82.3997 269.4C82.8851 269.4 83.1764 269.692 83.1764 270.08C83.1764 270.274 83.0793 270.468 82.8851 270.565C82.691 270.662 82.4968 270.76 82.3026 270.76C82.0114 270.857 81.623 270.565 81.623 270.177ZM82.4968 269.692C82.3026 269.692 82.2055 269.789 82.0114 269.886C81.9143 269.983 81.9143 269.983 81.9143 270.177C81.9143 270.371 82.2055 270.565 82.4968 270.565C82.691 270.565 82.788 270.468 82.8851 270.468C82.9822 270.371 83.0793 270.274 83.0793 270.177C82.9822 269.886 82.788 269.692 82.4968 269.692Z" fill="#EAE6FF"/>
<path d="M78.1241 275.225C78.2212 275.225 78.3183 275.225 78.3183 275.225C79.7745 275.128 80.9395 274.74 81.7162 273.769C82.9782 272.313 82.687 270.177 82.687 270.08C82.687 269.983 82.4928 269.789 82.3957 269.886C82.2987 269.886 82.1045 270.08 82.2016 270.177C82.2016 270.177 82.4928 272.119 81.3278 273.478C80.6483 274.254 79.6774 274.643 78.3183 274.74C77.0562 274.74 76.0854 274.449 75.4058 273.769C74.2408 272.507 74.532 270.371 74.532 270.274C74.532 270.177 74.435 269.983 74.3379 269.983C74.2408 269.983 74.0466 270.08 74.0466 270.177C74.0466 270.274 73.7554 272.604 75.0175 274.06C75.7941 274.837 76.7649 275.225 78.1241 275.225Z" fill="#EAE6FF"/>
<path d="M79.9697 275.031L77.1543 293.671H103.172L100.551 274.934L79.9697 275.031Z" fill="#BDC6F9"/>
<path d="M70.3577 306.583C67.4452 306.583 65.1152 308.913 65.1152 311.826C65.1152 314.738 67.4452 317.068 70.3577 317.068C73.2702 317.068 75.6002 314.738 75.6002 311.826C75.6002 308.913 73.2702 306.583 70.3577 306.583ZM70.3577 314.253C68.9985 314.253 67.9306 313.185 67.9306 311.826C67.9306 310.466 68.9985 309.398 70.3577 309.398C71.7169 309.398 72.7848 310.466 72.7848 311.826C72.7848 313.185 71.7169 314.253 70.3577 314.253Z" fill="#8784EF"/>
<path d="M69.4847 306.583C66.5722 306.583 64.2422 308.913 64.2422 311.826C64.2422 314.738 66.5722 317.068 69.4847 317.068C72.3971 317.068 74.7271 314.738 74.7271 311.826C74.7271 308.913 72.3971 306.583 69.4847 306.583ZM69.4847 314.253C68.1255 314.253 67.0576 313.185 67.0576 311.826C67.0576 310.466 68.1255 309.398 69.4847 309.398C70.8438 309.398 71.9117 310.466 71.9117 311.826C71.9117 313.185 70.8438 314.253 69.4847 314.253Z" fill="#9AA3F4"/>
<path d="M100.164 306.583C97.2519 306.583 94.9219 308.913 94.9219 311.826C94.9219 314.738 97.2519 317.068 100.164 317.068C103.077 317.068 105.407 314.738 105.407 311.826C105.407 308.913 103.077 306.583 100.164 306.583ZM100.164 314.253C98.8052 314.253 97.7373 313.185 97.7373 311.826C97.7373 310.466 98.8052 309.398 100.164 309.398C101.524 309.398 102.591 310.466 102.591 311.826C102.689 313.185 101.524 314.253 100.164 314.253Z" fill="#8784EF"/>
<path d="M99.2893 306.583C96.3769 306.583 94.0469 308.913 94.0469 311.826C94.0469 314.738 96.3769 317.068 99.2893 317.068C102.202 317.068 104.532 314.738 104.532 311.826C104.532 308.913 102.202 306.583 99.2893 306.583ZM99.2893 314.253C97.9302 314.253 96.8623 313.185 96.8623 311.826C96.8623 310.466 97.9302 309.398 99.2893 309.398C100.649 309.398 101.716 310.466 101.716 311.826C101.814 313.185 100.649 314.253 99.2893 314.253Z" fill="#9AA3F4"/>
<path d="M140.065 247.266H124.144C122.493 247.266 120.94 248.139 120.066 249.498L110.455 264.935" stroke="#9AA3F4" stroke-width="1.60648" stroke-miterlimit="10"/>
<path d="M67.8339 293.283H103.269C105.114 293.283 106.764 291.924 107.055 290.079L110.744 267.167C111.133 264.837 109.288 262.702 106.958 262.702H64.1447C61.8147 262.702 59.9702 264.837 60.3585 267.167L64.0477 290.079C64.3389 291.924 65.9893 293.283 67.8339 293.283Z" stroke="#9AA3F4" stroke-width="1.60648" stroke-miterlimit="10"/>
<path d="M85.5996 262.702V293.283" stroke="#9AA3F4" stroke-width="1.60648" stroke-miterlimit="10"/>
<path d="M108.996 277.944H62.1055" stroke="#9AA3F4" stroke-width="1.60648" stroke-miterlimit="10"/>
<path d="M99.5799 262.702L96.5703 293.283" stroke="#9AA3F4" stroke-width="1.60648" stroke-miterlimit="10"/>
<path d="M72.2988 262.702L75.1142 293.283" stroke="#9AA3F4" stroke-width="1.60648" stroke-miterlimit="10"/>
<path d="M106.278 291.827L112.006 300.37C113.559 302.7 111.909 305.806 109.094 305.806H62.1055" stroke="#9AA3F4" stroke-width="1.60648" stroke-miterlimit="10"/>
<path d="M229.668 295.904H181.029V309.01H229.668V295.904Z" fill="#4A41A3"/>
<path d="M280.831 300.176H130.45C125.402 300.176 121.324 296.098 121.324 291.05V188.045C121.324 182.997 125.402 178.919 130.45 178.919H280.831C285.88 178.919 289.957 182.997 289.957 188.045V291.05C289.957 296.098 285.88 300.176 280.831 300.176Z" fill="#5851BC"/>
<path d="M279.084 288.526H131.615C128.509 288.526 125.984 286.002 125.984 282.895V188.919C125.984 185.812 128.509 183.288 131.615 183.288H279.084C282.191 183.288 284.715 185.812 284.715 188.919V282.895C284.715 286.099 282.191 288.526 279.084 288.526Z" fill="#C4C3FC"/>
<path d="M250.638 316.097H160.254V314.932C160.254 311.049 163.458 307.845 167.341 307.845H243.454C247.337 307.845 250.541 311.049 250.541 314.932V316.097H250.638Z" fill="#5851BC"/>
<g opacity="0.35">
<path d="M270.057 265.226H168.799C166.081 265.226 163.945 263.09 163.945 260.372V195.52C163.945 192.802 166.081 190.666 168.799 190.666H270.057C272.775 190.666 274.911 192.802 274.911 195.52V260.372C274.911 263.09 272.775 265.226 270.057 265.226Z" fill="white"/>
</g>
<g opacity="0.25">
<path d="M179.376 245.13H174.521V257.265H179.376V245.13Z" fill="#FCA70C"/>
<path d="M190.253 234.451H185.398V257.265H190.253V234.451Z" fill="#B1AFFD"/>
<path d="M201.124 236.781H196.27V257.265H201.124V236.781Z" fill="#FCA70C"/>
<path d="M211.997 225.228H207.143V257.168H211.997V225.228Z" fill="#B1AFFD"/>
<g opacity="0.15">
<path opacity="0.26" d="M187.631 234.451H185.398V257.265H187.631V234.451Z" fill="black"/>
</g>
<g opacity="0.15">
<path opacity="0.26" d="M176.754 245.13H174.521V257.265H176.754V245.13Z" fill="black"/>
</g>
<g opacity="0.62">
<path opacity="0.26" d="M209.375 225.228H207.143V257.168H209.375V225.228Z" fill="black"/>
</g>
<g opacity="0.15">
<path opacity="0.26" d="M198.502 236.781H196.27V257.265H198.502V236.781Z" fill="black"/>
</g>
<path d="M214.617 260.566H171.318V214.549H171.998V259.886H214.617V260.566Z" fill="#D5DBDA"/>
<path d="M175.79 239.402L175.305 238.916L186.663 228.82L197.148 231.053L208.507 218.432L208.992 218.82L197.342 231.732L186.858 229.499L175.79 239.402Z" fill="#D5DBDA"/>
<path d="M209.858 220.762L206.654 217.655L210.732 216.587L209.858 220.762Z" fill="#D5DBDA"/>
<path d="M221.996 244.256H218.695V247.557H221.996V244.256Z" fill="#B1AFFD"/>
<path d="M221.996 250.081H218.695V253.382H221.996V250.081Z" fill="#FCA70C"/>
<path d="M233.356 251.537H222.871V253.382H233.356V251.537Z" fill="#EFEFEF"/>
<path d="M233.356 245.712H222.871V247.557H233.356V245.712Z" fill="#EFEFEF"/>
<path d="M241.52 244.256H238.219V247.557H241.52V244.256Z" fill="#B1AFFD"/>
<path d="M241.52 250.081H238.219V253.382H241.52V250.081Z" fill="#FCA70C"/>
<path d="M252.969 251.537H242.484V253.382H252.969V251.537Z" fill="#EFEFEF"/>
<path d="M252.969 245.712H242.484V247.557H252.969V245.712Z" fill="#EFEFEF"/>
<path d="M259.078 244.256H255.777V247.557H259.078V244.256Z" fill="#B1AFFD"/>
<path d="M259.078 250.081H255.777V253.382H259.078V250.081Z" fill="#FCA70C"/>
<path d="M266.944 251.537H260.051V253.382H266.944V251.537Z" fill="#EFEFEF"/>
<path d="M266.944 245.712H260.051V247.557H266.944V245.712Z" fill="#EFEFEF"/>
<path d="M266.947 212.51H219.279V213.384H266.947V212.51Z" fill="#EFEFEF"/>
<path d="M266.945 201.928H171.318V203.869H266.945V201.928Z" fill="#EFEFEF"/>
<path d="M266.946 215.228H219.182V216.102H266.946V215.228Z" fill="#EFEFEF"/>
<path d="M266.946 209.792H219.182V210.665H266.946V209.792Z" fill="#EFEFEF"/>
<path d="M266.946 217.947H219.182V218.82H266.946V217.947Z" fill="#EFEFEF"/>
<path d="M266.946 220.568H219.182V221.441H266.946V220.568Z" fill="#EFEFEF"/>
<path d="M266.946 223.286H219.182V224.16H266.946V223.286Z" fill="#EFEFEF"/>
<path d="M266.946 226.004H219.182V226.878H266.946V226.004Z" fill="#EFEFEF"/>
<path d="M266.946 228.723H219.182V229.596H266.946V228.723Z" fill="#EFEFEF"/>
<path d="M266.946 231.344H219.182V232.218H266.946V231.344Z" fill="#EFEFEF"/>
<path d="M266.946 234.062H225.006V234.936H266.946V234.062Z" fill="#EFEFEF"/>
<path d="M270.055 190.569H168.797C166.079 190.569 163.943 192.705 163.943 195.423V199.695H274.909V195.52C274.909 192.802 272.773 190.569 270.055 190.569Z" fill="#7A7AE5"/>
<path d="M260.638 195.326C260.638 196.103 260.056 196.685 259.279 196.685C258.502 196.685 257.92 196.103 257.92 195.326C257.92 194.55 258.502 193.967 259.279 193.967C260.056 193.967 260.638 194.55 260.638 195.326Z" fill="#CFCFFF"/>
<path d="M265.006 196.685C265.756 196.685 266.365 196.077 266.365 195.326C266.365 194.576 265.756 193.967 265.006 193.967C264.255 193.967 263.646 194.576 263.646 195.326C263.646 196.077 264.255 196.685 265.006 196.685Z" fill="#CFCFFF"/>
<path d="M270.734 196.685C271.485 196.685 272.093 196.077 272.093 195.326C272.093 194.576 271.485 193.967 270.734 193.967C269.984 193.967 269.375 194.576 269.375 195.326C269.375 196.077 269.984 196.685 270.734 196.685Z" fill="#CFCFFF"/>
</g>
<path opacity="0.55" d="M240.642 281.73H139.288C136.569 281.73 134.434 279.594 134.434 276.876V212.024C134.434 209.306 136.569 207.17 139.288 207.17H240.545C243.263 207.17 245.399 209.306 245.399 212.024V276.876C245.496 279.594 243.263 281.73 240.642 281.73Z" fill="#C4C3FC"/>
<path d="M242.875 278.817H141.618C138.899 278.817 136.764 276.682 136.764 273.963V209.112C136.764 206.394 138.899 204.258 141.618 204.258H242.875C245.593 204.258 247.729 206.394 247.729 209.112V273.963C247.729 276.682 245.496 278.817 242.875 278.817Z" fill="white"/>
<path d="M152.102 258.721H147.248V270.857H152.102V258.721Z" fill="#FCA70C"/>
<path d="M162.973 248.042H158.119V270.857H162.973V248.042Z" fill="#B1AFFD"/>
<path d="M173.942 250.372H169.088V270.857H173.942V250.372Z" fill="#FCA70C"/>
<path d="M184.819 238.916H179.965V270.857H184.819V238.916Z" fill="#B1AFFD"/>
<g opacity="0.15">
<path opacity="0.26" d="M160.352 248.042H158.119V270.857H160.352V248.042Z" fill="black"/>
</g>
<g opacity="0.15">
<path opacity="0.26" d="M149.481 258.721H147.248V270.857H149.481V258.721Z" fill="black"/>
</g>
<g opacity="0.62">
<path opacity="0.26" d="M182.198 238.916H179.965V270.857H182.198V238.916Z" fill="black"/>
</g>
<g opacity="0.15">
<path opacity="0.26" d="M171.321 250.372H169.088V270.857H171.321V250.372Z" fill="black"/>
</g>
<path d="M187.338 274.157H144.039V232.218H144.719V273.575H187.338V274.157Z" fill="#D5DBDA"/>
<path d="M148.507 252.993L148.119 252.508L159.381 242.411L169.866 244.644L181.224 232.023L181.71 232.412L170.157 245.421L159.575 243.091L148.507 252.993Z" fill="#D5DBDA"/>
<path d="M182.585 234.353L179.381 231.247L183.555 230.179L182.585 234.353Z" fill="#D5DBDA"/>
<path d="M194.729 257.847H191.428V261.148H194.729V257.847Z" fill="#B1AFFD"/>
<path d="M194.729 263.672H191.428V266.973H194.729V263.672Z" fill="#FCA70C"/>
<path d="M206.178 265.129H195.693V266.973H206.178V265.129Z" fill="#EFEFEF"/>
<path d="M206.178 259.304H195.693V261.148H206.178V259.304Z" fill="#EFEFEF"/>
<path d="M214.23 257.848H210.93V261.148H214.23V257.848Z" fill="#B1AFFD"/>
<path d="M214.23 263.672H210.93V266.973H214.23V263.672Z" fill="#FCA70C"/>
<path d="M225.688 265.129H215.203V266.973H225.688V265.129Z" fill="#EFEFEF"/>
<path d="M225.688 259.304H215.203V261.148H225.688V259.304Z" fill="#EFEFEF"/>
<path d="M231.908 257.847H228.607V261.148H231.908V257.847Z" fill="#B1AFFD"/>
<path d="M231.908 263.672H228.607V266.973H231.908V263.672Z" fill="#FCA70C"/>
<path d="M239.666 265.129H232.773V266.973H239.666V265.129Z" fill="#EFEFEF"/>
<path d="M239.666 259.304H232.773V261.148H239.666V259.304Z" fill="#EFEFEF"/>
<path d="M239.765 226.101H192.098V226.975H239.765V226.101Z" fill="#EFEFEF"/>
<path d="M239.666 215.519H144.039V217.461H239.666V215.519Z" fill="#EFEFEF"/>
<path d="M239.673 228.82H191.908V229.693H239.673V228.82Z" fill="#EFEFEF"/>
<path d="M239.673 223.383H191.908V224.257H239.673V223.383Z" fill="#EFEFEF"/>
<path d="M239.673 231.538H191.908V232.412H239.673V231.538Z" fill="#EFEFEF"/>
<path d="M239.673 234.159H191.908V235.033H239.673V234.159Z" fill="#EFEFEF"/>
<path d="M239.673 236.878H191.908V237.751H239.673V236.878Z" fill="#EFEFEF"/>
<path d="M239.673 239.596H191.908V240.47H239.673V239.596Z" fill="#EFEFEF"/>
<path d="M239.673 242.314H191.908V243.188H239.673V242.314Z" fill="#EFEFEF"/>
<path d="M239.673 245.033H191.908V245.906H239.673V245.033Z" fill="#EFEFEF"/>
<path d="M239.666 247.654H197.727V248.528H239.666V247.654Z" fill="#EFEFEF"/>
<path d="M242.873 204.161H141.616C138.898 204.161 136.762 206.297 136.762 209.015V213.287H247.727V209.112C247.727 206.394 245.494 204.161 242.873 204.161Z" fill="#A4A4F7"/>
<path d="M233.455 208.918C233.455 209.694 232.872 210.277 232.095 210.277C231.319 210.277 230.736 209.694 230.736 208.918C230.736 208.141 231.319 207.559 232.095 207.559C232.775 207.559 233.455 208.141 233.455 208.918Z" fill="#CFCFFF"/>
<path d="M239.183 208.918C239.183 209.694 238.601 210.277 237.824 210.277C237.047 210.277 236.465 209.694 236.465 208.918C236.465 208.141 237.047 207.559 237.824 207.559C238.504 207.559 239.183 208.141 239.183 208.918Z" fill="#CFCFFF"/>
<path d="M244.912 208.918C244.912 209.694 244.329 210.277 243.553 210.277C242.776 210.277 242.193 209.694 242.193 208.918C242.193 208.141 242.776 207.559 243.553 207.559C244.232 207.559 244.912 208.141 244.912 208.918Z" fill="#CFCFFF"/>
<path opacity="0.35" d="M280.345 179.016H254.327C254.521 187.463 254.618 195.909 254.715 204.258C254.715 205.52 254.715 206.879 254.229 208.044C253.841 208.044 254.035 208.141 253.938 208.724C252.87 210.471 250.832 211.345 248.793 211.83C248.793 211.927 248.793 212.024 248.793 212.122C248.599 212.316 248.502 212.607 248.599 212.898C248.696 213.189 250.249 213.578 252.288 213.384C252.87 213.287 254.035 212.995 254.521 212.801C254.812 212.607 255.103 212.413 255.394 212.219C255.686 212.219 255.88 212.122 256.171 212.024L256.268 212.122L258.598 211.151C258.598 211.151 258.307 209.694 258.113 208.918C258.113 208.724 258.016 208.627 257.919 208.53C259.86 203.287 261.414 197.85 262.481 192.317C262.093 199.21 259.569 213.092 259.375 213.578C259.084 214.354 258.016 215.519 256.462 215.617C255.88 215.617 253.162 215.519 253.453 216.782C253.55 217.073 254.909 217.752 256.948 217.849C257.53 217.849 258.695 217.752 259.278 217.655C260.054 217.461 260.734 216.879 260.734 216.879L261.025 217.267L263.452 216.684C263.452 216.684 263.452 216.005 263.452 215.228C263.452 214.452 262.967 213.772 262.967 213.772V212.413L264.326 212.219C264.326 212.219 267.044 203.384 268.404 200.277C268.986 199.015 269.569 197.85 269.86 196.491C270.248 194.938 270.345 193.385 270.442 191.734C270.636 188.822 271.219 186.006 271.996 183.191C272.093 182.997 272.093 182.803 272.19 182.705C272.384 182.511 272.772 182.414 273.063 182.414C276.558 182.123 278.112 182.705 280.345 182.026C283.257 181.152 283.548 179.793 283.646 179.793C282.772 179.308 281.607 179.016 280.345 179.016Z" fill="#5851BC"/>
<g opacity="0.35">
<path d="M289.957 237.169V207.073C285.491 212.995 281.026 218.238 276.56 224.16C274.618 226.684 266.949 235.13 272.191 238.528C273.55 239.402 275.88 239.402 276.948 239.402C281.123 239.693 285.2 238.528 289.278 237.363C289.472 237.363 289.666 237.266 289.957 237.169Z" fill="#5851BC"/>
</g>
<path opacity="0.35" d="M289.957 243.673L287.433 243.868V243.771L285.491 243.965L284.909 242.314C284.618 241.343 283.453 240.664 282.482 240.761C281.414 240.858 280.928 241.635 281.22 242.606C281.317 242.897 281.608 243.673 281.802 244.256L279.763 244.45V244.547L275.589 244.838C274.909 244.838 273.938 245.712 274.133 246.295V246.392C274.133 246.489 274.133 246.489 274.133 246.586L277.822 256.877L277.725 300.273H281.996L290.054 269.109V243.673H289.957ZM283.355 243.382C282.773 243.382 282.19 242.994 281.996 242.508C281.802 242.023 282.093 241.538 282.676 241.441C283.258 241.441 283.841 241.829 284.035 242.314C284.229 242.8 283.938 243.285 283.355 243.382Z" fill="#5851BC"/>
<path opacity="0.35" d="M131.906 225.81C130.935 226.878 129.868 229.111 129.382 229.985C128.897 230.956 128.411 231.441 127.052 232.121C125.208 232.994 123.169 233.771 121.324 234.548V239.499C125.208 237.169 128.703 235.033 128.8 234.936C131.809 236.101 134.236 233.577 135.013 231.829C135.401 231.053 134.819 230.664 134.819 230.373C134.819 230.179 135.013 229.014 135.013 228.917C134.819 227.849 132.003 228.82 132.197 228.334C132.295 227.946 132.683 227.072 133.362 226.587C134.722 225.616 135.79 224.645 135.79 224.257C135.887 223.383 132.295 225.422 131.906 225.81Z" fill="#5851BC"/>
<path d="M341.122 326.582H289.085C285.396 326.582 282.387 323.573 282.387 319.883V257.556C282.387 253.867 285.396 250.858 289.085 250.858H341.122C344.811 250.858 347.821 253.867 347.821 257.556V319.883C347.918 323.573 344.811 326.582 341.122 326.582Z" fill="#A2A7F4"/>
<path d="M342.093 274.352H290.154C289.183 274.352 288.406 273.575 288.406 272.604V260.469C288.406 259.498 289.183 258.721 290.154 258.721H342.093C343.064 258.721 343.841 259.498 343.841 260.469V272.604C343.841 273.575 343.064 274.352 342.093 274.352Z" fill="#9090F4"/>
<path d="M300.93 289.691H290.154C289.183 289.691 288.406 288.914 288.406 287.943V281.536C288.406 280.565 289.183 279.788 290.154 279.788H300.93C301.901 279.788 302.677 280.565 302.677 281.536V287.943C302.677 288.914 301.901 289.691 300.93 289.691Z" fill="#9090F4"/>
<path d="M321.51 289.691H310.734C309.763 289.691 308.986 288.914 308.986 287.943V281.536C308.986 280.565 309.763 279.788 310.734 279.788H321.51C322.481 279.788 323.258 280.565 323.258 281.536V287.943C323.258 288.914 322.481 289.691 321.51 289.691Z" fill="#9090F4"/>
<path d="M342.094 289.691H331.318C330.347 289.691 329.57 288.914 329.57 287.943V281.536C329.57 280.565 330.347 279.788 331.318 279.788H342.094C343.065 279.788 343.841 280.565 343.841 281.536V287.943C343.841 288.914 343.065 289.691 342.094 289.691Z" fill="#9090F4"/>
<path d="M300.93 305.612H290.154C289.183 305.612 288.406 304.836 288.406 303.865V297.457C288.406 296.487 289.183 295.71 290.154 295.71H300.93C301.901 295.71 302.677 296.487 302.677 297.457V303.865C302.677 304.836 301.901 305.612 300.93 305.612Z" fill="#9090F4"/>
<path d="M321.51 305.612H310.734C309.763 305.612 308.986 304.836 308.986 303.865V297.457C308.986 296.487 309.763 295.71 310.734 295.71H321.51C322.481 295.71 323.258 296.487 323.258 297.457V303.865C323.258 304.836 322.481 305.612 321.51 305.612Z" fill="#9090F4"/>
<path d="M300.93 321.534H290.154C289.183 321.534 288.406 320.757 288.406 319.786V313.379C288.406 312.408 289.183 311.631 290.154 311.631H300.93C301.901 311.631 302.677 312.408 302.677 313.379V319.786C302.677 320.757 301.901 321.534 300.93 321.534Z" fill="#9090F4"/>
<path d="M321.51 321.534H310.734C309.763 321.534 308.986 320.757 308.986 319.786V313.379C308.986 312.408 309.763 311.631 310.734 311.631H321.51C322.481 311.631 323.258 312.408 323.258 313.379V319.786C323.258 320.757 322.481 321.534 321.51 321.534Z" fill="#9090F4"/>
<path d="M342.094 321.534H331.318C330.347 321.534 329.57 320.757 329.57 319.786V297.457C329.57 296.487 330.347 295.71 331.318 295.71H342.094C343.065 295.71 343.841 296.487 343.841 297.457V319.786C343.841 320.757 343.065 321.534 342.094 321.534Z" fill="#9090F4"/>
<g opacity="0.45">
<path d="M287.434 259.498C287.434 258.527 288.21 257.75 289.181 257.75H341.12C342.091 257.75 342.868 258.527 342.868 259.498V271.633C342.868 272.604 342.091 273.381 341.12 273.381H289.084" fill="#E2DEFF"/>
<path d="M299.959 288.72H289.085C288.115 288.72 287.338 287.943 287.338 286.972V280.565C287.338 279.594 288.115 278.817 289.085 278.817H299.862C300.832 278.817 301.609 279.594 301.609 280.565V286.972C301.609 287.943 300.832 288.72 299.959 288.72Z" fill="#E2DEFF"/>
<path d="M320.541 288.72H309.765C308.794 288.72 308.018 287.943 308.018 286.972V280.565C308.018 279.594 308.794 278.817 309.765 278.817H320.541C321.512 278.817 322.289 279.594 322.289 280.565V286.972C322.192 287.943 321.512 288.72 320.541 288.72Z" fill="#E2DEFF"/>
<path d="M341.121 288.72H330.345C329.374 288.72 328.598 287.943 328.598 286.972V280.565C328.598 279.594 329.374 278.817 330.345 278.817H341.121C342.092 278.817 342.869 279.594 342.869 280.565V286.972C342.869 287.943 342.092 288.72 341.121 288.72Z" fill="#E2DEFF"/>
<path d="M299.959 304.641H289.085C288.115 304.641 287.338 303.865 287.338 302.894V296.487C287.338 295.516 288.115 294.739 289.085 294.739H299.862C300.832 294.739 301.609 295.516 301.609 296.487V302.894C301.609 303.865 300.832 304.641 299.959 304.641Z" fill="#E2DEFF"/>
<path d="M320.541 304.641H309.765C308.794 304.641 308.018 303.865 308.018 302.894V296.487C308.018 295.516 308.794 294.739 309.765 294.739H320.541C321.512 294.739 322.289 295.516 322.289 296.487V302.894C322.192 303.865 321.512 304.641 320.541 304.641Z" fill="#E2DEFF"/>
<path d="M299.959 320.466H289.085C288.115 320.466 287.338 319.689 287.338 318.718V312.311C287.338 311.34 288.115 310.564 289.085 310.564H299.862C300.832 310.564 301.609 311.34 301.609 312.311V318.718C301.609 319.689 300.832 320.466 299.959 320.466Z" fill="#E2DEFF"/>
<path d="M320.541 320.466H309.765C308.794 320.466 308.018 319.689 308.018 318.718V312.311C308.018 311.34 308.794 310.564 309.765 310.564H320.541C321.512 310.564 322.289 311.34 322.289 312.311V318.718C322.192 319.689 321.512 320.466 320.541 320.466Z" fill="#E2DEFF"/>
</g>
<path d="M341.123 320.466H330.347C329.376 320.466 328.6 319.689 328.6 318.718V296.389C328.6 295.419 329.376 294.642 330.347 294.642H341.123C342.094 294.642 342.871 295.419 342.871 296.389V318.718C342.871 319.689 342.094 320.466 341.123 320.466Z" fill="#FCA70C"/>
<path d="M329.57 319.786V297.457C329.57 296.487 330.347 295.71 331.317 295.71H342.094C342.288 295.71 342.482 295.71 342.676 295.807C342.385 295.127 341.802 294.642 341.026 294.642H330.249C329.279 294.642 328.502 295.419 328.502 296.389V318.718C328.502 319.495 328.987 320.078 329.667 320.369C329.667 320.175 329.57 319.981 329.57 319.786Z" fill="#F9C110"/>
<path opacity="0.35" d="M282.291 268.721L284.039 273.381H291.417C291.417 273.381 290.931 293.38 290.834 297.069C290.834 300.855 293.941 326.679 293.941 326.679H298.213L297.727 294.157L303.746 277.458C303.746 277.458 308.309 299.787 310.154 303.574C311.998 307.36 322.192 326.776 322.192 326.776H326.075L316.076 283.963L311.804 269.109L290.155 259.013L282.388 259.789" fill="#5851BC"/>
<path d="M135.597 285.322L132.199 320.757H165.79L162.586 285.225L135.597 285.322Z" fill="#FCA70C"/>
<path d="M141.422 288.526C141.422 287.943 142.004 287.458 142.684 287.458C143.364 287.458 143.946 287.943 143.946 288.526C143.946 289.108 143.364 289.594 142.684 289.594C142.004 289.594 141.422 289.108 141.422 288.526ZM142.684 287.846C142.199 287.846 141.81 288.137 141.81 288.526C141.81 288.914 142.199 289.205 142.684 289.205C143.169 289.205 143.558 288.914 143.558 288.526C143.558 288.137 143.169 287.846 142.684 287.846Z" fill="#5851BC"/>
<path d="M154.043 288.526H154.237H154.043C154.043 288.234 154.14 288.04 154.334 287.846C154.528 287.652 154.917 287.458 155.305 287.458C155.985 287.458 156.567 287.943 156.567 288.526C156.567 288.817 156.47 289.108 156.179 289.302C155.985 289.497 155.596 289.594 155.305 289.594C154.528 289.594 154.043 289.108 154.043 288.526ZM155.208 287.846C154.917 287.846 154.723 287.943 154.528 288.137C154.431 288.234 154.334 288.332 154.334 288.526C154.334 288.914 154.723 289.205 155.208 289.205C155.402 289.205 155.693 289.108 155.79 289.011C155.985 288.914 155.985 288.72 155.985 288.526C156.082 288.137 155.693 287.846 155.208 287.846C155.305 287.846 155.305 287.846 155.208 287.846Z" fill="#5851BC"/>
<path d="M148.608 296.292C148.705 296.292 148.803 296.292 148.997 296.292C151.327 296.195 153.074 295.516 154.239 294.059C156.181 291.729 155.695 288.526 155.695 288.429C155.695 288.234 155.501 288.04 155.21 288.04C155.016 288.04 154.822 288.234 154.822 288.526C154.822 288.526 155.21 291.535 153.56 293.477C152.589 294.642 151.035 295.321 148.9 295.419C146.861 295.516 145.405 294.933 144.434 293.865C142.589 291.827 143.075 288.623 143.075 288.526C143.075 288.332 142.978 288.137 142.686 288.04C142.492 288.04 142.298 288.137 142.201 288.429C142.201 288.623 141.715 292.118 143.754 294.448C144.919 295.71 146.57 296.292 148.608 296.292Z" fill="#5851BC"/>
<path d="M102.495 205.326C103.757 207.559 102.689 210.665 103.951 212.898C104.437 213.772 105.407 214.549 105.602 215.519C105.796 216.393 105.504 217.364 104.825 217.849C104.145 218.432 103.174 218.432 102.398 218.044C102.204 217.947 102.107 217.849 101.912 217.752C101.233 217.558 100.65 218.141 100.165 218.529C99.4853 219.014 98.6116 219.209 97.8349 218.917C96.8641 218.626 96.1845 217.558 95.8933 216.587C94.9224 213.772 95.602 210.665 96.4758 207.85C96.8641 206.394 97.5437 204.84 98.9028 204.355" fill="#5045AF"/>
<path d="M132.782 229.208C132.782 229.499 133.267 229.791 132.976 230.47C132.296 231.926 130.063 233.965 127.442 232.994C127.345 232.994 112.88 241.343 111.812 241.343C110.744 241.343 103.074 234.159 100.647 225.325C100.065 223.189 100.259 220.762 102.298 219.694C102.298 219.694 103.948 220.082 105.016 222.121C106.666 225.228 111.618 235.518 112.686 235.907C114.045 235.033 120.646 232.994 125.986 230.761C127.151 230.276 127.636 229.791 128.025 229.014C128.413 228.237 129.384 226.393 130.258 225.519C130.549 225.228 133.753 223.48 133.753 224.063C133.753 224.354 132.782 225.228 131.617 226.004C131.034 226.393 130.743 227.169 130.549 227.461C130.355 227.849 132.782 227.072 133.073 227.946C132.976 228.14 132.782 229.111 132.782 229.208Z" fill="#FFB9B0"/>
<path d="M101.62 219.5C103.465 219.985 105.018 221.15 105.892 222.801C106.086 223.189 106.28 223.674 106.474 224.16C107.251 226.101 108.319 227.849 109.096 229.888C108.028 230.761 106.766 231.15 105.698 231.538C104.727 231.926 103.562 232.024 102.494 231.926C102.3 231.926 102.106 231.926 102.009 231.829C101.814 231.732 101.62 231.538 101.426 231.344C101.135 230.956 100.747 230.567 100.455 230.179C100.164 229.888 99.9699 229.499 99.7757 229.111C99.5816 228.529 99.7757 227.946 99.9699 227.364" fill="#7762EF"/>
<g opacity="0.35">
<path d="M103.462 224.839C103.365 224.742 103.365 224.645 103.17 224.645C102.976 224.548 102.782 224.742 102.685 224.839C102.588 225.034 102.588 225.228 102.588 225.422C102.588 226.199 102.685 226.975 102.976 227.752L102.685 231.926C103.656 232.023 104.724 231.829 105.597 231.538C106.083 231.344 106.568 231.247 107.054 230.956C106.665 228.626 105.015 226.684 103.462 224.839Z" fill="#7762EF"/>
</g>
<path d="M97.0562 215.325C97.0562 215.325 96.9591 217.947 97.4445 218.044C98.2212 218.335 99.0949 218.529 99.0949 218.529V223.869L92.0079 222.801L87.0566 220.082C87.0566 220.082 92.202 218.432 92.202 217.849C92.202 217.364 91.9108 214.452 91.9108 214.452" fill="#FFB9B0"/>
<path d="M86.1809 292.7C86.1809 292.797 86.1809 292.797 86.1809 292.7C84.2392 301.923 85.1129 314.641 84.7246 321.631C84.8217 321.631 87.3458 322.019 87.3458 322.019C87.3458 322.019 93.365 292.7 94.4329 287.069C94.53 286.681 94.53 286.293 94.53 286.002C94.8212 281.73 90.9379 281.536 88.8021 285.031C88.4138 285.613 88.1225 286.196 87.8313 286.875C87.7342 287.167 87.6371 287.458 87.4429 287.749C87.0546 288.623 86.7633 289.691 86.4721 290.661V290.759C86.375 291.05 86.2779 291.341 86.2779 291.632V291.729C86.2779 292.118 86.1809 292.409 86.1809 292.7Z" fill="#FFB9B0"/>
<path d="M97.5384 259.595C97.4413 260.372 97.053 263.964 96.5675 268.332C96.1792 271.925 95.6938 276.002 95.3055 279.206C95.0142 281.633 94.8201 283.574 94.723 284.448C94.723 285.031 94.6259 285.516 94.5288 286.002C93.6551 290.273 90.6455 290.467 88.898 289.496C88.6068 289.399 88.4126 289.205 88.2184 289.011C87.8301 288.623 87.5388 288.234 87.4418 287.749C87.3447 286.875 87.2476 285.71 87.1505 284.254C86.9563 281.536 86.7622 277.944 86.568 274.546C86.3739 270.274 86.2768 266.294 86.1797 263.964C86.1797 263.867 86.1797 263.672 86.1797 263.575C86.1797 256.488 92.5872 252.023 96.6646 254.255C96.7617 254.255 96.7617 254.255 96.7617 254.353C96.8588 254.353 96.8588 254.45 96.9559 254.45C97.4413 254.741 97.5384 255.809 97.5384 256.974C97.6355 257.75 97.6355 258.721 97.5384 259.595Z" fill="#FFB9B0"/>
<path d="M87.7336 286.099L87.2482 284.254C87.2482 284.642 87.3453 287.652 86.6657 290.661V290.759C86.5686 291.05 86.5686 291.341 86.4715 291.632V291.729C86.3744 292.215 86.2773 292.506 86.2773 292.7C86.2773 293.574 88.0248 289.788 88.4132 288.914C88.5102 288.817 88.5103 288.72 88.5103 288.72L88.0248 286.778L87.7336 286.099Z" fill="#FFB9B0"/>
<path d="M101.619 294.545C101.424 304.253 104.434 315.612 105.211 322.699C105.308 322.699 107.638 322.408 107.638 322.408C107.638 322.408 108.123 292.7 108.123 286.875C108.123 286.487 108.123 286.099 108.026 285.71C107.541 281.439 104.046 282.215 102.784 286.196C102.589 286.875 102.395 287.555 102.201 288.332C102.104 288.623 102.104 288.914 102.007 289.302C101.813 290.273 101.716 291.341 101.619 292.506V292.603C101.619 292.894 101.619 293.283 101.521 293.574V293.671C101.619 293.865 101.619 294.156 101.619 294.545Z" fill="#FFB9B0"/>
<path d="M103.657 290.564C103.366 290.467 103.171 290.37 102.977 290.273C102.492 289.982 102.201 289.594 102.104 289.205C101.812 288.332 101.521 287.167 101.23 285.807C100.55 283.089 99.7736 279.691 99.094 276.293C98.2202 272.119 97.4436 268.138 96.9582 265.808C96.9582 265.711 96.5698 264.061 96.5698 263.867C95.3078 256.78 100.841 252.217 104.822 253.576C104.919 253.576 104.919 253.576 105.016 253.673C105.793 253.964 106.084 256.877 106.181 258.721C106.375 260.663 107.734 280.468 108.026 284.06C108.123 284.642 108.123 285.128 108.123 285.71C108.026 290.079 105.404 291.05 103.657 290.564Z" fill="#FFB9B0"/>
<path d="M101.909 287.555L101.133 285.807C101.23 286.196 101.715 289.205 101.715 292.409V292.506C101.715 292.797 101.715 293.186 101.618 293.477V293.574C101.618 294.059 101.618 294.448 101.618 294.545C101.715 295.419 102.686 291.244 102.977 290.273C102.977 290.176 102.977 290.079 102.977 290.079L102.201 288.234L101.909 287.555Z" fill="#FFB9B0"/>
<path d="M89.6786 246.003C89.6786 246.003 84.5332 252.605 85.0186 259.207C85.2128 261.925 85.6011 264.352 85.8924 267.167C85.8924 267.556 86.572 273.381 86.3778 273.381C86.3778 273.381 97.0569 276.682 107.445 272.313C107.445 271.633 108.319 258.042 102.688 245.13C95.8919 246.1 89.6786 246.003 89.6786 246.003Z" fill="#5146AF"/>
<path d="M105.892 230.761C105.892 232.606 104.824 233.771 103.367 235.421C103.173 235.713 102.785 239.887 102.591 242.703C102.494 244.159 103.173 245.033 102.591 245.227C100.552 247.071 93.0766 248.528 89.5816 246.003C89.9699 242.994 88.6108 236.295 87.64 232.8C87.5429 232.315 87.3487 231.829 87.2516 231.538C86.3779 228.917 84.8246 220.665 85.9896 220.277C86.1837 220.179 86.572 220.082 86.9604 219.985C88.7079 219.403 91.4262 218.529 91.4262 218.529C91.4262 218.529 92.9795 223.092 97.057 223.674C99.2899 222.801 99.0957 219.985 98.9986 218.723C99.6782 218.917 100.067 219.112 102.299 219.791C102.882 220.665 102.397 222.607 103.367 225.422C103.756 226.004 105.989 228.431 105.892 230.761Z" fill="#7762EF"/>
<path d="M102.203 204.84C102.203 204.84 102.591 209.792 101.718 212.413C101.038 214.354 98.5139 216.199 96.281 216.102C90.3589 216.102 89.291 208.044 89.291 207.656C89.291 207.267 98.1255 203.87 98.1255 203.87L102.203 204.84Z" fill="#FFB9B0"/>
<path d="M113.559 325.417C111.424 325.806 109.191 325.223 108.22 325.32C107.443 325.417 105.502 326 104.725 325.32C103.948 324.641 104.142 322.311 104.919 322.019C104.919 322.019 105.113 322.116 105.502 322.116C105.987 322.213 106.958 322.213 108.026 321.922C109.676 322.602 109.676 322.893 111.521 323.281C112.297 323.476 113.268 323.67 113.851 323.961C114.724 324.349 114.822 325.223 113.559 325.417Z" fill="#5045AF"/>
<path d="M90.6465 326.388C88.5107 326 87.1516 324.835 86.2778 324.738C85.5011 324.641 83.5595 324.252 83.3653 323.476C83.1712 322.893 83.7537 320.466 84.7245 320.466C84.7245 320.466 84.9187 320.563 85.2099 320.757C85.6953 321.048 86.472 321.34 87.637 321.437C88.899 322.602 88.899 322.893 90.4524 323.864C91.132 324.252 91.9086 324.835 92.394 325.32C93.0736 325.805 91.9086 326.582 90.6465 326.388Z" fill="#5045AF"/>
<path d="M59.6797 227.169L61.6213 224.839L73.5625 235.519C73.5625 235.519 79.3875 227.752 80.9408 225.325C82.6883 222.704 84.2416 220.374 86.8629 219.985C87.4454 220.374 86.6687 229.888 86.3775 230.179C82.7854 232.897 75.7954 241.538 73.5625 242.023C71.0384 242.411 59.6797 227.169 59.6797 227.169Z" fill="#FFB9B0"/>
<path d="M87.7362 219.5C87.7362 219.5 85.3091 219.5 84.2412 220.374C83.1733 221.247 78.222 229.208 78.222 229.208C78.222 229.208 78.125 230.664 79.5812 231.926C81.1345 233.286 83.1733 233.48 83.1733 233.48C83.1733 233.48 85.6974 230.956 87.0566 229.888C87.9303 229.208 88.0274 230.956 88.0274 230.956L92.4932 226.587L87.7362 219.5Z" fill="#7762EF"/>
<path d="M86.28 219.597C86.1829 219.5 85.9887 219.403 85.8917 219.403C85.2121 219.014 84.5325 218.529 84.3383 217.752C83.95 216.587 83.7558 214.937 84.3383 213.869C84.7267 213.092 85.5033 212.607 85.9887 212.024C86.6683 211.151 86.8625 209.889 86.9596 208.724C87.0567 207.559 86.9596 206.394 87.1537 205.326C87.5421 203.384 88.1246 201.54 89.5808 200.375C91.9108 198.433 96.7649 197.171 99.2891 199.404C99.7745 199.792 99.8716 200.083 100.454 200.18C101.328 200.277 101.813 200.375 102.59 200.86C103.464 201.345 104.434 202.025 104.337 203.19C104.24 203.967 103.367 205.229 102.687 205.52C102.396 205.714 102.104 205.714 101.813 205.714C100.842 205.714 99.9687 205.035 98.9978 205.229C98.5124 205.326 98.027 205.52 97.7358 205.908C97.3474 206.394 97.4445 206.976 97.0562 207.364C96.3766 208.044 95.3087 207.947 94.532 208.432C94.4349 208.529 94.2408 208.627 94.1437 208.724C94.0466 208.821 94.0466 209.015 94.0466 209.112C94.0466 209.5 94.0466 209.986 94.0466 210.374C93.6583 210.18 93.6583 209.597 93.27 209.403C92.9787 209.112 92.4933 209.209 92.105 209.5C91.8137 209.792 91.6195 210.18 91.5225 210.568C91.4254 211.054 91.6195 211.539 91.7166 212.024C92.0079 212.898 92.6875 213.675 93.27 213.092C93.6583 213.675 93.27 214.743 93.1729 215.519C93.1729 216.102 93.1729 217.17 93.6583 217.558C94.1437 217.947 94.9204 217.655 94.9204 218.529C94.9204 219.306 94.1437 219.985 93.367 220.082C92.5904 220.179 91.8137 219.888 91.0371 219.694C90.2604 219.5 89.3866 219.306 88.7071 219.597C88.2216 219.791 87.8333 220.082 87.3479 220.179C87.1537 219.985 86.7654 219.888 86.28 219.597Z" fill="#5045AF"/>
<path d="M64.6292 227.558C64.6292 227.558 61.8138 225.325 61.6196 224.742C61.4255 224.16 61.4255 223.48 61.1342 222.898C60.843 222.024 60.0663 221.344 59.1926 220.956C58.513 220.665 58.8042 220.471 58.1247 220.568C56.9597 220.762 56.4743 221.927 55.9888 222.801C54.0472 226.49 59.3867 227.169 59.5809 227.266C59.9692 227.266 61.9109 229.499 61.9109 229.499" fill="#FFB9B0"/>
<path d="M55.7948 225.81L57.7364 227.072C58.0277 227.266 58.3189 227.169 58.5131 226.878L62.6876 219.791L60.1635 218.432L55.6006 225.034C55.5035 225.228 55.6006 225.616 55.7948 225.81Z" fill="#8484EF"/>
<path d="M49.0016 210.762L49.6812 211.248L52.3995 207.364L51.7199 206.879C50.7491 206.199 49.3899 206.588 48.7103 207.656C47.8366 208.724 48.0307 210.18 49.0016 210.762Z" fill="#C4C4F7"/>
<path d="M46.4766 215.519L58.8061 217.364L61.6215 213.287L55.4082 202.607L46.4766 215.519Z" fill="#C4C4F7"/>
<path d="M47.2539 215.714L58.8068 217.364L59.8747 215.714L50.2635 211.442L47.2539 215.714Z" fill="#BBBBF2"/>
<path d="M63.8564 220.374C64.5359 220.859 65.5068 220.568 65.9922 219.791L66.4776 219.112C66.963 218.335 66.8659 217.364 66.1863 216.976C65.5068 216.49 64.5359 216.782 64.0505 217.558L63.5651 218.238C63.0797 218.917 63.1768 219.888 63.8564 220.374Z" fill="#C4C4F7"/>
<path d="M64.0505 217.461L63.5651 218.141C63.0797 218.917 63.1768 219.888 63.8564 220.277C64.5359 220.762 65.5068 220.471 65.9922 219.694L66.4776 219.014C66.4776 218.917 66.5747 218.917 66.5747 218.82C66.0893 219.403 65.2155 219.597 64.5359 219.209C63.9534 218.82 63.7593 217.947 64.1476 217.17C64.1476 217.364 64.1476 217.364 64.0505 217.461Z" fill="#BBBBF2"/>
<path d="M46.0893 215.908C46.4776 216.199 47.0601 216.005 47.3514 215.617L55.7976 203.287C56.0888 202.802 55.9917 202.316 55.6034 202.025C55.2151 201.734 54.6326 201.928 54.3413 202.316L45.8951 214.549C45.701 215.131 45.701 215.617 46.0893 215.908Z" fill="#A4A4F7"/>
<path d="M55.8941 202.316L48.9041 212.51C48.6128 212.995 48.0303 213.092 47.642 212.801C47.5449 212.704 47.4479 212.704 47.4479 212.607L45.9916 214.646C45.7004 215.131 45.7974 215.617 46.1858 215.908C46.5741 216.199 47.1566 216.005 47.4479 215.617L55.797 203.287C55.9911 202.996 55.9911 202.607 55.8941 202.316Z" fill="#8484EF"/>
<path d="M59.8761 219.5L60.6527 220.082C61.8177 220.859 63.5652 220.471 64.439 219.112L65.2156 217.947C66.0894 216.587 65.8952 214.84 64.7302 214.063L63.9535 213.481C62.7886 212.704 61.0411 213.092 60.1673 214.452L59.3907 215.617C58.5169 216.976 58.7111 218.723 59.8761 219.5Z" fill="#A4A4F7"/>
<path d="M59.4854 215.617L58.3204 217.364C58.0291 217.752 58.1262 218.335 58.4175 218.626L62.1066 221.15C62.4949 221.441 62.9804 221.247 63.2716 220.859L64.4366 219.112C64.1454 219.5 63.5629 219.694 63.2716 219.403L59.5825 216.879C59.1941 216.587 59.1941 216.005 59.4854 215.617Z" fill="#8484EF"/>
<path d="M56.1849 223.966C55.9907 222.898 56.282 221.83 56.8645 221.053C57.0586 220.762 57.3499 220.568 57.5441 220.277C57.6411 220.179 57.7382 220.082 57.9324 219.985C58.2236 219.888 58.5149 219.985 58.8061 220.179C59.0974 220.374 59.3886 220.568 59.5828 220.956C59.777 221.442 59.4857 221.83 59.0003 222.121L58.9032 222.218C58.9032 222.315 58.9032 222.412 59.0003 222.412C59.1945 222.704 59.2916 223.092 59.2916 223.383C59.2916 223.674 59.0003 223.966 58.612 223.869C58.5149 223.869 58.3207 223.771 58.2236 223.869V223.966C58.2236 224.257 58.2236 224.548 58.0295 224.742C58.0295 224.839 57.9324 224.839 57.8353 224.839C57.7382 224.839 57.7382 224.839 57.6411 224.839C57.447 224.742 57.1557 224.645 56.9616 224.548" fill="#FFB9B0"/>
<path d="M61.621 224.839C61.5239 224.451 61.4268 223.771 61.4268 223.286C61.4268 222.121 60.7473 221.053 59.7764 220.471C59.6793 220.471 59.5823 220.374 59.4852 220.374C59.3881 220.374 59.291 220.471 59.291 220.665C59.291 220.859 59.291 220.859 59.3881 221.053C59.4852 221.441 59.9706 222.121 59.8735 222.412C59.6793 222.995 59.4852 223.577 59.4852 224.16C59.4852 224.645 59.7764 225.519 60.3589 225.616" fill="#FFB9B0"/>
<path d="M47.4453 196.588L49.8724 202.413" stroke="#C4C4F7" stroke-width="0.803242" stroke-miterlimit="10" stroke-linecap="round" stroke-linejoin="round"/>
<path d="M42.2051 201.831L47.3505 205.617" stroke="#C4C4F7" stroke-width="0.803242" stroke-miterlimit="10" stroke-linecap="round" stroke-linejoin="round"/>
<path d="M39 208.821L45.3104 209.5" stroke="#C4C4F7" stroke-width="0.803242" stroke-miterlimit="10" stroke-linecap="round" stroke-linejoin="round"/>
<path d="M240.74 147.561C240.74 147.561 238.507 146.008 238.41 145.329C238.313 144.649 236.759 141.931 236.274 141.445C235.788 140.863 233.07 139.989 232.585 139.892C232.002 139.795 228.799 140.086 229.187 140.572C229.575 141.057 231.711 140.863 232.099 141.057C232.488 141.251 232.488 141.251 232.488 141.251C232.488 141.251 232.099 141.834 232.293 142.125C232.488 142.416 231.614 142.999 231.905 143.484C232.196 144.066 231.808 143.969 232.099 144.649C232.585 145.62 233.847 146.202 234.138 145.911C234.332 146.494 235.303 147.659 236.177 147.561C237.051 147.464 239.186 149.503 239.186 149.503" fill="#FFB9B0"/>
<path d="M275.204 136.203C275.301 137.756 275.204 140.377 275.593 140.766C275.981 141.154 277.437 141.057 277.437 141.057C277.437 141.057 272.389 147.367 272 147.076C271.515 146.688 265.593 141.931 266.952 141.639C268.311 141.348 269.573 141.445 269.573 140.766C269.573 140.086 269.476 139.407 269.476 138.727" fill="#FFB9B0"/>
<path d="M280.93 170.085C280.93 170.085 271.125 171.153 268.892 171.25C266.659 171.25 266.756 170.085 266.756 170.085C266.659 167.561 266.174 161.736 265.785 159.794C265.397 157.949 265.203 157.27 264.814 155.522C263.941 151.639 264.038 150.862 263.164 146.008L268.989 141.348C268.989 141.348 269.572 143.193 271.999 143.193C275.299 143.193 276.27 140.96 276.27 140.96L284.231 146.299L285.008 159.211L284.037 169.793" fill="#FCA70C"/>
<path d="M275.301 134.844C275.107 135.62 274.913 136.397 274.622 137.077C274.136 138.436 273.359 138.921 271.903 138.921C270.932 138.921 269.864 138.921 268.894 139.018C268.117 139.018 267.146 139.018 266.564 138.533C265.981 138.047 265.981 137.077 265.787 136.397C265.593 135.426 265.496 134.455 265.399 133.582C265.205 131.737 265.107 129.795 265.107 127.951C265.107 127.659 265.107 127.465 265.204 127.174C265.204 127.077 265.302 126.98 265.302 126.883C265.399 126.786 265.496 126.786 265.69 126.786C267.534 126.494 269.476 126.397 271.321 126.397C272.68 126.397 274.039 126.592 275.107 127.368C276.175 128.145 276.66 129.504 277.146 130.766C277.243 130.96 277.243 131.252 277.049 131.349" fill="#FFB9B0"/>
<path d="M253.361 205.035C253.361 205.035 253.653 206.976 253.944 207.656C254.235 208.335 256.371 207.753 256.565 207.267C256.662 206.879 255.885 203.675 255.885 203.675" fill="#ED9C80"/>
<path d="M257.342 207.85C257.536 208.53 257.73 209.986 257.73 209.986L255.594 210.957L255.206 210.665C255.206 210.665 254.623 211.345 254.041 211.636C253.555 211.83 252.487 212.122 251.905 212.219C249.963 212.413 248.604 212.024 248.507 211.83C248.022 210.762 250.546 210.471 251.031 210.277C252.487 209.889 253.264 208.627 253.458 207.85C253.555 207.267 253.458 207.17 253.749 207.17C253.749 207.17 254.041 207.17 254.332 207.462C254.72 207.85 255.303 208.044 255.885 207.85C256.177 207.753 256.468 207.462 256.662 207.17C256.565 207.073 257.147 207.073 257.342 207.85Z" fill="#38287C"/>
<path d="M263.073 179.599C259.675 180.278 255.403 180.278 251.908 179.89C252.394 181.249 253.559 182.997 254.044 185.035C255.5 191.443 256.083 200.083 256.471 205.423C256.471 205.423 255.792 206.782 253.462 205.714C250.064 197.268 244.045 180.181 244.142 176.395C244.239 171.638 255.986 170.57 264.626 169.405" fill="#453087"/>
<path d="M278.118 170.085C280.836 172.026 263.07 179.502 263.07 179.502C261.128 179.89 259.187 180.084 257.245 180.084C257.051 179.696 256.857 179.405 256.857 179.016C256.76 178.531 256.76 177.948 256.76 177.463C256.565 176.492 255.886 175.618 255.012 175.036C254.138 174.55 253.07 174.259 252.1 174.065C249.673 173.677 245.498 173.968 245.498 173.968C250.838 169.988 261.808 169.502 266.856 169.211C267.73 170.861 277.73 169.793 278.118 170.085Z" fill="#38287C"/>
<path d="M258.992 209.5C258.992 209.5 258.992 211.442 259.089 212.219C259.186 212.898 261.516 212.704 261.711 212.316C261.905 211.927 261.613 208.627 261.613 208.627" fill="#ED9C80"/>
<path d="M262.39 212.995C262.487 213.772 262.487 215.131 262.487 215.131L260.157 215.714L259.866 215.325C259.866 215.325 259.186 215.908 258.507 216.102C258.021 216.199 256.856 216.393 256.371 216.296C254.429 216.199 253.167 215.617 253.07 215.325C252.779 214.16 255.303 214.257 255.886 214.257C257.342 214.16 258.41 213.092 258.701 212.316C258.895 211.733 258.798 211.636 259.089 211.733C259.089 211.733 259.381 211.733 259.575 212.122C259.866 212.607 260.448 212.898 261.031 212.704C261.322 212.607 261.711 212.51 261.905 212.219C261.808 212.024 262.39 212.219 262.39 212.995Z" fill="#38287C"/>
<path d="M284.038 169.696C284.038 169.696 278.602 170.279 272 170.085C270.447 170.085 258.797 172.318 257.729 174.259C255.884 177.463 258.894 196.491 258.603 210.083C258.603 210.083 259.962 211.248 262.486 210.18C263.069 203.481 267.049 187.754 264.331 180.473C270.738 181.346 275.884 182.123 281.806 180.278C283.165 179.793 284.233 178.822 284.815 177.075C285.301 175.133 285.009 171.347 284.038 169.696Z" fill="#453087"/>
<path d="M268.892 141.348C268.892 141.348 267.533 141.445 267.242 141.445C266.077 141.542 264.912 141.737 263.747 142.125C262.194 142.707 261.029 144.164 259.767 145.329C258.505 146.396 252.097 152.61 250.835 152.804C249.67 152.998 239.088 145.814 239.088 145.814L236.467 148.435C236.467 148.435 247.923 159.017 251.32 159.017C252.971 159.017 262.097 154.26 265.009 152.319L268.892 141.348Z" fill="#FCA70C"/>
<path opacity="0.25" d="M251.416 156.978C249.086 157.076 238.31 148.921 237.048 147.95L236.562 148.435C236.562 148.435 248.018 159.017 251.416 159.017C252.775 159.017 259.377 155.716 263.26 153.483L264.231 152.901L263.649 149.309C263.649 149.309 253.94 156.784 251.416 156.978Z" fill="#CE4A30"/>
<path d="M240.448 171.832H266.66L262 156.493C261.709 155.619 260.932 155.037 260.058 155.037H237.147C236.273 155.037 235.594 155.911 235.885 156.687L240.448 171.832Z" fill="#A4A4F7"/>
<path d="M240.156 171.832H265.98L261.32 156.493C261.029 155.619 260.252 155.037 259.379 155.037H236.467C235.593 155.037 234.914 155.911 235.205 156.687L239.671 171.347C239.671 171.638 239.865 171.832 240.156 171.832Z" fill="#7A74D1"/>
<g opacity="0.25">
<path d="M280.448 148.726C279.186 154.649 278.895 159.211 278.506 163.483C273.944 165.231 272.099 167.949 267.536 169.891C267.536 169.891 264.041 169.308 263.653 170.667C263.459 171.444 267.827 172.026 267.827 172.026C272.002 172.026 282.972 169.017 283.652 168.823C284.428 168.628 286.564 154.649 286.661 147.173C286.661 146.105 286.661 144.94 285.982 144.066C285.593 143.581 285.108 143.29 284.623 143.096C281.71 141.639 279.574 141.154 276.274 140.96" fill="#CE4A30"/>
</g>
<path d="M268.212 170.764C267.727 170.182 266.853 170.085 266.076 170.085C265.494 170.085 264.911 170.182 264.329 170.182C264.038 170.182 263.746 170.279 263.746 170.57C263.746 170.861 265.009 170.57 265.688 170.764C264.329 170.861 262.97 170.958 261.611 170.861C261.416 170.861 261.319 170.861 261.125 170.861C260.931 170.958 260.834 171.056 260.834 171.25C260.834 171.347 260.931 171.444 261.028 171.541C261.416 171.832 261.902 172.026 262.387 172.123C264.426 172.512 266.659 172.415 268.504 171.541" fill="#FFB9B0"/>
<path d="M280.156 148.629C280.059 154.94 279.573 157.852 279.767 164.163C276.564 164.842 272.195 168.434 267.729 170.376C267.729 170.376 267.438 171.25 267.923 172.026C268.312 172.123 283.068 168.531 284.233 167.463C285.301 166.493 286.66 154.649 286.757 147.076C286.757 146.008 286.757 144.843 286.078 143.969C285.69 143.484 285.204 143.193 284.719 142.999C281.806 141.542 279.67 141.057 276.37 140.863" fill="#FCA70C"/>
<path opacity="0.45" d="M253.456 163.677C253.553 165.036 252 166.104 249.864 166.104C247.728 166.104 246.078 165.036 245.981 163.677C245.884 162.318 247.437 161.25 249.573 161.25C251.709 161.25 253.359 162.415 253.456 163.677Z" stroke="#A4A4F7" stroke-width="1.07099" stroke-miterlimit="10"/>
<path d="M252.02 163.794C252.049 163.044 251.03 162.395 249.745 162.345C248.459 162.295 247.393 162.862 247.363 163.612C247.334 164.362 248.353 165.011 249.639 165.061C250.924 165.111 251.99 164.544 252.02 163.794Z" fill="#A4A4F7"/>
<path d="M270.736 130.766C270.639 130.572 270.154 130.475 269.668 130.572C269.183 130.669 267.727 130.766 267.435 131.057C267.144 131.252 267.144 131.446 267.047 131.446C266.853 131.446 266.853 131.349 266.562 131.154C266.27 130.96 265.397 131.154 264.911 131.154C264.426 131.252 263.843 131.349 263.94 131.543C263.94 131.737 264.037 132.222 264.135 132.222C264.232 132.319 264.232 132.319 264.62 133.193C264.814 133.679 265.202 134.067 265.882 133.873C266.756 133.679 266.756 132.708 266.853 132.319C266.95 131.931 266.95 131.834 267.144 131.834C267.241 131.834 267.338 131.834 267.532 132.222C267.727 132.611 267.824 133.484 268.697 133.582C269.862 133.679 270.348 133.29 270.542 132.514C270.736 131.543 270.736 131.543 270.833 131.446L271.707 131.543V131.252C271.513 131.252 270.736 130.863 270.736 130.766ZM266.465 132.805C266.465 133.29 266.173 133.776 265.591 133.873C265.105 133.97 264.814 133.679 264.523 132.999C264.232 132.417 264.232 131.931 264.329 131.737C264.426 131.543 264.717 131.543 265.397 131.543C266.076 131.543 266.27 131.446 266.367 131.737C266.465 131.931 266.562 132.319 266.465 132.805ZM270.251 132.319C270.154 133.096 269.862 133.387 269.183 133.484C268.115 133.582 267.921 133.193 267.824 132.708C267.63 132.222 267.63 131.834 267.63 131.737C267.63 131.446 267.921 131.349 268.503 131.252C269.183 131.154 270.057 130.96 270.154 131.154C270.251 131.154 270.348 131.64 270.251 132.319Z" fill="#483A99"/>
<path d="M277.729 129.213C277.632 128.63 277.535 128.145 277.438 127.659C277.049 126.3 276.273 125.135 275.011 124.456C273.457 123.582 271.224 123.388 269.574 123.873C268.603 124.165 268.215 124.65 267.729 124.65C267.341 124.65 266.856 124.359 266.37 124.165C262.487 122.708 263.069 126.592 263.555 127.659C263.749 128.145 264.623 128.436 264.72 128.63C264.817 128.824 264.817 129.795 264.914 130.184C265.011 130.572 265.399 130.766 265.399 130.766C265.399 130.766 265.399 129.504 265.399 129.407C265.496 128.922 265.594 128.533 265.982 128.242C266.37 127.951 266.953 127.951 267.438 127.854C267.924 127.757 270.156 128.242 270.351 128.339C271.127 128.922 271.224 130.378 271.516 131.252C271.613 131.64 271.71 131.931 271.904 131.931C272.001 130.766 272.389 130.766 273.166 131.154C273.554 131.349 273.749 132.125 273.749 132.708C273.749 133.484 273.36 134.261 272.584 134.455C272.292 134.552 273.166 136.106 273.554 136.494C273.651 136.591 273.846 136.785 273.943 136.882C274.04 136.979 274.234 136.979 274.428 137.077C274.622 137.174 274.816 137.174 275.011 137.271C275.302 137.368 275.496 137.368 275.787 137.368C276.176 137.271 276.467 136.785 276.564 136.397C276.855 135.717 277.243 135.135 277.438 134.455C277.729 132.805 277.923 130.96 277.729 129.213Z" fill="#483A99"/>
<path d="M348.307 187.268H298.697L304.619 182.9V161.444C304.619 159.697 306.076 158.241 307.823 158.241H348.307C350.054 158.241 351.51 159.697 351.51 161.444V184.065C351.607 185.812 350.151 187.268 348.307 187.268Z" fill="#D5D2FF"/>
<path opacity="0.45" d="M347.335 162.318H324.617V164.454H347.335V162.318Z" fill="white"/>
<path opacity="0.45" d="M347.335 165.619H324.617V167.755H347.335V165.619Z" fill="white"/>
<path opacity="0.45" d="M347.335 168.823H324.617V170.958H347.335V168.823Z" fill="white"/>
<path opacity="0.45" d="M347.335 172.026H324.617V174.162H347.335V172.026Z" fill="white"/>
<path opacity="0.45" d="M340.442 175.813H324.617V177.948H340.442V175.813Z" fill="white"/>
<path d="M319.568 179.016H311.898C310.054 179.016 308.598 177.56 308.598 175.716V165.619C308.598 163.774 310.054 162.318 311.898 162.318H319.568C321.413 162.318 322.869 163.774 322.869 165.619V175.716C322.869 177.56 321.315 179.016 319.568 179.016Z" fill="#A9ADFF"/>
<path opacity="0.45" d="M322.869 181.055H308.598V182.803H322.869V181.055Z" fill="white"/>
<path d="M317.141 173.191H311.996C311.705 173.191 311.413 172.997 311.413 172.706L310.443 169.017C310.346 168.628 310.637 168.24 311.025 168.24H318.209C318.598 168.24 318.986 168.628 318.792 169.017L317.821 172.706C317.627 172.997 317.433 173.191 317.141 173.191Z" fill="white"/>
<path d="M318.015 173.968H311.802C311.705 173.968 311.705 173.871 311.705 173.871C311.705 173.774 311.802 173.774 311.802 173.774H317.918L320.054 166.201C320.054 166.104 320.151 166.104 320.151 166.104H321.51C321.608 166.104 321.608 166.201 321.608 166.201C321.608 166.298 321.51 166.298 321.51 166.298H320.248L318.113 173.871C318.113 173.968 318.113 173.968 318.015 173.968Z" fill="white"/>
<path d="M312.772 175.036C312.772 175.424 312.481 175.813 311.995 175.813C311.607 175.813 311.219 175.521 311.219 175.036C311.219 174.648 311.51 174.259 311.995 174.259C312.384 174.259 312.772 174.55 312.772 175.036Z" fill="white"/>
<path d="M317.431 175.813C317.86 175.813 318.208 175.465 318.208 175.036C318.208 174.607 317.86 174.259 317.431 174.259C317.002 174.259 316.654 174.607 316.654 175.036C316.654 175.465 317.002 175.813 317.431 175.813Z" fill="white"/>
<path d="M164.045 157.27H227.246L219.674 151.639V117.175C219.674 114.942 217.829 113 215.499 113H163.948C161.715 113 159.773 114.845 159.773 117.175V153.192C159.968 155.425 161.812 157.27 164.045 157.27Z" fill="#D5D2FF"/>
<g opacity="0.45">
<path d="M165.405 122.18H194.336V119.462H165.405V122.18Z" fill="white"/>
<path d="M165.405 126.263H194.336V123.545H165.405V126.263Z" fill="white"/>
<path d="M165.405 130.444H194.336V127.725H165.405V130.444Z" fill="white"/>
<path d="M165.405 134.412H194.336V131.694H165.405V134.412Z" fill="white"/>
<path d="M165.405 138.478H194.336V135.759H165.405V138.478Z" fill="white"/>
<path d="M165.405 145.817H194.336V143.099H165.405V145.817Z" fill="white"/>
<path d="M165.428 150.155H214.746V147.437H165.428V150.155Z" fill="white"/>
</g>
<path d="M200.741 140.669H210.546C212.876 140.669 214.721 138.824 214.721 136.494V123.582C214.721 121.252 212.876 119.407 210.546 119.407H200.741C198.411 119.407 196.566 121.252 196.566 123.582V136.397C196.566 138.727 198.411 140.669 200.741 140.669Z" fill="#C4C4F7"/>
<path opacity="0.45" d="M196.582 145.526H214.736V143.293H196.582V145.526Z" fill="white"/>
<path d="M203.847 133.193H210.449C210.837 133.193 211.128 132.902 211.225 132.611L212.487 127.951C212.585 127.465 212.196 126.883 211.711 126.883H202.585C202.002 126.883 201.614 127.368 201.808 127.951L203.07 132.611C203.167 132.902 203.459 133.193 203.847 133.193Z" fill="white"/>
<path d="M202.683 134.261H210.644C210.741 134.261 210.838 134.164 210.838 134.067C210.838 133.97 210.741 133.873 210.644 133.873H202.878L200.159 124.262C200.159 124.165 200.062 124.165 199.965 124.165H198.218C198.121 124.165 198.023 124.262 198.023 124.359C198.023 124.456 198.121 124.553 198.218 124.553H199.868L202.586 134.164C202.586 134.164 202.586 134.261 202.683 134.261Z" fill="white"/>
<path d="M209.383 135.523C209.383 136.009 209.771 136.494 210.354 136.494C210.839 136.494 211.324 136.106 211.324 135.523C211.324 134.941 210.936 134.552 210.354 134.552C209.868 134.552 209.383 135.038 209.383 135.523Z" fill="white"/>
<path d="M202.49 135.523C202.49 136.009 202.879 136.494 203.461 136.494C203.946 136.494 204.432 136.106 204.432 135.523C204.432 134.941 204.044 134.552 203.461 134.552C202.879 134.552 202.49 135.038 202.49 135.523Z" fill="white"/>
<path d="M310.251 339.3C325.64 339.3 338.114 337.996 338.114 336.388C338.114 334.779 325.64 333.475 310.251 333.475C294.863 333.475 282.389 334.779 282.389 336.388C282.389 337.996 294.863 339.3 310.251 339.3Z" fill="#EAE6FF"/>
<path d="M295.299 332.213C295.105 332.698 293.94 333.766 292.387 334.446C290.833 335.125 287.533 335.417 289.377 336.096C291.222 336.679 293.358 336.29 294.426 336.193C295.493 335.999 296.561 335.999 297.823 335.999C299.474 335.999 299.474 335.902 299.28 333.96C298.988 331.339 296.076 330.757 295.299 332.213Z" fill="#9AA3F4"/>
<path d="M325.686 331.242C325.589 331.728 326.366 333.378 325.006 334.543C323.647 335.708 320.638 336.97 322.676 336.97C324.715 336.97 326.657 336.582 327.628 335.999C328.696 335.514 327.822 334.737 329.084 334.349C330.734 333.863 330.443 332.601 329.569 331.825C328.404 329.398 325.977 329.592 325.686 331.242Z" fill="#9AA3F4"/>
<path d="M319.279 278.235C319.279 278.235 323.26 266.488 311.901 256.78C311.901 256.78 305.785 259.207 300.931 259.498C297.047 259.692 295.106 259.401 295.106 259.401C295.106 259.401 294.814 269.886 294.814 275.517L319.279 278.235Z" fill="#4A41A3"/>
<path d="M293.938 297.846C293.744 292.603 299.375 293.283 301.511 297.166C305.88 305.321 299.861 323.961 299.084 332.893C298.307 333.184 296.851 333.475 296.074 333.087C295.492 332.795 295.201 332.116 295.201 332.116C295.395 321.243 294.23 303.379 293.938 297.846Z" fill="#4A41A3"/>
<path d="M301.318 298.622C300.638 300.758 293.357 302.991 293.939 295.224C294.231 291.729 294.91 272.604 295.007 270.76C295.104 268.915 295.493 266.197 296.366 265.905C300.832 264.255 308.696 270.08 307.531 276.973C306.851 281.536 302.677 294.156 301.318 298.622Z" fill="#4A41A3"/>
<path d="M312.776 301.535C311.028 296.584 316.756 295.71 319.96 298.719C327.532 305.904 327.824 322.699 329.668 331.436C328.6 332.116 326.95 332.407 326.367 332.407C325.785 332.407 325.494 331.922 325.494 331.922C322.484 321.534 314.717 306.874 312.776 301.535Z" fill="#4A41A3"/>
<path d="M320.346 299.981C320.54 302.214 314.521 306.874 312.094 299.399C311.026 296.098 306.463 276.487 305.978 274.74C305.395 272.992 305.589 269.303 306.269 268.721C309.764 265.517 317.628 268.332 319.181 275.225C320.152 279.691 319.861 295.321 320.346 299.981Z" fill="#4A41A3"/>
<path d="M289.088 214.354C289.282 214.16 289.476 213.966 289.67 213.675C291.127 211.83 291.321 210.18 292.68 208.044C292.874 207.753 293.165 206.879 293.651 206.199C294.136 205.423 295.495 204.646 295.787 204.452C296.369 204.161 295.884 205.52 295.884 205.52C295.884 205.52 296.369 204.743 296.952 204.84C297.146 204.84 297.146 206.005 297.146 206.199C297.146 207.85 296.757 209.403 296.078 210.859C295.884 211.151 295.69 211.539 295.69 211.927C296.175 211.927 296.563 211.636 296.952 211.345C297.34 211.054 297.825 210.762 298.311 210.957C298.214 211.151 298.117 211.345 298.02 211.539C297.437 212.607 296.855 213.772 295.69 214.257C295.01 214.549 294.33 214.646 293.651 214.937C292.486 215.519 291.903 216.976 290.738 217.558" fill="#F2A181"/>
<path d="M295.883 214.743L292.485 213.287C292.193 213.189 291.999 212.801 292.193 212.51L295.203 205.229C295.3 204.937 295.688 204.743 295.98 204.937L299.378 206.394C299.669 206.491 299.863 206.879 299.669 207.17L296.659 214.452C296.562 214.743 296.271 214.84 295.883 214.743Z" fill="#5E5DBB"/>
<path d="M299.648 206.867L295.797 205.256L292.65 212.78L296.501 214.391L299.648 206.867Z" fill="#B4B4DB"/>
<path d="M299.571 221.733C299.571 221.733 296.659 221.927 294.038 222.704C290.057 223.869 288.698 225.713 287.339 226.49C289.96 223.092 292.97 216.005 292.97 216.005C292.97 216.005 289.378 213.092 288.989 213.772C288.601 214.452 273.65 231.926 274.039 234.839C274.233 236.004 275.98 237.169 277.534 237.072C281.805 236.975 286.659 235.421 291.902 233.674C294.135 232.897 294.911 234.548 294.911 234.548" fill="#7A74D1"/>
<path d="M287.34 226.49C287.34 226.49 285.496 230.276 284.913 230.567C284.331 230.859 286.273 229.791 287.34 228.723C288.408 227.655 289.865 224.742 289.865 224.742C289.282 224.839 287.34 226.49 287.34 226.49Z" fill="#6960C4"/>
<path d="M293.262 208.044C293.456 208.141 293.456 208.432 293.553 208.627C293.65 209.5 293.844 210.374 293.456 211.151C293.262 211.636 292.873 212.122 292.485 212.413C292 212.801 291.514 213.189 290.932 213.481" fill="#F2A181"/>
<path d="M299.669 201.734C298.698 202.025 298.116 203.287 297.824 204.161C297.436 205.229 297.242 206.394 297.048 207.462C296.951 208.238 296.854 209.112 297.242 209.792C297.436 210.18 297.63 210.471 297.922 210.762C298.019 210.957 298.213 211.151 298.407 211.248C298.601 211.345 298.795 211.442 299.086 211.345C299.378 211.248 299.475 210.859 299.572 210.568C300.154 208.432 300.737 206.394 301.999 204.549" fill="#170D54"/>
<path d="M298.599 208.335C298.599 207.656 297.92 207.267 297.24 207.947C296.755 208.529 296.561 209.597 296.561 210.374C296.561 211.345 297.24 211.539 297.92 211.636" fill="#F2A181"/>
<path d="M291.902 225.228C293.164 223.771 297.047 221.441 302.29 221.636C305.882 221.733 315.687 222.315 316.852 224.742C317.435 226.004 318.017 238.625 317.241 242.994C316.658 246.295 315.008 254.353 315.008 256.294C315.008 258.236 316.076 259.11 315.59 259.692C314.522 260.954 306.95 261.537 303.455 261.537C300.348 261.537 295.009 260.663 294.717 259.692C294.329 258.236 295.3 258.236 295.494 256.682C295.591 255.129 295.979 244.935 295.494 243.285C294.426 240.276 293.941 235.421 293.164 233.188C292.29 231.441 290.64 226.587 291.902 225.228Z" fill="#7A74D1"/>
<path d="M314.328 235.421C314.716 236.198 317.24 240.276 317.24 240.276L317.338 240.761C317.24 241.635 317.143 242.314 317.046 242.897C316.464 246.198 314.813 254.255 314.813 256.197C314.813 258.139 315.784 258.915 315.396 259.595C314.522 260.76 300.348 263.381 301.028 260.178C301.125 259.886 312.872 250.858 312.969 250.566C313.551 247.945 314.037 246.1 314.231 244.256C314.91 239.693 314.037 234.645 314.328 235.421Z" fill="#6960C4"/>
<path d="M299.378 217.073C299.378 217.073 299.378 221.15 299.184 221.344C298.99 221.539 298.213 221.927 298.213 221.927C298.213 221.927 298.795 225.519 299.669 225.228C300.543 224.936 306.465 222.024 306.465 222.024C306.465 222.024 305.591 221.636 305.591 221.344C305.591 221.053 306.368 214.549 306.368 214.549" fill="#FFBE9D"/>
<path d="M303.552 202.219C302.678 202.413 300.445 202.025 299.766 202.899C299.183 203.869 298.601 206.102 298.309 206.685C297.824 207.947 297.533 209.306 297.241 210.568C296.756 212.219 296.076 215.325 297.727 216.684C298.212 217.073 298.407 217.267 298.989 217.364C299.766 217.461 300.542 217.655 301.319 217.849C302.484 218.044 303.843 218.335 305.008 217.946C306.561 217.461 307.435 215.228 307.921 213.772L310.251 205.229L303.552 202.219Z" fill="#FFBE9D"/>
<path d="M299.281 226.781C299.281 226.781 298.893 242.8 298.311 252.508L300.641 255.712L302.291 251.634C302.291 251.634 302.971 239.887 300.738 226.781H299.281Z" fill="#3B2E7A"/>
<path d="M298.697 225.422L298.794 225.616C298.891 226.004 299.086 226.393 299.28 226.781L300.736 226.878C300.736 226.878 301.707 226.393 301.804 225.81C301.901 225.228 300.154 224.354 300.154 224.354L299.959 224.451C299.474 224.645 299.086 225.034 298.697 225.422Z" fill="#3B2E7A"/>
<path d="M305.786 220.276C305.786 220.276 306.756 220.859 307.436 221.927C306.659 223.674 305.009 226.684 303.164 228.043C302.291 225.713 300.252 224.354 300.252 224.354C300.252 224.354 305.3 223.48 305.786 220.276Z" fill="white"/>
<path d="M300.252 224.451C300.252 224.451 298.407 225.131 297.339 227.169C297.339 227.169 296.951 224.451 297.728 222.121C297.728 222.121 298.893 220.568 299.281 220.568C299.184 222.412 300.252 224.451 300.252 224.451Z" fill="white"/>
<path d="M300.443 260.178C298.696 260.469 298.016 261.148 296.948 262.119C296.851 262.216 296.754 262.313 296.754 262.41C296.754 262.507 296.948 262.605 297.045 262.605C297.919 262.702 298.016 262.216 298.793 261.925C299.278 261.731 299.861 261.44 300.346 261.245" fill="#F2A181"/>
<path d="M294.324 247.168L300.634 267.556C300.829 268.138 300.537 268.527 299.955 268.624L286.752 269.789C286.266 269.789 285.781 269.4 285.684 268.915L278.888 248.916C278.694 248.333 279.47 247.557 280.053 247.557L293.256 246.392C293.741 246.295 294.227 246.683 294.324 247.168Z" fill="#E9E6FF"/>
<path d="M293.938 247.654L300.152 267.653C300.346 268.235 300.055 268.624 299.472 268.721L286.269 269.886C285.783 269.886 285.298 269.497 285.201 269.012L278.988 249.013C278.793 248.43 279.085 248.042 279.667 247.945L292.87 246.78C293.259 246.78 293.744 247.168 293.938 247.654Z" fill="#E0D9FF"/>
<path d="M283.355 246.974L283.841 248.722L290.054 248.236L289.472 246.489L283.355 246.974Z" fill="white"/>
<path d="M284.519 245.421C284.616 245.809 285.102 247.363 285.102 247.363L288.014 247.071L287.431 245.13C287.14 244.256 286.267 243.673 285.49 243.673C284.713 243.771 284.228 244.547 284.519 245.421ZM285.199 245.324C285.004 244.838 285.296 244.45 285.781 244.353C286.267 244.353 286.752 244.644 286.849 245.13C287.043 245.615 286.752 246.003 286.267 246.101C285.781 246.198 285.296 245.809 285.199 245.324Z" fill="white"/>
<path d="M305.492 258.721C304.132 259.013 300.443 260.08 300.055 260.275C299.57 260.469 298.016 261.634 297.725 262.022C296.366 263.381 297.045 264.061 296.463 266.002C296.463 266.1 296.463 266.197 296.463 266.294C296.463 266.488 296.754 266.682 297.045 266.488C297.142 266.779 297.628 266.585 297.822 266.294C297.822 266.488 298.113 266.585 298.502 266.391C298.696 266.294 298.696 266.294 299.181 265.808C299.57 265.517 299.958 265.226 300.735 264.935C301.22 264.74 301.802 264.546 302.191 264.255C302.773 263.867 303.744 263.77 304.23 262.216C304.327 261.828 304.715 261.634 305.006 261.44C305.783 260.954 306.56 260.469 307.239 259.983" fill="#FFBE9D"/>
<path d="M314.036 232.703C314.618 234.839 317.046 249.401 317.046 249.401L303.26 259.401L304.425 262.41C304.425 262.41 320.929 256.877 322.288 253.09C323.55 249.304 323.55 232.218 318.987 226.199C317.531 224.257 314.618 223.286 314.618 223.286" fill="#7A74D1"/>
<path d="M299.86 263.964C299.86 263.964 299.763 264.061 299.472 264.255C299.278 264.449 298.987 264.643 298.793 264.935C298.598 265.226 298.307 265.517 298.113 265.711C297.919 265.905 297.725 266.002 297.725 266.002C297.725 266.002 298.016 265.323 298.598 264.74C298.793 264.449 299.181 264.255 299.375 264.061C299.666 264.061 299.86 263.964 299.86 263.964Z" fill="#F2A181"/>
<path d="M299.083 263.09C299.083 263.09 298.889 263.284 298.695 263.575C298.598 263.672 298.501 263.867 298.306 264.061C298.209 264.158 298.209 264.255 298.112 264.352C298.015 264.449 298.015 264.546 297.918 264.643C297.53 265.517 296.947 266.294 296.947 266.294C296.947 266.294 297.044 266.1 297.141 265.711C297.238 265.42 297.53 264.935 297.724 264.546C297.918 264.061 298.306 263.77 298.501 263.478C298.889 263.187 299.083 263.09 299.083 263.09Z" fill="#F2A181"/>
<path d="M298.211 262.313C298.211 262.313 298.114 262.508 297.92 262.799C297.823 262.896 297.726 263.09 297.531 263.284C297.434 263.478 297.337 263.673 297.24 263.867C297.046 264.255 296.949 264.74 296.755 265.032C296.658 265.323 296.561 265.614 296.561 265.614C296.561 265.614 296.561 265.42 296.658 265.032C296.755 264.643 296.852 264.255 297.046 263.867C297.143 263.673 297.24 263.478 297.337 263.284C297.434 263.09 297.628 262.993 297.726 262.896C298.114 262.508 298.211 262.313 298.211 262.313Z" fill="#F2A181"/>
<path d="M308.795 212.219C308.212 211.927 307.824 211.539 307.533 212.122C307.339 212.413 307.241 212.801 306.95 212.898C306.659 212.995 306.271 212.704 306.271 212.413C306.174 212.122 306.271 211.733 306.368 211.442C306.562 210.762 306.756 210.083 307.047 209.306C307.241 208.627 307.436 207.85 307.241 207.17C307.144 206.879 306.853 206.588 306.562 206.297C305.688 205.52 304.523 205.132 303.358 204.937C302.193 204.743 301.028 204.549 299.863 204.258C299.378 204.064 298.892 203.869 298.504 203.578C297.922 203.093 297.533 202.219 297.533 201.442C297.533 200.666 297.824 199.889 298.213 199.21C298.31 199.501 298.407 199.792 298.601 199.986C298.698 199.598 298.989 199.307 299.281 199.015C299.572 200.86 307.533 200.277 309.377 201.054C310.639 201.637 311.707 202.025 311.707 204.064C311.707 204.161 311.901 204.258 311.999 204.355C313.164 205.423 313.649 206.685 313.746 208.529C313.94 210.859 312.581 213.287 311.222 215.228C310.931 215.714 310.736 216.005 310.251 216.393C309.766 216.782 308.989 216.879 308.406 216.782C307.824 216.684 306.756 216.684 306.659 216.102C306.659 215.714 307.533 214.937 307.824 214.646" fill="#3B2E7A"/>
<path d="M306.658 214.354C306.658 214.354 306.561 214.743 306.852 215.034C307.046 215.325 307.532 215.228 307.823 215.131C308.697 214.84 309.279 214.063 309.376 213.189C309.571 212.219 308.988 211.151 308.114 211.442C307.629 211.636 307.241 212.219 307.241 212.801" fill="#FFBE9D"/>
<path d="M299.377 217.461L301.901 217.947C301.901 217.947 301.027 218.917 299.377 218.917" fill="#F2A181"/>
<g opacity="0.3">
<path d="M100.26 173.968L103.658 175.618L101.91 171.444" fill="#3939D3"/>
<path d="M89.6777 168.628C89.6777 172.415 92.8815 175.424 96.8619 175.424C100.842 175.424 104.046 172.415 104.046 168.628C104.046 164.842 100.842 161.833 96.8619 161.833C92.8815 161.833 89.6777 164.842 89.6777 168.628Z" fill="#3939D3"/>
<path d="M95.1133 166.396V171.25C95.1133 171.638 95.5016 171.929 95.8899 171.735L100.065 169.308C100.356 169.114 100.356 168.628 100.065 168.434L95.8899 165.91C95.5016 165.716 95.1133 166.007 95.1133 166.396Z" fill="#FEFEFE"/>
</g>
<g opacity="0.3">
<path d="M335.388 225.519L331.99 227.169L333.641 223.092" fill="#3939D3"/>
<path d="M345.874 220.179C345.874 223.966 342.67 226.975 338.69 226.975C334.71 226.975 331.506 223.966 331.506 220.179C331.506 216.393 334.71 213.384 338.69 213.384C342.67 213.384 345.874 216.393 345.874 220.179Z" fill="#3939D3"/>
<path d="M337.428 223.383C338.981 223.383 340.535 223.383 341.991 223.286C342.476 223.286 342.865 222.606 342.282 222.315C342.476 222.218 342.767 222.121 342.865 221.83C342.962 221.636 342.865 221.247 342.573 221.247C343.156 221.344 343.35 220.568 342.865 220.276C343.059 220.082 343.253 219.888 343.35 219.597C343.35 219.306 343.253 219.014 343.059 218.917C342.865 218.82 342.67 218.82 342.476 218.82C341.797 218.82 341.214 218.82 340.535 218.82C340.729 217.849 340.729 216.781 340.243 216.005C340.049 215.714 339.661 215.422 339.37 215.616C339.078 215.811 339.175 216.296 339.175 216.587C339.273 217.752 338.496 219.014 337.428 219.597C337.331 219.597 337.428 222.121 337.428 223.383Z" fill="#FEFEFE"/>
<path d="M336.846 219.597H334.516V223.48H336.846V219.597Z" fill="#FEFEFE"/>
</g>
<g opacity="0.3">
<path d="M226.662 166.687L229.089 163.968L225.691 164.648" fill="#3939D3"/>
<path d="M217.439 167.269C217.439 169.988 219.769 172.221 222.682 172.221C225.594 172.221 227.924 169.988 227.924 167.269C227.924 164.551 225.594 162.318 222.682 162.318C219.769 162.318 217.439 164.551 217.439 167.269Z" fill="#3939D3"/>
<path d="M221.615 169.599C222.683 169.599 223.654 169.599 224.625 169.599C224.916 169.599 225.207 169.114 224.819 168.92C225.013 168.823 225.11 168.726 225.207 168.628C225.304 168.434 225.207 168.24 225.013 168.143C225.401 168.24 225.499 167.658 225.207 167.463C225.401 167.366 225.499 167.172 225.499 166.978C225.499 166.784 225.499 166.59 225.304 166.493C225.207 166.396 225.013 166.396 224.916 166.396C224.528 166.396 224.042 166.396 223.654 166.396C223.751 165.716 223.848 164.939 223.46 164.357C223.363 164.163 223.071 163.968 222.877 164.066C222.683 164.163 222.683 164.551 222.78 164.745C222.78 165.619 222.392 166.493 221.615 166.881C221.615 166.881 221.615 168.726 221.615 169.599Z" fill="#FEFEFE"/>
<path d="M221.323 166.881H219.77V169.696H221.323V166.881Z" fill="#FEFEFE"/>
</g>
<g opacity="0.3">
<path d="M250.835 130.766C251.903 129.407 252.486 127.757 252.486 126.009C252.486 121.737 249.088 118.34 244.816 118.34C240.544 118.34 237.146 121.737 237.146 126.009C237.146 130.281 240.544 133.679 244.816 133.679C246.369 133.679 247.826 133.193 249.088 132.417L252.097 133.97L250.835 130.766Z" fill="#3939D3"/>
<path d="M241.61 123.873C242.386 123.194 243.551 123.194 244.231 123.873L244.716 124.359L245.202 123.873C245.978 123.097 247.143 123.194 247.823 123.873C248.503 124.65 248.503 125.815 247.823 126.495L245.978 128.339C245.687 128.63 245.299 128.824 244.91 128.824C244.328 128.922 243.745 128.727 243.26 128.242L241.513 126.397C240.833 125.718 240.93 124.553 241.61 123.873Z" fill="white"/>
</g>
</svg>
