<svg width="396" height="344" viewBox="0 0 396 344" fill="none" xmlns="http://www.w3.org/2000/svg">
<path d="M396 0H0V344H396V0Z" fill="#9BC1DE"/>
<path d="M84.038 60.8V56.6H76.058V79H80.258V71.02H84.038V66.82H80.258V60.8H84.038ZM86.2692 56.6V79H90.4692V56.6H86.2692ZM100.519 56.6V67.66L96.907 56.6H92.707V79H96.907V67.94L100.519 79H104.719V56.6H100.519ZM113.72 79H117.92L115.176 56.6H109.436L106.692 79H110.892L111.2 75.192H113.412L113.72 79ZM111.536 70.992L112.32 61.052L113.076 70.992H111.536ZM127.695 56.6V67.66L124.083 56.6H119.883V79H124.083V67.94L127.695 79H131.895V56.6H127.695ZM140.47 65.7H144.67V62.704C144.67 58.196 142.794 56.32 139.406 56.32C136.018 56.32 134.142 58.196 134.142 62.704V72.896C134.142 77.404 136.018 79.28 139.406 79.28C142.794 79.28 144.67 77.404 144.67 72.896V69.9H140.47V72.616C140.47 74.52 140.33 75.08 139.406 75.08C138.482 75.08 138.342 74.52 138.342 72.616V62.984C138.342 61.08 138.482 60.52 139.406 60.52C140.33 60.52 140.47 61.08 140.47 62.984V65.7ZM154.903 60.8V56.6H146.923V79H154.903V74.8H151.123V69.9H154.903V65.7H151.123V60.8H154.903ZM169.753 79H173.953L171.209 56.6H165.469L162.725 79H166.925L167.233 75.192H169.445L169.753 79ZM167.569 70.992L168.353 61.052L169.109 70.992H167.569ZM183.728 56.6V67.66L180.116 56.6H175.916V79H180.116V67.94L183.728 79H187.928V56.6H183.728ZM194.374 56.6H190.174V79H194.374C199.162 79 200.758 77.348 200.758 72.896V62.704C200.758 58.196 199.162 56.6 194.374 56.6ZM194.374 74.8V60.8C195.998 60.8 196.558 61.08 196.558 62.704V72.896C196.558 74.52 195.998 74.8 194.374 74.8ZM212.801 74.8V56.6H208.601V79H216.581V74.8H212.801ZM226.792 60.8V56.6H218.812V79H226.792V74.8H223.012V69.9H226.792V65.7H223.012V60.8H226.792ZM236.051 79H240.251L237.507 56.6H231.767L229.023 79H233.223L233.531 75.192H235.743L236.051 79ZM233.867 70.992L234.651 61.052L235.407 70.992H233.867ZM246.415 56.6H242.215V79H246.415C251.203 79 252.799 77.348 252.799 72.896V62.704C252.799 58.196 251.203 56.6 246.415 56.6ZM246.415 74.8V60.8C248.039 60.8 248.599 61.08 248.599 62.704V72.896C248.599 74.52 248.039 74.8 246.415 74.8ZM263.031 60.8V56.6H255.051V79H263.031V74.8H259.251V69.9H263.031V65.7H259.251V60.8H263.031ZM275.846 77.012V73.54C275.846 71.44 275.202 70.292 273.774 69.704C275.09 68.752 275.846 67.156 275.846 64.692V62.704C275.846 58.196 274.25 56.6 269.462 56.6H265.262V79H269.462V70.796C271.086 70.796 271.646 71.076 271.646 72.7V77.012C271.646 77.852 271.674 78.664 271.954 79H276.154C275.874 78.664 275.846 77.852 275.846 77.012ZM271.646 62.704V64.692C271.646 66.316 271.086 66.596 269.462 66.596V60.8C271.086 60.8 271.646 61.08 271.646 62.704ZM284.349 65.616C282.781 64.412 282.053 63.768 282.053 62.144C282.053 61.08 282.277 60.52 282.921 60.52C283.565 60.52 283.901 61.08 283.901 63.264H288.101C288.101 58.476 286.449 56.32 282.921 56.32C279.393 56.32 277.853 58.476 277.853 62.144C277.853 66.372 280.009 67.716 282.053 69.368C283.901 70.88 284.181 71.552 284.181 73.176C284.181 74.52 284.013 75.08 283.229 75.08C282.445 75.08 282.053 74.52 282.053 71.216H277.853C277.853 77.684 279.561 79.28 283.229 79.28C286.897 79.28 288.381 77.124 288.381 73.176C288.381 68.948 286.701 67.408 284.349 65.616ZM297.466 56.6V65.7H294.834V56.6H290.634V79H294.834V69.9H297.466V79H301.666V56.6H297.466ZM303.908 56.6V79H308.108V56.6H303.908ZM314.546 56.6H310.346V79H314.546V71.636C319.334 71.552 320.93 69.984 320.93 65.532V62.704C320.93 58.196 319.334 56.6 314.546 56.6ZM314.546 67.436V60.8C316.17 60.8 316.73 61.08 316.73 62.704V65.532C316.73 67.156 316.17 67.436 314.546 67.436Z" fill="#00376A"/>
<path d="M177.634 39.9317C177.634 42.2425 176.067 43.535 173.404 43.535H167.881V36.1717H173.286C175.949 36.1717 177.634 37.5817 177.634 39.9317ZM176.968 28.5342C176.968 30.7667 175.479 31.9417 172.894 31.9417H167.881V25.0875H172.894C175.479 25.0875 176.968 26.3408 176.968 28.5342ZM183.195 40.5975C183.195 37.3858 181.002 34.5267 177.908 33.9783C180.571 33.1167 182.569 31.0408 182.569 27.7117C182.569 23.6383 179.396 20.6617 173.678 20.6617H162.398V48H174.187C179.866 48 183.195 44.945 183.195 40.5975ZM202.801 39.9317C202.801 42.2425 201.234 43.535 198.571 43.535H193.049V36.1717H198.454C201.117 36.1717 202.801 37.5817 202.801 39.9317ZM202.135 28.5342C202.135 30.7667 200.647 31.9417 198.062 31.9417H193.049V25.0875H198.062C200.647 25.0875 202.135 26.3408 202.135 28.5342ZM208.363 40.5975C208.363 37.3858 206.169 34.5267 203.075 33.9783C205.739 33.1167 207.736 31.0408 207.736 27.7117C207.736 23.6383 204.564 20.6617 198.845 20.6617H187.565V48H199.354C205.034 48 208.363 44.945 208.363 40.5975ZM231.298 48H237.095L227.264 20.6225H220.88L211.049 48H216.806L218.608 42.7908H229.496L231.298 48ZM228.008 38.4042H220.096L224.052 26.9675L228.008 38.4042Z" fill="#00376A"/>
<line x1="176" y1="85.8539" x2="220.615" y2="85.8539" stroke="#00376A" stroke-width="0.292219"/>
<mask id="mask0_245_27596" style="mask-type:alpha" maskUnits="userSpaceOnUse" x="0" y="0" width="396" height="344">
<path d="M396 0H0V344H396V0Z" fill="#9BC1DE"/>
</mask>
<g mask="url(#mask0_245_27596)">
<path fill-rule="evenodd" clip-rule="evenodd" d="M208.985 108.751C213.696 108.751 217.543 105.983 217.543 102.567C217.543 99.151 213.696 96.3824 208.985 96.3824C204.275 96.3824 200.428 99.151 200.428 102.567C200.464 105.947 204.275 108.751 208.985 108.751Z" fill="white"/>
<path fill-rule="evenodd" clip-rule="evenodd" d="M217.47 111.664C221.065 111.664 224.014 109.542 224.014 106.918C224.014 104.293 221.065 102.171 217.47 102.171C213.874 102.171 210.926 104.293 210.926 106.918C210.926 109.542 213.874 111.664 217.47 111.664Z" fill="white"/>
<path fill-rule="evenodd" clip-rule="evenodd" d="M199.168 109.47C202.368 109.47 204.957 107.601 204.957 105.264C204.957 102.962 202.332 101.057 199.168 101.057C195.968 101.057 193.379 102.926 193.379 105.264C193.379 107.601 196.004 109.47 199.168 109.47Z" fill="white"/>
<path fill-rule="evenodd" clip-rule="evenodd" d="M207.584 115.116C211.791 115.116 215.206 112.635 215.206 109.578C215.206 106.522 211.791 104.041 207.584 104.041C203.377 104.041 199.961 106.522 199.961 109.578C199.961 112.635 203.377 115.116 207.584 115.116Z" fill="white"/>
<path fill-rule="evenodd" clip-rule="evenodd" d="M230.596 161.93C230.596 162.218 230.308 162.434 229.984 162.434C229.625 162.434 229.373 162.218 229.373 161.93V109.722C229.373 109.434 229.661 109.219 229.984 109.219C230.344 109.219 230.596 109.434 230.596 109.722V161.93Z" fill="#383838"/>
<path fill-rule="evenodd" clip-rule="evenodd" d="M36 383.6L125.89 251.389L165.298 254.769L179.932 250.994L270.074 383.6H36Z" fill="#012C54"/>
<path fill-rule="evenodd" clip-rule="evenodd" d="M201.796 383.6L165.301 254.769L179.935 250.994L270.077 383.6H201.796Z" fill="#214B87"/>
<path fill-rule="evenodd" clip-rule="evenodd" d="M165.299 254.769L125.891 251.389L153.038 211.442L165.299 254.769Z" fill="#D3E3F0"/>
<path fill-rule="evenodd" clip-rule="evenodd" d="M153.035 211.442L179.93 250.994L165.296 254.769L153.035 211.442Z" fill="white"/>
<path fill-rule="evenodd" clip-rule="evenodd" d="M99.9648 349.55L199.815 202.669L243.61 206.408L259.862 202.237L360 349.55H99.9648Z" fill="#00376A"/>
<path fill-rule="evenodd" clip-rule="evenodd" d="M284.168 349.55L243.609 206.408L259.862 202.237L359.999 349.55H284.168Z" fill="#214B87"/>
<path fill-rule="evenodd" clip-rule="evenodd" d="M243.607 206.408L199.812 202.669L229.98 158.263L243.607 206.408Z" fill="#D3E3F0"/>
<path fill-rule="evenodd" clip-rule="evenodd" d="M229.984 158.263L259.864 202.237L243.612 206.408L229.984 158.263Z" fill="white"/>
<path d="M148 179.333C152.607 179.333 156.342 176.629 156.342 173.293C156.342 169.956 152.607 167.252 148 167.252C143.393 167.252 139.658 169.956 139.658 173.293C139.658 176.629 143.393 179.333 148 179.333Z" fill="white"/>
<path fill-rule="evenodd" clip-rule="evenodd" d="M141.242 181.203C144.766 181.203 147.642 179.117 147.642 176.565C147.642 174.012 144.766 171.926 141.242 171.926C137.718 171.926 134.842 174.012 134.842 176.565C134.842 179.117 137.718 181.203 141.242 181.203Z" fill="white"/>
<path fill-rule="evenodd" clip-rule="evenodd" d="M155.841 180.52C158.969 180.52 161.522 178.686 161.522 176.421C161.522 174.155 158.969 172.322 155.841 172.322C152.713 172.322 150.16 174.155 150.16 176.421C150.16 178.686 152.713 180.52 155.841 180.52Z" fill="white"/>
<path d="M150.592 182.21C152.876 182.21 154.727 180.874 154.727 179.225C154.727 177.577 152.876 176.241 150.592 176.241C148.308 176.241 146.457 177.577 146.457 179.225C146.457 180.874 148.308 182.21 150.592 182.21Z" fill="white"/>
<path fill-rule="evenodd" clip-rule="evenodd" d="M269.541 180.448C274.863 180.448 279.214 177.284 279.214 173.436C279.214 169.589 274.863 166.425 269.541 166.425C264.22 166.425 259.869 169.553 259.869 173.436C259.869 177.32 264.22 180.448 269.541 180.448Z" fill="white"/>
<path d="M261.702 174.946C265.793 174.946 269.109 172.548 269.109 169.589C269.109 166.63 265.793 164.232 261.702 164.232C257.611 164.232 254.295 166.63 254.295 169.589C254.295 172.548 257.611 174.946 261.702 174.946Z" fill="white"/>
<path fill-rule="evenodd" clip-rule="evenodd" d="M278.672 174.551C282.303 174.551 285.252 172.43 285.252 169.805C285.252 167.18 282.303 165.059 278.672 165.059C275.04 165.059 272.092 167.18 272.092 169.805C272.092 172.394 275.04 174.551 278.672 174.551Z" fill="white"/>
<path d="M270.331 170.092C273.807 170.092 276.624 168.048 276.624 165.526C276.624 163.004 273.807 160.96 270.331 160.96C266.856 160.96 264.039 163.004 264.039 165.526C264.039 168.048 266.856 170.092 270.331 170.092Z" fill="white"/>
<path fill-rule="evenodd" clip-rule="evenodd" d="M217.256 150.676L227.324 153.049L224.915 165.706L223.513 155.818L215.423 155.135L212.043 184.619L209.598 154.416L217.256 150.676Z" fill="#364654"/>
<path fill-rule="evenodd" clip-rule="evenodd" d="M209.957 137.984L209.598 154.416L218.191 150.892L215.998 137.84L209.957 137.984Z" fill="white"/>
<path fill-rule="evenodd" clip-rule="evenodd" d="M209.96 137.984L212.225 154.667L208.198 156.141L207.73 139.386L209.96 137.984Z" fill="#5C7082"/>
<path fill-rule="evenodd" clip-rule="evenodd" d="M216 137.84L216.647 152.69L219.919 151.935L218.014 137.516L216 137.84Z" fill="#5C7082"/>
<path fill-rule="evenodd" clip-rule="evenodd" d="M213.189 129.929L208.047 130.756L208.982 135.179L209.593 135.215L210.168 136.509L210.528 136.402L211.031 138.559L215.13 137.264L213.189 129.929Z" fill="#E8DABD"/>
<path fill-rule="evenodd" clip-rule="evenodd" d="M208.407 132.698L207.076 130.972L213.189 129.929L214.627 135.323L211.75 132.159L208.407 132.698Z" fill="#383838"/>
<path fill-rule="evenodd" clip-rule="evenodd" d="M212.937 132.59C212.577 132.626 212.289 133.058 212.325 133.561C212.361 134.064 212.721 134.46 213.08 134.424C213.44 134.388 213.728 133.957 213.692 133.453C213.656 132.95 213.332 132.59 212.937 132.59Z" fill="#E8DABD"/>
<path fill-rule="evenodd" clip-rule="evenodd" d="M210.357 141.076L202.482 160.528L207.696 139.566L210.357 141.076Z" fill="#5C7082"/>
<path fill-rule="evenodd" clip-rule="evenodd" d="M204.316 155.998L202.482 160.528L203.633 155.818L204.316 155.998Z" fill="#E8DABD"/>
<path fill-rule="evenodd" clip-rule="evenodd" d="M204.316 155.998L203.884 158.155L203.633 155.818L204.316 155.998Z" fill="#E8DABD"/>
<path fill-rule="evenodd" clip-rule="evenodd" d="M216.139 139.026L221.532 133.597L226.17 124.5L223.33 134.819L217.181 142.946L216.139 139.026Z" fill="#5C7082"/>
<path fill-rule="evenodd" clip-rule="evenodd" d="M224.191 128.383L226.169 124.5L225.018 128.707L224.191 128.383Z" fill="#E8DABD"/>
<path fill-rule="evenodd" clip-rule="evenodd" d="M224.191 128.383L226.313 126.334L225.018 128.707L224.191 128.383Z" fill="#E8DABD"/>
<path fill-rule="evenodd" clip-rule="evenodd" d="M210.82 137.408L213.157 137.912L212.294 139.889L209.885 137.984L210.82 137.408Z" fill="#E6E6E6"/>
<path fill-rule="evenodd" clip-rule="evenodd" d="M210.82 137.408L213.157 137.912L212.222 139.314L209.885 137.984L210.82 137.408Z" fill="white"/>
<path fill-rule="evenodd" clip-rule="evenodd" d="M215.132 137.193L213.154 137.912L214.125 139.853L215.995 137.84L215.132 137.193Z" fill="#E6E6E6"/>
<path fill-rule="evenodd" clip-rule="evenodd" d="M215.132 137.193L213.154 137.912L214.269 139.278L215.995 137.84L215.132 137.193Z" fill="white"/>
<path fill-rule="evenodd" clip-rule="evenodd" d="M212.547 138.847L212.978 139.602L213.554 139.53L213.805 138.703L213.158 137.912L212.547 138.847Z" fill="#F978AE"/>
<path fill-rule="evenodd" clip-rule="evenodd" d="M213.553 139.53L212.977 139.602L212.941 145.319L214.056 148.411L214.595 145.247L213.553 139.53Z" fill="#F978AE"/>
<path fill-rule="evenodd" clip-rule="evenodd" d="M195.104 182.821L205.172 185.194L202.763 197.851L201.36 187.963L193.27 187.279L189.89 216.764L187.445 186.56L195.104 182.821Z" fill="#012B52"/>
<path fill-rule="evenodd" clip-rule="evenodd" d="M187.805 170.128L187.445 186.56L196.039 183.037L193.845 169.985L187.805 170.128Z" fill="white"/>
<path fill-rule="evenodd" clip-rule="evenodd" d="M187.805 170.128L190.07 186.812L186.043 188.286L185.791 171.387L187.805 170.128Z" fill="#00376A"/>
<path fill-rule="evenodd" clip-rule="evenodd" d="M193.848 169.985L194.495 184.834L197.767 184.079L195.861 169.661L193.848 169.985Z" fill="#00376A"/>
<path fill-rule="evenodd" clip-rule="evenodd" d="M188.162 162.506L193.304 161.643L193.843 166.101L193.268 166.353L193.16 167.611L192.585 167.935L192.98 169.985L188.701 170.092L188.162 162.506Z" fill="#E8DABD"/>
<path fill-rule="evenodd" clip-rule="evenodd" d="M193.376 162.506L193.304 161.643L188.162 162.506L188.558 168.079L190.248 164.16L193.376 162.506Z" fill="#F978AE"/>
<path fill-rule="evenodd" clip-rule="evenodd" d="M189.244 164.987C189.604 164.879 189.999 165.238 190.143 165.706C190.251 166.209 190.071 166.677 189.712 166.785C189.352 166.892 188.956 166.533 188.813 166.065C188.669 165.526 188.885 165.059 189.244 164.987Z" fill="#E8DABD"/>
<path fill-rule="evenodd" clip-rule="evenodd" d="M188.199 173.221L180.324 192.673L185.79 171.387L188.199 173.221Z" fill="#00376A"/>
<path fill-rule="evenodd" clip-rule="evenodd" d="M182.158 188.142L180.324 192.673L181.475 187.963L182.158 188.142Z" fill="#E8DABD"/>
<path fill-rule="evenodd" clip-rule="evenodd" d="M182.158 188.142L181.726 190.3L181.475 187.963L182.158 188.142Z" fill="#E8DABD"/>
<path fill-rule="evenodd" clip-rule="evenodd" d="M193.984 171.171L199.378 165.742L204.016 156.645L201.176 166.964L195.027 175.09L193.984 171.171Z" fill="#00376A"/>
<path fill-rule="evenodd" clip-rule="evenodd" d="M202.037 160.528L204.015 156.645L202.864 160.852L202.037 160.528Z" fill="#E8DABD"/>
<path fill-rule="evenodd" clip-rule="evenodd" d="M202.037 160.528L204.159 158.479L202.864 160.852L202.037 160.528Z" fill="#E8DABD"/>
<path fill-rule="evenodd" clip-rule="evenodd" d="M188.667 169.553L191.004 170.057L190.141 172.034L187.732 170.128L188.667 169.553Z" fill="#E6E6E6"/>
<path fill-rule="evenodd" clip-rule="evenodd" d="M188.667 169.553L191.004 170.057L190.07 171.459L187.732 170.128L188.667 169.553Z" fill="white"/>
<path fill-rule="evenodd" clip-rule="evenodd" d="M192.981 169.337L191.004 170.056L191.975 171.998L193.844 169.985L192.981 169.337Z" fill="#E6E6E6"/>
<path fill-rule="evenodd" clip-rule="evenodd" d="M192.981 169.337L191.004 170.056L192.119 171.423L193.844 169.985L192.981 169.337Z" fill="white"/>
<path fill-rule="evenodd" clip-rule="evenodd" d="M190.395 170.991L190.826 171.746L191.401 171.675L191.653 170.848L191.006 170.056L190.395 170.991Z" fill="#FFCC00"/>
<path fill-rule="evenodd" clip-rule="evenodd" d="M191.402 171.675L190.827 171.746L190.791 177.463L191.906 180.556L192.445 177.392L191.402 171.675Z" fill="#FFCC00"/>
<path fill-rule="evenodd" clip-rule="evenodd" d="M170.124 195.765L172.102 204.251L169.549 204.179L170.124 195.765Z" fill="#FFCC00"/>
<path fill-rule="evenodd" clip-rule="evenodd" d="M173.896 214.606L183.172 217.734L180.799 230.391L179.397 220.503L171.918 218.453L167.927 249.304L166.74 218.453L173.896 214.606Z" fill="#E8DABD"/>
<path fill-rule="evenodd" clip-rule="evenodd" d="M165.805 202.633L166.38 214.606L173.176 213.132L171.881 202.525L165.805 202.633Z" fill="white"/>
<path fill-rule="evenodd" clip-rule="evenodd" d="M166.383 214.606L167.066 227.442L179.723 216.692L173.179 213.132L166.383 214.606Z" fill="#038894"/>
<path fill-rule="evenodd" clip-rule="evenodd" d="M167.173 202.561L167.641 216.044L165.16 216.476L165.088 202.705L167.173 202.561Z" fill="#04ABBA"/>
<path fill-rule="evenodd" clip-rule="evenodd" d="M170.516 202.525L172.853 214.786L176.125 214.031L172.529 202.201L170.516 202.525Z" fill="#04ABBA"/>
<path fill-rule="evenodd" clip-rule="evenodd" d="M166.309 195.873L170.731 194.363L171.882 198.642L171.271 198.893L170.875 200.871L170.336 200.943L170.515 202.525L167.172 202.597L166.309 195.873Z" fill="#E8DABD"/>
<path fill-rule="evenodd" clip-rule="evenodd" d="M168.862 204.323C169.797 204.323 170.516 203.532 170.516 202.561C170.516 201.59 169.761 200.799 168.862 200.799C167.927 200.799 167.208 201.59 167.208 202.561C167.172 203.532 167.927 204.323 168.862 204.323Z" fill="#E8DABD"/>
<path fill-rule="evenodd" clip-rule="evenodd" d="M166.922 206.049L155.164 223.415L165.088 202.597L166.922 206.049Z" fill="#04ABBA"/>
<path fill-rule="evenodd" clip-rule="evenodd" d="M157.897 219.388L155.164 223.415L157.285 219.029L157.897 219.388Z" fill="#E8DABD"/>
<path fill-rule="evenodd" clip-rule="evenodd" d="M157.898 219.388L157.035 221.366L157.287 219.029L157.898 219.388Z" fill="#E8DABD"/>
<path fill-rule="evenodd" clip-rule="evenodd" d="M171.092 195.729C171.919 194.327 170.697 193.931 168.719 194.327C163.47 195.334 164.009 200.835 167.029 204.898L168.036 198.246L171.092 195.729Z" fill="#FFCC00"/>
<path fill-rule="evenodd" clip-rule="evenodd" d="M167.281 197.491C167.641 197.383 168.037 197.743 168.18 198.21C168.288 198.714 168.108 199.181 167.749 199.289C167.389 199.397 166.994 199.037 166.85 198.57C166.706 198.066 166.886 197.599 167.281 197.491Z" fill="#E8DABD"/>
<path fill-rule="evenodd" clip-rule="evenodd" d="M172.527 202.201L177.417 198.282L182.056 189.185L179.215 199.469L172.743 206.444L172.527 202.201Z" fill="#04ABBA"/>
<path fill-rule="evenodd" clip-rule="evenodd" d="M180.076 193.068L182.054 189.185L180.903 193.392L180.076 193.068Z" fill="#E8DABD"/>
<path fill-rule="evenodd" clip-rule="evenodd" d="M180.076 193.068L182.198 190.983L180.903 193.392L180.076 193.068Z" fill="#E8DABD"/>
<path d="M152.273 219.749L149.564 225.148L157.856 229.307L160.565 223.908L152.273 219.749Z" fill="#C93E78"/>
<path fill-rule="evenodd" clip-rule="evenodd" d="M155.523 226.831L153.006 225.573L153.545 224.458L150.669 223.02L149.59 225.177L157.86 229.312L158.938 227.155L156.062 225.717L155.523 226.831Z" fill="#F978AE"/>
<path d="M154.029 224.674L153.707 225.316L155.282 226.106L155.604 225.464L154.029 224.674Z" fill="#FFCC00"/>
<path fill-rule="evenodd" clip-rule="evenodd" d="M159.227 221.294L155.164 219.245L154.373 220.827L152.251 219.748L150.885 222.517L153.761 223.955L156.278 225.213L159.155 226.651L160.521 223.883L158.4 222.804L159.227 221.294ZM155.128 221.186L155.559 220.323L158.184 221.654L157.752 222.517L155.128 221.186Z" fill="#F978AE"/>
<path fill-rule="evenodd" clip-rule="evenodd" d="M157.896 219.388L157.033 221.366L157.285 219.029L157.896 219.388Z" fill="#E8DABD"/>
<path fill-rule="evenodd" clip-rule="evenodd" d="M229.375 113.39C241.96 108.823 250.877 117.309 262.778 113.39C261.196 115.547 259.614 117.704 257.996 119.826C259.578 122.343 261.16 124.86 262.778 127.377C250.337 131.583 242.463 124.212 229.375 127.377C229.375 122.738 229.375 118.064 229.375 113.39Z" fill="#FFCC00"/>
</g>
</svg>
