<svg width="617" height="420" viewBox="0 0 617 420" fill="none" xmlns="http://www.w3.org/2000/svg">
<rect y="65" width="617" height="50" fill="white"/>
<path d="M24.6 93.44C26.08 93.44 27.24 92.3 27.24 90.84C27.24 89.36 26.08 88.22 24.6 88.22C23.16 88.22 22 89.36 22 90.84C22 92.3 23.16 93.44 24.6 93.44ZM50.2689 83.58V93.94L43.4089 83.58H41.1289V97.5H43.4089V87.12L50.2689 97.5H52.5489V83.58H50.2689ZM60.183 88.22C61.883 88.22 63.223 89.3 63.263 91H57.163C57.403 89.26 58.643 88.22 60.183 88.22ZM65.343 94.22H62.883C62.463 95.08 61.683 95.76 60.283 95.76C58.603 95.76 57.303 94.66 57.143 92.84H65.563C65.623 92.46 65.643 92.1 65.643 91.72C65.643 88.48 63.423 86.3 60.283 86.3C57.023 86.3 54.783 88.52 54.783 91.98C54.783 95.44 57.123 97.68 60.283 97.68C62.983 97.68 64.723 96.14 65.343 94.22ZM68.2467 94.44C68.2467 96.68 69.4667 97.5 71.4267 97.5H73.2267V95.6H71.8267C70.8667 95.6 70.5467 95.26 70.5467 94.44V88.34H73.2267V86.48H70.5467V83.74H68.2467V86.48H66.9467V88.34H68.2467V94.44ZM77.4681 97.5H79.8681L82.0881 89.36L84.3081 97.5H86.7081L90.1281 86.48H87.8881L85.6081 95.3L83.3681 86.48H80.9881L78.6481 95.34L76.3481 86.48H74.0281L77.4681 97.5ZM102.332 91.98C102.332 88.52 99.852 86.3 96.712 86.3C93.572 86.3 91.092 88.52 91.092 91.98C91.092 95.44 93.472 97.68 96.612 97.68C99.772 97.68 102.332 95.44 102.332 91.98ZM93.412 91.98C93.412 89.48 94.952 88.28 96.672 88.28C98.372 88.28 99.992 89.48 99.992 91.98C99.992 94.48 98.312 95.7 96.612 95.7C94.892 95.7 93.412 94.48 93.412 91.98ZM106.866 91.7C106.866 89.36 107.906 88.66 109.586 88.66H110.166V86.3C108.606 86.3 107.506 86.98 106.866 88.08V86.48H104.586V97.5H106.866V91.7ZM112.262 97.5H114.542V92.76L118.622 97.5H121.702L116.622 92L121.702 86.48H118.542L114.542 91.3V82.7H112.262V97.5ZM137.911 93.56C137.911 88.48 130.551 90.44 130.551 87.3C130.551 85.96 131.571 85.32 132.891 85.36C134.331 85.4 135.151 86.26 135.231 87.2H137.751C137.551 84.82 135.671 83.42 133.011 83.42C130.171 83.42 128.231 84.94 128.231 87.38C128.231 92.5 135.611 90.32 135.611 93.68C135.611 94.86 134.711 95.72 133.111 95.72C131.531 95.72 130.731 94.8 130.631 93.66H128.191C128.191 96.12 130.331 97.64 133.111 97.64C136.211 97.64 137.911 95.64 137.911 93.56ZM145.242 88.22C146.942 88.22 148.282 89.3 148.322 91H142.222C142.462 89.26 143.702 88.22 145.242 88.22ZM150.402 94.22H147.942C147.522 95.08 146.742 95.76 145.342 95.76C143.662 95.76 142.362 94.66 142.202 92.84H150.622C150.682 92.46 150.702 92.1 150.702 91.72C150.702 88.48 148.482 86.3 145.342 86.3C142.082 86.3 139.842 88.52 139.842 91.98C139.842 95.44 142.182 97.68 145.342 97.68C148.042 97.68 149.782 96.14 150.402 94.22ZM152.185 91.98C152.185 95.44 154.425 97.68 157.585 97.68C160.285 97.68 162.045 96.18 162.665 94.02H160.205C159.785 95.16 158.945 95.76 157.585 95.76C155.745 95.76 154.525 94.4 154.525 91.98C154.525 89.58 155.745 88.22 157.585 88.22C158.945 88.22 159.825 88.9 160.205 89.96H162.665C162.045 87.64 160.285 86.3 157.585 86.3C154.425 86.3 152.185 88.54 152.185 91.98ZM174.918 86.48H172.638V92.62C172.638 94.64 171.538 95.68 169.858 95.68C168.198 95.68 167.098 94.64 167.098 92.62V86.48H164.838V92.96C164.838 96.04 166.798 97.66 169.378 97.66C170.678 97.66 171.918 97.12 172.638 96.18V97.5H174.918V86.48ZM180.206 91.7C180.206 89.36 181.246 88.66 182.926 88.66H183.506V86.3C181.946 86.3 180.846 86.98 180.206 88.08V86.48H177.926V97.5H180.206V91.7ZM185.602 97.5H187.882V86.48H185.602V97.5ZM186.762 85.02C187.562 85.02 188.202 84.38 188.202 83.56C188.202 82.74 187.562 82.1 186.762 82.1C185.942 82.1 185.302 82.74 185.302 83.56C185.302 84.38 185.942 85.02 186.762 85.02ZM191.235 94.44C191.235 96.68 192.455 97.5 194.415 97.5H196.215V95.6H194.815C193.855 95.6 193.535 95.26 193.535 94.44V88.34H196.215V86.48H193.535V83.74H191.235V86.48H189.935V88.34H191.235V94.44ZM202.656 94.88L199.556 86.48H197.016L201.356 97.32L199.116 102.68H201.476L208.236 86.48H205.876L202.656 94.88ZM214.392 91.94C214.392 95.34 216.692 97.68 219.552 97.68C221.392 97.68 222.712 96.8 223.412 95.86V97.5H225.712V86.48H223.412V88.08C222.732 87.18 221.452 86.3 219.592 86.3C216.692 86.3 214.392 88.54 214.392 91.94ZM223.412 91.98C223.412 94.36 221.792 95.7 220.072 95.7C218.372 95.7 216.732 94.32 216.732 91.94C216.732 89.56 218.372 88.28 220.072 88.28C221.792 88.28 223.412 89.62 223.412 91.98ZM236.527 97.5H238.787V91C238.787 87.92 236.847 86.3 234.267 86.3C232.947 86.3 231.727 86.84 230.987 87.74V86.48H228.707V97.5H230.987V91.34C230.987 89.32 232.087 88.28 233.767 88.28C235.427 88.28 236.527 89.32 236.527 91.34V97.5ZM240.935 91.94C240.935 95.34 243.235 97.68 246.135 97.68C247.935 97.68 249.255 96.84 249.955 95.84V97.5H252.255V82.7H249.955V88.02C249.115 86.98 247.595 86.3 246.155 86.3C243.235 86.3 240.935 88.54 240.935 91.94ZM249.955 91.98C249.955 94.36 248.335 95.7 246.615 95.7C244.915 95.7 243.275 94.32 243.275 91.94C243.275 89.56 244.915 88.28 246.615 88.28C248.335 88.28 249.955 89.62 249.955 91.98ZM259.685 90.52C259.685 94.7 262.865 97.62 266.785 97.62C269.685 97.62 272.185 96.18 273.245 93.46H270.505C269.765 94.94 268.445 95.64 266.785 95.64C264.025 95.64 262.025 93.66 262.025 90.52C262.025 87.38 264.025 85.42 266.785 85.42C268.445 85.42 269.765 86.12 270.505 87.6H273.245C272.185 84.88 269.685 83.42 266.785 83.42C262.865 83.42 259.685 86.36 259.685 90.52ZM278.194 91.7C278.194 89.36 279.234 88.66 280.914 88.66H281.494V86.3C279.934 86.3 278.834 86.98 278.194 88.08V86.48H275.914V97.5H278.194V91.7ZM287.93 94.88L284.83 86.48H282.29L286.63 97.32L284.39 102.68H286.75L293.51 86.48H291.15L287.93 94.88ZM297.51 88.1V86.48H295.23V102.74H297.51V95.9C298.23 96.76 299.53 97.68 301.35 97.68C304.25 97.68 306.53 95.34 306.53 91.94C306.53 88.54 304.25 86.3 301.35 86.3C299.55 86.3 298.21 87.18 297.51 88.1ZM304.21 91.94C304.21 94.32 302.57 95.7 300.85 95.7C299.15 95.7 297.51 94.36 297.51 91.98C297.51 89.62 299.15 88.28 300.85 88.28C302.57 88.28 304.21 89.56 304.21 91.94ZM309.145 94.44C309.145 96.68 310.365 97.5 312.325 97.5H314.125V95.6H312.725C311.765 95.6 311.445 95.26 311.445 94.44V88.34H314.125V86.48H311.445V83.74H309.145V86.48H307.845V88.34H309.145V94.44ZM326.727 91.98C326.727 88.52 324.247 86.3 321.107 86.3C317.967 86.3 315.487 88.52 315.487 91.98C315.487 95.44 317.867 97.68 321.007 97.68C324.167 97.68 326.727 95.44 326.727 91.98ZM317.807 91.98C317.807 89.48 319.347 88.28 321.067 88.28C322.767 88.28 324.387 89.48 324.387 91.98C324.387 94.48 322.707 95.7 321.007 95.7C319.287 95.7 317.807 94.48 317.807 91.98ZM328.22 91.94C328.22 95.34 330.52 97.68 333.42 97.68C335.22 97.68 336.54 96.78 337.24 95.84V97.68C337.24 99.88 335.92 100.96 334.16 100.96C332.58 100.96 331.36 100.18 331.02 99.04H328.76C329.04 101.48 331.22 102.94 334.16 102.94C337.6 102.94 339.54 100.68 339.54 97.68V86.48H337.24V88.08C336.56 87.14 335.22 86.3 333.42 86.3C330.52 86.3 328.22 88.54 328.22 91.94ZM337.24 91.98C337.24 94.36 335.62 95.7 333.9 95.7C332.2 95.7 330.56 94.32 330.56 91.94C330.56 89.56 332.2 88.28 333.9 88.28C335.62 88.28 337.24 89.62 337.24 91.98ZM344.815 91.7C344.815 89.36 345.855 88.66 347.535 88.66H348.115V86.3C346.555 86.3 345.455 86.98 344.815 88.08V86.48H342.535V97.5H344.815V91.7ZM349.451 91.94C349.451 95.34 351.751 97.68 354.611 97.68C356.451 97.68 357.771 96.8 358.471 95.86V97.5H360.771V86.48H358.471V88.08C357.791 87.18 356.511 86.3 354.651 86.3C351.751 86.3 349.451 88.54 349.451 91.94ZM358.471 91.98C358.471 94.36 356.851 95.7 355.131 95.7C353.431 95.7 351.791 94.32 351.791 91.94C351.791 89.56 353.431 88.28 355.131 88.28C356.851 88.28 358.471 89.62 358.471 91.98ZM366.046 88.1V86.48H363.766V102.74H366.046V95.9C366.766 96.76 368.066 97.68 369.886 97.68C372.786 97.68 375.066 95.34 375.066 91.94C375.066 88.54 372.786 86.3 369.886 86.3C368.086 86.3 366.746 87.18 366.046 88.1ZM372.746 91.94C372.746 94.32 371.106 95.7 369.386 95.7C367.686 95.7 366.046 94.36 366.046 91.98C366.046 89.62 367.686 88.28 369.386 88.28C371.106 88.28 372.746 89.56 372.746 91.94ZM377.32 97.5H379.6V91.34C379.6 89.32 380.7 88.28 382.38 88.28C384.04 88.28 385.14 89.32 385.14 91.34V97.5H387.4V91C387.4 87.92 385.48 86.3 383.02 86.3C381.6 86.3 380.36 86.84 379.6 87.76V82.7H377.32V97.5ZM394.649 94.88L391.549 86.48H389.009L393.349 97.32L391.109 102.68H393.469L400.229 86.48H397.869L394.649 94.88Z" fill="#212832"/>
<rect x="0.5" y="65.5" width="616" height="49" stroke="black" stroke-opacity="0.5"/>
<rect y="179" width="617" height="50" fill="white"/>
<path d="M24.6 207.44C26.08 207.44 27.24 206.3 27.24 204.84C27.24 203.36 26.08 202.22 24.6 202.22C23.16 202.22 22 203.36 22 204.84C22 206.3 23.16 207.44 24.6 207.44ZM48.9689 207.52C48.9689 208.86 48.0289 209.64 46.4889 209.64H43.4089V205.3H46.4089C47.9289 205.3 48.9689 206.14 48.9689 207.52ZM48.6089 201.46C48.6089 202.74 47.7089 203.44 46.2289 203.44H43.4089V199.46H46.2289C47.7089 199.46 48.6089 200.2 48.6089 201.46ZM51.2489 207.76C51.2489 206.1 50.0489 204.62 48.5689 204.36C49.9089 203.88 50.9289 202.86 50.9289 201.18C50.9289 199.22 49.3689 197.6 46.4289 197.6H41.1289V211.5H46.6889C49.5289 211.5 51.2489 209.88 51.2489 207.76ZM53.7266 211.5H56.0066V196.7H53.7266V211.5ZM69.5 205.98C69.5 202.52 67.02 200.3 63.88 200.3C60.74 200.3 58.26 202.52 58.26 205.98C58.26 209.44 60.64 211.68 63.78 211.68C66.94 211.68 69.5 209.44 69.5 205.98ZM60.58 205.98C60.58 203.48 62.12 202.28 63.84 202.28C65.54 202.28 67.16 203.48 67.16 205.98C67.16 208.48 65.48 209.7 63.78 209.7C62.06 209.7 60.58 208.48 60.58 205.98ZM70.9939 205.98C70.9939 209.44 73.2339 211.68 76.3939 211.68C79.0939 211.68 80.8539 210.18 81.4739 208.02H79.0139C78.5939 209.16 77.7539 209.76 76.3939 209.76C74.5539 209.76 73.3339 208.4 73.3339 205.98C73.3339 203.58 74.5539 202.22 76.3939 202.22C77.7539 202.22 78.6339 202.9 79.0139 203.96H81.4739C80.8539 201.64 79.0939 200.3 76.3939 200.3C73.2339 200.3 70.9939 202.54 70.9939 205.98ZM83.7461 211.5H86.0261V206.76L90.1061 211.5H93.1861L88.1061 206L93.1861 200.48H90.0261L86.0261 205.3V196.7H83.7461V211.5ZM94.0603 205.98C94.0603 209.44 96.3003 211.68 99.4603 211.68C102.16 211.68 103.92 210.18 104.54 208.02H102.08C101.66 209.16 100.82 209.76 99.4603 209.76C97.6203 209.76 96.4003 208.4 96.4003 205.98C96.4003 203.58 97.6203 202.22 99.4603 202.22C100.82 202.22 101.7 202.9 102.08 203.96H104.54C103.92 201.64 102.16 200.3 99.4603 200.3C96.3003 200.3 94.0603 202.54 94.0603 205.98ZM106.813 211.5H109.093V205.34C109.093 203.32 110.193 202.28 111.873 202.28C113.533 202.28 114.633 203.32 114.633 205.34V211.5H116.893V205C116.893 201.92 114.973 200.3 112.513 200.3C111.093 200.3 109.853 200.84 109.093 201.76V196.7H106.813V211.5ZM119.041 205.94C119.041 209.34 121.341 211.68 124.201 211.68C126.041 211.68 127.361 210.8 128.061 209.86V211.5H130.361V200.48H128.061V202.08C127.381 201.18 126.101 200.3 124.241 200.3C121.341 200.3 119.041 202.54 119.041 205.94ZM128.061 205.98C128.061 208.36 126.441 209.7 124.721 209.7C123.021 209.7 121.381 208.32 121.381 205.94C121.381 203.56 123.021 202.28 124.721 202.28C126.441 202.28 128.061 203.62 128.061 205.98ZM133.355 211.5H135.635V200.48H133.355V211.5ZM134.515 199.02C135.315 199.02 135.955 198.38 135.955 197.56C135.955 196.74 135.315 196.1 134.515 196.1C133.695 196.1 133.055 196.74 133.055 197.56C133.055 198.38 133.695 199.02 134.515 199.02ZM146.449 211.5H148.709V205C148.709 201.92 146.769 200.3 144.189 200.3C142.869 200.3 141.649 200.84 140.909 201.74V200.48H138.629V211.5H140.909V205.34C140.909 203.32 142.009 202.28 143.689 202.28C145.349 202.28 146.449 203.32 146.449 205.34V211.5ZM156.093 199.46H159.813V211.5H162.093V199.46H165.793V197.6H156.093V199.46ZM172.742 202.22C174.442 202.22 175.782 203.3 175.822 205H169.722C169.962 203.26 171.202 202.22 172.742 202.22ZM177.902 208.22H175.442C175.022 209.08 174.242 209.76 172.842 209.76C171.162 209.76 169.862 208.66 169.702 206.84H178.122C178.182 206.46 178.202 206.1 178.202 205.72C178.202 202.48 175.982 200.3 172.842 200.3C169.582 200.3 167.342 202.52 167.342 205.98C167.342 209.44 169.682 211.68 172.842 211.68C175.542 211.68 177.282 210.14 177.902 208.22ZM179.685 205.98C179.685 209.44 181.925 211.68 185.085 211.68C187.785 211.68 189.545 210.18 190.165 208.02H187.705C187.285 209.16 186.445 209.76 185.085 209.76C183.245 209.76 182.025 208.4 182.025 205.98C182.025 203.58 183.245 202.22 185.085 202.22C186.445 202.22 187.325 202.9 187.705 203.96H190.165C189.545 201.64 187.785 200.3 185.085 200.3C181.925 200.3 179.685 202.54 179.685 205.98ZM192.438 211.5H194.718V205.34C194.718 203.32 195.818 202.28 197.498 202.28C199.158 202.28 200.258 203.32 200.258 205.34V211.5H202.518V205C202.518 201.92 200.598 200.3 198.138 200.3C196.718 200.3 195.478 200.84 194.718 201.76V196.7H192.438V211.5ZM213.246 211.5H215.506V205C215.506 201.92 213.566 200.3 210.986 200.3C209.666 200.3 208.446 200.84 207.706 201.74V200.48H205.426V211.5H207.706V205.34C207.706 203.32 208.806 202.28 210.486 202.28C212.146 202.28 213.246 203.32 213.246 205.34V211.5ZM228.914 205.98C228.914 202.52 226.434 200.3 223.294 200.3C220.154 200.3 217.674 202.52 217.674 205.98C217.674 209.44 220.054 211.68 223.194 211.68C226.354 211.68 228.914 209.44 228.914 205.98ZM219.994 205.98C219.994 203.48 221.534 202.28 223.254 202.28C224.954 202.28 226.574 203.48 226.574 205.98C226.574 208.48 224.894 209.7 223.194 209.7C221.474 209.7 219.994 208.48 219.994 205.98ZM231.168 211.5H233.448V196.7H231.168V211.5ZM246.941 205.98C246.941 202.52 244.461 200.3 241.321 200.3C238.181 200.3 235.701 202.52 235.701 205.98C235.701 209.44 238.081 211.68 241.221 211.68C244.381 211.68 246.941 209.44 246.941 205.98ZM238.021 205.98C238.021 203.48 239.561 202.28 241.281 202.28C242.981 202.28 244.601 203.48 244.601 205.98C244.601 208.48 242.921 209.7 241.221 209.7C239.501 209.7 238.021 208.48 238.021 205.98ZM248.435 205.94C248.435 209.34 250.735 211.68 253.635 211.68C255.435 211.68 256.755 210.78 257.455 209.84V211.68C257.455 213.88 256.135 214.96 254.375 214.96C252.795 214.96 251.575 214.18 251.235 213.04H248.975C249.255 215.48 251.435 216.94 254.375 216.94C257.815 216.94 259.755 214.68 259.755 211.68V200.48H257.455V202.08C256.775 201.14 255.435 200.3 253.635 200.3C250.735 200.3 248.435 202.54 248.435 205.94ZM257.455 205.98C257.455 208.36 255.835 209.7 254.115 209.7C252.415 209.7 250.775 208.32 250.775 205.94C250.775 203.56 252.415 202.28 254.115 202.28C255.835 202.28 257.455 203.62 257.455 205.98ZM267.09 208.88L263.99 200.48H261.45L265.79 211.32L263.55 216.68H265.91L272.67 200.48H270.31L267.09 208.88ZM278.826 205.94C278.826 209.34 281.126 211.68 283.986 211.68C285.826 211.68 287.146 210.8 287.846 209.86V211.5H290.146V200.48H287.846V202.08C287.166 201.18 285.886 200.3 284.026 200.3C281.126 200.3 278.826 202.54 278.826 205.94ZM287.846 205.98C287.846 208.36 286.226 209.7 284.506 209.7C282.806 209.7 281.166 208.32 281.166 205.94C281.166 203.56 282.806 202.28 284.506 202.28C286.226 202.28 287.846 203.62 287.846 205.98ZM300.961 211.5H303.221V205C303.221 201.92 301.281 200.3 298.701 200.3C297.381 200.3 296.161 200.84 295.421 201.74V200.48H293.141V211.5H295.421V205.34C295.421 203.32 296.521 202.28 298.201 202.28C299.861 202.28 300.961 203.32 300.961 205.34V211.5ZM305.369 205.94C305.369 209.34 307.669 211.68 310.569 211.68C312.369 211.68 313.689 210.84 314.389 209.84V211.5H316.689V196.7H314.389V202.02C313.549 200.98 312.029 200.3 310.589 200.3C307.669 200.3 305.369 202.54 305.369 205.94ZM314.389 205.98C314.389 208.36 312.769 209.7 311.049 209.7C309.349 209.7 307.709 208.32 307.709 205.94C307.709 203.56 309.349 202.28 311.049 202.28C312.769 202.28 314.389 203.62 314.389 205.98ZM324.879 211.5H327.159V201.98L331.419 211.5H332.999L337.239 201.98V211.5H339.519V197.6H337.079L332.219 208.5L327.339 197.6H324.879V211.5ZM341.756 205.94C341.756 209.34 344.056 211.68 346.916 211.68C348.756 211.68 350.076 210.8 350.776 209.86V211.5H353.076V200.48H350.776V202.08C350.096 201.18 348.816 200.3 346.956 200.3C344.056 200.3 341.756 202.54 341.756 205.94ZM350.776 205.98C350.776 208.36 349.156 209.7 347.436 209.7C345.736 209.7 344.096 208.32 344.096 205.94C344.096 203.56 345.736 202.28 347.436 202.28C349.156 202.28 350.776 203.62 350.776 205.98ZM363.89 211.5H366.15V205C366.15 201.92 364.21 200.3 361.63 200.3C360.31 200.3 359.09 200.84 358.35 201.74V200.48H356.07V211.5H358.35V205.34C358.35 203.32 359.45 202.28 361.13 202.28C362.79 202.28 363.89 203.32 363.89 205.34V211.5ZM368.299 205.94C368.299 209.34 370.599 211.68 373.459 211.68C375.299 211.68 376.619 210.8 377.319 209.86V211.5H379.619V200.48H377.319V202.08C376.639 201.18 375.359 200.3 373.499 200.3C370.599 200.3 368.299 202.54 368.299 205.94ZM377.319 205.98C377.319 208.36 375.699 209.7 373.979 209.7C372.279 209.7 370.639 208.32 370.639 205.94C370.639 203.56 372.279 202.28 373.979 202.28C375.699 202.28 377.319 203.62 377.319 205.98ZM381.853 205.94C381.853 209.34 384.153 211.68 387.053 211.68C388.853 211.68 390.173 210.78 390.873 209.84V211.68C390.873 213.88 389.553 214.96 387.793 214.96C386.213 214.96 384.993 214.18 384.653 213.04H382.393C382.673 215.48 384.853 216.94 387.793 216.94C391.233 216.94 393.173 214.68 393.173 211.68V200.48H390.873V202.08C390.193 201.14 388.853 200.3 387.053 200.3C384.153 200.3 381.853 202.54 381.853 205.94ZM390.873 205.98C390.873 208.36 389.253 209.7 387.533 209.7C385.833 209.7 384.193 208.32 384.193 205.94C384.193 203.56 385.833 202.28 387.533 202.28C389.253 202.28 390.873 203.62 390.873 205.98ZM400.808 202.22C402.508 202.22 403.848 203.3 403.888 205H397.788C398.028 203.26 399.268 202.22 400.808 202.22ZM405.968 208.22H403.508C403.088 209.08 402.308 209.76 400.908 209.76C399.228 209.76 397.928 208.66 397.768 206.84H406.188C406.248 206.46 406.268 206.1 406.268 205.72C406.268 202.48 404.048 200.3 400.908 200.3C397.648 200.3 395.408 202.52 395.408 205.98C395.408 209.44 397.748 211.68 400.908 211.68C403.608 211.68 405.348 210.14 405.968 208.22ZM424.132 211.5H426.392V205C426.392 201.92 424.432 200.3 421.852 200.3C420.252 200.3 418.692 201.14 418.012 202.48C417.252 201.04 415.792 200.3 414.052 200.3C412.732 200.3 411.532 200.84 410.792 201.74V200.48H408.512V211.5H410.792V205.34C410.792 203.32 411.892 202.28 413.572 202.28C415.232 202.28 416.332 203.32 416.332 205.34V211.5H418.592V205.34C418.592 203.32 419.692 202.28 421.372 202.28C423.032 202.28 424.132 203.32 424.132 205.34V211.5ZM433.933 202.22C435.633 202.22 436.973 203.3 437.013 205H430.913C431.153 203.26 432.393 202.22 433.933 202.22ZM439.093 208.22H436.633C436.213 209.08 435.433 209.76 434.033 209.76C432.353 209.76 431.053 208.66 430.893 206.84H439.313C439.373 206.46 439.393 206.1 439.393 205.72C439.393 202.48 437.173 200.3 434.033 200.3C430.773 200.3 428.533 202.52 428.533 205.98C428.533 209.44 430.873 211.68 434.033 211.68C436.733 211.68 438.473 210.14 439.093 208.22ZM449.457 211.5H451.717V205C451.717 201.92 449.777 200.3 447.197 200.3C445.877 200.3 444.657 200.84 443.917 201.74V200.48H441.637V211.5H443.917V205.34C443.917 203.32 445.017 202.28 446.697 202.28C448.357 202.28 449.457 203.32 449.457 205.34V211.5ZM454.985 208.44C454.985 210.68 456.205 211.5 458.165 211.5H459.965V209.6H458.565C457.605 209.6 457.285 209.26 457.285 208.44V202.34H459.965V200.48H457.285V197.74H454.985V200.48H453.685V202.34H454.985V208.44Z" fill="#212832"/>
<rect x="0.5" y="179.5" width="616" height="49" stroke="black" stroke-opacity="0.5"/>
<rect y="122" width="617" height="50" fill="white"/>
<path d="M24.6 150.44C26.08 150.44 27.24 149.3 27.24 147.84C27.24 146.36 26.08 145.22 24.6 145.22C23.16 145.22 22 146.36 22 147.84C22 149.3 23.16 150.44 24.6 150.44ZM40.3689 147.52C40.3689 151.7 43.5489 154.62 47.4689 154.62C50.3689 154.62 52.8689 153.18 53.9289 150.46H51.1889C50.4489 151.94 49.1289 152.64 47.4689 152.64C44.7089 152.64 42.7089 150.66 42.7089 147.52C42.7089 144.38 44.7089 142.42 47.4689 142.42C49.1289 142.42 50.4489 143.12 51.1889 144.6H53.9289C52.8689 141.88 50.3689 140.42 47.4689 140.42C43.5489 140.42 40.3689 143.36 40.3689 147.52ZM67.0977 148.98C67.0977 145.52 64.6177 143.3 61.4777 143.3C58.3377 143.3 55.8577 145.52 55.8577 148.98C55.8577 152.44 58.2377 154.68 61.3777 154.68C64.5377 154.68 67.0977 152.44 67.0977 148.98ZM58.1777 148.98C58.1777 146.48 59.7177 145.28 61.4377 145.28C63.1377 145.28 64.7577 146.48 64.7577 148.98C64.7577 151.48 63.0777 152.7 61.3777 152.7C59.6577 152.7 58.1777 151.48 58.1777 148.98ZM68.5916 148.94C68.5916 152.34 70.8916 154.68 73.7916 154.68C75.5916 154.68 76.9116 153.78 77.6116 152.84V154.68C77.6116 156.88 76.2916 157.96 74.5316 157.96C72.9516 157.96 71.7316 157.18 71.3916 156.04H69.1316C69.4116 158.48 71.5916 159.94 74.5316 159.94C77.9716 159.94 79.9116 157.68 79.9116 154.68V143.48H77.6116V145.08C76.9316 144.14 75.5916 143.3 73.7916 143.3C70.8916 143.3 68.5916 145.54 68.5916 148.94ZM77.6116 148.98C77.6116 151.36 75.9916 152.7 74.2716 152.7C72.5716 152.7 70.9316 151.32 70.9316 148.94C70.9316 146.56 72.5716 145.28 74.2716 145.28C75.9916 145.28 77.6116 146.62 77.6116 148.98ZM90.7263 154.5H92.9863V148C92.9863 144.92 91.0463 143.3 88.4663 143.3C87.1463 143.3 85.9263 143.84 85.1863 144.74V143.48H82.9063V154.5H85.1863V148.34C85.1863 146.32 86.2863 145.28 87.9663 145.28C89.6263 145.28 90.7263 146.32 90.7263 148.34V154.5ZM95.8945 154.5H98.1745V143.48H95.8945V154.5ZM97.0545 142.02C97.8545 142.02 98.4945 141.38 98.4945 140.56C98.4945 139.74 97.8545 139.1 97.0545 139.1C96.2345 139.1 95.5945 139.74 95.5945 140.56C95.5945 141.38 96.2345 142.02 97.0545 142.02ZM101.528 151.44C101.528 153.68 102.748 154.5 104.708 154.5H106.508V152.6H105.108C104.148 152.6 103.828 152.26 103.828 151.44V145.34H106.508V143.48H103.828V140.74H101.528V143.48H100.228V145.34H101.528V151.44ZM108.609 154.5H110.889V143.48H108.609V154.5ZM109.769 142.02C110.569 142.02 111.209 141.38 111.209 140.56C111.209 139.74 110.569 139.1 109.769 139.1C108.949 139.1 108.309 139.74 108.309 140.56C108.309 141.38 108.949 142.02 109.769 142.02ZM112.583 143.48L116.763 154.5H119.483L123.683 143.48H121.263L118.143 152.46L115.023 143.48H112.583ZM130.046 145.22C131.746 145.22 133.086 146.3 133.126 148H127.026C127.266 146.26 128.506 145.22 130.046 145.22ZM135.206 151.22H132.746C132.326 152.08 131.546 152.76 130.146 152.76C128.466 152.76 127.166 151.66 127.006 149.84H135.426C135.486 149.46 135.506 149.1 135.506 148.72C135.506 145.48 133.286 143.3 130.146 143.3C126.886 143.3 124.646 145.52 124.646 148.98C124.646 152.44 126.986 154.68 130.146 154.68C132.846 154.68 134.586 153.14 135.206 151.22ZM152.325 154.5H154.725L149.745 140.58H147.105L142.125 154.5H144.505L145.505 151.66H151.325L152.325 154.5ZM150.685 149.8H146.145L148.425 143.34L150.685 149.8ZM164.711 154.5H166.971V148C166.971 144.92 165.031 143.3 162.451 143.3C161.131 143.3 159.911 143.84 159.171 144.74V143.48H156.891V154.5H159.171V148.34C159.171 146.32 160.271 145.28 161.951 145.28C163.611 145.28 164.711 146.32 164.711 148.34V154.5ZM169.119 148.94C169.119 152.34 171.419 154.68 174.279 154.68C176.119 154.68 177.439 153.8 178.139 152.86V154.5H180.439V143.48H178.139V145.08C177.459 144.18 176.179 143.3 174.319 143.3C171.419 143.3 169.119 145.54 169.119 148.94ZM178.139 148.98C178.139 151.36 176.519 152.7 174.799 152.7C173.099 152.7 171.459 151.32 171.459 148.94C171.459 146.56 173.099 145.28 174.799 145.28C176.519 145.28 178.139 146.62 178.139 148.98ZM183.434 154.5H185.714V139.7H183.434V154.5ZM193.047 151.88L189.947 143.48H187.407L191.747 154.32L189.507 159.68H191.867L198.627 143.48H196.267L193.047 151.88ZM200.708 151.44C200.708 153.68 201.928 154.5 203.888 154.5H205.688V152.6H204.288C203.328 152.6 203.008 152.26 203.008 151.44V145.34H205.688V143.48H203.008V140.74H200.708V143.48H199.408V145.34H200.708V151.44ZM207.789 154.5H210.069V143.48H207.789V154.5ZM208.949 142.02C209.749 142.02 210.389 141.38 210.389 140.56C210.389 139.74 209.749 139.1 208.949 139.1C208.129 139.1 207.489 139.74 207.489 140.56C207.489 141.38 208.129 142.02 208.949 142.02ZM212.303 148.98C212.303 152.44 214.543 154.68 217.703 154.68C220.403 154.68 222.163 153.18 222.783 151.02H220.323C219.903 152.16 219.063 152.76 217.703 152.76C215.863 152.76 214.643 151.4 214.643 148.98C214.643 146.58 215.863 145.22 217.703 145.22C219.063 145.22 219.943 145.9 220.323 146.96H222.783C222.163 144.64 220.403 143.3 217.703 143.3C214.543 143.3 212.303 145.54 212.303 148.98ZM233.275 151.42C233.155 147.44 226.935 148.68 226.935 146.46C226.935 145.72 227.575 145.22 228.795 145.22C230.035 145.22 230.775 145.88 230.855 146.84H233.135C233.015 144.64 231.375 143.3 228.875 143.3C226.275 143.3 224.635 144.72 224.635 146.48C224.635 150.52 231.035 149.28 231.035 151.44C231.035 152.2 230.335 152.76 229.015 152.76C227.755 152.76 226.895 152.02 226.815 151.12H224.455C224.555 153.12 226.415 154.68 229.055 154.68C231.655 154.68 233.275 153.28 233.275 151.42ZM240.174 148.94C240.174 152.34 242.474 154.68 245.334 154.68C247.174 154.68 248.494 153.8 249.194 152.86V154.5H251.494V143.48H249.194V145.08C248.514 144.18 247.234 143.3 245.374 143.3C242.474 143.3 240.174 145.54 240.174 148.94ZM249.194 148.98C249.194 151.36 247.574 152.7 245.854 152.7C244.154 152.7 242.514 151.32 242.514 148.94C242.514 146.56 244.154 145.28 245.854 145.28C247.574 145.28 249.194 146.62 249.194 148.98ZM262.308 154.5H264.568V148C264.568 144.92 262.628 143.3 260.048 143.3C258.728 143.3 257.508 143.84 256.768 144.74V143.48H254.488V154.5H256.768V148.34C256.768 146.32 257.868 145.28 259.548 145.28C261.208 145.28 262.308 146.32 262.308 148.34V154.5ZM266.717 148.94C266.717 152.34 269.017 154.68 271.917 154.68C273.717 154.68 275.037 153.84 275.737 152.84V154.5H278.037V139.7H275.737V145.02C274.897 143.98 273.377 143.3 271.937 143.3C269.017 143.3 266.717 145.54 266.717 148.94ZM275.737 148.98C275.737 151.36 274.117 152.7 272.397 152.7C270.697 152.7 269.057 151.32 269.057 148.94C269.057 146.56 270.697 145.28 272.397 145.28C274.117 145.28 275.737 146.62 275.737 148.98ZM295.607 150.56C295.607 145.48 288.247 147.44 288.247 144.3C288.247 142.96 289.267 142.32 290.587 142.36C292.027 142.4 292.847 143.26 292.927 144.2H295.447C295.247 141.82 293.367 140.42 290.707 140.42C287.867 140.42 285.927 141.94 285.927 144.38C285.927 149.5 293.307 147.32 293.307 150.68C293.307 151.86 292.407 152.72 290.807 152.72C289.227 152.72 288.427 151.8 288.327 150.66H285.887C285.887 153.12 288.027 154.64 290.807 154.64C293.907 154.64 295.607 152.64 295.607 150.56ZM308.797 148.98C308.797 145.52 306.317 143.3 303.177 143.3C300.037 143.3 297.557 145.52 297.557 148.98C297.557 152.44 299.937 154.68 303.077 154.68C306.237 154.68 308.797 152.44 308.797 148.98ZM299.877 148.98C299.877 146.48 301.417 145.28 303.137 145.28C304.837 145.28 306.457 146.48 306.457 148.98C306.457 151.48 304.777 152.7 303.077 152.7C301.357 152.7 299.877 151.48 299.877 148.98ZM310.291 148.98C310.291 152.44 312.531 154.68 315.691 154.68C318.391 154.68 320.151 153.18 320.771 151.02H318.311C317.891 152.16 317.051 152.76 315.691 152.76C313.851 152.76 312.631 151.4 312.631 148.98C312.631 146.58 313.851 145.22 315.691 145.22C317.051 145.22 317.931 145.9 318.311 146.96H320.771C320.151 144.64 318.391 143.3 315.691 143.3C312.531 143.3 310.291 145.54 310.291 148.98ZM323.043 154.5H325.323V143.48H323.043V154.5ZM324.203 142.02C325.003 142.02 325.643 141.38 325.643 140.56C325.643 139.74 325.003 139.1 324.203 139.1C323.383 139.1 322.743 139.74 322.743 140.56C322.743 141.38 323.383 142.02 324.203 142.02ZM327.556 148.94C327.556 152.34 329.856 154.68 332.716 154.68C334.556 154.68 335.876 153.8 336.576 152.86V154.5H338.876V143.48H336.576V145.08C335.896 144.18 334.616 143.3 332.756 143.3C329.856 143.3 327.556 145.54 327.556 148.94ZM336.576 148.98C336.576 151.36 334.956 152.7 333.236 152.7C331.536 152.7 329.896 151.32 329.896 148.94C329.896 146.56 331.536 145.28 333.236 145.28C334.956 145.28 336.576 146.62 336.576 148.98ZM341.871 154.5H344.151V139.7H341.871V154.5ZM361.72 150.56C361.72 145.48 354.36 147.44 354.36 144.3C354.36 142.96 355.38 142.32 356.7 142.36C358.14 142.4 358.96 143.26 359.04 144.2H361.56C361.36 141.82 359.48 140.42 356.82 140.42C353.98 140.42 352.04 141.94 352.04 144.38C352.04 149.5 359.42 147.32 359.42 150.68C359.42 151.86 358.52 152.72 356.92 152.72C355.34 152.72 354.54 151.8 354.44 150.66H352C352 153.12 354.14 154.64 356.92 154.64C360.02 154.64 361.72 152.64 361.72 150.56ZM364.41 154.5H366.69V149.76L370.77 154.5H373.85L368.77 149L373.85 143.48H370.69L366.69 148.3V139.7H364.41V154.5ZM375.484 154.5H377.764V143.48H375.484V154.5ZM376.644 142.02C377.444 142.02 378.084 141.38 378.084 140.56C378.084 139.74 377.444 139.1 376.644 139.1C375.824 139.1 375.184 139.74 375.184 140.56C375.184 141.38 375.824 142.02 376.644 142.02ZM380.758 154.5H383.038V139.7H380.758V154.5ZM386.031 154.5H388.311V139.7H386.031V154.5ZM399.525 151.42C399.405 147.44 393.185 148.68 393.185 146.46C393.185 145.72 393.825 145.22 395.045 145.22C396.285 145.22 397.025 145.88 397.105 146.84H399.385C399.265 144.64 397.625 143.3 395.125 143.3C392.525 143.3 390.885 144.72 390.885 146.48C390.885 150.52 397.285 149.28 397.285 151.44C397.285 152.2 396.585 152.76 395.265 152.76C394.005 152.76 393.145 152.02 393.065 151.12H390.705C390.805 153.12 392.665 154.68 395.305 154.68C397.905 154.68 399.525 153.28 399.525 151.42ZM407.464 154.5H409.764V145.34H411.804V143.48H409.764V142.7C409.764 141.44 410.244 140.96 411.644 140.96V139.06C408.764 139.06 407.464 140.16 407.464 142.7V143.48H406.164V145.34H407.464V154.5ZM424.324 148.98C424.324 145.52 421.844 143.3 418.704 143.3C415.564 143.3 413.084 145.52 413.084 148.98C413.084 152.44 415.464 154.68 418.604 154.68C421.764 154.68 424.324 152.44 424.324 148.98ZM415.404 148.98C415.404 146.48 416.944 145.28 418.664 145.28C420.364 145.28 421.984 146.48 421.984 148.98C421.984 151.48 420.304 152.7 418.604 152.7C416.884 152.7 415.404 151.48 415.404 148.98ZM428.858 148.7C428.858 146.36 429.898 145.66 431.578 145.66H432.158V143.3C430.598 143.3 429.498 143.98 428.858 145.08V143.48H426.578V154.5H428.858V148.7ZM441.729 147V142.46H444.249C446.029 142.46 446.829 143.3 446.829 144.74C446.829 146.14 446.029 147 444.249 147H441.729ZM449.169 144.74C449.169 142.48 447.549 140.6 444.249 140.6H439.449V154.5H441.729V148.86H444.249C447.869 148.86 449.169 146.72 449.169 144.74ZM453.624 148.7C453.624 146.36 454.664 145.66 456.344 145.66H456.924V143.3C455.364 143.3 454.264 143.98 453.624 145.08V143.48H451.344V154.5H453.624V148.7ZM469.52 148.98C469.52 145.52 467.04 143.3 463.9 143.3C460.76 143.3 458.28 145.52 458.28 148.98C458.28 152.44 460.66 154.68 463.8 154.68C466.96 154.68 469.52 152.44 469.52 148.98ZM460.6 148.98C460.6 146.48 462.14 145.28 463.86 145.28C465.56 145.28 467.18 146.48 467.18 148.98C467.18 151.48 465.5 152.7 463.8 152.7C462.08 152.7 460.6 151.48 460.6 148.98ZM472.053 154.5H474.353V145.34H476.393V143.48H474.353V142.7C474.353 141.44 474.833 140.96 476.233 140.96V139.06C473.353 139.06 472.053 140.16 472.053 142.7V143.48H470.753V145.34H472.053V154.5ZM483.054 145.22C484.754 145.22 486.094 146.3 486.134 148H480.034C480.274 146.26 481.514 145.22 483.054 145.22ZM488.214 151.22H485.754C485.334 152.08 484.554 152.76 483.154 152.76C481.474 152.76 480.174 151.66 480.014 149.84H488.434C488.494 149.46 488.514 149.1 488.514 148.72C488.514 145.48 486.294 143.3 483.154 143.3C479.894 143.3 477.654 145.52 477.654 148.98C477.654 152.44 479.994 154.68 483.154 154.68C485.854 154.68 487.594 153.14 488.214 151.22ZM498.978 151.42C498.858 147.44 492.638 148.68 492.638 146.46C492.638 145.72 493.278 145.22 494.498 145.22C495.738 145.22 496.478 145.88 496.558 146.84H498.838C498.718 144.64 497.078 143.3 494.578 143.3C491.978 143.3 490.338 144.72 490.338 146.48C490.338 150.52 496.738 149.28 496.738 151.44C496.738 152.2 496.038 152.76 494.718 152.76C493.458 152.76 492.598 152.02 492.518 151.12H490.158C490.258 153.12 492.118 154.68 494.758 154.68C497.358 154.68 498.978 153.28 498.978 151.42ZM509.661 151.42C509.541 147.44 503.321 148.68 503.321 146.46C503.321 145.72 503.961 145.22 505.181 145.22C506.421 145.22 507.161 145.88 507.241 146.84H509.521C509.401 144.64 507.761 143.3 505.261 143.3C502.661 143.3 501.021 144.72 501.021 146.48C501.021 150.52 507.421 149.28 507.421 151.44C507.421 152.2 506.721 152.76 505.401 152.76C504.141 152.76 503.281 152.02 503.201 151.12H500.841C500.941 153.12 502.801 154.68 505.441 154.68C508.041 154.68 509.661 153.28 509.661 151.42ZM512.125 154.5H514.405V143.48H512.125V154.5ZM513.285 142.02C514.085 142.02 514.725 141.38 514.725 140.56C514.725 139.74 514.085 139.1 513.285 139.1C512.465 139.1 511.825 139.74 511.825 140.56C511.825 141.38 512.465 142.02 513.285 142.02ZM527.898 148.98C527.898 145.52 525.418 143.3 522.278 143.3C519.138 143.3 516.658 145.52 516.658 148.98C516.658 152.44 519.038 154.68 522.178 154.68C525.338 154.68 527.898 152.44 527.898 148.98ZM518.978 148.98C518.978 146.48 520.518 145.28 522.238 145.28C523.938 145.28 525.558 146.48 525.558 148.98C525.558 151.48 523.878 152.7 522.178 152.7C520.458 152.7 518.978 151.48 518.978 148.98ZM537.972 154.5H540.232V148C540.232 144.92 538.292 143.3 535.712 143.3C534.392 143.3 533.172 143.84 532.432 144.74V143.48H530.152V154.5H532.432V148.34C532.432 146.32 533.532 145.28 535.212 145.28C536.872 145.28 537.972 146.32 537.972 148.34V154.5ZM542.381 148.94C542.381 152.34 544.681 154.68 547.541 154.68C549.381 154.68 550.701 153.8 551.401 152.86V154.5H553.701V143.48H551.401V145.08C550.721 144.18 549.441 143.3 547.581 143.3C544.681 143.3 542.381 145.54 542.381 148.94ZM551.401 148.98C551.401 151.36 549.781 152.7 548.061 152.7C546.361 152.7 544.721 151.32 544.721 148.94C544.721 146.56 546.361 145.28 548.061 145.28C549.781 145.28 551.401 146.62 551.401 148.98ZM556.695 154.5H558.975V139.7H556.695V154.5ZM570.189 151.42C570.069 147.44 563.849 148.68 563.849 146.46C563.849 145.72 564.489 145.22 565.709 145.22C566.949 145.22 567.689 145.88 567.769 146.84H570.049C569.929 144.64 568.289 143.3 565.789 143.3C563.189 143.3 561.549 144.72 561.549 146.48C561.549 150.52 567.949 149.28 567.949 151.44C567.949 152.2 567.249 152.76 565.929 152.76C564.669 152.76 563.809 152.02 563.729 151.12H561.369C561.469 153.12 563.329 154.68 565.969 154.68C568.569 154.68 570.189 153.28 570.189 151.42Z" fill="#212832"/>
<rect x="0.5" y="122.5" width="616" height="49" stroke="black" stroke-opacity="0.5"/>
<rect y="236" width="617" height="70" fill="white"/>
<path d="M24.6 261.94C26.08 261.94 27.24 260.8 27.24 259.34C27.24 257.86 26.08 256.72 24.6 256.72C23.16 256.72 22 257.86 22 259.34C22 260.8 23.16 261.94 24.6 261.94ZM41.1289 266H43.4089V252.1H41.1289V266ZM54.2223 266H56.4823V259.5C56.4823 256.42 54.5423 254.8 51.9623 254.8C50.6423 254.8 49.4223 255.34 48.6823 256.24V254.98H46.4023V266H48.6823V259.84C48.6823 257.82 49.7823 256.78 51.4623 256.78C53.1223 256.78 54.2223 257.82 54.2223 259.84V266ZM59.7506 262.94C59.7506 265.18 60.9706 266 62.9306 266H64.7306V264.1H63.3306C62.3706 264.1 62.0506 263.76 62.0506 262.94V256.84H64.7306V254.98H62.0506V252.24H59.7506V254.98H58.4506V256.84H59.7506V262.94ZM69.112 260.2C69.112 257.86 70.152 257.16 71.832 257.16H72.412V254.8C70.852 254.8 69.752 255.48 69.112 256.58V254.98H66.832V266H69.112V260.2ZM85.0078 260.48C85.0078 257.02 82.5278 254.8 79.3878 254.8C76.2478 254.8 73.7678 257.02 73.7678 260.48C73.7678 263.94 76.1478 266.18 79.2878 266.18C82.4478 266.18 85.0078 263.94 85.0078 260.48ZM76.0878 260.48C76.0878 257.98 77.6278 256.78 79.3478 256.78C81.0478 256.78 82.6678 257.98 82.6678 260.48C82.6678 262.98 80.9878 264.2 79.2878 264.2C77.5678 264.2 76.0878 262.98 76.0878 260.48ZM86.5017 260.44C86.5017 263.84 88.8017 266.18 91.7017 266.18C93.5017 266.18 94.8217 265.34 95.5217 264.34V266H97.8217V251.2H95.5217V256.52C94.6817 255.48 93.1617 254.8 91.7217 254.8C88.8017 254.8 86.5017 257.04 86.5017 260.44ZM95.5217 260.48C95.5217 262.86 93.9017 264.2 92.1817 264.2C90.4817 264.2 88.8417 262.82 88.8417 260.44C88.8417 258.06 90.4817 256.78 92.1817 256.78C93.9017 256.78 95.5217 258.12 95.5217 260.48ZM110.796 254.98H108.516V261.12C108.516 263.14 107.416 264.18 105.736 264.18C104.076 264.18 102.976 263.14 102.976 261.12V254.98H100.716V261.46C100.716 264.54 102.676 266.16 105.256 266.16C106.556 266.16 107.796 265.62 108.516 264.68V266H110.796V254.98ZM113.045 260.48C113.045 263.94 115.285 266.18 118.445 266.18C121.145 266.18 122.905 264.68 123.525 262.52H121.065C120.645 263.66 119.805 264.26 118.445 264.26C116.605 264.26 115.385 262.9 115.385 260.48C115.385 258.08 116.605 256.72 118.445 256.72C119.805 256.72 120.685 257.4 121.065 258.46H123.525C122.905 256.14 121.145 254.8 118.445 254.8C115.285 254.8 113.045 257.04 113.045 260.48ZM126.157 262.94C126.157 265.18 127.377 266 129.337 266H131.137V264.1H129.737C128.777 264.1 128.457 263.76 128.457 262.94V256.84H131.137V254.98H128.457V252.24H126.157V254.98H124.857V256.84H126.157V262.94ZM133.238 266H135.518V254.98H133.238V266ZM134.398 253.52C135.198 253.52 135.838 252.88 135.838 252.06C135.838 251.24 135.198 250.6 134.398 250.6C133.578 250.6 132.938 251.24 132.938 252.06C132.938 252.88 133.578 253.52 134.398 253.52ZM149.012 260.48C149.012 257.02 146.532 254.8 143.392 254.8C140.252 254.8 137.772 257.02 137.772 260.48C137.772 263.94 140.152 266.18 143.292 266.18C146.452 266.18 149.012 263.94 149.012 260.48ZM140.092 260.48C140.092 257.98 141.632 256.78 143.352 256.78C145.052 256.78 146.672 257.98 146.672 260.48C146.672 262.98 144.992 264.2 143.292 264.2C141.572 264.2 140.092 262.98 140.092 260.48ZM159.086 266H161.346V259.5C161.346 256.42 159.406 254.8 156.826 254.8C155.506 254.8 154.286 255.34 153.546 256.24V254.98H151.266V266H153.546V259.84C153.546 257.82 154.646 256.78 156.326 256.78C157.986 256.78 159.086 257.82 159.086 259.84V266ZM169.809 262.94C169.809 265.18 171.029 266 172.989 266H174.789V264.1H173.389C172.429 264.1 172.109 263.76 172.109 262.94V256.84H174.789V254.98H172.109V252.24H169.809V254.98H168.509V256.84H169.809V262.94ZM187.391 260.48C187.391 257.02 184.911 254.8 181.771 254.8C178.631 254.8 176.151 257.02 176.151 260.48C176.151 263.94 178.531 266.18 181.671 266.18C184.831 266.18 187.391 263.94 187.391 260.48ZM178.471 260.48C178.471 257.98 180.011 256.78 181.731 256.78C183.431 256.78 185.051 257.98 185.051 260.48C185.051 262.98 183.371 264.2 181.671 264.2C179.951 264.2 178.471 262.98 178.471 260.48ZM202.52 252.08H194.84V266H202.52V264.14H197.12V259.88H201.92V258.02H197.12V253.94H202.52V252.08ZM205.688 262.94C205.688 265.18 206.908 266 208.868 266H210.668V264.1H209.268C208.308 264.1 207.988 263.76 207.988 262.94V256.84H210.668V254.98H207.988V252.24H205.688V254.98H204.388V256.84H205.688V262.94ZM212.77 266H215.05V259.84C215.05 257.82 216.15 256.78 217.83 256.78C219.49 256.78 220.59 257.82 220.59 259.84V266H222.85V259.5C222.85 256.42 220.93 254.8 218.47 254.8C217.05 254.8 215.81 255.34 215.05 256.26V251.2H212.77V266ZM230.398 256.72C232.098 256.72 233.438 257.8 233.478 259.5H227.378C227.618 257.76 228.858 256.72 230.398 256.72ZM235.558 262.72H233.098C232.678 263.58 231.898 264.26 230.498 264.26C228.818 264.26 227.518 263.16 227.358 261.34H235.778C235.838 260.96 235.858 260.6 235.858 260.22C235.858 256.98 233.638 254.8 230.498 254.8C227.238 254.8 224.998 257.02 224.998 260.48C224.998 263.94 227.338 266.18 230.498 266.18C233.198 266.18 234.938 264.64 235.558 262.72ZM240.382 260.2C240.382 257.86 241.422 257.16 243.102 257.16H243.682V254.8C242.122 254.8 241.022 255.48 240.382 256.58V254.98H238.102V266H240.382V260.2ZM250.417 256.72C252.117 256.72 253.457 257.8 253.497 259.5H247.397C247.637 257.76 248.877 256.72 250.417 256.72ZM255.577 262.72H253.117C252.697 263.58 251.917 264.26 250.517 264.26C248.837 264.26 247.537 263.16 247.377 261.34H255.797C255.857 260.96 255.877 260.6 255.877 260.22C255.877 256.98 253.657 254.8 250.517 254.8C247.257 254.8 245.017 257.02 245.017 260.48C245.017 263.94 247.357 266.18 250.517 266.18C253.217 266.18 254.957 264.64 255.577 262.72ZM268.101 254.98H265.821V261.12C265.821 263.14 264.721 264.18 263.041 264.18C261.381 264.18 260.281 263.14 260.281 261.12V254.98H258.021V261.46C258.021 264.54 259.981 266.16 262.561 266.16C263.861 266.16 265.101 265.62 265.821 264.68V266H268.101V254.98ZM286.729 266H288.989V259.5C288.989 256.42 287.029 254.8 284.449 254.8C282.849 254.8 281.289 255.64 280.609 256.98C279.849 255.54 278.389 254.8 276.649 254.8C275.329 254.8 274.129 255.34 273.389 256.24V254.98H271.109V266H273.389V259.84C273.389 257.82 274.489 256.78 276.169 256.78C277.829 256.78 278.929 257.82 278.929 259.84V266H281.189V259.84C281.189 257.82 282.289 256.78 283.969 256.78C285.629 256.78 286.729 257.82 286.729 259.84V266ZM290.491 268.78H291.971L294.391 263.26H291.911L290.491 268.78ZM309.258 252.08H301.578V266H309.258V264.14H303.858V259.88H308.658V258.02H303.858V253.94H309.258V252.08ZM319.886 266H322.146V259.5C322.146 256.42 320.206 254.8 317.626 254.8C316.306 254.8 315.086 255.34 314.346 256.24V254.98H312.066V266H314.346V259.84C314.346 257.82 315.446 256.78 317.126 256.78C318.786 256.78 319.886 257.82 319.886 259.84V266ZM325.415 262.94C325.415 265.18 326.635 266 328.595 266H330.395V264.1H328.995C328.035 264.1 327.715 263.76 327.715 262.94V256.84H330.395V254.98H327.715V252.24H325.415V254.98H324.115V256.84H325.415V262.94ZM337.136 256.72C338.836 256.72 340.176 257.8 340.216 259.5H334.116C334.356 257.76 335.596 256.72 337.136 256.72ZM342.296 262.72H339.836C339.416 263.58 338.636 264.26 337.236 264.26C335.556 264.26 334.256 263.16 334.096 261.34H342.516C342.576 260.96 342.596 260.6 342.596 260.22C342.596 256.98 340.376 254.8 337.236 254.8C333.976 254.8 331.736 257.02 331.736 260.48C331.736 263.94 334.076 266.18 337.236 266.18C339.936 266.18 341.676 264.64 342.296 262.72ZM347.12 260.2C347.12 257.86 348.16 257.16 349.84 257.16H350.42V254.8C348.86 254.8 347.76 255.48 347.12 256.58V254.98H344.84V266H347.12V260.2ZM354.796 256.6V254.98H352.516V271.24H354.796V264.4C355.516 265.26 356.816 266.18 358.636 266.18C361.536 266.18 363.816 263.84 363.816 260.44C363.816 257.04 361.536 254.8 358.636 254.8C356.836 254.8 355.496 255.68 354.796 256.6ZM361.496 260.44C361.496 262.82 359.856 264.2 358.136 264.2C356.436 264.2 354.796 262.86 354.796 260.48C354.796 258.12 356.436 256.78 358.136 256.78C359.856 256.78 361.496 258.06 361.496 260.44ZM368.35 260.2C368.35 257.86 369.39 257.16 371.07 257.16H371.65V254.8C370.09 254.8 368.99 255.48 368.35 256.58V254.98H366.07V266H368.35V260.2ZM373.746 266H376.026V254.98H373.746V266ZM374.906 253.52C375.706 253.52 376.346 252.88 376.346 252.06C376.346 251.24 375.706 250.6 374.906 250.6C374.086 250.6 373.446 251.24 373.446 252.06C373.446 252.88 374.086 253.52 374.906 253.52ZM387.24 262.92C387.12 258.94 380.9 260.18 380.9 257.96C380.9 257.22 381.54 256.72 382.76 256.72C384 256.72 384.74 257.38 384.82 258.34H387.1C386.98 256.14 385.34 254.8 382.84 254.8C380.24 254.8 378.6 256.22 378.6 257.98C378.6 262.02 385 260.78 385 262.94C385 263.7 384.3 264.26 382.98 264.26C381.72 264.26 380.86 263.52 380.78 262.62H378.42C378.52 264.62 380.38 266.18 383.02 266.18C385.62 266.18 387.24 264.78 387.24 262.92ZM394.343 256.72C396.043 256.72 397.383 257.8 397.423 259.5H391.323C391.563 257.76 392.803 256.72 394.343 256.72ZM399.503 262.72H397.043C396.623 263.58 395.843 264.26 394.443 264.26C392.763 264.26 391.463 263.16 391.303 261.34H399.723C399.783 260.96 399.803 260.6 399.803 260.22C399.803 256.98 397.583 254.8 394.443 254.8C391.183 254.8 388.943 257.02 388.943 260.48C388.943 263.94 391.283 266.18 394.443 266.18C397.143 266.18 398.883 264.64 399.503 262.72ZM415.082 262.02C415.082 263.36 414.142 264.14 412.602 264.14H409.522V259.8H412.522C414.042 259.8 415.082 260.64 415.082 262.02ZM414.722 255.96C414.722 257.24 413.822 257.94 412.342 257.94H409.522V253.96H412.342C413.822 253.96 414.722 254.7 414.722 255.96ZM417.362 262.26C417.362 260.6 416.162 259.12 414.682 258.86C416.022 258.38 417.042 257.36 417.042 255.68C417.042 253.72 415.482 252.1 412.542 252.1H407.242V266H412.802C415.642 266 417.362 264.38 417.362 262.26ZM419.84 266H422.12V251.2H419.84V266ZM435.613 260.48C435.613 257.02 433.133 254.8 429.993 254.8C426.853 254.8 424.373 257.02 424.373 260.48C424.373 263.94 426.753 266.18 429.893 266.18C433.053 266.18 435.613 263.94 435.613 260.48ZM426.693 260.48C426.693 257.98 428.233 256.78 429.953 256.78C431.653 256.78 433.273 257.98 433.273 260.48C433.273 262.98 431.593 264.2 429.893 264.2C428.173 264.2 426.693 262.98 426.693 260.48ZM437.107 260.48C437.107 263.94 439.347 266.18 442.507 266.18C445.207 266.18 446.967 264.68 447.587 262.52H445.127C444.707 263.66 443.867 264.26 442.507 264.26C440.667 264.26 439.447 262.9 439.447 260.48C439.447 258.08 440.667 256.72 442.507 256.72C443.867 256.72 444.747 257.4 445.127 258.46H447.587C446.967 256.14 445.207 254.8 442.507 254.8C439.347 254.8 437.107 257.04 437.107 260.48ZM449.859 266H452.139V261.26L456.219 266H459.299L454.219 260.5L459.299 254.98H456.139L452.139 259.8V251.2H449.859V266ZM460.174 260.48C460.174 263.94 462.414 266.18 465.574 266.18C468.274 266.18 470.034 264.68 470.654 262.52H468.194C467.774 263.66 466.934 264.26 465.574 264.26C463.734 264.26 462.514 262.9 462.514 260.48C462.514 258.08 463.734 256.72 465.574 256.72C466.934 256.72 467.814 257.4 468.194 258.46H470.654C470.034 256.14 468.274 254.8 465.574 254.8C462.414 254.8 460.174 257.04 460.174 260.48ZM472.926 266H475.206V259.84C475.206 257.82 476.306 256.78 477.986 256.78C479.646 256.78 480.746 257.82 480.746 259.84V266H483.006V259.5C483.006 256.42 481.086 254.8 478.626 254.8C477.206 254.8 475.966 255.34 475.206 256.26V251.2H472.926V266ZM485.154 260.44C485.154 263.84 487.454 266.18 490.314 266.18C492.154 266.18 493.474 265.3 494.174 264.36V266H496.474V254.98H494.174V256.58C493.494 255.68 492.214 254.8 490.354 254.8C487.454 254.8 485.154 257.04 485.154 260.44ZM494.174 260.48C494.174 262.86 492.554 264.2 490.834 264.2C489.134 264.2 487.494 262.82 487.494 260.44C487.494 258.06 489.134 256.78 490.834 256.78C492.554 256.78 494.174 258.12 494.174 260.48ZM499.469 266H501.749V254.98H499.469V266ZM500.629 253.52C501.429 253.52 502.069 252.88 502.069 252.06C502.069 251.24 501.429 250.6 500.629 250.6C499.809 250.6 499.169 251.24 499.169 252.06C499.169 252.88 499.809 253.52 500.629 253.52ZM512.562 266H514.822V259.5C514.822 256.42 512.882 254.8 510.302 254.8C508.982 254.8 507.762 255.34 507.022 256.24V254.98H504.742V266H507.022V259.84C507.022 257.82 508.122 256.78 509.802 256.78C511.462 256.78 512.562 257.82 512.562 259.84V266ZM30.88 291H33.28L28.3 277.08H25.66L20.68 291H23.06L24.06 288.16H29.88L30.88 291ZM29.24 286.3H24.7L26.98 279.84L29.24 286.3ZM37.7253 281.6V279.98H35.4453V296.24H37.7253V289.4C38.4453 290.26 39.7453 291.18 41.5653 291.18C44.4653 291.18 46.7453 288.84 46.7453 285.44C46.7453 282.04 44.4653 279.8 41.5653 279.8C39.7653 279.8 38.4253 280.68 37.7253 281.6ZM44.4253 285.44C44.4253 287.82 42.7853 289.2 41.0653 289.2C39.3653 289.2 37.7253 287.86 37.7253 285.48C37.7253 283.12 39.3653 281.78 41.0653 281.78C42.7853 281.78 44.4253 283.06 44.4253 285.44ZM51.28 281.6V279.98H49V296.24H51.28V289.4C52 290.26 53.3 291.18 55.12 291.18C58.02 291.18 60.3 288.84 60.3 285.44C60.3 282.04 58.02 279.8 55.12 279.8C53.32 279.8 51.98 280.68 51.28 281.6ZM57.98 285.44C57.98 287.82 56.34 289.2 54.62 289.2C52.92 289.2 51.28 287.86 51.28 285.48C51.28 283.12 52.92 281.78 54.62 281.78C56.34 281.78 57.98 283.06 57.98 285.44ZM62.5547 291H64.8347V276.2H62.5547V291ZM67.8281 291H70.1081V279.98H67.8281V291ZM68.9881 278.52C69.7881 278.52 70.4281 277.88 70.4281 277.06C70.4281 276.24 69.7881 275.6 68.9881 275.6C68.1681 275.6 67.5281 276.24 67.5281 277.06C67.5281 277.88 68.1681 278.52 68.9881 278.52ZM72.3416 285.48C72.3416 288.94 74.5816 291.18 77.7416 291.18C80.4416 291.18 82.2016 289.68 82.8216 287.52H80.3616C79.9416 288.66 79.1016 289.26 77.7416 289.26C75.9016 289.26 74.6816 287.9 74.6816 285.48C74.6816 283.08 75.9016 281.72 77.7416 281.72C79.1016 281.72 79.9816 282.4 80.3616 283.46H82.8216C82.2016 281.14 80.4416 279.8 77.7416 279.8C74.5816 279.8 72.3416 282.04 72.3416 285.48ZM84.3338 285.44C84.3338 288.84 86.6338 291.18 89.4938 291.18C91.3338 291.18 92.6538 290.3 93.3538 289.36V291H95.6538V279.98H93.3538V281.58C92.6738 280.68 91.3938 279.8 89.5338 279.8C86.6338 279.8 84.3338 282.04 84.3338 285.44ZM93.3538 285.48C93.3538 287.86 91.7338 289.2 90.0138 289.2C88.3138 289.2 86.6738 287.82 86.6738 285.44C86.6738 283.06 88.3138 281.78 90.0138 281.78C91.7338 281.78 93.3538 283.12 93.3538 285.48ZM99.0084 287.94C99.0084 290.18 100.228 291 102.188 291H103.988V289.1H102.588C101.628 289.1 101.308 288.76 101.308 287.94V281.84H103.988V279.98H101.308V277.24H99.0084V279.98H97.7084V281.84H99.0084V287.94ZM106.09 291H108.37V279.98H106.09V291ZM107.25 278.52C108.05 278.52 108.69 277.88 108.69 277.06C108.69 276.24 108.05 275.6 107.25 275.6C106.43 275.6 105.79 276.24 105.79 277.06C105.79 277.88 106.43 278.52 107.25 278.52ZM121.863 285.48C121.863 282.02 119.383 279.8 116.243 279.8C113.103 279.8 110.623 282.02 110.623 285.48C110.623 288.94 113.003 291.18 116.143 291.18C119.303 291.18 121.863 288.94 121.863 285.48ZM112.943 285.48C112.943 282.98 114.483 281.78 116.203 281.78C117.903 281.78 119.523 282.98 119.523 285.48C119.523 287.98 117.843 289.2 116.143 289.2C114.423 289.2 112.943 287.98 112.943 285.48ZM131.937 291H134.197V284.5C134.197 281.42 132.257 279.8 129.677 279.8C128.357 279.8 127.137 280.34 126.397 281.24V279.98H124.117V291H126.397V284.84C126.397 282.82 127.497 281.78 129.177 281.78C130.837 281.78 131.937 282.82 131.937 284.84V291ZM145.325 287.92C145.205 283.94 138.985 285.18 138.985 282.96C138.985 282.22 139.625 281.72 140.845 281.72C142.085 281.72 142.825 282.38 142.905 283.34H145.185C145.065 281.14 143.425 279.8 140.925 279.8C138.325 279.8 136.685 281.22 136.685 282.98C136.685 287.02 143.085 285.78 143.085 287.94C143.085 288.7 142.385 289.26 141.065 289.26C139.805 289.26 138.945 288.52 138.865 287.62H136.505C136.605 289.62 138.465 291.18 141.105 291.18C143.705 291.18 145.325 289.78 145.325 287.92ZM152.224 285.44C152.224 288.84 154.524 291.18 157.384 291.18C159.224 291.18 160.544 290.3 161.244 289.36V291H163.544V279.98H161.244V281.58C160.564 280.68 159.284 279.8 157.424 279.8C154.524 279.8 152.224 282.04 152.224 285.44ZM161.244 285.48C161.244 287.86 159.624 289.2 157.904 289.2C156.204 289.2 154.564 287.82 154.564 285.44C154.564 283.06 156.204 281.78 157.904 281.78C159.624 281.78 161.244 283.12 161.244 285.48ZM174.359 291H176.619V284.5C176.619 281.42 174.679 279.8 172.099 279.8C170.779 279.8 169.559 280.34 168.819 281.24V279.98H166.539V291H168.819V284.84C168.819 282.82 169.919 281.78 171.599 281.78C173.259 281.78 174.359 282.82 174.359 284.84V291ZM178.767 285.44C178.767 288.84 181.067 291.18 183.967 291.18C185.767 291.18 187.087 290.34 187.787 289.34V291H190.087V276.2H187.787V281.52C186.947 280.48 185.427 279.8 183.987 279.8C181.067 279.8 178.767 282.04 178.767 285.44ZM187.787 285.48C187.787 287.86 186.167 289.2 184.447 289.2C182.747 289.2 181.107 287.82 181.107 285.44C181.107 283.06 182.747 281.78 184.447 281.78C186.167 281.78 187.787 283.12 187.787 285.48ZM207.097 291H209.377V277.1H207.097V283.06H200.557V277.1H198.277V291H200.557V284.92H207.097V291ZM216.719 288.38L213.619 279.98H211.079L215.419 290.82L213.179 296.18H215.539L222.299 279.98H219.939L216.719 288.38ZM226.3 281.6V279.98H224.02V296.24H226.3V289.4C227.02 290.26 228.32 291.18 230.14 291.18C233.04 291.18 235.32 288.84 235.32 285.44C235.32 282.04 233.04 279.8 230.14 279.8C228.34 279.8 227 280.68 226.3 281.6ZM233 285.44C233 287.82 231.36 289.2 229.64 289.2C227.94 289.2 226.3 287.86 226.3 285.48C226.3 283.12 227.94 281.78 229.64 281.78C231.36 281.78 233 283.06 233 285.44ZM242.214 281.72C243.914 281.72 245.254 282.8 245.294 284.5H239.194C239.434 282.76 240.674 281.72 242.214 281.72ZM247.374 287.72H244.914C244.494 288.58 243.714 289.26 242.314 289.26C240.634 289.26 239.334 288.16 239.174 286.34H247.594C247.654 285.96 247.674 285.6 247.674 285.22C247.674 281.98 245.454 279.8 242.314 279.8C239.054 279.8 236.814 282.02 236.814 285.48C236.814 288.94 239.154 291.18 242.314 291.18C245.014 291.18 246.754 289.64 247.374 287.72ZM252.198 285.2C252.198 282.86 253.238 282.16 254.918 282.16H255.498V279.8C253.938 279.8 252.838 280.48 252.198 281.58V279.98H249.918V291H252.198V285.2ZM257.594 291H259.874V276.2H257.594V291ZM267.507 281.72C269.207 281.72 270.547 282.8 270.587 284.5H264.487C264.727 282.76 265.967 281.72 267.507 281.72ZM272.667 287.72H270.207C269.787 288.58 269.007 289.26 267.607 289.26C265.927 289.26 264.627 288.16 264.467 286.34H272.887C272.947 285.96 272.967 285.6 272.967 285.22C272.967 281.98 270.747 279.8 267.607 279.8C264.347 279.8 262.107 282.02 262.107 285.48C262.107 288.94 264.447 291.18 267.607 291.18C270.307 291.18 272.047 289.64 272.667 287.72ZM274.451 285.44C274.451 288.84 276.751 291.18 279.651 291.18C281.451 291.18 282.771 290.34 283.471 289.34V291H285.771V276.2H283.471V281.52C282.631 280.48 281.111 279.8 279.671 279.8C276.751 279.8 274.451 282.04 274.451 285.44ZM283.471 285.48C283.471 287.86 281.851 289.2 280.131 289.2C278.431 289.2 276.791 287.82 276.791 285.44C276.791 283.06 278.431 281.78 280.131 281.78C281.851 281.78 283.471 283.12 283.471 285.48ZM288.006 285.44C288.006 288.84 290.306 291.18 293.206 291.18C295.006 291.18 296.326 290.28 297.026 289.34V291.18C297.026 293.38 295.706 294.46 293.946 294.46C292.366 294.46 291.146 293.68 290.806 292.54H288.546C288.826 294.98 291.006 296.44 293.946 296.44C297.386 296.44 299.326 294.18 299.326 291.18V279.98H297.026V281.58C296.346 280.64 295.006 279.8 293.206 279.8C290.306 279.8 288.006 282.04 288.006 285.44ZM297.026 285.48C297.026 287.86 295.406 289.2 293.686 289.2C291.986 289.2 290.346 287.82 290.346 285.44C290.346 283.06 291.986 281.78 293.686 281.78C295.406 281.78 297.026 283.12 297.026 285.48ZM306.96 281.72C308.66 281.72 310 282.8 310.04 284.5H303.94C304.18 282.76 305.42 281.72 306.96 281.72ZM312.12 287.72H309.66C309.24 288.58 308.46 289.26 307.06 289.26C305.38 289.26 304.08 288.16 303.92 286.34H312.34C312.4 285.96 312.42 285.6 312.42 285.22C312.42 281.98 310.2 279.8 307.06 279.8C303.8 279.8 301.56 282.02 301.56 285.48C301.56 288.94 303.9 291.18 307.06 291.18C309.76 291.18 311.5 289.64 312.12 287.72ZM316.944 285.2C316.944 282.86 317.984 282.16 319.664 282.16H320.244V279.8C318.684 279.8 317.584 280.48 316.944 281.58V279.98H314.664V291H316.944V285.2Z" fill="#212832"/>
<rect x="0.5" y="236.5" width="616" height="69" stroke="black" stroke-opacity="0.5"/>
<rect y="313" width="617" height="50" fill="white"/>
<path d="M24.6 341.44C26.08 341.44 27.24 340.3 27.24 338.84C27.24 337.36 26.08 336.22 24.6 336.22C23.16 336.22 22 337.36 22 338.84C22 340.3 23.16 341.44 24.6 341.44ZM45.6689 331.6H41.1289V345.5H45.6689C50.1289 345.5 53.0489 342.88 53.0489 338.6C53.0489 334.3 50.1289 331.6 45.6689 331.6ZM43.4089 343.64V333.46H45.6689C48.9489 333.46 50.7089 335.42 50.7089 338.6C50.7089 341.76 48.9489 343.64 45.6689 343.64H43.4089ZM54.5486 339.94C54.5486 343.34 56.8486 345.68 59.7086 345.68C61.5486 345.68 62.8686 344.8 63.5686 343.86V345.5H65.8686V334.48H63.5686V336.08C62.8886 335.18 61.6086 334.3 59.7486 334.3C56.8486 334.3 54.5486 336.54 54.5486 339.94ZM63.5686 339.98C63.5686 342.36 61.9486 343.7 60.2286 343.7C58.5286 343.7 56.8886 342.32 56.8886 339.94C56.8886 337.56 58.5286 336.28 60.2286 336.28C61.9486 336.28 63.5686 337.62 63.5686 339.98ZM69.2233 342.44C69.2233 344.68 70.4433 345.5 72.4033 345.5H74.2033V343.6H72.8033C71.8433 343.6 71.5233 343.26 71.5233 342.44V336.34H74.2033V334.48H71.5233V331.74H69.2233V334.48H67.9233V336.34H69.2233V342.44ZM75.5447 339.94C75.5447 343.34 77.8447 345.68 80.7047 345.68C82.5447 345.68 83.8647 344.8 84.5647 343.86V345.5H86.8647V334.48H84.5647V336.08C83.8847 335.18 82.6047 334.3 80.7447 334.3C77.8447 334.3 75.5447 336.54 75.5447 339.94ZM84.5647 339.98C84.5647 342.36 82.9447 343.7 81.2247 343.7C79.5247 343.7 77.8847 342.32 77.8847 339.94C77.8847 337.56 79.5247 336.28 81.2247 336.28C82.9447 336.28 84.5647 337.62 84.5647 339.98ZM104.435 341.56C104.435 336.48 97.0747 338.44 97.0747 335.3C97.0747 333.96 98.0947 333.32 99.4147 333.36C100.855 333.4 101.675 334.26 101.755 335.2H104.275C104.075 332.82 102.195 331.42 99.5347 331.42C96.6947 331.42 94.7547 332.94 94.7547 335.38C94.7547 340.5 102.135 338.32 102.135 341.68C102.135 342.86 101.235 343.72 99.6347 343.72C98.0547 343.72 97.2547 342.8 97.1547 341.66H94.7147C94.7147 344.12 96.8547 345.64 99.6347 345.64C102.735 345.64 104.435 343.64 104.435 341.56ZM107.485 342.44C107.485 344.68 108.705 345.5 110.665 345.5H112.465V343.6H111.065C110.105 343.6 109.785 343.26 109.785 342.44V336.34H112.465V334.48H109.785V331.74H107.485V334.48H106.185V336.34H107.485V342.44ZM116.846 339.7C116.846 337.36 117.886 336.66 119.566 336.66H120.146V334.3C118.586 334.3 117.486 334.98 116.846 336.08V334.48H114.566V345.5H116.846V339.7ZM132.222 334.48H129.942V340.62C129.942 342.64 128.842 343.68 127.162 343.68C125.502 343.68 124.402 342.64 124.402 340.62V334.48H122.142V340.96C122.142 344.04 124.102 345.66 126.682 345.66C127.982 345.66 129.222 345.12 129.942 344.18V345.5H132.222V334.48ZM134.47 339.98C134.47 343.44 136.71 345.68 139.87 345.68C142.57 345.68 144.33 344.18 144.95 342.02H142.49C142.07 343.16 141.23 343.76 139.87 343.76C138.03 343.76 136.81 342.4 136.81 339.98C136.81 337.58 138.03 336.22 139.87 336.22C141.23 336.22 142.11 336.9 142.49 337.96H144.95C144.33 335.64 142.57 334.3 139.87 334.3C136.71 334.3 134.47 336.54 134.47 339.98ZM147.583 342.44C147.583 344.68 148.803 345.5 150.763 345.5H152.563V343.6H151.163C150.203 343.6 149.883 343.26 149.883 342.44V336.34H152.563V334.48H149.883V331.74H147.583V334.48H146.283V336.34H147.583V342.44ZM164.644 334.48H162.364V340.62C162.364 342.64 161.264 343.68 159.584 343.68C157.924 343.68 156.824 342.64 156.824 340.62V334.48H154.564V340.96C154.564 344.04 156.524 345.66 159.104 345.66C160.404 345.66 161.644 345.12 162.364 344.18V345.5H164.644V334.48ZM169.932 339.7C169.932 337.36 170.972 336.66 172.652 336.66H173.232V334.3C171.672 334.3 170.572 334.98 169.932 336.08V334.48H167.652V345.5H169.932V339.7ZM179.968 336.22C181.668 336.22 183.008 337.3 183.048 339H176.948C177.188 337.26 178.428 336.22 179.968 336.22ZM185.128 342.22H182.668C182.248 343.08 181.468 343.76 180.068 343.76C178.388 343.76 177.088 342.66 176.928 340.84H185.348C185.408 340.46 185.428 340.1 185.428 339.72C185.428 336.48 183.208 334.3 180.068 334.3C176.808 334.3 174.568 336.52 174.568 339.98C174.568 343.44 176.908 345.68 180.068 345.68C182.768 345.68 184.508 344.14 185.128 342.22ZM195.892 342.42C195.772 338.44 189.552 339.68 189.552 337.46C189.552 336.72 190.192 336.22 191.412 336.22C192.652 336.22 193.392 336.88 193.472 337.84H195.752C195.632 335.64 193.992 334.3 191.492 334.3C188.892 334.3 187.252 335.72 187.252 337.48C187.252 341.52 193.652 340.28 193.652 342.44C193.652 343.2 192.952 343.76 191.632 343.76C190.372 343.76 189.512 343.02 189.432 342.12H187.072C187.172 344.12 189.032 345.68 191.672 345.68C194.272 345.68 195.892 344.28 195.892 342.42ZM202.791 339.94C202.791 343.34 205.091 345.68 207.951 345.68C209.791 345.68 211.111 344.8 211.811 343.86V345.5H214.111V334.48H211.811V336.08C211.131 335.18 209.851 334.3 207.991 334.3C205.091 334.3 202.791 336.54 202.791 339.94ZM211.811 339.98C211.811 342.36 210.191 343.7 208.471 343.7C206.771 343.7 205.131 342.32 205.131 339.94C205.131 337.56 206.771 336.28 208.471 336.28C210.191 336.28 211.811 337.62 211.811 339.98ZM224.925 345.5H227.185V339C227.185 335.92 225.245 334.3 222.665 334.3C221.345 334.3 220.125 334.84 219.385 335.74V334.48H217.105V345.5H219.385V339.34C219.385 337.32 220.485 336.28 222.165 336.28C223.825 336.28 224.925 337.32 224.925 339.34V345.5ZM229.334 339.94C229.334 343.34 231.634 345.68 234.534 345.68C236.334 345.68 237.654 344.84 238.354 343.84V345.5H240.654V330.7H238.354V336.02C237.514 334.98 235.994 334.3 234.554 334.3C231.634 334.3 229.334 336.54 229.334 339.94ZM238.354 339.98C238.354 342.36 236.734 343.7 235.014 343.7C233.314 343.7 231.674 342.32 231.674 339.94C231.674 337.56 233.314 336.28 235.014 336.28C236.734 336.28 238.354 337.62 238.354 339.98ZM258.224 345.5H260.624L255.644 331.58H253.004L248.024 345.5H250.404L251.404 342.66H257.224L258.224 345.5ZM256.584 340.8H252.044L254.324 334.34L256.584 340.8ZM262.789 345.5H265.069V330.7H262.789V345.5ZM267.303 339.94C267.303 343.34 269.603 345.68 272.503 345.68C274.303 345.68 275.623 344.78 276.323 343.84V345.68C276.323 347.88 275.003 348.96 273.243 348.96C271.663 348.96 270.443 348.18 270.103 347.04H267.843C268.123 349.48 270.303 350.94 273.243 350.94C276.683 350.94 278.623 348.68 278.623 345.68V334.48H276.323V336.08C275.643 335.14 274.303 334.3 272.503 334.3C269.603 334.3 267.303 336.54 267.303 339.94ZM276.323 339.98C276.323 342.36 274.703 343.7 272.983 343.7C271.283 343.7 269.643 342.32 269.643 339.94C269.643 337.56 271.283 336.28 272.983 336.28C274.703 336.28 276.323 337.62 276.323 339.98ZM292.117 339.98C292.117 336.52 289.637 334.3 286.497 334.3C283.357 334.3 280.877 336.52 280.877 339.98C280.877 343.44 283.257 345.68 286.397 345.68C289.557 345.68 292.117 343.44 292.117 339.98ZM283.197 339.98C283.197 337.48 284.737 336.28 286.457 336.28C288.157 336.28 289.777 337.48 289.777 339.98C289.777 342.48 288.097 343.7 286.397 343.7C284.677 343.7 283.197 342.48 283.197 339.98ZM296.651 339.7C296.651 337.36 297.691 336.66 299.371 336.66H299.951V334.3C298.391 334.3 297.291 334.98 296.651 336.08V334.48H294.371V345.5H296.651V339.7ZM302.047 345.5H304.327V334.48H302.047V345.5ZM303.207 333.02C304.007 333.02 304.647 332.38 304.647 331.56C304.647 330.74 304.007 330.1 303.207 330.1C302.387 330.1 301.747 330.74 301.747 331.56C301.747 332.38 302.387 333.02 303.207 333.02ZM307.68 342.44C307.68 344.68 308.9 345.5 310.86 345.5H312.66V343.6H311.26C310.3 343.6 309.98 343.26 309.98 342.44V336.34H312.66V334.48H309.98V331.74H307.68V334.48H306.38V336.34H307.68V342.44ZM314.762 345.5H317.042V339.34C317.042 337.32 318.142 336.28 319.822 336.28C321.482 336.28 322.582 337.32 322.582 339.34V345.5H324.842V339C324.842 335.92 322.922 334.3 320.462 334.3C319.042 334.3 317.802 334.84 317.042 335.76V330.7H314.762V345.5ZM343.37 345.5H345.63V339C345.63 335.92 343.67 334.3 341.09 334.3C339.49 334.3 337.93 335.14 337.25 336.48C336.49 335.04 335.03 334.3 333.29 334.3C331.97 334.3 330.77 334.84 330.03 335.74V334.48H327.75V345.5H330.03V339.34C330.03 337.32 331.13 336.28 332.81 336.28C334.47 336.28 335.57 337.32 335.57 339.34V345.5H337.83V339.34C337.83 337.32 338.93 336.28 340.61 336.28C342.27 336.28 343.37 337.32 343.37 339.34V345.5ZM358.267 331.6H353.727V345.5H358.267C362.727 345.5 365.647 342.88 365.647 338.6C365.647 334.3 362.727 331.6 358.267 331.6ZM356.007 343.64V333.46H358.267C361.547 333.46 363.307 335.42 363.307 338.6C363.307 341.76 361.547 343.64 358.267 343.64H356.007ZM372.546 336.22C374.246 336.22 375.586 337.3 375.626 339H369.526C369.766 337.26 371.006 336.22 372.546 336.22ZM377.706 342.22H375.246C374.826 343.08 374.046 343.76 372.646 343.76C370.966 343.76 369.666 342.66 369.506 340.84H377.926C377.986 340.46 378.006 340.1 378.006 339.72C378.006 336.48 375.786 334.3 372.646 334.3C369.386 334.3 367.146 336.52 367.146 339.98C367.146 343.44 369.486 345.68 372.646 345.68C375.346 345.68 377.086 344.14 377.706 342.22ZM388.47 342.42C388.35 338.44 382.13 339.68 382.13 337.46C382.13 336.72 382.77 336.22 383.99 336.22C385.23 336.22 385.97 336.88 386.05 337.84H388.33C388.21 335.64 386.57 334.3 384.07 334.3C381.47 334.3 379.83 335.72 379.83 337.48C379.83 341.52 386.23 340.28 386.23 342.44C386.23 343.2 385.53 343.76 384.21 343.76C382.95 343.76 382.09 343.02 382.01 342.12H379.65C379.75 344.12 381.61 345.68 384.25 345.68C386.85 345.68 388.47 344.28 388.47 342.42ZM390.934 345.5H393.214V334.48H390.934V345.5ZM392.094 333.02C392.894 333.02 393.534 332.38 393.534 331.56C393.534 330.74 392.894 330.1 392.094 330.1C391.274 330.1 390.634 330.74 390.634 331.56C390.634 332.38 391.274 333.02 392.094 333.02ZM395.447 339.94C395.447 343.34 397.747 345.68 400.647 345.68C402.447 345.68 403.767 344.78 404.467 343.84V345.68C404.467 347.88 403.147 348.96 401.387 348.96C399.807 348.96 398.587 348.18 398.247 347.04H395.987C396.267 349.48 398.447 350.94 401.387 350.94C404.827 350.94 406.767 348.68 406.767 345.68V334.48H404.467V336.08C403.787 335.14 402.447 334.3 400.647 334.3C397.747 334.3 395.447 336.54 395.447 339.94ZM404.467 339.98C404.467 342.36 402.847 343.7 401.127 343.7C399.427 343.7 397.787 342.32 397.787 339.94C397.787 337.56 399.427 336.28 401.127 336.28C402.847 336.28 404.467 337.62 404.467 339.98ZM417.582 345.5H419.842V339C419.842 335.92 417.902 334.3 415.322 334.3C414.002 334.3 412.782 334.84 412.042 335.74V334.48H409.762V345.5H412.042V339.34C412.042 337.32 413.142 336.28 414.822 336.28C416.482 336.28 417.582 337.32 417.582 339.34V345.5Z" fill="#212832"/>
<rect x="0.5" y="313.5" width="616" height="49" stroke="black" stroke-opacity="0.5"/>
<rect y="370" width="617" height="50" fill="white"/>
<path d="M24.6 398.44C26.08 398.44 27.24 397.3 27.24 395.84C27.24 394.36 26.08 393.22 24.6 393.22C23.16 393.22 22 394.36 22 395.84C22 397.3 23.16 398.44 24.6 398.44ZM48.5089 392.76C48.5089 394.14 47.7089 395.12 45.9289 395.12H43.4089V390.46H45.9289C47.7089 390.46 48.5089 391.36 48.5089 392.76ZM41.1289 388.6V402.5H43.4089V396.94H45.1489L48.3489 402.5H51.0689L47.6289 396.74C49.9689 396.16 50.8489 394.4 50.8489 392.76C50.8489 390.5 49.2289 388.6 45.9289 388.6H41.1289ZM58.4056 393.22C60.1056 393.22 61.4456 394.3 61.4856 396H55.3856C55.6256 394.26 56.8656 393.22 58.4056 393.22ZM63.5656 399.22H61.1056C60.6856 400.08 59.9056 400.76 58.5056 400.76C56.8256 400.76 55.5256 399.66 55.3656 397.84H63.7856C63.8456 397.46 63.8656 397.1 63.8656 396.72C63.8656 393.48 61.6456 391.3 58.5056 391.3C55.2456 391.3 53.0056 393.52 53.0056 396.98C53.0056 400.44 55.3456 402.68 58.5056 402.68C61.2056 402.68 62.9456 401.14 63.5656 399.22ZM74.3294 399.42C74.2094 395.44 67.9894 396.68 67.9894 394.46C67.9894 393.72 68.6294 393.22 69.8494 393.22C71.0894 393.22 71.8294 393.88 71.9094 394.84H74.1894C74.0694 392.64 72.4294 391.3 69.9294 391.3C67.3294 391.3 65.6894 392.72 65.6894 394.48C65.6894 398.52 72.0894 397.28 72.0894 399.44C72.0894 400.2 71.3894 400.76 70.0694 400.76C68.8094 400.76 67.9494 400.02 67.8694 399.12H65.5094C65.6094 401.12 67.4694 402.68 70.1094 402.68C72.7094 402.68 74.3294 401.28 74.3294 399.42ZM81.433 393.22C83.133 393.22 84.473 394.3 84.513 396H78.413C78.653 394.26 79.893 393.22 81.433 393.22ZM86.593 399.22H84.133C83.713 400.08 82.933 400.76 81.533 400.76C79.853 400.76 78.553 399.66 78.393 397.84H86.813C86.873 397.46 86.893 397.1 86.893 396.72C86.893 393.48 84.673 391.3 81.533 391.3C78.273 391.3 76.033 393.52 76.033 396.98C76.033 400.44 78.373 402.68 81.533 402.68C84.233 402.68 85.973 401.14 86.593 399.22ZM88.3767 396.94C88.3767 400.34 90.6767 402.68 93.5367 402.68C95.3767 402.68 96.6967 401.8 97.3967 400.86V402.5H99.6967V391.48H97.3967V393.08C96.7167 392.18 95.4367 391.3 93.5767 391.3C90.6767 391.3 88.3767 393.54 88.3767 396.94ZM97.3967 396.98C97.3967 399.36 95.7767 400.7 94.0567 400.7C92.3567 400.7 90.7167 399.32 90.7167 396.94C90.7167 394.56 92.3567 393.28 94.0567 393.28C95.7767 393.28 97.3967 394.62 97.3967 396.98ZM104.971 396.7C104.971 394.36 106.011 393.66 107.691 393.66H108.271V391.3C106.711 391.3 105.611 391.98 104.971 393.08V391.48H102.691V402.5H104.971V396.7ZM109.607 396.98C109.607 400.44 111.847 402.68 115.007 402.68C117.707 402.68 119.467 401.18 120.087 399.02H117.627C117.207 400.16 116.367 400.76 115.007 400.76C113.167 400.76 111.947 399.4 111.947 396.98C111.947 394.58 113.167 393.22 115.007 393.22C116.367 393.22 117.247 393.9 117.627 394.96H120.087C119.467 392.64 117.707 391.3 115.007 391.3C111.847 391.3 109.607 393.54 109.607 396.98ZM122.359 402.5H124.639V396.34C124.639 394.32 125.739 393.28 127.419 393.28C129.079 393.28 130.179 394.32 130.179 396.34V402.5H132.439V396C132.439 392.92 130.519 391.3 128.059 391.3C126.639 391.3 125.399 391.84 124.639 392.76V387.7H122.359V402.5ZM140.543 402.5H142.823V392.98L147.083 402.5H148.663L152.903 392.98V402.5H155.183V388.6H152.743L147.883 399.5L143.003 388.6H140.543V402.5ZM162.82 393.22C164.52 393.22 165.86 394.3 165.9 396H159.8C160.04 394.26 161.28 393.22 162.82 393.22ZM167.98 399.22H165.52C165.1 400.08 164.32 400.76 162.92 400.76C161.24 400.76 159.94 399.66 159.78 397.84H168.2C168.26 397.46 168.28 397.1 168.28 396.72C168.28 393.48 166.06 391.3 162.92 391.3C159.66 391.3 157.42 393.52 157.42 396.98C157.42 400.44 159.76 402.68 162.92 402.68C165.62 402.68 167.36 401.14 167.98 399.22ZM170.883 399.44C170.883 401.68 172.103 402.5 174.063 402.5H175.863V400.6H174.463C173.503 400.6 173.183 400.26 173.183 399.44V393.34H175.863V391.48H173.183V388.74H170.883V391.48H169.583V393.34H170.883V399.44ZM177.965 402.5H180.245V396.34C180.245 394.32 181.345 393.28 183.025 393.28C184.685 393.28 185.785 394.32 185.785 396.34V402.5H188.045V396C188.045 392.92 186.125 391.3 183.665 391.3C182.245 391.3 181.005 391.84 180.245 392.76V387.7H177.965V402.5ZM201.453 396.98C201.453 393.52 198.973 391.3 195.833 391.3C192.693 391.3 190.213 393.52 190.213 396.98C190.213 400.44 192.593 402.68 195.733 402.68C198.893 402.68 201.453 400.44 201.453 396.98ZM192.533 396.98C192.533 394.48 194.073 393.28 195.793 393.28C197.493 393.28 199.113 394.48 199.113 396.98C199.113 399.48 197.433 400.7 195.733 400.7C194.013 400.7 192.533 399.48 192.533 396.98ZM202.947 396.94C202.947 400.34 205.247 402.68 208.147 402.68C209.947 402.68 211.267 401.84 211.967 400.84V402.5H214.267V387.7H211.967V393.02C211.127 391.98 209.607 391.3 208.167 391.3C205.247 391.3 202.947 393.54 202.947 396.94ZM211.967 396.98C211.967 399.36 210.347 400.7 208.627 400.7C206.927 400.7 205.287 399.32 205.287 396.94C205.287 394.56 206.927 393.28 208.627 393.28C210.347 393.28 211.967 394.62 211.967 396.98ZM227.762 396.98C227.762 393.52 225.282 391.3 222.142 391.3C219.002 391.3 216.522 393.52 216.522 396.98C216.522 400.44 218.902 402.68 222.042 402.68C225.202 402.68 227.762 400.44 227.762 396.98ZM218.842 396.98C218.842 394.48 220.382 393.28 222.102 393.28C223.802 393.28 225.422 394.48 225.422 396.98C225.422 399.48 223.742 400.7 222.042 400.7C220.322 400.7 218.842 399.48 218.842 396.98ZM230.016 402.5H232.296V387.7H230.016V402.5ZM245.789 396.98C245.789 393.52 243.309 391.3 240.169 391.3C237.029 391.3 234.549 393.52 234.549 396.98C234.549 400.44 236.929 402.68 240.069 402.68C243.229 402.68 245.789 400.44 245.789 396.98ZM236.869 396.98C236.869 394.48 238.409 393.28 240.129 393.28C241.829 393.28 243.449 394.48 243.449 396.98C243.449 399.48 241.769 400.7 240.069 400.7C238.349 400.7 236.869 399.48 236.869 396.98ZM247.283 396.94C247.283 400.34 249.583 402.68 252.483 402.68C254.283 402.68 255.603 401.78 256.303 400.84V402.68C256.303 404.88 254.983 405.96 253.223 405.96C251.643 405.96 250.423 405.18 250.083 404.04H247.823C248.103 406.48 250.283 407.94 253.223 407.94C256.663 407.94 258.603 405.68 258.603 402.68V391.48H256.303V393.08C255.623 392.14 254.283 391.3 252.483 391.3C249.583 391.3 247.283 393.54 247.283 396.94ZM256.303 396.98C256.303 399.36 254.683 400.7 252.963 400.7C251.263 400.7 249.623 399.32 249.623 396.94C249.623 394.56 251.263 393.28 252.963 393.28C254.683 393.28 256.303 394.62 256.303 396.98ZM265.938 399.88L262.838 391.48H260.298L264.638 402.32L262.398 407.68H264.758L271.518 391.48H269.158L265.938 399.88Z" fill="#212832"/>
<rect x="0.5" y="370.5" width="616" height="49" stroke="black" stroke-opacity="0.5"/>
<rect width="617" height="58" fill="#3498DB"/>
<path d="M33.925 32.95C33.925 26.8 24.975 28.75 24.975 25.25C24.975 23.825 26 23.15 27.375 23.2C28.875 23.225 29.8 24.125 29.875 25.275H33.725C33.5 22.125 31.05 20.3 27.475 20.3C23.875 20.3 21.325 22.2 21.325 25.35C21.3 31.675 30.3 29.4 30.3 33.175C30.3 34.425 29.325 35.3 27.675 35.3C26.05 35.3 25.125 34.375 25.025 32.975H21.275C21.325 36.275 24.125 38.175 27.75 38.175C31.725 38.175 33.925 35.7 33.925 32.95ZM43.4094 26.8C45.2094 26.8 46.6594 27.95 46.7094 29.775H40.1344C40.4094 27.875 41.7344 26.8 43.4094 26.8ZM49.9844 33.65H46.2094C45.7594 34.575 44.9344 35.325 43.4344 35.325C41.6844 35.325 40.2844 34.175 40.1094 32.125H50.2344C50.3094 31.675 50.3344 31.225 50.3344 30.775C50.3344 26.65 47.5094 23.925 43.5094 23.925C39.4094 23.925 36.5594 26.7 36.5594 31.075C36.5594 35.425 39.4844 38.225 43.5094 38.225C46.9344 38.225 49.2344 36.2 49.9844 33.65ZM72.7641 38H76.2641V29.875C76.2641 26.05 73.9141 23.95 70.5891 23.95C68.5641 23.95 66.7391 25.025 65.8391 26.6C64.8891 24.875 63.1141 23.95 60.9641 23.95C59.2391 23.95 57.7641 24.675 56.8891 25.825V24.15H53.3891V38H56.8891V30.35C56.8891 28.15 58.1141 27 60.0141 27C61.8641 27 63.0891 28.15 63.0891 30.35V38H66.5891V30.35C66.5891 28.15 67.8141 27 69.6891 27C71.5391 27 72.7641 28.15 72.7641 30.35V38ZM86.0354 26.8C87.8354 26.8 89.2854 27.95 89.3354 29.775H82.7604C83.0354 27.875 84.3604 26.8 86.0354 26.8ZM92.6104 33.65H88.8354C88.3854 34.575 87.5604 35.325 86.0604 35.325C84.3104 35.325 82.9104 34.175 82.7354 32.125H92.8604C92.9354 31.675 92.9604 31.225 92.9604 30.775C92.9604 26.65 90.1354 23.925 86.1354 23.925C82.0354 23.925 79.1854 26.7 79.1854 31.075C79.1854 35.425 82.1104 38.225 86.1354 38.225C89.5604 38.225 91.8604 36.2 92.6104 33.65ZM106.765 34.05C106.665 28.975 98.99 30.55 98.99 28.025C98.99 27.225 99.665 26.7 100.965 26.7C102.34 26.7 103.19 27.425 103.29 28.5H106.64C106.44 25.75 104.415 23.925 101.065 23.925C97.64 23.925 95.59 25.775 95.59 28.075C95.59 33.15 103.415 31.575 103.415 34.05C103.415 34.85 102.665 35.475 101.29 35.475C99.89 35.475 98.915 34.675 98.79 33.625H95.265C95.415 36.2 97.84 38.225 101.315 38.225C104.69 38.225 106.765 36.425 106.765 34.05ZM110.688 33.7C110.688 36.875 112.463 38 115.113 38H117.313V35.05H115.688C114.588 35.05 114.213 34.65 114.213 33.725V27.025H117.313V24.15H114.213V20.725H110.688V24.15H109.038V27.025H110.688V33.7ZM126.28 26.8C128.08 26.8 129.53 27.95 129.58 29.775H123.005C123.28 27.875 124.605 26.8 126.28 26.8ZM132.855 33.65H129.08C128.63 34.575 127.805 35.325 126.305 35.325C124.555 35.325 123.155 34.175 122.98 32.125H133.105C133.18 31.675 133.205 31.225 133.205 30.775C133.205 26.65 130.38 23.925 126.38 23.925C122.28 23.925 119.43 26.7 119.43 31.075C119.43 35.425 122.355 38.225 126.38 38.225C129.805 38.225 132.105 36.2 132.855 33.65ZM139.76 31.1C139.76 28.425 141.01 27.625 143.085 27.625H144.01V23.95C142.085 23.95 140.635 24.875 139.76 26.3V24.15H136.26V38H139.76V31.1ZM152.725 37.75H165.075V34.85H157.7C160.6 32.4 164.675 29.1 164.675 24.875C164.675 21.7 162.7 19.375 158.775 19.375C155.5 19.375 152.825 21.3 152.7 25.475H156.1C156.125 23.55 157.05 22.35 158.725 22.35C160.45 22.35 161.175 23.45 161.175 25.075C161.175 28.425 156.85 31.65 152.725 35.15V37.75Z" fill="white"/>
</svg>
