<svg width="191" height="30" viewBox="0 0 191 30" fill="none" xmlns="http://www.w3.org/2000/svg">
<rect width="191" height="30" rx="4" fill="#EFCD1A"/>
<path d="M51.528 19H52.968L49.98 10.648H48.396L45.408 19H46.836L47.436 17.296H50.928L51.528 19ZM50.544 16.18H47.82L49.188 12.304L50.544 16.18ZM53.8112 15.664C53.8112 17.704 55.1912 19.108 56.9312 19.108C58.0112 19.108 58.8032 18.604 59.2232 18.004V19H60.6032V10.12H59.2232V13.312C58.7192 12.688 57.8072 12.28 56.9432 12.28C55.1912 12.28 53.8112 13.624 53.8112 15.664ZM59.2232 15.688C59.2232 17.116 58.2512 17.92 57.2192 17.92C56.1992 17.92 55.2152 17.092 55.2152 15.664C55.2152 14.236 56.1992 13.468 57.2192 13.468C58.2512 13.468 59.2232 14.272 59.2232 15.688ZM61.944 15.664C61.944 17.704 63.324 19.108 65.064 19.108C66.144 19.108 66.936 18.604 67.356 18.004V19H68.736V10.12H67.356V13.312C66.852 12.688 65.94 12.28 65.076 12.28C63.324 12.28 61.944 13.624 61.944 15.664ZM67.356 15.688C67.356 17.116 66.384 17.92 65.352 17.92C64.332 17.92 63.348 17.092 63.348 15.664C63.348 14.236 64.332 13.468 65.352 13.468C66.384 13.468 67.356 14.272 67.356 15.688ZM73.866 17.164C73.866 18.508 74.598 19 75.774 19H76.854V17.86H76.014C75.438 17.86 75.246 17.656 75.246 17.164V13.504H76.854V12.388H75.246V10.744H73.866V12.388H73.086V13.504H73.866V17.164ZM84.4148 15.688C84.4148 13.612 82.9268 12.28 81.0428 12.28C79.1588 12.28 77.6708 13.612 77.6708 15.688C77.6708 17.764 79.0988 19.108 80.9828 19.108C82.8788 19.108 84.4148 17.764 84.4148 15.688ZM79.0628 15.688C79.0628 14.188 79.9868 13.468 81.0188 13.468C82.0388 13.468 83.0108 14.188 83.0108 15.688C83.0108 17.188 82.0028 17.92 80.9828 17.92C79.9508 17.92 79.0628 17.188 79.0628 15.688ZM88.4284 14.812C88.4284 17.32 90.3364 19.072 92.6884 19.072C94.4284 19.072 95.9284 18.208 96.5644 16.576H94.9204C94.4764 17.464 93.6844 17.884 92.6884 17.884C91.0324 17.884 89.8324 16.696 89.8324 14.812C89.8324 12.928 91.0324 11.752 92.6884 11.752C93.6844 11.752 94.4764 12.172 94.9204 13.06H96.5644C95.9284 11.428 94.4284 10.552 92.6884 10.552C90.3364 10.552 88.4284 12.316 88.4284 14.812ZM104.466 15.688C104.466 13.612 102.978 12.28 101.094 12.28C99.2096 12.28 97.7216 13.612 97.7216 15.688C97.7216 17.764 99.1496 19.108 101.034 19.108C102.93 19.108 104.466 17.764 104.466 15.688ZM99.1136 15.688C99.1136 14.188 100.038 13.468 101.07 13.468C102.09 13.468 103.062 14.188 103.062 15.688C103.062 17.188 102.054 17.92 101.034 17.92C100.002 17.92 99.1136 17.188 99.1136 15.688ZM115.19 19H116.546V15.1C116.546 13.252 115.37 12.28 113.822 12.28C112.862 12.28 111.926 12.784 111.518 13.588C111.062 12.724 110.186 12.28 109.142 12.28C108.35 12.28 107.63 12.604 107.186 13.144V12.388H105.818V19H107.186V15.304C107.186 14.092 107.846 13.468 108.854 13.468C109.85 13.468 110.51 14.092 110.51 15.304V19H111.866V15.304C111.866 14.092 112.526 13.468 113.534 13.468C114.53 13.468 115.19 14.092 115.19 15.304V19ZM119.655 13.36V12.388H118.287V22.144H119.655V18.04C120.087 18.556 120.867 19.108 121.959 19.108C123.699 19.108 125.067 17.704 125.067 15.664C125.067 13.624 123.699 12.28 121.959 12.28C120.879 12.28 120.075 12.808 119.655 13.36ZM123.675 15.664C123.675 17.092 122.691 17.92 121.659 17.92C120.639 17.92 119.655 17.116 119.655 15.688C119.655 14.272 120.639 13.468 121.659 13.468C122.691 13.468 123.675 14.236 123.675 15.664ZM125.964 15.664C125.964 17.704 127.344 19.108 129.06 19.108C130.164 19.108 130.956 18.58 131.376 18.016V19H132.756V12.388H131.376V13.348C130.968 12.808 130.2 12.28 129.084 12.28C127.344 12.28 125.964 13.624 125.964 15.664ZM131.376 15.688C131.376 17.116 130.404 17.92 129.372 17.92C128.352 17.92 127.368 17.092 127.368 15.664C127.368 14.236 128.352 13.468 129.372 13.468C130.404 13.468 131.376 14.272 131.376 15.688ZM135.92 15.52C135.92 14.116 136.544 13.696 137.552 13.696H137.9V12.28C136.964 12.28 136.304 12.688 135.92 13.348V12.388H134.552V19H135.92V15.52ZM141.942 13.432C142.962 13.432 143.766 14.08 143.79 15.1H140.13C140.274 14.056 141.018 13.432 141.942 13.432ZM145.038 17.032H143.562C143.31 17.548 142.842 17.956 142.002 17.956C140.994 17.956 140.214 17.296 140.118 16.204H145.17C145.206 15.976 145.218 15.76 145.218 15.532C145.218 13.588 143.886 12.28 142.002 12.28C140.046 12.28 138.702 13.612 138.702 15.688C138.702 17.764 140.106 19.108 142.002 19.108C143.622 19.108 144.666 18.184 145.038 17.032Z" fill="black"/>
</svg>
