<svg width="191" height="30" viewBox="0 0 191 30" fill="none" xmlns="http://www.w3.org/2000/svg">
<rect width="191" height="30" rx="4" fill="#E8E8E8"/>
<path d="M68.928 18.296H65.436L64.836 20H63.408L66.396 11.648H67.98L70.968 20H69.528L68.928 18.296ZM68.544 17.18L67.188 13.304L65.82 17.18H68.544ZM73.6352 14.36C73.8672 14.056 74.1832 13.8 74.5832 13.592C74.9832 13.384 75.4352 13.28 75.9392 13.28C76.5152 13.28 77.0392 13.424 77.5112 13.712C77.9912 13.992 78.3672 14.388 78.6392 14.9C78.9112 15.412 79.0472 16 79.0472 16.664C79.0472 17.328 78.9112 17.924 78.6392 18.452C78.3672 18.972 77.9912 19.38 77.5112 19.676C77.0392 19.964 76.5152 20.108 75.9392 20.108C75.4352 20.108 74.9872 20.008 74.5952 19.808C74.2032 19.6 73.8832 19.344 73.6352 19.04V23.144H72.2672V13.388H73.6352V14.36ZM77.6552 16.664C77.6552 16.208 77.5592 15.816 77.3672 15.488C77.1832 15.152 76.9352 14.9 76.6232 14.732C76.3192 14.556 75.9912 14.468 75.6392 14.468C75.2952 14.468 74.9672 14.556 74.6552 14.732C74.3512 14.908 74.1032 15.164 73.9112 15.5C73.7272 15.836 73.6352 16.232 73.6352 16.688C73.6352 17.144 73.7272 17.544 73.9112 17.888C74.1032 18.224 74.3512 18.48 74.6552 18.656C74.9672 18.832 75.2952 18.92 75.6392 18.92C75.9912 18.92 76.3192 18.832 76.6232 18.656C76.9352 18.472 77.1832 18.208 77.3672 17.864C77.5592 17.52 77.6552 17.12 77.6552 16.664ZM81.768 14.36C82 14.056 82.316 13.8 82.716 13.592C83.116 13.384 83.568 13.28 84.072 13.28C84.648 13.28 85.172 13.424 85.644 13.712C86.124 13.992 86.5 14.388 86.772 14.9C87.044 15.412 87.18 16 87.18 16.664C87.18 17.328 87.044 17.924 86.772 18.452C86.5 18.972 86.124 19.38 85.644 19.676C85.172 19.964 84.648 20.108 84.072 20.108C83.568 20.108 83.12 20.008 82.728 19.808C82.336 19.6 82.016 19.344 81.768 19.04V23.144H80.4V13.388H81.768V14.36ZM85.788 16.664C85.788 16.208 85.692 15.816 85.5 15.488C85.316 15.152 85.068 14.9 84.756 14.732C84.452 14.556 84.124 14.468 83.772 14.468C83.428 14.468 83.1 14.556 82.788 14.732C82.484 14.908 82.236 15.164 82.044 15.5C81.86 15.836 81.768 16.232 81.768 16.688C81.768 17.144 81.86 17.544 82.044 17.888C82.236 18.224 82.484 18.48 82.788 18.656C83.1 18.832 83.428 18.92 83.772 18.92C84.124 18.92 84.452 18.832 84.756 18.656C85.068 18.472 85.316 18.208 85.5 17.864C85.692 17.52 85.788 17.12 85.788 16.664ZM89.9008 11.12V20H88.5328V11.12H89.9008ZM97.6489 13.388L93.5929 23.108H92.1769L93.5209 19.892L90.9169 13.388H92.4409L94.3009 18.428L96.2329 13.388H97.6489ZM108.65 20H107.282L103.166 13.772V20H101.798V11.648H103.166L107.282 17.864V11.648H108.65V20ZM113.315 20.108C112.691 20.108 112.127 19.968 111.623 19.688C111.119 19.4 110.723 19 110.435 18.488C110.147 17.968 110.003 17.368 110.003 16.688C110.003 16.016 110.151 15.42 110.447 14.9C110.743 14.38 111.147 13.98 111.659 13.7C112.171 13.42 112.743 13.28 113.375 13.28C114.007 13.28 114.579 13.42 115.091 13.7C115.603 13.98 116.007 14.38 116.303 14.9C116.599 15.42 116.747 16.016 116.747 16.688C116.747 17.36 116.595 17.956 116.291 18.476C115.987 18.996 115.571 19.4 115.043 19.688C114.523 19.968 113.947 20.108 113.315 20.108ZM113.315 18.92C113.667 18.92 113.995 18.836 114.299 18.668C114.611 18.5 114.863 18.248 115.055 17.912C115.247 17.576 115.343 17.168 115.343 16.688C115.343 16.208 115.251 15.804 115.067 15.476C114.883 15.14 114.639 14.888 114.335 14.72C114.031 14.552 113.703 14.468 113.351 14.468C112.999 14.468 112.671 14.552 112.367 14.72C112.071 14.888 111.835 15.14 111.659 15.476C111.483 15.804 111.395 16.208 111.395 16.688C111.395 17.4 111.575 17.952 111.935 18.344C112.303 18.728 112.763 18.92 113.315 18.92ZM126.979 13.388L124.927 20H123.487L122.155 15.116L120.823 20H119.383L117.319 13.388H118.711L120.091 18.704L121.495 13.388H122.923L124.267 18.68L125.635 13.388H126.979Z" fill="black"/>
</svg>
