<svg width="59" height="12" viewBox="0 0 59 12" fill="none" xmlns="http://www.w3.org/2000/svg">
<path d="M0 0H59V8C59 10.2091 57.2091 12 55 12H4C1.79086 12 0 10.2091 0 8V0Z" fill="#327EED"/>
<path d="M12.5107 9H11.6274L9.31152 5.87549L8.62598 6.49072V9H7.87891V2.5752H8.62598V5.77881C8.79297 5.58838 8.96436 5.39941 9.14014 5.21191C9.31592 5.02148 9.49023 4.82959 9.66309 4.63623L11.5396 2.5752H12.4141L9.85645 5.36133L12.5107 9ZM15.1105 4.0957C15.6818 4.0957 16.114 4.23633 16.4069 4.51758C16.6999 4.7959 16.8464 5.24414 16.8464 5.8623V9H16.1257V5.91064C16.1257 5.50928 16.0334 5.20898 15.8488 5.00977C15.6672 4.81055 15.3874 4.71094 15.0095 4.71094C14.4763 4.71094 14.1013 4.86182 13.8845 5.16357C13.6677 5.46533 13.5593 5.90332 13.5593 6.47754V9H12.8298V4.18359H13.4187L13.5285 4.87793H13.5681C13.6706 4.70801 13.801 4.56592 13.9592 4.45166C14.1174 4.33447 14.2946 4.24658 14.4909 4.18799C14.6872 4.12646 14.8938 4.0957 15.1105 4.0957ZM22.0521 6.58301C22.0521 6.97852 22.0009 7.33154 21.8983 7.64209C21.7958 7.95264 21.6479 8.21484 21.4545 8.42871C21.2611 8.64258 21.0268 8.80664 20.7514 8.9209C20.4789 9.03223 20.1698 9.08789 19.8241 9.08789C19.5019 9.08789 19.206 9.03223 18.9364 8.9209C18.6698 8.80664 18.4384 8.64258 18.2421 8.42871C18.0487 8.21484 17.8979 7.95264 17.7895 7.64209C17.684 7.33154 17.6313 6.97852 17.6313 6.58301C17.6313 6.05566 17.7206 5.60742 17.8993 5.23828C18.078 4.86621 18.3329 4.5835 18.664 4.39014C18.9979 4.19385 19.3949 4.0957 19.8549 4.0957C20.2943 4.0957 20.6781 4.19385 21.0063 4.39014C21.3373 4.58643 21.5937 4.87061 21.7753 5.24268C21.9599 5.61182 22.0521 6.05859 22.0521 6.58301ZM18.3871 6.58301C18.3871 6.96973 18.4384 7.30518 18.5409 7.58936C18.6435 7.87354 18.8017 8.09326 19.0155 8.24854C19.2294 8.40381 19.5048 8.48145 19.8417 8.48145C20.1757 8.48145 20.4496 8.40381 20.6635 8.24854C20.8803 8.09326 21.0399 7.87354 21.1425 7.58936C21.245 7.30518 21.2963 6.96973 21.2963 6.58301C21.2963 6.19922 21.245 5.86816 21.1425 5.58984C21.0399 5.30859 20.8817 5.0918 20.6679 4.93945C20.454 4.78711 20.1771 4.71094 19.8373 4.71094C19.3363 4.71094 18.9687 4.87646 18.7343 5.20752C18.5028 5.53857 18.3871 5.99707 18.3871 6.58301ZM26.7833 8.99121L25.9264 6.1875C25.8883 6.06738 25.8517 5.9502 25.8165 5.83594C25.7843 5.71875 25.7535 5.60742 25.7242 5.50195C25.6979 5.39355 25.6729 5.29395 25.6495 5.20312C25.629 5.10938 25.6114 5.02881 25.5968 4.96143H25.566C25.5543 5.02881 25.5382 5.10938 25.5177 5.20312C25.4972 5.29395 25.4723 5.39355 25.443 5.50195C25.4166 5.61035 25.3873 5.72461 25.3551 5.84473C25.3229 5.96191 25.2862 6.08057 25.2452 6.20068L24.3487 8.99121H23.527L22.1998 4.1748H22.9557L23.65 6.8335C23.6969 7.00928 23.7408 7.18359 23.7818 7.35645C23.8258 7.52637 23.8624 7.6875 23.8917 7.83984C23.9239 7.98926 23.9474 8.11963 23.962 8.23096H23.9972C24.0147 8.15771 24.0338 8.06982 24.0543 7.96729C24.0777 7.86475 24.1026 7.75635 24.129 7.64209C24.1583 7.5249 24.1891 7.40918 24.2213 7.29492C24.2535 7.17773 24.2857 7.06787 24.318 6.96533L25.2057 4.1748H25.9923L26.8492 6.96094C26.8932 7.10156 26.9356 7.24805 26.9767 7.40039C27.0206 7.55273 27.0602 7.70068 27.0953 7.84424C27.1305 7.98486 27.1554 8.11084 27.17 8.22217H27.2052C27.2169 8.12256 27.2389 7.99951 27.2711 7.85303C27.3033 7.70654 27.3399 7.54541 27.381 7.36963C27.4249 7.19385 27.4703 7.01514 27.5172 6.8335L28.2203 4.1748H28.963L27.6314 8.99121H26.7833ZM34.2153 9L32.0576 3.31348H32.0225C32.0342 3.43359 32.0444 3.58008 32.0532 3.75293C32.062 3.92578 32.0693 4.11475 32.0752 4.31982C32.0811 4.52197 32.084 4.72852 32.084 4.93945V9H31.3896V2.5752H32.4971L34.5317 7.91895H34.5625L36.6279 2.5752H37.7266V9H36.9883V4.88672C36.9883 4.69629 36.9912 4.50586 36.9971 4.31543C37.0029 4.12207 37.0103 3.94043 37.019 3.77051C37.0278 3.59766 37.0366 3.44824 37.0454 3.32227H37.0103L34.8262 9H34.2153ZM43.0773 6.58301C43.0773 6.97852 43.0261 7.33154 42.9235 7.64209C42.821 7.95264 42.673 8.21484 42.4797 8.42871C42.2863 8.64258 42.052 8.80664 41.7766 8.9209C41.5041 9.03223 41.195 9.08789 40.8493 9.08789C40.5271 9.08789 40.2312 9.03223 39.9616 8.9209C39.695 8.80664 39.4636 8.64258 39.2673 8.42871C39.0739 8.21484 38.923 7.95264 38.8146 7.64209C38.7092 7.33154 38.6564 6.97852 38.6564 6.58301C38.6564 6.05566 38.7458 5.60742 38.9245 5.23828C39.1032 4.86621 39.3581 4.5835 39.6892 4.39014C40.0231 4.19385 40.4201 4.0957 40.8801 4.0957C41.3195 4.0957 41.7033 4.19385 42.0314 4.39014C42.3625 4.58643 42.6188 4.87061 42.8005 5.24268C42.9851 5.61182 43.0773 6.05859 43.0773 6.58301ZM39.4123 6.58301C39.4123 6.96973 39.4636 7.30518 39.5661 7.58936C39.6687 7.87354 39.8269 8.09326 40.0407 8.24854C40.2546 8.40381 40.53 8.48145 40.8669 8.48145C41.2009 8.48145 41.4748 8.40381 41.6887 8.24854C41.9055 8.09326 42.0651 7.87354 42.1677 7.58936C42.2702 7.30518 42.3215 6.96973 42.3215 6.58301C42.3215 6.19922 42.2702 5.86816 42.1677 5.58984C42.0651 5.30859 41.9069 5.0918 41.6931 4.93945C41.4792 4.78711 41.2023 4.71094 40.8625 4.71094C40.3615 4.71094 39.9938 4.87646 39.7595 5.20752C39.528 5.53857 39.4123 5.99707 39.4123 6.58301ZM46.077 4.0957C46.1737 4.0957 46.2748 4.10156 46.3803 4.11328C46.4857 4.12207 46.5795 4.13525 46.6615 4.15283L46.5692 4.82959C46.4901 4.80908 46.4022 4.79297 46.3056 4.78125C46.2089 4.76953 46.1181 4.76367 46.0331 4.76367C45.8397 4.76367 45.6566 4.80322 45.4838 4.88232C45.3139 4.9585 45.1645 5.06982 45.0355 5.21631C44.9066 5.35986 44.8056 5.53418 44.7323 5.73926C44.6591 5.94141 44.6225 6.16699 44.6225 6.41602V9H43.8886V4.18359H44.495L44.5741 5.07129H44.6049C44.7045 4.89258 44.8246 4.72998 44.9652 4.5835C45.1059 4.43408 45.2685 4.31543 45.453 4.22754C45.6405 4.13965 45.8485 4.0957 46.077 4.0957ZM48.9757 4.0957C49.3858 4.0957 49.7374 4.18652 50.0304 4.36816C50.3233 4.5498 50.5475 4.80469 50.7027 5.13281C50.858 5.45801 50.9356 5.83887 50.9356 6.27539V6.72803H47.609C47.6178 7.29346 47.7584 7.72412 48.0309 8.02002C48.3033 8.31592 48.6871 8.46387 49.1822 8.46387C49.4869 8.46387 49.7564 8.43604 49.9908 8.38037C50.2252 8.32471 50.4684 8.24268 50.7203 8.13428V8.77588C50.4771 8.88428 50.2355 8.96338 49.9952 9.01318C49.7579 9.06299 49.4767 9.08789 49.1515 9.08789C48.6886 9.08789 48.2843 8.99414 47.9386 8.80664C47.5958 8.61621 47.3292 8.33789 47.1388 7.97168C46.9483 7.60547 46.8531 7.15723 46.8531 6.62695C46.8531 6.1084 46.9396 5.66016 47.1124 5.28223C47.2882 4.90137 47.5343 4.6084 47.8507 4.40332C48.17 4.19824 48.545 4.0957 48.9757 4.0957ZM48.9669 4.69336C48.5772 4.69336 48.2667 4.8208 48.0353 5.07568C47.8038 5.33057 47.6661 5.68652 47.6222 6.14355H50.171C50.1681 5.85645 50.1227 5.60449 50.0348 5.3877C49.9498 5.16797 49.8194 4.99805 49.6437 4.87793C49.4679 4.75488 49.2423 4.69336 48.9669 4.69336Z" fill="white"/>
</svg>
