<svg width="193" height="33" viewBox="0 0 193 33" fill="none" xmlns="http://www.w3.org/2000/svg">
<rect y="3" width="191" height="30" rx="4" fill="#E8E8E8"/>
<path d="M191.656 1.49225L183.708 5.55246C183.672 5.57086 183.651 5.60768 183.654 5.648C183.863 8.27115 184.268 13.4597 184.255 13.7394C184.242 14.0128 187.426 17.3415 189.165 19.122C189.226 19.1844 189.332 19.144 189.337 19.0568L189.633 12.94L189.855 8.36881C189.855 8.36108 189.856 8.35342 189.858 8.34599L191.798 1.60897C191.822 1.52487 191.734 1.45244 191.656 1.49225Z" fill="#E8E8E8" stroke="#E8E8E8"/>
<path d="M76.528 19.636C76.528 16.588 72.112 17.764 72.112 15.88C72.112 15.076 72.724 14.692 73.516 14.716C74.38 14.74 74.872 15.256 74.92 15.82H76.432C76.312 14.392 75.184 13.552 73.588 13.552C71.884 13.552 70.72 14.464 70.72 15.928C70.72 19 75.148 17.692 75.148 19.708C75.148 20.416 74.608 20.932 73.648 20.932C72.7 20.932 72.22 20.38 72.16 19.696H70.696C70.696 21.172 71.98 22.084 73.648 22.084C75.508 22.084 76.528 20.884 76.528 19.636ZM80.7462 20.428L78.8862 15.388H77.3622L79.9662 21.892L78.6222 25.108H80.0382L84.0942 15.388H82.6782L80.7462 20.428ZM85.1266 22H86.4946V13.12H85.1266V22ZM88.2906 22H89.6586V13.12H88.2906V22ZM90.9987 18.664C90.9987 20.704 92.3787 22.108 94.0947 22.108C95.1987 22.108 95.9907 21.58 96.4107 21.016V22H97.7907V15.388H96.4107V16.348C96.0027 15.808 95.2347 15.28 94.1187 15.28C92.3787 15.28 90.9987 16.624 90.9987 18.664ZM96.4107 18.688C96.4107 20.116 95.4387 20.92 94.4067 20.92C93.3867 20.92 92.4027 20.092 92.4027 18.664C92.4027 17.236 93.3867 16.468 94.4067 16.468C95.4387 16.468 96.4107 17.272 96.4107 18.688ZM100.956 16.372V13.12H99.5875V22H100.956V21.04C101.388 21.616 102.168 22.108 103.26 22.108C105 22.108 106.368 20.704 106.368 18.664C106.368 16.624 105.012 15.28 103.26 15.28C102.215 15.28 101.388 15.772 100.956 16.372ZM104.976 18.664C104.976 20.092 103.992 20.92 102.96 20.92C101.94 20.92 100.956 20.116 100.956 18.688C100.956 17.272 101.94 16.468 102.96 16.468C103.992 16.468 104.976 17.236 104.976 18.664ZM113.708 15.388H112.34V19.072C112.34 20.284 111.68 20.908 110.672 20.908C109.676 20.908 109.016 20.284 109.016 19.072V15.388H107.66V19.276C107.66 21.124 108.836 22.096 110.384 22.096C111.164 22.096 111.908 21.772 112.34 21.208V22H113.708V15.388ZM120.445 20.152C120.373 17.764 116.641 18.508 116.641 17.176C116.641 16.732 117.025 16.432 117.757 16.432C118.501 16.432 118.945 16.828 118.993 17.404H120.361C120.289 16.084 119.305 15.28 117.805 15.28C116.245 15.28 115.261 16.132 115.261 17.188C115.261 19.612 119.101 18.868 119.101 20.164C119.101 20.62 118.681 20.956 117.889 20.956C117.133 20.956 116.617 20.512 116.569 19.972H115.153C115.213 21.172 116.329 22.108 117.913 22.108C119.473 22.108 120.445 21.268 120.445 20.152Z" fill="black"/>
</svg>
