<svg width="191" height="30" viewBox="0 0 191 30" fill="none" xmlns="http://www.w3.org/2000/svg">
<rect width="191" height="30" rx="4" fill="#E8E8E8"/>
<path d="M72.088 10.66L68.956 19H67.372L64.228 10.66H65.692L68.164 17.596L70.648 10.66H72.088ZM73.928 11.512C73.68 11.512 73.472 11.428 73.304 11.26C73.136 11.092 73.052 10.884 73.052 10.636C73.052 10.388 73.136 10.18 73.304 10.012C73.472 9.844 73.68 9.76 73.928 9.76C74.168 9.76 74.372 9.844 74.54 10.012C74.708 10.18 74.792 10.388 74.792 10.636C74.792 10.884 74.708 11.092 74.54 11.26C74.372 11.428 74.168 11.512 73.928 11.512ZM74.6 12.388V19H73.232V12.388H74.6ZM82.4561 15.532C82.4561 15.78 82.4401 16.004 82.4081 16.204H77.3561C77.3961 16.732 77.5921 17.156 77.9441 17.476C78.2961 17.796 78.7281 17.956 79.2401 17.956C79.9761 17.956 80.4961 17.648 80.8001 17.032H82.2761C82.0761 17.64 81.7121 18.14 81.1841 18.532C80.6641 18.916 80.0161 19.108 79.2401 19.108C78.6081 19.108 78.0401 18.968 77.5361 18.688C77.0401 18.4 76.6481 18 76.3601 17.488C76.0801 16.968 75.9401 16.368 75.9401 15.688C75.9401 15.008 76.0761 14.412 76.3481 13.9C76.6281 13.38 77.0161 12.98 77.5121 12.7C78.0161 12.42 78.5921 12.28 79.2401 12.28C79.8641 12.28 80.4201 12.416 80.9081 12.688C81.3961 12.96 81.7761 13.344 82.0481 13.84C82.3201 14.328 82.4561 14.892 82.4561 15.532ZM81.0281 15.1C81.0201 14.596 80.8401 14.192 80.4881 13.888C80.1361 13.584 79.7001 13.432 79.1801 13.432C78.7081 13.432 78.3041 13.584 77.9681 13.888C77.6321 14.184 77.4321 14.588 77.3681 15.1H81.0281ZM92.6823 12.388L90.6303 19H89.1903L87.8583 14.116L86.5263 19H85.0863L83.0223 12.388H84.4143L85.7943 17.704L87.1983 12.388H88.6263L89.9703 17.68L91.3383 12.388H92.6823ZM105.606 10.66V19H104.238V13.288L101.694 19H100.746L98.1899 13.288V19H96.8219V10.66H98.2979L101.226 17.2L104.142 10.66H105.606ZM110.272 19.108C109.648 19.108 109.084 18.968 108.58 18.688C108.076 18.4 107.68 18 107.392 17.488C107.104 16.968 106.96 16.368 106.96 15.688C106.96 15.016 107.108 14.42 107.404 13.9C107.7 13.38 108.104 12.98 108.616 12.7C109.128 12.42 109.7 12.28 110.332 12.28C110.964 12.28 111.536 12.42 112.048 12.7C112.56 12.98 112.964 13.38 113.26 13.9C113.556 14.42 113.704 15.016 113.704 15.688C113.704 16.36 113.552 16.956 113.248 17.476C112.944 17.996 112.528 18.4 112 18.688C111.48 18.968 110.904 19.108 110.272 19.108ZM110.272 17.92C110.624 17.92 110.952 17.836 111.256 17.668C111.568 17.5 111.82 17.248 112.012 16.912C112.204 16.576 112.3 16.168 112.3 15.688C112.3 15.208 112.208 14.804 112.024 14.476C111.84 14.14 111.596 13.888 111.292 13.72C110.988 13.552 110.66 13.468 110.308 13.468C109.956 13.468 109.628 13.552 109.324 13.72C109.028 13.888 108.792 14.14 108.616 14.476C108.44 14.804 108.352 15.208 108.352 15.688C108.352 16.4 108.532 16.952 108.892 17.344C109.26 17.728 109.72 17.92 110.272 17.92ZM116.424 13.348C116.624 13.012 116.888 12.752 117.216 12.568C117.552 12.376 117.948 12.28 118.404 12.28V13.696H118.056C117.52 13.696 117.112 13.832 116.832 14.104C116.56 14.376 116.424 14.848 116.424 15.52V19H115.056V12.388H116.424V13.348ZM125.722 15.532C125.722 15.78 125.706 16.004 125.674 16.204H120.622C120.662 16.732 120.858 17.156 121.21 17.476C121.562 17.796 121.994 17.956 122.506 17.956C123.242 17.956 123.762 17.648 124.066 17.032H125.542C125.342 17.64 124.978 18.14 124.45 18.532C123.93 18.916 123.282 19.108 122.506 19.108C121.874 19.108 121.306 18.968 120.802 18.688C120.306 18.4 119.914 18 119.626 17.488C119.346 16.968 119.206 16.368 119.206 15.688C119.206 15.008 119.342 14.412 119.614 13.9C119.894 13.38 120.282 12.98 120.778 12.7C121.282 12.42 121.858 12.28 122.506 12.28C123.13 12.28 123.686 12.416 124.174 12.688C124.662 12.96 125.042 13.344 125.314 13.84C125.586 14.328 125.722 14.892 125.722 15.532ZM124.294 15.1C124.286 14.596 124.106 14.192 123.754 13.888C123.402 13.584 122.966 13.432 122.446 13.432C121.974 13.432 121.57 13.584 121.234 13.888C120.898 14.184 120.698 14.588 120.634 15.1H124.294Z" fill="black"/>
</svg>
