<svg width="135" height="135" viewBox="0 0 135 135" fill="none" xmlns="http://www.w3.org/2000/svg">
<rect x="1.5" y="1.5" width="132" height="132" rx="27.5" stroke="#003C92" stroke-width="3"/>
<circle cx="65.5" cy="67.5" r="44.5" fill="#821FFF" fill-opacity="0.69"/>
<circle cx="65.5" cy="67.5" r="44.5" stroke="#003C92"/>
<path d="M81.8187 46.7333C80.535 46.7328 79.2857 47.1416 78.2587 47.8983C77.2318 48.6551 76.4826 49.7189 76.1237 50.9298C75.7648 52.1407 75.8158 53.4333 76.2688 54.6134C76.7218 55.7935 77.5524 56.7972 78.6358 57.4737L74.7655 70.7821C74.6453 70.7746 74.525 70.7706 74.4046 70.7703C73.1287 70.7689 71.8867 71.1739 70.865 71.9246L63.7146 66.0706C64.0531 65.0839 64.1163 64.026 63.8976 63.0072C63.6789 61.9883 63.1864 61.0456 62.4711 60.2772C61.7559 59.5087 60.8441 58.9426 59.8307 58.6377C58.8172 58.3328 57.7392 58.3003 56.7086 58.5435C55.678 58.7867 54.7326 59.2968 53.9707 60.0206C53.2088 60.7445 52.6583 61.6557 52.3763 62.6595C52.0944 63.6632 52.0914 64.7229 52.3676 65.7282C52.6439 66.7335 53.1893 67.6477 53.947 68.3757L49.7495 76.6236C49.5657 76.6065 49.3812 76.5977 49.1965 76.5974C47.7756 76.5956 46.4011 77.0944 45.3225 78.0033C44.2439 78.9121 43.5328 80.1707 43.3182 81.5507C43.1035 82.9307 43.3996 84.3405 44.1527 85.5243C44.9058 86.7081 46.066 87.5874 47.4226 88.0026C48.7793 88.4178 50.2425 88.3413 51.5466 87.7871C52.8508 87.2329 53.9095 86.2377 54.5305 84.9821C55.1516 83.7265 55.2938 82.2938 54.9314 80.9439C54.569 79.5941 53.726 78.4167 52.5554 77.6254L56.522 69.8326C57.4855 70.0937 58.5007 70.1108 59.4727 69.8822C60.4448 69.6536 61.3421 69.1869 62.0809 68.5255L69.0038 74.1934C68.5337 75.2112 68.3715 76.3404 68.5364 77.4463C68.7014 78.5522 69.1866 79.5881 69.9342 80.4306C70.6818 81.2731 71.6602 81.8866 72.7529 82.1979C73.8455 82.5092 75.0062 82.5053 76.0966 82.1865C77.1871 81.8678 78.1612 81.2476 78.9028 80.4001C79.6444 79.5525 80.1223 78.5133 80.2795 77.4063C80.4366 76.2994 80.2664 75.1713 79.7892 74.1568C79.3119 73.1422 78.5477 72.2839 77.5876 71.6841L81.4578 58.3758C81.5773 58.3829 81.6974 58.3876 81.8187 58.3876C83.3918 58.3876 84.9004 57.7737 86.0128 56.6809C87.1251 55.5881 87.75 54.1059 87.75 52.5604C87.75 51.015 87.1251 49.5328 86.0128 48.44C84.9004 47.3472 83.3918 46.7333 81.8187 46.7333V46.7333ZM49.1965 85.3381C48.61 85.3381 48.0366 85.1673 47.5489 84.8471C47.0612 84.527 46.6811 84.0719 46.4566 83.5395C46.2322 83.0072 46.1734 82.4213 46.2879 81.8562C46.4023 81.291 46.6847 80.7718 47.0995 80.3644C47.5142 79.9569 48.0427 79.6794 48.618 79.567C49.1932 79.4546 49.7895 79.5122 50.3314 79.7328C50.8733 79.9533 51.3365 80.3267 51.6624 80.8059C51.9882 81.285 52.1622 81.8483 52.1622 82.4246C52.1613 83.197 51.8486 83.9376 51.2926 84.4838C50.7366 85.03 49.9828 85.3373 49.1965 85.3381V85.3381ZM58.0935 67.1283C57.5069 67.1283 56.9336 66.9574 56.4459 66.6373C55.9582 66.3171 55.578 65.8621 55.3536 65.3297C55.1291 64.7973 55.0704 64.2115 55.1848 63.6463C55.2992 63.0811 55.5817 62.562 55.9964 62.1545C56.4112 61.7471 56.9396 61.4696 57.5149 61.3571C58.0902 61.2447 58.6865 61.3024 59.2284 61.5229C59.7703 61.7435 60.2335 62.1169 60.5593 62.596C60.8852 63.0752 61.0591 63.6385 61.0591 64.2147C61.0583 64.9872 60.7455 65.7278 60.1895 66.274C59.6336 66.8202 58.8798 67.1274 58.0935 67.1283ZM74.4046 79.511C73.818 79.511 73.2446 79.3401 72.7569 79.02C72.2692 78.6998 71.8891 78.2448 71.6647 77.7124C71.4402 77.18 71.3815 76.5942 71.4959 76.029C71.6103 75.4638 71.8928 74.9447 72.3075 74.5372C72.7223 74.1297 73.2507 73.8522 73.826 73.7398C74.4013 73.6274 74.9976 73.6851 75.5395 73.9056C76.0814 74.1261 76.5445 74.4996 76.8704 74.9787C77.1963 75.4579 77.3702 76.0212 77.3702 76.5974C77.3693 77.3699 77.0566 78.1105 76.5006 78.6567C75.9446 79.2029 75.1908 79.5101 74.4046 79.511V79.511ZM81.8187 55.474C81.2321 55.474 80.6588 55.3031 80.1711 54.983C79.6834 54.6628 79.3033 54.2078 79.0788 53.6754C78.8543 53.143 78.7956 52.5572 78.91 51.992C79.0245 51.4269 79.3069 50.9077 79.7217 50.5002C80.1364 50.0928 80.6648 49.8153 81.2401 49.7029C81.8154 49.5904 82.4117 49.6481 82.9536 49.8687C83.4955 50.0892 83.9587 50.4626 84.2845 50.9418C84.6104 51.4209 84.7843 51.9842 84.7843 52.5604C84.7835 53.3329 84.4707 54.0735 83.9148 54.6197C83.3588 55.1659 82.605 55.4732 81.8187 55.474Z" fill="#E2E2E2"/>
</svg>
