<svg width="135" height="135" viewBox="0 0 135 135" fill="none" xmlns="http://www.w3.org/2000/svg">
<rect x="1.5" y="1.5" width="132" height="132" rx="27.5" stroke="#003C92" stroke-width="3"/>
<circle cx="67" cy="68" r="44" fill="#4C5765"/>
<circle cx="67" cy="68" r="44" stroke="#003C92"/>
<path d="M80.068 88.5335C83.381 88.5335 86.0667 85.8479 86.0667 82.5349C86.0667 79.2219 83.381 76.5362 80.068 76.5362C76.755 76.5362 74.0693 79.2219 74.0693 82.5349C74.0693 85.8479 76.755 88.5335 80.068 88.5335Z" fill="#E2E2E2"/>
<path d="M56.0733 63.0391H59.0727V66.0384H56.0733V63.0391ZM56.0733 70.5374H59.0727V73.5367H56.0733V70.5374ZM56.0733 78.0357H59.0727V81.0351H56.0733V78.0357ZM62.072 63.0391H74.0693V66.0384H62.072V63.0391ZM62.072 70.5374H74.0693V73.5367H62.072V70.5374ZM62.072 78.0357H68.0707V81.0351H62.072V78.0357Z" fill="#E2E2E2"/>
<path d="M51.5744 85.5342V54.0412H56.0734V58.5402H74.0694V54.0412H78.5684V70.5375H81.5677V54.0412C81.5677 53.2457 81.2517 52.4828 80.6892 51.9203C80.1267 51.3579 79.3639 51.0419 78.5684 51.0419H74.0694V49.5422C74.0694 48.7467 73.7534 47.9838 73.1909 47.4213C72.6284 46.8589 71.8655 46.5429 71.07 46.5429H59.0727C58.2772 46.5429 57.5143 46.8589 56.9519 47.4213C56.3894 47.9838 56.0734 48.7467 56.0734 49.5422V51.0419H51.5744C50.7789 51.0419 50.016 51.3579 49.4535 51.9203C48.891 52.4828 48.575 53.2457 48.575 54.0412V85.5342C48.575 86.3297 48.891 87.0925 49.4535 87.655C50.016 88.2175 50.7789 88.5335 51.5744 88.5335H68.0707V85.5342H51.5744ZM59.0727 49.5422H71.07V55.5409H59.0727V49.5422Z" fill="#E2E2E2"/>
</svg>
