<svg width="135" height="135" viewBox="0 0 135 135" fill="none" xmlns="http://www.w3.org/2000/svg">
<rect x="1.5" y="1.5" width="132" height="132" rx="27.5" stroke="#003C92" stroke-width="3"/>
<circle cx="65.5" cy="71.5" r="44.5" fill="#B83645"/>
<circle cx="65.5" cy="71.5" r="44.5" stroke="#003C92"/>
<path d="M85.6394 65.1005H88.8095V69.8557H85.6394V65.1005ZM79.2992 57.1753H82.4693V77.7809H79.2992V57.1753ZM72.9591 63.5155H76.1292V71.4407H72.9591V63.5155ZM66.6189 60.3454H69.789V74.6108H66.6189V60.3454ZM60.2787 65.1005H63.4488V69.8557H60.2787V65.1005Z" fill="#E2E2E2"/>
<path d="M62.6562 87.2912C63.9693 87.2912 65.0338 86.2267 65.0338 84.9136C65.0338 83.6005 63.9693 82.536 62.6562 82.536C61.3431 82.536 60.2787 83.6005 60.2787 84.9136C60.2787 86.2267 61.3431 87.2912 62.6562 87.2912Z" fill="#E2E2E2"/>
<path d="M72.9591 93.6313H52.3535C51.513 93.6305 50.7071 93.2962 50.1128 92.7019C49.5185 92.1076 49.1842 91.3017 49.1834 90.4612V52.4201C49.1842 51.5796 49.5185 50.7738 50.1128 50.1794C50.7071 49.5851 51.513 49.2508 52.3535 49.25H72.9591V52.4201H52.3535V90.4612H72.9591V84.121H76.1292V90.4612C76.1283 91.3017 75.7941 92.1076 75.1997 92.7019C74.6054 93.2962 73.7996 93.6305 72.9591 93.6313Z" fill="#E2E2E2"/>
</svg>
