<svg width="135" height="135" viewBox="0 0 135 135" fill="none" xmlns="http://www.w3.org/2000/svg">
<rect x="1.5" y="1.5" width="132" height="132" rx="27.5" stroke="#003C92" stroke-width="3"/>
<circle cx="63.5" cy="67.5" r="44.5" fill="#4593D4"/>
<circle cx="63.5" cy="67.5" r="44.5" stroke="#003C92"/>
<path d="M70.9167 63.462L61.0278 73.0213M56.0833 68.2417L61.0278 73.0213M63.5 46.7333C61.9945 46.7314 60.513 47.0987 59.1943 47.8009C57.8756 48.5031 56.7627 49.5171 55.9597 50.7482C55.2314 50.5784 54.4838 50.4981 53.7347 50.5093C51.4804 50.5902 49.342 51.4956 47.7519 53.0425C46.7083 54.0711 45.9486 55.3366 45.5426 56.7229C45.1365 58.1092 45.0972 59.5718 45.4281 60.9766C44.1535 61.7478 43.1018 62.8186 42.3712 64.089C41.6405 65.3595 41.2548 66.7881 41.25 68.2417C41.2506 69.6993 41.6344 71.1328 42.3652 72.4078C43.096 73.6827 44.1499 74.7573 45.4281 75.5306C45.1003 76.9374 45.1436 78.4013 45.554 79.7877C45.9644 81.1741 46.7287 82.4385 47.7767 83.4648C48.8433 84.4937 50.1628 85.2439 51.6113 85.6452C53.0599 86.0464 54.5901 86.0856 56.0586 85.759C56.8555 86.9721 57.954 87.9728 59.2539 88.67C60.5537 89.3671 62.0135 89.7384 63.5 89.75C64.999 89.7504 66.4739 89.3848 67.7878 88.6871C69.1016 87.9895 70.2119 86.9823 71.0156 85.759C72.4791 86.076 74.0019 86.0303 75.4423 85.6262C76.8827 85.222 78.1941 84.4725 79.2547 83.4473C80.3153 82.4221 81.0906 81.1544 81.5087 79.762C81.9268 78.3696 81.974 76.8976 81.6461 75.4828C82.9034 74.7053 83.9382 73.6346 84.6554 72.3692C85.3725 71.1039 85.7489 69.6845 85.75 68.2417C85.7504 66.7926 85.3722 65.3669 84.6505 64.0968C83.9287 62.8268 82.8868 61.7535 81.6214 60.9766V60.9766C81.9493 59.5618 81.902 58.0899 81.484 56.6975C81.0659 55.3051 80.2905 54.0374 79.23 53.0121C78.1694 51.9869 76.858 51.2374 75.4176 50.8333C73.9771 50.4291 72.4544 50.3834 70.9908 50.7004C70.1865 49.485 69.0789 48.4847 67.7699 47.7915C66.4609 47.0982 64.9926 46.7344 63.5 46.7333V46.7333Z" stroke="white" stroke-width="2" stroke-linecap="round" stroke-linejoin="round"/>
</svg>
