<svg width="1239" height="428" viewBox="0 0 1239 428" fill="none" xmlns="http://www.w3.org/2000/svg">
<rect width="405" height="80" fill="white"/>
<path d="M138.227 44.02C138.227 45.36 137.287 46.14 135.747 46.14H132.667V41.8H135.667C137.187 41.8 138.227 42.64 138.227 44.02ZM137.867 37.96C137.867 39.24 136.967 39.94 135.487 39.94H132.667V35.96H135.487C136.967 35.96 137.867 36.7 137.867 37.96ZM140.507 44.26C140.507 42.6 139.307 41.12 137.827 40.86C139.167 40.38 140.187 39.36 140.187 37.68C140.187 35.72 138.627 34.1 135.687 34.1H130.387V48H135.947C138.787 48 140.507 46.38 140.507 44.26ZM150.824 44.02C150.824 45.36 149.884 46.14 148.344 46.14H145.264V41.8H148.264C149.784 41.8 150.824 42.64 150.824 44.02ZM150.464 37.96C150.464 39.24 149.564 39.94 148.084 39.94H145.264V35.96H148.084C149.564 35.96 150.464 36.7 150.464 37.96ZM153.104 44.26C153.104 42.6 151.904 41.12 150.424 40.86C151.764 40.38 152.784 39.36 152.784 37.68C152.784 35.72 151.224 34.1 148.284 34.1H142.984V48H148.544C151.384 48 153.104 46.38 153.104 44.26ZM164.962 48H167.362L162.382 34.08H159.742L154.762 48H157.142L158.142 45.16H163.962L164.962 48ZM163.322 43.3H158.782L161.062 36.84L163.322 43.3ZM174.723 48H177.003V36.98H174.723V48ZM175.883 35.52C176.683 35.52 177.323 34.88 177.323 34.06C177.323 33.24 176.683 32.6 175.883 32.6C175.063 32.6 174.423 33.24 174.423 34.06C174.423 34.88 175.063 35.52 175.883 35.52ZM187.816 48H190.076V41.5C190.076 38.42 188.136 36.8 185.556 36.8C184.236 36.8 183.016 37.34 182.276 38.24V36.98H179.996V48H182.276V41.84C182.276 39.82 183.376 38.78 185.056 38.78C186.716 38.78 187.816 39.82 187.816 41.84V48ZM198.18 48H200.46V41.92H205.06V40.06H200.46V35.96H206.36V34.1H198.18V48ZM208.473 48H210.753V36.98H208.473V48ZM209.633 35.52C210.433 35.52 211.073 34.88 211.073 34.06C211.073 33.24 210.433 32.6 209.633 32.6C208.813 32.6 208.173 33.24 208.173 34.06C208.173 34.88 208.813 35.52 209.633 35.52ZM221.566 48H223.826V41.5C223.826 38.42 221.886 36.8 219.306 36.8C217.986 36.8 216.766 37.34 216.026 38.24V36.98H213.746V48H216.026V41.84C216.026 39.82 217.126 38.78 218.806 38.78C220.466 38.78 221.566 39.82 221.566 41.84V48ZM225.974 42.44C225.974 45.84 228.274 48.18 231.134 48.18C232.974 48.18 234.294 47.3 234.994 46.36V48H237.294V36.98H234.994V38.58C234.314 37.68 233.034 36.8 231.174 36.8C228.274 36.8 225.974 39.04 225.974 42.44ZM234.994 42.48C234.994 44.86 233.374 46.2 231.654 46.2C229.954 46.2 228.314 44.82 228.314 42.44C228.314 40.06 229.954 38.78 231.654 38.78C233.374 38.78 234.994 40.12 234.994 42.48ZM248.109 48H250.369V41.5C250.369 38.42 248.429 36.8 245.849 36.8C244.529 36.8 243.309 37.34 242.569 38.24V36.98H240.289V48H242.569V41.84C242.569 39.82 243.669 38.78 245.349 38.78C247.009 38.78 248.109 39.82 248.109 41.84V48ZM252.517 42.48C252.517 45.94 254.757 48.18 257.917 48.18C260.617 48.18 262.377 46.68 262.997 44.52H260.537C260.117 45.66 259.277 46.26 257.917 46.26C256.077 46.26 254.857 44.9 254.857 42.48C254.857 40.08 256.077 38.72 257.917 38.72C259.277 38.72 260.157 39.4 260.537 40.46H262.997C262.377 38.14 260.617 36.8 257.917 36.8C254.757 36.8 252.517 39.04 252.517 42.48ZM269.91 38.72C271.61 38.72 272.95 39.8 272.99 41.5H266.89C267.13 39.76 268.37 38.72 269.91 38.72ZM275.07 44.72H272.61C272.19 45.58 271.41 46.26 270.01 46.26C268.33 46.26 267.03 45.16 266.87 43.34H275.29C275.35 42.96 275.37 42.6 275.37 42.22C275.37 38.98 273.15 36.8 270.01 36.8C266.75 36.8 264.51 39.02 264.51 42.48C264.51 45.94 266.85 48.18 270.01 48.18C272.71 48.18 274.45 46.64 275.07 44.72Z" fill="#212832"/>
<rect x="0.5" y="0.5" width="404" height="79" stroke="black" stroke-opacity="0.5"/>
<rect y="261" width="405" height="80" fill="white"/>
<path d="M127.172 305.02C127.172 306.36 126.232 307.14 124.692 307.14H121.612V302.8H124.612C126.132 302.8 127.172 303.64 127.172 305.02ZM126.812 298.96C126.812 300.24 125.912 300.94 124.432 300.94H121.612V296.96H124.432C125.912 296.96 126.812 297.7 126.812 298.96ZM129.452 305.26C129.452 303.6 128.252 302.12 126.772 301.86C128.112 301.38 129.132 300.36 129.132 298.68C129.132 296.72 127.572 295.1 124.632 295.1H119.332V309H124.892C127.732 309 129.452 307.38 129.452 305.26ZM139.77 305.02C139.77 306.36 138.83 307.14 137.29 307.14H134.21V302.8H137.21C138.73 302.8 139.77 303.64 139.77 305.02ZM139.41 298.96C139.41 300.24 138.51 300.94 137.03 300.94H134.21V296.96H137.03C138.51 296.96 139.41 297.7 139.41 298.96ZM142.05 305.26C142.05 303.6 140.85 302.12 139.37 301.86C140.71 301.38 141.73 300.36 141.73 298.68C141.73 296.72 140.17 295.1 137.23 295.1H131.93V309H137.49C140.33 309 142.05 307.38 142.05 305.26ZM153.907 309H156.307L151.327 295.08H148.687L143.707 309H146.087L147.087 306.16H152.907L153.907 309ZM152.267 304.3H147.727L150.007 297.84L152.267 304.3ZM163.668 309H165.948V297.98H163.668V309ZM164.828 296.52C165.628 296.52 166.268 295.88 166.268 295.06C166.268 294.24 165.628 293.6 164.828 293.6C164.008 293.6 163.368 294.24 163.368 295.06C163.368 295.88 164.008 296.52 164.828 296.52ZM176.761 309H179.021V302.5C179.021 299.42 177.081 297.8 174.501 297.8C173.181 297.8 171.961 298.34 171.221 299.24V297.98H168.941V309H171.221V302.84C171.221 300.82 172.321 299.78 174.001 299.78C175.661 299.78 176.761 300.82 176.761 302.84V309ZM187.125 309H189.405V299.48L193.665 309H195.245L199.485 299.48V309H201.765V295.1H199.325L194.465 306L189.585 295.1H187.125V309ZM204.002 303.44C204.002 306.84 206.302 309.18 209.162 309.18C211.002 309.18 212.322 308.3 213.022 307.36V309H215.322V297.98H213.022V299.58C212.342 298.68 211.062 297.8 209.202 297.8C206.302 297.8 204.002 300.04 204.002 303.44ZM213.022 303.48C213.022 305.86 211.402 307.2 209.682 307.2C207.982 307.2 206.342 305.82 206.342 303.44C206.342 301.06 207.982 299.78 209.682 299.78C211.402 299.78 213.022 301.12 213.022 303.48ZM220.596 303.2C220.596 300.86 221.636 300.16 223.316 300.16H223.896V297.8C222.336 297.8 221.236 298.48 220.596 299.58V297.98H218.316V309H220.596V303.2ZM225.992 309H228.272V304.26L232.352 309H235.432L230.352 303.5L235.432 297.98H232.272L228.272 302.8V294.2H225.992V309ZM241.706 299.72C243.406 299.72 244.746 300.8 244.786 302.5H238.686C238.926 300.76 240.166 299.72 241.706 299.72ZM246.866 305.72H244.406C243.986 306.58 243.206 307.26 241.806 307.26C240.126 307.26 238.826 306.16 238.666 304.34H247.086C247.146 303.96 247.166 303.6 247.166 303.22C247.166 299.98 244.946 297.8 241.806 297.8C238.546 297.8 236.306 300.02 236.306 303.48C236.306 306.94 238.646 309.18 241.806 309.18C244.506 309.18 246.246 307.64 246.866 305.72ZM249.77 305.94C249.77 308.18 250.99 309 252.95 309H254.75V307.1H253.35C252.39 307.1 252.07 306.76 252.07 305.94V299.84H254.75V297.98H252.07V295.24H249.77V297.98H248.47V299.84H249.77V305.94ZM256.852 309H259.132V297.98H256.852V309ZM258.012 296.52C258.812 296.52 259.452 295.88 259.452 295.06C259.452 294.24 258.812 293.6 258.012 293.6C257.192 293.6 256.552 294.24 256.552 295.06C256.552 295.88 257.192 296.52 258.012 296.52ZM269.945 309H272.205V302.5C272.205 299.42 270.265 297.8 267.685 297.8C266.365 297.8 265.145 298.34 264.405 299.24V297.98H262.125V309H264.405V302.84C264.405 300.82 265.505 299.78 267.185 299.78C268.845 299.78 269.945 300.82 269.945 302.84V309ZM274.353 303.44C274.353 306.84 276.653 309.18 279.553 309.18C281.353 309.18 282.673 308.28 283.373 307.34V309.18C283.373 311.38 282.053 312.46 280.293 312.46C278.713 312.46 277.493 311.68 277.153 310.54H274.893C275.173 312.98 277.353 314.44 280.293 314.44C283.733 314.44 285.673 312.18 285.673 309.18V297.98H283.373V299.58C282.693 298.64 281.353 297.8 279.553 297.8C276.653 297.8 274.353 300.04 274.353 303.44ZM283.373 303.48C283.373 305.86 281.753 307.2 280.033 307.2C278.333 307.2 276.693 305.82 276.693 303.44C276.693 301.06 278.333 299.78 280.033 299.78C281.753 299.78 283.373 301.12 283.373 303.48Z" fill="#212832"/>
<rect x="0.5" y="261.5" width="404" height="79" stroke="black" stroke-opacity="0.5"/>
<rect y="87" width="405" height="80" fill="white"/>
<path d="M156.256 131.02C156.256 132.36 155.316 133.14 153.776 133.14H150.696V128.8H153.696C155.216 128.8 156.256 129.64 156.256 131.02ZM155.896 124.96C155.896 126.24 154.996 126.94 153.516 126.94H150.696V122.96H153.516C154.996 122.96 155.896 123.7 155.896 124.96ZM158.536 131.26C158.536 129.6 157.336 128.12 155.856 127.86C157.196 127.38 158.216 126.36 158.216 124.68C158.216 122.72 156.656 121.1 153.716 121.1H148.416V135H153.976C156.816 135 158.536 133.38 158.536 131.26ZM168.854 131.02C168.854 132.36 167.914 133.14 166.374 133.14H163.294V128.8H166.294C167.814 128.8 168.854 129.64 168.854 131.02ZM168.494 124.96C168.494 126.24 167.594 126.94 166.114 126.94H163.294V122.96H166.114C167.594 122.96 168.494 123.7 168.494 124.96ZM171.134 131.26C171.134 129.6 169.934 128.12 168.454 127.86C169.794 127.38 170.814 126.36 170.814 124.68C170.814 122.72 169.254 121.1 166.314 121.1H161.014V135H166.574C169.414 135 171.134 133.38 171.134 131.26ZM182.991 135H185.391L180.411 121.08H177.771L172.791 135H175.171L176.171 132.16H181.991L182.991 135ZM181.351 130.3H176.811L179.091 123.84L181.351 130.3ZM192.752 135H195.032V123.98H192.752V135ZM193.912 122.52C194.712 122.52 195.352 121.88 195.352 121.06C195.352 120.24 194.712 119.6 193.912 119.6C193.092 119.6 192.452 120.24 192.452 121.06C192.452 121.88 193.092 122.52 193.912 122.52ZM205.845 135H208.105V128.5C208.105 125.42 206.165 123.8 203.585 123.8C202.265 123.8 201.045 124.34 200.305 125.24V123.98H198.025V135H200.305V128.84C200.305 126.82 201.405 125.78 203.085 125.78C204.745 125.78 205.845 126.82 205.845 128.84V135ZM225.029 135H227.309V121.1H225.029V127.06H218.489V121.1H216.209V135H218.489V128.92H225.029V135ZM237.691 125.26C237.691 126.64 236.891 127.62 235.111 127.62H232.591V122.96H235.111C236.891 122.96 237.691 123.86 237.691 125.26ZM230.311 121.1V135H232.591V129.44H234.331L237.531 135H240.251L236.811 129.24C239.151 128.66 240.031 126.9 240.031 125.26C240.031 123 238.411 121.1 235.111 121.1H230.311ZM242.947 135H245.227V125.48L249.487 135H251.067L255.307 125.48V135H257.587V121.1H255.147L250.287 132L245.407 121.1H242.947V135Z" fill="#212832"/>
<rect x="0.5" y="87.5" width="404" height="79" stroke="black" stroke-opacity="0.5"/>
<rect y="348" width="405" height="80" fill="white"/>
<path d="M85.3283 392.02C85.3283 393.36 84.3883 394.14 82.8483 394.14H79.7683V389.8H82.7683C84.2883 389.8 85.3283 390.64 85.3283 392.02ZM84.9683 385.96C84.9683 387.24 84.0683 387.94 82.5883 387.94H79.7683V383.96H82.5883C84.0683 383.96 84.9683 384.7 84.9683 385.96ZM87.6083 392.26C87.6083 390.6 86.4083 389.12 84.9283 388.86C86.2683 388.38 87.2883 387.36 87.2883 385.68C87.2883 383.72 85.7283 382.1 82.7883 382.1H77.4883V396H83.0483C85.8883 396 87.6083 394.38 87.6083 392.26ZM97.9259 392.02C97.9259 393.36 96.9859 394.14 95.4459 394.14H92.3659V389.8H95.3659C96.8859 389.8 97.9259 390.64 97.9259 392.02ZM97.5659 385.96C97.5659 387.24 96.6659 387.94 95.1859 387.94H92.3659V383.96H95.1859C96.6659 383.96 97.5659 384.7 97.5659 385.96ZM100.206 392.26C100.206 390.6 99.0059 389.12 97.5259 388.86C98.8659 388.38 99.8859 387.36 99.8859 385.68C99.8859 383.72 98.3259 382.1 95.3859 382.1H90.0859V396H95.6459C98.4859 396 100.206 394.38 100.206 392.26ZM112.064 396H114.464L109.484 382.08H106.844L101.864 396H104.244L105.244 393.16H111.064L112.064 396ZM110.424 391.3H105.884L108.164 384.84L110.424 391.3ZM121.824 396H124.104V384.98H121.824V396ZM122.984 383.52C123.784 383.52 124.424 382.88 124.424 382.06C124.424 381.24 123.784 380.6 122.984 380.6C122.164 380.6 121.524 381.24 121.524 382.06C121.524 382.88 122.164 383.52 122.984 383.52ZM134.918 396H137.178V389.5C137.178 386.42 135.238 384.8 132.658 384.8C131.338 384.8 130.118 385.34 129.378 386.24V384.98H127.098V396H129.378V389.84C129.378 387.82 130.478 386.78 132.158 386.78C133.818 386.78 134.918 387.82 134.918 389.84V396ZM153.121 392.02C153.121 393.36 152.181 394.14 150.641 394.14H147.561V389.8H150.561C152.081 389.8 153.121 390.64 153.121 392.02ZM152.761 385.96C152.761 387.24 151.861 387.94 150.381 387.94H147.561V383.96H150.381C151.861 383.96 152.761 384.7 152.761 385.96ZM155.401 392.26C155.401 390.6 154.201 389.12 152.721 388.86C154.061 388.38 155.081 387.36 155.081 385.68C155.081 383.72 153.521 382.1 150.581 382.1H145.281V396H150.841C153.681 396 155.401 394.38 155.401 392.26ZM167.859 384.98H165.579V391.12C165.579 393.14 164.479 394.18 162.799 394.18C161.139 394.18 160.039 393.14 160.039 391.12V384.98H157.779V391.46C157.779 394.54 159.739 396.16 162.319 396.16C163.619 396.16 164.859 395.62 165.579 394.68V396H167.859V384.98ZM179.087 392.92C178.967 388.94 172.747 390.18 172.747 387.96C172.747 387.22 173.387 386.72 174.607 386.72C175.847 386.72 176.587 387.38 176.667 388.34H178.947C178.827 386.14 177.187 384.8 174.687 384.8C172.087 384.8 170.447 386.22 170.447 387.98C170.447 392.02 176.847 390.78 176.847 392.94C176.847 393.7 176.147 394.26 174.827 394.26C173.567 394.26 172.707 393.52 172.627 392.62H170.267C170.367 394.62 172.227 396.18 174.867 396.18C177.467 396.18 179.087 394.78 179.087 392.92ZM181.551 396H183.831V384.98H181.551V396ZM182.711 383.52C183.511 383.52 184.151 382.88 184.151 382.06C184.151 381.24 183.511 380.6 182.711 380.6C181.891 380.6 181.251 381.24 181.251 382.06C181.251 382.88 181.891 383.52 182.711 383.52ZM194.644 396H196.904V389.5C196.904 386.42 194.964 384.8 192.384 384.8C191.064 384.8 189.844 385.34 189.104 386.24V384.98H186.824V396H189.104V389.84C189.104 387.82 190.204 386.78 191.884 386.78C193.544 386.78 194.644 387.82 194.644 389.84V396ZM204.453 386.72C206.153 386.72 207.493 387.8 207.533 389.5H201.433C201.673 387.76 202.913 386.72 204.453 386.72ZM209.612 392.72H207.153C206.733 393.58 205.953 394.26 204.553 394.26C202.873 394.26 201.573 393.16 201.413 391.34H209.833C209.893 390.96 209.913 390.6 209.913 390.22C209.913 386.98 207.693 384.8 204.553 384.8C201.293 384.8 199.053 387.02 199.053 390.48C199.053 393.94 201.393 396.18 204.553 396.18C207.253 396.18 208.993 394.64 209.612 392.72ZM220.376 392.92C220.256 388.94 214.036 390.18 214.036 387.96C214.036 387.22 214.676 386.72 215.896 386.72C217.136 386.72 217.876 387.38 217.956 388.34H220.236C220.116 386.14 218.476 384.8 215.976 384.8C213.376 384.8 211.736 386.22 211.736 387.98C211.736 392.02 218.136 390.78 218.136 392.94C218.136 393.7 217.436 394.26 216.116 394.26C214.856 394.26 213.996 393.52 213.916 392.62H211.556C211.656 394.62 213.516 396.18 216.156 396.18C218.756 396.18 220.376 394.78 220.376 392.92ZM231.06 392.92C230.94 388.94 224.72 390.18 224.72 387.96C224.72 387.22 225.36 386.72 226.58 386.72C227.82 386.72 228.56 387.38 228.64 388.34H230.92C230.8 386.14 229.16 384.8 226.66 384.8C224.06 384.8 222.42 386.22 222.42 387.98C222.42 392.02 228.82 390.78 228.82 392.94C228.82 393.7 228.12 394.26 226.8 394.26C225.54 394.26 224.68 393.52 224.6 392.62H222.24C222.34 394.62 224.2 396.18 226.84 396.18C229.44 396.18 231.06 394.78 231.06 392.92ZM248.099 396H250.499L245.519 382.08H242.879L237.899 396H240.279L241.279 393.16H247.099L248.099 396ZM246.459 391.3H241.919L244.199 384.84L246.459 391.3ZM260.484 396H262.744V389.5C262.744 386.42 260.804 384.8 258.224 384.8C256.904 384.8 255.684 385.34 254.944 386.24V384.98H252.664V396H254.944V389.84C254.944 387.82 256.044 386.78 257.724 386.78C259.384 386.78 260.484 387.82 260.484 389.84V396ZM264.892 390.44C264.892 393.84 267.192 396.18 270.052 396.18C271.892 396.18 273.212 395.3 273.912 394.36V396H276.212V384.98H273.912V386.58C273.232 385.68 271.952 384.8 270.092 384.8C267.192 384.8 264.892 387.04 264.892 390.44ZM273.912 390.48C273.912 392.86 272.292 394.2 270.572 394.2C268.872 394.2 267.232 392.82 267.232 390.44C267.232 388.06 268.872 386.78 270.572 386.78C272.292 386.78 273.912 388.12 273.912 390.48ZM279.207 396H281.487V381.2H279.207V396ZM288.82 393.38L285.72 384.98H283.18L287.52 395.82L285.28 401.18H287.64L294.4 384.98H292.04L288.82 393.38ZM296.481 392.94C296.481 395.18 297.701 396 299.661 396H301.461V394.1H300.061C299.101 394.1 298.781 393.76 298.781 392.94V386.84H301.461V384.98H298.781V382.24H296.481V384.98H295.181V386.84H296.481V392.94ZM303.563 396H305.843V384.98H303.563V396ZM304.723 383.52C305.523 383.52 306.163 382.88 306.163 382.06C306.163 381.24 305.523 380.6 304.723 380.6C303.903 380.6 303.263 381.24 303.263 382.06C303.263 382.88 303.903 383.52 304.723 383.52ZM308.076 390.48C308.076 393.94 310.316 396.18 313.476 396.18C316.176 396.18 317.936 394.68 318.556 392.52H316.096C315.676 393.66 314.836 394.26 313.476 394.26C311.636 394.26 310.416 392.9 310.416 390.48C310.416 388.08 311.636 386.72 313.476 386.72C314.836 386.72 315.716 387.4 316.096 388.46H318.556C317.936 386.14 316.176 384.8 313.476 384.8C310.316 384.8 308.076 387.04 308.076 390.48ZM329.048 392.92C328.928 388.94 322.708 390.18 322.708 387.96C322.708 387.22 323.348 386.72 324.568 386.72C325.808 386.72 326.548 387.38 326.628 388.34H328.908C328.788 386.14 327.148 384.8 324.648 384.8C322.048 384.8 320.408 386.22 320.408 387.98C320.408 392.02 326.808 390.78 326.808 392.94C326.808 393.7 326.108 394.26 324.788 394.26C323.528 394.26 322.668 393.52 322.588 392.62H320.228C320.328 394.62 322.188 396.18 324.828 396.18C327.428 396.18 329.048 394.78 329.048 392.92Z" fill="#212832"/>
<rect x="0.5" y="348.5" width="404" height="79" stroke="black" stroke-opacity="0.5"/>
<rect y="174" width="405" height="80" fill="white"/>
<path d="M137.067 218.02C137.067 219.36 136.127 220.14 134.587 220.14H131.507V215.8H134.507C136.027 215.8 137.067 216.64 137.067 218.02ZM136.707 211.96C136.707 213.24 135.807 213.94 134.327 213.94H131.507V209.96H134.327C135.807 209.96 136.707 210.7 136.707 211.96ZM139.347 218.26C139.347 216.6 138.147 215.12 136.667 214.86C138.007 214.38 139.027 213.36 139.027 211.68C139.027 209.72 137.467 208.1 134.527 208.1H129.227V222H134.787C137.627 222 139.347 220.38 139.347 218.26ZM149.664 218.02C149.664 219.36 148.724 220.14 147.184 220.14H144.104V215.8H147.104C148.624 215.8 149.664 216.64 149.664 218.02ZM149.304 211.96C149.304 213.24 148.404 213.94 146.924 213.94H144.104V209.96H146.924C148.404 209.96 149.304 210.7 149.304 211.96ZM151.944 218.26C151.944 216.6 150.744 215.12 149.264 214.86C150.604 214.38 151.624 213.36 151.624 211.68C151.624 209.72 150.064 208.1 147.124 208.1H141.824V222H147.384C150.224 222 151.944 220.38 151.944 218.26ZM163.802 222H166.202L161.222 208.08H158.582L153.602 222H155.982L156.982 219.16H162.802L163.802 222ZM162.162 217.3H157.622L159.902 210.84L162.162 217.3ZM173.563 222H175.843V210.98H173.563V222ZM174.723 209.52C175.523 209.52 176.163 208.88 176.163 208.06C176.163 207.24 175.523 206.6 174.723 206.6C173.903 206.6 173.263 207.24 173.263 208.06C173.263 208.88 173.903 209.52 174.723 209.52ZM186.656 222H188.916V215.5C188.916 212.42 186.976 210.8 184.396 210.8C183.076 210.8 181.856 211.34 181.116 212.24V210.98H178.836V222H181.116V215.84C181.116 213.82 182.216 212.78 183.896 212.78C185.556 212.78 186.656 213.82 186.656 215.84V222ZM206.4 222H208.8L203.82 208.08H201.18L196.2 222H198.58L199.58 219.16H205.4L206.4 222ZM204.76 217.3H200.22L202.5 210.84L204.76 217.3ZM209.665 210.98L213.845 222H216.565L220.765 210.98H218.345L215.225 219.96L212.105 210.98H209.665ZM222.488 222H224.768V210.98H222.488V222ZM223.648 209.52C224.448 209.52 225.088 208.88 225.088 208.06C225.088 207.24 224.448 206.6 223.648 206.6C222.828 206.6 222.188 207.24 222.188 208.06C222.188 208.88 222.828 209.52 223.648 209.52ZM227.002 216.44C227.002 219.84 229.302 222.18 232.162 222.18C234.002 222.18 235.322 221.3 236.022 220.36V222H238.322V210.98H236.022V212.58C235.342 211.68 234.062 210.8 232.202 210.8C229.302 210.8 227.002 213.04 227.002 216.44ZM236.022 216.48C236.022 218.86 234.402 220.2 232.682 220.2C230.982 220.2 229.342 218.82 229.342 216.44C229.342 214.06 230.982 212.78 232.682 212.78C234.402 212.78 236.022 214.12 236.022 216.48ZM241.676 218.94C241.676 221.18 242.896 222 244.856 222H246.656V220.1H245.256C244.296 220.1 243.976 219.76 243.976 218.94V212.84H246.656V210.98H243.976V208.24H241.676V210.98H240.376V212.84H241.676V218.94ZM248.758 222H251.038V210.98H248.758V222ZM249.918 209.52C250.718 209.52 251.358 208.88 251.358 208.06C251.358 207.24 250.718 206.6 249.918 206.6C249.098 206.6 248.458 207.24 248.458 208.06C248.458 208.88 249.098 209.52 249.918 209.52ZM264.531 216.48C264.531 213.02 262.051 210.8 258.911 210.8C255.771 210.8 253.291 213.02 253.291 216.48C253.291 219.94 255.671 222.18 258.811 222.18C261.971 222.18 264.531 219.94 264.531 216.48ZM255.611 216.48C255.611 213.98 257.151 212.78 258.871 212.78C260.571 212.78 262.191 213.98 262.191 216.48C262.191 218.98 260.511 220.2 258.811 220.2C257.091 220.2 255.611 218.98 255.611 216.48ZM274.605 222H276.865V215.5C276.865 212.42 274.925 210.8 272.345 210.8C271.025 210.8 269.805 211.34 269.065 212.24V210.98H266.785V222H269.065V215.84C269.065 213.82 270.165 212.78 271.845 212.78C273.505 212.78 274.605 213.82 274.605 215.84V222Z" fill="#212832"/>
<rect x="0.5" y="174.5" width="404" height="79" stroke="black" stroke-opacity="0.5"/>
<rect x="834" width="405" height="80" fill="white"/>
<rect x="834.5" y="0.5" width="404" height="79" stroke="black" stroke-opacity="0.5"/>
<path d="M898.752 42.02C898.752 43.36 897.812 44.14 896.272 44.14H893.192V39.8H896.192C897.712 39.8 898.752 40.64 898.752 42.02ZM898.392 35.96C898.392 37.24 897.492 37.94 896.012 37.94H893.192V33.96H896.012C897.492 33.96 898.392 34.7 898.392 35.96ZM901.032 42.26C901.032 40.6 899.832 39.12 898.352 38.86C899.692 38.38 900.712 37.36 900.712 35.68C900.712 33.72 899.152 32.1 896.212 32.1H890.912V46H896.472C899.312 46 901.032 44.38 901.032 42.26ZM911.35 42.02C911.35 43.36 910.41 44.14 908.87 44.14H905.79V39.8H908.79C910.31 39.8 911.35 40.64 911.35 42.02ZM910.99 35.96C910.99 37.24 910.09 37.94 908.61 37.94H905.79V33.96H908.61C910.09 33.96 910.99 34.7 910.99 35.96ZM913.63 42.26C913.63 40.6 912.43 39.12 910.95 38.86C912.29 38.38 913.31 37.36 913.31 35.68C913.31 33.72 911.75 32.1 908.81 32.1H903.51V46H909.07C911.91 46 913.63 44.38 913.63 42.26ZM925.487 46H927.887L922.907 32.08H920.267L915.287 46H917.667L918.667 43.16H924.487L925.487 46ZM923.847 41.3H919.307L921.587 34.84L923.847 41.3ZM935.248 46H937.528V34.98H935.248V46ZM936.408 33.52C937.208 33.52 937.848 32.88 937.848 32.06C937.848 31.24 937.208 30.6 936.408 30.6C935.588 30.6 934.948 31.24 934.948 32.06C934.948 32.88 935.588 33.52 936.408 33.52ZM948.341 46H950.601V39.5C950.601 36.42 948.661 34.8 946.081 34.8C944.761 34.8 943.541 35.34 942.801 36.24V34.98H940.521V46H942.801V39.84C942.801 37.82 943.901 36.78 945.581 36.78C947.241 36.78 948.341 37.82 948.341 39.84V46ZM968.085 42.06C968.085 36.98 960.725 38.94 960.725 35.8C960.725 34.46 961.745 33.82 963.065 33.86C964.505 33.9 965.325 34.76 965.405 35.7H967.925C967.725 33.32 965.845 31.92 963.185 31.92C960.345 31.92 958.405 33.44 958.405 35.88C958.405 41 965.785 38.82 965.785 42.18C965.785 43.36 964.885 44.22 963.285 44.22C961.705 44.22 960.905 43.3 960.805 42.16H958.365C958.365 44.62 960.505 46.14 963.285 46.14C966.385 46.14 968.085 44.14 968.085 42.06ZM971.135 42.94C971.135 45.18 972.355 46 974.315 46H976.115V44.1H974.715C973.755 44.1 973.435 43.76 973.435 42.94V36.84H976.115V34.98H973.435V32.24H971.135V34.98H969.835V36.84H971.135V42.94ZM980.497 40.2C980.497 37.86 981.537 37.16 983.217 37.16H983.797V34.8C982.237 34.8 981.137 35.48 980.497 36.58V34.98H978.217V46H980.497V40.2ZM985.133 40.44C985.133 43.84 987.433 46.18 990.293 46.18C992.133 46.18 993.453 45.3 994.153 44.36V46H996.453V34.98H994.153V36.58C993.473 35.68 992.193 34.8 990.333 34.8C987.433 34.8 985.133 37.04 985.133 40.44ZM994.153 40.48C994.153 42.86 992.533 44.2 990.813 44.2C989.113 44.2 987.473 42.82 987.473 40.44C987.473 38.06 989.113 36.78 990.813 36.78C992.533 36.78 994.153 38.12 994.153 40.48ZM999.807 42.94C999.807 45.18 1001.03 46 1002.99 46H1004.79V44.1H1003.39C1002.43 44.1 1002.11 43.76 1002.11 42.94V36.84H1004.79V34.98H1002.11V32.24H999.807V34.98H998.507V36.84H999.807V42.94ZM1011.53 36.72C1013.23 36.72 1014.57 37.8 1014.61 39.5H1008.51C1008.75 37.76 1009.99 36.72 1011.53 36.72ZM1016.69 42.72H1014.23C1013.81 43.58 1013.03 44.26 1011.63 44.26C1009.95 44.26 1008.65 43.16 1008.49 41.34H1016.91C1016.97 40.96 1016.99 40.6 1016.99 40.22C1016.99 36.98 1014.77 34.8 1011.63 34.8C1008.37 34.8 1006.13 37.02 1006.13 40.48C1006.13 43.94 1008.47 46.18 1011.63 46.18C1014.33 46.18 1016.07 44.64 1016.69 42.72ZM1018.47 40.44C1018.47 43.84 1020.77 46.18 1023.67 46.18C1025.47 46.18 1026.79 45.28 1027.49 44.34V46.18C1027.49 48.38 1026.17 49.46 1024.41 49.46C1022.83 49.46 1021.61 48.68 1021.27 47.54H1019.01C1019.29 49.98 1021.47 51.44 1024.41 51.44C1027.85 51.44 1029.79 49.18 1029.79 46.18V34.98H1027.49V36.58C1026.81 35.64 1025.47 34.8 1023.67 34.8C1020.77 34.8 1018.47 37.04 1018.47 40.44ZM1027.49 40.48C1027.49 42.86 1025.87 44.2 1024.15 44.2C1022.45 44.2 1020.81 42.82 1020.81 40.44C1020.81 38.06 1022.45 36.78 1024.15 36.78C1025.87 36.78 1027.49 38.12 1027.49 40.48ZM1037.13 43.38L1034.03 34.98H1031.49L1035.83 45.82L1033.59 51.18H1035.95L1042.71 34.98H1040.35L1037.13 43.38ZM1058.46 35.2C1058.6 33.3 1057.3 31.78 1054.88 31.78C1052.5 31.78 1051.02 33.16 1051.02 34.98C1051.02 35.96 1051.3 36.7 1052.08 37.64C1049.88 38.54 1048.82 40.12 1048.82 42C1048.82 44.6 1050.82 46.26 1053.82 46.26C1055.76 46.26 1057.3 45.62 1058.64 44.28L1060.36 46H1063.34L1059.96 42.64C1060.12 42.38 1060.3 42.1 1060.46 41.82L1062.26 38.74H1059.8L1058.38 41.08L1054.7 37.42C1053.72 36.36 1053.3 35.74 1053.3 34.98C1053.3 34.24 1053.88 33.64 1054.78 33.64C1055.64 33.64 1056.22 34.18 1056.18 35.2H1058.46ZM1053.82 44.32C1052.18 44.32 1051.1 43.26 1051.1 41.92C1051.1 40.68 1051.84 39.72 1053.46 39.08L1057.14 42.78C1056.18 43.8 1055.12 44.32 1053.82 44.32ZM1070.03 32.1V46H1077.01V44.16H1072.31V32.1H1070.03ZM1083.56 36.72C1085.26 36.72 1086.6 37.8 1086.64 39.5H1080.54C1080.78 37.76 1082.02 36.72 1083.56 36.72ZM1088.72 42.72H1086.26C1085.84 43.58 1085.06 44.26 1083.66 44.26C1081.98 44.26 1080.68 43.16 1080.52 41.34H1088.94C1089 40.96 1089.02 40.6 1089.02 40.22C1089.02 36.98 1086.8 34.8 1083.66 34.8C1080.4 34.8 1078.16 37.02 1078.16 40.48C1078.16 43.94 1080.5 46.18 1083.66 46.18C1086.36 46.18 1088.1 44.64 1088.72 42.72ZM1090.5 40.44C1090.5 43.84 1092.8 46.18 1095.66 46.18C1097.5 46.18 1098.82 45.3 1099.52 44.36V46H1101.82V34.98H1099.52V36.58C1098.84 35.68 1097.56 34.8 1095.7 34.8C1092.8 34.8 1090.5 37.04 1090.5 40.44ZM1099.52 40.48C1099.52 42.86 1097.9 44.2 1096.18 44.2C1094.48 44.2 1092.84 42.82 1092.84 40.44C1092.84 38.06 1094.48 36.78 1096.18 36.78C1097.9 36.78 1099.52 38.12 1099.52 40.48ZM1104.06 40.44C1104.06 43.84 1106.36 46.18 1109.26 46.18C1111.06 46.18 1112.38 45.34 1113.08 44.34V46H1115.38V31.2H1113.08V36.52C1112.24 35.48 1110.72 34.8 1109.28 34.8C1106.36 34.8 1104.06 37.04 1104.06 40.44ZM1113.08 40.48C1113.08 42.86 1111.46 44.2 1109.74 44.2C1108.04 44.2 1106.4 42.82 1106.4 40.44C1106.4 38.06 1108.04 36.78 1109.74 36.78C1111.46 36.78 1113.08 38.12 1113.08 40.48ZM1123.01 36.72C1124.71 36.72 1126.05 37.8 1126.09 39.5H1119.99C1120.23 37.76 1121.47 36.72 1123.01 36.72ZM1128.17 42.72H1125.71C1125.29 43.58 1124.51 44.26 1123.11 44.26C1121.43 44.26 1120.13 43.16 1119.97 41.34H1128.39C1128.45 40.96 1128.47 40.6 1128.47 40.22C1128.47 36.98 1126.25 34.8 1123.11 34.8C1119.85 34.8 1117.61 37.02 1117.61 40.48C1117.61 43.94 1119.95 46.18 1123.11 46.18C1125.81 46.18 1127.55 44.64 1128.17 42.72ZM1133 40.2C1133 37.86 1134.04 37.16 1135.72 37.16H1136.3V34.8C1134.74 34.8 1133.64 35.48 1133 36.58V34.98H1130.72V46H1133V40.2ZM1146.61 42.92C1146.49 38.94 1140.27 40.18 1140.27 37.96C1140.27 37.22 1140.91 36.72 1142.13 36.72C1143.37 36.72 1144.11 37.38 1144.19 38.34H1146.47C1146.35 36.14 1144.71 34.8 1142.21 34.8C1139.61 34.8 1137.97 36.22 1137.97 37.98C1137.97 42.02 1144.37 40.78 1144.37 42.94C1144.37 43.7 1143.67 44.26 1142.35 44.26C1141.09 44.26 1140.23 43.52 1140.15 42.62H1137.79C1137.89 44.62 1139.75 46.18 1142.39 46.18C1144.99 46.18 1146.61 44.78 1146.61 42.92ZM1149.08 46H1151.36V39.84C1151.36 37.82 1152.46 36.78 1154.14 36.78C1155.8 36.78 1156.9 37.82 1156.9 39.84V46H1159.16V39.5C1159.16 36.42 1157.24 34.8 1154.78 34.8C1153.36 34.8 1152.12 35.34 1151.36 36.26V31.2H1149.08V46ZM1162.06 46H1164.34V34.98H1162.06V46ZM1163.22 33.52C1164.02 33.52 1164.66 32.88 1164.66 32.06C1164.66 31.24 1164.02 30.6 1163.22 30.6C1162.4 30.6 1161.76 31.24 1161.76 32.06C1161.76 32.88 1162.4 33.52 1163.22 33.52ZM1169.62 36.6V34.98H1167.34V51.24H1169.62V44.4C1170.34 45.26 1171.64 46.18 1173.46 46.18C1176.36 46.18 1178.64 43.84 1178.64 40.44C1178.64 37.04 1176.36 34.8 1173.46 34.8C1171.66 34.8 1170.32 35.68 1169.62 36.6ZM1176.32 40.44C1176.32 42.82 1174.68 44.2 1172.96 44.2C1171.26 44.2 1169.62 42.86 1169.62 40.48C1169.62 38.12 1171.26 36.78 1172.96 36.78C1174.68 36.78 1176.32 38.06 1176.32 40.44Z" fill="#212832"/>
<rect x="834" y="261" width="405" height="80" fill="white"/>
<path d="M933.176 292.02C933.176 293.36 932.236 294.14 930.696 294.14H927.616V289.8H930.616C932.136 289.8 933.176 290.64 933.176 292.02ZM932.816 285.96C932.816 287.24 931.916 287.94 930.436 287.94H927.616V283.96H930.436C931.916 283.96 932.816 284.7 932.816 285.96ZM935.456 292.26C935.456 290.6 934.256 289.12 932.776 288.86C934.116 288.38 935.136 287.36 935.136 285.68C935.136 283.72 933.576 282.1 930.636 282.1H925.336V296H930.896C933.736 296 935.456 294.38 935.456 292.26ZM945.774 292.02C945.774 293.36 944.834 294.14 943.294 294.14H940.214V289.8H943.214C944.734 289.8 945.774 290.64 945.774 292.02ZM945.414 285.96C945.414 287.24 944.514 287.94 943.034 287.94H940.214V283.96H943.034C944.514 283.96 945.414 284.7 945.414 285.96ZM948.054 292.26C948.054 290.6 946.854 289.12 945.374 288.86C946.714 288.38 947.734 287.36 947.734 285.68C947.734 283.72 946.174 282.1 943.234 282.1H937.934V296H943.494C946.334 296 948.054 294.38 948.054 292.26ZM959.911 296H962.311L957.331 282.08H954.691L949.711 296H952.091L953.091 293.16H958.911L959.911 296ZM958.271 291.3H953.731L956.011 284.84L958.271 291.3ZM969.672 296H971.952V284.98H969.672V296ZM970.832 283.52C971.632 283.52 972.272 282.88 972.272 282.06C972.272 281.24 971.632 280.6 970.832 280.6C970.012 280.6 969.372 281.24 969.372 282.06C969.372 282.88 970.012 283.52 970.832 283.52ZM982.765 296H985.025V289.5C985.025 286.42 983.085 284.8 980.505 284.8C979.185 284.8 977.965 285.34 977.225 286.24V284.98H974.945V296H977.225V289.84C977.225 287.82 978.325 286.78 980.005 286.78C981.665 286.78 982.765 287.82 982.765 289.84V296ZM997.669 282.1H993.129V296H997.669C1002.13 296 1005.05 293.38 1005.05 289.1C1005.05 284.8 1002.13 282.1 997.669 282.1ZM995.409 294.14V283.96H997.669C1000.95 283.96 1002.71 285.92 1002.71 289.1C1002.71 292.26 1000.95 294.14 997.669 294.14H995.409ZM1006.55 290.44C1006.55 293.84 1008.85 296.18 1011.71 296.18C1013.55 296.18 1014.87 295.3 1015.57 294.36V296H1017.87V284.98H1015.57V286.58C1014.89 285.68 1013.61 284.8 1011.75 284.8C1008.85 284.8 1006.55 287.04 1006.55 290.44ZM1015.57 290.48C1015.57 292.86 1013.95 294.2 1012.23 294.2C1010.53 294.2 1008.89 292.82 1008.89 290.44C1008.89 288.06 1010.53 286.78 1012.23 286.78C1013.95 286.78 1015.57 288.12 1015.57 290.48ZM1021.22 292.94C1021.22 295.18 1022.44 296 1024.4 296H1026.2V294.1H1024.8C1023.84 294.1 1023.52 293.76 1023.52 292.94V286.84H1026.2V284.98H1023.52V282.24H1021.22V284.98H1019.92V286.84H1021.22V292.94ZM1027.54 290.44C1027.54 293.84 1029.84 296.18 1032.7 296.18C1034.54 296.18 1035.86 295.3 1036.56 294.36V296H1038.86V284.98H1036.56V286.58C1035.88 285.68 1034.6 284.8 1032.74 284.8C1029.84 284.8 1027.54 287.04 1027.54 290.44ZM1036.56 290.48C1036.56 292.86 1034.94 294.2 1033.22 294.2C1031.52 294.2 1029.88 292.82 1029.88 290.44C1029.88 288.06 1031.52 286.78 1033.22 286.78C1034.94 286.78 1036.56 288.12 1036.56 290.48ZM1056.43 292.06C1056.43 286.98 1049.07 288.94 1049.07 285.8C1049.07 284.46 1050.09 283.82 1051.41 283.86C1052.85 283.9 1053.67 284.76 1053.75 285.7H1056.27C1056.07 283.32 1054.19 281.92 1051.53 281.92C1048.69 281.92 1046.75 283.44 1046.75 285.88C1046.75 291 1054.13 288.82 1054.13 292.18C1054.13 293.36 1053.23 294.22 1051.63 294.22C1050.05 294.22 1049.25 293.3 1049.15 292.16H1046.71C1046.71 294.62 1048.85 296.14 1051.63 296.14C1054.73 296.14 1056.43 294.14 1056.43 292.06ZM1058.37 290.48C1058.37 293.94 1060.61 296.18 1063.77 296.18C1066.47 296.18 1068.23 294.68 1068.85 292.52H1066.39C1065.97 293.66 1065.13 294.26 1063.77 294.26C1061.93 294.26 1060.71 292.9 1060.71 290.48C1060.71 288.08 1061.93 286.72 1063.77 286.72C1065.13 286.72 1066.01 287.4 1066.39 288.46H1068.85C1068.23 286.14 1066.47 284.8 1063.77 284.8C1060.61 284.8 1058.37 287.04 1058.37 290.48ZM1071.12 296H1073.4V284.98H1071.12V296ZM1072.28 283.52C1073.08 283.52 1073.72 282.88 1073.72 282.06C1073.72 281.24 1073.08 280.6 1072.28 280.6C1071.46 280.6 1070.82 281.24 1070.82 282.06C1070.82 282.88 1071.46 283.52 1072.28 283.52ZM1081.03 286.72C1082.73 286.72 1084.07 287.8 1084.11 289.5H1078.01C1078.25 287.76 1079.49 286.72 1081.03 286.72ZM1086.19 292.72H1083.73C1083.31 293.58 1082.53 294.26 1081.13 294.26C1079.45 294.26 1078.15 293.16 1077.99 291.34H1086.41C1086.47 290.96 1086.49 290.6 1086.49 290.22C1086.49 286.98 1084.27 284.8 1081.13 284.8C1077.87 284.8 1075.63 287.02 1075.63 290.48C1075.63 293.94 1077.97 296.18 1081.13 296.18C1083.83 296.18 1085.57 294.64 1086.19 292.72ZM1096.55 296H1098.81V289.5C1098.81 286.42 1096.87 284.8 1094.29 284.8C1092.97 284.8 1091.75 285.34 1091.01 286.24V284.98H1088.73V296H1091.01V289.84C1091.01 287.82 1092.11 286.78 1093.79 286.78C1095.45 286.78 1096.55 287.82 1096.55 289.84V296ZM1100.96 290.48C1100.96 293.94 1103.2 296.18 1106.36 296.18C1109.06 296.18 1110.82 294.68 1111.44 292.52H1108.98C1108.56 293.66 1107.72 294.26 1106.36 294.26C1104.52 294.26 1103.3 292.9 1103.3 290.48C1103.3 288.08 1104.52 286.72 1106.36 286.72C1107.72 286.72 1108.6 287.4 1108.98 288.46H1111.44C1110.82 286.14 1109.06 284.8 1106.36 284.8C1103.2 284.8 1100.96 287.04 1100.96 290.48ZM1118.35 286.72C1120.05 286.72 1121.39 287.8 1121.43 289.5H1115.33C1115.57 287.76 1116.81 286.72 1118.35 286.72ZM1123.51 292.72H1121.05C1120.63 293.58 1119.85 294.26 1118.45 294.26C1116.77 294.26 1115.47 293.16 1115.31 291.34H1123.73C1123.79 290.96 1123.81 290.6 1123.81 290.22C1123.81 286.98 1121.59 284.8 1118.45 284.8C1115.19 284.8 1112.95 287.02 1112.95 290.48C1112.95 293.94 1115.29 296.18 1118.45 296.18C1121.15 296.18 1122.89 294.64 1123.51 292.72ZM1140.09 285.2C1140.23 283.3 1138.93 281.78 1136.51 281.78C1134.13 281.78 1132.65 283.16 1132.65 284.98C1132.65 285.96 1132.93 286.7 1133.71 287.64C1131.51 288.54 1130.45 290.12 1130.45 292C1130.45 294.6 1132.45 296.26 1135.45 296.26C1137.39 296.26 1138.93 295.62 1140.27 294.28L1141.99 296H1144.97L1141.59 292.64C1141.75 292.38 1141.93 292.1 1142.09 291.82L1143.89 288.74H1141.43L1140.01 291.08L1136.33 287.42C1135.35 286.36 1134.93 285.74 1134.93 284.98C1134.93 284.24 1135.51 283.64 1136.41 283.64C1137.27 283.64 1137.85 284.18 1137.81 285.2H1140.09ZM1135.45 294.32C1133.81 294.32 1132.73 293.26 1132.73 291.92C1132.73 290.68 1133.47 289.72 1135.09 289.08L1138.77 292.78C1137.81 293.8 1136.75 294.32 1135.45 294.32ZM1001.48 321H1003.88L998.904 307.08H996.264L991.284 321H993.664L994.664 318.16H1000.48L1001.48 321ZM999.844 316.3H995.304L997.584 309.84L999.844 316.3ZM1013.87 321H1016.13V314.5C1016.13 311.42 1014.19 309.8 1011.61 309.8C1010.29 309.8 1009.07 310.34 1008.33 311.24V309.98H1006.05V321H1008.33V314.84C1008.33 312.82 1009.43 311.78 1011.11 311.78C1012.77 311.78 1013.87 312.82 1013.87 314.84V321ZM1018.28 315.44C1018.28 318.84 1020.58 321.18 1023.44 321.18C1025.28 321.18 1026.6 320.3 1027.3 319.36V321H1029.6V309.98H1027.3V311.58C1026.62 310.68 1025.34 309.8 1023.48 309.8C1020.58 309.8 1018.28 312.04 1018.28 315.44ZM1027.3 315.48C1027.3 317.86 1025.68 319.2 1023.96 319.2C1022.26 319.2 1020.62 317.82 1020.62 315.44C1020.62 313.06 1022.26 311.78 1023.96 311.78C1025.68 311.78 1027.3 313.12 1027.3 315.48ZM1032.59 321H1034.87V306.2H1032.59V321ZM1042.21 318.38L1039.11 309.98H1036.57L1040.91 320.82L1038.67 326.18H1041.03L1047.79 309.98H1045.43L1042.21 318.38ZM1049.87 317.94C1049.87 320.18 1051.09 321 1053.05 321H1054.85V319.1H1053.45C1052.49 319.1 1052.17 318.76 1052.17 317.94V311.84H1054.85V309.98H1052.17V307.24H1049.87V309.98H1048.57V311.84H1049.87V317.94ZM1056.95 321H1059.23V309.98H1056.95V321ZM1058.11 308.52C1058.91 308.52 1059.55 307.88 1059.55 307.06C1059.55 306.24 1058.91 305.6 1058.11 305.6C1057.29 305.6 1056.65 306.24 1056.65 307.06C1056.65 307.88 1057.29 308.52 1058.11 308.52ZM1061.46 315.48C1061.46 318.94 1063.7 321.18 1066.86 321.18C1069.56 321.18 1071.32 319.68 1071.94 317.52H1069.48C1069.06 318.66 1068.22 319.26 1066.86 319.26C1065.02 319.26 1063.8 317.9 1063.8 315.48C1063.8 313.08 1065.02 311.72 1066.86 311.72C1068.22 311.72 1069.1 312.4 1069.48 313.46H1071.94C1071.32 311.14 1069.56 309.8 1066.86 309.8C1063.7 309.8 1061.46 312.04 1061.46 315.48ZM1082.43 317.92C1082.31 313.94 1076.09 315.18 1076.09 312.96C1076.09 312.22 1076.73 311.72 1077.95 311.72C1079.19 311.72 1079.93 312.38 1080.01 313.34H1082.29C1082.17 311.14 1080.53 309.8 1078.03 309.8C1075.43 309.8 1073.79 311.22 1073.79 312.98C1073.79 317.02 1080.19 315.78 1080.19 317.94C1080.19 318.7 1079.49 319.26 1078.17 319.26C1076.91 319.26 1076.05 318.52 1075.97 317.62H1073.61C1073.71 319.62 1075.57 321.18 1078.21 321.18C1080.81 321.18 1082.43 319.78 1082.43 317.92Z" fill="#212832"/>
<rect x="834.5" y="261.5" width="404" height="79" stroke="black" stroke-opacity="0.5"/>
<rect x="834" y="87" width="405" height="80" fill="white"/>
<path d="M895.918 131.02C895.918 132.36 894.978 133.14 893.438 133.14H890.358V128.8H893.358C894.878 128.8 895.918 129.64 895.918 131.02ZM895.558 124.96C895.558 126.24 894.658 126.94 893.178 126.94H890.358V122.96H893.178C894.658 122.96 895.558 123.7 895.558 124.96ZM898.198 131.26C898.198 129.6 896.998 128.12 895.518 127.86C896.858 127.38 897.878 126.36 897.878 124.68C897.878 122.72 896.318 121.1 893.378 121.1H888.078V135H893.638C896.478 135 898.198 133.38 898.198 131.26ZM908.516 131.02C908.516 132.36 907.576 133.14 906.036 133.14H902.956V128.8H905.956C907.476 128.8 908.516 129.64 908.516 131.02ZM908.156 124.96C908.156 126.24 907.256 126.94 905.776 126.94H902.956V122.96H905.776C907.256 122.96 908.156 123.7 908.156 124.96ZM910.796 131.26C910.796 129.6 909.596 128.12 908.116 127.86C909.456 127.38 910.476 126.36 910.476 124.68C910.476 122.72 908.916 121.1 905.976 121.1H900.676V135H906.236C909.076 135 910.796 133.38 910.796 131.26ZM922.653 135H925.053L920.073 121.08H917.433L912.453 135H914.833L915.833 132.16H921.653L922.653 135ZM921.013 130.3H916.473L918.753 123.84L921.013 130.3ZM932.414 135H934.694V123.98H932.414V135ZM933.574 122.52C934.374 122.52 935.014 121.88 935.014 121.06C935.014 120.24 934.374 119.6 933.574 119.6C932.754 119.6 932.114 120.24 932.114 121.06C932.114 121.88 932.754 122.52 933.574 122.52ZM945.508 135H947.768V128.5C947.768 125.42 945.828 123.8 943.248 123.8C941.928 123.8 940.708 124.34 939.968 125.24V123.98H937.688V135H939.968V128.84C939.968 126.82 941.068 125.78 942.748 125.78C944.408 125.78 945.508 126.82 945.508 128.84V135ZM965.251 135H967.651L962.671 121.08H960.031L955.051 135H957.431L958.431 132.16H964.251L965.251 135ZM963.611 130.3H959.071L961.351 123.84L963.611 130.3ZM969.056 129.44C969.056 132.84 971.356 135.18 974.256 135.18C976.056 135.18 977.376 134.34 978.076 133.34V135H980.376V120.2H978.076V125.52C977.236 124.48 975.716 123.8 974.276 123.8C971.356 123.8 969.056 126.04 969.056 129.44ZM978.076 129.48C978.076 131.86 976.456 133.2 974.736 133.2C973.036 133.2 971.396 131.82 971.396 129.44C971.396 127.06 973.036 125.78 974.736 125.78C976.456 125.78 978.076 127.12 978.076 129.48ZM982.071 123.98L986.251 135H988.971L993.171 123.98H990.751L987.631 132.96L984.511 123.98H982.071ZM999.535 125.72C1001.23 125.72 1002.57 126.8 1002.61 128.5H996.515C996.755 126.76 997.995 125.72 999.535 125.72ZM1004.69 131.72H1002.23C1001.81 132.58 1001.03 133.26 999.635 133.26C997.955 133.26 996.655 132.16 996.495 130.34H1004.91C1004.97 129.96 1004.99 129.6 1004.99 129.22C1004.99 125.98 1002.77 123.8 999.635 123.8C996.375 123.8 994.135 126.02 994.135 129.48C994.135 132.94 996.475 135.18 999.635 135.18C1002.33 135.18 1004.07 133.64 1004.69 131.72ZM1009.52 129.2C1009.52 126.86 1010.56 126.16 1012.24 126.16H1012.82V123.8C1011.26 123.8 1010.16 124.48 1009.52 125.58V123.98H1007.24V135H1009.52V129.2ZM1015.27 131.94C1015.27 134.18 1016.49 135 1018.45 135H1020.25V133.1H1018.85C1017.89 133.1 1017.57 132.76 1017.57 131.94V125.84H1020.25V123.98H1017.57V121.24H1015.27V123.98H1013.97V125.84H1015.27V131.94ZM1022.36 135H1024.64V123.98H1022.36V135ZM1023.52 122.52C1024.32 122.52 1024.96 121.88 1024.96 121.06C1024.96 120.24 1024.32 119.6 1023.52 119.6C1022.7 119.6 1022.06 120.24 1022.06 121.06C1022.06 121.88 1022.7 122.52 1023.52 122.52ZM1035.85 131.92C1035.73 127.94 1029.51 129.18 1029.51 126.96C1029.51 126.22 1030.15 125.72 1031.37 125.72C1032.61 125.72 1033.35 126.38 1033.43 127.34H1035.71C1035.59 125.14 1033.95 123.8 1031.45 123.8C1028.85 123.8 1027.21 125.22 1027.21 126.98C1027.21 131.02 1033.61 129.78 1033.61 131.94C1033.61 132.7 1032.91 133.26 1031.59 133.26C1030.33 133.26 1029.47 132.52 1029.39 131.62H1027.03C1027.13 133.62 1028.99 135.18 1031.63 135.18C1034.23 135.18 1035.85 133.78 1035.85 131.92ZM1038.31 135H1040.59V123.98H1038.31V135ZM1039.47 122.52C1040.27 122.52 1040.91 121.88 1040.91 121.06C1040.91 120.24 1040.27 119.6 1039.47 119.6C1038.65 119.6 1038.01 120.24 1038.01 121.06C1038.01 121.88 1038.65 122.52 1039.47 122.52ZM1051.41 135H1053.67V128.5C1053.67 125.42 1051.73 123.8 1049.15 123.8C1047.83 123.8 1046.61 124.34 1045.87 125.24V123.98H1043.59V135H1045.87V128.84C1045.87 126.82 1046.97 125.78 1048.65 125.78C1050.31 125.78 1051.41 126.82 1051.41 128.84V135ZM1055.81 129.44C1055.81 132.84 1058.11 135.18 1061.01 135.18C1062.81 135.18 1064.13 134.28 1064.83 133.34V135.18C1064.83 137.38 1063.51 138.46 1061.75 138.46C1060.17 138.46 1058.95 137.68 1058.61 136.54H1056.35C1056.63 138.98 1058.81 140.44 1061.75 140.44C1065.19 140.44 1067.13 138.18 1067.13 135.18V123.98H1064.83V125.58C1064.15 124.64 1062.81 123.8 1061.01 123.8C1058.11 123.8 1055.81 126.04 1055.81 129.44ZM1064.83 129.48C1064.83 131.86 1063.21 133.2 1061.49 133.2C1059.79 133.2 1058.15 131.82 1058.15 129.44C1058.15 127.06 1059.79 125.78 1061.49 125.78C1063.21 125.78 1064.83 127.12 1064.83 129.48ZM1084.16 124.2C1084.3 122.3 1083 120.78 1080.58 120.78C1078.2 120.78 1076.72 122.16 1076.72 123.98C1076.72 124.96 1077 125.7 1077.78 126.64C1075.58 127.54 1074.52 129.12 1074.52 131C1074.52 133.6 1076.52 135.26 1079.52 135.26C1081.46 135.26 1083 134.62 1084.34 133.28L1086.06 135H1089.04L1085.66 131.64C1085.82 131.38 1086 131.1 1086.16 130.82L1087.96 127.74H1085.5L1084.08 130.08L1080.4 126.42C1079.42 125.36 1079 124.74 1079 123.98C1079 123.24 1079.58 122.64 1080.48 122.64C1081.34 122.64 1081.92 123.18 1081.88 124.2H1084.16ZM1079.52 133.32C1077.88 133.32 1076.8 132.26 1076.8 130.92C1076.8 129.68 1077.54 128.72 1079.16 128.08L1082.84 131.78C1081.88 132.8 1080.82 133.32 1079.52 133.32ZM1103.57 131.02C1103.57 132.36 1102.63 133.14 1101.09 133.14H1098.01V128.8H1101.01C1102.53 128.8 1103.57 129.64 1103.57 131.02ZM1103.21 124.96C1103.21 126.24 1102.31 126.94 1100.83 126.94H1098.01V122.96H1100.83C1102.31 122.96 1103.21 123.7 1103.21 124.96ZM1105.85 131.26C1105.85 129.6 1104.65 128.12 1103.17 127.86C1104.51 127.38 1105.53 126.36 1105.53 124.68C1105.53 122.72 1103.97 121.1 1101.03 121.1H1095.73V135H1101.29C1104.13 135 1105.85 133.38 1105.85 131.26ZM1110.61 129.2C1110.61 126.86 1111.65 126.16 1113.33 126.16H1113.91V123.8C1112.35 123.8 1111.25 124.48 1110.61 125.58V123.98H1108.33V135H1110.61V129.2ZM1115.25 129.44C1115.25 132.84 1117.55 135.18 1120.41 135.18C1122.25 135.18 1123.57 134.3 1124.27 133.36V135H1126.57V123.98H1124.27V125.58C1123.59 124.68 1122.31 123.8 1120.45 123.8C1117.55 123.8 1115.25 126.04 1115.25 129.44ZM1124.27 129.48C1124.27 131.86 1122.65 133.2 1120.93 133.2C1119.23 133.2 1117.59 131.82 1117.59 129.44C1117.59 127.06 1119.23 125.78 1120.93 125.78C1122.65 125.78 1124.27 127.12 1124.27 129.48ZM1137.38 135H1139.64V128.5C1139.64 125.42 1137.7 123.8 1135.12 123.8C1133.8 123.8 1132.58 124.34 1131.84 125.24V123.98H1129.56V135H1131.84V128.84C1131.84 126.82 1132.94 125.78 1134.62 125.78C1136.28 125.78 1137.38 126.82 1137.38 128.84V135ZM1141.79 129.44C1141.79 132.84 1144.09 135.18 1146.99 135.18C1148.79 135.18 1150.11 134.34 1150.81 133.34V135H1153.11V120.2H1150.81V125.52C1149.97 124.48 1148.45 123.8 1147.01 123.8C1144.09 123.8 1141.79 126.04 1141.79 129.44ZM1150.81 129.48C1150.81 131.86 1149.19 133.2 1147.47 133.2C1145.77 133.2 1144.13 131.82 1144.13 129.44C1144.13 127.06 1145.77 125.78 1147.47 125.78C1149.19 125.78 1150.81 127.12 1150.81 129.48ZM1156.11 135H1158.39V123.98H1156.11V135ZM1157.27 122.52C1158.07 122.52 1158.71 121.88 1158.71 121.06C1158.71 120.24 1158.07 119.6 1157.27 119.6C1156.45 119.6 1155.81 120.24 1155.81 121.06C1155.81 121.88 1156.45 122.52 1157.27 122.52ZM1169.2 135H1171.46V128.5C1171.46 125.42 1169.52 123.8 1166.94 123.8C1165.62 123.8 1164.4 124.34 1163.66 125.24V123.98H1161.38V135H1163.66V128.84C1163.66 126.82 1164.76 125.78 1166.44 125.78C1168.1 125.78 1169.2 126.82 1169.2 128.84V135ZM1173.61 129.44C1173.61 132.84 1175.91 135.18 1178.81 135.18C1180.61 135.18 1181.93 134.28 1182.63 133.34V135.18C1182.63 137.38 1181.31 138.46 1179.55 138.46C1177.97 138.46 1176.75 137.68 1176.41 136.54H1174.15C1174.43 138.98 1176.61 140.44 1179.55 140.44C1182.99 140.44 1184.93 138.18 1184.93 135.18V123.98H1182.63V125.58C1181.95 124.64 1180.61 123.8 1178.81 123.8C1175.91 123.8 1173.61 126.04 1173.61 129.44ZM1182.63 129.48C1182.63 131.86 1181.01 133.2 1179.29 133.2C1177.59 133.2 1175.95 131.82 1175.95 129.44C1175.95 127.06 1177.59 125.78 1179.29 125.78C1181.01 125.78 1182.63 127.12 1182.63 129.48Z" fill="#212832"/>
<rect x="834.5" y="87.5" width="404" height="79" stroke="black" stroke-opacity="0.5"/>
<rect x="834" y="348" width="405" height="80" fill="white"/>
<path d="M1014.84 389.72H1023.06V387.8H1014.84V389.72ZM1026.54 389.72H1034.76V387.8H1026.54V389.72ZM1038.24 389.72H1046.46V387.8H1038.24V389.72ZM1049.94 389.72H1058.16V387.8H1049.94V389.72Z" fill="#212832"/>
<rect x="834.5" y="348.5" width="404" height="79" stroke="black" stroke-opacity="0.5"/>
<rect x="834" y="174" width="405" height="80" fill="white"/>
<path d="M884.192 218.02C884.192 219.36 883.252 220.14 881.712 220.14H878.632V215.8H881.632C883.152 215.8 884.192 216.64 884.192 218.02ZM883.832 211.96C883.832 213.24 882.932 213.94 881.452 213.94H878.632V209.96H881.452C882.932 209.96 883.832 210.7 883.832 211.96ZM886.472 218.26C886.472 216.6 885.272 215.12 883.792 214.86C885.132 214.38 886.152 213.36 886.152 211.68C886.152 209.72 884.592 208.1 881.652 208.1H876.352V222H881.912C884.752 222 886.472 220.38 886.472 218.26ZM896.789 218.02C896.789 219.36 895.849 220.14 894.309 220.14H891.229V215.8H894.229C895.749 215.8 896.789 216.64 896.789 218.02ZM896.429 211.96C896.429 213.24 895.529 213.94 894.049 213.94H891.229V209.96H894.049C895.529 209.96 896.429 210.7 896.429 211.96ZM899.069 218.26C899.069 216.6 897.869 215.12 896.389 214.86C897.729 214.38 898.749 213.36 898.749 211.68C898.749 209.72 897.189 208.1 894.249 208.1H888.949V222H894.509C897.349 222 899.069 220.38 899.069 218.26ZM910.927 222H913.327L908.347 208.08H905.707L900.727 222H903.107L904.107 219.16H909.927L910.927 222ZM909.287 217.3H904.747L907.027 210.84L909.287 217.3ZM920.688 222H922.968V210.98H920.688V222ZM921.848 209.52C922.648 209.52 923.288 208.88 923.288 208.06C923.288 207.24 922.648 206.6 921.848 206.6C921.028 206.6 920.388 207.24 920.388 208.06C920.388 208.88 921.028 209.52 921.848 209.52ZM933.781 222H936.041V215.5C936.041 212.42 934.101 210.8 931.521 210.8C930.201 210.8 928.981 211.34 928.241 212.24V210.98H925.961V222H928.241V215.84C928.241 213.82 929.341 212.78 931.021 212.78C932.681 212.78 933.781 213.82 933.781 215.84V222ZM944.145 222H946.425V212.48L950.685 222H952.265L956.505 212.48V222H958.785V208.1H956.345L951.485 219L946.605 208.1H944.145V222ZM971.761 210.98H969.481V217.12C969.481 219.14 968.381 220.18 966.701 220.18C965.041 220.18 963.941 219.14 963.941 217.12V210.98H961.681V217.46C961.681 220.54 963.641 222.16 966.221 222.16C967.521 222.16 968.761 221.62 969.481 220.68V222H971.761V210.98ZM974.77 222H977.05V207.2H974.77V222ZM980.403 218.94C980.403 221.18 981.623 222 983.583 222H985.383V220.1H983.983C983.023 220.1 982.703 219.76 982.703 218.94V212.84H985.383V210.98H982.703V208.24H980.403V210.98H979.103V212.84H980.403V218.94ZM987.484 222H989.764V210.98H987.484V222ZM988.644 209.52C989.444 209.52 990.084 208.88 990.084 208.06C990.084 207.24 989.444 206.6 988.644 206.6C987.824 206.6 987.184 207.24 987.184 208.06C987.184 208.88 987.824 209.52 988.644 209.52ZM1008.38 222H1010.64V215.5C1010.64 212.42 1008.68 210.8 1006.1 210.8C1004.5 210.8 1002.94 211.64 1002.26 212.98C1001.5 211.54 1000.04 210.8 998.298 210.8C996.978 210.8 995.778 211.34 995.038 212.24V210.98H992.758V222H995.038V215.84C995.038 213.82 996.138 212.78 997.818 212.78C999.478 212.78 1000.58 213.82 1000.58 215.84V222H1002.84V215.84C1002.84 213.82 1003.94 212.78 1005.62 212.78C1007.28 212.78 1008.38 213.82 1008.38 215.84V222ZM1018.18 212.72C1019.88 212.72 1021.22 213.8 1021.26 215.5H1015.16C1015.4 213.76 1016.64 212.72 1018.18 212.72ZM1023.34 218.72H1020.88C1020.46 219.58 1019.68 220.26 1018.28 220.26C1016.6 220.26 1015.3 219.16 1015.14 217.34H1023.56C1023.62 216.96 1023.64 216.6 1023.64 216.22C1023.64 212.98 1021.42 210.8 1018.28 210.8C1015.02 210.8 1012.78 213.02 1012.78 216.48C1012.78 219.94 1015.12 222.18 1018.28 222.18C1020.98 222.18 1022.72 220.64 1023.34 218.72ZM1025.12 216.44C1025.12 219.84 1027.42 222.18 1030.32 222.18C1032.12 222.18 1033.44 221.34 1034.14 220.34V222H1036.44V207.2H1034.14V212.52C1033.3 211.48 1031.78 210.8 1030.34 210.8C1027.42 210.8 1025.12 213.04 1025.12 216.44ZM1034.14 216.48C1034.14 218.86 1032.52 220.2 1030.8 220.2C1029.1 220.2 1027.46 218.82 1027.46 216.44C1027.46 214.06 1029.1 212.78 1030.8 212.78C1032.52 212.78 1034.14 214.12 1034.14 216.48ZM1039.44 222H1041.72V210.98H1039.44V222ZM1040.6 209.52C1041.4 209.52 1042.04 208.88 1042.04 208.06C1042.04 207.24 1041.4 206.6 1040.6 206.6C1039.78 206.6 1039.14 207.24 1039.14 208.06C1039.14 208.88 1039.78 209.52 1040.6 209.52ZM1043.95 216.44C1043.95 219.84 1046.25 222.18 1049.11 222.18C1050.95 222.18 1052.27 221.3 1052.97 220.36V222H1055.27V210.98H1052.97V212.58C1052.29 211.68 1051.01 210.8 1049.15 210.8C1046.25 210.8 1043.95 213.04 1043.95 216.44ZM1052.97 216.48C1052.97 218.86 1051.35 220.2 1049.63 220.2C1047.93 220.2 1046.29 218.82 1046.29 216.44C1046.29 214.06 1047.93 212.78 1049.63 212.78C1051.35 212.78 1052.97 214.12 1052.97 216.48ZM1063.46 222H1065.74V212.48L1070 222H1071.58L1075.82 212.48V222H1078.1V208.1H1075.66L1070.8 219L1065.92 208.1H1063.46V222ZM1080.34 216.44C1080.34 219.84 1082.64 222.18 1085.5 222.18C1087.34 222.18 1088.66 221.3 1089.36 220.36V222H1091.66V210.98H1089.36V212.58C1088.68 211.68 1087.4 210.8 1085.54 210.8C1082.64 210.8 1080.34 213.04 1080.34 216.44ZM1089.36 216.48C1089.36 218.86 1087.74 220.2 1086.02 220.2C1084.32 220.2 1082.68 218.82 1082.68 216.44C1082.68 214.06 1084.32 212.78 1086.02 212.78C1087.74 212.78 1089.36 214.12 1089.36 216.48ZM1102.47 222H1104.73V215.5C1104.73 212.42 1102.79 210.8 1100.21 210.8C1098.89 210.8 1097.67 211.34 1096.93 212.24V210.98H1094.65V222H1096.93V215.84C1096.93 213.82 1098.03 212.78 1099.71 212.78C1101.37 212.78 1102.47 213.82 1102.47 215.84V222ZM1106.88 216.44C1106.88 219.84 1109.18 222.18 1112.04 222.18C1113.88 222.18 1115.2 221.3 1115.9 220.36V222H1118.2V210.98H1115.9V212.58C1115.22 211.68 1113.94 210.8 1112.08 210.8C1109.18 210.8 1106.88 213.04 1106.88 216.44ZM1115.9 216.48C1115.9 218.86 1114.28 220.2 1112.56 220.2C1110.86 220.2 1109.22 218.82 1109.22 216.44C1109.22 214.06 1110.86 212.78 1112.56 212.78C1114.28 212.78 1115.9 214.12 1115.9 216.48ZM1120.44 216.44C1120.44 219.84 1122.74 222.18 1125.64 222.18C1127.44 222.18 1128.76 221.28 1129.46 220.34V222.18C1129.46 224.38 1128.14 225.46 1126.38 225.46C1124.8 225.46 1123.58 224.68 1123.24 223.54H1120.98C1121.26 225.98 1123.44 227.44 1126.38 227.44C1129.82 227.44 1131.76 225.18 1131.76 222.18V210.98H1129.46V212.58C1128.78 211.64 1127.44 210.8 1125.64 210.8C1122.74 210.8 1120.44 213.04 1120.44 216.44ZM1129.46 216.48C1129.46 218.86 1127.84 220.2 1126.12 220.2C1124.42 220.2 1122.78 218.82 1122.78 216.44C1122.78 214.06 1124.42 212.78 1126.12 212.78C1127.84 212.78 1129.46 214.12 1129.46 216.48ZM1139.39 212.72C1141.09 212.72 1142.43 213.8 1142.47 215.5H1136.37C1136.61 213.76 1137.85 212.72 1139.39 212.72ZM1144.55 218.72H1142.09C1141.67 219.58 1140.89 220.26 1139.49 220.26C1137.81 220.26 1136.51 219.16 1136.35 217.34H1144.77C1144.83 216.96 1144.85 216.6 1144.85 216.22C1144.85 212.98 1142.63 210.8 1139.49 210.8C1136.23 210.8 1133.99 213.02 1133.99 216.48C1133.99 219.94 1136.33 222.18 1139.49 222.18C1142.19 222.18 1143.93 220.64 1144.55 218.72ZM1162.71 222H1164.97V215.5C1164.97 212.42 1163.01 210.8 1160.43 210.8C1158.83 210.8 1157.27 211.64 1156.59 212.98C1155.83 211.54 1154.37 210.8 1152.63 210.8C1151.31 210.8 1150.11 211.34 1149.37 212.24V210.98H1147.09V222H1149.37V215.84C1149.37 213.82 1150.47 212.78 1152.15 212.78C1153.81 212.78 1154.91 213.82 1154.91 215.84V222H1157.17V215.84C1157.17 213.82 1158.27 212.78 1159.95 212.78C1161.61 212.78 1162.71 213.82 1162.71 215.84V222ZM1172.52 212.72C1174.22 212.72 1175.56 213.8 1175.6 215.5H1169.5C1169.74 213.76 1170.98 212.72 1172.52 212.72ZM1177.67 218.72H1175.22C1174.8 219.58 1174.02 220.26 1172.62 220.26C1170.94 220.26 1169.64 219.16 1169.48 217.34H1177.9C1177.96 216.96 1177.98 216.6 1177.98 216.22C1177.98 212.98 1175.76 210.8 1172.62 210.8C1169.36 210.8 1167.12 213.02 1167.12 216.48C1167.12 219.94 1169.46 222.18 1172.62 222.18C1175.32 222.18 1177.06 220.64 1177.67 218.72ZM1188.04 222H1190.3V215.5C1190.3 212.42 1188.36 210.8 1185.78 210.8C1184.46 210.8 1183.24 211.34 1182.5 212.24V210.98H1180.22V222H1182.5V215.84C1182.5 213.82 1183.6 212.78 1185.28 212.78C1186.94 212.78 1188.04 213.82 1188.04 215.84V222ZM1193.57 218.94C1193.57 221.18 1194.79 222 1196.75 222H1198.55V220.1H1197.15C1196.19 220.1 1195.87 219.76 1195.87 218.94V212.84H1198.55V210.98H1195.87V208.24H1193.57V210.98H1192.27V212.84H1193.57V218.94Z" fill="#212832"/>
<rect x="834.5" y="174.5" width="404" height="79" stroke="black" stroke-opacity="0.5"/>
<rect x="417" width="405" height="80" fill="white"/>
<path d="M509.299 44.02C509.299 45.36 508.359 46.14 506.819 46.14H503.739V41.8H506.739C508.259 41.8 509.299 42.64 509.299 44.02ZM508.939 37.96C508.939 39.24 508.039 39.94 506.559 39.94H503.739V35.96H506.559C508.039 35.96 508.939 36.7 508.939 37.96ZM511.579 44.26C511.579 42.6 510.379 41.12 508.899 40.86C510.239 40.38 511.259 39.36 511.259 37.68C511.259 35.72 509.699 34.1 506.759 34.1H501.459V48H507.019C509.859 48 511.579 46.38 511.579 44.26ZM521.897 44.02C521.897 45.36 520.957 46.14 519.417 46.14H516.337V41.8H519.337C520.857 41.8 521.897 42.64 521.897 44.02ZM521.537 37.96C521.537 39.24 520.637 39.94 519.157 39.94H516.337V35.96H519.157C520.637 35.96 521.537 36.7 521.537 37.96ZM524.177 44.26C524.177 42.6 522.977 41.12 521.497 40.86C522.837 40.38 523.857 39.36 523.857 37.68C523.857 35.72 522.297 34.1 519.357 34.1H514.057V48H519.617C522.457 48 524.177 46.38 524.177 44.26ZM536.034 48H538.434L533.454 34.08H530.814L525.834 48H528.214L529.214 45.16H535.034L536.034 48ZM534.394 43.3H529.854L532.134 36.84L534.394 43.3ZM545.795 48H548.075V36.98H545.795V48ZM546.955 35.52C547.755 35.52 548.395 34.88 548.395 34.06C548.395 33.24 547.755 32.6 546.955 32.6C546.135 32.6 545.495 33.24 545.495 34.06C545.495 34.88 546.135 35.52 546.955 35.52ZM558.888 48H561.148V41.5C561.148 38.42 559.208 36.8 556.628 36.8C555.308 36.8 554.088 37.34 553.348 38.24V36.98H551.068V48H553.348V41.84C553.348 39.82 554.448 38.78 556.128 38.78C557.788 38.78 558.888 39.82 558.888 41.84V48ZM573.792 34.1H569.252V48H573.792C578.252 48 581.172 45.38 581.172 41.1C581.172 36.8 578.252 34.1 573.792 34.1ZM571.532 46.14V35.96H573.792C577.072 35.96 578.832 37.92 578.832 41.1C578.832 44.26 577.072 46.14 573.792 46.14H571.532ZM583.432 48H585.712V36.98H583.432V48ZM584.592 35.52C585.392 35.52 586.032 34.88 586.032 34.06C586.032 33.24 585.392 32.6 584.592 32.6C583.772 32.6 583.132 33.24 583.132 34.06C583.132 34.88 583.772 35.52 584.592 35.52ZM587.945 42.44C587.945 45.84 590.245 48.18 593.145 48.18C594.945 48.18 596.265 47.28 596.965 46.34V48.18C596.965 50.38 595.645 51.46 593.885 51.46C592.305 51.46 591.085 50.68 590.745 49.54H588.485C588.765 51.98 590.945 53.44 593.885 53.44C597.325 53.44 599.265 51.18 599.265 48.18V36.98H596.965V38.58C596.285 37.64 594.945 36.8 593.145 36.8C590.245 36.8 587.945 39.04 587.945 42.44ZM596.965 42.48C596.965 44.86 595.345 46.2 593.625 46.2C591.925 46.2 590.285 44.82 590.285 42.44C590.285 40.06 591.925 38.78 593.625 38.78C595.345 38.78 596.965 40.12 596.965 42.48ZM602.26 48H604.54V36.98H602.26V48ZM603.42 35.52C604.22 35.52 604.86 34.88 604.86 34.06C604.86 33.24 604.22 32.6 603.42 32.6C602.6 32.6 601.96 33.24 601.96 34.06C601.96 34.88 602.6 35.52 603.42 35.52ZM607.893 44.94C607.893 47.18 609.113 48 611.073 48H612.873V46.1H611.473C610.513 46.1 610.193 45.76 610.193 44.94V38.84H612.873V36.98H610.193V34.24H607.893V36.98H606.593V38.84H607.893V44.94ZM614.215 42.44C614.215 45.84 616.515 48.18 619.375 48.18C621.215 48.18 622.535 47.3 623.235 46.36V48H625.535V36.98H623.235V38.58C622.555 37.68 621.275 36.8 619.415 36.8C616.515 36.8 614.215 39.04 614.215 42.44ZM623.235 42.48C623.235 44.86 621.615 46.2 619.895 46.2C618.195 46.2 616.555 44.82 616.555 42.44C616.555 40.06 618.195 38.78 619.895 38.78C621.615 38.78 623.235 40.12 623.235 42.48ZM628.529 48H630.809V33.2H628.529V48ZM638.998 48H641.278V38.48L645.538 48H647.118L651.358 38.48V48H653.638V34.1H651.198L646.338 45L641.458 34.1H638.998V48ZM655.875 42.44C655.875 45.84 658.175 48.18 661.035 48.18C662.875 48.18 664.195 47.3 664.895 46.36V48H667.195V36.98H664.895V38.58C664.215 37.68 662.935 36.8 661.075 36.8C658.175 36.8 655.875 39.04 655.875 42.44ZM664.895 42.48C664.895 44.86 663.275 46.2 661.555 46.2C659.855 46.2 658.215 44.82 658.215 42.44C658.215 40.06 659.855 38.78 661.555 38.78C663.275 38.78 664.895 40.12 664.895 42.48ZM672.469 42.2C672.469 39.86 673.509 39.16 675.189 39.16H675.769V36.8C674.209 36.8 673.109 37.48 672.469 38.58V36.98H670.189V48H672.469V42.2ZM677.865 48H680.145V43.26L684.225 48H687.305L682.225 42.5L687.305 36.98H684.145L680.145 41.8V33.2H677.865V48ZM693.579 38.72C695.279 38.72 696.619 39.8 696.659 41.5H690.559C690.799 39.76 692.039 38.72 693.579 38.72ZM698.739 44.72H696.279C695.859 45.58 695.079 46.26 693.679 46.26C691.999 46.26 690.699 45.16 690.539 43.34H698.959C699.019 42.96 699.039 42.6 699.039 42.22C699.039 38.98 696.819 36.8 693.679 36.8C690.419 36.8 688.179 39.02 688.179 42.48C688.179 45.94 690.519 48.18 693.679 48.18C696.379 48.18 698.119 46.64 698.739 44.72ZM701.643 44.94C701.643 47.18 702.863 48 704.823 48H706.623V46.1H705.223C704.263 46.1 703.943 45.76 703.943 44.94V38.84H706.623V36.98H703.943V34.24H701.643V36.98H700.343V38.84H701.643V44.94ZM708.725 48H711.005V36.98H708.725V48ZM709.885 35.52C710.685 35.52 711.325 34.88 711.325 34.06C711.325 33.24 710.685 32.6 709.885 32.6C709.065 32.6 708.425 33.24 708.425 34.06C708.425 34.88 709.065 35.52 709.885 35.52ZM721.818 48H724.078V41.5C724.078 38.42 722.138 36.8 719.558 36.8C718.238 36.8 717.018 37.34 716.278 38.24V36.98H713.998V48H716.278V41.84C716.278 39.82 717.378 38.78 719.058 38.78C720.718 38.78 721.818 39.82 721.818 41.84V48ZM726.226 42.44C726.226 45.84 728.526 48.18 731.426 48.18C733.226 48.18 734.546 47.28 735.246 46.34V48.18C735.246 50.38 733.926 51.46 732.166 51.46C730.586 51.46 729.366 50.68 729.026 49.54H726.766C727.046 51.98 729.226 53.44 732.166 53.44C735.606 53.44 737.546 51.18 737.546 48.18V36.98H735.246V38.58C734.566 37.64 733.226 36.8 731.426 36.8C728.526 36.8 726.226 39.04 726.226 42.44ZM735.246 42.48C735.246 44.86 733.626 46.2 731.906 46.2C730.206 46.2 728.566 44.82 728.566 42.44C728.566 40.06 730.206 38.78 731.906 38.78C733.626 38.78 735.246 40.12 735.246 42.48Z" fill="#212832"/>
<rect x="417.5" y="0.5" width="404" height="79" stroke="black" stroke-opacity="0.5"/>
<rect x="417" y="261" width="405" height="80" fill="white"/>
<path d="M485.119 291.02C485.119 292.36 484.179 293.14 482.639 293.14H479.559V288.8H482.559C484.079 288.8 485.119 289.64 485.119 291.02ZM484.759 284.96C484.759 286.24 483.859 286.94 482.379 286.94H479.559V282.96H482.379C483.859 282.96 484.759 283.7 484.759 284.96ZM487.399 291.26C487.399 289.6 486.199 288.12 484.719 287.86C486.059 287.38 487.079 286.36 487.079 284.68C487.079 282.72 485.519 281.1 482.579 281.1H477.279V295H482.839C485.679 295 487.399 293.38 487.399 291.26ZM497.717 291.02C497.717 292.36 496.777 293.14 495.237 293.14H492.157V288.8H495.157C496.677 288.8 497.717 289.64 497.717 291.02ZM497.357 284.96C497.357 286.24 496.457 286.94 494.977 286.94H492.157V282.96H494.977C496.457 282.96 497.357 283.7 497.357 284.96ZM499.997 291.26C499.997 289.6 498.797 288.12 497.317 287.86C498.657 287.38 499.677 286.36 499.677 284.68C499.677 282.72 498.117 281.1 495.177 281.1H489.877V295H495.437C498.277 295 499.997 293.38 499.997 291.26ZM511.855 295H514.255L509.275 281.08H506.635L501.655 295H504.035L505.035 292.16H510.855L511.855 295ZM510.215 290.3H505.675L507.955 283.84L510.215 290.3ZM521.615 295H523.895V283.98H521.615V295ZM522.775 282.52C523.575 282.52 524.215 281.88 524.215 281.06C524.215 280.24 523.575 279.6 522.775 279.6C521.955 279.6 521.315 280.24 521.315 281.06C521.315 281.88 521.955 282.52 522.775 282.52ZM534.709 295H536.969V288.5C536.969 285.42 535.029 283.8 532.449 283.8C531.129 283.8 529.909 284.34 529.169 285.24V283.98H526.889V295H529.169V288.84C529.169 286.82 530.269 285.78 531.949 285.78C533.609 285.78 534.709 286.82 534.709 288.84V295ZM552.752 281.08H545.072V295H552.752V293.14H547.352V288.88H552.152V287.02H547.352V282.94H552.752V281.08ZM563.381 295H565.641V288.5C565.641 285.42 563.701 283.8 561.121 283.8C559.801 283.8 558.581 284.34 557.841 285.24V283.98H555.561V295H557.841V288.84C557.841 286.82 558.941 285.78 560.621 285.78C562.281 285.78 563.381 286.82 563.381 288.84V295ZM567.789 289.44C567.789 292.84 570.089 295.18 572.989 295.18C574.789 295.18 576.109 294.28 576.809 293.34V295.18C576.809 297.38 575.489 298.46 573.729 298.46C572.149 298.46 570.929 297.68 570.589 296.54H568.329C568.609 298.98 570.789 300.44 573.729 300.44C577.169 300.44 579.109 298.18 579.109 295.18V283.98H576.809V285.58C576.129 284.64 574.789 283.8 572.989 283.8C570.089 283.8 567.789 286.04 567.789 289.44ZM576.809 289.48C576.809 291.86 575.189 293.2 573.469 293.2C571.769 293.2 570.129 291.82 570.129 289.44C570.129 287.06 571.769 285.78 573.469 285.78C575.189 285.78 576.809 287.12 576.809 289.48ZM582.104 295H584.384V283.98H582.104V295ZM583.264 282.52C584.064 282.52 584.704 281.88 584.704 281.06C584.704 280.24 584.064 279.6 583.264 279.6C582.444 279.6 581.804 280.24 581.804 281.06C581.804 281.88 582.444 282.52 583.264 282.52ZM595.197 295H597.457V288.5C597.457 285.42 595.517 283.8 592.937 283.8C591.617 283.8 590.397 284.34 589.657 285.24V283.98H587.377V295H589.657V288.84C589.657 286.82 590.757 285.78 592.437 285.78C594.097 285.78 595.197 286.82 595.197 288.84V295ZM605.005 285.72C606.705 285.72 608.045 286.8 608.085 288.5H601.985C602.225 286.76 603.465 285.72 605.005 285.72ZM610.165 291.72H607.705C607.285 292.58 606.505 293.26 605.105 293.26C603.425 293.26 602.125 292.16 601.965 290.34H610.385C610.445 289.96 610.465 289.6 610.465 289.22C610.465 285.98 608.245 283.8 605.105 283.8C601.845 283.8 599.605 286.02 599.605 289.48C599.605 292.94 601.945 295.18 605.105 295.18C607.805 295.18 609.545 293.64 610.165 291.72ZM617.349 285.72C619.049 285.72 620.389 286.8 620.429 288.5H614.329C614.569 286.76 615.809 285.72 617.349 285.72ZM622.509 291.72H620.049C619.629 292.58 618.849 293.26 617.449 293.26C615.769 293.26 614.469 292.16 614.309 290.34H622.729C622.789 289.96 622.809 289.6 622.809 289.22C622.809 285.98 620.589 283.8 617.449 283.8C614.189 283.8 611.949 286.02 611.949 289.48C611.949 292.94 614.289 295.18 617.449 295.18C620.149 295.18 621.889 293.64 622.509 291.72ZM627.333 289.2C627.333 286.86 628.373 286.16 630.053 286.16H630.633V283.8C629.073 283.8 627.973 284.48 627.333 285.58V283.98H625.053V295H627.333V289.2ZM632.729 295H635.009V283.98H632.729V295ZM633.889 282.52C634.689 282.52 635.329 281.88 635.329 281.06C635.329 280.24 634.689 279.6 633.889 279.6C633.069 279.6 632.429 280.24 632.429 281.06C632.429 281.88 633.069 282.52 633.889 282.52ZM645.822 295H648.082V288.5C648.082 285.42 646.142 283.8 643.562 283.8C642.242 283.8 641.022 284.34 640.282 285.24V283.98H638.002V295H640.282V288.84C640.282 286.82 641.382 285.78 643.062 285.78C644.722 285.78 645.822 286.82 645.822 288.84V295ZM650.23 289.44C650.23 292.84 652.53 295.18 655.43 295.18C657.23 295.18 658.55 294.28 659.25 293.34V295.18C659.25 297.38 657.93 298.46 656.17 298.46C654.59 298.46 653.37 297.68 653.03 296.54H650.77C651.05 298.98 653.23 300.44 656.17 300.44C659.61 300.44 661.55 298.18 661.55 295.18V283.98H659.25V285.58C658.57 284.64 657.23 283.8 655.43 283.8C652.53 283.8 650.23 286.04 650.23 289.44ZM659.25 289.48C659.25 291.86 657.63 293.2 655.91 293.2C654.21 293.2 652.57 291.82 652.57 289.44C652.57 287.06 654.21 285.78 655.91 285.78C657.63 285.78 659.25 287.12 659.25 289.48ZM678.58 284.2C678.72 282.3 677.42 280.78 675 280.78C672.62 280.78 671.14 282.16 671.14 283.98C671.14 284.96 671.42 285.7 672.2 286.64C670 287.54 668.94 289.12 668.94 291C668.94 293.6 670.94 295.26 673.94 295.26C675.88 295.26 677.42 294.62 678.76 293.28L680.48 295H683.46L680.08 291.64C680.24 291.38 680.42 291.1 680.58 290.82L682.38 287.74H679.92L678.5 290.08L674.82 286.42C673.84 285.36 673.42 284.74 673.42 283.98C673.42 283.24 674 282.64 674.9 282.64C675.76 282.64 676.34 283.18 676.3 284.2H678.58ZM673.94 293.32C672.3 293.32 671.22 292.26 671.22 290.92C671.22 289.68 671.96 288.72 673.58 288.08L677.26 291.78C676.3 292.8 675.24 293.32 673.94 293.32ZM692.43 287.5V282.96H694.95C696.73 282.96 697.53 283.8 697.53 285.24C697.53 286.64 696.73 287.5 694.95 287.5H692.43ZM699.87 285.24C699.87 282.98 698.25 281.1 694.95 281.1H690.15V295H692.43V289.36H694.95C698.57 289.36 699.87 287.22 699.87 285.24ZM704.325 289.2C704.325 286.86 705.365 286.16 707.045 286.16H707.625V283.8C706.065 283.8 704.965 284.48 704.325 285.58V283.98H702.045V295H704.325V289.2ZM720.221 289.48C720.221 286.02 717.741 283.8 714.601 283.8C711.461 283.8 708.981 286.02 708.981 289.48C708.981 292.94 711.361 295.18 714.501 295.18C717.661 295.18 720.221 292.94 720.221 289.48ZM711.301 289.48C711.301 286.98 712.841 285.78 714.561 285.78C716.261 285.78 717.881 286.98 717.881 289.48C717.881 291.98 716.201 293.2 714.501 293.2C712.781 293.2 711.301 291.98 711.301 289.48ZM722.475 295H724.755V283.98H722.475V295ZM723.635 282.52C724.435 282.52 725.075 281.88 725.075 281.06C725.075 280.24 724.435 279.6 723.635 279.6C722.815 279.6 722.175 280.24 722.175 281.06C722.175 281.88 722.815 282.52 723.635 282.52ZM732.388 285.72C734.088 285.72 735.428 286.8 735.468 288.5H729.368C729.608 286.76 730.848 285.72 732.388 285.72ZM737.548 291.72H735.088C734.668 292.58 733.888 293.26 732.488 293.26C730.808 293.26 729.508 292.16 729.348 290.34H737.768C737.828 289.96 737.848 289.6 737.848 289.22C737.848 285.98 735.628 283.8 732.488 283.8C729.228 283.8 726.988 286.02 726.988 289.48C726.988 292.94 729.328 295.18 732.488 295.18C735.188 295.18 736.928 293.64 737.548 291.72ZM739.332 289.48C739.332 292.94 741.572 295.18 744.732 295.18C747.432 295.18 749.192 293.68 749.812 291.52H747.352C746.932 292.66 746.092 293.26 744.732 293.26C742.892 293.26 741.672 291.9 741.672 289.48C741.672 287.08 742.892 285.72 744.732 285.72C746.092 285.72 746.972 286.4 747.352 287.46H749.812C749.192 285.14 747.432 283.8 744.732 283.8C741.572 283.8 739.332 286.04 739.332 289.48ZM752.444 291.94C752.444 294.18 753.664 295 755.624 295H757.424V293.1H756.024C755.064 293.1 754.744 292.76 754.744 291.94V285.84H757.424V283.98H754.744V281.24H752.444V283.98H751.144V285.84H752.444V291.94ZM549.809 320H552.089V310.48L556.349 320H557.929L562.169 310.48V320H564.449V306.1H562.009L557.149 317L552.269 306.1H549.809V320ZM566.685 314.44C566.685 317.84 568.985 320.18 571.845 320.18C573.685 320.18 575.005 319.3 575.705 318.36V320H578.005V308.98H575.705V310.58C575.025 309.68 573.745 308.8 571.885 308.8C568.985 308.8 566.685 311.04 566.685 314.44ZM575.705 314.48C575.705 316.86 574.085 318.2 572.365 318.2C570.665 318.2 569.025 316.82 569.025 314.44C569.025 312.06 570.665 310.78 572.365 310.78C574.085 310.78 575.705 312.12 575.705 314.48ZM588.82 320H591.08V313.5C591.08 310.42 589.14 308.8 586.56 308.8C585.24 308.8 584.02 309.34 583.28 310.24V308.98H581V320H583.28V313.84C583.28 311.82 584.38 310.78 586.06 310.78C587.72 310.78 588.82 311.82 588.82 313.84V320ZM593.228 314.44C593.228 317.84 595.528 320.18 598.388 320.18C600.228 320.18 601.548 319.3 602.248 318.36V320H604.548V308.98H602.248V310.58C601.568 309.68 600.288 308.8 598.428 308.8C595.528 308.8 593.228 311.04 593.228 314.44ZM602.248 314.48C602.248 316.86 600.628 318.2 598.908 318.2C597.208 318.2 595.568 316.82 595.568 314.44C595.568 312.06 597.208 310.78 598.908 310.78C600.628 310.78 602.248 312.12 602.248 314.48ZM606.783 314.44C606.783 317.84 609.083 320.18 611.983 320.18C613.783 320.18 615.103 319.28 615.803 318.34V320.18C615.803 322.38 614.483 323.46 612.723 323.46C611.143 323.46 609.923 322.68 609.583 321.54H607.323C607.603 323.98 609.783 325.44 612.723 325.44C616.163 325.44 618.103 323.18 618.103 320.18V308.98H615.803V310.58C615.123 309.64 613.783 308.8 611.983 308.8C609.083 308.8 606.783 311.04 606.783 314.44ZM615.803 314.48C615.803 316.86 614.183 318.2 612.463 318.2C610.763 318.2 609.123 316.82 609.123 314.44C609.123 312.06 610.763 310.78 612.463 310.78C614.183 310.78 615.803 312.12 615.803 314.48ZM625.738 310.72C627.438 310.72 628.778 311.8 628.818 313.5H622.718C622.958 311.76 624.198 310.72 625.738 310.72ZM630.898 316.72H628.438C628.018 317.58 627.238 318.26 625.838 318.26C624.158 318.26 622.858 317.16 622.698 315.34H631.118C631.178 314.96 631.198 314.6 631.198 314.22C631.198 310.98 628.978 308.8 625.838 308.8C622.578 308.8 620.338 311.02 620.338 314.48C620.338 317.94 622.678 320.18 625.838 320.18C628.538 320.18 630.278 318.64 630.898 316.72ZM649.061 320H651.321V313.5C651.321 310.42 649.361 308.8 646.781 308.8C645.181 308.8 643.621 309.64 642.941 310.98C642.181 309.54 640.721 308.8 638.981 308.8C637.661 308.8 636.461 309.34 635.721 310.24V308.98H633.441V320H635.721V313.84C635.721 311.82 636.821 310.78 638.501 310.78C640.161 310.78 641.261 311.82 641.261 313.84V320H643.521V313.84C643.521 311.82 644.621 310.78 646.301 310.78C647.961 310.78 649.061 311.82 649.061 313.84V320ZM658.863 310.72C660.563 310.72 661.903 311.8 661.943 313.5H655.843C656.083 311.76 657.323 310.72 658.863 310.72ZM664.023 316.72H661.563C661.143 317.58 660.363 318.26 658.963 318.26C657.283 318.26 655.983 317.16 655.823 315.34H664.243C664.303 314.96 664.323 314.6 664.323 314.22C664.323 310.98 662.103 308.8 658.963 308.8C655.703 308.8 653.463 311.02 653.463 314.48C653.463 317.94 655.803 320.18 658.963 320.18C661.663 320.18 663.403 318.64 664.023 316.72ZM674.386 320H676.646V313.5C676.646 310.42 674.706 308.8 672.126 308.8C670.806 308.8 669.586 309.34 668.846 310.24V308.98H666.566V320H668.846V313.84C668.846 311.82 669.946 310.78 671.626 310.78C673.286 310.78 674.386 311.82 674.386 313.84V320ZM679.915 316.94C679.915 319.18 681.135 320 683.095 320H684.895V318.1H683.495C682.535 318.1 682.215 317.76 682.215 316.94V310.84H684.895V308.98H682.215V306.24H679.915V308.98H678.615V310.84H679.915V316.94Z" fill="#212832"/>
<rect x="417.5" y="261.5" width="404" height="79" stroke="black" stroke-opacity="0.5"/>
<rect x="417" y="87" width="405" height="80" fill="white"/>
<path d="M499.311 128.02C499.311 129.36 498.371 130.14 496.831 130.14H493.751V125.8H496.751C498.271 125.8 499.311 126.64 499.311 128.02ZM498.951 121.96C498.951 123.24 498.051 123.94 496.571 123.94H493.751V119.96H496.571C498.051 119.96 498.951 120.7 498.951 121.96ZM501.591 128.26C501.591 126.6 500.391 125.12 498.911 124.86C500.251 124.38 501.271 123.36 501.271 121.68C501.271 119.72 499.711 118.1 496.771 118.1H491.471V132H497.031C499.871 132 501.591 130.38 501.591 128.26ZM511.908 128.02C511.908 129.36 510.968 130.14 509.428 130.14H506.348V125.8H509.348C510.868 125.8 511.908 126.64 511.908 128.02ZM511.548 121.96C511.548 123.24 510.648 123.94 509.168 123.94H506.348V119.96H509.168C510.648 119.96 511.548 120.7 511.548 121.96ZM514.188 128.26C514.188 126.6 512.988 125.12 511.508 124.86C512.848 124.38 513.868 123.36 513.868 121.68C513.868 119.72 512.308 118.1 509.368 118.1H504.068V132H509.628C512.468 132 514.188 130.38 514.188 128.26ZM526.046 132H528.446L523.466 118.08H520.826L515.846 132H518.226L519.226 129.16H525.046L526.046 132ZM524.406 127.3H519.866L522.146 120.84L524.406 127.3ZM535.807 132H538.087V120.98H535.807V132ZM536.967 119.52C537.767 119.52 538.407 118.88 538.407 118.06C538.407 117.24 537.767 116.6 536.967 116.6C536.147 116.6 535.507 117.24 535.507 118.06C535.507 118.88 536.147 119.52 536.967 119.52ZM548.9 132H551.16V125.5C551.16 122.42 549.22 120.8 546.64 120.8C545.32 120.8 544.1 121.34 543.36 122.24V120.98H541.08V132H543.36V125.84C543.36 123.82 544.46 122.78 546.14 122.78C547.8 122.78 548.9 123.82 548.9 125.84V132ZM567.104 128.02C567.104 129.36 566.164 130.14 564.624 130.14H561.544V125.8H564.544C566.064 125.8 567.104 126.64 567.104 128.02ZM566.744 121.96C566.744 123.24 565.844 123.94 564.364 123.94H561.544V119.96H564.364C565.844 119.96 566.744 120.7 566.744 121.96ZM569.384 128.26C569.384 126.6 568.184 125.12 566.704 124.86C568.044 124.38 569.064 123.36 569.064 121.68C569.064 119.72 567.504 118.1 564.564 118.1H559.264V132H564.824C567.664 132 569.384 130.38 569.384 128.26ZM571.101 126.44C571.101 129.84 573.401 132.18 576.261 132.18C578.101 132.18 579.421 131.3 580.121 130.36V132H582.421V120.98H580.121V122.58C579.441 121.68 578.161 120.8 576.301 120.8C573.401 120.8 571.101 123.04 571.101 126.44ZM580.121 126.48C580.121 128.86 578.501 130.2 576.781 130.2C575.081 130.2 573.441 128.82 573.441 126.44C573.441 124.06 575.081 122.78 576.781 122.78C578.501 122.78 580.121 124.12 580.121 126.48ZM593.236 132H595.496V125.5C595.496 122.42 593.556 120.8 590.976 120.8C589.656 120.8 588.436 121.34 587.696 122.24V120.98H585.416V132H587.696V125.84C587.696 123.82 588.796 122.78 590.476 122.78C592.136 122.78 593.236 123.82 593.236 125.84V132ZM598.404 132H600.684V127.26L604.764 132H607.844L602.764 126.5L607.844 120.98H604.684L600.684 125.8V117.2H598.404V132ZM609.479 132H611.759V120.98H609.479V132ZM610.639 119.52C611.439 119.52 612.079 118.88 612.079 118.06C612.079 117.24 611.439 116.6 610.639 116.6C609.819 116.6 609.179 117.24 609.179 118.06C609.179 118.88 609.819 119.52 610.639 119.52ZM622.572 132H624.832V125.5C624.832 122.42 622.892 120.8 620.312 120.8C618.992 120.8 617.772 121.34 617.032 122.24V120.98H614.752V132H617.032V125.84C617.032 123.82 618.132 122.78 619.812 122.78C621.472 122.78 622.572 123.82 622.572 125.84V132ZM626.98 126.44C626.98 129.84 629.28 132.18 632.18 132.18C633.98 132.18 635.3 131.28 636 130.34V132.18C636 134.38 634.68 135.46 632.92 135.46C631.34 135.46 630.12 134.68 629.78 133.54H627.52C627.8 135.98 629.98 137.44 632.92 137.44C636.36 137.44 638.3 135.18 638.3 132.18V120.98H636V122.58C635.32 121.64 633.98 120.8 632.18 120.8C629.28 120.8 626.98 123.04 626.98 126.44ZM636 126.48C636 128.86 634.38 130.2 632.66 130.2C630.96 130.2 629.32 128.82 629.32 126.44C629.32 124.06 630.96 122.78 632.66 122.78C634.38 122.78 636 124.12 636 126.48ZM655.33 121.2C655.47 119.3 654.17 117.78 651.75 117.78C649.37 117.78 647.89 119.16 647.89 120.98C647.89 121.96 648.17 122.7 648.95 123.64C646.75 124.54 645.69 126.12 645.69 128C645.69 130.6 647.69 132.26 650.69 132.26C652.63 132.26 654.17 131.62 655.51 130.28L657.23 132H660.21L656.83 128.64C656.99 128.38 657.17 128.1 657.33 127.82L659.13 124.74H656.67L655.25 127.08L651.57 123.42C650.59 122.36 650.17 121.74 650.17 120.98C650.17 120.24 650.75 119.64 651.65 119.64C652.51 119.64 653.09 120.18 653.05 121.2H655.33ZM650.69 130.32C649.05 130.32 647.97 129.26 647.97 127.92C647.97 126.68 648.71 125.72 650.33 125.08L654.01 128.78C653.05 129.8 651.99 130.32 650.69 130.32ZM666.9 132H669.18V125.92H673.78V124.06H669.18V119.96H675.08V118.1H666.9V132ZM677.193 132H679.473V120.98H677.193V132ZM678.353 119.52C679.153 119.52 679.793 118.88 679.793 118.06C679.793 117.24 679.153 116.6 678.353 116.6C677.533 116.6 676.893 117.24 676.893 118.06C676.893 118.88 677.533 119.52 678.353 119.52ZM690.287 132H692.547V125.5C692.547 122.42 690.607 120.8 688.027 120.8C686.707 120.8 685.487 121.34 684.747 122.24V120.98H682.467V132H684.747V125.84C684.747 123.82 685.847 122.78 687.527 122.78C689.187 122.78 690.287 123.82 690.287 125.84V132ZM694.695 126.44C694.695 129.84 696.995 132.18 699.855 132.18C701.695 132.18 703.015 131.3 703.715 130.36V132H706.015V120.98H703.715V122.58C703.035 121.68 701.755 120.8 699.895 120.8C696.995 120.8 694.695 123.04 694.695 126.44ZM703.715 126.48C703.715 128.86 702.095 130.2 700.375 130.2C698.675 130.2 697.035 128.82 697.035 126.44C697.035 124.06 698.675 122.78 700.375 122.78C702.095 122.78 703.715 124.12 703.715 126.48ZM716.83 132H719.09V125.5C719.09 122.42 717.15 120.8 714.57 120.8C713.25 120.8 712.03 121.34 711.29 122.24V120.98H709.01V132H711.29V125.84C711.29 123.82 712.39 122.78 714.07 122.78C715.73 122.78 716.83 123.82 716.83 125.84V132ZM721.238 126.48C721.238 129.94 723.478 132.18 726.638 132.18C729.338 132.18 731.098 130.68 731.718 128.52H729.258C728.838 129.66 727.998 130.26 726.638 130.26C724.798 130.26 723.578 128.9 723.578 126.48C723.578 124.08 724.798 122.72 726.638 122.72C727.998 122.72 728.878 123.4 729.258 124.46H731.718C731.098 122.14 729.338 120.8 726.638 120.8C723.478 120.8 721.238 123.04 721.238 126.48ZM738.63 122.72C740.33 122.72 741.67 123.8 741.71 125.5H735.61C735.85 123.76 737.09 122.72 738.63 122.72ZM743.79 128.72H741.33C740.91 129.58 740.13 130.26 738.73 130.26C737.05 130.26 735.75 129.16 735.59 127.34H744.01C744.07 126.96 744.09 126.6 744.09 126.22C744.09 122.98 741.87 120.8 738.73 120.8C735.47 120.8 733.23 123.02 733.23 126.48C733.23 129.94 735.57 132.18 738.73 132.18C741.43 132.18 743.17 130.64 743.79 128.72Z" fill="#212832"/>
<rect x="417.5" y="87.5" width="404" height="79" stroke="black" stroke-opacity="0.5"/>
<rect x="417" y="348" width="405" height="80" fill="white"/>
<path d="M498.147 392.02C498.147 393.36 497.207 394.14 495.667 394.14H492.587V389.8H495.587C497.107 389.8 498.147 390.64 498.147 392.02ZM497.787 385.96C497.787 387.24 496.887 387.94 495.407 387.94H492.587V383.96H495.407C496.887 383.96 497.787 384.7 497.787 385.96ZM500.427 392.26C500.427 390.6 499.227 389.12 497.747 388.86C499.087 388.38 500.107 387.36 500.107 385.68C500.107 383.72 498.547 382.1 495.607 382.1H490.307V396H495.867C498.707 396 500.427 394.38 500.427 392.26ZM510.744 392.02C510.744 393.36 509.804 394.14 508.264 394.14H505.184V389.8H508.184C509.704 389.8 510.744 390.64 510.744 392.02ZM510.384 385.96C510.384 387.24 509.484 387.94 508.004 387.94H505.184V383.96H508.004C509.484 383.96 510.384 384.7 510.384 385.96ZM513.024 392.26C513.024 390.6 511.824 389.12 510.344 388.86C511.684 388.38 512.704 387.36 512.704 385.68C512.704 383.72 511.144 382.1 508.204 382.1H502.904V396H508.464C511.304 396 513.024 394.38 513.024 392.26ZM524.882 396H527.282L522.302 382.08H519.662L514.682 396H517.062L518.062 393.16H523.882L524.882 396ZM523.242 391.3H518.702L520.982 384.84L523.242 391.3ZM534.643 396H536.923V384.98H534.643V396ZM535.803 383.52C536.603 383.52 537.243 382.88 537.243 382.06C537.243 381.24 536.603 380.6 535.803 380.6C534.983 380.6 534.343 381.24 534.343 382.06C534.343 382.88 534.983 383.52 535.803 383.52ZM547.736 396H549.996V389.5C549.996 386.42 548.056 384.8 545.476 384.8C544.156 384.8 542.936 385.34 542.196 386.24V384.98H539.916V396H542.196V389.84C542.196 387.82 543.296 386.78 544.976 386.78C546.636 386.78 547.736 387.82 547.736 389.84V396ZM557.38 383.96H561.1V396H563.38V383.96H567.08V382.1H557.38V383.96ZM571.669 390.2C571.669 387.86 572.709 387.16 574.389 387.16H574.969V384.8C573.409 384.8 572.309 385.48 571.669 386.58V384.98H569.389V396H571.669V390.2ZM576.304 390.44C576.304 393.84 578.604 396.18 581.464 396.18C583.304 396.18 584.624 395.3 585.324 394.36V396H587.624V384.98H585.324V386.58C584.644 385.68 583.364 384.8 581.504 384.8C578.604 384.8 576.304 387.04 576.304 390.44ZM585.324 390.48C585.324 392.86 583.704 394.2 581.984 394.2C580.284 394.2 578.644 392.82 578.644 390.44C578.644 388.06 580.284 386.78 581.984 386.78C583.704 386.78 585.324 388.12 585.324 390.48ZM589.319 384.98L593.499 396H596.219L600.419 384.98H597.999L594.879 393.96L591.759 384.98H589.319ZM606.783 386.72C608.483 386.72 609.823 387.8 609.863 389.5H603.763C604.003 387.76 605.243 386.72 606.783 386.72ZM611.943 392.72H609.483C609.063 393.58 608.283 394.26 606.883 394.26C605.203 394.26 603.903 393.16 603.743 391.34H612.163C612.223 390.96 612.243 390.6 612.243 390.22C612.243 386.98 610.023 384.8 606.883 384.8C603.623 384.8 601.383 387.02 601.383 390.48C601.383 393.94 603.723 396.18 606.883 396.18C609.583 396.18 611.323 394.64 611.943 392.72ZM614.486 396H616.766V381.2H614.486V396ZM624.195 390.44C624.195 393.84 626.495 396.18 629.355 396.18C631.195 396.18 632.515 395.3 633.215 394.36V396H635.515V384.98H633.215V386.58C632.535 385.68 631.255 384.8 629.395 384.8C626.495 384.8 624.195 387.04 624.195 390.44ZM633.215 390.48C633.215 392.86 631.595 394.2 629.875 394.2C628.175 394.2 626.535 392.82 626.535 390.44C626.535 388.06 628.175 386.78 629.875 386.78C631.595 386.78 633.215 388.12 633.215 390.48ZM646.33 396H648.59V389.5C648.59 386.42 646.65 384.8 644.07 384.8C642.75 384.8 641.53 385.34 640.79 386.24V384.98H638.51V396H640.79V389.84C640.79 387.82 641.89 386.78 643.57 386.78C645.23 386.78 646.33 387.82 646.33 389.84V396ZM650.738 390.44C650.738 393.84 653.038 396.18 655.938 396.18C657.738 396.18 659.058 395.34 659.758 394.34V396H662.058V381.2H659.758V386.52C658.918 385.48 657.398 384.8 655.958 384.8C653.038 384.8 650.738 387.04 650.738 390.44ZM659.758 390.48C659.758 392.86 658.138 394.2 656.418 394.2C654.718 394.2 653.078 392.82 653.078 390.44C653.078 388.06 654.718 386.78 656.418 386.78C658.138 386.78 659.758 388.12 659.758 390.48ZM669.528 383.96H673.248V396H675.528V383.96H679.228V382.1H669.528V383.96ZM692.037 390.48C692.037 387.02 689.557 384.8 686.417 384.8C683.277 384.8 680.797 387.02 680.797 390.48C680.797 393.94 683.177 396.18 686.317 396.18C689.477 396.18 692.037 393.94 692.037 390.48ZM683.117 390.48C683.117 387.98 684.657 386.78 686.377 386.78C688.077 386.78 689.697 387.98 689.697 390.48C689.697 392.98 688.017 394.2 686.317 394.2C684.597 394.2 683.117 392.98 683.117 390.48ZM704.271 384.98H701.991V391.12C701.991 393.14 700.891 394.18 699.211 394.18C697.551 394.18 696.451 393.14 696.451 391.12V384.98H694.191V391.46C694.191 394.54 696.151 396.16 698.731 396.16C700.031 396.16 701.271 395.62 701.991 394.68V396H704.271V384.98ZM709.559 390.2C709.559 387.86 710.599 387.16 712.279 387.16H712.859V384.8C711.299 384.8 710.199 385.48 709.559 386.58V384.98H707.279V396H709.559V390.2ZM714.955 396H717.235V384.98H714.955V396ZM716.115 383.52C716.915 383.52 717.555 382.88 717.555 382.06C717.555 381.24 716.915 380.6 716.115 380.6C715.295 380.6 714.655 381.24 714.655 382.06C714.655 382.88 715.295 383.52 716.115 383.52ZM728.449 392.92C728.329 388.94 722.109 390.18 722.109 387.96C722.109 387.22 722.749 386.72 723.969 386.72C725.209 386.72 725.949 387.38 726.029 388.34H728.309C728.189 386.14 726.549 384.8 724.049 384.8C721.449 384.8 719.809 386.22 719.809 387.98C719.809 392.02 726.209 390.78 726.209 392.94C726.209 393.7 725.509 394.26 724.189 394.26C722.929 394.26 722.069 393.52 721.989 392.62H719.629C719.729 394.62 721.589 396.18 724.229 396.18C726.829 396.18 728.449 394.78 728.449 392.92ZM746.532 396H748.792V389.5C748.792 386.42 746.832 384.8 744.252 384.8C742.652 384.8 741.092 385.64 740.412 386.98C739.652 385.54 738.192 384.8 736.452 384.8C735.132 384.8 733.932 385.34 733.192 386.24V384.98H730.912V396H733.192V389.84C733.192 387.82 734.292 386.78 735.972 386.78C737.632 386.78 738.732 387.82 738.732 389.84V396H740.992V389.84C740.992 387.82 742.092 386.78 743.772 386.78C745.432 386.78 746.532 387.82 746.532 389.84V396Z" fill="#212832"/>
<rect x="417.5" y="348.5" width="404" height="79" stroke="black" stroke-opacity="0.5"/>
<rect x="417" y="174" width="405" height="80" fill="white"/>
<path d="M507.971 205.02C507.971 206.36 507.031 207.14 505.491 207.14H502.411V202.8H505.411C506.931 202.8 507.971 203.64 507.971 205.02ZM507.611 198.96C507.611 200.24 506.711 200.94 505.231 200.94H502.411V196.96H505.231C506.711 196.96 507.611 197.7 507.611 198.96ZM510.251 205.26C510.251 203.6 509.051 202.12 507.571 201.86C508.911 201.38 509.931 200.36 509.931 198.68C509.931 196.72 508.371 195.1 505.431 195.1H500.131V209H505.691C508.531 209 510.251 207.38 510.251 205.26ZM520.569 205.02C520.569 206.36 519.629 207.14 518.089 207.14H515.009V202.8H518.009C519.529 202.8 520.569 203.64 520.569 205.02ZM520.209 198.96C520.209 200.24 519.309 200.94 517.829 200.94H515.009V196.96H517.829C519.309 196.96 520.209 197.7 520.209 198.96ZM522.849 205.26C522.849 203.6 521.649 202.12 520.169 201.86C521.509 201.38 522.529 200.36 522.529 198.68C522.529 196.72 520.969 195.1 518.029 195.1H512.729V209H518.289C521.129 209 522.849 207.38 522.849 205.26ZM534.706 209H537.106L532.126 195.08H529.486L524.506 209H526.886L527.886 206.16H533.706L534.706 209ZM533.066 204.3H528.526L530.806 197.84L533.066 204.3ZM544.467 209H546.747V197.98H544.467V209ZM545.627 196.52C546.427 196.52 547.067 195.88 547.067 195.06C547.067 194.24 546.427 193.6 545.627 193.6C544.807 193.6 544.167 194.24 544.167 195.06C544.167 195.88 544.807 196.52 545.627 196.52ZM557.56 209H559.82V202.5C559.82 199.42 557.88 197.8 555.3 197.8C553.98 197.8 552.76 198.34 552.02 199.24V197.98H549.74V209H552.02V202.84C552.02 200.82 553.12 199.78 554.8 199.78C556.46 199.78 557.56 200.82 557.56 202.84V209ZM577.304 209H579.704L574.724 195.08H572.084L567.104 209H569.484L570.484 206.16H576.304L577.304 209ZM575.664 204.3H571.124L573.404 197.84L575.664 204.3ZM581.109 203.44C581.109 206.84 583.409 209.18 586.309 209.18C588.109 209.18 589.429 208.34 590.129 207.34V209H592.429V194.2H590.129V199.52C589.289 198.48 587.769 197.8 586.329 197.8C583.409 197.8 581.109 200.04 581.109 203.44ZM590.129 203.48C590.129 205.86 588.509 207.2 586.789 207.2C585.089 207.2 583.449 205.82 583.449 203.44C583.449 201.06 585.089 199.78 586.789 199.78C588.509 199.78 590.129 201.12 590.129 203.48ZM594.124 197.98L598.304 209H601.024L605.224 197.98H602.804L599.684 206.96L596.564 197.98H594.124ZM611.587 199.72C613.287 199.72 614.627 200.8 614.667 202.5H608.567C608.807 200.76 610.047 199.72 611.587 199.72ZM616.747 205.72H614.287C613.867 206.58 613.087 207.26 611.687 207.26C610.007 207.26 608.707 206.16 608.547 204.34H616.967C617.027 203.96 617.047 203.6 617.047 203.22C617.047 199.98 614.827 197.8 611.687 197.8C608.427 197.8 606.187 200.02 606.187 203.48C606.187 206.94 608.527 209.18 611.687 209.18C614.387 209.18 616.127 207.64 616.747 205.72ZM621.571 203.2C621.571 200.86 622.611 200.16 624.291 200.16H624.871V197.8C623.311 197.8 622.211 198.48 621.571 199.58V197.98H619.291V209H621.571V203.2ZM627.327 205.94C627.327 208.18 628.547 209 630.507 209H632.307V207.1H630.907C629.947 207.1 629.627 206.76 629.627 205.94V199.84H632.307V197.98H629.627V195.24H627.327V197.98H626.027V199.84H627.327V205.94ZM634.408 209H636.688V197.98H634.408V209ZM635.568 196.52C636.368 196.52 637.008 195.88 637.008 195.06C637.008 194.24 636.368 193.6 635.568 193.6C634.748 193.6 634.108 194.24 634.108 195.06C634.108 195.88 634.748 196.52 635.568 196.52ZM647.902 205.92C647.782 201.94 641.562 203.18 641.562 200.96C641.562 200.22 642.202 199.72 643.422 199.72C644.662 199.72 645.402 200.38 645.482 201.34H647.762C647.642 199.14 646.002 197.8 643.502 197.8C640.902 197.8 639.262 199.22 639.262 200.98C639.262 205.02 645.662 203.78 645.662 205.94C645.662 206.7 644.962 207.26 643.642 207.26C642.382 207.26 641.522 206.52 641.442 205.62H639.082C639.182 207.62 641.042 209.18 643.682 209.18C646.282 209.18 647.902 207.78 647.902 205.92ZM655.005 199.72C656.705 199.72 658.045 200.8 658.085 202.5H651.985C652.225 200.76 653.465 199.72 655.005 199.72ZM660.165 205.72H657.705C657.285 206.58 656.505 207.26 655.105 207.26C653.425 207.26 652.125 206.16 651.965 204.34H660.385C660.445 203.96 660.465 203.6 660.465 203.22C660.465 199.98 658.245 197.8 655.105 197.8C651.845 197.8 649.605 200.02 649.605 203.48C649.605 206.94 651.945 209.18 655.105 209.18C657.805 209.18 659.545 207.64 660.165 205.72ZM678.329 209H680.589V202.5C680.589 199.42 678.629 197.8 676.049 197.8C674.449 197.8 672.889 198.64 672.209 199.98C671.449 198.54 669.989 197.8 668.249 197.8C666.929 197.8 665.729 198.34 664.989 199.24V197.98H662.709V209H664.989V202.84C664.989 200.82 666.089 199.78 667.769 199.78C669.429 199.78 670.529 200.82 670.529 202.84V209H672.789V202.84C672.789 200.82 673.889 199.78 675.569 199.78C677.229 199.78 678.329 200.82 678.329 202.84V209ZM688.13 199.72C689.83 199.72 691.17 200.8 691.21 202.5H685.11C685.35 200.76 686.59 199.72 688.13 199.72ZM693.29 205.72H690.83C690.41 206.58 689.63 207.26 688.23 207.26C686.55 207.26 685.25 206.16 685.09 204.34H693.51C693.57 203.96 693.59 203.6 693.59 203.22C693.59 199.98 691.37 197.8 688.23 197.8C684.97 197.8 682.73 200.02 682.73 203.48C682.73 206.94 685.07 209.18 688.23 209.18C690.93 209.18 692.67 207.64 693.29 205.72ZM703.654 209H705.914V202.5C705.914 199.42 703.974 197.8 701.394 197.8C700.074 197.8 698.854 198.34 698.114 199.24V197.98H695.834V209H698.114V202.84C698.114 200.82 699.214 199.78 700.894 199.78C702.554 199.78 703.654 200.82 703.654 202.84V209ZM709.182 205.94C709.182 208.18 710.402 209 712.362 209H714.162V207.1H712.762C711.802 207.1 711.482 206.76 711.482 205.94V199.84H714.162V197.98H711.482V195.24H709.182V197.98H707.882V199.84H709.182V205.94ZM735.494 198.2C735.634 196.3 734.334 194.78 731.914 194.78C729.534 194.78 728.054 196.16 728.054 197.98C728.054 198.96 728.334 199.7 729.114 200.64C726.914 201.54 725.854 203.12 725.854 205C725.854 207.6 727.854 209.26 730.854 209.26C732.794 209.26 734.334 208.62 735.674 207.28L737.394 209H740.374L736.994 205.64C737.154 205.38 737.334 205.1 737.494 204.82L739.294 201.74H736.834L735.414 204.08L731.734 200.42C730.754 199.36 730.334 198.74 730.334 197.98C730.334 197.24 730.914 196.64 731.814 196.64C732.674 196.64 733.254 197.18 733.214 198.2H735.494ZM730.854 207.32C729.214 207.32 728.134 206.26 728.134 204.92C728.134 203.68 728.874 202.72 730.494 202.08L734.174 205.78C733.214 206.8 732.154 207.32 730.854 207.32ZM570.229 234H572.509V224.48L576.769 234H578.349L582.589 224.48V234H584.869V220.1H582.429L577.569 231L572.689 220.1H570.229V234ZM587.105 228.44C587.105 231.84 589.405 234.18 592.265 234.18C594.105 234.18 595.425 233.3 596.125 232.36V234H598.425V222.98H596.125V224.58C595.445 223.68 594.165 222.8 592.305 222.8C589.405 222.8 587.105 225.04 587.105 228.44ZM596.125 228.48C596.125 230.86 594.505 232.2 592.785 232.2C591.085 232.2 589.445 230.82 589.445 228.44C589.445 226.06 591.085 224.78 592.785 224.78C594.505 224.78 596.125 226.12 596.125 228.48ZM603.7 228.2C603.7 225.86 604.74 225.16 606.42 225.16H607V222.8C605.44 222.8 604.34 223.48 603.7 224.58V222.98H601.42V234H603.7V228.2ZM609.096 234H611.376V229.26L615.456 234H618.536L613.456 228.5L618.536 222.98H615.376L611.376 227.8V219.2H609.096V234ZM624.81 224.72C626.51 224.72 627.85 225.8 627.89 227.5H621.79C622.03 225.76 623.27 224.72 624.81 224.72ZM629.97 230.72H627.51C627.09 231.58 626.31 232.26 624.91 232.26C623.23 232.26 621.93 231.16 621.77 229.34H630.19C630.25 228.96 630.27 228.6 630.27 228.22C630.27 224.98 628.05 222.8 624.91 222.8C621.65 222.8 619.41 225.02 619.41 228.48C619.41 231.94 621.75 234.18 624.91 234.18C627.61 234.18 629.35 232.64 629.97 230.72ZM632.874 230.94C632.874 233.18 634.094 234 636.054 234H637.854V232.1H636.454C635.494 232.1 635.174 231.76 635.174 230.94V224.84H637.854V222.98H635.174V220.24H632.874V222.98H631.574V224.84H632.874V230.94ZM639.955 234H642.235V222.98H639.955V234ZM641.115 221.52C641.915 221.52 642.555 220.88 642.555 220.06C642.555 219.24 641.915 218.6 641.115 218.6C640.295 218.6 639.655 219.24 639.655 220.06C639.655 220.88 640.295 221.52 641.115 221.52ZM653.049 234H655.309V227.5C655.309 224.42 653.369 222.8 650.789 222.8C649.469 222.8 648.249 223.34 647.509 224.24V222.98H645.229V234H647.509V227.84C647.509 225.82 648.609 224.78 650.289 224.78C651.949 224.78 653.049 225.82 653.049 227.84V234ZM657.457 228.44C657.457 231.84 659.757 234.18 662.657 234.18C664.457 234.18 665.777 233.28 666.477 232.34V234.18C666.477 236.38 665.157 237.46 663.397 237.46C661.817 237.46 660.597 236.68 660.257 235.54H657.997C658.277 237.98 660.457 239.44 663.397 239.44C666.837 239.44 668.777 237.18 668.777 234.18V222.98H666.477V224.58C665.797 223.64 664.457 222.8 662.657 222.8C659.757 222.8 657.457 225.04 657.457 228.44ZM666.477 228.48C666.477 230.86 664.857 232.2 663.137 232.2C661.437 232.2 659.797 230.82 659.797 228.44C659.797 226.06 661.437 224.78 663.137 224.78C664.857 224.78 666.477 226.12 666.477 228.48Z" fill="#212832"/>
<rect x="417.5" y="174.5" width="404" height="79" stroke="black" stroke-opacity="0.5"/>
</svg>
