<svg width="203" height="75" viewBox="0 0 203 75" fill="none" xmlns="http://www.w3.org/2000/svg">
<rect width="203" height="75" fill="white"/>
<g clip-path="url(#clip0_13_110)">
<path d="M91.2258 24.1347C91.5633 24.17 91.7832 24.2103 91.9673 24.2608C92.2536 24.3616 92.2945 24.4776 92.3047 24.9064C92.3303 25.3048 92.3303 26.253 92.3303 27.6703C92.3303 29.2136 92.3303 30.1417 92.3201 30.6057C92.2945 31.0697 92.228 31.1958 91.865 31.2866C91.7065 31.3269 91.4713 31.3622 91.1696 31.3874C91.1184 31.4429 91.1184 31.7254 91.1696 31.7607C91.6298 31.7607 92.0593 31.7254 92.8519 31.7254C93.8081 31.7254 94.3808 31.7607 94.8001 31.7607C94.8512 31.7102 94.8614 31.4429 94.8103 31.3874C94.4575 31.3521 94.1967 31.3269 93.9359 31.2714C93.5575 31.1806 93.491 31.0142 93.4808 30.5905C93.4553 30.0509 93.4553 28.9816 93.4553 28.1999C93.4553 28.1847 93.4808 28.1343 93.5217 28.1343C93.8183 28.1192 95.204 28.1343 95.6693 28.1595C95.9046 28.1746 96.0477 28.3007 96.1296 28.5731C96.1807 28.7244 96.2318 28.8656 96.283 29.138C96.375 29.1783 96.6358 29.1783 96.7023 29.1128C96.6869 28.7496 96.6767 28.3259 96.6767 27.8771C96.6767 27.4282 96.7176 26.8835 96.7534 26.5909C96.6869 26.5405 96.4006 26.5254 96.3085 26.5506C96.2727 26.7675 96.2216 26.9642 96.1551 27.1155C96.0784 27.3374 95.971 27.5038 95.6336 27.5291C95.2143 27.5543 94.1047 27.5543 93.5217 27.5543C93.5064 27.5543 93.4553 27.5291 93.4553 27.4887C93.4553 26.601 93.4655 25.33 93.4808 24.5836C93.4808 24.5029 93.5473 24.3616 93.6342 24.3516C93.9513 24.3112 95.383 24.3364 95.8432 24.3516C96.1654 24.3616 96.3239 24.5029 96.4261 24.7904C96.5079 25.0224 96.5591 25.2493 96.6256 25.6629C96.6767 25.7285 97.0039 25.7033 97.0397 25.6377C97.0653 24.9316 97.1471 24.1347 97.2392 23.822C97.2238 23.7968 97.2085 23.7463 97.1727 23.7463C96.9119 23.7867 96.4261 23.8119 95.9199 23.8119H92.8416C92.1513 23.8119 91.4968 23.7715 91.236 23.7715C91.1951 23.8119 91.1696 24.0943 91.2258 24.1347V24.1347ZM100.68 26.4598C100.067 26.4598 99.443 26.6817 98.9726 26.9743C98.3079 27.4282 97.8374 28.1091 97.8374 29.1228C97.8374 30.4493 98.5277 31.8767 100.435 31.8767C100.982 31.8767 101.596 31.6346 101.949 31.4026C102.757 30.8982 103.16 30.0357 103.16 29.0472C103.16 27.6047 102.245 26.4598 100.68 26.4598V26.4598ZM100.236 26.9642C101.345 26.9642 102.051 27.9678 102.051 29.4608C102.051 30.2425 101.908 30.757 101.555 31.0798C101.335 31.2866 101.033 31.3521 100.757 31.3521C99.714 31.3521 98.947 30.3232 98.947 28.8051C98.947 27.8266 99.2743 27.3626 99.6118 27.1407C99.7805 27.0297 100.031 26.9642 100.236 26.9642V26.9642ZM103.866 27.0802C104.101 27.1155 104.347 27.1558 104.464 27.1962C104.623 27.2567 104.659 27.413 104.674 27.6299C104.71 28.1746 104.674 29.5213 104.674 30.1417C104.684 31.0041 104.945 31.8767 106.223 31.8767C106.627 31.8767 107.205 31.685 107.947 31.0697C107.977 31.0394 108.028 31.0697 108.028 31.0949C108.028 31.2866 108.028 31.6699 108.039 31.8111C108.054 31.8666 108.095 31.9271 108.12 31.9271C108.381 31.8666 109.332 31.5942 109.818 31.4026C109.869 31.3521 109.879 31.0949 109.869 31.0293C109.675 31.0394 109.516 31.0697 109.322 31.0546C109.112 31.0394 109.046 30.9234 109.036 30.5805L109.046 27.6703C109.061 27.181 109.061 26.7826 109.087 26.5506C108.785 26.6262 107.701 26.7322 107.006 26.7322C106.955 26.7675 106.919 26.9995 106.944 27.0802C107.313 27.1306 107.599 27.1558 107.778 27.2214C107.977 27.2718 108.013 27.4383 108.028 27.5946C108.039 29.138 108.039 30.2072 108.028 30.3838C108.013 30.5149 107.962 30.6309 107.885 30.6965C107.558 30.9638 107.205 31.0949 106.811 31.0949C106.147 31.0949 105.845 30.757 105.743 30.3484C105.692 30.1417 105.676 29.718 105.676 29.0321C105.676 27.5139 105.717 26.8482 105.753 26.5254C105.431 26.6262 104.464 26.717 103.943 26.7322C103.876 26.7675 103.851 26.9995 103.866 27.0802V27.0802ZM110.375 31.3874C110.319 31.4429 110.319 31.7102 110.375 31.7607C110.529 31.7607 110.999 31.7254 111.638 31.7254C112.354 31.7254 112.722 31.7607 112.917 31.7607C112.968 31.7001 112.983 31.4429 112.958 31.3874C112.748 31.3622 112.554 31.337 112.411 31.2866C112.226 31.2361 112.175 31.1453 112.16 30.8478C112.134 30.2577 112.134 29.0068 112.134 28.0939C112.134 27.8266 112.186 27.7106 112.262 27.6299C112.564 27.3727 112.968 27.2214 113.346 27.2214C113.725 27.2214 113.975 27.3475 114.154 27.5139C114.405 27.7207 114.497 28.0687 114.522 28.2755C114.589 28.7496 114.574 30.0509 114.558 30.7721C114.548 31.105 114.507 31.2361 114.328 31.2967C114.246 31.3269 114.037 31.3622 113.791 31.3874C113.74 31.4429 113.75 31.7102 113.791 31.7607C114.103 31.7506 114.481 31.7254 115.08 31.7254C115.76 31.7254 116.154 31.7607 116.333 31.7607C116.399 31.7001 116.414 31.453 116.373 31.3874C116.113 31.3521 115.929 31.3269 115.719 31.221C115.632 31.1806 115.591 31.0798 115.591 30.9789C115.566 30.525 115.566 29.37 115.566 28.6487C115.566 28.0284 115.473 27.5139 115.228 27.1306C114.937 26.7069 114.533 26.4598 113.975 26.4598C113.515 26.4598 112.876 26.7422 112.201 27.297C112.175 27.3122 112.134 27.297 112.134 27.2718C112.134 27.0549 112.145 26.6817 112.16 26.5405C112.16 26.5001 112.119 26.4598 112.109 26.4497C111.782 26.6262 111.025 26.8734 110.503 26.9238C110.452 26.9642 110.411 27.1407 110.437 27.2214C110.923 27.3979 111.076 27.5291 111.117 27.7106C111.132 27.9023 111.142 28.2352 111.142 28.7395C111.142 29.5465 111.142 30.4493 111.117 30.8478C111.102 31.0697 111.025 31.2462 110.841 31.2967C110.687 31.337 110.554 31.3622 110.375 31.3874V31.3874ZM122.908 31.105C122.688 31.1201 122.463 31.1302 122.31 31.105C122.177 31.0798 122.075 31.0546 122.06 30.6662C122.049 30.3838 122.049 29.3296 122.049 27.8367C122.049 25.8445 122.075 24.8408 122.1 24.1448C122.116 23.5648 122.126 23.3731 122.244 23.1814C122.259 23.1411 122.203 23.015 122.177 22.9999C121.773 23.1411 120.914 23.3327 120.065 23.3327C119.989 23.3731 119.973 23.6051 120.014 23.6808C120.26 23.706 120.602 23.7615 120.771 23.8119C120.965 23.8775 121.016 23.9783 121.042 24.2204C121.068 24.5432 121.068 24.9568 121.068 26.4598C121.068 26.485 121.032 26.5102 121.016 26.5102C120.873 26.5001 120.638 26.4598 120.428 26.4598C119.61 26.4598 118.618 26.833 118.081 27.2718C117.493 27.7459 117.13 28.5327 117.13 29.3448C117.13 30.066 117.34 30.7217 117.718 31.1706C118.071 31.6094 118.593 31.8514 119.14 31.8514C119.585 31.8514 120.377 31.5034 120.965 31.0949C120.991 31.0949 121.032 31.105 121.032 31.1453C121.032 31.337 121.042 31.6699 121.057 31.7758C121.068 31.8666 121.108 31.9422 121.149 31.9422C121.477 31.9271 122.504 31.6094 122.842 31.453C122.883 31.4026 122.924 31.1706 122.908 31.105V31.105ZM119.702 27.0146C120.116 27.0146 120.495 27.1054 120.771 27.3122C120.991 27.4635 121.042 27.6299 121.057 27.9023C121.068 28.4823 121.057 30.1265 121.032 30.4392C121.032 30.525 120.991 30.641 120.924 30.7065C120.653 30.9234 120.301 31.0546 119.907 31.0546C118.92 31.0546 118.158 30.3333 118.158 28.9463C118.158 28.2755 118.357 27.7207 118.72 27.3878C118.981 27.1306 119.334 27.0146 119.702 27.0146V27.0146ZM126.314 28.3764C126.314 28.4672 126.329 28.6084 126.299 28.7244C126.299 28.7647 126.247 28.8404 126.222 28.8555C125.726 29.0976 124.187 29.4608 123.757 29.6928C123.691 29.7785 123.522 30.182 123.522 30.4241C123.522 30.873 123.706 31.2714 123.967 31.5539C124.176 31.7506 124.437 31.8767 124.683 31.8767C125.02 31.8767 125.567 31.6194 126.237 31.2109C126.247 31.1958 126.288 31.2109 126.288 31.221C126.314 31.3269 126.339 31.4681 126.391 31.5438C126.483 31.7354 126.692 31.8767 127.055 31.8767C127.357 31.8767 127.812 31.7607 128.129 31.4278C128.165 31.3874 128.19 31.0949 128.18 31.0394C128.022 31.0949 127.93 31.105 127.72 31.105C127.331 31.105 127.229 30.8629 127.229 30.5905C127.229 30.0761 127.28 29.0875 127.28 28.4167C127.28 27.9527 127.198 27.5038 126.979 27.1407C126.692 26.717 126.263 26.4598 125.685 26.4598C125.363 26.4598 124.54 26.7826 123.977 27.171C123.9 27.2466 123.706 27.7459 123.68 27.9275C123.665 28.0435 124.018 28.2352 124.059 28.1847C124.228 27.7711 124.463 27.3626 124.606 27.2567C124.667 27.2063 124.841 27.1306 125.128 27.1306C125.516 27.1306 125.895 27.297 126.12 27.6198C126.273 27.8367 126.314 28.1192 126.314 28.3764V28.3764ZM126.299 29.2893C126.299 29.5112 126.299 30.3484 126.273 30.6158C126.263 30.757 126.222 30.8629 126.13 30.9133C125.92 31.0546 125.634 31.1201 125.465 31.1201C124.903 31.1201 124.555 30.7469 124.555 30.2425C124.555 30.1013 124.632 29.8592 124.683 29.834C124.918 29.6625 125.751 29.4053 126.237 29.2388C126.263 29.2288 126.299 29.2792 126.299 29.2893V29.2893ZM131.688 27.287C131.703 27.0903 131.765 26.7574 131.806 26.5758C131.611 26.601 130.839 26.6414 130.215 26.6414C130.19 26.6414 130.159 26.5909 130.159 26.5657C130.159 25.6629 130.2 25.0829 130.226 24.866C130.19 24.8509 130.057 24.8509 129.99 24.8761C129.847 25.0476 129.367 25.3653 129.157 25.4712V26.5657C129.157 26.601 129.116 26.6515 129.106 26.6515C128.998 26.7069 128.676 26.7675 128.492 26.7977C128.441 26.8582 128.359 27.1407 128.375 27.2214L129.08 27.2718C129.131 27.287 129.157 27.3475 129.157 27.3878C129.157 27.9023 129.147 29.0623 129.147 29.7936C129.147 30.6158 129.157 30.9537 129.326 31.2613C129.551 31.6699 129.965 31.8767 130.476 31.8767C130.89 31.8767 131.437 31.7102 131.765 31.3118C131.79 31.2613 131.831 30.9537 131.806 30.9133C131.545 31.0697 131.361 31.1302 130.998 31.1302C130.67 31.1302 130.343 30.9789 130.226 30.6309C130.174 30.4644 130.149 30.2173 130.149 29.7029C130.134 29.0724 130.134 27.9426 130.149 27.3374C130.149 27.3223 130.174 27.2718 130.2 27.2718C130.696 27.2718 131.361 27.287 131.688 27.287V27.287ZM134.194 24.6189C134.194 24.5029 134.142 24.3364 134.061 24.2456C134.035 24.2103 133.892 24.1448 133.682 24.1448C133.447 24.1448 133.176 24.2759 133.058 24.3768C132.992 24.4423 132.982 24.6744 132.992 24.75C133.033 25.0072 133.135 25.1888 133.329 25.2796C133.411 25.33 133.851 25.2897 133.917 25.2493C134.086 25.1232 134.194 24.866 134.194 24.6189ZM134.976 31.3874C134.674 31.3521 134.598 31.3269 134.429 31.2866C134.229 31.221 134.153 31.0798 134.153 30.8478C134.142 30.2677 134.142 29.4053 134.142 28.6992C134.142 27.9174 134.153 27.0297 134.153 26.4497C133.646 26.6515 132.849 26.8078 132.455 26.8229C132.404 26.8582 132.368 27.0802 132.404 27.1306C132.665 27.2214 132.89 27.297 133.033 27.4383C133.11 27.5291 133.125 27.6299 133.125 27.7106C133.125 27.9678 133.135 28.4319 133.135 28.9312C133.135 29.6373 133.135 30.4897 133.11 30.8074C133.084 31.105 133.043 31.2109 132.874 31.2714C132.721 31.3269 132.537 31.3622 132.312 31.3874C132.261 31.4429 132.261 31.7254 132.312 31.7607C132.537 31.7607 133.043 31.7254 133.59 31.7254C134.26 31.7254 134.674 31.7607 134.925 31.7607C134.976 31.7254 135.017 31.453 134.976 31.3874V31.3874ZM138.55 26.4598C137.937 26.4598 137.308 26.6817 136.842 26.9743C136.178 27.4282 135.707 28.1091 135.707 29.1228C135.707 30.4493 136.397 31.8767 138.3 31.8767C138.847 31.8767 139.46 31.6346 139.813 31.4026C140.621 30.8982 141.03 30.0357 141.03 29.0472C141.03 27.6047 140.115 26.4598 138.55 26.4598V26.4598ZM138.105 26.9642C139.215 26.9642 139.921 27.9678 139.921 29.4608C139.921 30.2425 139.777 30.757 139.425 31.0798C139.2 31.2866 138.903 31.3521 138.627 31.3521C137.584 31.3521 136.817 30.3232 136.817 28.8051C136.817 27.8266 137.139 27.3626 137.481 27.1407C137.65 27.0297 137.896 26.9642 138.105 26.9642V26.9642ZM141.889 31.3874C141.838 31.4429 141.838 31.7102 141.889 31.7607C142.048 31.7607 142.513 31.7254 143.152 31.7254C143.873 31.7254 144.236 31.7607 144.431 31.7607C144.487 31.7001 144.497 31.4429 144.471 31.3874C144.262 31.3622 144.068 31.337 143.924 31.2866C143.74 31.2361 143.689 31.1453 143.674 30.8478C143.648 30.2577 143.648 29.0068 143.648 28.0939C143.648 27.8266 143.704 27.7106 143.781 27.6299C144.083 27.3727 144.487 27.2214 144.865 27.2214C145.244 27.2214 145.489 27.3475 145.673 27.5139C145.919 27.7207 146.011 28.0687 146.036 28.2755C146.103 28.7496 146.087 30.0509 146.077 30.7721C146.062 31.105 146.026 31.2361 145.842 31.2967C145.765 31.3269 145.556 31.3622 145.305 31.3874C145.254 31.4429 145.269 31.7102 145.305 31.7607C145.622 31.7506 146 31.7254 146.599 31.7254C147.279 31.7254 147.667 31.7607 147.851 31.7607C147.918 31.7001 147.928 31.453 147.887 31.3874C147.626 31.3521 147.447 31.3269 147.238 31.221C147.146 31.1806 147.105 31.0798 147.105 30.9789C147.079 30.525 147.079 29.37 147.079 28.6487C147.079 28.0284 146.987 27.5139 146.742 27.1306C146.455 26.7069 146.052 26.4598 145.489 26.4598C145.034 26.4598 144.395 26.7422 143.715 27.297C143.689 27.3122 143.648 27.297 143.648 27.2718C143.648 27.0549 143.664 26.6817 143.674 26.5405C143.674 26.5001 143.638 26.4598 143.623 26.4497C143.295 26.6262 142.544 26.8734 142.017 26.9238C141.966 26.9642 141.93 27.1407 141.956 27.2214C142.436 27.3979 142.595 27.5291 142.631 27.7106C142.646 27.9023 142.656 28.2352 142.656 28.7395C142.656 29.5465 142.656 30.4493 142.631 30.8478C142.62 31.0697 142.544 31.2462 142.36 31.2967C142.201 31.337 142.073 31.3622 141.889 31.3874V31.3874Z" fill="#393185"/>
<path d="M10.1429 24.4423C11.14 24.5684 11.8405 24.629 12.3928 24.7853C13.1649 24.977 13.2365 25.446 13.3132 26.2278C13.4257 27.7056 13.4257 29.7432 13.4257 32.3104C13.4257 36.421 13.4257 39.6489 13.2774 40.5265C13.2007 41.2478 13.0524 41.6866 11.9837 41.8782C11.4724 41.9993 10.915 42.0648 10.1071 42.1253C9.95882 42.2212 9.95882 42.9424 10.1429 43.0382C11.3241 43.0382 13.1649 42.9424 15.2665 42.9424C17.0715 42.9424 19.1373 43.0382 20.022 43.0382C20.1702 42.9424 20.2418 42.2514 20.0935 42.1253C19.2089 42.0346 18.4368 41.9387 17.9204 41.8126C16.8159 41.5958 16.6676 41.0611 16.6318 40.1533C16.5551 39.0538 16.5551 36.0427 16.5551 32.9409C16.5551 30.2123 16.5193 27.5795 16.6318 26.2631C16.7034 25.2897 16.8517 24.8811 17.7005 24.6945C18.1402 24.5987 18.7692 24.5382 19.5771 24.4423C19.6896 24.286 19.6538 23.6908 19.5413 23.5648C18.6209 23.5648 16.8875 23.6606 14.9699 23.6606C13.0524 23.6606 10.9559 23.5648 10.1787 23.5648C10.0713 23.6606 9.99461 24.3163 10.1429 24.4423V24.4423ZM38.4864 28.6134C38.5222 28.7698 39.4835 28.674 39.6267 28.5479C39.6676 27.1407 39.9948 24.8206 40.2198 23.7211C38.558 23.6253 36.0882 23.0957 32.9588 23.0957C29.8243 23.0957 27.4261 23.6253 25.4728 24.5382C21.423 26.3841 19.6129 29.7735 19.6129 33.1578C19.6129 39.6792 24.1842 43.5073 32.4066 43.5073C34.6513 43.5073 36.9728 43.0382 38.0415 42.7205C38.8903 42.2817 40.4755 39.8406 40.8437 38.4889C40.7721 38.272 40.1431 37.9896 39.959 37.9896C39.0028 39.3665 38.1182 40.4357 37.1978 41.0611C36.2723 41.7824 34.728 42.1253 33.1429 42.1253C26.5824 42.1253 23.2996 37.8937 23.2996 32.8753C23.2996 27.5795 26.3626 24.2204 31.706 24.2204C33.4753 24.2204 35.0604 24.4121 36.2723 24.9114C37.6376 25.4763 38.1182 26.1017 38.4864 28.6134V28.6134ZM40.6238 24.4423C41.58 24.5382 42.2089 24.629 42.7254 24.7551C43.5333 25.0072 43.6458 25.2897 43.6816 26.3236C43.7583 27.297 43.7583 29.6171 43.7583 33.067C43.7583 36.8295 43.7583 39.084 43.7225 40.2138C43.6458 41.3436 43.4617 41.6563 42.4288 41.8782C41.989 41.969 41.3243 42.0648 40.4755 42.1253C40.3272 42.2514 40.3272 42.9424 40.4755 43.0382C41.7641 43.0382 42.981 42.9424 45.2309 42.9424C47.9206 42.9424 49.5415 43.0382 50.7227 43.0382C50.871 42.9122 50.9068 42.2514 50.7585 42.1253C49.7665 42.0346 49.0251 41.969 48.2887 41.8429C47.22 41.626 47.036 41.2175 47.0002 40.1835C46.9286 38.8672 46.9286 36.2646 46.9286 34.3531C46.9286 34.3178 47.0002 34.1917 47.1127 34.1917C47.9564 34.1614 51.863 34.1917 53.1925 34.2573C53.8572 34.2875 54.2612 34.6002 54.481 35.261C54.6293 35.6342 54.7776 35.9822 54.9259 36.6379C55.1816 36.7337 55.9179 36.7337 56.102 36.5773C56.0662 35.6998 56.0304 34.6658 56.0304 33.5663C56.0304 32.4718 56.1429 31.1504 56.2503 30.4291C56.0662 30.3081 55.2583 30.2728 54.9975 30.3384C54.8901 30.8679 54.7418 31.342 54.5577 31.7153C54.3328 32.2499 54.0413 32.6584 53.08 32.719C51.9039 32.7845 48.7694 32.7845 47.1127 32.7845C47.0718 32.7845 46.9286 32.719 46.9286 32.6282C46.9286 30.4645 46.9644 27.3576 47.0002 25.5419C47.0002 25.3502 47.1842 25.0072 47.445 24.977C48.3296 24.8811 52.3794 24.9417 53.6731 24.977C54.5935 25.0072 55.0333 25.3502 55.3299 26.0412C55.5497 26.6061 55.698 27.171 55.8821 28.1746C56.0304 28.331 56.9508 28.2654 57.0633 28.1091C57.1349 26.3841 57.3548 24.4423 57.6156 23.6908C57.5798 23.6253 57.5389 23.4992 57.4315 23.4992C56.6951 23.595 55.3299 23.6606 53.893 23.6606H45.1951C43.2418 23.6606 41.3959 23.5648 40.6596 23.5648C40.5522 23.6606 40.4755 24.3465 40.6238 24.4423V24.4423ZM52.6044 42.1253C52.4561 42.2514 52.4561 42.9122 52.6044 43.0382C53.305 43.0382 54.4453 42.9424 56.5469 42.9424C58.6127 42.9424 60.4893 43.0382 61.2665 43.0382C61.3739 42.9122 61.4506 42.2514 61.3381 42.1253C60.6376 42.0648 60.0086 41.969 59.5689 41.8782C58.4286 41.626 58.3519 41.2831 58.3877 40.7484C58.4644 39.9969 59.6404 37.3591 60.3819 35.6695C60.4177 35.5737 60.6018 35.387 60.7501 35.387H67.2696C67.3463 35.387 67.5662 35.5131 67.602 35.6039C68.2667 37.0161 69.3712 39.6489 69.8161 41.0006C69.9235 41.2831 69.8877 41.5958 69.4121 41.7824C68.8548 41.9387 68.1951 42.0346 67.3821 42.1253C67.2338 42.2514 67.3105 42.9122 67.4179 43.0382C68.1951 43.0029 70.4399 42.9424 72.2501 42.9424C73.9068 42.9424 75.7885 43.0029 76.7447 43.0382C76.8572 42.9122 76.9646 42.2212 76.8163 42.1253C74.1625 41.8429 73.9068 41.6866 72.8381 39.5884C71.5495 36.9859 67.4537 27.065 66.7174 25.2846C66.4617 24.6945 66.2776 24.1296 66.1293 23.6606C66.0168 23.6606 65.6487 23.6908 64.9123 23.6908C64.2885 23.6908 63.8437 23.6606 63.6954 23.6606C63.6238 24.0994 63.363 24.7853 63.0715 25.441C62.2585 27.4433 58.7967 35.4173 56.915 39.2101C55.698 41.626 55.2583 41.8429 52.6044 42.1253V42.1253ZM64.1402 26.9087C64.7283 28.2553 66.1293 31.7254 66.8657 33.6672C66.9424 33.7882 66.8299 33.9093 66.7583 33.9093C66.385 33.9446 65.1731 33.9446 64.2885 33.9446C62.8874 33.9446 61.7063 33.9446 61.3381 33.9093C61.2256 33.879 61.1898 33.8185 61.1898 33.6974C61.8188 32.0431 63.3272 28.5075 63.9561 26.949C63.9919 26.8784 64.1044 26.9087 64.1402 26.9087V26.9087ZM77.3327 24.4423C78.3299 24.5684 79.0304 24.629 79.5826 24.7853C80.3548 24.977 80.4315 25.446 80.5031 26.2278C80.6155 27.7056 80.6155 29.7432 80.6155 32.3104C80.6155 36.421 80.6155 39.6489 80.4673 40.5265C80.3906 41.2478 80.2474 41.6866 79.1787 41.8782C78.6622 41.9993 78.11 42.0648 77.297 42.1253C77.1487 42.2212 77.1487 42.9424 77.3327 43.0382C78.5139 43.0382 80.3548 42.9424 82.4564 42.9424C84.2614 42.9424 86.3272 43.0382 87.2118 43.0382C87.3601 42.9424 87.4317 42.2514 87.2834 42.1253C86.3988 42.0346 85.6267 41.9387 85.1102 41.8126C84.0057 41.5958 83.8574 41.0611 83.8216 40.1533C83.7449 39.0538 83.7449 36.0427 83.7449 32.9409C83.7449 30.2123 83.7091 27.5795 83.8216 26.2631C83.8932 25.2897 84.0415 24.8811 84.8903 24.6945C85.3301 24.5987 85.959 24.5382 86.7669 24.4423C86.8794 24.286 86.8436 23.6908 86.7312 23.5648C85.8107 23.5648 84.0773 23.6606 82.1598 23.6606C80.2474 23.6606 78.1458 23.5648 77.3685 23.5648C77.2612 23.6606 77.1845 24.3163 77.3327 24.4423V24.4423Z" fill="#393185"/>
<path d="M91.594 42.549C91.5275 42.6045 91.5428 42.8668 91.594 42.9172C91.8599 42.9172 92.3354 42.8819 92.8928 42.8819C93.6342 42.8819 94.1251 42.9172 94.4319 42.9172C94.483 42.8819 94.5086 42.6045 94.4728 42.549C94.0995 42.5137 93.9717 42.4885 93.7927 42.4481C93.5217 42.3876 93.4297 42.2615 93.4194 41.9791C93.3785 41.2982 93.3785 39.8355 93.3683 38.6099C93.3683 38.5696 93.4194 38.4939 93.445 38.4939C93.7672 38.4939 94.3296 38.504 94.7182 38.504C94.7285 38.3174 94.7949 37.9845 94.8307 37.8332C94.6518 37.8483 94.3296 37.8736 93.4552 37.8736C93.4194 37.8736 93.3785 37.808 93.3785 37.7828C93.3785 37.7222 93.3683 37.581 93.3683 37.4902C93.3785 36.542 93.4041 35.6291 93.7672 35.2458C93.9308 35.0693 94.0995 35.0189 94.2938 35.0189C94.662 35.0189 95.0762 35.2963 95.3574 35.5535C95.3983 35.5636 95.475 35.5636 95.5006 35.5384C95.6029 35.4627 95.8994 34.9684 95.9352 34.8272C95.9506 34.802 95.9506 34.7263 95.9352 34.691C95.7972 34.4489 95.4239 34.2825 94.9995 34.2825C94.662 34.2825 94.1762 34.459 93.7672 34.7515C92.7087 35.503 92.4172 36.4664 92.4019 37.7979C92.4019 37.808 92.3763 37.8736 92.3508 37.8836C92.2485 37.9492 91.9263 38.0501 91.7218 38.0854C91.6707 38.151 91.594 38.3426 91.594 38.4536L92.3252 38.4939C92.361 38.4939 92.4019 38.5847 92.4019 38.6099C92.3865 39.8759 92.3865 41.3285 92.361 42.0144C92.361 42.2414 92.3098 42.3826 92.1053 42.4582L91.594 42.549V42.549ZM98.0471 37.697C97.4437 37.697 96.825 37.9089 96.3596 38.2014C95.7051 38.6452 95.2449 39.316 95.2449 40.3197C95.2449 41.626 95.925 43.0332 97.8016 43.0332C98.3436 43.0332 98.947 42.7911 99.2947 42.5641C100.087 42.0699 100.486 41.2175 100.486 40.2441C100.486 38.8218 99.5862 37.697 98.0471 37.697V37.697ZM97.6073 38.1913C98.7016 38.1913 99.397 39.1799 99.397 40.6476C99.397 41.4243 99.2538 41.9286 98.9061 42.2464C98.6862 42.4481 98.3948 42.5137 98.1238 42.5137C97.096 42.5137 96.3341 41.4999 96.3341 40.002C96.3341 39.0386 96.6562 38.5847 96.9937 38.3678C97.1573 38.2518 97.4028 38.1913 97.6073 38.1913V38.1913ZM104.577 37.697C104.331 37.697 104.127 37.7828 103.922 37.9341C103.626 38.1409 103.355 38.4284 103.109 38.736C103.084 38.7461 103.048 38.7461 103.048 38.7108C103.048 38.4687 103.058 37.9089 103.074 37.7323C103.074 37.7071 103.033 37.6819 103.007 37.6819C102.659 37.8836 101.903 38.1005 101.437 38.151C101.401 38.1762 101.376 38.3678 101.376 38.4284C101.954 38.6351 102.056 38.7865 102.082 38.963C102.097 39.1143 102.097 39.4976 102.097 39.9667C102.097 40.8392 102.082 41.8933 102.056 42.0951C102.03 42.322 101.954 42.3977 101.826 42.4481C101.683 42.4986 101.478 42.5389 101.325 42.549C101.274 42.6045 101.284 42.8668 101.325 42.9172C101.555 42.9071 102.209 42.8819 102.608 42.8819C103.125 42.8819 103.958 42.9172 104.112 42.9172C104.178 42.8668 104.188 42.6146 104.163 42.549C103.881 42.5238 103.585 42.4885 103.355 42.4229C103.16 42.3624 103.099 42.2363 103.084 42.0194C103.074 41.7672 103.058 40.4609 103.058 39.5985C103.058 39.432 103.125 39.2404 103.16 39.1647C103.329 38.8974 103.585 38.6351 103.846 38.6351C104.137 38.6351 104.434 38.8218 104.679 39.0286C104.689 39.0286 104.771 38.9882 104.781 38.9731C104.909 38.8218 105.155 38.3275 105.18 38.1762C105.196 38.1257 105.196 38.0097 105.18 37.9744C105.078 37.7979 104.822 37.697 104.577 37.697V37.697ZM108.008 35.4022C108.356 35.4526 108.586 35.4778 108.78 35.5384C109.036 35.6039 109.112 35.7401 109.138 36.0982C109.153 36.3252 109.164 37.6718 109.164 38.8974C109.164 40.002 109.153 41.0813 109.153 41.51C109.112 42.0951 109.077 42.322 108.703 42.4381C108.524 42.4734 108.315 42.5137 108.008 42.549C107.972 42.6045 107.972 42.8668 108.023 42.9172C108.279 42.9172 108.974 42.8819 109.731 42.8819C110.554 42.8819 111.158 42.9172 111.403 42.9172C111.454 42.892 111.505 42.6146 111.454 42.549C111.066 42.4986 110.877 42.4481 110.682 42.3977C110.36 42.312 110.309 42.1354 110.283 41.7017C110.273 41.4344 110.273 39.9768 110.273 39.2807C110.273 39.2656 110.283 39.2051 110.309 39.2051C110.437 39.1899 111.49 39.1899 112.492 39.1899C113.203 39.1899 114.297 39.1899 114.538 39.2051C114.579 39.2051 114.614 39.2555 114.614 39.2908C114.614 40.0928 114.614 41.4747 114.604 41.8429C114.579 42.2363 114.502 42.3624 114.267 42.4229C114.062 42.4885 113.873 42.5137 113.535 42.549C113.484 42.6146 113.484 42.8668 113.535 42.9172C113.873 42.9071 114.512 42.8819 115.167 42.8819C115.826 42.8819 116.506 42.9172 116.89 42.9172C116.967 42.8819 116.982 42.6045 116.941 42.549C116.542 42.5137 116.302 42.4734 116.118 42.4128C115.877 42.3372 115.801 42.196 115.76 41.8429C115.734 41.4091 115.734 40.0171 115.734 38.9125C115.734 37.4045 115.734 36.653 115.76 36.2092C115.785 35.7552 115.837 35.614 116.118 35.5283C116.286 35.4778 116.506 35.4375 116.788 35.4022C116.839 35.3467 116.829 35.0945 116.788 35.0441C116.583 35.0441 115.837 35.0844 115.192 35.0844C114.512 35.0844 113.883 35.034 113.587 35.034C113.525 35.0945 113.51 35.3467 113.576 35.4022C113.909 35.4375 114.139 35.4778 114.333 35.5384C114.512 35.6039 114.579 35.7552 114.589 35.957C114.614 36.4159 114.614 37.8483 114.614 38.504C114.614 38.5292 114.579 38.5847 114.538 38.5847C114.425 38.5948 113.934 38.5948 112.523 38.6099C110.657 38.6099 110.427 38.5948 110.335 38.5847C110.299 38.5696 110.273 38.504 110.273 38.4536C110.273 37.2128 110.258 36.5673 110.283 36.0982C110.299 35.6897 110.386 35.5888 110.641 35.5131C110.784 35.4778 111.03 35.4375 111.26 35.4022C111.311 35.3618 111.311 35.1096 111.275 35.0441C110.912 35.0441 110.529 35.0844 109.665 35.0844C108.974 35.0844 108.33 35.0441 108.023 35.0441C107.972 35.0945 107.957 35.3467 108.008 35.4022V35.4022ZM119.181 35.8813C119.181 35.7653 119.13 35.6039 119.053 35.5131C119.027 35.4778 118.884 35.4123 118.68 35.4123C118.449 35.4123 118.178 35.5384 118.061 35.6392C117.999 35.7048 117.984 35.9318 117.999 36.0074C118.035 36.2596 118.138 36.4412 118.332 36.5269C118.409 36.5773 118.843 36.542 118.91 36.5017C119.078 36.3756 119.181 36.1234 119.181 35.8813ZM119.953 42.549C119.656 42.5137 119.58 42.4885 119.411 42.4481C119.216 42.3876 119.14 42.2464 119.14 42.0194C119.13 41.4495 119.13 40.5971 119.13 39.9011C119.13 39.1294 119.14 38.2518 119.14 37.6819C118.639 37.8836 117.856 38.035 117.468 38.0501C117.417 38.0854 117.381 38.3023 117.417 38.3527C117.677 38.4435 117.892 38.5191 118.035 38.6604C118.112 38.7461 118.127 38.847 118.127 38.9226C118.127 39.1799 118.138 39.6338 118.138 40.1281C118.138 40.8291 118.138 41.6613 118.112 41.9791C118.086 42.2716 118.051 42.3725 117.882 42.4381C117.728 42.4885 117.549 42.5238 117.33 42.549C117.278 42.6045 117.278 42.8819 117.33 42.9172C117.549 42.9172 118.051 42.8819 118.588 42.8819C119.242 42.8819 119.656 42.9172 119.902 42.9172C119.953 42.8819 119.989 42.6146 119.953 42.549V42.549ZM122.919 37.697C122.443 37.6819 121.676 37.9744 121.313 38.2518C120.812 38.6351 120.592 39.1799 120.592 39.7246C120.592 40.7484 121.119 41.2982 121.778 41.5252C121.804 41.5352 121.814 41.5756 121.788 41.6008C121.61 41.742 121.134 42.0194 120.94 42.1354C120.929 42.1707 120.889 42.2968 120.889 42.3473C120.929 42.6146 121.2 42.9676 121.702 43.1341C121.712 43.1341 121.712 43.1744 121.712 43.1744C121.16 43.5678 120.618 43.9713 120.464 44.163C120.413 44.2386 120.377 44.5312 120.377 44.6421C120.377 45.0507 120.592 45.5046 120.991 45.8223C121.415 46.1401 121.916 46.2813 122.535 46.2813C122.995 46.2813 123.476 46.1905 124.003 45.9232C124.964 45.4541 125.567 44.6573 125.567 43.8049C125.567 43.124 125.143 42.7306 124.667 42.5641C124.243 42.4128 123.128 42.3624 122.55 42.312C122.279 42.2867 122.034 42.1707 122.034 41.9286C122.034 41.7269 122.254 41.6109 122.366 41.6008C122.407 41.5857 122.576 41.5756 122.612 41.5756C122.97 41.5352 123.476 41.4243 123.977 41.0561C124.401 40.7232 124.734 40.2794 124.734 39.4068C124.734 39.1799 124.667 38.8974 124.632 38.7865C124.616 38.7612 124.642 38.7209 124.657 38.7209C124.795 38.736 124.826 38.736 124.964 38.736C125.22 38.736 125.327 38.6705 125.414 38.5847C125.557 38.4435 125.736 38.0249 125.736 37.8736C125.721 37.8483 125.608 37.7727 125.567 37.7828C125.404 37.9593 125.26 38.0602 124.795 38.0602C124.514 38.0602 124.268 38.0097 124.064 37.9341C123.691 37.7979 123.369 37.697 122.919 37.697V37.697ZM122.509 38.1661C123.461 38.1661 123.783 39.0033 123.783 39.7599C123.783 40.2693 123.64 40.6627 123.435 40.8644C123.282 41.0309 123.036 41.0914 122.842 41.0914C121.957 41.0914 121.569 40.2441 121.569 39.432C121.569 38.6705 121.932 38.1661 122.509 38.1661V38.1661ZM123.051 45.6458C122.55 45.6458 122.085 45.5298 121.727 45.2373C121.431 44.9851 121.303 44.6926 121.303 44.3799C121.303 44.0218 121.517 43.704 122.008 43.3863C122.126 43.3257 122.279 43.2602 122.469 43.2602C122.995 43.2602 123.68 43.3257 124.054 43.477C124.453 43.6283 124.708 43.9058 124.708 44.3799C124.708 45.0002 124.243 45.6458 123.051 45.6458V45.6458ZM125.803 35.034C126.033 35.0592 126.263 35.0844 126.416 35.1197C126.595 35.1601 126.636 35.271 126.662 35.4627C126.702 35.9318 126.702 36.7438 126.702 39.8103C126.702 40.1028 126.687 41.6109 126.677 41.9186C126.662 42.2716 126.61 42.3876 126.391 42.4633C126.278 42.4986 126.145 42.5238 125.93 42.549C125.879 42.6045 125.879 42.8668 125.93 42.9172C126.145 42.9172 126.508 42.8819 127.163 42.8819C127.909 42.8819 128.344 42.9172 128.513 42.9172C128.564 42.8668 128.589 42.6045 128.528 42.549C128.293 42.5238 128.19 42.4986 128.037 42.4734C127.766 42.3876 127.73 42.2867 127.705 41.8782C127.679 41.5252 127.679 39.9414 127.679 39.0639C127.679 38.9882 127.73 38.8369 127.833 38.7612C128.129 38.5444 128.513 38.4183 128.835 38.4183C129.668 38.4183 129.965 38.9882 130.031 39.3312C130.118 39.9162 130.093 41.1822 130.082 41.8026C130.067 42.312 130.016 42.3977 129.822 42.4633C129.694 42.4986 129.515 42.5238 129.31 42.549C129.269 42.6045 129.269 42.8668 129.321 42.9172C129.489 42.9071 130.041 42.8819 130.543 42.8819C131.11 42.8819 131.611 42.9172 131.831 42.9172C131.893 42.892 131.918 42.5894 131.882 42.549C131.622 42.5137 131.432 42.4986 131.253 42.3977C131.146 42.3372 131.085 42.2363 131.085 42.08C131.069 41.5252 131.069 40.4206 131.069 39.7246C131.069 38.4788 130.491 37.697 129.479 37.697C129.014 37.697 128.395 37.9492 127.73 38.4536C127.705 38.4687 127.664 38.4687 127.664 38.4435C127.664 38.0854 127.664 36.4412 127.679 35.6544C127.689 34.7919 127.715 34.6658 127.817 34.459C127.817 34.4237 127.766 34.2976 127.73 34.2825C127.331 34.459 126.57 34.6406 125.803 34.7011C125.751 34.7263 125.736 34.9936 125.803 35.034V35.034ZM136.96 41.6613C136.484 42.0446 136.009 42.196 135.492 42.196C134.915 42.196 134.48 42.0295 134.091 41.6361C133.784 41.3083 133.59 40.7737 133.565 40.3449C133.565 40.2794 133.59 40.2189 133.641 40.2037C134.72 40.1785 136.469 40.0776 137.011 39.9263C137.047 39.9011 137.124 39.6842 137.113 39.6338C136.985 39.5985 136.934 39.548 136.919 39.4976C136.817 38.7865 136.367 37.697 135.119 37.697C134.71 37.697 134.132 37.8584 133.733 38.1157C133.079 38.5444 132.603 39.2908 132.603 40.4105C132.603 41.1317 132.808 41.9034 133.335 42.4229C133.718 42.8163 134.234 43.0332 134.904 43.0332C135.492 43.0332 136.382 42.7155 136.945 42.08C136.97 42.0446 137.021 41.8278 137.011 41.742C136.996 41.7017 136.97 41.6765 136.96 41.6613V41.6613ZM134.72 38.1762C135.416 38.1762 135.84 38.8974 135.907 39.5329C135.907 39.5834 135.866 39.6237 135.84 39.6489C135.584 39.6994 134.066 39.7498 133.657 39.7246C133.616 39.7246 133.59 39.659 133.59 39.6338C133.657 38.736 134.107 38.1762 134.72 38.1762V38.1762ZM140.943 37.697C140.698 37.697 140.493 37.7828 140.289 37.9341C139.992 38.1409 139.721 38.4284 139.481 38.736C139.455 38.7461 139.414 38.7461 139.414 38.7108C139.414 38.4687 139.425 37.9089 139.44 37.7323C139.44 37.7071 139.399 37.6819 139.373 37.6819C139.031 37.8836 138.269 38.1005 137.809 38.151C137.768 38.1762 137.742 38.3678 137.742 38.4284C138.32 38.6351 138.422 38.7865 138.448 38.963C138.463 39.1143 138.463 39.4976 138.463 39.9667C138.463 40.8392 138.448 41.8933 138.422 42.0951C138.397 42.322 138.32 42.3977 138.192 42.4481C138.054 42.4986 137.845 42.5389 137.691 42.549C137.64 42.6045 137.655 42.8668 137.691 42.9172C137.921 42.9071 138.581 42.8819 138.975 42.8819C139.491 42.8819 140.325 42.9172 140.483 42.9172C140.544 42.8668 140.56 42.6146 140.534 42.549C140.248 42.5238 139.956 42.4885 139.721 42.4229C139.532 42.3624 139.465 42.2363 139.455 42.0194C139.44 41.7672 139.425 40.4609 139.425 39.5985C139.425 39.432 139.491 39.2404 139.532 39.1647C139.696 38.8974 139.956 38.6351 140.212 38.6351C140.509 38.6351 140.805 38.8218 141.045 39.0286C141.061 39.0286 141.138 38.9882 141.148 38.9731C141.281 38.8218 141.521 38.3275 141.547 38.1762C141.562 38.1257 141.562 38.0097 141.547 37.9744C141.444 37.7979 141.189 37.697 140.943 37.697V37.697ZM144.482 35.387C144.773 35.4274 144.993 35.4627 145.162 35.5131C145.469 35.5888 145.52 35.7048 145.545 36.1587C145.561 36.3907 145.561 37.5155 145.561 38.6705C145.561 40.1028 145.561 41.4999 145.545 41.742C145.509 42.1859 145.417 42.3473 145.111 42.4229C144.875 42.4885 144.533 42.5137 144.134 42.549C144.083 42.6146 144.093 42.8819 144.144 42.9172C144.671 42.9172 145.315 42.8819 146.174 42.8819C147.514 42.8819 148.439 42.9323 149.518 42.9323C150.163 42.9323 150.239 42.8668 150.316 42.7306C150.51 42.3473 150.792 41.3839 150.858 40.9905C150.802 40.93 150.546 40.8392 150.485 40.8543C150.316 41.2326 150.045 41.742 149.841 41.969C149.61 42.2615 149.442 42.3725 148.889 42.3876C148.363 42.3876 147.243 42.3725 146.987 42.312C146.834 42.2615 146.691 42.08 146.691 41.8278C146.665 41.2175 146.665 39.8759 146.665 39.2908C146.665 39.2555 146.706 39.1899 146.732 39.1899C147.207 39.1799 148.271 39.1799 148.659 39.2152C148.951 39.2404 149.043 39.4068 149.094 39.5834C149.145 39.7347 149.16 39.8355 149.196 40.1028C149.263 40.1684 149.569 40.1533 149.636 40.0928C149.621 39.775 149.61 39.4068 149.61 38.9378C149.61 38.4939 149.662 37.9996 149.697 37.7475C149.646 37.6819 149.35 37.6718 149.273 37.7071C149.237 37.8988 149.186 38.0753 149.135 38.2165C149.068 38.4183 148.976 38.5696 148.695 38.5948C148.235 38.6351 147.243 38.6351 146.732 38.62C146.691 38.62 146.665 38.5696 146.665 38.5292C146.665 37.9593 146.665 36.5521 146.675 35.846C146.675 35.7804 146.742 35.6291 146.834 35.6039C146.997 35.5888 148.552 35.5888 148.797 35.6039C149.222 35.6392 149.339 35.7804 149.442 36.0831C149.493 36.2747 149.544 36.4916 149.585 36.8598C149.621 36.8951 149.927 36.8951 149.984 36.8346C150.019 36.3252 150.112 35.4778 150.214 35.0945C150.214 35.0844 150.173 35.0441 150.163 35.034C149.892 35.0693 149.222 35.0844 148.736 35.0844H146.2C145.484 35.0844 144.814 35.034 144.492 35.034C144.441 35.0945 144.415 35.3366 144.482 35.387V35.387ZM157.286 42.2716C157.066 42.2867 156.846 42.2968 156.692 42.2716C156.565 42.2464 156.462 42.2212 156.447 41.8429C156.437 41.5605 156.437 40.5215 156.437 39.0538C156.437 37.0867 156.462 36.0982 156.488 35.4123C156.498 34.8423 156.513 34.6507 156.626 34.459C156.641 34.4237 156.59 34.2976 156.565 34.2825C156.166 34.4237 155.317 34.6154 154.478 34.6154C154.402 34.6507 154.391 34.8776 154.427 34.9583C154.673 34.9836 155.01 35.034 155.174 35.0844C155.368 35.1449 155.419 35.2458 155.445 35.4879C155.47 35.8057 155.47 36.2092 155.47 37.697C155.47 37.7222 155.435 37.7475 155.419 37.7475C155.276 37.7323 155.046 37.697 154.841 37.697C154.028 37.697 153.052 38.0602 152.525 38.4939C151.947 38.963 151.589 39.7347 151.589 40.5366C151.589 41.2478 151.794 41.8933 152.167 42.3372C152.515 42.7659 153.026 43.008 153.568 43.008C154.003 43.008 154.79 42.665 155.368 42.2615C155.394 42.2615 155.435 42.2716 155.435 42.312C155.435 42.4986 155.445 42.8315 155.46 42.9323C155.47 43.0181 155.511 43.0988 155.547 43.0988C155.869 43.0836 156.887 42.7659 157.219 42.6146C157.26 42.5641 157.296 42.3372 157.286 42.2716V42.2716ZM154.12 38.2417C154.535 38.2417 154.903 38.3275 155.174 38.5292C155.394 38.6856 155.445 38.847 155.46 39.1143C155.47 39.6842 155.46 41.3083 155.435 41.6109C155.435 41.7017 155.394 41.8177 155.327 41.8782C155.061 42.0951 154.714 42.2212 154.325 42.2212C153.348 42.2212 152.602 41.51 152.602 40.1432C152.602 39.4825 152.796 38.9378 153.159 38.6099C153.415 38.3527 153.762 38.2417 154.12 38.2417V38.2417ZM157.592 38.3023C157.823 38.3426 158.068 38.3779 158.186 38.4183C158.339 38.4788 158.375 38.6351 158.39 38.847C158.426 39.3816 158.39 40.7131 158.39 41.3234C158.4 42.1707 158.661 43.0332 159.919 43.0332C160.318 43.0332 160.885 42.8415 161.617 42.2363C161.642 42.2111 161.693 42.2363 161.693 42.2615C161.693 42.4481 161.693 42.8315 161.709 42.9676C161.719 43.0181 161.76 43.0836 161.785 43.0836C162.041 43.0181 162.982 42.7558 163.457 42.5641C163.509 42.5137 163.524 42.2615 163.509 42.196C163.314 42.2111 163.161 42.2363 162.972 42.2212C162.762 42.2111 162.701 42.0951 162.685 41.7521L162.701 38.8873C162.711 38.4031 162.711 38.0097 162.736 37.7828C162.445 37.8584 161.371 37.9593 160.691 37.9593C160.64 37.9996 160.599 38.2266 160.625 38.3023C160.988 38.3527 161.269 38.3779 161.453 38.4435C161.642 38.4939 161.683 38.6604 161.693 38.8117C161.709 40.3298 161.709 41.3839 161.693 41.5605C161.683 41.6865 161.632 41.8026 161.555 41.8681C161.233 42.1354 160.885 42.2615 160.497 42.2615C159.842 42.2615 159.546 41.9286 159.443 41.5252C159.392 41.3234 159.377 40.9048 159.377 40.2289C159.377 38.736 159.418 38.0753 159.454 37.7576C159.137 37.8584 158.186 37.9492 157.669 37.9593C157.603 37.9996 157.577 38.2266 157.592 38.3023V38.3023ZM168.622 42.0295C168.648 41.9942 168.688 41.7672 168.688 41.6613C168.688 41.626 168.632 41.5857 168.622 41.5857C168.131 42.0295 167.604 42.196 167.154 42.196C166.566 42.196 166.091 42.0043 165.702 41.5352C165.38 41.157 165.227 40.5719 165.227 39.9768C165.227 39.1143 165.641 38.267 166.602 38.267C167.257 38.267 167.748 38.6705 168.019 38.9378C168.044 38.9479 168.121 38.9479 168.146 38.9378C168.264 38.8873 168.504 38.6099 168.581 38.4183C168.596 38.3678 168.607 38.2518 168.607 38.2165C168.555 38.0854 168.392 37.9744 168.223 37.8836C167.978 37.7828 167.681 37.697 167.17 37.697C166.771 37.697 166.075 37.8836 165.539 38.2165C164.674 38.7209 164.24 39.5228 164.24 40.4609C164.24 41.0914 164.419 41.7017 164.741 42.1607C165.165 42.7306 165.753 43.0332 166.577 43.0332C167.119 43.0332 167.993 42.7911 168.622 42.0295V42.0295ZM172.145 39.5834C172.145 39.6741 172.155 39.8103 172.13 39.9263C172.13 39.9667 172.079 40.0423 172.053 40.0524C171.567 40.2945 170.049 40.6476 169.624 40.8796C169.563 40.9653 169.394 41.3587 169.394 41.6008C169.394 42.0446 169.573 42.4381 169.829 42.7155C170.038 42.9071 170.294 43.0332 170.539 43.0332C170.872 43.0332 171.414 42.781 172.068 42.3725C172.079 42.3624 172.12 42.3725 172.12 42.3876C172.145 42.4885 172.171 42.6297 172.222 42.7054C172.314 42.892 172.518 43.0332 172.876 43.0332C173.173 43.0332 173.623 42.9172 173.93 42.5894C173.971 42.549 173.996 42.2615 173.981 42.2111C173.827 42.2615 173.74 42.2716 173.531 42.2716C173.147 42.2716 173.045 42.0295 173.045 41.7672C173.045 41.2578 173.096 40.2794 173.096 39.6237C173.096 39.1647 173.019 38.7209 172.8 38.3678C172.518 37.9492 172.094 37.697 171.526 37.697C171.204 37.697 170.396 38.0097 169.844 38.3931C169.767 38.4687 169.573 38.963 169.547 39.1395C169.532 39.2555 169.88 39.4421 169.921 39.3917C170.09 38.9882 170.32 38.5847 170.458 38.4788C170.524 38.4284 170.693 38.3527 170.974 38.3527C171.358 38.3527 171.731 38.5191 171.951 38.8369C172.104 39.0538 172.145 39.3312 172.145 39.5834V39.5834ZM172.13 40.4862C172.13 40.698 172.13 41.5252 172.104 41.7925C172.094 41.9286 172.053 42.0295 171.966 42.08C171.756 42.2212 171.475 42.2867 171.306 42.2867C170.754 42.2867 170.407 41.9186 170.407 41.4243C170.407 41.2831 170.483 41.041 170.539 41.0157C170.77 40.8543 171.593 40.5971 172.068 40.4357C172.094 40.4206 172.13 40.471 172.13 40.4862V40.4862ZM177.443 38.504C177.453 38.3174 177.519 37.9845 177.555 37.808C177.366 37.8332 176.604 37.8736 175.99 37.8736C175.965 37.8736 175.939 37.8231 175.939 37.7979C175.939 36.9102 175.975 36.3403 176.001 36.1234C175.965 36.1083 175.832 36.1083 175.77 36.1335C175.627 36.2999 175.152 36.6177 174.947 36.7186V37.7979C174.947 37.8332 174.906 37.8836 174.896 37.8836C174.794 37.9341 174.472 37.9996 174.293 38.0249C174.242 38.0854 174.165 38.3678 174.175 38.4435L174.871 38.4939C174.922 38.504 174.947 38.5696 174.947 38.6099C174.947 39.1143 174.932 40.2542 174.932 40.9804C174.932 41.7925 174.947 42.1203 175.116 42.4229C175.331 42.8315 175.745 43.0332 176.246 43.0332C176.655 43.0332 177.197 42.8668 177.519 42.4734C177.545 42.4229 177.581 42.1203 177.555 42.08C177.299 42.2363 177.12 42.2968 176.757 42.2968C176.44 42.2968 176.118 42.1455 176.001 41.8026C175.949 41.6361 175.924 41.3991 175.924 40.8897C175.914 40.2693 175.914 39.1546 175.924 38.5595C175.924 38.5444 175.949 38.4939 175.975 38.4939C176.466 38.4939 177.12 38.504 177.443 38.504V38.504ZM179.907 35.8813C179.907 35.7653 179.856 35.6039 179.779 35.5131C179.754 35.4778 179.616 35.4123 179.406 35.4123C179.176 35.4123 178.905 35.5384 178.792 35.6392C178.726 35.7048 178.716 35.9318 178.726 36.0074C178.767 36.2596 178.869 36.4412 179.058 36.5269C179.135 36.5773 179.575 36.542 179.641 36.5017C179.805 36.3756 179.907 36.1234 179.907 35.8813V35.8813ZM180.679 42.549C180.383 42.5137 180.306 42.4885 180.142 42.4481C179.948 42.3876 179.871 42.2464 179.871 42.0194C179.856 41.4495 179.856 40.5971 179.856 39.9011C179.856 39.1294 179.871 38.2518 179.871 37.6819C179.37 37.8836 178.583 38.035 178.199 38.0501C178.148 38.0854 178.107 38.3023 178.148 38.3527C178.404 38.4435 178.624 38.5191 178.767 38.6604C178.844 38.7461 178.854 38.847 178.854 38.9226C178.854 39.1799 178.869 39.6338 178.869 40.1281C178.869 40.8291 178.869 41.6613 178.844 41.9791C178.818 42.2716 178.777 42.3725 178.608 42.4381C178.455 42.4885 178.276 42.5238 178.056 42.549C178.005 42.6045 178.005 42.8819 178.056 42.9172C178.276 42.9172 178.777 42.8819 179.319 42.8819C179.974 42.8819 180.383 42.9172 180.628 42.9172C180.679 42.8819 180.72 42.6146 180.679 42.549V42.549ZM184.202 37.697C183.599 37.697 182.98 37.9089 182.52 38.2014C181.866 38.6452 181.4 39.316 181.4 40.3197C181.4 41.626 182.08 43.0332 183.957 43.0332C184.499 43.0332 185.102 42.7911 185.45 42.5641C186.248 42.0699 186.647 41.2175 186.647 40.2441C186.647 38.8218 185.747 37.697 184.202 37.697V37.697ZM183.768 38.1913C184.857 38.1913 185.552 39.1799 185.552 40.6476C185.552 41.4243 185.409 41.9286 185.067 42.2464C184.847 42.4481 184.55 42.5137 184.279 42.5137C183.251 42.5137 182.495 41.4999 182.495 40.002C182.495 39.0386 182.817 38.5847 183.149 38.3678C183.318 38.2518 183.558 38.1913 183.768 38.1913V38.1913ZM187.495 42.549C187.444 42.6045 187.444 42.8668 187.495 42.9172C187.649 42.9172 188.109 42.8819 188.743 42.8819C189.449 42.8819 189.807 42.9172 190.001 42.9172C190.052 42.8567 190.067 42.6045 190.037 42.549C189.832 42.5238 189.643 42.4986 189.5 42.4481C189.321 42.3977 189.27 42.312 189.254 42.0194C189.229 41.4344 189.229 40.2037 189.229 39.306C189.229 39.0386 189.28 38.9226 189.357 38.847C189.653 38.5948 190.052 38.4435 190.425 38.4435C190.799 38.4435 191.044 38.5696 191.223 38.736C191.463 38.9378 191.555 39.2807 191.581 39.4825C191.648 39.9515 191.632 41.2326 191.622 41.9438C191.607 42.2716 191.571 42.3977 191.387 42.4633C191.31 42.4885 191.106 42.5238 190.86 42.549C190.809 42.6045 190.824 42.8668 190.86 42.9172C191.172 42.9071 191.545 42.8819 192.133 42.8819C192.803 42.8819 193.187 42.9172 193.371 42.9172C193.432 42.8567 193.447 42.6146 193.407 42.549C193.151 42.5137 192.972 42.4885 192.762 42.3876C192.675 42.3473 192.634 42.2464 192.634 42.1455C192.609 41.7017 192.609 40.5618 192.609 39.8507C192.609 39.2404 192.522 38.736 192.276 38.3527C191.995 37.9341 191.596 37.697 191.044 37.697C190.594 37.697 189.96 37.9744 189.295 38.5191C189.27 38.5292 189.229 38.5191 189.229 38.4939C189.229 38.277 189.244 37.9089 189.254 37.7727C189.254 37.7323 189.219 37.697 189.203 37.6819C188.881 37.8584 188.135 38.1005 187.623 38.151C187.572 38.1913 187.531 38.3678 187.557 38.4435C188.032 38.62 188.186 38.7461 188.227 38.9226C188.237 39.1143 188.252 39.4421 188.252 39.9414C188.252 40.7383 188.252 41.626 188.227 42.0194C188.211 42.2363 188.135 42.4128 187.956 42.4633C187.802 42.4986 187.674 42.5238 187.495 42.549Z" fill="#393185"/>
<path d="M10.5775 50.7046C10.5775 52.6766 11.815 53.9527 12.3058 54.1645C12.3416 54.1645 12.449 54.0334 12.4439 53.988C11.5695 53.2214 11.1042 51.9806 11.1042 50.5886C11.1042 48.9645 11.7178 48.0113 12.5155 47.2951C12.5308 47.2497 12.4286 47.1286 12.3928 47.1186C11.4008 47.8045 10.5775 49.0351 10.5775 50.7046V50.7046ZM13.0217 48.3442C13.1905 48.3694 13.3183 48.3896 13.4154 48.4097C13.5995 48.4551 13.666 48.5207 13.6813 48.7779C13.7018 49.0402 13.7018 49.8926 13.7018 50.3314C13.7018 50.982 13.7018 51.5822 13.6813 52.0411C13.6558 52.2933 13.5688 52.3539 13.4359 52.3892C13.3183 52.4245 13.17 52.4497 12.9552 52.4648C12.9246 52.485 12.9246 52.6363 12.9552 52.6766H13.3234C13.9677 52.6817 14.5097 52.7019 14.9443 52.7019C15.7011 52.7019 16.2534 52.5304 16.7136 52.2076C17.1789 51.8949 17.6595 51.3098 17.6595 50.3011C17.6595 49.6252 17.4294 49.0553 16.959 48.6468C16.5653 48.3089 16.0182 48.1323 15.3739 48.1323C14.6887 48.1323 14.3819 48.1626 13.937 48.1626C13.7222 48.1626 13.2007 48.1424 13.0422 48.1424C13.0217 48.1626 13.0064 48.3189 13.0217 48.3442V48.3442ZM14.3512 51.9604C14.3359 51.7991 14.3359 50.9719 14.3359 50.3364C14.3359 49.7261 14.3307 48.7275 14.3461 48.5661C14.3512 48.5005 14.3972 48.4501 14.4279 48.4349C14.4995 48.4047 14.658 48.3996 14.8063 48.3996C15.3381 48.3996 15.7829 48.4753 16.1153 48.6972C16.6931 49.0755 16.959 49.6908 16.959 50.4272C16.959 51.2241 16.7289 51.7032 16.3812 52.026C16.0386 52.3387 15.6653 52.4093 15.3023 52.4093C14.975 52.4093 14.658 52.369 14.4995 52.253C14.3972 52.1874 14.3614 52.0563 14.3512 51.9604V51.9604ZM20.8452 51.9504C20.5691 52.1723 20.2929 52.258 19.9964 52.258C19.664 52.258 19.4134 52.1622 19.1936 51.9352C19.0146 51.7486 18.9021 51.441 18.8868 51.1938C18.8868 51.1585 18.9021 51.1182 18.9328 51.1131C19.5566 51.098 20.5588 51.0375 20.8708 50.9517C20.8963 50.9366 20.9372 50.8155 20.9321 50.7853C20.8554 50.7601 20.8298 50.7348 20.8196 50.7046C20.7634 50.296 20.5026 49.6656 19.7867 49.6656C19.5464 49.6656 19.214 49.7614 18.9839 49.9077C18.6055 50.1548 18.3345 50.5886 18.3345 51.2291C18.3345 51.6477 18.4521 52.0916 18.7538 52.3892C18.9788 52.6161 19.2754 52.7422 19.6589 52.7422C19.9964 52.7422 20.5077 52.5556 20.835 52.1925C20.8503 52.1723 20.881 52.0462 20.8708 51.9958C20.8656 51.9756 20.8503 51.9604 20.8452 51.9504V51.9504ZM19.5566 49.943C19.9555 49.943 20.2009 50.3616 20.2367 50.7248C20.2367 50.755 20.2111 50.7752 20.2009 50.7903C20.0526 50.8206 19.1782 50.8508 18.943 50.8357C18.9174 50.8357 18.9021 50.8004 18.9021 50.7853C18.943 50.2658 19.1987 49.943 19.5566 49.943V49.943ZM23.9081 51.9504C23.632 52.1723 23.3559 52.258 23.0644 52.258C22.732 52.258 22.4764 52.1622 22.2565 51.9352C22.0775 51.7486 21.965 51.441 21.9548 51.1938C21.9548 51.1585 21.965 51.1182 21.9957 51.1131C22.6195 51.098 23.6269 51.0375 23.9337 50.9517C23.9592 50.9366 24.0001 50.8155 23.995 50.7853C23.9183 50.7601 23.8928 50.7348 23.8825 50.7046C23.8263 50.296 23.5655 49.6656 22.8496 49.6656C22.6093 49.6656 22.2769 49.7614 22.0468 49.9077C21.6736 50.1548 21.3974 50.5886 21.3974 51.2291C21.3974 51.6477 21.515 52.0916 21.8167 52.3892C22.0417 52.6161 22.3383 52.7422 22.7218 52.7422C23.0644 52.7422 23.5706 52.5556 23.8979 52.1925C23.9132 52.1723 23.9439 52.0462 23.9337 51.9958C23.9286 51.9756 23.9132 51.9604 23.9081 51.9504V51.9504ZM22.6195 49.943C23.0184 49.943 23.2638 50.3616 23.2996 50.7248C23.2996 50.755 23.2792 50.7752 23.2638 50.7903C23.1155 50.8206 22.2411 50.8508 22.0059 50.8357C21.9804 50.8357 21.965 50.8004 21.965 50.7853C22.0059 50.2658 22.2616 49.943 22.6195 49.943V49.943ZM24.3121 52.4648C24.2763 52.485 24.2763 52.6464 24.3121 52.6766C24.4961 52.6766 24.6547 52.6514 25.0382 52.6514C25.3399 52.6514 25.5955 52.6766 25.7643 52.6766C25.7949 52.6464 25.8103 52.49 25.7796 52.4648C25.662 52.4396 25.5546 52.4245 25.4984 52.4093C25.3705 52.3841 25.3399 52.2933 25.3399 52.2025C25.3245 51.8545 25.3347 50.9668 25.3347 50.4927C25.3347 50.4171 25.3808 50.3616 25.4319 50.3162C25.6313 50.1649 25.8665 50.0893 26.0302 50.0893C26.4648 50.0893 26.608 50.407 26.6489 50.6289C26.6949 50.8508 26.6898 51.8142 26.6642 52.1572C26.6591 52.3185 26.6284 52.374 26.5313 52.4043C26.4443 52.4345 26.3625 52.4396 26.2347 52.4648C26.2091 52.49 26.2091 52.6514 26.2347 52.6766C26.3676 52.6766 26.7051 52.6514 26.925 52.6514C27.242 52.6514 27.467 52.6666 27.6716 52.6766C27.7022 52.6514 27.7227 52.49 27.692 52.4648C27.5488 52.4396 27.4721 52.4245 27.375 52.3992C27.3085 52.369 27.2574 52.3236 27.2574 52.2227C27.242 51.9151 27.2523 51.3401 27.2523 50.9467C27.2523 50.7248 27.242 50.5583 27.2216 50.4171C27.2216 50.407 27.2216 50.3767 27.2369 50.3667C27.4568 50.1851 27.692 50.1044 27.8863 50.1044C28.3465 50.1044 28.5101 50.4272 28.5459 50.6693C28.592 50.8862 28.5766 51.6477 28.5664 52.0411C28.5613 52.2732 28.5459 52.3589 28.4334 52.3992C28.3516 52.4245 28.2852 52.4396 28.1522 52.4648C28.1215 52.485 28.1318 52.6514 28.1522 52.6766C28.3363 52.6615 28.5306 52.6514 28.8988 52.6514C29.2056 52.6514 29.4459 52.6766 29.584 52.6766C29.6095 52.6615 29.6351 52.49 29.6198 52.4648C29.4254 52.4345 29.3129 52.4194 29.226 52.369C29.1749 52.3387 29.1544 52.2681 29.1544 52.2126C29.1544 51.9151 29.1544 51.2392 29.1442 50.8408C29.1442 50.0893 28.7965 49.6656 28.2289 49.6656C27.9477 49.6656 27.5693 49.8572 27.1858 50.1548C27.1704 50.1649 27.1449 50.17 27.1346 50.1498C26.9864 49.8724 26.7256 49.6656 26.3779 49.6656C26.158 49.6656 25.7949 49.8068 25.3705 50.1346C25.3552 50.1498 25.3245 50.1347 25.3245 50.1195C25.3245 50.0086 25.3347 49.7463 25.3347 49.6959L25.3143 49.6605C25.1097 49.7715 24.7262 49.8926 24.3888 49.9279C24.3581 49.943 24.3376 50.0741 24.3581 50.1044C24.4961 50.1498 24.624 50.1952 24.7058 50.2658C24.7723 50.3263 24.7723 50.4272 24.7723 50.4726C24.7723 50.9618 24.7723 51.7184 24.7518 52.1218C24.7416 52.2782 24.7211 52.369 24.5933 52.4043C24.5217 52.4245 24.445 52.4396 24.3121 52.4648V52.4648ZM32.5497 51.9504C32.2736 52.1723 32.0026 52.258 31.706 52.258C31.3736 52.258 31.1231 52.1622 30.8981 51.9352C30.7191 51.7486 30.6117 51.441 30.5964 51.1938C30.5964 51.1585 30.6117 51.1182 30.6373 51.1131C31.2611 51.098 32.2685 51.0375 32.5804 50.9517C32.6009 50.9366 32.6469 50.8155 32.6366 50.7853C32.5651 50.7601 32.5344 50.7348 32.5293 50.7046C32.4679 50.296 32.2071 49.6656 31.4912 49.6656C31.256 49.6656 30.9186 49.7614 30.6936 49.9077C30.3152 50.1548 30.039 50.5886 30.039 51.2291C30.039 51.6477 30.1567 52.0916 30.4635 52.3892C30.6833 52.6161 30.9799 52.7422 31.3634 52.7422C31.706 52.7422 32.2174 52.5556 32.5395 52.1925C32.5548 52.1723 32.5855 52.0462 32.5804 51.9958C32.5702 51.9756 32.5548 51.9604 32.5497 51.9504V51.9504ZM31.2611 49.943C31.66 49.943 31.9054 50.3616 31.9412 50.7248C31.9412 50.755 31.9208 50.7752 31.9054 50.7903C31.7571 50.8206 30.8828 50.8508 30.6475 50.8357C30.6271 50.8357 30.6117 50.8004 30.6117 50.7853C30.6475 50.2658 30.9083 49.943 31.2611 49.943ZM36.3796 52.3034C36.2569 52.3085 36.1291 52.3185 36.0422 52.3034C35.9655 52.2883 35.9092 52.2732 35.899 52.0563C35.8939 51.8949 35.8939 51.2947 35.8939 50.4474C35.8939 49.3176 35.9092 48.7476 35.9246 48.3542C35.9297 48.0264 35.9399 47.9154 36.0064 47.8045C36.0115 47.7843 35.9808 47.7137 35.9655 47.7036C35.7354 47.7843 35.2496 47.8953 34.7689 47.8953C34.7229 47.9154 34.7178 48.0466 34.7382 48.092C34.8814 48.1071 35.0706 48.1323 35.1678 48.1626C35.2803 48.1979 35.3109 48.2584 35.3212 48.3996C35.3365 48.5812 35.3365 48.8132 35.3365 49.6656C35.3365 49.6807 35.3161 49.6959 35.3109 49.6959C35.2291 49.6908 35.0962 49.6656 34.9735 49.6656C34.5081 49.6656 33.9457 49.8774 33.644 50.1296C33.3116 50.3969 33.102 50.8408 33.102 51.3048C33.102 51.7133 33.2247 52.0815 33.4343 52.3387C33.6389 52.5859 33.9303 52.7271 34.2423 52.7271C34.4928 52.7271 34.9479 52.5304 35.2803 52.2933C35.2956 52.2933 35.3161 52.3034 35.3161 52.3236C35.3161 52.4345 35.3212 52.6212 35.3314 52.6817C35.3365 52.7321 35.3621 52.7775 35.3825 52.7775C35.5666 52.7674 36.1547 52.5859 36.3439 52.5001C36.3694 52.4699 36.3899 52.3387 36.3796 52.3034V52.3034ZM34.5593 49.9833C34.7996 49.9833 35.0144 50.0338 35.1678 50.1498C35.2956 50.2355 35.3212 50.3314 35.3314 50.4827C35.3365 50.8155 35.3314 51.7486 35.3161 51.9251C35.3161 51.9756 35.2956 52.0411 35.2547 52.0765C35.1013 52.2025 34.9019 52.2732 34.682 52.2732C34.1195 52.2732 33.69 51.8646 33.69 51.0778C33.69 50.6945 33.7974 50.3818 34.007 50.1952C34.1553 50.0489 34.3547 49.9833 34.5593 49.9833V49.9833ZM36.8041 50.9467C36.7683 50.9467 36.7171 51.214 36.7069 51.3098L36.7171 51.3754C36.8705 51.3804 38.0926 51.3552 38.1591 51.3249C38.1949 51.3098 38.2614 51.0627 38.2665 50.982V50.9063C38.0517 50.9164 37.1518 50.9467 36.8041 50.9467V50.9467ZM40.5573 50.1346C40.5624 50.0237 40.5982 49.8371 40.6238 49.7312C40.5113 49.7463 40.0715 49.7715 39.7187 49.7715C39.7033 49.7715 39.688 49.7412 39.688 49.7261C39.688 49.2167 39.7136 48.8889 39.7238 48.7628C39.7033 48.7527 39.6318 48.7527 39.5908 48.7678C39.5141 48.8637 39.238 49.0452 39.1204 49.1057V49.7261C39.1204 49.7463 39.0949 49.7766 39.0897 49.7766C39.0284 49.8068 38.8443 49.8421 38.742 49.8572C38.7113 49.8926 38.6704 50.054 38.6756 50.0993L39.0744 50.1296C39.1051 50.1347 39.1204 50.17 39.1204 50.1952C39.1204 50.4827 39.1102 51.1434 39.1102 51.557C39.1102 52.026 39.1204 52.2126 39.2176 52.3892C39.3403 52.6212 39.5806 52.7422 39.867 52.7422C40.1022 52.7422 40.4141 52.6464 40.5982 52.4194C40.6135 52.3892 40.634 52.2126 40.6238 52.1925C40.4755 52.2782 40.3681 52.3185 40.1635 52.3185C39.9795 52.3185 39.7954 52.2278 39.7238 52.0311C39.6982 51.9352 39.6829 51.7991 39.6829 51.5065C39.6727 51.1484 39.6727 50.5079 39.6829 50.1649C39.6829 50.1548 39.6982 50.1296 39.7136 50.1296C39.9948 50.1296 40.3681 50.1346 40.5573 50.1346ZM42.5464 49.6656C42.1987 49.6656 41.8407 49.7917 41.5748 49.9581C41.1965 50.2153 40.9306 50.6037 40.9306 51.1787C40.9306 51.9302 41.3243 52.7422 42.4032 52.7422C42.7151 52.7422 43.0628 52.601 43.2623 52.4699C43.7225 52.1874 43.9526 51.6982 43.9526 51.1333C43.9526 50.3162 43.431 49.6656 42.5464 49.6656V49.6656ZM42.2958 49.9531C42.9248 49.9531 43.3236 50.523 43.3236 51.3703C43.3236 51.8142 43.2418 52.1067 43.0424 52.2883C42.9145 52.4043 42.7458 52.4396 42.5924 52.4396C41.9993 52.4396 41.5595 51.8545 41.5595 50.9971C41.5595 50.4423 41.7487 50.18 41.9379 50.054C42.035 49.9884 42.1731 49.9531 42.2958 49.9531ZM44.6991 50.9467C44.6633 50.9467 44.6122 51.214 44.602 51.3098L44.6122 51.3754C44.7656 51.3804 45.9877 51.3552 46.0542 51.3249C46.09 51.3098 46.1564 51.0627 46.1615 50.982V50.9063C45.9519 50.9164 45.0468 50.9467 44.6991 50.9467V50.9467ZM48.5597 49.6656C48.3245 49.6656 47.9103 49.8371 47.5626 50.0388C47.5473 50.0489 47.5166 50.0388 47.5166 50.0237V49.2318C47.5166 48.0012 47.5473 47.8852 47.6086 47.7994C47.6138 47.7793 47.5831 47.7036 47.5626 47.7036C47.3121 47.7894 46.7803 47.9003 46.4019 47.9255C46.3661 47.9508 46.3559 48.0768 46.3865 48.1122C46.5348 48.1273 46.6729 48.1475 46.7547 48.1777C46.8723 48.213 46.903 48.2584 46.9132 48.3845C46.9388 48.6871 46.949 49.9379 46.949 50.8256C46.949 51.8697 46.9388 52.2328 46.9183 52.6111C46.9183 52.6212 46.9541 52.6514 46.9695 52.6514C47.1331 52.6111 47.2302 52.6212 47.3121 52.6464C47.5115 52.6968 47.7262 52.7422 47.9717 52.7422C48.2631 52.7422 48.754 52.5707 49.066 52.3387C49.4546 52.0613 49.7256 51.6074 49.7256 50.9719C49.7256 50.7197 49.6489 50.3263 49.3983 50.0489C49.2142 49.827 48.933 49.6656 48.5597 49.6656V49.6656ZM48.1609 50.0842C48.4268 50.0842 48.6722 50.1649 48.8819 50.4272C49.0148 50.6188 49.1171 50.8811 49.1171 51.2896C49.1171 51.6225 49.0148 51.9655 48.8512 52.1471C48.6876 52.3387 48.5035 52.4043 48.2734 52.4043C48.074 52.4043 47.8439 52.3589 47.6649 52.2126C47.5984 52.1471 47.5473 52.0916 47.5422 51.8142C47.5166 51.5116 47.5166 50.5129 47.5319 50.3515C47.5473 50.296 47.578 50.2658 47.6086 50.2456C47.716 50.17 47.9717 50.0842 48.1609 50.0842V50.0842ZM52.855 51.9504C52.5788 52.1723 52.3078 52.258 52.0113 52.258C51.6789 52.258 51.4232 52.1622 51.2033 51.9352C51.0244 51.7486 50.9119 51.441 50.9017 51.1938C50.9017 51.1585 50.9119 51.1182 50.9426 51.1131C51.5664 51.098 52.5737 51.0375 52.8805 50.9517C52.9061 50.9366 52.947 50.8155 52.9419 50.7853C52.8703 50.7601 52.8396 50.7348 52.8294 50.7046C52.7732 50.296 52.5124 49.6656 51.7965 49.6656C51.5562 49.6656 51.2238 49.7614 50.9937 49.9077C50.6204 50.1548 50.3443 50.5886 50.3443 51.2291C50.3443 51.6477 50.4619 52.0916 50.7687 52.3892C50.9886 52.6161 51.2852 52.7422 51.6687 52.7422C52.0113 52.7422 52.5226 52.5556 52.8447 52.1925C52.8601 52.1723 52.8908 52.0462 52.8805 51.9958C52.8754 51.9756 52.8601 51.9604 52.855 51.9504V51.9504ZM51.5664 49.943C51.9652 49.943 52.2107 50.3616 52.2465 50.7248C52.2465 50.755 52.226 50.7752 52.2107 50.7903C52.0624 50.8206 51.188 50.8508 50.9528 50.8357C50.9272 50.8357 50.9119 50.8004 50.9119 50.7853C50.9528 50.2658 51.2085 49.943 51.5664 49.943V49.943ZM55.3554 48.3442C55.4884 48.3694 55.6571 48.3896 55.7389 48.4198C55.8923 48.4702 55.9383 48.5863 55.9486 48.7779C55.9588 49.1511 55.9486 51.0022 56.0048 51.4611C56.102 52.258 56.6184 52.7826 57.7894 52.7826C58.5666 52.7826 59.3643 52.485 59.5791 51.5015C59.7069 50.987 59.6813 50.4574 59.7274 48.9595C59.7325 48.6115 59.7785 48.4753 59.9932 48.4198C60.0751 48.3896 60.1927 48.3744 60.3052 48.3442C60.3358 48.3341 60.3256 48.1626 60.3052 48.1424C60.1773 48.1424 59.845 48.1626 59.5126 48.1626C59.0831 48.1626 58.7558 48.1424 58.6229 48.1424C58.5973 48.1626 58.5871 48.3189 58.6177 48.3442C58.7814 48.3744 58.8888 48.3845 58.9961 48.4097C59.2365 48.4551 59.3183 48.5509 59.3285 48.9141C59.3592 49.6605 59.3439 50.4776 59.3132 51.0324C59.2467 52.1874 58.6484 52.369 58.0348 52.369C57.3292 52.369 56.8997 52.0411 56.7514 51.6326C56.6695 51.4712 56.6286 51.1938 56.6133 50.8862C56.598 50.4978 56.5877 49.5143 56.6031 48.7981C56.6133 48.5459 56.6542 48.4652 56.8281 48.4097C56.915 48.3845 57.0173 48.3744 57.1758 48.3442C57.2013 48.324 57.2013 48.1626 57.1758 48.1424C56.9917 48.1424 56.6491 48.1626 56.3014 48.1626C55.9537 48.1626 55.4935 48.1424 55.3605 48.1424C55.3298 48.1626 55.3247 48.324 55.3554 48.3442ZM60.3358 52.4648C60.3052 52.49 60.3052 52.6464 60.3358 52.6766C60.4228 52.6766 60.6887 52.6514 61.0517 52.6514C61.4608 52.6514 61.6653 52.6766 61.7778 52.6766C61.8085 52.6363 61.8136 52.49 61.7983 52.4648C61.6807 52.4497 61.5682 52.4345 61.4864 52.4043C61.3841 52.374 61.3534 52.3236 61.3483 52.1572C61.333 51.8192 61.333 51.1131 61.333 50.5936C61.333 50.4423 61.3636 50.3767 61.4045 50.3314C61.5784 50.1851 61.8085 50.0993 62.0233 50.0993C62.238 50.0993 62.3761 50.17 62.4784 50.2658C62.6215 50.3818 62.6727 50.5785 62.688 50.6945C62.7238 50.9669 62.7187 51.7032 62.7085 52.1118C62.7033 52.3034 62.6778 52.374 62.5755 52.4093C62.5295 52.4245 62.4119 52.4497 62.2738 52.4648C62.2431 52.49 62.2483 52.6464 62.2738 52.6766C62.4528 52.6666 62.6624 52.6514 63.005 52.6514C63.3885 52.6514 63.6135 52.6766 63.7158 52.6766C63.7516 52.6363 63.7618 52.5001 63.7362 52.4648C63.588 52.4396 63.4857 52.4245 63.3681 52.369C63.3169 52.3438 63.2914 52.2883 63.2914 52.2278C63.2812 51.9756 63.2812 51.3149 63.2812 50.9063C63.2812 50.5583 63.2249 50.2658 63.0868 50.0489C62.9232 49.8068 62.6931 49.6656 62.3761 49.6656C62.1153 49.6656 61.7523 49.827 61.3687 50.1397C61.3534 50.1498 61.333 50.1397 61.333 50.1296C61.333 50.0035 61.3381 49.7917 61.3483 49.711C61.3483 49.6908 61.3278 49.6656 61.3176 49.6605C61.1335 49.7614 60.704 49.9026 60.4074 49.9279C60.3768 49.9531 60.3563 50.054 60.3716 50.0993C60.6426 50.2002 60.7347 50.2759 60.7551 50.3767C60.7654 50.4827 60.7705 50.6743 60.7705 50.9618C60.7705 51.4208 60.7705 51.9302 60.7551 52.1572C60.75 52.2782 60.704 52.3841 60.6017 52.4093C60.5097 52.4346 60.4381 52.4497 60.3358 52.4648V52.4648ZM65.0708 48.6216C65.0708 48.556 65.0402 48.4652 64.9941 48.4097C64.9788 48.3896 64.897 48.3542 64.7794 48.3542C64.6464 48.3542 64.493 48.4249 64.4266 48.4854C64.3908 48.5207 64.3805 48.6518 64.3908 48.6972C64.4112 48.8435 64.4726 48.9444 64.58 48.9948C64.626 49.025 64.8765 49.0049 64.9123 48.9797C65.0095 48.909 65.0708 48.7628 65.0708 48.6216V48.6216ZM65.5157 52.4648C65.3418 52.4396 65.3009 52.4245 65.2038 52.4043C65.0913 52.369 65.0453 52.2883 65.0453 52.1572C65.0402 51.8293 65.0402 51.3401 65.0402 50.9366C65.0402 50.4927 65.0453 49.9884 65.0453 49.6605C64.7589 49.7766 64.3089 49.8623 64.084 49.8724C64.0584 49.8926 64.0328 50.0186 64.0584 50.0489C64.2016 50.0993 64.3294 50.1397 64.4112 50.2204C64.4572 50.2759 64.4623 50.3314 64.4623 50.3767C64.4623 50.523 64.4726 50.7853 64.4726 51.0677C64.4726 51.4712 64.4726 51.9504 64.4572 52.1319C64.4419 52.3034 64.4163 52.3589 64.3243 52.3992C64.2322 52.4245 64.13 52.4497 64.0021 52.4648C63.9766 52.49 63.9766 52.6514 64.0021 52.6766C64.13 52.6766 64.4163 52.6514 64.7282 52.6514C65.1066 52.6514 65.3418 52.6766 65.485 52.6766C65.5157 52.6514 65.5362 52.5001 65.5157 52.4648V52.4648ZM65.5566 49.9581C65.664 49.9733 65.756 49.9884 65.8481 50.0186C66.0219 50.0741 66.0475 50.1347 66.2111 50.5281C66.3492 50.871 66.5997 51.5065 66.8094 52.0563C66.8963 52.2933 66.9628 52.5001 67.0241 52.6968C67.0957 52.6817 67.2798 52.6817 67.3719 52.6867C67.423 52.5203 67.4895 52.3085 67.6173 51.9958C67.8883 51.325 68.1184 50.7701 68.3178 50.3364C68.3997 50.1548 68.4661 50.064 68.6042 50.0086C68.7013 49.9833 68.7832 49.9733 68.8752 49.9581C68.8956 49.9279 68.9008 49.7715 68.8752 49.7463C68.7832 49.7564 68.5275 49.7715 68.2667 49.7715C67.9752 49.7715 67.6838 49.7463 67.602 49.7463C67.5713 49.7614 67.5559 49.9228 67.5713 49.9581C67.7042 49.9733 67.8065 49.9884 67.9037 50.0237C67.9855 50.064 68.0366 50.1195 67.965 50.3515C67.8525 50.7046 67.5355 51.5065 67.377 51.8797C67.3719 51.8848 67.3463 51.8949 67.3412 51.8797C67.29 51.7637 66.7736 50.4121 66.6816 50.1296C66.6764 50.1044 66.6764 50.0388 66.7429 50.0186C66.8094 49.9934 66.9219 49.9733 67.0293 49.9581C67.0548 49.9228 67.0548 49.7715 67.0139 49.7463C66.8759 49.7564 66.61 49.7715 66.3032 49.7715C65.981 49.7715 65.7049 49.7463 65.5822 49.7463C65.5566 49.7715 65.5362 49.9178 65.5566 49.9581V49.9581ZM71.5086 51.9504C71.2325 52.1723 70.9615 52.258 70.6649 52.258C70.3325 52.258 70.0768 52.1622 69.857 51.9352C69.678 51.7486 69.5706 51.441 69.5553 51.1938C69.5553 51.1585 69.5706 51.1182 69.5962 51.1131C70.22 51.098 71.2274 51.0375 71.5393 50.9517C71.5597 50.9366 71.6057 50.8155 71.5955 50.7853C71.5239 50.7601 71.4932 50.7348 71.483 50.7046C71.4268 50.296 71.166 49.6656 70.4501 49.6656C70.2098 49.6656 69.8774 49.7614 69.6524 49.9077C69.274 50.1548 68.9979 50.5886 68.9979 51.2291C68.9979 51.6477 69.1155 52.0916 69.4223 52.3892C69.6422 52.6161 69.9388 52.7422 70.3223 52.7422C70.6649 52.7422 71.1762 52.5556 71.4984 52.1925C71.5137 52.1723 71.5444 52.0462 71.5393 51.9958C71.529 51.9756 71.5137 51.9604 71.5086 51.9504V51.9504ZM70.22 49.943C70.6189 49.943 70.8643 50.3616 70.9001 50.7248C70.9001 50.755 70.8796 50.7752 70.8643 50.7903C70.716 50.8206 69.8416 50.8508 69.6064 50.8357C69.5808 50.8357 69.5706 50.8004 69.5706 50.7853C69.6064 50.2658 69.8621 49.943 70.22 49.943V49.943ZM73.7994 49.6656C73.6613 49.6656 73.5437 49.7211 73.4261 49.8068C73.2523 49.9228 73.0989 50.0893 72.9557 50.2658C72.9403 50.2759 72.9199 50.2759 72.9199 50.2507C72.9199 50.1145 72.9301 49.7917 72.9352 49.6908C72.9352 49.6757 72.9148 49.6605 72.8994 49.6605C72.7 49.7766 72.2603 49.9026 71.9944 49.9279C71.9739 49.943 71.9586 50.054 71.9586 50.0893C72.2909 50.2053 72.3523 50.296 72.3676 50.3969C72.3727 50.4827 72.3728 50.7046 72.3728 50.9719C72.3728 51.4763 72.3676 52.0815 72.3523 52.2025C72.337 52.3337 72.2909 52.374 72.2193 52.4043C72.1375 52.4345 72.0199 52.4547 71.9279 52.4648C71.8972 52.49 71.9074 52.6464 71.9279 52.6766C72.0608 52.6666 72.4392 52.6514 72.6693 52.6514C72.9659 52.6514 73.4466 52.6766 73.5335 52.6766C73.5693 52.6464 73.5795 52.5001 73.5642 52.4648C73.4005 52.4497 73.2318 52.4245 73.0988 52.3892C72.9864 52.3539 72.9506 52.2782 72.9403 52.1572C72.9352 52.0109 72.9301 51.2594 72.9301 50.7601C72.9301 50.6693 72.9659 50.5583 72.9864 50.5129C73.0835 50.3616 73.2318 50.2053 73.3801 50.2053C73.5488 50.2053 73.7176 50.3162 73.8607 50.4322C73.8659 50.4322 73.9119 50.4121 73.917 50.407C73.9937 50.3162 74.1318 50.0338 74.1471 49.943C74.1573 49.9178 74.1573 49.8522 74.1471 49.827C74.0908 49.7261 73.9426 49.6656 73.7994 49.6656V49.6656ZM76.3816 49.7564C76.3254 49.7463 76.2078 49.7312 76.0851 49.711C75.9623 49.6908 75.7783 49.6656 75.6044 49.6656C74.8834 49.6656 74.5204 50.0741 74.5204 50.5281C74.5204 50.9164 74.7351 51.1787 75.3334 51.4712C75.7936 51.6881 75.9317 51.8293 75.9317 52.0916C75.9317 52.3387 75.7374 52.5001 75.4357 52.5001C75.3232 52.5001 75.1749 52.4699 75.0675 52.4093C74.8732 52.3034 74.7351 52.1118 74.6278 51.7335C74.592 51.7184 74.4386 51.7688 74.413 51.7991C74.4232 51.9655 74.4897 52.4345 74.5408 52.601C74.7096 52.6766 75.0419 52.7422 75.3181 52.7422C75.9828 52.7422 76.4788 52.369 76.4788 51.8444C76.4788 51.4914 76.3254 51.2443 75.7118 50.9669C75.1493 50.7046 75.0215 50.5583 75.0215 50.3112C75.0215 50.0489 75.2311 49.8875 75.4817 49.8875C75.63 49.8875 75.7476 49.9178 75.8447 49.9733C75.993 50.064 76.0493 50.2153 76.0953 50.5281C76.126 50.5482 76.2743 50.5432 76.2947 50.5129C76.3152 50.2153 76.3305 49.9733 76.3816 49.7564V49.7564ZM77.9463 48.6216C77.9463 48.556 77.9156 48.4652 77.8696 48.4097C77.8543 48.3896 77.7725 48.3542 77.6549 48.3542C77.5219 48.3542 77.3685 48.4249 77.302 48.4854C77.2662 48.5207 77.256 48.6518 77.2663 48.6972C77.2867 48.8435 77.3481 48.9444 77.4554 48.9948C77.5015 49.025 77.752 49.0049 77.7878 48.9797C77.885 48.909 77.9463 48.7628 77.9463 48.6216V48.6216ZM78.3912 52.4648C78.2173 52.4396 78.1764 52.4245 78.0793 52.4043C77.9668 52.369 77.9208 52.2883 77.9208 52.1572C77.9157 51.8293 77.9157 51.3401 77.9157 50.9366C77.9157 50.4927 77.9208 49.9884 77.9208 49.6605C77.6344 49.7766 77.1844 49.8623 76.9594 49.8724C76.9288 49.8926 76.9083 50.0186 76.9288 50.0489C77.0771 50.0993 77.2049 50.1397 77.2867 50.2204C77.3327 50.2759 77.3378 50.3314 77.3378 50.3767C77.3378 50.523 77.3481 50.7853 77.3481 51.0677C77.3481 51.4712 77.3481 51.9504 77.3327 52.1319C77.3174 52.3034 77.2918 52.3589 77.1998 52.3992C77.1077 52.4245 77.0055 52.4497 76.8776 52.4648C76.8521 52.49 76.8521 52.6514 76.8776 52.6766C77.0055 52.6766 77.2918 52.6514 77.6037 52.6514C77.9821 52.6514 78.2173 52.6766 78.3605 52.6766C78.3912 52.6514 78.4117 52.5001 78.3912 52.4648V52.4648ZM80.4979 50.1346C80.503 50.0237 80.5439 49.8371 80.5644 49.7312C80.4519 49.7463 80.0173 49.7715 79.6593 49.7715C79.6491 49.7715 79.6337 49.7412 79.6337 49.7261C79.6337 49.2167 79.6542 48.8889 79.6695 48.7628C79.6491 48.7527 79.5724 48.7527 79.5366 48.7678C79.4548 48.8637 79.1787 49.0452 79.061 49.1057V49.7261C79.061 49.7463 79.0406 49.7766 79.0304 49.7766C78.9741 49.8068 78.79 49.8421 78.6827 49.8572C78.6571 49.8926 78.6111 50.054 78.6162 50.0993L79.0201 50.1296C79.0457 50.1347 79.061 50.17 79.061 50.1952C79.061 50.4827 79.0559 51.1434 79.0559 51.557C79.0559 52.026 79.061 52.2126 79.1582 52.3892C79.286 52.6212 79.5213 52.7422 79.8076 52.7422C80.0479 52.7422 80.3599 52.6464 80.5439 52.4194C80.5593 52.3892 80.5797 52.2126 80.5644 52.1925C80.4161 52.2782 80.3138 52.3185 80.1042 52.3185C79.9201 52.3185 79.736 52.2278 79.6695 52.0311C79.6389 51.9352 79.6235 51.7991 79.6235 51.5065C79.6184 51.1484 79.6184 50.5079 79.6235 50.1649C79.6235 50.1548 79.6389 50.1296 79.6542 50.1296C79.9354 50.1296 80.3138 50.1346 80.4979 50.1346V50.1346Z" fill="#2B2A29"/>
<path d="M80.7127 49.9581C80.8303 49.9733 80.8916 49.9884 80.9632 50.0035C81.1729 50.064 81.2547 50.1952 81.4439 50.6693C81.674 51.2089 81.991 52.0159 82.1546 52.4345C82.17 52.4648 82.216 52.5556 82.216 52.5657C81.9399 53.1407 81.3723 53.8619 81.1269 54.1645C81.1217 54.1796 81.1269 54.2603 81.132 54.2805C81.1984 54.3461 81.4132 54.457 81.5206 54.4772L81.5717 54.447C81.6228 54.3461 81.7098 54.1948 81.8018 54.0384C82.4308 52.9591 83.0188 51.7032 83.5455 50.3465C83.612 50.1548 83.704 50.0539 83.8369 50.0186C83.9085 49.9884 83.9903 49.9733 84.1028 49.9581C84.1233 49.9178 84.1233 49.7765 84.0926 49.7463C83.8881 49.7564 83.6733 49.7715 83.4074 49.7715C83.1466 49.7715 82.8603 49.7463 82.7682 49.7463C82.7376 49.7765 82.7171 49.9178 82.7376 49.9581C82.8705 49.9733 82.9932 49.9934 83.0648 50.0186C83.208 50.064 83.208 50.1498 83.1927 50.2305C83.1415 50.5936 82.8143 51.4107 82.5842 51.8949C82.579 51.8999 82.5637 51.8949 82.5535 51.8949C82.5024 51.799 82.0166 50.5583 81.8887 50.1397C81.8836 50.1145 81.8887 50.0388 81.9501 50.0186C82.0012 49.9934 82.1086 49.9833 82.2211 49.9581C82.2416 49.9228 82.2365 49.7715 82.2058 49.7463C82.0984 49.7463 81.7711 49.7715 81.4541 49.7715C81.132 49.7715 80.8661 49.7463 80.7331 49.7463C80.7076 49.7614 80.6922 49.9178 80.7127 49.9581V49.9581ZM85.4528 50.0186C85.5908 50.0388 85.7289 50.064 85.7954 50.0842C85.8823 50.1195 85.9079 50.2053 85.913 50.3313C85.9385 50.639 85.913 51.4056 85.913 51.7537C85.9232 52.2429 86.0715 52.7422 86.7925 52.7422C87.0226 52.7422 87.3498 52.6312 87.7743 52.2782C87.7896 52.2681 87.8152 52.2782 87.8152 52.2933C87.8152 52.4043 87.8152 52.6212 87.8254 52.7019C87.8305 52.7321 87.8561 52.7674 87.8714 52.7674C88.0146 52.7321 88.5566 52.5808 88.8327 52.4699C88.8634 52.4396 88.8685 52.2933 88.8634 52.258C88.7509 52.2681 88.664 52.2782 88.5515 52.2732C88.4339 52.2681 88.3981 52.2025 88.3879 52.0008L88.3981 50.3515C88.4032 50.0741 88.4032 49.8522 88.4185 49.7211C88.2498 49.7614 87.6311 49.8219 87.2373 49.8219C87.2067 49.8421 87.1862 49.9733 87.2015 50.0186C87.4112 50.0489 87.5748 50.064 87.6771 50.0993C87.7896 50.1296 87.81 50.2204 87.8152 50.3112C87.8254 51.1837 87.8254 51.789 87.8152 51.8949C87.81 51.9655 87.7794 52.0311 87.7333 52.0664C87.5493 52.2227 87.3498 52.2933 87.13 52.2933C86.7516 52.2933 86.5777 52.1067 86.5215 51.8697C86.4908 51.7537 86.4857 51.5116 86.4857 51.1282C86.4857 50.2658 86.5061 49.8875 86.5266 49.7059C86.3425 49.7614 85.7954 49.8119 85.4988 49.8219C85.463 49.8421 85.4477 49.9733 85.4528 50.0186V50.0186ZM89.1497 52.4648C89.1191 52.49 89.1191 52.6464 89.1497 52.6766C89.2367 52.6766 89.5026 52.6514 89.8656 52.6514C90.2747 52.6514 90.4792 52.6766 90.5917 52.6766C90.6224 52.6363 90.6275 52.49 90.6122 52.4648C90.4946 52.4497 90.3821 52.4345 90.3003 52.4043C90.198 52.374 90.1673 52.3236 90.1622 52.1571C90.1469 51.8192 90.1469 51.1131 90.1469 50.5936C90.1469 50.4423 90.1775 50.3767 90.2184 50.3313C90.3923 50.1851 90.6224 50.0993 90.8372 50.0993C91.0519 50.0993 91.19 50.17 91.2923 50.2658C91.4354 50.3818 91.4866 50.5785 91.5019 50.6945C91.5377 50.9668 91.5326 51.7032 91.5224 52.1118C91.5172 52.3034 91.4917 52.374 91.3894 52.4093C91.3434 52.4245 91.2258 52.4497 91.0877 52.4648C91.057 52.49 91.0622 52.6464 91.0877 52.6766C91.2667 52.6666 91.4763 52.6514 91.8189 52.6514C92.2024 52.6514 92.4274 52.6766 92.5297 52.6766C92.5655 52.6363 92.5757 52.5001 92.5501 52.4648C92.4019 52.4396 92.2996 52.4245 92.182 52.369C92.1309 52.3438 92.1053 52.2883 92.1053 52.2278C92.0951 51.9756 92.0951 51.3149 92.0951 50.9063C92.0951 50.5583 92.0388 50.2658 91.9007 50.0489C91.7371 49.8068 91.507 49.6656 91.19 49.6656C90.9292 49.6656 90.5662 49.827 90.1827 50.1397C90.1673 50.1498 90.1469 50.1397 90.1469 50.1296C90.1469 50.0035 90.152 49.7917 90.1622 49.711C90.1622 49.6908 90.1417 49.6656 90.1315 49.6605C89.9474 49.7614 89.5179 49.9026 89.2213 49.9279C89.1907 49.9531 89.1702 50.0539 89.1855 50.0993C89.4566 50.2002 89.5486 50.2759 89.569 50.3767C89.5793 50.4827 89.5844 50.6743 89.5844 50.9618C89.5844 51.4208 89.5844 51.9302 89.569 52.1571C89.5639 52.2782 89.5179 52.3841 89.4156 52.4093C89.3236 52.4345 89.252 52.4497 89.1497 52.4648V52.4648ZM96.2574 52.3034C96.1346 52.3085 96.0068 52.3185 95.9199 52.3034C95.8432 52.2883 95.7869 52.2732 95.7767 52.0563C95.7716 51.8949 95.7716 51.2947 95.7716 50.4474C95.7716 49.3176 95.7869 48.7476 95.8023 48.3542C95.8074 48.0264 95.8125 47.9154 95.879 47.8045C95.8892 47.7843 95.8585 47.7137 95.8432 47.7036C95.6131 47.7843 95.1273 47.8953 94.6466 47.8953C94.6006 47.9154 94.5955 48.0466 94.616 48.092C94.7591 48.1071 94.9483 48.1323 95.0455 48.1626C95.158 48.1979 95.1835 48.2584 95.1989 48.3996C95.2142 48.5812 95.2142 48.8132 95.2142 49.6656C95.2142 49.6807 95.1938 49.6959 95.1835 49.6959C95.1068 49.6908 94.9688 49.6656 94.8512 49.6656C94.3859 49.6656 93.8234 49.8774 93.5217 50.1296C93.1893 50.3969 92.9797 50.8408 92.9797 51.3048C92.9797 51.7133 93.0973 52.0815 93.312 52.3387C93.5115 52.5859 93.808 52.7271 94.12 52.7271C94.3705 52.7271 94.8256 52.5304 95.158 52.2933C95.1733 52.2933 95.1938 52.3034 95.1938 52.3236C95.1938 52.4345 95.1989 52.6212 95.2091 52.6817C95.2142 52.7321 95.2398 52.7775 95.2602 52.7775C95.4443 52.7674 96.0272 52.5859 96.2216 52.5001C96.242 52.4699 96.2676 52.3387 96.2574 52.3034V52.3034ZM94.437 49.9833C94.6773 49.9833 94.8921 50.0338 95.0455 50.1498C95.1733 50.2355 95.1989 50.3314 95.2091 50.4827C95.2142 50.8155 95.2091 51.7486 95.1938 51.9251C95.1938 51.9756 95.1733 52.0411 95.1324 52.0765C94.979 52.2025 94.7796 52.2732 94.5546 52.2732C93.9921 52.2732 93.5677 51.8646 93.5677 51.0778C93.5677 50.6945 93.6751 50.3818 93.8847 50.1952C94.033 50.0489 94.2325 49.9833 94.437 49.9833V49.9833ZM99.1669 51.9504C98.8907 52.1723 98.6197 52.258 98.3232 52.258C97.9908 52.258 97.7402 52.1622 97.5152 51.9352C97.3414 51.7486 97.2289 51.441 97.2136 51.1938C97.2136 51.1585 97.2289 51.1182 97.2596 51.1131C97.8783 51.098 98.8856 51.0375 99.1975 50.9517C99.218 50.9366 99.264 50.8155 99.2538 50.7853C99.1822 50.7601 99.1515 50.7348 99.1464 50.7046C99.0851 50.296 98.8243 49.6656 98.1084 49.6656C97.8732 49.6656 97.5408 49.7614 97.3107 49.9077C96.9323 50.1548 96.6562 50.5886 96.6562 51.2291C96.6562 51.6477 96.7789 52.0916 97.0806 52.3892C97.3005 52.6161 97.5971 52.7422 97.9806 52.7422C98.3232 52.7422 98.8345 52.5556 99.1618 52.1925C99.172 52.1723 99.2027 52.0462 99.1975 51.9958C99.1873 51.9756 99.172 51.9604 99.1669 51.9504V51.9504ZM97.8783 49.943C98.2771 49.943 98.5226 50.3616 98.5584 50.7248C98.5584 50.755 98.5379 50.7752 98.5226 50.7903C98.3743 50.8206 97.4999 50.8508 97.2647 50.8357C97.2442 50.8357 97.2289 50.8004 97.2289 50.7853C97.2647 50.2658 97.5255 49.943 97.8783 49.943V49.943ZM101.463 49.6656C101.32 49.6656 101.202 49.7211 101.084 49.8068C100.911 49.9228 100.757 50.0893 100.619 50.2658C100.604 50.2759 100.578 50.2759 100.578 50.2507C100.578 50.1145 100.588 49.7917 100.593 49.6908C100.593 49.6757 100.573 49.6605 100.558 49.6605C100.358 49.7765 99.9236 49.9026 99.6526 49.9279C99.6322 49.943 99.6168 50.0539 99.6168 50.0893C99.9492 50.2053 100.011 50.296 100.026 50.3969C100.031 50.4827 100.031 50.7046 100.031 50.9719C100.031 51.4763 100.026 52.0815 100.011 52.2025C99.9952 52.3337 99.9492 52.374 99.8776 52.4043C99.7958 52.4345 99.6782 52.4547 99.5862 52.4648C99.5606 52.49 99.5657 52.6464 99.5862 52.6766C99.7191 52.6666 100.097 52.6514 100.328 52.6514C100.624 52.6514 101.105 52.6766 101.192 52.6766C101.233 52.6464 101.238 52.5001 101.222 52.4648C101.059 52.4497 100.89 52.4245 100.757 52.3892C100.645 52.3538 100.609 52.2782 100.604 52.1571C100.594 52.0109 100.588 51.2594 100.588 50.7601C100.588 50.6693 100.624 50.5583 100.645 50.5129C100.742 50.3616 100.89 50.2053 101.038 50.2053C101.207 50.2053 101.381 50.3162 101.519 50.4322C101.529 50.4322 101.57 50.412 101.58 50.407C101.652 50.3162 101.795 50.0338 101.81 49.943C101.816 49.9178 101.816 49.8522 101.81 49.827C101.749 49.7261 101.601 49.6656 101.463 49.6656V49.6656ZM103.764 51.3956C103.723 51.3754 103.549 51.4208 103.534 51.4611C103.554 51.7133 103.672 52.4648 103.738 52.5556C103.917 52.6464 104.362 52.7826 104.807 52.7826C105.85 52.7826 106.448 52.1471 106.448 51.4359C106.448 50.9013 106.121 50.5936 105.738 50.3515C105.487 50.2053 105.119 50.0338 104.822 49.8421C104.51 49.6303 104.316 49.4185 104.316 49.0099C104.326 48.6518 104.582 48.2685 105.093 48.2685C105.318 48.2685 105.533 48.3038 105.692 48.4198C105.871 48.5358 105.937 48.7426 105.983 49.1713C106.003 49.2066 106.172 49.2066 106.198 49.1663C106.228 48.8132 106.269 48.4047 106.32 48.1626C106.014 48.1273 105.707 48.0315 105.196 48.0315C104.393 48.0315 103.738 48.4854 103.738 49.2671C103.738 49.9228 104.183 50.2809 104.843 50.6541C105.507 51.0375 105.814 51.2644 105.814 51.7486C105.814 52.2933 105.395 52.5152 105.022 52.5152C104.74 52.5152 104.48 52.4547 104.296 52.3185C104.045 52.142 103.897 51.8495 103.764 51.3956V51.3956ZM109.562 51.9504C109.291 52.1723 109.015 52.258 108.719 52.258C108.386 52.258 108.136 52.1622 107.911 51.9352C107.737 51.7486 107.624 51.441 107.609 51.1938C107.609 51.1585 107.624 51.1182 107.655 51.1131C108.274 51.098 109.281 51.0375 109.593 50.9517C109.614 50.9366 109.66 50.8155 109.654 50.7853C109.578 50.7601 109.547 50.7348 109.542 50.7046C109.481 50.296 109.225 49.6656 108.504 49.6656C108.269 49.6656 107.936 49.7614 107.706 49.9077C107.328 50.1548 107.057 50.5886 107.057 51.2291C107.057 51.6477 107.174 52.0916 107.476 52.3892C107.701 52.6161 107.993 52.7422 108.381 52.7422C108.719 52.7422 109.23 52.5556 109.557 52.1925C109.573 52.1723 109.598 52.0462 109.593 51.9958C109.588 51.9756 109.573 51.9604 109.562 51.9504V51.9504ZM108.274 49.943C108.673 49.943 108.918 50.3616 108.959 50.7248C108.959 50.755 108.933 50.7752 108.918 50.7903C108.77 50.8206 107.901 50.8508 107.66 50.8357C107.64 50.8357 107.624 50.8004 107.624 50.7853C107.66 50.2658 107.921 49.943 108.274 49.943ZM112.641 52.1622C112.656 52.142 112.676 52.0109 112.676 51.9504C112.676 51.9302 112.651 51.91 112.641 51.91C112.359 52.1622 112.058 52.258 111.797 52.258C111.459 52.258 111.183 52.1471 110.963 51.8797C110.774 51.6578 110.687 51.3249 110.687 50.982C110.687 50.4827 110.923 49.9934 111.48 49.9934C111.858 49.9934 112.14 50.2305 112.293 50.3818C112.308 50.3919 112.354 50.3919 112.37 50.3818C112.436 50.3515 112.574 50.1952 112.62 50.0842C112.625 50.054 112.636 49.9884 112.636 49.9682C112.605 49.8926 112.508 49.827 112.411 49.7765C112.272 49.7211 112.104 49.6656 111.807 49.6656C111.577 49.6656 111.178 49.7766 110.866 49.9682C110.37 50.2607 110.12 50.7197 110.12 51.2594C110.12 51.6225 110.222 51.9756 110.406 52.2378C110.652 52.5657 110.989 52.7422 111.465 52.7422C111.776 52.7422 112.278 52.601 112.641 52.1622V52.1622ZM114.809 50.1346C114.819 50.0237 114.855 49.8371 114.875 49.7312C114.763 49.7463 114.328 49.7715 113.975 49.7715C113.96 49.7715 113.945 49.7412 113.945 49.7261C113.945 49.2167 113.965 48.8889 113.98 48.7628C113.96 48.7527 113.883 48.7527 113.847 48.7678C113.766 48.8637 113.495 49.0452 113.372 49.1057V49.7261C113.372 49.7463 113.351 49.7765 113.346 49.7765C113.285 49.8068 113.101 49.8421 112.999 49.8572C112.968 49.8926 112.922 50.0539 112.932 50.0993L113.331 50.1296C113.362 50.1346 113.372 50.17 113.372 50.1952C113.372 50.4827 113.367 51.1434 113.367 51.557C113.367 52.026 113.372 52.2126 113.469 52.3892C113.597 52.6212 113.832 52.7422 114.124 52.7422C114.359 52.7422 114.671 52.6464 114.855 52.4194C114.87 52.3892 114.891 52.2126 114.875 52.1925C114.727 52.2782 114.625 52.3185 114.415 52.3185C114.231 52.3185 114.047 52.2278 113.98 52.0311C113.95 51.9352 113.934 51.799 113.934 51.5065C113.929 51.1484 113.929 50.5079 113.934 50.1649C113.934 50.1548 113.95 50.1296 113.965 50.1296C114.246 50.1296 114.625 50.1346 114.809 50.1346ZM116.23 48.6216C116.23 48.556 116.2 48.4652 116.159 48.4097C116.143 48.3895 116.061 48.3542 115.944 48.3542C115.811 48.3542 115.652 48.4249 115.586 48.4854C115.55 48.5207 115.54 48.6518 115.55 48.6972C115.571 48.8435 115.632 48.9443 115.739 48.9948C115.785 49.025 116.036 49.0049 116.077 48.9797C116.169 48.909 116.23 48.7628 116.23 48.6216V48.6216ZM116.675 52.4648C116.506 52.4396 116.46 52.4245 116.363 52.4043C116.251 52.369 116.21 52.2883 116.21 52.1571C116.2 51.8293 116.2 51.3401 116.2 50.9366C116.2 50.4927 116.21 49.9884 116.21 49.6605C115.918 49.7765 115.468 49.8623 115.248 49.8724C115.218 49.8926 115.192 50.0186 115.218 50.0489C115.366 50.0993 115.489 50.1397 115.571 50.2204C115.617 50.2759 115.622 50.3313 115.622 50.3767C115.622 50.523 115.632 50.7853 115.632 51.0677C115.632 51.4712 115.632 51.9504 115.617 52.1319C115.601 52.3034 115.581 52.3589 115.484 52.3992C115.392 52.4245 115.289 52.4497 115.167 52.4648C115.136 52.49 115.136 52.6514 115.167 52.6766C115.289 52.6766 115.581 52.6514 115.888 52.6514C116.266 52.6514 116.506 52.6766 116.644 52.6766C116.675 52.6514 116.696 52.5001 116.675 52.4648V52.4648ZM118.7 49.6656C118.352 49.6656 117.999 49.7917 117.734 49.9581C117.355 50.2153 117.089 50.6037 117.089 51.1787C117.089 51.9302 117.483 52.7422 118.562 52.7422C118.874 52.7422 119.222 52.601 119.421 52.4699C119.876 52.1874 120.106 51.6982 120.106 51.1333C120.106 50.3162 119.59 49.6656 118.7 49.6656V49.6656ZM118.449 49.9531C119.078 49.9531 119.477 50.523 119.477 51.3703C119.477 51.8142 119.395 52.1067 119.196 52.2883C119.073 52.4043 118.899 52.4396 118.746 52.4396C118.153 52.4396 117.718 51.8545 117.718 50.9971C117.718 50.4423 117.902 50.18 118.097 50.0539C118.194 49.9884 118.332 49.9531 118.449 49.9531ZM120.597 52.4648C120.566 52.49 120.566 52.6464 120.597 52.6766C120.684 52.6766 120.95 52.6514 121.313 52.6514C121.722 52.6514 121.927 52.6766 122.039 52.6766C122.07 52.6363 122.075 52.49 122.059 52.4648C121.942 52.4497 121.829 52.4345 121.753 52.4043C121.645 52.374 121.62 52.3236 121.61 52.1571C121.594 51.8192 121.594 51.1131 121.594 50.5936C121.594 50.4423 121.625 50.3767 121.671 50.3313C121.84 50.1851 122.07 50.0993 122.284 50.0993C122.499 50.0993 122.637 50.17 122.74 50.2658C122.883 50.3818 122.934 50.5785 122.949 50.6945C122.985 50.9668 122.98 51.7032 122.97 52.1118C122.965 52.3034 122.944 52.374 122.837 52.4093C122.796 52.4245 122.673 52.4497 122.535 52.4648C122.504 52.49 122.515 52.6464 122.535 52.6766C122.714 52.6666 122.929 52.6514 123.266 52.6514C123.65 52.6514 123.875 52.6766 123.977 52.6766C124.013 52.6363 124.023 52.5001 123.997 52.4648C123.854 52.4396 123.747 52.4245 123.629 52.369C123.578 52.3438 123.558 52.2883 123.558 52.2278C123.542 51.9756 123.542 51.3149 123.542 50.9063C123.542 50.5583 123.491 50.2658 123.348 50.0489C123.184 49.8068 122.954 49.6656 122.637 49.6656C122.382 49.6656 122.019 49.827 121.63 50.1397C121.62 50.1498 121.594 50.1397 121.594 50.1296C121.594 50.0035 121.604 49.7917 121.61 49.711C121.61 49.6908 121.589 49.6656 121.579 49.6605C121.395 49.7614 120.965 49.9026 120.669 49.9279C120.638 49.9531 120.618 50.0539 120.633 50.0993C120.909 50.2002 120.996 50.2759 121.016 50.3767C121.027 50.4827 121.032 50.6743 121.032 50.9618C121.032 51.4208 121.032 51.9302 121.016 52.1571C121.011 52.2782 120.965 52.3841 120.863 52.4093C120.776 52.4345 120.699 52.4497 120.597 52.4648V52.4648ZM127.255 48.213C126.708 48.213 126.227 48.6367 125.976 48.9393C125.976 48.9746 126.058 49.1259 126.089 49.1209C126.355 48.8586 126.626 48.7023 126.953 48.7023C127.423 48.7023 127.7 49.0553 127.7 49.484C127.7 49.9026 127.434 50.2456 126.728 50.3919C126.702 50.407 126.605 50.639 126.626 50.6693C126.738 50.6441 126.835 50.6441 126.892 50.6441C127.587 50.6441 128.042 51.103 128.032 51.7184C128.032 52.3841 127.556 52.6666 127.117 52.6666C126.825 52.6666 126.61 52.6212 126.437 52.5152C126.247 52.3992 126.109 52.2227 125.981 51.9504C125.961 51.9453 125.813 52.0109 125.808 52.0462C125.818 52.2126 125.879 52.4497 125.941 52.5859C126.012 52.7321 126.063 52.7826 126.166 52.8431C126.314 52.9137 126.529 52.9591 126.81 52.9591C127.234 52.9591 127.597 52.8431 127.945 52.6212C128.364 52.3538 128.676 51.9151 128.676 51.3804C128.676 50.7046 128.129 50.3818 127.633 50.2305C127.628 50.2204 127.628 50.2002 127.633 50.1952C127.935 49.9884 128.282 49.6959 128.282 49.2167C128.277 48.6669 127.863 48.213 127.255 48.213V48.213ZM132.378 49.6656C132.031 49.6656 131.673 49.7917 131.407 49.9581C131.028 50.2153 130.762 50.6037 130.762 51.1787C130.762 51.9302 131.156 52.7422 132.235 52.7422C132.547 52.7422 132.895 52.601 133.094 52.4699C133.554 52.1874 133.784 51.6982 133.784 51.1333C133.784 50.3162 133.263 49.6656 132.378 49.6656ZM132.123 49.9531C132.752 49.9531 133.156 50.523 133.156 51.3703C133.156 51.8142 133.074 52.1067 132.874 52.2883C132.746 52.4043 132.578 52.4396 132.419 52.4396C131.831 52.4396 131.391 51.8545 131.391 50.9971C131.391 50.4423 131.575 50.18 131.77 50.0539C131.867 49.9884 132.005 49.9531 132.123 49.9531V49.9531ZM134.24 52.4598C134.204 52.49 134.209 52.6464 134.24 52.6766C134.398 52.6766 134.669 52.6514 134.986 52.6514C135.416 52.6514 135.697 52.6766 135.876 52.6766C135.907 52.6514 135.922 52.49 135.896 52.4648C135.682 52.4396 135.61 52.4245 135.508 52.4043C135.349 52.369 135.298 52.2933 135.293 52.1319C135.267 51.7385 135.267 50.9013 135.262 50.1952C135.262 50.17 135.293 50.1296 135.308 50.1296C135.492 50.1296 135.814 50.1346 136.039 50.1346C136.045 50.0237 136.085 49.8371 136.106 49.7463C136.004 49.7564 135.814 49.7715 135.313 49.7715C135.293 49.7715 135.267 49.7312 135.267 49.7211C135.267 49.6807 135.262 49.6 135.262 49.5496C135.267 49.0049 135.283 48.4753 135.492 48.2584C135.589 48.1575 135.682 48.1273 135.794 48.1273C136.009 48.1273 136.244 48.2887 136.408 48.4349C136.433 48.44 136.474 48.44 136.489 48.4249C136.551 48.3845 136.72 48.097 136.74 48.0163C136.75 48.0012 136.75 47.9608 136.74 47.9356C136.658 47.7994 136.443 47.7036 136.203 47.7036C136.009 47.7036 135.728 47.8045 135.492 47.976C134.884 48.4047 134.715 48.9595 134.705 49.7261C134.705 49.7312 134.69 49.7715 134.679 49.7765C134.618 49.8119 134.434 49.8724 134.316 49.8926C134.286 49.9279 134.24 50.0388 134.24 50.1044L134.664 50.1296C134.684 50.1296 134.705 50.18 134.705 50.1952C134.7 50.9215 134.7 51.7587 134.684 52.1521C134.684 52.2832 134.654 52.3639 134.536 52.4093L134.24 52.4598V52.4598ZM139.445 50.1346C139.45 50.0237 139.486 49.8371 139.511 49.7312C139.399 49.7463 138.959 49.7715 138.606 49.7715C138.591 49.7715 138.576 49.7412 138.576 49.7261C138.576 49.2167 138.601 48.8889 138.612 48.7628C138.591 48.7527 138.519 48.7527 138.479 48.7678C138.402 48.8637 138.126 49.0452 138.008 49.1057V49.7261C138.008 49.7463 137.983 49.7765 137.977 49.7765C137.916 49.8068 137.732 49.8421 137.63 49.8572C137.599 49.8926 137.558 50.0539 137.563 50.0993L137.962 50.1296C137.993 50.1346 138.008 50.17 138.008 50.1952C138.008 50.4827 137.998 51.1434 137.998 51.557C137.998 52.026 138.008 52.2126 138.105 52.3892C138.228 52.6212 138.468 52.7422 138.755 52.7422C138.99 52.7422 139.302 52.6464 139.486 52.4194C139.501 52.3892 139.527 52.2126 139.511 52.1925C139.363 52.2782 139.256 52.3185 139.051 52.3185C138.867 52.3185 138.683 52.2278 138.612 52.0311C138.586 51.9352 138.571 51.799 138.571 51.5065C138.56 51.1484 138.56 50.5079 138.571 50.1649C138.571 50.1548 138.586 50.1296 138.601 50.1296C138.883 50.1296 139.256 50.1346 139.445 50.1346V50.1346ZM139.67 48.1323C139.803 48.1475 139.936 48.1626 140.028 48.1878C140.13 48.208 140.151 48.2735 140.166 48.3845C140.192 48.6518 140.192 49.1209 140.192 50.8862C140.192 51.0526 140.181 51.9251 140.176 52.0966C140.166 52.3034 140.14 52.369 140.013 52.4093C139.946 52.4345 139.875 52.4497 139.747 52.4648C139.716 52.49 139.716 52.6464 139.747 52.6766C139.875 52.6766 140.079 52.6514 140.457 52.6514C140.887 52.6514 141.138 52.6766 141.235 52.6766C141.265 52.6464 141.276 52.49 141.24 52.4648C141.107 52.4497 141.051 52.4345 140.959 52.4194C140.805 52.369 140.78 52.3085 140.769 52.0765C140.754 51.8697 140.754 50.9618 140.754 50.4574C140.754 50.412 140.78 50.3263 140.841 50.2809C141.01 50.1548 141.235 50.0842 141.419 50.0842C141.899 50.0842 142.068 50.412 142.109 50.6088C142.16 50.9467 142.145 51.673 142.135 52.0311C142.13 52.3236 142.099 52.374 141.986 52.4093C141.915 52.4345 141.812 52.4497 141.69 52.4648C141.669 52.49 141.669 52.6464 141.7 52.6766C141.797 52.6666 142.114 52.6514 142.401 52.6514C142.728 52.6514 143.014 52.6766 143.142 52.6766C143.178 52.6615 143.193 52.485 143.173 52.4648C143.024 52.4396 142.912 52.4345 142.81 52.374C142.748 52.3387 142.712 52.2782 142.712 52.1925C142.707 51.8697 142.707 51.2392 142.707 50.8357C142.707 50.1195 142.375 49.6656 141.787 49.6656C141.521 49.6656 141.168 49.8119 140.78 50.1044C140.769 50.1145 140.744 50.1145 140.744 50.0993C140.744 49.8926 140.744 48.9443 140.754 48.4904C140.759 47.9961 140.774 47.9255 140.836 47.8045C140.836 47.7843 140.805 47.7137 140.78 47.7036C140.555 47.8045 140.115 47.9104 139.67 47.9457C139.644 47.9608 139.634 48.1121 139.67 48.1323V48.1323ZM146.097 51.9504C145.821 52.1723 145.545 52.258 145.254 52.258C144.916 52.258 144.666 52.1622 144.446 51.9352C144.267 51.7486 144.154 51.441 144.139 51.1938C144.139 51.1585 144.154 51.1182 144.185 51.1131C144.809 51.098 145.816 51.0375 146.123 50.9517C146.149 50.9366 146.19 50.8155 146.184 50.7853C146.108 50.7601 146.082 50.7348 146.072 50.7046C146.016 50.296 145.755 49.6656 145.039 49.6656C144.799 49.6656 144.466 49.7614 144.236 49.9077C143.858 50.1548 143.587 50.5886 143.587 51.2291C143.587 51.6477 143.704 52.0916 144.006 52.3892C144.231 52.6161 144.528 52.7422 144.911 52.7422C145.254 52.7422 145.76 52.5556 146.087 52.1925C146.103 52.1723 146.133 52.0462 146.123 51.9958C146.118 51.9756 146.103 51.9604 146.097 51.9504V51.9504ZM144.809 49.943C145.208 49.943 145.453 50.3616 145.489 50.7248C145.489 50.755 145.463 50.7752 145.453 50.7903C145.305 50.8206 144.431 50.8508 144.195 50.8357C144.17 50.8357 144.154 50.8004 144.154 50.7853C144.195 50.2658 144.451 49.943 144.809 49.943ZM164.705 52.4648C164.674 52.49 164.674 52.6464 164.705 52.6766C164.843 52.6766 165.073 52.6514 165.498 52.6514C165.912 52.6514 166.29 52.6766 166.444 52.6766C166.464 52.6464 166.479 52.49 166.459 52.4648C166.316 52.4497 166.193 52.4245 166.101 52.4043C165.876 52.3438 165.861 52.2681 165.866 52.142C165.881 51.9655 166.116 51.3552 166.265 50.9618C166.275 50.9366 166.311 50.8912 166.341 50.8912H167.65C167.666 50.8912 167.707 50.9215 167.717 50.9467C167.85 51.2745 168.07 51.8848 168.162 52.2025C168.182 52.2681 168.177 52.3387 168.08 52.3841C167.967 52.4194 167.834 52.4396 167.671 52.4648C167.64 52.49 167.656 52.6464 167.681 52.6766C167.834 52.6666 168.284 52.6514 168.648 52.6514C168.98 52.6514 169.358 52.6666 169.553 52.6766C169.573 52.6464 169.593 52.485 169.568 52.4648C169.031 52.3992 168.98 52.3589 168.765 51.8697C168.509 51.2644 167.686 48.9595 167.538 48.5409C167.487 48.4047 167.451 48.2735 167.42 48.1626C167.4 48.1626 167.323 48.1727 167.175 48.1727C167.052 48.1727 166.96 48.1626 166.929 48.1626C166.919 48.2685 166.863 48.4249 166.807 48.5812C166.643 49.0452 165.948 50.9013 165.569 51.7839C165.324 52.3438 165.237 52.3992 164.705 52.4648V52.4648ZM167.021 48.9191C167.139 49.2369 167.42 50.0439 167.569 50.4927C167.584 50.523 167.558 50.5482 167.548 50.5482C167.471 50.5583 167.226 50.5583 167.052 50.5583C166.771 50.5583 166.531 50.5583 166.459 50.5482C166.439 50.5432 166.428 50.5281 166.428 50.5028C166.556 50.1145 166.858 49.2924 166.986 48.9292C166.991 48.9141 167.011 48.9191 167.021 48.9191V48.9191ZM172.237 52.1622C172.252 52.142 172.273 52.0109 172.273 51.9504C172.273 51.9302 172.242 51.91 172.237 51.91C171.956 52.1622 171.654 52.258 171.393 52.258C171.056 52.258 170.78 52.1471 170.56 51.8797C170.371 51.6578 170.284 51.3249 170.284 50.982C170.284 50.4827 170.519 49.9934 171.076 49.9934C171.455 49.9934 171.736 50.2305 171.889 50.3818C171.905 50.3919 171.951 50.3919 171.961 50.3818C172.033 50.3515 172.171 50.1952 172.217 50.0842C172.222 50.054 172.232 49.9884 172.232 49.9682C172.201 49.8926 172.104 49.827 172.007 49.7765C171.869 49.7211 171.695 49.6656 171.404 49.6656C171.174 49.6656 170.775 49.7766 170.463 49.9682C169.967 50.2607 169.716 50.7197 169.716 51.2594C169.716 51.6225 169.818 51.9756 170.003 52.2378C170.248 52.5657 170.585 52.7422 171.061 52.7422C171.373 52.7422 171.874 52.601 172.237 52.1622Z" fill="#2B2A29"/>
<path d="M174.405 50.1346C174.415 50.0237 174.451 49.8371 174.472 49.7312C174.359 49.7463 173.925 49.7715 173.572 49.7715C173.556 49.7715 173.541 49.7412 173.541 49.7261C173.541 49.2167 173.561 48.8889 173.577 48.7628C173.556 48.7527 173.48 48.7527 173.444 48.7678C173.362 48.8637 173.086 49.0452 172.968 49.1057V49.7261C172.968 49.7463 172.948 49.7766 172.943 49.7766C172.881 49.8068 172.697 49.8421 172.59 49.8572C172.564 49.8926 172.518 50.054 172.529 50.0993L172.927 50.1296C172.953 50.1347 172.968 50.17 172.968 50.1952C172.968 50.4827 172.963 51.1434 172.963 51.557C172.963 52.026 172.968 52.2126 173.065 52.3892C173.193 52.6212 173.429 52.7422 173.715 52.7422C173.955 52.7422 174.267 52.6464 174.451 52.4194C174.467 52.3892 174.487 52.2126 174.472 52.1925C174.323 52.2782 174.221 52.3185 174.011 52.3185C173.827 52.3185 173.643 52.2278 173.577 52.0311C173.546 51.9352 173.531 51.7991 173.531 51.5065C173.526 51.1484 173.526 50.5079 173.531 50.1649C173.531 50.1548 173.546 50.1296 173.561 50.1296C173.843 50.1296 174.221 50.1346 174.405 50.1346V50.1346ZM174.635 53.8367C174.681 53.8619 174.784 53.9022 174.83 53.8922C175.254 53.6248 175.806 52.9238 175.791 52.2429C175.781 51.9453 175.673 51.7184 175.597 51.6578C175.576 51.6477 175.479 51.6477 175.459 51.6578C175.367 51.6982 175.039 52.0109 175.014 52.0916C175.136 52.2782 175.228 52.49 175.234 52.6666C175.244 53.0751 174.968 53.4786 174.62 53.7913C174.615 53.7963 174.625 53.8266 174.635 53.8367ZM180.413 52.4699C180.199 52.4396 180.081 52.4345 179.948 52.4043C179.754 52.3589 179.713 52.2278 179.698 51.9806C179.682 51.7032 179.672 50.3818 179.672 49.9934C179.672 48.6518 179.682 48.4702 179.713 48.2433C179.703 48.2231 179.646 48.208 179.616 48.213C179.365 48.3542 178.823 48.5156 178.44 48.556C178.414 48.5711 178.404 48.7174 178.424 48.7476C178.578 48.7476 178.762 48.7628 178.854 48.7678C179.007 48.783 179.038 48.8889 179.053 48.9897C179.058 49.1259 179.074 49.7412 179.074 50.4322C179.074 51.0627 179.069 51.673 179.053 52.0109C179.053 52.253 179.007 52.369 178.777 52.4093C178.654 52.4346 178.496 52.4497 178.327 52.4648C178.296 52.49 178.296 52.6514 178.327 52.6766C178.521 52.6766 178.905 52.6514 179.391 52.6514C179.866 52.6514 180.183 52.6766 180.383 52.6766C180.413 52.6514 180.429 52.49 180.413 52.4699V52.4699ZM181.641 53.0448C183.154 52.5707 184.335 51.4208 184.335 49.9531C184.335 49.0099 183.819 48.2231 182.914 48.2231C182.592 48.2231 182.264 48.3341 182.004 48.5005C181.559 48.7981 181.319 49.2873 181.319 49.7917C181.319 50.5734 181.866 51.1282 182.459 51.1282C182.745 51.1282 183.195 50.9669 183.522 50.7601C183.538 50.75 183.558 50.7701 183.553 50.7853C183.256 51.5822 182.73 52.3085 181.549 52.8481C181.538 52.8885 181.605 53.0398 181.641 53.0448V53.0448ZM182.709 48.4904C183.287 48.4904 183.676 49.1259 183.676 49.9379C183.676 50.064 183.671 50.1952 183.635 50.3667C183.62 50.4171 183.558 50.4978 183.502 50.5381C183.359 50.6239 183.159 50.6895 182.939 50.6895C182.403 50.6895 181.917 50.3263 181.917 49.4941C181.917 48.899 182.234 48.4904 182.709 48.4904ZM187.332 48.1928C187.219 48.2735 187.148 48.3038 186.964 48.3038C186.698 48.3089 186.299 48.2685 186.14 48.2685C186.074 48.2584 186.023 48.3189 185.977 48.3542C185.828 48.556 185.425 49.4487 185.297 49.8875C185.281 49.9279 185.292 50.0741 185.312 50.1044C185.511 50.2456 186.089 50.4776 186.514 50.7701C186.994 51.103 187.132 51.3703 187.132 51.8041C187.132 52.3034 186.795 52.6313 186.289 52.6313C185.721 52.6313 185.332 52.3034 185.128 51.9604C185.113 51.9504 185.041 51.9756 185.031 51.9907C184.975 52.0664 184.898 52.2883 184.898 52.369C184.898 52.4396 184.949 52.5506 185 52.601C185.164 52.7775 185.476 52.9591 185.972 52.9591C186.754 52.9591 187.71 52.3438 187.71 51.4208C187.71 50.9668 187.531 50.6592 187.112 50.3616C186.749 50.0993 186.074 49.7866 185.736 49.6C185.711 49.595 185.69 49.5445 185.706 49.4992C185.747 49.3478 185.875 49.0553 185.956 48.899C185.972 48.8788 186.007 48.8334 186.053 48.8334C186.176 48.8435 186.514 48.8788 186.846 48.8788C186.933 48.8788 187.015 48.8485 187.097 48.7779C187.245 48.6468 187.383 48.3896 187.414 48.2735C187.424 48.2433 187.347 48.1928 187.332 48.1928V48.1928ZM191.351 48.1071C191.371 48.0668 191.3 47.9255 191.264 47.9104C189.485 48.4904 188.385 49.7967 188.385 51.1333C188.385 51.9604 188.835 52.7473 189.832 52.7473C190.062 52.7473 190.41 52.6464 190.62 52.5152C191.131 52.2025 191.412 51.7184 191.412 51.0929C191.412 50.3263 190.87 49.7715 190.272 49.7715C190.006 49.7715 189.633 49.9178 189.295 50.0842C189.28 50.0893 189.254 50.0691 189.27 50.0489C189.495 49.479 190.027 48.7325 191.351 48.1071V48.1071ZM189.812 50.18C190.344 50.18 190.794 50.5886 190.794 51.4208C190.794 52.0664 190.502 52.4547 190.047 52.4547C189.5 52.4547 189.04 51.9806 189.04 51.0173C189.04 50.8811 189.055 50.7096 189.106 50.5482C189.137 50.4474 189.214 50.3667 189.285 50.3314C189.428 50.2355 189.633 50.18 189.812 50.18ZM194 50.5886C194 48.6115 192.772 47.3455 192.266 47.1186C192.241 47.1286 192.118 47.2598 192.128 47.2951C193.059 48.1222 193.468 49.3226 193.468 50.6945C193.468 52.3387 192.87 53.2567 192.051 53.988C192.046 54.0233 192.149 54.1544 192.184 54.1645C193.176 53.4786 194 52.2681 194 50.5886V50.5886ZM148.01 48.3442C148.143 48.3694 148.317 48.3896 148.393 48.4198C148.552 48.4702 148.598 48.5863 148.603 48.7779C148.618 49.1511 148.603 51.0022 148.664 51.4611C148.756 52.258 149.278 52.7826 150.444 52.7826C151.221 52.7826 152.024 52.485 152.239 51.5015C152.361 50.987 152.341 50.4574 152.387 48.9595C152.392 48.6115 152.438 48.4753 152.653 48.4198C152.735 48.3896 152.852 48.3744 152.96 48.3442C152.99 48.3341 152.985 48.1626 152.96 48.1424C152.837 48.1424 152.505 48.1626 152.172 48.1626C151.743 48.1626 151.415 48.1424 151.282 48.1424C151.252 48.1626 151.247 48.3189 151.272 48.3442C151.436 48.3744 151.548 48.3845 151.651 48.4097C151.896 48.4551 151.978 48.5509 151.983 48.9141C152.014 49.6605 151.998 50.4776 151.968 51.0324C151.901 52.1874 151.303 52.369 150.689 52.369C149.989 52.369 149.559 52.0411 149.411 51.6326C149.329 51.4712 149.283 51.1938 149.268 50.8862C149.252 50.4978 149.247 49.5143 149.263 48.7981C149.268 48.5459 149.314 48.4652 149.483 48.4097C149.575 48.3845 149.677 48.3744 149.83 48.3442C149.861 48.324 149.861 48.1626 149.83 48.1424C149.646 48.1424 149.304 48.1626 148.956 48.1626C148.608 48.1626 148.153 48.1424 148.02 48.1424C147.989 48.1626 147.979 48.324 148.01 48.3442V48.3442ZM157.802 52.3539C157.638 52.2883 157.623 52.253 157.618 52.142C157.603 52.0008 157.608 51.5519 157.618 51.33C157.623 51.1182 157.659 51.0274 157.802 50.982C157.869 50.9618 157.955 50.9467 158.047 50.9315C158.073 50.9063 158.073 50.7348 158.053 50.7096C157.904 50.7197 157.684 50.7348 157.245 50.7348C156.795 50.7348 156.437 50.7096 156.212 50.7096C156.181 50.7348 156.166 50.9013 156.202 50.9215C156.432 50.9517 156.565 50.9668 156.698 50.9971C156.912 51.0526 156.958 51.1434 156.974 51.3804C156.979 51.6326 156.979 51.8999 156.958 52.1269C156.943 52.253 156.897 52.3841 156.795 52.4346C156.692 52.5001 156.508 52.5304 156.299 52.5304C154.959 52.5304 154.279 51.557 154.279 50.3011C154.279 49.1057 154.831 48.2937 155.987 48.2937C156.467 48.2937 156.764 48.3694 156.994 48.5005C157.209 48.6216 157.296 48.8283 157.357 49.3781C157.393 49.4033 157.577 49.3882 157.603 49.3529C157.608 49.025 157.674 48.4652 157.736 48.1928C157.291 48.1475 156.866 48.0315 156.268 48.0315C155.69 48.0315 155.24 48.1222 154.826 48.3089C154.018 48.667 153.522 49.4185 153.522 50.3818C153.522 51.9251 154.432 52.7826 156.166 52.7826C156.81 52.7826 157.536 52.5808 157.776 52.5052C157.792 52.485 157.807 52.374 157.802 52.3539V52.3539ZM162.639 49.3176C162.65 49.3529 162.839 49.3327 162.869 49.3025C162.875 48.9746 162.941 48.4349 162.987 48.1777C162.655 48.1575 162.159 48.0315 161.53 48.0315C160.901 48.0315 160.42 48.1575 160.026 48.3694C159.213 48.7981 158.85 49.5849 158.85 50.3767C158.85 51.8949 159.771 52.7826 161.417 52.7826C161.872 52.7826 162.338 52.6766 162.552 52.601C162.721 52.5001 163.038 51.9302 163.115 51.6175C163.1 51.567 162.972 51.5015 162.936 51.5015C162.742 51.8192 162.568 52.0664 162.379 52.2126C162.194 52.3841 161.888 52.4648 161.565 52.4648C160.251 52.4648 159.592 51.4763 159.592 50.3112C159.592 49.0755 160.205 48.2937 161.279 48.2937C161.632 48.2937 161.954 48.3391 162.194 48.4551C162.471 48.5863 162.568 48.7325 162.639 49.3176V49.3176Z" fill="#2B2A29"/>
</g>
<defs>
<clipPath id="clip0_13_110">
<rect width="187" height="32" fill="white" transform="translate(8 22)"/>
</clipPath>
</defs>
</svg>
