<svg width="1226" height="199" viewBox="0 0 1226 199" fill="none" xmlns="http://www.w3.org/2000/svg">
<g filter="url(#filter0_d_955_5)">
<rect x="24" y="1" width="365" height="47" fill="white" shape-rendering="crispEdges"/>
<rect x="23.7658" y="0.765849" width="365.468" height="47.4683" stroke="black" stroke-opacity="0.2" stroke-width="0.468302" shape-rendering="crispEdges"/>
</g>
<path d="M137.855 17.328C134.327 17.328 131.465 19.974 131.465 23.718C131.465 27.48 134.327 30.108 137.855 30.108C141.221 30.108 143.669 27.642 144.047 24.744V23.142H137.153V24.78H141.851C141.545 26.886 140.123 28.254 137.855 28.254C135.371 28.254 133.571 26.472 133.571 23.718C133.571 20.964 135.371 19.2 137.855 19.2C139.349 19.2 140.537 19.83 141.203 21.09H143.669C142.715 18.642 140.465 17.328 137.855 17.328ZM145.387 24.996C145.387 28.056 147.457 30.162 150.031 30.162C151.687 30.162 152.875 29.37 153.505 28.524V30H155.575V20.082H153.505V21.522C152.893 20.712 151.741 19.92 150.067 19.92C147.457 19.92 145.387 21.936 145.387 24.996ZM153.505 25.032C153.505 27.174 152.047 28.38 150.499 28.38C148.969 28.38 147.493 27.138 147.493 24.996C147.493 22.854 148.969 21.702 150.499 21.702C152.047 21.702 153.505 22.908 153.505 25.032ZM172.328 30H174.362V24.15C174.362 21.378 172.598 19.92 170.276 19.92C168.836 19.92 167.432 20.676 166.82 21.882C166.136 20.586 164.822 19.92 163.256 19.92C162.068 19.92 160.988 20.406 160.322 21.216V20.082H158.27V30H160.322V24.456C160.322 22.638 161.312 21.702 162.824 21.702C164.318 21.702 165.308 22.638 165.308 24.456V30H167.342V24.456C167.342 22.638 168.332 21.702 169.844 21.702C171.338 21.702 172.328 22.638 172.328 24.456V30ZM181.149 21.648C182.679 21.648 183.885 22.62 183.921 24.15H178.431C178.647 22.584 179.763 21.648 181.149 21.648ZM185.793 27.048H183.579C183.201 27.822 182.499 28.434 181.239 28.434C179.727 28.434 178.557 27.444 178.413 25.806H185.991C186.045 25.464 186.063 25.14 186.063 24.798C186.063 21.882 184.065 19.92 181.239 19.92C178.305 19.92 176.289 21.918 176.289 25.032C176.289 28.146 178.395 30.162 181.239 30.162C183.669 30.162 185.235 28.776 185.793 27.048ZM196.844 17.49H192.758V30H196.844C200.858 30 203.486 27.642 203.486 23.79C203.486 19.92 200.858 17.49 196.844 17.49ZM194.81 28.326V19.164H196.844C199.796 19.164 201.38 20.928 201.38 23.79C201.38 26.634 199.796 28.326 196.844 28.326H194.81ZM209.696 21.648C211.226 21.648 212.432 22.62 212.468 24.15H206.978C207.194 22.584 208.31 21.648 209.696 21.648ZM214.34 27.048H212.126C211.748 27.822 211.046 28.434 209.786 28.434C208.274 28.434 207.104 27.444 206.96 25.806H214.538C214.592 25.464 214.61 25.14 214.61 24.798C214.61 21.882 212.612 19.92 209.786 19.92C206.852 19.92 204.836 21.918 204.836 25.032C204.836 28.146 206.942 30.162 209.786 30.162C212.216 30.162 213.782 28.776 214.34 27.048ZM215.459 20.082L219.221 30H221.669L225.449 20.082H223.271L220.463 28.164L217.655 20.082H215.459ZM231.176 21.648C232.706 21.648 233.912 22.62 233.948 24.15H228.458C228.674 22.584 229.79 21.648 231.176 21.648ZM235.82 27.048H233.606C233.228 27.822 232.526 28.434 231.266 28.434C229.754 28.434 228.584 27.444 228.44 25.806H236.018C236.072 25.464 236.09 25.14 236.09 24.798C236.09 21.882 234.092 19.92 231.266 19.92C228.332 19.92 226.316 21.918 226.316 25.032C226.316 28.146 228.422 30.162 231.266 30.162C233.696 30.162 235.262 28.776 235.82 27.048ZM238.11 30H240.162V16.68H238.11V30ZM252.306 25.032C252.306 21.918 250.074 19.92 247.248 19.92C244.422 19.92 242.19 21.918 242.19 25.032C242.19 28.146 244.332 30.162 247.158 30.162C250.002 30.162 252.306 28.146 252.306 25.032ZM244.278 25.032C244.278 22.782 245.664 21.702 247.212 21.702C248.742 21.702 250.2 22.782 250.2 25.032C250.2 27.282 248.688 28.38 247.158 28.38C245.61 28.38 244.278 27.282 244.278 25.032ZM256.386 21.54V20.082H254.334V34.716H256.386V28.56C257.034 29.334 258.204 30.162 259.842 30.162C262.452 30.162 264.504 28.056 264.504 24.996C264.504 21.936 262.452 19.92 259.842 19.92C258.222 19.92 257.016 20.712 256.386 21.54ZM262.416 24.996C262.416 27.138 260.94 28.38 259.392 28.38C257.862 28.38 256.386 27.174 256.386 25.032C256.386 22.908 257.862 21.702 259.392 21.702C260.94 21.702 262.416 22.854 262.416 24.996ZM270.71 21.648C272.24 21.648 273.446 22.62 273.482 24.15H267.992C268.208 22.584 269.324 21.648 270.71 21.648ZM275.354 27.048H273.14C272.762 27.822 272.06 28.434 270.8 28.434C269.288 28.434 268.118 27.444 267.974 25.806H275.552C275.606 25.464 275.624 25.14 275.624 24.798C275.624 21.882 273.626 19.92 270.8 19.92C267.866 19.92 265.85 21.918 265.85 25.032C265.85 28.146 267.956 30.162 270.8 30.162C273.23 30.162 274.796 28.776 275.354 27.048ZM279.695 24.78C279.695 22.674 280.631 22.044 282.143 22.044H282.665V19.92C281.261 19.92 280.271 20.532 279.695 21.522V20.082H277.643V30H279.695V24.78Z" fill="#212832"/>
<path d="M389 1H387V48H389V1Z" fill="#946FB0" stroke="#946FB0" stroke-width="0.936604"/>
<circle cx="24.4151" cy="24.4151" r="23.4151" fill="#946FB0" stroke="#946FB0"/>
<path d="M16.3494 23.9942C16.3494 27.9654 17.3983 30.9625 21.2197 30.9625C25.041 30.9625 26.09 27.9654 26.09 23.9942C26.09 20.0979 25.041 17.1008 21.2197 17.1008C17.3983 17.1008 16.3494 20.0979 16.3494 23.9942ZM23.992 23.9942C23.992 26.6729 23.7111 29.0144 21.2197 29.0144C18.7283 29.0144 18.4473 26.6729 18.4473 23.9942C18.4473 21.4466 18.7283 19.0489 21.2197 19.0489C23.7111 19.0489 23.992 21.4466 23.992 23.9942ZM29.8107 31H31.9649V17.3443H28.0686V19.2925H29.8107V31Z" fill="#212832"/>
<g filter="url(#filter1_d_955_5)">
<rect x="24" y="76" width="365" height="47" fill="white" shape-rendering="crispEdges"/>
<rect x="23.7658" y="75.7658" width="365.468" height="47.4683" stroke="black" stroke-opacity="0.2" stroke-width="0.468302" shape-rendering="crispEdges"/>
</g>
<g filter="url(#filter2_d_955_5)">
<rect x="24" y="151" width="365" height="47" fill="white" shape-rendering="crispEdges"/>
<rect x="23.7658" y="150.766" width="365.468" height="47.4683" stroke="black" stroke-opacity="0.2" stroke-width="0.468302" shape-rendering="crispEdges"/>
</g>
<path d="M111.601 103.894L107.893 93.49H105.697L110.413 106H112.789L117.487 93.49H115.327L111.601 103.894ZM119.204 106H121.256V96.082H119.204V106ZM120.248 94.768C120.968 94.768 121.544 94.192 121.544 93.454C121.544 92.716 120.968 92.14 120.248 92.14C119.51 92.14 118.934 92.716 118.934 93.454C118.934 94.192 119.51 94.768 120.248 94.768ZM123.266 100.996C123.266 104.056 125.336 106.162 127.946 106.162C129.566 106.162 130.754 105.406 131.384 104.506V106H133.454V92.68H131.384V97.468C130.628 96.532 129.26 95.92 127.964 95.92C125.336 95.92 123.266 97.936 123.266 100.996ZM131.384 101.032C131.384 103.174 129.926 104.38 128.378 104.38C126.848 104.38 125.372 103.138 125.372 100.996C125.372 98.854 126.848 97.702 128.378 97.702C129.926 97.702 131.384 98.908 131.384 101.032ZM140.325 97.648C141.855 97.648 143.061 98.62 143.097 100.15H137.607C137.823 98.584 138.939 97.648 140.325 97.648ZM144.969 103.048H142.755C142.377 103.822 141.675 104.434 140.415 104.434C138.903 104.434 137.733 103.444 137.589 101.806H145.167C145.221 101.464 145.239 101.14 145.239 100.798C145.239 97.882 143.241 95.92 140.415 95.92C137.481 95.92 135.465 97.918 135.465 101.032C135.465 104.146 137.571 106.162 140.415 106.162C142.845 106.162 144.411 104.776 144.969 103.048ZM156.708 101.032C156.708 97.918 154.476 95.92 151.65 95.92C148.824 95.92 146.592 97.918 146.592 101.032C146.592 104.146 148.734 106.162 151.56 106.162C154.404 106.162 156.708 104.146 156.708 101.032ZM148.68 101.032C148.68 98.782 150.066 97.702 151.614 97.702C153.144 97.702 154.602 98.782 154.602 101.032C154.602 103.282 153.09 104.38 151.56 104.38C150.012 104.38 148.68 103.282 148.68 101.032ZM169.119 93.328C165.591 93.328 162.729 95.974 162.729 99.718C162.729 103.48 165.591 106.108 169.119 106.108C172.485 106.108 174.933 103.642 175.311 100.744V99.142H168.417V100.78H173.115C172.809 102.886 171.387 104.254 169.119 104.254C166.635 104.254 164.835 102.472 164.835 99.718C164.835 96.964 166.635 95.2 169.119 95.2C170.613 95.2 171.801 95.83 172.467 97.09H174.933C173.979 94.642 171.729 93.328 169.119 93.328ZM176.65 100.996C176.65 104.056 178.72 106.162 181.294 106.162C182.95 106.162 184.138 105.37 184.768 104.524V106H186.838V96.082H184.768V97.522C184.156 96.712 183.004 95.92 181.33 95.92C178.72 95.92 176.65 97.936 176.65 100.996ZM184.768 101.032C184.768 103.174 183.31 104.38 181.762 104.38C180.232 104.38 178.756 103.138 178.756 100.996C178.756 98.854 180.232 97.702 181.762 97.702C183.31 97.702 184.768 98.908 184.768 101.032ZM203.592 106H205.626V100.15C205.626 97.378 203.862 95.92 201.54 95.92C200.1 95.92 198.696 96.676 198.084 97.882C197.4 96.586 196.086 95.92 194.52 95.92C193.332 95.92 192.252 96.406 191.586 97.216V96.082H189.534V106H191.586V100.456C191.586 98.638 192.576 97.702 194.088 97.702C195.582 97.702 196.572 98.638 196.572 100.456V106H198.606V100.456C198.606 98.638 199.596 97.702 201.108 97.702C202.602 97.702 203.592 98.638 203.592 100.456V106ZM212.413 97.648C213.943 97.648 215.149 98.62 215.185 100.15H209.695C209.911 98.584 211.027 97.648 212.413 97.648ZM217.057 103.048H214.843C214.465 103.822 213.763 104.434 212.503 104.434C210.991 104.434 209.821 103.444 209.677 101.806H217.255C217.309 101.464 217.327 101.14 217.327 100.798C217.327 97.882 215.329 95.92 212.503 95.92C209.569 95.92 207.553 97.918 207.553 101.032C207.553 104.146 209.659 106.162 212.503 106.162C214.933 106.162 216.499 104.776 217.057 103.048ZM232.464 106H234.624L230.142 93.472H227.766L223.284 106H225.426L226.326 103.444H231.564L232.464 106ZM230.988 101.77H226.902L228.954 95.956L230.988 101.77ZM243.611 106H245.645V100.15C245.645 97.378 243.899 95.92 241.577 95.92C240.389 95.92 239.291 96.406 238.625 97.216V96.082H236.573V106H238.625V100.456C238.625 98.638 239.615 97.702 241.127 97.702C242.621 97.702 243.611 98.638 243.611 100.456V106ZM248.262 106H250.314V96.082H248.262V106ZM249.306 94.768C250.026 94.768 250.602 94.192 250.602 93.454C250.602 92.716 250.026 92.14 249.306 92.14C248.568 92.14 247.992 92.716 247.992 93.454C247.992 94.192 248.568 94.768 249.306 94.768ZM267.066 106H269.1V100.15C269.1 97.378 267.336 95.92 265.014 95.92C263.574 95.92 262.17 96.676 261.558 97.882C260.874 96.586 259.56 95.92 257.994 95.92C256.806 95.92 255.726 96.406 255.06 97.216V96.082H253.008V106H255.06V100.456C255.06 98.638 256.05 97.702 257.562 97.702C259.056 97.702 260.046 98.638 260.046 100.456V106H262.08V100.456C262.08 98.638 263.07 97.702 264.582 97.702C266.076 97.702 267.066 98.638 267.066 100.456V106ZM271.027 100.996C271.027 104.056 273.097 106.162 275.671 106.162C277.327 106.162 278.515 105.37 279.145 104.524V106H281.215V96.082H279.145V97.522C278.533 96.712 277.381 95.92 275.707 95.92C273.097 95.92 271.027 97.936 271.027 100.996ZM279.145 101.032C279.145 103.174 277.687 104.38 276.139 104.38C274.609 104.38 273.133 103.138 273.133 100.996C273.133 98.854 274.609 97.702 276.139 97.702C277.687 97.702 279.145 98.908 279.145 101.032ZM284.235 103.246C284.235 105.262 285.333 106 287.097 106H288.717V104.29H287.457C286.593 104.29 286.305 103.984 286.305 103.246V97.756H288.717V96.082H286.305V93.616H284.235V96.082H283.065V97.756H284.235V103.246ZM300.058 101.032C300.058 97.918 297.826 95.92 295 95.92C292.174 95.92 289.942 97.918 289.942 101.032C289.942 104.146 292.084 106.162 294.91 106.162C297.754 106.162 300.058 104.146 300.058 101.032ZM292.03 101.032C292.03 98.782 293.416 97.702 294.964 97.702C296.494 97.702 297.952 98.782 297.952 101.032C297.952 103.282 296.44 104.38 294.91 104.38C293.362 104.38 292.03 103.282 292.03 101.032ZM304.138 100.78C304.138 98.674 305.074 98.044 306.586 98.044H307.108V95.92C305.704 95.92 304.714 96.532 304.138 97.522V96.082H302.086V106H304.138V100.78Z" fill="#212832"/>
<path d="M83.3506 176.428C83.3506 179.614 85.5826 181.126 88.2106 181.126C90.8206 181.126 93.1246 179.614 93.1246 176.428V168.49H91.0726V176.464C91.0726 178.408 89.9746 179.326 88.2286 179.326C86.5006 179.326 85.4026 178.408 85.4026 176.464V168.49H83.3506V176.428ZM95.7963 181H97.8483V168.49H95.7963V181ZM111.878 184.348V184.15C109.358 181.558 108.08 178.012 108.08 174.448C108.08 170.884 109.358 167.032 112.238 164.386V164.188H110.114C107.378 166.618 106.1 170.524 106.1 174.448C106.1 178.372 107.378 182.062 109.754 184.348H111.878ZM114.06 176.428C114.06 179.614 116.292 181.126 118.92 181.126C121.53 181.126 123.834 179.614 123.834 176.428V168.49H121.782V176.464C121.782 178.408 120.684 179.326 118.938 179.326C117.21 179.326 116.112 178.408 116.112 176.464V168.49H114.06V176.428ZM133.903 178.228C133.795 174.646 128.197 175.762 128.197 173.764C128.197 173.098 128.773 172.648 129.871 172.648C130.987 172.648 131.653 173.242 131.725 174.106H133.777C133.669 172.126 132.193 170.92 129.943 170.92C127.603 170.92 126.127 172.198 126.127 173.782C126.127 177.418 131.887 176.302 131.887 178.246C131.887 178.93 131.257 179.434 130.069 179.434C128.935 179.434 128.161 178.768 128.089 177.958H125.965C126.055 179.758 127.729 181.162 130.105 181.162C132.445 181.162 133.903 179.902 133.903 178.228ZM140.297 172.648C141.827 172.648 143.033 173.62 143.069 175.15H137.579C137.795 173.584 138.911 172.648 140.297 172.648ZM144.941 178.048H142.727C142.349 178.822 141.647 179.434 140.387 179.434C138.875 179.434 137.705 178.444 137.561 176.806H145.139C145.193 176.464 145.211 176.14 145.211 175.798C145.211 172.882 143.213 170.92 140.387 170.92C137.453 170.92 135.437 172.918 135.437 176.032C135.437 179.146 137.543 181.162 140.387 181.162C142.817 181.162 144.383 179.776 144.941 178.048ZM149.282 175.78C149.282 173.674 150.218 173.044 151.73 173.044H152.252V170.92C150.848 170.92 149.858 171.532 149.282 172.522V171.082H147.23V181H149.282V175.78ZM158.814 181H160.866V168.49H158.814V181ZM170.598 181H172.632V175.15C172.632 172.378 170.886 170.92 168.564 170.92C167.376 170.92 166.278 171.406 165.612 172.216V171.082H163.56V181H165.612V175.456C165.612 173.638 166.602 172.702 168.114 172.702C169.608 172.702 170.598 173.638 170.598 175.456V181ZM175.573 178.246C175.573 180.262 176.671 181 178.435 181H180.055V179.29H178.795C177.931 179.29 177.643 178.984 177.643 178.246V172.756H180.055V171.082H177.643V168.616H175.573V171.082H174.403V172.756H175.573V178.246ZM186.123 172.648C187.653 172.648 188.859 173.62 188.895 175.15H183.405C183.621 173.584 184.737 172.648 186.123 172.648ZM190.767 178.048H188.553C188.175 178.822 187.473 179.434 186.213 179.434C184.701 179.434 183.531 178.444 183.387 176.806H190.965C191.019 176.464 191.037 176.14 191.037 175.798C191.037 172.882 189.039 170.92 186.213 170.92C183.279 170.92 181.263 172.918 181.263 176.032C181.263 179.146 183.369 181.162 186.213 181.162C188.643 181.162 190.209 179.776 190.767 178.048ZM195.108 175.78C195.108 173.674 196.044 173.044 197.556 173.044H198.078V170.92C196.674 170.92 195.684 171.532 195.108 172.522V171.082H193.056V181H195.108V175.78ZM200.216 181H202.286V172.756H204.122V171.082H202.286V170.38C202.286 169.246 202.718 168.814 203.978 168.814V167.104C201.386 167.104 200.216 168.094 200.216 170.38V171.082H199.046V172.756H200.216V181ZM205.257 175.996C205.257 179.056 207.327 181.162 209.901 181.162C211.557 181.162 212.745 180.37 213.375 179.524V181H215.445V171.082H213.375V172.522C212.763 171.712 211.611 170.92 209.937 170.92C207.327 170.92 205.257 172.936 205.257 175.996ZM213.375 176.032C213.375 178.174 211.917 179.38 210.369 179.38C208.839 179.38 207.363 178.138 207.363 175.996C207.363 173.854 208.839 172.702 210.369 172.702C211.917 172.702 213.375 173.908 213.375 176.032ZM217.456 176.032C217.456 179.146 219.472 181.162 222.316 181.162C224.746 181.162 226.33 179.812 226.888 177.868H224.674C224.296 178.894 223.54 179.434 222.316 179.434C220.66 179.434 219.562 178.21 219.562 176.032C219.562 173.872 220.66 172.648 222.316 172.648C223.54 172.648 224.332 173.26 224.674 174.214H226.888C226.33 172.126 224.746 170.92 222.316 170.92C219.472 170.92 217.456 172.936 217.456 176.032ZM233.109 172.648C234.639 172.648 235.845 173.62 235.881 175.15H230.391C230.607 173.584 231.723 172.648 233.109 172.648ZM237.753 178.048H235.539C235.161 178.822 234.459 179.434 233.199 179.434C231.687 179.434 230.517 178.444 230.373 176.806H237.951C238.005 176.464 238.023 176.14 238.023 175.798C238.023 172.882 236.025 170.92 233.199 170.92C230.265 170.92 228.249 172.918 228.249 176.032C228.249 179.146 230.355 181.162 233.199 181.162C235.629 181.162 237.195 179.776 237.753 178.048ZM239.538 184.348V184.15C242.058 181.558 243.336 178.012 243.336 174.448C243.336 170.884 242.058 167.032 239.178 164.386V164.188H241.302C244.038 166.618 245.316 170.524 245.316 174.448C245.316 178.372 244.038 182.062 241.662 184.348H239.538ZM257.664 168.49H253.578V181H257.664C261.678 181 264.306 178.642 264.306 174.79C264.306 170.92 261.678 168.49 257.664 168.49ZM255.63 179.326V170.164H257.664C260.616 170.164 262.2 171.928 262.2 174.79C262.2 177.634 260.616 179.326 257.664 179.326H255.63ZM270.515 172.648C272.045 172.648 273.251 173.62 273.287 175.15H267.797C268.013 173.584 269.129 172.648 270.515 172.648ZM275.159 178.048H272.945C272.567 178.822 271.865 179.434 270.605 179.434C269.093 179.434 267.923 178.444 267.779 176.806H275.357C275.411 176.464 275.429 176.14 275.429 175.798C275.429 172.882 273.431 170.92 270.605 170.92C267.671 170.92 265.655 172.918 265.655 176.032C265.655 179.146 267.761 181.162 270.605 181.162C273.035 181.162 274.601 179.776 275.159 178.048ZM284.847 178.228C284.739 174.646 279.141 175.762 279.141 173.764C279.141 173.098 279.717 172.648 280.815 172.648C281.931 172.648 282.597 173.242 282.669 174.106H284.721C284.613 172.126 283.137 170.92 280.887 170.92C278.547 170.92 277.071 172.198 277.071 173.782C277.071 177.418 282.831 176.302 282.831 178.246C282.831 178.93 282.201 179.434 281.013 179.434C279.879 179.434 279.105 178.768 279.033 177.958H276.909C276.999 179.758 278.673 181.162 281.049 181.162C283.389 181.162 284.847 179.902 284.847 178.228ZM287.064 181H289.116V171.082H287.064V181ZM288.108 169.768C288.828 169.768 289.404 169.192 289.404 168.454C289.404 167.716 288.828 167.14 288.108 167.14C287.37 167.14 286.794 167.716 286.794 168.454C286.794 169.192 287.37 169.768 288.108 169.768ZM291.126 175.996C291.126 179.056 293.196 181.162 295.806 181.162C297.426 181.162 298.614 180.352 299.244 179.506V181.162C299.244 183.142 298.056 184.114 296.472 184.114C295.05 184.114 293.952 183.412 293.646 182.386H291.612C291.864 184.582 293.826 185.896 296.472 185.896C299.568 185.896 301.314 183.862 301.314 181.162V171.082H299.244V172.522C298.632 171.676 297.426 170.92 295.806 170.92C293.196 170.92 291.126 172.936 291.126 175.996ZM299.244 176.032C299.244 178.174 297.786 179.38 296.238 179.38C294.708 179.38 293.232 178.138 293.232 175.996C293.232 173.854 294.708 172.702 296.238 172.702C297.786 172.702 299.244 173.908 299.244 176.032ZM311.047 181H313.081V175.15C313.081 172.378 311.335 170.92 309.013 170.92C307.825 170.92 306.727 171.406 306.061 172.216V171.082H304.009V181H306.061V175.456C306.061 173.638 307.051 172.702 308.563 172.702C310.057 172.702 311.047 173.638 311.047 175.456V181ZM319.875 172.648C321.405 172.648 322.611 173.62 322.647 175.15H317.157C317.373 173.584 318.489 172.648 319.875 172.648ZM324.519 178.048H322.305C321.927 178.822 321.225 179.434 319.965 179.434C318.453 179.434 317.283 178.444 317.139 176.806H324.717C324.771 176.464 324.789 176.14 324.789 175.798C324.789 172.882 322.791 170.92 319.965 170.92C317.031 170.92 315.015 172.918 315.015 176.032C315.015 179.146 317.121 181.162 319.965 181.162C322.395 181.162 323.961 179.776 324.519 178.048ZM328.86 175.78C328.86 173.674 329.796 173.044 331.308 173.044H331.83V170.92C330.426 170.92 329.436 171.532 328.86 172.522V171.082H326.808V181H328.86V175.78ZM341.114 178.228C341.006 174.646 335.408 175.762 335.408 173.764C335.408 173.098 335.984 172.648 337.082 172.648C338.198 172.648 338.864 173.242 338.936 174.106H340.988C340.88 172.126 339.404 170.92 337.154 170.92C334.814 170.92 333.338 172.198 333.338 173.782C333.338 177.418 339.098 176.302 339.098 178.246C339.098 178.93 338.468 179.434 337.28 179.434C336.146 179.434 335.372 178.768 335.3 177.958H333.176C333.266 179.758 334.94 181.162 337.316 181.162C339.656 181.162 341.114 179.902 341.114 178.228Z" fill="#212832"/>
<path d="M389 76H387V123H389V76Z" fill="#CF1C54" stroke="#CF1C54" stroke-width="0.936604"/>
<path d="M389 151H387V198H389V151Z" fill="#E9D733" stroke="#E9D733" stroke-width="0.936604"/>
<circle cx="24.4151" cy="99.4151" r="23.4151" fill="#E9336C" stroke="#E9336C"/>
<circle cx="24.4151" cy="174.415" r="23.4151" fill="#E9D733" stroke="#E9D733"/>
<path d="M13.4777 99.6055C13.4777 103.577 14.5267 106.574 18.348 106.574C22.1694 106.574 23.2184 103.577 23.2184 99.6055C23.2184 95.7093 22.1694 92.7121 18.348 92.7121C14.5267 92.7121 13.4777 95.7093 13.4777 99.6055ZM21.1204 99.6055C21.1204 102.284 20.8394 104.626 18.348 104.626C15.8567 104.626 15.5757 102.284 15.5757 99.6055C15.5757 97.058 15.8567 94.6603 18.348 94.6603C20.8394 94.6603 21.1204 97.058 21.1204 99.6055ZM31.9967 106.611H34.0947V103.764H35.8368V101.91H34.0947V93.1242H31.5097L25.2157 102.153V103.764H31.9967V106.611ZM27.6696 101.91L32.0904 95.2972V101.91H27.6696Z" fill="#212832"/>
<path d="M14.3009 174.606C14.3009 178.577 15.3499 181.574 19.1712 181.574C22.9926 181.574 24.0416 178.577 24.0416 174.606C24.0416 170.709 22.9926 167.712 19.1712 167.712C15.3499 167.712 14.3009 170.709 14.3009 174.606ZM21.9436 174.606C21.9436 177.284 21.6626 179.626 19.1712 179.626C16.6799 179.626 16.3989 177.284 16.3989 174.606C16.3989 172.058 16.6799 169.66 19.1712 169.66C21.6626 169.66 21.9436 172.058 21.9436 174.606ZM25.9265 168.012V169.829H32.8573L27.5936 181.611H29.7478L34.9553 169.604V168.012H25.9265Z" fill="#212832"/>
<g filter="url(#filter3_d_955_5)">
<rect x="436" y="76" width="365" height="47" fill="white" shape-rendering="crispEdges"/>
<rect x="435.766" y="75.7658" width="365.468" height="47.4683" stroke="black" stroke-opacity="0.2" stroke-width="0.468302" shape-rendering="crispEdges"/>
</g>
<g filter="url(#filter4_d_955_5)">
<rect x="436" y="151" width="365" height="47" fill="white" shape-rendering="crispEdges"/>
<rect x="435.766" y="150.766" width="365.468" height="47.4683" stroke="black" stroke-opacity="0.2" stroke-width="0.468302" shape-rendering="crispEdges"/>
</g>
<path d="M540.015 102.454C540.015 97.882 533.391 99.646 533.391 96.82C533.391 95.614 534.309 95.038 535.497 95.074C536.793 95.11 537.531 95.884 537.603 96.73H539.871C539.691 94.588 537.999 93.328 535.605 93.328C533.049 93.328 531.303 94.696 531.303 96.892C531.303 101.5 537.945 99.538 537.945 102.562C537.945 103.624 537.135 104.398 535.695 104.398C534.273 104.398 533.553 103.57 533.463 102.544H531.267C531.267 104.758 533.193 106.126 535.695 106.126C538.485 106.126 540.015 104.326 540.015 102.454ZM551.886 101.032C551.886 97.918 549.654 95.92 546.828 95.92C544.002 95.92 541.77 97.918 541.77 101.032C541.77 104.146 543.912 106.162 546.738 106.162C549.582 106.162 551.886 104.146 551.886 101.032ZM543.858 101.032C543.858 98.782 545.244 97.702 546.792 97.702C548.322 97.702 549.78 98.782 549.78 101.032C549.78 103.282 548.268 104.38 546.738 104.38C545.19 104.38 543.858 103.282 543.858 101.032ZM554.166 106H556.236V97.756H558.072V96.082H556.236V95.38C556.236 94.246 556.668 93.814 557.928 93.814V92.104C555.336 92.104 554.166 93.094 554.166 95.38V96.082H552.996V97.756H554.166V106ZM560.215 103.246C560.215 105.262 561.313 106 563.077 106H564.697V104.29H563.437C562.573 104.29 562.285 103.984 562.285 103.246V97.756H564.697V96.082H562.285V93.616H560.215V96.082H559.045V97.756H560.215V103.246ZM568.514 106H570.674L572.672 98.674L574.67 106H576.83L579.908 96.082H577.892L575.84 104.02L573.824 96.082H571.682L569.576 104.056L567.506 96.082H565.418L568.514 106ZM580.758 100.996C580.758 104.056 582.828 106.162 585.402 106.162C587.058 106.162 588.246 105.37 588.876 104.524V106H590.946V96.082H588.876V97.522C588.264 96.712 587.112 95.92 585.438 95.92C582.828 95.92 580.758 97.936 580.758 100.996ZM588.876 101.032C588.876 103.174 587.418 104.38 585.87 104.38C584.34 104.38 582.864 103.138 582.864 100.996C582.864 98.854 584.34 97.702 585.87 97.702C587.418 97.702 588.876 98.908 588.876 101.032ZM595.693 100.78C595.693 98.674 596.629 98.044 598.141 98.044H598.663V95.92C597.259 95.92 596.269 96.532 595.693 97.522V96.082H593.641V106H595.693V100.78ZM604.725 97.648C606.255 97.648 607.461 98.62 607.497 100.15H602.007C602.223 98.584 603.339 97.648 604.725 97.648ZM609.369 103.048H607.155C606.777 103.822 606.075 104.434 604.815 104.434C603.303 104.434 602.133 103.444 601.989 101.806H609.567C609.621 101.464 609.639 101.14 609.639 100.798C609.639 97.882 607.641 95.92 604.815 95.92C601.881 95.92 599.865 97.918 599.865 101.032C599.865 104.146 601.971 106.162 604.815 106.162C607.245 106.162 608.811 104.776 609.369 103.048ZM620.42 93.49H616.334V106H620.42C624.434 106 627.062 103.642 627.062 99.79C627.062 95.92 624.434 93.49 620.42 93.49ZM618.386 104.326V95.164H620.42C623.372 95.164 624.956 96.928 624.956 99.79C624.956 102.634 623.372 104.326 620.42 104.326H618.386ZM633.272 97.648C634.802 97.648 636.008 98.62 636.044 100.15H630.554C630.77 98.584 631.886 97.648 633.272 97.648ZM637.916 103.048H635.702C635.324 103.822 634.622 104.434 633.362 104.434C631.85 104.434 630.68 103.444 630.536 101.806H638.114C638.168 101.464 638.186 101.14 638.186 100.798C638.186 97.882 636.188 95.92 633.362 95.92C630.428 95.92 628.412 97.918 628.412 101.032C628.412 104.146 630.518 106.162 633.362 106.162C635.792 106.162 637.358 104.776 637.916 103.048ZM639.035 96.082L642.797 106H645.245L649.025 96.082H646.847L644.039 104.164L641.231 96.082H639.035ZM654.753 97.648C656.283 97.648 657.489 98.62 657.525 100.15H652.035C652.251 98.584 653.367 97.648 654.753 97.648ZM659.397 103.048H657.183C656.805 103.822 656.103 104.434 654.843 104.434C653.331 104.434 652.161 103.444 652.017 101.806H659.595C659.649 101.464 659.667 101.14 659.667 100.798C659.667 97.882 657.669 95.92 654.843 95.92C651.909 95.92 649.893 97.918 649.893 101.032C649.893 104.146 651.999 106.162 654.843 106.162C657.273 106.162 658.839 104.776 659.397 103.048ZM661.686 106H663.738V92.68H661.686V106ZM675.882 101.032C675.882 97.918 673.65 95.92 670.824 95.92C667.998 95.92 665.766 97.918 665.766 101.032C665.766 104.146 667.908 106.162 670.734 106.162C673.578 106.162 675.882 104.146 675.882 101.032ZM667.854 101.032C667.854 98.782 669.24 97.702 670.788 97.702C672.318 97.702 673.776 98.782 673.776 101.032C673.776 103.282 672.264 104.38 670.734 104.38C669.186 104.38 667.854 103.282 667.854 101.032ZM679.963 97.54V96.082H677.911V110.716H679.963V104.56C680.611 105.334 681.781 106.162 683.419 106.162C686.029 106.162 688.081 104.056 688.081 100.996C688.081 97.936 686.029 95.92 683.419 95.92C681.799 95.92 680.593 96.712 679.963 97.54ZM685.993 100.996C685.993 103.138 684.517 104.38 682.969 104.38C681.439 104.38 679.963 103.174 679.963 101.032C679.963 98.908 681.439 97.702 682.969 97.702C684.517 97.702 685.993 98.854 685.993 100.996ZM694.286 97.648C695.816 97.648 697.022 98.62 697.058 100.15H691.568C691.784 98.584 692.9 97.648 694.286 97.648ZM698.93 103.048H696.716C696.338 103.822 695.636 104.434 694.376 104.434C692.864 104.434 691.694 103.444 691.55 101.806H699.128C699.182 101.464 699.2 101.14 699.2 100.798C699.2 97.882 697.202 95.92 694.376 95.92C691.442 95.92 689.426 97.918 689.426 101.032C689.426 104.146 691.532 106.162 694.376 106.162C696.806 106.162 698.372 104.776 698.93 103.048ZM703.271 100.78C703.271 98.674 704.207 98.044 705.719 98.044H706.241V95.92C704.837 95.92 703.847 96.532 703.271 97.522V96.082H701.219V106H703.271V100.78Z" fill="#212832"/>
<path d="M519.287 174.718C519.287 178.48 522.149 181.108 525.677 181.108C528.287 181.108 530.537 179.812 531.491 177.364H529.025C528.359 178.696 527.171 179.326 525.677 179.326C523.193 179.326 521.393 177.544 521.393 174.718C521.393 171.892 523.193 170.128 525.677 170.128C527.171 170.128 528.359 170.758 529.025 172.09H531.491C530.537 169.642 528.287 168.328 525.677 168.328C522.149 168.328 519.287 170.974 519.287 174.718ZM543.343 176.032C543.343 172.918 541.111 170.92 538.285 170.92C535.459 170.92 533.227 172.918 533.227 176.032C533.227 179.146 535.369 181.162 538.195 181.162C541.039 181.162 543.343 179.146 543.343 176.032ZM535.315 176.032C535.315 173.782 536.701 172.702 538.249 172.702C539.779 172.702 541.237 173.782 541.237 176.032C541.237 178.282 539.725 179.38 538.195 179.38C536.647 179.38 535.315 178.282 535.315 176.032ZM552.409 181H554.443V175.15C554.443 172.378 552.697 170.92 550.375 170.92C549.187 170.92 548.089 171.406 547.423 172.216V171.082H545.371V181H547.423V175.456C547.423 173.638 548.413 172.702 549.925 172.702C551.419 172.702 552.409 173.638 552.409 175.456V181ZM557.385 178.246C557.385 180.262 558.483 181 560.247 181H561.867V179.29H560.607C559.743 179.29 559.455 178.984 559.455 178.246V172.756H561.867V171.082H559.455V168.616H557.385V171.082H556.215V172.756H557.385V178.246ZM567.934 172.648C569.464 172.648 570.67 173.62 570.706 175.15H565.216C565.432 173.584 566.548 172.648 567.934 172.648ZM572.578 178.048H570.364C569.986 178.822 569.284 179.434 568.024 179.434C566.512 179.434 565.342 178.444 565.198 176.806H572.776C572.83 176.464 572.848 176.14 572.848 175.798C572.848 172.882 570.85 170.92 568.024 170.92C565.09 170.92 563.074 172.918 563.074 176.032C563.074 179.146 565.18 181.162 568.024 181.162C570.454 181.162 572.02 179.776 572.578 178.048ZM581.906 181H583.94V175.15C583.94 172.378 582.194 170.92 579.872 170.92C578.684 170.92 577.586 171.406 576.92 172.216V171.082H574.868V181H576.92V175.456C576.92 173.638 577.91 172.702 579.422 172.702C580.916 172.702 581.906 173.638 581.906 175.456V181ZM586.881 178.246C586.881 180.262 587.979 181 589.743 181H591.363V179.29H590.103C589.239 179.29 588.951 178.984 588.951 178.246V172.756H591.363V171.082H588.951V168.616H586.881V171.082H585.711V172.756H586.881V178.246ZM602.016 168.49H597.93V181H602.016C606.03 181 608.658 178.642 608.658 174.79C608.658 170.92 606.03 168.49 602.016 168.49ZM599.982 179.326V170.164H602.016C604.968 170.164 606.552 171.928 606.552 174.79C606.552 177.634 604.968 179.326 602.016 179.326H599.982ZM614.868 172.648C616.398 172.648 617.604 173.62 617.64 175.15H612.15C612.366 173.584 613.482 172.648 614.868 172.648ZM619.512 178.048H617.298C616.92 178.822 616.218 179.434 614.958 179.434C613.446 179.434 612.276 178.444 612.132 176.806H619.71C619.764 176.464 619.782 176.14 619.782 175.798C619.782 172.882 617.784 170.92 614.958 170.92C612.024 170.92 610.008 172.918 610.008 176.032C610.008 179.146 612.114 181.162 614.958 181.162C617.388 181.162 618.954 179.776 619.512 178.048ZM629.199 178.228C629.091 174.646 623.493 175.762 623.493 173.764C623.493 173.098 624.069 172.648 625.167 172.648C626.283 172.648 626.949 173.242 627.021 174.106H629.073C628.965 172.126 627.489 170.92 625.239 170.92C622.899 170.92 621.423 172.198 621.423 173.782C621.423 177.418 627.183 176.302 627.183 178.246C627.183 178.93 626.553 179.434 625.365 179.434C624.231 179.434 623.457 178.768 623.385 177.958H621.261C621.351 179.758 623.025 181.162 625.401 181.162C627.741 181.162 629.199 179.902 629.199 178.228ZM631.416 181H633.468V171.082H631.416V181ZM632.46 169.768C633.18 169.768 633.756 169.192 633.756 168.454C633.756 167.716 633.18 167.14 632.46 167.14C631.722 167.14 631.146 167.716 631.146 168.454C631.146 169.192 631.722 169.768 632.46 169.768ZM635.479 175.996C635.479 179.056 637.549 181.162 640.159 181.162C641.779 181.162 642.967 180.352 643.597 179.506V181.162C643.597 183.142 642.409 184.114 640.825 184.114C639.403 184.114 638.305 183.412 637.999 182.386H635.965C636.217 184.582 638.179 185.896 640.825 185.896C643.921 185.896 645.667 183.862 645.667 181.162V171.082H643.597V172.522C642.985 171.676 641.779 170.92 640.159 170.92C637.549 170.92 635.479 172.936 635.479 175.996ZM643.597 176.032C643.597 178.174 642.139 179.38 640.591 179.38C639.061 179.38 637.585 178.138 637.585 175.996C637.585 173.854 639.061 172.702 640.591 172.702C642.139 172.702 643.597 173.908 643.597 176.032ZM655.4 181H657.434V175.15C657.434 172.378 655.688 170.92 653.366 170.92C652.178 170.92 651.08 171.406 650.414 172.216V171.082H648.362V181H650.414V175.456C650.414 173.638 651.404 172.702 652.916 172.702C654.41 172.702 655.4 173.638 655.4 175.456V181ZM664.227 172.648C665.757 172.648 666.963 173.62 666.999 175.15H661.509C661.725 173.584 662.841 172.648 664.227 172.648ZM668.871 178.048H666.657C666.279 178.822 665.577 179.434 664.317 179.434C662.805 179.434 661.635 178.444 661.491 176.806H669.069C669.123 176.464 669.141 176.14 669.141 175.798C669.141 172.882 667.143 170.92 664.317 170.92C661.383 170.92 659.367 172.918 659.367 176.032C659.367 179.146 661.473 181.162 664.317 181.162C666.747 181.162 668.313 179.776 668.871 178.048ZM673.213 175.78C673.213 173.674 674.149 173.044 675.661 173.044H676.183V170.92C674.779 170.92 673.789 171.532 673.213 172.522V171.082H671.161V181H673.213V175.78ZM676.809 183.502H678.141L680.319 178.534H678.087L676.809 183.502ZM690.964 172.648C692.494 172.648 693.7 173.62 693.736 175.15H688.246C688.462 173.584 689.578 172.648 690.964 172.648ZM695.607 178.048H693.394C693.016 178.822 692.314 179.434 691.054 179.434C689.542 179.434 688.372 178.444 688.228 176.806H695.806C695.86 176.464 695.878 176.14 695.878 175.798C695.878 172.882 693.88 170.92 691.054 170.92C688.12 170.92 686.104 172.918 686.104 176.032C686.104 179.146 688.21 181.162 691.054 181.162C693.484 181.162 695.05 179.776 695.607 178.048ZM698.221 178.246C698.221 180.262 699.319 181 701.083 181H702.703V179.29H701.443C700.579 179.29 700.291 178.984 700.291 178.246V172.756H702.703V171.082H700.291V168.616H698.221V171.082H697.051V172.756H698.221V178.246ZM703.91 176.032C703.91 179.146 705.926 181.162 708.77 181.162C711.2 181.162 712.784 179.812 713.342 177.868H711.128C710.75 178.894 709.994 179.434 708.77 179.434C707.114 179.434 706.016 178.21 706.016 176.032C706.016 173.872 707.114 172.648 708.77 172.648C709.994 172.648 710.786 173.26 711.128 174.214H713.342C712.784 172.126 711.2 170.92 708.77 170.92C705.926 170.92 703.91 172.936 703.91 176.032ZM717.511 179.812C717.511 179.074 716.935 178.498 716.215 178.498C715.477 178.498 714.901 179.074 714.901 179.812C714.901 180.55 715.477 181.126 716.215 181.126C716.935 181.126 717.511 180.55 717.511 179.812Z" fill="#212832"/>
<path d="M801 76H799V123H801V76Z" fill="#00ADEF" stroke="#00ADEF" stroke-width="0.936604"/>
<path d="M801 151H799V198H801V151Z" fill="#7DD2C3" stroke="#7DD2C3" stroke-width="0.936604"/>
<circle cx="436.415" cy="99.8506" r="23.4151" fill="#00ADEF" stroke="#00ADEF"/>
<circle cx="436.415" cy="174.851" r="23.4151" fill="#7DD2C3" stroke="#7DD2C3"/>
<path d="M425.56 99.6055C425.56 103.577 426.609 106.574 430.43 106.574C434.252 106.574 435.301 103.577 435.301 99.6055C435.301 95.7093 434.252 92.7121 430.43 92.7121C426.609 92.7121 425.56 95.7093 425.56 99.6055ZM433.203 99.6055C433.203 102.284 432.922 104.626 430.43 104.626C427.939 104.626 427.658 102.284 427.658 99.6055C427.658 97.058 427.939 94.6603 430.43 94.6603C432.922 94.6603 433.203 97.058 433.203 99.6055ZM438.122 92.9182V100.804H440.145C440.501 99.7929 441.344 99.0998 442.599 99.0998C444.379 99.0998 445.259 100.111 445.259 101.891C445.259 103.577 444.435 104.832 442.599 104.832C441.157 104.832 440.183 104.082 439.902 102.921H437.823C438.141 105.057 439.771 106.611 442.58 106.611C445.746 106.611 447.301 104.551 447.301 101.835C447.301 99.7741 446.271 97.2828 442.918 97.2828C441.7 97.2828 440.595 97.8447 440.089 98.5191V94.7914H446.364V92.9182H438.122Z" fill="#212832"/>
<path d="M425.569 174.606C425.569 178.577 426.618 181.574 430.44 181.574C434.261 181.574 435.31 178.577 435.31 174.606C435.31 170.709 434.261 167.712 430.44 167.712C426.618 167.712 425.569 170.709 425.569 174.606ZM433.212 174.606C433.212 177.284 432.931 179.626 430.44 179.626C427.948 179.626 427.667 177.284 427.667 174.606C427.667 172.058 427.948 169.66 430.44 169.66C432.931 169.66 433.212 172.058 433.212 174.606ZM439.873 174.474C438.506 174.98 437.588 176.198 437.588 177.846C437.588 180.338 439.611 181.949 442.421 181.949C445.25 181.949 447.273 180.338 447.273 177.846C447.273 176.216 446.355 174.999 444.969 174.474C446.074 173.931 446.917 172.863 446.917 171.402C446.917 169.435 445.437 167.712 442.421 167.712C439.405 167.712 437.925 169.417 437.925 171.402C437.925 172.92 438.712 173.894 439.873 174.474ZM442.421 173.8C440.997 173.8 439.986 172.92 439.986 171.683C439.986 170.241 440.96 169.492 442.421 169.492C443.92 169.492 444.875 170.26 444.875 171.665C444.875 172.901 443.845 173.8 442.421 173.8ZM442.421 175.411C444.032 175.411 445.175 176.235 445.175 177.771C445.175 179.139 444.144 180.169 442.421 180.169C440.679 180.169 439.63 179.157 439.63 177.771C439.63 176.179 440.848 175.411 442.421 175.411Z" fill="#212832"/>
<g filter="url(#filter5_d_955_5)">
<rect x="859" y="76" width="365" height="47" fill="white" shape-rendering="crispEdges"/>
<rect x="858.766" y="75.7658" width="365.468" height="47.4683" stroke="black" stroke-opacity="0.2" stroke-width="0.468302" shape-rendering="crispEdges"/>
</g>
<path d="M963.015 102.454C963.015 97.882 956.391 99.646 956.391 96.82C956.391 95.614 957.309 95.038 958.497 95.074C959.793 95.11 960.531 95.884 960.603 96.73H962.871C962.691 94.588 960.999 93.328 958.605 93.328C956.049 93.328 954.303 94.696 954.303 96.892C954.303 101.5 960.945 99.538 960.945 102.562C960.945 103.624 960.135 104.398 958.695 104.398C957.273 104.398 956.553 103.57 956.463 102.544H954.267C954.267 104.758 956.193 106.126 958.695 106.126C961.485 106.126 963.015 104.326 963.015 102.454ZM974.886 101.032C974.886 97.918 972.654 95.92 969.828 95.92C967.002 95.92 964.77 97.918 964.77 101.032C964.77 104.146 966.912 106.162 969.738 106.162C972.582 106.162 974.886 104.146 974.886 101.032ZM966.858 101.032C966.858 98.782 968.244 97.702 969.792 97.702C971.322 97.702 972.78 98.782 972.78 101.032C972.78 103.282 971.268 104.38 969.738 104.38C968.19 104.38 966.858 103.282 966.858 101.032ZM977.166 106H979.236V97.756H981.072V96.082H979.236V95.38C979.236 94.246 979.668 93.814 980.928 93.814V92.104C978.336 92.104 977.166 93.094 977.166 95.38V96.082H975.996V97.756H977.166V106ZM983.215 103.246C983.215 105.262 984.313 106 986.077 106H987.697V104.29H986.437C985.573 104.29 985.285 103.984 985.285 103.246V97.756H987.697V96.082H985.285V93.616H983.215V96.082H982.045V97.756H983.215V103.246ZM991.514 106H993.674L995.672 98.674L997.67 106H999.83L1002.91 96.082H1000.89L998.84 104.02L996.824 96.082H994.682L992.576 104.056L990.506 96.082H988.418L991.514 106ZM1003.76 100.996C1003.76 104.056 1005.83 106.162 1008.4 106.162C1010.06 106.162 1011.25 105.37 1011.88 104.524V106H1013.95V96.082H1011.88V97.522C1011.26 96.712 1010.11 95.92 1008.44 95.92C1005.83 95.92 1003.76 97.936 1003.76 100.996ZM1011.88 101.032C1011.88 103.174 1010.42 104.38 1008.87 104.38C1007.34 104.38 1005.86 103.138 1005.86 100.996C1005.86 98.854 1007.34 97.702 1008.87 97.702C1010.42 97.702 1011.88 98.908 1011.88 101.032ZM1018.69 100.78C1018.69 98.674 1019.63 98.044 1021.14 98.044H1021.66V95.92C1020.26 95.92 1019.27 96.532 1018.69 97.522V96.082H1016.64V106H1018.69V100.78ZM1027.73 97.648C1029.26 97.648 1030.46 98.62 1030.5 100.15H1025.01C1025.22 98.584 1026.34 97.648 1027.73 97.648ZM1032.37 103.048H1030.16C1029.78 103.822 1029.08 104.434 1027.82 104.434C1026.3 104.434 1025.13 103.444 1024.99 101.806H1032.57C1032.62 101.464 1032.64 101.14 1032.64 100.798C1032.64 97.882 1030.64 95.92 1027.82 95.92C1024.88 95.92 1022.87 97.918 1022.87 101.032C1022.87 104.146 1024.97 106.162 1027.82 106.162C1030.25 106.162 1031.81 104.776 1032.37 103.048ZM1043.42 93.49H1039.33V106H1043.42C1047.43 106 1050.06 103.642 1050.06 99.79C1050.06 95.92 1047.43 93.49 1043.42 93.49ZM1041.39 104.326V95.164H1043.42C1046.37 95.164 1047.96 96.928 1047.96 99.79C1047.96 102.634 1046.37 104.326 1043.42 104.326H1041.39ZM1056.27 97.648C1057.8 97.648 1059.01 98.62 1059.04 100.15H1053.55C1053.77 98.584 1054.89 97.648 1056.27 97.648ZM1060.92 103.048H1058.7C1058.32 103.822 1057.62 104.434 1056.36 104.434C1054.85 104.434 1053.68 103.444 1053.54 101.806H1061.11C1061.17 101.464 1061.19 101.14 1061.19 100.798C1061.19 97.882 1059.19 95.92 1056.36 95.92C1053.43 95.92 1051.41 97.918 1051.41 101.032C1051.41 104.146 1053.52 106.162 1056.36 106.162C1058.79 106.162 1060.36 104.776 1060.92 103.048ZM1062.04 96.082L1065.8 106H1068.25L1072.03 96.082H1069.85L1067.04 104.164L1064.23 96.082H1062.04ZM1077.75 97.648C1079.28 97.648 1080.49 98.62 1080.52 100.15H1075.03C1075.25 98.584 1076.37 97.648 1077.75 97.648ZM1082.4 103.048H1080.18C1079.8 103.822 1079.1 104.434 1077.84 104.434C1076.33 104.434 1075.16 103.444 1075.02 101.806H1082.59C1082.65 101.464 1082.67 101.14 1082.67 100.798C1082.67 97.882 1080.67 95.92 1077.84 95.92C1074.91 95.92 1072.89 97.918 1072.89 101.032C1072.89 104.146 1075 106.162 1077.84 106.162C1080.27 106.162 1081.84 104.776 1082.4 103.048ZM1084.69 106H1086.74V92.68H1084.69V106ZM1098.88 101.032C1098.88 97.918 1096.65 95.92 1093.82 95.92C1091 95.92 1088.77 97.918 1088.77 101.032C1088.77 104.146 1090.91 106.162 1093.73 106.162C1096.58 106.162 1098.88 104.146 1098.88 101.032ZM1090.85 101.032C1090.85 98.782 1092.24 97.702 1093.79 97.702C1095.32 97.702 1096.78 98.782 1096.78 101.032C1096.78 103.282 1095.26 104.38 1093.73 104.38C1092.19 104.38 1090.85 103.282 1090.85 101.032ZM1102.96 97.54V96.082H1100.91V110.716H1102.96V104.56C1103.61 105.334 1104.78 106.162 1106.42 106.162C1109.03 106.162 1111.08 104.056 1111.08 100.996C1111.08 97.936 1109.03 95.92 1106.42 95.92C1104.8 95.92 1103.59 96.712 1102.96 97.54ZM1108.99 100.996C1108.99 103.138 1107.52 104.38 1105.97 104.38C1104.44 104.38 1102.96 103.174 1102.96 101.032C1102.96 98.908 1104.44 97.702 1105.97 97.702C1107.52 97.702 1108.99 98.854 1108.99 100.996ZM1117.29 97.648C1118.82 97.648 1120.02 98.62 1120.06 100.15H1114.57C1114.78 98.584 1115.9 97.648 1117.29 97.648ZM1121.93 103.048H1119.72C1119.34 103.822 1118.64 104.434 1117.38 104.434C1115.86 104.434 1114.69 103.444 1114.55 101.806H1122.13C1122.18 101.464 1122.2 101.14 1122.2 100.798C1122.2 97.882 1120.2 95.92 1117.38 95.92C1114.44 95.92 1112.43 97.918 1112.43 101.032C1112.43 104.146 1114.53 106.162 1117.38 106.162C1119.81 106.162 1121.37 104.776 1121.93 103.048ZM1126.27 100.78C1126.27 98.674 1127.21 98.044 1128.72 98.044H1129.24V95.92C1127.84 95.92 1126.85 96.532 1126.27 97.522V96.082H1124.22V106H1126.27V100.78Z" fill="#212832"/>
<path d="M1224 76H1222V123H1224V76Z" fill="#E74C3C" stroke="#E74C3C" stroke-width="0.936604"/>
<circle cx="856.415" cy="99.8506" r="23.4151" fill="#E74C3C" stroke="#E74C3C"/>
<path d="M845.533 99.6055C845.533 103.577 846.582 106.574 850.403 106.574C854.224 106.574 855.273 103.577 855.273 99.6055C855.273 95.7093 854.224 92.7121 850.403 92.7121C846.582 92.7121 845.533 95.7093 845.533 99.6055ZM853.175 99.6055C853.175 102.284 852.894 104.626 850.403 104.626C847.912 104.626 847.631 102.284 847.631 99.6055C847.631 97.058 847.912 94.6603 850.403 94.6603C852.894 94.6603 853.175 97.058 853.175 99.6055ZM866.843 96.1214C866.618 94.3044 865.288 92.6185 862.628 92.6185C859.219 92.6185 857.795 95.2035 857.795 99.4744C857.795 103.82 858.825 106.611 862.797 106.611C865.719 106.611 867.273 104.644 867.273 102.059C867.273 99.2122 865.531 97.5637 863.078 97.5637C861.654 97.5637 860.305 98.1632 859.631 99.2871C859.687 95.7093 860.68 94.398 862.609 94.398C863.958 94.398 864.614 95.0162 864.876 96.1214H866.843ZM862.609 99.362C864.407 99.362 865.232 100.523 865.232 102.153C865.232 103.764 864.258 104.832 862.684 104.832C860.867 104.832 859.874 103.708 859.874 102.022C859.874 100.205 861.204 99.362 862.609 99.362Z" fill="#212832"/>
<g filter="url(#filter6_d_955_5)">
<rect x="437" y="1" width="365" height="47" fill="white" shape-rendering="crispEdges"/>
<rect x="436.766" y="0.765849" width="365.468" height="47.4683" stroke="black" stroke-opacity="0.2" stroke-width="0.468302" shape-rendering="crispEdges"/>
</g>
<path d="M802 1H800V48H802V1Z" fill="#A9CF54" stroke="#A9CF54" stroke-width="0.936604"/>
<path d="M538.84 17.328C535.312 17.328 532.45 19.974 532.45 23.718C532.45 27.48 535.312 30.108 538.84 30.108C542.206 30.108 544.654 27.642 545.032 24.744V23.142H538.138V24.78H542.836C542.53 26.886 541.108 28.254 538.84 28.254C536.356 28.254 534.556 26.472 534.556 23.718C534.556 20.964 536.356 19.2 538.84 19.2C540.334 19.2 541.522 19.83 542.188 21.09H544.654C543.7 18.642 541.45 17.328 538.84 17.328ZM546.372 24.996C546.372 28.056 548.442 30.162 551.016 30.162C552.672 30.162 553.86 29.37 554.49 28.524V30H556.56V20.082H554.49V21.522C553.878 20.712 552.726 19.92 551.052 19.92C548.442 19.92 546.372 21.936 546.372 24.996ZM554.49 25.032C554.49 27.174 553.032 28.38 551.484 28.38C549.954 28.38 548.478 27.138 548.478 24.996C548.478 22.854 549.954 21.702 551.484 21.702C553.032 21.702 554.49 22.908 554.49 25.032ZM573.313 30H575.347V24.15C575.347 21.378 573.583 19.92 571.261 19.92C569.821 19.92 568.417 20.676 567.805 21.882C567.121 20.586 565.807 19.92 564.241 19.92C563.053 19.92 561.973 20.406 561.307 21.216V20.082H559.255V30H561.307V24.456C561.307 22.638 562.297 21.702 563.809 21.702C565.303 21.702 566.293 22.638 566.293 24.456V30H568.327V24.456C568.327 22.638 569.317 21.702 570.829 21.702C572.323 21.702 573.313 22.638 573.313 24.456V30ZM582.134 21.648C583.664 21.648 584.87 22.62 584.906 24.15H579.416C579.632 22.584 580.748 21.648 582.134 21.648ZM586.778 27.048H584.564C584.186 27.822 583.484 28.434 582.224 28.434C580.712 28.434 579.542 27.444 579.398 25.806H586.976C587.03 25.464 587.048 25.14 587.048 24.798C587.048 21.882 585.05 19.92 582.224 19.92C579.29 19.92 577.274 21.918 577.274 25.032C577.274 28.146 579.38 30.162 582.224 30.162C584.654 30.162 586.22 28.776 586.778 27.048ZM595.796 23.25V19.164H598.064C599.666 19.164 600.386 19.92 600.386 21.216C600.386 22.476 599.666 23.25 598.064 23.25H595.796ZM602.492 21.216C602.492 19.182 601.034 17.49 598.064 17.49H593.744V30H595.796V24.924H598.064C601.322 24.924 602.492 22.998 602.492 21.216ZM606.501 24.78C606.501 22.674 607.437 22.044 608.949 22.044H609.471V19.92C608.067 19.92 607.077 20.532 606.501 21.522V20.082H604.449V30H606.501V24.78ZM620.807 25.032C620.807 21.918 618.575 19.92 615.749 19.92C612.923 19.92 610.691 21.918 610.691 25.032C610.691 28.146 612.833 30.162 615.659 30.162C618.503 30.162 620.807 28.146 620.807 25.032ZM612.779 25.032C612.779 22.782 614.165 21.702 615.713 21.702C617.243 21.702 618.701 22.782 618.701 25.032C618.701 27.282 617.189 28.38 615.659 28.38C614.111 28.38 612.779 27.282 612.779 25.032ZM622.151 24.996C622.151 28.056 624.221 30.162 626.831 30.162C628.451 30.162 629.639 29.352 630.269 28.506V30.162C630.269 32.142 629.081 33.114 627.497 33.114C626.075 33.114 624.977 32.412 624.671 31.386H622.637C622.889 33.582 624.851 34.896 627.497 34.896C630.593 34.896 632.339 32.862 632.339 30.162V20.082H630.269V21.522C629.657 20.676 628.451 19.92 626.831 19.92C624.221 19.92 622.151 21.936 622.151 24.996ZM630.269 25.032C630.269 27.174 628.811 28.38 627.263 28.38C625.733 28.38 624.257 27.138 624.257 24.996C624.257 22.854 625.733 21.702 627.263 21.702C628.811 21.702 630.269 22.908 630.269 25.032ZM637.087 24.78C637.087 22.674 638.023 22.044 639.535 22.044H640.057V19.92C638.653 19.92 637.663 20.532 637.087 21.522V20.082H635.035V30H637.087V24.78ZM641.259 24.996C641.259 28.056 643.329 30.162 645.903 30.162C647.559 30.162 648.747 29.37 649.377 28.524V30H651.447V20.082H649.377V21.522C648.765 20.712 647.613 19.92 645.939 19.92C643.329 19.92 641.259 21.936 641.259 24.996ZM649.377 25.032C649.377 27.174 647.919 28.38 646.371 28.38C644.841 28.38 643.365 27.138 643.365 24.996C643.365 22.854 644.841 21.702 646.371 21.702C647.919 21.702 649.377 22.908 649.377 25.032ZM668.2 30H670.234V24.15C670.234 21.378 668.47 19.92 666.148 19.92C664.708 19.92 663.304 20.676 662.692 21.882C662.008 20.586 660.694 19.92 659.128 19.92C657.94 19.92 656.86 20.406 656.194 21.216V20.082H654.142V30H656.194V24.456C656.194 22.638 657.184 21.702 658.696 21.702C660.19 21.702 661.18 22.638 661.18 24.456V30H663.214V24.456C663.214 22.638 664.204 21.702 665.716 21.702C667.21 21.702 668.2 22.638 668.2 24.456V30ZM686.903 30H688.937V24.15C688.937 21.378 687.173 19.92 684.851 19.92C683.411 19.92 682.007 20.676 681.395 21.882C680.711 20.586 679.397 19.92 677.831 19.92C676.643 19.92 675.563 20.406 674.897 21.216V20.082H672.845V30H674.897V24.456C674.897 22.638 675.887 21.702 677.399 21.702C678.893 21.702 679.883 22.638 679.883 24.456V30H681.917V24.456C681.917 22.638 682.907 21.702 684.419 21.702C685.913 21.702 686.903 22.638 686.903 24.456V30ZM695.724 21.648C697.254 21.648 698.46 22.62 698.496 24.15H693.006C693.222 22.584 694.338 21.648 695.724 21.648ZM700.368 27.048H698.154C697.776 27.822 697.074 28.434 695.814 28.434C694.302 28.434 693.132 27.444 692.988 25.806H700.566C700.62 25.464 700.638 25.14 700.638 24.798C700.638 21.882 698.64 19.92 695.814 19.92C692.88 19.92 690.864 21.918 690.864 25.032C690.864 28.146 692.97 30.162 695.814 30.162C698.244 30.162 699.81 28.776 700.368 27.048ZM704.71 24.78C704.71 22.674 705.646 22.044 707.158 22.044H707.68V19.92C706.276 19.92 705.286 20.532 704.71 21.522V20.082H702.658V30H704.71V24.78Z" fill="#212832"/>
<circle cx="436.415" cy="24.4151" r="23.4151" fill="#A9CF54" stroke="#A9CF54"/>
<path d="M426.136 24.17C426.136 28.1412 427.185 31.1383 431.007 31.1383C434.828 31.1383 435.877 28.1412 435.877 24.17C435.877 20.2737 434.828 17.2766 431.007 17.2766C427.185 17.2766 426.136 20.2737 426.136 24.17ZM433.779 24.17C433.779 26.8487 433.498 29.1902 431.007 29.1902C428.515 29.1902 428.234 26.8487 428.234 24.17C428.234 21.6224 428.515 19.2247 431.007 19.2247C433.498 19.2247 433.779 21.6224 433.779 24.17ZM437.968 30.9885H447.072V29.2089H441.134C443.325 27.2046 446.697 24.6758 446.697 21.3602C446.697 18.9063 445.124 17.2391 442.351 17.2391C439.935 17.2391 438.024 18.6815 437.949 21.6412H440.01C440.066 20.1051 440.871 19.0561 442.37 19.0561C443.962 19.0561 444.58 20.0302 444.58 21.4538C444.58 24.1325 441.19 26.6052 437.968 29.4337V30.9885Z" fill="#212832"/>
<g filter="url(#filter7_d_955_5)">
<rect x="860" y="1" width="365" height="47" fill="white" shape-rendering="crispEdges"/>
<rect x="859.766" y="0.765849" width="365.468" height="47.4683" stroke="black" stroke-opacity="0.2" stroke-width="0.468302" shape-rendering="crispEdges"/>
</g>
<path d="M1225 1H1223V48H1225V1Z" fill="#3498DB" stroke="#3498DB" stroke-width="0.936604"/>
<path d="M979.182 17.328C975.654 17.328 972.792 19.974 972.792 23.718C972.792 27.48 975.654 30.108 979.182 30.108C982.548 30.108 984.996 27.642 985.374 24.744V23.142H978.48V24.78H983.178C982.872 26.886 981.45 28.254 979.182 28.254C976.698 28.254 974.898 26.472 974.898 23.718C974.898 20.964 976.698 19.2 979.182 19.2C980.676 19.2 981.864 19.83 982.53 21.09H984.996C984.042 18.642 981.792 17.328 979.182 17.328ZM986.714 24.996C986.714 28.056 988.784 30.162 991.358 30.162C993.014 30.162 994.202 29.37 994.832 28.524V30H996.902V20.082H994.832V21.522C994.22 20.712 993.068 19.92 991.394 19.92C988.784 19.92 986.714 21.936 986.714 24.996ZM994.832 25.032C994.832 27.174 993.374 28.38 991.826 28.38C990.296 28.38 988.82 27.138 988.82 24.996C988.82 22.854 990.296 21.702 991.826 21.702C993.374 21.702 994.832 22.908 994.832 25.032ZM1013.66 30H1015.69V24.15C1015.69 21.378 1013.93 19.92 1011.6 19.92C1010.16 19.92 1008.76 20.676 1008.15 21.882C1007.46 20.586 1006.15 19.92 1004.58 19.92C1003.4 19.92 1002.32 20.406 1001.65 21.216V20.082H999.597V30H1001.65V24.456C1001.65 22.638 1002.64 21.702 1004.15 21.702C1005.65 21.702 1006.64 22.638 1006.64 24.456V30H1008.67V24.456C1008.67 22.638 1009.66 21.702 1011.17 21.702C1012.67 21.702 1013.66 22.638 1013.66 24.456V30ZM1022.48 21.648C1024.01 21.648 1025.21 22.62 1025.25 24.15H1019.76C1019.97 22.584 1021.09 21.648 1022.48 21.648ZM1027.12 27.048H1024.91C1024.53 27.822 1023.83 28.434 1022.57 28.434C1021.05 28.434 1019.88 27.444 1019.74 25.806H1027.32C1027.37 25.464 1027.39 25.14 1027.39 24.798C1027.39 21.882 1025.39 19.92 1022.57 19.92C1019.63 19.92 1017.62 21.918 1017.62 25.032C1017.62 28.146 1019.72 30.162 1022.57 30.162C1025 30.162 1026.56 28.776 1027.12 27.048ZM1038.17 17.49H1034.09V30H1038.17C1042.19 30 1044.81 27.642 1044.81 23.79C1044.81 19.92 1042.19 17.49 1038.17 17.49ZM1036.14 28.326V19.164H1038.17C1041.12 19.164 1042.71 20.928 1042.71 23.79C1042.71 26.634 1041.12 28.326 1038.17 28.326H1036.14ZM1051.02 21.648C1052.55 21.648 1053.76 22.62 1053.8 24.15H1048.31C1048.52 22.584 1049.64 21.648 1051.02 21.648ZM1055.67 27.048H1053.45C1053.08 27.822 1052.37 28.434 1051.11 28.434C1049.6 28.434 1048.43 27.444 1048.29 25.806H1055.87C1055.92 25.464 1055.94 25.14 1055.94 24.798C1055.94 21.882 1053.94 19.92 1051.11 19.92C1048.18 19.92 1046.16 21.918 1046.16 25.032C1046.16 28.146 1048.27 30.162 1051.11 30.162C1053.54 30.162 1055.11 28.776 1055.67 27.048ZM1065.35 27.228C1065.25 23.646 1059.65 24.762 1059.65 22.764C1059.65 22.098 1060.22 21.648 1061.32 21.648C1062.44 21.648 1063.1 22.242 1063.18 23.106H1065.23C1065.12 21.126 1063.64 19.92 1061.39 19.92C1059.05 19.92 1057.58 21.198 1057.58 22.782C1057.58 26.418 1063.34 25.302 1063.34 27.246C1063.34 27.93 1062.71 28.434 1061.52 28.434C1060.39 28.434 1059.61 27.768 1059.54 26.958H1057.42C1057.51 28.758 1059.18 30.162 1061.56 30.162C1063.9 30.162 1065.35 28.902 1065.35 27.228ZM1067.57 30H1069.62V20.082H1067.57V30ZM1068.62 18.768C1069.34 18.768 1069.91 18.192 1069.91 17.454C1069.91 16.716 1069.34 16.14 1068.62 16.14C1067.88 16.14 1067.3 16.716 1067.3 17.454C1067.3 18.192 1067.88 18.768 1068.62 18.768ZM1071.63 24.996C1071.63 28.056 1073.7 30.162 1076.31 30.162C1077.93 30.162 1079.12 29.352 1079.75 28.506V30.162C1079.75 32.142 1078.56 33.114 1076.98 33.114C1075.56 33.114 1074.46 32.412 1074.15 31.386H1072.12C1072.37 33.582 1074.33 34.896 1076.98 34.896C1080.08 34.896 1081.82 32.862 1081.82 30.162V20.082H1079.75V21.522C1079.14 20.676 1077.93 19.92 1076.31 19.92C1073.7 19.92 1071.63 21.936 1071.63 24.996ZM1079.75 25.032C1079.75 27.174 1078.29 28.38 1076.75 28.38C1075.22 28.38 1073.74 27.138 1073.74 24.996C1073.74 22.854 1075.22 21.702 1076.75 21.702C1078.29 21.702 1079.75 22.908 1079.75 25.032ZM1091.55 30H1093.59V24.15C1093.59 21.378 1091.84 19.92 1089.52 19.92C1088.33 19.92 1087.23 20.406 1086.57 21.216V20.082H1084.52V30H1086.57V24.456C1086.57 22.638 1087.56 21.702 1089.07 21.702C1090.56 21.702 1091.55 22.638 1091.55 24.456V30ZM1100.38 21.648C1101.91 21.648 1103.12 22.62 1103.15 24.15H1097.66C1097.88 22.584 1099 21.648 1100.38 21.648ZM1105.03 27.048H1102.81C1102.43 27.822 1101.73 28.434 1100.47 28.434C1098.96 28.434 1097.79 27.444 1097.65 25.806H1105.22C1105.28 25.464 1105.3 25.14 1105.3 24.798C1105.3 21.882 1103.3 19.92 1100.47 19.92C1097.54 19.92 1095.52 21.918 1095.52 25.032C1095.52 28.146 1097.63 30.162 1100.47 30.162C1102.9 30.162 1104.47 28.776 1105.03 27.048ZM1109.37 24.78C1109.37 22.674 1110.3 22.044 1111.82 22.044H1112.34V19.92C1110.93 19.92 1109.94 20.532 1109.37 21.522V20.082H1107.32V30H1109.37V24.78Z" fill="#212832"/>
<circle cx="856.415" cy="24.415" r="23.415" fill="#3498DB" stroke="#3498DB"/>
<path d="M845.548 24.9942C845.548 28.9654 846.597 31.9625 850.418 31.9625C854.24 31.9625 855.289 28.9654 855.289 24.9942C855.289 21.0979 854.24 18.1008 850.418 18.1008C846.597 18.1008 845.548 21.0979 845.548 24.9942ZM853.191 24.9942C853.191 27.6729 852.91 30.0144 850.418 30.0144C847.927 30.0144 847.646 27.6729 847.646 24.9942C847.646 22.4466 847.927 20.0489 850.418 20.0489C852.91 20.0489 853.191 22.4466 853.191 24.9942ZM857.511 21.7161H859.59C859.721 20.7608 860.414 19.8616 861.913 19.8616C863.374 19.8616 864.142 20.6484 864.142 21.8285C864.142 23.2896 862.962 23.8515 861.032 23.8703H860.527V25.6311H861.014C863.243 25.6311 864.404 26.2493 864.404 28.0475C864.404 29.3213 863.617 30.2954 862.025 30.2954C860.414 30.2954 859.478 29.3213 859.384 28.0475H857.323C857.454 30.7262 859.459 32.0749 862.044 32.0749C864.891 32.0749 866.427 30.4265 866.427 28.2536C866.427 26.3616 865.509 25.1815 864.086 24.7507V24.6758C865.153 24.3198 866.184 23.2147 866.184 21.585C866.184 19.5994 864.704 18.0259 861.988 18.0259C859.496 18.0259 857.661 19.3558 857.511 21.7161Z" fill="#212832"/>
<defs>
<filter id="filter0_d_955_5" x="23.5312" y="0.531738" width="365.938" height="47.9365" filterUnits="userSpaceOnUse" color-interpolation-filters="sRGB">
<feFlood flood-opacity="0" result="BackgroundImageFix"/>
<feColorMatrix in="SourceAlpha" type="matrix" values="0 0 0 0 0 0 0 0 0 0 0 0 0 0 0 0 0 0 127 0" result="hardAlpha"/>
<feOffset/>
<feComposite in2="hardAlpha" operator="out"/>
<feColorMatrix type="matrix" values="0 0 0 0 0 0 0 0 0 0 0 0 0 0 0 0 0 0 0.1 0"/>
<feBlend mode="normal" in2="BackgroundImageFix" result="effect1_dropShadow_955_5"/>
<feBlend mode="normal" in="SourceGraphic" in2="effect1_dropShadow_955_5" result="shape"/>
</filter>
<filter id="filter1_d_955_5" x="23.5312" y="75.5317" width="365.938" height="47.9365" filterUnits="userSpaceOnUse" color-interpolation-filters="sRGB">
<feFlood flood-opacity="0" result="BackgroundImageFix"/>
<feColorMatrix in="SourceAlpha" type="matrix" values="0 0 0 0 0 0 0 0 0 0 0 0 0 0 0 0 0 0 127 0" result="hardAlpha"/>
<feOffset/>
<feComposite in2="hardAlpha" operator="out"/>
<feColorMatrix type="matrix" values="0 0 0 0 0 0 0 0 0 0 0 0 0 0 0 0 0 0 0.1 0"/>
<feBlend mode="normal" in2="BackgroundImageFix" result="effect1_dropShadow_955_5"/>
<feBlend mode="normal" in="SourceGraphic" in2="effect1_dropShadow_955_5" result="shape"/>
</filter>
<filter id="filter2_d_955_5" x="23.5312" y="150.532" width="365.938" height="47.9365" filterUnits="userSpaceOnUse" color-interpolation-filters="sRGB">
<feFlood flood-opacity="0" result="BackgroundImageFix"/>
<feColorMatrix in="SourceAlpha" type="matrix" values="0 0 0 0 0 0 0 0 0 0 0 0 0 0 0 0 0 0 127 0" result="hardAlpha"/>
<feOffset/>
<feComposite in2="hardAlpha" operator="out"/>
<feColorMatrix type="matrix" values="0 0 0 0 0 0 0 0 0 0 0 0 0 0 0 0 0 0 0.1 0"/>
<feBlend mode="normal" in2="BackgroundImageFix" result="effect1_dropShadow_955_5"/>
<feBlend mode="normal" in="SourceGraphic" in2="effect1_dropShadow_955_5" result="shape"/>
</filter>
<filter id="filter3_d_955_5" x="435.531" y="75.5317" width="365.938" height="47.9365" filterUnits="userSpaceOnUse" color-interpolation-filters="sRGB">
<feFlood flood-opacity="0" result="BackgroundImageFix"/>
<feColorMatrix in="SourceAlpha" type="matrix" values="0 0 0 0 0 0 0 0 0 0 0 0 0 0 0 0 0 0 127 0" result="hardAlpha"/>
<feOffset/>
<feComposite in2="hardAlpha" operator="out"/>
<feColorMatrix type="matrix" values="0 0 0 0 0 0 0 0 0 0 0 0 0 0 0 0 0 0 0.1 0"/>
<feBlend mode="normal" in2="BackgroundImageFix" result="effect1_dropShadow_955_5"/>
<feBlend mode="normal" in="SourceGraphic" in2="effect1_dropShadow_955_5" result="shape"/>
</filter>
<filter id="filter4_d_955_5" x="435.531" y="150.532" width="365.938" height="47.9365" filterUnits="userSpaceOnUse" color-interpolation-filters="sRGB">
<feFlood flood-opacity="0" result="BackgroundImageFix"/>
<feColorMatrix in="SourceAlpha" type="matrix" values="0 0 0 0 0 0 0 0 0 0 0 0 0 0 0 0 0 0 127 0" result="hardAlpha"/>
<feOffset/>
<feComposite in2="hardAlpha" operator="out"/>
<feColorMatrix type="matrix" values="0 0 0 0 0 0 0 0 0 0 0 0 0 0 0 0 0 0 0.1 0"/>
<feBlend mode="normal" in2="BackgroundImageFix" result="effect1_dropShadow_955_5"/>
<feBlend mode="normal" in="SourceGraphic" in2="effect1_dropShadow_955_5" result="shape"/>
</filter>
<filter id="filter5_d_955_5" x="858.531" y="75.5317" width="365.938" height="47.9365" filterUnits="userSpaceOnUse" color-interpolation-filters="sRGB">
<feFlood flood-opacity="0" result="BackgroundImageFix"/>
<feColorMatrix in="SourceAlpha" type="matrix" values="0 0 0 0 0 0 0 0 0 0 0 0 0 0 0 0 0 0 127 0" result="hardAlpha"/>
<feOffset/>
<feComposite in2="hardAlpha" operator="out"/>
<feColorMatrix type="matrix" values="0 0 0 0 0 0 0 0 0 0 0 0 0 0 0 0 0 0 0.1 0"/>
<feBlend mode="normal" in2="BackgroundImageFix" result="effect1_dropShadow_955_5"/>
<feBlend mode="normal" in="SourceGraphic" in2="effect1_dropShadow_955_5" result="shape"/>
</filter>
<filter id="filter6_d_955_5" x="436.531" y="0.531738" width="365.938" height="47.9365" filterUnits="userSpaceOnUse" color-interpolation-filters="sRGB">
<feFlood flood-opacity="0" result="BackgroundImageFix"/>
<feColorMatrix in="SourceAlpha" type="matrix" values="0 0 0 0 0 0 0 0 0 0 0 0 0 0 0 0 0 0 127 0" result="hardAlpha"/>
<feOffset/>
<feComposite in2="hardAlpha" operator="out"/>
<feColorMatrix type="matrix" values="0 0 0 0 0 0 0 0 0 0 0 0 0 0 0 0 0 0 0.1 0"/>
<feBlend mode="normal" in2="BackgroundImageFix" result="effect1_dropShadow_955_5"/>
<feBlend mode="normal" in="SourceGraphic" in2="effect1_dropShadow_955_5" result="shape"/>
</filter>
<filter id="filter7_d_955_5" x="859.531" y="0.531738" width="365.938" height="47.9365" filterUnits="userSpaceOnUse" color-interpolation-filters="sRGB">
<feFlood flood-opacity="0" result="BackgroundImageFix"/>
<feColorMatrix in="SourceAlpha" type="matrix" values="0 0 0 0 0 0 0 0 0 0 0 0 0 0 0 0 0 0 127 0" result="hardAlpha"/>
<feOffset/>
<feComposite in2="hardAlpha" operator="out"/>
<feColorMatrix type="matrix" values="0 0 0 0 0 0 0 0 0 0 0 0 0 0 0 0 0 0 0.1 0"/>
<feBlend mode="normal" in2="BackgroundImageFix" result="effect1_dropShadow_955_5"/>
<feBlend mode="normal" in="SourceGraphic" in2="effect1_dropShadow_955_5" result="shape"/>
</filter>
</defs>
</svg>
