<svg width="481" height="454" viewBox="0 0 481 454" fill="none" xmlns="http://www.w3.org/2000/svg">
<mask id="mask0_777_26676" style="mask-type:alpha" maskUnits="userSpaceOnUse" x="0" y="0" width="481" height="454">
<rect width="481" height="454" fill="#D9D9D9"/>
</mask>
<g mask="url(#mask0_777_26676)">
<path d="M97.9546 413.488H357.379C392.941 379.375 415.114 331.362 415.114 278.232C415.114 174.701 331.198 90.7847 227.667 90.7847C124.136 90.7847 40.3047 174.701 40.3047 278.232C40.3047 331.362 62.3924 379.375 97.9546 413.488Z" fill="url(#paint0_linear_777_26676)"/>
<g opacity="0.66">
<path d="M242.762 361.466C233.382 357.885 219.481 350.295 210.867 359.249C204.557 365.816 205.409 375.879 211.123 382.531C214.449 386.368 219.31 389.268 224.427 389.865C229.629 390.462 232.785 388.074 236.281 384.663C239.351 381.763 242.08 380.74 246.259 380.228C248.562 379.972 251.035 379.887 253.252 378.949C256.749 377.414 258.795 374.088 258.71 370.25C258.539 365.816 255.555 362.319 251.632 360.528C245.918 357.97 239.692 359.59 234.49 362.49C233.808 362.916 234.405 363.939 235.087 363.598C240.716 360.699 247.709 358.908 253.337 362.831C256.322 364.878 258.198 368.8 257.346 372.382C256.407 376.39 253.081 378.181 249.329 378.778C245.491 379.375 241.569 379.205 238.243 381.422C233.04 384.833 230.653 389.95 223.233 388.586C212.232 386.454 203.363 373.661 209.162 363.087C216.24 350.295 232.273 358.226 242.592 361.722C242.848 361.552 242.848 361.466 242.762 361.466Z" fill="#001200"/>
</g>
<g opacity="0.66">
<path d="M254.529 370.08C258.452 369.568 262.972 369.483 266.724 368.203C267.151 368.033 267.065 367.436 266.639 367.436C262.631 367.436 258.367 368.8 254.444 369.568C254.103 369.568 254.188 370.165 254.529 370.08Z" fill="#001200"/>
</g>
<g opacity="0.66">
<path d="M255.128 370.165C259.221 372.468 264.253 371.956 267.835 368.971C268.261 368.63 267.664 368.033 267.238 368.374C263.741 371.103 259.392 371.529 255.298 369.824C255.043 369.653 254.957 369.994 255.128 370.165Z" fill="#001200"/>
</g>
<g opacity="0.66">
<path d="M256.749 371.529C258.37 375.538 261.269 378.778 265.021 380.825C265.618 381.166 266.13 380.228 265.533 379.972C261.781 378.181 258.881 375.197 257.261 371.359C257.176 371.018 256.579 371.188 256.749 371.529Z" fill="#001200"/>
</g>
<g opacity="0.66">
<path d="M257 371.956C262.202 372.212 265.101 376.817 264.845 381.678C264.845 382.275 265.698 382.36 265.784 381.848C267.063 376.646 262.031 371.529 257 371.359C256.573 371.359 256.659 371.956 257 371.956Z" fill="#001200"/>
</g>
<g opacity="0.66">
<path d="M233.378 358.567C232.269 363.257 235.425 368.545 240.456 369.056C245.061 369.568 250.861 364.878 249.496 359.931C249.411 359.505 248.814 359.505 248.729 359.931C247.705 364.025 245.658 368.204 240.627 367.862C236.192 367.607 233.207 362.916 233.89 358.652C233.89 358.311 233.463 358.226 233.378 358.567Z" fill="#001200"/>
</g>
<path d="M132.134 183.12C136.739 155.286 117.907 128.989 90.0723 124.384C62.2379 119.78 35.9411 138.612 31.3368 166.446C26.7325 194.281 45.5643 220.578 73.3987 225.182C101.233 229.786 127.53 210.954 132.134 183.12Z" fill="#FEFEFE"/>
<path d="M81.9225 201.479L73.2239 195.936C51.5625 181.95 51.5625 171.887 51.5625 168.134C51.5625 159.265 58.7261 152.102 67.5953 152.102C73.9061 152.102 79.2788 155.683 81.9225 160.971C84.5662 155.683 90.0242 152.102 96.2497 152.102C105.119 152.102 112.283 159.265 112.283 168.134C112.283 171.887 112.283 181.95 90.6212 195.936L81.9225 201.479Z" fill="url(#paint1_linear_777_26676)"/>
<path d="M151.853 180.244C157.929 180.244 162.854 175.319 162.854 169.243C162.854 163.167 157.929 158.242 151.853 158.242C145.777 158.242 140.852 163.167 140.852 169.243C140.852 175.319 145.777 180.244 151.853 180.244Z" fill="#FEFEFE"/>
<path d="M179.74 163.359C179.74 166.173 177.438 168.561 174.538 168.561C171.724 168.561 169.336 166.258 169.336 163.359C169.336 160.544 171.639 158.157 174.538 158.157C177.438 158.242 179.74 160.544 179.74 163.359Z" fill="#FEFEFE"/>
<path opacity="0.1" d="M81.7477 123.703C79.9568 123.703 78.0806 123.788 76.375 123.959C81.6624 137.519 94.7957 147.241 110.317 147.241C114.837 147.241 119.186 146.388 123.194 144.853C113.899 132.061 98.8039 123.703 81.7477 123.703Z" fill="url(#paint2_linear_777_26676)"/>
<path d="M114.494 144.597C134.558 144.597 150.823 128.332 150.823 108.267C150.823 88.203 134.558 71.9376 114.494 71.9376C94.4294 71.9376 78.1641 88.203 78.1641 108.267C78.1641 128.332 94.4294 144.597 114.494 144.597Z" fill="url(#paint3_linear_777_26676)"/>
<path d="M114.491 102.98C111.591 102.98 109.203 105.368 109.203 108.267C109.203 111.167 111.591 113.555 114.491 113.555C117.39 113.555 119.778 111.167 119.778 108.267C119.778 105.368 117.39 102.98 114.491 102.98ZM114.491 110.143C113.467 110.143 112.614 109.291 112.614 108.267C112.614 107.244 113.467 106.391 114.491 106.391C115.514 106.391 116.367 107.244 116.367 108.267C116.367 109.291 115.514 110.143 114.491 110.143Z" fill="#FEFEFE"/>
<path d="M130.953 106.562H128.651C127.883 100.08 122.767 94.9635 116.285 94.1959V91.8934C116.285 90.9553 115.518 90.1877 114.58 90.1877C113.641 90.1877 112.874 90.9553 112.874 91.8934V94.1959C106.393 94.9635 101.276 100.08 100.508 106.562H98.2056C97.2675 106.562 96.5 107.329 96.5 108.267C96.5 109.205 97.2675 109.973 98.2056 109.973H100.508C101.276 116.454 106.393 121.571 112.874 122.339V124.641C112.874 125.579 113.641 126.347 114.58 126.347C115.518 126.347 116.285 125.579 116.285 124.641V122.339C122.767 121.571 127.883 116.454 128.651 109.973H130.953C131.892 109.973 132.659 109.205 132.659 108.267C132.659 107.329 131.892 106.562 130.953 106.562ZM116.2 118.927V116.71C116.2 115.772 115.432 115.004 114.494 115.004C113.556 115.004 112.789 115.772 112.789 116.71V118.927C108.183 118.16 104.602 114.578 103.834 109.973H106.051C106.99 109.973 107.757 109.205 107.757 108.267C107.757 107.329 106.99 106.562 106.051 106.562H103.834C104.602 101.957 108.183 98.3747 112.789 97.6072V99.8245C112.789 100.763 113.556 101.53 114.494 101.53C115.432 101.53 116.2 100.763 116.2 99.8245V97.6072C120.805 98.3747 124.387 101.957 125.154 106.562H122.937C121.999 106.562 121.231 107.329 121.231 108.267C121.231 109.205 121.999 109.973 122.937 109.973H125.154C124.387 114.578 120.805 118.245 116.2 118.927Z" fill="#FEFEFE"/>
<path d="M362.068 100.251C334.267 100.251 311.752 122.765 311.752 150.567C311.752 160.8 314.822 170.267 320.025 178.283C312.946 181.865 305.527 184.85 297.852 186.982C307.403 189.028 317.125 188.687 326.25 185.958C335.375 195.169 347.997 200.882 362.068 200.882C389.87 200.882 412.384 178.368 412.384 150.567C412.384 122.765 389.87 100.251 362.068 100.251Z" fill="url(#paint4_linear_777_26676)"/>
<path d="M394.562 161.909L394.392 160.118L392.857 144.512C392.175 137.689 386.461 132.402 379.553 132.402H345.185C338.277 132.402 332.563 137.604 331.881 144.512L330.175 161.909C329.664 167.196 333.842 171.716 339.045 171.716C341.859 171.716 344.417 170.437 346.123 168.22L352.348 160.118H372.219L378.444 168.22C380.15 170.437 382.794 171.716 385.523 171.716C390.895 171.716 395.074 167.111 394.562 161.909ZM345.014 137.263C345.014 136.836 345.355 136.581 345.696 136.581H350.216C350.643 136.581 350.899 136.922 350.899 137.263V141.697C349.79 142.806 349.108 143.488 347.999 144.597C346.89 143.488 346.208 142.806 345.099 141.697V137.263H345.014ZM339.045 149.117C338.618 149.117 338.362 148.776 338.362 148.435V143.915C338.362 143.488 338.703 143.232 339.045 143.232H343.479C344.588 144.341 345.27 145.023 346.379 146.132C345.27 147.241 344.588 147.923 343.479 149.032H339.045V149.117ZM350.899 155.172C350.899 155.598 350.557 155.854 350.216 155.854H345.696C345.27 155.854 345.014 155.513 345.014 155.172V150.737C346.123 149.629 346.805 148.946 347.914 147.838C349.022 148.946 349.705 149.629 350.813 150.737V155.172H350.899ZM357.55 148.435C357.55 148.861 357.209 149.117 356.868 149.117H352.434C351.325 148.008 350.643 147.326 349.534 146.217C350.643 145.109 351.325 144.426 352.434 143.318H356.868C357.295 143.318 357.55 143.659 357.55 144V148.435ZM370.598 149.714C368.722 149.714 367.102 148.179 367.102 146.217C367.102 144.341 368.637 142.721 370.598 142.721C372.475 142.721 374.095 144.256 374.095 146.217C374.095 148.093 372.56 149.714 370.598 149.714ZM377.591 156.622C375.715 156.622 374.095 155.087 374.095 153.125C374.095 151.249 375.63 149.629 377.591 149.629C379.468 149.629 381.088 151.164 381.088 153.125C381.088 155.087 379.468 156.622 377.591 156.622ZM377.591 142.721C375.715 142.721 374.095 141.186 374.095 139.224C374.095 137.348 375.63 135.728 377.591 135.728C379.468 135.728 381.088 137.263 381.088 139.224C381.088 141.186 379.468 142.721 377.591 142.721ZM384.585 149.714C382.708 149.714 381.088 148.179 381.088 146.217C381.088 144.341 382.623 142.721 384.585 142.721C386.461 142.721 388.081 144.256 388.081 146.217C387.996 148.093 386.461 149.714 384.585 149.714Z" fill="#FEFEFE"/>
<path d="M103.75 247.531C104.944 248.81 106.735 249.578 108.611 249.578C110.487 249.578 112.193 248.81 113.472 247.531C112.875 244.802 111.681 243.011 110.061 242.329C110.828 241.817 111.34 240.964 111.34 239.941C111.34 238.406 110.061 237.127 108.526 237.127C106.991 237.127 105.711 238.406 105.711 239.941C105.711 240.964 106.223 241.817 106.991 242.329C105.456 242.926 104.262 244.802 103.75 247.531Z" fill="#FEFEFE"/>
<path opacity="0.1" d="M339.977 195.766C346.628 199.006 354.133 200.882 361.979 200.882C365.561 200.882 369.143 200.456 372.469 199.774C367.863 194.742 361.297 191.501 353.877 191.501C348.846 191.501 343.985 193.037 339.977 195.766Z" fill="url(#paint5_linear_777_26676)"/>
<path d="M382.371 224.072C385.593 210.604 377.288 197.074 363.82 193.852C350.352 190.629 336.822 198.935 333.6 212.403C330.378 225.871 338.683 239.401 352.151 242.623C365.619 245.845 379.149 237.539 382.371 224.072Z" fill="#FEFEFE"/>
<path d="M364.967 224.164V234.057L357.974 230.731L350.981 234.057V224.164C351.151 224.42 351.322 224.761 351.578 225.102C352.004 225.955 352.601 226.978 353.624 227.319C353.88 227.405 354.051 227.405 354.307 227.405C355.074 227.405 355.842 227.064 356.524 226.722C357.036 226.467 357.633 226.211 357.974 226.211C358.315 226.211 358.912 226.467 359.424 226.722C360.106 227.064 360.873 227.405 361.641 227.405C361.897 227.405 362.153 227.405 362.323 227.319C363.346 226.978 363.943 225.955 364.37 225.102C364.54 224.761 364.796 224.42 364.967 224.164ZM367.952 221.861C367.269 222.8 365.223 222.544 364.199 223.226C363.261 223.908 362.92 225.955 361.726 226.381C360.617 226.722 359.168 225.273 357.888 225.273C356.609 225.273 355.16 226.722 354.051 226.381C352.857 226.04 352.601 223.908 351.578 223.226C350.64 222.544 348.593 222.885 347.825 221.861C347.143 220.923 348.081 219.047 347.655 217.853C347.314 216.745 345.438 215.807 345.438 214.527C345.438 213.248 347.314 212.395 347.655 211.201C347.996 210.007 347.058 208.217 347.825 207.193C348.508 206.255 350.554 206.511 351.578 205.829C352.516 205.146 352.857 203.1 354.051 202.673C355.16 202.332 356.609 203.782 357.888 203.782C359.168 203.782 360.617 202.332 361.726 202.673C362.92 203.014 363.176 205.146 364.199 205.829C365.137 206.511 367.184 206.17 367.952 207.193C368.634 208.131 367.696 210.007 368.122 211.201C368.463 212.31 370.34 213.248 370.34 214.527C370.34 215.807 368.463 216.659 368.122 217.853C367.696 219.047 368.634 220.923 367.952 221.861ZM363.943 212.651L359.85 212.054L357.974 208.302L356.098 212.054L352.004 212.651L354.989 215.551L354.307 219.644L357.974 217.683L361.641 219.644L360.959 215.551L363.943 212.651Z" fill="url(#paint6_linear_777_26676)"/>
<path d="M290.087 155.598C285.055 155.598 281.047 159.692 281.047 164.638C281.047 168.134 283.008 169.584 285.908 170.181V173.507C285.908 174.104 286.42 174.616 287.017 174.616C287.614 174.616 288.125 174.104 288.125 173.507V172.399H289.063V173.507C289.063 174.104 289.575 174.616 290.172 174.616C290.769 174.616 291.281 174.104 291.281 173.507V172.399H292.219V173.507C292.219 174.104 292.73 174.616 293.327 174.616C293.924 174.616 294.436 174.104 294.436 173.507V170.096C297.25 169.499 299.126 167.964 299.126 164.553C299.126 159.692 295.118 155.598 290.087 155.598ZM286.505 167.708C284.885 167.708 283.605 166.429 283.605 164.809C283.605 163.188 284.885 161.909 286.505 161.909C288.125 161.909 289.404 163.188 289.404 164.809C289.319 166.429 288.04 167.708 286.505 167.708ZM293.668 167.708C292.048 167.708 290.769 166.429 290.769 164.809C290.769 163.188 292.048 161.909 293.668 161.909C295.289 161.909 296.568 163.188 296.568 164.809C296.568 166.429 295.289 167.708 293.668 167.708Z" fill="white"/>
<path d="M76.5435 244.546C69.5504 244.546 63.9219 250.175 63.9219 257.168C63.9219 264.161 69.5504 269.789 76.5435 269.789C83.5365 269.789 89.165 264.161 89.165 257.168C89.165 250.175 83.5365 244.546 76.5435 244.546Z" fill="url(#paint7_linear_777_26676)"/>
<path d="M72.9627 257.168C72.9627 258.106 73.3038 259.044 73.9861 259.811C74.6683 260.579 75.6064 261.005 76.6298 261.005C77.6532 261.091 78.506 260.835 79.2735 260.067C79.6999 259.726 80.1263 259.47 80.5527 259.47C80.8938 259.47 81.235 259.641 81.4908 259.897C81.7466 260.152 81.9172 260.494 81.9172 260.92C81.9172 261.346 81.7466 261.688 81.4055 262.029C80.2969 263.223 78.5912 263.82 76.8856 263.82C75.0095 263.82 73.3891 263.137 72.1099 261.858C70.8307 260.664 70.1484 258.959 70.1484 257.168C70.1484 255.292 70.916 253.671 72.1099 252.392C73.3038 251.198 75.0095 250.43 76.8856 250.43C78.6765 250.43 80.2969 251.027 81.4055 252.221C81.7466 252.562 81.9172 252.904 81.9172 253.33C81.9172 253.756 81.7466 254.098 81.4908 254.353C81.1497 254.609 80.8938 254.78 80.5527 254.78C80.1263 254.78 79.6999 254.524 79.2735 254.183C78.506 253.586 77.6532 253.245 76.7151 253.245C75.6917 253.245 74.7536 253.756 74.0714 254.439C73.3038 255.206 72.9627 256.23 72.9627 257.168Z" fill="#FEFEFE"/>
<path d="M363.005 275.418C362.067 271.921 359.338 269.107 355.842 268.169C355.501 268.084 355.501 267.572 355.842 267.487C359.338 266.549 362.067 263.734 363.005 260.238C363.091 259.897 363.602 259.897 363.688 260.238C364.626 263.734 367.355 266.549 370.851 267.487C371.192 267.572 371.192 268.084 370.851 268.169C367.355 269.107 364.626 271.921 363.688 275.418C363.602 275.759 363.091 275.759 363.005 275.418Z" fill="white"/>
<path d="M374.943 284.287C374.431 282.496 373.067 281.046 371.19 280.535C371.02 280.449 371.02 280.279 371.19 280.194C372.981 279.682 374.431 278.232 374.943 276.441C375.028 276.271 375.199 276.271 375.284 276.441C375.796 278.232 377.16 279.682 379.036 280.194C379.207 280.279 379.207 280.449 379.036 280.535C377.245 281.046 375.796 282.496 375.284 284.287C375.199 284.458 374.943 284.458 374.943 284.287Z" fill="white"/>
<path d="M347.654 85.8384C346.716 82.3419 343.987 79.5276 340.49 78.5895C340.149 78.5042 340.149 77.9926 340.49 77.9073C343.987 76.9692 346.716 74.1549 347.654 70.6584C347.739 70.3173 348.251 70.3173 348.336 70.6584C349.274 74.1549 352.003 76.9692 355.5 77.9073C355.841 77.9926 355.841 78.5042 355.5 78.5895C352.003 79.5276 349.274 82.3419 348.336 85.8384C348.166 86.1795 347.739 86.1795 347.654 85.8384Z" fill="white"/>
<path d="M310.13 112.19C309.619 110.399 308.254 108.95 306.378 108.438C306.207 108.353 306.207 108.182 306.378 108.097C308.169 107.585 309.619 106.135 310.13 104.344C310.216 104.174 310.386 104.174 310.471 104.344C310.983 106.135 312.348 107.585 314.224 108.097C314.394 108.182 314.394 108.353 314.224 108.438C312.433 108.95 310.983 110.399 310.471 112.19C310.386 112.361 310.13 112.361 310.13 112.19Z" fill="white"/>
<path d="M53.8648 109.205C52.9267 105.709 50.1977 102.895 46.7012 101.956C46.36 101.871 46.36 101.36 46.7012 101.274C50.1977 100.336 52.9267 97.5219 53.8648 94.0254C53.95 93.6843 54.4617 93.6843 54.547 94.0254C55.4851 97.5219 58.2141 100.336 61.7106 101.274C62.0517 101.36 62.0517 101.871 61.7106 101.956C58.2141 102.895 55.4851 105.709 54.547 109.205C54.4617 109.546 53.95 109.546 53.8648 109.205Z" fill="white"/>
<path d="M63.9272 117.904C63.4155 116.113 62.051 114.663 60.1748 114.152C60.0042 114.066 60.0042 113.896 60.1748 113.811C61.9657 113.299 63.4155 111.849 63.9272 110.058C64.0124 109.888 64.183 109.888 64.2683 110.058C64.78 111.849 66.1445 113.299 68.0206 113.811C68.1912 113.896 68.1912 114.066 68.0206 114.152C66.2297 114.663 64.78 116.113 64.2683 117.904C64.2683 118.075 64.0124 118.075 63.9272 117.904Z" fill="white"/>
<path d="M48.2333 238.918C51.6716 238.918 54.4588 236.13 54.4588 232.692C54.4588 229.254 51.6716 226.467 48.2333 226.467C44.7951 226.467 42.0078 229.254 42.0078 232.692C42.0078 236.13 44.7951 238.918 48.2333 238.918Z" fill="url(#paint8_linear_777_26676)"/>
<path d="M394.645 250.857C394.645 254.353 391.831 257.168 388.334 257.168C384.838 257.168 382.023 254.353 382.023 250.857C382.023 247.36 384.838 244.546 388.334 244.546C391.831 244.546 394.645 247.36 394.645 250.857Z" fill="url(#paint9_linear_777_26676)"/>
<path d="M152.363 201.479C152.363 204.464 149.975 206.852 146.99 206.852C144.005 206.852 141.617 204.464 141.617 201.479C141.617 198.494 144.005 196.107 146.99 196.107C149.975 196.192 152.363 198.58 152.363 201.479Z" fill="url(#paint10_linear_777_26676)"/>
<path d="M45.0811 373.832C45.0811 373.832 41.4993 379.802 42.011 384.151C42.5227 388.5 46.4456 391.912 47.5542 394.726C48.6629 397.54 44.74 403.169 48.407 409.224C51.9888 415.279 78.8523 441.204 86.4423 443.08C94.0323 445.042 112.368 442.91 115.438 435.064C118.508 427.218 117.655 398.563 117.655 398.563L95.6527 350.721L45.0811 373.832Z" fill="url(#paint11_linear_777_26676)"/>
<path d="M115.441 435.149C115.953 433.784 116.379 431.738 116.72 429.435L112.797 409.138L88.4069 393.617L81.9256 390.206C81.9256 390.206 70.8391 401.889 68.2806 404.533C66.1486 406.75 56.3413 412.976 48.9219 409.906C53.8682 416.984 79.1966 441.204 86.5308 443.08C94.0355 445.042 112.456 442.995 115.441 435.149Z" fill="url(#paint12_linear_777_26676)"/>
<path d="M105.293 423.039C103.161 418.349 98.0437 415.876 93.0121 414.767C87.9805 413.743 82.7784 413.658 77.8321 412.123C73.8239 410.844 70.0715 408.456 67.4278 405.215C64.2724 407.774 55.6591 412.635 48.9219 409.906C53.8682 416.984 79.1966 441.204 86.5308 443.08C94.1208 445.042 112.456 442.91 115.526 435.064C116.038 433.699 116.464 431.652 116.805 429.35L115.526 422.527L105.293 423.039Z" fill="url(#paint13_linear_777_26676)"/>
<path d="M415.886 373.832C415.886 373.832 419.468 379.802 418.956 384.151C418.444 388.5 414.521 391.912 413.413 394.726C412.304 397.54 416.227 403.169 412.56 409.224C408.978 415.279 382.115 441.204 374.525 443.08C366.935 445.042 348.599 442.91 345.529 435.064C342.459 427.218 343.312 398.563 343.312 398.563L365.314 350.721L415.886 373.832Z" fill="url(#paint14_linear_777_26676)"/>
<path d="M345.443 435.149C344.932 433.784 344.505 431.738 344.164 429.435L348.087 409.138L372.477 393.617L378.959 390.206C378.959 390.206 390.045 401.889 392.604 404.533C394.736 406.75 404.543 412.976 411.962 409.906C407.016 416.984 381.688 441.204 374.354 443.08C366.934 445.042 348.513 442.995 345.443 435.149Z" fill="url(#paint15_linear_777_26676)"/>
<path d="M355.677 423.039C357.809 418.349 362.926 415.876 367.957 414.767C372.989 413.743 378.191 413.658 383.137 412.123C387.146 410.844 390.898 408.456 393.542 405.215C396.697 407.774 405.31 412.635 412.048 409.906C407.101 416.984 381.773 441.204 374.439 443.08C366.849 445.042 348.513 442.91 345.443 435.064C344.932 433.699 344.505 431.652 344.164 429.35L345.443 422.527L355.677 423.039Z" fill="url(#paint16_linear_777_26676)"/>
<path d="M270.392 183.656C243.273 172.569 201.229 176.066 185.026 183.656C168.737 191.246 216.153 236.615 228.178 235.677C240.203 234.654 285.146 189.625 270.392 183.656Z" fill="#131163"/>
<path d="M174.961 215.551C176.581 219.644 178.457 223.652 180.248 227.661C184.512 237.127 188.521 246.678 195.428 253.927C210.353 269.533 232.611 277.379 252.055 272.348C274.654 266.549 289.493 248.299 300.665 226.467C276.189 213.76 242.418 195.851 242.418 193.548C242.418 189.966 244.635 163.7 244.635 163.7H210.097C210.097 163.7 212.314 189.966 212.314 193.548C212.399 195.254 194.234 205.317 174.961 215.551Z" fill="url(#paint17_linear_777_26676)"/>
<path d="M243.013 184.423C232.523 186.982 221.351 185.617 211.544 180.5C210.947 172.399 210.18 163.7 210.18 163.7H244.633C244.633 163.7 243.695 175.554 243.013 184.423Z" fill="url(#paint18_linear_777_26676)"/>
<path d="M258.534 204.038C257.852 203.611 257.17 203.27 256.488 202.844C248.983 210.945 233.376 227.064 227.833 227.319C223.313 227.49 205.916 210.775 198.155 202.929C197.473 203.355 196.791 203.697 196.023 204.123C199.946 214.613 210.521 237.724 227.663 237.638C243.695 237.638 254.356 214.868 258.534 204.038Z" fill="url(#paint19_linear_777_26676)"/>
<path opacity="0.3" d="M353.45 370.336L353.023 369.824L353.45 370.336Z" fill="url(#paint20_linear_777_26676)"/>
<path d="M325.48 503.8L305.354 249.834L315.503 232.436L271.071 198.324C271.071 198.324 235.594 238.747 227.663 238.577C218.197 238.321 184.937 200.371 184.937 200.371L152.701 222.97C147.926 226.04 139.909 232.351 139.909 232.351L150.058 249.748L124.047 503.715H325.48V503.8Z" fill="url(#paint21_linear_777_26676)"/>
<path d="M315.504 232.351C320.024 237.383 319.512 249.748 319.512 249.748L358.4 311.918H307.658L302.797 249.066L315.504 232.351Z" fill="url(#paint22_linear_777_26676)"/>
<path opacity="0.2" d="M307.66 311.918H324.46C313.885 293.583 306.636 273.371 303.055 252.563L307.66 311.918Z" fill="url(#paint23_linear_777_26676)"/>
<path d="M319.771 250.175C318.747 262.199 321.818 274.65 328.555 284.713C334.695 293.839 343.735 301.002 353.968 304.925L319.771 250.175Z" fill="url(#paint24_linear_777_26676)"/>
<path d="M139.912 232.351C135.392 237.383 135.904 249.748 135.904 249.748L97.0156 311.918H147.758L152.619 249.066L139.912 232.351Z" fill="url(#paint25_linear_777_26676)"/>
<path opacity="0.2" d="M147.761 311.918H130.961C141.536 293.583 148.785 273.371 152.366 252.563L147.761 311.918Z" fill="url(#paint26_linear_777_26676)"/>
<path d="M135.651 250.175C136.674 262.199 133.604 274.65 126.867 284.713C120.727 293.839 111.687 301.002 101.453 304.925L135.651 250.175Z" fill="url(#paint27_linear_777_26676)"/>
<path opacity="0.5" d="M325.481 503.8L305.355 249.834L310.813 240.538L310.216 229.196L299.897 223.055C293.245 262.114 283.523 300.149 270.901 336.138C266.296 349.442 260.582 363.342 250.86 369.142C241.053 374.941 229.796 370.762 220.074 364.877C205.32 355.923 191.846 342.875 180.418 327.013C170.44 313.112 157.392 292.559 153.64 272.945C150.655 257.424 157.989 264.075 163.788 269.192C171.464 276.015 179.395 282.24 187.582 287.784C195.769 293.412 204.126 298.358 212.569 302.793C219.733 306.46 231.075 307.825 237.386 313.538C209.158 287.954 184.768 254.353 165.665 215.551C160.548 218.45 155.943 221.094 152.787 223.141C150.143 224.761 146.647 227.405 143.918 229.451L143.321 238.235L150.143 249.919L124.133 503.885H325.481V503.8ZM277.383 415.62C253.674 426.536 230.734 414.937 208.305 399.757C185.791 384.577 170.44 357.117 161.656 324.199C193.722 368.033 234.06 399.843 277.383 415.62Z" fill="url(#paint28_linear_777_26676)"/>
<path d="M184.255 112.446C184.255 112.446 177.176 99.8245 166.857 106.988C156.538 114.152 167.966 140.418 179.138 139.992C184.681 139.736 186.728 131.464 186.728 131.464L184.255 112.446Z" fill="url(#paint29_linear_777_26676)"/>
<path d="M167.711 114.578C174.533 116.881 179.991 123.277 180.929 130.526C181.1 131.72 180.929 133.084 180.247 134.107C179.565 135.131 178.286 135.813 177.092 135.557C175.386 135.216 174.448 133.34 174.107 131.634C173.425 128.735 173.425 125.665 174.107 122.68C172.657 120.207 170.014 116.369 167.711 114.578Z" fill="url(#paint30_linear_777_26676)"/>
<path d="M184.251 112.446C184.251 112.446 177.172 99.8245 166.853 106.988C165.659 107.841 164.721 108.95 164.039 110.314C166.256 109.461 168.644 109.12 170.947 109.205C175.552 109.376 179.987 110.996 184.251 112.958V112.446Z" fill="url(#paint31_linear_777_26676)"/>
<path d="M271.161 112.446C271.161 112.446 278.239 99.8245 288.558 106.988C298.877 114.152 287.449 140.418 276.277 139.992C270.734 139.736 268.688 131.464 268.688 131.464L271.161 112.446Z" fill="url(#paint32_linear_777_26676)"/>
<path d="M287.624 114.578C280.801 116.881 275.343 123.277 274.405 130.526C274.235 131.72 274.405 133.084 275.088 134.107C275.77 135.131 277.049 135.813 278.243 135.557C279.949 135.216 280.887 133.34 281.228 131.634C281.91 128.735 281.91 125.665 281.228 122.68C282.763 120.207 285.407 116.369 287.624 114.578Z" fill="url(#paint33_linear_777_26676)"/>
<path d="M271.164 112.446C271.164 112.446 278.242 99.8245 288.561 106.988C289.755 107.841 290.693 108.95 291.376 110.314C289.158 109.461 286.77 109.12 284.468 109.205C279.863 109.376 275.428 110.996 271.164 112.958V112.446Z" fill="url(#paint34_linear_777_26676)"/>
<path d="M227.663 43.1979C187.154 43.1979 176.75 87.4587 176.75 87.4587C176.75 87.4587 182.464 144.512 188.007 154.831C189.627 157.901 204.04 181.438 227.748 181.438C251.456 181.438 265.783 157.901 267.489 154.831C273.032 144.512 278.746 87.4587 278.746 87.4587C278.746 87.4587 268.171 43.1979 227.663 43.1979Z" fill="url(#paint35_linear_777_26676)"/>
<path d="M211.036 142.124C210.268 142.721 209.245 143.232 208.222 143.147C207.966 143.147 207.795 142.977 207.71 142.806C207.539 142.38 208.136 141.868 208.392 141.697C208.904 141.356 209.501 141.1 210.098 140.93C210.609 140.759 211.292 140.674 211.547 141.1C211.633 141.442 211.377 141.868 211.036 142.124Z" fill="url(#paint36_linear_777_26676)"/>
<path d="M249.835 147.241C250.177 148.264 249.665 149.032 248.13 147.752C247.789 147.497 247.533 147.241 247.362 146.9C247.192 146.558 247.192 146.132 247.362 145.876C247.703 145.45 248.386 145.535 248.897 145.876C249.324 146.303 249.665 146.814 249.835 147.241Z" fill="url(#paint37_linear_777_26676)"/>
<path d="M209.587 142.124C209.587 142.124 209.076 153.466 215.642 159.18C220.077 163.018 231.675 164.979 237.474 161.227C245.747 155.854 248.22 146.985 248.22 146.985C248.22 146.985 241.909 150.14 230.225 148.349C218.457 146.473 215.045 146.388 209.587 142.124Z" fill="url(#paint38_linear_777_26676)"/>
<path d="M247.709 147.155L244.468 148.093C241.483 148.776 236.622 149.287 230.226 148.264C220.589 146.814 214.364 144.938 210.185 142.465C210.185 142.465 209.844 150.14 214.62 154.404C216.581 156.195 220.419 158.157 225.45 158.839C228.947 159.265 233.978 159.606 238.754 157.304C243.871 154.745 247.709 147.155 247.709 147.155Z" fill="#7A336D"/>
<path d="M243.527 150.567C244.21 150.14 244.892 148.861 245.489 147.752L244.38 148.093C241.395 148.776 236.534 149.287 230.138 148.264C222.207 147.07 216.664 145.62 212.57 143.829C212.741 144.853 212.997 146.132 213.338 146.985C214.105 148.776 221.695 152.869 228.603 153.466C235.511 153.978 242.248 151.334 243.527 150.567Z" fill="white"/>
<path d="M248.133 146.9C235.938 152.528 219.905 150.822 209.586 142.124C217.517 145.62 222.719 144.341 231.588 145.62C235.426 146.132 240.372 148.349 248.133 146.9Z" fill="url(#paint39_linear_777_26676)"/>
<path d="M222.119 43.5391C186.216 47.3767 176.75 87.4588 176.75 87.4588C176.75 87.4588 178.37 103.918 180.758 120.804L183.146 122.339C185.449 117.904 185.278 112.617 185.278 107.585C185.278 102.553 185.534 97.2661 188.348 93.0873C191.248 88.8232 196.535 85.8384 201.567 86.7765C202.078 80.1246 208.901 76.1164 215.553 75.4341C222.205 74.7519 228.686 77.3956 234.57 80.551C240.455 83.7064 246.083 87.4588 252.479 89.4202C261.008 91.9786 270.559 90.7847 278.405 86.5207C276.955 81.3185 268.256 53.9434 243.184 45.5858C240.967 45.0741 238.664 44.6477 236.361 44.3066C231.671 43.6244 226.895 43.3685 222.119 43.5391Z" fill="url(#paint40_linear_777_26676)"/>
<path d="M180.931 105.965C181.187 100.677 183.233 95.5604 186.645 91.5522C190.056 87.544 194.917 85.6678 201.483 86.6912C202.848 78.6748 207.879 73.4727 213.849 71.3406C219.904 69.2086 227.068 69.635 233.208 71.4259C230.564 66.5649 225.277 63.4948 219.904 62.1303C208.562 59.2308 195.855 62.8978 187.838 71.4259C179.822 79.954 177.349 94.7929 180.931 105.965Z" fill="url(#paint41_linear_777_26676)"/>
<path d="M257.939 97.1807C262.118 98.6305 266.126 104.003 266.126 104.003C266.467 105.197 266.552 131.378 266.552 131.378C266.552 131.378 244.806 135.387 238.068 127.114C238.068 127.114 231.502 110.399 234.742 90.1024L257.939 97.1807Z" fill="url(#paint42_linear_777_26676)"/>
<path d="M263.314 120.121C263.314 120.121 257.942 129.587 250.352 130.014C242.762 130.526 240.203 124.215 240.203 124.215L263.314 120.121Z" fill="url(#paint43_linear_777_26676)"/>
<path d="M239.435 95.4751C235.427 95.5604 233.636 90.273 235.512 87.544C248.986 87.8851 259.049 92.405 264.934 100.421C265.445 101.615 265.701 102.809 266.213 104.003C258.452 99.4833 250.692 95.3046 239.435 95.4751Z" fill="#131163"/>
<path d="M263.313 120.121C263.313 120.121 256.746 108.95 247.877 108.694C239.605 108.438 237.899 114.919 238.326 117.648C238.837 120.377 263.313 120.121 263.313 120.121Z" fill="url(#paint44_linear_777_26676)"/>
<path d="M263.311 120.121C263.311 120.121 258.961 127.2 250.348 128.649C241.82 130.099 239.944 124.641 239.517 122.936C239.091 121.23 239.517 115.516 243.184 114.237C246.766 112.958 253.333 108.694 263.311 120.121Z" fill="#FFEBED"/>
<path d="M238.324 117.648C240.798 111.593 246.767 108.523 253.846 110.996C256.404 111.849 259.73 114.493 263.226 120.121C256.233 112.446 249.07 111.934 243.441 115.175C241.65 116.198 239.262 118.501 239.433 122.936C239.518 122.936 238.239 118.672 238.324 117.648Z" fill="url(#paint45_linear_777_26676)"/>
<path d="M248.469 131.378C252.378 131.378 255.547 128.209 255.547 124.3C255.547 120.391 252.378 117.222 248.469 117.222C244.56 117.222 241.391 120.391 241.391 124.3C241.391 128.209 244.56 131.378 248.469 131.378Z" fill="url(#paint46_linear_777_26676)"/>
<path d="M248.47 129.161C251.155 129.161 253.331 126.985 253.331 124.3C253.331 121.615 251.155 119.439 248.47 119.439C245.786 119.439 243.609 121.615 243.609 124.3C243.609 126.985 245.786 129.161 248.47 129.161Z" fill="url(#paint47_linear_777_26676)"/>
<path d="M243.095 130.611C242.413 129.843 245.057 126.517 246.251 127.285C247.444 128.052 244.119 131.72 243.095 130.611ZM251.623 120.462C250.77 120.462 250.088 121.145 250.088 121.998C250.088 122.85 250.77 123.533 251.623 123.533C252.476 123.533 253.158 122.85 253.158 121.998C253.158 121.145 252.476 120.462 251.623 120.462Z" fill="white"/>
<path d="M203.279 101.018C199.1 102.468 192.704 108.353 192.704 108.353C192.363 109.546 188.781 131.464 188.781 131.464C188.781 131.464 210.528 135.472 217.265 127.2C217.265 127.2 221.359 116.454 218.118 96.0721L203.279 101.018Z" fill="url(#paint48_linear_777_26676)"/>
<path d="M192.109 120.121C192.109 120.121 197.482 129.588 205.072 130.014C212.662 130.526 215.221 124.215 215.221 124.215L192.109 120.121Z" fill="url(#paint49_linear_777_26676)"/>
<path d="M214.623 101.786C218.205 101.615 219.143 96.2427 217.181 93.599C205.327 94.7929 197.055 99.995 192.706 108.353C192.365 109.546 192.279 110.74 192.023 112.02C198.249 106.988 204.73 102.298 214.623 101.786Z" fill="#131163"/>
<path d="M192.109 120.121C192.109 120.121 198.676 108.95 207.545 108.694C215.817 108.438 217.523 114.919 217.097 117.648C216.585 120.377 192.109 120.121 192.109 120.121Z" fill="url(#paint50_linear_777_26676)"/>
<path d="M192.109 120.121C192.109 120.121 196.459 127.2 205.072 128.649C213.6 130.099 215.476 124.641 215.903 122.936C216.329 121.23 215.903 115.516 212.236 114.237C208.569 112.958 202.087 108.694 192.109 120.121Z" fill="#FFEBED"/>
<path d="M217.011 117.648C214.538 111.593 208.569 108.523 201.49 110.996C198.932 111.849 195.606 114.493 192.109 120.121C199.102 112.446 206.266 111.934 211.895 115.175C213.685 116.198 216.073 118.501 215.903 122.936C215.903 122.936 217.097 118.672 217.011 117.648Z" fill="url(#paint51_linear_777_26676)"/>
<path d="M206.946 131.378C210.855 131.378 214.024 128.209 214.024 124.3C214.024 120.391 210.855 117.222 206.946 117.222C203.036 117.222 199.867 120.391 199.867 124.3C199.867 128.209 203.036 131.378 206.946 131.378Z" fill="url(#paint52_linear_777_26676)"/>
<path d="M211.808 124.3C211.808 126.944 209.591 129.161 206.947 129.161C204.303 129.161 202.086 126.944 202.086 124.3C202.086 121.656 204.303 119.439 206.947 119.439C209.591 119.439 211.808 121.656 211.808 124.3Z" fill="url(#paint53_linear_777_26676)"/>
<path d="M201.486 130.611C200.804 129.843 203.447 126.517 204.641 127.285C205.92 128.052 202.594 131.72 201.486 130.611ZM210.099 120.462C209.246 120.462 208.564 121.145 208.564 121.998C208.564 122.85 209.246 123.533 210.099 123.533C210.952 123.533 211.634 122.85 211.634 121.998C211.634 121.145 210.867 120.462 210.099 120.462Z" fill="white"/>
<path d="M225.707 122.765C228.095 115.857 235.343 134.875 235.343 134.875C235.343 134.875 232.188 139.907 227.753 139.907C223.319 139.907 220.078 134.449 220.078 134.449C220.078 134.449 221.954 133.425 225.707 122.765Z" fill="#FFB398"/>
<path d="M219.992 134.534C219.992 134.534 222.209 138.201 225.45 139.48C226.132 139.736 226.9 139.907 227.667 139.907C232.102 139.907 235.343 134.79 235.343 134.79C229.799 137.604 224.256 136.154 221.613 135.131C220.589 134.875 219.992 134.534 219.992 134.534Z" fill="url(#paint54_linear_777_26676)"/>
<path d="M219.992 134.534C219.992 134.534 222.209 138.201 225.45 139.48C222.38 137.433 221.613 135.216 221.613 135.216C221.613 135.216 225.28 129.588 226.559 116.795C224.427 128.991 220.163 133.766 219.992 134.534Z" fill="#CB4D7A"/>
<path d="M231.933 137.689C232.445 137.433 232.957 137.263 233.469 137.178C232.616 137.945 231.592 138.798 230.398 139.395C230.74 138.627 231.251 138.116 231.933 137.689Z" fill="#9F4A8B"/>
<path d="M249.922 139.31C249.922 142.124 253.163 144.426 257.256 144.426C261.264 144.426 264.59 142.124 264.59 139.31C264.59 136.495 261.349 134.193 257.256 134.193C253.163 134.193 249.922 136.495 249.922 139.31Z" fill="url(#paint55_linear_777_26676)"/>
<path d="M205.496 139.31C205.496 142.124 202.256 144.426 198.162 144.426C194.069 144.426 190.828 142.124 190.828 139.31C190.828 136.495 194.069 134.193 198.162 134.193C202.256 134.193 205.496 136.495 205.496 139.31Z" fill="url(#paint56_linear_777_26676)"/>
<path d="M165.584 215.465C160.382 210.263 164.731 204.891 171.298 203.014C177.95 201.138 169.507 187.493 184.943 183.656C184.943 183.656 179.826 193.122 227.669 232.522V241.647C227.669 241.647 186.051 235.592 165.584 215.465Z" fill="url(#paint57_linear_777_26676)"/>
<path d="M289.835 215.465C295.037 210.263 290.687 204.891 284.121 203.014C277.469 201.138 285.912 187.493 270.476 183.656C270.476 183.656 275.507 193.804 227.75 232.522V241.647C227.665 241.647 269.367 235.592 289.835 215.465Z" fill="url(#paint58_linear_777_26676)"/>
<path d="M279.946 75.69C281.651 75.3489 284.039 81.9155 284.295 83.1094C285.318 87.3735 284.636 91.9786 282.589 95.8163C278.581 103.406 275.255 114.066 273.294 129.588C271.588 121.401 272.612 112.617 272.867 104.259C273.123 95.9016 271.759 86.7765 265.789 80.9774C270.224 77.6514 274.573 76.8839 279.946 75.69Z" fill="url(#paint59_linear_777_26676)"/>
<path d="M279.946 75.69C281.651 75.3489 284.039 81.9155 284.295 83.1094C285.318 87.3735 284.636 91.9786 282.589 95.8163C278.581 103.406 275.255 114.066 273.294 129.588C271.588 121.401 272.612 112.617 272.867 104.259C273.123 95.9016 271.759 86.7765 265.789 80.9774C270.224 77.6514 274.573 76.8839 279.946 75.69Z" fill="url(#paint60_linear_777_26676)"/>
<path d="M201.574 86.7765C198.845 82.1713 198.589 72.1935 202.597 68.6117C206.605 65.0299 212.404 64.0065 217.692 64.8593C222.979 65.7121 227.925 68.1 232.531 70.829C237.136 73.558 241.57 76.6281 246.517 78.7601C258.882 84.2181 273.807 83.6211 285.49 76.7986C297.174 69.9762 305.105 57.0987 305.702 43.6244C306.043 35.6932 303.911 27.5915 299.647 20.8543C292.995 28.1032 283.784 36.3755 274.915 41.407C278.497 35.6932 280.97 26.3123 280.629 19.5751C277.985 27.9327 268.604 33.7318 259.906 35.011C251.207 36.2902 242.423 34.2435 233.895 32.1967C225.367 30.2352 216.498 28.1885 207.799 29.553C199.527 30.8322 191.766 35.1815 186.394 41.6629C181.021 48.059 178.121 56.5018 178.292 64.8593C174.54 65.1151 171.299 65.4563 167.632 66.5649C164.05 67.6736 160.639 69.8909 158.763 73.1315C155.863 78.1631 157.142 84.7298 160.042 89.7613C162.941 94.7929 167.291 98.8864 170.787 103.492C177.78 112.702 179.486 117.904 182.982 135.813C185.626 126.773 185.114 116.881 183.409 107.67C182.215 101.36 180.083 94.6223 182.982 88.9085C185.711 83.28 196.03 83.7064 201.574 86.7765Z" fill="url(#paint61_linear_777_26676)"/>
<path d="M274.83 41.407C266.813 46.0122 252.401 49.1676 241.57 50.0204C241.57 50.0204 258.882 67.1619 280.885 56.3312C302.887 45.5005 299.561 20.8543 299.561 20.8543C292.909 28.1885 283.699 36.3755 274.83 41.407Z" fill="url(#paint62_linear_777_26676)"/>
<path d="M178.886 65.7974C177.521 64.2623 176.669 62.4714 176.072 60.5952C175.475 58.7191 175.219 56.7576 175.219 54.8814C175.219 52.92 175.56 50.9585 176.157 49.1676C176.754 47.2914 177.692 45.5005 179.056 44.0508C179.398 46.0975 179.398 47.8884 179.483 49.6793C179.483 51.4702 179.568 53.1758 179.483 54.9667C179.483 56.6723 179.398 58.4632 179.398 60.2541C179.312 61.9597 179.227 63.7506 178.886 65.7974Z" fill="url(#paint63_linear_777_26676)"/>
<path d="M255.211 53.7728C259.134 52.8347 262.801 51.9819 266.297 50.788C269.794 49.594 273.12 48.1443 276.19 46.4386C279.345 44.733 282.33 42.6863 285.145 40.2984C288.044 37.9958 290.688 35.3521 293.587 32.4526C292.905 36.4608 291.029 40.2131 288.556 43.5391C285.997 46.7798 282.757 49.594 279.09 51.5555C275.423 53.6022 271.329 54.8815 267.236 55.3079C263.142 55.7343 258.963 55.3931 255.211 53.7728Z" fill="#9860FF"/>
<path opacity="0.5" d="M202.591 68.6117C206.599 65.0299 212.398 64.0065 217.686 64.8593C222.973 65.7121 227.919 68.1 232.525 70.829C237.13 73.558 241.564 76.6281 246.511 78.7601C258.876 84.2181 273.801 83.6211 285.484 76.7986C287.872 75.4341 290.175 73.7285 292.221 71.8523C290.942 72.2787 289.663 72.7051 288.298 73.0463C277.297 76.1164 265.273 76.6281 254.612 72.4493C248.557 70.0614 243.185 66.3091 237.812 62.642C232.439 58.9749 226.896 55.3931 220.671 53.5169C214.445 51.6408 207.452 51.5555 201.738 54.7962C191.76 60.51 193.466 79.1865 201.482 86.7765C198.839 82.1713 198.583 72.1082 202.591 68.6117Z" fill="url(#paint64_linear_777_26676)"/>
<path d="M178.206 64.8593C174.454 65.1152 171.213 65.4563 167.546 66.5649C163.964 67.6736 160.553 69.8909 158.677 73.1316C155.777 78.1631 157.056 84.7298 159.956 89.7613C161.065 91.6375 162.344 93.4284 163.708 95.134C181.447 92.9167 178.206 64.8593 178.206 64.8593Z" fill="url(#paint65_linear_777_26676)"/>
<path d="M250.775 43.1127C260.497 42.004 269.366 36.2049 274.824 28.1032C270.731 31.8556 265.102 34.2435 259.815 35.011C251.116 36.2902 242.332 34.2435 233.804 32.1967C225.276 30.2353 216.407 28.1885 207.708 29.553C199.436 30.8322 191.675 35.1816 186.303 41.6629C185.876 42.1746 185.45 42.7716 185.023 43.2832C186.729 44.9889 189.032 46.0975 191.42 46.5239C195.172 47.2062 199.095 46.3534 202.762 45.1594C206.429 43.9655 210.011 42.4304 213.763 41.5776C225.873 39.1045 238.409 44.5625 250.775 43.1127Z" fill="url(#paint66_linear_777_26676)"/>
<path d="M220.164 49.3382C221.955 48.8265 223.746 48.7412 225.537 48.9971C227.328 49.2529 229.033 49.7646 230.654 50.5321C232.274 51.2996 233.809 52.323 235.173 53.517C236.538 54.7109 237.647 56.1607 238.414 57.8663C236.709 57.184 235.173 56.5018 233.724 55.7343L229.289 53.6875L224.855 51.6408C223.319 50.9585 221.784 50.2763 220.164 49.3382Z" fill="#9860FF"/>
<path opacity="0.5" d="M179.742 84.3886C177.184 90.4436 172.408 95.4751 166.523 98.5452C167.462 99.6539 168.485 100.763 169.423 101.956C170.702 101.274 171.811 100.421 172.92 99.398C176.928 95.6457 179.742 89.9319 179.742 84.3886Z" fill="url(#paint67_linear_777_26676)"/>
<path d="M201.572 86.7765C197.478 83.6211 194.749 74.496 197.052 69.635C197.649 68.4411 198.416 67.2472 199.44 66.2238C200.463 65.2004 201.657 64.2623 203.021 63.4948C205.75 61.8745 208.906 60.9364 212.147 60.51C215.387 60.0836 218.628 60.0836 221.783 60.5953C225.024 61.0217 227.923 61.9598 230.738 62.9831C233.552 64.0918 236.11 65.371 238.498 66.6502C240.886 68.0147 243.189 69.4645 245.321 70.829C247.453 72.1935 249.585 73.558 251.717 74.8372C253.764 76.1164 255.896 77.225 258.113 78.2484C262.377 80.2099 266.47 81.4038 271.076 81.4038C273.378 81.4038 275.596 81.0627 277.813 80.2951C280.03 79.5276 282.162 78.419 284.124 77.0545C288.132 74.3255 293.76 69.9762 297.172 66.4796C295.637 70.7437 290.69 77.5662 288.132 79.6982C286.341 81.5744 284.124 83.3653 281.48 84.815C278.836 86.1795 275.596 87.2029 272.355 87.544C269.114 87.8851 265.874 87.7146 262.718 87.2029C259.563 86.6912 256.663 85.7531 253.849 84.7298C248.306 82.5125 243.7 79.6129 239.351 76.7986C237.219 75.4341 235.087 74.0696 232.955 72.7904C230.823 71.5112 228.691 70.4026 226.559 69.4645C224.427 68.5264 222.124 67.7589 219.907 67.2472C218.798 66.9913 217.605 66.8208 216.496 66.7355C215.302 66.6502 214.193 66.5649 212.999 66.6502C208.394 66.8208 203.96 68.3558 201.316 71.5112C200.037 73.0463 199.184 75.0077 199.013 77.0545C198.928 78.9307 200.378 84.6445 201.572 86.7765Z" fill="#9860FF"/>
<path d="M330.172 367.436C330.769 366.498 331.707 365.645 332.816 364.963C335.8 363.342 361.641 362.575 369.913 362.234C369.998 362.319 369.998 362.404 370.083 362.49C371.107 365.048 368.804 368.459 366.757 369.739C363.858 371.529 360.191 371.529 356.78 371.529C350.639 371.444 344.499 371.444 338.359 371.359C336.653 371.359 334.862 371.359 333.242 370.677C331.707 370.165 330.428 368.971 330.172 367.436Z" fill="url(#paint68_linear_777_26676)"/>
<path d="M365.652 390.206C364.97 392.679 365.141 395.323 366.079 397.625C363.947 396.176 363.947 392.167 365.652 390.206Z" fill="url(#paint69_linear_777_26676)"/>
<path d="M358.403 350.38C358.574 349.015 358.744 347.736 358.915 346.372C357.636 347.48 357.55 349.015 358.403 350.38Z" fill="url(#paint70_linear_777_26676)"/>
<path d="M385.949 306.545C381.173 304.84 369.745 302.281 352.433 299.893C352.433 299.979 352.519 299.979 352.519 300.064C352.348 299.979 352.178 299.979 352.007 299.893C324.973 296.141 283.526 292.559 229.885 292.559C176.67 292.559 135.479 296.056 108.445 299.808C108.274 299.808 108.104 299.893 107.848 299.979C90.7064 302.367 79.4493 304.84 74.6736 306.631C62.3931 311.065 55.9118 320.873 63.0754 330.595C70.2389 340.402 91.9856 416.387 99.405 418.775C101.963 419.543 115.95 420.14 133.944 420.566H134.029C168.653 421.333 217.775 421.589 229.8 421.589C241.824 421.589 290.946 421.333 325.57 420.566C325.741 420.566 325.826 420.566 325.996 420.481C325.996 420.481 325.996 420.481 325.996 420.566C344.246 420.14 358.488 419.543 361.047 418.775C368.466 416.472 390.298 340.402 397.376 330.595C404.625 320.787 398.229 310.98 385.949 306.545Z" fill="url(#paint71_linear_777_26676)"/>
<path opacity="0.3" d="M369.316 404.533C369.913 402.913 370.425 401.207 371.022 399.416C264.079 399.416 157.137 374.514 61.2812 327.183C61.7929 328.292 62.3899 329.401 63.2427 330.509C70.4063 340.317 92.1529 416.302 99.5724 418.69C102.131 419.457 116.117 420.054 134.111 420.481H134.196C136.328 420.566 138.546 420.566 140.848 420.651C141.957 420.651 143.151 420.737 144.26 420.737C145.454 420.737 146.562 420.822 147.756 420.822C152.447 420.907 157.222 420.992 162.083 421.078C163.277 421.078 164.471 421.078 165.75 421.163C166.347 421.163 166.944 421.163 167.541 421.163C170.526 421.163 173.596 421.248 176.581 421.248C177.178 421.248 177.775 421.248 178.372 421.248C179.566 421.248 180.76 421.248 181.954 421.248C183.148 421.248 184.342 421.248 185.45 421.248C205.747 421.419 223.486 421.504 229.967 421.504C231.246 421.504 233.037 421.504 235.169 421.504C239.774 421.504 246 421.504 253.419 421.419C254.442 421.419 255.381 421.419 256.404 421.419C262.033 421.419 268.173 421.333 274.484 421.248C275.677 421.248 276.786 421.248 277.98 421.248C278.577 421.248 279.174 421.248 279.771 421.248C280.965 421.248 282.159 421.248 283.353 421.248C297.68 421.078 312.689 420.907 325.737 420.566C325.908 420.566 325.993 420.566 326.164 420.481C326.164 420.481 326.164 420.481 326.164 420.566C335.289 420.395 343.391 420.14 349.616 419.798C350.042 419.798 350.384 419.798 350.725 419.713C351.492 419.713 352.174 419.628 352.857 419.628C353.198 419.628 353.539 419.628 353.88 419.543C357.121 419.372 359.423 419.116 360.703 418.86C360.788 418.86 360.958 418.775 361.044 418.775C361.129 418.775 361.214 418.69 361.299 418.69C363.09 418.093 365.99 412.55 369.316 404.533Z" fill="url(#paint72_linear_777_26676)"/>
<path opacity="0.7" d="M385.945 312.344C373.665 307.91 318.403 298.358 230.307 298.358C142.212 298.358 87.0356 307.91 74.7551 312.344C67.2504 315.073 61.963 319.764 60.5985 325.222C58.637 317.376 64.7772 310.212 74.7551 306.631C87.0356 302.196 142.298 292.645 230.393 292.645C284.034 292.645 325.481 296.226 352.515 299.979C369.827 302.367 381.255 304.925 386.03 306.631C396.008 310.212 402.149 317.376 400.187 325.222C398.737 319.679 393.45 314.988 385.945 312.344Z" fill="white"/>
<path d="M51.3871 361.21C51.3871 361.21 47.8906 354.729 48.7434 351.659C49.5962 348.589 58.7212 324.369 62.0472 322.493C65.3732 320.531 79.9562 317.547 82.7705 317.803C85.67 318.058 105.796 319.935 108.696 322.493C111.51 324.966 103.579 331.021 95.6479 332.983C87.6315 334.944 75.948 333.494 75.948 333.494L71.5987 347.054L51.3871 361.21Z" fill="url(#paint73_linear_777_26676)"/>
<path d="M52.1546 342.363C50.3637 346.798 49.0845 350.55 48.7434 351.659C47.8906 354.729 51.3871 361.211 51.3871 361.211L71.6839 346.969L76.0333 333.409C73.3043 333.153 67.1641 331.618 67.1641 331.618C67.1641 331.618 60.0005 338.782 52.1546 342.363Z" fill="url(#paint74_linear_777_26676)"/>
<path d="M45.0776 373.832C45.0776 373.832 41.24 367.18 43.0309 363.598C44.8218 360.017 71.2588 340.828 75.864 340.487C80.4692 340.231 117.14 355.667 122.683 360.017C128.226 364.366 128.653 367.521 124.73 369.739C120.722 371.871 109.891 370.933 101.875 363.939L86.5241 361.21C86.5241 361.21 105.542 372.468 107.503 373.832C109.465 375.282 112.45 389.438 112.108 393.106C111.682 396.687 101.534 391.741 101.534 391.741C101.534 391.741 102.557 395.749 96.1609 395.835C91.4704 395.92 82.0042 390.206 82.0042 390.206L70.3208 399.246L45.0776 373.832Z" fill="url(#paint75_linear_777_26676)"/>
<path d="M96.5022 384.663C97.5256 385.857 101.448 391.656 101.448 391.656C101.448 391.656 111.597 396.602 112.023 393.02C112.45 389.438 109.38 375.197 107.418 373.747C106.821 373.32 104.604 371.956 101.79 370.25C99.3165 374.685 78.5932 367.607 78.5932 367.607C76.0348 369.142 60.2578 386.283 60.2578 386.283C60.2578 386.283 76.2906 375.794 76.9729 375.794C77.6551 376.049 95.3936 383.554 96.5022 384.663Z" fill="url(#paint76_linear_777_26676)"/>
<path d="M99.9955 355.667C95.1345 354.217 76.6285 349.783 76.6285 349.783C72.1939 354.814 50.7031 368.886 50.7031 368.886C50.7031 368.886 74.5818 357.629 75.9463 356.946C77.3108 356.264 86.5211 361.125 86.5211 361.125L101.872 363.854C109.973 370.847 120.804 371.871 124.727 369.653C128.053 367.862 128.309 365.304 125.068 361.978C123.021 362.319 120.975 362.575 119.184 362.66C111.167 363.087 104.857 357.117 99.9955 355.667Z" fill="url(#paint77_linear_777_26676)"/>
<path d="M107.418 373.832C107.418 373.832 110.147 380.91 106.138 380.655C102.983 380.484 87.8883 378.523 81.4922 377.67C86.8649 379.887 95.1371 383.554 96.4163 384.492C96.5016 384.492 96.5016 384.577 96.5016 384.577C97.525 385.771 101.448 391.571 101.448 391.571C101.448 391.571 111.596 396.517 112.023 392.935C112.364 389.524 109.379 375.282 107.418 373.832Z" fill="url(#paint78_linear_777_26676)"/>
<path d="M70.1512 374.429C64.9491 379.716 58.553 387.306 53.2656 392.594C57.615 386.027 63.6699 378.437 70.1512 374.429Z" fill="url(#paint79_linear_777_26676)"/>
<path d="M78.425 364.622C77.9133 362.746 77.3164 360.869 76.8047 358.993C79.3631 360.187 79.4484 361.978 78.425 364.622Z" fill="url(#paint80_linear_777_26676)"/>
<path d="M76.6354 347.224C76.3795 345.604 76.209 343.898 75.9531 342.278C77.4882 343.557 77.3176 345.348 76.6354 347.224Z" fill="url(#paint81_linear_777_26676)"/>
<path d="M80.5512 386.198C80.2101 383.298 78.9309 380.484 77.0547 378.267C80.2954 379.461 81.5746 382.872 80.5512 386.198Z" fill="url(#paint82_linear_777_26676)"/>
<path d="M54.6328 353.535C55.1445 360.358 65.1224 352.341 68.0219 349.356C70.4098 346.883 72.3712 344.069 73.9916 341.084C69.9834 342.79 61.6258 348.333 54.6328 353.535Z" fill="#FFCDBA"/>
<path d="M56.5924 366.157C56.5072 366.157 56.5072 366.242 56.4219 366.242C59.7478 367.18 63.4149 366.839 66.3997 365.133C68.1906 364.11 71.8577 361.211 72.3694 358.652C68.2759 360.614 61.4534 363.854 56.5924 366.157Z" fill="#FFCDBA"/>
<path d="M82.8563 317.803C80.8948 317.632 73.5607 318.911 68.0174 320.446C67.8468 321.811 68.188 323.175 69.4672 324.199C73.3048 327.354 80.8095 328.122 85.5853 328.377C93.6017 328.718 101.789 326.586 108.611 322.408C105.2 319.849 85.6706 318.058 82.8563 317.803Z" fill="#FFCDBA"/>
<path d="M409.576 361.21C409.576 361.21 413.072 354.729 412.22 351.659C411.367 348.589 402.242 324.369 398.916 322.493C395.59 320.531 381.007 317.547 378.193 317.803C375.378 318.058 355.167 319.935 352.267 322.493C349.453 324.966 357.384 331.021 365.315 332.983C373.332 334.944 385.015 333.494 385.015 333.494L389.364 347.054L409.576 361.21Z" fill="url(#paint83_linear_777_26676)"/>
<path d="M408.808 342.363C410.599 346.798 411.878 350.55 412.22 351.659C413.072 354.729 409.576 361.211 409.576 361.211L389.279 346.969L384.93 333.409C387.659 333.153 393.799 331.618 393.799 331.618C393.799 331.618 400.877 338.782 408.808 342.363Z" fill="url(#paint84_linear_777_26676)"/>
<path d="M415.88 373.832C415.88 373.832 419.718 367.18 417.927 363.598C416.136 360.017 389.699 340.828 385.094 340.487C380.489 340.231 343.818 355.667 338.275 360.017C332.731 364.366 332.305 367.521 336.228 369.739C340.236 371.871 351.067 370.933 359.083 363.939L374.434 361.21C374.434 361.21 355.416 372.468 353.455 373.832C351.493 375.282 348.508 389.438 348.849 393.106C349.276 396.687 359.424 391.741 359.424 391.741C359.424 391.741 358.401 395.749 364.797 395.835C369.487 395.92 378.954 390.206 378.954 390.206L390.637 399.246L415.88 373.832Z" fill="url(#paint85_linear_777_26676)"/>
<path d="M364.46 384.663C363.436 385.857 359.513 391.656 359.513 391.656C359.513 391.656 349.365 396.602 348.939 393.02C348.512 389.438 351.582 375.197 353.544 373.747C354.141 373.32 356.358 371.956 359.172 370.25C361.645 374.685 382.369 367.607 382.369 367.607C384.927 369.142 400.704 386.283 400.704 386.283C400.704 386.283 384.671 375.794 383.989 375.794C383.307 376.049 365.483 383.554 364.46 384.663Z" fill="url(#paint86_linear_777_26676)"/>
<path d="M360.963 355.667C365.824 354.217 384.33 349.783 384.33 349.783C388.765 354.814 410.256 368.886 410.256 368.886C410.256 368.886 386.377 357.629 385.013 356.946C383.648 356.264 374.438 361.125 374.438 361.125L359.087 363.854C350.985 370.847 340.155 371.871 336.232 369.653C332.906 367.862 332.65 365.304 335.891 361.978C337.938 362.319 339.984 362.575 341.775 362.66C349.792 363.087 356.102 357.117 360.963 355.667Z" fill="url(#paint87_linear_777_26676)"/>
<path d="M353.546 373.832C353.546 373.832 350.817 380.91 354.825 380.655C357.981 380.484 373.075 378.523 379.472 377.67C374.099 379.887 365.827 383.554 364.547 384.492C364.462 384.492 364.462 384.577 364.462 384.577C363.439 385.771 359.516 391.571 359.516 391.571C359.516 391.571 349.367 396.517 348.941 392.935C348.6 389.524 351.585 375.282 353.546 373.832Z" fill="url(#paint88_linear_777_26676)"/>
<path d="M390.812 374.429C396.015 379.716 402.411 387.306 407.698 392.594C403.349 386.027 397.294 378.437 390.812 374.429Z" fill="url(#paint89_linear_777_26676)"/>
<path d="M382.541 364.622C383.053 362.746 383.65 360.869 384.162 358.993C381.603 360.187 381.518 361.978 382.541 364.622Z" fill="url(#paint90_linear_777_26676)"/>
<path d="M384.33 347.224C384.586 345.604 384.756 343.898 385.012 342.278C383.477 343.557 383.648 345.348 384.33 347.224Z" fill="url(#paint91_linear_777_26676)"/>
<path d="M380.407 386.198C380.749 383.298 382.028 380.484 383.904 378.267C380.663 379.461 379.384 382.872 380.407 386.198Z" fill="url(#paint92_linear_777_26676)"/>
<path d="M406.249 353.535C405.738 360.358 395.76 352.341 392.86 349.356C390.472 346.883 388.511 344.069 386.891 341.084C390.984 342.79 399.256 348.333 406.249 353.535Z" fill="#FFCDBA"/>
<path d="M404.371 366.157C404.456 366.157 404.456 366.242 404.541 366.242C401.215 367.18 397.548 366.839 394.563 365.133C392.773 364.11 389.105 361.211 388.594 358.652C392.687 360.614 399.51 363.854 404.371 366.157Z" fill="#FFCDBA"/>
<path d="M378.106 317.803C380.068 317.632 387.402 318.911 392.945 320.446C393.116 321.811 392.775 323.175 391.496 324.199C387.658 327.354 380.153 328.122 375.377 328.377C367.361 328.718 359.174 326.586 352.352 322.408C355.763 319.849 375.292 318.058 378.106 317.803Z" fill="#FFCDBA"/>
</g>
<defs>
<linearGradient id="paint0_linear_777_26676" x1="227.708" y1="550.72" x2="227.708" y2="192.984" gradientUnits="userSpaceOnUse">
<stop offset="0.00049603" stop-color="white" stop-opacity="0.3"/>
<stop offset="1" stop-color="white" stop-opacity="0"/>
</linearGradient>
<linearGradient id="paint1_linear_777_26676" x1="72.7251" y1="129.77" x2="97.6425" y2="234.423" gradientUnits="userSpaceOnUse">
<stop offset="0.00202546" stop-color="#9942B7"/>
<stop offset="0.9985" stop-color="#6456D8"/>
</linearGradient>
<linearGradient id="paint2_linear_777_26676" x1="105.121" y1="121.799" x2="89.8896" y2="157.555" gradientUnits="userSpaceOnUse">
<stop stop-color="#CCEDFF"/>
<stop offset="1" stop-color="#9D68C2"/>
</linearGradient>
<linearGradient id="paint3_linear_777_26676" x1="139.875" y1="48.7504" x2="76.5255" y2="197.465" gradientUnits="userSpaceOnUse">
<stop stop-color="#7DFFCF"/>
<stop offset="1" stop-color="#47C7F4"/>
</linearGradient>
<linearGradient id="paint4_linear_777_26676" x1="398.406" y1="65.1972" x2="303.545" y2="287.885" gradientUnits="userSpaceOnUse">
<stop stop-color="#7DFFCF"/>
<stop offset="1" stop-color="#47C7F4"/>
</linearGradient>
<linearGradient id="paint5_linear_777_26676" x1="346.806" y1="236.018" x2="358.396" y2="189.256" gradientUnits="userSpaceOnUse">
<stop stop-color="#CCEDFF"/>
<stop offset="1" stop-color="#9D68C2"/>
</linearGradient>
<linearGradient id="paint6_linear_777_26676" x1="266.965" y1="32.1714" x2="384.611" y2="272.017" gradientUnits="userSpaceOnUse">
<stop offset="0.00202546" stop-color="#9942B7"/>
<stop offset="0.9985" stop-color="#6456D8"/>
</linearGradient>
<linearGradient id="paint7_linear_777_26676" x1="67.6359" y1="233.234" x2="85.6463" y2="281.588" gradientUnits="userSpaceOnUse">
<stop stop-color="#7DFFCF"/>
<stop offset="1" stop-color="#47C7F4"/>
</linearGradient>
<linearGradient id="paint8_linear_777_26676" x1="12.7049" y1="67.6776" x2="81.825" y2="388.395" gradientUnits="userSpaceOnUse">
<stop stop-color="#7DFFCF"/>
<stop offset="1" stop-color="#47C7F4"/>
</linearGradient>
<linearGradient id="paint9_linear_777_26676" x1="333.91" y1="-1.54726" x2="403.031" y2="319.171" gradientUnits="userSpaceOnUse">
<stop stop-color="#7DFFCF"/>
<stop offset="1" stop-color="#47C7F4"/>
</linearGradient>
<linearGradient id="paint10_linear_777_26676" x1="113.508" y1="45.9513" x2="182.629" y2="366.672" gradientUnits="userSpaceOnUse">
<stop stop-color="#7DFFCF"/>
<stop offset="1" stop-color="#47C7F4"/>
</linearGradient>
<linearGradient id="paint11_linear_777_26676" x1="42.0115" y1="397.284" x2="117.807" y2="397.284" gradientUnits="userSpaceOnUse">
<stop offset="0.0159875" stop-color="#FFC2A9"/>
<stop offset="1" stop-color="#FF9595"/>
</linearGradient>
<linearGradient id="paint12_linear_777_26676" x1="107.539" y1="435.02" x2="63.795" y2="394.992" gradientUnits="userSpaceOnUse">
<stop stop-color="#FF817F"/>
<stop offset="1" stop-color="#CF6074"/>
</linearGradient>
<linearGradient id="paint13_linear_777_26676" x1="48.907" y1="424.52" x2="116.75" y2="424.52" gradientUnits="userSpaceOnUse">
<stop offset="0.0159875" stop-color="#FFA58B"/>
<stop offset="1" stop-color="#FF9595"/>
</linearGradient>
<linearGradient id="paint14_linear_777_26676" x1="418.951" y1="397.284" x2="343.156" y2="397.284" gradientUnits="userSpaceOnUse">
<stop offset="0.0159875" stop-color="#FFC2A9"/>
<stop offset="1" stop-color="#FF9595"/>
</linearGradient>
<linearGradient id="paint15_linear_777_26676" x1="353.426" y1="435.02" x2="397.17" y2="394.992" gradientUnits="userSpaceOnUse">
<stop stop-color="#FF817F"/>
<stop offset="1" stop-color="#CF6074"/>
</linearGradient>
<linearGradient id="paint16_linear_777_26676" x1="412.058" y1="424.52" x2="344.215" y2="424.52" gradientUnits="userSpaceOnUse">
<stop offset="0.0159875" stop-color="#FFA58B"/>
<stop offset="1" stop-color="#FF9595"/>
</linearGradient>
<linearGradient id="paint17_linear_777_26676" x1="237.157" y1="164.562" x2="237.848" y2="221.911" gradientUnits="userSpaceOnUse">
<stop offset="0.0159875" stop-color="#FFC2A9"/>
<stop offset="1" stop-color="#FF9595"/>
</linearGradient>
<linearGradient id="paint18_linear_777_26676" x1="231.051" y1="199.302" x2="227.292" y2="164.716" gradientUnits="userSpaceOnUse">
<stop stop-color="#FF817F"/>
<stop offset="1" stop-color="#CF6074"/>
</linearGradient>
<linearGradient id="paint19_linear_777_26676" x1="196.021" y1="220.249" x2="258.571" y2="220.249" gradientUnits="userSpaceOnUse">
<stop stop-color="#FF817F"/>
<stop offset="1" stop-color="#CF6074"/>
</linearGradient>
<linearGradient id="paint20_linear_777_26676" x1="353.284" y1="370.324" x2="353.205" y2="369.938" gradientUnits="userSpaceOnUse">
<stop stop-color="#9D68C2"/>
<stop offset="1" stop-color="#CCEDFF"/>
</linearGradient>
<linearGradient id="paint21_linear_777_26676" x1="224.255" y1="398.589" x2="223.27" y2="202.553" gradientUnits="userSpaceOnUse">
<stop stop-color="#2E33A0"/>
<stop offset="1" stop-color="#0665A5"/>
</linearGradient>
<linearGradient id="paint22_linear_777_26676" x1="395.372" y1="244.356" x2="324.756" y2="277.916" gradientUnits="userSpaceOnUse">
<stop stop-color="#0665A5"/>
<stop offset="1" stop-color="#2E33A0"/>
</linearGradient>
<linearGradient id="paint23_linear_777_26676" x1="367.549" y1="256.626" x2="295.415" y2="290.907" gradientUnits="userSpaceOnUse">
<stop offset="0.0005167" stop-color="#610057"/>
<stop offset="1" stop-color="#03002D"/>
</linearGradient>
<linearGradient id="paint24_linear_777_26676" x1="370.881" y1="261.362" x2="320.572" y2="285.271" gradientUnits="userSpaceOnUse">
<stop stop-color="#2E33A0"/>
<stop offset="1" stop-color="#0665A5"/>
</linearGradient>
<linearGradient id="paint25_linear_777_26676" x1="60.027" y1="244.356" x2="130.643" y2="277.916" gradientUnits="userSpaceOnUse">
<stop stop-color="#0665A5"/>
<stop offset="1" stop-color="#2E33A0"/>
</linearGradient>
<linearGradient id="paint26_linear_777_26676" x1="87.8548" y1="256.626" x2="159.989" y2="290.907" gradientUnits="userSpaceOnUse">
<stop offset="0.0005167" stop-color="#610057"/>
<stop offset="1" stop-color="#03002D"/>
</linearGradient>
<linearGradient id="paint27_linear_777_26676" x1="84.5244" y1="261.362" x2="134.833" y2="285.271" gradientUnits="userSpaceOnUse">
<stop stop-color="#2E33A0"/>
<stop offset="1" stop-color="#0665A5"/>
</linearGradient>
<linearGradient id="paint28_linear_777_26676" x1="228.764" y1="247.078" x2="224.948" y2="493.205" gradientUnits="userSpaceOnUse">
<stop stop-color="#CCEDFF"/>
<stop offset="1" stop-color="#9D68C2"/>
</linearGradient>
<linearGradient id="paint29_linear_777_26676" x1="166.717" y1="130.527" x2="181.651" y2="116.174" gradientUnits="userSpaceOnUse">
<stop offset="0.0159875" stop-color="#FFAC8B"/>
<stop offset="1" stop-color="#FF9595"/>
</linearGradient>
<linearGradient id="paint30_linear_777_26676" x1="167.737" y1="125.111" x2="180.998" y2="125.111" gradientUnits="userSpaceOnUse">
<stop stop-color="#FF817F"/>
<stop offset="1" stop-color="#CF6074"/>
</linearGradient>
<linearGradient id="paint31_linear_777_26676" x1="180.035" y1="116.11" x2="172.226" y2="109.025" gradientUnits="userSpaceOnUse">
<stop stop-color="#FFA795"/>
<stop offset="0.984" stop-color="#FFC2A9"/>
</linearGradient>
<linearGradient id="paint32_linear_777_26676" x1="288.681" y1="130.527" x2="273.748" y2="116.174" gradientUnits="userSpaceOnUse">
<stop offset="0.0159875" stop-color="#FFAC8B"/>
<stop offset="1" stop-color="#FF9595"/>
</linearGradient>
<linearGradient id="paint33_linear_777_26676" x1="287.666" y1="125.111" x2="274.405" y2="125.111" gradientUnits="userSpaceOnUse">
<stop stop-color="#FF817F"/>
<stop offset="1" stop-color="#CF6074"/>
</linearGradient>
<linearGradient id="paint34_linear_777_26676" x1="275.363" y1="116.11" x2="283.172" y2="109.025" gradientUnits="userSpaceOnUse">
<stop stop-color="#FFA795"/>
<stop offset="0.984" stop-color="#FFC2A9"/>
</linearGradient>
<linearGradient id="paint35_linear_777_26676" x1="227.697" y1="180.46" x2="227.697" y2="62.2555" gradientUnits="userSpaceOnUse">
<stop offset="0.0159875" stop-color="#FFC2A9"/>
<stop offset="1" stop-color="#FF9595"/>
</linearGradient>
<linearGradient id="paint36_linear_777_26676" x1="209.701" y1="143.049" x2="209.499" y2="141.202" gradientUnits="userSpaceOnUse">
<stop offset="0.0159875" stop-color="#FFA58B"/>
<stop offset="1" stop-color="#FF9595"/>
</linearGradient>
<linearGradient id="paint37_linear_777_26676" x1="248.324" y1="148.294" x2="248.689" y2="146.079" gradientUnits="userSpaceOnUse">
<stop offset="0.0159875" stop-color="#FFA58B"/>
<stop offset="1" stop-color="#FF9595"/>
</linearGradient>
<linearGradient id="paint38_linear_777_26676" x1="227.998" y1="151.095" x2="226.392" y2="163.169" gradientUnits="userSpaceOnUse">
<stop stop-color="#E1616A"/>
<stop offset="1" stop-color="#FF8883"/>
</linearGradient>
<linearGradient id="paint39_linear_777_26676" x1="227.993" y1="149.834" x2="228.859" y2="144.588" gradientUnits="userSpaceOnUse">
<stop stop-color="#E1616A"/>
<stop offset="1" stop-color="#FF8883"/>
</linearGradient>
<linearGradient id="paint40_linear_777_26676" x1="176.732" y1="82.891" x2="278.434" y2="82.891" gradientUnits="userSpaceOnUse">
<stop stop-color="#CF6074"/>
<stop offset="1" stop-color="#FF817F"/>
</linearGradient>
<linearGradient id="paint41_linear_777_26676" x1="206.318" y1="61.1888" x2="206.318" y2="105.954" gradientUnits="userSpaceOnUse">
<stop stop-color="#5A1E8A"/>
<stop offset="1" stop-color="#5241B8"/>
</linearGradient>
<linearGradient id="paint42_linear_777_26676" x1="254.429" y1="132.509" x2="247.344" y2="90.0837" gradientUnits="userSpaceOnUse">
<stop stop-color="#FFA58B" stop-opacity="0.6"/>
<stop offset="1" stop-color="#FF9595"/>
</linearGradient>
<linearGradient id="paint43_linear_777_26676" x1="252.885" y1="135.157" x2="252.157" y2="127.014" gradientUnits="userSpaceOnUse">
<stop offset="0.0159875" stop-color="#FFA58B"/>
<stop offset="1" stop-color="#FF9595"/>
</linearGradient>
<linearGradient id="paint44_linear_777_26676" x1="261.517" y1="112.697" x2="238.514" y2="118.262" gradientUnits="userSpaceOnUse">
<stop stop-color="#CF6074"/>
<stop offset="1" stop-color="#FF817F"/>
</linearGradient>
<linearGradient id="paint45_linear_777_26676" x1="257.532" y1="138.295" x2="245.984" y2="109.589" gradientUnits="userSpaceOnUse">
<stop stop-color="#0E1B6D"/>
<stop offset="1" stop-color="#002538"/>
</linearGradient>
<linearGradient id="paint46_linear_777_26676" x1="249.067" y1="131.724" x2="247.729" y2="115.072" gradientUnits="userSpaceOnUse">
<stop stop-color="#8642A0"/>
<stop offset="1" stop-color="#6456C0"/>
</linearGradient>
<linearGradient id="paint47_linear_777_26676" x1="253.334" y1="124.304" x2="243.61" y2="124.304" gradientUnits="userSpaceOnUse">
<stop stop-color="#0E1B6D"/>
<stop offset="1" stop-color="#002538"/>
</linearGradient>
<linearGradient id="paint48_linear_777_26676" x1="202.478" y1="133.801" x2="208.602" y2="97.1296" gradientUnits="userSpaceOnUse">
<stop stop-color="#FFA58B" stop-opacity="0.6"/>
<stop offset="1" stop-color="#FF9595"/>
</linearGradient>
<linearGradient id="paint49_linear_777_26676" x1="202.521" y1="135.157" x2="203.25" y2="127.014" gradientUnits="userSpaceOnUse">
<stop offset="0.0159875" stop-color="#FFA58B"/>
<stop offset="1" stop-color="#FF9595"/>
</linearGradient>
<linearGradient id="paint50_linear_777_26676" x1="193.889" y1="112.697" x2="216.892" y2="118.262" gradientUnits="userSpaceOnUse">
<stop stop-color="#CF6074"/>
<stop offset="1" stop-color="#FF817F"/>
</linearGradient>
<linearGradient id="paint51_linear_777_26676" x1="197.873" y1="138.295" x2="209.421" y2="109.589" gradientUnits="userSpaceOnUse">
<stop stop-color="#0E1B6D"/>
<stop offset="1" stop-color="#002538"/>
</linearGradient>
<linearGradient id="paint52_linear_777_26676" x1="207.524" y1="131.724" x2="206.185" y2="115.072" gradientUnits="userSpaceOnUse">
<stop stop-color="#8642A0"/>
<stop offset="1" stop-color="#6456C0"/>
</linearGradient>
<linearGradient id="paint53_linear_777_26676" x1="211.791" y1="124.304" x2="202.066" y2="124.304" gradientUnits="userSpaceOnUse">
<stop stop-color="#0E1B6D"/>
<stop offset="1" stop-color="#002538"/>
</linearGradient>
<linearGradient id="paint54_linear_777_26676" x1="235.334" y1="137.269" x2="220.01" y2="137.269" gradientUnits="userSpaceOnUse">
<stop stop-color="#E1616A"/>
<stop offset="1" stop-color="#FF8883"/>
</linearGradient>
<linearGradient id="paint55_linear_777_26676" x1="257.128" y1="132.581" x2="257.281" y2="144.918" gradientUnits="userSpaceOnUse">
<stop offset="0.0159875" stop-color="#FFA58B"/>
<stop offset="1" stop-color="#FF9595"/>
</linearGradient>
<linearGradient id="paint56_linear_777_26676" x1="198.116" y1="133.31" x2="198.268" y2="145.646" gradientUnits="userSpaceOnUse">
<stop offset="0.0159875" stop-color="#FFA58B"/>
<stop offset="1" stop-color="#FF9595"/>
</linearGradient>
<linearGradient id="paint57_linear_777_26676" x1="198.342" y1="167.44" x2="192.45" y2="288.958" gradientUnits="userSpaceOnUse">
<stop stop-color="#2E33A0"/>
<stop offset="1" stop-color="#0665A5"/>
</linearGradient>
<linearGradient id="paint58_linear_777_26676" x1="262.388" y1="170.546" x2="256.497" y2="292.064" gradientUnits="userSpaceOnUse">
<stop stop-color="#2E33A0"/>
<stop offset="1" stop-color="#0665A5"/>
</linearGradient>
<linearGradient id="paint59_linear_777_26676" x1="283.478" y1="70.4748" x2="271.344" y2="100.811" gradientUnits="userSpaceOnUse">
<stop offset="0.00202546" stop-color="#9942B7"/>
<stop offset="0.9985" stop-color="#6456D8"/>
</linearGradient>
<linearGradient id="paint60_linear_777_26676" x1="283.478" y1="70.4748" x2="271.344" y2="100.811" gradientUnits="userSpaceOnUse">
<stop offset="0.00202546" stop-color="#9942B7"/>
<stop offset="0.9985" stop-color="#6456D8"/>
</linearGradient>
<linearGradient id="paint61_linear_777_26676" x1="253.331" y1="104.928" x2="217.727" y2="29.7032" gradientUnits="userSpaceOnUse">
<stop offset="0.00202546" stop-color="#9942B7"/>
<stop offset="0.9985" stop-color="#6456D8"/>
</linearGradient>
<linearGradient id="paint62_linear_777_26676" x1="266.722" y1="27.3856" x2="282.516" y2="60.8484" gradientUnits="userSpaceOnUse">
<stop stop-color="#8642C7"/>
<stop offset="1" stop-color="#8A61EF"/>
</linearGradient>
<linearGradient id="paint63_linear_777_26676" x1="211.718" y1="124.622" x2="176.114" y2="49.3975" gradientUnits="userSpaceOnUse">
<stop offset="0.00202546" stop-color="#9942B7"/>
<stop offset="0.9985" stop-color="#6456D8"/>
</linearGradient>
<linearGradient id="paint64_linear_777_26676" x1="194.912" y1="69.4832" x2="292.124" y2="69.4832" gradientUnits="userSpaceOnUse">
<stop stop-color="#CCEDFF"/>
<stop offset="1" stop-color="#9D68C2"/>
</linearGradient>
<linearGradient id="paint65_linear_777_26676" x1="153.169" y1="105.048" x2="172.979" y2="68.9082" gradientUnits="userSpaceOnUse">
<stop stop-color="#8642C7"/>
<stop offset="1" stop-color="#8A61EF"/>
</linearGradient>
<linearGradient id="paint66_linear_777_26676" x1="289.639" y1="38.8676" x2="205.848" y2="36.726" gradientUnits="userSpaceOnUse">
<stop stop-color="#8642C7"/>
<stop offset="1" stop-color="#8A61EF"/>
</linearGradient>
<linearGradient id="paint67_linear_777_26676" x1="167.819" y1="77.0454" x2="179.865" y2="109.705" gradientUnits="userSpaceOnUse">
<stop stop-color="#CCEDFF"/>
<stop offset="1" stop-color="#9D68C2"/>
</linearGradient>
<linearGradient id="paint68_linear_777_26676" x1="349.907" y1="360.201" x2="351.316" y2="387.217" gradientUnits="userSpaceOnUse">
<stop offset="0.0159875" stop-color="#FFC2A9"/>
<stop offset="1" stop-color="#FF9595"/>
</linearGradient>
<linearGradient id="paint69_linear_777_26676" x1="375.296" y1="374.202" x2="362.498" y2="400.666" gradientUnits="userSpaceOnUse">
<stop stop-color="#CF6074"/>
<stop offset="1" stop-color="#FF817F"/>
</linearGradient>
<linearGradient id="paint70_linear_777_26676" x1="364.107" y1="336.829" x2="356.626" y2="352.297" gradientUnits="userSpaceOnUse">
<stop stop-color="#CF6074"/>
<stop offset="1" stop-color="#FF817F"/>
</linearGradient>
<linearGradient id="paint71_linear_777_26676" x1="241.125" y1="271.138" x2="206.212" y2="436.651" gradientUnits="userSpaceOnUse">
<stop stop-color="#20206C"/>
<stop offset="1" stop-color="#362283"/>
</linearGradient>
<linearGradient id="paint72_linear_777_26676" x1="214.157" y1="362.323" x2="257.382" y2="463.182" gradientUnits="userSpaceOnUse">
<stop stop-color="#9D68C2"/>
<stop offset="1" stop-color="#CCEDFF"/>
</linearGradient>
<linearGradient id="paint73_linear_777_26676" x1="48.6013" y1="339.477" x2="109.321" y2="339.477" gradientUnits="userSpaceOnUse">
<stop offset="0.0159875" stop-color="#FFC2A9"/>
<stop offset="1" stop-color="#FF9595"/>
</linearGradient>
<linearGradient id="paint74_linear_777_26676" x1="68.8943" y1="352.317" x2="58.4678" y2="342.343" gradientUnits="userSpaceOnUse">
<stop offset="0.0159875" stop-color="#FFA58B"/>
<stop offset="1" stop-color="#FF9595"/>
</linearGradient>
<linearGradient id="paint75_linear_777_26676" x1="42.5877" y1="369.895" x2="127.348" y2="369.895" gradientUnits="userSpaceOnUse">
<stop offset="0.0159875" stop-color="#FFC2A9"/>
<stop offset="1" stop-color="#FF9595"/>
</linearGradient>
<linearGradient id="paint76_linear_777_26676" x1="85.9131" y1="393.518" x2="87.3426" y2="366.643" gradientUnits="userSpaceOnUse">
<stop offset="0.0159875" stop-color="#FFA58B"/>
<stop offset="1" stop-color="#FF9595"/>
</linearGradient>
<linearGradient id="paint77_linear_777_26676" x1="76.3004" y1="388.446" x2="101.746" y2="347.561" gradientUnits="userSpaceOnUse">
<stop offset="0.0159875" stop-color="#FFA58B"/>
<stop offset="1" stop-color="#FF9595"/>
</linearGradient>
<linearGradient id="paint78_linear_777_26676" x1="97.4879" y1="371.744" x2="95.6932" y2="404.497" gradientUnits="userSpaceOnUse">
<stop stop-color="#FF817F"/>
<stop offset="1" stop-color="#CF6074"/>
</linearGradient>
<linearGradient id="paint79_linear_777_26676" x1="55.5268" y1="382.225" x2="67.9824" y2="384.852" gradientUnits="userSpaceOnUse">
<stop offset="0.0159875" stop-color="#FFA58B"/>
<stop offset="1" stop-color="#FF9595"/>
</linearGradient>
<linearGradient id="paint80_linear_777_26676" x1="76.2742" y1="361.504" x2="79.1023" y2="362.101" gradientUnits="userSpaceOnUse">
<stop offset="0.0159875" stop-color="#FFA58B"/>
<stop offset="1" stop-color="#FF9595"/>
</linearGradient>
<linearGradient id="paint81_linear_777_26676" x1="75.4763" y1="344.556" x2="77.225" y2="344.925" gradientUnits="userSpaceOnUse">
<stop offset="0.0159875" stop-color="#FFA58B"/>
<stop offset="1" stop-color="#FF9595"/>
</linearGradient>
<linearGradient id="paint82_linear_777_26676" x1="76.3017" y1="381.734" x2="81.3159" y2="382.792" gradientUnits="userSpaceOnUse">
<stop offset="0.0159875" stop-color="#FFA58B"/>
<stop offset="1" stop-color="#FF9595"/>
</linearGradient>
<linearGradient id="paint83_linear_777_26676" x1="412.357" y1="339.477" x2="351.638" y2="339.477" gradientUnits="userSpaceOnUse">
<stop offset="0.0159875" stop-color="#FFC2A9"/>
<stop offset="1" stop-color="#FF9595"/>
</linearGradient>
<linearGradient id="paint84_linear_777_26676" x1="392.064" y1="352.317" x2="402.491" y2="342.343" gradientUnits="userSpaceOnUse">
<stop offset="0.0159875" stop-color="#FFA58B"/>
<stop offset="1" stop-color="#FF9595"/>
</linearGradient>
<linearGradient id="paint85_linear_777_26676" x1="418.366" y1="369.895" x2="333.605" y2="369.895" gradientUnits="userSpaceOnUse">
<stop offset="0.0159875" stop-color="#FFC2A9"/>
<stop offset="1" stop-color="#FF9595"/>
</linearGradient>
<linearGradient id="paint86_linear_777_26676" x1="375.044" y1="393.518" x2="373.615" y2="366.643" gradientUnits="userSpaceOnUse">
<stop offset="0.0159875" stop-color="#FFA58B"/>
<stop offset="1" stop-color="#FF9595"/>
</linearGradient>
<linearGradient id="paint87_linear_777_26676" x1="384.654" y1="388.446" x2="359.208" y2="347.561" gradientUnits="userSpaceOnUse">
<stop offset="0.0159875" stop-color="#FFA58B"/>
<stop offset="1" stop-color="#FF9595"/>
</linearGradient>
<linearGradient id="paint88_linear_777_26676" x1="364.149" y1="385.921" x2="362.354" y2="418.673" gradientUnits="userSpaceOnUse">
<stop stop-color="#FF817F"/>
<stop offset="1" stop-color="#CF6074"/>
</linearGradient>
<linearGradient id="paint89_linear_777_26676" x1="405.432" y1="382.225" x2="392.977" y2="384.852" gradientUnits="userSpaceOnUse">
<stop offset="0.0159875" stop-color="#FFA58B"/>
<stop offset="1" stop-color="#FF9595"/>
</linearGradient>
<linearGradient id="paint90_linear_777_26676" x1="384.688" y1="361.504" x2="381.86" y2="362.101" gradientUnits="userSpaceOnUse">
<stop offset="0.0159875" stop-color="#FFA58B"/>
<stop offset="1" stop-color="#FF9595"/>
</linearGradient>
<linearGradient id="paint91_linear_777_26676" x1="385.485" y1="344.556" x2="383.736" y2="344.925" gradientUnits="userSpaceOnUse">
<stop offset="0.0159875" stop-color="#FFA58B"/>
<stop offset="1" stop-color="#FF9595"/>
</linearGradient>
<linearGradient id="paint92_linear_777_26676" x1="384.652" y1="381.734" x2="379.638" y2="382.792" gradientUnits="userSpaceOnUse">
<stop offset="0.0159875" stop-color="#FFA58B"/>
<stop offset="1" stop-color="#FF9595"/>
</linearGradient>
</defs>
</svg>
