<svg width="1226" height="126" viewBox="0 0 1226 126" fill="none" xmlns="http://www.w3.org/2000/svg">
<g filter="url(#filter0_d_953_238)">
<rect x="24" y="1" width="365" height="47" fill="white" shape-rendering="crispEdges"/>
<rect x="23.7658" y="0.765849" width="365.468" height="47.4683" stroke="black" stroke-opacity="0.2" stroke-width="0.468302" shape-rendering="crispEdges"/>
</g>
<path d="M91.1465 30H93.3065L88.8245 17.472H86.4485L81.9665 30H84.1085L85.0085 27.444H90.2465L91.1465 30ZM89.6705 25.77H85.5845L87.6365 19.956L89.6705 25.77ZM102.653 27.228C102.545 23.646 96.9473 24.762 96.9473 22.764C96.9473 22.098 97.5233 21.648 98.6213 21.648C99.7373 21.648 100.403 22.242 100.475 23.106H102.527C102.419 21.126 100.943 19.92 98.6933 19.92C96.3533 19.92 94.8773 21.198 94.8773 22.782C94.8773 26.418 100.637 25.302 100.637 27.246C100.637 27.93 100.007 28.434 98.8193 28.434C97.6853 28.434 96.9113 27.768 96.8393 26.958H94.7153C94.8053 28.758 96.4793 30.162 98.8553 30.162C101.195 30.162 102.653 28.902 102.653 27.228ZM112.269 27.228C112.161 23.646 106.563 24.762 106.563 22.764C106.563 22.098 107.139 21.648 108.237 21.648C109.353 21.648 110.019 22.242 110.091 23.106H112.143C112.035 21.126 110.559 19.92 108.309 19.92C105.969 19.92 104.493 21.198 104.493 22.782C104.493 26.418 110.253 25.302 110.253 27.246C110.253 27.93 109.623 28.434 108.435 28.434C107.301 28.434 106.527 27.768 106.455 26.958H104.331C104.421 28.758 106.095 30.162 108.471 30.162C110.811 30.162 112.269 28.902 112.269 27.228ZM114.486 30H116.538V20.082H114.486V30ZM115.53 18.768C116.25 18.768 116.826 18.192 116.826 17.454C116.826 16.716 116.25 16.14 115.53 16.14C114.792 16.14 114.216 16.716 114.216 17.454C114.216 18.192 114.792 18.768 115.53 18.768ZM126.63 27.228C126.522 23.646 120.924 24.762 120.924 22.764C120.924 22.098 121.5 21.648 122.598 21.648C123.714 21.648 124.38 22.242 124.452 23.106H126.504C126.396 21.126 124.92 19.92 122.67 19.92C120.33 19.92 118.854 21.198 118.854 22.782C118.854 26.418 124.614 25.302 124.614 27.246C124.614 27.93 123.984 28.434 122.796 28.434C121.662 28.434 120.888 27.768 120.816 26.958H118.692C118.782 28.758 120.456 30.162 122.832 30.162C125.172 30.162 126.63 28.902 126.63 27.228ZM129.171 27.246C129.171 29.262 130.269 30 132.033 30H133.653V28.29H132.393C131.529 28.29 131.241 27.984 131.241 27.246V21.756H133.653V20.082H131.241V17.616H129.171V20.082H128.001V21.756H129.171V27.246ZM134.86 24.996C134.86 28.056 136.93 30.162 139.504 30.162C141.16 30.162 142.348 29.37 142.978 28.524V30H145.048V20.082H142.978V21.522C142.366 20.712 141.214 19.92 139.54 19.92C136.93 19.92 134.86 21.936 134.86 24.996ZM142.978 25.032C142.978 27.174 141.52 28.38 139.972 28.38C138.442 28.38 136.966 27.138 136.966 24.996C136.966 22.854 138.442 21.702 139.972 21.702C141.52 21.702 142.978 22.908 142.978 25.032ZM154.782 30H156.816V24.15C156.816 21.378 155.07 19.92 152.748 19.92C151.56 19.92 150.462 20.406 149.796 21.216V20.082H147.744V30H149.796V24.456C149.796 22.638 150.786 21.702 152.298 21.702C153.792 21.702 154.782 22.638 154.782 24.456V30ZM159.757 27.246C159.757 29.262 160.855 30 162.619 30H164.239V28.29H162.979C162.115 28.29 161.827 27.984 161.827 27.246V21.756H164.239V20.082H161.827V17.616H159.757V20.082H158.587V21.756H159.757V27.246ZM180.256 25.032C180.256 21.918 178.024 19.92 175.198 19.92C172.372 19.92 170.14 21.918 170.14 25.032C170.14 28.146 172.282 30.162 175.108 30.162C177.952 30.162 180.256 28.146 180.256 25.032ZM172.228 25.032C172.228 22.782 173.614 21.702 175.162 21.702C176.692 21.702 178.15 22.782 178.15 25.032C178.15 27.282 176.638 28.38 175.108 28.38C173.56 28.38 172.228 27.282 172.228 25.032ZM184.337 21.54V20.082H182.285V34.716H184.337V28.56C184.985 29.334 186.155 30.162 187.793 30.162C190.403 30.162 192.455 28.056 192.455 24.996C192.455 21.936 190.403 19.92 187.793 19.92C186.173 19.92 184.967 20.712 184.337 21.54ZM190.367 24.996C190.367 27.138 188.891 28.38 187.343 28.38C185.813 28.38 184.337 27.174 184.337 25.032C184.337 22.908 185.813 21.702 187.343 21.702C188.891 21.702 190.367 22.854 190.367 24.996ZM198.66 21.648C200.19 21.648 201.396 22.62 201.432 24.15H195.942C196.158 22.584 197.274 21.648 198.66 21.648ZM203.304 27.048H201.09C200.712 27.822 200.01 28.434 198.75 28.434C197.238 28.434 196.068 27.444 195.924 25.806H203.502C203.556 25.464 203.574 25.14 203.574 24.798C203.574 21.882 201.576 19.92 198.75 19.92C195.816 19.92 193.8 21.918 193.8 25.032C193.8 28.146 195.906 30.162 198.75 30.162C201.18 30.162 202.746 28.776 203.304 27.048ZM207.645 24.78C207.645 22.674 208.581 22.044 210.093 22.044H210.615V19.92C209.211 19.92 208.221 20.532 207.645 21.522V20.082H205.593V30H207.645V24.78ZM211.817 24.996C211.817 28.056 213.887 30.162 216.461 30.162C218.117 30.162 219.305 29.37 219.935 28.524V30H222.005V20.082H219.935V21.522C219.323 20.712 218.171 19.92 216.497 19.92C213.887 19.92 211.817 21.936 211.817 24.996ZM219.935 25.032C219.935 27.174 218.477 28.38 216.929 28.38C215.399 28.38 213.923 27.138 213.923 24.996C213.923 22.854 215.399 21.702 216.929 21.702C218.477 21.702 219.935 22.908 219.935 25.032ZM225.025 27.246C225.025 29.262 226.123 30 227.887 30H229.507V28.29H228.247C227.383 28.29 227.095 27.984 227.095 27.246V21.756H229.507V20.082H227.095V17.616H225.025V20.082H223.855V21.756H225.025V27.246ZM231.398 30H233.45V20.082H231.398V30ZM232.442 18.768C233.162 18.768 233.738 18.192 233.738 17.454C233.738 16.716 233.162 16.14 232.442 16.14C231.704 16.14 231.128 16.716 231.128 17.454C231.128 18.192 231.704 18.768 232.442 18.768ZM245.594 25.032C245.594 21.918 243.362 19.92 240.536 19.92C237.71 19.92 235.478 21.918 235.478 25.032C235.478 28.146 237.62 30.162 240.446 30.162C243.29 30.162 245.594 28.146 245.594 25.032ZM237.566 25.032C237.566 22.782 238.952 21.702 240.5 21.702C242.03 21.702 243.488 22.782 243.488 25.032C243.488 27.282 241.976 28.38 240.446 28.38C238.898 28.38 237.566 27.282 237.566 25.032ZM254.66 30H256.694V24.15C256.694 21.378 254.948 19.92 252.626 19.92C251.438 19.92 250.34 20.406 249.674 21.216V20.082H247.622V30H249.674V24.456C249.674 22.638 250.664 21.702 252.176 21.702C253.67 21.702 254.66 22.638 254.66 24.456V30ZM278.046 30H280.08V24.15C280.08 21.378 278.316 19.92 275.994 19.92C274.554 19.92 273.15 20.676 272.538 21.882C271.854 20.586 270.54 19.92 268.974 19.92C267.786 19.92 266.706 20.406 266.04 21.216V20.082H263.988V30H266.04V24.456C266.04 22.638 267.03 21.702 268.542 21.702C270.036 21.702 271.026 22.638 271.026 24.456V30H273.06V24.456C273.06 22.638 274.05 21.702 275.562 21.702C277.056 21.702 278.046 22.638 278.046 24.456V30ZM282.007 24.996C282.007 28.056 284.077 30.162 286.651 30.162C288.307 30.162 289.495 29.37 290.125 28.524V30H292.195V20.082H290.125V21.522C289.513 20.712 288.361 19.92 286.687 19.92C284.077 19.92 282.007 21.936 282.007 24.996ZM290.125 25.032C290.125 27.174 288.667 28.38 287.119 28.38C285.589 28.38 284.113 27.138 284.113 24.996C284.113 22.854 285.589 21.702 287.119 21.702C288.667 21.702 290.125 22.908 290.125 25.032ZM301.928 30H303.962V24.15C303.962 21.378 302.216 19.92 299.894 19.92C298.706 19.92 297.608 20.406 296.942 21.216V20.082H294.89V30H296.942V24.456C296.942 22.638 297.932 21.702 299.444 21.702C300.938 21.702 301.928 22.638 301.928 24.456V30ZM305.895 24.996C305.895 28.056 307.965 30.162 310.539 30.162C312.195 30.162 313.383 29.37 314.013 28.524V30H316.083V20.082H314.013V21.522C313.401 20.712 312.249 19.92 310.575 19.92C307.965 19.92 305.895 21.936 305.895 24.996ZM314.013 25.032C314.013 27.174 312.555 28.38 311.007 28.38C309.477 28.38 308.001 27.138 308.001 24.996C308.001 22.854 309.477 21.702 311.007 21.702C312.555 21.702 314.013 22.908 314.013 25.032ZM318.095 24.996C318.095 28.056 320.165 30.162 322.775 30.162C324.395 30.162 325.583 29.352 326.213 28.506V30.162C326.213 32.142 325.025 33.114 323.441 33.114C322.019 33.114 320.921 32.412 320.615 31.386H318.581C318.833 33.582 320.795 34.896 323.441 34.896C326.537 34.896 328.283 32.862 328.283 30.162V20.082H326.213V21.522C325.601 20.676 324.395 19.92 322.775 19.92C320.165 19.92 318.095 21.936 318.095 24.996ZM326.213 25.032C326.213 27.174 324.755 28.38 323.207 28.38C321.677 28.38 320.201 27.138 320.201 24.996C320.201 22.854 321.677 21.702 323.207 21.702C324.755 21.702 326.213 22.908 326.213 25.032ZM335.154 21.648C336.684 21.648 337.89 22.62 337.926 24.15H332.436C332.652 22.584 333.768 21.648 335.154 21.648ZM339.798 27.048H337.584C337.206 27.822 336.504 28.434 335.244 28.434C333.732 28.434 332.562 27.444 332.418 25.806H339.996C340.05 25.464 340.068 25.14 340.068 24.798C340.068 21.882 338.07 19.92 335.244 19.92C332.31 19.92 330.294 21.918 330.294 25.032C330.294 28.146 332.4 30.162 335.244 30.162C337.674 30.162 339.24 28.776 339.798 27.048ZM344.139 24.78C344.139 22.674 345.075 22.044 346.587 22.044H347.109V19.92C345.705 19.92 344.715 20.532 344.139 21.522V20.082H342.087V30H344.139V24.78Z" fill="#212832"/>
<path d="M389 1H387V48H389V1Z" fill="#946FB0" stroke="#946FB0" stroke-width="0.936604"/>
<circle cx="24.4151" cy="24.4151" r="23.4151" fill="#946FB0" stroke="#946FB0"/>
<path d="M16.2623 24.17C16.2623 28.1412 17.3113 31.1383 21.1326 31.1383C24.9539 31.1383 26.0029 28.1412 26.0029 24.17C26.0029 20.2737 24.9539 17.2766 21.1326 17.2766C17.3113 17.2766 16.2623 20.2737 16.2623 24.17ZM23.905 24.17C23.905 26.8487 23.624 29.1902 21.1326 29.1902C18.6412 29.1902 18.3603 26.8487 18.3603 24.17C18.3603 21.6224 18.6412 19.2247 21.1326 19.2247C23.624 19.2247 23.905 21.6224 23.905 24.17ZM29.7236 31.1758H31.8778V17.5201H27.9815V19.4682H29.7236V31.1758Z" fill="#212832"/>
<g filter="url(#filter1_d_953_238)">
<rect x="24" y="78" width="365" height="47" fill="white" shape-rendering="crispEdges"/>
<rect x="23.7658" y="77.7658" width="365.468" height="47.4683" stroke="black" stroke-opacity="0.2" stroke-width="0.468302" shape-rendering="crispEdges"/>
</g>
<path d="M77.7768 108H79.8288V99.432L83.6628 108H85.0848L88.9008 99.432V108H90.9528V95.49H88.7568L84.3828 105.3L79.9908 95.49H77.7768V108ZM97.8258 99.648C99.3558 99.648 100.562 100.62 100.598 102.15H95.1078C95.3238 100.584 96.4398 99.648 97.8258 99.648ZM102.47 105.048H100.256C99.8778 105.822 99.1758 106.434 97.9158 106.434C96.4038 106.434 95.2338 105.444 95.0898 103.806H102.668C102.722 103.464 102.74 103.14 102.74 102.798C102.74 99.882 100.742 97.92 97.9158 97.92C94.9818 97.92 92.9658 99.918 92.9658 103.032C92.9658 106.146 95.0718 108.162 97.9158 108.162C100.346 108.162 101.912 106.776 102.47 105.048ZM104.075 102.996C104.075 106.056 106.145 108.162 108.755 108.162C110.375 108.162 111.563 107.406 112.193 106.506V108H114.263V94.68H112.193V99.468C111.437 98.532 110.069 97.92 108.773 97.92C106.145 97.92 104.075 99.936 104.075 102.996ZM112.193 103.032C112.193 105.174 110.735 106.38 109.187 106.38C107.657 106.38 106.181 105.138 106.181 102.996C106.181 100.854 107.657 99.702 109.187 99.702C110.735 99.702 112.193 100.908 112.193 103.032ZM116.958 108H119.01V98.082H116.958V108ZM118.002 96.768C118.722 96.768 119.298 96.192 119.298 95.454C119.298 94.716 118.722 94.14 118.002 94.14C117.264 94.14 116.688 94.716 116.688 95.454C116.688 96.192 117.264 96.768 118.002 96.768ZM121.02 103.032C121.02 106.146 123.036 108.162 125.88 108.162C128.31 108.162 129.894 106.812 130.452 104.868H128.238C127.86 105.894 127.104 106.434 125.88 106.434C124.224 106.434 123.126 105.21 123.126 103.032C123.126 100.872 124.224 99.648 125.88 99.648C127.104 99.648 127.896 100.26 128.238 101.214H130.452C129.894 99.126 128.31 97.92 125.88 97.92C123.036 97.92 121.02 99.936 121.02 103.032ZM131.813 102.996C131.813 106.056 133.883 108.162 136.457 108.162C138.113 108.162 139.301 107.37 139.931 106.524V108H142.001V98.082H139.931V99.522C139.319 98.712 138.167 97.92 136.493 97.92C133.883 97.92 131.813 99.936 131.813 102.996ZM139.931 103.032C139.931 105.174 138.473 106.38 136.925 106.38C135.395 106.38 133.919 105.138 133.919 102.996C133.919 100.854 135.395 99.702 136.925 99.702C138.473 99.702 139.931 100.908 139.931 103.032ZM144.697 108H146.749V94.68H144.697V108ZM156.171 101.25V97.164H158.439C160.041 97.164 160.761 97.92 160.761 99.216C160.761 100.476 160.041 101.25 158.439 101.25H156.171ZM162.867 99.216C162.867 97.182 161.409 95.49 158.439 95.49H154.119V108H156.171V102.924H158.439C161.697 102.924 162.867 100.998 162.867 99.216ZM166.876 102.78C166.876 100.674 167.812 100.044 169.324 100.044H169.846V97.92C168.442 97.92 167.452 98.532 166.876 99.522V98.082H164.824V108H166.876V102.78ZM171.048 102.996C171.048 106.056 173.118 108.162 175.692 108.162C177.348 108.162 178.536 107.37 179.166 106.524V108H181.236V98.082H179.166V99.522C178.554 98.712 177.402 97.92 175.728 97.92C173.118 97.92 171.048 99.936 171.048 102.996ZM179.166 103.032C179.166 105.174 177.708 106.38 176.16 106.38C174.63 106.38 173.154 105.138 173.154 102.996C173.154 100.854 174.63 99.702 176.16 99.702C177.708 99.702 179.166 100.908 179.166 103.032ZM183.247 103.032C183.247 106.146 185.263 108.162 188.107 108.162C190.537 108.162 192.121 106.812 192.679 104.868H190.465C190.087 105.894 189.331 106.434 188.107 106.434C186.451 106.434 185.353 105.21 185.353 103.032C185.353 100.872 186.451 99.648 188.107 99.648C189.331 99.648 190.123 100.26 190.465 101.214H192.679C192.121 99.126 190.537 97.92 188.107 97.92C185.263 97.92 183.247 99.936 183.247 103.032ZM195.048 105.246C195.048 107.262 196.146 108 197.91 108H199.53V106.29H198.27C197.406 106.29 197.118 105.984 197.118 105.246V99.756H199.53V98.082H197.118V95.616H195.048V98.082H193.878V99.756H195.048V105.246ZM201.421 108H203.473V98.082H201.421V108ZM202.465 96.768C203.185 96.768 203.761 96.192 203.761 95.454C203.761 94.716 203.185 94.14 202.465 94.14C201.727 94.14 201.151 94.716 201.151 95.454C201.151 96.192 201.727 96.768 202.465 96.768ZM205.483 103.032C205.483 106.146 207.499 108.162 210.343 108.162C212.773 108.162 214.357 106.812 214.915 104.868H212.701C212.323 105.894 211.567 106.434 210.343 106.434C208.687 106.434 207.589 105.21 207.589 103.032C207.589 100.872 208.687 99.648 210.343 99.648C211.567 99.648 212.359 100.26 212.701 101.214H214.915C214.357 99.126 212.773 97.92 210.343 97.92C207.499 97.92 205.483 99.936 205.483 103.032ZM221.136 99.648C222.666 99.648 223.872 100.62 223.908 102.15H218.418C218.634 100.584 219.75 99.648 221.136 99.648ZM225.78 105.048H223.566C223.188 105.822 222.486 106.434 221.226 106.434C219.714 106.434 218.544 105.444 218.4 103.806H225.978C226.032 103.464 226.05 103.14 226.05 102.798C226.05 99.882 224.052 97.92 221.226 97.92C218.292 97.92 216.276 99.918 216.276 103.032C216.276 106.146 218.382 108.162 221.226 108.162C223.656 108.162 225.222 106.776 225.78 105.048ZM232.746 108H234.798V99.432L238.632 108H240.054L243.87 99.432V108H245.922V95.49H243.726L239.352 105.3L234.96 95.49H232.746V108ZM247.935 102.996C247.935 106.056 250.005 108.162 252.579 108.162C254.235 108.162 255.423 107.37 256.053 106.524V108H258.123V98.082H256.053V99.522C255.441 98.712 254.289 97.92 252.615 97.92C250.005 97.92 247.935 99.936 247.935 102.996ZM256.053 103.032C256.053 105.174 254.595 106.38 253.047 106.38C251.517 106.38 250.041 105.138 250.041 102.996C250.041 100.854 251.517 99.702 253.047 99.702C254.595 99.702 256.053 100.908 256.053 103.032ZM267.856 108H269.89V102.15C269.89 99.378 268.144 97.92 265.822 97.92C264.634 97.92 263.536 98.406 262.87 99.216V98.082H260.818V108H262.87V102.456C262.87 100.638 263.86 99.702 265.372 99.702C266.866 99.702 267.856 100.638 267.856 102.456V108ZM271.823 102.996C271.823 106.056 273.893 108.162 276.467 108.162C278.123 108.162 279.311 107.37 279.941 106.524V108H282.011V98.082H279.941V99.522C279.329 98.712 278.177 97.92 276.503 97.92C273.893 97.92 271.823 99.936 271.823 102.996ZM279.941 103.032C279.941 105.174 278.483 106.38 276.935 106.38C275.405 106.38 273.929 105.138 273.929 102.996C273.929 100.854 275.405 99.702 276.935 99.702C278.483 99.702 279.941 100.908 279.941 103.032ZM284.022 102.996C284.022 106.056 286.092 108.162 288.702 108.162C290.322 108.162 291.51 107.352 292.14 106.506V108.162C292.14 110.142 290.952 111.114 289.368 111.114C287.946 111.114 286.848 110.412 286.542 109.386H284.508C284.76 111.582 286.722 112.896 289.368 112.896C292.464 112.896 294.21 110.862 294.21 108.162V98.082H292.14V99.522C291.528 98.676 290.322 97.92 288.702 97.92C286.092 97.92 284.022 99.936 284.022 102.996ZM292.14 103.032C292.14 105.174 290.682 106.38 289.134 106.38C287.604 106.38 286.128 105.138 286.128 102.996C286.128 100.854 287.604 99.702 289.134 99.702C290.682 99.702 292.14 100.908 292.14 103.032ZM301.082 99.648C302.612 99.648 303.818 100.62 303.854 102.15H298.364C298.58 100.584 299.696 99.648 301.082 99.648ZM305.726 105.048H303.512C303.134 105.822 302.432 106.434 301.172 106.434C299.66 106.434 298.49 105.444 298.346 103.806H305.924C305.978 103.464 305.996 103.14 305.996 102.798C305.996 99.882 303.998 97.92 301.172 97.92C298.238 97.92 296.222 99.918 296.222 103.032C296.222 106.146 298.328 108.162 301.172 108.162C303.602 108.162 305.168 106.776 305.726 105.048ZM310.067 102.78C310.067 100.674 311.003 100.044 312.515 100.044H313.037V97.92C311.633 97.92 310.643 98.532 310.067 99.522V98.082H308.015V108H310.067V102.78Z" fill="#212832"/>
<path d="M389 78H387V125H389V78Z" fill="#CF1C54" stroke="#CF1C54" stroke-width="0.936604"/>
<circle cx="24.4151" cy="101.851" r="23.4151" fill="#E9336C" stroke="#E9336C"/>
<path d="M13.4699 101.606C13.4699 105.577 14.5189 108.574 18.3402 108.574C22.1616 108.574 23.2106 105.577 23.2106 101.606C23.2106 97.7093 22.1616 94.7121 18.3402 94.7121C14.5189 94.7121 13.4699 97.7093 13.4699 101.606ZM21.1126 101.606C21.1126 104.284 20.8316 106.626 18.3402 106.626C15.8489 106.626 15.5679 104.284 15.5679 101.606C15.5679 99.058 15.8489 96.6603 18.3402 96.6603C20.8316 96.6603 21.1126 99.058 21.1126 101.606ZM31.9889 108.611H34.0869V105.764H35.829V103.91H34.0869V95.1242H31.5019L25.2079 104.153V105.764H31.9889V108.611ZM27.6618 103.91L32.0825 97.2972V103.91H27.6618Z" fill="#212832"/>
<g filter="url(#filter2_d_953_238)">
<rect x="436" y="78" width="365" height="47" fill="white" shape-rendering="crispEdges"/>
<rect x="435.766" y="77.7658" width="365.468" height="47.4683" stroke="black" stroke-opacity="0.2" stroke-width="0.468302" shape-rendering="crispEdges"/>
</g>
<path d="M537.581 101.718C537.581 105.48 540.443 108.108 543.971 108.108C546.581 108.108 548.831 106.812 549.785 104.364H547.319C546.653 105.696 545.465 106.326 543.971 106.326C541.487 106.326 539.687 104.544 539.687 101.718C539.687 98.892 541.487 97.128 543.971 97.128C545.465 97.128 546.653 97.758 547.319 99.09H549.785C548.831 96.642 546.581 95.328 543.971 95.328C540.443 95.328 537.581 97.974 537.581 101.718ZM552.187 108H554.239V94.68H552.187V108ZM556.249 102.996C556.249 106.056 558.319 108.162 560.893 108.162C562.549 108.162 563.737 107.37 564.367 106.524V108H566.437V98.082H564.367V99.522C563.755 98.712 562.603 97.92 560.929 97.92C558.319 97.92 556.249 99.936 556.249 102.996ZM564.367 103.032C564.367 105.174 562.909 106.38 561.361 106.38C559.831 106.38 558.355 105.138 558.355 102.996C558.355 100.854 559.831 99.702 561.361 99.702C562.909 99.702 564.367 100.908 564.367 103.032ZM569.132 108H571.184V98.082H569.132V108ZM570.176 96.768C570.896 96.768 571.472 96.192 571.472 95.454C571.472 94.716 570.896 94.14 570.176 94.14C569.438 94.14 568.862 94.716 568.862 95.454C568.862 96.192 569.438 96.768 570.176 96.768ZM587.936 108H589.97V102.15C589.97 99.378 588.206 97.92 585.884 97.92C584.444 97.92 583.04 98.676 582.428 99.882C581.744 98.586 580.43 97.92 578.864 97.92C577.676 97.92 576.596 98.406 575.93 99.216V98.082H573.878V108H575.93V102.456C575.93 100.638 576.92 99.702 578.432 99.702C579.926 99.702 580.916 100.638 580.916 102.456V108H582.95V102.456C582.95 100.638 583.94 99.702 585.452 99.702C586.946 99.702 587.936 100.638 587.936 102.456V108ZM597.257 108H599.309V99.432L603.143 108H604.565L608.381 99.432V108H610.433V95.49H608.237L603.863 105.3L599.471 95.49H597.257V108ZM612.446 102.996C612.446 106.056 614.516 108.162 617.09 108.162C618.746 108.162 619.934 107.37 620.564 106.524V108H622.634V98.082H620.564V99.522C619.952 98.712 618.8 97.92 617.126 97.92C614.516 97.92 612.446 99.936 612.446 102.996ZM620.564 103.032C620.564 105.174 619.106 106.38 617.558 106.38C616.028 106.38 614.552 105.138 614.552 102.996C614.552 100.854 616.028 99.702 617.558 99.702C619.106 99.702 620.564 100.908 620.564 103.032ZM632.367 108H634.401V102.15C634.401 99.378 632.655 97.92 630.333 97.92C629.145 97.92 628.047 98.406 627.381 99.216V98.082H625.329V108H627.381V102.456C627.381 100.638 628.371 99.702 629.883 99.702C631.377 99.702 632.367 100.638 632.367 102.456V108ZM636.335 102.996C636.335 106.056 638.405 108.162 640.979 108.162C642.635 108.162 643.823 107.37 644.453 106.524V108H646.523V98.082H644.453V99.522C643.841 98.712 642.689 97.92 641.015 97.92C638.405 97.92 636.335 99.936 636.335 102.996ZM644.453 103.032C644.453 105.174 642.995 106.38 641.447 106.38C639.917 106.38 638.441 105.138 638.441 102.996C638.441 100.854 639.917 99.702 641.447 99.702C642.995 99.702 644.453 100.908 644.453 103.032ZM648.534 102.996C648.534 106.056 650.604 108.162 653.214 108.162C654.834 108.162 656.022 107.352 656.652 106.506V108.162C656.652 110.142 655.464 111.114 653.88 111.114C652.458 111.114 651.36 110.412 651.054 109.386H649.02C649.272 111.582 651.234 112.896 653.88 112.896C656.976 112.896 658.722 110.862 658.722 108.162V98.082H656.652V99.522C656.04 98.676 654.834 97.92 653.214 97.92C650.604 97.92 648.534 99.936 648.534 102.996ZM656.652 103.032C656.652 105.174 655.194 106.38 653.646 106.38C652.116 106.38 650.64 105.138 650.64 102.996C650.64 100.854 652.116 99.702 653.646 99.702C655.194 99.702 656.652 100.908 656.652 103.032ZM665.593 99.648C667.123 99.648 668.329 100.62 668.365 102.15H662.875C663.091 100.584 664.207 99.648 665.593 99.648ZM670.237 105.048H668.023C667.645 105.822 666.943 106.434 665.683 106.434C664.171 106.434 663.001 105.444 662.857 103.806H670.435C670.489 103.464 670.507 103.14 670.507 102.798C670.507 99.882 668.509 97.92 665.683 97.92C662.749 97.92 660.733 99.918 660.733 103.032C660.733 106.146 662.839 108.162 665.683 108.162C668.113 108.162 669.679 106.776 670.237 105.048ZM674.579 102.78C674.579 100.674 675.515 100.044 677.027 100.044H677.549V97.92C676.145 97.92 675.155 98.532 674.579 99.522V98.082H672.527V108H674.579V102.78Z" fill="#212832"/>
<path d="M801 78H799V125H801V78Z" fill="#00ADEF" stroke="#00ADEF" stroke-width="0.936604"/>
<circle cx="436.415" cy="101.851" r="23.4151" fill="#00ADEF" stroke="#00ADEF"/>
<path d="M425.552 101.606C425.552 105.577 426.601 108.574 430.423 108.574C434.244 108.574 435.293 105.577 435.293 101.606C435.293 97.7093 434.244 94.7121 430.423 94.7121C426.601 94.7121 425.552 97.7093 425.552 101.606ZM433.195 101.606C433.195 104.284 432.914 106.626 430.423 106.626C427.931 106.626 427.65 104.284 427.65 101.606C427.65 99.058 427.931 96.6603 430.423 96.6603C432.914 96.6603 433.195 99.058 433.195 101.606ZM438.114 94.9182V102.804H440.137C440.493 101.793 441.336 101.1 442.591 101.1C444.371 101.1 445.251 102.111 445.251 103.891C445.251 105.577 444.427 106.832 442.591 106.832C441.149 106.832 440.175 106.082 439.894 104.921H437.815C438.133 107.057 439.763 108.611 442.573 108.611C445.738 108.611 447.293 106.551 447.293 103.835C447.293 101.774 446.263 99.2828 442.91 99.2828C441.692 99.2828 440.587 99.8447 440.081 100.519V96.7914H446.357V94.9182H438.114Z" fill="#212832"/>
<g filter="url(#filter3_d_953_238)">
<rect x="859" y="78" width="365" height="47" fill="white" shape-rendering="crispEdges"/>
<rect x="858.766" y="77.7658" width="365.468" height="47.4683" stroke="black" stroke-opacity="0.2" stroke-width="0.468302" shape-rendering="crispEdges"/>
</g>
<path d="M939.767 101.718C939.767 97.974 936.941 95.328 933.377 95.328C929.849 95.328 926.987 97.974 926.987 101.718C926.987 105.48 929.849 108.126 933.377 108.126C936.941 108.126 939.767 105.48 939.767 101.718ZM929.093 101.718C929.093 98.892 930.893 97.128 933.377 97.128C935.861 97.128 937.661 98.892 937.661 101.718C937.661 104.544 935.861 106.344 933.377 106.344C930.893 106.344 929.093 104.544 929.093 101.718ZM948.825 108H950.859V102.15C950.859 99.378 949.113 97.92 946.791 97.92C945.603 97.92 944.505 98.406 943.839 99.216V98.082H941.787V108H943.839V102.456C943.839 100.638 944.829 99.702 946.341 99.702C947.835 99.702 948.825 100.638 948.825 102.456V108ZM952.792 103.032C952.792 106.146 954.808 108.162 957.652 108.162C960.082 108.162 961.666 106.812 962.224 104.868H960.01C959.632 105.894 958.876 106.434 957.652 106.434C955.996 106.434 954.898 105.21 954.898 103.032C954.898 100.872 955.996 99.648 957.652 99.648C958.876 99.648 959.668 100.26 960.01 101.214H962.224C961.666 99.126 960.082 97.92 957.652 97.92C954.808 97.92 952.792 99.936 952.792 103.032ZM973.719 103.032C973.719 99.918 971.487 97.92 968.661 97.92C965.835 97.92 963.603 99.918 963.603 103.032C963.603 106.146 965.745 108.162 968.571 108.162C971.415 108.162 973.719 106.146 973.719 103.032ZM965.691 103.032C965.691 100.782 967.077 99.702 968.625 99.702C970.155 99.702 971.613 100.782 971.613 103.032C971.613 105.282 970.101 106.38 968.571 106.38C967.023 106.38 965.691 105.282 965.691 103.032ZM975.747 108H977.799V94.68H975.747V108ZM989.944 103.032C989.944 99.918 987.712 97.92 984.886 97.92C982.06 97.92 979.828 99.918 979.828 103.032C979.828 106.146 981.97 108.162 984.796 108.162C987.64 108.162 989.944 106.146 989.944 103.032ZM981.916 103.032C981.916 100.782 983.302 99.702 984.85 99.702C986.38 99.702 987.838 100.782 987.838 103.032C987.838 105.282 986.326 106.38 984.796 106.38C983.248 106.38 981.916 105.282 981.916 103.032ZM991.288 102.996C991.288 106.056 993.358 108.162 995.968 108.162C997.588 108.162 998.776 107.352 999.406 106.506V108.162C999.406 110.142 998.218 111.114 996.634 111.114C995.212 111.114 994.114 110.412 993.808 109.386H991.774C992.026 111.582 993.988 112.896 996.634 112.896C999.73 112.896 1001.48 110.862 1001.48 108.162V98.082H999.406V99.522C998.794 98.676 997.588 97.92 995.968 97.92C993.358 97.92 991.288 99.936 991.288 102.996ZM999.406 103.032C999.406 105.174 997.948 106.38 996.4 106.38C994.87 106.38 993.394 105.138 993.394 102.996C993.394 100.854 994.87 99.702 996.4 99.702C997.948 99.702 999.406 100.908 999.406 103.032ZM1008.08 105.642L1005.29 98.082H1003L1006.91 107.838L1004.89 112.662H1007.02L1013.1 98.082H1010.98L1008.08 105.642ZM1018.64 101.718C1018.64 105.48 1021.5 108.108 1025.03 108.108C1027.64 108.108 1029.89 106.812 1030.84 104.364H1028.38C1027.71 105.696 1026.52 106.326 1025.03 106.326C1022.55 106.326 1020.75 104.544 1020.75 101.718C1020.75 98.892 1022.55 97.128 1025.03 97.128C1026.52 97.128 1027.71 97.758 1028.38 99.09H1030.84C1029.89 96.642 1027.64 95.328 1025.03 95.328C1021.5 95.328 1018.64 97.974 1018.64 101.718ZM1042.7 103.032C1042.7 99.918 1040.46 97.92 1037.64 97.92C1034.81 97.92 1032.58 99.918 1032.58 103.032C1032.58 106.146 1034.72 108.162 1037.55 108.162C1040.39 108.162 1042.7 106.146 1042.7 103.032ZM1034.67 103.032C1034.67 100.782 1036.05 99.702 1037.6 99.702C1039.13 99.702 1040.59 100.782 1040.59 103.032C1040.59 105.282 1039.08 106.38 1037.55 106.38C1036 106.38 1034.67 105.282 1034.67 103.032ZM1054.17 103.032C1054.17 99.918 1051.94 97.92 1049.12 97.92C1046.29 97.92 1044.06 99.918 1044.06 103.032C1044.06 106.146 1046.2 108.162 1049.03 108.162C1051.87 108.162 1054.17 106.146 1054.17 103.032ZM1046.15 103.032C1046.15 100.782 1047.53 99.702 1049.08 99.702C1050.61 99.702 1052.07 100.782 1052.07 103.032C1052.07 105.282 1050.56 106.38 1049.03 106.38C1047.48 106.38 1046.15 105.282 1046.15 103.032ZM1058.25 102.78C1058.25 100.674 1059.19 100.044 1060.7 100.044H1061.22V97.92C1059.82 97.92 1058.83 98.532 1058.25 99.522V98.082H1056.2V108H1058.25V102.78ZM1062.43 102.996C1062.43 106.056 1064.5 108.162 1067.11 108.162C1068.73 108.162 1069.91 107.406 1070.54 106.506V108H1072.61V94.68H1070.54V99.468C1069.79 98.532 1068.42 97.92 1067.12 97.92C1064.5 97.92 1062.43 99.936 1062.43 102.996ZM1070.54 103.032C1070.54 105.174 1069.09 106.38 1067.54 106.38C1066.01 106.38 1064.53 105.138 1064.53 102.996C1064.53 100.854 1066.01 99.702 1067.54 99.702C1069.09 99.702 1070.54 100.908 1070.54 103.032ZM1075.31 108H1077.36V98.082H1075.31V108ZM1076.35 96.768C1077.07 96.768 1077.65 96.192 1077.65 95.454C1077.65 94.716 1077.07 94.14 1076.35 94.14C1075.62 94.14 1075.04 94.716 1075.04 95.454C1075.04 96.192 1075.62 96.768 1076.35 96.768ZM1087.09 108H1089.13V102.15C1089.13 99.378 1087.38 97.92 1085.06 97.92C1083.87 97.92 1082.77 98.406 1082.11 99.216V98.082H1080.06V108H1082.11V102.456C1082.11 100.638 1083.1 99.702 1084.61 99.702C1086.1 99.702 1087.09 100.638 1087.09 102.456V108ZM1091.06 102.996C1091.06 106.056 1093.13 108.162 1095.71 108.162C1097.36 108.162 1098.55 107.37 1099.18 106.524V108H1101.25V98.082H1099.18V99.522C1098.57 98.712 1097.42 97.92 1095.74 97.92C1093.13 97.92 1091.06 99.936 1091.06 102.996ZM1099.18 103.032C1099.18 105.174 1097.72 106.38 1096.17 106.38C1094.64 106.38 1093.17 105.138 1093.17 102.996C1093.17 100.854 1094.64 99.702 1096.17 99.702C1097.72 99.702 1099.18 100.908 1099.18 103.032ZM1104.27 105.246C1104.27 107.262 1105.37 108 1107.13 108H1108.75V106.29H1107.49C1106.63 106.29 1106.34 105.984 1106.34 105.246V99.756H1108.75V98.082H1106.34V95.616H1104.27V98.082H1103.1V99.756H1104.27V105.246ZM1120.09 103.032C1120.09 99.918 1117.86 97.92 1115.03 97.92C1112.21 97.92 1109.98 99.918 1109.98 103.032C1109.98 106.146 1112.12 108.162 1114.94 108.162C1117.79 108.162 1120.09 106.146 1120.09 103.032ZM1112.06 103.032C1112.06 100.782 1113.45 99.702 1115 99.702C1116.53 99.702 1117.99 100.782 1117.99 103.032C1117.99 105.282 1116.47 106.38 1114.94 106.38C1113.4 106.38 1112.06 105.282 1112.06 103.032ZM1124.17 102.78C1124.17 100.674 1125.11 100.044 1126.62 100.044H1127.14V97.92C1125.74 97.92 1124.75 98.532 1124.17 99.522V98.082H1122.12V108H1124.17V102.78Z" fill="#212832"/>
<path d="M1224 78H1222V125H1224V78Z" fill="#E74C3C" stroke="#E74C3C" stroke-width="0.936604"/>
<circle cx="856.415" cy="101.851" r="23.4151" fill="#E74C3C" stroke="#E74C3C"/>
<path d="M845.525 101.606C845.525 105.577 846.574 108.574 850.395 108.574C854.216 108.574 855.265 105.577 855.265 101.606C855.265 97.7093 854.216 94.7121 850.395 94.7121C846.574 94.7121 845.525 97.7093 845.525 101.606ZM853.167 101.606C853.167 104.284 852.886 106.626 850.395 106.626C847.904 106.626 847.623 104.284 847.623 101.606C847.623 99.058 847.904 96.6603 850.395 96.6603C852.886 96.6603 853.167 99.058 853.167 101.606ZM866.835 98.1214C866.61 96.3044 865.28 94.6185 862.62 94.6185C859.211 94.6185 857.787 97.2035 857.787 101.474C857.787 105.82 858.818 108.611 862.789 108.611C865.711 108.611 867.266 106.644 867.266 104.059C867.266 101.212 865.524 99.5637 863.07 99.5637C861.646 99.5637 860.297 100.163 859.623 101.287C859.679 97.7093 860.672 96.398 862.601 96.398C863.95 96.398 864.606 97.0162 864.868 98.1214H866.835ZM862.601 101.362C864.4 101.362 865.224 102.523 865.224 104.153C865.224 105.764 864.25 106.832 862.676 106.832C860.859 106.832 859.867 105.708 859.867 104.022C859.867 102.205 861.196 101.362 862.601 101.362Z" fill="#212832"/>
<g filter="url(#filter4_d_953_238)">
<rect x="438" y="1" width="365" height="47" fill="white" shape-rendering="crispEdges"/>
<rect x="437.766" y="0.765849" width="365.468" height="47.4683" stroke="black" stroke-opacity="0.2" stroke-width="0.468302" shape-rendering="crispEdges"/>
</g>
<path d="M804 1H802V48H804V1Z" fill="#A9CF54" stroke="#A9CF54" stroke-width="0.936604"/>
<path d="M527.87 30H529.922V17.49H527.87V22.854H521.984V17.49H519.932V30H521.984V24.528H527.87V30ZM542.073 25.032C542.073 21.918 539.841 19.92 537.015 19.92C534.189 19.92 531.957 21.918 531.957 25.032C531.957 28.146 534.099 30.162 536.925 30.162C539.769 30.162 542.073 28.146 542.073 25.032ZM534.045 25.032C534.045 22.782 535.431 21.702 536.979 21.702C538.509 21.702 539.967 22.782 539.967 25.032C539.967 27.282 538.455 28.38 536.925 28.38C535.377 28.38 534.045 27.282 534.045 25.032ZM551.5 27.228C551.392 23.646 545.794 24.762 545.794 22.764C545.794 22.098 546.37 21.648 547.468 21.648C548.584 21.648 549.25 22.242 549.322 23.106H551.374C551.266 21.126 549.79 19.92 547.54 19.92C545.2 19.92 543.724 21.198 543.724 22.782C543.724 26.418 549.484 25.302 549.484 27.246C549.484 27.93 548.854 28.434 547.666 28.434C546.532 28.434 545.758 27.768 545.686 26.958H543.562C543.652 28.758 545.326 30.162 547.702 30.162C550.042 30.162 551.5 28.902 551.5 27.228ZM555.769 21.54V20.082H553.717V34.716H555.769V28.56C556.417 29.334 557.587 30.162 559.225 30.162C561.835 30.162 563.887 28.056 563.887 24.996C563.887 21.936 561.835 19.92 559.225 19.92C557.605 19.92 556.399 20.712 555.769 21.54ZM561.799 24.996C561.799 27.138 560.323 28.38 558.775 28.38C557.245 28.38 555.769 27.174 555.769 25.032C555.769 22.908 557.245 21.702 558.775 21.702C560.323 21.702 561.799 22.854 561.799 24.996ZM565.916 30H567.968V20.082H565.916V30ZM566.96 18.768C567.68 18.768 568.256 18.192 568.256 17.454C568.256 16.716 567.68 16.14 566.96 16.14C566.222 16.14 565.646 16.716 565.646 17.454C565.646 18.192 566.222 18.768 566.96 18.768ZM570.987 27.246C570.987 29.262 572.085 30 573.849 30H575.469V28.29H574.209C573.345 28.29 573.057 27.984 573.057 27.246V21.756H575.469V20.082H573.057V17.616H570.987V20.082H569.817V21.756H570.987V27.246ZM576.676 24.996C576.676 28.056 578.746 30.162 581.32 30.162C582.976 30.162 584.164 29.37 584.794 28.524V30H586.864V20.082H584.794V21.522C584.182 20.712 583.03 19.92 581.356 19.92C578.746 19.92 576.676 21.936 576.676 24.996ZM584.794 25.032C584.794 27.174 583.336 28.38 581.788 28.38C580.258 28.38 578.782 27.138 578.782 24.996C578.782 22.854 580.258 21.702 581.788 21.702C583.336 21.702 584.794 22.908 584.794 25.032ZM589.559 30H591.611V16.68H589.559V30ZM598.297 24.996C598.297 28.056 600.367 30.162 602.941 30.162C604.597 30.162 605.785 29.37 606.415 28.524V30H608.485V20.082H606.415V21.522C605.803 20.712 604.651 19.92 602.977 19.92C600.367 19.92 598.297 21.936 598.297 24.996ZM606.415 25.032C606.415 27.174 604.957 28.38 603.409 28.38C601.879 28.38 600.403 27.138 600.403 24.996C600.403 22.854 601.879 21.702 603.409 21.702C604.957 21.702 606.415 22.908 606.415 25.032ZM610.496 24.996C610.496 28.056 612.566 30.162 615.176 30.162C616.796 30.162 617.984 29.406 618.614 28.506V30H620.684V16.68H618.614V21.468C617.858 20.532 616.49 19.92 615.194 19.92C612.566 19.92 610.496 21.936 610.496 24.996ZM618.614 25.032C618.614 27.174 617.156 28.38 615.608 28.38C614.078 28.38 612.602 27.138 612.602 24.996C612.602 22.854 614.078 21.702 615.608 21.702C617.156 21.702 618.614 22.908 618.614 25.032ZM637.437 30H639.471V24.15C639.471 21.378 637.707 19.92 635.385 19.92C633.945 19.92 632.541 20.676 631.929 21.882C631.245 20.586 629.931 19.92 628.365 19.92C627.177 19.92 626.097 20.406 625.431 21.216V20.082H623.379V30H625.431V24.456C625.431 22.638 626.421 21.702 627.933 21.702C629.427 21.702 630.417 22.638 630.417 24.456V30H632.451V24.456C632.451 22.638 633.441 21.702 634.953 21.702C636.447 21.702 637.437 22.638 637.437 24.456V30ZM642.082 30H644.134V20.082H642.082V30ZM643.126 18.768C643.846 18.768 644.422 18.192 644.422 17.454C644.422 16.716 643.846 16.14 643.126 16.14C642.388 16.14 641.812 16.716 641.812 17.454C641.812 18.192 642.388 18.768 643.126 18.768ZM653.867 30H655.901V24.15C655.901 21.378 654.155 19.92 651.833 19.92C650.645 19.92 649.547 20.406 648.881 21.216V20.082H646.829V30H648.881V24.456C648.881 22.638 649.871 21.702 651.383 21.702C652.877 21.702 653.867 22.638 653.867 24.456V30ZM658.518 30H660.57V20.082H658.518V30ZM659.562 18.768C660.282 18.768 660.858 18.192 660.858 17.454C660.858 16.716 660.282 16.14 659.562 16.14C658.824 16.14 658.248 16.716 658.248 17.454C658.248 18.192 658.824 18.768 659.562 18.768ZM670.662 27.228C670.554 23.646 664.956 24.762 664.956 22.764C664.956 22.098 665.532 21.648 666.63 21.648C667.746 21.648 668.412 22.242 668.484 23.106H670.536C670.428 21.126 668.952 19.92 666.702 19.92C664.362 19.92 662.886 21.198 662.886 22.782C662.886 26.418 668.646 25.302 668.646 27.246C668.646 27.93 668.016 28.434 666.828 28.434C665.694 28.434 664.92 27.768 664.848 26.958H662.724C662.814 28.758 664.488 30.162 666.864 30.162C669.204 30.162 670.662 28.902 670.662 27.228ZM673.203 27.246C673.203 29.262 674.301 30 676.065 30H677.685V28.29H676.425C675.561 28.29 675.273 27.984 675.273 27.246V21.756H677.685V20.082H675.273V17.616H673.203V20.082H672.033V21.756H673.203V27.246ZM681.629 24.78C681.629 22.674 682.565 22.044 684.077 22.044H684.599V19.92C683.195 19.92 682.205 20.532 681.629 21.522V20.082H679.577V30H681.629V24.78ZM685.801 24.996C685.801 28.056 687.871 30.162 690.445 30.162C692.101 30.162 693.289 29.37 693.919 28.524V30H695.989V20.082H693.919V21.522C693.307 20.712 692.155 19.92 690.481 19.92C687.871 19.92 685.801 21.936 685.801 24.996ZM693.919 25.032C693.919 27.174 692.461 28.38 690.913 28.38C689.383 28.38 687.907 27.138 687.907 24.996C687.907 22.854 689.383 21.702 690.913 21.702C692.461 21.702 693.919 22.908 693.919 25.032ZM699.008 27.246C699.008 29.262 700.106 30 701.87 30H703.49V28.29H702.23C701.366 28.29 701.078 27.984 701.078 27.246V21.756H703.49V20.082H701.078V17.616H699.008V20.082H697.838V21.756H699.008V27.246ZM714.831 25.032C714.831 21.918 712.599 19.92 709.773 19.92C706.947 19.92 704.715 21.918 704.715 25.032C704.715 28.146 706.857 30.162 709.683 30.162C712.527 30.162 714.831 28.146 714.831 25.032ZM706.803 25.032C706.803 22.782 708.189 21.702 709.737 21.702C711.267 21.702 712.725 22.782 712.725 25.032C712.725 27.282 711.213 28.38 709.683 28.38C708.135 28.38 706.803 27.282 706.803 25.032ZM718.912 24.78C718.912 22.674 719.848 22.044 721.36 22.044H721.882V19.92C720.478 19.92 719.488 20.532 718.912 21.522V20.082H716.86V30H718.912V24.78Z" fill="#212832"/>
<circle cx="437.415" cy="24.4151" r="23.4151" fill="#A9CF54" stroke="#A9CF54"/>
<path d="M427.128 24.17C427.128 28.1412 428.177 31.1383 431.999 31.1383C435.82 31.1383 436.869 28.1412 436.869 24.17C436.869 20.2737 435.82 17.2766 431.999 17.2766C428.177 17.2766 427.128 20.2737 427.128 24.17ZM434.771 24.17C434.771 26.8487 434.49 29.1902 431.999 29.1902C429.507 29.1902 429.226 26.8487 429.226 24.17C429.226 21.6224 429.507 19.2247 431.999 19.2247C434.49 19.2247 434.771 21.6224 434.771 24.17ZM438.96 30.9885H448.064V29.2089H442.126C444.317 27.2046 447.689 24.6758 447.689 21.3602C447.689 18.9063 446.116 17.2391 443.343 17.2391C440.927 17.2391 439.016 18.6815 438.941 21.6412H441.002C441.058 20.1051 441.864 19.0561 443.362 19.0561C444.954 19.0561 445.573 20.0302 445.573 21.4538C445.573 24.1325 442.182 26.6052 438.96 29.4337V30.9885Z" fill="#212832"/>
<g filter="url(#filter5_d_953_238)">
<rect x="860" y="1" width="365" height="47" fill="white" shape-rendering="crispEdges"/>
<rect x="859.766" y="0.765849" width="365.468" height="47.4683" stroke="black" stroke-opacity="0.2" stroke-width="0.468302" shape-rendering="crispEdges"/>
</g>
<path d="M1225 1H1223V48H1225V1Z" fill="#3498DB" stroke="#3498DB" stroke-width="0.936604"/>
<path d="M911.296 30H913.348V17.49H911.296V22.854H905.41V17.49H903.358V30H905.41V24.528H911.296V30ZM920.225 21.648C921.755 21.648 922.961 22.62 922.997 24.15H917.507C917.723 22.584 918.839 21.648 920.225 21.648ZM924.869 27.048H922.655C922.277 27.822 921.575 28.434 920.315 28.434C918.803 28.434 917.633 27.444 917.489 25.806H925.067C925.121 25.464 925.139 25.14 925.139 24.798C925.139 21.882 923.141 19.92 920.315 19.92C917.381 19.92 915.365 21.918 915.365 25.032C915.365 28.146 917.471 30.162 920.315 30.162C922.745 30.162 924.311 28.776 924.869 27.048ZM926.475 24.996C926.475 28.056 928.545 30.162 931.119 30.162C932.775 30.162 933.963 29.37 934.593 28.524V30H936.663V20.082H934.593V21.522C933.981 20.712 932.829 19.92 931.155 19.92C928.545 19.92 926.475 21.936 926.475 24.996ZM934.593 25.032C934.593 27.174 933.135 28.38 931.587 28.38C930.057 28.38 928.581 27.138 928.581 24.996C928.581 22.854 930.057 21.702 931.587 21.702C933.135 21.702 934.593 22.908 934.593 25.032ZM939.358 30H941.41V16.68H939.358V30ZM944.428 27.246C944.428 29.262 945.526 30 947.29 30H948.91V28.29H947.65C946.786 28.29 946.498 27.984 946.498 27.246V21.756H948.91V20.082H946.498V17.616H944.428V20.082H943.258V21.756H944.428V27.246ZM950.801 30H952.853V24.456C952.853 22.638 953.843 21.702 955.355 21.702C956.849 21.702 957.839 22.638 957.839 24.456V30H959.873V24.15C959.873 21.378 958.145 19.92 955.931 19.92C954.653 19.92 953.537 20.406 952.853 21.234V16.68H950.801V30ZM961.807 25.032C961.807 28.146 963.823 30.162 966.667 30.162C969.097 30.162 970.681 28.812 971.239 26.868H969.025C968.647 27.894 967.891 28.434 966.667 28.434C965.011 28.434 963.913 27.21 963.913 25.032C963.913 22.872 965.011 21.648 966.667 21.648C967.891 21.648 968.683 22.26 969.025 23.214H971.239C970.681 21.126 969.097 19.92 966.667 19.92C963.823 19.92 961.807 21.936 961.807 25.032ZM972.6 24.996C972.6 28.056 974.67 30.162 977.244 30.162C978.9 30.162 980.088 29.37 980.718 28.524V30H982.788V20.082H980.718V21.522C980.106 20.712 978.954 19.92 977.28 19.92C974.67 19.92 972.6 21.936 972.6 24.996ZM980.718 25.032C980.718 27.174 979.26 28.38 977.712 28.38C976.182 28.38 974.706 27.138 974.706 24.996C974.706 22.854 976.182 21.702 977.712 21.702C979.26 21.702 980.718 22.908 980.718 25.032ZM987.535 24.78C987.535 22.674 988.471 22.044 989.983 22.044H990.505V19.92C989.101 19.92 988.111 20.532 987.535 21.522V20.082H985.483V30H987.535V24.78ZM996.567 21.648C998.097 21.648 999.303 22.62 999.339 24.15H993.849C994.065 22.584 995.181 21.648 996.567 21.648ZM1001.21 27.048H998.997C998.619 27.822 997.917 28.434 996.657 28.434C995.145 28.434 993.975 27.444 993.831 25.806H1001.41C1001.46 25.464 1001.48 25.14 1001.48 24.798C1001.48 21.882 999.483 19.92 996.657 19.92C993.723 19.92 991.707 21.918 991.707 25.032C991.707 28.146 993.813 30.162 996.657 30.162C999.087 30.162 1000.65 28.776 1001.21 27.048ZM1008.18 30H1010.23V17.49H1008.18V30ZM1019.96 30H1021.99V24.15C1021.99 21.378 1020.25 19.92 1017.93 19.92C1016.74 19.92 1015.64 20.406 1014.97 21.216V20.082H1012.92V30H1014.97V24.456C1014.97 22.638 1015.96 21.702 1017.48 21.702C1018.97 21.702 1019.96 22.638 1019.96 24.456V30ZM1024.86 30H1026.93V21.756H1028.77V20.082H1026.93V19.38C1026.93 18.246 1027.37 17.814 1028.63 17.814V16.104C1026.03 16.104 1024.86 17.094 1024.86 19.38V20.082H1023.69V21.756H1024.86V30ZM1040.04 25.032C1040.04 21.918 1037.81 19.92 1034.98 19.92C1032.15 19.92 1029.92 21.918 1029.92 25.032C1029.92 28.146 1032.06 30.162 1034.89 30.162C1037.73 30.162 1040.04 28.146 1040.04 25.032ZM1032.01 25.032C1032.01 22.782 1033.4 21.702 1034.94 21.702C1036.47 21.702 1037.93 22.782 1037.93 25.032C1037.93 27.282 1036.42 28.38 1034.89 28.38C1033.34 28.38 1032.01 27.282 1032.01 25.032ZM1044.12 24.78C1044.12 22.674 1045.05 22.044 1046.57 22.044H1047.09V19.92C1045.68 19.92 1044.69 20.532 1044.12 21.522V20.082H1042.07V30H1044.12V24.78ZM1063.03 30H1065.07V24.15C1065.07 21.378 1063.3 19.92 1060.98 19.92C1059.54 19.92 1058.14 20.676 1057.53 21.882C1056.84 20.586 1055.53 19.92 1053.96 19.92C1052.77 19.92 1051.69 20.406 1051.03 21.216V20.082H1048.98V30H1051.03V24.456C1051.03 22.638 1052.02 21.702 1053.53 21.702C1055.02 21.702 1056.01 22.638 1056.01 24.456V30H1058.05V24.456C1058.05 22.638 1059.04 21.702 1060.55 21.702C1062.04 21.702 1063.03 22.638 1063.03 24.456V30ZM1066.99 24.996C1066.99 28.056 1069.06 30.162 1071.64 30.162C1073.29 30.162 1074.48 29.37 1075.11 28.524V30H1077.18V20.082H1075.11V21.522C1074.5 20.712 1073.35 19.92 1071.67 19.92C1069.06 19.92 1066.99 21.936 1066.99 24.996ZM1075.11 25.032C1075.11 27.174 1073.65 28.38 1072.11 28.38C1070.58 28.38 1069.1 27.138 1069.1 24.996C1069.1 22.854 1070.58 21.702 1072.11 21.702C1073.65 21.702 1075.11 22.908 1075.11 25.032ZM1080.2 27.246C1080.2 29.262 1081.3 30 1083.06 30H1084.68V28.29H1083.42C1082.56 28.29 1082.27 27.984 1082.27 27.246V21.756H1084.68V20.082H1082.27V17.616H1080.2V20.082H1079.03V21.756H1080.2V27.246ZM1086.57 30H1088.63V20.082H1086.57V30ZM1087.62 18.768C1088.34 18.768 1088.91 18.192 1088.91 17.454C1088.91 16.716 1088.34 16.14 1087.62 16.14C1086.88 16.14 1086.3 16.716 1086.3 17.454C1086.3 18.192 1086.88 18.768 1087.62 18.768ZM1100.77 25.032C1100.77 21.918 1098.54 19.92 1095.71 19.92C1092.89 19.92 1090.65 21.918 1090.65 25.032C1090.65 28.146 1092.8 30.162 1095.62 30.162C1098.47 30.162 1100.77 28.146 1100.77 25.032ZM1092.74 25.032C1092.74 22.782 1094.13 21.702 1095.68 21.702C1097.21 21.702 1098.66 22.782 1098.66 25.032C1098.66 27.282 1097.15 28.38 1095.62 28.38C1094.07 28.38 1092.74 27.282 1092.74 25.032ZM1109.84 30H1111.87V24.15C1111.87 21.378 1110.13 19.92 1107.8 19.92C1106.62 19.92 1105.52 20.406 1104.85 21.216V20.082H1102.8V30H1104.85V24.456C1104.85 22.638 1105.84 21.702 1107.35 21.702C1108.85 21.702 1109.84 22.638 1109.84 24.456V30ZM1119.16 30H1121.22V21.432L1125.05 30H1126.47L1130.29 21.432V30H1132.34V17.49H1130.14L1125.77 27.3L1121.38 17.49H1119.16V30ZM1134.35 24.996C1134.35 28.056 1136.42 30.162 1139 30.162C1140.65 30.162 1141.84 29.37 1142.47 28.524V30H1144.54V20.082H1142.47V21.522C1141.86 20.712 1140.71 19.92 1139.03 19.92C1136.42 19.92 1134.35 21.936 1134.35 24.996ZM1142.47 25.032C1142.47 27.174 1141.01 28.38 1139.47 28.38C1137.94 28.38 1136.46 27.138 1136.46 24.996C1136.46 22.854 1137.94 21.702 1139.47 21.702C1141.01 21.702 1142.47 22.908 1142.47 25.032ZM1154.27 30H1156.31V24.15C1156.31 21.378 1154.56 19.92 1152.24 19.92C1151.05 19.92 1149.95 20.406 1149.29 21.216V20.082H1147.24V30H1149.29V24.456C1149.29 22.638 1150.28 21.702 1151.79 21.702C1153.28 21.702 1154.27 22.638 1154.27 24.456V30ZM1158.24 24.996C1158.24 28.056 1160.31 30.162 1162.89 30.162C1164.54 30.162 1165.73 29.37 1166.36 28.524V30H1168.43V20.082H1166.36V21.522C1165.75 20.712 1164.6 19.92 1162.92 19.92C1160.31 19.92 1158.24 21.936 1158.24 24.996ZM1166.36 25.032C1166.36 27.174 1164.9 28.38 1163.35 28.38C1161.82 28.38 1160.35 27.138 1160.35 24.996C1160.35 22.854 1161.82 21.702 1163.35 21.702C1164.9 21.702 1166.36 22.908 1166.36 25.032ZM1170.44 24.996C1170.44 28.056 1172.51 30.162 1175.12 30.162C1176.74 30.162 1177.93 29.352 1178.56 28.506V30.162C1178.56 32.142 1177.37 33.114 1175.79 33.114C1174.37 33.114 1173.27 32.412 1172.96 31.386H1170.93C1171.18 33.582 1173.14 34.896 1175.79 34.896C1178.88 34.896 1180.63 32.862 1180.63 30.162V20.082H1178.56V21.522C1177.95 20.676 1176.74 19.92 1175.12 19.92C1172.51 19.92 1170.44 21.936 1170.44 24.996ZM1178.56 25.032C1178.56 27.174 1177.1 28.38 1175.55 28.38C1174.02 28.38 1172.55 27.138 1172.55 24.996C1172.55 22.854 1174.02 21.702 1175.55 21.702C1177.1 21.702 1178.56 22.908 1178.56 25.032ZM1187.5 21.648C1189.03 21.648 1190.24 22.62 1190.27 24.15H1184.78C1185 22.584 1186.11 21.648 1187.5 21.648ZM1192.14 27.048H1189.93C1189.55 27.822 1188.85 28.434 1187.59 28.434C1186.08 28.434 1184.91 27.444 1184.76 25.806H1192.34C1192.4 25.464 1192.41 25.14 1192.41 24.798C1192.41 21.882 1190.42 19.92 1187.59 19.92C1184.66 19.92 1182.64 21.918 1182.64 25.032C1182.64 28.146 1184.75 30.162 1187.59 30.162C1190.02 30.162 1191.59 28.776 1192.14 27.048ZM1196.49 24.78C1196.49 22.674 1197.42 22.044 1198.93 22.044H1199.46V19.92C1198.05 19.92 1197.06 20.532 1196.49 21.522V20.082H1194.43V30H1196.49V24.78Z" fill="#212832"/>
<circle cx="856.415" cy="24.415" r="23.415" fill="#3498DB" stroke="#3498DB"/>
<path d="M845.548 24.9942C845.548 28.9654 846.597 31.9625 850.418 31.9625C854.24 31.9625 855.289 28.9654 855.289 24.9942C855.289 21.0979 854.24 18.1008 850.418 18.1008C846.597 18.1008 845.548 21.0979 845.548 24.9942ZM853.191 24.9942C853.191 27.6729 852.91 30.0144 850.418 30.0144C847.927 30.0144 847.646 27.6729 847.646 24.9942C847.646 22.4466 847.927 20.0489 850.418 20.0489C852.91 20.0489 853.191 22.4466 853.191 24.9942ZM857.511 21.7161H859.59C859.721 20.7608 860.414 19.8616 861.913 19.8616C863.374 19.8616 864.142 20.6484 864.142 21.8285C864.142 23.2896 862.962 23.8515 861.032 23.8703H860.527V25.6311H861.014C863.243 25.6311 864.404 26.2493 864.404 28.0475C864.404 29.3213 863.617 30.2954 862.025 30.2954C860.414 30.2954 859.478 29.3213 859.384 28.0475H857.323C857.454 30.7262 859.459 32.0749 862.044 32.0749C864.891 32.0749 866.427 30.4265 866.427 28.2536C866.427 26.3616 865.509 25.1815 864.086 24.7507V24.6758C865.153 24.3198 866.184 23.2147 866.184 21.585C866.184 19.5994 864.704 18.0259 861.988 18.0259C859.496 18.0259 857.661 19.3558 857.511 21.7161Z" fill="#212832"/>
<defs>
<filter id="filter0_d_953_238" x="23.5312" y="0.531738" width="365.938" height="47.9365" filterUnits="userSpaceOnUse" color-interpolation-filters="sRGB">
<feFlood flood-opacity="0" result="BackgroundImageFix"/>
<feColorMatrix in="SourceAlpha" type="matrix" values="0 0 0 0 0 0 0 0 0 0 0 0 0 0 0 0 0 0 127 0" result="hardAlpha"/>
<feOffset/>
<feComposite in2="hardAlpha" operator="out"/>
<feColorMatrix type="matrix" values="0 0 0 0 0 0 0 0 0 0 0 0 0 0 0 0 0 0 0.1 0"/>
<feBlend mode="normal" in2="BackgroundImageFix" result="effect1_dropShadow_953_238"/>
<feBlend mode="normal" in="SourceGraphic" in2="effect1_dropShadow_953_238" result="shape"/>
</filter>
<filter id="filter1_d_953_238" x="23.5312" y="77.5317" width="365.938" height="47.9365" filterUnits="userSpaceOnUse" color-interpolation-filters="sRGB">
<feFlood flood-opacity="0" result="BackgroundImageFix"/>
<feColorMatrix in="SourceAlpha" type="matrix" values="0 0 0 0 0 0 0 0 0 0 0 0 0 0 0 0 0 0 127 0" result="hardAlpha"/>
<feOffset/>
<feComposite in2="hardAlpha" operator="out"/>
<feColorMatrix type="matrix" values="0 0 0 0 0 0 0 0 0 0 0 0 0 0 0 0 0 0 0.1 0"/>
<feBlend mode="normal" in2="BackgroundImageFix" result="effect1_dropShadow_953_238"/>
<feBlend mode="normal" in="SourceGraphic" in2="effect1_dropShadow_953_238" result="shape"/>
</filter>
<filter id="filter2_d_953_238" x="435.531" y="77.5317" width="365.938" height="47.9365" filterUnits="userSpaceOnUse" color-interpolation-filters="sRGB">
<feFlood flood-opacity="0" result="BackgroundImageFix"/>
<feColorMatrix in="SourceAlpha" type="matrix" values="0 0 0 0 0 0 0 0 0 0 0 0 0 0 0 0 0 0 127 0" result="hardAlpha"/>
<feOffset/>
<feComposite in2="hardAlpha" operator="out"/>
<feColorMatrix type="matrix" values="0 0 0 0 0 0 0 0 0 0 0 0 0 0 0 0 0 0 0.1 0"/>
<feBlend mode="normal" in2="BackgroundImageFix" result="effect1_dropShadow_953_238"/>
<feBlend mode="normal" in="SourceGraphic" in2="effect1_dropShadow_953_238" result="shape"/>
</filter>
<filter id="filter3_d_953_238" x="858.531" y="77.5317" width="365.938" height="47.9365" filterUnits="userSpaceOnUse" color-interpolation-filters="sRGB">
<feFlood flood-opacity="0" result="BackgroundImageFix"/>
<feColorMatrix in="SourceAlpha" type="matrix" values="0 0 0 0 0 0 0 0 0 0 0 0 0 0 0 0 0 0 127 0" result="hardAlpha"/>
<feOffset/>
<feComposite in2="hardAlpha" operator="out"/>
<feColorMatrix type="matrix" values="0 0 0 0 0 0 0 0 0 0 0 0 0 0 0 0 0 0 0.1 0"/>
<feBlend mode="normal" in2="BackgroundImageFix" result="effect1_dropShadow_953_238"/>
<feBlend mode="normal" in="SourceGraphic" in2="effect1_dropShadow_953_238" result="shape"/>
</filter>
<filter id="filter4_d_953_238" x="437.531" y="0.531738" width="365.938" height="47.9365" filterUnits="userSpaceOnUse" color-interpolation-filters="sRGB">
<feFlood flood-opacity="0" result="BackgroundImageFix"/>
<feColorMatrix in="SourceAlpha" type="matrix" values="0 0 0 0 0 0 0 0 0 0 0 0 0 0 0 0 0 0 127 0" result="hardAlpha"/>
<feOffset/>
<feComposite in2="hardAlpha" operator="out"/>
<feColorMatrix type="matrix" values="0 0 0 0 0 0 0 0 0 0 0 0 0 0 0 0 0 0 0.1 0"/>
<feBlend mode="normal" in2="BackgroundImageFix" result="effect1_dropShadow_953_238"/>
<feBlend mode="normal" in="SourceGraphic" in2="effect1_dropShadow_953_238" result="shape"/>
</filter>
<filter id="filter5_d_953_238" x="859.531" y="0.531738" width="365.938" height="47.9365" filterUnits="userSpaceOnUse" color-interpolation-filters="sRGB">
<feFlood flood-opacity="0" result="BackgroundImageFix"/>
<feColorMatrix in="SourceAlpha" type="matrix" values="0 0 0 0 0 0 0 0 0 0 0 0 0 0 0 0 0 0 127 0" result="hardAlpha"/>
<feOffset/>
<feComposite in2="hardAlpha" operator="out"/>
<feColorMatrix type="matrix" values="0 0 0 0 0 0 0 0 0 0 0 0 0 0 0 0 0 0 0.1 0"/>
<feBlend mode="normal" in2="BackgroundImageFix" result="effect1_dropShadow_953_238"/>
<feBlend mode="normal" in="SourceGraphic" in2="effect1_dropShadow_953_238" result="shape"/>
</filter>
</defs>
</svg>
