<svg width="590" height="387" viewBox="0 0 590 387" fill="none" xmlns="http://www.w3.org/2000/svg">
<path d="M253.065 266.873C253.065 266.873 250.985 271.351 247.64 278.389C241.04 292.372 229.648 316.41 220.606 334.872C214.639 347.027 209.757 356.807 207.948 359.64C201.981 368.78 52.5269 360.371 52.5269 360.371L51.3516 330.028C51.3516 330.028 159.125 319.426 162.018 317.415C162.922 316.775 166.629 308.093 171.24 296.394C176.032 284.147 181.909 268.701 186.792 255.722C192.307 241.007 196.556 229.4 196.556 229.4L253.065 266.873Z" fill="#E8AA80"/>
<path d="M247.639 278.389C241.038 292.372 229.646 316.41 220.605 334.872L171.148 296.211C175.94 284.055 181.817 268.518 186.7 255.539L247.639 278.389Z" fill="#D68163"/>
<path d="M259.575 218.067L238.508 171.546C238.508 171.546 217.171 180.594 206.683 195.492C196.104 210.481 167.805 289.173 167.805 289.173L234.621 320.065L259.575 218.067Z" fill="#32B38E"/>
<path d="M70.3413 355.984C57.0505 371.613 39.7814 373.715 27.666 373.441C21.2466 373.35 16.0026 369.694 22.5124 363.479C22.5124 363.479 17.3588 363.662 11.5723 361.56C7.23241 359.914 2.35006 356.076 0.632199 351.78C-0.904837 347.941 0.632198 343.646 2.35006 339.898C5.42413 332.861 9.1311 326.098 13.1997 319.608C15.9121 315.313 19.3479 310.834 24.2302 309.738C28.8413 308.732 33.5429 310.926 37.7923 313.119C46.3816 317.598 70.0701 329.845 72.3304 331.947C74.1387 333.775 65.8206 349.495 70.3413 355.984Z" fill="#E8AA80"/>
<path d="M23.7812 362.473C28.6636 358.818 33.0939 354.522 37.0721 349.861" stroke="#CF5953" stroke-width="2" stroke-miterlimit="10" stroke-linecap="round"/>
<path d="M31.7331 354.613C29.2919 350.318 26.8508 346.113 24.5 341.818" stroke="#CF5953" stroke-width="2" stroke-miterlimit="10" stroke-linecap="round"/>
<path d="M28.8439 350.592C25.7698 349.861 22.4245 350.226 19.5312 351.506" stroke="#CF5953" stroke-width="2" stroke-miterlimit="10" stroke-linecap="round"/>
<path d="M363.738 168.621C363.738 168.621 333.631 207.556 305.964 208.47C280.648 209.384 250.992 167.25 250.992 167.25C250.992 167.25 268.442 166.885 274.409 161.675C276.308 160.03 278.026 154.455 279.292 147.783C280.467 141.933 281.371 135.17 282.004 129.412C282.908 121.461 283.36 115.154 283.36 115.154L326.217 109.579C326.217 109.579 327.211 122.923 328.386 135.901C329.019 142.39 329.743 148.88 330.376 153.541C330.828 156.557 331.28 158.933 331.732 160.03C333.992 166.153 363.738 168.621 363.738 168.621Z" fill="#E8AA80"/>
<path d="M330.376 153.632C304.246 158.568 288.333 139.557 281.914 129.503C282.818 121.552 283.27 115.246 283.27 115.246L326.126 109.67C326.126 109.67 327.121 123.014 328.296 135.993C329.02 142.482 329.653 148.971 330.376 153.632Z" fill="#D68163"/>
<path d="M369.24 109.76C378.241 107.896 384.285 100.211 382.741 92.5957C381.197 84.9808 372.649 80.3196 363.648 82.1846C354.648 84.0496 348.603 91.7345 350.147 99.3494C351.692 106.964 360.24 111.625 369.24 109.76Z" fill="#D68163"/>
<path d="M263.377 79.6009C264.914 45.7841 286.433 18.1823 315.004 18.1823C343.574 18.1823 366.63 45.6927 366.63 79.6009C366.63 113.509 345.202 142.39 323.683 144.767C295.293 148.057 261.75 114.88 263.377 79.6009Z" fill="#E8AA80"/>
<path d="M272.691 91.2083C275.584 83.8965 282.546 62.5097 288.604 53.0959C288.604 53.0959 314.372 61.2302 326.577 60.042C341.857 58.5797 341.586 50.4454 338.693 46.5153L354.877 54.3754L365.365 84.0793L361.206 40.4831L281.371 25.3113L264.734 66.0742" fill="#D68163"/>
<path d="M286.883 79.5095C293.302 73.4773 301.439 72.6547 307.768 75.945" stroke="#08183D" stroke-width="3" stroke-miterlimit="10" stroke-linecap="round"/>
<path d="M357.859 79.2353C351.259 73.3859 343.121 72.8375 336.883 76.3106" stroke="#08183D" stroke-width="3" stroke-miterlimit="10" stroke-linecap="round"/>
<path d="M324.047 96.7834C324.77 101.719 324.047 107.842 322.781 111.316" stroke="#CF5953" stroke-width="3" stroke-miterlimit="10" stroke-linecap="round"/>
<path d="M305.602 116.068C309.218 120.09 317.898 122.923 322.78 122.466" stroke="#CF5953" stroke-width="3" stroke-miterlimit="10" stroke-linecap="round"/>
<path d="M369.073 64.886C368.078 78.7783 365.185 94.5899 365.185 94.5899C363.738 77.6816 362.382 63.8807 358.223 51.4507L326.307 37.8326C326.307 37.8326 343.938 51.2679 331.732 54.9238C319.255 58.5797 286.887 46.7895 286.887 46.7895C282.547 54.3754 275.314 83.5309 273.415 96.9663C272.42 103.912 257.412 89.6545 257.683 95.0469C257.683 95.0469 239.871 46.6067 264.826 18.1823C264.916 18.0909 264.916 17.9996 265.006 17.9996C277.122 4.29005 294.029 -0.553966 314.915 0.268604C349.001 0.268604 365.004 24.1231 368.44 48.7088C369.254 54.1926 369.434 59.585 369.073 64.886Z" fill="#08183D"/>
<path d="M368.438 48.8002C363.465 38.7466 356.142 29.7897 347.281 22.8436C333.086 11.7846 314.823 6.20937 296.921 7.58032C285.619 8.40289 274.588 12.0588 264.914 17.9995C277.03 4.29004 293.937 -0.553981 314.823 0.359986C348.999 0.359986 365.002 24.2145 368.438 48.8002Z" fill="#1A3866"/>
<path d="M263.378 112.961C272.566 112.961 280.014 106.659 280.014 98.8856C280.014 91.1121 272.566 84.8105 263.378 84.8105C254.19 84.8105 246.742 91.1121 246.742 98.8856C246.742 106.659 254.19 112.961 263.378 112.961Z" fill="#E8AA80"/>
<path d="M292.133 94.6814C296.925 97.8802 303.615 97.8802 308.498 94.7728" stroke="#2A334F" stroke-width="2" stroke-miterlimit="10" stroke-linecap="round"/>
<path d="M336.883 94.3158C341.765 97.3318 348.637 96.8749 353.067 93.1276" stroke="#2A334F" stroke-width="2" stroke-miterlimit="10" stroke-linecap="round"/>
<path d="M551.253 286.34C551.253 286.34 444.564 370.425 420.605 373.441C412.287 374.446 399.538 354.248 388.237 331.947C377.658 311.109 371.148 290.362 371.148 290.362L410.659 233.513L414.637 227.846C414.637 227.846 414.999 228.852 415.632 230.771C419.339 241.099 431.907 276.195 439.592 293.926C442.304 300.324 444.474 304.437 445.378 304.345C449.085 304.254 530.819 270.437 530.819 270.437L551.253 286.34Z" fill="#E8AA80"/>
<path d="M439.592 294.017L388.237 332.038C377.658 311.2 371.148 290.453 371.148 290.453L410.659 233.604L415.632 230.862C419.339 241.099 431.907 276.195 439.592 294.017Z" fill="#D68163"/>
<path d="M344.93 213.131L363.645 168.073C363.645 168.073 387.334 175.659 397.822 190.648C408.31 205.637 442.305 288.168 442.305 288.168L374.857 320.157L344.93 213.131Z" fill="#32B38E"/>
<path d="M515.633 279.028C515.633 279.028 527.658 242.652 531.003 237.351C534.077 232.416 561.925 211.669 567.892 215.142C573.679 218.524 551.256 235.067 551.256 235.067C551.256 235.067 580.46 219.164 584.347 224.83C588.778 231.319 555.957 246.948 555.957 246.948C555.957 246.948 589.139 238.174 589.139 242.195C589.139 247.131 561.563 255.996 561.563 255.996C561.563 255.996 589.772 252.432 589.139 256.819C588.235 262.943 560.84 265.959 560.84 265.959C560.84 265.959 557.133 291.641 540.587 294.017L515.633 279.028Z" fill="#E8AA80"/>
<path d="M527.203 255.448C533.532 248.136 540.404 241.373 547.908 235.341C548.902 234.518 549.987 233.696 551.253 233.239C552.519 232.782 554.056 232.964 554.96 233.878C555.864 234.701 556.136 236.072 555.955 237.26C555.774 238.448 555.231 239.636 554.599 240.642C551.977 245.486 549.083 250.056 546.009 254.991C548.722 261.937 547.908 270.163 543.93 276.378" fill="#E8AA80"/>
<path d="M527.203 255.448C533.532 248.136 540.404 241.373 547.908 235.341C548.902 234.518 549.987 233.696 551.253 233.239C552.519 232.782 554.056 232.964 554.96 233.878C555.864 234.701 556.136 236.072 555.955 237.26C555.774 238.448 555.231 239.636 554.599 240.642C551.977 245.486 549.083 250.056 546.009 254.991C548.722 261.937 547.908 270.163 543.93 276.378" stroke="#CF5953" stroke-width="2" stroke-miterlimit="10" stroke-linecap="round"/>
<path d="M390.585 315.587C387.602 354.156 383.804 385.78 383.804 385.78L230.643 386.237C230.643 386.237 228.835 371.979 226.484 351.049C220.517 298.496 211.385 203.992 219.793 187.814C231.005 166.336 267.17 163.869 267.17 163.869C267.17 163.869 303.698 204.357 305.506 203.626C309.484 201.89 336.247 161.401 336.247 161.401C336.247 161.401 379.464 166.702 388.235 183.884C397.185 201.89 394.473 264.77 390.585 315.587Z" fill="#3DC6A6"/>
<path d="M390.586 315.587C387.602 354.156 383.805 385.78 383.805 385.78L230.643 386.237C230.643 386.237 228.835 371.979 226.484 351.049C307.676 377.28 367.982 335.329 390.586 315.587Z" fill="#32B38E"/>
<path d="M306.688 203.169C325.674 200.062 343.667 203.352 360.303 212.035C359.399 208.653 357.681 203.626 356.777 200.336C356.506 199.331 356.144 198.234 355.421 197.411C354.336 196.223 352.618 195.949 351.081 195.766C336.886 194.486 322.329 196.863 306.688 203.169Z" fill="#32B38E"/>
<path d="M302.706 202.529C287.335 194.486 268.168 194.395 252.978 202.347C251.622 206.185 250.718 210.207 250.266 214.32C265.817 205.637 283.719 201.433 302.706 202.529Z" fill="#32B38E"/>
<path d="M305.234 203.809C317.259 190.648 325.939 177.578 331.635 157.654C331.635 157.654 345.559 155.095 350.441 164.874C352.521 168.987 361.653 206.551 361.653 206.551C344.203 197.868 325.035 198.508 305.234 203.809Z" fill="#E0FFFD"/>
<path d="M275.578 157.654C275.578 157.654 262.559 154.181 257.405 165.148C254.964 170.266 248.906 209.933 248.906 209.933C265.994 197.685 288.417 197.046 305.234 203.9C290.497 188.911 280.189 174.653 275.578 157.654Z" fill="#E0FFFD"/>
</svg>
